<?xml version="1.0" encoding="utf-8"?>
<COLLADA xmlns="http://www.collada.org/2005/11/COLLADASchema" version="1.4.1" xmlns:xsi="http://www.w3.org/2001/XMLSchema-instance">
  <asset>
    <contributor>
      <author>Blockbench user</author>
      <authoring_tool>Blockbench</authoring_tool>
    </contributor>
    <created>2026-03-07T09:18:51.237Z</created>
    <modified>2026-03-07T09:18:51.246Z</modified>
    <unit name="meter" meter="1.0"/>
    <up_axis>Y_UP</up_axis>
  </asset>
  <library_effects>
  </library_effects>
  <library_images>
  </library_images>
  <library_materials>
  </library_materials>
  <library_geometries>
    <geometry id="Ammunition-mesh" name="Ammunition">
      <mesh>
        <source id="Ammunition-mesh-positions">
          <float_array id="Ammunition-mesh-positions-array" count="756">-0.077911 -0.470276 -0.068733 -0.052586 -0.499664 -0.084778 -0.089272 -0.499054 -0.048706 -0.0979 -0.5 -0.012926 -0.074768 -0.499817 -0.031452 -0.047714 -0.470703 -0.091011 -0.024853 -0.499573 -0.077271 -0.014627 -0.499237 -0.098991 -0.009112 -0.500183 -0.060467 -0.02091 -0.469879 -0.099846 -0.058819 -0.468781 -0.064781 -0.010499 -0.467285 -0.08284 -0.031586 -0.498016 -0.040237 -0.050426 -0.497986 -0.007777 0.033001 -0.49884 -0.043491 -0.006764 -0.499786 0.00095 -0.031067 -0.452454 -0.073936 -0.001565 -0.450012 -0.080971 -0.068863 -0.450958 -0.044178 -0.028814 -0.429688 -0.092712 -0.053646 -0.430237 -0.080498 -0.033764 -0.321411 -0.090683 -0.06691 -0.428741 -0.070343 -0.081329 -0.429016 -0.052982 -0.100212 -0.470001 -0.019701 -0.08709 -0.468689 0.00777 -0.079865 -0.452972 0.000644 -0.09803 -0.469788 0.029507 -0.097435 -0.498779 0.029589 -0.062988 -0.499756 0.009061 -0.091698 -0.429504 -0.031593 -0.09655 -0.430084 -0.001413 -0.070747 -0.452087 0.040112 -0.09655 -0.321289 -0.001855 -0.093361 -0.428436 0.027424 0.02261 -0.470642 -0.100616 0.051922 -0.499786 -0.083839 0.084831 -0.499817 -0.0541 0.033707 -0.468109 -0.076279 0.060974 -0.470459 -0.083794 0.093765 -0.470642 -0.044319 0.101006 -0.499451 0.003927 0.064819 -0.468201 -0.05246 0.067627 -0.450134 -0.047318 0.030336 -0.450714 -0.075577 0.058018 -0.430054 -0.077644 0.04118 -0.429993 -0.087509 0.025455 -0.428284 -0.093307 -0.003551 -0.430145 -0.096924 0.012981 -0.286652 -0.095604 -0.076584 -0.187912 -0.058479 -0.061752 -0.163788 -0.073708 -0.085518 -0.189178 -0.044037 -0.045963 -0.228348 -0.084457 -0.093964 -0.2332 -0.022034 -0.078949 -0.430878 0.056408 -0.03376 -0.452026 0.073181 -0.058842 -0.429901 0.076897 -0.064346 -0.468811 0.057571 -0.071938 -0.470032 0.073662 -0.023775 -0.468781 0.082024 -0.065422 -0.499634 0.07724 -0.040401 -0.470001 0.094208 -0.03521 -0.5 0.058197 -0.024366 -0.49823 0.044933 0.024843 -0.498871 0.043724 0.013991 -0.47049 0.101448 0.02537 -0.468658 0.081673 -0.013528 -0.499207 0.099403 0.022482 -0.49939 0.097687 -0.01156 -0.499481 0.077309 0.050274 -0.499786 0.066086 -0.00288 -0.46109 0.082817 0.014855 -0.447906 0.081932 0.005048 -0.431793 0.096733 -0.029654 -0.427612 0.093102 -0.022394 -0.358582 0.093857 -0.044498 -0.333649 0.085762 -0.03289 -0.18988 0.090347 -0.009209 -0.261139 0.095581 0.021809 -0.296509 0.094078 0.004909 -0.199936 0.095764 0.045891 -0.430115 0.0858 0.057564 -0.356659 0.07843 0.048622 -0.207382 0.083183 0.069939 -0.209488 0.066643 0.084351 -0.35614 0.04805 0.081741 -0.429962 0.053146 0.085258 -0.237656 0.044964 0.091591 -0.214401 0.028852 0.095161 -0.324677 0.014954 0.094154 -0.429169 0.022974 -0.093567 -0.295868 0.024399 -0.095291 -0.185669 0.010879 -0.082687 -0.303284 0.049789 -0.07148 -0.265717 0.064819 -0.053307 -0.157669 0.080078 -0.083847 -0.194717 0.0471 0.048222 -0.498413 0.016546 0.086693 -0.468781 0.012115 0.079872 -0.452515 -0.010347 0.093895 -0.429138 -0.023989 0.096596 -0.429779 -0.000406 0.081413 -0.429993 -0.052879 0.085052 -0.279144 -0.045799 0.077484 -0.499817 0.007114 0.100586 -0.469788 0.015663 0.084717 -0.470032 0.059143 0.08979 -0.499573 0.045532 0.072182 -0.306305 -0.064247 0.095978 -0.265778 -0.004971 0.058182 -0.468262 0.061234 0.051006 -0.451843 0.062401 0.073463 -0.453064 0.033264 0.048721 -0.470093 0.091354 0.059856 -0.498871 0.080482 0.094681 -0.170288 0.015026 -0.007962 -0.179657 -0.095764 -0.02825 -0.152328 -0.091835 -0.031094 0.014953 -0.090286 0.033127 -0.258881 -0.090462 0.05547 -0.251282 -0.078735 0.094017 -0.248291 -0.021063 0.045807 -0.117775 -0.084351 0.029724 -0.09742 -0.091064 0.047432 0.014787 -0.083771 0.062107 -0.10849 -0.073006 0.079926 -0.078384 -0.053463 0.073692 0.016294 -0.061153 0.090027 -0.107277 -0.034008 0.090286 0.016092 -0.031597 0.095268 -0.085541 -0.008699 -0.090996 -0.130112 0.030235 -0.021774 -0.095207 0.093361 0.076859 -0.085548 0.057934 0.029009 -0.110283 0.091522 -0.092659 0.015221 -0.023945 -0.081497 0.015718 -0.050304 -0.068726 0.015371 -0.066429 -0.052544 -0.071266 -0.080597 -0.049206 0.014132 -0.082329 -0.095718 -0.075722 0.006121 -0.094978 0.015269 -0.009573 0.008006 -0.083733 -0.095596 0.014769 0.014702 -0.094246 -0.007191 0.013821 -0.095253 -0.086037 0.015582 0.041454 -0.093384 0.014273 0.021111 -0.078789 -0.039764 0.054501 -0.067261 0.014684 0.068054 -0.06897 -0.124107 0.067177 -0.047951 0.01553 0.082733 0.006674 0.015443 0.095291 0.087875 0.016432 0.0378 0.094574 -0.034901 0.01448 0.096046 0.015837 -0.001064 -0.026804 0.015171 0.091728 0.052368 0.015972 0.080055 0.031765 0.015185 0.090149 0.065666 0.016621 0.069931 -0.053719 0.079842 -0.048698 -0.026991 0.077812 -0.066917 -0.039421 0.175522 -0.062538 -0.005912 0.078392 -0.071754 -0.010577 0.175095 -0.07341 0.025854 0.078835 -0.067612 0.015917 0.177322 -0.072212 0.054981 0.077835 -0.046841 0.049225 0.13826 -0.055607 0.070183 0.07872 -0.016834 0.069382 0.176956 -0.025072 -0.070686 0.077309 -0.014634 -0.067184 0.177917 -0.031357 -0.071175 0.077621 0.013268 -0.073204 0.178223 -0.006623 -0.064774 0.07795 0.03289 -0.068489 0.176239 0.026722 -0.02684 0.182419 -0.061302 -0.066078 0.181534 -0.006211 -0.052441 0.181976 -0.041672 -0.055454 0.235458 -0.041527 -0.066971 0.262573 -0.010957 -0.03783 0.285156 -0.054985 0.071342 0.078705 0.009229 0.073006 0.178436 0.000932 0.063667 0.078163 0.0331 0.045586 0.078636 0.05587 0.05801 0.177612 0.045418 0.021072 0.076714 0.069153 -0.002288 0.07859 0.072128 -0.000566 0.176041 0.074074 -0.025702 0.077454 0.067245 0.047173 0.17569 -0.056175 0.048847 0.182159 -0.046543 0.019024 0.181702 -0.063194 0.03685 0.255157 -0.058296 0.056042 0.25174 -0.038994 0.00633 0.229431 -0.067284 -0.016399 0.27179 -0.065285 -0.043243 0.078011 0.057621 -0.056957 0.17746 0.046417 -0.039726 0.177567 0.062099 -0.023567 0.176758 0.069893 -0.042347 0.182709 0.052174 -0.012055 0.181519 0.066376 0.033329 0.175735 0.066597 0.040356 0.182709 0.054993 0.056229 0.266907 0.037815 0.038776 0.255066 0.05666 0.05294 0.181503 0.041298 0.064575 0.23967 0.01972 0.062222 0.182251 0.020649 0.069847 0.173965 0.023602 0.065193 0.181473 -0.012385 0.066559 0.258911 -0.012074 -0.057098 0.181839 0.033978 -0.064651 0.242966 0.021582 -0.055 0.269257 0.039875 -0.034016 0.291504 0.056965 0.004283 0.239044 0.068207 -0.050159 0.302765 -0.041977 -0.022081 0.365021 -0.049309 0.006933 0.37146 -0.051956 -0.036304 0.406525 -0.025991 -0.054977 0.351532 -0.012927 -0.054855 0.343658 0.020241 -0.046814 0.392426 0.003172 -0.042763 0.343964 0.040714 -0.02743 0.431946 0.024656 -0.019876 0.326233 0.058685 0.009852 0.312561 0.061947 0.016602 0.3013 -0.062435 0.03624 0.339691 -0.047142 0.023514 0.414215 -0.034176 0.038868 0.388 -0.030251 0.057465 0.322418 -0.023571 0.048031 0.388611 0.005542 0.060982 0.3172 0.012069 0.053036 0.333832 0.028809 0.02404 0.414062 0.034801 0.033768 0.343781 0.048702 -0.002924 0.409943 0.042896 -0.011622 0.439667 -0.031288 0.005888 0.438751 -0.032684 -0.006501 0.498199 -0.008997 0.023275 0.45047 -0.019274 0.009252 0.497284 -0.007133 0.035236 0.432129 -0.004491 0.026718 0.442871 0.019827 0.011286 0.484222 0.013214 -0.005796 0.503174 0.007196 -0.028191 0.453705 -0.001308</float_array>
          <technique_common>
            <accessor source="#Ammunition-mesh-positions-array" count="252" stride="3">
              <param name="X" type="float"/>
              <param name="Y" type="float"/>
              <param name="Z" type="float"/>
            </accessor>
          </technique_common>
        </source>
        <source id="Ammunition-mesh-normals">
          <float_array id="Ammunition-mesh-normals-array" count="1500">-0.686898 -0.212484 -0.694997 -0.055741 -0.997651 -0.039819 0.008417 -0.999964 0.000632 -0.592763 -0.072904 -0.802071 0.003647 -0.999992 -0.001352 0.006624 -0.999902 -0.01235 -0.345732 -0.141479 -0.927606 -0.015283 -0.999642 -0.021972 -0.309071 -0.093708 -0.946411 -0.057678 0.99359 -0.097224 -0.063351 0.99301 -0.099584 -0.07099 0.991635 -0.107799 0.080216 -0.977747 0.193848 0.047432 -0.998469 0.028453 -0.00776 -0.995158 0.097979 -0.037072 -0.9991 -0.020594 -0.014473 -0.999309 -0.034222 -0.351135 0.073441 -0.93344 -0.243663 0.228029 -0.942672 -0.522656 0.50201 -0.689069 -0.132315 -0.622843 -0.771077 -0.350864 -0.574904 -0.739175 -0.480975 -0.659453 -0.57774 -0.441302 -0.003359 -0.897352 -0.513593 -0.634763 -0.57732 -0.627853 -0.569554 -0.530479 -0.96343 -0.12748 -0.235692 -0.907838 0.070773 -0.413305 -0.070282 0.99682 -0.037557 -0.053512 0.998322 -0.022118 -0.926658 -0.10495 -0.360958 -0.920908 0.32752 -0.211329 -0.099727 0.995015 0.000115 -0.998807 -0.020374 0.044378 -0.99718 -0.073909 0.013029 -0.01117 -0.999522 0.028828 0.007395 -0.999972 -0.000645 0.102258 -0.994357 -0.028236 -0.736255 -0.566691 -0.369852 -0.728201 -0.653011 -0.208086 -0.794236 -0.591483 -0.139055 -0.80051 -0.565799 0.197623 -0.98732 -0.000645 -0.158743 -0.993943 0.000446 0.109892 -0.018259 -0.03301 -0.999288 0.207584 -0.322796 -0.923424 -0.004269 -0.999838 -0.017477 -0.005441 -0.999499 -0.031186 0.018859 -0.999301 0.032273 -0.015539 -0.999749 0.016153 0.015468 0.993758 -0.110483 0.044639 0.983146 -0.177291 0.399073 -0.121783 -0.908796 0.656605 -0.201551 -0.726806 0.050606 0.990715 -0.126189 0.769002 -0.021294 -0.638892 0.943894 -0.201257 -0.26184 0.10732 0.990622 -0.084556 0.06382 0.994788 -0.079518 0.147302 0.030783 -0.988612 0.602953 0.130292 -0.787065 0.595921 0.147342 -0.78941 0.167828 0.072201 -0.983169 0.45547 -0.669037 -0.587313 0.400635 -0.605594 -0.687566 0.228064 -0.572751 -0.787365 0.118363 -0.614494 -0.779992 0.13691 -0.595774 -0.791397 0.124065 -0.005166 -0.992261 -0.13897 -0.628449 -0.765336 -0.164253 0.010974 -0.986357 -0.769281 0.000573 -0.63891 -0.720493 0.005219 -0.693443 -0.850608 0.004753 -0.52578 -0.607776 0.001746 -0.794107 -0.549967 0.004552 -0.835174 -0.45537 -0.000129 -0.890302 -0.899842 0.000552 -0.436215 -0.937593 0.006107 -0.347682 -0.989323 -0.004327 -0.145672 -0.857509 0.479139 0.18736 -0.74893 -0.651681 0.120065 -0.76432 -0.551867 0.333554 -0.51209 -0.639026 0.573941 -0.512798 -0.671231 0.535245 -0.591162 0.463107 0.660348 -0.906223 0.085427 0.414079 -0.050036 0.998427 0.025297 -0.065992 0.996827 0.044504 -0.036099 0.997625 0.058669 -0.860849 -0.016229 0.508602 -0.825523 -0.114928 0.552543 -0.545755 -0.018875 0.837732 -0.027879 -0.999611 0.000793 -0.011239 -0.999936 0.001388 0.092357 -0.994085 -0.057148 0.080666 -0.995748 -0.044491 -0.044668 -0.998849 0.01746 -0.012271 -0.999461 0.030447 -0.01646 -0.989227 -0.145463 -0.034985 0.998024 0.052194 -0.003655 0.9955 0.094694 -0.001841 0.995831 0.091197 -0.131254 0.055292 0.989806 0.046696 -0.115406 0.99222 -0.384054 -0.192761 0.902965 -0.00451 -0.999918 0.011999 0.002824 -0.999916 0.012652 0.002809 -0.999716 0.023671 -0.000003 -0.999631 0.027149 0.007395 -0.122419 0.992451 0.042946 0.009292 0.999034 -0.17328 0.376954 0.909879 -0.194116 0.323294 0.926175 -0.510992 0.142845 0.847633 -0.069297 -0.69741 0.713314 -0.154765 -0.608836 0.778053 -0.372679 -0.548235 0.748698 -0.104058 0.000066 0.994571 -0.484888 -0.008286 0.874537 -0.320468 0.023347 0.946972 -0.345873 -0.001997 0.938279 -0.191296 0.008519 0.981495 -0.110996 -0.002564 0.993818 0.061942 0.011912 0.998009 0.03564 -0.011209 0.999302 0.259061 -0.013143 0.965772 0.431535 0.021907 0.90183 0.392787 -0.005752 0.919611 0.613694 0.011625 0.789458 0.750116 -0.010116 0.661228 0.749769 0.01915 0.661422 0.82185 0.008545 0.56964 0.929453 0.002494 0.368932 0.952629 -0.007479 0.304043 0.945946 0.015747 0.32394 -0.993716 0.00101 0.111929 -0.99344 -0.001514 0.114341 -0.918331 0.007603 0.39574 -0.713644 -0.003401 0.700501 -0.658959 0.004609 0.752165 -0.809639 0.006726 0.58689 -0.808703 0.005928 0.588187 -0.919171 -0.000066 0.393859 -0.895515 -0.003149 0.44502 0.024724 -0.999694 0.000842 -0.016533 -0.999799 0.011302 0.090029 0.995706 -0.021553 0.94599 -0.046388 -0.320859 0.946654 -0.056853 -0.317198 0.739861 -0.609731 -0.284314 0.822939 -0.557496 -0.109406 0.74485 -0.593832 -0.30424 0.599715 -0.566528 -0.565144 0.918016 -0.003535 -0.396527 0.015815 -0.999873 0.001898 -0.049848 -0.998739 -0.005983 -0.073467 -0.994088 -0.07995 0.078135 0.996676 -0.023076 0.991771 0.058996 -0.113622 0.932683 -0.121204 0.339723 0.964485 0.045768 0.260143 0.015735 -0.999875 0.00131 0.007452 -0.999964 0.003964 0.72691 -0.008861 -0.686676 0.814871 0.007545 -0.579593 0.993507 0.000577 -0.113772 0.023908 -0.999707 0.003719 0.007007 -0.998782 -0.048837 -0.025914 -0.999599 -0.011431 0.510027 0.248151 0.823586 0.482539 0.149556 0.863011 0.763262 0.292646 0.576012 0.296856 -0.66653 0.683823 0.233226 -0.577031 0.782714 0.569499 -0.536549 0.622724 0.673098 -0.032835 0.738824 0.031977 0.996988 0.070651 0.018505 0.994532 0.102784 0.072859 0.993857 0.083303 0.279289 -0.042779 0.959254 0.66668 -0.023486 0.744974 0.413567 -0.177357 0.893032 0.747031 -0.168065 0.643194 0.028522 -0.998603 0.044486 0.03298 -0.998593 0.041518 -0.003163 -0.999947 0.009749 0.837691 0.530499 0.129784 0.863882 0.053199 0.500876 0.065311 0.99749 0.02737 0.068938 0.997147 0.030756 0.773831 -0.624484 0.10586 0.780834 -0.617059 0.097656 0.994584 -0.001608 0.103925 0.780911 -0.544007 0.306975 0.598923 -0.634774 0.488214 0.924835 -0.006444 0.380315 0.998376 0.005341 0.056726 0.998741 0.003082 0.050062 -0.198707 0.001039 -0.980058 0.034372 0.005233 -0.999395 -0.190736 -0.000468 -0.981641 -0.182323 0.006005 -0.98322 -0.410593 0.007178 -0.91179 -0.99796 0.015088 -0.062026 0.345954 0.00009 -0.938251 0.240284 0.00542 -0.970688 0.505512 0.001939 -0.862817 0.664204 0.004905 -0.747536 0.462996 0.006494 -0.886337 0.938145 0.004969 -0.346207 0.99282 0.001265 -0.119612 0.465674 -0.003521 -0.884949 0.390347 0.004794 -0.920655 0.384463 -0.000674 -0.92314 0.572576 -0.003432 -0.819844 0.568729 0.006565 -0.822499 0.654827 -0.000114 -0.755779 0.733344 0.007249 -0.679819 0.743084 -0.005424 -0.669176 0.820731 -0.000854 -0.571314 0.890749 0.005394 -0.454464 0.891684 0.006973 -0.452605 0.941818 -0.004205 -0.336096 0.978891 0.001939 -0.204374 0.97773 0.008415 -0.209696 0.992842 0.001441 -0.119424 0.999111 0.004802 0.041872 -0.529921 0.000865 0.848046 -0.981049 0.008401 0.193576 -0.920041 0.000475 0.391822 -0.440557 0.006942 0.897698 -0.227941 -0.004234 0.973666 -0.053346 0.00932 0.998533 0.973895 0.002922 0.226981 0.81384 -0.004609 0.581071 0.382437 -0.002104 0.923979 0.144415 0.007997 0.989485 -0.935035 0.002185 -0.354549 -0.920865 0.006148 -0.389834 -0.850454 0.0006 -0.526049 -0.783841 0.006016 -0.620932 -0.716726 0.000433 -0.697355 -0.63923 0.00636 -0.76899 -0.631183 0.008941 -0.775583 -0.424677 -0.001762 -0.905343 -0.40228 0.001638 -0.915515 -0.573609 -0.003903 -0.81912 -0.404601 0.005521 -0.914477 -0.999453 -0.005295 -0.03265 -0.979171 0.004981 0.202976 -0.996149 0.004559 -0.08756 -0.987055 -0.019431 -0.159202 0.207365 0.005123 -0.97825 0.203922 -0.000584 -0.978987 0.245295 0.001555 -0.969447 0.008964 0.000259 -0.99996 -0.005476 0.002663 -0.999981 -0.919327 0.000991 0.393494 -0.940645 0.005886 0.339341 -0.983327 -0.004776 0.181782 -0.998477 0.017163 0.052427 -0.86612 0.004399 0.499817 -0.816163 0.029156 0.577085 -0.798991 -0.002641 0.601338 -0.772504 0.0055 0.634986 -0.811188 0.004641 0.584766 -0.637709 -0.001523 0.770276 -0.632073 0.002887 0.774904 -0.60534 0.006518 0.79594 -0.449089 0.000191 0.893487 -0.339742 0.00995 0.940466 -0.078655 0.002834 0.996898 0.170587 0.000766 0.985342 0.930313 0.000759 0.366766 0.964113 0.005231 0.26544 0.974775 0.00167 0.223184 0.999609 0.000903 0.027957 0.865985 0.005179 0.500044 -0.203297 0.003396 -0.979111 0.045382 0.010582 -0.998914 0.305319 0.013702 -0.952152 0.65219 0.011449 -0.757969 0.871885 0.017659 -0.489393 0.982657 0.006416 -0.185323 0.998371 -0.011865 0.055815 0.97813 0.034463 0.20512 -0.105905 0.009885 0.994327 -0.391475 -0.004226 0.920179 0.613067 0.000782 0.79003 0.415343 0.005773 0.909646 0.439959 0.000163 0.898018 0.20082 0.006309 0.979608 0.696213 0.011562 0.717742 0.606359 -0.026891 0.794736 0.822457 0.023366 0.568347 -0.581185 0.338773 -0.739903 -0.73556 0.333409 -0.589738 -0.383821 0.399683 -0.832427 -0.514933 0.328044 -0.791979 -0.564704 -0.034884 -0.824556 -0.175902 0.339725 -0.923929 -0.218502 0.352545 -0.909928 -0.222856 -0.027438 -0.974465 0.029388 0.341321 -0.939487 0.115441 0.363886 -0.924262 0.12968 -0.033202 -0.991 0.288102 0.324377 -0.900987 0.547091 0.373338 -0.749207 0.578023 -0.062968 -0.813588 0.599795 0.349731 -0.719677 0.830471 0.352762 -0.431133 0.892001 -0.030547 -0.451 0.812014 0.367524 -0.453387 -0.861947 0.358767 -0.358236 -0.924679 0.349795 -0.15037 -0.840925 0.374075 -0.391041 -0.892975 -0.043385 -0.44801 -0.931534 0.363083 -0.020386 -0.999573 -0.023572 -0.017255 -0.939667 0.336833 0.059748 -0.89285 0.348359 0.285421 -0.889844 0.344458 0.299208 -0.950484 -0.01645 0.310338 -0.352738 -0.002938 -0.935718 -0.26829 0.621326 -0.73619 -0.044231 0.827388 -0.559887 0.046414 -0.014865 -0.998812 -0.971636 -0.005476 -0.236418 -0.990056 0.007803 0.140459 -0.42404 0.898513 0.11342 -0.413408 0.903656 -0.111799 -0.746187 0.015234 -0.665562 -0.552988 0.633625 -0.541039 -0.340208 0.932764 -0.119205 -0.383961 0.78695 -0.482994 -0.931907 -0.051527 -0.359019 -0.607818 -0.032091 -0.793427 -0.943781 -0.029681 -0.329235 -0.584183 -0.012593 -0.811524 0.925496 0.337567 -0.171774 0.927633 0.371232 -0.041037 0.998805 -0.020361 -0.044428 0.924063 0.332135 0.189196 0.882594 0.368354 0.292135 0.773406 0.343841 0.532557 0.732136 0.367148 0.573741 0.782385 -0.032531 0.621945 0.471587 0.33742 0.81471 -0.019034 0.999056 0.039044 0.423074 0.357618 0.832537 0.145696 0.342092 0.928303 0.19073 0.361798 0.912537 0.124564 -0.02201 0.991967 -0.20339 -0.015955 0.978968 0.834769 -0.000358 -0.5506 0.812618 0.035722 -0.581701 0.660227 0.565354 -0.494445 0.45695 0.011554 -0.889417 0.449573 0.00364 -0.893236 0.298119 0.814217 -0.498173 0.304817 0.765281 -0.56695 -0.003907 0.900036 -0.435797 0.487311 -0.060171 -0.871153 0.709396 0.003111 -0.704803 0.286964 -0.005766 -0.957924 -0.042531 -0.096526 -0.994421 -0.139013 -0.027876 -0.989898 -0.42821 0.009755 -0.903627 -0.764064 0.336106 0.550672 -0.702086 0.366831 0.610336 -0.75384 -0.030007 0.656373 -0.578248 0.34139 0.741001 -0.358093 0.371296 0.856685 -0.445138 0.334409 0.830676 -0.481441 -0.022403 0.876192 -0.207141 0.36108 0.909238 -0.102561 0.329696 0.9385 -0.434986 -0.014655 0.900318 -0.194427 0.849055 0.491227 -0.179474 -0.022367 0.983508 -0.198727 0.846002 0.49476 -0.099026 0.734982 0.670816 0.109896 0.879955 0.462172 0.215401 -0.001456 0.976525 0.102308 0.824047 0.557207 0.478306 -0.036557 0.877432 0.651284 -0.001619 0.758832 0.513888 0.561439 0.648618 0.733571 0.000361 0.679612 0.73631 -0.000761 0.676644 0.412565 0.858896 0.303461 0.898159 -0.016671 0.439354 0.912072 -0.030761 0.408874 0.461804 0.854306 0.238534 0.668277 0.702346 0.245184 0.878267 -0.009257 0.478081 0.673072 0.702157 0.232271 0.990555 -0.005128 0.13702 0.951748 -0.031127 0.305299 0.990449 -0.003483 -0.137834 0.533272 0.837106 -0.121962 0.414769 0.89183 -0.180573 0.348519 0.937256 0.009271 0.900707 -0.046274 -0.431955 0.995127 -0.039317 0.090425 0.932685 -0.015005 -0.36038 0.998513 -0.017821 0.051524 -0.862928 -0.000905 0.505326 -0.561404 0.778571 0.28045 -0.296895 0.899667 0.320082 -0.67302 -0.00949 0.739563 -0.630269 0.608766 0.481835 -0.490971 0.865049 0.10314 -0.972987 -0.076019 0.217985 -0.997736 -0.007078 0.066873 -0.87763 -0.011263 0.479207 -0.776027 -0.02389 0.630247 -0.641125 0.015305 0.767283 -0.424723 -0.007343 0.905293 -0.235709 0.036033 0.971155 0.213332 -0.09155 0.972681 0.32356 -0.014731 0.946093 -0.690587 0.049504 -0.721553 -0.91182 0.069026 -0.404746 -0.588015 0.172122 -0.790324 -0.358754 0.136372 -0.923417 -0.124878 0.160177 -0.979157 -0.637287 0.199766 -0.744284 -0.869468 0.18657 -0.457403 -0.928888 0.11746 -0.351241 -0.990303 0.134305 0.035526 -0.982935 0.178136 0.045904 -0.986786 0.097722 0.129241 -0.930389 0.095229 0.353989 -0.854113 0.134261 0.502459 -0.838288 0.235815 0.491594 -0.692807 0.10547 0.713368 -0.479237 0.237721 0.844879 -0.5228 0.171503 0.835025 -0.225773 0.043725 0.973198 -0.067759 0.089743 0.993657 0.02977 0.063051 -0.997566 -0.041557 0.141988 -0.988996 0.26072 0.027846 -0.965013 0.351816 0.185522 -0.9175 0.453542 0.119801 -0.883146 0.387461 0.221845 -0.894795 0.597818 0.235408 -0.766288 0.771636 0.088675 -0.629853 0.789756 0.163735 -0.591165 0.714475 0.135405 -0.686433 0.939112 0.241395 -0.244533 0.923657 0.063859 -0.377862 0.98872 0.127292 -0.078931 0.98254 0.171627 -0.071831 0.993871 0.055494 0.095603 0.943828 0.075487 0.321699 0.946886 0.195091 0.255628 0.931806 0.091714 0.351179 0.84654 0.271763 0.457729 0.685791 0.129105 0.716256 0.753789 0.226354 0.616901 0.739469 0.101441 0.665503 0.374733 0.103798 0.921304 0.292075 0.059156 0.954564 -0.02064 0.189343 0.981694 0.241043 0.216694 0.946014 -0.53266 0.268406 -0.80264 -0.143077 0.251161 -0.957312 -0.062188 0.273903 -0.959745 0.294487 0.267343 -0.917499 -0.59968 0.33009 -0.728988 -0.055451 0.359585 -0.931463 0.413825 0.348424 -0.841041 0.666322 0.287233 -0.688122 0.130512 0.390335 -0.911375 0.417527 0.343265 -0.841332 0.886802 0.285246 -0.363616 0.891558 0.34359 -0.295077 0.943905 0.220944 -0.245411 0.930202 0.316392 0.186067 0.915207 0.371335 0.156545 0.834062 0.191398 0.517404 0.575917 0.334242 0.746058 0.919534 0.366045 0.143065 0.625681 0.683391 0.376165 0.090265 0.95089 -0.296073 0.069913 0.358602 0.930869 -0.853448 0.349178 -0.386913 -0.901259 0.423636 -0.090916 -0.939992 0.270461 -0.208006 -0.360321 0.323878 0.874798 -0.883632 0.345763 0.315664 -0.913703 0.297888 0.276424 -0.423583 0.250002 0.870676 -0.906003 0.264925 0.330112 -0.940117 0.269708 -0.208415 0.249304 0.221 0.942871 0.226331 0.323798 0.918656</float_array>
          <technique_common>
            <accessor source="#Ammunition-mesh-normals-array" count="500" stride="3">
              <param name="X" type="float"/>
              <param name="Y" type="float"/>
              <param name="Z" type="float"/>
            </accessor>
          </technique_common>
        </source>
        <source id="Ammunition-mesh-map-0">
          <float_array id="Ammunition-mesh-map-0-array" count="3000">0.779541 0.555908 0.812744 0.590088 0.755127 0.590088 0.755127 0.590088 0.812744 0.590088 0.720215 0.612305 0.720215 0.612305 0.812744 0.590088 0.753174 0.615723 0.812744 0.590088 0.779541 0.555908 0.821533 0.556885 0.753174 0.615723 0.812744 0.590088 0.838379 0.609863 0.838379 0.609863 0.812744 0.590088 0.858154 0.591309 0.858154 0.591309 0.812744 0.590088 0.821533 0.556885 0.753174 0.615723 0.838379 0.609863 0.831055 0.636963 0.858154 0.591309 0.821533 0.556885 0.851807 0.547119 0.821533 0.556885 0.779541 0.555908 0.794434 0.539551 0.821533 0.556885 0.794434 0.539551 0.851807 0.547119 0.851807 0.547119 0.794434 0.539551 0.850342 0.52417 0.753174 0.615723 0.831055 0.636963 0.797119 0.63916 0.753174 0.615723 0.797119 0.63916 0.757812 0.654541 0.797119 0.63916 0.831055 0.636963 0.856201 0.682129 0.757812 0.654541 0.797119 0.63916 0.789795 0.693604 0.789795 0.693604 0.797119 0.63916 0.856201 0.682129 0.850342 0.52417 0.794434 0.539551 0.822021 0.513672 0.850342 0.52417 0.822021 0.513672 0.854248 0.502197 0.822021 0.513672 0.794434 0.539551 0.768311 0.519531 0.854248 0.502197 0.822021 0.513672 0.820557 0.479736 0.820557 0.479736 0.822021 0.513672 0.80249 0.482422 0.80249 0.482422 0.822021 0.513672 0.768311 0.519531 0.820557 0.479736 0.80249 0.482422 0.799561 0.357422 0.80249 0.482422 0.768311 0.519531 0.783691 0.483398 0.783691 0.483398 0.768311 0.519531 0.759277 0.490479 0.322266 0.057373 0.315186 0.014404 0.352295 0.032715 0.315186 0.014404 0.322266 0.057373 0.274902 0.020508 0.274902 0.020508 0.322266 0.057373 0.259766 0.038086 0.259766 0.038086 0.322266 0.057373 0.323486 0.091797 0.259766 0.038086 0.323486 0.091797 0.260254 0.079102 0.260254 0.079102 0.323486 0.091797 0.307617 0.104736 0.323486 0.091797 0.322266 0.057373 0.348633 0.10376 0.348633 0.10376 0.322266 0.057373 0.376465 0.078613 0.376465 0.078613 0.322266 0.057373 0.352295 0.032715 0.376465 0.078613 0.352295 0.032715 0.393311 0.041748 0.393311 0.041748 0.352295 0.032715 0.377441 0.012451 0.393311 0.041748 0.377441 0.012451 0.407227 0.025879 0.904785 0.581543 0.934814 0.612549 0.899414 0.603271 0.934814 0.612549 0.904785 0.581543 0.9646 0.569824 0.934814 0.612549 0.9646 0.569824 0.967529 0.609863 0.967529 0.609863 0.9646 0.569824 0.999756 0.534912 0.934814 0.612549 0.967529 0.609863 0.996826 0.73877 0.996826 0.73877 0.967529 0.609863 0.995361 0.614014 0.518066 0.312256 0.528076 0.355957 0.497559 0.345459 0.528076 0.355957 0.518066 0.312256 0.55835 0.301758 0.528076 0.355957 0.55835 0.301758 0.549316 0.370361 0.549316 0.370361 0.55835 0.301758 0.573486 0.360107 0.573486 0.360107 0.55835 0.301758 0.600342 0.316406 0.600342 0.316406 0.55835 0.301758 0.580322 0.269287 0.518066 0.312256 0.497559 0.345459 0.504883 0.288574 0.504883 0.288574 0.497559 0.345459 0.486572 0.325928 0.55835 0.301758 0.518066 0.312256 0.535645 0.281982 0.55835 0.301758 0.535645 0.281982 0.580322 0.269287 0.535645 0.281982 0.518066 0.312256 0.504883 0.288574 0.580322 0.269287 0.535645 0.281982 0.561035 0.245361 0.580322 0.269287 0.561035 0.245361 0.613525 0.22583 0.561035 0.245361 0.535645 0.281982 0.531494 0.256104 0.531494 0.256104 0.535645 0.281982 0.504883 0.288574 0.504883 0.288574 0.486572 0.325928 0.473877 0.310303 0.531494 0.256104 0.504883 0.288574 0.518799 0.247314 0.518799 0.247314 0.504883 0.288574 0.48877 0.281982 0.48877 0.281982 0.504883 0.288574 0.473877 0.310303 0.518799 0.247314 0.48877 0.281982 0.484131 0.253662 0.484131 0.253662 0.48877 0.281982 0.471436 0.266357 0.471436 0.266357 0.48877 0.281982 0.460449 0.274902 0.48877 0.281982 0.473877 0.310303 0.440918 0.30127 0.48877 0.281982 0.440918 0.30127 0.460449 0.274902 0.460449 0.274902 0.440918 0.30127 0.355957 0.222656 0.440918 0.30127 0.473877 0.310303 0.443848 0.31958 0.440918 0.30127 0.443848 0.31958 0.377686 0.355957 0.912598 0.958252 0.727051 0.942871 0.729492 0.925049 0.727051 0.942871 0.912598 0.958252 0.928711 0.977539 0.912598 0.958252 0.729492 0.925049 0.913574 0.944824 0.727051 0.942871 0.928711 0.977539 0.724121 0.955566 0.724121 0.955566 0.928711 0.977539 0.877197 0.985107 0.724121 0.955566 0.877197 0.985107 0.804688 0.985352 0.913574 0.944824 0.729492 0.925049 0.731689 0.906494 0.913574 0.944824 0.731689 0.906494 0.882568 0.921387 0.882568 0.921387 0.731689 0.906494 0.817627 0.895508 0.101074 0.253662 0.053955 0.241699 0.10376 0.239746 0.048096 0.185547 0.053955 0.241699 0.039551 0.202637 0.039551 0.202637 0.053955 0.241699 0.031006 0.220459 0.031006 0.220459 0.053955 0.241699 0.011719 0.250732 0.031006 0.220459 0.011719 0.250732 0.013672 0.211914 0.011719 0.250732 0.053955 0.241699 0.025879 0.272461 0.025879 0.272461 0.053955 0.241699 0.101074 0.253662 0.025879 0.272461 0.101074 0.253662 0.091309 0.282959 0.025879 0.272461 0.091309 0.282959 0.03125 0.293701 0.025879 0.272461 0.03125 0.293701 0 0.302734 0.03125 0.293701 0.091309 0.282959 0.101807 0.312012 0.03125 0.293701 0.101807 0.312012 0.032227 0.325439 0.03125 0.293701 0.032227 0.325439 0.000244 0.328369 0.560303 0.002197 0.598633 0.01123 0.562256 0.061523 0.562256 0.061523 0.598633 0.01123 0.599365 0.066162 0.599365 0.066162 0.598633 0.01123 0.614746 0.059814 0.614746 0.059814 0.598633 0.01123 0.620117 0.002197 0.614746 0.059814 0.620117 0.002197 0.650391 0.034424 0.068848 0.031982 0.02002 0.075439 0.008301 0.002197 0.068848 0.031982 0.008301 0.002197 0.090332 0.022461 0.718506 0.523682 0.704102 0.495361 0.756592 0.517334 0.704102 0.495361 0.718506 0.523682 0.641846 0.524902 0.704102 0.495361 0.641846 0.524902 0.625244 0.493896 0.641846 0.524902 0.718506 0.523682 0.673828 0.56665 0.641846 0.524902 0.673828 0.56665 0.626221 0.569824 0.673828 0.56665 0.718506 0.523682 0.741699 0.574951 0.626221 0.569824 0.673828 0.56665 0.672852 0.606445 0.672852 0.606445 0.673828 0.56665 0.741699 0.574951 0.672852 0.606445 0.741699 0.574951 0.702637 0.622314 0.672852 0.606445 0.702637 0.622314 0.650635 0.693848 0.704102 0.495361 0.625244 0.493896 0.67041 0.479004 0.67041 0.479004 0.625244 0.493896 0.644287 0.462646 0.704102 0.495361 0.67041 0.479004 0.707764 0.463867 0.707764 0.463867 0.67041 0.479004 0.644287 0.462646 0.704102 0.495361 0.707764 0.463867 0.740234 0.456787 0.707764 0.463867 0.644287 0.462646 0.644775 0.42627 0.707764 0.463867 0.644775 0.42627 0.692871 0.417969 0.707764 0.463867 0.692871 0.417969 0.721191 0.426514 0.692871 0.417969 0.644775 0.42627 0.64624 0.327148 0.045654 0.99585 0.016357 0.903076 0.048828 0.900635 0.154297 0.517334 0.179443 0.529785 0.137451 0.556396 0.179443 0.529785 0.154297 0.517334 0.258301 0.49292 0.258301 0.49292 0.154297 0.517334 0.221191 0.476807 0.221191 0.476807 0.154297 0.517334 0.115967 0.490723 0.221191 0.476807 0.115967 0.490723 0.213135 0.4375 0.221191 0.476807 0.213135 0.4375 0.246582 0.480713 0.213135 0.4375 0.115967 0.490723 0.105469 0.448486 0.213135 0.4375 0.105469 0.448486 0.149902 0.414062 0.213135 0.4375 0.149902 0.414062 0.249512 0.37915 0.249512 0.37915 0.149902 0.414062 0.237305 0.35498 0.237305 0.35498 0.149902 0.414062 0.144043 0.374512 0.144043 0.374512 0.149902 0.414062 0.104004 0.379883 0.237305 0.35498 0.144043 0.374512 0.217529 0.335449 0.217529 0.335449 0.144043 0.374512 0.22168 0.314697 0.22168 0.314697 0.144043 0.374512 0.154053 0.344971 0.154053 0.344971 0.144043 0.374512 0.098145 0.359131 0.955811 0.192383 0.978271 0.209717 0.970459 0.289062 0.978271 0.209717 0.955811 0.192383 0.971191 0.111328 0.955811 0.192383 0.970459 0.289062 0.932129 0.204834 0.241455 0.164062 0.248535 0.146973 0.34375 0.214844 0.34375 0.214844 0.248535 0.146973 0.418213 0.205566 0.241455 0.164062 0.34375 0.214844 0.31958 0.221191 0.31958 0.221191 0.34375 0.214844 0.347168 0.273193 0.31958 0.221191 0.347168 0.273193 0.290527 0.232422 0.055908 0.053223 0.055908 0.180664 0.024414 0.176758 0.928711 0.056885 0.890381 0.020264 0.94165 0 0.928711 0.056885 0.94165 0 0.988525 0.013428 0.183105 0.54248 0.196045 0.567627 0.137451 0.563232 0.137451 0.563232 0.196045 0.567627 0.157471 0.584717 0.157471 0.584717 0.196045 0.567627 0.196045 0.584473 0.157471 0.584717 0.196045 0.584473 0.168457 0.611328 0.157471 0.584717 0.168457 0.611328 0.148438 0.599365 0.168457 0.611328 0.196045 0.584473 0.199951 0.607422 0.199951 0.607422 0.196045 0.584473 0.224854 0.583496 0.168457 0.611328 0.199951 0.607422 0.198486 0.74707 0.169189 0.117432 0.138672 0.056152 0.188965 0.098877 0.138672 0.056152 0.169189 0.117432 0.148926 0.143799 0.148926 0.143799 0.169189 0.117432 0.143066 0.184082 0.09375 0.382324 0.049805 0.340332 0.097656 0.367432 0.049805 0.340332 0.09375 0.382324 0.060059 0.398682 0.060059 0.398682 0.09375 0.382324 0.121826 0.426514 0.060059 0.398682 0.121826 0.426514 0.082275 0.441895 0.060059 0.398682 0.082275 0.441895 0.048096 0.421631 0.048096 0.421631 0.082275 0.441895 0.066406 0.486816 0.00708 0.743408 0.038574 0.743408 0.020264 0.860352 0.026367 0.70752 0.026367 0.588135 0.042725 0.685303 0.074951 0.830811 0.074951 0.986328 0.053223 0.832764 0.649902 0.003418 0.72168 0.003418 0.660645 0.051514 0.315186 0.113281 0.232666 0.125 0.20166 0.09082 0.20166 0.09082 0.232666 0.125 0.157227 0.167969 0.343262 0.467041 0.40625 0.478271 0.334717 0.499756 0.334717 0.499756 0.40625 0.478271 0.399658 0.504639 0.399658 0.504639 0.40625 0.478271 0.430176 0.495605 0.334717 0.499756 0.399658 0.504639 0.37085 0.543945 0.334717 0.499756 0.37085 0.543945 0.313965 0.520264 0.37085 0.543945 0.399658 0.504639 0.412842 0.553711 0.37085 0.543945 0.412842 0.553711 0.373047 0.64917 0.40625 0.478271 0.343262 0.467041 0.371582 0.443604 0.371582 0.443604 0.343262 0.467041 0.319824 0.439453 0.40625 0.478271 0.371582 0.443604 0.437988 0.45166 0.371582 0.443604 0.319824 0.439453 0.340088 0.394531 0.437988 0.45166 0.371582 0.443604 0.395752 0.401123 0.395752 0.401123 0.371582 0.443604 0.340088 0.394531 0.437988 0.45166 0.395752 0.401123 0.45874 0.405273 0.45874 0.405273 0.395752 0.401123 0.397461 0.373535 0.397461 0.373535 0.395752 0.401123 0.340088 0.394531 0.397461 0.373535 0.340088 0.394531 0.32251 0.339355 0.882568 0.52417 0.883057 0.488525 0.920166 0.520508 0.882568 0.52417 0.920166 0.520508 0.898438 0.556641 0.882568 0.52417 0.898438 0.556641 0.862305 0.535156 0.862305 0.535156 0.898438 0.556641 0.86084 0.567871 0.920166 0.520508 0.883057 0.488525 0.932373 0.476807 0.932373 0.476807 0.883057 0.488525 0.913574 0.460205 0.932373 0.476807 0.913574 0.460205 0.962402 0.3396 0.920166 0.520508 0.932373 0.476807 0.957031 0.518066 0.920166 0.520508 0.957031 0.518066 0.963135 0.560547 0.254883 0.974609 0.331299 0.949219 0.338623 0.984619 0.962891 0.391357 0.976807 0.438477 0.962646 0.52124 0.976807 0.438477 0.962891 0.391357 0.980469 0.316406 0.119629 0.54248 0.151123 0.625488 0.141602 0.738525 0.119629 0.54248 0.141602 0.738525 0.117432 0.65625 0.505127 0.199951 0.599609 0.216797 0.487061 0.214111 0.505127 0.199951 0.487061 0.214111 0.375732 0.217285 0.990234 0.534424 0.990234 0.435303 0.999756 0.489502 0.255127 0.083008 0.238525 0.053467 0.254395 0.003174 0.062744 0.523682 0.062744 0.685547 0.047119 0.683105 0.014648 0.46875 0.02417 0.580322 0.008301 0.602051 0.717529 0.949219 0.717529 0.967773 0.552246 0.952637 0.01709 0.423584 0.000244 0.52124 0.000732 0.379883 0.040527 0.47876 0.040527 0.620117 0.021484 0.486572 0.006348 0.357666 0.024414 0.331299 0.035645 0.474121 0.035645 0.474121 0.024414 0.331299 0.03833 0.343994 0.112549 0.289795 0.099854 0.289307 0.134277 0.208496 0.134277 0.208496 0.099854 0.289307 0.121338 0.201416 0.134277 0.208496 0.121338 0.201416 0.104248 0.145752 0.134277 0.208496 0.104248 0.145752 0.147705 0.202148 0.134277 0.208496 0.147705 0.202148 0.112549 0.289795 0.112549 0.289795 0.147705 0.202148 0.134277 0.331787 0.134277 0.331787 0.147705 0.202148 0.180176 0.203613 0.180176 0.203613 0.147705 0.202148 0.193359 0.168457 0.134277 0.331787 0.180176 0.203613 0.156494 0.325684 0.156494 0.325684 0.180176 0.203613 0.191162 0.22583 0.191162 0.22583 0.180176 0.203613 0.226074 0.175781 0.156494 0.325684 0.191162 0.22583 0.178711 0.311279 0.191162 0.22583 0.226074 0.175781 0.216064 0.221924 0.191162 0.22583 0.216064 0.221924 0.178711 0.311279 0.178711 0.311279 0.216064 0.221924 0.1875 0.323242 0.1875 0.323242 0.216064 0.221924 0.22998 0.281006 0.546875 0.932617 0.682861 0.944824 0.471924 0.943848 0.255127 0.094482 0.187744 0.025879 0.217773 0.041748 0.187744 0.025879 0.255127 0.094482 0.205322 0.061035 0.080566 0.855225 0.093506 0.836182 0.088135 0.939453 0.958984 0.129639 0.956299 0.073975 0.973145 0.033447 0.958984 0.129639 0.973145 0.033447 0.978516 0.069824 1 0.444336 0.990967 0.418701 0.996826 0.35376 0.999756 0.256348 0.999756 0.345947 0.986084 0.274414 0.459717 0.067871 0.4375 0.121582 0.452881 0.013428 0.452881 0.013428 0.4375 0.121582 0.433105 0.067139 0.731445 0.111328 0.698486 0.091064 0.884033 0.09082 0.731445 0.111328 0.884033 0.09082 0.883057 0.115967 0.731445 0.111328 0.883057 0.115967 0.734619 0.128418 0.734619 0.128418 0.883057 0.115967 0.875488 0.133057 0.734619 0.128418 0.875488 0.133057 0.745361 0.161377 0.745361 0.161377 0.875488 0.133057 0.820801 0.175781 0.820801 0.175781 0.875488 0.133057 0.875732 0.147705 0.820801 0.175781 0.875732 0.147705 0.805176 0.232422 0.805176 0.232422 0.875732 0.147705 0.89917 0.156494 0.232666 0.090088 0.138916 0.042969 0.182617 0.052734 0.138916 0.042969 0.232666 0.090088 0.177002 0.079346 0.472412 0.954346 0.346436 0.985352 0.382812 0.953125 0.472412 0.954346 0.382812 0.953125 0.42749 0.935791 0.346436 0.985352 0.472412 0.954346 0.547607 0.97583 0.547607 0.97583 0.472412 0.954346 0.547119 0.962646 0.07251 0.68042 0.067627 0.56958 0.085693 0.579102 0.085693 0.579102 0.067627 0.56958 0.086426 0.518555 0.07251 0.68042 0.085693 0.579102 0.093262 0.666748 0.114746 0.541016 0.101074 0.60498 0.104492 0.468506 0.101074 0.60498 0.114746 0.541016 0.108643 0.670898 0.153564 0.829834 0.22876 0.905762 0.227295 0.957031 0.22876 0.905762 0.153564 0.829834 0.167969 0.818848 0.22876 0.905762 0.167969 0.818848 0.229736 0.855957 0.229736 0.855957 0.167969 0.818848 0.184814 0.803711 0.153564 0.829834 0.227295 0.957031 0.160889 0.873047 0.153564 0.829834 0.160889 0.873047 0.133057 0.84082 0.160889 0.873047 0.227295 0.957031 0.165771 0.93335 0.160889 0.873047 0.165771 0.93335 0.133057 0.84082 0.165771 0.93335 0.227295 0.957031 0.235107 0.998047 0.165771 0.93335 0.235107 0.998047 0.158691 0.959229 0.165771 0.93335 0.158691 0.959229 0.133057 0.84082 0.133057 0.84082 0.158691 0.959229 0.115723 0.846191 0.115723 0.846191 0.158691 0.959229 0.138672 0.982178 0.115723 0.846191 0.138672 0.982178 0.097656 0.92627 0.329102 0.167236 0.42334 0.157471 0.505859 0.193359 0.329102 0.167236 0.505859 0.193359 0.429443 0.202393 0.691406 1 0.529785 0.996582 0.545654 0.983643 0.691406 1 0.545654 0.983643 0.6604 0.976318 0.6604 0.976318 0.545654 0.983643 0.572998 0.970947 0.6604 0.976318 0.572998 0.970947 0.628418 0.965088 0.593018 0.121582 0.692383 0.098145 0.533691 0.158691 0.688965 0.131104 0.521973 0.17041 0.685059 0.109131 0.495361 0.091309 0.495361 0.001953 0.514893 0.089111 0.795898 0.085938 0.695068 0.085938 0.790771 0.055176 0.051514 0.895996 0.020752 0.895996 0.040039 0.783691 0.008301 0.998047 0.008301 0.909668 0.037354 0.990723 0.884521 0.030029 0.804688 0.077637 0.796631 0.050781 0.884521 0.030029 0.796631 0.050781 0.835449 0.023682 0.835449 0.023682 0.796631 0.050781 0.785645 0.016602 0.897949 0.036621 0.904297 0.06665 0.807861 0.083984 0.807861 0.083984 0.904297 0.06665 0.90918 0.08667 0.015625 0.738525 0.004395 0.608154 0.019775 0.605957 0.998535 0.981934 0.970947 0.868652 0.986328 0.779785 0.970947 0.868652 0.998535 0.981934 0.978271 0.981934 0.970947 0.868652 0.978271 0.981934 0.955566 0.983154 0.325684 0.944336 0.234131 0.919189 0.434814 0.928467 0.234131 0.919189 0.325684 0.944336 0.234375 0.934326 0.234375 0.934326 0.325684 0.944336 0.236328 0.969727 0.102051 0.132568 0.095703 0.061523 0.119141 0.067871 0.102051 0.132568 0.119141 0.067871 0.13501 0.072998 0.095703 0.061523 0.102051 0.132568 0.073486 0.062256 0.073486 0.062256 0.102051 0.132568 0.063232 0.12915 0.063232 0.12915 0.102051 0.132568 0.076416 0.222168 0.921875 0.063721 0.949463 0.066406 0.928711 0.128418 0.928711 0.128418 0.949463 0.066406 0.953125 0.131592 0.928711 0.128418 0.953125 0.131592 0.920654 0.218018 0.424805 0.752441 0.430664 0.773682 0.344482 0.769043 0.424805 0.752441 0.344482 0.769043 0.341309 0.72583 0.341309 0.72583 0.344482 0.769043 0.270996 0.836426 0.424805 0.752441 0.341309 0.72583 0.417969 0.720459 0.417969 0.720459 0.341309 0.72583 0.332275 0.687744 0.332275 0.687744 0.341309 0.72583 0.290283 0.70166 0.417969 0.720459 0.332275 0.687744 0.420898 0.686523 0.420898 0.686523 0.332275 0.687744 0.345703 0.656494 0.345703 0.656494 0.332275 0.687744 0.282959 0.579102 0.420898 0.686523 0.345703 0.656494 0.42749 0.653809 0.524658 0.077148 0.587646 0.072754 0.530029 0.109619 0.587646 0.072754 0.524658 0.077148 0.523438 0.063232 0.530029 0.109619 0.587646 0.072754 0.601318 0.113037 0.601318 0.113037 0.587646 0.072754 0.68335 0.061523 0.409912 0.577148 0.499268 0.659424 0.470215 0.676514 0.470215 0.676514 0.499268 0.659424 0.421143 0.820557 0.499268 0.659424 0.409912 0.577148 0.423584 0.564209 0.499268 0.659424 0.423584 0.564209 0.504395 0.64502 0.504395 0.64502 0.423584 0.564209 0.435059 0.550049 0.499268 0.659424 0.504395 0.64502 0.658447 0.638672 0.25 0.825439 0.318604 0.916504 0.236084 0.853271 0.25 0.825439 0.236084 0.853271 0.230225 0.842529 0.25 0.825439 0.230225 0.842529 0.233398 0.814209 0.25 0.825439 0.233398 0.814209 0.250244 0.715576 0.477539 0.878174 0.465332 0.945068 0.451172 0.883057 0.347656 0.919922 0.425781 0.873291 0.451172 0.883057 0.451172 0.883057 0.425781 0.873291 0.452148 0.869629 0.451172 0.883057 0.452148 0.869629 0.477539 0.878174 0.583252 0.914795 0.477539 0.878174 0.510254 0.855469 0.510254 0.855469 0.477539 0.878174 0.486084 0.859619 0.486084 0.859619 0.477539 0.878174 0.452148 0.869629 0.510254 0.855469 0.486084 0.859619 0.51001 0.840088 0.486084 0.859619 0.452148 0.869629 0.473145 0.794922 0.486084 0.859619 0.473145 0.794922 0.51001 0.840088 0.473145 0.794922 0.452148 0.869629 0.449463 0.777344 0.51001 0.840088 0.473145 0.794922 0.482178 0.732666 0.548828 0.399414 0.465576 0.409668 0.461914 0.380127 0.465576 0.409668 0.548828 0.399414 0.5625 0.427979 0.5625 0.427979 0.548828 0.399414 0.612305 0.327148 0.465576 0.409668 0.5625 0.427979 0.473389 0.447754 0.473389 0.447754 0.5625 0.427979 0.564209 0.459473 0.473389 0.447754 0.564209 0.459473 0.467773 0.491455 0.467773 0.491455 0.564209 0.459473 0.567139 0.496582 0.567139 0.496582 0.564209 0.459473 0.635986 0.462646 0.467773 0.491455 0.567139 0.496582 0.462158 0.538574 0.467773 0.491455 0.462158 0.538574 0.462646 0.511475 0.462158 0.538574 0.567139 0.496582 0.575928 0.53125 0.462158 0.538574 0.575928 0.53125 0.569336 0.556641 0.462158 0.538574 0.569336 0.556641 0.474121 0.567627 0.569336 0.556641 0.575928 0.53125 0.62207 0.633301 0.569336 0.556641 0.62207 0.633301 0.559326 0.578369 0.305908 0.431396 0.287598 0.382812 0.32373 0.364014 0.32373 0.364014 0.287598 0.382812 0.299072 0.347168 0.32373 0.364014 0.299072 0.347168 0.312256 0.342041 0.299072 0.347168 0.287598 0.382812 0.270264 0.335449 0.270264 0.335449 0.287598 0.382812 0.248291 0.422119 0.299072 0.347168 0.270264 0.335449 0.280762 0.328125 0.299072 0.347168 0.280762 0.328125 0.312256 0.342041 0.280762 0.328125 0.270264 0.335449 0.249756 0.30249 0.312256 0.342041 0.280762 0.328125 0.330322 0.271484 0.312256 0.342041 0.330322 0.271484 0.354248 0.284912 0.330322 0.271484 0.280762 0.328125 0.282715 0.276611 0.282715 0.276611 0.280762 0.328125 0.249756 0.30249 0.282715 0.276611 0.249756 0.30249 0.261475 0.232666 0.261475 0.232666 0.249756 0.30249 0.245605 0.209473 0.626709 0.152588 0.695557 0.146973 0.698242 0.181396 0.626709 0.152588 0.698242 0.181396 0.626709 0.199951 0.626709 0.152588 0.626709 0.199951 0.527832 0.175293 0.626709 0.199951 0.698242 0.181396 0.695801 0.208496 0.626709 0.199951 0.695801 0.208496 0.696045 0.230713 0.254883 0.711182 0.247803 0.626709 0.271484 0.704834 0.254883 0.711182 0.271484 0.704834 0.256592 0.822266 0.271484 0.704834 0.247803 0.626709 0.302002 0.686035 0.302002 0.686035 0.247803 0.626709 0.288086 0.608887 0.230469 0.62915 0.28418 0.54248 0.295166 0.555664 0.295166 0.555664 0.28418 0.54248 0.310303 0.55542 0.28418 0.54248 0.230469 0.62915 0.272949 0.514404 0.310303 0.55542 0.28418 0.54248 0.285889 0.530029 0.285889 0.530029 0.28418 0.54248 0.272949 0.514404 0.285889 0.530029 0.272949 0.514404 0.287109 0.496094 0.287109 0.496094 0.272949 0.514404 0.235352 0.416504 0.285889 0.530029 0.287109 0.496094 0.309814 0.492432 0.04126 0.086182 0.007568 0.192139 0.010986 0.079346 0.720703 0.292236 0.731689 0.404297 0.693359 0.276123 0.720703 0.292236 0.693359 0.276123 0.71582 0.275635 0.79126 0.1875 0.800293 0.212402 0.71582 0.275635 0.79126 0.1875 0.71582 0.275635 0.699951 0.267578 0.699951 0.267578 0.71582 0.275635 0.693359 0.276123 0.79126 0.1875 0.699951 0.267578 0.749268 0.203125 0.749268 0.203125 0.699951 0.267578 0.684082 0.250488 0.684082 0.250488 0.699951 0.267578 0.693359 0.276123 0.684082 0.250488 0.693359 0.276123 0.670166 0.254395 0.670166 0.254395 0.693359 0.276123 0.621094 0.293213 0.684082 0.250488 0.670166 0.254395 0.670654 0.235352 0.670654 0.235352 0.670166 0.254395 0.573486 0.192627 0.916992 0.09375 0.916992 0.202637 0.889648 0.097168 0.444824 0.126221 0.447754 0.146484 0.354736 0.144531 0.447754 0.146484 0.444824 0.126221 0.455811 0.133789 0.455811 0.133789 0.444824 0.126221 0.456543 0.09375 0.447754 0.146484 0.455811 0.133789 0.461182 0.166992 0.455811 0.133789 0.456543 0.09375 0.520264 0.097168 0.461182 0.166992 0.455811 0.133789 0.515625 0.16626 0.455811 0.133789 0.520264 0.097168 0.52832 0.131348 0.455811 0.133789 0.52832 0.131348 0.515625 0.16626 0.894043 0.911865 0.78418 0.878906 0.804932 0.869141 0.804932 0.869141 0.78418 0.878906 0.793945 0.866211 0.793945 0.866211 0.78418 0.878906 0.772461 0.862305 0.772461 0.862305 0.78418 0.878906 0.6875 0.915283 0.793945 0.866211 0.772461 0.862305 0.783447 0.85498 0.05542 0.793457 0.05957 0.821045 0.046875 0.803223 0.05957 0.821045 0.05542 0.793457 0.113037 0.80835 0.05957 0.821045 0.113037 0.80835 0.124023 0.837402 0.113037 0.80835 0.05542 0.793457 0.129639 0.784424 0.129639 0.784424 0.05542 0.793457 0.054932 0.770508 0.129639 0.784424 0.054932 0.770508 0.144287 0.750977 0.144287 0.750977 0.054932 0.770508 0.047607 0.737061 0.144287 0.750977 0.047607 0.737061 0.10083 0.708496 0.10083 0.708496 0.047607 0.737061 0.048096 0.69873 0.10083 0.708496 0.048096 0.69873 0.102539 0.674805 0.985596 0.730469 0.916016 0.725342 0.934814 0.702148 0.916016 0.725342 0.985596 0.730469 0.95459 0.764893 0.934814 0.702148 0.916016 0.725342 0.871582 0.679688 0.934814 0.702148 0.871582 0.679688 0.943359 0.675537 0.943359 0.675537 0.871582 0.679688 0.86792 0.649658 0.871582 0.679688 0.916016 0.725342 0.82251 0.711914 0.82251 0.711914 0.916016 0.725342 0.867432 0.769043 0.867432 0.769043 0.916016 0.725342 0.95459 0.764893 0.867432 0.769043 0.95459 0.764893 0.864258 0.799805 0.867432 0.769043 0.864258 0.799805 0.839111 0.773926 0.864258 0.799805 0.95459 0.764893 0.976562 0.806641 0.864258 0.799805 0.976562 0.806641 0.943115 0.833984 0.864258 0.799805 0.943115 0.833984 0.868652 0.827393 0.864258 0.799805 0.868652 0.827393 0.802734 0.851562 0.868652 0.827393 0.943115 0.833984 0.918213 0.862061 0.802734 0.851562 0.868652 0.827393 0.874023 0.859619 0.874023 0.859619 0.868652 0.827393 0.918213 0.862061 0.874023 0.859619 0.918213 0.862061 0.935547 0.927979 0.874023 0.859619 0.935547 0.927979 0.873047 0.891357 0.737793 0.287842 0.769775 0.24585 0.813721 0.265625 0.813721 0.265625 0.769775 0.24585 0.879639 0.223877 0.737793 0.287842 0.813721 0.265625 0.777588 0.307861 0.813721 0.265625 0.879639 0.223877 0.863037 0.269043 0.813721 0.265625 0.863037 0.269043 0.777588 0.307861 0.863037 0.269043 0.879639 0.223877 0.932861 0.222656 0.863037 0.269043 0.932861 0.222656 0.91626 0.251953 0.777588 0.307861 0.863037 0.269043 0.862549 0.30957 0.862549 0.30957 0.863037 0.269043 0.91626 0.251953 0.777588 0.307861 0.862549 0.30957 0.788574 0.336182 0.862549 0.30957 0.91626 0.251953 0.938477 0.286865 0.788574 0.336182 0.862549 0.30957 0.811523 0.359375 0.811523 0.359375 0.862549 0.30957 0.878906 0.345947 0.878906 0.345947 0.862549 0.30957 0.938477 0.286865 0.811523 0.359375 0.878906 0.345947 0.813477 0.400635 0.813477 0.400635 0.878906 0.345947 0.850098 0.401367 0.878906 0.345947 0.938477 0.286865 0.905762 0.348389 0.878906 0.345947 0.905762 0.348389 0.850098 0.401367 0.905762 0.348389 0.938477 0.286865 0.985352 0.299561 0.850098 0.401367 0.905762 0.348389 0.857666 0.431885 0.905762 0.348389 0.985352 0.299561 0.935303 0.361328 0.905762 0.348389 0.935303 0.361328 0.857666 0.431885 0.857666 0.431885 0.935303 0.361328 0.925049 0.411865 0.857666 0.431885 0.925049 0.411865 0.87207 0.473389 0.786621 0.047119 0.703125 0.07666 0.684814 0.047852 0.786621 0.047119 0.684814 0.047852 0.715088 0.017822 0.610352 0.735352 0.611328 0.661865 0.647949 0.699951 0.611328 0.661865 0.610352 0.735352 0.56665 0.675537 0.56665 0.675537 0.610352 0.735352 0.583496 0.739746 0.56665 0.675537 0.583496 0.739746 0.550537 0.725098 0.610352 0.735352 0.647949 0.699951 0.618652 0.793457 0.610352 0.735352 0.618652 0.793457 0.583496 0.739746 0.550537 0.725098 0.583496 0.739746 0.571289 0.767578 0.550537 0.725098 0.571289 0.767578 0.512451 0.727783 0.583496 0.739746 0.618652 0.793457 0.605957 0.80542 0.583496 0.739746 0.605957 0.80542 0.571289 0.767578 0.512451 0.727783 0.571289 0.767578 0.545654 0.781494 0.545654 0.781494 0.571289 0.767578 0.605957 0.80542 0.512451 0.727783 0.545654 0.781494 0.501465 0.780762 0.501465 0.780762 0.545654 0.781494 0.557373 0.826172 0.557373 0.826172 0.545654 0.781494 0.605957 0.80542 0.501465 0.780762 0.557373 0.826172 0.526855 0.842041 0.526855 0.842041 0.557373 0.826172 0.616455 0.834717 0.616455 0.834717 0.557373 0.826172 0.605957 0.80542 0.616455 0.834717 0.605957 0.80542 0.630127 0.808105 0.630127 0.808105 0.605957 0.80542 0.618652 0.793457 0.616455 0.834717 0.630127 0.808105 0.709229 0.834717 0.658203 0.759277 0.618652 0.793457 0.647949 0.699951 0.618652 0.793457 0.658203 0.759277 0.630127 0.808105 0.658203 0.759277 0.647949 0.699951 0.69043 0.697021 0.709229 0.834717 0.630127 0.808105 0.70459 0.768311 0.70459 0.768311 0.630127 0.808105 0.658203 0.759277 0.70459 0.768311 0.658203 0.759277 0.69043 0.697021 0.709229 0.834717 0.70459 0.768311 0.799072 0.844727 0.70459 0.768311 0.69043 0.697021 0.724854 0.656006 0.085693 0.974854 0.095459 0.935059 0.13501 0.994629 0.328613 0.115967 0.336182 0.149414 0.246826 0.141357 0.336182 0.149414 0.328613 0.115967 0.413086 0.09082</float_array>
          <technique_common>
            <accessor source="#Ammunition-mesh-map-0-array" count="1500" stride="2">
              <param name="S" type="float"/>
              <param name="T" type="float"/>
            </accessor>
          </technique_common>
        </source>
        <vertices id="Ammunition-mesh-vertices">
          <input semantic="POSITION" source="#Ammunition-mesh-positions"/>
        </vertices>
        <polylist material="Material_-1-material" count="6">
          <input semantic="VERTEX" source="#Ammunition-mesh-vertices" offset="0"/>
          <input semantic="NORMAL" source="#Ammunition-mesh-normals" offset="1"/>
          <input semantic="TEXCOORD" source="#Ammunition-mesh-map-0" offset="2" set="0"/>
          <vcount>3 3 3 3 3 3 3 3 3 3 3 3 3 3 3 3 3 3 3 3 3 3 3 3 3 3 3 3 3 3 3 3 3 3 3 3 3 3 3 3 3 3 3 3 3 3 3 3 3 3 3 3 3 3 3 3 3 3 3 3 3 3 3 3 3 3 3 3 3 3 3 3 3 3 3 3 3 3 3 3 3 3 3 3 3 3 3 3 3 3 3 3 3 3 3 3 3 3 3 3 3 3 3 3 3 3 3 3 3 3 3 3 3 3 3 3 3 3 3 3 3 3 3 3 3 3 3 3 3 3 3 3 3 3 3 3 3 3 3 3 3 3 3 3 3 3 3 3 3 3 3 3 3 3 3 3 3 3 3 3 3 3 3 3 3 3 3 3 3 3 3 3 3 3 3 3 3 3 3 3 3 3 3 3 3 3 3 3 3 3 3 3 3 3 3 3 3 3 3 3 3 3 3 3 3 3 3 3 3 3 3 3 3 3 3 3 3 3 3 3 3 3 3 3 3 3 3 3 3 3 3 3 3 3 3 3 3 3 3 3 3 3 3 3 3 3 3 3 3 3 3 3 3 3 3 3 3 3 3 3 3 3 3 3 3 3 3 3 3 3 3 3 3 3 3 3 3 3 3 3 3 3 3 3 3 3 3 3 3 3 3 3 3 3 3 3 3 3 3 3 3 3 3 3 3 3 3 3 3 3 3 3 3 3 3 3 3 3 3 3 3 3 3 3 3 3 3 3 3 3 3 3 3 3 3 3 3 3 3 3 3 3 3 3 3 3 3 3 3 3 3 3 3 3 3 3 3 3 3 3 3 3 3 3 3 3 3 3 3 3 3 3 3 3 3 3 3 3 3 3 3 3 3 3 3 3 3 3 3 3 3 3 3 3 3 3 3 3 3 3 3 3 3 3 3 3 3 3 3 3 3 3 3 3 3 3 3 3 3 3 3 3 3 3 3 3 3 3 3 3 3 3 3 3 3 3 3 3 3 3 3 3 3 3 3 3 3 3 3 3 3 3 3 3 3 3 3 3 3 3 3 3 3 3 3 3 3 3 3 3 3 3 3 3 3 3 3 3 3 3 3 3 3 3 3 3 3 3 3 3 3 3 3 3 3 3 3 3 3 3</vcount>
          <p>0 0 0 1 0 1 2 0 2 2 1 3 1 1 4 3 1 5 3 2 6 1 2 7 4 2 8 1 3 9 0 3 10 5 3 11 4 4 12 1 4 13 6 4 14 6 5 15 1 5 16 7 5 17 7 6 18 1 6 19 5 6 20 4 7 21 6 7 22 8 7 23 7 8 24 5 8 25 9 8 26 5 9 27 0 9 28 10 9 29 5 10 30 10 10 31 9 10 32 9 11 33 10 11 34 11 11 35 4 12 36 8 12 37 12 12 38 4 13 39 12 13 40 13 13 41 12 14 42 8 14 43 14 14 44 13 15 45 12 15 46 15 15 47 15 16 48 12 16 49 14 16 50 11 17 51 10 17 52 16 17 53 11 18 54 16 18 55 17 18 56 16 19 57 10 19 58 18 19 59 17 20 60 16 20 61 19 20 62 19 21 63 16 21 64 20 21 65 20 22 66 16 22 67 18 22 68 19 23 69 20 23 70 21 23 71 20 24 72 18 24 73 22 24 74 22 25 75 18 25 76 23 25 77 24 26 78 2 26 79 3 26 80 2 27 81 24 27 82 0 27 83 0 28 84 24 28 85 10 28 86 10 29 87 24 29 88 25 29 89 10 30 90 25 30 91 18 30 92 18 31 93 25 31 94 26 31 95 25 32 96 24 32 97 27 32 98 27 33 99 24 33 100 28 33 101 28 34 102 24 34 103 3 34 104 28 35 105 3 35 106 29 35 107 29 36 108 3 36 109 4 36 110 29 37 111 4 37 112 13 37 113 18 38 114 30 38 115 23 38 116 30 39 117 18 39 118 26 39 119 30 40 120 26 40 121 31 40 122 31 41 123 26 41 124 32 41 125 30 42 126 31 42 127 33 42 128 33 43 129 31 43 130 34 43 131 35 44 132 7 44 133 9 44 134 7 45 135 35 45 136 36 45 137 7 46 138 36 46 139 6 46 140 6 47 141 36 47 142 8 47 143 8 48 144 36 48 145 14 48 146 14 49 147 36 49 148 37 49 149 35 50 150 9 50 151 38 50 152 38 51 153 9 51 154 11 51 155 36 52 156 35 52 157 39 52 158 36 53 159 39 53 160 37 53 161 39 54 162 35 54 163 38 54 164 37 55 165 39 55 166 40 55 167 37 56 168 40 56 169 41 56 170 40 57 171 39 57 172 42 57 173 42 58 174 39 58 175 38 58 176 38 59 177 11 59 178 17 59 179 42 60 180 38 60 181 43 60 182 43 61 183 38 61 184 44 61 185 44 62 186 38 62 187 17 62 188 43 63 189 44 63 190 45 63 191 45 64 192 44 64 193 46 64 194 46 65 195 44 65 196 47 65 197 44 66 198 17 66 199 48 66 200 44 67 201 48 67 202 47 67 203 47 68 204 48 68 205 49 68 206 48 69 207 17 69 208 19 69 209 48 70 210 19 70 211 21 70 212 50 71 213 22 71 214 23 71 215 22 72 216 50 72 217 51 72 218 50 73 219 23 73 220 52 73 221 22 74 222 51 74 223 20 74 224 20 75 225 51 75 226 53 75 227 20 76 228 53 76 229 21 76 230 52 77 231 23 77 232 30 77 233 52 78 234 30 78 235 54 78 236 54 79 237 30 79 238 33 79 239 25 80 240 32 80 241 26 80 242 31 81 243 32 81 244 34 81 245 34 82 246 32 82 247 55 82 248 55 83 249 32 83 250 56 83 251 55 84 252 56 84 253 57 84 254 56 85 255 32 85 256 58 85 257 58 86 258 32 86 259 25 86 260 58 87 261 25 87 262 27 87 263 58 88 264 27 88 265 59 88 266 58 89 267 59 89 268 60 89 269 59 90 270 27 90 271 28 90 272 59 91 273 28 91 274 61 91 275 59 92 276 61 92 277 62 92 278 28 93 279 29 93 280 61 93 281 61 94 282 29 94 283 63 94 284 63 95 285 29 95 286 64 95 287 64 96 288 29 96 289 13 96 290 64 97 291 13 97 292 15 97 293 64 98 294 15 98 295 65 98 296 64 99 297 65 99 298 63 99 299 62 100 300 60 100 301 59 100 302 60 101 303 62 101 304 66 101 305 60 102 306 66 102 307 67 102 308 66 103 309 62 103 310 68 103 311 66 104 312 68 104 313 69 104 314 68 105 315 62 105 316 61 105 317 69 106 318 68 106 319 70 106 320 70 107 321 68 107 322 61 107 323 70 108 324 61 108 325 63 108 326 70 109 327 63 109 328 71 109 329 60 110 330 67 110 331 72 110 332 72 111 333 67 111 334 73 111 335 60 112 336 72 112 337 56 112 338 56 113 339 72 113 340 73 113 341 60 114 342 56 114 343 58 114 344 56 115 345 73 115 346 74 115 347 56 116 348 74 116 349 75 116 350 56 117 351 75 117 352 57 117 353 75 118 354 74 118 355 76 118 356 77 119 357 57 119 358 75 119 359 76 120 360 77 120 361 75 120 362 77 121 363 76 121 364 78 121 365 78 122 366 76 122 367 79 122 368 79 123 369 76 123 370 74 123 371 79 124 372 74 124 373 80 124 374 79 125 375 80 125 376 81 125 377 80 126 378 74 126 379 82 126 380 80 127 381 82 127 382 83 127 383 80 128 384 83 128 385 84 128 386 84 129 387 83 129 388 85 129 389 85 130 390 83 130 391 86 130 392 86 131 393 83 131 394 87 131 395 85 132 396 86 132 397 88 132 398 88 133 399 86 133 400 89 133 401 89 134 402 86 134 403 90 134 404 90 135 405 86 135 406 91 135 407 92 136 408 33 136 409 34 136 410 33 137 411 92 137 412 93 137 413 92 138 414 34 138 415 94 138 416 55 139 417 57 139 418 95 139 419 95 140 420 57 140 421 96 140 422 55 141 423 95 141 424 94 141 425 94 142 426 95 142 427 97 142 428 94 143 429 97 143 430 92 143 431 94 144 432 34 144 433 55 144 434 98 145 435 15 145 436 14 145 437 98 146 438 14 146 439 37 146 440 40 147 441 42 147 442 99 147 443 99 148 444 42 148 445 100 148 446 100 149 447 42 149 448 43 149 449 100 150 450 43 150 451 101 150 452 100 151 453 101 151 454 102 151 455 101 152 456 43 152 457 103 152 458 103 153 459 43 153 460 45 153 461 101 154 462 103 154 463 104 154 464 105 155 465 37 155 466 41 155 467 37 156 468 105 156 469 98 156 470 98 157 471 105 157 472 65 157 473 106 158 474 40 158 475 99 158 476 40 159 477 106 159 478 41 159 479 41 160 480 106 160 481 107 160 482 41 161 483 107 161 484 108 161 485 41 162 486 108 162 487 105 162 488 105 163 489 108 163 490 71 163 491 103 164 492 45 164 493 109 164 494 104 165 495 103 165 496 109 165 497 101 166 498 110 166 499 102 166 500 65 167 501 15 167 502 98 167 503 63 168 504 65 168 505 71 168 506 71 169 507 65 169 508 105 169 509 67 170 510 111 170 511 73 170 512 73 171 513 111 171 514 112 171 515 112 172 516 111 172 517 113 172 518 73 173 519 112 173 520 82 173 521 73 174 522 82 174 523 74 174 524 82 175 525 112 175 526 87 175 527 82 176 528 87 176 529 83 176 530 111 177 531 67 177 532 114 177 533 114 178 534 67 178 535 66 178 536 111 179 537 114 179 538 107 179 539 114 180 540 66 180 541 69 180 542 107 181 543 114 181 544 115 181 545 115 182 546 114 182 547 69 182 548 107 183 549 115 183 550 108 183 551 108 184 552 115 184 553 71 184 554 71 185 555 115 185 556 69 185 557 71 186 558 69 186 559 70 186 560 99 187 561 100 187 562 113 187 563 99 188 564 113 188 565 111 188 566 99 189 567 111 189 568 106 189 569 106 190 570 111 190 571 107 190 572 113 191 573 100 191 574 91 191 575 91 192 576 100 192 577 102 192 578 91 193 579 102 193 580 90 193 581 113 194 582 91 194 583 87 194 584 113 195 585 87 195 586 112 195 587 86 196 588 87 196 589 91 196 590 110 197 591 90 197 592 102 197 593 90 198 594 110 198 595 116 198 596 48 199 597 21 199 598 117 199 599 48 200 600 117 200 601 49 200 602 117 201 603 21 201 604 118 201 605 117 202 606 118 202 607 119 202 608 118 203 609 21 203 610 53 203 611 93 204 612 54 204 613 33 204 614 120 205 615 46 205 616 47 205 617 47 206 618 49 206 619 120 206 620 45 207 621 46 207 622 121 207 623 109 208 624 45 208 625 121 208 626 121 209 627 46 209 628 120 209 629 104 210 630 122 210 631 101 210 632 101 211 633 122 211 634 110 211 635 121 212 636 120 212 637 123 212 638 123 213 639 120 213 640 124 213 641 123 214 642 124 214 643 125 214 644 123 215 645 125 215 646 126 215 647 123 216 648 126 216 649 121 216 650 121 217 651 126 217 652 109 217 653 109 218 654 126 218 655 127 218 656 127 219 657 126 219 658 128 219 659 109 220 660 127 220 661 104 220 662 104 221 663 127 221 664 129 221 665 129 222 666 127 222 667 130 222 668 104 223 669 129 223 670 122 223 671 129 224 672 130 224 673 131 224 674 129 225 675 131 225 676 122 225 677 122 226 678 131 226 679 110 226 680 110 227 681 131 227 682 116 227 683 77 228 684 96 228 685 57 228 686 92 229 687 132 229 688 93 229 689 132 230 690 92 230 691 97 230 692 78 231 693 96 231 694 77 231 695 133 232 696 78 232 697 79 232 698 133 233 699 79 233 700 81 233 701 116 234 702 89 234 703 90 234 704 88 235 705 134 235 706 85 235 707 84 236 708 135 236 709 80 236 710 80 237 711 135 237 712 81 237 713 52 238 714 54 238 715 136 238 716 52 239 717 136 239 718 137 239 719 52 240 720 137 240 721 50 240 722 50 241 723 137 241 724 138 241 725 50 242 726 138 242 727 51 242 728 51 243 729 138 243 730 139 243 731 139 244 732 138 244 733 140 244 734 139 245 735 140 245 736 118 245 737 118 246 738 140 246 739 119 246 740 139 247 741 53 247 742 51 247 743 53 248 744 139 248 745 118 248 746 141 249 747 54 249 748 93 249 749 141 250 750 93 250 751 132 250 752 54 251 753 141 251 754 136 251 755 136 252 756 141 252 757 142 252 758 49 253 759 143 253 760 124 253 761 124 254 762 143 254 763 144 254 764 49 255 765 124 255 766 120 255 767 117 256 768 143 256 769 49 256 770 143 257 771 117 257 772 145 257 773 146 258 774 132 258 775 97 258 776 132 259 777 146 259 778 147 259 779 132 260 780 147 260 781 141 260 782 141 261 783 147 261 784 142 261 785 146 262 786 97 262 787 148 262 788 146 263 789 148 263 790 149 263 791 148 264 792 97 264 793 150 264 794 148 265 795 150 265 796 149 265 797 150 266 798 97 266 799 95 266 800 150 267 801 95 267 802 96 267 803 150 268 804 96 268 805 149 268 806 149 269 807 96 269 808 151 269 809 151 270 810 96 270 811 78 270 812 151 271 813 78 271 814 133 271 815 152 272 816 133 272 817 81 272 818 152 273 819 81 273 820 135 273 821 153 274 822 88 274 823 89 274 824 153 275 825 89 275 826 154 275 827 154 276 828 89 276 829 116 276 830 154 277 831 116 277 832 131 277 833 134 278 834 88 278 835 153 278 836 145 279 837 117 279 838 119 279 839 144 280 840 143 280 841 145 280 842 125 281 843 124 281 844 144 281 845 125 282 846 128 282 847 126 282 848 130 283 849 127 283 850 128 283 851 131 284 852 130 284 853 155 284 854 131 285 855 155 285 856 154 285 857 154 286 858 155 286 859 153 286 860 152 287 861 156 287 862 133 287 863 133 288 864 156 288 865 151 288 866 157 289 867 84 289 868 85 289 869 157 290 870 135 290 871 84 290 872 135 291 873 157 291 874 158 291 875 135 292 876 158 292 877 152 292 878 134 293 879 157 293 880 85 293 881 157 294 882 134 294 883 159 294 884 159 295 885 134 295 886 153 295 887 160 296 888 140 296 889 138 296 890 160 297 891 138 297 892 137 297 893 140 298 894 160 298 895 119 298 896 119 299 897 160 299 898 161 299 899 161 300 900 160 300 901 162 300 902 145 301 903 119 301 904 163 301 905 163 302 906 119 302 907 161 302 908 163 303 909 161 303 910 164 303 911 144 304 912 145 304 913 163 304 914 144 305 915 163 305 916 165 305 917 165 306 918 163 306 919 166 306 920 144 307 921 165 307 922 125 307 923 125 308 924 165 308 925 167 308 926 167 309 927 165 309 928 168 309 929 125 310 930 167 310 931 128 310 932 128 311 933 167 311 934 169 311 935 169 312 936 167 312 937 170 312 938 128 313 939 169 313 940 130 313 941 136 314 942 171 314 943 137 314 944 171 315 945 136 315 946 142 315 947 137 316 948 171 316 949 160 316 950 160 317 951 171 317 952 172 317 953 142 318 954 173 318 955 171 318 956 171 319 957 173 319 958 174 319 959 173 320 960 142 320 961 147 320 962 173 321 963 147 321 964 175 321 965 175 322 966 147 322 967 146 322 968 173 323 969 175 323 970 176 323 971 164 324 972 161 324 973 162 324 974 164 325 975 162 325 976 177 325 977 164 326 978 177 326 979 166 326 980 164 327 981 166 327 982 163 327 983 172 328 984 171 328 985 174 328 986 173 329 987 176 329 988 174 329 989 174 330 990 176 330 991 178 330 992 174 331 993 178 331 994 172 331 995 160 332 996 172 332 997 162 332 998 162 333 999 172 333 1000 179 333 1001 179 334 1002 172 334 1003 178 334 1004 162 335 1005 179 335 1006 177 335 1007 179 336 1008 178 336 1009 180 336 1010 179 337 1011 180 337 1012 177 337 1013 180 338 1014 178 338 1015 181 338 1016 177 339 1017 180 339 1018 182 339 1019 169 340 1020 155 340 1021 130 340 1022 155 341 1023 169 341 1024 183 341 1025 183 342 1026 169 342 1027 184 342 1028 155 343 1029 183 343 1030 153 343 1031 153 344 1032 183 344 1033 185 344 1034 153 345 1035 185 345 1036 159 345 1037 159 346 1038 185 346 1039 186 346 1040 186 347 1041 185 347 1042 187 347 1043 159 348 1044 186 348 1045 158 348 1046 159 349 1047 158 349 1048 157 349 1049 158 350 1050 186 350 1051 188 350 1052 158 351 1053 188 351 1054 189 351 1055 158 352 1056 189 352 1057 152 352 1058 189 353 1059 188 353 1060 190 353 1061 189 354 1062 190 354 1063 191 354 1064 167 355 1065 168 355 1066 170 355 1067 170 356 1068 168 356 1069 192 356 1070 170 357 1071 192 357 1072 193 357 1073 192 358 1074 168 358 1075 166 358 1076 166 359 1077 168 359 1078 165 359 1079 192 360 1080 166 360 1081 194 360 1082 192 361 1083 194 361 1084 193 361 1085 194 362 1086 166 362 1087 177 362 1088 193 363 1089 194 363 1090 195 363 1091 193 364 1092 195 364 1093 196 364 1094 195 365 1095 194 365 1096 197 365 1097 197 366 1098 194 366 1099 177 366 1100 197 367 1101 177 367 1102 198 367 1103 198 368 1104 177 368 1105 182 368 1106 175 369 1107 146 369 1108 149 369 1109 175 370 1110 149 370 1111 199 370 1112 175 371 1113 199 371 1114 200 371 1115 199 372 1116 149 372 1117 151 372 1118 199 373 1119 151 373 1120 156 373 1121 199 374 1122 156 374 1123 191 374 1124 199 375 1125 191 375 1126 201 375 1127 191 376 1128 156 376 1129 189 376 1130 189 377 1131 156 377 1132 152 377 1133 191 378 1134 202 378 1135 201 378 1136 201 379 1137 202 379 1138 203 379 1139 202 380 1140 191 380 1141 190 380 1142 203 381 1143 202 381 1144 204 381 1145 204 382 1146 202 382 1147 190 382 1148 204 383 1149 190 383 1150 205 383 1151 205 384 1152 190 384 1153 188 384 1154 204 385 1155 205 385 1156 206 385 1157 186 386 1158 205 386 1159 188 386 1160 205 387 1161 186 387 1162 187 387 1163 205 388 1164 187 388 1165 206 388 1166 207 389 1167 208 389 1168 206 389 1169 207 390 1170 206 390 1171 209 390 1172 209 391 1173 206 391 1174 187 391 1175 207 392 1176 209 392 1177 210 392 1178 210 393 1179 209 393 1180 211 393 1181 211 394 1182 209 394 1183 187 394 1184 211 395 1185 187 395 1186 212 395 1187 212 396 1188 187 396 1189 185 396 1190 211 397 1191 212 397 1192 184 397 1193 184 398 1194 212 398 1195 183 398 1196 183 399 1197 212 399 1198 185 399 1199 170 400 1200 184 400 1201 169 400 1202 184 401 1203 170 401 1204 213 401 1205 213 402 1206 170 402 1207 193 402 1208 184 403 1209 213 403 1210 211 403 1211 213 404 1212 193 404 1213 196 404 1214 211 405 1215 213 405 1216 210 405 1217 213 406 1218 196 406 1219 214 406 1220 213 407 1221 214 407 1222 210 407 1223 175 408 1224 200 408 1225 176 408 1226 176 409 1227 200 409 1228 215 409 1229 215 410 1230 200 410 1231 201 410 1232 201 411 1233 200 411 1234 199 411 1235 215 412 1236 201 412 1237 203 412 1238 215 413 1239 178 413 1240 176 413 1241 178 414 1242 215 414 1243 216 414 1244 178 415 1245 216 415 1246 181 415 1247 216 416 1248 215 416 1249 217 416 1250 217 417 1251 215 417 1252 203 417 1253 217 418 1254 203 418 1255 218 418 1256 218 419 1257 203 419 1258 204 419 1259 218 420 1260 204 420 1261 219 420 1262 219 421 1263 204 421 1264 206 421 1265 219 422 1266 206 422 1267 208 422 1268 180 423 1269 220 423 1270 182 423 1271 220 424 1272 180 424 1273 181 424 1274 182 425 1275 220 425 1276 221 425 1277 182 426 1278 221 426 1279 198 426 1280 198 427 1281 221 427 1282 222 427 1283 221 428 1284 220 428 1285 223 428 1286 223 429 1287 220 429 1288 224 429 1289 224 430 1290 220 430 1291 181 430 1292 224 431 1293 181 431 1294 225 431 1295 224 432 1296 225 432 1297 226 432 1298 225 433 1299 181 433 1300 216 433 1301 225 434 1302 216 434 1303 217 434 1304 225 435 1305 217 435 1306 227 435 1307 225 436 1308 227 436 1309 228 436 1310 227 437 1311 217 437 1312 218 437 1313 228 438 1314 227 438 1315 229 438 1316 229 439 1317 227 439 1318 218 439 1319 229 440 1320 218 440 1321 219 440 1322 229 441 1323 219 441 1324 230 441 1325 197 442 1326 198 442 1327 231 442 1328 231 443 1329 198 443 1330 222 443 1331 197 444 1332 231 444 1333 195 444 1334 231 445 1335 222 445 1336 232 445 1337 231 446 1338 232 446 1339 195 446 1340 232 447 1341 222 447 1342 233 447 1343 232 448 1344 233 448 1345 234 448 1346 195 449 1347 232 449 1348 235 449 1349 235 450 1350 232 450 1351 234 450 1352 195 451 1353 235 451 1354 196 451 1355 235 452 1356 234 452 1357 236 452 1358 196 453 1359 235 453 1360 214 453 1361 214 454 1362 235 454 1363 237 454 1364 237 455 1365 235 455 1366 236 455 1367 214 456 1368 237 456 1369 210 456 1370 210 457 1371 237 457 1372 207 457 1373 237 458 1374 236 458 1375 238 458 1376 237 459 1377 238 459 1378 207 459 1379 238 460 1380 236 460 1381 239 460 1382 207 461 1383 238 461 1384 208 461 1385 238 462 1386 239 462 1387 240 462 1388 238 463 1389 240 463 1390 208 463 1391 208 464 1392 240 464 1393 230 464 1394 208 465 1395 230 465 1396 219 465 1397 241 466 1398 229 466 1399 230 466 1400 241 467 1401 230 467 1402 240 467 1403 242 468 1404 221 468 1405 223 468 1406 221 469 1407 242 469 1408 222 469 1409 222 470 1410 242 470 1411 243 470 1412 222 471 1413 243 471 1414 233 471 1415 242 472 1416 223 472 1417 244 472 1418 242 473 1419 244 473 1420 243 473 1421 233 474 1422 243 474 1423 245 474 1424 233 475 1425 245 475 1426 234 475 1427 243 476 1428 244 476 1429 246 476 1430 243 477 1431 246 477 1432 245 477 1433 234 478 1434 245 478 1435 247 478 1436 247 479 1437 245 479 1438 246 479 1439 234 480 1440 247 480 1441 236 480 1442 236 481 1443 247 481 1444 248 481 1445 248 482 1446 247 482 1447 246 482 1448 236 483 1449 248 483 1450 239 483 1451 239 484 1452 248 484 1453 249 484 1454 249 485 1455 248 485 1456 246 485 1457 249 486 1458 246 486 1459 250 486 1460 250 487 1461 246 487 1462 244 487 1463 249 488 1464 250 488 1465 241 488 1466 251 489 1467 244 489 1468 223 489 1469 244 490 1470 251 490 1471 250 490 1472 251 491 1473 223 491 1474 226 491 1475 241 492 1476 250 492 1477 228 492 1478 228 493 1479 250 493 1480 251 493 1481 228 494 1482 251 494 1483 226 494 1484 241 495 1485 228 495 1486 229 495 1487 228 496 1488 226 496 1489 225 496 1490 226 497 1491 223 497 1492 224 497 1493 239 498 1494 241 498 1495 240 498 1496 241 499 1497 239 499 1498 249 499 1499</p>
        </polylist>
      </mesh>
    </geometry>
  </library_geometries>
  <library_visual_scenes>
    <visual_scene id="Scene" name="Scene">
      <node id="Ammunition" name="Ammunition" type="NODE">
        <scale sid="scale">0.4 0.4 0.4</scale>
        <translate sid="location">0 0 0</translate>
        <rotate sid="rotationX">1 0 0 0</rotate>
        <rotate sid="rotationY">0 1 0 0</rotate>
        <rotate sid="rotationZ">0 0 1 0</rotate>
        <instance_geometry url="#Ammunition-mesh" name="Ammunition">
          <bind_material>
            <technique_common>
            </technique_common>
          </bind_material>
        </instance_geometry>
      </node>
    </visual_scene>
  </library_visual_scenes>
  <scene>
    <instance_visual_scene url="#Scene"/>
  </scene>
</COLLADA>
