<?xml version="1.0" encoding="utf-8"?>
<COLLADA xmlns="http://www.collada.org/2005/11/COLLADASchema" version="1.4.1" xmlns:xsi="http://www.w3.org/2001/XMLSchema-instance">
  <asset>
    <contributor>
      <author>Blockbench user</author>
      <authoring_tool>Blockbench</authoring_tool>
    </contributor>
    <created>2025-11-08T12:09:36.577Z</created>
    <modified>2025-11-08T12:09:36.587Z</modified>
    <unit name="meter" meter="1.0"/>
    <up_axis>Y_UP</up_axis>
  </asset>
  <library_effects>
  </library_effects>
  <library_images>
  </library_images>
  <library_materials>
  </library_materials>
  <library_geometries>
    <geometry id="AnimalTendons-mesh" name="AnimalTendons">
      <mesh>
        <source id="AnimalTendons-mesh-positions">
          <float_array id="AnimalTendons-mesh-positions-array" count="747">-0.151841 -0.014276 -0.424808 -0.123124 -0.023305 -0.398441 -0.188965 -0.042161 -0.366123 -0.123307 0.008054 -0.414524 -0.19635 0.023449 -0.396884 -0.163269 0.020117 -0.431949 -0.137574 0.057986 -0.418338 -0.210602 0.013957 -0.357791 -0.173584 0.050238 -0.410739 -0.192658 0.047896 -0.383182 -0.170319 0.064345 -0.354923 -0.203217 0.072047 -0.398593 -0.182465 0.095801 -0.399631 -0.153824 0.110473 -0.37833 -0.189453 0.077079 -0.378208 -0.178742 0.107947 -0.375156 -0.148316 0.076899 -0.357212 -0.173706 0.050423 -0.281406 -0.095871 -0.051309 -0.351169 -0.118363 -0.040673 -0.300022 -0.186035 -0.022733 -0.333469 -0.127426 -0.0272 -0.270969 -0.058564 -0.022496 -0.303318 -0.204132 0.017831 -0.313205 -0.200348 0.059806 -0.323307 -0.208954 -0.014974 -0.250125 -0.190186 0.055922 -0.285739 -0.110428 -0.016324 -0.233341 -0.093582 0.008656 -0.243076 -0.135102 -0.009427 -0.147739 -0.162598 -0.036676 -0.184207 -0.150757 -0.049585 -0.204074 -0.135041 -0.05243 -0.231388 -0.079468 -0.019624 -0.432468 -0.069977 -0.032273 -0.393589 -0.037705 0.006926 -0.392826 -0.08104 0.022377 -0.436191 -0.056061 0.037843 -0.432651 -0.236023 -0.002343 -0.251407 -0.235077 0.036578 -0.254093 -0.259735 0.012479 -0.220035 -0.247864 -0.026754 -0.194065 -0.172425 -0.051103 -0.160526 -0.245606 0.067057 -0.192813 -0.236298 0.042731 -0.169849 -0.236359 0.064071 -0.240238 -0.220795 0.087603 -0.224857 -0.185028 0.063334 -0.237094 -0.134491 0.087058 -0.25156 -0.208374 0.079898 -0.205204 -0.198243 0.097968 -0.159381 -0.161896 0.082225 -0.197605 -0.124726 0.059865 -0.194126 -0.185334 0.108046 -0.128818 -0.120148 0.079829 -0.42847 -0.076126 0.088492 -0.435642 -0.088059 0.109336 -0.417179 -0.051895 0.106269 -0.406192 -0.075241 0.138884 -0.428073 -0.057251 0.148742 -0.402622 -0.051987 0.127425 -0.366001 -0.013161 0.058831 -0.425571 -0.039124 0.059596 -0.399295 0.002945 0.039698 -0.420078 -0.021057 0.095855 -0.356815 0.012558 0.069941 -0.376834 -0.02813 0.06679 -0.339023 -0.070481 0.06388 -0.346256 -0.135254 0.132239 -0.399112 -0.106476 0.151847 -0.383335 -0.128678 0.14009 -0.352207 -0.082581 0.142829 -0.354373 -0.118668 0.115989 -0.351108 -0.082276 0.116011 -0.358676 -0.112839 0.095351 -0.31879 -0.088684 0.046971 -0.239749 -0.216675 -0.016046 -0.129779 -0.195771 -0.02342 -0.142368 -0.183869 -0.036187 -0.132022 -0.162354 -0.010652 0.000954 -0.135025 0.032187 -0.057361 -0.197113 -0.040734 0.038332 -0.217194 -0.036378 -0.013401 -0.248871 -0.001477 -0.014507 -0.235077 0.009604 -0.143589 -0.247773 0.027803 -0.062366 -0.242462 0.04478 -0.038768 -0.228028 0.055472 -0.136646 -0.191895 0.078349 -0.043895 -0.19986 0.114676 -0.142704 -0.202881 0.087909 -0.000656 -0.198517 0.071276 0.021615 -0.162262 0.055322 0.000576 -0.067459 0.017874 -0.307682 -0.257874 0.024401 0.093045 -0.222168 -0.039415 0.086487 -0.187043 -0.055856 0.16129 -0.146515 0.033902 0.096669 -0.15886 -0.006665 0.117566 -0.163544 0.059773 0.141987 -0.184693 -0.022218 0.105698 -0.220948 0.062236 0.138867 -0.238861 0.057439 0.075511 -0.226715 0.044001 0.200421 -0.014939 -0.040925 -0.377597 -0.032791 -0.049058 -0.341922 -0.054779 -0.05285 -0.316013 -0.006516 -0.016679 -0.360507 -0.00248 0.006484 -0.341312 -0.002915 -0.02522 -0.327335 -0.025826 -0.005418 -0.324283 -0.025353 0.03814 -0.304294 0.014709 0.026343 -0.312046 0.03022 0.007638 -0.383518 0.019607 0.041711 -0.406864 0.009628 0.05882 -0.310276 0.006675 0.076228 -0.340396 0.04858 -0.070604 -0.150928 0.061685 -0.046312 -0.244327 0.086262 -0.065263 -0.252079 0.081624 -0.066652 -0.21558 0.145782 -0.03499 -0.295963 0.060718 -0.026357 -0.232608 0.120172 -0.024503 -0.256076 0.153549 -0.064538 -0.274753 0.123775 -0.046243 -0.23978 0.034988 -0.047441 -0.145236 0.066501 -0.041085 -0.019283 0.044086 -0.01933 -0.103092 0.071016 -0.067903 -0.117176 0.078844 -0.05079 -0.146991 0.141651 -0.044954 0.01492 0.106136 -0.014066 -0.020931 0.072923 -0.029111 -0.170856 0.123539 -0.012506 0.093911 0.107517 -0.070848 0.037316 0.214317 -0.019258 -0.275974 0.226898 -0.04226 -0.284336 0.256881 -0.060281 -0.245578 0.275406 -0.033548 -0.205448 0.174217 -0.040559 -0.249912 0.309356 -0.029912 -0.228977 0.342315 -0.015069 -0.179233 0.348907 -0.047242 -0.191379 0.404571 -0.032289 -0.090335 0.397277 -0.05272 -0.087574 0.353851 -0.056977 -0.147754 0.39389 -0.053651 0.004105 0.341736 -0.036309 -0.116031 0.379852 -0.027616 -0.027614 0.408172 -0.009938 -0.028858 0.134243 -0.045259 0.132618 0.154892 -0.041803 0.210202 0.168747 -0.00641 0.218869 0.164428 -0.002816 0.0943 0.168007 -0.001817 0.317227 0.188888 -0.077027 0.172444 0.201118 -0.071801 0.151257 0.22258 -0.078065 0.234326 0.224762 -0.042482 0.152844 0.24797 -0.042772 0.270413 0.23761 -0.007085 0.270581 0.217697 -0.02332 0.141644 0.400909 -0.024053 0.105206 0.400543 -0.055612 0.150876 0.429626 -0.056771 0.041441 0.427429 -0.013772 0.14777 0.446716 -0.029927 0.070904 -0.157044 -0.050302 0.227749 -0.152481 -0.032388 0.231045 -0.119263 -0.010484 0.19566 -0.130188 0.02297 0.181736 -0.221253 -0.009351 0.189633 -0.211548 0.020764 0.277844 -0.197968 -0.011724 0.278027 -0.20578 -0.05845 0.257702 -0.196289 0.051446 0.295102 -0.16449 0.068198 0.311001 -0.176545 -0.079599 0.314785 -0.119553 -0.081903 0.340939 -0.09549 0.018243 0.196332 -0.11528 0.01946 0.216305 -0.168091 0.070922 0.23486 -0.095169 0.0439 0.301922 -0.09729 0.004853 0.280819 -0.18454 -0.052819 0.342312 -0.095993 -0.081712 0.462033 -0.11554 -0.062722 0.452603 -0.141083 -0.013822 0.379452 -0.134796 0.018446 0.408749 -0.068848 -0.019204 0.445096 -0.113633 0.043825 0.424618 -0.086136 0.066077 0.413327 -0.106842 0.073279 0.343869 0.011192 0.054984 0.420773 -0.108261 -0.017446 0.263501 -0.096817 -0.053247 0.358456 -0.04216 -0.020841 0.349087 0.013298 0.034061 0.401822 -0.078858 -0.035455 0.467953 0.074487 -0.05671 0.555783 -0.042603 -0.065011 0.506039 0.060197 -0.083665 0.550045 0.000396 -0.081742 0.458371 0.010902 -0.057161 0.45715 -0.00647 -0.040773 0.402188 0.111351 -0.066926 0.434903 0.001838 -0.019746 0.382687 0.083932 -0.022054 0.406399 0.024688 0.003663 0.495877 0.034511 -0.032525 0.488614 -0.011177 0.044278 0.466336 0.069988 0.039315 0.471035 0.150711 0.020117 0.409573 0.116245 0.001162 0.400418 0.131477 -0.034166 0.382321 0.098349 -0.0822 0.501034 0.092922 -0.052163 0.491086 0.172279 -0.073205 0.441037 0.201065 -0.084306 0.552304 0.165947 -0.056802 0.558224 0.1114 -0.036714 0.535458 0.193481 -0.076318 0.35809 0.167564 -0.054551 0.32803 0.223694 -0.074922 0.352353 0.161781 -0.023881 0.318539 0.24118 -0.043283 0.361783 0.217453 0.001578 0.383999 0.191581 0.016398 0.367428 0.18132 -0.046586 0.456418 0.215728 -0.034593 0.42236 0.160164 -0.014005 0.473874 0.156387 0.017469 0.454251 0.374817 -0.066682 0.304379 0.380066 -0.040498 0.298932 0.400543 -0.081575 0.292401 0.397979 -0.030809 0.33804 0.443603 -0.05552 0.216076 0.344329 -0.04516 0.377316 0.272064 -0.05874 0.461026 0.313598 -0.083162 0.428219 0.403167 -0.079736 0.331082 0.321212 -0.081575 0.485226 0.406616 -0.056192 0.355069 0.17305 -0.046846 0.502896 0.205299 -0.083902 0.492245 0.267303 -0.084787 0.52792 0.267379 -0.056947 0.523648 0.25473 -0.043161 0.497281</float_array>
          <technique_common>
            <accessor source="#AnimalTendons-mesh-positions-array" count="249" stride="3">
              <param name="X" type="float"/>
              <param name="Y" type="float"/>
              <param name="Z" type="float"/>
            </accessor>
          </technique_common>
        </source>
        <source id="AnimalTendons-mesh-normals">
          <float_array id="AnimalTendons-mesh-normals-array" count="1494">0.070735 -0.917564 -0.391246 0.560014 -0.375488 -0.738507 -0.697351 -0.367104 -0.615578 0.382501 -0.064279 -0.921716 -0.695408 -0.360179 -0.621835 0.411377 0.048018 -0.910199 -0.877763 -0.280798 -0.388182 -0.279408 0.487008 -0.827499 -0.694721 0.239642 -0.678185 -0.920132 0.287804 -0.265569 -0.770338 0.396307 -0.49952 -0.762052 0.59464 0.256281 -0.637807 -0.592702 -0.49184 -0.240912 0.185303 -0.952693 -0.255487 0.181704 -0.949584 0.22558 0.633803 -0.73987 -0.828241 -0.004547 0.560353 -0.70622 0.631 0.32108 -0.778174 -0.021521 0.62768 -0.943941 0.329513 -0.019937 -0.453266 0.069415 0.888669 -0.326586 0.690144 0.645788 -0.479373 0.86606 0.141922 -0.120664 -0.981147 0.150967 -0.002948 -0.861104 -0.50842 -0.440849 -0.753442 0.487829 -0.872383 -0.381698 0.305375 -0.376723 -0.879629 0.290401 0.279856 -0.834661 0.474365 -0.866822 -0.469955 0.166621 -0.983854 0.120533 0.132297 -0.926558 -0.300038 -0.226864 -0.645128 0.546165 -0.534334 -0.134262 -0.989408 0.055189 -0.032704 0.993223 0.111531 0.265085 0.945081 0.191184 0.162481 -0.965066 0.205544 0.758522 -0.282724 0.587121 0.842966 -0.459364 0.279988 0.525893 -0.822184 0.217828 -0.59421 -0.788589 0.158245 0.713041 -0.312145 0.627805 -0.231521 -0.895386 -0.38037 0.738888 -0.478001 0.474931 -0.806143 -0.416333 -0.420476 0.804188 -0.559114 -0.201676 -0.547103 -0.38452 -0.74352 -0.231674 -0.889665 -0.393476 0.134616 -0.932146 -0.336129 0.72161 -0.586946 -0.367115 -0.428217 -0.095679 -0.898596 0.188096 -0.079731 -0.978909 -0.398804 -0.182594 -0.898674 0.014951 -0.069202 -0.997491 -0.841983 -0.449611 -0.298185 -0.889385 -0.029615 -0.456199 -0.283552 0.943003 0.174193 -0.802467 -0.021647 -0.596304 -0.365567 -0.826818 -0.427473 -0.792543 -0.484733 -0.370013 -0.16409 -0.93626 -0.31063 0.218103 -0.871035 -0.440147 0.754897 -0.650561 -0.083074 -0.900102 0.015854 0.435392 -0.854422 0.391545 -0.341549 -0.920258 0.016933 0.390945 -0.979554 0.052232 -0.194284 -0.634387 0.324087 -0.701798 -0.758592 0.624093 -0.187206 0.023558 0.987941 -0.15303 0.059697 0.518177 -0.853187 0.353158 0.918589 -0.177411 -0.478675 0.802521 -0.356132 -0.156252 0.88202 0.444552 0.555396 0.831206 -0.025143 -0.391317 0.882341 -0.261429 -0.455453 0.877053 -0.152774 0.02787 0.895286 -0.444618 0.013888 0.929139 -0.36947 0.46817 0.82678 0.311853 0.056262 0.940887 -0.334016 -0.078762 -0.367088 -0.926846 -0.23967 0.563236 -0.790774 -0.20431 -0.138168 -0.969106 -0.079631 0.342854 -0.936008 0.257128 0.719072 -0.645617 0.230366 -0.423031 -0.876343 0.779225 0.149424 -0.608671 0.98925 0.130324 -0.066336 0.750619 -0.307598 -0.584768 0.412632 -0.617548 -0.669604 0.774163 0.272965 -0.571106 -0.35615 0.855089 -0.376803 0.736766 0.102845 -0.66828 0.56264 0.627984 0.537655 0.85208 0.159484 -0.498523 0.721494 0.613397 -0.321233 0.150714 0.719348 -0.678103 0.224388 0.468477 0.854506 -0.180969 0.33948 0.92304 -0.714423 0.270653 -0.645249 -0.374713 0.657595 -0.653574 -0.144494 0.894939 -0.422144 0.052649 0.537867 0.841384 -0.479808 -0.356207 -0.801811 -0.416162 -0.150113 -0.896814 -0.313886 0.830676 -0.459839 -0.065647 0.945236 -0.319718 0.235463 0.854279 0.463428 -0.53711 0.840969 -0.06546 -0.761554 0.648099 -0.001711 0.426781 0.901532 -0.071401 -0.0407 0.943972 0.327507 -0.579035 -0.204505 0.789237 0.043085 0.06336 0.99706 -0.607333 0.349207 0.713584 0.285032 -0.148693 0.946915 0.201295 -0.15295 0.967516 0.134048 0.258266 0.956729 -0.744049 0.494101 0.449728 0.107871 0.846604 0.521178 0.669168 0.312078 0.674405 -0.547259 0.830142 0.10664 0.687063 0.66052 0.302751 -0.632891 0.76649 -0.109279 0.565935 0.79379 0.222745 0.627748 0.739401 0.24335 -0.185726 -0.950671 0.248458 -0.699831 -0.076929 0.710153 -0.502705 -0.776507 -0.379902 -0.40809 -0.865899 0.289278 0.530952 -0.644356 0.550359 0.500151 -0.861799 0.084566 0.91795 -0.36063 0.165268 0.673923 -0.738078 0.032693 -0.122427 -0.991825 -0.035991 -0.524751 -0.838155 -0.148771 -0.733213 -0.669291 -0.120199 -0.821109 -0.343773 0.455631 -0.979343 0.10221 0.174473 -0.922128 -0.320243 -0.21708 -0.813341 -0.581778 0.003221 -0.983211 -0.134227 -0.123611 -0.979172 0.182418 0.089138 -0.82655 0.562773 -0.010081 -0.908425 0.408388 -0.089353 -0.955119 -0.103423 0.277582 -0.671596 0.655492 0.345384 -0.552375 0.833541 0.009596 -0.77107 0.619405 0.14761 -0.99117 -0.128515 0.03265 0.697479 0.538933 -0.472307 0.106457 0.935993 0.335535 -0.940553 -0.291362 -0.174553 0.854519 0.482322 0.192778 0.912153 0.372481 0.17098 0.457566 0.880981 0.120438 0.503861 0.85581 0.117106 0.823705 0.540489 0.171411 0.804389 -0.539906 0.247911 0.549565 0.809839 0.205277 0.961927 -0.143183 0.2328 0.923965 -0.148713 0.352381 -0.991186 0.083302 -0.103014 -0.869791 -0.491327 0.045409 -0.738365 -0.671971 -0.057198 -0.34223 -0.93851 -0.045576 0.124544 -0.983507 -0.131157 0.699768 0.712998 0.044261 0.964081 -0.254873 0.074754 0.826949 0.562184 -0.010198 0.838982 -0.544121 -0.006534 0.510987 -0.859473 0.014075 0.694201 -0.716472 0.06894 0.390246 0.920359 -0.025431 0.038154 0.995729 0.084069 -0.306783 0.951666 0.014683 -0.695612 0.703966 0.143374 0.399692 0.770256 0.496943 -0.824561 0.548389 0.139175 -0.900351 0.316439 -0.298721 -0.872447 0.487986 -0.026564 -0.556759 0.827362 -0.074105 -0.020662 -0.907381 -0.419801 0.247266 -0.185058 -0.951111 0.063056 -0.97942 -0.191729 0.050485 -0.993445 -0.102555 -0.1532 -0.978769 0.136165 0.161106 -0.363639 0.917503 0.763735 -0.165701 0.623901 0.817717 -0.493236 0.296745 -0.459702 0.612776 -0.642791 0.989754 -0.068751 -0.125145 0.675725 -0.692835 -0.251742 0.422557 0.360753 0.831446 -0.175155 -0.344789 0.922193 0.630726 -0.375218 0.679262 0.455159 0.194224 0.868969 0.888118 0.238178 0.393088 0.127171 -0.414838 0.900964 0.052792 -0.416976 0.907383 0.354876 -0.814148 0.459593 0.586552 0.647157 0.486976 0.808044 0.209164 -0.550741 0.562239 -0.799298 0.212155 0.01286 -0.999766 -0.017372 0.436662 -0.842572 0.315276 0.120174 -0.535386 -0.836015 0.407145 -0.827147 -0.387377 -0.227112 -0.440533 -0.868533 0.377742 0.717229 -0.58557 0.960573 0.275949 -0.033931 0.092607 0.806172 -0.584389 0.974309 0.142945 0.174036 0.960892 0.263144 0.086268 0.182827 -0.024961 0.982828 -0.318997 0.718409 0.618166 0.940756 0.325279 0.095764 -0.207341 0.83804 0.504677 0.5939 0.803403 -0.042732 -0.11312 0.53862 0.83492 -0.091783 0.985772 0.140814 -0.640001 -0.716985 -0.276279 0.059941 -0.99774 -0.030353 -0.475817 -0.275381 -0.835322 -0.515973 0.415058 -0.749332 -0.166683 0.922015 -0.349435 -0.247869 -0.607093 -0.754983 -0.002139 -0.999264 -0.0383 0.592763 -0.386264 0.706706 -0.862161 -0.447581 -0.237382 -0.813476 -0.533983 0.230475 -0.968045 -0.053881 0.24492 -0.863563 0.48521 -0.137221 -0.960559 0.104733 -0.2576 0.119188 -0.992872 0.000226 0.959191 -0.26447 0.100039 0.665317 -0.70943 -0.232513 0.521877 -0.8262 0.212221 0.785503 0.52744 -0.323716 0.800001 0.43909 0.408899 0.97546 0.025696 -0.218673 0.666854 0.626429 0.4036 0.967108 -0.159366 -0.198252 -0.012582 0.998814 0.047032 -0.011088 0.998392 -0.055592 -0.083338 0.996521 -0.000908 -0.856478 0.395479 0.331726 -0.76404 -0.599492 0.238435 0.224735 -0.971784 -0.071622 0.537043 -0.831392 -0.142733 -0.1208 0.938231 -0.324239 0.165446 0.415622 -0.894363 0.066246 -0.570304 -0.818758 0.183085 -0.82966 -0.527394 -0.134275 -0.79499 0.591575 -0.30518 -0.545554 0.780536 -0.229071 0.896172 0.380002 0.205959 -0.784071 0.585503 0.116782 0.673358 0.730035 0.09023 0.606873 0.789661 0.427236 0.506056 -0.749251 0.32001 0.828643 -0.459287 -0.40838 0.758747 0.507473 0.557003 -0.356336 -0.750182 0.720164 0.369295 -0.587354 0.798038 0.348978 -0.491274 0.464821 -0.608967 -0.64273 0.839965 -0.355299 -0.410148 0.422026 -0.87348 -0.242747 0.272736 -0.931962 -0.238878 0.106039 -0.994343 -0.00618 -0.375867 -0.835512 0.400805 -0.684682 -0.702022 0.195898 -0.768416 -0.308872 0.560478 -0.917834 -0.011464 0.396799 -0.371918 -0.894449 0.248272 -0.501786 0.822665 0.267269 -0.300898 0.94846 0.099416 0.625751 0.720591 -0.298636 -0.895571 0.18533 0.404483 -0.816996 -0.456901 0.351794 -0.966173 -0.011269 0.257649 -0.907498 0.278175 0.314749 -0.230771 0.97234 0.036055 -0.872942 -0.487554 0.0162 -0.594468 -0.780617 0.19299 -0.651387 -0.666956 0.361752 0.16618 -0.975425 -0.144673 0.199204 -0.971984 -0.124762 0.412422 -0.842791 -0.345848 0.761622 -0.601097 -0.242102 0.716752 -0.555177 -0.421954 0.875041 -0.451752 -0.173847 0.94344 0.274756 -0.185556 0.952483 0.24702 -0.178205 0.85632 0.013977 -0.516256 0.490605 0.851941 -0.18304 0.657029 0.571341 -0.491815 0.799702 0.404152 -0.444003 -0.230738 0.972773 0.021752 -0.526626 0.847924 0.060744 -0.93644 -0.313797 0.156879 -0.995852 0.07839 0.046188 -0.076763 -0.997001 -0.009841 -0.454742 0.887958 0.068853 0.54111 0.839963 -0.040762 0.841945 0.489378 -0.227238 0.915934 -0.32559 -0.234639 0.904134 -0.354924 -0.237845 -0.07364 -0.997202 -0.012847 0.482745 -0.863549 -0.145739 0.975921 0.081502 -0.202328 0.946344 -0.193417 -0.258887 0.573632 -0.791306 -0.211616 0.357384 -0.906318 -0.22553 0.889043 0.104845 -0.445656 0.895275 -0.386545 -0.221506 0.774625 0.628769 -0.067871 -0.85586 -0.494457 0.151712 -0.908784 -0.354029 0.220849 -0.952189 0.186008 0.242358 -0.899055 -0.374528 0.226777 -0.965459 0.0502 0.255672 -0.914047 0.302753 0.269925 -0.500068 0.860978 0.092997 -0.278104 -0.95723 -0.079802 -0.975127 -0.210321 0.069953 -0.43477 -0.893976 -0.108547 0.031152 -0.987443 -0.154871 0.880702 -0.291748 -0.373159 0.343414 -0.263101 -0.901579 0.113355 0.9922 0.051859 0.596218 -0.507943 0.621706 -0.608051 0.77491 0.172594 0.045499 0.997738 -0.049481 -0.850577 -0.525414 0.02143 0.416453 0.904866 -0.088236 0.914033 0.153316 -0.375549 -0.969183 0.05788 0.239446 -0.832897 -0.497615 0.242203 -0.706088 -0.599003 0.37767 -0.045136 -0.998927 0.010357 -0.729857 -0.549 0.407317 -0.772646 0.369087 0.516521 -0.778105 0.442748 0.445564 -0.84435 -0.260554 0.468171 -0.61547 -0.460698 0.639495 -0.814539 -0.337821 0.471597 -0.852884 0.141479 0.502567 -0.786818 0.329991 0.521558 -0.577063 0.706418 0.409844 -0.480337 0.788482 0.384152 -0.172643 0.973128 0.152368 0.107614 0.991673 0.070744 -0.110764 0.99301 0.040764 0.412044 0.796223 -0.442998 0.589403 0.729545 -0.346943 0.986597 -0.019537 -0.162005 0.419209 -0.893733 -0.159702 0.926474 -0.217018 -0.307488 -0.597881 0.729634 0.331922 0.814117 0.555654 -0.168707 0.822623 -0.415253 -0.388403 0.896406 -0.151705 -0.416463 0.522602 -0.775059 -0.355205 0.428208 -0.827332 -0.363538 0.79031 0.082665 -0.607105 0.797014 0.253079 -0.548379 0.678318 0.02031 -0.734488 -0.630008 0.525823 0.571489 -0.339542 0.83042 0.441718 -0.179788 0.8372 0.516501 -0.361675 0.537743 0.761593 -0.55497 0.31262 0.770893 -0.582192 -0.209108 0.785701 -0.408474 -0.570858 0.712229 -0.001081 -0.999794 -0.020267 -0.000249 -0.999999 0.001626 0.663639 -0.317291 -0.677428 0.67159 -0.082767 -0.736286 0.295382 -0.885959 -0.357528 -0.146422 -0.959699 -0.239873 0.362849 -0.765583 -0.531246 0.047722 -0.689297 -0.722905 0.446109 -0.696966 -0.56145 0.597407 0.15273 -0.78726 0.274196 0.269854 -0.923036 -0.478779 0.008875 0.87789 -0.402927 -0.283994 0.870056 -0.484657 -0.136127 0.864047 -0.358357 0.321148 0.876609 -0.277425 0.684762 0.673897 -0.01154 0.581485 0.813475 0.038312 0.942066 0.333231 0.096682 0.976739 0.191398 0.619385 0.560376 -0.549856 0.580629 0.577895 -0.573505 0.108722 0.980537 -0.163483 0.084431 0.304688 -0.948703 -0.065395 -0.162617 -0.98452 -0.372208 0.290997 -0.881352 -0.466511 -0.659491 -0.58944 0.242392 -0.410336 -0.879131 0.389494 -0.211004 -0.896533 0.384118 -0.226997 -0.894945 -0.040793 -0.969571 0.24139 -0.121493 -0.969075 0.214788 0.006229 -0.999667 -0.025033 -0.004019 -0.999447 -0.033003 -0.016651 -0.230667 0.97289 -0.026365 -0.194745 0.980499 -0.391694 0.011806 0.92002 -0.017545 0.728489 0.684833 0.264835 0.896766 -0.354504 -0.174476 0.841615 0.511119 -0.708472 -0.705449 0.020222 -0.039592 -0.999204 0.004796 -0.632238 -0.774613 -0.015812 0.051086 -0.998353 0.026103 -0.933378 0.332004 0.136302 -0.970719 -0.215731 -0.105659 -0.962536 0.270426 -0.01987 0.807806 -0.589393 0.008071 0.865687 -0.496787 0.061554 0.957899 0.277737 0.072738 0.901546 0.413107 0.128672 0.48731 0.873001 0.019925 0.285609 0.953578 -0.095476 -0.619955 0.784611 0.006437 -0.893037 0.228962 -0.387378 -0.842792 -0.297682 -0.448428 -0.846615 -0.096964 -0.523298 -0.403633 0.870278 -0.282307 -0.180994 0.948703 -0.259235 -0.847626 -0.239339 -0.473547 -0.382595 -0.873051 -0.302329 -0.103588 -0.994561 0.010848 0.05589 -0.997097 0.051707 0.74184 -0.506137 0.439885 0.334008 -0.554054 0.762538 0.724241 -0.53128 0.439565 0.601155 -0.715819 0.355268 0.69095 0.062812 0.720169 0.892064 0.308087 0.330613 0.692839 0.439544 0.571643 0.706957 0.498436 0.501771 0.413512 0.896939 0.156554 0.133177 0.990212 0.041769 -0.97477 0.163882 -0.151546 -0.546999 -0.823393 -0.151053 -0.979752 -0.160954 -0.119075 -0.506835 0.861841 0.018629 -0.391549 0.9199 0.021765 0.787443 0.591081 0.174807 0.873118 -0.482962 -0.066421 0.854833 0.507579 0.107814 0.47561 -0.879082 -0.031768 -0.583324 -0.798907 -0.146561 -0.907763 0.09708 -0.408095 -0.317376 0.944157 -0.088544 -0.369212 0.913566 -0.170528 -0.893262 0.159259 -0.420381 -0.590184 -0.708952 -0.386095 0.083292 -0.995653 0.041686 0.524078 -0.851656 0.004938 0.059663 -0.998022 0.019815 0.897145 -0.372817 0.236934 0.758884 -0.515972 0.397326 0.862884 0.449115 0.231791 0.632791 0.568219 0.526026 0.249734 0.967975 0.025644 0.289031 0.531219 0.796409 0.196377 0.38024 0.9038 0.175532 0.130808 0.975745 0.367431 -0.242476 0.897886 -0.116853 -0.225825 0.967134 0.124869 0.250564 -0.960013 0.15824 -0.284555 -0.94551 0.112093 0.989094 -0.095539 -0.076647 0.213249 -0.973987 -0.396526 -0.082282 -0.914329 -0.01656 -0.999832 -0.007893 -0.490531 0.276079 -0.826535 -0.694683 -0.30858 -0.649764 0.021575 -0.999456 0.024942 -0.009997 -0.999922 -0.007431 0.016778 -0.998404 -0.053928 0.342888 0.141563 0.928648 0.612145 0.118302 0.781846 0.316111 0.204203 0.926485 0.634547 0.566089 0.526207 0.148092 0.890258 0.430709 0.289955 0.898161 0.330504 0.147651 0.903785 0.401712 -0.647155 0.537678 -0.540457 -0.0694 0.907702 -0.413836 -0.069781 0.903993 -0.421815</float_array>
          <technique_common>
            <accessor source="#AnimalTendons-mesh-normals-array" count="498" stride="3">
              <param name="X" type="float"/>
              <param name="Y" type="float"/>
              <param name="Z" type="float"/>
            </accessor>
          </technique_common>
        </source>
        <source id="AnimalTendons-mesh-map-0">
          <float_array id="AnimalTendons-mesh-map-0-array" count="2988">0.781006 0.312988 0.766357 0.269287 0.865723 0.309082 0.766357 0.269287 0.781006 0.312988 0.737549 0.307861 0.781006 0.312988 0.865723 0.309082 0.811279 0.375732 0.737549 0.307861 0.781006 0.312988 0.768311 0.348877 0.768311 0.348877 0.781006 0.312988 0.811279 0.375732 0.737549 0.307861 0.768311 0.348877 0.726318 0.372559 0.811279 0.375732 0.865723 0.309082 0.851074 0.385986 0.726318 0.372559 0.768311 0.348877 0.767822 0.387939 0.767822 0.387939 0.768311 0.348877 0.811279 0.375732 0.811279 0.375732 0.851074 0.385986 0.807617 0.40918 0.811279 0.375732 0.807617 0.40918 0.767822 0.387939 0.807617 0.40918 0.851074 0.385986 0.836182 0.445801 0.767822 0.387939 0.807617 0.40918 0.781006 0.422607 0.726318 0.372559 0.767822 0.387939 0.749268 0.437256 0.749268 0.437256 0.767822 0.387939 0.781006 0.422607 0.726318 0.372559 0.749268 0.437256 0.701416 0.439941 0.781006 0.422607 0.807617 0.40918 0.796143 0.442383 0.781006 0.422607 0.796143 0.442383 0.749268 0.437256 0.796143 0.442383 0.807617 0.40918 0.836182 0.445801 0.749268 0.437256 0.796143 0.442383 0.764404 0.460693 0.764404 0.460693 0.796143 0.442383 0.820557 0.477783 0.820557 0.477783 0.796143 0.442383 0.836182 0.445801 0.820557 0.477783 0.836182 0.445801 0.866699 0.518555 0.059814 0.085938 0.001465 0.107178 0 0.001465 0.059814 0.085938 0 0.001465 0.080078 0.021973 0.441406 0.815674 0.488525 0.807861 0.495117 0.83252 0.495117 0.83252 0.488525 0.807861 0.518066 0.80957 0.488525 0.807861 0.441406 0.815674 0.432617 0.794678 0.432617 0.794678 0.441406 0.815674 0.409424 0.832275 0.518066 0.80957 0.488525 0.807861 0.509277 0.77832 0.518066 0.80957 0.509277 0.77832 0.536621 0.776123 0.509277 0.77832 0.488525 0.807861 0.470703 0.756836 0.518066 0.80957 0.536621 0.776123 0.552246 0.799072 0.470703 0.756836 0.488525 0.807861 0.432617 0.794678 0.552246 0.799072 0.536621 0.776123 0.559814 0.772217 0.552246 0.799072 0.559814 0.772217 0.570801 0.77124 0.432617 0.794678 0.409424 0.832275 0.400635 0.784668 0.400635 0.784668 0.409424 0.832275 0.387695 0.799072 0.400635 0.784668 0.387695 0.799072 0.366699 0.737305 0.400635 0.784668 0.366699 0.737305 0.420898 0.736572 0.420898 0.752686 0.420898 0.736572 0.470703 0.756836 0.420898 0.736572 0.420898 0.752686 0.400635 0.784668 0.420898 0.752686 0.470703 0.756836 0.432617 0.794678 0.400635 0.784668 0.420898 0.752686 0.420166 0.771973 0.420166 0.771973 0.420898 0.752686 0.432617 0.794678 0.420166 0.771973 0.432617 0.794678 0.400635 0.784668 0.057861 0.581055 0.105713 0.619629 0.03833 0.616455 0.03833 0.616455 0.105713 0.619629 0.034424 0.682861 0.034424 0.682861 0.105713 0.619629 0.102539 0.668213 0.102539 0.668213 0.105713 0.619629 0.136719 0.678467 0.105713 0.619629 0.057861 0.581055 0.112549 0.571533 0.105713 0.619629 0.112549 0.571533 0.135742 0.559814 0.112549 0.571533 0.057861 0.581055 0.047607 0.527344 0.181641 0.314209 0.167725 0.298096 0.179443 0.273193 0.181641 0.314209 0.179443 0.273193 0.22583 0.289551 0.22583 0.289551 0.179443 0.273193 0.235352 0.260254 0.235352 0.260254 0.179443 0.273193 0.211182 0.246582 0.179443 0.273193 0.167725 0.298096 0.145508 0.27832 0.167725 0.298096 0.181641 0.314209 0.134766 0.328857 0.167725 0.298096 0.134766 0.328857 0.145508 0.27832 0.134766 0.328857 0.181641 0.314209 0.160645 0.384277 0.160645 0.384277 0.181641 0.314209 0.178223 0.373291 0.160645 0.384277 0.178223 0.373291 0.194092 0.407471 0.145508 0.27832 0.134766 0.328857 0.149658 0.234131 0.145508 0.27832 0.149658 0.234131 0.179443 0.273193 0.149658 0.234131 0.134766 0.328857 0.12915 0.248047 0.179443 0.273193 0.149658 0.234131 0.179443 0.251221 0.179443 0.273193 0.179443 0.251221 0.211182 0.246582 0.179443 0.251221 0.149658 0.234131 0.181396 0.228516 0.211182 0.246582 0.179443 0.251221 0.212402 0.23584 0.212402 0.23584 0.179443 0.251221 0.181396 0.228516 0.211182 0.246582 0.212402 0.23584 0.223633 0.244385 0.223633 0.244385 0.212402 0.23584 0.230957 0.201416 0.181396 0.228516 0.149658 0.234131 0.171143 0.214355 0.181396 0.228516 0.171143 0.214355 0.212402 0.23584 0.171143 0.214355 0.149658 0.234131 0.147705 0.1875 0.230957 0.201416 0.212402 0.23584 0.186523 0.184814 0.186523 0.184814 0.212402 0.23584 0.171143 0.214355 0.186523 0.184814 0.171143 0.214355 0.147705 0.1875 0.230957 0.201416 0.186523 0.184814 0.208984 0.161377 0.186523 0.184814 0.147705 0.1875 0.13501 0.166504 0.283936 0.527832 0.232178 0.543457 0.303955 0.506592 0.232178 0.543457 0.283936 0.527832 0.262207 0.572754 0.303955 0.506592 0.232178 0.543457 0.186279 0.494873 0.303955 0.506592 0.186279 0.494873 0.207764 0.484375 0.232178 0.543457 0.262207 0.572754 0.218262 0.591309 0.218262 0.591309 0.262207 0.572754 0.27124 0.604736 0.218262 0.591309 0.27124 0.604736 0.244629 0.631592 0.218262 0.591309 0.244629 0.631592 0.207275 0.647217 0.150391 0.462891 0.179932 0.429443 0.186279 0.494873 0.150391 0.462891 0.186279 0.494873 0.150391 0.52417 0.171143 0.556396 0.186279 0.494873 0.232178 0.543457 0.186279 0.494873 0.171143 0.556396 0.150391 0.52417 0.171143 0.556396 0.232178 0.543457 0.218262 0.591309 0.150391 0.52417 0.171143 0.556396 0.132812 0.5271 0.171143 0.556396 0.218262 0.591309 0.158936 0.623535 0.158936 0.623535 0.218262 0.591309 0.207275 0.647217 0.171143 0.556396 0.158936 0.623535 0.12915 0.598633 0.158936 0.623535 0.207275 0.647217 0.140869 0.658691 0.140869 0.658691 0.207275 0.647217 0.158936 0.704346 0.790771 0.728027 0.734619 0.70459 0.799805 0.708496 0.799805 0.708496 0.734619 0.70459 0.808105 0.665771 0.737549 0.728027 0.721436 0.7229 0.734619 0.70459 0.734619 0.70459 0.721436 0.7229 0.688965 0.710693 0.808105 0.665771 0.734619 0.70459 0.756348 0.670166 0.808105 0.665771 0.756348 0.670166 0.804443 0.615723 0.804443 0.615723 0.756348 0.670166 0.748779 0.63501 0.804443 0.615723 0.748779 0.63501 0.77002 0.587402 0.77002 0.587402 0.748779 0.63501 0.714355 0.58667 0.748779 0.63501 0.756348 0.670166 0.718018 0.658691 0.718018 0.658691 0.756348 0.670166 0.734619 0.70459 0.714355 0.58667 0.748779 0.63501 0.713379 0.619873 0.713379 0.619873 0.748779 0.63501 0.718018 0.658691 0.718018 0.658691 0.734619 0.70459 0.691162 0.662109 0.718018 0.658691 0.691162 0.662109 0.713379 0.619873 0.691162 0.662109 0.734619 0.70459 0.688965 0.710693 0.714355 0.58667 0.713379 0.619873 0.687988 0.619385 0.687988 0.619385 0.713379 0.619873 0.691162 0.662109 0.714355 0.58667 0.687988 0.619385 0.649414 0.598145 0.691162 0.662109 0.688965 0.710693 0.651611 0.663086 0.691162 0.662109 0.651611 0.663086 0.687988 0.619385 0.687988 0.619385 0.651611 0.663086 0.649414 0.598145 0.651611 0.663086 0.688965 0.710693 0.620361 0.728027 0.649414 0.598145 0.651611 0.663086 0.592529 0.65332 0.121094 0.001221 0.132812 0.037598 0.089111 0.042725 0.968506 0.328125 0.873047 0.297852 0.909912 0.294434 0.873047 0.297852 0.968506 0.328125 0.89624 0.330322 0.612793 0.333984 0.55835 0.343018 0.605469 0.315186 0.605469 0.315186 0.55835 0.343018 0.613525 0.29834 0.605469 0.315186 0.613525 0.29834 0.612793 0.333984 0.613525 0.29834 0.55835 0.343018 0.584473 0.286133 0.613525 0.29834 0.584473 0.286133 0.588379 0.26001 0.613525 0.29834 0.588379 0.26001 0.692627 0.237061 0.692627 0.237061 0.588379 0.26001 0.648438 0.202393 0.613525 0.29834 0.692627 0.237061 0.730713 0.272461 0.613525 0.29834 0.730713 0.272461 0.70459 0.312012 0.613525 0.29834 0.70459 0.312012 0.612793 0.333984 0.612793 0.333984 0.70459 0.312012 0.70459 0.354004 0.602051 0.363525 0.55835 0.343018 0.612793 0.333984 0.55835 0.343018 0.602051 0.363525 0.583008 0.39502 0.612793 0.333984 0.70459 0.354004 0.663818 0.378418 0.612793 0.333984 0.663818 0.378418 0.602051 0.363525 0.602051 0.363525 0.663818 0.378418 0.583008 0.39502 0.663818 0.378418 0.70459 0.354004 0.688232 0.39209 0.583008 0.39502 0.663818 0.378418 0.606689 0.414307 0.606689 0.414307 0.663818 0.378418 0.688232 0.39209 0.583008 0.39502 0.606689 0.414307 0.557617 0.413086 0.557617 0.413086 0.606689 0.414307 0.577881 0.466309 0.606689 0.414307 0.688232 0.39209 0.688232 0.445801 0.606689 0.414307 0.688232 0.445801 0.577881 0.466309 0.577881 0.466309 0.688232 0.445801 0.599121 0.472168 0.577881 0.466309 0.599121 0.472168 0.602051 0.482422 0.602051 0.482422 0.599121 0.472168 0.688232 0.445801 0.602051 0.482422 0.688232 0.445801 0.717529 0.466797 0.602051 0.482422 0.717529 0.466797 0.730713 0.483398 0.602051 0.482422 0.730713 0.483398 0.567871 0.529541 0.567871 0.529541 0.730713 0.483398 0.729736 0.530273 0.567871 0.529541 0.729736 0.530273 0.588379 0.577881 0.588379 0.577881 0.729736 0.530273 0.688965 0.581543 0.036621 0.733887 0.107178 0.731201 0.164795 0.779053 0.442871 0.026123 0.479492 0.005127 0.57666 0.024658 0.439941 0.911377 0.554932 0.931641 0.436279 0.935059 0.439941 0.911377 0.436279 0.935059 0.394287 0.924561 0.824707 0.923096 0.764893 0.870117 0.856934 0.901367 0.764893 0.870117 0.824707 0.923096 0.747559 0.937012 0.747559 0.937012 0.824707 0.923096 0.810303 0.96875 0.747559 0.937012 0.810303 0.96875 0.69043 0.955566 0.69043 0.955566 0.810303 0.96875 0.772705 0.973389 0.717773 0.151123 0.799072 0.158936 0.699463 0.203369 0.699463 0.203369 0.799072 0.158936 0.817139 0.193359 0.799072 0.158936 0.717773 0.151123 0.814453 0.117188 0.699463 0.203369 0.817139 0.193359 0.757568 0.239014 0.757568 0.239014 0.817139 0.193359 0.825928 0.219482 0.757568 0.239014 0.825928 0.219482 0.783691 0.260742 0.814453 0.117188 0.717773 0.151123 0.718262 0.11084 0.814453 0.117188 0.718262 0.11084 0.804688 0.074463 0.804688 0.074463 0.718262 0.11084 0.745361 0.074219 0.804688 0.074463 0.745361 0.074219 0.838135 0.034424 0.745361 0.074219 0.718262 0.11084 0.698486 0.101562 0.838135 0.034424 0.745361 0.074219 0.749756 0.043457 0.745361 0.074219 0.698486 0.101562 0.665283 0.085693 0.749756 0.043457 0.745361 0.074219 0.671143 0.045654 0.671143 0.045654 0.745361 0.074219 0.665283 0.085693 0.883301 0.118164 0.92041 0.144043 0.840576 0.149902 0.92041 0.144043 0.883301 0.118164 0.918701 0.101807 0.840576 0.149902 0.92041 0.144043 0.880615 0.168457 0.840576 0.149902 0.880615 0.168457 0.859375 0.179199 0.840576 0.149902 0.859375 0.179199 0.820312 0.174561 0.820312 0.174561 0.859375 0.179199 0.855469 0.205566 0.855469 0.205566 0.859375 0.179199 0.880615 0.168457 0.880615 0.168457 0.92041 0.144043 0.915283 0.167969 0.915283 0.167969 0.92041 0.144043 0.916016 0.192139 0.915283 0.167969 0.916016 0.192139 0.89917 0.186035 0.915283 0.167969 0.89917 0.186035 0.880615 0.168457 0.89917 0.186035 0.916016 0.192139 0.891113 0.211182 0.89917 0.186035 0.891113 0.211182 0.880615 0.168457 0.880615 0.168457 0.891113 0.211182 0.855469 0.205566 0.855469 0.205566 0.891113 0.211182 0.86499 0.236816 0.855469 0.205566 0.86499 0.236816 0.824463 0.241455 0.86499 0.236816 0.891113 0.211182 0.902832 0.244385 0.902832 0.244385 0.891113 0.211182 0.918457 0.235352 0.86499 0.236816 0.902832 0.244385 0.868408 0.289307 0.868408 0.289307 0.902832 0.244385 0.921631 0.270264 0.638184 0.166504 0.584473 0.075195 0.66626 0.098877 0.587158 0.038818 0.584473 0.075195 0.524658 0.055908 0.584473 0.075195 0.638184 0.166504 0.557129 0.147705 0.584473 0.075195 0.557129 0.147705 0.524658 0.055908 0.557129 0.147705 0.638184 0.166504 0.544678 0.201172 0.544678 0.201172 0.638184 0.166504 0.557861 0.227051 0.557861 0.227051 0.638184 0.166504 0.579346 0.251953 0.544678 0.201172 0.557861 0.227051 0.47876 0.187988 0.544678 0.201172 0.47876 0.187988 0.557129 0.147705 0.47876 0.187988 0.557861 0.227051 0.502197 0.257812 0.524658 0.055908 0.557129 0.147705 0.477051 0.087646 0.477051 0.087646 0.557129 0.147705 0.47876 0.187988 0.524658 0.055908 0.477051 0.087646 0.466309 0.034424 0.466309 0.034424 0.477051 0.087646 0.417725 0.105957 0.477051 0.087646 0.47876 0.187988 0.459717 0.13501 0.477051 0.087646 0.459717 0.13501 0.417725 0.105957 0.459717 0.13501 0.47876 0.187988 0.416016 0.163818 0.459717 0.13501 0.416016 0.163818 0.417725 0.105957 0.834473 0.931885 0.935547 0.9646 0.821045 0.971436 0.675293 0.005127 0.655029 0.047363 0.639893 0.036865 0.675293 0.005127 0.639893 0.036865 0.648682 0.019531 0.639893 0.036865 0.655029 0.047363 0.603516 0.055664 0.603516 0.055664 0.655029 0.047363 0.657959 0.061035 0.603516 0.055664 0.657959 0.061035 0.625244 0.076172 0.639893 0.036865 0.603516 0.055664 0.604248 0.034912 0.639893 0.036865 0.604248 0.034912 0.648682 0.019531 0.648682 0.019531 0.604248 0.034912 0.617676 0.009277 0.794189 0.745361 0.81665 0.750488 0.771484 0.82373 0.81665 0.750488 0.794189 0.745361 0.854004 0.648193 0.81665 0.750488 0.854004 0.648193 0.849854 0.723145 0.81665 0.750488 0.849854 0.723145 0.821045 0.828857 0.999512 0.146484 0.984863 0.15332 0.990234 0.081055 0.165039 0.4021 0.152588 0.436035 0.137207 0.391846 0.137207 0.391846 0.152588 0.436035 0.123779 0.407715 0.137207 0.391846 0.123779 0.407715 0.118408 0.313965 0.123779 0.407715 0.152588 0.436035 0.137451 0.461182 0.118408 0.313965 0.123779 0.407715 0.101807 0.3396 0.123779 0.407715 0.137451 0.461182 0.123047 0.473877 0.101807 0.3396 0.123779 0.407715 0.108154 0.421875 0.108154 0.421875 0.123779 0.407715 0.123047 0.473877 0.101807 0.3396 0.108154 0.421875 0.10083 0.457275 0.10083 0.457275 0.108154 0.421875 0.123047 0.473877 0.557617 0.947266 0.60498 0.968994 0.507324 0.971436 0.60498 0.968994 0.557617 0.947266 0.648926 0.929199 0.648926 0.929199 0.557617 0.947266 0.586914 0.912354 0.969238 0.484863 0.896729 0.502197 0.970459 0.438232 0.970459 0.438232 0.896729 0.502197 0.907959 0.481934 0.970459 0.438232 0.907959 0.481934 0.95166 0.42334 0.998779 0.18335 0.956787 0.173096 0.961426 0.147705 0.956787 0.173096 0.998779 0.18335 0.993896 0.197998 0.956787 0.173096 0.993896 0.197998 0.950195 0.192627 0.950195 0.192627 0.993896 0.197998 0.999512 0.227295 0.950195 0.192627 0.999512 0.227295 0.988037 0.257812 0.950195 0.192627 0.988037 0.257812 0.946289 0.212891 0.946289 0.212891 0.988037 0.257812 0.937744 0.239502 0.950195 0.192627 0.946289 0.212891 0.926025 0.199951 0.946289 0.212891 0.937744 0.239502 0.914307 0.210693 0.946289 0.212891 0.914307 0.210693 0.926025 0.199951 0.130371 0.097168 0.198242 0.082275 0.148926 0.128662 0.198242 0.082275 0.130371 0.097168 0.226318 0.04834 0.226318 0.04834 0.130371 0.097168 0.176514 0.046631 0.148926 0.128662 0.198242 0.082275 0.23584 0.074219 0.23584 0.074219 0.198242 0.082275 0.226318 0.04834 0.23584 0.074219 0.226318 0.04834 0.300049 0.036133 0.148926 0.128662 0.23584 0.074219 0.186035 0.131836 0.23584 0.074219 0.300049 0.036133 0.305908 0.052246 0.23584 0.074219 0.305908 0.052246 0.266113 0.084229 0.23584 0.074219 0.266113 0.084229 0.186035 0.131836 0.266113 0.084229 0.305908 0.052246 0.368164 0.087891 0.186035 0.131836 0.266113 0.084229 0.285645 0.116699 0.285645 0.116699 0.266113 0.084229 0.368164 0.087891 0.186035 0.131836 0.285645 0.116699 0.217773 0.153564 0.285645 0.116699 0.368164 0.087891 0.349609 0.115967 0.285645 0.116699 0.349609 0.115967 0.217773 0.153564 0.217773 0.153564 0.349609 0.115967 0.363525 0.13916 0.217773 0.153564 0.363525 0.13916 0.253418 0.199463 0.253418 0.199463 0.363525 0.13916 0.333496 0.193115 0.336426 0.945557 0.253662 0.967529 0.335693 0.922607 0.335693 0.922607 0.253662 0.967529 0.272949 0.929199 0.336426 0.945557 0.335693 0.922607 0.378906 0.918457 0.336426 0.945557 0.378906 0.918457 0.397705 0.956055 0.336426 0.945557 0.397705 0.956055 0.345947 0.962891 0.345947 0.962891 0.397705 0.956055 0.438721 0.960938 0.378906 0.918457 0.335693 0.922607 0.358643 0.889404 0.358643 0.889404 0.335693 0.922607 0.272949 0.929199 0.358643 0.889404 0.272949 0.929199 0.344971 0.880371 0.358643 0.889404 0.344971 0.880371 0.376465 0.851318 0.344971 0.880371 0.272949 0.929199 0.256836 0.901611 0.376465 0.851318 0.344971 0.880371 0.339111 0.855469 0.339111 0.855469 0.344971 0.880371 0.256836 0.901611 0.376465 0.851318 0.339111 0.855469 0.384521 0.817383 0.384521 0.817383 0.339111 0.855469 0.37207 0.798828 0.37207 0.798828 0.339111 0.855469 0.324219 0.849854 0.324219 0.849854 0.339111 0.855469 0.256836 0.901611 0.37207 0.798828 0.324219 0.849854 0.279297 0.848633 0.279297 0.848633 0.324219 0.849854 0.256836 0.901611 0.279297 0.848633 0.256836 0.901611 0.225098 0.893066 0.279297 0.848633 0.225098 0.893066 0.259277 0.839844 0.019775 0.437988 0.056152 0.390137 0.033691 0.447021 0.056152 0.390137 0.019775 0.437988 0.012695 0.415283 0.056152 0.390137 0.012695 0.415283 0.049561 0.36499 0.049561 0.36499 0.012695 0.415283 0.008301 0.395752 0.033691 0.447021 0.056152 0.390137 0.08667 0.386475 0.033691 0.447021 0.08667 0.386475 0.084473 0.42749 0.033691 0.447021 0.084473 0.42749 0.032715 0.479004 0.032715 0.479004 0.084473 0.42749 0.092529 0.449707 0.032715 0.479004 0.092529 0.449707 0.040283 0.488281 0.040283 0.488281 0.092529 0.449707 0.085693 0.468994 0.43457 0.012939 0.430664 0.0625 0.380371 0.129639 0.43457 0.012939 0.380371 0.129639 0.378174 0.080566 0.43457 0.012939 0.378174 0.080566 0.412598 0.003418 0.412598 0.003418 0.378174 0.080566 0.354248 0.055664 0.412598 0.003418 0.354248 0.055664 0.377197 0.000244 0.377197 0.000244 0.354248 0.055664 0.350586 0.007324 0.350586 0.007324 0.354248 0.055664 0.32251 0.04834 0.350586 0.007324 0.32251 0.04834 0.311279 0.009277 0.998047 0.920654 0.943359 0.903076 0.993896 0.835938 0.857666 0.040283 0.917969 0.007568 0.95752 0.062012 0.857666 0.040283 0.95752 0.062012 0.892334 0.080566 0.95752 0.062012 0.917969 0.007568 0.969727 0.039551 0.969727 0.039551 0.917969 0.007568 0.972168 0.000488 0.892334 0.080566 0.95752 0.062012 0.963867 0.086426 0.892334 0.080566 0.963867 0.086426 0.971924 0.111084 0.861328 0.391846 0.949707 0.340332 0.929688 0.388428 0.949707 0.340332 0.861328 0.391846 0.876953 0.347656 0.861328 0.391846 0.929688 0.388428 0.85083 0.433105 0.85083 0.433105 0.929688 0.388428 0.881348 0.502197 0.881348 0.502197 0.929688 0.388428 0.922607 0.433594 0.958496 0.967529 0.945557 0.916016 0.967773 0.937012 0.967773 0.937012 0.945557 0.916016 0.990967 0.930176 0.967773 0.937012 0.990967 0.930176 0.958496 0.967529 0.671631 0.95874 0.72168 0.837891 0.740723 0.882568 0.72168 0.837891 0.671631 0.95874 0.673584 0.844238 0.673584 0.844238 0.671631 0.95874 0.664551 0.908203 0.673584 0.844238 0.664551 0.908203 0.598389 0.904297 0.673584 0.844238 0.598389 0.904297 0.5896 0.868164 0.348145 0.647461 0.375732 0.70874 0.336914 0.727783 0.348145 0.647461 0.336914 0.727783 0.319092 0.664795 0.348145 0.647461 0.319092 0.664795 0.296143 0.558105 0.296143 0.558105 0.319092 0.664795 0.272217 0.641602 0.348145 0.647461 0.296143 0.558105 0.320068 0.564941 0.348145 0.647461 0.320068 0.564941 0.39209 0.608887 0.348145 0.647461 0.39209 0.608887 0.375732 0.70874 0.375732 0.70874 0.39209 0.608887 0.416992 0.591553 0.416992 0.591553 0.39209 0.608887 0.396729 0.55957 0.375732 0.70874 0.416992 0.591553 0.407715 0.720947 0.407715 0.720947 0.416992 0.591553 0.439697 0.703613 0.439697 0.703613 0.416992 0.591553 0.447998 0.581299 0.439697 0.703613 0.447998 0.581299 0.471436 0.689209 0.471436 0.689209 0.447998 0.581299 0.480713 0.577637 0.471436 0.689209 0.480713 0.577637 0.504395 0.646484 0.504395 0.646484 0.480713 0.577637 0.549072 0.547607 0.471436 0.689209 0.504395 0.646484 0.51709 0.728027 0.504395 0.646484 0.549072 0.547607 0.543457 0.664062 0.504395 0.646484 0.543457 0.664062 0.51709 0.728027 0.072021 0.199463 0.031738 0.199951 0.061768 0.165527 0.061768 0.165527 0.031738 0.199951 0.025635 0.162354 0.031738 0.199951 0.072021 0.199463 0.029541 0.219971 0.029541 0.219971 0.072021 0.199463 0.094971 0.194336 0.029541 0.219971 0.094971 0.194336 0.137695 0.216064 0.572021 0.74292 0.640625 0.840332 0.606934 0.838867 0.640625 0.840332 0.572021 0.74292 0.58667 0.737305 0.640625 0.840332 0.58667 0.737305 0.629395 0.756592 0.640625 0.840332 0.629395 0.756592 0.69043 0.822266 0.69043 0.822266 0.629395 0.756592 0.654541 0.755615 0.69043 0.822266 0.654541 0.755615 0.688965 0.742676 0.69043 0.822266 0.688965 0.742676 0.76709 0.836914 0.280762 0.452637 0.212891 0.470947 0.255859 0.421143 0.212891 0.470947 0.280762 0.452637 0.268066 0.473877 0.268066 0.473877 0.280762 0.452637 0.35083 0.517822 0.35083 0.517822 0.280762 0.452637 0.31958 0.438477 0.31958 0.438477 0.280762 0.452637 0.255859 0.421143 0.31958 0.438477 0.255859 0.421143 0.270264 0.405029 0.31958 0.438477 0.270264 0.405029 0.397705 0.416748 0.397705 0.416748 0.270264 0.405029 0.329346 0.351074 0.329346 0.351074 0.270264 0.405029 0.212158 0.329346 0.329346 0.351074 0.212158 0.329346 0.331787 0.329102 0.331787 0.329102 0.212158 0.329346 0.23291 0.30127 0.331787 0.329102 0.23291 0.30127 0.30249 0.292725 0.331787 0.329102 0.30249 0.292725 0.364502 0.277832 0.30249 0.292725 0.23291 0.30127 0.262939 0.255615 0.364502 0.277832 0.30249 0.292725 0.314209 0.263672 0.314209 0.263672 0.30249 0.292725 0.262939 0.255615 0.314209 0.263672 0.262939 0.255615 0.288086 0.226807 0.314209 0.263672 0.288086 0.226807 0.317139 0.203613 0.836426 0.576416 0.905029 0.533447 0.815674 0.635498 0.905029 0.533447 0.836426 0.576416 0.888184 0.510498 0.815674 0.635498 0.905029 0.533447 0.842773 0.635498 0.842773 0.635498 0.905029 0.533447 0.902832 0.579346 0.842773 0.635498 0.902832 0.579346 0.869873 0.641113 0.902832 0.579346 0.905029 0.533447 0.950684 0.542236 0.902832 0.579346 0.950684 0.542236 0.869873 0.641113 0.869873 0.641113 0.950684 0.542236 0.929932 0.599609 0.929932 0.599609 0.950684 0.542236 0.94751 0.611084 0.929932 0.599609 0.94751 0.611084 0.923584 0.718262 0.079102 0.185303 0.062988 0.111084 0.131348 0.152344 0.131348 0.152344 0.062988 0.111084 0.088867 0.096924 0.131348 0.152344 0.088867 0.096924 0.117188 0.08667 0.117188 0.08667 0.088867 0.096924 0.075928 0.070801 0.117188 0.08667 0.075928 0.070801 0.101807 0.051025 0.117188 0.08667 0.101807 0.051025 0.159912 0.047363 0.850342 0.763184 0.871826 0.752441 0.887207 0.806641 0.887207 0.806641 0.871826 0.752441 0.907959 0.78833 0.907959 0.78833 0.871826 0.752441 0.912842 0.736572 0.907959 0.78833 0.912842 0.736572 0.936279 0.725342 0.850342 0.763184 0.887207 0.806641 0.84668 0.833252 0.84668 0.833252 0.887207 0.806641 0.937988 0.889404 0.84668 0.833252 0.937988 0.889404 0.907715 0.9021 0.84668 0.833252 0.907715 0.9021 0.847656 0.856445 0.84668 0.833252 0.847656 0.856445 0.761963 0.857666 0.847656 0.856445 0.907715 0.9021 0.866211 0.894287 0.228027 0.008789 0.303711 0.022217 0.166504 0.008301 0.166504 0.008301 0.303711 0.022217 0.178711 0.037598 0.013916 0.87793 0.08374 0.843018 0.105469 0.864746 0.013916 0.87793 0.105469 0.864746 0.076904 0.88501 0.08374 0.843018 0.013916 0.87793 0.026611 0.859375 0.013916 0.87793 0.076904 0.88501 0.018555 0.892578 0.08374 0.843018 0.026611 0.859375 0.075439 0.825439 0.075439 0.825439 0.026611 0.859375 0.02832 0.843262 0.075439 0.825439 0.02832 0.843262 0.026855 0.831787 0.018555 0.892578 0.076904 0.88501 0.061035 0.908203 0.018555 0.892578 0.061035 0.908203 0.015625 0.910889 0.015625 0.910889 0.061035 0.908203 0.061768 0.926758 0.015625 0.910889 0.061768 0.926758 0.005127 0.936279 0.005127 0.936279 0.061768 0.926758 0.013184 0.951172 0.013184 0.951172 0.061768 0.926758 0.14917 0.963623 0.013184 0.951172 0.14917 0.963623 0.038574 0.965332 0.480469 0.474854 0.411621 0.516602 0.408447 0.491943 0.480469 0.474854 0.408447 0.491943 0.409424 0.456543 0.411621 0.516602 0.480469 0.474854 0.490234 0.519043 0.411621 0.516602 0.490234 0.519043 0.48291 0.563965 0.411621 0.516602 0.48291 0.563965 0.421143 0.574463 0.480469 0.474854 0.409424 0.456543 0.528809 0.40918 0.528809 0.40918 0.409424 0.456543 0.413574 0.401123 0.528809 0.40918 0.413574 0.401123 0.499268 0.344238 0.499268 0.344238 0.413574 0.401123 0.382568 0.375244 0.499268 0.344238 0.382568 0.375244 0.491699 0.306152 0.499268 0.344238 0.491699 0.306152 0.572754 0.284668 0.491699 0.306152 0.382568 0.375244 0.361084 0.333496 0.491699 0.306152 0.361084 0.333496 0.436279 0.301025 0.491699 0.306152 0.436279 0.301025 0.491699 0.262207 0.436279 0.301025 0.361084 0.333496 0.375977 0.275879 0.491699 0.262207 0.436279 0.301025 0.460205 0.2229 0.460205 0.2229 0.436279 0.301025 0.375977 0.275879 0.460205 0.2229 0.375977 0.275879 0.358887 0.242676 0.460205 0.2229 0.358887 0.242676 0.40918 0.203613 0.100098 0.789307 0.080566 0.799072 0.034912 0.746338 0.100098 0.789307 0.034912 0.746338 0.104248 0.769287 0.034912 0.746338 0.080566 0.799072 0.010254 0.739258 0.010254 0.739258 0.080566 0.799072 0.072266 0.816895 0.010254 0.739258 0.072266 0.816895 0.002197 0.759277 0.002197 0.759277 0.072266 0.816895 0.012695 0.807617 0.935791 0.849609 0.920654 0.788818 0.957764 0.855225 0.920654 0.788818 0.935791 0.849609 0.909424 0.820312 0.957764 0.855225 0.920654 0.788818 0.946533 0.750977 0.957764 0.855225 0.946533 0.750977 0.972168 0.807373 0.103271 0.313232 0.095215 0.309082 0.10791 0.280029 0.103271 0.313232 0.10791 0.280029 0.11499 0.29834 0.11499 0.29834 0.10791 0.280029 0.121094 0.242676 0.10791 0.280029 0.095215 0.309082 0.067139 0.261963 0.067139 0.261963 0.095215 0.309082 0.088623 0.333496 0.067139 0.261963 0.088623 0.333496 0.070068 0.321777 0.070068 0.321777 0.088623 0.333496 0.086182 0.37793 0.067139 0.261963 0.070068 0.321777 0.0354 0.25 0.070068 0.321777 0.086182 0.37793 0.049072 0.323242 0.070068 0.321777 0.049072 0.323242 0.0354 0.25 0.049072 0.323242 0.086182 0.37793 0.036133 0.335693 0.049072 0.323242 0.036133 0.335693 0.0354 0.25 0.224854 0.935303 0.155518 0.935059 0.215332 0.904541 0.215332 0.904541 0.155518 0.935059 0.207764 0.878174 0.207764 0.878174 0.155518 0.935059 0.123291 0.904541 0.207764 0.878174 0.123291 0.904541 0.145752 0.848145 0.207764 0.878174 0.145752 0.848145 0.221436 0.863281 0.145752 0.848145 0.123291 0.904541 0.120361 0.877441 0.145752 0.848145 0.120361 0.877441 0.132324 0.799805 0.145752 0.848145 0.132324 0.799805 0.156006 0.831543 0.132324 0.799805 0.120361 0.877441 0.102783 0.820557 0.12915 0.733643 0.170654 0.71875 0.192871 0.737793 0.192871 0.737793 0.170654 0.71875 0.220215 0.693604 0.12915 0.733643 0.192871 0.737793 0.181396 0.774658 0.192871 0.737793 0.220215 0.693604 0.262695 0.697266 0.262695 0.697266 0.220215 0.693604 0.270264 0.65332 0.192871 0.737793 0.262695 0.697266 0.268066 0.738525 0.181396 0.774658 0.192871 0.737793 0.227051 0.76123 0.227051 0.76123 0.192871 0.737793 0.268066 0.738525 0.181396 0.774658 0.227051 0.76123 0.234375 0.775879 0.234375 0.775879 0.227051 0.76123 0.268066 0.738525 0.181396 0.774658 0.234375 0.775879 0.16748 0.798096 0.234375 0.775879 0.268066 0.738525 0.372314 0.787109 0.16748 0.798096 0.234375 0.775879 0.164062 0.841553 0.234375 0.775879 0.372314 0.787109 0.243164 0.803223 0.234375 0.775879 0.243164 0.803223 0.164062 0.841553 0.243164 0.803223 0.372314 0.787109 0.267334 0.820801 0.164062 0.841553 0.243164 0.803223 0.211182 0.842285 0.211182 0.842285 0.243164 0.803223 0.267334 0.820801</float_array>
          <technique_common>
            <accessor source="#AnimalTendons-mesh-map-0-array" count="1494" stride="2">
              <param name="S" type="float"/>
              <param name="T" type="float"/>
            </accessor>
          </technique_common>
        </source>
        <vertices id="AnimalTendons-mesh-vertices">
          <input semantic="POSITION" source="#AnimalTendons-mesh-positions"/>
        </vertices>
        <polylist material="Material_-1-material" count="6">
          <input semantic="VERTEX" source="#AnimalTendons-mesh-vertices" offset="0"/>
          <input semantic="NORMAL" source="#AnimalTendons-mesh-normals" offset="1"/>
          <input semantic="TEXCOORD" source="#AnimalTendons-mesh-map-0" offset="2" set="0"/>
          <vcount>3 3 3 3 3 3 3 3 3 3 3 3 3 3 3 3 3 3 3 3 3 3 3 3 3 3 3 3 3 3 3 3 3 3 3 3 3 3 3 3 3 3 3 3 3 3 3 3 3 3 3 3 3 3 3 3 3 3 3 3 3 3 3 3 3 3 3 3 3 3 3 3 3 3 3 3 3 3 3 3 3 3 3 3 3 3 3 3 3 3 3 3 3 3 3 3 3 3 3 3 3 3 3 3 3 3 3 3 3 3 3 3 3 3 3 3 3 3 3 3 3 3 3 3 3 3 3 3 3 3 3 3 3 3 3 3 3 3 3 3 3 3 3 3 3 3 3 3 3 3 3 3 3 3 3 3 3 3 3 3 3 3 3 3 3 3 3 3 3 3 3 3 3 3 3 3 3 3 3 3 3 3 3 3 3 3 3 3 3 3 3 3 3 3 3 3 3 3 3 3 3 3 3 3 3 3 3 3 3 3 3 3 3 3 3 3 3 3 3 3 3 3 3 3 3 3 3 3 3 3 3 3 3 3 3 3 3 3 3 3 3 3 3 3 3 3 3 3 3 3 3 3 3 3 3 3 3 3 3 3 3 3 3 3 3 3 3 3 3 3 3 3 3 3 3 3 3 3 3 3 3 3 3 3 3 3 3 3 3 3 3 3 3 3 3 3 3 3 3 3 3 3 3 3 3 3 3 3 3 3 3 3 3 3 3 3 3 3 3 3 3 3 3 3 3 3 3 3 3 3 3 3 3 3 3 3 3 3 3 3 3 3 3 3 3 3 3 3 3 3 3 3 3 3 3 3 3 3 3 3 3 3 3 3 3 3 3 3 3 3 3 3 3 3 3 3 3 3 3 3 3 3 3 3 3 3 3 3 3 3 3 3 3 3 3 3 3 3 3 3 3 3 3 3 3 3 3 3 3 3 3 3 3 3 3 3 3 3 3 3 3 3 3 3 3 3 3 3 3 3 3 3 3 3 3 3 3 3 3 3 3 3 3 3 3 3 3 3 3 3 3 3 3 3 3 3 3 3 3 3 3 3 3 3 3 3 3 3 3 3 3 3 3 3 3 3 3 3 3 3 3 3 3 3 3 3 3 3 3 3 3 3 3 3 3 3 3 3</vcount>
          <p>0 0 0 1 0 1 2 0 2 1 1 3 0 1 4 3 1 5 0 2 6 2 2 7 4 2 8 3 3 9 0 3 10 5 3 11 5 4 12 0 4 13 4 4 14 3 5 15 5 5 16 6 5 17 4 6 18 2 6 19 7 6 20 6 7 21 5 7 22 8 7 23 8 8 24 5 8 25 4 8 26 4 9 27 7 9 28 9 9 29 4 10 30 9 10 31 8 10 32 9 11 33 7 11 34 10 11 35 8 12 36 9 12 37 11 12 38 6 13 39 8 13 40 12 13 41 12 14 42 8 14 43 11 14 44 6 15 45 12 15 46 13 15 47 11 16 48 9 16 49 14 16 50 11 17 51 14 17 52 12 17 53 14 18 54 9 18 55 10 18 56 12 19 57 14 19 58 15 19 59 15 20 60 14 20 61 16 20 62 16 21 63 14 21 64 10 21 65 16 22 66 10 22 67 17 22 68 18 23 69 19 23 70 2 23 71 18 24 72 2 24 73 1 24 74 19 25 75 20 25 76 2 25 77 2 26 78 20 26 79 7 26 80 20 27 81 19 27 82 21 27 83 21 28 84 19 28 85 22 28 86 7 29 87 20 29 88 23 29 89 7 30 90 23 30 91 24 30 92 23 31 93 20 31 94 25 31 95 7 32 96 24 32 97 10 32 98 25 33 99 20 33 100 21 33 101 10 34 102 24 34 103 26 34 104 10 35 105 26 35 106 17 35 107 21 36 108 22 36 109 27 36 110 27 37 111 22 37 112 28 37 113 27 38 114 28 38 115 29 38 116 27 39 117 29 39 118 30 39 119 31 40 120 30 40 121 25 40 122 30 41 123 31 41 124 27 41 125 31 42 126 25 42 127 21 42 128 27 43 129 31 43 130 32 43 131 32 44 132 31 44 133 21 44 134 32 45 135 21 45 136 27 45 137 3 46 138 33 46 139 1 46 140 1 47 141 33 47 142 18 47 143 18 48 144 33 48 145 34 48 146 34 49 147 33 49 148 35 49 149 33 50 150 3 50 151 36 50 152 33 51 153 36 51 154 37 51 155 36 52 156 3 52 157 6 52 158 25 53 159 38 53 160 39 53 161 25 54 162 39 54 163 23 54 164 23 55 165 39 55 166 24 55 167 24 56 168 39 56 169 26 56 170 39 57 171 38 57 172 40 57 173 38 58 174 25 58 175 41 58 176 38 59 177 41 59 178 40 59 179 41 60 180 25 60 181 42 60 182 42 61 183 25 61 184 30 61 185 42 62 186 30 62 187 29 62 188 40 63 189 41 63 190 43 63 191 40 64 192 43 64 193 39 64 194 43 65 195 41 65 196 44 65 197 39 66 198 43 66 199 45 66 200 39 67 201 45 67 202 26 67 203 45 68 204 43 68 205 46 68 206 26 69 207 45 69 208 47 69 209 47 70 210 45 70 211 46 70 212 26 71 213 47 71 214 17 71 215 17 72 216 47 72 217 48 72 218 46 73 219 43 73 220 49 73 221 46 74 222 49 74 223 47 74 224 49 75 225 43 75 226 50 75 227 48 76 228 47 76 229 51 76 230 51 77 231 47 77 232 49 77 233 51 78 234 49 78 235 50 78 236 48 79 237 51 79 238 52 79 239 51 80 240 50 80 241 53 80 242 54 81 243 55 81 244 6 81 245 55 82 246 54 82 247 56 82 248 6 83 249 55 83 250 37 83 251 6 84 252 37 84 253 36 84 254 55 85 255 56 85 256 57 85 257 57 86 258 56 86 259 58 86 260 57 87 261 58 87 262 59 87 263 57 88 264 59 88 265 60 88 266 35 89 267 33 89 268 37 89 269 35 90 270 37 90 271 61 90 272 62 91 273 37 91 274 55 91 275 37 92 276 62 92 277 61 92 278 62 93 279 55 93 280 57 93 281 61 94 282 62 94 283 63 94 284 62 95 285 57 95 286 64 95 287 64 96 288 57 96 289 60 96 290 62 97 291 64 97 292 65 97 293 64 98 294 60 98 295 66 98 296 66 99 297 60 99 298 67 99 299 6 100 300 13 100 301 54 100 302 54 101 303 13 101 304 56 101 305 12 102 306 15 102 307 13 102 308 13 103 309 15 103 310 16 103 311 56 104 312 13 104 313 68 104 314 56 105 315 68 105 316 58 105 317 58 106 318 68 106 319 69 106 320 58 107 321 69 107 322 59 107 323 59 108 324 69 108 325 60 108 326 69 109 327 68 109 328 70 109 329 70 110 330 68 110 331 13 110 332 60 111 333 69 111 334 71 111 335 71 112 336 69 112 337 70 112 338 70 113 339 13 113 340 72 113 341 70 114 342 72 114 343 71 114 344 72 115 345 13 115 346 16 115 347 60 116 348 71 116 349 73 116 350 73 117 351 71 117 352 72 117 353 60 118 354 73 118 355 67 118 356 72 119 357 16 119 358 74 119 359 72 120 360 74 120 361 73 120 362 73 121 363 74 121 364 67 121 365 74 122 366 16 122 367 17 122 368 67 123 369 74 123 370 48 123 371 17 124 372 48 124 373 74 124 374 67 125 375 52 125 376 75 125 377 52 126 378 67 126 379 48 126 380 76 127 381 41 127 382 77 127 383 77 128 384 41 128 385 78 128 386 77 129 387 78 129 388 76 129 389 78 130 390 41 130 391 42 130 392 78 131 393 42 131 394 29 131 395 78 132 396 29 132 397 79 132 398 79 133 399 29 133 400 80 133 401 78 134 402 79 134 403 81 134 404 78 135 405 81 135 406 82 135 407 78 136 408 82 136 409 76 136 410 76 137 411 82 137 412 83 137 413 84 138 414 41 138 415 76 138 416 41 139 417 84 139 418 44 139 419 76 140 420 83 140 421 85 140 422 76 141 423 85 141 424 84 141 425 84 142 426 85 142 427 44 142 428 85 143 429 83 143 430 86 143 431 44 144 432 85 144 433 87 144 434 87 145 435 85 145 436 86 145 437 44 146 438 87 146 439 43 146 440 43 147 441 87 147 442 50 147 443 87 148 444 86 148 445 88 148 446 87 149 447 88 149 448 50 149 449 50 150 450 88 150 451 89 150 452 50 151 453 89 151 454 53 151 455 53 152 456 89 152 457 88 152 458 53 153 459 88 153 460 90 153 461 53 154 462 90 154 463 91 154 464 53 155 465 91 155 466 51 155 467 51 156 468 91 156 469 92 156 470 51 157 471 92 157 472 52 157 473 52 158 474 92 158 475 80 158 476 80 159 477 29 159 478 28 159 479 75 160 480 52 160 481 80 160 482 75 161 483 80 161 484 28 161 485 75 162 486 28 162 487 93 162 488 83 163 489 94 163 490 86 163 491 94 164 492 83 164 493 95 164 494 95 165 495 83 165 496 82 165 497 95 166 498 82 166 499 96 166 500 96 167 501 82 167 502 81 167 503 92 168 504 97 168 505 80 168 506 80 169 507 97 169 508 98 169 509 97 170 510 92 170 511 99 170 512 80 171 513 98 171 514 79 171 515 79 172 516 98 172 517 100 172 518 79 173 519 100 173 520 81 173 521 99 174 522 92 174 523 91 174 524 99 175 525 91 175 526 101 175 527 101 176 528 91 176 529 102 176 530 101 177 531 102 177 532 103 177 533 102 178 534 91 178 535 90 178 536 103 179 537 102 179 538 94 179 539 102 180 540 90 180 541 88 180 542 94 181 543 102 181 544 86 181 545 86 182 546 102 182 547 88 182 548 34 183 549 104 183 550 18 183 551 104 184 552 34 184 553 35 184 554 18 185 555 104 185 556 105 185 557 18 186 558 105 186 559 106 186 560 18 187 561 106 187 562 19 187 563 19 188 564 106 188 565 22 188 566 22 189 567 106 189 568 105 189 569 105 190 570 104 190 571 107 190 572 107 191 573 104 191 574 108 191 575 107 192 576 108 192 577 109 192 578 107 193 579 109 193 580 105 193 581 109 194 582 108 194 583 110 194 584 109 195 585 110 195 586 105 195 587 105 196 588 110 196 589 22 196 590 22 197 591 110 197 592 93 197 593 22 198 594 93 198 595 28 198 596 93 199 597 110 199 598 111 199 599 111 200 600 110 200 601 112 200 602 93 201 603 111 201 604 75 201 605 75 202 606 111 202 607 66 202 608 35 203 609 108 203 610 104 203 611 110 204 612 108 204 613 112 204 614 108 205 615 35 205 616 113 205 617 108 206 618 113 206 619 112 206 620 113 207 621 35 207 622 114 207 623 114 208 624 35 208 625 63 208 626 63 209 627 35 209 628 61 209 629 114 210 630 63 210 631 65 210 632 114 211 633 65 211 634 113 211 635 65 212 636 63 212 637 62 212 638 112 213 639 113 213 640 115 213 641 115 214 642 113 214 643 65 214 644 112 215 645 115 215 646 111 215 647 111 216 648 115 216 649 66 216 650 115 217 651 65 217 652 116 217 653 115 218 654 116 218 655 66 218 656 116 219 657 65 219 658 64 219 659 116 220 660 64 220 661 66 220 662 67 221 663 75 221 664 66 221 665 117 222 666 118 222 667 119 222 668 117 223 669 119 223 670 120 223 671 119 224 672 118 224 673 121 224 674 121 225 675 118 225 676 122 225 677 121 226 678 122 226 679 123 226 680 119 227 681 121 227 682 124 227 683 119 228 684 124 228 685 120 228 686 120 229 687 124 229 688 125 229 689 117 230 690 126 230 691 118 230 692 126 231 693 117 231 694 127 231 695 126 232 696 127 232 697 128 232 698 126 233 699 128 233 700 122 233 701 122 234 702 118 234 703 126 234 704 117 235 705 120 235 706 129 235 707 129 236 708 120 236 709 130 236 710 129 237 711 130 237 712 131 237 713 130 238 714 120 238 715 125 238 716 131 239 717 130 239 718 132 239 719 130 240 720 125 240 721 123 240 722 132 241 723 130 241 724 133 241 725 133 242 726 130 242 727 123 242 728 132 243 729 133 243 730 122 243 731 122 244 732 133 244 733 123 244 734 128 245 735 132 245 736 122 245 737 132 246 738 128 246 739 134 246 740 134 247 741 128 247 742 127 247 743 127 248 744 117 248 745 135 248 746 135 249 747 117 249 748 129 249 749 135 250 750 129 250 751 131 250 752 136 251 753 121 251 754 123 251 755 121 252 756 136 252 757 137 252 758 121 253 759 137 253 760 124 253 761 124 254 762 137 254 763 138 254 764 124 255 765 138 255 766 139 255 767 124 256 768 139 256 769 140 256 770 140 257 771 139 257 772 136 257 773 124 258 774 140 258 775 125 258 776 140 259 777 136 259 778 123 259 779 140 260 780 123 260 781 125 260 782 136 261 783 141 261 784 137 261 785 141 262 786 136 262 787 142 262 788 142 263 789 136 263 790 139 263 791 137 264 792 141 264 793 143 264 794 143 265 795 141 265 796 142 265 797 143 266 798 142 266 799 144 266 800 137 267 801 143 267 802 138 267 803 143 268 804 144 268 805 145 268 806 143 269 807 145 269 808 146 269 809 143 270 810 146 270 811 138 270 812 146 271 813 145 271 814 147 271 815 138 272 816 146 272 817 148 272 818 148 273 819 146 273 820 147 273 821 138 274 822 148 274 823 139 274 824 148 275 825 147 275 826 149 275 827 148 276 828 149 276 829 139 276 830 139 277 831 149 277 832 150 277 833 139 278 834 150 278 835 142 278 836 142 279 837 150 279 838 144 279 839 134 280 840 127 280 841 151 280 842 151 281 843 127 281 844 135 281 845 134 282 846 151 282 847 152 282 848 134 283 849 152 283 850 153 283 851 134 284 852 153 284 853 154 284 854 154 285 855 153 285 856 155 285 857 152 286 858 151 286 859 156 286 860 156 287 861 151 287 862 135 287 863 156 288 864 135 288 865 157 288 866 156 289 867 157 289 868 158 289 869 157 290 870 135 290 871 131 290 872 158 291 873 157 291 874 159 291 875 159 292 876 157 292 877 131 292 878 158 293 879 159 293 880 160 293 881 160 294 882 159 294 883 161 294 884 161 295 885 159 295 886 162 295 887 162 296 888 159 296 889 131 296 890 161 297 891 162 297 892 154 297 893 154 298 894 162 298 895 131 298 896 154 299 897 131 299 898 132 299 899 154 300 900 132 300 901 134 300 902 149 301 903 163 301 904 150 301 905 163 302 906 149 302 907 147 302 908 163 303 909 147 303 910 164 303 911 164 304 912 147 304 913 165 304 914 150 305 915 163 305 916 166 305 917 150 306 918 166 306 919 167 306 920 150 307 921 167 307 922 144 307 923 144 308 924 167 308 925 165 308 926 144 309 927 165 309 928 145 309 929 145 310 930 165 310 931 147 310 932 168 311 933 96 311 934 81 311 935 168 312 936 81 312 937 100 312 938 168 313 939 100 313 940 169 313 941 169 314 942 100 314 943 98 314 944 169 315 945 98 315 946 170 315 947 170 316 948 98 316 949 171 316 950 171 317 951 98 317 952 97 317 953 171 318 954 97 318 955 99 318 956 94 319 957 95 319 958 172 319 959 94 320 960 172 320 961 173 320 962 94 321 963 173 321 964 103 321 965 173 322 966 172 322 967 174 322 968 174 323 969 172 323 970 175 323 971 103 324 972 173 324 973 176 324 974 103 325 975 176 325 976 177 325 977 175 326 978 95 326 979 96 326 980 95 327 981 175 327 982 172 327 983 175 328 984 96 328 985 178 328 986 178 329 987 96 329 988 179 329 989 179 330 990 96 330 991 168 330 992 170 331 993 171 331 994 180 331 995 180 332 996 171 332 997 181 332 998 180 333 999 181 333 1000 170 333 1001 177 334 1002 101 334 1003 103 334 1004 101 335 1005 177 335 1006 99 335 1007 99 336 1008 177 336 1009 182 336 1010 99 337 1011 182 337 1012 183 337 1013 99 338 1014 183 338 1015 184 338 1016 185 339 1017 174 339 1018 175 339 1019 185 340 1020 175 340 1021 178 340 1022 185 341 1023 178 341 1024 186 341 1025 186 342 1026 178 342 1027 179 342 1028 185 343 1029 186 343 1030 187 343 1031 185 344 1032 187 344 1033 188 344 1034 185 345 1035 188 345 1036 174 345 1037 174 346 1038 188 346 1039 189 346 1040 189 347 1041 188 347 1042 190 347 1043 174 348 1044 189 348 1045 173 348 1046 173 349 1047 189 349 1048 176 349 1049 176 350 1050 189 350 1051 191 350 1052 176 351 1053 191 351 1054 177 351 1055 177 352 1056 191 352 1057 192 352 1058 177 353 1059 192 353 1060 193 353 1061 193 354 1062 192 354 1063 194 354 1064 177 355 1065 193 355 1066 182 355 1067 193 356 1068 194 356 1069 183 356 1070 193 357 1071 183 357 1072 182 357 1073 181 358 1074 195 358 1075 170 358 1076 170 359 1077 195 359 1078 169 359 1079 195 360 1080 181 360 1081 184 360 1082 184 361 1083 181 361 1084 171 361 1085 184 362 1086 171 362 1087 99 362 1088 168 363 1089 196 363 1090 179 363 1091 196 364 1092 168 364 1093 169 364 1094 196 365 1095 169 365 1096 195 365 1097 196 366 1098 195 366 1099 197 366 1100 197 367 1101 195 367 1102 184 367 1103 197 368 1104 184 368 1105 183 368 1106 197 369 1107 183 369 1108 198 369 1109 199 370 1110 188 370 1111 187 370 1112 188 371 1113 199 371 1114 190 371 1115 190 372 1116 199 372 1117 200 372 1118 200 373 1119 199 373 1120 201 373 1121 201 374 1122 199 374 1123 187 374 1124 201 375 1125 187 375 1126 186 375 1127 201 376 1128 186 376 1129 202 376 1130 202 377 1131 186 377 1132 203 377 1133 203 378 1134 186 378 1135 179 378 1136 203 379 1137 179 379 1138 204 379 1139 204 380 1140 179 380 1141 196 380 1142 204 381 1143 196 381 1144 205 381 1145 204 382 1146 205 382 1147 206 382 1148 205 383 1149 196 383 1150 197 383 1151 206 384 1152 205 384 1153 207 384 1154 207 385 1155 205 385 1156 197 385 1157 207 386 1158 197 386 1159 198 386 1160 207 387 1161 198 387 1162 208 387 1163 190 388 1164 209 388 1165 189 388 1166 209 389 1167 190 389 1168 210 389 1169 189 390 1170 209 390 1171 191 390 1172 191 391 1173 209 391 1174 211 391 1175 191 392 1176 211 392 1177 192 392 1178 211 393 1179 209 393 1180 212 393 1181 211 394 1182 212 394 1183 192 394 1184 192 395 1185 212 395 1186 194 395 1187 194 396 1188 212 396 1189 198 396 1190 194 397 1191 198 397 1192 183 397 1193 212 398 1194 213 398 1195 198 398 1196 198 399 1197 213 399 1198 214 399 1199 198 400 1200 214 400 1201 208 400 1202 208 401 1203 214 401 1204 215 401 1205 208 402 1206 215 402 1207 206 402 1208 208 403 1209 206 403 1210 207 403 1211 203 404 1212 204 404 1213 216 404 1214 216 405 1215 204 405 1216 217 405 1217 217 406 1218 204 406 1219 206 406 1220 217 407 1221 206 407 1222 218 407 1223 203 408 1224 216 408 1225 202 408 1226 202 409 1227 216 409 1228 219 409 1229 202 410 1230 219 410 1231 220 410 1232 202 411 1233 220 411 1234 200 411 1235 202 412 1236 200 412 1237 201 412 1238 200 413 1239 220 413 1240 221 413 1241 210 414 1242 190 414 1243 221 414 1244 221 415 1245 190 415 1246 200 415 1247 222 416 1248 152 416 1249 156 416 1250 222 417 1251 156 417 1252 158 417 1253 152 418 1254 222 418 1255 223 418 1256 222 419 1257 158 419 1258 224 419 1259 152 420 1260 223 420 1261 153 420 1262 153 421 1263 223 421 1264 225 421 1265 153 422 1266 225 422 1267 155 422 1268 224 423 1269 158 423 1270 160 423 1271 224 424 1272 160 424 1273 226 424 1274 226 425 1275 160 425 1276 161 425 1277 226 426 1278 161 426 1279 227 426 1280 227 427 1281 161 427 1282 228 427 1283 228 428 1284 161 428 1285 154 428 1286 228 429 1287 154 429 1288 155 429 1289 215 430 1290 155 430 1291 225 430 1292 215 431 1293 225 431 1294 223 431 1295 155 432 1296 215 432 1297 214 432 1298 155 433 1299 214 433 1300 213 433 1301 155 434 1302 213 434 1303 228 434 1304 215 435 1305 223 435 1306 206 435 1307 206 436 1308 223 436 1309 222 436 1310 206 437 1311 222 437 1312 218 437 1313 218 438 1314 222 438 1315 224 438 1316 218 439 1317 224 439 1318 229 439 1319 218 440 1320 229 440 1321 217 440 1322 229 441 1323 224 441 1324 226 441 1325 229 442 1326 226 442 1327 230 442 1328 229 443 1329 230 443 1330 231 443 1331 230 444 1332 226 444 1333 227 444 1334 231 445 1335 230 445 1336 232 445 1337 232 446 1338 230 446 1339 227 446 1340 232 447 1341 227 447 1342 228 447 1343 232 448 1344 228 448 1345 213 448 1346 233 449 1347 234 449 1348 164 449 1349 233 450 1350 164 450 1351 235 450 1352 164 451 1353 234 451 1354 163 451 1355 163 452 1356 234 452 1357 236 452 1358 163 453 1359 236 453 1360 166 453 1361 166 454 1362 236 454 1363 237 454 1364 167 455 1365 237 455 1366 165 455 1367 237 456 1368 167 456 1369 166 456 1370 165 457 1371 237 457 1372 235 457 1373 165 458 1374 235 458 1375 164 458 1376 234 459 1377 233 459 1378 238 459 1379 234 460 1380 238 460 1381 236 460 1382 236 461 1383 238 461 1384 239 461 1385 238 462 1386 233 462 1387 240 462 1388 240 463 1389 233 463 1390 235 463 1391 240 464 1392 235 464 1393 241 464 1394 241 465 1395 235 465 1396 237 465 1397 240 466 1398 241 466 1399 242 466 1400 241 467 1401 237 467 1402 243 467 1403 241 468 1404 243 468 1405 242 468 1406 243 469 1407 237 469 1408 236 469 1409 243 470 1410 236 470 1411 242 470 1412 213 471 1413 212 471 1414 232 471 1415 232 472 1416 212 472 1417 231 472 1418 231 473 1419 212 473 1420 209 473 1421 231 474 1422 209 474 1423 217 474 1424 231 475 1425 217 475 1426 229 475 1427 217 476 1428 209 476 1429 210 476 1430 217 477 1431 210 477 1432 244 477 1433 217 478 1434 244 478 1435 216 478 1436 244 479 1437 210 479 1438 221 479 1439 216 480 1440 244 480 1441 245 480 1442 245 481 1443 244 481 1444 239 481 1445 216 482 1446 245 482 1447 219 482 1448 245 483 1449 239 483 1450 240 483 1451 240 484 1452 239 484 1453 238 484 1454 245 485 1455 240 485 1456 242 485 1457 219 486 1458 245 486 1459 246 486 1460 246 487 1461 245 487 1462 242 487 1463 219 488 1464 246 488 1465 247 488 1466 247 489 1467 246 489 1468 242 489 1469 219 490 1470 247 490 1471 220 490 1472 247 491 1473 242 491 1474 236 491 1475 220 492 1476 247 492 1477 221 492 1478 247 493 1479 236 493 1480 248 493 1481 247 494 1482 248 494 1483 221 494 1484 248 495 1485 236 495 1486 239 495 1487 221 496 1488 248 496 1489 244 496 1490 244 497 1491 248 497 1492 239 497 1493</p>
        </polylist>
      </mesh>
    </geometry>
  </library_geometries>
  <library_visual_scenes>
    <visual_scene id="Scene" name="Scene">
      <node id="AnimalTendons" name="AnimalTendons" type="NODE">
        <scale sid="scale">1 1 1</scale>
        <translate sid="location">0 0 0</translate>
        <rotate sid="rotationX">1 0 0 0</rotate>
        <rotate sid="rotationY">0 1 0 0</rotate>
        <rotate sid="rotationZ">0 0 1 0</rotate>
        <instance_geometry url="#AnimalTendons-mesh" name="AnimalTendons">
          <bind_material>
            <technique_common>
            </technique_common>
          </bind_material>
        </instance_geometry>
      </node>
    </visual_scene>
  </library_visual_scenes>
  <scene>
    <instance_visual_scene url="#Scene"/>
  </scene>
</COLLADA>
