<?xml version="1.0" encoding="utf-8"?>
<COLLADA xmlns="http://www.collada.org/2005/11/COLLADASchema" version="1.4.1" xmlns:xsi="http://www.w3.org/2001/XMLSchema-instance">
  <asset>
    <contributor>
      <author>Blockbench user</author>
      <authoring_tool>Blockbench</authoring_tool>
    </contributor>
    <created>2025-12-12T12:26:05.396Z</created>
    <modified>2025-12-12T12:26:05.405Z</modified>
    <unit name="meter" meter="1.0"/>
    <up_axis>Y_UP</up_axis>
  </asset>
  <library_effects>
  </library_effects>
  <library_images>
  </library_images>
  <library_materials>
  </library_materials>
  <library_geometries>
    <geometry id="AntiInflammatories-mesh" name="AntiInflammatories">
      <mesh>
        <source id="AntiInflammatories-mesh-positions">
          <float_array id="AntiInflammatories-mesh-positions-array" count="756">-0.074974 -0.417694 -0.138901 -0.093987 -0.458557 -0.079071 -0.129318 -0.399292 -0.107758 -0.101166 -0.353058 -0.154633 -0.069229 -0.353394 -0.1707 -0.129318 -0.346039 -0.131866 -0.129913 0.00296 -0.131714 -0.153152 -0.344757 -0.103134 -0.16954 -0.349854 -0.071434 -0.160995 -0.398529 -0.046925 -0.032257 -0.399139 -0.164948 -0.035526 -0.345703 -0.180817 0.000614 -0.345917 -0.18428 -0.128311 -0.43222 -0.072113 -0.131088 -0.447693 -0.013287 -0.092163 -0.476685 -0.024805 -0.083069 -0.481171 0.028009 -0.012393 -0.5 -0.0238 -0.01882 -0.485229 0.076172 -0.063896 -0.482269 -0.056107 0.01849 -0.484131 -0.081627 -0.039555 -0.460175 -0.114098 0.027328 -0.450623 -0.128769 0.018227 -0.396484 -0.168762 0.063721 -0.403046 -0.152924 0.036457 -0.346008 -0.180893 0.070953 -0.348511 -0.170944 -0.167633 -0.398224 0.013978 -0.130402 -0.43689 0.059265 -0.071144 -0.468597 0.08075 -0.089119 -0.433777 0.114044 -0.149063 -0.391602 0.082718 -0.169266 -0.348969 0.070587 -0.118111 -0.398834 0.117653 -0.079666 -0.397552 0.147476 -0.152679 -0.347595 0.102318 -0.101921 -0.347809 0.152847 -0.129868 -0.344177 0.129898 -0.129852 0.00345 0.130219 -0.069847 0.003272 -0.170822 -0.101944 0.003335 -0.154282 -0.035362 0.004143 -0.180893 0.000994 0.004112 -0.184341 0.035896 0.003824 -0.181 0.074318 -0.113945 -0.169556 0.085434 0.003036 -0.165787 0.102768 -0.348816 -0.154282 0.089561 -0.111885 -0.165421 0.128311 -0.032803 -0.136902 0.167816 0.005387 -0.098045 0.122078 -0.113533 -0.142914 0.134964 -0.15802 -0.129364 0.142944 -0.350006 -0.118286 -0.179749 -0.345367 -0.036026 -0.179581 0.001004 -0.037041 -0.183105 -0.343323 0.014753 -0.179596 0.003143 0.034878 0.080963 -0.465668 -0.078873 0.089981 -0.431488 -0.117737 0.114143 -0.441925 -0.080223 0.124107 -0.454773 -0.027334 0.149658 -0.397797 -0.080666 0.169754 -0.395233 -0.017162 0.110283 -0.390594 -0.132538 0.17099 -0.345093 -0.070877 0.180771 -0.346039 -0.036354 0.184006 -0.344849 -0.001186 0.06094 -0.491974 -0.017483 0.013767 -0.499634 0.025608 0.039093 -0.487183 0.063705 0.10228 -0.470612 0.023144 0.072983 -0.463074 0.090172 0.110191 -0.437927 0.089996 0.139938 -0.434235 0.038776 0.158295 -0.397888 0.057056 0.135727 -0.392944 0.104271 0.165359 -0.342957 0.08448 0.180832 -0.34967 0.03455 0.160339 -0.158691 -0.095497 0.168015 -0.09343 -0.084076 0.163773 0.000535 -0.09491 0.179504 -0.074234 -0.045383 0.184296 0.004172 -0.009665 0.180862 0.001779 0.035034 0.170288 0.003725 0.071152 0.153824 0.003116 0.102127 0.131027 -0.345154 0.129929 0.131424 0.003027 0.129807 -0.038784 -0.446259 0.127304 -0.016798 -0.412079 0.159317 0.028259 -0.451965 0.12558 0.047047 -0.396088 0.162109 0.086067 -0.424072 0.125717 0.101845 -0.353516 0.152939 0.103439 0.003155 0.15274 -0.182983 0.00368 -0.000561 -0.162827 0.003016 0.086739 -0.069717 -0.349121 0.169418 -0.035057 -0.348267 0.179413 -0.049133 0.003361 0.176743 0.000542 -0.350037 0.182587 0.000455 0.003412 0.182877 0.036465 -0.34436 0.179581 0.070442 -0.347992 0.169708 0.036324 0.003466 0.179535 0.07016 0.003314 0.169769 -0.169556 0.002557 -0.07132 -0.153214 0.002863 -0.103065 -0.124313 0.007308 -0.149765 -0.166321 0.007153 -0.101265 -0.147064 0.027046 -0.119339 -0.104362 0.030127 -0.157196 -0.073181 0.00537 -0.174866 -0.10376 0.241379 -0.1577 -0.132996 0.24115 -0.133835 -0.141098 0.277466 -0.113724 -0.072449 0.241745 -0.174179 -0.031036 0.006189 -0.193436 -0.019497 0.020927 -0.189285 -0.022251 0.2435 -0.187881 0.037216 0.241562 -0.185226 0.033337 0.005023 -0.187241 0.073639 0.241943 -0.174026 0.096207 0.006874 -0.170593 0.068077 0.015722 -0.177338 0.104637 0.026875 -0.157455 0.116074 0.245956 -0.149704 -0.172775 0.036785 -0.073853 -0.184448 0.016665 -0.038033 -0.180832 0.2444 -0.053177 -0.188171 0.009788 -0.003296 -0.190506 0.004875 0.034599 -0.185013 0.016596 0.034241 -0.148056 0.007144 0.117798 -0.083107 0.004909 0.176178 -0.101776 0.002903 0.153 -0.012897 0.006369 0.194305 -0.10363 0.017427 0.156372 -0.071411 0.017879 0.173264 -0.088585 0.240997 0.165741 -0.036266 0.241867 0.183624 -0.036972 0.029129 0.183884 0.000299 0.030241 0.1875 0.021889 0.241043 0.186951 0.039192 0.016607 0.183945 0.093094 0.0046 0.169968 0.168625 0.006246 0.096611 0.072952 0.021338 0.173126 0.090553 0.242004 0.165619 0.125595 0.010414 0.142426 0.156982 0.044731 0.104042 0.133514 0.241425 0.132721 0.133469 0.01874 -0.133972 0.157471 0.241989 -0.104889 0.16748 0.027544 -0.089996 0.174057 0.241638 -0.073784 0.184875 0.241852 -0.037331 0.188522 0.030533 -0.019564 0.188339 0.242447 -0.001116 0.190048 0.005042 -0.038837 0.193527 0.009058 0.021555 0.184967 0.029249 0.036522 0.184845 0.241974 0.035923 0.169495 0.24556 0.08403 0.174438 0.016876 0.072067 -0.156433 0.241592 -0.105202 -0.166367 0.275299 -0.06942 -0.099251 0.27652 -0.151016 -0.053875 0.276398 -0.173401 -0.118401 0.341125 -0.144745 -0.153244 0.344391 -0.104919 -0.120705 0.419525 -0.100006 -0.046413 0.350494 -0.180664 -0.078911 0.405884 -0.145432 0.015432 0.274353 -0.180862 0.020248 0.348694 -0.186462 0.06971 0.276001 -0.167175 -0.013958 0.421875 -0.154419 0.034225 0.409332 -0.159058 0.077148 0.404236 -0.146729 0.092606 0.345245 -0.162231 0.1138 0.27652 -0.1418 -0.149933 0.415039 -0.058517 -0.178879 0.345703 -0.048527 -0.179535 0.27597 -0.019075 -0.184174 0.353516 0.018103 -0.155106 0.417664 0.017855 -0.148865 0.410828 0.06028 -0.162857 0.346558 0.088974 -0.11235 0.438751 0.086243 -0.172272 0.27597 0.052872 -0.187393 0.242416 -0.000702 -0.111023 0.389404 0.130142 -0.131104 0.340912 0.130234 -0.08287 0.341125 0.165649 -0.142014 0.276062 0.111862 -0.173187 0.242401 0.071579 -0.086418 0.276672 0.158295 -0.156342 0.242325 0.103745 -0.132721 0.241348 0.132553 -0.183792 0.242035 0.035915 -0.173416 0.017942 0.071732 -0.033764 0.275726 0.1763 0.018139 0.276825 0.179306 -0.017891 0.348785 0.183731 -0.074577 0.410309 0.143478 -0.014345 0.407013 0.161758 0.044891 0.414551 0.152756 0.086555 0.275757 0.159164 0.035812 0.343597 0.181168 0.088699 0.346893 0.163162 0.145691 0.343719 0.116188 0.108765 0.384369 0.135452 0.141647 0.275818 0.113174 0.15065 0.27655 -0.101151 0.173996 0.277191 -0.052422 0.145309 0.341339 -0.118523 0.131516 0.397827 -0.106972 0.170715 0.34668 -0.074608 0.147415 0.412537 -0.062382 0.180618 0.276611 -0.001392 0.185715 0.345215 -0.020037 0.160492 0.412506 -0.016335 0.164673 0.387726 0.052269 0.178925 0.340332 0.052162 0.172729 0.275848 0.05537 -0.068001 0.456757 -0.103035 -0.07795 0.482269 -0.035233 -0.030308 0.481537 -0.080872 -0.016689 0.497559 -0.036636 0.031773 0.498749 -0.019485 0.031199 0.479767 -0.084541 0.001979 0.455231 -0.125412 0.073128 0.44812 -0.111748 0.077881 0.481201 -0.03981 0.114998 0.441284 -0.081955 -0.124458 0.453308 -0.014586 -0.112396 0.462677 0.024082 -0.07135 0.483215 0.039623 -0.007551 0.499756 0.029263 -0.034103 0.481384 0.078239 -0.050941 0.453003 0.115021 0.125137 0.454742 -0.002364 0.14975 0.420868 0.041073 0.137772 0.404388 0.09021 0.109123 0.454865 0.060398 0.084785 0.480804 0.014455 0.059933 0.484497 0.053165 -0.015355 0.448639 0.13092 0.028088 0.445496 0.132019 0.027052 0.479126 0.08432 0.093536 0.432739 0.113861</float_array>
          <technique_common>
            <accessor source="#AntiInflammatories-mesh-positions-array" count="252" stride="3">
              <param name="X" type="float"/>
              <param name="Y" type="float"/>
              <param name="Z" type="float"/>
            </accessor>
          </technique_common>
        </source>
        <source id="AntiInflammatories-mesh-normals">
          <float_array id="AntiInflammatories-mesh-normals-array" count="1500">-0.540103 -0.605111 -0.584918 -0.553936 -0.40193 -0.729114 -0.42032 -0.371784 -0.827712 -0.642996 -0.315856 -0.697704 -0.62893 -0.000734 -0.777462 -0.769682 -0.001034 -0.638427 -0.746054 -0.274621 -0.606619 -0.820301 -0.318209 -0.475237 -0.829106 -0.360661 -0.427209 -0.349971 -0.389951 -0.851739 -0.213811 -0.290098 -0.932807 -0.093018 -0.288675 -0.952898 -0.788771 -0.462463 -0.404929 -0.577048 -0.607973 -0.545329 -0.77287 -0.603765 -0.195293 -0.62402 -0.747954 -0.226193 -0.621361 -0.749194 -0.229389 -0.590665 -0.806233 0.033225 -0.279999 -0.959423 -0.03328 -0.162209 -0.977613 0.134016 -0.27868 -0.956967 -0.080945 -0.462559 -0.845465 -0.266887 -0.121054 -0.938867 -0.322296 -0.314675 -0.83553 -0.45041 -0.145883 -0.902559 -0.405099 -0.406494 -0.689153 -0.599859 -0.199863 -0.612954 -0.764422 -0.011119 -0.814044 -0.580697 -0.078682 -0.632531 -0.770528 -0.029162 -0.597086 -0.801647 -0.055363 -0.3105 -0.94896 0.199044 -0.560416 -0.803937 0.090092 -0.263372 -0.960478 0.26655 -0.334079 -0.90407 0.242831 -0.308719 -0.919633 -0.823583 -0.560491 -0.086958 -0.772945 -0.626449 0.100587 -0.634985 -0.763203 0.119645 -0.533291 -0.78772 0.30838 -0.542638 -0.709713 0.449279 -0.832227 -0.483468 0.271399 -0.896654 -0.346485 0.275608 -0.634718 -0.579427 0.51127 -0.683326 -0.537471 0.494156 -0.519451 -0.502376 0.691223 -0.740524 -0.323258 0.589177 -0.570261 -0.33607 0.749573 -0.717827 -0.295626 0.630341 -0.628822 -0.296315 0.718875 -0.77055 -0.000553 0.637379 -0.634669 -0.000684 0.772784 -0.449425 -0.001084 -0.893317 -0.287334 -0.000825 -0.95783 -0.45807 -0.000124 -0.888916 -0.627956 -0.000604 -0.778249 -0.280328 -0.000077 -0.959904 -0.095386 -0.000172 -0.99544 -0.094416 -0.000071 -0.995533 0.094076 -0.000276 -0.995565 0.095288 -0.000152 -0.99545 0.285923 0.000165 -0.958253 0.277229 0.001708 -0.960802 0.293607 0.002899 -0.955922 0.46393 -0.001413 -0.885871 0.261012 0.006299 -0.965315 0.568823 0.017809 -0.822267 0.627334 0.131959 -0.767489 0.227102 -0.890903 -0.39334 0.569634 0.017213 -0.821718 0.487145 0.002215 -0.873318 0.71856 -0.003688 -0.695455 0.688342 -0.021461 -0.725069 0.666971 -0.015261 -0.744927 -0.931106 -0.280722 -0.232887 -0.96087 -0.000346 -0.276999 -0.94452 -0.312415 -0.101382 -0.997822 0.000291 -0.065958 -0.961367 -0.270186 -0.052661 -0.941073 -0.26812 0.206141 -0.970718 -0.00412 0.240185 0.329685 -0.745549 -0.579193 0.262297 -0.809083 -0.525913 0.314352 -0.609825 -0.727528 0.486524 -0.708932 -0.510597 0.548375 -0.783024 -0.293526 0.744928 -0.602409 -0.28668 0.642889 -0.523026 -0.559586 0.791183 -0.567711 -0.22745 0.456173 -0.494296 -0.739985 0.642898 -0.522035 -0.560501 0.451515 -0.333357 -0.827651 0.431176 -0.354316 -0.829788 0.639853 -0.261089 -0.722787 0.715608 -0.367203 -0.594194 0.84381 -0.253701 -0.472886 0.909639 -0.318688 -0.26645 0.909628 -0.311111 -0.275293 0.965516 -0.247608 -0.080436 0.123647 -0.971827 -0.200656 0.282576 -0.911627 -0.298473 0.470891 -0.856034 -0.21323 0.113117 -0.992191 -0.052542 -0.228137 -0.965186 0.127941 0.030619 -0.95591 0.292059 0.273334 -0.953122 0.129797 0.337412 -0.930017 0.145676 0.500346 -0.864091 -0.054782 0.405276 -0.871794 0.275183 0.531462 -0.784119 0.320477 0.679368 -0.730966 0.0644 0.598256 -0.745537 0.293709 0.793697 -0.608312 -0.001082 0.731722 -0.562876 0.384389 0.862076 -0.493453 0.115449 0.732705 -0.545199 0.40731 0.839463 -0.325279 0.43531 0.907129 -0.275491 0.318153 0.920089 -0.369918 0.128826 0.957244 -0.285519 0.046502 0.861347 -0.01784 -0.507703 0.800273 -0.001336 -0.599634 0.86901 -0.015665 -0.494547 0.800053 -0.015044 -0.599741 0.87213 -0.017006 -0.488978 0.763356 0.001671 -0.645976 0.736157 -0.670931 -0.089019 0.957239 0.009878 -0.289131 0.959101 -0.003507 -0.283043 0.962088 -0.004574 -0.272702 0.970629 0.048066 -0.235733 0.99579 0.001597 -0.091654 0.992192 -0.003853 -0.124657 0.996062 0.001326 0.088647 0.997063 -0.000191 0.076589 0.95971 -0.000469 0.280992 0.9551 -0.002189 0.296274 0.882957 0.005493 0.469422 0.798018 -0.00413 0.60262 0.77735 -0.000666 0.629068 -0.268408 -0.921591 0.280405 -0.212059 -0.815401 0.538658 -0.337182 -0.735714 0.587395 -0.339268 -0.588646 0.733753 -0.276168 -0.55637 0.783699 -0.053213 -0.80412 0.59208 -0.037957 -0.669984 0.741404 0.079376 -0.860303 0.503565 0.106852 -0.568976 0.815383 0.196496 -0.836953 0.510782 0.282721 -0.589653 0.756557 0.333213 -0.693718 0.638532 0.460497 -0.677344 0.573714 0.449446 -0.407262 0.79507 0.593585 -0.529335 0.606186 0.564188 -0.403981 0.720063 0.641754 -0.312822 0.70021 0.619583 -0.002331 0.784928 0.781195 -0.233926 0.578803 -0.995447 0.004552 0.095207 -0.995698 -0.003736 -0.092581 -0.847839 -0.272311 0.454989 -0.88612 -0.005056 0.463428 -0.447054 -0.29133 0.845736 -0.251762 -0.356002 0.899933 -0.250903 -0.355359 0.900426 -0.276994 -0.003792 0.960864 -0.100002 -0.324796 0.940482 -0.088849 -0.000839 0.996045 0.050234 -0.363014 0.930428 0.125783 -0.294272 0.947408 0.083513 -0.000797 0.996506 0.242745 -0.265496 0.933052 0.279061 0.00024 0.960273 0.399041 -0.32931 0.855758 0.471072 0.000225 0.882095 0.455523 -0.001539 0.890223 -0.888323 0.000108 -0.45922 -0.7758 -0.000013 -0.630979 -0.889105 -0.000068 -0.457703 -0.959797 0.000047 -0.280694 -0.333487 -0.896488 -0.291713 -0.402883 -0.85347 -0.330565 -0.749072 0.13604 -0.64837 -0.224306 -0.929294 -0.293429 -0.63891 0.332739 -0.693599 -0.240524 -0.873872 -0.422489 -0.436149 0.089749 -0.895388 -0.174926 -0.925501 -0.33593 -0.663385 0.000105 -0.748278 -0.493431 -0.000669 -0.869785 -0.63227 -0.010905 -0.774672 -0.609115 0.275872 -0.743554 -0.465769 0.004014 -0.884897 -0.141393 -0.921574 -0.361538 -0.02452 -0.985281 -0.169175 -0.016637 -0.985892 -0.166555 -0.260371 0.003612 -0.965502 -0.356993 0.501472 -0.788087 -0.263416 0.002826 -0.964678 0.044824 0.006856 -0.998971 0.097449 0.19839 -0.975267 0.005672 -0.970366 -0.241574 0.041013 0.007839 -0.999128 0.010354 -0.981193 -0.192749 0.048168 -0.977057 -0.207459 0.293883 0.003323 -0.955836 0.136078 -0.900137 -0.413807 0.253415 0.070179 -0.964809 0.272024 0.0074 -0.962262 0.333564 0.415324 -0.846311 0.477498 0.001124 -0.878632 0.496926 0.00476 -0.86778 -0.328083 -0.927758 -0.177837 -0.497329 -0.847856 -0.183857 -0.799878 0.304316 -0.517289 -0.957813 0.052731 -0.282513 -0.949822 -0.005715 -0.312738 -0.99445 0.008819 -0.104836 -0.873976 -0.450273 -0.182812 -0.968377 -0.130798 -0.212459 -0.890652 -0.440672 -0.112012 -0.905504 0.424337 -0.000781 0.308568 -0.946122 0.098179 -0.15679 -0.987632 0.000019 -0.157817 -0.986271 0.048614 -0.852156 -0.279467 0.442411 -0.380592 -0.875623 0.297379 -0.501196 -0.68291 0.531447 -0.122766 0.002621 0.992432 -0.951488 0.003288 0.307667 -0.79679 0.003787 0.604244 -0.630081 -0.000078 0.776529 -0.45755 -0.000199 0.889184 -0.411168 0.005068 0.911545 -0.241028 -0.93083 0.2747 -0.047222 -0.991181 0.123819 -0.048359 -0.915869 0.398555 -0.03452 -0.976582 0.21236 0.027578 -0.959463 0.280482 -0.664426 0.085405 0.742458 -0.399908 0.528819 0.748615 -0.235932 0.410637 0.880746 -0.464266 -0.005873 0.885676 -0.323531 0.007 0.946192 -0.295318 0.002148 0.955396 -0.320817 0.092248 0.942638 -0.096611 0.001537 0.995321 -0.100929 0.323943 0.940678 -0.056995 0.008437 0.998339 0.15536 0.190439 0.969328 0.088764 -0.006497 0.996031 0.103294 -0.852842 0.51185 0.219407 -0.139133 0.965662 0.053138 -0.978489 0.199336 0.054605 -0.99175 0.115972 0.123777 -0.979889 0.156513 0.534859 -0.653124 0.536055 0.303807 0.010662 0.952674 0.280931 0.159509 0.94638 0.29656 0.008833 0.954973 0.613218 -0.488918 0.620421 0.513557 0.484367 0.708271 0.502093 -0.01063 0.864749 0.730028 0.090049 0.677459 0.608039 0.012505 0.793809 0.77411 0.000059 0.633051 0.22723 -0.942878 -0.243615 0.709654 -0.062716 -0.701754 0.652214 0.204561 -0.729912 0.630579 -0.005461 -0.776106 0.734943 0.009317 -0.678065 0.791548 -0.005494 -0.611082 0.744714 0.237819 -0.623573 0.8824 0.008515 -0.470423 0.958658 -0.00791 -0.28445 0.958214 -0.007505 -0.285954 0.949906 0.119337 -0.288855 0.995401 0.009161 -0.095362 0.892062 0.305311 -0.333181 0.657662 -0.710238 -0.251084 0.163303 -0.986572 0.002777 -0.192877 -0.978917 -0.067225 0.992064 0.10803 -0.064334 0.519461 -0.854072 0.02687 0.997993 -0.004636 0.063151 0.935534 0.346779 0.067238 0.995579 0.000835 0.093927 0.952707 0.001402 0.303886 0.932166 0.151436 0.328837 0.958255 0.005759 0.285855 0.626854 -0.758161 0.179572 0.923039 0.221498 0.314543 0.19352 -0.975002 0.109187 0.245169 -0.963061 0.111379 0.280943 -0.933133 0.224352 0.923945 0.21896 0.313659 0.87536 -0.006368 0.48343 0.803832 0.009184 0.594785 0.09277 0.000169 0.995688 0.277308 0.000056 0.960781 0.633835 -0.000452 0.773468 -0.77374 0.007951 -0.633453 -0.760335 0.176528 -0.625083 -0.871056 -0.005675 -0.49115 -0.905204 0.007188 -0.424916 -0.884773 0.190657 -0.425237 -0.645933 0.221817 -0.730457 -0.43093 0.221672 -0.874735 -0.451935 0.261386 -0.852896 -0.661707 -0.124372 -0.739375 -0.442082 -0.044079 -0.895891 -0.75371 -0.050579 -0.655258 -0.693248 0.341724 -0.634533 -0.265099 0.163427 -0.950271 -0.441521 -0.043383 -0.896202 -0.457788 0.270173 -0.847016 -0.091671 0.326019 -0.940908 -0.109146 -0.086078 -0.990292 0.049329 0.163892 -0.985244 -0.088296 -0.069133 -0.993692 0.2272 0.275255 -0.934139 -0.07044 0.372288 -0.92544 0.246078 -0.088648 -0.965188 0.018398 0.408231 -0.912693 0.296654 0.335667 -0.894049 0.314686 0.317525 -0.894511 0.315757 -0.036711 -0.94813 0.284574 0.220499 -0.932951 0.497079 -0.102845 -0.861589 0.468256 0.225855 -0.85424 0.480359 0.252919 -0.839814 -0.846274 0.249998 -0.470448 -0.86309 -0.091287 -0.496732 -0.777835 0.370079 -0.507951 -0.909995 -0.039232 -0.412758 -0.864773 0.303364 -0.400172 -0.963227 -0.0968 -0.250647 -0.921149 0.302453 -0.244962 -0.922385 0.368289 -0.116486 -0.996804 -0.022943 -0.076524 -0.908347 0.411316 -0.075664 -0.892778 0.405313 0.196642 -0.89477 0.329393 0.301474 -0.715447 0.408736 0.566631 -0.989225 -0.107055 0.099862 -0.956082 0.276753 0.096516 -0.957956 -0.018659 0.286308 -0.75189 0.426801 0.502496 -0.734059 0.305132 0.606673 -0.575268 0.239708 0.782053 -0.883895 -0.114077 0.453558 -0.794426 -0.038077 0.606166 -0.857347 0.268202 0.439344 -0.636482 -0.109227 0.763519 -0.8562 0.255601 0.448987 -0.618329 0.273609 0.736755 -0.759014 0.171219 0.628157 -0.992285 0.0047 -0.123889 -0.979304 0.165728 -0.116177 -0.995194 0.002237 0.097893 -0.956207 0.276181 0.096909 -0.943199 0.180971 0.278611 -0.958523 0.001172 0.285013 -0.885873 0.00122 0.463926 -0.872558 0.416708 0.254946 -0.881018 -0.135657 0.453215 -0.876229 -0.002077 0.48189 -0.955365 0.002981 0.295414 -0.99654 0.004781 0.082972 -0.773067 0.010661 0.634235 -0.654994 -0.004717 0.755619 -0.600946 0.006946 0.799259 -0.587921 0.199341 0.783972 -0.312769 0.212232 0.925815 -0.318618 0.222833 0.921318 -0.052747 0.214847 0.975222 -0.323694 -0.089651 0.941905 -0.590623 -0.05931 0.804765 -0.060893 0.202444 0.977399 0.285894 0.228779 0.930551 -0.263397 -0.040806 0.963824 -0.05571 -0.089046 0.994468 -0.481744 0.319271 0.816082 -0.288874 0.323395 0.901092 -0.253656 0.354996 0.899798 0.097748 0.346153 0.933072 0.279037 0.21216 0.93655 0.079283 0.361804 0.928877 0.043832 -0.039439 0.99826 0.279541 -0.100615 0.954847 0.286704 0.324287 0.901465 0.325164 -0.062831 0.943568 0.595157 0.218395 0.773363 0.63271 -0.06245 0.771866 0.628108 0.216353 0.747444 0.639223 -0.072056 0.765638 0.61614 0.27399 0.738445 0.788669 0.152071 0.595714 0.726911 0.214039 -0.652524 0.861891 0.219543 -0.457105 0.72213 0.223063 -0.654806 0.870907 0.254208 -0.420594 0.944346 0.17061 -0.281251 0.735733 -0.118162 -0.666885 0.636581 -0.032749 -0.770514 0.622066 0.299797 -0.723295 0.86717 -0.061039 -0.494257 0.809187 0.300792 -0.504719 0.89828 -0.094594 -0.429121 0.829219 0.370984 -0.418052 0.962053 0.244037 -0.122069 0.971019 0.218669 -0.096472 0.963218 -0.039389 -0.265818 0.985691 -0.108331 -0.129141 0.904788 0.352308 -0.239242 0.970881 0.22018 0.094398 0.935423 0.346873 0.068283 0.952013 0.286037 0.108878 0.994698 -0.049386 0.090207 0.86291 0.258508 0.434236 0.883589 -0.073154 0.462515 0.986793 -0.088053 0.135965 0.955025 0.263358 0.136273 0.879121 -0.060956 0.472684 0.942157 0.171752 0.287821 0.830125 0.333904 0.446543 -0.624145 0.373322 -0.686348 -0.474746 0.621316 -0.623364 -0.55137 0.750926 -0.363458 -0.258944 0.650541 -0.713964 -0.225913 0.425001 -0.876548 -0.345503 0.860466 -0.374467 -0.239224 0.934186 -0.264706 0.10743 0.923739 -0.367647 0.01091 0.959888 -0.280172 -0.17153 0.788806 -0.590223 -0.204824 0.696181 -0.688025 -0.005796 0.859178 -0.511645 0.089364 0.628923 -0.772315 0.193143 0.774144 -0.602824 0.204192 0.668011 -0.715588 0.365906 0.836123 -0.40867 0.284454 0.613372 -0.736791 0.540805 0.554043 -0.632903 -0.584419 0.740591 -0.331632 -0.596869 0.743509 -0.301566 -0.788615 0.61037 -0.074395 -0.728289 0.682476 0.061821 -0.539576 0.841188 -0.0355 -0.723382 0.657006 0.212279 -0.69601 0.669935 0.258375 -0.456037 0.889489 0.028967 -0.516414 0.799055 0.307941 -0.249472 0.968333 0.009758 -0.242133 0.970242 0.001229 -0.013407 0.999415 -0.03146 -0.206122 0.947681 0.243749 -0.399515 0.812837 0.423892 -0.394017 0.806069 0.441591 -0.44015 0.653865 0.61541 -0.546251 0.548486 0.633067 0.580077 0.345811 -0.737513 0.529269 0.565368 -0.63264 0.730085 0.527552 -0.434355 0.715378 0.668687 -0.202712 0.895965 0.364181 -0.254202 0.716393 0.667184 -0.204074 0.419007 0.814115 -0.402058 0.597743 0.774475 -0.207101 0.774291 0.630604 0.05303 0.89338 0.437224 0.103481 0.800885 0.481077 0.356578 0.834949 0.305101 0.45801 0.693316 0.615175 0.375331 0.679005 0.713736 0.171852 0.578988 0.802129 0.146159 0.523666 0.84978 -0.060408 0.478069 0.848762 0.225949 0.271536 0.958855 0.082851 0.341341 0.939228 -0.036557 0.234106 0.932737 -0.274219 -0.251373 0.629315 0.735373 -0.150241 0.814806 0.559927 -0.207593 0.579051 0.788419 0.022766 0.595479 0.803048 0.050943 0.574907 0.816632 -0.021814 0.845603 0.533366 0.044557 0.816933 0.575008 -0.000336 0.936351 0.351064 0.114346 0.951755 0.284759 0.177283 0.976464 0.122839 0.303498 0.781832 0.544636 0.338371 0.800252 0.495077 0.318671 0.640974 0.698284 0.411926 0.79326 0.448392 0.639659 0.626267 0.445675 0.432797 0.477562 0.764605 0.631594 0.473043 0.614263 0.408297 0.391221 0.824766 0.708296 0.353972 0.610754</float_array>
          <technique_common>
            <accessor source="#AntiInflammatories-mesh-normals-array" count="500" stride="3">
              <param name="X" type="float"/>
              <param name="Y" type="float"/>
              <param name="Z" type="float"/>
            </accessor>
          </technique_common>
        </source>
        <source id="AntiInflammatories-mesh-map-0">
          <float_array id="AntiInflammatories-mesh-map-0-array" count="3000">0.21582 0.622559 0.229248 0.649658 0.199707 0.643311 0.21582 0.622559 0.199707 0.643311 0.1875 0.616943 0.21582 0.622559 0.1875 0.616943 0.193604 0.60376 0.1875 0.616943 0.199707 0.643311 0.180176 0.629883 0.1875 0.616943 0.180176 0.629883 0.046387 0.584717 0.046387 0.584717 0.180176 0.629883 0.175537 0.644287 0.175537 0.644287 0.180176 0.629883 0.199707 0.643311 0.175537 0.644287 0.199707 0.643311 0.176025 0.661377 0.176025 0.661377 0.199707 0.643311 0.196289 0.670898 0.21582 0.622559 0.193604 0.60376 0.219482 0.601074 0.219482 0.601074 0.193604 0.60376 0.199951 0.5896 0.219482 0.601074 0.199951 0.5896 0.208008 0.577393 0.196289 0.670898 0.199707 0.643311 0.213135 0.657471 0.213135 0.657471 0.199707 0.643311 0.229248 0.649658 0.196289 0.670898 0.213135 0.657471 0.223145 0.679932 0.223145 0.679932 0.213135 0.657471 0.240723 0.669922 0.240723 0.669922 0.213135 0.657471 0.229248 0.649658 0.223145 0.679932 0.240723 0.669922 0.250732 0.689209 0.250732 0.689209 0.240723 0.669922 0.272705 0.651611 0.250732 0.689209 0.272705 0.651611 0.282227 0.696533 0.272705 0.651611 0.240723 0.669922 0.24707 0.6521 0.24707 0.6521 0.240723 0.669922 0.229248 0.649658 0.272705 0.651611 0.24707 0.6521 0.268799 0.624756 0.24707 0.6521 0.229248 0.649658 0.240234 0.625977 0.24707 0.6521 0.240234 0.625977 0.268799 0.624756 0.240234 0.625977 0.229248 0.649658 0.21582 0.622559 0.240234 0.625977 0.21582 0.622559 0.219482 0.601074 0.268799 0.624756 0.240234 0.625977 0.254639 0.602051 0.254639 0.602051 0.240234 0.625977 0.219482 0.601074 0.254639 0.602051 0.219482 0.601074 0.232666 0.585449 0.232666 0.585449 0.219482 0.601074 0.208008 0.577393 0.254639 0.602051 0.232666 0.585449 0.25 0.576172 0.232666 0.585449 0.208008 0.577393 0.220215 0.566895 0.25 0.576172 0.232666 0.585449 0.236816 0.556885 0.236816 0.556885 0.232666 0.585449 0.220215 0.566895 0.766846 0.82251 0.796631 0.838379 0.770508 0.842285 0.766846 0.82251 0.770508 0.842285 0.744385 0.82251 0.744385 0.82251 0.770508 0.842285 0.741455 0.848389 0.744385 0.82251 0.741455 0.848389 0.720703 0.836914 0.744385 0.82251 0.720703 0.836914 0.720459 0.81543 0.766846 0.82251 0.744385 0.82251 0.756104 0.794922 0.766846 0.82251 0.756104 0.794922 0.782227 0.811523 0.744385 0.82251 0.720459 0.81543 0.733887 0.798096 0.744385 0.82251 0.733887 0.798096 0.756104 0.794922 0.733887 0.798096 0.720459 0.81543 0.712402 0.798096 0.756104 0.794922 0.733887 0.798096 0.750244 0.775391 0.733887 0.798096 0.712402 0.798096 0.720947 0.775391 0.750244 0.775391 0.733887 0.798096 0.735107 0.773193 0.735107 0.773193 0.733887 0.798096 0.720947 0.775391 0.750244 0.775391 0.735107 0.773193 0.721191 0.630615 0.721191 0.630615 0.735107 0.773193 0.720947 0.775391 0.456055 0.956787 0.456055 0.977051 0.253906 0.95874 0.456055 0.956787 0.253906 0.95874 0.45166 0.936768 0.253906 0.95874 0.456055 0.977051 0.253906 0.979248 0.253906 0.979248 0.456055 0.977051 0.254395 0.999756 0.45166 0.936768 0.253906 0.95874 0.253174 0.938477 0.45166 0.936768 0.253174 0.938477 0.451416 0.91626 0.451416 0.91626 0.253174 0.938477 0.25293 0.917725 0.451416 0.91626 0.25293 0.917725 0.451416 0.895752 0.451416 0.895752 0.25293 0.917725 0.25293 0.897949 0.451416 0.895752 0.25293 0.897949 0.31958 0.874512 0.451416 0.895752 0.31958 0.874512 0.452637 0.875244 0.31958 0.874512 0.25293 0.897949 0.253174 0.868408 0.452637 0.875244 0.31958 0.874512 0.452637 0.85498 0.31958 0.874512 0.253174 0.868408 0.318359 0.865479 0.318359 0.865479 0.253174 0.868408 0.273193 0.838867 0.273193 0.838867 0.253174 0.868408 0.250732 0.808105 0.31958 0.874512 0.318359 0.865479 0.32373 0.84375 0.32373 0.84375 0.318359 0.865479 0.273193 0.838867 0.31958 0.874512 0.32373 0.84375 0.452637 0.85498 0.32373 0.84375 0.273193 0.838867 0.344238 0.832764 0.32373 0.84375 0.344238 0.832764 0.452637 0.85498 0.452637 0.85498 0.344238 0.832764 0.453125 0.824463 0.323486 0.17334 0.367676 0.175049 0.351318 0.181885 0.351318 0.181885 0.367676 0.175049 0.434814 0.311279 0.367676 0.175049 0.323486 0.17334 0.341064 0.160156 0.434814 0.311279 0.367676 0.175049 0.386719 0.159424 0.386719 0.159424 0.367676 0.175049 0.341064 0.160156 0.386719 0.159424 0.341064 0.160156 0.374268 0.14209 0.386719 0.159424 0.374268 0.14209 0.425537 0.005371 0.469971 0.326416 0.558105 0.342041 0.491455 0.385498 0.558105 0.342041 0.469971 0.326416 0.531006 0.277344 0.491455 0.385498 0.558105 0.342041 0.544922 0.418213 0.469971 0.326416 0.491455 0.385498 0.44043 0.365234 0.469971 0.326416 0.44043 0.365234 0.388428 0.324219 0.388428 0.324219 0.44043 0.365234 0.406494 0.424072 0.406494 0.424072 0.44043 0.365234 0.491455 0.385498 0.388428 0.324219 0.406494 0.424072 0.330566 0.394287 0.491455 0.385498 0.544922 0.418213 0.487305 0.442871 0.491455 0.385498 0.487305 0.442871 0.406494 0.424072 0.487305 0.442871 0.544922 0.418213 0.557861 0.486572 0.487305 0.442871 0.557861 0.486572 0.515137 0.492676 0.487305 0.442871 0.515137 0.492676 0.439453 0.489746 0.487305 0.442871 0.439453 0.489746 0.406494 0.424072 0.406494 0.424072 0.439453 0.489746 0.373291 0.484863 0.406494 0.424072 0.373291 0.484863 0.322266 0.458252 0.406494 0.424072 0.322266 0.458252 0.330566 0.394287 0.330566 0.394287 0.322266 0.458252 0.283936 0.440186 0.001953 0.404541 0.030518 0.343262 0.076172 0.406006 0.076172 0.406006 0.030518 0.343262 0.095703 0.338867 0.076172 0.406006 0.095703 0.338867 0.146973 0.383789 0.001953 0.404541 0.076172 0.406006 0.03125 0.452393 0.001953 0.404541 0.03125 0.452393 0.000244 0.506104 0.000244 0.506104 0.03125 0.452393 0.061523 0.489014 0.061523 0.489014 0.03125 0.452393 0.076172 0.406006 0.061523 0.489014 0.076172 0.406006 0.128906 0.438477 0.128906 0.438477 0.076172 0.406006 0.146973 0.383789 0.061523 0.489014 0.128906 0.438477 0.104248 0.51416 0.104248 0.51416 0.128906 0.438477 0.167725 0.502686 0.128906 0.438477 0.146973 0.383789 0.18335 0.445312 0.128906 0.438477 0.18335 0.445312 0.167725 0.502686 0.18335 0.445312 0.146973 0.383789 0.2229 0.381836 0.167725 0.502686 0.18335 0.445312 0.226562 0.457275 0.226562 0.457275 0.18335 0.445312 0.2229 0.381836 0.167725 0.502686 0.226562 0.457275 0.220703 0.511963 0.220703 0.511963 0.226562 0.457275 0.28418 0.479736 0.28418 0.479736 0.226562 0.457275 0.276123 0.42749 0.276123 0.42749 0.226562 0.457275 0.2229 0.381836 0.276123 0.42749 0.2229 0.381836 0.2771 0.391113 0.775146 0.798828 0.791748 0.689453 0.806885 0.796143 0.791748 0.689453 0.775146 0.798828 0.767578 0.688965 0.806885 0.796143 0.791748 0.689453 0.799561 0.651855 0.791748 0.689453 0.767578 0.688965 0.793213 0.598145 0.791748 0.689453 0.793213 0.598145 0.799561 0.651855 0.793213 0.598145 0.767578 0.688965 0.761719 0.617188 0.793213 0.598145 0.761719 0.617188 0.79248 0.594238 0.799561 0.651855 0.793213 0.598145 0.822754 0.641113 0.799561 0.651855 0.822754 0.641113 0.806885 0.796143 0.806885 0.796143 0.822754 0.641113 0.827393 0.796631 0.822754 0.641113 0.793213 0.598145 0.843506 0.596191 0.827393 0.796631 0.822754 0.641113 0.847656 0.796143 0.847656 0.796143 0.822754 0.641113 0.843506 0.596191 0.847656 0.796143 0.843506 0.596191 0.868164 0.799072 0.868164 0.799072 0.843506 0.596191 0.869141 0.597656 0.868164 0.799072 0.869141 0.597656 0.890625 0.59668 0.868164 0.799072 0.890625 0.59668 0.897949 0.795166 0.897949 0.795166 0.890625 0.59668 0.910645 0.597168 0.897949 0.795166 0.910645 0.597168 0.930664 0.796631 0.930664 0.796631 0.910645 0.597168 0.931152 0.597168 0.454834 0.233643 0.474854 0.242432 0.469727 0.260986 0.474854 0.242432 0.454834 0.233643 0.47168 0.218994 0.474854 0.242432 0.47168 0.218994 0.487549 0.233887 0.487549 0.233887 0.47168 0.218994 0.493652 0.218262 0.493652 0.218262 0.47168 0.218994 0.475098 0.199707 0.47168 0.218994 0.454834 0.233643 0.450195 0.204834 0.47168 0.218994 0.450195 0.204834 0.475098 0.199707 0.450195 0.204834 0.454834 0.233643 0.431641 0.224121 0.475098 0.199707 0.450195 0.204834 0.45752 0.178955 0.450195 0.204834 0.431641 0.224121 0.428467 0.205078 0.45752 0.178955 0.450195 0.204834 0.434326 0.185303 0.434326 0.185303 0.450195 0.204834 0.428467 0.205078 0.434326 0.185303 0.428467 0.205078 0.416504 0.192383 0.45752 0.178955 0.434326 0.185303 0.441895 0.155273 0.434326 0.185303 0.416504 0.192383 0.414551 0.172363 0.434326 0.185303 0.414551 0.172363 0.441895 0.155273 0.441895 0.155273 0.414551 0.172363 0.42627 0.151611 0.441895 0.155273 0.42627 0.151611 0.428467 0.019287 0.42627 0.151611 0.414551 0.172363 0.395752 0.164062 0.248047 0.926025 0.050537 0.914551 0.248047 0.905762 0.050537 0.914551 0.248047 0.926025 0.246338 0.947021 0.043457 0.893066 0.061768 0.887695 0.060547 0.901855 0.060547 0.901855 0.061768 0.887695 0.200439 0.901611 0.258301 0.18042 0.302246 0.179932 0.287598 0.188232 0.302246 0.179932 0.258301 0.18042 0.271973 0.165039 0.302246 0.179932 0.271973 0.165039 0.317139 0.17334 0.302246 0.179932 0.317139 0.17334 0.372314 0.332764 0.317139 0.17334 0.271973 0.165039 0.309326 0.16333 0.317139 0.17334 0.309326 0.16333 0.365967 0.015381 0.113037 0.233643 0.129395 0.214111 0.167236 0.21875 0.167236 0.21875 0.129395 0.214111 0.17041 0.203369 0.167236 0.21875 0.17041 0.203369 0.272705 0.342041 0.17041 0.203369 0.129395 0.214111 0.158691 0.197998 0.17041 0.203369 0.158691 0.197998 0.16748 0.029541 0.771729 0.492676 0.788818 0.471924 0.79126 0.485596 0.79126 0.485596 0.788818 0.471924 0.926514 0.483154 0.509766 0.999756 0.30542 0.999756 0.507568 0.97876 0.221924 0.949951 0.083984 0.961914 0.082031 0.947754 0.247803 0.900879 0.049805 0.879395 0.247803 0.879883 0.247803 0.879883 0.049805 0.879395 0.247559 0.859619 0.514648 1 0.514648 0.979492 0.715332 0.988281 0.453857 0.515869 0.488281 0.496338 0.497559 0.500488 0.488281 0.496338 0.453857 0.515869 0.463623 0.505859 0.453857 0.515869 0.497559 0.500488 0.484375 0.520508 0.463623 0.505859 0.453857 0.515869 0.437988 0.510498 0.453857 0.515869 0.484375 0.520508 0.446777 0.537109 0.437988 0.510498 0.453857 0.515869 0.412842 0.514404 0.412842 0.514404 0.453857 0.515869 0.446777 0.537109 0.437988 0.510498 0.412842 0.514404 0.412109 0.510254 0.446777 0.537109 0.484375 0.520508 0.500977 0.679443 0.446777 0.537109 0.500977 0.679443 0.412842 0.514404 0.500977 0.679443 0.484375 0.520508 0.526123 0.669678 0.500977 0.679443 0.526123 0.669678 0.548828 0.690186 0.412842 0.514404 0.500977 0.679443 0.469727 0.674805 0.412109 0.510254 0.412842 0.514404 0.379639 0.512451 0.412109 0.510254 0.379639 0.512451 0.386475 0.505615 0.386475 0.505615 0.379639 0.512451 0.362061 0.496094 0.412842 0.514404 0.469727 0.674805 0.372559 0.52417 0.412842 0.514404 0.372559 0.52417 0.379639 0.512451 0.372559 0.52417 0.469727 0.674805 0.42627 0.675293 0.372559 0.52417 0.42627 0.675293 0.349121 0.686768 0.379639 0.512451 0.372559 0.52417 0.333252 0.51709 0.379639 0.512451 0.333252 0.51709 0.362061 0.496094 0.333252 0.51709 0.372559 0.52417 0.349121 0.686768 0.362061 0.496094 0.333252 0.51709 0.339111 0.506836 0.339111 0.506836 0.333252 0.51709 0.325928 0.471924 0.333252 0.51709 0.349121 0.686768 0.322021 0.690186 0.325928 0.471924 0.333252 0.51709 0.318115 0.467529 0.318115 0.467529 0.333252 0.51709 0.30835 0.527588 0.30835 0.527588 0.333252 0.51709 0.322021 0.690186 0.318115 0.467529 0.30835 0.527588 0.279297 0.538818 0.279297 0.538818 0.30835 0.527588 0.322021 0.690186 0.279297 0.538818 0.322021 0.690186 0.287354 0.696777 0.023438 0.001953 0.046631 0.012939 0.027344 0.012207 0.027344 0.012207 0.046631 0.012939 0.067139 0.020752 0.006836 0.000488 0.027344 0.012207 0.039307 0.04248 0.039307 0.04248 0.027344 0.012207 0.067139 0.042236 0.039307 0.04248 0.067139 0.042236 0.000244 0.176758 0.000244 0.176758 0.067139 0.042236 0.09082 0.040039 0.09082 0.040039 0.067139 0.042236 0.027344 0.012207 0.09082 0.040039 0.027344 0.012207 0.067139 0.020752 0.09082 0.040039 0.067139 0.020752 0.115479 0.039551 0.09082 0.040039 0.115479 0.039551 0.114258 0.045166 0.115479 0.039551 0.067139 0.020752 0.091797 0.028809 0.115479 0.039551 0.091797 0.028809 0.117676 0.031494 0.115479 0.039551 0.117676 0.031494 0.153564 0.024414 0.115479 0.039551 0.153564 0.024414 0.177246 0.019531 0.177246 0.019531 0.153564 0.024414 0.19043 0.013428 0.177246 0.019531 0.19043 0.013428 0.234863 0.002197 0.692627 0.951904 0.692627 0.980469 0.492188 0.972412 0.274902 0.520996 0.274902 0.552002 0.074219 0.530518 0.248779 0.952881 0.248779 0.983887 0.048828 0.974854 0.461182 0.948975 0.662354 0.948975 0.463623 0.969482 0.110107 0.997559 0.108643 0.983154 0.249023 0.990479 0.657959 0.897705 0.456787 0.897705 0.459229 0.86499 0.804688 0.047363 0.788818 0.05835 0.820068 0.030029 0.788818 0.05835 0.804688 0.047363 0.787109 0.080078 0.788818 0.05835 0.787109 0.080078 0.781006 0.111572 0.788818 0.05835 0.781006 0.111572 0.77417 0.102539 0.77417 0.102539 0.781006 0.111572 0.781494 0.134766 0.793945 0.002441 0.788818 0.05835 0.782959 0.039062 0.782959 0.039062 0.788818 0.05835 0.778076 0.062012 0.778076 0.062012 0.788818 0.05835 0.77417 0.102539 0.782959 0.039062 0.778076 0.062012 0.639893 0.022461 0.639893 0.022461 0.778076 0.062012 0.633301 0.044189 0.633301 0.044189 0.778076 0.062012 0.764648 0.082275 0.764648 0.082275 0.778076 0.062012 0.77417 0.102539 0.633301 0.044189 0.764648 0.082275 0.756104 0.104736 0.756104 0.104736 0.764648 0.082275 0.77417 0.102539 0.633301 0.044189 0.756104 0.104736 0.627441 0.144531 0.756104 0.104736 0.77417 0.102539 0.771973 0.137207 0.756104 0.104736 0.771973 0.137207 0.627441 0.144531 0.78418 0.171631 0.77417 0.102539 0.781494 0.134766 0.77417 0.102539 0.78418 0.171631 0.771973 0.137207 0.78418 0.171631 0.781494 0.134766 0.785889 0.156982 0.78418 0.171631 0.785889 0.156982 0.794678 0.179199 0.78418 0.171631 0.794678 0.179199 0.807861 0.198486 0.78418 0.171631 0.807861 0.198486 0.825928 0.225098 0.627441 0.144531 0.771973 0.137207 0.771729 0.160156 0.771729 0.160156 0.771973 0.137207 0.78418 0.171631 0.627441 0.144531 0.771729 0.160156 0.630615 0.178223 0.78418 0.171631 0.825928 0.225098 0.780518 0.198975 0.78418 0.171631 0.780518 0.198975 0.771729 0.160156 0.771729 0.160156 0.780518 0.198975 0.630615 0.178223 0.780518 0.198975 0.825928 0.225098 0.794678 0.235107 0.630615 0.178223 0.780518 0.198975 0.632568 0.212891 0.632568 0.212891 0.780518 0.198975 0.794678 0.235107 0.201416 0.686035 0.271484 0.700684 0.266602 0.707275 0.201416 0.686035 0.266602 0.707275 0.230713 0.70459 0.230713 0.70459 0.266602 0.707275 0.25293 0.717285 0.230713 0.70459 0.25293 0.717285 0.199463 0.854492 0.230713 0.70459 0.199463 0.854492 0.164062 0.841064 0.230713 0.70459 0.164062 0.841064 0.193359 0.699707 0.230713 0.70459 0.193359 0.699707 0.201416 0.686035 0.193359 0.699707 0.164062 0.841064 0.141357 0.833984 0.193359 0.699707 0.141357 0.833984 0.125732 0.831787 0.193359 0.699707 0.125732 0.831787 0.144775 0.690918 0.193359 0.699707 0.144775 0.690918 0.201416 0.686035 0.144775 0.690918 0.125732 0.831787 0.101807 0.826904 0.201416 0.686035 0.144775 0.690918 0.160156 0.676025 0.201416 0.686035 0.160156 0.676025 0.20166 0.681396 0.20166 0.681396 0.160156 0.676025 0.145996 0.662354 0.145996 0.662354 0.160156 0.676025 0.112793 0.660645 0.160156 0.676025 0.144775 0.690918 0.119873 0.671875 0.160156 0.676025 0.119873 0.671875 0.112793 0.660645 0.144775 0.690918 0.101807 0.826904 0.108154 0.681885 0.144775 0.690918 0.108154 0.681885 0.119873 0.671875 0.108154 0.681885 0.101807 0.826904 0.077637 0.821289 0.108154 0.681885 0.077637 0.821289 0.043945 0.816406 0.119873 0.671875 0.108154 0.681885 0.083252 0.670898 0.083252 0.670898 0.108154 0.681885 0.043945 0.816406 0.112793 0.660645 0.119873 0.671875 0.07251 0.647705 0.07251 0.647705 0.119873 0.671875 0.083252 0.670898 0.112793 0.660645 0.07251 0.647705 0.089355 0.650635 0.089355 0.650635 0.07251 0.647705 0.070312 0.637207 0.070312 0.637207 0.07251 0.647705 0.053467 0.620117 0.07251 0.647705 0.083252 0.670898 0.05542 0.684082 0.05542 0.684082 0.083252 0.670898 0.043945 0.816406 0.05542 0.684082 0.043945 0.816406 0.004395 0.80835 0.656006 0.858643 0.656006 0.87915 0.457764 0.858887 0.458496 0.939697 0.456787 0.919678 0.657959 0.92334 0.714355 0.924316 0.716309 0.944824 0.516846 0.940918 0.825439 0.115723 0.849854 0.105469 0.897461 0.252441 0.849854 0.105469 0.825439 0.115723 0.825684 0.087158 0.825439 0.115723 0.897461 0.252441 0.860352 0.260986 0.825439 0.115723 0.860352 0.260986 0.786621 0.130371 0.825439 0.115723 0.786621 0.130371 0.791504 0.103516 0.667236 0.44458 0.696533 0.402344 0.69458 0.44458 0.667236 0.44458 0.69458 0.44458 0.695557 0.48291 0.667236 0.44458 0.695557 0.48291 0.668213 0.471436 0.69458 0.44458 0.696533 0.402344 0.744141 0.432129 0.69458 0.44458 0.744141 0.432129 0.695557 0.48291 0.744141 0.432129 0.696533 0.402344 0.747314 0.39209 0.744141 0.432129 0.747314 0.39209 0.807617 0.406982 0.668213 0.471436 0.695557 0.48291 0.672363 0.510498 0.695557 0.48291 0.744141 0.432129 0.751465 0.491455 0.751465 0.491455 0.744141 0.432129 0.794922 0.457031 0.672363 0.510498 0.695557 0.48291 0.691895 0.5354 0.691895 0.5354 0.695557 0.48291 0.751465 0.491455 0.672363 0.510498 0.691895 0.5354 0.669678 0.55542 0.691895 0.5354 0.751465 0.491455 0.747803 0.541992 0.669678 0.55542 0.691895 0.5354 0.689941 0.577637 0.747803 0.541992 0.751465 0.491455 0.808594 0.516846 0.689941 0.577637 0.691895 0.5354 0.747803 0.541992 0.747803 0.541992 0.808594 0.516846 0.797852 0.553223 0.747803 0.541992 0.797852 0.553223 0.797607 0.587158 0.747803 0.541992 0.797607 0.587158 0.740723 0.599121 0.747803 0.541992 0.740723 0.599121 0.689941 0.577637 0.669678 0.55542 0.689941 0.577637 0.668945 0.584229 0.689941 0.577637 0.740723 0.599121 0.686768 0.615967 0.668945 0.584229 0.689941 0.577637 0.682861 0.618652 0.682861 0.618652 0.689941 0.577637 0.686768 0.615967 0.590088 0 0.61792 0.009033 0.594482 0.037109 0.590088 0 0.594482 0.037109 0.541992 0.013428 0.490479 0.047119 0.482422 0.010986 0.541992 0.013428 0.541992 0.013428 0.594482 0.037109 0.544434 0.058594 0.541992 0.013428 0.544434 0.058594 0.490479 0.047119 0.544434 0.058594 0.594482 0.037109 0.597168 0.074951 0.597168 0.074951 0.594482 0.037109 0.619141 0.049072 0.490479 0.047119 0.544434 0.058594 0.537109 0.106934 0.537109 0.106934 0.544434 0.058594 0.597168 0.074951 0.490479 0.047119 0.537109 0.106934 0.486084 0.102783 0.486084 0.102783 0.537109 0.106934 0.486084 0.134521 0.486084 0.134521 0.537109 0.106934 0.545654 0.1604 0.486084 0.134521 0.545654 0.1604 0.457764 0.160156 0.537109 0.106934 0.597168 0.074951 0.595215 0.130127 0.595215 0.130127 0.597168 0.074951 0.62207 0.091064 0.537109 0.106934 0.595215 0.130127 0.545654 0.1604 0.457764 0.160156 0.545654 0.1604 0.489502 0.196289 0.489502 0.196289 0.545654 0.1604 0.553223 0.197754 0.489502 0.196289 0.553223 0.197754 0.513184 0.238281 0.545654 0.1604 0.595215 0.130127 0.598877 0.178223 0.545654 0.1604 0.598877 0.178223 0.553223 0.197754 0.598877 0.178223 0.595215 0.130127 0.621582 0.139893 0.553223 0.197754 0.598877 0.178223 0.604248 0.230713 0.598877 0.178223 0.621582 0.139893 0.623535 0.16626 0.604248 0.230713 0.598877 0.178223 0.625 0.193359 0.625 0.193359 0.598877 0.178223 0.623535 0.16626 0.22998 0.165771 0.187988 0.137939 0.314453 0.000488 0.187988 0.137939 0.22998 0.165771 0.174316 0.157715 0.22998 0.165771 0.314453 0.000488 0.250977 0.18335 0.22998 0.165771 0.250977 0.18335 0.215088 0.188232 0.215088 0.188232 0.250977 0.18335 0.240723 0.202637 0.240723 0.202637 0.250977 0.18335 0.30542 0.366699 0.240723 0.202637 0.30542 0.366699 0.218262 0.216553 0.117676 0.274658 0.121582 0.303955 0.114502 0.304688 0.117676 0.274658 0.114502 0.304688 0.092529 0.269043 0.117676 0.274658 0.092529 0.269043 0.075684 0.109619 0.121582 0.303955 0.117676 0.274658 0.276611 0.364014 0.121582 0.303955 0.276611 0.364014 0.105225 0.336914 0.20166 0.575684 0.032471 0.575684 0.199219 0.549072 0.849609 0.080566 0.888428 0.078857 0.89624 0.226318 0.89624 0.226318 0.888428 0.078857 0.931152 0.218262 0.658447 0.263916 0.679932 0.226807 0.682861 0.263916 0.658447 0.263916 0.682861 0.263916 0.659424 0.301514 0.659424 0.301514 0.682861 0.263916 0.682617 0.30127 0.659424 0.301514 0.682617 0.30127 0.681396 0.340332 0.658447 0.263916 0.659424 0.301514 0.614746 0.268311 0.658447 0.263916 0.614746 0.268311 0.615479 0.228027 0.659424 0.301514 0.681396 0.340332 0.656738 0.336426 0.656738 0.336426 0.681396 0.340332 0.674561 0.388428 0.614746 0.268311 0.659424 0.301514 0.610352 0.313721 0.610352 0.313721 0.659424 0.301514 0.656738 0.336426 0.578125 0.24292 0.614746 0.268311 0.565674 0.27002 0.565674 0.27002 0.614746 0.268311 0.610352 0.313721 0.565674 0.27002 0.610352 0.313721 0.568359 0.312256 0.568359 0.312256 0.610352 0.313721 0.562988 0.35791 0.656738 0.336426 0.674561 0.388428 0.651611 0.384033 0.562988 0.35791 0.610352 0.313721 0.614258 0.349854 0.614258 0.349854 0.610352 0.313721 0.656738 0.336426 0.614258 0.349854 0.656738 0.336426 0.651611 0.384033 0.562988 0.35791 0.614258 0.349854 0.609863 0.387207 0.609863 0.387207 0.614258 0.349854 0.651611 0.384033 0.651611 0.384033 0.674561 0.388428 0.66748 0.424072 0.609863 0.387207 0.651611 0.384033 0.616211 0.436523 0.609863 0.387207 0.616211 0.436523 0.585938 0.411865 0.616211 0.436523 0.651611 0.384033 0.641113 0.431152 0.641113 0.431152 0.651611 0.384033 0.66748 0.424072 0.641113 0.431152 0.66748 0.424072 0.654053 0.462646 0.262451 0.812988 0.307861 0.794922 0.306396 0.820801 0.306396 0.820801 0.307861 0.794922 0.332275 0.822266 0.307861 0.794922 0.262451 0.812988 0.268066 0.790527 0.332275 0.822266 0.307861 0.794922 0.347412 0.796143 0.332275 0.822266 0.347412 0.796143 0.359863 0.82251 0.307861 0.794922 0.268066 0.790527 0.30127 0.746094 0.30127 0.746094 0.268066 0.790527 0.251709 0.738281 0.30127 0.746094 0.251709 0.738281 0.303223 0.702881 0.307861 0.794922 0.30127 0.746094 0.338379 0.74707 0.338379 0.74707 0.30127 0.746094 0.303223 0.702881 0.307861 0.794922 0.338379 0.74707 0.347412 0.796143 0.338379 0.74707 0.303223 0.702881 0.340332 0.695312 0.38501 0.795898 0.359863 0.82251 0.347412 0.796143 0.359863 0.82251 0.38501 0.795898 0.386475 0.821289 0.347412 0.796143 0.338379 0.74707 0.378662 0.75 0.347412 0.796143 0.378662 0.75 0.38501 0.795898 0.378662 0.75 0.338379 0.74707 0.37915 0.69751 0.386475 0.821289 0.38501 0.795898 0.413574 0.819824 0.378662 0.75 0.37915 0.69751 0.430176 0.713379 0.378662 0.75 0.430176 0.713379 0.429932 0.754883 0.378662 0.75 0.429932 0.754883 0.38501 0.795898 0.429932 0.754883 0.430176 0.713379 0.481934 0.745605 0.429932 0.754883 0.481934 0.745605 0.473877 0.809814 0.38501 0.795898 0.429932 0.754883 0.426514 0.802002 0.38501 0.795898 0.426514 0.802002 0.413574 0.819824 0.426514 0.802002 0.429932 0.754883 0.473877 0.809814 0.413574 0.819824 0.426514 0.802002 0.450684 0.819092 0.450684 0.819092 0.426514 0.802002 0.473877 0.809814 0.627441 0.683838 0.571045 0.645508 0.621094 0.624756 0.621094 0.624756 0.571045 0.645508 0.571533 0.591309 0.571533 0.591309 0.571045 0.645508 0.510254 0.587646 0.621094 0.624756 0.571533 0.591309 0.635498 0.568848 0.621094 0.624756 0.635498 0.568848 0.667969 0.620361 0.571533 0.591309 0.510254 0.587646 0.553467 0.553955 0.553467 0.553955 0.510254 0.587646 0.513428 0.539795 0.553467 0.553955 0.513428 0.539795 0.514893 0.498047 0.553467 0.553955 0.514893 0.498047 0.573975 0.503906 0.571533 0.591309 0.553467 0.553955 0.603271 0.541504 0.571533 0.591309 0.603271 0.541504 0.635498 0.568848 0.603271 0.541504 0.553467 0.553955 0.573975 0.503906 0.635498 0.568848 0.603271 0.541504 0.654541 0.532471 0.603271 0.541504 0.573975 0.503906 0.61792 0.481689 0.603271 0.541504 0.61792 0.481689 0.654541 0.532471 0.61792 0.481689 0.573975 0.503906 0.575439 0.456787 0.654541 0.532471 0.61792 0.481689 0.664062 0.494629 0.664062 0.494629 0.61792 0.481689 0.63623 0.446289 0.856201 0.999756 0.872559 0.916748 0.898682 0.996094 0.872559 0.916748 0.856201 0.999756 0.836914 0.950195 0.836914 0.950195 0.856201 0.999756 0.796875 0.976074 0.836914 0.950195 0.796875 0.976074 0.813477 0.924561 0.836914 0.950195 0.813477 0.924561 0.872559 0.916748 0.813477 0.924561 0.796875 0.976074 0.763916 0.959961 0.813477 0.924561 0.763916 0.959961 0.76001 0.90918 0.872559 0.916748 0.813477 0.924561 0.818848 0.884521 0.818848 0.884521 0.813477 0.924561 0.76001 0.90918 0.872559 0.916748 0.818848 0.884521 0.85083 0.838623 0.872559 0.916748 0.85083 0.838623 0.896729 0.869873 0.896729 0.869873 0.85083 0.838623 0.901855 0.827148 0.85083 0.838623 0.818848 0.884521 0.797852 0.844727 0.797852 0.844727 0.818848 0.884521 0.76001 0.90918 0.797852 0.844727 0.76001 0.90918 0.75708 0.851318 0.75708 0.851318 0.76001 0.90918 0.713135 0.868652 0.713135 0.868652 0.76001 0.90918 0.705078 0.904541 0.811523 0.529785 0.864502 0.547119 0.80249 0.580811 0.698486 0.275391 0.75415 0.294678 0.720459 0.311523 0.720459 0.311523 0.75415 0.294678 0.743896 0.338867 0.743896 0.338867 0.75415 0.294678 0.775391 0.36084 0.743896 0.338867 0.775391 0.36084 0.714355 0.367676 0.775391 0.36084 0.75415 0.294678 0.809326 0.327881 0.80957 0.273682 0.75415 0.294678 0.753662 0.259277 0.75415 0.294678 0.80957 0.273682 0.809326 0.327881 0.775391 0.36084 0.809326 0.327881 0.820801 0.374268 0.775391 0.36084 0.820801 0.374268 0.815918 0.40332 0.815918 0.40332 0.820801 0.374268 0.856201 0.402588 0.815918 0.40332 0.856201 0.402588 0.859375 0.450928 0.856201 0.402588 0.820801 0.374268 0.857422 0.349609 0.857422 0.349609 0.820801 0.374268 0.809326 0.327881 0.857422 0.349609 0.809326 0.327881 0.843018 0.304688 0.843018 0.304688 0.809326 0.327881 0.80957 0.273682 0.857422 0.349609 0.843018 0.304688 0.880371 0.308838 0.880371 0.308838 0.843018 0.304688 0.84668 0.253174 0.84668 0.253174 0.843018 0.304688 0.80957 0.273682 0.84668 0.253174 0.80957 0.273682 0.831299 0.227783 0.669922 0.791992 0.706055 0.791992 0.710693 0.843994 0.706055 0.791992 0.669922 0.791992 0.708984 0.746582 0.669922 0.791992 0.710693 0.843994 0.652832 0.83667 0.669922 0.791992 0.652832 0.83667 0.631104 0.78125 0.631104 0.78125 0.652832 0.83667 0.604736 0.80835 0.708984 0.746582 0.669922 0.791992 0.654785 0.729004 0.654785 0.729004 0.669922 0.791992 0.631104 0.78125 0.708984 0.746582 0.654785 0.729004 0.706055 0.692383 0.706055 0.692383 0.654785 0.729004 0.638428 0.690186 0.706055 0.692383 0.638428 0.690186 0.688965 0.637207 0.654785 0.729004 0.631104 0.78125 0.577148 0.746582 0.654785 0.729004 0.577148 0.746582 0.638428 0.690186 0.577148 0.746582 0.631104 0.78125 0.604736 0.80835 0.638428 0.690186 0.577148 0.746582 0.584961 0.689209 0.584961 0.689209 0.577148 0.746582 0.527344 0.727295 0.577148 0.746582 0.604736 0.80835 0.538086 0.779297 0.577148 0.746582 0.538086 0.779297 0.527344 0.727295 0.538086 0.779297 0.604736 0.80835 0.5271 0.824951 0.527344 0.727295 0.538086 0.779297 0.484863 0.771729</float_array>
          <technique_common>
            <accessor source="#AntiInflammatories-mesh-map-0-array" count="1500" stride="2">
              <param name="S" type="float"/>
              <param name="T" type="float"/>
            </accessor>
          </technique_common>
        </source>
        <vertices id="AntiInflammatories-mesh-vertices">
          <input semantic="POSITION" source="#AntiInflammatories-mesh-positions"/>
        </vertices>
        <polylist material="Material_-1-material" count="6">
          <input semantic="VERTEX" source="#AntiInflammatories-mesh-vertices" offset="0"/>
          <input semantic="NORMAL" source="#AntiInflammatories-mesh-normals" offset="1"/>
          <input semantic="TEXCOORD" source="#AntiInflammatories-mesh-map-0" offset="2" set="0"/>
          <vcount>3 3 3 3 3 3 3 3 3 3 3 3 3 3 3 3 3 3 3 3 3 3 3 3 3 3 3 3 3 3 3 3 3 3 3 3 3 3 3 3 3 3 3 3 3 3 3 3 3 3 3 3 3 3 3 3 3 3 3 3 3 3 3 3 3 3 3 3 3 3 3 3 3 3 3 3 3 3 3 3 3 3 3 3 3 3 3 3 3 3 3 3 3 3 3 3 3 3 3 3 3 3 3 3 3 3 3 3 3 3 3 3 3 3 3 3 3 3 3 3 3 3 3 3 3 3 3 3 3 3 3 3 3 3 3 3 3 3 3 3 3 3 3 3 3 3 3 3 3 3 3 3 3 3 3 3 3 3 3 3 3 3 3 3 3 3 3 3 3 3 3 3 3 3 3 3 3 3 3 3 3 3 3 3 3 3 3 3 3 3 3 3 3 3 3 3 3 3 3 3 3 3 3 3 3 3 3 3 3 3 3 3 3 3 3 3 3 3 3 3 3 3 3 3 3 3 3 3 3 3 3 3 3 3 3 3 3 3 3 3 3 3 3 3 3 3 3 3 3 3 3 3 3 3 3 3 3 3 3 3 3 3 3 3 3 3 3 3 3 3 3 3 3 3 3 3 3 3 3 3 3 3 3 3 3 3 3 3 3 3 3 3 3 3 3 3 3 3 3 3 3 3 3 3 3 3 3 3 3 3 3 3 3 3 3 3 3 3 3 3 3 3 3 3 3 3 3 3 3 3 3 3 3 3 3 3 3 3 3 3 3 3 3 3 3 3 3 3 3 3 3 3 3 3 3 3 3 3 3 3 3 3 3 3 3 3 3 3 3 3 3 3 3 3 3 3 3 3 3 3 3 3 3 3 3 3 3 3 3 3 3 3 3 3 3 3 3 3 3 3 3 3 3 3 3 3 3 3 3 3 3 3 3 3 3 3 3 3 3 3 3 3 3 3 3 3 3 3 3 3 3 3 3 3 3 3 3 3 3 3 3 3 3 3 3 3 3 3 3 3 3 3 3 3 3 3 3 3 3 3 3 3 3 3 3 3 3 3 3 3 3 3 3 3 3 3 3 3 3 3 3 3 3 3 3 3 3 3 3 3 3 3 3 3 3 3 3 3 3 3</vcount>
          <p>0 0 0 1 0 1 2 0 2 0 1 3 2 1 4 3 1 5 0 2 6 3 2 7 4 2 8 3 3 9 2 3 10 5 3 11 3 4 12 5 4 13 6 4 14 6 5 15 5 5 16 7 5 17 7 6 18 5 6 19 2 6 20 7 7 21 2 7 22 8 7 23 8 8 24 2 8 25 9 8 26 0 9 27 4 9 28 10 9 29 10 10 30 4 10 31 11 10 32 10 11 33 11 11 34 12 11 35 9 12 36 2 12 37 13 12 38 13 13 39 2 13 40 1 13 41 9 14 42 13 14 43 14 14 44 14 15 45 13 15 46 15 15 47 15 16 48 13 16 49 1 16 50 14 17 51 15 17 52 16 17 53 16 18 54 15 18 55 17 18 56 16 19 57 17 19 58 18 19 59 17 20 60 15 20 61 19 20 62 19 21 63 15 21 64 1 21 65 17 22 66 19 22 67 20 22 68 19 23 69 1 23 70 21 23 71 19 24 72 21 24 73 20 24 74 21 25 75 1 25 76 0 25 77 21 26 78 0 26 79 10 26 80 20 27 81 21 27 82 22 27 83 22 28 84 21 28 85 10 28 86 22 29 87 10 29 88 23 29 89 23 30 90 10 30 91 12 30 92 22 31 93 23 31 94 24 31 95 23 32 96 12 32 97 25 32 98 24 33 99 23 33 100 26 33 101 26 34 102 23 34 103 25 34 104 27 35 105 9 35 106 14 35 107 27 36 108 14 36 109 28 36 110 28 37 111 14 37 112 16 37 113 28 38 114 16 38 115 29 38 116 28 39 117 29 39 118 30 39 119 27 40 120 28 40 121 31 40 122 27 41 123 31 41 124 32 41 125 28 42 126 30 42 127 33 42 128 28 43 129 33 43 130 31 43 131 33 44 132 30 44 133 34 44 134 31 45 135 33 45 136 35 45 137 33 46 138 34 46 139 36 46 140 35 47 141 33 47 142 37 47 143 37 48 144 33 48 145 36 48 146 35 49 147 37 49 148 38 49 149 38 50 150 37 50 151 36 50 152 4 51 153 3 51 154 39 51 155 4 52 156 39 52 157 11 52 158 39 53 159 3 53 160 40 53 161 40 54 162 3 54 163 6 54 164 11 55 165 39 55 166 41 55 167 11 56 168 41 56 169 12 56 170 12 57 171 41 57 172 42 57 173 12 58 174 42 58 175 25 58 176 25 59 177 42 59 178 43 59 179 25 60 180 43 60 181 44 60 182 25 61 183 44 61 184 26 61 185 44 62 186 43 62 187 45 62 188 26 63 189 44 63 190 46 63 191 44 64 192 45 64 193 47 64 194 47 65 195 45 65 196 48 65 197 48 66 198 45 66 199 49 66 200 44 67 201 47 67 202 50 67 203 50 68 204 47 68 205 48 68 206 44 69 207 50 69 208 46 69 209 50 70 210 48 70 211 51 70 212 50 71 213 51 71 214 46 71 215 46 72 216 51 72 217 52 72 218 9 73 219 53 73 220 8 73 221 8 74 222 53 74 223 54 74 224 53 75 225 9 75 226 27 75 227 54 76 228 53 76 229 55 76 230 55 77 231 53 77 232 27 77 233 55 78 234 27 78 235 32 78 236 55 79 237 32 79 238 56 79 239 57 80 240 22 80 241 58 80 242 22 81 243 57 81 244 20 81 245 58 82 246 22 82 247 24 82 248 57 83 249 58 83 250 59 83 251 57 84 252 59 84 253 60 84 254 60 85 255 59 85 256 61 85 257 61 86 258 59 86 259 58 86 260 60 87 261 61 87 262 62 87 263 58 88 264 24 88 265 63 88 266 58 89 267 63 89 268 61 89 269 63 90 270 24 90 271 26 90 272 63 91 273 26 91 274 46 91 275 63 92 276 46 92 277 52 92 278 63 93 279 52 93 280 61 93 281 61 94 282 52 94 283 64 94 284 61 95 285 64 95 286 65 95 287 61 96 288 65 96 289 62 96 290 62 97 291 65 97 292 66 97 293 17 98 294 20 98 295 67 98 296 67 99 297 20 99 298 57 99 299 67 100 300 57 100 301 60 100 302 17 101 303 67 101 304 68 101 305 17 102 306 68 102 307 18 102 308 18 103 309 68 103 310 69 103 311 69 104 312 68 104 313 67 104 314 69 105 315 67 105 316 70 105 317 70 106 318 67 106 319 60 106 320 69 107 321 70 107 322 71 107 323 71 108 324 70 108 325 72 108 326 70 109 327 60 109 328 73 109 329 70 110 330 73 110 331 72 110 332 73 111 333 60 111 334 62 111 335 72 112 336 73 112 337 74 112 338 74 113 339 73 113 340 62 113 341 72 114 342 74 114 343 75 114 344 75 115 345 74 115 346 76 115 347 76 116 348 74 116 349 77 116 350 77 117 351 74 117 352 62 117 353 77 118 354 62 118 355 66 118 356 52 119 357 78 119 358 64 119 359 78 120 360 52 120 361 51 120 362 64 121 363 78 121 364 79 121 365 78 122 366 51 122 367 80 122 368 78 123 369 80 123 370 79 123 371 80 124 372 51 124 373 48 124 374 80 125 375 48 125 376 49 125 377 79 126 378 80 126 379 81 126 380 79 127 381 81 127 382 64 127 383 64 128 384 81 128 385 65 128 386 81 129 387 80 129 388 82 129 389 65 130 390 81 130 391 66 130 392 66 131 393 81 131 394 82 131 395 66 132 396 82 132 397 77 132 398 77 133 399 82 133 400 83 133 401 77 134 402 83 134 403 84 134 404 77 135 405 84 135 406 76 135 407 76 136 408 84 136 409 85 136 410 76 137 411 85 137 412 86 137 413 86 138 414 85 138 415 87 138 416 18 139 417 29 139 418 16 139 419 29 140 420 18 140 421 88 140 422 29 141 423 88 141 424 30 141 425 30 142 426 88 142 427 34 142 428 34 143 429 88 143 430 89 143 431 88 144 432 18 144 433 90 144 434 88 145 435 90 145 436 89 145 437 90 146 438 18 146 439 69 146 440 89 147 441 90 147 442 91 147 443 90 148 444 69 148 445 71 148 446 91 149 447 90 149 448 92 149 449 92 150 450 90 150 451 71 150 452 92 151 453 71 151 454 72 151 455 91 152 456 92 152 457 93 152 458 92 153 459 72 153 460 75 153 461 92 154 462 75 154 463 93 154 464 93 155 465 75 155 466 86 155 467 93 156 468 86 156 469 94 156 470 86 157 471 75 157 472 76 157 473 95 158 474 55 158 475 56 158 476 55 159 477 95 159 478 54 159 479 31 160 480 35 160 481 32 160 482 32 161 483 35 161 484 96 161 485 34 162 486 97 162 487 36 162 488 97 163 489 34 163 490 89 163 491 97 164 492 89 164 493 98 164 494 97 165 495 98 165 496 99 165 497 98 166 498 89 166 499 100 166 500 98 167 501 100 167 502 101 167 503 89 168 504 91 168 505 100 168 506 100 169 507 91 169 508 102 169 509 100 170 510 102 170 511 101 170 512 102 171 513 91 171 514 103 171 515 102 172 516 103 172 517 104 172 518 91 173 519 93 173 520 103 173 521 103 174 522 93 174 523 105 174 524 105 175 525 93 175 526 94 175 527 106 176 528 7 176 529 8 176 530 6 177 531 7 177 532 107 177 533 107 178 534 7 178 535 106 178 536 54 179 537 106 179 538 8 179 539 108 180 540 107 180 541 109 180 542 107 181 543 108 181 544 6 181 545 108 182 546 109 182 547 110 182 548 6 183 549 108 183 550 40 183 551 108 184 552 110 184 553 111 184 554 40 185 555 108 185 556 112 185 557 112 186 558 108 186 559 111 186 560 40 187 561 112 187 562 39 187 563 111 188 564 110 188 565 113 188 566 111 189 567 113 189 568 112 189 569 113 190 570 110 190 571 114 190 572 113 191 573 114 191 574 115 191 575 112 192 576 113 192 577 116 192 578 39 193 579 112 193 580 117 193 581 39 194 582 117 194 583 41 194 584 41 195 585 117 195 586 42 195 587 112 196 588 116 196 589 118 196 590 112 197 591 118 197 592 117 197 593 118 198 594 116 198 595 119 198 596 118 199 597 119 199 598 120 199 599 117 200 600 118 200 601 121 200 602 117 201 603 121 201 604 42 201 605 121 202 606 118 202 607 120 202 608 42 203 609 121 203 610 43 203 611 43 204 612 121 204 613 45 204 614 121 205 615 120 205 616 122 205 617 45 206 618 121 206 619 123 206 620 123 207 621 121 207 622 124 207 623 124 208 624 121 208 625 122 208 626 123 209 627 124 209 628 125 209 629 125 210 630 124 210 631 122 210 632 125 211 633 122 211 634 126 211 635 107 212 636 106 212 637 109 212 638 109 213 639 106 213 640 54 213 641 110 214 642 109 214 643 127 214 644 127 215 645 109 215 646 128 215 647 127 216 648 128 216 649 129 216 650 129 217 651 128 217 652 130 217 653 130 218 654 128 218 655 109 218 656 130 219 657 109 219 658 54 219 659 130 220 660 54 220 661 131 220 662 130 221 663 131 221 664 132 221 665 131 222 666 54 222 667 95 222 668 131 223 669 95 223 670 56 223 671 131 224 672 56 224 673 96 224 674 131 225 675 96 225 676 133 225 677 133 226 678 96 226 679 38 226 680 133 227 681 38 227 682 134 227 683 101 228 684 99 228 685 98 228 686 96 229 687 56 229 688 32 229 689 38 230 690 96 230 691 35 230 692 38 231 693 36 231 694 135 231 695 36 232 696 97 232 697 135 232 698 97 233 699 99 233 700 135 233 701 135 234 702 134 234 703 38 234 704 134 235 705 135 235 706 99 235 707 134 236 708 99 236 709 101 236 710 134 237 711 101 237 712 136 237 713 136 238 714 101 238 715 104 238 716 133 239 717 134 239 718 137 239 719 137 240 720 134 240 721 138 240 722 138 241 723 134 241 724 136 241 725 137 242 726 138 242 727 139 242 728 139 243 729 138 243 730 140 243 731 140 244 732 138 244 733 141 244 734 141 245 735 138 245 736 136 245 737 140 246 738 141 246 739 142 246 740 142 247 741 141 247 742 136 247 743 140 248 744 142 248 745 143 248 746 142 249 747 136 249 748 144 249 749 142 250 750 144 250 751 143 250 752 145 251 753 136 251 754 104 251 755 136 252 756 145 252 757 144 252 758 145 253 759 104 253 760 105 253 761 145 254 762 105 254 763 94 254 764 145 255 765 94 255 766 87 255 767 145 256 768 87 256 769 146 256 770 143 257 771 144 257 772 147 257 773 147 258 774 144 258 775 145 258 776 143 259 777 147 259 778 148 259 779 145 260 780 146 260 781 149 260 782 145 261 783 149 261 784 147 261 785 147 262 786 149 262 787 148 262 788 149 263 789 146 263 790 150 263 791 148 264 792 149 264 793 151 264 794 151 265 795 149 265 796 150 265 797 49 266 798 45 266 799 123 266 800 49 267 801 123 267 802 152 267 803 152 268 804 123 268 805 125 268 806 152 269 807 125 269 808 126 269 809 152 270 810 126 270 811 153 270 812 152 271 813 153 271 814 154 271 815 152 272 816 154 272 817 49 272 818 154 273 819 153 273 820 155 273 821 154 274 822 155 274 823 156 274 824 154 275 825 156 275 826 157 275 827 154 276 828 157 276 829 49 276 830 157 277 831 156 277 832 158 277 833 49 278 834 157 278 835 159 278 836 49 279 837 159 279 838 80 279 839 80 280 840 159 280 841 82 280 842 82 281 843 159 281 844 83 281 845 159 282 846 157 282 847 160 282 848 159 283 849 160 283 850 83 283 851 157 284 852 158 284 853 161 284 854 157 285 855 161 285 856 160 285 857 161 286 858 158 286 859 162 286 860 161 287 861 162 287 862 163 287 863 160 288 864 161 288 865 164 288 866 164 289 867 161 289 868 163 289 869 83 290 870 160 290 871 146 290 872 146 291 873 160 291 874 164 291 875 83 292 876 146 292 877 84 292 878 84 293 879 146 293 880 85 293 881 85 294 882 146 294 883 87 294 884 146 295 885 164 295 886 150 295 887 150 296 888 164 296 889 163 296 890 150 297 891 163 297 892 151 297 893 104 298 894 101 298 895 102 298 896 105 299 897 104 299 898 103 299 899 87 300 900 94 300 901 86 300 902 165 301 903 114 301 904 110 301 905 114 302 906 165 302 907 115 302 908 165 303 909 110 303 910 127 303 911 165 304 912 127 304 913 129 304 914 165 305 915 129 305 916 166 305 917 113 306 918 115 306 919 167 306 920 113 307 921 167 307 922 168 307 923 113 308 924 168 308 925 116 308 926 167 309 927 115 309 928 169 309 929 167 310 930 169 310 931 168 310 932 169 311 933 115 311 934 170 311 935 169 312 936 170 312 937 171 312 938 116 313 939 168 313 940 119 313 941 168 314 942 169 314 943 172 314 944 172 315 945 169 315 946 173 315 947 119 316 948 168 316 949 174 316 950 174 317 951 168 317 952 172 317 953 119 318 954 174 318 955 120 318 956 174 319 957 172 319 958 175 319 959 120 320 960 174 320 961 176 320 962 175 321 963 172 321 964 177 321 965 176 322 966 174 322 967 175 322 968 175 323 969 177 323 970 178 323 971 175 324 972 178 324 973 179 324 974 175 325 975 179 325 976 180 325 977 175 326 978 180 326 979 176 326 980 120 327 981 176 327 982 122 327 983 176 328 984 180 328 985 181 328 986 122 329 987 176 329 988 126 329 989 126 330 990 176 330 991 181 330 992 115 331 993 165 331 994 166 331 995 115 332 996 166 332 997 170 332 998 182 333 999 171 333 1000 170 333 1001 170 334 1002 166 334 1003 183 334 1004 170 335 1005 183 335 1006 182 335 1007 183 336 1008 166 336 1009 184 336 1010 184 337 1011 166 337 1012 129 337 1013 182 338 1014 183 338 1015 185 338 1016 185 339 1017 183 339 1018 184 339 1019 182 340 1020 185 340 1021 186 340 1022 186 341 1023 185 341 1024 187 341 1025 187 342 1026 185 342 1027 188 342 1028 187 343 1029 188 343 1030 189 343 1031 185 344 1032 184 344 1033 190 344 1034 190 345 1035 184 345 1036 191 345 1037 185 346 1038 190 346 1039 188 346 1040 189 347 1041 188 347 1042 192 347 1043 192 348 1044 188 348 1045 193 348 1046 192 349 1047 193 349 1048 194 349 1049 188 350 1050 190 350 1051 195 350 1052 188 351 1053 195 351 1054 193 351 1055 195 352 1056 190 352 1057 196 352 1058 193 353 1059 195 353 1060 197 353 1061 195 354 1062 196 354 1063 198 354 1064 197 355 1065 195 355 1066 199 355 1067 199 356 1068 195 356 1069 198 356 1070 191 357 1071 129 357 1072 130 357 1073 129 358 1074 191 358 1075 184 358 1076 191 359 1077 130 359 1078 200 359 1079 191 360 1080 200 360 1081 190 360 1082 190 361 1083 200 361 1084 196 361 1085 196 362 1086 200 362 1087 201 362 1088 196 363 1089 201 363 1090 198 363 1091 201 364 1092 132 364 1093 131 364 1094 201 365 1095 131 365 1096 133 365 1097 201 366 1098 133 366 1099 198 366 1100 132 367 1101 201 367 1102 200 367 1103 132 368 1104 200 368 1105 130 368 1106 198 369 1107 133 369 1108 199 369 1109 133 370 1110 137 370 1111 199 370 1112 199 371 1113 137 371 1114 139 371 1115 197 372 1116 199 372 1117 139 372 1118 197 373 1119 139 373 1120 202 373 1121 202 374 1122 139 374 1123 140 374 1124 202 375 1125 140 375 1126 143 375 1127 197 376 1128 202 376 1129 194 376 1130 197 377 1131 194 377 1132 193 377 1133 202 378 1134 143 378 1135 203 378 1136 203 379 1137 143 379 1138 148 379 1139 194 380 1140 202 380 1141 204 380 1142 204 381 1143 202 381 1144 203 381 1145 192 382 1146 194 382 1147 205 382 1148 205 383 1149 194 383 1150 204 383 1151 205 384 1152 204 384 1153 206 384 1154 206 385 1155 204 385 1156 207 385 1157 203 386 1158 148 386 1159 208 386 1160 207 387 1161 204 387 1162 209 387 1163 209 388 1164 204 388 1165 203 388 1166 209 389 1167 203 389 1168 208 389 1169 207 390 1170 209 390 1171 210 390 1172 210 391 1173 209 391 1174 208 391 1175 208 392 1176 148 392 1177 151 392 1178 210 393 1179 208 393 1180 211 393 1181 210 394 1182 211 394 1183 212 394 1184 211 395 1185 208 395 1186 213 395 1187 213 396 1188 208 396 1189 151 396 1190 213 397 1191 151 397 1192 163 397 1193 126 398 1194 214 398 1195 153 398 1196 153 399 1197 214 399 1198 155 399 1199 214 400 1200 126 400 1201 181 400 1202 155 401 1203 214 401 1204 215 401 1205 155 402 1206 215 402 1207 156 402 1208 214 403 1209 181 403 1210 216 403 1211 216 404 1212 181 404 1213 180 404 1214 216 405 1215 180 405 1216 217 405 1217 214 406 1218 216 406 1219 218 406 1220 218 407 1221 216 407 1222 217 407 1223 214 408 1224 218 408 1225 215 408 1226 218 409 1227 217 409 1228 219 409 1229 220 410 1230 156 410 1231 215 410 1232 156 411 1233 220 411 1234 158 411 1235 215 412 1236 218 412 1237 221 412 1238 215 413 1239 221 413 1240 220 413 1241 221 414 1242 218 414 1243 222 414 1244 158 415 1245 220 415 1246 162 415 1247 221 416 1248 222 416 1249 223 416 1250 221 417 1251 223 417 1252 224 417 1253 221 418 1254 224 418 1255 220 418 1256 224 419 1257 223 419 1258 211 419 1259 224 420 1260 211 420 1261 213 420 1262 220 421 1263 224 421 1264 225 421 1265 220 422 1266 225 422 1267 162 422 1268 225 423 1269 224 423 1270 213 423 1271 162 424 1272 225 424 1273 163 424 1274 163 425 1275 225 425 1276 213 425 1277 169 426 1278 171 426 1279 173 426 1280 173 427 1281 171 427 1282 226 427 1283 226 428 1284 171 428 1285 227 428 1286 173 429 1287 226 429 1288 177 429 1289 173 430 1290 177 430 1291 172 430 1292 226 431 1293 227 431 1294 228 431 1295 228 432 1296 227 432 1297 229 432 1298 228 433 1299 229 433 1300 230 433 1301 228 434 1302 230 434 1303 231 434 1304 226 435 1305 228 435 1306 232 435 1307 226 436 1308 232 436 1309 177 436 1310 232 437 1311 228 437 1312 231 437 1313 177 438 1314 232 438 1315 178 438 1316 232 439 1317 231 439 1318 233 439 1319 232 440 1320 233 440 1321 178 440 1322 233 441 1323 231 441 1324 234 441 1325 178 442 1326 233 442 1327 179 442 1328 179 443 1329 233 443 1330 235 443 1331 182 444 1332 227 444 1333 171 444 1334 227 445 1335 182 445 1336 236 445 1337 236 446 1338 182 446 1339 186 446 1340 236 447 1341 186 447 1342 237 447 1343 236 448 1344 237 448 1345 227 448 1346 237 449 1347 186 449 1348 187 449 1349 237 450 1350 187 450 1351 189 450 1352 227 451 1353 237 451 1354 238 451 1355 238 452 1356 237 452 1357 189 452 1358 227 453 1359 238 453 1360 239 453 1361 227 454 1362 239 454 1363 229 454 1364 229 455 1365 239 455 1366 230 455 1367 239 456 1368 238 456 1369 240 456 1370 240 457 1371 238 457 1372 189 457 1373 240 458 1374 189 458 1375 241 458 1376 241 459 1377 189 459 1378 205 459 1379 205 460 1380 189 460 1381 192 460 1382 179 461 1383 217 461 1384 180 461 1385 179 462 1386 235 462 1387 217 462 1388 217 463 1389 235 463 1390 219 463 1391 219 464 1392 235 464 1393 222 464 1394 219 465 1395 222 465 1396 218 465 1397 222 466 1398 235 466 1399 242 466 1400 234 467 1401 235 467 1402 233 467 1403 235 468 1404 234 468 1405 242 468 1406 222 469 1407 242 469 1408 243 469 1409 222 470 1410 243 470 1411 223 470 1412 223 471 1413 243 471 1414 244 471 1415 223 472 1416 244 472 1417 211 472 1418 244 473 1419 243 473 1420 245 473 1421 245 474 1422 243 474 1423 242 474 1424 245 475 1425 242 475 1426 246 475 1427 246 476 1428 242 476 1429 234 476 1430 245 477 1431 246 477 1432 247 477 1433 247 478 1434 246 478 1435 230 478 1436 230 479 1437 246 479 1438 234 479 1439 230 480 1440 234 480 1441 231 480 1442 248 481 1443 241 481 1444 205 481 1445 241 482 1446 248 482 1447 240 482 1448 248 483 1449 205 483 1450 206 483 1451 248 484 1452 206 484 1453 249 484 1454 249 485 1455 206 485 1456 207 485 1457 240 486 1458 248 486 1459 250 486 1460 250 487 1461 248 487 1462 249 487 1463 240 488 1464 250 488 1465 239 488 1466 239 489 1467 250 489 1468 247 489 1469 239 490 1470 247 490 1471 230 490 1472 250 491 1473 249 491 1474 251 491 1475 250 492 1476 251 492 1477 247 492 1478 251 493 1479 249 493 1480 207 493 1481 247 494 1482 251 494 1483 245 494 1484 245 495 1485 251 495 1486 244 495 1487 251 496 1488 207 496 1489 212 496 1490 251 497 1491 212 497 1492 244 497 1493 212 498 1494 207 498 1495 210 498 1496 244 499 1497 212 499 1498 211 499 1499</p>
        </polylist>
      </mesh>
    </geometry>
  </library_geometries>
  <library_visual_scenes>
    <visual_scene id="Scene" name="Scene">
      <node id="AntiInflammatories" name="AntiInflammatories" type="NODE">
        <scale sid="scale">1 1 1</scale>
        <translate sid="location">0 0 0</translate>
        <rotate sid="rotationX">1 0 0 0</rotate>
        <rotate sid="rotationY">0 1 0 87.5</rotate>
        <rotate sid="rotationZ">0 0 1 0</rotate>
        <instance_geometry url="#AntiInflammatories-mesh" name="AntiInflammatories">
          <bind_material>
            <technique_common>
            </technique_common>
          </bind_material>
        </instance_geometry>
      </node>
    </visual_scene>
  </library_visual_scenes>
  <scene>
    <instance_visual_scene url="#Scene"/>
  </scene>
</COLLADA>
