<?xml version="1.0" encoding="utf-8"?>
<COLLADA xmlns="http://www.collada.org/2005/11/COLLADASchema" version="1.4.1" xmlns:xsi="http://www.w3.org/2001/XMLSchema-instance">
  <asset>
    <contributor>
      <author>Blockbench user</author>
      <authoring_tool>Blockbench</authoring_tool>
    </contributor>
    <created>2025-11-08T10:39:10.699Z</created>
    <modified>2025-11-08T10:39:10.705Z</modified>
    <unit name="meter" meter="1.0"/>
    <up_axis>Y_UP</up_axis>
  </asset>
  <library_effects>
  </library_effects>
  <library_images>
  </library_images>
  <library_materials>
  </library_materials>
  <library_geometries>
    <geometry id="Bamboo-mesh" name="Bamboo">
      <mesh>
        <source id="Bamboo-mesh-positions">
          <float_array id="Bamboo-mesh-positions-array" count="744">0.003984 -0.271461 -0.237701 -0.002851 -0.299171 -0.313629 0.001944 -0.3021 -0.324646 -0.006476 -0.222114 -0.142517 -0.005701 -0.212333 -0.190292 0.005782 -0.211433 -0.185821 0.007068 -0.226997 -0.151199 0.01531 -0.4654 -0.009998 -0.006841 -0.4589 -0.014316 0.006514 -0.45951 -0.016552 -0.023626 -0.432868 -0.00157 -0.00305 -0.337653 -0.016029 0.023116 -0.430213 -0.005886 0.018906 -0.432899 -0.002895 -0.036708 -0.316108 0.001282 -0.03024 -0.336127 0.001723 -0.032676 -0.450446 0.023701 -0.029104 -0.337287 0.042568 -0.026283 -0.313392 0.057957 -0.007874 -0.33216 0.05616 -0.000865 -0.311225 -0.020901 -0.015302 -0.339149 -0.00621 0.021682 -0.334296 -0.003429 0.029593 -0.329475 -0.000509 0.03007 -0.337196 0.022453 -0.000905 -0.310035 -0.021957 -0.043117 -0.308082 0.009056 -0.012349 -0.300605 -0.026733 -0.0135 -0.285468 -0.006363 -0.029317 -0.28379 0.014536 0.011328 -0.286872 -0.007402 0.031003 -0.306312 -0.008968 0.029668 -0.283363 0.016115 0.01264 -0.300391 -0.028927 -0.006018 -0.280433 -0.042396 0.006095 -0.276618 -0.041832 -0.031841 -0.281135 0.002583 -0.00671 -0.288917 -0.014023 0.010901 -0.293189 -0.013782 0.046559 -0.304938 0.013156 0.030591 -0.277839 0.003132 -0.032333 -0.464973 0.009226 -0.030565 -0.33512 0.016959 0.032696 -0.463355 0.009843 0.031678 -0.451148 0.026179 -0.020629 -0.335639 0.04414 0.034703 -0.320167 0.033746 0.032834 -0.286079 0.036959 0.030381 -0.307655 0.053707 0.023431 -0.285743 0.039877 0.005374 -0.27848 0.057018 0.000991 -0.289222 0.053169 -0.007837 -0.300361 0.067032 -0.032104 -0.285804 0.041994 -0.031322 -0.306129 0.052119 -0.026614 -0.281257 0.033949 -0.028001 -0.08821 -0.000479 0.033391 -0.101371 0.013009 0.024235 -0.083205 -0.004112 -0.001196 -0.182014 -0.375 0.000218 -0.163322 -0.33139 0.002203 -0.187888 -0.335083 -0.007644 -0.208244 -0.175705 0.006483 -0.211951 -0.184662 0.00492 -0.173179 -0.209381 -0.007998 -0.193626 -0.167724 0.00362 -0.197883 -0.15393 -0.000256 -0.057937 -0.282226 -0.008295 -0.196403 -0.153839 -0.006164 -0.142966 -0.158294 0.006198 -0.164359 -0.188888 0.007259 -0.161399 -0.144928 0.003933 -0.197959 -0.152344 -0.000835 -0.191337 -0.129989 0.002435 -0.076148 -0.01548 -0.017463 -0.052871 -0.019237 0.036324 -0.05297 -0.00489 0.006975 -0.08068 -0.008814 0.025979 -0.081245 0.005285 -0.017198 -0.082633 -0.004108 0.038254 -0.052978 0.04337 0.02493 -0.080863 0.037457 0.032044 -0.095908 0.034564 0.017956 -0.073501 0.052593 -0.041732 -0.054809 0.008494 -0.035796 -0.075835 0.024309 -0.032466 -0.062499 0.04143 -0.029454 -0.085189 0.01858 -0.018352 -0.050758 0.06128 -0.018668 -0.080306 0.044306 0.000124 -0.018611 -0.010761 -0.030547 -0.027301 0.002335 -0.006712 -0.04013 -0.016975 -0.026857 -0.02449 0.001906 0.039971 -0.046394 0.004778 0.027825 -0.020137 0.004721 0.026999 -0.021884 0.036978 0.011404 -0.029636 0.050623 0.039513 -0.04306 0.044359 0.014525 -0.027133 -0.012081 0.007733 0.093873 -0.012138 0.03275 -0.024661 0.00764 0.032609 -0.020774 0.034781 -0.016853 0.095269 -0.008981 -0.021154 0.216409 -0.013969 -0.042274 -0.046508 0.035707 -0.028505 -0.021094 0.03477 -0.032375 -0.018172 0.035539 -0.033508 0.075719 0.026422 0.000926 0.196008 -0.011768 -0.029008 0.19706 0.005184 -0.025666 0.20115 0.040869 -0.009925 -0.018356 0.05065 -0.00553 0.197274 0.051932 0.019307 0.199838 0.046992 0.030307 0.198144 0.02601 0.025574 0.195672 0.002012 -0.024659 -0.439307 0.036774 -0.029878 -0.45423 0.038468 -0.009969 -0.450507 0.048701 -0.017753 -0.464332 0.051485 -0.000091 -0.463264 0.056969 0.01554 -0.466529 0.04895 0.000808 -0.334724 0.051319 0.022364 -0.433173 0.047148 0.019572 -0.334388 0.051104 0.027837 -0.447547 0.037192 0.020655 -0.335334 0.042877 0.017176 -0.311408 0.05975 -0.028201 -0.180885 0.041041 -0.007232 -0.097724 0.054493 -0.005491 -0.165153 0.049443 0.004441 -0.075126 0.050673 0.00592 -0.056663 0.062111 0.005921 -0.055495 0.063038 -0.00968 -0.042739 0.06976 -0.014722 -0.038505 0.058411 -0.002969 0.008763 0.127983 0.006747 -0.018218 0.09227 0.011937 -0.042945 0.069607 0.013524 -0.025355 0.054344 -0.006096 -0.00434 0.056149 -0.005463 0.029783 0.225968 0.004194 0.030791 0.190277 -0.004614 -0.014426 0.248261 0.003151 -0.032161 0.28125 0.004786 0.027294 0.235153 -0.000933 -0.002456 0.298126 0.000088 -0.074783 0.366699 -0.005862 0.032046 0.243653 0.001911 0.040274 0.220093 0.002786 0.013494 0.323975 -0.000112 -0.002315 0.443238 -0.000989 0.042518 0.348572 0.001095 0.30053 -0.327881 0.00041 0.241372 -0.41391 -0.002201 0.273263 -0.324493 0.002249 0.275002 -0.308227 -0.004066 0.331323 -0.240631 -0.007063 0.319756 -0.161285 -0.00031 0.29464 -0.210968 0.007545 0.321954 -0.158279 0.001637 0.194512 -0.211181 -0.003655 0.243829 -0.157638 0.000011 0.142587 -0.253448 0.002731 0.261926 -0.195038 -0.003796 0.286462 -0.171066 0.000387 0.312859 -0.122207 0.003995 0.27813 -0.125198 -0.000628 0.308404 -0.108383 0.012022 0.214791 -0.016002 0.032407 0.221627 -0.002313 -0.044982 0.227731 0.023505 -0.031539 0.201653 0.002598 0.014702 0.221536 -0.025451 -0.008121 0.238992 -0.018314 -0.013713 0.226846 -0.016399 -0.000691 0.31054 -0.106476 -0.002618 0.290643 -0.073318 0.009293 0.24743 -0.036415 -0.012905 0.233254 -0.032005 -0.019767 0.258477 -0.00721 -0.008249 0.24215 -0.017383 0.012792 0.256066 -0.008079 0.021687 0.231561 -0.012016 0.028697 0.260629 0.005654 0.013936 0.329369 -0.009598 -0.034332 0.231774 -0.006964 -0.030748 0.264428 0.019865 -0.034278 0.281548 0.013463 0.000034 0.245324 -0.050613 0.033925 0.200784 0.013122 0.030284 0.200082 0.039326 0.005313 0.197091 0.057194 -0.017051 0.198434 0.052502 0.045354 0.225472 0.021974 0.031396 0.223473 0.052834 -0.040229 0.234124 0.028007 -0.024125 0.261086 0.041405 -0.028238 0.277001 0.041468 -0.011441 0.223336 0.062283 -0.003896 0.26368 0.051432 -0.021201 0.232522 0.062405 -0.004108 0.266061 0.05642 0.028071 0.270593 0.042145 0.039567 0.238671 0.003529 0.040559 0.2342 0.03223 0.033219 0.273171 0.013108 0.029931 0.262719 0.027679 0.022237 0.23121 0.057595 0.019416 0.263009 0.045117 -0.000132 0.45736 -0.308227 -0.006614 0.340356 -0.147476 -0.004064 0.393487 -0.160156 0.003349 0.38424 -0.212585 0.002645 0.413262 -0.194565 0.00092 0.316491 -0.119232 0.007436 0.336419 -0.108978 -0.008168 0.335656 -0.110061 -0.014289 0.330132 -0.00951 -0.013247 0.495324 -0.010464 -0.029413 0.498833 0.005878 0.026011 0.500176 -0.002273 0.031243 0.500481 0.010865 0.030196 0.503014 0.035661 -0.024976 0.498528 -0.008665 -0.035033 0.503838 0.017617 -0.029647 0.502221 0.036516 -0.03485 0.202859 0.031579 -0.017989 0.217751 0.059708 0.00787 0.048667 0.171341 -0.000935 0.036713 0.18132 -0.008071 0.054519 0.173859 0.004526 0.101975 0.225983 -0.007216 0.050185 0.213028 -0.002891 0.126794 0.275452 -0.000234 0.15693 0.372193 0.0068 0.047465 0.206146 -0.005484 0.05355 0.253922 0.005473 0.05441 0.25856 -0.021787 0.494012 0.044401 -0.008286 0.384545 0.052376 0.020533 0.49331 0.046822 0.011232 0.383569 0.052693 -0.014456 0.494469 0.054199 0.007889 0.493005 0.053284 0.002415 0.424493 0.097321 0.00505 0.393823 0.05209</float_array>
          <technique_common>
            <accessor source="#Bamboo-mesh-positions-array" count="248" stride="3">
              <param name="X" type="float"/>
              <param name="Y" type="float"/>
              <param name="Z" type="float"/>
            </accessor>
          </technique_common>
        </source>
        <source id="Bamboo-mesh-normals">
          <float_array id="Bamboo-mesh-normals-array" count="1374">0.175408 -0.929812 0.323546 -0.575812 -0.749977 0.325539 -0.651758 0.612968 -0.446634 0.14694 0.826302 -0.543722 0.997164 -0.075202 0.003104 -0.026958 -0.888669 0.457757 0.99941 0.008608 -0.033252 0.503603 0.794818 0.338597 -0.152189 0.96875 0.195864 -0.999813 -0.007575 -0.01777 -0.131065 -0.818364 -0.559555 -0.315666 -0.573623 0.755852 -0.59749 0.007353 -0.801843 0.582287 -0.034255 -0.812261 0.290814 -0.022607 -0.956512 -0.132987 0.404735 -0.904712 0.656795 -0.229641 0.718251 -0.54393 -0.193726 -0.816462 -0.547015 -0.008905 -0.837075 -0.437324 -0.160788 -0.884814 -0.983387 0.000777 0.181518 -0.983496 -0.000412 0.180928 -0.395509 -0.463845 0.79273 -0.511439 -0.114713 -0.851628 0.49829 0.187701 0.846449 -0.131176 0.513849 0.847793 -0.075964 0.007539 0.997082 -0.450928 0.215303 0.866204 -0.571995 0.773818 0.27208 -0.409935 -0.755967 -0.510359 0.669039 -0.503418 0.546769 0.572621 -0.20953 0.792592 0.005183 -0.534005 0.845465 -0.309509 -0.38335 0.8702 -0.570594 -0.6208 0.537615 0.303809 -0.800301 -0.516931 -0.070446 -0.517421 -0.852826 -0.064928 -0.599211 -0.797954 0.177072 -0.431444 -0.884591 -0.235918 0.641099 0.730298 -0.175644 0.762234 -0.623016 -0.764517 0.170592 -0.62162 0.175736 0.684546 -0.70747 -0.503776 0.703187 0.501735 0.965751 0.259176 -0.012357 0.506787 0.799648 -0.322071 0.722791 0.437 -0.535354 0.616409 0.073208 -0.784015 0.460859 -0.197601 -0.865195 0.425 0.020977 -0.90495 -0.736759 -0.027374 -0.675601 0.837344 -0.043852 0.544915 -0.286023 -0.477074 -0.831018 0.830816 -0.023738 -0.55604 -0.651168 0.022441 0.758602 -0.996389 -0.084894 0.001346 0.999084 -0.015967 0.039699 -0.999188 0.014032 -0.037759 0.233297 0.027403 0.972019 -0.466418 -0.139301 0.873527 0.830472 -0.046277 0.555136 0.734854 0.556782 0.387276 0.969457 0.159881 -0.185987 0.859642 0.408794 -0.306436 0.938333 -0.03727 -0.343719 -0.974496 0.205809 0.089447 0.988541 0.011273 -0.150529 0.847457 0.525968 0.071929 0.907909 0.187704 0.374791 0.116329 -0.993007 -0.020124 -0.998873 -0.04619 -0.010903 -0.856132 -0.441274 -0.268914 0.605408 0.443949 0.660598 -0.348253 -0.576829 -0.73891 0.356599 0.202139 0.912128 -0.399285 0.569794 0.718266 0.02603 0.012329 -0.999585 -0.033026 -0.913563 0.405354 -0.561851 0.351439 0.748875 0.335682 -0.596273 -0.72923 -0.961432 0.092111 0.25916 0.909842 -0.342917 -0.233655 -0.918227 0.393973 0.040546 0.873618 -0.483071 -0.058609 -0.551778 -0.002254 -0.833988 0.997541 -0.011963 -0.069059 0.654621 -0.006757 -0.755927 0.993306 0.090965 -0.071196 -0.993238 0.114845 -0.01702 0.217623 -0.962794 -0.160211 0.996453 0.082787 -0.015109 0.999171 0.016584 -0.037166 -0.998765 0.002894 -0.049602 -0.759321 0.645603 0.08142 -0.771061 -0.31942 0.550849 -0.143159 0.905284 0.399957 0.026858 -0.907984 0.418144 0.995382 0.076825 0.057562 -0.329962 -0.934483 -0.133667 -0.999044 0.038046 -0.021522 -0.299263 -0.639354 -0.708285 0.998952 0.037237 -0.026618 0.471912 0.716334 0.513969 -0.010835 -0.735759 -0.677157 -0.152302 -0.956008 0.250705 0.977477 0.12166 0.172444 -0.956242 0.061972 0.285938 0.964628 -0.263558 -0.005535 -0.193806 0.479481 0.855884 0.257303 0.064328 -0.964187 0.40646 -0.185537 -0.894632 -0.281842 -0.382921 -0.879737 -0.255148 0.134651 0.95748 -0.522944 0.451496 0.722967 0.135499 0.449926 0.882727 -0.934041 0.355202 0.037413 -0.898887 0.436821 -0.034496 0.990041 -0.135087 -0.039616 0.594249 -0.243214 0.766625 0.699131 0.328934 0.634838 -0.741857 -0.128153 -0.658198 -0.929199 -0.350498 -0.117221 -0.964199 -0.0827 0.251952 0.758602 0.459836 0.461599 -0.835171 0.435013 0.33653 0.885112 0.221909 -0.409064 0.881809 0.227789 -0.412947 0.452005 -0.377034 0.808416 0.456028 -0.484719 0.746382 -0.432536 -0.120613 0.893513 -0.484952 -0.222494 0.845765 -0.906603 -0.419477 -0.045934 -0.708303 0.394329 -0.585501 -0.416824 -0.90617 0.071506 0.374564 -0.279091 -0.8842 0.217706 0.01176 -0.975944 0.677693 0.312808 -0.665495 0.948249 0.317138 -0.015741 0.958813 0.281826 -0.035381 -0.124458 0.049188 -0.991005 -0.129765 -0.045392 -0.990505 0.011898 -0.007359 -0.999902 -0.951816 0.014083 -0.306345 -0.789754 0.01844 0.613147 0.042247 0.007734 0.999077 0.886903 0.011775 -0.461806 0.681539 -0.289793 -0.671956 0.996894 -0.034169 0.070957 0.998118 0.004916 0.061128 0.191664 -0.007417 0.981432 0.797656 0.007838 0.603061 0.880223 -0.009054 0.474474 -0.446209 0.013051 -0.894834 -0.595948 -0.007082 0.802992 0.465201 0.011221 -0.885134 0.567821 -0.783771 -0.25156 0.876888 -0.471669 0.092712 -0.934876 0.325757 -0.141031 -0.99859 -0.016936 -0.05032 -0.629924 -0.001325 -0.776656 0.424498 0.002662 0.905425 0.492548 -0.008094 0.870248 0.998751 0.008969 0.049157 0.995699 -0.010192 -0.092082 0.648587 0.0126 -0.761036 0.480841 -0.004588 -0.876796 0.001858 0.005907 -0.999981 -0.194191 -0.008833 -0.980924 -0.661517 0.010917 -0.749851 -0.88595 -0.009794 -0.463677 -0.999596 0.01379 -0.02485 -0.980918 -0.007793 0.194264 -0.487917 0.005868 0.87287 -0.487613 0.005918 0.87304 0.902099 -0.344926 -0.259313 0.850842 0.004256 -0.525404 -0.98252 -0.000024 0.186158 0.643433 0.029339 -0.76494 -0.738813 -0.018728 0.673651 0.578366 -0.288875 -0.762918 0.385954 -0.386032 -0.837866 -0.298511 0.040257 0.953557 0.297208 -0.346506 -0.88972 -0.435581 -0.702251 -0.563128 0.022629 0.020494 -0.999534 0.448798 -0.043596 0.892569 0.427538 -0.024105 0.903676 0.879838 0.005836 0.475238 0.78066 -0.126646 0.611989 -0.685422 -0.006981 -0.728113 0.996175 -0.027793 0.082846 0.939125 -0.041393 0.341073 -0.947728 -0.044651 -0.315939 -0.53445 -0.026515 0.844784 0.182469 0.016898 0.983066 -0.391981 -0.027284 -0.919569 -0.322381 0.513797 -0.795037 0.317857 -0.008148 -0.948104 0.242615 0.555584 -0.795276 -0.951394 -0.003356 0.307958 -0.90875 -0.026442 -0.416502 -0.779565 0.479391 -0.403066 -0.733386 0.317337 -0.6012 0.799491 -0.13671 0.584914 0.763118 -0.023662 0.645826 0.144294 -0.335241 0.931017 0.024174 0.324898 -0.94544 -0.034988 -0.129205 0.991001 -0.999793 -0.018325 -0.008843 -0.807545 0.035388 0.588744 -0.621925 0.030243 0.782493 -0.369901 -0.01282 0.928983 0.990377 0.0035 -0.138353 -0.967329 0.004083 -0.253493 -0.508888 -0.006444 -0.860809 0.498477 0.024951 -0.866544 0.923223 -0.01672 -0.383901 0.269027 -0.016523 -0.962991 0.259533 -0.01544 -0.965611 -0.542257 -0.001057 -0.840212 -0.999277 -0.019972 -0.032345 0.572413 0.005281 -0.819948 0.59209 0.012607 0.805773 -0.481764 -0.020235 0.876067 -0.975371 -0.035854 0.217635 0.76706 -0.033252 0.640713 0.057995 0.017988 0.998155 -0.706421 -0.262259 0.657411 -0.072497 -0.15944 0.984542 0.331268 -0.273636 0.902987 0.148921 0.491364 -0.858128 0.508019 -0.119079 0.853075 0.11805 0.516105 -0.848351 -0.493355 0.399569 -0.772623 -0.359751 0.512035 -0.78 -0.634617 -0.7728 -0.00637 -0.917231 -0.239953 0.317977 0.246535 -0.739823 0.626005 -0.001223 -0.675808 0.737076 0.001842 -0.464433 0.885606 -0.131651 -0.406216 -0.904244 0.918044 -0.312069 -0.244556 -0.169763 -0.318767 -0.932507 0.627715 -0.405412 -0.664541 -0.461372 -0.732501 -0.500577 0.585813 0.500354 0.637549 0.575884 0.46684 0.671132 0.651745 -0.377364 -0.657894 -0.657868 0.234066 0.715837 -0.670457 0.216267 0.70973 0.127122 0.033538 0.99132 -0.198469 0.652496 0.73134 0.380178 0.667037 -0.640723 0.139399 0.807972 -0.572494 -0.953215 -0.150506 -0.262164 0.458564 -0.733212 -0.502115 0.999062 -0.040116 -0.016306 0.990309 0.06706 0.121617 0.992608 0.090585 0.080765 -0.150101 0.89913 0.411139 -0.997433 0.016033 0.069781 0.171987 0.982295 0.074277 0.253052 -0.936307 -0.243504 -0.126729 -0.885819 -0.44639 -0.997 0.045377 0.062705 -0.593507 -0.795845 -0.119916 0.994505 0.097875 0.03714 -0.997111 0.064656 0.039858 -0.991412 0.111311 -0.068649 -0.616352 -0.747232 0.248506 -0.989497 0.107617 -0.096512 -0.999214 0.018518 -0.035042 -0.896999 -0.431441 0.096183 -0.17464 0.975254 0.135575 0.040185 -0.889516 0.455134 0.999348 0.025532 -0.025515 0.999101 0.014501 -0.039828 0.915769 0.392731 -0.084436 0.868342 -0.481227 0.120014 -0.296992 -0.937477 0.181476 0.827663 -0.369659 0.422286 0.999606 -0.009936 -0.026248 -0.830837 0.259815 -0.492145 -0.999594 -0.011519 -0.026076 0.998224 -0.028698 0.052197 0.748611 0.554403 -0.363618 0.983848 0.114092 -0.137935 0.281712 -0.691712 0.664961 -0.645613 -0.443778 0.621485 -0.995525 0.082211 -0.046601 -0.062579 -0.029659 -0.997599 0.567565 -0.0464 -0.82202 0.428522 0.541798 0.723065 0.854199 0.146962 0.498744 -0.84471 -0.006377 -0.535186 0.068926 0.180453 0.981166 -0.434946 0.434702 0.788579 -0.598269 0.282455 0.749862 0.305156 0.009644 0.952254 -0.336639 -0.665066 -0.666604 0.227176 -0.595457 -0.770598 0.058457 -0.378861 -0.923606 -0.777268 -0.51854 -0.35633 0.852775 0.424487 0.30428 -0.017301 -0.53751 0.84308 -0.253664 -0.242519 0.936397 -0.562428 -0.32622 0.759773 0.189782 0.039293 -0.98104 0.438872 -0.231381 0.868248 0.798784 -0.431833 0.418884 -0.461836 0.337179 -0.820376 0.17752 0.764697 0.619456 0.627029 0.377958 0.681163 -0.673943 0.299022 0.675564 0.54785 0.420631 0.723139 -0.753389 0.251035 -0.607772 -0.072677 0.735866 0.673215 -0.994533 -0.004189 -0.10434 -0.627253 -0.001823 -0.778814 0.73356 0.0127 -0.679506 0.999968 -0.005357 0.005962 0.981236 -0.063385 -0.182096 0.296424 0.016188 -0.954919 0.990428 0.00759 0.137822 0.716578 -0.00681 0.697474 0.58101 0.01102 0.813822 0.081224 -0.009771 0.996648 -0.204951 0.006531 0.97875 -0.610878 -0.018768 0.791502 -0.90387 0.030528 0.426716 -0.824428 -0.052474 -0.56353 0.870173 -0.250744 -0.424178 -0.220664 0.97466 -0.036671 0.951832 -0.250153 0.177313 -0.982794 0.071038 -0.170498 0.874266 -0.36079 -0.324792 -0.952431 0.192077 0.236603 0.742417 -0.115514 -0.659904 0.453864 -0.309612 -0.835552 -0.869625 0.090848 0.485283 -0.376268 0.345195 0.859804 0.410552 -0.046734 0.910639 0.476098 -0.866261 -0.1514 0.547862 0.315886 -0.774637 0.974504 0.128179 0.184151 0.94715 0.320332 0.017164 -0.919316 -0.017284 0.393141 -0.938034 -0.336095 0.084448 0.799029 0.113298 0.590521 -0.797331 -0.37287 -0.474585 -0.757533 -0.295596 -0.582036 -0.252602 -0.372776 -0.892877 -0.998902 0.046387 -0.006516 -0.357497 -0.748162 -0.558972 0.999422 0.031755 -0.012098 -0.618823 0.727127 0.297226 -0.99702 0.020158 0.074468 -0.311611 -0.765161 -0.563407 0.959995 -0.237908 -0.147678 0.999042 0.037855 -0.021937 0.704565 0.547193 0.451849 -0.915637 -0.392406 -0.087324 -0.998563 0.039203 -0.03655 -0.040187 -0.446745 0.893758 -0.084137 0.655825 0.750209 0.990229 0.094004 0.103 -0.000697 0.089081 -0.996024 -0.760525 0.00589 -0.649282 0.70983 -0.009864 0.704304 0.927843 0.016948 0.372587 0.120184 0.034052 -0.992167 -0.998439 0.009402 0.055048 -0.651933 -0.009553 0.758216 0.908499 0.000533 -0.417887 0.027638 0.012972 0.999534 -0.003273 -0.005754 -0.999978 0.086082 0.019298 0.996101 -0.755673 0.025355 0.654458 -0.928571 0.041512 0.368825 0.928997 0.004424 -0.370061 0.999107 0.009092 0.041258 -0.708701 -0.041443 -0.704291 -0.933714 0.003519 -0.358003 -0.961863 -0.008376 0.273403 0.554653 0.827493 -0.087269 0.886946 0.379933 0.262635 0.999953 -0.005205 0.008213 0.27195 0.960258 0.062832 -0.152872 -0.004743 -0.988235 -0.993547 -0.005893 -0.113265 -0.76479 -0.034169 0.643373 -0.912292 -0.400066 -0.087579 -0.762093 -0.258458 0.593644 -0.811974 -0.147435 0.564766 -0.212418 -0.350574 0.912127 0.842019 0.521336 -0.13861 0.42714 -0.256078 -0.867165 0.720743 0.581703 -0.37703 -0.21269 0.231117 -0.949393 0.134281 0.030929 0.990461 -0.166626 0.316085 -0.933984 -0.753588 0.492941 -0.434873 -0.997705 0.064554 -0.020452 0.557907 -0.434756 0.706914 0.885241 -0.263452 0.38333 0.886083 -0.450024 0.111064 -0.645966 -0.690649 0.325165 0.112612 0.106528 0.987912 0.113555 0.348219 0.93051 -0.077119 -0.245483 -0.966328 -0.947995 0.27599 0.158539 -0.303222 -0.469081 -0.829469 0.153141 0.712015 -0.685261 -0.924818 -0.379783 -0.021835 -0.657154 0.629613 -0.41441 -0.999041 0.035437 0.025729 -0.998872 0.045616 0.013224 0.806905 -0.590665 0.004408 0.014821 -0.919211 0.393487 0.999042 0.030122 0.031754 0.109578 -0.827734 0.550318 0.999211 0.034575 0.019535 0.712276 0.664345 -0.226514 -0.953663 0.143142 -0.264646 -0.998889 -0.004826 0.046875 0.074892 0.933727 -0.350064 -0.128404 0.984334 0.120828 0.990156 -0.133297 -0.042703 0.9949 0.061937 0.079607 0.95641 0.01599 -0.291591 0.709241 0.001949 -0.704964 0.540645 0.005394 -0.841233 0.441619 0.023045 -0.896907 0.531916 0.000221 0.846797 0.750977 0.011553 0.660227 -0.856274 0.007977 -0.51646 -0.977572 -0.001485 0.210597 -0.756403 0.009648 0.654035 0.78371 0.179127 -0.594737 0.061337 0.993845 -0.092249 0.285514 -0.034562 -0.957751 0.983763 -0.145836 -0.104603 -0.499936 0.703005 -0.505814 -0.999096 0.002512 -0.042443 -0.765309 0.022212 -0.643279 -0.455234 0.008799 -0.890328 0.9847 -0.004143 0.174211 -0.26084 0.021199 -0.965149 0.408247 -0.024351 0.912547 -0.523203 0.010635 0.852142 -0.014551 0.033595 0.99933 -0.047928 -0.740883 0.669922 0.829425 0.483607 -0.279602 -0.111479 -0.008772 0.993728 -0.331079 -0.034222 0.942982 -0.404977 -0.007568 -0.914295 0.454891 0.009087 0.890501 -0.040249 0.010137 -0.999138</float_array>
          <technique_common>
            <accessor source="#Bamboo-mesh-normals-array" count="458" stride="3">
              <param name="X" type="float"/>
              <param name="Y" type="float"/>
              <param name="Z" type="float"/>
            </accessor>
          </technique_common>
        </source>
        <source id="Bamboo-mesh-map-0">
          <float_array id="Bamboo-mesh-map-0-array" count="2748">0.628906 0.094971 0.577393 0.102051 0.569824 0.098633 0.577393 0.102051 0.628906 0.094971 0.69751 0.10083 0.325195 0.010498 0.32959 0.003906 0.40332 0.000244 0.325195 0.010498 0.40332 0.000244 0.406494 0.010742 0.564941 0.11377 0.6875 0.109619 0.624756 0.115967 0.624756 0.115967 0.6875 0.109619 0.69458 0.11792 0.181396 0.943848 0.080322 0.930664 0.071045 0.907959 0.071045 0.907959 0.080322 0.930664 0.060059 0.9104 0.060059 0.9104 0.080322 0.930664 0.072021 0.938232 0.728516 0.928223 0.702393 0.946289 0.606445 0.926514 0.112793 0.910156 0.094971 0.88501 0.10791 0.893066 0.094971 0.88501 0.112793 0.910156 0.054688 0.876953 0.094971 0.88501 0.054688 0.876953 0.090088 0.759033 0.112793 0.910156 0.10791 0.893066 0.140137 0.863281 0.094971 0.88501 0.090088 0.759033 0.140137 0.863281 0.094971 0.88501 0.140137 0.863281 0.10791 0.893066 0.112793 0.910156 0.140137 0.863281 0.14502 0.869385 0.638916 0.714111 0.614746 0.711914 0.639404 0.685303 0.639404 0.685303 0.614746 0.711914 0.531006 0.705811 0.638916 0.714111 0.639404 0.685303 0.682373 0.593018 0.638916 0.714111 0.682373 0.593018 0.697998 0.705811 0.638916 0.714111 0.697998 0.705811 0.705566 0.732178 0.705566 0.732178 0.697998 0.705811 0.721436 0.728516 0.937988 0.001221 0.877441 0.045166 0.861328 0.000488 0.877441 0.045166 0.937988 0.001221 0.937256 0.058105 0.224121 0.065674 0.228027 0.101562 0.193359 0.071533 0.228027 0.101562 0.224121 0.065674 0.323486 0.073242 0.193359 0.071533 0.228027 0.101562 0.220703 0.104492 0.220703 0.104492 0.228027 0.101562 0.211182 0.131104 0.843506 0.185059 0.838623 0.286377 0.814941 0.20166 0.884277 0.217041 0.89209 0.266602 0.838623 0.286377 0.884277 0.217041 0.838623 0.286377 0.843506 0.185059 0.884277 0.217041 0.843506 0.185059 0.895264 0.173096 0.895264 0.173096 0.843506 0.185059 0.87085 0.125244 0.895264 0.173096 0.87085 0.125244 0.931152 0.129883 0.87085 0.125244 0.843506 0.185059 0.841064 0.146484 0.841064 0.146484 0.843506 0.185059 0.814941 0.20166 0.841064 0.146484 0.814941 0.20166 0.799316 0.161133 0.841064 0.146484 0.799316 0.161133 0.773682 0.144531 0.773682 0.144531 0.799316 0.161133 0.814941 0.20166 0.169189 0.342773 0.127197 0.381836 0.14917 0.328125 0.127197 0.381836 0.169189 0.342773 0.14209 0.427979 0.169189 0.342773 0.14917 0.328125 0.173584 0.28125 0.169189 0.342773 0.173584 0.28125 0.229248 0.309326 0.229248 0.309326 0.173584 0.28125 0.219238 0.267822 0.219238 0.267822 0.173584 0.28125 0.126709 0.188477 0.219238 0.267822 0.126709 0.188477 0.177246 0.221924 0.126709 0.188477 0.173584 0.28125 0.130371 0.251465 0.730713 0.976074 0.705811 0.968018 0.734131 0.940674 0.730713 0.976074 0.734131 0.940674 0.823975 0.979004 0.555176 0.811523 0.595947 0.826416 0.435791 0.826904 0.595947 0.826416 0.555176 0.811523 0.483154 0.710693 0.648926 0.125244 0.621826 0.165039 0.616943 0.162109 0.648926 0.125244 0.616943 0.162109 0.519043 0.130127 0.621826 0.165039 0.648926 0.125244 0.679688 0.247559 0.679688 0.247559 0.648926 0.125244 0.669189 0.130615 0.132568 0.633789 0.153076 0.477539 0.151367 0.617676 0.132568 0.633789 0.151367 0.617676 0.287842 0.653564 0.149658 0.76123 0.309814 0.741211 0.204834 0.793213 0.309814 0.741211 0.149658 0.76123 0.185791 0.740723 0.621094 0.41748 0.626221 0.387939 0.679688 0.513428 0.626221 0.387939 0.621094 0.41748 0.601318 0.405762 0.626221 0.387939 0.601318 0.405762 0.565918 0.383057 0.626221 0.387939 0.565918 0.383057 0.595703 0.374023 0.626221 0.387939 0.595703 0.374023 0.669678 0.253906 0.184814 0.904541 0.172607 0.925293 0.153076 0.918213 0.184814 0.904541 0.153076 0.918213 0.156738 0.778564 0.431641 0.451172 0.431641 0.51001 0.378418 0.477783 0.431641 0.451172 0.378418 0.477783 0.355469 0.43457 0.431641 0.451172 0.355469 0.43457 0.466064 0.416992 0.466064 0.416992 0.355469 0.43457 0.416016 0.382324 0.416016 0.382324 0.355469 0.43457 0.372559 0.389893 0.355469 0.43457 0.378418 0.477783 0.318115 0.492432 0.372559 0.389893 0.355469 0.43457 0.30542 0.397949 0.355469 0.43457 0.318115 0.492432 0.285156 0.456055 0.285156 0.456055 0.318115 0.492432 0.247314 0.511963 0.30542 0.397949 0.355469 0.43457 0.245605 0.424316 0.245605 0.424316 0.355469 0.43457 0.285156 0.456055 0.245605 0.424316 0.285156 0.456055 0.247314 0.511963 0.30542 0.397949 0.245605 0.424316 0.250977 0.368896 0.245605 0.424316 0.247314 0.511963 0.173096 0.45752 0.245605 0.424316 0.173096 0.45752 0.250977 0.368896 0.173096 0.45752 0.247314 0.511963 0.162354 0.509766 0.250977 0.368896 0.173096 0.45752 0.216064 0.373291 0.745605 0.918213 0.596436 0.918213 0.60498 0.896973 0.000488 0.340576 0.022949 0.212158 0.024414 0.349365 0.340332 0.836426 0.495605 0.836426 0.353271 0.854492 0.393799 0.090576 0.419678 0.106689 0.404785 0.114258 0.419678 0.106689 0.393799 0.090576 0.522705 0.091553 0.923828 0.937988 0.923828 0.8125 0.925049 0.838867 0.331299 0.052734 0.251953 0.030029 0.334717 0.030518 0.251953 0.030029 0.331299 0.052734 0.263428 0.056396 0.933105 0.082275 0.843994 0.065918 0.953613 0.067627 0.843994 0.065918 0.933105 0.082275 0.914551 0.103027 0.933105 0.082275 0.953613 0.067627 0.94458 0.08252 0.933105 0.082275 0.94458 0.08252 0.914551 0.103027 0.94458 0.08252 0.953613 0.067627 0.959229 0.093262 0.94458 0.08252 0.959229 0.093262 0.914551 0.103027 0.048584 0.928467 0.038818 0.934082 0.04126 0.803467 0.768799 0.942627 0.891113 0.954102 0.861816 0.9729 0.891113 0.954102 0.768799 0.942627 0.86084 0.942627 0.671143 0.972412 0.76001 0.996094 0.648438 0.989746 0.648438 0.989746 0.76001 0.996094 0.662354 0.999756 0.978027 0.695557 0.947754 0.699219 0.93457 0.688965 0.93457 0.688965 0.947754 0.699219 0.948242 0.712646 0.948242 0.712646 0.947754 0.699219 0.978027 0.695557 0.93457 0.688965 0.948242 0.712646 0.937256 0.746338 0.948242 0.712646 0.978027 0.695557 0.955322 0.736328 0.948242 0.712646 0.955322 0.736328 0.937256 0.746338 0.710449 0.384277 0.689209 0.39917 0.694092 0.352539 0.710449 0.384277 0.694092 0.352539 0.71875 0.364502 0.689209 0.39917 0.710449 0.384277 0.721191 0.412598 0.694092 0.352539 0.689209 0.39917 0.667969 0.374756 0.694092 0.352539 0.667969 0.374756 0.667236 0.354736 0.667969 0.374756 0.689209 0.39917 0.661377 0.394531 0.694092 0.352539 0.667236 0.354736 0.678467 0.315186 0.678467 0.315186 0.667236 0.354736 0.656494 0.330078 0.694092 0.352539 0.678467 0.315186 0.715088 0.308105 0.715088 0.308105 0.678467 0.315186 0.692383 0.293701 0.661377 0.394531 0.689209 0.39917 0.695068 0.429688 0.695068 0.429688 0.689209 0.39917 0.721191 0.412598 0.695068 0.429688 0.721191 0.412598 0.716797 0.436523 0.695068 0.429688 0.716797 0.436523 0.71167 0.454102 0.661377 0.394531 0.695068 0.429688 0.655518 0.415527 0.695068 0.429688 0.71167 0.454102 0.708008 0.476807 0.695068 0.429688 0.708008 0.476807 0.655518 0.415527 0.655518 0.415527 0.708008 0.476807 0.6604 0.438721 0.662109 0.820068 0.679688 0.83667 0.64502 0.834229 0.679688 0.83667 0.662109 0.820068 0.680908 0.834717 0.662109 0.820068 0.64502 0.834229 0.62915 0.795898 0.662109 0.820068 0.62915 0.795898 0.650146 0.79541 0.650146 0.79541 0.62915 0.795898 0.644775 0.768066 0.644775 0.768066 0.62915 0.795898 0.633789 0.749512 0.633789 0.749512 0.62915 0.795898 0.609131 0.760498 0.62915 0.795898 0.64502 0.834229 0.621826 0.828125 0.621826 0.828125 0.64502 0.834229 0.56665 0.915527 0.62915 0.795898 0.621826 0.828125 0.615479 0.802734 0.62915 0.795898 0.615479 0.802734 0.609131 0.760498 0.609131 0.760498 0.615479 0.802734 0.604492 0.778076 0.812256 0.461914 0.811523 0.378662 0.82666 0.380615 0.82666 0.380615 0.811523 0.378662 0.814697 0.304443 0.468262 0.80127 0.464844 0.814209 0.308105 0.803467 0.025879 0.653809 0.014648 0.781982 0.009033 0.644531 0.888672 0.656494 0.866943 0.652832 0.883301 0.504395 0.926025 0.6521 0.926025 0.804199 0.907959 0.653564 0.844482 0.399414 0.84668 0.529541 0.833984 0.516846 0.833984 0.516846 0.84668 0.529541 0.841553 0.550537 0.833984 0.516846 0.841553 0.550537 0.819336 0.518555 0.833984 0.516846 0.819336 0.518555 0.834961 0.392822 0.084229 0.346436 0.067871 0.343506 0.083496 0.209229 0.126465 0.807861 0.126465 0.658447 0.145752 0.806152 0.111816 0.121338 0.100342 0.253174 0.094971 0.118408 0.13208 0.338623 0.109375 0.346924 0.114258 0.204834 0.00415 0.49585 0.00415 0.358154 0.019775 0.359131 0.141846 0.441406 0.129639 0.581299 0.125488 0.436523 0.22168 1 0.215088 0.965332 0.225586 0.996826 0.215088 0.965332 0.22168 1 0.198242 0.98584 0.225586 0.996826 0.215088 0.965332 0.23999 0.971924 0.225586 0.996826 0.23999 0.971924 0.312744 0.998291 0.547363 0.065674 0.650146 0.083984 0.535889 0.091309 0.101074 0.501953 0.119385 0.505615 0.119385 0.636963 0.101074 0.501953 0.119385 0.636963 0.098145 0.637451 0.101074 0.501953 0.098145 0.637451 0.080811 0.503906 0.080811 0.503906 0.098145 0.637451 0.076172 0.639893 0.080811 0.503906 0.076172 0.639893 0.065918 0.505371 0.065918 0.505371 0.076172 0.639893 0.062256 0.637207 0.065918 0.505371 0.062256 0.637207 0.052979 0.498291 0.052979 0.498291 0.062256 0.637207 0.046631 0.638672 0.052979 0.498291 0.046631 0.638672 0.040283 0.50293 0.040283 0.50293 0.046631 0.638672 0.032227 0.637695 0.040283 0.50293 0.032227 0.637695 0.020508 0.503906 0.020508 0.503906 0.032227 0.637695 0.017334 0.635986 0.020508 0.503906 0.017334 0.635986 0 0.635986 0.020508 0.503906 0 0.635986 0.000977 0.504639 0.528809 0.313721 0.51416 0.326172 0.506348 0.309326 0.528809 0.313721 0.506348 0.309326 0.62793 0.235596 0.506348 0.309326 0.51416 0.326172 0.375977 0.35791 0.528809 0.313721 0.62793 0.235596 0.539062 0.338135 0.375977 0.35791 0.51416 0.326172 0.523193 0.349365 0.523193 0.349365 0.51416 0.326172 0.528809 0.313721 0.523193 0.349365 0.528809 0.313721 0.539062 0.338135 0.375977 0.35791 0.523193 0.349365 0.532959 0.371338 0.532959 0.371338 0.523193 0.349365 0.539062 0.338135 0.532959 0.371338 0.539062 0.338135 0.551025 0.383301 0.551025 0.383301 0.539062 0.338135 0.647217 0.254639 0.532959 0.371338 0.551025 0.383301 0.528564 0.418213 0.532959 0.371338 0.528564 0.418213 0.440918 0.499756 0.440918 0.499756 0.528564 0.418213 0.550537 0.414307 0.550537 0.414307 0.528564 0.418213 0.551025 0.383301 0.550537 0.414307 0.551025 0.383301 0.647949 0.509766 0.665527 0.522217 0.63208 0.673828 0.62915 0.531494 0.62915 0.531494 0.63208 0.673828 0.617188 0.535156 0.62915 0.531494 0.617188 0.535156 0.550049 0.430664 0.395996 0.947266 0.397217 0.971924 0.271729 0.971924 0.395996 0.947266 0.271729 0.971924 0.387207 0.921631 0.931396 0.490479 0.931152 0.618408 0.910645 0.615479 0.910645 0.615479 0.931152 0.618408 0.916992 0.643555 0.059082 0.318115 0.037354 0.318115 0.05249 0.206787 0.037354 0.318115 0.059082 0.318115 0.059082 0.343994 0.164062 0.598633 0.28418 0.574219 0.282959 0.596191 0.28418 0.574219 0.164062 0.598633 0.296143 0.556641 0.28418 0.574219 0.296143 0.556641 0.312256 0.568604 0.312256 0.568604 0.296143 0.556641 0.320557 0.534424 0.312256 0.568604 0.320557 0.534424 0.342285 0.54834 0.312256 0.568604 0.342285 0.54834 0.465088 0.601074 0.342285 0.54834 0.320557 0.534424 0.341064 0.497314 0.939209 0.757568 0.986816 0.819092 0.933594 0.820068 0.986816 0.819092 0.939209 0.757568 0.986084 0.760498 0.884277 0.461914 0.872803 0.310059 0.901855 0.307617 0.884277 0.461914 0.901855 0.307617 0.900146 0.38501 0.900146 0.38501 0.901855 0.307617 0.915771 0.447021 0.915771 0.447021 0.901855 0.307617 0.931396 0.314453 0.693604 0.132568 0.693604 0.279053 0.679199 0.134766 0.915039 0.89209 0.897705 0.897705 0.867188 0.749756 0.867188 0.749756 0.897705 0.897705 0.879639 0.904297 0.732422 0.124023 0.787109 0.107178 0.866211 0.114258 0.732422 0.124023 0.866211 0.114258 0.738037 0.14209 0.787109 0.107178 0.732422 0.124023 0.726807 0.108643 0.787109 0.107178 0.726807 0.108643 0.868652 0.091553 0.868652 0.091553 0.726807 0.108643 0.728271 0.092041 0.064941 0.260254 0.064941 0.124512 0.086182 0.126953 0.432861 0.053467 0.341309 0.053467 0.348633 0.029053 0.075928 0.495117 0.075928 0.35498 0.101074 0.489502 0.129395 0.034668 0.207764 0.024658 0.155518 0.049561 0.207764 0.024658 0.129395 0.034668 0.136719 0.021973 0.00293 0.249512 0.000244 0.125488 0.017822 0.113281 0.00293 0.249512 0.017822 0.113281 0.031494 0.13208 0.755859 0.073242 0.755859 0.011963 0.791992 0.067139 0.791992 0.067139 0.755859 0.011963 0.809082 0.038086 0.809082 0.038086 0.755859 0.011963 0.802979 0.007812 0.791992 0.067139 0.809082 0.038086 0.835205 0.083008 0.809082 0.038086 0.802979 0.007812 0.843506 0.000488 0.835205 0.083008 0.809082 0.038086 0.836182 0.049805 0.809082 0.038086 0.843506 0.000488 0.862549 0.038574 0.809082 0.038086 0.862549 0.038574 0.836182 0.049805 0.396973 0.722656 0.375244 0.717773 0.378418 0.694092 0.378418 0.694092 0.375244 0.717773 0.2854 0.780273 0.2854 0.780273 0.375244 0.717773 0.351318 0.759766 0.351318 0.759766 0.375244 0.717773 0.39917 0.743896 0.39917 0.743896 0.375244 0.717773 0.396973 0.722656 0.396973 0.722656 0.378418 0.694092 0.426758 0.707275 0.396973 0.722656 0.426758 0.707275 0.39917 0.743896 0.426758 0.707275 0.378418 0.694092 0.400635 0.671631 0.400635 0.671631 0.378418 0.694092 0.384521 0.640137 0.39917 0.743896 0.426758 0.707275 0.452148 0.736328 0.39917 0.743896 0.452148 0.736328 0.433594 0.762207 0.433594 0.762207 0.452148 0.736328 0.475098 0.76416 0.510254 0.682617 0.502197 0.662109 0.563965 0.638916 0.510254 0.682617 0.563965 0.638916 0.555176 0.685547 0.555176 0.685547 0.563965 0.638916 0.617188 0.679199 0.617188 0.679199 0.563965 0.638916 0.618164 0.641113 0.618164 0.641113 0.563965 0.638916 0.592529 0.60498 0.592529 0.60498 0.563965 0.638916 0.569824 0.553955 0.569824 0.553955 0.563965 0.638916 0.551758 0.476562 0.033936 0.670898 0.054199 0.647461 0.05249 0.696045 0.05249 0.696045 0.054199 0.647461 0.064453 0.723633 0.064453 0.723633 0.054199 0.647461 0.087646 0.67749 0.064453 0.723633 0.087646 0.67749 0.089111 0.724121 0.064453 0.723633 0.089111 0.724121 0.069336 0.787109 0.089111 0.724121 0.087646 0.67749 0.0979 0.672852 0.089111 0.724121 0.0979 0.672852 0.117188 0.699463 0.949951 0.525146 0.939697 0.533691 0.941895 0.491211 0.723877 0.003174 0.74707 0.011719 0.645508 0.008789 0.940186 0.141602 0.951416 0.218262 0.939941 0.194092 0.951416 0.218262 0.940186 0.141602 0.982666 0.175049 0.257812 0.10376 0.388428 0.105713 0.334961 0.116699 0.257812 0.10376 0.334961 0.116699 0.31665 0.136719 0.897949 0.806152 0.877686 0.730713 0.899658 0.655029 0.892578 1 0.844971 0.989014 0.883057 0.98291 0.883057 0.98291 0.844971 0.989014 0.886475 0.976807 0.892578 1 0.883057 0.98291 0.948486 0.998779 0.948486 0.998779 0.883057 0.98291 0.950439 0.953857 0.950439 0.953857 0.883057 0.98291 0.925049 0.947998 0.948486 0.998779 0.950439 0.953857 0.959229 0.946289 0.959229 0.946289 0.950439 0.953857 0.925049 0.947998 0.479492 0.975586 0.473633 0.953613 0.526611 0.969971 0.473633 0.953613 0.479492 0.975586 0.405762 0.947998 0.405762 0.947998 0.479492 0.975586 0.432129 0.983887 0.473633 0.953613 0.405762 0.947998 0.430908 0.93457 0.473633 0.953613 0.430908 0.93457 0.481934 0.95166 0.208008 0.052734 0.250977 0.056641 0.168457 0.056152 0.208008 0.052734 0.168457 0.056152 0.243408 0.031982 0.44873 0.026123 0.527588 0.024902 0.429688 0.033936 0.429688 0.033936 0.527588 0.024902 0.449463 0.051758 0.975098 0.622314 0.934814 0.680908 0.935547 0.63501 0.975098 0.622314 0.935547 0.63501 0.944824 0.623535 0.934814 0.680908 0.975098 0.622314 0.976807 0.640869 0.934814 0.680908 0.976807 0.640869 0.964111 0.660645 0.937744 0.341797 0.985596 0.335205 0.958496 0.343506 0.985596 0.335205 0.937744 0.341797 0.939453 0.333252 0.606201 0.022705 0.700439 0.047852 0.598877 0.048584 0.700439 0.047852 0.606201 0.022705 0.605713 0.002197 0.032227 0.974609 0.065186 0.96582 0.063477 0.997803 0.063477 0.997803 0.065186 0.96582 0.10791 0.995361 0.10791 0.995361 0.065186 0.96582 0.091797 0.957764 0.065186 0.96582 0.032227 0.974609 0.03125 0.949219 0.03125 0.949219 0.032227 0.974609 0.001465 0.965088 0.03125 0.949219 0.001465 0.965088 0.006348 0.93457 0.889893 0.471924 0.919434 0.455811 0.924316 0.470947 0.889893 0.471924 0.924316 0.470947 0.900391 0.608887 0.503418 0.045654 0.565674 0.023926 0.584473 0.047607 0.584473 0.047607 0.565674 0.023926 0.596924 0.015137 0.020752 0.055176 0.021484 0.077393 0.006348 0.025146 0.021484 0.077393 0.020752 0.055176 0.04248 0.010986 0.727783 0.558838 0.747803 0.587646 0.700195 0.569336 0.700195 0.569336 0.747803 0.587646 0.707764 0.595947 0.700195 0.569336 0.707764 0.595947 0.666504 0.567871 0.707764 0.595947 0.747803 0.587646 0.771484 0.70459 0.747803 0.587646 0.727783 0.558838 0.754883 0.540527 0.754883 0.540527 0.727783 0.558838 0.725586 0.526367 0.747803 0.587646 0.754883 0.540527 0.795898 0.519043 0.330078 0.061768 0.374756 0.072998 0.353271 0.093262 0.353271 0.093262 0.374756 0.072998 0.439209 0.063721 0.439209 0.063721 0.374756 0.072998 0.330078 0.061768 0.197754 0.113281 0.193115 0.144775 0.167969 0.122803 0.197754 0.113281 0.167969 0.122803 0.200684 0.098877 0.200684 0.098877 0.167969 0.122803 0.067627 0.10083 0.062988 0.490723 0.041992 0.429443 0.048828 0.351318 0.062988 0.490723 0.048828 0.351318 0.066406 0.415039 0.858398 0.910645 0.718994 0.890869 0.856934 0.894287 0.856934 0.894287 0.718994 0.890869 0.854736 0.877686 0.718994 0.890869 0.858398 0.910645 0.706055 0.899902 0.706055 0.899902 0.858398 0.910645 0.784424 0.915527 0.854736 0.877686 0.718994 0.890869 0.719482 0.874512 0.854736 0.877686 0.719482 0.874512 0.857422 0.861084 0.857422 0.861084 0.719482 0.874512 0.721436 0.855713 0.857422 0.861084 0.721436 0.855713 0.844727 0.848877 0.844727 0.848877 0.721436 0.855713 0.720703 0.841797 0.844727 0.848877 0.720703 0.841797 0.853271 0.828613 0.853271 0.828613 0.720703 0.841797 0.795654 0.823242 0.510742 0.016602 0.499512 0.000244 0.596924 0.005371 0.683594 0.058838 0.732422 0.054688 0.714111 0.095459 0.683594 0.058838 0.714111 0.095459 0.625244 0.062256 0.506348 0.138916 0.493652 0.222168 0.434814 0.231445 0.506348 0.138916 0.434814 0.231445 0.414551 0.146729 0.434814 0.231445 0.493652 0.222168 0.495361 0.255127 0.414551 0.146729 0.434814 0.231445 0.371338 0.142822 0.434814 0.231445 0.495361 0.255127 0.467285 0.310791 0.467285 0.310791 0.495361 0.255127 0.527832 0.281982 0.371338 0.142822 0.434814 0.231445 0.355225 0.203857 0.371338 0.142822 0.355225 0.203857 0.311768 0.146973 0.311768 0.146973 0.355225 0.203857 0.237549 0.137451 0.222656 0.858398 0.271973 0.851562 0.202148 0.895508 0.222656 0.858398 0.202148 0.895508 0.180176 0.812744 0.222656 0.858398 0.180176 0.812744 0.269043 0.783447 0.222656 0.858398 0.269043 0.783447 0.271973 0.851562 0.202148 0.895508 0.271973 0.851562 0.257568 0.91748 0.257568 0.91748 0.271973 0.851562 0.291748 0.900635 0.271973 0.851562 0.269043 0.783447 0.322754 0.833252 0.291748 0.900635 0.271973 0.851562 0.323242 0.89209 0.323242 0.89209 0.271973 0.851562 0.322754 0.833252 0.323242 0.89209 0.322754 0.833252 0.364746 0.89209 0.084717 0.942627 0.200684 0.963623 0.172607 0.97998 0.200684 0.963623 0.084717 0.942627 0.155518 0.950684 0.414551 0.000244 0.48584 0.002686 0.415771 0.020508 0.415771 0.020508 0.48584 0.002686 0.394775 0.031738 0.939941 0.277588 0.95874 0.304688 0.94043 0.32373 0.070068 0.018311 0.116943 0.018311 0.049072 0.025879 0.049072 0.025879 0.116943 0.018311 0.052734 0.039062 0.052734 0.039062 0.116943 0.018311 0.12085 0.038086 0.052734 0.039062 0.12085 0.038086 0.098145 0.04541 0.936035 0.930664 0.94165 0.918457 0.95752 0.93335 0.95752 0.93335 0.94165 0.918457 0.98584 0.919189 0.94165 0.918457 0.936035 0.930664 0.932861 0.91748 0.94165 0.918457 0.932861 0.91748 0.98584 0.919189 0.934814 0.828369 0.954834 0.828369 0.953125 0.83667 0.973633 0.353027 0.982666 0.366943 0.932861 0.385498 0.973633 0.353027 0.932861 0.385498 0.939941 0.353027 0.746338 0.514648 0.72998 0.517578 0.737305 0.346191 0.88916 0.916992 0.893555 0.933838 0.751465 0.93335 0.931152 0.149414 0.931152 0.303955 0.925781 0.247803 0.598389 0.93042 0.457275 0.918945 0.459961 0.906006 0.457275 0.918945 0.598389 0.93042 0.453369 0.930908 0.827393 0.709473 0.827393 0.551025 0.842773 0.684326 0.033447 0.354004 0.033447 0.493896 0.01416 0.494873 0.515381 0.537354 0.490234 0.622803 0.473389 0.607666 0.490234 0.622803 0.515381 0.537354 0.519775 0.643799 0.490234 0.622803 0.519775 0.643799 0.389648 0.596436 0.389648 0.596436 0.519775 0.643799 0.381104 0.614502 0.389648 0.596436 0.381104 0.614502 0.249756 0.632324 0.249756 0.632324 0.381104 0.614502 0.375488 0.633301 0.447998 0.913086 0.29248 0.913086 0.411377 0.89502 0.26123 0.289551 0.250488 0.300781 0.16333 0.137695 0.26123 0.289551 0.16333 0.137695 0.27002 0.283447 0.26123 0.289551 0.27002 0.283447 0.259033 0.296387 0.26123 0.289551 0.259033 0.296387 0.250488 0.300781 0.259033 0.296387 0.27002 0.283447 0.455811 0.312988 0.250488 0.300781 0.259033 0.296387 0.251953 0.306885 0.250488 0.300781 0.251953 0.306885 0.162598 0.423096 0.790039 0.814453 0.697021 0.822998 0.793213 0.791016 0.793213 0.791016 0.697021 0.822998 0.789062 0.768799 0.790039 0.814453 0.793213 0.791016 0.818359 0.808594 0.793213 0.791016 0.789062 0.768799 0.808838 0.769775 0.793213 0.791016 0.808838 0.769775 0.818359 0.808594 0.808838 0.769775 0.789062 0.768799 0.793701 0.747559 0.853516 0.817139 0.818359 0.808594 0.837646 0.788574 0.837646 0.788574 0.818359 0.808594 0.830566 0.768066 0.830566 0.768066 0.818359 0.808594 0.808838 0.769775 0.830566 0.768066 0.808838 0.769775 0.835938 0.745361 0.808838 0.769775 0.793701 0.747559 0.818604 0.727783 0.808838 0.769775 0.818604 0.727783 0.835938 0.745361 0.835938 0.745361 0.818604 0.727783 0.846924 0.730957 0.846924 0.730957 0.818604 0.727783 0.856689 0.706299 0.818604 0.727783 0.793701 0.747559 0.801514 0.721191 0.818604 0.727783 0.801514 0.721191 0.817871 0.70166 0.817871 0.70166 0.801514 0.721191 0.801514 0.700928 0.959717 0.448975 0.970215 0.451416 0.975098 0.48291 0.970215 0.451416 0.959717 0.448975 0.949707 0.422852 0.970215 0.451416 0.949707 0.422852 0.974609 0.398926 0.949707 0.422852 0.959717 0.448975 0.925537 0.446533 0.939453 0.268799 0.939453 0.226562 0.986084 0.269287 0.146484 0.702881 0.158447 0.681641 0.16626 0.696289 0.146484 0.702881 0.16626 0.696289 0.20752 0.732422 0.16626 0.696289 0.158447 0.681641 0.187256 0.66626 0.20752 0.732422 0.16626 0.696289 0.263428 0.726562 0.263428 0.726562 0.16626 0.696289 0.187256 0.66626 0.263428 0.726562 0.187256 0.66626 0.326904 0.707031 0.770752 0.161377 0.748779 0.183594 0.754395 0.160156 0.754395 0.160156 0.748779 0.183594 0.728271 0.181641 0.748779 0.183594 0.770752 0.161377 0.785156 0.224365 0.728271 0.181641 0.748779 0.183594 0.726807 0.329834 0.726807 0.329834 0.748779 0.183594 0.785156 0.224365 0.726807 0.329834 0.785156 0.224365 0.776611 0.265381 0.638428 0.986572 0.623535 0.970703 0.650879 0.947021 0.623535 0.970703 0.638428 0.986572 0.532959 0.985596 0.650879 0.947021 0.623535 0.970703 0.615479 0.963135 0.615479 0.963135 0.623535 0.970703 0.532959 0.985596 0.650879 0.947021 0.615479 0.963135 0.544434 0.939941 0.544434 0.939941 0.615479 0.963135 0.532959 0.985596 0.193604 0.920898 0.333496 0.933105 0.191162 0.934082 0.754883 0.527588 0.761963 0.355957 0.769287 0.362305 0.754883 0.527588 0.769287 0.362305 0.774902 0.440918 0.31665 0.013428 0.24292 0.013428 0.313232 0.000488 0.706299 0.286621 0.702148 0.208252 0.720215 0.128418 0.706299 0.286621 0.720215 0.128418 0.716553 0.293945 0.032227 0.691162 0.032227 0.827637 0.020264 0.826416 0.722412 0.767334 0.570068 0.717773 0.725342 0.746826 0.292969 0.667969 0.294189 0.682617 0.162109 0.648438 0.294189 0.682617 0.292969 0.667969 0.296143 0.674561 0.296143 0.674561 0.292969 0.667969 0.299805 0.656006 0.296143 0.674561 0.299805 0.656006 0.363037 0.675781 0.363037 0.675781 0.299805 0.656006 0.347168 0.642334 0.363037 0.675781 0.347168 0.642334 0.368652 0.667725 0.77832 0.287598 0.796143 0.288086 0.796143 0.458008 0.77832 0.287598 0.796143 0.458008 0.768555 0.29541 0.785645 0.553711 0.795898 0.553711 0.791992 0.717773 0.000244 0.882324 0.000244 0.746094 0.017578 0.88208 0.556396 0.119873 0.420898 0.119873 0.555908 0.105713 0.953857 0.908936 0.932861 0.908936 0.935791 0.841553 0.116943 0.053711 0.054443 0.070557 0.047119 0.054199 0.138916 0.074707 0.056641 0.093018 0.054688 0.079102 0.054688 0.079102 0.056641 0.093018 0.012939 0.091797 0.012939 0.091797 0.056641 0.093018 0.05127 0.099609 0.05127 0.099609 0.056641 0.093018 0.043701 0.169922 0.406006 0.654785 0.47876 0.68335 0.542236 0.729492 0.542236 0.729492 0.47876 0.68335 0.410156 0.631348 0.875244 0.112549 0.941895 0.112549 0.940918 0.121094 0.416992 0.136963 0.339111 0.130127 0.502686 0.128418</float_array>
          <technique_common>
            <accessor source="#Bamboo-mesh-map-0-array" count="1374" stride="2">
              <param name="S" type="float"/>
              <param name="T" type="float"/>
            </accessor>
          </technique_common>
        </source>
        <vertices id="Bamboo-mesh-vertices">
          <input semantic="POSITION" source="#Bamboo-mesh-positions"/>
        </vertices>
        <polylist material="Material_-1-material" count="6">
          <input semantic="VERTEX" source="#Bamboo-mesh-vertices" offset="0"/>
          <input semantic="NORMAL" source="#Bamboo-mesh-normals" offset="1"/>
          <input semantic="TEXCOORD" source="#Bamboo-mesh-map-0" offset="2" set="0"/>
          <vcount>3 3 3 3 3 3 3 3 3 3 3 3 3 3 3 3 3 3 3 3 3 3 3 3 3 3 3 3 3 3 3 3 3 3 3 3 3 3 3 3 3 3 3 3 3 3 3 3 3 3 3 3 3 3 3 3 3 3 3 3 3 3 3 3 3 3 3 3 3 3 3 3 3 3 3 3 3 3 3 3 3 3 3 3 3 3 3 3 3 3 3 3 3 3 3 3 3 3 3 3 3 3 3 3 3 3 3 3 3 3 3 3 3 3 3 3 3 3 3 3 3 3 3 3 3 3 3 3 3 3 3 3 3 3 3 3 3 3 3 3 3 3 3 3 3 3 3 3 3 3 3 3 3 3 3 3 3 3 3 3 3 3 3 3 3 3 3 3 3 3 3 3 3 3 3 3 3 3 3 3 3 3 3 3 3 3 3 3 3 3 3 3 3 3 3 3 3 3 3 3 3 3 3 3 3 3 3 3 3 3 3 3 3 3 3 3 3 3 3 3 3 3 3 3 3 3 3 3 3 3 3 3 3 3 3 3 3 3 3 3 3 3 3 3 3 3 3 3 3 3 3 3 3 3 3 3 3 3 3 3 3 3 3 3 3 3 3 3 3 3 3 3 3 3 3 3 3 3 3 3 3 3 3 3 3 3 3 3 3 3 3 3 3 3 3 3 3 3 3 3 3 3 3 3 3 3 3 3 3 3 3 3 3 3 3 3 3 3 3 3 3 3 3 3 3 3 3 3 3 3 3 3 3 3 3 3 3 3 3 3 3 3 3 3 3 3 3 3 3 3 3 3 3 3 3 3 3 3 3 3 3 3 3 3 3 3 3 3 3 3 3 3 3 3 3 3 3 3 3 3 3 3 3 3 3 3 3 3 3 3 3 3 3 3 3 3 3 3 3 3 3 3 3 3 3 3 3 3 3 3 3 3 3 3 3 3 3 3 3 3 3 3 3 3 3 3 3 3 3 3 3 3 3 3 3 3 3 3 3 3 3 3 3 3 3 3 3 3 3 3 3 3 3 3 3 3 3 3</vcount>
          <p>0 0 0 1 0 1 2 0 2 1 1 3 0 1 4 3 1 5 2 2 6 1 2 7 4 2 8 2 3 9 4 3 10 5 3 11 2 4 12 6 4 13 0 4 14 0 5 15 6 5 16 3 5 17 2 6 18 5 6 19 6 6 20 6 7 21 5 7 22 3 7 23 3 8 24 5 8 25 4 8 26 3 9 27 4 9 28 1 9 29 7 10 30 8 10 31 9 10 32 8 11 33 7 11 34 10 11 35 8 12 36 10 12 37 11 12 38 7 13 39 9 13 40 12 13 41 8 14 42 11 14 43 12 14 44 8 15 45 12 15 46 9 15 47 7 16 48 12 16 49 13 16 50 14 17 51 11 17 52 15 17 53 15 18 54 11 18 55 10 18 56 14 19 57 15 19 58 16 19 59 14 20 60 16 20 61 17 20 62 14 21 63 17 21 64 18 21 65 18 22 66 17 22 67 19 22 68 14 23 69 20 23 70 11 23 71 20 24 72 14 24 73 21 24 74 21 25 75 22 25 76 20 25 77 22 26 78 21 26 79 13 26 80 20 27 81 22 27 82 23 27 83 23 28 84 22 28 85 24 28 86 25 29 87 26 29 88 27 29 89 28 30 90 29 30 91 26 30 92 28 31 93 26 31 94 25 31 95 28 32 96 25 32 97 30 32 98 30 33 99 25 33 100 31 33 101 30 34 102 31 34 103 32 34 104 31 35 105 25 35 106 33 35 107 33 36 108 25 36 109 27 36 110 33 37 111 27 37 112 34 37 113 33 38 114 34 38 115 35 38 116 35 39 117 34 39 118 27 39 119 27 40 120 36 40 121 37 40 122 36 41 123 27 41 124 26 41 125 27 42 126 37 42 127 38 42 128 27 43 129 38 43 130 35 43 131 35 44 132 38 44 133 33 44 134 33 45 135 38 45 136 39 45 137 33 46 138 39 46 139 31 46 140 39 47 141 38 47 142 40 47 143 11 48 144 20 48 145 23 48 146 11 49 147 23 49 148 12 49 149 10 50 150 41 50 151 15 50 152 41 51 153 10 51 154 42 51 155 43 52 156 13 52 157 12 52 158 43 53 159 12 53 160 23 53 161 13 54 162 43 54 163 22 54 164 22 55 165 43 55 166 44 55 167 41 56 168 42 56 169 16 56 170 41 57 171 16 57 172 15 57 173 7 58 174 21 58 175 10 58 176 21 59 177 7 59 178 13 59 179 21 60 180 42 60 181 10 60 182 42 61 183 21 61 184 14 61 185 42 62 186 14 62 187 18 62 188 42 63 189 18 63 190 45 63 191 42 64 192 45 64 193 16 64 194 23 65 195 24 65 196 46 65 197 23 66 198 46 66 199 43 66 200 39 67 201 40 67 202 47 67 203 39 68 204 47 68 205 48 68 206 39 69 207 48 69 208 31 69 209 31 70 210 48 70 211 32 70 212 32 71 213 48 71 214 49 71 215 48 72 216 47 72 217 50 72 218 49 73 219 48 73 220 51 73 221 48 74 222 50 74 223 52 74 224 52 75 225 50 75 226 53 75 227 51 76 228 48 76 229 54 76 230 54 77 231 48 77 232 52 77 233 54 78 234 52 78 235 53 78 236 51 79 237 54 79 238 55 79 239 54 80 240 53 80 241 26 80 242 54 81 243 26 81 244 55 81 245 26 82 246 53 82 247 36 82 248 55 83 249 26 83 250 29 83 251 56 84 252 37 84 253 36 84 254 40 85 255 57 85 256 47 85 257 38 86 258 58 86 259 40 86 260 59 87 261 60 87 262 61 87 263 60 88 264 59 88 265 62 88 266 63 89 267 59 89 268 61 89 269 60 90 270 63 90 271 61 90 272 63 91 273 60 91 274 64 91 275 65 92 276 60 92 277 62 92 278 60 93 279 65 93 280 64 93 281 65 94 282 62 94 283 66 94 284 65 95 285 66 95 286 64 95 287 66 96 288 62 96 289 63 96 290 66 97 291 63 97 292 64 97 293 63 98 294 62 98 295 59 98 296 67 99 297 68 99 298 69 99 299 68 100 300 67 100 301 70 100 302 70 101 303 67 101 304 71 101 305 71 102 306 67 102 307 69 102 308 70 103 309 72 103 310 68 103 311 68 104 312 72 104 313 73 104 314 73 105 315 72 105 316 70 105 317 68 106 318 73 106 319 69 106 320 73 107 321 70 107 322 71 107 323 73 108 324 71 108 325 69 108 326 74 109 327 75 109 328 76 109 329 74 110 330 76 110 331 58 110 332 75 111 333 74 111 334 56 111 335 76 112 336 75 112 337 77 112 338 76 113 339 77 113 340 78 113 341 77 114 342 75 114 343 79 114 344 76 115 345 78 115 346 80 115 347 80 116 348 78 116 349 81 116 350 76 117 351 80 117 352 82 117 353 82 118 354 80 118 355 83 118 356 79 119 357 75 119 358 84 119 359 84 120 360 75 120 361 56 120 362 84 121 363 56 121 364 85 121 365 84 122 366 85 122 367 86 122 368 79 123 369 84 123 370 87 123 371 84 124 372 86 124 373 88 124 374 84 125 375 88 125 376 87 125 377 87 126 378 88 126 379 89 126 380 90 127 381 91 127 382 92 127 383 91 128 384 90 128 385 93 128 386 90 129 387 92 129 388 94 129 389 90 130 390 94 130 391 95 130 392 95 131 393 94 131 394 96 131 395 96 132 396 94 132 397 97 132 398 97 133 399 94 133 400 98 133 401 94 134 402 92 134 403 99 134 404 99 135 405 92 135 406 100 135 407 94 136 408 99 136 409 101 136 410 94 137 411 101 137 412 98 137 413 98 138 414 101 138 415 102 138 416 92 139 417 103 139 418 100 139 419 100 140 420 103 140 421 104 140 422 38 141 423 37 141 424 74 141 425 56 142 426 36 142 427 85 142 428 30 143 429 32 143 430 78 143 431 30 144 432 77 144 433 28 144 434 40 145 435 58 145 436 57 145 437 57 146 438 58 146 439 76 146 440 57 147 441 76 147 442 82 147 443 57 148 444 82 148 445 47 148 446 77 149 447 79 149 448 28 149 449 28 150 450 79 150 451 29 150 452 87 151 453 29 151 454 79 151 455 56 152 456 74 152 457 37 152 458 30 153 459 78 153 460 77 153 461 58 154 462 38 154 463 74 154 464 93 155 465 105 155 466 91 155 467 105 156 468 93 156 469 106 156 470 91 157 471 105 157 472 107 157 473 91 158 474 107 158 475 108 158 476 91 159 477 103 159 478 92 159 479 93 160 480 90 160 481 109 160 482 93 161 483 109 161 484 110 161 485 93 162 486 110 162 487 106 162 488 106 163 489 110 163 490 111 163 491 106 164 492 111 164 493 112 164 494 112 165 495 111 165 496 113 165 497 112 166 498 113 166 499 97 166 500 97 167 501 113 167 502 114 167 503 97 168 504 114 168 505 96 168 506 96 169 507 114 169 508 115 169 509 96 170 510 115 170 511 95 170 512 95 171 513 115 171 514 116 171 515 95 172 516 116 172 517 109 172 518 95 173 519 109 173 520 90 173 521 117 174 522 118 174 523 16 174 524 117 175 525 16 175 526 45 175 527 16 176 528 118 176 529 17 176 530 117 177 531 45 177 532 119 177 533 17 178 534 118 178 535 120 178 536 120 179 537 118 179 538 117 179 539 120 180 540 117 180 541 119 180 542 17 181 543 120 181 544 121 181 545 121 182 546 120 182 547 119 182 548 121 183 549 119 183 550 122 183 551 122 184 552 119 184 553 123 184 554 121 185 555 122 185 556 124 185 557 121 186 558 124 186 559 125 186 560 125 187 561 124 187 562 126 187 563 126 188 564 124 188 565 122 188 566 126 189 567 122 189 568 127 189 569 43 190 570 46 190 571 44 190 572 44 191 573 46 191 574 126 191 575 44 192 576 126 192 577 127 192 578 19 193 579 17 193 580 121 193 581 19 194 582 121 194 583 125 194 584 122 195 585 123 195 586 127 195 587 127 196 588 123 196 589 128 196 590 45 197 591 123 197 592 119 197 593 123 198 594 45 198 595 18 198 596 44 199 597 24 199 598 22 199 599 24 200 600 44 200 601 127 200 602 24 201 603 127 201 604 46 201 605 46 202 606 127 202 607 128 202 608 46 203 609 128 203 610 125 203 611 46 204 612 125 204 613 126 204 614 125 205 615 128 205 616 19 205 617 18 206 618 128 206 619 123 206 620 128 207 621 18 207 622 19 207 623 85 208 624 36 208 625 53 208 626 85 209 627 53 209 628 129 209 629 129 210 630 53 210 631 130 210 632 130 211 633 53 211 634 50 211 635 29 212 636 87 212 637 55 212 638 32 213 639 49 213 640 81 213 641 81 214 642 49 214 643 51 214 644 89 215 645 131 215 646 55 215 647 89 216 648 55 216 649 87 216 650 131 217 651 89 217 652 132 217 653 131 218 654 132 218 655 51 218 656 51 219 657 132 219 658 81 219 659 32 220 660 81 220 661 78 220 662 131 221 663 51 221 664 55 221 665 47 222 666 82 222 667 50 222 668 86 223 669 129 223 670 130 223 671 129 224 672 86 224 673 85 224 674 50 225 675 82 225 676 83 225 677 50 226 678 83 226 679 130 226 680 86 227 681 130 227 682 88 227 683 88 228 684 130 228 685 133 228 686 133 229 687 130 229 688 83 229 689 88 230 690 133 230 691 89 230 692 133 231 693 83 231 694 80 231 695 89 232 696 133 232 697 132 232 698 133 233 699 80 233 700 81 233 701 133 234 702 81 234 703 132 234 704 134 235 705 135 235 706 136 235 707 136 236 708 135 236 709 137 236 710 137 237 711 135 237 712 138 237 713 138 238 714 135 238 715 139 238 716 139 239 717 135 239 718 134 239 719 134 240 720 136 240 721 97 240 722 134 241 723 97 241 724 139 241 725 97 242 726 136 242 727 112 242 728 112 243 729 136 243 730 106 243 731 139 244 732 97 244 733 98 244 734 139 245 735 98 245 736 140 245 737 140 246 738 98 246 739 102 246 740 105 247 741 106 247 742 136 247 743 105 248 744 136 248 745 107 248 746 107 249 747 136 249 748 141 249 749 141 250 750 136 250 751 140 250 752 140 251 753 136 251 754 139 251 755 139 252 756 136 252 757 138 252 758 138 253 759 136 253 760 137 253 761 142 254 762 143 254 763 144 254 764 144 255 765 143 255 766 145 255 767 145 256 768 143 256 769 146 256 770 145 257 771 146 257 772 147 257 773 145 258 774 147 258 775 148 258 776 147 259 777 146 259 778 142 259 779 147 260 780 142 260 781 144 260 782 142 261 783 146 261 784 143 261 785 149 262 786 150 262 787 151 262 788 148 263 789 144 263 790 145 263 791 144 264 792 148 264 793 147 264 794 152 265 795 149 265 796 151 265 797 152 266 798 151 266 799 153 266 800 152 267 801 153 267 802 149 267 803 154 268 804 155 268 805 156 268 806 156 269 807 155 269 808 157 269 809 154 270 810 156 270 811 158 270 812 158 271 813 156 271 814 159 271 815 159 272 816 156 272 817 160 272 818 158 273 819 159 273 820 161 273 821 161 274 822 159 274 823 160 274 824 154 275 825 157 275 826 155 275 827 157 276 828 154 276 829 161 276 830 161 277 831 154 277 832 158 277 833 157 278 834 161 278 835 160 278 836 157 279 837 160 279 838 156 279 839 162 280 840 163 280 841 164 280 842 162 281 843 164 281 844 165 281 845 165 282 846 164 282 847 166 282 848 166 283 849 164 283 850 163 283 851 167 284 852 162 284 853 165 284 854 167 285 855 165 285 856 166 285 857 162 286 858 167 286 859 168 286 860 162 287 861 168 287 862 163 287 863 169 288 864 163 288 865 168 288 866 163 289 867 169 289 868 167 289 869 170 290 870 100 290 871 104 290 872 100 291 873 170 291 874 171 291 875 109 292 876 104 292 877 110 292 878 110 293 879 104 293 880 172 293 881 172 294 882 104 294 883 173 294 884 104 295 885 109 295 886 170 295 887 170 296 888 109 296 889 116 296 890 170 297 891 116 297 892 171 297 893 174 298 894 175 298 895 176 298 896 174 299 897 176 299 898 177 299 899 178 300 900 179 300 901 180 300 902 180 301 903 179 301 904 174 301 905 178 302 906 177 302 907 179 302 908 177 303 909 178 303 910 174 303 911 181 304 912 182 304 913 183 304 914 183 305 915 182 305 916 184 305 917 183 306 918 184 306 919 185 306 920 184 307 921 182 307 922 186 307 923 182 308 924 181 308 925 187 308 926 187 309 927 181 309 928 188 309 929 182 310 930 187 310 931 189 310 932 174 311 933 190 311 934 180 311 935 180 312 936 190 312 937 178 312 938 178 313 939 190 313 940 174 313 941 175 314 942 174 314 943 179 314 944 175 315 945 179 315 946 176 315 947 176 316 948 179 316 949 177 316 950 91 317 951 108 317 952 173 317 953 91 318 954 173 318 955 103 318 956 99 319 957 191 319 958 101 319 959 101 320 960 191 320 961 102 320 962 191 321 963 99 321 964 171 321 965 171 322 966 99 322 967 100 322 968 102 323 969 191 323 970 192 323 971 102 324 972 192 324 973 140 324 974 140 325 975 192 325 976 193 325 977 140 326 978 193 326 979 141 326 980 141 327 981 193 327 982 194 327 983 141 328 984 194 328 985 107 328 986 107 329 987 194 329 988 108 329 989 173 330 990 104 330 991 103 330 992 195 331 993 191 331 994 171 331 995 195 332 996 171 332 997 196 332 998 187 333 999 188 333 1000 197 333 1001 187 334 1002 197 334 1003 189 334 1004 197 335 1005 188 335 1006 198 335 1007 189 336 1008 197 336 1009 199 336 1010 197 337 1011 198 337 1012 200 337 1013 200 338 1014 198 338 1015 201 338 1016 199 339 1017 197 339 1018 202 339 1019 199 340 1020 202 340 1021 203 340 1022 203 341 1023 202 341 1024 204 341 1025 205 342 1026 206 342 1027 184 342 1028 205 343 1029 184 343 1030 207 343 1031 205 344 1032 207 344 1033 204 344 1034 205 345 1035 204 345 1036 206 345 1037 184 346 1038 206 346 1039 185 346 1040 185 347 1041 206 347 1042 208 347 1043 206 348 1044 204 348 1045 209 348 1046 208 349 1047 206 349 1048 210 349 1049 210 350 1050 206 350 1051 209 350 1052 210 351 1053 209 351 1054 201 351 1055 211 352 1056 212 352 1057 213 352 1058 212 353 1059 211 353 1060 214 353 1061 214 354 1062 211 354 1063 215 354 1064 215 355 1065 211 355 1066 213 355 1067 167 356 1068 166 356 1069 163 356 1070 212 357 1071 214 357 1072 216 357 1073 216 358 1074 214 358 1075 217 358 1076 217 359 1077 214 359 1078 215 359 1079 217 360 1080 215 360 1081 213 360 1082 216 361 1083 218 361 1084 212 361 1085 212 362 1086 218 362 1087 213 362 1088 218 363 1089 216 363 1090 217 363 1091 218 364 1092 217 364 1093 213 364 1094 168 365 1095 167 365 1096 169 365 1097 219 366 1098 186 366 1099 182 366 1100 219 367 1101 182 367 1102 189 367 1103 220 368 1104 221 368 1105 181 368 1106 188 369 1107 181 369 1108 221 369 1109 222 370 1110 184 370 1111 186 370 1112 223 371 1113 185 371 1114 208 371 1115 185 372 1116 223 372 1117 183 372 1118 184 373 1119 222 373 1120 207 373 1121 220 374 1122 181 374 1123 183 374 1124 220 375 1125 186 375 1126 219 375 1127 186 376 1128 220 376 1129 183 376 1130 186 377 1131 183 377 1132 222 377 1133 222 378 1134 183 378 1135 223 378 1136 222 379 1137 223 379 1138 207 379 1139 207 380 1140 223 380 1141 224 380 1142 189 381 1143 225 381 1144 219 381 1145 226 382 1146 225 382 1147 189 382 1148 226 383 1149 189 383 1150 227 383 1151 226 384 1152 227 384 1153 221 384 1154 226 385 1155 221 385 1156 225 385 1157 221 386 1158 227 386 1159 188 386 1160 225 387 1161 221 387 1162 220 387 1163 225 388 1164 220 388 1165 219 388 1166 173 389 1167 108 389 1168 228 389 1169 228 390 1170 108 390 1171 194 390 1172 173 391 1173 228 391 1174 172 391 1175 228 392 1176 194 392 1177 229 392 1178 228 393 1179 229 393 1180 172 393 1181 229 394 1182 194 394 1183 193 394 1184 110 395 1185 172 395 1186 111 395 1187 111 396 1188 172 396 1189 113 396 1190 113 397 1191 172 397 1192 229 397 1193 113 398 1194 229 398 1195 114 398 1196 229 399 1197 193 399 1198 196 399 1199 229 400 1200 196 400 1201 114 400 1202 114 401 1203 196 401 1204 115 401 1205 115 402 1206 196 402 1207 171 402 1208 196 403 1209 193 403 1210 192 403 1211 196 404 1212 192 404 1213 195 404 1214 195 405 1215 192 405 1216 191 405 1217 200 406 1218 202 406 1219 197 406 1220 202 407 1221 200 407 1222 209 407 1223 202 408 1224 209 408 1225 204 408 1226 209 409 1227 200 409 1228 201 409 1229 116 410 1230 115 410 1231 171 410 1232 230 411 1233 231 411 1234 232 411 1235 230 412 1236 232 412 1237 233 412 1238 232 413 1239 231 413 1240 234 413 1241 233 414 1242 232 414 1243 235 414 1244 235 415 1245 232 415 1246 234 415 1247 235 416 1248 234 416 1249 236 416 1250 230 417 1251 237 417 1252 231 417 1253 231 418 1254 237 418 1255 234 418 1256 237 419 1257 230 419 1258 233 419 1259 234 420 1260 237 420 1261 236 420 1262 236 421 1263 237 421 1264 233 421 1265 236 422 1266 233 422 1267 235 422 1268 149 423 1269 238 423 1270 150 423 1271 238 424 1272 149 424 1273 153 424 1274 150 425 1275 238 425 1276 239 425 1277 239 426 1278 238 426 1279 153 426 1280 150 427 1281 239 427 1282 151 427 1283 151 428 1284 239 428 1285 153 428 1286 188 429 1287 227 429 1288 198 429 1289 198 430 1290 227 430 1291 240 430 1292 198 431 1293 240 431 1294 241 431 1295 198 432 1296 241 432 1297 201 432 1298 242 433 1299 243 433 1300 204 433 1301 242 434 1302 204 434 1303 224 434 1304 242 435 1305 208 435 1306 210 435 1307 199 436 1308 227 436 1309 189 436 1310 244 437 1311 227 437 1312 199 437 1313 227 438 1314 244 438 1315 240 438 1316 240 439 1317 244 439 1318 245 439 1319 240 440 1320 245 440 1321 241 440 1322 241 441 1323 245 441 1324 246 441 1325 241 442 1326 246 442 1327 247 442 1328 224 443 1329 223 443 1330 208 443 1331 224 444 1332 208 444 1333 242 444 1334 245 445 1335 242 445 1336 210 445 1337 207 446 1338 224 446 1339 204 446 1340 201 447 1341 245 447 1342 210 447 1343 203 448 1344 204 448 1345 243 448 1346 241 449 1347 199 449 1348 203 449 1349 203 450 1350 243 450 1351 241 450 1352 241 451 1353 243 451 1354 246 451 1355 246 452 1356 243 452 1357 247 452 1358 247 453 1359 243 453 1360 245 453 1361 199 454 1362 241 454 1363 244 454 1364 244 455 1365 241 455 1366 201 455 1367 243 456 1368 242 456 1369 245 456 1370 244 457 1371 245 457 1372 201 457 1373</p>
        </polylist>
      </mesh>
    </geometry>
  </library_geometries>
  <library_visual_scenes>
    <visual_scene id="Scene" name="Scene">
      <node id="Bamboo" name="Bamboo" type="NODE">
        <scale sid="scale">1 1 1</scale>
        <translate sid="location">0 0 0</translate>
        <rotate sid="rotationX">1 0 0 0</rotate>
        <rotate sid="rotationY">0 1 0 -90</rotate>
        <rotate sid="rotationZ">0 0 1 0</rotate>
        <instance_geometry url="#Bamboo-mesh" name="Bamboo">
          <bind_material>
            <technique_common>
            </technique_common>
          </bind_material>
        </instance_geometry>
      </node>
    </visual_scene>
  </library_visual_scenes>
  <scene>
    <instance_visual_scene url="#Scene"/>
  </scene>
</COLLADA>
