<?xml version="1.0" encoding="utf-8"?>
<COLLADA xmlns="http://www.collada.org/2005/11/COLLADASchema" version="1.4.1" xmlns:xsi="http://www.w3.org/2001/XMLSchema-instance">
  <asset>
    <contributor>
      <author>Blockbench user</author>
      <authoring_tool>Blockbench</authoring_tool>
    </contributor>
    <created>2026-03-08T09:30:05.006Z</created>
    <modified>2026-03-08T09:30:05.013Z</modified>
    <unit name="meter" meter="1.0"/>
    <up_axis>Y_UP</up_axis>
  </asset>
  <library_effects>
  </library_effects>
  <library_images>
  </library_images>
  <library_materials>
  </library_materials>
  <library_geometries>
    <geometry id="BloodDagger-mesh" name="BloodDagger">
      <mesh>
        <source id="BloodDagger-mesh-positions">
          <float_array id="BloodDagger-mesh-positions-array" count="756">-0.145462 0.149597 -0.440063 -0.168747 0.1642 -0.438507 -0.161865 0.175781 -0.465454 -0.175842 0.189667 -0.450592 -0.132141 0.137131 -0.48526 -0.180435 0.205704 -0.486786 -0.144348 0.178955 -0.499512 -0.142517 0.212616 -0.501465 -0.092697 0.151428 -0.488953 -0.116638 0.129379 -0.472412 -0.100632 0.145218 -0.452301 -0.080063 0.165558 -0.474091 -0.102982 0.190964 -0.487244 -0.151215 0.239517 -0.486664 -0.130417 0.227203 -0.466949 -0.115692 0.208176 -0.466187 -0.101006 0.19426 -0.443024 -0.109177 0.222092 -0.442993 -0.11203 0.205566 -0.415955 -0.128525 0.136703 -0.428192 -0.132202 0.136169 -0.406067 -0.167374 0.181458 -0.404236 -0.102219 0.132401 -0.405975 -0.085632 0.110138 -0.382874 -0.084068 0.15448 -0.40686 -0.099922 0.138519 -0.421234 -0.08625 0.171402 -0.416656 -0.103188 0.20015 -0.384003 -0.064949 0.158051 -0.360992 -0.153702 0.152145 -0.38739 -0.16658 0.180481 -0.375977 -0.1436 0.142365 -0.34201 -0.151581 0.181335 -0.359833 -0.174942 0.19104 -0.417053 -0.172852 0.199112 -0.390991 -0.19455 0.215714 -0.416534 -0.191193 0.231644 -0.40451 -0.169785 0.239761 -0.391479 -0.147247 0.210449 -0.378326 -0.148895 0.251831 -0.400391 -0.134903 0.198334 -0.360352 -0.136581 0.182556 -0.335144 -0.120857 0.213211 -0.381256 -0.13887 0.247696 -0.412689 -0.120155 0.105629 -0.357147 -0.182312 0.225494 -0.468262 -0.173965 0.245728 -0.424103 -0.148056 0.24794 -0.448914 -0.13237 0.230453 -0.428558 -0.072197 0.086784 -0.35202 -0.088402 0.077271 -0.327393 -0.10183 0.071396 -0.29837 -0.129913 0.103668 -0.315399 -0.138184 0.155014 -0.309967 -0.130249 0.130981 -0.274323 -0.115936 0.085373 -0.258362 -0.099617 0.058842 -0.252197 -0.059315 0.052376 -0.283264 -0.043468 0.053856 -0.294617 -0.046394 0.12072 -0.343475 -0.054173 0.083221 -0.333527 -0.040993 0.139191 -0.320557 -0.068504 0.171951 -0.331512 -0.033646 0.065361 -0.288879 -0.018007 0.092659 -0.289429 -0.021559 0.126694 -0.270905 -0.044682 0.151688 -0.268555 -0.026226 0.131363 -0.228226 -0.063271 0.158783 -0.251617 -0.081528 0.15892 -0.243149 -0.09623 0.180252 -0.30722 -0.107338 0.169724 -0.283447 -0.026894 0.038181 -0.239716 -0.058624 0.035114 -0.231323 -0.028124 0.020802 -0.192978 -0.002702 0.058685 -0.229355 -0.082443 0.049492 -0.202271 -0.113335 0.090103 -0.224899 -0.093231 0.08503 -0.188446 -0.092628 0.117416 -0.195557 -0.114357 0.116982 -0.226257 -0.008196 0.096878 -0.249756 0.000282 0.088028 -0.181046 0.00641 0.047714 -0.190247 -0.046024 0.119606 -0.173798 -0.080597 0.139328 -0.206421 -0.110413 0.145645 -0.249084 -0.001365 0.032784 -0.196716 0.011835 -0.002794 -0.168396 0.027084 0.019888 -0.166611 0.00484 0.071762 -0.163284 0.039692 0.049149 -0.141907 0.022791 0.075516 -0.125748 -0.013401 0.089859 -0.132889 0.040474 0.02145 -0.163315 -0.010892 -0.013043 -0.160141 -0.059597 0.028852 -0.160538 -0.058464 0.003296 -0.133026 0.031746 -0.042458 -0.191269 0.062546 -0.033447 -0.201309 0.080978 -0.017042 -0.189606 0.063965 -0.063583 -0.188599 -0.073616 0.041027 -0.179443 -0.072388 0.05611 -0.157578 -0.067497 0.094841 -0.155289 -0.068115 0.072746 -0.138535 -0.048138 0.092789 -0.139603 -0.032669 0.087738 -0.096497 -0.060532 0.064201 -0.096626 -0.065178 0.049007 -0.123047 0.042976 -0.056068 -0.177155 0.008429 -0.0282 -0.154465 0.028639 -0.008056 -0.144089 -0.041382 -0.017729 -0.131943 0.003098 -0.002711 -0.132111 0.038937 -0.025644 -0.108307 0.024097 -0.028627 -0.085625 -0.021656 0.021635 -0.103851 0.005664 -0.005222 -0.08696 0.066574 -0.026608 -0.168518 0.088676 -0.041634 -0.168182 0.070663 -0.001874 -0.165039 0.050301 0.017916 -0.140625 0.024164 0.022097 -0.124222 0.042145 0.059544 -0.117722 0.012705 0.034554 -0.107697 0.028965 0.016697 -0.081184 0.029682 0.009871 -0.099884 0.044544 -0.002798 -0.100945 -0.06842 0.018665 -0.097076 -0.071922 0.031918 -0.103401 -0.071617 0.059177 -0.086693 -0.07341 0.065666 -0.063461 -0.040028 0.060703 -0.070892 -0.022776 0.026115 -0.043144 -0.019093 0.040516 -0.022451 -0.015018 0.063515 -0.080544 -0.003965 0.048615 -0.031094 0.012791 0.032631 -0.054577 -0.001667 0.047363 -0.093719 -0.009005 0.004738 -0.065735 -0.001756 0.005021 -0.030169 0.015042 -0.014874 -0.038055 -0.014454 0.01228 -0.016335 0.013487 -0.021721 -0.025183 -0.022285 0.032658 0.010038 0.006995 -0.007699 -0.011616 0.029613 -0.040825 -0.000507 -0.012673 0.01024 0.001958 -0.006811 0.020554 0.019821 0.009582 -0.015211 0.011432 0.048206 -0.047756 -0.078682 0.034069 -0.033325 -0.011032 0.060238 -0.064941 -0.038776 0.062531 -0.054512 -0.0867 0.067924 -0.066826 -0.047012 0.050266 -0.015884 -0.076065 0.040703 -0.022816 -0.05508 0.072052 -0.06469 -0.036049 0.032455 -0.013288 -0.017057 0.031445 0.00701 -0.022758 0.022799 0.016665 -0.059956 0.018717 0.030336 -0.077469 0.015143 0.085243 -0.096703 -0.01288 0.088562 -0.072945 -0.00413 0.086639 -0.101036 -0.020443 0.093277 -0.147064 0.049957 -0.058613 0.027937 0.042149 -0.061184 0.045616 0.031303 -0.044685 0.026981 0.019146 -0.029917 0.059868 0.003721 -0.008924 0.050556 0.0026 0.008835 0.047153 0.020485 0.003427 0.052895 0.003418 0.031395 -0.001965 0.02001 0.012053 -0.007363 0.031376 -0.006704 0.014779 0.049023 -0.02536 0.048153 0.054699 -0.026146 0.002508 0.051174 -0.024536 0.018036 0.061066 -0.042545 0.053783 0.05685 -0.046555 0.0282 0.083778 -0.08551 -0.008475 0.088936 -0.103951 0.016897 0.093918 -0.095726 0.023001 0.056484 -0.052986 0.066269 0.057835 -0.043339 0.0793 0.068253 -0.064178 0.08136 0.075279 -0.071831 0.106453 0.068611 -0.059177 0.131271 0.042713 -0.028728 0.11319 0.106773 -0.114212 0.063377 0.092407 -0.107475 0.03207 0.107597 -0.123337 0.06115 0.105652 -0.129868 0.085159 0.059551 -0.075195 0.091026 0.043545 -0.058971 0.070984 0.037525 -0.056561 0.107986 0.0453 -0.065529 0.119949 0.064484 -0.086655 0.120049 0.042091 -0.065773 0.13382 0.03038 -0.048607 0.129242 0.122787 -0.144836 0.100632 0.134659 -0.16655 0.138931 0.094551 -0.126526 0.179794 0.074104 -0.107742 0.237823 0.108681 -0.156296 0.252441 0.121208 -0.164291 0.235016 0.152725 -0.200027 0.21582 0.158203 -0.194641 0.189651 0.13472 -0.152679 0.140244 0.167984 -0.19809 0.230072 0.133698 -0.146713 0.23111 0.104843 -0.109695 0.166336 0.108894 -0.113945 0.23848 0.073486 -0.095352 0.13028 0.064804 -0.093323 0.160049 0.057808 -0.086403 0.197662 0.03363 -0.037868 0.136826 0.070091 -0.087547 0.231552 0.092636 -0.118492 0.289948 0.075005 -0.071831 0.197052 0.098282 -0.113022 0.278229 0.091927 -0.090935 0.194733 0.016001 -0.025948 0.085075 0.041252 -0.022915 0.06636 -0.093567 0.09771 -0.046955 -0.079063 0.091362 -0.017052 -0.053387 0.111908 -0.020613 -0.062752 0.095001 -0.044228 -0.037655 0.105377 -0.05101 -0.049938 0.118759 -0.056297 -0.075897 0.11232 -0.055637 -0.006071 0.047523 -0.063332 0.010882 0.027939 -0.03089 0.129059 -0.178711 0.282288 0.146362 -0.203491 0.335236 0.178543 -0.239029 0.337982 0.175781 -0.222031 0.261749 0.188843 -0.242859 0.3526 0.186615 -0.228989 0.332916 0.167465 -0.194443 0.360382 0.135651 -0.146149 0.26709 0.130692 -0.159363 0.349182 0.140381 -0.183029 0.39209 0.107002 -0.141174 0.3125 0.126419 -0.166916 0.353851 0.164795 -0.230591 0.422913 0.164658 -0.210876 0.449982 0.180237 -0.242416 0.503052 0.193497 -0.251587 0.440796 0.192093 -0.237976 0.496521</float_array>
          <technique_common>
            <accessor source="#BloodDagger-mesh-positions-array" count="252" stride="3">
              <param name="X" type="float"/>
              <param name="Y" type="float"/>
              <param name="Z" type="float"/>
            </accessor>
          </technique_common>
        </source>
        <source id="BloodDagger-mesh-normals">
          <float_array id="BloodDagger-mesh-normals-array" count="1500">-0.496588 -0.744233 -0.446673 -0.823592 -0.413615 -0.388096 -0.809167 -0.582399 -0.077853 -0.812583 -0.57447 -0.098453 -0.557804 -0.408918 -0.722247 -0.355263 -0.034872 -0.934116 0.025636 -0.315731 -0.948502 0.165909 -0.066112 -0.983922 0.196872 -0.716121 -0.669636 -0.682796 -0.201639 0.702233 0.703253 -0.71094 0.000215 0.703011 -0.707236 0.074781 0.403883 0.144117 -0.903387 0.644742 0.19962 -0.737875 0.529523 0.533908 -0.659203 0.676807 0.675833 -0.29186 0.758709 0.647514 -0.071322 0.791071 0.611321 -0.022204 0.755883 0.648545 -0.089615 0.692667 0.515868 -0.504076 0.878528 0.258368 -0.401788 0.92565 0.271461 0.263594 -0.620118 -0.783797 0.033414 0.272471 -0.961853 -0.024478 -0.551264 -0.826837 -0.111572 -0.786888 -0.613715 0.064512 -0.124432 -0.991225 -0.044603 -0.092143 -0.74922 -0.655881 0.484997 -0.429253 -0.761919 0.143812 -0.925814 -0.349551 0.762269 -0.632217 -0.138736 0.113178 -0.970715 -0.211903 0.923559 -0.36995 -0.100879 0.773453 -0.239903 -0.5867 0.769546 -0.621643 0.146149 0.82309 0.567067 0.030966 0.8508 0.525072 -0.020946 0.931339 0.264801 0.249978 0.77975 0.508944 -0.364644 -0.651904 0.009128 -0.758246 -0.974855 -0.111376 0.193009 -0.612523 -0.518637 0.596516 -0.789778 -0.613391 0.000984 -0.463847 -0.783649 0.413208 -0.890183 -0.391599 0.232863 -0.881937 -0.425629 0.202553 -0.951469 -0.307324 0.016109 -0.755834 -0.60587 0.248265 -0.81075 -0.234125 0.536535 -0.533153 0.050365 0.844518 -0.45894 0.04528 0.887313 -0.543516 0.408128 0.7335 0.101521 0.471213 0.876158 -0.599466 0.604175 0.524989 -0.582539 0.429879 0.689821 -0.658251 0.657039 0.367432 0.048424 0.471447 0.880564 -0.022771 0.821689 0.569481 0.677644 0.656324 0.331719 0.491942 0.518387 0.699477 0.579179 0.69334 0.428756 0.830391 0.539743 -0.138303 0.650504 0.75775 -0.051571 -0.705386 -0.666171 -0.242172 -0.966998 -0.252189 0.036273 -0.781575 -0.622081 0.046439 -0.867735 -0.485782 -0.105127 -0.779134 -0.603747 -0.168639 -0.97205 0.10456 -0.210202 -0.934248 0.318288 -0.16085 -0.596438 0.517634 -0.613447 -0.392827 0.342547 -0.853433 -0.730246 0.662794 -0.165665 -0.524311 0.807316 -0.270813 -0.458528 0.86193 0.216399 -0.4182 0.882543 0.215002 -0.262001 0.946334 -0.189227 -0.162156 0.98338 -0.08166 0.641792 0.735309 -0.217773 0.304789 0.949778 -0.070891 0.754164 0.656461 -0.017208 0.836187 0.507214 -0.208625 0.302293 0.950988 -0.065128 0.807878 0.534008 -0.249335 0.545694 0.688152 0.478189 -0.240018 -0.848927 -0.470865 -0.278044 -0.820287 -0.499821 -0.265888 -0.823515 -0.501126 -0.411014 -0.837654 -0.359726 -0.687254 -0.700164 -0.193524 -0.860813 -0.45761 -0.222698 -0.828874 -0.555674 0.06476 -0.956158 -0.178576 0.232106 -0.972911 -0.105072 0.205922 -0.980097 -0.168912 0.104299 -0.745966 -0.665281 -0.030593 -0.956749 -0.245795 0.155612 -0.835705 -0.538767 -0.106432 -0.326808 -0.915832 -0.233343 -0.29102 -0.902552 -0.317345 -0.121068 -0.896586 -0.426001 -0.207981 -0.889756 -0.406299 0.647592 -0.318036 -0.692443 0.498507 -0.620462 -0.605407 0.703648 -0.384569 -0.597483 0.705923 0.018634 -0.708043 0.905176 -0.226483 -0.359669 0.879849 0.246719 -0.406196 0.782174 0.594634 -0.186051 0.763116 -0.397251 -0.509751 0.739869 -0.434223 -0.513853 0.766834 -0.308405 -0.562896 0.906356 0.198054 -0.373221 0.920162 0.256863 -0.295505 0.724137 0.680475 -0.11216 0.777675 0.621568 -0.094206 0.734317 0.67878 0.006041 0.500443 0.843295 0.195983 0.255374 0.803609 0.537584 0.428111 0.898896 0.09331 0.099134 0.975185 0.197956 -0.049332 0.921568 0.385071 -0.088147 -0.964541 -0.248779 0.788853 -0.485543 -0.376775 0.803284 -0.467633 -0.368855 0.008275 -0.948901 -0.315466 -0.001602 -0.937285 -0.348561 0.67689 -0.553362 -0.485397 -0.364951 -0.884955 -0.28925 -0.472875 -0.879835 0.047737 -0.505635 -0.862658 0.012377 -0.829242 -0.526823 0.186588 -0.857633 -0.49575 0.136736 -0.823397 -0.4047 0.397787 -0.861477 0.124153 0.492386 -0.816222 -0.001846 0.577736 0.970432 0.010793 -0.241132 0.936768 0.2376 -0.256927 0.9903 0.082887 -0.111515 0.967102 0.186494 -0.173014 0.897604 0.43793 0.050245 0.873383 0.484922 -0.045306 0.562865 0.741622 0.364938 0.251911 0.922962 0.291001 0.301301 0.844464 0.442829 -0.294346 0.818788 0.492896 0.122717 0.963351 0.238528 -0.419443 0.625665 0.657731 -0.771673 0.453011 0.446432 -0.517287 0.845459 0.132712 0.430404 0.88248 0.189688 0.776187 0.601231 -0.189883 0.396091 0.90715 0.142095 -0.82277 0.369226 0.432114 -0.649945 0.648499 0.396258 -0.445378 0.751487 0.48673 -0.448484 0.783835 0.429493 -0.815026 0.425428 0.393375 -0.712819 0.494316 0.497535 -0.94507 -0.208487 0.251746 -0.996046 -0.03372 0.082187 0.350008 -0.880984 -0.318373 0.678666 -0.56152 -0.4734 0.892873 -0.334213 -0.301793 0.148657 -0.581515 -0.799838 0.710768 -0.066729 -0.700255 0.602226 -0.348344 -0.718318 0.869881 0.392198 -0.299146 0.980691 0.170808 -0.095238 0.637077 0.318211 -0.70205 0.655974 0.652737 -0.37899 0.400869 0.872624 -0.278981 0.121846 0.609118 -0.783664 0.248009 -0.090833 -0.96449 0.044001 -0.684034 -0.728122 -0.594534 -0.695007 -0.404345 -0.536605 -0.629159 -0.562329 -0.435532 0.27555 -0.856962 -0.255983 0.47843 -0.839986 -0.376037 0.313968 -0.871791 0.011441 0.572161 -0.820061 -0.180487 -0.389427 -0.9032 0.672067 -0.26067 -0.693092 -0.907294 -0.359971 0.217344 -0.43996 -0.884062 -0.157703 -0.450591 -0.864526 -0.222627 -0.895723 -0.340878 0.285452 -0.835467 -0.429303 0.343065 -0.797563 0.065275 0.599694 -0.801899 0.142338 0.580257 -0.747736 -0.407785 0.524024 -0.985967 0.1175 0.118589 -0.317514 0.728755 0.606713 -0.370012 0.56775 0.735358 -0.373595 0.740981 0.558009 -0.497953 0.532773 0.684248 -0.663138 0.677867 0.317403 -0.623316 0.736438 0.262938 -0.98423 -0.006437 0.176774 -0.985115 -0.161063 -0.06006 -0.988663 -0.128121 -0.078297 -0.486628 -0.789466 -0.374082 -0.679138 -0.718084 -0.152076 0.111173 -0.540954 0.833672 -0.602106 -0.79503 -0.073464 -0.404573 -0.724633 -0.557878 -0.552848 -0.484104 -0.678235 0.225478 -0.615297 0.75536 0.211844 -0.618974 0.756302 -0.340562 -0.8789 -0.333994 -0.338406 -0.878603 -0.336955 0.217838 -0.636916 0.739516 -0.701097 -0.713065 0.000188 0.296942 -0.479888 0.82555 -0.135384 -0.177342 0.974793 0.10118 -0.736281 0.669069 0.748571 -0.286576 -0.597927 0.442154 0.663859 0.603151 0.849081 -0.208632 0.485318 0.660017 -0.210547 0.721143 0.347944 -0.403096 0.846433 0.419994 -0.455024 0.785212 0.454084 -0.359538 0.815193 0.582035 -0.402155 0.706758 0.737585 0.67525 0.002444 0.954005 0.291542 -0.069842 0.641539 0.733896 0.223215 0.858174 0.365124 -0.360863 0.935892 -0.123357 -0.329982 0.586198 0.775953 -0.232956 0.600652 0.787604 -0.137471 0.893938 0.289606 -0.342057 0.925366 0.305087 -0.224987 0.678356 0.647559 -0.347132 -0.776364 -0.628012 0.053475 0.150757 -0.623197 0.767397 -0.941995 -0.31014 -0.128288 -0.928331 -0.056126 -0.367495 -0.940711 0.337972 -0.028939 -0.707109 0.375255 -0.599317 -0.97222 -0.195393 0.12888 0.096214 -0.572252 0.814414 0.152145 -0.594536 0.789543 -0.899694 -0.436243 0.015595 -0.926188 -0.21159 0.312099 0.038496 0.928169 0.370162 -0.288881 0.896907 0.334821 0.722686 0.689627 0.046261 0.756649 0.65295 -0.033733 -0.661687 -0.741783 -0.109217 -0.82759 -0.560725 0.026111 -0.455876 -0.884413 0.099953 -0.760479 -0.64912 0.017717 -0.84636 -0.532475 -0.012063 -0.416649 -0.904388 0.092117 -0.777511 -0.511416 -0.365965 -0.750915 -0.506938 -0.423251 -0.963827 -0.105318 0.244839 -0.97149 -0.190251 -0.141463 -0.679319 -0.647913 0.344578 -0.683854 -0.661419 0.308009 -0.839004 -0.525395 0.14154 -0.508292 0.090728 -0.856392 -0.706087 -0.487767 0.513346 -0.718584 -0.680939 -0.141281 -0.785854 -0.618327 0.010274 -0.786083 -0.617446 0.028878 -0.635972 -0.765184 0.100165 -0.487052 -0.766078 -0.41941 -0.700432 -0.713695 0.005873 -0.157961 -0.863744 -0.478534 -0.783259 -0.620911 -0.031228 -0.509422 -0.835451 -0.206181 -0.559098 -0.738714 -0.376444 -0.440142 -0.872788 -0.210991 0.832598 0.376267 -0.406453 0.949967 0.310634 -0.032706 0.946719 -0.138682 -0.290672 0.698076 0.521683 0.490446 0.813308 0.431493 -0.390313 0.795752 0.60526 0.020946 0.977214 0.10105 0.186657 0.917764 -0.123976 0.377278 0.762005 0.647508 -0.009049 0.789037 0.599577 0.133891 0.647883 0.76153 -0.017894 0.801433 -0.551272 0.231958 0.806735 0.542111 0.235146 0.787997 0.611526 -0.071391 0.652073 0.757777 -0.02395 0.520676 -0.29148 0.802456 0.507966 -0.158727 0.846626 0.565483 -0.187678 0.803123 0.65394 0.75233 -0.079758 0.601691 -0.27848 0.74861 0.372657 -0.298394 0.878685 0.081726 0.995739 -0.042708 0.132475 0.949861 -0.28322 0.370784 0.928613 -0.014046 -0.615098 0.594502 0.517901 0.040739 0.975754 0.215044 0.602794 0.790436 -0.108865 0.152251 0.773117 0.615719 0.727287 0.588832 0.352605 0.572685 0.78754 0.227623 0.053725 0.993816 0.097172 0.068288 0.994401 0.080648 -0.046006 -0.804216 -0.592554 -0.796223 -0.60143 -0.065656 0.063213 -0.825212 -0.561274 -0.366669 -0.883843 -0.290475 -0.81934 -0.572521 -0.030022 -0.813503 -0.58017 -0.040192 -0.795304 -0.605137 -0.03608 -0.798417 -0.601585 -0.024999 -0.805832 -0.583676 -0.099787 -0.800578 -0.598759 -0.023714 -0.751558 -0.659634 -0.006588 -0.948565 -0.008956 0.316456 -0.945127 0.002941 0.326689 0.171393 0.925481 0.3378 0.013942 0.892567 0.450699 0.767843 0.634994 0.084847 0.809908 0.5815 0.076858 0.711436 0.702556 0.016545 0.691215 0.686233 0.226507 0.661546 0.746844 0.067682 0.660868 0.746985 0.072573 0.805214 0.588397 0.073608 0.765278 0.634587 0.107929 0.985234 -0.083983 -0.1492 0.100927 -0.774883 -0.623995 0.795115 0.60622 0.01702 0.582904 -0.192699 -0.789361 -0.456366 -0.859791 -0.229107 0.93168 0.047782 -0.360124 0.84206 0.53728 0.047587 0.066999 -0.800564 -0.59549 -0.763848 -0.642898 -0.056734 0.794072 0.604907 -0.059479 0.890141 -0.263009 -0.372123 0.879314 -0.470906 -0.071096 0.952213 -0.284268 0.111725 0.581325 0.801368 0.140964 0.844222 0.385208 -0.372699 0.799608 0.599899 0.027353 0.89286 0.43476 -0.117404 0.761385 0.648115 -0.015521 0.863121 0.504365 -0.025261 0.746855 0.663304 0.047282 0.808413 0.588492 0.012055 0.772517 -0.447273 -0.450738 0.898905 -0.334259 -0.283268 0.908618 0.174635 -0.379362 -0.755609 -0.654693 0.020799 -0.397366 -0.876822 -0.270707 -0.747976 -0.657496 -0.090722 -0.7662 -0.640508 -0.051831 -0.642288 -0.759647 -0.101989 0.423542 -0.90417 0.055569 -0.671709 -0.738283 -0.061197 -0.685003 -0.722165 -0.09617 -0.732856 -0.666144 -0.138471 -0.630822 -0.7594 -0.159296 -0.817051 -0.573428 -0.060067 0.947381 0.154034 -0.280612 -0.486841 -0.832073 -0.265783 -0.421174 -0.838798 -0.345009 -0.736197 -0.67387 -0.062561 -0.798549 -0.595366 -0.088655 -0.680145 -0.715224 -0.160802 -0.765981 -0.639315 -0.067455 -0.754063 -0.648337 -0.105106 -0.44218 -0.855736 -0.268687 0.958482 0.022691 -0.284247 0.913631 0.034327 -0.405092 0.949029 0.195582 -0.247168 0.936632 0.286044 -0.202237 0.831233 0.555264 -0.027108 0.812416 0.582351 -0.029098 0.796312 0.604818 -0.009084 -0.772876 -0.630862 -0.068382 -0.766254 -0.640037 -0.056643 -0.524798 -0.818441 -0.23397 -0.689203 -0.708289 -0.152727 -0.612023 -0.780855 -0.125272 -0.732827 -0.679335 -0.038317 -0.713137 -0.692385 -0.109716 -0.727796 -0.661746 -0.180013 -0.760912 -0.648475 -0.022223 -0.770249 -0.637212 -0.026032 -0.828734 -0.559156 0.023336 -0.925615 0.013005 0.378242 -0.937894 -0.081672 0.337171 -0.939748 -0.043039 0.339147 -0.944133 -0.089084 0.317295 0.117264 0.897341 0.425474 0.149161 0.901628 0.405978 0.10865 0.89871 0.424871 0.743962 0.66589 0.05578 0.682345 0.712018 0.165636 0.750736 0.658302 0.055085 0.750709 0.658448 0.053693 0.815267 0.578967 -0.011672 0.816038 0.577901 -0.010617 0.830266 0.554183 -0.05949 0.811567 0.583394 -0.031788 0.804787 0.593547 0.004431 -0.766792 -0.641873 0.005397 -0.780126 -0.618081 0.096849 -0.78301 -0.615855 -0.087279 -0.804388 -0.594065 -0.006822 -0.800774 -0.597221 -0.045692 -0.941325 0.005245 0.33746 -0.941796 0.050274 0.332403 -0.947667 -0.017567 0.318777 0.136427 0.897184 0.420058 0.17408 0.894103 0.412645 0.77031 0.635308 0.054829 0.711148 0.669815 0.213579 0.757024 0.650881 0.057176 0.755952 0.608686 0.240911 0.734759 0.668706 0.113844 -0.992892 0.070075 -0.096202 -0.820051 -0.564456 0.09437 -0.760713 -0.602677 0.241032 -0.532684 0.737605 0.414954 0.757848 -0.527272 0.384255 0.623538 -0.731334 0.276317 0.096856 -0.57009 0.815853 0.430615 -0.35859 0.828241 0.401469 -0.449464 0.798 0.44043 -0.803468 0.400576 0.673731 0.705403 0.220212 0.680817 0.704327 0.201028 -0.233719 0.958799 0.161491 -0.637401 -0.767558 0.067639 0.546165 0.81223 0.204906 0.810468 0.581263 -0.072634 0.602646 0.794346 0.07637 0.859689 0.48012 0.174412 0.837831 0.54328 -0.053727 0.660055 0.72498 0.196802 -0.631143 0.352844 -0.690768 -0.499632 0.800697 0.330533 -0.708563 0.312626 -0.632617 -0.423384 0.505321 -0.751929 -0.198341 0.732913 -0.650768 -0.070055 0.774965 -0.628109 0.665334 0.72979 0.157285 0.674636 0.684218 0.27697 0.644035 0.726213 0.240484 0.80937 0.58197 0.078941 0.770896 0.614448 0.167849 -0.144207 0.835391 0.530403 0.162292 0.955327 0.247006 0.287335 0.796872 0.531444 -0.648562 -0.751403 -0.121496 -0.766044 -0.639207 -0.06776 -0.754696 -0.653401 -0.059167 -0.737701 -0.672561 -0.058817 -0.474388 -0.862711 -0.175175 -0.346465 -0.901846 -0.25814 -0.05693 -0.974885 -0.215312 0.985679 -0.063418 -0.156254 0.972049 0.006035 -0.2347 0.980822 0.139976 -0.135628 0.871079 0.491036 -0.010273 0.845169 0.534373 -0.011589 0.830087 0.555037 -0.053758 0.790516 0.610189 -0.052474 0.681368 0.713019 0.165352 0.655849 0.738081 0.158424 0.680885 0.715517 0.156304 0.62177 0.736676 0.265914 0.064902 0.89189 0.44757 0.367289 0.762378 0.532803 -0.500808 0.601989 0.621933 -0.911355 -0.320857 0.257842 -0.825236 -0.552726 0.116098 -0.80979 -0.573924 0.121868 -0.460261 0.640442 0.614813 -0.596407 0.638281 0.486719 -0.839612 -0.540077 0.058042 -0.85286 -0.513414 0.09506 -0.865932 -0.497648 0.050078 -0.738192 -0.672531 -0.052676 -0.902962 -0.425755 0.05824 -0.918269 -0.322261 0.230063 -0.96387 -0.217617 0.153617 -0.571428 -0.820579 -0.010973 -0.60086 -0.799289 -0.010234 -0.241818 -0.966773 -0.082913 0.447163 -0.866247 0.22285 0.994156 0.099173 -0.042646 0.981061 0.192413 -0.022279 0.87375 0.486368 -0.002539 0.543233 0.822624 0.167891 0.532807 0.829235 0.168777 -0.034659 0.854626 0.518086</float_array>
          <technique_common>
            <accessor source="#BloodDagger-mesh-normals-array" count="500" stride="3">
              <param name="X" type="float"/>
              <param name="Y" type="float"/>
              <param name="Z" type="float"/>
            </accessor>
          </technique_common>
        </source>
        <source id="BloodDagger-mesh-map-0">
          <float_array id="BloodDagger-mesh-map-0-array" count="3000">0.435059 0.675781 0.404785 0.70752 0.371338 0.672852 0.371338 0.672852 0.404785 0.70752 0.358398 0.710205 0.435059 0.675781 0.371338 0.672852 0.414307 0.600586 0.414307 0.600586 0.371338 0.672852 0.305908 0.679443 0.414307 0.600586 0.305908 0.679443 0.342529 0.614258 0.342529 0.614258 0.305908 0.679443 0.288574 0.615723 0.414307 0.600586 0.342529 0.614258 0.395996 0.535889 0.395996 0.535889 0.342529 0.614258 0.288574 0.615723 0.414307 0.600586 0.395996 0.535889 0.438232 0.575928 0.414307 0.600586 0.438232 0.575928 0.48584 0.583008 0.48584 0.583008 0.438232 0.575928 0.408447 0.499512 0.408447 0.499512 0.438232 0.575928 0.395996 0.535889 0.395996 0.535889 0.288574 0.615723 0.331787 0.546631 0.395996 0.535889 0.331787 0.546631 0.408447 0.499512 0.331787 0.546631 0.288574 0.615723 0.241211 0.607422 0.331787 0.546631 0.241211 0.607422 0.253418 0.559082 0.408447 0.499512 0.331787 0.546631 0.319092 0.503174 0.319092 0.503174 0.331787 0.546631 0.253418 0.559082 0.408447 0.499512 0.319092 0.503174 0.34375 0.460693 0.319092 0.503174 0.253418 0.559082 0.283447 0.476807 0.319092 0.503174 0.283447 0.476807 0.34375 0.460693 0.34375 0.460693 0.283447 0.476807 0.310791 0.423096 0.728271 0.243164 0.709473 0.171875 0.743408 0.180908 0.709473 0.171875 0.728271 0.243164 0.672607 0.211914 0.743408 0.180908 0.709473 0.171875 0.717041 0.144531 0.743408 0.180908 0.717041 0.144531 0.796631 0.144043 0.717041 0.144531 0.709473 0.171875 0.675049 0.143799 0.717041 0.144531 0.675049 0.143799 0.666992 0.105469 0.666992 0.105469 0.675049 0.143799 0.633545 0.148438 0.675049 0.143799 0.709473 0.171875 0.667969 0.166748 0.675049 0.143799 0.667969 0.166748 0.633545 0.148438 0.667969 0.166748 0.709473 0.171875 0.672607 0.211914 0.667969 0.166748 0.672607 0.211914 0.619385 0.176025 0.667969 0.166748 0.619385 0.176025 0.633545 0.148438 0.619385 0.176025 0.672607 0.211914 0.640625 0.255371 0.619385 0.176025 0.640625 0.255371 0.584473 0.220459 0.619385 0.176025 0.584473 0.220459 0.564209 0.155518 0.619385 0.176025 0.564209 0.155518 0.633545 0.148438 0.633545 0.148438 0.564209 0.155518 0.58374 0.105713 0.684082 0.231934 0.676514 0.275146 0.647461 0.311279 0.740967 0.296631 0.680908 0.328125 0.676514 0.275146 0.676514 0.275146 0.680908 0.328125 0.647461 0.311279 0.684082 0.231934 0.647461 0.311279 0.616455 0.28125 0.568848 0.247559 0.571777 0.216064 0.616455 0.28125 0.568848 0.247559 0.616455 0.28125 0.587891 0.284424 0.587891 0.284424 0.616455 0.28125 0.612061 0.319092 0.612061 0.319092 0.616455 0.28125 0.647461 0.311279 0.587891 0.284424 0.612061 0.319092 0.555176 0.310303 0.555176 0.310303 0.612061 0.319092 0.555176 0.340088 0.555176 0.340088 0.612061 0.319092 0.578125 0.37085 0.578125 0.37085 0.612061 0.319092 0.633789 0.363281 0.633789 0.363281 0.612061 0.319092 0.647461 0.311279 0.578125 0.37085 0.633789 0.363281 0.581787 0.414062 0.674316 0.366699 0.647461 0.311279 0.680908 0.328125 0.647461 0.311279 0.674316 0.366699 0.633789 0.363281 0.674316 0.366699 0.680908 0.328125 0.702637 0.34668 0.581787 0.414062 0.633789 0.363281 0.649658 0.406494 0.649658 0.406494 0.633789 0.363281 0.674316 0.366699 0.581787 0.414062 0.649658 0.406494 0.585205 0.441895 0.649658 0.406494 0.674316 0.366699 0.673096 0.426514 0.649658 0.406494 0.673096 0.426514 0.585205 0.441895 0.585205 0.441895 0.673096 0.426514 0.647217 0.476562 0.647217 0.476562 0.673096 0.426514 0.66333 0.521484 0.331543 0.007568 0.405273 0.031494 0.321777 0.049561 0.241211 0.243652 0.286621 0.272217 0.248535 0.299072 0.286621 0.272217 0.241211 0.243652 0.266602 0.199951 0.286621 0.272217 0.266602 0.199951 0.349609 0.280762 0.286621 0.272217 0.349609 0.280762 0.291504 0.311523 0.349609 0.280762 0.266602 0.199951 0.344482 0.237549 0.344482 0.237549 0.266602 0.199951 0.268311 0.167725 0.349609 0.280762 0.344482 0.237549 0.40625 0.237549 0.349609 0.280762 0.40625 0.237549 0.415039 0.287842 0.344482 0.237549 0.268311 0.167725 0.333252 0.159424 0.344482 0.237549 0.333252 0.159424 0.40625 0.237549 0.333252 0.159424 0.268311 0.167725 0.293457 0.123779 0.333252 0.159424 0.293457 0.123779 0.354736 0.107666 0.40625 0.237549 0.333252 0.159424 0.387451 0.178223 0.387451 0.178223 0.333252 0.159424 0.354736 0.107666 0.40625 0.237549 0.387451 0.178223 0.436035 0.197266 0.387451 0.178223 0.354736 0.107666 0.378174 0.119141 0.436035 0.197266 0.387451 0.178223 0.417236 0.138428 0.417236 0.138428 0.387451 0.178223 0.378174 0.119141 0.436035 0.197266 0.417236 0.138428 0.460938 0.151855 0.417236 0.138428 0.378174 0.119141 0.460449 0.104248 0.417236 0.138428 0.460449 0.104248 0.460938 0.151855 0.385498 0.092285 0.422363 0.055176 0.464844 0.086426 0.448242 0.007324 0.482422 0.015137 0.422363 0.055176 0.422363 0.055176 0.482422 0.015137 0.464844 0.086426 0.464844 0.086426 0.482422 0.015137 0.528076 0.011719 0.464844 0.086426 0.528076 0.011719 0.523193 0.07666 0.464844 0.086426 0.523193 0.07666 0.502197 0.135742 0.464844 0.086426 0.502197 0.135742 0.469238 0.157227 0.502197 0.135742 0.523193 0.07666 0.552246 0.134521 0.502197 0.135742 0.552246 0.134521 0.525879 0.179443 0.552246 0.134521 0.523193 0.07666 0.580566 0.099365 0.230957 0.061279 0.22998 0.107422 0.187256 0.078857 0.22998 0.107422 0.230957 0.061279 0.279541 0.0896 0.230957 0.061279 0.187256 0.078857 0.21167 0.023438 0.21167 0.023438 0.187256 0.078857 0.156738 0.031738 0.156738 0.031738 0.187256 0.078857 0.153809 0.094238 0.156738 0.031738 0.153809 0.094238 0.118652 0.101807 0.156738 0.031738 0.118652 0.101807 0.13501 0.025635 0.252197 0.944824 0.286133 0.976074 0.26001 0.996582 0.26001 0.996582 0.286133 0.976074 0.339111 1 0.252197 0.944824 0.26001 0.996582 0.210205 0.998779 0.252197 0.944824 0.210205 0.998779 0.196533 0.935547 0.196533 0.935547 0.210205 0.998779 0.153809 0.981934 0.252197 0.944824 0.196533 0.935547 0.242432 0.907227 0.242432 0.907227 0.196533 0.935547 0.193115 0.89502 0.364014 0.865479 0.402344 0.81958 0.414307 0.834717 0.402344 0.81958 0.364014 0.865479 0.368164 0.801758 0.368164 0.801758 0.364014 0.865479 0.312988 0.8479 0.368164 0.801758 0.312988 0.8479 0.298096 0.816406 0.368164 0.801758 0.298096 0.816406 0.341797 0.762939 0.341797 0.762939 0.298096 0.816406 0.285156 0.756104 0.285156 0.756104 0.298096 0.816406 0.253906 0.828125 0.341797 0.762939 0.285156 0.756104 0.338135 0.724854 0.338135 0.724854 0.285156 0.756104 0.283936 0.718018 0.338135 0.724854 0.283936 0.718018 0.289307 0.704346 0.283936 0.718018 0.285156 0.756104 0.241943 0.692139 0.289307 0.704346 0.283936 0.718018 0.266113 0.679688 0.266113 0.679688 0.283936 0.718018 0.241943 0.692139 0.922119 0.50293 0.857422 0.532959 0.846924 0.510498 0.922119 0.50293 0.846924 0.510498 0.851318 0.490234 0.922119 0.50293 0.851318 0.490234 0.843018 0.450928 0.857422 0.532959 0.922119 0.50293 0.925781 0.544678 0.925781 0.544678 0.922119 0.50293 0.984131 0.516113 0.922119 0.50293 0.843018 0.450928 0.932373 0.46167 0.857422 0.532959 0.925781 0.544678 0.881836 0.59375 0.925781 0.544678 0.984131 0.516113 0.952393 0.588623 0.925781 0.544678 0.952393 0.588623 0.881836 0.59375 0.881836 0.59375 0.952393 0.588623 0.905273 0.644287 0.881836 0.59375 0.905273 0.644287 0.864502 0.630127 0.905273 0.644287 0.952393 0.588623 0.958252 0.640137 0.905273 0.644287 0.958252 0.640137 0.948975 0.681396 0.905273 0.644287 0.948975 0.681396 0.901123 0.678223 0.88916 0.426514 0.932373 0.46167 0.843018 0.450928 0.88916 0.426514 0.843018 0.450928 0.84668 0.401611 0.932373 0.46167 0.88916 0.426514 0.975098 0.403564 0.932373 0.46167 0.975098 0.403564 0.984863 0.456055 0.88916 0.426514 0.84668 0.401611 0.891602 0.369873 0.88916 0.426514 0.891602 0.369873 0.975098 0.403564 0.975098 0.403564 0.891602 0.369873 0.958496 0.333496 0.958496 0.333496 0.891602 0.369873 0.905518 0.295166 0.905518 0.295166 0.891602 0.369873 0.852539 0.298096 0.026123 0.89209 0.077393 0.958984 0.037354 0.953613 0.077393 0.958984 0.026123 0.89209 0.121338 0.922363 0.026123 0.89209 0.037354 0.953613 0.000488 0.944824 0.000488 0.944824 0.037354 0.953613 0.0271 0.986328 0.026123 0.89209 0.000488 0.944824 0.001709 0.89917 0.121338 0.922363 0.026123 0.89209 0.060059 0.856445 0.121338 0.922363 0.060059 0.856445 0.104004 0.850342 0.060059 0.856445 0.026123 0.89209 0 0.815674 0.058838 0.078857 0.07373 0.03418 0.083252 0.128906 0.083252 0.128906 0.07373 0.03418 0.104736 0.081055 0.104736 0.081055 0.07373 0.03418 0.11084 0.037598 0.11084 0.037598 0.07373 0.03418 0.128174 0.005371 0.07373 0.03418 0.058838 0.078857 0.033447 0.028564 0.07373 0.03418 0.033447 0.028564 0.020264 0.001221 0.033447 0.028564 0.058838 0.078857 0 0.063965 0.033447 0.028564 0 0.063965 0.004395 0.029297 0.12085 0.822754 0.175781 0.824219 0.15332 0.85083 0.175781 0.824219 0.12085 0.822754 0.14502 0.799072 0.175781 0.824219 0.14502 0.799072 0.181641 0.801514 0.15332 0.85083 0.175781 0.824219 0.213867 0.862305 0.175781 0.824219 0.181641 0.801514 0.221924 0.827148 0.175781 0.824219 0.221924 0.827148 0.213867 0.862305 0.221924 0.827148 0.181641 0.801514 0.200439 0.763672 0.200439 0.763672 0.181641 0.801514 0.181885 0.752686 0.221924 0.827148 0.200439 0.763672 0.243896 0.78418 0.243896 0.78418 0.200439 0.763672 0.237793 0.73999 0.237793 0.73999 0.200439 0.763672 0.205322 0.716553 0.221924 0.827148 0.243896 0.78418 0.237549 0.825684 0.221924 0.827148 0.237549 0.825684 0.213867 0.862305 0.194092 0.88623 0.15332 0.85083 0.213867 0.862305 0.15332 0.85083 0.194092 0.88623 0.119629 0.891602 0.119629 0.891602 0.194092 0.88623 0.140625 0.925537 0.194092 0.88623 0.213867 0.862305 0.256836 0.904297 0.213867 0.862305 0.237549 0.825684 0.285645 0.885986 0.213867 0.862305 0.285645 0.885986 0.256836 0.904297 0.285645 0.885986 0.237549 0.825684 0.30542 0.865479 0.256836 0.904297 0.285645 0.885986 0.301514 0.921143 0.301514 0.921143 0.285645 0.885986 0.30542 0.865479 0.714844 0.912109 0.668213 0.942383 0.651611 0.910889 0.651611 0.910889 0.668213 0.942383 0.594482 0.939209 0.651611 0.910889 0.594482 0.939209 0.623779 0.887451 0.714844 0.912109 0.651611 0.910889 0.662842 0.876465 0.662842 0.876465 0.651611 0.910889 0.623779 0.887451 0.714844 0.912109 0.662842 0.876465 0.710693 0.855957 0.714844 0.912109 0.710693 0.855957 0.759277 0.905029 0.662842 0.876465 0.623779 0.887451 0.674805 0.843262 0.662842 0.876465 0.674805 0.843262 0.710693 0.855957 0.759277 0.905029 0.710693 0.855957 0.759277 0.841064 0.759277 0.905029 0.759277 0.841064 0.795898 0.903564 0.759277 0.841064 0.710693 0.855957 0.706055 0.824463 0.706055 0.824463 0.710693 0.855957 0.674805 0.843262 0.706055 0.824463 0.674805 0.843262 0.68042 0.768799 0.68042 0.768799 0.674805 0.843262 0.641357 0.793701 0.641357 0.793701 0.674805 0.843262 0.637451 0.831543 0.637451 0.831543 0.674805 0.843262 0.623779 0.887451 0.637451 0.831543 0.623779 0.887451 0.584717 0.862061 0.725586 0.057617 0.75708 0.06958 0.751709 0.093506 0.751709 0.093506 0.75708 0.06958 0.808594 0.110352 0.808594 0.110352 0.75708 0.06958 0.835938 0.076416 0.751709 0.093506 0.808594 0.110352 0.804688 0.141846 0.804688 0.141846 0.808594 0.110352 0.848633 0.164551 0.804688 0.141846 0.848633 0.164551 0.844482 0.199463 0.808594 0.110352 0.835938 0.076416 0.853027 0.120605 0.808594 0.110352 0.853027 0.120605 0.848633 0.164551 0.853027 0.120605 0.835938 0.076416 0.878662 0.049072 0.853027 0.120605 0.878662 0.049072 0.907227 0.04834 0.848633 0.164551 0.853027 0.120605 0.891602 0.148438 0.891602 0.148438 0.853027 0.120605 0.89502 0.117432 0.19043 0.618408 0.155273 0.531982 0.204102 0.563477 0.204102 0.563477 0.155273 0.531982 0.200195 0.534668 0.200195 0.534668 0.155273 0.531982 0.186279 0.501953 0.200195 0.534668 0.186279 0.501953 0.232422 0.529785 0.200195 0.534668 0.232422 0.529785 0.204102 0.563477 0.204102 0.563477 0.232422 0.529785 0.233643 0.572754 0.204102 0.563477 0.233643 0.572754 0.237549 0.619385 0.204102 0.563477 0.237549 0.619385 0.19043 0.618408 0.19043 0.618408 0.237549 0.619385 0.220947 0.650391 0.220947 0.650391 0.237549 0.619385 0.274658 0.661133 0.220947 0.650391 0.274658 0.661133 0.235596 0.675049 0.220947 0.650391 0.235596 0.675049 0.206055 0.702393 0.220947 0.650391 0.206055 0.702393 0.198242 0.680176 0.220947 0.650391 0.198242 0.680176 0.177246 0.671387 0.220947 0.650391 0.177246 0.671387 0.19043 0.618408 0.19043 0.618408 0.177246 0.671387 0.158691 0.658203 0.01709 0.268066 0.033936 0.334229 0.005127 0.300781 0.005127 0.300781 0.033936 0.334229 0.00708 0.342529 0.00708 0.342529 0.033936 0.334229 0.028076 0.374023 0.00708 0.342529 0.028076 0.374023 0.007324 0.396484 0.007324 0.396484 0.028076 0.374023 0.034424 0.412598 0.563721 0.270752 0.476074 0.284668 0.514404 0.248047 0.476074 0.284668 0.563721 0.270752 0.519287 0.341553 0.514404 0.248047 0.476074 0.284668 0.45874 0.268799 0.514404 0.248047 0.45874 0.268799 0.457764 0.231934 0.457764 0.231934 0.45874 0.268799 0.428467 0.218994 0.428467 0.218994 0.45874 0.268799 0.422852 0.231689 0.45874 0.268799 0.476074 0.284668 0.411865 0.341797 0.411865 0.341797 0.476074 0.284668 0.440186 0.380859 0.440186 0.380859 0.476074 0.284668 0.519287 0.341553 0.440186 0.380859 0.519287 0.341553 0.506592 0.432129 0.440186 0.380859 0.506592 0.432129 0.477051 0.461426 0.440186 0.380859 0.477051 0.461426 0.416016 0.415283 0.416016 0.415283 0.477051 0.461426 0.457275 0.482178 0.416016 0.415283 0.457275 0.482178 0.408447 0.491699 0.416016 0.415283 0.408447 0.491699 0.392578 0.442139 0.061523 0.5979 0.123047 0.60498 0.101074 0.640869 0.061523 0.5979 0.101074 0.640869 0.069824 0.678955 0.101074 0.640869 0.123047 0.60498 0.124512 0.683594 0.124512 0.683594 0.123047 0.60498 0.158936 0.671143 0.069824 0.678955 0.101074 0.640869 0.108643 0.709473 0.108643 0.709473 0.101074 0.640869 0.124512 0.683594 0.124512 0.683594 0.158936 0.671143 0.16626 0.692383 0.124512 0.683594 0.16626 0.692383 0.108643 0.709473 0.069824 0.678955 0.108643 0.709473 0.068115 0.711182 0.068115 0.711182 0.108643 0.709473 0.097412 0.759521 0.108643 0.709473 0.16626 0.692383 0.148682 0.717041 0.108643 0.709473 0.148682 0.717041 0.097412 0.759521 0.148682 0.717041 0.16626 0.692383 0.205078 0.710205 0.097412 0.759521 0.148682 0.717041 0.124023 0.753662 0.097412 0.759521 0.124023 0.753662 0.105713 0.777344 0.124023 0.753662 0.148682 0.717041 0.15918 0.743164 0.44458 0.630615 0.48584 0.700684 0.442383 0.677734 0.442383 0.677734 0.48584 0.700684 0.414795 0.719727 0.414795 0.719727 0.48584 0.700684 0.485596 0.748535 0.485596 0.748535 0.48584 0.700684 0.528809 0.708496 0.414795 0.719727 0.485596 0.748535 0.395508 0.808838 0.414795 0.719727 0.395508 0.808838 0.396729 0.740234 0.395508 0.808838 0.485596 0.748535 0.476807 0.818359 0.476807 0.818359 0.485596 0.748535 0.506836 0.759766 0.506836 0.759766 0.485596 0.748535 0.528809 0.708496 0.476807 0.818359 0.506836 0.759766 0.494629 0.81958 0.506836 0.759766 0.528809 0.708496 0.564941 0.757812 0.506836 0.759766 0.564941 0.757812 0.494629 0.81958 0.564941 0.757812 0.528809 0.708496 0.565186 0.710693 0.494629 0.81958 0.564941 0.757812 0.568359 0.794678 0.494629 0.81958 0.568359 0.794678 0.498535 0.838379 0.498535 0.838379 0.568359 0.794678 0.604004 0.843506 0.604004 0.843506 0.568359 0.794678 0.62915 0.816406 0.62915 0.816406 0.568359 0.794678 0.564941 0.757812 0.62915 0.816406 0.564941 0.757812 0.631104 0.749756 0.631104 0.749756 0.564941 0.757812 0.565186 0.710693 0.631104 0.749756 0.565186 0.710693 0.602783 0.700195 0.631104 0.749756 0.602783 0.700195 0.624268 0.719971 0.631104 0.749756 0.624268 0.719971 0.654297 0.731445 0.654297 0.731445 0.624268 0.719971 0.673096 0.704346 0.566406 0.051514 0.589111 0.076904 0.545166 0.074951 0.589111 0.076904 0.566406 0.051514 0.606689 0 0.589111 0.076904 0.606689 0 0.644287 0.048096 0.589111 0.076904 0.644287 0.048096 0.618896 0.101318 0.644287 0.048096 0.606689 0 0.647705 0.002441 0.618896 0.101318 0.644287 0.048096 0.659912 0.09668 0.618896 0.101318 0.659912 0.09668 0.631836 0.138916 0.659912 0.09668 0.644287 0.048096 0.672607 0.054199 0.672607 0.054199 0.644287 0.048096 0.647705 0.002441 0.672607 0.054199 0.647705 0.002441 0.702881 0.015625 0.754883 0.992188 0.726562 0.972168 0.754883 0.911865 0.773193 0.010986 0.813477 0.002197 0.808594 0.023193 0.808594 0.023193 0.813477 0.002197 0.855225 0.030518 0.773193 0.010986 0.808594 0.023193 0.767334 0.065918 0.808594 0.023193 0.855225 0.030518 0.841064 0.06543 0.808594 0.023193 0.841064 0.06543 0.767334 0.065918 0.699707 0.929688 0.73877 0.913818 0.712646 0.996094 0.096436 0.954346 0.131348 0.922852 0.107666 0.99707 0.74585 0.301758 0.765625 0.315674 0.704346 0.328125 0.746094 0.213379 0.833008 0.297119 0.74585 0.301758 0.74585 0.301758 0.833008 0.297119 0.765625 0.315674 0.765625 0.315674 0.833008 0.297119 0.85791 0.321289 0.765625 0.315674 0.85791 0.321289 0.811523 0.334717 0.811523 0.334717 0.85791 0.321289 0.844482 0.394043 0.765625 0.315674 0.811523 0.334717 0.754395 0.376465 0.754395 0.376465 0.811523 0.334717 0.844482 0.394043 0.765625 0.315674 0.754395 0.376465 0.712158 0.366943 0.754395 0.376465 0.844482 0.394043 0.806396 0.425293 0.754395 0.376465 0.806396 0.425293 0.709229 0.419922 0.709229 0.419922 0.806396 0.425293 0.732422 0.450195 0.732422 0.450195 0.806396 0.425293 0.787842 0.451904 0.732422 0.450195 0.787842 0.451904 0.809326 0.479492 0.732422 0.450195 0.809326 0.479492 0.695557 0.479492 0.695557 0.479492 0.809326 0.479492 0.710205 0.523438 0.710205 0.523438 0.809326 0.479492 0.76416 0.536621 0.76416 0.536621 0.809326 0.479492 0.838623 0.546143 0.710205 0.523438 0.76416 0.536621 0.77124 0.594727 0.76416 0.536621 0.838623 0.546143 0.792236 0.575439 0.76416 0.536621 0.792236 0.575439 0.77124 0.594727 0.792236 0.575439 0.838623 0.546143 0.865479 0.574951 0.792236 0.575439 0.865479 0.574951 0.77124 0.594727 0.77124 0.594727 0.865479 0.574951 0.828857 0.604004 0.77124 0.594727 0.828857 0.604004 0.721924 0.624512 0.721924 0.624512 0.828857 0.604004 0.793945 0.721191 0.77124 0.594727 0.721924 0.624512 0.6875 0.609375 0.132812 0.137207 0.097412 0.11377 0.103027 0.104248 0.132812 0.137207 0.103027 0.104248 0.114258 0.106934 0.132812 0.137207 0.114258 0.106934 0.180664 0.104248 0.097412 0.11377 0.132812 0.137207 0.149658 0.163086 0.097412 0.11377 0.149658 0.163086 0.092773 0.179688 0.132812 0.137207 0.180664 0.104248 0.15918 0.157715 0.132812 0.137207 0.15918 0.157715 0.149658 0.163086 0.205566 0.104004 0.215088 0.117432 0.180664 0.104248 0.215088 0.117432 0.205566 0.104004 0.230469 0.114502 0.180664 0.104248 0.215088 0.117432 0.224854 0.136475 0.224854 0.136475 0.215088 0.117432 0.230469 0.114502 0.180664 0.104248 0.224854 0.136475 0.15918 0.157715 0.224854 0.136475 0.230469 0.114502 0.245361 0.15332 0.224854 0.136475 0.245361 0.15332 0.15918 0.157715 0.245361 0.15332 0.230469 0.114502 0.272461 0.147705 0.272461 0.147705 0.230469 0.114502 0.268066 0.105225 0.15918 0.157715 0.245361 0.15332 0.192139 0.188477 0.15918 0.157715 0.192139 0.188477 0.162109 0.172119 0.15918 0.157715 0.162109 0.172119 0.149658 0.163086 0.162109 0.172119 0.192139 0.188477 0.187744 0.196533 0.149658 0.163086 0.162109 0.172119 0.092773 0.179688 0.162109 0.172119 0.187744 0.196533 0.188965 0.219482 0.162109 0.172119 0.188965 0.219482 0.092773 0.179688 0.092773 0.179688 0.188965 0.219482 0.121338 0.237061 0.092773 0.179688 0.121338 0.237061 0.096191 0.221924 0.092773 0.179688 0.096191 0.221924 0.088867 0.198242 0.096191 0.221924 0.121338 0.237061 0.096924 0.258545 0.096924 0.258545 0.121338 0.237061 0.110352 0.268066 0.110352 0.268066 0.121338 0.237061 0.137695 0.263184 0.096924 0.258545 0.110352 0.268066 0.110596 0.281738 0.096924 0.258545 0.110596 0.281738 0.090088 0.280518 1 0.828125 0.993408 0.831299 0.994141 0.791748 0.418457 0.831299 0.44043 0.865723 0.421875 0.849121 0.421875 0.849121 0.44043 0.865723 0.439453 0.910156 0.421875 0.849121 0.439453 0.910156 0.372314 0.926514 0.318848 0.957031 0.372314 0.926514 0.345703 0.99707 0.345703 0.99707 0.372314 0.926514 0.367188 0.989502 0.367188 0.989502 0.372314 0.926514 0.417725 0.986816 0.417725 0.986816 0.372314 0.926514 0.439453 0.910156 0.417725 0.986816 0.439453 0.910156 0.439209 0.967529 0.439453 0.910156 0.44043 0.865723 0.450928 0.905273 0.439453 0.910156 0.450928 0.905273 0.439209 0.967529 0.450928 0.905273 0.44043 0.865723 0.450928 0.820801 0.439209 0.967529 0.450928 0.905273 0.475586 0.99707 0.475586 0.99707 0.450928 0.905273 0.523193 0.957275 0.523193 0.957275 0.450928 0.905273 0.504395 0.908936 0.523193 0.957275 0.504395 0.908936 0.555664 0.950684 0.961914 0.107178 0.973389 0.175049 0.938721 0.147217 0.961914 0.107178 0.938721 0.147217 0.921387 0.120361 0.921387 0.120361 0.938721 0.147217 0.927002 0.140625 0.938721 0.147217 0.973389 0.175049 0.939941 0.170654 0.938721 0.147217 0.939941 0.170654 0.927002 0.140625 0.939941 0.170654 0.973389 0.175049 0.956299 0.229492 0.927002 0.140625 0.939941 0.170654 0.908936 0.154785 0.927002 0.140625 0.908936 0.154785 0.911377 0.143799 0.908936 0.154785 0.939941 0.170654 0.931885 0.200684 0.931885 0.200684 0.939941 0.170654 0.956299 0.229492 0.908936 0.154785 0.931885 0.200684 0.88916 0.157715 0.88916 0.157715 0.931885 0.200684 0.882812 0.168213 0.931885 0.200684 0.956299 0.229492 0.940674 0.231689 0.931885 0.200684 0.940674 0.231689 0.882812 0.168213 0.940674 0.231689 0.956299 0.229492 0.984863 0.251953 0.882812 0.168213 0.940674 0.231689 0.909424 0.223145 0.882812 0.168213 0.909424 0.223145 0.858154 0.167236 0.909424 0.223145 0.940674 0.231689 0.955078 0.270996 0.858154 0.167236 0.909424 0.223145 0.858643 0.210449 0.909424 0.223145 0.955078 0.270996 0.920654 0.273926 0.909424 0.223145 0.920654 0.273926 0.898193 0.243408 0.909424 0.223145 0.898193 0.243408 0.858643 0.210449 0.898193 0.243408 0.920654 0.273926 0.868652 0.259033 0.898193 0.243408 0.868652 0.259033 0.858643 0.210449 0.858643 0.210449 0.868652 0.259033 0.836426 0.218018 0.836426 0.218018 0.868652 0.259033 0.82959 0.284668 0.836426 0.218018 0.82959 0.284668 0.7854 0.238037 0.157471 0.352783 0.193359 0.2854 0.203125 0.372314 0.193359 0.2854 0.157471 0.352783 0.145508 0.273926 0.203125 0.372314 0.193359 0.2854 0.260986 0.310791 0.157471 0.352783 0.203125 0.372314 0.129883 0.398438 0.203125 0.372314 0.260986 0.310791 0.296875 0.339111 0.129883 0.398438 0.203125 0.372314 0.119873 0.431885 0.203125 0.372314 0.296875 0.339111 0.310303 0.361816 0.203125 0.372314 0.310303 0.361816 0.119873 0.431885 0.119873 0.431885 0.310303 0.361816 0.152344 0.450928 0.152344 0.450928 0.310303 0.361816 0.282959 0.405273 0.152344 0.450928 0.282959 0.405273 0.219238 0.470215 0.152344 0.450928 0.219238 0.470215 0.207764 0.506836 0.219238 0.470215 0.282959 0.405273 0.274414 0.481689 0.207764 0.506836 0.219238 0.470215 0.246338 0.522705 0.246338 0.522705 0.219238 0.470215 0.274414 0.481689 0.512939 0.419922 0.566895 0.506592 0.533203 0.473633 0.533203 0.473633 0.566895 0.506592 0.495361 0.588623 0.495361 0.588623 0.566895 0.506592 0.54126 0.607666 0.495361 0.588623 0.54126 0.607666 0.548584 0.677246 0.54126 0.607666 0.566895 0.506592 0.594971 0.599121 0.54126 0.607666 0.594971 0.599121 0.548584 0.677246 0.594971 0.599121 0.566895 0.506592 0.637207 0.507812 0.594971 0.599121 0.637207 0.507812 0.706055 0.568604 0.594971 0.599121 0.706055 0.568604 0.641602 0.623047 0.594971 0.599121 0.641602 0.623047 0.548584 0.677246 0.641602 0.623047 0.706055 0.568604 0.644775 0.662598 0.641602 0.623047 0.644775 0.662598 0.548584 0.677246 0.548584 0.677246 0.644775 0.662598 0.639648 0.705566 0.577148 0.974121 0.550049 0.999268 0.568604 0.917725 0.550049 0.999268 0.577148 0.974121 0.630371 0.996094 0.630371 0.996094 0.577148 0.974121 0.568604 0.917725 0.944336 0.059326 0.930908 0.032715 0.955322 0.000244 0.930908 0.032715 0.944336 0.059326 0.912598 0.059082 0.912598 0.059082 0.944336 0.059326 0.919678 0.114746 0.919678 0.114746 0.944336 0.059326 0.957275 0.092529 0.852783 0.939453 0.963379 0.997314 0.842041 0.984619 0.852783 0.939453 0.842041 0.984619 0.775391 0.962402 0.963379 0.997314 0.852783 0.939453 0.977539 0.969727 0.977539 0.969727 0.852783 0.939453 0.968018 0.898193 0.968018 0.898193 0.852783 0.939453 0.863525 0.878174 0.968018 0.898193 0.863525 0.878174 0.999756 0.84082 0.999756 0.84082 0.863525 0.878174 0.935791 0.810791 0.425293 0.031006 0.376221 0.070068 0.354248 0.054932 0.354248 0.054932 0.376221 0.070068 0.346924 0.103516 0.354248 0.054932 0.346924 0.103516 0.309326 0.11084 0.354248 0.054932 0.309326 0.11084 0.315918 0.055176 0.315918 0.055176 0.309326 0.11084 0.287354 0.095703 0.315918 0.055176 0.287354 0.095703 0.277832 0.047607 0.315918 0.055176 0.277832 0.047607 0.282959 0.031006 0.70459 0.758301 0.718018 0.743408 0.729736 0.7854 0.729736 0.7854 0.718018 0.743408 0.76001 0.729004 0.729736 0.7854 0.76001 0.729004 0.753418 0.832764 0.753418 0.832764 0.76001 0.729004 0.794922 0.837158 0.794922 0.837158 0.76001 0.729004 0.786377 0.769775 0.786377 0.769775 0.76001 0.729004 0.762451 0.705322 0.794922 0.837158 0.786377 0.769775 0.804932 0.849609 0.804932 0.849609 0.786377 0.769775 0.80835 0.828613 0.786377 0.769775 0.762451 0.705322 0.783691 0.734619 0.786377 0.769775 0.783691 0.734619 0.80835 0.828613 0.80835 0.828613 0.783691 0.734619 0.850098 0.829346 0.850098 0.829346 0.783691 0.734619 0.846924 0.733887 0.846924 0.733887 0.783691 0.734619 0.830811 0.707031 0.846924 0.733887 0.830811 0.707031 0.864502 0.693359 0.846924 0.733887 0.864502 0.693359 0.888672 0.718506 0.850098 0.829346 0.846924 0.733887 0.881836 0.797119 0.881836 0.797119 0.846924 0.733887 0.888672 0.718506 0.850098 0.829346 0.881836 0.797119 0.885742 0.840576 0.895508 0.666748 0.897217 0.727295 0.888672 0.718506 0.888672 0.718506 0.897217 0.727295 0.893066 0.757568 0.888672 0.718506 0.893066 0.757568 0.881836 0.797119 0.893066 0.757568 0.897217 0.727295 0.927979 0.689209 0.893066 0.757568 0.927979 0.689209 0.943848 0.740234 0.893066 0.757568 0.943848 0.740234 0.938477 0.76416 0.881836 0.797119 0.893066 0.757568 0.888672 0.80249 0.881836 0.797119 0.888672 0.80249 0.885742 0.840576 0.888672 0.80249 0.893066 0.757568 0.938477 0.76416 0.885742 0.840576 0.888672 0.80249 0.927734 0.808594 0.927734 0.808594 0.888672 0.80249 0.938477 0.76416 0.150879 0.538086 0.102295 0.551758 0.082764 0.463623 0.150879 0.538086 0.082764 0.463623 0.147949 0.457275 0.147949 0.457275 0.082764 0.463623 0.094482 0.425049 0.094482 0.425049 0.082764 0.463623 0.015381 0.415283 0.015381 0.415283 0.082764 0.463623 0.102295 0.551758 0.015381 0.415283 0.102295 0.551758 0.036133 0.480713 0.036133 0.480713 0.102295 0.551758 0.077148 0.554932 0.015381 0.415283 0.036133 0.480713 0.000244 0.439453 0.036133 0.480713 0.077148 0.554932 0.063721 0.586182 0.036133 0.480713 0.063721 0.586182 0.000244 0.439453 0.000244 0.439453 0.063721 0.586182 0.003418 0.585449 0.05249 0.321289 0.082275 0.418457 0.039062 0.396729 0.082275 0.418457 0.05249 0.321289 0.073242 0.25708 0.073242 0.25708 0.05249 0.321289 0.055908 0.25</float_array>
          <technique_common>
            <accessor source="#BloodDagger-mesh-map-0-array" count="1500" stride="2">
              <param name="S" type="float"/>
              <param name="T" type="float"/>
            </accessor>
          </technique_common>
        </source>
        <vertices id="BloodDagger-mesh-vertices">
          <input semantic="POSITION" source="#BloodDagger-mesh-positions"/>
        </vertices>
        <polylist material="Material_-1-material" count="6">
          <input semantic="VERTEX" source="#BloodDagger-mesh-vertices" offset="0"/>
          <input semantic="NORMAL" source="#BloodDagger-mesh-normals" offset="1"/>
          <input semantic="TEXCOORD" source="#BloodDagger-mesh-map-0" offset="2" set="0"/>
          <vcount>3 3 3 3 3 3 3 3 3 3 3 3 3 3 3 3 3 3 3 3 3 3 3 3 3 3 3 3 3 3 3 3 3 3 3 3 3 3 3 3 3 3 3 3 3 3 3 3 3 3 3 3 3 3 3 3 3 3 3 3 3 3 3 3 3 3 3 3 3 3 3 3 3 3 3 3 3 3 3 3 3 3 3 3 3 3 3 3 3 3 3 3 3 3 3 3 3 3 3 3 3 3 3 3 3 3 3 3 3 3 3 3 3 3 3 3 3 3 3 3 3 3 3 3 3 3 3 3 3 3 3 3 3 3 3 3 3 3 3 3 3 3 3 3 3 3 3 3 3 3 3 3 3 3 3 3 3 3 3 3 3 3 3 3 3 3 3 3 3 3 3 3 3 3 3 3 3 3 3 3 3 3 3 3 3 3 3 3 3 3 3 3 3 3 3 3 3 3 3 3 3 3 3 3 3 3 3 3 3 3 3 3 3 3 3 3 3 3 3 3 3 3 3 3 3 3 3 3 3 3 3 3 3 3 3 3 3 3 3 3 3 3 3 3 3 3 3 3 3 3 3 3 3 3 3 3 3 3 3 3 3 3 3 3 3 3 3 3 3 3 3 3 3 3 3 3 3 3 3 3 3 3 3 3 3 3 3 3 3 3 3 3 3 3 3 3 3 3 3 3 3 3 3 3 3 3 3 3 3 3 3 3 3 3 3 3 3 3 3 3 3 3 3 3 3 3 3 3 3 3 3 3 3 3 3 3 3 3 3 3 3 3 3 3 3 3 3 3 3 3 3 3 3 3 3 3 3 3 3 3 3 3 3 3 3 3 3 3 3 3 3 3 3 3 3 3 3 3 3 3 3 3 3 3 3 3 3 3 3 3 3 3 3 3 3 3 3 3 3 3 3 3 3 3 3 3 3 3 3 3 3 3 3 3 3 3 3 3 3 3 3 3 3 3 3 3 3 3 3 3 3 3 3 3 3 3 3 3 3 3 3 3 3 3 3 3 3 3 3 3 3 3 3 3 3 3 3 3 3 3 3 3 3 3 3 3 3 3 3 3 3 3 3 3 3 3 3 3 3 3 3 3 3 3 3 3 3 3 3 3 3 3 3 3 3 3 3 3 3 3</vcount>
          <p>0 0 0 1 0 1 2 0 2 2 1 3 1 1 4 3 1 5 0 2 6 2 2 7 4 2 8 4 3 9 2 3 10 5 3 11 4 4 12 5 4 13 6 4 14 6 5 15 5 5 16 7 5 17 4 6 18 6 6 19 8 6 20 8 7 21 6 7 22 7 7 23 4 8 24 8 8 25 9 8 26 4 9 27 9 9 28 10 9 29 10 10 30 9 10 31 11 10 32 11 11 33 9 11 34 8 11 35 8 12 36 7 12 37 12 12 38 8 13 39 12 13 40 11 13 41 12 14 42 7 14 43 13 14 44 12 15 45 13 15 46 14 15 47 11 16 48 12 16 49 15 16 50 15 17 51 12 17 52 14 17 53 11 18 54 15 18 55 16 18 56 15 19 57 14 19 58 17 19 59 15 20 60 17 20 61 16 20 62 16 21 63 17 21 64 18 21 65 4 22 66 19 22 67 0 22 68 19 23 69 4 23 70 10 23 71 0 24 72 19 24 73 20 24 74 0 25 75 20 25 76 21 25 77 20 26 78 19 26 79 22 26 80 20 27 81 22 27 82 23 27 83 23 28 84 22 28 85 24 28 86 22 29 87 19 29 88 25 29 89 22 30 90 25 30 91 24 30 92 25 31 93 19 31 94 10 31 95 25 32 96 10 32 97 26 32 98 25 33 99 26 33 100 24 33 101 26 34 102 10 34 103 11 34 104 26 35 105 11 35 106 16 35 107 26 36 108 16 36 109 27 36 110 26 37 111 27 37 112 24 37 113 24 38 114 27 38 115 28 38 116 20 39 117 29 39 118 30 39 119 31 40 120 32 40 121 29 40 122 29 41 123 32 41 124 30 41 125 20 42 126 30 42 127 21 42 128 1 43 129 0 43 130 21 43 131 1 44 132 21 44 133 33 44 134 33 45 135 21 45 136 34 45 137 34 46 138 21 46 139 30 46 140 33 47 141 34 47 142 35 47 143 35 48 144 34 48 145 36 48 146 36 49 147 34 49 148 37 49 149 37 50 150 34 50 151 38 50 152 38 51 153 34 51 154 30 51 155 37 52 156 38 52 157 39 52 158 40 53 159 30 53 160 32 53 161 30 54 162 40 54 163 38 54 164 40 55 165 32 55 166 41 55 167 39 56 168 38 56 169 42 56 170 42 57 171 38 57 172 40 57 173 39 58 174 42 58 175 43 58 176 42 59 177 40 59 178 27 59 179 42 60 180 27 60 181 43 60 182 43 61 183 27 61 184 18 61 185 18 62 186 27 62 187 16 62 188 20 63 189 44 63 190 29 63 191 33 64 192 3 64 193 1 64 194 3 65 195 33 65 196 35 65 197 3 66 198 35 66 199 5 66 200 3 67 201 5 67 202 2 67 203 5 68 204 35 68 205 45 68 206 45 69 207 35 69 208 36 69 209 5 70 210 45 70 211 13 70 212 5 71 213 13 71 214 7 71 215 45 72 216 36 72 217 46 72 218 45 73 219 46 73 220 13 73 221 46 74 222 36 74 223 37 74 224 46 75 225 37 75 226 39 75 227 13 76 228 46 76 229 47 76 230 47 77 231 46 77 232 39 77 233 13 78 234 47 78 235 14 78 236 47 79 237 39 79 238 43 79 239 14 80 240 47 80 241 48 80 242 48 81 243 47 81 244 43 81 245 14 82 246 48 82 247 17 82 248 48 83 249 43 83 250 18 83 251 48 84 252 18 84 253 17 84 254 20 85 255 23 85 256 44 85 257 49 86 258 50 86 259 23 86 260 23 87 261 50 87 262 44 87 263 44 88 264 50 88 265 51 88 266 44 89 267 51 89 268 52 89 269 44 90 270 52 90 271 31 90 272 44 91 273 31 91 274 29 91 275 31 92 276 52 92 277 53 92 278 31 93 279 53 93 280 32 93 281 53 94 282 52 94 283 54 94 284 55 95 285 52 95 286 51 95 287 52 96 288 55 96 289 54 96 290 55 97 291 51 97 292 56 97 293 56 98 294 51 98 295 57 98 296 57 99 297 51 99 298 50 99 299 57 100 300 50 100 301 49 100 302 57 101 303 49 101 304 58 101 305 59 102 306 60 102 307 49 102 308 49 103 309 60 103 310 58 103 311 59 104 312 49 104 313 23 104 314 59 105 315 23 105 316 28 105 317 28 106 318 23 106 319 24 106 320 59 107 321 28 107 322 61 107 323 61 108 324 28 108 325 62 108 326 60 109 327 63 109 328 58 109 329 63 110 330 60 110 331 64 110 332 64 111 333 60 111 334 59 111 335 64 112 336 59 112 337 61 112 338 64 113 339 61 113 340 65 113 341 65 114 342 61 114 343 66 114 344 66 115 345 61 115 346 62 115 347 65 116 348 66 116 349 67 116 350 67 117 351 66 117 352 68 117 353 67 118 354 68 118 355 69 118 356 68 119 357 66 119 358 70 119 359 69 120 360 68 120 361 71 120 362 71 121 363 68 121 364 70 121 365 72 122 366 57 122 367 58 122 368 72 123 369 58 123 370 63 123 371 72 124 372 63 124 373 64 124 374 57 125 375 72 125 376 73 125 377 73 126 378 72 126 379 74 126 380 72 127 381 64 127 382 75 127 383 57 128 384 73 128 385 56 128 386 73 129 387 74 129 388 76 129 389 73 130 390 76 130 391 56 130 392 56 131 393 76 131 394 77 131 395 56 132 396 77 132 397 55 132 398 77 133 399 76 133 400 78 133 401 77 134 402 78 134 403 79 134 404 77 135 405 79 135 406 80 135 407 81 136 408 75 136 409 64 136 410 81 137 411 64 137 412 65 137 413 75 138 414 81 138 415 82 138 416 75 139 417 82 139 418 83 139 419 81 140 420 65 140 421 67 140 422 81 141 423 67 141 424 82 141 425 82 142 426 67 142 427 84 142 428 84 143 429 67 143 430 85 143 431 85 144 432 67 144 433 69 144 434 70 145 435 40 145 436 41 145 437 40 146 438 70 146 439 27 146 440 70 147 441 41 147 442 53 147 443 53 148 444 41 148 445 32 148 446 70 149 447 53 149 448 71 149 449 27 150 450 70 150 451 62 150 452 27 151 453 62 151 454 28 151 455 62 152 456 70 152 457 66 152 458 54 153 459 86 153 460 53 153 461 53 154 462 86 154 463 71 154 464 71 155 465 86 155 466 69 155 467 69 156 468 86 156 469 85 156 470 86 157 471 54 157 472 80 157 473 86 158 474 80 158 475 79 158 476 80 159 477 54 159 478 55 159 479 80 160 480 55 160 481 77 160 482 72 161 483 87 161 484 74 161 485 87 162 486 72 162 487 75 162 488 87 163 489 75 163 490 83 163 491 74 164 492 87 164 493 88 164 494 87 165 495 83 165 496 89 165 497 87 166 498 89 166 499 88 166 500 89 167 501 83 167 502 90 167 503 90 168 504 83 168 505 82 168 506 89 169 507 90 169 508 91 169 509 91 170 510 90 170 511 92 170 512 92 171 513 90 171 514 93 171 515 89 172 516 91 172 517 94 172 518 89 173 519 94 173 520 88 173 521 95 174 522 74 174 523 88 174 524 74 175 525 95 175 526 96 175 527 96 176 528 95 176 529 97 176 530 95 177 531 88 177 532 98 177 533 88 178 534 94 178 535 99 178 536 88 179 537 99 179 538 98 179 539 99 180 540 94 180 541 100 180 542 98 181 543 99 181 544 101 181 545 101 182 546 99 182 547 100 182 548 78 183 549 76 183 550 102 183 551 102 184 552 76 184 553 74 184 554 102 185 555 74 185 556 96 185 557 78 186 558 102 186 559 103 186 560 103 187 561 102 187 562 96 187 563 78 188 564 103 188 565 104 188 566 78 189 567 104 189 568 79 189 569 103 190 570 96 190 571 105 190 572 103 191 573 105 191 574 104 191 575 79 192 576 104 192 577 84 192 578 79 193 579 84 193 580 85 193 581 84 194 582 104 194 583 106 194 584 106 195 585 104 195 586 105 195 587 106 196 588 105 196 589 107 196 590 107 197 591 105 197 592 108 197 593 108 198 594 105 198 595 109 198 596 109 199 597 105 199 598 96 199 599 109 200 600 96 200 601 97 200 602 101 201 603 110 201 604 98 201 605 98 202 606 110 202 607 111 202 608 111 203 609 110 203 610 112 203 611 98 204 612 111 204 613 95 204 614 95 205 615 111 205 616 113 205 617 95 206 618 113 206 619 97 206 620 111 207 621 112 207 622 114 207 623 111 208 624 114 208 625 113 208 626 114 209 627 112 209 628 115 209 629 114 210 630 115 210 631 116 210 632 113 211 633 114 211 634 117 211 635 117 212 636 114 212 637 118 212 638 112 213 639 110 213 640 119 213 641 119 214 642 110 214 643 120 214 644 120 215 645 110 215 646 101 215 647 120 216 648 101 216 649 100 216 650 120 217 651 100 217 652 119 217 653 119 218 654 100 218 655 121 218 656 119 219 657 121 219 658 122 219 659 119 220 660 122 220 661 112 220 662 112 221 663 122 221 664 123 221 665 123 222 666 122 222 667 124 222 668 123 223 669 124 223 670 125 223 671 123 224 672 125 224 673 126 224 674 123 225 675 126 225 676 127 225 677 123 226 678 127 226 679 128 226 680 123 227 681 128 227 682 112 227 683 112 228 684 128 228 685 115 228 686 100 229 687 94 229 688 121 229 689 121 230 690 94 230 691 122 230 692 122 231 693 94 231 694 91 231 695 122 232 696 91 232 697 124 232 698 124 233 699 91 233 700 92 233 701 113 234 702 129 234 703 97 234 704 129 235 705 113 235 706 117 235 707 97 236 708 129 236 709 130 236 710 97 237 711 130 237 712 109 237 713 109 238 714 130 238 715 108 238 716 108 239 717 130 239 718 131 239 719 130 240 720 129 240 721 132 240 722 132 241 723 129 241 724 133 241 725 133 242 726 129 242 727 117 242 728 133 243 729 117 243 730 134 243 731 133 244 732 134 244 733 135 244 734 133 245 735 135 245 736 136 245 737 136 246 738 135 246 739 137 246 740 136 247 741 137 247 742 138 247 743 136 248 744 138 248 745 139 248 746 117 249 747 118 249 748 140 249 749 117 250 750 140 250 751 134 250 752 140 251 753 118 251 754 141 251 755 141 252 756 118 252 757 142 252 758 134 253 759 140 253 760 143 253 761 143 254 762 140 254 763 141 254 764 141 255 765 142 255 766 144 255 767 141 256 768 144 256 769 143 256 770 134 257 771 143 257 772 135 257 773 135 258 774 143 258 775 145 258 776 143 259 777 144 259 778 146 259 779 143 260 780 146 260 781 145 260 782 146 261 783 144 261 784 147 261 785 145 262 786 146 262 787 148 262 788 145 263 789 148 263 790 149 263 791 148 264 792 146 264 793 150 264 794 114 265 795 116 265 796 118 265 797 118 266 798 116 266 799 142 266 800 142 267 801 116 267 802 151 267 803 151 268 804 116 268 805 115 268 806 142 269 807 151 269 808 152 269 809 142 270 810 152 270 811 144 270 812 152 271 813 151 271 814 153 271 815 153 272 816 151 272 817 154 272 818 154 273 819 151 273 820 115 273 821 153 274 822 154 274 823 155 274 824 154 275 825 115 275 826 156 275 827 154 276 828 156 276 829 155 276 830 156 277 831 115 277 832 128 277 833 155 278 834 156 278 835 157 278 836 155 279 837 157 279 838 158 279 839 158 280 840 157 280 841 159 280 842 159 281 843 157 281 844 160 281 845 160 282 846 157 282 847 156 282 848 160 283 849 156 283 850 161 283 851 161 284 852 156 284 853 128 284 854 161 285 855 128 285 856 127 285 857 161 286 858 127 286 859 126 286 860 161 287 861 126 287 862 162 287 863 162 288 864 126 288 865 125 288 866 125 289 867 139 289 868 162 289 869 139 290 870 125 290 871 124 290 872 139 291 873 124 291 874 163 291 875 139 292 876 163 292 877 136 292 878 163 293 879 124 293 880 92 293 881 136 294 882 163 294 883 164 294 884 136 295 885 164 295 886 133 295 887 164 296 888 163 296 889 165 296 890 165 297 891 163 297 892 92 297 893 165 298 894 92 298 895 93 298 896 79 299 897 85 299 898 86 299 899 106 300 900 93 300 901 166 300 902 166 301 903 93 301 904 90 301 905 106 302 906 166 302 907 84 302 908 166 303 909 90 303 910 82 303 911 166 304 912 82 304 913 84 304 914 107 305 915 165 305 916 106 305 917 93 306 918 106 306 919 165 306 920 152 307 921 147 307 922 144 307 923 153 308 924 167 308 925 152 308 926 152 309 927 167 309 928 147 309 929 147 310 930 167 310 931 168 310 932 147 311 933 168 311 934 169 311 935 169 312 936 168 312 937 170 312 938 147 313 939 169 313 940 150 313 941 150 314 942 169 314 943 170 314 944 147 315 945 150 315 946 146 315 947 150 316 948 170 316 949 171 316 950 150 317 951 171 317 952 148 317 953 148 318 954 171 318 955 149 318 956 149 319 957 171 319 958 172 319 959 149 320 960 172 320 961 173 320 962 149 321 963 173 321 964 174 321 965 174 322 966 173 322 967 175 322 968 175 323 969 173 323 970 176 323 971 176 324 972 173 324 973 177 324 974 175 325 975 176 325 976 178 325 977 176 326 978 177 326 979 179 326 980 176 327 981 179 327 982 178 327 983 179 328 984 177 328 985 180 328 986 179 329 987 180 329 988 178 329 989 178 330 990 180 330 991 181 330 992 178 331 993 181 331 994 159 331 995 159 332 996 181 332 997 158 332 998 178 333 999 159 333 1000 160 333 1001 182 334 1002 153 334 1003 155 334 1004 182 335 1005 155 335 1006 158 335 1007 182 336 1008 158 336 1009 181 336 1010 153 337 1011 182 337 1012 183 337 1013 153 338 1014 183 338 1015 167 338 1016 182 339 1017 181 339 1018 184 339 1019 182 340 1020 184 340 1021 183 340 1022 180 341 1023 185 341 1024 181 341 1025 185 342 1026 180 342 1027 186 342 1028 181 343 1029 185 343 1030 187 343 1031 187 344 1032 185 344 1033 186 344 1034 181 345 1035 187 345 1036 184 345 1037 187 346 1038 186 346 1039 188 346 1040 187 347 1041 188 347 1042 184 347 1043 188 348 1044 186 348 1045 189 348 1046 189 349 1047 186 349 1048 190 349 1049 184 350 1050 188 350 1051 191 350 1052 184 351 1053 191 351 1054 192 351 1055 184 352 1056 192 352 1057 183 352 1058 192 353 1059 191 353 1060 193 353 1061 183 354 1062 192 354 1063 167 354 1064 192 355 1065 193 355 1066 194 355 1067 192 356 1068 194 356 1069 167 356 1070 167 357 1071 194 357 1072 195 357 1073 167 358 1074 195 358 1075 196 358 1076 167 359 1077 196 359 1078 168 359 1079 196 360 1080 195 360 1081 197 360 1082 197 361 1083 195 361 1084 198 361 1085 198 362 1086 195 362 1087 199 362 1088 197 363 1089 198 363 1090 200 363 1091 197 364 1092 200 364 1093 201 364 1094 193 365 1095 191 365 1096 202 365 1097 193 366 1098 202 366 1099 194 366 1100 194 367 1101 202 367 1102 203 367 1103 194 368 1104 203 368 1105 204 368 1106 205 369 1107 204 369 1108 206 369 1109 206 370 1110 204 370 1111 207 370 1112 207 371 1113 204 371 1114 208 371 1115 208 372 1116 204 372 1117 203 372 1118 208 373 1119 203 373 1120 209 373 1121 203 374 1122 202 374 1123 210 374 1124 203 375 1125 210 375 1126 209 375 1127 210 376 1128 202 376 1129 191 376 1130 209 377 1131 210 377 1132 211 377 1133 211 378 1134 210 378 1135 212 378 1136 212 379 1137 210 379 1138 213 379 1139 212 380 1140 213 380 1141 214 380 1142 194 381 1143 204 381 1144 215 381 1145 194 382 1146 215 382 1147 195 382 1148 195 383 1149 215 383 1150 199 383 1151 215 384 1152 204 384 1153 216 384 1154 215 385 1155 216 385 1156 199 385 1157 216 386 1158 204 386 1159 205 386 1160 199 387 1161 216 387 1162 200 387 1163 199 388 1164 200 388 1165 198 388 1166 200 389 1167 216 389 1168 217 389 1169 217 390 1170 216 390 1171 205 390 1172 200 391 1173 217 391 1174 201 391 1175 201 392 1176 217 392 1177 218 392 1178 217 393 1179 205 393 1180 219 393 1181 217 394 1182 219 394 1183 218 394 1184 219 395 1185 205 395 1186 220 395 1187 218 396 1188 219 396 1189 221 396 1190 218 397 1191 221 397 1192 190 397 1193 221 398 1194 219 398 1195 222 398 1196 190 399 1197 221 399 1198 189 399 1199 221 400 1200 222 400 1201 214 400 1202 221 401 1203 214 401 1204 223 401 1205 221 402 1206 223 402 1207 189 402 1208 223 403 1209 214 403 1210 213 403 1211 223 404 1212 213 404 1213 189 404 1214 189 405 1215 213 405 1216 188 405 1217 188 406 1218 213 406 1219 210 406 1220 188 407 1221 210 407 1222 191 407 1223 170 408 1224 196 408 1225 224 408 1226 196 409 1227 170 409 1228 168 409 1229 224 410 1230 196 410 1231 197 410 1232 170 411 1233 224 411 1234 171 411 1235 224 412 1236 197 412 1237 201 412 1238 171 413 1239 224 413 1240 172 413 1241 224 414 1242 201 414 1243 218 414 1244 224 415 1245 218 415 1246 172 415 1247 172 416 1248 218 416 1249 173 416 1250 173 417 1251 218 417 1252 190 417 1253 173 418 1254 190 418 1255 225 418 1256 173 419 1257 225 419 1258 177 419 1259 225 420 1260 190 420 1261 186 420 1262 177 421 1263 225 421 1264 180 421 1265 180 422 1266 225 422 1267 186 422 1268 130 423 1269 132 423 1270 131 423 1271 131 424 1272 132 424 1273 226 424 1274 226 425 1275 132 425 1276 227 425 1277 226 426 1278 227 426 1279 228 426 1280 227 427 1281 132 427 1282 229 427 1283 227 428 1284 229 428 1285 228 428 1286 229 429 1287 132 429 1288 133 429 1289 229 430 1290 133 430 1291 164 430 1292 229 431 1293 164 431 1294 230 431 1295 229 432 1296 230 432 1297 228 432 1298 230 433 1299 164 433 1300 231 433 1301 230 434 1302 231 434 1303 228 434 1304 228 435 1305 231 435 1306 232 435 1307 233 436 1308 138 436 1309 137 436 1310 138 437 1311 233 437 1312 234 437 1313 234 438 1314 233 438 1315 137 438 1316 138 439 1317 162 439 1318 139 439 1319 162 440 1320 138 440 1321 161 440 1322 161 441 1323 138 441 1324 160 441 1325 160 442 1326 138 442 1327 234 442 1328 232 443 1329 131 443 1330 226 443 1331 232 444 1332 226 444 1333 228 444 1334 131 445 1335 232 445 1336 108 445 1337 108 446 1338 232 446 1339 107 446 1340 107 447 1341 232 447 1342 231 447 1343 107 448 1344 231 448 1345 165 448 1346 165 449 1347 231 449 1348 164 449 1349 178 450 1350 160 450 1351 175 450 1352 175 451 1353 160 451 1354 234 451 1355 175 452 1356 234 452 1357 137 452 1358 175 453 1359 137 453 1360 174 453 1361 174 454 1362 137 454 1363 135 454 1364 174 455 1365 135 455 1366 145 455 1367 174 456 1368 145 456 1369 149 456 1370 206 457 1371 207 457 1372 235 457 1373 235 458 1374 207 458 1375 208 458 1376 235 459 1377 208 459 1378 236 459 1379 236 460 1380 208 460 1381 237 460 1382 237 461 1383 208 461 1384 238 461 1385 238 462 1386 208 462 1387 209 462 1388 237 463 1389 238 463 1390 239 463 1391 239 464 1392 238 464 1393 240 464 1394 238 465 1395 209 465 1396 211 465 1397 238 466 1398 211 466 1399 240 466 1400 240 467 1401 211 467 1402 241 467 1403 241 468 1404 211 468 1405 242 468 1406 242 469 1407 211 469 1408 212 469 1409 242 470 1410 212 470 1411 214 470 1412 242 471 1413 214 471 1414 222 471 1415 241 472 1416 242 472 1417 243 472 1418 243 473 1419 242 473 1420 222 473 1421 241 474 1422 243 474 1423 244 474 1424 219 475 1425 220 475 1426 222 475 1427 222 476 1428 220 476 1429 245 476 1430 222 477 1431 245 477 1432 243 477 1433 245 478 1434 220 478 1435 205 478 1436 245 479 1437 205 479 1438 206 479 1439 245 480 1440 206 480 1441 235 480 1442 243 481 1443 245 481 1444 246 481 1445 243 482 1446 246 482 1447 244 482 1448 246 483 1449 245 483 1450 235 483 1451 244 484 1452 246 484 1453 236 484 1454 236 485 1455 246 485 1456 235 485 1457 236 486 1458 237 486 1459 247 486 1460 236 487 1461 247 487 1462 244 487 1463 244 488 1464 247 488 1465 248 488 1466 248 489 1467 247 489 1468 249 489 1469 249 490 1470 247 490 1471 237 490 1472 249 491 1473 237 491 1474 250 491 1475 250 492 1476 237 492 1477 239 492 1478 249 493 1479 250 493 1480 251 493 1481 250 494 1482 239 494 1483 240 494 1484 250 495 1485 240 495 1486 251 495 1487 251 496 1488 240 496 1489 241 496 1490 248 497 1491 241 497 1492 244 497 1493 241 498 1494 248 498 1495 251 498 1496 251 499 1497 248 499 1498 249 499 1499</p>
        </polylist>
      </mesh>
    </geometry>
  </library_geometries>
  <library_visual_scenes>
    <visual_scene id="Scene" name="Scene">
      <node id="BloodDagger" name="BloodDagger" type="NODE">
        <scale sid="scale">1 1 1</scale>
        <translate sid="location">0 0 0</translate>
        <rotate sid="rotationX">1 0 0 -60.823547043270764</rotate>
        <rotate sid="rotationY">0 1 0 1.4108668590666942</rotate>
        <rotate sid="rotationZ">0 0 1 154.416636276652</rotate>
        <instance_geometry url="#BloodDagger-mesh" name="BloodDagger">
          <bind_material>
            <technique_common>
            </technique_common>
          </bind_material>
        </instance_geometry>
      </node>
    </visual_scene>
  </library_visual_scenes>
  <scene>
    <instance_visual_scene url="#Scene"/>
  </scene>
</COLLADA>
