<?xml version="1.0" encoding="utf-8"?>
<COLLADA xmlns="http://www.collada.org/2005/11/COLLADASchema" version="1.4.1" xmlns:xsi="http://www.w3.org/2001/XMLSchema-instance">
  <asset>
    <contributor>
      <author>Blockbench user</author>
      <authoring_tool>Blockbench</authoring_tool>
    </contributor>
    <created>2026-01-01T03:37:20.610Z</created>
    <modified>2026-01-01T03:37:20.617Z</modified>
    <unit name="meter" meter="1.0"/>
    <up_axis>Y_UP</up_axis>
  </asset>
  <library_effects>
  </library_effects>
  <library_images>
  </library_images>
  <library_materials>
  </library_materials>
  <library_geometries>
    <geometry id="Catfish-mesh" name="Catfish">
      <mesh>
        <source id="Catfish-mesh-positions">
          <float_array id="Catfish-mesh-positions-array" count="756">-0.051491 -0.294952 -0.290619 -0.051613 -0.208542 -0.421906 -0.006692 -0.288269 -0.33728 -0.00292 -0.172501 -0.46225 -0.000358 -0.360687 -0.352722 -0.085419 -0.167877 -0.423431 -0.101822 -0.235703 -0.306519 -0.051041 -0.049034 -0.491974 -0.12159 -0.047871 -0.424591 0.002223 -0.021753 -0.5 -0.12178 -0.146545 -0.370941 -0.103767 -0.249878 -0.214935 -0.133133 -0.11792 -0.325989 -0.136719 0.04224 -0.356354 -0.102921 -0.154587 -0.219177 -0.125641 -0.056015 -0.299377 -0.04623 -0.134598 -0.177475 -0.107391 -0.086937 -0.246597 -0.171646 -0.032871 -0.241852 0.064133 -0.148422 -0.454712 0.050419 -0.018217 -0.491547 0.121391 -0.09922 -0.411835 0.062706 -0.236282 -0.382446 0.097382 -0.251404 -0.290802 0.045471 -0.295959 -0.291748 0.006823 -0.269714 -0.368652 0.007538 -0.318817 -0.260468 -0.006466 -0.414276 -0.209 -0.007216 -0.326843 -0.219177 0.002864 -0.438049 -0.113396 0.006156 -0.414307 -0.211075 0.007278 -0.343658 -0.132538 0.060123 -0.321045 -0.128006 0.101776 -0.255432 -0.193161 0.136703 -0.093788 -0.340851 0.110382 -0.169785 -0.231277 0.104935 -0.095757 -0.260406 0.136795 0.001735 -0.34082 0.171967 -0.034607 -0.240005 0.097519 -0.079704 -0.180374 -0.007563 -0.343964 -0.131866 -0.01885 -0.357544 0.001582 -0.071182 -0.305969 -0.144089 -0.008463 -0.428162 -0.069183 0.006726 -0.429474 -0.051941 0.00421 -0.401337 -0.007386 -0.001535 -0.351379 -0.060673 0.026867 -0.34906 0.001509 -0.000632 -0.392151 0.101524 0.057972 -0.319458 0.000688 0.066803 -0.271484 0.00085 0.048985 -0.307556 0.085327 -0.093185 -0.233185 -0.133759 -0.055199 -0.19722 -0.093109 -0.064232 -0.258606 0.001298 -0.036743 -0.221802 0.001039 -0.062084 -0.312012 0.001164 -0.053551 -0.310364 0.071907 -0.010771 -0.154251 -0.134537 -0.028841 -0.111221 -0.11409 -0.007296 -0.177826 -0.094505 -0.00053 -0.145462 -0.019247 -0.000277 -0.208572 0.000787 0.003695 -0.117584 -0.068184 0.000726 -0.156647 -0.135605 0.07885 -0.101265 -0.227615 0.007033 -0.164886 -0.118187 0.074341 -0.112633 -0.217026 0.062061 -0.195267 -0.110077 0.03299 -0.216125 0.001563 -0.080757 0.083092 -0.464874 -0.122116 0.133102 -0.385712 -0.023994 0.136627 -0.471832 0.038559 0.137695 -0.466278 -0.069458 0.220215 -0.389404 -0.00603 0.254456 -0.38858 0.005597 0.276062 -0.365845 -0.008079 0.30484 -0.318726 -0.098076 0.239609 -0.333771 -0.12973 0.18222 -0.330353 -0.13353 0.12075 -0.358521 -0.142242 0.081207 -0.329742 -0.133698 0.256165 -0.186844 -0.118958 -0.071815 -0.211685 -0.08857 -0.093788 -0.236786 -0.125076 -0.046822 -0.288147 -0.138107 0.009374 -0.3302 -0.204422 0.032776 -0.294861 -0.125183 0.038082 -0.237839 -0.150772 0.145477 -0.16748 -0.141953 0.092773 -0.145966 -0.117416 0.060978 0.001595 -0.188828 0.120384 -0.331726 -0.076912 -0.044975 -0.210495 -0.075562 -0.005539 -0.121796 -0.045673 0.003978 0.001032 0.001538 -0.040699 -0.150757 0.000046 -0.101547 -0.195786 0.071121 -0.061241 -0.214996 0.065498 -0.015856 -0.147156 0.096756 0.005728 -0.160934 0.118141 0.005504 -0.252441 0.132828 0.087646 0.001051 0.076706 0.099579 -0.461487 0.13472 0.079987 -0.38913 0.072815 0.219971 -0.38797 0.006359 0.313629 -0.305176 0.123848 0.154633 -0.365051 0.092812 0.24968 -0.326019 0.130325 0.166122 -0.345856 0.17247 0.146179 -0.335999 0.1371 0.015266 -0.335602 0.19693 0.043461 -0.310181 0.11451 -0.069305 -0.263763 -0.149689 0.210663 0.001263 -0.125427 0.307617 0.001228 -0.14534 0.156006 0.085869 0.14798 0.15976 -0.230408 0.134583 0.252686 -0.190262 0.151367 0.16037 -0.151428 0.151947 0.202255 0.001322 0.124519 0.307495 0.001507 0.087631 0.324188 -0.159821 0.079002 0.359863 0.001392 0.031048 0.387177 0.001233 0.055344 0.315826 -0.259735 0.002505 0.214127 -0.490051 -0.006713 0.279602 -0.475037 0.007196 0.300781 -0.472473 -0.007266 0.361145 -0.43515 -0.050934 0.316071 -0.264832 -0.077568 0.341156 -0.132034 -0.006952 0.352081 -0.199417 0.007164 0.377716 -0.404053 -0.005415 0.429779 -0.399445 -0.006782 0.461884 -0.259888 0.00679 0.433868 -0.385132 0.007409 0.359711 -0.18895 0.001481 0.489258 -0.351074 -0.006762 0.377777 -0.123543 -0.005408 0.45929 -0.2043 0.002931 0.446808 -0.171646 0.007091 0.469879 -0.274475 0.005806 0.377716 -0.120697 -0.064278 0.368286 0.001444 -0.000392 0.387085 -0.065079 0.009874 -0.378601 0.124039 -0.006293 -0.469269 0.219147 -0.009989 -0.372589 0.139008 0.007236 -0.474152 0.259552 0.006824 -0.461914 0.380157 0.00483 -0.380219 0.35144 0.008995 -0.302521 0.176102 0.006952 -0.322418 0.311005 0.007099 -0.253906 0.340485 0.00984 -0.229767 0.153427 0.008106 -0.158447 0.30011 -0.013343 -0.323212 0.163284 -0.007699 -0.365814 0.241898 -0.008908 -0.286407 0.164795 -0.006259 -0.430328 0.366882 -0.006388 -0.479034 0.375549 -0.006931 -0.321838 0.311218 -0.007223 -0.199936 0.365997 -0.008676 -0.166641 0.2771 -0.000784 -0.127457 0.382874 -0.010141 -0.226532 0.148651 -0.003094 -0.20134 0.092247 -0.005875 -0.103821 0.369965 -0.00587 -0.114319 0.284088 0.004942 -0.120857 0.259796 -0.134552 -0.06012 0.001597 -0.148697 -0.075363 0.001115 -0.165939 -0.005443 -0.043144 -0.154602 -0.001284 -0.002438 -0.158875 0.047123 -0.000062 -0.120644 -0.059769 0.067955 -0.120628 -0.056568 0.041462 -0.103996 0.029366 0.110046 -0.105751 0.068077 0.129745 -0.110687 0.067841 0.092056 -0.075539 0.043114 0.146011 0.012991 0.014493 0.107323 0.136581 -0.069191 0.0016 0.167755 -0.003295 -0.043468 0.148178 -0.079781 0.001332 0.160294 0.038868 0.001701 0.14534 0.034004 0.000953 0.114334 -0.045982 0.068863 0.108002 0.065971 0.122116 0.107445 0.069038 0.097603 0.074394 0.045422 0.144653 0.120667 0.100777 0.13588 0.066025 0.05061 0.216507 0.147171 0.167511 0.086311 -0.06942 0.052612 0.208847 -0.038361 0.052662 0.28653 -0.11824 0.097816 0.140121 -0.106361 0.068466 0.225723 -0.081268 0.069359 0.303497 -0.1427 0.092987 0.231705 -0.145584 0.210526 0.113243 -0.157181 0.148376 0.12793 -0.150955 0.23967 0.1409 -0.16217 0.1689 0.20166 -0.142105 0.156281 0.32724 0.036846 0.055202 0.300323 0.104584 0.067917 0.231964 0.154175 0.139648 0.135513 0.162048 0.159317 0.200531 0.142288 0.093124 0.227722 0.103188 0.081703 0.32196 0.045326 0.099121 0.392914 0.00682 0.117073 0.453949 0.081764 0.146332 0.440552 0.00195 0.167999 0.486328 0.02721 0.174744 0.391815 -0.001919 0.153717 0.403503 -0.137604 0.270142 0.082474 -0.108803 0.313049 0.186386 -0.070786 0.360687 0.106178 -0.14563 0.250793 0.216812 -0.1474 0.215607 0.295135 0.145309 0.22258 0.118011 0.110268 0.309265 0.181458 0.152985 0.237289 0.139114 0.148575 0.209259 0.293152 -0.001788 0.393616 0.09156 0.054829 0.346741 0.23938 -0.043724 0.343506 0.266449 0.12854 0.248535 0.324738 0.004314 0.299042 0.404236 0.050682 0.283905 0.396362 0.028942 0.232666 0.497375 0.133072 0.187836 0.354004 0.111938 0.17659 0.417633 0.155441 0.219452 0.333954 0.151093 0.142471 0.29245 0.083107 0.18364 0.456024 0.044128 0.193954 0.490723 -0.001685 0.207764 0.450317 -0.116524 0.106636 0.344513 -0.111382 0.17775 0.417297 -0.040695 0.099495 0.398621 -0.160797 0.210052 0.327301 -0.124954 0.245438 0.338989 -0.033459 0.286407 0.412903 -0.030117 0.13533 0.483154 -0.086998 0.160202 0.424438 -0.043106 0.174377 0.403076 -0.044151 0.195038 0.489685 -0.046677 0.218506 0.496582</float_array>
          <technique_common>
            <accessor source="#Catfish-mesh-positions-array" count="252" stride="3">
              <param name="X" type="float"/>
              <param name="Y" type="float"/>
              <param name="Z" type="float"/>
            </accessor>
          </technique_common>
        </source>
        <source id="Catfish-mesh-normals">
          <float_array id="Catfish-mesh-normals-array" count="1500">-0.408612 -0.762568 -0.501524 -0.020574 -0.733135 -0.679772 -0.993464 -0.06722 -0.092257 -0.700117 -0.596732 -0.392105 -0.612413 -0.643473 -0.459231 -0.403399 -0.366794 -0.838291 -0.419723 -0.36378 -0.831563 -0.67698 -0.210865 -0.705148 -0.022137 -0.242147 -0.969987 -0.808474 -0.452708 -0.376067 -0.840126 -0.257835 -0.47719 -0.963818 -0.25957 -0.060644 -0.977927 -0.098352 -0.184354 -0.95983 -0.271898 -0.069271 -0.987118 -0.050861 -0.151691 -0.960132 0.020934 0.278762 -0.974019 0.020943 0.225494 -0.962291 -0.000478 0.272022 -0.630556 0.397192 0.666811 -0.168215 -0.874797 -0.45435 -0.638243 -0.73985 -0.212764 0.194595 -0.244515 -0.949918 0.185016 -0.249425 -0.950556 0.666529 -0.137096 -0.732764 0.747921 -0.428868 -0.506643 0.301099 -0.608672 -0.734069 0.817739 -0.431747 -0.380655 0.613969 -0.707922 -0.349125 0.221565 -0.664733 -0.71347 0.369063 -0.807071 -0.460901 0.968624 -0.115036 -0.220307 0.202378 -0.891247 -0.40586 0.995187 -0.086589 -0.045879 -0.99498 -0.072263 -0.06923 -0.999927 -0.009453 -0.007524 -0.17941 -0.934923 -0.306154 -0.995199 0.00285 0.09783 -0.059994 -0.93446 -0.350978 -0.041395 -0.970554 -0.237299 0.996836 -0.047425 -0.063795 0.999399 0.003384 0.034504 0.998811 -0.048193 -0.007328 0.399981 -0.899871 -0.173921 0.399279 -0.900235 -0.173648 0.643407 -0.745984 -0.171861 0.814452 -0.577073 -0.060458 0.979224 -0.195961 -0.052151 0.919105 -0.354924 -0.1711 0.970863 0.009017 0.239467 0.907629 0.20984 0.363562 0.93011 -0.001015 0.367279 0.673274 -0.588854 -0.447161 0.623624 -0.753299 0.208885 -0.49291 -0.860427 -0.129249 -0.487664 -0.863232 -0.130436 -0.366322 -0.912823 -0.180453 -0.999957 0.009051 -0.002199 -0.733678 -0.663084 -0.148448 -0.793109 -0.599142 -0.109576 -0.947515 -0.261223 -0.18433 -0.252014 -0.956145 0.149251 -0.545256 -0.722328 0.425368 -0.982753 0.069688 0.171287 -0.992566 0.079327 0.092304 0.996841 -0.057687 -0.054595 0.983887 0.118997 0.133441 0.994518 0.104128 -0.009598 0.396529 -0.916668 -0.049857 0.332593 -0.935783 -0.117015 0.182191 -0.982159 -0.046589 -0.014051 -0.994643 -0.102406 0.170379 -0.921119 -0.350014 0.689528 -0.72397 0.020453 0.853235 -0.521115 0.020687 0.970686 -0.179224 0.16015 0.9752 -0.179949 0.128852 -0.991883 0.01443 0.126333 -0.819243 0.372416 0.436059 -0.572149 0.686498 0.448738 -0.798985 0.536212 0.272211 -0.763499 0.572364 0.299114 -0.978519 -0.039864 0.202268 -0.99189 -0.040197 0.120578 -0.980323 -0.124298 0.153354 -0.883132 -0.467752 0.035855 -0.725144 -0.688392 0.01678 -0.720605 -0.685209 -0.105912 -0.241569 0.791305 0.561677 -0.763372 -0.509348 0.397275 -0.311929 0.806602 0.502088 -0.895984 -0.429642 0.112342 -0.996094 0.003029 0.08825 -0.348868 0.884083 0.310947 -0.996535 0.021509 0.080343 -0.323743 0.898012 0.297934 -0.433057 0.798769 0.417647 0.675123 0.625022 -0.391861 -0.76098 0.575335 -0.299832 0.996813 -0.012877 0.078725 0.997122 0.026539 0.07101 0.849469 -0.353826 0.39142 0.315841 0.73292 0.602555 0.416863 0.84468 0.33577 0.210204 0.94969 0.23217 0.888411 0.223208 0.401128 0.444146 0.683589 0.579172 0.678825 -0.705287 0.20437 0.984225 -0.020701 0.175707 0.672819 0.62286 0.3992 0.814651 0.493664 0.304367 -0.690738 -0.007044 -0.723071 -0.851607 0.107732 -0.51299 -0.24979 0.140329 -0.958078 -0.215512 0.136297 -0.966943 0.083682 0.1879 -0.978617 -0.511049 0.446393 -0.734549 -0.690495 0.391615 -0.608156 -0.303432 0.580265 -0.755792 0.614427 0.390647 -0.685474 -0.392619 0.740415 -0.54556 -0.737147 0.423265 -0.526746 -0.785447 0.405373 -0.467702 -0.932762 0.196235 -0.302403 -0.983896 0.121075 -0.131486 -0.988443 0.121888 -0.090135 0.670277 0.719556 0.181569 -0.476811 0.453097 0.753229 -0.715879 -0.618715 -0.323589 0.62183 0.65595 0.427853 0.486597 0.841144 0.236009 -0.63387 -0.763935 0.120882 -0.675355 -0.731589 0.093127 0.53269 0.582768 0.613696 0.513382 0.191609 0.836495 -0.934007 -0.051511 -0.353521 -0.986078 -0.057757 0.155933 -0.962717 -0.264995 0.054352 -0.979496 -0.190574 -0.065345 -0.916499 -0.394312 0.067437 0.415928 0.288823 0.862314 -0.436011 -0.007129 -0.899913 -0.644049 -0.196466 -0.739326 -0.560058 -0.461941 -0.687711 -0.92607 0.027228 -0.376369 -0.95502 0.05963 -0.290485 -0.941966 -0.259834 0.212571 -0.713233 -0.192644 0.673934 -0.873846 -0.439196 0.208569 -0.763599 -0.639942 0.085965 -0.607563 -0.766755 0.207254 -0.359671 -0.919473 0.158765 -0.253599 -0.882447 0.3962 -0.418306 -0.351254 0.83764 -0.505183 -0.50533 0.699594 0.487144 -0.527187 0.69625 0.275231 -0.788355 0.550223 0.632563 -0.618485 0.466198 0.850297 -0.486861 0.199904 0.620908 -0.746484 0.239239 -0.241335 0.714396 0.656807 0.260156 0.713622 0.650432 0.741542 0.612417 -0.273972 0.509939 0.850729 -0.127367 -0.69894 -0.587173 0.408302 0.748076 0.002406 -0.663609 0.782741 0.020588 -0.622007 0.292566 0.17463 -0.940165 0.158155 0.169682 -0.972725 0.775293 0.347229 -0.527591 0.540107 0.451254 -0.71039 0.259277 0.60702 -0.7512 0.060932 0.59579 -0.800825 0.469729 0.747915 -0.469018 0.691213 0.31108 -0.652269 0.770797 0.440642 -0.460116 0.729423 0.449821 -0.515367 0.986749 0.103375 0.125063 0.999011 -0.000948 -0.044444 0.457135 0.686671 -0.565253 0.498492 -0.094357 -0.861744 -0.201523 0.057413 0.9778 0.503855 -0.095791 -0.85846 -0.435744 0.120434 0.891977 0.652407 -0.611299 -0.447972 -0.535761 0.625197 0.567529 0.977189 -0.046425 -0.207237 0.973882 -0.07946 0.212698 0.761819 -0.13293 0.634005 0.695718 -0.090327 0.712613 0.366435 -0.214678 0.905339 -0.695388 0.716728 -0.05231 -0.517341 0.855778 0.001308 -0.589828 0.635954 0.49766 0.620041 -0.736725 0.269789 -0.534292 0.82863 -0.167046 -0.993323 0.098097 -0.060714 -0.969816 0.24268 -0.023741 0.152856 0.921525 -0.356969 -0.998782 -0.043523 0.023223 -0.987684 -0.154013 0.027577 -0.934638 -0.346298 0.080798 0.957754 -0.212884 0.193358 0.988209 0.034237 -0.149236 0.97027 0.199242 -0.1374 0.982055 -0.184155 -0.040692 0.975692 -0.218679 0.014331 0.729707 -0.661733 0.172151 0.986001 0.160955 -0.043527 0.986086 0.159327 -0.047433 0.985509 -0.1645 0.041365 0.967447 0.252177 -0.021303 0.804454 0.580965 -0.123826 0.750758 0.652312 -0.104166 0.488682 0.857007 -0.163491 0.405866 0.890488 -0.205681 -0.990716 -0.132441 -0.030694 -0.99932 -0.036761 -0.002798 -0.131668 0.203914 -0.970094 -0.999962 -0.002722 -0.008299 -0.446548 0.390713 -0.804946 -0.852424 0.45481 -0.257916 -0.465561 0.73351 -0.495194 -0.695114 0.668036 -0.265602 -0.440973 0.741808 -0.505235 -0.211972 0.909323 -0.358049 -0.999824 0.018675 0.00205 0.642493 -0.69203 0.329085 0.99851 -0.054527 0.002333 0.431676 0.749708 -0.501591 0.436661 0.748084 -0.499697 0.688767 0.669319 -0.27859 0.758519 0.603131 -0.246743 0.852084 0.447132 -0.272078 0.646137 0.507345 -0.570183 0.999976 -0.004329 0.005335 0.999448 -0.032361 0.007486 0.823372 0.244273 -0.512239 -0.999173 0.036394 -0.01816 0.999943 0.003215 0.010225 0.70709 0.230023 -0.668665 0.999953 -0.00759 -0.006024 0.607922 0.457351 -0.649046 -0.987612 0.150534 -0.044304 -0.999996 0.002331 0.001422 -0.999996 0.002467 0.001669 -0.998717 0.043036 0.026694 -0.909448 0.413713 0.041785 -0.855677 0.371329 0.360459 0.368537 0.907279 0.202544 0.460139 0.862152 0.21205 0.991772 0.120912 -0.042046 0.9946 0.085145 0.05934 0.999996 0.000619 -0.002921 0.999669 0.017523 0.018856 -0.726907 0.640245 -0.24838 -0.786512 0.603619 -0.130547 -0.702252 0.708072 -0.073998 -0.412477 0.899859 -0.141831 -0.193405 0.976951 0.090342 -0.448632 0.888902 -0.09264 -0.411656 0.863494 -0.291406 -0.978701 0.190587 0.076292 0.989782 0.108984 0.091941 0.272021 0.95343 -0.130294 0.617295 0.764163 -0.187087 -0.371161 0.89602 -0.243695 0.289495 0.888894 -0.35505 0.501529 0.845259 -0.184409 -0.852469 -0.510039 0.114706 0.686126 -0.723159 -0.079193 0.898581 -0.411183 0.153233 0.811943 -0.583067 -0.027969 -0.973591 -0.166603 -0.156088 0.769147 -0.550791 -0.324101 0.913908 -0.339912 -0.221883 0.999787 -0.019895 0.005434 0.999229 0.032261 0.022394 0.999748 -0.003607 0.02215 0.877093 -0.264316 0.401055 0.999517 -0.029109 0.010844 0.99987 -0.008144 0.013941 0.999879 -0.007342 0.013704 0.999891 -0.004602 0.014058 -0.848142 -0.526033 0.062806 -0.900641 -0.239464 0.362633 -0.996317 -0.081207 0.027522 -0.984751 0.113241 0.132066 -0.999609 0.018438 0.021034 -0.956138 0.255652 0.142978 -0.999824 0.005823 0.017841 -0.999162 -0.040812 -0.003155 -0.17124 -0.983308 -0.061497 0.781336 -0.620649 0.065647 -0.496647 0.153334 0.854301 -0.16439 0.323538 0.931826 -0.986513 -0.133052 0.095337 -0.999914 -0.002764 0.012832 0.036467 0.571937 0.819486 -0.002419 -0.395247 0.918572 -0.999903 -0.007632 0.011654 0.080691 -0.408389 0.909235 -0.999871 -0.009908 0.012632 -0.995925 0.077894 0.045452 0.544888 -0.23578 0.804677 0.994964 0.029962 0.095654 -0.931514 0.211462 0.295916 -0.906542 0.092365 0.411886 -0.906616 0.092344 0.411729 -0.790148 0.591299 0.161344 -0.999705 -0.015557 0.018655 -0.794732 0.58495 0.161967 -0.340347 0.936492 -0.084534 -0.995592 0.088838 -0.030067 -0.998986 0.044686 -0.005521 -0.981719 -0.142598 0.126073 0.311362 0.943272 -0.115292 0.96895 0.240364 0.057968 0.988614 0.140627 0.053535 0.997798 0.063516 -0.019087 0.932573 0.216251 0.28904 0.9116 0.112629 0.395349 0.777966 0.616364 0.121922 0.828243 0.502698 0.247606 0.222417 0.972432 -0.070042 0.977256 0.169026 -0.128064 -0.362706 0.846687 -0.389314 -0.990159 0.121501 -0.069442 0.452502 -0.39462 -0.799698 -0.959708 -0.06337 0.273762 0.899648 0.198023 -0.389127 0.727189 -0.6701 -0.148867 0.511764 -0.852959 -0.102749 -0.921028 -0.011818 0.389316 -0.905353 -0.051953 0.42147 -0.848371 -0.270146 0.455288 -0.9151 -0.099952 0.390643 -0.956071 -0.097956 0.276283 0.940638 0.060646 -0.333949 0.852854 0.185881 -0.487944 -0.486156 0.871931 0.05821 0.85728 0.133693 -0.497189 0.926912 -0.372634 -0.044464 -0.740519 -0.168857 0.650476 -0.656955 -0.365375 0.659478 -0.618117 -0.779031 0.105082 -0.645656 -0.760207 0.072206 -0.928651 -0.358249 0.096258 -0.926481 -0.355479 0.123564 -0.215768 -0.952852 0.213349 -0.378813 -0.393638 -0.837585 0.962763 -0.099096 0.25153 -0.865558 0.070358 -0.495842 -0.193682 0.701009 -0.686349 -0.67357 -0.73843 0.032013 0.347169 -0.920099 0.181362 0.905324 -0.093737 0.414249 0.606046 0.790856 0.085179 0.832727 -0.198726 0.516793 0.650218 -0.296049 0.699694 0.671542 -0.470665 0.572281 0.770648 -0.622856 0.134731 0.392101 -0.913128 0.111599 0.351797 -0.918195 0.18209 0.750349 -0.651162 0.113865 0.575334 -0.817894 -0.006376 0.228508 -0.965357 -0.125975 0.939473 -0.314311 0.136378 0.935844 -0.351351 0.027366 -0.918725 0.07555 -0.387604 -0.262014 0.869828 -0.41803 -0.946701 0.023569 -0.32125 -0.835011 0.085793 -0.543504 -0.681197 -0.711164 0.173831 -0.359057 -0.917032 0.17358 -0.4078 -0.898291 0.163624 -0.839271 -0.455852 0.296349 -0.337765 -0.931405 0.135644 -0.469887 -0.852974 -0.227249 -0.91737 -0.396685 0.032766 -0.32071 -0.940259 0.11427 -0.529598 -0.828846 0.180386 -0.940335 -0.156024 0.302367 -0.999069 -0.022846 0.036596 0.004885 -0.230842 -0.972979 -0.775293 -0.622661 -0.105902 -0.948901 0.106895 -0.296919 -0.418891 -0.425022 -0.802426 -0.992729 0.080425 -0.089562 -0.879057 -0.471292 0.07171 -0.971297 -0.195468 0.135551 -0.132834 -0.976466 0.169912 -0.004916 -0.978336 0.206966 0.310214 -0.937218 0.159342 0.345639 -0.922678 0.170878 0.470146 -0.85622 -0.214126 0.753453 -0.650409 -0.096318 0.853552 -0.518262 0.053426 0.180219 -0.419305 -0.889778 0.561146 -0.816826 0.13383 0.490411 -0.803939 0.336421 -0.113342 -0.982362 0.148725 0.221679 -0.888737 0.401255 0.370681 -0.785748 0.495173 0.392246 -0.785593 0.478525 0.3333 -0.482957 0.80973 0.341827 0.926475 0.157477 -0.609792 0.785315 -0.106931 -0.969548 0.24261 -0.033409 -0.987861 0.151018 0.036398 -0.896459 0.437934 0.067639 -0.740808 0.670081 0.046854 -0.704308 0.709853 0.007739 -0.959783 0.219082 0.175558 -0.311143 0.623394 -0.717335 -0.86345 0.504258 -0.013318 -0.980829 0.190534 0.040884 -0.980494 0.186619 0.061679 0.986305 -0.164507 -0.011825 0.998397 0.001183 0.056589 0.940439 -0.145162 0.307413 0.96762 0.252165 0.011122 0.200306 -0.18176 -0.962726 0.94181 0.328485 0.071355 0.753623 0.655148 0.053238 0.465749 0.637489 -0.613747 0.933863 0.02454 -0.356788 0.991994 0.016706 -0.125174 0.98551 0.159658 0.057267 -0.192793 0.971298 -0.139324 0.491237 0.863125 0.117048 -0.423575 0.905006 0.039343 0.473351 0.875588 0.096357 0.630792 0.768616 0.10645 -0.396419 0.903344 0.163774 -0.593323 0.783609 0.184186 0.047006 0.957214 0.285537 0.878352 0.469994 0.087196 0.687288 0.696142 0.207416 0.04866 0.955382 0.291338 0.344111 0.86852 0.356737 0.613324 0.727548 0.307422 0.344787 0.805119 0.482603 0.7155 0.346035 0.606893 0.74951 0.511194 0.420613 0.781667 0.515707 0.350774 0.171491 0.43823 0.882352 0.747574 0.603822 -0.276643 0.818108 -0.575034 0.005985 0.916018 0.38922 0.09705 0.965594 0.033694 0.257862 0.991528 0.03607 0.124782 0.950368 -0.040955 0.308421 0.807655 -0.453938 0.376342 0.815424 -0.508447 0.276705 0.782402 -0.476483 0.401012 0.742493 -0.279236 0.608878 0.759899 0.423873 0.492833 -0.713879 -0.246174 0.655572 0.678896 0.142553 0.720263 -0.277429 -0.88885 0.364663 -0.272348 -0.961991 -0.019997 -0.893112 -0.372419 0.252298 -0.871155 -0.319023 0.373248 -0.569848 -0.789557 0.227759 -0.379003 -0.823322 0.42249 -0.204279 -0.90475 0.373762 -0.987516 -0.00291 0.157492 -0.861475 -0.299002 -0.410438 -0.668625 0.727731 -0.152802 -0.234351 -0.082564 0.96864 -0.946557 0.14406 0.288576 -0.890879 0.421536 0.169239 -0.812578 0.559872 0.162052 -0.572003 0.770654 0.280901 -0.685392 0.660894 0.305707 -0.039372 -0.922277 0.384519 -0.07501 -0.929979 0.359877 -0.131266 -0.906714 0.400798 0.395843 -0.465459 0.791616 -0.365687 -0.839599 0.40168 -0.534909 0.455942 0.711329 -0.736635 -0.403624 0.542639 -0.578075 -0.562856 0.590781 -0.216502 0.957511 0.190526 0.443082 0.879748 -0.172398 0.148461 0.315337 0.937295 0.088066 -0.848228 0.522258 0.408931 -0.874826 0.259721 0.435243 -0.881174 0.184648 -0.736274 -0.262542 0.623677 -0.007945 -0.94895 -0.315325 -0.014755 -0.283396 0.95889 0.019935 -0.161716 0.986636 -0.545006 -0.476617 0.689786 -0.8033 0.374597 0.463019 -0.633053 0.647002 0.425009 -0.152266 0.779091 0.608138 -0.127582 0.791452 0.597768 -0.218014 0.904014 0.367735 0.963278 -0.259971 0.06716</float_array>
          <technique_common>
            <accessor source="#Catfish-mesh-normals-array" count="500" stride="3">
              <param name="X" type="float"/>
              <param name="Y" type="float"/>
              <param name="Z" type="float"/>
            </accessor>
          </technique_common>
        </source>
        <source id="Catfish-mesh-map-0">
          <float_array id="Catfish-mesh-map-0-array" count="3000">0.331787 0.147705 0.334473 0.226074 0.308105 0.169922 0.308105 0.169922 0.334473 0.226074 0.312256 0.254639 0.308105 0.169922 0.312256 0.254639 0.275146 0.152588 0.334473 0.226074 0.331787 0.147705 0.358398 0.237061 0.358398 0.237061 0.331787 0.147705 0.364746 0.169434 0.334473 0.226074 0.358398 0.237061 0.365723 0.307129 0.334473 0.226074 0.365723 0.307129 0.312256 0.254639 0.365723 0.307129 0.358398 0.237061 0.405029 0.278809 0.312256 0.254639 0.365723 0.307129 0.342285 0.326172 0.358398 0.237061 0.364746 0.169434 0.387695 0.220215 0.358398 0.237061 0.387695 0.220215 0.405029 0.278809 0.387695 0.220215 0.364746 0.169434 0.382324 0.126709 0.405029 0.278809 0.387695 0.220215 0.415527 0.218994 0.415527 0.218994 0.387695 0.220215 0.382324 0.126709 0.405029 0.278809 0.415527 0.218994 0.461426 0.286133 0.415527 0.218994 0.382324 0.126709 0.426514 0.161865 0.461426 0.286133 0.415527 0.218994 0.447021 0.230957 0.447021 0.230957 0.415527 0.218994 0.426514 0.161865 0.447021 0.230957 0.426514 0.161865 0.459473 0.149658 0.447021 0.230957 0.459473 0.149658 0.458496 0.201416 0.447021 0.230957 0.458496 0.201416 0.485596 0.233398 0.285889 0.278564 0.312256 0.254639 0.342285 0.326172 0.285889 0.278564 0.342285 0.326172 0.320312 0.336914 0.285889 0.278564 0.320312 0.336914 0.250244 0.302979 0.285889 0.278564 0.250244 0.302979 0.258057 0.227783 0.285889 0.278564 0.258057 0.227783 0.312256 0.254639 0.258057 0.227783 0.250244 0.302979 0.213867 0.205322 0.258057 0.227783 0.213867 0.205322 0.234619 0.178223 0.312256 0.254639 0.258057 0.227783 0.274414 0.19873 0.274414 0.19873 0.258057 0.227783 0.234619 0.178223 0.312256 0.254639 0.274414 0.19873 0.275146 0.152588 0.274414 0.19873 0.234619 0.178223 0.226074 0.164795 0.274414 0.19873 0.226074 0.164795 0.275146 0.152588 0.811768 0.280762 0.872559 0.223389 0.844727 0.318359 0.844727 0.318359 0.872559 0.223389 0.905518 0.267578 0.844727 0.318359 0.905518 0.267578 0.892334 0.319092 0.905518 0.267578 0.872559 0.223389 0.908203 0.162598 0.872559 0.223389 0.811768 0.280762 0.865479 0.218506 0.872559 0.223389 0.865479 0.218506 0.908203 0.162598 0.865479 0.218506 0.811768 0.280762 0.799561 0.216553 0.865479 0.218506 0.799561 0.216553 0.908203 0.162598 0.908203 0.162598 0.799561 0.216553 0.84375 0.143555 0.84375 0.143555 0.799561 0.216553 0.809082 0.126709 0.809082 0.126709 0.799561 0.216553 0.766846 0.210205 0.809082 0.126709 0.766846 0.210205 0.726562 0.1875 0.809082 0.126709 0.726562 0.1875 0.748535 0.127441 0.365967 0.083984 0.262695 0.150146 0.342041 0.015137 0.342041 0.015137 0.262695 0.150146 0.239014 0.105469 0.342041 0.015137 0.239014 0.105469 0.276367 0.028564 0.276367 0.028564 0.239014 0.105469 0.230713 0.058838 0.230713 0.058838 0.239014 0.105469 0.185547 0.109863 0.230713 0.058838 0.185547 0.109863 0.183105 0.039062 0.230713 0.058838 0.183105 0.039062 0.217773 0.015869 0.542969 0.846191 0.513184 0.78833 0.625488 0.884766 0.625488 0.884766 0.513184 0.78833 0.606689 0.795654 0.542969 0.846191 0.625488 0.884766 0.581787 0.881836 0.542969 0.846191 0.581787 0.881836 0.508057 0.888428 0.625488 0.884766 0.606689 0.795654 0.670166 0.857666 0.670166 0.857666 0.606689 0.795654 0.653564 0.794189 0.60376 0.080566 0.737061 0.11499 0.631592 0.10083 0.60376 0.080566 0.631592 0.10083 0.592285 0.095947 0.60376 0.080566 0.592285 0.095947 0.548584 0.12207 0.60376 0.080566 0.548584 0.12207 0.550781 0.064453 0.60376 0.080566 0.550781 0.064453 0.550781 0.015137 0.367188 0.954102 0.396484 0.927734 0.430664 0.976074 0.367188 0.954102 0.430664 0.976074 0.387939 0.999512 0.367188 0.954102 0.387939 0.999512 0.348389 0.975586 0.92334 0.526367 0.900635 0.553467 0.892334 0.482422 0.892334 0.482422 0.900635 0.553467 0.844482 0.489746 0.892334 0.482422 0.844482 0.489746 0.857666 0.470459 0.892334 0.482422 0.857666 0.470459 0.922119 0.472168 0.857666 0.470459 0.844482 0.489746 0.826904 0.427979 0.844482 0.489746 0.900635 0.553467 0.827637 0.51709 0.827637 0.51709 0.900635 0.553467 0.908447 0.616699 0.827637 0.51709 0.908447 0.616699 0.808105 0.541504 0.827637 0.51709 0.808105 0.541504 0.772217 0.513916 0.165771 0.976807 0.207764 0.914551 0.219727 0.974854 0.207764 0.914551 0.165771 0.976807 0.127686 0.957764 0.207764 0.914551 0.127686 0.957764 0.163086 0.899902 0.36377 0.69751 0.428223 0.672119 0.446045 0.705078 0.428223 0.672119 0.36377 0.69751 0.367432 0.669189 0.36377 0.69751 0.446045 0.705078 0.355225 0.733643 0.36377 0.69751 0.355225 0.733643 0.332275 0.703125 0.355225 0.733643 0.446045 0.705078 0.492188 0.73999 0.355225 0.733643 0.492188 0.73999 0.43457 0.782715 0.355225 0.733643 0.43457 0.782715 0.339111 0.764893 0.355225 0.733643 0.339111 0.764893 0.286865 0.77832 0.237061 0.753662 0.292236 0.789795 0.242432 0.778564 0.237061 0.753662 0.242432 0.778564 0.202148 0.789307 0.242432 0.778564 0.292236 0.789795 0.259033 0.796875 0.202148 0.789307 0.242432 0.778564 0.234619 0.826904 0.234619 0.826904 0.242432 0.778564 0.259033 0.796875 0.259033 0.796875 0.292236 0.789795 0.270264 0.845947 0.259033 0.796875 0.270264 0.845947 0.234619 0.826904 0.270264 0.845947 0.292236 0.789795 0.294189 0.842773 0.202148 0.789307 0.234619 0.826904 0.200439 0.819824 0.202148 0.789307 0.200439 0.819824 0.185791 0.778809 0.185791 0.778809 0.200439 0.819824 0.137695 0.745605 0.200439 0.819824 0.234619 0.826904 0.200195 0.86377 0.200195 0.86377 0.234619 0.826904 0.270264 0.845947 0.200439 0.819824 0.200195 0.86377 0.138428 0.894775 0.138428 0.894775 0.200195 0.86377 0.212646 0.895996 0.212646 0.895996 0.200195 0.86377 0.270264 0.845947 0.212646 0.895996 0.270264 0.845947 0.275879 0.865723 0.061523 0.539795 0.039551 0.635254 0.012451 0.569092 0.039551 0.635254 0.061523 0.539795 0.080566 0.574951 0.080566 0.574951 0.061523 0.539795 0.094971 0.554932 0.971191 0.059814 0.971191 0.225586 0.93042 0.10498 0.367676 0.844482 0.448242 0.827148 0.526855 0.855713 0.526855 0.855713 0.448242 0.827148 0.520264 0.815918 0.948242 0.312988 0.968018 0.341553 0.917725 0.365234 0.917725 0.365234 0.968018 0.341553 0.919922 0.408203 0.948242 0.312988 0.917725 0.365234 0.88916 0.36377 0.948242 0.312988 0.88916 0.36377 0.921631 0.300537 0.921631 0.300537 0.88916 0.36377 0.880615 0.339844 0.88916 0.36377 0.917725 0.365234 0.876709 0.40918 0.876709 0.40918 0.917725 0.365234 0.919922 0.408203 0.88916 0.36377 0.876709 0.40918 0.847412 0.4021 0.88916 0.36377 0.847412 0.4021 0.836182 0.406738 0.847412 0.4021 0.876709 0.40918 0.823242 0.416504 0.876709 0.40918 0.919922 0.408203 0.887695 0.434814 0.887695 0.434814 0.919922 0.408203 0.908936 0.441895 0.908936 0.441895 0.919922 0.408203 0.926758 0.418213 0.908936 0.441895 0.926758 0.418213 0.937256 0.433105 0.908936 0.441895 0.937256 0.433105 0.946533 0.497314 0.953613 0.02417 0.972656 0.036133 0.94458 0.063232 0.94458 0.063232 0.972656 0.036133 0.928711 0.095215 0.016602 0.04834 0.062256 0.048096 0.04248 0.078369 0.016602 0.04834 0.04248 0.078369 0.016357 0.087158 0.016357 0.087158 0.04248 0.078369 0.043457 0.109375 0.043457 0.109375 0.04248 0.078369 0.057373 0.110352 0.043457 0.109375 0.057373 0.110352 0.05249 0.152832 0.477539 0.406982 0.451904 0.381836 0.484131 0.372803 0.477539 0.406982 0.484131 0.372803 0.529785 0.400391 0.529785 0.400391 0.484131 0.372803 0.518555 0.376709 0.518555 0.376709 0.484131 0.372803 0.505127 0.334473 0.518555 0.376709 0.505127 0.334473 0.544922 0.304932 0.544922 0.304932 0.505127 0.334473 0.52417 0.292236 0.52417 0.292236 0.505127 0.334473 0.520508 0.22998 0.477539 0.406982 0.529785 0.400391 0.513428 0.413086 0.513428 0.413086 0.529785 0.400391 0.522949 0.444824 0.513428 0.413086 0.522949 0.444824 0.477539 0.406982 0.477539 0.406982 0.522949 0.444824 0.470703 0.449951 0.522949 0.444824 0.529785 0.400391 0.536377 0.407715 0.522949 0.444824 0.536377 0.407715 0.542969 0.474609 0.626465 0.422363 0.664062 0.433594 0.627441 0.481934 0.626465 0.422363 0.627441 0.481934 0.609131 0.459717 0.626465 0.422363 0.609131 0.459717 0.581055 0.428223 0.626465 0.422363 0.581055 0.428223 0.56543 0.354248 0.56543 0.354248 0.581055 0.428223 0.547852 0.393555 0.547852 0.393555 0.581055 0.428223 0.557129 0.475342 0.557129 0.475342 0.581055 0.428223 0.609131 0.459717 0.609131 0.459717 0.627441 0.481934 0.600586 0.493652 0.609131 0.459717 0.600586 0.493652 0.557129 0.475342 0.557129 0.475342 0.600586 0.493652 0.548828 0.513672 0.557129 0.475342 0.548828 0.513672 0.520752 0.490723 0.520752 0.490723 0.548828 0.513672 0.51123 0.506592 0.51123 0.506592 0.548828 0.513672 0.517578 0.539307 0.520752 0.490723 0.51123 0.506592 0.439941 0.531982 0.600586 0.493652 0.627441 0.481934 0.618896 0.530762 0.600586 0.493652 0.618896 0.530762 0.587891 0.528076 0.618896 0.530762 0.627441 0.481934 0.649658 0.53418 0.649658 0.53418 0.627441 0.481934 0.647461 0.48999 0.649658 0.53418 0.647461 0.48999 0.673584 0.529297 0.61377 0.686768 0.576416 0.617188 0.62085 0.625 0.576416 0.617188 0.61377 0.686768 0.572266 0.702881 0.61377 0.686768 0.62085 0.625 0.633545 0.692627 0.633545 0.692627 0.62085 0.625 0.639648 0.618164 0.572266 0.702881 0.61377 0.686768 0.625977 0.749268 0.625977 0.749268 0.61377 0.686768 0.633545 0.692627 0.625977 0.749268 0.633545 0.692627 0.667725 0.762207 0.667725 0.762207 0.633545 0.692627 0.657959 0.694336 0.625977 0.749268 0.667725 0.762207 0.685547 0.782715 0.572266 0.702881 0.625977 0.749268 0.590088 0.733398 0.590088 0.733398 0.625977 0.749268 0.602783 0.767578 0.590088 0.733398 0.602783 0.767578 0.585693 0.754883 0.572266 0.702881 0.590088 0.733398 0.532471 0.716064 0.572266 0.702881 0.532471 0.716064 0.504883 0.711182 0.590088 0.733398 0.585693 0.754883 0.569824 0.748779 0.590088 0.733398 0.569824 0.748779 0.532471 0.716064 0.569824 0.748779 0.585693 0.754883 0.526855 0.778076 0.532471 0.716064 0.569824 0.748779 0.533203 0.746338 0.533203 0.746338 0.569824 0.748779 0.526855 0.778076 0.532471 0.716064 0.533203 0.746338 0.491211 0.730713 0.533203 0.746338 0.526855 0.778076 0.477539 0.780762 0.815674 0.947266 0.700684 0.947266 0.709473 0.901611 0.708008 0.787354 0.729492 0.831299 0.658936 0.793701 0.729492 0.831299 0.708008 0.787354 0.771973 0.820068 0.771973 0.820068 0.708008 0.787354 0.77124 0.793457 0.771973 0.820068 0.77124 0.793457 0.821777 0.788086 0.729492 0.831299 0.771973 0.820068 0.773193 0.856934 0.729492 0.831299 0.773193 0.856934 0.726807 0.885254 0.275635 0.873047 0.220215 0.948975 0.214111 0.904053 0.132324 0.024902 0.071045 0.01416 0.137939 0.003418 0.071045 0.01416 0.132324 0.024902 0.135742 0.047363 0.944336 0.89624 0.79126 0.888916 0.894775 0.785156 0.944336 0.89624 0.894775 0.785156 0.96582 0.812256 0.894775 0.785156 0.79126 0.888916 0.838379 0.834961 0.894775 0.785156 0.838379 0.834961 0.892822 0.750244 0.892822 0.750244 0.838379 0.834961 0.817871 0.808838 0.892822 0.750244 0.817871 0.808838 0.848145 0.749512 0.052002 0.878906 0.03833 0.960449 0.01123 0.939209 0.052002 0.878906 0.01123 0.939209 0.011475 0.879883 0.052002 0.878906 0.011475 0.879883 0.039795 0.84375 0.03833 0.960449 0.052002 0.878906 0.083984 0.883789 0.03833 0.960449 0.083984 0.883789 0.137939 0.919189 0.03833 0.960449 0.137939 0.919189 0.081055 0.966064 0.847412 0.735596 0.871582 0.690674 0.886719 0.739014 0.886719 0.739014 0.871582 0.690674 0.9646 0.725342 0.886719 0.739014 0.9646 0.725342 0.959229 0.782959 0.9646 0.725342 0.871582 0.690674 0.969238 0.671143 0.969238 0.671143 0.871582 0.690674 0.88916 0.648926 0.969238 0.671143 0.88916 0.648926 0.970947 0.636475 0.970947 0.636475 0.88916 0.648926 0.970947 0.608887 0.970947 0.608887 0.88916 0.648926 0.838135 0.636719 0.984131 0.526367 0.955322 0.500732 0.989746 0.504883 0.989746 0.504883 0.955322 0.500732 0.950195 0.466797 0.984131 0.526367 0.989746 0.504883 0.998047 0.499756 0.989746 0.504883 0.950195 0.466797 0.997803 0.472168 0.989746 0.504883 0.997803 0.472168 0.998047 0.499756 0.969971 0.522705 0.912598 0.601562 0.931885 0.511963 0.754395 0.427979 0.837646 0.488037 0.794189 0.492432 0.754395 0.427979 0.794189 0.492432 0.673584 0.450928 0.837646 0.488037 0.754395 0.427979 0.793701 0.409668 0.793701 0.409668 0.754395 0.427979 0.745605 0.396973 0.793701 0.409668 0.745605 0.396973 0.837891 0.338379 0.014404 0.298828 0.054199 0.303955 0.003418 0.305664 0.003418 0.305664 0.054199 0.303955 0.035645 0.331055 0.065674 0.358398 0.120117 0.424072 0.091309 0.451904 0.065674 0.358398 0.091309 0.451904 0.05835 0.400879 0.05835 0.400879 0.091309 0.451904 0.066406 0.510254 0.05835 0.400879 0.066406 0.510254 0.021973 0.478271 0.05835 0.400879 0.021973 0.478271 0.01001 0.371582 0.66748 0.594971 0.70459 0.648682 0.661621 0.615723 0.70459 0.648682 0.66748 0.594971 0.724609 0.554199 0.70459 0.648682 0.724609 0.554199 0.74707 0.592529 0.66748 0.594971 0.661621 0.615723 0.642578 0.583008 0.642578 0.583008 0.661621 0.615723 0.561523 0.601807 0.724609 0.554199 0.66748 0.594971 0.642578 0.566406 0.642578 0.566406 0.66748 0.594971 0.642578 0.583008 0.724609 0.554199 0.642578 0.566406 0.735596 0.482666 0.642578 0.566406 0.642578 0.583008 0.621826 0.5625 0.177979 0.177246 0.210449 0.148193 0.242432 0.151611 0.147461 0.225342 0.177979 0.177246 0.204834 0.279297 0.177979 0.177246 0.147461 0.225342 0.111816 0.210938 0.177979 0.177246 0.111816 0.210938 0.152588 0.176514 0.177979 0.177246 0.152588 0.176514 0.210449 0.148193 0.152588 0.176514 0.111816 0.210938 0.134766 0.178955 0.210449 0.148193 0.152588 0.176514 0.175293 0.157959 0.175293 0.157959 0.152588 0.176514 0.134766 0.178955 0.210449 0.148193 0.175293 0.157959 0.212158 0.117432 0.175293 0.157959 0.134766 0.178955 0.092773 0.147461 0.212158 0.117432 0.175293 0.157959 0.116455 0.109863 0.116455 0.109863 0.175293 0.157959 0.092773 0.147461 0.125 0.180908 0.061279 0.210693 0.020264 0.176514 0.189941 0.373291 0.088379 0.374023 0.154297 0.322998 0.154297 0.322998 0.088379 0.374023 0.099121 0.325684 0.154297 0.322998 0.099121 0.325684 0.116943 0.279785 0.116943 0.279785 0.099121 0.325684 0.087646 0.289551 0.154297 0.322998 0.116943 0.279785 0.144775 0.279297 0.154297 0.322998 0.144775 0.279297 0.177979 0.287842 0.144775 0.279297 0.116943 0.279785 0.147949 0.233887 0.147949 0.233887 0.116943 0.279785 0.101318 0.246338 0.101318 0.246338 0.116943 0.279785 0.087646 0.289551 0.101318 0.246338 0.087646 0.289551 0.093506 0.219971 0.029297 0.5271 0.022949 0.487793 0.074463 0.524902 0.39917 0.92041 0.456787 0.921143 0.418945 0.944092 0.418945 0.944092 0.456787 0.921143 0.544189 0.939697 0.544678 0.947754 0.612549 0.947754 0.569824 0.970703 0.955566 0.556396 0.974609 0.563721 0.918945 0.60498 0.918945 0.60498 0.974609 0.563721 0.961914 0.602783 0.474854 0.203857 0.463867 0.141846 0.474609 0.154053 0.542969 0.110596 0.495361 0.162842 0.474609 0.154053 0.542969 0.110596 0.474609 0.154053 0.545166 0.089355 0.545166 0.089355 0.474609 0.154053 0.463867 0.141846 0.545166 0.089355 0.463867 0.141846 0.539307 0.015137 0.539307 0.015137 0.463867 0.141846 0.482666 0.023926 0.482666 0.023926 0.463867 0.141846 0.423096 0.107422 0.423096 0.107422 0.463867 0.141846 0.431641 0.14917 0.482666 0.023926 0.423096 0.107422 0.446045 0.02832 0.446045 0.02832 0.423096 0.107422 0.414795 0.01709 0.414795 0.01709 0.423096 0.107422 0.380615 0.103027 0.414795 0.01709 0.380615 0.103027 0.368408 0.016602 0.513428 0.193115 0.536377 0.212646 0.485596 0.211182 0.485596 0.211182 0.536377 0.212646 0.539795 0.230713 0.539795 0.230713 0.536377 0.212646 0.591309 0.221191 0.539795 0.230713 0.591309 0.221191 0.538818 0.251465 0.591309 0.221191 0.536377 0.212646 0.655762 0.19165 0.591309 0.221191 0.655762 0.19165 0.651367 0.219238 0.655762 0.19165 0.536377 0.212646 0.658447 0.168213 0.658447 0.168213 0.536377 0.212646 0.589111 0.132324 0.658447 0.168213 0.589111 0.132324 0.609131 0.126465 0.658447 0.168213 0.609131 0.126465 0.673584 0.166748 0.658447 0.168213 0.673584 0.166748 0.655762 0.19165 0.655762 0.19165 0.673584 0.166748 0.651367 0.219238 0.591309 0.221191 0.651367 0.219238 0.624023 0.253174 0.591309 0.221191 0.624023 0.253174 0.538818 0.251465 0.624023 0.253174 0.651367 0.219238 0.631592 0.254395 0.624023 0.253174 0.631592 0.254395 0.645752 0.295166 0.538818 0.251465 0.624023 0.253174 0.634277 0.324219 0.634277 0.324219 0.624023 0.253174 0.645752 0.295166 0.538818 0.251465 0.634277 0.324219 0.575195 0.341309 0.575195 0.341309 0.634277 0.324219 0.640381 0.363037 0.640381 0.363037 0.634277 0.324219 0.645752 0.295166 0.640381 0.363037 0.645752 0.295166 0.670898 0.347412 0.394531 0.449463 0.47168 0.412109 0.454346 0.451904 0.394531 0.449463 0.454346 0.451904 0.416504 0.491943 0.394531 0.449463 0.416504 0.491943 0.405762 0.476807 0.47168 0.412109 0.394531 0.449463 0.458496 0.406006 0.394531 0.449463 0.405762 0.476807 0.338623 0.473145 0.458496 0.406006 0.394531 0.449463 0.413818 0.418213 0.458496 0.406006 0.413818 0.418213 0.44873 0.391602 0.394531 0.449463 0.338623 0.473145 0.284668 0.477539 0.394531 0.449463 0.284668 0.477539 0.292236 0.442627 0.284668 0.477539 0.338623 0.473145 0.271973 0.492432 0.292236 0.442627 0.284668 0.477539 0.285645 0.426514 0.285645 0.426514 0.284668 0.477539 0.271973 0.492432 0.285645 0.426514 0.271973 0.492432 0.262451 0.442383 0.285645 0.426514 0.262451 0.442383 0.21582 0.390381 0.134521 0.529541 0.161133 0.573242 0.119629 0.607666 0.161133 0.573242 0.134521 0.529541 0.172119 0.541748 0.134521 0.529541 0.119629 0.607666 0.105225 0.552734 0.105225 0.552734 0.119629 0.607666 0.090088 0.591309 0.105225 0.552734 0.090088 0.591309 0.081543 0.585693 0.134521 0.529541 0.105225 0.552734 0.109619 0.46167 0.109619 0.46167 0.105225 0.552734 0.103516 0.449951 0.103516 0.449951 0.105225 0.552734 0.078613 0.528564 0.9646 0.845215 0.973389 0.839111 0.980225 0.882324 0.980225 0.882324 0.973389 0.839111 0.997559 0.868896 0.9646 0.845215 0.980225 0.882324 0.949707 0.900391 0.995605 0.391846 0.98584 0.392822 0.977539 0.361572 0.977539 0.361572 0.98584 0.392822 0.977783 0.374268 0.995605 0.391846 0.977539 0.361572 0.993652 0.31665 0.981201 0.333008 0.910645 0.270508 0.986084 0.291016 0.986084 0.291016 0.910645 0.270508 0.912842 0.235107 0.986084 0.291016 0.912842 0.235107 0.99585 0.260498 0.440186 0.987305 0.468262 0.987305 0.455811 0.999756 0.104736 0.696533 0.102051 0.726318 0.027588 0.667969 0.027588 0.667969 0.102051 0.726318 0.034668 0.724121 0.027588 0.667969 0.034668 0.724121 0.013428 0.656982 0.104736 0.696533 0.027588 0.667969 0.057617 0.623779 0.104736 0.696533 0.057617 0.623779 0.11792 0.678711 0.11792 0.678711 0.057617 0.623779 0.093262 0.625732 0.093262 0.625732 0.057617 0.623779 0.075439 0.605957 0.078369 0.812256 0.018799 0.830566 0.066895 0.760742 0.066895 0.760742 0.018799 0.830566 0.013428 0.733398 0.078369 0.812256 0.066895 0.760742 0.118896 0.737305 0.118896 0.737305 0.066895 0.760742 0.064453 0.737061 0.525391 0.929932 0.445068 0.900879 0.581787 0.901855 0.991943 0.424561 0.947998 0.430664 0.992676 0.416504 0.992676 0.416504 0.947998 0.430664 0.932617 0.402344 0.947998 0.430664 0.991943 0.424561 0.953857 0.462402 0.947998 0.430664 0.953857 0.462402 0.932617 0.402344 0.437256 0.993408 0.44165 0.999512 0.4021 0.998779 0.853271 0.923828 0.960693 0.923828 0.855713 0.951904 0.086182 0.230957 0.073975 0.296143 0.029297 0.216309 0.073975 0.296143 0.086182 0.230957 0.08252 0.287354 0.029297 0.216309 0.073975 0.296143 0.026367 0.258301 0.026367 0.258301 0.073975 0.296143 0.064209 0.304688 0.064209 0.304688 0.073975 0.296143 0.083008 0.300293 0.064209 0.304688 0.083008 0.300293 0.075195 0.333496 0.064209 0.304688 0.075195 0.333496 0.04126 0.334961 0.677246 0.943115 0.548584 0.943115 0.567871 0.915527 0.164795 0.378418 0.164795 0.532959 0.115967 0.445801 0.030762 0.11792 0.053711 0.171631 0.029785 0.137451 0.029785 0.137451 0.053711 0.171631 0.020264 0.130371 0.020264 0.130371 0.053711 0.171631 0 0.171387 0.020264 0.130371 0 0.171387 0.000244 0.138184 0.981445 0.929688 0.993652 0.972168 0.937256 0.936768 0.981445 0.929688 0.937256 0.936768 0.981201 0.924561 0.937256 0.936768 0.993652 0.972168 0.957275 0.98291 0.937256 0.936768 0.957275 0.98291 0.917969 0.951416 0.323486 0.533936 0.35083 0.559814 0.332764 0.589844 0.332764 0.589844 0.35083 0.559814 0.426514 0.516357 0.332764 0.589844 0.426514 0.516357 0.340332 0.63916 0.323486 0.533936 0.332764 0.589844 0.300781 0.539551 0.332764 0.589844 0.340332 0.63916 0.304688 0.601562 0.332764 0.589844 0.304688 0.601562 0.300781 0.539551 0.323486 0.533936 0.300781 0.539551 0.267578 0.496582 0.304688 0.601562 0.340332 0.63916 0.312256 0.648682 0.304688 0.601562 0.312256 0.648682 0.277832 0.615234 0.267578 0.496582 0.300781 0.539551 0.230713 0.503174 0.267578 0.496582 0.230713 0.503174 0.224609 0.44873 0.230713 0.503174 0.300781 0.539551 0.26001 0.534424 0.26001 0.534424 0.300781 0.539551 0.304688 0.601562 0.230713 0.503174 0.26001 0.534424 0.206299 0.522217 0.304688 0.601562 0.277832 0.615234 0.236572 0.579834 0.206299 0.522217 0.26001 0.534424 0.236572 0.579834 0.236572 0.579834 0.26001 0.534424 0.304688 0.601562 0.236572 0.579834 0.277832 0.615234 0.224609 0.647217 0.657715 0.931885 0.578369 0.910645 0.703369 0.905762 0.143799 0.861572 0.130859 0.899414 0.077881 0.873535 0.143799 0.861572 0.077881 0.873535 0.119629 0.83252 0.143799 0.861572 0.119629 0.83252 0.142334 0.829102 0.142334 0.829102 0.119629 0.83252 0.108154 0.779541 0.142334 0.829102 0.108154 0.779541 0.114258 0.759277 0.142334 0.829102 0.114258 0.759277 0.142334 0.768799 0.142334 0.829102 0.142334 0.768799 0.149658 0.806152 0.142334 0.829102 0.149658 0.806152 0.181641 0.812012 0.217529 0.503906 0.178467 0.535889 0.203125 0.459717 0.203125 0.459717 0.178467 0.535889 0.169922 0.491455 0.217529 0.503906 0.203125 0.459717 0.220459 0.429932 0.203125 0.459717 0.169922 0.491455 0.182129 0.430176 0.203125 0.459717 0.182129 0.430176 0.220459 0.429932 0.220459 0.429932 0.182129 0.430176 0.213379 0.399658 0.213379 0.399658 0.182129 0.430176 0.169678 0.394775 0.213379 0.399658 0.169678 0.394775 0.18042 0.379639 0.302246 0.882812 0.298584 0.822754 0.356201 0.843018 0.356201 0.843018 0.298584 0.822754 0.356445 0.79834 0.302246 0.882812 0.356201 0.843018 0.417725 0.894287 0.302246 0.882812 0.417725 0.894287 0.366455 0.943848 0.302246 0.882812 0.366455 0.943848 0.295898 0.939209 0.168213 0.582031 0.1875 0.628174 0.10498 0.626953 0.10498 0.626953 0.1875 0.628174 0.166748 0.649414 0.10498 0.626953 0.166748 0.649414 0.125 0.678711 0.125 0.678711 0.166748 0.649414 0.168701 0.711182 0.125 0.678711 0.168701 0.711182 0.106201 0.732422 0.45752 0.579102 0.508057 0.520508 0.511963 0.584229 0.45752 0.579102 0.511963 0.584229 0.445801 0.62207 0.45752 0.579102 0.445801 0.62207 0.405762 0.559326 0.445801 0.62207 0.511963 0.584229 0.536865 0.652344 0.405762 0.559326 0.445801 0.62207 0.404297 0.5979 0.445801 0.62207 0.536865 0.652344 0.458252 0.692627 0.458252 0.692627 0.536865 0.652344 0.567627 0.690918 0.445801 0.62207 0.458252 0.692627 0.433838 0.636963 0.445801 0.62207 0.433838 0.636963 0.404297 0.5979 0.404297 0.5979 0.433838 0.636963 0.373291 0.624512 0.373291 0.624512 0.433838 0.636963 0.33374 0.652344 0.323975 0.354736 0.344482 0.44043 0.296875 0.435547 0.344482 0.44043 0.323975 0.354736 0.37793 0.437012 0.323975 0.354736 0.296875 0.435547 0.266357 0.355957 0.37793 0.437012 0.323975 0.354736 0.441406 0.289062 0.37793 0.437012 0.441406 0.289062 0.485107 0.338623 0.323975 0.354736 0.266357 0.355957 0.206299 0.284912 0.206299 0.284912 0.266357 0.355957 0.20874 0.338623 0.270996 0.977051 0.22998 0.947266 0.283447 0.885498 0.859375 0.900879 0.832031 0.947998 0.750488 0.907471 0.743652 0.654541 0.754639 0.574219 0.78418 0.58667 0.838867 0.572266 0.826904 0.65332 0.78418 0.58667 0.78418 0.58667 0.826904 0.65332 0.803223 0.666748 0.78418 0.58667 0.803223 0.666748 0.743652 0.654541 0.803223 0.666748 0.826904 0.65332 0.843262 0.71582 0.743652 0.654541 0.803223 0.666748 0.747559 0.692383 0.803223 0.666748 0.843262 0.71582 0.774414 0.719971 0.803223 0.666748 0.774414 0.719971 0.747559 0.692383 0.743652 0.654541 0.747559 0.692383 0.737061 0.673096 0.743652 0.654541 0.737061 0.673096 0.719238 0.672607 0.719238 0.672607 0.737061 0.673096 0.747559 0.692383 0.743652 0.654541 0.719238 0.672607 0.667236 0.654785 0.719238 0.672607 0.747559 0.692383 0.708008 0.702148 0.719238 0.672607 0.708008 0.702148 0.676025 0.686523 0.708008 0.702148 0.747559 0.692383 0.774414 0.719971 0.708008 0.702148 0.774414 0.719971 0.714844 0.748047 0.708008 0.702148 0.714844 0.748047 0.678467 0.722656 0.714844 0.748047 0.774414 0.719971 0.782959 0.743896 0.782959 0.743896 0.774414 0.719971 0.802734 0.73291 0.802734 0.73291 0.774414 0.719971 0.843262 0.71582 0.782959 0.743896 0.802734 0.73291 0.80957 0.775879 0.802734 0.73291 0.843262 0.71582 0.827637 0.735596 0.80957 0.775879 0.802734 0.73291 0.834473 0.762695 0.834473 0.762695 0.802734 0.73291 0.827637 0.735596 0.068359 0.107178 0.065918 0.019043 0.108887 0.100586 0.068359 0.107178 0.108887 0.100586 0.067627 0.164795 0.108887 0.100586 0.065918 0.019043 0.12915 0.057861 0.108887 0.100586 0.12915 0.057861 0.180664 0.10498 0.180664 0.10498 0.12915 0.057861 0.161865 0.041504 0.746826 0.424561 0.69165 0.394775 0.728271 0.356934 0.728271 0.356934 0.69165 0.394775 0.706543 0.360596 0.728271 0.356934 0.706543 0.360596 0.691895 0.334229 0.691895 0.334229 0.706543 0.360596 0.69165 0.394775 0.691895 0.334229 0.69165 0.394775 0.649414 0.383301 0.728271 0.356934 0.691895 0.334229 0.783447 0.322266 0.783447 0.322266 0.691895 0.334229 0.790527 0.263184 0.790527 0.263184 0.691895 0.334229 0.640381 0.260254 0.790527 0.263184 0.640381 0.260254 0.738525 0.201172 0.752441 0.045898 0.761963 0.015137 0.837158 0.06543 0.837158 0.06543 0.761963 0.015137 0.87793 0.02124 0.837158 0.06543 0.87793 0.02124 0.901123 0.043701 0.901123 0.043701 0.87793 0.02124 0.923828 0.016602 0.837158 0.06543 0.901123 0.043701 0.858887 0.14209 0.901123 0.043701 0.923828 0.016602 0.922607 0.100098 0.901123 0.043701 0.922607 0.100098 0.858887 0.14209 0.858887 0.14209 0.922607 0.100098 0.927979 0.119141 0.634033 0.080811 0.576416 0.035645 0.636719 0.04248 0.636719 0.04248 0.576416 0.035645 0.624023 0.011963 0.636719 0.04248 0.624023 0.011963 0.646729 0 0.636719 0.04248 0.646729 0 0.686035 0.032715 0.636719 0.04248 0.686035 0.032715 0.634033 0.080811 0.634033 0.080811 0.686035 0.032715 0.692871 0.074219 0.634033 0.080811 0.692871 0.074219 0.706055 0.087646 0.692871 0.074219 0.686035 0.032715 0.729736 0.028564 0.692871 0.074219 0.729736 0.028564 0.706055 0.087646 0.706055 0.087646 0.729736 0.028564 0.747803 0.056152 0.297363 0.75293 0.286621 0.77002 0.216309 0.736328 0.297363 0.75293 0.216309 0.736328 0.320801 0.679443 0.320801 0.679443 0.216309 0.736328 0.221436 0.655273 0.221436 0.655273 0.216309 0.736328 0.166748 0.735107 0.221436 0.655273 0.166748 0.735107 0.19873 0.645264 0.221436 0.655273 0.19873 0.645264 0.177734 0.553467 0.016846 0.003418 0.071533 0.003418 0.040527 0.039307</float_array>
          <technique_common>
            <accessor source="#Catfish-mesh-map-0-array" count="1500" stride="2">
              <param name="S" type="float"/>
              <param name="T" type="float"/>
            </accessor>
          </technique_common>
        </source>
        <vertices id="Catfish-mesh-vertices">
          <input semantic="POSITION" source="#Catfish-mesh-positions"/>
        </vertices>
        <polylist material="Material_-1-material" count="6">
          <input semantic="VERTEX" source="#Catfish-mesh-vertices" offset="0"/>
          <input semantic="NORMAL" source="#Catfish-mesh-normals" offset="1"/>
          <input semantic="TEXCOORD" source="#Catfish-mesh-map-0" offset="2" set="0"/>
          <vcount>3 3 3 3 3 3 3 3 3 3 3 3 3 3 3 3 3 3 3 3 3 3 3 3 3 3 3 3 3 3 3 3 3 3 3 3 3 3 3 3 3 3 3 3 3 3 3 3 3 3 3 3 3 3 3 3 3 3 3 3 3 3 3 3 3 3 3 3 3 3 3 3 3 3 3 3 3 3 3 3 3 3 3 3 3 3 3 3 3 3 3 3 3 3 3 3 3 3 3 3 3 3 3 3 3 3 3 3 3 3 3 3 3 3 3 3 3 3 3 3 3 3 3 3 3 3 3 3 3 3 3 3 3 3 3 3 3 3 3 3 3 3 3 3 3 3 3 3 3 3 3 3 3 3 3 3 3 3 3 3 3 3 3 3 3 3 3 3 3 3 3 3 3 3 3 3 3 3 3 3 3 3 3 3 3 3 3 3 3 3 3 3 3 3 3 3 3 3 3 3 3 3 3 3 3 3 3 3 3 3 3 3 3 3 3 3 3 3 3 3 3 3 3 3 3 3 3 3 3 3 3 3 3 3 3 3 3 3 3 3 3 3 3 3 3 3 3 3 3 3 3 3 3 3 3 3 3 3 3 3 3 3 3 3 3 3 3 3 3 3 3 3 3 3 3 3 3 3 3 3 3 3 3 3 3 3 3 3 3 3 3 3 3 3 3 3 3 3 3 3 3 3 3 3 3 3 3 3 3 3 3 3 3 3 3 3 3 3 3 3 3 3 3 3 3 3 3 3 3 3 3 3 3 3 3 3 3 3 3 3 3 3 3 3 3 3 3 3 3 3 3 3 3 3 3 3 3 3 3 3 3 3 3 3 3 3 3 3 3 3 3 3 3 3 3 3 3 3 3 3 3 3 3 3 3 3 3 3 3 3 3 3 3 3 3 3 3 3 3 3 3 3 3 3 3 3 3 3 3 3 3 3 3 3 3 3 3 3 3 3 3 3 3 3 3 3 3 3 3 3 3 3 3 3 3 3 3 3 3 3 3 3 3 3 3 3 3 3 3 3 3 3 3 3 3 3 3 3 3 3 3 3 3 3 3 3 3 3 3 3 3 3 3 3 3 3 3 3 3 3 3 3 3 3 3 3 3 3 3 3 3 3 3 3 3 3 3 3 3 3</vcount>
          <p>0 0 0 1 0 1 2 0 2 2 1 3 1 1 4 3 1 5 2 2 6 3 2 7 4 2 8 1 3 9 0 3 10 5 3 11 5 4 12 0 4 13 6 4 14 1 5 15 5 5 16 7 5 17 1 6 18 7 6 19 3 6 20 7 7 21 5 7 22 8 7 23 3 8 24 7 8 25 9 8 26 5 9 27 6 9 28 10 9 29 5 10 30 10 10 31 8 10 32 10 11 33 6 11 34 11 11 35 8 12 36 10 12 37 12 12 38 12 13 39 10 13 40 11 13 41 8 14 42 12 14 43 13 14 44 12 15 45 11 15 46 14 15 47 13 16 48 12 16 49 15 16 50 15 17 51 12 17 52 14 17 53 15 18 54 14 18 55 16 18 56 15 19 57 16 19 58 17 19 59 15 20 60 17 20 61 18 20 62 19 21 63 3 21 64 9 21 65 19 22 66 9 22 67 20 22 68 19 23 69 20 23 70 21 23 71 19 24 72 21 24 73 22 24 74 19 25 75 22 25 76 3 25 77 22 26 78 21 26 79 23 26 80 22 27 81 23 27 82 24 27 83 3 28 84 22 28 85 25 28 86 25 29 87 22 29 88 24 29 89 3 30 90 25 30 91 4 30 92 25 31 93 24 31 94 26 31 95 25 32 96 26 32 97 4 32 98 4 33 99 27 33 100 2 33 101 2 34 102 27 34 103 28 34 104 2 35 105 28 35 106 0 35 107 28 36 108 27 36 109 29 36 110 27 37 111 4 37 112 30 37 113 27 38 114 30 38 115 29 38 116 30 39 117 4 39 118 26 39 119 30 40 120 26 40 121 29 40 122 29 41 123 26 41 124 31 41 125 31 42 126 26 42 127 32 42 128 32 43 129 26 43 130 24 43 131 32 44 132 24 44 133 23 44 134 32 45 135 23 45 136 33 45 137 23 46 138 21 46 139 33 46 140 33 47 141 21 47 142 34 47 143 33 48 144 34 48 145 35 48 146 35 49 147 34 49 148 36 49 149 36 50 150 34 50 151 37 50 152 36 51 153 37 51 154 38 51 155 36 52 156 38 52 157 39 52 158 40 53 159 41 53 160 0 53 161 0 54 162 41 54 163 42 54 164 40 55 165 0 55 166 28 55 167 40 56 168 28 56 169 43 56 170 0 57 171 42 57 172 6 57 173 6 58 174 42 58 175 11 58 176 43 59 177 28 59 178 29 59 179 43 60 180 29 60 181 44 60 182 43 61 183 44 61 184 45 61 185 43 62 186 45 62 187 46 62 188 43 63 189 46 63 190 40 63 191 44 64 192 29 64 193 31 64 194 44 65 195 31 65 196 46 65 197 44 66 198 46 66 199 45 66 200 31 67 201 32 67 202 46 67 203 46 68 204 32 68 205 47 68 206 46 69 207 47 69 208 41 69 209 46 70 210 41 70 211 40 70 212 41 71 213 47 71 214 48 71 215 47 72 216 32 72 217 49 72 218 49 73 219 32 73 220 33 73 221 49 74 222 33 74 223 50 74 224 49 75 225 50 75 226 51 75 227 52 76 228 14 76 229 11 76 230 14 77 231 52 77 232 53 77 233 14 78 234 53 78 235 16 78 236 54 79 237 53 79 238 52 79 239 53 80 240 54 80 241 55 80 242 54 81 243 52 81 244 56 81 245 54 82 246 56 82 247 57 82 248 56 83 249 52 83 250 11 83 251 56 84 252 11 84 253 42 84 254 56 85 255 42 85 256 41 85 257 56 86 258 41 86 259 48 86 260 16 87 261 53 87 262 58 87 263 16 88 264 58 88 265 59 88 266 58 89 267 53 89 268 60 89 269 59 90 270 58 90 271 61 90 272 61 91 273 58 91 274 60 91 275 60 92 276 53 92 277 62 92 278 60 93 279 62 93 280 61 93 281 62 94 282 53 94 283 55 94 284 59 95 285 61 95 286 63 95 287 59 96 288 63 96 289 64 96 290 64 97 291 63 97 292 65 97 293 63 98 294 61 98 295 66 98 296 66 99 297 61 99 298 62 99 299 63 100 300 66 100 301 67 100 302 67 101 303 66 101 304 68 101 305 68 102 306 66 102 307 62 102 308 68 103 309 62 103 310 69 103 311 36 104 312 68 104 313 35 104 314 68 105 315 36 105 316 67 105 317 67 106 318 36 106 319 39 106 320 35 107 321 50 107 322 33 107 323 35 108 324 68 108 325 50 108 326 50 109 327 68 109 328 69 109 329 7 110 330 8 110 331 70 110 332 70 111 333 8 111 334 71 111 335 7 112 336 70 112 337 72 112 338 7 113 339 72 113 340 9 113 341 9 114 342 72 114 343 73 114 344 72 115 345 70 115 346 74 115 347 74 116 348 70 116 349 71 116 350 72 117 351 74 117 352 75 117 353 72 118 354 75 118 355 76 118 356 75 119 357 74 119 358 77 119 359 74 120 360 71 120 361 78 120 362 78 121 363 71 121 364 79 121 365 79 122 366 71 122 367 80 122 368 79 123 369 80 123 370 81 123 371 79 124 372 81 124 373 82 124 374 83 125 375 84 125 376 85 125 377 85 126 378 84 126 379 86 126 380 87 127 381 15 127 382 18 127 383 87 128 384 18 128 385 85 128 386 85 129 387 18 129 388 83 129 389 83 130 390 18 130 391 17 130 392 83 131 393 17 131 394 16 131 395 87 132 396 85 132 397 86 132 398 87 133 399 86 133 400 80 133 401 80 134 402 86 134 403 81 134 404 81 135 405 86 135 406 88 135 407 81 136 408 88 136 409 89 136 410 89 137 411 88 137 412 90 137 413 90 138 414 88 138 415 91 138 416 87 139 417 80 139 418 92 139 419 92 140 420 80 140 421 13 140 422 92 141 423 13 141 424 87 141 425 87 142 426 13 142 427 15 142 428 13 143 429 80 143 430 71 143 431 13 144 432 71 144 433 8 144 434 88 145 435 86 145 436 84 145 437 88 146 438 84 146 439 93 146 440 88 147 441 93 147 442 94 147 443 88 148 444 94 148 445 91 148 446 91 149 447 94 149 448 95 149 449 95 150 450 94 150 451 96 150 452 96 151 453 94 151 454 93 151 455 93 152 456 84 152 457 97 152 458 93 153 459 97 153 460 96 153 461 96 154 462 97 154 463 98 154 464 96 155 465 98 155 466 99 155 467 99 156 468 98 156 469 100 156 470 100 157 471 98 157 472 101 157 473 99 158 474 100 158 475 102 158 476 97 159 477 84 159 478 64 159 479 97 160 480 64 160 481 65 160 482 64 161 483 84 161 484 59 161 485 59 162 486 84 162 487 83 162 488 59 163 489 83 163 490 16 163 491 103 164 492 21 164 493 20 164 494 21 165 495 103 165 496 104 165 497 103 166 498 20 166 499 73 166 500 73 167 501 20 167 502 9 167 503 104 168 504 103 168 505 105 168 506 105 169 507 103 169 508 73 169 509 105 170 510 73 170 511 76 170 512 76 171 513 73 171 514 72 171 515 105 172 516 76 172 517 106 172 518 104 173 519 105 173 520 107 173 521 107 174 522 105 174 523 108 174 524 107 175 525 108 175 526 109 175 527 104 176 528 107 176 529 37 176 530 104 177 531 37 177 532 34 177 533 107 178 534 109 178 535 110 178 536 107 179 537 110 179 538 37 179 539 110 180 540 109 180 541 111 180 542 37 181 543 110 181 544 112 181 545 112 182 546 110 182 547 111 182 548 37 183 549 112 183 550 38 183 551 112 184 552 111 184 553 113 184 554 104 185 555 34 185 556 21 185 557 101 186 558 113 186 559 111 186 560 113 187 561 101 187 562 65 187 563 65 188 564 101 188 565 98 188 566 65 189 567 98 189 568 97 189 569 113 190 570 65 190 571 39 190 572 113 191 573 39 191 574 38 191 575 112 192 576 113 192 577 38 192 578 39 193 579 63 193 580 67 193 581 63 194 582 39 194 583 65 194 584 82 195 585 81 195 586 114 195 587 82 196 588 114 196 589 115 196 590 114 197 591 81 197 592 89 197 593 114 198 594 89 198 595 116 198 596 116 199 597 89 199 598 90 199 599 116 200 600 90 200 601 91 200 602 117 201 603 101 201 604 111 201 605 117 202 606 111 202 607 109 202 608 117 203 609 109 203 610 118 203 611 101 204 612 117 204 613 119 204 614 101 205 615 119 205 616 102 205 617 101 206 618 102 206 619 100 206 620 117 207 621 118 207 622 119 207 623 119 208 624 118 208 625 120 208 626 119 209 627 120 209 628 102 209 629 120 210 630 118 210 631 121 210 632 121 211 633 118 211 634 122 211 635 121 212 636 122 212 637 123 212 638 123 213 639 122 213 640 124 213 641 124 214 642 122 214 643 125 214 644 126 215 645 75 215 646 127 215 647 127 216 648 75 216 649 77 216 650 126 217 651 127 217 652 128 217 653 127 218 654 77 218 655 129 218 656 127 219 657 129 219 658 128 219 659 79 220 660 82 220 661 78 220 662 130 221 663 74 221 664 78 221 665 130 222 666 78 222 667 131 222 668 74 223 669 130 223 670 77 223 671 77 224 672 130 224 673 132 224 674 77 225 675 132 225 676 129 225 677 75 226 678 126 226 679 76 226 680 76 227 681 126 227 682 128 227 683 105 228 684 106 228 685 125 228 686 105 229 687 125 229 688 108 229 689 108 230 690 125 230 691 122 230 692 108 231 693 122 231 694 118 231 695 108 232 696 118 232 697 109 232 698 133 233 699 128 233 700 129 233 701 128 234 702 133 234 703 106 234 704 128 235 705 106 235 706 76 235 707 133 236 708 129 236 709 134 236 710 134 237 711 129 237 712 135 237 713 106 238 714 133 238 715 136 238 716 136 239 717 133 239 718 134 239 719 106 240 720 136 240 721 137 240 722 136 241 723 134 241 724 138 241 725 135 242 726 138 242 727 134 242 728 132 243 729 135 243 730 129 243 731 135 244 732 132 244 733 139 244 734 135 245 735 139 245 736 140 245 737 135 246 738 140 246 739 138 246 740 140 247 741 139 247 742 141 247 743 138 248 744 140 248 745 142 248 746 142 249 747 140 249 748 141 249 749 138 250 750 142 250 751 136 250 752 142 251 753 141 251 754 143 251 755 136 252 756 142 252 757 137 252 758 137 253 759 142 253 760 143 253 761 78 254 762 82 254 763 131 254 764 82 255 765 115 255 766 131 255 767 131 256 768 115 256 769 144 256 770 131 257 771 144 257 772 145 257 773 145 258 774 144 258 775 124 258 776 131 259 777 145 259 778 139 259 779 131 260 780 139 260 781 132 260 782 139 261 783 145 261 784 141 261 785 141 262 786 145 262 787 143 262 788 143 263 789 145 263 790 124 263 791 143 264 792 124 264 793 137 264 794 132 265 795 130 265 796 131 265 797 106 266 798 137 266 799 125 266 800 125 267 801 137 267 802 124 267 803 56 268 804 48 268 805 57 268 806 47 269 807 49 269 808 146 269 809 146 270 810 49 270 811 51 270 812 47 271 813 146 271 814 48 271 815 147 272 816 148 272 817 48 272 818 147 273 819 48 273 820 149 273 821 149 274 822 48 274 823 146 274 824 149 275 825 146 275 826 150 275 827 150 276 828 146 276 829 151 276 830 151 277 831 146 277 832 152 277 833 152 278 834 146 278 835 51 278 836 151 279 837 152 279 838 153 279 839 153 280 840 152 280 841 154 280 842 154 281 843 152 281 844 155 281 845 154 282 846 155 282 847 156 282 848 48 283 849 148 283 850 57 283 851 57 284 852 148 284 853 157 284 854 157 285 855 148 285 856 158 285 857 157 286 858 158 286 859 159 286 860 158 287 861 148 287 862 160 287 863 158 288 864 160 288 865 151 288 866 160 289 867 148 289 868 161 289 869 161 290 870 148 290 871 147 290 872 161 291 873 147 291 874 149 291 875 161 292 876 149 292 877 150 292 878 161 293 879 150 293 880 160 293 881 160 294 882 150 294 883 151 294 884 158 295 885 151 295 886 162 295 887 158 296 888 162 296 889 159 296 890 162 297 891 151 297 892 153 297 893 162 298 894 153 298 895 154 298 896 159 299 897 162 299 898 163 299 899 163 300 900 162 300 901 154 300 902 159 301 903 163 301 904 164 301 905 164 302 906 163 302 907 165 302 908 165 303 909 163 303 910 154 303 911 165 304 912 154 304 913 156 304 914 166 305 915 54 305 916 57 305 917 166 306 918 57 306 919 157 306 920 166 307 921 157 307 922 159 307 923 54 308 924 166 308 925 55 308 926 166 309 927 159 309 928 164 309 929 55 310 930 166 310 931 167 310 932 55 311 933 167 311 934 62 311 935 166 312 936 164 312 937 168 312 938 166 313 939 168 313 940 169 313 941 168 314 942 164 314 943 165 314 944 169 315 945 168 315 946 170 315 947 170 316 948 168 316 949 165 316 950 170 317 951 165 317 952 156 317 953 170 318 954 156 318 955 155 318 956 155 319 957 51 319 958 50 319 959 51 320 960 155 320 961 152 320 962 155 321 963 50 321 964 167 321 965 167 322 966 50 322 967 69 322 968 167 323 969 69 323 970 62 323 971 155 324 972 167 324 973 170 324 974 170 325 975 167 325 976 169 325 977 169 326 978 167 326 979 166 326 980 171 327 981 172 327 982 173 327 983 173 328 984 172 328 985 174 328 986 171 329 987 173 329 988 175 329 989 172 330 990 171 330 991 176 330 992 176 331 993 171 331 994 177 331 995 172 332 996 176 332 997 178 332 998 172 333 999 178 333 1000 174 333 1001 174 334 1002 178 334 1003 179 334 1004 174 335 1005 179 335 1006 175 335 1007 175 336 1008 173 336 1009 174 336 1010 177 337 1011 171 337 1012 180 337 1013 180 338 1014 171 338 1015 175 338 1016 180 339 1017 175 339 1018 179 339 1019 177 340 1020 180 340 1021 181 340 1022 177 341 1023 181 341 1024 176 341 1025 176 342 1026 181 342 1027 178 342 1028 178 343 1029 181 343 1030 179 343 1031 91 344 1032 95 344 1033 180 344 1034 180 345 1035 95 345 1036 181 345 1037 91 346 1038 180 346 1039 116 346 1040 116 347 1041 180 347 1042 179 347 1043 95 348 1044 96 348 1045 182 348 1046 183 349 1047 184 349 1048 185 349 1049 185 350 1050 184 350 1051 186 350 1052 184 351 1053 183 351 1054 187 351 1055 184 352 1056 187 352 1057 186 352 1058 183 353 1059 185 353 1060 188 353 1061 99 354 1062 182 354 1063 96 354 1064 186 355 1065 189 355 1066 185 355 1067 189 356 1068 186 356 1069 190 356 1070 185 357 1071 189 357 1072 188 357 1073 188 358 1074 189 358 1075 191 358 1076 191 359 1077 189 359 1078 192 359 1079 191 360 1080 192 360 1081 193 360 1082 191 361 1083 193 361 1084 182 361 1085 99 362 1086 191 362 1087 182 362 1088 191 363 1089 99 363 1090 102 363 1091 191 364 1092 102 364 1093 190 364 1094 190 365 1095 102 365 1096 189 365 1097 189 366 1098 102 366 1099 194 366 1100 189 367 1101 194 367 1102 192 367 1103 187 368 1104 183 368 1105 190 368 1106 187 369 1107 190 369 1108 186 369 1109 190 370 1110 183 370 1111 188 370 1112 190 371 1113 188 371 1114 191 371 1115 179 372 1116 181 372 1117 195 372 1118 195 373 1119 181 373 1120 95 373 1121 195 374 1122 95 374 1123 196 374 1124 179 375 1125 195 375 1126 197 375 1127 195 376 1128 196 376 1129 198 376 1130 195 377 1131 198 377 1132 197 377 1133 179 378 1134 197 378 1135 116 378 1136 198 379 1137 196 379 1138 199 379 1139 198 380 1140 199 380 1141 200 380 1142 116 381 1143 197 381 1144 201 381 1145 116 382 1146 201 382 1147 114 382 1148 201 383 1149 197 383 1150 202 383 1151 202 384 1152 197 384 1153 198 384 1154 201 385 1155 202 385 1156 203 385 1157 198 386 1158 200 386 1159 204 386 1160 203 387 1161 202 387 1162 204 387 1163 204 388 1164 202 388 1165 198 388 1166 204 389 1167 200 389 1168 205 389 1169 182 390 1170 196 390 1171 95 390 1172 206 391 1173 196 391 1174 182 391 1175 206 392 1176 182 392 1177 193 392 1178 206 393 1179 193 393 1180 207 393 1181 207 394 1182 193 394 1183 192 394 1184 207 395 1185 192 395 1186 208 395 1187 207 396 1188 208 396 1189 209 396 1190 207 397 1191 209 397 1192 210 397 1193 207 398 1194 210 398 1195 211 398 1196 206 399 1197 207 399 1198 212 399 1199 212 400 1200 207 400 1201 211 400 1202 206 401 1203 212 401 1204 213 401 1205 212 402 1206 211 402 1207 214 402 1208 212 403 1209 214 403 1210 213 403 1211 213 404 1212 214 404 1213 215 404 1214 215 405 1215 214 405 1216 216 405 1217 215 406 1218 216 406 1219 217 406 1220 115 407 1221 114 407 1222 218 407 1223 218 408 1224 114 408 1225 201 408 1226 115 409 1227 218 409 1228 219 409 1229 115 410 1230 219 410 1231 220 410 1232 115 411 1233 220 411 1234 144 411 1235 218 412 1236 201 412 1237 219 412 1238 219 413 1239 201 413 1240 203 413 1241 219 414 1242 203 414 1243 221 414 1244 221 415 1245 203 415 1246 204 415 1247 221 416 1248 204 416 1249 222 416 1250 194 417 1251 102 417 1252 120 417 1253 194 418 1254 120 418 1255 223 418 1256 194 419 1257 223 419 1258 192 419 1259 223 420 1260 120 420 1261 121 420 1262 192 421 1263 223 421 1264 208 421 1265 223 422 1266 121 422 1267 224 422 1268 224 423 1269 121 423 1270 123 423 1271 223 424 1272 224 424 1273 225 424 1274 223 425 1275 225 425 1276 208 425 1277 208 426 1278 225 426 1279 209 426 1280 209 427 1281 225 427 1282 226 427 1283 227 428 1284 124 428 1285 144 428 1286 124 429 1287 227 429 1288 123 429 1289 227 430 1290 144 430 1291 220 430 1292 123 431 1293 227 431 1294 228 431 1295 123 432 1296 228 432 1297 224 432 1298 227 433 1299 220 433 1300 229 433 1301 229 434 1302 220 434 1303 219 434 1304 229 435 1305 228 435 1306 227 435 1307 225 436 1308 224 436 1309 230 436 1310 230 437 1311 224 437 1312 228 437 1313 229 438 1314 231 438 1315 228 438 1316 228 439 1317 231 439 1318 232 439 1319 228 440 1320 232 440 1321 230 440 1322 232 441 1323 231 441 1324 233 441 1325 230 442 1326 232 442 1327 234 442 1328 232 443 1329 233 443 1330 235 443 1331 232 444 1332 235 444 1333 234 444 1334 230 445 1335 234 445 1336 236 445 1337 230 446 1338 236 446 1339 226 446 1340 226 447 1341 236 447 1342 234 447 1343 230 448 1344 226 448 1345 225 448 1346 226 449 1347 234 449 1348 237 449 1349 226 450 1350 237 450 1351 209 450 1352 237 451 1353 234 451 1354 235 451 1355 237 452 1356 235 452 1357 211 452 1358 237 453 1359 211 453 1360 210 453 1361 211 454 1362 235 454 1363 214 454 1364 214 455 1365 235 455 1366 238 455 1367 238 456 1368 235 456 1369 233 456 1370 214 457 1371 238 457 1372 216 457 1373 238 458 1374 233 458 1375 239 458 1376 216 459 1377 238 459 1378 240 459 1379 240 460 1380 238 460 1381 239 460 1382 205 461 1383 200 461 1384 241 461 1385 205 462 1386 241 462 1387 242 462 1388 241 463 1389 200 463 1390 199 463 1391 241 464 1392 199 464 1393 243 464 1394 243 465 1395 199 465 1396 196 465 1397 204 466 1398 205 466 1399 222 466 1400 222 467 1401 205 467 1402 244 467 1403 222 468 1404 244 468 1405 245 468 1406 245 469 1407 244 469 1408 205 469 1409 245 470 1410 205 470 1411 242 470 1412 222 471 1413 245 471 1414 221 471 1415 221 472 1416 245 472 1417 219 472 1418 219 473 1419 245 473 1420 246 473 1421 219 474 1422 246 474 1423 229 474 1424 196 475 1425 206 475 1426 243 475 1427 243 476 1428 206 476 1429 213 476 1430 243 477 1431 213 477 1432 247 477 1433 247 478 1434 213 478 1435 215 478 1436 243 479 1437 247 479 1438 241 479 1439 247 480 1440 215 480 1441 248 480 1442 247 481 1443 248 481 1444 241 481 1445 241 482 1446 248 482 1447 242 482 1448 248 483 1449 215 483 1450 249 483 1451 249 484 1452 215 484 1453 217 484 1454 249 485 1455 217 485 1456 216 485 1457 249 486 1458 216 486 1459 240 486 1460 249 487 1461 240 487 1462 248 487 1463 248 488 1464 240 488 1465 250 488 1466 248 489 1467 250 489 1468 251 489 1469 250 490 1470 240 490 1471 239 490 1472 250 491 1473 239 491 1474 251 491 1475 251 492 1476 239 492 1477 233 492 1478 242 493 1479 248 493 1480 251 493 1481 242 494 1482 251 494 1483 245 494 1484 245 495 1485 251 495 1486 246 495 1487 246 496 1488 251 496 1489 233 496 1490 246 497 1491 233 497 1492 231 497 1493 246 498 1494 231 498 1495 229 498 1496 209 499 1497 237 499 1498 210 499 1499</p>
        </polylist>
      </mesh>
    </geometry>
  </library_geometries>
  <library_visual_scenes>
    <visual_scene id="Scene" name="Scene">
      <node id="Catfish" name="Catfish" type="NODE">
        <scale sid="scale">1 1 1</scale>
        <translate sid="location">0 0 0</translate>
        <rotate sid="rotationX">1 0 0 0</rotate>
        <rotate sid="rotationY">0 1 0 -180</rotate>
        <rotate sid="rotationZ">0 0 1 0</rotate>
        <instance_geometry url="#Catfish-mesh" name="Catfish">
          <bind_material>
            <technique_common>
            </technique_common>
          </bind_material>
        </instance_geometry>
      </node>
    </visual_scene>
  </library_visual_scenes>
  <scene>
    <instance_visual_scene url="#Scene"/>
  </scene>
</COLLADA>
