<?xml version="1.0" encoding="utf-8"?>
<COLLADA xmlns="http://www.collada.org/2005/11/COLLADASchema" version="1.4.1" xmlns:xsi="http://www.w3.org/2001/XMLSchema-instance">
  <asset>
    <contributor>
      <author>Blockbench user</author>
      <authoring_tool>Blockbench</authoring_tool>
    </contributor>
    <created>2025-11-21T12:14:20.512Z</created>
    <modified>2025-11-21T12:14:20.512Z</modified>
    <unit name="meter" meter="1.0"/>
    <up_axis>Y_UP</up_axis>
  </asset>
  <library_effects>
  </library_effects>
  <library_images>
  </library_images>
  <library_materials>
  </library_materials>
  <library_geometries>
    <geometry id="Caviar-mesh" name="Caviar">
      <mesh>
        <source id="Caviar-mesh-positions">
          <float_array id="Caviar-mesh-positions-array" count="618">-0.228363 -0.237061 -0.232376 -0.383392 -0.053978 -0.274017 -0.188248 -0.053871 -0.435974 -0.424469 -0.132858 -0.000515 -0.389984 0.112328 -0.307343 -0.491516 0.060413 -0.124657 -0.185089 0.111229 -0.463531 -0.238419 0.236832 -0.399384 -0.437073 0.237061 -0.173935 -0.34668 0.230469 -0.218262 0.001322 -0.182556 -0.385101 0.000852 0.093475 -0.5 0.193405 -0.049885 -0.433777 0.262756 -0.237396 -0.202362 -0.000358 -0.237366 0.000311 -0.018 0.237152 -0.464722 0.172195 0.228271 -0.362488 -0.000178 0.232132 -0.408051 -0.120819 0.186966 -0.37616 -0.305786 0.160065 -0.239594 -0.400116 0.131973 -0.071213 -0.208649 0.135773 -0.33606 -0.346161 0.175293 -0.129227 -0.274231 0.209473 -0.190964 -0.229202 0.208633 -0.266052 -0.304016 0.159302 -0.244843 -0.21521 0.157959 -0.245392 -0.22493 0.210358 -0.26947 -0.203903 0.212311 -0.166977 -0.127441 0.210922 -0.20224 -0.089073 0.20903 -0.304901 -0.213669 0.134903 -0.345795 -0.091408 0.161697 -0.215958 -0.055153 0.207642 -0.193756 -0.035702 0.21373 -0.36615 0.000223 0.186325 -0.307861 -0.000184 0.160095 -0.266052 0.066162 0.184357 -0.387207 0.044895 0.209824 -0.303925 0.115974 0.211014 -0.347382 0.09919 0.165909 -0.303223 -0.103577 0.161713 -0.309021 -0.00017 0.161346 -0.368683 0.000559 0.131973 -0.40271 -0.002119 0.20903 -0.244019 0.001154 0.210022 -0.244675 0.084908 0.196014 -0.244308 -0.170532 0.190125 -0.072227 0.194504 0.156616 -0.346161 -0.306671 -0.236664 -0.000072 -0.264526 -0.236237 0.188492 -0.457031 -0.043076 0.139603 -0.495056 0.112747 -0.000255 -0.42746 0.113731 0.265015 -0.453949 0.235855 0.101845 -0.414062 0.231476 0.004083 -0.330048 0.135834 0.215286 -0.000484 0.132278 -0.000511 -0.2659 0.207138 -0.092842 -0.235703 0.160645 -0.150192 -0.23143 0.164078 -0.050537 -0.169281 0.189224 -0.072624 -0.124603 0.202652 -0.106384 -0.101654 0.177719 -0.004332 -0.350464 0.173996 -0.125717 -0.377167 0.189743 0.000358 -0.353119 0.210602 -0.071678 -0.305786 0.209427 0.244797 -0.317688 0.171356 -0.001951 -0.330963 0.185059 -0.075508 -0.361176 0.181427 0.110817 -0.317444 0.165222 0.100143 -0.266876 0.208588 -0.089493 -0.352356 0.212662 -0.072327 -0.252777 0.207047 -0.00268 -0.312805 0.173111 0.000609 -0.28244 0.208694 0.089661 -0.237091 0.165665 -0.051826 -0.249405 0.160751 0.168549 -0.083862 0.161362 -0.147552 0.00294 0.177353 -0.145355 -0.003716 0.160187 -0.087845 0.056667 0.185959 -0.190872 0.075691 0.208832 -0.081345 0.084785 0.194366 -0.243683 -0.054314 0.203613 -0.094299 0.00098 0.177628 -0.145538 0.000812 0.215378 -0.05909 0.068535 0.163162 -0.069946 -0.349243 -0.086624 0.298248 -0.178314 -0.093666 0.416229 -0.274109 0.109528 0.421417 -0.337372 0.237366 0.325256 -0.217758 0.141968 0.333191 -0.192429 0.161057 0.216965 -0.11747 0.189224 0.303131 -0.314789 0.170563 0.000439 -0.248672 0.163635 0.058659 -0.286682 0.207947 0.093086 -0.338257 0.134064 0.221725 -0.282349 0.210114 0.096146 -0.36264 0.182297 0.113724 -0.241806 0.208328 0.201813 -0.179306 0.205307 0.24617 -0.115685 0.19072 0.299316 -0.204941 0.208466 0.147049 -0.122391 0.208344 0.162354 -0.140152 0.209595 0.066231 -0.249069 0.208069 0.000187 0.296234 -0.236923 0.121696 0.000768 -0.236786 0.321472 -0.012244 -0.138092 0.411896 0.1306 -0.069122 0.444672 -0.00056 0.02718 0.5 0.204636 0.104675 0.462585 -0.000239 0.115211 0.489746 -0.001358 0.234131 0.479095 0.173904 0.236801 0.433899 -0.180176 0.180878 -0.000688 -0.156784 0.167755 0.051601 -0.14859 0.159775 0.151749 -0.206055 0.20845 0.14772 -0.108704 0.161942 0.083862 -0.101883 0.177017 -0.000332 -0.103035 0.163116 0.089561 -0.000723 0.162003 0.146606 -0.070648 0.161789 0.185867 -0.003327 0.205368 0.063377 -0.05349 0.212524 0.141174 -0.001654 0.161438 0.257202 0.054081 0.202972 0.172012 0.074074 0.161026 0.272827 0.10891 0.175659 0.132065 0.105087 0.175598 0.124222 0.057129 0.179001 0.079926 -0.070976 0.204239 0.002251 -0.009506 0.207108 0.060047 -0.060799 0.213165 0.14917 -0.04126 0.207718 0.261658 -0.069267 0.160934 0.185211 0.230438 0.228836 0.323608 0.00066 0.131973 0.404785 -0.068062 0.15416 0.355438 0.00214 0.172989 0.385162 0.135651 0.158447 0.355896 0.140533 0.217422 0.374298 -0.052666 0.212051 0.357361 -0.178406 0.227188 0.359192 -0.070801 0.152939 0.359344 0.000103 0.210388 0.219788 0.000759 0.181152 0.31369 0.072792 0.160339 0.274475 0.091942 0.208267 0.298065 -0.171921 0.225891 0.356903 0.379974 -0.084084 -0.245758 0.337341 0.089264 -0.371826 0.131378 0.108177 -0.481049 0.465576 0.103752 -0.194763 0.257477 0.236374 -0.396423 0.437653 0.236771 -0.157516 0.338928 0.230545 -0.214371 0.305237 0.145645 -0.231949 0.192261 0.157455 -0.345245 0.216904 0.157196 -0.255493 0.142685 0.185181 -0.210541 0.0989 0.165161 -0.303253 0.192551 0.207916 -0.235031 0.177017 0.230209 -0.362793 0.220993 0.159424 -0.252533 0.313721 0.143951 -0.232681 0.371216 0.183167 -0.109413 0.045101 0.210815 -0.303589 0.409302 0.132401 -0.000575 0.332672 0.134491 0.230865 0.412598 0.233459 0.000803 0.462677 0.236069 -0.000344 0.413635 0.237335 0.228867 0.5 0.109917 0.000181 0.480103 -0.046436 -0.002433 0.447571 0.086349 0.250427 0.126358 0.162521 -0.13121 0.219009 0.161163 -0.152832 0.183456 0.206345 -0.08242 0.256622 0.182877 -0.067871 0.249496 0.204941 -0.172836 0.139252 0.208542 -0.127213 0.195526 0.209549 -0.232956 0.310333 0.176208 -0.111931 0.123589 0.160889 -0.130127 0.148819 0.180771 -0.044521 0.369354 0.156769 -0.000366 0.364471 -0.184677 0.098877 0.321625 0.208527 -0.000827 0.375122 0.212646 0.003439 0.299164 0.203964 0.053608 0.341217 0.159698 0.093941 0.254944 0.168045 0.001321 0.139648 0.159897 0.205566 0.201691 0.165543 0.247818 0.29483 0.199585 0.251556 0.164871 0.210297 0.267792 0.09549 0.209381 0.199402 0.141403 0.159515 0.203857 0.314178 -0.082626 0.33783 0.333649 0.115463 0.362579 0.135315 0.157394 0.358459</float_array>
          <technique_common>
            <accessor source="#Caviar-mesh-positions-array" count="206" stride="3">
              <param name="X" type="float"/>
              <param name="Y" type="float"/>
              <param name="Z" type="float"/>
            </accessor>
          </technique_common>
        </source>
        <source id="Caviar-mesh-normals">
          <float_array id="Caviar-mesh-normals-array" count="1260">-0.519159 -0.581971 -0.625926 -0.695556 -0.65575 -0.293588 -0.628534 -0.176698 -0.757445 -0.849052 -0.135957 -0.510516 -0.602246 -0.120204 -0.789209 -0.599098 0.14754 -0.786964 -0.690517 0.390506 -0.608844 0.125746 0.985967 0.1098 -0.28422 -0.684207 -0.671624 -0.013127 -0.384277 -0.923125 0.031424 -0.384055 -0.922775 0.018384 -0.950093 -0.311424 -0.00064 -1 -0.000683 -0.204514 -0.157345 -0.966135 -0.168267 0.214175 -0.962193 -0.267117 0.345935 -0.899432 0.015634 0.998216 0.05763 0.021443 0.998622 0.0479 0.400882 -0.557445 0.727014 0.61043 0.651377 0.450647 0.804677 0.314889 0.503329 -0.867276 -0.425408 -0.258575 -0.582624 0.729866 -0.357554 0.785364 0.407013 0.466416 -0.386196 -0.841543 0.377702 0.445527 0.44073 0.779271 -0.975446 -0.088216 0.201799 0.008565 0.999747 -0.020807 0.005504 0.999851 -0.01637 -0.177153 0.686708 -0.705017 0.808611 0.51031 0.292801 0.124841 0.350098 -0.928357 0.476184 -0.389395 0.788429 -0.183161 0.685473 -0.704683 -0.499781 0.864973 -0.045169 -0.277469 0.945716 -0.16921 0.245082 0.926766 0.284675 -0.209529 0.872013 0.442369 0.314251 0.918929 0.23836 -0.409104 0.838141 -0.360767 -0.220975 0.91544 -0.336363 0.659873 -0.636486 -0.399316 -0.143853 0.913507 0.38054 0.083637 0.104649 -0.990986 -0.179626 -0.93507 -0.305578 -0.231624 -0.110374 -0.966524 -0.010581 -0.99987 -0.012189 0.237965 -0.924836 -0.296734 0.053867 -0.998474 -0.012163 0.303997 0.05296 0.9512 0.247984 -0.863953 -0.438279 -0.254197 0.049635 0.965878 -0.020046 -0.99976 -0.008881 0.534079 0.364566 -0.762792 -0.011118 0.999812 0.015879 0.024264 -0.999508 -0.019887 -0.266525 -0.847927 -0.45824 0.36784 -0.623593 0.6898 -0.160546 -0.953193 0.25622 0.041236 0.994599 0.095249 0.275885 -0.883186 0.379303 0.207068 -0.816654 0.538702 -0.848045 -0.461495 -0.260466 -0.645051 -0.73292 -0.216189 -0.002293 -0.999997 0.000936 -0.002295 -0.999994 0.002777 -0.654186 -0.741733 0.147894 -0.716688 -0.650855 0.250491 -0.960075 -0.275877 -0.046341 -0.957295 -0.275221 0.08854 -0.772104 0.577623 -0.264968 -0.946097 -0.010958 -0.323698 -0.968915 -0.01479 0.246953 -0.962331 0.118321 0.244782 -0.932327 0.357334 -0.05549 0.140351 0.990018 0.012918 0.082744 0.996359 0.020563 0.953423 -0.085308 0.289323 0.924516 0.303774 -0.230199 -0.002927 0.999921 0.012231 0.001694 0.999902 -0.01389 -0.006814 -0.729943 0.683474 -0.011467 -0.380221 -0.924825 0.047916 0.849161 0.525956 0.164822 0.799348 -0.577821 -0.38967 0.919313 0.054962 -0.049834 0.998365 0.027989 0.134749 0.97427 0.180669 0.105902 0.975823 0.191193 0.025241 0.985794 0.166054 0.018232 -0.771955 0.635415 -0.805104 -0.59059 0.054866 -0.113109 -0.989023 0.095083 0.379778 -0.924947 0.015579 0.448087 -0.824357 -0.345911 0.330949 -0.94151 0.063494 0.095318 -0.961851 -0.256431 -0.933122 0.274738 -0.231953 -0.507409 0.858069 0.079076 -0.292834 -0.954452 0.05719 0.864678 -0.442141 -0.238417 -0.296247 -0.954671 -0.028986 0.351593 0.935948 0.019564 0.049544 0.998725 0.009682 0.330232 -0.941275 -0.07034 -0.37249 0.716093 0.590306 -0.491871 0.853262 -0.173224 -0.265838 -0.914575 0.304767 -0.300424 -0.774689 0.556418 0.385532 0.772608 -0.504423 -0.952068 0.002382 -0.305878 0.3548 0.934058 0.040653 -0.13494 0.935117 -0.327638 -0.087068 -0.995834 -0.027071 -0.150079 0.925361 -0.348114 -0.815304 -0.068287 -0.574992 0.176218 -0.975069 0.13486 0.181257 -0.947905 -0.261959 0.26316 -0.95597 0.129879 0.278763 -0.948623 0.149686 0.363382 -0.930536 0.045342 0.223647 -0.857235 0.463822 -0.836071 0.54784 0.029246 -0.52065 -0.504245 0.688957 0.24799 0.925208 0.287211 0.449509 0.892689 0.032371 0.998763 0.04691 -0.016471 -0.280429 0.950257 -0.13554 0.059835 0.914834 -0.399372 0.54082 0.771232 -0.33573 -0.436098 -0.387406 0.812241 -0.198833 -0.439952 0.875733 0.106994 -0.95605 -0.272986 -0.711458 -0.630502 0.310313 -0.435458 -0.679632 0.590319 -0.832142 -0.242105 0.498924 -0.553017 -0.280746 0.784445 -0.706809 -0.161702 0.688675 -0.700861 0.173585 0.691854 -0.817727 0.389222 0.424062 0.04085 0.998771 -0.028071 0.458361 0.879849 -0.125583 0 0 0 0.899802 -0.129583 -0.416611 0 0 0 -0.628005 -0.777551 0.032007 0.120269 -0.983476 -0.135316 0.410735 -0.909784 -0.059912 -0.05612 -0.996914 -0.054898 -0.647967 0.553041 0.523722 -0.39406 -0.871839 -0.290885 0.157655 -0.962737 -0.219734 -0.336477 0.940431 -0.048704 0.73625 0.666136 0.119159 0.65981 -0.739546 -0.133124 -0.929545 -0.099713 0.354969 -0.537775 -0.423711 0.72888 -0.654496 -0.226786 0.721251 0.031474 0.999223 0.023705 0.013606 0.999839 0.011679 -0.004651 0.999443 0.033055 0.007924 0.999762 0.020318 -0.171345 0.540306 -0.823839 -0.354405 0.743353 0.567295 -0.000611 -0.999987 0.005142 -0.001386 -0.999998 -0.001364 -0.294658 -0.75583 0.58472 -0.162705 -0.678114 0.71672 0.147903 -0.657439 0.73885 -0.100733 -0.46247 0.880894 0.025496 -0.471668 0.881408 0.249613 -0.203901 0.946635 -0.320076 -0.174673 0.93115 0.136331 0.114129 0.984067 -0.242729 0.113113 0.963477 -0.242859 0.084269 0.966395 -0.371665 0.433567 0.820905 0.247455 0.088743 0.964827 -0.306785 -0.758802 -0.574545 0.023897 -0.967067 -0.253396 0.04279 -0.998748 -0.025926 -0.039021 -0.998888 -0.026476 -0.022577 -0.996731 -0.077574 -0.007212 -0.999864 0.014807 0.582901 0.719427 0.377691 -0.171178 -0.121157 0.977762 -0.070981 -0.994769 -0.073458 -0.000712 -0.984336 -0.176304 0.753681 -0.499754 0.426862 -0.171178 -0.121157 0.977762 -0.003933 -0.999915 -0.012455 0.243872 -0.856918 -0.454112 0.630998 0.695913 0.342851 0.000193 -0.999987 -0.005107 0.598465 -0.801149 0.000945 0.076717 -0.915064 -0.395944 -0.559291 -0.798842 -0.221458 0.231232 -0.717069 0.657528 0.089579 -0.980955 -0.172345 0.306833 0.794287 -0.524368 0.046653 0.907544 -0.417358 0.792699 0.585693 0.16909 -0.572846 -0.588959 -0.570065 0.01585 0.997668 -0.066382 0.331789 -0.89144 -0.308629 0.046998 0.973611 0.223323 -0.000968 0.999913 0.013192 0.019477 0.999766 0.009413 0.454811 -0.729646 0.510651 0.706482 0.669879 -0.228354 0.182076 -0.812767 0.553406 0.193558 0.605147 0.772226 0.480303 -0.866728 -0.134506 -0.049715 0.990285 0.129862 -0.18363 0.979788 0.07934 0.944749 -0.275612 -0.177447 -0.449015 0.555644 0.699747 0.090085 0.98645 -0.137115 0.085514 -0.995896 -0.02963 0.011261 0.999936 0.000721 0.125051 0.984794 0.120598 -0.169995 -0.97243 0.159632 -0.330468 -0.898179 -0.289941 0.156997 -0.745341 -0.647935 0.226099 -0.970737 0.080925 -0.024108 -0.995597 0.090588 -0.09897 -0.994182 0.042498 0.171863 -0.306371 0.936269 -0.376561 0.304205 -0.87502 -0.257634 0.96338 -0.074323 0.101151 0.893231 -0.438073 0.017928 0.028028 0.999446 -0.364906 0.142813 0.920026 0.293874 -0.951469 -0.091352 0.167014 -0.968331 -0.185582 0.231274 0.929365 0.287738 0.400007 0.875869 0.269904 -0.646007 -0.113422 0.754858 0.51423 0.857358 0.022469 0.549621 0.831149 0.084308 -0.265087 0.957406 0.11447 -0.299341 0.951068 0.076585 0.10885 0.970005 -0.217352 0.313997 0.095399 -0.944619 -0.023968 0.999137 -0.03392 -0.013839 0.996772 -0.079079 -0.012867 -0.97036 -0.241319 0.040448 -0.393842 -0.918288 0.311484 -0.690492 -0.652839 0.524321 -0.577903 -0.625393 0.633339 -0.347213 -0.69161 0.460885 -0.083379 -0.883534 0.799668 -0.211907 -0.561807 0.473544 0.110989 -0.873749 0.756333 0.314711 -0.573513 0.75651 0.31871 -0.571065 -0.108783 0.990809 0.080394 -0.069532 0.995589 0.062986 -0.034322 0.988137 0.149692 -0.661037 0.108601 0.742452 -0.709334 -0.029514 0.704254 -0.21659 0.924932 0.312394 -0.301661 0.144007 0.942477 0.164601 -0.222777 -0.960873 0.068694 0.501673 -0.862326 0.233021 0.260618 -0.936899 0.017934 0.999839 -0.000712 -0.04434 0.999016 -0.000873 -0.420371 0.85159 -0.313183 0.163322 0.979575 0.117298 0.220494 0.912201 -0.345357 -0.38315 -0.569447 -0.727274 0.408124 0.604531 0.684089 -0.084803 -0.996023 0.027322 0.307711 0.947933 -0.082085 -0.527491 0.823738 0.207868 0.86001 0.51004 -0.015568 0.027219 0.846102 0.532326 0.232401 0.890289 -0.39163 0.38436 0.446988 -0.807755 -0.186164 0.879693 0.437588 -0.000291 0.998358 0.057277 -0.000302 0.999958 -0.00913 -0.874327 0.262431 0.408267 -0.948633 0.035227 -0.314411 -0.945865 0.026438 0.323482 -0.051949 0.998641 0.004262 -0.072065 0.997273 0.015928 -0.052422 0.998485 -0.016731 0.958003 0.243507 -0.15144 0.939418 0.278764 0.199458 0.944221 0.278624 -0.175546 0.978103 -0.121647 -0.16887 0.892415 -0.32046 -0.317649 0.973152 -0.127049 0.19192 -0.33384 -0.879362 0.33952 -0.184107 -0.941531 0.282179 0.004185 -0.961762 -0.273855 -0.132654 -0.965445 -0.224318 -0.081472 -0.953793 -0.289208 0.123385 -0.805714 0.579311 -0.349883 -0.858737 0.374369 0.267617 0.946416 0.180772 0.037575 0.999223 0.011929 0.046864 0.998307 0.034447 0.737893 0.188953 -0.647928 0.537223 0.802101 -0.260818 -0.863867 -0.50365 -0.008406 0.128641 -0.843649 -0.521256 -0.167459 -0.985782 0.013862 0.042979 -0.964927 0.258975 -0.699395 0.274319 0.659997 0.690077 -0.2752 -0.669372 0.602369 -0.798128 0.011951 -0.294663 0.895074 0.334689 -0.52692 -0.793824 0.303642 -0.476507 0.815315 0.328942 0.202278 0.81037 -0.549895 -0.175842 -0.979025 -0.102903 0.018578 -0.983279 -0.181154 0.000936 -0.999999 0.001363 0.694285 -0.716221 -0.07068 0.747146 -0.630654 -0.209876 0.364885 -0.729334 -0.578733 0.828918 -0.444234 0.339927 0.061033 -0.973201 0.221707 0.266013 0.94683 0.180968 0.099077 -0.960671 0.259412 -0.098407 0.958178 -0.268722 -0.054437 0.966559 -0.250599 0.994738 -0.102156 -0.007745 -0.080648 0.995479 0.050169 0.950592 -0.117688 0.287269 0.281504 0.778528 0.560937 -0.732962 -0.080887 0.675444 -0.162091 -0.976559 -0.141633 -0.866351 0.269946 0.420196 -0.336518 -0.925978 0.171234 -0.168189 0.952137 0.255241 0.047671 -0.996861 0.063208 0.331844 -0.867143 -0.371407 0.025553 -0.998425 -0.049939 0.632565 -0.695467 0.340861 0.361022 0.920724 0.148093 0.51795 0.6059 0.603832 -0.023491 0.999669 0.010442 0.604204 0.500947 -0.619669 0.353809 -0.774882 0.52381 0.315437 -0.7083 0.631514 0.636758 -0.651578 0.412293 0.466403 -0.284994 0.837405 0.813278 -0.453337 0.364781 0.647608 -0.122206 0.75211 0.575429 -0.429489 0.696003 0.396089 0.902712 0.168001 0.07736 0.975689 0.20505 0.354828 -0.080359 0.931472 0.013069 0.999845 0.011759 0.098784 -0.724989 -0.68164 -0.801415 0.026105 0.597539 0.212451 0.96925 -0.124174 -0.141699 0.989499 -0.028512 -0.108557 0.974543 -0.196168 0.374375 0.654274 -0.657092 -0.564968 -0.458921 0.685713 0.018426 -0.990654 0.135151 -0.373459 0.60386 -0.704189 -0.007179 0.999974 0.000773 -0.489692 0.280789 -0.825445 -0.27028 -0.80781 0.523824 -0.716957 -0.561882 -0.412628 -0.831058 -0.344281 -0.436821 0.16971 0.386778 -0.906422 -0.054961 0.998349 -0.016717 -0.112272 0.985307 -0.128706 0.899707 -0.135106 0.415059 0.601306 0.377809 0.704053 -0.265366 0.787172 -0.556723 -0.001446 0.529225 0.84848 -0.084477 0.975363 0.203791 0.075087 -0.997121 0.010593 0.056801 0.842175 -0.536204 0.098058 0.995179 -0.001652 -0.069341 -0.793931 0.604041 0.690258 0.639541 0.338424 0.710592 0.652942 -0.262155 -0.034668 0.686145 0.726638 0.228786 -0.897213 -0.37771 -0.196573 0.941369 0.274197 -0.490445 -0.734118 0.469612 0.787249 -0.616518 -0.012062 0.198603 0.041076 0.979219 0.782174 0.616554 -0.089811 0.437455 -0.866518 -0.240373 0.248297 -0.108404 0.962599 -0.274139 0.038663 -0.960913 0.293814 -0.950608 -0.100087 0.164613 0.933532 -0.318466 0.027599 -0.962423 0.270147 0.33368 0.94267 -0.00559 0.586962 0.688546 -0.425887 -0.588115 0.801989 0.104569 -0.106519 0.959762 0.259827 -0.085608 -0.981032 0.17392 0.046454 0.988266 -0.145507 0.42249 0.818409 -0.389499 0.011248 0.999807 -0.016083 -0.288665 -0.954419 -0.075879 -0.392773 0.911547 -0.121703 0.42695 -0.895888 0.122878 -0.052015 0.970814 0.234126 0.048894 -0.979634 0.19475 0.036511 -0.916291 -0.398845 -0.189222 -0.981824 0.014712 0.167004 0.91006 -0.379341 -0.381494 0.907793 -0.17428 -0.378661 -0.547245 0.746417 0.955553 -0.257332 -0.143871 -0.144107 0.954704 0.260332 -0.27664 -0.630396 0.725308</float_array>
          <technique_common>
            <accessor source="#Caviar-mesh-normals-array" count="420" stride="3">
              <param name="X" type="float"/>
              <param name="Y" type="float"/>
              <param name="Z" type="float"/>
            </accessor>
          </technique_common>
        </source>
        <source id="Caviar-mesh-map-0">
          <float_array id="Caviar-mesh-map-0-array" count="2520">0.285889 0.703369 0.371582 0.724609 0.293945 0.800537 0.371582 0.724609 0.285889 0.703369 0.345703 0.626709 0.293945 0.800537 0.371582 0.724609 0.406006 0.779785 0.406006 0.779785 0.371582 0.724609 0.422607 0.732178 0.293945 0.800537 0.406006 0.779785 0.331299 0.854736 0.331299 0.854736 0.406006 0.779785 0.39209 0.860107 0.39209 0.860107 0.406006 0.779785 0.466064 0.813477 0.39209 0.860107 0.466064 0.813477 0.461426 0.842041 0.03418 0.648193 0.000977 0.561279 0.079834 0.56543 0.079834 0.56543 0.000977 0.561279 0.024902 0.481201 0.079834 0.56543 0.024902 0.481201 0.108154 0.490234 0.03418 0.648193 0.079834 0.56543 0.187256 0.584473 0.03418 0.648193 0.187256 0.584473 0.137695 0.684814 0.733154 0.724121 0.78833 0.689209 0.768799 0.770996 0.78833 0.689209 0.733154 0.724121 0.741211 0.654053 0.741211 0.654053 0.733154 0.724121 0.682373 0.709473 0.741211 0.654053 0.682373 0.709473 0.731689 0.582275 0.010498 0.638916 0.099609 0.705811 0.092773 0.804199 0.010498 0.638916 0.092773 0.804199 0.013428 0.700928 0.847656 0.351074 0.835449 0.419678 0.835449 0.302979 0.835449 0.419678 0.847656 0.351074 0.873779 0.365967 0.873779 0.365967 0.847656 0.351074 0.884277 0.330078 0.725342 0.90625 0.759277 0.88623 0.737061 0.922607 0.759277 0.88623 0.725342 0.90625 0.73999 0.878906 0.73999 0.878906 0.725342 0.90625 0.67334 0.920898 0.759277 0.88623 0.73999 0.878906 0.762451 0.883789 0.762451 0.883789 0.73999 0.878906 0.752197 0.834717 0.762451 0.883789 0.752197 0.834717 0.780029 0.816895 0.762451 0.883789 0.780029 0.816895 0.827637 0.850342 0.762451 0.883789 0.827637 0.850342 0.825928 0.922607 0.827637 0.850342 0.780029 0.816895 0.806641 0.795898 0.806641 0.795898 0.780029 0.816895 0.788818 0.777832 0.941162 0.804443 0.915771 0.834717 0.915039 0.735107 0.941162 0.804443 0.915039 0.735107 0.950439 0.76709 0.358887 0.87085 0.408203 0.887207 0.380859 0.90625 0.380859 0.90625 0.408203 0.887207 0.426025 0.911377 0.426025 0.911377 0.408203 0.887207 0.458252 0.9021 0.347656 0.937988 0.380859 0.90625 0.396729 0.966064 0.426025 0.911377 0.458252 0.9021 0.456787 0.935303 0.456787 0.935303 0.458252 0.9021 0.475342 0.913574 0.456787 0.935303 0.475342 0.913574 0.473877 0.951904 0.456787 0.935303 0.473877 0.951904 0.445068 0.970215 0.396729 0.966064 0.380859 0.90625 0.397461 0.931396 0.43335 0.932617 0.380859 0.90625 0.426025 0.911377 0.380859 0.90625 0.43335 0.932617 0.397461 0.931396 0.43335 0.932617 0.426025 0.911377 0.456787 0.935303 0.397461 0.931396 0.43335 0.932617 0.396729 0.966064 0.43335 0.932617 0.456787 0.935303 0.445068 0.970215 0.43335 0.932617 0.445068 0.970215 0.396729 0.966064 0.855713 0.27417 0.790771 0.204834 0.799805 0.167725 0.855713 0.27417 0.799805 0.167725 0.864746 0.213379 0.799805 0.167725 0.790771 0.204834 0.736084 0.183105 0.799805 0.167725 0.736084 0.183105 0.870117 0.101318 0.612305 0.205322 0.596924 0.189697 0.641846 0.178955 0.612305 0.205322 0.641846 0.178955 0.634766 0.218994 0.634766 0.218994 0.641846 0.178955 0.662842 0.218994 0.641846 0.178955 0.596924 0.189697 0.594971 0.157959 0.594971 0.157959 0.596924 0.189697 0.572998 0.169434 0.662842 0.218994 0.641846 0.178955 0.693848 0.231201 0.693848 0.231201 0.641846 0.178955 0.719971 0.111572 0.693848 0.231201 0.719971 0.111572 0.735596 0.213379 0.693848 0.231201 0.735596 0.213379 0.723389 0.290283 0.900391 0.973145 0.957764 0.893799 0.974121 0.973633 0.19873 0.712402 0.287109 0.776855 0.204346 0.765625 0.204346 0.765625 0.287109 0.776855 0.223877 0.868164 0.204346 0.765625 0.223877 0.868164 0.141113 0.783203 0.204346 0.765625 0.141113 0.783203 0.19873 0.712402 0.19873 0.712402 0.141113 0.783203 0.145996 0.688965 0.19873 0.712402 0.145996 0.688965 0.18335 0.626709 0.275391 0.227051 0.223877 0.230713 0.273682 0.190186 0.275391 0.227051 0.273682 0.190186 0.333252 0.263916 0.333252 0.263916 0.273682 0.190186 0.34375 0.206543 0.219727 0.15918 0.24707 0.108887 0.273682 0.190186 0.273682 0.190186 0.24707 0.108887 0.302246 0.139893 0.273682 0.190186 0.302246 0.139893 0.34375 0.206543 0.34375 0.206543 0.302246 0.139893 0.324951 0.148438 0.34375 0.206543 0.324951 0.148438 0.368652 0.205811 0.368652 0.205811 0.324951 0.148438 0.365723 0.163086 0.365723 0.163086 0.324951 0.148438 0.395508 0.106445 0.634766 0.843262 0.675049 0.966553 0.515381 0.94458 0.713623 0.300049 0.831787 0.261719 0.827637 0.427734 0.416748 0.015381 0.426025 0.048096 0.398682 0.04126 0.416748 0.015381 0.398682 0.04126 0.397705 0.008545 0.316162 0.334473 0.353516 0.312012 0.35498 0.355957 0.366699 0.277832 0.388184 0.315674 0.353516 0.312012 0.353516 0.312012 0.316162 0.334473 0.31958 0.280273 0.353516 0.312012 0.31958 0.280273 0.366699 0.277832 0.366699 0.277832 0.31958 0.280273 0.359131 0.255615 0.366699 0.277832 0.359131 0.255615 0.399658 0.267822 0.399658 0.267822 0.359131 0.255615 0.433838 0.239258 0.31958 0.280273 0.316162 0.334473 0.283447 0.297607 0.31958 0.280273 0.283447 0.297607 0.289551 0.263672 0.283447 0.297607 0.316162 0.334473 0.279541 0.340576 0.289551 0.263672 0.283447 0.297607 0.255615 0.256592 0.283447 0.297607 0.279541 0.340576 0.241699 0.265869 0.283447 0.297607 0.241699 0.265869 0.255615 0.256592 0.255615 0.256592 0.241699 0.265869 0.214111 0.233154 0.536621 0.112793 0.574219 0.107178 0.554688 0.119385 0.554688 0.119385 0.574219 0.107178 0.648682 0.117676 0.574219 0.107178 0.536621 0.112793 0.566895 0.090332 0.566895 0.090332 0.536621 0.112793 0.546875 0.100342 0.574219 0.107178 0.566895 0.090332 0.602539 0.090332 0.574219 0.107178 0.602539 0.090332 0.608887 0.102783 0.348877 0.09375 0.32373 0.141602 0.300781 0.074707 0.348877 0.09375 0.300781 0.074707 0.363037 0.060791 0.300781 0.074707 0.32373 0.141602 0.275146 0.111572 0.300781 0.074707 0.275146 0.111572 0.246094 0.0625 0.17749 0.243652 0.174805 0.170166 0.200439 0.217285 0.200439 0.217285 0.174805 0.170166 0.213623 0.159912 0.174805 0.170166 0.17749 0.243652 0.135986 0.233398 0.213623 0.159912 0.174805 0.170166 0.226807 0.104004 0.174805 0.170166 0.135986 0.233398 0.062744 0.101562 0.226807 0.104004 0.174805 0.170166 0.168701 0.114502 0.174805 0.170166 0.062744 0.101562 0.166016 0.113037 0.174805 0.170166 0.166016 0.113037 0.168701 0.114502 0.934082 0.529541 0.893799 0.578857 0.891113 0.54126 0.893799 0.578857 0.934082 0.529541 0.935791 0.584473 0.893799 0.578857 0.935791 0.584473 0.919189 0.599609 0.935791 0.584473 0.934082 0.529541 0.96167 0.565186 0.935791 0.584473 0.96167 0.565186 0.96875 0.609131 0.96167 0.565186 0.934082 0.529541 0.973633 0.540527 0.973633 0.540527 0.934082 0.529541 0.974365 0.509277 0.693848 0.033691 0.662354 0.057373 0.664795 0.029053 0.693848 0.033691 0.664795 0.029053 0.697998 0.007568 0.487793 0.969727 0.5271 0.997559 0.494141 0.999756 0.487793 0.969727 0.494141 0.999756 0.455566 0.996094 0.5271 0.997559 0.487793 0.969727 0.54126 0.984619 0.54126 0.984619 0.487793 0.969727 0.480225 0.922119 0.911621 0.182129 0.929443 0.203125 0.897949 0.228516 0.897949 0.228516 0.929443 0.203125 0.954102 0.229492 0.929443 0.203125 0.911621 0.182129 0.949463 0.188232 0.929443 0.203125 0.949463 0.188232 0.954102 0.229492 0.954102 0.229492 0.949463 0.188232 0.975586 0.181396 0.49707 0.356445 0.521729 0.428467 0.468994 0.441895 0.521729 0.428467 0.49707 0.356445 0.579102 0.405029 0.468994 0.441895 0.521729 0.428467 0.493896 0.503662 0.521729 0.428467 0.579102 0.405029 0.569824 0.485352 0.521729 0.428467 0.569824 0.485352 0.493896 0.503662 0.493896 0.503662 0.569824 0.485352 0.545654 0.542969 0.493896 0.503662 0.545654 0.542969 0.455322 0.567383 0.455322 0.567383 0.545654 0.542969 0.449463 0.606934 0.449463 0.606934 0.545654 0.542969 0.536377 0.62915 0.449463 0.606934 0.528809 0.656494 0.528809 0.656494 0.449463 0.606934 0.528809 0.656494 0.508057 0.666748 0.536377 0.62915 0.536377 0.62915 0.570557 0.671631 0.570557 0.671631 0.536377 0.62915 0.575928 0.633057 0.570557 0.671631 0.575928 0.633057 0.598145 0.678467 0.570557 0.671631 0.598145 0.678467 0.586914 0.704102 0.089355 0.042969 0.120117 0.000488 0.148682 0.039062 0.893311 0.873291 0.880127 0.844727 0.958008 0.844238 0.595215 0.014648 0.569336 0.046143 0.578125 0.007324 0.569336 0.046143 0.595215 0.014648 0.60376 0.045654 0.344727 0.056396 0.372559 0.019531 0.388916 0.044922 0.372559 0.019531 0.344727 0.056396 0.341309 0.022461 0.344727 0.056396 0.388916 0.044922 0.422852 0.05542 0.74707 0.63916 0.764893 0.62207 0.772949 0.668945 0.764893 0.62207 0.74707 0.63916 0.753662 0.591553 0.753662 0.591553 0.74707 0.63916 0.738037 0.559814 0.764893 0.62207 0.753662 0.591553 0.790039 0.633789 0.764893 0.62207 0.790039 0.633789 0.772949 0.668945 0.790039 0.633789 0.753662 0.591553 0.804443 0.601562 0.772949 0.668945 0.790039 0.633789 0.830811 0.649414 0.772949 0.668945 0.830811 0.649414 0.796631 0.685547 0.796631 0.685547 0.830811 0.649414 0.82251 0.702393 0.564941 0.873291 0.476074 0.849854 0.485107 0.781738 0.564941 0.873291 0.485107 0.781738 0.581299 0.793213 0.564941 0.873291 0.581299 0.793213 0.633057 0.837158 0.633057 0.837158 0.581299 0.793213 0.616211 0.791016 0.616211 0.791016 0.581299 0.793213 0.630859 0.746582 0.633057 0.837158 0.616211 0.791016 0.662842 0.779541 0.662842 0.779541 0.616211 0.791016 0.630859 0.746582 0.662842 0.779541 0.630859 0.746582 0.674316 0.726074 0.633057 0.837158 0.662842 0.779541 0.692871 0.851318 0.662842 0.779541 0.674316 0.726074 0.686523 0.773438 0.662842 0.779541 0.686523 0.773438 0.692871 0.851318 0.692871 0.851318 0.686523 0.773438 0.718262 0.777588 0.692871 0.851318 0.718262 0.777588 0.735352 0.874268 0.718262 0.777588 0.686523 0.773438 0.735352 0.748291 0.879883 0.996826 0.847656 0.952393 0.891357 0.954346 0.11792 0.96582 0.157471 0.994629 0.108643 0.995605 0.783203 0.060791 0.804199 0.019531 0.840088 0.033936 0.804199 0.019531 0.783203 0.060791 0.770508 0.022217 0.783203 0.060791 0.840088 0.033936 0.824463 0.073486 0.783203 0.060791 0.824463 0.073486 0.795654 0.089844 0.795654 0.089844 0.824463 0.073486 0.828125 0.10498 0.828125 0.10498 0.824463 0.073486 0.848145 0.075439 0.876221 0.752197 0.902344 0.770264 0.880859 0.804688 0.902344 0.770264 0.876221 0.752197 0.908691 0.727051 0.880859 0.804688 0.902344 0.770264 0.908691 0.817627 0.880859 0.804688 0.908691 0.817627 0.871582 0.841797 0.931396 0.095703 0.952393 0.108643 0.940918 0.118164 0.952393 0.108643 0.931396 0.095703 0.946289 0.086426 0.952393 0.108643 0.946289 0.086426 0.966553 0.090088 0.940918 0.118164 0.952393 0.108643 0.954834 0.139404 0.954834 0.139404 0.952393 0.108643 0.979004 0.120117 0.954834 0.139404 0.979004 0.120117 0.973633 0.154541 0.973633 0.154541 0.979004 0.120117 0.993652 0.129395 0.979004 0.120117 0.952393 0.108643 0.991943 0.105957 0.991943 0.105957 0.952393 0.108643 0.982422 0.092773 0.742432 0.419922 0.782471 0.39502 0.760498 0.466309 0.742432 0.419922 0.760498 0.466309 0.709717 0.443848 0.709717 0.443848 0.760498 0.466309 0.709717 0.51123 0.709717 0.51123 0.760498 0.466309 0.75415 0.509766 0.75415 0.509766 0.760498 0.466309 0.790283 0.55542 0.75415 0.509766 0.790283 0.55542 0.709717 0.51123 0.733887 0.046631 0.733887 0.006104 0.763184 0.035645 0.90332 0.061523 0.879883 0.009277 0.921143 0.011719 0.90332 0.061523 0.921143 0.011719 0.974365 0.06543 0.974365 0.06543 0.921143 0.011719 0.969482 0.004395 0.937012 0.130859 0.895996 0.166016 0.899658 0.119385 0.899658 0.119385 0.895996 0.166016 0.867432 0.128662 0.937012 0.130859 0.899658 0.119385 0.914307 0.068115 0.914307 0.068115 0.899658 0.119385 0.852539 0.060791 0.876221 0.672852 0.861816 0.704346 0.863281 0.663818 0.863281 0.663818 0.861816 0.704346 0.8479 0.687988 0.863281 0.663818 0.8479 0.687988 0.847412 0.664551 0.863281 0.663818 0.847412 0.664551 0.848389 0.580078 0.053467 0.939697 0.004883 0.879639 0.104004 0.960449 0.053467 0.939697 0.104004 0.960449 0.004395 0.953369 0.844727 0.294678 0.926758 0.235107 0.931641 0.33374 0.949219 0.337158 0.90625 0.396484 0.905029 0.342773 0.860596 0.13916 0.867432 0.202148 0.817139 0.162109 0.867432 0.202148 0.860596 0.13916 0.901367 0.181641 0.867432 0.202148 0.901367 0.181641 0.886963 0.255615 0.551514 0.883301 0.522461 0.927979 0.519287 0.874023 0.519287 0.874023 0.522461 0.927979 0.487305 0.919189 0.519287 0.874023 0.487305 0.919189 0.461426 0.881104 0.519287 0.874023 0.461426 0.881104 0.465576 0.852295 0.465576 0.852295 0.461426 0.881104 0.403076 0.864014 0.189453 0.25 0.168945 0.288818 0.147461 0.246094 0.168945 0.288818 0.189453 0.25 0.22998 0.273438 0.168945 0.288818 0.22998 0.273438 0.181641 0.31665 0.168945 0.288818 0.181641 0.31665 0.14209 0.312988 0.14209 0.312988 0.181641 0.31665 0.180664 0.319092 0.180664 0.319092 0.181641 0.31665 0.32251 0.360352 0.4646 0.01709 0.491943 0.016602 0.48999 0.049072 0.4646 0.01709 0.48999 0.049072 0.454834 0.060303 0.4646 0.01709 0.454834 0.060303 0.431152 0.054688 0.764893 0.041748 0.755615 0.080078 0.736572 0.053955 0.736572 0.053955 0.755615 0.080078 0.725098 0.085693 0.736572 0.053955 0.725098 0.085693 0.695312 0.040771 0.695312 0.040771 0.725098 0.085693 0.66626 0.06665 0.022949 0.457031 0.001221 0.538086 0.003906 0.354736 0.857422 0.416992 0.899902 0.325928 0.900635 0.440186 0.780518 0.467041 0.840088 0.427246 0.796143 0.553223 0.796143 0.553223 0.840088 0.427246 0.895996 0.445801 0.796143 0.553223 0.895996 0.445801 0.896729 0.491943 0.796143 0.553223 0.896729 0.491943 0.882812 0.553467 0.347168 0.4104 0.46582 0.387939 0.442871 0.470459 0.347168 0.4104 0.442871 0.470459 0.343994 0.485596 0.343994 0.485596 0.442871 0.470459 0.393799 0.538086 0.393799 0.538086 0.442871 0.470459 0.464111 0.530762 0.343994 0.485596 0.393799 0.538086 0.315918 0.548828 0.393799 0.538086 0.464111 0.530762 0.434326 0.592041 0.393799 0.538086 0.434326 0.592041 0.315918 0.548828 0.315918 0.548828 0.434326 0.592041 0.311279 0.602295 0.311279 0.602295 0.434326 0.592041 0.352295 0.623291 0.352295 0.623291 0.434326 0.592041 0.4375 0.627197 0.4375 0.627197 0.434326 0.592041 0.475342 0.67041 0.352295 0.623291 0.4375 0.627197 0.363037 0.652832 0.363037 0.652832 0.4375 0.627197 0.419434 0.649658 0.363037 0.652832 0.419434 0.649658 0.47168 0.680908 0.47168 0.680908 0.419434 0.649658 0.4375 0.627197 0.903076 0.896729 0.849854 0.888672 0.855957 0.835449 0.849854 0.888672 0.903076 0.896729 0.820068 0.947266 0.820068 0.947266 0.903076 0.896729 0.910889 0.947998 0.005127 0.874512 0.005127 0.700439 0.099121 0.85083 0.388184 0.14209 0.560303 0.14209 0.460938 0.272949 0.984619 0.804932 0.953613 0.799316 0.980469 0.782227 0.980469 0.782227 0.953613 0.799316 0.956055 0.76123 0.953613 0.799316 0.984619 0.804932 0.933594 0.826904 0.311279 0.949463 0.291016 0.981445 0.279053 0.961182 0.311279 0.949463 0.279053 0.961182 0.252197 0.947754 0.291016 0.981445 0.311279 0.949463 0.335938 0.972168 0.335938 0.972168 0.311279 0.949463 0.364258 0.955566 0.128174 0.9646 0.092285 0.938477 0.136475 0.923096 0.136475 0.923096 0.092285 0.938477 0.087158 0.917969 0.136475 0.923096 0.087158 0.917969 0.071045 0.887207 0.071045 0.887207 0.087158 0.917969 0.020264 0.883545 0.844482 0.00708 0.875244 0.003174 0.846436 0.055908 0.846436 0.055908 0.875244 0.003174 0.875 0.056641 0.682861 0.687988 0.647705 0.558838 0.725098 0.564453 0.647705 0.558838 0.682861 0.687988 0.591797 0.597656 0.725098 0.564453 0.647705 0.558838 0.711426 0.531982 0.647705 0.558838 0.591797 0.597656 0.618652 0.522217 0.647705 0.558838 0.618652 0.522217 0.711426 0.531982 0.711426 0.531982 0.618652 0.522217 0.632324 0.501709 0.711426 0.531982 0.632324 0.501709 0.694092 0.497314 0.632324 0.501709 0.618652 0.522217 0.574219 0.493896 0.694092 0.497314 0.632324 0.501709 0.69873 0.449463 0.632324 0.501709 0.574219 0.493896 0.619141 0.453613 0.632324 0.501709 0.619141 0.453613 0.69873 0.449463 0.69873 0.449463 0.619141 0.453613 0.636719 0.401367 0.69873 0.449463 0.636719 0.401367 0.735352 0.382812 0.636719 0.401367 0.619141 0.453613 0.574463 0.385254 0.976562 0.72876 0.947998 0.725586 0.945312 0.696777 0.976562 0.72876 0.945312 0.696777 1 0.697266 0.947998 0.725586 0.976562 0.72876 0.984863 0.763672 0.947998 0.725586 0.984863 0.763672 0.946289 0.751465 0.038818 0.317871 0.068359 0.357666 0.034424 0.359375 0.034424 0.359375 0.068359 0.357666 0.04834 0.398193 0.04834 0.398193 0.068359 0.357666 0.077881 0.398193 0.04834 0.398193 0.077881 0.398193 0.067871 0.468994 0.04834 0.398193 0.067871 0.468994 0.023438 0.424072 0.023438 0.424072 0.067871 0.468994 0.032959 0.476562 0.032959 0.476562 0.067871 0.468994 0.107178 0.477783 0.064941 0.980713 0.111084 0.96582 0.100342 0.999756 0.025391 0.011475 0.044189 0.054932 0.007324 0.031982 0.007324 0.031982 0.044189 0.054932 0.000244 0.061035 0.044189 0.054932 0.025391 0.011475 0.072998 0.007324 0.044189 0.054932 0.072998 0.007324 0.089844 0.063477 0.220703 0.072998 0.22583 0.029785 0.240967 0.070312 0.220703 0.072998 0.240967 0.070312 0.237549 0.114014 0.164551 0.375977 0.187256 0.406982 0.164551 0.405273 0.164551 0.405273 0.187256 0.406982 0.151367 0.435791 0.164551 0.375977 0.164551 0.405273 0.113281 0.384766 0.113281 0.384766 0.164551 0.405273 0.151367 0.435791 0.113281 0.384766 0.151367 0.435791 0.150391 0.515137 0.150391 0.515137 0.151367 0.435791 0.205078 0.469727 0.113281 0.384766 0.150391 0.515137 0.112549 0.565186 0.20459 0.451416 0.314209 0.466553 0.250244 0.554688 0.314209 0.466553 0.20459 0.451416 0.291748 0.369873 0.291748 0.369873 0.20459 0.451416 0.202637 0.384277 0.314209 0.466553 0.291748 0.369873 0.314209 0.436279 0.314209 0.436279 0.291748 0.369873 0.388428 0.356445 0.613037 0.024902 0.63916 0.008301 0.629883 0.040039 0.613037 0.024902 0.629883 0.040039 0.607666 0.059326 0.930908 0.985352 0.886963 0.999756 0.890381 0.97998 0.256592 0.0354 0.294189 0.033447 0.263428 0.056396 0.263428 0.056396 0.294189 0.033447 0.29834 0.050049 0.263428 0.056396 0.29834 0.050049 0.299072 0.068604 0.29834 0.050049 0.294189 0.033447 0.312744 0.027832 0.299072 0.068604 0.29834 0.050049 0.329102 0.051025 0.329102 0.051025 0.29834 0.050049 0.312744 0.027832 0.329102 0.051025 0.312744 0.027832 0.331543 0.012451 0.062988 0.089844 0.04248 0.061035 0.091064 0.077148 0.062988 0.089844 0.091064 0.077148 0.093994 0.077148 0.093994 0.077148 0.091064 0.077148 0.114014 0.068604 0.062988 0.089844 0.093994 0.077148 0.116943 0.074951 0.04248 0.061035 0.062988 0.089844 0.036865 0.104736 0.036865 0.104736 0.062988 0.089844 0.029541 0.145508 0.04248 0.061035 0.036865 0.104736 0.000732 0.06665 0.000732 0.06665 0.036865 0.104736 0.000488 0.095947 0.936523 0.332275 0.936768 0.310059 0.954102 0.332764 0.954102 0.332764 0.936768 0.310059 0.955078 0.311035 0.974609 0.669922 0.94458 0.654785 0.976562 0.642822 0.94458 0.654785 0.974609 0.669922 0.946289 0.677979 0.635986 0.30249 0.726318 0.378418 0.606201 0.387207 0.726318 0.378418 0.635986 0.30249 0.70752 0.297852 0.635986 0.30249 0.606201 0.387207 0.580322 0.372314 0.70752 0.297852 0.635986 0.30249 0.688721 0.236572 0.635986 0.30249 0.580322 0.372314 0.567139 0.264648 0.635986 0.30249 0.567139 0.264648 0.688721 0.236572 0.688721 0.236572 0.567139 0.264648 0.633789 0.241699 0.633789 0.241699 0.567139 0.264648 0.499268 0.233154 0.709717 0.090576 0.781006 0.089355 0.829834 0.117676 0.709717 0.090576 0.829834 0.117676 0.761963 0.145264 0.032471 0.151367 0.062744 0.151367 0.047363 0.170654 0.197754 0.884521 0.35376 0.880859 0.31958 0.902832 0.31958 0.902832 0.35376 0.880859 0.332031 0.932861 0.31958 0.902832 0.332031 0.932861 0.197754 0.884521 0.703369 0.117188 0.669678 0.116455 0.701904 0.084961 0.701904 0.084961 0.669678 0.116455 0.676025 0.084717 0.676025 0.084717 0.669678 0.116455 0.650391 0.067871 0.650391 0.067871 0.669678 0.116455 0.628418 0.074219 0.628418 0.074219 0.669678 0.116455 0.597412 0.080811 0.526367 0.700439 0.553955 0.776367 0.493652 0.662354 0.493652 0.662354 0.553955 0.776367 0.414307 0.7771 0.553955 0.776367 0.526367 0.700439 0.563965 0.719727 0.553955 0.776367 0.563965 0.719727 0.680908 0.714844 0.178955 0.946289 0.107666 0.864014 0.119385 0.820557 0.107666 0.864014 0.178955 0.946289 0.100342 0.887207 0.107666 0.864014 0.100342 0.887207 0.033447 0.873291 0.178955 0.946289 0.119385 0.820557 0.196289 0.85083 0.196289 0.85083 0.119385 0.820557 0.117432 0.769287 0.202881 0.641846 0.205078 0.478027 0.255127 0.57959 0.202881 0.641846 0.255127 0.57959 0.258789 0.709229 0.58667 0.960205 0.566406 0.987793 0.552002 0.955566 0.681641 0.942871 0.685059 0.925537 0.711182 0.916504 0.681641 0.942871 0.711182 0.916504 0.690674 0.979248 0.658691 0.152832 0.640381 0.170898 0.540771 0.124268 0.658691 0.152832 0.540771 0.124268 0.687012 0.123779 0.976074 0.357178 0.984863 0.397217 0.953857 0.386963 0.976074 0.357178 0.953857 0.386963 0.948242 0.353516 0.948242 0.353516 0.953857 0.386963 0.938232 0.371338 0.938232 0.371338 0.953857 0.386963 0.914062 0.397461 0.151123 0.955811 0.207275 0.974121 0.170166 0.992676 0.992188 0.299316 0.950195 0.297363 0.932373 0.242676 0.992188 0.299316 0.932373 0.242676 0.993652 0.223877 0.505127 0.05127 0.50708 0.000488 0.548584 0.008789 0.505127 0.05127 0.548584 0.008789 0.561768 0.042969 0.640381 0.040527 0.657715 0.004395 0.657227 0.053223 0.640381 0.040527 0.657227 0.053223 0.609375 0.07251 0.640381 0.040527 0.609375 0.07251 0.607666 0.069092 0.023438 0.973389 0.004639 0.95874 0.041016 0.96167 0.023438 0.973389 0.041016 0.96167 0.030273 0.994873 0.095703 0.174072 0.057129 0.174072 0.069336 0.152832 0.18457 0.945312 0.275879 0.929199 0.342529 0.940186 0.602295 0.051025 0.515625 0.114014 0.483887 0.057373 0.961182 0.642822 0.890869 0.642822 0.901855 0.613281 0.957764 0.855225 0.980713 0.835205 0.980469 0.893555 0.957764 0.855225 0.980469 0.893555 0.913086 0.878418 0.142578 0.246582 0.095459 0.388672 0.056396 0.324219 0.142578 0.246582 0.056396 0.324219 0.008057 0.275391 0.142578 0.246582 0.008057 0.275391 0.008301 0.178223 0.90625 0.404297 0.992432 0.4021 0.977295 0.435303 0.90625 0.404297 0.977295 0.435303 0.90332 0.492676 0.90332 0.492676 0.977295 0.435303 0.990967 0.477783 0.208008 0.067871 0.177002 0.107178 0.095459 0.048096 0.208008 0.067871 0.095459 0.048096 0.203369 0.040527 0.847656 0.823486 0.847656 0.703857 0.87915 0.722412 0.843018 0.984619 0.71582 0.984619 0.763428 0.892822 0.406738 0.97876 0.377686 0.999756 0.368408 0.959717 0.901123 0.171387 0.942139 0.136963 0.978516 0.172852 0.908936 0.718994 0.880615 0.704834 0.907471 0.647217 0.908936 0.718994 0.907471 0.647217 0.939941 0.648926 0.908936 0.718994 0.939941 0.648926 0.941162 0.748535 0.152832 0.949707 0.252441 0.954834 0.254883 0.982422 0.88623 0.677002 0.847412 0.557861 0.887451 0.564697 0.380615 0.078857 0.36792 0.060791 0.482422 0.068115</float_array>
          <technique_common>
            <accessor source="#Caviar-mesh-map-0-array" count="1260" stride="2">
              <param name="S" type="float"/>
              <param name="T" type="float"/>
            </accessor>
          </technique_common>
        </source>
        <vertices id="Caviar-mesh-vertices">
          <input semantic="POSITION" source="#Caviar-mesh-positions"/>
        </vertices>
        <polylist material="Material_-1-material" count="6">
          <input semantic="VERTEX" source="#Caviar-mesh-vertices" offset="0"/>
          <input semantic="NORMAL" source="#Caviar-mesh-normals" offset="1"/>
          <input semantic="TEXCOORD" source="#Caviar-mesh-map-0" offset="2" set="0"/>
          <vcount>3 3 3 3 3 3 3 3 3 3 3 3 3 3 3 3 3 3 3 3 3 3 3 3 3 3 3 3 3 3 3 3 3 3 3 3 3 3 3 3 3 3 3 3 3 3 3 3 3 3 3 3 3 3 3 3 3 3 3 3 3 3 3 3 3 3 3 3 3 3 3 3 3 3 3 3 3 3 3 3 3 3 3 3 3 3 3 3 3 3 3 3 3 3 3 3 3 3 3 3 3 3 3 3 3 3 3 3 3 3 3 3 3 3 3 3 3 3 3 3 3 3 3 3 3 3 3 3 3 3 3 3 3 3 3 3 3 3 3 3 3 3 3 3 3 3 3 3 3 3 3 3 3 3 3 3 3 3 3 3 3 3 3 3 3 3 3 3 3 3 3 3 3 3 3 3 3 3 3 3 3 3 3 3 3 3 3 3 3 3 3 3 3 3 3 3 3 3 3 3 3 3 3 3 3 3 3 3 3 3 3 3 3 3 3 3 3 3 3 3 3 3 3 3 3 3 3 3 3 3 3 3 3 3 3 3 3 3 3 3 3 3 3 3 3 3 3 3 3 3 3 3 3 3 3 3 3 3 3 3 3 3 3 3 3 3 3 3 3 3 3 3 3 3 3 3 3 3 3 3 3 3 3 3 3 3 3 3 3 3 3 3 3 3 3 3 3 3 3 3 3 3 3 3 3 3 3 3 3 3 3 3 3 3 3 3 3 3 3 3 3 3 3 3 3 3 3 3 3 3 3 3 3 3 3 3 3 3 3 3 3 3 3 3 3 3 3 3 3 3 3 3 3 3 3 3 3 3 3 3 3 3 3 3 3 3 3 3 3 3 3 3 3 3 3 3 3 3 3 3 3 3 3 3 3 3 3 3 3 3 3 3 3 3 3 3 3 3 3 3 3 3 3 3 3 3 3 3 3 3 3 3 3 3 3 3 3 3 3 3</vcount>
          <p>0 0 0 1 0 1 2 0 2 1 1 3 0 1 4 3 1 5 2 2 6 1 2 7 4 2 8 4 3 9 1 3 10 5 3 11 2 4 12 4 4 13 6 4 14 6 5 15 4 5 16 7 5 17 7 6 18 4 6 19 8 6 20 7 7 21 8 7 22 9 7 23 0 8 24 2 8 25 10 8 26 10 9 27 2 9 28 11 9 29 10 10 30 11 10 31 12 10 32 0 11 33 10 11 34 13 11 35 0 12 36 13 12 37 14 12 38 6 13 39 11 13 40 2 13 41 11 14 42 6 14 43 15 14 44 15 15 45 6 15 46 7 15 47 15 16 48 7 16 49 16 16 50 17 17 51 7 17 52 9 17 53 17 18 54 9 18 55 18 18 56 19 19 57 20 19 58 21 19 59 20 20 60 19 20 61 9 20 62 9 21 63 19 21 64 22 21 65 23 22 66 24 22 67 25 22 68 24 23 69 23 23 70 26 23 71 26 24 72 23 24 73 9 24 74 24 25 75 26 25 76 27 25 77 27 26 78 26 26 79 28 26 80 27 27 81 28 27 82 29 27 83 27 28 84 29 28 85 30 28 86 27 29 87 30 29 88 31 29 89 30 30 90 29 30 91 32 30 92 32 31 93 29 31 94 33 31 95 31 32 96 18 32 97 9 32 98 31 33 99 9 33 100 27 33 101 31 34 102 30 34 103 18 34 104 18 35 105 30 35 106 34 35 107 34 36 108 30 36 109 35 36 110 17 37 111 18 37 112 36 37 113 34 38 114 35 38 115 37 38 116 37 39 117 35 39 118 38 39 119 37 40 120 38 40 121 39 40 122 37 41 123 39 41 124 40 41 125 36 42 126 18 42 127 41 42 128 42 43 129 18 43 130 34 43 131 18 44 132 42 44 133 41 44 134 42 45 135 34 45 136 37 45 137 41 46 138 42 46 139 36 46 140 42 47 141 37 47 142 40 47 143 42 48 144 40 48 145 36 48 146 21 49 147 43 49 148 17 49 149 21 50 150 17 50 151 36 50 152 17 51 153 43 51 154 16 51 155 17 52 156 16 52 157 7 52 158 44 53 159 36 53 160 30 53 161 44 54 162 30 54 163 33 54 164 33 55 165 30 55 166 45 55 167 30 56 168 36 56 169 32 56 170 32 57 171 36 57 172 33 57 173 45 58 174 30 58 175 46 58 176 46 59 177 30 59 178 47 59 179 46 60 180 47 60 181 36 60 182 46 61 183 36 61 184 48 61 185 1 62 186 3 62 187 5 62 188 3 63 189 0 63 190 49 63 191 49 64 192 0 64 193 14 64 194 49 65 195 14 65 196 50 65 197 49 66 198 50 66 199 3 66 200 3 67 201 50 67 202 51 67 203 3 68 204 51 68 205 52 68 206 5 69 207 3 69 208 52 69 209 5 70 210 52 70 211 4 70 212 4 71 213 52 71 214 8 71 215 51 72 216 53 72 217 52 72 218 52 73 219 53 73 220 54 73 221 52 74 222 54 74 223 8 74 224 8 75 225 54 75 226 55 75 227 8 76 228 55 76 229 9 76 230 9 77 231 55 77 232 20 77 233 20 78 234 55 78 235 56 78 236 21 79 237 20 79 238 57 79 239 20 80 240 56 80 241 57 80 242 26 81 243 23 81 244 25 81 245 26 82 246 25 82 247 24 82 248 22 83 249 23 83 250 9 83 251 28 84 252 26 84 253 23 84 254 23 85 255 22 85 256 58 85 257 23 86 258 58 86 259 28 86 260 28 87 261 58 87 262 47 87 263 28 88 264 47 88 265 29 88 266 29 89 267 47 89 268 33 89 269 58 90 270 22 90 271 59 90 272 58 91 273 59 91 274 60 91 275 59 92 276 22 92 277 19 92 278 60 93 279 59 93 280 61 93 281 59 94 282 19 94 283 62 94 284 59 95 285 62 95 286 61 95 287 61 96 288 62 96 289 63 96 290 64 97 291 65 97 292 66 97 293 66 98 294 65 98 295 67 98 296 65 99 297 64 99 298 68 99 299 68 100 300 64 100 301 69 100 302 65 101 303 68 101 304 70 101 305 65 102 306 70 102 307 71 102 308 72 103 309 73 103 310 74 103 311 72 104 312 74 104 313 69 104 314 74 105 315 73 105 316 75 105 317 74 106 318 75 106 319 76 106 320 64 107 321 77 107 322 69 107 323 69 108 324 77 108 325 74 108 326 77 109 327 64 109 328 66 109 329 74 110 330 77 110 331 76 110 332 77 111 333 66 111 334 78 111 335 76 112 336 77 112 337 75 112 338 77 113 339 78 113 340 68 113 341 77 114 342 68 114 343 75 114 344 36 115 345 79 115 346 33 115 347 79 116 348 36 116 349 80 116 350 79 117 351 80 117 352 81 117 353 80 118 354 36 118 355 82 118 356 80 119 357 82 119 358 83 119 359 82 120 360 36 120 361 84 120 362 84 121 363 36 121 364 40 121 365 85 122 366 33 122 367 79 122 368 85 123 369 79 123 370 81 123 371 86 124 372 44 124 373 33 124 374 86 125 375 33 125 376 85 125 377 44 126 378 86 126 379 36 126 380 36 127 381 86 127 382 83 127 383 85 128 384 87 128 385 86 128 386 86 129 387 87 129 388 88 129 389 87 130 390 85 130 391 81 130 392 87 131 393 81 131 394 88 131 395 88 132 396 81 132 397 80 132 398 50 133 399 89 133 400 51 133 401 89 134 402 50 134 403 90 134 404 51 135 405 89 135 406 53 135 407 89 136 408 90 136 409 91 136 410 89 137 411 91 137 412 53 137 413 53 138 414 91 138 415 92 138 416 53 139 417 92 139 418 54 139 419 54 140 420 92 140 421 55 140 422 55 141 423 92 141 424 67 141 425 55 142 426 67 142 427 67 142 428 55 143 429 67 143 430 56 143 431 67 144 432 67 144 433 93 144 434 93 145 435 67 145 436 78 145 437 93 146 438 78 146 439 94 146 440 93 147 441 94 147 442 95 147 443 96 148 444 97 148 445 71 148 446 71 149 447 98 149 448 65 149 449 71 150 450 99 150 451 70 150 452 99 151 453 71 151 454 78 151 455 67 152 456 100 152 457 101 152 458 100 153 459 67 153 460 78 153 461 67 154 462 101 154 463 65 154 464 78 155 465 102 155 466 100 155 467 102 156 468 78 156 469 103 156 470 103 157 471 78 157 472 104 157 473 102 158 474 103 158 475 105 158 476 102 159 477 105 159 478 100 159 479 105 160 480 103 160 481 106 160 482 100 161 483 105 161 484 107 161 485 100 162 486 107 162 487 97 162 488 97 163 489 107 163 490 108 163 491 50 164 492 14 164 493 109 164 494 50 165 495 109 165 496 110 165 497 50 166 498 110 166 499 90 166 500 90 167 501 110 167 502 111 167 503 111 168 504 110 168 505 112 168 506 90 169 507 111 169 508 113 169 509 113 170 510 111 170 511 112 170 512 113 171 513 112 171 514 114 171 515 90 172 516 113 172 517 91 172 518 113 173 519 114 173 520 115 173 521 113 174 522 115 174 523 91 174 524 91 175 525 115 175 526 116 175 527 91 176 528 116 176 529 92 176 530 116 177 531 115 177 532 117 177 533 118 178 534 97 178 535 108 178 536 119 179 537 97 179 538 118 179 539 78 180 540 97 180 541 119 180 542 97 181 543 78 181 544 71 181 545 78 182 546 119 182 547 120 182 548 78 183 549 120 183 550 94 183 551 94 184 552 120 184 553 121 184 554 121 185 555 120 185 556 106 185 557 119 186 558 122 186 559 120 186 560 122 187 561 119 187 562 123 187 563 120 188 564 122 188 565 106 188 566 120 189 567 106 189 568 121 189 569 124 190 570 125 190 571 126 190 572 125 191 573 124 191 574 127 191 575 125 192 576 127 192 577 128 192 578 126 193 579 125 193 580 129 193 581 129 194 582 125 194 583 130 194 584 129 195 585 130 195 586 131 195 587 131 196 588 130 196 589 132 196 590 130 197 591 125 197 592 133 197 593 133 198 594 125 198 595 134 198 596 118 199 597 108 199 598 107 199 599 118 200 600 107 200 601 123 200 602 123 201 603 107 201 604 122 201 605 122 202 606 107 202 607 135 202 608 135 203 609 107 203 610 136 203 611 135 204 612 136 204 613 122 204 614 119 205 615 123 205 616 118 205 617 107 206 618 105 206 619 106 206 620 107 207 621 106 207 622 136 207 623 136 208 624 106 208 625 122 208 626 126 209 627 124 209 628 106 209 629 106 210 630 124 210 631 137 210 632 126 211 633 106 211 634 94 211 635 94 212 636 106 212 637 95 212 638 106 213 639 104 213 640 137 213 641 137 214 642 104 214 643 138 214 644 137 215 645 138 215 646 139 215 647 137 216 648 139 216 649 140 216 650 93 217 651 141 217 652 56 217 653 93 218 654 56 218 655 142 218 656 141 219 657 57 219 658 56 219 659 104 220 660 106 220 661 103 220 662 129 221 663 95 221 664 126 221 665 95 222 666 129 222 667 142 222 668 95 223 669 142 223 670 93 223 671 142 224 672 129 224 673 143 224 674 143 225 675 129 225 676 131 225 677 143 226 678 131 226 679 144 226 680 143 227 681 144 227 682 145 227 683 145 228 684 144 228 685 141 228 686 104 229 687 146 229 688 138 229 689 146 230 690 104 230 691 147 230 692 146 231 693 147 231 694 148 231 695 146 232 696 148 232 697 143 232 698 143 233 699 148 233 700 142 233 701 142 234 702 148 234 703 56 234 704 149 235 705 138 235 706 150 235 707 149 236 708 150 236 709 151 236 710 149 237 711 151 237 712 152 237 713 138 238 714 146 238 715 150 238 716 150 239 717 146 239 718 143 239 719 150 240 720 143 240 721 152 240 722 152 241 723 143 241 724 145 241 725 153 242 726 92 242 727 116 242 728 153 243 729 141 243 730 93 243 731 116 244 732 117 244 733 153 244 734 153 245 735 117 245 736 140 245 737 153 246 738 140 246 739 145 246 740 153 247 741 145 247 742 141 247 743 13 248 744 10 248 745 12 248 746 13 249 747 12 249 748 154 249 749 154 250 750 12 250 751 155 250 752 155 251 753 12 251 754 156 251 755 154 252 756 155 252 757 157 252 758 155 253 759 156 253 760 158 253 761 155 254 762 158 254 763 157 254 764 157 255 765 158 255 766 159 255 767 159 256 768 158 256 769 160 256 770 160 257 771 158 257 772 16 257 773 16 258 774 158 258 775 15 258 776 160 259 777 16 259 778 161 259 779 161 260 780 16 260 781 162 260 782 161 261 783 162 261 784 43 261 785 43 262 786 162 262 787 16 262 788 11 263 789 156 263 790 12 263 791 156 264 792 11 264 793 158 264 794 158 265 795 11 265 796 15 265 797 21 266 798 57 266 799 43 266 800 43 267 801 57 267 802 161 267 803 35 268 804 45 268 805 38 268 806 38 269 807 45 269 808 46 269 809 45 270 810 35 270 811 30 270 812 48 271 813 40 271 814 39 271 815 48 272 816 39 272 817 38 272 818 40 273 819 48 273 820 163 273 821 163 274 822 48 274 823 164 274 824 165 275 825 166 275 826 167 275 827 167 276 828 166 276 829 168 276 830 167 277 831 168 277 832 169 277 833 169 278 834 168 278 835 170 278 836 165 279 837 171 279 838 166 279 839 166 280 840 171 280 841 164 280 842 57 281 843 172 281 844 161 281 845 172 282 846 57 282 847 173 282 848 161 283 849 172 283 850 160 283 851 172 284 852 173 284 853 174 284 854 172 285 855 174 285 856 160 285 857 160 286 858 174 286 859 175 286 860 160 287 861 175 287 862 159 287 863 175 288 864 174 288 865 176 288 866 159 289 867 175 289 868 157 289 869 175 290 870 176 290 871 177 290 872 175 291 873 177 291 874 157 291 875 157 292 876 177 292 877 178 292 878 157 293 879 178 293 880 154 293 881 178 294 882 177 294 883 179 294 884 164 295 885 84 295 886 40 295 887 164 296 888 40 296 889 163 296 890 84 297 891 164 297 892 180 297 893 84 298 894 180 298 895 82 298 896 164 299 897 181 299 898 180 299 899 180 300 900 181 300 901 182 300 902 182 301 903 181 301 904 183 301 905 182 302 906 183 302 907 184 302 908 182 303 909 184 303 910 185 303 911 185 304 912 184 304 913 186 304 914 186 305 915 184 305 916 187 305 917 82 306 918 83 306 919 188 306 920 168 307 921 181 307 922 166 307 923 166 308 924 181 308 925 164 308 926 181 309 927 168 309 928 169 309 929 181 310 930 169 310 931 187 310 932 83 311 933 80 311 934 88 311 935 83 312 936 88 312 937 86 312 938 180 313 939 182 313 940 189 313 941 189 314 942 182 314 943 185 314 944 180 315 945 189 315 946 82 315 947 82 316 948 189 316 949 185 316 950 82 317 951 185 317 952 187 317 953 187 318 954 185 318 955 186 318 956 82 319 957 187 319 958 190 319 959 13 320 960 109 320 961 14 320 962 109 321 963 13 321 964 178 321 965 178 322 966 13 322 967 154 322 968 109 323 969 178 323 970 191 323 971 191 324 972 178 324 973 179 324 974 183 325 975 181 325 976 187 325 977 183 326 978 187 326 979 184 326 980 169 327 981 170 327 982 187 327 983 187 328 984 192 328 985 170 328 986 170 329 987 192 329 988 193 329 989 170 330 990 193 330 991 190 330 992 193 331 993 192 331 994 194 331 995 190 332 996 193 332 997 195 332 998 195 333 999 193 333 1000 194 333 1001 195 334 1002 194 334 1003 196 334 1004 197 335 1005 131 335 1006 132 335 1007 197 336 1008 132 336 1009 133 336 1010 133 337 1011 132 337 1012 130 337 1013 197 338 1014 133 338 1015 134 338 1016 131 339 1017 197 339 1018 198 339 1019 198 340 1020 197 340 1021 199 340 1022 131 341 1023 198 341 1024 144 341 1025 144 342 1026 198 342 1027 140 342 1028 127 343 1029 128 343 1030 134 343 1031 134 344 1032 128 344 1033 125 344 1034 200 345 1035 201 345 1036 152 345 1037 201 346 1038 200 346 1039 202 346 1040 203 347 1041 110 347 1042 109 347 1043 110 348 1044 203 348 1045 112 348 1046 203 349 1047 109 349 1048 191 349 1049 112 350 1050 203 350 1051 114 350 1052 203 351 1053 191 351 1054 179 351 1055 203 352 1056 179 352 1057 114 352 1058 114 353 1059 179 353 1060 204 353 1061 204 354 1062 179 354 1063 177 354 1064 115 355 1065 114 355 1066 204 355 1067 115 356 1068 204 356 1069 117 356 1070 149 357 1071 152 357 1072 201 357 1073 150 358 1074 152 358 1075 205 358 1076 205 359 1077 152 359 1078 151 359 1079 205 360 1080 151 360 1081 150 360 1082 145 361 1083 140 361 1084 152 361 1085 152 362 1086 140 362 1087 200 362 1088 200 363 1089 140 363 1090 202 363 1091 202 364 1092 140 364 1093 201 364 1094 201 365 1095 140 365 1096 149 365 1097 144 366 1098 173 366 1099 141 366 1100 141 367 1101 173 367 1102 57 367 1103 173 368 1104 144 368 1105 140 368 1106 173 369 1107 140 369 1108 137 369 1109 174 370 1110 199 370 1111 140 370 1112 199 371 1113 174 371 1114 173 371 1115 199 372 1116 173 372 1117 197 372 1118 174 373 1119 140 373 1120 176 373 1121 176 374 1122 140 374 1123 117 374 1124 204 375 1125 177 375 1126 176 375 1127 204 376 1128 176 376 1129 117 376 1130 199 377 1131 198 377 1132 140 377 1133 134 378 1134 127 378 1135 124 378 1136 134 379 1137 124 379 1138 197 379 1139 138 380 1140 149 380 1141 140 380 1142 138 381 1143 140 381 1144 139 381 1145 196 382 1146 195 382 1147 190 382 1148 196 383 1149 190 383 1150 194 383 1151 194 384 1152 190 384 1153 192 384 1154 192 385 1155 190 385 1156 187 385 1157 47 386 1158 58 386 1159 60 386 1160 60 387 1161 61 387 1162 63 387 1163 60 388 1164 63 388 1165 62 388 1166 96 389 1167 97 389 1168 100 389 1169 96 390 1170 100 390 1171 71 390 1172 69 391 1173 72 391 1174 73 391 1175 69 392 1176 73 392 1177 75 392 1178 69 393 1179 75 393 1180 68 393 1181 71 394 1182 100 394 1183 101 394 1184 71 395 1185 101 395 1186 98 395 1187 65 396 1188 98 396 1189 101 396 1190 124 397 1191 197 397 1192 173 397 1193 62 398 1194 19 398 1195 21 398 1196 48 399 1197 38 399 1198 46 399 1199 165 400 1200 171 400 1201 164 400 1202 165 401 1203 164 401 1204 167 401 1205 170 402 1206 167 402 1207 164 402 1208 170 403 1209 164 403 1210 48 403 1211 170 404 1212 48 404 1213 82 404 1214 36 405 1215 83 405 1216 188 405 1217 36 406 1218 188 406 1219 48 406 1220 48 407 1221 188 407 1222 82 407 1223 60 408 1224 62 408 1225 21 408 1226 60 409 1227 21 409 1228 47 409 1229 82 410 1230 190 410 1231 170 410 1232 47 411 1233 21 411 1234 36 411 1235 78 412 1236 99 412 1237 70 412 1238 78 413 1239 70 413 1240 68 413 1241 147 414 1242 104 414 1243 78 414 1244 147 415 1245 78 415 1246 56 415 1247 147 416 1248 56 416 1249 148 416 1250 66 417 1251 67 417 1252 56 417 1253 66 418 1254 56 418 1255 78 418 1256 137 419 1257 124 419 1258 173 419 1259</p>
        </polylist>
      </mesh>
    </geometry>
  </library_geometries>
  <library_visual_scenes>
    <visual_scene id="Scene" name="Scene">
      <node id="Caviar" name="Caviar" type="NODE">
        <scale sid="scale">1 1 1</scale>
        <translate sid="location">0 0 0</translate>
        <rotate sid="rotationX">1 0 0 0</rotate>
        <rotate sid="rotationY">0 1 0 0</rotate>
        <rotate sid="rotationZ">0 0 1 0</rotate>
        <instance_geometry url="#Caviar-mesh" name="Caviar">
          <bind_material>
            <technique_common>
            </technique_common>
          </bind_material>
        </instance_geometry>
      </node>
    </visual_scene>
  </library_visual_scenes>
  <scene>
    <instance_visual_scene url="#Scene"/>
  </scene>
</COLLADA>
