<?xml version="1.0" encoding="utf-8"?>
<COLLADA xmlns="http://www.collada.org/2005/11/COLLADASchema" version="1.4.1" xmlns:xsi="http://www.w3.org/2001/XMLSchema-instance">
  <asset>
    <contributor>
      <author>Blockbench user</author>
      <authoring_tool>Blockbench</authoring_tool>
    </contributor>
    <created>2026-07-29T19:03:36.275Z</created>
    <modified>2026-07-29T19:03:36.283Z</modified>
    <unit name="meter" meter="1.0"/>
    <up_axis>Y_UP</up_axis>
  </asset>
  <library_effects>
  </library_effects>
  <library_images>
  </library_images>
  <library_materials>
  </library_materials>
  <library_geometries>
    <geometry id="Closet5-mesh" name="Closet5">
      <mesh>
        <source id="Closet5-mesh-positions">
          <float_array id="Closet5-mesh-positions-array" count="702">0.349355 -0.057445 -0.277742 0.349186 0.056369 -0.277752 0.34939 0.056418 0.027652 -0.320015 -0.270098 -0.293702 -0.324307 -0.057027 -0.278823 -0.323 0.056095 -0.277611 -0.320149 0.39945 -0.295975 -0.319228 -0.445836 -0.294966 -0.322106 -0.321123 -0.277458 -0.324891 -0.407857 -0.277224 -0.318652 0.39688 -0.294456 -0.323961 -0.056898 0.026733 -0.32318 0.056559 0.027209 -0.320758 0.185048 0.046871 -0.320389 0.228008 -0.000256 -0.321682 0.293136 -0.277916 -0.32182 -0.321126 0.027653 0.015946 -0.445435 -0.325461 0.015883 0.39652 -0.326683 0.315878 -0.445459 -0.326814 -0.324721 0.365215 -0.277382 -0.322137 0.366425 -0.124011 -0.322104 0.292913 -0.124518 -0.319253 -0.446158 0.046516 -0.322411 -0.321638 -0.124548 -0.324777 -0.408044 0.027765 0.316049 0.397343 -0.326915 -0.317186 0.423708 -0.32572 -0.318334 0.082599 -0.294797 -0.31709 -0.478917 -0.327292 -0.288641 -0.445013 -0.326404 -0.287021 0.396175 -0.326724 -0.148199 0.126668 0.080475 -0.10915 0.127943 0.079415 -0.133203 0.159701 0.080428 -0.171965 0.161894 0.079433 -0.178616 0.120195 0.079485 -0.215758 -0.36447 0.085615 -0.085846 -0.363569 0.085255 -0.214789 -0.343102 0.079402 -0.086634 -0.344199 0.079446 -0.251407 -0.064634 0.088303 -0.242913 -0.081931 0.083063 -0.255868 -0.057965 0.079503 -0.247117 0.03296 0.079442 -0.24569 -0.016939 0.079507 -0.245471 0.000128 0.083552 -0.260982 0.012295 0.083084 -0.259224 -0.012038 0.084853 -0.254578 -0.007862 0.086423 -0.253627 -0.006822 0.096553 -0.245986 -0.01665 0.098955 -0.261859 -0.083374 0.08299 -0.214991 -0.335781 0.086254 -0.086435 -0.334098 0.085376 -0.084789 -0.315839 0.079512 -0.255674 -0.071338 0.103557 -0.255147 -0.004014 0.103395 -0.267605 0.049411 0.079434 -0.248076 0.067104 0.08085 0.348089 0.293495 -0.123691 0.34819 0.293574 -0.277967 0.346529 0.354617 -0.284229 0.351866 0.369042 -0.278662 0.346149 0.396278 -0.293233 0.345608 0.398046 -0.294918 0.344319 0.397426 -0.146425 0.348605 0.365861 -0.123806 0.351729 0.366022 0.026539 0.348158 0.293641 0.027751 0.344922 0.397458 0.04626 0.351195 -0.057264 0.028372 -0.31933 0.227521 0.046226 -0.319282 0.227817 0.077856 -0.320132 0.201351 0.009568 -0.320508 0.172233 0.008291 0.344366 -0.479699 -0.326194 -0.297811 0.407275 -0.328453 -0.144747 0.397393 -0.326071 0.015768 0.399654 -0.327342 0.301936 -0.004795 0.079712 0.243466 -0.306306 0.085558 0.315484 -0.317203 0.076343 0.117546 -0.304276 0.082694 0.325634 -0.326224 0.085869 0.329226 -0.356617 0.084012 0.344382 -0.316941 0.078518 0.315785 -0.351254 0.07528 0.316005 0.011775 0.078611 0.317182 -0.026561 0.077911 0.328207 -0.025584 0.08524 0.327512 0.011683 0.085627 0.342433 -0.482339 0.047635 0.344411 -0.479913 0.077112 0.016195 -0.481191 0.047314 0.016003 -0.480131 0.077461 0.015712 -0.48145 -0.295033 0.3418 -0.482401 -0.294823 0.346831 -0.32111 -0.2845 0.344934 -0.445765 -0.294286 0.046075 -0.445093 0.073605 0.116742 -0.363631 0.083078 0.118331 -0.343864 0.079491 0.122317 -0.318223 0.079515 0.118951 -0.336084 0.086408 0.06765 -0.087428 0.079465 0.243843 -0.315316 0.07948 0.244666 -0.364265 0.08456 0.316168 -0.444538 0.073826 0.244841 -0.343479 0.079492 0.243404 -0.335019 0.085679 -0.302905 -0.467993 0.081815 -0.317862 -0.479843 0.077359 0.344148 0.423856 -0.3247 0.345291 -0.445974 0.046409 0.346689 -0.405412 -0.267696 0.351881 -0.407664 0.027472 0.352083 -0.408709 -0.279456 0.343939 0.423491 0.076343 0.329101 0.316279 0.08397 0.325554 0.28245 0.086536 0.316104 0.280003 0.077379 0.014005 0.424478 0.077836 0.318119 0.398511 0.079166 0.001422 0.01186 0.086662 0.001525 0.27824 0.083803 -0.009004 0.009549 0.077661 -0.000352 -0.025303 0.086818 -0.086795 0.265746 0.079484 -0.084404 0.246465 0.083321 -0.012961 0.286079 0.079776 -0.000721 0.317307 0.086833 -0.005932 0.289117 0.084843 -0.008458 0.278877 0.076626 -0.008432 0.279092 0.074198 -0.008289 0.282592 0.075209 -0.008267 0.279588 0.074117 -0.007484 0.278414 0.073132 -0.008213 0.289493 0.077743 -0.008581 0.317494 0.080045 -0.010508 -0.017292 0.079289 -0.007925 0.396501 0.073451 -0.215703 0.29914 0.079457 -0.11934 0.361493 0.079387 -0.17977 0.36104 0.079396 -0.087162 0.307635 0.085776 -0.085543 0.277635 0.083916 -0.084533 0.296528 0.079485 -0.214386 0.307381 0.086386 -0.113582 0.221945 0.079576 -0.084768 -0.303249 0.081647 -0.318813 0.196813 0.078781 0.071746 -0.066861 0.087747 0.074869 -0.018318 0.102779 0.088566 -0.072304 0.094971 0.07042 0.017347 0.082626 0.082351 -0.019285 0.079477 0.089996 -0.065686 0.085576 0.087839 -0.082638 0.083392 0.145293 -0.045545 0.080678 0.117749 -0.043305 0.079437 0.092816 0.066198 0.079462 0.087999 0.024811 0.079424 0.145777 0.219196 0.080027 0.207737 0.223951 0.079528 0.088916 0.002575 0.083739 0.07658 0.045231 0.089101 0.085363 -0.080077 0.092975 0.328969 -0.466545 0.08206 0.015891 -0.480392 -0.326303 0.329294 -0.468106 -0.330774 -0.288891 -0.445038 0.076579 -0.288607 0.3965 0.074988 -0.291102 0.237434 0.078783 -0.229135 0.23502 0.079376 -0.225707 0.262166 0.079434 -0.285759 0.238074 0.079163 -0.291524 0.206545 0.079489 -0.216874 0.244412 0.085188 -0.181529 0.222847 0.080306 -0.31631 0.422736 0.078063 -0.214734 -0.30189 0.083727 -0.319215 0.397808 0.046563 0.015938 0.4241 -0.325672 0.244769 0.245606 0.084851 0.117139 0.246353 0.083648 0.045592 0.396337 0.074202 0.028717 0.409848 0.08196 0.11832 0.265034 0.079425 0.117824 0.296193 0.079498 0.118649 0.274943 0.086329 0.118304 0.308564 0.083868 0.146097 0.360949 0.079369 0.316187 0.317045 0.07582 0.208974 0.360906 0.079401 -0.179902 -0.040012 0.079635 -0.146695 0.209312 0.07935 0.244561 0.281892 0.080869 0.244776 0.308812 0.082872 0.24347 0.266172 0.07945 -0.009847 -0.337309 0.079158 -0.007459 -0.444559 0.074009 -0.015504 -0.322624 0.079968 -0.217658 -0.314891 0.079457 0.348666 -0.320963 -0.123775 0.332029 0.410505 -0.329938 -0.317043 -0.482083 0.047631 -0.316834 -0.482104 -0.295186 0.215154 0.397251 -0.326104 0.348405 -0.321163 0.027528 -0.20541 -0.045527 0.0808 -0.007317 -0.026593 0.07956 -0.001088 -0.316149 0.086814 0.000638 -0.355623 0.086786 -0.008157 -0.317218 0.073462 -0.21594 0.2771 0.084409 -0.324525 0.365908 0.027739 -0.322099 0.293855 0.027107 -0.008858 -0.354385 0.076436 -0.008662 -0.356274 0.076658 -0.008393 -0.355633 0.073393 -0.008457 -0.353595 0.076744 -0.007254 -0.357277 0.072951 -0.00861 -0.31617 0.076777 -0.008434 -0.314939 0.075993 -0.007363 -0.313923 0.073234 0.071672 -0.030674 0.082105 0.093766 -0.067998 0.093444 0.087273 -0.012872 0.093667 0.084622 -0.005197 0.10102 0.077142 -0.075804 0.097599 0.075481 -0.114708 0.107727 0.076826 -0.000533 0.100395 0.082915 -0.002985 0.097143</float_array>
          <technique_common>
            <accessor source="#Closet5-mesh-positions-array" count="234" stride="3">
              <param name="X" type="float"/>
              <param name="Y" type="float"/>
              <param name="Z" type="float"/>
            </accessor>
          </technique_common>
        </source>
        <source id="Closet5-mesh-normals">
          <float_array id="Closet5-mesh-normals-array" count="1500">0.999999 0.001485 -0.000668 -0.881207 0.015244 -0.472486 -0.927166 -0.001457 -0.374648 -0.999093 0.032005 -0.028076 -0.953949 -0.002115 -0.299961 -0.976263 0.00175 -0.216584 -0.999976 0.006886 -0.000601 -0.99982 0.018941 -0.000619 -0.999967 0.005568 0.005963 -0.999775 0.011359 0.017902 -0.004511 -0.001452 -0.999989 -0.179254 -0.000269 -0.983803 -0.99896 -0.042245 0.017164 -0.939286 -0.004975 -0.343099 -0.999492 -0.031762 -0.002796 -0.999675 -0.025487 -0.000097 -0.969832 -0.205259 -0.131507 -0.938978 0.032386 0.342449 -0.99872 0.034025 0.037425 -0.999278 -0.024221 -0.029263 -0.999483 0.032088 -0.001886 -0.969494 -0.206355 0.132281 -0.999184 0.040355 -0.001857 -0.989561 -0.003394 0.144075 -0.999948 -0.008124 -0.006174 -0.455934 -0.000595 0.890013 -0.992893 -0.002434 0.118984 -0.999627 -0.018748 -0.019872 -0.000773 -0.00012 -1 -0.994977 -0.001204 -0.100095 -0.05833 0.003377 0.998292 -0.997819 0.000009 -0.066004 0.003095 -0.000386 -0.999995 0.027495 -0.01106 0.999561 -0.033946 0.006661 0.999401 -0.024938 0.012744 0.999608 0.000725 0.279169 0.960242 0.002131 0.287336 0.957827 -0.881518 -0.462158 0.096627 -0.226137 0.022418 0.973838 -0.698827 0.173437 -0.693946 0.646645 -0.062746 -0.760206 0.070055 0.127365 0.989379 -0.663674 0.747617 -0.024598 0.528101 0.565429 0.633561 -0.999744 0.016493 -0.015461 -0.35382 0.042364 0.934353 0.520701 -0.005612 0.85372 -0.766588 0.261249 0.586593 -0.997368 -0.072374 -0.004349 -0.98049 0.195997 0.014973 -0.999996 -0.00043 -0.002752 0.002503 0.305569 0.952167 0.339512 -0.08432 0.936815 -0.977371 0.008159 0.211373 0.04652 -0.920446 0.388092 0.663343 -0.74814 0.016203 0.337381 0.941327 -0.008853 -0.869787 0.492701 -0.026767 -0.930166 -0.159922 -0.33048 0.738142 0.065662 -0.671443 -0.034225 -0.042138 0.998525 0.78549 0.608715 -0.111678 0.129306 -0.228796 0.964848 0.847629 -0.005358 0.530563 0.153136 -0.226931 0.961796 0.064346 -0.869599 0.489547 -0.951846 -0.282795 0.118392 -0.921057 -0.386711 -0.045911 0.797961 0.587346 -0.135212 0.55233 0.720277 0.419681 0.680366 -0.709484 0.183669 0.999628 0.027269 0.000668 0.999991 0.004199 0.000657 0.945249 -0.301831 -0.124102 0.953612 0.300888 0.009534 0.944766 0.284946 0.161935 0.99985 -0.007154 -0.015778 0.998554 -0.049611 -0.020696 0.440583 0.89771 -0.001528 0.995134 0.098479 0.003254 0.999987 0.005061 -0.000669 0.975326 0.003895 -0.220735 0.841369 -0.106828 -0.529798 0.999974 -0.007131 -0.000449 0.999986 0.005194 -0.000461 0.974409 0.223846 -0.020487 0.998841 0.015571 -0.045542 0.98949 0.005079 0.144511 0.923634 -0.039184 0.381267 0.682069 0.731245 -0.007878 -0.999912 0.012757 0.003533 -0.976977 0.200494 -0.072928 -0.999909 -0.005024 0.012527 0.021609 -0.000124 -0.999766 -0.142931 -0.003917 -0.989725 0.157541 -0.000679 -0.987512 -0.004848 -0.205942 -0.978552 -0.587026 0.000284 -0.809568 0.126139 -0.005227 0.991999 -0.02235 0.023713 0.999469 0.370558 -0.01295 0.928719 -0.573517 -0.117318 0.81075 -0.060428 0.691823 0.719534 -0.697419 -0.02852 0.716096 0.086214 -0.007005 0.996252 -0.075007 -0.004941 0.997171 0.332045 -0.007029 0.943237 -0.551338 -0.03215 0.833662 -0.520601 -0.018573 0.853598 0.777534 -0.628841 -0.00042 -0.003588 -0.996604 0.082263 0.000701 -0.999382 0.035144 -0.002916 -0.999996 0.000186 0.718118 -0.695921 -0.001201 0.983849 -0.00092 -0.178999 0.996473 0.000479 -0.083913 0.933982 0.000561 -0.357319 0.918688 0.001329 -0.394983 -0.347071 0.194388 0.917472 0.030914 -0.079997 0.996316 0.414201 -0.065239 0.907845 -0.984628 0.153143 -0.083994 -0.025841 -0.230555 0.972716 -0.107064 -0.009831 0.994204 0.013606 -0.558793 0.829196 0.0216 -0.558484 0.829234 -0.012041 -0.105188 0.994379 -0.000538 -0.133009 0.991115 -0.000551 0.178591 0.983923 -0.01008 0.236947 0.97147 0.010065 -0.664856 0.746904 0.001789 -0.590109 0.807321 0.059543 0.002535 0.998223 0.083288 0.235394 0.968325 0.042916 -0.030795 0.998604 0.132055 -0.014906 0.99113 0.00302 0.300056 0.953917 0.982943 0.034909 0.180565 -0.008377 0.361404 0.932372 -0.000589 -0.35132 0.936255 -0.00352 -0.999994 0.000762 -0.000873 -0.999382 0.035134 0.999836 0.000271 -0.018087 0.983771 -0.178453 -0.018666 0.999085 -0.042744 -0.001073 0.998765 -0.000835 -0.049686 0.81287 -0.344712 0.469484 0.999876 -0.015742 -0.001057 0.914276 0.077708 0.397568 0.875063 0.024631 -0.483382 -0.000246 -0.154143 -0.988049 0.009685 -0.914693 -0.404033 -0.00047 0.514597 -0.857432 0.000137 -0.001451 -0.999999 0.999373 0.035344 0.00207 -0.138554 0.089342 0.986317 -0.691342 -0.031372 0.721846 0.467915 0.002876 0.883769 0.00482 0.107374 0.994207 0.998366 0.057135 0.000572 0.554735 0.00088 0.832027 0.808794 -0.045097 0.586361 0.283781 -0.009522 0.958842 -0.657636 0.03615 0.752468 -0.055712 0.188224 0.980545 0.028653 -0.075658 0.996722 0.972703 -0.231831 -0.010113 0.96487 0.035762 -0.260281 0.825311 -0.18757 0.532615 -0.533259 -0.723487 0.438408 0.96996 -0.243215 0.004917 -0.948471 -0.104355 0.299187 0.546948 -0.293864 0.783895 -0.18516 -0.336933 0.923143 -0.430636 -0.373779 0.821488 -0.496114 -0.589147 0.63779 0.126932 -0.956826 -0.261482 -0.0558 -0.820287 0.569223 -0.651227 0.067019 0.755918 -0.95198 -0.037492 0.303855 0.053359 -0.006874 0.998552 -0.963241 0.00092 -0.268638 0.575326 0.001977 0.817922 -0.551411 0.081256 0.830267 -0.763893 0.015186 0.645165 -0.634454 -0.769322 -0.074918 0.703 -0.119366 0.701101 -0.644005 0.151443 0.749882 -0.294852 0.081905 0.952026 0.637901 -0.023029 0.769774 0.433718 -0.068164 0.898467 0.000142 0.000903 1 -0.054552 0.085423 0.99485 0.013367 0.125662 0.991983 0.993716 -0.07302 -0.084837 -0.00166 -0.008331 0.999964 -0.007516 0.00052 0.999972 0.122462 -0.467023 0.875724 0.06219 0.082498 0.994649 -0.012953 -0.642282 0.766359 0.005156 -0.491906 0.870633 -0.085006 -0.050827 0.995083 -0.248558 0.072513 0.965899 -0.999851 0.01339 -0.010927 -0.995061 0.095999 0.025257 -0.99973 -0.014583 0.018096 -0.99809 -0.002414 0.061726 -0.999056 -0.001495 0.043424 -0.447325 -0.238175 0.862075 -0.907171 0.011294 0.42061 0.107509 0.146957 0.983283 0.017479 -0.000806 0.999847 -0.184495 -0.027823 0.98244 -0.021425 0.105925 0.994143 -0.034433 0.125876 0.991448 -0.012075 0.000487 0.999927 0.083482 0.036651 0.995835 -0.044803 0.002538 0.998993 -0.004486 -0.001769 0.999988 0.00553 0.002449 0.999982 0.007747 0.003995 0.999962 -0.574422 0.012938 0.818457 0.016139 0.816267 0.577449 -0.796469 0.023499 0.604222 0.284432 -0.276029 0.918099 0.945194 -0.157142 0.286209 0.376574 -0.037881 0.925612 -0.096587 -0.355178 0.929795 0.988567 0.011595 -0.150333 -0.520554 0.004114 0.853819 -0.985028 -0.046979 -0.165868 0.999661 -0.026033 -0.000125 0.325395 -0.003751 0.945571 -0.549854 -0.049762 0.833777 0.359201 -0.007987 0.933226 -0.02006 0.126364 0.991781 0.001227 -0.345876 0.93828 -0.001485 0.34967 0.936872 0.652261 0.567441 0.50256 -0.549001 -0.01528 0.835682 -0.214574 -0.080898 0.973352 0.001081 -0.366215 -0.93053 0.559257 0.452732 -0.694453 -0.004508 0.024087 -0.9997 -0.020369 0.160488 -0.986828 0.819746 0.000806 0.572726 -0.011936 -0.061228 0.998052 -0.009605 -0.000924 0.999953 -0.800509 0.001403 0.599319 -0.02673 0.025854 0.999308 -0.073757 0.023795 0.996992 0.004782 -0.000672 -0.999988 -0.120882 -0.403453 0.90698 -0.462685 0.056538 0.884718 -0.003172 0.010919 0.999935 0.096349 -0.229265 -0.968584 -0.01921 0.029526 0.999379 0.130482 0.021602 0.991215 -0.032686 -0.000563 0.999466 -0.122348 0.055739 0.990921 0.010909 -0.000387 -0.99994 -0.000453 -0.077939 -0.996958 -0.004043 0.002501 0.999989 -0.46789 0.003421 0.88378 -0.051703 -0.003541 0.998656 -0.352846 0.009788 0.93563 -0.072458 -0.012263 0.997296 0.839237 0.000963 0.543765 0.016836 -0.194438 0.98077 -0.713498 -0.001482 0.700656 -0.005272 0.999983 0.002419 -0.993623 0.112726 0.002427 -0.992121 0.125236 0.003306 -0.864081 -0.503352 -0.000057 0.002996 0.999995 0.000912 0.000746 0.999999 -0.000933 0.029122 0.001744 -0.999574 -0.004327 -0.999418 -0.033839 0.003074 0.023605 -0.999717 0.00212 -0.999426 -0.033803 -0.00285 -0.996287 -0.086044 0.003128 0.024075 -0.999705 -0.010164 -0.142683 0.989716 0.417438 -0.000405 0.908705 0.135131 -0.006939 0.990803 0.283468 0.194366 0.939078 -0.078056 -0.003578 0.996943 -0.997379 -0.016042 0.070553 -0.452221 -0.281421 0.846344 -0.017755 0.094902 0.995328 -0.534507 -0.022025 0.844877 0.046623 0.064461 0.99683 -0.098535 0.015661 0.99501 0.101834 -0.025213 0.994482 -0.333054 -0.00086 0.942908 0.744297 -0.302669 0.595327 0.511993 -0.18033 0.839848 0.020612 0.290404 0.956682 -0.011621 -0.508791 0.860812 -0.01866 0.060396 0.998 -0.000406 0.14335 0.989672 0.014849 0.00628 0.99987 0.012527 -0.003369 0.999916 -0.049035 -0.042527 0.997891 0.02129 -0.002149 0.999771 0.042461 0.000291 0.999098 -0.021864 -0.049976 0.998511 0.026876 0.007924 0.999607 0.016402 -0.000939 0.999865 0.03048 -0.009533 0.99949 -0.013691 0.018 0.999744 0.023292 -0.010663 0.999672 0.010142 -0.044456 0.99896 -0.024812 0.014972 0.99958 0.008469 -0.160816 0.986948 0.008448 0.010696 0.999907 0.029674 -0.286162 0.957722 -0.000448 0.085805 0.996312 -0.047551 -0.331058 0.942412 0.007999 -0.074262 0.997207 -0.002201 0.220627 0.975356 -0.007633 0.253546 0.967293 -0.699747 0.031605 0.713691 0.10312 -0.04326 0.993728 -0.524856 0.118963 0.842837 0.106517 -0.074624 0.991507 -0.020545 0.252737 0.967317 0.020485 0.041995 0.998908 0.11745 -0.097362 0.988295 0.007714 0.071757 0.997392 -0.016793 0.054978 0.998346 0.048264 -0.093119 0.994485 0.005035 -0.571771 0.820398 0.102726 0.003038 0.994705 -0.11532 -0.046691 0.99223 0.072686 0.004554 0.997344 0.095534 -0.045612 0.994381 0.994903 -0.064904 0.077169 -0.022102 0.286362 0.957867 -0.022852 -0.167111 0.985673 0.003983 -0.002586 0.999989 -0.01243 -0.059843 0.99813 0.014029 -0.167198 0.985823 -0.407341 0.27197 0.871841 0.009275 -0.128719 0.991638 -0.031053 -0.005107 0.999505 -0.991768 -0.101014 0.078691 0.01393 -0.683063 0.730227 -0.004629 -0.5062 0.862403 0.999348 -0.008668 -0.035042 0.999825 0.006481 -0.017537 0.999927 -0.007923 -0.009086 0.925146 -0.072111 -0.372698 0.345026 -0.938593 -0.000924 -0.180591 -0.006639 -0.983536 0.395243 0.001614 -0.918575 0.002741 -0.997164 0.075212 0.001966 -0.999998 0.000754 -0.587489 0.503217 0.633742 -0.941538 -0.336906 -0.000553 -0.999069 -0.043091 -0.002005 -0.997926 -0.064365 -0.000134 0.002677 -0.999996 0.000063 -0.994847 -0.10137 -0.00213 0.999592 -0.000069 0.028574 0.999479 0.000443 0.032276 0.999672 0.000673 0.025595 -0.000051 0.164 -0.98646 -0.021766 -0.198618 -0.979835 -0.004735 -0.739624 -0.673004 0.003029 0.362841 -0.931846 0.003598 -0.205647 -0.97862 -0.002848 0.969707 -0.244254 0.001943 0.068141 -0.997674 0.00519 0.068118 -0.997664 0.999856 0.015837 -0.006019 0.999926 -0.010552 -0.006004 0.998482 0.040099 0.037748 0.829091 -0.010553 0.559014 0.986177 0.000461 0.165693 0.918475 0.036654 0.393777 0.99916 -0.022587 -0.034186 -0.001177 0.999999 -0.000942 0.050993 0.009547 0.998653 0.037557 0.037236 0.9986 0.028701 0.032537 0.999058 0.09074 0.113488 0.989387 -0.270831 -0.000997 0.962626 0.001501 -0.155994 0.987757 0.005443 -0.110736 0.993835 -0.721681 0.001817 0.692224 0.471146 -0.001204 0.882054 0.681126 0.029263 0.731581 -0.994673 0.103062 -0.001923 -0.685315 -0.214844 0.695834 -0.143338 -0.020347 0.989465 0.002002 -0.995106 -0.098795 0.001815 0.309614 0.950861 0.641044 -0.365782 0.674734 0.016114 0.010829 0.999812 -0.002616 -0.311505 0.950241 0.004892 -0.318931 0.947765 0.008685 -0.35009 0.936676 -0.008193 0.304607 0.952443 0.010774 0.196451 0.980455 -0.99989 -0.004422 0.01416 -0.999908 -0.000542 0.013517 -0.984856 0.172735 -0.01491 -0.999712 -0.02173 -0.010184 0.572211 -0.06735 0.817336 -0.025174 -0.002136 0.999681 -0.1197 0.266059 0.956496 0.003548 -0.114634 0.993401 0.736668 -0.003039 -0.676248 -0.996383 -0.011049 -0.08426 0.994707 -0.078254 0.06659 0.726621 -0.104061 -0.679113 0.989975 0.035546 0.136699 -0.780768 0.527112 -0.335489 0.374713 0.010358 0.927083 0.98318 0.082887 -0.16275 0.901574 -0.000696 0.432624 -0.868999 0.008038 0.494748 -0.070851 -0.304469 0.949883 -0.963629 -0.043152 -0.263738 -0.924006 0.08269 -0.373331 -0.153676 -0.966988 0.203268 -0.962491 0.000113 0.271314 -0.999313 -0.033508 -0.01584 -0.999057 -0.033876 0.027159 -0.999128 -0.035252 0.022394 -0.525389 0.7551 0.392161 0.908832 0.123779 0.398376 -0.98769 0.045993 -0.14951 0.575826 0.177805 0.798003 0.72223 -0.624983 0.296275 -0.827925 -0.011978 0.56071 -0.432282 0.009078 0.901693 0.024742 0.001818 0.999692 0.024327 0.306801 0.951463 -0.747518 -0.159381 0.644837 -0.619186 -0.027631 0.784758 -0.001133 0.170678 0.985326 0.005422 0.139728 0.990175 -0.033763 0.020584 0.999218 -0.303569 -0.10836 0.946628 0.004335 0.228114 0.973625 0.00279 0.219188 0.975679 -0.698539 -0.715491 0.010726 0.419782 0.304465 0.855035 0.042718 0.009073 -0.999046 -0.966477 -0.112903 -0.230599 -0.996684 0.015112 0.079957 -0.999999 0.000672 0.001511 -0.65747 0.034544 0.752689 0.12265 -0.820053 -0.558991 -0.305614 0.863922 0.400299 -0.355033 0.281598 -0.891434 -0.778833 0.188956 0.598093 -0.0213 -0.386662 -0.921975 0.553787 0.187554 0.81126 0.427172 0.061585 0.90207 -0.733468 0.627392 -0.261544 0.337391 0.483312 0.807822 -0.945449 0.241257 0.218909 -0.734386 0.676803 -0.051141 -0.911459 -0.275444 0.305569 0.601918 -0.008885 -0.798509 0.021336 0.209937 0.977482 0.008909 0.102405 0.994703 -0.645144 0.174093 0.743963 -0.908301 -0.009062 0.418219 -0.946865 0.019246 -0.321054 -0.785505 0.229065 0.574901 0.795152 -0.113624 -0.595671 -0.225736 0.939327 0.258279 0.918716 0.274847 0.283583 0.364604 0.492151 0.790475 0.57835 0.045543 0.814517 0.887072 0.440049 -0.139501 0.538533 0.683139 0.493257 0.000022 0.132855 0.991136 0.427224 -0.126438 0.895262 -0.515826 -0.684663 -0.514936 0.261671 0.544205 0.7971 -0.151474 0.668936 0.727723 0.95555 0.093656 0.279557 -0.155379 -0.885918 -0.437044 0.032116 -0.004334 0.999475 0.244713 -0.07277 0.966861 0.750676 0.102944 -0.652601 0.274499 -0.075526 0.958617 0.906773 0.178128 -0.382143 0.61265 0.246183 -0.751035 0.040785 0.022375 0.998917 0.354138 -0.020641 0.934965 0.994598 0.005783 0.103645 -0.901453 -0.074074 0.426492 0.004954 -0.644005 0.765005</float_array>
          <technique_common>
            <accessor source="#Closet5-mesh-normals-array" count="500" stride="3">
              <param name="X" type="float"/>
              <param name="Y" type="float"/>
              <param name="Z" type="float"/>
            </accessor>
          </technique_common>
        </source>
        <source id="Closet5-mesh-map-0">
          <float_array id="Closet5-mesh-map-0-array" count="3000">0.373404 0.535276 0.412721 0.511053 0.417219 0.471263 0.521119 0.311255 0.528691 0.401329 0.528925 0.449436 0.520642 0.522526 0.520488 0.23809 0.521119 0.311255 0.528052 0.289489 0.521119 0.311255 0.530162 0.252634 0.521119 0.311255 0.520488 0.23809 0.530162 0.252634 0.522684 0.514415 0.521119 0.311255 0.528925 0.449436 0.528925 0.449436 0.658493 0.401112 0.658581 0.448847 0.528925 0.449436 0.658581 0.448847 0.665466 0.498401 0.603448 0.517941 0.529354 0.549017 0.528925 0.449436 0.528925 0.449436 0.528691 0.401329 0.658581 0.289381 0.033801 0.118935 0.193064 0.103536 0.045705 0.000885 0.529354 0.549017 0.528925 0.449436 0.527227 0.580035 0.527227 0.580035 0.529354 0.549017 0.594501 0.578231 0.523534 0.573274 0.528925 0.449436 0.527227 0.580035 0.529354 0.549017 0.600627 0.536732 0.594458 0.54888 0.520488 0.23809 0.663465 0.23767 0.595143 0.290502 0.595143 0.290502 0.663465 0.23767 0.65906 0.252974 0.658581 0.289381 0.65906 0.252974 0.663465 0.23767 0.65906 0.252974 0.658581 0.289381 0.528691 0.401329 0.528691 0.401329 0.595143 0.290502 0.65906 0.252974 0.528052 0.289489 0.530162 0.252634 0.595143 0.290502 0.530162 0.252634 0.520488 0.23809 0.595143 0.290502 0.528052 0.289489 0.595143 0.290502 0.521119 0.311255 0.658581 0.448847 0.658581 0.289381 0.66614 0.446761 0.658493 0.401112 0.528925 0.449436 0.658581 0.289381 0.658493 0.401112 0.658581 0.289381 0.658581 0.448847 0.658581 0.289381 0.663465 0.23767 0.666263 0.393912 0.521119 0.311255 0.595143 0.290502 0.528691 0.401329 0.045705 0.000885 0.193064 0.103536 0.249947 0.038009 0.508798 0.456866 0.520488 0.23809 0.520642 0.522526 0.520642 0.522526 0.521119 0.311255 0.521306 0.460323 0.508798 0.456866 0.507959 0.297587 0.520488 0.23809 0.940083 0.125283 0.933678 0.031297 0.729625 0.036439 0.079864 0.203221 0.085411 0.195661 0.075689 0.192267 0.543648 0.106923 0.550268 0.113269 0.55314 0.104052 0.634479 0.20287 0.62906 0.200686 0.628954 0.206005 0.948862 0.253342 0.9499 0.30644 0.940131 0.256811 0.944768 0.306439 0.940131 0.256811 0.9499 0.30644 0.878873 0.255816 0.871398 0.259047 0.870044 0.260498 0.839093 0.253082 0.870044 0.260498 0.878873 0.255816 0.064951 0.291666 0.065539 0.271719 0.06606 0.292693 0.843676 0.25632 0.870044 0.260498 0.839093 0.253082 0.957752 0.048151 0.958527 0.043431 0.957752 0.041217 0.843676 0.25632 0.845296 0.261913 0.8425 0.258128 0.468223 0.653307 0.473317 0.654993 0.476466 0.653369 0.334771 0.381646 0.336092 0.378884 0.327881 0.376361 0.839508 0.262078 0.845296 0.261913 0.8425 0.258128 0.839508 0.262078 0.879017 0.262589 0.870044 0.260498 0.870044 0.260498 0.879017 0.262589 0.871398 0.259047 0.839508 0.262078 0.870044 0.260498 0.845296 0.261913 0.525611 0.584733 0.527227 0.580035 0.594501 0.578231 0.594501 0.578231 0.529354 0.549017 0.594458 0.54888 0.873561 0.952265 0.923651 0.94787 0.910383 0.944231 0.458438 0.847736 0.453781 0.827795 0.460227 0.828085 0.202867 0.953535 0.209648 0.928877 0.210072 0.950888 0.473687 0.656528 0.467971 0.658725 0.474571 0.657908 0.101841 0.518629 0.100388 0.522727 0.102309 0.520851 0.42283 0.557463 0.428226 0.552461 0.421588 0.552045 0.204114 0.930875 0.201455 0.9255 0.209648 0.928877 0.204114 0.930875 0.209648 0.928877 0.202867 0.953535 0.007654 0.682699 0.00964 0.664547 0.012267 0.682716 0.445165 0.995636 0.448588 0.991052 0.45222 0.995694 0.625952 0.57795 0.622231 0.585901 0.622596 0.572296 0.334665 0.358046 0.335485 0.352029 0.327881 0.376361 0.22401 0.669266 0.227252 0.668737 0.224189 0.689146 0.224189 0.689146 0.227252 0.668737 0.227518 0.689496 0.829611 0.528073 0.831035 0.520926 0.827396 0.520628 0.847373 0.173441 0.846049 0.171429 0.839054 0.172793 0.847373 0.173441 0.839054 0.172793 0.838053 0.175914 0.371893 0.085891 0.369632 0.090003 0.373993 0.080983 0.623503 0.569639 0.626265 0.569459 0.625952 0.57795 0.623503 0.569639 0.625952 0.57795 0.622596 0.572296 0.571299 0.935024 0.64151 0.925114 0.640558 0.957243 0.874312 0.975732 0.880308 0.973528 0.863475 0.971938 0.635779 0.964611 0.627918 0.967701 0.640558 0.957243 0.4104 0.564978 0.411055 0.564525 0.348151 0.56361 0.627918 0.967701 0.635779 0.964611 0.645252 0.975481 0.645252 0.975481 0.573151 0.962288 0.571299 0.935024 0.50802 0.960794 0.508981 0.931008 0.573151 0.962288 0.348151 0.56361 0.266399 0.564075 0.4104 0.564978 0.573151 0.962288 0.645252 0.975481 0.501789 0.974292 0.635081 0.835281 0.571299 0.935024 0.505726 0.842219 0.635081 0.835281 0.640558 0.957243 0.64151 0.925114 0.640558 0.957243 0.645252 0.975481 0.64192 0.962179 0.508981 0.931008 0.559349 0.938266 0.573151 0.962288 0.505726 0.842219 0.559349 0.938266 0.508981 0.931008 0.510109 0.962177 0.573151 0.962288 0.501789 0.974292 0.17093 0.854006 0.190897 0.856682 0.19889 0.858227 0.501789 0.974292 0.505726 0.842219 0.508981 0.931008 0.50802 0.960794 0.501789 0.974292 0.508981 0.931008 0.346934 0.380163 0.347066 0.36106 0.347547 0.374661 0.104575 0.256104 0.057884 0.222831 0.095851 0.257611 0.087325 0.26634 0.057884 0.222831 0.07022 0.266124 0.116937 0.25472 0.057884 0.222831 0.104575 0.256104 0.066469 0.59648 0.139924 0.608228 0.398816 0.610729 0.172662 0.967346 0.41632 0.920977 0.413167 0.911333 0.187836 0.871301 0.370639 0.930381 0.295658 0.897493 0.377593 0.832075 0.434976 0.747293 0.393331 0.792448 0.121886 0.12916 0.109459 0.129689 0.188164 0.129667 0.701772 0.543141 0.705234 0.558634 0.674541 0.558508 0.705234 0.558634 0.681007 0.443551 0.757496 0.56515 0.431603 0.300886 0.444411 0.300586 0.426626 0.300676 0.204792 0.552454 0.207168 0.549398 0.194021 0.549989 0.190233 0.552636 0.194021 0.549989 0.188976 0.548813 0.25687 0.983259 0.248386 0.98264 0.25534 0.985548 0.674455 0.479924 0.681007 0.443551 0.674541 0.558508 0.426378 0.305511 0.419538 0.304128 0.305469 0.305335 0.528951 0.083935 0.401048 0.085784 0.52644 0.085846 0.389409 0.972605 0.390343 0.976508 0.400502 0.971877 0.36445 0.369446 0.361229 0.372248 0.375728 0.372789 0.205481 0.274125 0.203208 0.118749 0.211919 0.288583 0.211919 0.288583 0.34218 0.276615 0.205481 0.274125 0.34218 0.276615 0.211919 0.288583 0.342765 0.289494 0.205481 0.274125 0.343018 0.131415 0.204449 0.131455 0.204449 0.131455 0.203208 0.118749 0.205481 0.274125 0.647308 0.726853 0.648205 0.73573 0.647295 0.955734 0.647308 0.726853 0.647295 0.955734 0.640558 0.957243 0.647308 0.726853 0.640558 0.957243 0.635081 0.835281 0.640892 0.784882 0.647308 0.726853 0.635081 0.835281 0.786355 0.622246 0.759599 0.591052 0.756959 0.580869 0.786355 0.622246 0.756959 0.580869 0.757496 0.56515 0.757496 0.56515 0.756959 0.580869 0.755759 0.571014 0.420652 0.934276 0.421949 0.939163 0.428698 0.93444 0.757496 0.56515 0.755759 0.571014 0.706359 0.562344 0.757496 0.56515 0.778338 0.471904 0.786355 0.622246 0.706359 0.562344 0.755759 0.571014 0.70391 0.569583 0.70391 0.569583 0.674541 0.558508 0.705234 0.558634 0.786355 0.622246 0.705271 0.587494 0.755599 0.588161 0.705271 0.587494 0.786355 0.622246 0.674399 0.622239 0.77378 0.238689 0.765538 0.242197 0.773245 0.188845 0.765538 0.242197 0.765408 0.18568 0.773245 0.188845 0.75454 0.573054 0.756959 0.580869 0.70696 0.572833 0.756959 0.580869 0.703744 0.582986 0.70696 0.572833 0.705283 0.580541 0.674869 0.583066 0.70391 0.569583 0.434078 0.560096 0.444581 0.567411 0.44845 0.558937 0.70391 0.569583 0.674869 0.583066 0.674541 0.558508 0.674869 0.583066 0.705271 0.587494 0.674399 0.622239 0.23103 0.871543 0.231016 0.823113 0.239517 0.821994 0.239517 0.821994 0.231016 0.823113 0.233093 0.81628 0.240837 0.870903 0.23103 0.871543 0.239517 0.821994 0.983405 0.229145 0.984109 0.222265 0.984127 0.258745 0.343018 0.131415 0.205481 0.274125 0.34218 0.276615 0.34218 0.276615 0.342765 0.289494 0.484383 0.289395 0.444721 0.635983 0.442248 0.633201 0.445349 0.622111 0.514489 0.61929 0.60355 0.62099 0.511376 0.634895 0.250669 0.452886 0.184999 0.453449 0.329302 0.453544 0.657024 0.986077 0.6517 0.873029 0.648102 0.635457 0.637399 0.637495 0.647671 0.620214 0.643691 0.634425 0.652833 0.606076 0.648102 0.635457 0.503146 0.619355 0.789661 0.341776 0.792327 0.33348 0.792398 0.352025 0.647671 0.620214 0.648147 0.634639 0.643691 0.634425 0.369374 0.907036 0.370121 0.908609 0.378592 0.866425 0.939439 0.916636 0.907845 0.917296 0.92854 0.917068 0.388866 0.814973 0.369374 0.907036 0.380164 0.859005 0.339158 0.787124 0.371531 0.835879 0.392371 0.79267 0.50087 0.944895 0.63934 0.978039 0.490146 0.985692 0.159361 0.301259 0.175896 0.301247 0.1147 0.295024 0.175896 0.301247 0.175324 0.305523 0.419538 0.304128 0.175896 0.301247 0.419538 0.304128 0.1147 0.295024 0.594329 0.734419 0.594944 0.746518 0.594961 0.827042 0.63934 0.978039 0.657024 0.986077 0.490146 0.985692 0.128108 0.434046 0.28619 0.44431 0.496192 0.448093 0.174333 0.44254 0.285972 0.448345 0.128108 0.434046 0.212027 0.531744 0.22014 0.530677 0.224021 0.528332 0.285972 0.448345 0.28619 0.44431 0.128108 0.434046 0.748404 0.680114 0.747233 0.686532 0.779725 0.672544 0.901533 0.54827 0.913345 0.546723 0.917574 0.549592 0.983638 0.712782 0.984806 0.71285 0.983841 0.713829 0.984806 0.71285 0.984312 0.714312 0.983841 0.713829 0.984312 0.714312 0.984806 0.71285 0.984864 0.713067 0.678682 0.993119 0.677795 0.992744 0.677711 0.99548 0.055033 0.821002 0.05579 0.820124 0.056202 0.821059 0.388658 0.409476 0.388658 0.413328 0.388211 0.412188 0.984312 0.714312 0.983277 0.716997 0.982695 0.714481 0.388658 0.409476 0.38876 0.411668 0.388658 0.413328 0.91764 0.543342 0.917574 0.549592 0.913345 0.546723 0.054877 0.821734 0.055033 0.821002 0.051838 0.821501 0.055033 0.821002 0.05579 0.820124 0.051838 0.821501 0.983841 0.713829 0.982695 0.714481 0.984312 0.714312 0.901963 0.543146 0.913345 0.546723 0.901533 0.54827 0.901963 0.543146 0.91333 0.543242 0.913345 0.546723 0.747233 0.686532 0.780466 0.789378 0.779725 0.672544 0.985426 0.712578 0.983374 0.605152 0.983638 0.712782 0.982695 0.714481 0.983374 0.605152 0.983638 0.712782 0.143977 0.871408 0.143001 0.885391 0.140301 0.886429 0.677795 0.992744 0.565984 0.995364 0.677711 0.99548 0.985426 0.712578 0.983638 0.712782 0.984806 0.71285 0.984806 0.71285 0.985426 0.712578 0.984864 0.713067 0.12856 0.433995 0.15657 0.443284 0.156858 0.439369 0.125139 0.441899 0.15657 0.443284 0.12856 0.433995 0.156858 0.439369 0.174333 0.44254 0.128108 0.434046 0.982695 0.714481 0.983277 0.716997 0.982617 0.725803 0.511545 0.239955 0.510871 0.215853 0.512016 0.238152 0.511545 0.239955 0.504179 0.202605 0.510871 0.215853 0.510871 0.215853 0.504179 0.202605 0.512016 0.202234 0.458826 0.955567 0.45672 0.961094 0.449921 0.954907 0.748404 0.680114 0.779725 0.672544 0.781232 0.661207 0.749254 0.666693 0.748404 0.680114 0.781232 0.661207 0.7491 0.658354 0.749254 0.666693 0.781232 0.661207 0.7491 0.658354 0.781232 0.661207 0.780438 0.626689 0.6975 0.668794 0.749254 0.666693 0.696052 0.659333 0.696052 0.659333 0.749254 0.666693 0.743645 0.658916 0.7483 0.705785 0.780466 0.789378 0.747233 0.686532 0.780466 0.789378 0.747366 0.915044 0.7804 0.801823 0.255541 0.635564 0.254846 0.625339 0.271291 0.62968 0.255541 0.635564 0.271291 0.62968 0.28368 0.633645 0.285462 0.647677 0.255541 0.635564 0.28368 0.633645 0.819271 0.441167 0.807372 0.435283 0.806448 0.17335 0.806448 0.17335 0.820607 0.1599 0.819271 0.441167 0.518186 0.180208 0.518013 0.197688 0.522397 0.198082 0.514357 0.048663 0.51991 0.049367 0.556309 0.048696 0.120221 0.195354 0.101236 0.191908 0.101025 0.197792 0.380538 0.013482 0.394784 0.023413 0.404264 0.015716 0.810956 0.463817 0.818217 0.455701 0.798837 0.455701 0.768391 0.471981 0.681007 0.443551 0.746549 0.456637 0.755684 0.455503 0.768391 0.471981 0.746549 0.456637 0.77269 0.408718 0.767523 0.426564 0.755952 0.396271 0.768391 0.471981 0.755684 0.455503 0.767523 0.426564 0.394186 0.872496 0.394186 0.887697 0.385801 0.885664 0.755684 0.455503 0.755952 0.396271 0.767523 0.426564 0.746972 0.451268 0.681007 0.443551 0.755952 0.396271 0.728016 0.386068 0.744818 0.343304 0.708159 0.411998 0.211351 0.356134 0.231244 0.355644 0.208083 0.355098 0.916006 0.25223 0.911164 0.252791 0.914499 0.256769 0.985303 0.850486 0.984208 0.858126 0.98476 0.892268 0.322093 0.770031 0.329968 0.7764 0.327842 0.77115 0.917038 0.234984 0.920713 0.239846 0.915974 0.228074 0.786355 0.622246 0.778338 0.471904 0.777872 0.425803 0.216551 0.910481 0.219115 0.903475 0.22562 0.906091 0.225831 0.942834 0.228347 0.91444 0.227975 0.948143 0.175324 0.305523 0.286485 0.305187 0.289431 0.301049 0.289431 0.301049 0.175324 0.305523 0.419538 0.304128 0.490606 0.610603 0.652833 0.606076 0.503146 0.619355 0.289431 0.301049 0.300005 0.300735 0.419538 0.304128 0.304687 0.300699 0.305469 0.305335 0.419538 0.304128 0.426626 0.300676 0.444411 0.300586 0.459412 0.295884 0.496192 0.448093 0.495482 0.402927 0.481811 0.435019 0.334284 0.969569 0.243023 0.970318 0.302639 0.970335 0.481811 0.435019 0.493668 0.383213 0.484101 0.320889 0.484101 0.320889 0.495776 0.315612 0.500767 0.309618 0.484101 0.320889 0.462068 0.313244 0.453164 0.31787 0.462068 0.313244 0.484101 0.320889 0.500767 0.309618 0.066469 0.59648 0.052787 0.723768 0.13759 0.648818 0.062418 0.602816 0.139924 0.608228 0.066469 0.59648 0.052787 0.723768 0.065266 0.73346 0.126045 0.689869 0.13759 0.648818 0.052787 0.723768 0.126045 0.689869 0.387209 0.00963 0.42752 0.010719 0.425848 0.00963 0.165996 0.962171 0.154381 0.92747 0.165267 0.950668 0.154381 0.92747 0.165927 0.928088 0.165267 0.950668 0.032466 0.300934 0.032852 0.653149 0.030316 0.36524 0.710234 0.626488 0.664451 0.691028 0.693564 0.666436 0.94821 0.894546 0.943599 0.882101 0.950598 0.893963 0.689742 0.68059 0.664451 0.691028 0.693564 0.666436 0.695918 0.684521 0.688998 0.690373 0.708943 0.698664 0.552383 0.210453 0.557684 0.212402 0.55827 0.203637 0.950598 0.893963 0.943599 0.882101 0.971184 0.884862 0.875681 0.545253 0.877573 0.545403 0.855707 0.543995 0.165996 0.962171 0.155258 0.965823 0.154381 0.92747 0.082951 0.559158 0.072655 0.567295 0.147738 0.581077 0.072655 0.567295 0.147582 0.59243 0.147738 0.581077 0.671768 0.768708 0.677067 0.763964 0.708943 0.698664 0.671768 0.768708 0.664812 0.703733 0.708943 0.698664 0.708943 0.698664 0.664812 0.703733 0.688998 0.690373 0.111575 0.948275 0.119095 0.938342 0.10637 0.938481 0.673402 0.785864 0.671768 0.768708 0.672506 0.827611 0.032852 0.653149 0.031011 0.458433 0.030316 0.36524 0.031011 0.458433 0.032852 0.653149 0.029962 0.500922 0.664282 0.919655 0.695294 0.915477 0.672506 0.827611 0.686881 0.016905 0.545368 0.01748 0.700348 0.016794 0.695918 0.684521 0.708943 0.698664 0.747233 0.686532 0.987871 0.172148 0.906843 0.172964 0.945695 0.172315 0.966815 0.860076 0.798018 0.860271 0.797633 0.720032 0.998618 0.015385 0.998594 0.183971 0.987236 0.027539 0.998594 0.183971 0.987871 0.172148 0.987236 0.027539 0.987871 0.172148 0.986823 0.171618 0.987236 0.027539 0.797633 0.720032 0.798502 0.581073 0.96802 0.583894 0.968195 0.720253 0.797633 0.720032 0.96802 0.583894 0.090566 0.9895 0.092824 0.994732 0.41632 0.920977 0.342967 0.118697 0.343018 0.131415 0.484383 0.118575 0.051015 0.877521 0.079886 0.997641 0.090566 0.9895 0.343018 0.131415 0.342967 0.118697 0.203208 0.118749 0.343018 0.131415 0.203208 0.118749 0.204449 0.131455 0.060637 0.871285 0.051015 0.877521 0.075789 0.942176 0.744818 0.343304 0.704917 0.329892 0.754852 0.327616 0.124467 0.421832 0.119768 0.428591 0.20856 0.426539 0.119768 0.428591 0.496192 0.448093 0.481811 0.435019 0.785677 0.271197 0.757935 0.333631 0.755812 0.323273 0.785677 0.271197 0.755812 0.323273 0.757155 0.310682 0.311691 0.327221 0.319662 0.324071 0.31978 0.329664 0.785677 0.271197 0.757155 0.310682 0.755635 0.300357 0.785677 0.271197 0.755635 0.300357 0.744011 0.283524 0.123331 0.306118 0.157164 0.305611 0.159361 0.301259 0.123331 0.306118 0.159361 0.301259 0.1147 0.295024 0.778162 0.40182 0.757935 0.333631 0.785677 0.271197 0.757935 0.333631 0.778162 0.40182 0.755952 0.396271 0.791217 0.776154 0.791354 0.820663 0.793327 0.953669 0.809455 0.895447 0.816749 0.892566 0.812688 0.899504 0.778162 0.40182 0.77269 0.408718 0.755952 0.396271 0.119768 0.428591 0.124691 0.305133 0.1145 0.432502 0.027519 0.761556 0.02352 0.772415 0.023043 0.763834 0.063953 0.846302 0.059302 0.83437 0.062869 0.819133 0.129056 0.963021 0.12907 0.97265 0.125194 0.969436 0.677067 0.763964 0.780466 0.789378 0.711129 0.739038 0.677067 0.763964 0.70932 0.790843 0.780466 0.789378 0.68272 0.781075 0.708272 0.810221 0.677067 0.763964 0.677067 0.763964 0.711129 0.739038 0.711958 0.723715 0.732908 0.724645 0.737958 0.735958 0.7483 0.705785 0.724445 0.739081 0.711129 0.739038 0.72326 0.745903 0.421469 0.323579 0.445378 0.329878 0.433112 0.324236 0.737958 0.735958 0.780466 0.789378 0.7483 0.705785 0.708943 0.698664 0.677067 0.763964 0.711958 0.723715 0.723151 0.705688 0.732908 0.724645 0.7483 0.705785 0.723151 0.705688 0.708943 0.698664 0.711958 0.723715 0.837112 0.41734 0.839801 0.428798 0.838784 0.446024 0.529845 0.183744 0.529845 0.193808 0.527074 0.192105 0.747233 0.686532 0.708943 0.698664 0.73658 0.698908 0.708272 0.810221 0.747366 0.915044 0.780466 0.789378 0.704917 0.329892 0.744818 0.343304 0.719504 0.341496 0.744011 0.283524 0.755635 0.300357 0.720324 0.283685 0.757155 0.310682 0.70349 0.310039 0.743592 0.302128 0.743592 0.302128 0.70349 0.310039 0.705764 0.303144 0.88682 0.326568 0.879132 0.331253 0.886881 0.276724 0.879132 0.331253 0.87882 0.27338 0.886881 0.276724 0.560912 0.074261 0.565546 0.076836 0.574583 0.073485 0.72372 0.298978 0.674101 0.303817 0.674142 0.274327 0.478828 0.609249 0.464927 0.605027 0.478311 0.603938 0.72372 0.298978 0.70349 0.310039 0.674101 0.303817 0.704917 0.329892 0.674802 0.315147 0.704067 0.323723 0.704067 0.323723 0.674802 0.315147 0.674101 0.303817 0.70349 0.310039 0.704067 0.323723 0.674101 0.303817 0.720324 0.283685 0.755635 0.300357 0.72372 0.298978 0.720324 0.283685 0.72372 0.298978 0.674142 0.274327 0.706368 0.315119 0.754735 0.315201 0.704067 0.323723 0.754735 0.315201 0.755812 0.323273 0.704067 0.323723 0.704917 0.329892 0.687112 0.403262 0.674802 0.315147 0.704917 0.329892 0.719504 0.341496 0.687112 0.403262 0.674802 0.315147 0.687112 0.403262 0.674069 0.427647 0.781314 0.935486 0.749611 0.946669 0.780891 0.978695 0.275045 0.904907 0.281387 0.902492 0.281783 0.905624 0.748289 0.938014 0.749611 0.946669 0.781314 0.935486 0.749012 0.925376 0.777103 0.927767 0.747366 0.915044 0.749012 0.925376 0.748289 0.938014 0.781314 0.935486 0.749012 0.925376 0.781314 0.935486 0.777103 0.927767 0.696209 0.918148 0.749012 0.925376 0.74648 0.918742 0.694098 0.93743 0.664282 0.919655 0.694313 0.944452 0.664282 0.919655 0.780891 0.978695 0.749611 0.946669 0.664282 0.919655 0.694098 0.93743 0.693895 0.928929 0.470623 0.765437 0.468944 0.765854 0.47074 0.772811 0.696047 0.929923 0.694098 0.93743 0.746489 0.930172 0.746489 0.930172 0.694098 0.93743 0.748289 0.938014 0.637399 0.637495 0.60237 0.672688 0.59418 0.680061 0.637399 0.637495 0.576742 0.672504 0.511376 0.634895 0.576742 0.672504 0.637399 0.637495 0.584693 0.680109 0.640558 0.957243 0.64617 0.975734 0.645252 0.975481 0.591443 0.97571 0.647295 0.955734 0.50087 0.944895 0.066469 0.59648 0.398816 0.610729 0.321557 0.6002 0.408287 0.599052 0.066469 0.59648 0.374586 0.599667 0.484083 0.276629 0.34218 0.276615 0.484383 0.289395 0.34218 0.276615 0.484079 0.131598 0.343018 0.131415 0.421048 0.586824 0.486603 0.581664 0.47764 0.576362 0.659203 0.151958 0.806596 0.157809 0.820607 0.1599 0.806448 0.17335 0.646959 0.152418 0.820607 0.1599 0.695661 0.168489 0.646959 0.152418 0.806448 0.17335 0.484083 0.276629 0.484079 0.131598 0.34218 0.276615 0.646959 0.152418 0.659203 0.151958 0.820607 0.1599 0.490606 0.610603 0.503146 0.619355 0.489502 0.77807 0.503146 0.619355 0.50087 0.944895 0.487806 0.968943 0.488447 0.833439 0.503146 0.619355 0.487806 0.968943 0.459023 0.727909 0.418508 0.911816 0.425156 0.918263 0.412203 0.608041 0.404904 0.612828 0.47825 0.702475 0.425857 0.64321 0.434976 0.747293 0.404904 0.612828 0.021194 0.540957 0.020543 0.510295 0.021318 0.480354 0.44921 0.72795 0.434976 0.747293 0.433022 0.661652 0.980737 0.326646 0.951013 0.402155 0.969926 0.352813 0.404904 0.612828 0.434976 0.747293 0.47825 0.702475 0.434976 0.747293 0.418508 0.911816 0.459023 0.727909 0.573334 0.757041 0.505726 0.842219 0.511619 0.782383 0.508096 0.704605 0.556194 0.692387 0.511619 0.782383 0.511376 0.634895 0.556194 0.692387 0.510984 0.671863 0.820629 0.505161 0.819767 0.489077 0.821318 0.445686 0.820629 0.505161 0.821318 0.445686 0.821325 0.493289 0.514489 0.61929 0.511376 0.634895 0.510984 0.671863 0.511376 0.634895 0.576742 0.672504 0.556194 0.692387 0.966815 0.860076 0.797633 0.720032 0.968195 0.720253 0.119095 0.938342 0.111575 0.948275 0.139164 0.943323 0.68272 0.781075 0.697371 0.808083 0.708272 0.810221 0.68272 0.781075 0.682798 0.828541 0.697371 0.808083 0.671768 0.768708 0.673402 0.785864 0.68272 0.781075 0.128108 0.434046 0.496192 0.448093 0.119768 0.428591 0.076594 0.562577 0.11975 0.445242 0.128108 0.434046 0.076594 0.562577 0.082951 0.559158 0.11975 0.445242 0.326962 0.449899 0.425838 0.449853 0.304169 0.444885 0.425838 0.449853 0.496192 0.448093 0.304169 0.444885 0.425838 0.449853 0.439551 0.449779 0.496192 0.448093 0.188164 0.129667 0.179549 0.209301 0.18827 0.273359 0.143001 0.885391 0.143695 0.88761 0.140301 0.886429 0.476854 0.766542 0.476919 0.890092 0.474775 0.891606 0.343018 0.131415 0.484079 0.131598 0.484383 0.118575 0.244521 0.915767 0.25988 0.911898 0.296013 0.918041 0.664282 0.919655 0.694744 0.924826 0.695294 0.915477 0.702558 0.819609 0.695294 0.915477 0.747366 0.915044 0.694744 0.924826 0.749012 0.925376 0.696209 0.918148 0.239047 0.651463 0.23062 0.623683 0.240303 0.599039 0.689742 0.68059 0.748404 0.680114 0.747151 0.672648 0.55827 0.203637 0.557684 0.212402 0.609365 0.203367 0.557684 0.212402 0.612985 0.211287 0.609365 0.203367 0.25242 0.648882 0.255541 0.635564 0.285462 0.647677 0.150582 0.214323 0.116937 0.25472 0.179549 0.209301 0.179549 0.209301 0.175596 0.266294 0.18827 0.273359 0.179549 0.209301 0.116937 0.25472 0.144732 0.266137 0.335531 0.77299 0.327842 0.77115 0.329968 0.7764 0.274634 0.580635 0.421048 0.586824 0.201137 0.567472 0.188002 0.390024 0.182726 0.38871 0.154749 0.389518 0.694313 0.944452 0.664282 0.919655 0.749611 0.946669 0.12622 0.801889 0.125355 0.801791 0.12511 0.80672 0.127536 0.550758 0.08984 0.550542 0.127397 0.549312 0.459992 0.397011 0.459302 0.395653 0.460078 0.395609 0.12511 0.80672 0.125355 0.801791 0.124911 0.801902 0.127536 0.550758 0.13084 0.548432 0.128186 0.549278 0.124911 0.801902 0.12529 0.800928 0.125355 0.801791 0.571944 0.171418 0.538597 0.172295 0.57577 0.172062 0.127397 0.549312 0.128186 0.549278 0.13084 0.548432 0.13084 0.548432 0.08984 0.550542 0.127397 0.549312 0.292578 0.110029 0.255412 0.111337 0.292125 0.11307 0.576111 0.171429 0.57577 0.172062 0.577907 0.171669 0.297071 0.111629 0.292578 0.110029 0.294437 0.111424 0.292578 0.110029 0.293271 0.111527 0.294437 0.111424 0.020775 0.782407 0.021744 0.780046 0.022232 0.780937 0.175596 0.266294 0.116972 0.273794 0.18827 0.273359 0.179549 0.209301 0.144732 0.266137 0.175596 0.266294 0.175596 0.266294 0.144732 0.266137 0.116972 0.273794 0.144732 0.266137 0.116937 0.25472 0.116972 0.273794 0.475389 0.766875 0.474695 0.766126 0.475252 0.76752 0.453101 0.470339 0.453876 0.471179 0.453101 0.47188 0.476854 0.766542 0.475389 0.766875 0.475701 0.767416 0.474695 0.766126 0.474743 0.764212 0.476854 0.766542 0.475389 0.766875 0.474695 0.766126 0.476854 0.766542 0.475701 0.767416 0.475252 0.76752 0.474775 0.891606 0.474775 0.891606 0.474695 0.766126 0.475252 0.76752 0.7804 0.801823 0.747366 0.915044 0.777103 0.927767 0.098868 0.772691 0.149175 0.769795 0.099491 0.763085 0.118335 0.801922 0.124911 0.801902 0.12511 0.80672 0.264424 0.535499 0.272252 0.533093 0.263541 0.53283 0.710302 0.639915 0.734426 0.638824 0.780438 0.626689 0.710302 0.639915 0.780438 0.626689 0.710234 0.626488 0.710234 0.626488 0.693564 0.666436 0.710302 0.639915 0.444559 0.451859 0.482029 0.456357 0.496192 0.448093 0.449921 0.954907 0.44998 0.903358 0.458826 0.955567 0.45879 0.903318 0.458826 0.955567 0.44998 0.903358 0.915974 0.228074 0.912711 0.237421 0.917038 0.234984 0.649334 0.523199 0.649267 0.521416 0.650076 0.542291 0.182717 0.646824 0.181195 0.65306 0.184253 0.624249 0.938828 0.86438 0.934233 0.889514 0.939645 0.864172 0.987236 0.027539 0.916341 0.013528 0.998618 0.015385 0.987236 0.027539 0.91584 0.025715 0.916341 0.013528 0.143977 0.871408 0.140301 0.886429 0.13986 0.874938 0.937916 0.892128 0.935206 0.894219 0.935516 0.892068 0.935516 0.892068 0.935206 0.894219 0.934233 0.889514 0.935206 0.894219 0.934233 0.889514 0.933287 0.893381 0.939271 0.900633 0.935616 0.903293 0.935206 0.894219 0.181195 0.65306 0.178177 0.668941 0.172867 0.64891 0.935206 0.894219 0.935616 0.903293 0.933287 0.893381 0.498887 0.50925 0.498408 0.48897 0.499485 0.486585 0.510322 0.592042 0.504018 0.589764 0.510315 0.587918 0.712422 0.192536 0.718466 0.191415 0.718992 0.193692 0.986463 0.973729 0.989618 0.970254 0.984639 0.969682 0.989618 0.970254 0.984357 0.965877 0.984639 0.969682 0.522197 0.180319 0.522397 0.198082 0.518186 0.180208 0.181195 0.65306 0.184163 0.627138 0.184253 0.624249 0.486603 0.581664 0.496192 0.448093 0.47764 0.576362 0.482029 0.456357 0.47764 0.576362 0.496192 0.448093 0.456969 0.897976 0.45879 0.903318 0.44998 0.903358 0.865149 0.010754 0.865288 0.008315 0.743455 0.009447 0.424676 0.862673 0.427321 0.867471 0.426275 0.86375 0.424676 0.862673 0.424671 0.864419 0.427321 0.867471 0.427321 0.867471 0.426275 0.86375 0.429475 0.865366 0.451441 0.052773 0.451158 0.053778 0.453736 0.056362 0.217674 0.985248 0.220244 0.986643 0.215973 0.993565 0.712422 0.192536 0.714433 0.183695 0.714589 0.186691 0.148736 0.815788 0.151213 0.814242 0.155031 0.818787 0.005076 0.751782 0.009687 0.749425 0.00464 0.749071 0.156326 0.817227 0.161715 0.81454 0.155031 0.818787 0.199612 0.703749 0.201163 0.697612 0.201163 0.703775 0.009949 0.752305 0.005076 0.751782 0.009687 0.749425 0.079151 0.621917 0.081178 0.628706 0.078479 0.628746 0.400008 0.526087 0.403117 0.534028 0.40097 0.534753 0.402577 0.525975 0.403117 0.534028 0.400008 0.526087 0.611942 0.55484 0.610148 0.557195 0.620605 0.557556 0.618762 0.55752 0.611942 0.55484 0.620605 0.557556 0.421048 0.586824 0.47764 0.576362 0.201137 0.567472 0.898221 0.570648 0.899062 0.574224 0.921657 0.574699 0.985224 0.946536 0.984357 0.965877 0.981472 0.967354 0.92101 0.5706 0.898221 0.570648 0.921657 0.574699 0.195735 0.892926 0.198148 0.895002 0.174053 0.894388 0.198148 0.895002 0.175523 0.895203 0.174053 0.894388 0.708272 0.810221 0.702558 0.819609 0.747366 0.915044 0.444567 0.798063 0.44429 0.919453 0.443816 0.797182 0.475701 0.767416 0.476854 0.766542 0.474775 0.891606 0.195812 0.991283 0.192688 0.993908 0.215973 0.993565 0.823711 0.959331 0.833094 0.96017 0.824515 0.908811</float_array>
          <technique_common>
            <accessor source="#Closet5-mesh-map-0-array" count="1500" stride="2">
              <param name="S" type="float"/>
              <param name="T" type="float"/>
            </accessor>
          </technique_common>
        </source>
        <vertices id="Closet5-mesh-vertices">
          <input semantic="POSITION" source="#Closet5-mesh-positions"/>
        </vertices>
        <polylist material="Material_-1-material" count="6">
          <input semantic="VERTEX" source="#Closet5-mesh-vertices" offset="0"/>
          <input semantic="NORMAL" source="#Closet5-mesh-normals" offset="1"/>
          <input semantic="TEXCOORD" source="#Closet5-mesh-map-0" offset="2" set="0"/>
          <vcount>3 3 3 3 3 3 3 3 3 3 3 3 3 3 3 3 3 3 3 3 3 3 3 3 3 3 3 3 3 3 3 3 3 3 3 3 3 3 3 3 3 3 3 3 3 3 3 3 3 3 3 3 3 3 3 3 3 3 3 3 3 3 3 3 3 3 3 3 3 3 3 3 3 3 3 3 3 3 3 3 3 3 3 3 3 3 3 3 3 3 3 3 3 3 3 3 3 3 3 3 3 3 3 3 3 3 3 3 3 3 3 3 3 3 3 3 3 3 3 3 3 3 3 3 3 3 3 3 3 3 3 3 3 3 3 3 3 3 3 3 3 3 3 3 3 3 3 3 3 3 3 3 3 3 3 3 3 3 3 3 3 3 3 3 3 3 3 3 3 3 3 3 3 3 3 3 3 3 3 3 3 3 3 3 3 3 3 3 3 3 3 3 3 3 3 3 3 3 3 3 3 3 3 3 3 3 3 3 3 3 3 3 3 3 3 3 3 3 3 3 3 3 3 3 3 3 3 3 3 3 3 3 3 3 3 3 3 3 3 3 3 3 3 3 3 3 3 3 3 3 3 3 3 3 3 3 3 3 3 3 3 3 3 3 3 3 3 3 3 3 3 3 3 3 3 3 3 3 3 3 3 3 3 3 3 3 3 3 3 3 3 3 3 3 3 3 3 3 3 3 3 3 3 3 3 3 3 3 3 3 3 3 3 3 3 3 3 3 3 3 3 3 3 3 3 3 3 3 3 3 3 3 3 3 3 3 3 3 3 3 3 3 3 3 3 3 3 3 3 3 3 3 3 3 3 3 3 3 3 3 3 3 3 3 3 3 3 3 3 3 3 3 3 3 3 3 3 3 3 3 3 3 3 3 3 3 3 3 3 3 3 3 3 3 3 3 3 3 3 3 3 3 3 3 3 3 3 3 3 3 3 3 3 3 3 3 3 3 3 3 3 3 3 3 3 3 3 3 3 3 3 3 3 3 3 3 3 3 3 3 3 3 3 3 3 3 3 3 3 3 3 3 3 3 3 3 3 3 3 3 3 3 3 3 3 3 3 3 3 3 3 3 3 3 3 3 3 3 3 3 3 3 3 3 3 3 3 3 3 3 3 3 3 3 3 3 3 3 3 3</vcount>
          <p>0 0 0 1 0 1 2 0 2 3 1 3 4 1 4 5 1 5 6 2 6 7 2 7 3 2 8 8 3 9 3 3 10 9 3 11 3 4 12 7 4 13 9 4 14 10 5 15 3 5 16 5 5 17 5 6 18 11 6 19 12 6 20 5 7 21 12 7 22 13 7 23 14 8 24 15 8 25 5 8 26 5 9 27 4 9 28 16 9 29 17 10 30 18 10 31 19 10 32 15 11 33 5 11 34 20 11 35 20 12 36 15 12 37 21 12 38 10 13 39 5 13 40 20 13 41 15 14 42 14 14 43 22 14 44 7 15 45 23 15 46 24 15 47 24 16 48 23 16 49 25 16 50 16 17 51 25 17 52 23 17 53 25 18 54 16 18 55 4 18 56 4 19 57 24 19 58 25 19 59 8 20 60 9 20 61 24 20 62 9 21 63 7 21 64 24 21 65 8 22 66 24 22 67 3 22 68 12 23 69 16 23 70 13 23 71 11 24 72 5 24 73 16 24 74 11 25 75 16 25 76 12 25 77 16 26 78 23 26 79 13 26 80 3 27 81 24 27 82 4 27 83 19 28 84 18 28 85 26 28 86 27 29 87 7 29 88 6 29 89 6 30 90 3 30 91 28 30 92 27 31 93 29 31 94 7 31 95 17 32 96 30 32 97 31 32 98 32 33 99 33 33 100 34 33 101 35 34 102 36 34 103 32 34 104 35 35 105 32 35 106 34 35 107 37 36 108 38 36 109 39 36 110 40 37 111 39 37 112 38 37 113 42 38 114 41 38 115 43 38 116 44 39 117 43 39 118 42 39 119 45 40 120 43 40 121 46 40 122 46 41 123 43 41 124 44 41 125 47 42 126 46 42 127 44 42 128 46 43 129 48 43 130 49 43 131 46 44 132 50 44 133 51 44 134 46 45 135 45 45 136 51 45 137 47 46 138 48 46 139 49 46 140 47 47 141 52 47 142 43 47 143 43 48 144 52 48 145 41 48 146 47 49 147 43 49 148 48 49 149 10 50 150 20 50 151 21 50 152 21 51 153 15 51 154 22 51 155 53 52 156 54 52 157 55 52 158 43 53 159 45 53 160 48 53 161 48 54 162 56 54 163 57 54 164 57 55 165 48 55 166 50 55 167 48 56 168 46 56 169 50 56 170 48 57 171 51 57 172 45 57 173 41 58 174 52 58 175 56 58 176 41 59 177 56 59 178 48 59 179 51 60 180 41 60 181 48 60 182 58 61 183 44 61 184 59 61 185 57 62 186 51 62 187 49 62 188 41 63 189 42 63 190 51 63 191 56 64 192 42 64 193 57 64 194 57 65 195 42 65 196 51 65 197 56 66 198 52 66 199 42 66 200 47 67 201 49 67 202 50 67 203 47 68 204 50 68 205 57 68 206 50 69 207 51 69 208 49 69 209 46 70 210 47 70 211 57 70 212 46 71 213 57 71 214 49 71 215 60 72 216 61 72 217 62 72 218 1 73 219 61 73 220 60 73 221 63 74 222 60 74 223 62 74 224 64 75 225 65 75 226 66 75 227 60 76 228 63 76 229 64 76 230 64 77 231 67 77 232 60 77 233 68 78 234 69 78 235 67 78 236 66 79 237 70 79 238 64 79 239 67 80 240 64 80 241 70 80 242 1 81 243 60 81 244 2 81 245 1 82 246 62 82 247 61 82 248 62 83 249 64 83 250 63 83 251 69 84 252 60 84 253 67 84 254 2 85 255 60 85 256 69 85 257 68 86 258 67 86 259 70 86 260 70 87 261 71 87 262 2 87 263 70 88 264 2 88 265 69 88 266 68 89 267 70 89 268 69 89 269 72 90 270 14 90 271 73 90 272 74 91 273 5 91 274 75 91 275 75 92 276 5 92 277 13 92 278 14 93 279 5 93 280 74 93 281 76 94 282 19 94 283 26 94 284 30 95 285 27 95 286 77 95 287 30 96 288 77 96 289 31 96 290 78 97 291 79 97 292 18 97 293 28 98 294 3 98 295 10 98 296 80 99 297 81 99 298 82 99 299 81 100 300 80 100 301 83 100 302 84 101 303 85 101 304 86 101 305 87 102 306 85 102 307 84 102 308 82 103 309 84 103 310 86 103 311 82 104 312 87 104 313 84 104 314 88 105 315 80 105 316 82 105 317 82 106 318 86 106 319 89 106 320 88 107 321 82 107 322 89 107 323 89 108 324 90 108 325 88 108 326 88 109 327 90 109 328 91 109 329 92 110 330 76 110 331 93 110 332 93 111 333 94 111 334 92 111 335 94 112 336 93 112 337 95 112 338 92 113 339 96 113 340 97 113 341 97 114 342 76 114 343 92 114 344 98 115 345 99 115 346 65 115 347 98 116 348 65 116 349 62 116 350 98 117 351 62 117 352 1 117 353 0 118 354 98 118 355 1 118 356 100 119 357 101 119 358 102 119 359 100 120 360 102 120 361 83 120 362 83 121 363 102 121 364 103 121 365 102 122 366 104 122 367 103 122 368 83 123 369 103 123 370 81 123 371 83 124 372 105 124 373 100 124 374 81 125 375 103 125 376 106 125 377 106 126 378 82 126 379 81 126 380 100 127 381 107 127 382 101 127 383 107 128 384 100 128 385 108 128 386 102 129 387 101 129 388 109 129 389 101 130 390 107 130 391 109 130 392 104 131 393 102 131 394 110 131 395 102 132 396 109 132 397 110 132 398 109 133 399 87 133 400 106 133 401 109 134 402 107 134 403 87 134 404 106 135 405 87 135 406 82 135 407 87 136 408 107 136 409 108 136 410 104 137 411 110 137 412 106 137 413 106 138 414 110 138 415 109 138 416 103 139 417 104 139 418 106 139 419 111 140 420 112 140 421 95 140 422 96 141 423 92 141 424 94 141 425 94 142 426 95 142 427 112 142 428 113 143 429 99 143 430 76 143 431 114 144 432 115 144 433 116 144 434 115 145 435 114 145 436 99 145 437 113 146 438 65 146 439 99 146 440 115 147 441 99 147 442 117 147 443 76 148 444 99 148 445 114 148 446 98 149 447 115 149 448 117 149 449 99 150 450 98 150 451 117 150 452 31 151 453 77 151 454 79 151 455 31 152 456 79 152 457 78 152 458 18 153 459 31 153 460 78 153 461 17 154 462 31 154 463 18 154 464 70 155 465 65 155 466 118 155 467 119 156 468 120 156 469 118 156 470 120 157 471 121 157 472 86 157 473 120 158 474 86 158 475 118 158 476 122 159 477 123 159 478 118 159 479 65 160 480 113 160 481 118 160 482 122 161 483 124 161 484 95 161 485 125 162 486 126 162 487 122 162 488 124 163 489 127 163 490 95 163 491 126 164 492 124 164 493 122 164 494 128 165 495 129 165 496 130 165 497 131 166 498 132 166 499 125 166 500 133 167 501 134 167 502 132 167 503 134 168 504 135 168 505 132 168 506 135 169 507 134 169 508 136 169 509 136 170 510 137 170 511 125 170 512 133 171 513 136 171 514 132 171 515 138 172 516 136 172 517 132 172 518 135 173 519 138 173 520 130 173 521 138 174 522 135 174 523 136 174 524 130 175 525 125 175 526 132 175 527 130 176 528 133 176 529 125 176 530 133 177 531 136 177 532 125 177 533 132 178 534 130 178 535 135 178 536 139 179 537 132 179 538 131 179 539 139 180 540 138 180 541 132 180 542 129 181 543 126 181 544 130 181 545 137 182 546 126 182 547 133 182 548 130 183 549 126 183 550 133 183 551 126 184 552 140 184 553 127 184 554 137 185 555 126 185 556 125 185 557 137 186 558 133 186 559 134 186 560 134 187 561 137 187 562 136 187 563 122 188 564 139 188 565 131 188 566 141 189 567 139 189 568 122 189 569 131 190 570 125 190 571 122 190 572 130 191 573 138 191 574 139 191 575 142 192 576 143 192 577 144 192 578 142 193 579 145 193 580 143 193 581 143 194 582 145 194 583 141 194 584 146 195 585 128 195 586 147 195 587 128 196 588 130 196 589 139 196 590 147 197 591 128 197 592 139 197 593 145 198 594 147 198 595 139 198 596 145 199 597 139 199 598 141 199 599 142 200 600 147 200 601 148 200 602 148 201 603 147 201 604 145 201 605 149 202 606 126 202 607 129 202 608 126 203 609 150 203 610 140 203 611 74 204 612 75 204 613 13 204 614 74 205 615 13 205 616 151 205 617 73 206 618 74 206 619 151 206 620 151 207 621 13 207 622 23 207 623 23 208 624 112 208 625 151 208 626 153 209 627 152 209 628 154 209 629 105 210 630 152 210 631 155 210 632 156 211 633 152 211 634 157 211 635 83 212 636 80 212 637 158 212 638 105 213 639 83 213 640 158 213 641 158 214 642 80 214 643 159 214 644 160 215 645 158 215 646 159 215 647 161 216 648 162 216 649 163 216 650 158 217 651 160 217 652 162 217 653 159 218 654 163 218 655 160 218 656 160 219 657 163 219 658 162 219 659 159 220 660 80 220 661 163 220 662 164 221 663 163 221 664 80 221 665 156 222 666 157 222 667 165 222 668 157 223 669 152 223 670 154 223 671 158 224 672 157 224 673 162 224 674 155 225 675 162 225 676 166 225 677 158 226 678 157 226 679 167 226 680 100 227 681 105 227 682 155 227 683 152 228 684 105 228 685 158 228 686 165 229 687 157 229 688 162 229 689 121 230 690 88 230 691 91 230 692 91 231 693 121 231 694 86 231 695 93 232 696 76 232 697 114 232 698 91 233 699 90 233 700 86 233 701 90 234 702 89 234 703 86 234 704 86 235 705 85 235 706 93 235 707 95 236 708 168 236 709 100 236 710 168 237 711 95 237 712 93 237 713 100 238 714 168 238 715 108 238 716 108 239 717 168 239 718 93 239 719 108 240 720 85 240 721 87 240 722 85 241 723 108 241 724 93 241 725 76 242 726 169 242 727 170 242 728 170 243 729 19 243 730 76 243 731 169 244 732 17 244 733 19 244 734 170 245 735 169 245 736 19 245 737 171 246 738 172 246 739 173 246 740 73 247 741 174 247 742 173 247 743 174 248 744 175 248 745 173 248 746 172 249 747 171 249 748 176 249 749 172 250 750 176 250 751 142 250 752 173 251 753 177 251 754 176 251 755 175 252 756 176 252 757 142 252 758 178 253 759 174 253 760 179 253 761 174 254 762 178 254 763 175 254 764 176 255 765 177 255 766 174 255 767 176 256 768 173 256 769 175 256 770 73 257 771 151 257 772 174 257 773 172 258 774 180 258 775 173 258 776 180 259 777 73 259 778 173 259 779 58 260 780 59 260 781 179 260 782 58 261 783 176 261 784 179 261 785 179 262 786 176 262 787 174 262 788 181 263 789 42 263 790 52 263 791 47 264 792 58 264 793 52 264 794 171 265 795 58 265 796 176 265 797 58 266 798 171 266 799 52 266 800 171 267 801 181 267 802 52 267 803 177 268 804 171 268 805 173 268 806 178 269 807 179 269 808 129 269 809 6 270 810 28 270 811 10 270 812 27 271 813 180 271 814 122 271 815 180 272 816 27 272 817 182 272 818 27 273 819 6 273 820 182 273 821 6 274 822 10 274 823 182 274 824 122 275 825 118 275 826 113 275 827 183 276 828 122 276 829 113 276 830 30 277 831 29 277 832 27 277 833 169 278 834 96 278 835 29 278 836 169 279 837 29 279 838 30 279 839 96 280 840 169 280 841 76 280 842 96 281 843 76 281 844 97 281 845 17 282 846 169 282 847 30 282 848 163 283 849 184 283 850 185 283 851 186 284 852 187 284 853 100 284 854 187 285 855 95 285 856 100 285 857 186 286 858 185 286 859 188 286 860 186 287 861 188 287 862 189 287 863 189 288 864 188 288 865 190 288 866 186 289 867 189 289 868 191 289 869 186 290 870 191 290 871 192 290 872 123 291 873 193 291 874 119 291 875 123 292 876 119 292 877 118 292 878 155 293 879 185 293 880 186 293 881 185 294 882 155 294 883 163 294 884 100 295 885 155 295 886 186 295 887 155 296 888 161 296 889 166 296 890 155 297 891 161 297 892 163 297 893 187 298 894 123 298 895 122 298 896 123 299 897 187 299 898 186 299 899 186 300 900 194 300 901 123 300 902 192 301 903 194 301 904 186 301 905 59 302 906 126 302 907 36 302 908 59 303 909 195 303 910 126 303 911 44 304 912 195 304 913 59 304 914 59 305 915 36 305 916 35 305 917 34 306 918 33 306 919 149 306 920 32 307 921 36 307 922 126 307 923 32 308 924 126 308 925 33 308 926 33 309 927 126 309 928 149 309 929 179 310 930 59 310 931 35 310 932 196 311 933 34 311 934 149 311 935 196 312 936 179 312 937 35 312 938 179 313 939 196 313 940 149 313 941 196 314 942 35 314 943 34 314 944 129 315 945 179 315 946 149 315 947 195 316 948 150 316 949 126 316 950 184 317 951 163 317 952 164 317 953 192 318 954 191 318 955 194 318 956 189 319 957 197 319 958 191 319 959 191 320 960 197 320 961 198 320 962 188 321 963 185 321 964 199 321 965 185 322 966 184 322 967 199 322 968 121 323 969 120 323 970 193 323 971 198 324 972 193 324 973 123 324 974 193 325 975 120 325 976 119 325 977 198 326 978 197 326 979 193 326 980 184 327 981 121 327 982 199 327 983 199 328 984 121 328 985 193 328 986 197 329 987 199 329 988 193 329 989 194 330 990 191 330 991 198 330 992 194 331 993 198 331 994 123 331 995 197 332 996 190 332 997 199 332 998 190 333 999 188 333 1000 199 333 1001 184 334 1002 80 334 1003 121 334 1004 184 335 1005 164 335 1006 80 335 1007 121 336 1008 80 336 1009 88 336 1010 200 337 1011 38 337 1012 201 337 1013 55 338 1014 54 338 1015 40 338 1016 40 339 1017 38 339 1018 200 339 1019 55 340 1020 202 340 1021 150 340 1022 55 341 1023 40 341 1024 200 341 1025 55 342 1026 200 342 1027 202 342 1028 181 343 1029 55 343 1030 150 343 1031 39 344 1032 171 344 1033 37 344 1034 171 345 1035 201 345 1036 38 345 1037 171 346 1038 39 346 1039 203 346 1040 39 347 1041 53 347 1042 203 347 1043 53 348 1044 39 348 1045 54 348 1046 54 349 1047 39 349 1048 40 349 1049 115 350 1050 98 350 1051 0 350 1052 115 351 1053 204 351 1054 116 351 1055 204 352 1056 115 352 1057 0 352 1058 62 353 1059 65 353 1060 64 353 1061 66 354 1062 65 354 1063 70 354 1064 76 355 1065 26 355 1066 205 355 1067 113 356 1068 76 356 1069 205 356 1070 206 357 1071 94 357 1072 112 357 1073 94 358 1074 207 358 1075 96 358 1076 112 359 1077 111 359 1078 171 359 1079 207 360 1080 206 360 1081 112 360 1082 23 361 1083 29 361 1084 112 361 1085 7 362 1086 29 362 1087 23 362 1088 206 363 1089 207 363 1090 94 363 1091 29 364 1092 207 364 1093 112 364 1094 93 365 1095 114 365 1096 86 365 1097 114 366 1098 70 366 1099 118 366 1100 86 367 1101 114 367 1102 118 367 1103 183 368 1104 77 368 1105 27 368 1106 205 369 1107 26 369 1108 183 369 1109 208 370 1110 79 370 1111 26 370 1112 113 371 1113 205 371 1114 183 371 1115 18 372 1116 79 372 1117 208 372 1118 26 373 1119 18 373 1120 208 373 1121 26 374 1122 79 374 1123 183 374 1124 79 375 1125 77 375 1126 183 375 1127 0 376 1128 2 376 1129 71 376 1130 209 377 1131 0 377 1132 71 377 1133 116 378 1134 0 378 1135 209 378 1136 209 379 1137 71 379 1138 70 379 1139 209 380 1140 70 380 1141 114 380 1142 114 381 1143 116 381 1144 209 381 1145 116 382 1146 204 382 1147 0 382 1148 27 383 1149 122 383 1150 183 383 1151 42 384 1152 181 384 1153 210 384 1154 44 385 1155 210 385 1156 195 385 1157 44 386 1158 42 386 1159 210 386 1160 58 387 1161 47 387 1162 44 387 1163 122 388 1164 95 388 1165 187 388 1166 180 389 1167 141 389 1168 122 389 1169 180 390 1170 172 390 1171 141 390 1172 211 391 1173 212 391 1174 127 391 1175 212 392 1176 95 392 1177 127 392 1178 212 393 1179 213 393 1180 95 393 1181 10 394 1182 21 394 1183 182 394 1184 140 395 1185 211 395 1186 127 395 1187 214 396 1188 211 396 1189 140 396 1190 96 397 1191 207 397 1192 29 397 1193 203 398 1194 53 398 1195 55 398 1196 171 399 1197 203 399 1198 181 399 1199 210 400 1200 181 400 1201 150 400 1202 203 401 1203 55 401 1204 181 401 1205 215 402 1206 175 402 1207 146 402 1208 175 403 1209 128 403 1210 146 403 1211 175 404 1212 178 404 1213 128 404 1214 178 405 1215 129 405 1216 128 405 1217 14 406 1218 74 406 1219 73 406 1220 22 407 1221 14 407 1222 21 407 1223 21 408 1224 216 408 1225 182 408 1226 21 409 1227 14 409 1228 217 409 1229 161 410 1230 166 410 1231 162 410 1232 151 411 1233 112 411 1234 177 411 1235 151 412 1236 177 412 1237 174 412 1238 37 413 1239 171 413 1240 38 413 1241 219 414 1242 218 414 1243 213 414 1244 220 415 1245 201 415 1246 219 415 1247 219 416 1248 220 416 1249 221 416 1250 213 417 1251 218 417 1252 221 417 1253 220 418 1254 200 418 1255 218 418 1256 221 419 1257 220 419 1258 218 419 1259 220 420 1260 201 420 1261 222 420 1262 219 421 1263 218 421 1264 200 421 1265 200 422 1266 201 422 1267 219 422 1268 222 423 1269 201 423 1270 213 423 1271 220 424 1272 222 424 1273 200 424 1274 200 425 1275 222 425 1276 221 425 1277 222 426 1278 219 426 1279 221 426 1280 213 427 1281 219 427 1282 222 427 1283 216 428 1284 72 428 1285 182 428 1286 21 429 1287 217 429 1288 216 429 1289 216 430 1290 217 430 1291 72 430 1292 217 431 1293 14 431 1294 72 431 1295 223 432 1296 202 432 1297 212 432 1298 225 433 1299 224 433 1300 223 433 1301 214 434 1302 223 434 1303 224 434 1304 202 435 1305 200 435 1306 214 435 1307 223 436 1308 202 436 1309 214 436 1310 224 437 1311 212 437 1312 140 437 1313 140 438 1314 202 438 1315 212 438 1316 140 439 1317 150 439 1318 202 439 1319 190 440 1320 197 440 1321 189 440 1322 200 441 1323 221 441 1324 213 441 1325 200 442 1326 213 442 1327 212 442 1328 144 443 1329 143 443 1330 141 443 1331 144 444 1332 141 444 1333 172 444 1334 172 445 1335 142 445 1336 144 445 1337 213 446 1338 201 446 1339 95 446 1340 147 447 1341 142 447 1342 146 447 1343 215 448 1344 146 448 1345 142 448 1346 167 449 1347 152 449 1348 158 449 1349 167 450 1350 157 450 1351 226 450 1352 227 451 1353 167 451 1354 228 451 1355 228 452 1356 227 452 1357 229 452 1358 182 453 1359 73 453 1360 180 453 1361 182 454 1362 72 454 1363 73 454 1364 126 455 1365 127 455 1366 124 455 1367 154 456 1368 230 456 1369 157 456 1370 157 457 1371 230 457 1372 227 457 1373 230 458 1374 227 458 1375 167 458 1376 152 459 1377 231 459 1378 230 459 1379 167 460 1380 231 460 1381 152 460 1382 230 461 1383 231 461 1384 167 461 1385 152 462 1386 156 462 1387 155 462 1388 153 463 1389 156 463 1390 226 463 1391 155 464 1392 228 464 1393 165 464 1394 165 465 1395 156 465 1396 228 465 1397 156 466 1398 226 466 1399 228 466 1400 226 467 1401 154 467 1402 153 467 1403 167 468 1404 226 468 1405 228 468 1406 111 469 1407 95 469 1408 171 469 1409 201 470 1410 171 470 1411 95 470 1412 175 471 1413 215 471 1414 142 471 1415 225 472 1416 212 472 1417 211 472 1418 225 473 1419 200 473 1420 223 473 1421 225 474 1422 214 474 1423 200 474 1424 200 475 1425 223 475 1426 212 475 1427 225 476 1428 224 476 1429 212 476 1430 156 477 1431 155 477 1432 153 477 1433 155 478 1434 153 478 1435 228 478 1436 153 479 1437 228 479 1438 232 479 1439 228 480 1440 233 480 1441 229 480 1442 233 481 1443 155 481 1444 232 481 1445 232 482 1446 153 482 1447 229 482 1448 232 483 1449 228 483 1450 233 483 1451 233 484 1452 155 484 1453 165 484 1454 162 485 1455 232 485 1456 229 485 1457 155 486 1458 232 486 1459 162 486 1460 165 487 1461 162 487 1462 229 487 1463 233 488 1464 165 488 1465 229 488 1466 112 489 1467 171 489 1468 177 489 1469 230 490 1470 154 490 1471 229 490 1472 154 491 1473 226 491 1474 229 491 1475 153 492 1476 230 492 1477 229 492 1478 227 493 1479 157 493 1480 229 493 1481 157 494 1482 226 494 1483 229 494 1484 195 495 1485 210 495 1486 150 495 1487 225 496 1488 211 496 1489 214 496 1490 224 497 1491 214 497 1492 140 497 1493 152 498 1494 230 498 1495 153 498 1496 148 499 1497 142 499 1498 145 499 1499</p>
        </polylist>
      </mesh>
    </geometry>
  </library_geometries>
  <library_visual_scenes>
    <visual_scene id="Scene" name="Scene">
      <node id="Closet5" name="Closet5" type="NODE">
        <scale sid="scale">1 1 1</scale>
        <translate sid="location">-0.009372089743589744 0.48258631196581203 0.061817799145299154</translate>
        <rotate sid="rotationX">1 0 0 0</rotate>
        <rotate sid="rotationY">0 1 0 0</rotate>
        <rotate sid="rotationZ">0 0 1 0</rotate>
        <instance_geometry url="#Closet5-mesh" name="Closet5">
          <bind_material>
            <technique_common>
            </technique_common>
          </bind_material>
        </instance_geometry>
      </node>
    </visual_scene>
  </library_visual_scenes>
  <scene>
    <instance_visual_scene url="#Scene"/>
  </scene>
</COLLADA>
