<?xml version="1.0" encoding="utf-8"?>
<COLLADA xmlns="http://www.collada.org/2005/11/COLLADASchema" version="1.4.1" xmlns:xsi="http://www.w3.org/2001/XMLSchema-instance">
  <asset>
    <contributor>
      <author>Blockbench user</author>
      <authoring_tool>Blockbench</authoring_tool>
    </contributor>
    <created>2026-07-29T18:48:29.223Z</created>
    <modified>2026-07-29T18:48:29.228Z</modified>
    <unit name="meter" meter="1.0"/>
    <up_axis>Y_UP</up_axis>
  </asset>
  <library_effects>
  </library_effects>
  <library_images>
  </library_images>
  <library_materials>
  </library_materials>
  <library_geometries>
    <geometry id="Closet4-mesh" name="Closet4">
      <mesh>
        <source id="Closet4-mesh-positions">
          <float_array id="Closet4-mesh-positions-array" count="744">0.160858 0.284445 0.039403 -0.254752 -0.47605 -0.383819 -0.253921 0.453491 -0.381714 0.311555 0.449098 -0.384036 -0.257936 -0.479344 -0.377439 0.311418 -0.481116 -0.378661 0.314539 -0.473302 -0.382611 0.317513 -0.276469 -0.378599 0.314682 -0.478924 0.035184 0.314975 0.453248 -0.377289 -0.256589 0.454443 0.034291 0.314903 0.45328 0.034282 0.316084 -0.252804 0.037392 -0.262045 -0.268518 -0.302234 -0.262009 -0.27005 -0.219266 -0.262376 -0.262591 -0.259294 0.316431 -0.215933 0.037126 -0.260973 0.31732 -0.370685 -0.262152 0.326022 -0.292508 -0.261959 0.354707 -0.368914 -0.261035 -0.370131 -0.313326 -0.262058 -0.372899 -0.22762 0.29536 0.436224 0.041819 0.310127 0.326796 0.040028 0.301178 0.254657 0.039427 0.302472 0.292386 0.040031 0.31641 0.02491 0.037108 0.032811 0.417599 0.032102 0.032615 0.019948 0.032136 0.055771 0.202434 0.038926 0.044352 -0.059861 0.046654 0.05308 0.005073 0.04643 0.033529 -0.063078 0.031909 0.140804 0.019774 0.044305 0.078104 0.036029 0.038878 0.079256 0.092631 0.03891 0.118407 0.100235 0.03904 -0.040258 0.090816 0.040739 -0.019896 0.019524 0.039078 0.019342 0.016201 0.046678 0.078095 0.164876 0.038904 0.236912 -0.029369 0.041348 0.172757 -0.089811 0.038966 0.214592 -0.094913 0.040823 0.139344 -0.062018 0.046383 0.107974 -0.301536 0.038929 0.162434 -0.18022 0.038904 0.225983 -0.175894 0.040495 0.077115 -0.038189 0.050148 0.095298 -0.032802 0.048893 0.090609 -0.011617 0.052845 -0.155542 0.271452 0.039035 -0.216173 0.249859 0.033407 -0.259272 0.222439 0.037421 -0.258549 0.182098 0.037648 -0.144834 0.242697 0.039054 -0.239106 0.255241 0.046307 -0.216386 -0.42781 0.033048 -0.124722 -0.467065 0.039187 -0.114901 -0.450238 0.041598 0.25799 -0.265258 0.042008 0.300277 -0.268533 0.045666 0.300549 -0.333155 0.041549 0.283274 -0.335425 0.039863 0.27256 -0.426595 0.032175 0.294788 -0.459688 0.041784 0.215422 -0.469079 0.039255 0.206599 -0.446496 0.039326 0.032411 -0.42724 0.031904 0.277319 -0.311476 0.053739 0.276045 -0.286225 0.054404 0.256894 -0.332243 0.046344 0.273157 -0.335172 0.034803 -0.198724 0.320139 0.045983 -0.149917 0.35335 0.039391 -0.217039 0.416869 0.032669 -0.22181 0.322269 0.052344 -0.220644 0.299484 0.053938 -0.217193 0.321594 0.036009 -0.04014 0.351413 0.040748 0.272681 0.418215 0.033581 -0.150829 0.085565 0.040848 -0.155243 0.03622 0.039823 0.010456 -0.054524 0.048879 -0.020422 -0.065145 0.038978 -0.010589 -0.049952 0.046703 -0.009591 0.00341 0.046585 -0.131641 -0.031011 0.0411 -0.088102 -0.0214 0.040671 -0.191163 0.019557 0.038934 -0.237896 0.434812 0.04189 0.316535 -0.020305 0.037198 -0.26197 0.431882 -0.04215 -0.259516 0.450643 -0.378505 -0.261709 0.405095 -0.013006 -0.244548 -0.332252 0.046078 -0.216783 -0.335119 0.035168 -0.221077 -0.335448 0.053593 -0.237523 -0.458738 0.04176 -0.255667 -0.269245 0.039397 -0.229647 -0.268511 0.046348 -0.219895 -0.311224 0.054088 -0.219092 -0.287808 0.053786 -0.204713 -0.262621 0.038796 0.033141 -0.062283 0.032146 0.027944 -0.300641 0.038844 -0.090628 -0.1165 0.038938 -0.120421 -0.113421 0.039016 -0.111681 -0.246582 0.040183 -0.08182 -0.235453 0.041392 -0.145059 -0.112876 0.039154 -0.119388 -0.047095 0.038947 0.106534 -0.360556 0.039532 0.037646 -0.422312 0.037135 0.108195 -0.318991 0.038981 0.216947 -0.356933 0.038868 0.226873 0.010006 0.039066 0.145928 0.089981 0.038896 0.21232 0.104569 0.038878 0.11995 0.174951 0.039102 0.275242 0.019447 0.034069 0.273591 -0.024745 0.037847 0.208782 0.187817 0.038888 -0.261858 0.141369 -0.187321 -0.261893 0.217656 -0.176438 -0.260992 0.362866 -0.293578 -0.261893 0.360821 -0.139212 -0.262089 0.225951 -0.10301 -0.261598 0.328488 -0.108423 0.216102 -0.336299 0.038894 0.282397 -0.264771 0.050718 0.211732 -0.271514 0.04178 0.213803 -0.303845 0.044958 0.216444 -0.318476 0.038897 -0.255478 -0.48026 0.03601 -0.261579 -0.403188 -0.045783 -0.261001 -0.374283 -0.005705 -0.262 -0.33081 -0.113569 -0.261946 -0.3104 -0.069674 -0.216372 -0.2265 0.037135 -0.259053 -0.231906 0.037545 -0.174125 -0.221116 0.040925 -0.261089 -0.244963 -0.026827 -0.261022 -0.180223 -0.190894 -0.262735 -0.279988 -0.008972 0.274208 0.356882 0.039983 0.33304 0.312205 0.043162 0.273786 0.321152 0.054108 0.276992 0.300054 0.054072 0.290171 0.319014 0.046145 0.287066 0.257723 0.046383 0.314893 0.283754 0.04329 0.264797 0.32182 0.039061 0.211162 0.406386 0.042934 0.187569 0.385817 0.038921 -0.261048 0.054028 -0.068 -0.261999 0.051463 -0.176115 -0.152848 -0.3613 0.040701 -0.150561 -0.347593 0.038956 -0.199272 -0.331486 0.04635 -0.151848 -0.336221 0.038904 -0.149453 -0.311094 0.038933 -0.150685 -0.325787 0.046751 -0.150978 -0.302043 0.039015 -0.04226 -0.30218 0.043573 -0.039695 -0.342303 0.044297 -0.039863 -0.329205 0.038932 -0.040436 -0.354292 0.038874 -0.095927 0.146767 0.042093 -0.046351 0.15069 0.039093 -0.072295 0.154188 0.039152 -0.077354 0.123752 0.039083 -0.150217 0.214003 0.040713 -0.11488 0.184653 0.042084 -0.085569 0.204982 0.039225 -0.111299 0.129126 0.041854 -0.140131 0.154838 0.040774 -0.121566 0.168634 0.04118 -0.13453 0.107592 0.040406 -0.039263 0.214108 0.040752 -0.07165 0.171554 0.042142 -0.08218 0.185785 0.039202 -0.042048 0.337653 0.038991 -0.039847 0.31824 0.038904 -0.151063 0.318385 0.038914 -0.090616 0.29301 0.03995 -0.085757 0.264271 0.040336 -0.2615 -0.209332 -0.225714 0.096148 0.384588 0.038869 0.10767 0.329041 0.044239 0.108554 0.349783 0.044291 0.128151 0.277241 0.039382 0.10711 0.312394 0.043364 0.054989 0.385654 0.038945 0.186164 0.276095 0.039165 0.212744 0.283199 0.03979 0.215869 0.344346 0.038842 0.213197 0.35342 0.042803 0.216787 0.317436 0.038914 0.214833 0.333176 0.043467 0.275845 0.27678 0.054034 0.257734 0.314124 0.046495 0.251184 0.25423 0.038972 0.264635 0.257935 0.046351 0.273183 0.253088 0.034922 0.10933 -0.330295 0.039 0.108429 -0.347879 0.038911 0.108027 -0.342251 0.0448 0.198822 -0.24563 0.038962 0.274191 -0.227743 0.034944 -0.262663 0.168771 -0.011568 -0.261125 0.20593 -0.03186 -0.040691 -0.311546 0.038966 -0.042538 -0.323131 0.046205 -0.044733 -0.363651 0.048868 -0.205384 0.256589 0.046451 -0.221787 0.277056 0.05362 -0.243999 0.319107 0.04552 -0.128114 -0.222138 0.039701 -0.174486 -0.116441 0.040522 -0.205255 -0.268849 0.046401 0.103992 0.203338 0.038878 0.131193 0.208126 0.039083 0.173852 0.213529 0.039794 0.220005 0.212051 0.039263 -0.217916 0.202691 0.036264 -0.151895 0.337324 0.038947 0.064912 -0.015802 0.053212 0.07997 -0.016719 0.067477 0.082778 -0.053925 0.059184 0.077284 -0.027755 0.067216 0.084404 -0.027114 0.05657 0.1024 -0.014381 0.05987 0.183308 -0.023374 0.055053 -0.262106 0.080063 -0.237414 -0.261952 0.091801 -0.181761 -0.261895 0.218325 -0.06613 -0.262028 0.122223 -0.257276 -0.261819 -0.185721 -0.189298 0.072785 -0.023002 0.053633 0.060997 -0.05502 0.064219 0.058212 -0.069545 0.056608 0.095193 -0.070096 0.055318 0.072782 -0.05357 0.058092 0.07553 -0.054108 0.06304 0.092499 -0.055048 0.063381 0.068495 -0.025532 0.055089 -0.094587 0.166179 0.042041</float_array>
          <technique_common>
            <accessor source="#Closet4-mesh-positions-array" count="248" stride="3">
              <param name="X" type="float"/>
              <param name="Y" type="float"/>
              <param name="Z" type="float"/>
            </accessor>
          </technique_common>
        </source>
        <source id="Closet4-mesh-normals">
          <float_array id="Closet4-mesh-normals-array" count="1500">-0.004089 0.002268 -0.999989 -0.003751 -0.887788 -0.460238 0.999886 -0.015096 -0.000545 0.002035 0.999998 -0.000077 0.999994 0.003478 0.000175 0.002129 -0.001538 -0.999997 0.999973 -0.006237 0.00379 -0.998649 -0.051959 -0.000526 0.000445 0.999997 -0.002286 0.999948 -0.009382 0.003969 0.927719 -0.373241 -0.00534 0.766993 0.00149 -0.641653 0.890975 0.003914 -0.454035 0.004451 0.850754 -0.525545 0.004076 -0.452431 -0.89179 -0.999593 -0.025784 -0.012205 -0.999888 -0.008605 -0.012213 -1 0.000441 0.000442 0.336738 0.030039 0.941119 0.085215 -0.01887 0.996184 0.009259 -0.009479 0.999912 0.685178 0.007215 0.72834 -0.89484 0.000373 -0.446386 -0.282988 0.000221 0.959123 -0.533966 0.074677 0.842202 -0.805007 -0.010484 0.593172 -0.111378 -0.099492 0.988785 -0.003223 -0.0005 0.999995 -0.07472 0.044389 0.996216 0.130934 0.014301 0.991288 0.028415 0.961407 0.273659 -0.147454 0.002442 0.989066 0.001156 0.000102 0.999999 -0.108093 -0.023264 0.993869 -0.003326 0.00003 0.999994 0.737778 0.006276 0.675014 -0.043514 0.006816 0.99903 -0.135383 -0.0131 0.990707 -0.021452 -0.973397 0.228118 0.097962 -0.043771 0.994227 0.19814 -0.023296 0.979897 -0.043819 0.004318 0.99903 -0.024517 -0.007498 0.999671 -0.000771 -0.15803 0.987434 0.065161 0.012514 0.997796 0.232915 0.020544 0.97228 -0.076437 -0.199171 0.976979 0.154087 0.022346 0.987805 -0.264551 0.533434 0.803406 -0.018062 0.005302 0.999823 -0.01061 -0.00329 0.999938 0.358338 -0.442931 0.821831 -0.101785 -0.082639 0.991368 -0.036883 0.494017 0.86867 0.503845 -0.052808 0.862178 0.312187 -0.011212 0.949954 -0.0873 -0.073516 0.993466 0.701948 0.588129 0.401713 -0.141227 -0.056849 0.988344 0.007378 -0.317692 0.948165 0.097305 0.034889 0.994643 -0.059422 0.241339 0.96862 0.033936 0.486392 0.873081 0.000848 0.33567 0.941979 0.002602 -0.997628 0.068779 -0.015242 -0.009098 0.999842 -0.01794 -0.504583 0.863177 0.464757 0.00013 0.885438 0.375452 -0.057355 0.925066 0.378188 -0.61754 0.68965 -0.389281 -0.532338 0.751715 -0.447659 -0.022773 0.893914 0.036277 0.143003 0.989057 0.271702 0.080992 0.958967 0.087361 0.996041 -0.016466 -0.473008 0.031631 0.88049 -0.009767 0.140102 0.990089 0.002824 -0.999118 -0.041894 0.00198 -0.020945 0.999779 0.104587 -0.823649 0.557373 -0.172239 -0.355609 0.918627 -0.630543 0.013509 0.776037 -0.586063 0.002684 0.810261 -0.014555 0.013881 0.999798 0.117267 0.000027 0.9931 0.011024 -0.005306 0.999925 -0.015763 -0.019356 0.999688 -0.004227 0.00229 0.999988 -0.151579 0.33611 0.929545 0.580308 -0.04761 0.813005 -0.09357 0.042712 0.994696 -0.00083 0.360303 0.932835 0.000835 0.403391 0.915027 0.999996 -0.000533 0.00268 0.999996 0.002766 0.000648 0.999994 0.003519 0.000102 -0.976347 0.216153 0.004933 -0.997194 0.050455 0.055305 -0.45589 0.890022 -0.004961 -0.999701 -0.020965 -0.01261 -0.120382 -0.991672 -0.045763 0.392981 -0.009564 0.919497 0.363882 -0.01974 0.931236 -0.259165 0.056502 0.964179 -0.326918 0.023396 0.944763 -0.117264 0.932923 0.340447 -0.444337 0.100104 0.890249 -0.305492 -0.004551 0.952184 0.518875 -0.001605 0.854849 0.819291 -0.002523 0.573372 0.044442 0.028107 0.998617 0.007035 -0.010396 0.999921 0.224286 -0.096214 0.969762 0.001678 -0.009095 0.999957 -0.015889 -0.065752 0.997709 0.037061 0.023354 0.99904 0.134636 -0.184815 0.973507 0.075573 -0.001647 0.997139 0.005055 -0.024592 0.999685 0.170975 -0.001638 0.985274 0.033515 -0.107476 0.993643 -0.056593 0.00192 0.998395 0.019958 -0.060997 0.997938 -0.047293 0.013988 0.998783 -0.043298 0.014973 0.99895 0.008897 -0.088594 0.996028 0.001183 -0.728463 0.685084 -0.087995 0.001853 0.996119 0.548439 0.018447 0.835987 -0.707282 0.000946 0.706931 0.069093 0.075268 0.994767 0.006874 -0.046662 0.998887 0.03293 0.074385 0.996686 0.002111 -0.008376 0.999963 0.001765 -0.000866 0.999998 0.068701 0.071649 0.995061 0.09941 0.017277 0.994897 -0.00016 0.001963 0.999998 0.044091 0.069002 0.996642 0.072074 0.152453 0.985679 -0.073854 0.001781 0.997267 -0.094966 0.958047 0.270422 0.002412 -0.000018 0.999997 -0.943283 -0.009157 -0.331864 -0.999998 -0.000686 0.001591 -0.999856 -0.009575 -0.014013 -0.99992 0.011312 -0.005686 -0.999998 0.001797 0.001282 -0.999865 0.005604 0.015465 -0.999495 0.031311 -0.005419 -0.999987 -0.004682 -0.00214 -0.08412 -0.161625 0.983261 -0.178831 -0.008563 0.983842 0.575246 -0.027257 0.817526 -0.513446 0.063794 0.855747 -0.329586 0.25382 0.909367 -0.303594 -0.040387 0.951945 -0.054575 0.094216 0.994055 0.971707 0.083945 0.22077 0.003322 -0.060942 0.998136 -0.158771 0.066363 0.985083 -0.060849 -0.391364 0.918222 0.000762 0.002989 0.999995 -0.179977 0.003288 0.983665 -0.003117 -0.999993 -0.002197 -0.998529 -0.036117 0.040449 -0.999928 0.00459 0.011111 -0.999942 -0.009252 0.005532 -0.997328 -0.072827 0.005768 -0.999881 -0.013252 -0.00794 -0.99618 -0.081752 0.030676 -0.125727 0.992034 -0.007795 -0.999936 0.010619 0.003782 -0.999061 0.032126 -0.029081 -0.988987 -0.013079 0.147422 -0.999822 -0.018515 -0.00372 -0.992271 -0.00288 0.124058 -0.999507 0.001209 0.031368 -0.045481 0.045373 0.997934 -0.570842 -0.013688 0.820946 -0.994921 -0.087778 0.049273 -0.98688 0.107699 0.120289 0.002351 -0.999983 0.005278 -0.425073 -0.506363 0.750273 0.443093 0.065806 0.894057 0.540534 -0.024118 0.840977 -0.483337 -0.401859 0.77775 -0.118866 0.02653 0.992556 0.175597 -0.1164 -0.977556 0.063661 -0.036118 0.997318 0.099679 0.200607 0.974588 -0.853669 -0.130582 0.50418 0.116997 0.992797 -0.025819 -0.399343 0.085339 0.912821 -0.016863 -0.018637 0.999684 -0.083122 -0.098137 0.991695 0.021589 -0.032071 0.999252 -0.26395 0.045511 0.963462 -0.999949 -0.004785 0.008909 -0.999793 0.002908 0.020124 -1 0.000086 -0.000375 0.004838 -0.11887 0.992898 -0.289638 0.168278 0.942227 0.153552 -0.015776 0.988015 0.157244 0.02231 0.987308 -0.534884 -0.021609 0.844649 0.098562 -0.153295 0.983253 0.187089 -0.981997 0.026067 -0.995263 0.09484 0.021401 0.141295 0.014839 0.989856 0.080299 0.114954 0.99012 -0.041903 -0.016111 0.998992 -0.023955 0.378668 0.925222 0.00103 0.004689 0.999988 0.037579 0.262455 0.964212 0.066266 -0.076635 0.994855 0.035336 0.089041 0.995401 -0.043049 -0.006309 0.999053 -0.044156 -0.006497 0.999004 -0.032769 -0.016156 0.999332 -0.027865 0.010739 0.999554 -0.06161 -0.030584 0.997632 0.025856 0.000928 0.999665 -0.052409 -0.010607 0.998569 0.059996 -0.131263 0.98953 -0.02223 0.025213 0.999435 -0.000191 -0.164085 0.986446 0.275801 0.196938 0.940824 -0.345364 -0.062092 0.936413 -0.020532 -0.168902 0.985419 -0.028428 -0.022965 0.999332 -0.243682 0.001864 0.969853 0.000034 0.020037 0.999799 0.006761 0.057809 0.998305 0.122196 -0.001091 0.992505 0.255727 -0.157259 0.953873 0.086035 0.00529 0.996278 0.000143 0.041135 0.999154 0.012846 0.0156 0.999796 0.01026 0.0178 0.999789 0.068647 0.018087 0.997477 0.000084 -0.004472 0.99999 -0.018472 -0.008829 0.99979 -0.000406 0.057796 0.998328 -0.999946 0.008937 0.005223 -1 0.000449 0.000343 -0.999895 0.009545 0.010946 -0.999668 0.023332 -0.010926 -0.001034 -0.141242 0.989975 -0.253066 -0.047043 0.966305 0.040207 0.245363 0.968597 0.002808 -0.2603 0.965524 0.001994 -0.252715 0.967539 -0.002576 -0.404197 0.914668 -0.101653 -0.935936 0.337181 -0.368674 0.013382 0.929462 0.068101 -0.071957 0.99508 -0.218853 0.048817 0.974536 0.001844 -0.000096 0.999998 0.028112 -0.053412 0.998177 0.021364 -0.099896 0.994768 -0.09638 -0.318969 0.942852 0.004654 -0.104904 0.994471 0.026738 -0.3933 0.919021 0.042954 -0.053882 0.997623 0.017566 -0.275816 0.96105 -0.008132 0.38319 0.923634 0.050475 -0.004655 0.998714 0.438766 -0.018739 0.898406 0.395197 -0.028253 0.918162 0.530788 -0.027542 0.847057 0.144832 0.615456 0.77475 -0.47632 -0.021391 0.879012 -0.408852 -0.069582 0.909944 -0.596828 0.028104 0.801877 -0.071655 -0.014817 0.997319 0.027692 -0.912665 0.40777 -0.004867 -0.375036 0.926997 -0.009273 -0.923065 0.384533 -0.010352 -0.922588 0.385648 -0.158602 -0.005002 0.98733 0.082182 0.009927 0.996568 0.481809 -0.029121 0.875792 0.991819 -0.051412 0.116838 0.001093 0.001791 0.999998 0.077343 -0.718138 0.69159 0.025304 0.434092 0.900513 0.000777 -0.000183 1 0.004423 0.048268 0.998825 0.000292 -0.001248 0.999999 0.100189 -0.04208 0.994078 -0.000677 0.00051 1 0.02438 0.120208 0.992449 -0.101495 0.725671 0.680515 -0.146533 0.353391 0.923928 0.04079 0.006824 0.999144 0.067055 -0.014069 0.99765 0.129428 0.01419 0.991487 0.046839 0.026942 0.998539 -0.016565 -0.121653 0.992434 -0.051296 0.082769 0.995248 -0.995973 -0.017355 0.087954 -0.998664 0.049482 0.014919 -0.498445 0.002409 -0.866918 0.020845 -0.074445 0.997007 0.07005 -0.430822 0.899714 0.042182 -0.053204 0.997692 0.002068 -0.001828 0.999996 0.002294 -0.002364 0.999995 0.948948 0.043893 0.312365 -0.002108 -0.441662 0.897179 0.996019 -0.02255 -0.086243 0.037598 -0.603302 0.796626 0.022007 -0.763355 0.645605 -0.03497 0.736926 0.675068 0.044292 0.719627 0.692947 -0.07163 0.137715 0.987878 -0.065908 -0.40785 0.910667 -0.999943 0.008253 -0.006835 0.009707 0.126536 0.991915 -0.296628 -0.001365 0.954992 -0.207411 -0.442026 0.872694 0.258535 0.313984 0.91355 0.007355 0.214334 0.976733 -0.054057 0.099947 0.993523 -0.00638 0.640423 0.767996 0.002047 -0.19375 0.981049 0.129481 0.106131 0.985886 -0.002619 0.153014 0.988221 0.034091 -0.899381 0.435835 0.00892 -0.32419 0.94595 0.308808 -0.924906 0.221779 0.149615 -0.008398 0.988709 -0.39667 0.0072 0.917933 -0.292552 -0.010631 0.956191 -0.459276 0.038582 0.887455 0.36662 -0.031868 0.929825 0.367175 -0.031634 0.929614 -0.016404 0.008687 0.999828 0.024984 -0.069567 0.997264 0.020371 -0.066184 0.997599 0.044986 0.011978 0.998916 0.02668 0.003941 0.999636 0.002977 0.361072 0.932533 0.009338 0.773312 0.633957 -0.736814 0.059992 0.673429 0.409393 0.007029 0.912331 -0.379007 -0.017636 0.925226 0.331527 0.032518 0.942885 -0.118244 0.990198 -0.074338 -0.361384 0.016757 0.932267 0.955061 0.033369 0.294524 0.793197 -0.160528 0.587426 -0.006723 -0.004622 0.999967 -0.002997 -0.000713 0.999995 -0.003296 0.002563 0.999991 -0.025251 0.068119 0.997358 0.003658 -0.004165 0.999985 0.039573 0.020888 0.998998 0.037213 0.021168 0.999083 0.032985 -0.017489 0.999303 0.015321 -0.022563 0.999628 0.180956 -0.001996 0.983489 0.011454 -0.001568 0.999933 -0.011775 -0.043832 0.99897 0.003379 -0.018257 0.999828 0.002015 -0.002836 0.999994 0.010846 -0.020493 0.999731 -0.000552 -0.415406 0.909636 0.001326 -0.455861 0.89005 -0.077382 0.07201 0.994398 -0.065803 0.001362 0.997832 -0.015436 0.004051 0.999873 0.146293 -0.011411 0.989176 -0.000395 -0.00176 0.999998 -0.087739 0.001706 0.996142 -0.057458 0.006161 0.998329 0.416762 -0.792396 0.44544 -0.153543 0.962431 0.223946 0.954467 0.250225 -0.162418 0.846774 -0.457554 0.271327 -0.820045 0.199403 -0.536437 -0.033808 0.291427 0.955995 -0.415977 0.059043 0.907456 -0.086157 0.626136 0.774939 -0.011721 -0.141861 0.989817 -0.0278 0.303558 0.952407 -0.47851 0.155282 0.864243 0.2212 -0.560744 0.797895 0.119381 0.975738 0.183533 -0.005523 -0.510321 0.859966 -0.047871 -0.193402 0.979951 -0.999996 0.001508 0.002449 -0.999971 0.002657 0.007081 -0.991738 0.10479 -0.073989 -0.999693 -0.008334 -0.023336 -0.999991 -0.004203 -0.000216 -0.999775 -0.005388 0.020515 -0.998501 0.012189 -0.053359 -0.999661 0.007127 0.025039 -0.992965 -0.063217 0.100121 -0.99646 0.08113 0.022018 -0.999693 -0.024792 0.000132 -0.999993 0.00063 -0.003821 -0.999957 0.00086 -0.009242 -0.999995 0.002156 0.002312 -0.999995 0.002653 0.001704 -0.99545 0.012786 0.094419 -0.999907 -0.011183 0.007815 -0.999779 0.005854 0.020202 -0.012817 -0.026111 0.999577 -0.000018 -0.126658 0.991946 0.165515 -0.047719 0.985052 0.146882 0.004729 0.989143 0.001943 0.107269 0.994228 -0.038224 -0.005993 0.999251 0.320763 -0.034993 0.946513 -0.041876 0.008631 0.999086 0.063505 0.139547 0.988177 0.984651 0.093933 0.1471 -0.012845 -0.011955 0.999846 0.476154 -0.004988 0.879348 0.381631 0.035701 0.923625 -0.999999 0.001521 0.000523 -0.989254 0.118572 -0.085544 -0.999971 -0.002484 -0.007149 -0.320342 -0.2977 0.899309 0.023856 -0.467588 0.883625 -0.985118 0.129923 0.112525 -0.464328 0.366021 -0.806491 -0.051061 0.989401 0.135936 0.02307 -0.468955 0.882921 -0.032785 0.122052 -0.991982 0.114119 0.313023 -0.942864 0.051839 0.98817 0.144338 0.020775 0.650468 0.759249 -0.375559 -0.067345 -0.924348 0.382864 -0.112616 -0.916915 -0.948827 -0.299429 -0.100352 0.18403 -0.076815 -0.979914 -0.594252 0.271775 0.75697 -0.813533 -0.062466 0.578154 0.253414 -0.09244 -0.962931 -0.868656 0.071594 0.490215 -0.947879 0.012637 0.318381 -0.793137 -0.087835 -0.602676 -0.176538 -0.248725 -0.95235 0.35536 -0.839326 -0.411402 -0.675486 0.147316 0.722507 0.818222 -0.211783 0.534472 -0.381381 -0.068879 -0.921848 0.078885 -0.474913 -0.87649 0.466266 -0.168647 0.868421 0.763555 0.183427 0.619143 0.981686 0.084179 0.170897 0.080654 0.003308 0.996737 0.00113 -0.007189 0.999974 -0.005301 0.002369 0.999983 0.000995 0.000006 1 -0.008684 0.006523 0.999941 0.002446 -0.000256 0.999997 -0.010399 -0.049319 0.998729 -0.004553 -0.000736 0.999989 -0.999976 -0.005904 0.003529 -0.999977 -0.005798 0.003492 -0.06553 0.003616 0.997844 -0.089591 0.001897 0.995977 0.032954 0.002147 0.999455 0.009639 -0.000261 0.999954 -0.019311 -0.006531 0.999792 -0.017563 0.010459 0.999791 -0.958139 0.198723 0.206103 -0.047561 -0.014424 0.998764 0.01515 -0.000376 0.999885 0.044363 0.017104 0.998869 -0.049601 -0.015609 0.998647 -0.028848 0.008858 0.999545 -0.9996 0.026451 0.009966 0.001944 0.529689 0.848189 -0.007092 0.470185 0.882539 -0.036701 -0.000689 0.999326 0.006409 0.0367 0.999306 0.286454 0.079234 0.954812 -0.999982 0.005884 0.00082 -0.99939 -0.013352 -0.032267 -0.999452 0.03174 0.009391 -0.044306 0.170574 0.984348 -0.03564 -0.041473 0.998504 0.06949 -0.07403 0.994832 -0.005114 0.003032 0.999982 0.005367 0.021023 0.999765 -0.998638 -0.004249 -0.052006 -0.999094 -0.003449 -0.042417 -0.999961 0.000655 0.00878 -0.970235 -0.003599 -0.242137 0.087297 0.014218 0.996081 -0.031456 0.004849 0.999493 0.175056 -0.17337 0.969174 -0.999987 -0.005155 0.000013 0.084332 0.090326 0.992335</float_array>
          <technique_common>
            <accessor source="#Closet4-mesh-normals-array" count="500" stride="3">
              <param name="X" type="float"/>
              <param name="Y" type="float"/>
              <param name="Z" type="float"/>
            </accessor>
          </technique_common>
        </source>
        <source id="Closet4-mesh-map-0">
          <float_array id="Closet4-mesh-map-0-array" count="3000">0.011683 0.541103 0.039818 0.984606 0.280625 0.996994 0.977433 0.590333 0.979867 0.641093 0.978763 0.852632 0.498074 0.435 0.54701 0.583224 0.651774 0.432698 0.978245 0.898555 0.824606 0.940083 0.945807 0.981881 0.597746 0.784146 0.54701 0.583224 0.498972 0.893992 0.280366 0.528926 0.011683 0.541103 0.280625 0.996994 0.633282 0.438303 0.54701 0.583224 0.68115 0.548438 0.883916 0.298222 0.845613 0.298108 0.864461 0.29471 0.978245 0.898555 0.85532 0.895735 0.824606 0.940083 0.68115 0.548438 0.54701 0.583224 0.63785 0.613177 0.498025 0.43223 0.498074 0.435 0.651774 0.432698 0.496289 0.693629 0.497759 0.903514 0.54701 0.583224 0.54701 0.583224 0.497759 0.903514 0.498972 0.893992 0.996075 0.887282 0.88357 0.888191 0.996253 0.89055 0.280448 0.527076 0.011683 0.541103 0.280366 0.528926 0.842264 0.255872 0.845722 0.258311 0.845722 0.250225 0.883916 0.298222 0.885353 0.345589 0.852069 0.346224 0.845613 0.298108 0.883916 0.298222 0.852069 0.346224 0.834134 0.206166 0.825801 0.213698 0.772688 0.206927 0.737609 0.211915 0.772688 0.206927 0.757653 0.209817 0.737609 0.211915 0.633121 0.204637 0.772688 0.206927 0.330601 0.266437 0.18966 0.267619 0.399136 0.268895 0.286747 0.487511 0.289083 0.487294 0.294219 0.890802 0.261303 0.467974 0.346154 0.420934 0.293185 0.447367 0.099224 0.198298 0.136164 0.200387 0.103423 0.206671 0.990156 0.759164 0.990605 0.799073 0.988057 0.799405 0.622282 0.286876 0.621144 0.339396 0.630662 0.306903 0.653962 0.307485 0.630662 0.306903 0.655874 0.326729 0.655874 0.326729 0.630662 0.306903 0.621144 0.339396 0.759018 0.831237 0.769198 0.798937 0.792152 0.801788 0.122848 0.011309 0.101136 0.01261 0.121573 0.014914 0.622282 0.286876 0.630662 0.306903 0.653962 0.307485 0.711625 0.296285 0.653962 0.307485 0.694995 0.307086 0.711625 0.296285 0.622282 0.286876 0.653962 0.307485 0.653962 0.307485 0.655874 0.326729 0.694995 0.307086 0.942877 0.341481 0.945716 0.302648 0.947308 0.342945 0.596217 0.388071 0.570831 0.367359 0.565299 0.374933 0.580163 0.339326 0.576803 0.286639 0.46983 0.31806 0.706158 0.242633 0.705375 0.246729 0.754508 0.245631 0.46983 0.31806 0.525912 0.35172 0.580163 0.339326 0.580163 0.339326 0.525912 0.35172 0.565408 0.348205 0.808405 0.275517 0.768517 0.275066 0.799899 0.245571 0.799899 0.245571 0.768517 0.275066 0.764934 0.245236 0.125356 0.216844 0.136164 0.200387 0.136374 0.249077 0.125356 0.216844 0.136374 0.249077 0.122213 0.226803 0.580163 0.339326 0.565408 0.348205 0.621144 0.339396 0.113507 0.227034 0.122213 0.226803 0.136374 0.249077 0.113507 0.227034 0.136374 0.249077 0.099616 0.249941 0.661989 0.001793 0.69153 0.003848 0.71051 0.001319 0.759422 0.030429 0.752523 0.04817 0.811315 0.030291 0.752523 0.04817 0.814763 0.044486 0.811315 0.030291 0.737639 0.489214 0.722616 0.495123 0.73382 0.47842 0.043157 0.169066 0.028036 0.216115 0.03172 0.220243 0.129696 0.441819 0.124079 0.420522 0.122318 0.43345 0.122318 0.43345 0.090404 0.433556 0.129696 0.441819 0.090404 0.433556 0.019769 0.431062 0.129696 0.441819 0.086498 0.422399 0.042916 0.419973 0.090404 0.433556 0.042916 0.419973 0.028525 0.430393 0.019769 0.431062 0.042916 0.419973 0.019769 0.431062 0.090404 0.433556 0.028062 0.389613 0.019769 0.431062 0.028525 0.430393 0.03208 0.38612 0.028062 0.389613 0.042916 0.419973 0.028062 0.389613 0.028525 0.430393 0.042916 0.419973 0.661408 0.14545 0.668919 0.157622 0.677207 0.156458 0.043157 0.169066 0.03208 0.38612 0.042916 0.419973 0.657226 0.752688 0.656148 0.632931 0.656069 0.88199 0.03208 0.38612 0.043157 0.169066 0.028062 0.389613 0.519255 0.959659 0.530013 0.954177 0.529465 0.946466 0.519255 0.959659 0.529465 0.946466 0.508113 0.959113 0.508113 0.959113 0.529465 0.946466 0.498804 0.946545 0.131025 0.15485 0.131714 0.142879 0.135514 0.154648 0.135514 0.154648 0.131714 0.142879 0.136984 0.142937 0.0051 0.120661 0.049987 0.119627 0.005064 0.11773 0.68172 0.950558 0.706721 0.971083 0.675181 0.997209 0.062773 0.080244 0.054412 0.083907 0.064391 0.082599 0.408738 0.762374 0.404621 0.769138 0.415285 0.767838 0.675181 0.997209 0.674258 0.951753 0.68172 0.950558 0.706721 0.971083 0.754781 0.97134 0.78921 0.997553 0.955205 0.2702 0.954472 0.146619 0.954967 0.022692 0.703315 0.831546 0.701524 0.806767 0.759018 0.831237 0.603778 0.247926 0.607129 0.263047 0.60698 0.239257 0.607129 0.263047 0.603778 0.247926 0.600559 0.258687 0.987468 0.585465 0.984567 0.59138 0.984015 0.565623 0.987469 0.561082 0.987468 0.585465 0.984015 0.565623 0.759018 0.831237 0.701524 0.806767 0.71335 0.774278 0.759018 0.831237 0.792152 0.801788 0.78921 0.997553 0.759018 0.831237 0.71335 0.774278 0.734571 0.777651 0.685954 0.798464 0.701524 0.806767 0.703315 0.831546 0.600559 0.258687 0.569394 0.2431 0.5744 0.258559 0.568383 0.262328 0.5744 0.258559 0.569394 0.2431 0.603778 0.247926 0.60698 0.239257 0.569394 0.2431 0.603778 0.247926 0.569394 0.2431 0.600559 0.258687 0.833045 0.463559 0.825801 0.213698 0.833305 0.49485 0.833305 0.49485 0.825801 0.213698 0.834134 0.206166 0.07397 0.269087 0.166737 0.356001 0.167657 0.268379 0.18966 0.267619 0.167657 0.268379 0.166737 0.356001 0.18966 0.267619 0.166737 0.356001 0.399136 0.268895 0.452611 0.948335 0.490171 0.95786 0.407755 0.952725 0.452611 0.948335 0.466308 0.93546 0.490171 0.95786 0.492909 0.050408 0.49229 0.261269 0.4947 0.18576 0.327235 0.541889 0.289083 0.487294 0.359806 0.540138 0.607941 0.328356 0.595059 0.329814 0.597546 0.335621 0.091275 0.155864 0.029728 0.159041 0.043157 0.169066 0.091275 0.155864 0.043157 0.169066 0.089396 0.16739 0.460369 0.964603 0.429503 0.965273 0.460175 0.971601 0.429503 0.965273 0.43906 0.973032 0.450938 0.972777 0.337173 0.548921 0.327825 0.549503 0.335265 0.552466 0.429503 0.965273 0.450938 0.972777 0.460175 0.971601 0.43906 0.973032 0.429503 0.965273 0.427398 0.972689 0.948818 0.301744 0.947907 0.119206 0.945716 0.302648 0.945554 0.17215 0.947907 0.119206 0.945716 0.302648 0.7336 0.729642 0.791771 0.632545 0.791598 0.754571 0.7336 0.729642 0.768703 0.757019 0.759018 0.831237 0.734571 0.777651 0.718792 0.731522 0.759018 0.831237 0.759018 0.831237 0.718792 0.731522 0.7336 0.729642 0.723036 0.662391 0.791771 0.632545 0.740312 0.670647 0.7336 0.729642 0.740312 0.670647 0.791771 0.632545 0.7336 0.729642 0.791598 0.754571 0.768703 0.757019 0.759018 0.831237 0.768703 0.757019 0.769198 0.798937 0.71335 0.774278 0.7072 0.731831 0.718792 0.731522 0.71335 0.774278 0.718792 0.731522 0.719671 0.764949 0.716564 0.771594 0.719671 0.764949 0.734571 0.777651 0.719671 0.764949 0.718792 0.731522 0.734571 0.777651 0.435534 0.322981 0.404725 0.288661 0.404821 0.402784 0.404725 0.288661 0.435534 0.322981 0.576803 0.286639 0.576803 0.286639 0.435534 0.322981 0.459682 0.323026 0.610103 0.971698 0.621442 0.971225 0.590779 0.947441 0.93318 0.881053 0.933794 0.877401 0.820993 0.877517 0.576803 0.286639 0.459682 0.323026 0.46983 0.31806 0.665334 0.01712 0.840071 0.014013 0.665896 0.012022 0.841592 0.016682 0.840071 0.014013 0.665334 0.01712 0.538504 0.210881 0.532814 0.1924 0.529166 0.207572 0.551287 0.214286 0.532814 0.1924 0.538504 0.210881 0.655351 0.339489 0.655874 0.326729 0.621144 0.339396 0.96324 0.255526 0.962515 0.248863 0.963185 0.208004 0.84156 0.458211 0.841392 0.504583 0.874753 0.458436 0.655351 0.339489 0.621144 0.339396 0.615751 0.383096 0.662715 0.375028 0.615751 0.383096 0.620356 0.404143 0.655351 0.339489 0.615751 0.383096 0.662715 0.375028 0.236264 0.470484 0.255018 0.473973 0.256067 0.513202 0.236264 0.470484 0.256067 0.513202 0.23474 0.498141 0.23474 0.498141 0.256067 0.513202 0.235054 0.515624 0.341957 0.974962 0.356789 0.966199 0.324903 0.987272 0.874753 0.458436 0.841392 0.504583 0.874708 0.504446 0.288242 0.957801 0.294176 0.890987 0.295579 0.910395 0.362973 0.850336 0.380729 0.800694 0.385571 0.839557 0.328496 0.894564 0.294219 0.890802 0.380729 0.800694 0.330039 0.913272 0.405908 0.912422 0.288242 0.957801 0.391156 0.888808 0.328496 0.894564 0.422729 0.843876 0.583923 0.10778 0.590695 0.154312 0.5802 0.129912 0.330039 0.913272 0.328496 0.894564 0.405908 0.912422 0.362973 0.850336 0.385571 0.839557 0.422729 0.843876 0.438571 0.375065 0.404821 0.402784 0.447879 0.396754 0.450378 0.376203 0.438571 0.375065 0.447879 0.396754 0.447879 0.396754 0.404821 0.402784 0.446793 0.404285 0.191185 0.047419 0.192845 0.078725 0.188884 0.054969 0.566365 0.2292 0.577475 0.227896 0.565755 0.224638 0.577475 0.227896 0.58951 0.230061 0.589143 0.226392 0.47869 0.373044 0.467147 0.325331 0.467066 0.374058 0.47869 0.373044 0.467066 0.374058 0.459963 0.376372 0.478791 0.388852 0.47869 0.373044 0.459963 0.376372 0.459963 0.376372 0.447879 0.396754 0.478791 0.388852 0.465939 0.325989 0.459963 0.376372 0.464783 0.373832 0.459682 0.323026 0.459963 0.376372 0.465939 0.325989 0.459963 0.376372 0.450378 0.376203 0.447879 0.396754 0.897432 0.282989 0.771763 0.11862 0.896547 0.074302 0.450641 0.524327 0.451727 0.486018 0.469581 0.537193 0.315633 0.406711 0.265807 0.428882 0.313648 0.427446 0.265807 0.428882 0.315633 0.406711 0.273444 0.405802 0.450641 0.524327 0.289083 0.487294 0.451727 0.486018 0.414883 0.563761 0.289083 0.487294 0.450641 0.524327 0.414883 0.563761 0.359806 0.540138 0.289083 0.487294 0.665916 0.80153 0.662844 0.823413 0.668852 0.780766 0.440248 0.652325 0.380087 0.637416 0.451562 0.559236 0.460075 0.604232 0.451562 0.559236 0.467562 0.587324 0.1544 0.064111 0.165514 0.078616 0.16546 0.064241 0.451562 0.559236 0.469581 0.537193 0.467562 0.587324 0.067034 0.262955 0.047439 0.263704 0.096367 0.263475 0.440248 0.652325 0.48973 0.611204 0.49065 0.821202 0.621925 0.938089 0.623511 0.919868 0.579108 0.937561 0.122352 0.151338 0.019452 0.150708 0.091275 0.155864 0.12384 0.136046 0.1069 0.107352 0.124604 0.101317 0.106723 0.131138 0.1069 0.107352 0.12384 0.136046 0.896547 0.074302 0.743383 0.110593 0.620289 0.073232 0.100729 0.427886 0.098882 0.389819 0.099287 0.413554 0.488484 0.460328 0.478439 0.461269 0.487397 0.468407 0.478439 0.461269 0.457361 0.467131 0.487397 0.468407 0.468422 0.446494 0.481786 0.454007 0.48919 0.452845 0.59965 0.984784 0.582772 0.97709 0.599427 0.969627 0.583262 0.969462 0.582772 0.97709 0.599427 0.969627 0.468422 0.446494 0.48919 0.452845 0.487765 0.436349 0.461881 0.437127 0.468422 0.446494 0.487765 0.436349 0.848687 0.276496 0.851073 0.265825 0.853325 0.276742 0.692442 0.362128 0.68803 0.359975 0.691571 0.354793 0.816717 0.223928 0.786182 0.223036 0.825801 0.213698 0.786182 0.223036 0.772688 0.206927 0.825801 0.213698 0.410871 0.437196 0.409869 0.452029 0.45995 0.452908 0.45995 0.452908 0.461881 0.437127 0.410871 0.437196 0.45995 0.452908 0.468422 0.446494 0.461881 0.437127 0.380087 0.637416 0.436691 0.758065 0.386548 0.755175 0.49065 0.821202 0.436691 0.758065 0.476282 0.661437 0.380087 0.637416 0.440248 0.652325 0.436691 0.758065 0.674152 0.574598 0.788916 0.573366 0.704958 0.605184 0.704679 0.611767 0.674152 0.574598 0.704958 0.605184 0.682118 0.619024 0.705332 0.621301 0.705004 0.63026 0.682118 0.619024 0.704679 0.611767 0.705332 0.621301 0.674023 0.617289 0.674152 0.574598 0.682118 0.619024 0.682118 0.619024 0.674152 0.574598 0.704679 0.611767 0.597546 0.335621 0.595059 0.329814 0.588362 0.334512 0.845413 0.566289 0.837174 0.566033 0.838629 0.571733 0.682118 0.619024 0.705004 0.63026 0.707224 0.638391 0.682154 0.651945 0.682118 0.619024 0.707224 0.638391 0.707732 0.636422 0.705004 0.63026 0.755231 0.63659 0.847166 0.674764 0.844859 0.622148 0.852207 0.62403 0.707981 0.617717 0.704679 0.611767 0.75728 0.608059 0.908112 0.54165 0.92454 0.544442 0.915926 0.547353 0.908112 0.54165 0.910676 0.536006 0.92454 0.544442 0.880511 0.57548 0.893408 0.561395 0.908647 0.570765 0.897431 0.53602 0.880511 0.57548 0.883523 0.546678 0.880511 0.57548 0.883523 0.546678 0.893408 0.561395 0.88735 0.552594 0.883523 0.546678 0.902602 0.541973 0.883523 0.546678 0.897431 0.53602 0.902602 0.541973 0.892254 0.55351 0.902602 0.541973 0.88735 0.552594 0.879563 0.520877 0.887214 0.52326 0.880511 0.57548 0.880511 0.57548 0.887214 0.52326 0.897431 0.53602 0.897431 0.53602 0.887214 0.52326 0.914501 0.531922 0.914501 0.531922 0.929174 0.516899 0.92454 0.544442 0.880511 0.57548 0.908647 0.570765 0.930488 0.575575 0.597269 0.321302 0.599755 0.315139 0.591586 0.319944 0.155731 0.472687 0.149284 0.473945 0.159299 0.465871 0.919308 0.554927 0.915926 0.547353 0.92454 0.544442 0.585566 0.306828 0.591586 0.319944 0.599755 0.315139 0.924703 0.545649 0.929174 0.516899 0.930488 0.575575 0.880138 0.513708 0.929174 0.516899 0.887214 0.52326 0.887214 0.52326 0.929174 0.516899 0.911394 0.527507 0.758756 0.897882 0.759018 0.831237 0.78921 0.997553 0.754781 0.97134 0.756571 0.96299 0.78921 0.997553 0.756571 0.96299 0.756857 0.95125 0.78921 0.997553 0.704956 0.952332 0.733267 0.93664 0.756857 0.95125 0.756857 0.95125 0.733267 0.93664 0.73522 0.92148 0.73522 0.92148 0.758756 0.897882 0.756857 0.95125 0.756857 0.95125 0.758756 0.897882 0.78921 0.997553 0.704956 0.952332 0.756857 0.95125 0.754671 0.959808 0.73522 0.92148 0.70739 0.912781 0.758756 0.897882 0.703819 0.897737 0.758756 0.897882 0.70739 0.912781 0.957845 0.422361 0.962403 0.424684 0.962403 0.428751 0.36588 0.591976 0.359806 0.540138 0.414883 0.563761 0.346325 0.595913 0.36588 0.591976 0.362717 0.623133 0.346325 0.595913 0.362717 0.623133 0.325123 0.594533 0.028036 0.216115 0.028062 0.389613 0.03172 0.220243 0.019452 0.150708 0.029728 0.159041 0.091275 0.155864 0.029728 0.159041 0.028036 0.216115 0.043157 0.169066 0.608648 0.077797 0.608902 0.089398 0.602537 0.083575 0.028036 0.216115 0.019452 0.150708 0.018126 0.308726 0.028036 0.216115 0.018126 0.308726 0.028062 0.389613 0.850573 0.410378 0.85131 0.395608 0.848404 0.405281 0.79949 0.313362 0.771074 0.32183 0.784126 0.325232 0.711625 0.296285 0.745157 0.331183 0.765064 0.323362 0.79949 0.313362 0.711625 0.296285 0.771074 0.32183 0.800002 0.298258 0.711625 0.296285 0.79949 0.313362 0.711625 0.296285 0.765064 0.323362 0.771074 0.32183 0.765064 0.323362 0.745157 0.331183 0.749862 0.348323 0.765064 0.323362 0.749862 0.348323 0.74735 0.361193 0.765064 0.323362 0.74735 0.361193 0.748249 0.374208 0.785442 0.324734 0.779609 0.360017 0.785389 0.373366 0.607402 0.418312 0.603225 0.423984 0.655432 0.423364 0.77518 0.326525 0.767855 0.375963 0.776508 0.373456 0.627651 0.049964 0.675547 0.04117 0.626444 0.041357 0.675138 0.050378 0.675547 0.04117 0.627651 0.049964 0.457361 0.467131 0.456522 0.473741 0.487397 0.468407 0.968658 0.315563 0.967898 0.297461 0.970021 0.283713 0.478439 0.461269 0.46644 0.465437 0.457361 0.467131 0.507673 0.020788 0.499522 0.027675 0.509973 0.027775 0.477864 0.019729 0.478981 0.025926 0.499522 0.027675 0.477864 0.019729 0.499522 0.027675 0.507673 0.020788 0.478981 0.025926 0.488226 0.028084 0.499522 0.027675 0.621992 0.222404 0.633121 0.204637 0.737609 0.211915 0.073028 0.042562 0.077727 0.0513 0.07233 0.051143 0.849896 0.241542 0.854754 0.24178 0.852343 0.253739 0.07233 0.051143 0.077727 0.0513 0.073322 0.05757 0.073322 0.05757 0.077727 0.0513 0.079627 0.064988 0.621992 0.222404 0.737609 0.211915 0.735964 0.222624 0.459682 0.323026 0.435534 0.322981 0.450424 0.322755 0.450424 0.322755 0.435534 0.322981 0.441911 0.322499 0.176763 0.089335 0.170444 0.094401 0.17182 0.085602 0.455966 0.325946 0.450424 0.322755 0.450378 0.376203 0.447409 0.325835 0.441911 0.322499 0.447341 0.373182 0.170444 0.094401 0.17182 0.085602 0.12215 0.088915 0.455966 0.325946 0.450378 0.376203 0.45594 0.373319 0.040464 0.097927 0.03198 0.098342 0.036011 0.04571 0.447341 0.373182 0.441911 0.322499 0.438571 0.375065 0.596217 0.388071 0.565299 0.374933 0.598407 0.40287 0.46983 0.31806 0.490758 0.368649 0.525912 0.35172 0.504732 0.156338 0.516859 0.158402 0.504099 0.199031 0.520333 0.184346 0.520635 0.213388 0.516859 0.158402 0.504099 0.199031 0.516859 0.158402 0.50376 0.217843 0.516859 0.158402 0.520635 0.213388 0.50376 0.217843 0.565299 0.374933 0.499226 0.403297 0.598407 0.40287 0.565299 0.374933 0.525509 0.382914 0.499226 0.403297 0.525912 0.35172 0.490758 0.368649 0.499226 0.403297 0.525912 0.35172 0.499226 0.403297 0.525509 0.382914 0.490758 0.368649 0.467147 0.325331 0.47869 0.373044 0.654858 0.256577 0.680617 0.256451 0.683449 0.236391 0.651907 0.236067 0.654858 0.256577 0.683449 0.236391 0.286367 0.779633 0.287208 0.679217 0.288242 0.957801 0.75728 0.608059 0.704958 0.605184 0.788916 0.573366 0.755987 0.638608 0.758037 0.630533 0.791771 0.632545 0.75728 0.608059 0.788916 0.573366 0.791771 0.632545 0.758037 0.630533 0.758708 0.621324 0.791771 0.632545 0.758708 0.621324 0.75728 0.608059 0.791771 0.632545 0.075478 0.500143 0.076575 0.509302 0.082431 0.505221 0.705004 0.63026 0.758037 0.630533 0.755231 0.63659 0.848364 0.616858 0.852207 0.62403 0.844859 0.622148 0.707609 0.626684 0.705332 0.621301 0.758708 0.621324 0.707609 0.626684 0.758708 0.621324 0.755224 0.626873 0.95497 0.288643 0.958526 0.340803 0.961889 0.286952 0.021151 0.051537 0.020549 0.102383 0.011867 0.050485 0.020549 0.102383 0.015018 0.107716 0.011867 0.050485 0.755161 0.617888 0.707981 0.617717 0.75728 0.608059 0.407755 0.952725 0.405908 0.912422 0.452611 0.948335 0.799833 0.363146 0.785442 0.324734 0.787631 0.373698 0.711625 0.296285 0.800002 0.298258 0.812871 0.317492 0.784603 0.376428 0.780955 0.376675 0.767717 0.395488 0.799833 0.363146 0.787631 0.373698 0.789522 0.375146 0.800002 0.298258 0.79949 0.313362 0.812871 0.317492 0.812871 0.317492 0.79949 0.313362 0.808421 0.375856 0.812871 0.317492 0.808421 0.375856 0.812635 0.402762 0.808421 0.375856 0.79949 0.313362 0.799833 0.363146 0.28506 0.008536 0.291703 0.001348 0.271877 0.002751 0.79949 0.313362 0.785442 0.324734 0.799833 0.363146 0.322877 0.24832 0.313766 0.247801 0.309506 0.253374 0.097569 0.185673 0.087783 0.175775 0.085812 0.18721 0.68159 0.918275 0.673718 0.915557 0.701221 0.925575 0.701221 0.925575 0.68172 0.950558 0.68159 0.918275 0.087783 0.175775 0.097569 0.185673 0.109293 0.185936 0.117681 0.173119 0.087783 0.175775 0.119958 0.185637 0.087783 0.175775 0.109293 0.185936 0.119958 0.185637 0.729519 0.882907 0.741509 0.886255 0.748395 0.881808 0.637808 0.980145 0.641517 0.959369 0.643969 0.989428 0.560446 0.936538 0.583606 0.919801 0.552293 0.919715 0.579108 0.937561 0.583606 0.919801 0.560446 0.936538 0.579108 0.937561 0.623511 0.919868 0.583606 0.919801 0.574647 0.973265 0.560446 0.936538 0.558496 0.989975 0.574647 0.973265 0.579108 0.937561 0.560446 0.936538 0.902067 0.45961 0.913401 0.457018 0.902051 0.455164 0.439327 0.476351 0.442333 0.46391 0.443355 0.474763 0.722616 0.495123 0.772632 0.488324 0.823355 0.484809 0.823355 0.484809 0.772632 0.488324 0.818539 0.464052 0.722616 0.495123 0.737639 0.489214 0.772632 0.488324 0.772632 0.488324 0.770633 0.477791 0.818539 0.464052 0.408738 0.762374 0.39485 0.761741 0.404621 0.769138 0.718669 0.85068 0.712265 0.845618 0.718669 0.838724 0.626444 0.041357 0.622288 0.04411 0.627651 0.049964 0.939794 0.558581 0.941639 0.527332 0.937896 0.526418 0.745157 0.331183 0.713376 0.318296 0.712466 0.334231 0.767855 0.375963 0.737093 0.394467 0.767717 0.395488 0.780955 0.376675 0.767855 0.375963 0.767717 0.395488 0.068894 0.369609 0.056909 0.338898 0.08155 0.378072 0.745503 0.332829 0.712466 0.334231 0.739941 0.353375 0.767855 0.375963 0.765064 0.323362 0.748249 0.374208 0.767855 0.375963 0.748249 0.374208 0.737093 0.394467 0.735267 0.39667 0.715799 0.380767 0.620356 0.404143 0.703242 0.373056 0.620356 0.404143 0.715799 0.380767 0.735267 0.39667 0.620356 0.404143 0.734976 0.403808 0.068894 0.369609 0.054152 0.359409 0.056909 0.338898 0.073445 0.344593 0.056909 0.338898 0.062931 0.337213 0.746876 0.350357 0.745503 0.332829 0.739941 0.353375 0.080205 0.338746 0.08155 0.378072 0.056909 0.338898 0.711025 0.361116 0.703242 0.373056 0.715286 0.371782 0.825801 0.213698 0.818539 0.464052 0.820844 0.310314 0.833045 0.463559 0.818539 0.464052 0.825801 0.213698 0.674448 0.892622 0.703819 0.897737 0.70739 0.912781 0.703819 0.897737 0.674448 0.892622 0.703315 0.831546 0.701221 0.925575 0.733267 0.93664 0.704956 0.952332 0.68172 0.950558 0.701221 0.925575 0.704956 0.952332 0.707008 0.959903 0.704956 0.952332 0.754671 0.959808 0.458961 0.017012 0.341582 0.015863 0.250152 0.019664 0.674448 0.892622 0.685954 0.798464 0.703315 0.831546 0.051813 0.135154 0.017362 0.124881 0.07214 0.143708 0.62775 0.763752 0.631372 0.762317 0.625086 0.758833 0.883354 0.485624 0.894418 0.488414 0.894628 0.485624 0.598022 0.910818 0.598728 0.914325 0.602654 0.905314 0.916371 0.127798 0.918034 0.128591 0.914802 0.13021 0.113397 0.214664 0.113507 0.227034 0.103423 0.206671 0.136164 0.200387 0.113397 0.214664 0.103423 0.206671 0.099224 0.198298 0.103423 0.206671 0.099616 0.249941 0.113397 0.214664 0.136164 0.200387 0.125356 0.216844 0.103423 0.206671 0.113507 0.227034 0.099616 0.249941 0.602654 0.905314 0.598728 0.914325 0.610286 0.906083 0.598728 0.914325 0.610047 0.912632 0.610286 0.906083 0.430493 0.026991 0.393007 0.029097 0.43423 0.03073 0.429112 0.795864 0.425456 0.835209 0.421297 0.796253 0.808777 0.627077 0.817295 0.628374 0.814411 0.585819 0.356841 0.770645 0.386548 0.755175 0.384375 0.77631 0.380087 0.637416 0.294219 0.890802 0.325123 0.594533 0.157736 0.115454 0.157736 0.137017 0.149724 0.133777 0.294219 0.890802 0.380087 0.637416 0.356841 0.770645 0.380087 0.637416 0.386548 0.755175 0.356841 0.770645 0.442169 0.839485 0.436691 0.758065 0.457719 0.83367 0.466132 0.8151 0.457719 0.83367 0.466996 0.768657 0.442169 0.839485 0.457719 0.83367 0.475741 0.838702 0.466132 0.8151 0.466996 0.768657 0.49065 0.821202 0.422729 0.843876 0.442169 0.839485 0.475741 0.838702 0.875113 0.44773 0.911155 0.44338 0.856712 0.443557 0.910883 0.359835 0.911155 0.44338 0.912409 0.396392 0.385571 0.839557 0.380729 0.800694 0.384375 0.77631 0.38031 0.7987 0.361314 0.771526 0.384375 0.77631 0.347934 0.791327 0.361314 0.771526 0.38031 0.7987 0.490171 0.95786 0.466308 0.93546 0.475741 0.838702 0.420527 0.897194 0.475741 0.838702 0.466308 0.93546 0.536445 0.051662 0.542937 0.06123 0.539704 0.069263 0.707422 0.96921 0.70388 0.963766 0.754209 0.969435 0.754209 0.969435 0.70388 0.963766 0.756571 0.96299 0.706721 0.971083 0.68172 0.950558 0.70388 0.963766 0.68172 0.950558 0.704956 0.952332 0.70388 0.963766 0.675181 0.997209 0.706721 0.971083 0.78921 0.997553 0.560446 0.936538 0.551973 0.921782 0.53455 0.926024 0.722626 0.27847 0.710999 0.276723 0.722644 0.273247 0.723036 0.662391 0.707224 0.638391 0.755987 0.638608 0.723036 0.662391 0.755987 0.638608 0.791771 0.632545 0.304906 0.184706 0.336531 0.186938 0.336604 0.183494 0.682154 0.651945 0.707224 0.638391 0.723036 0.662391 0.980861 0.045088 0.976191 0.067234 0.980657 0.057173 0.980861 0.045088 0.97447 0.03472 0.976191 0.067234 0.189208 0.407789 0.265807 0.428882 0.273444 0.405802 0.186473 0.405655 0.189454 0.428813 0.189208 0.407789 0.265807 0.428882 0.189208 0.407789 0.189454 0.428813 0.594544 0.90438 0.598728 0.914325 0.596724 0.90906 0.533674 0.242258 0.533544 0.225966 0.517653 0.226253 0.009664 0.261369 0.014095 0.271809 0.011582 0.288383 0.989707 0.625642 0.989902 0.608783 0.986511 0.608101 0.829318 0.975073 0.828041 0.971977 0.822365 0.976537 0.518814 0.243102 0.533674 0.242258 0.517653 0.226253 0.837261 0.970184 0.821861 0.970307 0.828041 0.971977 0.837261 0.970184 0.828041 0.971977 0.833025 0.973176 0.833025 0.973176 0.829318 0.975073 0.837505 0.976275 0.829318 0.975073 0.822365 0.976537 0.837505 0.976275 0.914975 0.112304 0.917846 0.112733 0.913645 0.125188 0.74584 0.545635 0.746528 0.542228 0.759147 0.545692 0.759147 0.545692 0.74584 0.545635 0.765432 0.544231 0.927515 0.185875 0.928151 0.171514 0.930423 0.185321 0.988101 0.629379 0.986511 0.608101 0.989707 0.625642 0.910933 0.009469 0.908755 0.02646 0.911463 0.024271 0.927515 0.185875 0.927768 0.164772 0.928151 0.171514 0.559158 0.898786 0.544315 0.898023 0.54408 0.900818 0.559158 0.898786 0.54408 0.900818 0.558242 0.902857 0.423849 0.775965 0.41113 0.774061 0.412702 0.775813 0.928151 0.171514 0.927768 0.164772 0.930026 0.167176 0.91201 0.027403 0.908755 0.02646 0.911463 0.024271 0.558242 0.902857 0.561311 0.907463 0.566332 0.900103 0.762117 0.542918 0.759147 0.545692 0.765432 0.544231 0.914975 0.112304 0.913645 0.125188 0.914802 0.13021 0.883101 0.48792 0.894418 0.488414 0.883354 0.485624 0.134399 0.184891 0.131864 0.185535 0.130921 0.171072 0.794201 0.466397 0.794237 0.441545 0.796553 0.464741 0.794237 0.441545 0.798686 0.431385 0.796553 0.464741 0.703242 0.373056 0.662715 0.375028 0.620356 0.404143 0.745157 0.331183 0.711625 0.296285 0.713376 0.318296 0.712466 0.334231 0.694995 0.307086 0.696821 0.328255 0.295232 0.244863 0.278864 0.253384 0.295266 0.261092 0.713376 0.318296 0.694995 0.307086 0.712466 0.334231 0.696821 0.328255 0.703242 0.373056 0.712466 0.334231 0.713793 0.354285 0.712466 0.334231 0.703242 0.373056 0.694995 0.307086 0.655874 0.326729 0.696821 0.328255 0.405908 0.912422 0.466308 0.93546 0.452611 0.948335 0.405908 0.912422 0.422384 0.898624 0.466308 0.93546 0.685954 0.798464 0.69204 0.676165 0.692534 0.729619 0.685954 0.798464 0.673825 0.674047 0.69204 0.676165 0.977891 0.17708 0.995965 0.24095 0.977943 0.394601 0.995965 0.24095 0.99579 0.39554 0.977943 0.394601 0.701221 0.925575 0.70739 0.912781 0.73522 0.92148 0.733267 0.93664 0.701221 0.925575 0.73522 0.92148 0.20629 0.182244 0.20649 0.150644 0.20631 0.199584 0.967733 0.50163 0.967414 0.39882 0.98359 0.403278 0.983152 0.503193 0.967733 0.50163 0.98359 0.403278 0.692534 0.729619 0.7072 0.731831 0.685954 0.798464 0.685954 0.798464 0.7072 0.731831 0.71335 0.774278 0.685954 0.798464 0.71335 0.774278 0.701524 0.806767 0.288242 0.957801 0.295579 0.910395 0.330039 0.913272 0.027337 0.500385 0.076575 0.509302 0.075478 0.500143 0.027337 0.500385 0.026366 0.509648 0.076575 0.509302 0.558496 0.989975 0.560446 0.936538 0.53455 0.926024 0.547847 0.987919 0.558496 0.989975 0.533655 0.983674 0.497026 0.954195 0.508113 0.959113 0.498804 0.946545 0.347934 0.791327 0.357488 0.795676 0.294219 0.890802 0.347934 0.791327 0.294219 0.890802 0.356841 0.770645 0.698381 0.028427 0.734187 0.042762 0.735264 0.025011 0.157266 0.482333 0.149284 0.473945 0.155731 0.472687 0.168411 0.487002 0.157266 0.482333 0.170224 0.482323 0.153953 0.489684 0.152565 0.497106 0.140545 0.492894 0.806059 0.227414 0.813815 0.231429 0.807422 0.234032 0.558496 0.989975 0.53455 0.926024 0.533655 0.983674 0.294219 0.890802 0.327235 0.541889 0.325123 0.594533 0.289083 0.487294 0.327235 0.541889 0.294219 0.890802 0.911155 0.44338 0.910883 0.359835 0.860385 0.360003 0.287208 0.679217 0.294219 0.890802 0.288242 0.957801 0.872034 0.601497 0.875166 0.589487 0.877456 0.603693 0.341868 0.440025 0.33969 0.429999 0.34495 0.432786 0.14884 0.481972 0.153953 0.489684 0.146533 0.481461 0.856712 0.443557 0.911155 0.44338 0.860385 0.360003 0.797314 0.859076 0.804776 0.85875 0.805509 0.867125</float_array>
          <technique_common>
            <accessor source="#Closet4-mesh-map-0-array" count="1500" stride="2">
              <param name="S" type="float"/>
              <param name="T" type="float"/>
            </accessor>
          </technique_common>
        </source>
        <vertices id="Closet4-mesh-vertices">
          <input semantic="POSITION" source="#Closet4-mesh-positions"/>
        </vertices>
        <polylist material="Material_-1-material" count="6">
          <input semantic="VERTEX" source="#Closet4-mesh-vertices" offset="0"/>
          <input semantic="NORMAL" source="#Closet4-mesh-normals" offset="1"/>
          <input semantic="TEXCOORD" source="#Closet4-mesh-map-0" offset="2" set="0"/>
          <vcount>3 3 3 3 3 3 3 3 3 3 3 3 3 3 3 3 3 3 3 3 3 3 3 3 3 3 3 3 3 3 3 3 3 3 3 3 3 3 3 3 3 3 3 3 3 3 3 3 3 3 3 3 3 3 3 3 3 3 3 3 3 3 3 3 3 3 3 3 3 3 3 3 3 3 3 3 3 3 3 3 3 3 3 3 3 3 3 3 3 3 3 3 3 3 3 3 3 3 3 3 3 3 3 3 3 3 3 3 3 3 3 3 3 3 3 3 3 3 3 3 3 3 3 3 3 3 3 3 3 3 3 3 3 3 3 3 3 3 3 3 3 3 3 3 3 3 3 3 3 3 3 3 3 3 3 3 3 3 3 3 3 3 3 3 3 3 3 3 3 3 3 3 3 3 3 3 3 3 3 3 3 3 3 3 3 3 3 3 3 3 3 3 3 3 3 3 3 3 3 3 3 3 3 3 3 3 3 3 3 3 3 3 3 3 3 3 3 3 3 3 3 3 3 3 3 3 3 3 3 3 3 3 3 3 3 3 3 3 3 3 3 3 3 3 3 3 3 3 3 3 3 3 3 3 3 3 3 3 3 3 3 3 3 3 3 3 3 3 3 3 3 3 3 3 3 3 3 3 3 3 3 3 3 3 3 3 3 3 3 3 3 3 3 3 3 3 3 3 3 3 3 3 3 3 3 3 3 3 3 3 3 3 3 3 3 3 3 3 3 3 3 3 3 3 3 3 3 3 3 3 3 3 3 3 3 3 3 3 3 3 3 3 3 3 3 3 3 3 3 3 3 3 3 3 3 3 3 3 3 3 3 3 3 3 3 3 3 3 3 3 3 3 3 3 3 3 3 3 3 3 3 3 3 3 3 3 3 3 3 3 3 3 3 3 3 3 3 3 3 3 3 3 3 3 3 3 3 3 3 3 3 3 3 3 3 3 3 3 3 3 3 3 3 3 3 3 3 3 3 3 3 3 3 3 3 3 3 3 3 3 3 3 3 3 3 3 3 3 3 3 3 3 3 3 3 3 3 3 3 3 3 3 3 3 3 3 3 3 3 3 3 3 3 3 3 3 3 3 3 3 3 3 3 3 3 3 3 3 3 3 3 3 3 3 3 3 3 3 3 3</vcount>
          <p>1 0 0 2 0 1 3 0 2 4 1 3 1 1 4 5 1 5 6 2 6 7 2 7 8 2 8 9 3 9 10 3 10 11 3 11 11 4 12 7 4 13 9 4 14 6 5 15 1 5 16 3 5 17 8 6 18 7 6 19 12 6 20 13 7 21 14 7 22 15 7 23 9 8 24 2 8 25 10 8 26 12 9 27 7 9 28 16 9 29 5 10 30 6 10 31 8 10 32 6 11 33 3 11 34 7 11 35 7 12 36 3 12 37 9 12 38 3 13 39 2 13 40 9 13 41 5 14 42 1 14 43 6 14 44 17 15 45 18 15 46 19 15 47 13 16 48 20 16 49 21 16 50 14 17 51 13 17 52 21 17 53 11 18 54 22 18 55 23 18 56 24 19 57 23 19 58 25 19 59 24 20 60 26 20 61 23 20 62 23 21 63 26 21 64 11 21 65 1 22 66 4 22 67 17 22 68 27 23 69 28 23 70 29 23 71 28 24 72 30 24 73 31 24 74 28 25 75 32 25 76 30 25 77 28 26 78 33 26 79 34 26 80 35 27 81 34 27 82 36 27 83 36 28 84 34 28 85 33 28 86 37 29 87 38 29 88 28 29 89 28 30 90 38 30 91 39 30 92 28 31 93 34 31 94 35 31 95 29 32 96 35 32 97 40 32 98 29 33 99 28 33 100 35 33 101 35 34 102 36 34 103 40 34 104 39 35 105 32 35 106 28 35 107 41 36 108 42 36 109 43 36 110 44 37 111 32 37 112 45 37 113 30 38 114 32 38 115 44 38 116 45 39 117 46 39 118 44 39 119 44 40 120 46 40 121 42 40 122 42 41 123 46 41 124 43 41 125 43 42 126 46 42 127 47 42 128 48 43 129 30 43 130 44 43 131 48 44 132 44 44 133 49 44 134 44 45 135 42 45 136 33 45 137 50 46 138 49 46 139 44 46 140 50 47 141 44 47 142 33 47 143 51 48 144 52 48 145 53 48 146 53 49 147 54 49 148 51 49 149 54 50 150 55 50 151 51 50 152 56 51 153 53 51 154 52 51 155 57 52 156 58 52 157 59 52 158 12 53 159 60 53 160 61 53 161 61 54 162 62 54 163 12 54 164 62 55 165 8 55 166 12 55 167 63 56 168 64 56 169 62 56 170 64 57 171 65 57 172 8 57 173 64 58 174 8 58 175 62 58 176 66 59 177 8 59 178 65 59 179 67 60 180 66 60 181 64 60 182 66 61 183 65 61 184 64 61 185 57 62 186 59 62 187 66 62 188 57 63 189 67 63 190 64 63 191 68 64 192 64 64 193 57 64 194 67 65 195 57 65 196 66 65 197 69 66 198 63 66 199 62 66 200 69 67 201 62 67 202 70 67 203 70 68 204 62 68 205 61 68 206 71 69 207 72 69 208 69 69 209 69 70 210 72 70 211 63 70 212 72 71 213 64 71 214 63 71 215 73 72 216 74 72 217 75 72 218 76 73 219 77 73 220 73 73 221 78 74 222 76 74 223 73 74 224 75 75 225 78 75 226 73 75 227 74 76 228 79 76 229 27 76 230 75 77 231 27 77 232 80 77 233 81 78 234 82 78 235 37 78 236 83 79 237 84 79 238 32 79 239 84 80 240 83 80 241 85 80 242 84 81 243 85 81 244 86 81 245 38 82 246 84 82 247 86 82 248 37 83 249 82 83 250 87 83 251 37 84 252 28 84 253 27 84 254 37 85 255 87 85 256 88 85 257 89 86 258 82 86 259 81 86 260 85 87 261 39 87 262 86 87 263 38 88 264 86 88 265 39 88 266 83 89 267 32 89 268 39 89 269 83 90 270 39 90 271 85 90 272 90 91 273 22 91 274 10 91 275 10 92 276 22 92 277 11 92 278 16 93 279 7 93 280 91 93 281 26 94 282 91 94 283 7 94 284 26 95 285 7 95 286 11 95 287 92 96 288 10 96 289 93 96 290 92 97 291 94 97 292 10 97 293 10 98 294 2 98 295 93 98 296 20 99 297 4 99 298 21 99 299 95 100 300 96 100 301 97 100 302 95 101 303 98 101 304 57 101 305 95 102 306 57 102 307 96 102 308 99 103 309 95 103 310 100 103 311 95 104 312 101 104 313 102 104 314 103 105 315 99 105 316 100 105 317 95 106 318 102 106 319 100 106 320 101 107 321 95 107 322 97 107 323 104 108 324 68 108 325 32 108 326 105 109 327 68 109 328 32 109 329 106 110 330 105 110 331 32 110 332 106 111 333 84 111 334 37 111 335 88 112 336 107 112 337 37 112 338 37 113 339 107 113 340 106 113 341 108 114 342 105 114 343 109 114 344 106 115 345 109 115 346 105 115 347 106 116 348 32 116 349 84 116 350 37 117 351 84 117 352 38 117 353 87 118 354 110 118 355 107 118 356 87 119 357 107 119 358 111 119 359 87 120 360 111 120 361 88 120 362 111 121 363 107 121 364 88 121 365 112 122 366 113 122 367 64 122 368 113 123 369 112 123 370 32 123 371 32 124 372 112 124 373 114 124 374 115 125 375 112 125 376 64 125 377 113 126 378 68 126 379 64 126 380 32 127 381 114 127 382 45 127 383 104 128 384 113 128 385 32 128 386 68 129 387 113 129 388 104 129 389 33 130 390 41 130 391 116 130 392 42 131 393 41 131 394 33 131 395 117 132 396 36 132 397 33 132 398 36 133 399 117 133 400 118 133 401 36 134 402 118 134 403 119 134 404 117 135 405 33 135 406 116 135 407 118 136 408 116 136 409 120 136 410 117 137 411 116 137 412 118 137 413 116 138 414 41 138 415 91 138 416 116 139 417 91 139 418 120 139 419 120 140 420 91 140 421 26 140 422 121 141 423 41 141 424 91 141 425 119 142 426 118 142 427 122 142 428 93 143 429 17 143 430 19 143 431 18 144 432 123 144 433 124 144 434 18 145 435 17 145 436 123 145 437 125 146 438 126 146 439 93 146 440 126 147 441 18 147 442 127 147 443 126 148 444 127 148 445 128 148 446 125 149 447 18 149 448 126 149 449 18 150 450 124 150 451 127 150 452 115 151 453 64 151 454 71 151 455 129 152 456 115 152 457 71 152 458 71 153 459 64 153 460 72 153 461 60 154 462 71 154 463 70 154 464 60 155 465 70 155 466 130 155 467 70 156 468 71 156 469 69 156 470 131 157 471 45 157 472 132 157 473 131 158 474 132 158 475 133 158 476 60 159 477 131 159 478 133 159 479 133 160 480 71 160 481 60 160 482 45 161 483 133 161 484 132 161 485 114 162 486 133 162 487 45 162 488 133 163 489 129 163 490 71 163 491 4 164 492 5 164 493 134 164 494 135 165 495 134 165 496 136 165 497 136 166 498 137 166 499 135 166 500 137 167 501 136 167 502 138 167 503 135 168 504 4 168 505 134 168 506 137 169 507 4 169 508 135 169 509 137 170 510 21 170 511 4 170 512 139 171 513 140 171 514 141 171 515 142 172 516 143 172 517 138 172 518 142 173 519 138 173 520 144 173 521 144 174 522 136 174 523 99 174 524 138 175 525 136 175 526 144 175 527 136 176 528 134 176 529 99 176 530 142 177 531 140 177 532 54 177 533 140 178 534 99 178 535 141 178 536 99 179 537 134 179 538 95 179 539 142 180 540 99 180 541 140 180 542 144 181 543 99 181 544 142 181 545 134 182 546 5 182 547 8 182 548 146 183 549 145 183 550 23 183 551 147 184 552 148 184 553 149 184 554 148 185 555 150 185 556 149 185 557 149 186 558 25 186 559 151 186 560 23 187 561 25 187 562 146 187 563 151 188 564 25 188 565 146 188 566 149 189 567 151 189 568 146 189 569 145 190 570 149 190 571 146 190 572 152 191 573 148 191 574 147 191 575 152 192 576 147 192 577 149 192 578 80 193 579 145 193 580 22 193 581 145 194 582 23 194 583 22 194 584 153 195 585 154 195 586 152 195 587 152 196 588 145 196 589 153 196 590 152 197 591 149 197 592 145 197 593 143 198 594 155 198 595 156 198 596 54 199 597 155 199 598 142 199 599 143 200 600 142 200 601 155 200 602 57 201 603 68 201 604 157 201 605 158 202 606 57 202 607 157 202 608 159 203 609 160 203 610 161 203 611 159 204 612 158 204 613 160 204 614 96 205 615 57 205 616 159 205 617 159 206 618 57 206 619 158 206 620 97 207 621 96 207 622 159 207 623 161 208 624 160 208 625 162 208 626 159 209 627 161 209 628 163 209 629 103 210 630 159 210 631 163 210 632 163 211 633 161 211 634 164 211 635 160 212 636 165 212 637 166 212 638 160 213 639 158 213 640 167 213 641 168 214 642 169 214 643 170 214 644 168 215 645 171 215 646 169 215 647 172 216 648 173 216 649 174 216 650 175 217 651 172 217 652 176 217 653 172 218 654 176 218 655 173 218 656 173 219 657 176 219 658 168 219 659 176 220 660 175 220 661 168 220 662 177 221 663 168 221 664 173 221 665 81 222 666 178 222 667 172 222 668 172 223 669 178 223 670 175 223 671 175 224 672 178 224 673 171 224 674 171 225 675 37 225 676 169 225 677 172 226 678 174 226 679 179 226 680 180 227 681 169 227 682 174 227 683 181 228 684 180 228 685 174 228 686 180 229 687 170 229 688 169 229 689 179 230 690 174 230 691 169 230 692 169 231 693 37 231 694 179 231 695 81 232 696 37 232 697 178 232 698 178 233 699 37 233 700 171 233 701 179 234 702 37 234 703 27 234 704 79 235 705 182 235 706 27 235 707 182 236 708 183 236 709 27 236 710 184 237 711 185 237 712 183 237 713 183 238 714 185 238 715 186 238 716 186 239 717 179 239 718 183 239 719 183 240 720 179 240 721 27 240 722 184 241 723 183 241 724 182 241 725 186 242 726 55 242 727 179 242 728 172 243 729 179 243 730 55 243 731 187 244 732 14 244 733 137 244 734 14 245 735 21 245 736 137 245 737 15 246 738 14 246 739 187 246 740 15 247 741 187 247 742 13 247 743 58 248 744 66 248 745 59 248 746 134 249 747 98 249 748 95 249 749 98 250 750 58 250 751 57 250 752 134 251 753 58 251 754 98 251 755 58 252 756 134 252 757 8 252 758 58 253 759 8 253 760 66 253 761 60 254 762 61 254 763 130 254 764 188 255 765 189 255 766 190 255 767 29 256 768 191 256 769 192 256 770 188 257 771 29 257 772 189 257 773 193 258 774 29 258 775 188 258 776 29 259 777 192 259 778 189 259 779 192 260 780 191 260 781 0 260 782 192 261 783 0 261 784 194 261 785 192 262 786 194 262 787 195 262 788 190 263 789 196 263 790 197 263 791 189 264 792 192 264 793 198 264 794 189 265 795 198 265 796 199 265 797 196 266 798 189 266 799 199 266 800 190 267 801 189 267 802 196 267 803 150 268 804 24 268 805 149 268 806 24 269 807 25 269 808 149 269 809 148 270 810 200 270 811 150 270 812 201 271 813 148 271 814 152 271 815 202 272 816 203 272 817 148 272 818 202 273 819 148 273 820 201 273 821 203 274 822 200 274 823 148 274 824 120 275 825 26 275 826 24 275 827 202 276 828 204 276 829 203 276 830 203 277 831 150 277 832 200 277 833 203 278 834 204 278 835 150 278 836 150 279 837 204 279 838 24 279 839 120 280 840 24 280 841 204 280 842 114 281 843 112 281 844 205 281 845 205 282 846 112 282 847 206 282 848 206 283 849 205 283 850 207 283 851 114 284 852 205 284 853 129 284 854 207 285 855 206 285 856 129 285 857 205 286 858 207 286 859 129 286 860 114 287 861 129 287 862 133 287 863 206 288 864 112 288 865 115 288 866 129 289 867 206 289 868 115 289 869 41 290 870 43 290 871 121 290 872 45 291 873 208 291 874 46 291 875 208 292 876 131 292 877 209 292 878 60 293 879 12 293 880 131 293 881 209 294 882 131 294 883 16 294 884 131 295 885 12 295 886 16 295 887 43 296 888 209 296 889 121 296 890 43 297 891 47 297 892 209 297 893 46 298 894 208 298 895 209 298 896 46 299 897 209 299 898 47 299 899 208 300 900 45 300 901 131 300 902 210 301 903 54 301 904 53 301 905 211 302 906 210 302 907 53 302 908 2 303 909 1 303 910 93 303 911 167 304 912 157 304 913 68 304 914 164 305 915 212 305 916 105 305 917 167 306 918 68 306 919 105 306 920 212 307 921 166 307 922 105 307 923 166 308 924 167 308 925 105 308 926 212 309 927 213 309 928 166 309 929 161 310 930 212 310 931 164 310 932 167 311 933 166 311 934 165 311 935 162 312 936 160 312 937 166 312 938 162 313 939 166 313 940 213 313 941 167 314 942 157 314 943 214 314 944 167 315 945 158 315 946 214 315 947 158 316 948 157 316 949 214 316 950 165 317 951 160 317 952 167 317 953 93 318 954 126 318 955 92 318 956 154 319 957 190 319 958 197 319 959 29 320 960 193 320 961 27 320 962 197 321 963 196 321 964 152 321 965 154 322 966 197 322 967 152 322 968 193 323 969 188 323 970 27 323 971 27 324 972 188 324 973 153 324 974 27 325 975 153 325 976 80 325 977 153 326 978 188 326 979 154 326 980 80 327 981 153 327 982 145 327 983 188 328 984 190 328 985 154 328 986 56 329 987 52 329 988 215 329 989 216 330 990 56 330 991 215 330 992 215 331 993 52 331 994 51 331 995 51 332 996 73 332 997 215 332 998 56 333 999 216 333 1000 77 333 1001 217 334 1002 56 334 1003 76 334 1004 56 335 1005 77 335 1006 76 335 1007 77 336 1008 216 336 1009 215 336 1010 77 337 1011 215 337 1012 73 337 1013 218 338 1014 103 338 1015 108 338 1016 141 339 1017 103 339 1018 218 339 1019 141 340 1020 99 340 1021 103 340 1022 219 341 1023 218 341 1024 110 341 1025 219 342 1026 141 342 1027 218 342 1028 100 343 1029 102 343 1030 220 343 1031 103 344 1032 100 344 1033 220 344 1034 53 345 1035 217 345 1036 90 345 1037 90 346 1038 217 346 1039 75 346 1040 53 347 1041 56 347 1042 217 347 1043 217 348 1044 78 348 1045 75 348 1046 78 349 1047 217 349 1048 76 349 1049 53 350 1050 90 350 1051 10 350 1052 199 351 1053 198 351 1054 196 351 1055 202 352 1056 152 352 1057 201 352 1058 191 353 1059 221 353 1060 222 353 1061 198 354 1062 202 354 1063 152 354 1064 196 355 1065 198 355 1066 152 355 1067 223 356 1068 202 356 1069 222 356 1070 191 357 1071 222 357 1072 194 357 1073 198 358 1074 192 358 1075 195 358 1076 198 359 1077 195 359 1078 202 359 1079 202 360 1080 224 360 1081 120 360 1082 122 361 1083 120 361 1084 224 361 1085 202 362 1086 120 362 1087 204 362 1088 223 363 1089 224 363 1090 202 363 1091 194 364 1092 202 364 1093 195 364 1094 0 365 1095 191 365 1096 194 365 1097 194 366 1098 222 366 1099 202 366 1100 223 367 1101 122 367 1102 224 367 1103 22 368 1104 75 368 1105 80 368 1106 90 369 1107 75 369 1108 22 369 1109 225 370 1110 172 370 1111 55 370 1112 172 371 1113 225 371 1114 81 371 1115 51 372 1116 185 372 1117 184 372 1118 73 373 1119 51 373 1120 184 373 1121 226 374 1122 184 374 1123 182 374 1124 139 375 1125 89 375 1126 225 375 1127 225 376 1128 89 376 1129 81 376 1130 225 377 1131 55 377 1132 54 377 1133 50 378 1134 227 378 1135 228 378 1136 229 379 1137 48 379 1138 230 379 1139 230 380 1140 48 380 1141 50 380 1142 231 381 1143 230 381 1144 50 381 1145 227 382 1146 50 382 1147 31 382 1148 30 383 1149 227 383 1150 31 383 1151 28 384 1152 31 384 1153 33 384 1154 227 385 1155 30 385 1156 48 385 1157 31 386 1158 50 386 1159 33 386 1160 50 387 1161 48 387 1162 232 387 1163 48 388 1164 49 388 1165 232 388 1166 232 389 1167 233 389 1168 50 389 1169 49 390 1170 233 390 1171 232 390 1172 50 391 1173 49 391 1174 233 391 1175 234 392 1176 156 392 1177 235 392 1178 143 393 1179 17 393 1180 13 393 1181 143 394 1182 13 394 1183 187 394 1184 17 395 1185 143 395 1186 234 395 1187 143 396 1188 156 396 1189 234 396 1190 236 397 1191 155 397 1192 211 397 1193 210 398 1194 211 398 1195 155 398 1196 236 399 1197 211 399 1198 53 399 1199 210 400 1200 155 400 1201 54 400 1202 127 401 1203 236 401 1204 53 401 1205 127 402 1206 124 402 1207 236 402 1208 156 403 1209 124 403 1210 235 403 1211 124 404 1212 123 404 1213 235 404 1214 123 405 1215 234 405 1216 235 405 1217 237 406 1218 234 406 1219 123 406 1220 10 407 1221 94 407 1222 53 407 1223 128 408 1224 53 408 1225 94 408 1226 128 409 1227 127 409 1228 53 409 1229 74 410 1230 226 410 1231 79 410 1232 79 411 1233 226 411 1234 182 411 1235 74 412 1236 73 412 1237 226 412 1238 73 413 1239 184 413 1240 226 413 1241 75 414 1242 74 414 1243 27 414 1244 218 415 1245 108 415 1246 109 415 1247 159 416 1248 101 416 1249 97 416 1250 108 417 1251 163 417 1252 164 417 1253 108 418 1254 164 418 1255 105 418 1256 159 419 1257 103 419 1258 220 419 1259 103 420 1260 163 420 1261 108 420 1262 101 421 1263 220 421 1264 102 421 1265 101 422 1266 159 422 1267 220 422 1268 238 423 1269 137 423 1270 138 423 1271 143 424 1272 187 424 1273 238 424 1274 137 425 1275 238 425 1276 187 425 1277 227 426 1278 48 426 1279 239 426 1280 240 427 1281 241 427 1282 242 427 1283 241 428 1284 240 428 1285 227 428 1286 230 429 1287 243 429 1288 240 429 1289 244 430 1290 243 430 1291 240 430 1292 245 431 1293 240 431 1294 242 431 1295 242 432 1296 241 432 1297 243 432 1298 242 433 1299 243 433 1300 229 433 1301 229 434 1302 244 434 1303 245 434 1304 244 435 1305 240 435 1306 245 435 1307 242 436 1308 229 436 1309 231 436 1310 245 437 1311 229 437 1312 231 437 1313 231 438 1314 245 438 1315 228 438 1316 241 439 1317 246 439 1318 243 439 1319 227 440 1320 240 440 1321 230 440 1322 243 441 1323 230 441 1324 246 441 1325 241 442 1326 227 442 1327 246 442 1328 239 443 1329 243 443 1330 244 443 1331 239 444 1332 244 444 1333 230 444 1334 243 445 1335 239 445 1336 48 445 1337 246 446 1338 227 446 1339 239 446 1340 239 447 1341 230 447 1342 246 447 1343 230 448 1344 228 448 1345 227 448 1346 230 449 1347 231 449 1348 228 449 1349 242 450 1350 231 450 1351 50 450 1352 243 451 1353 48 451 1354 229 451 1355 244 452 1356 229 452 1357 230 452 1358 228 453 1359 245 453 1360 50 453 1361 245 454 1362 242 454 1363 50 454 1364 122 455 1365 118 455 1366 120 455 1367 191 456 1368 29 456 1369 221 456 1370 222 457 1371 40 457 1372 119 457 1373 29 458 1374 40 458 1375 221 458 1376 221 459 1377 40 459 1378 222 459 1379 119 460 1380 122 460 1381 222 460 1382 223 461 1383 222 461 1384 122 461 1385 40 462 1386 36 462 1387 119 462 1388 126 463 1389 94 463 1390 92 463 1391 126 464 1392 128 464 1393 94 464 1394 89 465 1395 141 465 1396 219 465 1397 89 466 1398 139 466 1399 141 466 1400 225 467 1401 54 467 1402 139 467 1403 54 468 1404 140 468 1405 139 468 1406 51 469 1407 55 469 1408 186 469 1409 185 470 1410 51 470 1411 186 470 1412 238 471 1413 138 471 1414 143 471 1415 121 472 1416 209 472 1417 16 472 1418 91 473 1419 121 473 1420 16 473 1421 219 474 1422 110 474 1423 89 474 1424 89 475 1425 110 475 1426 87 475 1427 89 476 1428 87 476 1429 82 476 1430 93 477 1431 19 477 1432 125 477 1433 161 478 1434 213 478 1435 212 478 1436 161 479 1437 162 479 1438 213 479 1439 110 480 1440 218 480 1441 109 480 1442 107 481 1443 110 481 1444 106 481 1445 130 482 1446 70 482 1447 61 482 1448 237 483 1449 123 483 1450 17 483 1451 237 484 1452 17 484 1453 234 484 1454 19 485 1455 18 485 1456 125 485 1457 247 486 1458 180 486 1459 181 486 1460 177 487 1461 247 487 1462 173 487 1463 168 488 1464 175 488 1465 171 488 1466 168 489 1467 180 489 1468 247 489 1469 110 490 1470 109 490 1471 106 490 1472 17 491 1473 20 491 1474 13 491 1475 4 492 1476 20 492 1477 17 492 1478 124 493 1479 156 493 1480 155 493 1481 1 494 1482 17 494 1483 93 494 1484 174 495 1485 173 495 1486 181 495 1487 177 496 1488 168 496 1489 247 496 1490 180 497 1491 168 497 1492 170 497 1493 236 498 1494 124 498 1495 155 498 1496 173 499 1497 247 499 1498 181 499 1499</p>
        </polylist>
      </mesh>
    </geometry>
  </library_geometries>
  <library_visual_scenes>
    <visual_scene id="Scene" name="Scene">
      <node id="Closet4" name="Closet4" type="NODE">
        <scale sid="scale">1 1 1</scale>
        <translate sid="location">0.003010512096774195 0.4826313306451611 0.09358696774193548</translate>
        <rotate sid="rotationX">1 0 0 0</rotate>
        <rotate sid="rotationY">0 1 0 0</rotate>
        <rotate sid="rotationZ">0 0 1 0</rotate>
        <instance_geometry url="#Closet4-mesh" name="Closet4">
          <bind_material>
            <technique_common>
            </technique_common>
          </bind_material>
        </instance_geometry>
      </node>
    </visual_scene>
  </library_visual_scenes>
  <scene>
    <instance_visual_scene url="#Scene"/>
  </scene>
</COLLADA>
