<?xml version="1.0" encoding="utf-8"?>
<COLLADA xmlns="http://www.collada.org/2005/11/COLLADASchema" version="1.4.1" xmlns:xsi="http://www.w3.org/2001/XMLSchema-instance">
  <asset>
    <contributor>
      <author>Blockbench user</author>
      <authoring_tool>Blockbench</authoring_tool>
    </contributor>
    <created>2025-10-17T16:17:28.244Z</created>
    <modified>2025-10-17T16:17:28.251Z</modified>
    <unit name="meter" meter="1.0"/>
    <up_axis>Y_UP</up_axis>
  </asset>
  <library_effects>
  </library_effects>
  <library_images>
  </library_images>
  <library_materials>
  </library_materials>
  <library_geometries>
    <geometry id="Coconuts-mesh" name="Coconuts">
      <mesh>
        <source id="Coconuts-mesh-positions">
          <float_array id="Coconuts-mesh-positions-array" count="768">-0.389618 -0.279388 -0.031248 -0.126022 -0.461182 -0.243744 -0.244019 -0.457733 -0.341797 -0.143738 -0.458344 -0.400757 -0.079391 -0.460236 -0.43454 -0.018904 -0.460632 -0.399139 -0.044079 -0.457703 -0.458038 -0.004786 -0.456726 -0.281464 -0.267242 -0.461334 -0.308838 -0.270477 -0.459717 -0.186783 -0.195145 -0.45697 -0.036091 -0.106644 -0.456818 -0.101212 -0.215439 -0.460876 0.007774 -0.004866 -0.460602 -0.012771 -0.27301 -0.457855 -0.047356 -0.203827 -0.456543 0.067703 -0.2052 -0.24295 -0.316132 -0.196747 -0.344666 -0.240448 -0.269501 -0.339294 -0.186142 -0.13678 -0.347198 -0.269958 -0.103218 -0.416046 -0.198532 -0.091484 -0.262634 -0.342987 -0.042263 -0.354034 -0.283844 -0.005134 -0.330902 -0.308929 -0.004968 -0.41571 -0.215057 -0.133621 -0.149185 -0.377045 -0.004801 -0.216919 -0.373657 -0.005787 -0.070717 -0.400543 -0.103294 -0.029509 -0.391022 -0.324799 -0.226852 -0.22377 -0.333801 -0.300079 -0.142349 -0.333954 -0.159454 -0.249542 -0.239929 -0.156738 -0.327606 -0.267487 -0.025303 -0.320557 -0.182602 0.009809 -0.358551 -0.088997 0.12648 -0.345306 -0.199875 0.118843 -0.313324 -0.335327 -0.063751 -0.264679 -0.310944 0.057045 -0.26358 -0.381104 -0.019926 -0.203522 -0.411774 -0.151474 -0.132217 -0.41806 -0.01972 -0.131058 -0.438782 -0.027637 -0.072441 -0.387604 -0.238998 -0.1101 -0.446167 -0.152176 -0.001218 -0.453949 -0.073219 -0.00103 -0.44519 -0.067513 0.139282 -0.398499 -0.278015 0.062775 -0.286041 -0.383728 -0.071503 -0.317596 -0.372711 -0.000934 0.009411 -0.460999 -0.491943 0.174683 -0.458466 -0.381226 0.270996 -0.459473 -0.114975 0.150986 -0.460968 -0.088211 0.250397 -0.460785 -0.000929 0.189575 -0.456146 -0.031258 0.122986 -0.457062 -0.08287 -0.004611 -0.456146 -0.134491 0.197968 -0.416779 -0.121048 0.32605 -0.342346 -0.062267 0.275024 -0.332306 -0.175369 0.376373 -0.237762 -0.115639 0.178101 -0.33783 -0.253632 0.30603 -0.249069 -0.219208 0.111198 -0.413452 -0.19371 0.186493 -0.248337 -0.314972 0.084679 -0.35849 -0.27066 0.124428 -0.359558 -0.265839 0.068031 -0.321899 -0.306122 0.073555 -0.238052 -0.355743 -0.19841 -0.421509 -0.122002 -0.3172 -0.374908 0.071747 0.083946 -0.15683 -0.382721 0.186401 -0.134567 -0.356506 0.094589 -0.064667 -0.390472 -0.004694 0.018229 -0.392395 -0.004351 0.122078 -0.356476 0.094315 0.04628 -0.374084 0.179779 -0.062836 -0.362762 0.228668 0.012011 -0.331909 0.293457 -0.063896 -0.296509 0.305206 0.061127 -0.257751 0.242371 -0.152679 -0.321411 0.358398 -0.004468 -0.217987 0.302826 -0.154053 -0.271667 0.361725 -0.131989 -0.214386 0.424225 -0.080597 -0.103142 0.398132 -0.149597 -0.14212 0.423645 -0.151703 -0.067871 0.433136 -0.153366 -0.000891 0.444214 -0.120148 0.027527 0.407593 -0.238464 0.013687 0.308594 -0.375305 0.043877 0.204407 -0.456085 0.120224 0.192871 -0.456268 0.077904 0.247345 -0.412231 0.108521 0.105812 -0.456573 0.165512 0.368774 -0.303162 -0.001076 0.335083 -0.331635 0.140991 0.258423 -0.346405 0.252777 0.326111 -0.268524 0.258789 0.397308 -0.230103 0.153427 0.361664 -0.154572 0.283386 0.420654 -0.15036 0.163635 0.384033 -0.091156 0.265442 0.438904 -0.031467 0.120346 -0.375885 0.093658 -0.155457 -0.430969 0.045765 -0.046513 -0.353058 0.191559 -0.083229 -0.446716 0.023741 -0.001221 -0.357025 0.206711 -0.000958 -0.255188 0.221237 -0.193665 -0.285431 0.268433 -0.064079 -0.295044 0.276184 -0.001222 -0.361481 0.205322 0.054268 -0.292542 0.271881 0.117401 -0.190323 0.334686 -0.058105 -0.220627 0.299072 -0.107254 -0.122559 0.29361 -0.196838 -0.174896 0.230347 -0.245697 -0.078331 0.234726 -0.27597 -0.005093 0.259521 -0.263733 0.081947 0.175964 -0.316559 -0.427856 0.019489 0.168335 -0.400787 -0.079338 0.259766 -0.414917 0.115364 0.076935 -0.336761 0.188873 0.203186 -0.392242 0.092087 0.201416 -0.366119 0.053486 0.279541 -0.326111 -0.029314 0.356812 -0.39325 -0.147888 0.25528 -0.290314 -0.156052 0.376068 0.146774 0.100555 -0.340851 0.160538 0.236618 -0.243729 0.069077 0.269684 -0.23999 0.229523 0.105019 -0.295959 0.118622 0.298187 -0.185684 0.202515 0.267975 -0.171265 0.27655 0.188858 -0.193573 0.253143 0.264984 -0.121933 0.327789 0.096581 -0.21225 0.354645 0.167892 -0.093941 0.394867 0.052517 -0.124863 -0.157547 0.36911 -0.001451 -0.07489 0.387268 -0.003554 -0.14299 0.385345 0.058605 -0.215042 0.313904 0.159515 -0.105362 0.34903 0.194489 -0.087708 0.384491 0.110168 -0.080971 0.385895 0.060257 -0.081978 0.338745 -0.143463 -0.003771 0.357147 -0.124298 -0.005162 0.389587 -0.030161 -0.050236 0.381744 -0.001368 0.040222 0.382996 -0.001265 -0.004766 0.386932 -0.000789 0.056282 0.391968 -0.000453 0.075302 0.384766 -0.001446 0.433685 0.033062 -0.0009 0.424927 0.042183 -0.042274 0.37027 0.176102 -0.001393 0.39859 0.111778 0.123573 0.395142 0.061783 0.204453 0.318665 0.201477 0.20433 0.321228 0.244461 0.054611 0.323425 0.22435 -0.06144 0.14064 0.347961 -0.075035 0.156799 0.363434 -0.001201 0.256897 0.297546 -0.000919 0.133972 0.384583 0.062176 0.23761 0.314728 0.061939 0.264954 0.270844 0.170471 0.072029 0.384613 0.110054 0.174164 0.310822 0.204819 0.109848 0.32428 0.231781 -0.250977 -0.413422 0.120056 -0.288696 -0.360535 0.198532 -0.216049 -0.401855 0.218735 -0.284149 -0.306 0.280304 -0.370239 -0.272827 0.189728 -0.403687 -0.24321 0.128693 -0.326569 -0.245544 0.289154 -0.235214 -0.255859 0.365112 -0.437958 -0.153625 0.125015 -0.219147 -0.459686 0.128052 -0.110901 -0.458679 0.160309 -0.102379 -0.416901 0.269867 -0.004542 -0.456055 0.205093 0.054771 -0.45816 0.257233 -0.004805 -0.42691 0.264923 -0.101234 -0.337433 0.368195 -0.005043 -0.359436 0.357513 -0.004424 -0.267181 0.428589 -0.169403 -0.31308 0.360809 -0.127289 -0.238739 0.425598 -0.142929 -0.164703 0.449738 -0.082443 -0.155685 0.463806 -0.004907 -0.184204 0.464996 0.082062 -0.154739 0.46283 -0.227005 -0.042133 0.42569 -0.105736 -0.029053 0.469421 -0.176666 0.049492 0.432709 -0.083931 0.118454 0.432343 -0.227692 0.091949 0.390045 -0.156128 0.206436 0.357513 -0.067749 0.225571 0.368317 -0.27301 0.1763 0.302673 -0.216049 0.215714 0.314026 -0.234192 0.257568 0.249771 -0.130966 0.259094 0.316986 -0.139587 0.305054 0.254822 -0.004872 0.301819 0.29187 -0.004498 0.359619 0.198196 -0.004672 -0.060036 0.481964 -0.005739 0.014447 0.472473 0.091675 -0.065529 0.470581 0.19072 -0.152756 0.430328 0.221283 -0.046528 0.42627 0.112038 0.024178 0.45697 0.274597 0.004234 0.384644 -0.004661 0.12149 0.43924 0.194382 0.102676 0.399963 0.078911 0.0905 0.442322 0.124191 0.192932 0.377869 -0.004823 0.233246 0.366791 0.208466 0.230499 0.298523 0.293396 0.104073 0.326538 0.088692 0.255676 0.332336 0.186935 -0.460388 0.156174 0.086594 -0.415253 0.273102 0.187119 -0.416748 0.207367 0.193024 -0.33963 0.317474 0.406403 -0.064857 0.223175 0.353821 0.042801 0.289062 0.313263 -0.107185 0.357147 0.291504 -0.153168 0.366455 0.085274 -0.35083 0.355652 0.141586 -0.33136 0.354431 0.093803 -0.303436 0.3927 0.143204 -0.246613 0.413483 0.265808 -0.246613 0.340637 -0.056679 0.377167 0.039032 -0.005127 0.378174 0.091568 -0.030815 0.412689 0.026789 -0.005396 0.412659 0.075539 -0.004686 0.412811 0.049397 0.033115 0.3974 0.065033 -0.004513 0.41156 0.013556 -0.004676 0.455078 0.033867 -0.020306 0.453125 -0.001799 -0.004412 0.472076 -0.003534 -0.004483 0.435638 0.021982 -0.002614 0.436218 0.000769 0.05735 0.378479 0.077545 -0.004899 0.385437 0.120995 0.039196 0.381348 0.017254</float_array>
          <technique_common>
            <accessor source="#Coconuts-mesh-positions-array" count="256" stride="3">
              <param name="X" type="float"/>
              <param name="Y" type="float"/>
              <param name="Z" type="float"/>
            </accessor>
          </technique_common>
        </source>
        <source id="Coconuts-mesh-normals">
          <float_array id="Coconuts-mesh-normals-array" count="1524">-0.015676 -0.999744 -0.016302 -0.036689 -0.99923 -0.013921 -0.003189 -0.999978 -0.005737 -0.313962 -0.770427 -0.55486 0.030011 -0.997598 -0.062437 -0.008522 0.999957 -0.003636 0.259883 0.963572 -0.063163 0.038669 -0.995918 -0.081565 -0.177754 0.983915 -0.017746 -0.004969 -0.999902 0.013115 -0.04622 0.998919 0.004896 -0.00318 0.999993 -0.001987 -0.011236 -0.999933 -0.002778 0.001471 -0.999997 0.00174 -0.06401 -0.997875 0.012163 -0.009408 0.999864 -0.013524 -0.010641 0.999931 -0.005004 -0.53075 -0.533882 -0.658236 -0.381488 -0.572003 -0.72614 -0.315894 -0.752933 -0.577323 -0.280808 -0.536718 -0.795664 -0.149299 -0.746035 -0.648955 -0.158778 -0.595222 -0.787719 0.21855 -0.856957 -0.466756 -0.160564 -0.59571 -0.786987 -0.109534 -0.737654 -0.666235 -0.273592 -0.368355 -0.888517 -0.047269 -0.493151 -0.868659 -0.151979 -0.335544 -0.929684 -0.069306 -0.180881 -0.98106 -0.131181 -0.08214 -0.98795 -0.570776 -0.498935 -0.652134 -0.674547 -0.510266 -0.533493 -0.600809 -0.355413 -0.716038 -0.595638 -0.336985 -0.729147 -0.389485 -0.273931 -0.879354 -0.419068 -0.039217 -0.907108 -0.634508 -0.091879 -0.767436 -0.402431 -0.017512 -0.915283 -0.383416 -0.010696 -0.923514 -0.234197 0.293127 -0.926946 -0.483937 0.26878 -0.832804 -0.583223 -0.135059 -0.801006 -0.676286 0.143084 -0.722609 -0.734746 0.15432 -0.660555 -0.829343 -0.098877 -0.549921 -0.832214 -0.101439 -0.545096 -0.803101 -0.304852 -0.511951 -0.890223 -0.03848 -0.453897 -0.940202 -0.041884 -0.338033 -0.805715 -0.344291 -0.481962 -0.770217 -0.429528 -0.471457 -0.96337 -0.08779 -0.253398 -0.917655 -0.31472 -0.242611 -0.959966 -0.093986 -0.263879 -0.992995 -0.098027 0.065974 -0.911326 -0.356505 -0.205888 -0.788864 -0.538577 -0.296022 -0.917739 -0.388836 -0.081007 -0.733661 -0.631463 -0.250989 -0.779756 -0.622747 -0.064558 -0.733564 -0.64021 -0.228066 -0.0686 0.997334 -0.024874 -0.001651 0.99979 -0.020408 0.009822 0.999952 0.000229 0.010746 -0.999913 -0.007669 0.010306 -0.9999 -0.009642 0.021383 0.999592 -0.018928 -0.030035 0.999328 0.021015 0.008779 0.999954 -0.003957 0.172679 -0.880015 -0.442444 0.291998 -0.885668 -0.361013 0.575622 -0.767325 -0.282616 0.58278 -0.743103 -0.328886 0.740666 -0.551918 -0.383145 0.450262 -0.735906 -0.505675 0.54701 -0.540459 -0.639284 0.281955 -0.882214 -0.377094 0.086449 -0.923913 -0.372708 0.399973 -0.759896 -0.512425 0.535507 -0.511056 -0.67235 0.126465 -0.786082 -0.605047 0.275474 -0.734828 -0.619791 0.05766 -0.740737 -0.669316 0.38955 -0.545275 -0.742244 -0.123247 -0.236954 0.963672 0.252105 -0.505274 -0.825313 0.070599 -0.677456 -0.732168 0.110203 -0.665394 -0.738313 0.251991 -0.505106 -0.82545 0.093731 -0.49184 -0.865626 0.05814 -0.511273 -0.85745 0.002887 0.999981 -0.005452 -0.008135 0.999959 -0.004087 -0.650804 -0.671565 -0.354196 -0.53958 -0.755872 -0.370825 -0.386681 -0.751442 -0.534615 -0.400456 -0.793654 -0.457983 -0.369142 -0.927827 0.053585 -0.255495 -0.888478 -0.38122 -0.39314 -0.747069 -0.536031 -0.58809 -0.796837 -0.138566 -0.570953 -0.820696 -0.021697 -0.120269 -0.914117 -0.387201 -0.00787 0.999961 -0.003937 -0.072158 -0.891546 -0.447146 0.004984 -0.999988 -0.000103 0.01996 -0.999777 -0.006923 -0.005913 -0.99998 0.00215 -0.002271 -0.999997 0.00016 0.125874 -0.327177 -0.936542 0.021906 -0.180677 -0.983298 0.301233 -0.335064 -0.892744 0.294294 -0.327535 -0.897837 0.105066 -0.095383 -0.98988 0.269012 -0.111521 -0.956659 0.094077 0.089673 -0.991518 -0.058278 0.091779 -0.994073 -0.169188 0.322664 -0.93127 0.140057 0.145023 -0.979465 0.303554 0.139963 -0.942478 0.309919 -0.054175 -0.949218 0.333435 0.164843 -0.92825 0.503539 0.027062 -0.863548 0.503124 -0.028883 -0.863731 0.623743 0.177373 -0.761238 0.431429 -0.309067 -0.847553 0.516848 -0.05783 -0.854122 0.703516 0.149287 -0.694823 0.580524 -0.38732 -0.716222 0.626613 -0.145828 -0.765565 0.57697 -0.379774 -0.723103 0.769832 0.002062 -0.638244 0.714464 -0.11588 -0.690009 0.719602 -0.316867 -0.617874 0.870054 0.008781 -0.492878 0.790746 -0.355638 -0.49824 0.736932 -0.508861 -0.444963 0.883482 -0.072664 -0.462796 0.801996 -0.344499 -0.487978 0.930709 -0.168598 -0.324587 0.894545 -0.315786 -0.316335 0.986792 -0.078373 -0.141773 0.968284 -0.155843 -0.195293 0.901373 -0.373218 -0.219622 0.837071 -0.507305 -0.204827 0.615214 -0.775876 -0.139743 0.036723 0.999317 -0.003998 -0.022444 0.999746 0.001795 0.569582 -0.821735 -0.018116 0.590196 -0.800821 0.101754 0.419845 -0.807466 0.414402 0.737846 -0.669402 -0.086514 0.632616 -0.756143 0.167467 0.785283 -0.615945 0.062781 0.582801 -0.755259 0.299879 0.681593 -0.622123 0.385219 0.84468 -0.435935 -0.310608 0.783063 -0.521431 0.339001 0.843653 -0.528572 0.094135 0.844139 -0.52787 0.093713 0.83001 -0.352298 0.4324 0.858751 -0.304195 0.412326 0.952959 -0.290195 0.087502 0.883301 -0.190345 0.428424 0.947595 -0.304577 0.096419 0.984105 -0.096865 0.148845 0.955847 -0.292223 -0.03103 0.941306 -0.306696 -0.140997 -0.780862 0.273543 -0.561631 -0.867262 0.227288 -0.442942 -0.902679 0.262387 -0.341062 -0.93108 0.205565 -0.301387 -0.876325 0.401124 -0.266747 -0.887605 0.451958 -0.088828 -0.890984 0.436934 -0.123433 -0.703545 0.520781 -0.48354 -0.676804 0.470808 -0.56593 -0.721306 0.674134 -0.158937 -0.640872 0.661013 -0.390313 -0.732597 0.652862 -0.192545 -0.745574 0.665006 -0.043432 -0.712928 0.70007 0.040432 -0.543513 0.80244 -0.246342 -0.594091 0.701267 -0.394056 -0.421993 0.751073 -0.507751 -0.419573 0.746242 -0.516799 -0.566593 0.478154 -0.671074 -0.503291 0.527739 -0.684243 -0.519044 0.283914 -0.806217 -0.239808 0.709864 -0.662258 -0.273544 0.542856 -0.794028 -0.147388 0.752269 -0.642159 -0.267588 0.538266 -0.799166 -0.043217 0.541889 -0.839338 -0.282566 0.328996 -0.901065 -0.080083 0.557251 -0.826473 -0.110473 0.288832 -0.950985 0.03402 0.559147 -0.82837 -0.982557 0.145494 -0.115816 -0.952324 0.070457 -0.296841 -0.995476 0.074377 0.059118 -0.980993 0.157691 0.113072 -0.933867 0.068874 0.350926 -0.964599 0.238159 0.113266 -0.887784 0.435402 -0.149217 -0.864612 0.499174 -0.057208 -0.82074 0.536798 0.195534 -0.767764 0.610381 0.194868 -0.84343 0.479035 0.243212 -0.911072 0.342162 0.229939 -0.769111 0.432272 0.470753 -0.877793 0.242313 0.413236 -0.882865 0.164971 0.439697 -0.817006 0.129591 0.561879 -0.754087 -0.125104 0.64475 -0.75975 -0.117424 0.639525 0.081981 0.325535 -0.941969 0.15712 0.412923 -0.897111 0.142939 0.412673 -0.899594 0.343742 0.225874 -0.911494 0.320413 0.528661 -0.786036 0.199559 0.636251 -0.745225 0.438273 0.320552 -0.83974 0.389157 0.508777 -0.767921 0.245291 0.748188 -0.61648 0.56111 0.293934 -0.773795 0.365799 0.758065 -0.539934 0.511089 0.534934 -0.672781 0.511396 0.640187 -0.573267 0.598521 0.46282 -0.653888 0.545578 0.657172 -0.520066 0.595226 0.463388 -0.656489 0.729683 0.499656 -0.466806 0.765361 0.265133 -0.586453 0.824571 0.277756 -0.492883 0.894604 0.127413 -0.42831 -0.55054 0.814145 -0.18459 -0.555681 0.813266 -0.172677 -0.204984 0.884591 -0.418904 -0.214958 0.954657 -0.205969 -0.557886 0.825253 -0.087865 -0.593448 0.803793 0.041674 -0.545385 0.816657 0.188749 -0.382748 0.860593 0.335981 -0.284818 0.903477 0.320324 -0.009579 0.999594 0.026826 -0.106528 0.797706 -0.593563 -0.350849 0.829449 -0.434648 -0.052265 0.818286 -0.572431 -0.140598 0.935405 -0.324422 -0.347216 0.848012 -0.400396 -0.272824 0.913145 -0.302874 -0.152086 0.936161 -0.316973 -0.013702 0.969988 0.242768 0.152201 0.867032 0.474436 0.037396 -0.218941 -0.975021 -0.368456 0.594887 0.714387 -0.013029 0.222978 -0.974736 -0.000116 0.090342 -0.995911 0.119243 0.939234 -0.321902 0.30764 0.866622 -0.392841 0.978302 0.087506 -0.187795 0.934547 0.153747 -0.32091 0.989451 0.042289 -0.138561 0.997711 0.067237 -0.007162 0.883046 0.381204 -0.273705 0.81371 0.397374 -0.424229 0.909391 0.40281 -0.103698 0.888182 0.419638 -0.187179 0.958267 0.267412 0.101072 0.914184 0.405297 0.001445 0.944004 0.261132 0.201659 0.831767 0.455639 0.317107 0.80815 0.562294 0.175268 0.84109 0.53427 0.084397 0.770533 0.630334 -0.094646 0.810531 0.555341 -0.186108 0.680931 0.60991 -0.405391 0.154196 0.637734 -0.754665 0.071363 0.816766 -0.572539 0.124046 0.827549 -0.547518 0.204208 0.876917 -0.435105 0.370223 0.817394 -0.441364 0.432881 0.810239 -0.395129 0.491337 0.824619 -0.280343 0.245879 0.936488 -0.250067 0.693504 0.595224 -0.405907 0.62374 0.749715 -0.22108 0.534883 0.811596 -0.234974 0.687895 0.717231 -0.111269 0.24734 0.942352 -0.225378 0.548959 0.833732 -0.059458 0.642667 0.766049 -0.012204 0.557216 0.82695 -0.075258 0.6441 0.751708 0.141669 0.548957 0.813795 0.190745 0.724331 0.659294 0.201682 0.001581 0.999998 0.001419 0.476211 0.828619 0.294301 0.289524 0.881069 0.374024 0.325961 0.883433 0.336595 0.167766 0.933204 -0.31778 -0.765273 -0.643525 -0.015283 -0.584798 -0.809897 -0.045584 -0.574667 -0.805306 0.145742 -0.606465 -0.763236 0.222871 -0.532391 -0.798145 0.282 -0.529878 -0.691663 0.490745 -0.723367 -0.648814 0.236181 -0.681802 -0.590539 0.431752 -0.760218 -0.619852 0.194557 -0.832175 -0.514718 0.206278 -0.695037 -0.554653 0.457475 -0.585236 -0.503665 0.635468 -0.609821 -0.411044 0.677615 -0.737509 -0.292427 0.608743 -0.800144 -0.387557 0.457788 -0.885614 -0.332975 0.323753 -0.929623 -0.351024 0.112178 -0.889303 -0.327083 0.319621 -0.94295 -0.327922 0.057556 -0.936802 -0.124399 0.326997 -0.993546 -0.093968 0.063532 -0.934106 -0.133318 0.331169 -0.060062 -0.998162 0.008024 0.002273 -0.999948 0.009963 -0.073993 0.996708 0.033125 -0.023046 0.998668 0.046161 -0.378984 -0.85224 0.360636 -0.358964 -0.903801 0.233 -0.280122 -0.889506 0.360987 -0.129689 -0.923078 0.362087 -0.079051 0.98838 0.129829 -0.015703 0.999646 0.021488 0.001457 -0.999961 0.008722 -0.069883 -0.89693 0.436615 -0.047831 -0.776588 0.62819 -0.360614 -0.723362 0.588816 -0.118672 -0.802606 0.584586 -0.051497 -0.609281 0.791281 -0.329676 -0.748209 0.575758 -0.445762 -0.686036 0.575023 -0.482771 -0.603002 0.635076 -0.278059 -0.536739 0.796615 -0.368379 -0.483397 0.794118 -0.142053 -0.525426 0.838897 -0.412022 -0.359967 0.837055 -0.437148 -0.333044 0.835454 -0.165304 -0.337122 0.926835 -0.107459 -0.367041 0.923977 -0.160034 -0.39739 0.903588 0.156717 -0.396057 0.904753 -0.573576 -0.037679 0.818285 -0.449341 -0.134958 0.883108 -0.334604 -0.04484 0.941291 -0.214073 -0.082535 0.973325 -0.34821 0.120088 0.929693 -0.19411 0.266037 0.944217 -0.538689 0.213878 0.814905 -0.512785 0.218116 0.830347 -0.326021 0.442842 0.835225 -0.329057 0.442704 0.834107 -0.214329 0.524786 0.82381 -0.653623 0.346028 0.673084 -0.62906 0.345776 0.696221 -0.724465 0.451064 0.52124 -0.483914 0.490619 0.724651 -0.458375 0.496068 0.737434 -0.628156 0.61245 0.479921 -0.543886 0.624597 0.560417 -0.625892 0.696363 0.351196 -0.583732 0.738624 0.337181 -0.230338 0.660241 0.714861 -0.364602 0.671059 0.645558 -0.063009 0.798303 0.598951 -0.385179 0.715716 0.582571 -0.390699 0.716968 0.577331 -0.4262 0.805261 0.412199 -0.155194 0.760339 0.630714 -0.390864 0.835139 0.386998 -0.127373 0.834536 0.536028 -0.108016 0.846245 0.52173 -0.144046 -0.070264 0.987073 -0.064826 -0.13499 0.988724 -0.084445 0.124761 0.988587 0.108676 -0.134795 0.984896 0.123525 0.127176 0.984158 -0.14271 0.261076 0.954711 0.056071 -0.092418 0.99414 0.286624 -0.113539 0.951291 0.330689 -0.059162 0.941884 0.3131 0.072605 0.946941 0.119581 0.122346 0.985257 0.418853 0.270826 0.866727 -0.094041 0.296053 0.950531 0.100812 0.294066 0.950454 -0.093767 0.521194 0.848271 0.418729 0.203477 0.885021 0.053548 0.240784 0.9691 0.291453 0.342817 0.893046 0.14602 0.479817 0.865132 0.272339 0.423316 0.864081 -0.045944 0.543351 0.838247 0.097498 0.54148 0.835041 -0.073397 0.735653 0.67337 0.447438 0.525167 0.723878 0.51172 0.498775 0.699547 0.131045 0.629769 0.765649 0.328778 0.669437 0.666152 0.071628 0.735795 0.673405 0.145751 0.802695 0.578306 0.32099 0.749548 0.578916 0.107993 0.845861 0.522356 0.377965 0.766743 0.518891 0.497181 0.740272 0.452558 -0.00112 -0.999996 0.002538 -0.000279 -0.999997 0.002414 0.786816 -0.528253 0.31917 0.244693 0.968021 0.055333 0.013613 0.999598 0.024871 0.15129 -0.888397 0.43343 0.084828 -0.924992 0.370396 0.238504 -0.891563 0.385008 0.358261 -0.916808 0.176389 0.561937 -0.767985 0.307289 0.421501 -0.753233 0.504953 0.004027 0.999801 0.01954 -0.006164 0.999978 -0.002644 0.166651 0.966208 0.196643 -0.008505 -0.999904 0.010922 0.956487 -0.041674 0.288783 0.931861 0.132779 0.337647 0.907269 -0.127787 0.400666 0.875645 0.145925 0.460382 0.851791 0.101485 0.513959 0.772895 0.423546 0.472486 0.575138 0.672611 0.46563 0.623532 0.54342 0.562052 0.749639 0.43326 0.500327 0.68747 0.264237 0.676434 0.557849 0.336501 0.758664 0.78405 0.068046 0.616956 0.746767 0.096763 0.658009 0.796061 -0.112534 0.594662 0.606771 0.014434 0.794746 0.742742 -0.223714 0.6311 0.556591 -0.096342 0.825182 0.531041 -0.120748 0.838699 0.045358 -0.787182 0.615051 0.088784 -0.804872 0.58677 0.27427 -0.755982 0.594363 0.347678 -0.760098 0.548972 0.075367 -0.622497 0.778985 0.232134 -0.624629 0.745622 0.063865 -0.60933 0.79034 0.262754 -0.796866 0.544027 0.153077 -0.454102 0.877701 0.303328 -0.548657 0.779081 0.442442 -0.518371 0.731804 0.147355 -0.390119 0.908897 0.278079 -0.304297 0.911085 0.435338 -0.5231 0.732699 0.472136 -0.38164 0.794631 0.543397 -0.577029 0.609719 0.499285 -0.355595 0.790106 0.589878 -0.557751 0.583916 0.701367 -0.362446 0.613773 0.711799 -0.353138 0.607154 -0.009415 0.999743 0.020614 0.38068 0.923001 0.056138 -0.004512 0.972559 0.232611 0.177953 0.964904 -0.193115 -0.6198 0.188749 -0.761723 -0.690567 0.627046 0.360458 -0.009477 0.99994 0.005557 0.37197 0.928115 0.015499 0.38806 0.921136 -0.030278 -0.631161 0.267641 0.728014 0.999987 0.001517 0.004774 -0.825499 0.452774 0.336967 0.999974 0.000372 0.007228 -0.722253 0.631557 0.281932 -0.999999 0.00148 -0.000669 0.51165 -0.493506 -0.703325 -0.380997 0.46827 -0.797223 -0.427139 -0.390106 -0.815702 0.995718 -0.031638 0.086864 -0.342819 -0.481274 -0.806753 0.682577 0.726421 0.080001 -0.682997 0.303487 0.664387 0.383392 0.391752 0.836386 0.15795 0.677406 0.718452 -0.042247 0.985086 -0.166796 -0.36754 0.929959 -0.009513 0.085051 0.995594 0.039486 0.020255 0.97063 -0.239722 -0.023649 0.970637 -0.239384 -0.059763 0.924564 0.376311 -0.110539 0.942387 0.315733 0.055146 0.947015 0.31642 0.162485 0.903234 0.397199 -0.075579 0.885614 0.458231 0.386398 0.461254 -0.798712 0.289793 0.671259 0.682226 0.568737 0.798827 -0.195992 -0.060333 0.996023 0.065563 0.658107 0.735028 -0.163183</float_array>
          <technique_common>
            <accessor source="#Coconuts-mesh-normals-array" count="508" stride="3">
              <param name="X" type="float"/>
              <param name="Y" type="float"/>
              <param name="Z" type="float"/>
            </accessor>
          </technique_common>
        </source>
        <source id="Coconuts-mesh-map-0">
          <float_array id="Coconuts-mesh-map-0-array" count="3048">0.453613 0.999512 0.453369 0.91333 0.518555 0.942139 0.453613 0.999512 0.518555 0.942139 0.539551 0.968994 0.453613 0.999512 0.539551 0.968994 0.572266 0.992188 0.539551 0.968994 0.518555 0.942139 0.56543 0.979004 0.539551 0.968994 0.56543 0.979004 0.572266 0.992188 0.56543 0.979004 0.518555 0.942139 0.616699 0.968994 0.56543 0.979004 0.616699 0.968994 0.572266 0.992188 0.356445 0.846191 0.353516 0.827393 0.429688 0.869629 0.353516 0.827393 0.356445 0.846191 0.338867 0.895264 0.338867 0.895264 0.356445 0.846191 0.429688 0.869629 0.353516 0.827393 0.338867 0.895264 0.277344 0.946533 0.353516 0.827393 0.277344 0.946533 0.251465 0.902588 0.338867 0.895264 0.429688 0.869629 0.343994 0.994385 0.343994 0.994385 0.429688 0.869629 0.445068 0.999512 0.338867 0.895264 0.343994 0.994385 0.31958 0.962402 0.338867 0.895264 0.31958 0.962402 0.277344 0.946533 0.277344 0.946533 0.31958 0.962402 0.253662 0.98584 0.103516 0.548828 0.105469 0.599609 0.070557 0.610352 0.105469 0.599609 0.103516 0.548828 0.131836 0.593994 0.105469 0.599609 0.131836 0.593994 0.141113 0.63501 0.131836 0.593994 0.103516 0.548828 0.151123 0.549561 0.141113 0.63501 0.131836 0.593994 0.170166 0.59375 0.170166 0.59375 0.131836 0.593994 0.151123 0.549561 0.141113 0.63501 0.170166 0.59375 0.185547 0.580566 0.185547 0.580566 0.170166 0.59375 0.151123 0.549561 0.141113 0.63501 0.185547 0.580566 0.180908 0.632568 0.151123 0.549561 0.103516 0.548828 0.131348 0.503174 0.185547 0.580566 0.151123 0.549561 0.185059 0.526123 0.185059 0.526123 0.151123 0.549561 0.131348 0.503174 0.185059 0.526123 0.131348 0.503174 0.180176 0.466797 0.180176 0.466797 0.131348 0.503174 0.139404 0.454102 0.820557 0.65332 0.772705 0.625732 0.833252 0.607666 0.820557 0.65332 0.833252 0.607666 0.85376 0.631592 0.772705 0.625732 0.820557 0.65332 0.806885 0.675781 0.772705 0.625732 0.806885 0.675781 0.765869 0.658936 0.772705 0.625732 0.765869 0.658936 0.727295 0.641357 0.727295 0.641357 0.765869 0.658936 0.755127 0.706543 0.755127 0.706543 0.765869 0.658936 0.806885 0.675781 0.727295 0.641357 0.755127 0.706543 0.718506 0.701416 0.727295 0.641357 0.718506 0.701416 0.697021 0.674805 0.697021 0.674805 0.718506 0.701416 0.671143 0.728027 0.718506 0.701416 0.755127 0.706543 0.710205 0.743652 0.755127 0.706543 0.806885 0.675781 0.790039 0.706787 0.755127 0.706543 0.790039 0.706787 0.766357 0.744629 0.766357 0.744629 0.790039 0.706787 0.813477 0.731445 0.813477 0.731445 0.790039 0.706787 0.806885 0.675781 0.813477 0.731445 0.806885 0.675781 0.854736 0.694336 0.854736 0.694336 0.806885 0.675781 0.820557 0.65332 0.813477 0.731445 0.854736 0.694336 0.841553 0.740234 0.841553 0.740234 0.854736 0.694336 0.864014 0.744141 0.854736 0.694336 0.820557 0.65332 0.867188 0.6604 0.867188 0.6604 0.820557 0.65332 0.85376 0.631592 0.864014 0.744141 0.854736 0.694336 0.902832 0.703369 0.902832 0.703369 0.854736 0.694336 0.867188 0.6604 0.864014 0.744141 0.902832 0.703369 0.893799 0.734619 0.893799 0.734619 0.902832 0.703369 0.942139 0.750732 0.902832 0.703369 0.867188 0.6604 0.896729 0.647461 0.896729 0.647461 0.867188 0.6604 0.85376 0.631592 0.902832 0.703369 0.896729 0.647461 0.931152 0.657471 0.896729 0.647461 0.85376 0.631592 0.87793 0.595459 0.931152 0.657471 0.896729 0.647461 0.905029 0.604004 0.905029 0.604004 0.896729 0.647461 0.87793 0.595459 0.471191 0.498779 0.46875 0.462891 0.481445 0.423828 0.471191 0.498779 0.481445 0.423828 0.545166 0.50415 0.545166 0.50415 0.481445 0.423828 0.634033 0.412842 0.545166 0.50415 0.634033 0.412842 0.646729 0.460693 0.646729 0.460693 0.634033 0.412842 0.670654 0.434326 0.634033 0.412842 0.481445 0.423828 0.624268 0.349365 0.624268 0.349365 0.481445 0.423828 0.574463 0.358154 0.574463 0.358154 0.481445 0.423828 0.51123 0.365723 0.574463 0.358154 0.51123 0.365723 0.501221 0.329102 0.624268 0.349365 0.574463 0.358154 0.593506 0.321045 0.624268 0.349365 0.593506 0.321045 0.651611 0.302979 0.651611 0.302979 0.593506 0.321045 0.613037 0.278076 0.651611 0.302979 0.613037 0.278076 0.665527 0.255615 0.613037 0.278076 0.593506 0.321045 0.565186 0.27002 0.613037 0.278076 0.565186 0.27002 0.609863 0.23584 0.593506 0.321045 0.574463 0.358154 0.549072 0.31543 0.549072 0.31543 0.574463 0.358154 0.501221 0.329102 0.593506 0.321045 0.549072 0.31543 0.565186 0.27002 0.609863 0.23584 0.565186 0.27002 0.553955 0.231445 0.549072 0.31543 0.501221 0.329102 0.528564 0.280762 0.549072 0.31543 0.528564 0.280762 0.565186 0.27002 0.528564 0.280762 0.501221 0.329102 0.484619 0.277588 0.553955 0.231445 0.565186 0.27002 0.541504 0.273682 0.541504 0.273682 0.565186 0.27002 0.528564 0.280762 0.553955 0.231445 0.541504 0.273682 0.511475 0.262939 0.511475 0.262939 0.541504 0.273682 0.528564 0.280762 0.511475 0.262939 0.528564 0.280762 0.484619 0.277588 0.553955 0.231445 0.511475 0.262939 0.504639 0.226807 0.511475 0.262939 0.484619 0.277588 0.472168 0.227295 0.511475 0.262939 0.472168 0.227295 0.504639 0.226807 0.001465 0.000488 0.048096 0.112305 0.001465 0.111572 0.048096 0.112305 0.001465 0.000488 0.072754 0.042969 0.914062 0.131348 0.876221 0.128174 0.895996 0.068359 0.895996 0.068359 0.876221 0.128174 0.843994 0.072998 0.843994 0.072998 0.876221 0.128174 0.791016 0.102539 0.791016 0.102539 0.876221 0.128174 0.83252 0.149414 0.895996 0.068359 0.843994 0.072998 0.805176 0.04248 0.805176 0.04248 0.843994 0.072998 0.791016 0.102539 0.895996 0.068359 0.805176 0.04248 0.858643 0.022217 0.895996 0.068359 0.858643 0.022217 0.92749 0.045654 0.92749 0.045654 0.858643 0.022217 0.944336 0.014648 0.805176 0.04248 0.791016 0.102539 0.75415 0.050781 0.805176 0.04248 0.75415 0.050781 0.712402 0.00708 0.75415 0.050781 0.791016 0.102539 0.744873 0.100342 0.682617 0.999512 0.759277 0.928223 0.830811 0.953125 0.117432 0.993896 0.243164 0.906982 0.230957 0.989746 0.243164 0.906982 0.117432 0.993896 0.19751 0.889404 0.19751 0.889404 0.117432 0.993896 0.070557 0.942627 0.745605 0.330566 0.756592 0.358887 0.727783 0.36377 0.745605 0.330566 0.727783 0.36377 0.703369 0.317627 0.756592 0.358887 0.745605 0.330566 0.776855 0.309082 0.756592 0.358887 0.776855 0.309082 0.796875 0.346436 0.745605 0.330566 0.703369 0.317627 0.735596 0.299316 0.745605 0.330566 0.735596 0.299316 0.776855 0.309082 0.735596 0.299316 0.703369 0.317627 0.69165 0.28833 0.69165 0.28833 0.703369 0.317627 0.666016 0.317139 0.69165 0.28833 0.666016 0.317139 0.675781 0.253174 0.735596 0.299316 0.69165 0.28833 0.722168 0.262451 0.735596 0.299316 0.722168 0.262451 0.764404 0.286865 0.735596 0.299316 0.764404 0.286865 0.776855 0.309082 0.764404 0.286865 0.722168 0.262451 0.776611 0.254883 0.764404 0.286865 0.776611 0.254883 0.809814 0.271729 0.764404 0.286865 0.809814 0.271729 0.776855 0.309082 0.809814 0.271729 0.776611 0.254883 0.805664 0.22583 0.800781 0.307617 0.796875 0.346436 0.776855 0.309082 0.800781 0.307617 0.776855 0.309082 0.809814 0.271729 0.809814 0.271729 0.805664 0.22583 0.839844 0.242676 0.796875 0.346436 0.800781 0.307617 0.827637 0.301025 0.827637 0.301025 0.800781 0.307617 0.809814 0.271729 0.796875 0.346436 0.827637 0.301025 0.848877 0.33252 0.809814 0.271729 0.839844 0.242676 0.853027 0.2854 0.809814 0.271729 0.853027 0.2854 0.827637 0.301025 0.827637 0.301025 0.853027 0.2854 0.848877 0.33252 0.853027 0.2854 0.839844 0.242676 0.891602 0.256348 0.848877 0.33252 0.853027 0.2854 0.891357 0.320557 0.848877 0.33252 0.891357 0.320557 0.862061 0.364746 0.853027 0.2854 0.891602 0.256348 0.882812 0.288574 0.853027 0.2854 0.882812 0.288574 0.891357 0.320557 0.882812 0.288574 0.891602 0.256348 0.9104 0.287354 0.882812 0.288574 0.9104 0.287354 0.891357 0.320557 0.9104 0.287354 0.891602 0.256348 0.934082 0.285645 0.934082 0.285645 0.891602 0.256348 0.944336 0.273682 0.891357 0.320557 0.9104 0.287354 0.938232 0.318848 0.891357 0.320557 0.938232 0.318848 0.907227 0.362549 0.776611 0.423584 0.719727 0.4021 0.788574 0.368896 0.661865 0.358154 0.719727 0.4021 0.701416 0.439941 0.701416 0.439941 0.719727 0.4021 0.710205 0.434326 0.710205 0.434326 0.719727 0.4021 0.776611 0.423584 0.710205 0.434326 0.776611 0.423584 0.74292 0.450439 0.710205 0.434326 0.74292 0.450439 0.679688 0.45874 0.776611 0.423584 0.788574 0.368896 0.81665 0.39624 0.74292 0.450439 0.776611 0.423584 0.796631 0.463623 0.796631 0.463623 0.776611 0.423584 0.81665 0.39624 0.74292 0.450439 0.796631 0.463623 0.775635 0.520996 0.775635 0.520996 0.796631 0.463623 0.825195 0.516602 0.81665 0.39624 0.788574 0.368896 0.851074 0.396484 0.825195 0.516602 0.796631 0.463623 0.852051 0.46167 0.852051 0.46167 0.796631 0.463623 0.81665 0.39624 0.852051 0.46167 0.81665 0.39624 0.851074 0.396484 0.825195 0.516602 0.852051 0.46167 0.884766 0.523193 0.884766 0.523193 0.852051 0.46167 0.890869 0.465332 0.890869 0.465332 0.852051 0.46167 0.851074 0.396484 0.884766 0.523193 0.890869 0.465332 0.913086 0.519775 0.890869 0.465332 0.851074 0.396484 0.908203 0.396729 0.890869 0.465332 0.908203 0.396729 0.94458 0.44043 0.908203 0.396729 0.851074 0.396484 0.891846 0.383545 0.891846 0.383545 0.851074 0.396484 0.896729 0.365234 0.357666 0.251709 0.323975 0.279785 0.312256 0.236328 0.312256 0.236328 0.323975 0.279785 0.294434 0.277588 0.312256 0.236328 0.294434 0.277588 0.266602 0.25 0.266602 0.25 0.294434 0.277588 0.271729 0.278076 0.312256 0.236328 0.266602 0.25 0.297607 0.193848 0.297607 0.193848 0.266602 0.25 0.249268 0.252441 0.297607 0.193848 0.249268 0.252441 0.271729 0.177734 0.312256 0.236328 0.297607 0.193848 0.351562 0.184082 0.312256 0.236328 0.351562 0.184082 0.357666 0.251709 0.297607 0.193848 0.271729 0.177734 0.307617 0.157227 0.297607 0.193848 0.307617 0.157227 0.351562 0.184082 0.307617 0.157227 0.271729 0.177734 0.286621 0.147461 0.286621 0.147461 0.271729 0.177734 0.25293 0.17041 0.286621 0.147461 0.25293 0.17041 0.247559 0.128906 0.327148 0.119873 0.334717 0.143311 0.307617 0.157227 0.307617 0.157227 0.334717 0.143311 0.351562 0.184082 0.351562 0.184082 0.334717 0.143311 0.386475 0.141602 0.351562 0.184082 0.386475 0.141602 0.385742 0.176514 0.397949 0.223145 0.357666 0.251709 0.351562 0.184082 0.397949 0.223145 0.351562 0.184082 0.385742 0.176514 0.357666 0.251709 0.397949 0.223145 0.385742 0.279785 0.385742 0.176514 0.386475 0.141602 0.420654 0.164795 0.385742 0.176514 0.420654 0.164795 0.397949 0.223145 0.420654 0.164795 0.386475 0.141602 0.440186 0.144043 0.397949 0.223145 0.420654 0.164795 0.4375 0.208496 0.4375 0.208496 0.420654 0.164795 0.440186 0.144043 0.397949 0.223145 0.4375 0.208496 0.42041 0.260254 0.4375 0.208496 0.440186 0.144043 0.466797 0.198242 0.4375 0.208496 0.466797 0.198242 0.457031 0.264404 0.466797 0.198242 0.440186 0.144043 0.484375 0.162354 0.469482 0.337402 0.497314 0.356201 0.484863 0.390869 0.469482 0.337402 0.484863 0.390869 0.459473 0.357666 0.459473 0.357666 0.484863 0.390869 0.435303 0.425537 0.459473 0.357666 0.435303 0.425537 0.4021 0.403076 0.4021 0.403076 0.435303 0.425537 0.393311 0.461426 0.459473 0.357666 0.4021 0.403076 0.407227 0.346436 0.459473 0.357666 0.407227 0.346436 0.405273 0.289307 0.405273 0.289307 0.407227 0.346436 0.387451 0.304932 0.387451 0.304932 0.407227 0.346436 0.336426 0.35083 0.387451 0.304932 0.336426 0.35083 0.3396 0.293701 0.336426 0.35083 0.407227 0.346436 0.368896 0.385986 0.368896 0.385986 0.407227 0.346436 0.4021 0.403076 0.336426 0.35083 0.368896 0.385986 0.348877 0.421875 0.348877 0.421875 0.368896 0.385986 0.4021 0.403076 0.348877 0.421875 0.4021 0.403076 0.393311 0.461426 0.348877 0.421875 0.393311 0.461426 0.337646 0.472168 0.337646 0.472168 0.393311 0.461426 0.40918 0.486572 0.337646 0.472168 0.40918 0.486572 0.354248 0.526855 0.524902 0.697754 0.55249 0.735352 0.505615 0.750732 0.524902 0.697754 0.505615 0.750732 0.46582 0.722168 0.524902 0.697754 0.46582 0.722168 0.490723 0.683594 0.524902 0.697754 0.490723 0.683594 0.512451 0.633789 0.490723 0.683594 0.46582 0.722168 0.416748 0.697021 0.416748 0.697021 0.46582 0.722168 0.414551 0.740723 0.512451 0.633789 0.490723 0.683594 0.469727 0.646729 0.469727 0.646729 0.490723 0.683594 0.416748 0.697021 0.416748 0.697021 0.414551 0.740723 0.383545 0.723389 0.512451 0.633789 0.469727 0.646729 0.469238 0.604004 0.416748 0.697021 0.383545 0.723389 0.380859 0.67749 0.469727 0.646729 0.416748 0.697021 0.407715 0.635742 0.407715 0.635742 0.416748 0.697021 0.380859 0.67749 0.469727 0.646729 0.407715 0.635742 0.469238 0.604004 0.407715 0.635742 0.380859 0.67749 0.362305 0.651611 0.469238 0.604004 0.407715 0.635742 0.442139 0.597412 0.442139 0.597412 0.407715 0.635742 0.380615 0.58374 0.469238 0.604004 0.442139 0.597412 0.474121 0.5625 0.474121 0.5625 0.442139 0.597412 0.425049 0.547119 0.474121 0.5625 0.425049 0.547119 0.459473 0.495605 0.190918 0.392334 0.1875 0.262451 0.233154 0.276123 0.1875 0.262451 0.190918 0.392334 0.162598 0.345215 0.162598 0.345215 0.190918 0.392334 0.161377 0.447754 0.161377 0.447754 0.190918 0.392334 0.227783 0.422363 0.227783 0.422363 0.190918 0.392334 0.233154 0.276123 0.227783 0.422363 0.233154 0.276123 0.316406 0.305908 0.227783 0.422363 0.316406 0.305908 0.324463 0.378174 0.227783 0.422363 0.324463 0.378174 0.326172 0.467529 0.227783 0.422363 0.326172 0.467529 0.256836 0.470459 0.227783 0.422363 0.256836 0.470459 0.219482 0.467773 0.045166 0.949463 0.032227 0.885498 0.068604 0.861328 0.068604 0.861328 0.032227 0.885498 0.003418 0.819824 0.045166 0.949463 0.068604 0.861328 0.113525 0.886963 0.113525 0.886963 0.068604 0.861328 0.159668 0.869629 0.068604 0.861328 0.003418 0.819824 0.02417 0.790039 0.068604 0.861328 0.02417 0.790039 0.070068 0.770752 0.89502 0.998535 0.773682 0.998535 0.880859 0.938232 0.65625 0.923828 0.725098 0.934082 0.676758 0.972168 0.725098 0.934082 0.65625 0.923828 0.744385 0.925293 0.725098 0.934082 0.744385 0.925293 0.703613 0.95752 0.65625 0.923828 0.676758 0.972168 0.672607 0.987793 0.725098 0.934082 0.703613 0.95752 0.672607 0.987793 0.725098 0.934082 0.672607 0.987793 0.676758 0.972168 0.65625 0.923828 0.672607 0.987793 0.586914 0.921875 0.586914 0.921875 0.672607 0.987793 0.661133 0.996094 0.147949 0.782471 0.078369 0.794189 0.135498 0.76709 0.135498 0.76709 0.078369 0.794189 0.107422 0.737305 0.078369 0.794189 0.147949 0.782471 0.114502 0.846436 0.114502 0.846436 0.147949 0.782471 0.173584 0.840576 0.135498 0.76709 0.107422 0.737305 0.150146 0.697998 0.150146 0.697998 0.107422 0.737305 0.086182 0.687012 0.147949 0.782471 0.135498 0.76709 0.189209 0.723389 0.189209 0.723389 0.135498 0.76709 0.150146 0.697998 0.173584 0.840576 0.147949 0.782471 0.217773 0.782959 0.217773 0.782959 0.147949 0.782471 0.189209 0.723389 0.173584 0.840576 0.217773 0.782959 0.233154 0.826416 0.233154 0.826416 0.217773 0.782959 0.280762 0.760498 0.280762 0.760498 0.217773 0.782959 0.23291 0.706787 0.23291 0.706787 0.217773 0.782959 0.189209 0.723389 0.23291 0.706787 0.189209 0.723389 0.181396 0.682373 0.181396 0.682373 0.189209 0.723389 0.150146 0.697998 0.181396 0.682373 0.150146 0.697998 0.127441 0.643311 0.126953 0.043457 0.185791 0.021973 0.150146 0.076416 0.126953 0.043457 0.150146 0.076416 0.070312 0.102539 0.126953 0.043457 0.070312 0.102539 0.086914 0.030762 0.712402 0.807861 0.72998 0.74292 0.767578 0.800781 0.712402 0.807861 0.767578 0.800781 0.724609 0.846924 0.724609 0.846924 0.767578 0.800781 0.750977 0.865234 0.750977 0.865234 0.767578 0.800781 0.80249 0.800537 0.80249 0.800537 0.767578 0.800781 0.796387 0.762939 0.780518 0.900146 0.715332 0.897949 0.750977 0.865234 0.780518 0.900146 0.750977 0.865234 0.806641 0.854492 0.806641 0.854492 0.750977 0.865234 0.80249 0.800537 0.780518 0.900146 0.806641 0.854492 0.834229 0.890381 0.80249 0.800537 0.796387 0.762939 0.82959 0.783691 0.806641 0.854492 0.80249 0.800537 0.834229 0.841064 0.806641 0.854492 0.834229 0.841064 0.834229 0.890381 0.834229 0.841064 0.80249 0.800537 0.82959 0.783691 0.834229 0.890381 0.834229 0.841064 0.885742 0.858154 0.885742 0.858154 0.834229 0.841064 0.82959 0.783691 0.834229 0.890381 0.885742 0.858154 0.904297 0.896484 0.82959 0.783691 0.796387 0.762939 0.845703 0.751953 0.885742 0.858154 0.82959 0.783691 0.903809 0.793213 0.903809 0.793213 0.82959 0.783691 0.845703 0.751953 0.903809 0.793213 0.845703 0.751953 0.908691 0.761475 0.763672 0.53418 0.837646 0.558105 0.767822 0.587646 0.223877 0.549072 0.217041 0.606445 0.196777 0.554199 0.226562 0.48999 0.223877 0.549072 0.19043 0.479248 0.223877 0.549072 0.226562 0.48999 0.249756 0.516113 0.223877 0.549072 0.249756 0.516113 0.283203 0.548096 0.283203 0.548096 0.249756 0.516113 0.300049 0.515137 0.283203 0.548096 0.300049 0.515137 0.322998 0.568604 0.223877 0.549072 0.283203 0.548096 0.276855 0.599854 0.276855 0.599854 0.283203 0.548096 0.322998 0.568604 0.223877 0.549072 0.276855 0.599854 0.217041 0.606445 0.217041 0.606445 0.276855 0.599854 0.247559 0.619873 0.276855 0.599854 0.322998 0.568604 0.325195 0.602051 0.325195 0.602051 0.322998 0.568604 0.371338 0.576416 0.325195 0.602051 0.371338 0.576416 0.373535 0.63208 0.325195 0.602051 0.373535 0.63208 0.307129 0.655029 0.325195 0.602051 0.307129 0.655029 0.276855 0.599854 0.276855 0.599854 0.307129 0.655029 0.247559 0.619873 0.217041 0.606445 0.247559 0.619873 0.24585 0.663574 0.24585 0.663574 0.247559 0.619873 0.307129 0.655029 0.217041 0.606445 0.24585 0.663574 0.192383 0.668213 0.24585 0.663574 0.307129 0.655029 0.309326 0.685791 0.192383 0.668213 0.24585 0.663574 0.248535 0.701904 0.248535 0.701904 0.24585 0.663574 0.309326 0.685791 0.235352 0.03418 0.248291 0.09082 0.194336 0.026367 0.248291 0.09082 0.235352 0.03418 0.323975 0.00415 0.194336 0.026367 0.248291 0.09082 0.21582 0.089355 0.21582 0.089355 0.248291 0.09082 0.233398 0.140381 0.21582 0.089355 0.233398 0.140381 0.19458 0.12085 0.19458 0.12085 0.233398 0.140381 0.19043 0.170898 0.628174 0.575195 0.635254 0.625244 0.587891 0.600098 0.628174 0.575195 0.587891 0.600098 0.583252 0.553955 0.583252 0.553955 0.587891 0.600098 0.569824 0.524902 0.569824 0.524902 0.587891 0.600098 0.587646 0.645508 0.569824 0.524902 0.587646 0.645508 0.492676 0.605225 0.628174 0.575195 0.583252 0.553955 0.609619 0.540283 0.628174 0.575195 0.609619 0.540283 0.675293 0.555908 0.628174 0.575195 0.675293 0.555908 0.635254 0.625244 0.675293 0.555908 0.609619 0.540283 0.652344 0.522949 0.675293 0.555908 0.652344 0.522949 0.699463 0.507568 0.635254 0.625244 0.675293 0.555908 0.689697 0.581299 0.635254 0.625244 0.689697 0.581299 0.687256 0.637695 0.687256 0.637695 0.689697 0.581299 0.717285 0.603027 0.689697 0.581299 0.675293 0.555908 0.722168 0.552979 0.689697 0.581299 0.722168 0.552979 0.717285 0.603027 0.722168 0.552979 0.675293 0.555908 0.699463 0.507568 0.717285 0.603027 0.722168 0.552979 0.75415 0.552979 0.717285 0.603027 0.75415 0.552979 0.760498 0.618896 0.75415 0.552979 0.722168 0.552979 0.75293 0.525879 0.75293 0.525879 0.722168 0.552979 0.699463 0.507568 0.75293 0.525879 0.699463 0.507568 0.734619 0.498291 0.734619 0.498291 0.699463 0.507568 0.735352 0.461182 0.568359 0.210449 0.605957 0.175537 0.616455 0.21875 0.605957 0.175537 0.568359 0.210449 0.556396 0.151123 0.605957 0.175537 0.556396 0.151123 0.603271 0.128174 0.603271 0.128174 0.556396 0.151123 0.555908 0.12793 0.605957 0.175537 0.603271 0.128174 0.637939 0.154297 0.637939 0.154297 0.603271 0.128174 0.6604 0.118408 0.616455 0.21875 0.605957 0.175537 0.656738 0.17627 0.656738 0.17627 0.605957 0.175537 0.637939 0.154297 0.637939 0.154297 0.6604 0.118408 0.702393 0.15332 0.637939 0.154297 0.702393 0.15332 0.656738 0.17627 0.702393 0.15332 0.6604 0.118408 0.709961 0.12085 0.616455 0.21875 0.656738 0.17627 0.695557 0.204102 0.616455 0.21875 0.695557 0.204102 0.653564 0.242676 0.653564 0.242676 0.695557 0.204102 0.711426 0.244629 0.695557 0.204102 0.656738 0.17627 0.709961 0.182617 0.709961 0.182617 0.656738 0.17627 0.702393 0.15332 0.711426 0.244629 0.695557 0.204102 0.733643 0.199219 0.733643 0.199219 0.695557 0.204102 0.709961 0.182617 0.711426 0.244629 0.733643 0.199219 0.758057 0.248047 0.758057 0.248047 0.733643 0.199219 0.771973 0.208984 0.729004 0.15332 0.702393 0.15332 0.709961 0.12085 0.702393 0.15332 0.729004 0.15332 0.709961 0.182617 0.729004 0.15332 0.709961 0.12085 0.755615 0.16748 0.729004 0.15332 0.755615 0.16748 0.709961 0.182617 0.709961 0.182617 0.755615 0.16748 0.733643 0.199219 0.733643 0.199219 0.755615 0.16748 0.771973 0.208984 0.755615 0.16748 0.709961 0.12085 0.765137 0.116943 0.771973 0.208984 0.755615 0.16748 0.785889 0.167236 0.785889 0.167236 0.755615 0.16748 0.765137 0.116943 0.785889 0.167236 0.765137 0.116943 0.802002 0.133545 0.557129 0.040039 0.550537 0.00293 0.594238 0.016113 0.557129 0.040039 0.594238 0.016113 0.601318 0.044678 0.550537 0.00293 0.557129 0.040039 0.531006 0.036133 0.557129 0.040039 0.601318 0.044678 0.553955 0.074219 0.557129 0.040039 0.553955 0.074219 0.531006 0.036133 0.550537 0.00293 0.531006 0.036133 0.496338 0.002686 0.553955 0.074219 0.601318 0.044678 0.585938 0.074707 0.553955 0.074219 0.585938 0.074707 0.581299 0.114502 0.553955 0.074219 0.581299 0.114502 0.539307 0.12085 0.553955 0.074219 0.539307 0.12085 0.52124 0.077148 0.553955 0.074219 0.52124 0.077148 0.531006 0.036133 0.52124 0.077148 0.539307 0.12085 0.516357 0.140137 0.496338 0.002686 0.531006 0.036133 0.491699 0.030273 0.491699 0.030273 0.531006 0.036133 0.52124 0.077148 0.496338 0.002686 0.491699 0.030273 0.451904 0.000488 0.52124 0.077148 0.516357 0.140137 0.483398 0.102295 0.491699 0.030273 0.52124 0.077148 0.498535 0.061279 0.498535 0.061279 0.52124 0.077148 0.483398 0.102295 0.491699 0.030273 0.498535 0.061279 0.454102 0.07251 0.454102 0.07251 0.498535 0.061279 0.483398 0.102295 0.451904 0.000488 0.491699 0.030273 0.445312 0.021973 0.445312 0.021973 0.491699 0.030273 0.454102 0.07251 0.451904 0.000488 0.445312 0.021973 0.410156 0.014893 0.454102 0.07251 0.483398 0.102295 0.425293 0.104492 0.425293 0.104492 0.483398 0.102295 0.465088 0.141846 0.445312 0.021973 0.454102 0.07251 0.427734 0.053467 0.427734 0.053467 0.454102 0.07251 0.425293 0.104492 0.445312 0.021973 0.427734 0.053467 0.410156 0.014893 0.410156 0.014893 0.427734 0.053467 0.383057 0.052734 0.383057 0.052734 0.427734 0.053467 0.425293 0.104492 0.410156 0.014893 0.383057 0.052734 0.371582 0.010254 0.383057 0.052734 0.425293 0.104492 0.375244 0.07666 0.375244 0.07666 0.425293 0.104492 0.36499 0.112305 0.803467 0.19873 0.85376 0.152832 0.900391 0.247803 0.900391 0.247803 0.85376 0.152832 0.908936 0.171387 0.900391 0.247803 0.908936 0.171387 0.905029 0.227783 0.905029 0.227783 0.908936 0.171387 0.94043 0.124023 0.364014 0.724121 0.380615 0.759277 0.361328 0.788818 0.364014 0.724121 0.361328 0.788818 0.349121 0.710693 0.349121 0.710693 0.361328 0.788818 0.324463 0.756104 0.324463 0.756104 0.361328 0.788818 0.305664 0.806152 0.305664 0.806152 0.361328 0.788818 0.309326 0.844238 0.305664 0.806152 0.309326 0.844238 0.260254 0.837891 0.305664 0.806152 0.260254 0.837891 0.248291 0.826416 0.361328 0.788818 0.380615 0.759277 0.399902 0.830322 0.361328 0.788818 0.399902 0.830322 0.387939 0.83252 0.399902 0.830322 0.380615 0.759277 0.405029 0.81958 0.405029 0.81958 0.380615 0.759277 0.506348 0.816162 0.514648 0.80835 0.563477 0.822998 0.536377 0.861816 0.563477 0.822998 0.514648 0.80835 0.556641 0.765137 0.536377 0.861816 0.563477 0.822998 0.585205 0.834961 0.563477 0.822998 0.556641 0.765137 0.599365 0.772461 0.563477 0.822998 0.599365 0.772461 0.585205 0.834961 0.599365 0.772461 0.556641 0.765137 0.571045 0.69458 0.570068 0.6521 0.633301 0.670166 0.571045 0.69458 0.571045 0.69458 0.633301 0.670166 0.626709 0.73999 0.571045 0.69458 0.626709 0.73999 0.599365 0.772461 0.599365 0.772461 0.626709 0.73999 0.656494 0.78833 0.656494 0.78833 0.626709 0.73999 0.684082 0.737549 0.585205 0.834961 0.599365 0.772461 0.637695 0.839844 0.637695 0.839844 0.599365 0.772461 0.656494 0.78833 0.585205 0.834961 0.637695 0.839844 0.598877 0.863037 0.637695 0.839844 0.656494 0.78833 0.688232 0.809814 0.598877 0.863037 0.637695 0.839844 0.647949 0.86084 0.647949 0.86084 0.637695 0.839844 0.688232 0.809814 0.647949 0.86084 0.688232 0.809814 0.701904 0.858643 0.056885 0.4729 0.083496 0.444092 0.079346 0.499023 0.079346 0.499023 0.083496 0.444092 0.108398 0.467041 0.083496 0.444092 0.056885 0.4729 0.071289 0.42334 0.071289 0.42334 0.056885 0.4729 0.019043 0.456055 0.108398 0.467041 0.083496 0.444092 0.097412 0.425293 0.097412 0.425293 0.083496 0.444092 0.071289 0.42334 0.108398 0.467041 0.097412 0.425293 0.138428 0.436035 0.071289 0.42334 0.019043 0.456055 0.048584 0.413574 0.138428 0.436035 0.097412 0.425293 0.099854 0.397461 0.099854 0.397461 0.097412 0.425293 0.071289 0.42334 0.099854 0.397461 0.071289 0.42334 0.048584 0.413574 0.138428 0.436035 0.099854 0.397461 0.145264 0.380127 0.145264 0.380127 0.099854 0.397461 0.111328 0.357178 0.099854 0.397461 0.048584 0.413574 0.055176 0.365234 0.099854 0.397461 0.055176 0.365234 0.111328 0.357178 0.055176 0.365234 0.048584 0.413574 0.020752 0.39209 0.111328 0.357178 0.055176 0.365234 0.068848 0.331543 0.055176 0.365234 0.020752 0.39209 0.021729 0.350586 0.055176 0.365234 0.021729 0.350586 0.068848 0.331543 0.068848 0.331543 0.021729 0.350586 0.038818 0.307129 0.004639 0.587158 0.026855 0.531494 0.070068 0.542969 0.070068 0.542969 0.026855 0.531494 0.049805 0.512939 0.070068 0.542969 0.049805 0.512939 0.114258 0.508057 0.049805 0.512939 0.026855 0.531494 0.003418 0.462402 0.012939 0.632568 0.000488 0.598389 0.035889 0.5979 0.012939 0.632568 0.035889 0.5979 0.079834 0.633545 0.012939 0.632568 0.079834 0.633545 0.070068 0.650391 0.070068 0.650391 0.079834 0.633545 0.107422 0.647461 0.070068 0.650391 0.107422 0.647461 0.060791 0.695557 0.012939 0.632568 0.070068 0.650391 0.033936 0.664062 0.033936 0.664062 0.070068 0.650391 0.060791 0.695557 0.012939 0.632568 0.033936 0.664062 0.001465 0.69043 0.033936 0.664062 0.060791 0.695557 0.023193 0.689209 0.033936 0.664062 0.023193 0.689209 0.001465 0.69043 0.023193 0.689209 0.060791 0.695557 0.038574 0.713623 0.023193 0.689209 0.038574 0.713623 0.001465 0.69043 0.054932 0.757812 0.034668 0.773438 0.04126 0.731934 0.054932 0.757812 0.04126 0.731934 0.074707 0.74707 0.054932 0.757812 0.074707 0.74707 0.081543 0.759277 0.074707 0.74707 0.04126 0.731934 0.093018 0.733398 0.074707 0.74707 0.093018 0.733398 0.081543 0.759277 0.05249 0.205566 0.030029 0.179199 0.075928 0.186035 0.05249 0.205566 0.075928 0.186035 0.06543 0.224609 0.06543 0.224609 0.075928 0.186035 0.084717 0.244385 0.084717 0.244385 0.075928 0.186035 0.11377 0.245117 0.084717 0.244385 0.11377 0.245117 0.052002 0.302246 0.049316 0.122314 0.07959 0.115967 0.075928 0.186035 0.075928 0.186035 0.07959 0.115967 0.103516 0.181152 0.075928 0.186035 0.103516 0.181152 0.11377 0.245117 0.103516 0.181152 0.07959 0.115967 0.161621 0.084473 0.103516 0.181152 0.161621 0.084473 0.175537 0.172363 0.103516 0.181152 0.175537 0.172363 0.11377 0.245117 0.11377 0.245117 0.175537 0.172363 0.23999 0.253418 0.059326 0.258057 0.027832 0.295654 0.037109 0.256348 0.037109 0.256348 0.027832 0.295654 0.005127 0.286377 0.059326 0.258057 0.037109 0.256348 0.069092 0.246582 0.037109 0.256348 0.005127 0.286377 0.000977 0.233398 0.069092 0.246582 0.037109 0.256348 0.015625 0.209717 0.015625 0.209717 0.037109 0.256348 0.000977 0.233398</float_array>
          <technique_common>
            <accessor source="#Coconuts-mesh-map-0-array" count="1524" stride="2">
              <param name="S" type="float"/>
              <param name="T" type="float"/>
            </accessor>
          </technique_common>
        </source>
        <vertices id="Coconuts-mesh-vertices">
          <input semantic="POSITION" source="#Coconuts-mesh-positions"/>
        </vertices>
        <polylist material="Material_-1-material" count="6">
          <input semantic="VERTEX" source="#Coconuts-mesh-vertices" offset="0"/>
          <input semantic="NORMAL" source="#Coconuts-mesh-normals" offset="1"/>
          <input semantic="TEXCOORD" source="#Coconuts-mesh-map-0" offset="2" set="0"/>
          <vcount>3 3 3 3 3 3 3 3 3 3 3 3 3 3 3 3 3 3 3 3 3 3 3 3 3 3 3 3 3 3 3 3 3 3 3 3 3 3 3 3 3 3 3 3 3 3 3 3 3 3 3 3 3 3 3 3 3 3 3 3 3 3 3 3 3 3 3 3 3 3 3 3 3 3 3 3 3 3 3 3 3 3 3 3 3 3 3 3 3 3 3 3 3 3 3 3 3 3 3 3 3 3 3 3 3 3 3 3 3 3 3 3 3 3 3 3 3 3 3 3 3 3 3 3 3 3 3 3 3 3 3 3 3 3 3 3 3 3 3 3 3 3 3 3 3 3 3 3 3 3 3 3 3 3 3 3 3 3 3 3 3 3 3 3 3 3 3 3 3 3 3 3 3 3 3 3 3 3 3 3 3 3 3 3 3 3 3 3 3 3 3 3 3 3 3 3 3 3 3 3 3 3 3 3 3 3 3 3 3 3 3 3 3 3 3 3 3 3 3 3 3 3 3 3 3 3 3 3 3 3 3 3 3 3 3 3 3 3 3 3 3 3 3 3 3 3 3 3 3 3 3 3 3 3 3 3 3 3 3 3 3 3 3 3 3 3 3 3 3 3 3 3 3 3 3 3 3 3 3 3 3 3 3 3 3 3 3 3 3 3 3 3 3 3 3 3 3 3 3 3 3 3 3 3 3 3 3 3 3 3 3 3 3 3 3 3 3 3 3 3 3 3 3 3 3 3 3 3 3 3 3 3 3 3 3 3 3 3 3 3 3 3 3 3 3 3 3 3 3 3 3 3 3 3 3 3 3 3 3 3 3 3 3 3 3 3 3 3 3 3 3 3 3 3 3 3 3 3 3 3 3 3 3 3 3 3 3 3 3 3 3 3 3 3 3 3 3 3 3 3 3 3 3 3 3 3 3 3 3 3 3 3 3 3 3 3 3 3 3 3 3 3 3 3 3 3 3 3 3 3 3 3 3 3 3 3 3 3 3 3 3 3 3 3 3 3 3 3 3 3 3 3 3 3 3 3 3 3 3 3 3 3 3 3 3 3 3 3 3 3 3 3 3 3 3 3 3 3 3 3 3 3 3 3 3 3 3 3 3 3 3 3 3 3 3 3 3 3 3 3 3 3 3 3 3 3 3 3</vcount>
          <p>1 0 0 2 0 1 3 0 2 1 1 3 3 1 4 4 1 5 1 2 6 4 2 7 5 2 8 4 3 9 3 3 10 6 3 11 4 4 12 6 4 13 5 4 14 6 5 15 3 5 16 7 5 17 6 6 18 7 6 19 5 6 20 8 7 21 2 7 22 1 7 23 2 8 24 8 8 25 9 8 26 9 9 27 8 9 28 1 9 29 2 10 30 9 10 31 10 10 32 2 11 33 10 11 34 11 11 35 9 12 36 1 12 37 12 12 38 12 13 39 1 13 40 13 13 41 9 14 42 12 14 43 14 14 44 9 15 45 14 15 46 10 15 47 10 16 48 14 16 49 15 16 50 16 17 51 17 17 52 18 17 53 17 18 54 16 18 55 19 18 56 17 19 57 19 19 58 20 19 59 19 20 60 16 20 61 21 20 62 20 21 63 19 21 64 22 21 65 22 22 66 19 22 67 21 22 68 20 23 69 22 23 70 23 23 71 23 24 72 22 24 73 21 24 74 20 25 75 23 25 76 24 25 77 21 26 78 16 26 79 25 26 80 23 27 81 21 27 82 26 27 83 26 28 84 21 28 85 25 28 86 26 29 87 25 29 88 27 29 89 27 30 90 25 30 91 28 30 92 29 31 93 16 31 94 18 31 95 29 32 96 18 32 97 30 32 98 16 33 99 29 33 100 31 33 101 16 34 102 31 34 103 32 34 104 16 35 105 32 35 106 25 35 107 25 36 108 32 36 109 33 36 110 33 37 111 32 37 112 31 37 113 25 38 114 33 38 115 34 38 116 25 39 117 34 39 118 28 39 119 28 40 120 34 40 121 35 40 122 34 41 123 33 41 124 36 41 125 33 42 126 31 42 127 37 42 128 33 43 129 37 43 130 38 43 131 38 44 132 37 44 133 39 44 134 39 45 135 37 45 136 31 45 137 39 46 138 31 46 139 40 46 140 40 47 141 31 47 142 29 47 143 39 48 144 40 48 145 41 48 146 41 49 147 40 49 148 42 49 149 40 50 150 29 50 151 43 50 152 43 51 153 29 51 154 30 51 155 42 52 156 40 52 157 44 52 158 44 53 159 40 53 160 43 53 161 42 54 162 44 54 163 45 54 164 45 55 165 44 55 166 46 55 167 44 56 168 43 56 169 0 56 170 0 57 171 43 57 172 30 57 173 44 58 174 0 58 175 47 58 176 0 59 177 30 59 178 48 59 179 47 60 180 0 60 181 49 60 182 49 61 183 0 61 184 48 61 185 50 62 186 5 62 187 7 62 188 50 63 189 7 63 190 51 63 191 51 64 192 7 64 193 52 64 194 51 65 195 52 65 196 53 65 197 53 66 198 52 66 199 54 66 200 52 67 201 7 67 202 55 67 203 55 68 204 7 68 205 56 68 206 56 69 207 7 69 208 57 69 209 56 70 210 57 70 211 24 70 212 55 71 213 56 71 214 58 71 215 55 72 216 58 72 217 59 72 218 59 73 219 58 73 220 60 73 221 59 74 222 60 74 223 61 74 224 60 75 225 58 75 226 62 75 227 60 76 228 62 76 229 63 76 230 58 77 231 56 77 232 64 77 233 64 78 234 56 78 235 24 78 236 58 79 237 64 79 238 62 79 239 63 80 240 62 80 241 65 80 242 64 81 243 24 81 244 66 81 245 64 82 246 66 82 247 62 82 248 66 83 249 24 83 250 23 83 251 65 84 252 62 84 253 67 84 254 67 85 255 62 85 256 66 85 257 65 86 258 67 86 259 68 86 260 68 87 261 67 87 262 66 87 263 68 88 264 66 88 265 23 88 266 65 89 267 68 89 268 69 89 269 68 90 270 23 90 271 26 90 272 68 91 273 26 91 274 69 91 275 11 92 276 3 92 277 2 92 278 3 93 279 11 93 280 7 93 281 30 94 282 18 94 283 48 94 284 48 95 285 18 95 286 70 95 287 70 96 288 18 96 289 20 96 290 20 97 291 18 97 292 17 97 293 48 98 294 70 98 295 11 98 296 11 99 297 70 99 298 20 99 299 48 100 300 11 100 301 10 100 302 48 101 303 10 101 304 49 101 305 49 102 306 10 102 307 71 102 308 11 103 309 20 103 310 57 103 311 11 104 312 57 104 313 7 104 314 57 105 315 20 105 316 24 105 317 13 106 318 1 106 319 5 106 320 53 107 321 50 107 322 51 107 323 50 108 324 53 108 325 5 108 326 5 109 327 53 109 328 13 109 329 72 110 330 69 110 331 26 110 332 72 111 333 26 111 334 27 111 335 69 112 336 72 112 337 73 112 338 69 113 339 73 113 340 65 113 341 72 114 342 27 114 343 74 114 344 72 115 345 74 115 346 73 115 347 74 116 348 27 116 349 75 116 350 75 117 351 27 117 352 28 117 353 75 118 354 28 118 355 76 118 356 74 119 357 75 119 358 77 119 359 74 120 360 77 120 361 78 120 362 74 121 363 78 121 364 73 121 365 78 122 366 77 122 367 79 122 368 78 123 369 79 123 370 80 123 371 78 124 372 80 124 373 73 124 374 80 125 375 79 125 376 81 125 377 82 126 378 65 126 379 73 126 380 82 127 381 73 127 382 80 127 383 80 128 384 81 128 385 83 128 386 65 129 387 82 129 388 84 129 389 84 130 390 82 130 391 80 130 392 65 131 393 84 131 394 63 131 395 80 132 396 83 132 397 85 132 398 80 133 399 85 133 400 84 133 401 84 134 402 85 134 403 63 134 404 85 135 405 83 135 406 86 135 407 63 136 408 85 136 409 61 136 410 63 137 411 61 137 412 60 137 413 85 138 414 86 138 415 87 138 416 85 139 417 87 139 418 61 139 419 87 140 420 86 140 421 88 140 422 87 141 423 88 141 424 61 141 425 88 142 426 86 142 427 89 142 428 89 143 429 86 143 430 90 143 431 61 144 432 88 144 433 91 144 434 61 145 435 91 145 436 59 145 437 92 146 438 55 146 439 59 146 440 52 147 441 55 147 442 93 147 443 93 148 444 55 148 445 94 148 446 94 149 447 55 149 448 92 149 449 94 150 450 92 150 451 95 150 452 94 151 453 95 151 454 96 151 455 92 152 456 59 152 457 97 152 458 95 153 459 92 153 460 98 153 461 98 154 462 92 154 463 97 154 464 95 155 465 98 155 466 99 155 467 99 156 468 98 156 469 100 156 470 97 157 471 59 157 472 91 157 473 100 158 474 98 158 475 101 158 476 101 159 477 98 159 478 97 159 479 101 160 480 97 160 481 91 160 482 100 161 483 101 161 484 102 161 485 102 162 486 101 162 487 103 162 488 103 163 489 101 163 490 91 163 491 102 164 492 103 164 493 104 164 494 103 165 495 91 165 496 90 165 497 103 166 498 90 166 499 105 166 500 90 167 501 91 167 502 89 167 503 89 168 504 91 168 505 88 168 506 38 169 507 39 169 508 106 169 509 106 170 510 39 170 511 41 170 512 106 171 513 41 171 514 107 171 515 107 172 516 41 172 517 42 172 518 106 173 519 107 173 520 108 173 521 108 174 522 107 174 523 109 174 524 108 175 525 109 175 526 110 175 527 106 176 528 108 176 529 111 176 530 106 177 531 111 177 532 38 177 533 108 178 534 110 178 535 112 178 536 108 179 537 112 179 538 111 179 539 112 180 540 110 180 541 113 180 542 113 181 543 110 181 544 114 181 545 113 182 546 114 182 547 115 182 548 116 183 549 117 183 550 112 183 551 112 184 552 117 184 553 111 184 554 111 185 555 117 185 556 118 185 557 111 186 558 118 186 559 119 186 560 36 187 561 38 187 562 111 187 563 36 188 564 111 188 565 119 188 566 38 189 567 36 189 568 33 189 569 119 190 570 118 190 571 120 190 572 119 191 573 120 191 574 36 191 575 120 192 576 118 192 577 121 192 578 36 193 579 120 193 580 35 193 581 35 194 582 120 194 583 121 194 584 36 195 585 35 195 586 34 195 587 35 196 588 121 196 589 76 196 590 35 197 591 76 197 592 28 197 593 76 198 594 121 198 595 122 198 596 107 199 597 42 199 598 45 199 599 107 200 600 45 200 601 109 200 602 109 201 603 45 201 604 46 201 605 109 202 606 46 202 607 123 202 608 123 203 609 46 203 610 124 203 611 109 204 612 123 204 613 125 204 614 109 205 615 125 205 616 110 205 617 110 206 618 125 206 619 114 206 620 114 207 621 125 207 622 126 207 623 114 208 624 126 208 625 115 208 626 126 209 627 125 209 628 127 209 629 127 210 630 125 210 631 123 210 632 126 211 633 127 211 634 128 211 635 128 212 636 127 212 637 123 212 638 128 213 639 123 213 640 124 213 641 128 214 642 124 214 643 129 214 644 129 215 645 124 215 646 130 215 647 129 216 648 130 216 649 131 216 650 77 217 651 75 217 652 76 217 653 77 218 654 76 218 655 122 218 656 77 219 657 122 219 658 132 219 659 77 220 660 132 220 661 79 220 662 132 221 663 122 221 664 133 221 665 133 222 666 122 222 667 134 222 668 79 223 669 132 223 670 135 223 671 135 224 672 132 224 673 133 224 674 133 225 675 134 225 676 136 225 677 79 226 678 135 226 679 81 226 680 133 227 681 136 227 682 137 227 683 135 228 684 133 228 685 138 228 686 138 229 687 133 229 688 137 229 689 135 230 690 138 230 691 81 230 692 138 231 693 137 231 694 139 231 695 81 232 696 138 232 697 140 232 698 140 233 699 138 233 700 141 233 701 81 234 702 140 234 703 83 234 704 83 235 705 140 235 706 142 235 707 83 236 708 142 236 709 86 236 710 143 237 711 112 237 712 113 237 713 112 238 714 143 238 715 116 238 716 116 239 717 143 239 718 144 239 719 144 240 720 143 240 721 145 240 722 145 241 723 143 241 724 113 241 725 145 242 726 113 242 727 115 242 728 145 243 729 115 243 730 146 243 731 145 244 732 146 244 733 147 244 734 145 245 735 147 245 736 148 245 737 145 246 738 148 246 739 149 246 740 121 247 741 118 247 742 150 247 743 150 248 744 118 248 745 117 248 746 121 249 747 150 249 748 151 249 749 151 250 750 150 250 751 152 250 752 150 251 753 117 251 754 116 251 755 150 252 756 116 252 757 144 252 758 152 253 759 150 253 760 144 253 761 152 254 762 153 254 763 154 254 764 153 255 765 152 255 766 144 255 767 153 256 768 144 256 769 155 256 770 152 257 771 154 257 772 156 257 773 153 258 774 155 258 775 156 258 776 153 259 777 156 259 778 154 259 779 152 260 780 156 260 781 151 260 782 151 261 783 156 261 784 157 261 785 158 262 786 86 262 787 159 262 788 159 263 789 86 263 790 142 263 791 86 264 792 158 264 793 90 264 794 90 265 795 158 265 796 105 265 797 159 266 798 142 266 799 141 266 800 141 267 801 142 267 802 140 267 803 158 268 804 159 268 805 160 268 806 160 269 807 159 269 808 141 269 809 105 270 810 158 270 811 161 270 812 161 271 813 158 271 814 160 271 815 105 272 816 161 272 817 162 272 818 162 273 819 161 273 820 163 273 821 163 274 822 161 274 823 164 274 824 164 275 825 161 275 826 160 275 827 164 276 828 160 276 829 165 276 830 165 277 831 160 277 832 141 277 833 165 278 834 141 278 835 138 278 836 134 279 837 122 279 838 121 279 839 134 280 840 121 280 841 151 280 842 134 281 843 151 281 844 136 281 845 136 282 846 151 282 847 166 282 848 136 283 849 166 283 850 137 283 851 137 284 852 166 284 853 139 284 854 139 285 855 166 285 856 167 285 857 167 286 858 166 286 859 157 286 860 165 287 861 138 287 862 139 287 863 165 288 864 139 288 865 168 288 866 168 289 867 139 289 868 167 289 869 165 290 870 168 290 871 164 290 872 167 291 873 157 291 874 169 291 875 168 292 876 167 292 877 170 292 878 168 293 879 170 293 880 164 293 881 170 294 882 167 294 883 169 294 884 164 295 885 170 295 886 171 295 887 171 296 888 170 296 889 169 296 890 164 297 891 171 297 892 163 297 893 169 298 894 157 298 895 172 298 896 171 299 897 169 299 898 173 299 899 173 300 900 169 300 901 172 300 902 173 301 903 172 301 904 174 301 905 166 302 906 151 302 907 157 302 908 71 303 909 47 303 910 49 303 911 15 304 912 71 304 913 10 304 914 71 305 915 15 305 916 175 305 917 71 306 918 175 306 919 176 306 920 176 307 921 175 307 922 177 307 923 176 308 924 177 308 925 178 308 926 71 309 927 176 309 928 179 309 929 179 310 930 176 310 931 178 310 932 71 311 933 179 311 934 47 311 935 47 312 936 179 312 937 180 312 938 179 313 939 178 313 940 181 313 941 181 314 942 178 314 943 182 314 944 181 315 945 182 315 946 131 315 947 181 316 948 131 316 949 130 316 950 181 317 951 130 317 952 179 317 953 179 318 954 130 318 955 180 318 956 47 319 957 180 319 958 183 319 959 183 320 960 180 320 961 130 320 962 47 321 963 183 321 964 44 321 965 183 322 966 130 322 967 124 322 968 44 323 969 183 323 970 46 323 971 46 324 972 183 324 973 124 324 974 12 325 975 184 325 976 14 325 977 184 326 978 12 326 979 13 326 980 14 327 981 184 327 982 15 327 983 15 328 984 184 328 985 185 328 986 15 329 987 185 329 988 175 329 989 175 330 990 185 330 991 177 330 992 186 331 993 177 331 994 185 331 995 186 332 996 185 332 997 187 332 998 187 333 999 185 333 1000 188 333 1001 188 334 1002 185 334 1003 184 334 1004 188 335 1005 184 335 1006 13 335 1007 186 336 1008 187 336 1009 189 336 1010 186 337 1011 189 337 1012 190 337 1013 186 338 1014 190 338 1015 177 338 1016 190 339 1017 189 339 1018 191 339 1019 190 340 1020 191 340 1021 192 340 1022 177 341 1023 190 341 1024 193 341 1025 177 342 1026 193 342 1027 178 342 1028 178 343 1029 193 343 1030 182 343 1031 193 344 1032 190 344 1033 194 344 1034 193 345 1035 194 345 1036 182 345 1037 194 346 1038 190 346 1039 192 346 1040 182 347 1041 194 347 1042 195 347 1043 182 348 1044 195 348 1045 131 348 1046 195 349 1047 194 349 1048 196 349 1049 196 350 1050 194 350 1051 192 350 1052 196 351 1053 192 351 1054 197 351 1055 197 352 1056 192 352 1057 198 352 1058 131 353 1059 199 353 1060 129 353 1061 199 354 1062 131 354 1063 195 354 1064 199 355 1065 195 355 1066 200 355 1067 200 356 1068 195 356 1069 196 356 1070 199 357 1071 200 357 1072 201 357 1073 201 358 1074 200 358 1075 202 358 1076 129 359 1077 199 359 1078 203 359 1079 203 360 1080 199 360 1081 201 360 1082 201 361 1083 202 361 1084 204 361 1085 201 362 1086 204 362 1087 203 362 1088 204 363 1089 202 363 1090 205 363 1091 129 364 1092 203 364 1093 206 364 1094 129 365 1095 206 365 1096 128 365 1097 128 366 1098 206 366 1099 126 366 1100 206 367 1101 203 367 1102 207 367 1103 207 368 1104 203 368 1105 204 368 1106 126 369 1107 206 369 1108 208 369 1109 208 370 1110 206 370 1111 207 370 1112 126 371 1113 208 371 1114 115 371 1115 115 372 1116 208 372 1117 146 372 1118 209 373 1119 204 373 1120 205 373 1121 204 374 1122 209 374 1123 207 374 1124 209 375 1125 205 375 1126 210 375 1127 209 376 1128 210 376 1129 207 376 1130 207 377 1131 210 377 1132 208 377 1133 208 378 1134 210 378 1135 146 378 1136 210 379 1137 205 379 1138 211 379 1139 146 380 1140 210 380 1141 147 380 1142 147 381 1143 210 381 1144 211 381 1145 147 382 1146 211 382 1147 212 382 1148 213 383 1149 200 383 1150 196 383 1151 213 384 1152 196 384 1153 197 384 1154 200 385 1155 213 385 1156 214 385 1157 213 386 1158 197 386 1159 215 386 1160 213 387 1161 215 387 1162 214 387 1163 200 388 1164 214 388 1165 202 388 1166 215 389 1167 197 389 1168 198 389 1169 215 390 1170 198 390 1171 216 390 1172 215 391 1173 216 391 1174 217 391 1175 215 392 1176 217 392 1177 218 392 1178 215 393 1179 218 393 1180 214 393 1181 218 394 1182 217 394 1183 219 394 1184 202 395 1185 214 395 1186 220 395 1187 220 396 1188 214 396 1189 218 396 1190 202 397 1191 220 397 1192 205 397 1193 218 398 1194 219 398 1195 221 398 1196 220 399 1197 218 399 1198 222 399 1199 222 400 1200 218 400 1201 221 400 1202 220 401 1203 222 401 1204 223 401 1205 223 402 1206 222 402 1207 221 402 1208 205 403 1209 220 403 1210 224 403 1211 224 404 1212 220 404 1213 223 404 1214 205 405 1215 224 405 1216 211 405 1217 223 406 1218 221 406 1219 225 406 1220 225 407 1221 221 407 1222 226 407 1223 224 408 1224 223 408 1225 227 408 1226 227 409 1227 223 409 1228 225 409 1229 224 410 1230 227 410 1231 211 410 1232 211 411 1233 227 411 1234 174 411 1235 174 412 1236 227 412 1237 225 412 1238 211 413 1239 174 413 1240 212 413 1241 174 414 1242 225 414 1243 173 414 1244 173 415 1245 225 415 1246 171 415 1247 13 416 1248 53 416 1249 228 416 1250 228 417 1251 53 417 1252 54 417 1253 228 418 1254 54 418 1255 93 418 1256 93 419 1257 54 419 1258 52 419 1259 187 420 1260 188 420 1261 96 420 1262 187 421 1263 96 421 1264 189 421 1265 189 422 1266 96 422 1267 229 422 1268 229 423 1269 96 423 1270 230 423 1271 230 424 1272 96 424 1273 95 424 1274 230 425 1275 95 425 1276 99 425 1277 230 426 1278 99 426 1279 231 426 1280 96 427 1281 188 427 1282 93 427 1283 96 428 1284 93 428 1285 94 428 1286 93 429 1287 188 429 1288 228 429 1289 228 430 1290 188 430 1291 13 430 1292 105 431 1293 232 431 1294 103 431 1295 232 432 1296 105 432 1297 162 432 1298 103 433 1299 232 433 1300 104 433 1301 232 434 1302 162 434 1303 233 434 1304 232 435 1305 233 435 1306 104 435 1307 233 436 1308 162 436 1309 163 436 1310 171 437 1311 225 437 1312 163 437 1313 163 438 1314 225 438 1315 226 438 1316 163 439 1317 226 439 1318 233 439 1319 233 440 1320 226 440 1321 219 440 1322 219 441 1323 226 441 1324 221 441 1325 104 442 1326 233 442 1327 234 442 1328 234 443 1329 233 443 1330 219 443 1331 104 444 1332 234 444 1333 102 444 1334 234 445 1335 219 445 1336 217 445 1337 102 446 1338 234 446 1339 235 446 1340 235 447 1341 234 447 1342 217 447 1343 235 448 1344 217 448 1345 216 448 1346 229 449 1347 236 449 1348 189 449 1349 189 450 1350 236 450 1351 191 450 1352 236 451 1353 229 451 1354 237 451 1355 237 452 1356 229 452 1357 230 452 1358 191 453 1359 236 453 1360 238 453 1361 238 454 1362 236 454 1363 237 454 1364 191 455 1365 238 455 1366 192 455 1367 237 456 1368 230 456 1369 231 456 1370 192 457 1371 238 457 1372 239 457 1373 239 458 1374 238 458 1375 237 458 1376 239 459 1377 237 459 1378 231 459 1379 192 460 1380 239 460 1381 198 460 1382 198 461 1383 239 461 1384 216 461 1385 239 462 1386 231 462 1387 240 462 1388 239 463 1389 240 463 1390 216 463 1391 240 464 1392 231 464 1393 99 464 1394 216 465 1395 240 465 1396 235 465 1397 240 466 1398 99 466 1399 100 466 1400 240 467 1401 100 467 1402 235 467 1403 235 468 1404 100 468 1405 102 468 1406 145 469 1407 149 469 1408 144 469 1409 144 470 1410 149 470 1411 241 470 1412 144 471 1413 241 471 1414 155 471 1415 241 472 1416 149 472 1417 242 472 1418 243 473 1419 155 473 1420 241 473 1421 243 474 1422 241 474 1423 244 474 1424 243 475 1425 244 475 1426 245 475 1427 245 476 1428 244 476 1429 246 476 1430 245 477 1431 246 477 1432 247 477 1433 243 478 1434 245 478 1435 248 478 1436 248 479 1437 245 479 1438 247 479 1439 243 480 1440 248 480 1441 249 480 1442 248 481 1443 247 481 1444 250 481 1445 248 482 1446 250 482 1447 249 482 1448 250 483 1449 247 483 1450 251 483 1451 250 484 1452 251 484 1453 249 484 1454 247 485 1455 155 485 1456 243 485 1457 247 486 1458 243 486 1459 252 486 1460 247 487 1461 252 487 1462 251 487 1463 252 488 1464 243 488 1465 249 488 1466 252 489 1467 249 489 1468 251 489 1469 244 490 1470 241 490 1471 242 490 1472 244 491 1473 242 491 1474 246 491 1475 246 492 1476 242 492 1477 253 492 1478 253 493 1479 242 493 1480 172 493 1481 253 494 1482 172 494 1483 157 494 1484 149 495 1485 148 495 1486 242 495 1487 242 496 1488 148 496 1489 254 496 1490 242 497 1491 254 497 1492 172 497 1493 254 498 1494 148 498 1495 147 498 1496 254 499 1497 147 499 1498 212 499 1499 254 500 1500 212 500 1501 172 500 1502 172 501 1503 212 501 1504 174 501 1505 156 502 1506 155 502 1507 255 502 1508 255 503 1509 155 503 1510 247 503 1511 156 504 1512 255 504 1513 157 504 1514 255 505 1515 247 505 1516 246 505 1517 157 506 1518 255 506 1519 253 506 1520 253 507 1521 255 507 1522 246 507 1523</p>
        </polylist>
      </mesh>
    </geometry>
  </library_geometries>
  <library_visual_scenes>
    <visual_scene id="Scene" name="Scene">
      <node id="Coconuts" name="Coconuts" type="NODE">
        <scale sid="scale">1 1 1</scale>
        <translate sid="location">0 0 0</translate>
        <rotate sid="rotationX">1 0 0 0</rotate>
        <rotate sid="rotationY">0 1 0 0</rotate>
        <rotate sid="rotationZ">0 0 1 0</rotate>
        <instance_geometry url="#Coconuts-mesh" name="Coconuts">
          <bind_material>
            <technique_common>
            </technique_common>
          </bind_material>
        </instance_geometry>
      </node>
    </visual_scene>
  </library_visual_scenes>
  <scene>
    <instance_visual_scene url="#Scene"/>
  </scene>
</COLLADA>
