<?xml version="1.0" encoding="utf-8"?>
<COLLADA xmlns="http://www.collada.org/2005/11/COLLADASchema" version="1.4.1" xmlns:xsi="http://www.w3.org/2001/XMLSchema-instance">
  <asset>
    <contributor>
      <author>Blockbench user</author>
      <authoring_tool>Blockbench</authoring_tool>
    </contributor>
    <created>2026-07-22T13:55:32.429Z</created>
    <modified>2026-07-22T13:55:32.436Z</modified>
    <unit name="meter" meter="1.0"/>
    <up_axis>Y_UP</up_axis>
  </asset>
  <library_effects>
  </library_effects>
  <library_images>
  </library_images>
  <library_materials>
  </library_materials>
  <library_geometries>
    <geometry id="Column1-mesh" name="Column1">
      <mesh>
        <source id="Column1-mesh-positions">
          <float_array id="Column1-mesh-positions-array" count="735">0.159116 0.537916 0.084872 0.156331 0.484504 0.096562 0.152439 0.53104 -0.06301 0.157468 0.510869 0.098255 0.153632 0.536798 0.098119 0.144531 0.538568 -0.060918 0.107654 0.535629 0.081183 0.085038 0.538684 -0.015068 0.06209 0.538586 0.038872 0.035094 0.531446 0.078924 0.073533 0.52595 0.088271 0.108767 0.47804 0.089322 0.067352 0.50169 0.077993 0.034518 0.507989 0.077276 0.054399 0.463595 0.077683 0.082935 0.487971 0.078534 0.034147 0.53012 0.097725 0.016307 0.480493 0.082768 -0.006562 0.528039 0.109743 -0.179561 0.536243 -0.209724 0.015938 0.536828 -0.070841 0.060571 0.538136 -0.212821 -0.09736 0.532526 -0.097583 -0.182683 0.521141 -0.060061 -0.151828 0.538717 -0.058847 0.0831 0.529135 -0.20805 0.155108 0.535751 -0.207534 0.005279 0.519895 -0.047931 -0.181579 0.488243 -0.208356 0.155204 0.485477 -0.207795 -0.164948 0.476155 -0.189188 0.138146 0.477459 0.101982 0.126954 0.448469 -0.178427 0.128141 0.44686 0.089577 0.003917 0.45478 0.081676 0.072142 0.439771 0.093801 -0.182042 0.486839 0.129714 -0.166109 0.477094 0.114757 -0.182102 0.535703 0.127317 -0.185595 0.537804 -0.037374 -0.054698 0.536309 0.040085 -0.109151 0.529443 0.128805 0.062868 0.524376 -0.009556 -0.040865 0.538778 -0.028862 0.028753 0.536566 -0.0203 -0.155341 0.446897 -0.179701 -0.155612 0.446889 0.104915 -0.001174 0.449721 0.102269 0.025168 0.483238 0.12629 0.00275 0.516993 0.127364 -0.010339 0.537869 0.13359 0.004307 0.432457 0.08997 0.003219 0.533752 0.040711 0.116755 -0.052019 -0.162513 0.019703 0.089607 -0.156891 0.008014 0.10985 -0.163139 0.005702 0.066807 -0.163101 0.103771 -0.112577 -0.15176 0.11155 -0.132086 -0.162887 0.10388 -0.067562 -0.163113 0.116901 -0.103088 -0.139811 0.097505 -0.186938 -0.163074 -0.009439 0.091484 -0.163078 -0.052391 -0.423765 -0.175015 -0.049978 -0.406501 -0.198009 -0.028059 -0.379349 -0.175642 -0.029735 -0.406365 -0.19799 -0.026233 -0.428027 -0.177004 -0.17744 -0.404835 -0.196738 0.128337 -0.380134 -0.176164 -0.154475 -0.379634 -0.175817 0.145301 -0.406779 -0.195225 -0.164486 -0.427627 -0.178739 -0.009669 -0.445822 -0.21493 -0.036873 -0.431753 -0.214725 0.135459 -0.427777 -0.179197 0.007835 -0.431659 -0.214521 -0.14146 0.295416 0.073 -0.140324 0.119204 0.088726 -0.139767 0.277082 0.087898 -0.142459 0.07214 0.054584 -0.141683 0.181235 -0.135627 -0.141735 0.085261 -0.149967 -0.105202 0.310316 0.084987 -0.138791 0.384167 0.06397 -0.142097 0.359694 0.076918 -0.036053 -0.43312 0.107751 -0.010498 -0.444033 0.14153 0.002052 -0.425399 0.10317 -0.003643 -0.426563 0.087054 0.135189 -0.426943 0.10485 0.167091 -0.434738 0.136754 0.037454 -0.527134 0.139043 0.040759 -0.373889 0.076848 0.041057 -0.369424 0.099893 0.014638 -0.366096 0.07286 -0.025229 -0.412279 0.083723 -0.176958 -0.405334 0.123131 -0.059657 -0.425627 0.100149 -0.061411 -0.394179 0.121408 -0.026858 -0.375699 0.10169 -0.008535 -0.362927 0.078839 -0.163876 -0.426886 0.104906 -0.04065 -0.431286 0.140612 -0.011083 -0.358062 0.086802 -0.196792 -0.435152 0.137132 -0.154735 -0.379638 0.101878 -0.198229 -0.530835 -0.061734 -0.199597 -0.528245 -0.214595 -0.143107 -0.52852 -0.2142 -0.199478 -0.435597 -0.130339 -0.195914 -0.434842 -0.210583 0.145947 -0.400809 0.120459 0.126155 -0.379891 0.102217 -0.199609 -0.52681 0.139466 -0.199178 -0.52335 0.13995 -0.197365 -0.523634 0.141088 -0.197223 -0.525211 0.13922 -0.197996 -0.526343 0.141701 -0.15799 -0.527951 0.141169 -0.199603 -0.527814 0.14113 -0.13235 -0.01663 0.083948 -0.101055 -0.045196 0.086449 -0.12573 0.074418 0.091101 -0.089669 -0.181843 0.090898 -0.025787 -0.119699 0.085572 -0.14304 -0.120707 0.077481 -0.144006 -0.111966 0.092945 -0.141742 -0.035531 0.089022 -0.102628 -0.22082 0.086379 -0.142497 -0.362055 0.08991 -0.043369 -0.305674 0.085735 -0.141772 -0.281654 0.087235 -0.108616 -0.156791 0.083623 0.034226 -0.2679 0.090184 0.06076 -0.194386 0.084715 -0.140628 0.42901 -0.16324 0.126247 0.431882 -0.177389 0.116392 0.428557 -0.162213 -0.153197 0.431862 -0.177476 -0.153266 0.432086 0.10282 -0.137042 0.429804 0.093624 -0.104389 0.379776 0.087384 -0.016632 0.427002 0.090312 0.086377 0.431053 0.091991 0.091634 0.407614 0.082273 0.121932 0.430837 0.088505 0.117459 0.381246 0.091797 0.001976 -0.402593 0.124563 0.087977 -0.287778 0.073 0.074608 -0.330229 0.077695 0.101151 -0.315343 0.067975 0.019036 -0.325889 0.086382 0.043783 -0.29963 0.075492 0.112682 -0.36224 0.088353 0.168441 -0.527362 0.138713 0.169355 -0.523695 -0.206086 0.168192 -0.525786 0.139343 0.169884 -0.52388 0.140125 0.169463 -0.530373 -0.11195 0.169897 -0.525367 -0.212782 0.168281 -0.52477 -0.212629 0.170491 -0.526859 -0.21446 0.170328 -0.52923 0.141232 0.047649 -0.528176 -0.212773 0.168555 -0.525262 -0.214201 -0.143403 -0.263666 -0.138076 -0.137107 -0.201108 0.061277 -0.13887 -0.230098 0.051931 -0.143537 -0.183613 0.083586 -0.140505 -0.25499 0.059392 -0.111397 -0.236388 0.078172 -0.143309 -0.001298 0.090336 -0.1403 0.036339 0.083155 -0.127092 0.076862 0.076282 0.007397 0.361376 -0.163153 0.116174 0.33338 -0.162669 0.052091 0.339422 -0.157932 0.075704 0.354332 -0.163082 0.042269 0.215137 -0.158992 0.025545 0.377502 -0.155925 0.052216 0.389136 -0.159593 -0.140371 0.200695 -0.162259 -0.115032 0.166638 -0.16304 -0.14037 0.144065 -0.161465 0.043845 -0.525461 -0.21436 0.166637 -0.434864 -0.210657 -0.142895 -0.361796 -0.162703 -0.142068 -0.280284 -0.161783 -0.114296 -0.25876 -0.163059 -0.140269 -0.234251 -0.135639 -0.110235 -0.218093 -0.161574 -0.143508 -0.201497 -0.140235 -0.142226 -0.182969 -0.162494 0.117581 -0.333918 0.086379 0.110996 -0.290597 0.041013 0.116861 -0.362078 -0.031868 0.116074 -0.362052 -0.162443 0.110197 -0.313713 0.015614 0.116788 -0.283834 0.014512 0.045775 -0.300842 0.091109 0.037872 -0.269706 0.076505 -0.081587 0.350671 0.085485 0.015728 0.287091 0.087118 0.02185 0.122951 0.091506 0.068609 0.235087 0.086572 0.144395 -0.527044 0.141519 0.109552 -0.044229 -0.112554 0.115058 0.120778 -0.037211 0.115311 -0.137562 -0.043907 0.116535 -0.170487 -0.034335 0.116895 -0.096866 0.058875 0.112261 -0.205626 -0.144124 -0.142446 0.026988 -0.16247 0.115553 -0.172864 -0.15929 0.104927 -0.227029 0.085773 0.117174 -0.187056 0.090727 0.049201 0.003372 0.088504 0.113373 -0.134998 0.087477 0.096364 -0.08709 0.091161 0.118583 -0.2426 0.081543 0.115811 -0.099943 0.087024 0.064004 -0.246645 0.089342 0.116986 -0.056755 0.090597 0.104631 -0.075944 0.068492 0.007162 0.395926 0.076388 0.030949 0.382297 0.082693 0.11662 0.111121 0.090525 0.116594 0.270976 0.081603 -0.125893 0.066974 -0.16304 0.116768 0.049204 0.089823 0.089478 0.075491 0.09112 0.117295 0.075029 0.067878 0.100363 0.092745 0.077566 0.115855 0.316761 0.074008 0.069614 0.346934 0.08532 0.109791 0.316057 0.0881 0.039011 0.083967 0.089913 0.061427 0.119911 0.09123 0.098786 -0.237001 0.073606 0.064006 0.353584 0.0783 0.049868 0.343772 0.081139 0.007342 0.363968 0.087844 0.103654 0.277861 0.091311 0.169089 -0.526668 0.141644</float_array>
          <technique_common>
            <accessor source="#Column1-mesh-positions-array" count="245" stride="3">
              <param name="X" type="float"/>
              <param name="Y" type="float"/>
              <param name="Z" type="float"/>
            </accessor>
          </technique_common>
        </source>
        <source id="Column1-mesh-normals">
          <float_array id="Column1-mesh-normals-array" count="1494">0.997232 -0.061232 -0.04218 0.998475 -0.045098 0.031828 0.911152 0.13681 0.388697 0.702834 0.683666 0.196533 -0.041165 0.998159 -0.044552 -0.048877 0.996759 0.063892 -0.344253 -0.04598 0.93775 0.045254 0.998753 0.021067 0.022348 0.9994 0.02647 0.083026 0.969911 0.228864 -0.142621 -0.057307 0.988117 -0.225645 0.070333 0.971667 -0.233639 0.187776 0.954019 -0.205769 0.935577 0.286975 -0.027228 -0.003015 0.999625 -0.01824 0.018726 0.999658 -0.266692 -0.317587 0.909953 0.299934 -0.435925 0.848534 -0.035048 -0.069194 0.996987 0.998441 -0.027949 0.048323 0.546018 -0.199059 0.813781 0.24437 -0.655873 0.714223 -0.007796 0.999947 0.006761 -0.013903 0.999892 0.004841 -0.012119 0.99976 -0.018255 -0.055141 0.995775 0.073424 -0.495778 0.865034 0.076944 0.089796 0.995419 -0.032828 0.402191 0.887522 -0.224825 0.694072 0.718992 0.036256 -0.158449 0.827833 0.538132 -0.012669 -0.02795 -0.999529 0.00164 -0.003116 -0.999994 0.055893 -0.354778 -0.933279 -0.006084 -0.848205 -0.529633 -0.189387 0.857232 0.478838 0.360123 -0.932895 -0.004315 0.80552 -0.591857 0.029038 -0.091281 0.995493 -0.025712 0.006687 0.00522 -0.999964 0.999991 0.001935 -0.003695 0.986313 0.163195 0.023536 -0.459332 -0.27851 0.843472 -0.492254 -0.531957 0.688991 -0.028941 0.545244 0.837777 -0.584781 -0.81118 -0.004169 -0.521331 -0.853354 0.000645 -0.980394 -0.196195 0.01829 0.003921 0.999912 0.012673 0.082233 0.988492 0.126971 -0.016173 0.048973 0.998669 -0.997294 -0.072994 0.008768 -0.999998 -0.001292 -0.001374 -0.385178 0.784207 0.486475 -0.371987 0.820763 0.433559 -0.008445 0.999537 0.029219 0.255496 0.921076 -0.293839 0.030677 0.992829 -0.115544 -0.386754 0.718869 -0.577623 0.424988 0.568751 -0.704206 0.096323 0.813934 -0.572917 -0.950003 -0.312241 -0.000914 0.893104 -0.4352 0.113865 0.741572 -0.380801 0.552323 0.071628 0.041229 0.996579 0.006001 -0.306673 -0.951796 -0.028413 -0.607963 -0.793457 -0.944842 -0.327518 -0.002598 0.021877 -0.302852 0.952786 0.823289 -0.551865 -0.132817 0.813233 0.546475 -0.200044 -0.031509 -0.565759 0.823968 -0.020833 -0.297694 0.954434 0.857573 0.493924 -0.143554 0.012809 -0.000586 0.999918 0.016151 -0.021087 0.999647 -0.005659 -0.840588 0.541646 -0.090007 0.345477 0.934101 -0.567834 0.787335 -0.240143 -0.008728 0.999382 0.034037 0.043583 0.998059 0.044485 0.031515 0.99485 0.096334 0.04298 0.995153 0.088447 -0.059599 0.919529 -0.388477 0.038561 0.997698 -0.055785 -0.077497 0.989672 0.1206 0.39517 0.883142 -0.252788 -0.077348 0.989236 0.124215 -0.030669 0.99716 0.068782 -0.02289 0.996593 0.079233 0.830472 0.548944 -0.094744 -0.998998 0.041535 -0.016652 0.803529 0.540755 0.248848 0.174048 0.157852 -0.972003 0.893598 0.107751 0.435744 0.72749 -0.169446 -0.664866 0.00569 0.001952 -0.999982 -0.005879 -0.004205 -0.999974 0.024701 0.018138 -0.99953 -0.004186 -0.001621 -0.99999 0.844912 -0.466541 -0.261654 -0.991516 -0.040644 0.123468 -0.0717 0.025194 -0.997108 -0.00061 -0.635511 0.772091 0.000629 0.637366 -0.770561 -0.000377 0.638945 -0.769252 0.014167 0.587719 -0.808941 0.047224 -0.602401 -0.796795 -0.016435 -0.798749 -0.60144 0.120834 0.917922 -0.377913 0.459372 0.888243 0.000835 -0.009879 -0.6038 -0.797075 0.009712 -0.694973 -0.71897 -0.522436 0.66119 -0.538413 -0.026809 0.977932 -0.207196 -0.993014 0.004123 0.117928 -0.997985 -0.000771 0.063453 -0.999988 0.004591 -0.001442 -0.999993 0.001054 -0.00347 -0.455265 0.53579 0.7111 -0.971097 0.004925 -0.238635 -0.999485 0.028577 -0.01457 -0.136302 0.90789 0.396431 -0.19866 0.980068 -0.00059 0.008392 0.973293 0.229414 0.027616 -0.013988 0.999521 -0.72718 0.65362 0.209737 -0.819134 0.565016 -0.098876 -0.062864 0.279615 0.958052 -0.016407 0.203501 0.978937 -0.035798 0.903466 0.427162 0.066058 -0.556295 0.828355 0.782873 -0.524614 0.3345 0.251192 0.010816 0.967877 0.449834 -0.064003 0.890816 0.608814 -0.420711 0.672568 0.024926 0.749616 0.661403 0.316556 0.641372 0.698881 0.043008 -0.629771 0.77559 0.021458 0.744572 0.667197 0.049737 0.997573 -0.048718 -0.854658 -0.519191 0.000479 0.38931 0.921102 0.003054 0.817484 -0.336714 0.467272 -0.029052 0.974976 0.220402 -0.245403 0.969419 -0.002004 -0.052894 0.663212 0.74656 -0.004749 -0.999846 -0.016898 -0.999938 -0.006751 0.008833 -0.998182 0.041243 -0.043944 -0.199254 0.979948 0.000371 -0.016757 -0.507595 0.861433 0.724177 0.689595 0.005075 0.923583 -0.383362 0.00536 0.906088 -0.423084 0.002101 0.83959 0.543089 -0.011989 -0.536643 -0.051043 0.842264 -0.529262 0.822033 0.210104 -0.456493 -0.696666 0.553416 -0.801706 0.303358 0.515015 -0.041993 -0.903986 -0.425496 -0.002066 -0.360036 0.932936 0.558057 -0.829551 0.020423 -0.684619 -0.728512 0.023816 -0.959572 0.016982 -0.280949 -0.990927 0.113321 0.072264 -0.376041 0.05132 0.925181 -0.999576 0.02736 0.009992 -0.999862 -0.016072 -0.004108 -0.018501 0.02822 0.999431 0.010978 -0.023593 0.999661 -0.085141 -0.764521 0.638952 0.625471 0.030803 0.779639 0.002831 0.044643 0.998999 -0.023104 0.033806 0.999161 -0.140453 -0.067393 0.987791 -0.05423 0.027975 0.998137 0.047731 0.036472 0.998194 -0.996725 0.025579 -0.076708 0.033215 0.01561 0.999326 -0.030218 0.033507 0.998982 -0.104182 -0.080282 0.991313 -0.713647 -0.627979 0.310402 0.421119 0.034048 0.906366 0.135753 0.076619 0.987776 -0.789074 -0.612045 -0.052558 0.045797 0.057667 0.997285 -0.03128 -0.053307 0.998088 -0.000865 -0.976711 -0.214559 -0.989984 -0.141176 -0.000132 0.000318 -0.146357 -0.989232 -0.136517 -0.990625 0.004968 -0.999474 0.0293 0.013864 0.000131 -0.980495 -0.196544 -0.222062 -0.975032 0.000724 0.024826 -0.107756 0.993867 0.025303 -0.958905 0.282597 0.026557 -0.039278 0.998875 -0.388635 -0.234191 0.891132 -0.131565 0.11967 0.984058 0.951192 -0.308539 -0.006066 0.497702 0.708834 0.499847 -0.074247 0.339319 0.937737 0.088658 -0.364441 0.926997 0.096413 -0.103612 0.989934 -0.264705 0.087627 0.96034 0.029258 -0.683807 0.729076 0.346536 -0.005389 0.938021 0.01588 0.584618 0.811153 0.06521 0.690193 0.720681 -0.721027 0.472778 -0.506558 0.120798 -0.328273 0.936827 -0.127252 0.079475 0.988681 0.168124 0.238248 0.956542 0.367101 -0.332332 0.868788 0.019355 -0.850409 0.525766 -0.127831 0.973995 -0.187066 0.097321 0.416664 0.903836 -0.175301 0.116942 0.977545 0.988029 0.154207 0.00426 0.748108 -0.663576 -0.001498 -0.350051 -0.935503 -0.047951 0.936952 0.348805 0.021348 0.998011 0.062952 0.003316 -0.707166 -0.707025 0.005607 -0.015125 0.142725 -0.989647 0.821208 -0.569131 -0.04132 0.010245 -0.999364 -0.034155 -0.994675 -0.085113 0.058122 -0.99832 0.056247 0.013877 -0.964387 -0.017981 -0.263883 -0.998128 0.059963 0.01201 -0.997549 0.069008 0.011604 -0.999925 0.009277 0.007977 -0.075488 0.096898 0.992428 -0.612887 -0.069715 0.787089 -0.700664 -0.179977 0.690419 -0.635247 0.259726 0.727326 -0.835273 0.535719 -0.12379 -0.671693 0.550088 0.496217 0.392464 -0.100366 0.914275 -0.784618 0.176156 0.594427 -0.834481 -0.516664 -0.191574 -0.996165 0.084196 0.023801 -0.997764 -0.066378 -0.007788 -0.799936 0.344101 0.491627 -0.934171 0.328215 0.139995 -0.999873 0.014261 0.007177 -0.840682 0.483315 0.244255 0.000563 -0.000054 -1 -0.090504 -0.194035 -0.976811 0.119448 0.000238 -0.99284 0.115693 -0.00067 -0.993285 -0.073771 -0.000515 -0.997275 -0.12212 -0.032842 -0.991972 0.03394 0.073001 -0.996754 0.388826 -0.703981 0.594328 -0.193461 -0.032282 -0.980577 0.207978 0.195503 -0.958396 -0.730504 -0.533744 -0.426006 -0.48082 0.488955 -0.727829 -0.006592 0.001807 -0.999977 0.023682 0.008766 -0.999681 -0.000735 -0.007643 -0.999971 0.024301 -0.001194 -0.999704 -0.004546 0.974568 -0.224045 0.021981 0.996824 -0.076541 0.293846 0.932701 -0.209102 -0.393206 -0.894776 0.211578 0.949683 0.026882 0.312058 -0.103097 0.036775 -0.993991 0.001218 0.039193 -0.999231 0.996805 0.034212 0.072181 0.00547 -0.234833 0.97202 0.00114 -0.954272 0.298938 -0.02286 0.995185 0.095316 0.014851 -0.489117 -0.872092 -0.999983 -0.005567 0.001571 -0.997904 0.010849 -0.063802 -0.544128 0.672312 -0.501918 -0.679268 0.094406 -0.727793 -0.590473 -0.169116 -0.78914 -0.991118 0.111587 -0.072337 -0.994967 -0.093223 0.03673 -0.658323 0.131549 -0.741152 -0.998639 0.049566 -0.016249 -0.012877 0.037765 -0.999204 -0.002898 -0.028793 -0.999581 -0.055046 0.011827 -0.998414 0.001216 -0.003795 -0.999992 -0.64792 0.16391 0.743864 0.05835 0.643807 0.76296 0.052808 0.726031 0.685632 0.932909 -0.182982 -0.310157 0.998314 0.046474 0.034766 0.783821 0.620352 0.028083 0.866152 0.499741 0.006353 0.000059 0.592308 -0.805712 -0.000067 0.544236 -0.838932 0.001397 0.605088 -0.796158 0.825887 0.563814 -0.004867 0.419741 0.664655 -0.618103 0.925728 -0.192206 0.325705 0.999972 0.004505 -0.006028 0.02902 0.100852 0.994478 0.940286 0.326999 -0.094521 0.062034 -0.02154 0.997842 0.955983 0.181033 0.23092 -0.999829 -0.01731 -0.006511 0.012861 -0.999912 0.003334 0.004325 -0.999901 0.013355 -0.003306 -0.999884 0.014868 -0.14362 0.005693 0.989617 -0.707636 -0.393591 0.586802 -0.950726 -0.307863 0.036616 -0.076552 0.032492 0.996536 -0.003161 0.02083 0.999778 0.064574 0.020241 0.997708 0.03797 0.028123 0.998883 -0.011391 0.026301 0.999589 -0.037289 -0.031431 0.99881 -0.015814 -0.999872 0.002503 -0.021169 -0.372932 0.927617 0.007386 -0.497015 -0.86771 0.007202 0.042627 -0.999065 -0.224042 0.974579 0.000303 -0.026485 0.02365 -0.999369 -0.024192 0.979876 -0.198135 0.98187 -0.104864 0.157909 0.043316 0.02524 -0.998743 0.993627 0.099822 0.052358 0.998346 0.046813 0.033382 0.998765 0.038962 -0.030817 0.999206 0.029292 -0.026995 0.999535 0.02619 -0.015611 -0.999995 -0.001051 -0.003121 -0.624371 -0.582302 -0.520658 -0.004621 0.000106 -0.999989 -0.002438 -0.00095 -0.999997 0.989185 0.061945 0.132953 0.249917 -0.060699 -0.966363 0.298665 0.559902 -0.772858 0.999964 0.005151 0.006766 0.950364 0.066492 -0.303953 0.984406 -0.145009 -0.099581 0.480669 -0.407695 -0.776364 0.999756 -0.014711 -0.016497 0.825221 0.085496 -0.558302 0.001 -0.003498 -0.999993 -0.093392 -0.094228 0.99116 -0.102724 -0.025058 0.994394 -0.521641 -0.247983 0.81633 0.122318 -0.158898 0.979689 -0.327989 0.034999 0.944033 0.999875 0.015516 -0.003057 0.175536 0.074118 0.981679 0.998339 -0.047027 0.033289 -0.033285 0.086095 0.995731 0.043249 0.090775 0.994932 0.564307 0.81805 0.111142 0.206959 -0.001766 0.978348 -0.008952 0.024695 0.999655 0.82696 -0.561687 0.025388 -0.987697 -0.156378 -0.000945 0.019481 -0.137086 0.990368 0.004851 -0.062704 -0.99802 0.068416 -0.564366 0.822685 0.957359 0.11516 0.264956 -0.029318 -0.388421 0.921015 0.103719 -0.339468 0.934882 0.054762 -0.11482 0.991876 -0.028071 -0.247037 0.968599 -0.01299 0.009556 -0.99987 -0.072097 0.051177 -0.996084 0.012654 0.004764 -0.999909 0.999933 0.001511 0.011458 0.999985 -0.002313 0.004979 0.999925 -0.000521 -0.012269 -0.022081 0.748472 0.662799 -0.73885 0.673869 -0.000682 -0.820163 0.572127 0.00188 -0.838501 0.5449 -0.000777 0.001912 -0.999893 -0.014491 0.774402 -0.065916 -0.629251 -0.021829 -0.999751 0.004588 0.002922 -0.015447 -0.999876 -0.001621 -0.001768 -0.999997 0.014874 0.033973 -0.999312 -0.999968 -0.001092 0.00787 -0.999079 0.036466 -0.022596 -0.008564 -0.004305 -0.999954 -0.997793 0.010336 -0.065594 -0.589939 0.064289 -0.804885 -0.000337 0.000037 -1 0.111535 -0.193188 -0.974802 0.999983 0.002016 -0.005408 0.631108 0.192246 0.751495 0.787225 -0.601918 -0.134059 0.99963 0.025173 -0.010323 0.999793 -0.003377 0.020048 -0.072648 -0.531074 0.844205 0.546635 0.535731 0.64357 0.932567 -0.360941 -0.006299 0.999007 -0.041564 0.016047 0.003856 -0.072555 -0.997357 0.999711 -0.022541 -0.008397 0.995606 -0.091218 -0.021171 -0.223801 0.129719 0.965964 -0.102787 -0.044262 0.993718 0.321761 -0.94682 0.0015 0.913184 -0.129321 0.386484 0.999782 0.017911 0.010748 0.999968 -0.006333 -0.004922 -0.290586 -0.061073 0.954898 -0.252255 -0.030425 0.967182 0.038594 -0.034916 0.998645 -0.542379 -0.443038 0.713822 -0.457433 0.463346 0.75899 0.001223 -0.064148 0.99794 -0.485926 0.189016 -0.853316 -0.999927 0.011253 0.004453 -0.00744 -0.019285 0.999786 -0.00698 -0.019565 0.999784 0.044357 0.039942 0.998217 0.009337 -0.036727 0.999282 -0.001035 -0.039077 0.999236 0.008165 -0.016446 0.999831 0.054573 0.007398 0.998482 -0.042117 -0.012716 0.999032 -0.025539 -0.020701 0.999459 -0.028377 -0.020402 0.999389 0.019024 0.039224 0.999049 0.013778 0.006217 0.999886 0.973895 -0.142831 0.176433 0.963192 0.067461 -0.260212 -0.439377 -0.573256 0.691611 0.999987 0.000034 -0.005109 0.192537 -0.186164 -0.963469 0.213973 0.132204 -0.967852 0.999533 0.030513 -0.001316 0.96544 -0.207141 0.158173 0.405118 -0.750058 0.522774 0.444165 -0.78976 0.423079 0.790992 0.278742 0.544642 0.060838 -0.024856 0.997838 0.440314 0.537614 -0.719094 0.791688 -0.175503 0.585174 0.99936 -0.019712 -0.029857 -0.61795 0.261478 0.741463 0.047503 -0.097382 0.994113 0.168028 0.042793 0.984853 0.159484 0.008067 0.987167 0.295513 0.323843 0.898776 0.108864 0.002481 0.994054 -0.420077 -0.344905 0.83939 0.706057 0.242486 0.665345 -0.363445 -0.215042 0.906457 -0.019061 0.654843 0.755525 0.022594 0.03427 0.999157 -0.004711 0.017456 0.999837 -0.029074 -0.057817 0.997904 -0.15107 -0.025225 0.988201 0.002514 0.561483 0.827484 -0.237975 0.242544 0.9405 -0.027205 0.054484 0.998144 -0.038039 0.089766 0.995236 -0.870453 -0.492241 0.003159 -0.404036 -0.566864 0.717927 0.845116 0.28852 0.45004 -0.643499 -0.681336 0.348842 -0.031804 0.040015 0.998693 -0.349616 0.007631 0.936862 -0.755485 0.655163 0.002161 0.999083 -0.000083 -0.042819 0.221034 0.975266 -0.000642 -0.054423 -0.065802 0.996347 0.914603 -0.114368 0.387842 0.239838 0.970809 -0.002623 0.469312 -0.357567 -0.807398 0.689965 -0.709567 -0.143048 0.010019 0.03979 0.999158 -0.019921 0.052682 0.998413 0.639754 0.135815 0.756485 0.6144 0.044063 0.787763 -0.117423 -0.013814 0.992986 0.99951 0.031265 -0.001511 0.566596 -0.783709 0.2545 -0.256568 0.590934 0.764833 0.933448 -0.335393 -0.127223 0.746724 -0.469551 -0.471088 0.010443 -0.932376 -0.36134 0.419991 0.057315 0.905716 0.956175 0.018914 -0.292183 0.003961 -0.039091 0.999228 -0.00257 -0.160096 0.987098 -0.013671 0.973677 -0.227521 0.103734 -0.354622 0.929238 0.010337 -0.910551 -0.413267</float_array>
          <technique_common>
            <accessor source="#Column1-mesh-normals-array" count="498" stride="3">
              <param name="X" type="float"/>
              <param name="Y" type="float"/>
              <param name="Z" type="float"/>
            </accessor>
          </technique_common>
        </source>
        <source id="Column1-mesh-map-0">
          <float_array id="Column1-mesh-map-0-array" count="2988">0.549498 0.03944 0.557135 0.007272 0.451887 0.037933 0.557135 0.007272 0.549498 0.03944 0.557492 0.021048 0.557492 0.021048 0.549498 0.03944 0.558456 0.038629 0.465329 0.424119 0.369875 0.397479 0.453205 0.430643 0.453205 0.430643 0.369875 0.397479 0.368168 0.431776 0.369875 0.397479 0.360007 0.42466 0.368168 0.431776 0.77243 0.18026 0.767926 0.150515 0.788747 0.175407 0.414745 0.382889 0.407171 0.367403 0.369875 0.397479 0.465329 0.424119 0.439431 0.377323 0.369875 0.397479 0.401095 0.369284 0.372318 0.35073 0.366246 0.372774 0.968258 0.986015 0.966608 0.962435 0.969269 0.958142 0.781189 0.123101 0.799208 0.14861 0.788747 0.175407 0.767926 0.150515 0.781189 0.123101 0.788747 0.175407 0.401095 0.369284 0.366568 0.38364 0.369875 0.397479 0.783511 0.099637 0.804994 0.105691 0.795324 0.126742 0.783511 0.099637 0.795324 0.126742 0.781189 0.123101 0.763777 0.103823 0.781189 0.123101 0.765995 0.126589 0.762413 0.145692 0.765995 0.126589 0.781189 0.123101 0.763777 0.103823 0.783511 0.099637 0.781189 0.123101 0.633713 0.264215 0.638222 0.252413 0.650927 0.251962 0.632691 0.280079 0.633713 0.264215 0.651828 0.278289 0.650927 0.251962 0.651828 0.278289 0.633713 0.264215 0.538784 0.256223 0.472379 0.336112 0.565498 0.364004 0.565498 0.364004 0.472379 0.336112 0.465329 0.424119 0.465329 0.424119 0.472379 0.336112 0.439431 0.377323 0.538784 0.256223 0.488208 0.268255 0.472379 0.336112 0.538784 0.256223 0.480291 0.205233 0.463087 0.220487 0.538784 0.256223 0.463087 0.220487 0.488208 0.268255 0.562721 0.385981 0.565498 0.364004 0.465329 0.424119 0.561188 0.430523 0.465329 0.424119 0.475292 0.43146 0.559154 0.13444 0.532965 0.132783 0.508677 0.153878 0.108829 0.000846 0.110601 0.030828 0.271978 0.033595 0.329242 0.001017 0.108829 0.000846 0.291793 0.03074 0.291793 0.03074 0.108829 0.000846 0.271978 0.033595 0.593151 0.462688 0.60389 0.470485 0.678269 0.348728 0.968258 0.986015 0.958578 0.974456 0.966608 0.962435 0.585096 0.27432 0.678269 0.348728 0.585244 0.266851 0.944094 0.534274 0.930403 0.349505 0.949872 0.389813 0.561188 0.430523 0.562721 0.385981 0.465329 0.424119 0.329242 0.001017 0.291793 0.03074 0.329513 0.033582 0.557135 0.007272 0.357774 0.007196 0.359279 0.038789 0.557135 0.007272 0.359279 0.038789 0.451887 0.037933 0.968276 0.998178 0.963956 0.995843 0.968258 0.986015 0.799208 0.14861 0.781189 0.123101 0.795324 0.126742 0.220257 0.133802 0.224583 0.101419 0.235981 0.144026 0.313339 0.447317 0.60389 0.470485 0.593151 0.462688 0.313339 0.447317 0.593151 0.462688 0.319472 0.44074 0.965002 0.595004 0.956826 0.485421 0.96551 0.470548 0.451122 0.204916 0.341871 0.204877 0.397536 0.295876 0.397536 0.295876 0.341871 0.204877 0.34012 0.252817 0.891725 0.860864 0.924815 0.862735 0.896842 0.907211 0.96551 0.470548 0.989267 0.376239 0.965002 0.595004 0.989267 0.376239 0.986191 0.596636 0.965002 0.595004 0.458061 0.1476 0.493521 0.141333 0.451416 0.134323 0.472379 0.336112 0.456561 0.352894 0.439431 0.377323 0.438508 0.297653 0.45167 0.228801 0.451122 0.204916 0.474084 0.303616 0.488208 0.268255 0.438508 0.297653 0.488208 0.268255 0.463087 0.220487 0.438508 0.297653 0.83694 0.821585 0.84133 0.832116 0.826004 0.83191 0.462836 0.317855 0.436434 0.344477 0.443115 0.360261 0.436434 0.344477 0.462836 0.317855 0.449927 0.304954 0.83053 0.223414 0.830403 0.039591 0.84463 0.231126 0.357156 0.411648 0.344542 0.413424 0.336826 0.397492 0.297175 0.422289 0.299319 0.395246 0.298959 0.417112 0.783511 0.099637 0.805615 0.075362 0.804994 0.105691 0.266994 0.41798 0.26687 0.254692 0.281599 0.228103 0.284415 0.425005 0.266994 0.41798 0.281599 0.228103 0.830403 0.039591 0.846729 0.045189 0.84463 0.231126 0.808629 0.579674 0.824836 0.586021 0.82368 0.687132 0.357156 0.411648 0.336826 0.397492 0.357118 0.38207 0.691633 0.074862 0.710491 0.049752 0.685548 0.051702 0.808629 0.579674 0.82368 0.687132 0.80434 0.700734 0.896842 0.907211 0.904383 0.982683 0.89211 0.972597 0.710491 0.049752 0.691633 0.074862 0.719688 0.059111 0.896842 0.907211 0.924815 0.862735 0.904383 0.982683 0.904383 0.982683 0.924815 0.862735 0.925002 0.991558 0.313339 0.447317 0.319472 0.44074 0.314179 0.270312 0.235981 0.144026 0.224583 0.101419 0.238312 0.104122 0.441099 0.14158 0.434205 0.127652 0.431024 0.126379 0.438508 0.297653 0.451122 0.204916 0.397397 0.298193 0.397693 0.324758 0.438508 0.297653 0.397397 0.298193 0.31737 0.139482 0.322085 0.103819 0.329919 0.128126 0.397693 0.324758 0.397536 0.295876 0.355147 0.319208 0.344464 0.318356 0.34012 0.252817 0.337969 0.319477 0.436434 0.344477 0.449927 0.304954 0.401095 0.369284 0.449927 0.304954 0.397693 0.324758 0.401095 0.369284 0.706693 0.397772 0.701523 0.410218 0.721783 0.408421 0.401095 0.369284 0.397693 0.324758 0.372318 0.35073 0.372318 0.35073 0.355147 0.319208 0.36035 0.348499 0.397693 0.324758 0.355147 0.319208 0.372318 0.35073 0.719688 0.059111 0.72705 0.046441 0.710491 0.049752 0.957352 0.375468 0.989267 0.376239 0.96551 0.470548 0.572487 0.78082 0.509648 0.69587 0.581549 0.795021 0.582446 0.770238 0.572487 0.78082 0.509648 0.69587 0.620002 0.370589 0.621664 0.360136 0.614991 0.39685 0.627957 0.375966 0.620002 0.370589 0.614991 0.39685 0.513565 0.649024 0.519039 0.609418 0.582446 0.770238 0.513565 0.649024 0.582446 0.770238 0.516768 0.685769 0.516768 0.685769 0.582446 0.770238 0.509648 0.69587 0.582446 0.770238 0.519039 0.609418 0.589041 0.781843 0.792124 0.3629 0.80856 0.369554 0.799077 0.390209 0.042729 0.971662 0.038435 0.957329 0.022686 0.966097 0.962391 0.725934 0.958055 0.719613 0.982165 0.731416 0.96526 0.69783 0.982165 0.731416 0.959164 0.636723 0.984603 0.834105 0.961862 0.730703 0.982165 0.731416 0.959164 0.636723 0.96787 0.638327 0.982165 0.731416 0.962098 0.84432 0.961862 0.730703 0.984603 0.834105 0.316879 0.201007 0.323934 0.219111 0.353379 0.146919 0.323934 0.219111 0.357413 0.149825 0.353379 0.146919 0.303313 0.164647 0.28045 0.136517 0.275189 0.15027 0.876224 0.310373 0.879404 0.307935 0.879404 0.312444 0.720419 0.390473 0.717443 0.288054 0.73229 0.39566 0.717443 0.288054 0.733028 0.298496 0.73229 0.39566 0.367805 0.157862 0.381259 0.163327 0.390857 0.164732 0.304167 0.145601 0.277909 0.061266 0.28045 0.136517 0.09835 0.627038 0.209006 0.638199 0.112207 0.637872 0.09835 0.627038 0.238826 0.619952 0.209006 0.638199 0.173356 0.485475 0.238826 0.619952 0.09835 0.627038 0.173356 0.485475 0.230288 0.478189 0.238826 0.619952 0.303527 0.31986 0.295101 0.327805 0.29228 0.304926 0.046679 0.621024 0.09835 0.627038 0.060014 0.629359 0.046679 0.621024 0.173356 0.485475 0.09835 0.627038 0.091976 0.146299 0.071503 0.163362 0.09221 0.163234 0.09221 0.163234 0.104488 0.163396 0.091976 0.146299 0.581361 0.073497 0.58306 0.164423 0.602593 0.053669 0.938932 0.844092 0.933929 0.7289 0.88204 0.771966 0.444998 0.098372 0.483081 0.115831 0.487946 0.10389 0.451103 0.085773 0.444998 0.098372 0.487946 0.10389 0.75026 0.870768 0.767395 0.833968 0.763657 0.884478 0.767395 0.833968 0.779122 0.842266 0.763657 0.884478 0.58306 0.164423 0.60515 0.159204 0.602593 0.053669 0.691486 0.307973 0.708996 0.382919 0.689479 0.386321 0.980835 0.906227 0.961432 0.93764 0.974496 0.888198 0.741427 0.858558 0.767395 0.833968 0.75026 0.870768 0.741427 0.858558 0.761789 0.813673 0.767395 0.833968 0.961432 0.93764 0.980835 0.906227 0.982011 0.934044 0.106587 0.145776 0.103513 0.138148 0.091976 0.146299 0.106587 0.145776 0.091976 0.146299 0.105623 0.151998 0.691486 0.307973 0.709231 0.316458 0.708996 0.382919 0.095996 0.130727 0.09808 0.061782 0.091976 0.146299 0.091976 0.146299 0.09808 0.061782 0.06971 0.142494 0.323934 0.219111 0.138582 0.147014 0.12422 0.15849 0.091976 0.146299 0.06971 0.142494 0.070539 0.154177 0.980835 0.906227 0.974496 0.888198 0.980644 0.894837 0.09808 0.061782 0.073115 0.040168 0.06971 0.142494 0.277909 0.061266 0.073115 0.040168 0.09808 0.061782 0.718321 0.549849 0.697156 0.54589 0.764184 0.498669 0.259904 0.352779 0.259433 0.464217 0.194436 0.463503 0.951047 0.039458 0.938438 0.133789 0.966328 0.10896 0.996933 0.044972 0.951047 0.039458 0.966328 0.10896 0.998635 0.107937 0.966328 0.10896 0.996919 0.2697 0.589429 0.440495 0.60235 0.351405 0.602115 0.435545 0.84907 0.257987 0.665375 0.252665 0.657924 0.240789 0.60703 0.1877 0.598978 0.17103 0.402044 0.183922 0.412569 0.171062 0.402044 0.183922 0.598978 0.17103 0.657924 0.240789 0.859259 0.23993 0.84907 0.257987 0.739937 0.478968 0.739781 0.478214 0.739135 0.479261 0.603326 0.045088 0.603633 0.04701 0.604488 0.045861 0.276428 0.465873 0.275693 0.466476 0.275494 0.465045 0.739781 0.478214 0.738482 0.478752 0.739135 0.479261 0.950881 0.725509 0.952149 0.747842 0.952415 0.724826 0.878941 0.606083 0.880763 0.634231 0.880483 0.606557 0.603633 0.04701 0.466809 0.045559 0.603326 0.045088 0.941267 0.27383 0.938438 0.133789 0.939657 0.27271 0.941267 0.27383 0.937718 0.27466 0.996919 0.2697 0.941267 0.27383 0.939693 0.273754 0.937718 0.27466 0.937436 0.610813 0.878941 0.606083 0.880483 0.606557 0.966328 0.10896 0.941267 0.27383 0.996919 0.2697 0.966328 0.10896 0.938438 0.133789 0.941267 0.27383 0.939691 0.710476 0.880763 0.634231 0.933929 0.7289 0.880763 0.634231 0.88204 0.771966 0.933929 0.7289 0.882379 0.607324 0.880665 0.612031 0.880763 0.634231 0.880483 0.606557 0.882379 0.607324 0.937436 0.610813 0.937436 0.610813 0.882379 0.607324 0.880763 0.634231 0.937436 0.610813 0.880763 0.634231 0.939691 0.710476 0.215058 0.830518 0.195609 0.849112 0.265958 0.833616 0.215058 0.830518 0.111217 0.856833 0.195609 0.849112 0.195609 0.849112 0.111217 0.856833 0.148145 0.898391 0.358187 0.630721 0.351564 0.639191 0.302996 0.638146 0.082525 0.849159 0.001198 0.824341 0.098851 0.862868 0.040378 0.822131 0.001198 0.824341 0.082525 0.849159 0.111217 0.856833 0.082525 0.849159 0.098851 0.862868 0.412867 0.146825 0.40309 0.142696 0.40663 0.11004 0.154382 0.821877 0.215058 0.830518 0.2024 0.823758 0.215058 0.830518 0.154382 0.821877 0.111217 0.856833 0.40663 0.11004 0.409824 0.090847 0.412867 0.146825 0.111217 0.856833 0.058711 0.937866 0.122881 0.901374 0.098851 0.862868 0.058711 0.937866 0.111217 0.856833 0.86528 0.804017 0.874397 0.982989 0.864946 0.976354 0.698295 0.572416 0.697974 0.756214 0.689008 0.572698 0.619804 0.058868 0.628863 0.058727 0.620601 0.243607 0.686827 0.82574 0.86528 0.804017 0.696241 0.800815 0.01815 0.471347 0.046679 0.621024 0.019695 0.637948 0.86528 0.804017 0.874541 0.795943 0.874397 0.982989 0.686827 0.82574 0.874541 0.795943 0.86528 0.804017 0.486024 0.824007 0.457742 0.84506 0.48529 0.903641 0.686827 0.82574 0.696241 0.800815 0.691827 0.893061 0.691827 0.893061 0.696241 0.800815 0.691845 0.880124 0.741434 0.158134 0.745077 0.174522 0.736177 0.177559 0.710792 0.166751 0.741434 0.158134 0.718305 0.17294 0.93927 0.982324 0.955232 0.885343 0.947373 0.985408 0.712969 0.681157 0.713679 0.702698 0.706011 0.698325 0.701229 0.158623 0.715169 0.14881 0.741434 0.158134 0.717912 0.144395 0.723088 0.130985 0.740727 0.147054 0.717912 0.144395 0.740727 0.147054 0.741434 0.158134 0.719285 0.128699 0.742579 0.117952 0.740727 0.147054 0.589429 0.440495 0.584776 0.357499 0.60235 0.351405 0.186191 0.120216 0.201777 0.131666 0.184651 0.13946 0.720992 0.218459 0.74509 0.193061 0.654018 0.19616 0.663523 0.213801 0.720992 0.218459 0.654018 0.19616 0.487946 0.10389 0.487517 0.087019 0.451103 0.085773 0.75026 0.870768 0.748184 0.915927 0.731109 0.889324 0.75026 0.870768 0.763657 0.884478 0.748184 0.915927 0.723575 0.905651 0.731109 0.889324 0.748184 0.915927 0.790953 0.853532 0.799318 0.860692 0.790058 0.875243 0.790953 0.853532 0.797652 0.854926 0.799318 0.860692 0.673927 0.303031 0.660517 0.312256 0.674683 0.268766 0.748184 0.915927 0.779236 0.930701 0.750605 0.936755 0.748184 0.915927 0.763657 0.884478 0.779236 0.930701 0.871264 0.259418 0.875478 0.056942 0.872818 0.282407 0.872818 0.282407 0.875478 0.056942 0.875698 0.282204 0.002949 0.213993 0.067861 0.211171 0.002435 0.215693 0.867275 0.078086 0.871783 0.048753 0.873155 0.050053 0.871264 0.259418 0.871088 0.116459 0.875478 0.056942 0.348755 0.645011 0.322995 0.644108 0.361174 0.643426 0.86888 0.582831 0.85253 0.527996 0.8701 0.581732 0.871088 0.116459 0.87287 0.051012 0.875478 0.056942 0.016114 0.374925 0.095426 0.46378 0.016041 0.464482 0.358187 0.630721 0.445788 0.485311 0.405587 0.617882 0.405587 0.617882 0.445788 0.485311 0.424114 0.612907 0.358187 0.630721 0.405587 0.617882 0.395782 0.634097 0.455491 0.637568 0.438796 0.617544 0.445788 0.485311 0.445788 0.485311 0.438796 0.617544 0.424114 0.612907 0.455491 0.637568 0.445788 0.485311 0.499138 0.637983 0.767387 0.591109 0.797406 0.61229 0.770607 0.619046 0.801548 0.540794 0.824114 0.524265 0.832163 0.532971 0.801548 0.540794 0.799988 0.522645 0.824114 0.524265 0.824114 0.524265 0.799988 0.522645 0.808361 0.508909 0.824114 0.524265 0.827089 0.488653 0.832163 0.532971 0.808361 0.508909 0.827089 0.488653 0.824114 0.524265 0.224028 0.821284 0.215058 0.830518 0.265958 0.833616 0.49891 0.947659 0.487599 0.966236 0.491199 0.991006 0.28184 0.633442 0.230288 0.478189 0.291787 0.636682 0.230288 0.478189 0.28184 0.633442 0.257993 0.631753 0.230288 0.478189 0.257993 0.631753 0.238826 0.619952 0.474987 0.95038 0.487599 0.966236 0.491721 0.948355 0.491721 0.948355 0.487599 0.966236 0.49891 0.947659 0.230288 0.478189 0.358187 0.630721 0.302996 0.638146 0.230288 0.478189 0.302996 0.638146 0.291787 0.636682 0.581549 0.795021 0.679985 0.992153 0.578428 0.950502 0.511455 0.928079 0.557146 0.936453 0.542382 0.948626 0.581549 0.795021 0.578428 0.950502 0.559677 0.861833 0.559677 0.861833 0.578428 0.950502 0.557146 0.936453 0.509648 0.69587 0.557146 0.936453 0.511455 0.928079 0.553566 0.942198 0.569579 0.959782 0.554174 0.966062 0.554174 0.966062 0.578428 0.950502 0.679985 0.992153 0.569579 0.959782 0.578428 0.950502 0.554174 0.966062 0.553566 0.942198 0.554174 0.966062 0.542382 0.948626 0.578428 0.950502 0.569579 0.959782 0.553566 0.942198 0.762089 0.017495 0.741961 0.010163 0.748749 0.027654 0.730296 0.009325 0.717634 0.010914 0.722497 0.022734 0.86257 0.373651 0.923202 0.443846 0.916181 0.459216 0.866873 0.497604 0.916181 0.459216 0.926358 0.573943 0.86257 0.373651 0.916181 0.459216 0.866873 0.497604 0.926358 0.573943 0.916181 0.459216 0.927479 0.493274 0.37275 0.052966 0.390857 0.164732 0.393627 0.07452 0.367805 0.157862 0.390857 0.164732 0.37275 0.052966 0.873155 0.050053 0.873121 0.050229 0.875478 0.056942 0.87287 0.051012 0.873121 0.050229 0.875478 0.056942 0.873155 0.050053 0.871783 0.048753 0.929606 0.051493 0.8701 0.581732 0.926358 0.573943 0.86888 0.582831 0.871695 0.579751 0.871254 0.55249 0.890243 0.570766 0.875478 0.056942 0.873155 0.050053 0.929606 0.051493 0.869593 0.559878 0.869853 0.579445 0.87023 0.57971 0.87023 0.57971 0.871254 0.55249 0.871695 0.579751 0.840223 0.919994 0.841462 0.854472 0.841358 0.920806 0.869593 0.559878 0.871254 0.55249 0.87023 0.57971 0.505938 0.472278 0.499138 0.637983 0.445788 0.485311 0.455028 0.4732 0.505938 0.472278 0.445788 0.485311 0.450931 0.977678 0.470812 0.986447 0.471568 0.972389 0.747948 0.758258 0.73366 0.743175 0.753141 0.732528 0.73366 0.743175 0.731863 0.722651 0.753141 0.732528 0.358187 0.630721 0.425274 0.492114 0.445788 0.485311 0.408077 0.485203 0.425274 0.492114 0.358187 0.630721 0.747948 0.758258 0.733697 0.758317 0.73366 0.743175 0.358187 0.630721 0.398583 0.473437 0.408077 0.485203 0.661357 0.570036 0.65717 0.588729 0.519039 0.609418 0.65717 0.588729 0.681365 0.613815 0.519039 0.609418 0.680214 0.504336 0.672423 0.558231 0.661357 0.570036 0.680214 0.504336 0.661357 0.570036 0.519039 0.609418 0.750605 0.936755 0.779236 0.930701 0.766098 0.941055 0.660517 0.312256 0.665375 0.252665 0.674683 0.268766 0.750605 0.936755 0.766098 0.941055 0.734948 0.955296 0.498357 0.810755 0.456457 0.782102 0.47985 0.810635 0.498357 0.810755 0.492173 0.736956 0.456457 0.782102 0.665375 0.252665 0.691542 0.267584 0.674683 0.268766 0.84907 0.257987 0.691542 0.267584 0.665375 0.252665 0.84907 0.257987 0.860803 0.452062 0.848744 0.405706 0.56068 0.480162 0.593948 0.4819 0.526651 0.48065 0.848744 0.405706 0.838764 0.273347 0.84907 0.257987 0.838764 0.273347 0.691542 0.267584 0.84907 0.257987 0.456457 0.782102 0.492173 0.736956 0.464906 0.763058 0.492173 0.736956 0.448025 0.762675 0.464906 0.763058 0.495547 0.645483 0.448025 0.762675 0.492173 0.736956 0.186191 0.120216 0.21458 0.109014 0.201777 0.131666 0.787054 0.897545 0.796097 0.897692 0.791911 0.918702 0.211899 0.094564 0.21458 0.109014 0.186191 0.120216 0.796097 0.897692 0.798254 0.915745 0.791911 0.918702 0.260286 0.234791 0.259904 0.352779 0.259881 0.230266 0.259904 0.352779 0.095426 0.46378 0.103547 0.232171 0.217088 0.230305 0.259904 0.352779 0.103547 0.232171 0.259904 0.352779 0.217088 0.230305 0.259881 0.230266 0.392521 0.823603 0.3005 0.825288 0.289751 0.828389 0.238826 0.619952 0.236181 0.631194 0.209006 0.638199 0.238108 0.641768 0.209006 0.638199 0.236181 0.631194 0.408298 0.845288 0.289751 0.828389 0.437811 0.863475 0.078721 0.007246 0.089763 0.01755 0.051431 0.024988 0.401033 0.833393 0.289751 0.828389 0.408298 0.845288 0.398341 0.928966 0.297468 0.948767 0.336735 0.942675 0.289751 0.828389 0.297468 0.948767 0.398341 0.928966 0.437811 0.863475 0.398341 0.928966 0.48529 0.903641 0.095426 0.46378 0.016144 0.230065 0.103547 0.232171 0.036569 0.230115 0.103547 0.232171 0.016144 0.230065 0.817126 0.400091 0.819038 0.320807 0.821392 0.410462 0.859318 0.339556 0.917916 0.341433 0.86257 0.373651 0.30071 0.040638 0.073115 0.040168 0.277909 0.061266 0.86257 0.373651 0.917916 0.341433 0.923202 0.443846 0.30071 0.040638 0.277909 0.061266 0.304167 0.145601 0.30052 0.67902 0.306109 0.646195 0.198142 0.727436 0.509648 0.69587 0.581549 0.795021 0.559677 0.861833 0.36077 0.725049 0.339645 0.658718 0.30052 0.67902 0.373983 0.727863 0.339645 0.658718 0.36077 0.725049 0.36077 0.725049 0.30052 0.67902 0.327867 0.793823 0.36077 0.725049 0.327867 0.793823 0.373983 0.727863 0.495547 0.645483 0.400241 0.657354 0.448025 0.762675 0.398583 0.473437 0.358187 0.630721 0.264695 0.472809 0.731863 0.722651 0.739155 0.708236 0.753141 0.732528 0.589041 0.781843 0.681365 0.613815 0.680583 0.745556 0.681365 0.613815 0.589041 0.781843 0.519039 0.609418 0.30052 0.67902 0.339645 0.658718 0.306109 0.646195 0.519039 0.609418 0.513565 0.649024 0.51253 0.620582 0.620002 0.370589 0.627957 0.375966 0.621664 0.360136 0.448025 0.762675 0.339645 0.658718 0.373983 0.727863 0.38145 0.649291 0.35541 0.649705 0.339645 0.658718 0.448025 0.762675 0.400241 0.657354 0.38145 0.649291 0.840927 0.951274 0.822536 0.954374 0.825114 0.966877 0.38145 0.649291 0.339645 0.658718 0.448025 0.762675 0.510083 0.504468 0.519039 0.609418 0.510475 0.597472 0.510083 0.504468 0.680214 0.504336 0.519039 0.609418 0.104123 0.956575 0.078148 0.974372 0.108742 0.992439 0.226283 0.94828 0.104123 0.956575 0.108742 0.992439 0.226283 0.94828 0.147421 0.987772 0.170396 0.979178 0.244611 0.225768 0.252076 0.222024 0.225565 0.220943 0.390436 0.812157 0.334989 0.809922 0.356473 0.814211 0.390436 0.812157 0.373983 0.727863 0.334989 0.809922 0.226283 0.94828 0.108742 0.992439 0.139574 0.989129 0.373983 0.727863 0.327867 0.793823 0.334989 0.809922 0.986963 0.632811 0.977331 0.628446 0.980626 0.608399 0.104123 0.956575 0.071494 0.957608 0.078148 0.974372 0.981253 0.987194 0.989035 0.969532 0.979524 0.973237 0.170396 0.979178 0.147421 0.987772 0.160212 0.989656 0.226283 0.94828 0.170396 0.979178 0.188539 0.992184 0.634606 0.290272 0.64503 0.304146 0.654782 0.288965 0.689008 0.572698 0.697974 0.756214 0.688933 0.757354 0.871581 0.324304 0.871518 0.331355 0.972368 0.324337 0.620601 0.243607 0.628863 0.058727 0.628834 0.243322 0.972368 0.324337 0.871518 0.331355 0.972827 0.33331 0.459557 0.932892 0.464253 0.932185 0.467196 0.938521 0.699729 0.139696 0.666929 0.144544 0.691809 0.134822 0.331724 0.374662 0.333785 0.379297 0.330989 0.382629 0.666929 0.144544 0.678751 0.116884 0.691809 0.134822 0.698477 0.911074 0.703315 0.940366 0.698811 0.939247 0.559677 0.861833 0.557146 0.936453 0.509648 0.69587 0.542382 0.948626 0.554174 0.966062 0.512211 0.992756 0.512211 0.992756 0.511455 0.928079 0.542382 0.948626 0.306109 0.646195 0.067791 0.645985 0.198142 0.727436 0.198142 0.727436 0.067791 0.645985 0.008512 0.645641 0.204782 0.81367 0.198142 0.727436 0.103853 0.809377 0.786543 0.502384 0.718321 0.549849 0.764184 0.498669 0.785316 0.725105 0.769275 0.728405 0.718321 0.549849 0.848744 0.405706 0.677052 0.482077 0.684675 0.473563 0.848744 0.405706 0.860803 0.452062 0.677052 0.482077 0.259904 0.352779 0.194436 0.463503 0.095426 0.46378 0.871549 0.283249 0.875698 0.282204 0.870544 0.284305 0.016144 0.230065 0.095426 0.46378 0.016114 0.374925 0.589041 0.781843 0.680583 0.745556 0.672046 0.768803 0.589041 0.781843 0.665846 0.835701 0.581549 0.795021 0.581549 0.795021 0.665846 0.835701 0.678977 0.852306 0.158723 0.472903 0.046679 0.621024 0.01815 0.471347 0.158723 0.472903 0.173356 0.485475 0.046679 0.621024 0.581549 0.795021 0.678977 0.852306 0.679985 0.992153 0.194655 0.472211 0.230288 0.478189 0.173356 0.485475 0.672046 0.768803 0.678985 0.790088 0.665846 0.835701 0.589041 0.781843 0.672046 0.768803 0.665846 0.835701 0.678985 0.790088 0.678807 0.817455 0.665846 0.835701 0.308501 0.813204 0.327867 0.793823 0.242082 0.812965 0.629164 0.464449 0.635153 0.476986 0.642602 0.467774 0.788712 0.41005 0.780695 0.403847 0.788266 0.390868 0.204782 0.81367 0.222601 0.798633 0.198142 0.727436 0.242082 0.812965 0.327867 0.793823 0.222601 0.798633 0.642602 0.467774 0.635153 0.476986 0.656572 0.476787 0.67597 0.182206 0.68635 0.17269 0.66662 0.173004 0.018809 0.175287 0.026588 0.002027 0.027372 0.176906 0.018809 0.175287 0.018357 0.003 0.026588 0.002027 0.512211 0.992756 0.554174 0.966062 0.679985 0.992153 0.080862 0.802618 0.008512 0.645641 0.036799 0.813781 0.036799 0.813781 0.008512 0.645641 0.008377 0.810905 0.718881 0.087558 0.742579 0.117952 0.719285 0.128699 0.743648 0.085693 0.742579 0.117952 0.718881 0.087558 0.702384 0.98345 0.864946 0.976354 0.874397 0.982989 0.073251 0.810793 0.080862 0.802618 0.036799 0.813781 0.103853 0.809377 0.008512 0.645641 0.080862 0.802618 0.198142 0.727436 0.008512 0.645641 0.103853 0.809377 0.44411 0.827912 0.415346 0.821902 0.412734 0.839116 0.44411 0.827912 0.412734 0.839116 0.457742 0.84506 0.412734 0.839116 0.427805 0.850229 0.457742 0.84506 0.700447 0.506294 0.713171 0.517107 0.725608 0.50593 0.460328 0.822351 0.44411 0.827912 0.457742 0.84506 0.457742 0.84506 0.437811 0.863475 0.48529 0.903641 0.786567 0.950238 0.752644 0.956963 0.770071 0.961321 0.264695 0.472809 0.358187 0.630721 0.230288 0.478189 0.195609 0.849112 0.148145 0.898391 0.226283 0.94828 0.104123 0.956575 0.226283 0.94828 0.148145 0.898391 0.111217 0.856833 0.104123 0.956575 0.148145 0.898391 0.289751 0.828389 0.277315 0.939762 0.297468 0.948767 0.289751 0.828389 0.195609 0.849112 0.226283 0.94828 0.330172 0.09961 0.340323 0.104247 0.331356 0.118317 0.270853 0.9782 0.188539 0.992184 0.245478 0.983473 0.270853 0.9782 0.226283 0.94828 0.188539 0.992184 0.277315 0.939762 0.226283 0.94828 0.282706 0.954152 0.282706 0.954152 0.226283 0.94828 0.270853 0.9782 0.282706 0.954152 0.291104 0.991632 0.297431 0.960201 0.291104 0.991632 0.282706 0.954152 0.270853 0.9782 0.444331 0.788719 0.448025 0.762675 0.390436 0.812157 0.444331 0.788719 0.390436 0.812157 0.424385 0.80621 0.781509 0.21053 0.779001 0.199377 0.770661 0.206701 0.390436 0.812157 0.448025 0.762675 0.373983 0.727863 0.589041 0.781843 0.581549 0.795021 0.578236 0.788072 0.581588 0.774916 0.589041 0.781843 0.578236 0.788072 0.928254 0.279985 0.875478 0.056942 0.929606 0.051493 0.464906 0.763058 0.448025 0.762675 0.456457 0.782102 0.755712 0.311984 0.765728 0.339259 0.765108 0.363864 0.755712 0.311984 0.765108 0.363864 0.748456 0.315208 0.163947 0.135949 0.186191 0.120216 0.184651 0.13946 0.211899 0.094564 0.186191 0.120216 0.166091 0.096581 0.779001 0.199377 0.80825 0.201311 0.781509 0.21053 0.186191 0.120216 0.163947 0.135949 0.166091 0.096581 0.222601 0.798633 0.30052 0.67902 0.198142 0.727436 0.840921 0.417905 0.809127 0.417749 0.806816 0.420909 0.719285 0.128699 0.690458 0.113784 0.705564 0.098072 0.690458 0.113784 0.693128 0.093131 0.705564 0.098072 0.449086 0.921472 0.398341 0.928966 0.433752 0.945968 0.848195 0.653283 0.842976 0.677344 0.834423 0.661965 0.48529 0.903641 0.398341 0.928966 0.449086 0.921472 0.666929 0.144544 0.667564 0.125595 0.674742 0.130867 0.838426 0.599594 0.850808 0.606562 0.850129 0.583188 0.695122 0.17358 0.697705 0.178995 0.703839 0.17363 0.655007 0.400067 0.660749 0.395198 0.667272 0.447424 0.001198 0.824341 0.001032 0.86682 0.033816 0.886348 0.033816 0.886348 0.004348 0.908759 0.02699 0.926597 0.033816 0.886348 0.02699 0.926597 0.058711 0.937866 0.058711 0.937866 0.02699 0.926597 0.038484 0.945547 0.684675 0.473563 0.667272 0.447424 0.660749 0.395198 0.792917 0.71952 0.806077 0.747678 0.800015 0.707328 0.40789 0.936804 0.415732 0.952961 0.423194 0.936549 0.829999 0.709225 0.806077 0.747678 0.845956 0.730029 0.323934 0.219111 0.316879 0.201007 0.138582 0.147014 0.64503 0.304146 0.649638 0.310919 0.654782 0.288965 0.322951 0.254129 0.305746 0.244612 0.306319 0.255156 0.241667 0.070799 0.238023 0.085997 0.217646 0.078738 0.797406 0.61229 0.796187 0.646148 0.770607 0.619046 0.770607 0.619046 0.796187 0.646148 0.77437 0.641084 0.769275 0.728405 0.697156 0.54589 0.718321 0.549849 0.222601 0.798633 0.327867 0.793823 0.30052 0.67902 0.602593 0.053669 0.37275 0.052966 0.393627 0.07452 0.398341 0.928966 0.363605 0.962886 0.401044 0.972776 0.095297 0.815575 0.080862 0.802618 0.073251 0.810793 0.393627 0.07452 0.581361 0.073497 0.602593 0.053669 0.627957 0.375966 0.614991 0.39685 0.616866 0.406072 0.790058 0.875243 0.796097 0.897692 0.787054 0.897545 0.297468 0.948767 0.301198 0.977197 0.363605 0.962886 0.88204 0.771966 0.881361 0.84856 0.938932 0.844092 0.319647 0.050533 0.325275 0.075457 0.316579 0.076547 0.401044 0.972776 0.353169 0.99897 0.400525 0.980796 0.401044 0.972776 0.363605 0.962886 0.353169 0.99897 0.875478 0.056942 0.928254 0.279985 0.875698 0.282204 0.770568 0.363559 0.765108 0.363864 0.765728 0.339259 0.838031 0.688715 0.842976 0.677344 0.843531 0.695044 0.521069 0.103373 0.522686 0.103547 0.521824 0.104495 0.040021 0.064276 0.040981 0.064027 0.042392 0.0643 0.041292 0.094979 0.040021 0.064276 0.042392 0.0643 0.881361 0.84856 0.879821 0.849677 0.938932 0.844092 0.870544 0.284305 0.875698 0.282204 0.928254 0.279985 0.582891 0.331988 0.597837 0.314178 0.604488 0.334869 0.880312 0.837039 0.879821 0.849677 0.881361 0.84856 0.852951 0.723978 0.854772 0.735892 0.853408 0.736462 0.039995 0.077281 0.039297 0.06488 0.040021 0.064276 0.039995 0.077281 0.041292 0.094979 0.040021 0.064276</float_array>
          <technique_common>
            <accessor source="#Column1-mesh-map-0-array" count="1494" stride="2">
              <param name="S" type="float"/>
              <param name="T" type="float"/>
            </accessor>
          </technique_common>
        </source>
        <vertices id="Column1-mesh-vertices">
          <input semantic="POSITION" source="#Column1-mesh-positions"/>
        </vertices>
        <polylist material="Material_-1-material" count="6">
          <input semantic="VERTEX" source="#Column1-mesh-vertices" offset="0"/>
          <input semantic="NORMAL" source="#Column1-mesh-normals" offset="1"/>
          <input semantic="TEXCOORD" source="#Column1-mesh-map-0" offset="2" set="0"/>
          <vcount>3 3 3 3 3 3 3 3 3 3 3 3 3 3 3 3 3 3 3 3 3 3 3 3 3 3 3 3 3 3 3 3 3 3 3 3 3 3 3 3 3 3 3 3 3 3 3 3 3 3 3 3 3 3 3 3 3 3 3 3 3 3 3 3 3 3 3 3 3 3 3 3 3 3 3 3 3 3 3 3 3 3 3 3 3 3 3 3 3 3 3 3 3 3 3 3 3 3 3 3 3 3 3 3 3 3 3 3 3 3 3 3 3 3 3 3 3 3 3 3 3 3 3 3 3 3 3 3 3 3 3 3 3 3 3 3 3 3 3 3 3 3 3 3 3 3 3 3 3 3 3 3 3 3 3 3 3 3 3 3 3 3 3 3 3 3 3 3 3 3 3 3 3 3 3 3 3 3 3 3 3 3 3 3 3 3 3 3 3 3 3 3 3 3 3 3 3 3 3 3 3 3 3 3 3 3 3 3 3 3 3 3 3 3 3 3 3 3 3 3 3 3 3 3 3 3 3 3 3 3 3 3 3 3 3 3 3 3 3 3 3 3 3 3 3 3 3 3 3 3 3 3 3 3 3 3 3 3 3 3 3 3 3 3 3 3 3 3 3 3 3 3 3 3 3 3 3 3 3 3 3 3 3 3 3 3 3 3 3 3 3 3 3 3 3 3 3 3 3 3 3 3 3 3 3 3 3 3 3 3 3 3 3 3 3 3 3 3 3 3 3 3 3 3 3 3 3 3 3 3 3 3 3 3 3 3 3 3 3 3 3 3 3 3 3 3 3 3 3 3 3 3 3 3 3 3 3 3 3 3 3 3 3 3 3 3 3 3 3 3 3 3 3 3 3 3 3 3 3 3 3 3 3 3 3 3 3 3 3 3 3 3 3 3 3 3 3 3 3 3 3 3 3 3 3 3 3 3 3 3 3 3 3 3 3 3 3 3 3 3 3 3 3 3 3 3 3 3 3 3 3 3 3 3 3 3 3 3 3 3 3 3 3 3 3 3 3 3 3 3 3 3 3 3 3 3 3 3 3 3 3 3 3 3 3 3 3 3 3 3 3 3 3 3 3 3 3 3 3 3 3 3 3 3 3 3 3 3 3 3 3 3 3 3 3 3 3 3</vcount>
          <p>0 0 0 1 0 1 2 0 2 1 1 3 0 1 4 3 1 5 3 2 6 0 2 7 4 2 8 5 3 9 6 3 10 2 3 11 2 4 12 6 4 13 0 4 14 6 5 15 4 5 16 0 5 17 4 6 18 6 6 19 3 6 20 7 7 21 8 7 22 6 7 23 5 8 24 7 8 25 6 8 26 8 9 27 9 9 28 10 9 29 11 10 30 1 10 31 3 10 32 12 11 33 11 11 34 3 11 35 6 12 36 12 12 37 3 12 38 8 13 39 10 13 40 6 13 41 13 14 42 14 14 43 15 14 44 13 15 45 15 15 46 12 15 47 9 16 48 12 16 49 10 16 50 6 17 51 10 17 52 12 17 53 9 18 54 13 18 55 12 18 56 13 19 57 9 19 58 16 19 59 17 20 60 13 20 61 18 20 62 16 21 63 18 21 64 13 21 65 19 22 66 20 22 67 21 22 68 21 23 69 20 23 70 5 23 71 5 24 72 20 24 73 7 24 74 19 25 75 22 25 76 20 25 77 19 26 78 23 26 79 24 26 80 19 27 81 24 27 82 22 27 83 25 28 84 21 28 85 5 28 86 26 29 87 5 29 88 2 29 89 22 30 90 27 30 91 20 30 92 28 31 93 19 31 94 21 31 95 29 32 96 28 32 97 25 32 98 25 33 99 28 33 100 21 33 101 30 34 102 28 34 103 29 34 104 11 35 105 31 35 106 1 35 107 31 36 108 29 36 109 1 36 110 31 37 111 32 37 112 29 37 113 26 38 114 25 38 115 5 38 116 29 39 117 25 39 118 26 39 119 1 40 120 29 40 121 26 40 122 1 41 123 26 41 124 2 41 125 15 42 126 33 42 127 11 42 128 11 43 129 12 43 130 15 43 131 14 44 132 34 44 133 35 44 134 36 45 135 28 45 136 30 45 137 36 46 138 30 46 139 37 46 140 38 47 141 39 47 142 23 47 143 39 48 144 38 48 145 40 48 146 40 49 147 38 49 148 41 49 149 38 50 150 36 50 151 41 50 152 23 51 153 28 51 154 38 51 155 28 52 156 36 52 157 38 52 158 7 53 159 27 53 160 42 53 161 20 54 162 27 54 163 7 54 164 43 55 165 24 55 166 39 55 167 27 56 168 22 56 169 43 56 170 22 57 171 24 57 172 43 57 173 24 58 174 23 58 175 39 58 176 27 59 177 44 59 178 42 59 179 44 60 180 27 60 181 43 60 182 45 61 183 46 61 184 30 61 185 47 62 186 34 62 187 17 62 188 34 63 189 13 63 190 17 63 191 13 64 192 34 64 193 14 64 194 32 65 195 45 65 196 30 65 197 29 66 198 32 66 199 30 66 200 46 67 201 37 67 202 30 67 203 37 68 204 46 68 205 47 68 206 47 69 207 17 69 208 48 69 209 17 70 210 49 70 211 48 70 212 37 71 213 47 71 214 48 71 215 41 72 216 49 72 217 50 72 218 49 73 219 17 73 220 18 73 221 41 74 222 36 74 223 49 74 224 49 75 225 36 75 226 48 75 227 36 76 228 37 76 229 48 76 230 35 77 231 34 77 232 51 77 233 7 78 234 42 78 235 8 78 236 43 79 237 39 79 238 40 79 239 52 80 240 43 80 241 40 80 242 18 81 243 40 81 244 41 81 245 52 82 246 40 82 247 18 82 248 18 83 249 41 83 250 50 83 251 44 84 252 43 84 253 8 84 254 43 85 255 52 85 256 8 85 257 42 86 258 44 86 259 8 86 260 8 87 261 52 87 262 9 87 263 9 88 264 18 88 265 16 88 266 52 89 267 18 89 268 9 89 269 18 90 270 50 90 271 49 90 272 19 91 273 28 91 274 23 91 275 54 92 276 53 92 277 55 92 278 56 93 279 54 93 280 53 93 281 57 94 282 58 94 283 59 94 284 60 95 285 57 95 286 59 95 287 58 96 288 61 96 289 56 96 290 58 97 291 56 97 292 59 97 293 59 98 294 56 98 295 53 98 296 56 99 297 61 99 298 62 99 299 63 100 300 64 100 301 65 100 302 65 101 303 66 101 304 67 101 305 67 102 306 63 102 307 65 102 308 64 103 309 65 103 310 68 103 311 69 104 312 66 104 313 65 104 314 68 105 315 70 105 316 65 105 317 71 106 318 66 106 319 69 106 320 72 107 321 68 107 322 63 107 323 68 108 324 64 108 325 63 108 326 73 109 327 63 109 328 67 109 329 74 110 330 63 110 331 73 110 332 75 111 333 67 111 334 71 111 335 67 112 336 66 112 337 71 112 338 76 113 339 73 113 340 67 113 341 74 114 342 72 114 343 63 114 344 77 115 345 78 115 346 79 115 347 77 116 348 80 116 349 78 116 350 81 117 351 80 117 352 77 117 353 81 118 354 82 118 355 80 118 356 77 119 357 79 119 358 83 119 359 84 120 360 77 120 361 85 120 362 84 121 363 81 121 364 77 121 365 86 122 366 87 122 367 88 122 368 88 123 369 89 123 370 86 123 371 90 124 372 88 124 373 91 124 374 91 125 375 87 125 376 92 125 377 93 126 378 89 126 379 88 126 380 94 127 381 93 127 382 88 127 383 95 128 384 96 128 385 93 128 386 96 129 387 89 129 388 93 129 389 88 130 390 87 130 391 91 130 392 97 131 393 98 131 394 99 131 395 100 132 396 98 132 397 101 132 398 101 133 399 96 133 400 95 133 401 101 134 402 98 134 403 96 134 404 98 135 405 100 135 406 99 135 407 96 136 408 98 136 409 86 136 410 96 137 411 86 137 412 89 137 413 97 138 414 102 138 415 98 138 416 98 139 417 102 139 418 86 139 419 86 140 420 102 140 421 103 140 422 68 141 423 102 141 424 97 141 425 86 142 426 103 142 427 87 142 428 100 143 429 101 143 430 104 143 431 102 144 432 105 144 433 103 144 434 72 145 435 105 145 436 102 145 437 106 146 438 97 146 439 99 146 440 107 147 441 108 147 442 109 147 443 108 148 444 107 148 445 110 148 446 111 149 447 108 149 448 110 149 449 111 150 450 110 150 451 105 150 452 112 151 453 88 151 454 90 151 455 69 152 456 113 152 457 112 152 458 112 153 459 90 153 460 71 153 461 75 154 462 71 154 463 90 154 464 112 155 465 71 155 466 69 155 467 115 156 468 114 156 469 116 156 470 117 157 471 114 157 472 118 157 473 116 158 474 115 158 475 117 158 476 114 159 477 118 159 478 116 159 479 117 160 480 119 160 481 118 160 482 120 161 483 119 161 484 118 161 485 114 162 486 107 162 487 117 162 488 115 163 489 107 163 490 117 163 491 115 164 492 120 164 493 105 164 494 115 165 495 114 165 496 120 165 497 105 166 498 120 166 499 118 166 500 110 167 501 115 167 502 105 167 503 110 168 504 107 168 505 115 168 506 103 169 507 119 169 508 87 169 509 119 170 510 92 170 511 87 170 512 116 171 513 117 171 514 119 171 515 118 172 516 116 172 517 105 172 518 105 173 519 116 173 520 119 173 521 105 174 522 119 174 523 103 174 524 121 175 525 122 175 526 123 175 527 121 176 528 124 176 529 122 176 530 122 177 531 124 177 532 125 177 533 126 178 534 127 178 535 128 178 536 129 179 537 130 179 538 131 179 539 132 180 540 130 180 541 129 180 542 124 181 543 129 181 544 131 181 545 127 182 546 126 182 547 133 182 548 127 183 549 121 183 550 128 183 551 121 184 552 127 184 553 124 184 554 133 185 555 124 185 556 127 185 557 124 186 558 134 186 559 135 186 560 131 187 561 134 187 562 124 187 563 136 188 564 137 188 565 138 188 566 139 189 567 140 189 568 45 189 569 139 190 570 45 190 571 137 190 572 140 191 573 136 191 574 141 191 575 136 192 576 84 192 577 141 192 578 136 193 579 139 193 580 137 193 581 140 194 582 139 194 583 136 194 584 141 195 585 142 195 586 143 195 587 140 196 588 141 196 589 51 196 590 51 197 591 141 197 592 143 197 593 33 198 594 31 198 595 11 198 596 14 199 597 33 199 598 15 199 599 33 200 600 32 200 601 31 200 602 144 201 603 14 201 604 35 201 605 14 202 606 144 202 607 33 202 608 144 203 609 145 203 610 146 203 611 144 204 612 146 204 613 33 204 614 145 205 615 147 205 616 146 205 617 112 206 618 148 206 619 88 206 620 149 207 621 150 207 622 151 207 623 94 208 624 148 208 625 112 208 626 113 209 627 94 209 628 112 209 629 88 210 630 148 210 631 94 210 632 95 211 633 150 211 634 152 211 635 95 212 636 93 212 637 150 212 638 153 213 639 152 213 640 150 213 641 104 214 642 95 214 643 152 214 644 104 215 645 101 215 646 95 215 647 93 216 648 94 216 649 154 216 650 150 217 651 154 217 652 151 217 653 150 218 654 93 218 655 154 218 656 155 219 657 156 219 658 157 219 659 157 220 660 156 220 661 158 220 662 160 221 663 159 221 664 161 221 665 159 222 666 162 222 667 160 222 668 155 223 669 159 223 670 156 223 671 155 224 672 159 224 673 163 224 674 162 225 675 164 225 676 165 225 677 159 226 678 161 226 679 156 226 680 159 227 681 164 227 682 162 227 683 126 228 684 166 228 685 167 228 686 167 229 687 166 229 688 168 229 689 126 230 690 167 230 691 169 230 692 132 231 693 170 231 694 166 231 695 166 232 696 170 232 697 168 232 698 132 233 699 166 233 700 130 233 701 126 234 702 169 234 703 133 234 704 167 235 705 171 235 706 129 235 707 167 236 708 168 236 709 171 236 710 171 237 711 168 237 712 170 237 713 171 238 714 132 238 715 129 238 716 170 239 717 132 239 718 171 239 719 172 240 720 121 240 721 123 240 722 123 241 723 173 241 724 172 241 725 172 242 726 82 242 727 121 242 728 82 243 729 172 243 730 173 243 731 82 244 732 173 244 733 80 244 734 80 245 735 173 245 736 174 245 737 174 246 738 173 246 739 123 246 740 82 247 741 126 247 742 128 247 743 82 248 744 128 248 745 121 248 746 55 249 747 136 249 748 175 249 749 176 250 750 177 250 751 178 250 752 55 251 753 175 251 754 179 251 755 179 252 756 175 252 757 177 252 758 53 253 759 177 253 760 176 253 761 177 254 762 180 254 763 181 254 764 181 255 765 175 255 766 136 255 767 180 256 768 175 256 769 181 256 770 177 257 771 181 257 772 178 257 773 175 258 774 180 258 775 177 258 776 182 259 777 183 259 778 81 259 779 183 260 780 184 260 781 81 260 782 109 261 783 74 261 784 73 261 785 185 262 786 73 262 787 186 262 788 109 263 789 73 263 790 185 263 791 186 264 792 73 264 793 76 264 794 186 265 795 67 265 796 75 265 797 76 266 798 67 266 799 186 266 800 160 267 801 165 267 802 156 267 803 161 268 804 165 268 805 156 268 806 160 269 807 162 269 808 186 269 809 165 270 810 186 270 811 162 270 812 165 271 813 185 271 814 186 271 815 156 272 816 160 272 817 186 272 818 164 273 819 160 273 820 161 273 821 161 274 822 185 274 823 165 274 824 165 275 825 164 275 826 160 275 827 164 276 828 185 276 829 161 276 830 187 277 831 130 277 832 166 277 833 188 278 834 187 278 835 166 278 836 189 279 837 188 279 838 166 279 839 189 280 840 190 280 841 191 280 842 190 281 843 192 281 844 191 281 845 126 282 846 190 282 847 166 282 848 192 283 849 190 283 850 126 283 851 189 284 852 166 284 853 190 284 854 126 285 855 193 285 856 192 285 857 189 286 858 191 286 859 61 286 860 191 287 861 193 287 862 61 287 863 187 288 864 188 288 865 189 288 866 187 289 867 189 289 868 61 289 869 151 290 870 154 290 871 194 290 872 94 291 873 113 291 874 154 291 875 151 292 876 194 292 877 195 292 878 154 293 879 195 293 880 194 293 881 154 294 882 196 294 883 195 294 884 113 295 885 196 295 886 154 295 887 69 296 888 196 296 889 113 296 890 69 297 891 70 297 892 187 297 893 65 298 894 69 298 895 70 298 896 187 299 897 197 299 898 69 299 899 197 300 900 196 300 901 69 300 902 195 301 903 196 301 904 198 301 905 196 302 906 199 302 907 198 302 908 197 303 909 199 303 910 196 303 911 149 304 912 153 304 913 150 304 914 200 305 915 153 305 916 134 305 917 201 306 918 153 306 919 149 306 920 153 307 921 201 307 922 134 307 923 114 308 924 107 308 925 120 308 926 107 309 927 164 309 928 92 309 929 119 310 930 107 310 931 92 310 932 107 311 933 119 311 934 120 311 935 79 312 936 78 312 937 123 312 938 80 313 939 174 313 940 78 313 941 123 314 942 78 314 943 174 314 944 83 315 945 123 315 946 202 315 947 202 316 948 123 316 949 203 316 950 79 317 951 123 317 952 83 317 953 203 318 954 204 318 955 205 318 956 123 319 957 204 319 958 203 319 959 202 320 960 203 320 961 143 320 962 164 321 963 163 321 964 92 321 965 206 322 966 92 322 967 163 322 968 164 323 969 109 323 970 185 323 971 108 324 972 111 324 973 109 324 974 111 325 975 105 325 976 72 325 977 109 326 978 111 326 979 74 326 980 111 327 981 72 327 982 74 327 983 207 328 984 53 328 985 208 328 986 53 329 987 55 329 988 179 329 989 209 330 990 60 330 991 207 330 992 210 331 993 60 331 994 209 331 995 209 332 996 207 332 997 211 332 998 209 333 999 211 333 1000 210 333 1001 197 334 1002 212 334 1003 199 334 1004 193 335 1005 126 335 1006 213 335 1007 192 336 1008 193 336 1009 191 336 1010 62 337 1011 193 337 1012 213 337 1013 193 338 1014 62 338 1015 61 338 1016 207 339 1017 60 339 1018 53 339 1019 61 340 1020 58 340 1021 214 340 1022 57 341 1023 60 341 1024 58 341 1025 199 342 1026 60 342 1027 210 342 1028 214 343 1029 58 343 1030 60 343 1031 199 344 1032 212 344 1033 214 344 1034 212 345 1035 61 345 1036 214 345 1037 214 346 1038 60 346 1039 199 346 1040 197 347 1041 61 347 1042 212 347 1043 197 348 1044 187 348 1045 61 348 1046 135 349 1047 215 349 1048 216 349 1049 217 350 1050 135 350 1051 216 350 1052 217 351 1053 218 351 1054 219 351 1055 215 352 1056 220 352 1057 216 352 1058 216 353 1059 221 353 1060 218 353 1061 216 354 1062 210 354 1063 221 354 1064 217 355 1065 216 355 1066 218 355 1067 210 356 1068 211 356 1069 221 356 1070 135 357 1071 134 357 1072 222 357 1073 135 358 1074 222 358 1075 215 358 1076 211 359 1077 219 359 1078 221 359 1079 219 360 1080 218 360 1081 221 360 1082 217 361 1083 219 361 1084 223 361 1085 219 362 1086 224 362 1087 223 362 1088 45 363 1089 140 363 1090 46 363 1091 46 364 1092 140 364 1093 47 364 1094 137 365 1095 45 365 1096 32 365 1097 47 366 1098 140 366 1099 51 366 1100 51 367 1101 34 367 1102 47 367 1103 144 368 1104 51 368 1105 145 368 1106 143 369 1107 225 369 1108 51 369 1109 51 370 1110 226 370 1111 145 370 1112 51 371 1113 144 371 1114 35 371 1115 179 372 1116 177 372 1117 53 372 1118 178 373 1119 181 373 1120 138 373 1121 138 374 1122 176 374 1123 178 374 1124 53 375 1125 176 375 1126 208 375 1127 208 376 1128 176 376 1129 138 376 1130 227 377 1131 208 377 1132 228 377 1133 100 378 1134 106 378 1135 99 378 1136 70 379 1137 68 379 1138 106 379 1139 187 380 1140 106 380 1141 130 380 1142 187 381 1143 70 381 1144 106 381 1145 107 382 1146 109 382 1147 164 382 1148 155 383 1149 158 383 1150 163 383 1151 163 384 1152 164 384 1153 159 384 1154 62 385 1155 213 385 1156 229 385 1157 62 386 1158 183 386 1159 55 386 1160 55 387 1161 183 387 1162 182 387 1163 182 388 1164 84 388 1165 136 388 1166 182 389 1167 81 389 1168 84 389 1169 55 390 1170 182 390 1171 136 390 1172 184 391 1173 82 391 1174 81 391 1175 229 392 1176 82 392 1177 183 392 1178 62 393 1179 229 393 1180 183 393 1181 82 394 1182 184 394 1183 183 394 1184 223 395 1185 211 395 1186 230 395 1187 231 396 1188 232 396 1189 233 396 1190 231 397 1191 233 397 1192 227 397 1193 227 398 1194 232 398 1195 208 398 1196 230 399 1197 211 399 1198 232 399 1199 233 400 1200 232 400 1201 227 400 1202 232 401 1203 231 401 1204 230 401 1205 146 402 1206 32 402 1207 33 402 1208 146 403 1209 137 403 1210 32 403 1211 138 404 1212 181 404 1213 136 404 1214 234 405 1215 138 405 1216 147 405 1217 147 406 1218 138 406 1219 146 406 1220 235 407 1221 147 407 1222 145 407 1223 236 408 1224 147 408 1225 235 408 1226 146 409 1227 138 409 1228 137 409 1229 236 410 1230 234 410 1231 147 410 1232 228 411 1233 138 411 1234 234 411 1235 208 412 1236 138 412 1237 228 412 1238 85 413 1239 77 413 1240 83 413 1241 85 414 1242 83 414 1243 142 414 1244 83 415 1245 202 415 1246 142 415 1247 142 416 1248 141 416 1249 84 416 1250 84 417 1251 85 417 1252 142 417 1253 142 418 1254 202 418 1255 143 418 1256 213 419 1257 82 419 1258 229 419 1259 213 420 1260 126 420 1261 82 420 1262 122 421 1263 125 421 1264 217 421 1265 135 422 1266 217 422 1267 125 422 1268 124 423 1269 135 423 1270 125 423 1271 123 424 1272 237 424 1273 204 424 1274 123 425 1275 122 425 1276 217 425 1277 123 426 1278 217 426 1279 237 426 1280 231 427 1281 223 427 1282 230 427 1283 231 428 1284 217 428 1285 223 428 1286 237 429 1287 217 429 1288 238 429 1289 238 430 1290 217 430 1291 231 430 1292 238 431 1293 227 431 1294 205 431 1295 227 432 1296 238 432 1297 231 432 1298 195 433 1299 199 433 1300 216 433 1301 195 434 1302 216 434 1303 220 434 1304 239 435 1305 220 435 1306 215 435 1307 216 436 1308 199 436 1309 210 436 1310 62 437 1311 55 437 1312 54 437 1313 56 438 1314 62 438 1315 54 438 1316 91 439 1317 156 439 1318 186 439 1319 198 440 1320 199 440 1321 195 440 1322 215 441 1323 222 441 1324 201 441 1325 215 442 1326 201 442 1327 239 442 1328 195 443 1329 149 443 1330 151 443 1331 201 444 1332 149 444 1333 239 444 1334 220 445 1335 195 445 1336 239 445 1337 149 446 1338 195 446 1339 239 446 1340 232 447 1341 207 447 1342 208 447 1343 145 448 1344 240 448 1345 235 448 1346 145 449 1347 226 449 1348 240 449 1349 226 450 1350 241 450 1351 240 450 1352 242 451 1353 203 451 1354 241 451 1355 242 452 1356 241 452 1357 225 452 1358 143 453 1359 203 453 1360 242 453 1361 51 454 1362 225 454 1363 226 454 1364 225 455 1365 143 455 1366 242 455 1367 225 456 1368 241 456 1369 226 456 1370 100 457 1371 104 457 1372 106 457 1373 130 458 1374 104 458 1375 131 458 1376 131 459 1377 104 459 1378 152 459 1379 131 460 1380 152 460 1381 134 460 1382 134 461 1383 152 461 1384 200 461 1385 130 462 1386 106 462 1387 104 462 1388 241 463 1389 203 463 1390 235 463 1391 203 464 1392 236 464 1393 235 464 1394 236 465 1395 203 465 1396 243 465 1397 68 466 1398 72 466 1399 102 466 1400 224 467 1401 211 467 1402 223 467 1403 219 468 1404 211 468 1405 224 468 1406 169 469 1407 167 469 1408 129 469 1409 169 470 1410 129 470 1411 133 470 1412 133 471 1413 129 471 1414 124 471 1415 68 472 1416 97 472 1417 106 472 1418 232 473 1419 211 473 1420 207 473 1421 91 474 1422 186 474 1423 75 474 1424 203 475 1425 205 475 1426 243 475 1427 243 476 1428 234 476 1429 236 476 1430 75 477 1431 90 477 1432 91 477 1433 60 478 1434 59 478 1435 53 478 1436 152 479 1437 153 479 1438 200 479 1439 204 480 1440 238 480 1441 205 480 1442 92 481 1443 244 481 1444 91 481 1445 234 482 1446 243 482 1447 228 482 1448 243 483 1449 227 483 1450 228 483 1451 243 484 1452 205 484 1453 227 484 1454 156 485 1455 91 485 1456 158 485 1457 134 486 1458 201 486 1459 222 486 1460 240 487 1461 241 487 1462 235 487 1463 155 488 1464 158 488 1465 244 488 1466 157 489 1467 158 489 1468 244 489 1469 92 490 1470 157 490 1471 244 490 1472 244 491 1473 163 491 1474 91 491 1475 163 492 1476 158 492 1477 91 492 1478 204 493 1479 237 493 1480 238 493 1481 206 494 1482 163 494 1483 244 494 1484 206 495 1485 244 495 1486 155 495 1487 206 496 1488 155 496 1489 157 496 1490 206 497 1491 92 497 1492 157 497 1493</p>
        </polylist>
      </mesh>
    </geometry>
  </library_geometries>
  <library_visual_scenes>
    <visual_scene id="Scene" name="Scene">
      <node id="Column1" name="Column1" type="NODE">
        <scale sid="scale">1 1 1</scale>
        <translate sid="location">0.005019085315633038 0.5311065795918364 0.010911158406293508</translate>
        <rotate sid="rotationX">1 0 0 0</rotate>
        <rotate sid="rotationY">0 1 0 0</rotate>
        <rotate sid="rotationZ">0 0 1 0</rotate>
        <instance_geometry url="#Column1-mesh" name="Column1">
          <bind_material>
            <technique_common>
            </technique_common>
          </bind_material>
        </instance_geometry>
      </node>
    </visual_scene>
  </library_visual_scenes>
  <scene>
    <instance_visual_scene url="#Scene"/>
  </scene>
</COLLADA>
