<?xml version="1.0" encoding="utf-8"?>
<COLLADA xmlns="http://www.collada.org/2005/11/COLLADASchema" version="1.4.1" xmlns:xsi="http://www.w3.org/2001/XMLSchema-instance">
  <asset>
    <contributor>
      <author>Blockbench user</author>
      <authoring_tool>Blockbench</authoring_tool>
    </contributor>
    <created>2026-07-25T14:35:53.878Z</created>
    <modified>2026-07-25T14:35:53.887Z</modified>
    <unit name="meter" meter="1.0"/>
    <up_axis>Y_UP</up_axis>
  </asset>
  <library_effects>
  </library_effects>
  <library_images>
  </library_images>
  <library_materials>
  </library_materials>
  <library_geometries>
    <geometry id="ComputerDesk2-mesh" name="ComputerDesk2">
      <mesh>
        <source id="ComputerDesk2-mesh-positions">
          <float_array id="ComputerDesk2-mesh-positions-array" count="696">0.061207 0.156741 -0.056316 0.065434 0.187018 -0.097406 0.079014 0.228975 -0.077843 0.055513 0.255041 -0.099865 0.078087 0.26105 -0.064102 0.084614 0.235871 -0.074596 0.015167 0.02802 -0.202623 -0.021747 0.117204 -0.150773 -0.024688 0.10849 -0.15175 -0.01015 0.063966 -0.192821 0.022998 0.017657 -0.210673 -0.020191 0.242078 -0.100368 0.089986 0.079331 -0.143005 0.114212 0.077055 -0.13219 0.041439 0.243157 -0.100183 0.068331 0.061704 -0.15388 -0.190683 0.357093 -0.005058 0.194884 0.356666 -0.010724 0.05288 0.361129 -0.003148 -0.006765 0.377912 -0.013673 -0.105644 0.386394 -0.003222 0.227315 0.170612 -0.005698 0.221406 0.14839 -0.05821 0.218755 0.191676 -0.055212 0.221872 0.279516 -0.059869 0.221985 0.377365 -0.058185 0.227711 0.212676 0.024742 0.228253 0.245567 0.047969 0.226378 0.393791 0.056991 0.035623 0.174344 -0.094081 0.099674 0.372907 -0.052184 0.219197 0.111976 -0.002171 0.044191 0.102298 -0.054106 0.223205 0.110903 -0.06233 -0.223426 0.109982 -0.002194 -0.036136 0.102158 -0.053061 -0.223151 0.109471 -0.063802 0.192831 0.139377 -0.002113 0.081828 0.12374 -0.002048 -0.189842 0.144564 -0.009045 -0.072226 0.122992 -0.002049 -0.222107 0.181272 0.003932 -0.223462 0.1468 -0.063895 -0.040414 0.153086 -0.056054 -0.094552 0.371084 -0.055742 0.099296 0.383898 -0.002567 0.219393 0.380879 -0.000298 -0.072082 0.238098 -0.066153 -0.076644 0.163068 -0.058494 -0.213814 0.19077 -0.054891 -0.217394 0.279761 -0.059654 -0.216019 0.378642 -0.05862 -0.214679 0.38114 -0.000347 -0.122425 0.394817 0.040656 -0.222885 0.393348 0.056041 -0.225418 0.272808 0.059014 0.10336 0.395814 0.052276 0.061651 0.000311 -0.206934 0.430309 -0.046401 -0.148011 0.43029 0.025579 -0.171351 0.42479 0.033756 0.034237 0.420261 -0.062222 -0.186762 0.427838 -0.123487 -0.118886 0.430316 -0.014015 0.250975 0.428014 -0.124063 0.200005 0.434195 -0.063211 0.260798 0.423515 -0.06652 0.290168 0.405528 0.027497 -0.186973 0.38717 -0.07525 -0.18587 0.003777 0.233537 -0.106072 -0.004668 0.237149 -0.100808 -0.07789 0.196362 -0.059797 -0.040029 0.243181 -0.106402 -0.06106 0.253108 -0.099526 -0.005695 0.240886 -0.102346 -0.007299 0.141718 -0.111255 0.130304 0.129135 -0.104849 0.123906 0.114521 -0.117121 0.38646 -0.345433 -0.09986 0.390497 -0.372143 -0.136532 0.381512 -0.395266 -0.17812 0.390595 -0.371523 0.224954 0.386332 -0.345253 0.190737 0.379398 -0.390026 0.273903 0.383136 -0.40346 0.157943 0.383623 -0.400858 -0.058538 0.385036 -0.201978 0.103465 0.319371 -0.393676 -0.044125 0.322162 -0.402472 0.157252 0.318376 -0.388737 0.032314 0.318336 -0.352729 0.031713 0.318891 -0.351641 0.199542 -0.321575 -0.39407 -0.04301 0.318207 -0.353174 -0.042006 0.185354 -0.017051 0.282098 -0.187897 -0.047347 0.283533 0.186502 -0.047107 0.283874 -0.184845 -0.017712 0.279496 -0.225349 -0.078808 0.287392 -0.187269 -0.046795 -0.179879 -0.322116 -0.201795 -0.019714 -0.321929 -0.181001 -0.065535 -0.320672 -0.174536 0.149471 -0.320844 -0.082375 -0.176729 -0.320884 -0.082517 0.272774 0.223168 -0.079795 -0.1824 0.185601 -0.04677 -0.180024 0.319124 -0.177347 -0.066053 0.322734 -0.397304 -0.178185 0.315367 -0.372027 -0.136313 0.319236 -0.344243 -0.099261 0.386309 -0.199623 -0.020291 -0.387706 -0.073282 0.28974 -0.333707 0.006556 0.290161 -0.358094 0.032521 0.289485 -0.297885 -0.010561 0.315246 -0.234563 0.016227 0.289607 -0.430725 0.036461 0.081383 -0.424522 0.026476 0.290353 -0.410193 0.03839 0.248808 -0.428613 0.039367 0.016889 -0.432719 -0.04018 0.248801 -0.436481 0.007882 0.260952 -0.034034 0.056297 -0.102859 -0.030493 0.174943 -0.094414 0.041272 0.05539 -0.103169 0.040137 0.058436 -0.035204 -0.016325 0.123131 -0.118211 -0.056787 0.238667 -0.100135 -0.048328 0.22464 -0.105557 -0.048129 0.244212 -0.104264 -0.02704 0.180048 -0.109983 -0.012858 0.141291 -0.120842 -0.321963 -0.202016 0.104084 -0.320625 -0.350986 0.198993 -0.388491 -0.3526 0.200759 -0.386729 -0.202062 0.103695 -0.386232 -0.202304 -0.019104 0.367622 0.0387 0.249787 0.369398 0.038789 -0.144067 0.299121 -0.026561 -0.184226 0.390047 0.032421 0.288874 -0.320593 -0.351589 -0.1087 -0.388404 -0.346319 -0.099111 0.32044 -0.201822 0.103736 0.320074 -0.201915 -0.020065 0.318913 -0.178675 0.143802 0.319036 -0.082476 0.27266 0.100599 0.03379 0.012242 0.100127 0.034362 -0.137035 -0.034897 0.055805 -0.031023 -0.089685 0.03945 0.011007 0.050978 0.032462 -0.18016 -0.148069 0.02503 -0.17891 -0.177432 0.037205 -0.144077 -0.095216 0.033814 -0.140078 -0.198355 0.038165 -0.062386 0.318848 -0.082728 -0.175811 0.385609 -0.181035 -0.065491 -0.389334 -0.125204 0.19727 -0.388487 -0.179979 0.144649 -0.430723 -0.123451 0.20173 -0.389181 -0.125064 -0.1186 -0.430244 -0.123718 -0.11765 -0.003938 0.03428 0.177447 -0.109089 0.034238 0.175047 -0.098163 0.027899 0.200624 0.04235 0.022439 0.281112 -0.181672 0.031366 0.28307 -0.374445 0.033725 0.201977 -0.38007 0.0296 -0.186795 0.185565 -0.016483 -0.179785 0.009855 0.022917 -0.186963 -0.300436 -0.00966 -0.18337 -0.399695 -0.068358 -0.186841 -0.187369 -0.016395 -0.17981 -0.224657 -0.079071 -0.183265 -0.187736 -0.003352 0.290167 0.119634 0.030526 0.284832 0.216611 0.029231 0.290226 0.296685 -0.011707 0.285592 0.385399 -0.072878 0.289867 -0.320089 -0.353319 0.032555 -0.320199 -0.352944 -0.041765 -0.320101 -0.388674 0.031725 -0.323257 -0.402236 0.158073 -0.325179 -0.393162 -0.178242 -0.206154 0.033704 0.036973 0.046052 0.035212 0.250735 0.215532 0.011973 -0.19062 0.421408 0.026217 0.290347 -0.388414 -0.181893 -0.058724 0.142488 0.033733 0.084504 0.153082 0.034442 0.115996 0.210054 0.03382 0.104529 0.256292 0.033794 0.078606 -0.383475 -0.39215 -0.178281 0.326908 -0.391229 0.274674 -0.392387 -0.370919 -0.136207 -0.384611 -0.400721 -0.05796 0.282055 0.033835 0.127725 0.236323 0.033866 0.152381 0.115882 0.071674 -0.136298 0.113829 0.070019 -0.144366 0.104929 0.072408 -0.144289 -0.083709 0.201632 -0.082522 -0.097378 0.206349 -0.086578 0.386484 -0.182976 0.142354 0.387187 -0.125496 -0.117426 -0.234556 0.039139 -0.027922 -0.059763 0.076369 -0.139848 0.011679 0.027156 -0.194707 -0.005664 0.033743 -0.185731 -0.006133 0.031938 -0.192054 -0.009199 0.033654 -0.178941 0.015686 0.027863 -0.187985 0.021032 0.03356 -0.192349 0.001576 0.034639 -0.188327 -0.056291 0.080804 -0.137553 -0.06676 0.090973 -0.13261 -0.43262 -0.072005 -0.174307 -0.432736 -0.014767 -0.144105 -0.384869 -0.401712 0.157937 -0.385253 -0.397507 0.273632 -0.324049 -0.395788 0.273821 0.3873 -0.125008 0.196162 0.222418 -0.079535 0.286153 -0.425283 0.021679 -0.186818 -0.410554 0.038598 -0.144501 -0.411198 0.03838 -0.085684 0.011541 0.054057 -0.130441 -0.423613 -0.065021 0.290161</float_array>
          <technique_common>
            <accessor source="#ComputerDesk2-mesh-positions-array" count="232" stride="3">
              <param name="X" type="float"/>
              <param name="Y" type="float"/>
              <param name="Z" type="float"/>
            </accessor>
          </technique_common>
        </source>
        <source id="ComputerDesk2-mesh-normals">
          <float_array id="ComputerDesk2-mesh-normals-array" count="1500">0.959281 -0.265337 -0.09683 0.728187 0.081605 -0.680503 0.797122 0.257095 -0.54635 0.754219 -0.35126 -0.55477 -0.510887 0.264145 -0.81806 -0.596745 -0.573371 0.561374 0.463428 -0.298048 0.834507 0.807569 -0.235209 0.540841 -0.630418 -0.627443 0.457044 0.973518 0.148276 0.174005 -0.100664 0.14555 -0.984216 -0.918044 -0.394398 -0.040568 0.334543 0.274083 -0.901643 -0.757295 0.074118 -0.648854 0.008198 -0.786794 0.617161 -0.014985 0.492469 0.870201 0.076797 -0.282793 0.956102 0.987537 0.070236 -0.140846 0.9951 0.000552 -0.098875 0.999014 0.013424 -0.042321 0.999214 0.016627 -0.035975 0.981019 -0.044814 -0.188663 0.999075 0.015088 -0.040258 0.273259 -0.787624 -0.552247 0.002882 0.018599 -0.999823 0.971248 -0.169642 -0.167032 -0.008219 0.068591 -0.997611 -0.100051 -0.049136 -0.993768 0.048969 -0.998578 0.021073 0.004432 -0.985786 0.167946 0.003934 -0.985373 0.170367 -0.039538 -0.999185 0.008111 0.056405 0.052164 0.997044 0.000778 -0.001368 0.999999 -0.014391 0.236601 0.9715 -0.000028 0.004353 0.999991 -0.999811 0.018895 -0.00462 -0.999674 -0.008268 0.024173 0.357276 -0.016105 0.93386 0.284639 -0.0873 0.954651 -0.057261 0.00201 0.998357 -0.044613 0.054875 0.997496 0.017256 0.102638 -0.994569 -0.006072 0.108957 -0.994028 0.988781 -0.140023 -0.05201 0.997012 0.040626 0.0657 0.048937 -0.125048 0.990943 -0.026886 -0.372265 0.927737 -0.359582 -0.037492 0.93236 0.06844 0.03886 0.996898 -0.0446 -0.026599 -0.998651 0.001645 0.078324 -0.996927 -0.037297 -0.054905 -0.997795 0.014162 0.19761 -0.980179 -0.616907 -0.042712 -0.785877 0.02068 0.015006 -0.999674 0.024315 0.010115 -0.999653 0.205461 0.013315 0.978575 0.033707 -0.159647 0.986599 0.052543 -0.976801 0.207605 -0.047636 0.974791 -0.217975 0.045364 -0.078779 -0.995859 -0.967548 0.232546 -0.098859 -0.987993 -0.047612 -0.146977 -0.99856 0.014426 -0.051669 -0.998059 0.011382 -0.061224 -0.995685 0.018681 -0.090896 -0.017559 0.039758 0.999055 -0.019196 0.212202 0.977037 -0.000005 -0.010509 0.999945 0.00005 -0.011731 0.999931 0.242482 0.275927 -0.93009 0.401031 0.433215 -0.807155 0.996962 0.039289 -0.067262 -0.996327 -0.037834 0.076824 0.99189 0.020185 -0.125486 0.01467 -0.018696 0.999718 -0.049624 0.017244 -0.998619 0.024294 0.976322 -0.214955 -0.0429 0.989299 -0.139454 0.064536 0.990288 -0.123146 -0.052889 0.965989 -0.253117 0.05062 0.975162 -0.215629 -0.028592 -0.976359 0.214257 -0.024561 -0.974589 0.222651 -0.473113 0.813923 -0.337185 -0.032412 0.975768 -0.216396 -0.006595 0.989147 -0.146781 0.054069 0.961647 -0.268909 -0.113417 0.206409 0.97187 0.988895 -0.017139 0.147622 -0.992559 0.034387 -0.116808 -0.382232 -0.729476 0.567242 -0.112581 -0.334437 0.93567 0.313495 0.528524 -0.788913 0.999613 0.008821 0.026391 0.972117 -0.109506 -0.207358 0.972224 -0.07196 -0.222715 0.996427 0.084182 -0.006851 0.999479 -0.032269 -0.00061 0.987712 0.048195 -0.148665 0.885687 -0.370065 0.280374 0.999763 -0.021722 0.001746 0.536354 0.086102 -0.839589 -0.024442 -0.006365 -0.999681 0.258712 -0.702519 -0.662975 -0.181744 0.650191 -0.737713 0.204631 -0.216799 -0.954528 -0.254519 -0.442078 -0.860109 -0.385674 -0.63574 -0.668648 0.150609 0.015477 -0.988472 -0.209189 -0.816212 0.538551 -0.022951 -0.16037 0.98679 -0.003997 0.066033 -0.997809 -0.098908 0.345631 -0.933144 0.30324 -0.090128 0.948642 0.492161 -0.108126 0.863763 0.839256 -0.212483 0.5005 0.096991 -0.360141 0.927842 -0.760347 0.319991 -0.565223 -0.091853 -0.371737 0.923783 0.891449 0.060151 -0.449112 0.485525 0.427702 -0.762454 -0.55704 -0.438375 0.70536 -0.141292 -0.325478 0.934934 0.401965 0.760638 -0.509759 0.68224 0.618512 0.389862 0.987018 0.160606 0.000335 0.926692 -0.368745 0.072591 0.995273 0.019922 0.095053 0.997764 -0.064398 -0.017875 0.98765 0.087925 0.129681 -0.970552 -0.240875 0.00293 -0.997725 -0.067312 0.003736 -0.999543 -0.000606 0.030223 -0.001769 0.052196 -0.998635 -0.000947 0.058951 0.99826 -0.007206 0.135702 0.990723 0.643205 -0.765694 -0.00004 0.999776 -0.020512 -0.005228 0.999841 -0.017013 -0.005334 0.999998 0.002184 0.00009 -0.660219 -0.751073 0.000737 -0.96731 0.102398 -0.232004 -0.967292 -0.253067 -0.017417 -0.996421 0.061714 0.05777 -0.999372 -0.027557 -0.022259 -0.992672 0.120832 0.001008 -0.992171 -0.025012 0.122359 -0.000658 -0.479021 0.877803 -0.019375 0.007832 0.999782 0.634287 0.582505 -0.508299 0.071891 -0.773101 -0.630195 0.013958 -0.014713 0.999794 0.007785 -0.022546 0.999715 -0.537016 0.841701 0.056159 -0.084595 0.965161 0.247605 0.133275 0.99069 -0.027758 -0.998118 -0.050391 -0.034956 -0.996825 -0.067241 -0.042654 0.005666 0.070829 -0.997472 -0.003189 0.076026 -0.997101 0.99882 0.046317 0.014604 -0.632604 -0.591101 -0.500411 0.057022 -0.036912 -0.99769 -0.876385 -0.24175 -0.416541 0.303016 -0.065888 0.950705 -0.668251 -0.11914 -0.734334 -0.868507 -0.437709 0.232607 -0.254924 0.002399 -0.966958 -0.152565 -0.169474 0.973654 -0.80554 -0.132979 -0.577427 0.002515 -0.259291 -0.965796 0.061173 -0.704604 -0.706959 -0.11611 0.765636 -0.632708 -0.462251 0.063133 -0.884499 0.055853 -0.650946 -0.757066 -0.295255 -0.140445 0.945039 0.822594 0.288782 -0.489841 0.146995 0.135643 -0.979793 -0.189561 -0.129927 0.973235 -0.466558 0.386061 0.795789 -0.011263 -0.394855 -0.918674 0.740421 -0.256634 -0.621222 0.999679 -0.006594 -0.024443 -0.008985 -0.541805 -0.840456 0.005447 -0.537276 -0.843389 0.007921 -0.999967 -0.001795 0.000698 -0.999998 0.001974 -0.025433 -0.916684 0.398803 0.949404 -0.312488 -0.031373 -0.105679 -0.994104 0.024252 0.034665 -0.998279 -0.047294 -0.014754 0.453936 -0.890912 0.300004 0.953937 0.001568 -0.021035 -0.004282 -0.99977 -0.022389 -0.006732 -0.999727 0.271452 0.962451 -0.001128 0.100271 0.994277 -0.036864 -0.148365 0.988818 -0.015059 0.012233 -0.510603 0.85973 0.085404 -0.484846 0.87042 -0.002412 -0.999997 0.000758 0.034514 -0.99923 -0.01866 0.019806 -0.486222 0.873611 -0.999822 -0.004321 0.018345 -0.997987 -0.063405 -0.001405 -0.999449 -0.03307 0.00298 -0.99943 -0.010241 -0.032174 -0.999996 0.002603 -0.000989 -0.004835 -0.5387 -0.842484 0.337749 0.941233 0.002539 0.400251 0.915761 -0.034358 0.024839 0.920275 0.390483 -0.005055 0.884754 0.466031 -0.017075 0.999552 -0.024578 0.053481 0.955833 -0.289005 0.041267 0.999147 -0.001172 0.013697 0.999192 -0.037775 0.008069 0.849997 -0.526725 0.00571 0.853956 -0.520314 -0.332478 0.942831 -0.022999 -0.283815 0.958874 0.003158 -0.013226 -0.75736 -0.652864 0.011742 -0.839015 -0.543982 -0.03605 -0.750453 -0.65994 -0.995925 -0.070009 0.056844 -0.999263 -0.011844 -0.036508 -0.042366 -0.999102 -0.000463 -0.032743 -0.999463 0.000786 0.015798 -0.871957 0.489327 0.021789 -0.801219 0.597974 0.039001 -0.805105 0.591848 -0.005932 0.970022 0.242944 0.039802 0.999206 -0.001703 -0.035383 0.991014 0.128996 0.194906 0.968223 0.156704 -0.000327 0.999995 -0.003173 0.006999 0.999898 0.01245 -0.068212 0.996758 0.042679 -0.012281 0.998633 -0.050813 0.156101 0.987618 -0.015579 0.097989 0.262091 -0.960056 0.033586 -0.019048 -0.999254 0.032302 0.004479 -0.999468 -0.052023 -0.398803 -0.91556 0.031611 0.002373 -0.999497 0.000072 0.021652 -0.999766 0.031011 -0.007705 -0.999489 -0.996618 0.035035 -0.074333 -0.948691 -0.097371 -0.300839 -0.999396 -0.032528 -0.012229 -0.000389 0.002268 -0.999997 0.000069 0.007891 -0.999969 0.653389 -0.757021 0.001384 0.000642 -0.999999 -0.00119 0.943697 -0.052699 0.326585 0.222121 -0.146174 0.964 -0.056826 -0.135339 0.989168 -0.036563 -0.107599 0.993522 -0.02342 -0.15756 0.987232 0.009492 -0.094122 0.995515 -0.034081 0.057655 0.997755 -0.025931 0.03222 0.999144 0.02581 0.118251 0.992648 -0.040419 0.011206 0.99912 0.077209 0.997013 -0.001946 0.968184 0.25024 -0.00039 0.999426 -0.03324 -0.006556 0.99969 -0.000923 0.024872 0.960448 0.278458 -0.000017 0.99096 0.075824 -0.110678 -0.039959 0.998331 0.041686 0.000821 0.999632 0.027129 0.001306 0.99949 0.031911 -0.063626 0.995853 -0.065021 -0.452773 0.840299 0.298152 -0.114304 0.920682 0.373201 -0.063542 -0.295982 -0.953078 -0.038383 0.007839 -0.999232 -0.012617 0.372421 -0.927978 -0.09412 -0.266157 -0.959324 -0.041385 0.024785 -0.998836 0.027657 -0.104956 -0.994092 0.00881 0.968833 -0.247559 -0.044666 0.011392 0.998937 -0.007546 -0.002102 0.999969 -0.999902 -0.014012 -0.000491 -0.016337 0.999859 0.003883 0.005979 0.999682 -0.024518 -0.013564 0.999871 0.008652 -0.006059 0.999852 0.016101 0.018358 0.999328 0.031742 0.095207 0.99397 -0.054406 -0.002914 0.999984 -0.00481 -0.095326 0.490355 -0.866294 0.999898 -0.014088 -0.002313 0.008733 0.469022 -0.883144 -0.016064 -0.999798 -0.012053 -0.120215 -0.991873 -0.041658 -0.017214 -0.995234 0.095988 0.974039 -0.226379 -0.00053 -0.991382 -0.031305 0.127204 -0.95471 0.12981 -0.267727 -0.99478 0.007616 0.101759 0.029485 0.998944 0.035227 -0.022528 0.999686 0.010982 -0.056721 0.99839 -0.00003 0.000178 1 -0.000928 0.000018 1 -0.000971 -0.993521 -0.113581 -0.003797 -0.996788 -0.080087 0.000396 -0.999884 -0.015255 -0.000215 -0.998736 -0.012047 0.048798 0.164193 0.377194 -0.911463 0.210276 0.390112 -0.896436 0.710646 0.243246 -0.660162 0.125999 0.497068 -0.858515 0.967588 -0.121768 -0.221236 0.312783 0.394407 -0.864066 0.969874 0.026821 -0.242128 -0.90125 0.097886 0.422099 0.755203 -0.200152 -0.624186 -0.361406 -0.283496 0.888266 -0.95709 0.091305 -0.27503 -0.765649 -0.200779 -0.611122 -0.2304 0.174923 -0.957245 -0.145511 0.919387 0.36545 -0.01683 0.987718 -0.155336 0.001303 0.01669 0.99986 -0.000917 0.999987 0.005047 0.000358 0.999982 -0.006037 0.018239 0.997734 0.06477 -0.990989 0.041199 0.127452 -0.09509 0.99545 -0.006139 -0.107756 0.994177 -0.000663 0.051622 0.525008 0.849531 -0.035198 -0.429881 -0.902199 0.009656 0.999934 -0.006262 -0.007316 0.999443 0.03256 0.02036 0.999126 0.036507 0.100874 0.991562 -0.081416 0.011927 0.999602 0.025548 0.008719 0.999652 0.024913 -0.018222 0.999614 0.020983 -0.733304 0.46556 0.495499 0.067122 0.188558 0.979765 -0.942935 -0.331386 -0.032509 -0.017353 -0.99983 -0.006251 0.120939 -0.990231 -0.069397 0.993622 -0.090782 -0.066892 0.995612 -0.093198 0.008468 0.996846 0.021152 -0.076495 0.999932 -0.011686 0.00012 0.996614 -0.06946 -0.043999 0.999894 0.007747 -0.012299 0.033987 0.547469 0.836136 0.023308 0.999449 0.023645 -0.00706 0.999339 -0.035659 0.018575 0.996983 0.075368 -0.030679 -0.999529 0.000575 0.160991 -0.621208 0.766931 -0.491201 -0.871046 -0.000862 -0.303167 0.163423 -0.93882 0.020587 0.999011 0.039414 -0.387074 -0.303674 -0.870607 0.248995 -0.468679 -0.84755 0.122301 -0.991995 0.031431 -0.209203 -0.936104 0.282743 -0.245597 0.952129 -0.182022 -0.245793 -0.469011 0.848301 0.203739 0.467667 0.860103 0.220063 0.947773 -0.230864 -0.071647 0.960506 -0.268877 -0.049742 -0.556286 -0.829501 -0.055518 -0.424252 0.903841 0.120163 -0.394038 0.911205 0.214792 -0.576217 0.788568 -0.530186 0.158772 -0.832883 -0.389773 -0.428631 0.815078 0.798296 0.431749 -0.419899 -0.940552 -0.29225 0.173065 0.106355 -0.343991 0.93293 -0.047764 -0.747036 -0.663066 -0.057483 -0.749684 -0.659295 -0.999501 -0.016295 0.027043 -0.14984 -0.771658 -0.618136 0.024993 0.075623 -0.996823 -0.026551 -0.678777 -0.733865 0.000067 -1 -0.000727 -0.199267 0.881247 0.428598 0.000107 0.536263 0.844051 0.915565 -0.119144 0.384118 0.6331 -0.3509 0.689966 -0.86356 0.234285 -0.446514 0.34251 -0.539926 0.768874 -0.144934 0.521323 -0.840961 -0.381287 -0.841367 0.383042 0.352554 -0.406157 0.843056 -0.71015 -0.701392 -0.061119 -0.474427 -0.03685 -0.879523 0.7344 0.418454 -0.534372 0.938843 0.020667 0.343726 0.987609 0.101731 0.119496 0.192549 0.980785 0.031414 0.979904 0.198582 0.018785 -0.000925 -0.023469 0.999724 0.998508 -0.054456 0.003979 -0.023226 0.999511 0.020929 -0.997497 -0.070694 -0.001517 0.024459 -0.992969 0.115824 0.99753 -0.064841 -0.02702 -0.016456 0.490074 0.871526 -0.101528 0.506277 0.856374 0.369682 0.292622 -0.881877 0.585313 -0.064754 -0.808217 0.230104 0.531215 -0.815391 0.340305 -0.934425 0.105085 0.158248 0.61445 -0.772923 0.543172 -0.564419 -0.621607 0.582752 0.23856 -0.776846 0.049295 -0.998783 -0.001831 0.023058 -0.999733 0.001547 0.018581 -0.805962 -0.591676 0.000738 -0.997404 0.072 -0.000366 0.030271 -0.999542 -0.670123 -0.742249 -0.000661 -0.030355 -0.999539 0.000506 0.039322 -0.007409 -0.999199 0.029194 0.951006 -0.307791 -0.033232 0.999242 -0.020254 -0.993124 -0.105726 0.050264 -0.004572 -0.597039 0.802199 -0.022608 -0.025486 0.99942 -0.998296 0.018059 0.055486 -0.997404 -0.071991 -0.001797 -0.985686 0.16581 -0.03051 -0.997964 0.063638 0.004159 -0.649652 0.756394 -0.076298 -0.990818 0.061519 -0.120395 -0.344604 -0.097696 -0.933651 0.000442 0.000381 -1 0.486722 0.870395 0.074261 0.291679 0.956493 0.006739 -0.163529 0.934341 -0.316646 0.083623 0.996487 0.004609 -0.061975 0.997893 -0.019185 -0.832095 -0.285085 0.475757 -0.77047 -0.39887 0.497272 -0.396512 0.110697 -0.911331 -0.392037 0.113056 -0.912976 -0.257475 -0.176552 0.950019 -0.316496 -0.19382 0.928582 -0.209556 -0.251825 0.944813 0.864065 0.03116 -0.502414 0.864412 0.031026 -0.501826 0.061621 -0.200743 0.977704 -0.176671 -0.58763 0.789606 -0.00265 0.999947 -0.009981 0.018447 0.997716 -0.064981 -0.333839 0.756817 -0.561942 0.17245 -0.812253 -0.557231 -0.061403 0.988249 -0.139974 0.998997 -0.044761 -0.001315 -0.039782 -0.738843 -0.672702 -0.516627 0.617714 0.592897 -0.062036 -0.51962 -0.852142 0.998904 -0.04412 -0.015635 -0.977824 -0.010153 0.209184 -0.86341 -0.186132 0.468911 0.013245 -0.001967 0.99991 0.011536 -0.000819 0.999933 -0.873553 0.48425 0.049069 -0.982531 -0.108869 0.150931 -0.180761 -0.813834 0.552267 -0.000158 -0.997919 0.064477 0.074965 0.995902 0.050598 0.998357 0.015731 0.055101 0.998185 -0.059356 0.010137 -0.997333 -0.07298 -0.000658 0.999905 -0.013761 -0.000339 0.189319 -0.981906 -0.004281 -0.00822 -0.994233 -0.106925 0.088238 -0.993637 0.070002 -0.008614 -0.998418 0.05556 0.027944 -0.998947 0.0364 0.016437 0.197493 0.980166 0.028234 -0.915343 0.401684 -0.999997 -0.002429 0.000421 -0.024518 0.043037 0.998773 0.034371 -0.999409 0.000609 0.038842 -0.999245 -0.000312 0.033251 0.464589 -0.884902 -0.038157 -0.800724 0.597817 -0.039084 -0.800923 0.59749 -0.999729 -0.023221 -0.001459 -0.999731 -0.023127 -0.00148 0.996018 -0.067776 0.057912 -0.025554 -0.873808 0.485599 0.134574 -0.832229 0.537852</float_array>
          <technique_common>
            <accessor source="#ComputerDesk2-mesh-normals-array" count="500" stride="3">
              <param name="X" type="float"/>
              <param name="Y" type="float"/>
              <param name="Z" type="float"/>
            </accessor>
          </technique_common>
        </source>
        <source id="ComputerDesk2-mesh-map-0">
          <float_array id="ComputerDesk2-mesh-map-0-array" count="3000">0.495964 0.108141 0.504953 0.126554 0.536783 0.122807 0.504953 0.126554 0.550818 0.125479 0.536783 0.122807 0.549011 0.113312 0.536783 0.122807 0.550818 0.125479 0.495964 0.108141 0.536783 0.122807 0.532086 0.115557 0.282304 0.776186 0.250298 0.77771 0.289725 0.771634 0.072065 0.258885 0.073396 0.253199 0.07946 0.237641 0.168936 0.176174 0.178059 0.227198 0.173666 0.169276 0.097056 0.283826 0.097424 0.254813 0.096065 0.271679 0.170925 0.216286 0.168936 0.176174 0.178059 0.227198 0.505742 0.692766 0.503986 0.758951 0.500358 0.747507 0.992566 0.904574 0.988941 0.913067 0.993822 0.842263 0.993822 0.842263 0.988941 0.913067 0.990228 0.842011 0.993791 0.920046 0.992566 0.904574 0.988941 0.913067 0.532086 0.115557 0.495964 0.108141 0.549011 0.113312 0.406702 0.27935 0.407944 0.46938 0.402832 0.397534 0.326302 0.25503 0.4127 0.244246 0.294415 0.248203 0.364069 0.259372 0.4127 0.244246 0.326302 0.25503 0.301968 0.177698 0.289244 0.194467 0.304611 0.202778 0.301968 0.177698 0.335791 0.211082 0.372725 0.222328 0.320768 0.170433 0.372725 0.222328 0.337272 0.166527 0.301968 0.177698 0.372725 0.222328 0.320768 0.170433 0.301968 0.177698 0.304611 0.202778 0.335791 0.211082 0.337272 0.166527 0.372725 0.222328 0.390275 0.180519 0.105356 0.175799 0.125901 0.187235 0.124719 0.169392 0.585816 0.64915 0.626497 0.71909 0.517845 0.698319 0.012427 0.053283 0.077651 0.056403 0.084661 0.05622 0.626497 0.71909 0.585816 0.64915 0.630985 0.646452 0.585816 0.64915 0.569872 0.692956 0.565642 0.640219 0.757929 0.413611 0.782167 0.322485 0.786923 0.411324 0.757929 0.413611 0.75775 0.17595 0.780343 0.274258 0.780343 0.274258 0.782167 0.322485 0.757929 0.413611 0.787214 0.179958 0.780343 0.274258 0.75775 0.17595 0.863959 0.44212 0.870631 0.456928 0.860333 0.446896 0.214572 0.762307 0.265352 0.757306 0.214429 0.755864 0.411952 0.135723 0.351266 0.124364 0.217235 0.132979 0.275987 0.125187 0.217235 0.132979 0.351266 0.124364 0.671789 0.86985 0.680036 0.89922 0.657912 0.905268 0.655773 0.880049 0.671789 0.86985 0.657912 0.905268 0.430499 0.149854 0.411952 0.135723 0.4127 0.244246 0.430499 0.149854 0.428993 0.118669 0.411952 0.135723 0.671789 0.86985 0.660268 0.791057 0.655773 0.880049 0.189454 0.347308 0.19828 0.322485 0.185201 0.324118 0.559641 0.720744 0.526073 0.821956 0.520042 0.723691 0.660982 0.64521 0.668226 0.654821 0.626497 0.71909 0.235891 0.168223 0.271405 0.235125 0.291315 0.174415 0.271405 0.235125 0.235891 0.168223 0.230006 0.23525 0.27577 0.252246 0.286312 0.246341 0.217057 0.244012 0.205813 0.255223 0.262751 0.258028 0.217057 0.244012 0.217057 0.244012 0.200722 0.148773 0.205813 0.255223 0.217057 0.244012 0.217235 0.132979 0.200722 0.148773 0.647979 0.731613 0.626497 0.71909 0.668226 0.654821 0.559641 0.720744 0.567211 0.807265 0.526073 0.821956 0.633333 0.798333 0.625698 0.869474 0.579849 0.876246 0.633333 0.798333 0.64552 0.865853 0.625698 0.869474 0.633333 0.798333 0.526073 0.821956 0.592678 0.806135 0.633333 0.798333 0.579849 0.876246 0.526073 0.821956 0.526073 0.821956 0.579849 0.876246 0.5299 0.881466 0.427156 0.254692 0.430499 0.149854 0.4127 0.244246 0.427156 0.254692 0.4127 0.244246 0.364069 0.259372 0.946608 0.143325 0.992649 0.121701 0.939176 0.119213 0.992649 0.121701 0.990727 0.149845 0.946608 0.143325 0.634012 0.782338 0.64552 0.865853 0.633333 0.798333 0.924498 0.656811 0.893356 0.666168 0.899665 0.642858 0.892824 0.707719 0.893356 0.666168 0.924498 0.656811 0.892824 0.707719 0.924498 0.656811 0.893578 0.756326 0.924498 0.656811 0.951867 0.762571 0.893578 0.756326 0.951867 0.762571 0.924498 0.656811 0.953113 0.704793 0.768999 0.901861 0.769843 0.704641 0.876363 0.704145 0.411952 0.135723 0.428993 0.118669 0.351266 0.124364 0.428721 0.11878 0.205004 0.119694 0.275987 0.125187 0.351266 0.124364 0.428721 0.11878 0.275987 0.125187 0.445122 0.727309 0.441212 0.733892 0.445639 0.656917 0.502772 0.687822 0.505926 0.683078 0.500358 0.747507 0.969717 0.101549 0.980698 0.110185 0.98067 0.013037 0.969717 0.101549 0.95534 0.079708 0.98067 0.013037 0.98067 0.013037 0.950168 0.02088 0.95534 0.079708 0.768999 0.901861 0.876363 0.704145 0.876261 0.90189 0.556163 0.65843 0.517845 0.698319 0.516415 0.637793 0.257742 0.968189 0.203843 0.966898 0.202003 0.903389 0.261326 0.918251 0.257742 0.968189 0.202003 0.903389 0.835015 0.995482 0.831879 0.93548 0.773096 0.936134 0.835015 0.995482 0.773096 0.936134 0.78198 0.987599 0.425103 0.729944 0.424359 0.702922 0.425957 0.671304 0.615219 0.305783 0.616736 0.279239 0.556507 0.278104 0.615219 0.305783 0.556507 0.278104 0.555731 0.308638 0.153275 0.142482 0.128013 0.143648 0.174592 0.142333 0.727096 0.608503 0.675441 0.633907 0.727545 0.635821 0.627855 0.606873 0.675441 0.633907 0.727096 0.608503 0.627855 0.606873 0.621885 0.635426 0.675441 0.633907 0.306747 0.252333 0.288293 0.251256 0.272455 0.262485 0.973204 0.220657 0.943056 0.164607 0.973612 0.161614 0.943056 0.164607 0.946593 0.262806 0.973204 0.220657 0.173666 0.169276 0.179418 0.148848 0.180515 0.15502 0.224234 0.77482 0.240656 0.780287 0.250298 0.77771 0.66285 0.761457 0.658373 0.750265 0.660134 0.740585 0.841431 0.419057 0.804376 0.437878 0.799186 0.337493 0.854758 0.441564 0.841431 0.419057 0.881802 0.382951 0.841431 0.419057 0.854758 0.441564 0.810248 0.441178 0.819493 0.310649 0.799186 0.337493 0.823525 0.225026 0.882362 0.245107 0.881802 0.382951 0.841431 0.419057 0.882362 0.245107 0.823525 0.225026 0.851016 0.214911 0.857672 0.199199 0.882362 0.245107 0.851016 0.214911 0.856882 0.280195 0.823525 0.225026 0.882362 0.245107 0.535877 0.450653 0.524768 0.494269 0.538582 0.49863 0.535877 0.450653 0.520979 0.443202 0.524768 0.494269 0.262015 0.097449 0.220597 0.080141 0.227372 0.098114 0.634376 0.916712 0.644158 0.909694 0.643721 0.949462 0.638229 0.937803 0.634376 0.916712 0.643721 0.949462 0.609774 0.952215 0.605769 0.880409 0.637198 0.906287 0.609774 0.952215 0.637198 0.906287 0.634376 0.916712 0.609774 0.952215 0.634376 0.916712 0.638229 0.937803 0.893758 0.319417 0.891034 0.320643 0.896586 0.320963 0.637198 0.906287 0.647069 0.883714 0.644158 0.909694 0.644158 0.909694 0.647069 0.883714 0.643721 0.949462 0.634376 0.916712 0.637198 0.906287 0.637334 0.912981 0.587238 0.88848 0.556502 0.885702 0.583398 0.886349 0.966859 0.553019 0.954805 0.527069 0.967688 0.565453 0.492425 0.73789 0.490627 0.762393 0.489822 0.691981 0.241243 0.109696 0.266147 0.110702 0.297736 0.107759 0.935674 0.881016 0.932037 0.87701 0.935001 0.942839 0.489822 0.691981 0.492425 0.73789 0.49357 0.694521 0.524411 0.566596 0.522565 0.532777 0.522565 0.566144 0.951724 0.997037 0.932236 0.996401 0.974167 0.997111 0.983064 0.994508 0.951724 0.997037 0.974167 0.997111 0.818702 0.47194 0.799545 0.473937 0.798724 0.475027 0.51301 0.333785 0.492198 0.347781 0.473688 0.36091 0.677166 0.349012 0.658397 0.335088 0.700149 0.358807 0.677166 0.349012 0.51301 0.333785 0.658397 0.335088 0.643582 0.367632 0.677166 0.349012 0.700149 0.358807 0.492198 0.347781 0.51301 0.333785 0.530791 0.363009 0.51301 0.333785 0.677166 0.349012 0.530791 0.363009 0.700149 0.358807 0.658397 0.335088 0.611337 0.261677 0.549971 0.535645 0.54369 0.441329 0.551669 0.495492 0.569426 0.495198 0.54369 0.441329 0.572219 0.409053 0.569426 0.495198 0.551669 0.495492 0.54369 0.441329 0.734726 0.99073 0.73536 0.662674 0.752106 0.991005 0.036133 0.528986 0.021463 0.714932 0.021009 0.531739 0.039059 0.71346 0.021463 0.714932 0.036133 0.528986 0.107358 0.508934 0.131513 0.747357 0.131623 0.506067 0.305152 0.3292 0.329447 0.318017 0.217424 0.314256 0.217424 0.314256 0.329447 0.318017 0.383033 0.267668 0.1687 0.267875 0.217424 0.314256 0.383033 0.267668 0.34435 0.747579 0.321981 0.506799 0.319279 0.74802 0.658481 0.543667 0.547267 0.601245 0.560681 0.582018 0.560681 0.582018 0.547267 0.601245 0.549971 0.535645 0.560681 0.582018 0.549971 0.535645 0.575381 0.561772 0.575381 0.561772 0.549971 0.535645 0.569371 0.533361 0.569426 0.495198 0.575381 0.561772 0.569371 0.533361 0.658481 0.543667 0.560681 0.582018 0.575381 0.561772 0.967758 0.78144 0.966345 0.813177 0.885881 0.812503 0.514202 0.537026 0.473647 0.56803 0.487931 0.561517 0.327159 0.109968 0.317792 0.106117 0.336684 0.106494 0.627467 0.115964 0.646771 0.096161 0.590327 0.096312 0.473647 0.56803 0.514202 0.537026 0.516034 0.623136 0.473647 0.56803 0.516034 0.623136 0.473021 0.623956 0.441027 0.855582 0.436616 0.756834 0.428789 0.773393 0.599028 0.00675 0.60712 0.006237 0.618876 0.00091 0.618876 0.00091 0.561358 0.015226 0.599028 0.00675 0.882991 0.557745 0.86671 0.528097 0.879346 0.581496 0.772487 0.077729 0.841067 0.106739 0.811743 0.089754 0.603273 0.933699 0.542306 0.899422 0.601672 0.900321 0.603273 0.933699 0.541443 0.935927 0.542306 0.899422 0.477597 0.381499 0.510044 0.377767 0.510168 0.437784 0.402408 0.228604 0.385117 0.234258 0.382987 0.218737 0.402408 0.228604 0.382987 0.218737 0.398186 0.210377 0.395956 0.291226 0.385964 0.337697 0.398309 0.274396 0.051068 0.498833 0.051955 0.496969 0.061932 0.49659 0.762074 0.926809 0.758127 0.975345 0.759493 0.969398 0.028767 0.496497 0.051068 0.498833 0.051955 0.496969 0.368821 0.159154 0.339989 0.161412 0.373572 0.16199 0.762074 0.926809 0.765091 0.941309 0.759493 0.969398 0.328183 0.158949 0.339989 0.161412 0.368821 0.159154 0.601672 0.900321 0.609774 0.952215 0.603273 0.933699 0.605769 0.880409 0.636399 0.887156 0.637198 0.906287 0.601672 0.900321 0.605769 0.880409 0.609774 0.952215 0.68443 0.741111 0.683059 0.744569 0.685689 0.745793 0.636399 0.887156 0.63771 0.890779 0.637198 0.906287 0.768133 0.928775 0.766243 0.978227 0.768716 0.979453 0.768803 0.930689 0.768716 0.979453 0.768133 0.928775 0.235774 0.465752 0.268264 0.46617 0.266507 0.468232 0.766243 0.978227 0.765091 0.941309 0.768133 0.928775 0.510168 0.437784 0.477597 0.381499 0.48704 0.402421 0.683946 0.972106 0.662255 0.937489 0.663559 0.972917 0.48704 0.402421 0.510168 0.437784 0.494256 0.431247 0.242029 0.328788 0.217424 0.314256 0.198561 0.404486 0.614288 0.531697 0.581978 0.529 0.582626 0.446962 0.614288 0.531697 0.582626 0.446962 0.61469 0.447448 0.070668 0.046735 0.008809 0.014823 0.008826 0.046542 0.070247 0.014584 0.008809 0.014823 0.070668 0.046735 0.105324 0.506982 0.019704 0.505625 0.056612 0.512586 0.530791 0.363009 0.473688 0.36091 0.492198 0.347781 0.672864 0.293123 0.67242 0.238659 0.704323 0.282448 0.67242 0.238659 0.704394 0.237114 0.704323 0.282448 0.209444 0.038034 0.210375 0.006573 0.084396 0.006764 0.035283 0.772004 0.021773 0.9965 0.032475 0.972216 0.520979 0.443202 0.433879 0.442209 0.47344 0.46995 0.47344 0.46995 0.524768 0.494269 0.520979 0.443202 0.337473 0.443823 0.375402 0.444395 0.390105 0.443513 0.021773 0.9965 0.003879 0.880979 0.004071 0.996358 0.021773 0.9965 0.023501 0.782323 0.003879 0.880979 0.788844 0.505491 0.758406 0.422039 0.758014 0.505428 0.788844 0.505491 0.790081 0.422013 0.758406 0.422039 0.880506 0.038522 0.941541 0.038917 0.880337 0.070883 0.880337 0.070883 0.941541 0.038917 0.941567 0.069938 0.967758 0.78144 0.885881 0.812503 0.885974 0.78154 0.575381 0.561772 0.647072 0.521328 0.658481 0.543667 0.658481 0.543667 0.64724 0.45831 0.659527 0.436444 0.64724 0.45831 0.658481 0.543667 0.647072 0.521328 0.64724 0.45831 0.572219 0.409053 0.659527 0.436444 0.659527 0.436444 0.70756 0.372341 0.658481 0.543667 0.880337 0.070883 0.807773 0.038773 0.880506 0.038522 0.672804 0.073512 0.673102 0.00126 0.700515 0.016274 0.701177 0.051623 0.672804 0.073512 0.700515 0.016274 0.672804 0.073512 0.73875 0.05358 0.764744 0.072529 0.701177 0.051623 0.73875 0.05358 0.672804 0.073512 0.200656 0.995201 0.170486 0.9729 0.065 0.939142 0.296718 0.996895 0.315117 0.976245 0.269733 0.975809 0.315117 0.976245 0.310647 0.945716 0.269733 0.975809 0.269733 0.975809 0.310647 0.945716 0.269045 0.896932 0.761207 0.001551 0.73864 0.015894 0.700515 0.016274 0.673102 0.00126 0.761207 0.001551 0.700515 0.016274 0.761207 0.001551 0.764744 0.072529 0.73864 0.015894 0.73864 0.015894 0.764744 0.072529 0.73875 0.05358 0.127569 0.074311 0.068555 0.118039 0.086473 0.150756 0.036015 0.081967 0.086473 0.150756 0.068555 0.118039 0.086473 0.150756 0.145502 0.102047 0.127569 0.074311 0.14982 0.182941 0.120906 0.210651 0.154891 0.165434 0.111324 0.232222 0.034645 0.183797 0.120906 0.210651 0.565573 0.192362 0.698477 0.105526 0.559022 0.17328 0.565573 0.192362 0.708108 0.121606 0.698477 0.105526 0.565573 0.192362 0.559022 0.17328 0.513368 0.201051 0.587374 0.151795 0.572371 0.122935 0.50241 0.160541 0.513368 0.201051 0.587374 0.151795 0.50241 0.160541 0.228668 0.813915 0.286953 0.815477 0.261769 0.795695 0.94359 0.581998 0.907368 0.516946 0.943323 0.476003 0.94359 0.581998 0.89379 0.560254 0.907368 0.516946 0.110031 0.352397 0.082623 0.355034 0.109931 0.356622 0.166765 0.879416 0.286953 0.815477 0.228668 0.813915 0.410289 0.799539 0.406841 0.757357 0.323197 0.762379 0.487485 0.00572 0.561358 0.015226 0.618876 0.00091 0.386369 0.997983 0.439417 0.888715 0.326527 0.940295 0.439417 0.888715 0.406841 0.757357 0.410289 0.799539 0.343318 0.49566 0.414878 0.477682 0.324289 0.493548 0.120866 0.494728 0.232632 0.496871 0.164117 0.476743 0.11463 0.447583 0.164117 0.476743 0.218556 0.454699 0.414878 0.477682 0.232632 0.496871 0.324289 0.493548 0.222431 0.47694 0.218556 0.454699 0.164117 0.476743 0.414878 0.477682 0.222431 0.47694 0.232632 0.496871 0.222431 0.47694 0.164117 0.476743 0.232632 0.496871 0.310335 0.3532 0.288109 0.379969 0.251743 0.357252 0.251743 0.357252 0.288109 0.379969 0.259288 0.371007 0.310335 0.3532 0.310976 0.388085 0.288109 0.379969 0.917193 0.459374 0.917139 0.274069 0.928055 0.273856 0.917193 0.459374 0.928055 0.273856 0.928337 0.459836 0.104349 0.746491 0.131513 0.747357 0.107358 0.508934 0.131623 0.506067 0.131513 0.747357 0.321981 0.506799 0.478994 0.144376 0.473662 0.165543 0.47009 0.147975 0.516034 0.623136 0.506256 0.637033 0.480379 0.642912 0.464389 0.80174 0.482207 0.835072 0.466882 0.854652 0.467755 0.752482 0.482207 0.835072 0.464389 0.80174 0.482207 0.835072 0.483117 0.892663 0.466882 0.854652 0.466882 0.854652 0.483117 0.892663 0.462284 0.939336 0.483117 0.892663 0.482207 0.835072 0.504795 0.837359 0.965906 0.528755 0.964757 0.5025 0.974168 0.500926 0.480379 0.642912 0.482207 0.835072 0.467755 0.752482 0.462284 0.939336 0.483117 0.892663 0.516269 0.939188 0.902197 0.114452 0.934109 0.113723 0.905714 0.222678 0.278756 0.407532 0.34955 0.404963 0.198561 0.404486 0.318362 0.426719 0.34955 0.404963 0.316658 0.40713 0.279149 0.425374 0.278756 0.407532 0.214116 0.433151 0.278756 0.407532 0.316658 0.40713 0.34955 0.404963 0.383944 0.428901 0.305152 0.3292 0.34955 0.404963 0.65356 0.174288 0.657649 0.163725 0.630035 0.168961 0.325599 0.807188 0.286953 0.815477 0.410289 0.799539 0.269045 0.896932 0.410289 0.799539 0.286953 0.815477 0.269045 0.896932 0.322744 0.885779 0.410289 0.799539 0.89379 0.560254 0.94359 0.581998 0.926352 0.590105 0.926352 0.590105 0.943219 0.59409 0.944434 0.613524 0.47344 0.46995 0.414878 0.477682 0.430231 0.488159 0.47344 0.46995 0.417532 0.454867 0.414878 0.477682 0.524768 0.494269 0.430231 0.488159 0.343318 0.49566 0.414878 0.477682 0.343318 0.49566 0.430231 0.488159 0.433879 0.442209 0.417532 0.454867 0.47344 0.46995 0.47344 0.46995 0.430231 0.488159 0.524768 0.494269 0.524768 0.494269 0.343318 0.49566 0.448052 0.499748 0.946015 0.088703 0.904376 0.090191 0.946295 0.08982 0.946295 0.08982 0.904376 0.090191 0.907411 0.100319 0.151108 0.346476 0.11648 0.319838 0.14982 0.182941 0.170486 0.9729 0.17052 0.897238 0.065 0.939142 0.147348 0.856769 0.145244 0.84182 0.113987 0.84881 0.17052 0.897238 0.147348 0.856769 0.065 0.939142 0.065 0.939142 0.147348 0.856769 0.113987 0.84881 0.065 0.939142 0.113987 0.84881 0.092277 0.860949 0.720371 0.2361 0.716878 0.217832 0.724293 0.241707 0.145244 0.84182 0.166765 0.879416 0.228668 0.813915 0.809912 0.032859 0.933336 0.0328 0.93348 0.000993 0.383944 0.428901 0.329447 0.318017 0.305152 0.3292 0.809912 0.032859 0.93348 0.000993 0.809384 0.001136 0.963232 0.332725 0.932441 0.436336 0.932954 0.333101 0.964574 0.434881 0.932441 0.436336 0.963232 0.332725 0.897308 0.095309 0.89612 0.150505 0.864598 0.150179 0.643582 0.367632 0.530791 0.363009 0.677166 0.349012 0.11648 0.319838 0.025692 0.357381 0.039054 0.337083 0.11648 0.319838 0.018864 0.372432 0.025692 0.357381 0.025692 0.357381 0.010214 0.318145 0.039054 0.337083 0.269045 0.896932 0.286953 0.815477 0.166765 0.879416 0.079604 0.836624 0.065 0.939142 0.092277 0.860949 0.079604 0.836624 0.035283 0.772004 0.065 0.939142 0.982782 0.959018 0.956007 0.958346 0.983559 0.984079 0.956007 0.958346 0.957072 0.984212 0.983559 0.984079 0.11648 0.319838 0.111226 0.295907 0.111324 0.232222 0.11648 0.319838 0.111324 0.232222 0.120906 0.210651 0.14982 0.182941 0.11648 0.319838 0.120906 0.210651 0.11648 0.319838 0.039054 0.337083 0.111226 0.295907 0.463864 0.239407 0.463143 0.253953 0.461033 0.236962 0.462989 0.211766 0.463864 0.239407 0.461033 0.236962 0.906317 0.925745 0.9028 0.884709 0.907161 0.929257 0.470985 0.260419 0.470863 0.265155 0.467027 0.256242 0.7583 0.756119 0.758854 0.748315 0.7615 0.762541 0.511094 0.829 0.508388 0.800488 0.507504 0.816037 0.062635 0.485278 0.078307 0.472712 0.060927 0.475052 0.46366 0.127537 0.461541 0.119596 0.46366 0.117474 0.978547 0.725741 0.977107 0.720746 0.981827 0.720479 0.406782 0.735561 0.410286 0.729793 0.412074 0.737669 0.023887 0.48872 0.062635 0.485278 0.038282 0.477667 0.605769 0.880409 0.647069 0.883714 0.636399 0.887156 0.893758 0.319417 0.89816 0.319879 0.896586 0.320963 0.13731 0.393026 0.138872 0.374158 0.06384 0.373492 0.064387 0.393068 0.13731 0.393026 0.06384 0.373492 0.439158 0.10603 0.45591 0.432998 0.438891 0.433307 0.68948 0.663137 0.726324 0.650775 0.726462 0.911042 0.68954 0.978423 0.68948 0.663137 0.726462 0.911042 0.384457 0.074543 0.384392 0.041713 0.333252 0.041353 0.572219 0.409053 0.547028 0.372238 0.659527 0.436444 0.333252 0.041353 0.242214 0.042167 0.243073 0.074875 0.384457 0.074543 0.333252 0.041353 0.243073 0.074875 0.140807 0.400245 0.014976 0.400092 0.140515 0.430052 0.683421 0.935609 0.662255 0.937489 0.683946 0.972106 0.101746 0.824081 0.114338 0.847601 0.145244 0.84182 0.101746 0.824081 0.145244 0.84182 0.11945 0.75486 0.101746 0.824081 0.11945 0.75486 0.079604 0.836624 0.228668 0.813915 0.202175 0.775128 0.15707 0.756086 0.145244 0.84182 0.15707 0.756086 0.11945 0.75486 0.228668 0.813915 0.15707 0.756086 0.145244 0.84182 0.029066 0.753678 0.079604 0.836624 0.11945 0.75486 0.043677 0.773337 0.079604 0.836624 0.029066 0.753678 0.781699 0.137098 0.805233 0.141063 0.796351 0.133017 0.018864 0.372432 0.010214 0.318145 0.025692 0.357381 0.939924 0.303746 0.995635 0.273765 0.995276 0.3054 0.940713 0.273103 0.995635 0.273765 0.939924 0.303746 0.529844 0.249989 0.480694 0.204892 0.496046 0.216389 0.611337 0.261677 0.551497 0.260025 0.638892 0.254829 0.51301 0.333785 0.473688 0.36091 0.529844 0.249989 0.638892 0.254829 0.551497 0.260025 0.496046 0.216389 0.529844 0.249989 0.496046 0.216389 0.551497 0.260025 0.51301 0.333785 0.529844 0.249989 0.551497 0.260025 0.838618 0.691372 0.811926 0.675445 0.836145 0.632501 0.439417 0.888715 0.410289 0.799539 0.322744 0.885779 0.343562 0.919691 0.326527 0.940295 0.439417 0.888715 0.343562 0.919691 0.439417 0.888715 0.322744 0.885779 0.34435 0.747579 0.393745 0.745209 0.395947 0.523327 0.185471 0.162794 0.186517 0.2113 0.185844 0.170169 0.31578 0.497996 0.324289 0.493548 0.325069 0.496439 0.325069 0.496439 0.32643 0.4961 0.324289 0.493548 0.188504 0.262834 0.185201 0.262577 0.189265 0.263608 0.32643 0.4961 0.325069 0.496439 0.32812 0.497414 0.343318 0.49566 0.324289 0.493548 0.32643 0.4961 0.189506 0.159764 0.191317 0.156664 0.191666 0.159042 0.184668 0.170664 0.185471 0.162794 0.185844 0.170169 0.783253 0.127537 0.780444 0.124034 0.785365 0.124329 0.995118 0.551968 0.992094 0.551634 0.991681 0.545134 0.995118 0.551968 0.991681 0.545134 0.993961 0.544046 0.185471 0.162794 0.184668 0.170664 0.189506 0.159764 0.422629 0.605932 0.421609 0.6547 0.422515 0.603415 0.324289 0.493548 0.258796 0.496748 0.31578 0.497996 0.902242 0.471674 0.888902 0.413938 0.894049 0.405755 0.411064 0.688423 0.41513 0.66702 0.410286 0.729793 0.186517 0.2113 0.185844 0.170169 0.186688 0.206183 0.186517 0.2113 0.180088 0.196445 0.185471 0.162794 0.402519 0.728453 0.40614 0.713133 0.410286 0.729793 0.981591 0.784591 0.971624 0.727292 0.978547 0.725741 0.902242 0.471674 0.894049 0.405755 0.903331 0.470129 0.977834 0.769601 0.981591 0.784591 0.971624 0.727292 0.841783 0.992391 0.872203 0.90966 0.836319 0.916852 0.872203 0.90966 0.841783 0.992391 0.874035 0.98508 0.83658 0.472828 0.807613 0.485366 0.837802 0.495387 0.891885 0.907597 0.872203 0.90966 0.876214 0.951114 0.11463 0.447583 0.218556 0.454699 0.20336 0.442425 0.786237 0.915194 0.836319 0.916852 0.872203 0.90966 0.131513 0.747357 0.319279 0.74802 0.321981 0.506799 0.811926 0.675445 0.836145 0.632501 0.825041 0.639906 0.140515 0.430052 0.014976 0.400092 0.020445 0.431386 0.371736 0.355888 0.377269 0.36251 0.374628 0.342578 0.17732 0.948934 0.177598 0.934836 0.179539 0.941535 0.39768 0.394778 0.394948 0.388391 0.397391 0.380543 0.787848 0.125418 0.785365 0.124329 0.799022 0.113714 0.238634 0.392818 0.244081 0.397397 0.244568 0.394274 0.244081 0.397397 0.285735 0.394885 0.244568 0.394274 0.244568 0.394274 0.285735 0.394885 0.260827 0.39711 0.288625 0.392564 0.285735 0.394885 0.260827 0.39711 0.893659 0.2636 0.895961 0.27019 0.896586 0.320963 0.893659 0.2636 0.896586 0.320963 0.893708 0.285171 0.851016 0.214911 0.806894 0.20143 0.857672 0.199199 0.851016 0.214911 0.823835 0.222819 0.806894 0.20143 0.005425 0.759214 0.003879 0.880979 0.023248 0.753281 0.823835 0.222819 0.799918 0.305589 0.806894 0.20143 0.439158 0.10603 0.456184 0.105887 0.45591 0.432998 0.198561 0.404486 0.214116 0.433151 0.278756 0.407532 0.9189 0.889671 0.919002 0.914828 0.913502 0.905487 0.010214 0.318145 0.007425 0.205242 0.039054 0.337083 0.897308 0.095309 0.864598 0.150179 0.866139 0.096921 0.318362 0.426719 0.383944 0.428901 0.34955 0.404963 0.45557 0.036829 0.583715 0.068048 0.578499 0.036134 0.459919 0.069174 0.583715 0.068048 0.45557 0.036829 0.990778 0.685713 0.987617 0.657952 0.983816 0.63875 0.981131 0.627221 0.990778 0.685713 0.983816 0.63875 0.990778 0.685713 0.987228 0.680875 0.981131 0.627221 0.893701 0.825688 0.890461 0.88033 0.891687 0.828483 0.56515 0.321712 0.603396 0.31557 0.55017 0.318288 0.9028 0.884709 0.940177 0.841975 0.920467 0.865351 0.983816 0.63875 0.988295 0.617881 0.981131 0.627221 0.261243 0.079091 0.262015 0.097449 0.422045 0.092381 0.420123 0.084945 0.261243 0.079091 0.422045 0.092381 0.261243 0.079091 0.220597 0.080141 0.262015 0.097449 0.714177 0.257627 0.75126 0.257914 0.751142 0.58522 0.73536 0.662674 0.7521 0.663197 0.752106 0.991005 0.321981 0.506799 0.34435 0.747579 0.345951 0.507436 0.345951 0.507436 0.34435 0.747579 0.395947 0.523327 0.164117 0.476743 0.11463 0.447583 0.120866 0.494728 0.296718 0.996895 0.386369 0.997983 0.315117 0.976245 0.315117 0.976245 0.386369 0.997983 0.326527 0.940295 0.547028 0.372238 0.572219 0.409053 0.54369 0.441329 0.450741 0.073497 0.456757 0.086191 0.637549 0.075383 0.516034 0.623136 0.480379 0.642912 0.473021 0.623956 0.120906 0.210651 0.034645 0.183797 0.00865 0.147956 0.039054 0.337083 0.007425 0.205242 0.034645 0.183797 0.862874 0.489647 0.882991 0.557745 0.880979 0.469595 0.673104 0.08128 0.66365 0.090439 0.841067 0.106739 0.424999 0.996801 0.456556 0.907429 0.42834 0.975916 0.880979 0.469595 0.83658 0.472828 0.862874 0.489647 0.11463 0.447583 0.098437 0.443332 0.102671 0.494349 0.120866 0.494728 0.11463 0.447583 0.102671 0.494349 0.439417 0.888715 0.423956 0.996534 0.433167 0.947299 0.884728 0.189175 0.860692 0.182031 0.837418 0.182457 0.884728 0.189175 0.884121 0.175019 0.864341 0.18119 0.42834 0.975916 0.456556 0.907429 0.433167 0.947299 0.223889 0.997032 0.296718 0.996895 0.222227 0.995243 0.088286 0.462325 0.089438 0.496915 0.089408 0.484457 0.984982 0.236485 0.992074 0.196852 0.988577 0.24456 0.277159 0.145868 0.25729 0.14481 0.280156 0.143703 0.964839 0.678705 0.960824 0.66321 0.964776 0.645396 0.949698 0.652476 0.954815 0.686417 0.963691 0.615925 0.765091 0.941309 0.762074 0.926809 0.768133 0.928775 0.762074 0.926809 0.766402 0.923388 0.768133 0.928775 0.551745 0.887055 0.547893 0.888246 0.587238 0.88848 0.963691 0.615925 0.949698 0.652476 0.962984 0.607133 0.959566 0.486589 0.969305 0.475411 0.954805 0.527069 0.969305 0.475411 0.954805 0.527069 0.9659 0.480689 0.216945 0.994781 0.269733 0.975809 0.170486 0.9729 0.200656 0.995201 0.216945 0.994781 0.170486 0.9729 0.972562 0.455609 0.975342 0.434244 0.971552 0.438881 0.975342 0.434244 0.983249 0.434442 0.972562 0.455609 0.753245 0.133215 0.771016 0.129403 0.730899 0.132385 0.305152 0.3292 0.217424 0.314256 0.242029 0.328788 0.895681 0.94763 0.891885 0.907597 0.876214 0.951114 0.871853 0.940943 0.872203 0.90966 0.874035 0.98508 0.880337 0.070883 0.798788 0.071058 0.807773 0.038773 0.700149 0.358807 0.611337 0.261677 0.638892 0.254829 0.800629 0.637503 0.751657 0.652306 0.791133 0.671673 0.846514 0.087509 0.841067 0.106739 0.855374 0.083997 0.464158 0.517071 0.511687 0.520686 0.461852 0.554699 0.511687 0.520686 0.51335 0.533007 0.461852 0.554699 0.999211 0.544936 0.998728 0.60846 0.998686 0.557047 0.800629 0.637503 0.748183 0.611153 0.75494 0.644256 0.565573 0.192362 0.513368 0.201051 0.518826 0.214552 0.714177 0.257627 0.751142 0.58522 0.713897 0.584984 0.269391 0.453779 0.292702 0.464552 0.316117 0.44741 0.198561 0.404486 0.217424 0.314256 0.158082 0.429874 0.214116 0.433151 0.198561 0.404486 0.158082 0.429874 0.034645 0.183797 0.007425 0.205242 0.00865 0.147956 0.638892 0.254829 0.496046 0.216389 0.664566 0.221592 0.943557 0.950526 0.943437 0.848905 0.975007 0.894284 0.974606 0.953996 0.943557 0.950526 0.975007 0.894284 0.975007 0.894284 0.943437 0.848905 0.974137 0.848091 0.604608 0.033575 0.603812 0.066596 0.658202 0.067002 0.658675 0.034871 0.604608 0.033575 0.658202 0.067002 0.464031 0.658196 0.480379 0.642912 0.467755 0.752482 0.395947 0.523327 0.432456 0.506327 0.345951 0.507436 0.708623 0.600394 0.658481 0.543667 0.70756 0.372341 0.504795 0.837359 0.517638 0.856729 0.51634 0.93899 0.056034 0.743801 0.104349 0.746491 0.107358 0.508934 0.056034 0.743801 0.107358 0.508934 0.056612 0.512586 0.209444 0.038034 0.084396 0.006764 0.098233 0.039036 0.397601 0.593781 0.428632 0.593225 0.395947 0.523327 0.395947 0.523327 0.428632 0.593225 0.432456 0.506327 0.837802 0.495387 0.807613 0.485366 0.800629 0.637503 0.800629 0.637503 0.807613 0.485366 0.748183 0.611153 0.638892 0.254829 0.664566 0.221592 0.701957 0.201111 0.432456 0.506327 0.432535 0.547275 0.452386 0.5548 0.432456 0.506327 0.452386 0.5548 0.451419 0.513466</float_array>
          <technique_common>
            <accessor source="#ComputerDesk2-mesh-map-0-array" count="1500" stride="2">
              <param name="S" type="float"/>
              <param name="T" type="float"/>
            </accessor>
          </technique_common>
        </source>
        <vertices id="ComputerDesk2-mesh-vertices">
          <input semantic="POSITION" source="#ComputerDesk2-mesh-positions"/>
        </vertices>
        <polylist material="Material_-1-material" count="6">
          <input semantic="VERTEX" source="#ComputerDesk2-mesh-vertices" offset="0"/>
          <input semantic="NORMAL" source="#ComputerDesk2-mesh-normals" offset="1"/>
          <input semantic="TEXCOORD" source="#ComputerDesk2-mesh-map-0" offset="2" set="0"/>
          <vcount>3 3 3 3 3 3 3 3 3 3 3 3 3 3 3 3 3 3 3 3 3 3 3 3 3 3 3 3 3 3 3 3 3 3 3 3 3 3 3 3 3 3 3 3 3 3 3 3 3 3 3 3 3 3 3 3 3 3 3 3 3 3 3 3 3 3 3 3 3 3 3 3 3 3 3 3 3 3 3 3 3 3 3 3 3 3 3 3 3 3 3 3 3 3 3 3 3 3 3 3 3 3 3 3 3 3 3 3 3 3 3 3 3 3 3 3 3 3 3 3 3 3 3 3 3 3 3 3 3 3 3 3 3 3 3 3 3 3 3 3 3 3 3 3 3 3 3 3 3 3 3 3 3 3 3 3 3 3 3 3 3 3 3 3 3 3 3 3 3 3 3 3 3 3 3 3 3 3 3 3 3 3 3 3 3 3 3 3 3 3 3 3 3 3 3 3 3 3 3 3 3 3 3 3 3 3 3 3 3 3 3 3 3 3 3 3 3 3 3 3 3 3 3 3 3 3 3 3 3 3 3 3 3 3 3 3 3 3 3 3 3 3 3 3 3 3 3 3 3 3 3 3 3 3 3 3 3 3 3 3 3 3 3 3 3 3 3 3 3 3 3 3 3 3 3 3 3 3 3 3 3 3 3 3 3 3 3 3 3 3 3 3 3 3 3 3 3 3 3 3 3 3 3 3 3 3 3 3 3 3 3 3 3 3 3 3 3 3 3 3 3 3 3 3 3 3 3 3 3 3 3 3 3 3 3 3 3 3 3 3 3 3 3 3 3 3 3 3 3 3 3 3 3 3 3 3 3 3 3 3 3 3 3 3 3 3 3 3 3 3 3 3 3 3 3 3 3 3 3 3 3 3 3 3 3 3 3 3 3 3 3 3 3 3 3 3 3 3 3 3 3 3 3 3 3 3 3 3 3 3 3 3 3 3 3 3 3 3 3 3 3 3 3 3 3 3 3 3 3 3 3 3 3 3 3 3 3 3 3 3 3 3 3 3 3 3 3 3 3 3 3 3 3 3 3 3 3 3 3 3 3 3 3 3 3 3 3 3 3 3 3 3 3 3 3 3 3 3 3 3 3 3 3 3 3 3 3 3 3 3 3 3 3 3 3 3 3 3 3 3</vcount>
          <p>0 0 0 1 0 1 2 0 2 1 1 3 3 1 4 2 1 5 4 2 6 2 2 7 3 2 8 0 3 9 2 3 10 5 3 11 7 4 12 6 4 13 8 4 14 9 5 15 6 5 16 7 5 17 10 6 18 8 6 19 6 6 20 9 7 21 11 7 22 8 7 23 9 8 24 10 8 25 8 8 26 12 9 27 3 9 28 1 9 29 3 10 30 13 10 31 14 10 32 14 11 33 13 11 34 1 11 35 15 12 36 3 12 37 13 12 38 5 13 39 0 13 40 4 13 41 16 14 42 17 14 43 18 14 44 19 15 45 16 15 46 18 15 47 20 16 48 16 16 49 19 16 50 21 17 51 22 17 52 23 17 53 21 18 54 24 18 55 25 18 56 26 19 57 25 19 58 27 19 59 21 20 60 25 20 61 26 20 62 21 21 63 23 21 64 24 21 65 27 22 66 25 22 67 28 22 68 0 23 69 29 23 70 1 23 71 23 24 72 0 24 73 30 24 74 0 25 75 4 25 76 30 25 77 0 26 78 23 26 79 22 26 80 23 27 81 30 27 82 24 27 83 31 28 84 32 28 85 33 28 86 31 29 87 34 29 88 35 29 89 35 30 90 32 30 91 31 30 92 36 31 93 35 31 94 34 31 95 31 32 96 21 32 97 37 32 98 37 33 99 38 33 100 31 33 101 39 34 102 40 34 103 37 34 104 38 35 105 37 35 106 40 35 107 36 36 108 34 36 109 41 36 110 42 37 111 36 37 112 41 37 113 41 38 114 39 38 115 16 38 116 41 39 117 34 39 118 39 39 119 36 40 120 35 40 121 42 40 122 42 41 123 35 41 124 43 41 125 4 42 126 44 42 127 30 42 128 22 43 129 33 43 130 0 43 131 31 44 132 22 44 133 21 44 134 22 45 135 31 45 136 33 45 137 45 46 138 18 46 139 17 46 140 46 47 141 45 47 142 17 47 143 17 48 144 21 48 145 46 48 146 17 49 147 37 49 148 21 49 149 32 50 150 0 50 151 33 50 152 4 51 153 47 51 154 44 51 155 48 52 156 49 52 157 50 52 158 48 53 159 42 53 160 49 53 161 48 54 162 44 54 163 47 54 164 48 55 165 50 55 166 44 55 167 44 56 168 50 56 169 51 56 170 52 57 171 41 57 172 16 57 173 52 58 174 16 58 175 20 58 176 53 59 177 52 59 178 20 59 179 52 60 180 54 60 181 53 60 182 43 61 183 42 61 184 48 61 185 41 62 186 49 62 187 42 62 188 50 63 189 49 63 190 41 63 191 50 64 192 41 64 193 51 64 194 41 65 195 54 65 196 51 65 197 54 66 198 41 66 199 55 66 200 39 67 201 37 67 202 17 67 203 39 68 204 34 68 205 40 68 206 34 69 207 31 69 208 38 69 209 40 70 210 34 70 211 38 70 212 12 71 213 15 71 214 3 71 215 13 72 216 12 72 217 1 72 218 26 73 219 21 73 220 46 73 221 26 74 222 27 74 223 46 74 224 46 75 225 28 75 226 27 75 227 39 76 228 17 76 229 16 76 230 24 77 231 30 77 232 25 77 233 30 78 234 56 78 235 28 78 236 25 79 237 30 79 238 28 79 239 44 80 240 51 80 241 54 80 242 44 81 243 54 81 244 53 81 245 30 82 246 45 82 247 56 82 248 56 83 249 45 83 250 46 83 251 56 84 252 46 84 253 28 84 254 20 85 255 44 85 256 53 85 257 30 86 258 19 86 259 45 86 260 44 87 261 19 87 262 30 87 263 44 88 264 20 88 265 19 88 266 19 89 267 18 89 268 45 89 269 55 90 270 52 90 271 54 90 272 52 91 273 41 91 274 55 91 275 6 92 276 10 92 277 57 92 278 57 93 279 9 93 280 6 93 281 57 94 282 10 94 283 9 94 284 58 95 285 59 95 286 60 95 287 61 96 288 58 96 289 62 96 290 58 97 291 61 97 292 59 97 293 58 98 294 60 98 295 63 98 296 64 99 297 62 99 298 58 99 299 64 100 300 63 100 301 65 100 302 66 101 303 64 101 304 65 101 305 58 102 306 63 102 307 64 102 308 61 103 309 67 103 310 59 103 311 61 104 312 68 104 313 67 104 314 62 105 315 68 105 316 61 105 317 69 106 318 70 106 319 3 106 320 14 107 321 69 107 322 3 107 323 1 108 324 71 108 325 11 108 326 1 109 327 11 109 328 69 109 329 1 110 330 69 110 331 14 110 332 72 111 333 11 111 334 73 111 335 11 112 336 73 112 337 70 112 338 70 113 339 73 113 340 3 113 341 69 114 342 11 114 343 74 114 344 74 115 345 75 115 346 69 115 347 70 116 348 75 116 349 69 116 350 7 117 351 9 117 352 11 117 353 8 118 354 74 118 355 11 118 356 7 119 357 8 119 358 74 119 359 11 120 360 7 120 361 70 120 362 70 121 363 7 121 364 74 121 365 76 122 366 77 122 367 4 122 368 5 123 369 76 123 370 4 123 371 76 124 372 5 124 373 2 124 374 78 125 375 79 125 376 80 125 377 81 126 378 82 126 379 83 126 380 81 127 381 78 127 382 82 127 383 84 128 384 81 128 385 83 128 386 79 129 387 78 129 388 85 129 389 78 130 390 81 130 391 85 130 392 83 131 393 82 131 394 86 131 395 87 132 396 88 132 397 89 132 398 90 133 399 88 133 400 91 133 401 90 134 402 89 134 403 88 134 404 87 135 405 92 135 406 93 135 407 94 136 408 95 136 409 96 136 410 97 137 411 95 137 412 94 137 413 98 138 414 99 138 415 95 138 416 100 139 417 101 139 418 102 139 419 102 140 420 101 140 421 103 140 422 104 141 423 102 141 424 103 141 425 105 142 426 96 142 427 106 142 428 107 143 429 108 143 430 109 143 431 109 144 432 108 144 433 87 144 434 109 145 435 87 145 436 110 145 437 110 146 438 87 146 439 93 146 440 90 147 441 110 147 442 93 147 443 107 148 444 109 148 445 110 148 446 110 149 447 78 149 448 111 149 449 112 150 450 113 150 451 114 150 452 113 151 453 114 151 454 115 151 455 115 152 456 113 152 457 116 152 458 113 153 459 112 153 460 98 153 461 113 154 462 98 154 463 116 154 464 117 155 465 118 155 466 119 155 467 119 156 468 118 156 469 114 156 470 114 157 471 117 157 472 119 157 473 120 158 474 121 158 475 117 158 476 117 159 477 121 159 478 122 159 479 29 160 480 123 160 481 124 160 482 29 161 483 125 161 484 123 161 485 126 162 486 125 162 487 29 162 488 71 163 489 124 163 490 43 163 491 71 164 492 43 164 493 48 164 494 73 165 495 127 165 496 128 165 497 73 166 498 129 166 499 130 166 500 127 167 501 128 167 502 129 167 503 131 168 504 73 168 505 129 168 506 72 169 507 131 169 508 130 169 509 127 170 510 131 170 511 129 170 512 132 171 513 131 171 514 72 171 515 124 172 516 1 172 517 29 172 518 71 173 519 128 173 520 11 173 521 124 174 522 71 174 523 1 174 524 129 175 525 128 175 526 130 175 527 128 176 528 130 176 529 11 176 530 75 177 531 11 177 532 72 177 533 132 178 534 72 178 535 75 178 536 131 179 537 130 179 538 11 179 539 11 180 540 131 180 541 75 180 542 29 181 543 126 181 544 32 181 545 126 182 546 35 182 547 32 182 548 32 183 549 29 183 550 0 183 551 133 184 552 102 184 553 134 184 554 134 185 555 135 185 556 136 185 557 134 186 558 136 186 559 133 186 560 133 187 561 137 187 562 100 187 563 136 188 564 137 188 565 133 188 566 98 189 567 112 189 568 104 189 569 85 190 570 80 190 571 79 190 572 87 191 573 108 191 574 85 191 575 108 192 576 80 192 577 85 192 578 80 193 579 108 193 580 107 193 581 138 194 582 67 194 583 139 194 584 68 195 585 105 195 586 140 195 587 140 196 588 67 196 589 68 196 590 67 197 591 138 197 592 141 197 593 67 198 594 60 198 595 59 198 596 67 199 597 141 199 598 60 199 599 137 200 600 142 200 601 100 200 602 137 201 603 143 201 604 142 201 605 144 202 606 145 202 607 86 202 608 86 203 609 145 203 610 111 203 611 110 204 612 111 204 613 145 204 614 110 205 615 145 205 616 107 205 617 107 206 618 144 206 619 146 206 620 144 207 621 107 207 622 145 207 623 144 208 624 91 208 625 146 208 626 146 209 627 147 209 628 107 209 629 86 210 630 91 210 631 144 210 632 148 211 633 149 211 634 125 211 635 126 212 636 148 212 637 125 212 638 148 213 639 150 213 640 151 213 641 126 214 642 150 214 643 148 214 644 152 215 645 149 215 646 139 215 647 153 216 648 154 216 649 155 216 650 154 217 651 156 217 652 155 217 653 155 218 654 156 218 655 151 218 656 155 219 657 123 219 658 125 219 659 149 220 660 155 220 661 125 220 662 155 221 663 151 221 664 123 221 665 123 222 666 151 222 667 150 222 668 107 223 669 157 223 670 68 223 671 105 224 672 68 224 673 157 224 674 68 225 675 158 225 676 107 225 677 159 226 678 160 226 679 112 226 680 136 227 681 135 227 682 160 227 683 161 228 684 162 228 685 159 228 686 161 229 687 163 229 688 162 229 689 161 230 690 159 230 691 112 230 692 160 231 693 102 231 694 104 231 695 112 232 696 160 232 697 104 232 698 164 233 699 165 233 700 166 233 701 167 234 702 166 234 703 168 234 704 167 235 705 164 235 706 166 235 707 166 236 708 165 236 709 168 236 710 148 237 711 165 237 712 164 237 713 169 238 714 114 238 715 168 238 716 120 239 717 117 239 718 114 239 719 170 240 720 120 240 721 156 240 722 120 241 723 114 241 724 169 241 725 152 242 726 171 242 727 172 242 728 170 243 729 153 243 730 173 243 731 174 244 732 173 244 733 99 244 734 171 245 735 153 245 736 172 245 737 175 246 738 99 246 739 173 246 740 171 247 741 175 247 742 153 247 743 175 248 744 173 248 745 153 248 746 123 249 747 35 249 748 124 249 749 124 250 750 35 250 751 43 250 752 123 251 753 150 251 754 35 251 755 106 252 756 99 252 757 175 252 758 106 253 759 175 253 760 171 253 761 176 254 762 99 254 763 98 254 764 95 255 765 99 255 766 96 255 767 177 256 768 95 256 769 97 256 770 98 257 771 95 257 772 177 257 773 178 258 774 94 258 775 179 258 776 167 259 777 94 259 778 178 259 779 94 260 780 180 260 781 179 260 782 179 261 783 180 261 784 141 261 785 180 262 786 94 262 787 96 262 788 96 263 789 181 263 790 180 263 791 177 264 792 94 264 793 167 264 794 141 265 795 180 265 796 181 265 797 142 266 798 143 266 799 134 266 800 182 267 801 142 267 802 134 267 803 92 268 804 142 268 805 183 268 806 184 269 807 182 269 808 185 269 809 182 270 810 183 270 811 142 270 812 186 271 813 100 271 814 142 271 815 156 272 816 187 272 817 151 272 818 168 273 819 165 273 820 169 273 821 151 274 822 169 274 823 165 274 824 151 275 825 187 275 826 169 275 827 164 276 828 167 276 829 188 276 830 188 277 831 167 277 832 178 277 833 140 278 834 171 278 835 189 278 836 140 279 837 106 279 838 171 279 839 67 280 840 189 280 841 152 280 842 171 281 843 152 281 844 189 281 845 105 282 846 106 282 847 140 282 848 140 283 849 189 283 850 67 283 851 67 284 852 152 284 853 139 284 854 141 285 855 181 285 856 190 285 857 190 286 858 181 286 859 66 286 860 162 287 861 191 287 862 159 287 863 149 288 864 148 288 865 139 288 866 192 289 867 193 289 868 194 289 869 148 290 870 192 290 871 139 290 872 139 291 873 192 291 874 194 291 875 139 292 876 194 292 877 195 292 878 192 293 879 148 293 880 193 293 881 193 294 882 148 294 883 164 294 884 196 295 885 191 295 886 101 295 887 186 296 888 101 296 889 100 296 890 196 297 891 101 297 892 186 297 893 88 298 894 85 298 895 84 298 896 87 299 897 85 299 898 88 299 899 197 300 900 88 300 901 84 300 902 84 301 903 85 301 904 81 301 905 191 302 906 198 302 907 143 302 908 191 303 909 196 303 910 198 303 911 198 304 912 199 304 913 143 304 914 151 305 915 165 305 916 148 305 917 200 306 918 139 306 919 195 306 920 200 307 921 138 307 922 139 307 923 200 308 924 195 308 925 201 308 926 195 309 927 194 309 928 201 309 929 191 310 930 137 310 931 136 310 932 191 311 933 136 311 934 160 311 935 159 312 936 191 312 937 160 312 938 191 313 939 143 313 940 137 313 941 77 314 942 202 314 943 2 314 944 4 315 945 77 315 946 2 315 947 76 316 948 203 316 949 77 316 950 203 317 951 204 317 952 77 317 953 202 318 954 203 318 955 76 318 956 202 319 957 2 319 958 76 319 959 71 320 960 48 320 961 205 320 962 47 321 963 205 321 964 48 321 965 71 322 966 206 322 967 47 322 968 206 323 969 205 323 970 47 323 971 73 324 972 71 324 973 47 324 974 71 325 975 73 325 976 128 325 977 72 326 978 130 326 979 73 326 980 73 327 981 47 327 982 4 327 983 3 328 984 73 328 985 4 328 986 182 329 987 89 329 988 90 329 989 183 330 990 182 330 991 90 330 992 93 331 993 183 331 994 90 331 995 78 332 996 110 332 997 90 332 998 91 333 999 197 333 1000 146 333 1001 90 334 1002 91 334 1003 82 334 1004 78 335 1005 90 335 1006 82 335 1007 146 336 1008 197 336 1009 207 336 1010 150 337 1011 35 337 1012 126 337 1013 201 338 1014 194 338 1015 193 338 1016 201 339 1017 193 339 1018 179 339 1019 201 340 1020 179 340 1021 200 340 1022 164 341 1023 188 341 1024 178 341 1025 193 342 1026 178 342 1027 179 342 1028 164 343 1029 178 343 1030 193 343 1031 141 344 1032 200 344 1033 179 344 1034 138 345 1035 200 345 1036 141 345 1037 116 346 1038 177 346 1039 168 346 1040 196 347 1041 199 347 1042 198 347 1043 92 348 1044 196 348 1045 186 348 1046 199 349 1047 196 349 1048 92 349 1049 158 350 1050 68 350 1051 208 350 1052 86 351 1053 111 351 1054 207 351 1055 78 352 1056 80 352 1057 158 352 1058 207 353 1059 111 353 1060 208 353 1061 158 354 1062 208 354 1063 111 354 1064 78 355 1065 158 355 1066 111 355 1067 114 356 1068 115 356 1069 168 356 1070 120 357 1071 169 357 1072 187 357 1073 209 358 1074 156 358 1075 120 358 1076 209 359 1077 120 359 1078 187 359 1079 105 360 1080 157 360 1081 147 360 1082 211 361 1083 210 361 1084 212 361 1085 213 362 1086 172 362 1087 214 362 1088 214 363 1089 215 363 1090 172 363 1091 216 364 1092 214 364 1093 152 364 1094 215 365 1095 214 365 1096 216 365 1097 152 366 1098 172 366 1099 215 366 1100 215 367 1101 211 367 1102 152 367 1103 213 368 1104 211 368 1105 212 368 1106 213 369 1107 214 369 1108 217 369 1109 217 370 1110 213 370 1111 215 370 1112 217 371 1113 215 371 1114 216 371 1115 211 372 1116 213 372 1117 215 372 1118 213 373 1119 153 373 1120 212 373 1121 172 374 1122 153 374 1123 213 374 1124 205 375 1125 210 375 1126 218 375 1127 219 376 1128 210 376 1129 205 376 1130 210 377 1131 212 377 1132 218 377 1133 210 378 1134 219 378 1135 211 378 1136 206 379 1137 219 379 1138 205 379 1139 218 380 1140 206 380 1141 71 380 1142 205 381 1143 218 381 1144 71 381 1145 219 382 1146 218 382 1147 206 382 1148 101 383 1149 174 383 1150 103 383 1151 174 384 1152 101 384 1153 191 384 1154 220 385 1155 163 385 1156 221 385 1157 220 386 1158 174 386 1159 162 386 1160 174 387 1161 99 387 1162 176 387 1163 176 388 1164 103 388 1165 174 388 1166 99 389 1167 106 389 1168 96 389 1169 115 390 1170 168 390 1171 116 390 1172 207 391 1173 197 391 1174 83 391 1175 127 392 1176 217 392 1177 132 392 1178 217 393 1179 132 393 1180 214 393 1181 212 394 1182 214 394 1183 127 394 1184 212 395 1185 217 395 1186 127 395 1187 216 396 1188 211 396 1189 217 396 1190 211 397 1191 219 397 1192 217 397 1193 217 398 1194 219 398 1195 212 398 1196 218 399 1197 219 399 1198 212 399 1199 132 400 1200 127 400 1201 73 400 1202 132 401 1203 73 401 1204 131 401 1205 65 402 1206 190 402 1207 66 402 1208 65 403 1209 63 403 1210 190 403 1211 190 404 1212 60 404 1213 141 404 1214 63 405 1215 60 405 1216 190 405 1217 182 406 1218 184 406 1219 89 406 1220 134 407 1221 185 407 1222 182 407 1223 143 408 1224 135 408 1225 134 408 1226 199 409 1227 222 409 1228 143 409 1229 197 410 1230 84 410 1231 83 410 1232 92 411 1233 186 411 1234 142 411 1235 102 412 1236 223 412 1237 224 412 1238 160 413 1239 223 413 1240 102 413 1241 152 414 1242 216 414 1243 204 414 1244 202 415 1245 152 415 1246 204 415 1247 152 416 1248 211 416 1249 202 416 1250 202 417 1251 211 417 1252 203 417 1253 203 418 1254 216 418 1255 204 418 1256 203 419 1257 211 419 1258 216 419 1259 204 420 1260 77 420 1261 202 420 1262 208 421 1263 62 421 1264 64 421 1265 225 422 1266 208 422 1267 64 422 1268 208 423 1269 68 423 1270 62 423 1271 184 424 1272 92 424 1273 87 424 1274 92 425 1275 183 425 1276 93 425 1277 96 426 1278 105 426 1279 226 426 1280 226 427 1281 105 427 1282 147 427 1283 173 428 1284 174 428 1285 170 428 1286 153 429 1287 170 429 1288 154 429 1289 154 430 1290 170 430 1291 156 430 1292 197 431 1293 91 431 1294 88 431 1295 177 432 1296 97 432 1297 94 432 1298 98 433 1299 177 433 1300 116 433 1301 160 434 1302 135 434 1303 223 434 1304 143 435 1305 222 435 1306 135 435 1307 221 436 1308 120 436 1309 227 436 1310 120 437 1311 221 437 1312 121 437 1313 227 438 1314 120 438 1315 228 438 1316 227 439 1317 220 439 1318 221 439 1319 174 440 1320 220 440 1321 227 440 1322 170 441 1323 174 441 1324 227 441 1325 120 442 1326 170 442 1327 229 442 1328 170 443 1329 228 443 1330 229 443 1331 170 444 1332 227 444 1333 228 444 1334 228 445 1335 120 445 1336 229 445 1337 212 446 1338 153 446 1339 214 446 1340 214 447 1341 230 447 1342 132 447 1343 127 448 1344 214 448 1345 230 448 1346 70 449 1347 15 449 1348 75 449 1349 15 450 1350 230 450 1351 70 450 1352 132 451 1353 230 451 1354 70 451 1355 131 452 1356 127 452 1357 75 452 1358 127 453 1359 230 453 1360 75 453 1361 75 454 1362 132 454 1363 74 454 1364 70 455 1365 132 455 1366 74 455 1367 230 456 1368 13 456 1369 75 456 1370 13 457 1371 75 457 1372 15 457 1373 214 458 1374 155 458 1375 149 458 1376 152 459 1377 214 459 1378 149 459 1379 230 460 1380 12 460 1381 15 460 1382 12 461 1383 13 461 1384 230 461 1385 153 462 1386 155 462 1387 214 462 1388 100 463 1389 102 463 1390 133 463 1391 163 464 1392 220 464 1393 162 464 1394 162 465 1395 174 465 1396 191 465 1397 86 466 1398 82 466 1399 91 466 1400 83 467 1401 86 467 1402 207 467 1403 121 468 1404 231 468 1405 118 468 1406 122 469 1407 121 469 1408 118 469 1409 118 470 1410 231 470 1411 114 470 1412 231 471 1413 112 471 1414 114 471 1415 118 472 1416 117 472 1417 122 472 1418 121 473 1419 161 473 1420 231 473 1421 161 474 1422 112 474 1423 231 474 1424 184 475 1425 87 475 1426 89 475 1427 156 476 1428 209 476 1429 187 476 1430 134 477 1431 102 477 1432 224 477 1433 185 478 1434 134 478 1435 224 478 1436 135 479 1437 222 479 1438 223 479 1439 207 480 1440 208 480 1441 225 480 1442 222 481 1443 199 481 1444 184 481 1445 185 482 1446 222 482 1447 184 482 1448 184 483 1449 199 483 1450 92 483 1451 222 484 1452 185 484 1453 224 484 1454 223 485 1455 222 485 1456 224 485 1457 168 486 1458 177 486 1459 167 486 1460 147 487 1461 181 487 1462 226 487 1463 157 488 1464 107 488 1465 147 488 1466 96 489 1467 226 489 1468 181 489 1469 103 490 1470 176 490 1471 98 490 1472 103 491 1473 98 491 1474 104 491 1475 80 492 1476 107 492 1477 158 492 1478 146 493 1479 207 493 1480 147 493 1481 147 494 1482 207 494 1483 181 494 1484 221 495 1485 163 495 1486 121 495 1487 121 496 1488 163 496 1489 161 496 1490 207 497 1491 225 497 1492 181 497 1493 181 498 1494 225 498 1495 64 498 1496 181 499 1497 64 499 1498 66 499 1499</p>
        </polylist>
      </mesh>
    </geometry>
  </library_geometries>
  <library_visual_scenes>
    <visual_scene id="Scene" name="Scene">
      <node id="ComputerDesk2" name="ComputerDesk2" type="NODE">
        <scale sid="scale">1 1 1</scale>
        <translate sid="location">0.004015413793103419 0.414871030172414 -0.024875870689655168</translate>
        <rotate sid="rotationX">1 0 0 0</rotate>
        <rotate sid="rotationY">0 1 0 0</rotate>
        <rotate sid="rotationZ">0 0 1 0</rotate>
        <instance_geometry url="#ComputerDesk2-mesh" name="ComputerDesk2">
          <bind_material>
            <technique_common>
            </technique_common>
          </bind_material>
        </instance_geometry>
      </node>
    </visual_scene>
  </library_visual_scenes>
  <scene>
    <instance_visual_scene url="#Scene"/>
  </scene>
</COLLADA>
