<?xml version="1.0" encoding="utf-8"?>
<COLLADA xmlns="http://www.collada.org/2005/11/COLLADASchema" version="1.4.1" xmlns:xsi="http://www.w3.org/2001/XMLSchema-instance">
  <asset>
    <contributor>
      <author>Blockbench user</author>
      <authoring_tool>Blockbench</authoring_tool>
    </contributor>
    <created>2026-01-30T07:12:08.656Z</created>
    <modified>2026-01-30T07:12:08.664Z</modified>
    <unit name="meter" meter="1.0"/>
    <up_axis>Y_UP</up_axis>
  </asset>
  <library_effects>
  </library_effects>
  <library_images>
  </library_images>
  <library_materials>
  </library_materials>
  <library_geometries>
    <geometry id="CopperOre-mesh" name="CopperOre">
      <mesh>
        <source id="CopperOre-mesh-positions">
          <float_array id="CopperOre-mesh-positions-array" count="717">0.321838 0.020834 0.446106 0.209366 0.065056 0.442902 0.264465 -0.047592 0.429016 0.142563 -0.019547 0.421387 0.181015 -0.191864 0.399719 0.041019 -0.048229 0.394348 0.070084 0.078468 0.412109 -0.05727 0.033741 0.430115 -0.066612 -0.117401 0.387878 0.023489 -0.215729 0.378418 -0.049934 -0.245529 0.351135 -0.149323 -0.126953 0.378723 0.056633 -0.300598 0.376526 0.123032 -0.309875 0.391388 0.189194 -0.274567 0.399689 0.072868 -0.348694 0.347656 0.173706 -0.317352 0.374542 0.322021 -0.042957 0.428131 0.350952 0.009111 0.413605 0.338379 0.070251 0.371338 0.347137 0.046669 0.343048 0.336182 0.102951 0.320862 0.208206 0.126953 0.348907 0.384644 -0.000236 0.303497 0.328278 -0.110092 0.359711 0.423096 -0.022364 0.184174 0.293457 0.226654 0.162689 0.130371 0.254852 0.180695 0.377411 0.125748 0.280396 0.360779 0.062767 0.289154 0.410767 0.036968 0.236328 0.40271 0.097717 0.236343 0.442047 0.164444 0.18573 0.394806 0.239716 0.105003 0.447693 0.09433 0.169769 0.428925 0.161346 0.111931 0.474884 -0.028666 0.077209 0.455109 0.024157 0.085991 0.429352 -0.135284 0.110176 0.089714 0.110825 0.421875 0.060413 0.139389 0.356934 0.05888 0.203278 0.282104 -0.009747 0.074287 0.421753 0.006033 0.14119 0.328918 0.256439 -0.187546 0.406952 0.224197 -0.311432 0.340881 0.357208 -0.212921 0.185974 0.1548 -0.373077 0.285156 0.292114 -0.260437 0.286316 0.253387 -0.337524 0.259399 0.280945 -0.327759 0.176971 0.316193 -0.358307 0.10173 0.205322 -0.389221 0.130478 0.115814 -0.412201 0.161346 -0.024504 -0.4198 0.218323 0.156128 -0.420197 0.012321 -0.03558 -0.437714 0.072159 -0.117119 0.064369 0.452179 -0.091888 0.10041 0.409637 -0.222733 0.099525 0.383698 -0.210114 0.044212 0.439087 -0.303497 0.065788 0.409912 -0.395569 0.06382 0.389008 -0.362396 0.127991 0.307098 -0.259491 0.16481 0.287323 -0.139587 0.152328 0.337036 -0.113091 0.210983 0.295532 -0.047562 0.176666 0.337219 -0.018332 0.170151 0.308441 -0.014573 -0.361237 0.327606 -0.014533 -0.394012 0.29126 -0.077217 -0.286133 0.358887 -0.052479 -0.377502 0.337921 -0.104103 -0.343658 0.37442 -0.193756 -0.274567 0.37384 -0.139801 -0.374756 0.361725 -0.186829 -0.344269 0.389191 -0.267151 -0.338409 0.383636 -0.232208 -0.372467 0.344238 -0.149979 -0.415833 0.26828 -0.234756 -0.415192 0.236084 -0.315521 -0.371643 0.301697 -0.353699 -0.381012 0.146484 -0.155258 -0.436249 0.149612 0.039551 0.198456 0.246841 0.005401 0.218033 0.297882 0.057858 0.229156 0.201172 0.007581 0.282074 0.224716 0.04364 0.293823 0.14975 0.089302 0.33493 0.071869 0.016527 0.347412 0.096565 -0.008169 0.32547 0.203094 -0.012683 0.26886 0.301208 -0.096794 0.275604 0.280609 -0.043503 0.314087 0.281647 -0.149277 0.357544 0.26059 -0.06134 0.332336 0.248764 -0.077484 0.359283 0.124687 0.320862 -0.390106 0.009685 0.245743 -0.392365 -0.07663 0.384338 -0.365784 -0.027649 0.376221 -0.364594 0.029743 0.440033 -0.256134 0.003236 0.426727 -0.311096 -0.061745 0.395966 -0.321564 -0.105194 0.49353 -0.167221 -0.030714 0.47583 -0.217316 -0.108009 0.369324 -0.254517 -0.212051 0.424469 -0.059406 -0.09272 0.442413 -0.183517 -0.192429 0.019247 -0.431091 -0.081192 0.12326 -0.395966 -0.214371 -0.003415 -0.404358 -0.256134 0.280487 -0.343872 -0.17363 0.141754 0.345428 0.030918 0.358643 0.299652 0.025797 0.422607 0.230209 0.094818 0.389679 0.268311 0.000413 0.29306 0.285217 -0.012791 0.112953 0.303467 -0.037071 0.020807 0.34671 0.025455 0.027433 0.286346 -0.088081 0.213654 0.173004 -0.265778 0.37558 0.194016 -0.159515 0.384033 0.154648 -0.110771 0.331635 0.09185 -0.319824 0.403961 0.075981 -0.004308 0.361328 0.018379 -0.219162 -0.024607 0.380219 0.001926 0.020742 0.363373 0.046806 -0.075813 0.373108 -0.090714 -0.08963 0.412231 -0.029718 -0.211761 0.418182 -0.016586 -0.154984 0.430847 -0.109673 -0.092979 0.345581 -0.208954 -0.119446 0.316254 -0.227432 -0.215561 0.430237 -0.085976 -0.276154 0.363342 -0.106552 -0.390137 0.29538 -0.077454 -0.306702 0.407745 -0.020962 -0.355957 0.33606 0.076744 -0.285583 0.40799 0.063774 -0.209015 0.383972 0.153076 -0.276855 0.398193 0.156891 -0.232071 0.383972 0.221436 -0.176605 -0.013932 0.41861 -0.308197 0.026043 0.42218 -0.263428 -0.097122 0.39679 -0.254456 -0.232697 0.363312 -0.354065 -0.051315 0.416412 -0.358368 -0.146301 0.384918 -0.373444 0.014769 0.417236 -0.393463 -0.046108 0.409363 -0.400421 -0.128693 0.345978 -0.420349 -0.032413 0.345795 -0.454926 -0.119843 0.175156 -0.407745 0.039795 0.372162 -0.424622 0.096725 0.302277 -0.444244 0.03577 0.274475 -0.314453 -0.30014 0.364624 -0.347168 -0.335144 0.338806 -0.395203 -0.337769 0.250671 -0.336823 -0.282867 0.338409 -0.382202 -0.26535 0.30426 -0.413483 -0.260986 0.238831 -0.463898 -0.001659 0.104134 -0.423889 0.117622 0.186829 -0.491638 -0.094437 -0.083931 -0.467407 0.020409 -0.102699 -0.486664 -0.126053 0.007546 -0.481628 -0.247864 -0.039219 -0.437958 -0.289703 0.137955 -0.44043 -0.3237 0.040813 -0.463959 -0.307617 -0.101631 -0.439667 -0.341156 -0.075768 -0.36319 -0.378326 -0.084518 -0.252136 -0.422211 0.032246 -0.153427 -0.43277 -0.059483 -0.280487 0.254181 0.242401 -0.370758 0.23613 0.226959 -0.386047 0.158203 0.2612 -0.392365 0.231354 0.169495 -0.438507 0.154526 -0.009014 -0.42746 0.202484 -0.08596 -0.422333 0.029726 -0.176315 -0.422119 0.270172 -0.043915 -0.400482 0.283722 0.078087 -0.37915 0.303772 0.179337 -0.322357 0.35907 0.174118 -0.228851 0.35498 0.227509 -0.222153 -0.397339 -0.211853 -0.054474 -0.373505 -0.33725 0.142151 -0.350494 -0.334808 -0.243011 -0.354828 -0.325195 0.044888 -0.335327 -0.388458 -0.129486 -0.322937 -0.393646 -0.25705 -0.292603 -0.378632 -0.352997 -0.295227 -0.315918 -0.286316 -0.1996 -0.401123 -0.155899 -0.244156 -0.442627 0.022921 -0.28363 -0.429932 0.155075 -0.299347 -0.408417 0.14679 -0.236359 -0.44632 -0.017094 -0.206772 -0.444427 0.138168 -0.141022 -0.436096 0.067245 -0.027788 -0.416016 -0.111351 -0.005246 -0.382874 -0.139969 -0.187592 -0.439148 -0.230255 -0.098938 -0.387878 -0.34433 -0.354584 -0.253052 -0.408295 -0.335754 -0.206619 -0.418243 -0.254028 -0.240601 -0.375458 -0.178635 -0.333008 -0.348663 -0.067741 -0.3078 -0.429779 -0.146194 -0.245041 -0.4841 -0.17308 -0.138428 0.374359 -0.205414 -0.296631 0.408508 -0.170517 -0.298035 0.371063 -0.156097 -0.357422 0.271515 -0.202042 -0.401947 0.250397 -0.287109 -0.348541 0.242691 -0.102646 -0.405579 -0.35257 0.206543 -0.165909 -0.239502 0.085304 -0.302063 -0.243973 0.24115 -0.211761 -0.090553 0.222397 -0.307159 0.024866 0.144699 -0.3638 0.12532 0.120705 -0.407074 -0.031609 0.256989 -0.31665 0.053032 0.168335 -0.351013 -0.004693 0.259338 -0.235306 0.04755 0.194229 -0.279816 0.334595 -0.053158 -0.390503 0.246292 0.029398 -0.402313 0.348328 -0.111961 -0.359802 0.314362 0.046757 -0.386993 0.253754 0.108368 -0.398193 0.324188 0.131393 -0.331848 0.366089 -0.054363 -0.297546</float_array>
          <technique_common>
            <accessor source="#CopperOre-mesh-positions-array" count="239" stride="3">
              <param name="X" type="float"/>
              <param name="Y" type="float"/>
              <param name="Z" type="float"/>
            </accessor>
          </technique_common>
        </source>
        <source id="CopperOre-mesh-normals">
          <float_array id="CopperOre-mesh-normals-array" count="1422">-0.09352 -0.166739 0.981556 -0.100457 -0.169978 0.980314 -0.095003 -0.14504 0.984854 -0.20913 -0.167807 0.963382 -0.234775 -0.081923 0.968591 0.199659 -0.180807 0.96304 0.118749 -0.274038 0.954359 -0.121442 -0.081373 0.989257 0.001077 -0.094789 0.995497 -0.225047 -0.295542 0.928444 -0.073067 -0.283697 0.956126 -0.295855 -0.136617 0.945413 -0.123222 -0.07019 0.989894 -0.213493 0.035976 0.976282 -0.118149 -0.012045 0.992923 -0.254711 -0.55944 0.788764 0.190058 -0.547702 0.814801 0.084524 -0.79135 0.605492 0.036609 -0.270939 0.9619 0.695192 -0.19311 0.692399 0.731578 0.483041 0.481108 0.286094 0.76905 0.571587 0.962891 0.256357 0.084397 0.967139 0.230524 0.107246 0.265799 0.814322 0.515975 0.843317 0.491974 0.216283 0.902051 -0.308205 0.302182 0.895694 -0.284843 0.341462 0.200958 0.822363 0.532292 0.223467 0.813044 0.537607 0.276059 0.689444 0.669671 0.853203 0.39952 0.335304 0.899536 0.300193 0.317363 0.754777 0.403625 0.517106 0.943635 -0.085084 0.319866 0.78553 -0.00743 0.618779 0.746691 -0.276708 0.604884 0.746441 0.098836 0.65807 0.83894 -0.087095 0.53721 0.321739 0.779044 0.538121 0.826183 0.109438 0.552671 0.825584 -0.061215 0.560949 0.912983 -0.145382 0.381217 0.976649 0.119317 -0.178664 0.888926 -0.133273 0.438233 0.896962 0.374779 -0.234519 0.86894 -0.236691 0.43465 -0.204447 -0.086527 0.975046 -0.280581 -0.117305 0.952635 0.218252 0.816281 0.534838 0.260748 0.807763 0.528705 -0.79699 0.33103 0.505199 0.097698 0.926485 0.36343 0.098794 0.757794 0.644972 0.053548 0.674981 0.735889 -0.25034 0.80513 0.537677 0.02784 -0.157226 0.98717 -0.085842 -0.150348 0.984899 -0.094902 -0.009747 0.995439 0.769234 -0.419503 0.481971 0.838282 -0.34889 0.418998 0.572509 -0.496839 0.652215 0.774453 -0.44262 0.452006 0.502205 -0.56604 0.65375 0.893217 -0.305729 0.329686 0.382163 -0.818312 0.429321 0.130787 -0.853494 0.504423 0.739272 -0.430583 0.51776 0.847108 -0.383403 0.36798 0.402085 -0.820309 0.40672 0.737074 -0.520713 0.43079 0.795789 -0.548584 0.256469 0.838266 -0.498372 0.221215 0.68922 -0.498898 0.525431 0.349572 -0.799551 0.488383 0.588937 -0.801727 0.10192 0.381016 -0.898446 0.218222 0.307114 -0.930958 0.197477 0.154506 -0.955014 0.253133 0.288051 -0.948909 0.128837 0.099662 -0.988515 0.113601 0.116856 -0.98953 0.084705 0.11613 0.068242 0.990887 0.281621 -0.134137 0.950104 0.127503 0.718193 0.684063 0.162588 0.787168 0.594922 -0.123836 0.79214 0.597645 -0.242978 0.658149 0.712602 -0.060943 0.6993 0.712225 -0.148185 0.803136 0.577073 -0.149109 0.806806 0.571691 -0.166624 0.785678 0.595774 -0.165068 0.786192 0.595529 -0.130455 0.763914 0.631995 -0.240286 0.630681 0.737905 -0.165048 0.61829 0.768425 -0.195058 0.732636 0.652072 0.708667 0.22357 0.669184 -0.456141 -0.56612 0.686618 -0.182357 -0.249142 0.951144 -0.046965 -0.741854 0.668915 0.124075 -0.858501 0.497576 0.373021 -0.074072 0.924862 0.127627 -0.94045 0.315063 0.447829 -0.66377 0.599048 0.466463 0.020764 0.884297 0.38114 -0.344057 0.858112 0.136112 0.096778 0.985955 0.143821 0.194769 0.970248 0.171953 -0.084227 0.981498 0.201552 -0.559546 0.803918 0.076731 -0.918688 0.387458 0.169511 0.228008 0.95879 0.153889 -0.519712 0.840368 -0.052214 0.209838 0.976341 -0.099392 -0.794689 0.598824 -0.136769 -0.77115 0.62179 0.08072 -0.915677 0.393726 -0.099958 -0.906814 0.409509 0.097559 -0.942425 0.319872 -0.146112 -0.918897 0.366442 -0.195037 -0.91062 0.364325 -0.374066 -0.915633 0.147279 -0.072843 -0.982357 0.172248 0.035702 -0.985157 0.167901 0.063376 -0.991146 0.116673 -0.226414 0.839781 0.493463 -0.813877 0.433549 0.386832 0.262781 0.694589 0.669695 0.318896 0.711231 0.626462 0.760162 -0.243985 0.602183 0.670999 -0.173623 0.720844 -0.629132 0.738032 0.24393 -0.24289 0.923076 0.298221 0.177062 0.821205 0.542468 0.708302 0.420779 0.566792 0.821207 0.417033 0.38949 0.000441 0.622452 0.782658 0.741202 0.510025 0.436455 0.177745 0.823443 0.53884 0.325626 0.743918 0.58357 0.598024 0.696365 0.39679 0.84486 0.450444 0.288638 0.906784 0.303479 0.292648 0.523131 0.131021 0.842121 -0.184458 0.417351 0.889828 -0.395135 0.300146 0.868206 0.723359 0.622311 0.299134 -0.209341 0.264502 0.94139 0.768417 0.486207 0.416098 -0.131154 0.155211 0.979136 0.300939 0.893711 0.33274 0.365245 0.88381 0.292363 0.269127 0.947833 0.170833 0.330984 -0.886603 0.323086 0.179563 -0.967354 0.178841 0.176237 -0.976012 -0.127833 0.250128 -0.948812 -0.192851 0.296023 -0.898088 0.325281 0.394875 -0.915682 0.074834 0.726811 -0.273656 0.629967 0.868105 -0.478316 0.132694 0.753459 -0.475614 0.453972 0.834348 -0.493163 0.246278 0.655973 -0.693782 -0.297265 0.828936 -0.327796 0.453227 0.822042 -0.279548 0.496084 0.829958 -0.326731 0.452125 0.864532 -0.231229 0.446225 0.904447 -0.398607 0.151947 0.869793 -0.480484 0.112226 0.729511 -0.56912 -0.379363 0.678927 -0.533738 -0.504164 0.858254 0.318143 -0.402723 0.91751 0.32114 -0.234615 0.087336 -0.996109 -0.011796 0.169633 -0.976276 -0.134569 0.169656 -0.977504 -0.125308 0.119278 -0.979044 -0.16506 0.369943 -0.877204 -0.30603 0.207074 0.810841 0.54741 0.20096 0.823679 0.530253 0.222119 0.83753 0.499205 0.197161 0.822988 0.532746 0.187069 0.827041 0.530102 0.426612 0.804227 0.413789 0.434215 0.771405 0.465179 0.983166 0.046277 -0.176757 0.721395 0.691971 0.027661 0.944865 0.005324 -0.327416 0.156969 0.80736 -0.568797 0.216423 0.734885 -0.642732 0.158301 0.808873 -0.566273 0.033115 0.844181 -0.535034 0.099545 0.880972 -0.462579 0.149017 0.885727 -0.439639 0.178278 0.877514 -0.44518 0.212162 0.87899 -0.427041 0.990769 0.066397 -0.11819 0.968732 0.147228 -0.199704 0.972377 -0.067773 -0.223362 0.980224 -0.018351 -0.19704 0.981374 -0.010959 -0.191794 0.966927 0.056046 -0.248821 0.912853 0.311015 -0.264518 0.87525 0.406118 -0.26269 0.888944 0.337123 -0.310044 0.866468 0.378496 -0.325536 0.870122 0.37036 -0.325148 0.192085 0.951452 0.240503 0.193329 0.949978 0.245285 0.047353 0.94997 0.30873 0.263238 0.911921 0.314812 0.18926 0.86526 0.464227 0.03612 0.787876 -0.614774 0.669184 0.586798 -0.455918 0.664282 0.675374 -0.32031 0.59944 0.701639 -0.385193 0.30705 0.907386 0.287004 0.547296 0.755323 -0.360491 0.080195 0.944801 0.317679 0.606702 0.724452 -0.327234 0.066611 0.982438 0.174295 0.608822 0.748563 -0.262658 -0.233893 0.660573 -0.713399 -0.284721 0.642647 -0.711294 0.055782 0.984219 0.167932 -0.386113 0.572271 -0.723479 -0.526473 0.646652 -0.551967 -0.536727 0.661726 -0.523491 -0.115583 0.977552 0.176158 -0.808378 0.588174 0.024017 -0.688964 0.704655 0.169675 -0.110362 0.993586 0.024633 0.078223 0.977512 0.195836 0.220474 0.956835 0.189364 0.208925 0.974409 0.082936 0.218829 0.959052 0.179814 0.208444 0.975504 0.070303 0.284293 0.955645 0.076945 0.264362 0.960293 0.089162 0.095295 -0.452518 0.886649 0.015033 -0.269972 0.962751 -0.053384 -0.358937 0.931834 -0.06369 -0.34576 0.936159 -0.089273 -0.376232 0.922215 0.066703 -0.317702 0.945842 0.092386 -0.232941 0.968093 -0.038933 -0.215303 0.975771 -0.217136 0.311253 0.925188 0.134694 -0.152863 0.979025 0.045319 -0.316242 0.947595 -0.124401 0.306048 0.943853 -0.069859 -0.032918 0.997014 -0.209878 0.41484 0.885358 -0.206253 -0.299519 0.93153 -0.184211 -0.066247 0.980652 -0.708092 -0.391415 0.587708 -0.918315 -0.189412 0.347593 -0.937533 -0.193501 0.289118 -0.740994 0.159306 0.652341 -0.799795 -0.015424 0.600075 -0.919544 0.017144 0.392613 -0.905515 0.194491 0.377116 -0.936623 0.036248 0.348459 -0.928987 0.143431 0.34119 -0.13585 0.30101 0.943895 -0.48658 -0.176345 0.855653 -0.293438 -0.836467 0.462836 -0.28304 -0.793365 0.538944 -0.534949 -0.784005 0.314906 -0.098125 0.10654 0.989455 -0.160393 0.015632 0.986929 -0.70366 0.144529 0.695683 -0.501954 0.460775 0.731935 -0.858479 -0.196439 0.473736 -0.567453 0.11848 0.814837 -0.895977 -0.148786 0.418435 -0.881696 -0.241316 0.405435 -0.712779 -0.289986 0.638634 -0.645698 -0.335475 0.685953 -0.081346 -0.332786 0.939487 0.002689 -0.239564 0.970877 -0.966714 -0.08717 0.240551 -0.956416 0.288197 0.047026 -0.993248 -0.005772 0.115869 -0.976391 0.212416 0.039229 -0.9897 0.109862 0.091785 -0.982135 0.03639 0.184625 -0.997872 -0.054812 0.035314 -0.975491 -0.11285 0.188896 -0.944787 -0.144798 0.293956 -0.94907 -0.154894 0.274362 -0.968403 -0.141686 0.205234 -0.942657 -0.1812 0.280295 -0.925689 -0.34909 0.145728 -0.897324 -0.40898 0.165966 -0.916959 -0.384057 0.108101 -0.834535 -0.545655 0.076241 -0.615648 -0.783937 0.080124 -0.637753 -0.76235 0.109975 -0.4753 -0.863434 0.169029 -0.436429 -0.899708 0.00747 -0.371573 -0.928393 0.004472 -0.316922 -0.946576 0.059617 -0.203487 -0.977748 0.051018 -0.122489 -0.992314 -0.017583 -0.023131 -0.999591 -0.016834 -0.178877 0.407991 0.895291 -0.230863 0.393132 0.890028 -0.20412 0.427098 0.880864 -0.16474 0.782754 0.600131 -0.38475 0.667423 0.637585 -0.42975 0.787055 0.442559 -0.811774 0.575516 0.099019 -0.956808 0.287076 0.045888 -0.8973 0.312871 0.31139 -0.906757 0.296957 0.299347 -0.951164 0.282578 0.124244 -0.963227 0.241668 0.117436 -0.981858 0.186071 0.03651 -0.976627 0.21485 -0.006303 -0.842716 0.229655 -0.486917 -0.990481 0.120019 -0.067397 -0.969875 0.164034 0.1801 -0.971224 0.183464 0.15187 -0.972584 0.153769 0.17446 -0.932158 0.123866 0.340205 -0.759372 0.647624 0.062747 -0.760874 0.648111 0.031964 -0.652806 0.755553 -0.054625 -0.40765 0.491314 0.769696 -0.692655 0.717927 0.069358 -0.705687 0.704319 0.077071 -0.61475 0.776323 0.1393 -0.238425 0.461209 0.854658 -0.458731 0.746058 0.482663 -0.452301 0.35272 0.819154 -0.487664 0.126775 0.863778 -0.225288 0.254357 0.940504 -0.383701 0.148311 0.91147 -0.383254 -0.01987 0.923429 -0.22632 0.273 0.935013 0.004492 -0.999127 -0.041545 -0.00923 -0.988661 -0.149882 -0.070953 -0.978144 -0.195447 -0.09178 -0.948555 -0.303017 0.110897 -0.903709 -0.413536 -0.113943 -0.936923 -0.330442 0.109361 -0.886828 -0.448972 -0.116998 -0.811716 -0.572214 -0.035441 -0.767033 -0.640628 -0.241077 -0.66302 -0.708721 -0.404907 -0.646571 -0.646526 -0.505824 -0.349857 -0.788506 -0.228155 -0.568101 -0.7907 -0.386772 -0.329955 -0.861125 -0.021785 -0.631233 -0.775288 -0.059998 -0.541484 -0.838568 0.056093 -0.61017 -0.790282 0.07959 -0.506255 -0.858703 -0.049148 -0.209754 -0.976518 0.03268 -0.168772 -0.985113 0.007893 0.107332 -0.994192 -0.016711 0.164426 -0.986248 -0.150455 0.223752 -0.962963 -0.031862 0.070295 -0.997017 0.00486 0.294188 -0.955735 -0.259405 0.131899 -0.956719 -0.212014 0.318412 -0.923939 -0.26282 0.268316 -0.926786 -0.245142 -0.960996 -0.12803 -0.220207 -0.967332 -0.125613 -0.275999 -0.947012 -0.164295 -0.220597 -0.925897 -0.306679 -0.422346 -0.687422 -0.590826 -0.390507 -0.904555 -0.171128 -0.566939 -0.636551 -0.52286 -0.445838 -0.883558 -0.143368 -0.714391 -0.670862 -0.198973 -0.795903 -0.312493 -0.518543 -0.87868 -0.270521 -0.39337 -0.794609 -0.235125 -0.559743 -0.624454 -0.229722 -0.746516 -0.53093 0.307765 -0.789553 -0.45541 0.360724 -0.813928 -0.751917 0.313513 -0.57994 -0.863467 -0.112617 -0.491673 -0.739454 0.271893 -0.615859 -0.843219 0.226203 -0.487662 -0.873499 -0.112944 -0.473544 -0.895536 0.154331 -0.41737 -0.891344 -0.238826 -0.385315 -0.931852 0.142047 -0.333877 -0.978386 -0.176112 -0.108375 -0.996772 -0.074064 -0.030993 0.29213 -0.893181 -0.341889 0.400269 -0.820599 -0.407925 0.461027 -0.695387 -0.551263 0.671846 -0.556536 -0.488764 0.702328 -0.632987 -0.325672 0.67578 -0.673358 -0.29985 0.597992 -0.606266 -0.524259 0.539951 -0.639089 -0.547739 0.614205 -0.697801 -0.368546 0.59012 -0.732573 -0.339257 0.599545 -0.526997 -0.602346 0.265814 0.041891 -0.963114 0.300823 0.128545 -0.944977 0.405433 -0.43158 -0.80583 0.494545 -0.54688 -0.675535 0.441367 -0.828446 -0.34478 0.399032 -0.784349 -0.474942 0.170571 -0.822962 -0.541885 0.366241 -0.888069 -0.277851 0.168757 -0.930578 -0.324877 -0.700771 0.314182 -0.640477 -0.708011 0.316499 -0.631307 -0.79529 0.36392 -0.484847 -0.695485 0.33751 -0.634341 -0.484004 0.506113 -0.713856 -0.5069 0.390362 -0.768551 -0.4571 0.356575 -0.814809 -0.46728 0.502974 -0.727095 -0.464288 0.434028 -0.772047 -0.412626 0.529505 -0.741191 -0.433971 0.442326 -0.784867 -0.406027 0.515812 -0.754374 -0.329416 0.324952 -0.886505 -0.27411 0.39471 -0.876965 -0.230475 0.326003 -0.916844 -0.145427 0.253757 -0.956273 -0.349282 0.191833 -0.917171 -0.291153 0.242186 -0.925514 -0.419754 0.509083 -0.751426 -0.255824 0.669977 -0.696911 -0.178541 0.624226 -0.760569 0.064889 0.413902 -0.908006 0.216326 0.863829 -0.454976 0.642819 0.729476 -0.233769 0.654982 0.717369 -0.237444 0.633393 0.728303 -0.261509 0.623378 0.733602 -0.270605 0.6938 0.692309 -0.198369 0.651175 0.708486 -0.272063 0.146966 0.933152 -0.328067 0.149755 0.897246 -0.41536 0.097872 0.882379 -0.460248 0.151178 0.020322 -0.988298 0.34148 -0.371097 -0.863527 0.402411 0.083383 -0.911654 0.353295 0.132045 -0.926146 0.274711 0.016287 -0.961389 0.016292 0.184469 -0.982703 0.20072 0.07496 -0.976777 0.0653 0.034515 -0.997269 0.21195 0.030933 -0.976791 0.073221 0.04506 -0.996297 0.550896 0.409759 -0.727056 0.115193 0.905977 -0.407352 0.093636 0.905589 -0.413691 0.124356 0.920095 -0.371432 0.909859 0.330234 -0.2512 0.908953 0.332965 -0.250874 0.96892 0.20789 -0.134075 0.908953 0.333002 -0.250829 0.946289 0.083209 -0.312433 0.949224 0.086817 -0.302384 0.923022 0.16451 -0.347803 0.928942 0.199078 -0.312146 0.945951 0.053957 -0.31979 0.809333 0.297697 -0.506317 0.816509 0.398044 -0.418179 0.96614 0.041573 -0.254646</float_array>
          <technique_common>
            <accessor source="#CopperOre-mesh-normals-array" count="474" stride="3">
              <param name="X" type="float"/>
              <param name="Y" type="float"/>
              <param name="Z" type="float"/>
            </accessor>
          </technique_common>
        </source>
        <source id="CopperOre-mesh-map-0">
          <float_array id="CopperOre-mesh-map-0-array" count="2844">0.02124 0.687744 0.02124 0.61499 0.071045 0.67041 0.253174 0.968506 0.209961 0.926025 0.258301 0.907227 0.253174 0.968506 0.258301 0.907227 0.330811 0.950684 0.330811 0.950684 0.258301 0.907227 0.287354 0.863281 0.287354 0.863281 0.258301 0.907227 0.22583 0.857666 0.287354 0.863281 0.22583 0.857666 0.262939 0.803223 0.287354 0.863281 0.262939 0.803223 0.333984 0.823486 0.330811 0.950684 0.287354 0.863281 0.365234 0.880371 0.365234 0.880371 0.287354 0.863281 0.333984 0.823486 0.365234 0.880371 0.333984 0.823486 0.391846 0.850098 0.391846 0.850098 0.333984 0.823486 0.350342 0.786133 0.365234 0.880371 0.391846 0.850098 0.398193 0.908691 0.365234 0.880371 0.398193 0.908691 0.330811 0.950684 0.330811 0.950684 0.398193 0.908691 0.39209 0.941895 0.330811 0.950684 0.39209 0.941895 0.366455 0.967285 0.39209 0.941895 0.398193 0.908691 0.422852 0.921631 0.366455 0.967285 0.39209 0.941895 0.390869 0.968262 0.390869 0.968262 0.39209 0.941895 0.422852 0.921631 0.464355 0.175537 0.43457 0.188232 0.417725 0.172852 0.417725 0.172852 0.43457 0.188232 0.40332 0.184326 0.417725 0.172852 0.40332 0.184326 0.364746 0.16626 0.417725 0.172852 0.364746 0.16626 0.434814 0.137451 0.364746 0.16626 0.40332 0.184326 0.359375 0.185547 0.364746 0.16626 0.359375 0.185547 0.326416 0.165771 0.364746 0.16626 0.326416 0.165771 0.361816 0.0979 0.359375 0.185547 0.40332 0.184326 0.35376 0.223633 0.35376 0.223633 0.40332 0.184326 0.415771 0.244141 0.35376 0.223633 0.415771 0.244141 0.312988 0.278076 0.241211 0.089355 0.253418 0.001953 0.361816 0.0979 0.241211 0.089355 0.361816 0.0979 0.286865 0.183838 0.286865 0.183838 0.361816 0.0979 0.326416 0.165771 0.359375 0.185547 0.35376 0.223633 0.330078 0.19751 0.359375 0.185547 0.330078 0.19751 0.326416 0.165771 0.330078 0.19751 0.35376 0.223633 0.311279 0.237061 0.311279 0.237061 0.35376 0.223633 0.312988 0.278076 0.326416 0.165771 0.330078 0.19751 0.292725 0.214355 0.326416 0.165771 0.292725 0.214355 0.286865 0.183838 0.292725 0.214355 0.330078 0.19751 0.311279 0.237061 0.286865 0.183838 0.292725 0.214355 0.254639 0.226807 0.286865 0.183838 0.254639 0.226807 0.221924 0.218994 0.292725 0.214355 0.311279 0.237061 0.257812 0.259277 0.292725 0.214355 0.257812 0.259277 0.254639 0.226807 0.257812 0.259277 0.311279 0.237061 0.312988 0.278076 0.254639 0.226807 0.257812 0.259277 0.236084 0.25708 0.257812 0.259277 0.312988 0.278076 0.278076 0.332275 0.257812 0.259277 0.278076 0.332275 0.246094 0.310791 0.278076 0.332275 0.312988 0.278076 0.320557 0.354248 0.554688 0.932861 0.492188 0.942871 0.505127 0.865967 0.554688 0.932861 0.505127 0.865967 0.527588 0.86499 0.505127 0.865967 0.492188 0.942871 0.435791 0.90918 0.435791 0.90918 0.492188 0.942871 0.422852 0.994629 0.527588 0.86499 0.505127 0.865967 0.476562 0.830566 0.476562 0.830566 0.505127 0.865967 0.435791 0.90918 0.476562 0.830566 0.435791 0.90918 0.42749 0.800781 0.527588 0.86499 0.476562 0.830566 0.552734 0.824219 0.552734 0.824219 0.476562 0.830566 0.493164 0.793701 0.935791 0.210449 0.959229 0.220703 0.943115 0.283203 0.943115 0.283203 0.959229 0.220703 0.973877 0.296387 0.943115 0.283203 0.973877 0.296387 0.95874 0.330811 0.935791 0.210449 0.943115 0.283203 0.908936 0.244141 0.935791 0.210449 0.908936 0.244141 0.923828 0.185547 0.943115 0.283203 0.95874 0.330811 0.926025 0.34668 0.943115 0.283203 0.926025 0.34668 0.908936 0.244141 0.926025 0.34668 0.95874 0.330811 0.951416 0.354736 0.837158 0.299561 0.819824 0.209229 0.908936 0.244141 0.926025 0.34668 0.951416 0.354736 0.92627 0.395996 0.92627 0.395996 0.951416 0.354736 0.972412 0.399414 0.908936 0.244141 0.926025 0.34668 0.889893 0.319824 0.908936 0.244141 0.889893 0.319824 0.837158 0.299561 0.926025 0.34668 0.92627 0.395996 0.888916 0.361084 0.926025 0.34668 0.888916 0.361084 0.889893 0.319824 0.837158 0.299561 0.889893 0.319824 0.849854 0.361084 0.849854 0.361084 0.889893 0.319824 0.888916 0.361084 0.837158 0.299561 0.849854 0.361084 0.813232 0.374512 0.813232 0.374512 0.849854 0.361084 0.844238 0.410156 0.844238 0.410156 0.849854 0.361084 0.888916 0.361084 0.844238 0.410156 0.888916 0.361084 0.92627 0.395996 0.844238 0.410156 0.92627 0.395996 0.873535 0.442383 0.873535 0.442383 0.92627 0.395996 0.919434 0.492676 0.844238 0.410156 0.873535 0.442383 0.807129 0.456299 0.873535 0.442383 0.919434 0.492676 0.861572 0.522705 0.873535 0.442383 0.861572 0.522705 0.807129 0.456299 0.115723 0.423096 0.122314 0.457764 0.113525 0.470703 0.113525 0.470703 0.122314 0.457764 0.128662 0.5 0.128662 0.5 0.122314 0.457764 0.155762 0.484863 0.155762 0.484863 0.122314 0.457764 0.142334 0.438965 0.128662 0.5 0.155762 0.484863 0.14624 0.553223 0.128662 0.5 0.14624 0.553223 0.114746 0.544678 0.114746 0.544678 0.14624 0.553223 0.119141 0.586914 0.119141 0.586914 0.14624 0.553223 0.113281 0.632812 0.113281 0.632812 0.14624 0.553223 0.157715 0.625244 0.157715 0.625244 0.14624 0.553223 0.189697 0.58252 0.189697 0.58252 0.14624 0.553223 0.185059 0.524414 0.185059 0.524414 0.14624 0.553223 0.155762 0.484863 0.189697 0.58252 0.185059 0.524414 0.222168 0.525635 0.222168 0.525635 0.185059 0.524414 0.208496 0.491455 0.208496 0.491455 0.185059 0.524414 0.155762 0.484863 0.208496 0.491455 0.155762 0.484863 0.22168 0.481201 0.123535 0.038818 0.137939 0.01709 0.180908 0.029297 0.123535 0.038818 0.180908 0.029297 0.146729 0.063721 0.123535 0.038818 0.146729 0.063721 0.132812 0.083252 0.123535 0.038818 0.132812 0.083252 0.083008 0.039062 0.146729 0.063721 0.180908 0.029297 0.185547 0.049561 0.083008 0.039062 0.132812 0.083252 0.113281 0.11084 0.132812 0.083252 0.146729 0.063721 0.157471 0.078125 0.146729 0.063721 0.185547 0.049561 0.187012 0.076416 0.146729 0.063721 0.187012 0.076416 0.157471 0.078125 0.185547 0.049561 0.180908 0.029297 0.233154 0.06958 0.185547 0.049561 0.233154 0.06958 0.187012 0.076416 0.233154 0.06958 0.180908 0.029297 0.24292 0.008057 0.157471 0.078125 0.187012 0.076416 0.190186 0.096191 0.157471 0.078125 0.190186 0.096191 0.132812 0.083252 0.187012 0.076416 0.233154 0.06958 0.2146 0.094971 0.187012 0.076416 0.2146 0.094971 0.190186 0.096191 0.2146 0.094971 0.233154 0.06958 0.23999 0.113281 0.2146 0.094971 0.23999 0.113281 0.216309 0.126465 0.2146 0.094971 0.216309 0.126465 0.190186 0.096191 0.132812 0.083252 0.190186 0.096191 0.166016 0.133057 0.166016 0.133057 0.190186 0.096191 0.216309 0.126465 0.132812 0.083252 0.166016 0.133057 0.113281 0.11084 0.166016 0.133057 0.216309 0.126465 0.18335 0.16748 0.18335 0.16748 0.216309 0.126465 0.227783 0.165527 0.18335 0.16748 0.227783 0.165527 0.212402 0.220947 0.166016 0.133057 0.18335 0.16748 0.133301 0.171875 0.166016 0.133057 0.133301 0.171875 0.113281 0.11084 0.113281 0.11084 0.133301 0.171875 0.080078 0.158691 0.729004 0.721924 0.69873 0.783203 0.698975 0.716064 0.69873 0.783203 0.729004 0.721924 0.721924 0.781738 0.700928 0.649658 0.698975 0.716064 0.680908 0.726318 0.680908 0.726318 0.698975 0.716064 0.69873 0.783203 0.680908 0.726318 0.69873 0.783203 0.668701 0.758057 0.680908 0.726318 0.668701 0.758057 0.659912 0.711914 0.69873 0.783203 0.721924 0.781738 0.694092 0.818359 0.694092 0.818359 0.721924 0.781738 0.724609 0.855469 0.724609 0.855469 0.721924 0.781738 0.816406 0.811035 0.69873 0.783203 0.694092 0.818359 0.648438 0.812744 0.69873 0.783203 0.648438 0.812744 0.668701 0.758057 0.694092 0.818359 0.724609 0.855469 0.66626 0.858154 0.694092 0.818359 0.66626 0.858154 0.648438 0.812744 0.66626 0.858154 0.724609 0.855469 0.676514 0.915039 0.66626 0.858154 0.676514 0.915039 0.635742 0.892334 0.66626 0.858154 0.635742 0.892334 0.648438 0.812744 0.648438 0.812744 0.635742 0.892334 0.62207 0.830811 0.668701 0.758057 0.648438 0.812744 0.63916 0.769531 0.668701 0.758057 0.63916 0.769531 0.659912 0.711914 0.659912 0.711914 0.63916 0.769531 0.593506 0.750488 0.659912 0.711914 0.593506 0.750488 0.607178 0.710205 0.63916 0.769531 0.648438 0.812744 0.608154 0.786621 0.63916 0.769531 0.608154 0.786621 0.593506 0.750488 0.608154 0.786621 0.648438 0.812744 0.62207 0.830811 0.593506 0.750488 0.608154 0.786621 0.547363 0.7771 0.547363 0.7771 0.608154 0.786621 0.59082 0.804932 0.59082 0.804932 0.608154 0.786621 0.62207 0.830811 0.59082 0.804932 0.62207 0.830811 0.571045 0.853027 0.593506 0.03418 0.647461 0.001953 0.622803 0.073242 0.622803 0.073242 0.647461 0.001953 0.701172 0.034668 0.622803 0.073242 0.701172 0.034668 0.672607 0.090088 0.622803 0.073242 0.672607 0.090088 0.598389 0.113525 0.593506 0.03418 0.622803 0.073242 0.591064 0.083008 0.591064 0.083008 0.622803 0.073242 0.598389 0.113525 0.593506 0.03418 0.591064 0.083008 0.529785 0.108154 0.529785 0.108154 0.591064 0.083008 0.598389 0.113525 0.593506 0.03418 0.529785 0.108154 0.501465 0 0.529785 0.108154 0.598389 0.113525 0.563965 0.136475 0.563965 0.136475 0.598389 0.113525 0.581299 0.156982 0.501465 0 0.529785 0.108154 0.456299 0.059814 0.501465 0 0.456299 0.059814 0.410156 0.008789 0.456299 0.059814 0.529785 0.108154 0.483643 0.140869 0.456299 0.059814 0.483643 0.140869 0.409424 0.091064 0.529785 0.108154 0.563965 0.136475 0.518799 0.176514 0.529785 0.108154 0.518799 0.176514 0.483643 0.140869 0.518799 0.176514 0.563965 0.136475 0.581299 0.156982 0.518799 0.176514 0.581299 0.156982 0.572754 0.220703 0.483643 0.140869 0.518799 0.176514 0.456787 0.212646 0.456787 0.212646 0.518799 0.176514 0.508301 0.225586 0.722168 0.869629 0.795166 0.842285 0.783447 0.902588 0.722168 0.869629 0.783447 0.902588 0.697021 0.916748 0.697021 0.916748 0.783447 0.902588 0.752441 0.965088 0.752441 0.965088 0.783447 0.902588 0.798828 0.972412 0.697021 0.916748 0.752441 0.965088 0.685059 0.962646 0.433594 0.670898 0.399414 0.647461 0.412354 0.60083 0.324463 0.693359 0.346436 0.639404 0.399414 0.647461 0.324463 0.693359 0.399414 0.647461 0.338867 0.710205 0.399414 0.647461 0.433594 0.670898 0.411865 0.705078 0.399414 0.647461 0.411865 0.705078 0.338867 0.710205 0.411865 0.705078 0.433594 0.670898 0.442139 0.680664 0.442139 0.680664 0.433594 0.670898 0.465576 0.659424 0.442139 0.680664 0.465576 0.659424 0.468506 0.679443 0.411865 0.705078 0.442139 0.680664 0.42627 0.713379 0.42627 0.713379 0.442139 0.680664 0.468506 0.679443 0.338867 0.710205 0.411865 0.705078 0.393066 0.727295 0.393066 0.727295 0.411865 0.705078 0.42627 0.713379 0.338867 0.710205 0.393066 0.727295 0.330566 0.739746 0.338867 0.710205 0.330566 0.739746 0.301025 0.724121 0.301025 0.724121 0.330566 0.739746 0.300049 0.749023 0.330566 0.739746 0.393066 0.727295 0.388184 0.825439 0.388184 0.825439 0.393066 0.727295 0.44165 0.774902 0.44165 0.774902 0.393066 0.727295 0.42627 0.713379 0.44165 0.774902 0.42627 0.713379 0.460449 0.760498 0.460449 0.760498 0.42627 0.713379 0.468506 0.679443 0.44165 0.774902 0.460449 0.760498 0.458252 0.811279 0.460449 0.760498 0.468506 0.679443 0.491455 0.728516 0.460449 0.760498 0.491455 0.728516 0.509277 0.791016 0.491455 0.728516 0.468506 0.679443 0.496338 0.671631 0.509277 0.791016 0.491455 0.728516 0.54541 0.756592 0.491455 0.728516 0.496338 0.671631 0.520996 0.708252 0.491455 0.728516 0.520996 0.708252 0.54541 0.756592 0.54541 0.756592 0.520996 0.708252 0.540771 0.710938 0.54541 0.756592 0.540771 0.710938 0.588623 0.74292 0.166016 0.266357 0.145996 0.302979 0.137451 0.266846 0.145996 0.302979 0.166016 0.266357 0.199463 0.293457 0.199463 0.293457 0.166016 0.266357 0.189209 0.267822 0.189209 0.267822 0.166016 0.266357 0.178223 0.242676 0.189209 0.267822 0.178223 0.242676 0.191895 0.225342 0.189209 0.267822 0.191895 0.225342 0.198975 0.268066 0.189209 0.267822 0.198975 0.268066 0.199463 0.293457 0.199463 0.293457 0.198975 0.268066 0.242188 0.268066 0.199463 0.293457 0.242188 0.268066 0.236328 0.317871 0.145996 0.302979 0.199463 0.293457 0.206787 0.324707 0.206787 0.324707 0.199463 0.293457 0.236328 0.317871 0.145996 0.302979 0.206787 0.324707 0.189209 0.373535 0.206787 0.324707 0.236328 0.317871 0.229004 0.358154 0.206787 0.324707 0.229004 0.358154 0.189209 0.373535 0.229004 0.358154 0.236328 0.317871 0.280029 0.341064 0.229004 0.358154 0.280029 0.341064 0.286865 0.358398 0.229004 0.358154 0.286865 0.358398 0.217285 0.382324 0.229004 0.358154 0.217285 0.382324 0.189209 0.373535 0.217285 0.382324 0.286865 0.358398 0.239014 0.413086 0.217285 0.382324 0.239014 0.413086 0.233643 0.467529 0.217285 0.382324 0.233643 0.467529 0.189697 0.411865 0.217285 0.382324 0.189697 0.411865 0.189209 0.373535 0.189697 0.411865 0.233643 0.467529 0.147705 0.437256 0.189697 0.411865 0.147705 0.437256 0.149902 0.398193 0.189697 0.411865 0.149902 0.398193 0.189209 0.373535 0.189209 0.373535 0.149902 0.398193 0.124756 0.356934 0.189209 0.373535 0.124756 0.356934 0.145996 0.302979 0.124756 0.356934 0.149902 0.398193 0.11377 0.380371 0.145996 0.302979 0.124756 0.356934 0.098389 0.299072 0.124756 0.356934 0.11377 0.380371 0.094238 0.36377 0.098389 0.299072 0.124756 0.356934 0.083984 0.336914 0.083984 0.336914 0.124756 0.356934 0.094238 0.36377 0.4104 0.453613 0.378662 0.515137 0.360596 0.481445 0.378662 0.515137 0.4104 0.453613 0.462402 0.516357 0.4104 0.453613 0.360596 0.481445 0.374512 0.435059 0.462402 0.516357 0.4104 0.453613 0.477051 0.471924 0.4104 0.453613 0.374512 0.435059 0.39624 0.383057 0.477051 0.471924 0.4104 0.453613 0.463867 0.410156 0.477051 0.471924 0.463867 0.410156 0.511475 0.449951 0.463867 0.410156 0.4104 0.453613 0.39624 0.383057 0.39624 0.383057 0.374512 0.435059 0.374756 0.381104 0.463867 0.410156 0.39624 0.383057 0.435059 0.359619 0.463867 0.410156 0.435059 0.359619 0.481201 0.354736 0.39624 0.383057 0.374756 0.381104 0.40332 0.347412 0.39624 0.383057 0.40332 0.347412 0.435059 0.359619 0.40332 0.347412 0.374756 0.381104 0.378662 0.327393 0.481201 0.354736 0.435059 0.359619 0.433105 0.337402 0.433105 0.337402 0.435059 0.359619 0.40332 0.347412 0.481201 0.354736 0.433105 0.337402 0.477539 0.318359 0.477539 0.318359 0.433105 0.337402 0.432129 0.29834 0.477539 0.318359 0.432129 0.29834 0.500732 0.230469 0.433105 0.337402 0.40332 0.347412 0.391846 0.316406 0.391846 0.316406 0.40332 0.347412 0.378662 0.327393 0.433105 0.337402 0.391846 0.316406 0.432129 0.29834 0.391846 0.316406 0.378662 0.327393 0.35376 0.283447 0.432129 0.29834 0.391846 0.316406 0.383057 0.265625 0.383057 0.265625 0.391846 0.316406 0.35376 0.283447 0.125488 0.661865 0.187012 0.608398 0.160156 0.695068 0.125488 0.661865 0.160156 0.695068 0.134766 0.728516 0.125488 0.661865 0.134766 0.728516 0.074951 0.668945 0.074951 0.668945 0.134766 0.728516 0.088867 0.73877 0.088867 0.73877 0.134766 0.728516 0.119385 0.803223 0.160156 0.695068 0.187012 0.608398 0.221191 0.6521 0.221191 0.6521 0.187012 0.608398 0.22998 0.542236 0.134766 0.728516 0.160156 0.695068 0.174561 0.720215 0.174561 0.720215 0.160156 0.695068 0.221191 0.6521 0.119385 0.803223 0.134766 0.728516 0.182129 0.767822 0.182129 0.767822 0.134766 0.728516 0.174561 0.720215 0.119385 0.803223 0.182129 0.767822 0.169189 0.822754 0.169189 0.822754 0.182129 0.767822 0.290283 0.789551 0.290283 0.789551 0.182129 0.767822 0.281006 0.737549 0.281006 0.737549 0.182129 0.767822 0.174561 0.720215 0.281006 0.737549 0.174561 0.720215 0.221191 0.6521 0.281006 0.737549 0.221191 0.6521 0.322266 0.680664 0.821777 0.489746 0.800781 0.502197 0.783203 0.433838 0.757324 0.47998 0.800781 0.502197 0.781982 0.527588 0.800781 0.502197 0.757324 0.47998 0.783203 0.433838 0.680908 0.456787 0.757324 0.47998 0.675537 0.500244 0.757324 0.47998 0.680908 0.456787 0.717041 0.438965 0.757324 0.47998 0.717041 0.438965 0.783203 0.433838 0.717041 0.438965 0.680908 0.456787 0.69458 0.396729 0.717041 0.438965 0.69458 0.396729 0.783203 0.433838 0.800293 0.371826 0.832031 0.412598 0.783203 0.433838 0.800293 0.371826 0.783203 0.433838 0.759277 0.368164 0.759277 0.368164 0.783203 0.433838 0.69458 0.396729 0.800293 0.371826 0.759277 0.368164 0.79834 0.338867 0.759277 0.368164 0.69458 0.396729 0.722168 0.357422 0.759277 0.368164 0.722168 0.357422 0.79834 0.338867 0.722168 0.357422 0.69458 0.396729 0.67041 0.373535 0.722168 0.357422 0.67041 0.373535 0.678955 0.35498 0.79834 0.338867 0.722168 0.357422 0.755859 0.310547 0.755859 0.310547 0.722168 0.357422 0.678955 0.35498 0.79834 0.338867 0.755859 0.310547 0.8125 0.316895 0.755859 0.310547 0.678955 0.35498 0.670654 0.319824 0.755859 0.310547 0.670654 0.319824 0.716309 0.266113 0.755859 0.310547 0.716309 0.266113 0.760498 0.256592 0.760498 0.256592 0.716309 0.266113 0.748291 0.212402 0.748291 0.212402 0.716309 0.266113 0.703125 0.219238 0.748291 0.212402 0.703125 0.219238 0.71582 0.175537 0.378418 0.599609 0.387695 0.639648 0.339355 0.607178 0.378418 0.599609 0.339355 0.607178 0.338135 0.570068 0.378418 0.599609 0.338135 0.570068 0.367188 0.553955 0.378418 0.599609 0.367188 0.553955 0.388428 0.560791 0.388428 0.560791 0.367188 0.553955 0.392334 0.540527 0.388428 0.560791 0.392334 0.540527 0.422363 0.548584 0.392334 0.540527 0.367188 0.553955 0.358398 0.519287 0.392334 0.540527 0.358398 0.519287 0.401123 0.520996 0.367188 0.553955 0.338135 0.570068 0.325195 0.549805 0.367188 0.553955 0.325195 0.549805 0.358398 0.519287 0.358398 0.519287 0.325195 0.549805 0.291016 0.482178 0.358398 0.519287 0.291016 0.482178 0.353516 0.459717 0.353516 0.459717 0.291016 0.482178 0.284424 0.419678 0.284424 0.419678 0.291016 0.482178 0.260254 0.473633 0.284424 0.419678 0.260254 0.473633 0.257568 0.402832 0.260254 0.473633 0.291016 0.482178 0.253662 0.505859 0.291016 0.482178 0.325195 0.549805 0.2854 0.541016 0.291016 0.482178 0.2854 0.541016 0.253662 0.505859 0.2854 0.541016 0.325195 0.549805 0.30835 0.571289 0.30835 0.571289 0.325195 0.549805 0.338135 0.570068 0.253662 0.505859 0.2854 0.541016 0.268311 0.562744 0.268311 0.562744 0.2854 0.541016 0.30835 0.571289 0.253662 0.505859 0.268311 0.562744 0.236572 0.512451 0.30835 0.571289 0.338135 0.570068 0.294189 0.596436 0.30835 0.571289 0.294189 0.596436 0.268311 0.562744 0.268311 0.562744 0.294189 0.596436 0.249512 0.595947 0.249512 0.595947 0.294189 0.596436 0.278809 0.61377 0.294189 0.596436 0.338135 0.570068 0.339355 0.607178 0.278809 0.61377 0.294189 0.596436 0.29248 0.635742 0.294189 0.596436 0.339355 0.607178 0.302979 0.632812 0.294189 0.596436 0.302979 0.632812 0.29248 0.635742 0.302979 0.632812 0.339355 0.607178 0.325684 0.674561 0.29248 0.635742 0.302979 0.632812 0.293701 0.666016 0.293701 0.666016 0.302979 0.632812 0.325684 0.674561 0.042725 0.691406 0.069824 0.682129 0.071045 0.764404 0.632324 0.139404 0.682129 0.090088 0.692383 0.159668 0.692383 0.159668 0.682129 0.090088 0.760742 0.148438 0.760742 0.148438 0.682129 0.090088 0.741699 0.060303 0.760742 0.148438 0.741699 0.060303 0.793457 0.126465 0.760742 0.148438 0.793457 0.126465 0.799316 0.206055 0.793457 0.126465 0.741699 0.060303 0.788086 0.049805 0.799316 0.206055 0.793457 0.126465 0.819092 0.165771 0.793457 0.126465 0.788086 0.049805 0.820312 0.093506 0.793457 0.126465 0.820312 0.093506 0.819092 0.165771 0.820312 0.093506 0.788086 0.049805 0.819092 0.040283 0.819092 0.040283 0.788086 0.049805 0.797119 0 0.819092 0.040283 0.797119 0 0.85083 0.016846 0.820312 0.093506 0.819092 0.040283 0.854248 0.077393 0.854248 0.077393 0.819092 0.040283 0.85083 0.016846 0.819092 0.165771 0.820312 0.093506 0.844238 0.155518 0.844238 0.155518 0.820312 0.093506 0.854248 0.077393 0.819092 0.165771 0.844238 0.155518 0.837158 0.209473 0.837158 0.209473 0.844238 0.155518 0.865479 0.20459 0.865479 0.20459 0.844238 0.155518 0.872803 0.136475 0.872803 0.136475 0.844238 0.155518 0.854248 0.077393 0.865479 0.20459 0.872803 0.136475 0.902344 0.19873 0.902344 0.19873 0.872803 0.136475 0.950195 0.139893 0.950195 0.139893 0.872803 0.136475 0.948242 0.051758 0.872803 0.136475 0.854248 0.077393 0.876709 0.074463 0.872803 0.136475 0.876709 0.074463 0.948242 0.051758 0.876709 0.074463 0.854248 0.077393 0.85083 0.016846 0.948242 0.051758 0.876709 0.074463 0.896484 0.023193 0.896484 0.023193 0.876709 0.074463 0.85083 0.016846 0.674805 0.546387 0.719238 0.648438 0.64917 0.628662 0.719238 0.648438 0.674805 0.546387 0.736328 0.589844 0.674805 0.546387 0.64917 0.628662 0.617188 0.558838 0.674805 0.546387 0.617188 0.558838 0.637695 0.506592 0.637695 0.506592 0.617188 0.558838 0.58667 0.5354 0.617188 0.558838 0.64917 0.628662 0.601562 0.591797 0.617188 0.558838 0.601562 0.591797 0.58667 0.5354 0.601562 0.591797 0.64917 0.628662 0.618408 0.650146 0.601562 0.591797 0.618408 0.650146 0.597412 0.646973 0.58667 0.5354 0.601562 0.591797 0.564941 0.578613 0.564941 0.578613 0.601562 0.591797 0.597412 0.646973 0.58667 0.5354 0.564941 0.578613 0.534912 0.530518 0.58667 0.5354 0.534912 0.530518 0.551025 0.481689 0.551025 0.481689 0.534912 0.530518 0.484131 0.529541 0.551025 0.481689 0.484131 0.529541 0.504395 0.46167 0.484131 0.529541 0.534912 0.530518 0.517822 0.576416 0.517822 0.576416 0.534912 0.530518 0.564941 0.578613 0.484131 0.529541 0.517822 0.576416 0.437744 0.594971 0.437744 0.594971 0.517822 0.576416 0.447998 0.645752 0.517822 0.576416 0.564941 0.578613 0.533936 0.636475 0.517822 0.576416 0.533936 0.636475 0.447998 0.645752 0.533936 0.636475 0.564941 0.578613 0.597412 0.646973 0.447998 0.645752 0.533936 0.636475 0.502197 0.664551 0.533936 0.636475 0.597412 0.646973 0.570557 0.677734 0.533936 0.636475 0.570557 0.677734 0.502197 0.664551 0.991943 0.965332 0.954346 0.977783 0.928467 0.947754 0.991943 0.965332 0.928467 0.947754 0.977295 0.935791 0.977295 0.935791 0.928467 0.947754 0.94873 0.88916 0.970215 0.850342 0.994385 0.85376 0.94873 0.88916 0.970215 0.850342 0.94873 0.88916 0.923096 0.853516 0.970215 0.850342 0.923096 0.853516 0.932617 0.83374 0.932617 0.83374 0.923096 0.853516 0.908203 0.824219 0.908203 0.824219 0.923096 0.853516 0.860596 0.847168 0.923096 0.853516 0.94873 0.88916 0.870361 0.89209 0.870361 0.89209 0.94873 0.88916 0.928467 0.947754 0.923096 0.853516 0.870361 0.89209 0.860596 0.847168 0.801514 0.830811 0.83667 0.813721 0.860596 0.847168 0.801514 0.830811 0.860596 0.847168 0.809326 0.870361 0.809326 0.870361 0.860596 0.847168 0.824463 0.899658 0.824463 0.899658 0.860596 0.847168 0.870361 0.89209 0.870361 0.89209 0.928467 0.947754 0.839111 0.938232 0.870361 0.89209 0.839111 0.938232 0.824463 0.899658 0.824463 0.899658 0.839111 0.938232 0.800293 0.933838 0.839111 0.938232 0.928467 0.947754 0.864502 0.985596 0.839111 0.938232 0.864502 0.985596 0.821045 1 0.070068 0.962402 0.077393 0.913086 0.153564 0.947021 0.153564 0.947021 0.077393 0.913086 0.209717 0.890625 0.035889 0.968262 0.029541 0.945312 0.070068 0.962402 0.070068 0.962402 0.029541 0.945312 0.077393 0.913086 0.077393 0.913086 0.029541 0.945312 0 0.89209 0.209717 0.890625 0.077393 0.913086 0.14209 0.843018 0.209717 0.890625 0.14209 0.843018 0.229004 0.827393 0.077393 0.913086 0 0.89209 0.064209 0.859375 0.077393 0.913086 0.064209 0.859375 0.14209 0.843018 0.064209 0.859375 0 0.89209 0.028076 0.804688 0.14209 0.843018 0.064209 0.859375 0.079834 0.778076 0.079834 0.778076 0.064209 0.859375 0.028076 0.804688 0.672363 0.267822 0.635986 0.349365 0.599609 0.249512 0.672363 0.267822 0.599609 0.249512 0.62915 0.189697 0.599609 0.249512 0.635986 0.349365 0.573486 0.335693 0.599609 0.249512 0.573486 0.335693 0.524414 0.271484 0.524414 0.271484 0.573486 0.335693 0.526367 0.342285 0.573486 0.335693 0.635986 0.349365 0.61792 0.373291 0.61792 0.373291 0.635986 0.349365 0.675049 0.388184 0.61792 0.373291 0.675049 0.388184 0.673828 0.407471 0.526367 0.342285 0.573486 0.335693 0.567627 0.351807 0.567627 0.351807 0.573486 0.335693 0.61792 0.373291 0.526367 0.342285 0.567627 0.351807 0.526855 0.419678 0.61792 0.373291 0.673828 0.407471 0.606201 0.409424 0.61792 0.373291 0.606201 0.409424 0.567627 0.351807 0.606201 0.409424 0.673828 0.407471 0.674561 0.459961 0.606201 0.409424 0.674561 0.459961 0.596924 0.476562 0.567627 0.351807 0.606201 0.409424 0.573486 0.38501 0.573486 0.38501 0.606201 0.409424 0.596924 0.476562 0.567627 0.351807 0.573486 0.38501 0.526855 0.419678 0.526855 0.419678 0.573486 0.38501 0.596924 0.476562 0.526855 0.419678 0.596924 0.476562 0.589355 0.526611 0.900635 0.518066 0.942627 0.549805 0.880615 0.578369 0.942627 0.549805 0.900635 0.518066 0.928955 0.494141 0.942627 0.549805 0.928955 0.494141 0.980469 0.507324 0.980469 0.507324 0.928955 0.494141 0.945312 0.471436 0.880615 0.578369 0.942627 0.549805 0.977783 0.605225 0.880615 0.578369 0.977783 0.605225 0.931885 0.672363 0.900635 0.518066 0.880615 0.578369 0.85498 0.547363 0.880615 0.578369 0.931885 0.672363 0.850342 0.652588 0.85498 0.547363 0.880615 0.578369 0.839844 0.586182 0.839844 0.586182 0.880615 0.578369 0.850342 0.652588 0.85498 0.547363 0.839844 0.586182 0.801025 0.549561 0.839844 0.586182 0.850342 0.652588 0.769531 0.615479 0.839844 0.586182 0.769531 0.615479 0.801025 0.549561 0.801025 0.549561 0.769531 0.615479 0.702881 0.544922 0.906738 0.769043 0.884766 0.716309 0.957275 0.661621 0.906738 0.769043 0.957275 0.661621 1 0.737793 0.884766 0.716309 0.906738 0.769043 0.825439 0.745605 0.906738 0.769043 1 0.737793 0.965576 0.79126 0.811035 0.757568 0.734131 0.738037 0.825439 0.745605 0.811035 0.757568 0.825439 0.745605 0.845215 0.804199 0.845215 0.804199 0.825439 0.745605 0.906738 0.769043 0.845215 0.804199 0.906738 0.769043 0.89624 0.820312 0.89624 0.820312 0.906738 0.769043 0.927979 0.817383 0.927979 0.817383 0.906738 0.769043 0.965576 0.79126 0.927979 0.817383 0.965576 0.79126 0.954102 0.825684 0.013672 0.807861 0.013672 0.6875 0.064941 0.764893</float_array>
          <technique_common>
            <accessor source="#CopperOre-mesh-map-0-array" count="1422" stride="2">
              <param name="S" type="float"/>
              <param name="T" type="float"/>
            </accessor>
          </technique_common>
        </source>
        <vertices id="CopperOre-mesh-vertices">
          <input semantic="POSITION" source="#CopperOre-mesh-positions"/>
        </vertices>
        <polylist material="Material_-1-material" count="6">
          <input semantic="VERTEX" source="#CopperOre-mesh-vertices" offset="0"/>
          <input semantic="NORMAL" source="#CopperOre-mesh-normals" offset="1"/>
          <input semantic="TEXCOORD" source="#CopperOre-mesh-map-0" offset="2" set="0"/>
          <vcount>3 3 3 3 3 3 3 3 3 3 3 3 3 3 3 3 3 3 3 3 3 3 3 3 3 3 3 3 3 3 3 3 3 3 3 3 3 3 3 3 3 3 3 3 3 3 3 3 3 3 3 3 3 3 3 3 3 3 3 3 3 3 3 3 3 3 3 3 3 3 3 3 3 3 3 3 3 3 3 3 3 3 3 3 3 3 3 3 3 3 3 3 3 3 3 3 3 3 3 3 3 3 3 3 3 3 3 3 3 3 3 3 3 3 3 3 3 3 3 3 3 3 3 3 3 3 3 3 3 3 3 3 3 3 3 3 3 3 3 3 3 3 3 3 3 3 3 3 3 3 3 3 3 3 3 3 3 3 3 3 3 3 3 3 3 3 3 3 3 3 3 3 3 3 3 3 3 3 3 3 3 3 3 3 3 3 3 3 3 3 3 3 3 3 3 3 3 3 3 3 3 3 3 3 3 3 3 3 3 3 3 3 3 3 3 3 3 3 3 3 3 3 3 3 3 3 3 3 3 3 3 3 3 3 3 3 3 3 3 3 3 3 3 3 3 3 3 3 3 3 3 3 3 3 3 3 3 3 3 3 3 3 3 3 3 3 3 3 3 3 3 3 3 3 3 3 3 3 3 3 3 3 3 3 3 3 3 3 3 3 3 3 3 3 3 3 3 3 3 3 3 3 3 3 3 3 3 3 3 3 3 3 3 3 3 3 3 3 3 3 3 3 3 3 3 3 3 3 3 3 3 3 3 3 3 3 3 3 3 3 3 3 3 3 3 3 3 3 3 3 3 3 3 3 3 3 3 3 3 3 3 3 3 3 3 3 3 3 3 3 3 3 3 3 3 3 3 3 3 3 3 3 3 3 3 3 3 3 3 3 3 3 3 3 3 3 3 3 3 3 3 3 3 3 3 3 3 3 3 3 3 3 3 3 3 3 3 3 3 3 3 3 3 3 3 3 3 3 3 3 3 3 3 3 3 3 3 3 3 3 3 3 3 3 3 3 3 3 3 3 3 3 3 3 3 3 3 3 3 3 3 3 3 3 3 3 3 3 3 3 3 3 3 3</vcount>
          <p>0 0 0 1 0 1 2 0 2 2 1 3 1 1 4 3 1 5 2 2 6 3 2 7 4 2 8 4 3 9 3 3 10 5 3 11 5 4 12 3 4 13 6 4 14 5 5 15 6 5 16 7 5 17 5 6 18 7 6 19 8 6 20 4 7 21 5 7 22 9 7 23 9 8 24 5 8 25 8 8 26 9 9 27 8 9 28 10 9 29 10 10 30 8 10 31 11 10 32 9 11 33 10 11 34 12 11 35 9 12 36 12 12 37 4 12 38 4 13 39 12 13 40 13 13 41 4 14 42 13 14 43 14 14 44 13 15 45 12 15 46 15 15 47 14 16 48 13 16 49 16 16 50 16 17 51 13 17 52 15 17 53 2 18 54 17 18 55 0 18 56 0 19 57 17 19 58 18 19 59 0 20 60 18 20 61 19 20 62 0 21 63 19 21 64 1 21 65 19 22 66 18 22 67 20 22 68 19 23 69 20 23 70 21 23 71 19 24 72 21 24 73 22 24 74 20 25 75 18 25 76 23 25 77 23 26 78 18 26 79 24 26 80 23 27 81 24 27 82 25 27 83 26 28 84 27 28 85 22 28 86 26 29 87 22 29 88 28 29 89 28 30 90 22 30 91 21 30 92 20 31 93 23 31 94 29 31 95 20 32 96 29 32 97 21 32 98 29 33 99 23 33 100 30 33 101 30 34 102 23 34 103 25 34 104 21 35 105 29 35 106 31 35 107 21 36 108 31 36 109 28 36 110 31 37 111 29 37 112 30 37 113 28 38 114 31 38 115 32 38 116 28 39 117 32 39 118 33 39 119 31 40 120 30 40 121 34 40 122 31 41 123 34 41 124 32 41 125 34 42 126 30 42 127 25 42 128 32 43 129 34 43 130 35 43 131 34 44 132 25 44 133 36 44 134 34 45 135 36 45 136 37 45 137 36 46 138 25 46 139 38 46 140 3 47 141 1 47 142 39 47 143 3 48 144 39 48 145 6 48 146 39 49 147 1 49 148 22 49 149 22 50 150 1 50 151 19 50 152 6 51 153 39 51 154 40 51 155 40 52 156 39 52 157 22 52 158 40 53 159 22 53 160 41 53 161 6 54 162 40 54 163 42 54 164 42 55 165 40 55 166 43 55 167 17 56 168 2 56 169 44 56 170 44 57 171 2 57 172 4 57 173 44 58 174 4 58 175 14 58 176 17 59 177 44 59 178 24 59 179 17 60 180 24 60 181 18 60 182 44 61 183 14 61 184 45 61 185 44 62 186 45 62 187 24 62 188 45 63 189 14 63 190 16 63 191 46 64 192 25 64 193 24 64 194 45 65 195 16 65 196 47 65 197 47 66 198 16 66 199 15 66 200 24 67 201 45 67 202 48 67 203 24 68 204 48 68 205 46 68 206 45 69 207 47 69 208 49 69 209 45 70 210 49 70 211 48 70 212 46 71 213 48 71 214 50 71 215 50 72 216 48 72 217 49 72 218 46 73 219 50 73 220 51 73 221 51 74 222 50 74 223 52 74 224 52 75 225 50 75 226 49 75 227 52 76 228 49 76 229 47 76 230 52 77 231 47 77 232 53 77 233 53 78 234 47 78 235 54 78 236 52 79 237 53 79 238 55 79 239 53 80 240 54 80 241 56 80 242 53 81 243 56 81 244 55 81 245 6 82 246 42 82 247 7 82 248 7 83 249 42 83 250 57 83 251 57 84 252 42 84 253 58 84 254 58 85 255 42 85 256 43 85 257 57 86 258 58 86 259 59 86 260 57 87 261 59 87 262 60 87 263 60 88 264 59 88 265 61 88 266 61 89 267 59 89 268 62 89 269 62 90 270 59 90 271 63 90 272 63 91 273 59 91 274 64 91 275 64 92 276 59 92 277 65 92 278 65 93 279 59 93 280 58 93 281 64 94 282 65 94 283 66 94 284 66 95 285 65 95 286 67 95 287 67 96 288 65 96 289 58 96 290 67 97 291 58 97 292 68 97 293 15 98 294 12 98 295 10 98 296 15 99 297 10 99 298 69 99 299 15 100 300 69 100 301 70 100 302 15 101 303 70 101 304 47 101 305 69 102 306 10 102 307 71 102 308 47 103 309 70 103 310 54 103 311 70 104 312 69 104 313 72 104 314 69 105 315 71 105 316 73 105 317 69 106 318 73 106 319 72 106 320 71 107 321 10 107 322 74 107 323 71 108 324 74 108 325 73 108 326 74 109 327 10 109 328 11 109 329 72 110 330 73 110 331 75 110 332 72 111 333 75 111 334 70 111 335 73 112 336 74 112 337 76 112 338 73 113 339 76 113 340 75 113 341 76 114 342 74 114 343 77 114 344 76 115 345 77 115 346 78 115 347 76 116 348 78 116 349 75 116 350 70 117 351 75 117 352 79 117 353 79 118 354 75 118 355 78 118 356 70 119 357 79 119 358 54 119 359 79 120 360 78 120 361 80 120 362 80 121 363 78 121 364 81 121 365 80 122 366 81 122 367 82 122 368 79 123 369 80 123 370 83 123 371 79 124 372 83 124 373 54 124 374 54 125 375 83 125 376 56 125 377 40 126 378 84 126 379 43 126 380 84 127 381 40 127 382 41 127 383 58 128 384 43 128 385 68 128 386 68 129 387 43 129 388 84 129 389 68 130 390 84 130 391 85 130 392 68 131 393 85 131 394 67 131 395 84 132 396 41 132 397 86 132 398 86 133 399 41 133 400 27 133 401 27 134 402 41 134 403 22 134 404 84 135 405 86 135 406 87 135 407 84 136 408 87 136 409 85 136 410 86 137 411 27 137 412 88 137 413 86 138 414 88 138 415 87 138 416 88 139 417 27 139 418 89 139 419 88 140 420 89 140 421 90 140 422 88 141 423 90 141 424 87 141 425 87 142 426 90 142 427 91 142 428 85 143 429 87 143 430 92 143 431 85 144 432 92 144 433 67 144 434 67 145 435 92 145 436 93 145 437 67 146 438 93 146 439 66 146 440 92 147 441 87 147 442 94 147 443 92 148 444 94 148 445 93 148 446 94 149 447 87 149 448 91 149 449 93 150 450 94 150 451 95 150 452 95 151 453 94 151 454 96 151 455 96 152 456 94 152 457 91 152 458 96 153 459 91 153 460 97 153 461 51 154 462 52 154 463 98 154 464 98 155 465 52 155 466 55 155 467 98 156 468 55 156 469 99 156 470 98 157 471 99 157 472 100 157 473 51 158 474 98 158 475 101 158 476 101 159 477 98 159 478 100 159 479 51 160 480 101 160 481 102 160 482 102 161 483 101 161 484 100 161 485 51 162 486 102 162 487 46 162 488 102 163 489 100 163 490 103 163 491 103 164 492 100 164 493 104 164 494 46 165 495 102 165 496 38 165 497 46 166 498 38 166 499 25 166 500 38 167 501 102 167 502 105 167 503 38 168 504 105 168 505 36 168 506 102 169 507 103 169 508 106 169 509 102 170 510 106 170 511 105 170 512 106 171 513 103 171 514 104 171 515 106 172 516 104 172 517 107 172 518 105 173 519 106 173 520 108 173 521 108 174 522 106 174 523 109 174 524 55 175 525 56 175 526 110 175 527 55 176 528 110 176 529 99 176 530 99 177 531 110 177 532 111 177 533 111 178 534 110 178 535 112 178 536 99 179 537 111 179 538 113 179 539 33 180 540 26 180 541 28 180 542 89 181 543 27 181 544 26 181 545 89 182 546 26 182 547 114 182 548 26 183 549 33 183 550 115 183 551 26 184 552 115 184 553 114 184 554 115 185 555 33 185 556 116 185 557 116 186 558 33 186 559 32 186 560 116 187 561 32 187 562 35 187 563 115 188 564 116 188 565 117 188 566 117 189 567 116 189 568 35 189 569 114 190 570 115 190 571 118 190 572 118 191 573 115 191 574 117 191 575 114 192 576 118 192 577 119 192 578 114 193 579 119 193 580 120 193 581 120 194 582 119 194 583 121 194 584 119 195 585 118 195 586 122 195 587 122 196 588 118 196 589 123 196 590 123 197 591 118 197 592 117 197 593 123 198 594 117 198 595 124 198 596 124 199 597 117 199 598 35 199 599 123 200 600 124 200 601 125 200 602 124 201 603 35 201 604 126 201 605 124 202 606 126 202 607 127 202 608 126 203 609 35 203 610 34 203 611 127 204 612 126 204 613 108 204 614 126 205 615 34 205 616 37 205 617 126 206 618 37 206 619 108 206 620 108 207 621 37 207 622 36 207 623 108 208 624 36 208 625 105 208 626 90 209 627 97 209 628 91 209 629 97 210 630 90 210 631 128 210 632 128 211 633 90 211 634 129 211 635 129 212 636 90 212 637 89 212 638 129 213 639 89 213 640 114 213 641 129 214 642 114 214 643 120 214 644 129 215 645 120 215 646 128 215 647 128 216 648 120 216 649 121 216 650 128 217 651 121 217 652 130 217 653 97 218 654 128 218 655 131 218 656 131 219 657 128 219 658 130 219 659 97 220 660 131 220 661 132 220 662 131 221 663 130 221 664 133 221 665 131 222 666 133 222 667 132 222 668 133 223 669 130 223 670 134 223 671 133 224 672 134 224 673 135 224 674 133 225 675 135 225 676 136 225 677 133 226 678 136 226 679 132 226 680 136 227 681 135 227 682 137 227 683 136 228 684 137 228 685 138 228 686 136 229 687 138 229 688 139 229 689 136 230 690 139 230 691 132 230 692 139 231 693 138 231 694 140 231 695 139 232 696 140 232 697 141 232 698 139 233 699 141 233 700 132 233 701 132 234 702 141 234 703 142 234 704 132 235 705 142 235 706 97 235 707 142 236 708 141 236 709 143 236 710 97 237 711 142 237 712 96 237 713 142 238 714 143 238 715 144 238 716 96 239 717 142 239 718 95 239 719 95 240 720 142 240 721 144 240 722 145 241 723 7 241 724 57 241 725 7 242 726 145 242 727 8 242 728 145 243 729 57 243 730 60 243 731 8 244 732 145 244 733 11 244 734 145 245 735 60 245 736 146 245 737 11 246 738 145 246 739 147 246 740 11 247 741 147 247 742 148 247 743 147 248 744 145 248 745 146 248 746 146 249 747 60 249 748 61 249 749 147 250 750 146 250 751 149 250 752 147 251 753 149 251 754 150 251 755 146 252 756 61 252 757 151 252 758 146 253 759 151 253 760 149 253 761 151 254 762 61 254 763 62 254 764 150 255 765 149 255 766 152 255 767 152 256 768 149 256 769 151 256 770 150 257 771 152 257 772 153 257 773 153 258 774 152 258 775 154 258 776 153 259 777 154 259 778 155 259 779 152 260 780 151 260 781 156 260 782 156 261 783 151 261 784 62 261 785 152 262 786 156 262 787 154 262 788 156 263 789 62 263 790 157 263 791 154 264 792 156 264 793 158 264 794 158 265 795 156 265 796 157 265 797 77 266 798 74 266 799 159 266 800 77 267 801 159 267 802 160 267 803 77 268 804 160 268 805 78 268 806 78 269 807 160 269 808 81 269 809 81 270 810 160 270 811 161 270 812 159 271 813 74 271 814 148 271 815 148 272 816 74 272 817 11 272 818 160 273 819 159 273 820 162 273 821 162 274 822 159 274 823 148 274 824 161 275 825 160 275 826 163 275 827 163 276 828 160 276 829 162 276 830 161 277 831 163 277 832 164 277 833 164 278 834 163 278 835 153 278 836 153 279 837 163 279 838 150 279 839 150 280 840 163 280 841 162 280 842 150 281 843 162 281 844 148 281 845 150 282 846 148 282 847 147 282 848 154 283 849 158 283 850 155 283 851 165 284 852 158 284 853 166 284 854 158 285 855 165 285 856 155 285 857 167 286 858 165 286 859 168 286 860 165 287 861 167 287 862 169 287 863 165 288 864 169 288 865 155 288 866 169 289 867 167 289 868 170 289 869 169 290 870 170 290 871 155 290 872 164 291 873 153 291 874 155 291 875 164 292 876 155 292 877 171 292 878 171 293 879 155 293 880 170 293 881 164 294 882 171 294 883 161 294 884 171 295 885 170 295 886 172 295 887 171 296 888 172 296 889 161 296 890 172 297 891 170 297 892 173 297 893 172 298 894 173 298 895 174 298 896 161 299 897 172 299 898 82 299 899 82 300 900 172 300 901 174 300 902 161 301 903 82 301 904 81 301 905 82 302 906 174 302 907 175 302 908 82 303 909 175 303 910 176 303 911 82 304 912 176 304 913 80 304 914 80 305 915 176 305 916 83 305 917 83 306 918 176 306 919 177 306 920 83 307 921 177 307 922 56 307 923 64 308 924 66 308 925 178 308 926 64 309 927 178 309 928 179 309 929 64 310 930 179 310 931 180 310 932 64 311 933 180 311 934 63 311 935 63 312 936 180 312 937 157 312 938 63 313 939 157 313 940 62 313 941 157 314 942 180 314 943 166 314 944 157 315 945 166 315 946 158 315 947 180 316 948 179 316 949 181 316 950 180 317 951 181 317 952 166 317 953 166 318 954 181 318 955 182 318 956 166 319 957 182 319 958 165 319 959 165 320 960 182 320 961 168 320 962 168 321 963 182 321 964 183 321 965 168 322 966 183 322 967 184 322 968 183 323 969 182 323 970 185 323 971 182 324 972 181 324 973 186 324 974 182 325 975 186 325 976 185 325 977 186 326 978 181 326 979 187 326 980 187 327 981 181 327 982 179 327 983 185 328 984 186 328 985 140 328 986 140 329 987 186 329 988 187 329 989 185 330 990 140 330 991 138 330 992 187 331 993 179 331 994 188 331 995 187 332 996 188 332 997 140 332 998 140 333 999 188 333 1000 141 333 1001 141 334 1002 188 334 1003 143 334 1004 188 335 1005 179 335 1006 178 335 1007 143 336 1008 188 336 1009 144 336 1010 188 337 1011 178 337 1012 189 337 1013 188 338 1014 189 338 1015 144 338 1016 189 339 1017 178 339 1018 93 339 1019 144 340 1020 189 340 1021 95 340 1022 95 341 1023 189 341 1024 93 341 1025 66 342 1026 93 342 1027 178 342 1028 56 343 1029 177 343 1030 110 343 1031 110 344 1032 177 344 1033 112 344 1034 112 345 1035 177 345 1036 190 345 1037 112 346 1038 190 346 1039 191 346 1040 112 347 1041 191 347 1042 192 347 1043 191 348 1044 190 348 1045 193 348 1046 192 349 1047 191 349 1048 194 349 1049 191 350 1050 193 350 1051 195 350 1052 191 351 1053 195 351 1054 194 351 1055 195 352 1056 193 352 1057 196 352 1058 196 353 1059 193 353 1060 197 353 1061 196 354 1062 197 354 1063 198 354 1064 195 355 1065 196 355 1066 199 355 1067 199 356 1068 196 356 1069 198 356 1070 194 357 1071 195 357 1072 200 357 1073 200 358 1074 195 358 1075 199 358 1076 194 359 1077 200 359 1078 201 359 1079 201 360 1080 200 360 1081 202 360 1082 202 361 1083 200 361 1084 203 361 1085 203 362 1086 200 362 1087 199 362 1088 202 363 1089 203 363 1090 204 363 1091 204 364 1092 203 364 1093 205 364 1094 205 365 1095 203 365 1096 206 365 1097 203 366 1098 199 366 1099 207 366 1100 203 367 1101 207 367 1102 206 367 1103 207 368 1104 199 368 1105 198 368 1106 206 369 1107 207 369 1108 208 369 1109 208 370 1110 207 370 1111 198 370 1112 190 371 1113 176 371 1114 175 371 1115 176 372 1116 190 372 1117 177 372 1118 190 373 1119 175 373 1120 209 373 1121 190 374 1122 209 374 1123 193 374 1124 193 375 1125 209 375 1126 197 375 1127 209 376 1128 175 376 1129 210 376 1130 209 377 1131 210 377 1132 197 377 1133 210 378 1134 175 378 1135 174 378 1136 210 379 1137 174 379 1138 173 379 1139 197 380 1140 210 380 1141 211 380 1142 211 381 1143 210 381 1144 173 381 1145 197 382 1146 211 382 1147 212 382 1148 197 383 1149 212 383 1150 198 383 1151 198 384 1152 212 384 1153 213 384 1154 198 385 1155 213 385 1156 208 385 1157 213 386 1158 212 386 1159 214 386 1160 214 387 1161 212 387 1162 211 387 1163 213 388 1164 214 388 1165 184 388 1166 184 389 1167 214 389 1168 168 389 1169 214 390 1170 211 390 1171 215 390 1172 214 391 1173 215 391 1174 168 391 1175 215 392 1176 211 392 1177 173 392 1178 168 393 1179 215 393 1180 167 393 1181 215 394 1182 173 394 1183 170 394 1184 215 395 1185 170 395 1186 167 395 1187 100 396 1188 99 396 1189 113 396 1190 100 397 1191 113 397 1192 104 397 1193 104 398 1194 113 398 1195 107 398 1196 109 399 1197 106 399 1198 107 399 1199 109 400 1200 107 400 1201 216 400 1202 109 401 1203 216 401 1204 217 401 1205 217 402 1206 216 402 1207 218 402 1208 218 403 1209 216 403 1210 219 403 1211 216 404 1212 107 404 1213 220 404 1214 220 405 1215 107 405 1216 113 405 1217 216 406 1218 220 406 1219 219 406 1220 204 407 1221 221 407 1222 219 407 1223 204 408 1224 219 408 1225 202 408 1226 202 409 1227 219 409 1228 201 409 1229 201 410 1230 219 410 1231 220 410 1232 220 411 1233 113 411 1234 192 411 1235 220 412 1236 192 412 1237 201 412 1238 201 413 1239 192 413 1240 194 413 1241 192 414 1242 113 414 1243 111 414 1244 192 415 1245 111 415 1246 112 415 1247 183 416 1248 222 416 1249 184 416 1250 184 417 1251 222 417 1252 213 417 1253 185 418 1254 138 418 1255 183 418 1256 183 419 1257 138 419 1258 222 419 1259 222 420 1260 138 420 1261 137 420 1262 213 421 1263 222 421 1264 223 421 1265 213 422 1266 223 422 1267 208 422 1268 222 423 1269 137 423 1270 224 423 1271 222 424 1272 224 424 1273 223 424 1274 224 425 1275 137 425 1276 135 425 1277 223 426 1278 224 426 1279 225 426 1280 225 427 1281 224 427 1282 135 427 1283 223 428 1284 225 428 1285 206 428 1286 223 429 1287 206 429 1288 208 429 1289 206 430 1290 225 430 1291 226 430 1292 206 431 1293 226 431 1294 205 431 1295 205 432 1296 226 432 1297 227 432 1298 226 433 1299 225 433 1300 228 433 1301 228 434 1302 225 434 1303 135 434 1304 228 435 1305 135 435 1306 134 435 1307 227 436 1308 226 436 1309 229 436 1310 229 437 1311 226 437 1312 228 437 1313 227 438 1314 229 438 1315 122 438 1316 228 439 1317 134 439 1318 230 439 1319 228 440 1320 230 440 1321 229 440 1322 230 441 1323 134 441 1324 130 441 1325 230 442 1326 130 442 1327 121 442 1328 229 443 1329 230 443 1330 231 443 1331 231 444 1332 230 444 1333 121 444 1334 229 445 1335 231 445 1336 122 445 1337 122 446 1338 231 446 1339 121 446 1340 122 447 1341 121 447 1342 119 447 1343 232 448 1344 221 448 1345 233 448 1346 221 449 1347 232 449 1348 234 449 1349 221 450 1350 234 450 1351 219 450 1352 219 451 1353 234 451 1354 218 451 1355 233 452 1356 221 452 1357 204 452 1358 233 453 1359 204 453 1360 205 453 1361 232 454 1362 233 454 1363 235 454 1364 233 455 1365 205 455 1366 227 455 1367 235 456 1368 233 456 1369 236 456 1370 236 457 1371 233 457 1372 227 457 1373 235 458 1374 236 458 1375 237 458 1376 236 459 1377 227 459 1378 122 459 1379 236 460 1380 122 460 1381 237 460 1382 237 461 1383 122 461 1384 123 461 1385 238 462 1386 127 462 1387 108 462 1388 238 463 1389 108 463 1390 109 463 1391 127 464 1392 238 464 1393 125 464 1394 238 465 1395 109 465 1396 217 465 1397 237 466 1398 123 466 1399 125 466 1400 237 467 1401 125 467 1402 235 467 1403 235 468 1404 125 468 1405 238 468 1406 235 469 1407 238 469 1408 232 469 1409 232 470 1410 238 470 1411 234 470 1412 234 471 1413 238 471 1414 217 471 1415 234 472 1416 217 472 1417 218 472 1418 125 473 1419 124 473 1420 127 473 1421</p>
        </polylist>
      </mesh>
    </geometry>
  </library_geometries>
  <library_visual_scenes>
    <visual_scene id="Scene" name="Scene">
      <node id="CopperOre" name="CopperOre" type="NODE">
        <scale sid="scale">1 1 1</scale>
        <translate sid="location">0 0 0</translate>
        <rotate sid="rotationX">1 0 0 0</rotate>
        <rotate sid="rotationY">0 1 0 0</rotate>
        <rotate sid="rotationZ">0 0 1 0</rotate>
        <instance_geometry url="#CopperOre-mesh" name="CopperOre">
          <bind_material>
            <technique_common>
            </technique_common>
          </bind_material>
        </instance_geometry>
      </node>
    </visual_scene>
  </library_visual_scenes>
  <scene>
    <instance_visual_scene url="#Scene"/>
  </scene>
</COLLADA>
