<?xml version="1.0" encoding="utf-8"?>
<COLLADA xmlns="http://www.collada.org/2005/11/COLLADASchema" version="1.4.1" xmlns:xsi="http://www.w3.org/2001/XMLSchema-instance">
  <asset>
    <contributor>
      <author>Blockbench user</author>
      <authoring_tool>Blockbench</authoring_tool>
    </contributor>
    <created>2026-03-08T10:21:04.846Z</created>
    <modified>2026-03-08T10:21:04.860Z</modified>
    <unit name="meter" meter="1.0"/>
    <up_axis>Y_UP</up_axis>
  </asset>
  <library_effects>
  </library_effects>
  <library_images>
  </library_images>
  <library_materials>
  </library_materials>
  <library_geometries>
    <geometry id="CornMush1-mesh" name="CornMush1">
      <mesh>
        <source id="CornMush1-mesh-positions">
          <float_array id="CornMush1-mesh-positions-array" count="756">-0.225494 -0.212021 -0.301697 -0.391724 -0.108757 -0.235764 -0.206375 -0.136169 -0.383881 -0.281891 -0.061768 -0.373016 -0.0821 -0.033825 -0.466217 -0.352295 -0.184418 -0.199066 -0.454803 -0.041306 -0.122284 -0.266357 -0.261658 -0.166977 -0.209854 -0.265717 -0.230453 -0.229568 -0.327972 -0.194061 -0.077766 -0.178513 -0.405334 -0.153152 -0.263397 -0.275269 -0.198013 -0.294556 -0.169098 -0.244919 -0.295959 -0.09491 -0.091461 -0.329559 -0.288574 0.009825 -0.294403 -0.277374 -0.046749 -0.268127 -0.312897 0.101837 -0.195938 -0.383209 0.033291 -0.328979 -0.298248 0.172119 -0.332031 -0.246307 0.153397 -0.262482 -0.284973 0.089043 -0.099762 -0.447784 0.262421 -0.171524 -0.325378 0.069305 0.170151 -0.498138 0.16861 -0.019022 -0.44574 -0.403534 0.201431 -0.308929 -0.473633 0.198196 -0.173172 -0.45285 0.202805 -0.139923 -0.273346 0.204559 -0.423523 -0.171539 0.176041 -0.473877 -0.343872 0.199295 -0.324799 -0.16925 0.19841 -0.438538 -0.230911 0.084305 -0.379669 -0.383362 0.108002 -0.232056 -0.301727 0.105705 -0.328888 -0.22467 0.139328 -0.303284 -0.177032 0.12561 -0.350037 -0.114281 0.139526 -0.333679 -0.107201 0.177643 -0.273102 -0.289398 0.126785 -0.266571 -0.204803 0.14267 -0.264923 -0.144699 0.190247 -0.252106 -0.206619 0.19841 -0.164902 -0.262939 0.169739 -0.214905 -0.283752 0.188095 -0.10537 -0.325378 0.131393 -0.214157 -0.33136 0.130997 -0.184296 -0.432861 0.093361 -0.112427 -0.324951 0.159607 -0.102394 -0.303131 -0.271027 -0.065308 -0.295929 -0.325836 0.022762 -0.302612 -0.266937 0.078209 -0.256561 -0.326508 0.167755 -0.277252 -0.322754 0.037834 -0.23938 -0.294586 0.115372 -0.083389 -0.294586 0.255035 -0.386505 -0.201279 -0.004024 -0.338379 -0.203293 0.182327 -0.435547 -0.123749 -0.064751 -0.474457 -0.018253 0.013611 -0.4198 -0.146561 0.083504 -0.434845 -0.063988 0.163025 -0.401123 -0.106842 0.197678 -0.501831 0.203568 -0.007298 -0.481232 0.201294 0.154495 -0.431183 0.200882 0.187439 -0.469696 0.203705 0.053928 -0.446289 0.099876 0.035187 -0.410706 0.10022 0.173386 -0.377808 0.126816 0.108032 -0.385101 0.134064 -0.085724 -0.354431 0.143692 0.02659 -0.335724 0.16188 0.127548 -0.279205 0.170685 0.121613 -0.274292 0.200897 -0.004885 -0.229767 0.216187 0.097336 -0.194168 0.247574 0.02944 -0.201508 0.233887 -0.035702 -0.131119 0.270477 0.043922 -0.100471 0.278839 -0.037563 -0.068016 0.280121 0.030912 -0.049641 0.203674 -0.500122 0.154388 0.204269 -0.480408 0.089722 0.200211 -0.459656 0.25592 0.197891 -0.400482 -0.036434 0.196686 -0.465424 -0.097176 0.108459 -0.43689 0.140091 0.08284 -0.422363 -0.07164 0.15242 -0.339935 -0.033226 0.199127 -0.308746 0.054401 0.169861 -0.29657 0.070694 0.108673 -0.443176 -0.026499 0.084419 -0.442627 0.03791 0.135696 -0.373383 0.118233 0.150284 -0.329651 0.198746 0.137405 -0.358765 -0.176544 0.217239 -0.160721 -0.138748 0.243973 -0.207703 -0.050735 0.221085 -0.20784 -0.127777 0.243378 -0.124916 -0.054153 0.269012 -0.097557 -0.008375 0.288605 -0.059074 -0.005409 0.307465 0.01911 0.036205 0.214401 -0.216431 0.125732 0.189362 -0.243561 -0.030699 0.300385 -0.177994 0.030109 0.264099 -0.12487 0.070053 0.291351 -0.164536 -0.223602 -0.321106 0.175323 -0.018805 -0.326752 0.302704 -0.141754 -0.323639 0.268616 -0.228043 -0.267853 0.215942 -0.153503 -0.259857 0.280182 -0.041451 -0.26236 0.31546 -0.094559 -0.202484 0.377533 -0.218765 -0.192215 0.328644 -0.192032 -0.113602 0.403992 -0.33606 -0.112366 0.293884 -0.324829 -0.054375 0.337891 -0.193604 0.00653 0.438324 -0.411255 0.172379 0.29306 -0.324768 0.200424 0.386078 -0.23793 0.201736 0.445831 -0.338623 0.20137 0.332214 -0.180069 0.199982 0.437531 -0.35199 0.097221 0.272217 -0.236694 0.100624 0.373535 -0.094513 0.090096 0.435089 -0.158661 0.120171 0.372101 -0.309692 0.139496 0.200424 -0.22644 0.12767 0.29306 -0.224701 0.176117 0.226883 -0.167999 0.15802 0.291931 -0.095886 0.170166 0.307129 -0.125443 0.20549 0.242737 0.140518 -0.260864 0.290985 0.13237 -0.331024 0.271576 0.074402 -0.297882 0.259705 0.215302 -0.294556 0.156006 0.05088 -0.201462 0.385803 0.203583 -0.225311 0.304321 0.192215 -0.155853 0.378479 0.060337 -0.086296 0.455902 0.195343 -0.001926 0.437866 -0.022934 -0.124069 0.441071 -0.072151 -0.009414 0.468964 -0.086754 0.20282 0.49411 0.083557 0.202988 0.500061 0.272491 0.200439 0.423492 0.134979 0.198456 0.452393 -0.052715 0.12252 0.448334 0.073593 0.100777 0.443542 0.124199 0.077423 0.427551 -0.052689 0.147537 0.394653 -0.012841 0.145081 0.349152 0.020531 0.086464 0.443359 0.078003 0.122978 0.394409 0.061844 0.159012 0.315216 0.143784 0.143539 0.365173 -0.154312 0.247986 0.101456 -0.02066 0.27951 0.116959 -0.129318 0.229904 0.1642 0.039429 0.284088 0.042271 0.079697 0.264801 0.119492 0.105713 0.269867 0.045471 0.048191 0.220352 0.223618 0.125229 0.217941 0.27594 0.148972 0.17659 0.264954 0.090805 0.238388 0.186447 0.172638 0.220779 0.173965 0.16188 0.244522 0.118057 0.136627 0.289459 0.130692 0.196014 0.199448 0.167572 0.215775 0.212402 0.116539 0.175217 0.258209 0.044167 -0.015009 0.237 0.208969 0.005902 0.196381 0.291779 0.280457 -0.028839 -0.382935 0.309662 0.204742 -0.400513 0.365906 -0.020323 -0.304932 0.45575 0.195847 -0.218262 0.438538 -0.053616 -0.164734 0.383575 -0.123528 -0.225067 0.422516 -0.157684 -0.050034 0.353333 -0.206757 -0.15361 0.296082 -0.277863 -0.108452 0.412018 -0.163666 0.074371 0.31015 -0.267273 0.046535 0.301483 -0.324707 -0.050785 0.29834 -0.327393 0.035374 0.238724 -0.29541 -0.128357 0.26001 -0.296021 0.037235 0.411407 0.200577 -0.294708 0.439941 0.200607 -0.170364 0.397156 0.095284 -0.207687 0.339294 0.097176 -0.296387 0.3703 0.13945 -0.16066 0.246689 0.095337 -0.373383 0.299774 0.144913 -0.285309 0.285828 0.147964 -0.232025 0.312103 0.200684 -0.169098 0.315887 0.168686 -0.122459 0.20845 0.161896 -0.246902 0.147919 0.197784 -0.286407 0.203461 0.184372 -0.213089 0.123024 0.220322 -0.187088 0.178665 0.237885 -0.193176 0.214005 0.205734 -0.138657 0.290894 0.208893 -0.134903 0.250702 0.194778 -0.055252 0.497833 0.200455 -0.100052 0.496399 0.187668 0.09494 0.4711 -0.033119 0.025326 0.474487 0.204575 -0.018927 0.45639 0.200363 0.220459 0.426788 -0.044682 0.194916 0.434967 0.198975 0.181 0.447021 0.098259 -0.068909 0.445038 0.097733 0.073494 0.411774 0.105186 0.184021 0.351685 0.147659 0.110771 0.377808 0.150162 -0.062336 0.399231 0.14003 0.04438 0.314728 0.177246 -0.033131 0.288513 0.221176 -0.027901 0.294617 0.184921 0.058159 0.324677 0.156586 0.152054 0.246506 0.209473 0.025042 0.106644 0.250824 -0.177841 0.107552 0.264374 -0.145996 0.127441 0.289246 -0.050152 0.067253 0.289581 -0.03775 0.072571 0.33371 0.006195 0.159348 0.255981 -0.078293 0.228653 0.252594 -0.103745 0.206879 0.246048 -0.045967 0.163681 0.284668 0.003984 0.245224 0.256317 -0.012511 0.243927 -0.328888 0.166489 0.271973 -0.269348 0.159882 0.353912 -0.152069 0.243195 0.360779 -0.057777 0.296844 0.298096 -0.028376 0.367523 0.381165 0.199249 0.330322 0.317169 0.200134 0.348297 0.239746 0.10627 0.376678 0.33606 0.104393 0.300201 0.243271 0.128998 0.301727 0.325653 0.138824 0.212097 0.22522 0.16716 0.255127 0.269257 0.180511 0.156174 0.115494 0.173828 0.305359</float_array>
          <technique_common>
            <accessor source="#CornMush1-mesh-positions-array" count="252" stride="3">
              <param name="X" type="float"/>
              <param name="Y" type="float"/>
              <param name="Z" type="float"/>
            </accessor>
          </technique_common>
        </source>
        <source id="CornMush1-mesh-normals">
          <float_array id="CornMush1-mesh-normals-array" count="1500">-0.575975 -0.52956 -0.622752 -0.584561 -0.500012 -0.638965 -0.379251 -0.255045 -0.88945 -0.84119 -0.51631 -0.160696 -0.585093 -0.579883 -0.566923 -0.509773 -0.745535 -0.429312 -0.535494 -0.726758 -0.430196 -0.743557 -0.145992 -0.65254 -0.329046 -0.654544 -0.680662 -0.27258 -0.380089 -0.883874 -0.368501 -0.779473 -0.506586 -0.592491 -0.258405 -0.763008 -0.280757 -0.721133 -0.633359 0.548957 -0.766835 0.332581 0.365427 -0.75343 0.546631 -0.533422 -0.341781 -0.773723 0.243593 -0.850383 0.466381 -0.254678 -0.735619 -0.627697 -0.335722 -0.125292 -0.933591 0.016713 -0.715076 -0.698846 0.070032 -0.4803 0.874304 -0.07172 -0.321621 -0.944149 -0.284369 -0.629524 0.723072 0.314245 -0.395273 -0.863139 0.139483 -0.054551 -0.988721 0.105493 -0.796726 -0.595062 0.04894 -0.552269 -0.832228 -0.050645 -0.388641 -0.919996 0.360564 -0.486402 -0.795869 0.036237 -0.180711 -0.982869 0.417508 -0.390673 -0.820403 0.193521 -0.166232 -0.966911 -0.736492 -0.181731 -0.651578 -0.87826 -0.1412 -0.45686 -0.140732 0.988829 -0.049105 -0.654265 -0.120593 -0.746589 -0.471711 -0.149657 -0.86896 0.036446 0.999332 0.00251 0.061305 0.993418 0.096764 0.073811 0.991665 0.105605 0.541216 0.135677 0.829866 0.854222 0.139339 0.500889 0.612703 0.243054 0.75201 0.732132 0.303037 0.610042 -0.163364 0.806786 -0.567811 -0.304314 0.784539 -0.540269 -0.1056 0.919957 -0.377528 -0.143324 0.845111 -0.51502 -0.317458 0.915565 -0.246902 -0.279509 0.924946 -0.257583 -0.329396 0.940016 0.088699 -0.262228 0.545685 -0.795905 -0.503233 0.750932 -0.427618 0.254835 0.942978 -0.21413 -0.012288 0.873355 -0.486929 -0.409172 0.793627 -0.450261 -0.287952 0.934055 -0.211244 -0.284969 0.917847 -0.276312 -0.48309 0.778814 -0.400091 -0.357658 0.931969 -0.05929 -0.521854 0.847918 -0.093297 -0.557233 0.795176 -0.239138 -0.372583 0.927106 -0.040698 -0.564466 0.792036 -0.232503 -0.872982 -0.342452 -0.347318 -0.581496 -0.763592 -0.280695 -0.825805 -0.506619 -0.247756 0.867095 -0.418939 0.269511 -0.992842 -0.119232 0.006988 -0.909907 -0.334359 0.245505 0.210827 -0.97557 -0.061765 0.262083 -0.956357 -0.129208 0.611068 -0.791502 -0.010928 0.038599 -0.99924 0.005508 0.000084 -1 -0.000093 0.000613 -1 -0.000236 -0.630852 -0.77552 0.024382 -0.706466 -0.683675 -0.183015 -0.7076 -0.684512 0.175343 -0.757456 -0.625553 -0.186934 -0.84232 -0.426609 -0.329397 -0.954214 -0.285394 -0.089591 -0.848103 -0.529762 0.008567 -0.927113 -0.372516 0.041155 -0.6951 -0.698042 0.171969 -0.936453 -0.316436 0.151409 -0.770754 -0.552029 0.318123 -0.852022 -0.435302 0.29081 -0.899898 -0.157184 -0.406789 -0.980277 -0.11171 -0.163026 -0.98389 -0.132709 -0.119784 -0.986164 -0.110009 0.124009 -0.964986 -0.162106 0.206213 -0.001113 0.999899 0.014195 0.043334 0.998748 -0.024979 -0.09831 0.99393 0.049375 -0.184893 0.982542 -0.020629 0.929962 0.257088 -0.262824 0.943254 0.225864 -0.243428 0.976318 0.199399 0.083918 0.880487 0.260348 0.396183 0.975407 0.205515 0.079659 -0.470509 0.874338 0.118969 -0.61615 0.782403 -0.090581 -0.513296 0.802259 -0.304808 -0.42463 0.903014 0.065233 -0.427203 0.903305 0.039223 -0.438271 0.858687 -0.265661 -0.384641 0.922702 0.025938 -0.633983 0.77304 -0.021792 -0.167131 0.975254 -0.144728 -0.58976 0.806809 -0.035243 -0.524252 0.832644 0.178502 -0.57049 0.819736 -0.050728 -0.625511 0.764013 0.158178 -0.534404 0.838381 0.10737 -0.455505 0.880151 -0.133604 -0.477259 0.852036 -0.21508 -0.303562 0.938759 -0.163038 -0.406686 0.911634 -0.05941 -0.141143 0.988806 0.048385 -0.391202 -0.199511 -0.898419 -0.1843 -0.114175 -0.976216 -0.285569 0.462557 -0.83934 -0.022457 -0.138281 -0.990138 0.095126 0.959064 0.266733 0.091849 0.269157 -0.958707 0.252911 -0.132684 -0.958348 -0.016592 0.98975 0.141842 -0.026211 0.993299 0.11256 0.049035 0.982586 0.179224 -0.036932 0.976834 0.210787 0.197505 0.175921 0.964388 0.333457 0.283657 0.89908 -0.351014 0.803181 -0.481341 -0.129584 0.943356 -0.30543 -0.329473 0.154557 0.931429 -0.316968 0.892409 -0.32115 -0.317742 0.818821 -0.478092 -0.458934 0.722621 -0.516913 0.252065 0.385422 -0.887645 -0.206357 0.21476 0.954618 0.149682 0.209462 0.966292 -0.050223 0.194478 0.97962 0.253654 0.854097 -0.454069 -0.040675 0.185223 0.981854 0.014437 0.912447 -0.408939 -0.047082 0.823195 -0.565803 -0.21973 0.870557 -0.440283 0.387891 0.906146 -0.168644 0.062177 0.906905 -0.416723 0.155068 0.815917 -0.556986 -0.089623 0.795241 -0.599633 -0.210301 0.972084 -0.104047 -0.447997 0.802897 -0.393262 -0.497384 0.841389 -0.211361 -0.807762 0.426133 -0.407346 -0.202301 0.637102 -0.743757 0.189764 0.733621 -0.652526 -0.512839 0.85528 0.074109 0.251555 0.967483 -0.026383 -0.350365 0.916716 -0.192035 -0.166549 0.90243 -0.397342 -0.3987 0.886406 -0.235206 -0.207033 0.927339 -0.311737 0.115342 0.990624 -0.073215 -0.307687 0.944527 -0.114878 -0.423372 0.884225 -0.197237 -0.382512 0.886805 -0.259349 0.055081 0.977592 -0.203175 0.339909 0.852683 -0.396729 0.105042 0.879173 -0.46478 0.061992 0.906786 -0.417009 -0.063654 0.365579 -0.928601 -0.941472 0.297518 -0.158475 0.800383 0.441477 0.405568 -0.104732 0.871106 -0.479797 -0.741917 0.567335 -0.357337 -0.070901 0.920479 -0.384306 0.902465 -0.252321 -0.349129 0.4092 -0.789728 -0.457039 0.512768 -0.205699 -0.833521 0.174024 -0.983141 -0.056122 -0.023503 -0.999702 -0.006523 0.203956 -0.957292 -0.204926 -0.62784 -0.288598 0.722861 -0.878712 0.036198 0.475978 -0.547682 -0.78434 0.2913 -0.6168 -0.24902 0.746691 -0.297266 -0.223104 0.928363 -0.201748 -0.785485 0.585073 -0.301658 -0.730228 0.613001 -0.381663 -0.752636 0.536538 -0.337702 -0.588921 0.734255 -0.5418 -0.645958 0.537765 -0.585861 -0.649774 0.484315 -0.534392 -0.483064 0.693595 -0.713317 -0.535914 0.451637 -0.809073 -0.247736 0.532942 -0.549198 -0.435084 0.713501 -0.516604 -0.24152 0.821455 -0.818395 -0.212135 0.534069 -0.895147 -0.142948 0.42223 -0.82373 -0.209821 0.52673 -0.68137 0.567313 0.462484 -0.705918 -0.131455 0.695988 0.010371 0.999941 -0.00325 -0.55852 -0.15401 0.815069 -0.55322 -0.157082 0.818091 -0.033012 0.999116 0.026039 -0.054674 0.998004 0.031591 0.026466 0.999294 -0.026675 0.825462 0.198461 -0.528418 0.837982 0.238955 -0.490598 0.541694 0.214731 -0.812686 0.617167 0.33179 -0.713457 0.395726 0.327178 -0.858112 -0.189164 0.797214 0.573295 -0.410922 0.870601 0.270549 -0.395985 0.90275 0.168045 -0.269546 0.922665 0.275744 -0.228075 0.931322 0.283937 -0.276018 0.890483 0.361737 -0.687516 0.587957 0.426179 -0.111691 0.938045 0.328019 -0.436023 0.881698 0.180257 -0.469377 0.718313 0.513529 -0.410009 0.805422 0.428004 -0.379683 0.751191 0.539956 -0.238209 0.867252 0.437184 -0.318187 0.804687 0.501234 -0.263294 -0.275735 0.924471 0.133035 -0.147369 0.980094 0.185842 -0.28197 0.941252 -0.178405 -0.593227 -0.785019 -0.000793 -0.829431 -0.558608 -0.019133 -0.998133 -0.05801 0.085403 -0.806019 0.585696 0.250246 -0.69625 0.672765 -0.033449 -0.733473 0.678895 0.256522 -0.685504 0.681381 0.210934 -0.520818 0.827197 0.333004 -0.345291 0.87743 -0.040903 -0.606206 0.794255 0.086305 -0.523157 0.847855 -0.215651 -0.488234 0.845649 -0.054699 -0.258136 0.964559 -0.22179 -0.319342 0.92132 -0.268592 -0.267935 0.92524 -0.258657 -0.131187 0.957019 -0.301855 -0.104983 0.947556 -0.03455 -0.119933 0.992181 0.009452 -0.151636 0.988391 0.231159 -0.16492 0.958836 0.373598 -0.076767 0.924409 -0.043998 0.988962 -0.141488 0.002241 0.995733 -0.092251 0.009713 0.998556 -0.052834 0.017679 0.009744 -0.999796 0.143066 0.363589 0.920508 0.181191 0.162627 -0.969908 -0.020049 0.102715 -0.994509 -0.203066 0.214192 -0.955451 -0.64184 0.695184 0.323667 -0.316671 0.689285 0.651617 -0.198398 0.95389 -0.225237 0.428943 0.818704 0.381749 0.451136 0.820622 0.350793 -0.021716 0.093232 -0.995408 -0.067695 0.836179 0.544263 -0.241971 0.892173 0.381415 0.484963 0.779799 0.395885 0.016867 0.911369 0.411245 0.121911 0.661783 0.739717 -0.090977 0.899302 0.42776 -0.389394 0.896725 0.210373 -0.375102 0.904614 0.202418 -0.250294 0.931676 0.26331 -0.13426 0.987638 0.080903 -0.253525 0.897939 0.359765 -0.375408 0.840054 0.391636 -0.437445 0.744427 0.50445 -0.402004 0.901259 0.161634 -0.314207 0.902057 0.295916 -0.106424 0.589328 0.800854 -0.03995 0.998778 0.029079 0.138639 0.975411 0.171327 0.201454 0.969844 0.137181 0.121174 0.899165 0.420498 -0.354243 0.75175 0.556222 0.503158 0.479854 -0.718729 0.131835 0.824041 0.550978 -0.063927 0.924666 0.375376 0.25377 0.842505 0.475169 0.245714 0.914941 0.320169 0.239331 0.959317 0.149773 -0.331751 0.372215 0.866832 0.057397 0.299991 -0.952214 0.875513 0.48184 0.036159 0.689119 0.705173 0.16687 0.480289 0.787651 0.385912 0.501511 0.829955 0.244258 -0.21926 0.880508 0.420274 -0.175745 0.937571 0.300124 0.143009 0.901779 0.407852 -0.110685 0.880958 0.460067 0.143505 0.902365 0.40638 0.332945 0.805687 0.489914 -0.137417 0.840472 0.524141 0.181398 0.702906 0.687763 -0.097771 0.757546 0.645418 -0.047699 0.813369 0.57979 -0.250252 0.795802 0.551429 0.42616 -0.384238 -0.818992 0.477394 -0.125141 -0.869733 0.675174 -0.138937 -0.724456 0.649618 -0.353603 -0.673024 0.859654 -0.16319 -0.484112 0.838798 -0.236053 -0.490609 0.674771 -0.375946 -0.635097 0.856828 -0.435731 -0.275654 0.629655 -0.624976 -0.461454 0.798676 -0.531871 -0.281477 0.717676 -0.678206 -0.158042 0.545592 -0.715937 -0.435619 0.683278 -0.72981 0.022566 0.715265 -0.698642 -0.017187 0.469982 -0.761562 -0.446252 0.336129 -0.688406 -0.642739 0.76334 -0.144553 -0.629616 0.99588 0.003268 -0.090618 0.73482 -0.49114 -0.467784 0.979765 -0.197955 0.02957 -0.795149 -0.282346 0.536674 -0.378855 -0.924473 -0.042641 -0.280916 -0.860159 0.425691 -0.62917 -0.773342 0.078023 -0.006031 -0.999979 0.002506 -0.031718 -0.999497 0.000389 0.850851 -0.15198 -0.502945 0.174319 0.983867 -0.04024 0.713749 -0.115041 -0.690889 0.054012 0.99846 -0.012635 -0.855498 0.174805 0.487407 0.455101 -0.108237 -0.883837 -0.122842 0.96468 0.23303 -0.798635 0.290304 0.527169 -0.086336 0.680547 0.7276 0.576082 0.733774 -0.360146 -0.621658 0.251935 0.741667 -0.428037 0.266704 0.863513 0.281089 0.584762 -0.760948 0.516377 0.574804 -0.634788 0.401438 0.673266 -0.620935 0.778115 0.604955 0.169016 0.384558 0.852753 -0.353451 -0.027391 0.997555 -0.064288 0.594982 0.476256 -0.647439 0.63583 0.65954 0.400909 -0.952236 0.210217 0.221484 0.214627 0.950042 -0.226618 0.076191 0.972621 -0.219553 0.63262 0.266608 -0.727126 -0.711189 0.661391 -0.23827 0.246515 0.823473 -0.511002 0.638064 0.681311 -0.358733 -0.010501 0.982185 0.187625 0.338611 0.903213 -0.26372 0.234806 0.857059 -0.458603 -0.187205 0.265217 -0.94584 0.836716 0.483441 -0.257276 0.367895 0.878669 -0.304294 0.057803 -0.262202 -0.96328 -0.04793 0.987403 0.150793 0.935129 -0.134826 -0.327652 0.08748 0.993712 -0.06988 0.993505 -0.113792 -0.000156 0.047565 0.998182 -0.037005 0.382499 0.921788 0.063261 0.938184 -0.146046 0.313816 0.438271 0.897511 0.048924 -0.085004 0.996319 0.011104 -0.965101 0.147643 0.216291 -0.911432 0.256142 0.322 -0.976181 0.104684 -0.190032 -0.966695 0.255624 -0.012517 -0.929816 0.220441 -0.2947 0.678377 0.687739 -0.258494 0.497833 0.862414 0.091673 0.586668 0.799023 -0.131848 0.39735 0.908509 -0.12932 0.674181 0.738467 0.012116 0.596716 0.801261 -0.043715 0.539675 0.78815 0.295923 0.359887 0.929173 -0.08437 0.39739 0.91762 0.007347 0.310834 0.943582 0.114177 0.853975 0.518878 -0.038642 0.17223 0.951346 0.255496 0.388203 0.333919 -0.858951 0.518509 0.854019 0.042427 0.856977 0.493864 0.14727 0.46629 0.877073 0.115397 0.209932 0.906264 0.366897 0.947884 -0.290403 -0.131078 0.970985 -0.189459 -0.145922 0.917556 -0.393276 0.058518 0.917383 -0.333676 0.216951 0.954002 -0.183955 0.236728 -0.002979 0.729936 -0.683509 0.219321 0.477368 -0.850892 0.821989 0.515076 -0.242962 0.651707 0.691047 -0.312622 0.822125 0.515036 -0.242588 0.181438 0.715704 0.674424 -0.068181 0.969036 -0.237321 -0.048477 0.964038 -0.261306 -0.13892 0.707141 -0.693291 0.074961 0.948022 -0.30925 -0.029317 0.997868 0.058304 0.537081 0.815139 -0.217007 0.537927 0.782094 -0.314585 0.655221 0.6254 -0.423745 0.346514 0.851001 -0.39462 -0.185086 0.789303 0.585444 -0.241317 0.627169 -0.740557 0.91586 0.012689 -0.401298 0.103251 0.983233 0.150307 0.548145 0.780362 -0.300951 0.397736 0.859638 -0.320671 -0.128706 0.977212 0.168797 0.764524 0.5755 0.29035 0.078234 0.551523 0.830483 -0.879827 0.384399 -0.279537 0.151353 0.844979 0.512936 0.165589 0.963916 0.208439 0.765546 0.615965 0.185812 0.578939 0.809924 0.094092 0.586968 0.791168 0.171818 0.394752 0.912955 0.103359 -0.64953 0.464678 0.601818 0.620854 0.500608 0.603268 0.1797 0.571901 -0.800398 0.471955 0.530874 -0.703869 0.743414 0.57294 0.345072 -0.000014 -1 -0.000346 -0.349983 -0.791572 -0.500924 -0.531845 -0.619676 -0.577185 -0.702493 -0.66396 -0.256244 0.662924 -0.270151 0.698248 -0.61839 -0.739819 -0.265069 0.677306 -0.241943 0.694781 0.860886 -0.366334 0.353093 0.921788 -0.237906 0.306117 0.373542 -0.823072 0.427808 0.667819 -0.713533 0.211869 0.533505 -0.704849 0.467504 0.681493 -0.675737 0.280975 0.532691 -0.57541 0.6206 0.844559 -0.429203 0.320164 0.810344 -0.333239 0.48197 0.584337 -0.433044 0.686311 0.838129 -0.15574 0.522767 0.5826 -0.424324 0.6932 0.475843 -0.324989 0.817285 0.709184 -0.146086 0.689722 0.81791 -0.137636 0.558641 0.646043 -0.112378 0.754983 0.533455 -0.14417 0.833451 0.020638 0.999493 0.024266 0.01523 0.999872 0.004993 -0.02264 0.999482 -0.022866 -0.017448 0.999744 -0.014422 -0.803631 0.180462 -0.567107 -0.491784 0.146105 -0.858371 -0.438338 0.218013 -0.871969 0.163895 0.650847 0.741307 -0.596794 0.263055 -0.75805 -0.83323 0.108007 -0.542275 0.3163 0.903604 0.288883 0.249643 0.923347 0.291735 0.471654 0.873628 0.119651 0.427873 0.85783 0.284698 0.422052 0.871175 0.250852 0.37547 0.877434 0.29855 0.220052 0.794767 0.565617 0.399199 0.880946 0.254114 0.401223 0.90451 0.144507 0.422319 0.894035 0.149494 0.28454 0.897138 0.337905 0.286118 0.883769 0.370255 0.350663 0.910577 0.218825 0.173306 0.793814 0.582944 0.154721 0.942578 0.295987 0.328728 0.891717 0.311094 0.664024 0.59004 0.459265 0.302987 0.900273 0.312583 0.735734 0.255842 0.627089 -0.143846 0.853776 0.500375 -0.000393 0.554895 0.83192</float_array>
          <technique_common>
            <accessor source="#CornMush1-mesh-normals-array" count="500" stride="3">
              <param name="X" type="float"/>
              <param name="Y" type="float"/>
              <param name="Z" type="float"/>
            </accessor>
          </technique_common>
        </source>
        <source id="CornMush1-mesh-map-0">
          <float_array id="CornMush1-mesh-map-0-array" count="3000">0.14502 0.502197 0.195312 0.476562 0.158203 0.530273 0.158203 0.530273 0.195312 0.476562 0.186768 0.525391 0.158203 0.530273 0.186768 0.525391 0.15918 0.579346 0.172119 0.466064 0.220459 0.445801 0.195312 0.476562 0.172119 0.466064 0.195312 0.476562 0.14502 0.502197 0.172119 0.466064 0.14502 0.502197 0.139648 0.461914 0.139648 0.461914 0.14502 0.502197 0.129883 0.482666 0.139648 0.461914 0.129883 0.482666 0.118164 0.466064 0.125488 0.548096 0.14502 0.502197 0.158203 0.530273 0.125488 0.548096 0.158203 0.530273 0.15918 0.579346 0.129883 0.482666 0.14502 0.502197 0.119873 0.501465 0.129883 0.482666 0.119873 0.501465 0.118164 0.466064 0.119873 0.501465 0.14502 0.502197 0.125488 0.548096 0.104736 0.461182 0.111084 0.438232 0.118164 0.466064 0.104736 0.461182 0.118164 0.466064 0.094971 0.502441 0.094971 0.502441 0.118164 0.466064 0.119873 0.501465 0.104736 0.461182 0.094971 0.502441 0.068115 0.514648 0.119873 0.501465 0.125488 0.548096 0.098633 0.523926 0.119873 0.501465 0.098633 0.523926 0.094971 0.502441 0.098633 0.523926 0.125488 0.548096 0.085938 0.578125 0.068115 0.514648 0.094971 0.502441 0.071045 0.5271 0.071045 0.5271 0.094971 0.502441 0.098633 0.523926 0.068115 0.514648 0.071045 0.5271 0.035889 0.546875 0.035889 0.546875 0.071045 0.5271 0.055176 0.557617 0.055176 0.557617 0.071045 0.5271 0.098633 0.523926 0.055176 0.557617 0.098633 0.523926 0.085938 0.578125 0.085938 0.578125 0.125488 0.548096 0.111084 0.597656 0.111084 0.597656 0.125488 0.548096 0.15918 0.579346 0.085938 0.578125 0.111084 0.597656 0.051025 0.609619 0.111084 0.597656 0.15918 0.579346 0.165527 0.64917 0.051025 0.609619 0.111084 0.597656 0.109131 0.628418 0.109131 0.628418 0.111084 0.597656 0.165527 0.64917 0.75293 0.795166 0.602783 0.714355 0.755127 0.6875 0.602783 0.714355 0.75293 0.795166 0.584229 0.791016 0.602783 0.714355 0.584229 0.791016 0.563477 0.791504 0.755127 0.6875 0.602783 0.714355 0.628174 0.629883 0.755127 0.6875 0.628174 0.629883 0.675293 0.601807 0.602783 0.714355 0.563477 0.791504 0.586914 0.685791 0.602783 0.714355 0.586914 0.685791 0.628174 0.629883 0.628174 0.629883 0.586914 0.685791 0.600586 0.573486 0.600586 0.573486 0.586914 0.685791 0.531738 0.609619 0.586914 0.685791 0.563477 0.791504 0.521729 0.726074 0.531738 0.609619 0.586914 0.685791 0.535156 0.659424 0.535156 0.659424 0.586914 0.685791 0.521729 0.726074 0.531738 0.609619 0.535156 0.659424 0.494385 0.635742 0.531738 0.609619 0.494385 0.635742 0.494385 0.601074 0.494385 0.601074 0.494385 0.635742 0.466064 0.582764 0.466064 0.582764 0.494385 0.635742 0.438721 0.599121 0.494385 0.635742 0.535156 0.659424 0.501221 0.677002 0.501221 0.677002 0.535156 0.659424 0.521729 0.726074 0.438721 0.599121 0.494385 0.635742 0.469238 0.639893 0.438721 0.599121 0.469238 0.639893 0.42749 0.625244 0.42749 0.625244 0.469238 0.639893 0.422607 0.668945 0.469238 0.639893 0.494385 0.635742 0.462891 0.68042 0.469238 0.639893 0.462891 0.68042 0.422607 0.668945 0.462891 0.68042 0.494385 0.635742 0.501221 0.677002 0.422607 0.668945 0.462891 0.68042 0.421875 0.719727 0.501221 0.677002 0.521729 0.726074 0.490479 0.709473 0.501221 0.677002 0.490479 0.709473 0.462891 0.68042 0.490479 0.709473 0.521729 0.726074 0.480713 0.723389 0.490479 0.709473 0.480713 0.723389 0.462891 0.68042 0.462891 0.68042 0.480713 0.723389 0.421875 0.719727 0.480713 0.723389 0.521729 0.726074 0.473877 0.759277 0.421875 0.719727 0.480713 0.723389 0.4375 0.734619 0.545166 0.100342 0.586426 0.086914 0.547363 0.141357 0.545166 0.100342 0.547363 0.141357 0.501709 0.0979 0.547363 0.141357 0.586426 0.086914 0.571533 0.173584 0.571533 0.173584 0.586426 0.086914 0.598633 0.12793 0.547363 0.141357 0.571533 0.173584 0.542725 0.190918 0.542725 0.190918 0.571533 0.173584 0.560791 0.213135 0.560791 0.213135 0.571533 0.173584 0.577637 0.182861 0.577637 0.182861 0.571533 0.173584 0.598633 0.12793 0.577637 0.182861 0.598633 0.12793 0.600342 0.203369 0.600342 0.203369 0.598633 0.12793 0.626953 0.115234 0.600342 0.203369 0.626953 0.115234 0.668457 0.237061 0.668457 0.237061 0.626953 0.115234 0.704102 0.083008 0.547363 0.141357 0.542725 0.190918 0.501953 0.161621 0.547363 0.141357 0.501953 0.161621 0.501709 0.0979 0.501953 0.161621 0.542725 0.190918 0.504639 0.21875 0.501709 0.0979 0.501953 0.161621 0.465332 0.139648 0.501709 0.0979 0.465332 0.139648 0.443115 0.112793 0.443115 0.112793 0.465332 0.139648 0.413086 0.167236 0.465332 0.139648 0.501953 0.161621 0.470947 0.185791 0.465332 0.139648 0.470947 0.185791 0.413086 0.167236 0.470947 0.185791 0.501953 0.161621 0.504639 0.21875 0.413086 0.167236 0.470947 0.185791 0.435303 0.210449 0.470947 0.185791 0.504639 0.21875 0.457275 0.222412 0.470947 0.185791 0.457275 0.222412 0.435303 0.210449 0.558838 0.376953 0.417969 0.415527 0.449707 0.357666 0.558838 0.376953 0.449707 0.357666 0.559814 0.30127 0.559814 0.30127 0.449707 0.357666 0.45874 0.295654 0.559814 0.30127 0.45874 0.295654 0.554932 0.227783 0.554932 0.227783 0.45874 0.295654 0.43335 0.227783 0.559814 0.30127 0.554932 0.227783 0.606934 0.220703 0.558838 0.376953 0.559814 0.30127 0.579102 0.276611 0.579102 0.276611 0.559814 0.30127 0.606934 0.220703 0.558838 0.376953 0.579102 0.276611 0.570801 0.364014 0.579102 0.276611 0.606934 0.220703 0.620605 0.302002 0.620605 0.302002 0.606934 0.220703 0.647705 0.243652 0.570801 0.364014 0.579102 0.276611 0.62207 0.357422 0.570801 0.364014 0.62207 0.357422 0.614014 0.415527 0.62207 0.357422 0.579102 0.276611 0.620605 0.302002 0.620605 0.302002 0.647705 0.243652 0.659668 0.276611 0.62207 0.357422 0.620605 0.302002 0.650635 0.345703 0.62207 0.357422 0.650635 0.345703 0.668457 0.393066 0.620605 0.302002 0.659668 0.276611 0.664795 0.315186 0.620605 0.302002 0.664795 0.315186 0.650635 0.345703 0.668457 0.393066 0.650635 0.345703 0.679443 0.355469 0.679443 0.355469 0.650635 0.345703 0.664795 0.315186 0.664795 0.315186 0.659668 0.276611 0.685791 0.273193 0.664795 0.315186 0.685791 0.273193 0.709961 0.282471 0.679443 0.355469 0.664795 0.315186 0.704346 0.308838 0.704346 0.308838 0.664795 0.315186 0.709961 0.282471 0.679443 0.355469 0.704346 0.308838 0.702148 0.354492 0.704346 0.308838 0.709961 0.282471 0.740479 0.273193 0.704346 0.308838 0.740479 0.273193 0.749023 0.309326 0.704346 0.308838 0.749023 0.309326 0.73291 0.334961 0.704346 0.308838 0.73291 0.334961 0.702393 0.386963 0.73291 0.334961 0.749023 0.309326 0.779541 0.314941 0.73291 0.334961 0.779541 0.314941 0.778809 0.354248 0.778809 0.354248 0.779541 0.314941 0.803955 0.331299 0.92334 0.94751 0.813965 0.935059 0.871094 0.888428 0.871094 0.888428 0.813965 0.935059 0.786133 0.893799 0.786133 0.893799 0.813965 0.935059 0.803223 0.96875 0.871094 0.888428 0.786133 0.893799 0.789062 0.844727 0.786133 0.893799 0.803223 0.96875 0.786377 0.938965 0.789062 0.844727 0.786133 0.893799 0.758545 0.825684 0.789062 0.844727 0.758545 0.825684 0.790527 0.768066 0.758545 0.825684 0.786133 0.893799 0.753174 0.852539 0.758545 0.825684 0.753174 0.852539 0.72583 0.799072 0.786133 0.893799 0.786377 0.938965 0.77124 0.895264 0.786133 0.893799 0.77124 0.895264 0.753174 0.852539 0.77124 0.895264 0.786377 0.938965 0.740234 0.931152 0.740234 0.931152 0.786377 0.938965 0.734375 0.980225 0.740234 0.931152 0.734375 0.980225 0.714844 0.967041 0.740234 0.931152 0.714844 0.967041 0.70166 0.952393 0.72583 0.799072 0.753174 0.852539 0.697998 0.852295 0.740234 0.931152 0.70166 0.952393 0.696777 0.938232 0.696777 0.938232 0.70166 0.952393 0.675781 0.96167 0.696777 0.938232 0.675781 0.96167 0.673096 0.939209 0.696777 0.938232 0.673096 0.939209 0.661133 0.903076 0.697998 0.852295 0.753174 0.852539 0.718994 0.872559 0.729004 0.906494 0.77124 0.895264 0.740234 0.931152 0.77124 0.895264 0.729004 0.906494 0.753174 0.852539 0.729004 0.906494 0.740234 0.931152 0.696777 0.938232 0.753174 0.852539 0.729004 0.906494 0.718994 0.872559 0.696777 0.938232 0.661133 0.903076 0.693115 0.894287 0.696777 0.938232 0.693115 0.894287 0.729004 0.906494 0.729004 0.906494 0.693115 0.894287 0.718994 0.872559 0.718994 0.872559 0.693115 0.894287 0.697998 0.852295 0.693115 0.894287 0.661133 0.903076 0.662842 0.87793 0.693115 0.894287 0.662842 0.87793 0.697998 0.852295 0.697998 0.852295 0.662842 0.87793 0.658936 0.854004 0.961914 0.869629 0.907471 0.901123 0.850098 0.869141 0.450195 0.097168 0.396729 0.141113 0.389404 0.119385 0.389404 0.119385 0.396729 0.141113 0.310547 0.144531 0.450195 0.097168 0.389404 0.119385 0.407959 0.081299 0.450195 0.097168 0.407959 0.081299 0.471191 0.077637 0.471191 0.077637 0.407959 0.081299 0.433105 0.028564 0.407959 0.081299 0.389404 0.119385 0.360107 0.088623 0.407959 0.081299 0.360107 0.088623 0.433105 0.028564 0.360107 0.088623 0.389404 0.119385 0.310547 0.144531 0.433105 0.028564 0.360107 0.088623 0.334961 0.041748 0.360107 0.088623 0.310547 0.144531 0.29834 0.074707 0.360107 0.088623 0.29834 0.074707 0.334961 0.041748 0.334961 0.041748 0.29834 0.074707 0.25293 0.056885 0.334961 0.041748 0.25293 0.056885 0.306885 0.012695 0.306885 0.012695 0.25293 0.056885 0.255127 0.012451 0.528809 0.0896 0.475586 0.09375 0.496582 0.025879 0.528809 0.0896 0.496582 0.025879 0.557373 0.020996 0.528809 0.0896 0.557373 0.020996 0.588867 0.076416 0.588867 0.076416 0.557373 0.020996 0.619629 0.020752 0.588867 0.076416 0.619629 0.020752 0.635742 0.087158 0.524658 1 0.572754 0.911377 0.596436 0.964844 0.596436 0.964844 0.572754 0.911377 0.684326 0.993408 0.596436 0.964844 0.684326 0.993408 0.524658 1 0.122803 0.685303 0.070557 0.636963 0.174561 0.657227 0.070557 0.636963 0.122803 0.685303 0.083008 0.700928 0.122803 0.685303 0.174561 0.657227 0.177734 0.697266 0.411133 0.715088 0.395752 0.73999 0.409668 0.680664 0.395752 0.73999 0.411133 0.715088 0.457275 0.788574 0.395752 0.73999 0.457275 0.788574 0.456299 0.823486 0.409668 0.680664 0.395752 0.73999 0.383545 0.723389 0.395752 0.73999 0.456299 0.823486 0.407227 0.800293 0.395752 0.73999 0.407227 0.800293 0.383545 0.723389 0.383545 0.723389 0.407227 0.800293 0.354004 0.756836 0.383545 0.723389 0.354004 0.756836 0.336914 0.682129 0.336914 0.682129 0.354004 0.756836 0.289307 0.720459 0.354004 0.756836 0.407227 0.800293 0.363281 0.80835 0.363281 0.80835 0.407227 0.800293 0.382324 0.857422 0.363281 0.80835 0.382324 0.857422 0.334717 0.870361 0.363281 0.80835 0.334717 0.870361 0.30835 0.811768 0.363281 0.80835 0.30835 0.811768 0.354004 0.756836 0.30835 0.811768 0.334717 0.870361 0.275146 0.857422 0.289307 0.720459 0.354004 0.756836 0.240967 0.776855 0.240967 0.776855 0.354004 0.756836 0.30835 0.811768 0.240967 0.776855 0.30835 0.811768 0.275146 0.857422 0.289307 0.720459 0.240967 0.776855 0.22583 0.725342 0.22583 0.725342 0.240967 0.776855 0.210205 0.797363 0.210205 0.797363 0.240967 0.776855 0.275146 0.857422 0.210205 0.797363 0.275146 0.857422 0.219971 0.886963 1 0.644043 0.979004 0.669189 0.92334 0.530762 1 0.644043 0.92334 0.530762 1 0.508057 0.92334 0.530762 0.979004 0.669189 0.895752 0.6521 1 0.508057 0.92334 0.530762 0.857666 0.526855 0.857666 0.526855 0.92334 0.530762 0.895752 0.6521 1 0.508057 0.857666 0.526855 0.970703 0.500244 0.857666 0.526855 0.895752 0.6521 0.805176 0.536133 0.805176 0.536133 0.895752 0.6521 0.807861 0.637207 0.857666 0.526855 0.805176 0.536133 0.875488 0.504883 0.857666 0.526855 0.875488 0.504883 0.970703 0.500244 0.875488 0.504883 0.805176 0.536133 0.780273 0.520264 0.970703 0.500244 0.875488 0.504883 0.910645 0.449463 0.970703 0.500244 0.910645 0.449463 0.96875 0.447754 0.875488 0.504883 0.780273 0.520264 0.812988 0.462646 0.875488 0.504883 0.812988 0.462646 0.910645 0.449463 0.812988 0.462646 0.780273 0.520264 0.734619 0.466553 0.812988 0.462646 0.734619 0.466553 0.776855 0.444092 0.96875 0.447754 0.910645 0.449463 0.930176 0.406494 0.96875 0.447754 0.930176 0.406494 0.988037 0.413574 0.910645 0.449463 0.812988 0.462646 0.851074 0.42041 0.851074 0.42041 0.812988 0.462646 0.776855 0.444092 0.910645 0.449463 0.851074 0.42041 0.930176 0.406494 0.988037 0.413574 0.930176 0.406494 0.968262 0.39209 0.968262 0.39209 0.930176 0.406494 0.945801 0.36377 0.945801 0.36377 0.930176 0.406494 0.888428 0.381592 0.888428 0.381592 0.930176 0.406494 0.851074 0.42041 0.851074 0.42041 0.776855 0.444092 0.825684 0.398926 0.851074 0.42041 0.825684 0.398926 0.888428 0.381592 0.825684 0.398926 0.776855 0.444092 0.794678 0.377197 0.888428 0.381592 0.825684 0.398926 0.843994 0.352783 0.330811 0.470459 0.29248 0.441406 0.329834 0.433594 0.330811 0.470459 0.329834 0.433594 0.419922 0.441895 0.419922 0.441895 0.329834 0.433594 0.407471 0.406494 0.407471 0.406494 0.329834 0.433594 0.369385 0.394531 0.369385 0.394531 0.329834 0.433594 0.309326 0.406738 0.369385 0.394531 0.309326 0.406738 0.365723 0.314209 0.330811 0.470459 0.419922 0.441895 0.390869 0.504883 0.390869 0.504883 0.419922 0.441895 0.458496 0.454346 0.330811 0.470459 0.390869 0.504883 0.321777 0.521729 0.390869 0.504883 0.458496 0.454346 0.465332 0.509277 0.390869 0.504883 0.465332 0.509277 0.413086 0.570068 0.413086 0.570068 0.465332 0.509277 0.496338 0.578857 0.321777 0.521729 0.390869 0.504883 0.370117 0.559814 0.370117 0.559814 0.390869 0.504883 0.413086 0.570068 0.321777 0.521729 0.370117 0.559814 0.290527 0.582031 0.370117 0.559814 0.413086 0.570068 0.365967 0.622314 0.370117 0.559814 0.365967 0.622314 0.290527 0.582031 0.097656 0.746582 0.049805 0.75415 0.045654 0.706543 0.049805 0.75415 0.097656 0.746582 0.096924 0.828613 0.049805 0.75415 0.096924 0.828613 0.036133 0.82959 0.096924 0.828613 0.097656 0.746582 0.162109 0.825195 0.162109 0.825195 0.097656 0.746582 0.146484 0.713867 0.162109 0.825195 0.146484 0.713867 0.201416 0.741455 0.162109 0.825195 0.201416 0.741455 0.212158 0.906006 0.162109 0.825195 0.212158 0.906006 0.173584 0.868652 0.162109 0.825195 0.173584 0.868652 0.096924 0.828613 0.096924 0.828613 0.173584 0.868652 0.036133 0.82959 0.036133 0.82959 0.173584 0.868652 0.096436 0.877441 0.036133 0.82959 0.096436 0.877441 0.046631 0.849121 0.046631 0.849121 0.096436 0.877441 0.080078 0.890625 0.096436 0.877441 0.173584 0.868652 0.140869 0.898682 0.140869 0.898682 0.173584 0.868652 0.157471 0.91333 0.080078 0.890625 0.096436 0.877441 0.079102 0.892334 0.080078 0.890625 0.079102 0.892334 0.045898 0.878662 0.045898 0.878662 0.079102 0.892334 0.078857 0.915527 0.079102 0.892334 0.096436 0.877441 0.119873 0.898438 0.079102 0.892334 0.119873 0.898438 0.078857 0.915527 0.119873 0.898438 0.096436 0.877441 0.140869 0.898682 0.078857 0.915527 0.119873 0.898438 0.144531 0.918945 0.144531 0.918945 0.119873 0.898438 0.140869 0.898682 0.144531 0.918945 0.140869 0.898682 0.157471 0.91333 0.078857 0.915527 0.144531 0.918945 0.095703 0.942627 0.144531 0.918945 0.157471 0.91333 0.161133 0.942139 0.144531 0.918945 0.161133 0.942139 0.095703 0.942627 0.878174 0.015625 0.836914 0.055908 0.822021 0 0.822021 0 0.836914 0.055908 0.793701 0.039062 0.793701 0.039062 0.836914 0.055908 0.776123 0.131836 0.793701 0.039062 0.776123 0.131836 0.755615 0.064941 0.776123 0.131836 0.836914 0.055908 0.860596 0.099121 0.860596 0.099121 0.836914 0.055908 0.878174 0.015625 0.860596 0.099121 0.878174 0.015625 0.926758 0.002197 0.860596 0.099121 0.926758 0.002197 0.947998 0.083008 0.860596 0.099121 0.947998 0.083008 0.901367 0.140137 0.223389 0.04248 0.260498 0.071777 0.195557 0.055176 0.195557 0.055176 0.260498 0.071777 0.193848 0.107666 0.195557 0.055176 0.193848 0.107666 0.143066 0.078857 0.195557 0.055176 0.143066 0.078857 0.141846 0.037354 0.143066 0.078857 0.193848 0.107666 0.139893 0.170166 0.134033 0.260498 0.092285 0.220215 0.139893 0.170166 0.139893 0.170166 0.092285 0.220215 0.062012 0.195312 0.139893 0.170166 0.062012 0.195312 0.122803 0.134277 0.139893 0.170166 0.122803 0.134277 0.143066 0.078857 0.122803 0.134277 0.062012 0.195312 0.071533 0.124512 0.122803 0.134277 0.071533 0.124512 0.143066 0.078857 0.082764 0.062012 0.141846 0.037354 0.143066 0.078857 0.143066 0.078857 0.071533 0.124512 0.102051 0.08252 0.143066 0.078857 0.102051 0.08252 0.082764 0.062012 0.082764 0.062012 0.102051 0.08252 0.071533 0.124512 0.082764 0.062012 0.071533 0.124512 0.039551 0.125488 0.082764 0.062012 0.039551 0.125488 0.035645 0.087158 0.082764 0.062012 0.035645 0.087158 0.060547 0.031738 0.088135 0.459473 0.00708 0.403564 0.099121 0.382568 0.099121 0.382568 0.00708 0.403564 0.01709 0.341309 0.088135 0.459473 0.099121 0.382568 0.14917 0.371094 0.099121 0.382568 0.01709 0.341309 0.121094 0.313477 0.099121 0.382568 0.121094 0.313477 0.14917 0.371094 0.14917 0.371094 0.121094 0.313477 0.169678 0.288574 0.121094 0.313477 0.01709 0.341309 0.043945 0.287109 0.169678 0.288574 0.121094 0.313477 0.110107 0.253906 0.110107 0.253906 0.121094 0.313477 0.043945 0.287109 0.110107 0.253906 0.043945 0.287109 0 0.221436 0.076904 0.701172 0.026855 0.685059 0.066406 0.645508 0.456299 0.911377 0.500977 0.906738 0.452637 0.943604 0.456299 0.911377 0.452637 0.943604 0.39917 0.924561 0.456299 0.911377 0.39917 0.924561 0.45166 0.883301 0.456299 0.911377 0.45166 0.883301 0.500977 0.906738 0.395996 0.842041 0.457764 0.833252 0.45166 0.883301 0.45166 0.883301 0.457764 0.833252 0.481689 0.858398 0.45166 0.883301 0.481689 0.858398 0.500977 0.906738 0.481689 0.858398 0.457764 0.833252 0.503174 0.808594 0.500977 0.906738 0.481689 0.858398 0.515625 0.8479 0.515625 0.8479 0.481689 0.858398 0.503174 0.808594 0.515625 0.8479 0.503174 0.808594 0.548584 0.847168 0.515625 0.8479 0.548584 0.847168 0.500977 0.906738 0.548584 0.847168 0.503174 0.808594 0.527344 0.773926 0.548584 0.847168 0.527344 0.773926 0.567627 0.802734 0.500977 0.906738 0.548584 0.847168 0.547607 0.917725 0.500977 0.906738 0.547607 0.917725 0.533447 0.943115 0.547607 0.917725 0.548584 0.847168 0.572021 0.903809 0.548584 0.847168 0.567627 0.802734 0.569824 0.835449 0.548584 0.847168 0.569824 0.835449 0.572021 0.903809 0.569824 0.835449 0.567627 0.802734 0.581787 0.811035 0.572021 0.903809 0.569824 0.835449 0.583496 0.855469 0.583496 0.855469 0.569824 0.835449 0.581787 0.811035 0.572021 0.903809 0.583496 0.855469 0.616211 0.926514 0.583496 0.855469 0.581787 0.811035 0.597412 0.8125 0.616211 0.926514 0.583496 0.855469 0.632568 0.796875 0.632568 0.796875 0.583496 0.855469 0.597412 0.8125 0.680664 0.443115 0.665039 0.398193 0.759766 0.424072 0.665039 0.398193 0.680664 0.443115 0.639648 0.394287 0.680664 0.443115 0.759766 0.424072 0.69043 0.511475 0.680664 0.443115 0.69043 0.511475 0.639648 0.394287 0.639648 0.394287 0.69043 0.511475 0.600586 0.444092 0.801758 0.582031 0.692627 0.587646 0.69043 0.511475 0.69043 0.511475 0.692627 0.587646 0.676025 0.54248 0.600586 0.444092 0.69043 0.511475 0.609375 0.496094 0.609375 0.496094 0.69043 0.511475 0.676025 0.54248 0.600586 0.444092 0.609375 0.496094 0.56543 0.447754 0.609375 0.496094 0.676025 0.54248 0.625244 0.544922 0.625244 0.544922 0.676025 0.54248 0.616211 0.586182 0.625244 0.544922 0.616211 0.586182 0.603271 0.56543 0.609375 0.496094 0.625244 0.544922 0.584717 0.512451 0.584717 0.512451 0.625244 0.544922 0.603271 0.56543 0.609375 0.496094 0.584717 0.512451 0.553711 0.502197 0.609375 0.496094 0.553711 0.502197 0.56543 0.447754 0.553711 0.502197 0.584717 0.512451 0.603271 0.56543 0.56543 0.447754 0.553711 0.502197 0.540771 0.467529 0.56543 0.447754 0.540771 0.467529 0.51709 0.456299 0.51709 0.456299 0.540771 0.467529 0.553711 0.502197 0.553711 0.502197 0.603271 0.56543 0.547607 0.532471 0.547607 0.532471 0.603271 0.56543 0.552979 0.584229 0.547607 0.532471 0.552979 0.584229 0.53125 0.556885 0.53125 0.556885 0.552979 0.584229 0.509277 0.555176 0.553711 0.502197 0.547607 0.532471 0.525635 0.524902 0.525635 0.524902 0.547607 0.532471 0.53125 0.556885 0.525635 0.524902 0.53125 0.556885 0.509277 0.555176 0.553711 0.502197 0.525635 0.524902 0.51709 0.456299 0.525635 0.524902 0.509277 0.555176 0.489258 0.542725 0.525635 0.524902 0.489258 0.542725 0.497559 0.527344 0.525635 0.524902 0.497559 0.527344 0.498535 0.497803 0.525635 0.524902 0.498535 0.497803 0.51709 0.456299 0.51709 0.456299 0.498535 0.497803 0.504639 0.459229 0.504639 0.459229 0.498535 0.497803 0.46582 0.469971 0.193848 0.293457 0.247803 0.291016 0.184082 0.384033 0.247803 0.291016 0.193848 0.293457 0.206787 0.276123 0.333496 0.267578 0.339844 0.345215 0.247803 0.291016 0.247803 0.291016 0.206787 0.276123 0.283936 0.263916 0.247803 0.291016 0.283936 0.263916 0.333496 0.267578 0.376465 0.214844 0.443604 0.272461 0.333496 0.267578 0.376465 0.214844 0.333496 0.267578 0.283936 0.263916 0.376465 0.214844 0.283936 0.263916 0.35498 0.209961 0.283936 0.263916 0.206787 0.276123 0.237549 0.220215 0.237549 0.220215 0.206787 0.276123 0.169189 0.227295 0.35498 0.209961 0.283936 0.263916 0.291504 0.193604 0.291504 0.193604 0.283936 0.263916 0.237549 0.220215 0.35498 0.209961 0.291504 0.193604 0.334229 0.164551 0.237549 0.220215 0.169189 0.227295 0.18042 0.195068 0.334229 0.164551 0.291504 0.193604 0.29248 0.141846 0.237549 0.220215 0.18042 0.195068 0.221924 0.178467 0.221924 0.178467 0.18042 0.195068 0.185791 0.15918 0.291504 0.193604 0.237549 0.220215 0.268799 0.171631 0.268799 0.171631 0.237549 0.220215 0.221924 0.178467 0.291504 0.193604 0.268799 0.171631 0.29248 0.141846 0.221924 0.178467 0.185791 0.15918 0.223145 0.140381 0.221924 0.178467 0.223145 0.140381 0.268799 0.171631 0.268799 0.171631 0.223145 0.140381 0.29248 0.141846 0.223145 0.140381 0.185791 0.15918 0.176025 0.138916 0.223145 0.140381 0.176025 0.138916 0.204102 0.113281 0.223145 0.140381 0.204102 0.113281 0.219482 0.115723 0.29248 0.141846 0.223145 0.140381 0.260986 0.11499 0.260986 0.11499 0.223145 0.140381 0.219482 0.115723 0.29248 0.141846 0.260986 0.11499 0.298096 0.121826 0.260986 0.11499 0.219482 0.115723 0.24585 0.094238 0.053955 0.937988 0.000244 0.963135 0.001465 0.910156 0.053955 0.937988 0.001465 0.910156 0.032715 0.84668 0.000244 0.963135 0.053955 0.937988 0.01416 0.984375 0.01416 0.984375 0.053955 0.937988 0.070801 0.987061 0.070801 0.987061 0.053955 0.937988 0.128662 0.971191 0.234131 0.662109 0.224609 0.719971 0.182373 0.697021 0.234131 0.662109 0.182373 0.697021 0.206299 0.635742 0.224609 0.719971 0.234131 0.662109 0.248535 0.679443 0.234131 0.662109 0.206299 0.635742 0.243896 0.635742 0.234131 0.662109 0.243896 0.635742 0.248535 0.679443 0.243896 0.635742 0.206299 0.635742 0.198486 0.591309 0.243896 0.635742 0.198486 0.591309 0.280518 0.575684 0.280518 0.575684 0.198486 0.591309 0.253174 0.54126 0.280518 0.575684 0.253174 0.54126 0.272705 0.522217 0.253174 0.54126 0.198486 0.591309 0.194336 0.534912 0.253174 0.54126 0.194336 0.534912 0.23877 0.484375 0.23877 0.484375 0.194336 0.534912 0.199707 0.483643 0.243896 0.635742 0.280518 0.575684 0.306885 0.626465 0.243896 0.635742 0.306885 0.626465 0.248535 0.679443 0.248535 0.679443 0.306885 0.626465 0.325684 0.668457 0.248535 0.679443 0.325684 0.668457 0.282471 0.70459 0.325684 0.668457 0.306885 0.626465 0.344971 0.644043 0.325684 0.668457 0.344971 0.644043 0.385498 0.670898 0.344971 0.644043 0.306885 0.626465 0.337158 0.615234 0.87915 0.752686 0.833984 0.79834 0.828613 0.751465 0.833984 0.79834 0.87915 0.752686 0.889404 0.815918 0.87915 0.752686 0.828613 0.751465 0.87915 0.696289 0.87915 0.696289 0.828613 0.751465 0.813965 0.680176 0.87915 0.696289 0.813965 0.680176 0.851807 0.650635 0.851807 0.650635 0.813965 0.680176 0.783447 0.642822 0.87915 0.752686 0.87915 0.696289 0.91626 0.739258 0.91626 0.739258 0.87915 0.696289 0.925293 0.698975 0.87915 0.752686 0.91626 0.739258 0.889404 0.815918 0.889404 0.815918 0.91626 0.739258 0.952393 0.797607 0.952393 0.797607 0.91626 0.739258 0.992432 0.745361 0.952393 0.797607 0.992432 0.745361 0.999756 0.809326 0.889404 0.815918 0.952393 0.797607 0.919189 0.827881 0.919189 0.827881 0.952393 0.797607 0.939697 0.858154 0.919189 0.827881 0.939697 0.858154 0.88623 0.864014 0.919189 0.827881 0.88623 0.864014 0.889404 0.815918 0.889404 0.815918 0.88623 0.864014 0.848877 0.861572 0.626221 0.003906 0.766846 0.049561 0.641602 0.088623 0.231934 0.929443 0.24707 0.966797 0.231934 0.977295 0.24707 0.966797 0.231934 0.929443 0.243652 0.925049 0.243652 0.925049 0.231934 0.929443 0.219971 0.896973 0.24707 0.966797 0.243652 0.925049 0.26709 0.966797 0.243652 0.925049 0.219971 0.896973 0.230469 0.888672 0.26709 0.966797 0.243652 0.925049 0.259766 0.916748 0.259766 0.916748 0.243652 0.925049 0.230469 0.888672 0.259766 0.916748 0.230469 0.888672 0.248535 0.885986 0.26709 0.966797 0.259766 0.916748 0.283447 0.955078 0.259766 0.916748 0.248535 0.885986 0.285889 0.870117 0.283447 0.955078 0.259766 0.916748 0.304688 0.911377 0.304688 0.911377 0.259766 0.916748 0.285889 0.870117 0.283447 0.955078 0.304688 0.911377 0.307861 0.968994 0.304688 0.911377 0.285889 0.870117 0.328369 0.881836 0.304688 0.911377 0.328369 0.881836 0.333984 0.917236 0.304688 0.911377 0.333984 0.917236 0.307861 0.968994 0.333984 0.917236 0.328369 0.881836 0.394775 0.868408 0.307861 0.968994 0.333984 0.917236 0.344482 0.942139 0.307861 0.968994 0.344482 0.942139 0.352539 0.976074 0.817383 0.191162 0.697021 0.20752 0.692627 0.158691 0.817383 0.191162 0.692627 0.158691 0.830566 0.126709 0.697021 0.20752 0.817383 0.191162 0.801758 0.260254 0.697021 0.20752 0.801758 0.260254 0.694824 0.270508 0.817383 0.191162 0.830566 0.126709 0.824463 0.223389 0.817383 0.191162 0.824463 0.223389 0.801758 0.260254 0.824463 0.223389 0.830566 0.126709 0.852295 0.125977 0.801758 0.260254 0.824463 0.223389 0.821045 0.327148 0.824463 0.223389 0.852295 0.125977 0.895752 0.14624 0.821045 0.327148 0.824463 0.223389 0.869873 0.265381 0.821045 0.327148 0.869873 0.265381 0.882568 0.328369 0.882568 0.328369 0.869873 0.265381 0.912842 0.293457 0.869873 0.265381 0.824463 0.223389 0.875 0.204834 0.875 0.204834 0.824463 0.223389 0.895752 0.14624 0.912842 0.293457 0.869873 0.265381 0.9021 0.243896 0.9021 0.243896 0.869873 0.265381 0.875 0.204834 0.943604 0.139404 0.941406 0.164062 0.895752 0.14624 0.875 0.204834 0.895752 0.14624 0.917236 0.183838 0.917236 0.183838 0.895752 0.14624 0.941406 0.164062 0.875 0.204834 0.917236 0.183838 0.932861 0.238525 0.875 0.204834 0.932861 0.238525 0.9021 0.243896 0.917236 0.183838 0.941406 0.164062 0.96167 0.186035 0.96167 0.186035 0.941406 0.164062 0.987549 0.143066 0.96167 0.186035 0.987549 0.143066 0.998047 0.204834 0.96167 0.186035 0.998047 0.204834 0.979736 0.225586 0.96167 0.186035 0.979736 0.225586 0.917236 0.183838 0.917236 0.183838 0.979736 0.225586 0.932861 0.238525 0.9021 0.243896 0.932861 0.238525 0.949219 0.273438 0.949219 0.273438 0.932861 0.238525 0.979736 0.225586 0.9021 0.243896 0.949219 0.273438 0.912842 0.293457 0.949219 0.273438 0.979736 0.225586 0.988281 0.23999 0.912842 0.293457 0.949219 0.273438 0.948975 0.292236 0.948975 0.292236 0.949219 0.273438 0.970947 0.2771 0.912842 0.293457 0.948975 0.292236 0.953125 0.319824 0.953125 0.319824 0.948975 0.292236 0.970947 0.2771</float_array>
          <technique_common>
            <accessor source="#CornMush1-mesh-map-0-array" count="1500" stride="2">
              <param name="S" type="float"/>
              <param name="T" type="float"/>
            </accessor>
          </technique_common>
        </source>
        <vertices id="CornMush1-mesh-vertices">
          <input semantic="POSITION" source="#CornMush1-mesh-positions"/>
        </vertices>
        <polylist material="Material_-1-material" count="6">
          <input semantic="VERTEX" source="#CornMush1-mesh-vertices" offset="0"/>
          <input semantic="NORMAL" source="#CornMush1-mesh-normals" offset="1"/>
          <input semantic="TEXCOORD" source="#CornMush1-mesh-map-0" offset="2" set="0"/>
          <vcount>3 3 3 3 3 3 3 3 3 3 3 3 3 3 3 3 3 3 3 3 3 3 3 3 3 3 3 3 3 3 3 3 3 3 3 3 3 3 3 3 3 3 3 3 3 3 3 3 3 3 3 3 3 3 3 3 3 3 3 3 3 3 3 3 3 3 3 3 3 3 3 3 3 3 3 3 3 3 3 3 3 3 3 3 3 3 3 3 3 3 3 3 3 3 3 3 3 3 3 3 3 3 3 3 3 3 3 3 3 3 3 3 3 3 3 3 3 3 3 3 3 3 3 3 3 3 3 3 3 3 3 3 3 3 3 3 3 3 3 3 3 3 3 3 3 3 3 3 3 3 3 3 3 3 3 3 3 3 3 3 3 3 3 3 3 3 3 3 3 3 3 3 3 3 3 3 3 3 3 3 3 3 3 3 3 3 3 3 3 3 3 3 3 3 3 3 3 3 3 3 3 3 3 3 3 3 3 3 3 3 3 3 3 3 3 3 3 3 3 3 3 3 3 3 3 3 3 3 3 3 3 3 3 3 3 3 3 3 3 3 3 3 3 3 3 3 3 3 3 3 3 3 3 3 3 3 3 3 3 3 3 3 3 3 3 3 3 3 3 3 3 3 3 3 3 3 3 3 3 3 3 3 3 3 3 3 3 3 3 3 3 3 3 3 3 3 3 3 3 3 3 3 3 3 3 3 3 3 3 3 3 3 3 3 3 3 3 3 3 3 3 3 3 3 3 3 3 3 3 3 3 3 3 3 3 3 3 3 3 3 3 3 3 3 3 3 3 3 3 3 3 3 3 3 3 3 3 3 3 3 3 3 3 3 3 3 3 3 3 3 3 3 3 3 3 3 3 3 3 3 3 3 3 3 3 3 3 3 3 3 3 3 3 3 3 3 3 3 3 3 3 3 3 3 3 3 3 3 3 3 3 3 3 3 3 3 3 3 3 3 3 3 3 3 3 3 3 3 3 3 3 3 3 3 3 3 3 3 3 3 3 3 3 3 3 3 3 3 3 3 3 3 3 3 3 3 3 3 3 3 3 3 3 3 3 3 3 3 3 3 3 3 3 3 3 3 3 3 3 3 3 3 3 3 3 3 3 3 3 3 3 3 3 3 3 3 3 3 3 3</vcount>
          <p>0 0 0 1 0 1 2 0 2 2 1 3 1 1 4 3 1 5 2 2 6 3 2 7 4 2 8 5 3 9 6 3 10 1 3 11 5 4 12 1 4 13 0 4 14 5 5 15 0 5 16 7 5 17 7 6 18 0 6 19 8 6 20 7 7 21 8 7 22 9 7 23 10 8 24 0 8 25 2 8 26 10 9 27 2 9 28 4 9 29 8 10 30 0 10 31 11 10 32 8 11 33 11 11 34 9 11 35 11 12 36 0 12 37 10 12 38 12 13 39 13 13 40 9 13 41 12 14 42 9 14 43 14 14 44 14 15 45 9 15 46 11 15 47 12 16 48 14 16 49 15 16 50 11 17 51 10 17 52 16 17 53 11 18 54 16 18 55 14 18 56 16 19 57 10 19 58 17 19 59 15 20 60 14 20 61 18 20 62 18 21 63 14 21 64 16 21 65 15 22 66 18 22 67 19 22 68 19 23 69 18 23 70 20 23 71 20 24 72 18 24 73 16 24 74 20 25 75 16 25 76 17 25 77 17 26 78 10 26 79 21 26 80 21 27 81 10 27 82 4 27 83 17 28 84 21 28 85 22 28 86 21 29 87 4 29 88 23 29 89 22 30 90 21 30 91 24 30 92 24 31 93 21 31 94 23 31 95 1 32 96 25 32 97 3 32 98 25 33 99 1 33 100 26 33 101 25 34 102 26 34 103 27 34 104 3 35 105 25 35 106 28 35 107 3 36 108 28 36 109 29 36 110 25 37 111 27 37 112 30 37 113 25 38 114 30 38 115 28 38 116 28 39 117 30 39 118 31 39 119 31 40 120 30 40 121 32 40 122 30 41 123 27 41 124 33 41 125 32 42 126 30 42 127 34 42 128 34 43 129 30 43 130 33 43 131 32 44 132 34 44 133 35 44 134 32 45 135 35 45 136 36 45 137 36 46 138 35 46 139 37 46 140 37 47 141 35 47 142 38 47 143 35 48 144 34 48 145 39 48 146 39 49 147 34 49 148 33 49 149 38 50 150 35 50 151 40 50 152 38 51 153 40 51 154 41 51 155 41 52 156 40 52 157 42 52 158 40 53 159 35 53 160 43 53 161 40 54 162 43 54 163 42 54 164 43 55 165 35 55 166 39 55 167 42 56 168 43 56 169 44 56 170 39 57 171 33 57 172 45 57 173 39 58 174 45 58 175 43 58 176 45 59 177 33 59 178 46 59 179 45 60 180 46 60 181 43 60 182 43 61 183 46 61 184 44 61 185 46 62 186 33 62 187 47 62 188 44 63 189 46 63 190 48 63 191 7 64 192 9 64 193 49 64 194 7 65 195 49 65 196 5 65 197 49 66 198 9 66 199 50 66 200 50 67 201 9 67 202 13 67 203 49 68 204 50 68 205 51 68 206 51 69 207 50 69 208 52 69 209 52 70 210 50 70 211 53 70 212 53 71 213 50 71 214 13 71 215 53 72 216 13 72 217 54 72 218 54 73 219 13 73 220 12 73 221 54 74 222 12 74 223 55 74 224 55 75 225 12 75 226 15 75 227 49 76 228 51 76 229 56 76 230 49 77 231 56 77 232 5 77 233 56 78 234 51 78 235 57 78 236 5 79 237 56 79 238 58 79 239 5 80 240 58 80 241 6 80 242 6 81 243 58 81 244 59 81 245 58 82 246 56 82 247 60 82 248 58 83 249 60 83 250 59 83 251 60 84 252 56 84 253 57 84 254 59 85 255 60 85 256 61 85 257 60 86 258 57 86 259 62 86 260 60 87 261 62 87 262 61 87 263 26 88 264 1 88 265 6 88 266 26 89 267 6 89 268 63 89 269 63 90 270 6 90 271 59 90 272 63 91 273 59 91 274 64 91 275 64 92 276 59 92 277 61 92 278 63 93 279 64 93 280 65 93 281 26 94 282 63 94 283 66 94 284 66 95 285 63 95 286 65 95 287 26 96 288 66 96 289 27 96 290 66 97 291 65 97 292 67 97 293 67 98 294 65 98 295 68 98 296 27 99 297 66 99 298 47 99 299 27 100 300 47 100 301 33 100 302 47 101 303 66 101 304 67 101 305 67 102 306 68 102 307 69 102 308 47 103 309 67 103 310 70 103 311 47 104 312 70 104 313 46 104 314 67 105 315 69 105 316 71 105 317 67 106 318 71 106 319 70 106 320 46 107 321 70 107 322 48 107 323 48 108 324 70 108 325 71 108 326 71 109 327 69 109 328 72 109 329 71 110 330 72 110 331 73 110 332 48 111 333 71 111 334 74 111 335 74 112 336 71 112 337 73 112 338 48 113 339 74 113 340 44 113 341 74 114 342 73 114 343 75 114 344 74 115 345 75 115 346 76 115 347 74 116 348 76 116 349 77 116 350 74 117 351 77 117 352 42 117 353 77 118 354 76 118 355 78 118 356 77 119 357 78 119 358 79 119 359 79 120 360 78 120 361 80 120 362 3 121 363 29 121 364 4 121 365 4 122 366 29 122 367 81 122 368 81 123 369 29 123 370 28 123 371 4 124 372 81 124 373 23 124 374 81 125 375 28 125 376 31 125 377 23 126 378 81 126 379 82 126 380 23 127 381 82 127 382 24 127 383 82 128 384 81 128 385 83 128 386 82 129 387 83 129 388 84 129 389 81 130 390 31 130 391 85 130 392 81 131 393 85 131 394 83 131 395 85 132 396 31 132 397 86 132 398 86 133 399 31 133 400 32 133 401 86 134 402 32 134 403 36 134 404 86 135 405 36 135 406 37 135 407 84 136 408 83 136 409 87 136 410 86 137 411 37 137 412 88 137 413 88 138 414 37 138 415 38 138 416 88 139 417 38 139 418 89 139 419 88 140 420 89 140 421 90 140 422 87 141 423 83 141 424 91 141 425 92 142 426 85 142 427 86 142 428 85 143 429 92 143 430 83 143 431 92 144 432 86 144 433 88 144 434 83 145 435 92 145 436 91 145 437 88 146 438 90 146 439 93 146 440 88 147 441 93 147 442 92 147 443 92 148 444 93 148 445 91 148 446 91 149 447 93 149 448 87 149 449 93 150 450 90 150 451 94 150 452 93 151 453 94 151 454 87 151 455 87 152 456 94 152 457 95 152 458 42 153 459 44 153 460 74 153 461 41 154 462 42 154 463 96 154 464 96 155 465 42 155 466 77 155 467 41 156 468 96 156 469 97 156 470 41 157 471 97 157 472 38 157 473 38 158 474 97 158 475 98 158 476 97 159 477 96 159 478 99 159 479 97 160 480 99 160 481 98 160 482 99 161 483 96 161 484 77 161 485 98 162 486 99 162 487 100 162 488 99 163 489 77 163 490 79 163 491 99 164 492 79 164 493 100 164 494 100 165 495 79 165 496 80 165 497 100 166 498 80 166 499 101 166 500 101 167 501 80 167 502 102 167 503 89 168 504 38 168 505 98 168 506 89 169 507 98 169 508 103 169 509 89 170 510 103 170 511 90 170 512 90 171 513 103 171 514 104 171 515 90 172 516 104 172 517 94 172 518 103 173 519 98 173 520 105 173 521 105 174 522 98 174 523 100 174 524 105 175 525 100 175 526 103 175 527 106 176 528 103 176 529 100 176 530 103 177 531 106 177 532 107 177 533 106 178 534 100 178 535 101 178 536 54 179 537 108 179 538 53 179 539 108 180 540 54 180 541 55 180 542 108 181 543 55 181 544 109 181 545 53 182 546 108 182 547 52 182 548 108 183 549 109 183 550 110 183 551 108 184 552 110 184 553 52 184 554 52 185 555 110 185 556 111 185 557 52 186 558 111 186 559 51 186 560 51 187 561 111 187 562 57 187 563 111 188 564 110 188 565 112 188 566 112 189 567 110 189 568 113 189 569 112 190 570 113 190 571 114 190 572 112 191 573 114 191 574 115 191 575 112 192 576 115 192 577 111 192 578 115 193 579 114 193 580 116 193 581 57 194 582 111 194 583 117 194 584 117 195 585 111 195 586 115 195 587 117 196 588 115 196 589 116 196 590 57 197 591 117 197 592 62 197 593 62 198 594 117 198 595 118 198 596 118 199 597 117 199 598 116 199 599 118 200 600 116 200 601 119 200 602 61 201 603 62 201 604 120 201 605 61 202 606 120 202 607 64 202 608 120 203 609 62 203 610 118 203 611 64 204 612 120 204 613 121 204 614 121 205 615 120 205 616 118 205 617 64 206 618 121 206 619 65 206 620 121 207 621 118 207 622 122 207 623 122 208 624 118 208 625 119 208 626 121 209 627 122 209 628 123 209 629 121 210 630 123 210 631 65 210 632 123 211 633 122 211 634 124 211 635 65 212 636 123 212 637 125 212 638 65 213 639 125 213 640 68 213 641 123 214 642 124 214 643 126 214 644 123 215 645 126 215 646 125 215 647 126 216 648 124 216 649 127 216 650 126 217 651 127 217 652 128 217 653 68 218 654 125 218 655 129 218 656 68 219 657 129 219 658 69 219 659 125 220 660 126 220 661 130 220 662 130 221 663 126 221 664 128 221 665 125 222 666 130 222 667 129 222 668 69 223 669 129 223 670 72 223 671 72 224 672 129 224 673 73 224 674 73 225 675 129 225 676 131 225 677 131 226 678 129 226 679 130 226 680 130 227 681 128 227 682 132 227 683 130 228 684 132 228 685 131 228 686 132 229 687 128 229 688 133 229 689 131 230 690 132 230 691 134 230 692 113 231 693 110 231 694 109 231 695 113 232 696 109 232 697 135 232 698 135 233 699 109 233 700 136 233 701 136 234 702 109 234 703 137 234 704 137 235 705 109 235 706 55 235 707 137 236 708 55 236 709 138 236 710 113 237 711 135 237 712 139 237 713 139 238 714 135 238 715 140 238 716 113 239 717 139 239 718 114 239 719 139 240 720 140 240 721 141 240 722 139 241 723 141 241 724 142 241 725 142 242 726 141 242 727 143 242 728 114 243 729 139 243 730 144 243 731 144 244 732 139 244 733 142 244 734 114 245 735 144 245 736 116 245 737 144 246 738 142 246 739 145 246 740 144 247 741 145 247 742 116 247 743 145 248 744 119 248 745 116 248 746 119 249 747 145 249 748 146 249 749 119 250 750 146 250 751 122 250 752 146 251 753 145 251 754 147 251 755 147 252 756 145 252 757 142 252 758 147 253 759 142 253 760 143 253 761 147 254 762 143 254 763 148 254 764 147 255 765 148 255 766 149 255 767 147 256 768 149 256 769 146 256 770 146 257 771 149 257 772 122 257 773 122 258 774 149 258 775 150 258 776 122 259 777 150 259 778 124 259 779 124 260 780 150 260 781 127 260 782 150 261 783 149 261 784 151 261 785 151 262 786 149 262 787 152 262 788 127 263 789 150 263 790 153 263 791 127 264 792 153 264 793 128 264 794 128 265 795 153 265 796 154 265 797 153 266 798 150 266 799 155 266 800 153 267 801 155 267 802 154 267 803 155 268 804 150 268 805 151 268 806 154 269 807 155 269 808 156 269 809 156 270 810 155 270 811 151 270 812 156 271 813 151 271 814 152 271 815 154 272 816 156 272 817 157 272 818 156 273 819 152 273 820 158 273 821 156 274 822 158 274 823 157 274 824 75 275 825 159 275 826 76 275 827 76 276 828 159 276 829 78 276 830 78 277 831 159 277 832 160 277 833 78 278 834 160 278 835 80 278 836 160 279 837 159 279 838 161 279 839 161 280 840 159 280 841 75 280 842 161 281 843 75 281 844 73 281 845 161 282 846 73 282 847 131 282 848 161 283 849 131 283 850 134 283 851 102 284 852 80 284 853 162 284 854 162 285 855 80 285 856 160 285 857 162 286 858 160 286 859 163 286 860 162 287 861 163 287 862 164 287 863 163 288 864 160 288 865 165 288 866 157 289 867 166 289 868 165 289 869 165 290 870 166 290 871 167 290 872 165 291 873 167 291 874 168 291 875 165 292 876 168 292 877 163 292 878 168 293 879 167 293 880 169 293 881 168 294 882 169 294 883 163 294 884 170 295 885 164 295 886 163 295 887 163 296 888 169 296 889 171 296 890 163 297 891 171 297 892 170 297 893 170 298 894 171 298 895 169 298 896 170 299 897 169 299 898 172 299 899 170 300 900 172 300 901 173 300 902 170 301 903 173 301 904 174 301 905 160 302 906 161 302 907 175 302 908 175 303 909 161 303 910 134 303 911 160 304 912 175 304 913 165 304 914 175 305 915 134 305 916 176 305 917 175 306 918 176 306 919 165 306 920 165 307 921 176 307 922 157 307 923 176 308 924 134 308 925 133 308 926 157 309 927 176 309 928 154 309 929 154 310 930 176 310 931 133 310 932 154 311 933 133 311 934 128 311 935 132 312 936 133 312 937 134 312 938 177 313 939 22 313 940 24 313 941 177 314 942 24 314 943 178 314 944 177 315 945 178 315 946 179 315 947 177 316 948 179 316 949 22 316 950 180 317 951 181 317 952 179 317 953 179 318 954 181 318 955 182 318 956 179 319 957 182 319 958 22 319 959 182 320 960 181 320 961 183 320 962 22 321 963 182 321 964 184 321 965 184 322 966 182 322 967 183 322 968 184 323 969 183 323 970 185 323 971 184 324 972 185 324 973 22 324 974 185 325 975 183 325 976 186 325 977 185 326 978 186 326 979 187 326 980 22 327 981 185 327 982 20 327 983 22 328 984 20 328 985 17 328 986 20 329 987 185 329 988 19 329 989 185 330 990 187 330 991 188 330 992 185 331 993 188 331 994 19 331 995 188 332 996 187 332 997 189 332 998 19 333 999 188 333 1000 190 333 1001 190 334 1002 188 334 1003 189 334 1004 19 335 1005 190 335 1006 15 335 1007 190 336 1008 189 336 1009 191 336 1010 15 337 1011 190 337 1012 138 337 1013 138 338 1014 190 338 1015 191 338 1016 192 339 1017 180 339 1018 179 339 1019 180 340 1020 192 340 1021 193 340 1022 192 341 1023 179 341 1024 178 341 1025 192 342 1026 178 342 1027 193 342 1028 193 343 1029 178 343 1030 194 343 1031 24 344 1032 82 344 1033 178 344 1034 178 345 1035 82 345 1036 84 345 1037 194 346 1038 178 346 1039 195 346 1040 195 347 1041 178 347 1042 84 347 1043 194 348 1044 195 348 1045 196 348 1046 195 349 1047 84 349 1048 197 349 1049 197 350 1050 84 350 1051 87 350 1052 197 351 1053 87 351 1054 95 351 1055 195 352 1056 197 352 1057 198 352 1058 198 353 1059 197 353 1060 95 353 1061 195 354 1062 198 354 1063 199 354 1064 195 355 1065 199 355 1066 196 355 1067 199 356 1068 198 356 1069 95 356 1070 196 357 1071 199 357 1072 200 357 1073 196 358 1074 200 358 1075 201 358 1076 201 359 1077 200 359 1078 199 359 1079 199 360 1080 95 360 1081 202 360 1082 202 361 1083 95 361 1084 94 361 1085 202 362 1086 94 362 1087 203 362 1088 203 363 1089 94 363 1090 104 363 1091 199 364 1092 202 364 1093 204 364 1094 204 365 1095 202 365 1096 203 365 1097 204 366 1098 203 366 1099 104 366 1100 199 367 1101 204 367 1102 201 367 1103 204 368 1104 104 368 1105 205 368 1106 204 369 1107 205 369 1108 206 369 1109 204 370 1110 206 370 1111 207 370 1112 204 371 1113 207 371 1114 201 371 1115 201 372 1116 207 372 1117 208 372 1118 208 373 1119 207 373 1120 209 373 1121 180 374 1122 210 374 1123 181 374 1124 210 375 1125 180 375 1126 193 375 1127 211 376 1128 212 376 1129 210 376 1130 210 377 1131 193 377 1132 213 377 1133 210 378 1134 213 378 1135 211 378 1136 214 379 1137 215 379 1138 211 379 1139 214 380 1140 211 380 1141 213 380 1142 214 381 1143 213 381 1144 216 381 1145 213 382 1146 193 382 1147 217 382 1148 217 383 1149 193 383 1150 194 383 1151 216 384 1152 213 384 1153 218 384 1154 218 385 1155 213 385 1156 217 385 1157 216 386 1158 218 386 1159 219 386 1160 217 387 1161 194 387 1162 196 387 1163 219 388 1164 218 388 1165 220 388 1166 217 389 1167 196 389 1168 221 389 1169 221 390 1170 196 390 1171 201 390 1172 218 391 1173 217 391 1174 222 391 1175 222 392 1176 217 392 1177 221 392 1178 218 393 1179 222 393 1180 220 393 1181 221 394 1182 201 394 1183 223 394 1184 221 395 1185 223 395 1186 222 395 1187 222 396 1188 223 396 1189 220 396 1190 223 397 1191 201 397 1192 208 397 1193 223 398 1194 208 398 1195 209 398 1196 223 399 1197 209 399 1198 224 399 1199 220 400 1200 223 400 1201 225 400 1202 225 401 1203 223 401 1204 224 401 1205 220 402 1206 225 402 1207 226 402 1208 225 403 1209 224 403 1210 227 403 1211 212 404 1212 183 404 1213 181 404 1214 212 405 1215 181 405 1216 210 405 1217 183 406 1218 212 406 1219 186 406 1220 186 407 1221 212 407 1222 215 407 1223 215 408 1224 212 408 1225 211 408 1226 228 409 1227 104 409 1228 103 409 1229 228 410 1230 103 410 1231 107 410 1232 104 411 1233 228 411 1234 205 411 1235 228 412 1236 107 412 1237 229 412 1238 228 413 1239 229 413 1240 205 413 1241 229 414 1242 107 414 1243 106 414 1244 229 415 1245 106 415 1246 230 415 1247 230 416 1248 106 416 1249 231 416 1250 230 417 1251 231 417 1252 232 417 1253 231 418 1254 106 418 1255 101 418 1256 231 419 1257 101 419 1258 162 419 1259 162 420 1260 101 420 1261 102 420 1262 229 421 1263 230 421 1264 233 421 1265 229 422 1266 233 422 1267 205 422 1268 205 423 1269 233 423 1270 207 423 1271 205 424 1272 207 424 1273 206 424 1274 207 425 1275 233 425 1276 234 425 1277 207 426 1278 234 426 1279 209 426 1280 234 427 1281 233 427 1282 235 427 1283 236 428 1284 233 428 1285 230 428 1286 233 429 1287 236 429 1288 235 429 1289 236 430 1290 230 430 1291 164 430 1292 164 431 1293 230 431 1294 232 431 1295 164 432 1296 232 432 1297 162 432 1298 162 433 1299 232 433 1300 231 433 1301 236 434 1302 164 434 1303 174 434 1304 174 435 1305 164 435 1306 170 435 1307 236 436 1308 174 436 1309 235 436 1310 235 437 1311 174 437 1312 227 437 1313 227 438 1314 174 438 1315 173 438 1316 227 439 1317 173 439 1318 225 439 1319 235 440 1320 227 440 1321 237 440 1322 237 441 1323 227 441 1324 224 441 1325 237 442 1326 224 442 1327 209 442 1328 237 443 1329 209 443 1330 235 443 1331 235 444 1332 209 444 1333 234 444 1334 55 445 1335 15 445 1336 138 445 1337 138 446 1338 136 446 1339 137 446 1340 136 447 1341 138 447 1342 238 447 1343 238 448 1344 138 448 1345 191 448 1346 136 449 1347 238 449 1348 135 449 1349 238 450 1350 191 450 1351 189 450 1352 135 451 1353 238 451 1354 239 451 1355 239 452 1356 238 452 1357 189 452 1358 239 453 1359 189 453 1360 187 453 1361 135 454 1362 239 454 1363 140 454 1364 239 455 1365 187 455 1366 186 455 1367 140 456 1368 239 456 1369 240 456 1370 240 457 1371 239 457 1372 186 457 1373 140 458 1374 240 458 1375 141 458 1376 240 459 1377 186 459 1378 215 459 1379 240 460 1380 215 460 1381 241 460 1382 240 461 1383 241 461 1384 141 461 1385 241 462 1386 215 462 1387 214 462 1388 141 463 1389 241 463 1390 242 463 1391 141 464 1392 242 464 1393 143 464 1394 243 465 1395 242 465 1396 241 465 1397 243 466 1398 241 466 1399 214 466 1400 242 467 1401 243 467 1402 148 467 1403 242 468 1404 148 468 1405 143 468 1406 243 469 1407 214 469 1408 244 469 1409 243 470 1410 244 470 1411 148 470 1412 244 471 1413 214 471 1414 216 471 1415 148 472 1416 244 472 1417 149 472 1418 244 473 1419 216 473 1420 219 473 1421 149 474 1422 244 474 1423 245 474 1424 149 475 1425 245 475 1426 152 475 1427 152 476 1428 245 476 1429 158 476 1430 245 477 1431 244 477 1432 246 477 1433 246 478 1434 244 478 1435 219 478 1436 158 479 1437 245 479 1438 247 479 1439 247 480 1440 245 480 1441 246 480 1442 220 481 1443 226 481 1444 219 481 1445 246 482 1446 219 482 1447 248 482 1448 248 483 1449 219 483 1450 226 483 1451 246 484 1452 248 484 1453 249 484 1454 246 485 1455 249 485 1456 247 485 1457 248 486 1458 226 486 1459 250 486 1460 250 487 1461 226 487 1462 225 487 1463 250 488 1464 225 488 1465 173 488 1466 250 489 1467 173 489 1468 172 489 1469 250 490 1470 172 490 1471 248 490 1472 248 491 1473 172 491 1474 249 491 1475 247 492 1476 249 492 1477 167 492 1478 167 493 1479 249 493 1480 172 493 1481 247 494 1482 167 494 1483 158 494 1484 167 495 1485 172 495 1486 169 495 1487 158 496 1488 167 496 1489 251 496 1490 251 497 1491 167 497 1492 166 497 1493 158 498 1494 251 498 1495 157 498 1496 157 499 1497 251 499 1498 166 499 1499</p>
        </polylist>
      </mesh>
    </geometry>
  </library_geometries>
  <library_visual_scenes>
    <visual_scene id="Scene" name="Scene">
      <node id="CornMush1" name="CornMush1" type="NODE">
        <scale sid="scale">1 1 1</scale>
        <translate sid="location">0 0 0</translate>
        <rotate sid="rotationX">1 0 0 0</rotate>
        <rotate sid="rotationY">0 1 0 0</rotate>
        <rotate sid="rotationZ">0 0 1 0</rotate>
        <instance_geometry url="#CornMush1-mesh" name="CornMush1">
          <bind_material>
            <technique_common>
            </technique_common>
          </bind_material>
        </instance_geometry>
      </node>
    </visual_scene>
  </library_visual_scenes>
  <scene>
    <instance_visual_scene url="#Scene"/>
  </scene>
</COLLADA>
