<?xml version="1.0" encoding="utf-8"?>
<COLLADA xmlns="http://www.collada.org/2005/11/COLLADASchema" version="1.4.1" xmlns:xsi="http://www.w3.org/2001/XMLSchema-instance">
  <asset>
    <contributor>
      <author>Blockbench user</author>
      <authoring_tool>Blockbench</authoring_tool>
    </contributor>
    <created>2026-01-30T14:03:58.078Z</created>
    <modified>2026-01-30T14:03:58.085Z</modified>
    <unit name="meter" meter="1.0"/>
    <up_axis>Y_UP</up_axis>
  </asset>
  <library_effects>
  </library_effects>
  <library_images>
  </library_images>
  <library_materials>
  </library_materials>
  <library_geometries>
    <geometry id="CrocodileSkin-mesh" name="CrocodileSkin">
      <mesh>
        <source id="CrocodileSkin-mesh-positions">
          <float_array id="CrocodileSkin-mesh-positions-array" count="717">-0.061863 0.264648 0.469299 -0.027931 0.30603 0.478394 -0.061695 0.303833 0.462677 -0.022179 0.237534 0.456543 0.011374 0.300018 0.436127 -0.0867 0.227402 0.38974 -0.054165 0.302551 0.405579 0.060368 0.238937 0.358063 -0.062199 0.190247 0.449402 -0.135483 0.130432 0.247711 -0.090363 -0.010917 0.423187 -0.067505 0.033276 0.472687 -0.018103 0.133377 0.455688 0.023485 0.160294 0.40976 0.000932 -0.038174 0.470123 0.08004 0.216278 0.302063 0.113281 0.075409 0.247147 -0.021263 -0.30542 0.47348 -0.063271 -0.262665 0.467377 -0.054207 -0.310059 0.468903 -0.072289 -0.276489 0.430054 -0.051052 -0.300018 0.369476 -0.020384 -0.248886 0.458893 0.043907 -0.287384 0.391388 -0.086975 -0.294525 0.318207 -0.087799 -0.201401 0.399078 -0.054241 -0.192841 0.449463 0.000117 -0.169601 0.446625 -0.048973 -0.097687 0.469513 0.058594 -0.233231 0.360901 0.057072 -0.061161 0.357849 0.088829 -0.236115 0.284546 -0.129517 -0.073936 0.298401 -0.147095 -0.158936 0.153076 -0.159897 -0.027754 0.084412 -0.153244 -0.163788 -0.005032 -0.103241 -0.317993 0.208511 -0.117844 -0.306366 0.038937 -0.029644 0.014592 0.474854 -0.151794 0.165878 0.038662 0.122154 -0.078117 0.219559 0.152832 -0.042648 0.077988 0.118546 0.177902 0.203598 0.005364 -0.308685 0.395325 0.000333 -0.327393 0.367126 0.069046 -0.308197 0.318054 0.053856 -0.340424 0.360321 0.1026 -0.288696 0.301147 0.101013 -0.319061 0.231094 0.098656 -0.314575 0.276062 0.114296 -0.330872 0.317444 0.120483 -0.351166 0.365692 0.114685 -0.344025 0.285583 0.135529 -0.361359 0.333191 0.108978 -0.382355 0.276001 0.068588 0.382965 0.411285 0.030056 0.439178 0.432526 0.020323 0.386871 0.391937 0.087799 0.409546 0.366821 0.014936 0.42514 0.378906 0.031403 0.471466 0.363403 -0.024759 0.389771 0.360413 0.002557 0.443604 0.323853 -0.048012 0.424988 0.308411 -0.069275 0.381348 0.320343 0.022915 0.347504 0.369476 -0.034584 0.31723 0.367218 0.088432 0.330811 0.338806 0.125549 0.360535 0.355713 0.056572 0.315521 0.328583 0.012915 0.315582 0.375366 0.074692 0.285522 0.345978 0.101555 0.297607 0.281128 -0.082031 0.298431 0.330658 -0.117516 0.290436 0.162857 0.029661 -0.440277 0.430756 0.061703 -0.379364 0.407135 0.018766 -0.38913 0.391693 0.010015 -0.431335 0.357056 0.053959 -0.485962 0.379517 -0.043995 -0.365204 0.360046 0.087845 -0.394012 0.390411 0.096039 -0.418945 0.33847 0.050938 0.481323 0.393402 0.130127 0.357452 0.307098 0.084816 0.443268 0.316528 0.08168 0.394958 0.25885 0.041637 0.455475 0.310608 0.047768 0.419128 0.268799 0.079697 0.40802 0.231949 0.01175 0.453125 0.271637 0.046207 0.459076 0.270813 0.069771 0.454926 0.205399 0.076271 0.398315 0.199768 0.022217 0.427979 0.14006 -0.063187 0.395599 0.194839 0.038715 -0.471405 0.355957 0.061253 -0.460846 0.324921 -0.014987 -0.439026 0.274811 0.088737 -0.435669 0.306305 -0.059505 -0.401184 0.315216 0.113167 0.328949 0.309479 0.099625 0.341095 0.242493 0.091309 0.28891 0.227921 0.107826 0.314728 0.130997 0.059402 -0.428741 0.285675 0.069496 -0.393677 0.246048 0.016483 -0.440308 0.258392 0.094254 -0.347961 0.251831 0.082947 -0.393005 0.181793 0.104362 -0.275085 0.179871 0.065384 -0.441925 0.229004 0.082291 -0.429962 0.116867 0.033184 -0.445587 0.191818 0.018238 -0.420197 0.117622 -0.056683 -0.392365 0.138245 -0.069847 -0.39679 0.252167 -0.10746 0.326996 -0.060974 -0.130035 0.245148 -0.164459 -0.072441 0.373993 -0.051685 -0.043461 0.404938 -0.164368 -0.01931 0.408264 0.038616 0.050777 0.425201 -0.014955 0.029118 0.432312 -0.152359 0.085938 0.426453 -0.107155 0.085449 0.428162 0.015241 0.082039 0.420074 0.126343 0.099243 0.397766 -0.001312 0.086868 0.394501 -0.133881 0.120537 0.333191 -0.038795 0.107559 0.308472 -0.14119 0.128174 0.320465 0.0452 0.14743 0.192963 0.0662 -0.158524 0.057854 -0.090149 -0.128281 -0.161041 -0.255493 -0.129654 -0.263824 -0.140686 -0.075333 -0.374481 -0.157379 0.008131 -0.418732 -0.015407 -0.028492 -0.425262 -0.209076 0.048138 -0.433411 -0.127502 0.085373 -0.433197 -0.031145 0.072357 -0.451691 -0.199799 0.095901 -0.334473 -0.192886 0.105339 -0.378052 -0.014152 0.133972 -0.235199 -0.090424 0.146378 -0.197144 0.0396 0.14267 -0.045082 -0.127029 0.158249 0.059746 -0.012527 0.11972 -0.150284 -0.215271 0.146103 0.252411 -0.032574 0.147034 0.153259 -0.088242 -0.129715 0.11219 -0.27771 -0.120834 -0.029192 -0.342804 -0.083633 -0.170868 -0.419189 -0.066582 -0.288086 -0.401306 -0.085617 -0.021442 -0.441406 -0.067245 0.101715 -0.459534 -0.06028 -0.299011 -0.475677 -0.056641 -0.074371 -0.47345 -0.024731 0.068703 -0.46637 -0.058937 -0.187134 -0.453339 -0.000504 -0.051212 -0.467651 0.020653 0.072784 -0.425323 -0.009964 -0.215057 -0.451874 -0.019323 -0.30365 -0.470154 0.041191 -0.233658 -0.388367 0.058292 -0.157669 -0.348236 0.083496 0.009417 -0.308899 0.119179 0.007782 -0.240891 0.095879 0.172897 -0.269562 -0.080864 -0.336182 -0.307343 -0.051765 -0.42038 -0.298401 0.02284 -0.44458 -0.266113 0.069908 -0.400238 -0.240143 0.099129 0.346039 -0.251648 0.083168 0.354858 -0.19722 0.091629 0.274506 -0.248856 0.098709 0.296539 -0.294464 0.077621 0.423187 -0.218689 0.121155 0.235764 -0.165863 0.070747 0.447266 -0.173447 0.052948 0.46109 -0.220169 0.075081 0.466461 -0.241852 0.053223 0.414764 -0.266754 0.040905 0.456512 -0.280762 -0.017445 0.440887 -0.250366 -0.00037 0.440002 -0.32373 -0.048019 0.424469 -0.303558 0.03199 0.460388 -0.345276 0.00875 0.409332 -0.371704 0.025623 0.456146 -0.409332 0.075989 0.447449 -0.307343 0.044197 0.48822 -0.374146 0.052734 0.456116 -0.412201 0.091774 0.393311 -0.267944 0.091179 0.429535 -0.33902 0.1064 0.365814 -0.378174 0.033051 0.417236 -0.433777 0.135162 0.363495 -0.319244 0.115936 0.333405 -0.308746 0.077217 0.341125 -0.358002 -0.076523 0.382599 -0.292145 -0.103004 0.275238 -0.289612 -0.072624 0.280121 -0.420135 -0.071091 0.328613 -0.333923 -0.053627 0.298706 -0.367035 -0.077705 0.219208 -0.428528 -0.05537 0.205307 -0.451263 -0.053902 0.294312 -0.476593 -0.01968 0.224243 -0.452728 -0.041985 0.308899 -0.425751 0.003675 0.310974 -0.378021 -0.02836 0.34787 -0.370422 0.030968 0.301575 -0.40094 -0.014186 0.30899 -0.470673 0.00871 0.254669 -0.438721 0.059017 0.265167 -0.375977 0.068283 0.195038 -0.33316 0.101631 -0.304626 -0.302124 0.098717 -0.342743 -0.260986 0.096558 -0.357269 -0.371216 0.049717 -0.322998 -0.34729 0.1353 -0.365601 -0.323181 0.093102 -0.261169 -0.256439 0.098862 -0.401611 -0.283722 0.07621 -0.422516 -0.383148 0.069061 -0.46344 -0.335144 0.012166 -0.445312 -0.34845 -0.052109 0.375305 -0.3508 0.021523 0.371887 -0.381744 0.033489 0.321838 -0.347656 -0.052757 -0.372925 -0.353058 0.021158 -0.394165 -0.393616 -0.012158 -0.334961 -0.367645 -0.051208 -0.301636 -0.360779 0.008131 -0.309601 -0.387604 0.053772 -0.290863 -0.376221 0.02636 -0.423126 -0.440521 0.034828 -0.482025 -0.400696</float_array>
          <technique_common>
            <accessor source="#CrocodileSkin-mesh-positions-array" count="239" stride="3">
              <param name="X" type="float"/>
              <param name="Y" type="float"/>
              <param name="Z" type="float"/>
            </accessor>
          </technique_common>
        </source>
        <source id="CrocodileSkin-mesh-normals">
          <float_array id="CrocodileSkin-mesh-normals-array" count="1422">-0.425215 0.152588 0.892137 0.104286 -0.294305 0.950005 0.711689 -0.158556 0.684368 -0.959848 0.05074 0.275895 -0.900009 0.416638 -0.128047 0.75246 -0.198905 0.627886 -0.939151 -0.08478 0.332878 0.132401 -0.256634 0.957397 -0.955333 0.055424 0.290289 -0.927034 0.066052 0.369113 -0.899064 0.093827 0.427644 0.046177 0.14505 0.988346 -0.159205 -0.014333 0.987141 0.764399 0.063286 0.641629 0.734271 0.023165 0.678462 0.693218 0.136466 0.707691 0.906095 -0.170393 0.387243 0.880175 0.022875 0.474098 -0.138359 0.005427 0.990367 -0.941465 -0.170693 0.2907 -0.835086 -0.544057 -0.081442 0.111192 0.246669 0.9627 0.75757 0.152015 0.634807 -0.417962 -0.886657 0.197859 -0.960141 -0.08902 0.264962 -0.978588 -0.139826 0.151041 0.116251 0.232694 0.965577 -0.826577 0.237776 0.51013 0.701536 -0.07169 0.709019 -0.015482 0.156803 0.987509 -0.824356 -0.072652 0.56139 0.140957 -0.211591 0.96714 0.19544 -0.173781 0.965196 0.846797 0.067383 0.527631 0.831872 0.017197 0.554701 0.92985 0.014746 0.367644 -0.967769 -0.169954 0.185844 -0.962596 -0.166448 0.213787 -0.990503 -0.025994 0.135012 -0.996282 -0.075729 0.041071 -0.961951 -0.200555 0.185547 -0.967595 -0.243558 0.066625 0.021094 0.157257 0.987332 0.345437 0.116681 0.93116 0.055822 -0.057027 0.996811 -0.074141 -0.034646 0.996646 -0.849503 -0.132586 0.510652 -0.815664 -0.083436 0.572478 -0.944699 -0.053663 0.323518 -0.959104 0.041452 0.280003 -0.989862 0.006297 0.14189 -0.994149 0.062431 0.088154 0.883675 -0.087691 0.459815 0.896588 0.032449 0.441675 0.880059 0.022284 0.474342 0.903359 -0.024731 0.428171 0.976243 0.017614 0.215962 0.978407 0.036204 0.203494 0.939026 0.092478 0.331176 0.127392 -0.988231 0.084686 -0.104667 -0.989137 -0.103213 0.489452 -0.848266 0.202191 -0.369966 -0.742403 0.558537 0.50608 -0.757559 0.412296 0.475947 -0.789624 0.387259 0.257396 0.721593 0.642691 0.603039 -0.688878 0.402234 0.836209 0.078753 0.542727 0.879847 0.336419 0.335695 0.969203 0.217181 -0.116095 0.609692 -0.597629 0.520687 0.349554 0.680235 0.644277 0.442716 0.878671 0.178716 0.118437 0.920627 0.372045 0.887677 0.429346 -0.166406 0.768652 0.61888 0.161746 0.849098 0.491842 -0.192678 0.91109 -0.032936 -0.41089 -0.351782 -0.532136 0.770118 0.777785 0.33132 0.534114 -0.958977 -0.0394 0.280732 -0.912404 0.37736 0.158489 -0.553172 0.197697 0.809269 -0.708447 0.605608 0.362411 -0.430351 0.646318 0.630136 -0.636402 0.47603 0.60695 -0.532053 -0.445759 0.719874 -0.359589 -0.480167 0.800084 -0.676955 0.159101 0.718623 -0.094506 0.105662 0.989901 0.075253 -0.799515 0.595914 0.307268 -0.730555 0.609816 0.131402 -0.725493 0.675569 0.727188 -0.102567 0.678732 -0.157034 0.226556 0.961256 0.561003 0.641935 0.52268 0.667458 0.631742 0.39421 0.510899 0.829552 0.225448 -0.008917 0.96874 0.247918 -0.106717 0.94559 0.307362 -0.441373 0.889895 0.115227 -0.645527 0.19129 0.739394 -0.893455 0.320486 0.314686 -0.965269 0.172867 0.19589 -0.959365 0.215034 0.182701 -0.958557 0.209836 0.192709 -0.391511 0.50439 0.769617 -0.966513 -0.01004 0.256422 -0.798991 -0.584315 0.14209 -0.380324 0.678686 0.628283 0.21359 0.415589 0.884118 -0.35781 0.251069 0.899409 -0.032875 -0.14658 0.988652 0.073768 0.772749 0.63041 0.701654 -0.333196 0.629811 0.551657 0.032997 0.833418 0.558674 0.051984 0.827756 0.878928 -0.360858 0.311877 0.808806 -0.338792 0.48068 0.783023 -0.503484 0.365211 0.807049 -0.097053 0.582454 0.918689 -0.193092 0.344568 0.91395 -0.144124 0.379374 -0.735113 0.619618 0.275104 0.777394 0.175543 0.604023 0.712762 0.422019 0.560241 0.795701 0.604584 0.036589 0.869338 0.43279 0.238628 0.899417 0.385842 0.205365 0.779674 0.45853 -0.426448 0.297932 0.901181 -0.314815 0.290656 0.725683 -0.623621 -0.029035 0.955083 -0.294912 0.349968 0.731764 -0.584845 0.610444 0.729258 0.309098 -0.375897 0.864142 -0.334604 -0.849537 0.412161 0.329257 -0.247033 0.960035 0.13156 0.992591 0.03289 0.116964 0.755235 -0.003533 0.655445 -0.168157 0.983295 0.069666 0.886322 0.355512 0.296724 -0.171753 0.977321 -0.123874 0.981586 0.126906 -0.142772 -0.258957 0.944712 -0.201146 -0.371158 0.922848 0.102926 -0.45777 0.865845 -0.201889 -0.497086 0.853831 -0.154527 -0.89827 0.439398 0.00632 -0.88949 0.456871 0.00873 -0.800289 -0.577618 0.160918 -0.645593 -0.44539 -0.620352 -0.178846 -0.884542 -0.430813 -0.390224 -0.89815 0.202615 0.52881 -0.795679 -0.29539 0.862562 -0.501751 0.065066 0.930606 -0.365403 -0.021274 0.806156 -0.56802 -0.16573 -0.533609 -0.467665 0.704663 -0.594876 -0.513792 0.618175 -0.500496 -0.834575 0.230192 -0.846839 -0.23153 0.478808 -0.815667 -0.168372 0.553479 0.441424 -0.791571 0.422564 0.321353 -0.888543 0.32745 0.858015 -0.501136 0.112578 0.372536 -0.694658 0.61536 0.820567 -0.509838 -0.258332 0.962464 -0.155136 -0.222703 0.783286 0.404353 -0.472189 0.95264 0.295182 0.073104 0.950418 0.254948 -0.178068 0.979317 -0.108345 -0.170876 0.875036 -0.004281 -0.484038 0.948563 -0.285925 -0.135927 0.959021 0.18667 0.213152 0.93872 0.163885 0.303226 0.958593 0.188411 0.213543 0.195801 -0.754481 -0.626434 0.260032 -0.741337 -0.618711 0.247562 -0.75603 -0.605914 0.59779 -0.55549 -0.577995 0.505544 -0.706019 -0.495947 0.095298 -0.961506 0.25773 0.629653 -0.247857 -0.736277 0.855363 0.002143 -0.518024 0.808923 0.27173 -0.521351 0.981269 -0.179724 0.069362 0.973026 -0.218894 0.072838 0.856488 -0.485878 0.174214 0.972518 -0.232713 -0.007338 0.979659 -0.179378 -0.089949 0.99027 0.066788 0.122084 0.967514 -0.153439 0.200932 0.478526 -0.328452 0.814329 0.965667 -0.229844 0.121074 0.197255 -0.977514 -0.074543 0.017115 -0.996377 0.083301 0.000727 -0.996856 0.079228 -0.464593 -0.862296 -0.201492 -0.387412 -0.902126 -0.189949 -0.581214 -0.807763 -0.098536 -0.621577 -0.781914 0.047465 -0.888494 -0.442955 -0.119873 -0.936796 -0.324403 0.131055 -0.832468 -0.553042 0.033769 -0.948652 -0.249768 0.194103 -0.980634 0.165583 0.10459 -0.892066 0.450659 0.033532 -0.964162 0.265315 0.000019 -0.964112 0.265496 0.000334 -0.79952 0.600214 -0.022592 -0.797455 0.602067 -0.039751 -0.467372 0.882038 -0.05976 -0.610796 0.789531 0.059736 -0.370455 0.928405 -0.028781 -0.226901 0.973855 0.011039 -0.284203 0.956242 -0.069498 -0.366168 0.924541 0.105566 0.07059 0.996685 0.040454 -0.072785 0.997246 -0.014215 0.132499 0.991161 0.006649 -0.143101 0.987404 0.067489 0.029507 0.916311 -0.399379 0.910176 0.414216 -0.002147 0.920373 0.38695 0.056418 0.989565 0.108299 -0.095041 0.966627 0.240513 0.088242 0.959272 0.241303 0.146865 0.927552 0.36129 -0.095483 0.952851 0.244446 -0.17978 0.855997 0.461072 0.233843 0.942789 0.331494 -0.035496 0.953701 0.183305 0.238441 0.988048 0.137864 -0.068948 -0.972703 -0.227687 0.044817 -0.999164 -0.033044 -0.024064 -0.993093 -0.06193 -0.099659 -0.990153 -0.098208 -0.099764 -0.97103 -0.238849 0.007275 -0.89941 -0.434899 -0.043866 -0.824383 -0.565753 0.017782 -0.431573 -0.901664 -0.02732 -0.647525 -0.747603 0.147655 -0.344358 -0.938705 0.015825 -0.17494 -0.982351 0.066204 -0.170246 -0.983055 0.067971 -0.183455 -0.983023 0.003112 -0.325472 -0.936868 0.127852 0.979583 -0.193549 -0.054376 -0.150472 -0.988442 0.01847 -0.147453 -0.944515 -0.293512 0.944631 -0.303819 -0.123958 0.937218 -0.347688 0.027115 0.977278 -0.188302 0.097311 0.979406 -0.176261 0.098473 0.961026 -0.252604 -0.112337 0.955348 -0.258988 0.142254 0.976702 -0.212341 -0.031043 0.995178 -0.060408 -0.077273 0.994975 -0.061941 -0.078667 0.983413 -0.076644 -0.164392 -0.998877 0.045179 0.0143 -0.051369 0.998253 -0.029188 0.072819 0.994614 -0.073757 0.904 -0.014929 0.427271 0.973299 -0.12651 0.191529 0.967349 -0.131087 0.216916 0.97786 -0.088021 0.189847 0.998976 -0.044171 0.009817 0.988809 0.102778 0.108135 0.955801 0.192708 0.222054 0.97735 0.032868 0.209063 0.995519 0.027354 0.090522 0.997505 0.065598 0.02608 0.934993 0.309283 0.173583 0.99529 0.054396 -0.080241 -0.990142 0.128409 -0.055955 -0.987284 0.101697 -0.122183 -0.987457 -0.017938 -0.156868 -0.994306 -0.01381 -0.105662 -0.960125 -0.114628 -0.254992 -0.952247 -0.176525 -0.249128 -0.939998 0.092193 -0.328487 -0.938285 -0.063021 -0.340074 -0.940095 0.091917 -0.328288 -0.986363 -0.152807 -0.061135 -0.733842 0.009489 -0.679254 -0.812219 -0.096328 -0.575344 -0.103472 0.072167 -0.992011 -0.771821 0.133395 -0.62169 -0.825828 -0.082673 -0.55783 0.090869 0.028993 -0.995441 0.172852 -0.176344 -0.969033 0.657123 0.140673 -0.740541 0.138709 0.192307 -0.971482 -0.024077 -0.094444 -0.995239 0.151825 0.184328 -0.971068 0.784362 0.044797 -0.618684 0.790656 0.137189 -0.596693 0.855249 -0.098373 -0.508795 0.896528 -0.001752 -0.442983 0.875607 -0.018445 -0.482672 0.885018 -0.02404 -0.464936 0.885076 0.044444 -0.46332 0.907283 -0.064254 -0.415583 0.975871 -0.031677 -0.21604 -0.899557 -0.430026 -0.076646 -0.960016 -0.20277 -0.193014 -0.942332 -0.330957 -0.049767 -0.658611 -0.740975 0.131099 -0.32084 -0.946598 0.031857 -0.230271 -0.965719 0.119843 -0.313041 -0.940394 0.132908 0.707025 -0.415213 -0.572463 0.944695 -0.173329 -0.278402 0.951882 -0.088348 0.293454 0.98942 -0.099621 0.105467 0.954228 0.157375 0.254328 0.947108 0.23804 -0.215228 0.943112 0.250529 -0.218576 0.951231 0.099303 -0.292059 0.95441 0.239106 -0.178688 0.946638 0.245426 -0.208908 0.989722 0.109315 0.092197 0.971014 0.172961 -0.164976 0.830335 0.53433 -0.158225 0.970855 0.169763 -0.169175 -0.162759 0.927533 0.33644 -0.166657 0.929183 0.329916 0.586097 0.408835 0.699531 0.890128 -0.173343 -0.421456 -0.256162 0.966381 -0.0221 0.751304 0.000237 -0.659957 0.778776 0.417234 -0.468427 -0.26808 0.9632 -0.019491 -0.36528 0.896153 0.251952 -0.296766 0.951547 -0.080549 -0.343329 0.934778 -0.091184 -0.632658 0.763798 0.127893 -0.472024 0.873691 0.117719 -0.673952 0.557621 -0.48461 -0.920605 0.384874 0.066018 0.265137 0.963976 0.021277 0.615975 0.407882 0.673949 -0.890425 0.45134 0.058617 -0.294088 0.747202 0.595988 -0.068184 0.75497 -0.652205 0.363893 0.615117 0.699438 0.222028 0.34847 0.910644 0.775999 0.630543 0.015528 0.823192 0.511355 -0.246721 0.892428 0.404972 0.198924 0.864058 0.396764 -0.309812 0.64317 0.095973 -0.759685 0.752556 0.58925 0.294012 0.807203 0.300694 0.507942 0.817816 0.430212 -0.382223 0.841718 -0.419027 0.34048 0.717222 -0.588477 -0.373212 0.898001 -0.292176 0.328979 0.388711 -0.813263 -0.433021 -0.94528 0.322572 -0.048917 -0.725083 0.685315 0.067801 -0.973575 0.146719 -0.175001 -0.96524 0.142117 -0.219349 -0.851101 0.077844 -0.519199 -0.546012 0.832264 -0.095952 -0.961387 0.114664 -0.250173 -0.945709 0.001576 -0.325012 -0.664371 0.134853 -0.735136 -0.089988 0.089512 -0.991912 -0.950994 0.118669 -0.285531 -0.752732 -0.168684 -0.636349 -0.088407 0.089878 -0.992021 0.106029 -0.273796 -0.955925 0.667995 0.043465 -0.742896 -0.688387 0.723862 -0.046329 -0.685522 0.72799 -0.009545 -0.183086 0.974086 0.132798 -0.194929 0.032647 -0.980274 0.164897 0.965875 -0.199735 -0.314725 0.92938 -0.192878 0.081977 0.995238 0.052746 0.221483 -0.215731 -0.951002 0.599401 -0.20282 -0.774327 0.840596 0.036418 -0.540436 0.471251 -0.033978 -0.881345 0.758916 0.150235 -0.633621 0.815535 0.281681 -0.505528 0.875949 0.022019 -0.4819 0.910025 -0.121711 -0.396285 0.775229 -0.251385 -0.579504 0.882389 0.010837 -0.470395 0.998605 -0.028094 0.044705 0.903011 -0.420426 0.088396 0.251173 0.760945 -0.598226 0.696064 0.545545 -0.466772 0.859217 0.343507 0.379144 0.990726 0.108613 0.081644 0.865853 0.433143 -0.250372 0.965331 -0.148972 -0.214344 0.96495 -0.152285 -0.213732 0.907311 -0.063487 -0.415639 0.806596 -0.211234 0.552072 0.811519 -0.208782 0.545753 0.698191 -0.715861 -0.008553 0.932842 -0.330693 -0.142997 0.618307 -0.656889 0.431501 0.434382 -0.751713 0.496225 -0.313622 -0.948278 0.049088 -0.328016 -0.943299 0.050909 -0.960541 0.23335 -0.151358 -0.896037 0.211805 -0.3902 -0.807908 0.579374 0.107753 -0.806925 0.442773 -0.390927 -0.89101 0.218362 -0.39802 -0.46761 0.632371 -0.617615 -0.545742 0.655073 -0.522538 -0.645959 -0.013276 -0.763257 -0.434321 0.244153 -0.867038 -0.69444 0.312235 -0.648276 -0.288941 0.154753 -0.944757 0.075362 -0.548956 -0.832447 0.483234 0.558438 -0.674264 0.022492 0.934105 -0.356289 0.557018 0.767168 -0.318095 0.426914 -0.493141 -0.757995 0.299189 -0.878334 -0.372849 0.047958 -0.554422 -0.830853 -0.902029 -0.205977 -0.379364 -0.121394 -0.734814 -0.667317 0.073735 -0.681807 -0.727807 -0.932171 0.047515 -0.358886 -0.089481 0.517535 -0.85097 -0.626584 -0.594087 -0.504433 -0.898111 -0.34001 -0.278907 -0.521668 -0.511351 -0.682923 -0.611511 0.389276 -0.688853 -0.445953 0.137052 -0.884501 -0.557942 -0.520646 -0.646242 0.290322 -0.869004 -0.400681 -0.952553 -0.186731 -0.240365 -0.42546 -0.324495 -0.8448 -0.230398 -0.94581 -0.228825 -0.280738 -0.959479 0.024198 -0.129281 -0.982596 0.133387 0.33612 -0.73368 -0.590539 0.188474 0.481529 -0.855925 0.414634 -0.887316 -0.201863 0.422125 -0.635394 -0.646595 0.785752 0.041778 -0.617129 0.843893 0.072733 -0.531558 0.649825 -0.552214 -0.52229 -0.022255 0.551669 -0.833766 -0.240957 0.813634 -0.529093 0.750459 -0.115018 -0.650832 0.762222 -0.121432 -0.635824 -0.988182 -0.152506 -0.015431 0.717788 -0.316227 -0.620307 -0.938805 -0.120051 -0.322853 0.823425 -0.48647 -0.292093 -0.363522 -0.829049 0.424889 0.936612 0.280231 -0.210307 0.97304 0.119789 -0.197087 0.990163 0.005554 -0.139805 0.980729 0.016492 -0.194678 0.966722 0.072374 -0.245379 0.954874 0.085347 -0.284486 -0.378 0.889305 0.257396 0.956968 -0.290072 0.008423 0.925244 0.11253 -0.362299 0.929428 -0.014436 -0.368721 0.920156 0.024336 -0.390795</float_array>
          <technique_common>
            <accessor source="#CrocodileSkin-mesh-normals-array" count="474" stride="3">
              <param name="X" type="float"/>
              <param name="Y" type="float"/>
              <param name="Z" type="float"/>
            </accessor>
          </technique_common>
        </source>
        <source id="CrocodileSkin-mesh-map-0">
          <float_array id="CrocodileSkin-mesh-map-0-array" count="2844">0.477783 0.289795 0.466309 0.260742 0.486084 0.264893 0.466309 0.260742 0.477783 0.289795 0.451416 0.306641 0.466309 0.260742 0.451416 0.306641 0.43457 0.262207 0.477783 0.289795 0.486084 0.264893 0.518799 0.318604 0.518799 0.318604 0.486084 0.264893 0.51709 0.26416 0.43457 0.262207 0.451416 0.306641 0.37915 0.299316 0.477783 0.289795 0.518799 0.318604 0.475098 0.337891 0.477783 0.289795 0.475098 0.337891 0.451416 0.306641 0.623779 0.347168 0.524902 0.442139 0.518799 0.318604 0.518799 0.318604 0.524902 0.442139 0.484863 0.418945 0.518799 0.318604 0.484863 0.418945 0.475098 0.337891 0.475098 0.337891 0.484863 0.418945 0.440674 0.374756 0.475098 0.337891 0.440674 0.374756 0.451416 0.306641 0.404297 0.354248 0.37915 0.299316 0.451416 0.306641 0.404297 0.354248 0.451416 0.306641 0.440674 0.374756 0.404297 0.354248 0.440674 0.374756 0.405518 0.424805 0.37915 0.299316 0.404297 0.354248 0.34375 0.304932 0.34375 0.304932 0.404297 0.354248 0.289307 0.335205 0.390137 0.968506 0.406006 0.94751 0.405518 0.967773 0.405518 0.967773 0.406006 0.94751 0.422119 0.949463 0.405518 0.967773 0.422119 0.949463 0.450195 0.966309 0.406006 0.94751 0.390137 0.968506 0.386719 0.944336 0.386719 0.944336 0.390137 0.968506 0.344727 0.962158 0.450195 0.966309 0.422119 0.949463 0.470703 0.945312 0.422119 0.949463 0.406006 0.94751 0.424805 0.90625 0.422119 0.949463 0.424805 0.90625 0.470703 0.945312 0.406006 0.94751 0.386719 0.944336 0.398438 0.917725 0.406006 0.94751 0.398438 0.917725 0.424805 0.90625 0.386719 0.944336 0.344727 0.962158 0.375 0.914795 0.386719 0.944336 0.375 0.914795 0.398438 0.917725 0.424805 0.90625 0.398438 0.917725 0.373047 0.895752 0.373047 0.895752 0.398438 0.917725 0.375 0.914795 0.373047 0.895752 0.375 0.914795 0.345703 0.890869 0.375 0.914795 0.344727 0.962158 0.327148 0.940186 0.375 0.914795 0.327148 0.940186 0.310059 0.907227 0.310059 0.907227 0.327148 0.940186 0.293457 0.949463 0.482422 0.859863 0.470703 0.945312 0.424805 0.90625 0.470703 0.945312 0.482422 0.859863 0.553711 0.890137 0.553711 0.890137 0.482422 0.859863 0.577881 0.833252 0.553711 0.890137 0.577881 0.833252 0.612793 0.858887 0.470703 0.945312 0.553711 0.890137 0.519775 0.95874 0.519775 0.95874 0.553711 0.890137 0.5896 0.966064 0.780273 0.926758 0.728027 0.913818 0.778076 0.908203 0.728027 0.913818 0.780273 0.926758 0.797119 0.947754 0.797119 0.947754 0.780273 0.926758 0.830322 0.934814 0.830322 0.934814 0.780273 0.926758 0.778076 0.908203 0.830322 0.934814 0.778076 0.908203 0.805908 0.894531 0.830322 0.934814 0.805908 0.894531 0.887207 0.921143 0.887207 0.921143 0.805908 0.894531 0.855957 0.854004 0.855957 0.854004 0.805908 0.894531 0.782959 0.795898 0.855957 0.854004 0.782959 0.795898 0.877441 0.759033 0.877441 0.759033 0.782959 0.795898 0.807373 0.705566 0.559326 0.06665 0.494141 0.068604 0.493896 0.036865 0.494141 0.068604 0.559326 0.06665 0.538574 0.155029 0.538574 0.155029 0.559326 0.06665 0.621826 0.128662 0.621826 0.128662 0.559326 0.06665 0.631836 0.037598 0.621826 0.128662 0.631836 0.037598 0.696533 0.03418 0.621826 0.128662 0.696533 0.03418 0.674072 0.148193 0.621826 0.128662 0.674072 0.148193 0.677246 0.179199 0.187988 0.167236 0.177734 0.145752 0.255615 0.175293 0.255615 0.175293 0.177734 0.145752 0.236572 0.136719 0.187988 0.167236 0.255615 0.175293 0.27124 0.20459 0.255615 0.175293 0.236572 0.136719 0.278564 0.154053 0.255615 0.175293 0.278564 0.154053 0.338623 0.196289 0.255615 0.175293 0.338623 0.196289 0.27124 0.20459 0.338623 0.196289 0.278564 0.154053 0.326904 0.153809 0.27124 0.20459 0.338623 0.196289 0.373535 0.235352 0.27124 0.20459 0.373535 0.235352 0.286377 0.257568 0.286377 0.257568 0.373535 0.235352 0.337646 0.271973 0.337646 0.271973 0.373535 0.235352 0.384766 0.286865 0.373535 0.235352 0.338623 0.196289 0.377197 0.208008 0.338623 0.196289 0.326904 0.153809 0.380127 0.170654 0.338623 0.196289 0.380127 0.170654 0.377197 0.208008 0.380127 0.170654 0.326904 0.153809 0.38208 0.125977 0.377197 0.208008 0.380127 0.170654 0.400879 0.186768 0.380127 0.170654 0.38208 0.125977 0.405518 0.144043 0.380127 0.170654 0.405518 0.144043 0.400879 0.186768 0.400879 0.186768 0.405518 0.144043 0.434082 0.173096 0.045654 0.262695 0.032471 0.222656 0.067871 0.248291 0.032471 0.222656 0.045654 0.262695 0.016846 0.254639 0.067871 0.248291 0.032471 0.222656 0.064209 0.223145 0.064209 0.223145 0.032471 0.222656 0.041748 0.201416 0.067871 0.248291 0.064209 0.223145 0.095703 0.237793 0.095703 0.237793 0.064209 0.223145 0.077393 0.197266 0.095703 0.237793 0.077393 0.197266 0.109375 0.205811 0.095703 0.237793 0.109375 0.205811 0.131104 0.222412 0.067871 0.248291 0.095703 0.237793 0.08252 0.275146 0.067871 0.248291 0.08252 0.275146 0.045654 0.262695 0.095703 0.237793 0.131104 0.222412 0.123291 0.27002 0.095703 0.237793 0.123291 0.27002 0.08252 0.275146 0.045654 0.262695 0.08252 0.275146 0.051758 0.308838 0.045654 0.262695 0.051758 0.308838 0.02417 0.305664 0.051758 0.308838 0.08252 0.275146 0.068359 0.311523 0.068359 0.311523 0.08252 0.275146 0.095215 0.290283 0.095215 0.290283 0.08252 0.275146 0.123291 0.27002 0.068359 0.311523 0.095215 0.290283 0.072998 0.330078 0.068359 0.311523 0.072998 0.330078 0.045898 0.345459 0.072998 0.330078 0.095215 0.290283 0.111084 0.312012 0.111084 0.312012 0.095215 0.290283 0.123291 0.27002 0.111084 0.312012 0.123291 0.27002 0.143311 0.286133 0.143311 0.286133 0.123291 0.27002 0.167236 0.250732 0.167236 0.250732 0.123291 0.27002 0.131104 0.222412 0.143311 0.286133 0.167236 0.250732 0.191162 0.292236 0.167236 0.250732 0.131104 0.222412 0.239746 0.197998 0.191162 0.292236 0.167236 0.250732 0.284912 0.267822 0.284912 0.267822 0.167236 0.250732 0.239746 0.197998 0.850586 0.1521 0.811768 0.187744 0.802734 0.136963 0.850586 0.1521 0.802734 0.136963 0.85083 0.09668 0.850586 0.1521 0.85083 0.09668 0.913818 0.160156 0.802734 0.136963 0.811768 0.187744 0.757568 0.191895 0.802734 0.136963 0.757568 0.191895 0.736084 0.145264 0.802734 0.136963 0.736084 0.145264 0.74292 0.099609 0.74292 0.099609 0.736084 0.145264 0.685547 0.120117 0.757568 0.191895 0.811768 0.187744 0.793457 0.249756 0.850586 0.1521 0.913818 0.160156 0.835449 0.216553 0.850586 0.1521 0.835449 0.216553 0.811768 0.187744 0.811768 0.187744 0.835449 0.216553 0.793457 0.249756 0.835449 0.216553 0.913818 0.160156 0.880371 0.245361 0.793457 0.249756 0.835449 0.216553 0.811523 0.282959 0.811523 0.282959 0.835449 0.216553 0.880371 0.245361 0.958496 0.829834 0.960693 0.859375 0.907715 0.8479 0.960693 0.859375 0.958496 0.829834 0.996826 0.863037 0.996826 0.863037 0.958496 0.829834 0.989258 0.81958 0.105225 0.479248 0.121582 0.43457 0.142822 0.42749 0.121582 0.43457 0.105225 0.479248 0.083984 0.404541 0.05249 0.369385 0.083984 0.404541 0.049316 0.411133 0.083984 0.404541 0.05249 0.369385 0.071289 0.338867 0.083984 0.404541 0.071289 0.338867 0.122803 0.380371 0.083984 0.404541 0.122803 0.380371 0.121582 0.43457 0.122803 0.380371 0.071289 0.338867 0.126221 0.328857 0.121582 0.43457 0.122803 0.380371 0.154297 0.391846 0.154297 0.391846 0.122803 0.380371 0.126221 0.328857 0.121582 0.43457 0.154297 0.391846 0.142822 0.42749 0.154297 0.391846 0.126221 0.328857 0.148438 0.35083 0.148438 0.35083 0.126221 0.328857 0.144043 0.314941 0.142822 0.42749 0.154297 0.391846 0.177002 0.41333 0.142822 0.42749 0.177002 0.41333 0.15918 0.444336 0.177002 0.41333 0.154297 0.391846 0.190918 0.377686 0.154297 0.391846 0.148438 0.35083 0.171631 0.364258 0.171631 0.364258 0.148438 0.35083 0.144043 0.314941 0.154297 0.391846 0.171631 0.364258 0.190918 0.377686 0.171631 0.364258 0.144043 0.314941 0.179932 0.317627 0.171631 0.364258 0.179932 0.317627 0.190918 0.377686 0.179932 0.317627 0.144043 0.314941 0.148926 0.292236 0.190918 0.377686 0.179932 0.317627 0.237305 0.299561 0.177002 0.41333 0.190918 0.377686 0.215576 0.421631 0.190918 0.377686 0.237305 0.299561 0.275391 0.374023 0.190918 0.377686 0.275391 0.374023 0.215576 0.421631 0.215576 0.421631 0.275391 0.374023 0.246094 0.437012 0.246094 0.437012 0.275391 0.374023 0.359131 0.391846 0.101318 0.196533 0.049561 0.15332 0.087646 0.166504 0.087646 0.166504 0.049561 0.15332 0.10083 0.128418 0.087646 0.166504 0.10083 0.128418 0.101318 0.196533 0.10083 0.128418 0.049561 0.15332 0.020996 0.088135 0.101318 0.196533 0.10083 0.128418 0.140625 0.116943 0.101318 0.196533 0.140625 0.116943 0.167725 0.14209 0.167725 0.14209 0.140625 0.116943 0.196045 0.094971 0.167725 0.14209 0.196045 0.094971 0.231445 0.130127 0.033447 0.892578 0.070557 0.85791 0.106934 0.9104 0.033447 0.892578 0.106934 0.9104 0.073486 0.958252 0.033447 0.892578 0.073486 0.958252 0.013184 0.962402 0.073486 0.958252 0.106934 0.9104 0.16626 0.960938 0.997803 0.112305 0.997803 0.163086 0.949219 0.164551 0.900146 0.549072 0.907471 0.572998 0.880371 0.588379 0.880371 0.588379 0.907471 0.572998 0.917969 0.588867 0.900146 0.549072 0.880371 0.588379 0.871094 0.568359 0.880371 0.588379 0.917969 0.588867 0.87915 0.622314 0.871094 0.568359 0.880371 0.588379 0.835205 0.612793 0.835205 0.612793 0.880371 0.588379 0.87915 0.622314 0.871094 0.568359 0.835205 0.612793 0.812012 0.577637 0.812012 0.577637 0.835205 0.612793 0.790527 0.582275 0.790527 0.582275 0.835205 0.612793 0.77832 0.600586 0.835205 0.612793 0.87915 0.622314 0.84668 0.649902 0.835205 0.612793 0.84668 0.649902 0.77832 0.600586 0.84668 0.649902 0.87915 0.622314 0.91333 0.677734 0.77832 0.600586 0.84668 0.649902 0.779785 0.679688 0.84668 0.649902 0.91333 0.677734 0.867676 0.736084 0.84668 0.649902 0.867676 0.736084 0.779785 0.679688 0.317383 0.716553 0.275879 0.676025 0.327148 0.689941 0.317383 0.716553 0.327148 0.689941 0.34082 0.70874 0.34082 0.70874 0.327148 0.689941 0.353027 0.664551 0.34082 0.70874 0.353027 0.664551 0.378418 0.687744 0.353027 0.664551 0.327148 0.689941 0.301758 0.66626 0.301758 0.66626 0.327148 0.689941 0.275879 0.676025 0.378418 0.687744 0.353027 0.664551 0.393555 0.670654 0.378418 0.687744 0.393555 0.670654 0.404053 0.691406 0.404053 0.691406 0.393555 0.670654 0.421387 0.688477 0.421387 0.688477 0.393555 0.670654 0.42334 0.670898 0.421387 0.688477 0.42334 0.670898 0.431152 0.699219 0.393555 0.670654 0.353027 0.664551 0.377686 0.630615 0.393555 0.670654 0.377686 0.630615 0.42334 0.670898 0.42334 0.670898 0.377686 0.630615 0.453857 0.651855 0.42334 0.670898 0.453857 0.651855 0.481201 0.691162 0.377686 0.630615 0.353027 0.664551 0.330078 0.641113 0.330078 0.641113 0.353027 0.664551 0.301758 0.66626 0.377686 0.630615 0.330078 0.641113 0.363037 0.585449 0.363037 0.585449 0.330078 0.641113 0.308105 0.612061 0.308105 0.612061 0.330078 0.641113 0.301758 0.66626 0.308105 0.612061 0.301758 0.66626 0.275879 0.676025 0.308105 0.612061 0.275879 0.676025 0.268311 0.561279 0.268311 0.561279 0.275879 0.676025 0.205566 0.592285 0.205566 0.592285 0.275879 0.676025 0.224365 0.669434 0.224365 0.669434 0.275879 0.676025 0.233887 0.708252 0.205566 0.592285 0.224365 0.669434 0.158936 0.648193 0.158936 0.648193 0.224365 0.669434 0.233887 0.708252 0.205566 0.592285 0.158936 0.648193 0.11377 0.549805 0.158936 0.648193 0.233887 0.708252 0.156494 0.725342 0.929932 0.708496 0.899902 0.616699 0.99585 0.616699 0.226074 0.717529 0.291504 0.706055 0.235352 0.839111 0.226074 0.717529 0.235352 0.839111 0.150146 0.777588 0.150146 0.777588 0.235352 0.839111 0.184326 0.890137 0.235352 0.839111 0.291504 0.706055 0.267334 0.836914 0.235352 0.839111 0.267334 0.836914 0.284668 0.89917 0.267334 0.836914 0.291504 0.706055 0.306641 0.792236 0.267334 0.836914 0.306641 0.792236 0.284668 0.89917 0.306641 0.792236 0.291504 0.706055 0.337402 0.740723 0.284668 0.89917 0.306641 0.792236 0.343506 0.823242 0.343506 0.823242 0.306641 0.792236 0.337402 0.740723 0.284668 0.89917 0.343506 0.823242 0.327148 0.89624 0.327148 0.89624 0.343506 0.823242 0.359619 0.873779 0.359619 0.873779 0.343506 0.823242 0.364014 0.80957 0.343506 0.823242 0.337402 0.740723 0.369141 0.75 0.343506 0.823242 0.369141 0.75 0.364014 0.80957 0.369141 0.75 0.337402 0.740723 0.363525 0.703369 0.359619 0.873779 0.364014 0.80957 0.381836 0.818848 0.381836 0.818848 0.364014 0.80957 0.369141 0.75 0.359619 0.873779 0.381836 0.818848 0.375244 0.889893 0.381836 0.818848 0.369141 0.75 0.427979 0.748291 0.427979 0.748291 0.369141 0.75 0.380371 0.710205 0.375244 0.889893 0.381836 0.818848 0.416992 0.842041 0.375244 0.889893 0.416992 0.842041 0.422607 0.898682 0.381836 0.818848 0.427979 0.748291 0.427734 0.795654 0.381836 0.818848 0.427734 0.795654 0.416992 0.842041 0.427734 0.795654 0.427979 0.748291 0.497314 0.782959 0.427734 0.795654 0.497314 0.782959 0.416992 0.842041 0.262207 0.531494 0.20874 0.58252 0.202881 0.52124 0.153076 0.561523 0.112549 0.497314 0.202881 0.52124 0.202881 0.52124 0.112549 0.497314 0.191895 0.423828 0.202881 0.52124 0.191895 0.423828 0.236816 0.464111 0.202881 0.52124 0.236816 0.464111 0.262207 0.531494 0.262207 0.531494 0.236816 0.464111 0.28418 0.451904 0.262207 0.531494 0.28418 0.451904 0.30835 0.564941 0.30835 0.564941 0.28418 0.451904 0.328125 0.502197 0.328125 0.502197 0.28418 0.451904 0.308105 0.427979 0.30835 0.564941 0.328125 0.502197 0.338379 0.553223 0.328125 0.502197 0.308105 0.427979 0.34082 0.457275 0.328125 0.502197 0.34082 0.457275 0.35791 0.492432 0.328125 0.502197 0.35791 0.492432 0.338379 0.553223 0.35791 0.492432 0.34082 0.457275 0.348633 0.426758 0.35791 0.492432 0.348633 0.426758 0.395752 0.428711 0.338379 0.553223 0.35791 0.492432 0.36377 0.549805 0.338379 0.553223 0.36377 0.549805 0.349609 0.582275 0.35791 0.492432 0.395752 0.428711 0.381592 0.49707 0.35791 0.492432 0.381592 0.49707 0.36377 0.549805 0.36377 0.549805 0.381592 0.49707 0.380127 0.573975 0.380127 0.573975 0.381592 0.49707 0.427002 0.569824 0.381592 0.49707 0.395752 0.428711 0.438477 0.466309 0.427002 0.569824 0.381592 0.49707 0.455078 0.516602 0.455078 0.516602 0.381592 0.49707 0.438477 0.466309 0.455078 0.516602 0.438477 0.466309 0.512939 0.450195 0.455078 0.516602 0.512939 0.450195 0.555664 0.493896 0.512939 0.450195 0.438477 0.466309 0.470215 0.41626 0.913574 0.395752 0.999756 0.457764 0.919678 0.498535 0.052246 0.351807 0.042969 0.380615 0.023193 0.380615 0.052246 0.351807 0.023193 0.380615 0.013672 0.351562 0.849121 0.027832 0.859375 0.093262 0.800781 0.080078 0.859375 0.093262 0.849121 0.027832 0.89624 0.023682 0.859375 0.093262 0.89624 0.023682 0.937988 0.075928 0.859375 0.093262 0.937988 0.075928 0.902344 0.130859 0.902344 0.130859 0.937988 0.075928 0.932617 0.171143 0.99707 0.093018 0.941895 0.093018 0.989746 0.052979 0.294678 0.064697 0.249512 0.003174 0.33252 0 0.294678 0.064697 0.33252 0 0.412354 0.110352 0.294678 0.064697 0.412354 0.110352 0.342529 0.13208 0.294678 0.064697 0.342529 0.13208 0.243896 0.099365 0.294678 0.064697 0.243896 0.099365 0.201416 0.082764 0.243896 0.099365 0.342529 0.13208 0.279785 0.148193 0.111084 0.119385 0.027832 0.082764 0.121582 0.010986 0.111084 0.119385 0.121582 0.010986 0.200928 0.062256 0.633545 0.468994 0.634277 0.551514 0.525391 0.512451 0.525391 0.512451 0.634277 0.551514 0.569336 0.562256 0.525391 0.512451 0.569336 0.562256 0.501709 0.579346 0.525391 0.512451 0.501709 0.579346 0.454834 0.560547 0.569336 0.562256 0.634277 0.551514 0.561279 0.605469 0.569336 0.562256 0.561279 0.605469 0.501709 0.579346 0.561279 0.605469 0.634277 0.551514 0.609131 0.628174 0.454834 0.560547 0.501709 0.579346 0.442627 0.5896 0.561279 0.605469 0.609131 0.628174 0.535156 0.617676 0.561279 0.605469 0.535156 0.617676 0.501709 0.579346 0.535156 0.617676 0.609131 0.628174 0.591797 0.642822 0.442627 0.5896 0.501709 0.579346 0.489746 0.594238 0.489746 0.594238 0.501709 0.579346 0.535156 0.617676 0.535156 0.617676 0.591797 0.642822 0.540039 0.642822 0.535156 0.617676 0.540039 0.642822 0.489746 0.594238 0.540039 0.642822 0.591797 0.642822 0.589844 0.668457 0.442627 0.5896 0.489746 0.594238 0.477539 0.61377 0.477539 0.61377 0.489746 0.594238 0.540039 0.642822 0.442627 0.5896 0.477539 0.61377 0.439697 0.606689 0.439697 0.606689 0.477539 0.61377 0.470703 0.648193 0.470703 0.648193 0.477539 0.61377 0.489014 0.692871 0.489014 0.692871 0.477539 0.61377 0.540039 0.642822 0.489014 0.692871 0.540039 0.642822 0.589844 0.668457 0.489014 0.692871 0.589844 0.668457 0.556885 0.720215 0.489014 0.692871 0.556885 0.720215 0.55249 0.752197 0.55249 0.752197 0.556885 0.720215 0.623535 0.744873 0.489014 0.692871 0.55249 0.752197 0.484863 0.75415 0.484863 0.75415 0.55249 0.752197 0.523926 0.797363 0.088867 0.562012 0.101318 0.639648 0.001953 0.590088 0.001953 0.590088 0.101318 0.639648 0.024658 0.700684 0.088867 0.562012 0.001953 0.590088 0.003418 0.5354 0.088867 0.562012 0.003418 0.5354 0.067871 0.516846 0.067871 0.516846 0.003418 0.5354 0.022461 0.488037 0.067871 0.516846 0.022461 0.488037 0.092041 0.455322 0.092041 0.455322 0.022461 0.488037 0.047607 0.443115 0.047607 0.443115 0.022461 0.488037 0.013184 0.44751 0.047607 0.443115 0.013184 0.44751 0.002686 0.399658 0.98584 0.280273 0.952881 0.29834 0.966553 0.237793 0.98584 0.280273 0.966553 0.237793 1 0.240479 0.952881 0.29834 0.98584 0.280273 0.980469 0.336182 0.966553 0.237793 0.952881 0.29834 0.906006 0.280762 0.966553 0.237793 0.906006 0.280762 0.904053 0.230469 0.966553 0.237793 0.904053 0.230469 0.95874 0.171143 0.904053 0.230469 0.906006 0.280762 0.847168 0.317383 0.906006 0.280762 0.952881 0.29834 0.922119 0.335938 0.952881 0.29834 0.980469 0.336182 0.957275 0.360596 0.952881 0.29834 0.957275 0.360596 0.922119 0.335938 0.957275 0.360596 0.980469 0.336182 0.990967 0.363525 0.922119 0.335938 0.957275 0.360596 0.911865 0.361084 0.957275 0.360596 0.990967 0.363525 0.94873 0.391113 0.957275 0.360596 0.94873 0.391113 0.911865 0.361084 0.90918 0.401367 0.877441 0.388428 0.882324 0.371338 0.877441 0.388428 0.90918 0.401367 0.87207 0.419678 0.882324 0.371338 0.877441 0.388428 0.840576 0.390625 0.840576 0.390625 0.877441 0.388428 0.87207 0.419678 0.87207 0.419678 0.90918 0.401367 0.910156 0.46582 0.882324 0.371338 0.840576 0.390625 0.841553 0.34375 0.882324 0.371338 0.841553 0.34375 0.907227 0.326416 0.841553 0.34375 0.840576 0.390625 0.798584 0.372314 0.841553 0.34375 0.798584 0.372314 0.796875 0.334717 0.841553 0.34375 0.796875 0.334717 0.844482 0.28418 0.798584 0.372314 0.840576 0.390625 0.79248 0.401855 0.798584 0.372314 0.79248 0.401855 0.753906 0.38501 0.753906 0.38501 0.79248 0.401855 0.750488 0.431152 0.79248 0.401855 0.840576 0.390625 0.83252 0.425293 0.83252 0.425293 0.840576 0.390625 0.87207 0.419678 0.750488 0.431152 0.79248 0.401855 0.781738 0.429443 0.781738 0.429443 0.79248 0.401855 0.83252 0.425293 0.750488 0.431152 0.781738 0.429443 0.755859 0.457764 0.83252 0.425293 0.87207 0.419678 0.876221 0.447998 0.876221 0.447998 0.87207 0.419678 0.910156 0.46582 0.781738 0.429443 0.83252 0.425293 0.822998 0.456299 0.781738 0.429443 0.822998 0.456299 0.755859 0.457764 0.822998 0.456299 0.83252 0.425293 0.876221 0.447998 0.755859 0.457764 0.822998 0.456299 0.81665 0.509521 0.755859 0.457764 0.81665 0.509521 0.739746 0.492432 0.822998 0.456299 0.876221 0.447998 0.865234 0.493896 0.865234 0.493896 0.876221 0.447998 0.910156 0.46582 0.822998 0.456299 0.865234 0.493896 0.81665 0.509521 0.865234 0.493896 0.910156 0.46582 0.883301 0.511719 0.865234 0.493896 0.883301 0.511719 0.81665 0.509521 0.883301 0.511719 0.910156 0.46582 0.913818 0.516846 0.81665 0.509521 0.883301 0.511719 0.836914 0.535889 0.883789 0.726074 0.971191 0.726074 0.879883 0.852051 0.879883 0.852051 0.971191 0.726074 0.960938 0.818848 0.76709 0.891602 0.650391 0.938965 0.641357 0.855469 0.76709 0.891602 0.641357 0.855469 0.66748 0.802246 0.615234 0.833496 0.616455 0.806641 0.641357 0.855469 0.641357 0.855469 0.616455 0.806641 0.66748 0.802246 0.76709 0.891602 0.66748 0.802246 0.708496 0.79541 0.76709 0.891602 0.708496 0.79541 0.778809 0.770264 0.778809 0.770264 0.708496 0.79541 0.716309 0.772217 0.778809 0.770264 0.716309 0.772217 0.789795 0.735352 0.708496 0.79541 0.66748 0.802246 0.67041 0.777344 0.708496 0.79541 0.67041 0.777344 0.716309 0.772217 0.789795 0.735352 0.716309 0.772217 0.699463 0.749512 0.699463 0.749512 0.716309 0.772217 0.67041 0.777344 0.789795 0.735352 0.699463 0.749512 0.773193 0.691162 0.67041 0.777344 0.66748 0.802246 0.64209 0.787109 0.64209 0.787109 0.66748 0.802246 0.616455 0.806641 0.64209 0.787109 0.616455 0.806641 0.618652 0.768066 0.618652 0.768066 0.616455 0.806641 0.596436 0.787354 0.64209 0.787109 0.618652 0.768066 0.630127 0.744873 0.67041 0.777344 0.64209 0.787109 0.658203 0.763672 0.658203 0.763672 0.64209 0.787109 0.630127 0.744873 0.67041 0.777344 0.658203 0.763672 0.699463 0.749512 0.699463 0.749512 0.658203 0.763672 0.671387 0.736084 0.671387 0.736084 0.658203 0.763672 0.630127 0.744873 0.699463 0.749512 0.671387 0.736084 0.773193 0.691162 0.671387 0.736084 0.630127 0.744873 0.640381 0.709717 0.640381 0.709717 0.630127 0.744873 0.603516 0.676758 0.773193 0.691162 0.671387 0.736084 0.662842 0.667236 0.640381 0.709717 0.603516 0.676758 0.662842 0.667236 0.640381 0.709717 0.662842 0.667236 0.671387 0.736084 0.773193 0.691162 0.662842 0.667236 0.773193 0.605957 0.649414 0.418701 0.72998 0.413818 0.687744 0.436523 0.687744 0.436523 0.72998 0.413818 0.723145 0.473389 0.60791 0.456543 0.604004 0.427002 0.649414 0.418701 0.60791 0.456543 0.649414 0.418701 0.64502 0.466553 0.64502 0.466553 0.649414 0.418701 0.687744 0.436523 0.72998 0.413818 0.649414 0.418701 0.679688 0.352295 0.679688 0.352295 0.649414 0.418701 0.591797 0.387207 0.72998 0.413818 0.679688 0.352295 0.777588 0.324463 0.777588 0.324463 0.679688 0.352295 0.70874 0.301514 0.70874 0.301514 0.679688 0.352295 0.651611 0.296875 0.64502 0.466553 0.687744 0.436523 0.690918 0.483887 0.690918 0.483887 0.687744 0.436523 0.723145 0.473389 0.64502 0.466553 0.690918 0.483887 0.657715 0.539062 0.657715 0.539062 0.690918 0.483887 0.705811 0.543213 0.705811 0.543213 0.690918 0.483887 0.723145 0.473389 0.705811 0.543213 0.723145 0.473389 0.746826 0.519775 0.705811 0.543213 0.746826 0.519775 0.736816 0.575195 0.736816 0.575195 0.746826 0.519775 0.775146 0.572266 0.142822 0.865723 0.169434 0.954834 0.077148 0.844971 0.142822 0.865723 0.077148 0.844971 0.10083 0.827393 0 0.900391 0.046631 0.824951 0.077148 0.844971 0.077148 0.844971 0.046631 0.824951 0.079834 0.793457 0.077148 0.844971 0.079834 0.793457 0.10083 0.827393 0.079834 0.793457 0.046631 0.824951 0.026123 0.78418 0.079834 0.793457 0.026123 0.78418 0.050293 0.748779 0.10083 0.827393 0.079834 0.793457 0.10376 0.770264 0.10376 0.770264 0.079834 0.793457 0.050293 0.748779 0.10083 0.827393 0.10376 0.770264 0.119873 0.794434 0.10376 0.770264 0.050293 0.748779 0.076904 0.729492 0.10376 0.770264 0.076904 0.729492 0.122803 0.708252 0.10376 0.770264 0.122803 0.708252 0.128174 0.740723 0.128174 0.740723 0.122803 0.708252 0.150879 0.735352 0.150879 0.735352 0.122803 0.708252 0.15332 0.651611 0.15332 0.651611 0.122803 0.708252 0.135254 0.638916 0.135254 0.638916 0.122803 0.708252 0.106934 0.686279 0.106934 0.686279 0.122803 0.708252 0.076904 0.729492 0.030029 0.705811 0.076904 0.729492 0.050293 0.748779 0.076904 0.729492 0.030029 0.705811 0.106934 0.686279 0.106934 0.686279 0.030029 0.705811 0.088623 0.65918 0.030029 0.705811 0.050293 0.748779 0.01123 0.721191 0.030029 0.705811 0.01123 0.721191 0.000488 0.703857 0.551514 0.165771 0.605957 0.157227 0.602783 0.202393 0.602783 0.202393 0.605957 0.157227 0.641602 0.205322 0.551514 0.165771 0.602783 0.202393 0.557129 0.213623 0.602783 0.202393 0.641602 0.205322 0.592285 0.239014 0.602783 0.202393 0.592285 0.239014 0.557129 0.213623 0.592285 0.239014 0.641602 0.205322 0.624512 0.243652 0.624512 0.243652 0.641602 0.205322 0.641357 0.265137 0.641357 0.265137 0.641602 0.205322 0.76001 0.207275 0.592285 0.239014 0.624512 0.243652 0.592529 0.265625 0.592529 0.265625 0.624512 0.243652 0.641357 0.265137 0.592529 0.265625 0.641357 0.265137 0.622559 0.306641 0.622559 0.306641 0.641357 0.265137 0.645264 0.309082 0.592285 0.239014 0.592529 0.265625 0.554688 0.26416 0.592285 0.239014 0.554688 0.26416 0.557129 0.213623 0.592529 0.265625 0.622559 0.306641 0.571045 0.285889 0.592529 0.265625 0.571045 0.285889 0.554688 0.26416 0.571045 0.285889 0.622559 0.306641 0.563232 0.324951 0.571045 0.285889 0.563232 0.324951 0.534668 0.295898 0.571045 0.285889 0.534668 0.295898 0.554688 0.26416 0.557129 0.213623 0.554688 0.26416 0.514648 0.246582 0.557129 0.213623 0.514648 0.246582 0.526855 0.206055 0.526855 0.206055 0.514648 0.246582 0.489014 0.205566 0.489014 0.205566 0.514648 0.246582 0.47998 0.247803 0.557129 0.213623 0.526855 0.206055 0.523926 0.177734 0.523926 0.177734 0.526855 0.206055 0.489014 0.205566 0.557129 0.213623 0.523926 0.177734 0.551514 0.165771 0.523926 0.177734 0.489014 0.205566 0.509521 0.150391 0.523926 0.177734 0.509521 0.150391 0.551514 0.165771 0.902588 0.020508 0.985107 0.047119 0.950195 0.07666 0.005127 0.206787 0.005127 0.131592 0.076416 0.185303 0.912109 1 1 0.935303 0.996582 1 1 0.935303 0.912109 1 0.884766 0.937256 1 0.935303 0.884766 0.937256 0.997559 0.873047 0.997559 0.873047 0.884766 0.937256 0.931885 0.859375 0.941162 0.160645 0.941162 0.0979 0.990967 0.110107 0.914551 0.611816 0.976074 0.567627 0.99292 0.597412 0.991699 0.390625 0.991699 0.43335 0.93042 0.39917 0.926025 0.595215 0.910645 0.549072 0.990967 0.547119 0.032227 0.069824 0.024658 0.031738 0.113037 0.008789</float_array>
          <technique_common>
            <accessor source="#CrocodileSkin-mesh-map-0-array" count="1422" stride="2">
              <param name="S" type="float"/>
              <param name="T" type="float"/>
            </accessor>
          </technique_common>
        </source>
        <vertices id="CrocodileSkin-mesh-vertices">
          <input semantic="POSITION" source="#CrocodileSkin-mesh-positions"/>
        </vertices>
        <polylist material="Material_-1-material" count="6">
          <input semantic="VERTEX" source="#CrocodileSkin-mesh-vertices" offset="0"/>
          <input semantic="NORMAL" source="#CrocodileSkin-mesh-normals" offset="1"/>
          <input semantic="TEXCOORD" source="#CrocodileSkin-mesh-map-0" offset="2" set="0"/>
          <vcount>3 3 3 3 3 3 3 3 3 3 3 3 3 3 3 3 3 3 3 3 3 3 3 3 3 3 3 3 3 3 3 3 3 3 3 3 3 3 3 3 3 3 3 3 3 3 3 3 3 3 3 3 3 3 3 3 3 3 3 3 3 3 3 3 3 3 3 3 3 3 3 3 3 3 3 3 3 3 3 3 3 3 3 3 3 3 3 3 3 3 3 3 3 3 3 3 3 3 3 3 3 3 3 3 3 3 3 3 3 3 3 3 3 3 3 3 3 3 3 3 3 3 3 3 3 3 3 3 3 3 3 3 3 3 3 3 3 3 3 3 3 3 3 3 3 3 3 3 3 3 3 3 3 3 3 3 3 3 3 3 3 3 3 3 3 3 3 3 3 3 3 3 3 3 3 3 3 3 3 3 3 3 3 3 3 3 3 3 3 3 3 3 3 3 3 3 3 3 3 3 3 3 3 3 3 3 3 3 3 3 3 3 3 3 3 3 3 3 3 3 3 3 3 3 3 3 3 3 3 3 3 3 3 3 3 3 3 3 3 3 3 3 3 3 3 3 3 3 3 3 3 3 3 3 3 3 3 3 3 3 3 3 3 3 3 3 3 3 3 3 3 3 3 3 3 3 3 3 3 3 3 3 3 3 3 3 3 3 3 3 3 3 3 3 3 3 3 3 3 3 3 3 3 3 3 3 3 3 3 3 3 3 3 3 3 3 3 3 3 3 3 3 3 3 3 3 3 3 3 3 3 3 3 3 3 3 3 3 3 3 3 3 3 3 3 3 3 3 3 3 3 3 3 3 3 3 3 3 3 3 3 3 3 3 3 3 3 3 3 3 3 3 3 3 3 3 3 3 3 3 3 3 3 3 3 3 3 3 3 3 3 3 3 3 3 3 3 3 3 3 3 3 3 3 3 3 3 3 3 3 3 3 3 3 3 3 3 3 3 3 3 3 3 3 3 3 3 3 3 3 3 3 3 3 3 3 3 3 3 3 3 3 3 3 3 3 3 3 3 3 3 3 3 3 3 3 3 3 3 3 3 3 3 3 3 3 3 3 3 3 3 3 3 3</vcount>
          <p>0 0 0 1 0 1 2 0 2 1 1 3 0 1 4 3 1 5 1 2 6 3 2 7 4 2 8 0 3 9 2 3 10 5 3 11 5 4 12 2 4 13 6 4 14 4 5 15 3 5 16 7 5 17 0 6 18 5 6 19 8 6 20 0 7 21 8 7 22 3 7 23 9 8 24 10 8 25 5 8 26 5 9 27 10 9 28 11 9 29 5 10 30 11 10 31 8 10 32 8 11 33 11 11 34 12 11 35 8 12 36 12 12 37 3 12 38 13 13 39 7 13 40 3 13 41 13 14 42 3 14 43 12 14 44 13 15 45 12 15 46 14 15 47 7 16 48 13 16 49 15 16 50 15 17 51 13 17 52 16 17 53 17 18 54 18 18 55 19 18 56 19 19 57 18 19 58 20 19 59 19 20 60 20 20 61 21 20 62 18 21 63 17 21 64 22 21 65 22 22 66 17 22 67 23 22 68 21 23 69 20 23 70 24 23 71 20 24 72 18 24 73 25 24 74 20 25 75 25 25 76 24 25 77 18 26 78 22 26 79 26 26 80 18 27 81 26 27 82 25 27 83 22 28 84 23 28 85 27 28 86 22 29 87 27 29 88 26 29 89 25 30 90 26 30 91 28 30 92 28 31 93 26 31 94 27 31 95 28 32 96 27 32 97 14 32 98 27 33 99 23 33 100 29 33 101 27 34 102 29 34 103 30 34 104 30 35 105 29 35 106 31 35 107 32 36 108 24 36 109 25 36 110 24 37 111 32 37 112 33 37 113 33 38 114 32 38 115 34 38 116 33 39 117 34 39 118 35 39 119 24 40 120 33 40 121 36 40 122 36 41 123 33 41 124 37 41 125 38 42 126 12 42 127 11 42 128 12 43 129 38 43 130 14 43 131 14 44 132 38 44 133 28 44 134 28 45 135 38 45 136 11 45 137 28 46 138 11 46 139 10 46 140 28 47 141 10 47 142 25 47 143 25 48 144 10 48 145 32 48 146 32 49 147 10 49 148 9 49 149 32 50 150 9 50 151 34 50 152 34 51 153 9 51 154 39 51 155 30 52 156 14 52 157 27 52 158 14 53 159 30 53 160 13 53 161 13 54 162 30 54 163 16 54 164 16 55 165 30 55 166 40 55 167 16 56 168 40 56 169 41 56 170 16 57 171 41 57 172 42 57 173 16 58 174 42 58 175 15 58 176 17 59 177 19 59 178 43 59 179 43 60 180 19 60 181 21 60 182 17 61 183 43 61 184 23 61 185 43 62 186 21 62 187 44 62 188 43 63 189 44 63 190 45 63 191 43 64 192 45 64 193 23 64 194 45 65 195 44 65 196 46 65 197 23 66 198 45 66 199 47 66 200 23 67 201 47 67 202 29 67 203 29 68 204 47 68 205 31 68 206 31 69 207 47 69 208 48 69 209 47 70 210 45 70 211 49 70 212 45 71 213 46 71 214 50 71 215 45 72 216 50 72 217 49 72 218 50 73 219 46 73 220 51 73 221 49 74 222 50 74 223 52 74 224 50 75 225 51 75 226 53 75 227 50 76 228 53 76 229 52 76 230 52 77 231 53 77 232 54 77 233 55 78 234 56 78 235 57 78 236 56 79 237 55 79 238 58 79 239 57 80 240 56 80 241 59 80 242 59 81 243 56 81 244 60 81 245 57 82 246 59 82 247 61 82 248 61 83 249 59 83 250 62 83 251 61 84 252 62 84 253 63 84 254 61 85 255 63 85 256 64 85 257 57 86 258 61 86 259 65 86 260 57 87 261 65 87 262 55 87 263 61 88 264 64 88 265 66 88 266 61 89 267 66 89 268 65 89 269 55 90 270 65 90 271 67 90 272 55 91 273 67 91 274 68 91 275 67 92 276 65 92 277 69 92 278 69 93 279 65 93 280 70 93 281 70 94 282 65 94 283 66 94 284 69 95 285 70 95 286 71 95 287 69 96 288 71 96 289 72 96 290 71 97 291 70 97 292 4 97 293 4 98 294 70 98 295 66 98 296 4 99 297 66 99 298 6 99 299 6 100 300 66 100 301 73 100 302 73 101 303 66 101 304 64 101 305 6 102 306 73 102 307 5 102 308 73 103 309 64 103 310 74 103 311 5 104 312 73 104 313 9 104 314 9 105 315 73 105 316 74 105 317 75 106 318 76 106 319 77 106 320 75 107 321 77 107 322 78 107 323 75 108 324 78 108 325 79 108 326 77 109 327 76 109 328 46 109 329 77 110 330 46 110 331 44 110 332 77 111 333 44 111 334 80 111 335 80 112 336 44 112 337 21 112 338 46 113 339 76 113 340 51 113 341 75 114 342 79 114 343 81 114 344 75 115 345 81 115 346 76 115 347 76 116 348 81 116 349 51 116 350 81 117 351 79 117 352 82 117 353 51 118 354 81 118 355 53 118 356 53 119 357 81 119 358 82 119 359 7 120 360 71 120 361 4 120 362 71 121 363 7 121 364 72 121 365 72 122 366 7 122 367 15 122 368 56 123 369 83 123 370 60 123 371 83 124 372 56 124 373 58 124 374 68 125 375 58 125 376 55 125 377 58 126 378 68 126 379 84 126 380 58 127 381 84 127 382 85 127 383 58 128 384 85 128 385 83 128 386 85 129 387 84 129 388 86 129 389 83 130 390 85 130 391 87 130 392 87 131 393 85 131 394 86 131 395 83 132 396 87 132 397 60 132 398 87 133 399 86 133 400 88 133 401 88 134 402 86 134 403 89 134 404 60 135 405 87 135 406 62 135 407 60 136 408 62 136 409 59 136 410 62 137 411 87 137 412 90 137 413 87 138 414 88 138 415 91 138 416 91 139 417 88 139 418 89 139 419 87 140 420 91 140 421 90 140 422 91 141 423 89 141 424 92 141 425 91 142 426 92 142 427 90 142 428 92 143 429 89 143 430 93 143 431 90 144 432 92 144 433 94 144 434 62 145 435 90 145 436 63 145 437 90 146 438 94 146 439 95 146 440 90 147 441 95 147 442 63 147 443 63 148 444 95 148 445 64 148 446 64 149 447 95 149 448 74 149 449 79 150 450 78 150 451 96 150 452 96 151 453 78 151 454 97 151 455 96 152 456 97 152 457 79 152 458 97 153 459 78 153 460 98 153 461 79 154 462 97 154 463 99 154 464 79 155 465 99 155 466 82 155 467 82 156 468 99 156 469 54 156 470 82 157 471 54 157 472 53 157 473 78 158 474 77 158 475 80 158 476 78 159 477 80 159 478 100 159 479 78 160 480 100 160 481 98 160 482 100 161 483 80 161 484 24 161 485 80 162 486 21 162 487 24 162 488 68 163 489 67 163 490 101 163 491 101 164 492 67 164 493 69 164 494 68 165 495 101 165 496 84 165 497 101 166 498 69 166 499 72 166 500 84 167 501 101 167 502 102 167 503 102 168 504 101 168 505 72 168 506 84 169 507 102 169 508 86 169 509 86 170 510 102 170 511 89 170 512 89 171 513 102 171 514 93 171 515 102 172 516 72 172 517 103 172 518 102 173 519 103 173 520 93 173 521 103 174 522 72 174 523 15 174 524 93 175 525 103 175 526 104 175 527 103 176 528 15 176 529 42 176 530 103 177 531 42 177 532 104 177 533 97 178 534 98 178 535 105 178 536 97 179 537 105 179 538 99 179 539 99 180 540 105 180 541 106 180 542 99 181 543 106 181 544 54 181 545 106 182 546 105 182 547 107 182 548 107 183 549 105 183 550 98 183 551 54 184 552 106 184 553 108 184 554 54 185 555 108 185 556 52 185 557 52 186 558 108 186 559 49 186 560 49 187 561 108 187 562 48 187 563 49 188 564 48 188 565 47 188 566 108 189 567 106 189 568 109 189 569 108 190 570 109 190 571 48 190 572 48 191 573 109 191 574 110 191 575 48 192 576 110 192 577 31 192 578 109 193 579 106 193 580 111 193 581 111 194 582 106 194 583 107 194 584 109 195 585 111 195 586 112 195 587 112 196 588 111 196 589 113 196 590 113 197 591 111 197 592 107 197 593 113 198 594 107 198 595 98 198 596 113 199 597 98 199 598 114 199 599 114 200 600 98 200 601 115 200 602 115 201 603 98 201 604 116 201 605 116 202 606 98 202 607 100 202 608 115 203 609 116 203 610 36 203 611 36 204 612 116 204 613 100 204 614 115 205 615 36 205 616 37 205 617 36 206 618 100 206 619 24 206 620 9 207 621 74 207 622 39 207 623 74 208 624 95 208 625 117 208 626 74 209 627 117 209 628 39 209 629 39 210 630 117 210 631 118 210 632 117 211 633 95 211 634 119 211 635 117 212 636 119 212 637 120 212 638 119 213 639 95 213 640 121 213 641 119 214 642 121 214 643 120 214 644 121 215 645 95 215 646 94 215 647 120 216 648 121 216 649 122 216 650 122 217 651 121 217 652 94 217 653 120 218 654 122 218 655 123 218 656 123 219 657 122 219 658 124 219 659 124 220 660 122 220 661 125 220 662 122 221 663 94 221 664 126 221 665 122 222 666 126 222 667 125 222 668 126 223 669 94 223 670 92 223 671 124 224 672 125 224 673 127 224 674 127 225 675 125 225 676 126 225 677 124 226 678 127 226 679 128 226 680 127 227 681 126 227 682 104 227 683 104 228 684 126 228 685 93 228 686 128 229 687 127 229 688 129 229 689 128 230 690 129 230 691 130 230 692 127 231 693 104 231 694 131 231 695 127 232 696 131 232 697 129 232 698 131 233 699 104 233 700 132 233 701 131 234 702 132 234 703 129 234 704 37 235 705 33 235 706 35 235 707 34 236 708 133 236 709 35 236 710 35 237 711 133 237 712 134 237 713 35 238 714 134 238 715 135 238 716 35 239 717 135 239 718 37 239 719 37 240 720 135 240 721 136 240 722 37 241 723 136 241 724 115 241 725 115 242 726 136 242 727 137 242 728 137 243 729 136 243 730 138 243 731 115 244 732 137 244 733 114 244 734 137 245 735 138 245 736 139 245 737 137 246 738 139 246 739 140 246 740 137 247 741 140 247 742 114 247 743 140 248 744 139 248 745 141 248 746 140 249 747 141 249 748 142 249 749 114 250 750 140 250 751 112 250 752 114 251 753 112 251 754 113 251 755 140 252 756 142 252 757 143 252 758 140 253 759 143 253 760 112 253 761 112 254 762 143 254 763 109 254 764 109 255 765 143 255 766 110 255 767 143 256 768 142 256 769 144 256 770 110 257 771 143 257 772 145 257 773 145 258 774 143 258 775 144 258 776 145 259 777 144 259 778 146 259 779 145 260 780 146 260 781 147 260 782 146 261 783 144 261 784 148 261 785 34 262 786 39 262 787 133 262 788 6 263 789 2 263 790 1 263 791 6 264 792 1 264 793 4 264 794 31 265 795 40 265 796 30 265 797 40 266 798 31 266 799 110 266 800 40 267 801 110 267 802 145 267 803 40 268 804 145 268 805 41 268 806 41 269 807 145 269 808 147 269 809 93 270 810 126 270 811 92 270 812 132 271 813 104 271 814 42 271 815 132 272 816 42 272 817 41 272 818 132 273 819 41 273 820 147 273 821 132 274 822 147 274 823 149 274 824 132 275 825 149 275 826 129 275 827 149 276 828 147 276 829 150 276 830 133 277 831 39 277 832 118 277 833 133 278 834 118 278 835 151 278 836 133 279 837 151 279 838 134 279 839 134 280 840 151 280 841 152 280 842 134 281 843 152 281 844 153 281 845 134 282 846 153 282 847 154 282 848 152 283 849 151 283 850 155 283 851 152 284 852 155 284 853 153 284 854 155 285 855 151 285 856 156 285 857 154 286 858 153 286 859 157 286 860 155 287 861 156 287 862 158 287 863 155 288 864 158 288 865 153 288 866 158 289 867 156 289 868 159 289 869 157 290 870 153 290 871 160 290 872 160 291 873 153 291 874 158 291 875 158 292 876 159 292 877 161 292 878 158 293 879 161 293 880 160 293 881 161 294 882 159 294 883 162 294 884 157 295 885 160 295 886 163 295 887 163 296 888 160 296 889 161 296 890 157 297 891 163 297 892 164 297 893 164 298 894 163 298 895 165 298 896 165 299 897 163 299 898 166 299 899 166 300 900 163 300 901 161 300 902 166 301 903 161 301 904 162 301 905 166 302 906 162 302 907 167 302 908 166 303 909 167 303 910 168 303 911 168 304 912 167 304 913 169 304 914 166 305 915 168 305 916 148 305 917 148 306 918 168 306 919 146 306 920 136 307 921 135 307 922 170 307 923 170 308 924 135 308 925 134 308 926 136 309 927 170 309 928 171 309 929 136 310 930 171 310 931 138 310 932 138 311 933 171 311 934 172 311 935 138 312 936 172 312 937 139 312 938 139 313 939 172 313 940 141 313 941 141 314 942 172 314 943 173 314 944 141 315 945 173 315 946 142 315 947 174 316 948 175 316 949 176 316 950 174 317 951 176 317 952 177 317 953 175 318 954 174 318 955 178 318 956 176 319 957 175 319 958 130 319 959 176 320 960 130 320 961 179 320 962 176 321 963 179 321 964 169 321 965 179 322 966 130 322 967 129 322 968 130 323 969 175 323 970 128 323 971 175 324 972 178 324 973 180 324 974 175 325 975 180 325 976 128 325 977 180 326 978 178 326 979 181 326 980 128 327 981 180 327 982 124 327 983 180 328 984 181 328 985 123 328 986 180 329 987 123 329 988 124 329 989 178 330 990 182 330 991 181 330 992 182 331 993 178 331 994 183 331 995 181 332 996 182 332 997 184 332 998 184 333 999 182 333 1000 183 333 1001 183 334 1002 178 334 1003 174 334 1004 181 335 1005 184 335 1006 185 335 1007 181 336 1008 185 336 1009 123 336 1010 185 337 1011 184 337 1012 186 337 1013 185 338 1014 186 338 1015 187 338 1016 185 339 1017 187 339 1018 120 339 1019 186 340 1020 184 340 1021 188 340 1022 186 341 1023 188 341 1024 189 341 1025 189 342 1026 188 342 1027 190 342 1028 188 343 1029 184 343 1030 191 343 1031 191 344 1032 184 344 1033 183 344 1034 190 345 1035 188 345 1036 192 345 1037 192 346 1038 188 346 1039 191 346 1040 190 347 1041 192 347 1042 193 347 1043 191 348 1044 183 348 1045 194 348 1046 194 349 1047 183 349 1048 174 349 1049 192 350 1050 191 350 1051 195 350 1052 192 351 1053 195 351 1054 193 351 1055 195 352 1056 191 352 1057 194 352 1058 193 353 1059 195 353 1060 196 353 1061 193 354 1062 196 354 1063 197 354 1064 195 355 1065 194 355 1066 198 355 1067 198 356 1068 194 356 1069 174 356 1070 195 357 1071 198 357 1072 196 357 1073 198 358 1074 174 358 1075 199 358 1076 198 359 1077 199 359 1078 196 359 1079 199 360 1080 174 360 1081 177 360 1082 196 361 1083 199 361 1084 200 361 1085 118 362 1086 117 362 1087 201 362 1088 201 363 1089 117 363 1090 120 363 1091 151 364 1092 118 364 1093 202 364 1094 151 365 1095 202 365 1096 203 365 1097 204 366 1098 205 366 1099 202 366 1100 202 367 1101 205 367 1102 203 367 1103 151 368 1104 203 368 1105 206 368 1106 151 369 1107 206 369 1108 156 369 1109 156 370 1110 206 370 1111 207 370 1112 156 371 1113 207 371 1114 159 371 1115 206 372 1116 203 372 1117 208 372 1118 206 373 1119 208 373 1120 207 373 1121 159 374 1122 207 374 1123 209 374 1124 209 375 1125 207 375 1126 208 375 1127 159 376 1128 209 376 1129 162 376 1130 208 377 1131 203 377 1132 210 377 1133 210 378 1134 203 378 1135 205 378 1136 210 379 1137 205 379 1138 211 379 1139 211 380 1140 205 380 1141 212 380 1142 210 381 1143 211 381 1144 213 381 1145 208 382 1146 210 382 1147 214 382 1148 214 383 1149 210 383 1150 213 383 1151 208 384 1152 214 384 1153 209 384 1154 209 385 1155 214 385 1156 215 385 1157 215 386 1158 214 386 1159 213 386 1160 209 387 1161 215 387 1162 162 387 1163 215 388 1164 213 388 1165 216 388 1166 216 389 1167 213 389 1168 177 389 1169 162 390 1170 215 390 1171 217 390 1172 216 391 1173 177 391 1174 217 391 1175 216 392 1176 217 392 1177 215 392 1178 162 393 1179 217 393 1180 167 393 1181 218 394 1182 142 394 1183 219 394 1184 219 395 1185 142 395 1186 173 395 1187 220 396 1188 221 396 1189 218 396 1190 220 397 1191 218 397 1192 222 397 1193 222 398 1194 218 398 1195 219 398 1196 142 399 1197 218 399 1198 223 399 1199 223 400 1200 218 400 1201 165 400 1202 142 401 1203 223 401 1204 144 401 1205 144 402 1206 223 402 1207 148 402 1208 148 403 1209 223 403 1210 166 403 1211 222 404 1212 219 404 1213 224 404 1214 224 405 1215 219 405 1216 173 405 1217 222 406 1218 224 406 1219 225 406 1220 225 407 1221 224 407 1222 226 407 1223 226 408 1224 224 408 1225 173 408 1226 226 409 1227 173 409 1228 172 409 1229 226 410 1230 172 410 1231 227 410 1232 227 411 1233 172 411 1234 171 411 1235 202 412 1236 118 412 1237 201 412 1238 202 413 1239 201 413 1240 204 413 1241 120 414 1242 187 414 1243 201 414 1244 201 415 1245 187 415 1246 228 415 1247 201 416 1248 228 416 1249 204 416 1250 228 417 1251 187 417 1252 186 417 1253 228 418 1254 186 418 1255 189 418 1256 204 419 1257 228 419 1258 212 419 1259 212 420 1260 228 420 1261 189 420 1262 204 421 1263 212 421 1264 205 421 1265 212 422 1266 189 422 1267 229 422 1268 212 423 1269 229 423 1270 230 423 1271 212 424 1272 230 424 1273 211 424 1274 211 425 1275 230 425 1276 213 425 1277 213 426 1278 230 426 1279 177 426 1280 177 427 1281 230 427 1282 199 427 1283 199 428 1284 230 428 1285 200 428 1286 200 429 1287 230 429 1288 229 429 1289 197 430 1290 229 430 1291 189 430 1292 229 431 1293 197 431 1294 200 431 1295 200 432 1296 197 432 1297 196 432 1298 197 433 1299 189 433 1300 190 433 1301 197 434 1302 190 434 1303 193 434 1304 227 435 1305 171 435 1306 231 435 1307 231 436 1308 171 436 1309 170 436 1310 227 437 1311 231 437 1312 232 437 1313 231 438 1314 170 438 1315 233 438 1316 231 439 1317 233 439 1318 232 439 1319 233 440 1320 170 440 1321 234 440 1322 234 441 1323 170 441 1324 154 441 1325 154 442 1326 170 442 1327 134 442 1328 233 443 1329 234 443 1330 235 443 1331 235 444 1332 234 444 1333 154 444 1334 235 445 1335 154 445 1336 164 445 1337 164 446 1338 154 446 1339 157 446 1340 233 447 1341 235 447 1342 221 447 1343 233 448 1344 221 448 1345 232 448 1346 235 449 1347 164 449 1348 236 449 1349 235 450 1350 236 450 1351 221 450 1352 236 451 1353 164 451 1354 165 451 1355 236 452 1356 165 452 1357 218 452 1358 236 453 1359 218 453 1360 221 453 1361 232 454 1362 221 454 1363 220 454 1364 232 455 1365 220 455 1366 237 455 1367 237 456 1368 220 456 1369 225 456 1370 225 457 1371 220 457 1372 222 457 1373 232 458 1374 237 458 1375 238 458 1376 238 459 1377 237 459 1378 225 459 1379 232 460 1380 238 460 1381 227 460 1382 238 461 1383 225 461 1384 226 461 1385 238 462 1386 226 462 1387 227 462 1388 179 463 1389 129 463 1390 149 463 1391 150 464 1392 179 464 1393 149 464 1394 146 465 1395 150 465 1396 147 465 1397 150 466 1398 146 466 1399 168 466 1400 150 467 1401 168 467 1402 179 467 1403 179 468 1404 168 468 1405 169 468 1406 185 469 1407 120 469 1408 123 469 1409 217 470 1410 177 470 1411 176 470 1412 169 471 1413 217 471 1414 176 471 1415 165 472 1416 166 472 1417 223 472 1418 217 473 1419 169 473 1420 167 473 1421</p>
        </polylist>
      </mesh>
    </geometry>
  </library_geometries>
  <library_visual_scenes>
    <visual_scene id="Scene" name="Scene">
      <node id="CrocodileSkin" name="CrocodileSkin" type="NODE">
        <scale sid="scale">1 1 1</scale>
        <translate sid="location">0 0 0</translate>
        <rotate sid="rotationX">1 0 0 0</rotate>
        <rotate sid="rotationY">0 1 0 90</rotate>
        <rotate sid="rotationZ">0 0 1 0</rotate>
        <instance_geometry url="#CrocodileSkin-mesh" name="CrocodileSkin">
          <bind_material>
            <technique_common>
            </technique_common>
          </bind_material>
        </instance_geometry>
      </node>
    </visual_scene>
  </library_visual_scenes>
  <scene>
    <instance_visual_scene url="#Scene"/>
  </scene>
</COLLADA>
