<?xml version="1.0" encoding="utf-8"?>
<COLLADA xmlns="http://www.collada.org/2005/11/COLLADASchema" version="1.4.1" xmlns:xsi="http://www.w3.org/2001/XMLSchema-instance">
  <asset>
    <contributor>
      <author>Blockbench user</author>
      <authoring_tool>Blockbench</authoring_tool>
    </contributor>
    <created>2025-11-02T05:16:55.016Z</created>
    <modified>2025-11-02T05:16:55.036Z</modified>
    <unit name="meter" meter="1.0"/>
    <up_axis>Y_UP</up_axis>
  </asset>
  <library_effects>
  </library_effects>
  <library_images>
  </library_images>
  <library_materials>
  </library_materials>
  <library_geometries>
    <geometry id="CrossbowBody-mesh" name="CrossbowBody">
      <mesh>
        <source id="CrossbowBody-mesh-positions">
          <float_array id="CrossbowBody-mesh-positions-array" count="627">-0.610453 -0.081041 -0.007346 -0.634379 -0.065336 0.007532 -0.634806 -0.067665 -0.023688 -0.562815 -0.073755 -0.008067 -0.541056 -0.038709 0.007817 -0.477091 -0.00767 0.007468 -0.490976 -0.010252 -0.023547 -0.554728 -0.056461 -0.023801 -0.480814 0.085401 -0.023978 -0.394419 0.001894 -0.023745 -0.617197 0.067594 -0.023831 -0.615305 0.068472 0.007388 -0.525736 0.082006 0.007459 -0.36323 -0.00062 -0.023896 -0.382013 0.059408 -0.023749 -0.396463 0.081617 -0.023476 -0.395548 0.082106 0.007278 -0.384012 0.05982 0.007443 -0.365809 0.00234 0.007584 -0.422648 -0.183245 -0.047148 -0.460367 -0.184969 -0.010462 -0.441599 -0.148333 -0.022864 -0.380747 -0.181673 0.029092 -0.420206 -0.182314 0.031507 -0.358484 -0.174685 0.013026 -0.440256 -0.144899 0.004667 -0.41688 -0.163988 0.016086 -0.336954 -0.113993 0.0079 -0.370829 -0.08761 0.010673 -0.400065 -0.090662 0.002608 -0.370829 -0.064545 0.000711 -0.36912 -0.06111 -0.018406 -0.35969 -0.176088 -0.030686 -0.336115 -0.111795 -0.024163 -0.380457 -0.089987 -0.026122 -0.342432 -0.062115 -0.028168 -0.309763 0.013254 -0.020906 -0.264307 0.010878 -0.01951 -0.335566 0.007341 -0.003844 -0.3193 -0.033841 0.008365 -0.314783 0.072546 -0.023865 -0.308619 0.014341 -0.036858 -0.313654 0.085653 -0.036225 -0.313868 0.07414 0.007529 -0.313776 0.08608 0.020364 -0.30868 0.014284 0.020395 -0.252222 0.038793 0.021285 -0.308985 0.013273 0.005781 -0.263537 0.010668 -0.00061 -0.285471 -0.043438 0.006298 -0.291254 -0.050568 -0.022439 -0.260523 -0.002813 -0.008674 -0.3081 -0.078314 -0.007088 -0.28274 -0.039983 -0.00804 -0.27276 -0.064367 -0.006809 -0.184301 0.002684 -0.03661 -0.216761 0.005331 -0.008558 -0.254412 0.038824 -0.03769 -0.20225 -0.014191 -0.008198 -0.184519 0.00297 0.020709 -0.159906 -0.005507 -0.036654 -0.154792 -0.006334 0.018388 -0.199431 0.087011 -0.03728 -0.280558 0.087339 -0.026723 -0.201304 0.087171 0.020704 -0.077471 0.063139 0.020564 -0.161345 0.080877 -0.002276 -0.155956 0.079885 -0.013091 -0.279886 0.097608 0.010682 -0.285563 0.108793 -0.02551 -0.223406 0.095579 -0.027009 -0.219202 0.101301 0.007896 -0.221941 0.088545 0.009963 -0.008463 -0.019928 -0.037497 -0.074038 0.062551 -0.037038 -0.001261 0.030439 -0.038148 -0.011408 -0.019007 0.020583 -0.081995 0.067015 -0.01234 -0.074839 0.085722 -0.002599 -0.156141 0.09799 -0.009192 -0.163721 0.081419 -0.003309 -0.003016 0.029211 0.021182 -0.012247 0.002191 0.030629 0.179098 0.018633 0.021461 -0.006785 -0.030501 0.01979 -0.010462 0.01042 -0.044181 -0.010187 -0.010843 -0.046607 0.180563 0.001444 -0.050181 0.174398 -0.035397 -0.038422 0.180776 0.018789 -0.038523 0.117819 -0.038419 -0.034444 0.008703 -0.046985 -0.033766 0.105307 -0.052043 -0.027304 0.105398 -0.052519 0.007095 -0.08539 0.065893 -0.044833 -0.062906 0.074453 -0.04296 -0.070429 0.083914 -0.048735 -0.072786 0.084379 -0.013594 -0.066225 0.066175 -0.013373 0.069021 0.061171 -0.015898 -0.065004 0.066214 -0.003165 -0.062204 0.076017 0.027341 -0.082983 0.080397 0.027341 0.282797 0.068182 0.000848 0.138357 0.017862 -0.385806 0.144064 -0.011808 -0.416903 0.138143 -0.01383 -0.379885 0.14739 0.015863 -0.418002 0.16445 0.016615 -0.382571 0.138662 0.016691 -0.375155 0.15917 0.023394 -0.308352 0.161642 -0.013947 -0.381991 0.170339 -0.023325 -0.329135 0.154409 -0.022863 -0.32593 0.177877 -0.023802 -0.280246 0.168356 0.020449 -0.337649 0.189871 0.023371 -0.293612 0.196707 -0.023198 -0.286044 0.276541 -0.024026 -0.205416 0.269674 0.025549 -0.210086 0.261251 -0.02346 -0.191134 0.204824 0.026304 -0.252002 0.262442 0.02516 -0.18764 0.282522 0.033766 -0.186358 0.302297 -0.023687 -0.119654 0.280599 -0.023944 -0.119822 0.308737 -0.030603 -0.111773 0.27413 -0.029814 -0.118701 0.305044 0.027723 -0.120387 0.306173 0.02709 -0.088999 0.27651 0.025976 -0.105365 0.276419 0.025869 -0.123187 0.273886 -0.028883 -0.021168 0.27181 -0.02132 -0.029998 0.271078 0.030653 -0.03115 0.186727 -0.02116 -0.038777 0.313528 -0.031121 -0.020666 0.309286 -0.025572 -0.063884 0.187246 -0.021042 0.022168 0.215597 0.050337 -0.037266 0.164816 -0.039446 0.017732 0.279226 0.068693 -0.016689 0.19692 0.055212 -0.016581 0.190145 0.05586 -0.000313 0.191152 -0.02198 -0.018813 0.193441 -0.022745 0.00149 0.268637 -0.050584 -0.018396 0.272024 -0.025682 0.003393 0.357016 -0.054598 -0.019919 0.273123 -0.051776 0.00232 0.344717 -0.01004 -0.031611 0.312826 -0.010025 -0.022075 0.312918 0.031759 -0.027827 0.314077 0.050955 -0.029443 0.34783 0.042616 -0.031117 0.347586 0.047445 -0.017889 0.360159 0.062063 -0.017207 0.360464 0.062117 0.000975 0.356497 -0.054155 0.003497 0.346823 -0.007719 0.003071 0.344564 0.048262 0.001137 0.311758 -0.014902 0.004888 0.346029 -0.007464 0.016177 0.339926 0.048147 0.012887 0.216024 0.053038 0.020509 0.271566 0.03092 0.0149 0.312368 0.031439 0.012035 0.306539 -0.024427 0.063504 0.306143 0.027143 0.068609 0.012319 -0.048091 0.013229 0.118246 -0.038328 0.018417 0.186087 -0.026118 0.028775 0.181997 0.00231 0.032266 0.29476 -0.028937 0.05084 0.271353 -0.021 0.014247 0.275198 -0.02398 0.09953 0.276541 0.02638 0.078473 0.30242 -0.026938 0.10069 0.280142 -0.024649 0.10597 0.269277 -0.025843 0.153882 0.295584 -0.03225 0.08859 0.290365 -0.025761 0.150602 0.327169 -0.031533 0.086393 0.295492 -0.029241 0.050512 0.277334 0.026449 0.106069 0.304891 0.026937 0.10465 0.258596 0.025122 0.179731 0.283865 0.024816 0.170606 0.247274 -0.021214 0.193494 0.266989 -0.024789 0.198606 0.252767 0.025564 0.214841 0.172384 -0.023025 0.25134 0.184469 -0.023561 0.282621 0.177664 -0.0194 0.264646 0.166403 0.024103 0.276059 0.154348 -0.020054 0.309171 0.137228 -0.023859 0.306302 0.168295 -0.019457 0.317136 0.177999 0.023218 0.291837 0.162374 0.018038 0.361081 0.140463 0.015428 0.356809 0.138571 -0.015448 0.360441 0.134481 -0.014088 0.367032 0.138449 0.017652 0.370328 0.16213 0.018522 0.37042 0.162619 -0.014164 0.362485 0.161001 -0.015028 0.371305 0.145315 0.012693 0.400235 0.140219 -0.008854 0.399839</float_array>
          <technique_common>
            <accessor source="#CrossbowBody-mesh-positions-array" count="209" stride="3">
              <param name="X" type="float"/>
              <param name="Y" type="float"/>
              <param name="Z" type="float"/>
            </accessor>
          </technique_common>
        </source>
        <source id="CrossbowBody-mesh-normals">
          <float_array id="CrossbowBody-mesh-normals-array" count="1254">-0.516258 -0.853507 0.070732 0.103292 -0.596596 0.795867 0.095629 -0.695699 -0.71194 0.133335 -0.476616 0.868941 -0.015183 0.042522 0.99898 0.432914 -0.893489 -0.119427 0.864695 -0.492799 -0.097221 0.096101 -0.694057 -0.713477 0.574822 -0.794134 0.197309 -0.001334 -0.000553 -0.999999 0.007855 -0.00534 -0.999955 -0.001504 -0.004346 -0.999989 -0.991624 0.129101 0.003932 -0.000956 -0.000933 -0.999999 -0.988434 0.140959 0.055939 -0.149365 0.988604 -0.018751 -0.000976 0.001215 0.999999 0.000309 0.000268 1 -0.129157 0.988567 -0.077801 -0.005527 -0.008508 -0.999949 0.003228 0.003459 -0.999989 0.006697 0.016648 -0.999839 0.044911 0.998843 -0.017218 -0.000616 0.994313 0.1065 0.001384 0.00812 0.999966 0.000141 0.000177 1 -0.001228 0.002064 0.999997 0.089464 -0.995071 0.042788 -0.695234 0.116025 -0.709358 0.042814 -0.999079 -0.00293 0.018981 -0.998806 0.045022 0.010336 0.911645 0.410848 -0.891707 0.452428 -0.012934 -0.721859 0.103975 0.684184 0.153845 0.619696 0.769616 0.133247 0.623846 0.770105 0.063481 0.061609 0.99608 0.092849 0.014575 0.995573 -0.266557 0.233029 0.935224 -0.281215 0.235486 0.930303 -0.803592 0.594157 -0.03491 -0.282627 0.380341 0.880604 -0.746343 0.631002 -0.211679 -0.661627 0.746082 0.074911 0.133676 0.613777 -0.77808 0.125314 -0.990934 -0.04844 0.313702 -0.949271 0.021813 0.941942 -0.335432 -0.015222 0.93884 -0.344352 0.000961 -0.084091 0.032509 -0.995928 0.079247 0.071817 -0.994265 -0.408629 0.381923 -0.828949 0.004818 -0.079746 -0.996804 0.123992 -0.987315 -0.099175 -0.543547 0.409219 -0.732869 -0.176804 0.170045 -0.969446 0.03482 0.080886 -0.996115 -0.56479 0.427074 -0.70613 -0.897826 0.440348 -0.00114 -0.56777 0.326399 0.755712 -0.179893 0.213615 0.960212 -0.079623 -0.993034 0.08685 0.201804 -0.973446 0.108064 0.248814 -0.967686 0.040922 0.067174 -0.044057 -0.996768 -0.002077 0.001799 -0.999996 -0.993129 -0.087937 -0.077215 -0.049877 -0.996196 -0.07146 -0.984424 -0.068067 -0.162101 -0.191772 0.981115 -0.025249 0.886777 0.459402 0.050763 0.837538 0.545346 -0.03359 -0.001622 0.001939 0.999997 -0.199781 0.978858 -0.043878 -0.993898 0.107769 0.023496 -0.999946 0.010104 -0.002232 -0.994847 -0.070582 0.072791 -0.015473 -0.000667 0.99988 0.036652 -0.025749 0.998996 -0.99639 -0.080692 0.026377 -0.047281 -0.996431 0.06992 0.190722 -0.978662 0.076453 -0.363114 0.130101 0.922617 0.063327 -0.023555 0.997715 0.057515 -0.012269 0.998269 0.071936 0.038913 0.99665 0.14276 0.068194 0.987405 0.125246 -0.06389 -0.990066 0.111598 -0.001571 -0.993752 0.728505 -0.289898 -0.620677 0.79692 -0.579057 -0.172081 0.772538 -0.634541 -0.023284 0.799253 -0.579595 0.158946 0.850384 -0.510462 -0.127574 0.829959 -0.551229 -0.085527 0.566813 -0.325886 0.756652 0.926982 -0.364458 0.088742 0.169509 -0.447085 0.878284 0.023923 -0.040636 -0.998888 0.888942 0.376964 0.260156 -0.108573 -0.993577 -0.03188 0.113239 -0.597184 -0.79407 -0.093363 -0.994833 0.039888 -0.000986 -0.031782 -0.999494 0.005343 -0.014467 -0.999881 -0.110016 -0.528228 0.841946 0.182535 0.153589 0.971129 -0.106958 -0.993549 0.03768 -0.077257 -0.997 0.004681 -0.318294 -0.947985 0.00352 -0.29772 -0.95456 0.013319 -0.009333 0.008217 -0.999923 -0.03951 0.05357 -0.997782 -0.012993 0.991344 -0.130646 -0.048687 0.998785 -0.007641 -0.090664 -0.995605 -0.023458 -0.004824 -0.02519 0.999671 0.009546 0.001962 0.999953 0.001188 0.000296 0.999999 0.19021 0.979758 0.062402 0.145258 0.989224 -0.018355 -0.003171 0.015346 0.999877 -0.008658 0.657912 0.753045 -0.373272 0.896311 -0.239363 -0.969648 -0.230776 0.080776 0.01246 -0.005709 -0.999906 -0.012709 0.053489 -0.998488 -0.096377 0.642062 -0.760571 0.200273 0.962699 -0.181937 -0.044134 0.95251 0.301292 0.391315 0.906764 0.157008 0.971763 -0.221735 -0.080691 0.036076 0.152298 0.987676 0.066742 0.99777 -0.000597 0.150437 0.974866 -0.164333 -0.006209 -0.009059 -0.99994 0.003569 0.008402 -0.999958 -0.019707 -0.010104 -0.999755 -0.007055 -0.015641 -0.999853 -0.094729 -0.995443 0.010982 0.160419 0.987046 0.002458 0.19127 0.979991 -0.055068 0.169795 0.981154 0.092232 0.203824 0.978937 0.011771 -0.024164 0.34426 0.938563 0.015518 -0.466459 0.884407 -0.048013 -0.383485 0.922298 -0.087937 -0.996103 -0.006796 0.000843 0.00091 0.999999 -0.012934 -0.01017 0.999865 -0.895646 0.161031 -0.414592 0.01741 0.324684 0.945662 -0.704064 -0.326684 0.630533 -0.927961 -0.370394 -0.04118 -0.987234 -0.030602 0.156309 -0.025888 0.112991 -0.993259 -0.06382 -0.712647 -0.698614 -0.700269 0.10925 0.70547 0.016054 0.281737 -0.959357 -0.040698 -0.427084 -0.903296 0.004353 -0.133889 -0.990987 -0.837253 -0.541587 -0.075432 0.032844 -0.487439 -0.872539 -0.051369 -0.998586 -0.013682 0.30115 -0.635437 -0.711005 0.218219 -0.376145 -0.900497 0.768991 0.637802 0.043139 0.694363 -0.709448 -0.120601 0.921566 0.334538 0.196978 0.344145 -0.938434 0.03009 -0.01937 -0.019117 -0.99963 -0.036819 -0.999288 0.008222 -0.323472 -0.943906 0.066391 0.171362 0.977687 -0.121503 -0.878654 0.471448 0.075526 -0.774383 0.62984 -0.060274 -0.0593 -0.040582 -0.997415 0.1558 0.983583 -0.09105 -0.15236 -0.26803 -0.951287 0.202505 -0.979067 -0.020481 0.577895 -0.790941 0.201124 -0.081523 -0.38675 0.918574 -0.946852 0.277396 0.16286 -0.939084 -0.186592 -0.288627 0.201003 0.953572 0.224273 0.867976 0.444043 -0.222359 -0.011334 -0.034709 0.999333 0.049754 0.992469 -0.111936 -0.986989 -0.023065 -0.159128 -0.955905 0.10399 -0.274648 0.895006 -0.124589 -0.428301 0.053487 0.997465 -0.046925 0.03406 0.993539 0.108257 -0.999474 0.01235 0.029979 -0.954708 -0.029648 0.296063 -0.010002 -0.998373 -0.056133 0.887313 -0.090109 -0.452278 -0.020268 -0.984988 -0.171427 -0.05835 -0.987309 -0.147702 -0.030019 -0.999536 -0.005124 0.987024 0.013594 -0.159994 0.992604 -0.092687 -0.078397 0.898775 -0.044122 -0.436184 -0.020992 0.996311 -0.083208 0.0424 0.995327 -0.086758 0.000293 0.994995 -0.099927 -0.957868 -0.01048 0.287017 -0.887236 -0.081245 0.454106 0.85223 0.040334 -0.521611 0.71051 -0.010048 -0.703616 0.72214 0.034949 -0.690863 0.027741 -0.999517 -0.014029 0.022142 -0.999237 -0.032185 -0.017834 -0.99963 0.020523 -0.730219 0.007619 0.68317 -0.776991 0.064911 0.626156 -0.744998 -0.029641 0.666408 0.041616 0.995501 -0.085126 0.000365 0.999848 0.017445 0.073956 0.992578 -0.096541 0.866129 0.073401 -0.494402 0.957738 -0.004273 -0.28761 -0.026014 -0.999592 0.011764 0.011921 -0.999879 -0.01002 0.013991 -0.745856 -0.665961 0.174559 -0.366872 -0.913747 0.943381 -0.055072 -0.327108 -0.858872 0.39242 0.329158 0.751655 -0.049541 -0.657693 0.99771 0.058044 -0.034716 -0.057916 0.998321 -0.001359 -0.049595 0.998529 0.021921 -0.06408 0.997929 -0.005664 -0.064935 0.997885 0.003105 -0.999128 0.041463 0.004853 -0.103211 -0.075658 -0.991778 -0.974904 -0.067476 0.212156 -0.96509 0.004822 0.261876 -0.537752 -0.698629 -0.471954 -0.997281 -0.015642 -0.072008 0.102577 -0.020599 -0.994512 -0.999057 0.043316 -0.002913 -0.056482 -0.998359 0.009389 -0.021886 -0.99975 -0.004533 0.936405 0.347724 -0.047265 0.995294 0.013043 -0.096017 0.998557 0.051012 -0.016807 0.000143 0.557831 -0.829955 0.961667 0.144736 -0.232911 0.365308 -0.337978 -0.867364 0.755871 -0.6547 -0.005169 0.001756 -0.304335 -0.952563 0.000741 0.036223 -0.999343 0.733509 -0.679585 -0.011344 0.048772 -0.996786 -0.063551 0.000457 0.039309 -0.999227 0.02672 0.010336 -0.99959 0.102418 -0.020337 -0.994534 -0.004447 0.019142 -0.999807 -0.046422 -0.998713 0.020448 -0.005991 0.062473 -0.998029 -0.031138 -0.998932 -0.034128 -0.346327 -0.938107 0.003699 0.002411 -0.999133 -0.041573 -0.252554 -0.967575 0.004024 -0.038959 -0.996756 0.070419 -0.038055 -0.117553 -0.992337 -0.082079 -0.766383 -0.637119 0.005334 -0.127974 -0.991763 -0.02034 -0.069412 -0.997381 -0.046136 -0.997809 -0.047423 -0.138647 -0.286985 -0.947848 -0.285746 -0.073326 -0.955496 0.892623 0.059549 0.446854 0.035669 0.855481 -0.516604 0.030802 0.998282 -0.04984 0.029152 0.999192 -0.02766 0.079432 -0.084722 -0.993233 0.081186 -0.088477 -0.992764 -0.207606 -0.069607 -0.975733 -0.284105 -0.130141 -0.94992 -0.046543 0.012122 -0.998843 0.21072 0.919517 -0.331791 0.997433 -0.059344 0.040062 0.835031 0.087972 -0.543124 0.028077 0.022475 -0.999353 0.999508 -0.02654 -0.016688 -0.002406 0.048669 -0.998812 0.081618 0.996654 -0.004329 -0.006913 0.0342 -0.999391 0.052198 0.987517 0.148614 -0.028775 -0.999419 0.01827 0.999176 -0.033596 0.022782 0.051547 0.019899 0.998472 -0.019224 0.033746 0.999246 0.047831 0.019126 0.998672 0.997326 0.042304 0.059598 0.202138 -0.978857 0.031292 0.922699 0.122879 0.365414 -0.316965 0.021311 0.948198 0.041026 0.998821 0.02597 0.056739 -0.109187 0.992401 0.062226 -0.152929 0.986276 0.071175 -0.167537 0.983293 0.996086 -0.026135 0.084442 -0.007424 0.997163 0.074904 0.994022 -0.00317 0.109134 0.993995 -0.002814 -0.109386 -0.021256 0.997696 -0.06443 0.004837 0.997048 -0.076634 0.077825 0.99688 0.0132 -0.000663 0.012452 0.999922 -0.010236 -0.017235 0.999799 -0.670586 -0.741045 0.034158 -0.048808 -0.998613 -0.019746 0.020692 -0.634907 0.772312 -0.012374 -0.36122 0.932399 -0.0259 -0.559098 0.828697 -0.036829 -0.320028 0.946692 -0.008288 -0.123056 0.992365 -0.00737 0.551049 0.834441 0.988167 0.147386 -0.042473 0.928953 0.19637 0.313823 0.927216 -0.357409 -0.111937 0.520552 -0.853394 0.027292 -0.003858 -0.634348 0.773038 -0.023972 -0.999711 0.001915 0.743228 -0.66902 -0.004852 0.000881 0.020144 0.999797 0.034393 0.999375 -0.008152 0.00778 0.992152 0.124797 0.000071 0.027584 0.999619 0.007702 0.019398 0.999782 0.094742 -0.014513 0.995396 -0.040221 -0.998805 -0.027776 0.044683 0.998801 0.020005 -0.011493 -0.007794 0.999904 -0.342439 -0.939325 0.020106 -0.025762 -0.042155 0.998779 -0.026138 -0.042171 0.998768 -0.015613 -0.053177 0.998463 0.264171 -0.955437 -0.131736 0.64125 -0.680804 -0.353984 0.037919 -0.9167 0.397773 -0.974076 -0.223318 0.036113 0.093761 -0.012905 0.995511 -0.99693 0.003106 0.078238 -0.001923 0.997447 0.071382 0.048304 0.996016 0.074954 -0.189865 -0.981525 0.023645 0.18474 -0.967491 0.17272 -0.104386 -0.991433 -0.078509 -0.107117 -0.994024 -0.021027 -0.113929 -0.992201 -0.050562 -0.323995 0.919929 -0.220813 0.020313 -0.994186 0.105742 0.029971 -0.993859 0.106521 0.017145 -0.996743 -0.078806 -0.676198 0.734301 0.05966 0.145507 0.987193 -0.065399 0.196 0.980305 0.024222 -0.99785 0.046095 0.046599 -0.998845 0.038598 0.028606 -0.017808 0.999839 -0.001988 -0.794656 -0.044842 0.605401 -0.017 0.999762 0.013686 -0.967562 -0.052692 -0.247076 -0.024143 0.999697 0.004875 0.999387 0.004235 0.034741 0.992893 -0.053359 0.106377 0.951306 -0.065768 0.30115 -0.970734 -0.090646 -0.222392 -0.868922 0.066643 -0.490442 -0.181887 -0.983222 0.013866 0.007612 -0.999684 0.023949 0.897094 -0.057953 0.438022 0.817575 0.045851 0.573994 0.971715 0.032359 0.23393 0.026777 0.998814 0.040656 0.008045 0.999904 -0.011252 -0.126167 -0.972894 -0.1938 -0.023194 -0.999698 -0.008169 0.713032 -0.02453 0.700702 -0.17338 0.965511 -0.194238 -0.714829 -0.001577 -0.699297 -0.721988 -0.02892 -0.691301 -0.02927 0.999419 -0.017441 -0.880203 -0.106511 -0.462492 -0.294824 0.945165 -0.140505 -0.197729 0.973872 -0.111698 -0.261723 0.881868 0.392187 -0.001911 -0.999864 -0.016394 0.084771 -0.983997 0.156726 0.015002 0.998874 0.045002 0.717473 -0.0378 0.69556 0.906624 0.042695 0.419774 0.972543 -0.095275 0.212328 -0.048348 0.994647 0.091324 -0.952589 0.033274 -0.302434 -0.007202 -0.996158 0.087277 -0.954902 0.023698 -0.295975 -0.850554 -0.009731 -0.525798 -0.975816 0.139471 -0.168317 -0.035546 0.985252 -0.167378 -0.10767 0.992705 -0.054261 -0.1269 0.990872 0.04549 0.042659 -0.991724 0.12109 0.99236 0.0129 0.122701 0.060433 -0.994432 -0.086327 0.999633 0.008724 0.025665 0.98368 -0.028415 0.177669 0.872281 -0.016461 0.488729 -0.036834 0.984461 0.171694 -0.061472 -0.984381 0.164973 -0.061909 -0.983876 0.167795 -0.982172 0.106716 0.154758 0.77257 -0.19383 0.604621 -0.942624 0.218294 0.252602</float_array>
          <technique_common>
            <accessor source="#CrossbowBody-mesh-normals-array" count="418" stride="3">
              <param name="X" type="float"/>
              <param name="Y" type="float"/>
              <param name="Z" type="float"/>
            </accessor>
          </technique_common>
        </source>
        <source id="CrossbowBody-mesh-map-0">
          <float_array id="CrossbowBody-mesh-map-0-array" count="2508">0.231392 0.810299 0.219656 0.825307 0.229989 0.788154 0.219656 0.825307 0.231392 0.810299 0.245042 0.819157 0.245042 0.819157 0.231392 0.810299 0.229989 0.788154 0.219656 0.825307 0.245042 0.819157 0.25614 0.838594 0.219656 0.825307 0.25614 0.838594 0.279484 0.855325 0.279484 0.855325 0.25614 0.838594 0.282673 0.831705 0.25614 0.838594 0.245042 0.819157 0.254992 0.817434 0.254992 0.817434 0.245042 0.819157 0.229989 0.788154 0.25614 0.838594 0.254992 0.817434 0.282673 0.831705 0.254992 0.817434 0.229989 0.788154 0.309462 0.782003 0.254992 0.817434 0.309462 0.782003 0.282673 0.831705 0.282673 0.831705 0.309462 0.782003 0.314565 0.854341 0.15396 0.711879 0.160849 0.810299 0.141459 0.717046 0.141459 0.717046 0.160849 0.810299 0.120028 0.855079 0.160849 0.810299 0.15396 0.711879 0.168247 0.794059 0.160849 0.810299 0.168247 0.794059 0.197077 0.801933 0.197077 0.801933 0.168247 0.794059 0.15396 0.711879 0.197077 0.801933 0.15396 0.711879 0.210982 0.725904 0.130743 0.067724 0.171947 0.034754 0.149113 0.077812 0.083672 0.060835 0.091326 0.042382 0.130743 0.067724 0.083672 0.060835 0.130743 0.067724 0.099873 0.08667 0.099873 0.08667 0.130743 0.067724 0.107016 0.095036 0.107016 0.095036 0.130743 0.067724 0.111354 0.112997 0.111354 0.112997 0.130743 0.067724 0.149113 0.077812 0.111354 0.112997 0.149113 0.077812 0.112629 0.130713 0.112629 0.130713 0.149113 0.077812 0.150389 0.150889 0.112629 0.130713 0.150389 0.150889 0.113011 0.171803 0.113011 0.171803 0.150389 0.150889 0.155363 0.17131 0.46624 0.064525 0.448381 0.071908 0.438685 0.036969 0.448381 0.071908 0.46624 0.064525 0.445447 0.151873 0.448381 0.071908 0.445447 0.151873 0.438558 0.114965 0.438558 0.114965 0.445447 0.151873 0.432818 0.163683 0.438685 0.036969 0.448381 0.071908 0.428991 0.068955 0.428991 0.068955 0.448381 0.071908 0.438558 0.114965 0.438558 0.114965 0.432818 0.163683 0.428608 0.10537 0.438558 0.114965 0.428608 0.10537 0.428991 0.068955 0.428608 0.10537 0.432818 0.163683 0.378475 0.131943 0.428608 0.10537 0.378475 0.131943 0.384471 0.076828 0.428991 0.068955 0.428608 0.10537 0.399268 0.057883 0.399268 0.057883 0.428608 0.10537 0.384471 0.076828 0.428991 0.068955 0.399268 0.057883 0.438685 0.036969 0.399268 0.057883 0.384471 0.076828 0.37873 0.052716 0.438685 0.036969 0.399268 0.057883 0.37873 0.032785 0.37873 0.032785 0.399268 0.057883 0.37873 0.052716 0.049995 0.589593 0.068747 0.626993 0.02767 0.634128 0.049995 0.589593 0.02767 0.634128 0.006877 0.595744 0.006877 0.595744 0.02767 0.634128 0.008026 0.623302 0.008026 0.623302 0.02767 0.634128 0.006495 0.688259 0.006495 0.688259 0.02767 0.634128 0.023461 0.69687 0.02767 0.634128 0.068747 0.626993 0.04974 0.701545 0.02767 0.634128 0.04974 0.701545 0.023461 0.69687 0.04974 0.701545 0.068747 0.626993 0.057393 0.721967 0.023461 0.69687 0.04974 0.701545 0.0366 0.729348 0.460882 0.169096 0.472873 0.136126 0.471725 0.25915 0.397482 0.758628 0.33523 0.855079 0.336251 0.823093 0.33523 0.855079 0.397482 0.758628 0.371204 0.852619 0.371204 0.852619 0.397482 0.758628 0.426567 0.775852 0.397482 0.758628 0.336251 0.823093 0.374776 0.740175 0.374776 0.740175 0.336251 0.823093 0.323112 0.784955 0.374776 0.740175 0.323112 0.784955 0.306018 0.764533 0.374776 0.740175 0.306018 0.764533 0.351431 0.694655 0.146306 0.660701 0.123855 0.669559 0.132784 0.63585 0.132784 0.63585 0.123855 0.669559 0.109568 0.632652 0.109568 0.632652 0.123855 0.669559 0.088647 0.630191 0.088647 0.630191 0.123855 0.669559 0.073849 0.719507 0.073849 0.719507 0.123855 0.669559 0.110843 0.761581 0.088647 0.630191 0.073849 0.719507 0.077548 0.635604 0.088647 0.630191 0.077548 0.635604 0.07015 0.596482 0.077548 0.635604 0.073849 0.719507 0.062751 0.724427 0.073849 0.719507 0.110843 0.761581 0.104847 0.793567 0.104847 0.793567 0.110843 0.761581 0.121941 0.800703 0.121941 0.800703 0.110843 0.761581 0.125513 0.770931 0.497493 0.439996 0.439451 0.422772 0.4767 0.359292 0.4767 0.359292 0.439451 0.422772 0.432052 0.385127 0.432052 0.385127 0.439451 0.422772 0.42223 0.37996 0.42223 0.37996 0.439451 0.422772 0.428608 0.428924 0.428608 0.428924 0.439451 0.422772 0.456417 0.498309 0.428608 0.428924 0.456417 0.498309 0.423506 0.522176 0.439451 0.422772 0.497493 0.439996 0.465092 0.489451 0.439451 0.422772 0.465092 0.489451 0.456417 0.498309 0.456417 0.498309 0.465092 0.489451 0.468791 0.534478 0.465092 0.489451 0.497493 0.439996 0.487926 0.470013 0.465092 0.489451 0.487926 0.470013 0.490732 0.509628 0.374776 0.338624 0.361381 0.219045 0.409856 0.31082 0.409856 0.31082 0.361381 0.219045 0.391614 0.210925 0.391614 0.210925 0.361381 0.219045 0.383322 0.145968 0.383322 0.145968 0.361381 0.219045 0.345691 0.144 0.272724 0.409732 0.229096 0.467061 0.210982 0.394723 0.210982 0.394723 0.229096 0.467061 0.155491 0.377499 0.210982 0.394723 0.155491 0.377499 0.166844 0.357078 0.272724 0.409732 0.210982 0.394723 0.244659 0.368641 0.272724 0.409732 0.244659 0.368641 0.28025 0.36126 0.28025 0.36126 0.244659 0.368641 0.212767 0.325091 0.210982 0.394723 0.166844 0.357078 0.201414 0.370364 0.210982 0.394723 0.201414 0.370364 0.244659 0.368641 0.201414 0.370364 0.166844 0.357078 0.15766 0.342806 0.201414 0.370364 0.15766 0.342806 0.212767 0.325091 0.212767 0.325091 0.244659 0.368641 0.21685 0.352894 0.21685 0.352894 0.244659 0.368641 0.201414 0.370364 0.21685 0.352894 0.201414 0.370364 0.212767 0.325091 0.289307 0.015316 0.302829 -0.007321 0.318392 0.004736 0.318392 0.004736 0.302829 -0.007321 0.317754 -0.007321 0.289307 0.015316 0.318392 0.004736 0.330893 0.032539 0.289307 0.015316 0.330893 0.032539 0.309845 0.058129 0.477848 0.533248 0.499279 0.532756 0.513184 0.56179 0.513184 0.56179 0.499279 0.532756 0.512674 0.503722 0.512674 0.503722 0.499279 0.532756 0.477848 0.533248 0.042978 0.831951 0.034559 0.799472 0.043871 0.769947 0.043871 0.769947 0.034559 0.799472 0.020527 0.77782 0.043871 0.769947 0.020527 0.77782 0.02091 0.753707 0.043871 0.769947 0.02091 0.753707 0.043616 0.74485 0.202052 0.237989 0.14771 0.344528 0.108164 0.180168 0.202052 0.237989 0.108164 0.180168 0.164038 0.18755 0.108164 0.180168 0.14771 0.344528 0.116839 0.309344 0.116839 0.309344 0.14771 0.344528 0.135081 0.406041 0.295813 0.049517 0.288796 0.098727 0.260605 0.11226 0.295813 0.049517 0.260605 0.11226 0.271575 0.051485 0.271575 0.051485 0.260605 0.11226 0.246062 0.051239 0.246062 0.051239 0.260605 0.11226 0.211237 0.112505 0.246062 0.051239 0.211237 0.112505 0.227438 0.045334 0.246062 0.051239 0.227438 0.045334 0.224759 0.038691 0.409856 0.753707 0.359723 0.691458 0.449019 0.648153 0.449019 0.648153 0.359723 0.691458 0.414193 0.611737 0.449019 0.648153 0.414193 0.611737 0.433583 0.559329 0.433583 0.559329 0.414193 0.611737 0.421464 0.550963 0.000244 0.116196 0.027033 0.153841 0.001137 0.185582 0.132147 0.959896 0.185852 0.962356 0.137504 0.996065 0.137504 0.996065 0.185852 0.962356 0.209834 0.976135 0.185852 0.962356 0.132147 0.959896 0.177049 0.905027 0.177049 0.905027 0.132147 0.959896 0.137122 0.850404 0.209834 0.976135 0.185852 0.962356 0.189806 0.891003 0.189806 0.891003 0.185852 0.962356 0.177049 0.905027 0.189806 0.891003 0.177049 0.905027 0.137122 0.850404 0.209834 0.976135 0.189806 0.891003 0.207282 0.870826 0.207282 0.870826 0.189806 0.891003 0.137122 0.850404 0.274382 0.919544 0.290582 0.964325 0.218636 0.953498 0.218636 0.953498 0.290582 0.964325 0.249762 0.983517 0.218636 0.953498 0.249762 0.983517 0.223483 0.984501 0.274382 0.919544 0.218636 0.953498 0.265962 0.921512 0.265962 0.921512 0.218636 0.953498 0.213405 0.918068 0.501575 0.302947 0.495325 0.347727 0.479124 0.3214 0.479124 0.3214 0.495325 0.347727 0.498642 0.417851 0.286118 0.004244 0.272341 0.001291 0.287521 -0.007812 0.287521 -0.007812 0.272341 0.001291 0.271193 -0.005352 0.351814 0.008181 0.327959 0.007443 0.328087 -0.007321 0.351814 0.008181 0.328087 -0.007321 0.352069 -0.007567 0.437155 0.815219 0.455779 0.740175 0.4531 0.754692 0.437155 0.815219 0.4531 0.754692 0.46152 0.759859 0.455779 0.740175 0.437155 0.815219 0.433073 0.778805 0.433073 0.778805 0.437155 0.815219 0.426822 0.804639 0.426822 0.804639 0.437155 0.815219 0.431542 0.81399 0.426822 0.804639 0.431542 0.81399 0.386257 0.84696 0.431542 0.81399 0.437155 0.815219 0.438175 0.821125 0.438175 0.821125 0.437155 0.815219 0.449784 0.84696 0.060455 0.862215 0.05599 0.848929 0.060455 0.855818 0.060455 0.855818 0.05599 0.848929 0.089412 0.776836 0.060455 0.862215 0.060455 0.855818 0.107782 0.879684 0.05599 0.848929 0.060455 0.862215 0.050249 0.845484 0.05599 0.848929 0.050249 0.845484 0.048209 0.753215 0.060455 0.862215 0.107782 0.879684 0.092856 0.8787 0.060455 0.862215 0.092856 0.8787 0.064154 0.876978 0.060455 0.862215 0.064154 0.876978 0.049102 0.882145 0.064154 0.876978 0.092856 0.8787 0.089157 0.885836 0.064154 0.876978 0.089157 0.885836 0.088136 0.903059 0.105358 0.283017 0.105358 0.300978 0.103189 0.298272 0.105358 0.300978 0.105358 0.283017 0.110971 0.30024 0.105358 0.300978 0.110971 0.30024 0.096683 0.319678 0.103189 0.298272 0.105358 0.300978 0.093112 0.312297 0.093112 0.312297 0.105358 0.300978 0.096683 0.319678 0.103189 0.298272 0.093112 0.312297 0.075762 0.282771 0.093112 0.312297 0.096683 0.319678 0.077166 0.441226 0.093112 0.312297 0.077166 0.441226 0.090688 0.31082 0.490349 0.79775 0.503106 0.780527 0.50081 0.7884 0.490349 0.79775 0.50081 0.7884 0.506295 0.84696 0.503106 0.780527 0.490349 0.79775 0.492646 0.784218 0.503106 0.780527 0.492646 0.784218 0.506933 0.763058 0.492646 0.784218 0.490349 0.79775 0.465092 0.772653 0.492646 0.784218 0.465092 0.772653 0.493284 0.778805 0.465092 0.772653 0.490349 0.79775 0.461265 0.779788 0.247466 -0.001169 0.253716 0.004736 0.251802 0.004982 0.247466 -0.001169 0.251802 0.004982 0.245424 0.005966 0.247466 -0.001169 0.245424 0.005966 0.243511 -0.001415 0.220932 0.694163 0.226417 0.6826 0.229224 0.694163 0.220932 0.694163 0.229224 0.694163 0.228841 0.704006 0.220932 0.694163 0.228841 0.704006 0.226289 0.710649 0.220932 0.694163 0.226289 0.710649 0.218125 0.701053 0.220932 0.694163 0.218125 0.701053 0.128447 0.697116 0.220932 0.694163 0.128447 0.697116 0.220294 0.691703 0.462796 0.861477 0.496983 0.855571 0.462923 0.903305 0.496983 0.855571 0.462796 0.861477 0.478358 0.841793 0.496983 0.855571 0.478358 0.841793 0.471342 0.798243 0.471342 0.798243 0.478358 0.841793 0.462796 0.861477 0.471342 0.798243 0.462796 0.861477 0.45629 0.853849 0.45629 0.853849 0.462796 0.861477 0.462923 0.903305 0.45629 0.853849 0.462923 0.903305 0.404498 0.887065 0.465219 0.252753 0.461903 0.299256 0.449401 0.252999 0.449401 0.252999 0.461903 0.299256 0.430904 0.271453 0.465219 0.252753 0.449401 0.252999 0.444299 0.1782 0.465219 0.252753 0.444299 0.1782 0.453738 0.173771 0.453738 0.173771 0.444299 0.1782 0.462668 0.122347 0.444299 0.1782 0.449401 0.252999 0.417127 0.217568 0.417127 0.217568 0.449401 0.252999 0.430904 0.271453 0.444299 0.1782 0.417127 0.217568 0.398375 0.167128 0.417127 0.217568 0.430904 0.271453 0.415979 0.278588 0.398375 0.167128 0.417127 0.217568 0.396589 0.204281 0.396589 0.204281 0.417127 0.217568 0.415979 0.278588 0.36878 0.985731 0.331021 0.995327 0.319667 0.935291 0.319667 0.935291 0.331021 0.995327 0.296706 0.995573 0.244404 0.240942 0.271065 0.182137 0.277571 0.240942 0.277571 0.240942 0.271065 0.182137 0.351941 0.242911 0.351941 0.242911 0.271065 0.182137 0.346839 0.180168 0.244404 0.240942 0.277571 0.240942 0.274382 0.265055 0.274382 0.265055 0.277571 0.240942 0.351941 0.242911 0.274382 0.265055 0.351941 0.242911 0.354365 0.2685 0.274382 0.265055 0.354365 0.2685 0.299257 0.32952 0.274382 0.265055 0.299257 0.32952 0.251802 0.324353 0.299257 0.32952 0.354365 0.2685 0.355896 0.330258 0.251802 0.324353 0.299257 0.32952 0.27132 0.345021 0.299257 0.32952 0.355896 0.330258 0.347987 0.355847 0.299257 0.32952 0.347987 0.355847 0.27132 0.345021 0.277188 0.518977 0.297471 0.533248 0.258819 0.58418 0.258819 0.58418 0.297471 0.533248 0.314054 0.662669 0.258819 0.58418 0.314054 0.662669 0.256012 0.61469 0.256012 0.61469 0.314054 0.662669 0.300787 0.681615 0.300787 0.681615 0.314054 0.662669 0.318774 0.678416 0.300787 0.681615 0.318774 0.678416 0.297854 0.693426 0.314054 0.662669 0.297471 0.533248 0.350921 0.526358 0.350921 0.526358 0.297471 0.533248 0.277188 0.518977 0.314054 0.662669 0.350921 0.526358 0.318774 0.678416 0.318774 0.678416 0.350921 0.526358 0.356279 0.622072 0.350921 0.526358 0.277188 0.518977 0.29173 0.498309 0.356279 0.622072 0.350921 0.526358 0.354875 0.479117 0.354875 0.479117 0.350921 0.526358 0.341864 0.487483 0.341864 0.487483 0.350921 0.526358 0.29173 0.498309 0.354875 0.479117 0.341864 0.487483 0.345691 0.405303 0.345691 0.405303 0.341864 0.487483 0.34046 0.413423 0.34046 0.413423 0.341864 0.487483 0.29173 0.498309 0.34046 0.413423 0.29173 0.498309 0.284332 0.427693 0.410877 0.32829 0.363422 0.422034 0.366866 0.408502 0.410877 0.32829 0.366866 0.408502 0.367504 0.355601 0.367504 0.355601 0.366866 0.408502 0.325153 0.37996 0.363422 0.422034 0.410877 0.32829 0.421082 0.418836 0.363422 0.422034 0.421082 0.418836 0.369545 0.475426 0.369545 0.475426 0.421082 0.418836 0.420189 0.455005 0.369545 0.475426 0.420189 0.455005 0.394548 0.473212 0.369545 0.475426 0.394548 0.473212 0.417255 0.539399 0.417255 0.539399 0.394548 0.473212 0.420189 0.455005 0.382302 0.560805 0.380516 0.566956 0.360744 0.465831 0.380516 0.566956 0.382302 0.560805 0.388807 0.571877 0.380516 0.566956 0.388807 0.571877 0.388807 0.579505 0.388807 0.579505 0.388807 0.571877 0.413045 0.575322 0.380516 0.566956 0.388807 0.579505 0.363932 0.670051 0.355386 0.91979 0.298492 0.929386 0.279357 0.912901 0.256523 -0.005844 0.264559 -0.007812 0.266728 0.000061 0.402329 -0.001415 0.418913 -0.001415 0.410622 0.019006 0.49609 0.255459 0.501958 0.181153 0.505147 0.270222 0.49609 0.255459 0.505147 0.270222 0.488946 0.268992 0.488946 0.268992 0.505147 0.270222 0.505785 0.294581 0.006877 0.490928 0.009174 0.528574 0.006622 0.586641 0.006622 0.586641 0.009174 0.528574 0.012873 0.532264 0.209068 0.769208 0.30168 0.769208 0.246573 0.77782 0.381919 0.003505 0.381919 0.012856 0.381536 0.022205 0.381536 0.022205 0.381919 0.012856 0.401054 0.020729 0.381919 0.012856 0.381919 0.003505 0.401181 0.01507 0.35832 0.011379 0.356534 0.020975 0.357044 -0.007321 0.356534 0.020975 0.35832 0.011379 0.377199 0.014332 0.132147 0.415391 0.134698 0.524636 0.126533 0.524636 0.134698 0.524636 0.132147 0.415391 0.141204 0.517255 0.126533 0.524636 0.134698 0.524636 0.141841 0.574584 0.126533 0.524636 0.141841 0.574584 0.111226 0.62404 0.126533 0.524636 0.111226 0.62404 0.110843 0.523406 0.111226 0.62404 0.141841 0.574584 0.140311 0.61715 0.140311 0.61715 0.141841 0.574584 0.15447 0.5923 0.15447 0.5923 0.141841 0.574584 0.180111 0.62404 0.262901 0.125054 0.286118 0.120871 0.35462 0.120871 0.262901 0.125054 0.35462 0.120871 0.290582 0.130713 0.407943 0.940458 0.337909 0.940458 0.336761 0.931846 0.212385 0.200836 0.216595 0.248816 0.2069 0.316479 0.216595 0.248816 0.212385 0.200836 0.224759 0.202313 0.224759 0.202313 0.212385 0.200836 0.240577 0.145476 0.224759 0.202313 0.240577 0.145476 0.249634 0.184843 0.240577 0.145476 0.212385 0.200836 0.210344 0.164421 0.210344 0.164421 0.212385 0.200836 0.200904 0.155563 0.210344 0.164421 0.200904 0.155563 0.240577 0.145476 0.240577 0.145476 0.200904 0.155563 0.258309 0.122347 0.258309 0.122347 0.200904 0.155563 0.201797 0.137848 0.258309 0.122347 0.201797 0.137848 0.20269 0.121117 0.201797 0.137848 0.200904 0.155563 0.154598 0.124808 0.201797 0.137848 0.154598 0.124808 0.20269 0.121117 0.054332 0.318447 0.048719 0.389802 0.04081 0.238482 0.04081 0.238482 0.048719 0.389802 0.04081 0.35757 0.213788 0.672266 0.189678 0.619365 0.193888 0.597467 0.193888 0.597467 0.189678 0.619365 0.142607 0.539154 0.193888 0.597467 0.142607 0.539154 0.177177 0.559083 0.177177 0.559083 0.142607 0.539154 0.147454 0.527097 0.193888 0.597467 0.177177 0.559083 0.193505 0.530049 0.177177 0.559083 0.147454 0.527097 0.176284 0.546535 0.177177 0.559083 0.176284 0.546535 0.193505 0.530049 0.176284 0.546535 0.147454 0.527097 0.15447 0.512826 0.176284 0.546535 0.15447 0.512826 0.193505 0.530049 0.15447 0.512826 0.147454 0.527097 0.142734 0.405303 0.15447 0.512826 0.142734 0.405303 0.167227 0.451806 0.193505 0.530049 0.15447 0.512826 0.171947 0.496341 0.171947 0.496341 0.15447 0.512826 0.167227 0.451806 0.193505 0.530049 0.171947 0.496341 0.216084 0.479856 0.171947 0.496341 0.167227 0.451806 0.19223 0.441472 0.171947 0.496341 0.19223 0.441472 0.216084 0.479856 0.044637 0.037706 0.006622 0.091099 0.011853 0.029833 0.036218 0.316479 0.011087 0.316479 0.0366 0.230362 0.0366 0.230362 0.011087 0.316479 0.018103 0.246601 0.207155 0.834658 0.164803 0.834658 0.209196 0.816204 0.164803 0.834658 0.207155 0.834658 0.17284 0.850404 0.17284 0.850404 0.207155 0.834658 0.256905 0.855079 0.025884 0.218552 0.032135 0.208956 0.036855 0.219045 0.032135 0.208956 0.025884 0.218552 0.024864 0.17697 0.032135 0.208956 0.024864 0.17697 0.031115 0.175494 0.032135 0.208956 0.031115 0.175494 0.036855 0.219045 0.036855 0.219045 0.031115 0.175494 0.032263 0.144983 0.036855 0.219045 0.032263 0.144983 0.045275 0.222242 0.340333 0.103155 0.284587 0.112013 0.345436 0.091099 0.284587 0.112013 0.340333 0.103155 0.342374 0.111521 0.342374 0.111521 0.340333 0.103155 0.345436 0.091099 0.342374 0.111521 0.345436 0.091099 0.346711 0.097004 0.346711 0.097004 0.345436 0.091099 0.365591 0.120624 0.365591 0.120624 0.345436 0.091099 0.353982 0.08544 0.353982 0.08544 0.345436 0.091099 0.361126 0.059112 0.353982 0.08544 0.361126 0.059112 0.370949 0.052716 0.370949 0.052716 0.361126 0.059112 0.362274 0.047549 0.303977 0.094543 0.351048 0.051731 0.343267 0.076336 0.351048 0.051731 0.303977 0.094543 0.341736 0.032539 0.341736 0.032539 0.303977 0.094543 0.30589 0.083225 0.478358 0.350434 0.435114 0.333211 0.428735 0.313281 0.428735 0.313281 0.435114 0.333211 0.430777 0.349941 0.428735 0.313281 0.430777 0.349941 0.414321 0.316479 0.071298 0.559575 0.039279 0.554162 0.106251 0.550225 0.426694 0.903551 0.342501 0.903551 0.343522 0.895677 0.3897 0.863691 0.411897 0.871318 0.328087 0.863445 0.471598 0.963587 0.511653 0.991882 0.470322 0.984009 0.511653 0.991882 0.471598 0.963587 0.480527 0.944887 0.480527 0.944887 0.471598 0.963587 0.468664 0.911917 0.468664 0.911917 0.471598 0.963587 0.438813 0.913146 0.480527 0.944887 0.468664 0.911917 0.494814 0.883621 0.480527 0.944887 0.494814 0.883621 0.493921 0.900844 0.253461 0.674234 0.215319 0.75666 0.248996 0.676202 0.253461 0.674234 0.248996 0.676202 0.246573 0.570155 0.215319 0.75666 0.253461 0.674234 0.271065 0.716554 0.271065 0.716554 0.253461 0.674234 0.30589 0.710402 0.271065 0.716554 0.30589 0.710402 0.310993 0.741405 0.04081 0.391524 0.051653 0.416375 0.043234 0.541368 0.497366 0.57114 0.490094 0.626254 0.47096 0.66513 0.47096 0.66513 0.490094 0.626254 0.490094 0.64643 0.47096 0.66513 0.490094 0.64643 0.479251 0.685306 0.47096 0.66513 0.479251 0.685306 0.468919 0.672758 0.468919 0.672758 0.479251 0.685306 0.439451 0.695394 0.439451 0.695394 0.479251 0.685306 0.48563 0.695148 0.439451 0.695394 0.48563 0.695148 0.443916 0.718031 0.443916 0.718031 0.48563 0.695148 0.483206 0.744604 0.483206 0.744604 0.48563 0.695148 0.496473 0.741651 0.137887 0.029586 0.113777 0.025404 0.131381 0.014824 0.113777 0.025404 0.137887 0.029586 0.130871 0.055176 0.130871 0.055176 0.137887 0.029586 0.162507 0.024666 0.125258 0.39743 0.097194 0.393246 0.111609 0.315003 0.097194 0.393246 0.125258 0.39743 0.101403 0.420804 0.097194 0.393246 0.101403 0.420804 0.087116 0.423511 0.101403 0.420804 0.125258 0.39743 0.127171 0.405549 0.087116 0.423511 0.101403 0.420804 0.113649 0.494372 0.113649 0.494372 0.101403 0.420804 0.127171 0.405549 0.127809 0.975397 0.129212 0.999756 0.109823 0.980564 0.127809 0.975397 0.109823 0.980564 0.123727 0.91979 0.123727 0.91979 0.109823 0.980564 0.101658 0.926433 0.101658 0.926433 0.109823 0.980564 0.075253 0.997295 0.081758 0.92914 0.073722 0.98081 0.054204 0.953007 0.081758 0.92914 0.054204 0.953007 0.060583 0.902566 0.060583 0.902566 0.054204 0.953007 0.049612 0.902566 0.049612 0.902566 0.054204 0.953007 0.041065 0.958912 0.049612 0.902566 0.041065 0.958912 0.018486 0.91044 0.049612 0.902566 0.018486 0.91044 0.029967 0.852373 0.018486 0.91044 0.041065 0.958912 0.018869 0.996065 0.475552 0.544567 0.463943 0.56179 0.42746 0.542844 0.463943 0.56179 0.475552 0.544567 0.493284 0.559329 0.104337 0.208464 0.050505 0.210679 0.098214 0.188534 0.050505 0.210679 0.104337 0.208464 0.048719 0.250539 0.048719 0.250539 0.104337 0.208464 0.107399 0.26038 0.098214 0.188534 0.050505 0.210679 0.047061 0.195669 0.098214 0.188534 0.047061 0.195669 0.040937 0.146952 0.098214 0.188534 0.040937 0.146952 0.108292 0.140063 0.108292 0.140063 0.040937 0.146952 0.094642 0.10783 0.470705 0.030817 0.495835 0.04681 0.472108 0.114228 0.472108 0.114228 0.495835 0.04681 0.507316 0.037952 0.472108 0.114228 0.507316 0.037952 0.487671 0.1066 0.472108 0.114228 0.487671 0.1066 0.472873 0.126284 0.487671 0.1066 0.507316 0.037952 0.510505 0.13957 0.487671 0.1066 0.510505 0.13957 0.472873 0.126284 0.433073 0.91979 0.440089 0.939228 0.379368 0.994835 0.379368 0.994835 0.440089 0.939228 0.446978 0.995819 0.177815 0.056161 0.203328 0.092329 0.182025 0.113735 0.203328 0.092329 0.177815 0.056161 0.220422 0.030325 0.000754 0.785447 0.011725 0.775113 0.00254 0.876239 0.00254 0.876239 0.011725 0.775113 0.032391 0.830474 0.223739 0.558345 0.24096 0.637819 0.228458 0.651352 0.24096 0.637819 0.223739 0.558345 0.238918 0.507905 0.238918 0.507905 0.223739 0.558345 0.217105 0.548257 0.238918 0.507905 0.217105 0.548257 0.218381 0.501508 0.238918 0.507905 0.218381 0.501508 0.222718 0.475181 0.238918 0.507905 0.222718 0.475181 0.234326 0.480348 0.238918 0.507905 0.234326 0.480348 0.285863 0.406287 0.058031 0.07486 0.064409 0.040659 0.093112 0.096512 0.058031 0.07486 0.093112 0.096512 0.049484 0.121363 0.064409 0.040659 0.058031 0.07486 0.051525 0.067232 0.058031 0.07486 0.049484 0.121363 0.04183 0.116442 0.058031 0.07486 0.04183 0.116442 0.051525 0.067232 0.051525 0.067232 0.04183 0.116442 0.017976 0.090115 0.017976 0.090115 0.04183 0.116442 0.025375 0.136618 0.003816 0.457219 0.033794 0.434091 0.03609 0.447623 0.033794 0.434091 0.003816 0.457219 0.015041 0.405057 0.033794 0.434091 0.015041 0.405057 0.037111 0.3743 0.015041 0.405057 0.003816 0.457219 0.004071 0.375285 0.015041 0.405057 0.004071 0.375285 0.037111 0.3743</float_array>
          <technique_common>
            <accessor source="#CrossbowBody-mesh-map-0-array" count="1254" stride="2">
              <param name="S" type="float"/>
              <param name="T" type="float"/>
            </accessor>
          </technique_common>
        </source>
        <vertices id="CrossbowBody-mesh-vertices">
          <input semantic="POSITION" source="#CrossbowBody-mesh-positions"/>
        </vertices>
        <polylist material="Material_-1-material" count="6">
          <input semantic="VERTEX" source="#CrossbowBody-mesh-vertices" offset="0"/>
          <input semantic="NORMAL" source="#CrossbowBody-mesh-normals" offset="1"/>
          <input semantic="TEXCOORD" source="#CrossbowBody-mesh-map-0" offset="2" set="0"/>
          <vcount>3 3 3 3 3 3 3 3 3 3 3 3 3 3 3 3 3 3 3 3 3 3 3 3 3 3 3 3 3 3 3 3 3 3 3 3 3 3 3 3 3 3 3 3 3 3 3 3 3 3 3 3 3 3 3 3 3 3 3 3 3 3 3 3 3 3 3 3 3 3 3 3 3 3 3 3 3 3 3 3 3 3 3 3 3 3 3 3 3 3 3 3 3 3 3 3 3 3 3 3 3 3 3 3 3 3 3 3 3 3 3 3 3 3 3 3 3 3 3 3 3 3 3 3 3 3 3 3 3 3 3 3 3 3 3 3 3 3 3 3 3 3 3 3 3 3 3 3 3 3 3 3 3 3 3 3 3 3 3 3 3 3 3 3 3 3 3 3 3 3 3 3 3 3 3 3 3 3 3 3 3 3 3 3 3 3 3 3 3 3 3 3 3 3 3 3 3 3 3 3 3 3 3 3 3 3 3 3 3 3 3 3 3 3 3 3 3 3 3 3 3 3 3 3 3 3 3 3 3 3 3 3 3 3 3 3 3 3 3 3 3 3 3 3 3 3 3 3 3 3 3 3 3 3 3 3 3 3 3 3 3 3 3 3 3 3 3 3 3 3 3 3 3 3 3 3 3 3 3 3 3 3 3 3 3 3 3 3 3 3 3 3 3 3 3 3 3 3 3 3 3 3 3 3 3 3 3 3 3 3 3 3 3 3 3 3 3 3 3 3 3 3 3 3 3 3 3 3 3 3 3 3 3 3 3 3 3 3 3 3 3 3 3 3 3 3 3 3 3 3 3 3 3 3 3 3 3 3 3 3 3 3 3 3 3 3 3 3 3 3 3 3 3 3 3 3 3 3 3 3 3 3 3 3 3 3 3 3 3 3 3 3 3 3 3 3 3 3 3 3 3 3 3 3 3 3 3 3 3 3 3 3 3 3 3 3 3 3</vcount>
          <p>0 0 0 1 0 1 2 0 2 1 1 3 0 1 4 3 1 5 3 2 6 0 2 7 2 2 8 1 3 9 3 3 10 4 3 11 1 4 12 4 4 13 5 4 14 5 5 15 4 5 16 6 5 17 4 6 18 3 6 19 7 6 20 7 7 21 3 7 22 2 7 23 4 8 24 7 8 25 6 8 26 7 9 27 2 9 28 8 9 29 7 10 30 8 10 31 6 10 32 6 11 33 8 11 34 9 11 35 1 12 36 10 12 37 2 12 38 2 13 39 10 13 40 8 13 41 10 14 42 1 14 43 11 14 44 10 15 45 11 15 46 12 15 47 12 16 48 11 16 49 1 16 50 12 17 51 1 17 52 5 17 53 8 18 54 10 18 55 12 18 56 13 19 57 9 19 58 8 19 59 13 20 60 8 20 61 14 20 62 14 21 63 8 21 64 15 21 65 15 22 66 8 22 67 16 22 68 16 23 69 8 23 70 12 23 71 16 24 72 12 24 73 17 24 74 17 25 75 12 25 76 5 25 77 17 26 78 5 26 79 18 26 80 18 27 81 5 27 82 6 27 83 19 28 84 20 28 85 21 28 86 20 29 87 19 29 88 22 29 89 20 30 90 22 30 91 23 30 92 23 31 93 22 31 94 24 31 95 21 32 96 20 32 97 25 32 98 25 33 99 20 33 100 23 33 101 23 34 102 24 34 103 26 34 104 23 35 105 26 35 106 25 35 107 26 36 108 24 36 109 27 36 110 26 37 111 27 37 112 28 37 113 25 38 114 26 38 115 29 38 116 29 39 117 26 39 118 28 39 119 25 40 120 29 40 121 21 40 122 29 41 123 28 41 124 30 41 125 21 42 126 29 42 127 31 42 128 31 43 129 29 43 130 30 43 131 19 44 132 21 44 133 32 44 134 19 45 135 32 45 136 22 45 137 22 46 138 32 46 139 24 46 140 24 47 141 32 47 142 27 47 143 27 48 144 32 48 145 33 48 146 32 49 147 21 49 148 34 49 149 32 50 150 34 50 151 33 50 152 34 51 153 21 51 154 31 51 155 33 52 156 34 52 157 35 52 158 9 53 159 18 53 160 6 53 161 36 54 162 34 54 163 31 54 164 34 55 165 36 55 166 35 55 167 35 56 168 36 56 169 37 56 170 36 57 171 31 57 172 38 57 173 38 58 174 31 58 175 30 58 176 38 59 177 30 59 178 28 59 179 38 60 180 28 60 181 39 60 182 9 61 183 13 61 184 18 61 185 18 62 186 13 62 187 38 62 188 38 63 189 13 63 190 36 63 191 36 64 192 13 64 193 40 64 194 40 65 195 13 65 196 14 65 197 36 66 198 40 66 199 41 66 200 36 67 201 41 67 202 37 67 203 41 68 204 40 68 205 42 68 206 40 69 207 14 69 208 17 69 209 17 70 210 14 70 211 16 70 212 16 71 213 14 71 214 15 71 215 18 72 216 43 72 217 17 72 218 17 73 219 43 73 220 40 73 221 40 74 222 43 74 223 42 74 224 42 75 225 43 75 226 44 75 227 44 76 228 43 76 229 45 76 230 44 77 231 45 77 232 46 77 233 43 78 234 18 78 235 47 78 236 43 79 237 47 79 238 45 79 239 45 80 240 47 80 241 48 80 242 47 81 243 18 81 244 38 81 245 47 82 246 38 82 247 39 82 248 27 83 249 49 83 250 28 83 251 28 84 252 49 84 253 39 84 254 39 85 255 49 85 256 47 85 257 47 86 258 49 86 259 48 86 260 33 87 261 35 87 262 50 87 263 50 88 264 35 88 265 37 88 266 50 89 267 37 89 268 51 89 269 33 90 270 50 90 271 52 90 272 33 91 273 52 91 274 27 91 275 27 92 276 52 92 277 49 92 278 50 93 279 51 93 280 53 93 281 50 94 282 53 94 283 52 94 284 53 95 285 51 95 286 48 95 287 53 96 288 48 96 289 49 96 290 49 97 291 52 97 292 54 97 293 54 98 294 52 98 295 53 98 296 54 99 297 53 99 298 49 99 299 55 100 300 56 100 301 37 100 302 37 101 303 56 101 304 51 101 305 55 102 306 37 102 307 41 102 308 55 103 309 41 103 310 57 103 311 56 104 312 58 104 313 51 104 314 51 105 315 58 105 316 48 105 317 48 106 318 58 106 319 56 106 320 48 107 321 56 107 322 59 107 323 59 108 324 56 108 325 55 108 326 59 109 327 55 109 328 60 109 329 59 110 330 60 110 331 61 110 332 41 111 333 42 111 334 62 111 335 41 112 336 62 112 337 57 112 338 62 113 339 42 113 340 63 113 341 63 114 342 42 114 343 44 114 344 45 115 345 48 115 346 59 115 347 45 116 348 59 116 349 46 116 350 46 117 351 59 117 352 64 117 353 64 118 354 59 118 355 65 118 356 64 119 357 65 119 358 66 119 359 64 120 360 66 120 361 67 120 362 46 121 363 64 121 364 44 121 365 44 122 366 64 122 367 68 122 368 44 123 369 68 123 370 63 123 371 63 124 372 68 124 373 69 124 374 55 125 375 57 125 376 62 125 377 69 126 378 70 126 379 63 126 380 63 127 381 70 127 382 62 127 383 70 128 384 69 128 385 71 128 386 71 129 387 69 129 388 68 129 389 62 130 390 70 130 391 72 130 392 72 131 393 70 131 394 71 131 395 72 132 396 71 132 397 68 132 398 62 133 399 72 133 400 64 133 401 64 134 402 72 134 403 68 134 404 55 135 405 62 135 406 73 135 407 73 136 408 62 136 409 74 136 410 73 137 411 74 137 412 75 137 413 55 138 414 73 138 415 60 138 416 60 139 417 73 139 418 76 139 419 64 140 420 67 140 421 62 140 422 62 141 423 67 141 424 74 141 425 77 142 426 67 142 427 65 142 428 65 143 429 67 143 430 66 143 431 78 144 432 79 144 433 80 144 434 78 145 435 80 145 436 77 145 437 76 146 438 59 146 439 61 146 440 76 147 441 61 147 442 60 147 443 59 148 444 76 148 445 65 148 446 65 149 447 76 149 448 81 149 449 81 150 450 76 150 451 82 150 452 81 151 453 82 151 454 83 151 455 82 152 456 76 152 457 84 152 458 84 153 459 76 153 460 73 153 461 73 154 462 85 154 463 86 154 464 86 155 465 85 155 466 87 155 467 73 156 468 86 156 469 88 156 470 85 157 471 73 157 472 75 157 473 85 158 474 75 158 475 89 158 476 73 159 477 88 159 478 90 159 479 73 160 480 90 160 481 91 160 482 73 161 483 91 161 484 84 161 485 91 162 486 90 162 487 92 162 488 91 163 489 92 163 490 93 163 491 94 164 492 95 164 493 74 164 494 95 165 495 94 165 496 96 165 497 95 166 498 96 166 499 97 166 500 74 167 501 95 167 502 98 167 503 98 168 504 95 168 505 97 168 506 74 169 507 98 169 508 65 169 509 98 170 510 97 170 511 99 170 512 98 171 513 99 171 514 100 171 515 77 172 516 94 172 517 74 172 518 77 173 519 74 173 520 67 173 521 94 174 522 77 174 523 97 174 524 94 175 525 97 175 526 96 175 527 97 176 528 77 176 529 79 176 530 97 177 531 79 177 532 78 177 533 79 178 534 77 178 535 80 178 536 65 179 537 98 179 538 100 179 539 65 180 540 100 180 541 101 180 542 65 181 543 101 181 544 102 181 545 78 182 546 77 182 547 65 182 548 78 183 549 65 183 550 102 183 551 78 184 552 102 184 553 101 184 554 78 185 555 101 185 556 100 185 557 78 186 558 100 186 559 103 186 560 78 187 561 103 187 562 97 187 563 104 188 564 105 188 565 106 188 566 105 189 567 104 189 568 107 189 569 105 190 570 107 190 571 108 190 572 108 191 573 107 191 574 104 191 575 108 192 576 104 192 577 109 192 578 109 193 579 104 193 580 106 193 581 109 194 582 106 194 583 110 194 584 106 195 585 105 195 586 111 195 587 111 196 588 105 196 589 108 196 590 106 197 591 111 197 592 112 197 593 106 198 594 112 198 595 113 198 596 113 199 597 112 199 598 114 199 599 112 200 600 111 200 601 115 200 602 115 201 603 111 201 604 108 201 605 112 202 606 115 202 607 116 202 608 115 203 609 108 203 610 109 203 611 116 204 612 115 204 613 110 204 614 110 205 615 115 205 616 109 205 617 106 206 618 113 206 619 110 206 620 110 207 621 113 207 622 114 207 623 112 208 624 116 208 625 117 208 626 117 209 627 116 209 628 118 209 629 118 210 630 116 210 631 119 210 632 112 211 633 117 211 634 114 211 635 114 212 636 117 212 637 118 212 638 114 213 639 118 213 640 120 213 641 114 214 642 120 214 643 121 214 644 114 215 645 121 215 646 110 215 647 121 216 648 120 216 649 122 216 650 110 217 651 121 217 652 116 217 653 121 218 654 122 218 655 119 218 656 121 219 657 119 219 658 116 219 659 119 220 660 123 220 661 118 220 662 118 221 663 123 221 664 124 221 665 118 222 666 124 222 667 120 222 668 120 223 669 124 223 670 125 223 671 125 224 672 124 224 673 126 224 674 125 225 675 126 225 676 127 225 677 124 226 678 123 226 679 128 226 680 128 227 681 123 227 682 119 227 683 124 228 684 128 228 685 126 228 686 126 229 687 128 229 688 129 229 689 128 230 690 119 230 691 122 230 692 129 231 693 128 231 694 130 231 695 130 232 696 128 232 697 131 232 698 131 233 699 128 233 700 122 233 701 130 234 702 131 234 703 127 234 704 127 235 705 131 235 706 125 235 707 125 236 708 131 236 709 122 236 710 125 237 711 122 237 712 120 237 713 130 238 714 132 238 715 133 238 716 130 239 717 133 239 718 134 239 719 134 240 720 133 240 721 135 240 722 132 241 723 130 241 724 127 241 725 132 242 726 127 242 727 136 242 728 136 243 729 127 243 730 126 243 731 136 244 732 126 244 733 137 244 734 136 245 735 137 245 736 129 245 737 129 246 738 137 246 739 126 246 740 89 247 741 87 247 742 85 247 743 87 248 744 89 248 745 135 248 746 87 249 747 135 249 748 88 249 749 88 250 750 135 250 751 138 250 752 87 251 753 88 251 754 86 251 755 139 252 756 75 252 757 74 252 758 93 253 759 92 253 760 90 253 761 140 254 762 90 254 763 88 254 764 89 255 765 75 255 766 139 255 767 89 256 768 139 256 769 135 256 770 135 257 771 139 257 772 134 257 773 141 258 774 142 258 775 99 258 776 99 259 777 142 259 778 143 259 779 97 260 780 141 260 781 99 260 782 135 261 783 144 261 784 145 261 785 145 262 786 144 262 787 146 262 788 144 263 789 135 263 790 133 263 791 145 264 792 138 264 793 135 264 794 138 265 795 145 265 796 147 265 797 144 266 798 132 266 799 146 266 800 132 267 801 144 267 802 133 267 803 146 268 804 132 268 805 136 268 806 146 269 807 136 269 808 148 269 809 146 270 810 148 270 811 149 270 812 148 271 813 136 271 814 150 271 815 150 272 816 136 272 817 151 272 818 151 273 819 136 273 820 152 273 821 153 274 822 139 274 823 74 274 824 153 275 825 74 275 826 142 275 827 74 276 828 143 276 829 142 276 830 153 277 831 134 277 832 139 277 833 134 278 834 153 278 835 152 278 836 152 279 837 153 279 838 150 279 839 152 280 840 150 280 841 151 280 842 150 281 843 153 281 844 154 281 845 154 282 846 153 282 847 155 282 848 154 283 849 155 283 850 150 283 851 150 284 852 155 284 853 148 284 854 148 285 855 155 285 856 156 285 857 148 286 858 156 286 859 157 286 860 156 287 861 155 287 862 141 287 863 156 288 864 141 288 865 157 288 866 141 289 867 155 289 868 142 289 869 142 290 870 155 290 871 153 290 872 149 291 873 148 291 874 158 291 875 158 292 876 148 292 877 157 292 878 158 293 879 157 293 880 159 293 881 159 294 882 157 294 883 160 294 884 158 295 885 159 295 886 161 295 887 159 296 888 160 296 889 162 296 890 159 297 891 162 297 892 161 297 893 162 298 894 160 298 895 163 298 896 162 299 897 163 299 898 161 299 899 163 300 900 160 300 901 164 300 902 163 301 903 164 301 904 165 301 905 161 302 906 163 302 907 166 302 908 166 303 909 163 303 910 165 303 911 161 304 912 166 304 913 167 304 914 166 305 915 165 305 916 168 305 917 166 306 918 168 306 919 167 306 920 136 307 921 129 307 922 152 307 923 134 308 924 152 308 925 130 308 926 130 309 927 152 309 928 129 309 929 103 310 930 157 310 931 141 310 932 157 311 933 103 311 934 160 311 935 160 312 936 103 312 937 143 312 938 91 313 939 169 313 940 84 313 941 169 314 942 91 314 943 93 314 944 169 315 945 93 315 946 170 315 947 169 316 948 170 316 949 84 316 950 84 317 951 170 317 952 171 317 953 84 318 954 171 318 955 82 318 956 172 319 957 82 319 958 171 319 959 82 320 960 172 320 961 83 320 962 83 321 963 172 321 964 171 321 965 83 322 966 171 322 967 138 322 968 138 323 969 171 323 970 88 323 971 88 324 972 171 324 973 140 324 974 140 325 975 171 325 976 170 325 977 140 326 978 170 326 979 90 326 980 90 327 981 170 327 982 93 327 983 164 328 984 65 328 985 81 328 986 65 329 987 164 329 988 74 329 989 74 330 990 164 330 991 143 330 992 81 331 993 83 331 994 164 331 995 164 332 996 83 332 997 138 332 998 164 333 999 138 333 1000 165 333 1001 99 334 1002 143 334 1003 100 334 1004 97 335 1005 103 335 1006 141 335 1007 143 336 1008 103 336 1009 100 336 1010 149 337 1011 145 337 1012 146 337 1013 145 338 1014 149 338 1015 147 338 1016 147 339 1017 149 339 1018 161 339 1019 161 340 1020 149 340 1021 158 340 1022 147 341 1023 161 341 1024 167 341 1025 147 342 1026 167 342 1027 173 342 1028 174 343 1029 138 343 1030 147 343 1031 174 344 1032 147 344 1033 175 344 1034 138 345 1035 174 345 1036 165 345 1037 165 346 1038 174 346 1039 176 346 1040 165 347 1041 176 347 1042 168 347 1043 143 348 1044 164 348 1045 160 348 1046 147 349 1047 173 349 1048 175 349 1049 175 350 1050 173 350 1051 167 350 1052 175 351 1053 167 351 1054 177 351 1055 175 352 1056 177 352 1057 178 352 1058 178 353 1059 177 353 1060 179 353 1061 179 354 1062 177 354 1063 180 354 1064 179 355 1065 180 355 1066 181 355 1067 181 356 1068 180 356 1069 182 356 1070 182 357 1071 180 357 1072 183 357 1073 177 358 1074 183 358 1075 180 358 1076 183 359 1077 177 359 1078 182 359 1079 182 360 1080 177 360 1081 181 360 1082 175 361 1083 176 361 1084 174 361 1085 176 362 1086 175 362 1087 184 362 1088 176 363 1089 184 363 1090 185 363 1091 184 364 1092 175 364 1093 178 364 1094 185 365 1095 184 365 1096 186 365 1097 186 366 1098 184 366 1099 178 366 1100 168 367 1101 176 367 1102 185 367 1103 168 368 1104 185 368 1105 167 368 1106 167 369 1107 185 369 1108 177 369 1109 177 370 1110 185 370 1111 187 370 1112 186 371 1113 178 371 1114 179 371 1115 186 372 1116 179 372 1117 188 372 1118 188 373 1119 179 373 1120 189 373 1121 189 374 1122 179 374 1123 181 374 1124 189 375 1125 181 375 1126 187 375 1127 189 376 1128 187 376 1129 190 376 1130 187 377 1131 181 377 1132 177 377 1133 186 378 1134 187 378 1135 185 378 1136 187 379 1137 186 379 1138 190 379 1139 189 380 1140 191 380 1141 188 380 1142 191 381 1143 189 381 1144 192 381 1145 192 382 1146 189 382 1147 190 382 1148 188 383 1149 191 383 1150 193 383 1151 188 384 1152 193 384 1153 194 384 1154 188 385 1155 194 385 1156 186 385 1157 186 386 1158 194 386 1159 190 386 1160 194 387 1161 193 387 1162 195 387 1163 195 388 1164 193 388 1165 191 388 1166 195 389 1167 191 389 1168 196 389 1169 195 390 1170 196 390 1171 197 390 1172 196 391 1173 191 391 1174 192 391 1175 196 392 1176 192 392 1177 197 392 1178 194 393 1179 198 393 1180 190 393 1181 190 394 1182 198 394 1183 192 394 1184 198 395 1185 197 395 1186 192 395 1187 197 396 1188 198 396 1189 199 396 1190 198 397 1191 194 397 1192 200 397 1193 200 398 1194 194 398 1195 195 398 1196 201 399 1197 195 399 1198 197 399 1199 195 400 1200 201 400 1201 200 400 1202 200 401 1203 201 401 1204 202 401 1205 200 402 1206 202 402 1207 203 402 1208 200 403 1209 203 403 1210 204 403 1211 200 404 1212 204 404 1213 199 404 1214 200 405 1215 199 405 1216 198 405 1217 205 406 1218 201 406 1219 197 406 1220 205 407 1221 197 407 1222 199 407 1223 201 408 1224 205 408 1225 206 408 1226 205 409 1227 199 409 1228 204 409 1229 205 410 1230 204 410 1231 206 410 1232 206 411 1233 204 411 1234 207 411 1235 207 412 1236 204 412 1237 203 412 1238 206 413 1239 202 413 1240 201 413 1241 202 414 1242 206 414 1243 208 414 1244 202 415 1245 208 415 1246 203 415 1247 208 416 1248 206 416 1249 207 416 1250 208 417 1251 207 417 1252 203 417 1253</p>
        </polylist>
      </mesh>
    </geometry>
    <geometry id="CrossbowString-mesh" name="CrossbowString">
      <mesh>
        <source id="CrossbowString-mesh-positions">
          <float_array id="CrossbowString-mesh-positions-array" count="312">0.18338 0.000457 0.379133 0.169903 -0.008811 0.366893 0.186177 -0.005695 0.376598 0.160056 -0.007424 0.343189 0.145778 -0.0091 0.335105 0.152862 0.000914 0.344879 0.153761 0.001881 0.335197 0.111804 -0.005585 0.292905 0.12855 -0.006479 0.304597 0.123144 -0.000392 0.309073 0.132563 0.004319 0.314668 0.123862 0.001182 0.296353 0.109907 0.004325 0.287676 0.096161 -0.005446 0.266598 0.089461 -0.000867 0.2679 0.068567 -0.00508 0.233259 0.063713 0.003976 0.234971 0.070473 0.004928 0.23013 0.035397 -0.004006 0.197293 0.037255 0.000052 0.190499 0.060596 0.006992 0.222388 0.033824 0.005981 0.195785 0.00177 0.000903 0.158209 -0.011543 -0.002882 0.130749 0.003593 0.001332 0.146494 0.029194 0.006367 0.181639 -0.002537 0.006532 0.147842 -0.03126 -0.001478 0.113794 -0.037939 0.004993 0.104442 -0.022142 0.004276 0.113908 -0.078875 -0.002743 0.046317 -0.078448 -0.002358 0.053047 -0.077779 0.006298 0.052654 -0.075641 0.005876 0.049934 -0.083909 0.015429 0.053182 -0.099141 -0.003224 0.053348 -0.081693 -0.008952 0.046428 -0.081485 0.013455 0.039361 -0.091454 0.018737 0.050747 -0.098998 0.007382 0.044696 -0.094688 0.013581 0.032861 -0.098559 0.011377 0.009876 -0.098921 -0.003199 0.044421 -0.096136 -0.007261 0.02445 -0.089194 -0.011368 0.043862 -0.087089 -0.011934 0.024811 -0.098768 -0.005717 0.006002 -0.092879 -0.012457 0.010624 -0.0803 -0.009481 0.010012 -0.080575 -0.002798 0.03833 -0.08222 0.006372 -0.00138 -0.082428 0.012496 0.010925 -0.094436 0.012447 -0.00409 -0.085992 0.012097 -0.007963 -0.095708 0.01632 -0.038189 -0.086914 -0.009749 -0.002919 -0.085323 -0.007026 -0.033417 -0.096542 -0.004611 -0.005521 -0.097101 -0.007132 -0.030636 -0.101323 -0.005606 -0.038652 -0.061966 -0.007144 -0.051777 -0.081606 -0.008776 -0.021328 -0.086299 -0.016432 -0.025244 -0.054651 0.004307 -0.066654 -0.077877 -0.008975 -0.036813 -0.081123 0.007711 -0.033608 -0.082428 0.01538 -0.039357 -0.092287 -0.020209 -0.038486 -0.084775 -0.011851 -0.042465 -0.047621 0.007835 -0.071923 -0.069302 0.013108 -0.048716 -0.037478 0.005959 -0.090392 -0.035471 -0.000916 -0.094376 -0.026906 -0.003048 -0.097779 -0.050983 0.002344 -0.064051 0.010082 -0.00288 -0.148897 -0.003568 0.001595 -0.12307 0.000511 0.001973 -0.142742 0.024972 0.00673 -0.16809 0.03729 -0.003296 -0.179496 0.027573 0.004985 -0.165235 0.03807 -0.002744 -0.18806 0.047215 0.003286 -0.201259 0.066311 0.001556 -0.211946 0.093556 -0.006079 -0.252068 0.06797 -0.000944 -0.227657 0.064293 0.00722 -0.216673 0.079928 0.004775 -0.229255 0.086571 -0.002049 -0.237316 0.107106 0.002478 -0.26191 0.121043 -0.006203 -0.281183 0.097998 0.005548 -0.259215 0.121005 0.003807 -0.282462 0.103273 -0.000274 -0.270542 0.124772 -0.004415 -0.297351 0.144516 -0.009131 -0.31989 0.128747 0.001708 -0.301097 0.156524 -0.005937 -0.324251 0.148431 0.002499 -0.314821 0.166427 -0.009796 -0.347932 0.185891 -0.007998 -0.364031 0.184181 0.001005 -0.363689 0.161569 0.000708 -0.342224 -0.073995 0.000208 0.037714</float_array>
          <technique_common>
            <accessor source="#CrossbowString-mesh-positions-array" count="104" stride="3">
              <param name="X" type="float"/>
              <param name="Y" type="float"/>
              <param name="Z" type="float"/>
            </accessor>
          </technique_common>
        </source>
        <source id="CrossbowString-mesh-normals">
          <float_array id="CrossbowString-mesh-normals-array" count="600">-0.373856 -0.493461 0.78532 0.28381 -0.943129 -0.173088 0.191292 -0.972017 -0.136344 -0.730353 0.199191 0.653382 -0.796161 -0.026793 0.604492 -0.087248 0.992024 0.090971 0.82756 0.082959 -0.555214 0.658387 0.522473 -0.541801 -0.779993 -0.05652 0.623231 0.010845 -0.99573 -0.091669 -0.721613 -0.325889 0.610796 -0.603108 0.639139 0.477243 0.016697 0.994757 0.100895 0.432729 0.831627 -0.348054 -0.483705 0.871517 0.080546 0.140608 0.981572 0.129406 0.231683 -0.949323 -0.212391 0.755399 -0.206823 -0.621769 0.792268 0.011978 -0.610056 -0.084593 -0.995397 0.045043 -0.500002 -0.814947 0.293018 -0.470263 -0.796299 0.380474 -0.70648 0.219765 0.672748 -0.683658 0.420574 0.59643 -0.088845 0.993491 0.071293 0.346751 0.909804 -0.228082 0.727232 -0.324838 -0.60466 -0.830789 0.126926 0.541922 0.737201 -0.231828 -0.634658 -0.790752 -0.067074 0.60845 -0.402363 -0.847672 0.345769 0.394959 -0.832229 -0.389105 0.806856 0.000808 -0.590748 0.473169 0.722815 -0.503636 0.533946 -0.34324 -0.772715 0.72617 -0.327297 -0.604611 0.025492 0.973553 0.227035 -0.328281 0.896912 0.296277 -0.795498 -0.033969 0.605003 -0.759185 -0.021377 0.650524 -0.534745 -0.762435 0.364335 0.477672 -0.805566 -0.35056 0.697947 -0.461833 -0.547339 0.78552 0.166358 -0.596057 0.742353 0.630835 -0.225741 0.507267 0.720543 -0.472756 -0.036578 0.998561 0.039218 -0.70657 0.456005 0.541126 -0.297879 -0.915449 0.270593 -0.742738 0.408635 0.530432 -0.772251 0.107759 0.626112 0.128004 0.981951 -0.139236 0.552711 0.747228 -0.369 0.721008 -0.345516 -0.600638 -0.213711 -0.962195 0.168844 0.746468 -0.296375 -0.595775 -0.059666 -0.996366 0.060783 -0.788286 0.06985 0.611331 -0.788405 0.088622 0.608739 0.766761 -0.018479 -0.641667 0.060807 0.997814 -0.025895 0.114949 0.991343 -0.063448 0.136636 0.034455 0.990022 0.014628 -0.00308 0.999888 0.040115 -0.717654 0.695244 0.909844 -0.413543 -0.034149 0.830179 0.553511 0.066549 0.416179 0.907518 -0.056621 0.522882 0.80283 0.286458 -0.224331 0.191655 0.955481 -0.845511 0.344279 0.408145 -0.830277 0.557252 -0.010479 -0.985092 0.063738 0.159784 -0.999676 -0.006628 -0.024567 -0.93997 0.002025 -0.341251 -0.315629 -0.948826 -0.010408 -0.977406 0.133883 -0.163563 -0.213692 -0.317667 0.923809 -0.639427 -0.765961 0.066605 -0.458035 -0.888604 -0.024209 -0.986137 0.001526 0.165925 -0.990015 -0.019565 0.139598 -0.77083 -0.634498 0.056863 -0.454781 -0.863655 0.217427 0.227245 -0.972174 -0.056898 0.655973 -0.733159 0.17938 0.096007 -0.573162 -0.813798 0.998418 0.056118 -0.003564 0.994716 0.097636 -0.031744 0.994543 0.097808 -0.036301 -0.957954 0.074474 -0.27709 -0.072647 0.995848 0.054847 0.029208 0.999219 -0.026619 0.091043 0.98986 0.109033 -0.545166 -0.742799 -0.388643 0.895293 -0.292729 0.335797 0.959195 -0.281648 0.024874 -0.428404 -0.88784 -0.167959 -0.975186 0.135093 -0.17539 -0.489001 -0.866773 0.097891 -0.992519 0.121693 0.009881 -0.01218 -0.995907 -0.089555 -0.99623 0.073836 0.04555 -0.848768 0.2071 0.48652 0.674586 -0.619182 0.401931 -0.751367 0.600545 -0.273483 0.391223 -0.09965 0.914885 0.982183 0.186201 0.025415 0.264003 -0.464472 0.845321 0.209522 -0.44537 0.870486 -0.804478 -0.494078 0.3297 0.598002 -0.712349 -0.367359 0.624552 0.035239 -0.780188 -0.287561 -0.188631 -0.939003 -0.078521 0.119737 -0.989696 -0.198308 0.071402 -0.977535 0.66357 -0.29584 0.687134 0.3094 0.948077 0.073628 -0.523706 -0.530976 -0.666181 -0.824961 -0.172354 -0.538269 -0.809482 0.099151 -0.578713 -0.354063 -0.868399 -0.347162 0.792445 -0.153719 0.590256 -0.798589 -0.133032 -0.586991 -0.321963 -0.916871 -0.235981 0.604224 -0.66759 0.435014 0.702207 -0.427206 0.569561 -0.62549 -0.598072 -0.501071 -0.800711 0.107828 -0.589266 -0.638296 0.579003 -0.507281 0.480483 0.783538 0.39396 0.065161 0.995732 -0.065357 0.379369 -0.85691 0.348978 0.805117 -0.069592 0.589018 0.293159 0.911096 0.289761 -0.097069 -0.99261 -0.072817 -0.615229 -0.652826 -0.441941 -0.765963 -0.185657 -0.615493 -0.617663 0.623762 -0.478971 0.70002 -0.443464 0.559742 -0.148131 -0.985963 -0.077038 -0.580874 -0.665391 -0.468872 -0.789691 -0.119569 -0.60174 -0.641698 0.496958 -0.584172 0.743546 -0.21682 0.632557 0.626388 0.618798 0.474053 0.537861 0.644833 0.543044 0.317904 0.909904 0.266481 -0.566192 0.689747 -0.451305 0.343596 -0.851814 0.395416 0.783067 0.028333 0.621292 0.690051 -0.545409 0.475772 0.768318 -0.008144 0.640017 0.683523 -0.338448 0.646722 0.374708 0.893071 0.249036 0.385818 0.866422 0.316951 -0.527916 0.629925 -0.569648 -0.609209 -0.606444 -0.51097 -0.687461 0.463997 -0.558663 -0.157267 -0.976956 -0.144307 -0.73479 -0.432637 -0.522406 -0.50411 0.695719 -0.51171 -0.435256 -0.878374 -0.197512 -0.742292 0.074678 -0.665902 -0.862053 0.318707 -0.39407 0.338805 -0.900209 0.273561 0.77139 0.029401 0.635684 0.342724 -0.893884 0.288984 0.314971 -0.907008 0.279518 -0.629777 -0.090281 -0.771511 -0.787975 -0.030235 -0.614965 -0.687046 0.075014 -0.722732 -0.780984 -0.057989 -0.621853 -0.135523 0.982317 -0.129175 -0.126754 0.984016 -0.125082 0.370816 -0.184638 -0.910167 0.654115 -0.744416 -0.134083 0.733327 -0.672332 0.101002 0.407951 -0.909443 -0.080558 0.834957 -0.44768 0.320045 -0.118583 0.05621 -0.991352 0.858348 0.499728 -0.116237 0.427442 0.90294 -0.044636 -0.057407 0.98424 -0.16726 0.903401 0.389787 -0.178694 0.805413 0.590433 0.05194 0.96156 -0.273762 0.021347 0.080008 0.990408 0.112656 0.954751 0.264466 0.136045 0.812998 -0.282281 0.509266 0.208917 0.899448 0.383857 0.02511 0.814882 0.579083 0.722513 0.38297 0.575594 0.317827 0.923332 0.215511 -0.691519 0.449429 -0.565522 0.82377 0.074926 0.561951 0.761787 0.084946 0.642234 -0.162258 0.970786 -0.176766 0.803187 0.117701 0.583984 0.800904 0.12991 0.584531</float_array>
          <technique_common>
            <accessor source="#CrossbowString-mesh-normals-array" count="200" stride="3">
              <param name="X" type="float"/>
              <param name="Y" type="float"/>
              <param name="Z" type="float"/>
            </accessor>
          </technique_common>
        </source>
        <source id="CrossbowString-mesh-map-0">
          <float_array id="CrossbowString-mesh-map-0-array" count="1200">0.657531 0.868408 0.658274 0.748535 0.679469 0.86084 0.679469 0.86084 0.658274 0.748535 0.681948 0.599365 0.681948 0.599365 0.658274 0.748535 0.659266 0.503906 0.775158 0.211914 0.822754 0.273438 0.700913 0.276855 0.775158 0.211914 0.700913 0.276855 0.67005 0.233643 0.700913 0.276855 0.822754 0.273438 0.690749 0.3396 0.690749 0.3396 0.822754 0.273438 0.723843 0.393799 0.723843 0.393799 0.822754 0.273438 0.831058 0.310303 0.61043 0.569824 0.581922 0.615479 0.629642 0.382568 0.61043 0.569824 0.629642 0.382568 0.638814 0.455811 0.629642 0.382568 0.581922 0.615479 0.603985 0.450439 0.603985 0.450439 0.581922 0.615479 0.587624 0.483398 0.587624 0.483398 0.581922 0.615479 0.570519 0.568359 0.587624 0.483398 0.570519 0.568359 0.577088 0.421875 0.587624 0.483398 0.577088 0.421875 0.603985 0.450439 0.603985 0.450439 0.577088 0.421875 0.570271 0.36084 0.931704 0.049561 0.954015 0.089844 0.955502 0.209229 0.931704 0.049561 0.955502 0.209229 0.943107 0.244873 0.931704 0.049561 0.943107 0.244873 0.916831 0.094482 0.778008 0.561523 0.786313 0.625 0.777761 0.720459 0.777761 0.720459 0.786313 0.625 0.788792 0.732422 0.777761 0.720459 0.788792 0.732422 0.775406 0.85791 0.788792 0.732422 0.786313 0.625 0.798088 0.642578 0.788792 0.732422 0.798088 0.642578 0.79251 0.865479 0.79251 0.865479 0.798088 0.642578 0.806021 0.863037 0.806021 0.863037 0.798088 0.642578 0.807756 0.592529 0.806021 0.863037 0.807756 0.592529 0.81792 0.721436 0.99058 0.824707 0.974094 0.724609 0.991571 0.741211 0.492555 0.305176 0.492555 0.096924 0.504826 0.266357 0.820399 0.435059 0.683064 0.461914 0.746649 0.435059 0.683064 0.461914 0.820399 0.435059 0.745658 0.464844 0.745658 0.464844 0.820399 0.435059 0.827836 0.453125 0.745658 0.464844 0.827836 0.453125 0.76834 0.48584 0.76834 0.48584 0.827836 0.453125 0.827092 0.476318 0.745658 0.464844 0.76834 0.48584 0.748633 0.489502 0.745658 0.464844 0.748633 0.489502 0.678726 0.477783 0.748633 0.489502 0.76834 0.48584 0.752475 0.510498 0.752475 0.510498 0.76834 0.48584 0.827092 0.476318 0.752475 0.510498 0.827092 0.476318 0.825976 0.499756 0.895264 0.473633 0.908774 0.479492 0.908774 0.655762 0.895264 0.473633 0.908774 0.655762 0.89985 0.762451 0.895264 0.473633 0.89985 0.762451 0.884232 0.489746 0.884232 0.489746 0.89985 0.762451 0.889934 0.686279 0.884232 0.489746 0.889934 0.686279 0.877291 0.533203 0.884232 0.489746 0.877291 0.533203 0.870846 0.482422 0.877291 0.533203 0.889934 0.686279 0.878035 0.69873 0.877291 0.533203 0.878035 0.69873 0.870846 0.482422 0.870846 0.482422 0.878035 0.69873 0.867747 0.658936 0.915219 0.384766 0.79251 0.356934 0.850642 0.343262 0.79251 0.356934 0.915219 0.384766 0.890305 0.402344 0.79251 0.356934 0.890305 0.402344 0.765985 0.373291 0.765985 0.373291 0.890305 0.402344 0.80317 0.410156 0.80317 0.410156 0.890305 0.402344 0.895387 0.433838 0.80317 0.410156 0.895387 0.433838 0.846056 0.442139 0.833041 0.797119 0.826968 0.724609 0.837132 0.494385 0.833041 0.797119 0.837132 0.494385 0.841966 0.742432 0.837132 0.494385 0.826968 0.724609 0.83143 0.509277 0.83143 0.509277 0.826968 0.724609 0.820646 0.692139 0.83143 0.509277 0.820646 0.692139 0.822258 0.509033 0.841966 0.742432 0.837132 0.494385 0.846056 0.508301 0.841966 0.742432 0.846056 0.508301 0.85151 0.693359 0.85151 0.693359 0.846056 0.508301 0.85089 0.510254 0.510032 0.537109 0.550067 0.505371 0.508173 0.588867 0.508173 0.588867 0.550067 0.505371 0.584649 0.660889 0.508173 0.588867 0.584649 0.660889 0.504206 0.663574 0.508173 0.588867 0.504206 0.663574 0.492432 0.632812 0.550067 0.505371 0.510032 0.537109 0.511148 0.42627 0.550067 0.505371 0.511148 0.42627 0.561099 0.442627 0.511148 0.42627 0.510032 0.537109 0.498877 0.52002 0.577832 0.290283 0.561223 0.182129 0.583905 0.192139 0.577832 0.290283 0.583905 0.192139 0.602869 0.251465 0.602869 0.251465 0.583905 0.192139 0.633609 0.211914 0.633609 0.211914 0.583905 0.192139 0.69707 0.219238 0.577832 0.290283 0.602869 0.251465 0.602002 0.293945 0.602002 0.293945 0.602869 0.251465 0.633609 0.211914 0.577832 0.290283 0.602002 0.293945 0.594193 0.39209 0.602002 0.293945 0.633609 0.211914 0.657531 0.298096 0.594193 0.39209 0.602002 0.293945 0.608075 0.356201 0.608075 0.356201 0.602002 0.293945 0.657531 0.298096 0.56457 0.789307 0.542135 0.743164 0.571387 0.744141 0.568659 0.67041 0.608199 0.686035 0.571387 0.744141 0.571387 0.744141 0.608199 0.686035 0.617619 0.74292 0.571387 0.744141 0.617619 0.74292 0.606092 0.778076 0.571387 0.744141 0.606092 0.778076 0.56457 0.789307 0.56457 0.789307 0.606092 0.778076 0.598779 0.833984 0.56457 0.789307 0.598779 0.833984 0.540648 0.847412 0.598779 0.833984 0.606092 0.778076 0.632369 0.866699 0.540648 0.847412 0.598779 0.833984 0.542878 0.916504 0.598779 0.833984 0.632369 0.866699 0.60981 0.914551 0.598779 0.833984 0.60981 0.914551 0.542878 0.916504 0.788296 0.076416 0.795733 0.128662 0.765985 0.153076 0.765985 0.153076 0.795733 0.128662 0.80788 0.206055 0.765985 0.153076 0.80788 0.206055 0.762391 0.193115 0.765985 0.153076 0.762391 0.193115 0.690253 0.205811 0.908774 0.816895 0.894892 0.841064 0.858079 0.780762 0.908774 0.816895 0.858079 0.780762 0.877291 0.748291 0.877291 0.748291 0.858079 0.780762 0.856096 0.625977 0.858079 0.780762 0.894892 0.841064 0.862541 0.838135 0.862541 0.838135 0.894892 0.841064 0.873449 0.892578 0.858079 0.780762 0.862541 0.838135 0.809491 0.903564 0.809491 0.903564 0.862541 0.838135 0.873449 0.892578 0.916335 0.903076 0.945834 0.724609 0.955502 0.906006 0.619355 0.081299 0.696946 0.188477 0.590351 0.184082 0.619355 0.081299 0.590351 0.184082 0.590723 0.077393 0.679036 0.891038 0.683061 0.729122 0.701926 0.732351 0.701926 0.732351 0.683061 0.729122 0.689475 0.490221 0.947198 0.641602 0.932572 0.686768 0.934183 0.602539 0.932572 0.686768 0.947198 0.641602 0.951164 0.718018 0.947198 0.641602 0.934183 0.602539 0.968765 0.604248 0.968765 0.604248 0.934183 0.602539 0.970624 0.563477 0.968765 0.604248 0.970624 0.563477 1 0.590576 0.947198 0.641602 0.968765 0.604248 0.966658 0.642334 0.947198 0.641602 0.966658 0.642334 0.951164 0.718018 0.966658 0.642334 0.968765 0.604248 1 0.590576 0.951164 0.718018 0.966658 0.642334 0.999132 0.713867 0.999132 0.713867 0.966658 0.642334 1 0.590576 0.636904 0.776803 0.642186 0.867943 0.632502 0.801885 0.642186 0.867943 0.636904 0.776803 0.641683 0.717202 0.743933 0.043708 0.798895 0.005215 0.782796 0.04321 0.782796 0.04321 0.798895 0.005215 0.835116 0.019619 0.835116 0.019619 0.798895 0.005215 0.830588 0.003973 0.782796 0.04321 0.835116 0.019619 0.844297 0.040976 0.782796 0.04321 0.844297 0.040976 0.800278 0.081703 0.967551 0.490221 0.961263 0.559507 0.961263 0.405786 0.761164 0.886569 0.770345 0.899234 0.687337 0.882596 0.761164 0.886569 0.687337 0.882596 0.721169 0.872165 0.761164 0.886569 0.721169 0.872165 0.809836 0.88185 0.687337 0.882596 0.770345 0.899234 0.699662 0.896254 0.699662 0.896254 0.770345 0.899234 0.774998 0.911651 0.699662 0.896254 0.774998 0.911651 0.658284 0.904201 0.658284 0.904201 0.774998 0.911651 0.719785 0.924316 0.719785 0.924316 0.774998 0.911651 0.799146 0.920839 0.827821 0.218041 0.922149 0.324081 0.879638 0.292294 0.922149 0.324081 0.827821 0.218041 0.855616 0.230707 0.922149 0.324081 0.855616 0.230707 0.858383 0.219283 0.827821 0.218041 0.879638 0.292294 0.814615 0.218538 0.814615 0.218538 0.879638 0.292294 0.889826 0.323585 0.814615 0.218538 0.889826 0.323585 0.789713 0.204879 0.789713 0.204879 0.889826 0.323585 0.839015 0.279629 0.623069 0.668279 0.639041 0.551063 0.62156 0.803376 0.62156 0.803376 0.639041 0.551063 0.644198 0.572172 0.62156 0.803376 0.644198 0.572172 0.637029 0.709006 0.637029 0.709006 0.644198 0.572172 0.647594 0.617867 0.637029 0.709006 0.647594 0.617867 0.649229 0.682434 0.639041 0.551063 0.623069 0.668279 0.634388 0.501396 0.634388 0.501396 0.623069 0.668279 0.614013 0.671507 0.614013 0.671507 0.623069 0.668279 0.615397 0.72788 0.634388 0.501396 0.614013 0.671507 0.628729 0.50065 0.628729 0.50065 0.614013 0.671507 0.613133 0.60694 0.715635 0.417457 0.770596 0.402557 0.690229 0.435337 0.770596 0.402557 0.715635 0.417457 0.73274 0.401315 0.715635 0.417457 0.690229 0.435337 0.660422 0.41547 0.715635 0.417457 0.660422 0.41547 0.73274 0.401315 0.660422 0.41547 0.690229 0.435337 0.630992 0.49171 0.73274 0.401315 0.660422 0.41547 0.672244 0.392375 0.672244 0.392375 0.660422 0.41547 0.617535 0.351896 0.672244 0.392375 0.617535 0.351896 0.657781 0.338734 0.50321 0.800643 0.520315 0.674488 0.510505 0.876635 0.510505 0.876635 0.520315 0.674488 0.522579 0.835163 0.997359 0.018625 1 0.150989 0.964156 0 0.964156 0 1 0.150989 0.968935 0.108027 0.964156 0 0.968935 0.108027 0.953088 0.054883 0.93963 0.41547 0.928311 0.360091 0.956484 0.259266 0.956484 0.259266 0.928311 0.360091 0.926551 0.332525 0.926551 0.332525 0.928311 0.360091 0.889826 0.35413 0.502833 0.278388 0.486106 0.502886 0.485351 0.319612 0.486106 0.502886 0.502833 0.278388 0.511889 0.332029 0.742424 0.71745 0.702681 0.654372 0.708592 0.604208 0.702681 0.654372 0.742424 0.71745 0.757517 0.811322 0.757517 0.811322 0.742424 0.71745 0.76871 0.796918 0.742424 0.71745 0.708592 0.604208 0.755756 0.679455 0.742424 0.71745 0.755756 0.679455 0.76871 0.796918 0.755756 0.679455 0.708592 0.604208 0.727961 0.499409 0.76871 0.796918 0.755756 0.679455 0.769968 0.566957 0.769968 0.566957 0.755756 0.679455 0.727961 0.499409 0.902081 0.076172 0.918194 0.135986 0.877167 0.099121 0.877167 0.099121 0.918194 0.135986 0.872953 0.189697 0.872953 0.189697 0.918194 0.135986 0.928234 0.287109 0.877167 0.099121 0.872953 0.189697 0.855476 0.154297 0.877167 0.099121 0.855476 0.154297 0.835644 0.073486 0.855476 0.154297 0.872953 0.189697 0.814697 0.212646 0.855476 0.154297 0.814697 0.212646 0.835644 0.073486 0.492555 0.874268 0.492555 0.653564 0.513874 0.727539 0.651333 0 0.651333 0.075928 0.558248 0.030029 0.916459 0.471436 0.919929 0.387451 0.929226 0.442383 0.916459 0.471436 0.929226 0.442383 0.930217 0.583008 0.743551 0.095703 0.732148 0.165039 0.638567 0.093018 0.504702 0.143799 0.493547 0.061523 0.593201 0.057617 0.504702 0.143799 0.593201 0.057617 0.529244 0.158691 0.999497 0.513564 0.994969 0.56497 0.987674 0.410752 0.987674 0.410752 0.994969 0.56497 0.987926 0.566461 0.514781 0.219779 0.51541 0.192959 0.522201 0.196684 0.514781 0.219779 0.522201 0.196684 0.5178 0.417457 0.650612 0.044701 0.750221 0.069783 0.712868 0.077482 0.750221 0.069783 0.650612 0.044701 0.731859 0.039237 0.533395 0.281367 0.52849 0.194945 0.5505 0.272179 0.533395 0.281367 0.5505 0.272179 0.547858 0.427391 0.533395 0.281367 0.547858 0.427391 0.523962 0.352889 0.927431 0.600483 0.9102 0.79816 0.913093 0.546842 0.9102 0.79816 0.927431 0.600483 0.926424 0.806356</float_array>
          <technique_common>
            <accessor source="#CrossbowString-mesh-map-0-array" count="600" stride="2">
              <param name="S" type="float"/>
              <param name="T" type="float"/>
            </accessor>
          </technique_common>
        </source>
        <vertices id="CrossbowString-mesh-vertices">
          <input semantic="POSITION" source="#CrossbowString-mesh-positions"/>
        </vertices>
        <polylist material="Material_-1-material" count="6">
          <input semantic="VERTEX" source="#CrossbowString-mesh-vertices" offset="0"/>
          <input semantic="NORMAL" source="#CrossbowString-mesh-normals" offset="1"/>
          <input semantic="TEXCOORD" source="#CrossbowString-mesh-map-0" offset="2" set="0"/>
          <vcount>3 3 3 3 3 3 3 3 3 3 3 3 3 3 3 3 3 3 3 3 3 3 3 3 3 3 3 3 3 3 3 3 3 3 3 3 3 3 3 3 3 3 3 3 3 3 3 3 3 3 3 3 3 3 3 3 3 3 3 3 3 3 3 3 3 3 3 3 3 3 3 3 3 3 3 3 3 3 3 3 3 3 3 3 3 3 3 3 3 3 3 3 3 3 3 3 3 3 3 3 3 3 3 3 3 3 3 3 3 3 3 3 3 3 3 3 3 3 3 3 3 3 3 3 3 3 3 3 3 3 3 3 3 3 3 3 3 3 3 3 3 3 3 3 3 3 3 3 3 3 3 3 3 3 3 3 3 3 3 3 3 3 3 3 3 3 3 3 3 3 3 3 3 3 3 3 3 3 3 3 3 3 3 3 3 3 3 3 3 3 3 3 3 3 3 3 3 3 3 3</vcount>
          <p>0 0 0 1 0 1 2 0 2 2 1 3 1 1 4 3 1 5 3 2 6 1 2 7 4 2 8 1 3 9 0 3 10 5 3 11 1 4 12 5 4 13 4 4 14 5 5 15 0 5 16 6 5 17 6 6 18 0 6 19 3 6 20 3 7 21 0 7 22 2 7 23 4 8 24 5 8 25 7 8 26 4 9 27 7 9 28 8 9 29 7 10 30 5 10 31 9 10 32 9 11 33 5 11 34 10 11 35 10 12 36 5 12 37 6 12 38 10 13 39 6 13 40 11 13 41 10 14 42 11 14 43 9 14 44 9 15 45 11 15 46 12 15 47 3 16 48 4 16 49 8 16 50 3 17 51 8 17 52 11 17 53 3 18 54 11 18 55 6 18 56 8 19 57 7 19 58 13 19 59 13 20 60 7 20 61 14 20 62 13 21 63 14 21 64 15 21 65 14 22 66 7 22 67 12 22 68 14 23 69 12 23 70 16 23 71 16 24 72 12 24 73 17 24 74 17 25 75 12 25 76 11 25 77 17 26 78 11 26 79 13 26 80 9 27 81 12 27 82 7 27 83 8 28 84 13 28 85 11 28 86 18 29 87 14 29 88 16 29 89 14 30 90 18 30 91 15 30 92 15 31 93 18 31 94 19 31 95 15 32 96 19 32 97 20 32 98 20 33 99 19 33 100 21 33 101 15 34 102 20 34 103 17 34 104 15 35 105 17 35 106 13 35 107 17 36 108 20 36 109 16 36 110 16 37 111 20 37 112 21 37 113 16 38 114 21 38 115 18 38 116 18 39 117 21 39 118 22 39 119 18 40 120 22 40 121 23 40 122 18 41 123 23 41 124 19 41 125 19 42 126 23 42 127 24 42 128 19 43 129 24 43 130 25 43 131 19 44 132 25 44 133 21 44 134 25 45 135 24 45 136 26 45 137 25 46 138 26 46 139 21 46 140 21 47 141 26 47 142 22 47 143 22 48 144 27 48 145 23 48 146 27 49 147 22 49 148 26 49 149 27 50 150 26 50 151 28 50 152 28 51 153 26 51 154 29 51 155 29 52 156 26 52 157 24 52 158 29 53 159 24 53 160 23 53 161 23 54 162 27 54 163 30 54 164 23 55 165 30 55 166 29 55 167 30 56 168 27 56 169 31 56 170 31 57 171 27 57 172 28 57 173 31 58 174 28 58 175 32 58 176 29 59 177 30 59 178 33 59 179 29 60 180 33 60 181 28 60 182 28 61 183 33 61 184 32 61 185 32 62 186 34 62 187 31 62 188 31 63 189 34 63 190 35 63 191 31 64 192 35 64 193 36 64 194 31 65 195 36 65 196 30 65 197 34 66 198 32 66 199 37 66 200 34 67 201 37 67 202 38 67 203 37 68 204 32 68 205 33 68 206 35 69 207 34 69 208 38 69 209 35 70 210 38 70 211 39 70 212 39 71 213 38 71 214 40 71 215 40 72 216 38 72 217 41 72 218 35 73 219 39 73 220 42 73 221 42 74 222 39 74 223 40 74 224 35 75 225 42 75 226 36 75 227 42 76 228 40 76 229 43 76 230 36 77 231 42 77 232 44 77 233 44 78 234 42 78 235 43 78 236 45 79 237 44 79 238 43 79 239 40 80 240 41 80 241 43 80 242 43 81 243 41 81 244 46 81 245 43 82 246 46 82 247 47 82 248 43 83 249 47 83 250 45 83 251 45 84 252 47 84 253 48 84 254 45 85 255 48 85 256 49 85 257 48 86 258 47 86 259 50 86 260 49 87 261 48 87 262 37 87 263 48 88 264 50 88 265 51 88 266 48 89 267 51 89 268 37 89 269 46 90 270 41 90 271 52 90 272 52 91 273 41 91 274 51 91 275 52 92 276 51 92 277 53 92 278 52 93 279 53 93 280 54 93 281 47 94 282 46 94 283 55 94 284 47 95 285 55 95 286 50 95 287 50 96 288 55 96 289 56 96 290 55 97 291 46 97 292 57 97 293 57 98 294 46 98 295 52 98 296 55 99 297 57 99 298 58 99 299 58 100 300 57 100 301 52 100 302 56 101 303 55 101 304 58 101 305 58 102 306 52 102 307 54 102 308 58 103 309 54 103 310 59 103 311 60 104 312 61 104 313 62 104 314 62 105 315 61 105 316 63 105 317 64 106 318 65 106 319 56 106 320 65 107 321 64 107 322 66 107 323 64 108 324 56 108 325 67 108 326 67 109 327 56 109 328 58 109 329 67 110 330 58 110 331 59 110 332 64 111 333 67 111 334 68 111 335 64 112 336 68 112 337 66 112 338 68 113 339 67 113 340 59 113 341 66 114 342 68 114 343 54 114 344 54 115 345 68 115 346 59 115 347 69 116 348 70 116 349 63 116 350 70 117 351 69 117 352 71 117 353 62 118 354 63 118 355 60 118 356 60 119 357 63 119 358 72 119 359 72 120 360 63 120 361 71 120 362 60 121 363 72 121 364 73 121 365 60 122 366 73 122 367 74 122 368 63 123 369 70 123 370 71 123 371 73 124 372 72 124 373 75 124 374 73 125 375 75 125 376 76 125 377 73 126 378 76 126 379 74 126 380 75 127 381 72 127 382 77 127 383 77 128 384 72 128 385 71 128 386 77 129 387 71 129 388 78 129 389 78 130 390 71 130 391 76 130 392 76 131 393 71 131 394 69 131 395 79 132 396 76 132 397 75 132 398 76 133 399 79 133 400 80 133 401 76 134 402 80 134 403 78 134 404 79 135 405 75 135 406 81 135 407 81 136 408 75 136 409 77 136 410 81 137 411 77 137 412 82 137 413 82 138 414 77 138 415 78 138 416 83 139 417 79 139 418 84 139 419 84 140 420 79 140 421 81 140 422 84 141 423 81 141 424 85 141 425 85 142 426 81 142 427 82 142 428 85 143 429 82 143 430 86 143 431 79 144 432 83 144 433 80 144 434 80 145 435 83 145 436 86 145 437 86 146 438 83 146 439 87 146 440 80 147 441 86 147 442 78 147 443 78 148 444 86 148 445 82 148 446 88 149 447 83 149 448 84 149 449 83 150 450 88 150 451 87 150 452 88 151 453 84 151 454 89 151 455 88 152 456 89 152 457 87 152 458 89 153 459 84 153 460 90 153 461 87 154 462 89 154 463 91 154 464 91 155 465 89 155 466 92 155 467 91 156 468 92 156 469 93 156 470 84 157 471 85 157 472 93 157 473 93 158 474 85 158 475 91 158 476 90 159 477 84 159 478 94 159 479 94 160 480 84 160 481 93 160 482 94 161 483 93 161 484 92 161 485 90 162 486 94 162 487 95 162 488 95 163 489 94 163 490 96 163 491 96 164 492 94 164 493 92 164 494 97 165 495 90 165 496 95 165 497 90 166 498 97 166 499 98 166 500 99 167 501 97 167 502 95 167 503 97 168 504 99 168 505 100 168 506 100 169 507 99 169 508 101 169 509 99 170 510 95 170 511 102 170 512 99 171 513 102 171 514 101 171 515 102 172 516 95 172 517 96 172 518 101 173 519 102 173 520 98 173 521 98 174 522 102 174 523 96 174 524 36 175 525 44 175 526 30 175 527 30 176 528 44 176 529 49 176 530 49 177 531 44 177 532 45 177 533 30 178 534 49 178 535 103 178 536 30 179 537 103 179 538 33 179 539 103 180 540 49 180 541 37 180 542 103 181 543 37 181 544 33 181 545 51 182 546 38 182 547 37 182 548 51 183 549 41 183 550 38 183 551 53 184 552 51 184 553 50 184 554 53 185 555 50 185 556 65 185 557 56 186 558 65 186 559 50 186 560 66 187 561 54 187 562 53 187 563 66 188 564 53 188 565 65 188 566 60 189 567 74 189 568 61 189 569 61 190 570 74 190 571 63 190 572 69 191 573 63 191 574 74 191 575 69 192 576 74 192 577 76 192 578 91 193 579 86 193 580 87 193 581 86 194 582 91 194 583 85 194 584 92 195 585 89 195 586 90 195 587 92 196 588 90 196 589 98 196 590 92 197 591 98 197 592 96 197 593 97 198 594 101 198 595 98 198 596 101 199 597 97 199 598 100 199 599</p>
        </polylist>
      </mesh>
    </geometry>
  </library_geometries>
  <library_visual_scenes>
    <visual_scene id="Scene" name="Scene">
      <node id="CrossbowBody" name="CrossbowBody" type="NODE">
        <scale sid="scale">1 1 1</scale>
        <translate sid="location">0.014536478468899494 0.03779839234449762 -0.11736842583732054</translate>
        <rotate sid="rotationX">1 0 0 0</rotate>
        <rotate sid="rotationY">0 1 0 90</rotate>
        <rotate sid="rotationZ">0 0 1 0</rotate>
        <instance_geometry url="#CrossbowBody-mesh" name="CrossbowBody">
          <bind_material>
            <technique_common>
            </technique_common>
          </bind_material>
        </instance_geometry>
      </node>
      <node id="CrossbowString" name="CrossbowString" type="NODE">
        <scale sid="scale">1 1 1</scale>
        <translate sid="location">0 0.10625 -0.08125</translate>
        <rotate sid="rotationX">1 0 0 -17.499999999999996</rotate>
        <rotate sid="rotationY">0 1 0 89.99999852122068</rotate>
        <rotate sid="rotationZ">0 0 1 0</rotate>
        <instance_geometry url="#CrossbowString-mesh" name="CrossbowString">
          <bind_material>
            <technique_common>
            </technique_common>
          </bind_material>
        </instance_geometry>
      </node>
    </visual_scene>
  </library_visual_scenes>
  <scene>
    <instance_visual_scene url="#Scene"/>
  </scene>
</COLLADA>
