<?xml version="1.0" encoding="utf-8"?>
<COLLADA xmlns="http://www.collada.org/2005/11/COLLADASchema" version="1.4.1" xmlns:xsi="http://www.w3.org/2001/XMLSchema-instance">
  <asset>
    <contributor>
      <author>Blockbench user</author>
      <authoring_tool>Blockbench</authoring_tool>
    </contributor>
    <created>2025-12-12T12:11:57.523Z</created>
    <modified>2025-12-12T12:11:57.532Z</modified>
    <unit name="meter" meter="1.0"/>
    <up_axis>Y_UP</up_axis>
  </asset>
  <library_effects>
  </library_effects>
  <library_images>
  </library_images>
  <library_materials>
  </library_materials>
  <library_geometries>
    <geometry id="Decoctions-mesh" name="Decoctions">
      <mesh>
        <source id="Decoctions-mesh-positions">
          <float_array id="Decoctions-mesh-positions-array" count="705">0.115623 0.153275 -0.163528 -0.28653 -0.080597 -0.283386 -0.388031 0.064972 -0.263153 -0.308746 0.01355 -0.320679 -0.277924 0.050747 -0.370819 -0.39328 -0.066925 -0.127167 -0.325653 0.233612 -0.385498 -0.393066 0.219894 -0.310181 -0.466919 0.23468 -0.190903 -0.373627 0.236206 -0.283966 -0.233047 0.235947 -0.4104 -0.356659 0.148376 -0.267181 -0.446289 0.235626 -0.144547 -0.124809 -0.209702 -0.212738 -0.098457 -0.162308 -0.299408 -0.277191 -0.148773 -0.179337 -0.315979 -0.156921 -0.061005 -0.408173 -0.071655 0.001166 -0.200562 -0.210236 -0.142288 -0.158676 -0.261505 -0.179657 -0.253815 -0.20813 0.00016 -0.237503 -0.261688 0.001584 -0.205627 0.089439 -0.428375 -0.164871 -0.066086 -0.378265 -0.066063 0.034389 -0.452026 0.023762 -0.068733 -0.409393 0.092659 0.078224 -0.463135 -0.190292 0.177536 -0.454407 -0.017351 0.134186 -0.481628 -0.149033 0.232132 -0.481689 -0.000139 0.220154 -0.5 0.083359 0.208008 -0.491333 0.126511 0.23735 -0.486847 -0.000067 0.237244 -0.470612 -0.090073 0.147522 -0.430695 -0.000116 0.147736 -0.442902 -0.187988 0.148193 -0.402252 -0.17691 0.144104 -0.295502 -0.000142 0.141708 -0.327606 -0.097107 0.144135 -0.270264 -0.000538 0.143936 -0.363922 0.062084 0.146133 -0.38974 -0.000006 -0.124146 -0.361694 0.000043 -0.212067 -0.248978 0.016542 -0.261688 -0.234177 -0.223541 0.141998 -0.205475 -0.183899 0.145065 -0.225006 -0.2854 0.144287 -0.184296 -0.237106 0.141541 -0.137131 -0.296906 0.143082 -0.082962 -0.082565 0.159912 -0.23233 -0.152679 0.148026 -0.200363 -0.097504 0.142227 -0.147339 -0.000342 0.147766 -0.140472 -0.001039 0.142639 -0.258057 -0.001212 0.145447 -0.233749 0.000993 0.149475 -0.209763 -0.326935 -0.153778 0.001131 -0.275696 -0.158127 0.163116 -0.373413 -0.072655 0.168182 -0.425964 -0.026386 0.073242 -0.458618 0.053104 -0.066544 -0.475677 0.104576 0.001351 -0.442444 0.084229 -0.16449 -0.5 0.228226 -0.000237 -0.471832 0.236862 0.001348 -0.177826 -0.261475 0.161377 -0.000131 -0.261688 0.001388 0.133026 -0.261688 0.193619 0.000002 -0.260834 0.239182 -0.076843 -0.260559 0.224991 0.000007 -0.211288 0.250031 -0.233658 -0.213943 0.086403 -0.142944 -0.210495 0.201981 -0.151443 -0.156677 0.287537 0.000303 -0.167221 0.310638 -0.292786 -0.071091 0.290253 -0.125046 -0.08252 0.38266 0.000232 -0.080971 0.402954 -0.431854 0.1436 -0.106277 -0.443604 0.147324 0.001009 -0.339233 0.141907 -0.00011 -0.23671 0.154831 -0.092667 -0.231644 0.145538 -0.053871 -0.334351 0.14389 0.085503 -0.206299 0.14357 0.24646 -0.099274 0.142853 0.171463 -0.418121 0.147949 0.153809 -0.355011 0.142883 0.267029 -0.246552 0.147797 0.36908 -0.423035 0.23616 0.208389 -0.326416 0.23378 0.336945 -0.461609 0.236191 0.205658 -0.357544 0.235275 0.353668 -0.362 0.176361 0.335938 -0.489716 0.213486 0.116196 -0.443573 0.166946 0.210785 -0.377869 0.079308 0.285217 -0.459351 0.076653 0.103813 -0.404968 0.037697 0.214905 -0.310791 0.145462 0.000873 -0.285431 0.145645 0.001251 -0.172577 0.147537 0.000897 -0.269135 0.149994 0.092484 -0.166504 0.148178 0.104279 -0.2659 0.184418 0.015368 -0.200653 0.156845 0.011762 -0.239273 0.212357 0.049953 -0.199554 0.165863 0.082611 -0.13179 0.146744 0.058628 0.000075 0.143921 0.000914 -0.182465 0.14238 -0.163452 -0.147202 0.14418 -0.132721 -0.139084 0.14241 -0.096039 -0.072693 0.147049 -0.058128 -0.000544 0.143204 -0.083916 -0.000858 0.147552 -0.117409 -0.240005 0.024048 0.385925 -0.097099 -0.022705 0.424408 -0.241165 0.193253 0.436005 -0.118202 0.111694 0.467621 0.00015 0.08976 0.475403 -0.147598 0.234879 0.483734 0.000136 0.23613 0.499664 0.000177 0.234009 0.470215 -0.225983 0.235168 0.410339 -0.151886 0.237122 0.446777 -0.110916 0.147446 0.431549 -0.030874 0.145203 0.396179 0.002414 0.145126 0.389069 -0.169296 0.145081 0.320953 -0.140808 0.142212 0.292236 -0.043056 0.142075 0.310669 0.000256 0.142624 0.296204 -0.033627 0.148346 0.188644 0.000282 0.143158 0.19812 0.150146 0.143875 0.329529 0.140305 0.146469 0.158554 0.249329 0.148621 0.258667 0.110054 0.144104 0.26474 0.127853 0.169968 0.173325 0.045948 0.173294 0.218933 0.109375 0.167435 0.23616 0.051807 0.164154 0.159088 0.055885 0.145493 0.141388 -0.000233 0.15004 0.331482 0.056576 0.146301 0.388092 0.105186 0.148056 0.434296 0.364532 0.147293 0.256805 0.240997 0.143677 0.372253 0.237 0.236313 0.407288 0.000143 0.145706 0.442596 0.2659 0.234421 0.429596 0.389221 0.235916 0.319946 0.166565 0.218246 0.476074 0.203262 0.147781 0.445496 0.076263 0.029228 0.451233 0.2052 0.07428 0.425964 0.15509 -0.048077 0.391052 0.160019 -0.06123 -0.384003 0.148651 -0.160736 -0.281036 0.251953 -0.070335 -0.323456 0.293152 -0.065132 -0.291901 0.112099 -0.216354 -0.221085 0.218658 -0.209167 -0.123604 0.220535 -0.261536 -0.095398 0.243195 0.103203 -0.411102 0.345612 0.080467 -0.321014 0.376251 0.216171 -0.331879 0.231903 0.233459 -0.450226 0.463562 0.236938 -0.20163 0.290894 0.23497 -0.366547 0.152557 0.236267 -0.445709 0.228119 0.144058 -0.37912 0.112984 0.147186 -0.429321 0.359558 0.148117 -0.261536 0.180328 0.144928 -0.308746 0.214981 0.142334 -0.238388 0.331299 -0.11972 -0.164459 0.392426 -0.064819 -0.134674 0.326294 -0.14444 -0.082809 0.248703 -0.21106 0.001071 0.379059 -0.106361 0.002005 0.406769 -0.071236 0.060684 0.218979 -0.261566 0.087555 0.421173 0.101845 -0.224884 0.455658 0.077705 -0.119026 0.463348 0.207275 -0.189697 0.491486 0.214722 -0.09211 0.46637 0.0555 0.001158 0.5 0.231735 0.000923 0.482178 0.171417 0.093452 0.467255 0.237213 0.001004 0.457336 0.236389 -0.098717 0.446808 0.151764 0.00118 0.420074 0.146057 -0.141281 0.372589 0.147018 0.001279 0.331146 0.146454 0.000789 0.366394 0.151962 0.074699 0.368591 0.147171 -0.13649 0.257751 0.142334 -0.149185 0.286194 0.148468 0.00061 0.132538 0.142899 0.00044 0.259338 0.145355 0.000767 0.181656 0.14772 0.055706 0.160278 0.14859 -0.362701 0.081131 0.143738 -0.302155 0.156372 0.145432 -0.176773 0.083382 0.161041 -0.244614 0.100304 0.194077 -0.206604 0.057816 0.236145 -0.192169 0.046673 0.205414 -0.196945 0.063721 0.148773 -0.143539 0.056561 0.194244 -0.154282 0.09816 0.149536 -0.097107 0.26001 0.151855 0.132004 0.342743 0.145905 0.17926 0.419342 0.146362 0.139664 0.276886 0.156082 0.106033 0.438446 0.236389 0.175674 0.472412 0.233261 0.178711 0.405853 0.235107 -0.234329 0.215012 -0.210419 0.130646 0.302277 -0.157837 0.110359 0.376617 -0.065071 0.170639 0.244476 -0.148239 0.22699 0.107239 -0.208389 0.226074 0.270966 -0.068748 0.312744 0.114769 -0.156708 0.302277 0.163055 -0.079948 0.371216 0.343353 0.235352 0.318268 0.448273 0.167343 0.200821 0.348633 0.170975 0.348633 0.424988 0.073563 0.20575 0.336731 0.024519 0.306854</float_array>
          <technique_common>
            <accessor source="#Decoctions-mesh-positions-array" count="235" stride="3">
              <param name="X" type="float"/>
              <param name="Y" type="float"/>
              <param name="Z" type="float"/>
            </accessor>
          </technique_common>
        </source>
        <source id="Decoctions-mesh-normals">
          <float_array id="Decoctions-mesh-normals-array" count="1398">-0.693941 -0.400716 -0.598225 -0.607236 -0.412316 -0.679161 -0.683362 -0.318976 -0.656712 -0.751941 -0.458465 -0.473704 -0.694816 -0.235889 -0.679402 -0.704777 -0.226943 -0.67215 -0.846187 -0.17978 -0.501645 -0.652805 0.588379 -0.477132 -0.078748 0.994925 -0.062627 -0.036696 0.998408 -0.042847 0.645647 0.261824 0.717348 0.857884 0.251382 0.448155 -0.375496 -0.760359 -0.529959 -0.414548 -0.777794 -0.472426 -0.640956 -0.667141 -0.379601 -0.631398 -0.731516 -0.257336 -0.713372 -0.692365 -0.108305 -0.414828 -0.78967 -0.452039 -0.537842 -0.810465 -0.232105 -0.680754 -0.022503 -0.732167 -0.514035 -0.83872 -0.179768 -0.834286 -0.459216 -0.305102 -0.880661 -0.278412 -0.383306 -0.444245 -0.378109 -0.812207 -0.292728 -0.36188 -0.885072 -0.148945 -0.485812 -0.86128 0.03325 -0.356976 -0.933521 -0.569705 -0.140126 -0.809815 -0.251378 -0.233779 -0.939232 -0.509059 -0.200068 -0.837157 0.013193 -0.290264 -0.956856 -0.198603 -0.188354 -0.961811 -0.477376 -0.076658 -0.875349 -0.220745 -0.297356 -0.928898 0.068726 -0.221634 -0.972705 -0.134392 -0.181288 -0.974204 -0.026614 0.723578 -0.68973 -0.02173 0.98639 -0.162982 -0.057457 0.991019 -0.120747 -0.027779 0.995905 -0.086033 0.245301 0.177901 0.952984 0.127869 0.293242 0.947448 0.273106 0.227029 0.934811 0.581894 0.366208 0.726148 0.029291 0.99895 0.035225 0.017439 0.999183 0.036463 0.020523 0.99905 0.038441 0.008465 0.999572 -0.027993 -0.005738 0.998103 0.061297 0.004148 0.998835 0.04808 -0.015261 0.998732 0.047971 -0.514611 -0.451506 -0.728916 -0.365638 -0.727825 -0.580155 -0.17382 -0.693207 -0.699465 -0.137143 -0.611776 -0.779052 -0.083163 -0.78578 -0.61289 -0.16438 -0.843557 -0.511264 -0.263391 -0.390982 -0.881906 -0.277729 -0.358224 -0.891371 0.029856 0.9988 0.038829 -0.088036 0.995868 -0.022304 0.041598 0.999043 0.013523 0.042116 0.999 0.015039 0.038437 0.999129 0.016245 0.133689 0.895822 -0.423828 -0.146895 0.988755 -0.028042 -0.140518 0.988302 0.05927 -0.079423 0.97863 0.189674 0.744733 -0.667315 -0.007953 -0.057987 0.9982 0.015306 0.021104 0.998823 -0.043676 0.017241 0.999765 -0.013161 -0.983853 -0.178461 0.013613 -0.866017 0.499996 -0.004353 -0.708098 -0.700429 -0.089424 -0.595874 -0.800478 -0.064576 -0.587041 -0.792686 0.16441 -0.641856 -0.744659 0.183039 -0.703664 -0.696142 0.142281 -0.801566 -0.575151 0.163381 -0.927998 -0.372553 0.004926 -0.938972 -0.343139 0.024216 -0.841985 -0.370658 -0.392013 -0.897067 -0.356314 -0.261363 -0.89613 -0.42733 -0.119746 -0.966719 -0.149953 -0.207288 -0.871879 -0.218756 -0.438148 -0.966656 -0.187814 -0.174075 -0.292131 0.956203 -0.018318 -0.019242 0.999745 -0.011839 -0.025417 0.999636 -0.009088 0.002898 -0.999996 0.000251 -0.001179 -0.999999 0.000022 -0.000738 -1 0.000511 -0.002018 -0.999915 0.01285 -0.008821 -0.999558 0.028396 -0.178261 -0.210457 0.961213 -0.821585 -0.480061 0.307473 -0.938667 -0.280557 0.200478 -0.50694 -0.297494 0.809017 -0.3185 0.015096 0.947803 -0.786437 0.047612 0.615833 -0.70801 -0.69618 0.118554 -0.432032 -0.825266 0.36371 -0.176582 -0.840968 0.51146 -0.438444 -0.779751 0.446939 -0.144248 -0.800011 0.582388 -0.453049 -0.762839 0.461328 -0.591651 -0.700106 0.399751 -0.393045 -0.669119 0.63071 -0.149183 -0.759334 0.633369 -0.101029 -0.727006 0.679158 -0.001068 -0.999999 -0.000076 0.859132 0.305499 0.410564 0.975744 0.194683 0.100106 -0.176867 0.982781 -0.053484 0.052043 0.998428 0.020788 0.01742 0.999582 0.023075 -0.20486 0.974567 -0.090837 0.078402 0.971767 0.222534 -0.226902 0.93368 -0.27705 0.040691 0.999036 0.0165 0.94126 0.29613 0.162285 0.051535 0.998331 -0.026062 0.005196 0.999984 -0.002146 0.030351 0.999294 -0.02216 0.039684 0.999155 -0.010705 0.941538 0.297431 -0.15824 -0.178921 0.973374 0.143286 0.832317 0.324445 -0.449425 0.955342 0.192134 -0.224511 0.784428 0.203799 -0.585781 0.000573 0.999995 0.003256 -0.000535 0.999821 0.018912 0.03724 0.999106 -0.02 -0.293993 0.955641 0.017849 -0.813364 -0.110378 0.571188 -0.976162 -0.193287 -0.098733 -0.851487 0.50556 0.13921 -0.979447 -0.191866 0.062221 -0.819148 -0.172866 0.546914 -0.915338 -0.213117 0.341667 -0.822804 -0.151701 0.547705 -0.97014 -0.223757 0.093601 -0.914287 -0.232885 0.331428 -0.943931 -0.324261 0.062036 -0.850191 -0.238987 0.469107 -0.90043 -0.257777 0.350395 -0.87821 -0.373277 0.299017 -0.724168 -0.433992 0.535941 -0.875747 -0.377718 0.300661 -0.007084 0.999936 -0.008853 -0.116588 0.979005 -0.1672 -0.123468 0.992221 -0.015942 -0.007461 0.999836 0.016495 -0.016817 0.99969 -0.018351 -0.08981 0.995463 -0.031411 -0.12448 0.927833 0.351612 0.009677 0.997543 0.069381 -0.903853 0.403517 0.142211 -0.014522 0.740495 -0.671905 0.077123 0.306573 -0.948718 -0.821997 0.532071 0.20303 0.238374 0.657544 -0.714712 -0.012612 0.567504 0.823274 -0.066526 0.720891 0.689848 0.787536 0.609688 -0.08982 0.5264 0.842371 -0.115386 0.109923 0.992557 0.052409 0.252218 0.953483 -0.165095 0.020939 0.99978 -0.001061 -0.055103 0.997475 0.044794 -0.013415 0.999902 0.004023 -0.090438 0.994862 0.045503 -0.147285 0.986752 0.068031 0.054562 0.997141 0.052278 -0.114275 0.990756 0.073096 -0.011884 0.999903 0.007202 0.050123 0.998055 0.037066 -0.053544 0.997461 -0.046957 0.111249 0.951898 -0.285507 0.130564 0.967893 0.214795 -0.010185 0.999623 -0.025501 -0.012148 0.994867 -0.100464 0.020929 0.999412 0.027154 0.005826 0.991299 -0.131503 0.050076 0.998707 -0.008807 -0.012743 0.996685 0.080351 -0.966741 -0.254628 -0.023992 -0.757936 -0.411837 0.505888 -0.639751 -0.338817 0.689871 -0.443494 -0.501179 0.743057 -0.636413 -0.27297 0.721433 -0.360635 -0.414628 0.83548 -0.129651 -0.526058 0.840508 -0.601313 -0.23055 0.765029 -0.611271 -0.18532 0.769418 -0.345838 -0.335985 0.876076 -0.399973 -0.262633 0.878092 -0.121258 -0.321041 0.939271 -0.370024 -0.206771 0.90572 -0.515308 0.203862 0.832405 -0.104652 -0.1535 0.982591 -0.0007 0.997416 -0.071838 -0.001635 0.999983 0.005684 0.021793 0.998575 -0.048706 0.011299 0.998178 0.059271 -0.059378 0.995962 0.067336 0.152801 0.2329 -0.960421 0.571116 0.236717 -0.785997 0.413378 0.307425 -0.857093 0.396074 0.326676 -0.858142 0.638052 0.333211 -0.694161 0.01556 0.999482 -0.02817 -0.021598 0.993487 -0.111879 0.0159 0.999397 -0.030877 0.023775 0.999551 -0.018243 0.037691 0.998529 -0.038976 0.053348 0.997482 -0.046732 0.034609 0.997265 -0.0653 0.008522 0.99925 -0.037767 -0.003677 0.999631 0.02693 0.06271 0.997898 0.01634 0.032386 0.99916 0.025122 -0.073776 0.996598 -0.036735 0.150235 0.988643 0.003667 -0.10538 0.990715 0.0859 -0.00304 0.999986 0.004262 0.013724 0.999856 0.010027 0.149755 0.988708 0.005423 -0.009555 0.99994 0.005441 -0.035522 0.999221 0.017205 -0.020727 0.999651 0.01636 -0.017232 0.999751 0.014197 0.910858 0.315136 0.26651 -0.510148 0.194409 0.837827 -0.100191 0.769591 0.630628 0.88939 0.364258 0.276228 0.075044 0.995239 0.062188 -0.484102 0.856667 -0.178232 -0.046378 0.986786 -0.15525 -0.648948 0.444126 -0.617754 0.080587 0.695154 -0.71433 0.155354 0.583412 -0.79718 -0.037978 0.999271 0.003906 -0.010101 0.999923 -0.007177 -0.023742 0.999168 -0.033168 -0.517974 0.835626 -0.182842 0.020263 0.996253 0.084081 0.979733 0.198324 -0.02811 -0.022158 0.999406 -0.026411 0.000637 0.999184 -0.040374 -0.023655 0.992811 -0.117328 0.001298 0.999226 -0.03932 -0.00237 0.999368 -0.035466 -0.034431 0.997914 -0.0546 0.089958 0.987789 0.127199 -0.386506 0.31162 -0.868048 -0.00541 0.978021 0.208438 0.099121 0.29701 -0.949716 -0.081816 0.297542 -0.951197 -0.256596 0.088711 -0.962439 0.009502 0.997339 0.072277 0.029366 0.99848 0.046641 -0.012529 0.997337 -0.071848 0.170642 0.758668 0.628732 0.439282 -0.155203 0.884841 0.121361 -0.1623 0.97925 0.219914 -0.289698 0.931511 -0.094746 -0.162793 0.982101 0.186574 -0.152903 0.970469 0.267044 -0.240915 0.933085 0.302505 -0.374033 0.876692 -0.018345 -0.390572 0.920389 -0.03093 -0.390456 0.920102 0.169889 -0.683746 -0.709668 0.18808 -0.71655 -0.6717 0.347286 -0.6932 -0.631558 0.459803 -0.749158 -0.476805 0.138316 -0.780886 -0.609168 0.127932 -0.76476 -0.631487 0.455121 -0.773867 -0.440449 0.2288 -0.207612 -0.951077 0.408566 -0.687976 -0.599802 0.188728 -0.414115 -0.890444 0.058346 -0.207959 -0.976396 0.356669 -0.324776 -0.875961 0.483695 -0.375001 -0.790831 0.347481 -0.175241 -0.921166 0.57543 -0.345379 -0.741346 0.595772 -0.358379 -0.718763 0.621468 -0.200941 -0.757232 0.297865 -0.250831 -0.921065 0.610929 -0.178694 -0.771255 0.440688 0.792413 -0.421754 0.302298 -0.306587 -0.902563 0.017893 0.99937 -0.03066 0.057017 0.996676 -0.058192 -0.008917 0.999449 0.031957 -0.483366 0.216455 0.848236 -0.370594 0.324717 0.870183 -0.632671 0.34068 0.695459 0.081439 0.988787 -0.125168 -0.026621 0.999081 0.033578 -0.031545 0.998131 0.052336 0.000711 -1 0.00005 0.646366 -0.343737 -0.681217 0.454907 -0.77402 -0.440401 0.464762 -0.755029 -0.462523 0.708483 -0.546727 -0.446252 0.560805 -0.801335 -0.208232 0.702534 -0.691919 -0.166418 0.549675 -0.822706 -0.144956 0.715843 -0.684482 -0.138032 0.625884 -0.778906 -0.039673 0.842819 -0.532313 -0.079364 0.967758 -0.091674 -0.234609 0.867212 -0.497885 0.007294 0.000619 -1 -0.000159 0.775856 -0.39855 -0.489086 0.766461 -0.379738 -0.518012 0.866514 -0.344811 -0.360913 0.789801 -0.224035 -0.570984 0.904086 -0.244738 -0.350331 0.837185 -0.16039 -0.522873 0.945973 -0.196726 -0.257747 0.826712 -0.215105 -0.519881 0.956839 -0.114379 -0.267164 0.887015 -0.454746 -0.080061 0.909483 -0.386755 -0.152518 0.965376 -0.22728 -0.128036 0.980747 -0.187225 -0.055516 0.98009 -0.186936 0.066915 0.909793 0.385531 -0.153763 0.164988 0.986286 -0.004345 -0.084698 0.996407 0.000191 -0.968158 0.231864 0.094384 -0.936779 0.309429 0.163399 -0.063828 0.997568 -0.027985 -0.013474 0.999846 -0.011228 -0.012769 0.997586 -0.068253 0.022693 0.999677 0.011411 -0.042857 0.99906 -0.006472 0.0449 0.99777 -0.049384 -0.036161 0.998766 -0.034033 0.002869 0.999995 -0.001375 -0.004253 0.086932 0.996205 -0.113918 0.972542 -0.202942 0.103272 0.000192 -0.994653 -0.11496 0.228899 0.966638 -0.152177 0.292366 0.944121 0.002348 0.999689 0.024831 0.001445 0.999594 0.028451 -0.023881 0.999706 -0.004115 0.251079 -0.954965 -0.158117 -0.048458 0.995155 0.08555 -0.01003 0.999514 0.029513 -0.021834 0.999247 0.032073 -0.044213 0.997118 0.061656 -0.020696 0.999693 -0.013649 -0.074942 0.990539 -0.114958 -0.012398 0.999905 -0.006069 0.060252 0.998158 0.007125 0.154591 0.982271 -0.106041 0.722763 0.653515 -0.224791 -0.245075 0.931038 -0.270383 0.926758 -0.045702 -0.37287 0.718765 0.614066 0.326037 0.037875 0.745813 -0.665078 -0.132793 0.199049 -0.970951 -0.108338 0.981965 -0.154943 -0.014546 0.999597 0.024374 -0.015289 0.999843 0.008935 -0.396 0.499876 -0.770265 -0.767981 0.553164 0.322824 -0.724911 0.048201 0.687154 -0.914003 0.286822 0.286934 0.499159 0.572882 0.650112 0.326321 0.265706 0.907146 0.337268 0.198072 0.920336 -0.019653 0.999805 -0.001853 0.023806 0.999136 -0.034076 -0.046302 0.99056 0.129027 0.109666 0.993547 0.028951 -0.052314 0.99491 0.08613 0.078794 0.996581 0.024842 0.007684 0.999934 -0.008508 -0.019138 0.997364 -0.069994 -0.076762 0.996873 -0.018737 0.007631 0.999708 -0.022947 -0.046386 0.998902 -0.0065 -0.040039 0.998953 0.022129 0.054593 0.998055 0.030086 -0.023158 0.99927 -0.030374 0.03094 0.996971 0.071361 -0.384099 0.917838 -0.100202 0.025428 0.983942 0.176668 0.044925 0.996672 -0.068016 0.017028 0.996456 -0.08238 0.059143 0.997534 0.037785 0.168049 0.9844 -0.052109 -0.063759 0.99762 0.02627 -0.946001 0.271555 -0.177031 -0.960504 0.229514 -0.157337 0.164993 0.98578 0.031863 0.091206 0.995816 0.005605 0.986555 -0.05592 0.153567 -0.037116 0.999152 0.017796 -0.04483 0.998936 0.010796 0.022187 0.999736 0.00596 -0.84555 0.315221 0.430907 -0.740583 0.192802 0.643712 -0.913819 0.21444 0.34489 -0.061182 0.996763 0.052163 -0.03358 0.999431 0.0033 0.000765 -1 -0.00053 0.703399 -0.425275 0.569537 0.958635 -0.136212 0.24993 0.534999 -0.832624 0.143225 0.624225 -0.777844 0.072807 0.667518 -0.734156 0.12424 0.683078 -0.694417 0.226249 0.542252 -0.771736 0.332243 0.60186 -0.714334 0.35706 0.360934 -0.829977 0.425282 0.605126 -0.66834 0.432601 0.296422 -0.38799 0.872695 0.655393 -0.135374 0.743057 0.218606 -0.208748 0.953224 0.144217 -0.825528 0.545624 0.116439 -0.803574 0.583705 0.344007 -0.792548 0.503514 0.116184 -0.725713 0.678116 0.373754 -0.738782 0.560811 0.139261 -0.708732 0.691596 0.169612 -0.491304 0.854314 0.38096 -0.733789 0.562515 0.173385 -0.488802 0.854992 0.471056 -0.378248 0.79689 0.458453 -0.41238 0.787251 0.011184 0.999716 -0.021037 0.012854 0.996322 0.084721 -0.013286 0.999811 -0.014163 -0.85051 0.340741 -0.40066 -0.818503 0.183197 -0.54451 -0.597588 0.357282 -0.717801 -0.666837 0.23827 -0.706085 -0.011399 0.999637 -0.02441 -0.012262 0.999924 -0.000905 0.08868 0.995496 0.033521 0.851642 -0.142711 0.504321 0.927277 -0.244463 0.28354 0.798091 -0.258349 0.544341 0.662618 -0.085451 0.744067 0.814686 -0.173193 0.553435 0.785605 -0.227933 0.575214 0.590046 -0.265461 0.76248 0.778398 -0.395138 0.487814 0.713869 -0.470619 0.518564 0.918773 -0.331064 0.215065 0.887734 -0.376744 0.264559 0.950976 -0.224968 0.212212 0.900719 -0.339055 0.271564 0.555492 -0.34388 0.757083 0.565203 -0.197916 0.800859 0.563649 -0.263854 0.782739</float_array>
          <technique_common>
            <accessor source="#Decoctions-mesh-normals-array" count="466" stride="3">
              <param name="X" type="float"/>
              <param name="Y" type="float"/>
              <param name="Z" type="float"/>
            </accessor>
          </technique_common>
        </source>
        <source id="Decoctions-mesh-map-0">
          <float_array id="Decoctions-mesh-map-0-array" count="2796">0.503662 0.364014 0.442139 0.42627 0.454102 0.375488 0.503662 0.364014 0.454102 0.375488 0.427734 0.355957 0.427734 0.355957 0.454102 0.375488 0.442139 0.42627 0.442139 0.42627 0.503662 0.364014 0.544678 0.466553 0.427734 0.355957 0.442139 0.42627 0.314697 0.415283 0.314697 0.415283 0.442139 0.42627 0.344971 0.462646 0.344971 0.462646 0.442139 0.42627 0.364014 0.543945 0.344971 0.462646 0.364014 0.543945 0.314697 0.415283 0.314697 0.415283 0.364014 0.543945 0.321777 0.483887 0.314697 0.415283 0.321777 0.483887 0.28125 0.361572 0.28125 0.361572 0.321777 0.483887 0.272461 0.463135 0.272461 0.463135 0.321777 0.483887 0.236328 0.522217 0.05249 0.11084 0.143555 0.136719 0.056396 0.155029 0.143555 0.136719 0.05249 0.11084 0.121338 0.087402 0.143555 0.136719 0.121338 0.087402 0.182617 0.064209 0.182617 0.064209 0.121338 0.087402 0.129883 0.03418 0.182617 0.064209 0.129883 0.03418 0.186279 0.008301 0.121338 0.087402 0.05249 0.11084 0.077881 0.07373 0.121338 0.087402 0.077881 0.07373 0.129883 0.03418 0.077881 0.07373 0.05249 0.11084 0.045654 0.081055 0.129883 0.03418 0.077881 0.07373 0.109619 0.015869 0.109619 0.015869 0.077881 0.07373 0.045654 0.081055 0.109619 0.015869 0.045654 0.081055 0.087158 0.006104 0.72583 0.30957 0.782227 0.294189 0.749268 0.337646 0.782227 0.294189 0.72583 0.30957 0.742432 0.257568 0.782227 0.294189 0.742432 0.257568 0.782715 0.217041 0.782715 0.217041 0.742432 0.257568 0.722412 0.208496 0.72583 0.30957 0.749268 0.337646 0.69165 0.307617 0.72583 0.30957 0.69165 0.307617 0.742432 0.257568 0.69165 0.307617 0.749268 0.337646 0.680908 0.368896 0.722412 0.208496 0.742432 0.257568 0.69165 0.240723 0.69165 0.240723 0.742432 0.257568 0.69165 0.307617 0.69165 0.307617 0.680908 0.368896 0.655518 0.296631 0.69165 0.307617 0.655518 0.296631 0.69165 0.240723 0.637939 0.245361 0.660156 0.213867 0.69165 0.240723 0.637939 0.245361 0.69165 0.240723 0.655518 0.296631 0.637939 0.245361 0.655518 0.296631 0.605713 0.215332 0.605713 0.215332 0.655518 0.296631 0.614746 0.252686 0.655518 0.296631 0.680908 0.368896 0.651611 0.339844 0.655518 0.296631 0.651611 0.339844 0.614746 0.252686 0.614746 0.252686 0.651611 0.339844 0.593994 0.311279 0.614746 0.252686 0.593994 0.311279 0.572021 0.287354 0.593994 0.311279 0.651611 0.339844 0.606934 0.346924 0.606934 0.346924 0.651611 0.339844 0.61499 0.411133 0.606934 0.346924 0.61499 0.411133 0.572754 0.378174 0.606934 0.346924 0.572754 0.378174 0.593994 0.311279 0.593994 0.311279 0.572754 0.378174 0.543701 0.312988 0.543701 0.312988 0.572754 0.378174 0.543213 0.365723 0.593994 0.311279 0.543701 0.312988 0.549316 0.305176 0.593994 0.311279 0.549316 0.305176 0.572021 0.287354 0.572021 0.287354 0.549316 0.305176 0.541504 0.290039 0.843994 0.479736 0.929688 0.443359 0.914307 0.538086 0.843994 0.479736 0.914307 0.538086 0.858887 0.600098 0.858887 0.600098 0.914307 0.538086 0.918213 0.641602 0.918213 0.641602 0.914307 0.538086 0.963623 0.639648 0.858887 0.600098 0.918213 0.641602 0.838379 0.668701 0.858887 0.600098 0.838379 0.668701 0.798828 0.603027 0.798828 0.603027 0.838379 0.668701 0.757568 0.599854 0.757568 0.599854 0.838379 0.668701 0.815674 0.691162 0.002197 0.814209 0.060303 0.760986 0.098877 0.799561 0.098877 0.799561 0.060303 0.760986 0.083984 0.764404 0.060303 0.760986 0.002197 0.814209 0.025146 0.760254 0.060303 0.760986 0.025146 0.760254 0.042236 0.728271 0.025146 0.760254 0.002197 0.814209 0.00293 0.710205 0.160645 0.415039 0.176758 0.381348 0.222656 0.42749 0.160645 0.415039 0.222656 0.42749 0.184082 0.472412 0.160645 0.415039 0.184082 0.472412 0.145996 0.466553 0.160645 0.415039 0.145996 0.466553 0.088379 0.432617 0.160645 0.415039 0.088379 0.432617 0.176758 0.381348 0.176758 0.381348 0.088379 0.432617 0.048584 0.329834 0.176758 0.381348 0.048584 0.329834 0.142822 0.299561 0.176758 0.381348 0.142822 0.299561 0.183594 0.296875 0.142822 0.299561 0.048584 0.329834 0.122803 0.303711 0.122803 0.303711 0.048584 0.329834 0.101807 0.308594 0.17041 0.753906 0.145508 0.80127 0.134521 0.779785 0.134521 0.779785 0.145508 0.80127 0.106934 0.801025 0.134521 0.779785 0.106934 0.801025 0.08374 0.739502 0.134521 0.779785 0.08374 0.739502 0.124756 0.70752 0.134521 0.779785 0.124756 0.70752 0.17041 0.753906 0.17041 0.753906 0.124756 0.70752 0.167725 0.720947 0.17041 0.753906 0.167725 0.720947 0.226562 0.742188 0.226562 0.742188 0.167725 0.720947 0.226562 0.708984 0.187744 0.595215 0.253662 0.612793 0.172363 0.691406 0.187744 0.595215 0.172363 0.691406 0.128418 0.61377 0.128418 0.61377 0.172363 0.691406 0.095215 0.697266 0.187744 0.595215 0.128418 0.61377 0.087891 0.504639 0.253662 0.612793 0.187744 0.595215 0.203369 0.50415 0.203369 0.50415 0.187744 0.595215 0.087891 0.504639 0.203369 0.50415 0.087891 0.504639 0.089844 0.487061 0.203369 0.50415 0.089844 0.487061 0.178223 0.487305 0.203369 0.50415 0.178223 0.487305 0.267822 0.458984 0.510498 0 0.428223 0.069824 0.451904 0.021484 0.428223 0.069824 0.510498 0 0.503662 0.075928 0.428223 0.069824 0.503662 0.075928 0.488525 0.148193 0.428223 0.069824 0.488525 0.148193 0.448975 0.127686 0.428223 0.069824 0.448975 0.127686 0.415527 0.105469 0.415527 0.105469 0.448975 0.127686 0.393066 0.125244 0.451904 0.021484 0.428223 0.069824 0.425293 0.036865 0.451904 0.021484 0.425293 0.036865 0.437256 0.011475 0.428223 0.069824 0.415527 0.105469 0.406982 0.07959 0.406982 0.07959 0.415527 0.105469 0.393066 0.125244 0.428223 0.069824 0.406982 0.07959 0.425293 0.036865 0.437256 0.011475 0.425293 0.036865 0.392578 0.035156 0.392578 0.035156 0.425293 0.036865 0.406982 0.07959 0.406982 0.07959 0.393066 0.125244 0.375977 0.088379 0.406982 0.07959 0.375977 0.088379 0.392578 0.035156 0.375977 0.088379 0.393066 0.125244 0.374268 0.136963 0.392578 0.035156 0.375977 0.088379 0.344727 0.046387 0.392578 0.035156 0.344727 0.046387 0.364746 0.004883 0.344727 0.046387 0.375977 0.088379 0.341797 0.107178 0.341797 0.107178 0.375977 0.088379 0.374268 0.136963 0.341797 0.107178 0.374268 0.136963 0.341064 0.147217 0.995605 0.395508 0.919922 0.419922 0.925781 0.317627 0.035156 0.894043 0.118896 0.959229 0.014648 0.950684 0.035156 0.894043 0.014648 0.950684 0.000244 0.839844 0.035156 0.894043 0.000244 0.839844 0.118896 0.959229 0.118896 0.959229 0.000244 0.839844 0.056152 0.812256 0.118896 0.959229 0.056152 0.812256 0.101074 0.844971 0.101074 0.844971 0.056152 0.812256 0.13623 0.833252 0.13623 0.833252 0.056152 0.812256 0.12793 0.810791 0.101074 0.844971 0.13623 0.833252 0.147217 0.858887 0.101074 0.844971 0.147217 0.858887 0.133301 0.896729 0.841309 0.905762 0.856934 0.873291 0.884766 0.911377 0.839844 0.824707 0.869385 0.842285 0.856934 0.873291 0.844482 0.774902 0.882568 0.754639 0.839844 0.824707 0.844482 0.774902 0.839844 0.824707 0.804443 0.841553 0.804443 0.841553 0.839844 0.824707 0.856934 0.873291 0.804443 0.841553 0.856934 0.873291 0.841309 0.905762 0.75415 0.828613 0.724609 0.797852 0.804443 0.841553 0.75415 0.828613 0.804443 0.841553 0.773193 0.868652 0.773193 0.868652 0.804443 0.841553 0.841309 0.905762 0.75415 0.828613 0.773193 0.868652 0.715576 0.852051 0.773193 0.868652 0.841309 0.905762 0.772217 0.884277 0.773193 0.868652 0.772217 0.884277 0.715576 0.852051 0.715576 0.852051 0.772217 0.884277 0.709473 0.865234 0.772217 0.884277 0.841309 0.905762 0.839355 0.918213 0.709473 0.865234 0.772217 0.884277 0.708496 0.887207 0.821533 0.965576 0.839355 0.918213 0.837891 0.987793 0.772217 0.884277 0.839355 0.918213 0.798584 0.907471 0.798584 0.907471 0.839355 0.918213 0.821533 0.965576 0.708496 0.887207 0.772217 0.884277 0.756592 0.906738 0.756592 0.906738 0.772217 0.884277 0.798584 0.907471 0.708496 0.887207 0.756592 0.906738 0.713867 0.925049 0.798584 0.907471 0.821533 0.965576 0.779541 0.957764 0.798584 0.907471 0.779541 0.957764 0.756592 0.906738 0.779541 0.957764 0.821533 0.965576 0.770996 0.996826 0.713867 0.925049 0.756592 0.906738 0.732422 0.950439 0.732422 0.950439 0.756592 0.906738 0.779541 0.957764 0.732422 0.950439 0.779541 0.957764 0.770996 0.996826 0.713867 0.925049 0.732422 0.950439 0.721436 0.992432 0.721436 0.992432 0.732422 0.950439 0.770996 0.996826 0.017822 0.238525 0.026855 0.237061 0.044678 0.262939 0.017822 0.238525 0.044678 0.262939 0.007812 0.239502 0.017822 0.238525 0.007812 0.239502 0.00293 0.204102 0.017822 0.238525 0.00293 0.204102 0.026855 0.237061 0.044678 0.262939 0.026855 0.237061 0.076904 0.245361 0.026855 0.237061 0.00293 0.204102 0.041504 0.197754 0.041504 0.197754 0.00293 0.204102 0.109375 0.165527 0.041504 0.197754 0.109375 0.165527 0.086182 0.194824 0.026855 0.237061 0.041504 0.197754 0.042725 0.226807 0.076904 0.245361 0.026855 0.237061 0.067627 0.235107 0.067627 0.235107 0.026855 0.237061 0.042725 0.226807 0.042725 0.226807 0.041504 0.197754 0.05542 0.216797 0.042725 0.226807 0.05542 0.216797 0.067627 0.235107 0.05542 0.216797 0.041504 0.197754 0.072754 0.204102 0.072754 0.204102 0.041504 0.197754 0.086182 0.194824 0.05542 0.216797 0.072754 0.204102 0.067627 0.235107 0.067627 0.235107 0.072754 0.204102 0.086182 0.194824 0.067627 0.235107 0.086182 0.194824 0.097168 0.227539 0.067627 0.235107 0.097168 0.227539 0.076904 0.245361 0.076904 0.245361 0.097168 0.227539 0.137451 0.269775 0.912842 0.083252 0.883789 0.12085 0.870605 0.074707 0.883789 0.12085 0.912842 0.083252 0.939697 0.131104 0.870605 0.074707 0.883789 0.12085 0.860352 0.146729 0.870605 0.074707 0.860352 0.146729 0.843018 0.094482 0.843018 0.094482 0.860352 0.146729 0.821533 0.157227 0.860352 0.146729 0.883789 0.12085 0.869629 0.181152 0.869629 0.181152 0.883789 0.12085 0.939697 0.131104 0.860352 0.146729 0.869629 0.181152 0.821533 0.157227 0.821533 0.157227 0.869629 0.181152 0.757812 0.198486 0.869629 0.181152 0.939697 0.131104 0.946045 0.168945 0.869629 0.181152 0.946045 0.168945 0.950439 0.203369 0.919922 0.929199 0.949951 0.810547 0.99585 0.873779 0.949951 0.810547 0.919922 0.929199 0.88916 0.87793 0.919922 0.929199 0.99585 0.873779 0.94751 0.999756 0.88916 0.87793 0.919922 0.929199 0.893311 0.983887 0.893311 0.983887 0.919922 0.929199 0.94751 0.999756 0.516846 0.000488 0.625488 0.046631 0.512939 0.046143 0.516846 0.000488 0.512939 0.046143 0.513916 0.018799 0.382568 1 0.391602 0.932861 0.464844 0.982666 0.464844 0.982666 0.391602 0.932861 0.447998 0.897705 0.447998 0.897705 0.391602 0.932861 0.401611 0.843018 0.464844 0.982666 0.447998 0.897705 0.513672 0.968018 0.447998 0.897705 0.401611 0.843018 0.440186 0.825928 0.440186 0.825928 0.401611 0.843018 0.398926 0.799316 0.513672 0.968018 0.447998 0.897705 0.536621 0.900635 0.513672 0.968018 0.536621 0.900635 0.554199 0.964111 0.447998 0.897705 0.440186 0.825928 0.504883 0.837158 0.447998 0.897705 0.504883 0.837158 0.536621 0.900635 0.504883 0.837158 0.440186 0.825928 0.477295 0.797852 0.536621 0.900635 0.504883 0.837158 0.561035 0.858398 0.536621 0.900635 0.561035 0.858398 0.554199 0.964111 0.561035 0.858398 0.504883 0.837158 0.56958 0.802002 0.561035 0.858398 0.56958 0.802002 0.583252 0.80835 0.554199 0.964111 0.561035 0.858398 0.569336 0.90625 0.554199 0.964111 0.569336 0.90625 0.566406 0.962646 0.561035 0.858398 0.583252 0.80835 0.577637 0.869385 0.561035 0.858398 0.577637 0.869385 0.569336 0.90625 0.577637 0.869385 0.583252 0.80835 0.620117 0.856689 0.566406 0.962646 0.569336 0.90625 0.609863 0.953125 0.609863 0.953125 0.569336 0.90625 0.577637 0.869385 0.609863 0.953125 0.577637 0.869385 0.620117 0.856689 0.566406 0.962646 0.609863 0.953125 0.59375 0.987549 0.609863 0.953125 0.620117 0.856689 0.658447 0.845947 0.658447 0.845947 0.620117 0.856689 0.669434 0.839111 0.609863 0.953125 0.658447 0.845947 0.650879 0.930176 0.609863 0.953125 0.650879 0.930176 0.693115 0.993164 0.693115 0.993164 0.650879 0.930176 0.671143 0.939209 0.671143 0.939209 0.650879 0.930176 0.663574 0.921143 0.663574 0.921143 0.650879 0.930176 0.658447 0.845947 0.663574 0.921143 0.658447 0.845947 0.685059 0.878174 0.663574 0.921143 0.685059 0.878174 0.702881 0.874023 0.243896 0.231445 0.196289 0.199951 0.276367 0.209717 0.276367 0.209717 0.196289 0.199951 0.29248 0.128174 0.29248 0.128174 0.196289 0.199951 0.179932 0.148193 0.29248 0.128174 0.179932 0.148193 0.179688 0.126953 0.179932 0.148193 0.196289 0.199951 0.113281 0.14917 0.113281 0.14917 0.196289 0.199951 0.123535 0.236572 0.123535 0.236572 0.196289 0.199951 0.141113 0.263916 0.828857 0.334961 0.811768 0.338623 0.790771 0.292725 0.828857 0.334961 0.790771 0.292725 0.838135 0.206787 0.915771 0.285156 0.838135 0.206787 0.922363 0.202637 0.838135 0.206787 0.915771 0.285156 0.849854 0.251465 0.838135 0.206787 0.849854 0.251465 0.828857 0.334961 0.849854 0.251465 0.915771 0.285156 0.898438 0.287842 0.828857 0.334961 0.849854 0.251465 0.851318 0.303467 0.851318 0.303467 0.849854 0.251465 0.864014 0.272217 0.864014 0.272217 0.849854 0.251465 0.898438 0.287842 0.864014 0.272217 0.898438 0.287842 0.851318 0.303467 0.828857 0.334961 0.851318 0.303467 0.872314 0.324707 0.872314 0.324707 0.851318 0.303467 0.898438 0.287842 0.828857 0.334961 0.872314 0.324707 0.881592 0.335938 0.881592 0.335938 0.872314 0.324707 0.898438 0.287842 0.881592 0.335938 0.898438 0.287842 0.915771 0.285156 0.828857 0.334961 0.881592 0.335938 0.916504 0.40625 0.916504 0.40625 0.881592 0.335938 0.915771 0.285156 0.502686 0.329102 0.524902 0.322021 0.523438 0.335938 0.524902 0.322021 0.502686 0.329102 0.516113 0.31958 0.516113 0.31958 0.502686 0.329102 0.504883 0.311279 0.516113 0.31958 0.504883 0.311279 0.524902 0.322021 0.524902 0.322021 0.504883 0.311279 0.507324 0.29541 0.524902 0.322021 0.507324 0.29541 0.536621 0.281982 0.507324 0.29541 0.504883 0.311279 0.46167 0.320068 0.536621 0.281982 0.507324 0.29541 0.500244 0.270508 0.500244 0.270508 0.507324 0.29541 0.46167 0.320068 0.536621 0.281982 0.500244 0.270508 0.598877 0.226562 0.598877 0.226562 0.500244 0.270508 0.542969 0.230957 0.542969 0.230957 0.500244 0.270508 0.514648 0.202881 0.500244 0.270508 0.46167 0.320068 0.478027 0.291992 0.478027 0.291992 0.46167 0.320068 0.447021 0.266846 0.478027 0.291992 0.447021 0.266846 0.500244 0.270508 0.500244 0.270508 0.447021 0.266846 0.514648 0.202881 0.514648 0.202881 0.447021 0.266846 0.50708 0.190186 0.514648 0.202881 0.50708 0.190186 0.543213 0.155762 0.50708 0.190186 0.447021 0.266846 0.435791 0.260742 0.50708 0.190186 0.435791 0.260742 0.471924 0.20752 0.50708 0.190186 0.471924 0.20752 0.462646 0.170898 0.471924 0.20752 0.435791 0.260742 0.391113 0.234131 0.471924 0.20752 0.391113 0.234131 0.462646 0.170898 0.391113 0.234131 0.435791 0.260742 0.374268 0.253906 0.462646 0.170898 0.391113 0.234131 0.399658 0.187988 0.462646 0.170898 0.399658 0.187988 0.443604 0.150879 0.443604 0.150879 0.399658 0.187988 0.397217 0.129639 0.399658 0.187988 0.391113 0.234131 0.352295 0.190186 0.352295 0.190186 0.391113 0.234131 0.337158 0.208984 0.313477 0 0.346436 0.007568 0.334717 0.068604 0.313477 0 0.334717 0.068604 0.277344 0.07373 0.277344 0.07373 0.334717 0.068604 0.326172 0.099609 0.277344 0.07373 0.326172 0.099609 0.329102 0.114014 0.313477 0 0.277344 0.07373 0.261719 0.009033 0.261719 0.009033 0.277344 0.07373 0.241211 0.05127 0.241211 0.05127 0.277344 0.07373 0.230957 0.079834 0.261719 0.009033 0.241211 0.05127 0.243408 0.010742 0.243408 0.010742 0.241211 0.05127 0.187988 0.05835 0.938232 0.44751 0.990967 0.52002 0.920654 0.533936 0.049805 0.059814 0.011963 0.007568 0.080566 0.003174 0.314697 0.722168 0.266846 0.808105 0.234375 0.744385 0.266846 0.808105 0.314697 0.722168 0.324707 0.824707 0.314697 0.722168 0.234375 0.744385 0.228027 0.659424 0.324707 0.824707 0.314697 0.722168 0.377441 0.781006 0.324707 0.824707 0.377441 0.781006 0.354492 0.844482 0.377441 0.781006 0.314697 0.722168 0.383057 0.661133 0.314697 0.722168 0.228027 0.659424 0.314697 0.645996 0.314697 0.722168 0.314697 0.645996 0.383057 0.661133 0.383057 0.661133 0.314697 0.645996 0.432129 0.629639 0.314697 0.645996 0.228027 0.659424 0.25708 0.638672 0.432129 0.629639 0.314697 0.645996 0.349121 0.616455 0.349121 0.616455 0.314697 0.645996 0.25708 0.638672 0.349121 0.616455 0.25708 0.638672 0.2771 0.626709 0.349121 0.616455 0.2771 0.626709 0.298828 0.577637 0.298828 0.577637 0.2771 0.626709 0.248291 0.579102 0.349121 0.616455 0.298828 0.577637 0.356445 0.544189 0.356445 0.544189 0.298828 0.577637 0.248291 0.579102 0.356445 0.544189 0.248291 0.579102 0.277344 0.528076 0.356445 0.544189 0.277344 0.528076 0.297852 0.501221 0.109619 0.479248 0.000244 0.479248 0.050293 0.384277 0.536377 0.002197 0.602051 0 0.611084 0.025635 0.218506 0.317383 0.290771 0.32251 0.256592 0.408203 0.218506 0.317383 0.256592 0.408203 0.183105 0.378662 0.218506 0.317383 0.183105 0.378662 0.189209 0.291504 0.290771 0.32251 0.218506 0.317383 0.239746 0.284668 0.239746 0.284668 0.218506 0.317383 0.189209 0.291504 0.290771 0.32251 0.239746 0.284668 0.295898 0.265625 0.239746 0.284668 0.189209 0.291504 0.22168 0.236572 0.239746 0.284668 0.22168 0.236572 0.295898 0.265625 0.22168 0.236572 0.189209 0.291504 0.196777 0.20874 0.290771 0.32251 0.295898 0.265625 0.317383 0.311768 0.317383 0.311768 0.295898 0.265625 0.3396 0.245605 0.317383 0.311768 0.3396 0.245605 0.425781 0.282959 0.757324 0.060791 0.79248 0.168701 0.66333 0.130127 0.66333 0.130127 0.79248 0.168701 0.700439 0.196289 0.757324 0.060791 0.66333 0.130127 0.661865 0.060791 0.66333 0.130127 0.700439 0.196289 0.618408 0.21875 0.661865 0.060791 0.66333 0.130127 0.592041 0.117676 0.592041 0.117676 0.66333 0.130127 0.618408 0.21875 0.661865 0.060791 0.592041 0.117676 0.573975 0.058105 0.592041 0.117676 0.618408 0.21875 0.576172 0.12915 0.592041 0.117676 0.576172 0.12915 0.573975 0.058105 0.38623 0.781982 0.408203 0.686279 0.461426 0.768799 0.461426 0.768799 0.408203 0.686279 0.482666 0.711182 0.461426 0.768799 0.482666 0.711182 0.549805 0.738281 0.461426 0.768799 0.549805 0.738281 0.549805 0.785889 0.461426 0.768799 0.549805 0.785889 0.51001 0.825439 0.549805 0.785889 0.549805 0.738281 0.57251 0.685303 0.549805 0.785889 0.57251 0.685303 0.566406 0.786621 0.566406 0.786621 0.57251 0.685303 0.573486 0.736816 0.566406 0.786621 0.573486 0.736816 0.610107 0.791504 0.610107 0.791504 0.573486 0.736816 0.624268 0.720215 0.610107 0.791504 0.624268 0.720215 0.647461 0.791748 0.647461 0.791748 0.624268 0.720215 0.668213 0.791748 0.647461 0.791748 0.668213 0.791748 0.650391 0.828857 0.668213 0.791748 0.624268 0.720215 0.649902 0.722656 0.668213 0.791748 0.649902 0.722656 0.705566 0.716797 0.668213 0.791748 0.705566 0.716797 0.690918 0.791748 0.690918 0.791748 0.705566 0.716797 0.767822 0.792236 0.767822 0.792236 0.705566 0.716797 0.727539 0.672363 0.690918 0.791748 0.767822 0.792236 0.704346 0.792969 0.690918 0.791748 0.704346 0.792969 0.740479 0.824219 0.765869 0.055664 0.699707 0.055664 0.723877 0.043701 0.848633 0.564453 0.77002 0.514893 0.824951 0.510498 0.77002 0.514893 0.848633 0.564453 0.788086 0.576904 0.788086 0.576904 0.848633 0.564453 0.833252 0.593018 0.824951 0.510498 0.77002 0.514893 0.794189 0.480713 0.824951 0.510498 0.794189 0.480713 0.838135 0.469727 0.824951 0.510498 0.838135 0.469727 0.85376 0.442383 0.85376 0.442383 0.838135 0.469727 0.794189 0.480713 0.85376 0.442383 0.794189 0.480713 0.793945 0.423584 0.793945 0.423584 0.794189 0.480713 0.76001 0.465576 0.793945 0.423584 0.76001 0.465576 0.757324 0.446045 0.793945 0.423584 0.757324 0.446045 0.745361 0.421875 0.793945 0.423584 0.745361 0.421875 0.739014 0.413086 0.85376 0.442383 0.793945 0.423584 0.868408 0.376221 0.85376 0.442383 0.868408 0.376221 0.884766 0.416504 0.868408 0.376221 0.793945 0.423584 0.844727 0.366455 0.844727 0.366455 0.793945 0.423584 0.800781 0.395996 0.800781 0.395996 0.793945 0.423584 0.775879 0.375 0.844727 0.366455 0.800781 0.395996 0.816895 0.369141 0.844727 0.366455 0.816895 0.369141 0.818359 0.343262 0.816895 0.369141 0.800781 0.395996 0.799561 0.350586 0.816895 0.369141 0.799561 0.350586 0.818359 0.343262 0.699707 0.006104 0.745361 0.006104 0.706055 0.012695 0.059326 0.603516 0.057861 0.627197 0.032715 0.603271 0.057861 0.627197 0.059326 0.603516 0.067139 0.60083 0.025635 0.625732 0.001465 0.608887 0.032715 0.603271 0.025635 0.625732 0.032715 0.603271 0.040283 0.628662 0.040283 0.628662 0.032715 0.603271 0.057861 0.627197 0.025635 0.625732 0.040283 0.628662 0.023193 0.636719 0.023193 0.636719 0.040283 0.628662 0.062012 0.650391 0.062012 0.650391 0.040283 0.628662 0.057861 0.627197 0.062012 0.650391 0.057861 0.627197 0.071533 0.662598 0.080566 0.628662 0.057861 0.627197 0.067139 0.60083 0.057861 0.627197 0.080566 0.628662 0.071533 0.662598 0.080566 0.628662 0.067139 0.60083 0.079346 0.593506 0.071533 0.662598 0.080566 0.628662 0.119385 0.618896 0.119385 0.618896 0.080566 0.628662 0.079346 0.593506 0.071533 0.662598 0.119385 0.618896 0.079834 0.695312 0.119385 0.618896 0.079346 0.593506 0.106689 0.572998 0.244873 0.846924 0.214111 0.854004 0.237793 0.822754 0.244873 0.846924 0.237793 0.822754 0.276611 0.826416 0.276611 0.826416 0.237793 0.822754 0.223389 0.775391 0.244873 0.846924 0.276611 0.826416 0.289551 0.870117 0.289551 0.870117 0.276611 0.826416 0.325684 0.837891 0.289551 0.870117 0.325684 0.837891 0.323975 0.880615 0.244873 0.846924 0.289551 0.870117 0.253418 0.893799 0.289551 0.870117 0.323975 0.880615 0.327148 0.914551 0.253418 0.893799 0.289551 0.870117 0.284912 0.88208 0.284912 0.88208 0.289551 0.870117 0.327148 0.914551 0.253418 0.893799 0.284912 0.88208 0.262207 0.909912 0.262207 0.909912 0.284912 0.88208 0.291504 0.917725 0.291504 0.917725 0.284912 0.88208 0.327148 0.914551 0.291504 0.917725 0.327148 0.914551 0.284912 0.947266 0.284912 0.947266 0.327148 0.914551 0.310791 0.964111 0.310791 0.964111 0.327148 0.914551 0.357666 0.935791 0.310791 0.964111 0.357666 0.935791 0.32959 0.989502 0.32959 0.989502 0.357666 0.935791 0.339111 0.996826 0.339111 0.996826 0.357666 0.935791 0.368652 0.942383 0.339111 0.996826 0.368652 0.942383 0.37915 0.983154 0.807861 0.743652 0.829346 0.6875 0.896973 0.750732 0.896973 0.750732 0.829346 0.6875 0.89624 0.674316 0.896973 0.750732 0.89624 0.674316 0.927734 0.674805 0.896973 0.750732 0.927734 0.674805 0.959229 0.747314 0.896973 0.750732 0.959229 0.747314 0.911133 0.842773 0.959229 0.747314 0.927734 0.674805 0.992188 0.665039 0.911133 0.842773 0.959229 0.747314 0.994873 0.728027 0.994873 0.728027 0.959229 0.747314 0.992188 0.665039 0.209717 0.858887 0.176025 0.842529 0.19873 0.753418 0.176025 0.842529 0.209717 0.858887 0.180908 0.88916 0.180908 0.88916 0.209717 0.858887 0.243408 0.889404 0.180908 0.88916 0.243408 0.889404 0.209473 0.933594 0.209473 0.933594 0.243408 0.889404 0.276123 0.960693 0.209473 0.933594 0.276123 0.960693 0.256104 0.985596 0.209473 0.933594 0.256104 0.985596 0.203125 0.993164 0.180908 0.88916 0.209473 0.933594 0.149902 0.935059 0.149902 0.935059 0.209473 0.933594 0.203125 0.993164 0.180908 0.88916 0.149902 0.935059 0.115967 0.906738 0.149902 0.935059 0.203125 0.993164 0.125977 0.982666 0.76709 0.525635 0.716309 0.574219 0.689453 0.546631 0.689453 0.546631 0.716309 0.574219 0.71167 0.625488 0.76709 0.525635 0.689453 0.546631 0.753906 0.503174 0.753906 0.503174 0.689453 0.546631 0.682373 0.489502 0.753906 0.503174 0.682373 0.489502 0.748291 0.462646 0.682373 0.489502 0.689453 0.546631 0.620361 0.53418 0.748291 0.462646 0.682373 0.489502 0.713135 0.401123 0.682373 0.489502 0.620361 0.53418 0.631104 0.443359 0.682373 0.489502 0.631104 0.443359 0.713135 0.401123 0.713135 0.401123 0.631104 0.443359 0.650879 0.355957 0.631104 0.443359 0.620361 0.53418 0.57373 0.47583 0.650879 0.355957 0.631104 0.443359 0.625732 0.423584 0.625732 0.423584 0.631104 0.443359 0.57373 0.47583 0.625732 0.423584 0.57373 0.47583 0.54541 0.402344 0.709961 0.632324 0.6521 0.638916 0.684326 0.606934 0.6521 0.638916 0.709961 0.632324 0.768066 0.64624 0.684326 0.606934 0.6521 0.638916 0.662598 0.556152 0.662598 0.556152 0.6521 0.638916 0.609375 0.562744 0.609375 0.562744 0.6521 0.638916 0.592041 0.656738 0.592041 0.656738 0.6521 0.638916 0.615479 0.71582 0.615479 0.71582 0.6521 0.638916 0.666016 0.704102 0.592041 0.656738 0.615479 0.71582 0.56665 0.648438 0.592041 0.656738 0.56665 0.648438 0.609375 0.562744 0.609375 0.562744 0.56665 0.648438 0.594482 0.547607 0.594482 0.547607 0.56665 0.648438 0.55127 0.553955 0.594482 0.547607 0.55127 0.553955 0.580811 0.500244 0.55127 0.553955 0.56665 0.648438 0.518555 0.652344 0.518555 0.652344 0.56665 0.648438 0.517578 0.709717 0.55127 0.553955 0.518555 0.652344 0.495361 0.543701 0.495361 0.543701 0.518555 0.652344 0.439453 0.608887 0.439453 0.608887 0.518555 0.652344 0.430664 0.679932 0.495361 0.543701 0.439453 0.608887 0.418945 0.512695 0.418945 0.512695 0.439453 0.608887 0.38208 0.596436 0.04541 0.572266 0.027344 0.500977 0.081299 0.506592 0.027344 0.500977 0.04541 0.572266 0.005859 0.535645 0.04541 0.572266 0.081299 0.506592 0.075928 0.588379 0.075928 0.588379 0.081299 0.506592 0.100098 0.556396 0.68335 0.000244 0.626953 0.041016 0.617188 0.001221 0.661865 0.055664 0.638916 0.041016 0.694092 0.001221 0.661865 0.055664 0.694092 0.001221 0.699951 0.04834</float_array>
          <technique_common>
            <accessor source="#Decoctions-mesh-map-0-array" count="1398" stride="2">
              <param name="S" type="float"/>
              <param name="T" type="float"/>
            </accessor>
          </technique_common>
        </source>
        <vertices id="Decoctions-mesh-vertices">
          <input semantic="POSITION" source="#Decoctions-mesh-positions"/>
        </vertices>
        <polylist material="Material_-1-material" count="6">
          <input semantic="VERTEX" source="#Decoctions-mesh-vertices" offset="0"/>
          <input semantic="NORMAL" source="#Decoctions-mesh-normals" offset="1"/>
          <input semantic="TEXCOORD" source="#Decoctions-mesh-map-0" offset="2" set="0"/>
          <vcount>3 3 3 3 3 3 3 3 3 3 3 3 3 3 3 3 3 3 3 3 3 3 3 3 3 3 3 3 3 3 3 3 3 3 3 3 3 3 3 3 3 3 3 3 3 3 3 3 3 3 3 3 3 3 3 3 3 3 3 3 3 3 3 3 3 3 3 3 3 3 3 3 3 3 3 3 3 3 3 3 3 3 3 3 3 3 3 3 3 3 3 3 3 3 3 3 3 3 3 3 3 3 3 3 3 3 3 3 3 3 3 3 3 3 3 3 3 3 3 3 3 3 3 3 3 3 3 3 3 3 3 3 3 3 3 3 3 3 3 3 3 3 3 3 3 3 3 3 3 3 3 3 3 3 3 3 3 3 3 3 3 3 3 3 3 3 3 3 3 3 3 3 3 3 3 3 3 3 3 3 3 3 3 3 3 3 3 3 3 3 3 3 3 3 3 3 3 3 3 3 3 3 3 3 3 3 3 3 3 3 3 3 3 3 3 3 3 3 3 3 3 3 3 3 3 3 3 3 3 3 3 3 3 3 3 3 3 3 3 3 3 3 3 3 3 3 3 3 3 3 3 3 3 3 3 3 3 3 3 3 3 3 3 3 3 3 3 3 3 3 3 3 3 3 3 3 3 3 3 3 3 3 3 3 3 3 3 3 3 3 3 3 3 3 3 3 3 3 3 3 3 3 3 3 3 3 3 3 3 3 3 3 3 3 3 3 3 3 3 3 3 3 3 3 3 3 3 3 3 3 3 3 3 3 3 3 3 3 3 3 3 3 3 3 3 3 3 3 3 3 3 3 3 3 3 3 3 3 3 3 3 3 3 3 3 3 3 3 3 3 3 3 3 3 3 3 3 3 3 3 3 3 3 3 3 3 3 3 3 3 3 3 3 3 3 3 3 3 3 3 3 3 3 3 3 3 3 3 3 3 3 3 3 3 3 3 3 3 3 3 3 3 3 3 3 3 3 3 3 3 3 3 3 3 3 3 3 3 3 3 3 3 3 3 3 3 3 3 3 3 3 3 3 3 3 3 3 3 3 3 3 3 3 3 3 3</vcount>
          <p>1 0 0 2 0 1 3 0 2 1 1 3 3 1 4 4 1 5 4 2 6 3 2 7 2 2 8 2 3 9 1 3 10 5 3 11 4 4 12 2 4 13 6 4 14 6 5 15 2 5 16 7 5 17 7 6 18 2 6 19 8 6 20 7 7 21 8 7 22 6 7 23 6 8 24 8 8 25 9 8 26 6 9 27 9 9 28 10 9 29 10 10 30 9 10 31 11 10 32 11 11 33 9 11 34 12 11 35 13 12 36 1 12 37 14 12 38 1 13 39 13 13 40 15 13 41 1 14 42 15 14 43 5 14 44 5 15 45 15 15 46 16 15 47 5 16 48 16 16 49 17 16 50 15 17 51 13 17 52 18 17 53 15 18 54 18 18 55 16 18 56 18 19 57 13 19 58 19 19 59 16 20 60 18 20 61 20 20 62 20 21 63 18 21 64 19 21 65 20 22 66 19 22 67 21 22 68 22 23 69 23 23 70 4 23 71 23 24 72 22 24 73 24 24 74 23 25 75 24 25 76 25 25 77 25 26 78 24 26 79 26 26 80 22 27 81 4 27 82 27 27 83 22 28 84 27 28 85 24 28 86 27 29 87 4 29 88 6 29 89 26 30 90 24 30 91 28 30 92 28 31 93 24 31 94 27 31 95 27 32 96 6 32 97 29 32 98 27 33 99 29 33 100 28 33 101 30 34 102 31 34 103 28 34 104 30 35 105 28 35 106 29 35 107 30 36 108 29 36 109 32 36 110 32 37 111 29 37 112 33 37 113 29 38 114 6 38 115 10 38 116 29 39 117 10 39 118 33 39 119 33 40 120 10 40 121 34 40 122 33 41 123 34 41 124 35 41 125 34 42 126 10 42 127 36 42 128 36 43 129 10 43 130 11 43 131 36 44 132 11 44 133 37 44 134 36 45 135 37 45 136 34 45 137 34 46 138 37 46 139 38 46 140 38 47 141 37 47 142 39 47 143 34 48 144 38 48 145 40 48 146 34 49 147 40 49 148 35 49 149 35 50 150 40 50 151 41 50 152 1 51 153 4 51 154 23 51 155 1 52 156 23 52 157 14 52 158 14 53 159 23 53 160 42 53 161 42 54 162 23 54 163 25 54 164 14 55 165 42 55 166 43 55 167 14 56 168 43 56 169 13 56 170 13 57 171 43 57 172 19 57 173 19 58 174 43 58 175 44 58 176 11 59 177 45 59 178 37 59 179 37 60 180 45 60 181 46 60 182 45 61 183 11 61 184 47 61 185 45 62 186 47 62 187 48 62 188 47 63 189 11 63 190 49 63 191 50 64 192 39 64 193 37 64 194 50 65 195 37 65 196 46 65 197 50 66 198 46 66 199 51 66 200 50 67 201 51 67 202 52 67 203 50 68 204 52 68 205 39 68 206 39 69 207 52 69 208 53 69 209 39 70 210 53 70 211 54 70 212 39 71 213 54 71 214 38 71 215 54 72 216 53 72 217 55 72 218 55 73 219 53 73 220 56 73 221 17 74 222 16 74 223 57 74 224 57 75 225 16 75 226 20 75 227 57 76 228 20 76 229 58 76 230 57 77 231 58 77 232 59 77 233 57 78 234 59 78 235 17 78 236 17 79 237 59 79 238 60 79 239 17 80 240 60 80 241 61 80 242 61 81 243 60 81 244 62 81 245 63 82 246 2 82 247 5 82 248 63 83 249 5 83 250 61 83 251 61 84 252 5 84 253 17 84 254 63 85 255 61 85 256 64 85 257 2 86 258 63 86 259 8 86 260 8 87 261 63 87 262 64 87 263 8 88 264 64 88 265 65 88 266 8 89 267 65 89 268 12 89 269 8 90 270 12 90 271 9 90 272 19 91 273 66 91 274 21 91 275 66 92 276 19 92 277 67 92 278 66 93 279 67 93 280 68 93 281 66 94 282 68 94 283 69 94 284 66 95 285 69 95 286 70 95 287 70 96 288 69 96 289 71 96 290 21 97 291 66 97 292 72 97 293 21 98 294 72 98 295 20 98 296 66 99 297 70 99 298 73 99 299 73 100 300 70 100 301 71 100 302 66 101 303 73 101 304 72 101 305 20 102 306 72 102 307 58 102 308 58 103 309 72 103 310 73 103 311 73 104 312 71 104 313 74 104 314 73 105 315 74 105 316 58 105 317 74 106 318 71 106 319 75 106 320 58 107 321 74 107 322 76 107 323 58 108 324 76 108 325 59 108 326 76 109 327 74 109 328 77 109 329 77 110 330 74 110 331 75 110 332 77 111 333 75 111 334 78 111 335 19 112 336 44 112 337 67 112 338 79 113 339 11 113 340 12 113 341 79 114 342 12 114 343 80 114 344 79 115 345 80 115 346 11 115 347 11 116 348 80 116 349 81 116 350 11 117 351 81 117 352 49 117 353 49 118 354 81 118 355 82 118 356 82 119 357 81 119 358 83 119 359 49 120 360 82 120 361 48 120 362 49 121 363 48 121 364 47 121 365 65 122 366 80 122 367 12 122 368 84 123 369 81 123 370 80 123 371 85 124 372 86 124 373 84 124 374 85 125 375 84 125 376 87 125 377 87 126 378 84 126 379 80 126 380 87 127 381 80 127 382 65 127 383 88 128 384 89 128 385 87 128 386 88 129 387 87 129 388 90 129 389 90 130 390 87 130 391 65 130 392 88 131 393 90 131 394 91 131 395 90 132 396 65 132 397 92 132 398 90 133 399 92 133 400 91 133 401 91 134 402 92 134 403 93 134 404 92 135 405 65 135 406 64 135 407 93 136 408 92 136 409 94 136 410 62 137 411 64 137 412 61 137 413 92 138 414 64 138 415 95 138 416 95 139 417 64 139 418 62 139 419 94 140 420 92 140 421 96 140 422 96 141 423 92 141 424 95 141 425 94 142 426 96 142 427 97 142 428 95 143 429 62 143 430 98 143 431 95 144 432 98 144 433 96 144 434 98 145 435 62 145 436 60 145 437 97 146 438 96 146 439 99 146 440 99 147 441 96 147 442 98 147 443 99 148 444 98 148 445 60 148 446 97 149 447 99 149 448 59 149 449 59 150 450 99 150 451 60 150 452 100 151 453 101 151 454 83 151 455 100 152 456 83 152 457 81 152 458 100 153 459 81 153 460 84 153 461 100 154 462 84 154 463 101 154 464 83 155 465 101 155 466 102 155 467 101 156 468 84 156 469 103 156 470 103 157 471 84 157 472 86 157 473 103 158 474 86 158 475 104 158 476 101 159 477 103 159 478 105 159 479 102 160 480 101 160 481 106 160 482 106 161 483 101 161 484 105 161 485 105 162 486 103 162 487 107 162 488 105 163 489 107 163 490 106 163 491 107 164 492 103 164 493 108 164 494 108 165 495 103 165 496 104 165 497 107 166 498 108 166 499 106 166 500 106 167 501 108 167 502 104 167 503 106 168 504 104 168 505 109 168 506 106 169 507 109 169 508 102 169 509 102 170 510 109 170 511 110 170 512 45 171 513 111 171 514 46 171 515 111 172 516 45 172 517 48 172 518 46 173 519 111 173 520 112 173 521 46 174 522 112 174 523 51 174 524 51 175 525 112 175 526 52 175 527 112 176 528 111 176 529 113 176 530 113 177 531 111 177 532 48 177 533 112 178 534 113 178 535 52 178 536 52 179 537 113 179 538 53 179 539 113 180 540 48 180 541 82 180 542 113 181 543 82 181 544 83 181 545 114 182 546 83 182 547 102 182 548 83 183 549 114 183 550 113 183 551 114 184 552 102 184 553 110 184 554 113 185 555 114 185 556 115 185 557 115 186 558 114 186 559 110 186 560 53 187 561 113 187 562 115 187 563 53 188 564 115 188 565 116 188 566 59 189 567 76 189 568 97 189 569 97 190 570 76 190 571 117 190 572 117 191 573 76 191 574 77 191 575 97 192 576 117 192 577 94 192 578 117 193 579 77 193 580 118 193 581 118 194 582 77 194 583 78 194 584 94 195 585 117 195 586 119 195 587 94 196 588 119 196 589 93 196 590 117 197 591 118 197 592 120 197 593 117 198 594 120 198 595 119 198 596 120 199 597 118 199 598 121 199 599 119 200 600 120 200 601 122 200 602 119 201 603 122 201 604 93 201 605 122 202 606 120 202 607 123 202 608 122 203 609 123 203 610 124 203 611 93 204 612 122 204 613 125 204 614 93 205 615 125 205 616 91 205 617 122 206 618 124 206 619 126 206 620 122 207 621 126 207 622 125 207 623 126 208 624 124 208 625 127 208 626 91 209 627 125 209 628 89 209 629 89 210 630 125 210 631 126 210 632 89 211 633 126 211 634 127 211 635 91 212 636 89 212 637 88 212 638 89 213 639 127 213 640 128 213 641 128 214 642 127 214 643 129 214 644 89 215 645 128 215 646 130 215 647 89 216 648 130 216 649 87 216 650 87 217 651 130 217 652 85 217 653 85 218 654 130 218 655 131 218 656 131 219 657 130 219 658 128 219 659 131 220 660 128 220 661 132 220 662 131 221 663 132 221 664 133 221 665 104 222 666 86 222 667 109 222 668 109 223 669 86 223 670 110 223 671 110 224 672 86 224 673 134 224 674 110 225 675 134 225 676 135 225 677 134 226 678 86 226 679 133 226 680 133 227 681 86 227 682 131 227 683 131 228 684 86 228 685 85 228 686 135 229 687 134 229 688 133 229 689 135 230 690 133 230 691 136 230 692 137 231 693 136 231 694 138 231 695 136 232 696 137 232 697 139 232 698 136 233 699 139 233 700 135 233 701 139 234 702 137 234 703 140 234 704 135 235 705 139 235 706 141 235 707 141 236 708 139 236 709 142 236 710 142 237 711 139 237 712 140 237 713 142 238 714 140 238 715 141 238 716 135 239 717 141 239 718 143 239 719 143 240 720 141 240 721 140 240 722 135 241 723 143 241 724 144 241 725 144 242 726 143 242 727 140 242 728 144 243 729 140 243 730 137 243 731 135 244 732 144 244 733 110 244 734 110 245 735 144 245 736 137 245 737 128 246 738 133 246 739 132 246 740 133 247 741 128 247 742 145 247 743 145 248 744 128 248 745 129 248 746 145 249 747 129 249 748 133 249 749 133 250 750 129 250 751 146 250 752 133 251 753 146 251 754 136 251 755 146 252 756 129 252 757 127 252 758 136 253 759 146 253 760 147 253 761 147 254 762 146 254 763 127 254 764 136 255 765 147 255 766 148 255 767 148 256 768 147 256 769 149 256 770 149 257 771 147 257 772 150 257 773 147 258 774 127 258 775 151 258 776 151 259 777 127 259 778 124 259 779 151 260 780 124 260 781 147 260 782 147 261 783 124 261 784 150 261 785 150 262 786 124 262 787 152 262 788 150 263 789 152 263 790 153 263 791 152 264 792 124 264 793 123 264 794 152 265 795 123 265 796 154 265 797 152 266 798 154 266 799 155 266 800 154 267 801 123 267 802 121 267 803 154 268 804 121 268 805 155 268 806 121 269 807 123 269 808 120 269 809 155 270 810 121 270 811 156 270 812 155 271 813 156 271 814 157 271 815 157 272 816 156 272 817 158 272 818 156 273 819 121 273 820 78 273 821 78 274 822 121 274 823 118 274 824 42 275 825 25 275 826 159 275 827 42 276 828 159 276 829 160 276 830 160 277 831 159 277 832 161 277 833 160 278 834 161 278 835 162 278 836 42 279 837 160 279 838 43 279 839 43 280 840 160 280 841 163 280 842 163 281 843 160 281 844 164 281 845 43 282 846 163 282 847 44 282 848 44 283 849 163 283 850 165 283 851 26 284 852 159 284 853 25 284 854 28 285 855 31 285 856 26 285 857 166 286 858 159 286 859 26 286 860 159 287 861 166 287 862 161 287 863 166 288 864 26 288 865 31 288 866 161 289 867 166 289 868 167 289 869 161 290 870 167 290 871 162 290 872 167 291 873 166 291 874 168 291 875 166 292 876 31 292 877 169 292 878 166 293 879 169 293 880 168 293 881 168 294 882 169 294 883 170 294 884 169 295 885 31 295 886 32 295 887 170 296 888 169 296 889 171 296 890 171 297 891 169 297 892 32 297 893 171 298 894 32 298 895 172 298 896 171 299 897 172 299 898 173 299 899 173 300 900 172 300 901 174 300 902 171 301 903 173 301 904 175 301 905 175 302 906 173 302 907 174 302 908 175 303 909 174 303 910 176 303 911 175 304 912 176 304 913 177 304 914 165 305 915 67 305 916 44 305 917 163 306 918 164 306 919 165 306 920 178 307 921 164 307 922 160 307 923 178 308 924 160 308 925 162 308 926 178 309 927 162 309 928 179 309 929 164 310 930 178 310 931 180 310 932 180 311 933 178 311 934 179 311 935 164 312 936 180 312 937 181 312 938 180 313 939 179 313 940 182 313 941 180 314 942 182 314 943 181 314 944 182 315 945 179 315 946 183 315 947 164 316 948 181 316 949 165 316 950 165 317 951 181 317 952 184 317 953 165 318 954 184 318 955 67 318 956 179 319 957 162 319 958 185 319 959 185 320 960 162 320 961 167 320 962 179 321 963 185 321 964 186 321 965 185 322 966 167 322 967 168 322 968 186 323 969 185 323 970 187 323 971 187 324 972 185 324 973 168 324 974 186 325 975 187 325 976 188 325 977 187 326 978 168 326 979 170 326 980 187 327 981 170 327 982 188 327 983 183 328 984 179 328 985 189 328 986 189 329 987 179 329 988 186 329 989 189 330 990 186 330 991 188 330 992 189 331 993 188 331 994 190 331 995 189 332 996 190 332 997 191 332 998 190 333 999 188 333 1000 170 333 1001 190 334 1002 170 334 1003 192 334 1004 192 335 1005 170 335 1006 193 335 1007 192 336 1008 193 336 1009 194 336 1010 194 337 1011 193 337 1012 195 337 1013 194 338 1014 195 338 1015 196 338 1016 196 339 1017 195 339 1018 197 339 1019 196 340 1020 197 340 1021 198 340 1022 197 341 1023 195 341 1024 199 341 1025 197 342 1026 199 342 1027 200 342 1028 197 343 1029 200 343 1030 201 343 1031 201 344 1032 200 344 1033 202 344 1034 202 345 1035 200 345 1036 177 345 1037 201 346 1038 202 346 1039 203 346 1040 201 347 1041 203 347 1042 204 347 1043 30 348 1044 32 348 1045 31 348 1046 172 349 1047 35 349 1048 174 349 1049 35 350 1050 172 350 1051 33 350 1052 33 351 1053 172 351 1054 32 351 1055 174 352 1056 35 352 1057 41 352 1058 174 353 1059 41 353 1060 205 353 1061 174 354 1062 205 354 1063 176 354 1064 176 355 1065 205 355 1066 41 355 1067 176 356 1068 41 356 1069 206 356 1070 206 357 1071 41 357 1072 40 357 1073 206 358 1074 40 358 1075 38 358 1076 206 359 1077 38 359 1078 54 359 1079 206 360 1080 54 360 1081 55 360 1082 176 361 1083 206 361 1084 207 361 1085 176 362 1086 207 362 1087 177 362 1088 207 363 1089 206 363 1090 0 363 1091 0 364 1092 206 364 1093 208 364 1094 208 365 1095 206 365 1096 56 365 1097 0 366 1098 208 366 1099 209 366 1100 0 367 1101 209 367 1102 210 367 1103 209 368 1104 208 368 1105 211 368 1106 209 369 1107 211 369 1108 210 369 1109 56 370 1110 206 370 1111 55 370 1112 53 371 1113 212 371 1114 56 371 1115 212 372 1116 53 372 1117 116 372 1118 211 373 1119 208 373 1120 56 373 1121 211 374 1122 56 374 1123 213 374 1124 213 375 1125 56 375 1126 212 375 1127 211 376 1128 213 376 1129 210 376 1130 210 377 1131 213 377 1132 0 377 1133 0 378 1134 213 378 1135 212 378 1136 0 379 1137 212 379 1138 207 379 1139 214 380 1140 212 380 1141 116 380 1142 212 381 1143 214 381 1144 207 381 1145 214 382 1146 116 382 1147 115 382 1148 207 383 1149 214 383 1150 202 383 1151 202 384 1152 214 384 1153 115 384 1154 207 385 1155 202 385 1156 177 385 1157 202 386 1158 115 386 1159 110 386 1160 204 387 1161 203 387 1162 202 387 1163 204 388 1164 202 388 1165 137 388 1166 137 389 1167 202 389 1168 110 389 1169 204 390 1170 137 390 1171 215 390 1172 215 391 1173 137 391 1174 138 391 1175 215 392 1176 138 392 1177 216 392 1178 204 393 1179 215 393 1180 201 393 1181 215 394 1182 216 394 1183 217 394 1184 201 395 1185 215 395 1186 218 395 1187 218 396 1188 215 396 1189 217 396 1190 201 397 1191 218 397 1192 197 397 1193 197 398 1194 218 398 1195 198 398 1196 198 399 1197 218 399 1198 217 399 1199 198 400 1200 217 400 1201 196 400 1202 196 401 1203 217 401 1204 194 401 1205 194 402 1206 217 402 1207 219 402 1208 194 403 1209 219 403 1210 192 403 1211 192 404 1212 219 404 1213 190 404 1214 190 405 1215 219 405 1216 220 405 1217 190 406 1218 220 406 1219 191 406 1220 177 407 1221 200 407 1222 175 407 1223 175 408 1224 200 408 1225 199 408 1226 175 409 1227 199 409 1228 195 409 1229 175 410 1230 195 410 1231 221 410 1232 175 411 1233 221 411 1234 171 411 1235 221 412 1236 195 412 1237 193 412 1238 171 413 1239 221 413 1240 170 413 1241 170 414 1242 221 414 1243 193 414 1244 184 415 1245 68 415 1246 67 415 1247 68 416 1248 184 416 1249 222 416 1250 222 417 1251 184 417 1252 181 417 1253 222 418 1254 181 418 1255 223 418 1256 223 419 1257 181 419 1258 182 419 1259 223 420 1260 182 420 1261 183 420 1262 223 421 1263 183 421 1264 224 421 1265 222 422 1266 223 422 1267 225 422 1268 225 423 1269 223 423 1270 224 423 1271 222 424 1272 225 424 1273 226 424 1274 225 425 1275 224 425 1276 227 425 1277 69 426 1278 68 426 1279 226 426 1280 226 427 1281 68 427 1282 222 427 1283 69 428 1284 226 428 1285 71 428 1286 71 429 1287 226 429 1288 228 429 1289 71 430 1290 228 430 1291 75 430 1292 228 431 1293 226 431 1294 225 431 1295 75 432 1296 228 432 1297 78 432 1298 228 433 1299 225 433 1300 229 433 1301 228 434 1302 229 434 1303 78 434 1304 78 435 1305 229 435 1306 156 435 1307 229 436 1308 225 436 1309 227 436 1310 156 437 1311 229 437 1312 158 437 1313 158 438 1314 229 438 1315 227 438 1316 158 439 1317 227 439 1318 157 439 1319 138 440 1320 148 440 1321 216 440 1322 148 441 1323 138 441 1324 136 441 1325 216 442 1326 148 442 1327 217 442 1328 217 443 1329 148 443 1330 219 443 1331 219 444 1332 148 444 1333 230 444 1334 230 445 1335 148 445 1336 150 445 1337 150 446 1338 148 446 1339 149 446 1340 230 447 1341 150 447 1342 153 447 1343 230 448 1344 153 448 1345 219 448 1346 219 449 1347 153 449 1348 220 449 1349 220 450 1350 153 450 1351 231 450 1352 220 451 1353 231 451 1354 191 451 1355 231 452 1356 153 452 1357 232 452 1358 232 453 1359 153 453 1360 152 453 1361 231 454 1362 232 454 1363 233 454 1364 233 455 1365 232 455 1366 234 455 1367 234 456 1368 232 456 1369 157 456 1370 233 457 1371 234 457 1372 224 457 1373 224 458 1374 234 458 1375 227 458 1376 233 459 1377 183 459 1378 189 459 1379 183 460 1380 233 460 1381 224 460 1382 233 461 1383 189 461 1384 231 461 1385 231 462 1386 189 462 1387 191 462 1388 157 463 1389 227 463 1390 234 463 1391 155 464 1392 157 464 1393 232 464 1394 155 465 1395 232 465 1396 152 465 1397</p>
        </polylist>
      </mesh>
    </geometry>
  </library_geometries>
  <library_visual_scenes>
    <visual_scene id="Scene" name="Scene">
      <node id="Decoctions" name="Decoctions" type="NODE">
        <scale sid="scale">1 1 1</scale>
        <translate sid="location">0 0 0</translate>
        <rotate sid="rotationX">1 0 0 0</rotate>
        <rotate sid="rotationY">0 1 0 0</rotate>
        <rotate sid="rotationZ">0 0 1 0</rotate>
        <instance_geometry url="#Decoctions-mesh" name="Decoctions">
          <bind_material>
            <technique_common>
            </technique_common>
          </bind_material>
        </instance_geometry>
      </node>
    </visual_scene>
  </library_visual_scenes>
  <scene>
    <instance_visual_scene url="#Scene"/>
  </scene>
</COLLADA>
