<?xml version="1.0" encoding="utf-8"?>
<COLLADA xmlns="http://www.collada.org/2005/11/COLLADASchema" version="1.4.1" xmlns:xsi="http://www.w3.org/2001/XMLSchema-instance">
  <asset>
    <contributor>
      <author>Blockbench user</author>
      <authoring_tool>Blockbench</authoring_tool>
    </contributor>
    <created>2026-01-30T07:47:50.652Z</created>
    <modified>2026-01-30T07:47:50.658Z</modified>
    <unit name="meter" meter="1.0"/>
    <up_axis>Y_UP</up_axis>
  </asset>
  <library_effects>
  </library_effects>
  <library_images>
  </library_images>
  <library_materials>
  </library_materials>
  <library_geometries>
    <geometry id="EagleFeather-mesh" name="EagleFeather">
      <mesh>
        <source id="EagleFeather-mesh-positions">
          <float_array id="EagleFeather-mesh-positions-array" count="768">-0.001951 -0.231674 0.488373 -0.004772 -0.210007 0.483917 -0.009501 -0.193161 0.460693 0.000602 -0.174377 0.44986 0.007853 -0.202896 0.474609 0.005559 -0.210175 0.462494 0.00854 -0.160004 0.422211 0.004519 -0.170456 0.420074 -0.005131 -0.198898 0.450745 -0.006095 -0.153503 0.399445 -0.00788 -0.146194 0.406433 0.001253 -0.127213 0.390533 -0.010329 -0.130966 0.378021 -0.002664 -0.133514 0.365265 0.010201 -0.137772 0.382355 0.01279 -0.129288 0.371887 0.016201 -0.129669 0.382477 0.01387 -0.121071 0.370667 0.028858 -0.120453 0.373596 0.028116 -0.120438 0.366089 0.04575 -0.115952 0.365204 0.033997 -0.124992 0.371674 0.017111 -0.111954 0.348541 0.00485 -0.115036 0.338318 -0.004058 -0.096962 0.310944 -0.002383 -0.095589 0.345032 0.006488 -0.079651 0.316925 0.011314 -0.096474 0.33252 -0.017166 -0.124908 0.372833 -0.02603 -0.116295 0.36554 -0.022449 -0.125854 0.380646 -0.039593 -0.122093 0.374359 -0.027767 -0.126678 0.371796 -0.047588 -0.111465 0.356964 -0.009148 -0.105309 0.349823 -0.071922 -0.075279 0.299255 -0.022139 -0.084282 0.306671 0.041054 -0.098854 0.339569 0.065765 -0.101624 0.34494 0.068741 -0.077843 0.305664 0.040321 -0.07383 0.296936 0.014807 -0.079597 0.304901 -0.010843 -0.099945 0.327423 0.031353 -0.08725 0.312805 0.045193 -0.06884 0.285858 0.027571 -0.073517 0.293182 0.009176 -0.090324 0.309418 0.00285 -0.078224 0.283081 -0.0116 -0.068893 0.293457 0.000054 -0.054699 0.284271 -0.010605 -0.033737 0.23912 -0.007727 -0.06839 0.274719 0.015491 -0.066185 0.281281 0.033886 -0.065361 0.280243 0.021715 -0.070747 0.295654 0.035278 -0.069695 0.289673 -0.039524 -0.058315 0.267242 -0.0136 -0.049988 0.254028 -0.107643 -0.051601 0.256989 -0.112038 -0.057903 0.271027 -0.041786 -0.058384 0.27298 -0.0136 -0.049988 0.254028 0.045193 -0.06884 0.285858 0.057995 -0.047516 0.25647 0.033886 -0.065361 0.280243 0.077431 -0.055676 0.268219 -0.029985 -0.033997 0.233353 0.048359 -0.036766 0.234497 0.078056 -0.033226 0.225067 0.082191 -0.007896 0.18161 0.03371 -0.021248 0.209259 0.122681 -0.013771 0.192764 0.098289 -0.035347 0.233627 0.091461 -0.006958 0.187408 0.052071 -0.01573 0.203064 -0.004405 -0.037819 0.224411 0.009251 -0.037102 0.227234 0.015736 -0.046112 0.253204 -0.042301 -0.011237 0.196762 -0.012008 -0.008653 0.19574 -0.111092 -0.035641 0.231155 -0.069954 0.017006 0.145477 -0.010021 0.033665 0.120628 -0.095734 -0.005033 0.176224 -0.041538 -0.033688 0.226883 -0.009853 -0.012904 0.193237 -0.026115 0.002501 0.166641 -0.12674 0.035217 0.097389 -0.048206 0.037224 0.107628 -0.055912 0.033772 0.105247 -0.009454 0.026146 0.119568 -0.130463 -0.055027 0.257751 -0.112038 -0.057903 0.271027 -0.142792 -0.039284 0.238724 -0.123238 -0.050953 0.256134 -0.150665 -0.031296 0.219818 -0.107643 -0.051601 0.256989 -0.111092 -0.035641 0.231155 -0.150665 -0.031296 0.219818 -0.13913 -0.018866 0.200745 -0.001949 -0.010478 0.178223 0.008242 -0.00484 0.175995 0.00332 0.020302 0.122246 0.027296 0.00633 0.15979 0.01056 0.020277 0.132843 -0.004589 -0.011728 0.216202 -0.002187 0.019531 0.164825 0.00507 -0.014114 0.220901 0.00972 0.002155 0.183899 0.005084 0.037296 0.129288 0.076218 0.021132 0.13118 0.140091 0.024841 0.118164 0.033009 0.027391 0.126297 0.071579 0.033306 0.104385 0.022924 0.022636 0.131302 0.029081 0.035843 0.107643 0.044636 0.076294 0.013779 -0.003444 0.055134 0.058628 0.009915 0.05542 0.063805 -0.013641 0.084358 -0.000067 -0.02931 0.065308 0.042774 -0.078102 0.067345 0.02832 -0.136032 0.06266 0.03104 -0.079681 0.062408 0.050327 -0.029932 0.062691 0.057053 -0.083771 0.079475 0.007277 -0.007798 0.08654 0.011843 -0.003979 0.060909 0.080986 0.007594 0.063507 0.066833 -0.002741 0.093498 0.00768 0.011085 0.029104 0.126343 0.04594 0.050999 0.080849 0.026279 0.072655 0.035713 0.105659 0.043198 0.087067 0.068024 0.0354 0.109146 0.039459 0.008861 0.161346 0.010123 0.019485 0.148651 0.096352 0.055855 0.0527 0.130432 0.056049 0.051155 0.135681 0.068336 0.015959 0.095718 0.063927 0.044159 0.099388 0.074554 0.006388 0.092628 0.089378 -0.029709 0.062599 0.1045 -0.063438 0.012581 0.095604 -0.025894 0.005053 0.108887 -0.062996 0.154388 0.067863 0.015858 0.140839 0.052155 0.057156 0.130432 0.056049 0.051155 -0.146698 0.08226 -0.019243 -0.107735 0.08934 -0.028416 -0.065659 0.098251 -0.047729 -0.115395 0.101257 -0.069489 -0.026873 0.114174 -0.07724 -0.074829 0.099205 -0.042671 0.007991 0.125366 -0.108315 -0.012857 0.125137 -0.094315 -0.024685 0.133545 -0.134537 -0.066704 0.121643 -0.113052 -0.068291 0.143433 -0.183212 -0.133209 0.120499 -0.129486 -0.080414 0.135574 -0.153641 -0.112724 0.142197 -0.186768 -0.09243 0.1185 -0.100906 -0.031876 0.121254 -0.089203 -0.005385 0.114159 -0.052322 -0.020306 0.093239 -0.008627 0.004333 0.117363 -0.05761 0.006592 0.096397 -0.009979 0.02104 0.114098 -0.06514 0.041515 0.097939 -0.028097 0.064682 0.082932 0.001929 0.0914 0.099648 -0.048317 0.104431 0.082588 -0.005014 0.145248 0.085945 -0.034084 0.114517 0.093796 -0.045643 0.125198 0.10936 -0.097031 0.139297 0.111969 -0.105103 0.097664 0.121964 -0.125351 0.039627 0.129913 -0.122864 0.145798 0.124313 -0.147034 0.133865 0.137665 -0.183472 0.153214 0.142395 -0.208298 0.158463 0.13118 -0.17067 0.134369 0.130005 -0.154221 0.09903 0.127319 -0.129089 0.004101 0.141159 -0.157578 0.050346 0.140533 -0.160172 -0.017586 0.154709 -0.202728 0.028318 0.156906 -0.216095 -0.012857 0.125137 -0.094315 -0.001789 0.139832 -0.118179 -0.000982 0.152039 -0.16713 0.012958 0.13739 -0.127274 -0.030193 0.151215 -0.178177 -0.043358 0.163574 -0.236298 -0.081917 0.156815 -0.218353 0.039627 0.129913 -0.122864 0.041573 0.132935 -0.129196 0.063354 0.123878 -0.106491 0.100372 0.138107 -0.17511 0.069389 0.146057 -0.189133 -0.109756 0.158722 -0.249161 0.00341 0.16925 -0.250732 0.100372 0.138107 -0.17511 0.1231 0.154358 -0.238647 0.11689 0.144455 -0.194366 0.042213 0.16301 -0.232407 0.045937 0.167068 -0.25705 0.085861 0.177216 -0.303467 0.059814 0.181641 -0.318878 0.089615 0.187576 -0.357635 0.025904 0.181183 -0.299774 -0.014009 0.185455 -0.313568 0.054714 0.192596 -0.355835 0.002818 0.19487 -0.341644 0.076668 0.163574 -0.25061 0.121452 0.169006 -0.293243 -0.074638 0.173233 -0.289337 -0.022495 0.194244 -0.343964 -0.062126 0.187576 -0.346588 -0.085167 0.184067 -0.33017 -0.022974 0.175293 -0.259155 -0.000117 0.188965 -0.299683 0.005334 0.171997 -0.236435 0.002818 0.19487 -0.341644 0.022669 0.201416 -0.374878 0.001167 0.201843 -0.358185 -0.024189 0.201401 -0.380524 0.003312 0.209595 -0.407715 0.002731 0.213501 -0.404419 -0.015985 0.20903 -0.395538 0.026434 0.219879 -0.444489 0.051083 0.208252 -0.408447 0.065361 0.208313 -0.431854 -0.001364 0.223694 -0.450409 0.017994 0.22702 -0.477936 -0.013551 0.22374 -0.467468 -0.094696 0.189987 -0.376892 -0.060257 0.203812 -0.409576 -0.041454 0.196335 -0.361664 0.051727 0.198792 -0.388824 0.054714 0.192596 -0.355835 0.089615 0.187576 -0.357635 0.088997 0.197281 -0.393707 -0.046604 0.217957 -0.453766 -0.035473 0.202652 -0.38681 -0.022495 0.194244 -0.343964 0.084915 0.018089 0.142151 0.116745 0.108582 -0.083931 0.025251 0.150375 -0.174423 0.069588 0.15593 -0.210709 0.041374 0.175949 -0.271057 0.023554 0.190567 -0.320862 -0.133636 -0.028601 0.217239 0.141876 0.058689 0.041389</float_array>
          <technique_common>
            <accessor source="#EagleFeather-mesh-positions-array" count="256" stride="3">
              <param name="X" type="float"/>
              <param name="Y" type="float"/>
              <param name="Z" type="float"/>
            </accessor>
          </technique_common>
        </source>
        <source id="EagleFeather-mesh-normals">
          <float_array id="EagleFeather-mesh-normals-array" count="1506">-0.98665 -0.102421 0.126614 -0.549553 0.619104 0.560983 0.48686 0.236327 0.840903 0.157712 0.669789 0.72561 0.948153 -0.317612 0.011295 0.642211 0.588995 0.49056 0.984809 -0.140472 -0.102076 0.910659 -0.290217 -0.294064 -0.019378 -0.730064 -0.683104 -0.918983 -0.332487 -0.21195 -0.0812 -0.754948 -0.650738 -0.926455 -0.290359 -0.239527 0.094766 -0.744639 -0.660706 -0.984683 -0.116194 -0.129994 -0.593643 0.617139 0.516456 -0.486035 0.686693 0.540577 0.612992 0.615176 0.495781 -0.977058 -0.211009 -0.028876 -0.645706 0.64845 0.403208 -0.782985 -0.499505 -0.370715 -0.310846 -0.806531 -0.502875 0.477277 -0.698426 -0.533298 0.42233 -0.752468 -0.5054 0.933039 -0.32934 -0.144824 0.775676 -0.570291 -0.27036 0.772498 -0.567726 -0.284488 0.433167 0.674171 0.598214 0.391881 0.778867 0.489689 0.488505 -0.852067 -0.188001 -0.149834 0.785014 0.601085 -0.042404 0.999081 0.006188 0.22588 -0.770252 0.596398 0.647476 0.759521 -0.06248 0.073703 -0.316949 0.945574 0.614741 0.788718 -0.004202 0.157673 -0.806589 -0.569696 0.542491 -0.71942 -0.43375 0.406606 -0.802399 -0.436839 0.034911 -0.828739 -0.558545 -0.678469 0.576723 0.45505 0.259672 0.802583 0.537059 0.676812 0.595435 0.432877 0.37744 0.789586 0.483831 0.448058 0.799633 0.399788 -0.011717 0.843709 0.536672 0.165401 -0.986197 -0.007568 -0.298218 -0.917093 0.264589 -0.349798 -0.439855 -0.827145 -0.208225 0.530094 0.821975 0.173024 -0.562685 -0.808362 -0.523476 0.641008 0.561321 0.138342 0.729644 0.669688 -0.570577 -0.80061 -0.182935 0.152725 0.725444 0.671123 -0.038038 0.837753 0.544722 -0.025696 0.842028 0.538822 -0.080176 -0.85936 -0.505048 -0.03716 0.8282 0.559199 -0.028389 0.829187 0.55825 -0.016425 0.855852 0.51696 -0.033833 0.861665 0.506348 -0.061914 0.83693 0.543797 -0.036672 0.861558 0.506333 -0.053803 0.855077 0.515703 0.651867 0.607614 0.453734 -0.617134 -0.650097 -0.443306 -0.687002 -0.61092 -0.393451 -0.124676 -0.862049 -0.49125 -0.169069 -0.828742 -0.533481 0.203341 -0.882836 -0.423382 0.143833 -0.852585 -0.502405 0.139427 -0.839672 -0.524892 0.117731 -0.853395 -0.507796 0.079046 -0.782757 -0.617287 0.917183 -0.290858 0.272354 -0.019349 -0.820887 -0.570762 0.198462 -0.784617 -0.587358 0.193678 -0.841421 -0.50448 0.569882 -0.664724 -0.483091 0.638725 -0.629404 -0.442585 0.01776 -0.83171 -0.554926 -0.616439 0.648886 0.446038 -0.512441 0.721802 0.465194 -0.518717 0.722108 0.457705 -0.701631 -0.592298 -0.396103 0.1496 -0.766771 -0.624245 0.581082 -0.677548 -0.450858 0.008042 -0.847699 -0.530416 -0.024923 0.949682 0.312222 0.106811 0.90932 0.402154 0.181321 0.903451 0.388458 -0.093474 -0.891741 -0.442787 -0.215205 -0.832213 -0.510987 -0.154533 -0.855052 -0.49498 -0.087324 -0.756555 -0.648073 -0.075067 -0.847683 -0.525165 -0.014318 -0.877448 -0.479458 -0.256729 -0.771322 -0.582368 -0.086334 -0.898505 -0.43039 -0.005098 0.912872 0.408214 -0.00904 0.845771 0.533469 -0.042682 0.861911 0.50526 0.021379 0.901926 0.431361 -0.036553 0.838664 0.54342 -0.035323 0.816125 0.576795 0.02719 -0.824309 -0.565487 -0.901133 0.371339 0.223755 -0.21716 0.681301 0.69905 -0.0736 -0.835036 -0.545251 -0.154578 0.859018 0.488051 -0.058427 -0.860047 -0.506859 -0.048806 -0.863232 -0.502443 0.013031 -0.864417 -0.502607 0.070008 -0.885363 -0.4596 0.085301 -0.901201 -0.424924 0.101188 -0.883171 -0.458007 0.098923 0.85437 0.510164 -0.012071 0.811812 0.583794 0.154092 0.912532 0.378869 -0.015915 0.866197 0.49945 -0.015039 0.851009 0.524935 0.037635 0.828416 0.558848 -0.06482 0.832838 0.549708 -0.557594 -0.692553 -0.457668 -0.339017 -0.793875 -0.504806 0.160684 -0.803492 -0.57322 0.587757 -0.682177 -0.434943 0.758833 -0.532927 -0.374382 0.29194 -0.878679 -0.377749 0.120173 0.829103 0.546029 0.008844 0.850436 0.526004 -0.053403 0.839765 0.540318 -0.038521 0.849695 0.525865 -0.04118 0.847554 0.529109 -0.056446 0.861385 0.504806 -0.039074 0.871017 0.489696 -0.077923 0.879992 0.468553 -0.102117 0.847084 0.521557 -0.00833 -0.851211 -0.524758 -0.005457 -0.872881 -0.487902 -0.005779 -0.853742 -0.520664 0.00847 -0.85341 -0.521172 0.007472 -0.853875 -0.520424 0.021305 -0.859422 -0.510823 0.022744 -0.859556 -0.510536 -0.14355 0.857406 0.494216 0.031854 -0.885052 -0.464401 -0.079489 0.897517 0.433757 0.03373 -0.883847 -0.466558 -0.007491 -0.892511 -0.450964 -0.438918 0.531691 0.724331 0.480418 0.875758 0.047394 -0.858253 -0.490809 0.150029 0.103796 -0.817398 -0.566645 0.055821 -0.85159 -0.521228 -0.555565 -0.694161 -0.457699 -0.070211 -0.881208 -0.467486 -0.529321 -0.74843 -0.39959 -0.608006 -0.668614 -0.428116 0.147806 -0.854507 -0.497966 0.329408 -0.796061 -0.507717 0.366679 -0.829372 -0.421531 0.042171 -0.845102 -0.532939 0.082496 -0.863232 -0.49802 0.184657 -0.848045 -0.496711 -0.034642 -0.874822 -0.483204 -0.740349 0.571285 0.354284 -0.159634 0.852345 0.498022 -0.699268 0.624756 0.347424 -0.04091 0.854435 0.517946 0.4872 0.775223 0.402075 0.391157 0.788692 0.474301 -0.726051 0.607138 0.322854 -0.02764 -0.867759 -0.496217 0.012057 -0.865997 -0.499904 -0.043949 -0.88301 -0.467292 -0.060832 -0.840266 -0.538751 -0.087037 -0.912571 -0.399548 0.147764 -0.848413 -0.508293 0.100427 -0.856776 -0.505815 -0.084956 -0.914175 -0.396317 -0.085453 -0.909767 -0.406228 -0.278626 -0.83025 -0.482755 -0.298036 -0.850265 -0.433848 0.206777 -0.848749 -0.486691 0.19839 -0.8632 -0.46425 -0.08603 -0.896373 -0.434872 -0.006732 -0.891532 -0.452907 0.086498 -0.903695 -0.419348 0.026437 -0.91338 -0.406249 0.056156 -0.919814 -0.388314 -0.130966 0.909504 0.394527 -0.079934 0.895637 0.437543 -0.063325 0.900367 0.430498 -0.055636 0.92635 0.372533 -0.062715 0.900317 0.430693 -0.066397 0.895453 0.440177 -0.079298 0.897193 0.434461 -0.811288 0.532172 0.242084 -0.703539 0.631186 0.326554 -0.025225 0.896232 0.442867 0.268546 0.884318 0.381922 0.284883 0.874112 0.393407 0.110223 -0.879779 -0.462429 0.231766 0.822476 0.51944 0.569166 -0.723538 -0.390568 0.555564 -0.738885 -0.381311 0.128945 -0.883255 -0.450815 -0.023752 -0.916655 -0.398972 0.407308 0.661029 0.630192 0.101415 0.863845 0.493444 0.82184 0.512793 0.248237 0.164192 0.915351 0.367659 0.120942 0.85314 0.50747 0.049454 -0.906071 -0.420225 0.129216 0.853582 0.504679 0.02456 0.885646 0.463711 0.026404 0.884014 0.466714 -0.119898 0.89456 0.430566 0.136397 0.885942 0.443286 0.121338 0.890221 0.439072 0.814565 0.516816 0.26341 -0.503004 0.835998 -0.219305 0.821438 0.509956 0.255312 0.311658 0.867577 0.387531 0.084062 -0.927464 -0.36434 -0.044609 -0.907643 -0.417366 -0.01021 -0.939228 -0.343143 -0.009628 -0.943631 -0.330859 0.141063 0.927947 0.344986 0.122939 0.904457 0.408464 0.074458 0.904579 0.419754 0.064732 0.91041 0.408613 0.071421 0.896032 0.438207 -0.080302 -0.922436 -0.377708 -0.058923 -0.924311 -0.377064 -0.078878 -0.927256 -0.366026 -0.068918 -0.931789 -0.356398 -0.108006 -0.925441 -0.363172 -0.074411 -0.943568 -0.322712 -0.042147 -0.911329 -0.409516 0.059483 -0.935924 -0.347142 -0.01162 -0.912417 -0.409097 -0.119068 -0.914416 -0.386868 -0.088575 -0.897715 -0.431581 0.074773 -0.921045 -0.382211 0.05737 -0.926007 -0.373121 0.073793 -0.916252 -0.393748 0.025319 -0.927561 -0.372814 0.084951 -0.927841 -0.363171 0.06912 -0.954572 -0.289852 0.095176 -0.922973 -0.372912 -0.151642 0.941359 0.301409 0.006837 -0.932385 -0.361402 -0.003077 -0.939729 -0.341906 -0.476153 -0.508573 -0.717379 0.346638 -0.892527 -0.288509 0.127291 -0.933151 -0.336195 0.106189 -0.943193 -0.31482 0.090815 -0.937105 -0.337028 0.116598 -0.947738 -0.296982 0.097727 -0.938864 -0.330126 -0.098507 -0.950986 -0.293125 0.10346 -0.929515 -0.353975 0.046099 -0.969954 -0.238883 -0.202708 0.913356 0.353115 -0.145799 0.950466 0.274511 -0.192153 0.912753 0.360499 -0.098643 0.953106 0.28611 -0.10856 0.933383 0.342069 -0.700618 0.664591 0.259717 -0.685612 0.669423 0.286021 -0.144877 0.9108 0.386594 -0.16437 0.903385 0.396078 -0.094555 0.90789 0.408405 -0.130058 0.935706 0.327931 0.40446 0.843971 0.352313 0.409754 0.840479 0.354538 0.334758 0.868201 0.366284 0.197388 0.902115 0.3837 0.132112 0.933241 0.334078 0.166272 0.902497 0.397306 0.094062 0.91766 0.386072 0.118184 0.921694 0.369476 0.072336 0.928341 0.364625 0.071786 0.928242 0.364985 0.164177 0.912253 0.375288 -0.070032 -0.936721 -0.343 -0.090726 -0.927075 -0.363732 0.178708 0.916924 0.35681 0.082218 0.970303 0.227493 0.165582 0.868004 0.468136 0.308546 0.841259 0.44394 0.050687 0.968907 0.242179 -0.020986 -0.955637 -0.293798 0.012662 -0.957717 -0.287434 0.18991 0.91401 0.358498 -0.103518 -0.93874 -0.328711 -0.099728 -0.941458 -0.322042 -0.141883 -0.9288 -0.342346 -0.099301 -0.941374 -0.32242 -0.095681 -0.944354 -0.314706 -0.149892 -0.943189 -0.296525 -0.010672 -0.958691 -0.284249 0.134842 0.954579 0.265701 0.212716 0.901872 0.376003 0.222809 0.90499 0.362422 0.186472 0.914164 0.359906 0.10481 0.962493 0.250244 -0.07349 -0.926924 -0.367982 -0.022743 -0.93908 -0.342945 -0.003404 -0.952335 -0.305036 -0.028763 -0.959188 -0.281304 0.007074 -0.952076 -0.30578 -0.105798 -0.979123 -0.173564 0.016761 -0.955418 -0.294782 0.102187 -0.953022 -0.285145 -0.033346 -0.961561 -0.272558 -0.461075 0.834993 0.300329 -0.112433 0.927863 0.355569 -0.122001 0.954732 0.271299 -0.244429 0.904466 0.349566 -0.110438 0.933735 0.340503 -0.11488 0.930767 0.347096 -0.129717 0.929926 0.344108 -0.094814 0.941351 0.323833 -0.120725 0.915973 0.382648 -0.124542 0.918264 0.375874 -0.62339 0.761028 0.179502 -0.10291 0.938386 0.32991 0.298438 0.924902 0.235565 -0.144957 0.938527 0.313297 -0.11477 0.96606 0.231422 -0.13929 0.939266 0.313653 -0.140383 0.939746 0.311722 -0.126891 0.941568 0.312007 0.332179 0.894784 0.298359 0.212594 0.931801 0.294195 0.166588 0.868997 0.465933 0.327884 0.878926 0.346383 0.051225 0.958866 0.2792 -0.142043 -0.940545 -0.308544 -0.138865 -0.939736 -0.31243 -0.090321 -0.945854 -0.311773 0.070135 0.970754 0.229604 0.115509 0.966337 0.229892 0.083053 0.957306 0.276887 0.118207 0.956138 0.268006 0.165995 0.945832 0.279013 -0.056152 0.907661 0.415932 -0.024633 -0.978888 -0.202909 -0.065802 -0.956386 -0.284597 0.047175 -0.966147 -0.253643 -0.202482 0.948987 0.241711 0.102172 -0.953013 -0.285178 -0.101374 0.983097 0.152458 0.135338 -0.927375 -0.348797 -0.067165 0.972718 0.222055 0.030947 -0.960273 -0.277343 -0.115347 -0.951661 -0.284669 0.143308 -0.969911 -0.196813 -0.043952 -0.950635 -0.307183 0.010658 -0.939467 -0.342473 -0.076113 -0.981941 -0.1732 0.075012 -0.985687 -0.150979 -0.026101 -0.971673 -0.234884 -0.053408 -0.980106 -0.191153 -0.089861 -0.957468 -0.27419 -0.130814 -0.958008 -0.255165 -0.019196 -0.969413 -0.244684 -0.135984 -0.954815 -0.264266 0.006969 -0.94934 -0.314175 -0.111251 -0.961092 -0.252833 -0.068484 -0.957297 -0.280877 -0.115494 -0.951598 -0.284819 -0.125052 -0.959198 -0.253576 0.053821 -0.976318 -0.20954 0.085042 -0.958856 -0.270857 0.050243 -0.955604 -0.29034 0.177752 -0.930997 -0.318823 0.107799 -0.969668 -0.21937 -0.030065 -0.968015 -0.249086 -0.213217 0.929305 0.301547 -0.208243 0.933233 0.292765 -0.10996 0.970146 0.216163 -0.195291 0.957375 0.212827 -0.101835 0.958594 0.265946 -0.159764 0.928997 0.333827 -0.163922 0.951822 0.259161 0.287534 0.892492 0.347538 0.022064 -0.983327 -0.180504 0.03152 -0.965355 -0.25903 0.209566 0.946414 0.245729 -0.116812 0.963941 0.239108 0.186878 0.947 0.261281 0.074845 0.962858 0.259428 0.237456 0.960158 0.147348 0.089398 0.974051 0.207924 -0.123984 0.966386 0.225225 0.094866 0.978167 0.184902 -0.255891 0.948767 0.185368 -0.082882 0.994636 0.061893 0.053557 -0.989224 -0.136264 0.154543 -0.957813 -0.242303 0.132101 -0.960802 -0.24374 0.094555 -0.975559 -0.198351 0.542109 -0.79093 0.28381 0.177571 -0.93698 -0.300893 -0.168 -0.971495 -0.167255 -0.159622 -0.975873 -0.148974 -0.148869 -0.974222 -0.169499 0.150529 0.955302 0.25444 -0.072854 -0.963407 -0.257952 -0.070297 -0.969039 -0.236687 -0.117024 -0.96121 -0.24976 -0.122093 -0.957036 -0.263011 0.022581 -0.971411 -0.236329 0.2383 0.960322 0.144898 0.095002 -0.962362 -0.254625 0.046316 -0.955442 -0.291522 -0.089309 0.976397 0.196655 -0.189915 0.950585 0.245601 -0.193668 0.946249 0.259049 -0.120135 0.910026 0.396763 -0.457599 0.86836 0.191193 0.301892 0.78527 0.540567 -0.089363 0.920551 0.380264 -0.121857 0.865406 0.486028 0.510179 0.398268 0.7623 0.385618 -0.008139 0.922623 -0.428707 0.7909 0.436677 0.590201 0.694525 0.411459 0.745419 0.539173 0.391974 0.507342 0.730035 0.457879 -0.631966 0.635154 0.44407 -0.052384 0.842823 0.535635 0.57237 0.669195 0.473888 0.720866 0.59652 0.352868 0.213503 0.810274 0.545777 0.224477 0.81273 0.537662 -0.078245 0.848305 0.523695 0.008926 0.862617 0.505778 0.110773 0.876259 0.468934 0.025347 0.87621 0.481263 0.099833 0.873953 0.475646 -0.061019 0.948317 0.311404 -0.001283 0.963357 0.268221 0.229541 0.892902 0.387345 -0.231959 0.968349 -0.092166 0.313317 0.914359 0.256476 0.124302 0.932801 0.338276 0.129881 0.935977 0.327227 0.105251 0.934992 0.338691 0.118158 0.932446 0.341444 0.191488 0.932346 0.306697 0.142504 0.94413 0.297171 0.139578 0.948087 0.285744 0.166474 0.923784 0.344833 0.067688 0.970529 0.231284 0.113773 0.937473 0.328937 0.086348 0.964131 0.25099 0.151361 0.959917 0.235903 0.159267 0.954706 0.251338 0.071816 0.977172 0.199944 0.09127 0.974923 0.202965 -0.265873 -0.806399 -0.528235 0.200989 0.943255 0.264335 0.19342 0.931622 0.307684 0.13131 0.960258 0.246298 0.197404 0.930895 0.307354 0.142102 0.962372 0.231617 0.141496 0.962407 0.231844 0.152879 0.968643 0.195855 0.02669 0.994111 0.105026 -0.046564 0.967928 0.246874 0.078028 0.988843 0.126889 0.149356 0.970479 0.189376 -0.15062 -0.953298 -0.261796 0.042003 -0.980138 -0.193818 -0.058693 0.91777 0.392752 -0.153783 0.954813 0.254328 -0.106791 0.967622 0.228698 -0.127355 0.971166 0.201537 -0.226061 0.959571 0.16769 -0.146006 0.967122 0.208226 0.098062 0.955674 0.277617 0.169146 0.947784 0.270363 0.224771 0.964357 0.139621 0.155566 0.931503 0.328788 0.004265 0.832876 0.553443 0.057423 0.973044 0.223355 -0.071734 -0.927353 -0.367248 0.142408 -0.978242 0.150874 -0.298472 0.758995 0.578655 0.032415 -0.417853 -0.907936 0.055828 -0.851577 -0.521249 0.055835 -0.851593 -0.521221 0.055799 -0.8516 -0.521213 -0.119124 -0.914442 -0.386789 -0.118718 -0.914496 -0.386784 -0.119363 -0.914308 -0.387032 0.024931 -0.970949 -0.237985</float_array>
          <technique_common>
            <accessor source="#EagleFeather-mesh-normals-array" count="502" stride="3">
              <param name="X" type="float"/>
              <param name="Y" type="float"/>
              <param name="Z" type="float"/>
            </accessor>
          </technique_common>
        </source>
        <source id="EagleFeather-mesh-map-0">
          <float_array id="EagleFeather-mesh-map-0-array" count="3012">0.827148 0.91333 0.802734 0.88208 0.800293 0.831055 0.800293 0.831055 0.802734 0.88208 0.751709 0.822021 0.802734 0.88208 0.827148 0.91333 0.775879 0.88623 0.802734 0.88208 0.775879 0.88623 0.751709 0.822021 0.775879 0.88623 0.827148 0.91333 0.757812 0.912354 0.751709 0.822021 0.775879 0.88623 0.690186 0.819092 0.690186 0.819092 0.775879 0.88623 0.757812 0.912354 0.690186 0.819092 0.757812 0.912354 0.680908 0.848389 0.680908 0.848389 0.757812 0.912354 0.72876 0.911621 0.796631 0.1604 0.77832 0.23291 0.753906 0.222656 0.796631 0.1604 0.753906 0.222656 0.757812 0.192139 0.753906 0.222656 0.77832 0.23291 0.697266 0.31543 0.753906 0.222656 0.697266 0.31543 0.693359 0.266846 0.697266 0.31543 0.77832 0.23291 0.716553 0.327881 0.716553 0.327881 0.77832 0.23291 0.787842 0.273193 0.716553 0.327881 0.787842 0.273193 0.7229 0.375 0.7229 0.375 0.787842 0.273193 0.794922 0.323486 0.261719 0.92041 0.221924 0.968506 0.231934 0.915771 0.221924 0.968506 0.261719 0.92041 0.251465 0.970947 0.231934 0.915771 0.221924 0.968506 0.193604 0.974121 0.231934 0.915771 0.193604 0.974121 0.219727 0.864258 0.219727 0.864258 0.193604 0.974121 0.172119 0.937012 0.172119 0.937012 0.193604 0.974121 0.162109 0.95874 0.219727 0.864258 0.172119 0.937012 0.193359 0.858887 0.172119 0.937012 0.162109 0.95874 0.148682 0.939941 0.172119 0.937012 0.148682 0.939941 0.193359 0.858887 0.193359 0.858887 0.148682 0.939941 0.136719 0.913574 0.136719 0.913574 0.148682 0.939941 0.123535 0.94751 0.075928 0.326172 0.105957 0.320068 0.087402 0.364258 0.105957 0.320068 0.075928 0.326172 0.07666 0.309082 0.07666 0.309082 0.075928 0.326172 0.050049 0.330566 0.07666 0.309082 0.050049 0.330566 0.024414 0.336914 0.050049 0.330566 0.075928 0.326172 0.067871 0.332275 0.067871 0.332275 0.075928 0.326172 0.087402 0.364258 0.050049 0.330566 0.067871 0.332275 0.030029 0.348633 0.030029 0.348633 0.067871 0.332275 0.087402 0.364258 0.030029 0.348633 0.087402 0.364258 0.039307 0.410645 0.039307 0.410645 0.087402 0.364258 0.11377 0.383301 0.039307 0.410645 0.11377 0.383301 0.003418 0.464355 0.001221 0.952393 0.005371 0.926514 0.067871 0.974121 0.067871 0.974121 0.005371 0.926514 0.12085 0.959229 0.12085 0.959229 0.005371 0.926514 0.112061 0.920166 0.112061 0.920166 0.005371 0.926514 0.046875 0.895996 0.058838 0.780762 0.031006 0.78125 0.056641 0.76123 0.056641 0.76123 0.031006 0.78125 0.02417 0.750488 0.058838 0.780762 0.056641 0.76123 0.073975 0.766846 0.510498 0.953369 0.501953 0.973145 0.481934 0.965576 0.510498 0.953369 0.481934 0.965576 0.500244 0.937012 0.510498 0.953369 0.500244 0.937012 0.529297 0.900879 0.510498 0.953369 0.529297 0.900879 0.529297 0.973145 0.696045 0.67041 0.684082 0.750977 0.667236 0.734131 0.696045 0.67041 0.667236 0.734131 0.677246 0.671631 0.696045 0.67041 0.677246 0.671631 0.705811 0.651855 0.677246 0.671631 0.667236 0.734131 0.653076 0.681641 0.653076 0.681641 0.667236 0.734131 0.51123 0.75 0.653076 0.681641 0.51123 0.75 0.609375 0.669678 0.609375 0.669678 0.51123 0.75 0.498047 0.657715 0.332275 0.849365 0.331055 0.774658 0.400146 0.778076 0.400146 0.778076 0.331055 0.774658 0.372314 0.729248 0.400146 0.778076 0.372314 0.729248 0.467285 0.697021 0.400146 0.778076 0.467285 0.697021 0.506104 0.755615 0.332275 0.849365 0.400146 0.778076 0.425781 0.842041 0.400146 0.778076 0.506104 0.755615 0.493652 0.81665 0.400146 0.778076 0.493652 0.81665 0.425781 0.842041 0.425781 0.842041 0.493652 0.81665 0.480957 0.846924 0.380859 0.850586 0.398193 0.880371 0.299316 0.895996 0.380859 0.850586 0.299316 0.895996 0.273193 0.874756 0.299316 0.895996 0.398193 0.880371 0.373047 0.942871 0.299316 0.895996 0.373047 0.942871 0.267334 0.939941 0.848145 0.314209 0.887451 0.339111 0.78125 0.341553 0.78125 0.341553 0.887451 0.339111 0.876709 0.392578 0.78125 0.341553 0.876709 0.392578 0.797119 0.451172 0.78125 0.341553 0.797119 0.451172 0.717529 0.424072 0.717529 0.424072 0.797119 0.451172 0.746094 0.469482 0.746094 0.469482 0.797119 0.451172 0.727295 0.483887 0.727295 0.483887 0.797119 0.451172 0.776123 0.49585 0.776123 0.49585 0.797119 0.451172 0.838867 0.481445 0.838867 0.481445 0.797119 0.451172 0.876709 0.392578 0.838867 0.481445 0.876709 0.392578 0.881592 0.428955 0.838867 0.481445 0.881592 0.428955 0.859375 0.540039 0.859375 0.540039 0.881592 0.428955 0.905762 0.490967 0.837402 0.806641 0.817383 0.826416 0.688477 0.806885 0.938477 0.475098 0.935059 0.405029 0.948242 0.419678 0.948242 0.419678 0.935059 0.405029 0.947021 0.357666 0.439941 0.048096 0.466797 0.077393 0.338867 0.030518 0.875488 0.954834 0.89209 0.981689 0.857178 0.968018 0.857178 0.968018 0.89209 0.981689 0.861572 0.98584 0.875488 0.954834 0.857178 0.968018 0.855469 0.949707 0.855469 0.949707 0.857178 0.968018 0.842041 0.959473 0.855469 0.949707 0.842041 0.959473 0.847656 0.945312 0.855469 0.949707 0.847656 0.945312 0.844971 0.936523 0.844971 0.936523 0.847656 0.945312 0.841553 0.937012 0.761963 0.007324 0.783936 0.023438 0.780762 0.062744 0.780762 0.062744 0.783936 0.023438 0.812744 0.062012 0.780762 0.062744 0.812744 0.062012 0.79126 0.083984 0.812744 0.062012 0.783936 0.023438 0.835205 0.022705 0.812744 0.062012 0.835205 0.022705 0.87915 0.058838 0.232422 0.99707 0.275146 0.983398 0.265625 0.996338 0.93042 0.079102 0.980713 0.101318 0.995605 0.120605 0.995605 0.120605 0.980713 0.101318 0.993652 0.050537 0.993652 0.050537 0.980713 0.101318 0.93042 0.079102 0.993652 0.050537 0.93042 0.079102 0.962891 0.027588 0.993652 0.050537 0.962891 0.027588 0.998291 0.01709 0.962891 0.027588 0.93042 0.079102 0.893066 0.01709 0.548828 0.925781 0.531738 0.893066 0.558838 0.918213 0.548828 0.925781 0.558838 0.918213 0.557129 0.962402 0.982422 0.723633 0.975098 0.809326 0.969238 0.780273 0.969238 0.780273 0.975098 0.809326 0.94873 0.815918 0.057861 0.578857 0.112305 0.629639 0.105225 0.670654 0.112305 0.629639 0.057861 0.578857 0.106445 0.595215 0.105225 0.670654 0.112305 0.629639 0.161865 0.70752 0.161865 0.70752 0.112305 0.629639 0.156738 0.631348 0.105225 0.670654 0.161865 0.70752 0.121094 0.746826 0.057861 0.578857 0.105225 0.670654 0.048096 0.639404 0.105225 0.670654 0.121094 0.746826 0.082031 0.689209 0.105225 0.670654 0.082031 0.689209 0.048096 0.639404 0.082031 0.689209 0.121094 0.746826 0.080322 0.761719 0.02417 0.661133 0.001953 0.61499 0.048096 0.639404 0.02417 0.661133 0.048096 0.639404 0.015381 0.694824 0.015381 0.694824 0.048096 0.639404 0.082031 0.689209 0.015381 0.694824 0.082031 0.689209 0.080322 0.761719 0.015381 0.694824 0.080322 0.761719 0.025635 0.744385 0.015381 0.694824 0.025635 0.744385 0 0.736084 0.898926 0.561035 0.924316 0.589111 0.93042 0.632812 0.898926 0.561035 0.93042 0.632812 0.87793 0.553223 0.87793 0.553223 0.93042 0.632812 0.912842 0.63916 0.87793 0.553223 0.912842 0.63916 0.864502 0.57251 0.864502 0.57251 0.912842 0.63916 0.88501 0.613525 0.88501 0.613525 0.912842 0.63916 0.901123 0.683105 0.454346 0.400879 0.476807 0.365723 0.490723 0.429688 0.490723 0.429688 0.476807 0.365723 0.493408 0.314697 0.493408 0.314697 0.476807 0.365723 0.458496 0.309082 0.490723 0.429688 0.493408 0.314697 0.567871 0.366211 0.490723 0.429688 0.567871 0.366211 0.575684 0.402344 0.493408 0.314697 0.458496 0.309082 0.518066 0.251465 0.518066 0.251465 0.458496 0.309082 0.447021 0.236572 0.567871 0.366211 0.493408 0.314697 0.563721 0.285156 0.563721 0.285156 0.493408 0.314697 0.518066 0.251465 0.575684 0.402344 0.567871 0.366211 0.640381 0.347168 0.640381 0.347168 0.567871 0.366211 0.563721 0.285156 0.575684 0.402344 0.640381 0.347168 0.658447 0.40332 0.658447 0.40332 0.640381 0.347168 0.676025 0.379883 0.676025 0.379883 0.640381 0.347168 0.678711 0.301025 0.678711 0.301025 0.640381 0.347168 0.648682 0.266602 0.648682 0.266602 0.640381 0.347168 0.563721 0.285156 0.563721 0.285156 0.518066 0.251465 0.55835 0.172607 0.563721 0.285156 0.55835 0.172607 0.648682 0.266602 0.55835 0.172607 0.518066 0.251465 0.499023 0.20752 0.648682 0.266602 0.55835 0.172607 0.646484 0.182373 0.648682 0.266602 0.646484 0.182373 0.688477 0.212402 0.561523 0.023193 0.580566 0.04248 0.532715 0.041504 0.532715 0.041504 0.580566 0.04248 0.5625 0.045166 0.561523 0.023193 0.532715 0.041504 0.509033 0.041992 0.561523 0.023193 0.509033 0.041992 0.565674 0 0.058105 0.528076 0.019287 0.5 0.040527 0.479736 0.387207 0.077881 0.342773 0.038574 0.464355 0.093018 0.503174 0.046143 0.572021 0.05127 0.464355 0.093018 0.464355 0.093018 0.572021 0.05127 0.483887 0.116455 0.464355 0.093018 0.483887 0.116455 0.387207 0.077881 0.387207 0.077881 0.483887 0.116455 0.37915 0.098389 0.37915 0.098389 0.483887 0.116455 0.483398 0.150879 0.483398 0.150879 0.483887 0.116455 0.546387 0.17334 0.37915 0.098389 0.483398 0.150879 0.465576 0.19165 0.465576 0.19165 0.483398 0.150879 0.489258 0.21875 0.37915 0.098389 0.465576 0.19165 0.374268 0.157959 0.374268 0.157959 0.465576 0.19165 0.375244 0.241699 0.168457 0.313965 0.177002 0.362061 0.146973 0.378906 0.168457 0.313965 0.146973 0.378906 0.130615 0.311279 0.146973 0.378906 0.177002 0.362061 0.14624 0.439941 0.14624 0.439941 0.177002 0.362061 0.199219 0.36499 0.14624 0.439941 0.199219 0.36499 0.193359 0.426758 0.14624 0.439941 0.193359 0.426758 0.131104 0.494629 0.658936 0.740479 0.684082 0.808838 0.665283 0.886719 0.449951 0.560303 0.477295 0.498779 0.52002 0.565186 0.449951 0.560303 0.52002 0.565186 0.43457 0.611572 0.43457 0.611572 0.52002 0.565186 0.489746 0.632568 0.52002 0.565186 0.477295 0.498779 0.528076 0.510986 0.52002 0.565186 0.528076 0.510986 0.554199 0.552002 0.528076 0.510986 0.477295 0.498779 0.515625 0.49585 0.515625 0.49585 0.477295 0.498779 0.504639 0.479492 0.554199 0.552002 0.528076 0.510986 0.553223 0.502686 0.554199 0.552002 0.553223 0.502686 0.671143 0.507568 0.29541 0.651611 0.335938 0.586182 0.339111 0.601318 0.339111 0.601318 0.335938 0.586182 0.424561 0.61084 0.339111 0.601318 0.424561 0.61084 0.411133 0.621582 0.411133 0.621582 0.424561 0.61084 0.458496 0.667969 0.424561 0.61084 0.335938 0.586182 0.438965 0.573486 0.438965 0.573486 0.335938 0.586182 0.35498 0.529541 0.438965 0.573486 0.35498 0.529541 0.458496 0.514648 0.458496 0.514648 0.35498 0.529541 0.367676 0.446045 0.458496 0.514648 0.367676 0.446045 0.469482 0.439697 0.469482 0.439697 0.367676 0.446045 0.428223 0.381104 0.428223 0.381104 0.367676 0.446045 0.351074 0.345703 0.428223 0.381104 0.351074 0.345703 0.406982 0.306396 0.428223 0.381104 0.406982 0.306396 0.467041 0.356201 0.406982 0.306396 0.351074 0.345703 0.344482 0.295898 0.344482 0.295898 0.351074 0.345703 0.299072 0.351318 0.406982 0.306396 0.344482 0.295898 0.427979 0.241211 0.427979 0.241211 0.344482 0.295898 0.370361 0.254639 0.370361 0.254639 0.344482 0.295898 0.300293 0.29834 0.370361 0.254639 0.300293 0.29834 0.315186 0.272949 0.370361 0.254639 0.315186 0.272949 0.362061 0.239014 0.370361 0.254639 0.362061 0.239014 0.365479 0.17041 0.677734 0.448242 0.702881 0.471924 0.711914 0.493896 0.702881 0.471924 0.677734 0.448242 0.700684 0.460938 0.706543 0.501709 0.711914 0.493896 0.773438 0.535889 0.711914 0.493896 0.706543 0.501709 0.625 0.487549 0.711914 0.493896 0.625 0.487549 0.677734 0.448242 0.677734 0.448242 0.625 0.487549 0.541748 0.497314 0.700684 0.460938 0.677734 0.448242 0.664307 0.424805 0.700684 0.460938 0.664307 0.424805 0.716797 0.368164 0.700684 0.460938 0.716797 0.368164 0.710449 0.456543 0.716797 0.368164 0.664307 0.424805 0.702148 0.333008 0.001221 0.222656 0.045898 0.215576 0.044922 0.253174 0.001221 0.222656 0.044922 0.253174 0.015137 0.265381 0.044922 0.253174 0.045898 0.215576 0.097656 0.26123 0.097656 0.26123 0.045898 0.215576 0.089844 0.213135 0.089844 0.213135 0.045898 0.215576 0.050537 0.181152 0.089844 0.213135 0.050537 0.181152 0.084473 0.194092 0.097656 0.26123 0.089844 0.213135 0.133545 0.263184 0.133545 0.263184 0.089844 0.213135 0.11792 0.223145 0.133545 0.263184 0.11792 0.223145 0.12207 0.202393 0.11792 0.223145 0.089844 0.213135 0.102539 0.209961 0.12207 0.202393 0.11792 0.223145 0.11084 0.202881 0.11084 0.202881 0.11792 0.223145 0.102539 0.209961 0.28833 0.438477 0.351318 0.433105 0.2771 0.497314 0.2771 0.497314 0.351318 0.433105 0.32251 0.595215 0.28833 0.438477 0.2771 0.497314 0.226807 0.476807 0.226807 0.476807 0.2771 0.497314 0.193848 0.526855 0.226807 0.476807 0.193848 0.526855 0.212402 0.420898 0.226807 0.476807 0.212402 0.420898 0.28833 0.438477 0.28833 0.438477 0.212402 0.420898 0.276123 0.343262 0.276123 0.343262 0.212402 0.420898 0.196777 0.310303 0.28833 0.438477 0.276123 0.343262 0.327148 0.379639 0.900391 0.354248 0.892578 0.294189 0.932617 0.323242 0.900391 0.354248 0.932617 0.323242 0.949951 0.352539 0.932617 0.323242 0.892578 0.294189 0.951904 0.293457 0.951904 0.293457 0.892578 0.294189 0.95459 0.251221 0.95459 0.251221 0.892578 0.294189 0.897949 0.24585 0.95459 0.251221 0.897949 0.24585 0.916992 0.215576 0.897949 0.24585 0.892578 0.294189 0.83667 0.309082 0.916992 0.215576 0.897949 0.24585 0.863525 0.248779 0.863525 0.248779 0.897949 0.24585 0.83667 0.309082 0.687012 0.885254 0.709717 0.955078 0.689453 0.955322 0.470459 0.057617 0.445557 0.043213 0.455566 0.000244 0.455566 0.000244 0.445557 0.043213 0.400635 0.034912 0.166992 0.713379 0.171387 0.673584 0.208008 0.70166 0.166992 0.713379 0.208008 0.70166 0.218262 0.734131 0.166992 0.713379 0.218262 0.734131 0.200439 0.778809 0.166992 0.713379 0.200439 0.778809 0.139404 0.78125 0.200439 0.778809 0.218262 0.734131 0.241455 0.755859 0.139404 0.78125 0.200439 0.778809 0.194824 0.828125 0.241455 0.755859 0.218262 0.734131 0.259766 0.726562 0.139404 0.78125 0.194824 0.828125 0.163574 0.8396 0.163574 0.8396 0.194824 0.828125 0.177002 0.86377 0.177002 0.86377 0.194824 0.828125 0.194092 0.847412 0.194092 0.847412 0.194824 0.828125 0.236816 0.863525 0.194824 0.828125 0.200439 0.778809 0.243408 0.825684 0.194824 0.828125 0.243408 0.825684 0.236816 0.863525 0.243408 0.825684 0.200439 0.778809 0.241455 0.755859 0.236816 0.863525 0.243408 0.825684 0.302246 0.860352 0.243408 0.825684 0.241455 0.755859 0.271973 0.791992 0.302246 0.860352 0.243408 0.825684 0.294678 0.832275 0.294678 0.832275 0.243408 0.825684 0.271973 0.791992 0.302246 0.860352 0.294678 0.832275 0.324463 0.857666 0.271973 0.791992 0.241455 0.755859 0.294434 0.766113 0.271973 0.791992 0.294434 0.766113 0.294678 0.832275 0.294434 0.766113 0.241455 0.755859 0.259766 0.726562 0.294678 0.832275 0.294434 0.766113 0.336182 0.744141 0.336182 0.744141 0.294434 0.766113 0.259766 0.726562 0.2229 0.124512 0.217773 0.133057 0.157959 0.099854 0.217773 0.133057 0.2229 0.124512 0.27002 0.104248 0.2229 0.124512 0.157959 0.099854 0.208984 0.101318 0.2229 0.124512 0.208984 0.101318 0.252197 0.092773 0.252197 0.092773 0.208984 0.101318 0.234375 0.049316 0.157959 0.099854 0.217773 0.133057 0.147461 0.106689 0.147461 0.106689 0.217773 0.133057 0.195557 0.134277 0.195557 0.134277 0.217773 0.133057 0.239746 0.189209 0.147461 0.106689 0.195557 0.134277 0.131592 0.118164 0.195557 0.134277 0.239746 0.189209 0.207764 0.192383 0.131592 0.118164 0.195557 0.134277 0.157471 0.157471 0.157471 0.157471 0.195557 0.134277 0.207764 0.192383 0.157471 0.157471 0.207764 0.192383 0.153564 0.201416 0.157471 0.157471 0.153564 0.201416 0.122314 0.176025 0.153564 0.201416 0.207764 0.192383 0.169922 0.247803 0.153564 0.201416 0.169922 0.247803 0.135254 0.236328 0.135254 0.236328 0.169922 0.247803 0.140869 0.271484 0.336426 0.995117 0.27832 0.999756 0.306641 0.970215 0.306641 0.970215 0.27832 0.999756 0.281982 0.945312 0.336426 0.995117 0.306641 0.970215 0.325439 0.946533 0.325439 0.946533 0.306641 0.970215 0.281982 0.945312 0.936279 0.224854 0.946045 0.221436 0.954834 0.236816 0.954834 0.236816 0.946045 0.221436 0.98999 0.228271 0.954834 0.236816 0.98999 0.228271 0.968994 0.250732 0.730469 0.96582 0.720215 0.983398 0.722168 0.92627 0.730469 0.96582 0.722168 0.92627 0.729248 0.916504 0.730469 0.96582 0.729248 0.916504 0.748047 0.96875 0.900391 0.900146 0.921875 0.961182 0.885986 0.95166 0.900391 0.900146 0.885986 0.95166 0.873779 0.894043 0.873779 0.894043 0.885986 0.95166 0.844482 0.928711 0.900391 0.900146 0.873779 0.894043 0.896729 0.859863 0.896729 0.859863 0.873779 0.894043 0.877197 0.835693 0.896729 0.859863 0.877197 0.835693 0.887207 0.814453 0.896729 0.859863 0.887207 0.814453 0.898438 0.841553 0.898438 0.841553 0.887207 0.814453 0.915283 0.846436 0.898438 0.841553 0.915283 0.846436 0.896729 0.859863 0.896729 0.859863 0.915283 0.846436 0.900391 0.900146 0.900391 0.900146 0.915283 0.846436 0.930664 0.875488 0.930664 0.875488 0.915283 0.846436 0.926025 0.830811 0.432129 0.668945 0.395996 0.714844 0.355225 0.656982 0.355225 0.656982 0.395996 0.714844 0.343262 0.700684 0.355225 0.656982 0.343262 0.700684 0.296631 0.659912 0.355225 0.656982 0.296631 0.659912 0.331299 0.628418 0.296631 0.659912 0.343262 0.700684 0.296875 0.712891 0.296875 0.712891 0.343262 0.700684 0.337158 0.729004 0.296631 0.659912 0.296875 0.712891 0.236572 0.660645 0.236572 0.660645 0.296875 0.712891 0.222412 0.727783 0.296631 0.659912 0.236572 0.660645 0.23291 0.626465 0.101562 0.425781 0.06665 0.436768 0.106201 0.402832 0.106201 0.402832 0.06665 0.436768 0.064453 0.427979 0.06665 0.436768 0.101562 0.425781 0.103516 0.44165 0.06665 0.436768 0.103516 0.44165 0.046875 0.476807 0.046875 0.476807 0.103516 0.44165 0.096436 0.496338 0.046875 0.476807 0.096436 0.496338 0.065674 0.530273 0.065674 0.530273 0.096436 0.496338 0.106201 0.524658 0.065674 0.530273 0.106201 0.524658 0.11792 0.554199 0.065674 0.530273 0.11792 0.554199 0.071289 0.57666 0.065674 0.530273 0.071289 0.57666 0.044922 0.559814 0.595703 0.654297 0.594238 0.620361 0.638428 0.573975 0.595703 0.654297 0.638428 0.573975 0.617676 0.663574 0.638428 0.573975 0.594238 0.620361 0.584961 0.592529 0.617676 0.663574 0.638428 0.573975 0.678223 0.578857 0.678223 0.578857 0.638428 0.573975 0.703857 0.508301 0.617676 0.663574 0.678223 0.578857 0.707275 0.64624 0.707275 0.64624 0.678223 0.578857 0.750732 0.606445 0.707275 0.64624 0.750732 0.606445 0.755615 0.666992 0.584961 0.592529 0.594238 0.620361 0.521973 0.635498 0.584961 0.592529 0.521973 0.635498 0.554932 0.587646 0.584961 0.592529 0.554932 0.587646 0.555908 0.582764 0.554932 0.587646 0.521973 0.635498 0.506104 0.613037 0.554932 0.587646 0.506104 0.613037 0.521729 0.578125 0.100342 0.030518 0.142578 0.101807 0.087402 0.116699 0.100342 0.030518 0.087402 0.116699 0.03418 0.064941 0.100342 0.030518 0.03418 0.064941 0.000244 0.029785 0.000244 0.029785 0.03418 0.064941 0.003174 0.124268 0.003174 0.124268 0.03418 0.064941 0.087402 0.116699 0.003174 0.124268 0.087402 0.116699 0.031982 0.176758 0.031982 0.176758 0.087402 0.116699 0.076172 0.161865 0.076172 0.161865 0.087402 0.116699 0.111816 0.182861 0.031982 0.176758 0.076172 0.161865 0.07373 0.171875 0.994141 0.921143 0.990479 0.975098 0.926025 0.988037 0.994141 0.921143 0.926025 0.988037 0.927246 0.900879 0.023926 0.892334 0.01001 0.799805 0.061279 0.82373 0.061279 0.82373 0.01001 0.799805 0.063477 0.786865 0.023926 0.892334 0.061279 0.82373 0.123291 0.884766 0.061279 0.82373 0.063477 0.786865 0.12207 0.827148 0.061279 0.82373 0.12207 0.827148 0.123291 0.884766 0.12207 0.827148 0.063477 0.786865 0.131836 0.749512 0.123291 0.884766 0.12207 0.827148 0.172607 0.869141 0.75415 0.962402 0.736572 0.91748 0.831055 0.917969 0.75415 0.962402 0.831055 0.917969 0.796143 0.967529 0.836426 0.197266 0.87915 0.225342 0.841064 0.260498 0.87915 0.225342 0.836426 0.197266 0.885254 0.198975 0.885254 0.198975 0.836426 0.197266 0.877686 0.168213 0.885254 0.198975 0.877686 0.168213 0.903809 0.102295 0.903809 0.102295 0.877686 0.168213 0.868408 0.095459 0.903809 0.102295 0.868408 0.095459 0.905762 0.050293 0.877686 0.168213 0.836426 0.197266 0.835938 0.13208 0.877686 0.168213 0.835938 0.13208 0.868408 0.095459 0.835938 0.13208 0.836426 0.197266 0.784668 0.137695 0.868408 0.095459 0.835938 0.13208 0.828613 0.066406 0.835938 0.13208 0.784668 0.137695 0.781982 0.101074 0.835938 0.13208 0.781982 0.101074 0.828613 0.066406 0.482178 0.859863 0.428711 0.90918 0.414307 0.849609 0.428711 0.90918 0.482178 0.859863 0.516113 0.906494 0.516113 0.906494 0.482178 0.859863 0.551025 0.848877 0.63208 0.165039 0.64624 0.104492 0.71167 0.130371 0.63208 0.165039 0.71167 0.130371 0.69751 0.204834 0.737793 0.213623 0.720947 0.232666 0.69751 0.204834 0.737793 0.213623 0.69751 0.204834 0.761963 0.171631 0.761963 0.171631 0.69751 0.204834 0.71167 0.130371 0.761963 0.171631 0.71167 0.130371 0.758789 0.138184 0.758789 0.138184 0.71167 0.130371 0.675049 0.076416 0.675049 0.076416 0.71167 0.130371 0.64624 0.104492 0.758789 0.138184 0.675049 0.076416 0.775879 0.067383 0.775879 0.067383 0.675049 0.076416 0.7146 0.040771 0.7146 0.040771 0.675049 0.076416 0.645264 0.052979 0.645264 0.052979 0.675049 0.076416 0.64624 0.104492 0.645264 0.052979 0.64624 0.104492 0.576172 0.052246 0.123535 0.513428 0.179932 0.526855 0.142334 0.527344 0.179932 0.526855 0.123535 0.513428 0.150635 0.483643 0.179932 0.526855 0.150635 0.483643 0.195801 0.482422 0.142334 0.527344 0.179932 0.526855 0.165771 0.580078 0.142334 0.527344 0.165771 0.580078 0.131348 0.584717 0.165771 0.580078 0.179932 0.526855 0.220703 0.610596 0.220703 0.610596 0.179932 0.526855 0.235107 0.553467 0.220703 0.610596 0.235107 0.553467 0.257812 0.576172 0.165771 0.580078 0.220703 0.610596 0.188721 0.634033 0.165771 0.580078 0.188721 0.634033 0.131348 0.584717 0.188721 0.634033 0.220703 0.610596 0.22583 0.656494 0.131348 0.584717 0.188721 0.634033 0.185547 0.661377 0.185547 0.661377 0.188721 0.634033 0.22583 0.656494 0.566162 0.915771 0.536865 0.885742 0.582031 0.84668 0.566162 0.915771 0.582031 0.84668 0.653809 0.871582 0.566162 0.915771 0.653809 0.871582 0.618896 0.963379 0.618896 0.963379 0.653809 0.871582 0.682129 0.953613 0.566162 0.915771 0.618896 0.963379 0.589111 0.943848 0.566162 0.915771 0.589111 0.943848 0.563232 0.960205 0.820312 0.762695 0.894531 0.756104 0.828125 0.802002 0.820312 0.762695 0.828125 0.802002 0.780273 0.797119 0.894531 0.756104 0.820312 0.762695 0.849121 0.731689 0.894531 0.756104 0.849121 0.731689 0.822266 0.675537 0.822266 0.675537 0.849121 0.731689 0.820312 0.762695 0.822266 0.675537 0.820312 0.762695 0.781738 0.708008 0.781738 0.708008 0.820312 0.762695 0.780273 0.797119 0.781738 0.708008 0.780273 0.797119 0.690918 0.746582 0.690918 0.746582 0.780273 0.797119 0.692627 0.799805 0.781738 0.708008 0.690918 0.746582 0.717773 0.701904 0.347168 0.117432 0.341797 0.220459 0.243652 0.126221 0.243652 0.126221 0.341797 0.220459 0.280029 0.186279 0.243652 0.126221 0.280029 0.186279 0.246826 0.269043 0.246826 0.269043 0.280029 0.186279 0.341797 0.220459 0.246826 0.269043 0.341797 0.220459 0.292969 0.276367 0.246826 0.269043 0.292969 0.276367 0.278076 0.287598 0.246826 0.269043 0.278076 0.287598 0.294922 0.348145 0.000244 0.45752 0.000244 0.296387 0.018555 0.36792 0.237305 0.288818 0.219727 0.291016 0.241699 0.276855 0.237305 0.288818 0.241699 0.276855 0.25293 0.291748 0.952637 0.314697 0.954346 0.309814 0.966309 0.316162 0.954346 0.309814 0.952637 0.314697 0.940674 0.324463 0.966309 0.316162 0.954346 0.309814 0.95874 0.295898 0.966309 0.316162 0.95874 0.295898 0.980225 0.31958 0.980225 0.31958 0.95874 0.295898 0.958008 0.27002 0.980225 0.31958 0.958008 0.27002 0.985352 0.284912 0.964111 0.692871 0.942871 0.655518 0.942871 0.587646 0.964111 0.692871 0.942871 0.587646 0.974854 0.682861 0.974854 0.682861 0.942871 0.587646 0.977539 0.62085 0.654053 0.861328 0.599854 0.746094 0.647461 0.781006 0.599854 0.746094 0.654053 0.861328 0.578125 0.83374 0.599854 0.746094 0.578125 0.83374 0.526855 0.771484 0.526855 0.771484 0.578125 0.83374 0.550293 0.841309 0.526855 0.771484 0.550293 0.841309 0.485107 0.85376 0.121826 0.002686 0.176025 0.054443 0.118652 0.041748 0.118652 0.041748 0.176025 0.054443 0.147949 0.098145 0.176025 0.054443 0.121826 0.002686 0.215088 0.000977 0.147949 0.098145 0.176025 0.054443 0.1875 0.065186 0.1875 0.065186 0.176025 0.054443 0.215088 0.000977 0.588379 0.044678 0.610107 0.040283 0.641113 0.047852 0.610107 0.040283 0.588379 0.044678 0.5979 0.039062 0.610107 0.040283 0.5979 0.039062 0.60083 0.001221 0.610107 0.040283 0.60083 0.001221 0.632324 0.004395 0.610107 0.040283 0.632324 0.004395 0.641113 0.047852 0.641113 0.047852 0.632324 0.004395 0.680176 0.040527 0.680176 0.040527 0.632324 0.004395 0.677002 0.000244 0.876465 0.723877 0.906982 0.709473 0.91333 0.764404 0.91333 0.764404 0.906982 0.709473 0.935059 0.720459 0.935059 0.720459 0.906982 0.709473 0.938477 0.641113 0.288086 0.023193 0.319336 0.095459 0.26709 0.098145 0.319336 0.095459 0.288086 0.023193 0.337646 0.01123 0.288086 0.023193 0.26709 0.098145 0.219482 0.00708 0.688965 0.871582 0.716797 0.906982 0.716309 0.949463 0.877197 0.539062 0.906006 0.500244 0.921875 0.567139 0.921875 0.567139 0.906006 0.500244 0.964111 0.478516 0.921875 0.567139 0.964111 0.478516 0.970459 0.543945 0.921875 0.567139 0.970459 0.543945 0.956787 0.582764 0.956787 0.582764 0.970459 0.543945 0.96875 0.603027 0.846436 0.558105 0.802002 0.55835 0.831787 0.488281 0.802002 0.55835 0.846436 0.558105 0.838623 0.605469 0.802002 0.55835 0.838623 0.605469 0.789062 0.637207 0.838623 0.605469 0.846436 0.558105 0.886475 0.645752 0.789062 0.637207 0.838623 0.605469 0.815918 0.665283 0.815918 0.665283 0.838623 0.605469 0.886475 0.645752 0.815918 0.665283 0.886475 0.645752 0.897705 0.70752 0.789062 0.637207 0.815918 0.665283 0.75415 0.683838 0.75415 0.683838 0.815918 0.665283 0.784424 0.691162 0.429199 0.924072 0.497559 0.911865 0.484863 0.94751 0.429199 0.924072 0.484863 0.94751 0.387695 0.942139 0.429199 0.924072 0.387695 0.942139 0.404053 0.881348 0.869141 0.841064 0.856445 0.89624 0.832764 0.827637 0.869141 0.841064 0.832764 0.827637 0.84668 0.803711 0.869141 0.841064 0.84668 0.803711 0.895752 0.763184 0.968994 0.203369 1 0.128174 0.998291 0.215332 1 0.128174 0.968994 0.203369 0.895508 0.179199 1 0.128174 0.895508 0.179199 0.928223 0.106445 0.895508 0.179199 0.968994 0.203369 0.930664 0.219238 0.987793 0.845459 0.989746 0.9021 0.940674 0.897949 0.987793 0.845459 0.940674 0.897949 0.935059 0.832764 0.987793 0.845459 0.935059 0.832764 0.990234 0.810547 0.546387 0.939209 0.533691 0.98291 0.535889 0.916748 0.533691 0.98291 0.546387 0.939209 0.547119 0.971191 0.945557 0.795166 0.943115 0.691162 0.969971 0.752197 0.969971 0.752197 0.943115 0.691162 0.978027 0.703369 0.414062 0.99292 0.389404 0.99292 0.403809 0.992676 0.434814 0.999512 0.412598 0.999512 0.43042 0.992676 0.398926 1 0.37207 1 0.381104 0.996338 0.993164 0.473389 0.945068 0.474121 0.962646 0.464355 0.962646 0.464355 0.945068 0.474121 0.949707 0.445068 0.962646 0.464355 0.949707 0.445068 0.993164 0.473389 0.83667 0.011963 0.852051 0.000977 0.860352 0.022949 0.83667 0.011963 0.860352 0.022949 0.888916 0.057861 0.341064 0.992676 0.374023 0.992676 0.352051 0.99585 0.209961 0.980713 0.25 0.980713 0.214111 1</float_array>
          <technique_common>
            <accessor source="#EagleFeather-mesh-map-0-array" count="1506" stride="2">
              <param name="S" type="float"/>
              <param name="T" type="float"/>
            </accessor>
          </technique_common>
        </source>
        <vertices id="EagleFeather-mesh-vertices">
          <input semantic="POSITION" source="#EagleFeather-mesh-positions"/>
        </vertices>
        <polylist material="Material_-1-material" count="6">
          <input semantic="VERTEX" source="#EagleFeather-mesh-vertices" offset="0"/>
          <input semantic="NORMAL" source="#EagleFeather-mesh-normals" offset="1"/>
          <input semantic="TEXCOORD" source="#EagleFeather-mesh-map-0" offset="2" set="0"/>
          <vcount>3 3 3 3 3 3 3 3 3 3 3 3 3 3 3 3 3 3 3 3 3 3 3 3 3 3 3 3 3 3 3 3 3 3 3 3 3 3 3 3 3 3 3 3 3 3 3 3 3 3 3 3 3 3 3 3 3 3 3 3 3 3 3 3 3 3 3 3 3 3 3 3 3 3 3 3 3 3 3 3 3 3 3 3 3 3 3 3 3 3 3 3 3 3 3 3 3 3 3 3 3 3 3 3 3 3 3 3 3 3 3 3 3 3 3 3 3 3 3 3 3 3 3 3 3 3 3 3 3 3 3 3 3 3 3 3 3 3 3 3 3 3 3 3 3 3 3 3 3 3 3 3 3 3 3 3 3 3 3 3 3 3 3 3 3 3 3 3 3 3 3 3 3 3 3 3 3 3 3 3 3 3 3 3 3 3 3 3 3 3 3 3 3 3 3 3 3 3 3 3 3 3 3 3 3 3 3 3 3 3 3 3 3 3 3 3 3 3 3 3 3 3 3 3 3 3 3 3 3 3 3 3 3 3 3 3 3 3 3 3 3 3 3 3 3 3 3 3 3 3 3 3 3 3 3 3 3 3 3 3 3 3 3 3 3 3 3 3 3 3 3 3 3 3 3 3 3 3 3 3 3 3 3 3 3 3 3 3 3 3 3 3 3 3 3 3 3 3 3 3 3 3 3 3 3 3 3 3 3 3 3 3 3 3 3 3 3 3 3 3 3 3 3 3 3 3 3 3 3 3 3 3 3 3 3 3 3 3 3 3 3 3 3 3 3 3 3 3 3 3 3 3 3 3 3 3 3 3 3 3 3 3 3 3 3 3 3 3 3 3 3 3 3 3 3 3 3 3 3 3 3 3 3 3 3 3 3 3 3 3 3 3 3 3 3 3 3 3 3 3 3 3 3 3 3 3 3 3 3 3 3 3 3 3 3 3 3 3 3 3 3 3 3 3 3 3 3 3 3 3 3 3 3 3 3 3 3 3 3 3 3 3 3 3 3 3 3 3 3 3 3 3 3 3 3 3 3 3 3 3 3 3 3 3 3 3 3 3 3 3 3 3 3 3 3 3 3 3 3 3 3 3 3 3 3 3 3 3 3 3 3 3 3 3 3 3 3 3 3 3 3 3</vcount>
          <p>0 0 0 1 0 1 2 0 2 2 1 3 1 1 4 3 1 5 1 2 6 0 2 7 4 2 8 1 3 9 4 3 10 3 3 11 4 4 12 0 4 13 5 4 14 3 5 15 4 5 16 6 5 17 6 6 18 4 6 19 5 6 20 6 7 21 5 7 22 7 7 23 7 8 24 5 8 25 8 8 26 0 9 27 2 9 28 8 9 29 0 10 30 8 10 31 5 10 32 8 11 33 2 11 34 9 11 35 8 12 36 9 12 37 7 12 38 9 13 39 2 13 40 10 13 41 10 14 42 2 14 43 3 14 44 10 15 45 3 15 46 11 15 47 11 16 48 3 16 49 6 16 50 10 17 51 12 17 52 9 17 53 12 18 54 10 18 55 11 18 56 9 19 57 12 19 58 13 19 59 9 20 60 13 20 61 7 20 62 7 21 63 13 21 64 14 21 65 14 22 66 13 22 67 15 22 68 7 23 69 14 23 70 6 23 71 14 24 72 15 24 73 16 24 74 14 25 75 16 25 76 6 25 77 6 26 78 16 26 79 11 26 80 11 27 81 16 27 82 17 27 83 18 28 84 16 28 85 15 28 86 16 29 87 18 29 88 17 29 89 17 30 90 18 30 91 19 30 92 17 31 93 19 31 94 20 31 95 19 32 96 18 32 97 21 32 98 21 33 99 18 33 100 15 33 101 19 34 102 21 34 103 22 34 104 22 35 105 21 35 106 15 35 107 22 36 108 15 36 109 23 36 110 23 37 111 15 37 112 13 37 113 23 38 114 13 38 115 24 38 116 12 39 117 11 39 118 25 39 119 25 40 120 11 40 121 26 40 122 26 41 123 11 41 124 27 41 125 27 42 126 11 42 127 17 42 128 28 43 129 29 43 130 30 43 131 30 44 132 29 44 133 31 44 134 28 45 135 30 45 136 32 45 137 32 46 138 30 46 139 31 46 140 32 47 141 31 47 142 29 47 143 32 48 144 29 48 145 33 48 146 32 49 147 33 49 148 28 49 149 12 50 150 25 50 151 34 50 152 12 51 153 34 51 154 28 51 155 12 52 156 28 52 157 13 52 158 28 53 159 34 53 160 29 53 161 29 54 162 34 54 163 35 54 164 29 55 165 35 55 166 33 55 167 33 56 168 35 56 169 36 56 170 17 57 171 20 57 172 37 57 173 37 58 174 20 58 175 38 58 176 37 59 177 38 59 178 39 59 179 37 60 180 39 60 181 40 60 182 17 61 183 37 61 184 27 61 185 37 62 186 40 62 187 41 62 188 37 63 189 41 63 190 27 63 191 27 64 192 41 64 193 26 64 194 13 65 195 28 65 196 42 65 197 13 66 198 42 66 199 24 66 200 42 67 201 28 67 202 33 67 203 42 68 204 33 68 205 36 68 206 20 69 207 19 69 208 38 69 209 38 70 210 19 70 211 22 70 212 38 71 213 22 71 214 43 71 215 38 72 216 43 72 217 39 72 218 39 73 219 43 73 220 40 73 221 40 74 222 43 74 223 44 74 224 44 75 225 43 75 226 45 75 227 45 76 228 43 76 229 46 76 230 46 77 231 43 77 232 22 77 233 46 78 234 22 78 235 23 78 236 46 79 237 23 79 238 47 79 239 47 80 240 23 80 241 24 80 242 34 81 243 25 81 244 48 81 245 25 82 246 49 82 247 48 82 248 48 83 249 49 83 250 50 83 251 24 84 252 42 84 253 51 84 254 45 85 255 46 85 256 52 85 257 52 86 258 46 86 259 47 86 260 45 87 261 52 87 262 53 87 263 53 88 264 52 88 265 54 88 266 53 89 267 54 89 268 55 89 269 53 90 270 55 90 271 40 90 272 40 91 273 55 91 274 44 91 275 42 92 276 36 92 277 51 92 278 51 93 279 36 93 280 56 93 281 51 94 282 56 94 283 57 94 284 56 95 285 36 95 286 35 95 287 56 96 288 35 96 289 58 96 290 24 97 291 51 97 292 47 97 293 35 98 294 59 98 295 58 98 296 58 99 297 59 99 298 60 99 299 60 100 300 59 100 301 35 100 302 60 101 303 35 101 304 48 101 305 60 102 306 48 102 307 61 102 308 48 103 309 35 103 310 34 103 311 62 104 312 63 104 313 64 104 314 62 105 315 64 105 316 65 105 317 48 106 318 50 106 319 61 106 320 61 107 321 50 107 322 66 107 323 64 108 324 67 108 325 68 108 326 67 109 327 64 109 328 63 109 329 68 110 330 67 110 331 69 110 332 69 111 333 67 111 334 70 111 335 68 112 336 69 112 337 71 112 338 64 113 339 68 113 340 65 113 341 68 114 342 71 114 343 72 114 344 68 115 345 72 115 346 65 115 347 72 116 348 71 116 349 73 116 350 63 117 351 62 117 352 65 117 353 63 118 354 65 118 355 67 118 356 67 119 357 65 119 358 72 119 359 67 120 360 72 120 361 73 120 362 67 121 363 73 121 364 74 121 365 67 122 366 74 122 367 70 122 368 51 123 369 57 123 370 75 123 371 51 124 372 75 124 373 47 124 374 47 125 375 75 125 376 76 125 377 47 126 378 76 126 379 52 126 380 52 127 381 76 127 382 77 127 383 77 128 384 76 128 385 70 128 386 61 129 387 66 129 388 60 129 389 60 130 390 66 130 391 78 130 392 78 131 393 66 131 394 79 131 395 60 132 396 78 132 397 80 132 398 60 133 399 80 133 400 58 133 401 78 134 402 79 134 403 81 134 404 81 135 405 79 135 406 82 135 407 80 136 408 78 136 409 83 136 410 83 137 411 78 137 412 81 137 413 58 138 414 80 138 415 84 138 416 84 139 417 80 139 418 83 139 419 58 140 420 84 140 421 56 140 422 56 141 423 84 141 424 57 141 425 57 142 426 84 142 427 85 142 428 85 143 429 84 143 430 86 143 431 86 144 432 84 144 433 83 144 434 83 145 435 81 145 436 87 145 437 83 146 438 87 146 439 86 146 440 87 147 441 81 147 442 88 147 443 86 148 444 87 148 445 89 148 446 86 149 447 89 149 448 90 149 449 91 150 450 92 150 451 93 150 452 93 151 453 92 151 454 94 151 455 91 152 456 93 152 457 95 152 458 91 153 459 95 153 460 96 153 461 97 154 462 98 154 463 99 154 464 75 155 465 57 155 466 85 155 467 86 156 468 90 156 469 85 156 470 85 157 471 90 157 472 100 157 473 85 158 474 100 158 475 75 158 476 75 159 477 100 159 478 76 159 479 76 160 480 100 160 481 101 160 482 101 161 483 100 161 484 102 161 485 76 162 486 101 162 487 103 162 488 103 163 489 101 163 490 104 163 491 76 164 492 103 164 493 70 164 494 70 165 495 103 165 496 69 165 497 50 166 498 105 166 499 79 166 500 50 167 501 79 167 502 66 167 503 79 168 504 105 168 505 106 168 506 106 169 507 105 169 508 107 169 509 106 170 510 107 170 511 108 170 512 106 171 513 108 171 514 109 171 515 79 172 516 106 172 517 82 172 518 69 173 519 103 173 520 110 173 521 69 174 522 110 174 523 71 174 524 71 175 525 110 175 526 111 175 527 110 176 528 103 176 529 112 176 530 110 177 531 112 177 532 113 177 533 112 178 534 103 178 535 114 178 536 114 179 537 103 179 538 104 179 539 113 180 540 112 180 541 115 180 542 113 181 543 115 181 544 116 181 545 100 182 546 90 182 547 102 182 548 102 183 549 90 183 550 117 183 551 102 184 552 117 184 553 118 184 554 118 185 555 117 185 556 119 185 557 117 186 558 90 186 559 120 186 560 120 187 561 90 187 562 89 187 563 120 188 564 89 188 565 121 188 566 121 189 567 89 189 568 87 189 569 121 190 570 87 190 571 122 190 572 122 191 573 87 191 574 123 191 575 123 192 576 87 192 577 88 192 578 123 193 579 88 193 580 124 193 581 123 194 582 124 194 583 125 194 584 124 195 585 88 195 586 82 195 587 82 196 588 88 196 589 81 196 590 124 197 591 82 197 592 126 197 593 126 198 594 82 198 595 127 198 596 127 199 597 82 199 598 106 199 599 127 200 600 106 200 601 109 200 602 127 201 603 109 201 604 128 201 605 127 202 606 128 202 607 129 202 608 115 203 609 114 203 610 104 203 611 114 204 612 115 204 613 130 204 614 102 205 615 104 205 616 101 205 617 104 206 618 102 206 619 118 206 620 104 207 621 118 207 622 115 207 623 115 208 624 118 208 625 116 208 626 130 209 627 115 209 628 131 209 629 130 210 630 131 210 631 128 210 632 130 211 633 128 211 634 109 211 635 128 212 636 131 212 637 132 212 638 133 213 639 134 213 640 110 213 641 133 214 642 110 214 643 113 214 644 110 215 645 134 215 646 135 215 647 135 216 648 134 216 649 112 216 650 112 217 651 134 217 652 131 217 653 112 218 654 131 218 655 115 218 656 135 219 657 112 219 658 108 219 659 108 220 660 112 220 661 136 220 662 108 221 663 136 221 664 109 221 665 136 222 666 112 222 667 114 222 668 109 223 669 136 223 670 130 223 671 130 224 672 136 224 673 114 224 674 133 225 675 113 225 676 137 225 677 137 226 678 113 226 679 116 226 680 133 227 681 137 227 682 138 227 683 138 228 684 137 228 685 139 228 686 138 229 687 139 229 688 140 229 689 138 230 690 140 230 691 133 230 692 133 231 693 140 231 694 131 231 695 131 232 696 140 232 697 132 232 698 133 233 699 131 233 700 134 233 701 137 234 702 116 234 703 141 234 704 137 235 705 141 235 706 139 235 707 141 236 708 116 236 709 142 236 710 142 237 711 116 237 712 143 237 713 143 238 714 116 238 715 144 238 716 143 239 717 144 239 718 145 239 719 144 240 720 116 240 721 118 240 722 145 241 723 144 241 724 119 241 725 119 242 726 144 242 727 118 242 728 146 243 729 147 243 730 148 243 731 117 244 732 120 244 733 119 244 734 119 245 735 120 245 736 121 245 737 121 246 738 122 246 739 149 246 740 121 247 741 149 247 742 150 247 743 121 248 744 150 248 745 151 248 746 121 249 747 151 249 748 119 249 749 151 250 750 150 250 751 152 250 752 119 251 753 151 251 754 153 251 755 152 252 756 150 252 757 154 252 758 119 253 759 153 253 760 145 253 761 145 254 762 153 254 763 155 254 764 155 255 765 153 255 766 156 255 767 156 256 768 153 256 769 157 256 770 153 257 771 151 257 772 158 257 773 153 258 774 158 258 775 157 258 776 158 259 777 151 259 778 152 259 779 157 260 780 158 260 781 159 260 782 158 261 783 152 261 784 160 261 785 159 262 786 158 262 787 161 262 788 161 263 789 158 263 790 160 263 791 159 264 792 161 264 793 162 264 794 160 265 795 152 265 796 163 265 797 160 266 798 163 266 799 161 266 800 163 267 801 152 267 802 154 267 803 161 268 804 163 268 805 164 268 806 164 269 807 163 269 808 154 269 809 126 270 810 129 270 811 165 270 812 129 271 813 126 271 814 127 271 815 126 272 816 165 272 817 166 272 818 126 273 819 166 273 820 124 273 821 124 274 822 166 274 823 125 274 824 165 275 825 129 275 826 167 275 827 167 276 828 129 276 829 168 276 830 168 277 831 129 277 832 128 277 833 167 278 834 168 278 835 169 278 836 168 279 837 128 279 838 132 279 839 169 280 840 168 280 841 170 280 842 170 281 843 168 281 844 132 281 845 170 282 846 132 282 847 171 282 848 170 283 849 171 283 850 172 283 851 171 284 852 132 284 853 140 284 854 171 285 855 140 285 856 173 285 857 173 286 858 140 286 859 139 286 860 139 287 861 141 287 862 174 287 863 174 288 864 141 288 865 142 288 866 139 289 867 174 289 868 173 289 869 173 290 870 174 290 871 142 290 872 175 291 873 172 291 874 142 291 875 142 292 876 172 292 877 171 292 878 142 293 879 171 293 880 173 293 881 175 294 882 142 294 883 176 294 884 175 295 885 176 295 886 177 295 887 175 296 888 177 296 889 172 296 890 176 297 891 142 297 892 143 297 893 176 298 894 143 298 895 178 298 896 178 299 897 143 299 898 179 299 899 176 300 900 178 300 901 180 300 902 180 301 903 178 301 904 181 301 905 180 302 906 181 302 907 182 302 908 180 303 909 182 303 910 183 303 911 183 304 912 182 304 913 184 304 914 183 305 915 184 305 916 180 305 917 180 306 918 184 306 919 176 306 920 176 307 921 184 307 922 185 307 923 185 308 924 184 308 925 181 308 926 143 309 927 145 309 928 179 309 929 179 310 930 145 310 931 155 310 932 179 311 933 155 311 934 186 311 935 179 312 936 186 312 937 187 312 938 186 313 939 155 313 940 157 313 941 157 314 942 155 314 943 156 314 944 186 315 945 157 315 946 188 315 947 188 316 948 157 316 949 159 316 950 186 317 951 188 317 952 189 317 953 190 318 954 165 318 955 191 318 956 191 319 957 165 319 958 167 319 959 165 320 960 190 320 961 164 320 962 165 321 963 164 321 964 166 321 965 166 322 966 164 322 967 154 322 968 166 323 969 154 323 970 125 323 971 125 324 972 154 324 973 150 324 974 125 325 975 150 325 976 149 325 977 125 326 978 149 326 979 122 326 980 125 327 981 122 327 982 123 327 983 190 328 984 191 328 985 192 328 986 190 329 987 192 329 988 164 329 989 192 330 990 191 330 991 193 330 992 164 331 993 192 331 994 194 331 995 194 332 996 192 332 997 195 332 998 164 333 999 194 333 1000 161 333 1001 161 334 1002 194 334 1003 196 334 1004 161 335 1005 196 335 1006 162 335 1007 193 336 1008 191 336 1009 167 336 1010 193 337 1011 167 337 1012 197 337 1013 193 338 1014 197 338 1015 198 338 1016 197 339 1017 167 339 1018 169 339 1019 197 340 1020 169 340 1021 199 340 1022 178 341 1023 179 341 1024 187 341 1025 178 342 1026 187 342 1027 200 342 1028 178 343 1029 200 343 1030 181 343 1031 181 344 1032 200 344 1033 185 344 1034 185 345 1035 200 345 1036 187 345 1037 185 346 1038 187 346 1039 199 346 1040 199 347 1041 187 347 1042 198 347 1043 198 348 1044 187 348 1045 193 348 1046 199 349 1047 198 349 1048 197 349 1049 201 350 1050 187 350 1051 186 350 1052 201 351 1053 186 351 1054 189 351 1055 159 352 1056 162 352 1057 202 352 1058 202 353 1059 162 353 1060 196 353 1061 159 354 1062 202 354 1063 188 354 1064 202 355 1065 196 355 1066 195 355 1067 202 356 1068 195 356 1069 188 356 1070 195 357 1071 196 357 1072 194 357 1073 188 358 1074 195 358 1075 203 358 1076 204 359 1077 201 359 1078 205 359 1079 204 360 1080 205 360 1081 206 360 1082 203 361 1083 189 361 1084 188 361 1085 189 362 1086 203 362 1087 207 362 1088 207 363 1089 203 363 1090 208 363 1091 207 364 1092 208 364 1093 209 364 1094 209 365 1095 208 365 1096 210 365 1097 209 366 1098 210 366 1099 211 366 1100 208 367 1101 203 367 1102 212 367 1103 208 368 1104 212 368 1105 210 368 1106 212 369 1107 203 369 1108 213 369 1109 210 370 1110 212 370 1111 214 370 1112 212 371 1113 213 371 1114 215 371 1115 212 372 1116 215 372 1117 214 372 1118 216 373 1119 201 373 1120 189 373 1121 201 374 1122 216 374 1123 205 374 1124 205 375 1125 216 375 1126 217 375 1127 203 376 1128 195 376 1129 218 376 1130 203 377 1131 218 377 1132 213 377 1133 219 378 1134 215 378 1135 213 378 1136 219 379 1137 213 379 1138 220 379 1139 220 380 1140 213 380 1141 218 380 1142 220 381 1143 218 381 1144 221 381 1145 221 382 1146 218 382 1147 222 382 1148 222 383 1149 218 383 1150 195 383 1151 221 384 1152 222 384 1153 219 384 1154 219 385 1155 222 385 1156 223 385 1157 223 386 1158 222 386 1159 224 386 1160 224 387 1161 222 387 1162 195 387 1163 224 388 1164 195 388 1165 192 388 1166 225 389 1167 226 389 1168 227 389 1169 226 390 1170 225 390 1171 228 390 1172 226 391 1173 228 391 1174 229 391 1175 227 392 1176 226 392 1177 230 392 1178 227 393 1179 230 393 1180 231 393 1181 230 394 1182 226 394 1183 232 394 1184 232 395 1185 226 395 1186 233 395 1187 232 396 1188 233 396 1189 234 396 1190 230 397 1191 232 397 1192 235 397 1193 230 398 1194 235 398 1195 231 398 1196 235 399 1197 232 399 1198 236 399 1199 231 400 1200 235 400 1201 237 400 1202 237 401 1203 235 401 1204 236 401 1205 220 402 1206 221 402 1207 238 402 1208 220 403 1209 238 403 1210 239 403 1211 220 404 1212 239 404 1213 228 404 1214 228 405 1215 239 405 1216 229 405 1217 220 406 1218 228 406 1219 240 406 1220 220 407 1221 240 407 1222 219 407 1223 241 408 1224 242 408 1225 226 408 1226 241 409 1227 226 409 1228 229 409 1229 242 410 1230 241 410 1231 243 410 1232 242 411 1233 243 411 1234 244 411 1235 244 412 1236 243 412 1237 241 412 1238 244 413 1239 241 413 1240 234 413 1241 234 414 1242 241 414 1243 229 414 1244 234 415 1245 229 415 1246 236 415 1247 236 416 1248 229 416 1249 237 416 1250 234 417 1251 236 417 1252 232 417 1253 229 418 1254 239 418 1255 237 418 1256 237 419 1257 239 419 1258 245 419 1259 237 420 1260 245 420 1261 231 420 1262 231 421 1263 245 421 1264 239 421 1265 231 422 1266 239 422 1267 246 422 1268 231 423 1269 246 423 1270 228 423 1271 231 424 1272 228 424 1273 247 424 1274 49 425 1275 25 425 1276 26 425 1277 45 426 1278 41 426 1279 40 426 1280 45 427 1281 40 427 1282 53 427 1283 45 428 1284 54 428 1285 41 428 1286 54 429 1287 45 429 1288 44 429 1289 41 430 1290 54 430 1291 52 430 1292 41 431 1293 52 431 1294 26 431 1295 26 432 1296 52 432 1297 77 432 1298 26 433 1299 77 433 1300 49 433 1301 105 434 1302 50 434 1303 49 434 1304 105 435 1305 49 435 1306 107 435 1307 107 436 1308 49 436 1309 77 436 1310 77 437 1311 108 437 1312 107 437 1313 108 438 1314 77 438 1315 70 438 1316 108 439 1317 70 439 1318 135 439 1319 135 440 1320 70 440 1321 74 440 1322 135 441 1323 74 441 1324 73 441 1325 71 442 1326 248 442 1327 73 442 1328 73 443 1329 248 443 1330 135 443 1331 248 444 1332 71 444 1333 111 444 1334 135 445 1335 248 445 1336 110 445 1337 110 446 1338 248 446 1339 111 446 1340 177 447 1341 249 447 1342 172 447 1343 249 448 1344 177 448 1345 176 448 1346 249 449 1347 176 449 1348 185 449 1349 249 450 1350 185 450 1351 199 450 1352 249 451 1353 199 451 1354 172 451 1355 172 452 1356 199 452 1357 170 452 1358 170 453 1359 199 453 1360 169 453 1361 187 454 1362 250 454 1363 193 454 1364 193 455 1365 250 455 1366 192 455 1367 192 456 1368 250 456 1369 224 456 1370 251 457 1371 250 457 1372 187 457 1373 250 458 1374 251 458 1375 207 458 1376 251 459 1377 187 459 1378 206 459 1379 182 460 1380 181 460 1381 184 460 1382 206 461 1383 205 461 1384 251 461 1385 251 462 1386 205 462 1387 217 462 1388 251 463 1389 217 463 1390 216 463 1391 251 464 1392 216 464 1393 207 464 1394 207 465 1395 216 465 1396 189 465 1397 207 466 1398 224 466 1399 250 466 1400 224 467 1401 207 467 1402 252 467 1403 224 468 1404 252 468 1405 223 468 1406 252 469 1407 207 469 1408 209 469 1409 223 470 1410 252 470 1411 253 470 1412 253 471 1413 252 471 1414 209 471 1415 253 472 1416 209 472 1417 211 472 1418 223 473 1419 253 473 1420 219 473 1421 219 474 1422 253 474 1423 215 474 1424 214 475 1425 215 475 1426 253 475 1427 214 476 1428 253 476 1429 211 476 1430 214 477 1431 211 477 1432 210 477 1433 247 478 1434 228 478 1435 225 478 1436 247 479 1437 225 479 1438 227 479 1439 247 480 1440 227 480 1441 231 480 1442 240 481 1443 221 481 1444 219 481 1445 221 482 1446 240 482 1447 239 482 1448 221 483 1449 239 483 1450 238 483 1451 239 484 1452 240 484 1453 246 484 1454 233 485 1455 226 485 1456 242 485 1457 233 486 1458 242 486 1459 244 486 1460 233 487 1461 244 487 1462 234 487 1463 93 488 1464 96 488 1465 95 488 1466 96 489 1467 93 489 1468 94 489 1469 187 490 1470 206 490 1471 201 490 1472 201 491 1473 206 491 1474 204 491 1475 44 492 1476 54 492 1477 55 492 1478 91 493 1479 92 493 1480 94 493 1481 96 494 1482 91 494 1483 94 494 1484 97 495 1485 98 495 1486 254 495 1487 254 496 1488 98 496 1489 99 496 1490 254 497 1491 99 497 1492 97 497 1493 147 498 1494 148 498 1495 255 498 1496 147 499 1497 255 499 1498 146 499 1499 148 500 1500 146 500 1501 255 500 1502 228 501 1503 240 501 1504 246 501 1505</p>
        </polylist>
      </mesh>
    </geometry>
  </library_geometries>
  <library_visual_scenes>
    <visual_scene id="Scene" name="Scene">
      <node id="EagleFeather" name="EagleFeather" type="NODE">
        <scale sid="scale">1 1 1</scale>
        <translate sid="location">0 0 0</translate>
        <rotate sid="rotationX">1 0 0 0</rotate>
        <rotate sid="rotationY">0 1 0 0</rotate>
        <rotate sid="rotationZ">0 0 1 0</rotate>
        <instance_geometry url="#EagleFeather-mesh" name="EagleFeather">
          <bind_material>
            <technique_common>
            </technique_common>
          </bind_material>
        </instance_geometry>
      </node>
    </visual_scene>
  </library_visual_scenes>
  <scene>
    <instance_visual_scene url="#Scene"/>
  </scene>
</COLLADA>
