<?xml version="1.0" encoding="utf-8"?>
<COLLADA xmlns="http://www.collada.org/2005/11/COLLADASchema" version="1.4.1" xmlns:xsi="http://www.w3.org/2001/XMLSchema-instance">
  <asset>
    <contributor>
      <author>Blockbench user</author>
      <authoring_tool>Blockbench</authoring_tool>
    </contributor>
    <created>2026-03-08T07:43:21.344Z</created>
    <modified>2026-03-08T07:43:21.350Z</modified>
    <unit name="meter" meter="1.0"/>
    <up_axis>Y_UP</up_axis>
  </asset>
  <library_effects>
  </library_effects>
  <library_images>
  </library_images>
  <library_materials>
  </library_materials>
  <library_geometries>
    <geometry id="FakePocketPistols-mesh" name="FakePocketPistols">
      <mesh>
        <source id="FakePocketPistols-mesh-positions">
          <float_array id="FakePocketPistols-mesh-positions-array" count="729">-0.434601 -0.192551 -0.088608 -0.263184 -0.26767 -0.0755 -0.49585 -0.208557 -0.054798 -0.351959 -0.215286 -0.096649 -0.341248 -0.107277 -0.110222 -0.286591 -0.240738 -0.087471 -0.246384 -0.159012 -0.080009 -0.205872 -0.045635 -0.090736 -0.250092 -0.274902 -0.048653 -0.231155 -0.150528 -0.045742 -0.282501 -0.303284 -0.02474 -0.216949 -0.28476 0.000458 -0.27002 -0.300262 0.034851 -0.456451 -0.258423 0.021265 -0.468781 -0.251617 -0.020021 -0.497986 -0.202545 0.041573 -0.482117 -0.204025 0.065147 -0.293457 -0.254272 0.083023 -0.430817 -0.185745 0.093941 -0.350098 -0.087692 0.108833 -0.260254 -0.278534 0.052227 -0.237015 -0.276886 0.04422 -0.493134 -0.112778 -0.032635 -0.479492 -0.086044 0.043533 -0.442749 -0.049957 -0.075699 -0.447083 -0.009216 -0.043217 -0.437408 0.003381 0.044468 -0.344086 0.129135 -0.041016 -0.342407 0.085327 -0.073174 -0.285583 -0.013487 -0.096428 -0.444733 -0.049938 0.07132 -0.428802 -0.006023 0.053612 -0.333038 0.109978 0.045235 -0.357025 0.029591 0.08567 -0.33725 0.093857 0.072281 -0.274994 -0.043346 0.10392 -0.222733 -0.220963 0.015437 -0.214905 -0.120529 0.045399 -0.227432 -0.215607 -0.027176 -0.207397 -0.152206 0.014797 -0.204254 -0.141434 -0.017239 -0.170959 -0.069588 -0.040169 -0.146957 -0.015174 -0.07666 -0.15947 -0.110336 0.0001 -0.095047 -0.158417 0.007275 -0.144775 -0.104614 0.033268 -0.16156 -0.053215 0.043594 -0.237183 -0.14679 0.076691 -0.163727 -0.048798 0.079536 -0.098 -0.131943 -0.031937 -0.134674 -0.05011 0.009388 0.024839 -0.184113 -0.00331 0.032711 -0.167007 -0.035465 -0.024773 -0.170303 0.032803 0.089798 -0.166382 0.032818 -0.021877 -0.151794 0.028795 0.054779 -0.155106 0.02914 -0.177795 0.02862 0.075027 -0.149445 -0.002784 -0.045177 -0.219727 0.070358 -0.044884 -0.112473 -0.015648 -0.016876 0.000323 -0.020819 -0.017712 -0.005676 -0.005546 -0.044849 -0.094673 0.062912 -0.044464 -0.100563 -0.012216 0.01614 -0.101524 0.007403 0.044342 0.005404 -0.023903 0.018648 -0.178253 0.022171 0.04475 -0.100456 0.058414 0.04557 0.017076 0.031345 0.044682 -0.041039 -0.072937 -0.01771 -0.028929 -0.079826 0.015896 0.023817 -0.13942 -0.004445 -0.052681 -0.098076 0.00285 -0.323181 0.183594 -0.070091 -0.331787 0.188568 -0.045376 -0.198608 0.22113 -0.021126 -0.273529 0.208755 0.015005 -0.343292 0.203079 0.004925 -0.348572 0.120049 0.043877 -0.334473 0.188309 0.044891 -0.196823 0.213348 0.044743 -0.245377 0.158737 0.045025 -0.323364 0.181549 0.068596 -0.245209 0.136734 0.070847 -0.192856 0.150528 0.045601 -0.225098 0.075874 -0.071411 -0.24234 0.158295 -0.047375 -0.194061 0.206833 -0.045132 -0.130524 0.105904 -0.044884 -0.147705 0.133011 -0.044933 -0.083473 0.250397 -0.045963 -0.106033 0.156113 -0.099648 -0.053207 0.254913 -0.04538 -0.079956 0.132248 -0.103401 -0.119171 0.291138 -0.044926 -0.143127 0.27594 -0.017235 -0.131256 0.132004 0.046196 -0.157288 0.201355 0.047985 -0.081665 0.247635 0.044895 -0.105453 0.16893 0.096817 -0.067719 0.187454 0.10585 -0.053646 0.251099 0.044315 -0.072113 0.164597 -0.002119 -0.119148 0.291199 0.044712 -0.143234 0.273224 0.018524 -0.096115 0.300995 -0.000312 -0.233109 0.254883 -0.019361 -0.212738 0.262177 0.01807 -0.288269 0.309845 -0.005237 -0.306854 0.285278 0.017797 -0.233688 0.231445 0.018257 -0.089821 0.082687 0.058086 -0.089134 0.063934 -0.019564 -0.091629 0.064842 0.020607 0.020193 0.035732 -0.023191 -0.003989 0.070549 -0.07193 -0.074524 0.111206 -0.092293 -0.07534 0.120911 -0.000745 -0.016806 0.118584 -0.097557 -0.062271 0.159012 -0.018114 -0.05603 0.178589 -0.096069 -0.038002 0.15921 -0.05732 -0.064819 0.15715 0.020926 -0.050266 0.200485 0.041145 0.018343 0.036812 0.028393 -0.079483 0.086273 0.067703 -0.037769 0.077118 0.063759 -0.069611 0.136993 0.096039 -0.015555 0.111023 0.094582 -0.035378 0.145813 0.057446 -0.060841 0.167038 0.099113 -0.0443 0.243378 -0.045135 -0.041267 0.247635 0.030947 -0.017645 0.200836 0.081543 0.072731 0.220078 0.042522 0.024445 0.198441 0.078506 0.087746 0.184418 0.04578 0.111015 0.236786 0.044693 0.227997 0.223526 0.000064 0.10968 -0.155914 -0.040657 0.10907 -0.137314 0.029459 0.119354 -0.097824 -0.031036 0.132156 -0.135727 0.032742 0.158127 -0.093636 -0.030081 0.204498 -0.069839 0.035759 0.071877 -0.041916 -0.0308 0.205887 -0.067856 -0.043594 0.135574 -0.032043 -0.056828 0.078552 -0.043087 0.031727 0.130859 -0.040642 0.044582 0.143478 -0.003787 0.066246 0.134811 0.005976 -0.043869 0.135788 0.022322 -0.059303 0.058853 0.062267 -0.042423 0.138336 0.01034 0.043266 0.096252 0.044064 0.043095 0.089661 0.046604 0.071831 0.149811 0.073502 0.0914 0.077049 0.089096 0.055386 0.14357 0.055088 0.030491 0.15181 0.062782 0.045593 0.145462 0.031254 -0.044895 0.163147 0.11721 0.02706 0.141098 0.050972 -0.030056 0.149902 0.084991 -0.03809 0.077896 0.079918 -0.052601 0.149246 0.070442 -0.079735 0.227264 0.019669 0.042744 0.248383 0.114182 0.071838 0.214066 -0.036716 0.06443 0.22525 -0.012285 -0.02228 0.140854 0.076836 -0.095802 0.05492 0.121605 -0.079399 0.161469 0.123871 -0.095276 0.162369 0.146759 -0.076317 0.101837 0.128235 -0.029131 0.174149 0.169907 -0.072159 0.006859 0.205338 -0.077156 0.116364 0.17955 -0.042904 0.180786 0.193069 -0.044121 0.06662 0.221695 -0.034359 0.219177 -0.015281 -0.062782 0.225998 0.016762 -0.041855 0.161499 0.095078 -0.05595 0.166595 0.133499 -0.029133 0.241562 0.077461 -0.056747 0.248779 0.109612 -0.071495 0.157227 0.099586 0.078644 0.029486 0.143219 0.098015 0.162704 0.124321 0.096687 0.035503 0.124153 0.081734 0.173935 0.168808 0.053444 0.107162 0.139984 0.048374 0.176926 0.157471 -0.072479 0.26355 0.160614 -0.052921 0.171066 0.14769 0.031933 0.18013 0.172104 0.061192 0.18074 0.191483 0.042591 0.184311 0.192673 -0.043785 0.167694 0.135208 -0.028257 0.219513 0.210678 -0.044865 0.263519 0.178284 0.042965 0.224335 -0.012544 0.019293 0.448883 -0.066566 -0.034859 0.348724 0.003033 -0.043442 0.230103 0.028816 -0.029968 0.349365 0.004421 -0.022278 0.23793 0.056149 -0.033642 0.327637 0.048565 0.000159 0.353851 0.032631 -0.034882 0.25592 0.106293 -0.066422 0.451477 -0.048584 0.042164 0.262695 0.134247 -0.064392 0.495758 0.105621 -0.048527 0.262634 0.190491 -0.028799 0.26944 0.19194 0.028414 0.341583 0.181122 -0.015067 0.486786 0.13858 -0.029079 0.47821 0.151581 -0.015547 0.409393 0.189331 -0.015795 0.379242 0.187714 0.013961 0.476959 0.151199 0.014659 0.171844 0.135132 0.071526 0.260345 0.146744 0.061298 0.240509 0.065804 0.03458 0.455261 0.013392 0.03672 0.251068 0.090683 0.061687 0.496277 0.121422 0.028606 0.49472 0.096329 0.057419 0.477234 0.040707 0.062851 0.489075 0.145309 0.028109 0.462189 0.005711 -0.033306 0.481049 0.055496 -0.065796 0.480408 0.0284 -0.016912 0.489471 0.079903 -0.038898 0.326965 0.082535 -0.017735 0.485809 0.063858 0.04203 0.335541 0.113144 0.03495 0.495667 0.101578 0.002309 0.3414 0.134415 -0.012413 0.472473 0.194244 0.01442 0.469299 0.189438 -0.014856</float_array>
          <technique_common>
            <accessor source="#FakePocketPistols-mesh-positions-array" count="243" stride="3">
              <param name="X" type="float"/>
              <param name="Y" type="float"/>
              <param name="Z" type="float"/>
            </accessor>
          </technique_common>
        </source>
        <source id="FakePocketPistols-mesh-normals">
          <float_array id="FakePocketPistols-mesh-normals-array" count="1482">-0.229676 -0.650442 -0.723999 -0.258114 -0.704383 -0.661228 -0.126532 -0.11132 -0.985696 0.086959 -0.132697 -0.987335 -0.044336 -0.437698 -0.898028 0.278514 -0.049446 -0.959158 0.364643 -0.094818 -0.926307 0.2149 -0.167817 -0.96211 0.871115 -0.154036 -0.466295 0.917579 -0.130923 -0.375377 0.405123 -0.813746 -0.416765 -0.244847 -0.747424 -0.617582 0.394608 -0.812359 -0.429369 0.275077 -0.961381 -0.008859 -0.224629 -0.969682 0.096222 -0.209087 -0.690607 -0.692347 -0.268292 -0.960162 -0.078158 -0.851524 -0.524133 0.013824 -0.773003 -0.621265 0.12844 -0.65821 -0.635782 0.403164 -0.245903 -0.676221 0.694447 -0.229255 -0.583644 0.778975 0.002603 -0.152249 0.988339 -0.214789 -0.756492 0.617726 0.187131 -0.66345 0.724442 0.283065 -0.673388 0.682952 -0.999129 0.033947 -0.024263 -0.980606 0.153619 0.121712 -0.753349 0.168457 -0.635679 -0.492733 0.050489 -0.868715 -0.912775 0.407958 0.020294 -0.810757 0.309766 -0.496706 -0.90429 0.42516 0.038698 -0.802145 0.597123 0.002723 -0.601153 0.458105 -0.654794 -0.285443 0.07022 -0.95582 -0.160818 0.137522 -0.977356 -0.18313 0.248577 -0.951143 0.104526 0.083712 -0.990993 -0.819959 0.120751 0.559542 -0.704386 0.143042 0.695255 -0.511644 0.089901 0.854481 -0.794189 0.451918 0.406243 -0.559377 0.255 0.788716 -0.419917 0.405301 0.812035 -0.544597 0.476008 0.69053 -0.27429 0.130589 0.952739 -0.515123 0.323839 0.793585 -0.363443 0.159798 0.917809 -0.028558 0.212289 0.976789 -0.048505 0.190768 0.980436 0.128796 -0.108927 0.985671 0.468954 -0.806465 0.360133 0.907779 -0.016109 0.419139 0.967596 -0.138417 0.211183 0.989158 0.111985 -0.095001 0.8145 -0.104569 -0.570662 0.822259 -0.112137 -0.557957 0.966963 -0.216924 -0.133893 0.887254 -0.194003 0.4185 0.742204 -0.144249 -0.654466 0.954707 -0.29748 -0.006362 0.706501 -0.490293 -0.510362 0.771642 -0.552136 -0.315777 0.804632 -0.551047 -0.221165 0.325938 -0.203808 -0.923161 0.141049 0.177279 -0.974001 0.609677 -0.76746 -0.198241 0.586037 -0.479943 -0.652852 0.608204 -0.472228 0.638035 -0.450613 -0.688558 -0.568186 -0.57986 -0.720071 0.381129 0.231503 -0.970668 0.064888 0.197695 -0.130618 0.971522 0.783672 -0.620037 0.037577 0.792555 -0.597629 0.121228 0.557057 -0.244907 0.793541 0.338105 -0.122046 0.933161 0.87383 -0.23234 0.427129 0.328683 -0.053588 0.942919 -0.55575 -0.707824 -0.436035 0.548359 0.559571 -0.621436 0.826748 0.090084 0.555314 0.774033 0.128207 0.620029 -0.23684 -0.832495 -0.500857 -0.222005 -0.815781 -0.534056 -0.200332 -0.974857 0.097579 0.03138 -0.918433 0.394329 0.258865 0.965874 -0.00876 0.043212 0.979801 -0.195251 0.350686 0.926457 -0.136735 0.004714 0.210931 0.97749 0.109917 0.193898 0.974845 -0.353968 -0.651386 0.67112 0.20219 -0.179516 0.962753 0.217569 0.096106 0.971302 0.938963 -0.288321 0.187671 0.704401 0.677703 -0.211041 0.538295 -0.234048 -0.809605 -0.04535 -0.930422 -0.363672 -0.015655 -0.872828 -0.487776 0.002451 0.008809 -0.999958 0.708581 -0.655519 -0.261167 0.745474 -0.634895 -0.202921 0.615667 -0.636887 0.464036 -0.103618 -0.818135 0.565613 0.634818 -0.634169 0.441402 0.002471 -0.014786 0.999888 0.975944 0.215611 0.032344 0.983074 0.175595 -0.052273 0.000681 -0.024081 0.99971 0.002001 -0.024108 0.999707 -0.596144 -0.747598 0.292762 -0.007153 0.005638 -0.999959 0.773194 -0.61363 -0.160094 0.795535 -0.469562 -0.38293 0.72251 0.680723 -0.120815 -0.665537 -0.263038 -0.698478 -0.343276 -0.494233 -0.798684 -0.151479 -0.436741 0.886742 -0.27558 -0.295284 0.914802 -0.027226 -0.032452 0.999102 -0.601012 0.457852 -0.6551 -0.931151 0.191908 -0.310047 -0.92075 0.164589 -0.353738 -0.215966 0.969514 -0.115763 -0.94726 0.176398 -0.267548 -0.036792 0.957895 -0.284752 -0.997997 0.040771 -0.048374 -0.795346 0.605726 0.022802 -0.128163 0.920731 0.36855 -0.941507 0.190336 0.278096 -0.056176 0.047827 0.997275 -0.085278 0.002813 0.996353 -0.170691 0.940102 0.29508 0.000162 0.00502 0.999987 -0.907012 -0.014768 0.420846 0.312487 0.94203 0.122198 -0.98619 0.153555 -0.062056 -0.735691 0.626019 0.258571 0.386124 0.703358 0.596821 -0.00431 0.042666 0.99908 0.842095 0.413203 0.346612 -0.012219 -0.008019 0.999893 0.844161 0.521584 -0.123867 -0.001882 0.037462 0.999296 0.090969 0.262782 0.960557 0.034511 0.247699 -0.968222 0.14105 0.177208 -0.974013 0.75821 0.651763 -0.01799 0.017275 0.027977 -0.999459 0.959401 0.242636 -0.143799 0.349464 0.32895 -0.877307 0.317978 0.944766 -0.079415 -0.005012 0.051136 -0.998679 0.000575 -0.001443 -0.999999 -0.005899 -0.005546 -0.999967 -0.941674 0.305583 -0.14096 -0.005173 -0.005944 -0.999969 -0.058687 0.504522 -0.861402 0.216776 0.378388 -0.899906 0.013666 0.037407 -0.999207 -0.013038 0.014025 -0.999817 -0.71927 0.639606 -0.271211 -0.012064 -0.008002 0.999895 -0.019618 -0.033141 0.999258 0.046015 -0.008496 0.998905 -0.903893 0.389641 0.176513 -0.448316 0.582685 0.677857 -0.072046 0.701471 0.709047 0.977403 -0.211325 0.00496 0.978391 -0.206725 -0.004002 0.977875 -0.208997 -0.008971 0.018234 0.019888 0.999636 0.025066 0.025765 0.999354 -0.796699 0.356002 0.488398 -0.635903 0.769693 0.056558 -0.458308 0.887834 -0.041289 -0.485806 0.872115 0.058374 -0.365755 -0.328321 -0.870878 -0.111064 0.844467 -0.523967 -0.594303 0.636479 -0.491629 0.009174 0.061567 -0.998061 -0.228885 0.970709 0.073043 -0.155392 0.982063 -0.106801 0.572083 0.688636 -0.445535 0.148526 0.614271 0.774991 -0.525676 -0.718355 -0.455664 -0.529885 -0.331161 -0.780739 -0.466996 0.753715 0.462416 -0.001205 0.006906 0.999975 -0.00841 0.011817 0.999895 -0.34137 0.483917 0.805786 -0.269378 0.578298 0.77007 0.037065 0.37282 0.927163 -0.079129 0.008618 0.996827 -0.008919 0.013093 0.999875 0.019572 -0.023281 -0.999537 0.030123 0.016222 -0.999415 -0.001154 0.002897 -0.999995 0.012365 0.000543 -0.999923 -0.553342 -0.468162 -0.688939 -0.542149 -0.484427 -0.686589 0.977258 -0.211985 -0.00536 0.97638 -0.215957 -0.006632 -0.064646 0.997555 -0.026563 0.245738 0.964742 -0.094261 -0.233395 -0.842282 -0.485889 -0.285296 -0.776409 -0.561957 -0.968655 0.245973 -0.03471 -0.019575 -0.474678 -0.879942 -0.9507 0.307381 -0.041059 -0.086722 -0.031996 -0.995719 -0.594087 0.717269 -0.364125 -0.401814 -0.880028 -0.253172 -0.822033 0.254171 0.509567 0.998907 -0.003268 -0.046632 0.862196 -0.472262 0.183267 -0.951286 0.30462 -0.047558 -0.940429 0.336959 -0.045307 -0.005504 -0.010809 0.999926 -0.497455 -0.215351 0.840335 -0.661749 -0.40367 0.631774 -0.015831 -0.41201 0.911042 0.978058 -0.208291 0.004291 0.215322 0.924607 0.314226 0.211796 0.921435 0.325731 -0.25013 -0.85532 0.453721 -0.802234 0.59365 -0.063245 -0.095746 -0.728489 0.678334 -0.974395 0.218807 0.051749 -0.023542 -0.484091 0.874701 -0.98409 0.175267 0.029129 -0.246877 -0.558305 0.792053 -0.962132 0.272332 0.0117 0.046627 0.964029 0.261677 -0.782389 -0.027547 0.62218 -0.649635 -0.374218 -0.661767 -0.959514 0.281376 -0.012691 -0.979473 0.199577 -0.028295 -0.975923 0.216465 0.026793 -0.978168 0.199373 0.058629 -0.982116 0.169897 -0.081137 -0.225475 0.660484 0.716186 -0.205439 -0.976651 0.062836 -0.790838 -0.611297 -0.029864 -0.237852 -0.970797 0.031304 0.11727 0.755745 0.64428 0.088471 0.79675 0.597798 0.489145 0.281385 0.825566 0.019619 0.02215 0.999562 -0.019797 -0.084089 0.996262 0.218541 0.924301 0.312902 0.221113 0.926562 0.304288 -0.149992 0.980192 -0.129328 0.097767 -0.888343 -0.448651 -0.300459 0.921257 -0.247 0.29224 -0.954649 -0.05693 -0.983456 0.172788 -0.054392 0.585787 -0.809313 0.043208 0.006773 0.162295 -0.986719 0.793247 -0.604041 -0.076775 0.663429 -0.718918 -0.207409 0.022132 0.023014 -0.99949 0.471936 -0.881525 -0.013768 -0.139071 -0.245258 -0.959431 -0.196476 -0.655279 -0.729387 -0.009793 0.282468 0.959227 -0.055165 0.150634 0.987049 -0.151869 0.212241 0.965344 -0.132542 0.840153 0.525904 -0.858314 -0.497999 -0.123671 -0.033826 -0.008623 0.999391 -0.760277 -0.645917 0.069066 -0.157846 -0.628312 0.76178 -0.086903 -0.482553 0.871545 -0.224414 -0.206374 0.952391 -0.255201 -0.966845 0.009137 -0.191482 -0.92451 0.329568 -0.289408 -0.956341 -0.040673 -0.326056 -0.852823 -0.407899 -0.187126 -0.67478 -0.713902 -0.019824 0.322209 -0.946461 0.005886 0.013276 -0.999895 0.240505 0.968735 -0.060907 -0.294797 -0.646648 -0.70352 -0.31379 -0.213393 -0.925202 -0.326152 -0.823977 0.463343 0.198631 -0.748205 -0.633036 0.015742 0.023494 0.9996 -0.001961 -0.004488 0.999988 0.165083 0.931078 0.325334 -0.163751 -0.199445 0.96613 -0.066541 -0.708815 0.702249 -0.234674 -0.971546 0.03205 -0.62343 -0.778351 -0.074193 0.013353 -0.607607 0.794126 0.46966 0.479557 -0.741245 0.431671 0.20058 0.879447 -0.942499 0.145987 0.300639 -0.914442 0.219872 0.339782 -0.968163 0.249597 -0.019045 -0.97913 0.203225 -0.002119 -0.921131 0.388845 0.017789 0.991501 -0.125627 -0.033819 0.991169 -0.128754 -0.031715 0.990872 -0.11901 -0.063319 0.966591 -0.25537 -0.022104 0.208524 -0.275577 -0.93839 0.000046 -0.944048 0.32981 0.189489 0.269236 0.944249 -0.117129 -0.268182 0.956221 0.172413 0.318181 0.93222 -0.255313 -0.589562 0.766311 0.951244 -0.306283 0.036396 0.943302 -0.331834 0.008219 -0.089677 -0.487332 -0.8686 -0.13446 -0.542639 -0.829134 0.170186 0.610176 -0.773771 0.474668 0.874458 0.100073 0.028942 -0.99824 0.051756 -0.137649 -0.247476 -0.959067 0.970881 -0.174307 0.164341 0.984234 -0.171228 0.044316 0.49151 0.384412 0.781438 0.719406 -0.459646 0.52075 0.115852 0.420061 -0.900071 0.204168 0.975519 0.081726 -0.17485 0.779007 -0.602143 -0.048677 0.142973 -0.988529 -0.190775 -0.58895 0.78533 -0.635081 0.237764 -0.734942 -0.10956 0.200647 -0.973518 0.001935 -0.343276 -0.939233 0.12601 0.523505 -0.842653 0.0062 -0.172178 -0.985046 -0.966564 0.220069 -0.131621 -0.058885 -0.223595 -0.972902 -0.096447 -0.397027 -0.912725 0.265177 0.88215 0.389221 0.967757 -0.24384 0.06316 0.716955 -0.432621 -0.54664 -0.979258 0.202612 -0.001355 0.952139 -0.302484 -0.043981 0.946957 -0.319503 -0.034511 0.953632 -0.300898 -0.006746 -0.085824 -0.453484 0.887123 0.110677 0.411047 0.904871 0.011823 0.032512 -0.999401 0.103879 0.399712 -0.910736 -0.028552 0.620972 -0.783313 0.209704 0.77921 -0.590641 0.364486 0.578205 -0.729952 0.108666 0.062837 -0.99209 -0.252189 -0.957087 -0.142776 -0.013697 -0.097815 0.99511 0.103874 0.351014 0.930591 0.086879 0.338889 0.936807 0.057202 0.3372 0.939694 -0.014462 -0.085991 0.996191 0.333977 -0.548925 0.766251 0.111308 0.439391 0.891373 -0.086579 -0.662603 0.74395 -0.094949 -0.572852 0.814141 0.973386 -0.228482 0.017751 0.232728 -0.381799 -0.894465 -0.0152 0.186615 -0.982315 0.07786 -0.957946 -0.276183 0.887671 -0.416432 -0.196532 0.970428 -0.239249 -0.032073 -0.972107 0.201295 -0.120366 0.154343 0.605322 -0.780874 -0.970963 0.209457 -0.11558 -0.134932 -0.222433 -0.965566 -0.341056 -0.889571 0.303881 0.461448 0.821978 0.333792 0.96426 -0.264171 0.020407 0.267831 -0.219566 0.938113 0.254998 -0.70679 0.659867 -0.966557 0.234538 0.103724 0.96523 -0.238993 0.10589 -0.946669 0.321219 0.025235 0.962577 -0.268592 0.036095 -0.960895 0.27689 -0.003589 0.976941 -0.213252 -0.010507 -0.003657 -0.034183 -0.999409 0.005563 0.02266 -0.999728 0.219255 0.922678 -0.317164 0.221614 0.925693 -0.306561 0.026356 0.101952 0.99444 -0.021735 -0.079692 0.996583 -0.01575 -0.070518 0.997386 0.301751 0.770005 0.562173 -0.001911 0.432194 0.901779 0.183462 0.980847 -0.065424 0.248844 0.642052 0.725152 0.950879 -0.284714 -0.121517 0.983198 -0.118749 -0.13864 0.932051 -0.361867 0.01826 -0.236458 -0.971577 -0.011257 -0.178707 -0.546685 -0.818046 -0.031393 -0.166711 -0.985506 0.067715 0.68876 -0.72182 0.20425 0.976397 -0.070221 0.95866 -0.280751 -0.046364 0.034559 -0.142853 -0.98914 0.957919 -0.269717 -0.098206 0.334373 0.552607 -0.763427 -0.82029 -0.119462 -0.559333 -0.187522 -0.939428 0.286897 -0.152251 -0.71444 -0.682931 0.047614 -0.339001 -0.93958 0.97561 -0.180085 0.125518 -0.171321 -0.569625 0.803851 0.201437 0.283148 -0.937684 -0.244221 0.393502 -0.886291 0.110456 0.393478 -0.912674 0.554406 -0.074171 -0.828935 0.365661 -0.454628 -0.812161 -0.065499 0.102112 -0.992614 0.505418 0.551376 -0.66373 0.49745 0.804697 -0.324047 0.731006 0.674142 0.105656 -0.874122 0.476933 0.091906 0.124597 0.991404 -0.039931 0.14363 0.624337 -0.767837 0.14165 0.531385 -0.835204 0.19043 0.825146 -0.531856 0.162319 0.760931 -0.628201 -0.008141 -0.021409 -0.999738 -0.120624 0.990338 -0.068408 -0.294034 -0.776198 0.557728 0.197345 0.976692 0.084432 -0.967612 0.23389 0.094984 -0.965957 0.242027 0.09138 -0.089781 -0.313932 0.945191 0.065836 0.254894 0.964725 -0.999107 -0.008308 -0.04142 0.211918 0.673269 0.708378 0.95921 -0.253099 0.125922 0.030604 0.165644 0.985711 -0.175469 -0.690305 0.701918 -0.960609 0.160536 0.226845 0.941086 -0.288739 0.17603 0.086584 0.27787 0.956709 0.07509 0.495456 0.865381 0.170816 0.482243 0.859222 0.207597 0.669723 0.713004 0.169677 0.738616 0.652423 0.035026 0.086224 0.99566 0.006201 0.02267 0.999724 0.202214 0.95091 0.234263 -0.986059 0.165304 0.019024 0.079628 0.264188 -0.961178 0.088858 0.005043 -0.996032 -0.114846 -0.512028 -0.851256 -0.113868 -0.515123 -0.849519 0.835752 -0.484837 -0.257782 0.723531 -0.6773 0.133295 0.970352 -0.216565 -0.107316 0.963354 -0.260078 -0.065642 0.12584 0.370677 0.920197 0.288058 0.808688 -0.512881 0.956255 -0.280979 0.081406 0.953693 -0.293306 0.066644 -0.141517 -0.622508 0.769712 0.69797 -0.701096 0.145955 -0.175019 -0.957461 0.229426 0.983396 -0.181238 0.009193 0.993251 -0.051516 0.103918 0.028673 0.08573 0.995906 0.288861 0.806632 -0.515659 -0.192423 -0.687295 -0.700428 -0.150336 -0.894776 -0.420446 -0.226228 -0.84766 0.479888 0.125779 -0.135807 0.982719 0.969701 -0.243658 -0.017642 0.983061 -0.15654 0.095323 0.999551 -0.029941 -0.000592 0.970258 -0.206065 -0.127029 0.951841 0.299033 -0.067663 0.95536 0.286547 -0.071956 0.776933 0.620908 -0.104156 0.411216 0.911091 0.028553 0.993692 0.103795 0.042467 -0.005274 0.005003 0.999974 -0.06978 0.997426 -0.016504 0.962947 0.229257 -0.142035 0.000778 0.986778 -0.162076 0.01563 0.021925 -0.999637 0.963433 -0.267946 -0.001155 -0.003486 0.007515 0.999966 0.018127 0.068046 -0.997518 0.101154 0.297396 -0.949381</float_array>
          <technique_common>
            <accessor source="#FakePocketPistols-mesh-normals-array" count="494" stride="3">
              <param name="X" type="float"/>
              <param name="Y" type="float"/>
              <param name="Z" type="float"/>
            </accessor>
          </technique_common>
        </source>
        <source id="FakePocketPistols-mesh-map-0">
          <float_array id="FakePocketPistols-mesh-map-0-array" count="2964">0.310791 0.649658 0.270264 0.529053 0.361816 0.64917 0.270264 0.529053 0.310791 0.649658 0.281006 0.597168 0.281006 0.597168 0.310791 0.649658 0.233154 0.636475 0.281006 0.597168 0.233154 0.636475 0.259766 0.552246 0.281006 0.597168 0.259766 0.552246 0.270264 0.529053 0.259766 0.552246 0.233154 0.636475 0.205566 0.550293 0.259766 0.552246 0.205566 0.550293 0.270264 0.529053 0.205566 0.550293 0.233154 0.636475 0.155273 0.59082 0.270264 0.529053 0.205566 0.550293 0.275146 0.51123 0.275146 0.51123 0.205566 0.550293 0.192871 0.529541 0.270264 0.529053 0.275146 0.51123 0.312988 0.511475 0.270264 0.529053 0.312988 0.511475 0.361816 0.64917 0.312988 0.511475 0.275146 0.51123 0.29248 0.475098 0.312988 0.511475 0.29248 0.475098 0.33667 0.474854 0.312988 0.511475 0.33667 0.474854 0.409912 0.580811 0.361816 0.64917 0.312988 0.511475 0.38208 0.606445 0.38208 0.606445 0.312988 0.511475 0.409912 0.580811 0.361816 0.64917 0.38208 0.606445 0.429443 0.626221 0.429443 0.626221 0.38208 0.606445 0.409912 0.580811 0.429443 0.626221 0.409912 0.580811 0.440674 0.612305 0.135986 0.900391 0.060791 0.797852 0.123779 0.789307 0.060791 0.797852 0.135986 0.900391 0.056641 0.844238 0.056641 0.844238 0.135986 0.900391 0.023926 0.914795 0.135986 0.900391 0.123779 0.789307 0.182617 0.899902 0.135986 0.900391 0.182617 0.899902 0.168701 0.911865 0.168701 0.911865 0.182617 0.899902 0.182861 0.920166 0.697021 0.177734 0.743408 0.197998 0.715576 0.235596 0.697021 0.177734 0.715576 0.235596 0.662109 0.192383 0.743408 0.197998 0.697021 0.177734 0.683838 0.134033 0.743408 0.197998 0.683838 0.134033 0.751465 0.161865 0.697021 0.177734 0.662109 0.192383 0.65625 0.129395 0.697021 0.177734 0.65625 0.129395 0.683838 0.134033 0.65625 0.129395 0.662109 0.192383 0.626953 0.15625 0.65625 0.129395 0.626953 0.15625 0.567383 0.133789 0.683838 0.134033 0.65625 0.129395 0.670166 0.05835 0.751465 0.161865 0.683838 0.134033 0.736572 0.097412 0.683838 0.134033 0.670166 0.05835 0.720703 0.051758 0.683838 0.134033 0.720703 0.051758 0.736572 0.097412 0.736572 0.097412 0.720703 0.051758 0.756836 0.02417 0.435547 0.722656 0.447266 0.725586 0.424316 0.779541 0.424316 0.779541 0.447266 0.725586 0.442871 0.799561 0.442871 0.799561 0.447266 0.725586 0.470215 0.743408 0.424316 0.779541 0.442871 0.799561 0.44043 0.826172 0.424316 0.779541 0.44043 0.826172 0.434326 0.825195 0.434326 0.825195 0.44043 0.826172 0.387207 0.868408 0.44043 0.826172 0.442871 0.799561 0.480713 0.83667 0.480713 0.83667 0.442871 0.799561 0.470215 0.743408 0.44043 0.826172 0.480713 0.83667 0.484619 0.866455 0.480713 0.83667 0.470215 0.743408 0.517822 0.787109 0.484619 0.866455 0.480713 0.83667 0.529785 0.821533 0.529785 0.821533 0.480713 0.83667 0.517822 0.787109 0.529785 0.821533 0.517822 0.787109 0.598877 0.777588 0.472412 0.570801 0.473633 0.593262 0.448486 0.594727 0.473633 0.593262 0.472412 0.570801 0.510254 0.57959 0.473633 0.593262 0.510254 0.57959 0.564941 0.5979 0.510254 0.57959 0.472412 0.570801 0.515137 0.558838 0.515137 0.558838 0.472412 0.570801 0.477051 0.551025 0.515137 0.558838 0.477051 0.551025 0.550781 0.540283 0.510254 0.57959 0.515137 0.558838 0.552979 0.578125 0.510254 0.57959 0.552979 0.578125 0.564941 0.5979 0.515137 0.558838 0.550781 0.540283 0.560547 0.560303 0.515137 0.558838 0.560547 0.560303 0.552979 0.578125 0.560547 0.560303 0.550781 0.540283 0.602539 0.549316 0.602539 0.549316 0.550781 0.540283 0.630371 0.511475 0.630371 0.511475 0.550781 0.540283 0.554443 0.517822 0.630371 0.511475 0.554443 0.517822 0.614502 0.484619 0.630371 0.511475 0.614502 0.484619 0.638672 0.438721 0.552979 0.578125 0.560547 0.560303 0.59375 0.576172 0.59375 0.576172 0.560547 0.560303 0.602539 0.549316 0.552979 0.578125 0.59375 0.576172 0.564941 0.5979 0.59375 0.576172 0.602539 0.549316 0.629883 0.608398 0.59375 0.576172 0.629883 0.608398 0.596436 0.598877 0.59375 0.576172 0.596436 0.598877 0.564941 0.5979 0.564941 0.5979 0.596436 0.598877 0.60791 0.619629 0.564941 0.5979 0.60791 0.619629 0.555176 0.617188 0.555176 0.617188 0.60791 0.619629 0.61499 0.648682 0.871826 0.261719 0.842773 0.269531 0.862305 0.186523 0.871826 0.261719 0.862305 0.186523 0.917969 0.142578 0.862305 0.186523 0.842773 0.269531 0.825928 0.172363 0.825928 0.172363 0.842773 0.269531 0.824463 0.269043 0.903076 0.991699 0.838135 0.989014 0.885742 0.974609 0.885742 0.974609 0.838135 0.989014 0.839355 0.954102 0.885742 0.974609 0.839355 0.954102 0.867188 0.933594 0.867188 0.933594 0.839355 0.954102 0.834229 0.932861 0.493896 0.079346 0.579102 0.016846 0.514648 0.099365 0.579102 0.016846 0.493896 0.079346 0.546387 0 0.546387 0 0.493896 0.079346 0.496338 0.031006 0.496338 0.031006 0.493896 0.079346 0.437012 0.096924 0.514648 0.099365 0.579102 0.016846 0.581055 0.093506 0.514648 0.099365 0.581055 0.093506 0.546875 0.142334 0.581055 0.093506 0.579102 0.016846 0.64502 0.01416 0.546875 0.142334 0.581055 0.093506 0.593994 0.100586 0.593994 0.100586 0.581055 0.093506 0.64502 0.01416 0.593994 0.100586 0.64502 0.01416 0.643799 0.069336 0.961914 0.297852 0.93042 0.341064 0.904297 0.294678 0.71582 0.991943 0.649414 0.991943 0.697266 0.954346 0.050781 0.745361 0.071289 0.744385 0.033691 0.798828 0.071289 0.744385 0.050781 0.745361 0.020996 0.668945 0.033691 0.798828 0.071289 0.744385 0.087891 0.778076 0.087891 0.778076 0.071289 0.744385 0.189209 0.795166 0.189209 0.795166 0.071289 0.744385 0.195801 0.765625 0.195801 0.765625 0.071289 0.744385 0.13501 0.725586 0.923584 0.804688 0.868896 0.791748 0.888672 0.77124 0.888672 0.77124 0.868896 0.791748 0.848877 0.774658 0.888672 0.77124 0.848877 0.774658 0.824219 0.755859 0.824219 0.755859 0.848877 0.774658 0.816895 0.81665 0.888672 0.77124 0.824219 0.755859 0.902344 0.736328 0.902344 0.736328 0.824219 0.755859 0.875488 0.696045 0.902344 0.736328 0.875488 0.696045 0.925781 0.713379 0.925781 0.713379 0.875488 0.696045 0.891357 0.676025 0.875488 0.696045 0.824219 0.755859 0.81665 0.720459 0.81665 0.720459 0.824219 0.755859 0.754395 0.720703 0.820557 0.475342 0.886719 0.487793 0.814209 0.494385 0.886719 0.487793 0.820557 0.475342 0.892822 0.434082 0.886719 0.487793 0.892822 0.434082 0.919434 0.435059 0.886719 0.487793 0.919434 0.435059 0.909912 0.489014 0.886719 0.487793 0.909912 0.489014 0.939941 0.539062 0.606201 0.952148 0.669922 0.968018 0.603516 0.976807 0.606201 0.952148 0.603516 0.976807 0.55127 0.933594 0.606201 0.952148 0.55127 0.933594 0.611084 0.929443 0.606201 0.952148 0.611084 0.929443 0.669922 0.968018 0.669922 0.968018 0.611084 0.929443 0.646484 0.897949 0.042725 0.339844 0.062744 0.242676 0.072266 0.270752 0.072266 0.270752 0.062744 0.242676 0.119873 0.249756 0.119873 0.249756 0.062744 0.242676 0.12085 0.236572 0.201416 0.214844 0.12085 0.236572 0.154541 0.191162 0.12085 0.236572 0.062744 0.242676 0.111816 0.207275 0.12085 0.236572 0.111816 0.207275 0.154541 0.191162 0.111816 0.207275 0.062744 0.242676 0.059814 0.186279 0.059814 0.186279 0.062744 0.242676 0.002197 0.216797 0.154541 0.191162 0.111816 0.207275 0.108154 0.180908 0.108154 0.180908 0.111816 0.207275 0.059814 0.186279 0.059814 0.186279 0.002197 0.216797 0.048584 0.173828 0.059814 0.186279 0.048584 0.173828 0.108154 0.180908 0.154541 0.191162 0.108154 0.180908 0.182129 0.143311 0.182129 0.143311 0.108154 0.180908 0.133057 0.125 0.108154 0.180908 0.048584 0.173828 0.099854 0.16626 0.108154 0.180908 0.099854 0.16626 0.133057 0.125 0.099854 0.16626 0.048584 0.173828 0.045166 0.151855 0.045166 0.151855 0.048584 0.173828 0.000244 0.145996 0.133057 0.125 0.099854 0.16626 0.109131 0.114502 0.109131 0.114502 0.099854 0.16626 0.045166 0.151855 0.133057 0.125 0.109131 0.114502 0.104492 0.033203 0.133057 0.125 0.104492 0.033203 0.148682 0.096924 0.104492 0.033203 0.109131 0.114502 0.080078 0.044922 0.080078 0.044922 0.109131 0.114502 0.045166 0.151855 0.080078 0.044922 0.045166 0.151855 0.011475 0.067871 0.931885 0.357178 0.858643 0.345215 0.895752 0.295166 0.895752 0.295166 0.858643 0.345215 0.824463 0.281738 0.824463 0.281738 0.858643 0.345215 0.842041 0.344482 0.858643 0.345215 0.931885 0.357178 0.904297 0.413086 0.842041 0.344482 0.858643 0.345215 0.849365 0.39917 0.849365 0.39917 0.858643 0.345215 0.904297 0.413086 0.849365 0.39917 0.904297 0.413086 0.9021 0.428711 0.849365 0.39917 0.9021 0.428711 0.827148 0.433594 0.209473 0.860596 0.187988 0.812988 0.229248 0.852783 0.209473 0.860596 0.229248 0.852783 0.276123 0.918457 0.209473 0.860596 0.276123 0.918457 0.209229 0.915039 0.276123 0.918457 0.229248 0.852783 0.289307 0.848877 0.209229 0.915039 0.276123 0.918457 0.27832 0.938232 0.209229 0.915039 0.27832 0.938232 0.196533 0.934326 0.27832 0.938232 0.276123 0.918457 0.311279 0.91626 0.311279 0.91626 0.276123 0.918457 0.289307 0.848877 0.311279 0.91626 0.289307 0.848877 0.326904 0.893799 0.055176 0.397217 0.018066 0.405762 0.01416 0.317871 0.018066 0.405762 0.055176 0.397217 0.039307 0.449219 0.039307 0.449219 0.055176 0.397217 0.087402 0.474609 0.087402 0.474609 0.055176 0.397217 0.101807 0.411865 0.087402 0.474609 0.101807 0.411865 0.122803 0.43457 0.087402 0.474609 0.122803 0.43457 0.106445 0.478271 0.106445 0.478271 0.122803 0.43457 0.180176 0.486328 0.106445 0.478271 0.180176 0.486328 0.158203 0.530762 0.158203 0.530762 0.180176 0.486328 0.255859 0.508545 0.087402 0.474609 0.106445 0.478271 0.059814 0.509277 0.087402 0.474609 0.059814 0.509277 0.039307 0.449219 0.039307 0.449219 0.059814 0.509277 0.031494 0.502441 0.031494 0.502441 0.059814 0.509277 0.014404 0.524902 0.014404 0.524902 0.059814 0.509277 0.032715 0.541992 0.014404 0.524902 0.032715 0.541992 0 0.550049 0.501221 0.275391 0.530518 0.299072 0.500732 0.307129 0.489746 0.257568 0.53418 0.1604 0.501221 0.275391 0.489746 0.257568 0.501221 0.275391 0.432861 0.293945 0.432861 0.293945 0.501221 0.275391 0.500732 0.307129 0.432861 0.293945 0.500732 0.307129 0.426025 0.324219 0.426025 0.324219 0.500732 0.307129 0.489258 0.337158 0.489258 0.337158 0.500732 0.307129 0.544922 0.368408 0.489258 0.337158 0.544922 0.368408 0.535889 0.395752 0.840576 0.054688 0.8125 0.072998 0.818115 0.012207 0.840576 0.054688 0.818115 0.012207 0.850098 0 0.8125 0.072998 0.840576 0.054688 0.841553 0.080322 0.818115 0.012207 0.8125 0.072998 0.787109 0.066895 0.787109 0.066895 0.8125 0.072998 0.744629 0.104248 0.8125 0.072998 0.841553 0.080322 0.820557 0.113281 0.8125 0.072998 0.820557 0.113281 0.744629 0.104248 0.744629 0.104248 0.820557 0.113281 0.788086 0.138672 0.788086 0.138672 0.820557 0.113281 0.820557 0.161621 0.820557 0.161621 0.820557 0.113281 0.850586 0.168213 0.002197 0.983887 0.000244 0.916748 0.058594 0.943848 0.002197 0.983887 0.058594 0.943848 0.063477 0.991699 0.976074 0.08252 0.972168 0.157227 0.907959 0.127197 0.976074 0.08252 0.907959 0.127197 0.912842 0.086426 0.912842 0.086426 0.907959 0.127197 0.849609 0.111572 0.849609 0.111572 0.907959 0.127197 0.851074 0.137695 0.912842 0.086426 0.849609 0.111572 0.921875 0.01001 0.921875 0.01001 0.849609 0.111572 0.849365 0.033203 0.364014 0.878418 0.354004 0.880859 0.355957 0.862061 0.354004 0.880859 0.364014 0.878418 0.32251 0.971436 0.32251 0.971436 0.364014 0.878418 0.356689 0.972168 0.356689 0.972168 0.364014 0.878418 0.408203 0.929688 0.408203 0.929688 0.364014 0.878418 0.427979 0.865723 0.356689 0.972168 0.408203 0.929688 0.405029 0.976807 0.408203 0.929688 0.427979 0.865723 0.483643 0.893799 0.405029 0.976807 0.408203 0.929688 0.45874 0.962646 0.408203 0.929688 0.483643 0.893799 0.456787 0.93042 0.456787 0.93042 0.483643 0.893799 0.45874 0.962646 0.456787 0.93042 0.45874 0.962646 0.408203 0.929688 0.12085 0.912842 0.083008 0.925537 0.020996 0.920166 0.083008 0.925537 0.12085 0.912842 0.106689 0.937012 0.452637 0.014648 0.494629 0.013184 0.470703 0.047363 0.452637 0.014648 0.470703 0.047363 0.439453 0.083252 0.749756 0.213135 0.742676 0.291992 0.669434 0.289551 0.669434 0.289551 0.742676 0.291992 0.729248 0.317627 0.669434 0.289551 0.729248 0.317627 0.643555 0.347168 0.643555 0.347168 0.729248 0.317627 0.65332 0.393311 0.65332 0.393311 0.729248 0.317627 0.755615 0.411621 0.20459 0.71582 0.1521 0.617432 0.173828 0.609375 0.1521 0.617432 0.20459 0.71582 0.185791 0.719971 0.1521 0.617432 0.185791 0.719971 0.104004 0.649902 0.1521 0.617432 0.104004 0.649902 0.149658 0.575928 0.104004 0.649902 0.185791 0.719971 0.126709 0.69043 0.149658 0.575928 0.104004 0.649902 0.102783 0.567383 0.104004 0.649902 0.126709 0.69043 0.023438 0.661621 0.104004 0.649902 0.023438 0.661621 0.102783 0.567383 0.023438 0.661621 0.126709 0.69043 0.082275 0.719482 0.102783 0.567383 0.023438 0.661621 0.069336 0.56665 0.069336 0.56665 0.023438 0.661621 0.032959 0.605225 0.069336 0.56665 0.032959 0.605225 0.002441 0.588379 0.002441 0.588379 0.032959 0.605225 0.023438 0.661621 0.002441 0.588379 0.023438 0.661621 0.001221 0.668213 0.974609 0.488037 0.943359 0.531006 0.916504 0.486816 0.124512 0.940186 0.163818 0.934082 0.158691 0.980957 0.124512 0.940186 0.158691 0.980957 0.120605 0.969727 0.124512 0.940186 0.120605 0.969727 0.084961 0.979248 0.124512 0.940186 0.084961 0.979248 0.087646 0.943604 0.163818 0.934082 0.124512 0.940186 0.124756 0.932373 0.163818 0.934082 0.124756 0.932373 0.166992 0.926758 0.797852 0.80957 0.793945 0.817627 0.748047 0.843262 0.748047 0.843262 0.793945 0.817627 0.78833 0.85083 0.748047 0.843262 0.78833 0.85083 0.768555 0.865234 0.748047 0.843262 0.768555 0.865234 0.734863 0.868408 0.797852 0.80957 0.748047 0.843262 0.816895 0.77417 0.816895 0.77417 0.748047 0.843262 0.720215 0.837891 0.816895 0.77417 0.720215 0.837891 0.786377 0.748779 0.786377 0.748779 0.720215 0.837891 0.658447 0.846436 0.958496 0.816162 0.957031 0.859619 0.928467 0.859131 0.957031 0.859619 0.958496 0.816162 0.978271 0.863525 0.958496 0.816162 0.928467 0.859131 0.922852 0.823486 0.978271 0.863525 0.958496 0.816162 1 0.825195 0.958496 0.816162 0.922852 0.823486 0.936768 0.787109 1 0.825195 0.958496 0.816162 0.99585 0.796387 0.958496 0.816162 0.936768 0.787109 0.954102 0.772949 0.958496 0.816162 0.954102 0.772949 0.99585 0.796387 0.99585 0.796387 0.954102 0.772949 0.997559 0.743408 0.954102 0.772949 0.936768 0.787109 0.904541 0.761475 0.997559 0.743408 0.954102 0.772949 0.954834 0.742188 0.954834 0.742188 0.954102 0.772949 0.904541 0.761475 0.954834 0.742188 0.904541 0.761475 0.916748 0.732422 0.147217 0.37793 0.126953 0.429688 0.143799 0.358398 0.147217 0.37793 0.143799 0.358398 0.157715 0.342529 0.157715 0.342529 0.143799 0.358398 0.151367 0.324951 0.157715 0.342529 0.151367 0.324951 0.202393 0.32251 0.202393 0.32251 0.151367 0.324951 0.183838 0.262695 0.183838 0.262695 0.151367 0.324951 0.123291 0.289307 0.202393 0.32251 0.183838 0.262695 0.216064 0.261719 0.183838 0.262695 0.123291 0.289307 0.159912 0.263428 0.159912 0.263428 0.123291 0.289307 0.158691 0.232178 0.183838 0.262695 0.159912 0.263428 0.219727 0.231689 0.183838 0.262695 0.219727 0.231689 0.216064 0.261719 0.219727 0.231689 0.159912 0.263428 0.261719 0.18042 0.216064 0.261719 0.219727 0.231689 0.252441 0.238037 0.216064 0.261719 0.252441 0.238037 0.263672 0.244385 0.216064 0.261719 0.263672 0.244385 0.242188 0.29126 0.480225 0.882324 0.558594 0.811279 0.504395 0.89917 0.504395 0.89917 0.558594 0.811279 0.637695 0.78833 0.504395 0.89917 0.637695 0.78833 0.581055 0.855469 0.504395 0.89917 0.581055 0.855469 0.512939 0.913086 0.512939 0.913086 0.581055 0.855469 0.574219 0.891846 0.512939 0.913086 0.574219 0.891846 0.621826 0.910645 0.621826 0.910645 0.574219 0.891846 0.581055 0.855469 0.599609 0.369629 0.600586 0.267822 0.637939 0.353027 0.637939 0.353027 0.600586 0.267822 0.652588 0.192139 0.600586 0.267822 0.599609 0.369629 0.584473 0.27002 0.584473 0.27002 0.599609 0.369629 0.576904 0.328369 0.584473 0.27002 0.576904 0.328369 0.514404 0.253906 0.514404 0.253906 0.576904 0.328369 0.558838 0.341064 0.558838 0.341064 0.576904 0.328369 0.599609 0.369629 0.558838 0.341064 0.599609 0.369629 0.558105 0.38916 0.558105 0.38916 0.599609 0.369629 0.5979 0.430908 0.5979 0.430908 0.599609 0.369629 0.616943 0.390625 0.319336 0.337158 0.343018 0.326416 0.328125 0.355225 0.343018 0.326416 0.319336 0.337158 0.343262 0.268066 0.343018 0.326416 0.343262 0.268066 0.42041 0.305664 0.42041 0.305664 0.343262 0.268066 0.366455 0.223145 0.343018 0.326416 0.42041 0.305664 0.421387 0.329102 0.343018 0.326416 0.421387 0.329102 0.387451 0.361816 0.387451 0.361816 0.421387 0.329102 0.438232 0.359375 0.438232 0.359375 0.421387 0.329102 0.447021 0.343262 0.387451 0.361816 0.438232 0.359375 0.461426 0.388184 0.461426 0.388184 0.438232 0.359375 0.516846 0.390137 0.461426 0.388184 0.516846 0.390137 0.495117 0.416992 0.261963 0.281006 0.343262 0.268066 0.319336 0.337158 0.343262 0.268066 0.261963 0.281006 0.28125 0.183105 0.261963 0.281006 0.319336 0.337158 0.242432 0.342529 0.242432 0.342529 0.319336 0.337158 0.23584 0.384766 0.242432 0.342529 0.23584 0.384766 0.152832 0.382568 0.152832 0.382568 0.23584 0.384766 0.150146 0.412354 0.458252 0.549072 0.378418 0.523193 0.391602 0.498535 0.458252 0.549072 0.391602 0.498535 0.477051 0.519531 0.477051 0.519531 0.391602 0.498535 0.438232 0.494873 0.477051 0.519531 0.438232 0.494873 0.487793 0.513672 0.438232 0.494873 0.391602 0.498535 0.494141 0.472656 0.438232 0.494873 0.494141 0.472656 0.487793 0.513672 0.487793 0.513672 0.494141 0.472656 0.505371 0.475586 0.487793 0.513672 0.505371 0.475586 0.512939 0.529053 0.512939 0.529053 0.505371 0.475586 0.545654 0.536133 0.505371 0.475586 0.494141 0.472656 0.521729 0.471436 0.521729 0.471436 0.494141 0.472656 0.546143 0.392334 0.521729 0.471436 0.546143 0.392334 0.546631 0.436035 0.521729 0.471436 0.546631 0.436035 0.537842 0.472412 0.537842 0.472412 0.546631 0.436035 0.57666 0.42041 0.275146 0.978027 0.317627 0.919922 0.301758 0.986572 0.840576 0.85791 0.786377 0.860107 0.818359 0.849365 0.786377 0.860107 0.840576 0.85791 0.815674 0.926758 0.786377 0.860107 0.815674 0.926758 0.77124 0.932617 0.815674 0.926758 0.840576 0.85791 0.849121 0.925537 0.849121 0.925537 0.840576 0.85791 0.897949 0.861084 0.897949 0.861084 0.840576 0.85791 0.918213 0.832031 0.849121 0.925537 0.897949 0.861084 0.900391 0.934082 0.900391 0.934082 0.897949 0.861084 0.925049 0.934082 0.936523 0.063965 0.931885 0.001221 0.974854 0.042969 0.936523 0.063965 0.974854 0.042969 0.97998 0.078125 0.936523 0.063965 0.97998 0.078125 0.926514 0.078369 0.95166 0.395996 0.907715 0.427734 0.930664 0.374268 0.923828 0.442139 0.949951 0.468262 0.919189 0.479492 0.949951 0.468262 0.923828 0.442139 0.949707 0.438965 0.91748 0.563721 0.960938 0.594971 0.918457 0.629395 0.76123 0.080566 0.766602 0.018066 0.798096 0.00415 0.76123 0.080566 0.798096 0.00415 0.812012 0.009766 0.250977 0.669189 0.239502 0.776611 0.216064 0.694092 0.239502 0.776611 0.250977 0.669189 0.292236 0.696045 0.292236 0.696045 0.250977 0.669189 0.272461 0.654297 0.292236 0.696045 0.272461 0.654297 0.320801 0.668213 0.292236 0.696045 0.320801 0.668213 0.341309 0.681152 0.320801 0.668213 0.272461 0.654297 0.269043 0.650146 0.320801 0.668213 0.269043 0.650146 0.382812 0.663086 0.361572 0.725098 0.407715 0.786865 0.399902 0.796631 0.407715 0.786865 0.361572 0.725098 0.406738 0.759521 0.406738 0.759521 0.361572 0.725098 0.391113 0.734619 0.391113 0.734619 0.361572 0.725098 0.401611 0.644287 0.361572 0.725098 0.399902 0.796631 0.367432 0.760254 0.361572 0.725098 0.367432 0.760254 0.343994 0.74292 0.343994 0.74292 0.367432 0.760254 0.26123 0.754395 0.281494 0.958496 0.224609 0.943359 0.286621 0.942871 0.224609 0.943359 0.281494 0.958496 0.223633 0.961426 0.224609 0.943359 0.223633 0.961426 0.195801 0.940674 0.195801 0.940674 0.223633 0.961426 0.193359 0.973877 0.996582 0.946045 0.999756 0.975098 0.970947 0.958496 0.970947 0.958496 0.999756 0.975098 0.967773 0.974609 0.970947 0.958496 0.967773 0.974609 0.95166 0.973389 0.970947 0.958496 0.95166 0.973389 0.93457 0.958252 0.970947 0.958496 0.93457 0.958252 0.94165 0.933105 0.94165 0.933105 0.93457 0.958252 0.886475 0.957764 0.970947 0.958496 0.94165 0.933105 0.970459 0.919434 0.970459 0.919434 0.94165 0.933105 0.944824 0.876709 0.69873 0.021973 0.649414 0.057373 0.656982 0.000244 0.948975 0.614258 0.96875 0.639404 0.93335 0.636719 0.948975 0.614258 0.93335 0.636719 0.918457 0.639404 0.7146 0.893311 0.719482 0.843262 0.72876 0.87915 0.719482 0.843262 0.7146 0.893311 0.692139 0.876709 0.7146 0.893311 0.72876 0.87915 0.723877 0.907471 0.692139 0.876709 0.7146 0.893311 0.67334 0.874512 0.7146 0.893311 0.723877 0.907471 0.674072 0.962891 0.691895 0.907227 0.674072 0.962891 0.67334 0.874512 0.674072 0.962891 0.691895 0.907227 0.7146 0.893311 0.7146 0.893311 0.691895 0.907227 0.67334 0.874512 0.937256 0.147461 0.949951 0.165527 0.940674 0.289307 0.711182 0.409424 0.729492 0.598633 0.704102 0.449707 0.729492 0.598633 0.711182 0.409424 0.738037 0.417969 0.217041 0.827881 0.224365 0.80542 0.380859 0.861328 0.732422 0.980225 0.72876 0.959961 0.773926 0.945801 0.732422 0.980225 0.773926 0.945801 0.752197 0.977295 0.752197 0.977295 0.773926 0.945801 0.80835 0.942627 0.752197 0.977295 0.80835 0.942627 0.808838 0.980957 0.773926 0.945801 0.72876 0.959961 0.759277 0.93042 0.759277 0.93042 0.72876 0.959961 0.697266 0.947998 0.759277 0.93042 0.697266 0.947998 0.747803 0.901855 0.446289 0.69165 0.414795 0.691162 0.436523 0.671631 0.446289 0.69165 0.436523 0.671631 0.456543 0.664307 0.406006 0.732178 0.446289 0.69165 0.43335 0.717041 0.43335 0.717041 0.446289 0.69165 0.605957 0.736328 0.605957 0.736328 0.446289 0.69165 0.456543 0.664307 0.605957 0.736328 0.456543 0.664307 0.55127 0.66748 0.55127 0.66748 0.456543 0.664307 0.469971 0.651855 0.55127 0.66748 0.469971 0.651855 0.546875 0.6521 0.469971 0.651855 0.456543 0.664307 0.470459 0.626709 0.469971 0.651855 0.470459 0.626709 0.546875 0.6521 0.470459 0.626709 0.456543 0.664307 0.454102 0.611816 0.546875 0.6521 0.470459 0.626709 0.530518 0.631348 0.546875 0.6521 0.530518 0.631348 0.550781 0.61377 0.550781 0.61377 0.530518 0.631348 0.470459 0.626709 0.550781 0.61377 0.470459 0.626709 0.454102 0.611816 0.550781 0.61377 0.454102 0.611816 0.462158 0.599121 0.787109 0.477539 0.762207 0.509277 0.760986 0.475342 0.787109 0.477539 0.760986 0.475342 0.774902 0.325684 0.83252 0.331543 0.834717 0.38208 0.804199 0.371826 0.804199 0.371826 0.834717 0.38208 0.818359 0.380615 0.818359 0.380615 0.834717 0.38208 0.799805 0.513184 0.804199 0.371826 0.818359 0.380615 0.802246 0.376709 0.804199 0.371826 0.802246 0.376709 0.783691 0.372314 0.536377 0.952881 0.521973 0.91748 0.560547 0.950684 0.521973 0.91748 0.536377 0.952881 0.512451 0.937256 0.512451 0.937256 0.536377 0.952881 0.514404 0.968994 0.512451 0.937256 0.514404 0.968994 0.475342 0.956299 0.512451 0.937256 0.475342 0.956299 0.480469 0.945557 0.512451 0.937256 0.480469 0.945557 0.488525 0.897949 0.754883 0.753662 0.710449 0.797852 0.651123 0.629883 0.754883 0.753662 0.651123 0.629883 0.666748 0.602295 0.651123 0.629883 0.710449 0.797852 0.664307 0.747559 0.651123 0.629883 0.664307 0.747559 0.638916 0.641113 0.638916 0.641113 0.664307 0.747559 0.63501 0.703369 0.63501 0.703369 0.664307 0.747559 0.632324 0.734375 0.632324 0.734375 0.664307 0.747559 0.558105 0.755127 0.558105 0.755127 0.664307 0.747559 0.679199 0.796631 0.580566 0.999756 0.552734 0.973389 0.57666 0.966797 0.57666 0.966797 0.552734 0.973389 0.541016 0.957275 0.552734 0.973389 0.580566 0.999756 0.523438 1 0.552734 0.973389 0.523438 1 0.541016 0.957275 0.992432 0.696533 1 0.739014 0.981445 0.688721 0.992432 0.696533 0.981445 0.688721 0.998047 0.650146 0.763428 0.304932 0.794922 0.309082 0.817871 0.341797 0.794922 0.309082 0.763428 0.304932 0.81958 0.16748 0.794922 0.309082 0.81958 0.16748 0.819824 0.310303 0.737549 0.001221 0.73877 0.022949 0.716064 0.046143 0.737549 0.001221 0.716064 0.046143 0.712646 0.025879 0.712646 0.025879 0.716064 0.046143 0.668457 0.05249 0.054199 0.043701 0.056641 0.022949 0.104492 0.026367 0.793945 0.518066 0.837646 0.534912 0.74585 0.688721 0.793945 0.518066 0.74585 0.688721 0.766357 0.513428 0.74585 0.688721 0.837646 0.534912 0.772461 0.705566 0.772461 0.705566 0.837646 0.534912 0.811768 0.715332 0.766357 0.513428 0.74585 0.688721 0.728516 0.678711 0.766357 0.513428 0.728516 0.678711 0.712646 0.668213 0.901367 0.979736 0.921875 0.979736 0.917236 0.992676 0.343994 0.008789 0.344971 0.020752 0.261719 0.031494 0.343994 0.008789 0.261719 0.031494 0.275391 0.001953 0.261719 0.031494 0.344971 0.020752 0.267822 0.067383 0.267822 0.067383 0.344971 0.020752 0.434814 0.031738 0.261719 0.031494 0.267822 0.067383 0.236328 0.043701 0.261719 0.031494 0.236328 0.043701 0.191895 0.004395 0.236328 0.043701 0.267822 0.067383 0.24707 0.088135 0.24707 0.088135 0.267822 0.067383 0.249023 0.10083 0.236328 0.043701 0.24707 0.088135 0.150146 0.125244 0.236328 0.043701 0.150146 0.125244 0.191406 0.020508 0.236328 0.043701 0.191406 0.020508 0.191895 0.004395 0.191895 0.004395 0.191406 0.020508 0.163574 0 0.38916 0.830811 0.38916 0.857666 0.255127 0.806396 0.38916 0.857666 0.38916 0.830811 0.423828 0.804199 0.348389 0.418701 0.206055 0.463623 0.320068 0.374756 0.348389 0.418701 0.320068 0.374756 0.352051 0.342285 0.348389 0.418701 0.352051 0.342285 0.372803 0.391113 0.348389 0.418701 0.372803 0.391113 0.493896 0.460449 0.486084 0.160156 0.369141 0.103027 0.516602 0.113281 0.369141 0.103027 0.486084 0.160156 0.350342 0.155518 0.350342 0.155518 0.486084 0.160156 0.473389 0.206543 0.350342 0.155518 0.473389 0.206543 0.344482 0.201416 0.344482 0.201416 0.473389 0.206543 0.474365 0.254639 0.350342 0.155518 0.344482 0.201416 0.32373 0.195068 0.369141 0.103027 0.350342 0.155518 0.32959 0.13623 0.32959 0.13623 0.350342 0.155518 0.32373 0.195068 0.369141 0.103027 0.32959 0.13623 0.344482 0.099609 0.32959 0.13623 0.32373 0.195068 0.291748 0.185303 0.32959 0.13623 0.291748 0.185303 0.31665 0.125488 0.31665 0.125488 0.291748 0.185303 0.286621 0.176514 0.31665 0.125488 0.286621 0.176514 0.294922 0.134766 0.294922 0.134766 0.286621 0.176514 0.255859 0.145508 0.294922 0.134766 0.255859 0.145508 0.199463 0.113281 0.199463 0.113281 0.255859 0.145508 0.215332 0.169434 0.255859 0.145508 0.286621 0.176514 0.25708 0.160645 0.255859 0.145508 0.25708 0.160645 0.215332 0.169434 0.215332 0.169434 0.25708 0.160645 0.286621 0.176514 0.969727 0.347168 0.93457 0.347168 0.953125 0.32251 0.915039 0.676514 0.87915 0.666992 0.910645 0.519531 0.015869 0.01001 0.166748 0.01001 0.166504 0.028809 0.696777 0.40625 0.696777 0.597656 0.651367 0.408936</float_array>
          <technique_common>
            <accessor source="#FakePocketPistols-mesh-map-0-array" count="1482" stride="2">
              <param name="S" type="float"/>
              <param name="T" type="float"/>
            </accessor>
          </technique_common>
        </source>
        <vertices id="FakePocketPistols-mesh-vertices">
          <input semantic="POSITION" source="#FakePocketPistols-mesh-positions"/>
        </vertices>
        <polylist material="Material_-1-material" count="6">
          <input semantic="VERTEX" source="#FakePocketPistols-mesh-vertices" offset="0"/>
          <input semantic="NORMAL" source="#FakePocketPistols-mesh-normals" offset="1"/>
          <input semantic="TEXCOORD" source="#FakePocketPistols-mesh-map-0" offset="2" set="0"/>
          <vcount>3 3 3 3 3 3 3 3 3 3 3 3 3 3 3 3 3 3 3 3 3 3 3 3 3 3 3 3 3 3 3 3 3 3 3 3 3 3 3 3 3 3 3 3 3 3 3 3 3 3 3 3 3 3 3 3 3 3 3 3 3 3 3 3 3 3 3 3 3 3 3 3 3 3 3 3 3 3 3 3 3 3 3 3 3 3 3 3 3 3 3 3 3 3 3 3 3 3 3 3 3 3 3 3 3 3 3 3 3 3 3 3 3 3 3 3 3 3 3 3 3 3 3 3 3 3 3 3 3 3 3 3 3 3 3 3 3 3 3 3 3 3 3 3 3 3 3 3 3 3 3 3 3 3 3 3 3 3 3 3 3 3 3 3 3 3 3 3 3 3 3 3 3 3 3 3 3 3 3 3 3 3 3 3 3 3 3 3 3 3 3 3 3 3 3 3 3 3 3 3 3 3 3 3 3 3 3 3 3 3 3 3 3 3 3 3 3 3 3 3 3 3 3 3 3 3 3 3 3 3 3 3 3 3 3 3 3 3 3 3 3 3 3 3 3 3 3 3 3 3 3 3 3 3 3 3 3 3 3 3 3 3 3 3 3 3 3 3 3 3 3 3 3 3 3 3 3 3 3 3 3 3 3 3 3 3 3 3 3 3 3 3 3 3 3 3 3 3 3 3 3 3 3 3 3 3 3 3 3 3 3 3 3 3 3 3 3 3 3 3 3 3 3 3 3 3 3 3 3 3 3 3 3 3 3 3 3 3 3 3 3 3 3 3 3 3 3 3 3 3 3 3 3 3 3 3 3 3 3 3 3 3 3 3 3 3 3 3 3 3 3 3 3 3 3 3 3 3 3 3 3 3 3 3 3 3 3 3 3 3 3 3 3 3 3 3 3 3 3 3 3 3 3 3 3 3 3 3 3 3 3 3 3 3 3 3 3 3 3 3 3 3 3 3 3 3 3 3 3 3 3 3 3 3 3 3 3 3 3 3 3 3 3 3 3 3 3 3 3 3 3 3 3 3 3 3 3 3 3 3 3 3 3 3 3 3 3 3 3 3 3 3 3 3 3 3 3 3 3 3 3 3 3 3 3 3 3 3 3 3 3 3 3 3</vcount>
          <p>0 0 0 1 0 1 2 0 2 1 1 3 0 1 4 3 1 5 3 2 6 0 2 7 4 2 8 3 3 9 4 3 10 5 3 11 3 4 12 5 4 13 1 4 14 5 5 15 4 5 16 6 5 17 5 6 18 6 6 19 1 6 20 6 7 21 4 7 22 7 7 23 1 8 24 6 8 25 8 8 26 8 9 27 6 9 28 9 9 29 1 10 30 8 10 31 10 10 32 1 11 33 10 11 34 2 11 35 10 12 36 8 12 37 11 12 38 10 13 39 11 13 40 12 13 41 10 14 42 12 14 43 13 14 44 2 15 45 10 15 46 14 15 47 14 16 48 10 16 49 13 16 50 2 17 51 14 17 52 15 17 53 15 18 54 14 18 55 13 18 56 15 19 57 13 19 58 16 19 59 17 20 60 16 20 61 13 20 62 16 21 63 17 21 64 18 21 65 18 22 66 17 22 67 19 22 68 17 23 69 13 23 70 12 23 71 17 24 72 12 24 73 20 24 74 20 25 75 12 25 76 21 25 77 22 26 78 2 26 79 15 26 80 22 27 81 15 27 82 23 27 83 2 28 84 22 28 85 24 28 86 2 29 87 24 29 88 0 29 89 22 30 90 23 30 91 25 30 92 22 31 93 25 31 94 24 31 95 25 32 96 23 32 97 26 32 98 25 33 99 26 33 100 27 33 101 24 34 102 25 34 103 28 34 104 0 35 105 24 35 106 4 35 107 24 36 108 28 36 109 29 36 110 24 37 111 29 37 112 4 37 113 4 38 114 29 38 115 7 38 116 15 39 117 16 39 118 23 39 119 23 40 120 16 40 121 30 40 122 30 41 123 16 41 124 18 41 125 23 42 126 30 42 127 31 42 128 23 43 129 31 43 130 26 43 131 26 44 132 31 44 133 32 44 134 31 45 135 30 45 136 33 45 137 33 46 138 30 46 139 18 46 140 31 47 141 33 47 142 34 47 143 33 48 144 18 48 145 19 48 146 34 49 147 33 49 148 35 49 149 35 50 150 33 50 151 19 50 152 35 51 153 19 51 154 17 51 155 11 52 156 21 52 157 12 52 158 21 53 159 11 53 160 36 53 161 21 54 162 36 54 163 37 54 164 36 55 165 11 55 166 38 55 167 38 56 168 11 56 169 8 56 170 38 57 171 8 57 172 9 57 173 36 58 174 38 58 175 39 58 176 36 59 177 39 59 178 37 59 179 38 60 180 9 60 181 40 60 182 38 61 183 40 61 184 39 61 185 40 62 186 9 62 187 41 62 188 41 63 189 9 63 190 42 63 191 42 64 192 9 64 193 6 64 194 42 65 195 6 65 196 7 65 197 42 66 198 7 66 199 29 66 200 39 67 201 40 67 202 43 67 203 43 68 204 40 68 205 41 68 206 39 69 207 43 69 208 37 69 209 43 70 210 41 70 211 44 70 212 43 71 213 44 71 214 45 71 215 43 72 216 45 72 217 37 72 218 37 73 219 45 73 220 46 73 221 37 74 222 46 74 223 47 74 224 47 75 225 46 75 226 48 75 227 17 76 228 20 76 229 47 76 230 17 77 231 47 77 232 35 77 233 47 78 234 20 78 235 37 78 236 37 79 237 20 79 238 21 79 239 44 80 240 41 80 241 49 80 242 49 81 243 41 81 244 50 81 245 49 82 246 50 82 247 45 82 248 45 83 249 50 83 250 46 83 251 51 84 252 49 84 253 52 84 254 49 85 255 51 85 256 44 85 257 44 86 258 51 86 259 53 86 260 53 87 261 51 87 262 54 87 263 52 88 264 49 88 265 55 88 266 52 89 267 55 89 268 56 89 269 55 90 270 49 90 271 45 90 272 56 91 273 55 91 274 53 91 275 53 92 276 55 92 277 45 92 278 53 93 279 45 93 280 44 93 281 48 94 282 35 94 283 47 94 284 57 95 285 35 95 286 48 95 287 42 96 288 58 96 289 41 96 290 58 97 291 42 97 292 59 97 293 41 98 294 58 98 295 60 98 296 60 99 297 58 99 298 61 99 299 61 100 300 58 100 301 62 100 302 62 101 303 58 101 304 63 101 305 41 102 306 60 102 307 50 102 308 50 103 309 60 103 310 64 103 311 50 104 312 64 104 313 65 104 314 65 105 315 64 105 316 66 105 317 50 106 318 65 106 319 46 106 320 46 107 321 65 107 322 67 107 323 46 108 324 67 108 325 48 108 326 48 109 327 67 109 328 57 109 329 67 110 330 65 110 331 68 110 332 68 111 333 65 111 334 69 111 335 60 112 336 70 112 337 64 112 338 70 113 339 60 113 340 61 113 341 70 114 342 61 114 343 66 114 344 70 115 345 66 115 346 71 115 347 70 116 348 71 116 349 72 116 350 73 117 351 64 117 352 70 117 353 73 118 354 70 118 355 72 118 356 73 119 357 72 119 358 71 119 359 73 120 360 71 120 361 64 120 362 64 121 363 71 121 364 66 121 365 25 122 366 27 122 367 28 122 368 28 123 369 27 123 370 74 123 371 74 124 372 27 124 373 75 124 374 76 125 375 75 125 376 77 125 377 75 126 378 27 126 379 78 126 380 75 127 381 78 127 382 77 127 383 78 128 384 27 128 385 79 128 386 79 129 387 27 129 388 26 129 389 77 130 390 78 130 391 80 130 392 80 131 393 78 131 394 79 131 395 79 132 396 26 132 397 32 132 398 79 133 399 32 133 400 80 133 401 77 134 402 80 134 403 81 134 404 81 135 405 80 135 406 82 135 407 80 136 408 32 136 409 83 136 410 80 137 411 83 137 412 82 137 413 83 138 414 32 138 415 34 138 416 34 139 417 32 139 418 31 139 419 82 140 420 83 140 421 84 140 422 84 141 423 83 141 424 34 141 425 82 142 426 84 142 427 67 142 428 82 143 429 67 143 430 85 143 431 67 144 432 84 144 433 57 144 434 57 145 435 84 145 436 34 145 437 57 146 438 34 146 439 35 146 440 28 147 441 86 147 442 29 147 443 29 148 444 86 148 445 42 148 446 42 149 447 86 149 448 59 149 449 86 150 450 28 150 451 74 150 452 59 151 453 86 151 454 87 151 455 87 152 456 86 152 457 74 152 458 87 153 459 74 153 460 75 153 461 87 154 462 75 154 463 88 154 464 89 155 465 59 155 466 90 155 467 89 156 468 90 156 469 91 156 470 89 157 471 91 157 472 92 157 473 91 158 474 90 158 475 88 158 476 92 159 477 91 159 478 93 159 479 92 160 480 93 160 481 94 160 482 93 161 483 91 161 484 95 161 485 95 162 486 91 162 487 88 162 488 95 163 489 88 163 490 96 163 491 97 164 492 85 164 493 67 164 494 85 165 495 97 165 496 98 165 497 98 166 498 97 166 499 99 166 500 99 167 501 97 167 502 100 167 503 99 168 504 100 168 505 101 168 506 99 169 507 101 169 508 102 169 509 102 170 510 101 170 511 103 170 512 102 171 513 103 171 514 93 171 515 93 172 516 103 172 517 94 172 518 99 173 519 102 173 520 104 173 521 99 174 522 104 174 523 98 174 524 98 175 525 104 175 526 105 175 527 105 176 528 104 176 529 96 176 530 96 177 531 104 177 532 106 177 533 96 178 534 106 178 535 95 178 536 76 179 537 77 179 538 107 179 539 88 180 540 75 180 541 76 180 542 88 181 543 76 181 544 96 181 545 96 182 546 76 182 547 107 182 548 96 183 549 107 183 550 105 183 551 105 184 552 107 184 553 108 184 554 108 185 555 107 185 556 109 185 557 108 186 558 109 186 559 110 186 560 107 187 561 111 187 562 110 187 563 107 188 564 110 188 565 109 188 566 111 189 567 107 189 568 77 189 569 110 190 570 111 190 571 108 190 572 108 191 573 111 191 574 105 191 575 111 192 576 77 192 577 81 192 578 111 193 579 81 193 580 105 193 581 105 194 582 81 194 583 98 194 584 98 195 585 81 195 586 85 195 587 85 196 588 81 196 589 82 196 590 90 197 591 59 197 592 87 197 593 90 198 594 87 198 595 88 198 596 58 199 597 59 199 598 89 199 599 58 200 600 89 200 601 63 200 602 63 201 603 89 201 604 94 201 605 94 202 606 89 202 607 92 202 608 63 203 609 94 203 610 112 203 611 112 204 612 94 204 613 103 204 614 113 205 615 63 205 616 114 205 617 63 206 618 113 206 619 115 206 620 115 207 621 113 207 622 116 207 623 116 208 624 113 208 625 117 208 626 117 209 627 113 209 628 118 209 629 116 210 630 117 210 631 119 210 632 117 211 633 118 211 634 120 211 635 119 212 636 117 212 637 121 212 638 117 213 639 120 213 640 122 213 641 122 214 642 120 214 643 121 214 644 122 215 645 121 215 646 117 215 647 112 216 648 114 216 649 63 216 650 114 217 651 112 217 652 68 217 653 120 218 654 118 218 655 123 218 656 120 219 657 123 219 658 124 219 659 67 220 660 68 220 661 97 220 662 97 221 663 68 221 664 112 221 665 97 222 666 112 222 667 100 222 668 100 223 669 112 223 670 101 223 671 101 224 672 112 224 673 103 224 674 69 225 675 114 225 676 68 225 677 114 226 678 69 226 679 125 226 680 114 227 681 125 227 682 126 227 683 114 228 684 126 228 685 113 228 686 126 229 687 125 229 688 127 229 689 113 230 690 126 230 691 118 230 692 126 231 693 127 231 694 128 231 695 126 232 696 128 232 697 118 232 698 128 233 699 127 233 700 129 233 701 118 234 702 128 234 703 123 234 704 123 235 705 128 235 706 130 235 707 123 236 708 130 236 709 124 236 710 124 237 711 130 237 712 128 237 713 124 238 714 128 238 715 131 238 716 132 239 717 121 239 718 120 239 719 133 240 720 132 240 721 120 240 722 133 241 723 120 241 724 124 241 725 133 242 726 124 242 727 131 242 728 133 243 729 131 243 730 134 243 731 132 244 732 133 244 733 102 244 734 132 245 735 102 245 736 93 245 737 102 246 738 133 246 739 135 246 740 135 247 741 133 247 742 134 247 743 135 248 744 134 248 745 136 248 746 135 249 747 136 249 748 137 249 749 102 250 750 135 250 751 104 250 752 104 251 753 135 251 754 138 251 755 104 252 756 138 252 757 106 252 758 106 253 759 138 253 760 139 253 761 140 254 762 52 254 763 56 254 764 52 255 765 140 255 766 51 255 767 140 256 768 56 256 769 141 256 770 51 257 771 140 257 772 54 257 773 140 258 774 141 258 775 142 258 776 54 259 777 140 259 778 143 259 779 140 260 780 142 260 781 144 260 782 140 261 783 144 261 784 143 261 785 143 262 786 144 262 787 145 262 788 144 263 789 142 263 790 146 263 791 145 264 792 144 264 793 147 264 794 147 265 795 144 265 796 146 265 797 147 266 798 146 266 799 148 266 800 56 267 801 53 267 802 54 267 803 56 268 804 54 268 805 141 268 806 141 269 807 54 269 808 143 269 809 141 270 810 143 270 811 142 270 812 142 271 813 143 271 814 149 271 815 149 272 816 143 272 817 145 272 818 142 273 819 149 273 820 146 273 821 149 274 822 145 274 823 150 274 824 150 275 825 145 275 826 151 275 827 149 276 828 150 276 829 66 276 830 149 277 831 66 277 832 146 277 833 66 278 834 150 278 835 65 278 836 146 279 837 66 279 838 61 279 839 146 280 840 61 280 841 62 280 842 146 281 843 62 281 844 148 281 845 148 282 846 62 282 847 152 282 848 152 283 849 62 283 850 63 283 851 152 284 852 63 284 853 115 284 854 152 285 855 115 285 856 153 285 857 153 286 858 115 286 859 154 286 860 153 287 861 154 287 862 116 287 863 116 288 864 154 288 865 115 288 866 155 289 867 69 289 868 150 289 869 150 290 870 69 290 871 65 290 872 69 291 873 155 291 874 125 291 875 125 292 876 155 292 877 156 292 878 125 293 879 156 293 880 127 293 881 127 294 882 156 294 883 157 294 884 157 295 885 156 295 886 155 295 887 157 296 888 155 296 889 158 296 890 158 297 891 155 297 892 159 297 893 159 298 894 155 298 895 160 298 896 151 299 897 155 299 898 150 299 899 155 300 900 151 300 901 161 300 902 155 301 903 161 301 904 162 301 905 162 302 906 161 302 907 163 302 908 155 303 909 162 303 910 152 303 911 155 304 912 152 304 913 160 304 914 160 305 915 152 305 916 164 305 917 164 306 918 152 306 919 153 306 920 160 307 921 164 307 922 165 307 923 165 308 924 164 308 925 166 308 926 165 309 927 166 309 928 167 309 929 168 310 930 161 310 931 151 310 932 161 311 933 168 311 934 169 311 935 168 312 936 151 312 937 170 312 938 170 313 939 151 313 940 145 313 941 170 314 942 145 314 943 171 314 944 171 315 945 145 315 946 147 315 947 153 316 948 116 316 949 119 316 950 153 317 951 119 317 952 172 317 953 172 318 954 119 318 955 173 318 956 172 319 957 173 319 958 167 319 959 173 320 960 119 320 961 174 320 962 173 321 963 174 321 964 167 321 965 167 322 966 174 322 967 175 322 968 167 323 969 175 323 970 165 323 971 165 324 972 175 324 973 176 324 974 175 325 975 174 325 976 177 325 977 177 326 978 174 326 979 178 326 980 177 327 981 178 327 982 179 327 983 177 328 984 179 328 985 180 328 986 180 329 987 179 329 988 181 329 989 127 330 990 157 330 991 129 330 992 162 331 993 148 331 994 152 331 995 148 332 996 162 332 997 182 332 998 148 333 999 182 333 1000 147 333 1001 182 334 1002 162 334 1003 183 334 1004 183 335 1005 162 335 1006 184 335 1007 184 336 1008 162 336 1009 185 336 1010 183 337 1011 184 337 1012 186 337 1013 186 338 1014 184 338 1015 187 338 1016 167 339 1017 166 339 1018 164 339 1019 167 340 1020 164 340 1021 153 340 1022 167 341 1023 153 341 1024 172 341 1025 185 342 1026 162 342 1027 163 342 1028 165 343 1029 163 343 1030 160 343 1031 163 344 1032 165 344 1033 185 344 1034 158 345 1035 160 345 1036 163 345 1037 129 346 1038 157 346 1039 158 346 1040 129 347 1041 158 347 1042 188 347 1043 121 348 1044 174 348 1045 119 348 1046 174 349 1047 121 349 1048 178 349 1049 178 350 1050 121 350 1051 132 350 1052 178 351 1053 132 351 1054 181 351 1055 178 352 1056 181 352 1057 179 352 1058 181 353 1059 132 353 1060 93 353 1061 181 354 1062 93 354 1063 180 354 1064 189 355 1065 131 355 1066 128 355 1067 131 356 1068 189 356 1069 134 356 1070 134 357 1071 189 357 1072 136 357 1073 136 358 1074 189 358 1075 190 358 1076 189 359 1077 128 359 1078 129 359 1079 189 360 1080 129 360 1081 191 360 1082 191 361 1083 129 361 1084 188 361 1085 191 362 1086 190 362 1087 189 362 1088 190 363 1089 191 363 1090 188 363 1091 190 364 1092 188 364 1093 192 364 1094 192 365 1095 188 365 1096 193 365 1097 165 366 1098 176 366 1099 185 366 1100 185 367 1101 176 367 1102 175 367 1103 185 368 1104 175 368 1105 177 368 1106 185 369 1107 177 369 1108 180 369 1109 185 370 1110 180 370 1111 194 370 1112 194 371 1113 180 371 1114 195 371 1115 185 372 1116 194 372 1117 184 372 1118 184 373 1119 194 373 1120 187 373 1121 158 374 1122 159 374 1123 160 374 1124 163 375 1125 193 375 1126 188 375 1127 163 376 1128 188 376 1129 158 376 1130 196 377 1131 193 377 1132 163 377 1133 193 378 1134 196 378 1135 192 378 1136 196 379 1137 163 379 1138 197 379 1139 192 380 1140 196 380 1141 198 380 1142 196 381 1143 197 381 1144 199 381 1145 200 382 1146 199 382 1147 198 382 1148 199 383 1149 200 383 1150 196 383 1151 196 384 1152 200 384 1153 198 384 1154 201 385 1155 180 385 1156 93 385 1157 95 386 1158 201 386 1159 93 386 1160 201 387 1161 95 387 1162 106 387 1163 139 388 1164 201 388 1165 106 388 1166 135 389 1167 137 389 1168 198 389 1169 135 390 1170 198 390 1171 138 390 1172 138 391 1173 198 391 1174 202 391 1175 138 392 1176 202 392 1177 139 392 1178 198 393 1179 137 393 1180 192 393 1181 192 394 1182 137 394 1183 136 394 1184 192 395 1185 136 395 1186 190 395 1187 171 396 1188 147 396 1189 182 396 1190 171 397 1191 182 397 1192 183 397 1193 170 398 1194 171 398 1195 203 398 1196 203 399 1197 171 399 1198 204 399 1199 204 400 1200 171 400 1201 183 400 1202 204 401 1203 183 401 1204 205 401 1205 205 402 1206 183 402 1207 206 402 1208 205 403 1209 206 403 1210 207 403 1211 206 404 1212 183 404 1213 208 404 1214 206 405 1215 208 405 1216 207 405 1217 208 406 1218 183 406 1219 186 406 1220 207 407 1221 208 407 1222 209 407 1223 207 408 1224 209 408 1225 210 408 1226 210 409 1227 209 409 1228 208 409 1229 210 410 1230 208 410 1231 186 410 1232 210 411 1233 186 411 1234 211 411 1235 168 412 1236 170 412 1237 203 412 1238 168 413 1239 203 413 1240 212 413 1241 194 414 1242 195 414 1243 187 414 1244 187 415 1245 195 415 1246 213 415 1247 213 416 1248 195 416 1249 214 416 1250 187 417 1251 213 417 1252 211 417 1253 187 418 1254 211 418 1255 186 418 1256 201 419 1257 195 419 1258 180 419 1259 195 420 1260 201 420 1261 215 420 1262 215 421 1263 201 421 1264 139 421 1265 215 422 1266 139 422 1267 202 422 1268 215 423 1269 202 423 1270 216 423 1271 215 424 1272 216 424 1273 217 424 1274 195 425 1275 215 425 1276 218 425 1277 195 426 1278 218 426 1279 214 426 1280 218 427 1281 215 427 1282 217 427 1283 218 428 1284 217 428 1285 219 428 1286 219 429 1287 217 429 1288 220 429 1289 220 430 1290 217 430 1291 221 430 1292 221 431 1293 217 431 1294 222 431 1295 222 432 1296 217 432 1297 216 432 1298 161 433 1299 223 433 1300 163 433 1301 163 434 1302 223 434 1303 197 434 1304 223 435 1305 161 435 1306 169 435 1307 223 436 1308 169 436 1309 197 436 1310 198 437 1311 199 437 1312 197 437 1313 198 438 1314 197 438 1315 224 438 1316 168 439 1317 225 439 1318 169 439 1319 225 440 1320 168 440 1321 226 440 1322 225 441 1323 226 441 1324 227 441 1325 225 442 1326 227 442 1327 224 442 1328 225 443 1329 224 443 1330 169 443 1331 169 444 1332 224 444 1333 197 444 1334 224 445 1335 202 445 1336 198 445 1337 202 446 1338 224 446 1339 228 446 1340 202 447 1341 228 447 1342 216 447 1343 228 448 1344 224 448 1345 229 448 1346 229 449 1347 224 449 1348 230 449 1349 216 450 1350 228 450 1351 231 450 1352 216 451 1353 231 451 1354 222 451 1355 210 452 1356 205 452 1357 207 452 1358 205 453 1359 210 453 1360 232 453 1361 205 454 1362 232 454 1363 204 454 1364 232 455 1365 210 455 1366 233 455 1367 233 456 1368 210 456 1369 211 456 1370 232 457 1371 233 457 1372 234 457 1373 232 458 1374 234 458 1375 230 458 1376 234 459 1377 233 459 1378 235 459 1379 235 460 1380 233 460 1381 214 460 1382 234 461 1383 235 461 1384 236 461 1385 234 462 1386 236 462 1387 237 462 1388 234 463 1389 237 463 1390 230 463 1391 230 464 1392 237 464 1393 229 464 1394 226 465 1395 230 465 1396 227 465 1397 230 466 1398 226 466 1399 232 466 1400 212 467 1401 203 467 1402 204 467 1403 212 468 1404 204 468 1405 232 468 1406 212 469 1407 232 469 1408 226 469 1409 212 470 1410 226 470 1411 168 470 1412 238 471 1413 237 471 1414 236 471 1415 237 472 1416 238 472 1417 239 472 1418 239 473 1419 238 473 1420 240 473 1421 239 474 1422 240 474 1423 235 474 1424 235 475 1425 240 475 1426 236 475 1427 239 476 1428 235 476 1429 214 476 1430 237 477 1431 239 477 1432 228 477 1433 228 478 1434 239 478 1435 214 478 1436 237 479 1437 228 479 1438 229 479 1439 228 480 1440 214 480 1441 218 480 1442 228 481 1443 218 481 1444 231 481 1445 231 482 1446 218 482 1447 219 482 1448 231 483 1449 219 483 1450 222 483 1451 222 484 1452 219 484 1453 241 484 1454 222 485 1455 241 485 1456 221 485 1457 221 486 1458 241 486 1459 220 486 1460 241 487 1461 219 487 1462 242 487 1463 241 488 1464 242 488 1465 220 488 1466 220 489 1467 242 489 1468 219 489 1469 238 490 1470 236 490 1471 240 490 1472 224 491 1473 227 491 1474 230 491 1475 233 492 1476 211 492 1477 213 492 1478 233 493 1479 213 493 1480 214 493 1481</p>
        </polylist>
      </mesh>
    </geometry>
  </library_geometries>
  <library_visual_scenes>
    <visual_scene id="Scene" name="Scene">
      <node id="FakePocketPistols" name="FakePocketPistols" type="NODE">
        <scale sid="scale">1 1 1</scale>
        <translate sid="location">0 0 0</translate>
        <rotate sid="rotationX">1 0 0 12.5</rotate>
        <rotate sid="rotationY">0 1 0 89.9999982924527</rotate>
        <rotate sid="rotationZ">0 0 1 0</rotate>
        <instance_geometry url="#FakePocketPistols-mesh" name="FakePocketPistols">
          <bind_material>
            <technique_common>
            </technique_common>
          </bind_material>
        </instance_geometry>
      </node>
    </visual_scene>
  </library_visual_scenes>
  <scene>
    <instance_visual_scene url="#Scene"/>
  </scene>
</COLLADA>
