<?xml version="1.0" encoding="utf-8"?>
<COLLADA xmlns="http://www.collada.org/2005/11/COLLADASchema" version="1.4.1" xmlns:xsi="http://www.w3.org/2001/XMLSchema-instance">
  <asset>
    <contributor>
      <author>Blockbench user</author>
      <authoring_tool>Blockbench</authoring_tool>
    </contributor>
    <created>2026-04-01T13:54:14.661Z</created>
    <modified>2026-04-01T13:54:14.675Z</modified>
    <unit name="meter" meter="1.0"/>
    <up_axis>Y_UP</up_axis>
  </asset>
  <library_effects>
  </library_effects>
  <library_images>
  </library_images>
  <library_materials>
  </library_materials>
  <library_geometries>
    <geometry id="FeatherShield-mesh" name="FeatherShield">
      <mesh>
        <source id="FeatherShield-mesh-positions">
          <float_array id="FeatherShield-mesh-positions-array" count="747">0.021594 -0.979273 -0.01498 0.066087 -1.011232 -0.005767 0.027326 -0.969807 0.034003 0.05765 -0.90973 0.059839 0.040613 -0.88812 0.085315 0.074354 -0.876311 0.004577 0.073874 -0.827314 0.038956 0.02043 -0.893133 0.072134 0.006794 -0.699107 0.14821 0.003786 -0.68332 0.127887 0.016586 -0.848221 0.058827 0.019679 -0.856526 -0.09363 0.022556 -0.832061 0.057458 0.029169 -0.781404 0.001977 0.022414 -0.836537 -0.058819 0.0094 -0.735044 -0.103872 0.005113 -0.711621 -0.13823 0.03818 -0.716431 -0.145395 0.056215 -0.889618 -0.068504 0.053316 -0.711533 -0.108172 0.074627 -0.835278 -0.032193 0.063369 -0.778746 -0.005183 0.055024 -0.837119 -0.06794 0.090026 -0.760329 0.000587 0.063578 -0.740948 0.01915 0.053584 -0.723647 0.085459 0.055121 -0.843711 0.074893 0.04759 -0.703303 0.106859 0.049546 -0.674634 0.13111 0.042855 -0.715798 0.138831 0.025677 -0.72428 0.15103 0.028475 -0.701841 -0.155788 0.02949 -0.45504 -0.193676 0.04416 -0.431031 -0.169072 0.038397 -0.379796 -0.165528 0.050944 -0.388271 -0.115175 0.062334 -0.663632 -0.011936 0.061716 -0.275696 -0.01472 0.081873 -0.663783 -0.001515 0.078956 -0.588549 -0.006515 0.030269 -0.470676 0.190247 0.013419 -0.472745 0.201245 -0.002517 -0.438592 0.202559 0.043338 -0.406235 0.175673 0.050996 -0.419944 0.115883 0.061858 -0.612876 0.014543 0.075335 -0.620993 0.010251 0.077447 -0.106225 0.016925 0.088422 -0.08779 0.010919 -0.007771 -0.433055 0.181909 0.002332 -0.418272 0.156569 0.017912 -0.664955 0.102343 0.011138 -0.246108 0.17417 0.015791 -0.183 0.140509 0.014266 -0.48243 -0.141668 0.002719 -0.415536 -0.156139 -0.007893 -0.444497 -0.191769 0.041911 -0.266449 -0.185091 0.017237 -0.287097 -0.217632 0.019723 -0.223621 -0.220326 -0.004673 -0.296183 -0.214662 0.016396 -0.423544 -0.209078 -0.009609 -0.257009 -0.196949 0.01034 -0.147192 -0.176879 -0.000823 -0.134658 -0.179741 0.01531 -0.298091 -0.137811 0.022246 -0.292083 -0.072113 0.028954 -0.426959 0.005433 0.01492 -0.151085 -0.142979 -0.000505 -0.245876 -0.113762 0.00448 -0.223226 -0.088504 0.022041 -0.146488 -0.074177 0.084779 -0.078197 -0.014204 0.061172 -0.136694 0.018915 0.039106 -0.373952 0.16392 0.041873 -0.249385 0.186593 0.036815 -0.185528 0.181735 0.050171 -0.162872 0.123784 0.038835 -0.437784 0.206367 0.01721 -0.408532 0.209413 0.0236 -0.282374 0.217171 0.017645 -0.228643 0.223346 -0.004918 -0.266405 0.217984 -0.009588 -0.26262 0.198767 -0.000492 -0.125946 0.182561 0.038928 0.012146 -0.206821 0.005694 -0.173248 -0.110852 0.028959 0.09781 0.000089 0.051092 0.043215 -0.118322 0.036805 0.031908 -0.191536 -0.047493 -0.209454 -0.109272 -0.082209 -0.025062 -0.081085 -0.092341 -0.08921 -0.102687 0.059062 -0.060718 -0.031761 0.084862 -0.009737 -0.059472 0.092527 -0.030224 -0.010504 0.003319 0.008979 -0.234245 -0.011935 0.030962 -0.215799 0.058946 -0.051941 0.036519 0.055128 0.020051 0.101245 0.09497 0.029129 0.068755 0.144729 0.03587 0.04845 0.144016 0.001107 -0.010314 -0.075979 0.014982 -0.094616 -0.108098 0.071167 -0.104149 0.011911 0.031462 -0.242486 0.039546 0.054563 -0.208887 0.014855 0.067408 -0.231755 -0.004756 0.069397 -0.229153 -0.0094 0.059151 -0.208229 0.00019 0.127791 -0.186578 0.010356 0.169622 -0.184447 -0.011072 0.301998 -0.21149 -0.005277 0.302658 -0.235331 0.015722 0.237541 -0.139889 0.007459 0.213179 -0.184442 0.000579 0.395921 -0.181671 0.070497 0.062836 -0.108011 0.017435 -0.114861 0.123262 0.01789 0.247334 0.122367 0.104726 0.059734 -0.065653 0.140129 0.090393 0.00075 0.092136 0.109726 0.004451 0.081784 0.149164 -0.0175 0.052217 0.08175 -0.108891 0.061106 0.14988 -0.020586 0.075062 0.424628 -0.001379 0.090586 0.100569 0.044602 0.080374 0.19592 0.015205 0.069902 0.069077 0.110517 0.060754 0.14509 0.022375 0.054755 0.09821 0.082221 0.049598 0.533054 0.133437 0.049901 0.085625 0.132449 0.038665 0.097426 0.185185 0.060905 0.065568 0.15415 0.023086 0.069781 0.227842 0.040878 0.033187 0.200782 0.036599 0.040729 0.19184 0.028758 0.001692 0.223035 0.010294 -0.106114 0.17825 -0.000939 0.000524 0.234887 -0.001744 0.067759 0.189017 -0.108031 -0.126094 0.116713 -0.088513 -0.125979 0.115173 -0.107696 -0.134763 0.161909 -0.115521 -0.105342 0.142397 -0.132468 0.009319 0.121774 -0.07693 -0.135817 0.175213 -0.083759 -0.027996 0.173501 -0.040317 -0.084369 0.169313 -0.099305 0.088099 0.173084 -0.124963 -0.031935 0.166142 -0.148283 0.058134 0.142901 -0.090227 -0.009171 0.109954 -0.04735 -0.07721 0.120764 -0.051539 -0.143581 0.120225 -0.07572 0.004886 0.144744 -0.013589 -0.140711 0.168085 -0.138535 0.133003 0.163916 -0.132192 0.12282 0.122271 -0.098263 0.085648 0.111606 -0.076234 0.132338 0.1469 -0.009693 0.010034 0.220285 -0.008899 0.054829 0.228797 0.014957 0.304292 0.236341 0.024574 0.032575 0.239972 0.010187 0.254968 0.187502 -0.09016 0.119717 -0.115504 -0.054227 0.163069 -0.094401 -0.06139 0.213074 -0.091052 -0.041345 0.259448 -0.107007 -0.063657 0.159192 -0.083693 0.016 0.300351 -0.234396 -0.004451 0.266514 -0.091806 0.038863 0.256246 -0.208683 0.03568 0.124233 -0.196631 0.049627 0.656286 -0.126902 0.039788 0.327583 -0.206722 0.022372 0.354042 -0.067852 0.06269 0.562682 0.001843 0.00504 0.335477 -0.235507 0.01837 0.498391 -0.225549 -0.005062 0.452673 -0.227065 -0.007707 0.586358 -0.20343 0.039516 0.631006 -0.167984 0.01079 0.342959 -0.181714 0.015719 0.403452 -0.137546 -0.002784 0.294476 -0.122765 0.037036 0.398485 0.191205 0.036417 0.291912 0.199486 0.039943 0.327934 0.207119 -0.109189 0.270779 0.121388 -0.05948 0.232696 0.122209 -0.053422 0.242534 0.172658 0.01201 0.243719 0.173277 -0.093325 0.225511 0.174981 -0.111535 0.266359 0.174549 -0.075844 0.166411 0.152607 -0.084168 0.148298 0.160053 -0.082703 0.142759 0.14246 -0.010877 0.310045 0.214768 -0.006564 0.304299 0.232725 0.036965 0.235972 0.213172 0.017769 0.338072 0.121087 0.011366 0.334376 0.175059 0.012345 0.621867 0.16302 0.029581 0.866956 0.001969 0.006624 0.320883 0.240401 0.033863 0.580584 0.207271 0.014488 0.447519 0.233042 0.017532 0.593661 0.221375 -0.004426 0.436385 0.230442 -0.007146 0.563125 0.199985 0.0009 0.514447 0.1796 0.004962 0.650115 -0.15714 0.012077 0.602378 -0.15986 -0.00263 0.720582 -0.174846 0.025193 0.901505 -0.039558 0.009169 0.625924 -0.216427 0.029865 0.727515 -0.182014 0.020177 0.852407 -0.129749 0.04204 0.689158 -0.168759 0.053411 0.846973 -0.093159 0.042301 0.605484 -0.182153 0.042705 0.567153 -0.185495 0.01502 0.584107 -0.221467 0.046372 0.590669 -0.20281 -0.002 0.60218 0.214355 0.042214 0.605559 0.187312 0.049408 0.753952 0.121204 0.042055 0.732229 0.167252 0.018237 0.70886 0.195631 0.062393 0.878223 0.000011 0.048272 0.84791 0.116334 0.026839 0.832005 0.14429 -0.001847 0.725979 0.171866 0.007661 0.73947 0.128994 0.051006 0.901157 -0.085974 0.07549 0.928846 0.002352 0.064085 1.007055 0.000946 0.027136 0.963888 -0.051351 0.015706 0.927064 -0.041371 0.02119 0.993024 0.005929 0.016921 0.879532 0.00046 0.05694 0.921774 0.067727 0.02053 0.940022 0.071065 0.007934 0.856568 0.111295 0.025728 0.897021 0.036704</float_array>
          <technique_common>
            <accessor source="#FeatherShield-mesh-positions-array" count="249" stride="3">
              <param name="X" type="float"/>
              <param name="Y" type="float"/>
              <param name="Z" type="float"/>
            </accessor>
          </technique_common>
        </source>
        <source id="FeatherShield-mesh-normals">
          <float_array id="FeatherShield-mesh-normals-array" count="1491">-0.598731 -0.770439 0.218961 0.298976 -0.50035 0.812566 0.424946 -0.530059 0.733797 0.966395 -0.077989 0.244944 0.968099 -0.137498 0.209472 0.823751 -0.018578 0.566647 -0.414174 -0.434893 0.79958 -0.976377 -0.160024 0.14519 -0.448396 -0.353421 0.820996 -0.992679 -0.097639 0.071093 -0.996571 -0.081999 0.011075 -0.996107 -0.068976 0.054895 -0.999442 -0.027617 -0.018768 -0.730318 0.21487 -0.648434 -0.910019 0.354392 0.215108 -0.986947 0.157579 -0.033237 -0.981943 0.186768 -0.030091 -0.99003 -0.073643 0.12007 -0.994424 -0.078169 0.070789 -0.244009 -0.307598 -0.919697 0.208467 -0.434966 -0.875983 -0.210384 -0.529752 -0.821646 0.279984 -0.365046 -0.887891 0.927314 -0.06693 -0.368251 0.971456 -0.041614 -0.233541 0.960531 -0.189156 -0.203964 0.999944 0.002573 0.010285 0.979547 0.200849 -0.012124 0.875998 0.025051 -0.481664 0.999373 0.02238 0.027426 0.802824 0.379553 -0.459797 0.189142 -0.532254 0.825186 0.976541 -0.120336 0.17857 0.99444 0.003462 0.105249 0.53334 0.629186 0.565396 0.959734 -0.012418 0.280637 0.902916 -0.206502 0.37696 0.97657 0.096203 -0.192498 0.855076 -0.163895 0.491918 0.932583 -0.085825 0.350604 0.637424 -0.236075 0.733457 -0.575721 -0.34905 0.739398 -0.249184 -0.666356 -0.702764 0.886575 -0.073749 -0.456669 0.869729 0.298626 -0.392931 0.877912 -0.074052 -0.473062 0.959392 0.089399 0.267534 0.975004 0.079705 0.2074 0.969519 -0.01691 -0.244431 0.99291 -0.003479 -0.118821 0.994202 0.00081 -0.107523 0.991136 0.001124 -0.132848 0.469765 -0.047487 -0.881513 0.213661 -0.003225 -0.976903 0.469955 -0.040387 -0.881766 0.335336 -0.006229 -0.942078 0.556246 0.064983 0.828473 0.763749 -0.112132 0.635699 -0.397983 -0.198214 0.895724 0.55321 -0.13708 0.821686 -0.359697 -0.202855 0.910751 0.864787 -0.062717 0.498208 0.990088 0.044992 -0.133049 0.957453 -0.020675 0.287848 0.99374 -0.002719 0.111686 0.989364 0.018477 0.144284 0.60626 0.068446 0.792316 0.324095 0.038352 0.945247 0.811665 -0.036308 0.582994 0.295946 -0.013597 0.955108 0.985872 -0.024406 0.165713 0.94693 0.057719 0.316215 -0.993074 -0.056932 0.102773 -0.970597 -0.092768 0.222117 -0.934881 0.033115 -0.353414 -0.887497 0.044762 -0.458635 -0.8977 0.090857 -0.431138 -0.993323 0.00337 -0.115318 -0.712864 0.107319 -0.693042 -0.993265 0.003794 -0.115804 -0.99218 0.006672 -0.124639 -0.994122 0.002451 0.108241 -0.890855 0.083959 0.446461 -0.32485 0.146064 0.934419 -0.092709 -0.150713 -0.984221 -0.537454 -0.190803 -0.821424 -0.994051 -0.027267 0.105444 0.858371 0.061306 0.509353 0.809789 -0.045866 -0.584925 -0.118955 -0.037453 -0.992193 0.817235 -0.041071 -0.574839 -0.108966 -0.061525 -0.99214 0.825599 0.069374 -0.559976 -0.50476 -0.120977 -0.854741 -0.182199 -0.492057 -0.851284 -0.96322 0.023645 0.267671 -0.971488 -0.015429 -0.236586 -0.9582 -0.000867 0.286099 -0.567048 0.07947 0.819842 -0.935947 0.01775 0.351694 -0.990615 0.002751 0.136657 -0.993921 0.003327 0.110043 -0.994489 0.0018 0.104821 -0.996487 -0.001421 0.083733 -0.855182 -0.020476 -0.517924 -0.930878 -0.341605 0.129509 -0.930453 -0.161812 0.328747 -0.996306 -0.000181 0.085873 0.988808 -0.013519 -0.148581 0.497096 -0.013287 0.867594 0.137753 -0.008895 0.990427 0.994398 0.000462 0.105701 0.165457 -0.016744 -0.986075 0.965925 -0.019829 0.258063 0.979648 0.058501 -0.19201 0.962417 0.027793 -0.270151 0.967907 -0.011965 0.251025 0.929732 0.04585 -0.365371 0.974766 -0.003733 0.223199 -0.995224 0.000348 -0.097613 0.519837 -0.481277 0.705792 0.97344 -0.215133 -0.07831 0.690351 0.451465 0.565328 0.870259 -0.02612 0.491902 0.790826 -0.077383 0.60713 0.842592 0.031586 0.537625 -0.005741 -0.061082 0.998116 -0.037915 -0.118239 0.992261 -0.20148 -0.090183 0.975332 -0.087181 -0.166744 0.982138 -0.972654 -0.033107 0.229887 -0.970718 -0.034828 0.237684 -0.938461 0.021586 -0.344711 -0.933604 0.025399 -0.357406 -0.08985 -0.080097 0.992729 0.213167 0.088573 -0.972993 -0.161611 0.08061 0.983557 0.812479 -0.056447 -0.580251 0.825916 -0.035048 -0.562702 -0.990962 0.002084 0.134124 -0.886894 0.457901 0.061204 -0.972098 0.091629 -0.215939 -0.989101 0.079461 0.123956 -0.939653 0.158428 0.303238 -0.657355 0.009761 0.753518 -0.995965 0.000923 0.089733 0.970244 -0.0021 -0.242119 0.981691 -0.008226 -0.190303 0.952556 0.022856 0.303503 -0.426319 -0.630006 0.649111 -0.410674 -0.212846 0.886591 -0.457807 -0.217949 0.861923 -0.426319 -0.630006 0.649111 0.995675 -0.00102 -0.092899 0.742748 -0.568311 -0.354044 0.99342 0.019438 0.11287 0.610404 -0.004353 -0.792079 -0.044645 -0.062814 -0.997026 -0.781797 -0.019519 -0.623228 -0.974774 -0.022408 -0.222067 -0.932284 0.016127 0.361367 0.993868 0.00351 -0.110513 0.994544 -0.000016 0.104321 0.431394 -0.172593 0.8855 0.994424 0.004232 0.105369 0.589136 -0.089094 0.803107 0.996792 -0.017384 0.078128 0.610003 -0.511653 0.605069 0.799745 -0.492103 0.343864 0.759892 0.178442 0.625078 0.331099 -0.760159 0.559045 0.463825 -0.764953 0.446894 0.477119 -0.78165 -0.401723 0.970532 -0.141726 -0.194886 0.552067 -0.024884 -0.833429 -0.408997 -0.201285 0.89006 -0.203833 -0.043751 0.978028 -0.524202 -0.198312 -0.828181 -0.801394 -0.073325 0.593625 0.534569 -0.060219 -0.842977 -0.994659 -0.003198 0.103167 0.565608 -0.465621 -0.68065 0.785474 -0.041501 -0.617501 0.712151 0.146633 -0.686542 -0.09664 0.291987 -0.951527 -0.745447 0.041007 -0.665302 -0.741648 -0.092317 -0.664406 -0.979548 0.129435 -0.15405 -0.951631 0.003042 0.307229 -0.929079 0.013215 0.369646 -0.220461 0.026254 0.975042 -0.29428 0.022838 0.955446 -0.913352 -0.000819 0.40717 -0.971596 -0.009863 -0.236439 -0.975371 -0.008016 -0.220425 -0.990981 0.000979 0.133999 -0.993323 0.002806 0.115335 -0.974208 -0.064834 0.216136 -0.162057 -0.01089 0.986721 -0.079981 -0.018125 0.996632 -0.925311 -0.005596 0.379167 0.989144 -0.007243 0.146772 0.960748 -0.232333 -0.151607 0.744554 -0.644044 -0.175632 -0.995497 -0.000956 -0.09479 -0.99535 -0.00037 -0.096329 -0.995814 0.001025 -0.091399 0.740013 -0.26655 -0.61752 0.148663 -0.529275 -0.835325 0.716469 -0.413197 -0.562086 0.645599 -0.24885 -0.721994 0.858165 0.099763 -0.503587 0.283625 0.8041 -0.522475 0.703697 0.468256 -0.534366 0.967933 0.251154 -0.005267 0.592298 0.54487 -0.593548 0.118643 0.780337 -0.614001 0.931678 0.04384 -0.360631 0.997989 0.048503 -0.040804 0.614655 0.54811 0.567251 0.379051 0.898926 0.219665 0.320232 0.320993 0.8913 0.989671 0.126676 0.067113 0.641072 -0.324711 0.695406 0.910092 0.181763 0.372418 -0.311028 0.249435 0.917084 0.4731 0.727956 0.496243 0.5382 0.636454 0.55251 0.99515 0.000456 0.09837 0.995498 -0.006681 0.094549 0.75636 0.613565 0.226844 0.845521 0.530394 0.061454 0.747491 0.631866 0.204947 0.934735 -0.313366 0.167546 0.887605 0.098905 0.44986 0.861517 -0.427575 0.273802 -0.129255 -0.787633 -0.602434 0.979635 -0.001807 0.200779 0.857386 0.028823 -0.513866 0.889516 -0.01979 0.456476 -0.408959 0.024117 -0.912234 -0.990096 -0.001878 -0.140381 0.824021 -0.038994 0.565215 0.371193 -0.016657 0.928406 -0.133563 -0.060651 0.989183 -0.971731 -0.000465 0.23609 -0.901238 0.008611 -0.43324 -0.009102 -0.98207 -0.188299 -0.956966 -0.286235 -0.04781 -0.974427 -0.170369 -0.146513 0.039292 -0.98484 -0.168956 -0.397171 -0.010588 0.917683 -0.078731 0.023045 -0.996629 0.126438 0.023749 0.99169 -0.17397 -0.019755 0.984553 -0.169035 -0.068851 0.983202 -0.976117 -0.169497 0.135891 -0.957538 -0.192558 0.214574 -0.943854 -0.188319 -0.271433 -0.288184 -0.046962 -0.956423 0.182271 -0.041219 -0.982384 0.135147 -0.000477 -0.990826 0.041711 0.005488 -0.999115 -0.503241 -0.861172 0.071633 -0.381442 -0.920879 -0.080523 0.933972 0.34731 -0.084099 0.617539 0.426803 0.66067 0.771717 0.408941 -0.487052 -0.42141 -0.9044 -0.066892 -0.0642 -0.991813 0.110391 0.114248 0.032565 0.992918 0.381608 -0.890095 -0.249211 0.77569 0.137209 0.616018 0.227744 -0.415892 0.880435 -0.22556 -0.128043 0.965778 -0.809258 -0.058709 0.584513 -0.234223 -0.006159 0.972163 -0.795416 0.004586 -0.606047 -0.294974 0.0049 -0.955493 -0.272018 -0.00629 -0.962272 0.796179 0.077924 -0.600022 0.921433 0.010287 -0.388402 0.756933 -0.008002 0.653443 0.91018 0.123302 0.395435 -0.975996 0.016764 -0.217143 -0.868115 -0.039383 0.494798 -0.985676 0.048169 -0.161626 0.045976 -0.034586 0.998344 -0.40844 -0.163414 0.898038 -0.641478 0.407501 0.649961 -0.113784 0.303828 0.945908 0.351543 -0.413098 0.8401 0.92044 -0.084579 0.381623 0.910389 0.160703 0.38127 -0.507966 0.02541 -0.861002 -0.993067 0.000957 -0.117547 -0.991607 0.003018 -0.129251 -0.407645 0.02327 -0.912844 0.90816 0.019545 -0.418168 0.975175 -0.008948 0.221254 -0.432613 -0.050704 -0.900153 -0.686633 0.051654 0.725167 0.577781 -0.083688 -0.81189 -0.9402 0.320186 -0.116215 0.652874 -0.183394 -0.73493 -0.923389 0.334083 -0.189053 -0.519668 0.064382 0.851939 0.981339 -0.09645 0.166347 0.765602 -0.113382 0.633244 -0.617957 0.131866 0.775074 -0.13257 -0.010585 -0.991117 0.041054 -0.026363 -0.998809 -0.403217 0.171473 0.898895 0.066812 -0.057132 0.996129 0.738046 0.060724 0.672012 0.737573 -0.01128 -0.675173 0.680359 0.003044 -0.732873 0.955923 0.003532 -0.293596 0.91467 -0.058566 -0.399935 0.699827 0.685708 0.200117 0.982574 -0.001398 -0.185866 0.995504 -0.015473 0.093451 -0.995436 0.001295 0.095427 -0.995638 -0.000856 0.0933 0.14939 0.061402 -0.98687 0.820565 0.060271 0.568366 0.865915 0.056152 0.497029 0.75428 0.008267 -0.656501 0.04191 -0.018521 -0.99895 0.651443 0.179949 -0.737048 0.637247 -0.005039 -0.770643 -0.931304 0.291576 -0.218304 -0.811673 -0.027934 -0.583444 -0.064668 0.066152 -0.995712 -0.977913 0.017476 -0.208281 -0.932253 0.000777 0.361806 0.992895 -0.014195 0.118147 0.970087 0.006375 -0.242672 -0.985061 0.021697 0.170834 -0.092028 -0.018563 0.995583 -0.993584 -0.001613 0.113087 -0.954373 0.192956 0.227903 -0.661409 0.010582 -0.749951 -0.939215 -0.228098 -0.256604 -0.383537 0.695538 0.607557 -0.383537 0.695538 0.607557 -0.95421 0.245745 0.170566 -0.412503 0.450677 0.791664 0.74996 -0.378329 0.542612 0.994869 0.001313 -0.101162 0.23403 0.046663 0.971109 0.995081 0.000256 0.09906 0.977071 0.00019 0.212916 0.984704 0.007802 0.174059 0.952574 -0.029074 -0.302914 -0.264246 0.035332 -0.963808 0.059486 0.056173 -0.996647 0.932076 -0.225376 -0.283619 0.979579 -0.183657 -0.081824 0.90066 -0.266642 0.343095 0.185781 -0.981407 -0.048222 0.015997 -0.981744 0.189531 0.065181 -0.016615 0.997735 -0.965123 0.179224 -0.190831 -0.971312 0.149911 -0.184607 -0.794565 0.32714 0.511514 -0.910546 -0.406729 -0.074017 -0.231207 -0.003374 0.972899 0.919581 -0.346303 0.185593 -0.983039 -0.017651 -0.182545 -0.971945 0.005397 0.235146 0.999922 0.011153 0.005544 0.977855 -0.004081 0.209246 0.741903 -0.124004 0.658941 0.888389 -0.033772 0.457847 -0.993173 -0.014557 -0.115741 0.725339 0.000196 0.688392 -0.165674 -0.013974 0.986081 0.045056 0.030666 0.998514 0.004914 -0.015126 -0.999874 0.005104 -0.014096 -0.999888 -0.483751 0.873701 0.051296 -0.016906 0.038048 -0.999133 -0.468307 0.883552 0.004934 0.009094 0.019723 -0.999764 -0.993021 -0.001557 -0.117924 -0.99556 0.001036 -0.094123 -0.996199 -0.002549 -0.087064 -0.157696 -0.308742 0.937982 0.875035 0.123107 0.468144 0.817753 -0.194828 0.541592 0.67908 0.166091 0.715027 0.753076 0.01773 0.657695 0.707006 -0.002808 0.707202 0.673305 0.044898 0.738001 -0.577253 0.083057 0.812331 -0.182958 0.082024 0.979693 -0.147406 0.019481 0.988884 -0.9707 0.019854 0.239473 -0.980436 0.025852 0.195135 -0.935613 -0.006823 -0.352961 -0.736776 -0.025784 -0.675645 -0.927205 -0.044512 -0.371899 -0.992335 -0.004621 -0.12349 -0.946074 -0.001229 -0.32395 0.219178 -0.021859 -0.97544 -0.960829 -0.010161 0.276957 -0.413205 -0.080413 0.907081 -0.173797 -0.081814 0.981377 -0.953831 -0.027608 0.299072 -0.862269 -0.155973 0.481834 -0.802778 0.15309 -0.57629 -0.272774 0.35332 -0.894852 -0.273337 0.358105 -0.892775 0.895567 0.138084 -0.422957 0.997342 -0.04406 -0.058033 0.965133 -0.038442 0.258921 0.978507 -0.007643 0.206074 0.947565 -0.039635 0.317095 0.821682 0.040367 -0.568514 0.804437 0.059592 -0.591041 -0.026211 0.046537 -0.998573 0.506896 -0.560955 -0.654512 0.980148 -0.006935 0.198146 -0.608956 0.126396 -0.783069 0.711203 0.630094 -0.311723 0.477256 0.170667 -0.862032 0.746087 0.107517 -0.657111 0.794841 0.043105 -0.605285 -0.621176 0.007525 -0.783635 -0.993043 -0.004985 0.117645 -0.992766 -0.004719 0.119974 -0.995507 -0.000484 0.094688 -0.995284 0.000568 0.097004 0.995006 0.001602 -0.099799 0.314433 0.050297 -0.947946 -0.299107 0.09649 0.949329 -0.969013 0.037861 0.244089 0.912326 0.021712 0.408888 0.951946 -0.029533 -0.304837 0.739999 0.251195 0.623941 0.998204 -0.023927 0.054922 0.984937 0.028245 0.170589 0.969591 0.014364 0.244307 0.780244 0.131857 0.611419 0.71472 0.110267 0.690664 0.995052 0.001514 0.09934 0.993479 0.007157 0.113786 0.688821 0.260721 0.676425 0.068662 0.233678 0.969887 -0.246967 0.212777 0.945375 -0.048397 0.790596 0.610423 -0.64377 0.249114 0.723534 -0.981615 0.063042 0.18016 -0.948094 -0.023907 -0.317092 -0.974663 -0.020801 -0.22271 -0.993879 -0.002678 -0.110445 -0.666547 0.182575 0.72276 0.926296 0.089646 -0.365978 0.52137 0.363526 -0.772025 0.95371 0.080746 -0.289686 0.943762 0.132182 -0.303054 0.271624 0.542209 -0.795129 -0.933235 0.24979 -0.25822 0.391716 0.554353 -0.734338 -0.324145 0.829171 -0.455418 -0.947265 0.23499 -0.217874 -0.997107 0.034229 0.067861 -0.943618 0.227812 -0.240179 -0.862688 -0.346369 -0.368508 -0.589225 -0.650636 -0.479048 -0.975571 -0.051432 0.21358 -0.745313 -0.232315 0.62493 -0.994593 -0.001509 0.103838 0.994917 0.000353 -0.100699 0.966915 0.025723 -0.253798 0.995474 -0.002947 -0.094985 0.968189 -0.250041 -0.009478 0.93744 -0.253555 0.238569 0.947904 0.143351 0.28448 -0.177943 0.764156 0.620001 0.349273 0.559391 0.751725 0.993044 -0.044898 0.108851 0.616094 0.381267 0.689248 0.341579 0.540961 0.76856 0.991955 0.018481 0.125235 0.985726 0.020576 0.167097 -0.675287 0.351367 0.648482 -0.621794 0.414258 0.664652 -0.999135 0.036626 0.019692 -0.815588 -0.418163 0.399945 -0.977119 0.047546 -0.207311 -0.655352 -0.605572 0.451439 -0.994055 -0.001628 -0.108866 -0.967569 -0.035544 -0.250095 -0.874376 -0.166683 -0.455724 -0.973614 -0.031883 -0.225964</float_array>
          <technique_common>
            <accessor source="#FeatherShield-mesh-normals-array" count="497" stride="3">
              <param name="X" type="float"/>
              <param name="Y" type="float"/>
              <param name="Z" type="float"/>
            </accessor>
          </technique_common>
        </source>
        <source id="FeatherShield-mesh-map-0">
          <float_array id="FeatherShield-mesh-map-0-array" count="2982">0.456299 0.397705 0.446289 0.402344 0.453369 0.381592 0.445801 0.375488 0.433838 0.391846 0.437744 0.374268 0.458496 0.339355 0.445801 0.375488 0.437744 0.374268 0.429199 0.387207 0.407471 0.361572 0.43457 0.337402 0.43457 0.337402 0.411621 0.327393 0.433594 0.319336 0.43457 0.337402 0.433594 0.319336 0.45166 0.329346 0.467529 0.346191 0.453369 0.381592 0.458496 0.339355 0.453369 0.381592 0.467529 0.346191 0.472656 0.381592 0.478271 0.320801 0.468994 0.317627 0.486816 0.297852 0.478271 0.320801 0.486816 0.297852 0.493652 0.31543 0.478271 0.320801 0.493652 0.31543 0.484375 0.330322 0.491699 0.344482 0.472656 0.381592 0.467529 0.346191 0.472656 0.381592 0.491699 0.344482 0.513184 0.397705 0.492432 0.330566 0.493652 0.31543 0.51123 0.3125 0.51416 0.330322 0.53125 0.340088 0.523193 0.341064 0.523193 0.341064 0.53125 0.340088 0.53125 0.378662 0.523193 0.341064 0.53125 0.378662 0.513184 0.397705 0.53125 0.378662 0.541748 0.385254 0.513184 0.397705 0.55127 0.398682 0.575928 0.396973 0.591064 0.40918 0.549072 0.405273 0.591064 0.40918 0.591797 0.416748 0.932373 0.137939 0.927002 0.148682 0.905518 0.113525 0.905518 0.113525 0.927002 0.148682 0.91626 0.153809 0.87793 0.078125 0.878662 0.087646 0.84375 0.057617 0.888184 0.072266 0.850586 0.054443 0.872314 0.055176 0.949707 0.108154 0.946289 0.140137 0.919922 0.107422 0.919922 0.107422 0.9375 0.09375 0.949707 0.108154 0.955078 0.080566 0.942871 0.071533 0.956787 0.053711 0.956787 0.053711 0.942871 0.071533 0.952393 0.051025 0.352783 0.724121 0.357422 0.716064 0.359131 0.720947 0.335449 0.707764 0.338623 0.724854 0.329834 0.709961 0.359131 0.720947 0.357422 0.716064 0.390137 0.69873 0.396973 0.689209 0.38916 0.686768 0.390625 0.658691 0.396973 0.689209 0.390625 0.658691 0.418701 0.647705 0.396973 0.689209 0.418701 0.647705 0.435303 0.694092 0.396973 0.689209 0.435303 0.694092 0.439941 0.703125 0.435303 0.694092 0.418701 0.647705 0.443115 0.66626 0.439941 0.703125 0.445313 0.696533 0.459961 0.712646 0.445313 0.696533 0.443115 0.66626 0.452637 0.658447 0.459961 0.712646 0.445313 0.696533 0.464355 0.685791 0.464355 0.685791 0.445313 0.696533 0.452637 0.658447 0.475098 0.702637 0.464355 0.685791 0.48999 0.679932 0.475098 0.702637 0.48999 0.679932 0.5 0.691162 0.774902 0.336914 0.778809 0.342041 0.757568 0.35498 0.741943 0.358643 0.717285 0.37207 0.705811 0.362305 0.739258 0.346191 0.741943 0.358643 0.728271 0.347168 0.728271 0.347168 0.741943 0.358643 0.705811 0.362305 0.728271 0.347168 0.705811 0.362305 0.705811 0.354736 0.728271 0.347168 0.705811 0.354736 0.737305 0.328613 0.705811 0.354736 0.672119 0.356934 0.708496 0.337891 0.708496 0.337891 0.672119 0.356934 0.661865 0.313232 0.661865 0.313232 0.672119 0.356934 0.616455 0.350586 0.708496 0.337891 0.702393 0.293945 0.7229 0.290527 0.7229 0.290527 0.702393 0.293945 0.703857 0.281006 0.7229 0.290527 0.703857 0.281006 0.728271 0.274658 0.703857 0.281006 0.679932 0.300537 0.667969 0.296875 0.654785 0.308105 0.625488 0.296875 0.642822 0.297607 0.171631 0.701416 0.162842 0.699707 0.164063 0.693359 0.164063 0.693359 0.162842 0.699707 0.119385 0.692139 0.160156 0.681396 0.164063 0.693359 0.124756 0.686523 0.124756 0.686523 0.164063 0.693359 0.119385 0.692139 0.160156 0.681396 0.124756 0.686523 0.124023 0.677002 0.119385 0.692139 0.134521 0.703613 0.114014 0.706543 0.114014 0.706543 0.140625 0.714355 0.125977 0.715332 0.125977 0.715332 0.123535 0.728027 0.094238 0.7229 0.094238 0.7229 0.123535 0.728027 0.112549 0.765381 0.14624 0.762695 0.181152 0.744141 0.162109 0.76416 0.162598 0.774414 0.180176 0.770508 0.179443 0.778809 0.115723 0.766602 0.162109 0.76416 0.144043 0.772461 0.144043 0.772461 0.162109 0.76416 0.162598 0.774414 0.115723 0.766602 0.115723 0.769775 0.086182 0.812988 0.115479 0.779785 0.116455 0.781982 0.091797 0.81958 0.144043 0.772461 0.157715 0.779297 0.116455 0.781982 0.669189 0.875488 0.700928 0.887451 0.661621 0.886719 0.669189 0.875488 0.661621 0.886719 0.623535 0.887451 0.669189 0.875488 0.623535 0.887451 0.646484 0.866455 0.673096 0.86084 0.669189 0.875488 0.646484 0.866455 0.707764 0.859375 0.738037 0.864746 0.7146 0.872559 0.738037 0.864746 0.707764 0.859375 0.712891 0.847412 0.654297 0.857422 0.673096 0.86084 0.646484 0.866455 0.66333 0.835693 0.68335 0.856689 0.654297 0.857422 0.66333 0.835693 0.654297 0.857422 0.619629 0.839844 0.187744 0.916016 0.208252 0.888672 0.209473 0.917725 0.187744 0.916016 0.209473 0.917725 0.200439 0.923828 0.209473 0.917725 0.23999 0.922119 0.200439 0.923828 0.010254 0.061035 0.050781 0.0271 0.016357 0.067627 0.053955 0.037109 0.050781 0.0271 0.067139 0.003418 0.025391 0.073975 0.060547 0.044922 0.057617 0.056396 0.740479 0.921143 0.750488 0.924072 0.766846 0.959229 0.740479 0.921143 0.752197 0.956543 0.724609 0.915039 0.693604 0.907227 0.710205 0.916748 0.693115 0.921143 0.743652 0.961914 0.724609 0.915039 0.752197 0.956543 0.719727 0.974365 0.710693 0.923584 0.739258 0.974365 0.743652 0.961914 0.752197 0.956543 0.750488 0.96582 0.719727 0.974365 0.739258 0.974365 0.729248 0.987549 0.741943 0.989258 0.739258 0.974365 0.748535 0.98584 0.543213 0.999023 0.573242 0.985107 0.575684 0.993652 0.61084 0.993164 0.599609 0.98877 0.636475 0.97998 0.636475 0.97998 0.599609 0.98877 0.605957 0.977051 0.644531 0.963379 0.608887 0.97168 0.634766 0.96167 0.636475 0.97998 0.644531 0.963379 0.674316 0.983887 0.932861 0.171143 0.946289 0.196777 0.914307 0.159424 0.946289 0.196777 0.99707 0.182373 0.995361 0.206543 0.946289 0.196777 0.995361 0.206543 0.942871 0.235596 0.942871 0.235596 0.995361 0.206543 0.983398 0.247314 0.813965 0.125732 0.791016 0.118164 0.79834 0.114502 0.79834 0.114502 0.791016 0.118164 0.789307 0.094971 0.819336 0.096191 0.800049 0.093262 0.80249 0.087646 0.820068 0.071777 0.789795 0.06543 0.813477 0.048096 0.412842 0.875732 0.407227 0.870117 0.487549 0.890137 0.512207 0.886475 0.513672 0.875244 0.537842 0.919434 0.513672 0.875244 0.469971 0.854492 0.525146 0.859863 0.522461 0.855713 0.480713 0.850098 0.504395 0.823242 0.311279 0.027832 0.264648 0.032959 0.279541 0.024902 0.473633 0.967529 0.50708 0.984131 0.474365 0.98584 0.474365 0.98584 0.50708 0.984131 0.484375 0.990723 0.517334 0.990723 0.548828 0.972412 0.550293 0.978271 0.548828 0.972412 0.530762 0.949463 0.604492 0.956543 0.548828 0.972412 0.604492 0.956543 0.550293 0.978271 0.604492 0.956543 0.530762 0.949463 0.613037 0.929688 0.012939 0.400391 0.053711 0.426758 0.02124 0.463623 0.519287 0.212158 0.527588 0.21875 0.518555 0.223877 0.525635 0.228027 0.532471 0.225586 0.528809 0.242188 0.503906 0.230713 0.515869 0.23584 0.513672 0.243164 0.513672 0.243164 0.5 0.273682 0.47876 0.279053 0.491455 0.249756 0.513672 0.243164 0.47876 0.279053 0.469238 0.288818 0.473633 0.300781 0.463867 0.299561 0.456055 0.261963 0.50293 0.22876 0.465088 0.266846 0.455811 0.278076 0.450684 0.281738 0.448242 0.268799 0.498779 0.217773 0.50293 0.22876 0.456055 0.261963 0.50293 0.22876 0.498779 0.217773 0.510742 0.220215 0.456055 0.261963 0.445801 0.254395 0.466309 0.22876 0.456055 0.261963 0.466309 0.22876 0.498779 0.217773 0.44043 0.242188 0.427734 0.237061 0.451416 0.215088 0.44043 0.242188 0.451416 0.215088 0.466309 0.22876 0.510742 0.220215 0.51416 0.20752 0.519287 0.212158 0.439453 0.215332 0.451416 0.215088 0.427734 0.237061 0.012207 0.22583 0.020996 0.221191 0.014404 0.284424 0.057861 0.278809 0.065674 0.275879 0.060059 0.287842 0.065674 0.275879 0.118408 0.249268 0.072266 0.297119 0.345215 0.623779 0.359619 0.644531 0.32959 0.628418 0.312256 0.610107 0.316162 0.624756 0.291992 0.64624 0.32959 0.628418 0.327881 0.637451 0.316162 0.624756 0.320313 0.663086 0.330566 0.669189 0.328125 0.685547 0.299316 0.646484 0.308105 0.677979 0.291992 0.64624 0.291992 0.64624 0.308105 0.677979 0.295898 0.69873 0.234375 0.630371 0.274658 0.67749 0.229492 0.683105 0.592285 0.006348 0.648682 0.064453 0.558105 0.036621 0.657959 0.051514 0.635254 0.016846 0.676514 0.039063 0.635254 0.016846 0.655029 0.013672 0.676514 0.039063 0.897461 0.794189 0.921631 0.815186 0.929688 0.790771 0.900146 0.769775 0.888184 0.790283 0.875732 0.788818 0.900146 0.769775 0.875732 0.788818 0.851074 0.782959 0.926758 0.750244 0.911133 0.739014 0.927246 0.722168 0.793945 0.452881 0.765137 0.505859 0.706055 0.467529 0.706055 0.467529 0.694824 0.465576 0.705811 0.449951 0.699463 0.585693 0.761719 0.571045 0.791016 0.577148 0.699707 0.600342 0.777832 0.611572 0.706055 0.62085 0.706055 0.62085 0.795654 0.638428 0.755371 0.64917 0.694092 0.628174 0.747803 0.652588 0.682373 0.642822 0.682373 0.642822 0.747803 0.652588 0.767822 0.700439 0.682373 0.642822 0.767822 0.700439 0.73584 0.718262 0.683594 0.268066 0.674561 0.24292 0.766602 0.24585 0.304688 0.763916 0.299072 0.739014 0.35376 0.742432 0.270752 0.757568 0.258789 0.765869 0.245361 0.747314 0.270752 0.757568 0.245361 0.747314 0.299072 0.739014 0.236084 0.751465 0.258789 0.765869 0.246582 0.765869 0.259521 0.697754 0.235107 0.726807 0.212402 0.701416 0.216309 0.742188 0.227539 0.735107 0.236084 0.751465 0.216309 0.742188 0.236084 0.751465 0.223633 0.755127 0.223633 0.755127 0.236084 0.751465 0.246582 0.765869 0.216309 0.742188 0.223633 0.755127 0.214844 0.751953 0.204834 0.760986 0.214844 0.751953 0.217529 0.767578 0.197754 0.774658 0.217529 0.767578 0.199951 0.785889 0.236084 0.769775 0.246582 0.765869 0.243896 0.786377 0.218506 0.783691 0.233887 0.779053 0.223633 0.788818 0.523926 0.141113 0.537842 0.160156 0.58374 0.162109 0.58374 0.162109 0.537842 0.160156 0.586182 0.179199 0.586182 0.179199 0.537842 0.160156 0.546631 0.166504 0.568604 0.201172 0.585693 0.230469 0.573486 0.236816 0.052246 0.985352 0.096191 0.999756 0.056152 0.994873 0.485352 0.835693 0.443359 0.713623 0.483643 0.741211 0.963623 0.478027 0.974121 0.470947 0.986328 0.483154 0.986328 0.483154 0.974121 0.470947 0.987549 0.464355 0.975586 0.443359 0.987549 0.464355 0.974121 0.470947 0.975586 0.443359 0.966309 0.456543 0.964111 0.439941 0.966309 0.456543 0.95459 0.474365 0.952637 0.458008 0.966309 0.456543 0.952637 0.458008 0.964111 0.439941 0.964111 0.439941 0.952637 0.458008 0.943848 0.445801 0.862305 0.908691 0.842041 0.92627 0.848633 0.88623 0.848633 0.88623 0.842041 0.92627 0.826904 0.852539 0.826904 0.852539 0.842041 0.92627 0.835938 0.923096 0.826904 0.852539 0.835938 0.923096 0.825684 0.878662 0.848633 0.88623 0.826904 0.852539 0.845459 0.830811 0.861328 0.845703 0.857666 0.803955 0.875977 0.808105 0.881348 0.857422 0.861328 0.845703 0.875977 0.808105 0.661133 0.787109 0.632324 0.766846 0.687988 0.748779 0.661133 0.787109 0.687988 0.748779 0.710693 0.7771 0.710693 0.7771 0.737549 0.745605 0.731201 0.777832 0.656738 0.791016 0.731201 0.777832 0.694824 0.792236 0.694824 0.792236 0.731201 0.777832 0.759766 0.7854 0.694824 0.792236 0.754395 0.79541 0.737061 0.811768 0.754639 0.001953 0.749512 0.019775 0.741699 0.007568 0.741699 0.007568 0.725342 0.017822 0.72168 0.008057 0.72168 0.008057 0.725342 0.017822 0.687988 0.010254 0.672119 0.224609 0.686523 0.192871 0.725098 0.204346 0.672119 0.224609 0.725098 0.204346 0.762451 0.22876 0.920654 0.463135 0.86084 0.441406 0.888428 0.400879 0.016113 0.344727 0.019775 0.331787 0.024658 0.353516 0.024658 0.353516 0.019775 0.331787 0.034424 0.324707 0.024658 0.353516 0.034424 0.324707 0.036865 0.351318 0.224121 0.273926 0.246094 0.290283 0.224365 0.29541 0.242188 0.30835 0.26416 0.302734 0.275635 0.318359 0.275635 0.30542 0.284912 0.293457 0.289063 0.307861 0.284912 0.293457 0.273438 0.265381 0.301514 0.284424 0.284912 0.293457 0.301514 0.284424 0.289063 0.307861 0.295166 0.268555 0.276367 0.253174 0.286133 0.248535 0.301514 0.284424 0.307373 0.266846 0.318848 0.283936 0.316406 0.306152 0.319092 0.29834 0.383057 0.305176 0.220703 0.329346 0.245361 0.334961 0.225586 0.352051 0.208496 0.339355 0.206299 0.355225 0.185059 0.348877 0.185059 0.348877 0.206299 0.355225 0.201416 0.371826 0.185547 0.324707 0.204346 0.329102 0.185059 0.348877 0.190674 0.379395 0.194336 0.392578 0.188477 0.408691 0.180664 0.318115 0.172852 0.335449 0.166016 0.325195 0.185059 0.348877 0.175049 0.363281 0.172852 0.335449 0.18335 0.383057 0.181152 0.410645 0.17749 0.388184 0.175049 0.363281 0.18335 0.383057 0.167725 0.374023 0.167725 0.374023 0.18335 0.383057 0.17749 0.388184 0.139648 0.446777 0.113525 0.412109 0.171875 0.411621 0.171875 0.411621 0.130615 0.371826 0.167725 0.374023 0.158691 0.352783 0.13916 0.340576 0.162842 0.346191 0.13916 0.340576 0.117432 0.338623 0.123291 0.330811 0.162842 0.346191 0.13916 0.340576 0.140137 0.327881 0.166016 0.325195 0.140137 0.327881 0.151367 0.316895 0.128906 0.320801 0.111572 0.316406 0.117432 0.308594 0.151367 0.316895 0.128906 0.320801 0.127441 0.312012 0.127441 0.312012 0.128906 0.320801 0.117432 0.308594 0.151367 0.316895 0.127441 0.312012 0.114502 0.270752 0.224365 0.562012 0.261475 0.581299 0.264648 0.591553 0.224365 0.562012 0.264648 0.591553 0.239014 0.582275 0.035889 0.291504 0.064941 0.292969 0.014404 0.307373 0.035889 0.291504 0.014404 0.307373 0.011719 0.305176 0.887207 0.390381 0.860352 0.37207 0.85791 0.347412 0.899414 0.356689 0.875244 0.338135 0.866211 0.280762 0.899414 0.356689 0.89917 0.322021 0.907715 0.348633 0.907715 0.348633 0.89917 0.322021 0.916504 0.326904 0.022949 0.947021 0.059082 0.936768 0.092773 0.945801 0.420166 0.491699 0.399658 0.499023 0.421143 0.46582 0.420166 0.491699 0.421143 0.46582 0.441895 0.480957 0.422852 0.500488 0.480469 0.505127 0.4646 0.530029 0.408691 0.443359 0.421143 0.46582 0.399658 0.499023 0.447021 0.461914 0.408691 0.443359 0.457275 0.441162 0.432861 0.539795 0.422852 0.500488 0.4646 0.530029 0.457275 0.441162 0.398438 0.413086 0.468018 0.417236 0.490479 0.45166 0.556641 0.458496 0.50415 0.491943 0.457275 0.441162 0.50415 0.491943 0.447021 0.461914 0.447021 0.461914 0.50415 0.491943 0.441895 0.480957 0.480469 0.505127 0.50415 0.491943 0.518066 0.518799 0.480469 0.505127 0.518066 0.518799 0.4646 0.530029 0.4646 0.530029 0.47168 0.568604 0.432861 0.539795 0.432861 0.539795 0.438232 0.554932 0.420166 0.572266 0.432861 0.539795 0.400391 0.563721 0.359131 0.523926 0.359131 0.523926 0.400391 0.563721 0.365967 0.565674 0.400391 0.563721 0.365967 0.565674 0.36792 0.5896 0.400391 0.563721 0.36792 0.5896 0.402344 0.591797 0.402344 0.591797 0.420166 0.572266 0.441406 0.60791 0.402344 0.591797 0.441406 0.60791 0.440186 0.630615 0.441406 0.60791 0.420166 0.572266 0.463867 0.590088 0.897461 0.679932 0.882324 0.648682 0.899902 0.657471 0.897461 0.679932 0.899902 0.657471 0.907227 0.666992 0.897461 0.679932 0.916992 0.680176 0.920898 0.701904 0.929443 0.669678 0.911377 0.654053 0.931885 0.661865 0.931885 0.661865 0.929443 0.669678 0.936768 0.665283 0.932861 0.683838 0.940918 0.677246 0.943604 0.680176 0.920898 0.701904 0.932861 0.683838 0.938232 0.704102 0.076416 0.566895 0.131348 0.589844 0.063965 0.582764 0.063965 0.582764 0.131348 0.589844 0.078613 0.602539 0.076416 0.566895 0.039551 0.544434 0.092041 0.550293 0.092041 0.550293 0.039551 0.544434 0.065918 0.527832 0.092041 0.550293 0.065918 0.527832 0.118408 0.530029 0.06958 0.510742 0.016357 0.503906 0.026123 0.486572 0.102051 0.496094 0.06958 0.510742 0.026123 0.486572 0.102051 0.496094 0.026123 0.486572 0.067627 0.476807 0.102051 0.496094 0.067627 0.476807 0.126953 0.486084 0.312744 0.97876 0.199219 0.980957 0.202148 0.969727 0.312744 0.97876 0.202148 0.969727 0.21875 0.953369 0.671143 0.481445 0.656494 0.444092 0.674805 0.442383 0.658936 0.400635 0.640137 0.421143 0.655762 0.394775 0.652344 0.463379 0.656494 0.444092 0.671143 0.481445 0.652344 0.463379 0.656738 0.492432 0.647217 0.490234 0.656494 0.444092 0.626953 0.44458 0.640137 0.421143 0.627686 0.473145 0.647217 0.490234 0.63501 0.491699 0.627686 0.473145 0.615967 0.48291 0.610107 0.4646 0.614258 0.425049 0.626953 0.44458 0.610107 0.4646 0.155273 0.310059 0.120361 0.177734 0.142578 0.248047 0.14502 0.244873 0.158447 0.171875 0.181396 0.242188 0.696289 0.707275 0.606201 0.728516 0.612061 0.67749 0.69458 0.702637 0.612061 0.67749 0.621094 0.672852 0.380615 0.117188 0.454834 0.084717 0.480957 0.084717 0.380615 0.117188 0.480957 0.084717 0.485352 0.139893 0.33252 0.166016 0.360107 0.171875 0.349609 0.177734 0.33252 0.166016 0.381836 0.152832 0.342285 0.14502 0.342285 0.14502 0.303467 0.159912 0.296387 0.143066 0.303467 0.159912 0.307617 0.168701 0.274414 0.166016 0.296387 0.143066 0.303467 0.159912 0.264404 0.158203 0.264404 0.158203 0.303467 0.159912 0.274414 0.166016 0.953613 0.658936 0.971191 0.659424 0.975586 0.678467 0.953613 0.658936 0.975586 0.678467 0.972656 0.685303 0.953613 0.658936 0.972656 0.685303 0.934326 0.654785 0.956299 0.642578 0.928711 0.645508 0.918945 0.628906 0.339355 0.074219 0.297119 0.080322 0.257568 0.069824 0.257568 0.069824 0.297119 0.080322 0.223389 0.076416 0.999268 0.396973 0.973877 0.38208 0.961914 0.398438 0.999268 0.396973 0.973877 0.38208 0.972412 0.372803 0.999268 0.396973 0.972412 0.372803 0.998291 0.384766 0.9021 0.257813 0.918701 0.21875 0.93042 0.231934 0.886475 0.295166 0.9021 0.257813 0.915283 0.268311 0.886475 0.295166 0.915283 0.268311 0.909668 0.291016 0.915283 0.268311 0.909668 0.291016 0.916748 0.279297 0.909668 0.291016 0.916748 0.279297 0.915039 0.294922 0.916748 0.896973 0.881592 0.908691 0.911377 0.879639 0.874268 0.953125 0.896973 0.926514 0.878174 0.993652 0.825439 0.138184 0.916748 0.188721 0.843994 0.194336 0.874756 0.242188 0.916748 0.188721 0.894043 0.238037 0.354492 0.866943 0.394775 0.86792 0.350098 0.875488 0.388428 0.851074 0.362305 0.848877 0.35083 0.833496 0.880127 0.0271 0.897461 0.033447 0.830811 0.033447 0.400879 0.976807 0.400635 0.969238 0.420166 0.96582 0.396973 0.960205 0.384277 0.95166 0.395508 0.944092 0.396973 0.960205 0.395508 0.944092 0.414307 0.953613 0.414307 0.953613 0.395508 0.944092 0.41748 0.895752 0.386719 0.94043 0.372559 0.949219 0.373779 0.935059 0.405273 0.893799 0.386719 0.94043 0.373779 0.935059 0.395508 0.944092 0.405273 0.893799 0.41748 0.895752 0.405273 0.893799 0.373779 0.935059 0.397217 0.883545 0.397217 0.883545 0.363525 0.924805 0.383057 0.87915 0.438721 0.937988 0.444092 0.914063 0.458008 0.908203 0.472656 0.935547 0.438721 0.937988 0.458008 0.908203 0.112061 0.82666 0.148438 0.854004 0.097412 0.850342 0.097412 0.850342 0.148438 0.854004 0.121094 0.859863 0.148438 0.854004 0.112061 0.82666 0.157959 0.824219 0.183838 0.820068 0.161133 0.820801 0.17041 0.812256 0.13623 0.815674 0.157959 0.824219 0.114014 0.815674 0.130371 0.807617 0.114014 0.815674 0.116455 0.802979 0.932373 0.025879 0.938965 0.045166 0.95459 0.036133 0.968262 0.040283 0.95459 0.036133 0.948242 0.025635 0.980225 0.054443 0.980713 0.039551 0.991943 0.036133 0.968506 0.009766 0.948242 0.025635 0.94873 0.001953 0.986084 0.011719 0.977539 0.011963 0.984619 0.002197 0.152588 0.999756 0.03125 0.964844 0.101563 0.960449 0.103516 0.308594 0.04126 0.312744 0.104736 0.303711 0.967529 0.952148 0.968994 0.914795 0.996094 0.941895 0.254639 0.130371 0.208984 0.116455 0.223145 0.088867 0.254639 0.130371 0.223145 0.088867 0.27002 0.093994 0.239014 0.085938 0.223145 0.088867 0.191406 0.074219 0.606445 0.101807 0.654297 0.069824 0.617432 0.117676 0.617432 0.117676 0.654297 0.069824 0.667725 0.086426 0.630615 0.124512 0.669678 0.10376 0.641357 0.143311 0.641357 0.143311 0.672119 0.122314 0.663574 0.133789 0.641357 0.143311 0.663574 0.133789 0.650146 0.150146 0.727051 0.099854 0.698486 0.093018 0.7229 0.083252 0.699219 0.108887 0.727051 0.099854 0.713867 0.118164 0.690186 0.136963 0.672607 0.160889 0.650146 0.150146 0.932129 0.839355 0.955566 0.871094 0.924072 0.854004 0.924072 0.854004 0.955566 0.871094 0.948975 0.897217 0.95752 0.901611 0.955566 0.871094 0.976074 0.879395 0.95752 0.901611 0.976074 0.879395 0.983643 0.891602 0.979492 0.843506 0.945801 0.835205 0.952637 0.810303 0.980957 0.69165 0.970215 0.699463 0.964355 0.689453 0.002197 0.763184 0.084961 0.721191 0.004639 0.775146 0.084961 0.721191 0.002197 0.763184 0.033447 0.719482 0.540283 0.783203 0.588379 0.814453 0.586426 0.826172 0.540283 0.783203 0.586426 0.826172 0.540039 0.835449 0.0354 0.980225 0.047852 0.999512 0.046631 0.98584 0.0354 0.980225 0.047852 0.999512 0.013184 1 0.382568 0.091553 0.404053 0.037842 0.345703 0.071289 0.506836 0.085693 0.560059 0.070313 0.506104 0.10498 0.509521 0.116211 0.581055 0.080078 0.579834 0.089355 0.044434 0.820068 0.045166 0.791504 0.056641 0.800049 0.010986 0.859863 0.034668 0.84668 0.028564 0.876953 0.028564 0.876953 0.034668 0.84668 0.053223 0.865234 0.046387 0.852783 0.057373 0.83374 0.07251 0.850586 0.057373 0.83374 0.07251 0.850586 0.056641 0.800049 0.046387 0.852783 0.07251 0.850586 0.053223 0.865234 0.056641 0.800049 0.07251 0.850586 0.073975 0.813965 0.146484 0.880371 0.139404 0.902588 0.092773 0.861328 0.062988 0.882568 0.144287 0.932861 0.06665 0.929932 0.040283 0.88623 0.06665 0.929932 0.017578 0.928223 0.805176 0.746338 0.799072 0.733643 0.80542 0.733154 0.819824 0.737061 0.822021 0.72998 0.83252 0.741211 0.819824 0.74585 0.83252 0.741211 0.828857 0.755859 0.819824 0.74585 0.828857 0.755859 0.812256 0.76001 0.828857 0.755859 0.842041 0.804932 0.824707 0.794434 0.828857 0.755859 0.824707 0.794434 0.812256 0.76001 0.824707 0.794434 0.842041 0.804932 0.831787 0.836426 0.812256 0.76001 0.812744 0.799072 0.803223 0.759766 0.812744 0.799072 0.831787 0.836426 0.80249 0.804688 0.812744 0.799072 0.80249 0.804688 0.803223 0.759766 0.803223 0.759766 0.80249 0.804688 0.793701 0.759277 0.790771 0.802734 0.80249 0.804688 0.783936 0.849365 0.790771 0.802734 0.783936 0.849365 0.775146 0.829834 0.772461 0.791016 0.764648 0.824707 0.764893 0.780762 0.765869 0.750488 0.763916 0.758057 0.750977 0.742432 0.750977 0.742432 0.763916 0.758057 0.741211 0.740234 0.840332 0.026367 0.775146 0.029785 0.781738 0.010986 0.851074 0.025391 0.770508 0 0.824707 0.005371 0.137207 0.656006 0.150146 0.611328 0.156006 0.653076 0.150146 0.611328 0.137207 0.656006 0.132324 0.649902 0.150146 0.611328 0.132324 0.649902 0.143311 0.617432 0.146973 0.595459 0.14917 0.574707 0.159424 0.588135 0.132324 0.542969 0.13208 0.562744 0.124756 0.533203 0.159424 0.588135 0.1521 0.550293 0.170898 0.584473 0.16626 0.524658 0.15625 0.526123 0.1521 0.507568 0.162842 0.546631 0.172852 0.549561 0.170898 0.584473 0.190674 0.528076 0.179443 0.523193 0.187012 0.496582 0.195801 0.523193 0.190674 0.528076 0.201904 0.504639 0.185547 0.547119 0.205078 0.57666 0.200195 0.585693 0.200195 0.585693 0.217773 0.610352 0.208984 0.604736 0.208984 0.604736 0.223145 0.629395 0.2229 0.640381 0.208984 0.604736 0.2229 0.640381 0.206055 0.628906 0.208984 0.604736 0.206055 0.628906 0.182861 0.607666 0.182861 0.607666 0.193359 0.651367 0.180176 0.656738 0.208984 0.604736 0.182861 0.607666 0.19751 0.599854 0.208984 0.604736 0.19751 0.599854 0.200195 0.585693 0.182861 0.607666 0.174316 0.633789 0.17627 0.609375 0.200195 0.585693 0.19458 0.588867 0.179688 0.57959 0.179688 0.57959 0.19458 0.588867 0.181885 0.594482 0.200195 0.585693 0.179688 0.57959 0.185547 0.547119 0.185547 0.547119 0.179688 0.57959 0.172852 0.549561 0.181885 0.594482 0.168213 0.595947 0.170898 0.584473 0.830322 0.248535 0.823242 0.229248 0.841309 0.206055 0.768311 0.25293 0.786133 0.283936 0.744385 0.266113 0.858887 0.265381 0.786133 0.283936 0.861328 0.299072 0.786133 0.283936 0.861328 0.299072 0.772949 0.328857 0.000244 0.598145 0.065674 0.6604 0.004883 0.654297 0.004883 0.654297 0.030518 0.677979 0.011475 0.667969 0.640869 0.605225 0.633057 0.592041 0.679199 0.592285 0.679199 0.592285 0.633057 0.592041 0.634521 0.580811 0.622314 0.629395 0.662842 0.631348 0.656982 0.64209 0.622314 0.629395 0.656982 0.64209 0.641846 0.646729 0.614746 0.615723 0.602783 0.615479 0.601807 0.600586 0.622314 0.629395 0.641846 0.646729 0.619385 0.63623 0.600586 0.624023 0.622314 0.629395 0.619385 0.63623 0.619385 0.63623 0.641846 0.646729 0.608398 0.655273 0.563477 0.609619 0.601807 0.600586 0.602783 0.615479 0.563477 0.609619 0.602783 0.615479 0.569092 0.619629 0.5625 0.678955 0.608398 0.655273 0.601807 0.710693 0.566895 0.638428 0.5625 0.678955 0.540039 0.635986 0.539307 0.593018 0.512939 0.602051 0.515137 0.589111 0.539307 0.593018 0.515137 0.589111 0.533936 0.582275 0.601807 0.600586 0.56958 0.586426 0.603516 0.587646 0.553467 0.587891 0.539307 0.593018 0.542969 0.582031 0.591553 0.577881 0.603516 0.587646 0.56958 0.586426 0.603516 0.587646 0.591553 0.577881 0.634521 0.580811 0.634521 0.580811 0.591553 0.577881 0.617188 0.566406 0.617188 0.566406 0.591553 0.577881 0.578369 0.560547 0.583984 0.5354 0.530762 0.539795 0.538086 0.493652 0.605957 0.558594 0.578369 0.560547 0.617188 0.566406 0.793457 0.568848 0.792236 0.55835 0.812744 0.570068 0.812744 0.570068 0.792236 0.55835 0.820801 0.561523 0.814209 0.58667 0.812744 0.570068 0.826172 0.613037 0.812744 0.570068 0.841553 0.608887 0.826172 0.613037 0.835205 0.588379 0.820801 0.561523 0.84082 0.58252 0.824951 0.537842 0.811523 0.537598 0.80127 0.526367 0.835205 0.588379 0.84082 0.58252 0.859863 0.61377 0.876221 0.619385 0.868164 0.598145 0.881104 0.609863 0.879883 0.599609 0.868164 0.598145 0.867188 0.577881 0.879883 0.599609 0.867188 0.577881 0.883057 0.563232 0.840088 0.554443 0.8479 0.577637 0.82666 0.554443 0.883057 0.563232 0.867188 0.577881 0.867676 0.564941 0.883057 0.563232 0.867676 0.564941 0.884521 0.556396 0.832275 0.523438 0.824951 0.537842 0.823975 0.509033 0.849365 0.550293 0.832275 0.523438 0.838379 0.523926 0.86792 0.523926 0.835449 0.510498 0.860107 0.4729 0.923096 0.570068 0.923096 0.508789 0.957031 0.560791 0.818115 0.681641 0.842285 0.686768 0.794434 0.685059 0.872559 0.639648 0.842285 0.686768 0.843994 0.673096 0.872803 0.627197 0.866699 0.638428 0.848877 0.660889 0.243408 0.422607 0.262207 0.416992 0.249756 0.442871 0.254883 0.394775 0.226563 0.401611 0.238281 0.378662 0.28125 0.385254 0.229004 0.364258 0.237793 0.355469 0.287598 0.39917 0.238281 0.378662 0.28125 0.385254 0.278076 0.425781 0.301025 0.440186 0.256836 0.449951 0.316406 0.42749 0.287598 0.39917 0.335938 0.414551 0.335938 0.414551 0.287598 0.39917 0.28125 0.385254 0.256836 0.449951 0.301025 0.440186 0.323975 0.470215 0.352783 0.455811 0.327148 0.458496 0.325195 0.446289 0.366211 0.43042 0.361084 0.414063 0.397461 0.428955 0.326416 0.396973 0.335938 0.414551 0.28125 0.385254 0.289307 0.358643 0.247803 0.347412 0.303711 0.32666 0.289307 0.358643 0.303711 0.32666 0.305664 0.343262 0.289307 0.358643 0.305664 0.343262 0.30249 0.356689 0.305664 0.343262 0.303711 0.32666 0.312744 0.327148 0.333252 0.365967 0.391357 0.308594 0.387695 0.38916 0.378418 0.391602 0.331055 0.370605 0.333252 0.365967 0.378418 0.391602 0.333252 0.365967 0.387695 0.38916 0.337158 0.387939 0.378418 0.391602 0.380371 0.409668</float_array>
          <technique_common>
            <accessor source="#FeatherShield-mesh-map-0-array" count="1491" stride="2">
              <param name="S" type="float"/>
              <param name="T" type="float"/>
            </accessor>
          </technique_common>
        </source>
        <vertices id="FeatherShield-mesh-vertices">
          <input semantic="POSITION" source="#FeatherShield-mesh-positions"/>
        </vertices>
        <polylist material="Material_-1-material" count="6">
          <input semantic="VERTEX" source="#FeatherShield-mesh-vertices" offset="0"/>
          <input semantic="NORMAL" source="#FeatherShield-mesh-normals" offset="1"/>
          <input semantic="TEXCOORD" source="#FeatherShield-mesh-map-0" offset="2" set="0"/>
          <vcount>3 3 3 3 3 3 3 3 3 3 3 3 3 3 3 3 3 3 3 3 3 3 3 3 3 3 3 3 3 3 3 3 3 3 3 3 3 3 3 3 3 3 3 3 3 3 3 3 3 3 3 3 3 3 3 3 3 3 3 3 3 3 3 3 3 3 3 3 3 3 3 3 3 3 3 3 3 3 3 3 3 3 3 3 3 3 3 3 3 3 3 3 3 3 3 3 3 3 3 3 3 3 3 3 3 3 3 3 3 3 3 3 3 3 3 3 3 3 3 3 3 3 3 3 3 3 3 3 3 3 3 3 3 3 3 3 3 3 3 3 3 3 3 3 3 3 3 3 3 3 3 3 3 3 3 3 3 3 3 3 3 3 3 3 3 3 3 3 3 3 3 3 3 3 3 3 3 3 3 3 3 3 3 3 3 3 3 3 3 3 3 3 3 3 3 3 3 3 3 3 3 3 3 3 3 3 3 3 3 3 3 3 3 3 3 3 3 3 3 3 3 3 3 3 3 3 3 3 3 3 3 3 3 3 3 3 3 3 3 3 3 3 3 3 3 3 3 3 3 3 3 3 3 3 3 3 3 3 3 3 3 3 3 3 3 3 3 3 3 3 3 3 3 3 3 3 3 3 3 3 3 3 3 3 3 3 3 3 3 3 3 3 3 3 3 3 3 3 3 3 3 3 3 3 3 3 3 3 3 3 3 3 3 3 3 3 3 3 3 3 3 3 3 3 3 3 3 3 3 3 3 3 3 3 3 3 3 3 3 3 3 3 3 3 3 3 3 3 3 3 3 3 3 3 3 3 3 3 3 3 3 3 3 3 3 3 3 3 3 3 3 3 3 3 3 3 3 3 3 3 3 3 3 3 3 3 3 3 3 3 3 3 3 3 3 3 3 3 3 3 3 3 3 3 3 3 3 3 3 3 3 3 3 3 3 3 3 3 3 3 3 3 3 3 3 3 3 3 3 3 3 3 3 3 3 3 3 3 3 3 3 3 3 3 3 3 3 3 3 3 3 3 3 3 3 3 3 3 3 3 3 3 3 3 3 3 3 3 3 3 3 3 3 3 3 3 3 3 3 3 3 3 3 3 3 3 3 3 3 3 3 3 3 3 3 3 3</vcount>
          <p>0 0 0 1 0 1 2 0 2 2 1 3 1 1 4 3 1 5 4 2 6 2 2 7 3 2 8 1 3 9 5 3 10 3 3 11 3 4 12 5 4 13 6 4 14 3 5 15 6 5 16 4 5 17 7 6 18 2 6 19 4 6 20 2 7 21 7 7 22 0 7 23 7 8 24 4 8 25 8 8 26 7 9 27 8 9 28 9 9 29 7 10 30 9 10 31 10 10 32 10 11 33 0 11 34 7 11 35 0 12 36 10 12 37 11 12 38 10 13 39 9 13 40 12 13 41 12 14 42 13 14 43 10 14 44 10 15 45 13 15 46 14 15 47 10 16 48 14 16 49 11 16 50 14 17 51 15 17 52 11 17 53 11 18 54 15 18 55 16 18 56 11 19 57 16 19 58 17 19 59 18 20 60 1 20 61 11 20 62 11 21 63 1 21 64 0 21 65 18 22 66 11 22 67 17 22 68 18 23 69 17 23 70 19 23 71 5 24 72 1 24 73 18 24 74 18 25 75 20 25 76 5 25 77 5 26 78 20 26 79 6 26 80 6 27 81 20 27 82 21 27 83 18 28 84 22 28 85 20 28 86 22 29 87 18 29 88 19 29 89 20 30 90 22 30 91 21 30 92 21 31 93 23 31 94 24 31 95 21 32 96 24 32 97 25 32 98 21 33 99 25 33 100 26 33 101 21 34 102 26 34 103 6 34 104 26 35 105 25 35 106 27 35 107 6 36 108 26 36 109 4 36 110 26 37 111 27 37 112 28 37 113 4 38 114 26 38 115 29 38 116 29 39 117 26 39 118 28 39 119 4 40 120 29 40 121 30 40 122 4 41 123 30 41 124 8 41 125 17 42 126 16 42 127 31 42 128 31 43 129 32 43 130 33 43 131 17 44 132 31 44 133 19 44 134 19 45 135 31 45 136 33 45 137 19 46 138 33 46 139 34 46 140 19 47 141 34 47 142 22 47 143 34 48 144 35 48 145 22 48 146 22 49 147 35 49 148 36 49 149 36 50 150 35 50 151 37 50 152 22 51 153 36 51 154 21 51 155 21 52 156 36 52 157 38 52 158 21 53 159 38 53 160 23 53 161 38 54 162 36 54 163 39 54 164 36 55 165 37 55 166 39 55 167 29 56 168 28 56 169 30 56 170 30 57 171 28 57 172 40 57 173 8 58 174 30 58 175 41 58 176 41 59 177 30 59 178 40 59 179 8 60 180 41 60 181 42 60 182 40 61 183 28 61 184 43 61 185 43 62 186 28 62 187 27 62 188 27 63 189 25 63 190 44 63 191 44 64 192 25 64 193 45 64 194 45 65 195 25 65 196 24 65 197 38 66 198 24 66 199 23 66 200 45 67 201 24 67 202 46 67 203 46 68 204 24 68 205 38 68 206 45 69 207 46 69 208 47 69 209 46 70 210 39 70 211 48 70 212 46 71 213 38 71 214 39 71 215 9 72 216 8 72 217 42 72 218 9 73 219 42 73 220 49 73 221 9 74 222 49 74 223 50 74 224 51 75 225 9 75 226 50 75 227 51 76 228 12 76 229 9 76 230 12 77 231 51 77 232 13 77 233 52 78 234 51 78 235 50 78 236 13 79 237 51 79 238 52 79 239 13 80 240 52 80 241 53 80 242 14 81 243 13 81 244 54 81 245 14 82 246 54 82 247 15 82 248 54 83 249 55 83 250 15 83 251 32 84 252 31 84 253 56 84 254 56 85 255 31 85 256 16 85 257 56 86 258 16 86 259 15 86 260 57 87 261 34 87 262 33 87 263 57 88 264 33 88 265 58 88 266 59 89 267 58 89 268 60 89 269 61 90 270 58 90 271 33 90 272 60 91 273 58 91 274 61 91 275 61 92 276 33 92 277 32 92 278 60 93 279 61 93 280 56 93 281 56 94 282 61 94 283 32 94 284 15 95 285 55 95 286 56 95 287 60 96 288 56 96 289 62 96 290 62 97 291 56 97 292 55 97 293 55 98 294 54 98 295 63 98 296 62 99 297 55 99 298 64 99 299 54 100 300 65 100 301 63 100 302 65 101 303 54 101 304 13 101 305 65 102 306 13 102 307 66 102 308 66 103 309 13 103 310 67 103 311 68 104 312 65 104 313 69 104 314 69 105 315 65 105 316 66 105 317 70 106 318 69 106 319 66 106 320 71 107 321 66 107 322 67 107 323 72 108 324 48 108 325 39 108 326 48 109 327 47 109 328 46 109 329 47 110 330 73 110 331 45 110 332 45 111 333 73 111 334 44 111 335 72 112 336 39 112 337 37 112 338 44 113 339 74 113 340 27 113 341 27 114 342 74 114 343 43 114 344 43 115 345 74 115 346 75 115 347 74 116 348 44 116 349 76 116 350 74 117 351 76 117 352 75 117 353 76 118 354 44 118 355 77 118 356 53 119 357 67 119 358 13 119 359 41 120 360 40 120 361 78 120 362 78 121 363 40 121 364 43 121 365 79 122 366 78 122 367 43 122 368 43 123 369 75 123 370 80 123 371 79 124 372 43 124 373 80 124 374 80 125 375 75 125 376 81 125 377 82 126 378 79 126 379 80 126 380 80 127 381 81 127 382 82 127 383 42 128 384 79 128 385 82 128 386 79 129 387 42 129 388 78 129 389 82 130 390 83 130 391 49 130 392 82 131 393 49 131 394 42 131 395 83 132 396 84 132 397 50 132 398 83 133 399 50 133 400 49 133 401 78 134 402 42 134 403 41 134 404 52 135 405 50 135 406 84 135 407 63 136 408 64 136 409 55 136 410 58 137 411 59 137 412 57 137 413 59 138 414 85 138 415 57 138 416 63 139 417 65 139 418 68 139 419 68 140 420 86 140 421 71 140 422 68 141 423 69 141 424 86 141 425 86 142 426 69 142 427 70 142 428 86 143 429 70 143 430 71 143 431 71 144 432 70 144 433 66 144 434 87 145 435 71 145 436 67 145 437 34 146 438 88 146 439 35 146 440 88 147 441 34 147 442 89 147 443 34 148 444 57 148 445 89 148 446 70 149 447 90 149 448 69 149 449 90 150 450 70 150 451 91 150 452 90 151 453 91 151 454 92 151 455 70 152 456 90 152 457 69 152 458 35 153 459 88 153 460 93 153 461 93 154 462 94 154 463 95 154 464 85 155 465 89 155 466 57 155 467 85 156 468 59 156 469 96 156 470 96 157 471 59 157 472 60 157 473 96 158 474 60 158 475 97 158 476 97 159 477 60 159 478 62 159 479 97 160 480 62 160 481 64 160 482 37 161 483 35 161 484 93 161 485 73 162 486 77 162 487 44 162 488 73 163 489 47 163 490 98 163 491 73 164 492 98 164 493 77 164 494 98 165 495 47 165 496 48 165 497 77 166 498 98 166 499 99 166 500 100 167 501 99 167 502 98 167 503 100 168 504 98 168 505 95 168 506 95 169 507 98 169 508 48 169 509 100 170 510 95 170 511 101 170 512 102 171 513 101 171 514 95 171 515 102 172 516 95 172 517 94 172 518 95 173 519 48 173 520 72 173 521 95 174 522 72 174 523 93 174 524 90 175 525 70 175 526 92 175 527 92 176 528 70 176 529 103 176 530 103 177 531 70 177 532 91 177 533 92 178 534 91 178 535 104 178 536 72 179 537 37 179 538 93 179 539 87 180 540 68 180 541 71 180 542 96 181 543 105 181 544 85 181 545 85 182 546 105 182 547 106 182 548 107 183 549 106 183 550 105 183 551 107 184 552 105 184 553 108 184 554 105 185 555 96 185 556 97 185 557 105 186 558 97 186 559 108 186 560 108 187 561 97 187 562 109 187 563 97 188 564 64 188 565 109 188 566 109 189 567 64 189 568 110 189 569 110 190 570 64 190 571 63 190 572 110 191 573 63 191 574 111 191 575 109 192 576 110 192 577 112 192 578 109 193 579 112 193 580 113 193 581 108 194 582 109 194 583 113 194 584 63 195 585 68 195 586 114 195 587 63 196 588 114 196 589 111 196 590 111 197 591 114 197 592 115 197 593 111 198 594 115 198 595 110 198 596 110 199 597 115 199 598 116 199 599 110 200 600 116 200 601 112 200 602 85 201 603 106 201 604 89 201 605 89 202 606 106 202 607 88 202 608 88 203 609 106 203 610 117 203 611 118 204 612 87 204 613 67 204 614 118 205 615 67 205 616 53 205 617 87 206 618 118 206 619 119 206 620 120 207 621 94 207 622 117 207 623 117 208 624 94 208 625 93 208 626 117 209 627 93 209 628 88 209 629 94 210 630 120 210 631 102 210 632 102 211 633 120 211 634 121 211 635 121 212 636 120 212 637 122 212 638 120 213 639 117 213 640 123 213 641 120 214 642 123 214 643 122 214 644 123 215 645 117 215 646 124 215 647 123 216 648 124 216 649 125 216 650 122 217 651 123 217 652 126 217 653 101 218 654 102 218 655 121 218 656 101 219 657 121 219 658 127 219 659 127 220 660 121 220 661 122 220 662 100 221 663 101 221 664 127 221 665 127 222 666 122 222 667 128 222 668 99 223 669 100 223 670 129 223 671 127 224 672 129 224 673 100 224 674 127 225 675 128 225 676 130 225 677 129 226 678 127 226 679 131 226 680 131 227 681 127 227 682 130 227 683 132 228 684 133 228 685 130 228 686 130 229 687 133 229 688 131 229 689 131 230 690 133 230 691 129 230 692 133 231 693 134 231 694 135 231 695 129 232 696 133 232 697 135 232 698 129 233 699 135 233 700 99 233 701 135 234 702 136 234 703 137 234 704 99 235 705 135 235 706 138 235 707 138 236 708 135 236 709 137 236 710 99 237 711 138 237 712 77 237 713 75 238 714 76 238 715 137 238 716 75 239 717 137 239 718 139 239 719 52 240 720 84 240 721 140 240 722 52 241 723 140 241 724 53 241 725 81 242 726 75 242 727 139 242 728 81 243 729 139 243 730 141 243 731 81 244 732 141 244 733 82 244 734 82 245 735 141 245 736 83 245 737 142 246 738 84 246 739 83 246 740 143 247 741 144 247 742 145 247 743 143 248 744 145 248 745 146 248 746 143 249 747 146 249 748 147 249 749 148 250 750 145 250 751 144 250 752 145 251 753 148 251 754 149 251 755 144 252 756 143 252 757 147 252 758 149 253 759 148 253 760 150 253 761 149 254 762 151 254 763 152 254 764 149 255 765 152 255 766 145 255 767 145 256 768 152 256 769 146 256 770 146 257 771 152 257 772 153 257 773 146 258 774 153 258 775 147 258 776 147 259 777 154 259 778 144 259 779 144 260 780 154 260 781 155 260 782 144 261 783 155 261 784 156 261 785 156 262 786 155 262 787 118 262 788 155 263 789 118 263 790 140 263 791 155 264 792 140 264 793 150 264 794 150 265 795 155 265 796 157 265 797 150 266 798 157 266 799 149 266 800 157 267 801 155 267 802 154 267 803 148 268 804 144 268 805 156 268 806 148 269 807 156 269 808 158 269 809 148 270 810 158 270 811 150 270 812 158 271 813 156 271 814 118 271 815 118 272 816 158 272 817 53 272 818 158 273 819 53 273 820 140 273 821 150 274 822 158 274 823 140 274 824 153 275 825 152 275 826 159 275 827 159 276 828 152 276 829 151 276 830 153 277 831 160 277 832 147 277 833 147 278 834 160 278 835 161 278 836 147 279 837 161 279 838 154 279 839 154 280 840 161 280 841 162 280 842 157 281 843 154 281 844 162 281 845 157 282 846 162 282 847 151 282 848 157 283 849 151 283 850 149 283 851 163 284 852 142 284 853 83 284 854 163 285 855 83 285 856 141 285 857 163 286 858 164 286 859 142 286 860 164 287 861 136 287 862 165 287 863 166 288 864 164 288 865 163 288 866 166 289 867 163 289 868 141 289 869 164 290 870 166 290 871 136 290 872 166 291 873 141 291 874 139 291 875 166 292 876 139 292 877 137 292 878 136 293 879 166 293 880 137 293 881 84 294 882 142 294 883 167 294 884 167 295 885 119 295 886 118 295 887 167 296 888 118 296 889 140 296 890 167 297 891 140 297 892 84 297 893 138 298 894 137 298 895 76 298 896 138 299 897 76 299 898 77 299 899 168 300 900 92 300 901 104 300 902 168 301 903 92 301 904 103 301 905 103 302 906 168 302 907 169 302 908 168 303 909 104 303 910 170 303 911 169 304 912 168 304 913 171 304 914 171 305 915 168 305 916 170 305 917 172 306 918 104 306 919 91 306 920 172 307 921 91 307 922 103 307 923 172 308 924 103 308 925 169 308 926 104 309 927 172 309 928 170 309 929 107 310 930 108 310 931 173 310 932 173 311 933 108 311 934 113 311 935 169 312 936 174 312 937 171 312 938 169 313 939 174 313 940 170 313 941 169 314 942 170 314 943 172 314 944 107 315 945 173 315 946 175 315 947 106 316 948 107 316 949 175 316 950 106 317 951 175 317 952 117 317 953 175 318 954 117 318 955 176 318 956 117 319 957 176 319 958 124 319 959 176 320 960 177 320 961 124 320 962 176 321 963 175 321 964 178 321 965 68 322 966 87 322 967 114 322 968 114 323 969 87 323 970 179 323 971 126 324 972 123 324 973 125 324 974 128 325 975 126 325 976 180 325 977 128 326 978 122 326 979 126 326 980 175 327 981 173 327 982 178 327 983 173 328 984 113 328 985 181 328 986 173 329 987 181 329 988 178 329 989 178 330 990 181 330 991 182 330 992 181 331 993 113 331 994 112 331 995 183 332 996 181 332 997 112 332 998 181 333 999 183 333 1000 182 333 1001 183 334 1002 112 334 1003 184 334 1004 184 335 1005 112 335 1006 116 335 1007 176 336 1008 178 336 1009 185 336 1010 177 337 1011 176 337 1012 185 337 1013 114 338 1014 186 338 1015 115 338 1016 115 339 1017 186 339 1018 116 339 1019 186 340 1020 114 340 1021 187 340 1022 187 341 1023 188 341 1024 179 341 1025 188 342 1026 187 342 1027 114 342 1028 188 343 1029 114 343 1030 174 343 1031 171 344 1032 174 344 1033 188 344 1034 174 345 1035 188 345 1036 171 345 1037 188 346 1038 174 346 1039 179 346 1040 174 347 1041 171 347 1042 170 347 1043 179 348 1044 174 348 1045 114 348 1046 124 349 1047 177 349 1048 125 349 1049 128 350 1050 180 350 1051 130 350 1052 130 351 1053 180 351 1054 132 351 1055 133 352 1056 132 352 1057 189 352 1058 133 353 1059 189 353 1060 190 353 1061 190 354 1062 189 354 1063 191 354 1064 160 355 1065 192 355 1066 161 355 1067 161 356 1068 192 356 1069 193 356 1070 161 357 1071 193 357 1072 162 357 1073 162 358 1074 193 358 1075 194 358 1076 162 359 1077 194 359 1078 151 359 1079 195 360 1080 193 360 1081 119 360 1082 193 361 1083 195 361 1084 194 361 1085 194 362 1086 196 362 1087 151 362 1088 153 363 1089 159 363 1090 160 363 1091 160 364 1092 159 364 1093 192 364 1094 192 365 1095 159 365 1096 196 365 1097 192 366 1098 196 366 1099 197 366 1100 196 367 1101 159 367 1102 151 367 1103 198 368 1104 199 368 1105 200 368 1106 164 369 1107 201 369 1108 142 369 1109 201 370 1110 164 370 1111 202 370 1112 190 371 1113 203 371 1114 134 371 1115 190 372 1116 134 372 1117 133 372 1118 135 373 1119 203 373 1120 134 373 1121 135 374 1122 203 374 1123 136 374 1124 167 375 1125 119 375 1126 195 375 1127 136 376 1128 203 376 1129 165 376 1130 164 377 1131 165 377 1132 202 377 1133 197 378 1134 196 378 1135 194 378 1136 193 379 1137 192 379 1138 119 379 1139 119 380 1140 192 380 1141 204 380 1142 192 381 1143 197 381 1144 205 381 1145 197 382 1146 205 382 1147 194 382 1148 192 383 1149 205 383 1150 204 383 1151 194 384 1152 205 384 1153 195 384 1154 206 385 1155 204 385 1156 205 385 1157 204 386 1158 207 386 1159 87 386 1160 204 387 1161 87 387 1162 119 387 1163 208 388 1164 202 388 1165 165 388 1166 165 389 1167 203 389 1168 190 389 1169 165 390 1170 190 390 1171 191 390 1172 165 391 1173 191 391 1174 208 391 1175 191 392 1176 209 392 1177 210 392 1178 191 393 1179 210 393 1180 208 393 1181 210 394 1182 209 394 1183 211 394 1184 208 395 1185 210 395 1186 202 395 1187 210 396 1188 211 396 1189 212 396 1190 210 397 1191 212 397 1192 202 397 1193 202 398 1194 212 398 1195 201 398 1196 201 399 1197 212 399 1198 213 399 1199 201 400 1200 213 400 1201 214 400 1202 214 401 1203 206 401 1204 205 401 1205 214 402 1206 205 402 1207 167 402 1208 167 403 1209 205 403 1210 195 403 1211 142 404 1212 201 404 1213 214 404 1214 142 405 1215 214 405 1216 167 405 1217 116 406 1218 215 406 1219 184 406 1220 215 407 1221 116 407 1222 186 407 1223 215 408 1224 186 408 1225 216 408 1226 215 409 1227 217 409 1228 184 409 1229 215 410 1230 216 410 1231 218 410 1232 184 411 1233 217 411 1234 219 411 1235 220 412 1236 217 412 1237 221 412 1238 217 413 1239 220 413 1240 219 413 1241 222 414 1242 220 414 1243 223 414 1244 185 415 1245 222 415 1246 223 415 1247 222 416 1248 185 416 1249 224 416 1250 224 417 1251 185 417 1252 225 417 1253 225 418 1254 185 418 1255 178 418 1256 225 419 1257 178 419 1258 182 419 1259 225 420 1260 182 420 1261 226 420 1262 226 421 1263 182 421 1264 183 421 1265 225 422 1266 226 422 1267 227 422 1268 225 423 1269 227 423 1270 224 423 1271 226 424 1272 183 424 1273 184 424 1274 224 425 1275 227 425 1276 219 425 1277 219 426 1278 227 426 1279 226 426 1280 224 427 1281 219 427 1282 222 427 1283 222 428 1284 219 428 1285 220 428 1286 226 429 1287 184 429 1288 219 429 1289 187 430 1290 216 430 1291 186 430 1292 216 431 1293 187 431 1294 218 431 1295 179 432 1296 187 432 1297 87 432 1298 187 433 1299 87 433 1300 207 433 1301 177 434 1302 180 434 1303 125 434 1304 125 435 1305 180 435 1306 126 435 1307 211 436 1308 228 436 1309 212 436 1310 212 437 1311 228 437 1312 213 437 1313 229 438 1314 209 438 1315 191 438 1316 229 439 1317 191 439 1318 189 439 1319 209 440 1320 229 440 1321 211 440 1322 229 441 1323 189 441 1324 230 441 1325 231 442 1326 229 442 1327 230 442 1328 230 443 1329 189 443 1330 132 443 1331 232 444 1332 211 444 1333 229 444 1334 232 445 1335 229 445 1336 231 445 1337 233 446 1338 132 446 1339 180 446 1340 132 447 1341 233 447 1342 230 447 1343 231 448 1344 234 448 1345 235 448 1346 231 449 1347 235 449 1348 236 449 1349 211 450 1350 232 450 1351 228 450 1352 232 451 1353 231 451 1354 236 451 1355 236 452 1356 228 452 1357 232 452 1358 228 453 1359 236 453 1360 213 453 1361 213 454 1362 236 454 1363 214 454 1364 214 455 1365 236 455 1366 237 455 1367 204 456 1368 206 456 1369 207 456 1370 206 457 1371 237 457 1372 214 457 1373 223 458 1374 220 458 1375 238 458 1376 238 459 1377 220 459 1378 221 459 1379 223 460 1380 238 460 1381 239 460 1382 238 461 1383 240 461 1384 239 461 1385 238 462 1386 221 462 1387 241 462 1388 242 463 1389 221 463 1390 217 463 1391 238 464 1392 241 464 1393 240 464 1394 240 465 1395 241 465 1396 243 465 1397 243 466 1398 241 466 1399 242 466 1400 243 467 1401 242 467 1402 244 467 1403 242 468 1404 241 468 1405 221 468 1406 244 469 1407 242 469 1408 218 469 1409 244 470 1410 218 470 1411 207 470 1412 215 471 1413 242 471 1414 217 471 1415 242 472 1416 215 472 1417 218 472 1418 207 473 1419 218 473 1420 187 473 1421 233 474 1422 180 474 1423 177 474 1424 223 475 1425 177 475 1426 185 475 1427 233 476 1428 177 476 1429 223 476 1430 239 477 1431 233 477 1432 223 477 1433 239 478 1434 245 478 1435 233 478 1436 245 479 1437 239 479 1438 240 479 1439 246 480 1440 240 480 1441 243 480 1442 245 481 1443 240 481 1444 246 481 1445 245 482 1446 234 482 1447 233 482 1448 234 483 1449 245 483 1450 235 483 1451 235 484 1452 245 484 1453 246 484 1454 233 485 1455 234 485 1456 230 485 1457 231 486 1458 230 486 1459 234 486 1460 235 487 1461 247 487 1462 236 487 1463 247 488 1464 235 488 1465 246 488 1466 246 489 1467 243 489 1468 244 489 1469 246 490 1470 244 490 1471 248 490 1472 246 491 1473 248 491 1474 247 491 1475 248 492 1476 244 492 1477 207 492 1478 248 493 1479 207 493 1480 206 493 1481 237 494 1482 247 494 1483 248 494 1484 237 495 1485 248 495 1486 206 495 1487 247 496 1488 237 496 1489 236 496 1490</p>
        </polylist>
      </mesh>
    </geometry>
  </library_geometries>
  <library_visual_scenes>
    <visual_scene id="Scene" name="Scene">
      <node id="FeatherShield" name="FeatherShield" type="NODE">
        <scale sid="scale">1 1 1</scale>
        <translate sid="location">0 0 0</translate>
        <rotate sid="rotationX">1 0 0 0</rotate>
        <rotate sid="rotationY">0 1 0 90</rotate>
        <rotate sid="rotationZ">0 0 1 0</rotate>
        <instance_geometry url="#FeatherShield-mesh" name="FeatherShield">
          <bind_material>
            <technique_common>
            </technique_common>
          </bind_material>
        </instance_geometry>
      </node>
    </visual_scene>
  </library_visual_scenes>
  <scene>
    <instance_visual_scene url="#Scene"/>
  </scene>
</COLLADA>
