<?xml version="1.0" encoding="utf-8"?>
<COLLADA xmlns="http://www.collada.org/2005/11/COLLADASchema" version="1.4.1" xmlns:xsi="http://www.w3.org/2001/XMLSchema-instance">
  <asset>
    <contributor>
      <author>Blockbench user</author>
      <authoring_tool>Blockbench</authoring_tool>
    </contributor>
    <created>2026-02-20T14:32:09.692Z</created>
    <modified>2026-02-20T14:32:09.692Z</modified>
    <unit name="meter" meter="1.0"/>
    <up_axis>Y_UP</up_axis>
  </asset>
  <library_effects>
  </library_effects>
  <library_images>
  </library_images>
  <library_materials>
  </library_materials>
  <library_geometries>
    <geometry id="FightersFoot-mesh" name="FightersFoot">
      <mesh>
        <source id="FightersFoot-mesh-positions">
          <float_array id="FightersFoot-mesh-positions-array" count="756">-0.118332 -0.204651 -0.343109 -0.284271 -0.190964 -0.317078 -0.226303 -0.133301 -0.379547 -0.117493 0.023085 -0.378754 -0.262848 0.020094 -0.36557 -0.348541 0.056881 -0.185287 -0.282837 -0.243225 -0.256134 -0.348267 -0.191574 -0.184509 -0.260345 -0.20488 -0.100212 -0.36554 -0.066055 -0.138779 -0.321503 -0.122353 -0.095932 -0.297516 -0.021219 -0.085373 -0.214828 0.06945 -0.103249 -0.246124 -0.051861 -0.052647 -0.203461 -0.00132 -0.062614 -0.121719 -0.252502 -0.260956 -0.188568 -0.242569 -0.120094 -0.113457 -0.218582 -0.374512 -0.112343 -0.075951 -0.409698 -0.108772 -0.262085 -0.269623 -0.116982 -0.243881 -0.120674 -0.075554 -0.224014 -0.342224 -0.065247 -0.103485 -0.398254 -0.092926 -0.262543 -0.159531 -0.028931 -0.181046 -0.377502 -0.066391 -0.269989 -0.293884 -0.063576 -0.247162 -0.121056 -0.023237 -0.259583 -0.269531 -0.009272 -0.202972 -0.364288 -0.031727 -0.254181 -0.118935 -0.218704 0.012091 -0.382172 -0.136017 0.071968 -0.340363 -0.250031 0.122528 -0.288025 -0.137192 0.107681 -0.222076 0.027363 -0.256714 -0.280884 0.029573 -0.2612 -0.145569 0.024006 -0.192459 -0.374664 0.066574 -0.248215 -0.315796 0.064117 -0.169739 -0.381775 0.059925 -0.252014 -0.119232 0.100136 -0.20787 -0.360199 0.110931 -0.260071 -0.179245 -0.096992 0.010682 -0.39212 -0.117691 0.041725 -0.447174 -0.061691 0.020565 -0.388947 -0.10524 0.118279 -0.503906 -0.12307 0.085083 -0.449463 -0.135727 0.222092 -0.418732 -0.117149 0.222046 -0.458862 -0.081581 0.107414 -0.328857 -0.092087 0.21843 -0.450531 -0.031155 0.073685 -0.363922 -0.026329 0.146286 -0.265991 0.023657 0.107162 -0.345215 -0.026186 -0.028122 -0.40094 0.026506 -0.030005 -0.401184 -0.262146 -0.294373 0.003341 -0.264862 -0.244781 0.096451 -0.245453 -0.122498 -0.05592 -0.28064 -0.238388 0.172379 -0.285431 -0.168137 0.212402 -0.182693 -0.302612 -0.000507 -0.220016 -0.367523 0.057148 -0.113617 -0.364136 0.045109 -0.067192 -0.308197 -0.003215 0.00439 -0.311676 0.004352 0.016088 -0.2659 -0.098885 0.032894 0.159653 -0.248566 0.064468 0.094757 -0.352478 0.084961 0.156067 -0.235703 -0.028667 0.191803 -0.246902 0.101639 0.175446 -0.22464 0.03635 0.220749 -0.23732 0.17659 0.199966 -0.183289 0.145508 0.294159 -0.205307 0.024595 0.295532 -0.239685 -0.027653 0.312347 -0.231644 0.023943 0.325928 -0.218735 -0.026703 0.327271 -0.215546 0.144913 0.318542 -0.185944 0.032299 0.320068 -0.199387 -0.110603 0.330566 -0.479645 -0.093925 0.38623 -0.439392 -0.087608 0.343811 -0.406494 -0.126236 0.36853 -0.422455 -0.092918 0.389496 -0.368591 -0.129776 0.236328 -0.278809 -0.112206 0.149246 -0.218277 -0.118256 0.315948 -0.272339 -0.098961 0.27887 -0.257935 -0.086456 0.153091 -0.233902 -0.209427 0.124397 -0.21196 -0.182892 0.125458 -0.137253 -0.154572 0.20636 -0.20137 -0.180176 0.122688 -0.041729 -0.211411 0.182144 -0.126389 -0.182922 0.287384 -0.18129 -0.216446 0.285858 -0.068314 -0.17717 0.318604 -0.161041 -0.200424 0.208786 -0.040417 -0.147156 0.207428 0.019075 -0.124794 0.153976 0.024702 -0.213959 0.074814 0.046764 -0.105553 0.291962 -0.21843 -0.163361 0.318787 0.019196 -0.029213 0.317719 -0.147491 0.027325 0.324677 -0.069496 -0.03384 0.329346 0.044098 0.035458 0.328613 0.043179 0.030334 0.302002 0.056087 -0.053963 0.240677 0.048576 -0.033325 0.209 0.067253 0.020332 0.211868 0.067223 -0.067085 0.187073 0.066971 0.118332 -0.182968 -0.357269 0.115372 -0.08725 -0.419037 0.105103 -0.039112 -0.402679 0.118172 -0.029652 -0.384491 0.110268 -0.273834 -0.269409 0.233063 -0.186752 -0.360046 0.241486 -0.090401 -0.380188 0.11853 -0.238083 -0.297455 0.20105 -0.256348 -0.193069 0.303589 -0.229187 -0.275482 0.065842 -0.036495 -0.401306 0.086746 0.078476 -0.359222 0.262573 0.037853 -0.361786 0.339294 0.070419 -0.2043 0.340912 -0.208435 -0.197037 0.254669 -0.221558 -0.120293 0.3638 -0.106483 -0.144455 0.26297 -0.179672 -0.078262 0.346893 0.003935 -0.134048 0.303955 -0.100853 -0.077881 0.257812 0.082771 -0.129242 0.203018 -0.011392 -0.061768 0.104271 0.013032 -0.418304 0.087898 0.145523 -0.462067 0.100426 0.099266 -0.494476 0.09684 0.223282 -0.459381 0.121529 0.060791 -0.351593 0.128952 0.107391 -0.471069 0.117653 0.225204 -0.460541 0.13736 0.104965 -0.308411 0.175323 0.114616 -0.28186 0.264374 0.119453 -0.28653 0.080704 -0.313995 0.003097 0.113045 -0.243469 -0.12178 0.187683 -0.238907 -0.119774 0.20166 -0.298981 -0.003991 0.261597 -0.282166 -0.016268 0.268768 -0.256744 0.095688 0.243713 -0.127472 -0.057774 0.284637 -0.227524 0.19313 0.276764 -0.136673 0.144196 0.236649 0.031769 0.024637 0.188904 0.109474 0.045231 0.15274 0.131897 0.00191 0.193817 0.105728 -0.121468 0.212479 0.19136 -0.102432 0.206955 0.285065 -0.13327 0.085869 0.191086 -0.297852 0.106354 0.289185 -0.254578 0.094162 0.396942 -0.374634 0.12709 0.264709 -0.289398 0.118332 0.394379 -0.39621 0.141754 0.108116 -0.213608 0.132095 0.339539 -0.432648 0.113632 0.286224 -0.478363 0.087814 0.349457 -0.44696 0.117996 0.375946 -0.451996 0.036697 0.321472 0.000898 0.130783 0.316895 0.01521 0.210342 0.314545 -0.043304 0.152176 0.280609 0.028131 0.180161 0.208908 -0.004376 0.065178 0.238586 0.053997 0.057194 0.190338 0.094841 0.073921 0.178528 0.049458 0.064949 0.174881 0.091492 0.141922 0.15007 0.047916 -0.272095 -0.35434 0.070587 -0.251862 -0.372437 0.151855 -0.227448 -0.392242 0.19165 -0.2267 -0.324707 0.333954 -0.316254 -0.2948 0.317169 -0.301422 -0.251953 0.193893 -0.273926 -0.323944 0.29776 -0.209839 -0.361176 0.235443 -0.217697 -0.250885 0.409271 -0.110023 -0.323425 0.339905 -0.116127 -0.38446 0.164429 -0.022532 -0.356598 0.284149 -0.106987 -0.1978 0.464905 -0.029922 -0.282166 0.399872 0.017859 -0.263794 0.421814 -0.289917 -0.230789 0.398376 -0.205994 -0.157166 0.461304 -0.212372 -0.084267 0.395203 -0.27002 -0.143814 0.316559 -0.252197 -0.054886 0.260925 -0.193253 -0.016644 0.335236 -0.009398 -0.362549 0.042206 -0.021072 -0.386047 0.154404 0.027361 -0.37796 0.101997 0.031807 -0.379883 0.21254 0.024025 -0.329956 0.333374 -0.079453 -0.122192 0.487183 -0.075012 -0.043877 0.41748 -0.068504 0.075867 0.284424 -0.069084 -0.005471 0.422119 -0.071396 -0.184143 0.477875 -0.047012 -0.046352 0.459503 -0.039516 0.05991 0.321228 -0.027256 -0.163361 0.488861 -0.019484 -0.07132 0.483398 0.034557 -0.133774 0.490417 0.000192 0.022032 0.377625 0.030249 0.011456 0.391174 0.114601 -0.358673 0.269592 0.110802 -0.246033 0.428741 0.168503 -0.300415 0.349731 0.223068 -0.378387 0.203232 0.089447 -0.160645 0.48288 0.221909 -0.265533 0.400848 0.27298 -0.356171 0.22879 0.284485 -0.213272 0.410797 0.051086 -0.064026 0.476288 0.065445 -0.001671 0.39856 0.07444 -0.045551 0.420593 0.183899 -0.099922 0.442841 0.204605 -0.084236 0.381836 0.289093 -0.156693 0.332794 0.263336 -0.139786 0.32663 0.30481 -0.251251 0.206573 0.306274 -0.283966 0.338776 0.305389 -0.345428 0.197906 0.118164 -0.363342 0.043789 0.115265 -0.383606 0.154907 0.220261 -0.363007 0.044983 0.267029 -0.351868 0.065224 0.249527 -0.048588 0.263062 0.165619 0.074013 0.22084 0.174973 0.004874 0.322632 0.065285 0.10598 0.231491 0.058529 0.114708 0.256134 -0.17099 0.088326 0.191467 -0.055569 0.146805 0.205261 -0.025133 0.153336 0.184204 -0.007521 0.109352 0.268616 0.034363 0.08419 0.29425 0.025951 0.155289 0.173233</float_array>
          <technique_common>
            <accessor source="#FightersFoot-mesh-positions-array" count="252" stride="3">
              <param name="X" type="float"/>
              <param name="Y" type="float"/>
              <param name="Z" type="float"/>
            </accessor>
          </technique_common>
        </source>
        <source id="FightersFoot-mesh-normals">
          <float_array id="FightersFoot-mesh-normals-array" count="1500">-0.170313 -0.640258 -0.749042 0.22474 -0.151489 -0.962571 -0.683399 -0.096882 -0.723588 -0.903669 -0.006652 -0.428179 -0.162354 -0.750926 -0.640118 -0.900552 -0.002354 -0.434741 -0.793551 -0.471025 -0.385244 -0.39427 -0.877603 0.272698 -0.937402 -0.002124 -0.348242 -0.831032 -0.287778 0.475993 -0.645452 0.073715 0.760235 -0.708271 0.333351 0.622277 -0.470076 0.562755 0.679953 -0.287672 0.430974 0.855281 -0.316548 0.433586 0.843683 -0.064674 -0.861135 -0.504245 -0.056125 -0.997467 0.043702 -0.988419 -0.109827 -0.104721 -0.989557 -0.027192 -0.141556 -0.679703 -0.687773 -0.254896 -0.56296 -0.823547 0.069621 0.620221 -0.192443 -0.760455 0.197009 -0.902455 -0.383095 -0.024874 -0.419665 -0.907338 0.651099 -0.752788 -0.096847 -0.31065 -0.378716 -0.871821 -0.920994 -0.354174 -0.162269 0.335167 -0.93474 0.118001 0.27506 -0.770539 -0.574988 0.502508 -0.576913 -0.643939 -0.470864 -0.72506 -0.502569 0.20911 -0.97677 0.046826 -0.351779 0.001485 -0.936082 0.035906 -0.019916 -0.999157 -0.039255 0.607933 -0.793018 -0.180576 0.60792 -0.773192 -0.071253 0.635319 -0.768956 -0.77155 0.442526 -0.457035 0.281559 0.91936 -0.274775 -0.068153 -0.852013 -0.519065 0.048994 -0.998224 -0.033894 0.083016 -0.820704 -0.565291 -0.301681 -0.791505 -0.531514 0.220301 -0.62367 -0.750002 0.201503 -0.979413 -0.012113 -0.22353 -0.631338 -0.742595 -0.184886 -0.982436 -0.025242 0.584996 -0.769299 -0.256823 -0.992915 -0.014795 -0.117898 -0.417421 0.251162 -0.873314 -0.602094 -0.770789 -0.208247 0.034131 0.192922 -0.98062 0.270967 0.064291 -0.960439 0.671151 -0.508744 -0.539199 -0.99171 -0.124673 -0.031095 -0.914838 -0.133613 -0.381077 -0.957524 -0.250005 -0.143684 -0.990114 -0.063403 -0.125119 -0.953789 0.020662 -0.299766 0.988176 -0.067351 -0.137739 -0.080806 0.554536 -0.828227 0.988918 -0.056766 -0.137182 -0.226451 0.518594 -0.824488 0.117876 0.794935 -0.595133 -0.282776 0.777151 -0.562205 0.107963 0.344373 -0.932604 0.159476 0.344213 -0.925249 -0.219763 0.07925 -0.972329 0.226202 -0.151536 -0.962221 -0.009984 -0.151314 -0.988435 0.321239 -0.260652 -0.910421 -0.250041 -0.152247 -0.956191 -0.084162 -0.15928 -0.983639 -0.387064 -0.880878 0.272464 -0.500012 -0.650911 -0.571229 -0.99966 -0.008429 -0.024671 -0.985104 0.171529 0.012175 -0.976695 -0.088581 -0.195501 -0.98934 0.015049 -0.144845 -0.989016 -0.002547 -0.147789 -0.113676 -0.890115 -0.44133 -0.102421 -0.627024 -0.772238 -0.020011 -0.893895 -0.447829 -0.017788 -0.997922 0.061928 -0.321143 -0.769675 -0.551786 0.334642 -0.759555 -0.557755 -0.53454 -0.841946 0.073436 -0.053166 -0.9126 0.405383 -0.057711 -0.885759 -0.460544 -0.162169 -0.874168 -0.457746 -0.221685 -0.966247 0.131232 0.000652 -0.906219 -0.422807 -0.051437 -0.91078 -0.409675 -0.636838 -0.502276 0.584941 -0.434136 -0.36445 0.823834 -0.465513 0.018026 0.884857 -0.555052 -0.043762 0.830664 -0.100838 -0.994451 0.029987 -0.059649 0.879576 -0.472005 0.174916 0.858105 -0.482762 0.178107 0.858023 -0.481741 0.178363 0.388324 -0.904097 0.248085 0.31037 -0.917673 0.292231 0.157114 -0.943354 0.065909 0.177029 -0.981996 0.381413 0.305479 -0.872472 0.344007 -0.104605 -0.933122 0.149203 -0.007817 -0.988776 0.273592 0.01259 -0.961764 -0.111257 0.125716 -0.985808 0.233281 0.555229 -0.798312 0.056182 0.567419 -0.82151 -0.023291 0.733828 -0.678936 0.242231 0.60698 -0.756901 -0.022738 0.954052 0.298777 0.340478 0.407007 -0.847597 0.28358 -0.196846 -0.938528 0.903355 0.038253 -0.427184 0.986609 0.021539 -0.161674 -0.604168 0.577826 -0.548724 0.991053 0.131935 -0.020182 -0.493454 0.869143 -0.033075 -0.907419 0.010399 -0.420098 -0.907184 -0.025703 -0.419947 -0.953447 0.054253 -0.296641 -0.999955 -0.002811 -0.009084 -0.996727 0.072882 0.034976 -0.99721 0.06554 0.035744 -0.659384 0.334854 0.673117 -0.985893 0.134557 0.099541 -0.908758 0.098532 0.405525 -0.769787 0.588543 0.247073 -0.125283 0.301939 0.945059 0.612275 0.542178 0.575468 0.483992 0.210416 0.849398 0.973732 0.132228 0.185368 0.995989 0.063272 0.06327 0.999159 -0.024026 -0.033219 0.995147 0.09833 0.00379 -0.398749 0.896989 0.190815 0.205637 0.969467 -0.133591 -0.332627 0.848207 0.412193 0.260602 0.856364 0.445789 -0.848944 0.183085 -0.495755 -0.725669 0.481173 -0.491811 -0.673596 -0.299659 -0.675628 -0.85759 0.512834 0.039255 -0.732249 -0.246744 -0.634767 -0.8923 -0.451275 0.012284 -0.773142 -0.11599 -0.623537 -0.900964 0.097987 0.422685 -0.95314 0.111258 -0.281328 -0.90368 0.337461 -0.263596 -0.97544 -0.141756 0.168588 -0.954585 -0.227426 0.192471 -0.734532 -0.182701 0.653516 -0.696127 -0.219264 0.683615 -0.776653 0.039956 0.62866 -0.646662 0.595547 -0.476605 -0.502057 -0.118833 -0.856632 -0.131457 0.890684 -0.435202 -0.414131 0.333852 -0.846781 -0.318897 0.162478 -0.933759 -0.339371 0.006875 -0.940627 -0.197573 0.124735 -0.97232 -0.435064 0.070237 -0.897656 -0.294277 0.709466 -0.640359 -0.38745 0.55084 -0.739227 -0.282505 0.685669 -0.670856 0.006117 0.99998 -0.001484 -0.006783 0.990305 0.138746 -0.577325 0.81536 0.043404 -0.85642 0.00881 0.516204 -0.741822 -0.108669 0.661733 -0.286358 0.95022 0.122809 0.026996 0.999605 0.007767 0.584103 0.811654 -0.006433 -0.037981 0.997388 -0.061446 -0.069231 0.995666 -0.062096 0.010098 0.999314 -0.035637 0.016535 0.433791 0.900862 -0.195331 0.093633 0.976258 -0.148523 0.083471 0.98538 -0.28758 -0.042888 0.956796 -0.313903 0.322097 0.893151 -0.006034 0.123274 0.992354 -0.246509 0.368009 0.89655 -0.400306 0.383587 0.832236 -0.533739 -0.135419 0.834736 0.64922 -0.398135 -0.648076 -0.922974 -0.06818 -0.378774 0.297856 -0.241262 -0.92362 0.997913 -0.010277 -0.063747 0.747991 -0.494467 -0.442733 -0.992727 -0.117706 0.025267 -0.029585 -0.174774 -0.984164 -0.063839 -0.198857 -0.977947 0.656553 -0.553616 -0.512297 0.978059 -0.206895 0.024389 -0.040623 -0.734863 -0.676998 0.012689 -0.983204 -0.182068 0.101859 -0.852483 -0.512734 0.073762 -0.970821 -0.22818 -0.044191 -0.144329 -0.988542 -0.026931 -0.144637 -0.989118 0.059531 0.378185 -0.923814 0.009219 0.377944 -0.925783 -0.06091 0.347464 -0.935713 -0.029124 0.348256 -0.936947 0.418994 0.771591 -0.478636 0.698876 -0.204381 -0.68542 0.825119 -0.054987 -0.562277 0.899256 -0.003245 -0.437411 0.903593 -0.005914 -0.428352 0.325033 -0.940991 0.094285 0.322431 -0.924285 0.20429 0.920298 -0.004849 -0.391188 0.694519 -0.446775 0.563947 0.988395 0.148199 0.033338 0.744866 0.051353 0.665235 0.341025 0.331722 0.879581 0.436293 0.342386 0.832118 -0.975873 -0.076814 -0.20438 -0.009803 0.345291 -0.938445 -0.980586 -0.159058 -0.114677 -0.976104 -0.166678 -0.139424 -0.859468 0.116033 -0.497847 0.974956 -0.04942 -0.216839 0.384225 0.369476 -0.846084 0.630454 -0.497904 -0.595499 0.959254 -0.278273 -0.048939 0.606997 0.1283 -0.784279 0.99376 0.099765 -0.049881 0.955538 -0.289933 -0.053717 0.361252 0.582402 -0.72822 0.998629 -0.019375 -0.048636 -0.074378 0.816353 -0.572744 -0.012246 0.342207 -0.939545 0.056883 0.676177 -0.73454 0.096433 0.125812 -0.987356 0.782238 0.412935 -0.466465 0.318442 -0.947235 -0.036604 0.29769 -0.954609 -0.010117 -0.176081 -0.97306 -0.148827 0.066961 -0.885399 -0.459983 -0.034434 -0.912169 -0.408364 0.118852 -0.877425 -0.464757 0.165528 -0.949064 0.268101 0.081598 -0.958302 0.273858 0.066383 -0.876075 -0.477583 0.052786 -0.96927 0.24027 0.08195 -0.88057 -0.466777 0.243599 -0.932589 0.266341 0.148029 -0.870437 -0.469496 0.213132 -0.83795 -0.502409 0.990113 -0.08207 -0.113757 0.563789 -0.63802 0.524473 0.99752 -0.045728 -0.05351 0.945683 0.307728 0.104824 0.98698 0.000354 -0.160842 0.986862 -0.0015 -0.161561 0.980191 0.12358 -0.154772 0.391034 -0.207668 0.896642 0.679638 -0.356503 0.641092 0.263808 0.125392 0.95639 0.839862 0.278404 -0.465964 0.65542 0.542092 -0.525891 0.940031 0.21061 0.268299 0.784125 0.460182 -0.41639 0.266235 0.454267 0.850153 0.893635 -0.273801 0.355598 0.904711 -0.105405 -0.412781 0.539363 -0.390739 -0.745929 0.907673 -0.081948 -0.4116 0.763156 0.102692 -0.638002 -0.999927 -0.001242 -0.01201 -0.9923 0.115643 -0.044347 -0.999894 0.000133 -0.014533 -0.982217 0.169344 0.08107 -0.972819 0.114306 0.201388 0.839212 -0.058203 0.54068 0.896084 0.316709 0.311012 0.019136 0.437022 0.899247 0.447088 0.121162 -0.886246 0.996379 0.06983 -0.048502 0.996337 0.056405 0.064275 0.979037 -0.077736 -0.188265 -0.232136 0.972444 -0.021562 -0.05044 0.996266 0.070071 -0.078371 0.269358 -0.959846 -0.027418 -0.281914 -0.959048 0.940684 -0.03653 -0.337312 -0.763506 0.00895 -0.645739 -0.994771 -0.063269 -0.080175 -0.997079 0.058487 0.049114 -0.389702 0.277058 -0.878277 -0.645362 0.663311 -0.378848 0.880343 0.093822 -0.464966 -0.175706 0.935052 -0.307905 0.94503 0.308735 -0.107705 0.542288 0.6519 0.530047 0.978805 0.165486 0.120644 0.800632 0.404608 -0.441905 0.316878 0.935749 -0.154797 0.046105 0.972404 0.228703 0.346815 0.910119 0.226723 0.579236 0.622421 0.526382 0.427212 0.904015 -0.015718 0.794642 0.601996 -0.078387 0.049816 0.998726 -0.008095 0.072807 0.983767 -0.164019 0.012467 0.999881 0.009063 0.303148 0.368007 0.879018 0.706481 0.450619 -0.545736 0.622297 0.73663 -0.264806 0.037468 0.999239 0.010813 0.997802 0.041937 -0.051307 0.274615 0.462159 0.843206 0.509286 0.539122 0.670802 0.931975 -0.143606 0.332867 0.772244 0.013436 0.635183 0.892459 -0.289535 0.345958 0.239093 0.099537 0.965881 0.385589 -0.25192 0.887613 0.229568 0.09421 0.968722 -0.171408 0.652922 0.737775 0.452355 -0.00155 0.891836 0.471697 -0.096413 0.876474 0.968101 0.124499 0.21744 0.367026 0.891421 -0.26582 0.641969 0.752634 -0.146346 -0.339842 -0.676391 -0.653455 -0.993872 0.08288 -0.073134 -0.2773 -0.950151 -0.142544 -0.417441 -0.889357 -0.186513 -0.821257 -0.513772 0.248144 -0.734734 -0.677599 0.032034 -0.983432 -0.098119 -0.152425 -0.930244 0.141354 -0.338621 -0.672129 0.712995 -0.199703 -0.226722 -0.933994 0.276137 -0.488267 -0.847578 0.207864 0.471853 -0.797486 0.375993 0.861315 -0.410492 0.299386 -0.497555 -0.58901 0.636794 -0.225734 -0.82717 0.514621 0.01391 -0.944556 0.328057 -0.143777 -0.933121 0.329565 -0.018226 -0.705003 0.70897 -0.167573 -0.69333 0.700866 0.026909 -0.839963 0.541975 0.072459 -0.836728 0.542803 -0.29549 -0.723978 0.623331 -0.208979 -0.733922 0.646286 -0.253437 -0.445176 0.858829 -0.749149 0.407783 0.522004 -0.846811 0.45416 0.276856 -0.953112 0.292175 0.078808 -0.956106 0.292719 -0.013294 -0.732958 0.592327 -0.334545 -0.968243 -0.170308 0.183031 -0.965321 0.246773 0.085201 -0.803165 0.423261 0.419257 -0.066105 -0.641114 -0.764593 0.889561 -0.455507 -0.03456 -0.20745 -0.977134 0.046625 0.012411 -0.985769 -0.167647 0.045152 -0.67425 -0.737122 -0.013339 -0.594578 -0.803928 0.01034 -0.985785 -0.167693 -0.038321 -0.977239 -0.208654 0.007071 -0.975154 0.221416 -0.06555 -0.97527 -0.211074 0.140525 -0.989813 -0.022871 -0.281644 -0.893068 0.350865 -0.217334 -0.45292 0.864656 -0.131763 -0.23572 0.962847 -0.31817 0.621388 0.715992 -0.842802 0.470332 0.261673 -0.307694 0.678515 0.66704 -0.303148 0.643091 0.703232 -0.27593 0.721127 0.635483 -0.986536 0.1426 0.08008 -0.985478 0.140611 0.095196 -0.275988 -0.177813 0.94457 -0.039318 -0.632322 0.773707 -0.436548 0.467327 0.768786 0.678345 -0.022122 0.73441 0.367029 0.727853 0.57924 0.083554 -0.598609 0.796672 -0.316627 0.180201 0.931276 -0.137175 -0.591864 0.794279 -0.600304 0.097803 0.793769 -0.055639 0.063839 0.996408 0.089586 0.738416 0.668368 -0.031913 0.752313 0.658032 0.304735 -0.928066 0.214078 -0.162058 -0.795531 0.583839 -0.025266 -0.924493 0.380361 0.106713 -0.792574 0.600365 0.148573 -0.805508 0.573657 0.206921 -0.477215 0.854078 0.022486 -0.815784 0.57792 0.157664 -0.846157 0.509078 0.037749 -0.528343 0.848192 -0.100766 -0.454131 0.885218 0.091595 -0.864493 0.494229 -0.00274 -0.824667 0.565612 0.130994 -0.860561 0.492215 0.181032 -0.493936 0.850444 0.164382 -0.370833 0.914036 0.205029 0.147419 0.96759 0.080219 0.179604 0.980463 -0.010211 0.746891 0.664868 0.149244 0.757648 0.635371 0.792934 0.395345 0.463635 0.285174 0.177486 0.941899 0.333845 0.843923 0.419931 0.359262 0.055447 0.931588 0.360327 0.86663 0.345134 0.719352 0.573696 0.391671 0.732816 0.529484 0.427349 0.568976 0.72596 -0.386326 0.803936 0.519665 -0.289199 0.994889 0.044158 0.090803 0.967722 0.246932 0.050389 0.386762 -0.596916 0.702927 0.999932 0.007007 -0.009339 0.183099 -0.846337 0.500188 0.563433 -0.758518 0.327404 -0.002946 -0.968784 -0.247891 -0.031219 -0.59121 -0.805914 0.005661 -0.633632 -0.773614 0.031298 -0.621643 -0.782676 0.044072 -0.983022 -0.178119 -0.055002 -0.998371 -0.015155 0.102964 -0.971856 0.211882 -0.047748 -0.976117 0.211935 0.005324 -0.983786 -0.179269 0.011293 -0.605441 -0.79581 0.091877 -0.990942 -0.097938 0.007176 -0.60622 -0.795265 0.270472 -0.957739 -0.097879 0.42261 -0.674635 -0.605201 0.423016 -0.905274 -0.039206 0.283776 -0.958232 -0.035533 0.997917 0.002402 -0.064464 0.959768 0.031578 -0.279013 0.946569 0.082539 -0.311761 0.803924 0.52084 -0.287108 0.982264 0.147485 0.115784 0.966658 0.253889 0.033357 0.859739 0.496239 0.120812 0.983355 0.177123 0.040494 0.766888 0.601721 0.223193 0.800006 0.419879 0.428593 0.570442 0.797666 -0.195771 0.713736 0.608146 0.347476 0.727725 0.530677 0.434509 0.386679 0.596095 0.703669 0.309397 0.799612 0.514679 0.483765 0.469907 0.738349 0.309165 0.799559 0.5149 0.950405 0.261854 0.167816 0.156449 0.768534 0.620387 -0.727828 0.52811 -0.437454 -0.957573 0.28776 -0.015769 -0.966005 0.258014 -0.01622 -0.811847 0.552261 0.189506 -0.642336 0.756962 0.120056 -0.575225 0.802844 0.156709 -0.290179 0.852787 0.434224 -0.368404 0.777079 0.51032 -0.524857 0.804523 0.277972 -0.910185 0.371154 0.183869 -0.856255 0.446325 0.260042 0.187376 0.798363 0.572282 0.098598 0.901204 0.422031 0.220424 0.79498 0.565172 -0.047896 0.900599 0.432004 -0.101092 0.791489 0.602765 -0.156398 0.765441 0.624211 -0.3982 0.776813 0.487851 0.090139 0.7804 0.61875 0.066597 0.881717 0.467055 0.062786 0.890389 0.450849 0.213785 0.848691 0.483756 0.167532 0.873406 0.457269 -0.250558 0.826996 0.503287 0.048466 0.904497 0.423716 -0.067886 0.799374 0.596987 0.936159 0.321235 0.142878 0.892717 0.405151 0.197254 0.809096 0.295928 0.50773 0.315746 0.851627 0.418373 0.445572 0.840388 0.308567 0.643456 0.729293 0.232587 0.384125 0.909158 0.160871 -0.757858 0.577219 0.304089 0.010663 0.799575 0.600472</float_array>
          <technique_common>
            <accessor source="#FightersFoot-mesh-normals-array" count="500" stride="3">
              <param name="X" type="float"/>
              <param name="Y" type="float"/>
              <param name="Z" type="float"/>
            </accessor>
          </technique_common>
        </source>
        <source id="FightersFoot-mesh-map-0">
          <float_array id="FightersFoot-mesh-map-0-array" count="3000">0.69165 0.198242 0.711182 0.278809 0.658691 0.26416 0.69165 0.198242 0.658691 0.26416 0.595703 0.220215 0.658691 0.26416 0.711182 0.278809 0.625244 0.337646 0.625244 0.337646 0.711182 0.278809 0.689453 0.43335 0.711182 0.278809 0.69165 0.198242 0.758789 0.278809 0.689453 0.43335 0.711182 0.278809 0.771729 0.335205 0.771729 0.335205 0.711182 0.278809 0.758789 0.278809 0.771729 0.335205 0.758789 0.278809 0.801758 0.325928 0.689453 0.43335 0.771729 0.335205 0.749756 0.398438 0.749756 0.398438 0.771729 0.335205 0.798096 0.402832 0.749756 0.398438 0.798096 0.402832 0.765625 0.451904 0.749756 0.398438 0.765625 0.451904 0.689453 0.43335 0.689453 0.43335 0.765625 0.451904 0.718262 0.510254 0.718262 0.510254 0.765625 0.451904 0.774414 0.485107 0.718262 0.510254 0.774414 0.485107 0.759521 0.522461 0.756348 0.190674 0.758789 0.278809 0.69165 0.198242 0.758789 0.278809 0.756348 0.190674 0.802979 0.224121 0.756348 0.190674 0.69165 0.198242 0.698486 0.181396 0.698486 0.181396 0.69165 0.198242 0.64209 0.158691 0.756348 0.190674 0.698486 0.181396 0.751709 0.185059 0.756348 0.190674 0.751709 0.185059 0.786865 0.159912 0.698486 0.181396 0.64209 0.158691 0.7146 0.157959 0.698486 0.181396 0.7146 0.157959 0.751709 0.185059 0.7146 0.157959 0.64209 0.158691 0.663574 0.141602 0.751709 0.185059 0.7146 0.157959 0.786133 0.14917 0.7146 0.157959 0.663574 0.141602 0.693848 0.128418 0.786133 0.14917 0.7146 0.157959 0.735107 0.129395 0.786133 0.14917 0.735107 0.129395 0.796387 0.12207 0.7146 0.157959 0.693848 0.128418 0.723145 0.109131 0.7146 0.157959 0.723145 0.109131 0.735107 0.129395 0.723145 0.109131 0.693848 0.128418 0.696045 0.119873 0.735107 0.129395 0.723145 0.109131 0.731934 0.053955 0.449951 0.00415 0.511963 0.018311 0.498535 0.033936 0.449951 0.00415 0.498535 0.033936 0.480713 0.073486 0.480713 0.073486 0.498535 0.033936 0.508057 0.079834 0.498535 0.033936 0.511963 0.018311 0.554443 0.051025 0.498535 0.033936 0.554443 0.051025 0.508057 0.079834 0.554443 0.051025 0.511963 0.018311 0.592041 0.000977 0.508057 0.079834 0.554443 0.051025 0.550293 0.107666 0.93335 0.903809 0.959473 0.894043 0.993896 0.941162 0.959473 0.894043 0.93335 0.903809 0.959961 0.824463 0.93335 0.903809 0.993896 0.941162 0.993652 0.955322 0.93335 0.903809 0.993652 0.955322 0.945068 0.9375 0.945068 0.9375 0.993652 0.955322 1 0.978027 0.93335 0.903809 0.945068 0.9375 0.840576 0.934082 0.945068 0.9375 1 0.978027 0.970703 0.968262 0.840576 0.934082 0.945068 0.9375 0.864014 0.966064 0.864014 0.966064 0.945068 0.9375 0.970703 0.968262 0.837402 0.860107 0.876465 0.899414 0.797852 0.854492 0.837402 0.860107 0.797852 0.854492 0.794189 0.837646 0.794189 0.837646 0.797852 0.854492 0.765381 0.84668 0.837402 0.860107 0.794189 0.837646 0.806396 0.826172 0.837402 0.860107 0.806396 0.826172 0.856934 0.849854 0.794189 0.837646 0.765381 0.84668 0.728027 0.837891 0.765381 0.84668 0.797852 0.854492 0.741211 0.856201 0.765381 0.84668 0.741211 0.856201 0.728027 0.837891 0.741211 0.856201 0.797852 0.854492 0.781738 0.881836 0.741211 0.856201 0.781738 0.881836 0.715332 0.900146 0.728027 0.837891 0.741211 0.856201 0.696777 0.860352 0.794189 0.837646 0.728027 0.837891 0.783447 0.779785 0.794189 0.837646 0.783447 0.779785 0.806396 0.826172 0.783447 0.779785 0.728027 0.837891 0.707031 0.787354 0.806396 0.826172 0.783447 0.779785 0.808105 0.790527 0.808105 0.790527 0.783447 0.779785 0.790039 0.733643 0.808105 0.790527 0.790039 0.733643 0.817139 0.757812 0.808105 0.790527 0.817139 0.757812 0.837646 0.828369 0.808105 0.790527 0.837646 0.828369 0.806396 0.826172 0.806396 0.826172 0.837646 0.828369 0.856934 0.849854 0.856934 0.849854 0.837646 0.828369 0.891846 0.850098 0.891846 0.850098 0.837646 0.828369 0.851074 0.818359 0.060059 0.814697 0.067383 0.830078 0.016846 0.899902 0.060059 0.814697 0.016846 0.899902 0.041016 0.815918 0.041016 0.815918 0.016846 0.899902 0.01709 0.82251 0.900146 0.697266 0.889893 0.727539 0.858643 0.710693 0.889893 0.727539 0.900146 0.697266 0.947266 0.740967 0.889893 0.727539 0.947266 0.740967 0.948242 0.78125 0.889893 0.727539 0.948242 0.78125 0.876953 0.759766 0.876953 0.759766 0.948242 0.78125 0.956787 0.808838 0.876953 0.759766 0.956787 0.808838 0.948242 0.839355 0.876953 0.759766 0.948242 0.839355 0.861816 0.777344 0.947266 0.740967 0.900146 0.697266 0.955811 0.711426 0.947266 0.740967 0.955811 0.711426 0.971436 0.729736 0.955811 0.711426 0.900146 0.697266 0.90918 0.669922 0.90918 0.669922 0.900146 0.697266 0.877197 0.655273 0.955811 0.711426 0.90918 0.669922 0.988037 0.685059 0.988037 0.685059 0.90918 0.669922 0.969482 0.656494 0.909424 0.654785 0.90918 0.669922 0.891113 0.634033 0.90918 0.669922 0.909424 0.654785 0.919189 0.65332 0.90918 0.669922 0.919189 0.65332 0.969482 0.656494 0.969482 0.656494 0.919189 0.65332 0.926025 0.642822 0.926025 0.642822 0.919189 0.65332 0.90332 0.596436 0.969482 0.656494 0.926025 0.642822 0.979736 0.633301 0.979736 0.633301 0.926025 0.642822 0.929443 0.625977 0.019531 0.91748 0.058105 0.937744 0.0271 0.956055 0.0271 0.956055 0.058105 0.937744 0.054443 0.971924 0.0271 0.956055 0.054443 0.971924 0.019043 0.993164 0.019043 0.993164 0.054443 0.971924 0.047363 0.994873 0.060059 0.180664 0.044922 0.134277 0.067871 0.126709 0.61792 0.943848 0.671143 0.972168 0.62085 0.978027 0.671143 0.972168 0.61792 0.943848 0.683594 0.952393 0.683594 0.952393 0.61792 0.943848 0.625 0.915283 0.61792 0.943848 0.62085 0.978027 0.592773 0.974365 0.625 0.915283 0.61792 0.943848 0.614258 0.903809 0.614258 0.903809 0.61792 0.943848 0.583496 0.936523 0.583496 0.936523 0.61792 0.943848 0.592773 0.974365 0.614258 0.903809 0.583496 0.936523 0.595215 0.852539 0.595215 0.852539 0.583496 0.936523 0.534668 0.878662 0.583496 0.936523 0.592773 0.974365 0.541504 0.946533 0.583496 0.936523 0.541504 0.946533 0.534668 0.878662 0.541504 0.946533 0.592773 0.974365 0.526123 0.975586 0.534668 0.878662 0.541504 0.946533 0.520752 0.946289 0.520752 0.946289 0.541504 0.946533 0.526123 0.975586 0.520752 0.946289 0.526123 0.975586 0.51416 0.974365 0.534668 0.878662 0.520752 0.946289 0.516602 0.875244 0.516602 0.875244 0.520752 0.946289 0.509766 0.940186 0.657227 0.025391 0.588379 0.015869 0.657227 0.009277 0.657227 0.025391 0.657227 0.009277 0.723877 0 0.657227 0.025391 0.723877 0 0.759277 0.02417 0.657227 0.025391 0.759277 0.02417 0.735107 0.046387 0.759277 0.02417 0.723877 0 0.766602 0.000488 0.735107 0.046387 0.759277 0.02417 0.802246 0.02002 0.802246 0.02002 0.759277 0.02417 0.766602 0.000488 0.57959 0.302002 0.628662 0.260742 0.59082 0.325439 0.57959 0.302002 0.59082 0.325439 0.512939 0.288818 0.512939 0.288818 0.59082 0.325439 0.476807 0.332275 0.657715 0.397949 0.619629 0.457764 0.59082 0.325439 0.59082 0.325439 0.619629 0.457764 0.564209 0.39624 0.59082 0.325439 0.564209 0.39624 0.476807 0.332275 0.564209 0.39624 0.619629 0.457764 0.591553 0.460449 0.476807 0.332275 0.564209 0.39624 0.519531 0.401611 0.519531 0.401611 0.564209 0.39624 0.591553 0.460449 0.476807 0.332275 0.519531 0.401611 0.449463 0.367432 0.519531 0.401611 0.591553 0.460449 0.530762 0.420654 0.519531 0.401611 0.530762 0.420654 0.449463 0.367432 0.530762 0.420654 0.591553 0.460449 0.566895 0.477539 0.530762 0.420654 0.566895 0.477539 0.449463 0.367432 0.449463 0.367432 0.566895 0.477539 0.44751 0.388916 0.44751 0.388916 0.566895 0.477539 0.441162 0.4729 0.441162 0.4729 0.566895 0.477539 0.537842 0.522217 0.76416 0.943359 0.736816 0.903809 0.819092 0.875488 0.736816 0.903809 0.76416 0.943359 0.739746 0.977051 0.916016 0.077393 0.928467 0.008057 0.990967 0.027588 0.928467 0.008057 0.916016 0.077393 0.884521 0.007324 0.884521 0.007324 0.916016 0.077393 0.875488 0.061279 0.884521 0.007324 0.875488 0.061279 0.856445 0.000244 0.856445 0.000244 0.875488 0.061279 0.821777 0.023926 0.875488 0.061279 0.916016 0.077393 0.880615 0.116211 0.821777 0.023926 0.875488 0.061279 0.836914 0.075195 0.836914 0.075195 0.875488 0.061279 0.880615 0.116211 0.821777 0.023926 0.836914 0.075195 0.770996 0.039795 0.880615 0.116211 0.916016 0.077393 0.940918 0.11377 0.770996 0.039795 0.836914 0.075195 0.779297 0.110596 0.770996 0.039795 0.779297 0.110596 0.75 0.047852 0.779297 0.110596 0.836914 0.075195 0.828857 0.126221 0.828857 0.126221 0.836914 0.075195 0.880615 0.116211 0.828857 0.126221 0.880615 0.116211 0.847412 0.167725 0.847412 0.167725 0.880615 0.116211 0.878418 0.169678 0.878418 0.169678 0.880615 0.116211 0.940918 0.11377 0.878418 0.169678 0.940918 0.11377 0.931885 0.195312 0.205811 0.956787 0.19751 0.975098 0.15918 0.978271 0.223389 0.918701 0.259521 0.950195 0.205811 0.956787 0.223389 0.918701 0.205811 0.956787 0.196777 0.914062 0.196777 0.914062 0.205811 0.956787 0.15918 0.978271 0.196777 0.914062 0.15918 0.978271 0.130127 0.933838 0.196777 0.914062 0.130127 0.933838 0.13623 0.886475 0.130127 0.933838 0.15918 0.978271 0.110352 0.974609 0.13623 0.886475 0.130127 0.933838 0.125 0.885254 0.130127 0.933838 0.110352 0.974609 0.090332 0.965576 0.130127 0.933838 0.090332 0.965576 0.125 0.885254 0.337891 0.813477 0.251465 0.738037 0.387207 0.73291 0.337891 0.813477 0.387207 0.73291 0.423096 0.757568 0.251465 0.738037 0.337891 0.813477 0.271484 0.803467 0.251465 0.738037 0.271484 0.803467 0.219727 0.814941 0.251465 0.738037 0.219727 0.814941 0.189697 0.773926 0.423096 0.757568 0.387207 0.73291 0.368652 0.674072 0.423096 0.757568 0.368652 0.674072 0.443848 0.73291 0.443848 0.73291 0.368652 0.674072 0.437744 0.720459 0.368652 0.674072 0.387207 0.73291 0.287842 0.662109 0.287842 0.662109 0.387207 0.73291 0.251465 0.738037 0.368652 0.674072 0.287842 0.662109 0.314453 0.626953 0.314453 0.626953 0.287842 0.662109 0.286621 0.616943 0.287842 0.662109 0.251465 0.738037 0.230713 0.652832 0.287842 0.662109 0.230713 0.652832 0.286621 0.616943 0.230713 0.652832 0.251465 0.738037 0.189697 0.773926 0.286621 0.616943 0.230713 0.652832 0.216064 0.630615 0.286621 0.616943 0.216064 0.630615 0.231201 0.599854 0.216064 0.630615 0.230713 0.652832 0.194092 0.656494 0.194092 0.656494 0.230713 0.652832 0.189697 0.773926 0.194092 0.656494 0.189697 0.773926 0.162109 0.695068 0.12085 0.326172 0.157471 0.331787 0.114746 0.377197 0.114746 0.377197 0.157471 0.331787 0.134521 0.407227 0.134521 0.407227 0.157471 0.331787 0.169678 0.345947 0.12085 0.326172 0.114746 0.377197 0.082275 0.397949 0.157471 0.331787 0.12085 0.326172 0.139404 0.27832 0.157471 0.331787 0.139404 0.27832 0.154053 0.222412 0.12085 0.326172 0.082275 0.397949 0.059082 0.319336 0.059082 0.319336 0.082275 0.397949 0.029053 0.370605 0.139404 0.27832 0.12085 0.326172 0.123535 0.283936 0.139404 0.27832 0.123535 0.283936 0.154053 0.222412 0.123535 0.283936 0.12085 0.326172 0.059082 0.319336 0.154053 0.222412 0.123535 0.283936 0.102051 0.214111 0.123535 0.283936 0.059082 0.319336 0.032471 0.253906 0.123535 0.283936 0.032471 0.253906 0.102051 0.214111 0.151123 0.885498 0.099854 0.864502 0.157471 0.87207 0.157471 0.87207 0.099854 0.864502 0.164307 0.85376 0.157471 0.87207 0.164307 0.85376 0.231445 0.871094 0.231445 0.871094 0.164307 0.85376 0.172607 0.828369 0.157471 0.87207 0.231445 0.871094 0.223389 0.888672 0.157471 0.87207 0.223389 0.888672 0.212646 0.895752 0.212646 0.895752 0.223389 0.888672 0.272217 0.922119 0.419678 0.554932 0.39917 0.621826 0.341553 0.629883 0.419678 0.554932 0.341553 0.629883 0.262695 0.601562 0.419678 0.554932 0.262695 0.601562 0.272461 0.485596 0.419678 0.554932 0.272461 0.485596 0.421143 0.496582 0.419678 0.554932 0.421143 0.496582 0.481934 0.53833 0.481934 0.53833 0.421143 0.496582 0.482666 0.500732 0.421143 0.496582 0.272461 0.485596 0.377441 0.444092 0.421143 0.496582 0.377441 0.444092 0.43457 0.443359 0.377441 0.444092 0.272461 0.485596 0.306396 0.439941 0.377441 0.444092 0.306396 0.439941 0.35376 0.405029 0.35376 0.405029 0.306396 0.439941 0.267822 0.384521 0.35376 0.405029 0.267822 0.384521 0.306885 0.350098 0.278809 0.321045 0.275391 0.366943 0.254883 0.344482 0.275391 0.366943 0.278809 0.321045 0.292725 0.335693 0.254883 0.344482 0.275391 0.366943 0.235352 0.407471 0.254883 0.344482 0.235352 0.407471 0.225342 0.390381 0.225342 0.390381 0.235352 0.407471 0.233887 0.442139 0.278809 0.321045 0.254883 0.344482 0.225586 0.303467 0.278809 0.321045 0.225586 0.303467 0.307373 0.321289 0.254883 0.344482 0.225342 0.390381 0.219971 0.372314 0.254883 0.344482 0.219971 0.372314 0.225586 0.303467 0.219971 0.372314 0.225342 0.390381 0.163086 0.385498 0.219971 0.372314 0.163086 0.385498 0.192383 0.300537 0.219971 0.372314 0.192383 0.300537 0.225586 0.303467 0.225586 0.303467 0.192383 0.300537 0.172852 0.287598 0.307373 0.321289 0.225586 0.303467 0.269531 0.299072 0.225586 0.303467 0.172852 0.287598 0.179932 0.23999 0.269531 0.299072 0.225586 0.303467 0.222656 0.240967 0.222656 0.240967 0.225586 0.303467 0.179932 0.23999 0.269531 0.299072 0.222656 0.240967 0.291016 0.229492 0.222656 0.240967 0.179932 0.23999 0.161133 0.185059 0.661865 0.112061 0.70752 0.108887 0.647949 0.120605 0.661865 0.112061 0.647949 0.120605 0.657959 0.101318 0.661865 0.112061 0.657959 0.101318 0.675537 0.09668 0.657959 0.101318 0.647949 0.120605 0.616455 0.072754 0.657959 0.101318 0.616455 0.072754 0.639893 0.053955 0.616455 0.072754 0.647949 0.120605 0.626221 0.123047 0.626221 0.123047 0.647949 0.120605 0.641357 0.136963 0.626221 0.123047 0.641357 0.136963 0.61377 0.157471 0.616455 0.072754 0.626221 0.123047 0.599121 0.137695 0.599121 0.137695 0.626221 0.123047 0.61377 0.157471 0.616455 0.072754 0.599121 0.137695 0.571777 0.097168 0.599121 0.137695 0.61377 0.157471 0.581299 0.161133 0.571777 0.097168 0.599121 0.137695 0.553711 0.114746 0.553711 0.114746 0.599121 0.137695 0.581299 0.161133 0.553711 0.114746 0.581299 0.161133 0.562256 0.1604 0.562256 0.1604 0.581299 0.161133 0.581543 0.19165 0.553711 0.114746 0.562256 0.1604 0.509766 0.103516 0.509766 0.103516 0.562256 0.1604 0.527588 0.171875 0.509766 0.103516 0.527588 0.171875 0.466064 0.094727 0.466064 0.094727 0.527588 0.171875 0.463623 0.140381 0.463623 0.140381 0.527588 0.171875 0.482178 0.214111 0.527588 0.171875 0.562256 0.1604 0.540527 0.197266 0.540527 0.197266 0.562256 0.1604 0.555664 0.212646 0.527588 0.171875 0.540527 0.197266 0.503906 0.218506 0.527588 0.171875 0.503906 0.218506 0.482178 0.214111 0.482178 0.214111 0.503906 0.218506 0.460938 0.243408 0.081787 0.04126 0.165771 0.021729 0.145264 0.093018 0.165771 0.021729 0.081787 0.04126 0.072754 0.006104 0.145264 0.093018 0.165771 0.021729 0.180664 0.07666 0.081787 0.04126 0.145264 0.093018 0.097412 0.116699 0.097412 0.116699 0.145264 0.093018 0.130127 0.157471 0.130127 0.157471 0.145264 0.093018 0.168701 0.172607 0.097412 0.116699 0.130127 0.157471 0.072754 0.172363 0.072754 0.172363 0.130127 0.157471 0.104492 0.209473 0.442383 0.05542 0.456055 0.110107 0.408203 0.144775 0.442383 0.05542 0.408203 0.144775 0.403076 0.053955 0.408203 0.144775 0.456055 0.110107 0.40918 0.196533 0.408203 0.144775 0.40918 0.196533 0.323486 0.184082 0.408203 0.144775 0.323486 0.184082 0.273193 0.135986 0.323486 0.184082 0.40918 0.196533 0.330811 0.216309 0.323486 0.184082 0.330811 0.216309 0.261963 0.20752 0.330811 0.216309 0.40918 0.196533 0.441162 0.22998 0.441162 0.22998 0.40918 0.196533 0.421143 0.192627 0.330811 0.216309 0.441162 0.22998 0.4104 0.283447 0.330811 0.216309 0.4104 0.283447 0.289307 0.290771 0.289307 0.290771 0.4104 0.283447 0.346436 0.352295 0.4104 0.283447 0.441162 0.22998 0.443604 0.2771 0.443604 0.2771 0.441162 0.22998 0.494385 0.30127 0.779297 0.609131 0.768311 0.530029 0.794189 0.599854 0.779297 0.609131 0.794189 0.599854 0.782471 0.649414 0.779297 0.609131 0.782471 0.649414 0.753906 0.689941 0.782471 0.649414 0.794189 0.599854 0.803711 0.678711 0.803711 0.678711 0.794189 0.599854 0.899658 0.60376 0.803711 0.678711 0.899658 0.60376 0.826172 0.730469 0.782471 0.649414 0.803711 0.678711 0.786621 0.693604 0.786621 0.693604 0.803711 0.678711 0.826172 0.730469 0.782471 0.649414 0.786621 0.693604 0.753906 0.689941 0.786621 0.693604 0.826172 0.730469 0.800293 0.724365 0.786621 0.693604 0.800293 0.724365 0.753906 0.689941 0.800293 0.724365 0.826172 0.730469 0.869873 0.814697 0.753906 0.689941 0.800293 0.724365 0.689209 0.752441 0.008301 0.566162 0 0.480469 0.032715 0.532471 0.032715 0.532471 0 0.480469 0.029053 0.452637 0.032715 0.532471 0.029053 0.452637 0.10498 0.494873 0.10498 0.494873 0.029053 0.452637 0.084717 0.425049 0.084717 0.425049 0.029053 0.452637 0.047607 0.392822 0.983643 0.465576 0.9646 0.345703 0.982178 0.422607 0.983643 0.465576 0.982178 0.422607 0.991211 0.490479 0.9646 0.345703 0.983643 0.465576 0.928955 0.484375 0.928955 0.484375 0.983643 0.465576 0.991211 0.490479 0.9646 0.345703 0.928955 0.484375 0.89917 0.365723 0.928955 0.484375 0.991211 0.490479 0.990723 0.508545 0.860596 0.402588 0.886963 0.351318 0.89917 0.365723 0.860596 0.402588 0.89917 0.365723 0.875488 0.458008 0.875488 0.458008 0.89917 0.365723 0.928955 0.484375 0.860596 0.402588 0.875488 0.458008 0.802979 0.418213 0.928955 0.484375 0.990723 0.508545 0.912109 0.504883 0.928955 0.484375 0.912109 0.504883 0.875488 0.458008 0.802979 0.418213 0.875488 0.458008 0.867188 0.528076 0.867188 0.528076 0.875488 0.458008 0.912109 0.504883 0.802979 0.418213 0.867188 0.528076 0.792725 0.499023 0.912109 0.504883 0.990723 0.508545 0.960205 0.541748 0.912109 0.504883 0.960205 0.541748 0.867188 0.528076 0.960205 0.541748 0.990723 0.508545 0.983398 0.564453 0.960205 0.541748 0.983398 0.564453 0.957031 0.580078 0.867188 0.528076 0.960205 0.541748 0.927734 0.571533 0.867188 0.528076 0.927734 0.571533 0.792725 0.499023 0.927734 0.571533 0.960205 0.541748 0.945557 0.590332 0.792725 0.499023 0.927734 0.571533 0.803223 0.527832 0.792725 0.499023 0.803223 0.527832 0.765625 0.52417 0.176025 0.755371 0.154785 0.771973 0.149414 0.716797 0.149414 0.716797 0.154785 0.771973 0.101807 0.749023 0.154785 0.771973 0.176025 0.755371 0.175049 0.821045 0.175049 0.821045 0.176025 0.755371 0.200684 0.822998 0.175049 0.821045 0.200684 0.822998 0.266113 0.868896 0.154785 0.771973 0.175049 0.821045 0.074951 0.866699 0.154785 0.771973 0.074951 0.866699 0.076416 0.795654 0.154785 0.771973 0.076416 0.795654 0.101807 0.749023 0.101807 0.749023 0.076416 0.795654 0.070801 0.776855 0.233887 0.020996 0.274902 0.06543 0.250244 0.064697 0.233887 0.020996 0.250244 0.064697 0.231689 0.075195 0.302002 0.025146 0.298096 0.040283 0.274902 0.06543 0.274902 0.06543 0.298096 0.040283 0.278809 0.110352 0.274902 0.06543 0.278809 0.110352 0.250244 0.064697 0.278809 0.110352 0.298096 0.040283 0.32373 0.083008 0.32373 0.083008 0.298096 0.040283 0.336426 0.02417 0.32373 0.083008 0.336426 0.02417 0.358887 0.077148 0.278809 0.110352 0.32373 0.083008 0.322021 0.131836 0.322021 0.131836 0.32373 0.083008 0.357422 0.105957 0.357422 0.105957 0.32373 0.083008 0.358887 0.077148 0.357422 0.105957 0.358887 0.077148 0.376709 0.110107 0.243408 0.113525 0.250244 0.064697 0.278809 0.110352 0.250244 0.064697 0.243408 0.113525 0.231689 0.075195 0.243408 0.113525 0.278809 0.110352 0.263672 0.139893 0.243408 0.113525 0.263672 0.139893 0.227783 0.160889 0.243408 0.113525 0.227783 0.160889 0.210938 0.133057 0.243408 0.113525 0.210938 0.133057 0.231689 0.075195 0.231689 0.075195 0.210938 0.133057 0.187256 0.081055 0.187256 0.081055 0.210938 0.133057 0.175781 0.086182 0.175781 0.086182 0.210938 0.133057 0.173584 0.115479 0.173584 0.115479 0.210938 0.133057 0.175781 0.145264 0.175781 0.145264 0.210938 0.133057 0.174805 0.16748 0.970215 0.213379 0.945068 0.262451 0.925781 0.208008 0.842285 0.200928 0.857178 0.175049 0.925781 0.208008 0.842285 0.200928 0.925781 0.208008 0.868408 0.264404 0.868408 0.264404 0.925781 0.208008 0.945068 0.262451 0.977783 0.32666 0.945068 0.262451 0.985107 0.286621 0.945068 0.262451 0.977783 0.32666 0.936035 0.314453 0.945068 0.262451 0.936035 0.314453 0.868408 0.264404 0.868408 0.264404 0.936035 0.314453 0.862061 0.320068 0.868408 0.264404 0.862061 0.320068 0.80835 0.302979 0.862061 0.320068 0.936035 0.314453 0.9021 0.338867 0.862061 0.320068 0.9021 0.338867 0.856445 0.354736 0.862061 0.320068 0.856445 0.354736 0.807617 0.403076 0.192871 0.586182 0.237061 0.552002 0.258301 0.594971 0.237061 0.552002 0.192871 0.586182 0.166748 0.550537 0.237061 0.552002 0.166748 0.550537 0.232666 0.495117 0.227295 0.450928 0.27832 0.462402 0.232666 0.495117 0.227295 0.450928 0.232666 0.495117 0.15625 0.498047 0.15625 0.498047 0.232666 0.495117 0.166748 0.550537 0.227295 0.450928 0.15625 0.498047 0.159424 0.420898 0.159424 0.420898 0.15625 0.498047 0.136475 0.489502 0.136475 0.489502 0.15625 0.498047 0.166748 0.550537 0.172607 0.58252 0.166748 0.550537 0.192871 0.586182 0.172607 0.58252 0.192871 0.586182 0.179199 0.647949 0.136475 0.489502 0.166748 0.550537 0.129639 0.520996 0.129639 0.520996 0.166748 0.550537 0.172607 0.58252 0.136475 0.489502 0.129639 0.520996 0.101807 0.462402 0.172607 0.58252 0.179199 0.647949 0.147461 0.584961 0.172607 0.58252 0.147461 0.584961 0.129639 0.520996 0.147461 0.584961 0.179199 0.647949 0.152588 0.646729 0.129639 0.520996 0.147461 0.584961 0.119629 0.541748 0.119629 0.541748 0.147461 0.584961 0.118896 0.580078 0.129639 0.520996 0.119629 0.541748 0.079346 0.515869 0.079346 0.515869 0.119629 0.541748 0.070801 0.526611 0.011475 0.428223 0 0.471191 0.000244 0.406738 0.564697 0.546875 0.589111 0.471191 0.594238 0.504639 0.630127 0.455566 0.646973 0.500244 0.594238 0.504639 0.564697 0.546875 0.594238 0.504639 0.597656 0.576172 0.597656 0.576172 0.594238 0.504639 0.646973 0.500244 0.537109 0.609863 0.518066 0.584229 0.564697 0.546875 0.597656 0.576172 0.646973 0.500244 0.644043 0.55249 0.644043 0.55249 0.646973 0.500244 0.706787 0.501221 0.564697 0.546875 0.597656 0.576172 0.56543 0.611816 0.564697 0.546875 0.56543 0.611816 0.537109 0.609863 0.644043 0.55249 0.706787 0.501221 0.649658 0.590088 0.644043 0.55249 0.649658 0.590088 0.597656 0.576172 0.649658 0.590088 0.706787 0.501221 0.718262 0.526855 0.56543 0.611816 0.597656 0.576172 0.664062 0.625244 0.664062 0.625244 0.597656 0.576172 0.649658 0.590088 0.537109 0.609863 0.56543 0.611816 0.52832 0.642578 0.537109 0.609863 0.52832 0.642578 0.501221 0.623535 0.501221 0.623535 0.52832 0.642578 0.49585 0.685547 0.49585 0.685547 0.52832 0.642578 0.523682 0.689209 0.523682 0.689209 0.52832 0.642578 0.537354 0.670654 0.52832 0.642578 0.56543 0.611816 0.599121 0.655762 0.52832 0.642578 0.599121 0.655762 0.537354 0.670654 0.599121 0.655762 0.56543 0.611816 0.664062 0.625244 0.537354 0.670654 0.599121 0.655762 0.61792 0.680176 0.61792 0.680176 0.599121 0.655762 0.67334 0.668945 0.67334 0.668945 0.599121 0.655762 0.664062 0.625244 0.742432 0.691406 0.668213 0.682861 0.67334 0.668945 0.742432 0.691406 0.67334 0.668945 0.746338 0.676025 0.746338 0.676025 0.67334 0.668945 0.664062 0.625244 0.746338 0.676025 0.664062 0.625244 0.69873 0.592041 0.69873 0.592041 0.664062 0.625244 0.649658 0.590088 0.746338 0.676025 0.69873 0.592041 0.738037 0.532471 0.69873 0.592041 0.649658 0.590088 0.718262 0.526855 0.69873 0.592041 0.718262 0.526855 0.738037 0.532471 0.610107 0.80957 0.669678 0.790527 0.68042 0.830566 0.62085 0.851074 0.68042 0.830566 0.662842 0.86377 0.68042 0.830566 0.62085 0.851074 0.610107 0.80957 0.610107 0.80957 0.62085 0.851074 0.551025 0.841064 0.669678 0.790527 0.610107 0.80957 0.62915 0.747314 0.669678 0.790527 0.62915 0.747314 0.68457 0.728271 0.68457 0.728271 0.62915 0.747314 0.647461 0.681885 0.647461 0.681885 0.62915 0.747314 0.576416 0.704102 0.62915 0.747314 0.610107 0.80957 0.553467 0.792969 0.553467 0.792969 0.610107 0.80957 0.551025 0.841064 0.62915 0.747314 0.553467 0.792969 0.576416 0.704102 0.553467 0.792969 0.551025 0.841064 0.514648 0.843018 0.576416 0.704102 0.553467 0.792969 0.529541 0.774902 0.529541 0.774902 0.553467 0.792969 0.514648 0.843018 0.576416 0.704102 0.529541 0.774902 0.549072 0.682373 0.549072 0.682373 0.529541 0.774902 0.525879 0.695068 0.529541 0.774902 0.514648 0.843018 0.4729 0.7854 0.525879 0.695068 0.529541 0.774902 0.471436 0.69043 0.471436 0.69043 0.529541 0.774902 0.4729 0.7854 0.471436 0.69043 0.4729 0.7854 0.455078 0.700928 0.474609 0.81958 0.411133 0.84668 0.463135 0.773438 0.411133 0.84668 0.474609 0.81958 0.507324 0.910645 0.411133 0.84668 0.507324 0.910645 0.486816 0.948242 0.463135 0.773438 0.411133 0.84668 0.393555 0.79834 0.411133 0.84668 0.486816 0.948242 0.409912 0.917725 0.393555 0.79834 0.411133 0.84668 0.355713 0.82251 0.393555 0.79834 0.355713 0.82251 0.39624 0.78418 0.411133 0.84668 0.409912 0.917725 0.36792 0.87207 0.411133 0.84668 0.36792 0.87207 0.355713 0.82251 0.355713 0.82251 0.36792 0.87207 0.30127 0.857666 0.36792 0.87207 0.409912 0.917725 0.376221 0.952148 0.30127 0.857666 0.36792 0.87207 0.307373 0.879639 0.307373 0.879639 0.36792 0.87207 0.376221 0.952148 0.307373 0.879639 0.376221 0.952148 0.35791 0.947266 0.307373 0.879639 0.35791 0.947266 0.298584 0.89502 0.00293 0.386719 0.022461 0.373047 0.019287 0.432129 0.038086 0.133057 0.068115 0.22583 0.0271 0.237305 0.277832 0.894531 0.371094 0.966309 0.276611 0.956299 0.276611 0.956299 0.371094 0.966309 0.313232 1 0.276611 0.956299 0.313232 1 0.244629 0.98877 0.020752 0.743164 0.050049 0.80835 0.020752 0.812988 0.050049 0.80835 0.020752 0.743164 0.066406 0.718018 0.066406 0.718018 0.020752 0.743164 0.021729 0.675781 0.125244 0.593018 0.142822 0.602783 0.130859 0.647217 0.130859 0.647217 0.142822 0.602783 0.148926 0.675049 0.130859 0.647217 0.148926 0.675049 0.134033 0.719971 0.130859 0.647217 0.134033 0.719971 0.120605 0.693848 0.125244 0.593018 0.130859 0.647217 0.117188 0.639893 0.117188 0.639893 0.130859 0.647217 0.120605 0.693848 0.125244 0.593018 0.117188 0.639893 0.108154 0.587402 0.088867 0.741455 0.085205 0.708008 0.120605 0.693848 0.120605 0.693848 0.085205 0.708008 0.100098 0.667725 0.120605 0.693848 0.100098 0.667725 0.117188 0.639893 0.100098 0.667725 0.085205 0.708008 0.069824 0.672607 0.108154 0.587402 0.117188 0.639893 0.094482 0.628906 0.094482 0.628906 0.117188 0.639893 0.100098 0.667725 0.094482 0.628906 0.100098 0.667725 0.069824 0.672607 0.108154 0.587402 0.094482 0.628906 0.093018 0.593994 0.094482 0.628906 0.069824 0.672607 0.065674 0.653564 0.094482 0.628906 0.065674 0.653564 0.093018 0.593994 0.065674 0.653564 0.069824 0.672607 0.047119 0.691162 0.093018 0.593994 0.065674 0.653564 0.05835 0.645264 0.093018 0.593994 0.05835 0.645264 0.086426 0.592041 0.093018 0.593994 0.086426 0.592041 0.094238 0.577148 0.086426 0.592041 0.05835 0.645264 0.028809 0.622559 0.086426 0.592041 0.028809 0.622559 0.060547 0.569336 0.060547 0.569336 0.028809 0.622559 0.047607 0.55957 0.086426 0.592041 0.060547 0.569336 0.083008 0.578857 0.070312 0.837646 0.070312 0.926025 0.021729 0.911865 0.001221 0.377441 0.001221 0.321777 0.015137 0.370117</float_array>
          <technique_common>
            <accessor source="#FightersFoot-mesh-map-0-array" count="1500" stride="2">
              <param name="S" type="float"/>
              <param name="T" type="float"/>
            </accessor>
          </technique_common>
        </source>
        <vertices id="FightersFoot-mesh-vertices">
          <input semantic="POSITION" source="#FightersFoot-mesh-positions"/>
        </vertices>
        <polylist material="Material_-1-material" count="6">
          <input semantic="VERTEX" source="#FightersFoot-mesh-vertices" offset="0"/>
          <input semantic="NORMAL" source="#FightersFoot-mesh-normals" offset="1"/>
          <input semantic="TEXCOORD" source="#FightersFoot-mesh-map-0" offset="2" set="0"/>
          <vcount>3 3 3 3 3 3 3 3 3 3 3 3 3 3 3 3 3 3 3 3 3 3 3 3 3 3 3 3 3 3 3 3 3 3 3 3 3 3 3 3 3 3 3 3 3 3 3 3 3 3 3 3 3 3 3 3 3 3 3 3 3 3 3 3 3 3 3 3 3 3 3 3 3 3 3 3 3 3 3 3 3 3 3 3 3 3 3 3 3 3 3 3 3 3 3 3 3 3 3 3 3 3 3 3 3 3 3 3 3 3 3 3 3 3 3 3 3 3 3 3 3 3 3 3 3 3 3 3 3 3 3 3 3 3 3 3 3 3 3 3 3 3 3 3 3 3 3 3 3 3 3 3 3 3 3 3 3 3 3 3 3 3 3 3 3 3 3 3 3 3 3 3 3 3 3 3 3 3 3 3 3 3 3 3 3 3 3 3 3 3 3 3 3 3 3 3 3 3 3 3 3 3 3 3 3 3 3 3 3 3 3 3 3 3 3 3 3 3 3 3 3 3 3 3 3 3 3 3 3 3 3 3 3 3 3 3 3 3 3 3 3 3 3 3 3 3 3 3 3 3 3 3 3 3 3 3 3 3 3 3 3 3 3 3 3 3 3 3 3 3 3 3 3 3 3 3 3 3 3 3 3 3 3 3 3 3 3 3 3 3 3 3 3 3 3 3 3 3 3 3 3 3 3 3 3 3 3 3 3 3 3 3 3 3 3 3 3 3 3 3 3 3 3 3 3 3 3 3 3 3 3 3 3 3 3 3 3 3 3 3 3 3 3 3 3 3 3 3 3 3 3 3 3 3 3 3 3 3 3 3 3 3 3 3 3 3 3 3 3 3 3 3 3 3 3 3 3 3 3 3 3 3 3 3 3 3 3 3 3 3 3 3 3 3 3 3 3 3 3 3 3 3 3 3 3 3 3 3 3 3 3 3 3 3 3 3 3 3 3 3 3 3 3 3 3 3 3 3 3 3 3 3 3 3 3 3 3 3 3 3 3 3 3 3 3 3 3 3 3 3 3 3 3 3 3 3 3 3 3 3 3 3 3 3 3 3 3 3 3 3 3 3 3 3 3 3 3 3 3 3 3 3 3 3 3 3 3 3 3 3 3 3 3 3 3 3 3 3 3 3</vcount>
          <p>0 0 0 1 0 1 2 0 2 0 1 3 2 1 4 3 1 5 2 2 6 1 2 7 4 2 8 4 3 9 1 3 10 5 3 11 1 4 12 0 4 13 6 4 14 5 5 15 1 5 16 7 5 17 7 6 18 1 6 19 6 6 20 7 7 21 6 7 22 8 7 23 5 8 24 7 8 25 9 8 26 9 9 27 7 9 28 10 9 29 9 10 30 10 10 31 11 10 32 9 11 33 11 11 34 5 11 35 5 12 36 11 12 37 12 12 38 12 13 39 11 13 40 13 13 41 12 14 42 13 14 43 14 14 44 15 15 45 6 15 46 0 15 47 6 16 48 15 16 49 16 16 50 15 17 51 0 17 52 17 17 53 17 18 54 0 18 55 18 18 56 15 19 57 17 19 58 19 19 59 15 20 60 19 20 61 20 20 62 17 21 63 18 21 64 21 21 65 17 22 66 21 22 67 19 22 68 21 23 69 18 23 70 22 23 71 19 24 72 21 24 73 23 24 74 21 25 75 22 25 76 24 25 77 23 26 78 21 26 79 25 26 80 23 27 81 25 27 82 26 27 83 21 28 84 24 28 85 27 28 86 21 29 87 27 29 88 25 29 89 27 30 90 24 30 91 28 30 92 25 31 93 27 31 94 29 31 95 2 32 96 4 32 97 30 32 98 2 33 99 30 33 100 3 33 101 3 34 102 30 34 103 31 34 104 30 35 105 4 35 106 32 35 107 30 36 108 32 36 109 31 36 110 32 37 111 4 37 112 5 37 113 31 38 114 32 38 115 33 38 116 34 39 117 27 39 118 28 39 119 27 40 120 34 40 121 35 40 122 34 41 123 28 41 124 36 41 125 34 42 126 36 42 127 37 42 128 37 43 129 36 43 130 38 43 131 34 44 132 37 44 133 39 44 134 37 45 135 38 45 136 40 45 137 39 46 138 37 46 139 41 46 140 41 47 141 37 47 142 40 47 143 18 48 144 0 48 145 3 48 146 18 49 147 3 49 148 42 49 149 42 50 150 3 50 151 43 50 152 18 51 153 42 51 154 44 51 155 18 52 156 44 52 157 22 52 158 42 53 159 43 53 160 45 53 161 43 54 162 3 54 163 46 54 164 43 55 165 46 55 166 45 55 167 46 56 168 3 56 169 31 56 170 46 57 171 31 57 172 47 57 173 45 58 174 46 58 175 48 58 176 42 59 177 45 59 178 49 59 179 42 60 180 49 60 181 44 60 182 49 61 183 45 61 184 50 61 185 44 62 186 49 62 187 51 62 188 51 63 189 49 63 190 52 63 191 51 64 192 52 64 193 53 64 194 51 65 195 53 65 196 54 65 197 51 66 198 54 66 199 44 66 200 44 67 201 54 67 202 22 67 203 22 68 204 54 68 205 24 68 206 24 69 207 54 69 208 55 69 209 28 70 210 24 70 211 55 70 212 28 71 213 55 71 214 36 71 215 36 72 216 55 72 217 38 72 218 16 73 219 8 73 220 6 73 221 8 74 222 16 74 223 56 74 224 8 75 225 56 75 226 57 75 227 8 76 228 57 76 229 58 76 230 58 77 231 57 77 232 59 77 233 58 78 234 59 78 235 60 78 236 58 79 237 60 79 238 13 79 239 56 80 240 16 80 241 61 80 242 56 81 243 61 81 244 62 81 245 61 82 246 16 82 247 20 82 248 20 83 249 16 83 250 15 83 251 61 84 252 20 84 253 63 84 254 63 85 255 20 85 256 64 85 257 23 86 258 20 86 259 19 86 260 20 87 261 23 87 262 26 87 263 20 88 264 26 88 265 64 88 266 64 89 267 26 89 268 29 89 269 29 90 270 26 90 271 25 90 272 64 91 273 29 91 274 65 91 275 65 92 276 29 92 277 66 92 278 7 93 279 8 93 280 10 93 281 10 94 282 8 94 283 58 94 284 10 95 285 58 95 286 11 95 287 11 96 288 58 96 289 13 96 290 27 97 291 35 97 292 29 97 293 67 98 294 53 98 295 52 98 296 53 99 297 67 99 298 68 99 299 68 100 300 67 100 301 69 100 302 67 101 303 52 101 304 70 101 305 69 102 306 67 102 307 71 102 308 71 103 309 67 103 310 72 103 311 72 104 312 67 104 313 70 104 314 71 105 315 72 105 316 73 105 317 73 106 318 72 106 319 74 106 320 72 107 321 70 107 322 75 107 323 72 108 324 75 108 325 74 108 326 75 109 327 70 109 328 76 109 329 74 110 330 75 110 331 77 110 332 77 111 333 75 111 334 76 111 335 77 112 336 76 112 337 78 112 338 74 113 339 77 113 340 79 113 341 79 114 342 77 114 343 80 114 344 50 115 345 45 115 346 48 115 347 50 116 348 48 116 349 81 116 350 50 117 351 81 117 352 82 117 353 50 118 354 82 118 355 83 118 356 82 119 357 81 119 358 84 119 359 83 120 360 82 120 361 85 120 362 85 121 363 82 121 364 84 121 365 48 122 366 46 122 367 47 122 368 48 123 369 47 123 370 81 123 371 81 124 372 47 124 373 84 124 374 31 125 375 33 125 376 47 125 377 47 126 378 33 126 379 86 126 380 47 127 381 86 127 382 84 127 383 86 128 384 33 128 385 87 128 386 84 129 387 86 129 388 88 129 389 88 130 390 86 130 391 87 130 392 84 131 393 88 131 394 85 131 395 88 132 396 87 132 397 89 132 398 88 133 399 89 133 400 85 133 401 89 134 402 87 134 403 90 134 404 89 135 405 90 135 406 85 135 407 85 136 408 90 136 409 83 136 410 83 137 411 90 137 412 50 137 413 50 138 414 90 138 415 49 138 416 91 139 417 32 139 418 5 139 419 32 140 420 91 140 421 33 140 422 12 141 423 91 141 424 5 141 425 91 142 426 12 142 427 33 142 428 33 143 429 12 143 430 92 143 431 33 144 432 92 144 433 87 144 434 87 145 435 92 145 436 93 145 437 92 146 438 12 146 439 94 146 440 93 147 441 92 147 442 95 147 443 95 148 444 92 148 445 94 148 446 93 149 447 95 149 448 96 149 449 94 150 450 12 150 451 14 150 452 96 151 453 95 151 454 97 151 455 96 152 456 97 152 457 98 152 458 97 153 459 95 153 460 99 153 461 99 154 462 95 154 463 94 154 464 99 155 465 94 155 466 100 155 467 100 156 468 94 156 469 101 156 470 101 157 471 94 157 472 14 157 473 101 158 474 14 158 475 102 158 476 90 159 477 87 159 478 93 159 479 52 160 480 49 160 481 90 160 482 52 161 483 90 161 484 70 161 485 70 162 486 90 162 487 93 162 488 70 163 489 93 163 490 103 163 491 70 164 492 103 164 493 76 164 494 103 165 495 93 165 496 96 165 497 76 166 498 103 166 499 78 166 500 103 167 501 96 167 502 98 167 503 103 168 504 98 168 505 78 168 506 98 169 507 104 169 508 105 169 509 98 170 510 105 170 511 78 170 512 104 171 513 98 171 514 97 171 515 104 172 516 97 172 517 99 172 518 104 173 519 99 173 520 100 173 521 78 174 522 105 174 523 106 174 524 78 175 525 106 175 526 77 175 527 77 176 528 106 176 529 80 176 530 106 177 531 105 177 532 107 177 533 107 178 534 105 178 535 104 178 536 106 179 537 107 179 538 108 179 539 108 180 540 107 180 541 109 180 542 107 181 543 104 181 544 110 181 545 107 182 546 110 182 547 109 182 548 110 183 549 104 183 550 100 183 551 109 184 552 110 184 553 111 184 554 109 185 555 111 185 556 112 185 557 111 186 558 110 186 559 113 186 560 113 187 561 110 187 562 100 187 563 113 188 564 100 188 565 101 188 566 114 189 567 40 189 568 115 189 569 115 190 570 40 190 571 116 190 572 116 191 573 40 191 574 38 191 575 114 192 576 115 192 577 117 192 578 40 193 579 114 193 580 118 193 581 40 194 582 118 194 583 41 194 584 114 195 585 117 195 586 119 195 587 119 196 588 117 196 589 120 196 590 118 197 591 114 197 592 121 197 593 118 198 594 121 198 595 41 198 596 121 199 597 114 199 598 119 199 599 41 200 600 121 200 601 122 200 602 121 201 603 119 201 604 123 201 605 121 202 606 123 202 607 122 202 608 116 203 609 38 203 610 124 203 611 124 204 612 38 204 613 55 204 614 124 205 615 55 205 616 53 205 617 53 206 618 55 206 619 54 206 620 124 207 621 53 207 622 68 207 623 124 208 624 68 208 625 125 208 626 125 209 627 68 209 628 69 209 629 123 210 630 119 210 631 120 210 632 123 211 633 120 211 634 126 211 635 123 212 636 126 212 637 127 212 638 123 213 639 127 213 640 128 213 641 123 214 642 128 214 643 122 214 644 122 215 645 128 215 646 129 215 647 128 216 648 127 216 649 130 216 650 128 217 651 130 217 652 131 217 653 130 218 654 127 218 655 132 218 656 130 219 657 132 219 658 133 219 659 133 220 660 132 220 661 134 220 662 133 221 663 134 221 664 135 221 665 116 222 666 125 222 667 136 222 668 125 223 669 116 223 670 124 223 671 136 224 672 125 224 673 137 224 674 136 225 675 137 225 676 138 225 677 138 226 678 137 226 679 139 226 680 116 227 681 136 227 682 140 227 683 116 228 684 140 228 685 115 228 686 136 229 687 138 229 688 141 229 689 136 230 690 141 230 691 140 230 692 141 231 693 138 231 694 142 231 695 141 232 696 142 232 697 143 232 698 141 233 699 143 233 700 140 233 701 140 234 702 143 234 703 144 234 704 115 235 705 140 235 706 117 235 707 140 236 708 144 236 709 145 236 710 117 237 711 140 237 712 126 237 713 126 238 714 140 238 715 145 238 716 117 239 717 126 239 718 120 239 719 126 240 720 145 240 721 127 240 722 35 241 723 34 241 724 39 241 725 35 242 726 39 242 727 66 242 728 35 243 729 66 243 730 29 243 731 66 244 732 39 244 733 146 244 734 66 245 735 146 245 736 65 245 737 146 246 738 39 246 739 147 246 740 147 247 741 39 247 742 41 247 743 147 248 744 41 248 745 122 248 746 146 249 747 147 249 748 148 249 749 148 250 750 147 250 751 122 250 752 146 251 753 148 251 754 149 251 755 148 252 756 122 252 757 129 252 758 149 253 759 148 253 760 150 253 761 150 254 762 148 254 763 129 254 764 150 255 765 129 255 766 131 255 767 131 256 768 129 256 769 128 256 770 150 257 771 131 257 772 151 257 773 151 258 774 131 258 775 152 258 776 151 259 777 152 259 778 153 259 779 153 260 780 152 260 781 154 260 782 154 261 783 152 261 784 155 261 785 152 262 786 131 262 787 133 262 788 133 263 789 131 263 790 130 263 791 152 264 792 133 264 793 135 264 794 152 265 795 135 265 796 155 265 797 155 266 798 135 266 799 156 266 800 157 267 801 135 267 802 158 267 803 135 268 804 157 268 805 156 268 806 158 269 807 135 269 808 134 269 809 157 270 810 158 270 811 159 270 812 159 271 813 158 271 814 73 271 815 73 272 816 158 272 817 71 272 818 159 273 819 73 273 820 160 273 821 160 274 822 73 274 823 74 274 824 137 275 825 125 275 826 161 275 827 137 276 828 161 276 829 139 276 830 161 277 831 125 277 832 69 277 833 161 278 834 69 278 835 162 278 836 161 279 837 162 279 838 163 279 839 162 280 840 69 280 841 164 280 842 162 281 843 164 281 844 165 281 845 164 282 846 69 282 847 166 282 848 166 283 849 69 283 850 71 283 851 164 284 852 166 284 853 143 284 854 164 285 855 143 285 856 167 285 857 167 286 858 143 286 859 142 286 860 143 287 861 166 287 862 144 287 863 144 288 864 166 288 865 145 288 866 142 289 867 138 289 868 139 289 869 142 290 870 139 290 871 168 290 872 142 291 873 168 291 874 167 291 875 168 292 876 139 292 877 169 292 878 169 293 879 139 293 880 161 293 881 169 294 882 161 294 883 163 294 884 168 295 885 169 295 886 170 295 887 170 296 888 169 296 889 163 296 890 168 297 891 170 297 892 167 297 893 170 298 894 163 298 895 165 298 896 170 299 897 165 299 898 167 299 899 165 300 900 163 300 901 162 300 902 167 301 903 165 301 904 164 301 905 71 302 906 158 302 907 166 302 908 166 303 909 158 303 910 134 303 911 166 304 912 134 304 913 145 304 914 145 305 915 134 305 916 127 305 917 127 306 918 134 306 919 132 306 920 171 307 921 80 307 922 106 307 923 171 308 924 106 308 925 108 308 926 80 309 927 171 309 928 172 309 929 172 310 930 171 310 931 108 310 932 80 311 933 172 311 934 79 311 935 172 312 936 108 312 937 109 312 938 160 313 939 74 313 940 79 313 941 160 314 942 79 314 943 173 314 944 173 315 945 79 315 946 172 315 947 160 316 948 173 316 949 159 316 950 172 317 951 109 317 952 174 317 953 172 318 954 174 318 955 173 318 956 159 319 957 173 319 958 175 319 959 175 320 960 173 320 961 174 320 962 159 321 963 175 321 964 157 321 965 174 322 966 109 322 967 176 322 968 174 323 969 176 323 970 175 323 971 176 324 972 109 324 973 112 324 974 176 325 975 112 325 976 177 325 977 175 326 978 176 326 979 178 326 980 175 327 981 178 327 982 157 327 983 178 328 984 176 328 985 179 328 986 157 329 987 178 329 988 180 329 989 157 330 990 180 330 991 156 330 992 62 331 993 181 331 994 56 331 995 56 332 996 181 332 997 57 332 998 181 333 999 62 333 1000 182 333 1001 182 334 1002 62 334 1003 183 334 1004 182 335 1005 183 335 1006 184 335 1007 181 336 1008 182 336 1009 185 336 1010 181 337 1011 185 337 1012 186 337 1013 181 338 1014 186 338 1015 57 338 1016 57 339 1017 186 339 1018 59 339 1019 182 340 1020 184 340 1021 187 340 1022 182 341 1023 187 341 1024 185 341 1025 183 342 1026 188 342 1027 184 342 1028 184 343 1029 188 343 1030 189 343 1031 184 344 1032 189 344 1033 187 344 1034 189 345 1035 188 345 1036 190 345 1037 190 346 1038 188 346 1039 191 346 1040 190 347 1041 191 347 1042 192 347 1043 189 348 1044 190 348 1045 193 348 1046 193 349 1047 190 349 1048 194 349 1049 194 350 1050 190 350 1051 192 350 1052 194 351 1053 192 351 1054 195 351 1055 196 352 1056 187 352 1057 189 352 1058 187 353 1059 196 353 1060 185 353 1061 196 354 1062 189 354 1063 197 354 1064 196 355 1065 197 355 1066 198 355 1067 196 356 1068 198 356 1069 199 356 1070 196 357 1071 199 357 1072 185 357 1073 185 358 1074 199 358 1075 186 358 1076 186 359 1077 199 359 1078 59 359 1079 59 360 1080 199 360 1081 60 360 1082 60 361 1083 199 361 1084 200 361 1085 200 362 1086 199 362 1087 201 362 1088 61 363 1089 63 363 1090 62 363 1091 188 364 1092 183 364 1093 62 364 1094 188 365 1095 62 365 1096 191 365 1097 191 366 1098 62 366 1099 63 366 1100 65 367 1101 63 367 1102 64 367 1103 63 368 1104 65 368 1105 202 368 1106 63 369 1107 202 369 1108 191 369 1109 191 370 1110 202 370 1111 203 370 1112 191 371 1113 203 371 1114 192 371 1115 203 372 1116 202 372 1117 204 372 1118 203 373 1119 204 373 1120 205 373 1121 203 374 1122 205 374 1123 206 374 1124 193 375 1125 197 375 1126 189 375 1127 197 376 1128 193 376 1129 207 376 1130 197 377 1131 207 377 1132 198 377 1133 201 378 1134 199 378 1135 198 378 1136 201 379 1137 198 379 1138 208 379 1139 208 380 1140 198 380 1141 207 380 1142 201 381 1143 208 381 1144 209 381 1145 209 382 1146 208 382 1147 210 382 1148 210 383 1149 208 383 1150 207 383 1151 211 384 1152 207 384 1153 193 384 1154 211 385 1155 193 385 1156 194 385 1157 210 386 1158 207 386 1159 212 386 1160 212 387 1161 207 387 1162 211 387 1163 210 388 1164 212 388 1165 213 388 1166 211 389 1167 194 389 1168 214 389 1169 211 390 1170 214 390 1171 212 390 1172 214 391 1173 194 391 1174 195 391 1175 212 392 1176 214 392 1177 215 392 1178 215 393 1179 214 393 1180 216 393 1181 212 394 1182 215 394 1183 217 394 1184 217 395 1185 215 395 1186 218 395 1187 192 396 1188 203 396 1189 206 396 1190 195 397 1191 192 397 1192 206 397 1193 205 398 1194 219 398 1195 206 398 1196 195 399 1197 206 399 1198 220 399 1199 220 400 1200 206 400 1201 219 400 1202 216 401 1203 214 401 1204 195 401 1205 220 402 1206 219 402 1207 221 402 1208 221 403 1209 219 403 1210 222 403 1211 195 404 1212 220 404 1213 223 404 1214 195 405 1215 223 405 1216 216 405 1217 221 406 1218 222 406 1219 224 406 1220 221 407 1221 224 407 1222 220 407 1223 224 408 1224 222 408 1225 225 408 1226 223 409 1227 220 409 1228 226 409 1229 226 410 1230 220 410 1231 224 410 1232 216 411 1233 223 411 1234 227 411 1235 216 412 1236 227 412 1237 215 412 1238 215 413 1239 227 413 1240 218 413 1241 218 414 1242 227 414 1243 228 414 1244 228 415 1245 227 415 1246 229 415 1247 227 416 1248 223 416 1249 230 416 1250 227 417 1251 230 417 1252 229 417 1253 230 418 1254 223 418 1255 226 418 1256 229 419 1257 230 419 1258 231 419 1259 231 420 1260 230 420 1261 232 420 1262 232 421 1263 230 421 1264 226 421 1265 153 422 1266 233 422 1267 232 422 1268 153 423 1269 232 423 1270 234 423 1271 234 424 1272 232 424 1273 226 424 1274 234 425 1275 226 425 1276 235 425 1277 235 426 1278 226 426 1279 224 426 1280 234 427 1281 235 427 1282 236 427 1283 235 428 1284 224 428 1285 225 428 1286 235 429 1287 225 429 1288 236 429 1289 237 430 1290 204 430 1291 202 430 1292 146 431 1293 202 431 1294 65 431 1295 202 432 1296 146 432 1297 237 432 1298 237 433 1299 146 433 1300 149 433 1301 204 434 1302 237 434 1303 238 434 1304 204 435 1305 238 435 1306 205 435 1307 205 436 1308 238 436 1309 219 436 1310 219 437 1311 238 437 1312 222 437 1313 238 438 1314 237 438 1315 239 438 1316 239 439 1317 237 439 1318 149 439 1319 238 440 1320 239 440 1321 222 440 1322 239 441 1323 149 441 1324 150 441 1325 222 442 1326 239 442 1327 240 442 1328 240 443 1329 239 443 1330 150 443 1331 222 444 1332 240 444 1333 225 444 1334 225 445 1335 240 445 1336 236 445 1337 240 446 1338 150 446 1339 151 446 1340 236 447 1341 240 447 1342 234 447 1343 234 448 1344 240 448 1345 151 448 1346 234 449 1347 151 449 1348 153 449 1349 154 450 1350 241 450 1351 153 450 1352 241 451 1353 154 451 1354 155 451 1355 241 452 1356 155 452 1357 156 452 1358 153 453 1359 241 453 1360 233 453 1361 241 454 1362 156 454 1363 242 454 1364 233 455 1365 241 455 1366 231 455 1367 233 456 1368 231 456 1369 232 456 1370 241 457 1371 242 457 1372 243 457 1373 241 458 1374 243 458 1375 231 458 1376 231 459 1377 243 459 1378 229 459 1379 243 460 1380 242 460 1381 244 460 1382 229 461 1383 243 461 1384 228 461 1385 228 462 1386 243 462 1387 244 462 1388 228 463 1389 244 463 1390 245 463 1391 228 464 1392 245 464 1393 218 464 1394 14 465 1395 13 465 1396 102 465 1397 13 466 1398 60 466 1399 200 466 1400 13 467 1401 200 467 1402 102 467 1403 102 468 1404 200 468 1405 246 468 1406 102 469 1407 246 469 1408 101 469 1409 246 470 1410 113 470 1411 101 470 1412 113 471 1413 246 471 1414 209 471 1415 209 472 1416 246 472 1417 201 472 1418 111 473 1419 113 473 1420 247 473 1421 247 474 1422 113 474 1423 209 474 1424 247 475 1425 209 475 1426 210 475 1427 247 476 1428 210 476 1429 213 476 1430 111 477 1431 247 477 1432 248 477 1433 248 478 1434 247 478 1435 213 478 1436 111 479 1437 248 479 1438 112 479 1439 212 480 1440 217 480 1441 213 480 1442 213 481 1443 217 481 1444 249 481 1445 213 482 1446 249 482 1447 248 482 1448 249 483 1449 217 483 1450 250 483 1451 112 484 1452 248 484 1453 251 484 1454 251 485 1455 248 485 1456 249 485 1457 251 486 1458 249 486 1459 250 486 1460 112 487 1461 251 487 1462 177 487 1463 251 488 1464 250 488 1465 245 488 1466 251 489 1467 245 489 1468 177 489 1469 245 490 1470 250 490 1471 218 490 1472 177 491 1473 245 491 1474 244 491 1475 177 492 1476 244 492 1477 179 492 1478 177 493 1479 179 493 1480 176 493 1481 179 494 1482 244 494 1483 242 494 1484 179 495 1485 242 495 1486 180 495 1487 180 496 1488 242 496 1489 156 496 1490 179 497 1491 180 497 1492 178 497 1493 246 498 1494 200 498 1495 201 498 1496 218 499 1497 250 499 1498 217 499 1499</p>
        </polylist>
      </mesh>
    </geometry>
  </library_geometries>
  <library_visual_scenes>
    <visual_scene id="Scene" name="Scene">
      <node id="FightersFoot" name="FightersFoot" type="NODE">
        <scale sid="scale">1 1 1</scale>
        <translate sid="location">0 0 0</translate>
        <rotate sid="rotationX">1 0 0 0</rotate>
        <rotate sid="rotationY">0 1 0 -180</rotate>
        <rotate sid="rotationZ">0 0 1 0</rotate>
        <instance_geometry url="#FightersFoot-mesh" name="FightersFoot">
          <bind_material>
            <technique_common>
            </technique_common>
          </bind_material>
        </instance_geometry>
      </node>
    </visual_scene>
  </library_visual_scenes>
  <scene>
    <instance_visual_scene url="#Scene"/>
  </scene>
</COLLADA>
