<?xml version="1.0" encoding="utf-8"?>
<COLLADA xmlns="http://www.collada.org/2005/11/COLLADASchema" version="1.4.1" xmlns:xsi="http://www.w3.org/2001/XMLSchema-instance">
  <asset>
    <contributor>
      <author>Blockbench user</author>
      <authoring_tool>Blockbench</authoring_tool>
    </contributor>
    <created>2026-01-01T13:20:50.902Z</created>
    <modified>2026-01-01T13:20:50.909Z</modified>
    <unit name="meter" meter="1.0"/>
    <up_axis>Y_UP</up_axis>
  </asset>
  <library_effects>
  </library_effects>
  <library_images>
  </library_images>
  <library_materials>
  </library_materials>
  <library_geometries>
    <geometry id="FishOil-mesh" name="FishOil">
      <mesh>
        <source id="FishOil-mesh-positions">
          <float_array id="FishOil-mesh-positions-array" count="714">-0.033527 -0.398895 0.247269 0.041702 -0.405396 0.245392 0.012524 -0.250153 0.247864 -0.089737 -0.284698 0.23764 0.105965 -0.31778 0.232315 -0.099533 -0.419525 0.233322 0.009929 -0.450806 0.239792 -0.104965 -0.462433 0.216949 0.117393 -0.443298 0.220917 0.182709 -0.395844 0.184769 0.152176 -0.247955 0.206467 0.002749 -0.480103 0.215469 -0.050629 -0.494659 0.180969 0.101944 -0.475403 0.204224 0.070732 -0.497498 0.161026 0.020401 -0.493835 0.015092 0.151184 -0.498108 0.092773 0.175964 -0.475433 0.145645 0.215179 -0.479767 0.010524 0.224182 -0.452972 0.101418 0.186523 -0.450562 0.171112 0.223923 -0.334015 0.120399 0.24678 -0.4104 0.034138 0.18837 -0.211594 0.179291 -0.03336 -0.120071 0.246902 0.097237 -0.126755 0.236023 -0.017817 0.065163 0.247543 -0.000746 0.17215 0.249664 0.022329 0.20723 0.236755 -0.078125 0.191528 0.235794 0.06308 0.2314 0.203964 -0.037331 0.263184 0.156204 -0.054153 0.218506 0.221252 -0.134094 0.207504 0.204391 0.065125 0.154388 0.241882 0.116211 0.198425 0.219467 -0.119804 0.159973 0.223907 -0.178299 0.177414 0.186935 0.087608 0.055294 0.23848 0.125488 0.14711 0.221939 0.141724 -0.030094 0.212952 -0.110794 0.057293 0.22905 -0.191772 0.116425 0.172913 -0.208237 0.190613 0.141434 -0.182404 -0.088425 0.18573 -0.231812 0.133926 0.108658 -0.208679 0.028397 0.148621 -0.237198 -0.015058 0.088882 -0.131317 -0.141357 0.218826 -0.151215 -0.362213 0.207169 0.18692 0.043701 0.179367 0.227341 -0.09565 0.113304 0.243347 -0.133072 0.06041 0.24617 0.036026 0.040798 0.24765 -0.311584 0.023029 0.179489 0.194336 0.181061 -0.172714 -0.431061 0.1875 -0.20224 -0.331329 0.158279 -0.108292 0.243668 0.161926 -0.186829 0.211716 0.1548 -0.233932 0.197418 0.080872 -0.201004 0.232605 0.059601 -0.14827 0.248657 0.112862 -0.141937 0.275299 0.042065 -0.1138 0.289734 0.091347 -0.07576 0.302002 0.125641 0.022089 0.266846 0.150818 -0.146347 0.319733 0.083672 -0.144485 0.30481 0.029676 -0.104248 0.330048 0.139526 -0.153458 0.388092 0.077171 -0.048073 0.333496 0.16449 0.011332 0.305328 0.151886 -0.113129 0.387177 0.130402 -0.045029 0.428162 0.163284 -0.121819 0.474518 0.113754 -0.150009 0.483185 0.042366 0.223526 0.114418 0.120827 0.21347 0.201477 0.123848 0.247375 0.171204 0.021181 -0.208267 -0.174759 0.149475 -0.236115 -0.245758 0.097481 -0.247025 -0.093224 0.033802 -0.248993 0.067932 0.010122 -0.247284 -0.230209 0.03635 -0.23671 -0.099915 -0.090462 -0.244446 -0.231308 -0.051697 0.008538 0.351532 0.175262 0.077538 0.330353 0.159958 0.087273 0.368835 0.150223 0.034645 0.450012 0.166595 0.028278 0.481323 0.158417 0.087845 0.47049 0.142303 0.090233 0.493408 0.04657 0.13829 0.478821 0.085304 0.135773 0.386566 0.105965 0.132309 0.324219 0.110954 0.162155 0.403015 0.056213 0.171967 0.331146 0.042915 -0.151337 -0.489227 0.149658 -0.134918 -0.498993 0.072311 -0.189102 -0.491608 0.058975 -0.211075 -0.451782 0.127182 -0.236679 -0.455383 0.018106 -0.234756 -0.414337 0.099236 -0.247681 -0.380951 -0.01226 -0.050419 0.478302 0.155441 -0.060799 0.491821 0.089256 0.031502 0.49939 -0.024963 -0.086525 0.494843 -0.032978 -0.158279 0.480621 -0.045082 -0.167892 0.467834 0.009396 -0.156662 0.415283 -0.069099 -0.129364 0.480469 -0.100632 -0.116745 0.438782 -0.12442 -0.056522 0.478638 -0.152985 -0.020288 0.492096 -0.11335 0.030735 0.474518 -0.162155 0.077637 0.490295 -0.099304 0.092751 0.302887 0.114548 0.082245 0.274994 0.121063 0.133255 0.27121 0.060612 0.146866 0.305573 0.047909 0.145142 0.275452 -0.015575 0.153076 0.305725 -0.016523 0.132233 0.310242 -0.082626 0.168839 0.332123 -0.053856 -0.104286 -0.497681 -0.139099 -0.179565 -0.497253 -0.053585 -0.169586 -0.481903 -0.139938 -0.117477 -0.47583 -0.195465 -0.214874 -0.47406 -0.06678 -0.175369 -0.441132 -0.185394 -0.235306 -0.445465 -0.081703 -0.205643 -0.44751 -0.144638 -0.234055 -0.40213 -0.101562 -0.219193 -0.30072 -0.131302 -0.204605 -0.414307 -0.153656 -0.171875 -0.289246 -0.193115 -0.171982 0.331146 0.030043 -0.174194 0.373444 -0.011707 -0.171738 0.337158 -0.052052 -0.143753 0.32489 -0.097549 -0.149353 0.305145 -0.030436 -0.116867 0.304413 -0.088852 -0.146393 0.273834 -0.023266 -0.096939 0.275452 -0.110405 -0.241714 0.159973 0.064651 -0.244858 0.202408 0.008123 -0.249329 0.174667 -0.010888 -0.223877 0.219498 -0.025803 -0.244614 0.096985 -0.051373 -0.234451 0.053051 -0.102058 -0.235962 0.17926 -0.088913 -0.208893 0.209152 -0.122108 -0.214005 0.153107 -0.138321 -0.2108 -0.045776 -0.145584 -0.180618 0.047607 -0.186768 -0.180664 0.173584 -0.184647 -0.134003 0.237991 -0.154633 -0.175949 0.246475 -0.070999 -0.167435 0.208832 -0.182556 -0.084206 0.198776 -0.230804 -0.129303 0.176453 -0.217834 -0.10659 0.066277 -0.231644 0.163162 -0.497284 -0.064255 0.200943 -0.480377 -0.091843 0.232117 -0.44046 -0.083015 0.175644 -0.467804 -0.163071 0.242813 -0.450195 0.011618 0.245041 -0.401337 -0.04604 0.223724 -0.350372 -0.121864 0.246277 -0.218231 -0.036098 0.128265 0.235336 0.164383 0.18782 0.232864 0.097893 0.185883 0.245895 0.001246 0.235626 0.206345 0.049332 0.240707 0.195129 -0.039757 0.164932 0.474243 0.033978 0.172119 0.405365 -0.007497 0.156219 0.482666 -0.021605 0.152481 0.468323 -0.066315 0.095108 0.477875 -0.133072 0.126419 0.417542 -0.116249 0.09214 0.378937 -0.147858 0.157043 0.379456 -0.073341 0.145294 0.343506 -0.106255 0.245911 0.053886 -0.042877 0.224686 -0.157623 -0.120003 0.222214 0.085457 -0.123436 0.188904 0.00741 -0.177963 0.183533 -0.209381 -0.18399 0.143646 -0.02796 -0.211792 0.146347 -0.278442 -0.210388 0.08268 -0.284973 -0.238693 0.073547 -0.089577 -0.240448 0.220734 0.188507 -0.118462 0.206238 0.227158 -0.078285 0.176743 0.180283 -0.186386 0.159882 0.230225 -0.142853 0.114578 0.274384 -0.094765 0.106956 0.197021 -0.227219 0.116905 0.14743 -0.226318 0.009104 0.075409 -0.247833 -0.074776 0.307861 -0.137909 -0.047699 0.245331 -0.182846 -0.010962 0.27951 -0.144699 -0.115189 0.352509 -0.132675 -0.006698 0.308441 -0.153259 0.090187 0.302399 -0.11747 -0.042915 0.343506 -0.172607 -0.06913 0.427521 -0.154999 0.045433 0.324036 -0.16507 -0.020996 0.405762 -0.171295 0.033611 0.390869 -0.168289 0.108177 0.328796 -0.137848 0.021948 -0.498688 -0.154312 0.119888 -0.495178 -0.156357 0.089317 -0.476013 -0.204346 0.14682 -0.433838 -0.206284 0.089287 -0.448822 -0.233292 -0.000647 -0.454254 -0.239319 0.083786 -0.414673 -0.237854 0.186447 -0.438263 -0.176926 0.185776 -0.357635 -0.182373 -0.022327 -0.489441 -0.201874 -0.106216 -0.4422 -0.227432 -0.142487 -0.397217 -0.212128 -0.074272 -0.307343 -0.240707 -0.041676 -0.430115 -0.244568 0.006139 -0.285583 -0.249985 -0.193802 -0.163849 -0.171494 -0.120659 -0.153931 -0.225006 -0.049252 -0.093796 -0.245361 0.062038 0.278412 -0.133499 0.063034 0.240768 -0.186127 0.022655 0.21376 -0.231613 0.019234 0.182007 -0.244934</float_array>
          <technique_common>
            <accessor source="#FishOil-mesh-positions-array" count="238" stride="3">
              <param name="X" type="float"/>
              <param name="Y" type="float"/>
              <param name="Z" type="float"/>
            </accessor>
          </technique_common>
        </source>
        <source id="FishOil-mesh-normals">
          <float_array id="FishOil-mesh-normals-array" count="1416">0.023955 -0.011415 0.999648 -0.109437 0.029908 0.993544 0.176425 0.017488 0.984159 -0.201704 -0.016708 0.979304 -0.126701 -0.244529 0.961328 0.01336 -0.131585 0.991215 -0.150891 -0.335697 0.929806 0.279018 -0.061618 0.958307 0.18433 -0.246314 0.9515 0.51143 -0.020454 0.859081 0.50208 -0.032763 0.8642 -0.091478 -0.622725 0.777075 -0.128162 -0.827096 0.547254 0.182825 -0.521364 0.833519 0.115881 -0.651125 0.750072 0.034384 -0.938752 0.342874 0.088752 -0.911328 0.402001 -0.02603 -0.999531 -0.016111 -0.022331 -0.999599 -0.017389 0.237622 -0.923632 0.300731 0.236599 -0.928196 0.287182 0.506737 -0.576926 0.640605 0.457312 -0.874652 0.160776 0.549691 -0.814477 0.185656 0.340726 -0.739337 0.580764 0.651115 -0.660063 0.374654 0.565497 -0.162402 0.808603 0.876289 -0.074053 0.476061 0.86688 -0.063003 0.494519 0.955193 -0.044609 0.292604 0.84654 -0.010186 0.532228 0.082483 -0.01037 0.996539 0.084852 0.037294 0.995695 -0.091157 -0.024792 0.995528 0.155635 -0.012062 0.987741 0.482357 0.005036 0.87596 -0.068847 0.3841 0.920721 -0.017445 0.815069 0.579101 0.006423 0.8235 0.567279 -0.091557 0.534312 0.840314 -0.24275 0.618532 0.747322 0.176441 0.235623 0.955694 0.198079 0.252319 0.947153 -0.174413 0.008309 0.984638 0.107442 -0.03684 0.993529 -0.424908 0.231572 0.875116 -0.252614 -0.030645 0.967082 -0.477915 0.206844 0.853705 0.084238 -0.015093 0.996331 0.317759 0.039572 0.947345 0.416319 -0.007965 0.909184 0.084814 -0.008961 0.996356 -0.197563 0.031739 0.979776 -0.196124 0.013064 0.980492 -0.547904 -0.070606 0.833556 -0.574326 -0.009396 0.818573 -0.826911 0.053983 0.559736 -0.556375 0.026519 0.830508 -0.843024 0.040483 0.53635 -0.818291 -0.001457 0.574803 -0.846659 0.015831 0.531901 -0.89435 -0.026943 0.446556 -0.271135 -0.021516 0.962301 -0.283957 0.043352 0.957856 -0.535034 0.011799 0.844748 -0.540565 0.004298 0.841291 0.441034 0.011215 0.89742 0.467058 -0.003913 0.884218 0.597345 0.004786 0.80197 0.596873 0.005515 0.802317 0.593148 0.003129 0.805087 0.857388 0.004717 0.514649 0.858778 0.002936 0.51234 0.956141 -0.004993 0.292866 0.960154 0.016329 0.278995 0.972576 -0.024979 0.231242 0.32327 0.103754 0.940602 0.52047 0.134712 0.843187 -0.448048 0.003922 0.894001 -0.4357 -0.008251 0.900054 -0.519805 -0.08065 0.85047 -0.483169 -0.258076 0.836627 -0.689213 0.008235 0.724512 -0.226421 0.805168 0.548122 -0.186559 0.831674 0.522986 -0.369886 0.806174 0.461808 -0.583023 0.473513 0.660204 -0.725077 0.366125 0.58328 -0.758713 0.528204 0.381255 -0.904892 0.144929 0.400209 -0.624323 0.73838 0.25498 -0.508843 0.821881 0.256107 -0.376942 0.838987 0.392448 -0.513146 0.817429 0.261709 -0.697877 0.688669 0.19673 -0.520442 0.695908 0.494825 -0.18059 0.817136 0.547427 -0.657673 -0.059851 0.750922 0.030583 0.636837 0.770392 -0.540695 -0.396856 0.741724 -0.689255 -0.704093 0.170824 -0.476176 -0.727923 0.493341 -0.79606 -0.025303 0.604689 -0.279391 -0.638725 0.716917 -0.182683 -0.695993 0.694421 -0.408926 0.081592 0.908913 -0.797 -0.027537 0.603352 -0.447205 0.02577 0.89406 -0.487787 0.116377 0.865171 -0.796264 0.035882 0.603884 -0.908939 0.17198 0.379805 0.583419 0.01227 0.812079 0.592172 0.020153 0.805559 0.828074 0.034557 0.559553 0.852543 0.080556 0.516412 0.953203 0.100204 0.285241 0.968544 0.027261 0.247344 -0.69908 -0.023676 0.714652 -0.815396 0.001164 0.578902 -0.814969 0.000783 0.579504 -0.902433 -0.000019 0.43083 -0.88868 0.012912 0.458345 -0.984899 0.001829 0.173123 -0.987071 0.011438 0.159875 -0.983467 0.005226 0.181015 -0.996389 -0.02413 -0.08141 -0.99948 0.00129 -0.032232 -0.995855 0.033709 -0.08448 -0.025444 -0.45252 0.891391 0.060454 -0.447703 0.892136 0.263673 0.173348 0.948908 0.30231 0.003747 0.953202 -0.070268 0.105922 0.991889 -0.103699 0.231553 0.96728 0.299363 0.297646 0.906525 0.392184 0.069259 0.917276 0.234415 0.944083 0.231856 0.10478 0.966572 0.234006 0.662117 0.054506 0.747416 0.733066 0.129537 0.667708 0.669454 0.022222 0.742521 0.868204 0.085769 0.488739 0.878637 0.031803 0.47643 -0.535764 -0.589926 0.604106 -0.194098 -0.858076 0.475427 -0.086595 -0.990515 0.106682 -0.156435 -0.98349 0.09097 -0.579683 -0.583245 0.569028 -0.581442 -0.770124 0.262362 -0.827851 -0.082521 0.554845 -0.691088 -0.698617 0.185287 -0.89039 -0.397326 0.222123 -0.815047 -0.088061 0.572664 -0.990256 -0.113392 0.08084 -0.874754 -0.002007 0.484564 -0.993557 -0.006832 0.113131 -0.877591 -0.006827 0.479361 -0.984647 -0.051219 0.166873 -0.99939 0.013072 -0.032376 -0.192639 0.018693 0.981092 -0.043107 0.149874 0.987765 -0.505747 0.079994 0.858965 -0.045336 0.977344 0.206743 -0.181562 0.957514 0.224058 0.023569 0.992459 0.12029 -0.194886 0.961511 0.193692 0.010625 0.997152 0.074664 -0.122372 0.991211 0.050261 -0.04073 0.998616 0.033261 -0.1927 0.981201 -0.010545 -0.697107 0.715557 0.044945 -0.98556 0.036395 -0.165366 -0.87732 0.146296 -0.457064 -0.178036 0.979393 -0.095352 -0.823127 0.072239 -0.563244 -0.555879 0.278636 -0.783174 -0.120355 0.983807 -0.132813 -0.127991 0.968859 -0.211967 -0.034199 0.997473 -0.062276 0.009934 0.944057 -0.329634 0.032815 0.994316 -0.101282 0.058306 0.957119 -0.283768 0.232594 -0.795727 0.559213 0.430903 0.095548 0.897326 0.417578 0.054567 0.907001 0.753313 -0.133316 0.644008 0.429939 -0.701522 0.568348 0.667857 0.019273 0.74404 0.775552 -0.0755 0.626753 0.469237 -0.811464 0.348342 0.937367 -0.323888 0.128218 0.702454 -0.621896 0.346126 0.86427 -0.007771 0.502967 0.963905 -0.249731 0.092313 0.718599 -0.692129 0.067626 0.918325 -0.250279 -0.30666 0.837174 -0.545966 -0.032573 0.037228 -0.999246 0.010978 0.032649 -0.999466 -0.001472 -0.015242 -0.999848 -0.008413 -0.143982 -0.988874 0.037394 -0.227936 -0.953769 -0.195881 -0.219752 -0.925831 -0.307483 -0.547841 -0.836571 -0.004463 -0.481893 -0.85142 -0.207035 -0.614267 -0.78894 0.015797 -0.499297 -0.675608 -0.542454 -0.793703 -0.604153 -0.070953 -0.987032 -0.157834 -0.029262 -0.63294 -0.706753 -0.316049 -0.555604 -0.652846 -0.514874 -0.692341 -0.653908 -0.305071 -0.989154 -0.036629 -0.142241 -0.894236 -0.164879 -0.416121 -0.989014 -0.017308 -0.146802 -0.9418 0.040142 -0.333768 -0.875999 -0.100723 -0.471679 -0.784309 -0.13965 -0.604448 -0.871983 -0.015698 -0.489284 -0.7425 -0.01696 -0.669632 -0.795462 0.017053 -0.605763 -0.283218 -0.105624 0.953222 0.84974 -0.003448 0.527191 0.964224 0.008022 0.264967 -0.905334 -0.054117 0.421239 -0.680005 -0.712399 0.173438 -0.89736 0.180017 0.402913 -0.974276 0.014773 0.224872 -0.968216 0.148221 0.201465 -0.970258 0.11268 -0.214249 -0.970842 0.145831 -0.19026 -0.998206 -0.059426 -0.007319 -0.845138 0.046899 -0.532487 -0.803868 -0.59304 -0.045819 -0.703724 -0.663542 -0.253937 -0.690403 -0.721562 0.051889 -0.522511 -0.805177 -0.280486 -0.9954 -0.052225 0.080319 -0.876874 0.11974 0.465569 -0.994516 -0.078083 0.069583 -0.85903 -0.190058 -0.475338 -0.84626 -0.221818 -0.484397 -0.960278 0.084343 0.265993 -0.97836 0.135644 0.156242 -0.99005 0.080445 0.115454 -0.674651 0.722551 0.150885 -0.861108 0.374463 -0.343905 -0.595263 0.802714 0.036231 -0.574543 0.817984 0.028338 -0.581482 0.813277 0.021424 -0.974867 0.00568 0.222716 -0.989842 -0.005874 0.142048 -0.994468 0.017264 0.103609 -0.996626 -0.018861 -0.07988 -0.996339 -0.023689 -0.08214 -0.98055 -0.000398 -0.196268 -0.985539 0.027336 -0.16723 -0.978804 0.009589 -0.204574 -0.880055 0.458455 -0.123781 -0.822095 0.538206 -0.185728 -0.906746 0.032929 -0.42039 -0.84341 0.218872 -0.490668 -0.875245 0.003558 -0.483667 -0.815141 0.008016 -0.579206 -0.835275 0.221738 -0.503138 -0.813596 0.009491 -0.581353 -0.456755 0.832509 -0.313534 -0.457926 0.829992 -0.31846 -0.779308 0.324293 -0.536202 -0.227953 0.796983 -0.559335 -0.54321 0.013935 -0.839481 -0.535412 0.248826 -0.807106 -0.426834 0.387558 -0.817075 -0.518447 0.000305 -0.85511 -0.301924 0.057039 -0.951624 -0.028262 -0.999573 -0.007401 0.296292 -0.954935 0.01759 0.379086 -0.924156 -0.047212 0.794948 -0.597168 -0.106994 0.771017 -0.521229 -0.365859 0.725039 -0.671935 -0.151071 0.722174 -0.679612 0.128814 0.959645 -0.20475 0.192768 0.971537 -0.197918 -0.130169 0.996168 -0.081842 -0.030857 0.955093 -0.037754 -0.29389 0.964023 0.007919 -0.265701 0.999501 -0.005053 -0.031188 0.999671 -0.011384 -0.022969 0.970414 0.01852 0.240736 0.19566 0.657385 0.72771 0.303499 0.759512 0.575352 0.392453 0.722072 0.56973 -0.000913 0.831614 0.555353 0.206533 0.880035 0.427647 0.494394 0.776553 0.390564 0.168443 0.809631 0.562249 0.411843 0.846484 0.337416 0.500676 0.756739 0.420321 0.409 0.864897 0.290985 0.523567 0.845671 0.103529 0.546065 0.827394 0.131268 0.645445 0.725353 0.239298 0.558305 0.823604 0.099858 0.953315 0.087103 0.289142 0.6548 0.753609 -0.057532 0.952021 0.305625 0.015819 0.88638 0.106115 0.450632 0.987887 0.009828 0.154864 0.981938 0.104929 0.157442 0.334197 0.938217 0.089789 0.97597 0.177741 -0.126055 0.234431 0.969299 0.074176 0.999179 -0.024149 -0.032541 0.128084 0.99124 -0.032213 0.141357 0.989398 -0.03332 0.974817 0.175368 -0.137758 0.391227 0.86629 -0.310615 0.343256 0.925053 -0.162643 0.087682 0.948759 -0.303592 0.755186 0.219712 -0.617592 0.612095 0.098891 -0.784577 0.966163 0.069242 -0.248464 0.845175 0.085106 -0.527671 0.954769 0.127324 -0.26871 0.864148 0.155712 -0.478541 0.915412 0.06458 -0.397303 0.688727 -0.579718 -0.435409 0.633905 -0.731928 -0.249892 0.999701 0.021763 0.011147 0.999093 -0.011939 0.040868 0.999995 0.001275 -0.002823 0.967562 -0.004991 -0.252585 0.959953 0.005806 -0.280101 0.968026 -0.002409 -0.250839 0.852544 0.001289 -0.522655 0.840687 0.001033 -0.54152 0.843235 -0.005948 -0.537512 0.594863 0.007608 -0.803791 0.576833 0.001641 -0.81686 0.406304 -0.00074 -0.913738 0.371571 0.009029 -0.928361 0.99994 -0.009662 -0.005157 0.994851 0.038723 -0.093656 0.962807 0.041372 -0.267003 0.968431 0.025876 -0.247936 0.793587 0.555563 -0.248132 0.67994 0.733266 0.00127 0.836598 0.038392 -0.546471 0.832202 0.03157 -0.553572 0.621732 0.664366 -0.414809 0.275848 0.948952 -0.152967 0.619007 0.624328 -0.476492 0.627454 0.753793 -0.195188 0.548902 0.805669 -0.222719 0.49078 0.660746 -0.567935 0.518777 0.088629 -0.850303 0.555625 -0.001424 -0.831432 0.587202 0.022515 -0.809127 0.390836 -0.016632 -0.92031 0.178992 0.025891 -0.98351 -0.604482 0.776596 -0.17748 -0.567763 0.815036 -0.115597 -0.43424 0.870867 -0.230274 -0.46147 0.829138 -0.315556 -0.449514 -0.777215 -0.440311 -0.757211 -0.035666 -0.652196 -0.235814 0.830029 -0.505415 -0.241659 0.826748 -0.508024 -0.303596 -0.487252 -0.818789 -0.534588 -0.396383 -0.746389 -0.800997 0.07264 -0.594245 -0.818291 0.040107 -0.573403 -0.211034 -0.2486 -0.945337 0.312108 -0.311552 -0.89751 -0.486371 -0.346191 -0.802244 -0.170225 -0.604998 -0.777818 -0.526958 0.071529 -0.846876 -0.480086 0.033912 -0.876566 -0.506762 0.158381 -0.847412 0.136962 -0.846934 -0.513755 -0.04025 -0.514269 -0.856684 -0.271232 0.115632 -0.955543 -0.275705 0.105646 -0.955419 0.083185 -0.008287 -0.9965 -0.09308 0.199699 -0.975426 0.075326 0.075502 -0.994297 0.043958 -0.040303 -0.99822 0.406878 0.080713 -0.90991 0.350045 0.128175 -0.927922 0.331957 0.01329 -0.943201 0.400892 -0.05435 -0.914512 0.643709 0.05348 -0.763399 0.633794 0.057456 -0.771365 -0.897029 -0.020222 -0.441509 -0.008275 -0.999558 0.028559 0.30134 -0.93947 -0.163066 0.034969 -0.998617 -0.039264 0.392633 -0.871666 -0.293321 0.324505 -0.78894 -0.521796 0.396971 -0.57415 -0.716077 0.45524 -0.648716 -0.609856 0.089546 -0.725882 -0.681965 0.073617 -0.120395 -0.989993 0.435055 -0.050018 -0.899013 0.442266 -0.022333 -0.896606 0.406449 -0.002444 -0.91367 0.474552 -0.510016 -0.717415 0.787915 -0.473038 -0.394239 0.893339 -0.105179 -0.436902 0.590987 -0.049476 -0.805163 0.551609 -0.020343 -0.833854 0.848377 -0.028652 -0.528617 0.579026 -0.000132 -0.815309 0.84678 0.00701 -0.531897 -0.004528 -0.999581 0.028594 -0.027838 -0.985776 -0.165741 -0.15534 -0.932781 -0.325251 -0.143755 -0.656092 -0.740863 -0.445156 -0.534117 -0.718718 -0.51659 -0.128536 -0.84653 -0.609264 -0.026272 -0.792532 -0.431733 0.04116 -0.901062 -0.387616 0.001074 -0.92182 -0.250152 -0.035988 -0.967538 -0.114823 0.000755 -0.993386 -0.158193 -0.672209 -0.723264 -0.150345 -0.447261 -0.881677 0.088091 -0.066394 -0.993897 0.075376 -0.748073 -0.659322 0.047742 -0.064951 -0.996746 -0.790672 -0.032847 -0.611358 -0.959279 -0.026488 -0.281215 -0.876479 0.021361 -0.480966 -0.892941 -0.029983 -0.449173 -0.816374 0.009189 -0.57745 -0.59318 0.034956 -0.804311 -0.588401 -0.021698 -0.808278 -0.519751 0.007455 -0.854286 -0.444272 -0.042748 -0.894871 -0.264631 -0.01216 -0.964273 -0.283716 0.012345 -0.958829 -0.11235 -0.008492 -0.993632 0.038742 0.035266 -0.998627 0.040945 -0.028712 -0.998749 0.145965 -0.002063 -0.989288 0.145987 -0.005154 -0.989273 0.025043 -0.922793 -0.384482 0.108191 -0.952153 -0.285832 0.88484 -0.321515 -0.337175 0.643429 -0.058407 -0.763274 0.579927 -0.14483 -0.801692 0.520307 -0.715039 -0.466904 0.644671 -0.594508 -0.480582 0.325997 -0.706821 -0.627798 0.302068 0.82674 -0.474612 0.437899 0.735121 -0.517534 0.315898 0.798505 -0.512443 0.100795 0.810108 -0.577551 0.143341 0.428062 -0.892309 0.010542 0.739672 -0.672885 0.184038 0.764766 -0.617466 0.019602 0.851948 -0.523259 -0.110612 0.753885 -0.647629 -0.252362 0.78323 -0.568211 0.121964 0.372765 -0.919875 -0.061884 0.391776 -0.917977 0.194419 0.021187 -0.98069 -0.130772 0.028375 -0.991006 0.190168 0.008627 -0.981714 -0.14159 0.040355 -0.989103 -0.141147 0.034225 -0.989397</float_array>
          <technique_common>
            <accessor source="#FishOil-mesh-normals-array" count="472" stride="3">
              <param name="X" type="float"/>
              <param name="Y" type="float"/>
              <param name="Z" type="float"/>
            </accessor>
          </technique_common>
        </source>
        <source id="FishOil-mesh-map-0">
          <float_array id="FishOil-mesh-map-0-array" count="2832">0.212402 0.296387 0.254395 0.273926 0.275879 0.360352 0.212402 0.296387 0.275879 0.360352 0.200439 0.368164 0.275879 0.360352 0.254395 0.273926 0.311279 0.295898 0.212402 0.296387 0.200439 0.368164 0.169922 0.294922 0.212402 0.296387 0.169922 0.294922 0.225586 0.256836 0.212402 0.296387 0.225586 0.256836 0.254395 0.273926 0.225586 0.256836 0.169922 0.294922 0.157959 0.266602 0.311279 0.295898 0.254395 0.273926 0.286133 0.227051 0.286133 0.227051 0.254395 0.273926 0.225586 0.256836 0.350586 0.232422 0.345703 0.303955 0.311279 0.295898 0.350586 0.232422 0.311279 0.295898 0.286133 0.227051 0.225586 0.256836 0.157959 0.266602 0.212402 0.23584 0.212402 0.23584 0.157959 0.266602 0.175049 0.223877 0.286133 0.227051 0.225586 0.256836 0.265625 0.212891 0.265625 0.212891 0.225586 0.256836 0.212402 0.23584 0.212402 0.23584 0.175049 0.223877 0.238281 0.189697 0.212402 0.23584 0.238281 0.189697 0.265625 0.212891 0.238281 0.189697 0.175049 0.223877 0.181152 0.117188 0.238281 0.189697 0.181152 0.117188 0.274902 0.139893 0.265625 0.212891 0.238281 0.189697 0.300049 0.173096 0.300049 0.173096 0.238281 0.189697 0.274902 0.139893 0.265625 0.212891 0.300049 0.173096 0.286133 0.227051 0.300049 0.173096 0.274902 0.139893 0.312012 0.098389 0.300049 0.173096 0.312012 0.098389 0.332275 0.1521 0.286133 0.227051 0.300049 0.173096 0.31543 0.196777 0.31543 0.196777 0.300049 0.173096 0.332275 0.1521 0.286133 0.227051 0.31543 0.196777 0.350586 0.232422 0.31543 0.196777 0.332275 0.1521 0.383057 0.196045 0.31543 0.196777 0.383057 0.196045 0.350586 0.232422 0.383057 0.196045 0.332275 0.1521 0.373291 0.135254 0.350586 0.232422 0.383057 0.196045 0.43042 0.209229 0.164795 0.536133 0.111816 0.504395 0.196777 0.460205 0.111816 0.504395 0.164795 0.536133 0.114502 0.573975 0.114502 0.573975 0.164795 0.536133 0.146729 0.609619 0.111816 0.504395 0.114502 0.573975 0.05835 0.570312 0.111816 0.504395 0.05835 0.570312 0.054199 0.522217 0.700195 0.285889 0.680908 0.299805 0.681396 0.246582 0.653809 0.318604 0.622803 0.284912 0.680908 0.299805 0.680908 0.299805 0.622803 0.284912 0.66333 0.259766 0.680908 0.299805 0.66333 0.259766 0.681396 0.246582 0.681396 0.246582 0.66333 0.259766 0.666016 0.216797 0.680908 0.299805 0.700195 0.285889 0.717041 0.320557 0.680908 0.299805 0.717041 0.320557 0.688721 0.342773 0.700195 0.285889 0.681396 0.246582 0.756348 0.263916 0.700195 0.285889 0.756348 0.263916 0.717041 0.320557 0.681396 0.246582 0.666016 0.216797 0.696289 0.219727 0.681396 0.246582 0.696289 0.219727 0.756348 0.263916 0.696289 0.219727 0.666016 0.216797 0.675049 0.187012 0.717041 0.320557 0.756348 0.263916 0.759277 0.321533 0.717041 0.320557 0.759277 0.321533 0.724854 0.351318 0.724854 0.351318 0.759277 0.321533 0.791748 0.355469 0.759277 0.321533 0.756348 0.263916 0.828613 0.336914 0.756348 0.263916 0.696289 0.219727 0.756836 0.208008 0.756348 0.263916 0.756836 0.208008 0.838135 0.23877 0.696289 0.219727 0.675049 0.187012 0.701904 0.168213 0.696289 0.219727 0.701904 0.168213 0.756836 0.208008 0.701904 0.168213 0.675049 0.187012 0.662109 0.160889 0.756836 0.208008 0.701904 0.168213 0.772705 0.12793 0.701904 0.168213 0.662109 0.160889 0.685059 0.130371 0.772705 0.12793 0.701904 0.168213 0.723145 0.120117 0.723145 0.120117 0.701904 0.168213 0.685059 0.130371 0.723145 0.120117 0.685059 0.130371 0.715576 0.079102 0.048828 0.739746 0.119141 0.681152 0.08667 0.770996 0.048828 0.739746 0.08667 0.770996 0.037842 0.82251 0.08667 0.770996 0.119141 0.681152 0.123047 0.761475 0.08667 0.770996 0.123047 0.761475 0.049561 0.870117 0.067139 0.134277 0.106445 0.1604 0.087891 0.20459 0.106445 0.1604 0.067139 0.134277 0.083252 0.064453 0.106445 0.1604 0.083252 0.064453 0.109131 0.066895 0.109131 0.066895 0.083252 0.064453 0.037598 0.023682 0.106445 0.1604 0.109131 0.066895 0.152832 0.175537 0.152832 0.175537 0.109131 0.066895 0.178467 0.105469 0.178467 0.105469 0.109131 0.066895 0.13208 0.012695 0.178467 0.105469 0.13208 0.012695 0.193848 0.07251 0.178467 0.105469 0.193848 0.07251 0.230957 0.091553 0.193848 0.07251 0.13208 0.012695 0.185791 0.000244 0.031006 0.383057 0.000488 0.401123 0.000244 0.351807 0.000488 0.401123 0.031006 0.383057 0.032959 0.44043 0.227539 0.609375 0.160889 0.64502 0.178711 0.593506 0.178711 0.593506 0.160889 0.64502 0.092773 0.687256 0.227539 0.609375 0.178711 0.593506 0.213867 0.57373 0.227539 0.609375 0.213867 0.57373 0.251709 0.600342 0.213867 0.57373 0.178711 0.593506 0.171143 0.540771 0.660156 0.403076 0.641113 0.374756 0.688965 0.364502 0.660156 0.403076 0.688965 0.364502 0.702393 0.407471 0.641113 0.374756 0.660156 0.403076 0.613525 0.393555 0.641113 0.374756 0.613525 0.393555 0.608643 0.371826 0.608643 0.371826 0.613525 0.393555 0.595459 0.387695 0.595459 0.387695 0.613525 0.393555 0.570312 0.403809 0.595459 0.387695 0.570312 0.403809 0.55249 0.374512 0.570312 0.403809 0.613525 0.393555 0.59375 0.426025 0.59375 0.426025 0.613525 0.393555 0.638184 0.424072 0.638184 0.424072 0.613525 0.393555 0.660156 0.403076 0.59375 0.426025 0.638184 0.424072 0.630127 0.452148 0.630127 0.452148 0.638184 0.424072 0.664307 0.455078 0.664307 0.455078 0.638184 0.424072 0.660156 0.403076 0.664307 0.455078 0.660156 0.403076 0.702393 0.407471 0.664307 0.455078 0.702393 0.407471 0.695801 0.445068 0.695801 0.445068 0.702393 0.407471 0.728027 0.392334 0.664307 0.455078 0.695801 0.445068 0.671631 0.483154 0.664307 0.455078 0.671631 0.483154 0.651367 0.477539 0.671631 0.483154 0.695801 0.445068 0.699463 0.472412 0.671631 0.483154 0.699463 0.472412 0.67627 0.522705 0.699463 0.472412 0.695801 0.445068 0.720947 0.459961 0.720947 0.459961 0.695801 0.445068 0.736816 0.444092 0.699463 0.472412 0.720947 0.459961 0.706543 0.507812 0.699463 0.472412 0.706543 0.507812 0.67627 0.522705 0.706543 0.507812 0.720947 0.459961 0.747803 0.515625 0.706543 0.507812 0.747803 0.515625 0.718506 0.557129 0.706543 0.507812 0.718506 0.557129 0.67627 0.522705 0.67627 0.522705 0.718506 0.557129 0.688477 0.58374 0.815674 0.668213 0.870605 0.63208 0.930908 0.701172 0.930908 0.701172 0.870605 0.63208 0.971436 0.648682 0.971436 0.648682 0.870605 0.63208 0.921387 0.581055 0.971436 0.648682 0.921387 0.581055 0.98999 0.614014 0.98999 0.614014 0.921387 0.581055 0.97876 0.537354 0.97876 0.537354 0.921387 0.581055 0.929932 0.5 0.000244 0.554199 0.000244 0.412109 0.032959 0.533447 0.057129 0.437256 0.037842 0.321777 0.059814 0.362305 0.059814 0.362305 0.037842 0.321777 0.057129 0.265137 0.059814 0.362305 0.057129 0.265137 0.088623 0.284912 0.059814 0.362305 0.088623 0.284912 0.088379 0.395264 0.088379 0.395264 0.088623 0.284912 0.115723 0.321289 0.115723 0.321289 0.088623 0.284912 0.124268 0.243896 0.088379 0.395264 0.115723 0.321289 0.116943 0.386963 0.115723 0.321289 0.124268 0.243896 0.173828 0.32251 0.116943 0.386963 0.115723 0.321289 0.157959 0.385986 0.157959 0.385986 0.115723 0.321289 0.173828 0.32251 0.900879 0.294678 0.916016 0.342529 0.866699 0.31958 0.900879 0.294678 0.866699 0.31958 0.849854 0.262939 0.900879 0.294678 0.849854 0.262939 0.866943 0.233887 0.900879 0.294678 0.866943 0.233887 0.945557 0.223145 0.900879 0.294678 0.945557 0.223145 0.976318 0.28418 0.976318 0.28418 0.945557 0.223145 0.967041 0.207031 0.967041 0.207031 0.945557 0.223145 0.926758 0.175537 0.926758 0.175537 0.945557 0.223145 0.866943 0.233887 0.967041 0.207031 0.926758 0.175537 0.95874 0.100586 0.95874 0.100586 0.926758 0.175537 0.892578 0.122559 0.926758 0.175537 0.866943 0.233887 0.843506 0.182617 0.926758 0.175537 0.843506 0.182617 0.892578 0.122559 0.843506 0.182617 0.866943 0.233887 0.80835 0.219971 0.892578 0.122559 0.843506 0.182617 0.825928 0.137451 0.825928 0.137451 0.843506 0.182617 0.772217 0.163818 0.388428 0.99292 0.353271 0.977295 0.381104 0.950684 0.388428 0.99292 0.381104 0.950684 0.422119 0.97583 0.422119 0.97583 0.381104 0.950684 0.395264 0.908936 0.395264 0.908936 0.381104 0.950684 0.369629 0.901123 0.381104 0.950684 0.353271 0.977295 0.349854 0.939209 0.381104 0.950684 0.349854 0.939209 0.369629 0.901123 0.349854 0.939209 0.353271 0.977295 0.300293 0.975586 0.369629 0.901123 0.349854 0.939209 0.33667 0.883545 0.33667 0.883545 0.349854 0.939209 0.327148 0.928955 0.327148 0.928955 0.349854 0.939209 0.300293 0.975586 0.33667 0.883545 0.327148 0.928955 0.294678 0.877686 0.327148 0.928955 0.300293 0.975586 0.248779 0.954346 0.327148 0.928955 0.248779 0.954346 0.294678 0.877686 0.248779 0.954346 0.300293 0.975586 0.22876 0.991699 0.294678 0.877686 0.248779 0.954346 0.229492 0.925781 0.294678 0.877686 0.229492 0.925781 0.221191 0.872314 0.802979 0.844971 0.785645 0.899658 0.76709 0.845215 0.917236 0.721191 0.878662 0.748291 0.863525 0.721191 0.863525 0.721191 0.878662 0.748291 0.839355 0.778564 0.878662 0.748291 0.917236 0.721191 0.89502 0.786377 0.878662 0.748291 0.89502 0.786377 0.839355 0.778564 0.89502 0.786377 0.917236 0.721191 0.984131 0.758789 0.839355 0.778564 0.89502 0.786377 0.834961 0.825439 0.89502 0.786377 0.984131 0.758789 0.977539 0.814941 0.834961 0.825439 0.89502 0.786377 0.876709 0.868164 0.876709 0.868164 0.89502 0.786377 0.977539 0.814941 0.834961 0.825439 0.876709 0.868164 0.833984 0.87915 0.834961 0.825439 0.833984 0.87915 0.82251 0.84668 0.82251 0.84668 0.833984 0.87915 0.807617 0.911865 0.807617 0.911865 0.833984 0.87915 0.853516 0.911621 0.853516 0.911621 0.833984 0.87915 0.876709 0.868164 0.807617 0.911865 0.853516 0.911621 0.841064 0.939209 0.841064 0.939209 0.853516 0.911621 0.903564 0.930176 0.853516 0.911621 0.876709 0.868164 0.931641 0.897461 0.853516 0.911621 0.931641 0.897461 0.903564 0.930176 0.931641 0.897461 0.876709 0.868164 0.977539 0.814941 0.903564 0.930176 0.931641 0.897461 0.962402 0.928467 0.931641 0.897461 0.977539 0.814941 0.989502 0.888428 0.931641 0.897461 0.989502 0.888428 0.962402 0.928467 0.943848 0.320557 0.977783 0.289307 0.964111 0.349365 0.983398 0.340576 0.977783 0.289307 1 0.295898 0.977783 0.289307 0.983398 0.340576 0.964111 0.349365 0.964111 0.349365 0.983398 0.340576 0.991211 0.393555 0.943848 0.320557 0.964111 0.349365 0.938965 0.369385 0.943848 0.320557 0.938965 0.369385 0.92334 0.327148 0.964111 0.349365 0.991211 0.393555 0.965332 0.407959 0.964111 0.349365 0.965332 0.407959 0.938965 0.369385 0.965332 0.407959 0.991211 0.393555 0.995117 0.445312 0.938965 0.369385 0.965332 0.407959 0.941895 0.421875 0.938965 0.369385 0.941895 0.421875 0.9021 0.383545 0.965332 0.407959 0.995117 0.445312 0.974121 0.451416 0.965332 0.407959 0.974121 0.451416 0.941895 0.421875 0.974121 0.451416 0.995117 0.445312 0.995117 0.491211 0.941895 0.421875 0.974121 0.451416 0.962158 0.478271 0.469971 0.756836 0.422607 0.671143 0.49585 0.67041 0.469971 0.756836 0.49585 0.67041 0.575439 0.753662 0.575439 0.753662 0.49585 0.67041 0.563477 0.692627 0.563477 0.692627 0.49585 0.67041 0.519043 0.650879 0.575439 0.753662 0.563477 0.692627 0.5979 0.725098 0.575439 0.753662 0.5979 0.725098 0.605957 0.766113 0.563477 0.692627 0.519043 0.650879 0.58252 0.678223 0.563477 0.692627 0.58252 0.678223 0.5979 0.725098 0.58252 0.678223 0.519043 0.650879 0.55542 0.637939 0.605957 0.766113 0.5979 0.725098 0.628418 0.736816 0.58252 0.678223 0.55542 0.637939 0.600098 0.667969 0.600098 0.667969 0.55542 0.637939 0.592773 0.616211 0.5979 0.725098 0.58252 0.678223 0.618408 0.70752 0.5979 0.725098 0.618408 0.70752 0.628418 0.736816 0.618408 0.70752 0.58252 0.678223 0.600098 0.667969 0.600098 0.667969 0.592773 0.616211 0.627686 0.671143 0.600098 0.667969 0.627686 0.671143 0.618408 0.70752 0.627686 0.671143 0.592773 0.616211 0.670898 0.584473 0.627686 0.671143 0.670898 0.584473 0.685791 0.67041 0.618408 0.70752 0.627686 0.671143 0.637695 0.710693 0.618408 0.70752 0.637695 0.710693 0.628418 0.736816 0.637695 0.710693 0.627686 0.671143 0.685791 0.67041 0.628418 0.736816 0.637695 0.710693 0.708252 0.723877 0.708252 0.723877 0.637695 0.710693 0.685791 0.67041 0.028076 0.360352 0 0.34375 0.022217 0.271729 0.421631 0.087158 0.551758 0.028076 0.529297 0.092773 0.551758 0.028076 0.421631 0.087158 0.479492 0 0.103027 0.645264 0.086914 0.683105 0.073242 0.635986 0.103027 0.645264 0.073242 0.635986 0.086426 0.61499 0.029541 0.709717 0.086914 0.683105 0.045654 0.731201 0.086914 0.683105 0.029541 0.709717 0.043457 0.650879 0.086914 0.683105 0.043457 0.650879 0.073242 0.635986 0.043457 0.650879 0.029541 0.709717 0.000244 0.657227 0.043457 0.650879 0.000244 0.657227 0.031982 0.62085 0.043457 0.650879 0.031982 0.62085 0.073242 0.635986 0.031982 0.62085 0.000244 0.657227 0.009033 0.599365 0.073242 0.635986 0.031982 0.62085 0.050293 0.601318 0.050293 0.601318 0.031982 0.62085 0.009033 0.599365 0.073242 0.635986 0.050293 0.601318 0.086426 0.61499 0.050293 0.601318 0.009033 0.599365 0.016846 0.580322 0.086426 0.61499 0.050293 0.601318 0.095947 0.599121 0.086426 0.61499 0.095947 0.599121 0.123291 0.59375 0.095947 0.599121 0.050293 0.601318 0.059082 0.584229 0.059082 0.584229 0.050293 0.601318 0.016846 0.580322 0.059082 0.584229 0.016846 0.580322 0.008301 0.557617 0.800537 0.137451 0.777588 0.15332 0.784912 0.114746 0.800537 0.137451 0.784912 0.114746 0.826416 0.106445 0.800537 0.137451 0.826416 0.106445 0.841064 0.11792 0.826416 0.106445 0.784912 0.114746 0.791992 0.084961 0.841064 0.11792 0.826416 0.106445 0.843262 0.087402 0.843262 0.087402 0.826416 0.106445 0.791992 0.084961 0.843262 0.087402 0.791992 0.084961 0.825439 0.032471 0.825439 0.032471 0.791992 0.084961 0.781738 0.041504 0.430176 0.698486 0.401855 0.760742 0.373779 0.746826 0.430176 0.698486 0.373779 0.746826 0.368896 0.687012 0.368896 0.687012 0.373779 0.746826 0.330566 0.736572 0.368896 0.687012 0.330566 0.736572 0.323486 0.686035 0.368896 0.687012 0.323486 0.686035 0.354492 0.595215 0.354492 0.595215 0.323486 0.686035 0.302734 0.647705 0.323486 0.686035 0.330566 0.736572 0.283691 0.726807 0.323486 0.686035 0.283691 0.726807 0.302734 0.647705 0.283691 0.726807 0.330566 0.736572 0.306885 0.760254 0.283691 0.726807 0.306885 0.760254 0.239014 0.741211 0.302734 0.647705 0.283691 0.726807 0.262451 0.702881 0.262451 0.702881 0.283691 0.726807 0.239014 0.741211 0.302734 0.647705 0.262451 0.702881 0.264404 0.597168 0.264404 0.597168 0.262451 0.702881 0.218262 0.644287 0.262451 0.702881 0.239014 0.741211 0.226318 0.709961 0.262451 0.702881 0.226318 0.709961 0.218262 0.644287 0.206787 0.766113 0.239014 0.741211 0.239502 0.769287 0.239014 0.741211 0.206787 0.766113 0.210449 0.732666 0.239014 0.741211 0.210449 0.732666 0.226318 0.709961 0.210449 0.732666 0.206787 0.766113 0.165527 0.730469 0.218262 0.644287 0.226318 0.709961 0.189941 0.712891 0.189941 0.712891 0.226318 0.709961 0.210449 0.732666 0.189941 0.712891 0.210449 0.732666 0.165527 0.730469 0.218262 0.644287 0.189941 0.712891 0.16748 0.650879 0.16748 0.650879 0.189941 0.712891 0.165527 0.730469 0.587402 0.276611 0.665771 0.337158 0.551514 0.364258 0.587402 0.276611 0.551514 0.364258 0.51709 0.304688 0.51709 0.304688 0.551514 0.364258 0.518555 0.387695 0.51709 0.304688 0.518555 0.387695 0.482422 0.377441 0.482422 0.377441 0.518555 0.387695 0.515381 0.435303 0.51709 0.304688 0.482422 0.377441 0.48584 0.30835 0.51709 0.304688 0.48584 0.30835 0.48584 0.255615 0.48584 0.255615 0.48584 0.30835 0.455566 0.28418 0.48584 0.30835 0.482422 0.377441 0.453369 0.34668 0.48584 0.30835 0.453369 0.34668 0.455566 0.28418 0.453369 0.34668 0.482422 0.377441 0.422363 0.408203 0.453369 0.34668 0.422363 0.408203 0.321045 0.345215 0.453369 0.34668 0.321045 0.345215 0.386475 0.296631 0.453369 0.34668 0.386475 0.296631 0.455566 0.28418 0.455566 0.28418 0.386475 0.296631 0.391846 0.227539 0.377441 0.865967 0.395752 0.831787 0.42627 0.851318 0.395752 0.831787 0.377441 0.865967 0.346924 0.833252 0.346924 0.833252 0.377441 0.865967 0.330566 0.876465 0.38916 0.775146 0.421143 0.758301 0.395752 0.831787 0.38916 0.775146 0.395752 0.831787 0.346924 0.833252 0.346924 0.833252 0.330566 0.876465 0.288818 0.86084 0.38916 0.775146 0.346924 0.833252 0.345459 0.781006 0.345459 0.781006 0.346924 0.833252 0.290039 0.827637 0.290039 0.827637 0.346924 0.833252 0.288818 0.86084 0.345459 0.781006 0.290039 0.827637 0.294678 0.772461 0.294678 0.772461 0.290039 0.827637 0.245117 0.785156 0.294678 0.772461 0.245117 0.785156 0.250244 0.751953 0.290039 0.827637 0.288818 0.86084 0.245117 0.840576 0.290039 0.827637 0.245117 0.840576 0.245117 0.785156 0.245117 0.840576 0.288818 0.86084 0.219482 0.856445 0.245117 0.785156 0.245117 0.840576 0.196289 0.813721 0.196289 0.813721 0.245117 0.840576 0.219482 0.856445 0.424805 0.576416 0.485107 0.574463 0.477051 0.621826 0.485107 0.574463 0.424805 0.576416 0.440674 0.525146 0.440674 0.525146 0.424805 0.576416 0.371582 0.54834 0.477051 0.621826 0.485107 0.574463 0.519531 0.542969 0.519531 0.542969 0.485107 0.574463 0.440674 0.525146 0.477051 0.621826 0.519531 0.542969 0.52832 0.62207 0.440674 0.525146 0.371582 0.54834 0.394043 0.471191 0.52832 0.62207 0.519531 0.542969 0.608398 0.532471 0.52832 0.62207 0.608398 0.532471 0.601318 0.605225 0.519531 0.542969 0.440674 0.525146 0.523438 0.50415 0.519531 0.542969 0.523438 0.50415 0.608398 0.532471 0.608398 0.532471 0.523438 0.50415 0.614258 0.499756 0.608398 0.532471 0.614258 0.499756 0.670166 0.511963 0.614258 0.499756 0.523438 0.50415 0.512451 0.442139 0.614258 0.499756 0.512451 0.442139 0.580566 0.424072 0.523438 0.50415 0.440674 0.525146 0.463867 0.462402 0.523438 0.50415 0.463867 0.462402 0.512451 0.442139 0.463867 0.462402 0.440674 0.525146 0.394043 0.471191 0.512451 0.442139 0.463867 0.462402 0.445068 0.425537 0.445068 0.425537 0.463867 0.462402 0.394043 0.471191 0.445068 0.425537 0.394043 0.471191 0.412109 0.414795 0.412109 0.414795 0.394043 0.471191 0.362305 0.44165 0.21582 0.96582 0.179199 0.929443 0.213135 0.879639 0.213135 0.879639 0.179199 0.929443 0.186279 0.804199 0.186279 0.804199 0.179199 0.929443 0.146973 0.80542 0.146973 0.80542 0.179199 0.929443 0.134033 0.911377 0.146973 0.80542 0.134033 0.911377 0.105957 0.800049 0.134033 0.911377 0.179199 0.929443 0.154053 1 0.105957 0.800049 0.134033 0.911377 0.085938 0.843018 0.134033 0.911377 0.154053 1 0.105713 0.943604 0.134033 0.911377 0.105713 0.943604 0.085938 0.843018 0.085938 0.843018 0.105713 0.943604 0.064453 0.865479 0.064453 0.865479 0.105713 0.943604 0.092773 0.980225 0.064453 0.865479 0.092773 0.980225 0.0625 0.990967 0.064453 0.865479 0.0625 0.990967 0.037354 0.902344 0.687256 0.744385 0.714844 0.814453 0.650635 0.774658 0.714844 0.814453 0.687256 0.744385 0.746338 0.796143 0.746338 0.796143 0.687256 0.744385 0.730225 0.719482 0.746338 0.796143 0.730225 0.719482 0.771973 0.758789 0.746338 0.796143 0.771973 0.758789 0.779053 0.790283 0.746338 0.796143 0.779053 0.790283 0.770996 0.837158 0.771973 0.758789 0.730225 0.719482 0.797363 0.720947 0.797363 0.720947 0.730225 0.719482 0.720215 0.663574 0.779053 0.790283 0.771973 0.758789 0.814453 0.755127 0.779053 0.790283 0.814453 0.755127 0.770996 0.837158 0.814453 0.755127 0.771973 0.758789 0.797363 0.720947 0.770996 0.837158 0.814453 0.755127 0.799805 0.840088 0.799805 0.840088 0.814453 0.755127 0.831543 0.805176 0.814453 0.755127 0.797363 0.720947 0.838379 0.701416 0.838379 0.701416 0.797363 0.720947 0.809326 0.677979 0.809326 0.677979 0.797363 0.720947 0.720215 0.663574 0.809326 0.677979 0.720215 0.663574 0.72583 0.626465 0.809326 0.677979 0.72583 0.626465 0.727295 0.571289 0.809326 0.677979 0.727295 0.571289 0.818848 0.604736 0.440918 0.045166 0.401611 0.040771 0.43042 0.005859 0.401611 0.040771 0.440918 0.045166 0.412598 0.085938 0.401611 0.040771 0.412598 0.085938 0.352051 0.068848 0.401611 0.040771 0.352051 0.068848 0.341553 0.034912 0.788574 0.364502 0.8125 0.354492 0.796143 0.407715 0.788574 0.364502 0.796143 0.407715 0.771729 0.384521 0.73291 0.421143 0.733398 0.360596 0.771729 0.384521 0.73291 0.421143 0.771729 0.384521 0.768799 0.446289 0.768799 0.446289 0.771729 0.384521 0.796143 0.407715 0.796143 0.407715 0.8125 0.354492 0.833008 0.38501 0.833008 0.38501 0.8125 0.354492 0.885498 0.337646 0.833008 0.38501 0.885498 0.337646 0.897461 0.392334 0.768799 0.446289 0.796143 0.407715 0.788574 0.456787 0.768799 0.446289 0.788574 0.456787 0.762939 0.506104 0.796143 0.407715 0.833008 0.38501 0.818359 0.44043 0.796143 0.407715 0.818359 0.44043 0.788574 0.456787 0.833008 0.38501 0.897461 0.392334 0.880127 0.428223 0.833008 0.38501 0.880127 0.428223 0.818359 0.44043 0.880127 0.428223 0.897461 0.392334 0.915039 0.438477 0.762939 0.506104 0.788574 0.456787 0.796387 0.498779 0.796387 0.498779 0.788574 0.456787 0.818359 0.44043 0.818359 0.44043 0.880127 0.428223 0.858887 0.462158 0.858887 0.462158 0.880127 0.428223 0.915039 0.438477 0.818359 0.44043 0.858887 0.462158 0.796387 0.498779 0.858887 0.462158 0.915039 0.438477 0.900146 0.498535 0.858887 0.462158 0.900146 0.498535 0.843994 0.498291 0.858887 0.462158 0.843994 0.498291 0.796387 0.498779 0.843994 0.498291 0.900146 0.498535 0.900879 0.551514 0.843994 0.498291 0.900879 0.551514 0.827881 0.540039 0.843994 0.498291 0.827881 0.540039 0.796387 0.498779 0.796387 0.498779 0.827881 0.540039 0.794434 0.544678 0.794434 0.544678 0.827881 0.540039 0.825928 0.578613 0.794434 0.544678 0.825928 0.578613 0.788574 0.57666 0.027832 0.721924 0.000977 0.749512 0.002197 0.676025 0.96167 0.088379 0.850098 0.125732 0.878174 0.01001 0.140137 0.415039 0.220215 0.414551 0.171143 0.438965 0.220215 0.414551 0.140137 0.415039 0.189209 0.363281 0.171143 0.438965 0.220215 0.414551 0.212891 0.461426 0.212891 0.461426 0.220215 0.414551 0.266602 0.415039 0.212891 0.461426 0.266602 0.415039 0.259277 0.466309 0.259277 0.466309 0.266602 0.415039 0.290527 0.431885 0.290527 0.431885 0.266602 0.415039 0.330322 0.386475 0.290527 0.431885 0.330322 0.386475 0.312256 0.445557 0.290527 0.431885 0.312256 0.445557 0.259277 0.466309 0.259277 0.466309 0.312256 0.445557 0.327881 0.553223 0.327881 0.553223 0.312256 0.445557 0.372559 0.520508 0.212891 0.461426 0.259277 0.466309 0.231689 0.485352 0.212891 0.461426 0.231689 0.485352 0.178223 0.521729 0.178223 0.521729 0.231689 0.485352 0.219482 0.567871 0.231689 0.485352 0.259277 0.466309 0.261719 0.530762 0.261719 0.530762 0.259277 0.466309 0.327881 0.553223 0.231689 0.485352 0.261719 0.530762 0.219482 0.567871 0.261719 0.530762 0.327881 0.553223 0.321289 0.616943 0.261719 0.530762 0.321289 0.616943 0.219482 0.567871 0.419678 0.167236 0.320801 0.07959 0.462891 0.099365 0.419678 0.167236 0.462891 0.099365 0.468262 0.18042 0.468262 0.18042 0.462891 0.099365 0.509521 0.112549 0.468262 0.18042 0.509521 0.112549 0.536865 0.141113 0.536865 0.141113 0.509521 0.112549 0.558105 0.08252 0.536865 0.141113 0.558105 0.08252 0.581787 0.118896 0.581787 0.118896 0.558105 0.08252 0.669922 0.10498 0.581787 0.118896 0.669922 0.10498 0.63208 0.187012 0.581787 0.118896 0.63208 0.187012 0.536865 0.141113 0.536865 0.141113 0.63208 0.187012 0.531006 0.193359 0.531006 0.193359 0.63208 0.187012 0.621582 0.259277 0.468262 0.18042 0.536865 0.141113 0.49585 0.21875 0.49585 0.21875 0.536865 0.141113 0.531006 0.193359 0.49585 0.21875 0.531006 0.193359 0.621582 0.259277 0.468262 0.18042 0.49585 0.21875 0.458008 0.257568 0.49585 0.21875 0.621582 0.259277 0.514404 0.287842 0.618164 0.834229 0.676514 0.856445 0.622314 0.868652 0.645508 0.793701 0.703369 0.816406 0.618164 0.834229 0.618164 0.834229 0.703369 0.816406 0.676514 0.856445 0.676514 0.856445 0.703369 0.816406 0.727051 0.83252 0.676514 0.856445 0.727051 0.83252 0.751465 0.862549 0.622314 0.868652 0.676514 0.856445 0.67627 0.904297 0.67627 0.904297 0.676514 0.856445 0.751465 0.862549 0.67627 0.904297 0.751465 0.862549 0.755127 0.909668 0.622314 0.868652 0.67627 0.904297 0.608398 0.912842 0.67627 0.904297 0.755127 0.909668 0.697021 0.943359 0.67627 0.904297 0.697021 0.943359 0.608398 0.912842 0.608398 0.912842 0.697021 0.943359 0.607422 0.951416 0.607422 0.951416 0.697021 0.943359 0.687988 0.994385 0.687988 0.994385 0.697021 0.943359 0.732666 1 0.607422 0.951416 0.687988 0.994385 0.596924 0.982178 0.607422 0.951416 0.596924 0.982178 0.557373 0.98999 0.298828 0.031006 0.300537 0.10083 0.262939 0.05249 0.262939 0.05249 0.300537 0.10083 0.26709 0.132324 0.000244 0.754395 0.029785 0.754395 0.026367 0.809814 0.957275 0.94458 0.963379 0.990723 0.941406 0.969727 0.957275 0.94458 0.941406 0.969727 0.927002 0.936523 0.963379 0.990723 0.957275 0.94458 0.984131 0.951416 0.963379 0.990723 0.984131 0.951416 0.993652 0.991943 0.984131 0.951416 0.957275 0.94458 0.993164 0.906494 0.403076 0.876221 0.474609 0.886719 0.411377 0.931152 0.411377 0.931152 0.474609 0.886719 0.454834 0.927734 0.474609 0.886719 0.403076 0.876221 0.461182 0.834717 0.454834 0.927734 0.474609 0.886719 0.50708 0.944336 0.454834 0.927734 0.50708 0.944336 0.440674 0.947021 0.50708 0.944336 0.474609 0.886719 0.546387 0.918945 0.474609 0.886719 0.461182 0.834717 0.513916 0.860352 0.474609 0.886719 0.513916 0.860352 0.546387 0.918945 0.546387 0.918945 0.513916 0.860352 0.586426 0.881348 0.546387 0.918945 0.586426 0.881348 0.601562 0.945801 0.513916 0.860352 0.461182 0.834717 0.522705 0.836182 0.513916 0.860352 0.522705 0.836182 0.586426 0.881348 0.522705 0.836182 0.461182 0.834717 0.465088 0.795898 0.586426 0.881348 0.522705 0.836182 0.631348 0.793945 0.522705 0.836182 0.465088 0.795898 0.544434 0.759277 0.522705 0.836182 0.544434 0.759277 0.631348 0.793945 0.670654 0.098877 0.608154 0.077881 0.674561 0.000488</float_array>
          <technique_common>
            <accessor source="#FishOil-mesh-map-0-array" count="1416" stride="2">
              <param name="S" type="float"/>
              <param name="T" type="float"/>
            </accessor>
          </technique_common>
        </source>
        <vertices id="FishOil-mesh-vertices">
          <input semantic="POSITION" source="#FishOil-mesh-positions"/>
        </vertices>
        <polylist material="Material_-1-material" count="6">
          <input semantic="VERTEX" source="#FishOil-mesh-vertices" offset="0"/>
          <input semantic="NORMAL" source="#FishOil-mesh-normals" offset="1"/>
          <input semantic="TEXCOORD" source="#FishOil-mesh-map-0" offset="2" set="0"/>
          <vcount>3 3 3 3 3 3 3 3 3 3 3 3 3 3 3 3 3 3 3 3 3 3 3 3 3 3 3 3 3 3 3 3 3 3 3 3 3 3 3 3 3 3 3 3 3 3 3 3 3 3 3 3 3 3 3 3 3 3 3 3 3 3 3 3 3 3 3 3 3 3 3 3 3 3 3 3 3 3 3 3 3 3 3 3 3 3 3 3 3 3 3 3 3 3 3 3 3 3 3 3 3 3 3 3 3 3 3 3 3 3 3 3 3 3 3 3 3 3 3 3 3 3 3 3 3 3 3 3 3 3 3 3 3 3 3 3 3 3 3 3 3 3 3 3 3 3 3 3 3 3 3 3 3 3 3 3 3 3 3 3 3 3 3 3 3 3 3 3 3 3 3 3 3 3 3 3 3 3 3 3 3 3 3 3 3 3 3 3 3 3 3 3 3 3 3 3 3 3 3 3 3 3 3 3 3 3 3 3 3 3 3 3 3 3 3 3 3 3 3 3 3 3 3 3 3 3 3 3 3 3 3 3 3 3 3 3 3 3 3 3 3 3 3 3 3 3 3 3 3 3 3 3 3 3 3 3 3 3 3 3 3 3 3 3 3 3 3 3 3 3 3 3 3 3 3 3 3 3 3 3 3 3 3 3 3 3 3 3 3 3 3 3 3 3 3 3 3 3 3 3 3 3 3 3 3 3 3 3 3 3 3 3 3 3 3 3 3 3 3 3 3 3 3 3 3 3 3 3 3 3 3 3 3 3 3 3 3 3 3 3 3 3 3 3 3 3 3 3 3 3 3 3 3 3 3 3 3 3 3 3 3 3 3 3 3 3 3 3 3 3 3 3 3 3 3 3 3 3 3 3 3 3 3 3 3 3 3 3 3 3 3 3 3 3 3 3 3 3 3 3 3 3 3 3 3 3 3 3 3 3 3 3 3 3 3 3 3 3 3 3 3 3 3 3 3 3 3 3 3 3 3 3 3 3 3 3 3 3 3 3 3 3 3 3 3 3 3 3 3 3 3 3 3 3 3 3 3 3 3 3 3 3 3 3 3 3 3 3 3 3 3 3</vcount>
          <p>0 0 0 1 0 1 2 0 2 0 1 3 2 1 4 3 1 5 2 2 6 1 2 7 4 2 8 0 3 9 3 3 10 5 3 11 0 4 12 5 4 13 6 4 14 0 5 15 6 5 16 1 5 17 6 6 18 5 6 19 7 6 20 4 7 21 1 7 22 8 7 23 8 8 24 1 8 25 6 8 26 9 9 27 10 9 28 4 9 29 9 10 30 4 10 31 8 10 32 6 11 33 7 11 34 11 11 35 11 12 36 7 12 37 12 12 38 8 13 39 6 13 40 13 13 41 13 14 42 6 14 43 11 14 44 11 15 45 12 15 46 14 15 47 11 16 48 14 16 49 13 16 50 14 17 51 12 17 52 15 17 53 14 18 54 15 18 55 16 18 56 13 19 57 14 19 58 17 19 59 17 20 60 14 20 61 16 20 62 13 21 63 17 21 64 8 21 65 17 22 66 16 22 67 18 22 68 17 23 69 18 23 70 19 23 71 8 24 72 17 24 73 20 24 74 20 25 75 17 25 76 19 25 77 8 26 78 20 26 79 9 26 80 20 27 81 19 27 82 21 27 83 20 28 84 21 28 85 9 28 86 21 29 87 19 29 88 22 29 89 9 30 90 21 30 91 23 30 92 24 31 93 25 31 94 26 31 95 25 32 96 24 32 97 2 32 98 2 33 99 24 33 100 3 33 101 25 34 102 2 34 103 4 34 104 25 35 105 4 35 106 10 35 107 27 36 108 28 36 109 29 36 110 30 37 111 31 37 112 28 37 113 28 38 114 31 38 115 32 38 116 28 39 117 32 39 118 29 39 119 29 40 120 32 40 121 33 40 122 28 41 123 27 41 124 34 41 125 28 42 126 34 42 127 35 42 128 27 43 129 29 43 130 26 43 131 27 44 132 26 44 133 34 44 134 29 45 135 33 45 136 36 45 137 29 46 138 36 46 139 26 46 140 36 47 141 33 47 142 37 47 143 34 48 144 26 48 145 38 48 146 34 49 147 38 49 148 39 49 149 39 50 150 38 50 151 40 50 152 38 51 153 26 51 154 25 51 155 26 52 156 36 52 157 41 52 158 26 53 159 41 53 160 24 53 161 36 54 162 37 54 163 42 54 164 36 55 165 42 55 166 41 55 167 42 56 168 37 56 169 43 56 170 41 57 171 42 57 172 44 57 173 42 58 174 43 58 175 45 58 176 44 59 177 42 59 178 46 59 179 46 60 180 42 60 181 45 60 182 46 61 183 45 61 184 47 61 185 24 62 186 41 62 187 48 62 188 24 63 189 48 63 190 3 63 191 48 64 192 41 64 193 44 64 194 48 65 195 44 65 196 49 65 197 25 66 198 40 66 199 38 66 200 40 67 201 25 67 202 10 67 203 40 68 204 10 68 205 23 68 206 23 69 207 10 69 208 9 69 209 40 70 210 23 70 211 50 70 212 50 71 213 23 71 214 51 71 215 51 72 216 23 72 217 21 72 218 51 73 219 21 73 220 52 73 221 51 74 222 52 74 223 53 74 224 52 75 225 21 75 226 54 75 227 39 76 228 35 76 229 34 76 230 35 77 231 39 77 232 55 77 233 5 78 234 3 78 235 49 78 236 49 79 237 3 79 238 48 79 239 5 80 240 49 80 241 56 80 242 5 81 243 56 81 244 7 81 245 56 82 246 49 82 247 57 82 248 58 83 249 33 83 250 32 83 251 58 84 252 32 84 253 31 84 254 33 85 255 58 85 256 59 85 257 33 86 258 59 86 259 37 86 260 37 87 261 59 87 262 43 87 263 43 88 264 59 88 265 60 88 266 43 89 267 60 89 268 45 89 269 60 90 270 59 90 271 61 90 272 61 91 273 59 91 274 62 91 275 62 92 276 59 92 277 58 92 278 61 93 279 62 93 280 63 93 281 63 94 282 62 94 283 64 94 284 64 95 285 62 95 286 58 95 287 64 96 288 58 96 289 31 96 290 64 97 291 31 97 292 65 97 293 65 98 294 31 98 295 66 98 296 64 99 297 65 99 298 67 99 299 64 100 300 67 100 301 68 100 302 67 101 303 65 101 304 69 101 305 67 102 306 69 102 307 70 102 308 69 103 309 65 103 310 71 103 311 71 104 312 65 104 313 72 104 314 69 105 315 71 105 316 73 105 317 69 106 318 73 106 319 70 106 320 73 107 321 71 107 322 74 107 323 73 108 324 74 108 325 75 108 326 73 109 327 75 109 328 70 109 329 70 110 330 75 110 331 76 110 332 40 111 333 50 111 334 39 111 335 39 112 336 50 112 337 55 112 338 55 113 339 50 113 340 77 113 341 55 114 342 77 114 343 78 114 344 78 115 345 77 115 346 79 115 347 79 116 348 77 116 349 53 116 350 49 117 351 44 117 352 57 117 353 57 118 354 44 118 355 80 118 356 80 119 357 44 119 358 46 119 359 80 120 360 46 120 361 47 120 362 80 121 363 47 121 364 81 121 365 81 122 366 47 122 367 82 122 368 82 123 369 47 123 370 83 123 371 81 124 372 82 124 373 84 124 374 82 125 375 83 125 376 85 125 377 84 126 378 82 126 379 86 126 380 86 127 381 82 127 382 85 127 383 87 128 384 71 128 385 72 128 386 87 129 387 72 129 388 88 129 389 87 130 390 88 130 391 89 130 392 87 131 393 89 131 394 90 131 395 87 132 396 90 132 397 74 132 398 74 133 399 90 133 400 91 133 401 91 134 402 90 134 403 92 134 404 92 135 405 90 135 406 89 135 407 91 136 408 92 136 409 93 136 410 93 137 411 92 137 412 94 137 413 92 138 414 89 138 415 95 138 416 92 139 417 95 139 418 94 139 419 95 140 420 89 140 421 96 140 422 94 141 423 95 141 424 97 141 425 97 142 426 95 142 427 98 142 428 7 143 429 56 143 430 99 143 431 7 144 432 99 144 433 12 144 434 12 145 435 99 145 436 100 145 437 100 146 438 99 146 439 101 146 440 99 147 441 56 147 442 102 147 443 99 148 444 102 148 445 101 148 446 102 149 447 56 149 448 57 149 449 101 150 450 102 150 451 103 150 452 103 151 453 102 151 454 104 151 455 104 152 456 102 152 457 57 152 458 103 153 459 104 153 460 105 153 461 104 154 462 57 154 463 81 154 464 104 155 465 81 155 466 105 155 467 81 156 468 57 156 469 80 156 470 105 157 471 81 157 472 84 157 473 105 158 474 84 158 475 86 158 476 87 159 477 74 159 478 71 159 479 91 160 480 106 160 481 74 160 482 74 161 483 106 161 484 75 161 485 106 162 486 91 162 487 107 162 488 106 163 489 107 163 490 75 163 491 107 164 492 91 164 493 93 164 494 75 165 495 107 165 496 76 165 497 107 166 498 93 166 499 108 166 500 76 167 501 107 167 502 109 167 503 109 168 504 107 168 505 108 168 506 76 169 507 109 169 508 110 169 509 76 170 510 110 170 511 111 170 512 111 171 513 110 171 514 112 171 515 112 172 516 110 172 517 113 172 518 113 173 519 110 173 520 109 173 521 112 174 522 113 174 523 114 174 524 114 175 525 113 175 526 115 175 527 113 176 528 109 176 529 116 176 530 113 177 531 116 177 532 115 177 533 116 178 534 109 178 535 108 178 536 115 179 537 116 179 538 117 179 539 116 180 540 108 180 541 118 180 542 116 181 543 118 181 544 117 181 545 88 182 546 72 182 547 119 182 548 120 183 549 72 183 550 66 183 551 72 184 552 120 184 553 119 184 554 119 185 555 120 185 556 121 185 557 88 186 558 119 186 559 96 186 560 88 187 561 96 187 562 89 187 563 119 188 564 121 188 565 122 188 566 119 189 567 122 189 568 96 189 569 122 190 570 121 190 571 123 190 572 96 191 573 122 191 574 98 191 575 96 192 576 98 192 577 95 192 578 122 193 579 123 193 580 124 193 581 122 194 582 124 194 583 98 194 584 124 195 585 123 195 586 125 195 587 98 196 588 124 196 589 126 196 590 15 197 591 12 197 592 100 197 593 15 198 594 100 198 595 127 198 596 127 199 597 100 199 598 128 199 599 128 200 600 100 200 601 101 200 602 127 201 603 128 201 604 129 201 605 127 202 606 129 202 607 130 202 608 128 203 609 101 203 610 131 203 611 128 204 612 131 204 613 129 204 614 131 205 615 101 205 616 103 205 617 130 206 618 129 206 619 132 206 620 131 207 621 103 207 622 133 207 623 133 208 624 103 208 625 105 208 626 129 209 627 131 209 628 134 209 629 129 210 630 134 210 631 132 210 632 134 211 633 131 211 634 133 211 635 133 212 636 105 212 637 135 212 638 133 213 639 135 213 640 134 213 641 135 214 642 105 214 643 86 214 644 135 215 645 86 215 646 136 215 647 134 216 648 135 216 649 137 216 650 134 217 651 137 217 652 132 217 653 137 218 654 135 218 655 136 218 656 132 219 657 137 219 658 138 219 659 138 220 660 137 220 661 136 220 662 66 221 663 72 221 664 65 221 665 51 222 666 77 222 667 50 222 668 77 223 669 51 223 670 53 223 671 67 224 672 70 224 673 139 224 674 67 225 675 139 225 676 68 225 677 111 226 678 70 226 679 76 226 680 70 227 681 111 227 682 140 227 683 70 228 684 140 228 685 139 228 686 140 229 687 111 229 688 112 229 689 140 230 690 112 230 691 141 230 692 140 231 693 141 231 694 139 231 695 141 232 696 112 232 697 142 232 698 139 233 699 141 233 700 143 233 701 143 234 702 141 234 703 142 234 704 139 235 705 143 235 706 68 235 707 143 236 708 142 236 709 144 236 710 68 237 711 143 237 712 63 237 713 68 238 714 63 238 715 64 238 716 63 239 717 143 239 718 145 239 719 145 240 720 143 240 721 144 240 722 145 241 723 144 241 724 146 241 725 147 242 726 45 242 727 60 242 728 147 243 729 60 243 730 148 243 731 147 244 732 148 244 733 149 244 734 148 245 735 60 245 736 61 245 737 149 246 738 148 246 739 150 246 740 150 247 741 148 247 742 61 247 743 150 248 744 61 248 745 145 248 746 145 249 747 61 249 748 63 249 749 47 250 750 45 250 751 147 250 752 47 251 753 147 251 754 83 251 755 83 252 756 147 252 757 149 252 758 83 253 759 149 253 760 151 253 761 83 254 762 151 254 763 85 254 764 85 255 765 151 255 766 152 255 767 151 256 768 149 256 769 153 256 770 151 257 771 153 257 772 152 257 773 153 258 774 149 258 775 150 258 776 153 259 777 150 259 778 154 259 779 152 260 780 153 260 781 155 260 782 155 261 783 153 261 784 154 261 785 152 262 786 155 262 787 156 262 788 156 263 789 155 263 790 157 263 791 155 264 792 154 264 793 158 264 794 155 265 795 158 265 796 157 265 797 159 266 798 154 266 799 160 266 800 154 267 801 159 267 802 161 267 803 154 268 804 161 268 805 158 268 806 161 269 807 159 269 808 162 269 809 157 270 810 158 270 811 163 270 812 163 271 813 158 271 814 161 271 815 163 272 816 161 272 817 162 272 818 157 273 819 163 273 820 164 273 821 164 274 822 163 274 823 162 274 824 16 275 825 15 275 826 165 275 827 16 276 828 165 276 829 18 276 830 18 277 831 165 277 832 166 277 833 18 278 834 166 278 835 167 278 836 167 279 837 166 279 838 168 279 839 18 280 840 167 280 841 169 280 842 18 281 843 169 281 844 19 281 845 19 282 846 169 282 847 22 282 848 169 283 849 167 283 850 170 283 851 169 284 852 170 284 853 22 284 854 170 285 855 167 285 856 171 285 857 170 286 858 171 286 859 172 286 860 170 287 861 172 287 862 54 287 863 170 288 864 54 288 865 22 288 866 22 289 867 54 289 868 21 289 869 35 290 870 30 290 871 28 290 872 30 291 873 35 291 874 173 291 875 173 292 876 35 292 877 55 292 878 66 293 879 31 293 880 30 293 881 66 294 882 30 294 883 173 294 884 173 295 885 55 295 886 78 295 887 66 296 888 173 296 889 120 296 890 120 297 891 173 297 892 174 297 893 174 298 894 173 298 895 78 298 896 120 299 897 174 299 898 121 299 899 121 300 900 174 300 901 175 300 902 121 301 903 175 301 904 123 301 905 174 302 906 78 302 907 176 302 908 174 303 909 176 303 910 175 303 911 176 304 912 78 304 913 79 304 914 175 305 915 176 305 916 177 305 917 177 306 918 176 306 919 79 306 920 97 307 921 178 307 922 94 307 923 178 308 924 97 308 925 179 308 926 179 309 927 97 309 928 98 309 929 94 310 930 178 310 931 180 310 932 180 311 933 178 311 934 179 311 935 94 312 936 180 312 937 93 312 938 179 313 939 98 313 940 126 313 941 93 314 942 180 314 943 118 314 944 93 315 945 118 315 946 108 315 947 180 316 948 179 316 949 181 316 950 180 317 951 181 317 952 118 317 953 118 318 954 181 318 955 182 318 956 118 319 957 182 319 958 117 319 959 182 320 960 181 320 961 183 320 962 182 321 963 183 321 964 184 321 965 181 322 966 179 322 967 185 322 968 181 323 969 185 323 970 183 323 971 185 324 972 179 324 973 126 324 974 183 325 975 185 325 976 186 325 977 186 326 978 185 326 979 126 326 980 186 327 981 126 327 982 125 327 983 125 328 984 126 328 985 124 328 986 54 329 987 172 329 988 52 329 989 52 330 990 172 330 991 53 330 992 53 331 993 172 331 994 187 331 995 187 332 996 172 332 997 188 332 998 187 333 999 188 333 1000 189 333 1001 188 334 1002 172 334 1003 171 334 1004 189 335 1005 188 335 1006 190 335 1007 188 336 1008 171 336 1009 191 336 1010 188 337 1011 191 337 1012 190 337 1013 190 338 1014 191 338 1015 192 338 1016 192 339 1017 191 339 1018 193 339 1019 192 340 1020 193 340 1021 194 340 1022 192 341 1023 194 341 1024 195 341 1025 187 342 1026 79 342 1027 53 342 1028 79 343 1029 187 343 1030 177 343 1031 177 344 1032 187 344 1033 189 344 1034 177 345 1035 189 345 1036 196 345 1037 177 346 1038 196 346 1039 197 346 1040 177 347 1041 197 347 1042 175 347 1043 196 348 1044 189 348 1045 198 348 1046 198 349 1047 189 349 1048 190 349 1049 197 350 1050 196 350 1051 199 350 1052 197 351 1053 199 351 1054 175 351 1055 199 352 1056 196 352 1057 198 352 1058 175 353 1059 199 353 1060 123 353 1061 123 354 1062 199 354 1063 200 354 1064 199 355 1065 198 355 1066 201 355 1067 201 356 1068 198 356 1069 202 356 1070 202 357 1071 198 357 1072 190 357 1073 202 358 1074 190 358 1075 192 358 1076 202 359 1077 192 359 1078 195 359 1079 202 360 1080 195 360 1081 203 360 1082 150 361 1083 160 361 1084 154 361 1085 160 362 1086 150 362 1087 145 362 1088 160 363 1089 145 363 1090 146 363 1091 160 364 1092 146 364 1093 159 364 1094 144 365 1095 142 365 1096 204 365 1097 144 366 1098 204 366 1099 146 366 1100 205 367 1101 159 367 1102 146 367 1103 205 368 1104 146 368 1105 206 368 1106 206 369 1107 146 369 1108 204 369 1109 204 370 1110 142 370 1111 207 370 1112 207 371 1113 142 371 1114 112 371 1115 207 372 1116 112 372 1117 114 372 1118 206 373 1119 204 373 1120 208 373 1121 206 374 1122 208 374 1123 209 374 1124 204 375 1125 207 375 1126 210 375 1127 204 376 1128 210 376 1129 208 376 1130 207 377 1131 114 377 1132 211 377 1133 207 378 1134 211 378 1135 210 378 1136 211 379 1137 114 379 1138 115 379 1139 209 380 1140 208 380 1141 212 380 1142 212 381 1143 208 381 1144 210 381 1145 210 382 1146 211 382 1147 213 382 1148 213 383 1149 211 383 1150 115 383 1151 210 384 1152 213 384 1153 212 384 1154 213 385 1155 115 385 1156 117 385 1157 213 386 1158 117 386 1159 214 386 1160 213 387 1161 214 387 1162 212 387 1163 214 388 1164 117 388 1165 182 388 1166 214 389 1167 182 389 1168 184 389 1169 214 390 1170 184 390 1171 212 390 1172 212 391 1173 184 391 1174 215 391 1175 215 392 1176 184 392 1177 183 392 1178 215 393 1179 183 393 1180 186 393 1181 156 394 1182 85 394 1183 152 394 1184 15 395 1185 216 395 1186 165 395 1187 165 396 1188 217 396 1189 166 396 1190 217 397 1191 165 397 1192 216 397 1193 166 398 1194 217 398 1195 168 398 1196 168 399 1197 217 399 1198 218 399 1199 168 400 1200 218 400 1201 219 400 1202 219 401 1203 218 401 1204 220 401 1205 220 402 1206 218 402 1207 221 402 1208 220 403 1209 221 403 1210 222 403 1211 220 404 1212 222 404 1213 219 404 1214 219 405 1215 222 405 1216 193 405 1217 193 406 1218 222 406 1219 194 406 1220 168 407 1221 219 407 1222 223 407 1223 168 408 1224 223 408 1225 167 408 1226 167 409 1227 223 409 1228 171 409 1229 223 410 1230 219 410 1231 224 410 1232 224 411 1233 219 411 1234 193 411 1235 223 412 1236 224 412 1237 171 412 1238 224 413 1239 193 413 1240 191 413 1241 224 414 1242 191 414 1243 171 414 1244 216 415 1245 15 415 1246 127 415 1247 216 416 1248 127 416 1249 225 416 1250 225 417 1251 127 417 1252 130 417 1253 225 418 1254 130 418 1255 226 418 1256 226 419 1257 130 419 1258 132 419 1259 226 420 1260 132 420 1261 227 420 1262 227 421 1263 132 421 1264 138 421 1265 227 422 1266 138 422 1267 228 422 1268 227 423 1269 228 423 1270 226 423 1271 226 424 1272 228 424 1273 229 424 1274 229 425 1275 228 425 1276 230 425 1277 225 426 1278 226 426 1279 221 426 1280 221 427 1281 226 427 1282 229 427 1283 221 428 1284 229 428 1285 230 428 1286 225 429 1287 221 429 1288 218 429 1289 221 430 1290 230 430 1291 222 430 1292 136 431 1293 231 431 1294 138 431 1295 86 432 1296 85 432 1297 136 432 1298 136 433 1299 85 433 1300 231 433 1301 231 434 1302 85 434 1303 156 434 1304 231 435 1305 156 435 1306 157 435 1307 138 436 1308 231 436 1309 232 436 1310 232 437 1311 231 437 1312 157 437 1313 232 438 1314 157 438 1315 164 438 1316 138 439 1317 232 439 1318 228 439 1319 232 440 1320 164 440 1321 233 440 1322 232 441 1323 233 441 1324 228 441 1325 228 442 1326 233 442 1327 230 442 1328 230 443 1329 233 443 1330 195 443 1331 195 444 1332 233 444 1333 203 444 1334 230 445 1335 195 445 1336 194 445 1337 230 446 1338 194 446 1339 222 446 1340 217 447 1341 216 447 1342 218 447 1343 218 448 1344 216 448 1345 225 448 1346 200 449 1347 125 449 1348 123 449 1349 209 450 1350 125 450 1351 200 450 1352 209 451 1353 200 451 1354 234 451 1355 125 452 1356 209 452 1357 215 452 1358 125 453 1359 215 453 1360 186 453 1361 215 454 1362 209 454 1363 212 454 1364 199 455 1365 235 455 1366 200 455 1367 200 456 1368 235 456 1369 234 456 1370 235 457 1371 199 457 1372 201 457 1373 234 458 1374 235 458 1375 206 458 1376 234 459 1377 206 459 1378 209 459 1379 206 460 1380 235 460 1381 205 460 1382 235 461 1383 201 461 1384 236 461 1385 235 462 1386 236 462 1387 205 462 1388 205 463 1389 236 463 1390 162 463 1391 205 464 1392 162 464 1393 159 464 1394 236 465 1395 201 465 1396 237 465 1397 236 466 1398 237 466 1399 162 466 1400 237 467 1401 201 467 1402 202 467 1403 162 468 1404 237 468 1405 164 468 1406 237 469 1407 202 469 1408 203 469 1409 237 470 1410 203 470 1411 164 470 1412 164 471 1413 203 471 1414 233 471 1415</p>
        </polylist>
      </mesh>
    </geometry>
  </library_geometries>
  <library_visual_scenes>
    <visual_scene id="Scene" name="Scene">
      <node id="FishOil" name="FishOil" type="NODE">
        <scale sid="scale">1 1 1</scale>
        <translate sid="location">0 0 0</translate>
        <rotate sid="rotationX">1 0 0 0</rotate>
        <rotate sid="rotationY">0 1 0 0</rotate>
        <rotate sid="rotationZ">0 0 1 0</rotate>
        <instance_geometry url="#FishOil-mesh" name="FishOil">
          <bind_material>
            <technique_common>
            </technique_common>
          </bind_material>
        </instance_geometry>
      </node>
    </visual_scene>
  </library_visual_scenes>
  <scene>
    <instance_visual_scene url="#Scene"/>
  </scene>
</COLLADA>
