<?xml version="1.0" encoding="utf-8"?>
<COLLADA xmlns="http://www.collada.org/2005/11/COLLADASchema" version="1.4.1" xmlns:xsi="http://www.w3.org/2001/XMLSchema-instance">
  <asset>
    <contributor>
      <author>Blockbench user</author>
      <authoring_tool>Blockbench</authoring_tool>
    </contributor>
    <created>2026-01-01T03:48:43.908Z</created>
    <modified>2026-01-01T03:48:43.909Z</modified>
    <unit name="meter" meter="1.0"/>
    <up_axis>Y_UP</up_axis>
  </asset>
  <library_effects>
  </library_effects>
  <library_images>
  </library_images>
  <library_materials>
  </library_materials>
  <library_geometries>
    <geometry id="Flagfish-mesh" name="Flagfish">
      <mesh>
        <source id="Flagfish-mesh-positions">
          <float_array id="Flagfish-mesh-positions-array" count="756">-0.002366 -0.255798 -0.492432 -0.000005 -0.203613 -0.461914 0.004297 -0.198181 -0.426331 -0.005825 -0.12587 -0.384125 -0.005161 -0.066879 -0.386047 0.000343 -0.050835 -0.406647 0.001886 -0.154144 -0.422699 0.007603 -0.01075 -0.376648 0.007252 -0.04546 -0.354065 -0.008722 -0.024694 -0.374756 -0.003513 -0.042439 -0.347961 -0.013771 -0.025591 -0.324463 0.001113 -0.032944 -0.323608 -0.006551 -0.055279 -0.263092 0.013053 -0.027716 -0.31839 0.006108 -0.090446 -0.255859 -0.005968 -0.075302 -0.270752 0.003841 -0.075378 -0.212463 0.006045 -0.090561 -0.18605 -0.025949 -0.080849 -0.152344 -0.031506 -0.017765 -0.21904 -0.005035 -0.091385 -0.182358 0.005071 -0.153702 -0.23262 0.000951 -0.172729 -0.20462 -0.001534 -0.178497 -0.242233 -0.004586 -0.143661 -0.226791 -0.001297 -0.118607 -0.240372 -0.00409 -0.077942 -0.209534 -0.043972 -0.070107 -0.100952 -0.044632 -0.013629 -0.131638 -0.013776 -0.113068 -0.060383 0.004299 -0.108383 -0.121239 0.015268 -0.113312 0.001845 0.050156 -0.072655 -0.043186 0.047176 -0.071281 -0.086281 0.025686 -0.075989 -0.166473 0.037079 -0.048878 -0.164337 -0.008616 -0.098671 -0.162064 0.004935 -0.107864 -0.155273 -0.005342 -0.139771 -0.180176 0.035397 -0.018145 -0.191467 -0.000671 0.008965 -0.4133 -0.005609 -0.006625 -0.380676 0.001724 0.109497 -0.443542 -0.016804 -0.009554 -0.365265 -0.013971 -0.000674 -0.329102 -0.003567 0.143387 -0.420898 -0.001724 0.186188 -0.483795 -0.007391 0.015279 -0.353119 0.005946 0.09227 -0.387573 0.004026 0.176224 -0.452515 0.012342 0.000262 -0.339203 0.00101 0.0067 -0.325439 0.0054 0.042336 -0.235413 0.025276 0.007286 -0.262207 0.00623 0.018408 -0.370941 0.017958 -0.010378 -0.364014 -0.026705 0.009845 -0.246521 -0.036503 0.024763 -0.161362 0.037148 0.021126 -0.162125 -0.001552 0.057388 -0.281555 -0.003885 0.054688 -0.197678 -0.004691 0.096413 -0.287933 -0.004129 0.068367 -0.161697 -0.005124 0.152695 -0.289734 -0.002805 0.079224 -0.120552 -0.003929 0.185562 -0.293915 -0.002398 0.185425 -0.228714 -0.004111 0.128235 -0.129471 0.000207 0.206009 -0.202835 -0.004531 0.174698 -0.130692 -0.022636 0.068375 -0.117722 -0.049629 -0.072304 -0.042423 -0.012744 -0.11422 0.031452 -0.050976 -0.004808 -0.0653 -0.047276 -0.075211 0.014874 -0.044628 0.032459 -0.079048 -0.044689 0.045799 0.029554 -0.04221 0.039555 -0.04863 -0.016109 0.098259 -0.008193 -0.003875 0.088699 -0.086555 -0.003989 0.095558 -0.05769 0.047646 -0.010052 -0.110657 0.043655 0.035461 -0.07489 0.026127 0.061489 -0.126556 0.017443 0.099777 0.016886 0.003622 0.105545 -0.033012 0.00335 0.097176 -0.05777 0.004161 0.068985 -0.164215 0.003801 0.056969 -0.193237 0.002649 0.081688 -0.117554 0.004606 0.128006 -0.223312 0.005015 0.122993 -0.124191 0.004316 0.191986 -0.15274 0.002246 0.125168 -0.172531 0.051395 -0.001682 -0.041912 0.050194 -0.009501 0.054707 0.044811 0.042374 0.020531 0.034866 0.075569 0.050831 0.005204 0.141342 -0.289246 0.003407 0.178268 -0.299103 0.005341 0.092377 -0.287781 -0.003352 0.207703 -0.308655 -0.004782 0.26413 -0.312012 -0.003437 0.243637 -0.214615 -0.004653 0.301331 -0.309296 0.004907 0.210052 -0.308533 0.005031 0.268036 -0.313019 0.005345 0.300781 -0.309448 0.003766 0.251404 -0.208069 0.003133 0.182007 -0.21347 0.000421 0.206497 -0.200653 0.004631 0.178574 -0.079964 0.003722 0.316071 -0.283966 0.00484 0.329315 -0.255463 -0.003667 0.265778 -0.18306 -0.0046 0.167267 -0.041824 -0.003564 0.256348 -0.11335 0.000398 0.329773 -0.301147 -0.004621 0.335083 -0.249283 0.002001 0.333038 -0.215286 -0.003954 0.309052 -0.153046 0.004929 0.312775 -0.154083 -0.004466 0.278778 -0.08728 0.004768 0.275299 -0.083939 -0.003975 0.253174 -0.038971 0.002939 0.155426 0.003242 0.0049 0.21524 -0.022301 0.005618 0.109413 0.048401 0.004666 0.197495 0.029022 0.004727 0.244949 0.015009 0.004104 0.254791 0.048168 -0.004174 0.242798 0.017822 -0.002593 0.104317 -0.026527 -0.003021 0.114929 0.025549 -0.005236 0.198639 -0.012092 -0.004371 0.196808 0.029032 -0.004263 0.251617 0.044647 0.003923 0.25592 -0.112015 -0.06546 -0.258484 0.031506 -0.045712 -0.183517 0.073471 -0.078476 -0.249786 0.038715 -0.027288 -0.101326 0.094597 -0.013608 -0.108856 0.086693 -0.01965 -0.108017 0.09906 0.027292 -0.102089 0.092934 0.042568 -0.089355 0.063507 0.038303 -0.084076 0.121986 0.045078 -0.079468 0.019394 0.052883 -0.054848 0.055031 0.059494 -0.025911 0.089195 0.022795 -0.117645 0.084373 0.015432 -0.109505 0.097313 -0.042572 -0.089928 0.061363 -0.05051 -0.05526 0.054146 -0.0513 -0.021788 0.057793 -0.133636 -0.000751 0.018951 -0.112869 -0.02564 0.001052 -0.061462 -0.048363 0.048832 -0.07357 -0.02424 0.058655 -0.042458 -0.078682 0.116234 -0.06139 -0.022409 0.091698 -0.050541 -0.061333 0.127899 -0.037766 -0.083 0.161377 -0.061592 -0.004585 0.095947 -0.059612 0.025433 0.150009 0.078072 -0.243637 0.042217 0.053558 -0.211639 0.061489 0.092285 -0.317139 -0.003051 0.057377 -0.232239 0.041409 0.055214 -0.024899 0.063202 0.084137 -0.020351 0.053432 0.146393 -0.011833 -0.026468 0.146347 0.002322 0.004543 0.112114 -0.008095 0.045086 -0.001818 -0.100166 0.152679 -0.014851 -0.092468 0.179031 -0.033779 -0.064888 0.189972 -0.016376 -0.058109 0.233505 0.001997 -0.099632 0.169739 0.001119 -0.085358 0.216522 0.016714 -0.06081 0.226974 0.017689 -0.090775 0.180695 0.045845 -0.0756 0.145935 0.037373 -0.067741 0.172379 0.054485 -0.042984 0.147446 0.047108 -0.039528 0.19545 0.043613 -0.01849 0.214569 0.060699 0.027599 0.148941 0.031651 -0.011176 0.244461 0.022722 -0.038288 0.206345 -0.04689 -0.043606 0.19136 -0.045082 -0.015296 0.209061 -0.038467 0.01593 0.249878 -0.039177 -0.028553 0.218719 -0.054455 0.013273 0.185425 -0.056152 -0.00066 0.215485 -0.050957 0.027786 0.217636 -0.036057 0.037365 0.172653 -0.011627 0.046593 0.216461 -0.05711 0.031139 0.103134 -0.028198 0.060661 0.169067 0.003734 0.055634 0.212692 -0.035378 0.058762 0.10202 0.051563 -0.061638 0.119095 0.060722 -0.017429 0.105545 0.059952 0.029491 0.088562 0.062737 -0.015839 0.092834 0.034756 0.053333 0.120041 0.028473 0.073151 0.145493 0.008645 0.106224 0.105804 0.008025 0.100319 0.130875 -0.026932 -0.028679 0.269196 -0.019833 -0.041676 0.205292 -0.014711 -0.010398 0.224701 -0.002042 -0.034103 0.23201 0.017998 -0.01775 0.217865 0.014582 -0.034412 0.308044 0.00416 -0.046665 0.277252 -0.005694 -0.038982 0.323486 -0.025354 0.005273 0.299042 -0.00187 0.027611 0.268707 -0.013248 0.014362 0.308746 0.011949 0.012615 0.326599 0.035889 0.006685 0.259796 0.009492 0.012691 0.440063 0.018282 -0.00011 0.30307 -0.003694 -0.033344 0.299927 -0.012716 0.002527 0.328125 -0.010898 0.009727 0.414886 0.051174 0.027773 0.218613 0.038017 0.012655 0.256256 -0.058128 0.026283 0.079826 -0.039886 0.043472 0.06205 -0.031929 0.081894 0.068047 -0.008436 0.098923 0.130157 -0.004846 0.111122 0.059246 -0.00359 0.122002 0.080109 -0.005379 0.108612 0.101814 -0.002369 0.194244 0.107697 -0.003852 0.191544 0.085625 0.001163 0.259216 0.070099 0.004388 0.113487 0.081421 0.00435 0.171341 0.091248 0.003082 0.176758 0.110016 0.035599 0.038536 0.174561 0.053955 0.026419 0.176285 0.058353 0.005154 0.201004 0.009044 0.005487 0.464172 0.000432 0.015659 0.5 -0.006489 0.008133 0.491394 -0.01055 0.009908 0.419037</float_array>
          <technique_common>
            <accessor source="#Flagfish-mesh-positions-array" count="252" stride="3">
              <param name="X" type="float"/>
              <param name="Y" type="float"/>
              <param name="Z" type="float"/>
            </accessor>
          </technique_common>
        </source>
        <source id="Flagfish-mesh-normals">
          <float_array id="Flagfish-mesh-normals-array" count="1500">0.991876 0.027729 -0.124151 -0.996508 0.00851 -0.083062 -0.976442 0.075367 -0.202192 0.996154 0.027789 -0.083091 0.989453 0.064855 -0.129526 0.947582 0.062829 -0.313275 0.999081 -0.030008 -0.030593 0.980146 0.068993 -0.185884 0.529103 -0.371289 0.763016 -0.854507 -0.345833 0.38758 -0.941008 0.201536 -0.271821 -0.964031 -0.010291 -0.26559 -0.986636 -0.114353 0.116073 -0.9993 0.012398 0.035285 -0.904967 -0.413986 -0.098235 0.374317 -0.377505 0.846981 -0.424639 -0.813306 0.397763 -0.049855 -0.927289 0.371011 -0.396157 -0.843958 -0.361656 0.210886 -0.888469 0.407614 -0.172682 -0.757201 -0.629943 -0.99269 0.016817 -0.119512 0.994378 0.104735 0.01558 0.989345 0.145586 0.001133 0.494001 -0.808166 -0.320674 -0.546076 -0.745171 -0.382781 -0.627871 -0.727039 -0.277836 -0.96079 -0.236925 -0.144043 -0.716185 -0.642013 -0.273674 0.968435 -0.247909 -0.025965 0.992532 -0.081952 0.090355 -0.988691 -0.124004 0.084337 -0.14278 0.390614 -0.909415 -0.988389 -0.103244 0.11148 0.97096 0.132126 -0.199448 -0.689202 -0.273283 -0.671057 -0.992097 0.076205 -0.099681 0.967185 -0.254074 0.000454 0.323254 -0.519858 -0.79073 -0.998281 -0.030717 -0.049908 -0.995704 -0.088653 0.026722 0.626443 -0.707099 -0.327993 -0.998776 -0.04014 0.028909 -0.907107 -0.340904 -0.246863 -0.985544 -0.08963 -0.143767 -0.750641 -0.648242 -0.127751 -0.524014 -0.823072 -0.219003 0.095119 -0.994294 -0.048294 0.703748 -0.704606 -0.090933 0.68496 -0.725163 -0.070485 0.714487 -0.683079 -0.151367 0.90516 -0.362948 -0.221258 -0.701341 -0.710871 0.052758 -0.760231 -0.55712 -0.334166 0.839218 -0.543744 0.007391 -0.553323 -0.832648 -0.023037 0.744975 -0.592614 -0.306303 -0.984685 -0.001614 -0.174333 -0.602078 -0.361654 0.711835 -0.969959 -0.004814 -0.243221 0.998068 -0.062118 0.001073 -0.06024 -0.602023 0.796203 0.729524 -0.631996 -0.261488 0.961871 -0.227244 -0.152195 0.848373 -0.3235 -0.419059 -0.969748 -0.043174 -0.240261 -0.986355 0.143484 -0.080729 -0.986591 -0.025014 -0.161285 -0.802665 -0.056252 -0.593771 -0.902157 -0.420114 -0.098062 -0.881724 -0.457697 -0.114353 -0.858739 0.509148 -0.05775 -0.983379 -0.034413 -0.178272 -0.991367 -0.093055 -0.092372 -0.743311 0.499427 -0.445042 -0.998065 -0.003066 -0.062104 -0.932408 0.36107 -0.015618 -0.446728 0.42878 0.785227 0.504568 0.535445 0.677281 -0.276563 0.432048 0.858398 0.194148 0.791784 0.579124 -0.246589 0.783975 -0.569717 -0.350765 0.876456 -0.329833 0.076332 0.925812 -0.370197 0.786955 0.588349 -0.185867 0.974432 -0.008456 -0.224522 0.956519 -0.104682 -0.272237 0.978114 -0.060514 -0.199077 0.994925 -0.046334 -0.089313 0.996734 -0.014074 -0.07952 0.998868 0.047504 -0.002394 0.975991 -0.044269 -0.213264 0.76129 0.15889 -0.628642 0.921557 0.38584 0.043131 0.719716 -0.38372 -0.578591 0.821348 0.567525 -0.057466 0.955695 -0.29422 -0.009063 0.843857 -0.525393 -0.108937 -0.987815 0.01789 -0.1546 -0.991164 0.050107 -0.122816 0.985519 -0.054465 -0.160582 0.991051 0.048679 -0.124293 -0.85413 -0.518484 -0.040447 -0.995909 -0.085081 -0.03044 -0.999826 -0.018646 0.000309 -0.999967 -0.007605 0.002762 -0.999333 0.026441 0.02518 -0.998702 0.040278 0.031181 -0.999337 0.027788 0.023524 -0.998785 -0.033238 -0.036393 -0.99581 0.08561 0.032145 -0.997472 -0.010862 -0.070223 -0.853098 0.48463 -0.193279 -0.870835 0.457315 -0.180306 -0.260863 0.896662 -0.357697 -0.768291 -0.632554 -0.098002 -0.750857 -0.660465 0.000153 -0.993767 -0.053063 -0.098042 -0.994436 -0.059027 -0.087251 -0.999152 -0.006138 0.04072 -0.98567 0.126899 -0.111135 -0.998182 0.014235 0.058566 -0.982881 0.180695 0.035979 -0.976342 0.210883 -0.047799 -0.984201 0.090635 -0.152096 -0.986223 0.124443 -0.108982 -0.901141 0.414296 -0.127684 -0.872472 0.486663 -0.044175 -0.893442 0.444017 -0.067904 -0.563049 0.805189 -0.186136 -0.491951 0.834533 -0.248069 -0.594192 0.782003 -0.188169 -0.999264 -0.030789 -0.022869 -0.999965 -0.008153 -0.002012 -0.999956 -0.009103 -0.002445 -0.603061 0.750639 -0.269923 -0.650297 0.70862 -0.273808 -0.492123 0.845491 -0.207265 0.987199 -0.071725 -0.142454 0.98495 0.073103 -0.156618 0.981208 0.164847 -0.100279 0.906623 0.389829 -0.161454 0.921965 0.365231 -0.128788 0.885556 0.459379 -0.069007 0.743457 0.656008 -0.130095 0.74736 0.615359 -0.250572 0.447002 0.845925 -0.290861 0.668437 0.700318 -0.250493 -0.778132 0.58368 -0.232009 0.596427 0.77917 -0.192795 0.590551 0.779503 -0.208867 0.999442 0.01956 0.027061 0.998386 -0.056709 0.002985 0.999105 0.024412 0.034534 0.995964 -0.066699 -0.060052 0.986996 -0.065939 -0.146599 0.998305 -0.027981 -0.051036 0.997452 -0.016166 -0.069489 0.999784 -0.017651 0.010999 0.987229 0.142515 -0.07119 0.982884 0.182505 -0.025129 0.948318 0.315457 -0.034343 0.012171 -0.031887 -0.999417 -0.242982 -0.2612 -0.934203 0.003117 -0.029897 -0.999548 -0.051504 -0.165113 -0.984929 0.977277 -0.20324 -0.060197 0.999841 0.003322 0.01753 0.961365 0.269315 -0.056991 0.999775 -0.020893 -0.003751 0.999953 0.001933 0.00946 0.998346 0.053912 0.019959 0.993441 0.101906 0.051864 0.996065 0.072916 0.050366 -0.625057 -0.076098 -0.776861 -0.748479 -0.353872 -0.560851 -0.998853 0.041703 0.023542 -0.999674 -0.02504 0.004952 -0.996864 0.041267 0.067522 -0.621013 -0.703287 -0.346021 -0.998771 0.043879 0.023025 -0.999895 0.002422 0.014318 -0.820709 0.483253 0.304802 0.031396 -0.058566 -0.99779 0.095785 -0.28728 -0.953045 -0.071488 -0.076786 -0.994481 -0.144179 0.108646 -0.983569 -0.011154 0.072849 -0.997281 0.999889 -0.010717 0.010354 0.99983 -0.000711 0.018448 0.994516 0.069001 0.078591 0.875787 -0.437599 -0.203727 0.999586 0.024016 0.015854 0.999975 0.006308 -0.003166 0.998335 0.044189 0.037071 0.039407 0.85792 -0.512269 0.999243 -0.029327 -0.025567 -0.931476 0.348215 0.105347 -0.999876 -0.015354 0.003485 -0.999944 0.003773 -0.009936 -0.999955 0.009496 0.000018 -0.999891 0.014376 0.003422 0.988138 0.120758 -0.094869 -0.999899 -0.014186 -0.000442 -0.976392 -0.156102 -0.149301 -0.949976 -0.306395 -0.060562 0.500933 0.864559 -0.04004 -0.921885 0.332131 0.199545 0.498424 0.865764 -0.045006 0.998639 -0.050725 -0.01212 0.999837 -0.002748 0.017848 0.996496 -0.058562 -0.059716 0.995192 0.090038 0.038537 0.995668 -0.026759 -0.089045 -0.984466 -0.110222 -0.136669 -0.336386 0.889082 0.310449 -0.999647 -0.020296 -0.017125 -0.315567 0.862893 0.394758 -0.999607 -0.009548 -0.02637 0.159573 0.870555 0.46548 -0.999882 0.006817 0.013776 0.162019 0.872577 0.460823 0.999812 -0.017809 -0.00761 0.999839 -0.017149 -0.005188 0.999798 -0.000904 0.020079 0.999545 -0.027338 0.01272 0.999129 0.03261 -0.026045 0.541886 0.83877 -0.053136 0.999315 -0.036155 -0.007944 0.999989 0.000068 0.004583 0.999837 0.003919 0.017622 -0.307322 0.910679 -0.276075 -0.999458 -0.032719 -0.003512 -0.998939 0.027347 0.037063 -0.604735 0.773362 -0.190279 -0.582797 0.795303 -0.166856 -0.999478 -0.032264 -0.00164 -0.999691 -0.024462 0.004427 -0.999512 0.008272 -0.030109 -0.999644 -0.017343 0.020254 -0.99916 0.034213 0.02254 -0.99999 0.003589 -0.002848 -0.999985 0.003217 -0.004375 0.999963 0.008314 -0.002025 0.999896 -0.014367 -0.000959 0.992579 0.105562 0.060356 0.995036 -0.069969 -0.070769 0.99958 -0.026442 -0.011833 0.999596 -0.002579 -0.028305 0.999992 -0.001567 -0.003669 0.869719 0.354419 0.343477 0.976518 0.170717 -0.13141 -0.178245 0.968074 0.176241 0.129971 -0.510163 0.850201 -0.21777 0.408701 -0.886307 0.831431 -0.421603 0.361903 -0.273166 0.414786 -0.867947 -0.703174 -0.025019 0.710577 -0.55827 -0.086935 0.825092 0.803758 -0.420204 0.42119 0.018926 -0.99974 -0.012754 0.140546 -0.984725 0.102775 0.649315 -0.760478 0.007986 0.755866 -0.644842 0.113338 0.771301 -0.62902 -0.097095 0.753069 -0.657857 -0.010513 0.991848 -0.107251 0.068806 0.966634 0.055533 -0.250071 0.957367 -0.288694 -0.010231 0.960168 -0.275366 0.047436 0.147895 -0.984148 0.097876 0.056973 0.468669 -0.881535 -0.18296 -0.875735 0.446781 -0.039932 -0.998039 0.0482 -0.587389 -0.806348 0.069111 -0.508121 -0.859125 -0.060967 -0.708912 -0.68988 -0.146664 -0.748144 -0.66353 -0.002941 -0.975675 -0.217162 0.029977 -0.997119 -0.015442 -0.074267 -0.989377 0.038168 -0.140271 -0.609486 -0.730346 0.308418 0.548001 0.739029 -0.391829 0.672846 0.568923 -0.472869 -0.60957 -0.73021 0.308573 0.380254 -0.104243 -0.918989 -0.916413 -0.391704 0.082185 -0.614419 -0.674453 0.409392 0.479726 0.848385 -0.223843 -0.954793 -0.253579 0.155138 -0.109986 0.993827 -0.014529 -0.050217 0.107008 -0.992989 -0.927001 -0.359087 -0.108286 -0.892098 -0.449094 0.049765 -0.972796 -0.064094 0.22262 -0.985446 -0.130716 0.108672 -0.020153 -0.527116 0.849554 0.32797 0.540564 -0.774743 -0.766103 -0.5158 0.383453 -0.870375 -0.416837 0.262096 -0.891007 -0.103125 -0.442121 0.259984 0.406794 -0.875744 0.258166 0.406619 -0.876362 0.509979 -0.122131 0.851472 0.42552 -0.153945 0.891759 -0.346075 0.27192 -0.897937 0.896938 0.050048 -0.439316 -0.668933 0.584778 -0.458873 -0.549898 0.759512 -0.347496 -0.431045 0.892218 -0.134715 0.59934 -0.664285 0.446674 0.617323 -0.710011 0.338817 0.615526 -0.716614 0.328012 -0.034108 -0.987185 0.155889 0.544619 -0.782546 0.301681 0.579101 -0.772796 0.259668 -0.649689 -0.69085 0.317222 -0.710213 -0.673042 0.206426 -0.760683 -0.635592 0.131847 -0.438488 -0.897833 -0.040304 -0.418815 -0.906243 0.057599 -0.623899 -0.617962 0.478406 -0.689653 -0.62104 0.372409 -0.339455 -0.934724 0.105168 -0.066366 -0.844781 0.53098 -0.777632 -0.605277 0.170082 0.340758 -0.938985 -0.04681 0.789018 -0.583338 0.192791 0.458628 -0.886609 0.059868 0.092451 -0.834922 0.542548 0.571586 -0.813419 0.107881 0.769686 -0.528376 0.358332 0.763753 -0.509651 0.396153 0.896503 -0.254291 0.362791 0.881769 -0.441031 0.167257 0.98831 0.027993 0.149863 0.977409 -0.090099 0.19119 0.884478 -0.224684 0.408921 0.198166 -0.820053 0.536883 -0.987637 -0.126755 0.092227 -0.829523 -0.52369 0.19401 -0.952188 -0.180061 0.246813 -0.978215 -0.0615 0.198276 -0.93314 -0.196149 0.301288 -0.959494 -0.278242 0.04418 -0.820903 -0.49903 -0.277646 -0.983733 0.17763 0.026797 0.357531 -0.13517 0.924068 -0.990647 -0.046189 0.128392 -0.93728 -0.186438 0.294529 0.202858 0.941886 0.267766 -0.474582 0.879695 0.03013 -0.626591 0.755777 0.190223 -0.508629 0.857514 0.077235 -0.990605 0.131695 -0.036844 -0.84814 0.347657 0.399742 -0.906932 0.3435 0.24389 -0.395838 0.833363 0.38577 -0.782897 0.618607 0.066319 0.85279 -0.515081 -0.086263 0.951419 -0.292616 0.095804 0.765918 -0.504053 -0.399124 0.978619 -0.165181 0.122559 0.966727 -0.255533 -0.011949 0.991641 -0.089275 0.093158 0.227414 -0.328128 -0.916851 0.83887 0.10193 0.534703 0.956892 -0.27925 -0.079855 0.660513 -0.434024 0.612655 -0.46098 0.818007 -0.344039 -0.226981 0.94596 -0.231602 0.946247 0.150559 -0.286268 0.950947 0.029402 -0.307954 0.973057 -0.047647 -0.225587 0.992842 0.117417 0.021843 0.679192 0.733859 -0.012191 0.971804 0.224035 0.073523 0.973545 0.217087 0.071294 0.816433 0.573208 0.06978 0.740673 0.649653 0.17133 -0.924149 -0.158359 0.347664 -0.969459 0.068991 0.235349 -0.802058 -0.513958 0.304221 0.499509 0.858092 -0.119032 0.20092 -0.540059 0.817293 -0.77694 -0.235164 0.584005 0.274475 0.414258 0.867787 -0.146963 -0.940032 0.3078 0.68053 -0.233107 0.694651 -0.745394 -0.448226 0.493439 0.471126 -0.834999 0.284282 0.184954 -0.933013 0.308672 0.716714 -0.603847 0.348841 0.377011 -0.897333 0.229469 -0.594763 -0.664157 0.452938 0.135913 -0.972228 0.190529 -0.193124 -0.954818 0.225889 -0.872679 -0.411188 0.263354 0.826327 -0.498865 0.261375 -0.963578 -0.142941 0.226021 0.537798 -0.806105 0.24692 -0.426246 0.853844 0.298771 -0.635814 0.768329 0.07356 -0.13081 0.951706 0.277749 0.50066 0.859479 0.103125 0.25312 0.967423 0.004833 0.586303 -0.802231 0.112582 0.035032 0.998764 -0.035261 0.139773 0.989828 -0.026537 0.062597 0.997992 -0.00963 -0.04484 0.972415 0.228906 -0.366885 0.930066 -0.019318 -0.100874 0.969482 0.223447 0.375012 0.915677 -0.144574 -0.307002 -0.945505 0.108493 0.080814 -0.975902 0.202695 0.899692 -0.297632 0.319325 -0.069897 -0.989688 0.125031 -0.463834 -0.877939 0.118664 -0.392802 -0.915758 0.084226 0.948792 -0.177886 0.261055 0.948423 -0.185731 0.256901 0.39807 0.358748 0.844299 -0.958417 -0.005359 -0.28532 -0.986703 0.027024 -0.160272 -0.992503 0.120866 0.018167 -0.964388 -0.015976 -0.264008 -0.784313 0.613276 -0.093515 -0.600009 0.786739 0.14502 -0.754533 0.636831 -0.158512 -0.971749 0.17685 0.156291 -0.979693 0.197431 0.03497 -0.955082 0.28093 0.094322 -0.80824 0.569543 0.149561 -0.919194 0.389172 -0.060226 -0.886818 0.453936 -0.086579 -0.808164 0.58852 0.02272 -0.99835 -0.014093 -0.055662 -0.734507 0.678568 -0.006757 -0.998576 0.022581 0.048341 -0.999916 -0.001683 0.012824 -0.728446 0.684391 0.031234 -0.99223 0.124312 -0.005094 -0.77876 0.614522 0.126078 -0.994792 0.041367 -0.093154 -0.996749 0.002632 -0.080531 -0.997524 0.030717 0.063265 -0.999983 -0.004088 0.004037 -0.994654 0.086613 0.056235 -0.989173 0.040974 -0.140918 -0.489377 0.48914 0.721978 -0.222823 0.925875 -0.30513 0.866654 0.489659 -0.095626 0.645088 0.764062 0.00843 0.788351 0.614315 0.033463 0.998063 -0.002886 -0.06215 0.999218 0.018487 0.03494 0.893176 0.449161 -0.022146 0.999893 0.005232 0.013693 0.986102 0.028451 -0.163688 0.999994 0.001224 -0.003339 0.996085 0.07585 0.045405 0.99778 0.032848 0.057931 0.989976 0.079537 0.11671 0.996198 0.076029 0.042543 0.735116 0.309176 0.603336 0.476724 0.259977 0.83973 -0.062065 0.232643 0.97058 0.999855 0.012068 -0.011992 0.968936 0.242056 0.050713 0.7741 0.613885 0.154642 0.419207 0.907593 0.023253 0.761087 0.50182 0.411002 0.613861 0.67883 0.402943 -0.094916 0.875759 0.473325 -0.510072 0.728493 0.457301 0.647301 0.73195 0.212723 -0.208196 0.930625 0.300984 0.532186 0.829978 0.167073 0.550264 0.834937 0.009445 0.970911 -0.020196 0.238589 0.807305 -0.18104 0.561678 0.963234 0.263 0.054873 0.445395 -0.638031 -0.628124 -0.452299 0.807818 0.377963 -0.39895 0.835423 0.37803 0.432248 0.78842 0.437672 0.991926 0.115267 0.052875 -0.059623 -0.997732 0.031244 -0.619756 0.783824 0.039014 0.077854 0.996889 -0.012329 -0.960411 0.255946 0.110008 0.352918 0.935628 0.007016 0.647589 -0.749931 0.135024 -0.766756 0.639358 0.057507 -0.941844 -0.332698 0.047345 -0.102649 -0.99399 0.038045 0.190653 0.981566 0.013379 -0.391972 0.883439 0.256696 0.172178 -0.984485 -0.033814</float_array>
          <technique_common>
            <accessor source="#Flagfish-mesh-normals-array" count="500" stride="3">
              <param name="X" type="float"/>
              <param name="Y" type="float"/>
              <param name="Z" type="float"/>
            </accessor>
          </technique_common>
        </source>
        <source id="Flagfish-mesh-map-0">
          <float_array id="Flagfish-mesh-map-0-array" count="3000">0.847656 0.211914 0.824219 0.17041 0.861328 0.14624 0.738281 0.13208 0.731934 0.085693 0.824219 0.17041 0.824219 0.17041 0.731934 0.085693 0.751709 0.068115 0.824219 0.17041 0.751709 0.068115 0.821045 0.119385 0.824219 0.17041 0.821045 0.119385 0.861328 0.14624 0.821045 0.119385 0.751709 0.068115 0.757324 0.018066 0.821045 0.119385 0.757324 0.018066 0.803711 0.02002 0.821045 0.119385 0.803711 0.02002 0.861328 0.14624 0.861328 0.14624 0.803711 0.02002 0.855957 0.073486 0.270508 0.89209 0.355957 0.876953 0.437256 0.894043 0.538086 0.836426 0.704834 0.836426 0.59668 0.84668 0.788818 0.578369 0.767822 0.611328 0.754395 0.572754 0.767822 0.611328 0.788818 0.578369 0.805176 0.62085 0.805176 0.62085 0.788818 0.578369 0.830078 0.530273 0.767822 0.611328 0.805176 0.62085 0.802002 0.650879 0.805176 0.62085 0.830078 0.530273 0.819092 0.61792 0.802002 0.650879 0.805176 0.62085 0.8125 0.648926 0.8125 0.648926 0.805176 0.62085 0.819092 0.61792 0.802002 0.650879 0.8125 0.648926 0.821777 0.713623 0.8125 0.648926 0.819092 0.61792 0.820312 0.652832 0.031494 0.220947 0.026367 0.200684 0.047852 0.147461 0.047852 0.147461 0.026367 0.200684 0.015137 0.1875 0.031494 0.220947 0.047852 0.147461 0.063232 0.249023 0.031494 0.220947 0.063232 0.249023 0.068848 0.279053 0.063232 0.249023 0.047852 0.147461 0.067627 0.147949 0.063232 0.249023 0.067627 0.147949 0.068848 0.279053 0.945801 0.887207 0.999756 0.766113 0.997803 0.818604 0.999756 0.766113 0.945801 0.887207 0.927979 0.812988 0.945801 0.887207 0.997803 0.818604 0.983643 0.882568 0.941162 0.198486 0.890625 0.219727 0.925781 0.193359 0.890625 0.219727 0.941162 0.198486 0.999756 0.219971 0.925781 0.193359 0.890625 0.219727 0.924316 0.169678 0.925781 0.193359 0.924316 0.169678 0.941162 0.198486 0.924316 0.169678 0.890625 0.219727 0.907471 0.120605 0.999756 0.219971 0.941162 0.198486 0.952637 0.161377 0.952637 0.161377 0.941162 0.198486 0.924316 0.169678 0.952637 0.161377 0.924316 0.169678 0.907471 0.120605 0.999756 0.219971 0.952637 0.161377 0.983398 0.14917 0.983398 0.14917 0.952637 0.161377 0.99292 0.122803 0.952637 0.161377 0.907471 0.120605 0.934814 0.113281 0.952637 0.161377 0.934814 0.113281 0.99292 0.122803 0.934814 0.113281 0.907471 0.120605 0.981934 0.093018 0.934814 0.113281 0.981934 0.093018 0.99292 0.122803 0.380371 0.544434 0.46875 0.525879 0.410645 0.590088 0.46875 0.525879 0.380371 0.544434 0.413574 0.48877 0.380371 0.544434 0.410645 0.590088 0.327393 0.575195 0.327393 0.575195 0.410645 0.590088 0.369141 0.613281 0.327393 0.575195 0.369141 0.613281 0.25293 0.585938 0.25293 0.585938 0.369141 0.613281 0.279297 0.645508 0.279297 0.645508 0.369141 0.613281 0.322266 0.657715 0.322266 0.657715 0.369141 0.613281 0.382812 0.661377 0.322266 0.657715 0.382812 0.661377 0.380371 0.684814 0.369141 0.613281 0.410645 0.590088 0.408691 0.618652 0.408691 0.618652 0.410645 0.590088 0.425781 0.613281 0.382812 0.661377 0.369141 0.613281 0.402344 0.634766 0.402344 0.634766 0.369141 0.613281 0.408691 0.618652 0.382812 0.661377 0.402344 0.634766 0.403076 0.667725 0.408691 0.618652 0.425781 0.613281 0.436279 0.65332 0.408691 0.618652 0.436279 0.65332 0.402344 0.634766 0.436279 0.65332 0.425781 0.613281 0.467773 0.683838 0.403076 0.667725 0.402344 0.634766 0.467773 0.683838 0.467773 0.683838 0.402344 0.634766 0.436279 0.65332 0.005371 0.83667 0.055908 0.713623 0.078613 0.738037 0.055908 0.713623 0.005371 0.83667 0.000244 0.728027 0.055908 0.713623 0.000244 0.728027 0.03418 0.706299 0.439941 0.086914 0.418457 0.116211 0.409424 0.095459 0.439941 0.086914 0.409424 0.095459 0.416504 0.082275 0.439941 0.086914 0.416504 0.082275 0.508789 0.047119 0.416504 0.082275 0.409424 0.095459 0.401611 0.087158 0.401611 0.087158 0.409424 0.095459 0.396484 0.119385 0.401611 0.087158 0.396484 0.119385 0.347412 0.144043 0.401611 0.087158 0.347412 0.144043 0.383545 0.08252 0.508789 0.047119 0.416504 0.082275 0.505127 0.022705 0.508789 0.047119 0.505127 0.022705 0.557373 0.020752 0.416504 0.082275 0.401611 0.087158 0.406982 0.060303 0.416504 0.082275 0.406982 0.060303 0.505127 0.022705 0.406982 0.060303 0.401611 0.087158 0.383545 0.08252 0.505127 0.022705 0.406982 0.060303 0.458496 0.027588 0.505127 0.022705 0.458496 0.027588 0.528809 0.008057 0.458496 0.027588 0.406982 0.060303 0.388428 0.054688 0.388428 0.054688 0.406982 0.060303 0.383545 0.08252 0.388428 0.054688 0.383545 0.08252 0.37793 0.061523 0.37793 0.061523 0.383545 0.08252 0.310303 0.028076 0.37793 0.061523 0.310303 0.028076 0.388428 0.054688 0.388428 0.054688 0.310303 0.028076 0.333252 0.017334 0.105713 0.337402 0.124512 0.298584 0.147461 0.31665 0.147461 0.31665 0.124512 0.298584 0.125488 0.224121 0.106934 0.166016 0.122803 0.177979 0.125488 0.224121 0.125488 0.224121 0.122803 0.177979 0.160156 0.242188 0.125488 0.224121 0.160156 0.242188 0.158203 0.297363 0.125488 0.224121 0.158203 0.297363 0.147461 0.31665 0.158203 0.297363 0.160156 0.242188 0.178711 0.313232 0.147461 0.31665 0.158203 0.297363 0.162354 0.320801 0.162354 0.320801 0.158203 0.297363 0.178711 0.313232 0.147461 0.31665 0.162354 0.320801 0.158447 0.340332 0.162354 0.320801 0.178711 0.313232 0.263428 0.382812 0.158447 0.340332 0.162354 0.320801 0.181152 0.346191 0.181152 0.346191 0.162354 0.320801 0.263428 0.382812 0.817627 0.837891 0.741699 0.837891 0.8396 0.809814 0.817627 0.837891 0.8396 0.809814 0.895996 0.841553 0.28418 0.840332 0.346191 0.869385 0.213379 0.840088 0.346191 0.869385 0.28418 0.840332 0.375977 0.836426 0.494141 0.132568 0.554688 0.163818 0.5625 0.209473 0.494141 0.132568 0.5625 0.209473 0.461182 0.135498 0.461182 0.135498 0.5625 0.209473 0.55249 0.251221 0.461182 0.135498 0.55249 0.251221 0.399414 0.174072 0.399414 0.174072 0.55249 0.251221 0.54834 0.305664 0.399414 0.174072 0.54834 0.305664 0.358643 0.198486 0.358643 0.198486 0.54834 0.305664 0.379395 0.281494 0.379395 0.281494 0.54834 0.305664 0.496582 0.343018 0.379395 0.281494 0.496582 0.343018 0.373535 0.319824 0.373535 0.319824 0.496582 0.343018 0.45459 0.375 0.003174 0.698486 0.009033 0.568115 0.017578 0.616699 0.003174 0.698486 0.017578 0.616699 0.023438 0.66748 0.002197 0.296875 0.002197 0.167969 0.013428 0.202881 0.170166 0.692627 0.230469 0.709717 0.193848 0.749268 0.193848 0.749268 0.230469 0.709717 0.27832 0.742188 0.170166 0.692627 0.193848 0.749268 0.122559 0.736328 0.170166 0.692627 0.122559 0.736328 0.107422 0.67041 0.122559 0.736328 0.193848 0.749268 0.185547 0.804932 0.107422 0.67041 0.122559 0.736328 0.086182 0.731445 0.122559 0.736328 0.185547 0.804932 0.074219 0.832275 0.086182 0.731445 0.122559 0.736328 0.07959 0.755371 0.07959 0.755371 0.122559 0.736328 0.074219 0.832275 0.013916 0.541504 0.042969 0.550781 0.021729 0.587158 0.042969 0.550781 0.013916 0.541504 0.034912 0.505371 0.042969 0.550781 0.034912 0.505371 0.066406 0.520508 0.066406 0.520508 0.034912 0.505371 0.030029 0.485352 0.066406 0.520508 0.030029 0.485352 0.079102 0.453369 0.066406 0.520508 0.079102 0.453369 0.081299 0.500488 0.066406 0.520508 0.081299 0.500488 0.080078 0.517822 0.081299 0.500488 0.079102 0.453369 0.084473 0.486572 0.080078 0.517822 0.081299 0.500488 0.108887 0.510742 0.108887 0.510742 0.081299 0.500488 0.084473 0.486572 0.108887 0.510742 0.084473 0.486572 0.13501 0.503418 0.016846 0.016113 0.024414 0.145996 0.010254 0.099365 0.010254 0.099365 0.024414 0.145996 0.010254 0.121826 0.010254 0.121826 0.024414 0.145996 0.010986 0.146729 0.376709 0.939941 0.359619 0.961182 0.346924 0.917236 0.346924 0.917236 0.359619 0.961182 0.330322 0.94751 0.346924 0.917236 0.330322 0.94751 0.321289 0.898682 0.912109 0.640625 0.883545 0.548828 0.905518 0.572021 0.905518 0.572021 0.883545 0.548828 0.923828 0.531006 0.923828 0.531006 0.883545 0.548828 0.924561 0.460205 0.924561 0.460205 0.883545 0.548828 0.889648 0.493652 0.883545 0.548828 0.912109 0.640625 0.887207 0.61792 0.889648 0.493652 0.883545 0.548828 0.881104 0.503174 0.883545 0.548828 0.887207 0.61792 0.871582 0.571045 0.871582 0.571045 0.887207 0.61792 0.877197 0.59082 0.883545 0.548828 0.871582 0.571045 0.864258 0.54541 0.883545 0.548828 0.864258 0.54541 0.881104 0.503174 0.864258 0.54541 0.871582 0.571045 0.849365 0.584961 0.881104 0.503174 0.864258 0.54541 0.850342 0.517334 0.881104 0.503174 0.850342 0.517334 0.807861 0.497803 0.850342 0.517334 0.864258 0.54541 0.831299 0.523926 0.559326 0.498047 0.554932 0.436523 0.614746 0.447021 0.614746 0.447021 0.554932 0.436523 0.581787 0.378662 0.614746 0.447021 0.581787 0.378662 0.636719 0.413818 0.636719 0.413818 0.581787 0.378662 0.634521 0.306641 0.581787 0.378662 0.554932 0.436523 0.536133 0.386719 0.581787 0.378662 0.536133 0.386719 0.576172 0.308105 0.576172 0.308105 0.536133 0.386719 0.562988 0.267822 0.260742 0.099854 0.304443 0.141357 0.280273 0.151123 0.280273 0.151123 0.304443 0.141357 0.31543 0.1604 0.260742 0.099854 0.280273 0.151123 0.246826 0.102783 0.260742 0.099854 0.246826 0.102783 0.213379 0.069336 0.213379 0.069336 0.246826 0.102783 0.144531 0.141602 0.144531 0.141602 0.246826 0.102783 0.280273 0.151123 0.213379 0.069336 0.144531 0.141602 0.161865 0.09082 0.144531 0.141602 0.280273 0.151123 0.145508 0.20459 0.145508 0.20459 0.280273 0.151123 0.235107 0.224854 0.235107 0.224854 0.280273 0.151123 0.31543 0.1604 0.235107 0.224854 0.31543 0.1604 0.255127 0.281738 0.235107 0.224854 0.255127 0.281738 0.255615 0.358154 0.561768 0.511963 0.529297 0.487793 0.541504 0.486816 0.541504 0.486816 0.529297 0.487793 0.537109 0.456543 0.537109 0.456543 0.529297 0.487793 0.458008 0.506592 0.537109 0.456543 0.458008 0.506592 0.531006 0.408447 0.531006 0.408447 0.458008 0.506592 0.416016 0.482178 0.531006 0.408447 0.416016 0.482178 0.329834 0.512207 0.531006 0.408447 0.329834 0.512207 0.409912 0.410889 0.531006 0.408447 0.409912 0.410889 0.51416 0.344727 0.019287 0.829346 0.019287 0.882324 0.01123 0.851074 0.115234 0.12793 0.15625 0.070801 0.124023 0.130859 0.115234 0.12793 0.124023 0.130859 0.098877 0.162598 0.124023 0.130859 0.15625 0.070801 0.167969 0.070801 0.167969 0.070801 0.15625 0.070801 0.156494 0.02417 0.156494 0.02417 0.15625 0.070801 0.144531 0.019043 0.167969 0.070801 0.156494 0.02417 0.291016 0.027344 0.730957 0.502197 0.727051 0.38916 0.793213 0.373535 0.730957 0.502197 0.793213 0.373535 0.774658 0.513428 0.774658 0.513428 0.793213 0.373535 0.790283 0.566406 0.70752 0.877441 0.63916 0.894043 0.590332 0.871826 0.590332 0.871826 0.63916 0.894043 0.542236 0.883789 0.631592 0.10376 0.613525 0.115234 0.568115 0.072266 0.613525 0.115234 0.631592 0.10376 0.63623 0.113281 0.568115 0.072266 0.613525 0.115234 0.577148 0.116211 0.613525 0.115234 0.63623 0.113281 0.60083 0.187744 0.60083 0.187744 0.63623 0.113281 0.633057 0.181641 0.60083 0.187744 0.633057 0.181641 0.631104 0.244385 0.60083 0.187744 0.631104 0.244385 0.585693 0.291016 0.60083 0.187744 0.585693 0.291016 0.568848 0.219727 0.577148 0.116211 0.613525 0.115234 0.591797 0.124512 0.60083 0.187744 0.568848 0.219727 0.581787 0.147705 0.60083 0.187744 0.581787 0.147705 0.613525 0.115234 0.613525 0.115234 0.581787 0.147705 0.591797 0.124512 0.591797 0.124512 0.581787 0.147705 0.577148 0.116211 0.581787 0.147705 0.568848 0.219727 0.563232 0.168701 0.581787 0.147705 0.563232 0.168701 0.577148 0.116211 0.403809 0.734863 0.404053 0.678955 0.537109 0.771484 0.537109 0.771484 0.404053 0.678955 0.510254 0.697266 0.537109 0.771484 0.510254 0.697266 0.590332 0.769775 0.590332 0.769775 0.510254 0.697266 0.53418 0.670654 0.590332 0.769775 0.53418 0.670654 0.584229 0.687256 0.258301 0.868164 0.298096 0.882324 0.218994 0.880127 0.298096 0.882324 0.258301 0.868164 0.262695 0.862793 0.258301 0.868164 0.218994 0.880127 0.217041 0.854736 0.258301 0.868164 0.217041 0.854736 0.262695 0.862793 0.217041 0.854736 0.218994 0.880127 0.147217 0.881348 0.262695 0.862793 0.217041 0.854736 0.216064 0.847168 0.217041 0.854736 0.147217 0.881348 0.184326 0.840088 0.217041 0.854736 0.184326 0.840088 0.216064 0.847168 0.654541 0.129395 0.730469 0.111816 0.639404 0.196045 0.730469 0.111816 0.654541 0.129395 0.723633 0.088623 0.723633 0.088623 0.654541 0.129395 0.678711 0.053223 0.678711 0.053223 0.654541 0.129395 0.622559 0.074707 0.723633 0.088623 0.678711 0.053223 0.7229 0.013184 0.723633 0.088623 0.7229 0.013184 0.737061 0.04248 0.678711 0.053223 0.622559 0.074707 0.640869 0.028076 0.640869 0.028076 0.622559 0.074707 0.596436 0.039307 0.640869 0.028076 0.596436 0.039307 0.588623 0.008301 0.588623 0.008301 0.596436 0.039307 0.587646 0.039307 0.883301 0.237061 0.855713 0.290039 0.77417 0.277344 0.883301 0.237061 0.77417 0.277344 0.857178 0.222168 0.883301 0.237061 0.857178 0.222168 0.903809 0.22998 0.883301 0.237061 0.903809 0.22998 0.927734 0.258057 0.883301 0.237061 0.927734 0.258057 0.855713 0.290039 0.855713 0.290039 0.927734 0.258057 0.875488 0.324951 0.855713 0.290039 0.875488 0.324951 0.839355 0.36792 0.875488 0.324951 0.927734 0.258057 0.912842 0.332275 0.875488 0.324951 0.912842 0.332275 0.839355 0.36792 0.839355 0.36792 0.912842 0.332275 0.892578 0.371094 0.892578 0.371094 0.912842 0.332275 0.914551 0.384766 0.77832 0.783936 0.82666 0.804932 0.740723 0.831787 0.77832 0.783936 0.740723 0.831787 0.682617 0.80127 0.77832 0.783936 0.682617 0.80127 0.700195 0.77417 0.77832 0.783936 0.700195 0.77417 0.739014 0.760986 0.77832 0.783936 0.739014 0.760986 0.788574 0.763672 0.77832 0.783936 0.788574 0.763672 0.82666 0.804932 0.82666 0.804932 0.788574 0.763672 0.841553 0.762939 0.841553 0.762939 0.788574 0.763672 0.817139 0.749023 0.841553 0.762939 0.817139 0.749023 0.849365 0.73877 0.849365 0.73877 0.817139 0.749023 0.849365 0.734619 0.328125 0.206543 0.384521 0.132568 0.345947 0.209717 0.328125 0.206543 0.345947 0.209717 0.379395 0.382812 0.373047 0.809326 0.196533 0.793945 0.283203 0.785156 0.196533 0.793945 0.373047 0.809326 0.189697 0.811035 0.797852 0.4375 0.824219 0.349609 0.797852 0.52417 0.824219 0.349609 0.797852 0.4375 0.811523 0.349609 0.811523 0.349609 0.797852 0.4375 0.797852 0.350586 0.1875 0.480225 0.206055 0.430664 0.2146 0.462646 0.1875 0.480225 0.2146 0.462646 0.240234 0.529541 0.240234 0.529541 0.2146 0.462646 0.255615 0.504883 0.240234 0.529541 0.255615 0.504883 0.258545 0.543701 0.255615 0.504883 0.2146 0.462646 0.25293 0.474609 0.25293 0.474609 0.2146 0.462646 0.248535 0.434082 0.25293 0.474609 0.248535 0.434082 0.306641 0.479736 0.25293 0.474609 0.306641 0.479736 0.279541 0.494141 0.25293 0.474609 0.279541 0.494141 0.255615 0.504883 0.255615 0.504883 0.279541 0.494141 0.303711 0.505859 0.212646 0.530273 0.1875 0.480225 0.240234 0.529541 0.212646 0.530273 0.240234 0.529541 0.236084 0.542236 0.212646 0.530273 0.236084 0.542236 0.227783 0.54834 0.212646 0.530273 0.227783 0.54834 0.209717 0.540039 0.1875 0.480225 0.212646 0.530273 0.17627 0.520752 0.17627 0.520752 0.212646 0.530273 0.200439 0.540283 0.1875 0.480225 0.17627 0.520752 0.152832 0.499512 0.1875 0.480225 0.152832 0.499512 0.128906 0.479248 0.152832 0.499512 0.17627 0.520752 0.150635 0.530273 0.152832 0.499512 0.150635 0.530273 0.128906 0.540771 0.152832 0.499512 0.128906 0.540771 0.079346 0.548828 0.852051 0.037842 0.880371 0.082764 0.87793 0.130615 0.880371 0.082764 0.852051 0.037842 0.921875 0.094482 0.880371 0.082764 0.921875 0.094482 0.884521 0.136963 0.880371 0.082764 0.884521 0.136963 0.87793 0.130615 0.87793 0.130615 0.884521 0.136963 0.893066 0.174561 0.87793 0.130615 0.893066 0.174561 0.858398 0.192139 0.85376 0.729736 0.88501 0.710938 0.887695 0.799316 0.887695 0.799316 0.88501 0.710938 0.900635 0.736084 0.88501 0.710938 0.85376 0.729736 0.843994 0.672607 0.900635 0.736084 0.88501 0.710938 0.911377 0.726562 0.900635 0.736084 0.911377 0.726562 0.922363 0.745117 0.88501 0.710938 0.843994 0.672607 0.862061 0.668457 0.862061 0.668457 0.843994 0.672607 0.831543 0.64502 0.88501 0.710938 0.862061 0.668457 0.900635 0.707275 0.900635 0.707275 0.862061 0.668457 0.927734 0.648193 0.833496 0.022461 0.787842 0.010254 0.924805 0.008057 0.044189 0.301514 0.022705 0.290039 0.017822 0.201416 0.044189 0.301514 0.017822 0.201416 0.063232 0.324707 0.077881 0.363037 0.065674 0.45459 0.050781 0.357178 0.050781 0.357178 0.065674 0.45459 0.041992 0.450684 0.050781 0.357178 0.041992 0.450684 0.018311 0.464355 0.050781 0.357178 0.018311 0.464355 0.035156 0.329834 0.035156 0.329834 0.018311 0.464355 0.003418 0.36499 0.003418 0.36499 0.018311 0.464355 0.003174 0.464844 0.956787 0.020264 0.955078 0.040283 0.934814 0.015869 0.956787 0.020264 0.934814 0.015869 0.961426 0.009277 0.934814 0.015869 0.955078 0.040283 0.93042 0.101318 0.93042 0.101318 0.955078 0.040283 0.958984 0.094727 0.958984 0.094727 0.955078 0.040283 0.965088 0.058105 0.60083 0.930664 0.553955 0.930176 0.5625 0.898438 0.60083 0.930664 0.5625 0.898438 0.636963 0.924072 0.636963 0.924072 0.5625 0.898438 0.649414 0.898682 0.643066 0.927979 0.658936 0.904297 0.686768 0.942871 0.686768 0.942871 0.658936 0.904297 0.692871 0.900391 0.692871 0.900391 0.658936 0.904297 0.664551 0.893799 0.643066 0.927979 0.686768 0.942871 0.642822 0.960938 0.643066 0.927979 0.642822 0.960938 0.63623 0.933594 0.63623 0.933594 0.642822 0.960938 0.605225 0.935791 0.094971 0.390625 0.078369 0.349609 0.135742 0.386719 0.094971 0.390625 0.135742 0.386719 0.121338 0.413574 0.094971 0.390625 0.121338 0.413574 0.083252 0.426025 0.083252 0.426025 0.121338 0.413574 0.089355 0.477539 0.121338 0.413574 0.135742 0.386719 0.14502 0.408447 0.121338 0.413574 0.14502 0.408447 0.089355 0.477539 0.089355 0.477539 0.14502 0.408447 0.131348 0.464111 0.14502 0.408447 0.135742 0.386719 0.181641 0.35498 0.131348 0.464111 0.14502 0.408447 0.160889 0.474609 0.14502 0.408447 0.181641 0.35498 0.166504 0.417236 0.14502 0.408447 0.166504 0.417236 0.160889 0.474609 0.166504 0.417236 0.181641 0.35498 0.202148 0.382568 0.160889 0.474609 0.166504 0.417236 0.204346 0.418457 0.204346 0.418457 0.166504 0.417236 0.202148 0.382568 0.204346 0.418457 0.202148 0.382568 0.235596 0.393799 0.204346 0.418457 0.235596 0.393799 0.250488 0.419922 0.250488 0.419922 0.235596 0.393799 0.279785 0.427734 0.279785 0.427734 0.235596 0.393799 0.30957 0.378418 0.250488 0.419922 0.279785 0.427734 0.310547 0.447021 0.250488 0.419922 0.310547 0.447021 0.268066 0.440918 0.202148 0.947266 0.187012 0.885986 0.264404 0.888428 0.187012 0.885986 0.202148 0.947266 0.163574 0.899902 0.163574 0.899902 0.202148 0.947266 0.162109 0.936279 0.637939 0.601318 0.552002 0.535156 0.570068 0.516113 0.622803 0.457031 0.570068 0.516113 0.565674 0.501709 0.637939 0.601318 0.570068 0.516113 0.611328 0.550537 0.611328 0.550537 0.570068 0.516113 0.598633 0.520752 0.611328 0.550537 0.598633 0.520752 0.625488 0.508545 0.625488 0.508545 0.598633 0.520752 0.570068 0.516113 0.611328 0.550537 0.625488 0.508545 0.637939 0.601318 0.625488 0.508545 0.570068 0.516113 0.622803 0.457031 0.625488 0.508545 0.622803 0.457031 0.667236 0.551025 0.625488 0.508545 0.667236 0.551025 0.637939 0.601318 0.667236 0.551025 0.622803 0.457031 0.695801 0.487549 0.637939 0.601318 0.667236 0.551025 0.670654 0.639648 0.637939 0.601318 0.670654 0.639648 0.654053 0.665283 0.667236 0.551025 0.695801 0.487549 0.708984 0.547119 0.667236 0.551025 0.708984 0.547119 0.670654 0.639648 0.708984 0.547119 0.695801 0.487549 0.718262 0.480225 0.670654 0.639648 0.708984 0.547119 0.722656 0.63208 0.093994 0.906494 0.105225 0.927734 0.091797 0.926514 0.026367 0.931885 0.06665 0.878906 0.091797 0.926514 0.091797 0.926514 0.06665 0.878906 0.093994 0.906494 0.105225 0.927734 0.093994 0.906494 0.110352 0.880127 0.105225 0.927734 0.110352 0.880127 0.119385 0.919678 0.119385 0.919678 0.110352 0.880127 0.166504 0.889648 0.110352 0.880127 0.093994 0.906494 0.09668 0.8479 0.09668 0.8479 0.093994 0.906494 0.068604 0.874512 0.068604 0.874512 0.093994 0.906494 0.06665 0.878906 0.068604 0.874512 0.06665 0.878906 0.023926 0.827148 0.068604 0.874512 0.023926 0.827148 0.045898 0.832275 0.796387 0.925293 0.822021 0.922119 0.798828 0.950195 0.822021 0.922119 0.796387 0.925293 0.791016 0.911621 0.486572 0.654785 0.537109 0.648682 0.511963 0.685059 0.537109 0.648682 0.486572 0.654785 0.494385 0.594971 0.494385 0.594971 0.486572 0.654785 0.420654 0.588379 0.537109 0.648682 0.494385 0.594971 0.581299 0.638916 0.581299 0.638916 0.494385 0.594971 0.537598 0.583984 0.581299 0.638916 0.537598 0.583984 0.613037 0.63623 0.613037 0.63623 0.537598 0.583984 0.603516 0.583496 0.613037 0.63623 0.603516 0.583496 0.62085 0.601318 0.741211 0.889893 0.752686 0.908203 0.722656 0.913086 0.741211 0.889893 0.722656 0.913086 0.726807 0.846191 0.726807 0.846191 0.722656 0.913086 0.69751 0.919678 0.741211 0.889893 0.726807 0.846191 0.760498 0.865723 0.741211 0.889893 0.760498 0.865723 0.791504 0.906006 0.791504 0.906006 0.760498 0.865723 0.80542 0.878174 0.791504 0.906006 0.80542 0.878174 0.824219 0.893555 0.791504 0.906006 0.824219 0.893555 0.8396 0.915527 0.824219 0.893555 0.80542 0.878174 0.834229 0.873779 0.824219 0.893555 0.834229 0.873779 0.8396 0.915527 0.883057 0.949951 0.843506 0.969238 0.904297 0.891846 0.883057 0.949951 0.904297 0.891846 0.912354 0.91748 0.883057 0.949951 0.912354 0.91748 0.902588 0.967529 0.912354 0.91748 0.904297 0.891846 0.913574 0.878662 0.902588 0.967529 0.912354 0.91748 0.935547 0.944824 0.935547 0.944824 0.912354 0.91748 0.913574 0.878662 0.935547 0.944824 0.913574 0.878662 0.963135 0.966309 0.963135 0.966309 0.913574 0.878662 0.959961 0.900635 0.885498 0.847168 0.859131 0.873291 0.746338 0.849854 0.232422 0.615234 0.268555 0.636475 0.204346 0.646484 0.204346 0.646484 0.268555 0.636475 0.260986 0.662109 0.232422 0.615234 0.204346 0.646484 0.200928 0.608398 0.200928 0.608398 0.204346 0.646484 0.190918 0.646484 0.200928 0.608398 0.190918 0.646484 0.155273 0.629395 0.200928 0.608398 0.155273 0.629395 0.180664 0.57666 0.180664 0.57666 0.155273 0.629395 0.081055 0.663086 0.180664 0.57666 0.081055 0.663086 0.143799 0.584229 0.54541 0.912109 0.465088 0.900635 0.557617 0.895508 0.465088 0.900635 0.54541 0.912109 0.519775 0.928711 0.465088 0.900635 0.519775 0.928711 0.466064 0.91748 0.465088 0.900635 0.466064 0.91748 0.447266 0.908691 0.466064 0.91748 0.519775 0.928711 0.524658 0.964355 0.447266 0.908691 0.466064 0.91748 0.469971 0.949951 0.469971 0.949951 0.466064 0.91748 0.524658 0.964355 0.098389 0.000977 0.077393 0.071289 0.08667 0.023926 0.08667 0.023926 0.077393 0.071289 0.040283 0.087158 0.077393 0.071289 0.098389 0.000977 0.102539 0.047363 0.08667 0.023926 0.040283 0.087158 0.03125 0 0.03125 0 0.040283 0.087158 0.025635 0.06665 0.025635 0.06665 0.040283 0.087158 0.029297 0.143066 0.102539 0.047363 0.098389 0.000977 0.123779 0.013184 0.102539 0.047363 0.123779 0.013184 0.108398 0.042969 0.102539 0.047363 0.108398 0.042969 0.13916 0.047607 0.084961 0.605225 0.109375 0.559814 0.130127 0.587158 0.084961 0.605225 0.130127 0.587158 0.118652 0.600586 0.084961 0.605225 0.118652 0.600586 0.094238 0.626465 0.109375 0.559814 0.084961 0.605225 0.040039 0.575928 0.084961 0.605225 0.094238 0.626465 0.064697 0.644287 0.040039 0.575928 0.084961 0.605225 0.05542 0.60376 0.05542 0.60376 0.084961 0.605225 0.064697 0.644287 0.040039 0.575928 0.05542 0.60376 0.023926 0.625732 0.023926 0.625732 0.05542 0.60376 0.064697 0.644287 0.023926 0.625732 0.064697 0.644287 0.091064 0.699707 0.023926 0.625732 0.091064 0.699707 0.035645 0.691162 0.895264 0.892334 0.846191 0.919678 0.922852 0.815674 0.449951 0.89917 0.389648 0.941406 0.334961 0.897705 0.751953 0.664062 0.734863 0.632812 0.751709 0.599609 0.734863 0.632812 0.751953 0.664062 0.667236 0.66748 0.751953 0.664062 0.751709 0.599609 0.792969 0.661377 0.667236 0.66748 0.751953 0.664062 0.750244 0.690674 0.667236 0.66748 0.750244 0.690674 0.630127 0.714355 0.751953 0.664062 0.792969 0.661377 0.772217 0.702148 0.751953 0.664062 0.772217 0.702148 0.750244 0.690674 0.772217 0.702148 0.792969 0.661377 0.796631 0.718262 0.772217 0.702148 0.796631 0.718262 0.712402 0.763672 0.750244 0.690674 0.772217 0.702148 0.700439 0.735352 0.700439 0.735352 0.772217 0.702148 0.712402 0.763672 0.750244 0.690674 0.700439 0.735352 0.630127 0.714355 0.700439 0.735352 0.712402 0.763672 0.638428 0.752686 0.700439 0.735352 0.638428 0.752686 0.628174 0.724609 0.700439 0.735352 0.628174 0.724609 0.630127 0.714355 0.630127 0.714355 0.628174 0.724609 0.605225 0.720947 0.96167 0.783447 0.958008 0.677002 0.998535 0.666748 0.432861 0.776611 0.39917 0.822754 0.417969 0.746582 0.417969 0.746582 0.39917 0.822754 0.377686 0.765381 0.500488 0.76709 0.518311 0.80127 0.432861 0.776611 0.432861 0.776611 0.518311 0.80127 0.419922 0.810059 0.432861 0.776611 0.419922 0.810059 0.39917 0.822754 0.419922 0.810059 0.518311 0.80127 0.542969 0.863525 0.39917 0.822754 0.419922 0.810059 0.452148 0.856689 0.452148 0.856689 0.419922 0.810059 0.542969 0.863525 0.39917 0.822754 0.452148 0.856689 0.441162 0.879639 0.441162 0.879639 0.452148 0.856689 0.542969 0.863525 0.441162 0.879639 0.542969 0.863525 0.532959 0.891602 0.39917 0.822754 0.441162 0.879639 0.382568 0.839111 0.441162 0.879639 0.532959 0.891602 0.450195 0.894287 0.441162 0.879639 0.450195 0.894287 0.382568 0.839111 0.382568 0.839111 0.450195 0.894287 0.374268 0.851562 0.108643 0.938721 0.156006 0.904297 0.149414 0.964355 0.76709 0.278076 0.709229 0.254883 0.782471 0.245117 0.782471 0.245117 0.709229 0.254883 0.796143 0.187988 0.796143 0.187988 0.709229 0.254883 0.717773 0.212402 0.709229 0.254883 0.76709 0.278076 0.693604 0.323975 0.693604 0.323975 0.76709 0.278076 0.794434 0.318359 0.693604 0.323975 0.794434 0.318359 0.797363 0.343506 0.693604 0.323975 0.797363 0.343506 0.733643 0.381592 0.709229 0.254883 0.693604 0.323975 0.613281 0.28833 0.709229 0.254883 0.613281 0.28833 0.654541 0.249023 0.717773 0.212402 0.709229 0.254883 0.69043 0.224121 0.69043 0.224121 0.709229 0.254883 0.654541 0.249023 0.717773 0.212402 0.69043 0.224121 0.636963 0.200928 0.660156 0.221191 0.654541 0.249023 0.636963 0.200928 0.654541 0.249023 0.660156 0.221191 0.69043 0.224121 0.69043 0.224121 0.660156 0.221191 0.636963 0.200928 0.266846 0.896729 0.311768 0.899414 0.299561 0.933838 0.266846 0.896729 0.299561 0.933838 0.251709 0.909912 0.251709 0.909912 0.299561 0.933838 0.2771 0.965088 0.929199 0.679932 0.942139 0.557373 0.964844 0.539062 0.929199 0.679932 0.964844 0.539062 0.999756 0.656982 0.074463 0.334229 0.075684 0.078369 0.091797 0.31958 0.091797 0.31958 0.075684 0.078369 0.120361 0.292969 0.075684 0.078369 0.074463 0.334229 0.073242 0.187012 0.291504 0.225586 0.321777 0.277832 0.341553 0.382812 0.321777 0.277832 0.291504 0.225586 0.320068 0.223877 0.320068 0.223877 0.291504 0.225586 0.327148 0.150635 0.320068 0.223877 0.327148 0.150635 0.342285 0.068359 0.145264 0.677734 0.318359 0.662598 0.351318 0.684814 0.996582 0.011963 0.996582 0.103516 0.974854 0.070312 0.785645 0.9104 0.783691 0.966064 0.765381 0.939697 0.785645 0.9104 0.765381 0.939697 0.705078 0.924072</float_array>
          <technique_common>
            <accessor source="#Flagfish-mesh-map-0-array" count="1500" stride="2">
              <param name="S" type="float"/>
              <param name="T" type="float"/>
            </accessor>
          </technique_common>
        </source>
        <vertices id="Flagfish-mesh-vertices">
          <input semantic="POSITION" source="#Flagfish-mesh-positions"/>
        </vertices>
        <polylist material="Material_-1-material" count="6">
          <input semantic="VERTEX" source="#Flagfish-mesh-vertices" offset="0"/>
          <input semantic="NORMAL" source="#Flagfish-mesh-normals" offset="1"/>
          <input semantic="TEXCOORD" source="#Flagfish-mesh-map-0" offset="2" set="0"/>
          <vcount>3 3 3 3 3 3 3 3 3 3 3 3 3 3 3 3 3 3 3 3 3 3 3 3 3 3 3 3 3 3 3 3 3 3 3 3 3 3 3 3 3 3 3 3 3 3 3 3 3 3 3 3 3 3 3 3 3 3 3 3 3 3 3 3 3 3 3 3 3 3 3 3 3 3 3 3 3 3 3 3 3 3 3 3 3 3 3 3 3 3 3 3 3 3 3 3 3 3 3 3 3 3 3 3 3 3 3 3 3 3 3 3 3 3 3 3 3 3 3 3 3 3 3 3 3 3 3 3 3 3 3 3 3 3 3 3 3 3 3 3 3 3 3 3 3 3 3 3 3 3 3 3 3 3 3 3 3 3 3 3 3 3 3 3 3 3 3 3 3 3 3 3 3 3 3 3 3 3 3 3 3 3 3 3 3 3 3 3 3 3 3 3 3 3 3 3 3 3 3 3 3 3 3 3 3 3 3 3 3 3 3 3 3 3 3 3 3 3 3 3 3 3 3 3 3 3 3 3 3 3 3 3 3 3 3 3 3 3 3 3 3 3 3 3 3 3 3 3 3 3 3 3 3 3 3 3 3 3 3 3 3 3 3 3 3 3 3 3 3 3 3 3 3 3 3 3 3 3 3 3 3 3 3 3 3 3 3 3 3 3 3 3 3 3 3 3 3 3 3 3 3 3 3 3 3 3 3 3 3 3 3 3 3 3 3 3 3 3 3 3 3 3 3 3 3 3 3 3 3 3 3 3 3 3 3 3 3 3 3 3 3 3 3 3 3 3 3 3 3 3 3 3 3 3 3 3 3 3 3 3 3 3 3 3 3 3 3 3 3 3 3 3 3 3 3 3 3 3 3 3 3 3 3 3 3 3 3 3 3 3 3 3 3 3 3 3 3 3 3 3 3 3 3 3 3 3 3 3 3 3 3 3 3 3 3 3 3 3 3 3 3 3 3 3 3 3 3 3 3 3 3 3 3 3 3 3 3 3 3 3 3 3 3 3 3 3 3 3 3 3 3 3 3 3 3 3 3 3 3 3 3 3 3 3 3 3 3 3 3 3 3 3 3 3 3 3 3 3 3 3 3 3 3 3 3 3 3 3 3 3 3 3 3 3 3 3 3 3 3 3</vcount>
          <p>0 0 0 1 0 1 2 0 2 3 1 3 4 1 4 1 1 5 1 2 6 4 2 7 5 2 8 1 3 9 5 3 10 6 3 11 1 4 12 6 4 13 2 4 14 6 5 15 5 5 16 7 5 17 6 6 18 7 6 19 8 6 20 6 7 21 8 7 22 2 7 23 2 8 24 8 8 25 3 8 26 0 9 27 2 9 28 3 9 29 0 10 30 3 10 31 1 10 32 4 11 33 9 11 34 5 11 35 9 12 36 4 12 37 10 12 38 10 13 39 4 13 40 3 13 41 9 14 42 10 14 43 11 14 44 10 15 45 3 15 46 8 15 47 11 16 48 10 16 49 12 16 50 12 17 51 10 17 52 8 17 53 11 18 54 12 18 55 13 18 56 12 19 57 8 19 58 14 19 59 15 20 60 16 20 61 12 20 62 12 21 63 16 21 64 13 21 65 15 22 66 12 22 67 17 22 68 15 23 69 17 23 70 18 23 71 17 24 72 12 24 73 14 24 74 17 25 75 14 25 76 18 25 77 19 26 78 11 26 79 13 26 80 11 27 81 19 27 82 20 27 83 19 28 84 13 28 85 21 28 86 22 29 87 23 29 88 24 29 89 23 30 90 22 30 91 18 30 92 24 31 93 23 31 94 25 31 95 24 32 96 25 32 97 22 32 98 25 33 99 23 33 100 21 33 101 18 34 102 22 34 103 26 34 104 26 35 105 22 35 106 25 35 107 26 36 108 25 36 109 21 36 110 18 37 111 26 37 112 15 37 113 15 38 114 26 38 115 16 38 116 26 39 117 21 39 118 27 39 119 26 40 120 27 40 121 16 40 122 27 41 123 21 41 124 13 41 125 27 42 126 13 42 127 16 42 128 28 43 129 20 43 130 19 43 131 20 44 132 28 44 133 29 44 134 28 45 135 19 45 136 30 45 137 30 46 138 19 46 139 31 46 140 30 47 141 31 47 142 32 47 143 32 48 144 31 48 145 33 48 146 33 49 147 31 49 148 34 49 149 34 50 150 31 50 151 35 50 152 34 51 153 35 51 154 36 51 155 31 52 156 19 52 157 37 52 158 37 53 159 19 53 160 21 53 161 35 54 162 31 54 163 38 54 164 38 55 165 31 55 166 37 55 167 35 56 168 38 56 169 18 56 170 37 57 171 21 57 172 39 57 173 37 58 174 39 58 175 38 58 176 39 59 177 21 59 178 23 59 179 18 60 180 38 60 181 23 60 182 23 61 183 38 61 184 39 61 185 14 62 186 35 62 187 18 62 188 35 63 189 14 63 190 40 63 191 35 64 192 40 64 193 36 64 194 41 65 195 5 65 196 9 65 197 41 66 198 9 66 199 42 66 200 41 67 201 42 67 202 43 67 203 42 68 204 9 68 205 44 68 206 44 69 207 9 69 208 11 69 209 44 70 210 11 70 211 20 70 212 44 71 213 20 71 214 45 71 215 43 72 216 42 72 217 46 72 218 43 73 219 46 73 220 47 73 221 42 74 222 44 74 223 48 74 224 42 75 225 48 75 226 46 75 227 48 76 228 44 76 229 45 76 230 46 77 231 48 77 232 49 77 233 46 78 234 49 78 235 50 78 236 49 79 237 48 79 238 51 79 239 51 80 240 48 80 241 45 80 242 51 81 243 45 81 244 52 81 245 52 82 246 45 82 247 53 82 248 52 83 249 53 83 250 51 83 251 51 84 252 53 84 253 54 84 254 5 85 255 41 85 256 7 85 257 7 86 258 41 86 259 43 86 260 47 87 261 50 87 262 43 87 263 43 88 264 50 88 265 49 88 266 43 89 267 49 89 268 55 89 269 43 90 270 55 90 271 7 90 272 55 91 273 49 91 274 51 91 275 7 92 276 55 92 277 56 92 278 56 93 279 55 93 280 51 93 281 7 94 282 56 94 283 8 94 284 56 95 285 51 95 286 40 95 287 8 96 288 56 96 289 14 96 290 14 97 291 56 97 292 40 97 293 57 98 294 45 98 295 20 98 296 57 99 297 20 99 298 58 99 299 54 100 300 40 100 301 51 100 302 40 101 303 54 101 304 59 101 305 60 102 306 53 102 307 61 102 308 60 103 309 61 103 310 62 103 311 62 104 312 61 104 313 63 104 314 62 105 315 63 105 316 64 105 317 64 106 318 63 106 319 65 106 320 64 107 321 65 107 322 66 107 323 66 108 324 65 108 325 67 108 326 67 109 327 65 109 328 68 109 329 67 110 330 68 110 331 69 110 332 69 111 333 68 111 334 70 111 335 71 112 336 45 112 337 57 112 338 71 113 339 57 113 340 58 113 341 45 114 342 61 114 343 53 114 344 28 115 345 30 115 346 72 115 347 72 116 348 30 116 349 73 116 350 28 117 351 72 117 352 74 117 353 28 118 354 74 118 355 29 118 356 74 119 357 72 119 358 75 119 359 29 120 360 74 120 361 76 120 362 74 121 363 75 121 364 77 121 365 76 122 366 74 122 367 78 122 368 78 123 369 74 123 370 77 123 371 29 124 372 58 124 373 20 124 374 58 125 375 29 125 376 76 125 377 58 126 378 76 126 379 71 126 380 71 127 381 76 127 382 78 127 383 71 128 384 78 128 385 79 128 386 71 129 387 79 129 388 80 129 389 71 130 390 80 130 391 65 130 392 80 131 393 79 131 394 81 131 395 65 132 396 80 132 397 68 132 398 68 133 399 80 133 400 81 133 401 68 134 402 81 134 403 70 134 404 45 135 405 71 135 406 61 135 407 61 136 408 71 136 409 63 136 410 63 137 411 71 137 412 65 137 413 36 138 414 40 138 415 82 138 416 82 139 417 40 139 418 59 139 419 82 140 420 59 140 421 83 140 422 54 141 423 84 141 424 59 141 425 59 142 426 84 142 427 83 142 428 83 143 429 84 143 430 85 143 431 85 144 432 84 144 433 86 144 434 84 145 435 54 145 436 53 145 437 86 146 438 84 146 439 87 146 440 84 147 441 53 147 442 88 147 443 88 148 444 53 148 445 89 148 446 84 149 447 88 149 448 90 149 449 84 150 450 90 150 451 87 150 452 90 151 453 88 151 454 91 151 455 87 152 456 90 152 457 92 152 458 87 153 459 92 153 460 93 153 461 92 154 462 90 154 463 94 154 464 36 155 465 82 155 466 34 155 467 34 156 468 82 156 469 95 156 470 34 157 471 95 157 472 33 157 473 33 158 474 95 158 475 96 158 476 95 159 477 82 159 478 83 159 479 95 160 480 83 160 481 97 160 482 97 161 483 83 161 484 98 161 485 62 162 486 64 162 487 99 162 488 99 163 489 64 163 490 100 163 491 62 164 492 99 164 493 101 164 494 62 165 495 101 165 496 60 165 497 60 166 498 101 166 499 89 166 500 89 167 501 101 167 502 99 167 503 60 168 504 89 168 505 53 168 506 89 169 507 99 169 508 88 169 509 88 170 510 99 170 511 91 170 512 91 171 513 99 171 514 100 171 515 91 172 516 100 172 517 94 172 518 91 173 519 94 173 520 90 173 521 64 174 522 66 174 523 100 174 524 100 175 525 66 175 526 102 175 527 102 176 528 66 176 529 67 176 530 102 177 531 67 177 532 103 177 533 103 178 534 67 178 535 69 178 536 103 179 537 69 179 538 70 179 539 103 180 540 70 180 541 104 180 542 103 181 543 104 181 544 105 181 545 47 182 546 46 182 547 50 182 548 102 183 549 103 183 550 106 183 551 102 184 552 106 184 553 100 184 554 106 185 555 103 185 556 107 185 557 107 186 558 103 186 559 108 186 560 108 187 561 103 187 562 105 187 563 107 188 564 108 188 565 109 188 566 110 189 567 106 189 568 107 189 569 110 190 570 107 190 571 111 190 572 111 191 573 107 191 574 93 191 575 107 192 576 109 192 577 93 192 578 93 193 579 109 193 580 112 193 581 108 194 582 113 194 583 109 194 584 113 195 585 108 195 586 105 195 587 109 196 588 113 196 589 114 196 590 113 197 591 105 197 592 115 197 593 115 198 594 105 198 595 104 198 596 115 199 597 104 199 598 70 199 599 115 200 600 70 200 601 116 200 602 115 201 603 116 201 604 117 201 605 114 202 606 113 202 607 118 202 608 115 203 609 117 203 610 119 203 611 115 204 612 119 204 613 113 204 614 113 205 615 119 205 616 118 205 617 118 206 618 119 206 619 114 206 620 119 207 621 117 207 622 120 207 623 119 208 624 120 208 625 114 208 626 100 209 627 106 209 628 94 209 629 94 210 630 106 210 631 110 210 632 94 211 633 110 211 634 92 211 635 92 212 636 110 212 637 111 212 638 92 213 639 111 213 640 93 213 641 121 214 642 120 214 643 117 214 644 120 215 645 121 215 646 122 215 647 121 216 648 117 216 649 123 216 650 121 217 651 123 217 652 122 217 653 123 218 654 117 218 655 116 218 656 122 219 657 123 219 658 124 219 659 123 220 660 116 220 661 125 220 662 123 221 663 125 221 664 124 221 665 112 222 666 87 222 667 93 222 668 87 223 669 112 223 670 86 223 671 86 224 672 112 224 673 126 224 674 126 225 675 112 225 676 127 225 677 86 226 678 126 226 679 128 226 680 86 227 681 128 227 682 85 227 683 126 228 684 127 228 685 129 228 686 129 229 687 127 229 688 130 229 689 129 230 690 130 230 691 131 230 692 131 231 693 130 231 694 132 231 695 133 232 696 116 232 697 70 232 698 133 233 699 70 233 700 81 233 701 133 234 702 81 234 703 79 234 704 133 235 705 79 235 706 134 235 707 133 236 708 134 236 709 116 236 710 116 237 711 134 237 712 135 237 713 116 238 714 135 238 715 125 238 716 135 239 717 134 239 718 136 239 719 135 240 720 136 240 721 125 240 722 125 241 723 136 241 724 132 241 725 132 242 726 136 242 727 137 242 728 138 243 729 112 243 730 109 243 731 138 244 732 109 244 733 114 244 734 138 245 735 114 245 736 120 245 737 138 246 738 120 246 739 122 246 740 138 247 741 122 247 742 124 247 743 138 248 744 124 248 745 112 248 746 112 249 747 124 249 748 127 249 749 127 250 750 124 250 751 125 250 752 127 251 753 125 251 754 130 251 755 130 252 756 125 252 757 132 252 758 139 253 759 140 253 760 141 253 761 139 254 762 141 254 763 142 254 764 139 255 765 143 255 766 140 255 767 143 256 768 139 256 769 142 256 770 140 257 771 142 257 772 141 257 773 142 258 774 140 258 775 144 258 776 144 259 777 140 259 778 143 259 779 73 260 780 30 260 781 32 260 782 73 261 783 32 261 784 145 261 785 145 262 786 32 262 787 146 262 788 145 263 789 146 263 790 147 263 791 146 264 792 32 264 793 148 264 794 148 265 795 32 265 796 33 265 797 148 266 798 33 266 799 96 266 800 148 267 801 96 267 802 149 267 803 148 268 804 149 268 805 146 268 806 146 269 807 149 269 808 150 269 809 143 270 810 73 270 811 145 270 812 143 271 813 145 271 814 151 271 815 143 272 816 151 272 817 152 272 818 143 273 819 152 273 820 144 273 821 73 274 822 143 274 823 153 274 824 153 275 825 143 275 826 142 275 827 73 276 828 153 276 829 75 276 830 73 277 831 75 277 832 72 277 833 75 278 834 153 278 835 154 278 836 75 279 837 154 279 838 155 279 839 75 280 840 155 280 841 77 280 842 156 281 843 157 281 844 158 281 845 157 282 846 156 282 847 159 282 848 157 283 849 159 283 850 154 283 851 157 284 852 154 284 853 158 284 854 158 285 855 154 285 856 153 285 857 158 286 858 153 286 859 160 286 860 158 287 861 161 287 862 156 287 863 156 288 864 161 288 865 159 288 866 161 289 867 158 289 868 160 289 869 159 290 870 161 290 871 155 290 872 159 291 873 155 291 874 154 291 875 161 292 876 160 292 877 162 292 878 162 293 879 160 293 880 163 293 881 161 294 882 162 294 883 164 294 884 164 295 885 162 295 886 165 295 887 166 296 888 167 296 889 168 296 890 169 297 891 166 297 892 168 297 893 169 298 894 168 298 895 167 298 896 167 299 897 152 299 898 169 299 899 169 300 900 152 300 901 151 300 902 169 301 903 151 301 904 145 301 905 169 302 906 145 302 907 166 302 908 166 303 909 145 303 910 167 303 911 167 304 912 145 304 913 152 304 914 170 305 915 171 305 916 149 305 917 170 306 918 149 306 919 96 306 920 149 307 921 171 307 922 172 307 923 172 308 924 171 308 925 173 308 926 173 309 927 171 309 928 174 309 929 174 310 930 150 310 931 149 310 932 174 311 933 149 311 934 173 311 935 173 312 936 149 312 937 172 312 938 144 313 939 152 313 940 175 313 941 175 314 942 152 314 943 147 314 944 147 315 945 152 315 946 145 315 947 144 316 948 175 316 949 160 316 950 144 317 951 160 317 952 142 317 953 142 318 954 160 318 955 153 318 956 163 319 957 160 319 958 175 319 959 163 320 960 175 320 961 176 320 962 163 321 963 176 321 964 177 321 965 177 322 966 176 322 967 178 322 968 176 323 969 175 323 970 179 323 971 176 324 972 179 324 973 178 324 974 178 325 975 179 325 976 180 325 977 179 326 978 175 326 979 147 326 980 180 327 981 179 327 982 181 327 983 179 328 984 147 328 985 182 328 986 179 329 987 182 329 988 181 329 989 182 330 990 147 330 991 183 330 992 181 331 993 182 331 994 184 331 995 184 332 996 182 332 997 183 332 998 184 333 999 183 333 1000 185 333 1001 184 334 1002 185 334 1003 186 334 1004 186 335 1005 185 335 1006 187 335 1007 187 336 1008 185 336 1009 188 336 1010 186 337 1011 187 337 1012 189 337 1013 186 338 1014 189 338 1015 190 338 1016 162 339 1017 191 339 1018 165 339 1019 191 340 1020 162 340 1021 177 340 1022 177 341 1023 162 341 1024 163 341 1025 165 342 1026 191 342 1027 192 342 1028 193 343 1029 192 343 1030 194 343 1031 165 344 1032 192 344 1033 195 344 1034 195 345 1035 192 345 1036 196 345 1037 195 346 1038 196 346 1039 197 346 1040 197 347 1041 196 347 1042 192 347 1043 195 348 1044 197 348 1045 165 348 1046 197 349 1047 192 349 1048 193 349 1049 197 350 1050 193 350 1051 198 350 1052 197 351 1053 198 351 1054 165 351 1055 198 352 1056 193 352 1057 199 352 1058 165 353 1059 198 353 1060 200 353 1061 165 354 1062 200 354 1063 164 354 1064 198 355 1065 199 355 1066 201 355 1067 198 356 1068 201 356 1069 200 356 1070 201 357 1071 199 357 1072 202 357 1073 200 358 1074 201 358 1075 203 358 1076 204 359 1077 183 359 1078 147 359 1079 146 360 1080 150 360 1081 147 360 1082 147 361 1083 150 361 1084 204 361 1085 183 362 1086 204 362 1087 205 362 1088 183 363 1089 205 363 1090 185 363 1091 185 364 1092 205 364 1093 188 364 1094 205 365 1095 204 365 1096 206 365 1097 206 366 1098 204 366 1099 207 366 1100 207 367 1101 204 367 1102 150 367 1103 207 368 1104 150 368 1105 174 368 1106 207 369 1107 174 369 1108 171 369 1109 170 370 1110 207 370 1111 171 370 1112 207 371 1113 170 371 1114 96 371 1115 96 372 1116 206 372 1117 207 372 1118 206 373 1119 96 373 1120 97 373 1121 97 374 1122 96 374 1123 95 374 1124 206 375 1125 97 375 1126 208 375 1127 208 376 1128 97 376 1129 98 376 1130 208 377 1131 98 377 1132 209 377 1133 209 378 1134 98 378 1135 210 378 1136 209 379 1137 210 379 1138 211 379 1139 194 380 1140 192 380 1141 191 380 1142 194 381 1143 191 381 1144 212 381 1145 212 382 1146 191 382 1147 177 382 1148 194 383 1149 212 383 1150 213 383 1151 194 384 1152 213 384 1153 214 384 1154 214 385 1155 213 385 1156 215 385 1157 214 386 1158 215 386 1159 216 386 1160 214 387 1161 216 387 1162 189 387 1163 216 388 1164 215 388 1165 190 388 1166 216 389 1167 190 389 1168 189 389 1169 181 390 1170 184 390 1171 217 390 1172 181 391 1173 217 391 1174 218 391 1175 181 392 1176 218 392 1177 180 392 1178 218 393 1179 217 393 1180 219 393 1181 180 394 1182 218 394 1183 178 394 1184 178 395 1185 218 395 1186 219 395 1187 178 396 1188 219 396 1189 177 396 1190 177 397 1191 219 397 1192 212 397 1193 184 398 1194 186 398 1195 217 398 1196 193 399 1197 194 399 1198 220 399 1199 220 400 1200 194 400 1201 214 400 1202 193 401 1203 220 401 1204 221 401 1205 221 402 1206 220 402 1207 222 402 1208 221 403 1209 222 403 1210 223 403 1211 221 404 1212 223 404 1213 224 404 1214 224 405 1215 223 405 1216 225 405 1217 224 406 1218 225 406 1219 226 406 1220 190 407 1221 217 407 1222 186 407 1223 217 408 1224 190 408 1225 215 408 1226 217 409 1227 215 409 1228 227 409 1229 217 410 1230 227 410 1231 219 410 1232 227 411 1233 215 411 1234 213 411 1235 219 412 1236 227 412 1237 212 412 1238 212 413 1239 227 413 1240 213 413 1241 187 414 1242 226 414 1243 189 414 1244 189 415 1245 226 415 1246 228 415 1247 226 416 1248 187 416 1249 224 416 1250 189 417 1251 228 417 1252 214 417 1253 214 418 1254 228 418 1255 220 418 1256 220 419 1257 228 419 1258 229 419 1259 224 420 1260 187 420 1261 230 420 1262 224 421 1263 230 421 1264 231 421 1265 224 422 1266 231 422 1267 221 422 1268 232 423 1269 155 423 1270 161 423 1271 232 424 1272 161 424 1273 164 424 1274 232 425 1275 164 425 1276 200 425 1277 155 426 1278 232 426 1279 77 426 1280 232 427 1281 200 427 1282 203 427 1283 77 428 1284 232 428 1285 233 428 1286 233 429 1287 232 429 1288 203 429 1289 77 430 1290 233 430 1291 234 430 1292 234 431 1293 233 431 1294 203 431 1295 234 432 1296 203 432 1297 201 432 1298 234 433 1299 201 433 1300 235 433 1301 77 434 1302 234 434 1303 78 434 1304 234 435 1305 79 435 1306 78 435 1307 236 436 1308 134 436 1309 79 436 1310 134 437 1311 236 437 1312 136 437 1313 236 438 1314 79 438 1315 234 438 1316 136 439 1317 236 439 1318 237 439 1319 136 440 1320 237 440 1321 137 440 1322 236 441 1323 234 441 1324 238 441 1325 236 442 1326 238 442 1327 237 442 1328 238 443 1329 234 443 1330 235 443 1331 238 444 1332 235 444 1333 239 444 1334 237 445 1335 238 445 1336 240 445 1337 240 446 1338 238 446 1339 239 446 1340 237 447 1341 240 447 1342 137 447 1343 240 448 1344 239 448 1345 241 448 1346 240 449 1347 241 449 1348 131 449 1349 240 450 1350 131 450 1351 137 450 1352 137 451 1353 131 451 1354 132 451 1355 83 452 1356 85 452 1357 98 452 1358 128 453 1359 210 453 1360 85 453 1361 85 454 1362 210 454 1363 98 454 1364 126 455 1365 129 455 1366 128 455 1367 128 456 1368 129 456 1369 242 456 1370 128 457 1371 242 457 1372 210 457 1373 242 458 1374 129 458 1375 131 458 1376 210 459 1377 242 459 1378 243 459 1379 243 460 1380 242 460 1381 131 460 1382 210 461 1383 243 461 1384 244 461 1385 244 462 1386 243 462 1387 131 462 1388 244 463 1389 131 463 1390 241 463 1391 210 464 1392 244 464 1393 211 464 1394 244 465 1395 241 465 1396 239 465 1397 244 466 1398 239 466 1399 211 466 1400 211 467 1401 239 467 1402 235 467 1403 206 468 1404 188 468 1405 205 468 1406 209 469 1407 245 469 1408 208 469 1409 208 470 1410 245 470 1411 206 470 1412 206 471 1413 245 471 1414 188 471 1415 245 472 1416 209 472 1417 202 472 1418 202 473 1419 209 473 1420 211 473 1421 202 474 1422 211 474 1423 235 474 1424 202 475 1425 235 475 1426 201 475 1427 245 476 1428 202 476 1429 231 476 1430 245 477 1431 231 477 1432 230 477 1433 188 478 1434 245 478 1435 246 478 1436 246 479 1437 245 479 1438 230 479 1439 188 480 1440 246 480 1441 187 480 1442 247 481 1443 230 481 1444 187 481 1445 230 482 1446 247 482 1447 246 482 1448 246 483 1449 247 483 1450 187 483 1451 199 484 1452 193 484 1453 221 484 1454 199 485 1455 221 485 1456 202 485 1457 202 486 1458 221 486 1459 231 486 1460 226 487 1461 225 487 1462 248 487 1463 226 488 1464 248 488 1465 228 488 1466 220 489 1467 249 489 1468 222 489 1469 222 490 1470 249 490 1471 223 490 1472 249 491 1473 220 491 1474 229 491 1475 249 492 1476 225 492 1477 223 492 1478 225 493 1479 249 493 1480 250 493 1481 250 494 1482 249 494 1483 229 494 1484 250 495 1485 229 495 1486 228 495 1487 228 496 1488 248 496 1489 250 496 1490 251 497 1491 250 497 1492 248 497 1493 251 498 1494 248 498 1495 225 498 1496 251 499 1497 225 499 1498 250 499 1499</p>
        </polylist>
      </mesh>
    </geometry>
  </library_geometries>
  <library_visual_scenes>
    <visual_scene id="Scene" name="Scene">
      <node id="Flagfish" name="Flagfish" type="NODE">
        <scale sid="scale">1 1 1</scale>
        <translate sid="location">0 0 0</translate>
        <rotate sid="rotationX">1 0 0 0</rotate>
        <rotate sid="rotationY">0 1 0 -180</rotate>
        <rotate sid="rotationZ">0 0 1 0</rotate>
        <instance_geometry url="#Flagfish-mesh" name="Flagfish">
          <bind_material>
            <technique_common>
            </technique_common>
          </bind_material>
        </instance_geometry>
      </node>
    </visual_scene>
  </library_visual_scenes>
  <scene>
    <instance_visual_scene url="#Scene"/>
  </scene>
</COLLADA>
