<?xml version="1.0" encoding="utf-8"?>
<COLLADA xmlns="http://www.collada.org/2005/11/COLLADASchema" version="1.4.1" xmlns:xsi="http://www.w3.org/2001/XMLSchema-instance">
  <asset>
    <contributor>
      <author>Blockbench user</author>
      <authoring_tool>Blockbench</authoring_tool>
    </contributor>
    <created>2026-03-08T05:17:34.436Z</created>
    <modified>2026-03-08T05:17:34.437Z</modified>
    <unit name="meter" meter="1.0"/>
    <up_axis>Y_UP</up_axis>
  </asset>
  <library_effects>
  </library_effects>
  <library_images>
  </library_images>
  <library_materials>
  </library_materials>
  <library_geometries>
    <geometry id="ImprovedFryingPan-mesh" name="ImprovedFryingPan">
      <mesh>
        <source id="ImprovedFryingPan-mesh-positions">
          <float_array id="ImprovedFryingPan-mesh-positions-array" count="750">-0.461151 0.146439 -0.27829 -0.457001 0.137665 -0.251526 -0.494751 0.162033 -0.241226 -0.479431 0.144287 -0.218567 -0.401154 0.120201 -0.246964 -0.483124 0.186829 -0.269257 -0.499451 0.187408 -0.215546 -0.50238 0.166962 -0.199677 -0.463074 0.13356 -0.180939 -0.451324 0.174866 -0.169647 -0.422913 0.145767 -0.15593 -0.462402 0.185684 -0.191086 -0.401703 0.168137 -0.154205 -0.419739 0.180054 -0.205444 -0.472626 0.189926 -0.2267 -0.461731 0.184479 -0.213806 -0.419678 0.119766 -0.200577 -0.454041 0.187485 -0.24649 -0.414154 0.122635 -0.230896 -0.417084 0.179199 -0.220444 -0.386719 0.177917 -0.234787 -0.452148 0.188232 -0.266266 -0.400635 0.17598 -0.262451 -0.442352 0.176315 -0.279785 -0.389099 0.13353 -0.263519 -0.344666 0.099716 -0.205154 -0.384064 0.109688 -0.151947 -0.355743 0.165192 -0.170059 -0.324646 0.159271 -0.202972 -0.33255 0.158752 -0.234085 -0.326172 0.131638 -0.237259 -0.323822 0.106873 -0.228821 -0.236603 0.067047 -0.185028 -0.298767 0.07988 -0.167877 -0.206833 0.03089 -0.158218 -0.241592 0.110992 -0.193634 -0.202942 0.100128 -0.179092 -0.273376 0.135818 -0.18573 -0.229218 0.114716 -0.140244 -0.294678 0.139175 -0.141586 -0.264221 0.110046 -0.104073 -0.230591 0.098526 -0.090645 -0.314819 0.13678 -0.125992 -0.266113 0.065216 -0.109741 -0.334869 0.11837 -0.128448 -0.31781 0.088814 -0.129974 -0.242767 0.048512 -0.126221 -0.155624 -0.041821 -0.174896 -0.128143 -0.0849 -0.195541 -0.166748 -0.104683 -0.102051 -0.121544 -0.041565 -0.224991 -0.07296 -0.102341 -0.247589 -0.118973 -0.12442 -0.17749 -0.138504 -0.13916 -0.114792 -0.090088 -0.160294 -0.157623 -0.123428 -0.165497 -0.062225 -0.061867 -0.189423 -0.099625 -0.19165 -0.043892 -0.083611 -0.187775 -0.093163 -0.006579 -0.181854 -0.023106 -0.123268 -0.19809 -0.022781 -0.062489 -0.201523 -0.044048 0.015106 -0.163055 -0.018267 -0.132965 -0.150696 -0.02832 -0.055443 -0.18924 -0.027575 -0.048321 -0.165375 -0.025461 -0.155075 -0.12384 -0.026459 -0.223938 -0.148392 -0.027426 -0.159622 -0.131012 -0.027452 -0.132462 -0.066002 -0.026981 -0.281342 -0.187637 0.022112 -0.145203 -0.18895 0.039524 -0.18428 -0.168289 0.047009 -0.165115 -0.158478 0.089127 -0.170685 -0.160812 0.094025 -0.125443 -0.16185 0.063599 -0.160706 -0.148544 0.038597 -0.152496 -0.132706 0.040192 -0.14296 -0.231628 0.034363 -0.094086 -0.204483 0.025728 -0.094864 -0.211548 0.052822 -0.069038 -0.190872 0.048813 -0.082069 -0.149063 0.027626 -0.089157 -0.184708 0.088379 -0.07431 -0.184677 0.065155 -0.081261 -0.156845 0.044415 -0.065277 -0.151718 0.015966 -0.060261 -0.141159 0.02623 -0.082382 -0.143799 -0.02788 -0.090057 -0.134338 0.019089 -0.138184 -0.130844 0.010774 -0.1147 -0.136383 -0.027349 -0.095634 -0.052013 -0.136002 -0.239655 -0.023405 -0.180984 -0.181488 -0.006795 -0.166 -0.23082 0.009006 -0.13913 -0.277466 -0.009398 -0.104759 -0.292084 0.039486 -0.112946 -0.309967 0.009501 -0.049515 -0.323059 0.075584 -0.108696 -0.324768 0.079254 -0.045647 -0.345062 0.04073 -0.040714 -0.338623 -0.039776 -0.062134 -0.292023 -0.02029 -0.041451 -0.312225 -0.077438 -0.041908 -0.270477 0.021996 -0.0268 -0.332703 0.091629 -0.026344 -0.350342 -0.005246 -0.027374 -0.239899 0.058945 -0.151871 -0.283905 0.056877 -0.17569 -0.243698 0.13855 -0.088226 -0.339813 0.176987 -0.131958 -0.317444 0.125381 -0.164902 -0.279907 0.103752 -0.18959 -0.220108 0.209244 -0.179932 -0.244232 0.233307 -0.189896 -0.208267 0.023006 -0.189896 -0.182404 0.099007 -0.18959 -0.150055 -0.085464 -0.189911 -0.011573 0.205566 -0.189514 -0.120766 0.016417 -0.189575 0.043583 0.121208 -0.041512 -0.354767 0.228821 -0.027416 -0.168015 0.155212 -0.027298 -0.353912 -0.136993 -0.027451 -0.073036 -0.14064 -0.002409 -0.06884 -0.184265 -0.027353 0.070229 -0.160751 -0.13942 -0.019436 -0.122345 -0.171692 0.031384 -0.16832 -0.12529 0.052315 -0.130219 -0.142136 0.133392 -0.166138 -0.092621 0.115173 -0.190262 -0.040882 0.092522 -0.164383 -0.040661 0.160156 -0.126038 -0.098122 0.189529 -0.200195 -0.025974 0.05444 -0.166306 -0.02603 0.162079 -0.148605 -0.040943 0.189041 -0.128204 -0.048065 0.212708 -0.120636 -0.027298 0.229309 -0.080322 -0.183289 0.103386 0.00211 -0.189911 0.182312 -0.049324 -0.175888 0.17688 -0.014877 -0.15657 0.244568 0.061939 -0.180954 0.241852 -0.088715 -0.141815 0.1987 -0.03167 -0.117859 0.271881 -0.080933 -0.106163 0.23732 -0.100555 -0.048447 0.24498 -0.046024 -0.048786 0.292664 -0.091896 -0.041878 0.259247 -0.058788 -0.026915 0.28714 0.017403 -0.027403 0.122414 0.22081 -0.18956 0.140213 0.01196 -0.123825 0.293549 0.049107 -0.15506 0.278992 -0.011867 -0.038467 0.317566 0.124611 -0.136246 0.314728 0.043564 -0.094093 0.320465 0.057373 -0.040287 0.341919 0.101173 -0.100327 0.331482 0.151352 -0.047596 0.35144 0.10939 -0.041424 0.353333 0.001085 -0.025991 0.324219 0.098755 -0.026632 0.353149 0.186401 -0.042385 0.353088 0.03656 -0.02733 0.32843 0.196915 -0.026726 0.352112 0.10125 -0.189987 0.217987 0.146103 -0.18602 0.243729 0.221893 -0.189941 0.217804 0.138367 -0.167145 0.280609 0.191605 -0.142578 0.306396 0.187866 -0.105049 0.329926 0.218338 -0.043686 -0.346191 0.264496 -0.10186 -0.313812 0.2491 -0.142151 -0.290771 0.201141 -0.162247 -0.278717 0.309113 -0.041824 -0.316528 0.292877 -0.027096 -0.324799 0.185089 -0.042603 -0.352783 0.221176 -0.026529 -0.347565 0.320129 -0.126678 -0.269623 0.325439 -0.158859 -0.227966 0.396454 -0.130157 -0.197617 0.368774 -0.101509 -0.249283 0.321411 -0.064552 -0.300751 0.376343 -0.042614 -0.269226 0.355286 -0.026899 -0.287537 0.429443 -0.041702 -0.216034 0.430542 -0.027105 -0.213348 0.26178 -0.163208 -0.25824 0.305237 -0.17572 -0.208282 0.384094 -0.162659 -0.158188 0.335785 -0.189301 -0.129578 0.370148 -0.189896 -0.030809 0.338043 -0.027452 -0.00103 0.42395 -0.095016 -0.191681 0.433075 -0.046249 -0.204681 0.460663 -0.095367 -0.120728 0.470306 -0.045288 -0.137283 0.473999 -0.041309 -0.136642 0.495422 -0.041218 -0.068527 0.489441 -0.04578 -0.077713 0.492249 -0.026855 -0.078148 0.487213 -0.071106 -0.050762 0.462646 -0.122589 -0.068085 0.43457 -0.147736 -0.10041 0.470184 -0.027304 -0.144775 0.386108 -0.182022 -0.073303 0.427032 -0.165787 -0.035389 0.401154 -0.180237 0.017578 0.470947 -0.121628 -0.012714 0.373505 -0.188477 0.05497 0.325317 -0.189896 0.145126 0.403015 -0.173355 0.083679 0.362396 -0.183914 0.123291 0.437347 -0.157257 0.035381 0.435211 -0.143692 0.108627 0.463959 -0.12458 0.061192 0.449158 -0.110207 0.130692 0.476685 -0.049469 0.121353 0.488586 -0.041019 0.092125 0.489655 -0.072342 0.019573 0.499329 -0.042015 0.009542 0.5 -0.027159 0.017065 0.486145 -0.027344 0.102272 0.461395 -0.027197 0.165222 0.231903 -0.177689 0.251038 0.264771 -0.156494 0.271637 0.314087 -0.177826 0.202972 0.23558 -0.112221 0.316895 0.31665 -0.124672 0.275116 0.358551 -0.143402 0.226105 0.227844 -0.048691 0.341156 0.290863 -0.074867 0.312988 0.363403 -0.039993 0.280212 0.177734 -0.045059 0.350098 0.301392 -0.04258 0.318756 0.253235 -0.041584 0.338501 0.300629 -0.026232 0.321716 0.398712 -0.025967 0.251465 0.300079 -0.027296 0.310974 0.251617 -0.027369 0.216751 0.379303 -0.163086 0.170273 0.381256 -0.149139 0.19252 0.416168 -0.10865 0.192841 0.4487 -0.040756 0.185089 0.380096 -0.081871 0.250031 0.406799 -0.04211 0.240616</float_array>
          <technique_common>
            <accessor source="#ImprovedFryingPan-mesh-positions-array" count="250" stride="3">
              <param name="X" type="float"/>
              <param name="Y" type="float"/>
              <param name="Z" type="float"/>
            </accessor>
          </technique_common>
        </source>
        <source id="ImprovedFryingPan-mesh-normals">
          <float_array id="ImprovedFryingPan-mesh-normals-array" count="1500">-0.567297 -0.804534 -0.175784 -0.571349 -0.787652 -0.230575 -0.268435 -0.926914 -0.262246 -0.76663 -0.288809 -0.57347 -0.949786 0.117546 -0.289982 -0.983543 0.00067 -0.180672 -0.722852 -0.68912 -0.050975 -0.667091 -0.740797 0.078799 -0.493574 -0.095902 0.8644 -0.506516 -0.09033 0.857486 -0.444931 0.685794 0.575954 -0.42454 0.59231 0.684788 -0.022662 0.887793 0.459685 0.182312 0.969903 0.161403 -0.039249 0.99083 0.129286 -0.111761 0.99273 -0.044675 0.114364 0.992218 -0.049247 0.477424 0.878073 -0.03247 0.18669 -0.078865 -0.979248 0.28395 -0.011475 -0.95877 -0.34753 -0.930683 -0.114247 0.893823 -0.414028 0.172223 0.289009 0.944714 0.154886 0.811978 -0.106258 0.573935 -0.450862 -0.063213 0.890353 -0.593137 -0.175898 0.785651 0.113162 0.981911 0.151807 0.18736 0.980752 0.05498 0.132003 0.989986 0.05003 -0.039092 0.997252 -0.06293 0.240409 0.952367 -0.187618 0.028284 0.759933 -0.649386 0.232146 0.806938 -0.543101 -0.226169 0.093796 -0.969562 0.171368 -0.156504 -0.972697 -0.290471 -0.952574 -0.090712 -0.283634 -0.955177 -0.084786 -0.263613 -0.954654 -0.138365 -0.258816 -0.965868 -0.010622 -0.295334 -0.955218 0.018329 -0.414556 -0.353824 0.838422 -0.983424 -0.015579 -0.18065 -0.984702 -0.019001 -0.173209 0.233569 0.972238 -0.014076 0.125482 0.975142 0.182626 0.10841 0.983975 0.141561 0.255127 0.964547 0.067529 0.333014 0.937578 -0.100239 0.327323 0.916782 -0.228847 0.409829 0.134073 -0.902255 0.381483 0.126707 -0.915651 0.382678 0.195713 -0.902914 0.363991 -0.26926 -0.891633 0.011062 -0.782786 -0.622193 -0.009518 -0.775482 -0.631298 -0.078407 -0.933011 -0.351201 -0.186549 -0.88274 -0.431242 -0.249982 -0.948063 -0.196686 -0.318741 -0.719745 -0.616743 0.327259 -0.276785 -0.903488 0.430229 -0.126205 -0.893854 0.311419 -0.148457 -0.938605 0.488531 0.21394 -0.845912 0.413798 0.710847 -0.568742 0.542985 0.787766 -0.290848 0.453886 0.890637 -0.027448 0.447961 0.884762 -0.12856 0.381245 0.917392 0.114208 0.346652 0.933035 0.096325 0.330211 0.932831 0.144176 0.311503 0.856285 0.411998 0.195354 0.930713 0.309209 0.198505 0.89733 0.394202 0.252539 0.852782 0.457151 0.194572 0.896746 0.397478 -0.397941 -0.098526 0.912105 -0.255596 0.150973 0.954923 -0.298348 0.200435 0.933174 -0.40125 -0.098207 0.910688 -0.341866 -0.24417 0.907474 -0.471167 -0.858449 0.20265 -0.471795 -0.881221 -0.029326 -0.377479 -0.263703 0.887677 -0.318782 -0.945748 0.062759 -0.367857 -0.298892 0.880537 -0.341779 -0.936576 -0.077544 -0.269487 0.1826 0.945534 -0.247936 0.16142 0.955234 -0.843022 -0.3368 -0.41938 -0.800183 -0.248962 -0.545642 -0.701259 -0.324572 -0.634735 -0.688114 -0.42747 -0.586318 -0.822432 -0.382965 -0.420646 -0.782115 -0.506664 -0.36275 -0.620775 -0.697774 -0.35742 -0.557847 -0.794992 -0.238317 -0.461701 -0.862212 -0.208382 -0.896632 -0.258176 -0.359717 -0.929251 -0.330675 -0.16476 -0.895234 -0.263569 -0.359287 -0.965522 -0.036677 -0.257725 -0.974993 -0.199547 -0.097827 -0.287906 0.954141 -0.082011 0.098835 0.988729 0.112461 0.070256 0.957405 0.280071 -0.886552 0.030845 -0.4616 -0.361855 0.896996 -0.253889 -0.849718 0.116525 -0.5142 -0.823534 -0.086086 -0.560696 0.026411 0.949779 -0.311804 0.131908 0.989114 0.065226 0.273857 0.945837 -0.174339 0.038509 0.998816 0.029718 -0.143822 -0.905717 -0.398738 -0.417593 -0.737442 -0.530845 0.586341 -0.732426 -0.346057 0.074559 0.102132 -0.991973 0.215724 0.13262 -0.967406 0.705613 -0.251952 -0.662291 0.25536 0.962551 -0.091034 0.992326 -0.106555 0.062729 0.900585 -0.25622 -0.351139 0.542327 0.012768 -0.84007 0.516282 -0.006454 -0.856394 -0.362994 -0.927423 -0.090119 -0.466856 -0.883529 -0.037705 -0.551065 -0.817211 -0.1688 -0.631704 -0.766122 -0.118354 -0.303837 -0.952143 -0.033284 -0.612305 -0.316843 0.724357 -0.204034 -0.702805 0.681495 -0.570317 0.144641 0.80859 0.744163 -0.600707 0.292186 0.339423 -0.601125 0.723492 0.850278 -0.467721 0.24138 -0.349958 -0.933768 -0.074881 -0.467324 -0.870463 -0.154603 -0.252388 0.325616 0.911194 0.48752 -0.226503 0.843221 0.493334 -0.248809 0.833496 0.151575 0.972252 0.17819 0.904335 -0.121277 0.409232 0.213626 0.926932 0.308481 0.314298 0.938944 -0.140003 0.90242 -0.338996 0.265933 0.563871 0.812838 0.146097 -0.427199 0.11762 0.896474 0.545877 0.828552 0.124582 -0.432738 0.080333 0.897933 0.833752 0.501109 0.231836 0.273046 0.957592 0.092001 0.309194 0.948142 0.073661 -0.979668 -0.043906 -0.195762 -0.987575 -0.091588 -0.127697 -0.958197 -0.08645 -0.272736 -0.469234 -0.803116 -0.367184 -0.760034 -0.639272 -0.116957 0.519043 -0.22666 -0.824148 0.975325 -0.1177 -0.186785 0.990266 0.055051 -0.127842 -0.951992 -0.103455 -0.288112 0.986984 -0.071314 0.144141 -0.625948 -0.52537 -0.576347 -0.548763 -0.697257 -0.461185 -0.371257 -0.889574 -0.266132 -0.39666 -0.832651 -0.386462 -0.436885 -0.786898 -0.435802 -0.381821 -0.739014 -0.555041 -0.461671 -0.544897 -0.699962 -0.513471 -0.486191 -0.707083 -0.368645 -0.523953 -0.767837 -0.373022 -0.353399 -0.857883 -0.323308 -0.335462 -0.884837 -0.274628 -0.280093 -0.919852 -0.205971 -0.615078 -0.761088 -0.446099 -0.316728 -0.837066 -0.539407 -0.383352 -0.749721 -0.385222 -0.218605 -0.896558 -0.407826 -0.411765 -0.81494 -0.594643 -0.32292 -0.736289 -0.573053 -0.228755 -0.786944 -0.685592 -0.301719 -0.662517 -0.583742 -0.135484 -0.800556 -0.70415 0.022909 -0.709682 -0.391683 -0.140481 -0.909313 -0.489499 0.241766 -0.837818 -0.245252 0.08083 -0.966084 0.001874 0.999976 0.006735 -0.005382 0.999975 0.004605 -0.716825 -0.060532 -0.694621 -0.254271 -0.622618 -0.740063 -0.234445 -0.619052 -0.74954 -0.274049 -0.821176 -0.500567 -0.129505 -0.296977 -0.946062 -0.049217 -0.488784 -0.871015 -0.101802 -0.674109 -0.731583 -0.086314 -0.66708 -0.739969 -0.135887 -0.8493 -0.510122 -0.23266 -0.806569 -0.543429 -0.068574 -0.913156 -0.401799 -0.00288 -0.923953 -0.382495 0.023459 -0.959285 -0.281463 -0.206601 -0.92187 -0.327828 -0.133259 -0.94676 -0.293067 -0.183723 -0.921641 -0.341796 -0.188792 -0.963842 -0.18806 0.003913 -0.999992 0.000265 0.00111 -0.999976 0.006852 -0.002347 -0.999997 -0.000159 -0.00303 -0.999975 -0.006354 -0.000448 -0.999991 0.004224 0.000619 -1 0.000342 -0.192068 -0.267434 -0.94424 -0.196661 -0.098932 -0.975468 -0.000018 1 0.000642 0.00003 1 0.000485 0.016325 0.999587 0.023642 0.002719 0.999981 0.005496 0.000128 1 0.000876 -0.000694 1 -0.000087 0.95198 0.241287 0.18845 0.954111 0.011034 0.299249 0.828702 0.238611 0.506278 0.820671 0.256345 0.510673 0.993114 0.064304 0.09793 0.701518 0.093057 0.70655 0.989834 0.139572 0.027349 0.788588 0.01183 0.614807 0.061395 0.998095 0.006162 -0.110787 0.993146 -0.037235 -0.792661 -0.580432 -0.186514 -0.871429 -0.471572 -0.135024 -0.682754 -0.712637 -0.161233 -0.421115 -0.89932 -0.117839 -0.49025 -0.870035 -0.051907 -0.606676 -0.793646 -0.045504 -0.693167 -0.717545 0.068185 -0.862357 -0.506225 0.008722 -0.664067 -0.730279 0.160333 -0.82273 -0.492191 0.284364 -0.937314 -0.321614 0.134189 -0.968739 -0.228228 -0.097247 -0.918258 -0.337421 0.207242 -0.937371 -0.314752 0.149223 -0.899423 -0.268318 0.345026 -0.837723 -0.340984 0.426555 -0.955352 -0.254922 0.149392 -0.994282 0.105727 -0.015012 -0.920608 -0.167368 0.352802 -0.945649 0.130636 0.297796 -0.864705 -0.175506 0.470619 -0.63718 -0.691024 0.341304 -0.826368 0.035256 0.562025 0.068571 0.99726 -0.027772 0.124024 0.991531 -0.038532 0.091868 0.995755 -0.00572 0.018833 0.999819 -0.002663 -0.553038 -0.810684 0.1922 -0.375066 -0.92435 0.070022 -0.139871 -0.988152 0.063177 -0.497787 -0.816599 0.292188 -0.27782 -0.937052 0.211541 -0.280285 -0.875946 0.392632 -0.264724 -0.878298 0.398138 -0.43266 -0.784587 0.444104 -0.508177 -0.796815 0.326869 -0.495537 -0.633922 0.59379 -0.563906 -0.547066 0.618651 -0.720395 -0.518739 0.460369 -0.681928 -0.4638 0.565566 -0.80512 -0.436157 0.401931 -0.714436 -0.32512 0.61958 -0.627309 -0.308189 0.715194 -0.722317 -0.31608 0.615103 -0.809556 -0.275153 0.518566 -0.526553 -0.604401 0.597864 -0.70655 -0.373754 0.600912 -0.770602 -0.145356 0.620519 -0.756178 -0.243018 0.607567 -0.675769 0.149872 0.721716 -0.002389 0.999989 -0.004068 0.000376 1 -0.000496 0.435447 0.899631 0.032405 0.000392 1 -0.000555 0.002645 -0.999996 0.001206 0.004365 -0.999989 -0.001972 0.001162 -0.999997 -0.002302 0.000161 -1 -0.000186 -0.000132 1 -0.000141 -0.592722 -0.342504 0.728953 -0.455077 -0.34195 0.822177 -0.410764 -0.637848 0.651477 -0.329533 -0.691498 0.642836 -0.476655 -0.358855 0.802511 -0.58891 -0.001003 0.808198 -0.212844 -0.521674 0.826168 -0.394997 -0.349331 0.849673 -0.568314 -0.22033 0.792763 -0.325281 -0.277021 0.90413 -0.211037 -0.314819 0.925393 -0.116935 -0.252284 0.960562 -0.112914 -0.898065 0.425123 -0.331482 -0.15238 0.931075 -0.525213 0.094252 0.845735 -0.215111 -0.142641 0.966116 -0.282871 0.070568 0.956558 0.003366 0.014858 0.999884 0.05001 0.993161 -0.105503 0.057618 0.983281 -0.172738 0.004695 0.999989 -0.000791 0.000642 0.999554 -0.02984 -0.003766 0.999993 -0.000004 -0.083389 -0.969689 0.229671 0.000778 -0.99999 -0.004294 -0.063791 -0.963595 0.259646 0.000606 -0.988491 0.151276 -0.063699 -0.893736 0.444048 -0.122608 -0.833495 0.538751 -0.246863 -0.832862 0.495379 -0.114357 -0.758859 0.641135 -0.21095 -0.6077 0.765637 0.014081 -0.738313 0.674311 0.055765 -0.526385 0.848415 -0.006994 -0.42645 0.904484 -0.214338 -0.52427 0.824136 -0.002373 -0.352004 0.935996 0.12744 -0.360604 -0.923972 0.166864 -0.375119 -0.911834 0.221483 -0.546496 -0.807643 0.141357 -0.735079 -0.663081 0.037082 -0.775798 -0.629891 0.038306 -0.885477 -0.463101 0.304248 -0.267469 -0.914272 0.308726 -0.183751 -0.933233 0.163273 -0.420299 -0.892575 -0.065089 -0.210881 -0.975342 0.299341 -0.125265 -0.945888 0.189872 -0.109544 -0.975679 0.006426 0.999968 0.004666 -0.012182 0.999911 0.005458 0.093917 0.110348 -0.989446 -0.003103 -0.915065 -0.403294 0.030808 -0.013584 -0.999433 -0.052343 0.184257 -0.981483 0.346101 -0.561904 -0.751317 0.336951 -0.723821 -0.602119 0.50525 -0.650575 -0.566988 0.550083 -0.569713 -0.610603 0.449553 -0.407541 -0.794866 0.519925 -0.391206 -0.759365 0.422197 -0.351565 -0.835555 0.565422 -0.328808 -0.756428 0.555153 -0.250232 -0.793214 0.56439 -0.181973 -0.805202 0.701428 0.121551 -0.702299 0.510705 0.082393 -0.855799 -0.003517 0.999994 0.000604 -0.000747 0.999993 0.003535 0.147901 -0.865486 -0.478601 0.184593 -0.790674 -0.583747 0.335193 -0.72594 -0.600546 0.184496 -0.903529 -0.386777 0.271964 -0.850792 -0.449654 0.368785 -0.858331 -0.356742 0.179386 -0.91061 -0.372303 0.187788 -0.9531 -0.237353 0.001973 -0.999986 0.004991 -0.002298 -0.999997 -0.000042 0.000188 1 0.000092 0.67631 -0.427894 -0.599593 0.704287 -0.307227 -0.639993 0.707364 -0.302641 -0.638784 0.467283 -0.758959 -0.453462 0.755157 -0.52443 -0.393333 0.841888 -0.280437 -0.461064 0.844479 -0.30756 -0.438478 0.774789 -0.461096 -0.432541 0.707207 -0.594806 -0.382183 0.731577 -0.642065 -0.229232 0.807508 -0.527608 -0.263744 0.914965 -0.274088 -0.296168 0.953883 0.009759 -0.300021 0.915152 -0.328753 -0.233276 0.907126 -0.35892 -0.21977 0.803708 -0.515648 -0.296919 0.754166 -0.527508 -0.391112 0.946436 0.075499 -0.313942 0.871209 -0.046482 -0.488706 -0.006212 0.99997 -0.004681 -0.000517 1 0.000554 -0.000787 0.999994 0.003357 0.865465 0.02689 -0.500247 0.700014 0.077919 -0.709865 0.626108 -0.686542 -0.369659 0.494003 -0.740543 -0.455585 0.486126 -0.849432 -0.205297 0.370978 -0.903438 -0.214884 0.329095 -0.900836 -0.283181 0.0012 -0.999979 -0.006441 0.239555 -0.966779 -0.089168 0.500409 -0.84745 -0.177254 0.727333 -0.678358 -0.104004 0.407652 -0.91179 -0.049581 0.353881 -0.934425 -0.040234 0.730312 -0.676083 -0.097752 0.291107 -0.95668 0.004433 0.056182 -0.998318 0.014316 0.38797 -0.917778 0.08463 0.35778 -0.92606 0.120025 0.526828 -0.849586 0.025615 0.507934 -0.858121 0.075042 0.713966 -0.699903 -0.019703 0.59732 -0.785295 0.162854 0.911144 -0.391108 -0.129807 0.705932 -0.692466 0.14883 0.756693 -0.652185 0.045497 0.806986 -0.520268 0.279453 0.892853 -0.363843 0.26539 0.89568 -0.360409 0.260505 0.916271 -0.394237 0.070889 0.942338 -0.332433 -0.038559 0.930002 -0.332264 0.157152 0.948245 -0.315202 -0.038462 0.956359 -0.26287 0.127581 0.975561 -0.194537 -0.102159 0.644127 -0.76387 -0.040034 0.998546 -0.019694 -0.050174 0.985445 -0.110099 0.129522 0.983258 0.16395 -0.079521 -0.002186 0.999992 0.003371 -0.002015 0.999996 0.001844 0.985417 0.056912 0.160356 0.925427 -0.104973 0.364095 0.000374 -0.999988 -0.004916 -0.002986 -0.999984 -0.004869 -0.003177 -0.999995 -0.00081 0.20073 -0.937254 0.285067 0.063542 -0.942435 0.328298 0.046528 -0.885232 0.462817 0.092267 -0.809121 0.580354 0.134149 -0.789763 0.598564 0.264144 -0.850914 0.454063 0.241862 -0.611043 0.753743 0.153262 -0.513924 0.844034 0.302652 -0.576395 0.759059 0.388805 -0.699427 0.599694 0.202757 -0.3277 0.922769 0.356517 -0.441515 0.823383 0.275969 -0.313389 0.908641 0.516444 -0.332626 0.789079 0.147367 -0.292789 0.944753 0.077688 -0.305944 0.948875 0.108149 -0.876036 0.469963 0.046367 -0.807626 0.58787 0.511201 -0.309917 0.801639 0.301028 -0.261974 0.916925 0.201385 -0.382636 0.901684 0.263224 -0.687623 0.676674 0.213453 -0.082646 0.973451 0.527425 -0.127473 0.839984 0.372528 -0.148478 0.916066 0.275824 0.180685 0.944073 0.570427 0.197839 0.797165 -0.070543 0.992999 -0.094745 -0.033118 0.994749 -0.096835 0.004328 0.999986 -0.003001 0.000007 1 -0.000378 -0.000674 -0.297411 0.954749 0.001521 0.99999 -0.004136 0.010601 0.055113 0.998424 0.215555 -0.971366 0.099924 0.295856 -0.921987 0.249816 0.131044 -0.965082 0.226812 0.341285 -0.898656 0.275576 0.444406 -0.86723 0.224535 0.54752 -0.800178 0.244819 0.40841 -0.789092 0.458841 0.639362 -0.675481 0.367342 0.411124 -0.81089 0.416455 0.352883 -0.791322 0.499283 0.690735 -0.598806 0.40536 0.640903 -0.556814 0.528395 0.72358 -0.563787 0.398216 0.825582 -0.344562 0.446868 0.635781 -0.462817 0.617724 0.743657 -0.287408 0.603632 0.578179 -0.463537 0.671448 0.536068 -0.34241 0.771613 0.643503 -0.261856 0.71926 0.745954 -0.369819 0.553883 0.660865 -0.161498 0.732923 0.798279 -0.004852 0.602268 0.850178 -0.32116 0.417197 0.80542 0.101516 0.583946 0.882933 -0.215478 0.417132 0.930752 -0.068499 0.359178 -0.039256 0.998313 -0.04277 -0.000897 1 -0.000313 -0.001542 0.999994 -0.002942 -0.000363 1 -0.000525</float_array>
          <technique_common>
            <accessor source="#ImprovedFryingPan-mesh-normals-array" count="500" stride="3">
              <param name="X" type="float"/>
              <param name="Y" type="float"/>
              <param name="Z" type="float"/>
            </accessor>
          </technique_common>
        </source>
        <source id="ImprovedFryingPan-mesh-map-0">
          <float_array id="ImprovedFryingPan-mesh-map-0-array" count="3000">0.622803 0.987549 0.617432 0.944336 0.67749 0.94751 0.67749 0.94751 0.617432 0.944336 0.665039 0.90918 0.617432 0.944336 0.622803 0.987549 0.537354 0.943604 0.714111 0.713379 0.654053 0.668457 0.717041 0.651367 0.714111 0.713379 0.717041 0.651367 0.770752 0.676514 0.770752 0.676514 0.717041 0.651367 0.778564 0.638916 0.778564 0.638916 0.717041 0.651367 0.747559 0.589355 0.778564 0.638916 0.747559 0.589355 0.825928 0.567871 0.778564 0.638916 0.825928 0.567871 0.858154 0.655518 0.858154 0.655518 0.825928 0.567871 0.87207 0.591553 0.778564 0.638916 0.858154 0.655518 0.830322 0.687988 0.778564 0.638916 0.830322 0.687988 0.770752 0.676514 0.830322 0.687988 0.858154 0.655518 0.929932 0.642578 0.830322 0.687988 0.929932 0.642578 0.880859 0.714355 0.770752 0.676514 0.830322 0.687988 0.787109 0.724365 0.770752 0.676514 0.787109 0.724365 0.714111 0.713379 0.830322 0.687988 0.880859 0.714355 0.818604 0.731201 0.830322 0.687988 0.818604 0.731201 0.787109 0.724365 0.818604 0.731201 0.880859 0.714355 0.940674 0.77832 0.818604 0.731201 0.940674 0.77832 0.851074 0.789795 0.851074 0.789795 0.940674 0.77832 0.910645 0.826416 0.818604 0.731201 0.851074 0.789795 0.765625 0.762695 0.818604 0.731201 0.765625 0.762695 0.787109 0.724365 0.765625 0.762695 0.851074 0.789795 0.803223 0.828857 0.765625 0.762695 0.803223 0.828857 0.756836 0.876953 0.765625 0.762695 0.756836 0.876953 0.728271 0.817627 0.765625 0.762695 0.728271 0.817627 0.690186 0.835693 0.787109 0.724365 0.765625 0.762695 0.73291 0.763672 0.73291 0.763672 0.765625 0.762695 0.690186 0.835693 0.787109 0.724365 0.73291 0.763672 0.714111 0.713379 0.73291 0.763672 0.690186 0.835693 0.669922 0.817139 0.714111 0.713379 0.73291 0.763672 0.705078 0.770264 0.705078 0.770264 0.73291 0.763672 0.669922 0.817139 0.914795 0.904053 0.9646 0.905762 0.931396 0.961914 0.9646 0.905762 0.914795 0.904053 0.930176 0.808105 0.649902 0.150879 0.674805 0.143555 0.661865 0.208252 0.674805 0.143555 0.649902 0.150879 0.610107 0.060791 0.674805 0.143555 0.610107 0.060791 0.700684 0.111084 0.700684 0.111084 0.610107 0.060791 0.688965 0.029297 0.700684 0.111084 0.688965 0.029297 0.771729 0.093262 0.771729 0.093262 0.688965 0.029297 0.762207 0.028809 0.722412 0.626465 0.643066 0.643799 0.703613 0.602295 0.703613 0.602295 0.643066 0.643799 0.626221 0.631348 0.626221 0.631348 0.643066 0.643799 0.593994 0.730713 0.593994 0.730713 0.643066 0.643799 0.654541 0.727295 0.626221 0.631348 0.593994 0.730713 0.577393 0.629639 0.577393 0.629639 0.593994 0.730713 0.529541 0.72876 0.577393 0.629639 0.529541 0.72876 0.514648 0.685303 0.577393 0.629639 0.514648 0.685303 0.54834 0.593018 0.54834 0.593018 0.514648 0.685303 0.487549 0.590576 0.54834 0.593018 0.487549 0.590576 0.549805 0.540039 0.487549 0.590576 0.514648 0.685303 0.479004 0.691895 0.487549 0.590576 0.479004 0.691895 0.445801 0.697754 0.487549 0.590576 0.445801 0.697754 0.454102 0.598145 0.487549 0.590576 0.454102 0.598145 0.410156 0.5271 0.666992 0.526367 0.691162 0.522217 0.722412 0.55835 0.691162 0.522217 0.666992 0.526367 0.650391 0.418213 0.691162 0.522217 0.650391 0.418213 0.701172 0.458008 0.701172 0.458008 0.650391 0.418213 0.686035 0.386475 0.650391 0.418213 0.666992 0.526367 0.639648 0.525879 0.650391 0.418213 0.639648 0.525879 0.614502 0.44043 0.650391 0.418213 0.614502 0.44043 0.611328 0.397217 0.614502 0.44043 0.639648 0.525879 0.610107 0.536133 0.611328 0.397217 0.614502 0.44043 0.589111 0.468994 0.589111 0.468994 0.614502 0.44043 0.610107 0.536133 0.611328 0.397217 0.589111 0.468994 0.565674 0.410645 0.589111 0.468994 0.610107 0.536133 0.582275 0.522217 0.589111 0.468994 0.582275 0.522217 0.536865 0.470459 0.589111 0.468994 0.536865 0.470459 0.565674 0.410645 0.536865 0.470459 0.582275 0.522217 0.542969 0.5354 0.565674 0.410645 0.536865 0.470459 0.52124 0.423584 0.565674 0.410645 0.52124 0.423584 0.526123 0.389404 0.536865 0.470459 0.542969 0.5354 0.513184 0.47876 0.536865 0.470459 0.513184 0.47876 0.52124 0.423584 0.513184 0.47876 0.542969 0.5354 0.508057 0.556152 0.526123 0.389404 0.52124 0.423584 0.485352 0.404541 0.513184 0.47876 0.508057 0.556152 0.485596 0.486328 0.513184 0.47876 0.485596 0.486328 0.52124 0.423584 0.485352 0.404541 0.52124 0.423584 0.474365 0.454346 0.474365 0.454346 0.52124 0.423584 0.485596 0.486328 0.485352 0.404541 0.474365 0.454346 0.462891 0.388916 0.462891 0.388916 0.474365 0.454346 0.432129 0.441406 0.474365 0.454346 0.485596 0.486328 0.434082 0.489746 0.474365 0.454346 0.434082 0.489746 0.432129 0.441406 0.434082 0.489746 0.485596 0.486328 0.413574 0.511719 0.432129 0.441406 0.434082 0.489746 0.392334 0.463379 0.063232 0.783936 0.037842 0.73291 0.075684 0.71582 0.075684 0.71582 0.037842 0.73291 0.040039 0.605713 0.092285 0.947266 0.128662 0.913086 0.163818 0.998779 0.128662 0.913086 0.092285 0.947266 0.084473 0.893555 0.128662 0.913086 0.084473 0.893555 0.138672 0.84375 0.128662 0.913086 0.138672 0.84375 0.168945 0.916992 0.128662 0.913086 0.168945 0.916992 0.163818 0.998779 0.163818 0.998779 0.168945 0.916992 0.195557 0.971436 0.195557 0.971436 0.168945 0.916992 0.214844 0.91333 0.195557 0.971436 0.214844 0.91333 0.243164 0.999756 0.243164 0.999756 0.214844 0.91333 0.27417 0.938965 0.023193 0.34668 0.093262 0.396484 0.060303 0.431396 0.060303 0.431396 0.093262 0.396484 0.140625 0.434326 0.023193 0.34668 0.060303 0.431396 0.027588 0.397461 0.027588 0.397461 0.060303 0.431396 0.035889 0.450928 0.035889 0.450928 0.060303 0.431396 0.015869 0.509277 0.027588 0.397461 0.035889 0.450928 0.012451 0.392822 0.012451 0.392822 0.035889 0.450928 0 0.446289 0 0.446289 0.035889 0.450928 0.027832 0.456787 0.174316 0.215088 0.154785 0.244141 0.129883 0.255127 0.154785 0.244141 0.174316 0.215088 0.176514 0.236084 0.129883 0.255127 0.154785 0.244141 0.115234 0.312012 0.129883 0.255127 0.115234 0.312012 0.10083 0.306641 0.154785 0.244141 0.176514 0.236084 0.157959 0.260986 0.154785 0.244141 0.157959 0.260986 0.115234 0.312012 0.157959 0.260986 0.176514 0.236084 0.189697 0.265625 0.115234 0.312012 0.157959 0.260986 0.09375 0.388184 0.605713 0.072266 0.593506 0.097412 0.571533 0.071777 0.571533 0.071777 0.593506 0.097412 0.53833 0.113525 0.605713 0.072266 0.571533 0.071777 0.583252 0.040039 0.571533 0.071777 0.53833 0.113525 0.504883 0.063965 0.571533 0.071777 0.504883 0.063965 0.544678 0.033691 0.571533 0.071777 0.544678 0.033691 0.583252 0.040039 0.544678 0.033691 0.504883 0.063965 0.52832 0 0.544678 0.033691 0.52832 0 0.572754 0.024414 0.544678 0.033691 0.572754 0.024414 0.583252 0.040039 0.583252 0.040039 0.572754 0.024414 0.598633 0.019775 0.598633 0.019775 0.572754 0.024414 0.606934 0.004395 0.838867 0.56665 0.807617 0.544189 0.862061 0.501709 0.895264 0.533936 0.938477 0.615234 0.838867 0.56665 0.895264 0.533936 0.838867 0.56665 0.862061 0.501709 0.895264 0.533936 0.862061 0.501709 0.919678 0.49707 0.862061 0.501709 0.807617 0.544189 0.831543 0.498291 0.919678 0.49707 0.862061 0.501709 0.843262 0.4646 0.843262 0.4646 0.862061 0.501709 0.831543 0.498291 0.919678 0.49707 0.843262 0.4646 0.904297 0.429688 0.831543 0.498291 0.807617 0.544189 0.8125 0.463379 0.831543 0.498291 0.8125 0.463379 0.843262 0.4646 0.8125 0.463379 0.807617 0.544189 0.775146 0.554199 0.8125 0.463379 0.775146 0.554199 0.759033 0.536621 0.8125 0.463379 0.759033 0.536621 0.768555 0.477051 0.904297 0.429688 0.843262 0.4646 0.842529 0.423828 0.843262 0.4646 0.8125 0.463379 0.812012 0.42627 0.843262 0.4646 0.812012 0.42627 0.842529 0.423828 0.904297 0.429688 0.842529 0.423828 0.840088 0.369629 0.840088 0.369629 0.842529 0.423828 0.812012 0.42627 0.904297 0.429688 0.840088 0.369629 0.94043 0.370361 0.94043 0.370361 0.840088 0.369629 0.916504 0.319336 0.840088 0.369629 0.812012 0.42627 0.802246 0.342773 0.802246 0.342773 0.812012 0.42627 0.761963 0.355469 0.782471 0.438965 0.812012 0.42627 0.8125 0.463379 0.812012 0.42627 0.782471 0.438965 0.761963 0.355469 0.782471 0.438965 0.8125 0.463379 0.758301 0.443359 0.761963 0.355469 0.782471 0.438965 0.75 0.415527 0.012695 0.279297 0.04834 0.276123 0.017822 0.292969 0.04834 0.276123 0.012695 0.279297 0.053223 0.252441 0.04834 0.276123 0.053223 0.252441 0.08374 0.255371 0.04834 0.276123 0.08374 0.255371 0.094971 0.279053 0.04834 0.276123 0.094971 0.279053 0.095703 0.317871 0.094971 0.279053 0.08374 0.255371 0.124756 0.250732 0.441895 0.031006 0.418945 0.061279 0.390869 0.046631 0.390869 0.046631 0.418945 0.061279 0.401855 0.060791 0.390869 0.046631 0.401855 0.060791 0.375732 0.075684 0.390869 0.046631 0.375732 0.075684 0.337402 0.076904 0.390869 0.046631 0.337402 0.076904 0.308838 0.034912 0.337402 0.076904 0.375732 0.075684 0.337891 0.122314 0.8479 0.153809 0.817383 0.173828 0.79126 0.115723 0.79126 0.115723 0.817383 0.173828 0.753418 0.129395 0.740723 0.182861 0.69458 0.129395 0.753418 0.129395 0.740723 0.182861 0.753418 0.129395 0.782715 0.199951 0.782715 0.199951 0.753418 0.129395 0.817383 0.173828 0.782715 0.199951 0.817383 0.173828 0.819092 0.228516 0.819092 0.228516 0.817383 0.173828 0.854004 0.217529 0.854004 0.217529 0.817383 0.173828 0.8479 0.153809 0.819092 0.228516 0.854004 0.217529 0.844727 0.260498 0.844727 0.260498 0.854004 0.217529 0.904541 0.239014 0.844727 0.260498 0.904541 0.239014 0.854736 0.291504 0.854736 0.291504 0.904541 0.239014 0.916016 0.29541 0.916016 0.29541 0.904541 0.239014 0.92334 0.26123 0.904541 0.239014 0.854004 0.217529 0.887451 0.191895 0.887451 0.191895 0.854004 0.217529 0.8479 0.153809 0.92334 0.26123 0.904541 0.239014 0.907715 0.210693 0.907715 0.210693 0.904541 0.239014 0.887451 0.191895 0.887451 0.191895 0.8479 0.153809 0.901367 0.1521 0.887451 0.191895 0.901367 0.1521 0.907715 0.210693 0.901367 0.1521 0.8479 0.153809 0.895996 0.115967 0.907715 0.210693 0.901367 0.1521 0.916748 0.163086 0.916748 0.163086 0.901367 0.1521 0.937988 0.11792 0.92334 0.26123 0.907715 0.210693 0.927246 0.24292 0.927246 0.24292 0.907715 0.210693 0.916748 0.163086 0.92334 0.26123 0.927246 0.24292 0.952637 0.290039 0.927246 0.24292 0.916748 0.163086 0.969727 0.181641 0.927246 0.24292 0.969727 0.181641 0.952637 0.290039 0.404541 0.013184 0.399902 0.000244 0.46167 0.002441 0.104004 0.627686 0.094971 0.607178 0.116943 0.60791 0.094971 0.607178 0.104004 0.627686 0.085449 0.632812 0.116943 0.60791 0.094971 0.607178 0.098633 0.585205 0.081787 0.66333 0.068604 0.652344 0.085449 0.632812 0.085449 0.632812 0.068604 0.652344 0.054199 0.630371 0.085449 0.632812 0.054199 0.630371 0.066162 0.600342 0.085449 0.632812 0.066162 0.600342 0.094971 0.607178 0.094971 0.607178 0.066162 0.600342 0.098633 0.585205 0.116943 0.60791 0.098633 0.585205 0.125977 0.58374 0.098633 0.585205 0.066162 0.600342 0.083252 0.569092 0.083252 0.569092 0.066162 0.600342 0.041748 0.58252 0.083252 0.569092 0.041748 0.58252 0.037842 0.563477 0.125977 0.58374 0.098633 0.585205 0.118164 0.556885 0.118164 0.556885 0.098633 0.585205 0.083252 0.569092 0.125977 0.58374 0.118164 0.556885 0.137207 0.563477 0.137207 0.563477 0.118164 0.556885 0.166748 0.54126 0.118164 0.556885 0.083252 0.569092 0.09668 0.528809 0.118164 0.556885 0.09668 0.528809 0.166748 0.54126 0.09668 0.528809 0.083252 0.569092 0.037842 0.563477 0.166748 0.54126 0.09668 0.528809 0.195801 0.519043 0.09668 0.528809 0.037842 0.563477 0.048096 0.520508 0.09668 0.528809 0.048096 0.520508 0.057129 0.450195 0.513184 0.025146 0.495361 0.024658 0.479736 0.020508 0.513184 0.025146 0.479736 0.020508 0.501709 0.017578 0.945068 0.384033 0.998779 0.467041 0.917236 0.458496 0.998779 0.467041 0.945068 0.384033 0.996582 0.315186 0.945068 0.384033 0.917236 0.458496 0.911865 0.43335 0.428223 0.945557 0.427979 0.879639 0.5625 0.879639 0.428223 0.945557 0.5625 0.879639 0.574219 0.90625 0.428223 0.945557 0.574219 0.90625 0.622314 0.931641 0.132324 0.788574 0.118652 0.830811 0.106934 0.808838 0.106934 0.808838 0.118652 0.830811 0.071289 0.826172 0.114258 0.846924 0.118652 0.830811 0.137451 0.837646 0.118652 0.830811 0.114258 0.846924 0.097412 0.842529 0.118652 0.830811 0.097412 0.842529 0.071289 0.826172 0.097412 0.842529 0.114258 0.846924 0.080322 0.865723 0.071289 0.826172 0.097412 0.842529 0.081299 0.84375 0.081299 0.84375 0.097412 0.842529 0.080322 0.865723 0.071289 0.826172 0.081299 0.84375 0.050049 0.800781 0.081299 0.84375 0.080322 0.865723 0.043945 0.964111 0.23291 0.338623 0.234131 0.283447 0.255859 0.317627 0.255859 0.317627 0.234131 0.283447 0.259766 0.262695 0.234131 0.283447 0.23291 0.338623 0.218506 0.32251 0.195801 0.360596 0.185059 0.311768 0.218506 0.32251 0.218506 0.32251 0.185059 0.311768 0.199219 0.276855 0.218506 0.32251 0.199219 0.276855 0.234131 0.283447 0.234131 0.283447 0.199219 0.276855 0.225098 0.243408 0.234131 0.283447 0.225098 0.243408 0.259766 0.262695 0.225098 0.243408 0.199219 0.276855 0.183594 0.219482 0.225098 0.243408 0.183594 0.219482 0.210693 0.200195 0.259766 0.262695 0.225098 0.243408 0.2771 0.232422 0.259766 0.262695 0.2771 0.232422 0.294434 0.263672 0.225098 0.243408 0.210693 0.200195 0.249023 0.192139 0.225098 0.243408 0.249023 0.192139 0.2771 0.232422 0.249023 0.192139 0.210693 0.200195 0.212158 0.161621 0.212158 0.161621 0.210693 0.200195 0.17749 0.163574 0.2771 0.232422 0.249023 0.192139 0.274902 0.203369 0.2771 0.232422 0.274902 0.203369 0.306152 0.231689 0.249023 0.192139 0.212158 0.161621 0.222412 0.156982 0.249023 0.192139 0.222412 0.156982 0.274902 0.203369 0.222412 0.156982 0.212158 0.161621 0.203857 0.143555 0.203857 0.143555 0.212158 0.161621 0.193115 0.128418 0.222412 0.156982 0.203857 0.143555 0.191406 0.116943 0.222412 0.156982 0.191406 0.116943 0.273926 0.190186 0.222412 0.156982 0.273926 0.190186 0.274902 0.203369 0.274902 0.203369 0.273926 0.190186 0.333252 0.178711 0.333252 0.178711 0.273926 0.190186 0.343994 0.16333 0.891846 0.876709 0.857666 0.876709 0.891357 0.839844 0.891846 0.876709 0.891357 0.839844 0.918213 0.830811 0.891846 0.876709 0.918213 0.830811 0.90625 0.924805 0.857666 0.876709 0.891846 0.876709 0.884766 0.912109 0.884766 0.912109 0.891846 0.876709 0.90625 0.924805 0.884766 0.912109 0.90625 0.924805 0.887939 0.947754 0.887939 0.947754 0.90625 0.924805 0.924805 0.961914 0.884766 0.912109 0.887939 0.947754 0.857666 0.914307 0.884766 0.912109 0.857666 0.914307 0.857666 0.876709 0.857666 0.914307 0.887939 0.947754 0.865723 0.957275 0.857666 0.914307 0.865723 0.957275 0.841309 0.933594 0.857666 0.876709 0.857666 0.914307 0.833496 0.900879 0.833496 0.900879 0.857666 0.914307 0.841309 0.933594 0.857666 0.876709 0.833496 0.900879 0.845215 0.868652 0.833496 0.900879 0.841309 0.933594 0.811523 0.930176 0.811523 0.930176 0.841309 0.933594 0.813232 0.953369 0.833496 0.900879 0.811523 0.930176 0.806396 0.918457 0.833496 0.900879 0.806396 0.918457 0.807861 0.894287 0.811523 0.930176 0.813232 0.953369 0.806152 0.935303 0.811523 0.930176 0.806152 0.935303 0.806396 0.918457 0.806396 0.918457 0.806152 0.935303 0.799072 0.908447 0.799072 0.908447 0.806152 0.935303 0.796143 0.925537 0.796143 0.925537 0.806152 0.935303 0.800781 0.945801 0.796143 0.925537 0.800781 0.945801 0.724121 0.958252 0.796143 0.925537 0.724121 0.958252 0.7229 0.908447 0.355713 0.998779 0.433594 0.992188 0.444092 0.999756 0.083984 0.183838 0.001221 0.183838 0.008789 0.071777 0.183838 0.657715 0.192871 0.620117 0.27002 0.615723 0.192871 0.620117 0.183838 0.657715 0.124268 0.607666 0.124268 0.607666 0.183838 0.657715 0.092773 0.685547 0.092773 0.685547 0.183838 0.657715 0.152588 0.769775 0.991455 0.169678 0.902344 0.049316 1 0.028564 0.30249 0.768311 0.368164 0.76416 0.352783 0.795654 0.30249 0.768311 0.352783 0.795654 0.334229 0.809082 0.334229 0.809082 0.352783 0.795654 0.378174 0.814209 0.334229 0.809082 0.378174 0.814209 0.35791 0.844482 0.30249 0.768311 0.334229 0.809082 0.275635 0.788086 0.30249 0.768311 0.275635 0.788086 0.311768 0.737793 0.349365 0.87085 0.304688 0.842773 0.334229 0.809082 0.334229 0.809082 0.304688 0.842773 0.275635 0.788086 0.311768 0.737793 0.275635 0.788086 0.278809 0.75 0.275635 0.788086 0.304688 0.842773 0.256836 0.83374 0.256836 0.83374 0.304688 0.842773 0.287598 0.881836 0.256836 0.83374 0.287598 0.881836 0.223389 0.895264 0.256836 0.83374 0.223389 0.895264 0.234375 0.866211 0.275635 0.788086 0.256836 0.83374 0.262695 0.795654 0.275635 0.788086 0.262695 0.795654 0.278809 0.75 0.256836 0.83374 0.234375 0.866211 0.231689 0.844482 0.256836 0.83374 0.231689 0.844482 0.262695 0.795654 0.231689 0.844482 0.234375 0.866211 0.201172 0.902588 0.278809 0.75 0.262695 0.795654 0.239014 0.803955 0.239014 0.803955 0.262695 0.795654 0.231689 0.844482 0.278809 0.75 0.239014 0.803955 0.185059 0.675049 0.239014 0.803955 0.231689 0.844482 0.17749 0.87207 0.239014 0.803955 0.17749 0.87207 0.185059 0.675049 0.270508 0.516113 0.20459 0.505615 0.23584 0.479004 0.20459 0.505615 0.270508 0.516113 0.206787 0.604736 0.23584 0.479004 0.20459 0.505615 0.162842 0.480713 0.162842 0.480713 0.20459 0.505615 0.12793 0.51123 0.23584 0.479004 0.162842 0.480713 0.168701 0.445801 0.23584 0.479004 0.168701 0.445801 0.245361 0.438232 0.23584 0.479004 0.245361 0.438232 0.289795 0.450928 0.245361 0.438232 0.168701 0.445801 0.183105 0.405029 0.245361 0.438232 0.183105 0.405029 0.270264 0.415771 0.183105 0.405029 0.168701 0.445801 0.140381 0.410156 0.183105 0.405029 0.140381 0.410156 0.115967 0.383545 0.183105 0.405029 0.115967 0.383545 0.164795 0.375244 0.183105 0.405029 0.164795 0.375244 0.164551 0.345703 0.164795 0.375244 0.115967 0.383545 0.130127 0.331787 0.541016 0.799805 0.453125 0.810791 0.471924 0.760742 0.453125 0.810791 0.541016 0.799805 0.513428 0.86377 0.453125 0.810791 0.513428 0.86377 0.472168 0.874512 0.453125 0.810791 0.472168 0.874512 0.431152 0.852539 0.453125 0.810791 0.431152 0.852539 0.391357 0.800781 0.391357 0.800781 0.431152 0.852539 0.408447 0.878174 0.513428 0.86377 0.541016 0.799805 0.577881 0.873291 0.577881 0.873291 0.541016 0.799805 0.583008 0.85376 0.541016 0.799805 0.471924 0.760742 0.52832 0.773682 0.52832 0.773682 0.471924 0.760742 0.476807 0.698242 0.583008 0.85376 0.541016 0.799805 0.55542 0.794922 0.55542 0.794922 0.541016 0.799805 0.52832 0.773682 0.583008 0.85376 0.55542 0.794922 0.702637 0.741943 0.702637 0.741943 0.55542 0.794922 0.52832 0.744873 0.52832 0.744873 0.55542 0.794922 0.52832 0.773682 0.52832 0.773682 0.476807 0.698242 0.502686 0.725098 0.52832 0.773682 0.502686 0.725098 0.52832 0.744873 0.52832 0.744873 0.502686 0.725098 0.502441 0.696777 0.366211 0.115723 0.415283 0.127197 0.390625 0.17749 0.366211 0.115723 0.390625 0.17749 0.343262 0.18335 0.343262 0.18335 0.390625 0.17749 0.363281 0.247314 0.363281 0.247314 0.390625 0.17749 0.416016 0.226562 0.390625 0.17749 0.415283 0.127197 0.455078 0.177246 0.390625 0.17749 0.455078 0.177246 0.416016 0.226562 0.455078 0.177246 0.415283 0.127197 0.477295 0.15918 0.416016 0.226562 0.455078 0.177246 0.479248 0.233154 0.479248 0.233154 0.455078 0.177246 0.477295 0.15918 0.479248 0.233154 0.477295 0.15918 0.502197 0.211426 0.479248 0.233154 0.502197 0.211426 0.484863 0.290039 0.502197 0.211426 0.477295 0.15918 0.490967 0.144775 0.502197 0.211426 0.490967 0.144775 0.630615 0.122559 0.502197 0.211426 0.630615 0.122559 0.572266 0.233643 0.095215 0.102295 0.060303 0.129639 0.037598 0.101807 0.095215 0.102295 0.037598 0.101807 0.074951 0.07373 0.095215 0.102295 0.074951 0.07373 0.156006 0.107666 0.060303 0.129639 0.095215 0.102295 0.150635 0.132568 0.150635 0.132568 0.095215 0.102295 0.156006 0.107666 0.150635 0.132568 0.156006 0.107666 0.221924 0.091553 0.060303 0.129639 0.150635 0.132568 0.093262 0.159912 0.093262 0.159912 0.150635 0.132568 0.168945 0.204346 0.093262 0.159912 0.168945 0.204346 0.08252 0.242188 0.999023 0.606445 0.999023 0.78125 0.890625 0.7146 0.347168 0.152588 0.269287 0.17749 0.276367 0.033203 0.36377 0.547119 0.376709 0.515625 0.399658 0.517822 0.36377 0.547119 0.399658 0.517822 0.418701 0.566406 0.36377 0.547119 0.418701 0.566406 0.377197 0.580811 0.377197 0.580811 0.418701 0.566406 0.387939 0.583252 0.376709 0.515625 0.36377 0.547119 0.304443 0.552979 0.36377 0.547119 0.377197 0.580811 0.321533 0.58667 0.36377 0.547119 0.321533 0.58667 0.304443 0.552979 0.377197 0.580811 0.387939 0.583252 0.321289 0.590332 0.377197 0.580811 0.321289 0.590332 0.321533 0.58667 0.321533 0.58667 0.321289 0.590332 0.27002 0.601562 0.321533 0.58667 0.27002 0.601562 0.275391 0.595947 0.321533 0.58667 0.275391 0.595947 0.304443 0.552979 0.27002 0.601562 0.321289 0.590332 0.278564 0.612793 0.304443 0.552979 0.275391 0.595947 0.252686 0.572998 0.304443 0.552979 0.252686 0.572998 0.265869 0.534912 0.304443 0.552979 0.265869 0.534912 0.289062 0.512207 0.304443 0.552979 0.289062 0.512207 0.376709 0.515625 0.278564 0.612793 0.321289 0.590332 0.325439 0.600342 0.325439 0.600342 0.321289 0.590332 0.387939 0.583252 0.278564 0.612793 0.325439 0.600342 0.264648 0.729004 0.264648 0.729004 0.325439 0.600342 0.412109 0.72998 0.412109 0.72998 0.325439 0.600342 0.388428 0.597168 0.388428 0.597168 0.325439 0.600342 0.387939 0.583252 0.388428 0.597168 0.387939 0.583252 0.436768 0.601318 0.349609 0.481201 0.376709 0.515625 0.289062 0.512207 0.376709 0.515625 0.349609 0.481201 0.386963 0.452881 0.349609 0.481201 0.289062 0.512207 0.280029 0.469482 0.349609 0.481201 0.280029 0.469482 0.31665 0.445801 0.349609 0.481201 0.31665 0.445801 0.341309 0.416504 0.163086 0.099854 0.040771 0.054199 0.129883 0.036133 0.163086 0.099854 0.129883 0.036133 0.170654 0.069336 0.639893 0.226074 0.633301 0.270996 0.601562 0.248047 0.633301 0.270996 0.639893 0.226074 0.668213 0.244385 0.601562 0.248047 0.633301 0.270996 0.615967 0.307861 0.601562 0.248047 0.615967 0.307861 0.591553 0.2771 0.633301 0.270996 0.668213 0.244385 0.677246 0.280762 0.591553 0.2771 0.615967 0.307861 0.598145 0.334229 0.591553 0.2771 0.598145 0.334229 0.569824 0.396484 0.598145 0.334229 0.615967 0.307861 0.622803 0.351807 0.598145 0.334229 0.622803 0.351807 0.59668 0.380371 0.615967 0.307861 0.633301 0.270996 0.645996 0.317627 0.615967 0.307861 0.645996 0.317627 0.622803 0.351807 0.645996 0.317627 0.633301 0.270996 0.677246 0.280762 0.622803 0.351807 0.645996 0.317627 0.653564 0.366699 0.708496 0.249512 0.677246 0.280762 0.668213 0.244385 0.653564 0.366699 0.645996 0.317627 0.67627 0.332031 0.67627 0.332031 0.645996 0.317627 0.677246 0.280762 0.653564 0.366699 0.67627 0.332031 0.677979 0.38208 0.677979 0.38208 0.67627 0.332031 0.723877 0.378906 0.723877 0.378906 0.67627 0.332031 0.737549 0.346436 0.67627 0.332031 0.677246 0.280762 0.716553 0.295898 0.716553 0.295898 0.677246 0.280762 0.708496 0.249512 0.67627 0.332031 0.716553 0.295898 0.737549 0.346436 0.716553 0.295898 0.708496 0.249512 0.736816 0.285645 0.716553 0.295898 0.736816 0.285645 0.737549 0.346436 0.736816 0.285645 0.708496 0.249512 0.722168 0.22876 0.736816 0.285645 0.722168 0.22876 0.728027 0.234131 0.736816 0.285645 0.728027 0.234131 0.74707 0.295654 0.736816 0.285645 0.74707 0.295654 0.737549 0.346436 0.74707 0.295654 0.728027 0.234131 0.73877 0.232422 0.74707 0.295654 0.73877 0.232422 0.85791 0.30127 0.74707 0.295654 0.85791 0.30127 0.746826 0.353271 0.74707 0.295654 0.746826 0.353271 0.737549 0.346436 0.737549 0.346436 0.746826 0.353271 0.746826 0.398682 0.927246 0.502197 0.979004 0.538818 0.903564 0.534912 0.914062 0.077637 0.88208 0.107666 0.84375 0.062744 0.84375 0.062744 0.88208 0.107666 0.752441 0.111084 0.462891 0.973389 0.397217 0.955811 0.415527 0.949951 0.415527 0.949951 0.397217 0.955811 0.422852 0.920898 0.422852 0.920898 0.397217 0.955811 0.404785 0.903564 0.404785 0.903564 0.397217 0.955811 0.376465 0.914062 0.376465 0.914062 0.397217 0.955811 0.373291 0.961914 0.373291 0.961914 0.397217 0.955811 0.400146 0.989258 0.376465 0.914062 0.373291 0.961914 0.350342 0.928711 0.376465 0.914062 0.350342 0.928711 0.356445 0.900391 0.350342 0.928711 0.373291 0.961914 0.340576 0.977539 0.340576 0.977539 0.373291 0.961914 0.346191 1 0.356445 0.900391 0.350342 0.928711 0.321777 0.906494 0.350342 0.928711 0.340576 0.977539 0.317871 0.945068 0.350342 0.928711 0.317871 0.945068 0.321777 0.906494 0.317871 0.945068 0.340576 0.977539 0.289551 0.977051 0.356445 0.900391 0.321777 0.906494 0.325684 0.881104 0.356445 0.900391 0.325684 0.881104 0.331543 0.869141 0.331543 0.869141 0.325684 0.881104 0.320801 0.882568 0.320801 0.882568 0.325684 0.881104 0.321777 0.906494 0.317871 0.945068 0.289551 0.977051 0.298584 0.940918 0.317871 0.945068 0.298584 0.940918 0.321777 0.906494 0.320801 0.882568 0.321777 0.906494 0.309814 0.915283 0.309814 0.915283 0.321777 0.906494 0.298584 0.940918 0.320801 0.882568 0.309814 0.915283 0.308838 0.882324 0.298584 0.940918 0.289551 0.977051 0.289795 0.937012 0.298584 0.940918 0.289795 0.937012 0.309814 0.915283 0.309814 0.915283 0.289795 0.937012 0.308838 0.882324 0.289795 0.937012 0.289551 0.977051 0.269531 0.990234 0.289795 0.937012 0.269531 0.990234 0.282715 0.936279 0.289795 0.937012 0.282715 0.936279 0.308838 0.882324 0.308838 0.882324 0.282715 0.936279 0.236816 0.902344 0.362061 0.109863 0.469971 0.032959 0.542236 0.131592 0.445312 0.992432 0.500488 0.992432 0.470459 0.996582 0.791016 0.903809 0.58252 0.903809 0.634521 0.815186 0.518066 0.010986 0.447754 0.010986 0.510498 0 0.525635 0.355713 0.539551 0.333008 0.559326 0.371094 0.539551 0.333008 0.525635 0.355713 0.516846 0.299316 0.539551 0.333008 0.516846 0.299316 0.562012 0.278809 0.516846 0.299316 0.525635 0.355713 0.497559 0.340088 0.497559 0.340088 0.525635 0.355713 0.506104 0.390381 0.497559 0.340088 0.506104 0.390381 0.475098 0.384521 0.516846 0.299316 0.497559 0.340088 0.485352 0.327637 0.485352 0.327637 0.497559 0.340088 0.475098 0.384521 0.516846 0.299316 0.485352 0.327637 0.481201 0.299805 0.516846 0.299316 0.481201 0.299805 0.527588 0.272217 0.485352 0.327637 0.475098 0.384521 0.454346 0.338135 0.485352 0.327637 0.454346 0.338135 0.481201 0.299805 0.454346 0.338135 0.475098 0.384521 0.449463 0.380127 0.454346 0.338135 0.449463 0.380127 0.407959 0.344971 0.481201 0.299805 0.454346 0.338135 0.436523 0.302002 0.436523 0.302002 0.454346 0.338135 0.407959 0.344971 0.481201 0.299805 0.436523 0.302002 0.468506 0.272705 0.468506 0.272705 0.436523 0.302002 0.415771 0.28125 0.415771 0.28125 0.436523 0.302002 0.406738 0.308838 0.406738 0.308838 0.436523 0.302002 0.407959 0.344971 0.415771 0.28125 0.406738 0.308838 0.39209 0.299561 0.39209 0.299561 0.406738 0.308838 0.407959 0.344971 0.4104 0.393799 0.407959 0.344971 0.449463 0.380127 0.39209 0.299561 0.407959 0.344971 0.400391 0.358154 0.400391 0.358154 0.407959 0.344971 0.4104 0.393799 0.400391 0.358154 0.4104 0.393799 0.403076 0.409424 0.39209 0.299561 0.400391 0.358154 0.336914 0.260742 0.336914 0.260742 0.400391 0.358154 0.282715 0.30957 0.282715 0.30957 0.400391 0.358154 0.375244 0.387695 0.282715 0.30957 0.375244 0.387695 0.26709 0.409912</float_array>
          <technique_common>
            <accessor source="#ImprovedFryingPan-mesh-map-0-array" count="1500" stride="2">
              <param name="S" type="float"/>
              <param name="T" type="float"/>
            </accessor>
          </technique_common>
        </source>
        <vertices id="ImprovedFryingPan-mesh-vertices">
          <input semantic="POSITION" source="#ImprovedFryingPan-mesh-positions"/>
        </vertices>
        <polylist material="Material_-1-material" count="6">
          <input semantic="VERTEX" source="#ImprovedFryingPan-mesh-vertices" offset="0"/>
          <input semantic="NORMAL" source="#ImprovedFryingPan-mesh-normals" offset="1"/>
          <input semantic="TEXCOORD" source="#ImprovedFryingPan-mesh-map-0" offset="2" set="0"/>
          <vcount>3 3 3 3 3 3 3 3 3 3 3 3 3 3 3 3 3 3 3 3 3 3 3 3 3 3 3 3 3 3 3 3 3 3 3 3 3 3 3 3 3 3 3 3 3 3 3 3 3 3 3 3 3 3 3 3 3 3 3 3 3 3 3 3 3 3 3 3 3 3 3 3 3 3 3 3 3 3 3 3 3 3 3 3 3 3 3 3 3 3 3 3 3 3 3 3 3 3 3 3 3 3 3 3 3 3 3 3 3 3 3 3 3 3 3 3 3 3 3 3 3 3 3 3 3 3 3 3 3 3 3 3 3 3 3 3 3 3 3 3 3 3 3 3 3 3 3 3 3 3 3 3 3 3 3 3 3 3 3 3 3 3 3 3 3 3 3 3 3 3 3 3 3 3 3 3 3 3 3 3 3 3 3 3 3 3 3 3 3 3 3 3 3 3 3 3 3 3 3 3 3 3 3 3 3 3 3 3 3 3 3 3 3 3 3 3 3 3 3 3 3 3 3 3 3 3 3 3 3 3 3 3 3 3 3 3 3 3 3 3 3 3 3 3 3 3 3 3 3 3 3 3 3 3 3 3 3 3 3 3 3 3 3 3 3 3 3 3 3 3 3 3 3 3 3 3 3 3 3 3 3 3 3 3 3 3 3 3 3 3 3 3 3 3 3 3 3 3 3 3 3 3 3 3 3 3 3 3 3 3 3 3 3 3 3 3 3 3 3 3 3 3 3 3 3 3 3 3 3 3 3 3 3 3 3 3 3 3 3 3 3 3 3 3 3 3 3 3 3 3 3 3 3 3 3 3 3 3 3 3 3 3 3 3 3 3 3 3 3 3 3 3 3 3 3 3 3 3 3 3 3 3 3 3 3 3 3 3 3 3 3 3 3 3 3 3 3 3 3 3 3 3 3 3 3 3 3 3 3 3 3 3 3 3 3 3 3 3 3 3 3 3 3 3 3 3 3 3 3 3 3 3 3 3 3 3 3 3 3 3 3 3 3 3 3 3 3 3 3 3 3 3 3 3 3 3 3 3 3 3 3 3 3 3 3 3 3 3 3 3 3 3 3 3 3 3 3 3 3 3 3 3 3 3 3 3 3 3 3 3 3 3 3 3 3 3 3 3 3 3</vcount>
          <p>0 0 0 1 0 1 2 0 2 2 1 3 1 1 4 3 1 5 1 2 6 0 2 7 4 2 8 5 3 9 0 3 10 2 3 11 5 4 12 2 4 13 6 4 14 6 5 15 2 5 16 7 5 17 7 6 18 2 6 19 3 6 20 7 7 21 3 7 22 8 7 23 7 8 24 8 8 25 9 8 26 9 9 27 8 9 28 10 9 29 7 10 30 9 10 31 11 10 32 7 11 33 11 11 34 6 11 35 11 12 36 9 12 37 12 12 38 11 13 39 12 13 40 13 13 41 6 14 42 11 14 43 14 14 44 6 15 45 14 15 46 5 15 47 11 16 48 13 16 49 15 16 50 11 17 51 15 17 52 14 17 53 15 18 54 13 18 55 16 18 56 15 19 57 16 19 58 3 19 59 3 20 60 16 20 61 8 20 62 15 21 63 3 21 64 17 21 65 15 22 66 17 22 67 14 22 68 17 23 69 3 23 70 1 23 71 17 24 72 1 24 73 18 24 74 17 25 75 18 25 76 19 25 77 17 26 78 19 26 79 20 26 80 14 27 81 17 27 82 21 27 83 21 28 84 17 28 85 20 28 86 14 29 87 21 29 88 5 29 89 21 30 90 20 30 91 22 30 92 5 31 93 21 31 94 23 31 95 23 32 96 21 32 97 22 32 98 23 33 99 0 33 100 5 33 101 0 34 102 23 34 103 24 34 104 4 35 105 18 35 106 1 35 107 18 36 108 4 36 109 25 36 110 18 37 111 25 37 112 16 37 113 16 38 114 25 38 115 26 38 116 16 39 117 26 39 118 8 39 119 8 40 120 26 40 121 10 40 122 16 41 123 13 41 124 18 41 125 18 42 126 13 42 127 19 42 128 19 43 129 13 43 130 27 43 131 27 44 132 13 44 133 12 44 134 19 45 135 27 45 136 20 45 137 20 46 138 27 46 139 28 46 140 20 47 141 28 47 142 29 47 143 20 48 144 29 48 145 22 48 146 22 49 147 29 49 148 24 49 149 22 50 150 24 50 151 23 50 152 24 51 153 29 51 154 30 51 155 24 52 156 30 52 157 31 52 158 24 53 159 31 53 160 4 53 161 24 54 162 4 54 163 0 54 164 31 55 165 25 55 166 4 55 167 25 56 168 31 56 169 32 56 170 25 57 171 32 57 172 33 57 173 33 58 174 32 58 175 34 58 176 32 59 177 31 59 178 30 59 179 32 60 180 30 60 181 35 60 182 32 61 183 35 61 184 36 61 185 35 62 186 30 62 187 29 62 188 36 63 189 35 63 190 37 63 191 37 64 192 35 64 193 29 64 194 36 65 195 37 65 196 38 65 197 37 66 198 29 66 199 28 66 200 37 67 201 28 67 202 39 67 203 37 68 204 39 68 205 38 68 206 39 69 207 28 69 208 27 69 209 38 70 210 39 70 211 40 70 212 38 71 213 40 71 214 41 71 215 39 72 216 27 72 217 42 72 218 39 73 219 42 73 220 40 73 221 42 74 222 27 74 223 12 74 224 41 75 225 40 75 226 43 75 227 42 76 228 12 76 229 44 76 230 42 77 231 44 77 232 40 77 233 43 78 234 40 78 235 45 78 236 45 79 237 40 79 238 44 79 239 43 80 240 45 80 241 46 80 242 46 81 243 45 81 244 33 81 245 45 82 246 44 82 247 26 82 248 45 83 249 26 83 250 33 83 251 26 84 252 44 84 253 10 84 254 33 85 255 26 85 256 25 85 257 9 86 258 10 86 259 12 86 260 12 87 261 10 87 262 44 87 263 47 88 264 48 88 265 49 88 266 48 89 267 47 89 268 50 89 269 48 90 270 50 90 271 51 90 272 48 91 273 51 91 274 52 91 275 48 92 276 52 92 277 49 92 278 49 93 279 52 93 280 53 93 281 53 94 282 52 94 283 54 94 284 53 95 285 54 95 286 55 95 287 55 96 288 54 96 289 56 96 290 47 97 291 49 97 292 57 97 293 57 98 294 49 98 295 58 98 296 47 99 297 57 99 298 59 99 299 59 100 300 57 100 301 60 100 302 60 101 303 57 101 304 61 101 305 59 102 306 60 102 307 62 102 308 62 103 309 60 103 310 63 103 311 63 104 312 60 104 313 64 104 314 59 105 315 65 105 316 47 105 317 65 106 318 59 106 319 62 106 320 47 107 321 65 107 322 66 107 323 47 108 324 66 108 325 50 108 326 65 109 327 62 109 328 67 109 329 65 110 330 67 110 331 66 110 332 67 111 333 62 111 334 68 111 335 66 112 336 67 112 337 69 112 338 70 113 339 34 113 340 71 113 341 71 114 342 34 114 343 32 114 344 70 115 345 71 115 346 72 115 347 71 116 348 32 116 349 36 116 350 71 117 351 36 117 352 73 117 353 71 118 354 73 118 355 72 118 356 73 119 357 36 119 358 74 119 359 73 120 360 74 120 361 75 120 362 73 121 363 75 121 364 72 121 365 72 122 366 75 122 367 76 122 368 76 123 369 75 123 370 77 123 371 34 124 372 70 124 373 78 124 374 46 125 375 33 125 376 34 125 377 46 126 378 34 126 379 78 126 380 46 127 381 78 127 382 43 127 383 78 128 384 70 128 385 79 128 386 43 129 387 78 129 388 80 129 389 80 130 390 78 130 391 79 130 392 43 131 393 80 131 394 41 131 395 79 132 396 70 132 397 81 132 398 79 133 399 81 133 400 80 133 401 81 134 402 70 134 403 72 134 404 81 135 405 72 135 406 76 135 407 81 136 408 76 136 409 82 136 410 41 137 411 80 137 412 83 137 413 80 138 414 81 138 415 84 138 416 80 139 417 84 139 418 83 139 419 41 140 420 83 140 421 74 140 422 74 141 423 83 141 424 84 141 425 41 142 426 74 142 427 38 142 428 38 143 429 74 143 430 36 143 431 74 144 432 84 144 433 75 144 434 75 145 435 84 145 436 77 145 437 85 146 438 84 146 439 81 146 440 84 147 441 85 147 442 77 147 443 85 148 444 81 148 445 86 148 446 77 149 447 85 149 448 87 149 449 62 150 450 88 150 451 68 150 452 88 151 453 62 151 454 63 151 455 88 152 456 63 152 457 86 152 458 88 153 459 86 153 460 82 153 461 88 154 462 82 154 463 89 154 464 82 155 465 86 155 466 81 155 467 82 156 468 76 156 469 89 156 470 89 157 471 76 157 472 77 157 473 89 158 474 77 158 475 90 158 476 89 159 477 90 159 478 68 159 479 89 160 480 68 160 481 88 160 482 68 161 483 90 161 484 91 161 485 51 162 486 92 162 487 52 162 488 52 163 489 92 163 490 54 163 491 93 164 492 56 164 493 54 164 494 93 165 495 54 165 496 94 165 497 94 166 498 54 166 499 92 166 500 94 167 501 92 167 502 95 167 503 95 168 504 92 168 505 96 168 506 96 169 507 92 169 508 51 169 509 95 170 510 96 170 511 97 170 512 97 171 513 96 171 514 98 171 515 97 172 516 98 172 517 99 172 518 99 173 519 98 173 520 100 173 521 100 174 522 98 174 523 101 174 524 98 175 525 96 175 526 102 175 527 102 176 528 96 176 529 51 176 530 101 177 531 98 177 532 103 177 533 103 178 534 98 178 535 102 178 536 102 179 537 51 179 538 104 179 539 102 180 540 104 180 541 103 180 542 104 181 543 51 181 544 50 181 545 103 182 546 104 182 547 69 182 548 69 183 549 104 183 550 66 183 551 101 184 552 103 184 553 105 184 554 105 185 555 103 185 556 69 185 557 101 186 558 105 186 559 106 186 560 105 187 561 69 187 562 107 187 563 105 188 564 107 188 565 106 188 566 50 189 567 66 189 568 104 189 569 97 190 570 108 190 571 95 190 572 108 191 573 97 191 574 99 191 575 95 192 576 108 192 577 109 192 578 100 193 579 110 193 580 99 193 581 99 194 582 110 194 583 111 194 584 99 195 585 111 195 586 112 195 587 99 196 588 112 196 589 108 196 590 108 197 591 112 197 592 109 197 593 95 198 594 109 198 595 94 198 596 109 199 597 112 199 598 113 199 599 113 200 600 112 200 601 114 200 602 113 201 603 114 201 604 115 201 605 94 202 606 109 202 607 116 202 608 116 203 609 109 203 610 113 203 611 94 204 612 116 204 613 93 204 614 93 205 615 116 205 616 56 205 617 116 206 618 113 206 619 117 206 620 116 207 621 117 207 622 56 207 623 117 208 624 113 208 625 115 208 626 56 209 627 117 209 628 118 209 629 117 210 630 115 210 631 119 210 632 117 211 633 119 211 634 120 211 635 121 212 636 100 212 637 101 212 638 121 213 639 101 213 640 106 213 641 107 214 642 122 214 643 123 214 644 122 215 645 107 215 646 124 215 647 107 216 648 123 216 649 106 216 650 107 217 651 69 217 652 67 217 653 107 218 654 67 218 655 68 218 656 107 219 657 68 219 658 124 219 659 77 220 660 87 220 661 90 220 662 90 221 663 87 221 664 91 221 665 86 222 666 87 222 667 85 222 668 87 223 669 86 223 670 125 223 671 87 224 672 125 224 673 91 224 674 125 225 675 86 225 676 63 225 677 91 226 678 125 226 679 124 226 680 124 227 681 125 227 682 63 227 683 91 228 684 124 228 685 68 228 686 124 229 687 63 229 688 126 229 689 53 230 690 127 230 691 49 230 692 49 231 693 127 231 694 58 231 695 127 232 696 53 232 697 55 232 698 56 233 699 118 233 700 55 233 701 55 234 702 118 234 703 128 234 704 55 235 705 128 235 706 127 235 707 127 236 708 128 236 709 129 236 710 127 237 711 129 237 712 58 237 713 129 238 714 128 238 715 130 238 716 129 239 717 130 239 718 131 239 719 58 240 720 129 240 721 61 240 722 58 241 723 61 241 724 57 241 725 129 242 726 131 242 727 132 242 728 129 243 729 132 243 730 61 243 731 132 244 732 131 244 733 133 244 734 133 245 735 131 245 736 134 245 737 61 246 738 132 246 739 135 246 740 61 247 741 135 247 742 60 247 743 132 248 744 133 248 745 136 248 746 132 249 747 136 249 748 135 249 749 136 250 750 133 250 751 137 250 752 137 251 753 133 251 754 138 251 755 136 252 756 137 252 757 139 252 758 136 253 759 139 253 760 126 253 761 136 254 762 126 254 763 135 254 764 135 255 765 126 255 766 64 255 767 64 256 768 126 256 769 63 256 770 140 257 771 130 257 772 128 257 773 140 258 774 128 258 775 118 258 776 140 259 777 118 259 778 141 259 779 130 260 780 140 260 781 142 260 782 142 261 783 140 261 784 141 261 785 142 262 786 141 262 787 143 262 788 143 263 789 141 263 790 144 263 791 142 264 792 143 264 793 145 264 794 142 265 795 145 265 796 130 265 797 145 266 798 143 266 799 146 266 800 145 267 801 146 267 802 147 267 803 130 268 804 145 268 805 134 268 806 134 269 807 145 269 808 147 269 809 130 270 810 134 270 811 131 270 812 134 271 813 147 271 814 148 271 815 148 272 816 147 272 817 149 272 818 134 273 819 148 273 820 138 273 821 134 274 822 138 274 823 133 274 824 148 275 825 149 275 826 150 275 827 148 276 828 150 276 829 138 276 830 138 277 831 150 277 832 137 277 833 137 278 834 150 278 835 139 278 836 139 279 837 150 279 838 151 279 839 139 280 840 151 280 841 152 280 842 139 281 843 152 281 844 126 281 845 135 282 846 64 282 847 60 282 848 124 283 849 126 283 850 152 283 851 120 284 852 118 284 853 117 284 854 118 285 855 120 285 856 141 285 857 141 286 858 120 286 859 153 286 860 153 287 861 120 287 862 119 287 863 122 288 864 124 288 865 152 288 866 149 289 867 147 289 868 146 289 869 149 290 870 146 290 871 154 290 872 154 291 873 146 291 874 143 291 875 154 292 876 143 292 877 155 292 878 149 293 879 154 293 880 156 293 881 149 294 882 156 294 883 150 294 884 157 295 885 158 295 886 154 295 887 154 296 888 158 296 889 156 296 890 150 297 891 156 297 892 151 297 893 156 298 894 158 298 895 159 298 896 159 299 897 158 299 898 160 299 899 159 300 900 160 300 901 161 300 902 159 301 903 161 301 904 162 301 905 156 302 906 159 302 907 163 302 908 156 303 909 163 303 910 151 303 911 159 304 912 162 304 913 164 304 914 159 305 915 164 305 916 163 305 917 164 306 918 162 306 919 165 306 920 151 307 921 163 307 922 166 307 923 166 308 924 163 308 925 164 308 926 151 309 927 166 309 928 152 309 929 166 310 930 164 310 931 167 310 932 166 311 933 167 311 934 152 311 935 141 312 936 168 312 937 144 312 938 168 313 939 141 313 940 153 313 941 144 314 942 168 314 943 169 314 944 169 315 945 168 315 946 170 315 947 144 316 948 169 316 949 171 316 950 144 317 951 171 317 952 155 317 953 144 318 954 155 318 955 143 318 956 155 319 957 171 319 958 157 319 959 155 320 960 157 320 961 154 320 962 157 321 963 171 321 964 172 321 965 157 322 966 172 322 967 173 322 968 157 323 969 173 323 970 160 323 971 157 324 972 160 324 973 158 324 974 160 325 975 173 325 976 161 325 977 174 326 978 111 326 979 110 326 980 111 327 981 174 327 982 175 327 983 111 328 984 175 328 985 176 328 986 111 329 987 176 329 988 177 329 989 111 330 990 177 330 991 112 330 992 112 331 993 177 331 994 114 331 995 175 332 996 174 332 997 178 332 998 178 333 999 174 333 1000 179 333 1001 174 334 1002 110 334 1003 180 334 1004 180 335 1005 110 335 1006 100 335 1007 179 336 1008 174 336 1009 181 336 1010 181 337 1011 174 337 1012 180 337 1013 179 338 1014 181 338 1015 122 338 1016 122 339 1017 181 339 1018 123 339 1019 123 340 1020 181 340 1021 180 340 1022 180 341 1023 100 341 1024 121 341 1025 180 342 1026 121 342 1027 123 342 1028 123 343 1029 121 343 1030 106 343 1031 176 344 1032 175 344 1033 182 344 1034 176 345 1035 182 345 1036 183 345 1037 183 346 1038 182 346 1039 184 346 1040 184 347 1041 182 347 1042 185 347 1043 182 348 1044 175 348 1045 186 348 1046 182 349 1047 186 349 1048 185 349 1049 186 350 1050 175 350 1051 178 350 1052 185 351 1053 186 351 1054 187 351 1055 187 352 1056 186 352 1057 178 352 1058 187 353 1059 178 353 1060 188 353 1061 187 354 1062 188 354 1063 189 354 1064 188 355 1065 178 355 1066 179 355 1067 188 356 1068 179 356 1069 122 356 1070 188 357 1071 122 357 1072 190 357 1073 191 358 1074 114 358 1075 177 358 1076 191 359 1077 177 359 1078 176 359 1079 191 360 1080 176 360 1081 183 360 1082 114 361 1083 191 361 1084 192 361 1085 192 362 1086 191 362 1087 183 362 1088 192 363 1089 183 363 1090 193 363 1091 114 364 1092 192 364 1093 115 364 1094 115 365 1095 192 365 1096 194 365 1097 115 366 1098 194 366 1099 119 366 1100 153 367 1101 119 367 1102 195 367 1103 196 368 1104 122 368 1105 152 368 1106 197 369 1107 184 369 1108 185 369 1109 197 370 1110 185 370 1111 187 370 1112 197 371 1113 187 371 1114 198 371 1115 198 372 1116 187 372 1117 189 372 1118 184 373 1119 197 373 1120 199 373 1121 197 374 1122 198 374 1123 200 374 1124 197 375 1125 200 375 1126 199 375 1127 198 376 1128 189 376 1129 201 376 1130 198 377 1131 201 377 1132 200 377 1133 200 378 1134 201 378 1135 202 378 1136 200 379 1137 202 379 1138 203 379 1139 200 380 1140 203 380 1141 199 380 1142 202 381 1143 201 381 1144 204 381 1145 199 382 1146 203 382 1147 205 382 1148 199 383 1149 205 383 1150 206 383 1151 199 384 1152 206 384 1153 207 384 1154 199 385 1155 207 385 1156 184 385 1157 204 386 1158 201 386 1159 208 386 1160 208 387 1161 201 387 1162 189 387 1163 204 388 1164 208 388 1165 196 388 1166 196 389 1167 208 389 1168 122 389 1169 122 390 1170 208 390 1171 190 390 1172 190 391 1173 208 391 1174 189 391 1175 190 392 1176 189 392 1177 188 392 1178 193 393 1179 184 393 1180 207 393 1181 184 394 1182 193 394 1183 183 394 1184 193 395 1185 207 395 1186 209 395 1187 193 396 1188 209 396 1189 194 396 1190 193 397 1191 194 397 1192 192 397 1193 195 398 1194 119 398 1195 194 398 1196 195 399 1197 194 399 1198 209 399 1199 207 400 1200 210 400 1201 209 400 1202 210 401 1203 207 401 1204 206 401 1205 209 402 1206 210 402 1207 211 402 1208 209 403 1209 211 403 1210 195 403 1211 210 404 1212 206 404 1213 212 404 1214 195 405 1215 211 405 1216 213 405 1217 195 406 1218 213 406 1219 214 406 1220 213 407 1221 211 407 1222 215 407 1223 213 408 1224 215 408 1225 216 408 1226 211 409 1227 210 409 1228 217 409 1229 211 410 1230 217 410 1231 215 410 1232 217 411 1233 210 411 1234 212 411 1235 215 412 1236 217 412 1237 218 412 1238 205 413 1239 212 413 1240 206 413 1241 218 414 1242 217 414 1243 219 414 1244 219 415 1245 217 415 1246 212 415 1247 218 416 1248 219 416 1249 220 416 1250 220 417 1251 219 417 1252 221 417 1253 221 418 1254 219 418 1255 222 418 1256 219 419 1257 212 419 1258 223 419 1259 223 420 1260 212 420 1261 205 420 1262 219 421 1263 223 421 1264 222 421 1265 223 422 1266 205 422 1267 224 422 1268 223 423 1269 224 423 1270 222 423 1271 224 424 1272 205 424 1273 203 424 1274 224 425 1275 203 425 1276 202 425 1277 224 426 1278 202 426 1279 225 426 1280 224 427 1281 225 427 1282 222 427 1283 225 428 1284 202 428 1285 204 428 1286 225 429 1287 204 429 1288 196 429 1289 225 430 1290 196 430 1291 226 430 1292 225 431 1293 226 431 1294 222 431 1295 222 432 1296 226 432 1297 227 432 1298 170 433 1299 168 433 1300 153 433 1301 170 434 1302 153 434 1303 214 434 1304 214 435 1305 153 435 1306 195 435 1307 214 436 1308 228 436 1309 170 436 1310 170 437 1311 228 437 1312 169 437 1313 169 438 1314 228 438 1315 171 438 1316 171 439 1317 228 439 1318 172 439 1319 172 440 1320 228 440 1321 229 440 1322 229 441 1323 228 441 1324 230 441 1325 172 442 1326 229 442 1327 231 442 1328 172 443 1329 231 443 1330 173 443 1331 231 444 1332 229 444 1333 232 444 1334 232 445 1335 229 445 1336 233 445 1337 173 446 1338 231 446 1339 234 446 1340 231 447 1341 232 447 1342 235 447 1343 231 448 1344 235 448 1345 234 448 1346 235 449 1347 232 449 1348 236 449 1349 173 450 1350 234 450 1351 237 450 1352 173 451 1353 237 451 1354 161 451 1355 161 452 1356 237 452 1357 165 452 1358 165 453 1359 237 453 1360 234 453 1361 235 454 1362 236 454 1363 238 454 1364 235 455 1365 238 455 1366 234 455 1367 165 456 1368 234 456 1369 239 456 1370 239 457 1371 234 457 1372 238 457 1373 165 458 1374 239 458 1375 167 458 1376 238 459 1377 236 459 1378 240 459 1379 238 460 1380 240 460 1381 239 460 1382 239 461 1383 240 461 1384 167 461 1385 240 462 1386 236 462 1387 241 462 1388 240 463 1389 241 463 1390 242 463 1391 240 464 1392 242 464 1393 167 464 1394 167 465 1395 242 465 1396 243 465 1397 152 466 1398 243 466 1399 196 466 1400 165 467 1401 162 467 1402 161 467 1403 152 468 1404 167 468 1405 243 468 1406 167 469 1407 164 469 1408 165 469 1409 216 470 1410 214 470 1411 213 470 1412 214 471 1413 216 471 1414 230 471 1415 214 472 1416 230 472 1417 228 472 1418 230 473 1419 216 473 1420 244 473 1421 244 474 1422 216 474 1423 215 474 1424 244 475 1425 215 475 1426 218 475 1427 230 476 1428 244 476 1429 245 476 1430 245 477 1431 244 477 1432 218 477 1433 230 478 1434 245 478 1435 233 478 1436 230 479 1437 233 479 1438 229 479 1439 245 480 1440 218 480 1441 246 480 1442 245 481 1443 246 481 1444 233 481 1445 246 482 1446 218 482 1447 220 482 1448 246 483 1449 220 483 1450 247 483 1451 233 484 1452 246 484 1453 248 484 1454 248 485 1455 246 485 1456 247 485 1457 233 486 1458 248 486 1459 232 486 1460 232 487 1461 248 487 1462 236 487 1463 236 488 1464 248 488 1465 249 488 1466 249 489 1467 248 489 1468 247 489 1469 236 490 1470 249 490 1471 241 490 1472 241 491 1473 249 491 1474 247 491 1475 221 492 1476 247 492 1477 220 492 1478 241 493 1479 247 493 1480 227 493 1481 227 494 1482 247 494 1483 221 494 1484 227 495 1485 221 495 1486 222 495 1487 241 496 1488 227 496 1489 242 496 1490 242 497 1491 227 497 1492 243 497 1493 243 498 1494 227 498 1495 226 498 1496 243 499 1497 226 499 1498 196 499 1499</p>
        </polylist>
      </mesh>
    </geometry>
  </library_geometries>
  <library_visual_scenes>
    <visual_scene id="Scene" name="Scene">
      <node id="ImprovedFryingPan" name="ImprovedFryingPan" type="NODE">
        <scale sid="scale">1 1 1</scale>
        <translate sid="location">0 0.0625 0</translate>
        <rotate sid="rotationX">1 0 0 -89.99999647310523</rotate>
        <rotate sid="rotationY">0 1 0 69.99999999999972</rotate>
        <rotate sid="rotationZ">0 0 1 179.99999673846986</rotate>
        <instance_geometry url="#ImprovedFryingPan-mesh" name="ImprovedFryingPan">
          <bind_material>
            <technique_common>
            </technique_common>
          </bind_material>
        </instance_geometry>
      </node>
    </visual_scene>
  </library_visual_scenes>
  <scene>
    <instance_visual_scene url="#Scene"/>
  </scene>
</COLLADA>
