<?xml version="1.0" encoding="utf-8"?>
<COLLADA xmlns="http://www.collada.org/2005/11/COLLADASchema" version="1.4.1" xmlns:xsi="http://www.w3.org/2001/XMLSchema-instance">
  <asset>
    <contributor>
      <author>Blockbench user</author>
      <authoring_tool>Blockbench</authoring_tool>
    </contributor>
    <created>2026-01-01T03:53:18.049Z</created>
    <modified>2026-01-01T03:53:18.049Z</modified>
    <unit name="meter" meter="1.0"/>
    <up_axis>Y_UP</up_axis>
  </asset>
  <library_effects>
  </library_effects>
  <library_images>
  </library_images>
  <library_materials>
  </library_materials>
  <library_geometries>
    <geometry id="Makrele-mesh" name="Makrele">
      <mesh>
        <source id="Makrele-mesh-positions">
          <float_array id="Makrele-mesh-positions-array" count="750">-0.028046 -0.007739 -0.477905 0.003338 -0.007498 -0.5 -0.022896 -0.028011 -0.481689 -0.048729 -0.049889 -0.415802 -0.024134 0.004027 -0.492218 -0.056236 -0.042034 -0.411896 0.005167 -0.040215 -0.473785 0.024086 -0.015699 -0.487061 0.047203 -0.038673 -0.425629 -0.006802 -0.063263 -0.426453 0.011345 -0.070915 -0.405548 0.034359 -0.068474 -0.395813 -0.055168 -0.017958 -0.418579 -0.074379 -0.050419 -0.350006 -0.061222 -0.025023 -0.388519 -0.050041 -0.049358 -0.400879 -0.043606 -0.074341 -0.369385 -0.030825 -0.076256 -0.376923 -0.021341 -0.089149 -0.345001 -0.077667 -0.005381 -0.404755 -0.071991 0.00838 -0.378235 -0.072472 0.021769 -0.415497 -0.045128 0.024334 -0.429352 -0.054817 0.037865 -0.395721 0.025309 0.006639 -0.487427 0.052898 -0.013495 -0.420563 0.039055 0.031031 -0.431915 -0.008743 0.0415 -0.442596 0.015252 0.075577 -0.339874 0.056015 0.036255 -0.390472 0.07695 0.017855 -0.406006 0.073486 -0.008665 -0.39798 0.06942 0.010088 -0.377289 0.07103 0.026937 -0.340179 0.076263 0.003841 -0.331116 0.058292 -0.028797 -0.395599 0.073044 -0.048012 -0.353088 0.048363 -0.050407 -0.401123 0.043495 -0.075287 -0.365204 -0.066757 -0.071312 -0.330231 -0.077766 -0.049698 -0.316895 -0.073639 -0.006201 -0.351166 -0.073753 0.023052 -0.339813 -0.084824 -0.002012 -0.282745 -0.062805 -0.073517 -0.292938 -0.074783 -0.050766 -0.286652 -0.074036 -0.011377 -0.28714 -0.046494 -0.086349 -0.289734 -0.066116 -0.058254 -0.281525 -0.061768 -0.089233 -0.223389 -0.078094 -0.024416 -0.27652 -0.084915 0.00436 -0.273712 -0.084213 -0.025002 -0.232605 -0.081017 -0.001589 -0.252441 0.021606 -0.090195 -0.340149 0.060802 -0.075325 -0.297516 0.05003 -0.085388 -0.285706 0.029274 -0.105179 -0.221756 0.082558 -0.013409 -0.284454 0.073326 -0.057747 -0.317657 0.06942 0.037197 -0.299408 0.075851 -0.000525 -0.281036 0.057762 0.04697 -0.296936 0.068604 -0.040768 -0.285828 -0.077026 0.033855 -0.307434 -0.040775 0.063194 -0.325317 -0.06855 0.031322 -0.297852 -0.066521 0.034275 -0.28714 -0.014072 0.0811 -0.32486 -0.048653 0.071411 -0.273193 -0.042053 0.097 -0.182571 0.036518 0.06385 -0.333008 0.036995 0.096336 -0.199081 0.057022 0.074478 -0.219955 -0.007839 -0.101021 -0.296021 -0.03516 -0.108665 -0.186676 -0.065147 -0.091278 -0.151108 -0.081337 -0.059887 -0.148376 -0.092438 -0.010059 -0.158951 -0.08979 -0.035416 -0.084236 -0.085342 -0.005178 -0.235672 -0.087135 0.014694 -0.21225 -0.08062 0.012066 -0.257355 -0.07621 0.041702 -0.224854 -0.091026 0.024128 -0.160294 -0.058231 0.078209 -0.206711 -0.093887 0.005755 -0.092125 -0.083168 0.040127 -0.058807 -0.129059 0.020687 -0.214569 -0.080086 -0.001267 -0.252655 -0.121941 0.017624 -0.212677 -0.150955 -0.008376 -0.167969 -0.177734 0.00505 -0.141144 -0.182632 0.004258 -0.145096 -0.145187 -0.014618 -0.180298 -0.105606 -0.027357 -0.209442 -0.068161 0.073166 -0.147812 -0.044922 0.099182 -0.072067 -0.004868 0.111519 -0.188538 0.000737 0.111511 -0.199982 -0.023472 0.112465 -0.085487 -0.004626 0.114044 -0.147476 -0.005291 0.149506 -0.130829 -0.000863 0.136826 -0.115044 -0.000764 0.1492 -0.155289 0.004072 0.149811 -0.12851 0.002373 0.114029 -0.152527 0.022694 0.112564 -0.09726 -0.001134 -0.117691 -0.163467 0.057144 -0.089394 -0.238663 0.078461 -0.052307 -0.20192 0.081505 -0.02416 -0.236374 0.083542 -0.024197 -0.223434 0.10347 -0.027357 -0.205292 0.121887 -0.024 -0.200699 0.140549 -0.016367 -0.174774 0.138138 0.014696 -0.189804 0.176758 0.004029 -0.140472 0.174973 0.008951 -0.153778 0.126877 0.019167 -0.215668 0.104408 0.018551 -0.234085 0.079727 0.002439 -0.253448 0.089363 0.01175 -0.183456 0.071861 0.043056 -0.235916 0.082062 0.041412 -0.163712 0.081863 -0.053371 -0.150208 0.094238 0.003264 -0.133011 0.080734 0.002154 -0.252838 0.076782 0.014923 -0.27005 0.156143 -0.007873 -0.169266 -0.066254 -0.085793 -0.070778 -0.042034 -0.10865 -0.109833 -0.036232 -0.097977 0.024683 -0.011537 -0.111961 0.000352 -0.072235 -0.069252 -0.021242 -0.091675 -0.006495 -0.040272 -0.072517 -0.057327 0.019867 -0.080116 0.025297 0.008223 0.022346 -0.11483 -0.093941 -0.07148 0.067261 -0.066704 -0.066879 0.057594 0.036011 -0.035206 0.097694 0.013097 -0.000939 0.118568 -0.092072 0.003974 0.105049 0.058189 0.032158 0.098145 0.010673 0.051308 0.088928 -0.050175 0.032669 -0.109718 -0.176605 0.065094 -0.152283 -0.170334 0.05357 -0.131531 -0.195206 0.06094 -0.096771 -0.129242 0.071953 -0.150818 -0.14183 0.074608 -0.069954 -0.082458 0.089455 -0.031521 -0.084488 0.060631 -0.083427 -0.016436 0.047749 -0.091293 0.007311 0.026312 -0.103127 0.029154 0.082405 -0.044151 -0.032887 0.079697 -0.036942 0.008913 0.090034 -0.006631 -0.037868 0.089996 0.02121 -0.09391 0.082741 0.037785 -0.062489 0.079071 0.024866 0.00744 0.066513 0.071983 -0.162048 0.070145 0.06649 -0.064148 0.047375 0.095398 -0.136063 -0.0728 -0.030775 0.075432 -0.048977 -0.0443 0.140625 -0.021288 -0.087219 0.098915 0.000292 -0.106964 0.060795 -0.005286 -0.088799 0.123917 -0.002973 -0.126694 0.128998 0.002631 -0.126816 0.132858 0.000565 -0.099045 0.106293 0.021744 -0.081467 0.114258 0.005665 -0.102982 0.05542 0.04324 -0.067047 0.090141 0.06424 -0.043411 0.079422 0.066322 -0.017172 0.113129 -0.00141 -0.096191 0.138214 -0.000909 -0.074127 0.176392 0.008581 -0.062851 0.184525 -0.02792 -0.029518 0.232437 -0.060947 -0.015961 0.149567 -0.00055 -0.058243 0.208221 0.021959 -0.020132 0.269379 0.052078 -0.022667 0.172012 -0.071503 0.018421 0.081993 -0.051449 0.04493 0.138275 -0.029675 0.06897 0.146469 -0.006883 0.103882 0.060806 -0.004198 0.090363 0.122139 -0.000527 0.117027 0.108765 0.002954 0.092255 0.116257 -0.058914 0.011564 0.159943 -0.041748 0.003506 0.252747 -0.046017 0.018732 0.224167 -0.009877 0.045273 0.246613 -0.000066 0.053635 0.238113 -0.001778 0.081406 0.175369 0.024635 0.063629 0.169128 0.009567 0.044224 0.247345 0.04229 0.077072 0.075539 0.035267 0.025339 0.238876 0.047607 0.041523 0.157974 0.052738 0.011853 0.188293 0.035538 0.004157 0.269684 0.067543 0.019487 0.096191 0.064873 0.059368 0.033222 -0.001999 -0.020096 0.295929 0.009532 -0.020054 0.328979 -0.027834 -0.005953 0.3078 -0.015923 0.022827 0.325653 -0.00179 0.033192 0.293915 0.000296 0.029724 0.320709 -0.001225 0.044544 0.27652 0.018291 0.017542 0.333984 0.013099 -0.013047 0.361572 -0.018318 -0.016926 0.324799 -0.005798 -0.034378 0.343079 -0.011661 -0.027086 0.373047 -0.007786 -0.014243 0.389313 -0.008778 0.00679 0.378113 -0.008066 0.04459 0.346405 -0.010862 0.029245 0.369843 0.004359 0.051983 0.349854 0.006069 -0.119186 0.417358 0.005547 -0.08683 0.393646 0.008436 -0.044582 0.392548 0.002748 -0.103905 0.453186 0.001432 -0.149307 0.498993 -0.001849 -0.160217 0.48703 -0.006301 -0.134735 0.440186 -0.006615 -0.075676 0.38501 -0.004866 -0.100822 0.443481 0.006074 -0.007654 0.385956 0.009003 0.012654 0.373322 -0.000443 -0.044537 0.436554 -0.004037 -0.078857 0.453796 -0.000517 -0.022171 0.426514 -0.008994 0.000886 0.421478 -0.000532 0.03363 0.445282 0.007208 0.000967 0.421844 0.002537 -0.073517 0.452911 -0.000986 -0.136368 0.484985 -0.001081 0.074455 0.460541 -0.006001 0.132339 0.450165 -0.005778 0.143646 0.4841 0.007688 0.051174 0.391663 -0.000669 0.127243 0.488831 0.005818 0.136581 0.463654</float_array>
          <technique_common>
            <accessor source="#Makrele-mesh-positions-array" count="250" stride="3">
              <param name="X" type="float"/>
              <param name="Y" type="float"/>
              <param name="Z" type="float"/>
            </accessor>
          </technique_common>
        </source>
        <source id="Makrele-mesh-normals">
          <float_array id="Makrele-mesh-normals-array" count="1488">-0.575688 0.006372 -0.817645 -0.90157 -0.15354 -0.404471 -0.444488 -0.628582 -0.638212 -0.758978 -0.385749 -0.524548 -0.053254 -0.626221 -0.777825 0.239815 -0.59885 -0.764112 0.559776 -0.684714 -0.46671 -0.235933 -0.848877 -0.473016 0.097536 -0.904273 -0.415665 0.267903 -0.869312 -0.415361 -0.911216 -0.072154 -0.405559 -0.943022 0.311599 -0.116687 -0.836348 -0.366409 -0.407757 -0.793778 0.195114 0.576062 -0.702185 -0.620663 -0.348875 -0.732262 -0.679836 -0.040189 -0.940721 -0.331689 -0.070904 -0.727843 -0.429951 -0.534216 -0.363297 -0.84023 -0.402528 -0.369126 -0.839278 -0.399198 -0.370932 -0.828057 -0.420394 -0.168394 -0.930346 -0.325728 -0.043772 -0.949834 -0.309677 -0.598037 -0.744989 -0.295538 -0.83933 -0.387867 0.3809 -0.590721 -0.196592 -0.78256 -0.970596 0.222275 0.092397 -0.439429 -0.122365 -0.889904 -0.780364 0.585215 0.220353 -0.297322 0.853037 -0.428866 0.927224 -0.05683 -0.37017 0.903999 -0.122031 -0.409748 0.924885 0.206069 -0.319569 0.275671 0.891268 -0.360064 0.451901 0.843194 -0.291221 0.554562 -0.039505 -0.831204 0.491603 0.816017 -0.304043 0.738279 -0.281881 -0.61277 0.751247 0.560467 0.348575 0.969375 -0.054122 0.239546 0.909184 0.362884 -0.204204 0.977276 0.173821 -0.121318 0.695223 -0.459306 0.552904 0.667684 -0.561696 -0.488566 0.965715 -0.196457 -0.169702 0.94232 -0.153272 -0.297558 0.951659 0.06786 -0.299568 0.858216 -0.285234 -0.426741 0.906996 -0.361509 -0.216031 0.709623 -0.620563 -0.333672 0.689025 -0.636132 -0.347248 0.693314 -0.636636 -0.337653 0.551294 -0.696755 -0.458921 -0.704081 -0.606482 -0.369391 0.85784 0.13019 0.497153 -0.907918 -0.410658 -0.083931 -0.994681 0.013969 -0.102052 -0.947779 0.007497 -0.318841 -0.949881 -0.247404 -0.191097 -0.996084 0.028589 -0.083666 -0.981114 -0.006777 -0.193309 -0.74175 -0.64626 -0.179318 -0.97415 -0.20774 0.088749 -0.874703 -0.479673 0.069337 0.380442 0.004243 0.924795 -0.166002 -0.985636 -0.031066 -0.582247 -0.789038 -0.195976 -0.507911 -0.840515 -0.188576 -0.719403 -0.509261 0.472347 -0.565096 -0.569179 0.597245 -0.496076 0.020162 0.868045 -0.829132 -0.516742 -0.213346 -0.805528 -0.202788 -0.556778 -0.942545 -0.318932 -0.099457 -0.847225 -0.151128 -0.509284 -0.92935 -0.343992 -0.134083 -0.990296 0.018486 -0.137739 0.228281 -0.923563 -0.308089 0.008736 -0.958777 -0.284024 0.530178 -0.823948 -0.200051 -0.952398 -0.183541 0.243414 0.536353 -0.818014 -0.207797 0.420995 -0.896088 -0.140677 0.821386 -0.378612 0.426587 0.693726 -0.697956 -0.177769 0.899146 -0.366426 0.239306 0.707043 -0.680442 -0.192585 0.99837 -0.052499 -0.022371 0.983144 -0.082536 -0.163144 0.970019 0.239302 -0.042397 0.976461 0.21513 -0.015578 0.785027 0.60736 -0.121842 0.853039 0.338758 0.396949 0.525567 0.443264 0.726152 0.201922 -0.151581 0.967601 0.016686 0.795409 -0.605843 0.285248 0.849468 -0.44389 0.042325 0.626436 -0.778323 0.516597 -0.042295 -0.855183 -0.507252 0.756054 -0.413617 -0.509359 0.737491 -0.443465 -0.926974 0.130471 -0.351706 -0.998513 0.016295 -0.052013 -0.893419 0.404486 -0.19543 -0.9083 0.360554 -0.212111 -0.662362 0.73726 -0.133134 -0.363679 0.769422 0.525098 -0.766809 0.641103 -0.03149 -0.545087 0.817615 -0.185433 -0.849679 0.485817 -0.205006 -0.542012 0.813661 -0.210188 -0.524605 0.828536 -0.195747 -0.383938 0.869791 -0.309928 0.015656 0.947921 -0.318121 0.524241 0.823325 -0.217502 0.52225 0.828332 -0.202784 0.690566 0.715001 -0.10905 0.64014 0.768057 -0.017585 0.793483 0.575479 -0.198011 -0.36944 -0.921282 -0.121464 -0.372681 -0.914572 -0.157054 -0.448852 -0.882301 -0.141689 -0.543967 -0.837667 -0.049129 -0.889361 -0.453955 -0.054419 -0.933314 -0.341883 -0.109729 -0.97133 -0.229536 -0.061901 -0.973269 -0.225772 -0.042129 -0.992778 -0.071449 -0.096369 -0.9957 0.017401 -0.090986 -0.985465 0.084668 -0.147274 -0.938872 0.308118 -0.153564 -0.995953 0.037934 -0.081475 -0.938741 0.319821 -0.128375 -0.8796 0.469932 -0.07394 -0.998714 0.040026 -0.031127 -0.962589 0.269054 0.032117 -0.964692 -0.239386 0.109833 -0.507717 -0.84932 -0.144494 -0.17545 0.907567 -0.381497 -0.855505 0.51744 -0.019135 -0.922622 0.339018 -0.183945 -0.854743 0.482817 -0.190532 -0.701293 0.115443 -0.703463 -0.976904 0.160813 0.140707 0.484391 0.153822 0.861222 -0.894278 0.44693 0.022803 -0.505186 -0.832688 0.226754 0.72556 0.25445 0.639389 0.64486 0.676644 0.355399 0.651785 0.390551 0.650112 0.744467 0.240336 0.622902 -0.124931 -0.931535 0.34152 -0.045192 -0.899622 0.434324 0.703158 0.173146 0.68963 0.06814 -0.87689 0.475836 0.719296 0.146042 0.679179 -0.612947 -0.494353 -0.61637 -0.933859 -0.151589 -0.323926 0.341456 0.918023 0.201597 0.28079 0.883753 0.374351 -0.211866 0.974987 0.067188 -0.728523 -0.275856 -0.627023 -0.641545 -0.362933 -0.675796 -0.673817 -0.421932 -0.606584 -0.84663 0.503134 -0.17342 -0.629751 0.758352 -0.168272 -0.716176 0.69523 -0.061216 -0.696934 0.71641 -0.032241 -0.889395 0.443207 -0.111999 -0.364703 0.913705 -0.179261 -0.382453 0.90695 -0.176556 -0.373203 0.924643 -0.075863 -0.269725 0.961218 -0.057518 -0.999728 -0.022153 0.007254 -0.976322 -0.106656 0.188201 -0.948599 0.261113 -0.178831 -0.807559 0.437227 -0.395829 -0.028169 0.999446 -0.017717 0.952191 0.248558 -0.177627 0.999134 -0.025219 -0.033107 0.23185 0.970929 -0.059511 0.386385 0.917738 -0.091998 0.003037 -0.971662 -0.236353 0.162886 -0.97788 -0.131218 0.147218 -0.980044 -0.133571 0.917601 -0.359608 -0.169385 0.911267 -0.379769 -0.159276 -0.481552 0.202787 0.852634 0.946139 -0.286621 -0.150563 0.946521 -0.28575 -0.149817 -0.179057 -0.983511 0.025375 0.236117 -0.935436 -0.263075 0.12903 -0.972584 0.193473 -0.658058 0.285956 0.696555 -0.630201 0.24863 0.735548 -0.736175 0.247624 0.629864 -0.214702 0.906296 0.364049 -0.022444 0.983451 0.179777 -0.245016 0.931812 0.267757 -0.712833 0.397784 0.577614 -0.683692 0.500514 0.531085 0.990787 -0.010258 -0.13504 0.985302 -0.170538 0.009877 0.952528 0.255759 -0.165161 0.940656 0.315216 -0.125719 0.986601 -0.148323 -0.067958 0.9766 -0.175756 -0.123945 0.967792 -0.150225 -0.202017 0.983826 -0.073405 -0.163394 0.058115 0.968356 -0.242711 0.382932 0.903528 -0.192356 0.899726 0.215637 -0.379465 0.716469 0.375115 -0.588185 0.905353 0.38241 -0.184658 -0.712944 0.493848 0.49782 0.979547 0.19984 -0.023489 0.321317 -0.946351 0.034268 0.433648 0.711547 -0.552856 0.660945 -0.384025 -0.644729 0.661917 -0.386118 -0.642479 0.660964 0.054755 -0.748418 0.741231 -0.259842 -0.618917 0.505557 -0.855487 -0.112045 0.762726 -0.566546 -0.31189 0.470623 -0.881903 0.027593 0.85628 0.488945 -0.166486 -0.909221 -0.414545 0.038333 -0.887914 -0.459611 0.019147 -0.648182 -0.760272 0.04298 -0.543395 -0.838078 -0.048446 -0.604059 -0.791967 0.088892 -0.422311 -0.901994 0.089783 -0.720394 -0.679318 0.139856 -0.908598 -0.416635 0.029418 -0.957649 -0.257694 0.12846 -0.958716 -0.2748 0.073138 -0.995257 -0.095215 0.019963 -0.995117 -0.098686 0.001776 -0.972478 0.214041 0.092051 -0.972556 0.213877 0.091601 -0.181586 -0.976785 -0.113655 -0.242606 -0.969886 -0.021513 -0.187653 -0.981979 0.022431 0.015373 -0.999236 0.035927 -0.917501 0.397646 0.008354 -0.906885 0.413799 0.079567 -0.905698 0.423879 -0.006202 -0.767376 0.641015 0.015267 -0.540016 0.841098 -0.030629 -0.492497 0.867385 0.071342 -0.227399 0.966654 0.117769 -0.756928 0.646163 0.097645 -0.277218 0.958941 -0.059854 -0.995058 0.07931 0.059743 0.996996 0.058999 0.05019 0.233375 0.970529 -0.060083 0.261531 0.962038 0.078004 0.377523 0.921614 0.090018 0.577081 0.814609 0.058225 -0.184225 0.740395 0.646434 0.18662 -0.97601 -0.11215 0.217197 -0.975563 -0.033206 -0.795401 -0.606083 -0.001121 -0.279069 -0.796985 -0.535664 0.402051 -0.905176 -0.137881 0.516873 -0.852733 -0.075421 0.421197 -0.906962 -0.003488 0.89039 -0.451052 -0.061298 -0.791372 -0.570473 0.21975 0.941761 0.236782 -0.238788 0.72247 0.691402 0.00101 0.885529 -0.459622 -0.067714 0.898616 -0.438595 -0.011126 0.93296 -0.359785 0.011842 0.837265 -0.542739 0.066495 0.637253 -0.765113 0.092252 0.547421 -0.832398 0.086274 0.47336 -0.878221 0.068244 0.162261 -0.982797 0.08821 0.887028 -0.451709 0.095606 0.932782 -0.358242 0.039757 0.889399 -0.437342 0.133045 0.977871 -0.18616 0.095457 0.978373 -0.187274 0.087833 0.999915 -0.011391 -0.006337 0.969652 0.219219 0.108248 0.973638 0.209666 0.089833 0.978747 -0.199688 -0.046675 0.994537 0.008387 0.104046 0.958316 0.28447 -0.026596 0.962063 0.268611 -0.047787 0.891593 0.451879 0.02944 0.913116 0.407551 -0.011009 0.915728 0.401799 -0.000516 0.630078 0.754131 -0.18517 0.875084 0.470614 -0.112917 0.881592 0.455192 -0.124881 0.694056 0.715127 -0.082944 0.708785 0.69736 -0.106367 0.777737 0.628557 0.006414 0.494716 0.866344 -0.068592 0.769745 0.638222 0.012829 0.604407 0.796021 0.032288 0.966898 -0.172259 0.188242 -0.74423 -0.642827 0.181368 -0.730543 -0.617575 0.29139 -0.965682 -0.236225 0.107963 -0.980368 0.085214 0.177811 -0.80312 -0.569432 0.175343 -0.694136 -0.679295 0.238186 -0.427123 -0.878668 0.213326 -0.42386 -0.87967 0.215692 -0.995248 -0.069844 -0.067849 0.163194 -0.949793 -0.266947 0.998141 0.058746 -0.016214 -0.37235 -0.916117 0.148609 0.602792 -0.786684 0.133307 0.56681 -0.82273 -0.04291 0.653008 -0.751211 0.09624 0.140998 -0.983159 0.116262 0.633827 -0.766051 0.106908 0.450497 -0.817577 0.358637 0.823061 -0.492158 0.283462 0.648474 -0.720339 0.246158 0.776481 -0.592112 0.215592 0.851742 -0.5048 0.140405 0.936498 -0.302399 0.177555 0.983173 -0.10872 0.146804 0.980826 0.108893 0.161627 -0.968116 -0.02568 0.249184 -0.557283 -0.21385 0.802312 0.991251 0.121978 0.050424 -0.963232 -0.226948 0.143799 0.911312 -0.401245 0.092259 0.520241 -0.742359 0.4222 0.536086 -0.785737 0.308591 -0.652244 -0.714157 0.254083 0.249143 -0.695659 0.673785 -0.637311 -0.724411 0.262799 -0.603684 -0.720694 0.340831 -0.854413 -0.445349 0.267661 -0.869514 -0.438805 0.226705 -0.785329 -0.589871 -0.18791 0.465387 -0.817872 0.338378 0.695224 -0.680062 0.232763 0.692235 -0.654899 0.303179 0.724866 -0.635389 0.266177 0.777053 -0.584696 0.233065 0.926407 -0.322705 0.193986 -0.993083 0.010587 0.116934 -0.952329 0.272773 0.136614 -0.949131 0.29556 0.108607 -0.929773 0.321099 0.180051 -0.759052 0.622204 0.19158 -0.7219 0.669719 0.174173 -0.754092 0.649871 0.094941 -0.519188 0.830818 0.200462 -0.505812 0.837502 0.206745 -0.980978 0.176062 0.081752 -0.120301 0.991092 -0.057129 -0.160965 0.957085 -0.240993 -0.288367 0.952781 0.09515 0.986712 0.154169 0.0513 -0.987604 0.005115 0.15688 -0.98696 0.012399 0.160486 -0.929121 0.323817 0.178539 -0.829395 -0.500247 0.24871 -0.983549 0.050039 0.173571 -0.980385 -0.001883 0.197084 -0.938267 0.309821 0.153837 -0.758961 0.607866 0.233404 -0.677552 0.674364 0.293523 -0.462945 0.837693 0.289745 -0.441928 0.850538 0.285104 -0.996224 0.06601 0.056399 -0.982311 0.172172 0.07363 0.97918 0.170782 0.109729 0.91439 0.378839 0.142728 0.44023 0.852727 0.281166 0.505289 0.809775 0.298239 0.540011 0.81277 0.218615 0.627082 0.719187 0.299228 0.730488 0.642974 0.230158 0.73107 0.638951 0.239329 0.903092 0.373236 0.212413 0.913435 0.339072 0.225093 0.92359 0.340251 0.176665 0.974434 -0.11081 0.195445 0.985903 0.041995 0.161961 0.967108 -0.123398 0.222431 0.991089 0.027233 0.130385 0.948118 0.285218 0.140439 0.94501 0.309144 0.106708 0.911175 0.404392 0.078913 0.789047 0.608112 0.087202 0.721719 0.680991 0.123985 0.728811 0.676472 0.105926 0.521933 0.831848 0.188717 0.520345 0.831988 0.19245 0.802479 0.564985 0.191883 0.923504 0.340554 0.17653 -0.527605 -0.782153 0.331467 0.408464 -0.834545 0.369718 -0.000068 -0.999999 0.001295 -0.359378 -0.890549 0.278873 -0.878275 -0.456079 0.143612 -0.936742 0.217626 0.274142 -0.933385 0.239679 0.267109 -0.441355 0.892303 0.094872 -0.348807 0.925601 0.146958 -0.676701 0.677304 0.288677 -0.859574 0.440274 0.259404 0.053537 0.998527 0.008852 0.84779 0.431101 0.308874 0.011447 0.706186 0.707934 0.194481 0.942795 0.270767 0.619638 0.765504 0.173357 0.937736 0.29002 0.191154 0.838565 -0.47222 0.271692 0.865847 -0.485574 0.120526 -0.543924 -0.810189 -0.218497 -0.11779 -0.992135 0.042357 0.024671 -0.714584 -0.699114 -0.805693 -0.592178 -0.013535 -0.982778 0.098512 0.156343 -0.854936 -0.493412 0.160089 -0.96545 0.08554 0.24615 -0.953627 0.203779 0.221517 -0.95837 -0.17269 -0.227388 -0.881298 0.451426 -0.139747 -0.242442 0.713924 -0.656913 -0.463452 0.73421 -0.496133 0.553985 -0.824323 0.116588 0.684918 -0.423473 -0.592924 0.9944 -0.065851 0.082654 0.99734 -0.067485 0.027532 0.995838 0.063778 0.065105 0.996305 0.044952 0.073178 0.967513 -0.250055 -0.037307 0.184326 -0.85593 -0.483123 -0.525792 -0.600887 -0.602061 -0.4373 -0.615182 -0.655987 -0.977573 -0.140207 -0.157138 -0.998223 0.03776 0.046098 -0.994094 -0.107272 -0.016398 -0.011339 -0.695278 -0.718652 0.987636 -0.135419 -0.078974 0.961459 0.10673 0.25339 0.962218 0.029607 0.270666 0.970825 0.047243 0.235089 0.967183 0.058775 0.24719 0.931856 0.260647 0.252405 0.706796 0.511223 -0.48897 0.523786 0.849042 0.069115 -0.980383 0.056727 0.188765 -0.950369 0.213309 0.22649 -0.995857 -0.005049 0.090788 -0.973557 0.090865 0.209596 -0.976911 0.062685 0.204245 -0.933459 -0.354755 -0.052948 -0.972381 0.231864 0.026724 -0.015386 -0.585339 0.810643 -0.023129 0.205204 0.978446 0.950248 -0.308365 0.044049 0.977628 0.088823 0.190665 0.975593 0.097522 0.196744 0.958913 0.207688 0.193266 -0.254972 0.455271 0.853064 0.994858 0.007822 0.100972 -0.251146 0.451114 0.8564 0.992163 0.008018 0.12469 -0.99599 -0.004375 0.089363 -0.232595 0.694093 0.681274 -0.992445 0.030447 0.118855 -0.991482 -0.060316 0.115432 -0.979923 0.120625 0.158748 0.989985 -0.141151 0.002625 0.981231 0.176044 0.078701 0.988954 -0.040042 0.142713 -0.988124 -0.065279 0.1391 -0.989596 -0.041057 0.137894 -0.988865 -0.059609 0.136354 -0.99635 -0.078807 0.032805 0.994437 0.070996 -0.077807 0.990131 -0.031248 0.136618 0.983514 -0.091322 0.15608 -0.916733 -0.183126 0.355057 0.969855 -0.14429 0.196372 0.857102 0.370262 0.358165 0.993198 0.086987 -0.077399 0.020415 0.948484 -0.316165 0.369367 0.743512 -0.557456 -0.267477 0.738357 -0.6191 -0.994036 0.092219 -0.058206 -0.443717 -0.805285 -0.393232 0.796641 0.550539 0.24954</float_array>
          <technique_common>
            <accessor source="#Makrele-mesh-normals-array" count="496" stride="3">
              <param name="X" type="float"/>
              <param name="Y" type="float"/>
              <param name="Z" type="float"/>
            </accessor>
          </technique_common>
        </source>
        <source id="Makrele-mesh-map-0">
          <float_array id="Makrele-mesh-map-0-array" count="2976">0.9729 0.870117 0.999756 0.937988 0.952881 0.910645 0.9729 0.870117 0.952881 0.910645 0.818359 0.925049 0.999756 0.937988 0.9729 0.870117 0.993408 0.885742 0.993408 0.885742 0.9729 0.870117 0.988037 0.726318 0.967285 0.621582 0.969971 0.668213 0.895508 0.585205 0.895508 0.585205 0.969971 0.668213 0.910645 0.646729 0.895508 0.585205 0.910645 0.646729 0.777344 0.661865 0.967285 0.621582 0.895508 0.585205 0.946289 0.493164 0.946289 0.493164 0.895508 0.585205 0.946533 0.435059 0.946533 0.435059 0.895508 0.585205 0.933105 0.400635 0.469482 0.885986 0.357178 0.877197 0.387207 0.864014 0.341064 0.7854 0.376465 0.829102 0.387207 0.864014 0.341064 0.7854 0.387207 0.864014 0.342773 0.859131 0.342773 0.859131 0.387207 0.864014 0.357178 0.877197 0.341064 0.7854 0.342773 0.859131 0.311279 0.809326 0.342773 0.859131 0.357178 0.877197 0.335938 0.877197 0.342773 0.859131 0.335938 0.877197 0.311279 0.809326 0.335938 0.877197 0.357178 0.877197 0.340576 0.938232 0.311279 0.809326 0.335938 0.877197 0.296875 0.818604 0.296875 0.818604 0.335938 0.877197 0.28418 0.884277 0.28418 0.884277 0.335938 0.877197 0.280762 0.938721 0.296875 0.818604 0.28418 0.884277 0.261475 0.787354 0.261475 0.787354 0.28418 0.884277 0.250732 0.867676 0.095703 0.963867 0.070068 0.927002 0.101074 0.928711 0.101074 0.928711 0.070068 0.927002 0.10376 0.892334 0.095703 0.963867 0.101074 0.928711 0.130615 0.928711 0.130615 0.928711 0.101074 0.928711 0.10376 0.892334 0.095703 0.963867 0.130615 0.928711 0.155273 0.954834 0.130615 0.928711 0.10376 0.892334 0.155518 0.901611 0.130615 0.928711 0.155518 0.901611 0.155273 0.954834 0.602295 0.873047 0.619385 0.785645 0.628418 0.862061 0.619385 0.785645 0.602295 0.873047 0.585449 0.792236 0.585449 0.792236 0.602295 0.873047 0.540771 0.835205 0.509277 0.875977 0.423096 0.826904 0.540771 0.835205 0.540771 0.835205 0.423096 0.826904 0.50293 0.789062 0.585449 0.792236 0.540771 0.835205 0.538086 0.781982 0.538086 0.781982 0.540771 0.835205 0.50293 0.789062 0.585449 0.792236 0.538086 0.781982 0.560547 0.764893 0.538086 0.781982 0.50293 0.789062 0.530762 0.746582 0.538086 0.781982 0.530762 0.746582 0.560547 0.764893 0.530762 0.746582 0.50293 0.789062 0.499512 0.718018 0.530762 0.746582 0.499512 0.718018 0.520508 0.688477 0.560547 0.764893 0.530762 0.746582 0.584473 0.752197 0.560547 0.764893 0.584473 0.752197 0.585449 0.792236 0.584473 0.752197 0.530762 0.746582 0.520508 0.688477 0.585449 0.792236 0.584473 0.752197 0.619385 0.785645 0.584473 0.752197 0.520508 0.688477 0.588379 0.695068 0.584473 0.752197 0.588379 0.695068 0.61499 0.75293 0.584473 0.752197 0.61499 0.75293 0.619385 0.785645 0.61499 0.75293 0.588379 0.695068 0.634277 0.702393 0.61499 0.75293 0.634277 0.702393 0.638916 0.742188 0.61499 0.75293 0.638916 0.742188 0.619385 0.785645 0.619385 0.785645 0.638916 0.742188 0.682861 0.779785 0.459961 0.153809 0.431641 0.105225 0.468994 0.13623 0.468994 0.13623 0.431641 0.105225 0.495605 0.141846 0.468994 0.13623 0.495605 0.141846 0.459961 0.153809 0.459961 0.153809 0.495605 0.141846 0.464844 0.191162 0.459961 0.153809 0.464844 0.191162 0.431885 0.197021 0.431885 0.197021 0.464844 0.191162 0.446533 0.216064 0.464844 0.191162 0.495605 0.141846 0.490479 0.216797 0.490479 0.216797 0.495605 0.141846 0.544678 0.177734 0.495605 0.141846 0.431641 0.105225 0.508057 0.108398 0.544678 0.177734 0.495605 0.141846 0.524902 0.129883 0.524902 0.129883 0.495605 0.141846 0.508057 0.108398 0.544678 0.177734 0.524902 0.129883 0.55127 0.155762 0.508057 0.108398 0.431641 0.105225 0.420898 0.098633 0.508057 0.108398 0.420898 0.098633 0.510986 0.087646 0.510986 0.087646 0.420898 0.098633 0.447754 0.065918 0.524902 0.129883 0.508057 0.108398 0.527588 0.117432 0.527588 0.117432 0.508057 0.108398 0.510986 0.087646 0.524902 0.129883 0.527588 0.117432 0.55127 0.155762 0.527588 0.117432 0.510986 0.087646 0.568604 0.068604 0.55127 0.155762 0.527588 0.117432 0.559082 0.132568 0.559082 0.132568 0.527588 0.117432 0.568604 0.068604 0.55127 0.155762 0.559082 0.132568 0.57251 0.165039 0.559082 0.132568 0.568604 0.068604 0.599854 0.129883 0.559082 0.132568 0.599854 0.129883 0.591309 0.155762 0.416016 0.964844 0.350098 0.943359 0.428223 0.938965 0.428223 0.938965 0.350098 0.943359 0.360107 0.895264 0.197998 0.345215 0.245361 0.394531 0.1521 0.375 0.1521 0.375 0.245361 0.394531 0.213135 0.394287 0.197998 0.345215 0.1521 0.375 0.143799 0.360107 0.197998 0.345215 0.143799 0.360107 0.122559 0.302002 0.143799 0.360107 0.1521 0.375 0.118896 0.421875 0.1521 0.375 0.213135 0.394287 0.161133 0.399902 0.1521 0.375 0.161133 0.399902 0.118896 0.421875 0.161133 0.399902 0.213135 0.394287 0.187012 0.419434 0.161133 0.399902 0.187012 0.419434 0.151611 0.455811 0.161133 0.399902 0.151611 0.455811 0.118896 0.421875 0.118896 0.421875 0.151611 0.455811 0.116455 0.472656 0.116455 0.472656 0.151611 0.455811 0.14917 0.478027 0.116455 0.472656 0.14917 0.478027 0.155273 0.515137 0.118896 0.421875 0.116455 0.472656 0.113525 0.436768 0.113525 0.436768 0.116455 0.472656 0.107422 0.479736 0.118896 0.421875 0.113525 0.436768 0.095215 0.425049 0.255127 0.37207 0.365234 0.365967 0.297852 0.456543 0.297852 0.456543 0.365234 0.365967 0.397461 0.443115 0.255127 0.37207 0.297852 0.456543 0.250977 0.427246 0.250977 0.427246 0.297852 0.456543 0.263184 0.471436 0.365234 0.365967 0.255127 0.37207 0.348633 0.295166 0.365234 0.365967 0.348633 0.295166 0.394775 0.267578 0.348633 0.295166 0.255127 0.37207 0.286865 0.249756 0.627197 0.878662 0.622314 0.914551 0.605469 0.896729 0.622314 0.914551 0.627197 0.878662 0.664795 0.924805 0.664795 0.924805 0.627197 0.878662 0.641602 0.850342 0.664795 0.924805 0.641602 0.850342 0.684082 0.859619 0.684082 0.859619 0.641602 0.850342 0.644287 0.838379 0.684082 0.859619 0.644287 0.838379 0.645752 0.827637 0.664795 0.924805 0.684082 0.859619 0.712891 0.861084 0.684082 0.859619 0.645752 0.827637 0.687012 0.810791 0.684082 0.859619 0.687012 0.810791 0.712891 0.861084 0.712891 0.861084 0.687012 0.810791 0.723145 0.735596 0.064941 0.477539 0.011963 0.569092 0.009033 0.426758 0.08374 0.428955 0.08374 0.570068 0.05127 0.550537 0.450195 0.226562 0.449463 0.249268 0.378662 0.180908 0.449463 0.249268 0.450195 0.226562 0.605225 0.20874 0.378662 0.180908 0.449463 0.249268 0.404541 0.268799 0.404541 0.268799 0.449463 0.249268 0.415527 0.279541 0.415527 0.279541 0.449463 0.249268 0.37793 0.365479 0.858398 0.023438 0.908691 0.052979 0.859619 0.063477 0.858398 0.023438 0.859619 0.063477 0.756592 0.029785 0.237549 0.603027 0.231934 0.659912 0.195801 0.606201 0.237549 0.603027 0.195801 0.606201 0.183105 0.560303 0.237549 0.603027 0.183105 0.560303 0.201416 0.535645 0.237549 0.603027 0.201416 0.535645 0.278076 0.553223 0.278076 0.553223 0.201416 0.535645 0.235107 0.49707 0.235107 0.49707 0.201416 0.535645 0.185791 0.508301 0.278076 0.553223 0.235107 0.49707 0.292969 0.542236 0.292969 0.542236 0.235107 0.49707 0.290039 0.513916 0.292969 0.542236 0.290039 0.513916 0.320068 0.539307 0.320068 0.539307 0.290039 0.513916 0.317871 0.504395 0.290039 0.513916 0.235107 0.49707 0.257568 0.476074 0.290039 0.513916 0.257568 0.476074 0.317871 0.504395 0.317871 0.504395 0.257568 0.476074 0.333252 0.477051 0.257568 0.476074 0.235107 0.49707 0.225342 0.440186 0.257568 0.476074 0.225342 0.440186 0.229004 0.399902 0.667969 0.022705 0.654785 0.032959 0.645752 0.012451 0.654785 0.032959 0.667969 0.022705 0.71582 0.030518 0.654785 0.032959 0.71582 0.030518 0.653564 0.052002 0.654785 0.032959 0.653564 0.052002 0.60791 0.046631 0.60791 0.046631 0.653564 0.052002 0.639893 0.096436 0.60791 0.046631 0.639893 0.096436 0.590088 0.095459 0.654785 0.032959 0.60791 0.046631 0.626709 0.011475 0.626709 0.011475 0.60791 0.046631 0.596191 0.033203 0.626709 0.011475 0.596191 0.033203 0.610352 0.003418 0.610352 0.003418 0.596191 0.033203 0.553955 0.011475 0.553955 0.011475 0.596191 0.033203 0.584229 0.032715 0.543213 0.05957 0.549316 0.066895 0.497559 0.075684 0.543213 0.05957 0.497559 0.075684 0.525391 0.057129 0.525391 0.057129 0.497559 0.075684 0.458252 0.039307 0.458252 0.039307 0.497559 0.075684 0.431152 0.050049 0.458252 0.039307 0.431152 0.050049 0.429688 0.045898 0.458252 0.039307 0.429688 0.045898 0.470215 0.022217 0.525391 0.057129 0.458252 0.039307 0.503418 0.029297 0.503418 0.029297 0.458252 0.039307 0.470215 0.022217 0.525391 0.057129 0.503418 0.029297 0.523682 0.022461 0.523682 0.022461 0.503418 0.029297 0.470215 0.022217 0.39502 0.108398 0.39502 0.082275 0.402344 0.093262 0.405518 0.173828 0.358154 0.112793 0.365723 0.115234 0.365723 0.115234 0.358154 0.112793 0.389648 0.023193 0.389648 0.023193 0.358154 0.112793 0.384521 0.021973 0.384521 0.021973 0.358154 0.112793 0.355713 0.065918 0.355713 0.065918 0.358154 0.112793 0.289062 0.11499 0.289062 0.11499 0.358154 0.112793 0.285889 0.133301 0.955078 0.225586 0.976562 0.201416 0.995605 0.246582 0.995605 0.246582 0.976562 0.201416 0.987061 0.178711 0.987061 0.178711 0.976562 0.201416 0.954346 0.164307 0.987061 0.178711 0.954346 0.164307 0.958252 0.104004 0.954346 0.164307 0.976562 0.201416 0.921631 0.187744 0.662842 0.103516 0.773438 0.135742 0.76416 0.140625 0.773438 0.135742 0.662842 0.103516 0.771973 0.106934 0.773438 0.135742 0.771973 0.106934 0.851562 0.101318 0.773438 0.135742 0.851562 0.101318 0.806152 0.133057 0.773438 0.135742 0.806152 0.133057 0.812988 0.156982 0.812988 0.156982 0.806152 0.133057 0.826904 0.155518 0.773438 0.135742 0.812988 0.156982 0.79834 0.155518 0.773438 0.135742 0.79834 0.155518 0.76416 0.140625 0.79834 0.155518 0.812988 0.156982 0.809082 0.168701 0.79834 0.155518 0.809082 0.168701 0.76416 0.140625 0.76416 0.140625 0.809082 0.168701 0.778564 0.17627 0.76416 0.140625 0.778564 0.17627 0.774902 0.229248 0.76416 0.140625 0.774902 0.229248 0.745605 0.152832 0.048096 0.057373 0.05957 0.025146 0.093994 0.03833 0.048096 0.057373 0.093994 0.03833 0.049561 0.152588 0.049561 0.152588 0.093994 0.03833 0.099609 0.127686 0.773438 0.938721 0.739746 0.90918 0.811035 0.898193 0.811035 0.898193 0.739746 0.90918 0.734131 0.865479 0.734131 0.865479 0.739746 0.90918 0.727295 0.839355 0.477295 0.442383 0.506592 0.492676 0.462158 0.4729 0.477295 0.442383 0.462158 0.4729 0.445801 0.461426 0.445801 0.461426 0.462158 0.4729 0.441162 0.494629 0.441162 0.494629 0.462158 0.4729 0.443604 0.512939 0.441162 0.494629 0.443604 0.512939 0.418457 0.542969 0.441162 0.494629 0.418457 0.542969 0.39209 0.522217 0.441162 0.494629 0.39209 0.522217 0.445801 0.461426 0.39209 0.522217 0.418457 0.542969 0.383789 0.593018 0.39209 0.522217 0.383789 0.593018 0.374512 0.573975 0.39209 0.522217 0.374512 0.573975 0.381836 0.503906 0.39209 0.522217 0.381836 0.503906 0.378662 0.473877 0.39209 0.522217 0.378662 0.473877 0.405029 0.44458 0.39209 0.522217 0.405029 0.44458 0.445801 0.461426 0.445801 0.461426 0.405029 0.44458 0.447021 0.403076 0.445801 0.461426 0.447021 0.403076 0.477295 0.442383 0.447021 0.403076 0.405029 0.44458 0.384277 0.391846 0.447021 0.403076 0.384277 0.391846 0.438232 0.36792 0.477295 0.442383 0.447021 0.403076 0.507568 0.404785 0.507568 0.404785 0.447021 0.403076 0.4729 0.36084 0.472412 0.94165 0.479736 0.895508 0.509521 0.934814 0.479736 0.895508 0.472412 0.94165 0.46167 0.91748 0.032959 0.273438 0.053467 0.156982 0.058838 0.289551 0.036621 0.115234 0.036621 0.220459 0.008545 0.215576 0.277344 0.963623 0.259277 0.924805 0.275146 0.923828 0.275146 0.923828 0.259277 0.924805 0.254883 0.881592 0.259277 0.924805 0.277344 0.963623 0.223145 0.947998 0.254883 0.881592 0.259277 0.924805 0.244385 0.911865 0.244385 0.911865 0.259277 0.924805 0.223145 0.947998 0.340332 0.016357 0.365234 0.009521 0.329346 0.068359 0.329346 0.068359 0.365234 0.009521 0.35083 0.061523 0.340332 0.016357 0.329346 0.068359 0.294189 0.008057 0.294189 0.008057 0.329346 0.068359 0.278809 0.08374 0.294189 0.008057 0.278809 0.08374 0.276367 0.043701 0.278809 0.08374 0.329346 0.068359 0.279297 0.110596 0.276367 0.043701 0.278809 0.08374 0.268066 0.071045 0.278809 0.08374 0.279297 0.110596 0.268799 0.114746 0.278809 0.08374 0.268799 0.114746 0.268066 0.071045 0.162109 0.893311 0.196533 0.907227 0.189697 0.967773 0.11377 0.75415 0.189209 0.763184 0.143799 0.810059 0.189209 0.763184 0.11377 0.75415 0.129883 0.717041 0.189209 0.763184 0.129883 0.717041 0.175537 0.711182 0.175537 0.711182 0.129883 0.717041 0.115967 0.67041 0.189209 0.763184 0.175537 0.711182 0.286133 0.766113 0.286133 0.766113 0.175537 0.711182 0.280762 0.723633 0.189209 0.763184 0.286133 0.766113 0.229248 0.797852 0.189209 0.763184 0.229248 0.797852 0.143799 0.810059 0.143799 0.810059 0.229248 0.797852 0.19165 0.850098 0.19165 0.850098 0.229248 0.797852 0.251221 0.820312 0.143799 0.810059 0.19165 0.850098 0.141357 0.849854 0.143799 0.810059 0.141357 0.849854 0.104492 0.846924 0.141357 0.849854 0.19165 0.850098 0.169434 0.88916 0.169434 0.88916 0.19165 0.850098 0.213135 0.903809 0.416504 0.161621 0.394775 0.14624 0.412354 0.077148 0.062744 0.968506 0.044434 0.964844 0.057617 0.92334 0.057617 0.92334 0.044434 0.964844 0.000244 0.892578 0.000244 0.892578 0.044434 0.964844 0.001953 0.950684 0.181396 0.318604 0.198975 0.303955 0.245117 0.383057 0.198975 0.303955 0.181396 0.318604 0.113281 0.281982 0.245117 0.383057 0.198975 0.303955 0.258301 0.336426 0.258301 0.336426 0.198975 0.303955 0.231689 0.27417 0.754639 0.047363 0.836914 0.0625 0.743652 0.068115 0.754639 0.047363 0.743652 0.068115 0.674561 0.055176 0.754639 0.047363 0.674561 0.055176 0.748779 0.023438 0.674561 0.055176 0.743652 0.068115 0.720459 0.096436 0.177246 0.516602 0.163086 0.566406 0.149414 0.563232 0.177246 0.516602 0.149414 0.563232 0.147949 0.542725 0.147949 0.542725 0.149414 0.563232 0.112793 0.530273 0.112793 0.530273 0.149414 0.563232 0.128174 0.573975 0.128174 0.573975 0.149414 0.563232 0.178711 0.693115 0.128174 0.573975 0.178711 0.693115 0.128906 0.67041 0.128174 0.573975 0.128906 0.67041 0.114014 0.621826 0.581543 0.868408 0.594482 0.87793 0.589111 0.883789 0.670166 0.95874 0.675537 0.928467 0.699219 0.924805 0.699219 0.924805 0.675537 0.928467 0.702881 0.885254 0.675537 0.928467 0.670166 0.95874 0.634766 0.935303 0.634766 0.935303 0.670166 0.95874 0.647217 0.948975 0.000488 0.320312 0.000488 0.210205 0.015625 0.25415 0.244141 0.883301 0.229004 0.924805 0.221191 0.855713 0.244141 0.883301 0.221191 0.855713 0.245361 0.830566 0.439941 0.933838 0.366699 0.891602 0.473389 0.890381 0.02832 0.00708 0.035889 0.101807 0.023193 0.083008 0.023193 0.083008 0.035889 0.101807 0 0.089844 0.023193 0.083008 0 0.089844 0.02832 0.00708 0.081787 0.253418 0.111084 0.261963 0.064209 0.280273 0.111084 0.261963 0.081787 0.253418 0.11377 0.226318 0.11377 0.226318 0.081787 0.253418 0.091797 0.209229 0.111084 0.261963 0.11377 0.226318 0.148926 0.203857 0.111084 0.261963 0.148926 0.203857 0.168457 0.204834 0.111084 0.261963 0.168457 0.204834 0.190674 0.20874 0.111084 0.261963 0.190674 0.20874 0.147217 0.276123 0.147217 0.276123 0.190674 0.20874 0.20166 0.241455 0.148926 0.203857 0.11377 0.226318 0.119873 0.193848 0.119873 0.193848 0.11377 0.226318 0.091797 0.209229 0.148926 0.203857 0.119873 0.193848 0.134277 0.175537 0.134277 0.175537 0.119873 0.193848 0.107666 0.170898 0.107666 0.170898 0.119873 0.193848 0.091797 0.209229 0.107666 0.170898 0.091797 0.209229 0.07251 0.183838 0.107666 0.170898 0.07251 0.183838 0.082031 0.164062 0.107666 0.170898 0.082031 0.164062 0.09668 0.140381 0.506104 0.918213 0.483643 0.888672 0.525879 0.887939 0.506104 0.918213 0.525879 0.887939 0.543213 0.913086 0.543213 0.913086 0.525879 0.887939 0.55127 0.863281 0.55127 0.863281 0.525879 0.887939 0.537598 0.851562 0.543213 0.913086 0.55127 0.863281 0.577148 0.865967 0.543213 0.913086 0.577148 0.865967 0.577148 0.933594 0.543213 0.913086 0.577148 0.933594 0.558594 0.933838 0.307617 0.594238 0.369141 0.526855 0.320068 0.616699 0.269531 0.575195 0.307617 0.594238 0.266113 0.619141 0.266113 0.619141 0.307617 0.594238 0.292969 0.636475 0.292969 0.636475 0.307617 0.594238 0.320068 0.616699 0.292969 0.636475 0.320068 0.616699 0.302734 0.662109 0.292969 0.636475 0.302734 0.662109 0.280273 0.710205 0.302734 0.662109 0.320068 0.616699 0.312012 0.694824 0.280273 0.710205 0.302734 0.662109 0.295654 0.729004 0.295654 0.729004 0.302734 0.662109 0.312012 0.694824 0.929932 0.094482 0.916748 0.098877 0.915283 0.066895 0.799316 0.498779 0.798828 0.433594 0.830566 0.443848 0.798828 0.433594 0.799316 0.498779 0.718994 0.423584 0.798828 0.433594 0.718994 0.423584 0.79541 0.345215 0.79541 0.345215 0.718994 0.423584 0.728027 0.328857 0.718994 0.423584 0.799316 0.498779 0.655762 0.495361 0.655762 0.495361 0.799316 0.498779 0.718018 0.54834 0.718018 0.54834 0.799316 0.498779 0.776611 0.562256 0.718018 0.54834 0.776611 0.562256 0.702393 0.580078 0.702393 0.580078 0.776611 0.562256 0.723389 0.62207 0.723389 0.62207 0.776611 0.562256 0.726562 0.629639 0.726562 0.629639 0.776611 0.562256 0.771484 0.610107 0.776611 0.562256 0.799316 0.498779 0.830811 0.523193 0.771484 0.610107 0.776611 0.562256 0.790527 0.628174 0.776611 0.562256 0.830811 0.523193 0.787109 0.565186 0.776611 0.562256 0.787109 0.565186 0.790527 0.628174 0.787109 0.565186 0.830811 0.523193 0.820312 0.564941 0.790527 0.628174 0.787109 0.565186 0.814941 0.630127 0.814941 0.630127 0.787109 0.565186 0.820312 0.564941 0.197266 0.099609 0.238037 0.058105 0.252441 0.080078 0.246094 0.025146 0.238037 0.058105 0.172852 0.000244 0.172852 0.000244 0.238037 0.058105 0.152832 0.033691 0.152832 0.033691 0.238037 0.058105 0.197266 0.099609 0.152832 0.033691 0.197266 0.099609 0.104248 0.034912 0.104248 0.034912 0.197266 0.099609 0.18042 0.168457 0.104248 0.034912 0.18042 0.168457 0.109619 0.158447 0.831299 0.37085 0.806641 0.358398 0.834473 0.342285 0.834473 0.342285 0.806641 0.358398 0.804443 0.352783 0.834473 0.342285 0.804443 0.352783 0.797119 0.330566 0.831299 0.37085 0.834473 0.342285 0.877441 0.33667 0.834473 0.342285 0.797119 0.330566 0.890137 0.317383 0.834473 0.342285 0.890137 0.317383 0.877441 0.33667 0.890137 0.317383 0.797119 0.330566 0.809326 0.299316 0.831299 0.37085 0.877441 0.33667 0.94751 0.358643 0.94751 0.358643 0.877441 0.33667 0.890137 0.317383 0.831299 0.37085 0.94751 0.358643 0.864746 0.431396 0.831299 0.37085 0.864746 0.431396 0.820557 0.395508 0.864746 0.431396 0.94751 0.358643 0.891357 0.445068 0.864746 0.431396 0.891357 0.445068 0.87207 0.496094 0.94751 0.358643 0.890137 0.317383 0.915771 0.318604 0.915771 0.318604 0.890137 0.317383 0.969727 0.261719 0.969727 0.261719 0.890137 0.317383 0.882568 0.249756 0.882568 0.249756 0.890137 0.317383 0.809326 0.299316 0.882568 0.249756 0.809326 0.299316 0.786133 0.268555 0.882568 0.249756 0.786133 0.268555 0.780518 0.231689 0.882568 0.249756 0.780518 0.231689 0.824219 0.211182 0.197266 0.268066 0.218994 0.236084 0.254639 0.263916 0.254639 0.263916 0.218994 0.236084 0.27002 0.231689 0.254639 0.263916 0.27002 0.231689 0.266357 0.307373 0.27002 0.231689 0.218994 0.236084 0.183105 0.181641 0.27002 0.231689 0.183105 0.181641 0.19043 0.154053 0.27002 0.231689 0.19043 0.154053 0.304932 0.190186 0.27002 0.231689 0.304932 0.190186 0.32666 0.226562 0.304932 0.190186 0.19043 0.154053 0.272217 0.145996 0.272217 0.145996 0.19043 0.154053 0.220215 0.125488 0.272217 0.145996 0.220215 0.125488 0.240723 0.114258 0.304932 0.190186 0.272217 0.145996 0.281738 0.138184 0.281738 0.138184 0.272217 0.145996 0.240723 0.114258 0.304932 0.190186 0.281738 0.138184 0.384277 0.158447 0.281738 0.138184 0.240723 0.114258 0.245361 0.099365 0.561035 0.373535 0.495605 0.37085 0.508545 0.322998 0.495605 0.37085 0.561035 0.373535 0.562744 0.401367 0.495605 0.37085 0.562744 0.401367 0.529053 0.425537 0.642334 0.352295 0.647705 0.396729 0.561035 0.373535 0.561035 0.373535 0.647705 0.396729 0.630615 0.422852 0.561035 0.373535 0.630615 0.422852 0.562744 0.401367 0.562744 0.401367 0.630615 0.422852 0.529053 0.425537 0.529053 0.425537 0.630615 0.422852 0.538818 0.46167 0.538818 0.46167 0.630615 0.422852 0.64624 0.47876 0.538818 0.46167 0.64624 0.47876 0.638916 0.494873 0.538818 0.46167 0.638916 0.494873 0.508057 0.50293 0.508057 0.50293 0.638916 0.494873 0.568604 0.513428 0.508057 0.50293 0.568604 0.513428 0.499512 0.536621 0.499512 0.536621 0.568604 0.513428 0.522217 0.562012 0.522217 0.562012 0.568604 0.513428 0.638916 0.494873 0.522217 0.562012 0.638916 0.494873 0.593018 0.560303 0.593018 0.560303 0.638916 0.494873 0.654053 0.503418 0.522217 0.562012 0.593018 0.560303 0.516602 0.617676 0.593018 0.560303 0.654053 0.503418 0.672119 0.535889 0.516602 0.617676 0.593018 0.560303 0.61084 0.600586 0.61084 0.600586 0.593018 0.560303 0.672119 0.535889 0.61084 0.600586 0.672119 0.535889 0.656006 0.595459 0.656006 0.595459 0.672119 0.535889 0.703125 0.547363 0.61084 0.600586 0.656006 0.595459 0.630615 0.664551 0.656006 0.595459 0.703125 0.547363 0.686035 0.624268 0.630615 0.664551 0.656006 0.595459 0.668701 0.667969 0.668701 0.667969 0.656006 0.595459 0.686035 0.624268 0.957275 0.363281 0.998779 0.419922 0.982178 0.449463 0.998779 0.419922 0.957275 0.363281 0.993652 0.360596 0.993652 0.360596 0.957275 0.363281 0.931396 0.313721 0.315918 0.952393 0.331787 0.892578 0.335449 0.955566 0.331787 0.892578 0.315918 0.952393 0.299805 0.939453 0.099854 0.850586 0.157471 0.895264 0.105469 0.886475 0.099854 0.850586 0.105469 0.886475 0.056152 0.860352 0.056152 0.860352 0.105469 0.886475 0.05957 0.897949 0.056152 0.860352 0.05957 0.897949 0.02124 0.896973 0.099854 0.850586 0.056152 0.860352 0.028564 0.787598 0.099854 0.850586 0.028564 0.787598 0.085205 0.787354 0.653809 0.730713 0.724121 0.653076 0.702637 0.729248 0.724121 0.653076 0.653809 0.730713 0.679932 0.658203 0.724121 0.653076 0.679932 0.658203 0.705322 0.623535 0.702637 0.729248 0.724121 0.653076 0.757568 0.664307 0.702637 0.729248 0.757568 0.664307 0.748291 0.732178 0.748291 0.732178 0.757568 0.664307 0.80249 0.670654 0.748291 0.732178 0.80249 0.670654 0.77124 0.763184 0.77124 0.763184 0.80249 0.670654 0.841553 0.689941 0.841553 0.689941 0.80249 0.670654 0.822754 0.663574 0.77124 0.763184 0.841553 0.689941 0.821289 0.743896 0.821289 0.743896 0.841553 0.689941 0.837891 0.715576 0.821289 0.743896 0.837891 0.715576 0.846191 0.748047 0.846191 0.748047 0.837891 0.715576 0.841553 0.689941 0.821289 0.743896 0.846191 0.748047 0.834717 0.758789 0.846191 0.748047 0.841553 0.689941 0.875488 0.679688 0.846191 0.748047 0.875488 0.679688 0.881104 0.76416 0.881104 0.76416 0.875488 0.679688 0.903564 0.727051 0.951416 0.366943 0.981689 0.474609 0.951416 0.478027 0.951416 0.478027 0.981689 0.474609 0.96582 0.578125 0.045654 0.330078 0.000488 0.354004 0.007324 0.315674 0.045654 0.330078 0.007324 0.315674 0.03833 0.288818 0.045654 0.330078 0.03833 0.288818 0.069336 0.299316 0.045654 0.330078 0.069336 0.299316 0.11499 0.317139 0.045654 0.330078 0.11499 0.317139 0.131348 0.343506 0.045654 0.330078 0.131348 0.343506 0.000488 0.354004 0.000488 0.354004 0.131348 0.343506 0.116943 0.379395 0.000488 0.354004 0.116943 0.379395 0.058105 0.426025 0.058105 0.426025 0.116943 0.379395 0.105713 0.417236 0.000488 0.354004 0.058105 0.426025 0.024658 0.399658 0.024658 0.399658 0.058105 0.426025 0.059814 0.447266 0.024658 0.399658 0.059814 0.447266 0.014404 0.423096 0.054688 0.582031 0.046631 0.673096 0.040283 0.533691 0.868652 0.17627 0.950928 0.137695 0.907715 0.179443 0.960693 0.255615 0.925781 0.225342 0.907715 0.179443 0.907715 0.179443 0.925781 0.225342 0.866699 0.213623 0.907715 0.179443 0.866699 0.213623 0.868652 0.17627 0.868652 0.17627 0.866699 0.213623 0.783691 0.19751 0.868652 0.17627 0.783691 0.19751 0.783691 0.18335 0.868652 0.17627 0.783691 0.18335 0.838135 0.16626 0.900879 0.147705 0.950928 0.137695 0.868652 0.17627 0.900879 0.147705 0.868652 0.17627 0.838135 0.16626 0.950928 0.137695 0.900879 0.147705 0.934814 0.10083 0.900879 0.147705 0.838135 0.16626 0.841064 0.118408 0.900879 0.147705 0.841064 0.118408 0.934814 0.10083 0.993896 0.150635 0.936523 0.055908 0.946289 0.019287 0.993896 0.150635 0.946289 0.019287 0.995605 0.029297 0.449463 0.531494 0.483887 0.605957 0.450684 0.579102 0.450684 0.579102 0.483887 0.605957 0.456055 0.62085 0.456055 0.62085 0.483887 0.605957 0.506592 0.683105 0.506592 0.683105 0.483887 0.605957 0.628174 0.688477 0.456055 0.62085 0.506592 0.683105 0.447754 0.69751 0.447754 0.69751 0.506592 0.683105 0.468506 0.721191 0.468506 0.721191 0.506592 0.683105 0.448975 0.76416 0.941162 0.872559 0.885986 0.81958 0.94458 0.846436 0.885986 0.81958 0.941162 0.872559 0.844482 0.834229 0.844482 0.834229 0.941162 0.872559 0.831055 0.859863 0.94458 0.846436 0.885986 0.81958 0.911133 0.812744 0.94458 0.846436 0.911133 0.812744 0.970703 0.844971 0.970703 0.844971 0.911133 0.812744 0.940186 0.80835 0.970703 0.844971 0.940186 0.80835 0.969727 0.784912 0.969727 0.784912 0.940186 0.80835 0.930176 0.792236 0.930176 0.792236 0.940186 0.80835 0.911133 0.812744 0.930176 0.792236 0.911133 0.812744 0.925537 0.760498 0.925537 0.760498 0.911133 0.812744 0.885986 0.81958 0.925537 0.760498 0.885986 0.81958 0.884277 0.768799 0.884277 0.768799 0.885986 0.81958 0.848145 0.825684 0.848145 0.825684 0.885986 0.81958 0.844482 0.834229 0.884277 0.768799 0.848145 0.825684 0.819824 0.82373 0.848145 0.825684 0.844482 0.834229 0.776123 0.848877 0.848145 0.825684 0.776123 0.848877 0.819824 0.82373 0.776123 0.848877 0.844482 0.834229 0.831055 0.859863 0.819824 0.82373 0.776123 0.848877 0.754883 0.853516 0.776123 0.848877 0.831055 0.859863 0.797852 0.875977 0.776123 0.848877 0.797852 0.875977 0.754883 0.853516 0.754883 0.853516 0.797852 0.875977 0.747559 0.864502 0.707764 0.426514 0.681396 0.425293 0.706055 0.377197 0.706055 0.377197 0.681396 0.425293 0.681641 0.314453 0.681641 0.314453 0.681396 0.425293 0.621826 0.287842 0.681641 0.314453 0.621826 0.287842 0.751465 0.227295 0.681641 0.314453 0.751465 0.227295 0.77417 0.241699 0.751465 0.227295 0.621826 0.287842 0.568604 0.226807 0.568604 0.226807 0.621826 0.287842 0.524414 0.23584 0.325684 0.620361 0.387207 0.619141 0.35498 0.668213 0.325684 0.620361 0.35498 0.668213 0.319092 0.758301 0.319092 0.758301 0.35498 0.668213 0.388672 0.799072 0.319092 0.758301 0.388672 0.799072 0.404053 0.828613 0.388672 0.799072 0.35498 0.668213 0.414062 0.780273 0.388672 0.799072 0.414062 0.780273 0.404053 0.828613 0.414062 0.780273 0.35498 0.668213 0.387207 0.619141 0.404053 0.828613 0.414062 0.780273 0.440186 0.779541 0.440186 0.779541 0.414062 0.780273 0.387207 0.619141 0.440186 0.779541 0.387207 0.619141 0.401611 0.606934 0.440186 0.779541 0.401611 0.606934 0.446289 0.610107 0.000732 0.096436 0.025635 0.131836 0.000244 0.195312 0.705566 0.9104 0.722168 0.848389 0.726074 0.919922</float_array>
          <technique_common>
            <accessor source="#Makrele-mesh-map-0-array" count="1488" stride="2">
              <param name="S" type="float"/>
              <param name="T" type="float"/>
            </accessor>
          </technique_common>
        </source>
        <vertices id="Makrele-mesh-vertices">
          <input semantic="POSITION" source="#Makrele-mesh-positions"/>
        </vertices>
        <polylist material="Material_-1-material" count="6">
          <input semantic="VERTEX" source="#Makrele-mesh-vertices" offset="0"/>
          <input semantic="NORMAL" source="#Makrele-mesh-normals" offset="1"/>
          <input semantic="TEXCOORD" source="#Makrele-mesh-map-0" offset="2" set="0"/>
          <vcount>3 3 3 3 3 3 3 3 3 3 3 3 3 3 3 3 3 3 3 3 3 3 3 3 3 3 3 3 3 3 3 3 3 3 3 3 3 3 3 3 3 3 3 3 3 3 3 3 3 3 3 3 3 3 3 3 3 3 3 3 3 3 3 3 3 3 3 3 3 3 3 3 3 3 3 3 3 3 3 3 3 3 3 3 3 3 3 3 3 3 3 3 3 3 3 3 3 3 3 3 3 3 3 3 3 3 3 3 3 3 3 3 3 3 3 3 3 3 3 3 3 3 3 3 3 3 3 3 3 3 3 3 3 3 3 3 3 3 3 3 3 3 3 3 3 3 3 3 3 3 3 3 3 3 3 3 3 3 3 3 3 3 3 3 3 3 3 3 3 3 3 3 3 3 3 3 3 3 3 3 3 3 3 3 3 3 3 3 3 3 3 3 3 3 3 3 3 3 3 3 3 3 3 3 3 3 3 3 3 3 3 3 3 3 3 3 3 3 3 3 3 3 3 3 3 3 3 3 3 3 3 3 3 3 3 3 3 3 3 3 3 3 3 3 3 3 3 3 3 3 3 3 3 3 3 3 3 3 3 3 3 3 3 3 3 3 3 3 3 3 3 3 3 3 3 3 3 3 3 3 3 3 3 3 3 3 3 3 3 3 3 3 3 3 3 3 3 3 3 3 3 3 3 3 3 3 3 3 3 3 3 3 3 3 3 3 3 3 3 3 3 3 3 3 3 3 3 3 3 3 3 3 3 3 3 3 3 3 3 3 3 3 3 3 3 3 3 3 3 3 3 3 3 3 3 3 3 3 3 3 3 3 3 3 3 3 3 3 3 3 3 3 3 3 3 3 3 3 3 3 3 3 3 3 3 3 3 3 3 3 3 3 3 3 3 3 3 3 3 3 3 3 3 3 3 3 3 3 3 3 3 3 3 3 3 3 3 3 3 3 3 3 3 3 3 3 3 3 3 3 3 3 3 3 3 3 3 3 3 3 3 3 3 3 3 3 3 3 3 3 3 3 3 3 3 3 3 3 3 3 3 3 3 3 3 3 3 3 3 3 3 3 3 3 3 3 3 3 3 3 3 3 3 3 3 3 3 3 3 3 3 3 3 3 3 3</vcount>
          <p>0 0 0 1 0 1 2 0 2 0 1 3 2 1 4 3 1 5 1 2 6 0 2 7 4 2 8 4 3 9 0 3 10 5 3 11 2 4 12 1 4 13 6 4 14 6 5 15 1 5 16 7 5 17 6 6 18 7 6 19 8 6 20 2 7 21 6 7 22 9 7 23 9 8 24 6 8 25 10 8 26 10 9 27 6 9 28 11 9 29 4 10 30 5 10 31 12 10 32 13 11 33 14 11 34 12 11 35 13 12 36 12 12 37 15 12 38 15 13 39 12 13 40 5 13 41 13 14 42 15 14 43 16 14 44 15 15 45 5 15 46 3 15 47 15 16 48 3 16 49 16 16 50 3 17 51 5 17 52 0 17 53 16 18 54 3 18 55 17 18 56 17 19 57 3 19 58 9 19 59 9 20 60 3 20 61 2 20 62 17 21 63 9 21 64 18 21 65 18 22 66 9 22 67 10 22 68 12 23 69 14 23 70 19 23 71 19 24 72 14 24 73 20 24 74 12 25 75 19 25 76 21 25 77 21 26 78 19 26 79 20 26 80 12 27 81 21 27 82 22 27 83 21 28 84 20 28 85 23 28 86 21 29 87 23 29 88 22 29 89 24 30 90 8 30 91 7 30 92 8 31 93 24 31 94 25 31 95 25 32 96 24 32 97 26 32 98 27 33 99 28 33 100 26 33 101 26 34 102 28 34 103 29 34 104 25 35 105 26 35 106 30 35 107 30 36 108 26 36 109 29 36 110 25 37 111 30 37 112 31 37 113 30 38 114 29 38 115 32 38 116 30 39 117 32 39 118 31 39 119 32 40 120 29 40 121 33 40 122 32 41 123 33 41 124 34 41 125 31 42 126 32 42 127 35 42 128 31 43 129 35 43 130 25 43 131 35 44 132 32 44 133 34 44 134 25 45 135 35 45 136 8 45 137 35 46 138 34 46 139 36 46 140 35 47 141 36 47 142 37 47 143 35 48 144 37 48 145 8 48 146 37 49 147 36 49 148 38 49 149 37 50 150 38 50 151 11 50 152 37 51 153 11 51 154 8 51 155 8 52 156 11 52 157 6 52 158 13 53 159 16 53 160 39 53 161 39 54 162 16 54 163 40 54 164 39 55 165 40 55 166 13 55 167 13 56 168 40 56 169 41 56 170 13 57 171 41 57 172 14 57 173 14 58 174 41 58 175 20 58 176 41 59 177 40 59 178 42 59 179 42 60 180 40 60 181 43 60 182 40 61 183 16 61 184 44 61 185 43 62 186 40 62 187 45 62 188 45 63 189 40 63 190 44 63 191 43 64 192 45 64 193 46 64 194 44 65 195 16 65 196 17 65 197 44 66 198 17 66 199 47 66 200 47 67 201 17 67 202 18 67 203 45 68 204 44 68 205 48 68 206 48 69 207 44 69 208 47 69 209 45 70 210 48 70 211 46 70 212 48 71 213 47 71 214 49 71 215 46 72 216 48 72 217 50 72 218 50 73 219 48 73 220 49 73 221 46 74 222 50 74 223 51 74 224 50 75 225 49 75 226 52 75 227 50 76 228 52 76 229 53 76 230 11 77 231 54 77 232 10 77 233 10 78 234 54 78 235 18 78 236 54 79 237 11 79 238 55 79 239 55 80 240 11 80 241 38 80 242 54 81 243 55 81 244 56 81 245 54 82 246 56 82 247 57 82 248 56 83 249 55 83 250 58 83 251 55 84 252 38 84 253 59 84 254 55 85 255 59 85 256 58 85 257 59 86 258 38 86 259 36 86 260 59 87 261 36 87 262 34 87 263 59 88 264 34 88 265 58 88 266 58 89 267 34 89 268 60 89 269 60 90 270 34 90 271 33 90 272 60 91 273 33 91 274 29 91 275 58 92 276 60 92 277 61 92 278 61 93 279 60 93 280 62 93 281 58 94 282 61 94 283 63 94 284 4 95 285 27 95 286 24 95 287 24 96 288 27 96 289 26 96 290 4 97 291 24 97 292 1 97 293 1 98 294 24 98 295 7 98 296 27 99 297 4 99 298 22 99 299 27 100 300 22 100 301 23 100 302 22 101 303 4 101 304 12 101 305 42 102 306 20 102 307 41 102 308 20 103 309 42 103 310 23 103 311 23 104 312 42 104 313 64 104 314 23 105 315 64 105 316 65 105 317 65 106 318 64 106 319 66 106 320 65 107 321 66 107 322 67 107 323 23 108 324 65 108 325 68 108 326 65 109 327 67 109 328 69 109 329 65 110 330 69 110 331 68 110 332 68 111 333 69 111 334 70 111 335 23 112 336 68 112 337 27 112 338 27 113 339 68 113 340 28 113 341 28 114 342 71 114 343 29 114 344 71 115 345 28 115 346 72 115 347 29 116 348 71 116 349 60 116 350 60 117 351 71 117 352 62 117 353 62 118 354 71 118 355 73 118 356 47 119 357 18 119 358 74 119 359 47 120 360 74 120 361 75 120 362 49 121 363 47 121 364 75 121 365 49 122 366 75 122 367 76 122 368 49 123 369 76 123 370 77 123 371 49 124 372 77 124 373 52 124 374 52 125 375 77 125 376 78 125 377 78 126 378 77 126 379 79 126 380 52 127 381 78 127 382 80 127 383 80 128 384 78 128 385 81 128 386 80 129 387 81 129 388 82 129 389 82 130 390 81 130 391 83 130 392 81 131 393 78 131 394 84 131 395 81 132 396 84 132 397 83 132 398 83 133 399 84 133 400 85 133 401 84 134 402 78 134 403 86 134 404 84 135 405 86 135 406 87 135 407 53 136 408 51 136 409 50 136 410 51 137 411 53 137 412 88 137 413 51 138 414 88 138 415 82 138 416 51 139 417 82 139 418 67 139 419 67 140 420 82 140 421 83 140 422 67 141 423 83 141 424 69 141 425 51 142 426 67 142 427 46 142 428 46 143 429 67 143 430 66 143 431 46 144 432 66 144 433 43 144 434 43 145 435 66 145 436 42 145 437 42 146 438 66 146 439 64 146 440 89 147 441 82 147 442 90 147 443 89 148 444 90 148 445 80 148 446 80 149 447 90 149 448 91 149 449 91 150 450 90 150 451 92 150 452 91 151 453 92 151 454 93 151 455 91 152 456 93 152 457 94 152 458 80 153 459 91 153 460 95 153 461 95 154 462 91 154 463 94 154 464 80 155 465 95 155 466 52 155 467 52 156 468 95 156 469 94 156 470 80 157 471 82 157 472 89 157 473 82 158 474 88 158 475 90 158 476 90 159 477 88 159 478 92 159 479 92 160 480 88 160 481 93 160 482 93 161 483 88 161 484 94 161 485 94 162 486 88 162 487 52 162 488 52 163 489 88 163 490 53 163 491 83 164 492 85 164 493 69 164 494 69 165 495 85 165 496 70 165 497 70 166 498 85 166 499 96 166 500 70 167 501 96 167 502 97 167 503 96 168 504 85 168 505 84 168 506 68 169 507 98 169 508 99 169 509 98 170 510 68 170 511 70 170 512 98 171 513 70 171 514 100 171 515 98 172 516 100 172 517 101 172 518 98 173 519 101 173 520 102 173 521 102 174 522 101 174 523 103 174 524 98 175 525 102 175 526 104 175 527 98 176 528 104 176 529 99 176 530 104 177 531 102 177 532 105 177 533 104 178 534 105 178 535 99 178 536 99 179 537 105 179 538 106 179 539 99 180 540 106 180 541 107 180 542 99 181 543 107 181 544 72 181 545 74 182 546 18 182 547 54 182 548 74 183 549 54 183 550 108 183 551 108 184 552 54 184 553 57 184 554 109 185 555 56 185 556 110 185 557 110 186 558 56 186 559 63 186 560 63 187 561 56 187 562 58 187 563 110 188 564 63 188 565 111 188 566 110 189 567 111 189 568 112 189 569 112 190 570 111 190 571 113 190 572 113 191 573 111 191 574 114 191 575 113 192 576 114 192 577 115 192 578 113 193 579 115 193 580 116 193 581 113 194 582 116 194 583 112 194 584 116 195 585 115 195 586 117 195 587 116 196 588 117 196 589 118 196 590 116 197 591 118 197 592 119 197 593 116 198 594 119 198 595 120 198 596 116 199 597 120 199 598 121 199 599 116 200 600 121 200 601 112 200 602 112 201 603 121 201 604 122 201 605 112 202 606 122 202 607 110 202 608 122 203 609 121 203 610 123 203 611 122 204 612 123 204 613 124 204 614 110 205 615 122 205 616 125 205 617 125 206 618 122 206 619 126 206 620 61 207 621 111 207 622 63 207 623 111 208 624 61 208 625 127 208 626 68 209 627 99 209 628 28 209 629 28 210 630 99 210 631 72 210 632 62 211 633 128 211 634 61 211 635 61 212 636 128 212 637 120 212 638 128 213 639 62 213 640 123 213 641 120 214 642 128 214 643 121 214 644 121 215 645 128 215 646 123 215 647 127 216 648 61 216 649 119 216 650 119 217 651 61 217 652 120 217 653 127 218 654 119 218 655 111 218 656 111 219 657 119 219 658 129 219 659 111 220 660 129 220 661 114 220 662 129 221 663 119 221 664 118 221 665 114 222 666 129 222 667 115 222 668 129 223 669 118 223 670 117 223 671 129 224 672 117 224 673 115 224 674 73 225 675 123 225 676 62 225 677 77 226 678 130 226 679 79 226 680 130 227 681 77 227 682 76 227 683 130 228 684 76 228 685 131 228 686 131 229 687 76 229 688 75 229 689 130 230 690 131 230 691 132 230 692 132 231 693 131 231 694 133 231 695 130 232 696 132 232 697 134 232 698 130 233 699 134 233 700 79 233 701 79 234 702 134 234 703 135 234 704 135 235 705 134 235 706 136 235 707 79 236 708 135 236 709 86 236 710 79 237 711 86 237 712 78 237 713 86 238 714 135 238 715 87 238 716 87 239 717 135 239 718 137 239 719 108 240 720 75 240 721 74 240 722 75 241 723 108 241 724 131 241 725 131 242 726 108 242 727 133 242 728 133 243 729 108 243 730 138 243 731 87 244 732 139 244 733 84 244 734 139 245 735 87 245 736 140 245 737 84 246 738 139 246 739 96 246 740 96 247 741 139 247 742 97 247 743 100 248 744 70 248 745 97 248 746 100 249 747 97 249 748 141 249 749 100 250 750 141 250 751 142 250 752 141 251 753 97 251 754 139 251 755 101 252 756 100 252 757 142 252 758 101 253 759 142 253 760 103 253 761 103 254 762 142 254 763 106 254 764 106 255 765 142 255 766 107 255 767 107 256 768 142 256 769 143 256 770 107 257 771 143 257 772 144 257 773 107 258 774 144 258 775 145 258 776 103 259 777 105 259 778 102 259 779 57 260 780 146 260 781 108 260 782 108 261 783 146 261 784 138 261 785 146 262 786 57 262 787 147 262 788 147 263 789 57 263 790 148 263 791 146 264 792 56 264 793 109 264 794 146 265 795 109 265 796 149 265 797 146 266 798 149 266 799 138 266 800 110 267 801 149 267 802 109 267 803 146 268 804 147 268 805 150 268 806 150 269 807 147 269 808 148 269 809 150 270 810 148 270 811 146 270 812 125 271 813 149 271 814 110 271 815 149 272 816 125 272 817 151 272 818 151 273 819 125 273 820 152 273 821 149 274 822 151 274 823 153 274 824 149 275 825 153 275 826 154 275 827 149 276 828 154 276 829 155 276 830 149 277 831 155 277 832 138 277 833 138 278 834 155 278 835 133 278 836 153 279 837 151 279 838 156 279 839 156 280 840 151 280 841 152 280 842 153 281 843 156 281 844 157 281 845 157 282 846 156 282 847 158 282 848 158 283 849 156 283 850 152 283 851 158 284 852 152 284 853 159 284 854 158 285 855 159 285 856 160 285 857 158 286 858 160 286 859 161 286 860 152 287 861 125 287 862 126 287 863 152 288 864 126 288 865 159 288 866 159 289 867 126 289 868 124 289 869 124 290 870 126 290 871 122 290 872 159 291 873 124 291 874 162 291 875 159 292 876 162 292 877 163 292 878 159 293 879 163 293 880 160 293 881 73 294 882 71 294 883 72 294 884 123 295 885 73 295 886 124 295 887 124 296 888 73 296 889 162 296 890 162 297 891 73 297 892 72 297 893 162 298 894 72 298 895 164 298 896 162 299 897 164 299 898 163 299 899 164 300 900 72 300 901 107 300 902 163 301 903 164 301 904 145 301 905 145 302 906 164 302 907 107 302 908 105 303 909 103 303 910 106 303 911 132 304 912 136 304 913 134 304 914 136 305 915 132 305 916 165 305 917 136 306 918 165 306 919 135 306 920 135 307 921 165 307 922 137 307 923 165 308 924 132 308 925 166 308 926 166 309 927 132 309 928 167 309 929 167 310 930 132 310 931 168 310 932 167 311 933 168 311 934 169 311 935 169 312 936 168 312 937 170 312 938 170 313 939 168 313 940 171 313 941 171 314 942 168 314 943 172 314 944 168 315 945 132 315 946 133 315 947 172 316 948 168 316 949 173 316 950 168 317 951 133 317 952 174 317 953 168 318 954 174 318 955 173 318 956 174 319 957 133 319 958 155 319 959 173 320 960 174 320 961 175 320 962 175 321 963 174 321 964 155 321 965 157 322 966 154 322 967 153 322 968 155 323 969 154 323 970 175 323 971 175 324 972 154 324 973 176 324 974 176 325 975 154 325 976 157 325 977 176 326 978 157 326 979 177 326 980 177 327 981 157 327 982 158 327 983 177 328 984 158 328 985 161 328 986 169 329 987 170 329 988 178 329 989 178 330 990 170 330 991 171 330 992 178 331 993 171 331 994 172 331 995 169 332 996 178 332 997 179 332 998 178 333 999 172 333 1000 180 333 1001 178 334 1002 180 334 1003 179 334 1004 180 335 1005 172 335 1006 173 335 1007 169 336 1008 179 336 1009 181 336 1010 181 337 1011 179 337 1012 180 337 1013 169 338 1014 181 338 1015 166 338 1016 169 339 1017 166 339 1018 167 339 1019 166 340 1020 181 340 1021 182 340 1022 166 341 1023 182 341 1024 165 341 1025 181 342 1026 180 342 1027 183 342 1028 183 343 1029 180 343 1030 184 343 1031 184 344 1032 180 344 1033 185 344 1034 185 345 1035 180 345 1036 173 345 1037 185 346 1038 173 346 1039 175 346 1040 185 347 1041 175 347 1042 176 347 1043 185 348 1044 176 348 1045 177 348 1046 165 349 1047 186 349 1048 137 349 1049 137 350 1050 186 350 1051 140 350 1052 137 351 1053 140 351 1054 87 351 1055 140 352 1056 186 352 1057 187 352 1058 140 353 1059 187 353 1060 188 353 1061 140 354 1062 188 354 1063 141 354 1064 140 355 1065 141 355 1066 139 355 1067 141 356 1068 188 356 1069 189 356 1070 189 357 1071 188 357 1072 190 357 1073 189 358 1074 190 358 1075 191 358 1076 141 359 1077 189 359 1078 143 359 1079 143 360 1080 189 360 1081 191 360 1082 141 361 1083 143 361 1084 142 361 1085 143 362 1086 191 362 1087 192 362 1088 182 363 1089 186 363 1090 165 363 1091 186 364 1092 182 364 1093 193 364 1094 186 365 1095 193 365 1096 187 365 1097 181 366 1098 194 366 1099 182 366 1100 182 367 1101 194 367 1102 195 367 1103 182 368 1104 195 368 1105 193 368 1106 193 369 1107 195 369 1108 187 369 1109 187 370 1110 195 370 1111 188 370 1112 188 371 1113 195 371 1114 196 371 1115 188 372 1116 196 372 1117 197 372 1118 188 373 1119 197 373 1120 190 373 1121 190 374 1122 197 374 1123 198 374 1124 190 375 1125 198 375 1126 191 375 1127 191 376 1128 198 376 1129 192 376 1130 192 377 1131 198 377 1132 197 377 1133 192 378 1134 197 378 1135 199 378 1136 199 379 1137 197 379 1138 200 379 1139 192 380 1140 199 380 1141 201 380 1142 199 381 1143 200 381 1144 202 381 1145 201 382 1146 199 382 1147 203 382 1148 203 383 1149 199 383 1150 202 383 1151 203 384 1152 202 384 1153 204 384 1154 204 385 1155 202 385 1156 205 385 1157 203 386 1158 204 386 1159 206 386 1160 204 387 1161 205 387 1162 185 387 1163 206 388 1164 204 388 1165 177 388 1166 177 389 1167 204 389 1168 185 389 1169 161 390 1170 206 390 1171 177 390 1172 206 391 1173 161 391 1174 207 391 1175 207 392 1176 161 392 1177 160 392 1178 163 393 1179 207 393 1180 160 393 1181 207 394 1182 163 394 1183 145 394 1184 207 395 1185 145 395 1186 144 395 1187 207 396 1188 144 396 1189 201 396 1190 201 397 1191 144 397 1192 143 397 1193 201 398 1194 143 398 1195 192 398 1196 207 399 1197 201 399 1198 203 399 1199 207 400 1200 203 400 1201 206 400 1202 183 401 1203 208 401 1204 181 401 1205 208 402 1206 183 402 1207 184 402 1208 208 403 1209 184 403 1210 209 403 1211 181 404 1212 208 404 1213 210 404 1214 181 405 1215 210 405 1216 194 405 1217 194 406 1218 210 406 1219 211 406 1220 194 407 1221 211 407 1222 195 407 1223 195 408 1224 211 408 1225 212 408 1226 212 409 1227 211 409 1228 213 409 1229 195 410 1230 212 410 1231 196 410 1232 196 411 1233 212 411 1234 214 411 1235 196 412 1236 214 412 1237 200 412 1238 200 413 1239 214 413 1240 212 413 1241 196 414 1242 200 414 1243 197 414 1244 200 415 1245 212 415 1246 215 415 1247 200 416 1248 215 416 1249 202 416 1250 202 417 1251 215 417 1252 205 417 1253 185 418 1254 205 418 1255 184 418 1256 184 419 1257 205 419 1258 216 419 1259 217 420 1260 210 420 1261 208 420 1262 217 421 1263 208 421 1264 209 421 1265 217 422 1266 209 422 1267 218 422 1268 217 423 1269 218 423 1270 219 423 1271 217 424 1272 219 424 1273 220 424 1274 217 425 1275 220 425 1276 210 425 1277 210 426 1278 220 426 1279 221 426 1280 210 427 1281 221 427 1282 222 427 1283 222 428 1284 221 428 1285 223 428 1286 210 429 1287 222 429 1288 211 429 1289 211 430 1290 222 430 1291 224 430 1292 211 431 1293 224 431 1294 213 431 1295 209 432 1296 184 432 1297 216 432 1298 225 433 1299 218 433 1300 226 433 1301 216 434 1302 227 434 1303 226 434 1304 226 435 1305 227 435 1306 228 435 1307 226 436 1308 228 436 1309 225 436 1310 225 437 1311 228 437 1312 229 437 1313 225 438 1314 229 438 1315 230 438 1316 225 439 1317 230 439 1318 231 439 1319 232 440 1320 218 440 1321 225 440 1322 232 441 1323 225 441 1324 231 441 1325 218 442 1326 232 442 1327 219 442 1328 232 443 1329 231 443 1330 233 443 1331 232 444 1332 233 444 1333 219 444 1334 226 445 1335 218 445 1336 209 445 1337 226 446 1338 209 446 1339 216 446 1340 227 447 1341 216 447 1342 234 447 1343 234 448 1344 216 448 1345 235 448 1346 235 449 1347 216 449 1348 215 449 1349 215 450 1350 216 450 1351 205 450 1352 235 451 1353 215 451 1354 224 451 1355 224 452 1356 215 452 1357 213 452 1358 213 453 1359 215 453 1360 212 453 1361 219 454 1362 236 454 1363 220 454 1364 236 455 1365 219 455 1366 237 455 1367 237 456 1368 219 456 1369 233 456 1370 220 457 1371 236 457 1372 238 457 1373 220 458 1374 238 458 1375 221 458 1376 221 459 1377 238 459 1378 239 459 1379 221 460 1380 239 460 1381 240 460 1382 240 461 1383 239 461 1384 241 461 1385 241 462 1386 239 462 1387 238 462 1388 241 463 1389 238 463 1390 234 463 1391 234 464 1392 238 464 1393 236 464 1394 234 465 1395 236 465 1396 227 465 1397 227 466 1398 236 466 1399 242 466 1400 242 467 1401 236 467 1402 237 467 1403 227 468 1404 242 468 1405 228 468 1406 242 469 1407 237 469 1408 243 469 1409 242 470 1410 243 470 1411 228 470 1412 243 471 1413 237 471 1414 233 471 1415 228 472 1416 243 472 1417 229 472 1418 243 473 1419 233 473 1420 231 473 1421 243 474 1422 231 474 1423 229 474 1424 229 475 1425 231 475 1426 230 475 1427 234 476 1428 235 476 1429 241 476 1430 241 477 1431 235 477 1432 240 477 1433 240 478 1434 235 478 1435 244 478 1436 240 479 1437 244 479 1438 223 479 1439 240 480 1440 223 480 1441 221 480 1442 223 481 1443 244 481 1444 245 481 1445 245 482 1446 244 482 1447 246 482 1448 235 483 1449 224 483 1450 247 483 1451 235 484 1452 247 484 1453 244 484 1454 244 485 1455 247 485 1456 248 485 1457 244 486 1458 248 486 1459 246 486 1460 248 487 1461 247 487 1462 249 487 1463 248 488 1464 249 488 1465 246 488 1466 249 489 1467 247 489 1468 224 489 1469 246 490 1470 249 490 1471 245 490 1472 245 491 1473 249 491 1474 224 491 1475 245 492 1476 224 492 1477 222 492 1478 245 493 1479 222 493 1480 223 493 1481 148 494 1482 57 494 1483 56 494 1484 148 495 1485 56 495 1486 146 495 1487</p>
        </polylist>
      </mesh>
    </geometry>
  </library_geometries>
  <library_visual_scenes>
    <visual_scene id="Scene" name="Scene">
      <node id="Makrele" name="Makrele" type="NODE">
        <scale sid="scale">1 1 1</scale>
        <translate sid="location">0 0 0</translate>
        <rotate sid="rotationX">1 0 0 0</rotate>
        <rotate sid="rotationY">0 1 0 0</rotate>
        <rotate sid="rotationZ">0 0 1 0</rotate>
        <instance_geometry url="#Makrele-mesh" name="Makrele">
          <bind_material>
            <technique_common>
            </technique_common>
          </bind_material>
        </instance_geometry>
      </node>
    </visual_scene>
  </library_visual_scenes>
  <scene>
    <instance_visual_scene url="#Scene"/>
  </scene>
</COLLADA>
