<?xml version="1.0" encoding="utf-8"?>
<COLLADA xmlns="http://www.collada.org/2005/11/COLLADASchema" version="1.4.1" xmlns:xsi="http://www.w3.org/2001/XMLSchema-instance">
  <asset>
    <contributor>
      <author>Blockbench user</author>
      <authoring_tool>Blockbench</authoring_tool>
    </contributor>
    <created>2026-03-07T13:32:45.825Z</created>
    <modified>2026-03-07T13:32:45.825Z</modified>
    <unit name="meter" meter="1.0"/>
    <up_axis>Y_UP</up_axis>
  </asset>
  <library_effects>
  </library_effects>
  <library_images>
  </library_images>
  <library_materials>
  </library_materials>
  <library_geometries>
    <geometry id="CrossbowBody-mesh" name="CrossbowBody">
      <mesh>
        <source id="CrossbowBody-mesh-positions">
          <float_array id="CrossbowBody-mesh-positions-array" count="714">-0.464172 -0.084953 0.008745 -0.50116 -0.083115 0.021671 -0.48999 -0.089211 -0.023443 -0.486938 -0.003164 -0.031445 -0.406677 -0.011283 -0.02528 -0.400757 -0.027193 0.000757 -0.495209 0.077873 -0.027365 -0.318634 0.077377 -0.024403 -0.491394 0.078041 0.027462 -0.26416 -0.155411 0.019972 -0.340118 -0.124405 0.023432 -0.345764 -0.12101 -0.023214 -0.269928 -0.141968 -0.019499 -0.213333 -0.055172 0.021685 -0.293213 -0.042404 0.020269 -0.288696 0.002866 0.022692 -0.319946 0.014977 0.024094 -0.285919 0.006642 -0.025805 -0.240601 0.056488 -0.034851 -0.244583 0.082214 -0.024038 -0.247192 0.012273 -0.033939 -0.257599 0.002865 -0.02339 -0.202087 -0.056641 -0.019878 -0.306976 0.080139 0.023848 -0.440674 -0.033642 0.026588 -0.488647 -0.012506 0.030582 -0.265808 0.075066 0.028955 -0.240494 0.01088 0.034199 -0.132385 -0.064384 -0.013998 -0.153061 -0.079178 -0.001574 -0.192551 -0.029581 0.00097 -0.107582 -0.019646 0.002341 -0.152039 -0.080513 -0.000476 -0.195084 -0.00983 -0.022551 -0.181046 -0.005513 0.0217 -0.125107 -0.003302 -0.022886 -0.089729 0.004157 -0.041607 -0.164398 0.05394 -0.039948 -0.190125 0.07663 -0.031103 -0.163116 0.071465 -0.023396 -0.165146 0.077805 0.022005 -0.196442 0.074829 0.034527 -0.17189 0.05069 0.037601 -0.203613 0.102745 -0.014464 -0.165466 0.073586 -0.020798 -0.203491 0.100403 0.016916 -0.181305 0.111595 0.01389 -0.185608 0.133972 -0.012015 -0.186768 0.136169 -0.011633 -0.077019 0.049374 -0.029831 -0.111816 0.067993 -0.027149 -0.072517 0.062386 -0.028627 -0.133118 0.102165 -0.018555 -0.112411 0.085724 0.022032 -0.070427 0.061878 0.029001 -0.112099 0.068474 -0.023716 -0.073509 0.04895 0.029305 -0.205688 0.104218 -0.016182 -0.114166 0.069267 -0.026756 -0.164124 0.072395 -0.022552 -0.129837 0.101685 -0.019949 0.133759 -0.063713 -0.460052 0.091339 -0.085472 -0.421844 0.115723 -0.040497 -0.460205 0.152573 -0.040222 -0.366089 0.092339 -0.047703 -0.417542 0.123337 -0.04427 -0.400696 0.132355 -0.08049 -0.370453 0.151001 -0.037113 -0.340912 0.241211 -0.032597 -0.284485 0.212997 -0.081726 -0.283112 0.251892 -0.028269 -0.229187 0.31015 -0.024025 -0.164139 0.272217 -0.088173 -0.185455 0.275543 -0.022755 -0.158813 0.137604 -0.082901 -0.418518 0.237885 -0.081795 -0.286377 0.308197 -0.070839 -0.172852 -0.020245 -0.08429 -0.057838 -0.049381 -0.026649 -0.043667 -0.005471 -0.053104 -0.052975 0.017044 -0.056499 -0.033672 -0.012836 -0.048149 -0.025524 0.01531 -0.077171 -0.01381 -0.013157 -0.084991 0.055984 -0.052032 -0.032589 0.051872 0.008876 -0.01992 -0.033371 -0.080353 -0.009912 -0.023897 -0.061604 -0.008956 -0.042984 -0.01255 -0.042377 0.054955 0.015633 -0.054432 0.037804 0.005678 -0.02104 0.033051 0.020689 -0.05555 0.052433 -0.068558 -0.00605 0.041553 0.154129 -0.085083 -0.051659 0.172302 -0.072388 -0.034336 0.016088 -0.076172 -0.038788 -0.028542 0.033852 -0.044048 -0.020197 0.040226 -0.030991 -0.070213 0.04781 -0.016638 -0.083389 -0.039028 -0.025869 -0.118065 -0.066711 0.013865 -0.080383 -0.038857 0.02249 0.091782 -0.006939 -0.042831 0.112869 -0.031013 -0.035484 0.095955 0.025164 -0.034767 0.200165 0.010471 -0.039017 0.168152 -0.010366 -0.043213 0.130234 -0.031689 0.035126 0.212082 0.008271 -0.069557 0.1884 -0.008196 -0.062187 0.091774 0.025848 -0.015081 0.030041 0.029419 -0.001225 -0.070061 0.047569 0.014194 0.17247 -0.089363 -0.028242 0.167603 -0.072266 -0.034065 0.015644 -0.055058 -0.005991 0.180176 -0.072067 -0.010961 0.180176 -0.084053 -0.011189 0.040836 -0.07756 0.006011 0.181107 -0.071594 0.006531 0.1866 -0.098495 -0.001503 0.178818 -0.090515 0.025015 0.091728 -0.015224 0.037464 0.092766 0.016071 0.042648 0.015787 -0.07547 0.036884 0.016609 -0.075829 0.052383 0.180405 -0.090813 0.043938 0.01469 -0.058125 0.013318 0.180206 -0.069801 0.028837 0.170349 -0.067444 0.044064 0.154724 0.014359 0.010726 0.144135 0.019253 0.036022 -0.023497 0.031269 0.043835 0.195358 0.005499 0.068024 0.178085 0.015027 -0.008552 0.197861 0.009173 0.014448 0.194641 -0.009744 0.038067 0.222061 -0.044872 0.055496 0.123253 -0.040329 0.401276 0.146667 -0.080658 0.341888 0.138733 -0.081902 0.391083 0.10144 -0.061604 0.376587 0.086296 -0.070587 0.42215 0.156937 -0.037575 0.348602 0.144211 -0.044212 0.438019 0.228271 -0.033867 0.298218 0.210953 -0.03307 0.289124 0.297119 -0.027254 0.198105 0.282471 -0.023037 0.158798 0.220932 -0.082367 0.273163 0.275604 -0.090065 0.165482 0.304688 -0.089897 0.170563 0.238251 -0.082222 0.28421 0.117027 -0.08136 0.461548 0.31369 -0.09185 -0.143311 0.273499 -0.091232 -0.14856 0.281311 -0.091164 -0.109734 0.278259 -0.026855 -0.099464 0.331879 -0.022842 -0.071312 0.27948 -0.090233 -0.067474 0.286987 -0.022112 -0.070847 0.373962 -0.004216 -0.070396 0.216858 -0.030251 -0.067375 0.271515 -0.037888 -0.064728 0.226471 -0.051636 -0.067429 0.215332 -0.065582 -0.046722 0.276337 -0.067169 -0.048351 0.215057 -0.065735 -0.047245 0.224121 -0.052216 -0.067894 0.327942 -0.093414 -0.070786 0.323486 -0.050251 -0.098778 0.317108 -0.100174 -0.089142 0.317413 -0.105125 -0.043072 0.367859 -0.106796 -0.070396 0.287598 -0.102013 -0.043736 0.369354 -0.101891 -0.046604 0.34848 -0.080315 -0.075912 0.300476 0.00288 -0.047123 0.277344 -0.068085 -0.047085 0.316376 -0.064171 -0.046856 0.286438 -0.070404 0.04689 0.28476 -0.075287 -0.005369 0.195557 -0.098999 -0.053631 0.487335 -0.122292 -0.062466 0.450714 -0.115929 -0.089722 0.452789 -0.146851 -0.089203 0.49118 -0.153122 -0.065224 0.490814 -0.151886 0.068489 0.319458 -0.127823 -0.035221 0.499664 -0.123695 -0.070335 0.498688 -0.123558 0.071198 0.279663 -0.076378 -0.004864 0.279694 -0.110161 0.01397 0.196213 -0.009492 0.008419 0.308777 -0.022091 -0.009261 0.319031 -0.006644 -0.00947 0.332336 -0.092857 -0.035339 0.319977 -0.126907 -0.034012 0.315948 -0.128067 0.036697 0.373016 -0.133606 -0.025866 0.363831 -0.066345 -0.03079 0.367767 -0.008871 -0.047325 0.34494 -0.061371 0.03121 0.284241 -0.11216 0.014964 0.375458 -0.129852 0.025761 0.328674 -0.094933 0.040222 0.371704 -0.066803 0.03013 0.31665 -0.064957 0.046806 0.318756 -0.008384 0.00973 0.276123 -0.054588 0.047016 0.319672 -0.006717 0.046535 0.346283 -0.008185 0.041996 0.369324 -0.003816 0.047848 0.319275 0.001641 0.047188 0.239899 0.007402 0.046257 0.391144 -0.126816 -0.039906 0.488403 -0.122147 0.061916 0.188461 -0.092094 0.043903 0.28595 -0.098648 0.044804 0.196259 -0.089272 0.066338 0.279297 -0.086464 0.067947 0.240952 -0.077026 0.04707 0.256927 -0.029406 0.066551 0.28656 -0.025221 0.06916 0.280731 -0.091743 0.09774 0.325317 -0.104584 0.071159 0.329468 -0.062744 0.071747 0.331818 -0.021124 0.071968 0.32077 -0.126434 0.030199 0.386139 -0.101868 0.031239 0.382477 -0.127701 0.031172 0.383423 -0.130493 0.047565 0.369263 -0.107758 0.048367 0.44809 -0.115135 0.092888 0.369568 -0.003407 0.070526 0.448486 -0.146332 0.093765 0.452942 -0.116829 0.080147</float_array>
          <technique_common>
            <accessor source="#CrossbowBody-mesh-positions-array" count="238" stride="3">
              <param name="X" type="float"/>
              <param name="Y" type="float"/>
              <param name="Z" type="float"/>
            </accessor>
          </technique_common>
        </source>
        <source id="CrossbowBody-mesh-normals">
          <float_array id="CrossbowBody-mesh-normals-array" count="1470">-0.00268 -0.991078 0.133255 -0.970243 0.011924 -0.241839 0.618961 -0.671342 -0.40766 0.066711 -0.094736 -0.993265 0.535715 -0.660856 -0.525623 0.082336 0.058494 -0.994887 0.016753 -0.006746 -0.999837 -0.992078 -0.104748 0.069352 0.002864 0.999991 -0.003263 -0.378678 -0.925279 -0.021509 -0.242859 -0.928546 -0.280754 0.859988 -0.431405 -0.2726 0.031927 -0.03326 0.998937 -0.857166 0.495697 0.139829 -0.010582 0.044585 0.99895 -0.025827 -0.050859 0.998372 0.3151 -0.776277 -0.545991 -0.090992 -0.343014 0.934913 0.146193 -0.986884 -0.068468 -0.993603 0.101762 -0.048972 -0.00682 0.016663 -0.999838 -0.145037 -0.047491 -0.988286 -0.020579 0.384688 -0.922817 -0.207025 0.010682 -0.978277 -0.038417 -0.726639 -0.685944 -0.028667 -0.68213 -0.730669 -0.813126 0.578633 -0.063321 0.040555 -0.030283 -0.998718 0.031556 -0.029527 -0.999066 -0.01242 0.998455 -0.054153 0.019581 0.001068 0.999808 0.35787 -0.871434 0.335458 0.529083 -0.484542 0.696628 0.099208 0.037273 0.994368 -0.055337 -0.305244 0.950665 -0.998986 -0.031419 -0.032257 0.317165 -0.173864 0.932297 -0.984639 0.174598 -0.000833 -0.064922 0.997032 -0.041387 0.09943 0.980062 0.172021 -0.119715 0.027575 0.992425 0.020801 -0.000366 0.999784 -0.124483 0.031928 0.991708 -0.135448 -0.451586 0.881887 -0.005952 -0.6382 -0.769848 0.110835 0.993826 -0.005136 0.364907 0.244465 0.898376 0.026538 -0.355881 0.934155 0.011716 0.037688 -0.999221 0.001768 -0.057273 -0.998357 0.959226 -0.156925 -0.235073 0.937714 -0.209643 -0.277024 0.826818 -0.537626 0.165318 -0.15046 -0.978196 0.143161 0.073085 -0.813079 -0.577547 0.000942 -0.061324 -0.998117 -0.040228 -0.899766 -0.434514 -0.070712 -0.70878 -0.701877 -0.050803 -0.042948 -0.997785 -0.067086 -0.010578 -0.997691 -0.053138 0.30981 -0.949312 0.321673 0.6376 -0.699995 -0.081277 0.375479 -0.92326 0.220701 0.967272 -0.125206 0.106749 0.993577 0.03754 -0.087133 0.996017 0.018946 -0.007125 0.991374 0.130868 0.30309 0.417373 0.856701 -0.079801 0.049865 0.995563 -0.077331 0.048162 0.995842 -0.596435 -0.798343 0.08315 0.612222 0.788666 0.056481 -0.500561 -0.863442 -0.062496 0.011922 0.23889 0.970973 -0.748884 -0.156118 -0.64405 -0.678639 -0.23747 -0.695024 0.119456 0.677088 -0.726142 0.23792 0.963351 -0.123889 -0.253587 -0.962461 0.096764 -0.126756 -0.094662 -0.987407 -0.1057 0.108512 -0.98846 -0.023136 0.100046 -0.994714 0.042989 0.268794 -0.962238 -0.001839 0.242819 -0.97007 0.554183 0.830658 0.053746 0.495141 0.868751 -0.010299 0.321906 0.923244 0.209755 -0.033283 0.218314 0.975311 0.13892 -0.926306 0.350226 0.166403 0.986024 -0.008167 0.019058 0.494932 0.868723 0.084086 0.003386 0.996453 -0.027838 0.157043 -0.987199 -0.071942 0.171534 -0.982548 0.0191 0.967334 -0.252785 0.748604 -0.435151 -0.500236 0.877744 0.424966 0.22129 -0.496992 -0.391207 -0.774568 0.754939 0.584536 -0.297295 -0.879735 0.076739 -0.46923 -0.15367 0.984706 0.082094 -0.468134 -0.087759 0.879289 -0.24297 0.965632 0.09231 -0.760778 0.293793 0.578708 0.007127 0.992491 -0.122113 -0.906805 0.113268 0.406048 0.025958 0.992323 -0.120917 -0.728132 -0.143469 0.670254 -0.001252 0.996969 -0.077788 -0.72857 -0.145169 0.669412 0.018474 0.996497 -0.081561 -0.848713 0.092206 0.520754 -0.942569 -0.083759 0.323338 0.080618 -0.901989 -0.424167 0.051412 -0.997127 0.055632 0.976251 -0.14761 -0.15857 -0.048037 -0.99784 0.044807 0.720068 0.42309 -0.549997 -0.004129 -0.999938 -0.010339 0.678026 -0.017578 -0.734827 0.851166 -0.037408 -0.523562 -0.089687 0.194795 -0.976735 0.239618 0.964635 -0.109831 0.219673 -0.975375 -0.019687 -0.896358 -0.440241 -0.052243 -0.804 -0.592814 0.046416 0.099924 0.473714 -0.874992 0.793624 -0.524882 0.307669 0.02081 0.7789 -0.626803 -0.128045 -0.976265 -0.174675 0.797403 -0.602097 0.040349 0.35705 0.931601 -0.068084 0.773358 -0.633413 0.026554 -0.071639 0.025098 0.997115 0.084638 0.022848 0.99615 0.107464 0.66599 0.738179 0.191766 0.457105 0.868493 0.035701 0.137442 -0.989866 0.149171 0.716433 -0.681522 -0.019094 -0.906134 0.422559 0.233694 -0.971797 -0.031588 -0.032427 -0.015333 -0.999356 -0.044472 0.009518 -0.998965 0.106544 0.83176 -0.544815 0.127714 0.856662 -0.499819 0.159541 0.986583 0.034653 0.848044 -0.250188 -0.467148 -0.39841 -0.809164 -0.431883 -0.13243 -0.809059 -0.572613 -0.139439 -0.872456 -0.468377 -0.672255 0.552619 -0.492631 -0.280073 0.093911 -0.955374 0.389024 -0.879721 -0.273407 -0.491962 0.109793 -0.863666 0.59915 -0.799897 -0.034415 0.3184 -0.946636 -0.050021 0.226347 -0.973989 -0.010626 0.009008 -0.625871 -0.779875 -0.054857 -0.335102 -0.940584 -0.106483 -0.994074 -0.021889 0.478154 0.154998 -0.864491 0.088396 0.231846 -0.968728 0.096841 0.868619 -0.485925 0.001337 -0.02588 -0.999664 -0.040678 0.000505 -0.999172 -0.339513 0.657133 -0.672984 0.337096 -0.936977 -0.091872 -0.503558 0.825182 -0.255937 -0.584211 0.591428 -0.555797 0.508266 0.806957 -0.300809 0.124659 0.94163 0.312719 0.134403 0.990909 -0.005885 0.179417 0.98375 0.006805 0.988192 0.153179 -0.003674 0.997417 0.062376 -0.035624 0.946482 -0.220087 0.23608 0.998014 -0.055999 0.028846 -0.119164 -0.682686 -0.72093 -0.02371 -0.250531 0.967818 0.101325 0.993761 -0.046608 0.259555 0.965015 -0.037109 -0.042234 -0.998502 0.034793 -0.044583 -0.947938 0.315317 0.101811 0.994279 -0.032305 -0.125912 -0.590597 -0.797083 -0.124823 -0.959606 0.252141 0.125402 0.988433 -0.085289 -0.085369 -0.996284 0.011456 -0.035088 -0.220474 0.974762 -0.008263 -0.523981 0.85169 0.015781 -0.163912 0.986349 0.762668 -0.605363 0.227756 0.121856 0.992341 0.020249 -0.024362 -0.690844 0.722594 -0.437271 -0.323993 -0.838941 0.008748 -0.00599 0.999944 -0.048943 -0.711757 0.700718 -0.104608 -0.814479 0.570685 -0.043717 -0.010034 0.998994 0.243666 -0.672077 -0.699242 -0.419791 0.302987 0.855555 -0.664886 -0.181381 0.724588 -0.073414 -0.917394 0.39115 -0.693414 -0.158491 0.702893 0.054203 -0.994527 -0.089323 0.546501 -0.679568 0.489412 -0.092438 -0.995689 -0.007595 0.289824 -0.956344 -0.037523 -0.092014 -0.995592 -0.018181 0.96197 -0.273124 0.004146 0.244657 0.969511 -0.013797 0.086125 0.983281 0.160437 0.00124 0.8054 0.592731 0.999165 0.009056 -0.039846 0.044081 0.043968 -0.99806 0.08179 0.995502 0.047812 0.364278 0.929673 -0.054851 0.05476 -0.013479 0.998409 0.128642 -0.028326 0.991287 0.054395 -0.184705 0.981288 0.138606 0.962513 -0.233147 0.13675 0.988837 -0.059167 -0.043146 -0.008992 0.999028 0.069276 0.743006 0.66569 0.00191 -0.063332 0.997991 0.110433 0.798586 0.591662 0.136273 -0.166296 0.976614 0.047562 -0.030539 0.998401 -0.502135 0.121964 0.856145 0.216222 0.973658 0.072375 0.200346 0.976746 0.076341 0.273323 -0.859949 0.431025 0.324977 -0.940556 -0.098712 -0.819303 -0.502849 0.275474 0.061461 0.626227 0.777214 -0.937333 -0.310036 -0.15901 0.507061 0.378649 -0.774283 -0.655153 0.752299 -0.069436 -0.365539 -0.88264 -0.295513 -0.816701 0.273841 -0.507947 0.043949 0.995812 0.080169 0.952731 -0.281327 0.114713 0.484586 0.493293 0.722384 0.004217 0.996839 0.079333 -0.722648 0.271335 -0.635734 0.008306 0.997399 0.071595 0.032719 0.994982 0.094552 -0.87579 -0.02115 -0.482229 -0.674535 0.100265 -0.731403 -0.889398 0.045762 -0.454838 -0.006151 -0.997653 0.068198 -0.004433 -0.999789 0.020072 -0.025235 -0.998293 0.052666 -0.036691 -0.99884 -0.031175 0.853541 -0.119807 0.507064 0.730985 -0.046358 0.680817 0.823771 0.005795 0.566893 -0.249561 -0.965866 -0.069445 0.850437 -0.454189 0.265462 -0.363029 0.787256 0.498435 -0.591908 0.693402 0.4109 -0.010571 -0.998173 -0.059486 -0.037279 -0.998034 -0.050391 -0.998663 0.035445 0.03764 -0.978683 0.058682 0.196814 -0.997658 -0.054042 0.041923 -0.11281 0.990886 0.073616 -0.998277 -0.040612 -0.042358 0.014292 0.985729 -0.167734 -0.955059 0.118697 0.271614 -0.002354 0.036625 -0.999326 -0.042207 -0.061717 -0.997201 -0.241888 -0.08474 -0.966597 -0.004736 -0.357575 -0.933873 -0.362266 -0.006228 -0.932054 0.051964 0.02588 -0.998314 -0.724615 -0.324194 -0.608137 0.191026 -0.455002 -0.86976 -0.036588 -0.819643 -0.571705 -0.98826 -0.151438 0.02022 -0.003967 0.637946 -0.770071 0.2223 0.898044 -0.379605 0.441396 0.649584 0.619039 0.788103 -0.422863 -0.447304 0.981061 -0.015031 -0.193114 0.980416 -0.025435 -0.19529 0.979538 -0.003412 -0.20123 0.971456 -0.070501 -0.226501 0.033503 0.999227 -0.020577 -0.004553 -0.996583 -0.082469 -0.016024 -0.999859 0.004975 -0.165434 -0.976293 -0.139585 0.864559 0.056862 -0.499304 0.023335 0.996032 -0.085884 -0.185652 -0.940301 -0.285249 -0.084994 -0.903794 -0.419442 0.074257 -0.977611 0.19688 0.996965 -0.059314 -0.050417 -0.083615 -0.277309 -0.957136 0.254536 -0.015144 -0.966945 -0.076676 -0.256793 -0.96342 -0.012074 0.076311 -0.997011 -0.009197 0.069835 -0.997516 -0.246055 0.006503 -0.969234 0.969068 -0.055853 -0.240389 -0.064179 -0.997754 0.0192 -0.483746 -0.689267 0.539352 0.695453 -0.702352 -0.151811 0.076441 0.995141 -0.062054 0.071872 0.996454 -0.043736 -0.007887 -0.776732 0.629782 -0.149301 0.191363 0.970098 0.005799 -0.001355 0.999982 -0.006121 0.002531 0.999978 -0.099917 0.994408 0.034208 0.009908 0.101192 0.994818 -0.953374 -0.276112 0.121816 -0.110338 -0.138199 0.984239 0.019101 -0.892987 -0.449678 -0.137585 -0.211038 -0.967747 -0.599836 -0.02683 0.799673 -0.540954 -0.14163 0.829042 -0.992329 -0.123619 -0.001574 0.149111 0.988622 0.019814 0.96109 -0.276188 0.005184 -0.221936 -0.69316 -0.685765 0.321687 -0.251299 -0.912889 0.139952 0.989229 0.0429 0.112952 0.9936 -0.000183 -0.075257 -0.98968 -0.121943 -0.037644 0.312553 0.949154 0.998585 0.001012 -0.053176 -0.026642 0.818405 -0.574024 0.094288 -0.525258 -0.845703 0.083868 -0.485165 -0.870391 -0.12046 -0.221479 -0.967697 -0.314431 -0.946447 0.073288 -0.450821 0.876407 -0.169325 0.556408 -0.470814 0.684649 0.040144 0.8278 0.559586 -0.202813 0.963417 -0.175199 -0.030829 -0.826912 -0.561485 0.499106 -0.865426 0.043939 0.714256 -0.013311 0.699758 -0.123213 0.990653 0.058519 0.103765 0.992474 -0.065017 0.081218 -0.996323 -0.027275 0.89567 -0.431647 -0.107035 0.623239 0.700888 0.346886 0.128311 0.990203 -0.055088 0.13942 0.990222 -0.004795 0.099541 0.976362 0.191859 0.110162 0.979708 0.167442 -0.146058 -0.966624 -0.210486 0.130513 0.991432 0.005409 -0.47299 -0.429324 -0.769391 -0.188405 -0.649297 -0.736829 -0.007797 -0.008353 -0.999935 0.151641 0.981203 0.119353 0.205489 -0.112473 -0.972175 -0.599867 -0.798701 -0.047283 0.140169 -0.089307 -0.986092 0.181536 -0.047118 -0.982255 0.364332 -0.280436 -0.888042 0.956828 0.017934 0.290101 0.293881 0.012422 0.955761 -0.06873 -0.470812 0.879552 -0.340385 -0.923085 -0.179033 -0.874832 -0.478919 0.07284 -0.121763 -0.992288 -0.023217 -0.016443 -0.997175 0.073286 0.173191 -0.16973 0.970153 0.996677 0.062927 -0.051719 0.259738 -0.051357 0.964313 0.984075 0.125142 -0.126236 0.083923 0.220278 0.97182 0.198164 0.979999 -0.018242 -0.177401 0.984099 0.008777 -0.999221 0.039329 0.003253 -0.003773 0.005506 -0.999978 -0.998398 0.05191 0.022497 -0.006289 -0.004327 -0.999971 0.047136 0.997812 -0.046367 -0.037381 0.865712 -0.499145 0.021746 0.0789 -0.996645 -0.091483 0.073245 -0.993109 0.01132 -0.005628 -0.99992 -0.8969 -0.211137 0.388577 -0.998586 0.052302 -0.009563 0.170227 0.972002 0.161974 0.167774 0.956647 0.238072 0.964682 0.018495 0.262767 0.048799 0.9988 0.004066 0.96963 -0.071893 0.233773 0.707144 -0.157639 0.689273 0.251616 -0.031294 -0.967321 0.056911 0.330933 0.941936 0.584195 -0.217798 -0.781844 -0.268369 0.095606 -0.95856 0.046375 0.296853 0.953797 -0.45719 -0.580704 -0.673617 0.634529 0.055519 0.770903 0.040117 -0.907168 0.418852 0.137989 0.990431 -0.002339 -0.996845 -0.078904 0.008651 0.045105 0.024794 -0.998675 0.053074 0.017455 0.998438 0.961634 0.123147 0.245144 0.996087 -0.075286 0.046286 -0.194019 -0.316887 0.928407 0.123665 0.483289 0.866683 0.077322 0.994045 -0.07678 0.042588 -0.999073 -0.006234 0.993185 -0.104415 0.051773 -0.007408 -0.306773 0.951754 0.381432 -0.746185 -0.545636 -0.009405 0.997643 0.067974 0.264812 -0.254742 -0.930044 -0.173848 -0.113565 -0.978202 -0.0677 -0.98672 0.147646 0.020718 -0.882206 0.470407 -0.819663 0.529629 0.21828 -0.027267 0.252057 0.967328 0.01874 0.142709 -0.989587 -0.012346 0.246679 -0.969019 0.148438 0.331376 -0.931749 -0.014705 0.073901 -0.997157 -0.004673 0.004919 -0.999977 -0.316718 0.49839 0.80703 -0.852254 -0.34378 -0.394308 -0.086371 -0.009488 0.996218 -0.064771 -0.155845 0.985656 -0.990881 0.116159 0.068275 -0.996634 0.067095 -0.047098 -0.992559 0.093964 -0.077449 0.00143 -0.99969 0.024871 -0.353522 -0.923854 -0.146681 -0.221373 -0.970311 0.097423 -0.364264 -0.863146 0.349701 0.971265 -0.0994 0.21625 0.96933 0.009144 0.245591 0.963372 -0.055788 0.262303 0.089989 0.993262 0.073026 -0.08838 0.995685 -0.028291 -0.15664 -0.315789 0.935811 0.146607 0.984967 0.091362 -0.999416 0.015001 0.030689 -0.998507 0.03648 0.040668 -0.602875 -0.713257 0.357501 0.118305 -0.149867 0.981603 -0.12898 0.329912 -0.935159 -0.107508 0.32584 -0.939293 0.015773 0.000357 -0.999876 -0.01761 -0.985819 -0.166885 -0.238481 -0.668916 0.704045 -0.049859 -0.066208 0.996559 -0.105691 -0.992232 -0.065609 -0.487252 -0.331967 0.807702 -0.062139 0.961059 0.269266 0.001077 -0.811124 0.584873 -0.717529 -0.328553 0.61417 0.755356 -0.507036 -0.415154 0.071539 0.99556 0.061174 0.10862 0.9939 -0.019094 0.047567 0.981928 0.183181 -0.014701 -0.006671 0.99987 -0.082853 0.254948 0.963399 0.041761 -0.007663 0.999098 0.195223 -0.005012 -0.980746 0.178009 0.863297 0.472262 0.999942 -0.00064 -0.010747 0.320668 -0.197646 0.926341 0.456341 -0.057753 0.887929 0.96328 -0.268412 0.006903 0.479813 -0.214719 0.850691 -0.521158 -0.224257 -0.82347 -0.471061 -0.310035 -0.82582 0.561527 -0.415189 -0.715755 -0.125084 -0.979231 -0.159561 -0.576359 0.015653 0.817047 0.398142 0.030827 0.916806 0.155102 0.98766 -0.021724 0.100521 0.990539 -0.093419 0.243516 0.969224 -0.03613 0.577165 -0.079709 -0.812728 0.052876 0.992206 0.112834 -0.997988 -0.019262 -0.060404 -0.481002 -0.422389 0.76826 0.473369 -0.307545 -0.825432 -0.38475 0.368903 -0.846096</float_array>
          <technique_common>
            <accessor source="#CrossbowBody-mesh-normals-array" count="490" stride="3">
              <param name="X" type="float"/>
              <param name="Y" type="float"/>
              <param name="Z" type="float"/>
            </accessor>
          </technique_common>
        </source>
        <source id="CrossbowBody-mesh-map-0">
          <float_array id="CrossbowBody-mesh-map-0-array" count="2940">0.139404 0.962891 0.137085 0.908203 0.150391 0.93335 0.150391 0.93335 0.137085 0.908203 0.181275 0.889893 0.139404 0.962891 0.150391 0.93335 0.193237 0.978271 0.193237 0.978271 0.150391 0.93335 0.181275 0.889893 0.139404 0.962891 0.193237 0.978271 0.180908 0.99707 0.193237 0.978271 0.181275 0.889893 0.212158 0.875977 0.193237 0.978271 0.212158 0.875977 0.250366 1 0.212158 0.875977 0.181275 0.889893 0.223877 0.817627 0.212158 0.875977 0.223877 0.817627 0.250366 1 0.212158 0.166992 0.199219 0.133057 0.217652 0.105469 0.212158 0.166992 0.217652 0.105469 0.226806 0.176758 0.212158 0.166992 0.226806 0.176758 0.171631 0.220215 0.212158 0.166992 0.171631 0.220215 0.199219 0.133057 0.217652 0.105469 0.199219 0.133057 0.166382 0.125 0.166382 0.125 0.199219 0.133057 0.171631 0.220215 0.166382 0.125 0.171631 0.220215 0.151245 0.132812 0.095703 0.999756 0.077881 0.92334 0.109497 0.984863 0.109497 0.984863 0.077881 0.92334 0.091552 0.930664 0.077881 0.92334 0.095703 0.999756 0.060791 0.939209 0.077881 0.92334 0.060791 0.939209 0.071656 0.892578 0.060791 0.939209 0.095703 0.999756 0.052978 0.994629 0.060791 0.939209 0.052978 0.994629 0.035279 0.96167 0.035279 0.96167 0.052978 0.994629 0.029663 0.982666 0.060791 0.939209 0.035279 0.96167 0.046143 0.931641 0.060791 0.939209 0.046143 0.931641 0.051148 0.921631 0.060791 0.939209 0.051148 0.921631 0.071656 0.892578 0.071656 0.892578 0.051148 0.921631 0.062134 0.80835 0.062134 0.80835 0.051148 0.921631 0.033814 0.808594 0.033814 0.808594 0.051148 0.921631 0.032471 0.884521 0.13562 0.833008 0.184448 0.692139 0.161133 0.840088 0.161133 0.840088 0.184448 0.692139 0.232178 0.740967 0.25647 0.740967 0.300415 0.783691 0.232178 0.740967 0.25647 0.740967 0.232178 0.740967 0.242066 0.685059 0.232178 0.740967 0.184448 0.692139 0.216797 0.683105 0.232178 0.740967 0.216797 0.683105 0.242066 0.685059 0.216797 0.683105 0.184448 0.692139 0.213745 0.613037 0.242066 0.685059 0.216797 0.683105 0.237305 0.634033 0.237305 0.634033 0.216797 0.683105 0.213745 0.613037 0.235718 0.252686 0.261108 0.240723 0.250366 0.275146 0.261108 0.240723 0.235718 0.252686 0.243775 0.222168 0.243775 0.222168 0.235718 0.252686 0.216675 0.225586 0.216675 0.225586 0.235718 0.252686 0.175903 0.260498 0.243775 0.222168 0.216675 0.225586 0.233399 0.176758 0.233399 0.176758 0.216675 0.225586 0.219361 0.194092 0.313599 0.757324 0.301758 0.76123 0.291016 0.717041 0.313599 0.757324 0.291016 0.717041 0.300415 0.685303 0.301758 0.76123 0.313599 0.757324 0.304565 0.815674 0.304565 0.815674 0.313599 0.757324 0.334961 0.774658 0.304565 0.815674 0.334961 0.774658 0.329956 0.838867 0.332031 0.141357 0.319214 0.173584 0.30774 0.125 0.319214 0.173584 0.332031 0.141357 0.329345 0.183105 0.329345 0.183105 0.332031 0.141357 0.339233 0.185303 0.329345 0.183105 0.339233 0.185303 0.32666 0.218018 0.339233 0.185303 0.332031 0.141357 0.366577 0.153564 0.366577 0.153564 0.332031 0.141357 0.359864 0.132568 0.359864 0.132568 0.332031 0.141357 0.30774 0.125 0.359864 0.132568 0.30774 0.125 0.370362 0.109131 0.370362 0.109131 0.30774 0.125 0.309204 0.106445 0.403198 0.305908 0.403198 0.47168 0.379395 0.386963 0.119873 0.322998 0.070678 0.30542 0.128296 0.266357 0.070678 0.30542 0.119873 0.322998 0.085449 0.341553 0.070678 0.30542 0.085449 0.341553 0.067017 0.336426 0.085449 0.341553 0.119873 0.322998 0.120361 0.360107 0.067017 0.336426 0.085449 0.341553 0.057129 0.393555 0.085449 0.341553 0.120361 0.360107 0.083863 0.428467 0.085449 0.341553 0.083863 0.428467 0.057129 0.393555 0.083863 0.428467 0.120361 0.360107 0.129273 0.433838 0.057129 0.393555 0.083863 0.428467 0.054932 0.435547 0.083863 0.428467 0.129273 0.433838 0.109864 0.516357 0.083863 0.428467 0.109864 0.516357 0.054932 0.435547 0.111206 0.147705 0.130249 0.197998 0.079712 0.165771 0.130249 0.197998 0.111206 0.147705 0.11499 0.106689 0.11499 0.106689 0.111206 0.147705 0.079712 0.165771 0.11499 0.106689 0.079712 0.165771 0.096679 0.093018 0.130249 0.197998 0.11499 0.106689 0.155518 0.103271 0.155518 0.103271 0.11499 0.106689 0.156128 0.100098 0.352051 0.768799 0.338013 0.755127 0.359985 0.674316 0.359985 0.674316 0.338013 0.755127 0.312134 0.731201 0.359985 0.674316 0.312134 0.731201 0.316529 0.664551 0.359985 0.674316 0.316529 0.664551 0.340942 0.654053 0.340942 0.654053 0.316529 0.664551 0.296509 0.634521 0.359985 0.674316 0.340942 0.654053 0.361084 0.6604 0.340942 0.654053 0.296509 0.634521 0.329712 0.627686 0.340942 0.654053 0.329712 0.627686 0.361084 0.6604 0.361084 0.6604 0.329712 0.627686 0.35022 0.5896 0.361084 0.6604 0.35022 0.5896 0.375977 0.61084 0.35022 0.5896 0.329712 0.627686 0.324951 0.554688 0.35022 0.5896 0.324951 0.554688 0.34314 0.54126 0.239502 0.078857 0.219726 0.017578 0.246948 0.029297 0.219726 0.017578 0.239502 0.078857 0.193115 0.059814 0.193115 0.059814 0.239502 0.078857 0.235473 0.11377 0.193115 0.059814 0.235473 0.11377 0.189575 0.075928 0.251099 0.091309 0.278931 0.013916 0.287842 0.058105 0.269775 0.946045 0.239014 0.988525 0.231934 0.94165 0.373901 0.13501 0.391845 0.066162 0.396118 0.160645 0.373901 0.13501 0.396118 0.160645 0.374878 0.181641 0.373901 0.13501 0.374878 0.181641 0.373535 0.183105 0.342285 0.492188 0.315552 0.491943 0.335327 0.478516 0.342285 0.492188 0.335327 0.478516 0.338745 0.415771 0.335327 0.478516 0.315552 0.491943 0.328491 0.468262 0.335327 0.478516 0.328491 0.468262 0.332763 0.442383 0.332763 0.442383 0.328491 0.468262 0.315552 0.491943 0.335327 0.478516 0.332763 0.442383 0.338745 0.415771 0.332763 0.442383 0.315552 0.491943 0.319824 0.434082 0.338745 0.415771 0.332763 0.442383 0.330688 0.405762 0.330688 0.405762 0.332763 0.442383 0.319824 0.434082 0.338745 0.415771 0.330688 0.405762 0.334961 0.335449 0.330688 0.405762 0.319824 0.434082 0.316162 0.359375 0.334961 0.335449 0.330688 0.405762 0.32959 0.3125 0.32959 0.3125 0.330688 0.405762 0.316162 0.359375 0.334961 0.335449 0.32959 0.3125 0.343872 0.265625 0.32959 0.3125 0.316162 0.359375 0.301147 0.291504 0.32959 0.3125 0.301147 0.291504 0.312744 0.274902 0.389405 0.618896 0.383056 0.599609 0.397217 0.597168 0.383056 0.599609 0.389405 0.618896 0.374634 0.631592 0.389405 0.618896 0.397217 0.597168 0.403321 0.648193 0.374634 0.631592 0.389405 0.618896 0.383789 0.702393 0.383789 0.702393 0.389405 0.618896 0.403321 0.648193 0.374634 0.631592 0.383789 0.702393 0.375854 0.694824 0.383789 0.702393 0.403321 0.648193 0.397583 0.71167 0.383789 0.702393 0.397583 0.71167 0.380737 0.770264 0.090698 0.69751 0.066529 0.719727 0.078247 0.68457 0.088501 0.671875 0.078247 0.68457 0.07666 0.661377 0.108521 0.727051 0.102295 0.787354 0.090698 0.69751 0.066529 0.719727 0.090698 0.69751 0.076172 0.795166 0.076172 0.795166 0.090698 0.69751 0.102295 0.787354 0.078247 0.68457 0.066529 0.719727 0.062989 0.671875 0.078247 0.68457 0.062989 0.671875 0.07666 0.661377 0.062989 0.671875 0.066529 0.719727 0.05542 0.743652 0.062989 0.671875 0.05542 0.743652 0.050293 0.724609 0.07666 0.661377 0.062989 0.671875 0.070068 0.597168 0.07666 0.661377 0.070068 0.597168 0.083496 0.606445 0.070068 0.597168 0.062989 0.671875 0.060181 0.618164 0.076172 0.795166 0.102295 0.787354 0.090332 0.812256 0.090332 0.812256 0.102295 0.787354 0.103516 0.82373 0.076172 0.795166 0.090332 0.812256 0.087036 0.840332 0.076172 0.795166 0.087036 0.840332 0.063232 0.801025 0.026245 0.081787 0.000976 0.16333 0.016723 0.063965 0.000976 0.16333 0.026245 0.081787 0.005249 0.180176 0.016723 0.063965 0.000976 0.16333 0.003784 0.080811 0.016723 0.063965 0.003784 0.080811 0.000122 0.06665 0.16687 0.05127 0.168457 0 0.200073 0.000977 0.168457 0 0.16687 0.05127 0.157837 0.006592 0.16687 0.05127 0.200073 0.000977 0.185791 0.051758 0.16687 0.05127 0.185791 0.051758 0.16333 0.060059 0.16333 0.060059 0.185791 0.051758 0.183471 0.064453 0.183471 0.064453 0.185791 0.051758 0.187744 0.060791 0.167359 0.22583 0.154541 0.21582 0.165405 0.212646 0.165405 0.212646 0.154541 0.21582 0.160888 0.190918 0.160888 0.190918 0.154541 0.21582 0.148194 0.193848 0.148194 0.193848 0.154541 0.21582 0.127075 0.207031 0.127075 0.207031 0.154541 0.21582 0.143677 0.236328 0.127075 0.207031 0.143677 0.236328 0.121704 0.23291 0.143677 0.236328 0.154541 0.21582 0.156861 0.24707 0.121704 0.23291 0.143677 0.236328 0.131958 0.263672 0.143677 0.236328 0.156861 0.24707 0.133301 0.300293 0.143677 0.236328 0.133301 0.300293 0.131958 0.263672 0.46875 0.292236 0.459717 0.237793 0.461304 0.188965 0.459717 0.237793 0.46875 0.292236 0.461426 0.308838 0.459717 0.237793 0.461426 0.308838 0.437256 0.237061 0.461426 0.308838 0.46875 0.292236 0.479858 0.294922 0.479858 0.294922 0.46875 0.292236 0.481933 0.209961 0.479858 0.294922 0.481933 0.209961 0.486573 0.216553 0.445069 0.41626 0.445069 0.291504 0.462158 0.318848 0.445801 0.160889 0.416504 0.105713 0.465088 0.098877 0.445801 0.160889 0.465088 0.098877 0.46289 0.130615 0.445801 0.160889 0.46289 0.130615 0.453614 0.205322 0.46289 0.130615 0.465088 0.098877 0.47461 0.090088 0.46289 0.130615 0.47461 0.090088 0.473633 0.118164 0.473388 0.701416 0.473388 0.630615 0.491699 0.666016 0.078858 0.149902 0.032227 0.09082 0.064087 0.118896 0.032227 0.09082 0.078858 0.149902 0.076538 0.162598 0.353516 0.968262 0.390381 0.992676 0.351685 0.991943 0.353516 0.968262 0.351685 0.991943 0.344604 0.999023 0.353516 0.968262 0.344604 0.999023 0.347168 0.958252 0.353516 0.968262 0.347168 0.958252 0.350098 0.955322 0.015259 0.556152 0.007447 0.550781 0.018067 0.542969 0.018067 0.542969 0.007447 0.550781 0 0.45752 0.007447 0.550781 0.015259 0.556152 0.000122 0.639648 0.47461 0.879883 0.46521 0.879883 0.46997 0.767822 0.46521 0.879883 0.47461 0.879883 0.471192 0.900635 0.457642 0.726807 0.45752 0.843018 0.44812 0.862061 0.457642 0.726807 0.44812 0.862061 0.449951 0.731201 0.129151 0.028076 0.075073 0.028076 0.075806 0.016602 0.490112 0.503662 0.477051 0.415527 0.482056 0.408691 0.490112 0.503662 0.482056 0.408691 0.491211 0.412109 0.027344 0.957031 0.023315 0.862061 0.026612 0.819824 0.056885 0.165039 0.015137 0.17749 0.019409 0.129883 0.056885 0.165039 0.019409 0.129883 0.033203 0.132812 0.056885 0.165039 0.033203 0.132812 0.081054 0.179199 0.081054 0.179199 0.033203 0.132812 0.037964 0.114014 0.254761 0.658203 0.300415 0.685303 0.291016 0.717041 0.121704 0.23291 0.09436 0.181885 0.127075 0.207031 0.486206 0.82251 0.476196 0.85083 0.473267 0.769775 0.486206 0.82251 0.473267 0.769775 0.489746 0.767334 0.372802 0.328857 0.350952 0.354492 0.349731 0.26123 0.349731 0.26123 0.350952 0.354492 0.34314 0.30249 0.34314 0.30249 0.350952 0.354492 0.343017 0.45166 0.008789 0.481689 0.032471 0.413574 0.03357 0.594971 0.480224 0.739258 0.491821 0.762695 0.459961 0.762939 0.474243 0.078613 0.457397 0.063477 0.473755 0.046631 0.474243 0.078613 0.473755 0.046631 0.487793 0.039795 0.474243 0.078613 0.487793 0.039795 0.494751 0.125977 0.487793 0.039795 0.473755 0.046631 0.482788 0.016846 0.226319 0.603516 0.209107 0.571045 0.230591 0.561035 0.209107 0.571045 0.226319 0.603516 0.213745 0.605469 0.213745 0.605469 0.226319 0.603516 0.282715 0.653076 0.209107 0.571045 0.213745 0.605469 0.20813 0.595459 0.20813 0.595459 0.213745 0.605469 0.13977 0.651367 0.454834 0.437744 0.461304 0.438965 0.446899 0.441406 0.446899 0.441406 0.461304 0.438965 0.468628 0.457275 0.461304 0.438965 0.454834 0.437744 0.463867 0.327881 0.220459 0.797363 0.224487 0.811035 0.166504 0.841064 0.224487 0.811035 0.220459 0.797363 0.22815 0.797119 0.224487 0.811035 0.22815 0.797119 0.277222 0.851562 0.277222 0.851562 0.22815 0.797119 0.2323 0.790771 0.2323 0.790771 0.22815 0.797119 0.230346 0.767578 0.277222 0.851562 0.2323 0.790771 0.236695 0.779297 0.236695 0.779297 0.2323 0.790771 0.237671 0.750977 0.106201 0.032715 0.159668 0.032715 0.106812 0.046387 0.434937 0.575684 0.438599 0.659424 0.432983 0.727051 0.000244 0.910156 0.000244 0.733643 0.00647 0.731934 0.206909 0.104004 0.161621 0.109131 0.1521 0.068115 0.206909 0.104004 0.1521 0.068115 0.173218 0.068359 0.470581 0.60376 0.465821 0.698486 0.446899 0.727295 0.465821 0.698486 0.470581 0.60376 0.471192 0.741943 0.312378 0.05249 0.303833 0.023682 0.312256 0.013916 0.312378 0.05249 0.312256 0.013916 0.324585 0.028564 0.312378 0.05249 0.324585 0.028564 0.329345 0.077148 0.312378 0.05249 0.329345 0.077148 0.304565 0.086914 0.304565 0.086914 0.329345 0.077148 0.314942 0.095459 0.329345 0.077148 0.324585 0.028564 0.338257 0.063232 0.338257 0.063232 0.324585 0.028564 0.351563 0.015625 0.329345 0.077148 0.338257 0.063232 0.344483 0.087402 0.416992 0.566162 0.421875 0.679199 0.417847 0.712646 0.334961 0.958496 0.316895 0.93457 0.329224 0.917969 0.334961 0.958496 0.329224 0.917969 0.337647 0.931885 0.334961 0.958496 0.337647 0.931885 0.350464 0.91748 0.350464 0.91748 0.337647 0.931885 0.329224 0.917969 0.316895 0.93457 0.334961 0.958496 0.317383 0.9646 0.317383 0.9646 0.334961 0.958496 0.34375 0.968506 0.317383 0.9646 0.34375 0.968506 0.331665 0.987061 0.317383 0.9646 0.331665 0.987061 0.294068 0.972168 0.317383 0.9646 0.294068 0.972168 0.292969 0.960205 0.317383 0.9646 0.292969 0.960205 0.316895 0.93457 0.292969 0.960205 0.294068 0.972168 0.259155 0.992676 0.292969 0.960205 0.259155 0.992676 0.249389 0.972656 0.292969 0.960205 0.249389 0.972656 0.286255 0.927979 0.292969 0.960205 0.286255 0.927979 0.316895 0.93457 0.286255 0.927979 0.249389 0.972656 0.250488 0.928711 0.286255 0.927979 0.250488 0.928711 0.247925 0.912842 0.316895 0.93457 0.286255 0.927979 0.286377 0.913086 0.286377 0.913086 0.286255 0.927979 0.247925 0.912842 0.316895 0.93457 0.286377 0.913086 0.329224 0.917969 0.286377 0.913086 0.247925 0.912842 0.256958 0.876953 0.329224 0.917969 0.286377 0.913086 0.292847 0.881348 0.292847 0.881348 0.286377 0.913086 0.256958 0.876953 0.497437 0.995361 0.471435 0.997803 0.487183 0.971924 0.487183 0.971924 0.471435 0.997803 0.478638 0.948242 0.497437 0.995361 0.487183 0.971924 0.5 0.947021 0.5 0.947021 0.487183 0.971924 0.478638 0.948242 0.478272 0.370361 0.476929 0.304199 0.483642 0.30957 0.478272 0.370361 0.483642 0.30957 0.48291 0.403564 0.255615 0.13623 0.240112 0.101074 0.249512 0.096436 0.255615 0.13623 0.249512 0.096436 0.260865 0.0979 0.255615 0.13623 0.260865 0.0979 0.271118 0.125 0.255615 0.13623 0.271118 0.125 0.279785 0.144287 0.271118 0.125 0.260865 0.0979 0.273072 0.094727 0.279785 0.144287 0.271118 0.125 0.284912 0.128174 0.284912 0.128174 0.271118 0.125 0.273072 0.094727 0.284912 0.17627 0.284912 0.128174 0.303711 0.110352 0.303711 0.110352 0.284912 0.128174 0.299073 0.100586 0.303711 0.110352 0.299073 0.100586 0.308228 0.097412 0.299073 0.100586 0.284912 0.128174 0.284912 0.116455 0.284912 0.116455 0.284912 0.128174 0.273072 0.094727 0.299073 0.100586 0.284912 0.116455 0.294068 0.095459 0.299073 0.100586 0.294068 0.095459 0.293091 0.076416 0.294068 0.095459 0.284912 0.116455 0.28125 0.099609 0.294068 0.095459 0.28125 0.099609 0.293091 0.076416 0.28125 0.099609 0.284912 0.116455 0.273072 0.094727 0.28125 0.099609 0.273072 0.094727 0.293091 0.076416 0.293091 0.076416 0.273072 0.094727 0.292847 0.076172 0.292847 0.076172 0.273072 0.094727 0.289185 0.063721 0.057739 0.501465 0.048828 0.526855 0.048462 0.389404 0.048828 0.526855 0.057739 0.501465 0.048218 0.589355 0.048218 0.589355 0.057739 0.501465 0.066284 0.56543 0.066284 0.56543 0.057739 0.501465 0.077271 0.509033 0.066284 0.56543 0.077271 0.509033 0.077881 0.5896 0.077881 0.5896 0.077271 0.509033 0.091919 0.506348 0.492065 0.626221 0.476929 0.586426 0.493408 0.594971 0.493408 0.594971 0.476929 0.586426 0.492188 0.561523 0.492188 0.561523 0.476929 0.586426 0.478028 0.539795 0.005371 0.034424 0.039673 0.056885 0.002807 0.059326 0.463135 0.050049 0.463135 0.003174 0.470948 0.039795 0.371094 0.556885 0.344361 0.528076 0.371826 0.50415 0.344361 0.528076 0.371094 0.556885 0.36377 0.566406 0.371094 0.556885 0.371826 0.50415 0.383911 0.516357 0.383911 0.516357 0.371826 0.50415 0.387207 0.431396 0.371826 0.50415 0.344361 0.528076 0.354004 0.495605 0.387207 0.431396 0.371826 0.50415 0.365356 0.477783 0.365356 0.477783 0.371826 0.50415 0.354004 0.495605 0.387207 0.431396 0.365356 0.477783 0.367676 0.407227 0.387207 0.431396 0.367676 0.407227 0.366211 0.368896 0.367676 0.407227 0.365356 0.477783 0.354004 0.495605 0.367676 0.407227 0.354004 0.495605 0.351197 0.433838 0.354004 0.495605 0.344361 0.528076 0.319824 0.535645 0.354004 0.495605 0.319824 0.535645 0.339599 0.505859 0.354004 0.495605 0.339599 0.505859 0.311645 0.504639 0.03833 0.089355 0.049561 0.029053 0.051636 0.076172 0.051636 0.076172 0.049561 0.029053 0.055542 0.016846 0.051636 0.076172 0.055542 0.016846 0.064819 0.016846 0.051636 0.076172 0.064819 0.016846 0.079102 0.044189 0.051636 0.076172 0.079102 0.044189 0.076538 0.074219 0.051636 0.076172 0.076538 0.074219 0.072266 0.095947 0.072266 0.095947 0.076538 0.074219 0.085572 0.123779 0.076538 0.074219 0.079102 0.044189 0.08667 0.078125 0.076538 0.074219 0.08667 0.078125 0.082642 0.096191 0.08667 0.078125 0.079102 0.044189 0.089721 0.032227 0.08667 0.078125 0.089721 0.032227 0.09436 0.07251 0.09436 0.07251 0.089721 0.032227 0.103882 0.036133 0.24878 0.498047 0.265991 0.502197 0.263672 0.526611 0.24878 0.498047 0.263672 0.526611 0.239013 0.516846 0.24878 0.498047 0.239013 0.516846 0.223266 0.360596 0.239013 0.516846 0.263672 0.526611 0.324829 0.62085 0.223266 0.360596 0.239013 0.516846 0.22583 0.531738 0.239013 0.516846 0.324829 0.62085 0.24646 0.570068 0.239013 0.516846 0.24646 0.570068 0.22583 0.531738 0.22583 0.531738 0.24646 0.570068 0.224121 0.545654 0.22583 0.531738 0.224121 0.545654 0.155152 0.625 0.449951 0.450195 0.461914 0.5625 0.453125 0.580078 0.449951 0.450195 0.453125 0.580078 0.445923 0.575439 0.425171 0.145264 0.436401 0.152832 0.422119 0.157471 0.422119 0.157471 0.436401 0.152832 0.434204 0.268311 0.422119 0.157471 0.434204 0.268311 0.411377 0.17041 0.411377 0.17041 0.434204 0.268311 0.409302 0.281494 0.307251 0.440918 0.289795 0.44458 0.315185 0.394775 0.289795 0.44458 0.307251 0.440918 0.296265 0.464111 0.315185 0.394775 0.289795 0.44458 0.28772 0.411377 0.296265 0.464111 0.307251 0.440918 0.314942 0.464111 0.315185 0.394775 0.28772 0.411377 0.305786 0.393066 0.305786 0.393066 0.28772 0.411377 0.305786 0.392578 0.305786 0.392578 0.28772 0.411377 0.22522 0.342773 0.296265 0.464111 0.314942 0.464111 0.298828 0.479248 0.298828 0.479248 0.314942 0.464111 0.299438 0.491699 0.299438 0.491699 0.314942 0.464111 0.30774 0.500244 0.299438 0.491699 0.30774 0.500244 0.324097 0.611328 0.223999 0.130371 0.234131 0.118408 0.23352 0.169922 0.23352 0.169922 0.234131 0.118408 0.243286 0.136475 0.23352 0.169922 0.243286 0.136475 0.245849 0.166748 0.245849 0.166748 0.243286 0.136475 0.278076 0.177979 0.278076 0.177979 0.243286 0.136475 0.281372 0.155518 0.348022 0.820801 0.331055 0.85498 0.313965 0.870605 0.331055 0.85498 0.348022 0.820801 0.356446 0.845947 0.356446 0.845947 0.348022 0.820801 0.375977 0.70166 0.356446 0.845947 0.375977 0.70166 0.371582 0.830566 0.265137 0.039551 0.249512 0.083252 0.249756 0.053223 0.014038 0.268555 0.03125 0.405762 0.016236 0.436279 0.014038 0.268555 0.016236 0.436279 0.003174 0.261963 0.003174 0.261963 0.016236 0.436279 0.000244 0.415771 0.134278 0.887451 0.150268 0.864502 0.155639 0.893799 0.155639 0.893799 0.150268 0.864502 0.18396 0.848389 0.150268 0.864502 0.134278 0.887451 0.133423 0.844727 0.133423 0.844727 0.134278 0.887451 0.113404 0.876465 0.113404 0.876465 0.134278 0.887451 0.098145 0.93042 0.113404 0.876465 0.098145 0.93042 0.083008 0.852783 0.098145 0.93042 0.134278 0.887451 0.135132 0.94043 0.496826 0.039551 0.496826 0.083252 0.492188 0.056641 0.421875 0.046875 0.456177 0.05542 0.406616 0.084473 0.020996 0.857178 0.020996 0.973877 0.016723 0.921631 0.0094 0.608887 0.055176 0.594238 0.05896 0.65625 0.0094 0.608887 0.05896 0.65625 0.025025 0.658936 0.0094 0.608887 0.025025 0.658936 0 0.659424 0.025025 0.658936 0.05896 0.65625 0.016968 0.714355 0.025025 0.658936 0.016968 0.714355 0 0.659424 0.016968 0.714355 0.05896 0.65625 0.036011 0.778564 0 0.659424 0.016968 0.714355 0.001465 0.713867 0.001465 0.713867 0.016968 0.714355 0.036011 0.778564 0.062134 0.174561 0.052002 0.206299 0 0.187256 0 0.187256 0.052002 0.206299 0.033447 0.269775 0.052002 0.206299 0.062134 0.174561 0.072022 0.193604 0.033447 0.269775 0.052002 0.206299 0.057984 0.269043 0.057984 0.269043 0.052002 0.206299 0.072022 0.193604 0.033447 0.269775 0.057984 0.269043 0.049682 0.297852 0.049682 0.297852 0.057984 0.269043 0.050415 0.328613 0.050415 0.328613 0.057984 0.269043 0.062134 0.273926 0.062134 0.273926 0.057984 0.269043 0.072022 0.193604 0.062134 0.273926 0.072022 0.193604 0.109131 0.237305 0.384155 0.981201 0.358886 0.941162 0.37561 0.918457 0.358886 0.941162 0.384155 0.981201 0.350708 0.94873 0.37561 0.918457 0.358886 0.941162 0.347534 0.887695 0.37561 0.918457 0.347534 0.887695 0.350708 0.865723 0.350708 0.865723 0.347534 0.887695 0.304322 0.880615 0.314942 0.247314 0.280151 0.243408 0.318481 0.180176 0.318481 0.180176 0.280151 0.243408 0.265381 0.18457 0.265381 0.18457 0.280151 0.243408 0.245361 0.175537 0.245361 0.175537 0.280151 0.243408 0.272949 0.268066 0.39917 0.140381 0.410645 0.144043 0.406006 0.209717 0.410645 0.144043 0.39917 0.140381 0.398315 0.12085 0.410645 0.144043 0.398315 0.12085 0.409424 0.09082 0.00586 1 0.018799 0.981689 0.041748 0.997803 0.042237 0.051514 0.002197 0.025391 0.037598 0.022217 0.456909 0.655273 0.445556 0.586182 0.459595 0.584717 0.445556 0.586182 0.456909 0.655273 0.445556 0.716064 0.027344 0.794434 0.007447 0.927979 0.021118 0.801514 0.021118 0.801514 0.007447 0.927979 0.006836 0.78833 0.070435 0.293945 0.065552 0.280273 0.118774 0.266357 0.065552 0.280273 0.070435 0.293945 0.042602 0.377686 0.415772 0.309814 0.423584 0.28418 0.436401 0.308105 0.423584 0.28418 0.415772 0.309814 0.411499 0.286377 0.415772 0.309814 0.436401 0.308105 0.438354 0.417236 0.415772 0.309814 0.438354 0.417236 0.413208 0.421387 0.364624 0.102295 0.310425 0.102295 0.363892 0.087646 0.134278 0.657471 0.15979 0.749756 0.136841 0.693848 0.134278 0.657471 0.136841 0.693848 0.125 0.689941 0.125 0.689941 0.136841 0.693848 0.118042 0.840332 0.134278 0.657471 0.125 0.689941 0.106079 0.637207 0.106079 0.637207 0.125 0.689941 0.092041 0.69165 0.134278 0.657471 0.106079 0.637207 0.1344 0.598389 0.1344 0.598389 0.106079 0.637207 0.110718 0.549072 0.437866 0.856201 0.41272 0.99585 0.420166 0.884033 0.420166 0.884033 0.41272 0.99585 0.391235 0.971191 0.437866 0.856201 0.420166 0.884033 0.392823 0.873291 0.392823 0.873291 0.420166 0.884033 0.391235 0.971191 0.360595 0.02417 0.42041 0.021973 0.38916 0.046387 0.38916 0.046387 0.42041 0.021973 0.402344 0.085205 0.38916 0.046387 0.402344 0.085205 0.402344 0.085205 0.122802 0.564209 0.123902 0.525391 0.13208 0.555176 0.13208 0.555176 0.123902 0.525391 0.136596 0.544434 0.136596 0.544434 0.123902 0.525391 0.14563 0.5 0.136596 0.544434 0.14563 0.5 0.146607 0.563965 0.146607 0.563965 0.14563 0.5 0.157227 0.552979 0.146607 0.563965 0.157227 0.552979 0.137573 0.625 0.157227 0.552979 0.14563 0.5 0.159546 0.484131 0.157227 0.552979 0.159546 0.484131 0.204101 0.518066 0.204101 0.518066 0.159546 0.484131 0.190674 0.456055 0.190674 0.456055 0.159546 0.484131 0.184204 0.428467 0.159546 0.484131 0.14563 0.5 0.133667 0.458252 0.159546 0.484131 0.133667 0.458252 0.184204 0.428467 0.133667 0.458252 0.14563 0.5 0.13208 0.49585 0.184204 0.428467 0.133667 0.458252 0.131348 0.412842 0.184204 0.428467 0.131348 0.412842 0.19043 0.351318 0.19043 0.351318 0.131348 0.412842 0.124512 0.368164 0.19043 0.351318 0.124512 0.368164 0.172363 0.323242 0.172363 0.323242 0.124512 0.368164 0.123291 0.320801 0.237671 0.007812 0.201904 0.007812 0.237671 0.007812 0.427002 0.56958 0.427002 0.424316 0.437866 0.565186 0.495362 0.868652 0.495362 0.929932 0.479126 0.874268 0.479126 0.874268 0.495362 0.929932 0.473022 0.9104 0.467651 0.200928 0.483155 0.170898 0.488526 0.202393 0.483155 0.170898 0.467651 0.200928 0.461548 0.166748 0.483155 0.170898 0.461548 0.166748 0.467895 0.134766 0.380981 0.194092 0.397705 0.174316 0.405761 0.235352 0.380981 0.194092 0.405761 0.235352 0.3927 0.253906 0.380981 0.194092 0.3927 0.253906 0.384766 0.265625 0.380981 0.194092 0.384766 0.265625 0.352051 0.17749 0.352051 0.17749 0.384766 0.265625 0.367676 0.26709 0.352051 0.17749 0.367676 0.26709 0.344239 0.231445 0.367676 0.26709 0.384766 0.265625 0.386719 0.349609 0.367676 0.26709 0.386719 0.349609 0.363647 0.289062 0.371704 0.868408 0.386474 0.855469 0.388306 0.982178 0.386474 0.855469 0.371704 0.868408 0.388062 0.811279 0.388062 0.811279 0.371704 0.868408 0.365356 0.852295 0.427735 0.854004 0.427735 0.730225 0.438477 0.790771 0.438477 0.790771 0.427735 0.730225 0.435913 0.734863 0.427735 0.730225 0.427735 0.854004 0.397339 0.865479 0.427735 0.730225 0.397339 0.865479 0.388062 0.773926 0.427735 0.730225 0.388062 0.773926 0.40503 0.736328 0.427735 0.730225 0.40503 0.736328 0.401245 0.702637 0.444458 0.976074 0.421753 0.964844 0.440552 0.865967 0.421753 0.964844 0.444458 0.976074 0.438965 0.997559 0.444458 0.976074 0.440552 0.865967 0.459228 0.868164 0.444458 0.976074 0.459228 0.868164 0.47461 0.938965 0.444458 0.976074 0.47461 0.938965 0.470093 0.983643 0.314331 0.258301 0.237427 0.317627 0.234497 0.28833 0.234497 0.28833 0.237427 0.317627 0.206177 0.305908 0.234497 0.28833 0.206177 0.305908 0.223755 0.265869 0.223755 0.265869 0.206177 0.305908 0.200928 0.275635 0.200928 0.275635 0.206177 0.305908 0.156372 0.258301 0.156372 0.258301 0.206177 0.305908 0.161621 0.280029 0.161621 0.280029 0.206177 0.305908 0.205322 0.336426 0.205322 0.336426 0.206177 0.305908 0.237427 0.317627 0.205322 0.336426 0.237427 0.317627 0.233154 0.331787 0.205322 0.336426 0.233154 0.331787 0.20935 0.346436 0.205322 0.336426 0.20935 0.346436 0.193847 0.453613 0.476929 0.5354 0.476929 0.441895 0.491333 0.533447 0.429565 0.574707 0.429565 0.725098 0.42334 0.709229 0.44397 0.00415 0.460815 0.051025 0.424804 0.038818 0.286255 0.032471 0.301392 0.032471 0.298462 0.081299 0.474243 0.078613 0.442993 0.073486 0.457397 0.063477 0.473022 0.584229 0.462158 0.536865 0.471924 0.454346</float_array>
          <technique_common>
            <accessor source="#CrossbowBody-mesh-map-0-array" count="1470" stride="2">
              <param name="S" type="float"/>
              <param name="T" type="float"/>
            </accessor>
          </technique_common>
        </source>
        <vertices id="CrossbowBody-mesh-vertices">
          <input semantic="POSITION" source="#CrossbowBody-mesh-positions"/>
        </vertices>
        <polylist material="Material_-1-material" count="6">
          <input semantic="VERTEX" source="#CrossbowBody-mesh-vertices" offset="0"/>
          <input semantic="NORMAL" source="#CrossbowBody-mesh-normals" offset="1"/>
          <input semantic="TEXCOORD" source="#CrossbowBody-mesh-map-0" offset="2" set="0"/>
          <vcount>3 3 3 3 3 3 3 3 3 3 3 3 3 3 3 3 3 3 3 3 3 3 3 3 3 3 3 3 3 3 3 3 3 3 3 3 3 3 3 3 3 3 3 3 3 3 3 3 3 3 3 3 3 3 3 3 3 3 3 3 3 3 3 3 3 3 3 3 3 3 3 3 3 3 3 3 3 3 3 3 3 3 3 3 3 3 3 3 3 3 3 3 3 3 3 3 3 3 3 3 3 3 3 3 3 3 3 3 3 3 3 3 3 3 3 3 3 3 3 3 3 3 3 3 3 3 3 3 3 3 3 3 3 3 3 3 3 3 3 3 3 3 3 3 3 3 3 3 3 3 3 3 3 3 3 3 3 3 3 3 3 3 3 3 3 3 3 3 3 3 3 3 3 3 3 3 3 3 3 3 3 3 3 3 3 3 3 3 3 3 3 3 3 3 3 3 3 3 3 3 3 3 3 3 3 3 3 3 3 3 3 3 3 3 3 3 3 3 3 3 3 3 3 3 3 3 3 3 3 3 3 3 3 3 3 3 3 3 3 3 3 3 3 3 3 3 3 3 3 3 3 3 3 3 3 3 3 3 3 3 3 3 3 3 3 3 3 3 3 3 3 3 3 3 3 3 3 3 3 3 3 3 3 3 3 3 3 3 3 3 3 3 3 3 3 3 3 3 3 3 3 3 3 3 3 3 3 3 3 3 3 3 3 3 3 3 3 3 3 3 3 3 3 3 3 3 3 3 3 3 3 3 3 3 3 3 3 3 3 3 3 3 3 3 3 3 3 3 3 3 3 3 3 3 3 3 3 3 3 3 3 3 3 3 3 3 3 3 3 3 3 3 3 3 3 3 3 3 3 3 3 3 3 3 3 3 3 3 3 3 3 3 3 3 3 3 3 3 3 3 3 3 3 3 3 3 3 3 3 3 3 3 3 3 3 3 3 3 3 3 3 3 3 3 3 3 3 3 3 3 3 3 3 3 3 3 3 3 3 3 3 3 3 3 3 3 3 3 3 3 3 3 3 3 3 3 3 3 3 3 3 3 3 3 3 3 3 3 3 3 3 3 3 3 3 3 3 3 3 3 3 3 3 3 3 3 3 3 3 3</vcount>
          <p>0 0 0 1 0 1 2 0 2 2 1 3 1 1 4 3 1 5 0 2 6 2 2 7 4 2 8 4 3 9 2 3 10 3 3 11 0 4 12 4 4 13 5 4 14 4 5 15 3 5 16 6 5 17 4 6 18 6 6 19 7 6 20 6 7 21 3 7 22 8 7 23 6 8 24 8 8 25 7 8 26 9 9 27 10 9 28 11 9 29 9 10 30 11 10 31 12 10 32 9 11 33 12 11 34 13 11 35 9 12 36 13 12 37 10 12 38 11 13 39 10 13 40 14 13 41 14 14 42 10 14 43 13 14 44 14 15 45 13 15 46 15 15 47 4 16 48 15 16 49 5 16 50 5 17 51 15 17 52 16 17 53 15 18 54 4 18 55 17 18 56 15 19 57 17 19 58 14 19 59 17 20 60 4 20 61 7 20 62 17 21 63 7 21 64 18 21 65 18 22 66 7 22 67 19 22 68 17 23 69 18 23 70 20 23 71 17 24 72 20 24 73 21 24 74 17 25 75 21 25 76 14 25 77 14 26 78 21 26 79 11 26 80 11 27 81 21 27 82 12 27 83 12 28 84 21 28 85 22 28 86 7 29 87 8 29 88 23 29 89 23 30 90 8 30 91 24 30 92 5 31 93 16 31 94 24 31 95 5 32 96 24 32 97 0 32 98 24 33 99 8 33 100 25 33 101 24 34 102 25 34 103 0 34 104 25 35 105 8 35 106 3 35 107 0 36 108 25 36 109 1 36 110 1 37 111 25 37 112 3 37 113 23 38 114 19 38 115 7 38 116 19 39 117 23 39 118 26 39 119 26 40 120 23 40 121 16 40 122 16 41 123 23 41 124 24 41 125 26 42 126 16 42 127 27 42 128 27 43 129 16 43 130 15 43 131 28 44 132 29 44 133 22 44 134 28 45 135 22 45 136 13 45 137 29 46 138 28 46 139 30 46 140 30 47 141 28 47 142 31 47 143 30 48 144 31 48 145 32 48 146 33 49 147 22 49 148 21 49 149 22 50 150 33 50 151 30 50 152 30 51 153 33 51 154 34 51 155 30 52 156 34 52 157 13 52 158 34 53 159 33 53 160 31 53 161 31 54 162 33 54 163 35 54 164 35 55 165 33 55 166 21 55 167 35 56 168 21 56 169 36 56 170 36 57 171 21 57 172 20 57 173 36 58 174 20 58 175 37 58 176 18 59 177 37 59 178 20 59 179 37 60 180 18 60 181 38 60 182 37 61 183 38 61 184 39 61 185 38 62 186 18 62 187 19 62 188 39 63 189 38 63 190 40 63 191 38 64 192 19 64 193 41 64 194 38 65 195 41 65 196 40 65 197 41 66 198 19 66 199 26 66 200 40 67 201 41 67 202 42 67 203 41 68 204 26 68 205 27 68 206 41 69 207 27 69 208 42 69 209 43 70 210 44 70 211 40 70 212 44 71 213 43 71 214 45 71 215 45 72 216 43 72 217 40 72 218 45 73 219 40 73 220 46 73 221 44 74 222 45 74 223 47 74 224 47 75 225 45 75 226 48 75 227 37 76 228 39 76 229 49 76 230 49 77 231 39 77 232 40 77 233 49 78 234 40 78 235 44 78 236 49 79 237 44 79 238 50 79 239 50 80 240 44 80 241 47 80 242 49 81 243 50 81 244 51 81 245 50 82 246 47 82 247 52 82 248 50 83 249 52 83 250 51 83 251 51 84 252 52 84 253 53 84 254 51 85 255 53 85 256 54 85 257 53 86 258 52 86 259 46 86 260 53 87 261 46 87 262 40 87 263 40 88 264 55 88 265 53 88 266 55 89 267 40 89 268 54 89 269 54 90 270 40 90 271 42 90 272 54 91 273 42 91 274 56 91 275 52 92 276 57 92 277 47 92 278 58 93 279 59 93 280 60 93 281 46 94 282 52 94 283 57 94 284 46 95 285 57 95 286 47 95 287 46 96 288 47 96 289 48 96 290 61 97 291 62 97 292 63 97 293 61 98 294 63 98 295 64 98 296 63 99 297 62 99 298 65 99 299 63 100 300 65 100 301 66 100 302 66 101 303 65 101 304 62 101 305 63 102 306 66 102 307 64 102 308 66 103 309 62 103 310 67 103 311 64 104 312 66 104 313 68 104 314 68 105 315 66 105 316 67 105 317 64 106 318 68 106 319 69 106 320 68 107 321 67 107 322 70 107 323 69 108 324 68 108 325 71 108 326 71 109 327 68 109 328 70 109 329 69 110 330 71 110 331 72 110 332 71 111 333 70 111 334 73 111 335 71 112 336 73 112 337 74 112 338 75 113 339 62 113 340 61 113 341 62 114 342 75 114 343 67 114 344 75 115 345 61 115 346 64 115 347 67 116 348 75 116 349 76 116 350 76 117 351 75 117 352 64 117 353 67 118 354 76 118 355 70 118 356 76 119 357 64 119 358 69 119 359 76 120 360 69 120 361 77 120 362 78 121 363 79 121 364 80 121 365 81 122 366 80 122 367 82 122 368 83 123 369 84 123 370 78 123 371 79 124 372 78 124 373 85 124 374 85 125 375 78 125 376 84 125 377 80 126 378 79 126 379 86 126 380 80 127 381 86 127 382 82 127 383 86 128 384 79 128 385 87 128 386 86 129 387 87 129 388 88 129 389 82 130 390 86 130 391 89 130 392 82 131 393 89 131 394 90 131 395 89 132 396 86 132 397 91 132 398 85 133 399 84 133 400 89 133 401 89 134 402 84 134 403 92 134 404 85 135 405 89 135 406 91 135 407 85 136 408 91 136 409 93 136 410 80 137 411 94 137 412 78 137 413 94 138 414 80 138 415 95 138 416 78 139 417 94 139 418 96 139 419 78 140 420 96 140 421 83 140 422 97 141 423 36 141 424 37 141 425 36 142 426 97 142 427 88 142 428 97 143 429 37 143 430 49 143 431 97 144 432 49 144 433 98 144 434 98 145 435 49 145 436 99 145 437 99 146 438 49 146 439 51 146 440 88 147 441 87 147 442 36 147 443 36 148 444 87 148 445 35 148 446 35 149 447 87 149 448 31 149 449 31 150 450 87 150 451 28 150 452 28 151 453 87 151 454 100 151 455 28 152 456 100 152 457 101 152 458 100 153 459 87 153 460 79 153 461 101 154 462 100 154 463 102 154 464 100 155 465 79 155 466 85 155 467 100 156 468 85 156 469 102 156 470 103 157 471 86 157 472 88 157 473 86 158 474 103 158 475 104 158 476 86 159 477 104 159 478 91 159 479 104 160 480 103 160 481 105 160 482 105 161 483 103 161 484 97 161 485 105 162 486 97 162 487 98 162 488 103 163 489 88 163 490 97 163 491 104 164 492 105 164 493 106 164 494 104 165 495 106 165 496 107 165 497 104 166 498 107 166 499 108 166 500 107 167 501 106 167 502 109 167 503 107 168 504 109 168 505 110 168 506 54 169 507 55 169 508 53 169 509 111 170 510 99 170 511 112 170 512 99 171 513 111 171 514 105 171 515 113 172 516 112 172 517 99 172 518 113 173 519 99 173 520 51 173 521 113 174 522 51 174 523 54 174 524 113 175 525 54 175 526 56 175 527 96 176 528 81 176 529 83 176 530 83 177 531 81 177 532 114 177 533 81 178 534 96 178 535 115 178 536 81 179 537 116 179 538 117 179 539 116 180 540 81 180 541 82 180 542 118 181 543 119 181 544 83 181 545 118 182 546 83 182 547 114 182 548 116 183 549 120 183 550 117 183 551 119 184 552 118 184 553 121 184 554 119 185 555 121 185 556 122 185 557 105 186 558 98 186 559 99 186 560 91 187 561 104 187 562 108 187 563 91 188 564 108 188 565 123 188 566 91 189 567 123 189 568 93 189 569 93 190 570 123 190 571 124 190 572 12 191 573 22 191 574 13 191 575 28 192 576 13 192 577 101 192 578 32 193 579 101 193 580 13 193 581 32 194 582 13 194 583 30 194 584 13 195 585 34 195 586 15 195 587 15 196 588 34 196 589 27 196 590 27 197 591 34 197 592 93 197 593 42 198 594 27 198 595 93 198 596 46 199 597 45 199 598 48 199 599 31 200 600 101 200 601 102 200 602 31 201 603 102 201 604 93 201 605 31 202 606 93 202 607 34 202 608 93 203 609 102 203 610 85 203 611 119 204 612 84 204 613 83 204 614 84 205 615 119 205 616 125 205 617 125 206 618 119 206 619 122 206 620 84 207 621 125 207 622 126 207 623 126 208 624 125 208 625 127 208 626 128 209 627 116 209 628 90 209 629 90 210 630 116 210 631 82 210 632 116 211 633 128 211 634 120 211 635 128 212 636 125 212 637 129 212 638 125 213 639 128 213 640 90 213 641 125 214 642 90 214 643 130 214 644 130 215 645 90 215 646 92 215 647 92 216 648 90 216 649 89 216 650 130 217 651 92 217 652 126 217 653 126 218 654 92 218 655 84 218 656 129 219 657 125 219 658 122 219 659 131 220 660 112 220 661 113 220 662 132 221 663 113 221 664 56 221 665 42 222 666 93 222 667 133 222 668 42 223 669 133 223 670 56 223 671 124 224 672 133 224 673 93 224 674 133 225 675 124 225 676 56 225 677 132 226 678 124 226 679 123 226 680 132 227 681 123 227 682 108 227 683 132 228 684 108 228 685 134 228 686 132 229 687 134 229 688 135 229 689 135 230 690 134 230 691 136 230 692 134 231 693 108 231 694 137 231 695 137 232 696 108 232 697 107 232 698 134 233 699 137 233 700 138 233 701 56 234 702 124 234 703 132 234 704 139 235 705 140 235 706 141 235 707 139 236 708 141 236 709 142 236 710 139 237 711 142 237 712 143 237 713 143 238 714 142 238 715 141 238 716 140 239 717 139 239 718 144 239 719 144 240 720 139 240 721 145 240 722 144 241 723 145 241 724 141 241 725 144 242 726 141 242 727 146 242 728 144 243 729 146 243 730 147 243 731 144 244 732 147 244 733 140 244 734 147 245 735 146 245 736 148 245 737 147 246 738 148 246 739 149 246 740 147 247 741 149 247 742 150 247 743 147 248 744 150 248 745 140 248 746 150 249 747 149 249 748 151 249 749 150 250 750 151 250 751 152 250 752 140 251 753 150 251 754 153 251 755 153 252 756 150 252 757 152 252 758 140 253 759 153 253 760 141 253 761 153 254 762 152 254 763 148 254 764 141 255 765 153 255 766 146 255 767 146 256 768 153 256 769 148 256 770 143 257 771 141 257 772 154 257 773 154 258 774 141 258 775 145 258 776 143 259 777 154 259 778 139 259 779 139 260 780 154 260 781 145 260 782 73 261 783 70 261 784 76 261 785 73 262 786 76 262 787 155 262 788 74 263 789 73 263 790 156 263 791 74 264 792 156 264 793 157 264 794 74 265 795 157 265 796 158 265 797 74 266 798 158 266 799 159 266 800 158 267 801 157 267 802 160 267 803 159 268 804 158 268 805 161 268 806 161 269 807 158 269 808 160 269 809 162 270 810 161 270 811 109 270 812 109 271 813 161 271 814 163 271 815 109 272 816 163 272 817 110 272 818 163 273 819 161 273 820 164 273 821 164 274 822 161 274 823 160 274 824 163 275 825 164 275 826 165 275 827 163 276 828 165 276 829 166 276 830 165 277 831 164 277 832 167 277 833 165 278 834 167 278 835 166 278 836 167 279 837 164 279 838 160 279 839 167 280 840 160 280 841 166 280 842 166 281 843 160 281 844 168 281 845 168 282 846 160 282 847 169 282 848 77 283 849 155 283 850 76 283 851 155 284 852 77 284 853 170 284 854 170 285 855 77 285 856 171 285 857 171 286 858 77 286 859 72 286 860 171 287 861 72 287 862 159 287 863 159 288 864 72 288 865 74 288 866 73 289 867 155 289 868 156 289 869 156 290 870 155 290 871 157 290 872 157 291 873 155 291 874 172 291 875 77 292 876 69 292 877 72 292 878 72 293 879 71 293 880 74 293 881 173 294 882 160 294 883 174 294 884 160 295 885 173 295 886 175 295 887 173 296 888 174 296 889 176 296 890 176 297 891 174 297 892 162 297 893 174 298 894 160 298 895 170 298 896 162 299 897 174 299 898 177 299 899 177 300 900 174 300 901 170 300 902 162 301 903 177 301 904 159 301 905 162 302 906 159 302 907 161 302 908 159 303 909 177 303 910 170 303 911 159 304 912 170 304 913 171 304 914 170 305 915 160 305 916 157 305 917 170 306 918 157 306 919 172 306 920 170 307 921 172 307 922 155 307 923 162 308 924 109 308 925 178 308 926 178 309 927 109 309 928 106 309 929 178 310 930 106 310 931 110 310 932 178 311 933 110 311 934 166 311 935 178 312 936 166 312 937 179 312 938 178 313 939 179 313 940 180 313 941 180 314 942 179 314 943 181 314 944 179 315 945 166 315 946 175 315 947 179 316 948 175 316 949 182 316 950 175 317 951 166 317 952 183 317 953 175 318 954 183 318 955 160 318 956 160 319 957 183 319 958 169 319 959 184 320 960 185 320 961 186 320 962 184 321 963 186 321 964 187 321 965 184 322 966 187 322 967 188 322 968 187 323 969 186 323 970 189 323 971 188 324 972 187 324 973 190 324 974 187 325 975 189 325 976 185 325 977 187 326 978 185 326 979 190 326 980 190 327 981 185 327 982 184 327 983 190 328 984 184 328 985 191 328 986 96 329 987 94 329 988 114 329 989 96 330 990 114 330 991 115 330 992 117 331 993 120 331 994 118 331 995 118 332 996 120 332 997 192 332 998 118 333 999 192 333 1000 121 333 1001 121 334 1002 192 334 1003 193 334 1004 183 335 1005 94 335 1006 169 335 1007 94 336 1008 183 336 1009 114 336 1010 169 337 1011 94 337 1012 95 337 1013 114 338 1014 183 338 1015 166 338 1016 169 339 1017 95 339 1018 168 339 1019 168 340 1020 95 340 1021 166 340 1022 166 341 1023 95 341 1024 80 341 1025 114 342 1026 166 342 1027 118 342 1028 118 343 1029 166 343 1030 117 343 1031 117 344 1032 166 344 1033 115 344 1034 117 345 1035 115 345 1036 81 345 1037 107 346 1038 110 346 1039 194 346 1040 194 347 1041 110 347 1042 106 347 1043 194 348 1044 106 348 1045 135 348 1046 135 349 1047 106 349 1048 111 349 1049 111 350 1050 106 350 1051 105 350 1052 131 351 1053 111 351 1054 112 351 1055 111 352 1056 131 352 1057 135 352 1058 135 353 1059 131 353 1060 113 353 1061 135 354 1062 113 354 1063 132 354 1064 166 355 1065 110 355 1066 163 355 1067 195 356 1068 194 356 1069 135 356 1070 195 357 1071 135 357 1072 196 357 1073 196 358 1074 135 358 1075 136 358 1076 197 359 1077 198 359 1078 175 359 1079 175 360 1080 198 360 1081 199 360 1082 198 361 1083 197 361 1084 200 361 1085 200 362 1086 197 362 1087 201 362 1088 201 363 1089 197 363 1090 202 363 1091 201 364 1092 202 364 1093 203 364 1094 202 365 1095 197 365 1096 176 365 1097 197 366 1098 175 366 1099 173 366 1100 204 367 1101 175 367 1102 199 367 1103 181 368 1104 179 368 1105 182 368 1106 199 369 1107 198 369 1108 200 369 1109 199 370 1110 200 370 1111 205 370 1112 199 371 1113 205 371 1114 206 371 1115 205 372 1116 200 372 1117 207 372 1118 205 373 1119 207 373 1120 206 373 1121 207 374 1122 200 374 1123 201 374 1124 206 375 1125 207 375 1126 203 375 1127 203 376 1128 207 376 1129 201 376 1130 181 377 1131 208 377 1132 180 377 1133 180 378 1134 208 378 1135 209 378 1136 208 379 1137 181 379 1138 210 379 1139 209 380 1140 208 380 1141 211 380 1142 211 381 1143 208 381 1144 210 381 1145 209 382 1146 211 382 1147 212 382 1148 212 383 1149 211 383 1150 213 383 1151 213 384 1152 211 384 1153 214 384 1154 214 385 1155 211 385 1156 210 385 1157 214 386 1158 210 386 1159 215 386 1160 180 387 1161 196 387 1162 178 387 1163 196 388 1164 180 388 1165 209 388 1166 178 389 1167 196 389 1168 202 389 1169 178 390 1170 202 390 1171 162 390 1172 162 391 1173 202 391 1174 176 391 1175 196 392 1176 212 392 1177 202 392 1178 202 393 1179 212 393 1180 203 393 1181 203 394 1182 212 394 1183 206 394 1184 206 395 1185 212 395 1186 213 395 1187 173 396 1188 189 396 1189 216 396 1190 189 397 1191 173 397 1192 197 397 1193 189 398 1194 197 398 1195 176 398 1196 216 399 1197 176 399 1198 173 399 1199 176 400 1200 185 400 1201 216 400 1202 216 401 1203 186 401 1204 185 401 1205 186 402 1206 216 402 1207 189 402 1208 191 403 1209 184 403 1210 217 403 1211 217 404 1212 184 404 1213 188 404 1214 130 405 1215 127 405 1216 125 405 1217 127 406 1218 130 406 1219 126 406 1220 120 407 1221 122 407 1222 121 407 1223 122 408 1224 120 408 1225 129 408 1226 120 409 1227 121 409 1228 193 409 1229 120 410 1230 193 410 1231 192 410 1232 120 411 1233 128 411 1234 129 411 1235 137 412 1236 107 412 1237 194 412 1238 137 413 1239 194 413 1240 136 413 1241 136 414 1242 194 414 1243 209 414 1244 137 415 1245 136 415 1246 215 415 1247 215 416 1248 136 416 1249 134 416 1250 137 417 1251 215 417 1252 138 417 1253 138 418 1254 215 418 1255 210 418 1256 218 419 1257 219 419 1258 220 419 1259 220 420 1260 219 420 1261 221 420 1262 218 421 1263 220 421 1264 138 421 1265 138 422 1266 220 422 1267 221 422 1268 219 423 1269 218 423 1270 222 423 1271 222 424 1272 218 424 1273 138 424 1274 222 425 1275 138 425 1276 223 425 1277 219 426 1278 222 426 1279 181 426 1280 181 427 1281 222 427 1282 210 427 1283 210 428 1284 222 428 1285 221 428 1286 210 429 1287 221 429 1288 223 429 1289 223 430 1290 221 430 1291 224 430 1292 223 431 1293 224 431 1294 134 431 1295 224 432 1296 221 432 1297 225 432 1298 224 433 1299 225 433 1300 149 433 1301 149 434 1302 225 434 1303 151 434 1304 151 435 1305 225 435 1306 152 435 1307 225 436 1308 221 436 1309 226 436 1310 225 437 1311 226 437 1312 152 437 1313 226 438 1314 221 438 1315 219 438 1316 152 439 1317 226 439 1318 227 439 1319 152 440 1320 227 440 1321 148 440 1322 148 441 1323 227 441 1324 228 441 1325 148 442 1326 228 442 1327 149 442 1328 149 443 1329 228 443 1330 224 443 1331 223 444 1332 134 444 1333 138 444 1334 196 445 1335 136 445 1336 209 445 1337 181 446 1338 182 446 1339 219 446 1340 219 447 1341 182 447 1342 204 447 1343 199 448 1344 219 448 1345 204 448 1346 219 449 1347 199 449 1348 206 449 1349 219 450 1350 206 450 1351 229 450 1352 229 451 1353 206 451 1354 230 451 1355 229 452 1356 230 452 1357 231 452 1358 229 453 1359 231 453 1360 232 453 1361 229 454 1362 232 454 1363 219 454 1364 219 455 1365 232 455 1366 233 455 1367 219 456 1368 233 456 1369 226 456 1370 233 457 1371 232 457 1372 234 457 1373 233 458 1374 234 458 1375 230 458 1376 195 459 1377 209 459 1378 194 459 1379 209 460 1380 195 460 1381 212 460 1382 212 461 1383 195 461 1384 196 461 1385 215 462 1386 235 462 1387 214 462 1388 214 463 1389 235 463 1390 213 463 1391 235 464 1392 215 464 1393 134 464 1394 235 465 1395 134 465 1396 224 465 1397 235 466 1398 224 466 1399 228 466 1400 235 467 1401 228 467 1402 227 467 1403 233 468 1404 206 468 1405 213 468 1406 206 469 1407 233 469 1408 230 469 1409 233 470 1410 213 470 1411 235 470 1412 233 471 1413 235 471 1414 227 471 1415 233 472 1416 227 472 1417 226 472 1418 190 473 1419 191 473 1420 188 473 1421 188 474 1422 191 474 1423 236 474 1424 188 475 1425 236 475 1426 217 475 1427 217 476 1428 236 476 1429 237 476 1430 237 477 1431 236 477 1432 231 477 1433 231 478 1434 236 478 1435 232 478 1436 232 479 1437 236 479 1438 234 479 1439 234 480 1440 236 480 1441 191 480 1442 234 481 1443 191 481 1444 217 481 1445 234 482 1446 217 482 1447 237 482 1448 234 483 1449 237 483 1450 230 483 1451 230 484 1452 237 484 1453 231 484 1454 166 485 1455 80 485 1456 81 485 1457 182 486 1458 175 486 1459 204 486 1460 30 487 1461 22 487 1462 29 487 1463 101 488 1464 32 488 1465 31 488 1466 189 489 1467 176 489 1468 185 489 1469</p>
        </polylist>
      </mesh>
    </geometry>
    <geometry id="CrossbowString-mesh" name="CrossbowString">
      <mesh>
        <source id="CrossbowString-mesh-positions">
          <float_array id="CrossbowString-mesh-positions-array" count="261">0.014842 0.219208 0.451538 0.017799 0.228302 0.459808 0.008938 0.227509 0.443298 0.020573 0.222321 0.418854 0.000877 0.216431 0.43515 -0.003752 0.222382 0.452911 0.005618 0.229889 0.462891 0.008749 0.2323 0.427124 0.010325 0.228088 0.409027 0.013771 0.222839 0.407471 0.005093 0.228516 0.408539 -0.003984 0.220795 0.415405 0.002109 0.219879 0.409241 0.009435 0.213501 0.41983 0.010608 0.217102 0.366302 0.01294 0.220001 0.298508 0.001768 0.225616 0.33313 0.011525 0.227325 0.315186 0.002687 0.219391 0.265762 0.00104 0.223511 0.23172 0.013648 0.223328 0.277359 0.013679 0.223816 0.1884 0.00548 0.22879 0.2397 0.011113 0.227661 0.21077 0.007805 0.21701 0.275803 0.012086 0.218445 0.188797 0.005872 0.217255 0.131897 0.000638 0.22348 0.118656 0.006406 0.229187 0.121864 0.014309 0.221161 0.106747 0.013657 0.227264 0.104549 0.006159 0.230469 0.102104 0.013307 0.227234 0.004658 0.012823 0.218872 0.019119 0.005701 0.228302 0.00465 0.001773 0.223694 0.04179 0.004413 0.21933 0.013321 0.00192 0.227173 -0.02639 0.015001 0.222412 -0.028069 0.011856 0.249847 -0.040344 0.006992 0.235229 -0.03212 0.000282 -0.741455 -0.131302 -0.003176 0.167755 -0.17601 0.019455 0.170593 -0.167267 -0.000189 0.174103 -0.168198 0.018896 0.155518 -0.184097 -0.008238 0.181946 -0.183182 0.006769 0.165314 -0.202148 0.004064 0.191467 -0.19165 0.021006 0.186676 -0.184662 0.007382 0.155701 -0.195862 0.007632 0.129852 -0.189423 -0.006876 0.160919 -0.187057 0.001121 0.121307 -0.202637 0.006206 0.109253 -0.217743 0.000487 0.078064 -0.227814 0.015728 0.108246 -0.212738 0.013535 0.079651 -0.230743 0.014325 0.096283 -0.212799 0.006628 0.083527 -0.214722 0.014357 0.052887 -0.239105 0.007919 0.045135 -0.235748 0.000381 0.046265 -0.24231 0.007295 0.039703 -0.2323 0.007204 0.025208 -0.240936 -0.000249 0.010254 -0.260132 0.001649 0.016815 -0.262299 0.008446 0.046692 -0.249573 0.005141 -0.021667 -0.267273 0.013478 0.001251 -0.264343 0.011797 0.027344 -0.257477 0.010054 -0.017838 -0.28244 -0.000638 -0.032745 -0.287445 -0.001992 -0.073425 -0.306702 0.009441 -0.071136 -0.312561 0.007294 -0.069168 -0.295685 0.013021 -0.05162 -0.294495 0.016047 -0.089401 -0.306183 -0.007894 -0.088715 -0.306274 0.004612 -0.113647 -0.312317 -0.004059 -0.080048 -0.320068 -0.004638 -0.105743 -0.321198 0.011928 -0.078339 -0.321564 0.016045 -0.103439 -0.320404 0.003141 -0.096909 -0.329773 -0.004366 -0.115005 -0.334808 0.01581 -0.116226 -0.330872</float_array>
          <technique_common>
            <accessor source="#CrossbowString-mesh-positions-array" count="87" stride="3">
              <param name="X" type="float"/>
              <param name="Y" type="float"/>
              <param name="Z" type="float"/>
            </accessor>
          </technique_common>
        </source>
        <source id="CrossbowString-mesh-normals">
          <float_array id="CrossbowString-mesh-normals-array" count="492">-0.868442 -0.147944 0.473203 0.158657 0.97845 -0.132148 -0.765495 0.08823 0.637364 0.304756 -0.876331 0.373051 0.715 -0.669173 0.202441 -0.485965 0.85394 -0.186076 -0.168192 0.944623 0.281778 0.708147 0.679199 0.192915 -0.901587 0.280812 -0.329067 0.581701 0.801954 -0.135993 0.708823 0.583041 -0.39703 0.099701 0.970997 -0.217313 -0.658104 0.752552 -0.023763 -0.778821 0.544143 0.312003 -0.686121 0.179753 -0.70493 -0.394133 -0.881941 -0.258533 -0.454305 -0.886861 -0.084167 -0.015199 -0.983617 0.179629 0.622299 -0.782013 0.034634 0.906637 -0.404349 0.120463 0.557503 -0.744636 -0.367026 -0.598464 -0.798358 -0.066823 0.902227 -0.431162 -0.009234 0.853394 -0.521218 0.007067 0.085355 0.995463 -0.042046 -0.944053 0.328518 0.028992 0.836782 0.5475 0.006249 -0.994211 -0.107384 -0.00364 -0.960197 -0.279034 0.012685 0.975782 -0.21874 -0.001745 0.886655 0.46243 0.0009 0.977012 -0.213182 -0.000829 -0.399937 0.916416 0.015243 -0.759244 0.650756 -0.008058 0.284292 0.958729 -0.00416 0.207992 0.978128 0.002327 -0.267913 -0.963398 0.009277 -0.42402 -0.905652 0.001372 0.556365 -0.830777 -0.016388 0.473964 -0.8805 0.008799 0.875589 0.483053 -0.0019 -0.428597 -0.903486 0.004219 -0.88463 -0.466095 -0.01361 -0.768437 -0.639919 0.002908 -0.703984 0.710212 0.002308 0.229813 -0.973223 -0.004744 0.368338 -0.929459 -0.020787 0.99264 0.117129 0.030771 0.840448 0.541883 0.003265 0.958646 -0.284581 -0.003426 0.95841 -0.285143 -0.011977 0.879831 0.474895 0.019297 0.262307 0.964981 0.002676 0.22126 0.975202 0.005024 -0.762451 0.647035 -0.003812 -0.717335 0.69463 0.054033 0.377154 0.9245 0.055266 0.393502 0.919322 -0.001655 0.997958 -0.063777 -0.003478 0.139039 0.990027 -0.022668 -0.796123 0.605051 -0.010071 -0.798044 0.602522 -0.009647 -0.751616 -0.659474 -0.012934 -0.993958 0.046693 -0.09933 -0.8518 -0.523865 0.001314 -0.042712 -0.998944 -0.016955 0.457658 -0.888994 0.015461 0.99487 0.099275 -0.019464 -0.96386 0.243287 0.108559 -0.355652 -0.920899 -0.159552 -0.002648 -0.997185 -0.07493 -0.264001 -0.418971 -0.868773 0.998531 0.025173 0.047976 0.852219 0.522155 -0.032822 0.136377 0.97265 0.188023 0.226337 0.419308 0.879177 -0.817386 0.570675 0.078809 0.422145 0.333726 0.842865 -0.162461 -0.73445 0.65893 -0.163636 -0.732129 0.661219 -0.897846 -0.104039 0.427842 -0.849796 -0.445508 -0.281725 -0.241679 0.800308 0.548724 -0.662545 0.218998 -0.716292 -0.016931 0.805037 0.592984 0.441982 0.373152 -0.815726 0.097551 0.726402 0.680312 0.997386 -0.067054 0.026934 0.811478 -0.065483 -0.580703 0.65732 -0.382632 -0.649248 0.190289 -0.278842 0.941295 -0.7679 -0.396894 0.502797 -0.566898 0.771887 -0.287779 -0.567375 -0.204204 -0.797738 -0.581845 -0.470772 -0.663197 -0.915093 0.089114 0.393272 -0.841042 0.247823 -0.480866 -0.796054 0.313196 -0.517887 0.462797 0.368164 -0.806396 0.452305 0.450113 -0.769947 0.672148 0.350205 -0.65236 0.663509 -0.419716 0.61935 0.90382 -0.10811 0.414031 0.509919 -0.420793 0.750277 -0.768315 -0.293882 0.568618 -0.819099 -0.27962 0.50089 0.991093 -0.116562 0.064406 0.992911 0.062151 -0.101321 0.482776 -0.408116 0.774834 -0.807413 -0.304053 0.505604 0.730465 -0.353633 0.584264 -0.649791 -0.313498 0.692453 -0.228283 0.540316 0.809904 -0.525652 0.498121 0.689613 -0.769645 -0.323219 0.550614 -0.863529 -0.21147 0.45782 -0.936149 0.168975 -0.308337 -0.618698 0.422798 -0.662159 -0.818634 -0.253514 0.515333 0.87347 -0.253236 0.415838 0.755376 -0.345939 0.556538 0.840952 -0.249101 0.480363 0.930198 0.148281 -0.335774 0.697082 0.371301 -0.613361 0.931818 0.147309 -0.331687 0.040127 0.383822 -0.922535 -0.08892 0.484307 -0.870368 -0.607629 0.342762 -0.716451 -0.643443 0.319299 -0.695722 0.279952 0.443277 -0.851547 0.796592 0.202433 -0.569615 -0.891778 -0.23683 0.385544 -0.932312 -0.128921 0.337895 -0.480668 0.38821 -0.786289 -0.601609 -0.429941 0.673214 0.783016 -0.292763 0.548795 0.732886 -0.341812 0.588254 -0.944212 0.182627 -0.274064 0.88864 0.221371 -0.401638 -0.221354 0.449354 -0.865496 -0.27188 0.475843 -0.836454 0.879102 0.226804 -0.419213 -0.01672 -0.466178 0.884533 -0.782011 0.316883 0.536697 -0.010582 -0.240556 0.970578 -0.932698 0.359082 -0.033691 -0.78462 -0.486665 0.384094 -0.968061 0.032745 -0.248566 0.93586 -0.316002 0.155913 0.9289 0.362467 0.075907 0.941414 0.337114 -0.009656 0.97654 0.153181 -0.151347 -0.140645 0.753766 -0.641915 -0.360517 0.856755 -0.368779 0.607027 0.062956 -0.792184 -0.130886 0.45199 -0.882368 0.582334 -0.015424 -0.812803 -0.762785 0.045556 -0.645046 -0.842748 0.437049 -0.314267 0.749552 -0.47114 0.464972 0.744937 -0.430742 0.509441 0.18618 0.620326 -0.761927 -0.077838 -0.992803 0.091017 -0.778392 -0.526126 0.342487</float_array>
          <technique_common>
            <accessor source="#CrossbowString-mesh-normals-array" count="164" stride="3">
              <param name="X" type="float"/>
              <param name="Y" type="float"/>
              <param name="Z" type="float"/>
            </accessor>
          </technique_common>
        </source>
        <source id="CrossbowString-mesh-map-0">
          <float_array id="CrossbowString-mesh-map-0-array" count="984">0.986503 0.948182 0.983585 0.991677 0.96486 0.925068 0.96486 0.925068 0.983585 0.991677 0.91367 0.939483 0.986503 0.948182 0.96486 0.925068 0.983828 0.868152 0.516552 0.023859 0.549259 0 0.520442 0.084504 0.520442 0.084504 0.549259 0 0.554123 0.060892 0.771529 0.140425 0.807156 0.126756 0.790984 0.193862 0.790984 0.193862 0.807156 0.126756 0.838891 0.144899 0.838891 0.144899 0.807156 0.126756 0.854454 0.086244 0.790984 0.193862 0.838891 0.144899 0.826732 0.226669 0.838891 0.144899 0.854454 0.086244 0.878165 0.128496 0.878165 0.128496 0.854454 0.086244 0.882542 0.105381 0.838891 0.144899 0.878165 0.128496 0.879624 0.147633 0.838891 0.144899 0.879624 0.147633 0.866614 0.191128 0.838891 0.144899 0.866614 0.191128 0.826732 0.226669 0.866614 0.191128 0.879624 0.147633 0.883637 0.192122 0.866614 0.191128 0.883637 0.192122 0.861993 0.246303 0.866614 0.191128 0.861993 0.246303 0.826732 0.226669 0.826732 0.226669 0.861993 0.246303 0.823084 0.313161 0.823084 0.313161 0.861993 0.246303 0.874639 0.302474 0.55692 0.576366 0.5737 0.447125 0.573578 0.613647 0.557406 0.086741 0.557406 0.022369 0.579171 0.051199 0.813114 0.060147 0.82199 0.042749 0.85871 0.05617 0.813114 0.060147 0.85871 0.05617 0.824543 0.075557 0.824543 0.075557 0.85871 0.05617 0.916466 0.049211 0.532237 0.222941 0.536736 0.222196 0.52944 0.355413 0.532237 0.222941 0.52944 0.355413 0.524455 0.221698 0.560811 0.91786 0.560811 0.755811 0.566282 0.920097 0.874517 0.423513 0.877679 0.521687 0.873301 0.608427 0.873301 0.608427 0.877679 0.521687 0.876098 0.652419 0.958172 0.27936 0.95185 0.266684 1 0.269915 1 0.269915 0.95185 0.266684 0.966076 0.251523 0.95185 0.266684 0.958172 0.27936 0.918655 0.258234 0.725567 0.089226 0.830623 0.085995 0.772867 0.096931 0.772867 0.096931 0.830623 0.085995 0.83573 0.095191 0.740767 0.808502 0.68143 0.811485 0.633644 0.804277 0.633644 0.804277 0.68143 0.811485 0.615406 0.811982 0.54622 0.589289 0.539654 0.634773 0.544518 0.491365 0.544518 0.491365 0.539654 0.634773 0.539411 0.480429 0.879746 0.542564 0.883637 0.572141 0.881691 0.660621 0.883637 0.572141 0.879746 0.542564 0.882177 0.428732 0.520199 0.2468 0.516552 0.33379 0.517646 0.197092 0.68982 0.856222 0.695656 0.84653 0.768854 0.863181 0.768854 0.863181 0.695656 0.84653 0.714624 0.84479 0.768854 0.863181 0.714624 0.84479 0.776758 0.851501 0.776758 0.851501 0.714624 0.84479 0.775056 0.838327 0.696021 0.788868 0.613946 0.801543 0.646168 0.788868 0.646168 0.788868 0.613946 0.801543 0.599112 0.790607 0.646168 0.788868 0.599112 0.790607 0.597775 0.780667 0.506824 0.597492 0.506824 0.713063 0.503906 0.683984 0.842174 0.904688 0.790376 0.881574 0.789768 0.871384 0.789768 0.871384 0.790376 0.881574 0.754141 0.903694 0.789768 0.871384 0.754141 0.903694 0.792322 0.842055 0.792322 0.842055 0.754141 0.903694 0.757546 0.885799 0.577834 0.978256 0.652004 0.988198 0.633523 0.99292 0.652004 0.988198 0.577834 0.978256 0.647263 0.978504 0.81056 0.062383 0.79451 0.059898 0.808736 0.048217 0.79451 0.059898 0.81056 0.062383 0.796334 0.073567 0.79451 0.059898 0.796334 0.073567 0.715232 0.06636 0.715232 0.06636 0.796334 0.073567 0.726662 0.081521 0.79451 0.059898 0.715232 0.06636 0.716205 0.037281 0.808736 0.048217 0.79451 0.059898 0.746725 0.034547 0.746725 0.034547 0.79451 0.059898 0.716205 0.037281 0.808736 0.048217 0.746725 0.034547 0.820166 0.037033 0.746725 0.034547 0.716205 0.037281 0.724109 0.021374 0.746725 0.034547 0.724109 0.021374 0.820166 0.037033 0.820166 0.037033 0.724109 0.021374 0.729459 0.008201 0.820166 0.037033 0.729459 0.008201 0.800468 0.017646 0.800468 0.017646 0.729459 0.008201 0.79913 0.006959 0.766057 0.613895 0.740888 0.593017 0.746482 0.478192 0.766057 0.613895 0.746482 0.478192 0.777852 0.463776 0.766057 0.613895 0.777852 0.463776 0.78077 0.632784 0.777852 0.463776 0.746482 0.478192 0.740645 0.383747 0.575767 0.452592 0.590601 0.573134 0.576253 0.629802 0.590601 0.573134 0.575767 0.452592 0.608475 0.444639 0.590601 0.573134 0.608475 0.444639 0.603855 0.590036 0.608475 0.444639 0.575767 0.452592 0.604341 0.379272 0.603855 0.590036 0.608475 0.444639 0.621121 0.482417 0.621121 0.482417 0.608475 0.444639 0.604341 0.379272 0.77854 0.629804 0.818627 0.569985 0.808912 0.636667 0.818627 0.569985 0.77854 0.629804 0.782106 0.523407 0.77854 0.629804 0.808912 0.636667 0.786656 0.675158 0.77854 0.629804 0.786656 0.675158 0.746446 0.72664 0.786656 0.675158 0.808912 0.636667 0.790345 0.728846 0.786656 0.675158 0.790345 0.728846 0.746446 0.72664 0.790345 0.728846 0.808912 0.636667 0.810511 0.792586 0.790345 0.728846 0.810511 0.792586 0.746446 0.72664 0.961389 0.694525 1 0.684228 0.969874 0.755323 1 0.684228 0.961389 0.694525 0.963971 0.622693 1 0.684228 0.963971 0.622693 0.998647 0.583469 0.998647 0.583469 0.963971 0.622693 0.976391 0.574889 0.545645 0.827153 0.496582 0.829115 0.497812 0.709724 0.545645 0.827153 0.497812 0.709724 0.52388 0.732769 0.52388 0.732769 0.497812 0.709724 0.544907 0.708007 0.545645 0.827153 0.52388 0.732769 0.552162 0.736936 0.552162 0.736936 0.52388 0.732769 0.544907 0.708007 0.665659 0.174796 0.64082 0.191221 0.616472 0.134836 0.665659 0.174796 0.616472 0.134836 0.690743 0.139984 0.665659 0.174796 0.690743 0.139984 0.716689 0.197841 0.690743 0.139984 0.616472 0.134836 0.688776 0.104191 0.690743 0.139984 0.688776 0.104191 0.718165 0.131894 0.688776 0.104191 0.616472 0.134836 0.607619 0.084579 0.688776 0.104191 0.607619 0.084579 0.651517 0.046825 0.688776 0.104191 0.651517 0.046825 0.697752 0.078941 0.697752 0.078941 0.651517 0.046825 0.707958 0.039225 0.707958 0.039225 0.651517 0.046825 0.662216 0 0.608603 0.944092 0.550932 0.913202 0.625449 0.912712 0.829079 0.837695 0.878879 0.844314 0.862894 0.861965 0.829079 0.837695 0.862894 0.861965 0.788623 0.85363 0.550686 0.249078 0.572451 0.279231 0.564459 0.399112 0.564459 0.399112 0.572451 0.279231 0.584625 0.311837 0.550686 0.249078 0.564459 0.399112 0.549334 0.390777 0.564459 0.399112 0.584625 0.311837 0.576878 0.412596 0.549334 0.390777 0.564459 0.399112 0.564827 0.418479 0.564827 0.418479 0.564459 0.399112 0.576878 0.412596 0.914539 0.846031 0.912818 0.887952 0.888963 0.794547 0.888963 0.794547 0.912818 0.887952 0.894742 0.894816 0.888963 0.794547 0.894742 0.894816 0.881462 0.805334 0.881462 0.805334 0.894742 0.894816 0.880478 0.892364 0.914539 0.846031 0.888963 0.794547 0.9154 0.724923 0.912818 0.887952 0.914539 0.846031 0.940731 0.908544 0.914539 0.846031 0.9154 0.724923 0.940239 0.769542 0.914539 0.846031 0.940239 0.769542 0.940731 0.908544 0.940731 0.908544 0.940239 0.769542 0.950568 0.836469 0.940731 0.908544 0.950568 0.836469 0.95106 0.89457 0.950568 0.836469 0.940239 0.769542 0.962373 0.726885 0.95106 0.89457 0.950568 0.836469 0.976391 0.821515 0.976391 0.821515 0.950568 0.836469 0.962373 0.726885 0.543062 0.57636 0.571959 0.725168 0.532242 0.66339 0.532242 0.66339 0.571959 0.725168 0.558065 0.731543 0.571959 0.725168 0.543062 0.57636 0.570484 0.634216 0.571959 0.725168 0.570484 0.634216 0.584133 0.694525 0.727879 0.287322 0.694801 0.227994 0.749521 0.242458 0.727879 0.287322 0.749521 0.242458 0.809773 0.259619 0.809773 0.259619 0.749521 0.242458 0.811741 0.235349 0.727879 0.287322 0.809773 0.259619 0.798707 0.293451 0.727879 0.287322 0.798707 0.293451 0.777188 0.315024 0.727879 0.287322 0.777188 0.315024 0.709803 0.348365 0.999385 0.777141 0.961266 0.904867 0.950814 0.907319 0.55499 0.097572 0.588683 0.027458 0.622375 0.003923 0.605037 0.080657 0.579829 0.080902 0.625449 0.007845 0.579829 0.080902 0.605037 0.080657 0.569623 0.183867 0.569623 0.183867 0.605037 0.080657 0.60184 0.160331 0.570484 0.146849 0.555728 0.231427 0.53175 0.161557 0.53175 0.161557 0.555728 0.231427 0.530029 0.214266 0.570484 0.146849 0.53175 0.161557 0.54048 0.07183 0.53175 0.161557 0.530029 0.214266 0.509001 0.186073 0.54048 0.07183 0.53175 0.161557 0.512936 0.096592 0.512936 0.096592 0.53175 0.161557 0.509001 0.186073 0.626187 0.547431 0.608726 0.59254 0.613029 0.507226 0.608726 0.59254 0.626187 0.547431 0.643156 0.623429 0.608726 0.59254 0.643156 0.623429 0.612661 0.632745 0.612661 0.632745 0.643156 0.623429 0.640697 0.697957 0.608726 0.59254 0.612661 0.632745 0.586961 0.641081 0.608726 0.59254 0.586961 0.641081 0.585731 0.60014 0.612661 0.632745 0.640697 0.697957 0.608357 0.702369 0.612661 0.632745 0.608357 0.702369 0.586961 0.641081 0.608357 0.702369 0.640697 0.697957 0.61057 0.769297 0.586961 0.641081 0.608357 0.702369 0.586346 0.729827 0.586346 0.729827 0.608357 0.702369 0.61057 0.769297 0.956716 0.144641 0.998401 0.199802 0.969136 0.244665 0.998401 0.199802 0.956716 0.144641 0.986105 0.14268 0.998401 0.199802 0.986105 0.14268 0.999508 0.067908 0.999508 0.067908 0.986105 0.14268 0.956716 0.144641 0.999508 0.067908 0.956716 0.144641 0.963356 0.079676</float_array>
          <technique_common>
            <accessor source="#CrossbowString-mesh-map-0-array" count="492" stride="2">
              <param name="S" type="float"/>
              <param name="T" type="float"/>
            </accessor>
          </technique_common>
        </source>
        <vertices id="CrossbowString-mesh-vertices">
          <input semantic="POSITION" source="#CrossbowString-mesh-positions"/>
        </vertices>
        <polylist material="Material_-1-material" count="6">
          <input semantic="VERTEX" source="#CrossbowString-mesh-vertices" offset="0"/>
          <input semantic="NORMAL" source="#CrossbowString-mesh-normals" offset="1"/>
          <input semantic="TEXCOORD" source="#CrossbowString-mesh-map-0" offset="2" set="0"/>
          <vcount>3 3 3 3 3 3 3 3 3 3 3 3 3 3 3 3 3 3 3 3 3 3 3 3 3 3 3 3 3 3 3 3 3 3 3 3 3 3 3 3 3 3 3 3 3 3 3 3 3 3 3 3 3 3 3 3 3 3 3 3 3 3 3 3 3 3 3 3 3 3 3 3 3 3 3 3 3 3 3 3 3 3 3 3 3 3 3 3 3 3 3 3 3 3 3 3 3 3 3 3 3 3 3 3 3 3 3 3 3 3 3 3 3 3 3 3 3 3 3 3 3 3 3 3 3 3 3 3 3 3 3 3 3 3 3 3 3 3 3 3 3 3 3 3 3 3 3 3 3 3 3 3 3 3 3 3 3 3 3 3 3 3 3 3</vcount>
          <p>0 0 0 1 0 1 2 0 2 2 1 3 1 1 4 3 1 5 0 2 6 2 2 7 4 2 8 5 3 9 4 3 10 6 3 11 6 4 12 4 4 13 2 4 14 6 5 15 2 5 16 5 5 17 5 6 18 2 6 19 7 6 20 7 7 21 2 7 22 3 7 23 5 8 24 7 8 25 4 8 26 7 9 27 3 9 28 8 9 29 8 10 30 3 10 31 9 10 32 7 11 33 8 11 34 10 11 35 7 12 36 10 12 37 11 12 38 7 13 39 11 13 40 4 13 41 11 14 42 10 14 43 12 14 44 11 15 45 12 15 46 13 15 47 11 16 48 13 16 49 4 16 50 4 17 51 13 17 52 0 17 53 0 18 54 13 18 55 3 18 56 0 19 57 3 19 58 1 19 59 13 20 60 9 20 61 3 20 62 13 21 63 12 21 64 14 21 65 13 22 66 14 22 67 9 22 68 9 23 69 14 23 70 15 23 71 10 24 72 8 24 73 16 24 74 10 25 75 16 25 76 12 25 77 9 26 78 17 26 79 8 26 80 12 27 81 16 27 82 18 27 83 18 28 84 16 28 85 19 28 86 15 29 87 20 29 88 9 29 89 9 30 90 20 30 91 17 30 92 20 31 93 15 31 94 21 31 95 8 32 96 22 32 97 16 32 98 16 33 99 22 33 100 19 33 101 8 34 102 17 34 103 22 34 104 22 35 105 17 35 106 23 35 107 14 36 108 12 36 109 24 36 110 24 37 111 12 37 112 18 37 113 24 38 114 15 38 115 14 38 116 15 39 117 24 39 118 25 39 119 20 40 120 23 40 121 17 40 122 24 41 123 18 41 124 26 41 125 26 42 126 18 42 127 19 42 128 26 43 129 19 43 130 27 43 131 27 44 132 19 44 133 28 44 134 24 45 135 26 45 136 25 45 137 25 46 138 26 46 139 29 46 140 25 47 141 29 47 142 30 47 143 20 48 144 21 48 145 23 48 146 15 49 147 25 49 148 21 49 149 21 50 150 25 50 151 30 50 152 21 51 153 30 51 154 23 51 155 23 52 156 30 52 157 28 52 158 28 53 159 22 53 160 23 53 161 22 54 162 28 54 163 19 54 164 28 55 165 31 55 166 27 55 167 31 56 168 28 56 169 30 56 170 31 57 171 30 57 172 32 57 173 32 58 174 30 58 175 33 58 176 31 59 177 32 59 178 34 59 179 27 60 180 31 60 181 35 60 182 35 61 183 31 61 184 34 61 185 27 62 186 35 62 187 26 62 188 35 63 189 34 63 190 36 63 191 35 64 192 36 64 193 26 64 194 26 65 195 36 65 196 33 65 197 26 66 198 33 66 199 29 66 200 29 67 201 33 67 202 30 67 203 36 68 204 34 68 205 37 68 206 36 69 207 37 69 208 38 69 209 36 70 210 38 70 211 33 70 212 38 71 213 37 71 214 39 71 215 38 72 216 32 72 217 33 72 218 32 73 219 38 73 220 40 73 221 32 74 222 40 74 223 34 74 224 40 75 225 38 75 226 39 75 227 34 76 228 40 76 229 37 76 230 37 77 231 40 77 232 39 77 233 42 78 234 43 78 235 44 78 236 43 79 237 42 79 238 45 79 239 42 80 240 44 80 241 46 80 242 42 81 243 46 81 244 47 81 245 46 82 246 44 82 247 48 82 248 46 83 249 48 83 250 47 83 251 48 84 252 44 84 253 49 84 254 48 85 255 49 85 256 47 85 257 43 86 258 49 86 259 44 86 260 49 87 261 43 87 262 45 87 263 49 88 264 45 88 265 47 88 266 47 89 267 45 89 268 50 89 269 51 90 270 45 90 271 42 90 272 51 91 273 42 91 274 52 91 275 52 92 276 42 92 277 47 92 278 51 93 279 52 93 280 50 93 281 50 94 282 52 94 283 47 94 284 53 95 285 51 95 286 50 95 287 53 96 288 50 96 289 54 96 290 53 97 291 54 97 292 55 97 293 54 98 294 50 98 295 56 98 296 54 99 297 56 99 298 57 99 299 56 100 300 50 100 301 45 100 302 56 101 303 45 101 304 51 101 305 56 102 306 51 102 307 58 102 308 58 103 309 51 103 310 59 103 311 59 104 312 51 104 313 53 104 314 59 105 315 53 105 316 55 105 317 57 106 318 56 106 319 58 106 320 57 107 321 58 107 322 60 107 323 58 108 324 59 108 325 61 108 326 61 109 327 59 109 328 55 109 329 58 110 330 61 110 331 60 110 332 61 111 333 55 111 334 62 111 335 60 112 336 61 112 337 63 112 338 63 113 339 61 113 340 62 113 341 64 114 342 63 114 343 65 114 344 65 115 345 63 115 346 62 115 347 65 116 348 62 116 349 66 116 350 66 117 351 62 117 352 67 117 353 64 118 354 65 118 355 68 118 356 63 119 357 64 119 358 60 119 359 64 120 360 68 120 361 69 120 362 64 121 363 69 121 364 60 121 365 60 122 366 69 122 367 70 122 368 60 123 369 70 123 370 67 123 371 70 124 372 69 124 373 71 124 374 67 125 375 70 125 376 66 125 377 66 126 378 70 126 379 71 126 380 54 127 381 67 127 382 55 127 383 55 128 384 67 128 385 62 128 386 67 129 387 54 129 388 57 129 389 67 130 390 57 130 391 60 130 392 68 131 393 65 131 394 72 131 395 68 132 396 72 132 397 73 132 398 73 133 399 72 133 400 74 133 401 68 134 402 73 134 403 75 134 404 68 135 405 75 135 406 76 135 407 68 136 408 76 136 409 69 136 410 72 137 411 65 137 412 66 137 413 76 138 414 71 138 415 69 138 416 71 139 417 72 139 418 66 139 419 72 140 420 71 140 421 74 140 422 74 141 423 71 141 424 76 141 425 77 142 426 75 142 427 78 142 428 78 143 429 75 143 430 73 143 431 77 144 432 78 144 433 79 144 434 78 145 435 73 145 436 80 145 437 79 146 438 78 146 439 81 146 440 81 147 441 78 147 442 80 147 443 75 148 444 74 148 445 76 148 446 74 149 447 75 149 448 77 149 449 74 150 450 77 150 451 82 150 452 82 151 453 77 151 454 83 151 455 74 152 456 82 152 457 80 152 458 74 153 459 80 153 460 73 153 461 82 154 462 83 154 463 84 154 464 82 155 465 84 155 466 80 155 467 84 156 468 83 156 469 85 156 470 80 157 471 84 157 472 81 157 473 81 158 474 84 158 475 85 158 476 79 159 477 83 159 478 77 159 479 83 160 480 79 160 481 86 160 482 83 161 483 86 161 484 85 161 485 85 162 486 86 162 487 79 162 488 85 163 489 79 163 490 81 163 491</p>
        </polylist>
      </mesh>
    </geometry>
  </library_geometries>
  <library_visual_scenes>
    <visual_scene id="Scene" name="Scene">
      <node id="CrossbowBody" name="CrossbowBody" type="NODE">
        <scale sid="scale">1 1 1</scale>
        <translate sid="location">0 0 0</translate>
        <rotate sid="rotationX">1 0 0 7.500000000000002</rotate>
        <rotate sid="rotationY">0 1 0 89.99999879258174</rotate>
        <rotate sid="rotationZ">0 0 1 0</rotate>
        <instance_geometry url="#CrossbowBody-mesh" name="CrossbowBody">
          <bind_material>
            <technique_common>
            </technique_common>
          </bind_material>
        </instance_geometry>
      </node>
      <node id="CrossbowString" name="CrossbowString" type="NODE">
        <scale sid="scale">1 1 1</scale>
        <translate sid="location">-0.0625 0 -0.1875</translate>
        <rotate sid="rotationX">1 0 0 164.88221157571468</rotate>
        <rotate sid="rotationY">0 1 0 67.9466482077851</rotate>
        <rotate sid="rotationZ">0 0 1 -89.82070823988693</rotate>
        <instance_geometry url="#CrossbowString-mesh" name="CrossbowString">
          <bind_material>
            <technique_common>
            </technique_common>
          </bind_material>
        </instance_geometry>
      </node>
    </visual_scene>
  </library_visual_scenes>
  <scene>
    <instance_visual_scene url="#Scene"/>
  </scene>
</COLLADA>
