<?xml version="1.0" encoding="utf-8"?>
<COLLADA xmlns="http://www.collada.org/2005/11/COLLADASchema" version="1.4.1" xmlns:xsi="http://www.w3.org/2001/XMLSchema-instance">
  <asset>
    <contributor>
      <author>Blockbench user</author>
      <authoring_tool>Blockbench</authoring_tool>
    </contributor>
    <created>2026-07-26T08:02:15.129Z</created>
    <modified>2026-07-26T08:02:15.136Z</modified>
    <unit name="meter" meter="1.0"/>
    <up_axis>Y_UP</up_axis>
  </asset>
  <library_effects>
  </library_effects>
  <library_images>
  </library_images>
  <library_materials>
  </library_materials>
  <library_geometries>
    <geometry id="Paper3-mesh" name="Paper3">
      <mesh>
        <source id="Paper3-mesh-positions">
          <float_array id="Paper3-mesh-positions-array" count="774">0.502259 -0.028766 -0.005616 0.536115 -0.027487 -0.041134 0.549632 -0.026348 -0.015872 0.522558 -0.02666 -0.050479 0.476863 -0.025971 -0.030968 0.526388 -0.027366 -0.046792 0.462225 -0.026962 -0.085855 0.502207 -0.024319 -0.00576 0.061433 0.070198 -0.209359 0.055771 0.068768 -0.081745 0.136443 0.072578 -0.078378 0.000955 0.068069 -0.077506 -0.092486 0.082321 -0.10519 -0.087417 0.072922 -0.064412 -0.073813 0.081372 -0.181727 -0.114615 0.097753 -0.233069 0.003981 0.075198 -0.246473 -0.126382 0.095888 -0.231385 -0.132815 0.096375 -0.223758 -0.155811 0.077408 -0.164406 -0.118069 0.09751 -0.224877 -0.136286 0.115833 -0.29529 -0.127312 0.118504 -0.316286 -0.047017 0.088226 -0.277258 -0.081869 0.101688 -0.295284 -0.184234 0.1084 -0.136881 -0.186712 0.106474 -0.13587 -0.128293 0.086764 -0.112856 -0.105632 0.092241 -0.208323 -0.094567 0.08756 -0.192194 -0.072515 0.079235 -0.162018 -0.03392 0.037458 0.000803 -0.139943 0.036633 -0.024945 -0.051073 0.032145 0.01321 -0.154881 0.027301 0.016216 -0.136447 0.024836 0.014273 -0.10899 0.039025 -0.045356 -0.001962 0.078667 -0.251928 -0.088429 0.093504 -0.223948 0.061554 0.068462 -0.208856 -0.198152 0.048044 -0.053379 -0.178656 0.060736 -0.104437 -0.2039 0.040231 -0.033853 -0.227418 0.032975 0.018627 -0.00863 0.066385 -0.096171 0.160213 0.074326 -0.142211 0.135295 0.069499 -0.074858 -0.043938 0.072233 -0.125986 -0.023564 0.067588 -0.09658 -0.013748 0.063939 -0.073394 -0.100844 0.046982 0.011775 0.000049 0.056421 -0.020242 0.148072 0.059125 0.023314 -0.138108 0.00577 0.133465 -0.224919 0.03771 0.120308 -0.228476 0.016579 0.195908 -0.155097 -0.011594 0.216048 -0.128356 -0.020031 0.222141 -0.167607 -0.011152 0.212129 -0.119308 -0.020382 0.211647 -0.112908 -0.008236 0.14844 -0.217981 0.008007 0.19802 -0.31154 0.053332 0.170854 -0.29583 0.055251 0.128714 0.013764 -0.028442 -0.371453 0.120065 -0.028124 -0.391888 0.161053 -0.028028 -0.221534 -0.032245 -0.030039 -0.174592 0.13894 -0.026703 -0.142646 -0.039712 -0.034246 0.044645 0.225354 -0.029455 0.289297 0.171554 -0.030369 0.321612 -0.013295 -0.032907 0.279901 0.022645 -0.026351 0.395672 -0.014745 -0.026692 0.279397 0.023198 -0.034993 0.396082 0.122882 -0.032149 0.345604 0.155771 -0.020236 0.328433 -0.21022 -0.032502 0.023531 -0.179388 -0.029484 -0.108856 -0.385697 -0.031542 0.009749 -0.390703 -0.031245 0.092185 -0.389691 -0.02832 -0.044654 0.138369 -0.028981 -0.139888 0.454293 -0.025992 0.175491 0.478258 -0.030579 0.164158 0.547528 -0.026387 0.135117 0.518739 -0.027125 0.097092 0.502233 -0.022974 0.09298 -0.116624 0.057872 -0.021749 0.461306 -0.020232 0.020186 0.205003 -0.024385 0.283559 0.344355 -0.025569 0.233128 0.300792 -0.025653 0.257961 0.269702 -0.025261 0.270661 0.139568 -0.022892 0.046076 0.399024 -0.024007 -0.124564 0.131055 -0.02414 -0.053507 0.178328 -0.023891 0.211612 0.159879 -0.016131 0.153547 0.205502 -0.014964 0.294679 0.225545 -0.025959 0.288784 -0.041201 0.049759 -0.01537 0.047181 0.047856 0.006753 -0.361528 -0.028093 -0.151535 -0.383781 -0.029386 -0.300928 -0.196801 -0.028402 -0.295428 -0.387998 -0.0275 -0.180208 -0.3878 -0.023386 -0.18068 -0.381693 -0.028168 -0.361699 -0.316904 -0.029823 -0.342544 -0.325755 -0.025743 -0.344248 -0.377101 -0.02635 -0.162637 -0.24132 -0.028629 -0.336366 -0.207387 -0.025528 -0.333931 -0.20511 -0.026487 -0.317464 0.409813 -0.022925 -0.092651 0.446508 -0.020534 -0.013243 0.432466 -0.021736 -0.057829 -0.032369 -0.017123 -0.155433 -0.142992 -0.018008 -0.119468 0.127884 -0.018866 -0.076304 -0.057541 -0.021928 -0.184704 0.086146 -0.023897 -0.384935 -0.043624 -0.02433 -0.359901 -0.155269 -0.024322 -0.272948 -0.06275 -0.013451 0.167944 0.057566 0.001737 0.122095 -0.010188 0.002969 0.106307 0.055861 -0.014601 0.189747 -0.036892 -0.020768 0.247477 0.023864 -0.021115 0.274744 -0.086925 0.010967 0.093 0.291617 -0.031064 0.264471 0.185723 -0.017922 0.310521 0.194973 -0.024358 0.307739 0.228857 -0.029617 -0.151042 0.425416 -0.027282 -0.072805 0.446885 -0.026601 -0.013861 0.288199 -0.029807 -0.175054 0.302599 -0.030503 -0.189028 0.392094 -0.030318 -0.166076 0.494917 -0.028337 0.085261 0.303158 -0.026445 -0.188973 0.406285 -0.028453 -0.099937 0.22776 -0.024996 -0.155334 0.238948 -0.025072 -0.152061 0.251915 -0.029356 -0.158002 -0.015005 0.037787 0.026681 -0.342868 -0.026364 0.278457 -0.248392 -0.027446 0.280341 -0.120036 -0.020442 0.279888 -0.256998 -0.018229 0.278491 -0.172621 -0.025672 0.280561 -0.172037 -0.030436 0.279324 0.138264 -0.017655 0.044221 -0.045165 -0.026023 0.280591 -0.055324 -0.028864 0.308922 -0.045542 -0.031121 0.282741 -0.108478 -0.029574 0.320054 -0.064118 -0.030739 0.325324 -0.085853 -0.028219 0.326071 -0.063604 -0.028426 0.341608 -0.068754 -0.03297 0.078161 0.343547 -0.030946 0.234183 -0.219687 0.036177 0.104972 -0.2576 0.062269 0.034742 -0.190307 0.043607 0.054336 -0.275755 0.057821 0.076927 -0.281416 0.03739 0.180082 -0.226261 0.082415 -0.030749 -0.224679 0.08189 -0.039149 -0.236203 0.073089 -0.011321 -0.254659 0.06574 0.03118 -0.181639 0.043239 0.062215 -0.052283 0.000339 0.102793 0.134626 0.001574 0.142649 0.127153 -0.016305 0.268994 0.130604 0.013324 0.114911 0.124021 -0.020389 0.270509 0.12976 -0.01161 0.200745 -0.147039 -0.025602 -0.295949 -0.151783 -0.028829 -0.279643 -0.132273 -0.026492 -0.346841 -0.131998 -0.028939 -0.332669 -0.132751 -0.024752 -0.333617 -0.097083 -0.02688 -0.35219 -0.146305 -0.027014 -0.327974 0.225507 -0.027289 -0.178189 0.23882 -0.027245 -0.171273 -0.022141 -0.023347 0.134548 -0.172992 -0.021497 0.041905 -0.08223 -0.020481 0.191252 -0.029221 -0.020927 0.181325 0.143159 0.043271 0.052079 0.085105 -0.020481 0.209901 0.103008 -0.020253 0.243398 0.117681 -0.020388 0.264239 0.131455 0.011543 0.111058 -0.35181 -0.020371 -0.127823 -0.33944 -0.019514 -0.104649 -0.352735 -0.020236 -0.085158 -0.12529 -0.021195 0.008997 -0.340716 -0.027636 -0.110174 -0.350581 -0.02779 -0.088792 -0.36409 -0.021721 -0.155231 0.382402 -0.028723 -0.223956 -0.199 -0.024263 -0.300759 -0.390031 -0.024341 0.135561 -0.388575 -0.030434 0.18897 -0.38655 -0.024815 0.18692 -0.386062 -0.026577 0.005348 0.049146 0.001258 0.110425 0.211372 -0.025153 -0.409227 0.187267 -0.024109 -0.321761 0.156179 -0.02273 -0.204574 0.001969 -0.011937 0.140071 -0.388747 -0.023286 -0.045278 -0.183297 -0.023186 -0.284621 -0.165116 -0.028391 -0.269012 -0.160458 -0.021881 -0.268857 -0.16756 -0.027967 0.31 -0.136888 -0.027148 0.31299 0.057749 -0.021357 0.196206 -0.041441 -0.023702 0.053475 -0.0068 -0.023569 0.184873 0.157908 0.067609 -0.017973 0.152261 0.067073 -0.026615 0.149142 0.069567 -0.04507 0.15233 0.059952 0.006998 0.135488 -0.021204 -0.134127 0.211009 -0.028886 -0.409355 -0.396103 -0.030234 0.279546 -0.39536 -0.025563 0.278808 0.122477 -0.025057 -0.440515 0.105425 -0.02852 -0.448645 0.179273 -0.025915 -0.447604 0.09792 -0.027755 -0.489456 0.143107 -0.026656 -0.469718 0.009458 -0.027532 -0.490115 0.052339 -0.024831 -0.481698 0.033681 -0.026053 -0.459775 -0.019254 -0.026303 -0.459168 0.006968 -0.026445 -0.453602 -0.038249 -0.026415 -0.493207 0.037676 -0.024452 0.459788 0.000036 -0.026882 0.490598 0.008998 -0.02624 0.538329 0.039486 -0.027585 0.523012 0.004749 -0.028198 0.473874 0.00433 -0.026956 0.443957 0.089767 -0.029239 0.52708 0.067031 -0.026789 0.52764 0.045427 -0.029118 0.461776 0.115788 -0.024495 0.504343 0.091264 -0.02432 0.528872 0.103764 -0.026921 0.468701 0.121612 -0.026606 0.506506</float_array>
          <technique_common>
            <accessor source="#Paper3-mesh-positions-array" count="258" stride="3">
              <param name="X" type="float"/>
              <param name="Y" type="float"/>
              <param name="Z" type="float"/>
            </accessor>
          </technique_common>
        </source>
        <source id="Paper3-mesh-normals">
          <float_array id="Paper3-mesh-normals-array" count="1500">0.054403 -0.998392 0.015905 -0.021793 -0.998152 -0.056717 -0.047875 -0.99693 -0.061951 0.096082 0.991295 0.090008 0.02063 0.99951 -0.023548 -0.705607 0.01469 0.708451 0.029705 0.997703 -0.060878 0.209807 0.034095 0.977148 0.258872 -0.862852 -0.434134 0.006614 0.999782 -0.019815 -0.009014 0.99837 -0.056366 0.07369 0.997107 -0.018663 -0.047552 0.998827 0.009083 0.085111 0.973178 0.21373 -0.20099 -0.968169 -0.149172 0.093665 -0.924532 -0.369415 -0.577014 -0.68624 -0.442865 -0.316753 -0.934696 -0.161279 -0.201574 -0.957151 -0.20792 -0.261232 -0.945201 -0.195837 -0.218944 -0.935981 -0.275688 -0.086272 0.986975 -0.135786 0.161863 -0.986042 0.038997 -0.645698 0.746554 -0.160413 -0.326571 -0.931872 -0.158004 -0.275918 -0.95407 -0.116705 -0.022991 0.95484 0.296228 -0.047024 0.94109 0.33487 -0.024832 0.955387 0.29431 -0.029198 0.957902 0.285605 -0.253474 -0.96045 -0.115269 -0.242949 -0.963442 -0.112942 -0.222919 -0.969221 -0.104485 -0.079618 0.951441 0.297358 -0.039611 0.977488 0.20724 0.044825 -0.389809 0.919804 -0.071543 0.961928 0.263772 0.081247 -0.977399 -0.195166 0.093272 0.993901 0.05883 -0.011925 0.999872 0.010675 0.19921 0.974982 0.098616 0.518552 -0.204419 -0.830251 0.464741 -0.425165 -0.776692 0.133749 0.989324 0.057875 -0.054096 -0.960053 -0.274541 -0.931475 -0.028278 -0.362704 -0.029153 0.958511 0.283562 -0.788355 -0.454971 -0.414122 0.083753 0.964838 0.249143 -0.041707 -0.792005 0.609089 0.07587 0.969345 0.233695 -0.042566 -0.967364 -0.249789 -0.195788 -0.976604 -0.088953 0.208511 0.969291 0.130376 0.512855 0.214771 -0.831176 0.251088 -0.669364 -0.699219 0.134287 -0.958643 -0.250939 0.126197 -0.963049 -0.237932 -0.096153 -0.979234 -0.17848 -0.784486 -0.460606 -0.415238 -0.434903 -0.81108 -0.391164 -0.117586 -0.942843 -0.311802 -0.047055 -0.956484 -0.287967 0.01322 -0.955892 -0.293421 0.556942 -0.195097 -0.807312 -0.048145 0.998796 0.009423 0.288271 0.947947 0.135262 0.276088 0.950713 0.141141 0.240236 0.965639 0.099138 -0.537135 0.834416 -0.12343 -0.136167 -0.988254 -0.069372 0.126897 -0.956094 -0.264161 -0.074237 -0.995147 -0.06458 0.085898 -0.995518 -0.039567 0.935455 0.051051 0.349741 0.33971 0.936457 -0.087445 0.205049 0.959017 0.195557 0.963358 -0.182124 0.196909 0.014517 0.945752 0.324566 0.083232 0.976275 0.1999 -0.060316 0.987788 0.143657 0.002922 0.97992 0.199371 0.296162 0.916177 0.270016 0.285441 0.924377 0.253082 0.187378 0.973782 0.128988 -0.185735 -0.96129 -0.20353 -0.324648 -0.168152 0.930768 -0.300668 -0.105509 0.947875 0.320725 0.908189 0.268939 0.253217 0.957516 0.138004 0.002963 -0.999996 -0.000149 0.015535 -0.999656 0.021145 0.008941 -0.999942 -0.006022 0.017414 -0.999848 0.000713 -0.933838 -0.193473 0.300857 -0.953236 -0.046832 0.298575 0.016764 -0.99959 -0.023213 0.449009 0.070989 0.890703 0.020888 -0.999277 -0.031764 0.448559 0.048002 0.892463 -0.007195 -0.999675 -0.024465 -0.005726 -0.999978 0.003255 -0.013445 -0.999574 -0.025918 0.010033 -0.999772 -0.018843 0.389309 -0.191875 0.900901 0.29247 0.925824 -0.2394 0.052031 -0.998445 -0.020015 -0.210183 -0.93936 -0.270971 -0.174842 -0.983999 -0.034294 0.014255 0.999459 0.029633 0.02562 0.99855 0.047351 0.014425 0.999886 0.004451 0.026578 0.998395 0.050002 -0.007593 0.999936 0.008378 -0.003735 0.999918 -0.012212 0.950953 -0.037087 -0.307103 0.040831 0.989646 0.1376 0.883498 0.33711 -0.32525 0.034538 -0.974479 -0.221804 -0.185369 0.940365 0.285221 0.062805 0.989633 0.129159 0.00503 -0.999956 0.007905 -0.006418 -0.999966 -0.0052 -0.9984 0.043971 -0.035563 -0.019414 -0.999597 -0.020701 -0.99933 0.013373 -0.034067 0.281691 0.221145 -0.933673 -0.037861 -0.999181 0.014288 -0.266322 -0.936898 0.226484 0.016837 -0.999777 -0.012766 0.004729 -0.999825 0.018099 0.085079 -0.221182 -0.971514 0.082816 -0.130416 -0.987995 0.127888 -0.982745 -0.133626 0.095833 -0.992857 -0.071073 -0.014719 0.999474 -0.028911 -0.01239 0.999626 -0.024374 -0.008685 0.999949 -0.005189 -0.021403 0.999567 -0.020207 -0.000506 0.999734 0.023045 0.151216 0.946405 -0.285398 -0.006074 0.999881 -0.014191 -0.188638 0.10914 -0.975963 -0.011304 0.999829 -0.014606 -0.035621 0.972826 0.228782 -0.03356 0.9717 0.23382 0.139794 0.96281 0.2312 -0.00764 0.995536 0.094073 -0.024475 0.997437 0.067228 0.048237 0.954178 0.295327 0.023481 -0.999707 -0.005863 0.012768 -0.999909 0.004257 0.33749 0.336957 0.878954 0.375645 0.114429 0.919672 0.218569 0.739681 -0.636475 0.522721 0.434129 0.733686 0.479885 0.481623 0.733314 0.347863 0.419131 0.838642 0.008515 -0.999928 0.008451 -0.008461 -0.999122 0.041044 -0.00361 -0.999609 0.027714 -0.006664 -0.999876 -0.014283 0.87081 0.259708 -0.417424 -0.689968 0.104752 -0.71622 -0.007491 -0.999528 0.029792 0.932354 -0.187987 -0.308832 0.0044 -0.999814 0.018785 0.787758 0.243181 -0.56595 -0.028922 -0.997566 0.063447 0.913359 0.351267 -0.205878 0.212336 -0.637487 -0.740624 0.053354 -0.988758 0.139681 0.268913 -0.400681 0.875865 0.759566 0.406203 -0.507995 0.905976 -0.269001 -0.326873 0.949275 0.089687 -0.301384 0.909717 0.09764 -0.403586 0.028426 0.915593 0.401101 0.026304 0.916501 0.399166 -0.012031 -0.999499 0.02928 0.000556 -0.999804 0.019766 -0.006934 0.190559 0.981651 -0.007578 0.202208 0.979313 0.003065 -0.250969 0.96799 -0.038941 -0.999145 0.013883 0.821441 0.538032 -0.189092 0.973494 0.211979 -0.085877 0.965928 0.172019 -0.193373 0.006084 0.999971 0.00461 0.041042 0.09027 0.995071 0.936192 0.07554 0.343277 -0.082408 -0.860031 0.503543 0.033893 -0.994569 0.098403 0.011836 0.992724 0.119829 0.109128 0.983664 -0.143165 0.102016 0.380148 0.919282 -0.053964 -0.998428 0.015147 -0.018007 -0.999776 0.011079 0.026779 0.998284 0.052073 0.033039 0.997901 0.055697 0.462151 0.103363 0.880757 0.008902 -0.999956 -0.002909 -0.190529 -0.949354 -0.249851 -0.25855 -0.942745 -0.210675 -0.354919 -0.210087 0.910986 -0.342018 -0.901101 -0.266535 -0.411761 -0.890391 -0.194054 -0.304605 -0.922923 -0.235434 -0.267114 0.052257 0.962247 -0.013489 -0.999561 0.026367 -0.033061 -0.999409 0.009401 0.786673 -0.414105 -0.45789 0.146352 0.928287 0.341854 -0.843281 0.502681 -0.190235 -0.906755 0.22878 -0.354198 0.154559 0.93392 0.322342 0.154053 0.936092 0.316227 -0.13734 -0.924322 -0.356044 -0.272963 -0.921397 -0.276619 -0.272003 -0.922385 -0.274262 -0.186129 -0.917222 -0.352221 -0.26508 -0.919962 -0.288794 0.060067 -0.970645 -0.232897 0.123114 -0.983587 -0.131905 -0.10497 0.910148 0.400765 0.004753 0.999986 0.002135 0.037665 0.322035 0.945978 -0.043089 0.997255 0.060207 0.960768 -0.276789 0.017659 -0.332088 -0.597493 0.729876 0.058713 -0.998147 -0.015967 -0.020649 -0.99925 -0.032755 -0.13925 -0.951919 -0.272872 0.438352 0.080155 0.895222 0.51505 -0.029552 0.856651 0.528153 0.094967 0.843822 0.492161 0.195587 0.848247 0.440942 0.262769 0.858209 -0.917738 -0.242054 -0.314906 -0.983667 -0.179605 -0.011924 -0.0366 -0.984877 -0.169343 -0.04617 -0.981446 -0.186099 -0.874548 -0.359406 -0.325565 -0.332649 -0.264758 -0.905123 0.120014 0.991926 -0.040984 -0.269985 -0.714189 -0.645788 0.129975 -0.777514 -0.615287 -0.022677 -0.991589 -0.127427 0.501454 0.093409 0.860127 -0.07122 -0.989475 -0.125965 0.484737 0.201945 0.851028 0.020221 0.999712 -0.012962 -0.00131 0.998653 -0.051863 -0.059755 0.991745 -0.113448 -0.115481 0.935333 0.334389 -0.108985 0.899644 0.422803 0.877017 0.341469 0.337995 -0.100111 0.89743 0.429648 0.078005 0.995774 -0.048469 0.176748 -0.980333 -0.087793 0.144916 -0.983488 -0.108398 0.113433 -0.986884 -0.114857 -0.791341 0.611261 0.011822 0.923917 0.381591 0.027677 -0.010046 0.99945 -0.031599 -0.006417 0.99965 0.025684 -0.01159 -0.99979 0.016879 -0.864517 -0.182691 0.468225 -0.836419 0.391992 -0.383075 -0.862412 -0.255878 0.436775 -0.011352 -0.999858 -0.012439 -0.012608 -0.999652 -0.023175 -0.903139 -0.124849 0.410796 0.450516 0.209733 0.867783 -0.043581 0.990307 -0.131879 -0.147613 0.129599 -0.980518 -0.059703 0.995261 -0.076748 -0.149026 0.426475 -0.892138 -0.183634 0.981846 -0.047499 0.002161 0.999724 0.023379 0.00954 -0.99953 -0.029142 -0.107544 0.986597 0.122723 -0.401303 0.067661 -0.913443 0.007255 0.998792 -0.048604 -0.03471 0.999017 -0.027562 -0.006964 0.998228 0.059097 0.038437 0.988586 -0.145673 -0.930724 0.359644 0.066402 -0.950819 0.307845 -0.034268 -0.990271 -0.125702 -0.059682 -0.998825 -0.04302 0.022322 -0.020779 0.999626 -0.017799 0.037154 -0.923161 -0.382614 0.083034 -0.908361 -0.40986 -0.077413 0.911758 0.403367 0.00815 0.99992 -0.009689 0.008104 0.999921 -0.009617 0.003041 0.999966 -0.007651 0.12024 -0.943198 -0.309709 0.102812 -0.959214 -0.263322 0.035445 -0.93276 -0.358752 -0.04918 -0.967738 -0.247112 -0.028669 0.998314 0.050462 -0.035216 0.997152 0.066689 0.016784 0.996422 -0.08283 0.638955 -0.066379 -0.766375 0.658744 -0.437959 -0.611759 0.935982 0.048093 -0.348747 0.04196 0.988883 -0.142655 -0.022032 -0.999665 0.013555 0.541994 -0.369837 -0.754628 0.497389 -0.577261 0.64759 -0.469852 0.355425 -0.80803 -0.008995 -0.999959 -0.001282 0.005619 -0.999964 -0.006324 -0.007103 -0.999947 -0.007457 -0.012532 -0.999729 -0.019611 -0.974884 -0.15979 0.15514 -0.034743 0.995893 0.08361 0.019067 -0.996814 0.077447 -0.14217 -0.959761 0.242168 -0.034926 0.999373 0.00584 0.144679 -0.962994 -0.227401 -0.026367 0.999651 0.0019 -0.036995 0.999192 0.015685 0.057927 0.995665 0.072767 0.094763 -0.976455 -0.193793 -0.129685 -0.949833 -0.284603 -0.084703 -0.969217 -0.231179 -0.215524 -0.964593 -0.152015 0.037151 -0.999229 -0.012712 -0.066177 0.997721 0.013143 -0.087682 0.993246 0.075985 -0.826213 0.034901 -0.562275 -0.005133 0.999425 0.03352 0.000261 0.999954 0.009555 -0.09968 0.97907 0.17744 0.083711 0.989706 -0.116084 -0.065187 0.987363 0.144449 0.702269 -0.633395 -0.325005 -0.051446 0.992671 0.109351 0.118712 0.954727 0.272772 0.0228 0.999645 -0.013777 -0.022503 0.999509 -0.021797 0.108811 -0.939287 -0.325422 0.951122 0.17137 0.256901 0.411872 -0.891285 -0.189666 0.413584 -0.890373 -0.190223 0.380343 -0.904606 -0.192424 0.956241 0.140445 0.25667 0.11049 -0.954897 -0.275615 -0.020387 0.999737 0.010511 -0.090139 0.995921 0.003938 0.973142 0.213557 -0.085956 0.006339 0.999961 0.006204 -0.145616 0.988944 0.028019 0.016237 0.999836 -0.008045 0.000115 0.126492 0.991968 0.03337 0.493905 0.868875 0.043702 0.678632 0.733177 -0.17717 -0.982884 -0.050487 0.113968 -0.88418 -0.453032 0.978319 0.021933 0.20594 0.149513 -0.900786 -0.407715 0.189314 0.909247 0.370717 0.134088 0.94897 0.28544 -0.160297 -0.9398 -0.301796 -0.624937 0.779244 -0.04725 -0.813876 0.549903 -0.187649 -0.060132 0.998102 0.013287 -0.016156 0.999659 -0.020533 -0.015889 0.999579 -0.024276 -0.008721 0.999447 -0.032077 0.21617 0.934347 -0.283314 0.422571 0.76329 -0.488694 0.102814 -0.959264 -0.263138 0.144045 -0.967569 -0.20751 0.07478 -0.968662 -0.236858 -0.071611 -0.961926 -0.263762 -0.033996 0.999397 -0.007114 0.00661 0.999196 -0.039532 0.002741 0.999095 0.042453 0.044423 0.986116 0.160004 0.09568 0.986456 0.13323 -0.05865 0.998269 -0.004269 0.40878 -0.905271 0.115683 -0.015854 -0.99983 0.009382 -0.007905 -0.999966 0.002465 0.964342 0.070884 0.254992 0.03344 0.925151 0.378123 -0.857232 0.418607 -0.299869 -0.17263 -0.938021 -0.300527 -0.14836 -0.923582 -0.353534 0.00413 -0.999883 0.014716 0.288641 0.908717 0.301528 0.193253 0.912092 0.361582 0.001334 -0.999969 -0.0078 0.958685 -0.102325 0.265428 -0.187942 0.051906 -0.980808 -0.00682 -0.999935 0.009094 0.07267 -0.997322 0.008242 0.008966 0.154662 0.987927 0.005692 -0.064256 0.997917 -0.859662 0.39104 -0.328738 0.193664 0.952522 0.234939 -0.296061 -0.278544 0.913653 0.018052 0.999588 0.022311 0.033123 0.495068 0.868223 -0.044642 0.998938 0.011426 -0.285956 -0.945168 -0.157755 0.258184 0.94291 0.210387 -0.821286 0.488866 -0.294107 0.035787 -0.991747 -0.123117 -0.002292 0.999411 0.034251 0.986277 0.002802 -0.165075 -0.18816 0.097651 -0.977272 -0.188687 0.093864 -0.977541 -0.059243 0.997798 0.029838 -0.036988 0.99916 0.017635 0.114865 -0.986549 -0.116305 0.001787 0.999775 -0.021132 0.003506 0.999892 0.014258 0.03685 0.999234 -0.013148 0.122087 0.991976 -0.032841 -0.033285 0.999423 0.006711 -0.744973 0.104528 -0.658854 -0.743142 0.056712 -0.666726 -0.146919 -0.936674 -0.317895 -0.017536 0.180996 0.983327 -0.111746 -0.973724 -0.198428 -0.049242 -0.967492 -0.248063 -0.425433 -0.033553 -0.904368 0.020724 0.98708 -0.15888 -0.052924 0.998594 0.003055 -0.009506 0.998944 -0.044945 -0.0073 0.99826 -0.05851 -0.716326 -0.558522 -0.418248 0.01203 -0.999787 -0.016797 -0.052976 -0.969492 -0.23933 -0.065778 -0.918353 -0.390257 -0.26498 -0.152224 0.952162 -0.94669 0.312215 -0.079371 -0.985456 0.142008 -0.093327 -0.010665 0.998163 0.059633 -0.032912 0.994783 -0.09656 0.051099 0.993192 -0.104682 0.946623 0.169195 0.274368 0.961899 0.097587 0.255397 0.008312 -0.999531 0.029475 0.075688 -0.997109 0.006691 0.962732 0.023038 0.269475 -0.508214 0.749369 0.424459 -0.000823 -0.998254 -0.059061 -0.977538 0.19363 0.083234 -0.998298 -0.028076 0.051121 -0.012881 0.999259 0.036284 0.887634 0.45588 0.06541 0.707164 0.704099 0.064526 -0.848471 0.100452 0.519621 -0.544159 0.246391 0.801986 0.028344 -0.939701 0.34082 0.035315 -0.999058 -0.025222 0.035591 -0.99906 -0.024729 0.004823 0.944755 -0.327742 -0.032383 -0.999394 -0.012778 -0.002795 -0.999308 0.037092 0.054917 -0.982995 0.175226 -0.00856 -0.999854 0.014818 0.050232 0.995522 -0.080085 -0.000308 0.998492 -0.05489 -0.024503 -0.999556 0.016962 0.009061 0.998792 -0.048287 -0.019656 0.999047 0.038959 -0.118957 -0.79878 0.589746 -0.056269 0.997852 -0.033544 -0.006935 -0.99995 0.00716 -0.025214 -0.999289 0.02803 -0.00223 0.998551 0.053762 -0.065362 0.997861 -0.001149 0.0678 0.99657 0.047443 -0.164072 0.978718 -0.123252 -0.034111 -0.999221 0.019845 -0.094917 0.994572 0.042619 -0.0667 -0.995993 0.059577 -0.035912 -0.998638 0.037845 -0.073441 -0.813425 0.577015 -0.034768 -0.998555 -0.040968 -0.019271 -0.999751 0.011232 -0.03733 0.998025 0.050525 -0.095656 0.990102 -0.1027 -0.025317 0.99865 0.045349 -0.013323 -0.338683 0.940806 0.041148 -0.998709 -0.029789 0.06731 -0.997456 -0.023467 0.637774 -0.4275 0.640694 0.048527 0.995274 -0.084115 0.180211 0.901155 0.394263 0.123033 -0.208965 -0.970153 0.397464 0.896634 -0.195116 0.394106 0.281985 -0.874737</float_array>
          <technique_common>
            <accessor source="#Paper3-mesh-normals-array" count="500" stride="3">
              <param name="X" type="float"/>
              <param name="Y" type="float"/>
              <param name="Z" type="float"/>
            </accessor>
          </technique_common>
        </source>
        <source id="Paper3-mesh-map-0">
          <float_array id="Paper3-mesh-map-0-array" count="3000">0.082843 0.956033 0.096669 0.925973 0.078503 0.923771 0.082843 0.956033 0.105274 0.931288 0.096669 0.925973 0.105835 0.965267 0.129838 0.929304 0.082843 0.956033 0.129838 0.929304 0.105274 0.931288 0.082843 0.956033 0.140634 0.960908 0.105835 0.965267 0.129838 0.929304 0.073557 0.598656 0.092824 0.601171 0.092787 0.598076 0.727022 0.823217 0.74066 0.853551 0.745444 0.821132 0.04441 0.702803 0.042021 0.702833 0.044073 0.669994 0.691119 0.821139 0.683167 0.85825 0.71812 0.828845 0.683167 0.85825 0.717457 0.862847 0.71812 0.828845 0.71812 0.828845 0.717457 0.862847 0.74066 0.853551 0.71812 0.828845 0.74066 0.853551 0.727022 0.823217 0.837651 0.384013 0.82117 0.442668 0.782391 0.435282 0.849093 0.473179 0.912974 0.474609 0.900884 0.500544 0.83821 0.889277 0.868619 0.90859 0.789709 0.9362 0.490256 0.044781 0.515588 0.078406 0.493492 0.035658 0.519092 0.033845 0.493492 0.035658 0.543221 0.034234 0.867527 0.903374 0.893619 0.946056 0.868619 0.90859 0.893619 0.946056 0.8904 0.960609 0.868619 0.90859 0.868619 0.90859 0.8904 0.960609 0.832406 0.95028 0.8904 0.960609 0.861517 0.956304 0.832406 0.95028 0.331062 0.003297 0.32283 0.001436 0.327564 0.009744 0.331062 0.003297 0.331941 0.005368 0.327564 0.009744 0.150961 0.614617 0.151912 0.505709 0.15267 0.613584 0.893619 0.946056 0.867527 0.903374 0.894626 0.840977 0.894626 0.840977 0.867527 0.903374 0.851779 0.858164 0.319373 0.021696 0.32283 0.001436 0.279923 0.001096 0.327564 0.009744 0.32283 0.001436 0.319373 0.021696 0.319373 0.021696 0.279923 0.001096 0.312113 0.032766 0.279923 0.001096 0.29858 0.054448 0.312113 0.032766 0.851779 0.858164 0.867527 0.903374 0.856825 0.894705 0.856825 0.894705 0.846395 0.886586 0.851779 0.858164 0.826945 0.871783 0.851779 0.858164 0.846395 0.886586 0.205369 0.116855 0.20237 0.04404 0.19501 0.109869 0.20237 0.04404 0.173131 0.048617 0.19501 0.109869 0.960818 0.843891 0.959336 0.837636 0.963477 0.778859 0.29858 0.054448 0.20237 0.04404 0.205369 0.116855 0.627125 0.143822 0.646517 0.089094 0.601763 0.098135 0.837651 0.384013 0.882926 0.370546 0.849093 0.473179 0.82117 0.442668 0.837651 0.384013 0.849093 0.473179 0.912974 0.474609 0.882926 0.370546 0.933995 0.406597 0.733386 0.021322 0.769773 0.023877 0.73397 0.020027 0.73397 0.020027 0.769773 0.023877 0.782272 0.022484 0.912974 0.474609 0.849093 0.473179 0.882926 0.370546 0.201126 0.001623 0.279923 0.001096 0.20237 0.04404 0.279923 0.001096 0.24005 0.001516 0.201126 0.001623 0.29858 0.054448 0.279923 0.001096 0.20237 0.04404 0.907711 0.853279 0.909055 0.814537 0.909088 0.848943 0.152349 0.000769 0.173131 0.048617 0.20237 0.04404 0.963183 0.89411 0.959336 0.837636 0.960818 0.843891 0.201126 0.001623 0.152349 0.000769 0.20237 0.04404 0.634745 0.038997 0.601763 0.098135 0.646517 0.089094 0.868619 0.90859 0.832406 0.95028 0.789709 0.9362 0.957928 0.35747 0.933995 0.406597 0.882926 0.370546 0.817439 0.020296 0.84284 0.015854 0.782272 0.022484 0.769773 0.023877 0.817439 0.020296 0.782272 0.022484 0.601763 0.098135 0.556406 0.132868 0.61529 0.150296 0.601763 0.098135 0.61529 0.150296 0.627125 0.143822 0.646517 0.089094 0.667457 0.036826 0.634745 0.038997 0.907711 0.853279 0.910492 0.874606 0.911323 0.903284 0.634745 0.038997 0.584413 0.034641 0.543221 0.034234 0.634745 0.038997 0.543221 0.034234 0.493492 0.035658 0.634745 0.038997 0.493492 0.035658 0.601763 0.098135 0.493492 0.035658 0.515588 0.078406 0.601763 0.098135 0.733386 0.021322 0.73397 0.020027 0.658996 0.006729 0.763657 0.406716 0.837651 0.384013 0.782391 0.435282 0.957928 0.35747 0.976387 0.355163 0.933995 0.406597 0.976387 0.355163 0.974569 0.480743 0.933995 0.406597 0.933995 0.406597 0.974569 0.480743 0.912974 0.474609 0.150005 0.490568 0.151912 0.505709 0.150961 0.614617 0.83821 0.889277 0.789709 0.9362 0.79589 0.859052 0.601763 0.098135 0.515588 0.078406 0.556406 0.132868 0.754489 0.883199 0.789709 0.9362 0.7522 0.928157 0.7522 0.928157 0.679847 0.903348 0.701556 0.892603 0.688112 0.875949 0.679847 0.903348 0.680895 0.871051 0.28276 0.078888 0.29858 0.054448 0.274899 0.08364 0.912974 0.474609 0.974569 0.480743 0.900884 0.500544 0.966862 0.691685 0.966135 0.654404 0.967394 0.655138 0.530995 0.295441 0.579609 0.284758 0.557165 0.352785 0.53064 0.353008 0.530995 0.295441 0.557165 0.352785 0.516788 0.397565 0.557165 0.352785 0.584446 0.451832 0.516788 0.397565 0.53064 0.353008 0.557165 0.352785 0.662048 0.257288 0.647328 0.198545 0.696535 0.194185 0.662048 0.257288 0.696535 0.194185 0.714089 0.246565 0.847313 0.721572 0.85005 0.694884 0.843018 0.689449 0.847313 0.721572 0.803932 0.694369 0.843018 0.689449 0.030765 0.645693 0.034406 0.681891 0.028869 0.636463 0.028869 0.636463 0.034406 0.681891 0.032694 0.688865 0.696535 0.194185 0.647328 0.198545 0.675705 0.137369 0.647328 0.198545 0.648574 0.150509 0.675705 0.137369 0.311359 0.486097 0.24156 0.47842 0.225347 0.593826 0.340205 0.621946 0.225347 0.593826 0.239923 0.633306 0.340205 0.621946 0.311359 0.486097 0.225347 0.593826 0.360118 0.754699 0.20866 0.93917 0.247019 0.957559 0.93707 0.946864 0.941606 0.866548 0.939669 0.946661 0.93707 0.946864 0.936014 0.865949 0.941606 0.866548 0.363308 0.920255 0.278252 0.970878 0.344815 0.999245 0.929837 0.53186 0.930489 0.607476 0.924279 0.532375 0.363308 0.920255 0.247019 0.957559 0.278252 0.970878 0.924279 0.532375 0.930489 0.607476 0.924137 0.632564 0.474905 0.757379 0.449641 0.656192 0.360118 0.754699 0.585329 0.720286 0.474905 0.757379 0.58813 0.752535 0.584063 0.682354 0.449641 0.656192 0.474905 0.757379 0.340205 0.621946 0.243566 0.647492 0.360118 0.754699 0.926288 0.857768 0.929444 0.874911 0.927757 0.925875 0.992457 0.094775 0.984975 0.102123 0.998628 0.063568 0.966639 0.553034 0.970366 0.541237 0.970446 0.564995 0.642569 0.782553 0.650589 0.729866 0.687535 0.719995 0.67672 0.479329 0.711267 0.455252 0.732969 0.473817 0.979692 0.157433 0.761104 0.069125 0.984975 0.102123 0.914312 0.103003 0.809063 0.093619 0.860724 0.061711 0.824046 0.058905 0.809063 0.093619 0.802681 0.05902 0.809063 0.093619 0.824046 0.058905 0.860724 0.061711 0.827607 0.135861 0.788101 0.232179 0.761104 0.069125 0.991093 0.295176 0.808093 0.295072 0.788101 0.232179 0.912468 0.611722 0.90738 0.61788 0.906902 0.552953 0.241723 0.99562 0.24129 0.985859 0.223822 0.993004 0.912468 0.611722 0.906902 0.552953 0.913026 0.559916 0.684103 0.66279 0.645347 0.633143 0.68743 0.606394 0.179775 0.503315 0.179293 0.54891 0.162322 0.524683 0.169082 0.509723 0.179775 0.503315 0.162322 0.524683 0.561524 0.612668 0.567583 0.511626 0.448281 0.524458 0.561524 0.612668 0.448281 0.524458 0.449641 0.656192 0.053596 0.397432 0.053371 0.315689 0.055968 0.316015 0.562714 0.471841 0.52257 0.48732 0.567583 0.511626 0.054988 0.437455 0.053596 0.397432 0.055968 0.316015 0.055003 0.490949 0.053782 0.522632 0.052254 0.492902 0.576142 0.592104 0.567583 0.511626 0.561524 0.612668 0.570346 0.604279 0.576142 0.592104 0.561524 0.612668 0.52257 0.48732 0.474921 0.495791 0.448281 0.524458 0.567583 0.511626 0.52257 0.48732 0.448281 0.524458 0.940341 0.98694 0.948469 0.984131 0.881209 0.985152 0.902654 0.986713 0.940341 0.98694 0.881209 0.985152 0.448281 0.524458 0.474921 0.495791 0.453002 0.509799 0.474921 0.495791 0.45297 0.499914 0.453002 0.509799 0.991093 0.295176 0.888689 0.22355 0.980795 0.241078 0.980795 0.241078 0.888689 0.22355 0.928884 0.204772 0.716842 0.082959 0.695903 0.100675 0.705232 0.067063 0.983791 0.2146 0.980795 0.241078 0.980579 0.182256 0.182368 0.233462 0.21381 0.309292 0.233356 0.131561 0.758044 0.989596 0.665986 0.992342 0.723904 0.996136 0.038162 0.158706 0.053174 0.242581 0.157818 0.256212 0.451182 0.976116 0.415097 0.978541 0.49536 0.979075 0.053174 0.242581 0.109468 0.317451 0.157818 0.256212 0.682516 0.315608 0.657099 0.384467 0.644838 0.340634 0.657099 0.384467 0.682516 0.315608 0.701877 0.391957 0.682516 0.315608 0.662048 0.257288 0.714089 0.246565 0.682516 0.315608 0.735643 0.327803 0.701877 0.391957 0.701877 0.391957 0.735643 0.327803 0.753233 0.367631 0.644838 0.340634 0.637609 0.296349 0.682516 0.315608 0.360118 0.754699 0.243566 0.647492 0.20866 0.93917 0.363308 0.920255 0.360118 0.754699 0.247019 0.957559 0.925093 0.717162 0.929712 0.686723 0.927634 0.733336 0.927323 0.686116 0.929712 0.686723 0.925093 0.717162 0.772153 0.060535 0.761104 0.069125 0.76065 0.061605 0.743774 0.281927 0.748689 0.283883 0.743314 0.292684 0.76065 0.061605 0.74958 0.058069 0.772153 0.060535 0.925093 0.717162 0.927634 0.733336 0.923212 0.740757 0.18482 0.643438 0.065243 0.707187 0.054447 0.747525 0.147081 0.631982 0.137511 0.623694 0.081008 0.647217 0.243566 0.647492 0.18482 0.643438 0.054447 0.747525 0.20866 0.93917 0.054447 0.747525 0.028864 0.814772 0.019656 0.698663 0.020347 0.765181 0.015999 0.74497 0.684829 0.058 0.685794 0.044722 0.687438 0.058125 0.147081 0.631982 0.081008 0.647217 0.075213 0.689339 0.02082 0.290491 0.024411 0.269634 0.024614 0.291927 0.18482 0.643438 0.147081 0.631982 0.065243 0.707187 0.209416 0.581405 0.206807 0.586071 0.208814 0.599053 0.147081 0.631982 0.075213 0.689339 0.065243 0.707187 0.02082 0.290491 0.021342 0.248221 0.024411 0.269634 0.00841 0.586808 0.010553 0.585174 0.0107 0.589074 0.170804 0.640747 0.18482 0.643438 0.147081 0.631982 0.0107 0.589074 0.00841 0.586808 0.00894 0.601507 0.01766 0.514203 0.01527 0.503671 0.016877 0.500458 0.014498 0.544251 0.01527 0.503671 0.01766 0.514203 0.018357 0.546387 0.014498 0.544251 0.01766 0.514203 0.020347 0.765181 0.016678 0.766196 0.015999 0.74497 0.588892 0.344391 0.579609 0.284758 0.637609 0.296349 0.637609 0.296349 0.644838 0.340634 0.588892 0.344391 0.573119 0.898536 0.58813 0.752535 0.512925 0.907103 0.512925 0.907103 0.58813 0.752535 0.474905 0.757379 0.989205 0.806642 0.992663 0.904412 0.986416 0.896186 0.986416 0.896186 0.985444 0.844909 0.989205 0.806642 0.986416 0.896186 0.983872 0.845919 0.985444 0.844909 0.512925 0.907103 0.474905 0.757379 0.464809 0.911098 0.985054 0.442553 0.985258 0.382725 0.989096 0.446292 0.788101 0.232179 0.808093 0.295072 0.784854 0.253788 0.985258 0.382725 0.989472 0.397626 0.989096 0.446292 0.788101 0.232179 0.76535 0.121527 0.761104 0.069125 0.926798 0.05493 0.907927 0.05256 0.907888 0.055032 0.609871 0.852454 0.623679 0.853451 0.621783 0.850869 0.42631 0.940133 0.396547 0.947356 0.410752 0.946539 0.389052 0.934314 0.42631 0.940133 0.382564 0.92081 0.389052 0.934314 0.42631 0.940133 0.396547 0.947356 0.396547 0.947356 0.410752 0.946539 0.398908 0.955355 0.926798 0.05493 0.926463 0.052377 0.907927 0.05256 0.401348 0.792284 0.363308 0.920255 0.382564 0.92081 0.42631 0.940133 0.401348 0.792284 0.382564 0.92081 0.998628 0.063568 0.984975 0.102123 0.934032 0.064964 0.934032 0.064964 0.984975 0.102123 0.860724 0.061711 0.924092 0.774725 0.927201 0.773663 0.926288 0.857768 0.20866 0.93917 0.243566 0.647492 0.054447 0.747525 0.791477 0.766152 0.736775 0.804819 0.745778 0.755378 0.76521 0.81254 0.736775 0.804819 0.791477 0.766152 0.035294 0.597547 0.030765 0.645693 0.028869 0.636463 0.84133 0.758686 0.832642 0.805434 0.791477 0.766152 0.832642 0.805434 0.827347 0.829017 0.803599 0.822824 0.803599 0.822824 0.791477 0.766152 0.832642 0.805434 0.035294 0.597547 0.028869 0.636463 0.036747 0.583414 0.474905 0.757379 0.360118 0.754699 0.401348 0.792284 0.401348 0.792284 0.360118 0.754699 0.363308 0.920255 0.019656 0.698663 0.015999 0.74497 0.017455 0.695175 0.579609 0.284758 0.530995 0.295441 0.545297 0.199148 0.021841 0.440552 0.02256 0.460798 0.020369 0.445586 0.020369 0.445586 0.02256 0.460798 0.022849 0.495034 0.579609 0.284758 0.545297 0.199148 0.587188 0.179851 0.579609 0.284758 0.587188 0.179851 0.609584 0.226303 0.765207 0.659247 0.803932 0.694369 0.687535 0.719995 0.847313 0.721572 0.84133 0.758686 0.803932 0.694369 0.84133 0.758686 0.791477 0.766152 0.803932 0.694369 0.803932 0.694369 0.745778 0.755378 0.687535 0.719995 0.745778 0.755378 0.803932 0.694369 0.791477 0.766152 0.657099 0.384467 0.680255 0.440478 0.701877 0.391957 0.701877 0.391957 0.680255 0.440478 0.749633 0.436962 0.65 0.439841 0.657099 0.384467 0.680255 0.440478 0.443408 0.235892 0.460164 0.291016 0.459368 0.209158 0.992508 0.643978 0.989295 0.705545 0.99029 0.647561 0.749633 0.436962 0.701877 0.391957 0.753233 0.367631 0.817026 0.834452 0.783341 0.836825 0.861556 0.838924 0.591983 0.675663 0.591248 0.67222 0.60129 0.67364 0.044053 0.868689 0.028864 0.814772 0.013908 0.830965 0.20866 0.93917 0.028864 0.814772 0.044053 0.868689 0.134434 0.907092 0.20866 0.93917 0.044053 0.868689 0.930489 0.607476 0.929528 0.644174 0.924137 0.632564 0.926778 0.665298 0.929528 0.644174 0.929712 0.686723 0.926778 0.665298 0.929712 0.686723 0.927323 0.686116 0.924137 0.632564 0.929528 0.644174 0.922499 0.65436 0.929528 0.644174 0.926269 0.662018 0.922499 0.65436 0.047879 0.96338 0.036635 0.962002 0.032946 0.963831 0.778519 0.869056 0.776249 0.862352 0.778218 0.861083 0.406861 0.503828 0.404915 0.495043 0.382448 0.49313 0.406861 0.503828 0.382448 0.49313 0.311359 0.486097 0.406861 0.503828 0.421957 0.53893 0.416308 0.52628 0.012229 0.811332 0.004066 0.810347 0.009673 0.808394 0.414558 0.507076 0.416308 0.52628 0.406861 0.503828 0.048916 0.54388 0.04904 0.606023 0.047919 0.605151 0.243566 0.647492 0.340205 0.621946 0.239923 0.633306 0.243566 0.647492 0.179174 0.631773 0.18482 0.643438 0.924092 0.774725 0.927634 0.733336 0.927201 0.773663 0.134434 0.907092 0.169114 0.925148 0.20866 0.93917 0.923212 0.740757 0.927634 0.733336 0.924092 0.774725 0.385541 0.230181 0.34818 0.356223 0.419092 0.291721 0.406649 0.266857 0.402195 0.251146 0.385541 0.230181 0.385541 0.230181 0.419092 0.291721 0.406649 0.266857 0.588892 0.344391 0.584446 0.451832 0.557165 0.352785 0.657099 0.384467 0.584446 0.451832 0.588892 0.344391 0.017869 0.984309 0.019109 0.937026 0.021311 0.915231 0.584446 0.451832 0.657099 0.384467 0.65 0.439841 0.419152 0.15079 0.44026 0.138693 0.451427 0.132203 0.819808 0.553033 0.80607 0.525328 0.836195 0.538184 0.847654 0.524564 0.836195 0.538184 0.80607 0.525328 0.847654 0.524564 0.80607 0.525328 0.850026 0.519822 0.80607 0.525328 0.850026 0.519822 0.849229 0.516987 0.748065 0.535806 0.754154 0.532692 0.768222 0.530703 0.21381 0.309292 0.203952 0.449142 0.218295 0.441523 0.21381 0.309292 0.230909 0.449895 0.292562 0.29486 0.550507 0.641324 0.561524 0.612668 0.449641 0.656192 0.095292 0.576443 0.10786 0.581706 0.110166 0.576015 0.946477 0.843765 0.947051 0.829989 0.951898 0.842796 0.078519 0.581179 0.10786 0.581706 0.095292 0.576443 0.557558 0.654734 0.550507 0.641324 0.449641 0.656192 0.584063 0.682354 0.557558 0.654734 0.449641 0.656192 0.077191 0.576981 0.078519 0.581179 0.095292 0.576443 0.927201 0.773663 0.929444 0.874911 0.926288 0.857768 0.063013 0.303126 0.069452 0.304112 0.053174 0.242581 0.053174 0.242581 0.057671 0.270023 0.063013 0.303126 0.053174 0.242581 0.096193 0.313092 0.109468 0.317451 0.451182 0.976116 0.379842 0.976437 0.415097 0.978541 0.069452 0.304112 0.075199 0.312294 0.096193 0.313092 0.069452 0.304112 0.096193 0.313092 0.053174 0.242581 0.137511 0.623694 0.084894 0.604915 0.081008 0.647217 0.9439 0.328881 0.929125 0.325115 0.991093 0.295176 0.684829 0.058 0.687438 0.058125 0.687407 0.115348 0.9439 0.328881 0.991093 0.295176 0.998489 0.327558 0.055155 0.470415 0.16969 0.473204 0.065385 0.432996 0.072425 0.353658 0.065385 0.432996 0.081424 0.351949 0.081424 0.351949 0.065385 0.432996 0.091365 0.349104 0.486038 0.972031 0.450966 0.967997 0.452662 0.971415 0.568222 0.971256 0.513706 0.968416 0.486038 0.972031 0.565395 0.968315 0.513706 0.968416 0.568222 0.971256 0.486038 0.972031 0.513706 0.968416 0.450966 0.967997 0.34818 0.356223 0.288173 0.471534 0.373639 0.472853 0.765207 0.659247 0.684103 0.66279 0.753088 0.588035 0.68743 0.606394 0.753088 0.588035 0.684103 0.66279 0.588892 0.344391 0.644838 0.340634 0.657099 0.384467 0.021175 0.073218 0.038162 0.158706 0.073492 0.088316 0.038162 0.158706 0.152172 0.1094 0.073492 0.088316 0.038162 0.158706 0.157818 0.256212 0.152172 0.1094 0.753088 0.588035 0.748065 0.535806 0.768222 0.530703 0.790728 0.61487 0.753088 0.588035 0.768222 0.530703 0.753088 0.588035 0.790728 0.61487 0.765207 0.659247 0.803932 0.694369 0.765207 0.659247 0.790728 0.61487 0.34818 0.356223 0.230909 0.449895 0.257862 0.47305 0.257862 0.47305 0.288173 0.471534 0.34818 0.356223 0.102383 0.341968 0.091365 0.349104 0.065385 0.432996 0.448281 0.524458 0.437898 0.537442 0.429988 0.544553 0.082771 0.909439 0.080359 0.911957 0.079943 0.902273 0.990349 0.040266 0.979131 0.042372 0.990111 0.04348 0.569664 0.988397 0.57569 0.992628 0.58401 0.987143 0.429988 0.544553 0.421957 0.53893 0.340205 0.621946 0.580994 0.985756 0.569664 0.988397 0.58401 0.987143 0.580994 0.985756 0.583112 0.983196 0.58463 0.983592 0.58463 0.983592 0.580994 0.985756 0.58401 0.987143 0.421957 0.53893 0.406861 0.503828 0.340205 0.621946 0.449641 0.656192 0.448281 0.524458 0.429988 0.544553 0.449641 0.656192 0.429988 0.544553 0.340205 0.621946 0.360118 0.754699 0.449641 0.656192 0.340205 0.621946 0.992073 0.226675 0.993478 0.225652 0.994762 0.245847 0.463182 0.324156 0.480542 0.31987 0.483358 0.298777 0.461339 0.931062 0.462118 0.921759 0.441649 0.935244 0.441649 0.935244 0.462118 0.921759 0.42631 0.940133 0.317889 0.122386 0.406604 0.182555 0.419152 0.15079 0.819808 0.553033 0.813891 0.576858 0.80607 0.525328 0.312386 0.242906 0.351096 0.226881 0.406604 0.182555 0.351096 0.226881 0.399482 0.218259 0.406604 0.182555 0.714089 0.246565 0.735643 0.327803 0.682516 0.315608 0.728498 0.507231 0.732969 0.473817 0.738977 0.48119 0.67672 0.479329 0.732969 0.473817 0.697594 0.511564 0.697594 0.511564 0.732969 0.473817 0.728498 0.507231 0.645347 0.633143 0.587219 0.621047 0.585053 0.59702 0.645347 0.633143 0.585053 0.59702 0.623475 0.556538 0.451427 0.132203 0.471435 0.074838 0.377535 0.105195 0.471435 0.074838 0.451427 0.132203 0.480911 0.087391 0.951898 0.842796 0.947051 0.829989 0.952154 0.827141 0.218295 0.441523 0.230909 0.449895 0.21381 0.309292 0.230909 0.449895 0.34818 0.356223 0.292562 0.29486 0.516788 0.397565 0.584446 0.451832 0.557644 0.457701 0.551015 0.453684 0.516788 0.397565 0.557644 0.457701 0.542761 0.453525 0.516788 0.397565 0.551015 0.453684 0.614474 0.733481 0.613038 0.735205 0.63377 0.735694 0.520342 0.442933 0.516788 0.397565 0.542761 0.453525 0.637609 0.296349 0.662048 0.257288 0.682516 0.315608 0.419092 0.291721 0.34818 0.356223 0.425878 0.297881 0.373639 0.472853 0.459115 0.37306 0.34818 0.356223 0.68743 0.606394 0.672522 0.534759 0.704003 0.535333 0.019109 0.937026 0.018475 0.902154 0.021311 0.915231 0.672522 0.534759 0.623475 0.556538 0.651178 0.539421 0.651178 0.539421 0.623475 0.556538 0.642548 0.541429 0.672522 0.534759 0.651178 0.539421 0.654977 0.534961 0.018475 0.902154 0.015477 0.886066 0.021311 0.915231 0.68743 0.606394 0.645347 0.633143 0.672522 0.534759 0.317889 0.122386 0.419152 0.15079 0.451427 0.132203 0.317889 0.122386 0.451427 0.132203 0.377535 0.105195 0.810347 0.308613 0.784854 0.253788 0.808093 0.295072 0.425878 0.297881 0.460164 0.291016 0.444317 0.242369 0.425878 0.297881 0.34818 0.356223 0.460164 0.291016 0.34818 0.356223 0.459115 0.37306 0.460164 0.291016 0.985444 0.844909 0.985324 0.784169 0.989205 0.806642 0.989205 0.806642 0.98531 0.73254 0.989295 0.705545 0.989205 0.806642 0.985324 0.784169 0.98531 0.73254 0.67672 0.479329 0.698204 0.446767 0.711267 0.455252 0.748065 0.535806 0.753088 0.588035 0.704003 0.535333 0.01597 0.981635 0.019109 0.937026 0.017869 0.984309 0.753088 0.588035 0.68743 0.606394 0.704003 0.535333 0.579609 0.284758 0.609584 0.226303 0.637609 0.296349 0.496448 0.220147 0.545297 0.199148 0.524526 0.237108 0.685217 0.791785 0.642569 0.782553 0.687535 0.719995 0.023261 0.381815 0.02716 0.374157 0.021841 0.440552 0.023261 0.381815 0.021841 0.440552 0.020369 0.445586 0.405756 0.470264 0.459115 0.37306 0.373639 0.472853 0.065385 0.432996 0.16969 0.473204 0.182368 0.233462 0.182368 0.233462 0.16969 0.473204 0.21381 0.309292 0.117183 0.319236 0.065385 0.432996 0.182368 0.233462 0.58463 0.983592 0.58401 0.987143 0.688971 0.998001 0.58463 0.983592 0.688971 0.998001 0.665986 0.992342 0.790728 0.61487 0.768222 0.530703 0.813891 0.576858 0.813891 0.576858 0.768222 0.530703 0.80607 0.525328 0.815314 0.60437 0.790728 0.61487 0.813891 0.576858 0.815328 0.632631 0.790728 0.61487 0.815314 0.60437 0.317889 0.122386 0.233356 0.131561 0.312386 0.242906 0.157818 0.256212 0.233356 0.131561 0.191477 0.121798 0.465657 0.24021 0.463182 0.324156 0.483358 0.298777 0.465657 0.24021 0.483358 0.298777 0.487232 0.281231 0.483853 0.249462 0.465657 0.24021 0.491076 0.266939 0.491076 0.266939 0.465657 0.24021 0.487232 0.281231 0.549245 0.910963 0.558462 0.91241 0.570365 0.911978 0.491076 0.266939 0.483853 0.249462 0.501033 0.253626 0.24156 0.47842 0.184862 0.471618 0.225347 0.593826 0.865929 0.649304 0.863247 0.718352 0.862319 0.636478 0.579609 0.284758 0.588892 0.344391 0.557165 0.352785 0.02256 0.460798 0.025077 0.495738 0.022849 0.495034 0.736775 0.804819 0.704147 0.796182 0.745778 0.755378 0.704147 0.796182 0.685217 0.791785 0.687535 0.719995 0.464809 0.911098 0.401348 0.792284 0.42631 0.940133 0.647328 0.198545 0.662048 0.257288 0.609584 0.226303 0.609584 0.226303 0.662048 0.257288 0.637609 0.296349 0.406861 0.503828 0.311359 0.486097 0.340205 0.621946 0.863247 0.718352 0.865165 0.779411 0.863699 0.77918 0.580471 0.976416 0.520521 0.976601 0.580549 0.978272 0.464809 0.911098 0.474905 0.757379 0.401348 0.792284 0.605911 0.898442 0.596789 0.841081 0.573119 0.898536 0.99127 0.994582 0.988115 0.994932 0.989988 0.964496 0.99127 0.994582 0.989988 0.964496 0.992663 0.904412 0.022849 0.495034 0.025077 0.495738 0.026373 0.527082 0.647328 0.198545 0.609584 0.226303 0.587188 0.179851 0.032694 0.688865 0.034406 0.681891 0.03851 0.708346 0.21381 0.309292 0.292562 0.29486 0.312386 0.242906 0.989295 0.705545 0.98531 0.73254 0.99029 0.647561 0.454495 0.130166 0.463066 0.220737 0.535681 0.194054 0.76521 0.81254 0.791477 0.766152 0.803599 0.822824 0.647328 0.198545 0.587188 0.179851 0.648574 0.150509 0.022849 0.495034 0.026373 0.527082 0.025873 0.563299 0.645347 0.633143 0.623475 0.556538 0.672522 0.534759 0.233356 0.131561 0.21381 0.309292 0.312386 0.242906 0.024411 0.269634 0.021342 0.248221 0.023458 0.208342 0.520521 0.976601 0.451182 0.976116 0.49536 0.979075 0.520521 0.976601 0.49536 0.979075 0.580549 0.978272 0.454495 0.130166 0.492972 0.107117 0.480911 0.087391 0.454495 0.130166 0.535681 0.194054 0.492972 0.107117 0.454495 0.130166 0.451427 0.132203 0.480911 0.087391 0.152172 0.1094 0.157818 0.256212 0.191477 0.121798 0.385541 0.230181 0.292562 0.29486 0.34818 0.356223 0.385541 0.230181 0.312386 0.242906 0.292562 0.29486 0.644565 0.922083 0.624177 0.899779 0.626808 0.896628 0.317889 0.122386 0.312386 0.242906 0.406604 0.182555 0.952154 0.827141 0.947051 0.829989 0.947045 0.79119 0.950551 0.791517 0.952154 0.827141 0.947045 0.79119 0.745778 0.755378 0.704147 0.796182 0.687535 0.719995 0.989988 0.964496 0.986416 0.896186 0.992663 0.904412 0.826719 0.66595 0.843018 0.689449 0.803932 0.694369 0.803932 0.694369 0.790728 0.61487 0.815328 0.632631 0.915153 0.326262 0.897028 0.325792 0.929125 0.325115 0.897028 0.325792 0.991093 0.295176 0.929125 0.325115 0.405756 0.470264 0.455765 0.475916 0.459115 0.37306 0.21381 0.309292 0.186527 0.45812 0.203952 0.449142 0.16969 0.473204 0.186527 0.45812 0.21381 0.309292 0.833395 0.646851 0.834652 0.659635 0.836899 0.658804 0.187229 0.627979 0.179174 0.631773 0.243566 0.647492 0.826719 0.66595 0.803932 0.694369 0.815328 0.632631 0.765207 0.659247 0.687535 0.719995 0.684103 0.66279 0.032694 0.688865 0.03851 0.708346 0.038312 0.750859 0.450966 0.967997 0.392462 0.969451 0.452662 0.971415 0.452662 0.971415 0.392462 0.969451 0.392826 0.972567 0.887883 0.329967 0.859453 0.3462 0.897028 0.325792 0.896061 0.344203 0.859453 0.3462 0.887883 0.329967 0.896061 0.344203 0.887883 0.329967 0.901614 0.337405 0.862389 0.595367 0.86583 0.595357 0.862319 0.636478 0.865929 0.649304 0.865165 0.779411 0.863247 0.718352 0.808093 0.295072 0.83593 0.34495 0.991093 0.295176 0.573119 0.898536 0.596789 0.841081 0.58813 0.752535 0.86583 0.595357 0.865929 0.649304 0.862319 0.636478 0.16969 0.473204 0.181681 0.465395 0.186527 0.45812 0.474905 0.757379 0.585329 0.720286 0.584063 0.682354 0.599783 0.9685 0.565395 0.968315 0.599529 0.971404 0.599529 0.971404 0.565395 0.968315 0.568222 0.971256 0.897028 0.325792 0.859453 0.3462 0.991093 0.295176 0.808093 0.295072 0.83593 0.34495 0.829822 0.342778 0.721582 0.031593 0.720795 0.029852 0.715096 0.030294 0.544345 0.017693 0.544358 0.02085 0.556653 0.020736 0.564516 0.018343 0.556653 0.020736 0.565823 0.022242 0.476009 0.011471 0.464011 0.015481 0.510273 0.020707 0.456985 0.042412 0.483501 0.033082 0.464011 0.015481 0.464011 0.015481 0.483501 0.033082 0.510273 0.020707 0.01236 0.185396 0.011321 0.212625 0.010237 0.182429 0.456985 0.042412 0.464011 0.015481 0.429889 0.019783 0.383584 0.014236 0.397837 0.037062 0.456985 0.042412 0.400082 0.011844 0.456985 0.042412 0.429889 0.019783 0.400082 0.011844 0.383584 0.014236 0.456985 0.042412 0.103366 0.998211 0.132983 0.991319 0.084903 0.966873 0.103366 0.998211 0.084903 0.966873 0.071126 0.986928 0.369987 0.035712 0.397837 0.037062 0.383584 0.014236 0.071126 0.986928 0.084903 0.966873 0.049409 0.975876 0.132983 0.991319 0.142675 0.97368 0.084903 0.966873 0.834286 0.556019 0.859559 0.55759 0.863438 0.555403 0.159912 0.992583 0.160745 0.969314 0.132983 0.991319 0.189624 0.991072 0.160745 0.969314 0.175644 0.969559 0.189624 0.991072 0.159912 0.992583 0.160745 0.969314 0.132983 0.991319 0.160745 0.969314 0.142675 0.97368 0.055789 0.063661 0.080844 0.046657 0.078066 0.012713 0.059851 0.019987 0.055789 0.063661 0.078066 0.012713 0.055789 0.063661 0.077372 0.056228 0.080844 0.046657 0.142508 0.080297 0.112386 0.082589 0.135235 0.058792 0.075768 0.074895 0.077372 0.056228 0.055789 0.063661 0.135235 0.058792 0.112386 0.082589 0.101392 0.078489 0.101392 0.078489 0.142526 0.025141 0.135235 0.058792 0.135235 0.058792 0.142526 0.025141 0.139392 0.041004 0.101392 0.078489 0.082812 0.076023 0.095223 0.050548 0.101392 0.078489 0.095223 0.050548 0.142526 0.025141 0.055789 0.063661 0.059851 0.019987 0.041946 0.015696 0.015727 0.028917 0.041946 0.015696 0.026508 0.012411 0.015727 0.028917 0.055789 0.063661 0.041946 0.015696 0.703234 0.131941 0.704019 0.115576 0.701379 0.115085 0.142526 0.025141 0.095223 0.050548 0.105715 0.010838 0.130143 0.003936 0.142526 0.025141 0.105715 0.010838 0.447529 0.171343 0.444932 0.171427 0.447686 0.157151 0.015141 0.052318 0.055789 0.063661 0.015727 0.028917 0.447686 0.157151 0.444932 0.171427 0.446248 0.144363 0.028188 0.184411 0.031392 0.176893 0.029773 0.212091 0.905465 0.742425 0.906518 0.759229 0.904142 0.756104 0.360664 0.044681 0.386355 0.043192 0.364488 0.042187</float_array>
          <technique_common>
            <accessor source="#Paper3-mesh-map-0-array" count="1500" stride="2">
              <param name="S" type="float"/>
              <param name="T" type="float"/>
            </accessor>
          </technique_common>
        </source>
        <vertices id="Paper3-mesh-vertices">
          <input semantic="POSITION" source="#Paper3-mesh-positions"/>
        </vertices>
        <polylist material="Material_-1-material" count="6">
          <input semantic="VERTEX" source="#Paper3-mesh-vertices" offset="0"/>
          <input semantic="NORMAL" source="#Paper3-mesh-normals" offset="1"/>
          <input semantic="TEXCOORD" source="#Paper3-mesh-map-0" offset="2" set="0"/>
          <vcount>3 3 3 3 3 3 3 3 3 3 3 3 3 3 3 3 3 3 3 3 3 3 3 3 3 3 3 3 3 3 3 3 3 3 3 3 3 3 3 3 3 3 3 3 3 3 3 3 3 3 3 3 3 3 3 3 3 3 3 3 3 3 3 3 3 3 3 3 3 3 3 3 3 3 3 3 3 3 3 3 3 3 3 3 3 3 3 3 3 3 3 3 3 3 3 3 3 3 3 3 3 3 3 3 3 3 3 3 3 3 3 3 3 3 3 3 3 3 3 3 3 3 3 3 3 3 3 3 3 3 3 3 3 3 3 3 3 3 3 3 3 3 3 3 3 3 3 3 3 3 3 3 3 3 3 3 3 3 3 3 3 3 3 3 3 3 3 3 3 3 3 3 3 3 3 3 3 3 3 3 3 3 3 3 3 3 3 3 3 3 3 3 3 3 3 3 3 3 3 3 3 3 3 3 3 3 3 3 3 3 3 3 3 3 3 3 3 3 3 3 3 3 3 3 3 3 3 3 3 3 3 3 3 3 3 3 3 3 3 3 3 3 3 3 3 3 3 3 3 3 3 3 3 3 3 3 3 3 3 3 3 3 3 3 3 3 3 3 3 3 3 3 3 3 3 3 3 3 3 3 3 3 3 3 3 3 3 3 3 3 3 3 3 3 3 3 3 3 3 3 3 3 3 3 3 3 3 3 3 3 3 3 3 3 3 3 3 3 3 3 3 3 3 3 3 3 3 3 3 3 3 3 3 3 3 3 3 3 3 3 3 3 3 3 3 3 3 3 3 3 3 3 3 3 3 3 3 3 3 3 3 3 3 3 3 3 3 3 3 3 3 3 3 3 3 3 3 3 3 3 3 3 3 3 3 3 3 3 3 3 3 3 3 3 3 3 3 3 3 3 3 3 3 3 3 3 3 3 3 3 3 3 3 3 3 3 3 3 3 3 3 3 3 3 3 3 3 3 3 3 3 3 3 3 3 3 3 3 3 3 3 3 3 3 3 3 3 3 3 3 3 3 3 3 3 3 3 3 3 3 3 3 3 3 3 3 3 3 3 3 3 3 3 3 3 3 3 3 3 3 3 3 3 3 3 3 3 3 3 3 3 3 3 3 3 3 3 3 3 3</vcount>
          <p>0 0 0 1 0 1 2 0 2 0 1 3 3 1 4 1 1 5 4 2 6 5 2 7 0 2 8 5 3 9 3 3 10 0 3 11 6 4 12 4 4 13 5 4 14 4 5 15 0 5 16 7 5 17 1 6 18 7 6 19 2 6 20 7 7 21 0 7 22 2 7 23 5 8 24 6 8 25 3 8 26 6 9 27 4 9 28 3 9 29 3 10 30 4 10 31 7 10 32 3 11 33 7 11 34 1 11 35 8 12 36 9 12 37 10 12 38 11 13 39 12 13 40 13 13 41 14 14 42 15 14 43 16 14 44 15 15 45 14 15 46 17 15 47 18 16 48 17 16 49 19 16 50 20 17 51 21 17 52 15 17 53 21 18 54 22 18 55 15 18 56 15 19 57 22 19 58 23 19 59 22 20 60 24 20 61 23 20 62 17 21 63 18 21 64 20 21 65 17 22 66 15 22 67 20 22 68 25 23 69 21 23 70 26 23 71 21 24 72 20 24 73 26 24 74 26 25 75 20 25 76 27 25 77 28 26 78 18 26 79 19 26 80 20 27 81 18 27 82 28 27 83 28 28 84 19 28 85 29 28 86 19 29 87 30 29 88 29 29 89 27 30 90 20 30 91 28 30 92 28 31 93 29 31 94 27 31 95 30 32 96 27 32 97 29 32 98 31 33 99 32 33 100 33 33 101 32 34 102 34 34 103 33 34 104 34 35 105 35 35 106 33 35 107 30 36 108 32 36 109 31 36 110 33 37 111 35 37 112 36 37 113 8 38 114 37 38 115 11 38 116 9 39 117 8 39 118 11 39 119 12 40 120 37 40 121 38 40 122 39 41 123 16 41 124 8 41 125 8 42 126 16 42 127 37 42 128 12 43 129 11 43 130 37 43 131 40 44 132 19 44 133 32 44 134 19 45 135 41 45 136 40 45 137 30 46 138 19 46 139 32 46 140 40 47 141 41 47 142 42 47 143 43 48 144 34 48 145 32 48 146 43 49 147 35 49 148 34 49 149 40 50 150 43 50 151 32 50 152 42 51 153 36 51 154 35 51 155 15 52 156 23 52 157 16 52 158 24 53 159 38 53 160 37 53 161 23 54 162 24 54 163 37 54 164 16 55 165 23 55 166 37 55 167 36 56 168 44 56 169 31 56 170 36 57 171 31 57 172 33 57 173 35 58 174 43 58 175 42 58 176 40 59 177 42 59 178 43 59 179 42 60 180 41 60 181 19 60 182 42 61 183 19 61 184 17 61 185 42 62 186 17 62 187 36 62 188 17 63 189 14 63 190 36 63 191 39 64 192 8 64 193 45 64 194 45 65 195 8 65 196 10 65 197 24 66 198 22 66 199 38 66 200 22 67 201 25 67 202 38 67 203 38 68 204 25 68 205 12 68 206 22 69 207 21 69 208 25 69 209 14 70 210 16 70 211 44 70 212 36 71 213 14 71 214 44 71 215 44 72 216 16 72 217 39 72 218 39 73 219 45 73 220 46 73 221 46 74 222 45 74 223 10 74 224 47 75 225 30 75 226 48 75 227 12 76 228 25 76 229 13 76 230 31 77 231 44 77 232 49 77 233 13 78 234 50 78 235 51 78 236 11 79 237 13 79 238 51 79 239 9 80 240 51 80 241 52 80 242 9 81 243 11 81 244 51 81 245 53 82 246 54 82 247 55 82 248 53 83 249 55 83 250 56 83 251 58 84 252 57 84 253 59 84 254 58 85 255 60 85 256 59 85 257 61 86 258 58 86 259 55 86 260 55 87 261 58 87 262 56 87 263 55 88 264 54 88 265 62 88 266 54 89 267 63 89 268 62 89 269 64 90 270 65 90 271 66 90 272 67 91 273 66 91 274 68 91 275 67 92 276 64 92 277 66 92 278 69 93 279 70 93 280 71 93 281 72 94 282 73 94 283 74 94 284 72 95 285 75 95 286 73 95 287 72 96 288 76 96 289 75 96 290 75 97 291 76 97 292 73 97 293 72 98 294 71 98 295 76 98 296 73 99 297 76 99 298 77 99 299 78 100 300 79 100 301 69 100 302 80 101 303 78 101 304 81 101 305 82 102 306 79 102 307 78 102 308 67 103 309 83 103 310 69 103 311 84 104 312 85 104 313 86 104 314 87 105 315 88 105 316 86 105 317 87 106 318 86 106 319 85 106 320 26 107 321 27 107 322 89 107 323 27 108 324 47 108 325 48 108 326 90 109 327 91 109 328 88 109 329 88 110 330 91 110 331 92 110 332 93 111 333 91 111 334 94 111 335 91 112 336 93 112 337 92 112 338 90 113 339 95 113 340 91 113 341 96 114 342 97 114 343 95 114 344 98 115 345 99 115 346 100 115 347 94 116 348 91 116 349 101 116 350 98 117 351 100 117 352 91 117 353 102 118 354 49 118 355 103 118 356 30 119 357 31 119 358 49 119 359 48 120 360 30 120 361 49 120 362 104 121 363 105 121 364 106 121 365 104 122 366 106 122 367 79 122 368 105 123 369 107 123 370 108 123 371 109 124 372 110 124 373 105 124 374 109 125 375 105 125 376 108 125 377 110 126 378 109 126 379 111 126 380 107 127 381 105 127 382 104 127 383 112 128 384 107 128 385 104 128 386 110 129 387 113 129 388 106 129 389 105 130 390 110 130 391 106 130 392 110 131 393 111 131 394 114 131 395 113 132 396 110 132 397 114 132 398 106 133 399 113 133 400 115 133 401 113 134 402 114 134 403 115 134 404 96 135 405 95 135 406 116 135 407 116 136 408 95 136 409 117 136 410 117 137 411 95 137 412 90 137 413 118 138 414 116 138 415 117 138 416 119 139 417 120 139 418 121 139 419 121 140 420 122 140 421 119 140 422 123 141 423 124 141 424 122 141 425 64 142 426 124 142 427 123 142 428 124 143 429 125 143 430 122 143 431 126 144 432 127 144 433 128 144 434 127 145 435 126 145 436 129 145 437 126 146 438 53 146 439 56 146 440 126 147 441 130 147 442 129 147 443 129 148 444 130 148 445 131 148 446 128 149 447 132 149 448 126 149 449 69 150 450 83 150 451 70 150 452 72 151 453 69 151 454 71 151 455 94 152 456 70 152 457 133 152 458 101 153 459 70 153 460 94 153 461 101 154 462 91 154 463 100 154 464 134 155 465 135 155 466 100 155 467 100 156 468 135 156 469 101 156 470 94 157 471 133 157 472 93 157 473 136 158 474 137 158 475 138 158 476 139 159 477 140 159 478 141 159 479 83 160 480 136 160 481 138 160 482 70 161 483 138 161 484 142 161 485 142 162 486 138 162 487 90 162 488 140 163 489 139 163 490 143 163 491 139 164 492 141 164 493 144 164 494 144 165 495 96 165 496 116 165 497 136 166 498 139 166 499 137 166 500 144 167 501 116 167 502 137 167 503 139 168 504 144 168 505 137 168 506 144 169 507 141 169 508 96 169 509 136 170 510 145 170 511 146 170 512 147 171 513 136 171 514 139 171 515 146 172 516 136 172 517 147 172 518 118 173 519 137 173 520 116 173 521 138 174 522 137 174 523 118 174 524 117 175 525 138 175 526 118 175 527 138 176 528 117 176 529 90 176 530 148 177 531 50 177 532 132 177 533 132 178 534 128 178 535 148 178 536 149 179 537 81 179 538 150 179 539 150 180 540 81 180 541 78 180 542 151 181 543 152 181 544 150 181 545 150 182 546 153 182 547 151 182 548 150 183 549 154 183 550 153 183 551 150 184 552 78 184 553 154 184 554 98 185 555 95 185 556 99 185 557 95 186 558 97 186 559 155 186 560 95 187 561 155 187 562 99 187 563 95 188 564 98 188 565 91 188 566 156 189 567 72 189 568 74 189 569 157 190 570 158 190 571 156 190 572 159 191 573 160 191 574 161 191 575 157 192 576 159 192 577 158 192 578 157 193 579 159 193 580 160 193 581 160 194 582 161 194 583 162 194 584 156 195 585 158 195 586 72 195 587 163 196 588 72 196 589 158 196 590 159 197 591 163 197 592 158 197 593 86 198 594 88 198 595 84 198 596 84 199 597 88 199 598 92 199 599 92 200 600 164 200 601 84 200 602 70 201 603 83 201 604 138 201 605 165 202 606 166 202 607 167 202 608 168 203 609 166 203 610 165 203 611 169 204 612 61 204 613 55 204 614 61 205 615 169 205 616 165 205 617 169 206 618 62 206 619 63 206 620 63 207 621 165 207 622 169 207 623 169 208 624 55 208 625 62 208 626 78 209 627 69 209 628 163 209 629 163 210 630 69 210 631 72 210 632 142 211 633 90 211 634 88 211 635 50 212 636 13 212 637 170 212 638 171 213 639 172 213 640 170 213 641 170 214 642 172 214 643 173 214 644 50 215 645 170 215 646 173 215 647 50 216 648 173 216 649 174 216 650 175 217 651 60 217 652 89 217 653 58 218 654 61 218 655 60 218 656 61 219 657 165 219 658 60 219 659 60 220 660 167 220 661 89 220 662 167 221 663 60 221 664 165 221 665 127 222 666 176 222 667 129 222 668 129 223 669 176 223 670 177 223 671 178 224 672 127 224 673 176 224 674 130 225 675 151 225 676 131 225 677 177 226 678 131 226 679 179 226 680 177 227 681 129 227 682 131 227 683 180 228 684 176 228 685 177 228 686 88 229 687 142 229 688 87 229 689 85 230 690 142 230 691 87 230 692 70 231 693 142 231 694 85 231 695 164 232 696 70 232 697 85 232 698 76 233 699 71 233 700 77 233 701 135 234 702 71 234 703 70 234 704 135 235 705 70 235 706 101 235 707 77 236 708 71 236 709 134 236 710 71 237 711 135 237 712 134 237 713 181 238 714 182 238 715 125 238 716 183 239 717 184 239 718 185 239 719 184 240 720 183 240 721 186 240 722 184 241 723 186 241 724 64 241 725 184 242 726 182 242 727 181 242 728 184 243 729 187 243 730 185 243 731 187 244 732 181 244 733 184 244 734 188 245 735 83 245 736 68 245 737 83 246 738 67 246 739 68 246 740 83 247 741 189 247 742 136 247 743 92 248 744 133 248 745 164 248 746 164 249 747 133 249 748 70 249 749 93 250 750 133 250 751 92 250 752 190 251 753 191 251 754 59 251 755 192 252 756 193 252 757 190 252 758 190 253 759 59 253 760 192 253 761 148 254 762 52 254 763 51 254 764 127 255 765 52 255 766 148 255 767 178 256 768 194 256 769 52 256 770 52 257 771 127 257 772 178 257 773 195 258 774 196 258 775 197 258 776 195 259 777 180 259 778 196 259 779 197 260 780 196 260 781 180 260 782 197 261 783 180 261 784 179 261 785 180 262 786 179 262 787 177 262 788 198 263 789 178 263 790 176 263 791 120 264 792 199 264 793 200 264 794 120 265 795 201 265 796 202 265 797 203 266 798 104 266 799 79 266 800 199 267 801 203 267 802 200 267 803 203 268 804 204 268 805 200 268 806 104 269 807 203 269 808 199 269 809 204 270 810 203 270 811 79 270 812 82 271 813 204 271 814 79 271 815 205 272 816 104 272 817 199 272 818 164 273 819 85 273 820 84 273 821 183 274 822 185 274 823 124 274 824 124 275 825 186 275 826 183 275 827 124 276 828 181 276 829 125 276 830 64 277 831 186 277 832 124 277 833 185 278 834 187 278 835 181 278 836 185 279 837 181 279 838 124 279 839 140 280 840 206 280 841 141 280 842 143 281 843 139 281 844 96 281 845 140 282 846 143 282 847 206 282 848 143 283 849 96 283 850 206 283 851 109 284 852 108 284 853 111 284 854 114 285 855 111 285 856 115 285 857 115 286 858 111 286 859 207 286 860 208 287 861 209 287 862 210 287 863 211 288 864 81 288 865 208 288 866 80 289 867 81 289 868 211 289 869 208 290 870 81 290 871 209 290 872 191 291 873 211 291 874 208 291 875 175 292 876 102 292 877 212 292 878 103 293 879 212 293 880 102 293 881 148 294 882 128 294 883 127 294 884 213 295 885 123 295 886 214 295 887 123 296 888 215 296 889 214 296 890 123 297 891 122 297 892 215 297 893 212 298 894 198 298 895 176 298 896 216 299 897 212 299 898 176 299 899 212 300 900 216 300 901 175 300 902 60 301 903 175 301 904 216 301 905 191 302 906 201 302 907 217 302 908 217 303 909 211 303 910 191 303 911 218 304 912 207 304 913 111 304 914 106 305 915 218 305 916 219 305 917 106 306 918 207 306 919 218 306 920 106 307 921 115 307 922 207 307 923 218 308 924 111 308 925 220 308 926 219 309 927 182 309 928 67 309 929 219 310 930 218 310 931 220 310 932 219 311 933 182 311 934 125 311 935 125 312 936 219 312 937 220 312 938 182 313 939 184 313 940 67 313 941 79 314 942 106 314 943 219 314 944 79 315 945 219 315 946 67 315 947 69 316 948 79 316 949 67 316 950 153 317 951 154 317 952 221 317 953 153 318 954 221 318 955 222 318 956 221 319 957 154 319 958 222 319 959 222 320 960 154 320 961 159 320 962 155 321 963 223 321 964 195 321 965 195 322 966 223 322 967 180 322 968 224 323 969 190 323 970 223 323 971 190 324 972 225 324 973 223 324 974 56 325 975 130 325 976 126 325 977 102 326 978 48 326 979 49 326 980 27 327 981 48 327 982 89 327 983 89 328 984 48 328 985 102 328 986 49 329 987 44 329 988 39 329 989 49 330 990 39 330 991 46 330 992 197 331 993 100 331 994 99 331 995 100 332 996 197 332 997 134 332 998 200 333 999 204 333 1000 201 333 1001 200 334 1002 201 334 1003 120 334 1004 201 335 1005 191 335 1006 202 335 1007 9 336 1008 52 336 1009 226 336 1010 227 337 1011 9 337 1012 226 337 1013 228 338 1014 9 338 1015 227 338 1016 46 339 1017 10 339 1018 228 339 1019 10 340 1020 9 340 1021 228 340 1022 132 341 1023 53 341 1024 126 341 1025 59 342 1026 191 342 1027 57 342 1028 208 343 1029 152 343 1030 191 343 1031 103 344 1032 229 344 1033 194 344 1034 194 345 1035 229 345 1036 52 345 1037 229 346 1038 46 346 1039 227 346 1040 227 347 1041 46 347 1042 228 347 1043 229 348 1044 227 348 1045 226 348 1046 229 349 1047 226 349 1048 52 349 1049 103 350 1050 49 350 1051 229 350 1052 155 351 1053 195 351 1054 197 351 1055 155 352 1056 197 352 1057 99 352 1058 121 353 1059 155 353 1060 97 353 1061 57 354 1062 151 354 1063 130 354 1064 57 355 1065 191 355 1066 151 355 1067 191 356 1068 152 356 1069 151 356 1070 153 357 1071 156 357 1072 151 357 1073 151 358 1074 74 358 1075 131 358 1076 151 359 1077 156 359 1078 74 359 1079 27 360 1080 30 360 1081 47 360 1082 198 361 1083 212 361 1084 194 361 1085 198 362 1086 194 362 1087 178 362 1088 212 363 1089 103 363 1090 194 363 1091 50 364 1092 174 364 1093 132 364 1094 25 365 1095 170 365 1096 13 365 1097 171 366 1098 26 366 1099 89 366 1100 25 367 1101 26 367 1102 171 367 1103 25 368 1104 171 368 1105 170 368 1106 210 369 1107 152 369 1108 208 369 1109 111 370 1110 108 370 1111 119 370 1112 119 371 1113 108 371 1114 120 371 1115 220 372 1116 111 372 1117 119 372 1118 125 373 1119 220 373 1120 119 373 1121 125 374 1122 119 374 1123 122 374 1124 216 375 1125 176 375 1126 223 375 1127 223 376 1128 176 376 1129 180 376 1130 225 377 1131 216 377 1132 223 377 1133 193 378 1134 216 378 1135 225 378 1136 155 379 1137 121 379 1138 224 379 1139 122 380 1140 121 380 1141 230 380 1142 156 381 1143 153 381 1144 222 381 1145 156 382 1146 222 382 1147 159 382 1148 157 383 1149 156 383 1150 161 383 1151 161 384 1152 156 384 1153 159 384 1154 162 385 1155 160 385 1156 157 385 1157 161 386 1158 157 386 1159 162 386 1160 65 387 1161 231 387 1162 66 387 1163 66 388 1164 214 388 1165 215 388 1166 50 389 1167 148 389 1168 51 389 1169 172 390 1170 166 390 1171 173 390 1172 166 391 1173 172 391 1174 167 391 1175 172 392 1176 171 392 1177 89 392 1178 154 393 1179 163 393 1180 159 393 1181 54 394 1182 53 394 1183 174 394 1184 174 395 1185 53 395 1186 132 395 1187 184 396 1188 64 396 1189 67 396 1190 214 397 1191 231 397 1192 213 397 1193 231 398 1194 65 398 1195 213 398 1196 154 399 1197 78 399 1198 163 399 1199 232 400 1200 209 400 1201 149 400 1202 233 401 1203 232 401 1204 149 401 1205 233 402 1206 149 402 1207 152 402 1208 173 403 1209 166 403 1210 168 403 1211 54 404 1212 174 404 1213 173 404 1214 56 405 1215 58 405 1216 57 405 1217 120 406 1218 202 406 1219 224 406 1220 131 407 1221 74 407 1222 179 407 1223 179 408 1224 74 408 1225 73 408 1226 168 409 1227 165 409 1228 63 409 1229 54 410 1230 173 410 1231 63 410 1232 173 411 1233 168 411 1234 63 411 1235 49 412 1236 46 412 1237 229 412 1238 121 413 1239 120 413 1240 224 413 1241 96 414 1242 141 414 1243 206 414 1244 65 415 1245 64 415 1246 123 415 1247 65 416 1248 123 416 1249 213 416 1250 179 417 1251 77 417 1252 134 417 1253 179 418 1254 73 418 1255 77 418 1256 179 419 1257 197 419 1258 134 419 1259 215 420 1260 122 420 1261 230 420 1262 190 421 1263 202 421 1264 191 421 1265 190 422 1266 224 422 1267 202 422 1268 190 423 1269 193 423 1270 225 423 1271 155 424 1272 224 424 1273 223 424 1274 201 425 1275 204 425 1276 82 425 1277 217 426 1278 201 426 1279 82 426 1280 167 427 1281 172 427 1282 89 427 1283 149 428 1284 150 428 1285 152 428 1286 192 429 1287 59 429 1288 60 429 1289 60 430 1290 216 430 1291 193 430 1292 147 431 1293 146 431 1294 139 431 1295 146 432 1296 96 432 1297 139 432 1298 210 433 1299 233 433 1300 152 433 1301 120 434 1302 205 434 1303 199 434 1304 108 435 1305 205 435 1306 120 435 1307 189 436 1308 136 436 1309 145 436 1310 188 437 1311 189 437 1312 83 437 1313 192 438 1314 60 438 1315 193 438 1316 175 439 1317 89 439 1318 102 439 1319 56 440 1320 57 440 1321 130 440 1322 209 441 1323 232 441 1324 210 441 1325 210 442 1326 232 442 1327 233 442 1328 145 443 1329 68 443 1330 146 443 1331 188 444 1332 68 444 1333 145 444 1334 188 445 1335 145 445 1336 189 445 1337 230 446 1338 68 446 1339 215 446 1340 66 447 1341 231 447 1342 214 447 1343 97 448 1344 68 448 1345 96 448 1346 149 449 1347 209 449 1348 81 449 1349 68 450 1350 66 450 1351 215 450 1352 108 451 1353 112 451 1354 205 451 1355 78 452 1356 80 452 1357 82 452 1358 82 453 1359 80 453 1360 217 453 1361 217 454 1362 80 454 1363 211 454 1364 146 455 1365 68 455 1366 96 455 1367 97 456 1368 68 456 1369 230 456 1370 121 457 1371 97 457 1372 230 457 1373 108 458 1374 107 458 1375 112 458 1376 205 459 1377 112 459 1378 104 459 1379 234 460 1380 235 460 1381 236 460 1382 237 461 1383 238 461 1384 235 461 1385 235 462 1386 238 462 1387 236 462 1388 237 463 1389 239 463 1390 240 463 1391 237 464 1392 235 464 1393 241 464 1394 242 465 1395 239 465 1396 237 465 1397 243 466 1398 237 466 1399 241 466 1400 243 467 1401 242 467 1402 237 467 1403 237 468 1404 240 468 1405 234 468 1406 237 469 1407 234 469 1408 238 469 1409 244 470 1410 239 470 1411 242 470 1412 238 471 1413 234 471 1414 236 471 1415 240 472 1416 241 472 1417 234 472 1418 241 473 1419 235 473 1420 234 473 1421 239 474 1422 243 474 1423 240 474 1424 244 475 1425 243 475 1426 242 475 1427 244 476 1428 239 476 1429 243 476 1430 240 477 1431 243 477 1432 241 477 1433 245 478 1434 246 478 1435 247 478 1436 248 479 1437 245 479 1438 247 479 1439 245 480 1440 249 480 1441 246 480 1442 247 481 1443 246 481 1444 248 481 1445 250 482 1446 249 482 1447 245 482 1448 248 483 1449 246 483 1450 249 483 1451 249 484 1452 251 484 1453 248 484 1454 248 485 1455 251 485 1456 252 485 1457 249 486 1458 250 486 1459 253 486 1460 249 487 1461 253 487 1462 251 487 1463 245 488 1464 248 488 1465 252 488 1466 254 489 1467 252 489 1468 255 489 1469 254 490 1470 245 490 1471 252 490 1472 252 491 1473 251 491 1474 255 491 1475 251 492 1476 253 492 1477 256 492 1478 257 493 1479 251 493 1480 256 493 1481 255 494 1482 251 494 1483 254 494 1484 256 495 1485 245 495 1486 254 495 1487 254 496 1488 251 496 1489 257 496 1490 253 497 1491 245 497 1492 256 497 1493 257 498 1494 256 498 1495 254 498 1496 253 499 1497 250 499 1498 245 499 1499</p>
        </polylist>
      </mesh>
    </geometry>
  </library_geometries>
  <library_visual_scenes>
    <visual_scene id="Scene" name="Scene">
      <node id="Paper3" name="Paper3" type="NODE">
        <scale sid="scale">1 1 1</scale>
        <translate sid="location">0.011704569767441875 0.035349162790697664 0.00025473255813954036</translate>
        <rotate sid="rotationX">1 0 0 0</rotate>
        <rotate sid="rotationY">0 1 0 0</rotate>
        <rotate sid="rotationZ">0 0 1 0</rotate>
        <instance_geometry url="#Paper3-mesh" name="Paper3">
          <bind_material>
            <technique_common>
            </technique_common>
          </bind_material>
        </instance_geometry>
      </node>
    </visual_scene>
  </library_visual_scenes>
  <scene>
    <instance_visual_scene url="#Scene"/>
  </scene>
</COLLADA>
