<?xml version="1.0" encoding="utf-8"?>
<COLLADA xmlns="http://www.collada.org/2005/11/COLLADASchema" version="1.4.1" xmlns:xsi="http://www.w3.org/2001/XMLSchema-instance">
  <asset>
    <contributor>
      <author>Blockbench user</author>
      <authoring_tool>Blockbench</authoring_tool>
    </contributor>
    <created>2026-04-03T05:37:01.321Z</created>
    <modified>2026-04-03T05:37:01.329Z</modified>
    <unit name="meter" meter="1.0"/>
    <up_axis>Y_UP</up_axis>
  </asset>
  <library_effects>
  </library_effects>
  <library_images>
  </library_images>
  <library_materials>
  </library_materials>
  <library_geometries>
    <geometry id="ParalysisNeedle-mesh" name="ParalysisNeedle">
      <mesh>
        <source id="ParalysisNeedle-mesh-positions">
          <float_array id="ParalysisNeedle-mesh-positions-array" count="750">-0.002938 -0.497194 -0.491807 -0.00235 -0.496777 -0.4983 0.000926 -0.502349 -0.496799 0.002653 -0.476814 -0.484377 0.006861 -0.443998 -0.442261 -0.004994 -0.446965 -0.426338 -0.006443 -0.455048 -0.454224 -0.00456 -0.427457 -0.447048 -0.000284 -0.37095 -0.410345 0.004727 -0.409176 -0.432895 0.004879 -0.443935 -0.423269 -0.007726 -0.418947 -0.419687 -0.000066 -0.427246 -0.394288 -0.005175 -0.395051 -0.421612 -0.009867 -0.344688 -0.345576 -0.005062 -0.332013 -0.373228 0.004438 -0.332247 -0.37429 0.008202 -0.384486 -0.385807 0.004268 -0.387746 -0.350757 -0.004656 -0.387975 -0.351024 -0.006561 -0.290737 -0.320886 -0.005314 -0.287782 -0.330703 -0.000069 -0.318207 -0.366905 -0.002616 -0.254075 -0.301945 0.000483 -0.257778 -0.306736 0.004198 -0.295674 -0.33864 0.005883 -0.279663 -0.311394 0.009569 -0.338714 -0.338452 0.000421 -0.371586 -0.326738 0.004142 -0.335746 -0.296455 0.000227 -0.305365 -0.263032 -0.004155 -0.358812 -0.317564 -0.00502 -0.322112 -0.284094 -0.010128 -0.292828 -0.295651 -0.005171 -0.253698 -0.215848 0.004462 -0.287065 -0.249227 0.009427 -0.287103 -0.288781 0.006404 -0.253627 -0.231325 0.010264 -0.247583 -0.250874 -0.006502 -0.229043 -0.205394 0.00599 -0.19274 -0.22552 0.004634 -0.230136 -0.274572 -0.006524 -0.172926 -0.205536 -0.01095 -0.229332 -0.232867 -0.000154 -0.190708 -0.146191 0.006332 -0.160012 -0.190171 0.01041 -0.173958 -0.176938 0.006314 -0.151152 -0.124939 0.004802 -0.18148 -0.141607 -0.004891 -0.188872 -0.148175 -0.011245 -0.159878 -0.162602 0.004964 -0.162787 -0.207452 0.000196 -0.147506 -0.197332 -0.002221 -0.120863 -0.169312 -0.005255 -0.144452 -0.188982 -0.007803 -0.134918 -0.158777 0.010692 -0.109605 -0.109827 -0.005267 -0.134692 -0.091579 -0.006574 -0.123329 -0.094747 0.000157 -0.083275 -0.13132 0.004688 -0.058945 -0.101457 0.004758 -0.090673 -0.044542 0.008113 -0.057957 -0.035646 -0.011492 -0.078828 -0.077492 -0.006838 -0.051683 -0.076821 0.010899 -0.05315 -0.049176 0.000156 -0.084407 -0.032664 -0.004823 -0.084049 -0.035658 -0.006593 -0.069377 -0.036458 0.006222 -0.069034 -0.096051 -0.001884 -0.009288 -0.05346 0.000377 -0.015451 -0.060653 0.006156 -0.036751 -0.064001 -0.005507 -0.034049 -0.074716 0.004859 -0.015725 -0.055882 -0.01175 -0.042207 -0.037269 -0.007154 0.057001 0.039047 0.004947 0.049609 0.013934 -0.005344 0.037204 -0.000165 -0.004762 -0.003496 0.051078 -0.007051 0.020184 0.058138 0.004896 -0.011556 0.041798 -0.011506 0.05539 0.066554 0.006308 -0.004549 0.033177 0.01085 0.020311 0.028516 0.006593 0.042879 0.025333 0.011035 0.106278 0.123292 0.006454 0.066394 0.109097 0.000605 0.064293 0.023272 -0.001504 0.111836 0.074373 0.000015 0.137756 0.100684 0.004925 0.125019 0.09214 -0.005297 0.079456 0.044753 -0.000311 0.035713 0.098918 -0.00552 0.082487 0.144126 -0.006892 0.089325 0.135361 -0.006298 0.102481 0.188656 -0.000005 0.091507 0.160739 0.005081 0.07323 0.133819 0.00463 0.090494 0.15496 -0.01226 0.127188 0.148224 -0.008875 0.119127 0.167848 -0.007783 0.14847 0.134552 -0.006363 0.122121 0.101106 -0.005929 0.143319 0.111354 0.003197 0.150148 0.110713 0.00676 0.136206 0.122157 -0.006133 0.178945 0.120464 0.004633 0.170952 0.121857 -0.000966 0.19416 0.119675 0.012842 0.132172 0.149155 0.013924 0.188014 0.124032 0.023646 0.157708 0.152638 0.025275 0.161912 0.157766 0.008497 0.191653 0.131671 0.00477 0.190964 0.152998 -0.000937 0.196774 0.169312 -0.005582 0.191765 0.168878 -0.008037 0.191422 0.131578 -0.007258 0.177132 0.159478 -0.019844 0.167771 0.151509 -0.014021 0.186334 0.123678 -0.019113 0.144631 0.161511 -0.023573 0.156078 0.1537 0.004993 0.097974 0.170941 0.01182 0.099001 0.207996 -0.001494 0.098137 0.189835 0.009668 0.118365 0.180718 0.017735 0.143391 0.159313 0.026655 0.135503 0.176346 -0.024212 0.134075 0.176195 -0.024342 0.138419 0.179465 -0.014547 0.152186 0.177222 -0.011223 0.159882 0.183853 -0.009435 0.176568 0.197861 -0.007424 0.161153 0.204895 0.01018 0.164963 0.189224 0.004944 0.203937 0.185877 0.010129 0.167068 0.167633 0.012789 0.156664 0.180496 0.018069 0.148802 0.176166 0.026368 0.140288 0.179976 -0.005381 0.221672 0.207251 0.001137 0.220391 0.203006 0.006745 0.216382 0.216438 0.01415 0.223945 0.20551 -0.013257 0.223992 0.205658 0.008168 0.186249 0.200394 0.009824 0.195251 0.216232 0.0068 0.198373 0.235356 0.007364 0.15612 0.20039 0.011959 0.20613 0.225998 0.02835 0.201698 0.232969 0.023569 0.225476 0.211751 0.027037 0.217971 0.234952 0.018258 0.23485 0.216819 0.018751 0.229428 0.226774 0.008899 0.216015 0.23738 0.005565 0.232321 0.22273 0.009126 0.25837 0.282796 0.007214 0.264057 0.276577 0.001825 0.238541 0.21894 -0.000611 0.242732 0.222952 -0.014498 0.236729 0.216892 0.001089 0.23747 0.202282 -0.010848 0.235842 0.205755 -0.02401 0.216288 0.214919 -0.012124 0.10023 0.207611 -0.007787 0.131489 0.200707 -0.00567 0.144142 0.217058 -0.01065 0.104385 0.213287 0.003332 0.119363 0.217884 -0.000261 0.156948 0.227556 -0.001826 0.095178 0.213228 0.008177 0.103921 0.216647 0.004671 0.146194 0.219429 0.015865 0.109108 0.209076 -0.009502 0.207955 0.226231 -0.023499 0.194283 0.236979 0.004941 0.171326 0.231384 -0.005409 0.189293 0.242817 -0.000191 0.183898 0.246054 0.006805 0.189148 0.242691 0.020129 0.189677 0.243198 0.001899 0.180953 0.262517 -0.01868 0.188096 0.248547 -0.029325 0.205626 0.23847 -0.025425 0.222992 0.217804 -0.025435 0.219153 0.23763 -0.009454 0.216863 0.236807 -0.006362 0.230951 0.225561 -0.00548 0.282958 0.260276 -0.017109 0.193989 0.259693 -0.003239 0.196939 0.260207 -0.005515 0.20318 0.260742 -0.007819 0.257623 0.300023 -0.009421 0.25425 0.278775 -0.006911 0.277512 0.277701 0.020992 0.203214 0.254062 0.005181 0.200332 0.257691 0.00704 0.255277 0.303893 -0.00044 0.219222 0.291169 0.012762 0.190344 0.261429 0.004703 0.287487 0.261458 -0.00068 0.30031 0.265406 0.004604 0.305414 0.274474 -0.005354 0.316638 0.274721 0.004213 0.334537 0.270547 -0.011366 0.297943 0.297852 -0.007484 0.330017 0.302643 -0.004461 0.335442 0.270688 0.000323 0.336954 0.267467 0.008916 0.310771 0.295364 0.014953 0.283354 0.305866 0.008842 0.270943 0.32684 0.011214 0.322226 0.338312 0.004713 0.240218 0.321395 -0.001007 0.237149 0.326867 0.003517 0.245278 0.356643 -0.005346 0.239867 0.317803 -0.004873 0.24637 0.352198 -0.002301 0.258759 0.363373 0.003599 0.273244 0.369613 -0.006234 0.257505 0.347146 -0.00387 0.295572 0.380522 -0.006463 0.291127 0.361012 -0.012367 0.307501 0.325812 -0.011521 0.277911 0.324 -0.013322 0.292297 0.314453 -0.015781 0.28421 0.305817 0.004229 0.383653 0.339725 0.003948 0.325014 0.396131 0.000112 0.365547 0.422864 -0.004286 0.349749 0.411063 -0.010653 0.3415 0.354787 -0.007172 0.418499 0.423555 -0.004472 0.372506 0.323957 0.000075 0.394501 0.34792 -0.003924 0.41236 0.378995 -0.004346 0.45322 0.43615 -0.004507 0.3945 0.435187 -0.004118 0.494471 0.495076 0.000176 0.450866 0.427869 0.003795 0.485489 0.478285 0.006714 0.422033 0.427374 0.003957 0.376934 0.425163 0.004004 0.41266 0.445857 -0.000012 0.494204 0.498323 0.000749 0.500375 0.492656 0.003829 0.495162 0.49686</float_array>
          <technique_common>
            <accessor source="#ParalysisNeedle-mesh-positions-array" count="250" stride="3">
              <param name="X" type="float"/>
              <param name="Y" type="float"/>
              <param name="Z" type="float"/>
            </accessor>
          </technique_common>
        </source>
        <source id="ParalysisNeedle-mesh-normals">
          <float_array id="ParalysisNeedle-mesh-normals-array" count="1488">-0.843619 -0.525514 -0.110196 0.729829 0.258492 -0.632875 0.996657 -0.030579 -0.075756 -0.274304 -0.767106 0.579919 -0.980109 -0.171124 0.10051 -0.995905 -0.002215 -0.090378 -0.118704 0.587858 -0.800208 -0.368944 0.525761 -0.766457 0.650063 0.44751 -0.614127 0.977135 0.108994 -0.18256 0.975447 -0.194964 0.102432 -0.971904 0.119112 -0.203015 -0.983593 0.105221 -0.146536 -0.989503 -0.116707 0.085225 -0.502573 -0.69971 0.507767 0.616109 -0.632534 0.469372 -0.985264 0.093644 -0.143128 -0.987663 0.095429 -0.124159 -0.987069 0.098712 -0.126298 -0.763389 0.394153 -0.511742 -0.751779 0.398259 -0.525565 0.73093 0.415294 -0.541545 0.987305 0.09858 -0.124541 0.988149 0.093342 -0.121856 0.987329 -0.120349 0.103426 0.987956 -0.118162 0.099899 0.69447 -0.565901 0.444373 -0.662272 -0.588418 0.463853 -0.987959 -0.119618 0.098126 -0.99105 0.089545 -0.099004 -0.704184 0.490007 -0.513827 -0.618751 0.50094 -0.60515 -0.693464 0.498937 -0.519778 -0.241889 0.68573 -0.686486 0.577759 0.517493 -0.631186 0.715285 0.48979 -0.498471 0.713055 0.491771 -0.499714 0.976774 0.152816 -0.150199 0.985895 0.116563 -0.120099 0.987443 0.098383 -0.123601 0.986428 -0.131367 0.0985 0.573227 -0.6344 0.518601 0.980636 -0.140308 0.136624 0.79279 -0.439292 0.422501 -0.494466 -0.669059 0.554855 0.620747 -0.542601 0.565913 -0.604343 -0.596114 0.5286 -0.442979 -0.622226 0.645449 -0.981998 -0.134868 0.132253 -0.981567 -0.140906 0.129121 -0.984736 -0.123257 0.122891 -0.985871 -0.131714 0.103489 -0.986261 0.114801 -0.118783 -0.59947 -0.547012 0.584306 -0.984814 -0.123691 0.121825 0.566115 -0.575905 0.589786 0.984238 -0.126433 0.123652 0.984616 -0.123411 0.123697 0.982383 -0.128178 0.135993 0.976811 -0.158623 0.143802 0.986476 0.115058 -0.116734 -0.988794 -0.100278 0.110592 -0.984389 0.119474 -0.129243 0.987675 0.09695 -0.122879 0.978493 0.144363 -0.147346 0.988751 0.104502 -0.107012 -0.990679 0.095458 -0.097177 -0.976363 0.151366 -0.154282 -0.984819 0.115437 -0.129639 0.983175 0.124309 -0.133843 0.681297 0.509383 -0.525702 -0.466284 -0.632164 0.618828 0.980008 0.141175 -0.140195 0.97781 -0.149407 0.146848 0.97928 -0.145435 0.140922 0.989072 -0.105761 0.102715 -0.972484 -0.170046 0.159243 -0.683132 -0.516514 0.51628 -0.494968 -0.626447 0.602139 0.561191 -0.589841 0.580649 0.630158 -0.555255 0.542764 0.986785 -0.117211 0.111882 -0.991284 -0.09306 0.093251 -0.976605 0.150874 -0.153228 0.990731 0.093417 -0.098616 0.599488 0.563519 -0.568384 0.622515 0.552016 -0.554756 -0.248718 0.681853 -0.687907 -0.389717 0.650361 -0.652036 -0.988539 0.106349 -0.10715 -0.771066 0.447863 -0.452633 -0.673282 0.522688 -0.522962 0.978221 0.146111 -0.147432 -0.975109 0.158249 -0.155305 0.991592 0.090031 -0.092955 0.978232 0.147712 -0.145748 -0.986444 0.113092 -0.118909 -0.49486 -0.629347 0.599197 -0.979963 -0.148986 0.132195 -0.973287 -0.165312 0.159323 -0.979177 -0.142787 0.144305 -0.992488 -0.091601 0.081093 -0.182189 0.704653 -0.685764 0.633101 0.554964 -0.539628 0.607385 0.568253 -0.555131 0.990132 -0.102112 0.095978 0.983856 -0.133348 0.119354 -0.975469 0.15799 -0.153292 -0.97194 0.170667 -0.16188 -0.972941 -0.168728 0.157848 0.977044 -0.155806 0.145294 0.977788 -0.154537 0.141592 0.976621 -0.15901 0.144665 -0.560083 -0.603957 0.567048 -0.416275 -0.672304 0.612146 -0.987443 -0.11312 0.110278 -0.992337 -0.09084 0.08376 0.60811 -0.580306 0.541708 0.588207 -0.590431 0.552633 0.990638 0.098736 -0.094278 0.975307 0.159365 -0.152901 -0.982864 0.134992 -0.12552 0.990473 0.099647 -0.095042 -0.302643 0.686938 -0.660699 0.575112 0.589324 -0.567401 0.973546 0.161975 -0.161158 0.977735 0.151918 -0.144756 -0.992814 0.084955 -0.084274 -0.730392 0.4904 -0.475432 0.990384 0.09851 -0.097138 -0.976326 -0.163022 0.142167 -0.969807 -0.179131 0.16549 0.990341 0.098694 -0.097385 -0.971984 0.170668 -0.161618 -0.972308 0.169123 -0.161288 -0.227805 0.702858 -0.673866 0.611267 0.577475 -0.54118 0.614169 0.571478 -0.544251 0.991116 0.096486 -0.091543 -0.655996 0.544591 -0.52258 -0.668883 0.538125 -0.512851 -0.993353 0.084292 -0.078384 -0.987876 -0.113405 0.106021 -0.984285 -0.130583 0.118874 0.593553 -0.593825 0.5432 -0.969895 -0.179164 0.164939 -0.975268 -0.159892 0.152601 0.981854 -0.136489 0.13166 0.991817 -0.094912 0.085387 0.977741 0.152761 -0.143827 0.977117 -0.154245 0.146461 0.975195 0.162847 -0.149919 0.991737 0.093323 -0.088027 0.975336 -0.164431 0.147246 0.97795 -0.151791 0.143433 0.978278 -0.152397 0.140524 0.991837 -0.094116 0.086038 -0.208744 0.709246 -0.673347 -0.270975 0.699144 -0.661642 -0.371908 0.671918 -0.640477 0.571013 0.597655 -0.562809 0.685831 0.523984 -0.505051 0.69357 0.521287 -0.497212 -0.976832 0.157073 -0.145352 -0.99043 0.099303 -0.095846 -0.989227 0.107144 -0.09975 -0.658583 0.548464 -0.515224 -0.627077 0.566377 -0.534783 -0.419259 -0.66508 0.617973 0.583435 -0.598781 0.548693 -0.581468 -0.601883 0.547387 -0.605909 -0.586727 0.537239 -0.985583 -0.128188 0.110422 -0.992265 -0.091461 0.08393 -0.989104 -0.139988 0.045579 -0.631288 -0.574182 0.521335 0.651384 -0.564871 0.506577 0.53352 -0.649494 0.541768 0.595616 -0.591344 0.543649 0.99535 -0.063115 0.072759 0.992871 -0.088649 0.079682 -0.976987 -0.157908 0.143391 -0.96848 -0.191443 0.15936 -0.980125 -0.172338 0.098263 -0.977102 0.155246 -0.145502 -0.98348 0.119547 -0.135928 -0.979978 0.143464 -0.138061 -0.989213 0.107171 -0.099862 -0.99744 0.046647 -0.054194 -0.574205 0.588207 -0.569475 -0.4814 0.638129 -0.600871 0.169756 0.593273 -0.786899 0.990243 0.099474 -0.097593 0.981964 0.135277 -0.132088 0.975228 0.162891 -0.149655 0.980413 -0.155587 0.120758 0.99178 0.092247 -0.088669 -0.993392 0.065818 -0.094022 -0.99642 0.015528 -0.083098 -0.504584 0.617738 -0.603154 -0.24472 0.238896 -0.939703 0.409074 0.408784 -0.815815 0.981021 0.154277 -0.117455 0.970948 0.057436 -0.232295 0.072186 -0.07611 -0.994483 0.975733 0.057911 -0.211169 0.971142 0.131186 -0.199183 0.735748 -0.324883 -0.594244 0.27123 -0.02506 -0.962188 0.950295 0.011161 -0.311151 0.745698 0.624485 0.232279 0.411841 0.900962 -0.136582 0.179974 0.981641 0.063169 0.654154 0.755295 -0.04015 -0.731312 0.681121 -0.035457 -0.340775 0.940044 0.013786 -0.995269 0.072354 0.064837 -0.690915 0.635443 0.344743 -0.326344 0.06191 -0.943221 -0.538548 0.832757 -0.128378 -0.784801 0.578701 0.221794 -0.906272 -0.135959 -0.400233 -0.437717 -0.616888 -0.654105 -0.651434 -0.420788 -0.631325 -0.952517 0.304461 0.003791 -0.993556 -0.106966 0.037477 0.237824 -0.88453 0.401306 -0.885737 -0.409758 -0.218101 -0.92866 -0.370848 0.007842 0.036141 -0.999125 0.021041 -0.682348 -0.719551 0.129026 0.587014 -0.78232 0.208302 0.306846 -0.864665 0.397743 0.980777 -0.184337 0.064004 0.978029 -0.177478 0.109364 0.97469 -0.223561 0.00024 0.933822 -0.352615 -0.06032 0.508418 -0.648481 -0.566555 -0.917132 -0.060207 -0.39401 -0.498207 -0.612728 -0.613477 -0.999439 -0.004828 -0.033151 -0.922105 0.331457 0.199647 -0.698724 0.538856 0.470551 -0.938979 0.333704 0.083432 -0.987085 0.150905 -0.053761 -0.987564 0.147712 -0.053835 -0.982567 -0.045942 0.180144 0.990173 0.128213 -0.055848 0.972849 0.230557 0.020196 0.933025 0.31536 0.173242 0.960796 0.276157 0.024671 0.860869 0.467746 0.200296 0.814928 0.495015 0.301418 0.296887 0.718924 0.628496 0.395489 0.667737 0.630647 0.998422 0.0559 0.005324 0.969406 -0.105348 -0.221707 0.628285 -0.526442 -0.572815 0.602111 -0.527854 -0.599026 0.925627 -0.066314 -0.37258 -0.676771 0.559464 0.478519 -0.622616 0.618787 -0.479012 -0.100195 0.925708 -0.364727 -0.201935 0.807802 -0.553785 0.589262 0.6441 -0.487756 0.867494 0.440773 -0.230594 0.311655 -0.86698 -0.388867 -0.003408 0.58428 -0.811545 0.989747 0.127408 -0.064558 0.990133 0.099377 -0.098801 0.972542 0.143496 -0.183221 0.955138 0.203279 -0.215383 0.97298 -0.147188 0.177892 0.981002 -0.115733 0.155698 0.924239 0.138142 -0.355949 -0.224893 -0.723248 -0.652944 0.07194 -0.756454 -0.650079 0.5331 -0.501111 -0.681683 0.988627 0.094042 -0.11736 0.875531 0.482505 0.025212 0.622159 0.700084 0.350429 -0.085982 0.656065 0.74979 0.988611 0.107557 -0.10526 0.974403 0.179347 -0.135551 -0.176159 0.432772 0.884125 0.250673 0.855327 0.453408 0.85991 0.510328 -0.010964 0.012947 0.695366 -0.718539 -0.102818 0.992932 -0.059286 0.209766 0.9751 -0.071957 -0.172093 0.975916 -0.134056 0.561433 0.616576 -0.55193 0.497003 0.284305 -0.819853 -0.005657 -0.237286 -0.971423 -0.287043 0.066163 -0.95563 -0.704375 0.148891 -0.694037 -0.835148 -0.453941 -0.310591 -0.606857 -0.745694 -0.275073 -0.34369 -0.701874 -0.623899 -0.967167 -0.170617 0.188354 -0.584686 0.517747 0.624564 -0.930368 0.097255 0.353493 -0.98387 -0.013155 0.178398 -0.991021 -0.006733 0.133534 -0.670718 0.369357 0.643205 -0.992046 0.120948 0.034861 -0.949202 -0.079247 0.304526 -0.253336 -0.059859 0.965524 -0.714523 -0.23764 0.658015 -0.590965 -0.570057 0.570784 -0.383084 -0.915722 -0.121244 -0.177313 -0.133738 0.975025 -0.177157 -0.175969 0.968323 0.225225 -0.967 -0.119103 0.806045 -0.074053 0.587203 0.99222 -0.055926 0.111229 0.964453 0.019602 0.263525 0.854694 0.230975 0.464918 0.824031 0.283002 0.490799 0.964271 0.025899 0.263648 0.276743 0.604179 0.747249 0.967225 -0.114073 0.226857 0.325563 0.59271 0.736684 0.539289 -0.666019 -0.515351 0.928153 -0.372154 0.005846 0.766572 -0.363442 0.529412 0.417667 -0.702996 0.575631 0.974558 -0.139181 -0.175686 -0.9915 0.105086 -0.076709 -0.984718 0.115621 -0.13024 -0.112773 -0.793548 -0.597966 -0.260224 -0.959253 -0.110082 -0.098713 -0.705671 -0.70163 0.473293 -0.382558 0.7935 0.992209 -0.062064 0.108028 -0.995535 -0.042364 0.084353 -0.461705 -0.437544 0.771611 0.693579 -0.408898 0.593085 -0.738557 -0.38022 0.556747 -0.990713 -0.078572 0.110965 0.640206 -0.458156 0.616628 -0.986699 -0.110157 0.119546 0.195756 -0.35834 -0.912837 0.054048 -0.588666 -0.806567 0.241806 -0.94938 -0.200517 -0.237308 -0.961035 -0.141761 -0.252937 -0.892989 -0.372281 0.989173 -0.08549 0.119283 0.910327 -0.360772 0.202849 0.995646 -0.057667 -0.073237 -0.435195 -0.560504 -0.704585 0.054885 -0.708373 -0.703701 0.117822 -0.689028 -0.715093 -0.961637 -0.091698 -0.258545 -0.704941 0.149615 -0.693306 -0.958772 0.279081 0.05357 -0.757297 0.582855 -0.294587 -0.773013 0.622892 0.120231 0.138098 0.718459 0.681722 -0.306273 0.634039 0.710065 -0.508673 0.415266 0.754192 -0.839631 0.311335 -0.445073 0.246212 -0.742118 -0.62341 0.06216 -0.655361 -0.752753 -0.877203 -0.465832 0.116259 -0.846458 -0.386642 -0.366082 -0.880996 -0.355517 0.312177 -0.160394 0.620173 0.767892 -0.769604 0.257603 0.584252 0.142562 0.771996 0.619434 -0.939833 -0.339361 -0.039345 -0.988755 -0.112742 0.098252 -0.985578 0.126736 -0.112137 -0.989574 0.102102 -0.101582 -0.209416 0.696523 0.686294 -0.004152 0.791879 0.610664 0.328444 0.694483 0.64017 0.944388 0.036367 0.326815 0.989173 -0.112606 0.094107 0.447931 -0.744382 0.495229 -0.877425 -0.348237 0.329933 0.126656 0.430512 0.893654 0.865423 -0.345996 0.362396 0.886077 -0.323167 0.332311 0.642949 -0.710575 0.285832 0.102404 0.415846 0.903651 -0.01916 0.136985 0.990388 -0.062863 0.122942 0.990421 -0.549641 -0.704029 0.44971 0.991878 -0.095456 0.084059 0.691104 0.422476 -0.586421 0.995714 0.063054 -0.067663 0.636538 0.458184 -0.620393 -0.788189 0.364622 -0.495792 -0.996239 0.059158 -0.063303 0.995522 0.059078 -0.073792 0.631684 0.457762 -0.625643 -0.996878 0.034238 -0.071143 -0.409168 0.360944 -0.838034 0.875515 -0.053026 -0.480272 -0.971582 0.020688 -0.235797 -0.979987 0.139767 -0.141739 -0.995596 0.02812 -0.089434 -0.919498 -0.040169 -0.391037 -0.570851 0.061664 -0.818735 0.63047 0.026388 -0.775765 0.979949 -0.013663 -0.198781 0.975443 0.050665 -0.214348 0.96849 0.061748 -0.241275 0.941525 0.082147 -0.326777 0.969442 -0.095397 0.226012 0.954094 -0.276906 0.114143 0.960057 -0.274409 0.054676 0.994657 -0.084055 0.059932 0.99063 -0.135755 0.01491 0.31004 -0.804786 0.506157 0.675741 -0.654389 0.339337 0.56622 -0.812968 0.135936 0.988341 -0.142371 0.053975 -0.510489 -0.722599 0.466102 -0.825774 -0.509162 0.242594 -0.717666 -0.682398 0.138882 -0.993915 -0.104936 0.033499 -0.273871 -0.916426 0.291819 -0.446505 -0.546463 0.708527 0.073779 -0.419781 0.904622 -0.971592 -0.011555 0.236381 -0.957404 -0.154442 0.243979 -0.993764 -0.106455 0.033163 -0.988632 -0.063017 0.13651 -0.981146 -0.039632 0.189161 -0.975816 -0.216195 0.032286 -0.990582 -0.036399 0.131997 -0.969906 0.038171 0.24047 -0.989961 0.119075 -0.076143 -0.95364 0.300781 -0.01007 -0.939267 0.11432 -0.323587 -0.945243 -0.305149 0.115758 -0.941471 -0.314663 0.120911 -0.943882 0.087162 -0.318574 -0.995012 -0.082536 0.05602 -0.990749 -0.100949 0.0907 0.990434 0.112411 -0.080032 0.989909 0.114488 -0.083499 0.989176 -0.072125 0.127786 0.989378 -0.07378 0.125247 0.990341 -0.060703 0.124662 0.789925 -0.283767 0.543594 0.274822 -0.472663 0.837295 -0.546877 -0.397979 0.736572 -0.924159 -0.192955 0.329693 -0.983966 -0.093263 0.152029 -0.990258 -0.067304 0.121898 -0.986937 -0.06711 0.146465 -0.98863 -0.065506 0.135352 -0.988045 0.131571 -0.080346 -0.988379 0.124344 -0.087439 -0.989842 0.116946 -0.080842 -0.989971 0.112836 -0.085001 -0.99127 0.108132 -0.07544 -0.541543 0.690016 -0.480218 -0.649058 0.617802 -0.443896 0.694382 0.586686 -0.416693 0.701421 0.580734 -0.413227 0.979076 0.177397 -0.0997 -0.659428 0.611994 -0.436597 -0.986052 0.139315 -0.091068 -0.989798 0.112343 -0.087626 -0.99268 -0.059197 0.105276 -0.544045 0.680666 -0.49062 -0.633999 0.632425 -0.445067 -0.542028 -0.400844 0.7386 -0.992093 -0.055629 0.112503 -0.989949 -0.070869 0.122386 0.460666 0.715874 -0.524701 0.991694 0.105102 -0.074142 0.705155 0.579091 -0.409158 0.990352 0.114416 -0.078182 0.989215 -0.071614 0.127767 0.67862 -0.358558 0.641023 0.989955 -0.066637 0.124693 0.696332 -0.360425 0.620657 0.713025 -0.354207 0.60509 0.991522 -0.066104 0.111865 -0.673827 -0.377782 0.63501 -0.581547 -0.411984 0.701478 -0.991823 0.106326 -0.070585 -0.454972 0.632077 0.627279 0.697112 0.56668 -0.439214 -0.788045 0.505753 -0.350996 -0.567711 0.656516 -0.49668 0.991515 -0.066825 0.111499 0.995727 0.081158 -0.044066 0.905458 0.375779 -0.197323 0.1156 0.664048 0.738699 0.414237 -0.477964 0.774569</float_array>
          <technique_common>
            <accessor source="#ParalysisNeedle-mesh-normals-array" count="496" stride="3">
              <param name="X" type="float"/>
              <param name="Y" type="float"/>
              <param name="Z" type="float"/>
            </accessor>
          </technique_common>
        </source>
        <source id="ParalysisNeedle-mesh-map-0">
          <float_array id="ParalysisNeedle-mesh-map-0-array" count="2976">0.128174 0.307373 0.116455 0.293457 0.130127 0.299561 0.130127 0.299561 0.13208 0.28833 0.155762 0.311768 0.155762 0.311768 0.154541 0.320557 0.130127 0.299561 0.145508 0.366943 0.15332 0.378418 0.140625 0.422852 0.128662 0.334961 0.138184 0.399902 0.116943 0.406494 0.487549 0.85791 0.491455 0.86377 0.439209 0.880127 0.430176 0.85376 0.379395 0.857178 0.418213 0.850098 0.418213 0.850098 0.379395 0.857178 0.367432 0.844971 0.418213 0.850098 0.367432 0.844971 0.39917 0.837646 0.442139 0.833008 0.39917 0.837646 0.384277 0.808105 0.243408 0.886719 0.259277 0.901367 0.21582 0.880615 0.055176 0.618896 0.020996 0.638184 0.045654 0.595459 0.020996 0.638184 0.055176 0.618896 0.038818 0.696045 0.038818 0.696045 0.055176 0.618896 0.080078 0.655029 0.183105 0.117676 0.117188 0.13208 0.131348 0.126221 0.117188 0.13208 0.183105 0.117676 0.147705 0.132324 0.297607 0.560303 0.286377 0.59375 0.266357 0.568848 0.229004 0.570801 0.252686 0.60498 0.179443 0.593994 0.229004 0.570801 0.179443 0.593994 0.186035 0.576416 0.250488 0.562256 0.229004 0.570801 0.193848 0.566895 0.266357 0.568848 0.250488 0.562256 0.290771 0.551025 0.221924 0.554688 0.212646 0.545654 0.250732 0.54834 0.219727 0.520752 0.171631 0.539063 0.176758 0.5 0.219727 0.520752 0.230957 0.494141 0.301025 0.504883 0.301025 0.504883 0.230957 0.494141 0.280273 0.477539 0.230957 0.494141 0.244873 0.459229 0.280273 0.477539 0.275391 0.46167 0.238525 0.452148 0.247559 0.447998 0.297607 0.454102 0.238037 0.441406 0.291504 0.442627 0.272461 0.42334 0.291504 0.442627 0.264648 0.437012 0.694824 0.401367 0.718994 0.4375 0.708496 0.438232 0.694824 0.401367 0.708496 0.438232 0.691406 0.419434 0.694824 0.401367 0.691406 0.419434 0.685059 0.387939 0.708496 0.438232 0.728027 0.465576 0.707031 0.44751 0.707031 0.44751 0.722168 0.481934 0.714844 0.478027 0.685059 0.387939 0.688965 0.422119 0.679443 0.389648 0.699463 0.443359 0.714844 0.478027 0.695557 0.451416 0.688965 0.434326 0.695557 0.451416 0.681396 0.432617 0.681396 0.432617 0.695557 0.451416 0.684814 0.465576 0.681396 0.432617 0.684814 0.465576 0.663574 0.440186 0.663818 0.374756 0.646973 0.405762 0.626221 0.378662 0.626221 0.378662 0.611572 0.423584 0.588135 0.384033 0.588135 0.384033 0.577637 0.417969 0.572266 0.373047 0.583252 0.418457 0.611572 0.423584 0.581787 0.447754 0.583252 0.418457 0.581787 0.447754 0.577637 0.417969 0.572266 0.373047 0.577637 0.417969 0.567627 0.394775 0.575439 0.450195 0.581787 0.447754 0.577881 0.482422 0.567627 0.394775 0.577637 0.417969 0.570313 0.43457 0.575439 0.450195 0.577881 0.482422 0.56958 0.456299 0.557861 0.388184 0.563477 0.426758 0.535156 0.42749 0.535156 0.42749 0.563477 0.426758 0.548828 0.469482 0.522217 0.469238 0.548828 0.469482 0.495605 0.493408 0.540039 0.385254 0.516846 0.415283 0.498291 0.350098 0.516846 0.415283 0.48877 0.452637 0.49707 0.418945 0.162354 0.029053 0.144531 0.033447 0.123047 0.029541 0.140625 0.021729 0.083984 0.026855 0.084229 0.018066 0.903564 0.623047 0.901367 0.605957 0.90625 0.616943 0.90625 0.616943 0.901367 0.605957 0.914551 0.612305 0.920166 0.64917 0.914551 0.612305 0.944092 0.651611 0.928223 0.599609 0.898438 0.570068 0.915771 0.563721 0.944092 0.651611 0.928223 0.599609 0.96167 0.641846 0.952148 0.576904 0.92749 0.563232 0.936035 0.532227 0.896973 0.677734 0.87793 0.648926 0.885742 0.648438 0.381104 0.035645 0.339844 0.020508 0.342285 0.010254 0.118408 0.094238 0.130371 0.088135 0.147461 0.116943 0.147461 0.116943 0.130371 0.088135 0.162109 0.103027 0.183838 0.095215 0.140625 0.072754 0.1604 0.062744 0.044678 0.202148 0.051758 0.203369 0.02417 0.244141 0.023193 0.26001 0.0625 0.208252 0.065186 0.227051 0.0625 0.208252 0.07373 0.208252 0.065186 0.227051 0.967529 0.20459 0.991699 0.234131 0.977539 0.230957 0.6604 0.879883 0.672607 0.880615 0.64917 0.888184 0.28833 0.7229 0.28125 0.727295 0.18335 0.766357 0.907471 0.20459 0.909424 0.17627 0.939941 0.239502 0.883545 0.178711 0.902588 0.227051 0.866699 0.189453 0.891357 0.269775 0.912354 0.291504 0.905029 0.313232 0.872803 0.275635 0.891357 0.269775 0.905029 0.313232 0.974365 0.007813 0.998779 0 0.996582 0.041748 0.956299 0.224854 0.947266 0.223877 0.9375 0.175293 0.945313 0.268311 0.95459 0.271484 0.933105 0.284424 0.969482 0.270996 0.960449 0.258301 0.96582 0.243896 0.961182 0.049072 0.947266 0.04541 0.980957 0.029297 0.717041 0.038574 0.780029 0.033691 0.797852 0.041016 0.884766 0.74292 0.857178 0.716064 0.86792 0.684326 0.938965 0.724854 0.90918 0.67749 0.92334 0.664551 0.193115 0.682861 0.183105 0.693604 0.174561 0.638916 0.185791 0.723145 0.197266 0.678955 0.203369 0.678467 0.203369 0.678467 0.175293 0.631104 0.167969 0.605957 0.203369 0.678467 0.167969 0.605957 0.170898 0.606934 0.203369 0.678467 0.170898 0.606934 0.20459 0.676758 0.955322 0.523193 0.932861 0.499268 0.928223 0.477295 0.967773 0.531738 0.955322 0.523193 0.949219 0.502441 0.967773 0.531738 0.949219 0.502441 0.971924 0.504883 0.286621 0.988525 0.330566 0.987549 0.317383 0.999512 0.631348 0.975342 0.662109 0.932861 0.648682 0.976807 0.103271 0.273682 0.107178 0.294434 0.091553 0.311768 0.067871 0.350342 0.081299 0.359131 0.064209 0.392578 0.014893 0.790771 0.028076 0.791992 0.081055 0.830566 0.859863 0.148682 0.919189 0.128906 0.917236 0.13623 0.015869 0.851318 0.000977 0.840088 0.004639 0.788086 0.015869 0.851318 0.004639 0.788086 0.033691 0.830566 0.175537 0.989746 0.131592 0.95459 0.155762 0.953369 0.175537 0.989746 0.155762 0.953369 0.17627 0.956787 0.787842 0.008301 0.750977 0.010498 0.72998 0.007324 0.897461 0.999756 0.890137 0.99585 0.93457 0.986328 0.897461 0.999756 0.93457 0.986328 0.922607 0.99585 0.905762 0.958008 0.898682 0.965088 0.848877 0.964355 0.848877 0.964355 0.898682 0.965088 0.856445 0.97876 0.54541 0.039307 0.606201 0.018311 0.578613 0.036865 0.578613 0.036865 0.606201 0.018311 0.622559 0.042725 0.249512 0.044678 0.309814 0.024658 0.340088 0.038574 0.353516 0.009277 0.404297 0.013672 0.398438 0.036621 0.398438 0.036621 0.404297 0.013672 0.447266 0.029541 0.447266 0.029541 0.404297 0.013672 0.439209 0.007324 0.138428 0.231201 0.131104 0.19043 0.146729 0.236084 0.138428 0.231201 0.143066 0.268066 0.133545 0.263428 0.13208 0.240723 0.133545 0.263428 0.112305 0.288574 0.13208 0.240723 0.112305 0.288574 0.116943 0.241455 0.91626 0.940674 0.894775 0.939453 0.93042 0.93335 0.93042 0.93335 0.935303 0.939453 0.91626 0.940674 0.984863 0.453613 0.969238 0.447998 0.971436 0.41748 0.984863 0.453613 0.971436 0.41748 0.981689 0.404053 0.712402 0.962891 0.706543 0.884033 0.712402 0.894775 0.428223 0.92627 0.444336 0.901123 0.439453 0.957031 0.949707 0.095215 0.919434 0.059082 0.948486 0.07959 0.96582 0.0979 0.948486 0.07959 0.955566 0.079346 0.009277 0.690674 0.046387 0.746338 0.037842 0.749268 0.009277 0.690674 0.037842 0.749268 0.007324 0.728271 0.016357 0.33667 0.048096 0.312012 0.018555 0.347656 0.018555 0.347656 0.048096 0.312012 0.047607 0.322266 0.458252 0.987305 0.492432 0.999756 0.42041 0.999512 0.065674 0.455811 0.045166 0.377686 0.069092 0.408691 0.045166 0.377686 0.065674 0.455811 0.032959 0.412598 0.081543 0.506836 0.062256 0.470947 0.071045 0.45874 0.197754 0.347168 0.167725 0.373779 0.161377 0.343018 0.313965 0.381348 0.249512 0.374268 0.258057 0.358887 0.212891 0.076416 0.188965 0.072998 0.225586 0.069336 0.249268 0.084717 0.270508 0.078369 0.272217 0.081787 0.212891 0.076416 0.249268 0.084717 0.220947 0.086914 0.211182 0.095703 0.27124 0.095947 0.219727 0.106201 0.070068 0.720703 0.063477 0.71875 0.068848 0.675537 0.063477 0.71875 0.070068 0.720703 0.093018 0.76416 0.093994 0.75415 0.075195 0.706543 0.098633 0.73999 0.922607 0.377686 0.918213 0.388184 0.893555 0.351807 0.922607 0.377686 0.893555 0.351807 0.887451 0.328613 0.910889 0.421387 0.913818 0.419922 0.932373 0.443848 0.953369 0.36377 0.946289 0.383789 0.924072 0.335938 0.953369 0.36377 0.924072 0.335938 0.931885 0.322021 0.94165 0.4646 0.947021 0.449219 0.981689 0.503662 0.131104 0.479736 0.123779 0.415283 0.131836 0.407959 0.073242 0.097168 0.108887 0.136719 0.030029 0.09668 0.953125 0.602295 1 0.606934 0.997559 0.634277 0.456299 0.902832 0.439697 0.886475 0.490967 0.891357 0.490967 0.891357 0.439697 0.886475 0.481689 0.874023 0.534668 0.923584 0.576416 0.923096 0.574951 0.951416 0.461914 0.921387 0.497559 0.934814 0.460205 0.945801 0.534668 0.923584 0.574951 0.951416 0.52124 0.951416 0.52124 0.951416 0.574951 0.951416 0.555908 0.967285 0.788574 0.124512 0.804688 0.121094 0.841553 0.12085 0.841553 0.12085 0.804688 0.121094 0.865967 0.115967 0.841553 0.12085 0.865967 0.115967 0.885254 0.116699 0.841553 0.12085 0.885254 0.116699 0.872559 0.121582 0.841553 0.12085 0.872559 0.121582 0.841553 0.129639 0.788574 0.124512 0.841553 0.12085 0.816162 0.12915 0.85083 0.982422 0.829346 0.967285 0.826904 0.9375 0.842041 0.923584 0.866699 0.935303 0.826904 0.9375 0.842041 0.923584 0.826904 0.9375 0.804688 0.903564 0.820313 0.890137 0.787842 0.887207 0.790283 0.881348 0.820313 0.890137 0.790283 0.881348 0.826904 0.881836 0.088135 0.797852 0.108643 0.817627 0.098877 0.817139 0.044189 0.785156 0.037842 0.76709 0.066162 0.79248 0.088135 0.797852 0.066162 0.79248 0.051025 0.769531 0.051025 0.769531 0.046631 0.754639 0.076904 0.773438 0.076904 0.773438 0.046631 0.754639 0.069092 0.759277 0.163086 0.677246 0.141113 0.672607 0.151123 0.628906 0.134033 0.61377 0.137695 0.601318 0.151123 0.628906 0.130371 0.664551 0.141113 0.672607 0.134033 0.70166 0.126709 0.632324 0.126465 0.673584 0.122314 0.643311 0.126709 0.632324 0.122314 0.643311 0.123535 0.612549 0.11792 0.677246 0.114502 0.705566 0.108154 0.69458 0.111328 0.614014 0.11792 0.641602 0.106689 0.663086 0.106689 0.663086 0.11084 0.676758 0.097412 0.710449 0.467529 0.671875 0.482422 0.646729 0.493164 0.696777 0.467529 0.671875 0.493164 0.696777 0.466797 0.70874 0.466797 0.70874 0.493164 0.696777 0.502197 0.721436 0.467529 0.671875 0.438965 0.685547 0.449463 0.641113 0.438965 0.685547 0.44165 0.724854 0.422119 0.701416 0.449463 0.641113 0.438965 0.685547 0.425293 0.658936 0.432861 0.601563 0.425293 0.658936 0.412842 0.651367 0.412842 0.651367 0.422119 0.701416 0.408203 0.694336 0.414307 0.61499 0.402832 0.659424 0.395508 0.631592 0.405029 0.693359 0.398926 0.695801 0.395996 0.674805 0.393066 0.705811 0.403809 0.709961 0.398682 0.723877 0.374512 0.623047 0.355225 0.664795 0.354736 0.614258 0.354736 0.614258 0.355225 0.664795 0.331543 0.651123 0.354736 0.614258 0.328125 0.611328 0.33667 0.57959 0.306885 0.669189 0.330811 0.707275 0.311279 0.720215 0.00293 0.363037 0.061523 0.344727 0.057129 0.36499 0.772461 0.680908 0.796387 0.726563 0.764893 0.711426 0.770752 0.738281 0.796387 0.726563 0.783447 0.757324 0.755859 0.717041 0.752197 0.734619 0.74585 0.706055 0.752197 0.734619 0.770752 0.738281 0.763428 0.755371 0.746094 0.754395 0.752197 0.734619 0.763428 0.755371 0.713623 0.702881 0.739014 0.726074 0.715088 0.723145 0.715088 0.723145 0.739014 0.726074 0.746094 0.754395 0.757568 0.781494 0.763428 0.755371 0.774902 0.796631 0.688965 0.731201 0.719971 0.761963 0.664063 0.762695 0.688965 0.731201 0.664063 0.762695 0.651611 0.720703 0.736084 0.781738 0.751953 0.799561 0.719971 0.796875 0.751953 0.799561 0.757568 0.781494 0.774902 0.796631 0.700439 0.818848 0.712158 0.818115 0.712158 0.832764 0.769775 0.825684 0.740723 0.827637 0.759521 0.812256 0.769775 0.825684 0.759521 0.812256 0.791016 0.810547 0.781006 0.860107 0.769775 0.825684 0.794922 0.838623 0.781006 0.860107 0.794922 0.838623 0.809326 0.873779 0.809326 0.873779 0.794922 0.838623 0.820801 0.855957 0.820801 0.855957 0.794922 0.838623 0.810547 0.820557 0.820801 0.855957 0.810547 0.820557 0.851807 0.845703 0.847656 0.81958 0.810547 0.820557 0.854248 0.800049 0.794678 0.790771 0.774902 0.796631 0.785889 0.772461 0.791016 0.810547 0.810791 0.797119 0.817871 0.805176 0.840332 0.785889 0.817871 0.805176 0.810791 0.797119 0.817871 0.757568 0.816895 0.73584 0.848145 0.735107 0.817871 0.757568 0.848145 0.735107 0.838135 0.761475 0.817871 0.757568 0.838135 0.761475 0.821289 0.776123 0.840332 0.785889 0.821289 0.776123 0.843506 0.765381 0.628906 0.174316 0.654785 0.174805 0.650635 0.224121 0.618164 0.159424 0.613281 0.188721 0.599854 0.17041 0.690186 0.113037 0.649658 0.092041 0.68335 0.088379 0.731201 0.138428 0.690186 0.113037 0.744141 0.123047 0.58374 0.101318 0.591553 0.094482 0.605469 0.099365 0.598389 0.142822 0.605469 0.099365 0.619385 0.118652 0.605469 0.099365 0.598389 0.142822 0.58374 0.101318 0.576904 0.143555 0.599854 0.17041 0.584717 0.179688 0.549072 0.148438 0.526367 0.17749 0.481201 0.153076 0.481201 0.153076 0.526367 0.17749 0.491211 0.198242 0.523438 0.121094 0.549072 0.148438 0.481201 0.153076 0.523438 0.121094 0.481201 0.153076 0.466064 0.122314 0.487549 0.107666 0.458984 0.101563 0.454102 0.093018 0.479004 0.360352 0.461182 0.339111 0.476563 0.331299 0.505371 0.327881 0.471436 0.322998 0.460205 0.301514 0.505371 0.327881 0.460205 0.301514 0.480957 0.296631 0.505371 0.327881 0.480957 0.296631 0.496826 0.312012 0.552979 0.315186 0.524658 0.288818 0.571289 0.30957 0.52832 0.276611 0.506348 0.248779 0.566895 0.284668 0.566895 0.284668 0.506348 0.248779 0.572266 0.237549 0.566895 0.284668 0.572266 0.237549 0.593018 0.294434 0.54248 0.20752 0.506348 0.248779 0.519287 0.217529 0.674072 0.246582 0.619629 0.271729 0.625 0.21582 0.643799 0.295166 0.674072 0.246582 0.682129 0.279541 0.643799 0.295166 0.682129 0.279541 0.63623 0.315674 0.674072 0.246582 0.705811 0.240723 0.682129 0.279541 0.682129 0.279541 0.719727 0.268066 0.730957 0.276367 0.69043 0.301514 0.682129 0.279541 0.730957 0.276367 0.69043 0.301514 0.730957 0.276367 0.717041 0.30957 0.717041 0.30957 0.730957 0.276367 0.756592 0.279053 0.717041 0.30957 0.756592 0.279053 0.749756 0.306152 0.708252 0.332031 0.717041 0.30957 0.749756 0.306152 0.717285 0.343994 0.749756 0.306152 0.754395 0.31958 0.717285 0.343994 0.747314 0.336914 0.711426 0.372559 0.711426 0.372559 0.747314 0.336914 0.761475 0.369629 0.99292 0.327393 0.954102 0.299072 0.976563 0.295898 0.605469 0.585938 0.598145 0.593506 0.559326 0.57666 0.625732 0.589355 0.605469 0.585938 0.612305 0.578369 0.605469 0.585938 0.559326 0.57666 0.58374 0.576416 0.605469 0.585938 0.58374 0.576416 0.612305 0.578369 0.580322 0.569336 0.560303 0.572266 0.557373 0.559082 0.557373 0.559082 0.560303 0.572266 0.544434 0.563477 0.544434 0.563477 0.560303 0.572266 0.552734 0.586182 0.64209 0.55249 0.608154 0.568359 0.618164 0.532959 0.618164 0.532959 0.608154 0.568359 0.563721 0.525635 0.618164 0.532959 0.563721 0.525635 0.587891 0.510742 0.618164 0.532959 0.587891 0.510742 0.640381 0.518799 0.640381 0.518799 0.587891 0.510742 0.597168 0.495605 0.640381 0.518799 0.597168 0.495605 0.64917 0.512207 0.587891 0.510742 0.563721 0.525635 0.561035 0.513184 0.546387 0.525879 0.555664 0.549316 0.536621 0.54126 0.546387 0.525879 0.536621 0.54126 0.535889 0.512695 0.535889 0.512695 0.536621 0.54126 0.525879 0.519531 0.51001 0.506104 0.51709 0.528076 0.500732 0.524658 0.51709 0.528076 0.509521 0.552246 0.500732 0.524658 0.500732 0.524658 0.509521 0.552246 0.490967 0.531982 0.46582 0.539307 0.498047 0.561768 0.482666 0.564453 0.465088 0.544678 0.482666 0.564453 0.431885 0.567383 0.431885 0.567383 0.482666 0.564453 0.441406 0.598145 0.482666 0.564453 0.498047 0.561768 0.496338 0.580078 0.496338 0.580078 0.498047 0.561768 0.510986 0.571777 0.472168 0.591553 0.496338 0.580078 0.466553 0.605225 0.500732 0.595459 0.502686 0.589111 0.508789 0.603027 0.508789 0.603027 0.502686 0.589111 0.516602 0.587402 0.516602 0.587402 0.502686 0.589111 0.510986 0.571777 0.508789 0.603027 0.516602 0.587402 0.528076 0.599609 0.525146 0.583252 0.510986 0.571777 0.526367 0.563965 0.539795 0.583008 0.526367 0.563965 0.544434 0.563477 0.539795 0.583008 0.544434 0.563477 0.552734 0.586182 0.539795 0.583008 0.552734 0.586182 0.54248 0.599609 0.54248 0.599609 0.552734 0.586182 0.549561 0.604736 0.462891 0.129883 0.444336 0.157227 0.429932 0.103271 0.444336 0.157227 0.468262 0.159912 0.478271 0.178955 0.429932 0.103271 0.419922 0.123779 0.405762 0.092773 0.405762 0.092773 0.419922 0.123779 0.389648 0.110107 0.371338 0.107178 0.378906 0.128662 0.350342 0.111816 0.316406 0.093262 0.350342 0.111816 0.355957 0.147949 0.306885 0.154785 0.316406 0.093262 0.355957 0.147949 0.306885 0.154785 0.355957 0.147949 0.352539 0.179199 0.378906 0.128662 0.401855 0.13208 0.398438 0.157227 0.374023 0.165527 0.403809 0.17041 0.352539 0.179199 0.401855 0.13208 0.428711 0.149414 0.411377 0.150391 0.361816 0.197998 0.352539 0.179199 0.403809 0.17041 0.352539 0.179199 0.361816 0.197998 0.326416 0.198242 0.438721 0.175781 0.425537 0.164063 0.444336 0.157227 0.438721 0.175781 0.444336 0.157227 0.478271 0.178955 0.397461 0.194824 0.420654 0.183594 0.430664 0.198242 0.430664 0.198242 0.420654 0.183594 0.438721 0.175781 0.444092 0.195801 0.478271 0.178955 0.476318 0.200928 0.354492 0.215088 0.326416 0.198242 0.361816 0.197998 0.354492 0.215088 0.380615 0.226807 0.333008 0.239502 0.333008 0.239502 0.380615 0.226807 0.360352 0.288574 0.380615 0.226807 0.424072 0.2146 0.394043 0.260498 0.380615 0.226807 0.394043 0.260498 0.360352 0.288574 0.330078 0.287109 0.335693 0.305908 0.312256 0.298584 0.42334 0.259277 0.394043 0.260498 0.431885 0.235107 0.42334 0.259277 0.431885 0.235107 0.437988 0.254883 0.431885 0.235107 0.394043 0.260498 0.424072 0.2146 0.461914 0.268555 0.437988 0.254883 0.446045 0.229248 0.446045 0.229248 0.437988 0.254883 0.431885 0.235107 0.431885 0.235107 0.424072 0.2146 0.439209 0.214355 0.439209 0.214355 0.430664 0.198242 0.444092 0.195801 0.476318 0.226807 0.476318 0.200928 0.483398 0.210693 0.132324 0.565186 0.106445 0.579834 0.107178 0.533936 0.107178 0.533936 0.106445 0.579834 0.083008 0.539795 0.113281 0.524414 0.107178 0.533936 0.086182 0.530762 0.115479 0.531006 0.113281 0.524414 0.123779 0.528564 0.075928 0.511475 0.077881 0.524902 0.065186 0.496094 0.747559 0.562012 0.759521 0.524902 0.768799 0.570313 0.768799 0.570313 0.759521 0.524902 0.793457 0.484863 0.691162 0.520752 0.72583 0.547852 0.727295 0.599854 0.727295 0.599854 0.72583 0.547852 0.747559 0.562012 0.747559 0.562012 0.768799 0.570313 0.752441 0.624512 0.747559 0.562012 0.752441 0.624512 0.727295 0.599854 0.640869 0.526611 0.727295 0.599854 0.656006 0.579102 0.752441 0.624512 0.768799 0.570313 0.774414 0.623291 0.656006 0.579102 0.72583 0.635254 0.689941 0.64624 0.738037 0.630371 0.746094 0.644775 0.7146 0.659668 0.76123 0.634766 0.774414 0.623291 0.79248 0.62915 0.76123 0.634766 0.79248 0.62915 0.776855 0.646484 0.746094 0.644775 0.768311 0.665283 0.749023 0.669922 0.731445 0.666504 0.746094 0.644775 0.749023 0.669922 0.325195 0.382324 0.240234 0.308105 0.292725 0.300537 0.229736 0.280518 0.210938 0.321533 0.198975 0.295898 0.292725 0.300537 0.229736 0.280518 0.251465 0.267822 0.251465 0.267822 0.226807 0.268799 0.21875 0.25293 0.251465 0.267822 0.21875 0.25293 0.260498 0.232178 0.231445 0.227783 0.21875 0.25293 0.185303 0.236084 0.13916 0.907959 0.129395 0.895996 0.144531 0.88501 0.158447 0.89209 0.144531 0.88501 0.164063 0.875732 0.144531 0.88501 0.129395 0.895996 0.128906 0.877686 0.164063 0.875732 0.144531 0.88501 0.146484 0.866455 0.146484 0.866455 0.144531 0.88501 0.128906 0.877686 0.126953 0.848389 0.108154 0.851807 0.110107 0.842773 0.126953 0.848389 0.110107 0.842773 0.115723 0.838379 0.153076 0.847656 0.135498 0.840332 0.147705 0.831055 0.154541 0.811768 0.141602 0.8125 0.16626 0.780762 0.077637 0.018799 0.046631 0.003418 0.068848 0.003174 0.046631 0.003418 0.0625 0.022461 0.03418 0.011963 0.17041 0.181396 0.157471 0.199463 0.154053 0.169434 0.156738 0.223389 0.157471 0.199463 0.176514 0.200928 0.17041 0.181396 0.154053 0.169434 0.178711 0.158447 0.178711 0.158447 0.192871 0.13208 0.200195 0.154297 0.201416 0.194092 0.186279 0.192871 0.186035 0.173584 0.216797 0.172363 0.200195 0.154297 0.219238 0.164551 0.22583 0.161133 0.20874 0.150146 0.22168 0.144287 0.252197 0.150146 0.22168 0.144287 0.281738 0.106445 0.241455 0.172852 0.281982 0.169922 0.242188 0.186279 0.242188 0.186279 0.281982 0.169922 0.312012 0.179199 0.230469 0.928955 0.24292 0.937012 0.228271 0.963623 0.228271 0.963623 0.238525 0.970459 0.225098 0.980957 0.218262 0.918213 0.211182 0.968506 0.195068 0.927979 0.195068 0.927979 0.202148 0.975098 0.185059 0.951172 0.537842 0.720215 0.558594 0.700684 0.591797 0.708252 0.587402 0.68335 0.561035 0.675293 0.594971 0.669678 0.561035 0.675293 0.5354 0.668457 0.572266 0.660645 0.624023 0.704834 0.605225 0.671875 0.629883 0.682373 0.635254 0.697998 0.629883 0.682373 0.649414 0.683105 0.635254 0.697998 0.649414 0.683105 0.662842 0.707275 0.649414 0.683105 0.629883 0.682373 0.63501 0.656006 0.620117 0.663086 0.605225 0.671875 0.602783 0.651611 0.619385 0.645752 0.620117 0.663086 0.602783 0.651611 0.619385 0.645752 0.602783 0.651611 0.5979 0.633545 0.623535 0.634521 0.5979 0.633545 0.608154 0.616455 0.627197 0.038818 0.668213 0.012939 0.728516 0.025391 0.829102 0.261963 0.864258 0.253418 0.856201 0.26709 0.864258 0.253418 0.829102 0.261963 0.845703 0.242188 0.829102 0.261963 0.856201 0.26709 0.825684 0.272949 0.825684 0.272949 0.856201 0.26709 0.845215 0.280273 0.848633 0.30127 0.845215 0.280273 0.864746 0.296387 0.829102 0.261963 0.786133 0.261963 0.807373 0.231689 0.780029 0.283691 0.798584 0.282471 0.785889 0.290771 0.802734 0.292969 0.815186 0.311035 0.785645 0.301514 0.802734 0.292969 0.785645 0.301514 0.785889 0.290771 0.780029 0.283691 0.785889 0.290771 0.765625 0.294189 0.791504 0.315918 0.815186 0.311035 0.808594 0.331299 0.791504 0.315918 0.808594 0.331299 0.779297 0.341553 0.791504 0.315918 0.779297 0.341553 0.770996 0.309814 0.785645 0.301514 0.770996 0.309814 0.785889 0.290771 0.785889 0.290771 0.770996 0.309814 0.763916 0.305664 0.785889 0.290771 0.763916 0.305664 0.765625 0.294189 0.758301 0.263428 0.780029 0.283691 0.765625 0.294189 0.786133 0.261963 0.791992 0.227539 0.807373 0.231689 0.807373 0.231689 0.791992 0.227539 0.795654 0.219971 0.791992 0.227539 0.766602 0.222412 0.795654 0.219971 0.759277 0.192627 0.746582 0.222656 0.724854 0.217041 0.766602 0.222412 0.759277 0.192627 0.790771 0.195313 0.766602 0.222412 0.790771 0.195313 0.795654 0.219971 0.82959 0.167236 0.844971 0.164063 0.834473 0.177002 0.805908 0.170654 0.790771 0.195313 0.777344 0.169189 0.840332 0.160645 0.822754 0.164551 0.828369 0.155518 0.828369 0.155518 0.822754 0.164551 0.806396 0.163086 0.776367 0.149414 0.772705 0.155273 0.756592 0.141113 0.758057 0.148682 0.772705 0.155273 0.777344 0.169189 0.879395 0.85376 0.863525 0.841309 0.87207 0.843506 0.879395 0.85376 0.87207 0.843506 0.895264 0.842041 0.906982 0.846191 0.926758 0.828613 0.93335 0.83374 0.906982 0.846191 0.93335 0.83374 0.908447 0.874512 0.944092 0.823975 0.926758 0.828613 0.944092 0.817139 0.944092 0.823975 0.944092 0.817139 0.961182 0.826172 0.961182 0.826172 0.944092 0.817139 0.967773 0.821289 0.944092 0.823975 0.961182 0.826172 0.959229 0.835205 0.959229 0.835205 0.961182 0.826172 0.981201 0.81665 0.93335 0.83374 0.946777 0.854492 0.908447 0.874512 0.946777 0.854492 0.982666 0.85376 0.958984 0.881348 0.946777 0.854492 0.958984 0.881348 0.944092 0.87793 0.946777 0.854492 0.944092 0.87793 0.908447 0.874512 0.944092 0.87793 0.958984 0.881348 0.949951 0.897705 0.944092 0.87793 0.949951 0.897705 0.934814 0.897949 0.941895 0.915771 0.949951 0.897705 0.97168 0.921387 0.949951 0.897705 0.941895 0.915771 0.934814 0.897949 0.934814 0.897949 0.941895 0.915771 0.920654 0.924805 0.915283 0.88916 0.934814 0.897949 0.893799 0.895264 0.915283 0.88916 0.893799 0.895264 0.908447 0.874512 0.893799 0.895264 0.934814 0.897949 0.894531 0.905762 0.879395 0.85376 0.876465 0.885498 0.840332 0.876709 0.876465 0.885498 0.867676 0.898682 0.852783 0.905762 0.33374 0.33374 0.313232 0.310791 0.338867 0.320801 0.3479 0.364014 0.36792 0.340088 0.374023 0.381104 0.374023 0.381104 0.390137 0.431152 0.369385 0.436523 0.344238 0.432373 0.343262 0.381836 0.369385 0.436523 0.344238 0.432373 0.346924 0.448486 0.331055 0.454102 0.367188 0.44458 0.374268 0.447021 0.334717 0.45752 0.334717 0.45752 0.374268 0.447021 0.33252 0.464355 0.33252 0.464355 0.374268 0.447021 0.377686 0.450195 0.33252 0.464355 0.377686 0.450195 0.356689 0.462402 0.409668 0.453857 0.432129 0.442383 0.452637 0.449463 0.409668 0.453857 0.452637 0.449463 0.436523 0.478271 0.356689 0.462402 0.368164 0.485107 0.355957 0.494385 0.368164 0.485107 0.392822 0.49292 0.373047 0.517578 0.784424 0.014648 0.815918 0.007813 0.805176 0.039795 0.805176 0.039795 0.815918 0.007813 0.858154 0.023926 0.858154 0.023926 0.892578 0.023682 0.876953 0.046143 0.805176 0.039795 0.858154 0.023926 0.839355 0.059082 0.805176 0.039795 0.805176 0.066162 0.787842 0.070557 0.790283 0.072754 0.814697 0.06958 0.791504 0.075439 0.814697 0.06958 0.840088 0.067871 0.822021 0.074463 0.791504 0.075439 0.819092 0.088867 0.790283 0.083496 0.819092 0.088867 0.822021 0.074463 0.854736 0.078857 0.988281 0.1875 0.997803 0.170654 0.999023 0.213867 0.619873 0.831055 0.630127 0.855469 0.627197 0.858398 0.619873 0.831055 0.616943 0.877686 0.587158 0.819092 0.612793 0.800049 0.569336 0.76416 0.605957 0.762695 0.569336 0.76416 0.54126 0.78125 0.557373 0.737549 0.612793 0.772461 0.621826 0.73291 0.618408 0.768066 0.612793 0.772461 0.618408 0.768066 0.623047 0.814453 0.536133 0.780273 0.54126 0.78125 0.509766 0.804688 0.526123 0.799561 0.565918 0.809326 0.524414 0.831299 0.526123 0.799561 0.524414 0.831299 0.512695 0.808838 0.618408 0.768066 0.632324 0.752686 0.628418 0.782715 0.628418 0.782715 0.632324 0.752686 0.653564 0.753418 0.624756 0.806885 0.628418 0.782715 0.62915 0.809326 0.644287 0.802734 0.681396 0.822998 0.639893 0.828613 0.885742 0.424072 0.877686 0.449463 0.874512 0.429688 0.874512 0.429688 0.877686 0.449463 0.873291 0.455811 0.900879 0.49292 0.923828 0.454102 0.923828 0.530762 0.883057 0.488525 0.887695 0.51709 0.877197 0.491455 0.877197 0.491455 0.887695 0.51709 0.881836 0.535889 0.887695 0.51709 0.900879 0.49292 0.923828 0.530762 0.846436 0.394531 0.857422 0.358398 0.859375 0.379883 0.859375 0.379883 0.866211 0.384521 0.856689 0.4375 0.792725 0.405518 0.821533 0.407959 0.832764 0.454346 0.858398 0.501221 0.868408 0.506348 0.85083 0.503174 0.81665 0.473145 0.852783 0.514648 0.821289 0.499023 0.858398 0.501221 0.85083 0.503174 0.832275 0.476074 0.832275 0.476074 0.85083 0.503174 0.81665 0.473145 0.35498 0.842285 0.282959 0.833984 0.318115 0.821777 0.282959 0.833984 0.35498 0.842285 0.331543 0.882568 0.206055 0.837646 0.18457 0.836914 0.191895 0.823242 0.191895 0.823242 0.18457 0.836914 0.18457 0.820068 0.246826 0.813965 0.247559 0.806396 0.280273 0.80835</float_array>
          <technique_common>
            <accessor source="#ParalysisNeedle-mesh-map-0-array" count="1488" stride="2">
              <param name="S" type="float"/>
              <param name="T" type="float"/>
            </accessor>
          </technique_common>
        </source>
        <vertices id="ParalysisNeedle-mesh-vertices">
          <input semantic="POSITION" source="#ParalysisNeedle-mesh-positions"/>
        </vertices>
        <polylist material="Material_-1-material" count="6">
          <input semantic="VERTEX" source="#ParalysisNeedle-mesh-vertices" offset="0"/>
          <input semantic="NORMAL" source="#ParalysisNeedle-mesh-normals" offset="1"/>
          <input semantic="TEXCOORD" source="#ParalysisNeedle-mesh-map-0" offset="2" set="0"/>
          <vcount>3 3 3 3 3 3 3 3 3 3 3 3 3 3 3 3 3 3 3 3 3 3 3 3 3 3 3 3 3 3 3 3 3 3 3 3 3 3 3 3 3 3 3 3 3 3 3 3 3 3 3 3 3 3 3 3 3 3 3 3 3 3 3 3 3 3 3 3 3 3 3 3 3 3 3 3 3 3 3 3 3 3 3 3 3 3 3 3 3 3 3 3 3 3 3 3 3 3 3 3 3 3 3 3 3 3 3 3 3 3 3 3 3 3 3 3 3 3 3 3 3 3 3 3 3 3 3 3 3 3 3 3 3 3 3 3 3 3 3 3 3 3 3 3 3 3 3 3 3 3 3 3 3 3 3 3 3 3 3 3 3 3 3 3 3 3 3 3 3 3 3 3 3 3 3 3 3 3 3 3 3 3 3 3 3 3 3 3 3 3 3 3 3 3 3 3 3 3 3 3 3 3 3 3 3 3 3 3 3 3 3 3 3 3 3 3 3 3 3 3 3 3 3 3 3 3 3 3 3 3 3 3 3 3 3 3 3 3 3 3 3 3 3 3 3 3 3 3 3 3 3 3 3 3 3 3 3 3 3 3 3 3 3 3 3 3 3 3 3 3 3 3 3 3 3 3 3 3 3 3 3 3 3 3 3 3 3 3 3 3 3 3 3 3 3 3 3 3 3 3 3 3 3 3 3 3 3 3 3 3 3 3 3 3 3 3 3 3 3 3 3 3 3 3 3 3 3 3 3 3 3 3 3 3 3 3 3 3 3 3 3 3 3 3 3 3 3 3 3 3 3 3 3 3 3 3 3 3 3 3 3 3 3 3 3 3 3 3 3 3 3 3 3 3 3 3 3 3 3 3 3 3 3 3 3 3 3 3 3 3 3 3 3 3 3 3 3 3 3 3 3 3 3 3 3 3 3 3 3 3 3 3 3 3 3 3 3 3 3 3 3 3 3 3 3 3 3 3 3 3 3 3 3 3 3 3 3 3 3 3 3 3 3 3 3 3 3 3 3 3 3 3 3 3 3 3 3 3 3 3 3 3 3 3 3 3 3 3 3 3 3 3 3 3 3 3 3 3 3 3 3 3 3 3 3 3 3 3 3 3 3 3 3 3 3 3</vcount>
          <p>0 0 0 1 0 1 2 0 2 2 1 3 1 1 4 3 1 5 3 2 6 4 2 7 2 2 8 0 3 9 2 3 10 5 3 11 0 4 12 5 4 13 6 4 14 1 5 15 0 5 16 6 5 17 1 6 18 7 6 19 3 6 20 3 7 21 7 7 22 8 7 23 3 8 24 8 8 25 9 8 26 3 9 27 9 9 28 4 9 29 2 10 30 4 10 31 10 10 32 6 11 33 7 11 34 1 11 35 7 12 36 6 12 37 11 12 38 11 13 39 6 13 40 5 13 41 2 14 42 12 14 43 5 14 44 12 15 45 2 15 46 10 15 47 7 16 48 11 16 49 13 16 50 13 17 51 11 17 52 14 17 53 13 18 54 14 18 55 15 18 56 8 19 57 13 19 58 15 19 59 13 20 60 8 20 61 7 20 62 8 21 63 16 21 64 9 21 65 9 22 66 16 22 67 17 22 68 9 23 69 17 23 70 4 23 71 4 24 72 17 24 73 10 24 74 17 25 75 18 25 76 10 25 77 10 26 78 18 26 79 12 26 80 12 27 81 19 27 82 5 27 83 11 28 84 5 28 85 19 28 86 15 29 87 20 29 88 21 29 89 15 30 90 21 30 91 22 30 92 15 31 93 22 31 94 8 31 95 21 32 96 23 32 97 22 32 98 22 33 99 23 33 100 24 33 101 8 34 102 22 34 103 16 34 104 22 35 105 24 35 106 25 35 107 22 36 108 25 36 109 16 36 110 16 37 111 25 37 112 26 37 113 16 38 114 26 38 115 27 38 116 16 39 117 27 39 118 17 39 119 17 40 120 27 40 121 18 40 122 18 41 123 28 41 124 12 41 125 18 42 126 27 42 127 29 42 128 18 43 129 29 43 130 28 43 131 12 44 132 28 44 133 19 44 134 28 45 135 29 45 136 30 45 137 19 46 138 28 46 139 31 46 140 28 47 141 30 47 142 31 47 143 19 48 144 31 48 145 14 48 146 14 49 147 31 49 148 32 49 149 14 50 150 32 50 151 33 50 152 19 51 153 14 51 154 11 51 155 14 52 156 20 52 157 15 52 158 31 53 159 30 53 160 32 53 161 32 54 162 34 54 163 33 54 164 30 55 165 29 55 166 35 55 167 35 56 168 29 56 169 36 56 170 35 57 171 36 57 172 37 57 173 36 58 174 29 58 175 27 58 176 37 59 177 36 59 178 38 59 179 26 60 180 36 60 181 27 60 182 39 61 183 33 61 184 34 61 185 14 62 186 33 62 187 20 62 188 36 63 189 26 63 190 38 63 191 38 64 192 26 64 193 40 64 194 40 65 195 26 65 196 41 65 197 21 66 198 20 66 199 42 66 200 42 67 201 20 67 202 43 67 203 20 68 204 33 68 205 43 68 206 25 69 207 41 69 208 26 69 209 41 70 210 25 70 211 24 70 212 32 71 213 30 71 214 44 71 215 38 72 216 40 72 217 45 72 218 38 73 219 46 73 220 37 73 221 37 74 222 46 74 223 47 74 224 48 75 225 37 75 226 47 75 227 39 76 228 43 76 229 33 76 230 44 77 231 34 77 232 32 77 233 34 78 234 44 78 235 49 78 236 44 79 237 30 79 238 48 79 239 30 80 240 35 80 241 48 80 242 35 81 243 37 81 244 48 81 245 39 82 246 34 82 247 49 82 248 42 83 249 43 83 250 50 83 251 51 84 252 40 84 253 41 84 254 51 85 255 41 85 256 52 85 257 52 86 258 41 86 259 24 86 260 52 87 261 24 87 262 23 87 263 52 88 264 23 88 265 53 88 266 21 89 267 42 89 268 54 89 269 23 90 270 21 90 271 54 90 272 23 91 273 54 91 274 53 91 275 38 92 276 45 92 277 46 92 278 50 93 279 55 93 280 42 93 281 40 94 282 51 94 283 45 94 284 46 95 285 45 95 286 56 95 287 55 96 288 54 96 289 42 96 290 49 97 291 44 97 292 57 97 293 39 98 294 49 98 295 50 98 296 39 99 297 50 99 298 43 99 299 58 100 300 50 100 301 49 100 302 58 101 303 49 101 304 57 101 305 52 102 306 53 102 307 59 102 308 51 103 309 52 103 310 59 103 311 51 104 312 59 104 313 60 104 314 48 105 315 47 105 316 61 105 317 61 106 318 47 106 319 62 106 320 50 107 321 63 107 322 55 107 323 55 108 324 63 108 325 64 108 326 50 109 327 58 109 328 63 109 329 46 110 330 56 110 331 47 110 332 47 111 333 56 111 334 62 111 335 62 112 336 56 112 337 65 112 338 57 113 339 44 113 340 66 113 341 57 114 342 66 114 343 67 114 344 57 115 345 67 115 346 68 115 347 57 116 348 68 116 349 58 116 350 61 117 351 66 117 352 44 117 353 44 118 354 48 118 355 61 118 356 45 119 357 51 119 358 69 119 359 45 120 360 69 120 361 56 120 362 55 121 363 64 121 364 54 121 365 69 122 366 51 122 367 60 122 368 53 123 369 70 123 370 59 123 371 60 124 372 59 124 373 71 124 374 56 125 375 69 125 376 72 125 377 56 126 378 72 126 379 65 126 380 64 127 381 73 127 382 54 127 383 54 128 384 73 128 385 53 128 386 69 129 387 60 129 388 74 129 389 58 130 390 75 130 391 63 130 392 75 131 393 58 131 394 68 131 395 69 132 396 74 132 397 72 132 398 75 133 399 64 133 400 63 133 401 76 134 402 64 134 403 75 134 404 71 135 405 59 135 406 70 135 407 74 136 408 71 136 409 77 136 410 71 137 411 74 137 412 60 137 413 74 138 414 77 138 415 72 138 416 73 139 417 70 139 418 53 139 419 70 140 420 73 140 421 78 140 422 78 141 423 73 141 424 64 141 425 68 142 426 67 142 427 79 142 428 68 143 429 79 143 430 80 143 431 61 144 432 81 144 433 66 144 434 75 145 435 68 145 436 80 145 437 75 146 438 80 146 439 82 146 440 61 147 441 62 147 442 83 147 443 61 148 444 83 148 445 81 148 446 65 149 447 72 149 448 84 149 449 65 150 450 84 150 451 62 150 452 84 151 453 72 151 454 85 151 455 85 152 456 72 152 457 77 152 458 84 153 459 86 153 460 87 153 461 84 154 462 83 154 463 62 154 464 84 155 465 87 155 466 83 155 467 83 156 468 87 156 469 81 156 470 71 157 471 70 157 472 88 157 473 88 158 474 70 158 475 89 158 476 88 159 477 89 159 478 90 159 479 88 160 480 90 160 481 91 160 482 88 161 483 91 161 484 77 161 485 71 162 486 88 162 487 77 162 488 75 163 489 82 163 490 76 163 491 78 164 492 64 164 493 76 164 494 78 165 495 76 165 496 92 165 497 78 166 498 92 166 499 89 166 500 78 167 501 89 167 502 70 167 503 79 168 504 67 168 505 66 168 506 81 169 507 93 169 508 66 169 509 79 170 510 66 170 511 93 170 512 93 171 513 94 171 514 79 171 515 79 172 516 94 172 517 80 172 518 80 173 519 94 173 520 95 173 521 94 174 522 96 174 523 95 174 524 97 175 525 94 175 526 93 175 527 97 176 528 93 176 529 98 176 530 97 177 531 98 177 532 99 177 533 98 178 534 93 178 535 81 178 536 99 179 537 98 179 538 87 179 539 87 180 540 98 180 541 81 180 542 82 181 543 80 181 544 95 181 545 82 182 546 95 182 547 100 182 548 100 183 549 95 183 550 101 183 551 82 184 552 100 184 553 76 184 554 100 185 555 102 185 556 103 185 557 76 186 558 100 186 559 103 186 560 76 187 561 103 187 562 92 187 563 92 188 564 103 188 565 104 188 566 92 189 567 104 189 568 89 189 569 104 190 570 90 190 571 89 190 572 91 191 573 90 191 574 105 191 575 91 192 576 106 192 577 85 192 578 85 193 579 106 193 580 86 193 581 85 194 582 86 194 583 84 194 584 87 195 585 86 195 586 99 195 587 77 196 588 91 196 589 85 196 590 103 197 591 102 197 592 104 197 593 104 198 594 102 198 595 107 198 596 104 199 597 105 199 598 90 199 599 105 200 600 104 200 601 107 200 602 108 201 603 105 201 604 107 201 605 91 202 606 105 202 607 106 202 608 106 203 609 105 203 610 108 203 611 108 204 612 107 204 613 109 204 614 106 205 615 108 205 616 110 205 617 106 206 618 110 206 619 86 206 620 108 207 621 111 207 622 112 207 623 111 208 624 108 208 625 109 208 626 112 209 627 111 209 628 113 209 629 114 210 630 113 210 631 111 210 632 114 211 633 111 211 634 109 211 635 115 212 636 114 212 637 109 212 638 115 213 639 109 213 640 116 213 641 116 214 642 109 214 643 117 214 644 117 215 645 109 215 646 118 215 647 117 216 648 118 216 649 119 216 650 119 217 651 118 217 652 120 217 653 121 218 654 109 218 655 107 218 656 109 219 657 121 219 658 118 219 659 120 220 660 118 220 661 121 220 662 107 221 663 102 221 664 122 221 665 107 222 666 122 222 667 123 222 668 107 223 669 123 223 670 121 223 671 120 224 672 121 224 673 123 224 674 96 225 675 101 225 676 95 225 677 96 226 678 94 226 679 97 226 680 101 227 681 96 227 682 122 227 683 100 228 684 101 228 685 122 228 686 124 229 687 125 229 688 126 229 689 97 230 690 126 230 691 96 230 692 126 231 693 97 231 694 124 231 695 124 232 696 97 232 697 99 232 698 124 233 699 99 233 700 110 233 701 110 234 702 99 234 703 86 234 704 127 235 705 124 235 706 110 235 707 127 236 708 110 236 709 128 236 710 127 237 711 128 237 712 129 237 713 102 238 714 100 238 715 122 238 716 123 239 717 122 239 718 130 239 719 123 240 720 130 240 721 131 240 722 123 241 723 131 241 724 120 241 725 120 242 726 132 242 727 119 242 728 132 243 729 133 243 730 119 243 731 119 244 732 133 244 733 134 244 734 119 245 735 134 245 736 117 245 737 134 246 738 133 246 739 135 246 740 136 247 741 115 247 742 137 247 743 115 248 744 136 248 745 138 248 746 115 249 747 138 249 748 114 249 749 136 250 750 139 250 751 138 250 752 138 251 753 139 251 754 140 251 755 114 252 756 138 252 757 140 252 758 114 253 759 140 253 760 113 253 761 113 254 762 140 254 763 141 254 764 113 255 765 141 255 766 129 255 767 112 256 768 113 256 769 129 256 770 112 257 771 129 257 772 128 257 773 112 258 774 128 258 775 108 258 776 108 259 777 128 259 778 110 259 779 120 260 780 131 260 781 132 260 782 116 261 783 117 261 784 142 261 785 115 262 786 116 262 787 137 262 788 116 263 789 142 263 790 143 263 791 116 264 792 143 264 793 137 264 794 137 265 795 143 265 796 144 265 797 144 266 798 143 266 799 145 266 800 145 267 801 143 267 802 146 267 803 136 268 804 137 268 805 147 268 806 147 269 807 137 269 808 144 269 809 147 270 810 144 270 811 148 270 812 147 271 813 148 271 814 136 271 815 136 272 816 148 272 817 149 272 818 136 273 819 149 273 820 150 273 821 148 274 822 144 274 823 151 274 824 151 275 825 144 275 826 145 275 827 151 276 828 145 276 829 152 276 830 152 277 831 145 277 832 153 277 833 152 278 834 153 278 835 154 278 836 153 279 837 155 279 838 154 279 839 154 280 840 155 280 841 156 280 842 157 281 843 156 281 844 158 281 845 157 282 846 158 282 847 159 282 848 159 283 849 158 283 850 160 283 851 158 284 852 156 284 853 161 284 854 161 285 855 156 285 856 155 285 857 158 286 858 161 286 859 162 286 860 162 287 861 161 287 862 163 287 863 163 288 864 161 288 865 164 288 866 164 289 867 161 289 868 155 289 869 163 290 870 164 290 871 165 290 872 164 291 873 155 291 874 153 291 875 164 292 876 153 292 877 145 292 878 164 293 879 145 293 880 146 293 881 164 294 882 146 294 883 165 294 884 165 295 885 146 295 886 166 295 887 96 296 888 167 296 889 122 296 890 167 297 891 96 297 892 126 297 893 122 298 894 167 298 895 130 298 896 130 299 897 167 299 898 131 299 899 131 300 900 168 300 901 132 300 902 133 301 903 132 301 904 168 301 905 135 302 906 133 302 907 168 302 908 135 303 909 168 303 910 169 303 911 168 304 912 131 304 913 170 304 914 168 305 915 170 305 916 169 305 917 131 306 918 167 306 919 170 306 920 171 307 921 169 307 922 170 307 923 169 308 924 171 308 925 172 308 926 173 309 927 170 309 928 167 309 929 173 310 930 167 310 931 126 310 932 171 311 933 170 311 934 174 311 935 174 312 936 170 312 937 173 312 938 173 313 939 126 313 940 125 313 941 175 314 942 172 314 943 171 314 944 175 315 945 171 315 946 150 315 947 150 316 948 171 316 949 139 316 950 171 317 951 174 317 952 140 317 953 171 318 954 140 318 955 139 318 956 150 319 957 139 319 958 136 319 959 141 320 960 140 320 961 176 320 962 141 321 963 176 321 964 129 321 965 176 322 966 140 322 967 174 322 968 127 323 969 129 323 970 125 323 971 125 324 972 129 324 973 176 324 974 176 325 975 174 325 976 125 325 977 125 326 978 174 326 979 173 326 980 127 327 981 125 327 982 124 327 983 117 328 984 134 328 985 142 328 986 142 329 987 134 329 988 177 329 989 146 330 990 142 330 991 177 330 992 142 331 993 146 331 994 143 331 995 166 332 996 146 332 997 178 332 998 172 333 999 175 333 1000 179 333 1001 179 334 1002 175 334 1003 150 334 1004 135 335 1005 169 335 1006 180 335 1007 180 336 1008 169 336 1009 172 336 1010 172 337 1011 179 337 1012 181 337 1013 172 338 1014 181 338 1015 180 338 1016 135 339 1017 180 339 1018 134 339 1019 181 340 1020 179 340 1021 182 340 1022 134 341 1023 180 341 1024 177 341 1025 180 342 1026 181 342 1027 178 342 1028 181 343 1029 182 343 1030 183 343 1031 181 344 1032 183 344 1033 184 344 1034 181 345 1035 184 345 1036 185 345 1037 178 346 1038 181 346 1039 185 346 1040 150 347 1041 149 347 1042 179 347 1043 149 348 1044 148 348 1045 151 348 1046 179 349 1047 149 349 1048 182 349 1049 182 350 1050 149 350 1051 151 350 1052 182 351 1053 151 351 1054 183 351 1055 183 352 1056 151 352 1057 152 352 1058 166 353 1059 186 353 1060 187 353 1061 166 354 1062 187 354 1063 165 354 1064 187 355 1065 186 355 1066 188 355 1067 165 356 1068 187 356 1069 163 356 1070 163 357 1071 187 357 1072 188 357 1073 163 358 1074 188 358 1075 189 358 1076 163 359 1077 189 359 1078 190 359 1079 163 360 1080 190 360 1081 162 360 1082 162 361 1083 190 361 1084 191 361 1085 177 362 1086 178 362 1087 146 362 1088 178 363 1089 177 363 1090 180 363 1091 186 364 1092 178 364 1093 185 364 1094 166 365 1095 178 365 1096 186 365 1097 186 366 1098 185 366 1099 192 366 1100 192 367 1101 193 367 1102 188 367 1103 188 368 1104 186 368 1105 192 368 1106 189 369 1107 188 369 1108 193 369 1109 189 370 1110 193 370 1111 194 370 1112 189 371 1113 194 371 1114 195 371 1115 189 372 1116 196 372 1117 190 372 1118 190 373 1119 196 373 1120 197 373 1121 156 374 1122 157 374 1123 198 374 1124 198 375 1125 157 375 1126 199 375 1127 156 376 1128 198 376 1129 154 376 1130 154 377 1131 198 377 1132 152 377 1133 200 378 1134 199 378 1135 157 378 1136 199 379 1137 201 379 1138 193 379 1139 201 380 1140 194 380 1141 193 380 1142 198 381 1143 199 381 1144 202 381 1145 198 382 1146 202 382 1147 183 382 1148 198 383 1149 183 383 1150 152 383 1151 183 384 1152 202 384 1153 184 384 1154 202 385 1155 199 385 1156 193 385 1157 184 386 1158 202 386 1159 193 386 1160 184 387 1161 193 387 1162 192 387 1163 184 388 1164 192 388 1165 185 388 1166 157 389 1167 159 389 1168 200 389 1169 203 390 1170 158 390 1171 162 390 1172 158 391 1173 203 391 1174 160 391 1175 203 392 1176 162 392 1177 204 392 1178 204 393 1179 162 393 1180 191 393 1181 197 394 1182 191 394 1183 190 394 1184 203 395 1185 205 395 1186 160 395 1187 205 396 1188 203 396 1189 204 396 1190 191 397 1191 197 397 1192 206 397 1193 191 398 1194 206 398 1195 204 398 1196 205 399 1197 204 399 1198 207 399 1199 206 400 1200 197 400 1201 208 400 1202 206 401 1203 208 401 1204 209 401 1205 206 402 1206 209 402 1207 210 402 1208 206 403 1209 210 403 1210 204 403 1211 204 404 1212 210 404 1213 211 404 1214 204 405 1215 211 405 1216 207 405 1217 212 406 1218 205 406 1219 207 406 1220 205 407 1221 212 407 1222 160 407 1223 160 408 1224 212 408 1225 159 408 1226 212 409 1227 213 409 1228 159 409 1229 214 410 1230 213 410 1231 215 410 1232 213 411 1233 214 411 1234 200 411 1235 213 412 1236 200 412 1237 159 412 1238 216 413 1239 199 413 1240 200 413 1241 216 414 1242 200 414 1243 214 414 1244 199 415 1245 216 415 1246 201 415 1247 201 416 1248 216 416 1249 217 416 1250 217 417 1251 216 417 1252 218 417 1253 218 418 1254 216 418 1255 214 418 1256 219 419 1257 194 419 1258 201 419 1259 219 420 1260 201 420 1261 217 420 1262 219 421 1263 217 421 1264 220 421 1265 219 422 1266 220 422 1267 195 422 1268 220 423 1269 217 423 1270 218 423 1271 220 424 1272 218 424 1273 221 424 1274 221 425 1275 218 425 1276 222 425 1277 220 426 1278 221 426 1279 223 426 1280 223 427 1281 221 427 1282 224 427 1283 220 428 1284 223 428 1285 195 428 1286 223 429 1287 225 429 1288 226 429 1289 223 430 1290 226 430 1291 227 430 1292 223 431 1293 227 431 1294 195 431 1295 227 432 1296 226 432 1297 228 432 1298 227 433 1299 228 433 1300 229 433 1301 208 434 1302 228 434 1303 226 434 1304 228 435 1305 208 435 1306 229 435 1307 229 436 1308 208 436 1309 197 436 1310 227 437 1311 229 437 1312 196 437 1313 227 438 1314 196 438 1315 195 438 1316 196 439 1317 229 439 1318 197 439 1319 219 440 1320 195 440 1321 194 440 1322 195 441 1323 196 441 1324 189 441 1325 212 442 1326 207 442 1327 230 442 1328 212 443 1329 230 443 1330 215 443 1331 215 444 1332 231 444 1333 222 444 1334 214 445 1335 215 445 1336 222 445 1337 214 446 1338 222 446 1339 218 446 1340 231 447 1341 232 447 1342 222 447 1343 222 448 1344 232 448 1345 221 448 1346 221 449 1347 232 449 1348 233 449 1349 221 450 1350 233 450 1351 224 450 1352 225 451 1353 224 451 1354 233 451 1355 225 452 1356 233 452 1357 234 452 1358 224 453 1359 225 453 1360 223 453 1361 225 454 1362 234 454 1363 226 454 1364 208 455 1365 226 455 1366 209 455 1367 209 456 1368 226 456 1369 234 456 1370 234 457 1371 235 457 1372 236 457 1373 209 458 1374 234 458 1375 236 458 1376 209 459 1377 236 459 1378 210 459 1379 210 460 1380 236 460 1381 211 460 1382 236 461 1383 237 461 1384 211 461 1385 211 462 1386 230 462 1387 207 462 1388 230 463 1389 211 463 1390 237 463 1391 213 464 1392 212 464 1393 215 464 1394 238 465 1395 237 465 1396 236 465 1397 238 466 1398 236 466 1399 235 466 1400 238 467 1401 235 467 1402 239 467 1403 235 468 1404 240 468 1405 241 468 1406 238 469 1407 239 469 1408 242 469 1409 238 470 1410 242 470 1411 237 470 1412 232 471 1413 240 471 1414 233 471 1415 240 472 1416 235 472 1417 234 472 1418 240 473 1419 234 473 1420 233 473 1421 242 474 1422 243 474 1423 230 474 1424 230 475 1425 243 475 1426 244 475 1427 242 476 1428 230 476 1429 237 476 1430 244 477 1431 215 477 1432 230 477 1433 215 478 1434 245 478 1435 231 478 1436 231 479 1437 245 479 1438 232 479 1439 245 480 1440 215 480 1441 244 480 1442 245 481 1443 246 481 1444 232 481 1445 232 482 1446 246 482 1447 247 482 1448 246 483 1449 245 483 1450 244 483 1451 241 484 1452 240 484 1453 232 484 1454 232 485 1455 247 485 1456 241 485 1457 239 486 1458 235 486 1459 241 486 1460 241 487 1461 247 487 1462 248 487 1463 242 488 1464 248 488 1465 243 488 1466 241 489 1467 248 489 1468 239 489 1469 239 490 1470 248 490 1471 242 490 1472 244 491 1473 249 491 1474 246 491 1475 249 492 1476 244 492 1477 243 492 1478 243 493 1479 248 493 1480 249 493 1481 249 494 1482 248 494 1483 247 494 1484 249 495 1485 247 495 1486 246 495 1487</p>
        </polylist>
      </mesh>
    </geometry>
  </library_geometries>
  <library_visual_scenes>
    <visual_scene id="Scene" name="Scene">
      <node id="ParalysisNeedle" name="ParalysisNeedle" type="NODE">
        <scale sid="scale">1 1 1</scale>
        <translate sid="location">0 0 0</translate>
        <rotate sid="rotationX">1 0 0 -89.99999879373091</rotate>
        <rotate sid="rotationY">0 1 0 44.999999999999446</rotate>
        <rotate sid="rotationZ">0 0 1 89.99999910979787</rotate>
        <instance_geometry url="#ParalysisNeedle-mesh" name="ParalysisNeedle">
          <bind_material>
            <technique_common>
            </technique_common>
          </bind_material>
        </instance_geometry>
      </node>
    </visual_scene>
  </library_visual_scenes>
  <scene>
    <instance_visual_scene url="#Scene"/>
  </scene>
</COLLADA>
