<?xml version="1.0" encoding="utf-8"?>
<COLLADA xmlns="http://www.collada.org/2005/11/COLLADASchema" version="1.4.1" xmlns:xsi="http://www.w3.org/2001/XMLSchema-instance">
  <asset>
    <contributor>
      <author>Blockbench user</author>
      <authoring_tool>Blockbench</authoring_tool>
    </contributor>
    <created>2026-03-01T09:51:19.412Z</created>
    <modified>2026-03-01T09:51:19.412Z</modified>
    <unit name="meter" meter="1.0"/>
    <up_axis>Y_UP</up_axis>
  </asset>
  <library_effects>
  </library_effects>
  <library_images>
  </library_images>
  <library_materials>
  </library_materials>
  <library_geometries>
    <geometry id="PetRation-mesh" name="PetRation">
      <mesh>
        <source id="PetRation-mesh-positions">
          <float_array id="PetRation-mesh-positions-array" count="756">-0.392395 -0.175812 -0.222122 -0.491028 -0.067474 -0.093918 -0.43103 -0.061195 -0.311554 -0.466919 0.068695 -0.198944 -0.299286 0.00282 -0.180176 -0.305359 -0.125717 -0.218307 -0.330414 -0.101974 -0.089714 -0.334534 -0.182922 -0.134537 -0.301239 -0.128693 -0.219559 -0.255371 -0.183411 -0.26944 -0.260193 -0.012978 -0.328033 -0.28244 -0.029629 -0.150833 -0.128845 -0.045094 -0.137558 -0.172531 -0.230408 -0.110283 -0.183517 -0.267853 -0.227371 -0.091995 -0.07753 -0.243347 -0.095924 -0.070068 -0.279419 -0.135239 0.029865 -0.221817 0.025955 0.096184 -0.074959 -0.061291 -0.091026 -0.068611 -0.339661 -0.141068 -0.157288 -0.335205 -0.141663 -0.1548 -0.330719 -0.104584 -0.094078 -0.331604 -0.139191 -0.154037 -0.333405 -0.142212 -0.15683 -0.333344 -0.142593 -0.152771 -0.145035 -0.283234 -0.032463 -0.32077 -0.262146 -0.064774 -0.171661 -0.236618 -0.104897 -0.187241 -0.282776 0.075806 -0.125473 -0.11718 0.047676 -0.241135 -0.085129 -0.088814 -0.366821 -0.179962 0.001502 -0.287659 -0.093422 0.096519 -0.123253 -0.093307 -0.009416 -0.294464 -0.004832 -0.00789 -0.137207 -0.010898 -0.101509 0.016577 -0.036381 -0.307587 0.003825 -0.083397 -0.156219 0.025356 -0.038006 -0.204712 -0.134842 0.284912 -0.335632 -0.17041 0.161224 -0.499969 -0.220261 0.109375 -0.359406 -0.059967 0.109085 -0.299011 -0.136429 0.26474 -0.108818 -0.073181 0.105171 -0.101791 0.02545 0.212463 -0.056278 -0.264069 0.160263 -0.110794 -0.027225 0.108475 -0.079834 -0.313873 0.164185 0.029617 -0.196518 0.229767 0.015137 -0.243149 0.33844 0.046349 -0.085571 0.043041 0.006434 -0.158356 0.091637 -0.002108 -0.259399 0.041645 0.08313 -0.253448 0.038551 0.079887 -0.129944 -0.052509 0.105042 -0.171783 0.130844 0.068329 0.033997 0.084419 -0.451233 0.039436 0.239334 -0.347961 0.087669 0.171448 -0.157898 0.006667 0.306976 -0.279907 0.022043 0.304199 -0.10717 -0.030466 0.085983 -0.274414 -0.498413 -0.162796 0.223816 -0.495819 -0.14595 0.034363 -0.364258 -0.140472 0.020302 -0.324371 -0.029633 0.238983 -0.458588 -0.00171 0.249451 -0.47525 0.016325 0.090576 -0.317627 -0.007008 0.092125 -0.163132 -0.084816 0.120651 -0.155594 -0.258423 0.099236 -0.291412 -0.15976 0.157166 -0.184998 -0.258759 0.270111 -0.165283 -0.182388 0.165939 -0.163086 -0.126816 0.279144 -0.295593 -0.173676 0.266785 -0.188034 -0.261139 0.276398 -0.180145 -0.280243 0.40155 -0.170395 -0.184723 0.172989 -0.16925 -0.07708 0.251984 -0.288757 -0.021425 0.153946 -0.211533 0.018667 0.084427 -0.255096 0.030144 0.239151 -0.08699 0.011218 0.264099 -0.364288 -0.176361 0.392731 -0.253174 -0.082169 0.453217 -0.263916 -0.043007 0.312408 -0.114197 -0.111557 0.367554 -0.078438 -0.224106 0.222229 -0.095207 -0.225693 0.291687 -0.121185 -0.120758 0.190781 0.037491 -0.271912 0.171494 0.053761 -0.177979 0.314026 0.049675 -0.12851 0.135132 -0.057655 -0.038246 0.326569 0.126465 -0.121033 0.283112 0.034428 -0.000111 0.243271 0.083397 0.13681 0.220749 -0.064674 -0.046635 0.125412 -0.10347 0.11422 0.191162 -0.159424 -0.124046 0.278748 -0.031406 -0.016174 0.090439 0.027466 -0.033119 0.033642 0.086456 0.025101 0.09774 0.10186 -0.068626 0.162079 0.121513 -0.084038 0.053478 0.198196 -0.001456 0.099724 0.165543 -0.085732 0.125519 -0.315613 0.16983 0.197845 -0.162018 0.131744 0.204391 -0.075325 0.282593 0.151138 -0.239044 0.311584 0.202515 -0.159195 0.312347 0.417206 -0.338104 0.119278 0.395721 -0.173813 0.190491 0.488953 -0.114754 0.119995 0.363983 -0.220825 0.153275 0.240417 -0.16893 0.237518 0.260773 -0.330536 0.271027 0.314484 -0.089294 0.21022 0.332489 0.082016 0.091446 -0.055256 0.021688 -0.021244 -0.085518 0.184814 0.061874 -0.058895 0.27774 0.082245 -0.123322 0.278168 0.165466 0.07933 0.077232 0.117409 -0.145554 0.285614 0.228058 -0.111862 0.120483 0.280304 0.012315 0.113083 0.111465 0.055546 0.121902 0.262207 -0.131165 0.289429 0.183609 -0.13446 0.133636 0.239914 -0.310059 0.106178 0.121849 -0.290497 0.242538 0.212357 -0.257904 0.320038 0.203659 -0.366516 0.269592 0.082817 -0.250183 0.27951 0.085632 -0.427155 0.238327 0.028877 -0.30069 0.022779 0.226273 0.126495 -0.000395 0.150208 0.158722 -0.121872 0.119766 0.167511 0.032417 0.060524 0.191269 -0.056534 0.283447 0.240784 0.012551 0.054298 0.272522 -0.138351 0.120659 0.241165 0.011718 0.241516 0.326508 0.090126 0.209869 0.198669 0.103859 0.192215 0.277649 0.034698 0.058582 0.188416 0.12912 -0.115425 -0.341278 0.095177 -0.316406 -0.358704 0.137955 -0.158722 -0.289001 0.283173 -0.21228 -0.441559 0.262543 -0.200089 -0.27948 0.169022 -0.267395 -0.23381 0.107132 -0.275604 -0.201828 0.108902 -0.133896 -0.191101 0.157455 -0.131546 -0.234634 0.258636 -0.112526 -0.152252 0.265076 -0.335602 -0.317902 0.279602 -0.270782 -0.173798 0.198578 -0.221512 -0.073013 0.120232 0.057465 -0.293121 0.104683 -0.128403 -0.192947 0.026882 -0.041836 -0.204803 0.159027 -0.125168 -0.232544 0.131561 0.002771 -0.05854 0.275543 0.018419 -0.230988 0.224289 -0.090279 -0.096886 0.479218 -0.124817 -0.164001 0.337769 -0.232666 -0.15538 0.361633 -0.015452 -0.125366 0.320068 -0.194565 -0.013339 0.505127 -0.088005 0.019316 0.468048 -0.228546 -0.004098 0.235336 -0.086861 -0.080688 0.079414 -0.287537 -0.081032 0.079338 -0.10537 -0.076614 0.106667 -0.280151 0.088394 0.26059 -0.289856 -0.062267 0.175842 -0.089546 -0.012043 0.110664 -0.09552 0.075424 0.253357 -0.100479 0.071602 0.256378 -0.281982 0.075249 0.176285 -0.089005 -0.01272 0.240356 -0.039314 -0.075249 0.27478 0.018709 0.017525 0.346893 -0.083908 0.015707 0.469421 -0.128265 -0.043022 0.502808 -0.169968 0.131012 0.341248 -0.267426 0.078827 0.406403 -0.111 0.038532 0.397125 -0.187454 0.279327 0.263458 -0.173218 0.163269 0.382812 -0.250458 0.107254 0.346527 -0.051067 0.165283 0.408661 -0.128601 0.226318 0.071823 0.09655 -0.338104 0.133118 0.203598 -0.464935 0.347778 0.177322 -0.057606 0.455353 0.051876 0.059319 0.290619 0.103912 0.048298 0.490326 0.144882 -0.04517 0.455505 0.207199 0.113518 0.447083 0.217041 -0.003411 0.338959 0.267517 0.069351 0.345764 0.16626 0.172714 0.352875 0.145767 0.05566 0.115402 -0.238968 0.121643 0.097748 -0.228104 0.274963 0.159714 -0.077797 0.272766 0.267731 -0.106346 0.117149 0.256378 -0.259674 0.24791 0.245834 -0.09816 0.254089 0.158585 -0.255615 0.31308 0.057404 -0.178955 0.317291 0.211411 -0.167389 0.290588 0.138245 -0.040005 0.365112 0.289948 -0.125809 0.411102 0.158646 -0.285492 0.444611 0.046421 -0.225113 0.472046 0.084625 -0.161118 0.334259 0.169113 -0.137863 0.434296 0.159012 -0.259827 0.3078 0.249237 -0.118454 0.397644 0.137314 -0.030413 0.364594 0.30307 0.009385 0.104469 0.273193 -0.037342 0.203384 0.194183 0.031494 0.144257 0.164764 -0.084404 0.122406 0.293304 0.018534 0.265594 0.085541 0.031448 0.097755 0.154312 0.105087 0.122162 0.109177 0.004792 0.27713 0.0998 -0.071541 0.165848 0.153107 0.109192 0.118347 0.106934 0.190628 0.271729 0.068123 0.18042 0.088341 0.207199 0.124077 0.269501 0.171112 0.260071 0.280212 0.062813 0.09375 0.340668 0.058941 0.199448 0.474701 0.212097 0.265015 0.451385 0.215424 0.266296 0.28833 0.203644 0.313751 0.089333 0.30014 0.171646 0.12352 0.242798 0.261322 0.246765 0.242447 0.10791 0.301514 0.117424 0.057537 0.482239 0.302979 0.141479 0.415741</float_array>
          <technique_common>
            <accessor source="#PetRation-mesh-positions-array" count="252" stride="3">
              <param name="X" type="float"/>
              <param name="Y" type="float"/>
              <param name="Z" type="float"/>
            </accessor>
          </technique_common>
        </source>
        <source id="PetRation-mesh-normals">
          <float_array id="PetRation-mesh-normals-array" count="1293">-0.84384 -0.476686 -0.246383 -0.963186 -0.035048 -0.266543 0.336849 0.668189 -0.663368 0.142213 0.588618 0.795804 0.328282 -0.509805 -0.795191 0.645859 0.188924 -0.739712 0.475001 -0.844194 0.248418 0.971868 -0.108008 0.209301 -0.834588 -0.253987 -0.488828 -0.822321 -0.205665 -0.530556 -0.963239 0.250366 -0.097406 -0.937609 0.299935 -0.175867 -0.072407 0.129733 0.988902 -0.097791 0.167442 0.98102 -0.615237 -0.702119 -0.358485 -0.310125 -0.896691 0.315862 0.289894 -0.217636 -0.931985 0.901683 -0.429179 0.05265 0.166438 -0.316364 -0.933923 0.554947 -0.800582 -0.226057 0.409099 0.571141 -0.711643 -0.356505 0.933306 0.042942 0.017911 0.747691 0.663806 -0.682272 0.519754 0.514161 -0.577011 0.294734 0.761702 -0.590397 -0.806046 0.041486 0.915498 -0.161591 0.368445 -0.383672 -0.775269 0.501751 0.441414 -0.779951 0.443655 0.419669 -0.353268 -0.83611 -0.168613 -0.613061 0.771833 0.190687 0.838275 -0.510817 0.999023 -0.040012 -0.018769 -0.880002 0.47148 0.057481 -0.900064 0.383025 -0.207789 -0.001508 -0.841159 -0.540786 -0.111903 -0.992937 -0.039422 0.946378 0.043035 -0.320183 0.743839 0.398125 -0.536843 -0.257345 -0.015443 -0.966196 -0.667846 0.203205 -0.716023 -0.189753 -0.817046 0.544454 0.115057 0.629303 0.768596 -0.655478 0.743719 -0.131265 0.169869 0.981657 0.086568 -0.526083 -0.363113 0.769016 0.294954 0.052054 0.954092 -0.576543 -0.683765 0.447284 0.895518 -0.274533 0.350257 -0.376273 -0.718041 -0.585522 0.228559 -0.948108 -0.221024 0.193434 -0.941455 -0.276127 0.863935 -0.496953 -0.081575 0.010678 -0.996828 -0.078868 0.768736 -0.339885 0.541777 -0.881434 0.448834 -0.147043 -0.352156 0.04475 0.934871 -0.91607 -0.398826 -0.04188 -0.926343 -0.370229 -0.069414 -0.333904 -0.091033 0.938201 -0.480469 -0.398497 -0.781249 0.140262 0.050319 -0.988835 -0.942217 -0.034247 -0.333249 0.246031 0.78671 -0.566176 -0.496663 0.844643 -0.19976 -0.219512 0.181142 -0.958646 -0.080655 0.054143 0.99527 0.561735 -0.804193 0.194235 -0.317605 -0.604159 -0.730835 -0.184118 0.912613 -0.365017 0.303011 0.612627 0.729981 0.94742 -0.27987 0.155143 0.918464 -0.215263 -0.331793 0.736682 -0.676083 -0.014564 0.393553 -0.239285 0.887614 0.713238 0.234748 0.660443 -0.176187 0.327115 0.928415 0.66432 0.475988 0.576294 -0.050507 -0.990319 0.129294 -0.234112 -0.882243 -0.408458 0.375099 0.505029 -0.777333 0.758428 -0.379744 0.529698 0.158392 0.772122 -0.615418 0.651908 -0.646474 -0.396342 0.383147 -0.923658 0.007341 0.877163 0.477357 -0.0521 0.145667 0.735867 -0.661272 -0.186367 0.978732 0.085741 -0.241816 0.969612 0.037113 -0.281833 0.148621 -0.947883 0.924128 0.375056 -0.072938 -0.538498 0.251673 -0.804165 0.925078 0.26185 -0.275074 -0.439731 0.894681 0.078631 -0.127934 0.477491 0.869273 0.866153 0.266664 0.422692 0.475045 -0.675779 0.563609 0.883102 0.463755 -0.071153 0.03204 -0.995597 -0.088089 0.565884 -0.772438 0.288296 -0.971035 0.238804 0.007939 -0.113922 0.338054 -0.934206 -0.98979 0.086115 0.11358 0.945166 -0.326518 -0.0069 0.075631 0.451907 -0.888853 0.144821 0.984732 0.096596 -0.326872 0.101708 -0.93958 -0.61386 -0.782106 -0.10717 0.100536 0.793231 0.600564 -0.188215 -0.880179 0.43573 0.340285 -0.93437 -0.105638 0.091701 0.003325 -0.995781 0.979589 -0.180116 -0.089243 0.486413 0.660977 0.571412 -0.599713 0.796382 0.078226 -0.518738 0.851696 -0.074333 -0.443473 -0.895713 0.032102 -0.440914 -0.473198 -0.762678 -0.601416 0.766255 -0.226169 -0.679441 -0.477278 0.557284 -0.146695 0.000942 0.989181 -0.438919 -0.854176 0.278808 -0.561848 -0.606675 0.562381 0.042051 -0.167153 0.985034 0.212934 0.964155 0.158316 -0.463148 -0.843958 -0.270608 -0.226296 -0.323127 0.918901 -0.700478 0.67199 0.240333 -0.824171 0.354114 -0.44198 -0.393299 0.386598 -0.834181 -0.355289 -0.856979 -0.373304 -0.922889 0.36771 0.114304 0.590232 0.44201 0.675465 0.500057 0.763682 -0.408329 0.33434 0.914265 0.228771 0.519685 -0.031103 0.853792 0.829256 0.103746 -0.549156 0.3311 -0.941984 0.055123 0.332505 -0.941269 0.058769 0.882299 0.242111 -0.403648 -0.423809 -0.897385 -0.122823 -0.505577 -0.435717 -0.744676 0.187004 -0.829924 0.525599 -0.311418 -0.20862 -0.92709 -0.115418 0.871931 -0.475832 -0.92505 0.118139 0.361008 -0.094806 -0.163736 0.981938 0.288656 0.145211 0.946357 0.4193 0.555679 0.717919 0.694489 -0.13204 0.707284 0.650519 -0.658061 0.379183 0.975898 0.206375 0.070942 0.414507 0.428206 -0.803009 0.148509 -0.26413 -0.952985 0.361399 -0.90295 -0.232533 0.613966 0.483844 0.623651 0.408535 0.888071 0.210783 0.769529 0.53127 0.35437 -0.226849 -0.019365 0.973737 -0.980816 0.189206 -0.046912 -0.983163 -0.136396 0.121603 0.994057 0.088846 -0.062906 -0.624185 -0.632812 -0.458194 0.823294 -0.312479 -0.473861 0.699539 -0.322699 -0.637581 -0.412004 -0.452978 0.79061 -0.11218 -0.404186 0.907772 -0.509899 -0.064984 -0.857776 0.828784 -0.402381 -0.388853 -0.523958 0.825761 -0.208774 -0.057289 0.570827 0.819069 -0.236117 -0.971257 0.030149 -0.241561 -0.970095 0.023753 0.856559 -0.512769 -0.058082 0.766013 -0.145186 -0.626215 -0.925615 0.377811 -0.022251 -0.876516 0.470032 0.103872 -0.044742 -0.008743 0.99896 0.319732 0.146707 0.936081 0.220498 0.962228 0.159679 0.576192 0.444273 -0.686021 -0.580717 0.46366 0.669169 0.076198 -0.852606 0.516968 -0.030355 -0.971384 -0.235565 -0.226662 0.358454 -0.905613 -0.730909 -0.293414 -0.616182 -0.539131 0.418239 0.731037 0.042661 0.900247 -0.433284 0.618001 -0.196778 -0.761152 0.58658 0.715793 -0.3789 0.635493 -0.408112 -0.655434 0.855151 0.182981 0.48501 0.881066 -0.08629 0.465055 -0.887838 0.451651 0.08806 0.03517 0.241588 -0.969741 -0.242066 -0.7686 -0.592164 0.422128 -0.838893 0.343608 -0.137677 -0.953824 -0.266955 0.998242 -0.055532 0.020697 0.12225 0.071202 -0.989942 0.479911 0.828076 0.289784 -0.962237 0.106335 0.250583 -0.976606 0.211937 -0.03639 0.216267 0.968923 -0.120071 -0.950921 0.280342 0.130985 0.092245 -0.444961 0.890786 0.197679 0.457682 -0.866862 -0.947948 0.302364 -0.099857 0.421844 0.902692 -0.08482 -0.963292 0.193136 -0.186459 0.168183 0.972263 0.162538 0.211667 0.974613 0.072984 0.203072 -0.755341 0.623074 0.933125 0.176199 -0.31342 0.804895 0.201371 0.558206 -0.214698 -0.97397 -0.072712 0.937082 -0.345929 0.047014 -0.321022 -0.541483 0.777008 0.848177 -0.528266 0.039131 0.033561 -0.39854 -0.916537 0.01604 -0.335903 -0.94176 -0.562305 0.514327 -0.647519 -0.33364 -0.930226 -0.152852 -0.875415 0.439512 -0.20119 -0.388176 -0.91847 -0.075713 -0.65325 0.329918 0.681483 -0.30651 -0.264992 0.914238 0.462238 0.884402 0.06457 0.340615 -0.259102 0.903796 -0.812289 -0.429135 0.395005 -0.880119 0.326324 0.344823 0.402193 0.899471 -0.170859 -0.951838 0.136969 0.274305 -0.46889 0.15459 -0.869623 0.534318 0.845272 0.004432 0.209676 0.770148 0.602418 -0.862523 0.010359 0.505912 -0.343757 -0.501486 -0.793942 -0.955731 0.034061 -0.292262 -0.332834 0.885797 -0.323397 0.305766 0.803244 -0.511181 0.288078 0.792945 -0.536888 -0.20827 -0.862327 0.461537 0.086989 -0.711718 -0.697059 0.991675 -0.017628 0.12755 0.550526 -0.218179 0.805803 0.282563 -0.775611 -0.564434 0.987974 0.139863 -0.06592 0.052314 -0.98698 -0.152099 0.783822 0.019338 0.620684 -0.04146 -0.910369 0.411715 -0.808057 -0.034425 0.588097 -0.343128 -0.423226 -0.838536 -0.533646 -0.366205 -0.762309 -0.633285 -0.486751 0.601684 -0.614066 0.761566 0.20722 0.307984 -0.239942 -0.920638 0.155389 0.963683 0.217184 0.760662 -0.615 -0.207769 0.675547 0.424882 0.602588 0.17741 -0.970341 0.164208 -0.351267 -0.633978 0.688973 -0.176466 0.153727 -0.972228 -0.979158 0.129224 -0.156685 0.618467 0.748962 -0.23781 0.528841 -0.728419 -0.435583 -0.028971 0.024223 -0.999287 -0.98727 -0.004268 0.158993 0.101734 -0.077346 -0.9918 -0.11924 0.990762 -0.064591 -0.979267 0.035213 0.199487 0.029121 0.069418 0.997162 0.087706 0.021471 0.995915 -0.00721 -0.998351 0.056944 -0.017587 -0.99877 0.04637 -0.033105 -0.765666 -0.642386 -0.316599 -0.928871 -0.192258 0.416059 0.454575 0.787564 0.061881 0.192256 -0.979392 0.691667 0.46849 -0.549649 -0.464375 -0.883213 -0.0655 -0.138475 0.989726 -0.035589 0.037131 0.994726 0.095608 0.05083 0.995254 0.082982 0.987819 0.113203 -0.106769 0.767442 0.147558 0.623907 0.852941 0.031267 0.52107 0.491971 0.030417 -0.87008 -0.543039 0.273652 0.793866 -0.614473 0.676064 -0.406647 0.097282 0.776017 -0.623164 0.999413 0.01723 0.029625 -0.275532 0.659992 0.698923 -0.12027 0.989454 -0.080726 -0.972467 0.232764 0.011341 0.013296 0.899046 0.437653 -0.028493 -0.247315 0.968516 -0.093602 -0.139536 0.985783 -0.231394 -0.946473 0.225045 0.898415 -0.16954 -0.4051 0.717448 -0.69556 0.038276 0.996537 0.017878 0.08121 0.492579 -0.403762 -0.770936 0.451016 -0.865135 0.219377 -0.677549 0.094322 -0.729405 0.554163 0.290635 0.780022 -0.911596 -0.047038 -0.408388 0.588167 0.80234 -0.101534 0.618675 0.728111 0.295119 -0.332244 -0.63551 -0.696951 0.446824 0.282657 -0.848795 -0.242901 -0.853014 -0.461916 0.119229 0.966559 -0.227042 -0.907561 0.409495 -0.092985 -0.408301 -0.650559 0.640361 -0.843092 0.272856 0.463407 0.95124 -0.216596 0.219612 -0.860287 0.486194 0.153368 0.107504 -0.210852 0.971589 -0.217992 0.251037 0.943112 0.205041 -0.844632 0.494525 0.496558 0.614223 0.613319 -0.195928 -0.753246 -0.627879 -0.105603 -0.724966 -0.680641 0.965403 -0.086752 0.245907 0.200539 0.57796 -0.791041 -0.910297 0.304982 -0.279904 -0.00962 0.814861 -0.579576 -0.926679 0.23618 0.292377 -0.287724 -0.79905 0.527952 0.534433 -0.278931 0.797859 0.107095 0.713754 0.69216 0.446281 0.893855 0.043092 0.555193 -0.824497 -0.109387 0.587302 -0.111932 0.80159 -0.941313 0.31131 -0.130446 -0.923305 0.379811 -0.057018 -0.071778 0.048686 -0.996232 0.491171 -0.585996 -0.644484 0.986305 0.058488 0.154216 0.225492 0.973993 -0.022167 0.875746 -0.18724 -0.444983 0.66534 -0.655991 0.35637 -0.187086 -0.981171 0.047982 0.162809 -0.027104 0.986285 0.196393 -0.066667 0.978256 0.781453 0.453626 -0.428433 -0.157528 -0.154338 -0.975379 -0.185604 0.414589 -0.89088 0.529456 0.633922 -0.563755 0.775762 -0.545404 -0.317375 0.748621 -0.646453 -0.147188 -0.500922 -0.844043 -0.19149 0.240483 0.005943 0.970635 -0.873398 0.480184 0.081237 -0.588706 -0.762231 -0.269127 0.552583 0.57751 -0.600944 -0.437972 0.664389 -0.605613 0.772011 -0.169002 -0.612729 -0.220581 -0.57592 -0.787185 -0.339953 -0.080426 0.936997 0.016007 0.494187 0.869208 0.075678 -0.318531 -0.944887 -0.598632 0.000932 0.801023 0.574449 -0.815818 0.066704 0.585821 -0.806353 0.081294 -0.339122 0.693267 -0.635906 0.103523 0.683786 -0.722301 -0.461366 -0.77233 0.436631 -0.462758 0.641645 0.611676 -0.31712 0.844933 -0.430723 -0.289294 0.792834 -0.536399 0.189111 0.600998 -0.776555 0.086831 0.239421 -0.967025 -0.541099 0.672628 -0.504761 -0.554645 0.58844 -0.58831 0.479605 0.875193 0.06337 0.027828 0.397192 0.917314 -0.556816 0.003319 0.830629 -0.784152 -0.463824 0.412278 0.849682 0.357954 0.387181 -0.203688 -0.799263 0.565411 -0.410663 0.289111 0.864737 -0.770945 -0.493052 0.403167 0.063553 -0.01384 0.997883 -0.122366 -0.57528 -0.808752 0.475963 -0.140905 -0.868104 0.91156 -0.361909 0.195141 0.594412 -0.460426 -0.659305 -0.668548 -0.721148 0.181629 -0.528569 -0.805323 0.268458 -0.036316 -0.08804 0.995455 -0.73639 0.66605 0.11877 -0.434163 -0.044344 -0.899742 -0.837525 0.417018 -0.353054 -0.384283 0.920895 0.065413 -0.139998 0.99014 0.004922 -0.699345 0.710232 0.080544 0.143348 -0.138411 -0.979946 0.117484 0.950592 0.287354 0.829389 0.5583 -0.020344 0.809873 -0.526566 -0.258521 0.510817 0.853619 0.101985 0.020574 -0.966668 -0.255204 -0.022737 -0.90225 -0.430614 0.685321 0.05649 -0.726047 0.424031 -0.904711 0.041171 0.86521 0.106839 -0.489896 0.267713 0.160788 0.949988 0.808224 0.588496 0.021115 0.203497 -0.130275 0.97037 -0.898611 -0.356762 0.255382 0.021985 0.214693 -0.976434 0.539714 0.841713 -0.015081 0.136515 -0.241819 -0.96067 0.391954 -0.918636 -0.049801 0.855258 -0.139147 0.499171 0.822277 -0.121171 0.556038 -0.10339 0.977277 -0.185039 -0.876502 -0.198024 0.438784 0.279396 -0.58581 0.760766 -0.291043 0.867057 -0.404358 -0.232652 -0.411532 0.8812 0.501784 -0.824899 0.260296 -0.961638 -0.221926 0.161246 0.085185 0.65755 0.74858 0.787112 0.394778 0.473926 0.004382 0.394776 -0.918767 -0.658105 0.077554 -0.748921 -0.329434 0.769286 -0.547423 0.210693 -0.862044 0.460964</float_array>
          <technique_common>
            <accessor source="#PetRation-mesh-normals-array" count="431" stride="3">
              <param name="X" type="float"/>
              <param name="Y" type="float"/>
              <param name="Z" type="float"/>
            </accessor>
          </technique_common>
        </source>
        <source id="PetRation-mesh-map-0">
          <float_array id="PetRation-mesh-map-0-array" count="2586">0.937744 0.613281 0.886963 0.493652 0.990723 0.59668 0.990723 0.59668 0.886963 0.493652 0.956787 0.511475 0.990723 0.59668 0.956787 0.511475 0.999512 0.451416 0.999512 0.451416 0.956787 0.511475 0.886963 0.493652 0.243164 0.928711 0.288818 0.872803 0.282959 0.939941 0.282959 0.939941 0.288818 0.872803 0.336182 0.946533 0.243164 0.928711 0.282959 0.939941 0.285645 0.993896 0.285645 0.993896 0.282959 0.939941 0.336182 0.946533 0.52832 0.744385 0.542969 0.778809 0.507812 0.814697 0.507812 0.814697 0.542969 0.778809 0.5896 0.812012 0.5896 0.812012 0.542969 0.778809 0.586182 0.730469 0.586182 0.730469 0.542969 0.778809 0.52832 0.744385 0.586182 0.730469 0.52832 0.744385 0.539307 0.662598 0.539307 0.662598 0.52832 0.744385 0.449707 0.707275 0.52832 0.744385 0.507812 0.814697 0.47583 0.76709 0.52832 0.744385 0.47583 0.76709 0.449707 0.707275 0.47583 0.76709 0.507812 0.814697 0.422119 0.807861 0.47583 0.76709 0.422119 0.807861 0.449707 0.707275 0.283936 0.638184 0.272705 0.605957 0.342041 0.611816 0.342041 0.611816 0.272705 0.605957 0.282715 0.599609 0.272705 0.605957 0.283936 0.638184 0.234131 0.614014 0.234131 0.614014 0.283936 0.638184 0.236572 0.654541 0.234131 0.614014 0.236572 0.654541 0.203125 0.635986 0.234131 0.614014 0.203125 0.635986 0.173584 0.555176 0.173584 0.555176 0.203125 0.635986 0.168945 0.61084 0.168945 0.61084 0.203125 0.635986 0.171631 0.647949 0.171631 0.647949 0.203125 0.635986 0.168945 0.692627 0.008545 0.894775 0.006592 0.892578 0.006348 0.862549 0.006348 0.862549 0.006592 0.892578 0.004883 0.89209 0.004883 0.89209 0.006592 0.892578 0.008545 0.894775 0.004883 0.89209 0.008545 0.894775 0.005127 0.894043 0.007812 0.936523 0.004883 0.936768 0.006592 0.899414 0.007812 0.936523 0.006592 0.899414 0.008545 0.93457 0.007812 0.936523 0.008545 0.93457 0.009521 0.935059 0.009521 0.935059 0.008545 0.93457 0.006592 0.899414 0.146484 0.073486 0.168457 0.143555 0.121582 0.100342 0.168457 0.143555 0.146484 0.073486 0.193359 0.067871 0.146484 0.073486 0.121582 0.100342 0.087402 0.026611 0.087402 0.026611 0.121582 0.100342 0.091064 0.161377 0.091064 0.161377 0.121582 0.100342 0.168457 0.143555 0.091064 0.161377 0.168457 0.143555 0.15918 0.189697 0.093018 0.553223 0.041992 0.596191 0.037109 0.51709 0.041992 0.596191 0.093018 0.553223 0.13208 0.595947 0.92334 0.358643 0.911621 0.429443 0.860352 0.399414 0.92334 0.358643 0.860352 0.399414 0.857178 0.332031 0.860352 0.399414 0.911621 0.429443 0.84375 0.48291 0.860352 0.399414 0.84375 0.48291 0.857178 0.332031 0.84375 0.48291 0.911621 0.429443 0.919678 0.474121 0.857178 0.332031 0.84375 0.48291 0.808105 0.38623 0.516357 0.94751 0.59082 0.971924 0.52124 0.998047 0.136719 0.893311 0.173828 0.928223 0.1604 0.93335 0.173828 0.928223 0.136719 0.893311 0.196777 0.884033 0.196777 0.884033 0.136719 0.893311 0.171631 0.875 0.173828 0.928223 0.196777 0.884033 0.23584 0.899658 0.23584 0.899658 0.196777 0.884033 0.238525 0.820068 0.647217 0.806396 0.593262 0.81958 0.602783 0.778564 0.647217 0.806396 0.602783 0.778564 0.641602 0.754639 0.647217 0.806396 0.641602 0.754639 0.703613 0.78418 0.703613 0.78418 0.641602 0.754639 0.692139 0.739746 0.703613 0.78418 0.692139 0.739746 0.732178 0.746094 0.800781 0.998779 0.755859 0.960693 0.79541 0.94043 0.800781 0.998779 0.79541 0.94043 0.8479 0.9646 0.79541 0.94043 0.755859 0.960693 0.769775 0.912109 0.8479 0.9646 0.79541 0.94043 0.815918 0.906982 0.815918 0.906982 0.79541 0.94043 0.769775 0.912109 0.815918 0.906982 0.769775 0.912109 0.807861 0.875977 0.092041 0.693604 0.112061 0.714844 0.112793 0.759521 0.112793 0.759521 0.112061 0.714844 0.146729 0.715332 0.146729 0.715332 0.112061 0.714844 0.092041 0.693604 0.092041 0.693604 0.112793 0.759521 0.091309 0.756836 0.092041 0.693604 0.091309 0.756836 0.067383 0.731445 0.092041 0.693604 0.067383 0.731445 0.052246 0.684326 0.092041 0.693604 0.052246 0.684326 0.059814 0.664551 0.092041 0.693604 0.059814 0.664551 0.095703 0.657715 0.146729 0.715332 0.092041 0.693604 0.136475 0.686279 0.136475 0.686279 0.092041 0.693604 0.095703 0.657715 0.146729 0.715332 0.136475 0.686279 0.188232 0.717285 0.136475 0.686279 0.095703 0.657715 0.166504 0.657227 0.428955 0.556152 0.482666 0.591309 0.453125 0.621094 0.482666 0.591309 0.428955 0.556152 0.513184 0.538086 0.482666 0.591309 0.513184 0.538086 0.518066 0.633057 0.482666 0.591309 0.518066 0.633057 0.453125 0.621094 0.518066 0.633057 0.513184 0.538086 0.559814 0.597412 0.453125 0.621094 0.518066 0.633057 0.475098 0.686523 0.453125 0.621094 0.475098 0.686523 0.414062 0.672852 0.475098 0.686523 0.518066 0.633057 0.539307 0.653564 0.539307 0.653564 0.518066 0.633057 0.559814 0.597412 0.539307 0.653564 0.559814 0.597412 0.611816 0.650635 0.539307 0.653564 0.611816 0.650635 0.589844 0.682617 0.049072 0.789062 0.0896 0.794678 0.080078 0.830078 0.0896 0.794678 0.049072 0.789062 0.087402 0.763184 0.049072 0.789062 0.080078 0.830078 0.043457 0.828369 0.087402 0.763184 0.049072 0.789062 0.044678 0.726074 0.044678 0.726074 0.049072 0.789062 0.043457 0.828369 0.106689 0.248535 0.05127 0.263428 0.091064 0.215088 0.106689 0.248535 0.091064 0.215088 0.132568 0.199951 0.132568 0.199951 0.091064 0.215088 0.080566 0.162109 0.106689 0.248535 0.132568 0.199951 0.16626 0.261719 0.237305 0.812744 0.223389 0.749756 0.269531 0.712891 0.237305 0.812744 0.269531 0.712891 0.325928 0.812256 0.223389 0.749756 0.237305 0.812744 0.160889 0.814941 0.269531 0.712891 0.223389 0.749756 0.164551 0.725586 0.164551 0.725586 0.223389 0.749756 0.160889 0.814941 0.162842 0.555664 0.155029 0.615479 0.098389 0.539551 0.162842 0.555664 0.098389 0.539551 0.163818 0.496826 0.162842 0.555664 0.163818 0.496826 0.225586 0.49707 0.572998 0.463623 0.614502 0.406738 0.634033 0.482422 0.634033 0.482422 0.614502 0.406738 0.68335 0.408203 0.634033 0.482422 0.68335 0.408203 0.685303 0.463379 0.634033 0.482422 0.685303 0.463379 0.700439 0.518066 0.634033 0.482422 0.700439 0.518066 0.64624 0.537354 0.64624 0.537354 0.700439 0.518066 0.695801 0.574707 0.695801 0.574707 0.700439 0.518066 0.748291 0.590332 0.64624 0.537354 0.695801 0.574707 0.675293 0.599365 0.634033 0.482422 0.64624 0.537354 0.582275 0.536621 0.634033 0.482422 0.582275 0.536621 0.572998 0.463623 0.572998 0.463623 0.582275 0.536621 0.532471 0.490723 0.572998 0.463623 0.532471 0.490723 0.510986 0.452148 0.510986 0.452148 0.532471 0.490723 0.507812 0.518555 0.507812 0.518555 0.532471 0.490723 0.582275 0.536621 0.507812 0.518555 0.582275 0.536621 0.552246 0.570801 0.648438 0.00293 0.724121 0 0.71582 0.047363 0.648438 0.00293 0.71582 0.047363 0.654785 0.044434 0.240479 0.086182 0.210693 0.172119 0.181885 0.123047 0.181885 0.123047 0.210693 0.172119 0.160889 0.208008 0.608887 0.077637 0.680176 0.123535 0.656738 0.171875 0.680176 0.123535 0.608887 0.077637 0.720459 0.075928 0.680176 0.123535 0.720459 0.075928 0.728271 0.169922 0.680176 0.123535 0.728271 0.169922 0.656738 0.171875 0.656738 0.171875 0.728271 0.169922 0.722656 0.202148 0.608887 0.077637 0.656738 0.171875 0.584961 0.199463 0.608887 0.077637 0.584961 0.199463 0.582031 0.143066 0.933594 0.293213 0.981689 0.308838 0.921875 0.313965 0.921875 0.313965 0.981689 0.308838 0.928955 0.355225 0.928955 0.355225 0.981689 0.308838 0.992676 0.374756 0.928955 0.355225 0.992676 0.374756 0.922119 0.427734 0.425781 0.344238 0.45752 0.386475 0.409668 0.403809 0.409668 0.403809 0.45752 0.386475 0.43335 0.437256 0.43335 0.437256 0.45752 0.386475 0.458252 0.409912 0.45752 0.386475 0.425781 0.344238 0.455566 0.345215 0.458252 0.409912 0.45752 0.386475 0.509766 0.413818 0.509766 0.413818 0.45752 0.386475 0.455566 0.345215 0.458252 0.409912 0.509766 0.413818 0.502686 0.473145 0.509766 0.413818 0.455566 0.345215 0.53125 0.343262 0.53125 0.343262 0.455566 0.345215 0.48584 0.251221 0.48584 0.251221 0.455566 0.345215 0.404053 0.281982 0.48584 0.251221 0.404053 0.281982 0.410156 0.207764 0.48584 0.251221 0.410156 0.207764 0.435547 0.167969 0.48584 0.251221 0.435547 0.167969 0.492676 0.194092 0.48584 0.251221 0.492676 0.194092 0.525391 0.149658 0.715576 0.718018 0.665039 0.716797 0.696777 0.665283 0.715576 0.718018 0.696777 0.665283 0.763428 0.675781 0.763428 0.675781 0.696777 0.665283 0.712402 0.605225 0.712402 0.605225 0.696777 0.665283 0.668213 0.635986 0.668213 0.635986 0.696777 0.665283 0.640381 0.700928 0.640381 0.700928 0.696777 0.665283 0.665039 0.716797 0.668213 0.635986 0.640381 0.700928 0.636719 0.65625 0.636719 0.65625 0.640381 0.700928 0.593506 0.689209 0.593506 0.689209 0.640381 0.700928 0.590332 0.723633 0.590332 0.723633 0.640381 0.700928 0.625732 0.746826 0.625732 0.746826 0.640381 0.700928 0.665039 0.716797 0.625732 0.746826 0.665039 0.716797 0.662354 0.736816 0.92041 0.655029 0.887695 0.648193 0.912354 0.596191 0.912354 0.596191 0.887695 0.648193 0.853271 0.615967 0.912354 0.596191 0.853271 0.615967 0.879883 0.576416 0.853271 0.615967 0.887695 0.648193 0.844727 0.663086 0.853271 0.615967 0.844727 0.663086 0.808105 0.636963 0.891357 0.521973 0.912354 0.596191 0.879883 0.576416 0.981689 0.391357 0.993896 0.429688 0.922607 0.44165 0.314453 0.992432 0.34668 0.942627 0.379883 1 0.379883 1 0.34668 0.942627 0.406738 0.961426 0.053223 0.492432 0.101562 0.463623 0.094238 0.532715 0.094238 0.532715 0.101562 0.463623 0.145996 0.5 0.145996 0.5 0.101562 0.463623 0.165283 0.437256 0.165283 0.437256 0.101562 0.463623 0.106201 0.420654 0.64209 0.875977 0.708008 0.876953 0.64502 0.950928 0.64502 0.950928 0.708008 0.876953 0.700684 0.935303 0.700684 0.935303 0.708008 0.876953 0.762695 0.91626 0.700684 0.935303 0.762695 0.91626 0.724854 0.991699 0.700684 0.935303 0.724854 0.991699 0.64502 0.950928 0.64502 0.950928 0.724854 0.991699 0.646729 0.994873 0.916748 0.172363 0.991943 0.22998 0.918213 0.220947 0.918213 0.220947 0.991943 0.22998 0.928711 0.279297 0.928711 0.279297 0.991943 0.22998 0.989502 0.304932 0.297852 0.519531 0.325684 0.563965 0.264404 0.55127 0.264404 0.55127 0.325684 0.563965 0.230469 0.601562 0.264404 0.55127 0.230469 0.601562 0.22998 0.468262 0.264404 0.55127 0.22998 0.468262 0.297852 0.519531 0.325684 0.563965 0.297852 0.519531 0.306641 0.486816 0.306641 0.486816 0.297852 0.519531 0.22998 0.468262 0.325684 0.563965 0.306641 0.486816 0.340332 0.477051 0.306641 0.486816 0.22998 0.468262 0.281494 0.412598 0.306641 0.486816 0.281494 0.412598 0.340332 0.477051 0.579834 0.204346 0.53833 0.184326 0.562256 0.149658 0.53833 0.184326 0.579834 0.204346 0.570801 0.240967 0.570801 0.240967 0.579834 0.204346 0.589355 0.276855 0.570801 0.240967 0.589355 0.276855 0.512451 0.278076 0.589355 0.276855 0.579834 0.204346 0.612549 0.208496 0.512451 0.278076 0.589355 0.276855 0.639648 0.288086 0.639648 0.288086 0.589355 0.276855 0.612549 0.208496 0.512451 0.278076 0.639648 0.288086 0.540039 0.345459 0.574951 0.408447 0.533936 0.406738 0.540039 0.345459 0.574951 0.408447 0.540039 0.345459 0.670166 0.339111 0.670166 0.339111 0.540039 0.345459 0.639648 0.288086 0.574951 0.408447 0.670166 0.339111 0.700439 0.383301 0.639648 0.288086 0.612549 0.208496 0.652344 0.276123 0.639648 0.288086 0.652344 0.276123 0.670166 0.339111 0.700439 0.383301 0.670166 0.339111 0.728516 0.313721 0.728516 0.313721 0.670166 0.339111 0.652344 0.276123 0.700439 0.383301 0.728516 0.313721 0.743652 0.354492 0.728516 0.313721 0.652344 0.276123 0.699951 0.27832 0.728516 0.313721 0.699951 0.27832 0.742676 0.258789 0.652344 0.276123 0.612549 0.208496 0.686523 0.233398 0.652344 0.276123 0.686523 0.233398 0.699951 0.27832 0.699951 0.27832 0.686523 0.233398 0.742676 0.258789 0.686523 0.233398 0.612549 0.208496 0.656494 0.18042 0.742676 0.258789 0.686523 0.233398 0.748535 0.236328 0.686523 0.233398 0.656494 0.18042 0.704102 0.211426 0.686523 0.233398 0.704102 0.211426 0.748535 0.236328 0.812744 0.491455 0.790527 0.495361 0.769531 0.476074 0.769531 0.476074 0.790527 0.495361 0.737549 0.517578 0.812744 0.491455 0.769531 0.476074 0.809326 0.410156 0.769531 0.476074 0.737549 0.517578 0.708496 0.465088 0.809326 0.410156 0.769531 0.476074 0.760742 0.450195 0.760742 0.450195 0.769531 0.476074 0.708496 0.465088 0.809326 0.410156 0.760742 0.450195 0.736328 0.381348 0.736328 0.381348 0.760742 0.450195 0.708496 0.465088 0.809326 0.410156 0.736328 0.381348 0.779053 0.334961 0.736328 0.381348 0.708496 0.465088 0.685791 0.393311 0.05249 0.924561 0.048828 0.990967 0 0.946777 0 0.946777 0.048828 0.990967 0.018311 0.998779 0.061768 0.635254 0.041016 0.699463 0.017822 0.627197 0.116455 0.363525 0.064453 0.404297 0.104492 0.340088 0.064453 0.404297 0.116455 0.363525 0.163086 0.425293 0.163086 0.425293 0.116455 0.363525 0.161621 0.346191 0.161621 0.346191 0.116455 0.363525 0.104492 0.340088 0.104492 0.340088 0.064453 0.404297 0.053711 0.34375 0.104492 0.340088 0.053711 0.34375 0.050049 0.316406 0.104492 0.340088 0.050049 0.316406 0.102295 0.300293 0.104492 0.340088 0.102295 0.300293 0.120361 0.319092 0.104492 0.340088 0.120361 0.319092 0.161621 0.346191 0.161621 0.346191 0.120361 0.319092 0.17041 0.297852 0.801758 0.291748 0.830322 0.248291 0.851562 0.328369 0.801758 0.291748 0.851562 0.328369 0.756836 0.330078 0.801758 0.291748 0.756836 0.330078 0.768799 0.260254 0.801758 0.291748 0.768799 0.260254 0.830322 0.248291 0.830322 0.248291 0.768799 0.260254 0.791504 0.221436 0.791504 0.221436 0.768799 0.260254 0.73584 0.19873 0.830322 0.248291 0.791504 0.221436 0.849609 0.226807 0.791504 0.221436 0.73584 0.19873 0.805176 0.171875 0.791504 0.221436 0.805176 0.171875 0.849609 0.226807 0.849609 0.226807 0.805176 0.171875 0.864014 0.17041 0.999512 0.959229 0.917236 0.890869 0.963623 0.895996 0.917236 0.890869 0.999512 0.959229 0.902832 0.928223 0.963623 0.895996 0.917236 0.890869 0.99585 0.835693 0.963623 0.895996 0.99585 0.835693 0.999512 0.959229 0.343994 0.12085 0.263184 0.083008 0.419678 0.083984 0.343994 0.12085 0.419678 0.083984 0.335205 0.212158 0.263184 0.083008 0.343994 0.12085 0.29834 0.143311 0.29834 0.143311 0.343994 0.12085 0.335205 0.212158 0.263184 0.083008 0.29834 0.143311 0.234131 0.123047 0.234131 0.123047 0.29834 0.143311 0.335205 0.212158 0.150391 0.815186 0.140137 0.880127 0.089844 0.816406 0.089844 0.816406 0.140137 0.880127 0.088379 0.895752 0.150391 0.815186 0.089844 0.816406 0.131104 0.748535 0.140137 0.880127 0.150391 0.815186 0.208496 0.854248 0.899658 0.038818 0.97998 0.094482 0.910156 0.098389 0.910156 0.098389 0.97998 0.094482 0.979248 0.160645 0.97998 0.094482 0.899658 0.038818 0.977051 0.02417 0.899658 0.038818 0.910156 0.098389 0.878418 0.06665 0.699951 0.872559 0.755371 0.824219 0.795898 0.871094 0.755371 0.824219 0.699951 0.872559 0.717773 0.781738 0.717773 0.781738 0.699951 0.872559 0.661621 0.826904 0.661621 0.826904 0.699951 0.872559 0.615967 0.856934 0.340332 0.078369 0.258301 0.078369 0.295898 0.024658 0.88208 0.876221 0.838623 0.932129 0.85376 0.848877 0.838623 0.932129 0.88208 0.876221 0.9021 0.902588 0.88208 0.876221 0.85376 0.848877 0.944336 0.86377 0.85376 0.848877 0.838623 0.932129 0.8125 0.865723 0.85376 0.848877 0.8125 0.865723 0.822021 0.818359 0.986328 0.688477 0.965088 0.62207 0.999756 0.644531 0.936035 0.805664 0.962891 0.769775 0.970703 0.828857 0.936035 0.805664 0.970703 0.828857 0.918945 0.845947 0.936035 0.805664 0.918945 0.845947 0.905762 0.788574 0.905762 0.788574 0.918945 0.845947 0.834473 0.820557 0.371094 0.943115 0.383057 0.869629 0.405518 0.893555 0.383057 0.869629 0.371094 0.943115 0.323975 0.915039 0.383057 0.869629 0.323975 0.915039 0.337646 0.860107 0.371094 0.943115 0.405518 0.893555 0.418457 0.949219 0.418457 0.949219 0.405518 0.893555 0.452637 0.921875 0.452637 0.921875 0.405518 0.893555 0.452148 0.85083 0.852295 0.932861 0.898438 0.914307 0.874512 0.994873 0.502686 0.069824 0.528076 0.015137 0.559082 0.07373 0.528076 0.015137 0.502686 0.069824 0.503418 0.018799 0.291748 0.852051 0.350098 0.800537 0.3479 0.843018 0.291748 0.852051 0.3479 0.843018 0.402832 0.858154 0.402832 0.858154 0.3479 0.843018 0.350098 0.800537 0.402832 0.858154 0.350098 0.800537 0.404785 0.804688 0.404785 0.804688 0.350098 0.800537 0.360352 0.747803 0.402832 0.858154 0.404785 0.804688 0.425049 0.838135 0.402832 0.858154 0.425049 0.838135 0.46875 0.840332 0.46875 0.840332 0.425049 0.838135 0.404785 0.804688 0.594727 0.867676 0.562744 0.931152 0.541504 0.874023 0.562744 0.931152 0.594727 0.867676 0.637695 0.918213 0.541504 0.874023 0.562744 0.931152 0.506104 0.935303 0.541504 0.874023 0.506104 0.935303 0.48584 0.870117 0.541504 0.874023 0.48584 0.870117 0.545166 0.821045 0.541504 0.874023 0.545166 0.821045 0.594727 0.867676 0.594727 0.867676 0.545166 0.821045 0.587646 0.817139 0.979736 0.694092 0.923584 0.741699 0.933105 0.693115 0.979736 0.694092 0.933105 0.693115 0.95874 0.622314 0.923584 0.741699 0.979736 0.694092 0.972656 0.765137 0.95874 0.622314 0.933105 0.693115 0.887451 0.700195 0.887451 0.700195 0.933105 0.693115 0.923584 0.741699 0.923584 0.741699 0.972656 0.765137 0.907471 0.755371 0.923584 0.741699 0.907471 0.755371 0.887451 0.700195 0.019043 0.296631 0.084717 0.296631 0.019531 0.321289 0.851807 0.003418 0.852051 0.043945 0.798096 0.027344 0.851807 0.003418 0.798096 0.027344 0.851807 0.003418 0.168701 0.033691 0.228516 0.024414 0.218994 0.084717 0.218994 0.084717 0.228516 0.024414 0.273926 0.044678 0.000244 0.888428 0.000244 0.939941 0.000244 0.939941 0.774902 0.026367 0.848145 0.050293 0.788574 0.078613 0.073242 0.071289 0.033203 0.10498 0.037842 0.031494 0.033203 0.10498 0.073242 0.071289 0.085693 0.133057 0.073242 0.071289 0.037842 0.031494 0.080566 0.038086 0.786621 0.555176 0.749023 0.519775 0.831055 0.501709 0.749023 0.519775 0.786621 0.555176 0.759033 0.591553 0.786621 0.555176 0.831055 0.501709 0.827148 0.556885 0.827148 0.556885 0.831055 0.501709 0.875977 0.568359 0.827148 0.556885 0.875977 0.568359 0.800781 0.608643 0.827148 0.556885 0.800781 0.608643 0.786621 0.555176 0.786621 0.555176 0.800781 0.608643 0.759033 0.591553 0.759033 0.591553 0.800781 0.608643 0.780029 0.646973 0.759033 0.591553 0.780029 0.646973 0.726807 0.614014 0.436035 0.487305 0.489746 0.527344 0.370361 0.512207 0.370361 0.512207 0.489746 0.527344 0.423584 0.55127 0.436035 0.487305 0.370361 0.512207 0.345703 0.472412 0.436035 0.487305 0.345703 0.472412 0.401855 0.401367 0.401855 0.401367 0.345703 0.472412 0.336426 0.406982 0.336426 0.406982 0.345703 0.472412 0.313477 0.388184 0.898682 0.933594 0.976807 0.959229 0.928467 0.99292 0.243408 0.917725 0.243408 0.817383 0.281738 0.844482 0.476807 0.080322 0.499512 0.15625 0.425049 0.15625 0.499512 0.15625 0.476807 0.080322 0.554688 0.078125 0.499512 0.15625 0.554688 0.078125 0.568604 0.119629 0.441406 0.940674 0.45874 0.993896 0.400391 0.984131 0.174561 0.288086 0.168701 0.22876 0.232178 0.246582 0.232178 0.246582 0.168701 0.22876 0.25 0.164307 0.232178 0.246582 0.25 0.164307 0.311035 0.257568 0.232178 0.246582 0.311035 0.257568 0.174561 0.288086 0.174561 0.288086 0.311035 0.257568 0.238037 0.329102 0.174561 0.288086 0.238037 0.329102 0.243896 0.39502 0.243896 0.39502 0.238037 0.329102 0.311035 0.257568 0.084717 0.210449 0.026123 0.281006 0.02124 0.215088 0.084717 0.210449 0.02124 0.215088 0.021973 0.164795 0.183105 0.993896 0.195068 0.930176 0.242676 0.99585 0.242676 0.99585 0.195068 0.930176 0.23584 0.907227 0.195068 0.383057 0.225586 0.37915 0.168945 0.485107 0.225586 0.37915 0.195068 0.383057 0.174805 0.30249 0.174805 0.30249 0.195068 0.383057 0.168945 0.485107 0.779785 0.067139 0.731201 0.134277 0.722656 0.038574 0.084961 0.14209 0.020752 0.14209 0.050293 0.121826 0.404541 0.033691 0.359375 0.04834 0.358887 0 0.423584 0.55127 0.351318 0.593262 0.370361 0.512207 0.370361 0.512207 0.351318 0.593262 0.308838 0.599609 0.503906 0.955811 0.464111 0.989746 0.44751 0.937744 0.503906 0.955811 0.44751 0.937744 0.487305 0.898193 0.929688 0.165039 1 0.165039 0.995605 0.224121 0.768555 0.093994 0.768555 0.179932 0.73291 0.165039 0.373291 0.634521 0.409668 0.624512 0.388428 0.699463 0.409668 0.624512 0.373291 0.634521 0.396729 0.59375 0.396729 0.59375 0.373291 0.634521 0.349854 0.602539 0.349854 0.602539 0.373291 0.634521 0.339111 0.649658 0.339111 0.649658 0.373291 0.634521 0.388428 0.699463 0.339111 0.649658 0.388428 0.699463 0.348633 0.699219 0.339111 0.649658 0.348633 0.699219 0.251221 0.684326 0.251221 0.684326 0.348633 0.699219 0.293701 0.728516 0.348633 0.699219 0.388428 0.699463 0.430664 0.74707 0.430664 0.74707 0.388428 0.699463 0.439697 0.718262 0.439697 0.718262 0.388428 0.699463 0.4104 0.692383 0.601807 0.073242 0.573486 0.074219 0.569092 0.025391 0.573486 0.074219 0.601807 0.073242 0.572998 0.125244 0.601807 0.073242 0.569092 0.025391 0.614746 0.042725 0.601807 0.073242 0.614746 0.042725 0.671875 0.053955 0.737061 0.032227 0.77002 0.008057 0.770508 0.05542 0.417725 0.078857 0.366943 0.053467 0.400391 0.041504 0.366943 0.053467 0.417725 0.078857 0.35083 0.078857 0.417725 0.078857 0.400391 0.041504 0.430664 0.04541 0.018066 0.40625 0.018066 0.342041 0.057617 0.395996 0.334473 0.220459 0.417725 0.177979 0.387207 0.23999 0.334473 0.220459 0.387207 0.23999 0.332275 0.269043 0.334473 0.220459 0.332275 0.269043 0.26416 0.172363 0.332275 0.269043 0.387207 0.23999 0.407715 0.316895 0.332275 0.269043 0.407715 0.316895 0.337891 0.375732 0.332275 0.269043 0.337891 0.375732 0.28833 0.340332 0.332275 0.269043 0.28833 0.340332 0.311523 0.271973 0.095703 0.954834 0.05957 0.88501 0.153076 0.943359 0.05957 0.88501 0.095703 0.954834 0.055176 0.994873 0.095703 0.954834 0.153076 0.943359 0.134033 0.994385 0.095703 0.954834 0.134033 0.994385 0.055176 0.994873 0.431641 0.060791 0.461914 0.081543 0.424072 0.145264 0.461914 0.081543 0.431641 0.060791 0.498291 0.044678 0.761475 0.719238 0.811523 0.814941 0.737061 0.793457 0.761475 0.719238 0.737061 0.793457 0.740723 0.705078 0.761475 0.719238 0.740723 0.705078 0.799805 0.654297 0.811523 0.814941 0.761475 0.719238 0.817383 0.724365 0.817383 0.724365 0.761475 0.719238 0.799805 0.654297 0.811523 0.814941 0.817383 0.724365 0.891113 0.788086 0.817383 0.724365 0.799805 0.654297 0.881836 0.691406 0.817383 0.724365 0.881836 0.691406 0.891113 0.788086 0.158203 0.009521 0.158203 0.066162 0.105469 0.031982 0.018066 0.852295 0.049561 0.83374 0.078857 0.862061 0.018066 0.852295 0.078857 0.862061 0.019287 0.908691 0.920166 0.264404 0.870605 0.237793 0.872314 0.200439 0.870605 0.237793 0.920166 0.264404 0.868896 0.294678 0.868896 0.294678 0.920166 0.264404 0.913818 0.320801 0.868896 0.294678 0.913818 0.320801 0.900635 0.333984 0.900635 0.333984 0.913818 0.320801 0.90918 0.346436 0.345947 0.017334 0.345947 0.074463 0.303711 0.020508 0.879883 0.576416 0.912354 0.596191 0.879883 0.576416 0.467041 0.002197 0.494141 0.039795 0.435059 0.052246 0.097656 0.419922 0.043945 0.494141 0.03833 0.406738 0.135254 0.60083 0.16333 0.648682 0.099121 0.653076 0.135254 0.60083 0.099121 0.653076 0.059326 0.601318 0.059326 0.601318 0.099121 0.653076 0.071533 0.64502 0.858154 0.066895 0.922363 0.119385 0.887451 0.177734 0.858154 0.066895 0.887451 0.177734 0.856201 0.157959 0.858154 0.066895 0.856201 0.157959 0.772949 0.089111 0.772949 0.089111 0.856201 0.157959 0.812744 0.163574 0.615967 0.930664 0.615967 0.974609 0.525391 0.941162</float_array>
          <technique_common>
            <accessor source="#PetRation-mesh-map-0-array" count="1293" stride="2">
              <param name="S" type="float"/>
              <param name="T" type="float"/>
            </accessor>
          </technique_common>
        </source>
        <vertices id="PetRation-mesh-vertices">
          <input semantic="POSITION" source="#PetRation-mesh-positions"/>
        </vertices>
        <polylist material="Material_-1-material" count="6">
          <input semantic="VERTEX" source="#PetRation-mesh-vertices" offset="0"/>
          <input semantic="NORMAL" source="#PetRation-mesh-normals" offset="1"/>
          <input semantic="TEXCOORD" source="#PetRation-mesh-map-0" offset="2" set="0"/>
          <vcount>3 3 3 3 3 3 3 3 3 3 3 3 3 3 3 3 3 3 3 3 3 3 3 3 3 3 3 3 3 3 3 3 3 3 3 3 3 3 3 3 3 3 3 3 3 3 3 3 3 3 3 3 3 3 3 3 3 3 3 3 3 3 3 3 3 3 3 3 3 3 3 3 3 3 3 3 3 3 3 3 3 3 3 3 3 3 3 3 3 3 3 3 3 3 3 3 3 3 3 3 3 3 3 3 3 3 3 3 3 3 3 3 3 3 3 3 3 3 3 3 3 3 3 3 3 3 3 3 3 3 3 3 3 3 3 3 3 3 3 3 3 3 3 3 3 3 3 3 3 3 3 3 3 3 3 3 3 3 3 3 3 3 3 3 3 3 3 3 3 3 3 3 3 3 3 3 3 3 3 3 3 3 3 3 3 3 3 3 3 3 3 3 3 3 3 3 3 3 3 3 3 3 3 3 3 3 3 3 3 3 3 3 3 3 3 3 3 3 3 3 3 3 3 3 3 3 3 3 3 3 3 3 3 3 3 3 3 3 3 3 3 3 3 3 3 3 3 3 3 3 3 3 3 3 3 3 3 3 3 3 3 3 3 3 3 3 3 3 3 3 3 3 3 3 3 3 3 3 3 3 3 3 3 3 3 3 3 3 3 3 3 3 3 3 3 3 3 3 3 3 3 3 3 3 3 3 3 3 3 3 3 3 3 3 3 3 3 3 3 3 3 3 3 3 3 3 3 3 3 3 3 3 3 3 3 3 3 3 3 3 3 3 3 3 3 3 3 3 3 3 3 3 3 3 3 3 3 3 3 3 3 3 3 3 3 3 3 3 3 3 3 3 3 3 3 3 3 3 3 3 3 3 3 3 3 3 3 3 3 3 3 3 3 3 3 3 3 3 3 3 3 3 3 3 3 3 3 3 3 3 3 3 3 3 3 3 3 3 3 3 3 3 3 3 3 3 3 3 3 3 3</vcount>
          <p>0 0 0 1 0 1 2 0 2 2 1 3 1 1 4 3 1 5 2 2 6 3 2 7 4 2 8 4 3 9 3 3 10 1 3 11 0 4 12 2 4 13 5 4 14 5 5 15 2 5 16 4 5 17 0 6 18 5 6 19 6 6 20 6 7 21 5 7 22 4 7 23 7 8 24 8 8 25 9 8 26 9 9 27 8 9 28 10 9 29 10 10 30 8 10 31 11 10 32 11 11 33 8 11 34 7 11 35 11 12 36 7 12 37 12 12 38 12 13 39 7 13 40 13 13 41 7 14 42 9 14 43 14 14 44 7 15 45 14 15 46 13 15 47 14 16 48 9 16 49 15 16 50 14 17 51 15 17 52 13 17 53 10 18 54 16 18 55 9 18 56 9 19 57 16 19 58 15 19 59 16 20 60 10 20 61 17 20 62 17 21 63 10 21 64 11 21 65 17 22 66 11 22 67 12 22 68 17 23 69 12 23 70 18 23 71 18 24 72 12 24 73 19 24 74 19 25 75 12 25 76 15 25 77 15 26 78 12 26 79 13 26 80 20 27 81 21 27 82 22 27 83 22 28 84 21 28 85 23 28 86 23 29 87 21 29 88 20 29 89 23 30 90 20 30 91 24 30 92 24 31 93 20 31 94 22 31 95 24 32 96 22 32 97 25 32 98 24 33 99 25 33 100 23 33 101 23 34 102 25 34 103 22 34 104 26 35 105 27 35 106 28 35 107 27 36 108 26 36 109 29 36 110 26 37 111 28 37 112 30 37 113 30 38 114 28 38 115 31 38 116 31 39 117 28 39 118 27 39 119 31 40 120 27 40 121 32 40 122 6 41 123 1 41 124 0 41 125 1 42 126 6 42 127 4 42 128 31 43 129 32 43 130 33 43 131 31 44 132 33 44 133 30 44 134 33 45 135 32 45 136 29 45 137 33 46 138 29 46 139 30 46 140 29 47 141 32 47 142 27 47 143 30 48 144 29 48 145 26 48 146 34 49 147 35 49 148 36 49 149 37 50 150 15 50 151 16 50 152 15 51 153 37 51 154 38 51 155 38 52 156 37 52 157 39 52 158 15 53 159 38 53 160 19 53 161 19 54 162 38 54 163 18 54 164 40 55 165 41 55 166 42 55 167 40 56 168 42 56 169 43 56 170 40 57 171 43 57 172 44 57 173 44 58 174 43 58 175 45 58 176 44 59 177 45 59 178 46 59 179 36 60 180 35 60 181 47 60 182 36 61 183 47 61 184 48 61 185 47 62 186 35 62 187 49 62 188 48 63 189 47 63 190 50 63 191 50 64 192 47 64 193 49 64 194 50 65 195 49 65 196 51 65 197 52 66 198 53 66 199 35 66 200 35 67 201 53 67 202 54 67 203 54 68 204 53 68 205 52 68 206 52 69 207 35 69 208 55 69 209 52 70 210 55 70 211 56 70 212 52 71 213 56 71 214 34 71 215 52 72 216 34 72 217 36 72 218 52 73 219 36 73 220 48 73 221 54 74 222 52 74 223 57 74 224 57 75 225 52 75 226 48 75 227 54 76 228 57 76 229 49 76 230 57 77 231 48 77 232 50 77 233 42 78 234 58 78 235 43 78 236 58 79 237 42 79 238 41 79 239 58 80 240 41 80 241 59 80 242 58 81 243 59 81 244 43 81 245 59 82 246 41 82 247 40 82 248 43 83 249 59 83 250 60 83 251 43 84 252 60 84 253 45 84 254 60 85 255 59 85 256 61 85 257 61 86 258 59 86 259 40 86 260 61 87 261 40 87 262 44 87 263 61 88 264 44 88 265 62 88 266 63 89 267 37 89 268 16 89 269 37 90 270 63 90 271 39 90 272 63 91 273 16 91 274 17 91 275 39 92 276 63 92 277 18 92 278 18 93 279 63 93 280 17 93 281 62 94 282 44 94 283 46 94 284 62 95 285 46 95 286 60 95 287 60 96 288 46 96 289 45 96 290 62 97 291 60 97 292 61 97 293 64 98 294 65 98 295 66 98 296 64 99 297 66 99 298 67 99 299 65 100 300 64 100 301 68 100 302 66 101 303 65 101 304 69 101 305 69 102 306 65 102 307 68 102 308 70 103 309 67 103 310 66 103 311 70 104 312 66 104 313 69 104 314 70 105 315 69 105 316 68 105 317 71 106 318 72 106 319 73 106 320 73 107 321 72 107 322 74 107 323 73 108 324 74 108 325 75 108 326 73 109 327 75 109 328 76 109 329 73 110 330 76 110 331 77 110 332 77 111 333 76 111 334 78 111 335 78 112 336 76 112 337 79 112 338 77 113 339 78 113 340 80 113 341 73 114 342 77 114 343 81 114 344 73 115 345 81 115 346 71 115 347 71 116 348 81 116 349 82 116 350 71 117 351 82 117 352 83 117 353 83 118 354 82 118 355 84 118 356 84 119 357 82 119 358 81 119 359 84 120 360 81 120 361 85 120 362 35 121 363 34 121 364 56 121 365 35 122 366 56 122 367 55 122 368 64 123 369 67 123 370 68 123 371 68 124 372 67 124 373 70 124 374 79 125 375 86 125 376 77 125 377 86 126 378 79 126 379 87 126 380 86 127 381 87 127 382 88 127 383 86 128 384 88 128 385 77 128 386 77 129 387 88 129 388 81 129 389 79 130 390 77 130 391 80 130 392 79 131 393 80 131 394 78 131 395 81 132 396 88 132 397 76 132 398 76 133 399 88 133 400 89 133 401 89 134 402 88 134 403 87 134 404 89 135 405 87 135 406 79 135 407 71 136 408 90 136 409 72 136 410 72 137 411 90 137 412 74 137 413 74 138 414 90 138 415 91 138 416 90 139 417 71 139 418 92 139 419 91 140 420 90 140 421 93 140 422 93 141 423 90 141 424 92 141 425 91 142 426 93 142 427 94 142 428 93 143 429 92 143 430 95 143 431 95 144 432 92 144 433 96 144 434 96 145 435 92 145 436 91 145 437 96 146 438 91 146 439 94 146 440 96 147 441 94 147 442 97 147 443 96 148 444 97 148 445 98 148 446 96 149 447 98 149 448 99 149 449 85 150 450 81 150 451 100 150 452 85 151 453 100 151 454 101 151 455 101 152 456 100 152 457 83 152 458 83 153 459 100 153 460 71 153 461 71 154 462 100 154 463 102 154 464 102 155 465 100 155 466 81 155 467 71 156 468 102 156 469 92 156 470 92 157 471 102 157 472 91 157 473 91 158 474 102 158 475 74 158 476 74 159 477 102 159 478 75 159 479 75 160 480 102 160 481 81 160 482 75 161 483 81 161 484 76 161 485 103 162 486 104 162 487 95 162 488 95 163 489 104 163 490 105 163 491 95 164 492 105 164 493 106 164 494 105 165 495 104 165 496 107 165 497 105 166 498 107 166 499 108 166 500 108 167 501 109 167 502 106 167 503 76 168 504 89 168 505 79 168 506 83 169 507 84 169 508 101 169 509 101 170 510 84 170 511 85 170 512 49 171 513 57 171 514 110 171 515 110 172 516 57 172 517 111 172 518 111 173 519 57 173 520 112 173 521 112 174 522 57 174 523 50 174 524 49 175 525 110 175 526 51 175 527 51 176 528 110 176 529 113 176 530 113 177 531 110 177 532 111 177 533 113 178 534 111 178 535 112 178 536 113 179 537 112 179 538 51 179 539 51 180 540 112 180 541 50 180 542 114 181 543 115 181 544 116 181 545 116 182 546 115 182 547 117 182 548 117 183 549 115 183 550 118 183 551 119 184 552 118 184 553 120 184 554 120 185 555 118 185 556 115 185 557 120 186 558 115 186 559 114 186 560 120 187 561 114 187 562 119 187 563 118 188 564 119 188 565 121 188 566 121 189 567 119 189 568 114 189 569 118 190 570 121 190 571 117 190 572 121 191 573 114 191 574 116 191 575 121 192 576 116 192 577 117 192 578 122 193 579 123 193 580 104 193 581 123 194 582 122 194 583 124 194 584 124 195 585 122 195 586 125 195 587 124 196 588 125 196 589 126 196 590 125 197 591 122 197 592 127 197 593 126 198 594 125 198 595 128 198 596 128 199 597 125 199 598 127 199 599 126 200 600 128 200 601 129 200 602 122 201 603 130 201 604 129 201 605 122 202 606 129 202 607 131 202 608 131 203 609 129 203 610 128 203 611 122 204 612 131 204 613 127 204 614 128 205 615 127 205 616 132 205 617 128 206 618 132 206 619 131 206 620 127 207 621 131 207 622 133 207 623 133 208 624 131 208 625 132 208 626 127 209 627 133 209 628 134 209 629 133 210 630 132 210 631 135 210 632 133 211 633 135 211 634 136 211 635 132 212 636 127 212 637 137 212 638 132 213 639 137 213 640 135 213 641 135 214 642 137 214 643 136 214 644 137 215 645 127 215 646 134 215 647 136 216 648 137 216 649 138 216 650 137 217 651 134 217 652 139 217 653 137 218 654 139 218 655 138 218 656 140 219 657 141 219 658 142 219 659 142 220 660 141 220 661 143 220 662 140 221 663 142 221 664 144 221 665 142 222 666 143 222 667 145 222 668 144 223 669 142 223 670 146 223 671 146 224 672 142 224 673 145 224 674 144 225 675 146 225 676 147 225 677 147 226 678 146 226 679 145 226 680 144 227 681 147 227 682 148 227 683 147 228 684 145 228 685 149 228 686 95 229 687 98 229 688 103 229 689 103 230 690 98 230 691 150 230 692 140 231 693 144 231 694 148 231 695 151 232 696 152 232 697 153 232 698 152 233 699 151 233 700 154 233 701 154 234 702 151 234 703 155 234 704 155 235 705 151 235 706 153 235 707 153 236 708 152 236 709 156 236 710 153 237 711 156 237 712 157 237 713 153 238 714 157 238 715 158 238 716 153 239 717 158 239 718 159 239 719 153 240 720 159 240 721 155 240 722 155 241 723 159 241 724 160 241 725 161 242 726 156 242 727 152 242 728 161 243 729 152 243 730 154 243 731 161 244 732 154 244 733 155 244 734 161 245 735 155 245 736 156 245 737 156 246 738 155 246 739 162 246 740 162 247 741 155 247 742 160 247 743 156 248 744 162 248 745 157 248 746 162 249 747 160 249 748 163 249 749 162 250 750 163 250 751 157 250 752 157 251 753 163 251 754 158 251 755 164 252 756 165 252 757 166 252 758 165 253 759 164 253 760 167 253 761 166 254 762 165 254 763 168 254 764 166 255 765 168 255 766 164 255 767 169 256 768 167 256 769 164 256 770 169 257 771 164 257 772 168 257 773 167 258 774 169 258 775 170 258 776 170 259 777 169 259 778 168 259 779 167 260 780 170 260 781 165 260 782 165 261 783 170 261 784 168 261 785 171 262 786 172 262 787 173 262 788 173 263 789 172 263 790 174 263 791 171 264 792 173 264 793 175 264 794 172 265 795 171 265 796 176 265 797 177 266 798 178 266 799 179 266 800 179 267 801 178 267 802 180 267 803 178 268 804 177 268 805 181 268 806 177 269 807 179 269 808 182 269 809 180 270 810 183 270 811 179 270 812 183 271 813 180 271 814 184 271 815 184 272 816 180 272 817 185 272 818 185 273 819 180 273 820 181 273 821 181 274 822 180 274 823 178 274 824 186 275 825 123 275 826 187 275 827 123 276 828 186 276 829 107 276 830 186 277 831 187 277 832 104 277 833 187 278 834 123 278 835 124 278 836 187 279 837 124 279 838 188 279 839 123 280 840 107 280 841 104 280 842 182 281 843 179 281 844 183 281 845 182 282 846 183 282 847 184 282 848 182 283 849 184 283 850 177 283 851 177 284 852 184 284 853 181 284 854 124 285 855 107 285 856 186 285 857 107 286 858 124 286 859 130 286 860 107 287 861 130 287 862 108 287 863 124 288 864 186 288 865 188 288 866 188 289 867 186 289 868 108 289 869 108 290 870 186 290 871 104 290 872 185 291 873 181 291 874 184 291 875 160 292 876 158 292 877 163 292 878 158 293 879 160 293 880 159 293 881 173 294 882 174 294 883 189 294 884 173 295 885 189 295 886 175 295 887 175 296 888 189 296 889 174 296 890 175 297 891 174 297 892 176 297 893 176 298 894 174 298 895 172 298 896 175 299 897 176 299 898 190 299 899 175 300 900 190 300 901 171 300 902 171 301 903 190 301 904 176 301 905 191 302 906 192 302 907 193 302 908 192 303 909 191 303 910 194 303 911 193 304 912 192 304 913 195 304 914 193 305 915 195 305 916 196 305 917 193 306 918 196 306 919 197 306 920 193 307 921 197 307 922 191 307 923 191 308 924 197 308 925 198 308 926 138 309 927 199 309 928 200 309 929 138 310 930 200 310 931 136 310 932 199 311 933 138 311 934 139 311 935 136 312 936 200 312 937 133 312 938 133 313 939 200 313 940 199 313 941 199 314 942 139 314 943 134 314 944 199 315 945 134 315 946 133 315 947 39 316 948 18 316 949 38 316 950 130 317 951 122 317 952 104 317 953 130 318 954 104 318 955 188 318 956 129 319 957 130 319 958 126 319 959 126 320 960 130 320 961 124 320 962 108 321 963 188 321 964 130 321 965 201 322 966 202 322 967 203 322 968 204 323 969 202 323 970 201 323 971 202 324 972 204 324 973 205 324 974 204 325 975 201 325 976 206 325 977 207 326 978 201 326 979 203 326 980 201 327 981 207 327 982 206 327 983 207 328 984 203 328 985 208 328 986 208 329 987 203 329 988 202 329 989 208 330 990 202 330 991 205 330 992 208 331 993 205 331 994 207 331 995 207 332 996 205 332 997 206 332 998 206 333 999 205 333 1000 209 333 1001 206 334 1002 209 334 1003 204 334 1004 210 335 1005 211 335 1006 109 335 1007 109 336 1008 211 336 1009 212 336 1010 210 337 1011 109 337 1012 213 337 1013 210 338 1014 213 338 1015 214 338 1016 214 339 1017 213 339 1018 215 339 1019 215 340 1020 213 340 1021 212 340 1022 97 341 1023 93 341 1024 95 341 1025 93 342 1026 97 342 1027 94 342 1028 214 343 1029 211 343 1030 210 343 1031 211 344 1032 214 344 1033 215 344 1034 211 345 1035 215 345 1036 212 345 1037 98 346 1038 97 346 1039 95 346 1040 216 347 1041 217 347 1042 218 347 1043 218 348 1044 217 348 1045 219 348 1046 218 349 1047 219 349 1048 220 349 1049 218 350 1050 220 350 1051 216 350 1052 216 351 1053 220 351 1054 221 351 1055 216 352 1056 221 352 1057 222 352 1058 222 353 1059 221 353 1060 220 353 1061 222 354 1062 219 354 1063 217 354 1064 222 355 1065 217 355 1066 216 355 1067 223 356 1068 224 356 1069 225 356 1070 225 357 1071 224 357 1072 226 357 1073 227 358 1074 224 358 1075 223 358 1076 224 359 1077 227 359 1078 226 359 1079 226 360 1080 227 360 1081 223 360 1082 219 361 1083 222 361 1084 220 361 1085 228 362 1086 109 362 1087 108 362 1088 229 363 1089 230 363 1090 231 363 1091 109 364 1092 228 364 1093 212 364 1094 212 365 1095 228 365 1096 232 365 1097 198 366 1098 191 366 1099 196 366 1100 198 367 1101 196 367 1102 195 367 1103 194 368 1104 195 368 1105 192 368 1106 195 369 1107 194 369 1108 198 369 1109 233 370 1110 103 370 1111 150 370 1112 103 371 1113 233 371 1114 104 371 1115 104 372 1116 233 372 1117 108 372 1118 108 373 1119 233 373 1120 234 373 1121 234 374 1122 233 374 1123 150 374 1124 234 375 1125 150 375 1126 99 375 1127 234 376 1128 99 376 1129 232 376 1130 232 377 1131 99 377 1132 235 377 1133 99 378 1134 150 378 1135 212 378 1136 212 379 1137 150 379 1138 236 379 1139 236 380 1140 150 380 1141 98 380 1142 235 381 1143 98 381 1144 236 381 1145 98 382 1146 235 382 1147 99 382 1148 235 383 1149 236 383 1150 212 383 1151 235 384 1152 212 384 1153 232 384 1154 105 385 1155 108 385 1156 106 385 1157 148 386 1158 143 386 1159 141 386 1160 143 387 1161 148 387 1162 145 387 1163 148 388 1164 141 388 1165 140 388 1166 237 389 1167 238 389 1168 239 389 1169 238 390 1170 237 390 1171 240 390 1172 238 391 1173 240 391 1174 241 391 1175 238 392 1176 241 392 1177 239 392 1178 241 393 1179 240 393 1180 242 393 1181 241 394 1182 242 394 1183 243 394 1184 241 395 1185 243 395 1186 244 395 1187 241 396 1188 244 396 1189 245 396 1190 246 397 1191 239 397 1192 241 397 1193 239 398 1194 246 398 1195 247 398 1196 246 399 1197 241 399 1198 248 399 1199 246 400 1200 248 400 1201 247 400 1202 148 401 1203 149 401 1204 145 401 1205 149 402 1206 148 402 1207 147 402 1208 249 403 1209 250 403 1210 242 403 1211 249 404 1212 242 404 1213 240 404 1214 249 405 1215 240 405 1216 245 405 1217 250 406 1218 249 406 1219 251 406 1220 251 407 1221 249 407 1222 245 407 1223 250 408 1224 251 408 1225 243 408 1226 251 409 1227 245 409 1228 244 409 1229 251 410 1230 244 410 1231 243 410 1232 250 411 1233 243 411 1234 242 411 1235 228 412 1236 108 412 1237 234 412 1238 228 413 1239 234 413 1240 232 413 1241 247 414 1242 237 414 1243 239 414 1244 237 415 1245 247 415 1246 240 415 1247 240 416 1248 247 416 1249 248 416 1250 240 417 1251 248 417 1252 245 417 1253 245 418 1254 248 418 1255 241 418 1256 54 419 1257 49 419 1258 35 419 1259 109 420 1260 106 420 1261 95 420 1262 209 421 1263 205 421 1264 204 421 1265 225 422 1266 226 422 1267 223 422 1268 196 423 1269 191 423 1270 194 423 1271 196 424 1272 194 424 1273 197 424 1274 197 425 1275 194 425 1276 198 425 1277 99 426 1278 212 426 1279 213 426 1280 99 427 1281 213 427 1282 109 427 1283 99 428 1284 109 428 1285 96 428 1286 96 429 1287 109 429 1288 95 429 1289 187 430 1290 188 430 1291 104 430 1292</p>
        </polylist>
      </mesh>
    </geometry>
  </library_geometries>
  <library_visual_scenes>
    <visual_scene id="Scene" name="Scene">
      <node id="PetRation" name="PetRation" type="NODE">
        <scale sid="scale">1 1 1</scale>
        <translate sid="location">0 0 0</translate>
        <rotate sid="rotationX">1 0 0 0</rotate>
        <rotate sid="rotationY">0 1 0 0</rotate>
        <rotate sid="rotationZ">0 0 1 0</rotate>
        <instance_geometry url="#PetRation-mesh" name="PetRation">
          <bind_material>
            <technique_common>
            </technique_common>
          </bind_material>
        </instance_geometry>
      </node>
    </visual_scene>
  </library_visual_scenes>
  <scene>
    <instance_visual_scene url="#Scene"/>
  </scene>
</COLLADA>
