<?xml version="1.0" encoding="utf-8"?>
<COLLADA xmlns="http://www.collada.org/2005/11/COLLADASchema" version="1.4.1" xmlns:xsi="http://www.w3.org/2001/XMLSchema-instance">
  <asset>
    <contributor>
      <author>Blockbench user</author>
      <authoring_tool>Blockbench</authoring_tool>
    </contributor>
    <created>2026-03-06T12:57:49.585Z</created>
    <modified>2026-03-06T12:57:49.593Z</modified>
    <unit name="meter" meter="1.0"/>
    <up_axis>Y_UP</up_axis>
  </asset>
  <library_effects>
  </library_effects>
  <library_images>
  </library_images>
  <library_materials>
  </library_materials>
  <library_geometries>
    <geometry id="PoisonFeatherArrow-mesh" name="PoisonFeatherArrow">
      <mesh>
        <source id="PoisonFeatherArrow-mesh-positions">
          <float_array id="PoisonFeatherArrow-mesh-positions-array" count="714">0.048401 -0.456543 0.214554 0.064514 -0.454376 0.197784 0.070374 -0.502075 0.234039 0.056255 -0.369415 0.142151 0.077538 -0.4505 0.213287 0.051819 -0.410522 0.223511 0.079979 -0.374634 0.145142 0.055504 -0.364594 0.140564 0.078293 -0.384308 0.194351 0.091476 -0.340485 0.122826 0.034401 -0.404938 0.220261 0.005926 -0.319183 0.214233 0.025539 -0.390137 0.177078 0.036636 -0.329254 0.213654 0.037846 -0.34671 0.192841 0.062271 -0.350464 0.191223 0.063484 -0.370361 0.172119 0.040569 -0.385803 0.177597 0.037205 -0.353668 0.164841 0.046429 -0.351868 0.158951 0.029404 -0.33667 0.156891 0.047024 -0.315674 0.148621 0.028921 -0.308258 0.154739 0.028921 -0.311829 0.164871 0.035152 -0.314819 0.179092 0.034592 -0.299469 0.174973 0.060993 -0.298676 0.160431 0.058411 -0.322662 0.176804 0.066269 -0.329254 0.167252 0.016182 -0.313446 0.213623 0.027742 -0.240005 0.116135 0.049419 -0.243561 0.134735 0.01543 -0.208115 0.118286 0.026796 -0.232559 0.145508 0.034737 -0.270508 0.161789 0.034 -0.141739 0.08812 0.010607 -0.147278 0.082291 0.022888 -0.135239 0.073311 0.000055 -0.050999 0.038307 0.017115 -0.038715 0.037197 0.004887 0.010928 0.011682 0.028269 -0.19339 0.128723 0.015312 -0.044479 0.0602 0.006269 0.031338 0.026585 -0.006043 -0.017143 0.048153 0.02866 -0.13237 0.097473 0.003476 -0.074409 0.074951 0.017694 -0.150772 0.109901 0.006858 -0.135208 0.088875 -0.007262 -0.040501 0.043732 -0.018055 0.040783 0.006219 -0.013127 0.029734 0.026228 -0.018829 0.104408 -0.003817 -0.024345 0.087486 -0.015699 -0.028494 0.11129 -0.012025 -0.031822 0.137436 -0.024427 -0.001061 0.117081 -0.0129 0.000722 0.075508 -0.012316 -0.006519 0.113518 -0.035965 -0.031181 0.117607 -0.031826 -0.027409 0.145599 -0.056179 0.001202 0.129944 -0.045372 -0.009936 0.157501 -0.026634 -0.002622 0.146942 -0.049511 -0.007159 0.169296 -0.041008 -0.023787 0.178146 -0.036663 -0.009741 0.155319 -0.059147 -0.01068 0.176941 -0.060013 -0.007902 0.172516 -0.081848 -0.003575 0.192429 -0.089333 -0.019606 0.191925 -0.067955 -0.035248 0.192917 -0.062836 -0.029308 0.15918 -0.029711 -0.03167 0.156677 -0.020664 -0.03231 0.176971 -0.023634 -0.029854 0.201706 -0.046944 -0.028992 0.145187 -0.015011 0.029089 0.216675 -0.154037 0.027782 0.195602 -0.132782 0.006757 0.181641 -0.091759 0.011466 0.215485 -0.120453 -0.003943 0.228531 -0.108833 0.025396 0.209656 -0.126083 0.015732 0.187531 -0.099533 0.002162 0.227417 -0.10453 -0.000342 0.173065 -0.068062 -0.018806 0.237244 -0.069199 0.00305 0.194138 -0.118279 0.009501 0.245819 -0.146423 -0.025478 0.252411 -0.093468 -0.034981 0.207916 -0.051811 -0.04599 0.266449 -0.088608 -0.060497 0.221695 -0.013586 -0.048176 0.246353 -0.057552 -0.0662 0.255096 -0.017206 -0.060013 0.25116 -0.01185 -0.053146 0.23671 -0.021925 -0.04443 0.236786 -0.022488 -0.041866 0.247604 -0.061634 -0.042854 0.210007 -0.014449 -0.051922 0.253998 -0.033676 -0.034355 0.245911 -0.064117 -0.006258 0.241867 -0.131912 -0.007809 0.299438 -0.153671 -0.00947 0.260498 -0.117058 -0.020718 0.28476 -0.119095 -0.035496 0.31897 -0.118813 -0.036274 0.265411 -0.098053 -0.054733 0.323456 -0.113319 0.003446 0.258545 -0.128281 0.010466 0.272491 -0.154541 0.000368 0.284515 -0.1175 -0.019962 0.250214 -0.09021 -0.027922 0.292969 -0.092346 -0.06929 0.29071 -0.052464 -0.081779 0.301544 -0.027334 -0.082176 0.332672 -0.035709 -0.0611 0.306366 -0.068817 -0.04665 0.270508 -0.076317 -0.053654 0.286713 -0.041809 -0.029888 0.288666 -0.0583 -0.037807 0.273193 -0.077545 -0.037987 0.321594 -0.071274 -0.047474 0.305145 -0.091232 -0.056633 0.307434 -0.086403 -0.070808 0.267822 -0.012115 -0.066933 0.325256 -0.035255 -0.058693 0.317322 -0.054749 -0.062714 0.283783 -0.046787 -0.046627 0.27063 -0.064934 -0.061962 0.276154 -0.029602 -0.026773 0.325409 -0.153015 -0.047737 0.370911 -0.140823 -0.017757 0.330902 -0.151077 -0.02084 0.307373 -0.125351 -0.034004 0.347412 -0.135101 0.001878 0.297546 -0.141022 -0.015161 0.355377 -0.167007 0.00981 0.303131 -0.164444 0.017908 0.287933 -0.157196 0.011656 0.322388 -0.173294 0.00472 0.330933 -0.18222 -0.00967 0.329193 -0.128815 -0.023884 0.341888 -0.136032 -0.030804 0.327698 -0.11956 -0.027815 0.316254 -0.109032 -0.02261 0.351105 -0.182983 -0.031422 0.351532 -0.183426 -0.047562 0.381561 -0.162888 -0.055241 0.415985 -0.157364 -0.030519 0.394745 -0.207474 -0.038689 0.380829 -0.165329 -0.045242 0.391022 -0.143494 -0.024 0.368774 -0.171143 -0.034721 0.385132 -0.165741 -0.020384 0.380249 -0.199295 -0.069679 0.415497 -0.151398 -0.061192 0.365356 -0.11293 -0.063095 0.386658 -0.11869 -0.054966 0.322876 -0.113281 -0.063881 0.307434 -0.10392 -0.063683 0.345184 -0.104225 -0.054302 0.358337 -0.090599 -0.048485 0.334625 -0.054108 -0.040817 0.363464 -0.111717 -0.041214 0.325165 -0.095207 -0.037975 0.356049 -0.09388 -0.033176 0.322327 -0.07962 -0.043678 0.354584 -0.09124 -0.041058 0.378906 -0.063705 -0.041546 0.319427 -0.083862 -0.041557 0.323639 -0.094864 -0.001917 0.36972 -0.203125 -0.004892 0.364685 -0.170624 -0.027496 0.375153 -0.149109 -0.042572 0.415558 -0.158508 -0.025425 0.393646 -0.17569 -0.064194 0.30545 -0.103592 -0.067039 0.312958 -0.086067 -0.074013 0.33313 -0.09803 -0.059982 0.326324 -0.087181 -0.056938 0.308563 -0.086876 -0.065918 0.325928 -0.067719 -0.061749 0.304932 -0.055332 -0.066475 0.30658 -0.040062 -0.040726 0.318542 -0.084496 -0.076828 0.353149 -0.083557 -0.074158 0.334808 -0.098114 -0.076591 0.353394 -0.083923 -0.063988 0.347321 -0.103912 -0.060772 0.352753 -0.089836 -0.088982 0.344391 -0.042923 -0.086708 0.374237 -0.0588 -0.08123 0.395203 -0.058655 -0.076561 0.353912 -0.058319 -0.067307 0.370605 -0.073479 -0.081573 0.343109 -0.042038 -0.071175 0.377197 -0.099266 -0.074493 0.371796 -0.088013 -0.061401 0.365723 -0.113174 -0.064651 0.376068 -0.083076 -0.044182 0.42511 -0.221283 -0.025928 0.408356 -0.217453 -0.04406 0.44696 -0.235809 -0.040222 0.444702 -0.207977 -0.039433 0.424957 -0.209503 -0.04446 0.411896 -0.174652 -0.034916 0.384613 -0.164673 -0.038925 0.38092 -0.165085 -0.047768 0.38089 -0.161972 -0.051434 0.436066 -0.152878 -0.06971 0.428894 -0.139633 -0.049267 0.431274 -0.137115 -0.062569 0.42392 -0.129272 -0.040138 0.381042 -0.097221 -0.076241 0.437347 -0.105423 -0.076691 0.430878 -0.087807 -0.082817 0.435059 -0.121201 -0.083778 0.384644 -0.106117 -0.059113 0.393219 -0.123566 -0.054184 0.400421 -0.092285 -0.072067 0.475861 -0.116928 -0.075974 0.490143 -0.092102 -0.088501 0.49826 -0.113396 -0.077965 0.332031 -0.120903 -0.060246 0.372009 -0.09166 -0.074585 0.37262 -0.087502 -0.083 0.421265 -0.088478 -0.07962 0.399445 -0.070816 -0.089066 0.432404 -0.072861 -0.062653 0.388672 -0.081818 -0.053833 0.404785 -0.071838 -0.076553 0.46344 -0.083138 -0.074364 0.379425 -0.055347 -0.074013 0.417114 -0.067253 -0.077103 0.43338 -0.087265 -0.079414 0.400024 -0.070465 -0.060062 0.382812 -0.055515</float_array>
          <technique_common>
            <accessor source="#PoisonFeatherArrow-mesh-positions-array" count="238" stride="3">
              <param name="X" type="float"/>
              <param name="Y" type="float"/>
              <param name="Z" type="float"/>
            </accessor>
          </technique_common>
        </source>
        <source id="PoisonFeatherArrow-mesh-normals">
          <float_array id="PoisonFeatherArrow-mesh-normals-array" count="1428">-0.570906 -0.54012 -0.618333 -0.601888 -0.4776 -0.640023 0.761775 -0.330105 -0.557432 0.628948 0.213435 0.747576 -0.015352 -0.548791 -0.835818 0.730402 -0.469274 -0.496281 0.052837 -0.304807 -0.950947 0.999424 -0.001699 0.033908 0.940147 -0.339025 -0.034438 -0.893369 -0.281127 0.350513 -0.15759 0.081233 0.984158 -0.947154 -0.308267 0.088716 0.046803 0.085499 0.995238 -0.154575 0.09045 0.983832 0.623888 0.207932 0.753345 0.623541 0.208444 0.75349 0.602512 0.628407 -0.492021 0.085682 0.131837 0.987561 0.862364 0.377018 -0.337913 -0.956982 -0.271065 0.103484 -0.436388 -0.551462 -0.710954 -0.273791 0.913426 0.301149 -0.071106 0.358076 -0.930981 -0.995258 -0.0866 0.044304 -0.447627 -0.370008 -0.814079 0.127672 -0.49446 -0.859773 -0.526728 0.836069 0.153452 -0.969926 -0.074851 0.231607 0.731117 0.679547 -0.060699 -0.380811 -0.52935 -0.758137 -0.125846 -0.270352 -0.954501 -0.347278 -0.076694 -0.934621 -0.999829 -0.017463 -0.006155 -0.880345 -0.203667 0.428383 -0.91753 -0.137687 0.373071 -0.996958 -0.067181 0.039518 -0.907022 0.07795 0.413805 0.121853 0.401611 0.907667 0.462027 0.245534 0.8522 0.242803 0.472972 0.846962 0.257065 0.525806 0.81083 0.827626 0.344659 0.442996 0.82564 0.254753 0.503408 0.99155 -0.053167 0.118332 0.677536 -0.046828 -0.733997 0.509562 -0.135133 -0.849756 0.587695 -0.23097 -0.775415 -0.060138 -0.531783 -0.844743 -0.335844 0.829467 0.44631 -0.269123 0.387352 -0.881778 -0.248129 0.391887 -0.885921 0.033813 0.045708 0.998382 0.518449 0.669779 -0.531607 -0.445242 -0.446635 -0.776065 0.626031 -0.167446 -0.761608 0.738908 -0.150988 -0.656672 -0.827703 -0.287032 -0.482203 -0.914872 0.023469 0.40306 -0.860648 0.037763 0.507798 0.549134 0.42391 0.720244 -0.988458 0.142883 0.050359 0.518636 0.448334 0.72802 -0.930411 0.155705 0.3318 0.439606 0.370316 0.818299 0.605603 -0.253606 -0.754274 -0.863075 -0.306116 -0.401738 -0.279523 -0.374356 -0.884152 0.726984 -0.230681 -0.646746 -0.224373 -0.425175 -0.87686 0.181131 -0.335104 -0.924606 0.229909 -0.399487 -0.887441 0.741149 -0.195918 -0.642117 0.724253 0.374679 0.578855 0.529094 0.317349 0.786988 -0.775681 0.273012 0.569021 0.965799 0.223372 0.131672 0.978298 0.169516 0.119157 0.003686 0.405683 0.914006 0.927331 0.25643 0.272581 0.92005 0.173907 0.351089 0.039996 0.428952 0.902442 0.114118 0.402513 0.908273 0.239461 0.44135 0.864794 -0.7105 0.129201 0.691734 0.240701 0.440628 0.864818 -0.848334 0.109248 0.518068 -0.866568 0.065113 0.494794 -0.961699 -0.191992 -0.195636 -0.948922 -0.010164 0.315348 -0.935194 0.028813 0.352962 -0.964338 -0.216408 -0.152379 -0.961899 -0.001547 0.273399 -0.813147 -0.313238 -0.490585 -0.81874 -0.326637 -0.472201 -0.260852 -0.364058 -0.894102 -0.975647 -0.047256 0.214196 -0.051169 0.416754 0.907578 -0.966861 0.028261 0.253733 -0.047653 0.369711 0.927924 -0.929636 0.046352 0.365553 -0.719201 -0.226724 0.656769 -0.462575 0.33121 0.822389 0.043363 0.541123 0.839825 0.153721 0.424124 0.892462 0.994628 0.041325 -0.094905 0.992684 0.019759 -0.119115 0.963455 0.112329 -0.243181 -0.370713 -0.435024 -0.820565 -0.041136 -0.350364 -0.93571 -0.147685 -0.542613 -0.826898 0.971067 0.038336 -0.235711 -0.223266 -0.498994 -0.837351 -0.980367 -0.182427 0.074837 -0.069334 -0.649451 -0.757236 -0.216383 -0.406612 -0.887606 0.866384 -0.482011 -0.130558 0.948398 0.266577 0.171693 -0.991095 -0.073476 0.111051 -0.990934 0.017662 -0.133183 0.948404 0.258177 0.184051 0.264582 -0.171554 -0.948981 0.960073 0.094735 0.26322 0.491078 0.624499 0.607325 0.873411 0.317669 -0.369106 0.231219 -0.643182 -0.729969 0.985126 0.036053 -0.168009 0.992038 0.04775 0.116537 0.975842 -0.153672 0.155296 -0.895681 -0.316534 -0.312347 -0.030082 -0.24149 -0.969937 -0.316239 -0.18334 -0.930795 -0.986755 -0.161756 0.012202 -0.989564 0.086387 -0.115324 -0.969709 0.054239 -0.238166 -0.960317 -0.069804 -0.270033 -0.974476 -0.094946 -0.203423 -0.165595 0.284487 0.94427 0.650674 -0.670525 0.356397 0.216972 0.471189 0.854929 0.204772 0.535427 0.819382 0.827632 0.106743 0.551027 0.942178 0.057136 -0.330207 -0.700189 -0.485018 -0.523921 -0.849237 -0.267701 -0.455118 -0.738927 -0.372951 -0.561154 -0.577793 -0.392436 -0.715646 -0.690218 -0.557236 -0.461613 0.983682 0.093829 0.153514 0.463145 0.843218 0.272911 0.940353 -0.002509 0.340191 0.545025 -0.838398 -0.00599 0.765099 0.329603 0.553159 0.411723 -0.889419 -0.198541 0.770349 0.330409 0.545337 0.651601 0.401716 0.643459 0.86673 0.187218 0.462308 0.974797 -0.000186 0.223095 0.968167 -0.129971 0.213915 -0.881239 -0.239869 -0.407284 -0.877084 -0.256459 -0.406143 -0.588771 -0.687445 -0.425168 -0.991606 -0.064651 0.11197 -0.984625 -0.091739 0.148652 -0.839522 -0.302411 -0.451388 -0.832481 -0.34994 -0.429555 -0.910552 -0.194978 -0.364524 -0.666056 -0.032963 0.745173 0.631005 0.116997 0.766906 0.791292 -0.048907 0.60948 0.058539 -0.552088 0.831728 0.84471 0.210294 0.49218 0.876508 0.338833 0.341944 -0.903622 -0.325571 -0.278336 -0.916758 -0.302824 -0.260486 -0.925422 -0.207142 -0.31731 -0.597673 -0.421327 -0.682108 0.827094 0.110776 0.551039 0.059165 0.290211 0.955132 0.863345 0.19102 0.467061 0.924663 0.257755 0.280285 0.423683 0.396103 0.814614 0.480107 0.405107 0.778065 0.984197 0.111692 -0.13741 -0.594875 -0.325892 -0.734791 -0.88751 -0.278037 -0.367452 0.989782 0.072967 0.122508 -0.894382 -0.179024 -0.409917 -0.898451 -0.18372 -0.39879 -0.765853 -0.326265 -0.554095 -0.038509 -0.360656 -0.931904 -0.14498 -0.434003 -0.889169 -0.675928 -0.329744 -0.659083 -0.665185 -0.380504 -0.642453 0.865115 0.259945 0.428958 0.875163 0.236811 0.421912 -0.502036 -0.58099 -0.640633 0.911865 0.410153 0.016632 0.767827 0.368304 0.524208 0.957611 0.051612 0.283404 -0.860134 -0.119785 -0.495804 0.965264 0.005968 0.26121 0.746865 0.383629 0.543159 0.857248 -0.107445 0.503568 0.771933 0.559049 0.302627 0.682324 0.16264 0.712729 0.980749 0.185622 0.060624 0.479232 0.402396 0.780009 -0.308269 -0.394966 -0.865432 -0.872413 -0.38001 -0.307389 -0.887954 -0.36019 -0.286007 -0.908651 -0.119253 -0.400165 -0.72834 -0.274685 -0.627749 -0.871716 -0.265085 -0.412117 -0.787323 -0.346453 -0.509993 0.917531 0.279124 0.283243 0.72926 0.359926 0.581922 0.993017 -0.109665 0.043482 -0.937338 0.051039 0.344663 -0.906057 -0.057683 0.419205 0.914513 0.265818 0.304971 -0.806591 0.009146 0.591039 0.71468 0.221286 -0.663525 0.841448 0.509317 0.180447 0.640108 0.424894 0.640099 -0.729757 -0.464821 0.501394 -0.944588 -0.325714 -0.040782 0.588504 0.483803 0.647764 0.460886 0.007885 0.887424 0.921395 0.269895 0.279622 -0.983519 -0.180674 0.006853 0.881471 0.416968 0.221689 0.806678 0.243941 0.538297 0.911737 0.388756 0.132685 -0.713262 -0.508643 -0.482224 -0.878066 -0.376875 -0.294897 -0.896077 -0.334726 -0.291555 0.133385 -0.359865 -0.923421 -0.522845 -0.368439 -0.768691 0.135763 0.123963 -0.982956 0.903223 0.257252 0.343524 0.81519 0.375419 0.441051 0.899883 0.277763 0.336241 -0.630741 -0.373068 -0.680431 -0.624269 -0.280421 -0.729145 -0.714759 -0.450833 -0.534667 -0.876529 -0.041698 -0.479539 -0.827559 -0.414125 -0.379006 -0.928943 -0.131718 -0.346 0.275422 -0.290302 -0.916443 0.025016 -0.419434 -0.907441 0.496237 -0.401367 -0.769839 0.865505 -0.356642 0.351722 0.870086 0.329256 0.366799 0.863646 0.297164 0.407196 0.606241 0.776487 0.171872 0.2544 0.677289 0.690334 0.363903 0.304676 0.880197 0.737807 0.551181 0.389666 0.668027 0.431416 0.606317 0.796228 0.558518 0.232547 0.524675 -0.680909 -0.510959 -0.004032 -0.758859 -0.651242 -0.91086 -0.371469 -0.179846 -0.912716 -0.365094 -0.183457 -0.974099 -0.200522 -0.104511 0.020336 -0.486497 -0.873446 0.903987 0.321813 0.281502 0.906277 0.346296 0.242366 0.948729 0.274607 0.156535 -0.857737 -0.301211 -0.416605 -0.632175 -0.57681 -0.517344 -0.843078 -0.461208 -0.276599 -0.841126 -0.454425 -0.293266 -0.431798 -0.403795 -0.806536 -0.988116 -0.152499 0.019228 -0.986295 -0.045203 0.158682 -0.953798 -0.016234 0.300011 -0.722666 -0.001794 -0.691195 -0.969428 -0.151234 0.193228 -0.9584 -0.126073 0.256078 -0.85662 -0.115943 0.502751 -0.864542 -0.473081 -0.169594 0.770403 0.245636 0.588338 0.963752 0.266328 0.015882 0.976354 -0.094033 -0.194654 0.88103 -0.072312 -0.467501 0.295357 0.407453 0.864145 0.441801 -0.692813 0.569932 0.768414 0.423125 0.480109 -0.962223 -0.001216 0.272258 -0.997558 -0.065551 -0.024098 0.936205 0.328535 0.12484 -0.815962 -0.409984 -0.407579 -0.809532 -0.379803 -0.44767 -0.659699 0.749461 0.055719 -0.565792 0.330694 -0.755328 0.726767 0.318215 0.608727 0.750686 0.310711 0.583034 0.581914 0.40025 0.707938 0.571511 0.382165 0.726172 0.837951 0.545178 -0.02488 0.851245 0.397354 0.342771 0.987766 0.080959 0.133285 0.983174 0.085811 0.161261 0.590589 -0.302221 -0.748242 0.925128 0.353142 0.13939 0.763102 0.261236 0.591126 -0.914774 -0.395651 0.081539 -0.904019 -0.425996 0.035746 -0.943081 -0.332392 -0.010697 0.673878 0.367806 -0.640787 0.89984 0.142553 -0.41227 0.875438 0.249602 -0.413892 0.210703 0.313842 0.925801 -0.291056 -0.772755 0.564035 -0.915168 -0.316622 -0.249435 -0.944647 -0.218946 -0.244346 0.79953 0.193285 0.568676 -0.891821 -0.297842 -0.340507 -0.881278 -0.338757 -0.329534 -0.936418 -0.229997 -0.264995 -0.708116 -0.321207 -0.628807 0.931686 0.345386 0.112559 -0.879694 -0.064318 0.471171 0.33134 0.424545 -0.8426 0.855734 0.298781 0.422431 0.303148 -0.920808 0.245384 0.484374 0.870077 -0.091366 0.986718 0.143998 0.075178 0.78473 0.384552 0.486126 -0.961616 -0.242261 0.128858 -0.900946 -0.056314 0.430262 0.615806 0.013777 -0.787778 0.696975 0.490583 -0.523024 -0.810063 -0.452081 -0.373392 0.97431 0.006509 -0.225116 0.984414 0.17517 0.015633 -0.924658 -0.205177 -0.320796 -0.948849 -0.088872 -0.302964 -0.918629 0.237837 0.315521 -0.031014 -0.815293 0.578217 0.747258 0.089854 0.658431 0.889538 -0.085565 0.448777 0.89285 0.071359 0.444665 0.074193 0.820283 0.567126 0.912472 0.150208 0.380567 -0.204329 -0.866616 0.455222 0.773972 0.617411 0.140611 0.986243 0.16517 0.006648 0.760893 0.646225 0.058614 -0.890202 -0.197511 -0.410524 -0.890331 -0.196222 -0.410862 -0.864952 -0.067026 -0.497359 -0.856028 -0.128045 -0.500821 -0.964394 0.052332 -0.259239 0.964949 -0.060968 0.255257 -0.858325 -0.12926 -0.496559 0.616906 0.762388 -0.195427 0.968057 -0.207173 -0.141227 0.987398 0.148125 0.055708 -0.359232 -0.700632 0.616496 0.852539 0.477599 0.212313 0.097749 0.259729 0.960722 0.525712 0.800958 -0.286518 -0.912494 -0.300865 -0.277192 -0.963784 -0.184019 -0.19302 -0.185859 -0.474832 -0.860227 -0.288546 -0.500915 -0.815981 -0.315127 -0.524198 -0.791145 -0.133684 -0.556242 -0.820197 0.917679 0.385735 -0.095252 0.96869 0.237598 0.072021 0.93444 0.339271 0.108245 0.850987 0.433822 0.296006 -0.736114 -0.639607 -0.221448 -0.965696 -0.214333 -0.146604 -0.908874 -0.141232 -0.392431 -0.951067 -0.288109 -0.111645 -0.997102 -0.034607 -0.067755 -0.989935 -0.049795 0.132471 -0.897452 0.247676 0.365016 0.931069 0.2521 0.263734 0.926065 0.289491 0.24207 0.956264 0.231349 0.17899 -0.536981 0.81247 0.227031 0.777448 0.513329 0.363412 0.628845 0.747084 0.215453 -0.302122 0.423264 -0.854149 -0.343462 -0.373416 -0.861739 -0.375547 0.269307 -0.886813 -0.626476 0.513501 -0.586383 0.797002 -0.016221 -0.603759 0.988244 0.114818 -0.100953 0.964204 0.251544 0.083879 0.993244 0.106589 -0.045873 0.313434 0.367082 0.875791 0.915455 0.234395 -0.32711 0.989259 0.068342 -0.12921 0.995341 0.090565 0.033093 -0.988792 -0.099803 0.111042 -0.967416 -0.216562 -0.131178 -0.968878 -0.223332 -0.106762 -0.968954 -0.222206 -0.108408 0.994258 0.089711 0.058342 0.92043 0.037694 -0.389086 0.327686 -0.276543 -0.903408 -0.981837 -0.078416 0.172764 -0.820151 0.013982 0.571976 -0.161459 0.841645 0.515329 -0.147208 0.940529 0.306161 0.916891 0.242928 -0.316698 0.949181 0.31322 -0.030813 0.768658 0.599244 -0.223768 0.138999 0.252957 -0.95744 -0.943913 -0.330166 0.004221 -0.970593 -0.158223 0.181422 -0.982133 -0.181741 0.048843 0.580665 0.279093 -0.764811 0.985078 -0.073551 -0.155599 0.893016 0.018199 0.449658 -0.946537 -0.297768 -0.124104 0.595084 0.776385 0.207609 -0.921682 -0.152281 0.356809 -0.999798 0.019894 0.002795 -0.985038 -0.170853 -0.022567 -0.917406 0.071335 -0.391508 -0.945091 -0.281194 -0.16653 -0.57608 -0.214051 -0.788869 -0.627787 0.158758 0.762023 0.927537 0.316208 0.199217 -0.939755 -0.1026 0.326089 -0.956007 -0.21456 0.200039 0.966073 0.234836 0.107495 -0.860803 -0.34522 0.373953 0.931453 -0.075667 0.355907 0.931898 0.008892 0.36261 -0.90971 -0.383065 0.160278 -0.995264 -0.070942 0.066455 -0.838551 -0.511129 -0.188624 -0.973043 -0.221566 0.063992 -0.934431 -0.344688 0.089608 0.799585 0.095239 0.592953 -0.895914 -0.420128 -0.144327 0.222361 0.291803 0.930272 0.018196 0.360029 0.932764 0.920342 -0.058592 0.3867 0.889049 0.130357 0.43886 0.941307 0.318024 0.113149 0.941157 0.3181 0.114175 0.941083 0.318217 0.114457 0.753979 0.602469 -0.261814 -0.817906 -0.225362 -0.529378 0.969833 0.048666 0.238865 0.951582 0.302475 -0.054782 -0.972348 -0.233513 0.003264 0.966235 0.235211 0.105195 -0.875503 -0.317788 0.364012 0.88865 0.455465 0.05342 0.94073 0.324239 0.099477 0.52747 0.697302 0.48533 0.184446 0.958333 0.218124 -0.930719 0.005854 -0.365688 -0.778244 0.580197 0.240223 0.928654 0.294445 0.225619 0.315325 0.295853 0.901688 -0.80815 0.20311 0.552848 -0.942838 -0.333071 -0.010989 -0.9854 -0.170253 0.000464 -0.734961 -0.616465 -0.282497 -0.458666 -0.594865 -0.660122 0.968921 -0.056963 0.240723 -0.788035 -0.522544 0.325498 0.783177 0.201884 0.588112 0.852924 0.23377 0.466767 0.915852 0.235929 0.324889 0.977106 0.067875 0.201634</float_array>
          <technique_common>
            <accessor source="#PoisonFeatherArrow-mesh-normals-array" count="476" stride="3">
              <param name="X" type="float"/>
              <param name="Y" type="float"/>
              <param name="Z" type="float"/>
            </accessor>
          </technique_common>
        </source>
        <source id="PoisonFeatherArrow-mesh-map-0">
          <float_array id="PoisonFeatherArrow-mesh-map-0-array" count="2856">0.397461 0.10083 0.369873 0.109131 0.387695 0.059082 0.369873 0.109131 0.397461 0.10083 0.37207 0.206543 0.387695 0.059082 0.369873 0.109131 0.34668 0.098877 0.387695 0.059082 0.34668 0.098877 0.320068 0.05957 0.369873 0.109131 0.37207 0.206543 0.344971 0.199463 0.369873 0.109131 0.344971 0.199463 0.34668 0.098877 0.344971 0.199463 0.37207 0.206543 0.371826 0.210449 0.34668 0.098877 0.344971 0.199463 0.323242 0.162354 0.323242 0.162354 0.344971 0.199463 0.331543 0.236084 0.739746 0.903809 0.828125 0.87207 0.789551 0.906982 0.828125 0.87207 0.739746 0.903809 0.813721 0.854004 0.92041 0.859863 0.862549 0.904541 0.828125 0.87207 0.92041 0.859863 0.828125 0.87207 0.893799 0.835938 0.893799 0.835938 0.828125 0.87207 0.813721 0.854004 0.893799 0.835938 0.813721 0.854004 0.831787 0.806396 0.831787 0.806396 0.813721 0.854004 0.791748 0.820068 0.893799 0.835938 0.831787 0.806396 0.88623 0.806396 0.88623 0.806396 0.831787 0.806396 0.867432 0.789551 0.867432 0.789551 0.831787 0.806396 0.845703 0.780273 0.041016 0.691162 0.01709 0.640137 0.051758 0.607666 0.041016 0.691162 0.051758 0.607666 0.098633 0.592773 0.098633 0.592773 0.051758 0.607666 0.057861 0.592041 0.057861 0.592041 0.051758 0.607666 0.019531 0.561035 0.057861 0.592041 0.019531 0.561035 0.044922 0.555908 0.057861 0.592041 0.044922 0.555908 0.056152 0.55249 0.057861 0.592041 0.056152 0.55249 0.087402 0.57959 0.057861 0.592041 0.087402 0.57959 0.098633 0.592773 0.098633 0.592773 0.087402 0.57959 0.101562 0.590332 0.101562 0.590332 0.087402 0.57959 0.099121 0.551514 0.659424 0.311279 0.669678 0.272949 0.680176 0.316406 0.680176 0.316406 0.669678 0.272949 0.722412 0.256592 0.722412 0.256592 0.669678 0.272949 0.697754 0.225342 0.697754 0.225342 0.669678 0.272949 0.643066 0.229736 0.669678 0.272949 0.659424 0.311279 0.615723 0.243652 0.669678 0.272949 0.615723 0.243652 0.643066 0.229736 0.615723 0.243652 0.659424 0.311279 0.60376 0.310547 0.643066 0.229736 0.615723 0.243652 0.61499 0.212402 0.615723 0.243652 0.60376 0.310547 0.555908 0.311035 0.61499 0.212402 0.615723 0.243652 0.557129 0.206787 0.615723 0.243652 0.555908 0.311035 0.568604 0.250732 0.615723 0.243652 0.568604 0.250732 0.557129 0.206787 0.568604 0.250732 0.555908 0.311035 0.541748 0.249756 0.568604 0.250732 0.541748 0.249756 0.557129 0.206787 0.541748 0.249756 0.555908 0.311035 0.503418 0.320801 0.557129 0.206787 0.541748 0.249756 0.509277 0.213135 0.541748 0.249756 0.503418 0.320801 0.484375 0.268799 0.541748 0.249756 0.484375 0.268799 0.509277 0.213135 0.448242 0.898193 0.425293 0.818848 0.476562 0.811523 0.448242 0.898193 0.476562 0.811523 0.594971 0.824219 0.856689 0.494873 0.829834 0.330322 0.876709 0.484131 0.829834 0.330322 0.856689 0.494873 0.809814 0.421387 0.856689 0.494873 0.876709 0.484131 0.86084 0.545166 0.856689 0.494873 0.86084 0.545166 0.809814 0.421387 0.956055 0.120361 0.944336 0.1521 0.817627 0.129639 0.956055 0.120361 0.817627 0.129639 0.839844 0.087646 0.956055 0.120361 0.839844 0.087646 0.941406 0.081787 0.817627 0.129639 0.944336 0.1521 0.768066 0.156494 0.768066 0.156494 0.944336 0.1521 0.82373 0.186279 0.82373 0.186279 0.944336 0.1521 0.892578 0.189941 0.82373 0.186279 0.892578 0.189941 0.837891 0.229248 0.892578 0.189941 0.944336 0.1521 0.956787 0.164795 0.837891 0.229248 0.892578 0.189941 0.939453 0.23291 0.892578 0.189941 0.956787 0.164795 0.944824 0.19043 0.892578 0.189941 0.944824 0.19043 0.939453 0.23291 0.244385 0.236328 0.26123 0.167236 0.274414 0.179443 0.261719 0.241211 0.274414 0.179443 0.279541 0.200439 0.274414 0.179443 0.261719 0.241211 0.250977 0.246582 0.274414 0.179443 0.250977 0.246582 0.244385 0.236328 0.250977 0.246582 0.261719 0.241211 0.242676 0.304932 0.250977 0.246582 0.242676 0.304932 0.229004 0.307373 0.229004 0.307373 0.242676 0.304932 0.222168 0.342773 0.250977 0.246582 0.229004 0.307373 0.244385 0.236328 0.240967 0.195068 0.26123 0.167236 0.244385 0.236328 0.26123 0.167236 0.240967 0.195068 0.244141 0.168457 0.244141 0.168457 0.240967 0.195068 0.229492 0.187256 0.244385 0.236328 0.229004 0.307373 0.221191 0.296387 0.221191 0.296387 0.229004 0.307373 0.205566 0.346436 0.221191 0.296387 0.205566 0.346436 0.206543 0.313477 0.244385 0.236328 0.221191 0.296387 0.235596 0.237793 0.244385 0.236328 0.235596 0.237793 0.240967 0.195068 0.221191 0.296387 0.206543 0.313477 0.214844 0.27417 0.221191 0.296387 0.214844 0.27417 0.235596 0.237793 0.240967 0.195068 0.235596 0.237793 0.230469 0.223145 0.240967 0.195068 0.230469 0.223145 0.229492 0.187256 0.230469 0.223145 0.235596 0.237793 0.214844 0.27417 0.229492 0.187256 0.230469 0.223145 0.217285 0.235352 0.217285 0.235352 0.230469 0.223145 0.214844 0.27417 0.229492 0.187256 0.217285 0.235352 0.212158 0.228271 0.197998 0.298828 0.214844 0.27417 0.206543 0.313477 0.214844 0.27417 0.197998 0.298828 0.217285 0.235352 0.217285 0.235352 0.197998 0.298828 0.212158 0.228271 0.197998 0.298828 0.206543 0.313477 0.192627 0.355225 0.212158 0.228271 0.197998 0.298828 0.192627 0.291992 0.192627 0.291992 0.197998 0.298828 0.192627 0.355225 0.000244 0.831055 0.018555 0.863281 0.00415 0.927734 0.761963 0.08252 0.71582 0.095947 0.69751 0.082764 0.71582 0.095947 0.761963 0.08252 0.720703 0.116943 0.69751 0.082764 0.71582 0.095947 0.636719 0.103027 0.636719 0.103027 0.71582 0.095947 0.720703 0.116943 0.69751 0.082764 0.636719 0.103027 0.642578 0.084229 0.642578 0.084229 0.636719 0.103027 0.623047 0.0979 0.623047 0.0979 0.636719 0.103027 0.593506 0.106201 0.593506 0.106201 0.636719 0.103027 0.623047 0.121582 0.623047 0.121582 0.636719 0.103027 0.720703 0.116943 0.623047 0.121582 0.720703 0.116943 0.66748 0.139404 0.66748 0.139404 0.720703 0.116943 0.731689 0.143066 0.731689 0.143066 0.720703 0.116943 0.773926 0.173096 0.464111 0.93042 0.500732 0.994873 0.462646 0.978271 0.500732 0.994873 0.464111 0.93042 0.493652 0.933105 0.493652 0.933105 0.464111 0.93042 0.477051 0.900635 0.493652 0.933105 0.477051 0.900635 0.501221 0.898438 0.477051 0.900635 0.464111 0.93042 0.455566 0.901611 0.455566 0.901611 0.464111 0.93042 0.449219 0.915771 0.603271 0.645264 0.654541 0.686279 0.597412 0.723389 0.597412 0.723389 0.654541 0.686279 0.6521 0.727783 0.6521 0.727783 0.654541 0.686279 0.701172 0.743408 0.701172 0.743408 0.654541 0.686279 0.705811 0.651611 0.574707 0.754395 0.562256 0.696777 0.597412 0.723389 0.597412 0.723389 0.562256 0.696777 0.603271 0.645264 0.705811 0.651611 0.654541 0.686279 0.652588 0.649902 0.652588 0.649902 0.654541 0.686279 0.603271 0.645264 0.705811 0.651611 0.652588 0.649902 0.684814 0.618652 0.705811 0.651611 0.684814 0.618652 0.719238 0.617432 0.684814 0.618652 0.652588 0.649902 0.635742 0.619873 0.635742 0.619873 0.652588 0.649902 0.603271 0.645264 0.684814 0.618652 0.635742 0.619873 0.668457 0.588623 0.668457 0.588623 0.635742 0.619873 0.655029 0.561279 0.668457 0.588623 0.655029 0.561279 0.68042 0.524902 0.655029 0.561279 0.635742 0.619873 0.609375 0.554443 0.609375 0.554443 0.635742 0.619873 0.603271 0.645264 0.609375 0.554443 0.603271 0.645264 0.567627 0.560059 0.567627 0.560059 0.603271 0.645264 0.539795 0.650146 0.539795 0.650146 0.603271 0.645264 0.562256 0.696777 0.539795 0.650146 0.562256 0.696777 0.532715 0.671875 0.539795 0.650146 0.532715 0.671875 0.508057 0.666992 0.539795 0.650146 0.508057 0.666992 0.457275 0.65625 0.638916 0.018311 0.610107 0.065674 0.560059 0.012451 0.610107 0.065674 0.638916 0.018311 0.635254 0.06543 0.635254 0.06543 0.638916 0.018311 0.65918 0.057129 0.65918 0.057129 0.638916 0.018311 0.689697 0.012695 0.65918 0.057129 0.689697 0.012695 0.695312 0.049805 0.440918 0.950928 0.456299 0.932373 0.457031 0.970215 0.307373 0.090088 0.291016 0.15625 0.204834 0.168701 0.307373 0.090088 0.204834 0.168701 0.234375 0.091797 0.234375 0.091797 0.204834 0.168701 0.199219 0.081787 0.199219 0.081787 0.204834 0.168701 0.18042 0.152832 0.18042 0.152832 0.204834 0.168701 0.151611 0.202148 0.348633 0.79541 0.371826 0.776123 0.404297 0.823486 0.348633 0.79541 0.404297 0.823486 0.359619 0.832764 0.371826 0.776123 0.348633 0.79541 0.316162 0.742676 0.371826 0.776123 0.316162 0.742676 0.30957 0.722168 0.316162 0.742676 0.348633 0.79541 0.279541 0.827637 0.30957 0.722168 0.316162 0.742676 0.258545 0.703369 0.258545 0.703369 0.316162 0.742676 0.279541 0.827637 0.258545 0.703369 0.279541 0.827637 0.222656 0.70752 0.222656 0.70752 0.279541 0.827637 0.195068 0.830811 0.873047 0.579834 0.818115 0.559082 0.793945 0.443604 0.818115 0.559082 0.873047 0.579834 0.876953 0.622803 0.818115 0.559082 0.876953 0.622803 0.845947 0.665527 0.818115 0.559082 0.845947 0.665527 0.716553 0.651855 0.403076 0.02002 0.403076 0.090576 0.388916 0.042236 0.234375 0.653809 0.210449 0.652832 0.202393 0.571777 0.210449 0.652832 0.234375 0.653809 0.196289 0.76123 0.234375 0.653809 0.202393 0.571777 0.290039 0.597656 0.234375 0.653809 0.290039 0.597656 0.306641 0.662598 0.306641 0.662598 0.290039 0.597656 0.339111 0.606934 0.339111 0.606934 0.290039 0.597656 0.323242 0.589355 0.290039 0.597656 0.202393 0.571777 0.309814 0.572266 0.290039 0.597656 0.309814 0.572266 0.323242 0.589355 0.323242 0.589355 0.309814 0.572266 0.322266 0.567383 0.309814 0.572266 0.202393 0.571777 0.249023 0.511963 0.309814 0.572266 0.249023 0.511963 0.3479 0.508789 0.3479 0.508789 0.249023 0.511963 0.2771 0.450684 0.3479 0.508789 0.2771 0.450684 0.355713 0.456055 0.2771 0.450684 0.249023 0.511963 0.226318 0.458984 0.355713 0.456055 0.2771 0.450684 0.314453 0.438232 0.2771 0.450684 0.226318 0.458984 0.218506 0.432373 0.314453 0.438232 0.2771 0.450684 0.302734 0.417969 0.302734 0.417969 0.2771 0.450684 0.218506 0.432373 0.302734 0.417969 0.218506 0.432373 0.289551 0.341064 0.289551 0.341064 0.218506 0.432373 0.200928 0.406006 0.289551 0.341064 0.200928 0.406006 0.264404 0.322266 0.264404 0.322266 0.200928 0.406006 0.193115 0.370605 0.232666 0.521729 0.17627 0.502686 0.192627 0.483643 0.17627 0.502686 0.232666 0.521729 0.158936 0.564941 0.119141 0.458984 0.17749 0.470703 0.17627 0.502686 0.119141 0.458984 0.17627 0.502686 0.120605 0.515625 0.120605 0.515625 0.17627 0.502686 0.158936 0.564941 0.120605 0.515625 0.158936 0.564941 0.071045 0.520508 0.071045 0.520508 0.158936 0.564941 0.131836 0.568604 0.131836 0.568604 0.158936 0.564941 0.203125 0.632324 0.131836 0.568604 0.203125 0.632324 0.130859 0.592529 0.131836 0.568604 0.130859 0.592529 0.082764 0.633789 0.556396 0.765137 0.594971 0.788086 0.567871 0.813232 0.567871 0.813232 0.594971 0.788086 0.647705 0.811035 0.52002 0.68335 0.54126 0.689453 0.556396 0.765137 0.52002 0.68335 0.556396 0.765137 0.526611 0.757812 0.52002 0.68335 0.526611 0.757812 0.491943 0.722656 0.526611 0.757812 0.556396 0.765137 0.532471 0.791992 0.532471 0.791992 0.556396 0.765137 0.567871 0.813232 0.526611 0.757812 0.532471 0.791992 0.494873 0.798096 0.491943 0.722656 0.526611 0.757812 0.458252 0.75708 0.458252 0.75708 0.526611 0.757812 0.494873 0.798096 0.491943 0.722656 0.458252 0.75708 0.436523 0.736084 0.458252 0.75708 0.494873 0.798096 0.435303 0.810547 0.458252 0.75708 0.435303 0.810547 0.436523 0.736084 0.436523 0.736084 0.435303 0.810547 0.409912 0.745361 1 0.83374 0.974121 0.83374 0.998047 0.729004 0.09668 0.125488 0.044434 0.156738 0.047852 0.088135 0.044434 0.156738 0.09668 0.125488 0.083008 0.182617 0.044434 0.156738 0.083008 0.182617 0.06665 0.21582 0.047852 0.088135 0.044434 0.156738 0.003906 0.159912 0.047852 0.088135 0.003906 0.159912 0 0.104492 0.047852 0.088135 0 0.104492 0.04834 0.033447 0.746338 0.320068 0.733887 0.242432 0.810059 0.250244 0.746338 0.320068 0.810059 0.250244 0.783447 0.341553 0.667969 0.195312 0.723145 0.185303 0.733887 0.242432 0.733887 0.242432 0.723145 0.185303 0.755371 0.199219 0.755371 0.199219 0.723145 0.185303 0.71875 0.147705 0.733887 0.242432 0.755371 0.199219 0.810059 0.250244 0.741943 0.15918 0.765869 0.182617 0.755371 0.199219 0.755371 0.199219 0.765869 0.182617 0.808105 0.198975 0.755371 0.199219 0.808105 0.198975 0.810059 0.250244 0.811035 0.320312 0.783447 0.341553 0.810059 0.250244 0.783447 0.341553 0.811035 0.320312 0.802979 0.344238 0.802979 0.344238 0.811035 0.320312 0.860596 0.281982 0.860596 0.281982 0.811035 0.320312 0.810059 0.250244 0.860596 0.281982 0.810059 0.250244 0.876953 0.257568 0.876953 0.257568 0.810059 0.250244 0.864014 0.235596 0.045166 0.947998 0.030029 0.861328 0.046387 0.857666 0.068359 0.996582 0.025146 0.996826 0.060303 0.950684 0.060303 0.950684 0.025146 0.996826 0.022461 0.960693 0.068359 0.996582 0.060303 0.950684 0.083252 0.964844 0.344971 0.424072 0.42334 0.457764 0.376709 0.479736 0.42334 0.457764 0.344971 0.424072 0.401367 0.404297 0.42334 0.457764 0.401367 0.404297 0.493164 0.41333 0.493164 0.41333 0.401367 0.404297 0.314209 0.374512 0.493164 0.41333 0.314209 0.374512 0.414551 0.372314 0.376709 0.479736 0.42334 0.457764 0.429443 0.474121 0.376709 0.479736 0.429443 0.474121 0.40332 0.52417 0.40332 0.52417 0.429443 0.474121 0.467529 0.498047 0.376709 0.479736 0.40332 0.52417 0.330078 0.552246 0.40332 0.52417 0.467529 0.498047 0.400635 0.571533 0.40332 0.52417 0.400635 0.571533 0.330078 0.552246 0.400635 0.571533 0.467529 0.498047 0.503174 0.547852 0.330078 0.552246 0.400635 0.571533 0.371826 0.609863 0.400635 0.571533 0.503174 0.547852 0.42749 0.602295 0.400635 0.571533 0.42749 0.602295 0.371826 0.609863 0.371826 0.609863 0.42749 0.602295 0.397949 0.619385 0.397949 0.619385 0.42749 0.602295 0.457764 0.604736 0.457764 0.604736 0.42749 0.602295 0.476318 0.591553 0.371826 0.609863 0.397949 0.619385 0.35083 0.671387 0.397949 0.619385 0.457764 0.604736 0.416016 0.709961 0.397949 0.619385 0.416016 0.709961 0.35083 0.671387 0.416016 0.709961 0.457764 0.604736 0.445312 0.724365 0.416016 0.709961 0.445312 0.724365 0.398438 0.74292 0.416016 0.709961 0.398438 0.74292 0.35083 0.671387 0.35083 0.671387 0.398438 0.74292 0.373779 0.737305 0.35083 0.671387 0.373779 0.737305 0.328613 0.729736 0.514648 0.495117 0.565186 0.435059 0.573486 0.477051 0.514648 0.495117 0.573486 0.477051 0.575439 0.493408 0.514648 0.495117 0.575439 0.493408 0.511963 0.509521 0.511963 0.509521 0.575439 0.493408 0.55249 0.570068 0.511963 0.509521 0.55249 0.570068 0.519043 0.570557 0.519043 0.570557 0.55249 0.570068 0.522461 0.624756 0.514648 0.495117 0.511963 0.509521 0.438965 0.471924 0.514648 0.495117 0.438965 0.471924 0.490967 0.438965 0.514648 0.495117 0.490967 0.438965 0.565186 0.435059 0.565186 0.435059 0.490967 0.438965 0.504883 0.400391 0.565186 0.435059 0.504883 0.400391 0.566162 0.368652 0.565186 0.435059 0.566162 0.368652 0.588135 0.381836 0.566162 0.368652 0.504883 0.400391 0.529541 0.364746 0.566162 0.368652 0.529541 0.364746 0.564453 0.325195 0.217285 0.451172 0.138672 0.427979 0.085205 0.355957 0.217285 0.451172 0.085205 0.355957 0.151855 0.371094 0.217285 0.451172 0.151855 0.371094 0.18335 0.388184 0.506836 0.951904 0.531982 0.863525 0.593994 0.832031 0.552734 0.953613 0.505859 0.965332 0.559814 0.89209 0.070801 0.861328 0.222656 0.900391 0.121826 0.911133 0.222656 0.900391 0.070801 0.861328 0.198242 0.84668 0.198242 0.84668 0.070801 0.861328 0.101074 0.802246 0.198242 0.84668 0.101074 0.802246 0.13916 0.758789 0.815918 0.741699 0.915527 0.734619 0.925293 0.784912 0.815918 0.741699 0.925293 0.784912 0.888916 0.796143 0.915527 0.734619 0.815918 0.741699 0.84668 0.706055 0.915527 0.734619 0.84668 0.706055 0.93457 0.696045 0.93457 0.696045 0.84668 0.706055 0.848877 0.690674 0.848877 0.690674 0.84668 0.706055 0.762939 0.669922 0.93457 0.696045 0.848877 0.690674 0.940674 0.673584 0.940674 0.673584 0.848877 0.690674 0.923096 0.646729 0.923096 0.646729 0.848877 0.690674 0.897949 0.633789 0.923096 0.646729 0.897949 0.633789 0.919189 0.546387 0.781006 0.549316 0.771973 0.592285 0.741943 0.489746 0.781006 0.549316 0.741943 0.489746 0.800781 0.510254 0.800781 0.510254 0.741943 0.489746 0.77417 0.469238 0.77417 0.469238 0.741943 0.489746 0.738281 0.435547 0.77417 0.469238 0.738281 0.435547 0.789062 0.389893 0.789062 0.389893 0.738281 0.435547 0.805176 0.350586 0.805176 0.350586 0.738281 0.435547 0.710205 0.40918 0.710205 0.40918 0.738281 0.435547 0.6521 0.408447 0.738281 0.435547 0.741943 0.489746 0.724854 0.4729 0.6521 0.408447 0.738281 0.435547 0.684082 0.450439 0.684082 0.450439 0.738281 0.435547 0.724854 0.4729 0.684082 0.450439 0.724854 0.4729 0.66748 0.476318 0.980713 0.008789 0.999023 0.029053 0.998779 0.087402 0.980713 0.008789 0.998779 0.087402 0.939209 0.061768 0.980713 0.008789 0.939209 0.061768 0.901367 0.007812 0.060547 0.072998 0.060547 0.00415 0.078369 0.067383 0.730957 0.658447 0.758057 0.77002 0.70752 0.786621 0.70752 0.786621 0.758057 0.77002 0.786621 0.839111 0.70752 0.786621 0.786621 0.839111 0.736816 0.858398 0.70752 0.786621 0.736816 0.858398 0.689697 0.830566 0.70752 0.786621 0.689697 0.830566 0.599609 0.843262 0.758057 0.77002 0.730957 0.658447 0.766357 0.729736 0.758057 0.77002 0.766357 0.729736 0.805176 0.744385 0.766357 0.729736 0.730957 0.658447 0.799805 0.701172 0.766357 0.729736 0.799805 0.701172 0.805176 0.744385 0.177246 0.009521 0.183594 0.052979 0.145752 0.01416 0.145752 0.01416 0.183594 0.052979 0.134521 0.068604 0.134521 0.068604 0.183594 0.052979 0.15918 0.091064 0.145752 0.01416 0.134521 0.068604 0.125488 0.020996 0.125488 0.020996 0.134521 0.068604 0.08374 0.008301 0.08374 0.008301 0.134521 0.068604 0.108154 0.077881 0.192871 0.07666 0.23877 0.030273 0.307373 0.080322 0.634766 0.868896 0.641846 0.890869 0.566406 0.881592 0.634766 0.868896 0.566406 0.881592 0.694092 0.841553 0.634766 0.868896 0.694092 0.841553 0.641846 0.890869 0.641846 0.890869 0.694092 0.841553 0.683594 0.890625 0.566406 0.881592 0.641846 0.890869 0.57959 0.961914 0.57959 0.961914 0.641846 0.890869 0.649414 0.912598 0.121582 0.41748 0.067383 0.433594 0.027588 0.385498 0.027588 0.385498 0.067383 0.433594 0.063721 0.432129 0.063721 0.432129 0.067383 0.433594 0.029541 0.462402 0.029541 0.462402 0.067383 0.433594 0.104736 0.476318 0.029541 0.462402 0.104736 0.476318 0.063477 0.518311 0.029541 0.462402 0.063477 0.518311 0.027344 0.526611 0.90625 0.948486 0.794434 0.97876 0.76416 0.945068 0.393799 0.139648 0.474854 0.163086 0.424072 0.199951 0.424072 0.199951 0.474854 0.163086 0.463867 0.223145 0.463867 0.223145 0.474854 0.163086 0.480957 0.261475 0.474854 0.163086 0.393799 0.139648 0.422607 0.125977 0.480957 0.261475 0.474854 0.163086 0.5 0.181641 0.554688 0.188965 0.52002 0.201416 0.5 0.181641 0.554688 0.188965 0.5 0.181641 0.569092 0.15332 0.5 0.181641 0.474854 0.163086 0.481934 0.148193 0.5 0.181641 0.481934 0.148193 0.569092 0.15332 0.481934 0.148193 0.474854 0.163086 0.422607 0.125977 0.569092 0.15332 0.481934 0.148193 0.54248 0.121826 0.569092 0.15332 0.54248 0.121826 0.592041 0.093018 0.54248 0.121826 0.481934 0.148193 0.548584 0.108643 0.481934 0.148193 0.422607 0.125977 0.476074 0.12793 0.476074 0.12793 0.422607 0.125977 0.404297 0.105957 0.476074 0.12793 0.404297 0.105957 0.413818 0.081543 0.002197 0.781982 0.059326 0.793701 0.007812 0.830322 0.059326 0.793701 0.002197 0.781982 0.044434 0.773438 0.059326 0.793701 0.044434 0.773438 0.087402 0.716064 0.007812 0.830322 0.059326 0.793701 0.040527 0.822266 0.040527 0.822266 0.059326 0.793701 0.077637 0.827393 0.007812 0.830322 0.040527 0.822266 0.032715 0.85498 0.032715 0.85498 0.040527 0.822266 0.077637 0.827393 0.2146 0.951172 0.239746 0.945801 0.255371 0.98999 0.255371 0.98999 0.239746 0.945801 0.273193 0.980225 0.2146 0.951172 0.238281 0.913818 0.239746 0.945801 0.02124 0.875 0.035889 0.929932 0.018311 0.956055 0.262451 0.260254 0.411621 0.268066 0.307861 0.364746 0.411621 0.268066 0.262451 0.260254 0.282227 0.226562 0.307861 0.364746 0.411621 0.268066 0.386963 0.327393 0.386963 0.327393 0.411621 0.268066 0.416016 0.30957 0.416016 0.30957 0.411621 0.268066 0.446533 0.221191 0.386963 0.327393 0.416016 0.30957 0.406006 0.364502 0.416016 0.30957 0.446533 0.221191 0.475098 0.269287 0.406006 0.364502 0.416016 0.30957 0.457275 0.375977 0.457275 0.375977 0.416016 0.30957 0.475098 0.269287 0.457275 0.375977 0.475098 0.269287 0.515625 0.37085 0.14209 0.628418 0.083252 0.68335 0.077881 0.648926 0.083252 0.68335 0.14209 0.628418 0.179199 0.685547 0.179199 0.685547 0.14209 0.628418 0.186279 0.630127 0.083252 0.68335 0.179199 0.685547 0.099854 0.73877 0.099854 0.73877 0.179199 0.685547 0.120117 0.764648 0.099854 0.73877 0.120117 0.764648 0.084717 0.797852 0.099854 0.73877 0.084717 0.797852 0.081299 0.751465 0.665039 0.902344 0.74585 0.910156 0.697754 0.959473 0.697754 0.959473 0.74585 0.910156 0.763916 0.961914 0.665039 0.902344 0.697754 0.959473 0.635742 0.944336 0.697754 0.959473 0.763916 0.961914 0.779053 0.978271 0.635742 0.944336 0.697754 0.959473 0.668701 0.981689 0.668701 0.981689 0.697754 0.959473 0.779053 0.978271 0.565674 0.930664 0.561279 0.92334 0.565918 0.909424 0.205566 0.919922 0.121582 0.945068 0.114746 0.919922 0.114746 0.919922 0.121582 0.945068 0.084229 0.953369 0.084229 0.953369 0.121582 0.945068 0.101562 0.981689 0.114746 0.919922 0.084229 0.953369 0.073242 0.873779 0.073242 0.873779 0.084229 0.953369 0.05249 0.939209 0.187256 0.078857 0.15332 0.186279 0.140381 0.118408 0.140381 0.118408 0.15332 0.186279 0.105225 0.231934 0.140381 0.118408 0.105225 0.231934 0.085938 0.211914 0.140381 0.118408 0.085938 0.211914 0.10376 0.119141 0.140381 0.118408 0.10376 0.119141 0.130859 0.088135 0.130859 0.088135 0.10376 0.119141 0.070801 0.075684 0.833984 0.322754 0.895996 0.295898 0.843506 0.352051 0.843506 0.352051 0.895996 0.295898 0.908447 0.385254 0.908447 0.385254 0.895996 0.295898 0.932617 0.374268 0.932617 0.374268 0.895996 0.295898 0.95752 0.283447 0.908447 0.385254 0.932617 0.374268 0.952637 0.461182 0.908447 0.385254 0.952637 0.461182 0.893311 0.40625 0.893311 0.40625 0.952637 0.461182 0.939209 0.47168 0.824707 0.085938 0.789551 0.052002 0.825195 0.016113 0.789551 0.052002 0.824707 0.085938 0.821289 0.106689 0.914307 0.97583 0.888184 0.984375 0.905518 0.955811 0.905518 0.955811 0.888184 0.984375 0.868896 0.96582 0.397705 0.916992 0.265869 0.963379 0.325928 0.894775 0.265869 0.963379 0.397705 0.916992 0.434326 0.956055 0.434326 0.956055 0.397705 0.916992 0.445557 0.904297 0.445557 0.904297 0.397705 0.916992 0.325928 0.894775 0.445557 0.904297 0.325928 0.894775 0.313232 0.819824 0.33374 0 0.333008 0.037842 0.250488 0.030518 0.250488 0.030518 0.333008 0.037842 0.304688 0.063721 0.33374 0 0.250488 0.030518 0.252197 0.004395 0.770996 0.027344 0.814209 0.120605 0.766357 0.149658 0.012695 0.929199 0.012695 0.969238 0 0.94043 0.071533 0.223389 0.122314 0.24707 0.047119 0.261475 0.047119 0.261475 0.122314 0.24707 0.086426 0.270264 0.047119 0.261475 0.086426 0.270264 0.095459 0.341553 0.047119 0.261475 0.095459 0.341553 0.046631 0.373535 0.095459 0.341553 0.086426 0.270264 0.116699 0.299805 0.116699 0.299805 0.086426 0.270264 0.122314 0.24707 0.095459 0.341553 0.116699 0.299805 0.137451 0.347412 0.137451 0.347412 0.116699 0.299805 0.122314 0.24707 0.137451 0.347412 0.122314 0.24707 0.141846 0.277832 0.4729 0.010254 0.537354 0.068115 0.503662 0.126709 0.4729 0.010254 0.503662 0.126709 0.450195 0.100098 0.4729 0.010254 0.450195 0.100098 0.416016 0.031738 0.537354 0.068115 0.4729 0.010254 0.536621 0.016846 0.537354 0.068115 0.536621 0.016846 0.552002 0.04834 0.552002 0.04834 0.536621 0.016846 0.55835 0.021484 0.552002 0.04834 0.55835 0.021484 0.574707 0.038818 0.537354 0.068115 0.552002 0.04834 0.569092 0.076172 0.569092 0.076172 0.552002 0.04834 0.594971 0.062256 0.594971 0.062256 0.552002 0.04834 0.563232 0.043701 0.186523 0.296631 0.180176 0.369873 0.155273 0.288086 0.186523 0.296631 0.155273 0.288086 0.180176 0.19165 0.991211 0.87207 0.931641 0.860352 1 0.838379 0.931641 0.860352 0.991211 0.87207 0.955322 0.875488 0.931641 0.860352 0.955322 0.875488 0.914307 0.897217 0.931641 0.860352 0.914307 0.897217 0.88208 0.899902 0.955322 0.875488 0.991211 0.87207 0.976318 0.907715 0.955322 0.875488 0.976318 0.907715 0.914307 0.897217 0.914307 0.897217 0.976318 0.907715 0.911621 0.952881 0.911621 0.952881 0.976318 0.907715 0.927002 0.981445 0.927002 0.981445 0.976318 0.907715 0.997314 0.968994 0.865479 0.059082 0.829834 0.081055 0.830322 0.01001 0.829834 0.081055 0.865479 0.059082 0.95166 0.075684 0.95166 0.075684 0.865479 0.059082 0.830322 0.01001 0.7146 0.009277 0.763916 0.077881 0.726318 0.065186 0.726318 0.065186 0.763916 0.077881 0.699463 0.077881 0.726318 0.065186 0.699463 0.077881 0.7146 0.009277 0.052979 0.015137 0.001221 0.087402 0.006348 0.027588 0.583252 0.969238 0.629883 0.935059 0.633789 0.981689 0.187744 0.071777 0.187744 0.006104 0.244873 0.013184 0.991211 0.732422 0.962158 0.75293 0.969238 0.711426 0.991211 0.732422 0.969238 0.711426 0.9646 0.681641 0.991211 0.732422 0.9646 0.681641 0.998779 0.700684 0.998779 0.700684 0.9646 0.681641 0.96582 0.653809 0.657227 0.487793 0.614746 0.550049 0.610596 0.393066 0.657227 0.487793 0.610596 0.393066 0.646484 0.404541 0.646484 0.404541 0.610596 0.393066 0.584473 0.354248 0.646484 0.404541 0.584473 0.354248 0.715332 0.312012 0.118408 0.968018 0.151855 0.942139 0.1521 0.973145 0.118408 0.968018 0.1521 0.973145 0.120117 1 0.120117 1 0.1521 0.973145 0.168945 0.995605 0.750244 0.042725 0.761963 0.01001 0.764648 0.066895 0.2146 0.951172 0.255371 0.98999 0.203125 0.990479 0.2146 0.951172 0.203125 0.990479 0.156494 0.940918 0.156494 0.940918 0.203125 0.990479 0.176514 0.995605 0.351318 0.054688 0.366211 0.000977 0.400391 0.009521 0.351318 0.054688 0.400391 0.009521 0.377441 0.047607</float_array>
          <technique_common>
            <accessor source="#PoisonFeatherArrow-mesh-map-0-array" count="1428" stride="2">
              <param name="S" type="float"/>
              <param name="T" type="float"/>
            </accessor>
          </technique_common>
        </source>
        <vertices id="PoisonFeatherArrow-mesh-vertices">
          <input semantic="POSITION" source="#PoisonFeatherArrow-mesh-positions"/>
        </vertices>
        <polylist material="Material_-1-material" count="6">
          <input semantic="VERTEX" source="#PoisonFeatherArrow-mesh-vertices" offset="0"/>
          <input semantic="NORMAL" source="#PoisonFeatherArrow-mesh-normals" offset="1"/>
          <input semantic="TEXCOORD" source="#PoisonFeatherArrow-mesh-map-0" offset="2" set="0"/>
          <vcount>3 3 3 3 3 3 3 3 3 3 3 3 3 3 3 3 3 3 3 3 3 3 3 3 3 3 3 3 3 3 3 3 3 3 3 3 3 3 3 3 3 3 3 3 3 3 3 3 3 3 3 3 3 3 3 3 3 3 3 3 3 3 3 3 3 3 3 3 3 3 3 3 3 3 3 3 3 3 3 3 3 3 3 3 3 3 3 3 3 3 3 3 3 3 3 3 3 3 3 3 3 3 3 3 3 3 3 3 3 3 3 3 3 3 3 3 3 3 3 3 3 3 3 3 3 3 3 3 3 3 3 3 3 3 3 3 3 3 3 3 3 3 3 3 3 3 3 3 3 3 3 3 3 3 3 3 3 3 3 3 3 3 3 3 3 3 3 3 3 3 3 3 3 3 3 3 3 3 3 3 3 3 3 3 3 3 3 3 3 3 3 3 3 3 3 3 3 3 3 3 3 3 3 3 3 3 3 3 3 3 3 3 3 3 3 3 3 3 3 3 3 3 3 3 3 3 3 3 3 3 3 3 3 3 3 3 3 3 3 3 3 3 3 3 3 3 3 3 3 3 3 3 3 3 3 3 3 3 3 3 3 3 3 3 3 3 3 3 3 3 3 3 3 3 3 3 3 3 3 3 3 3 3 3 3 3 3 3 3 3 3 3 3 3 3 3 3 3 3 3 3 3 3 3 3 3 3 3 3 3 3 3 3 3 3 3 3 3 3 3 3 3 3 3 3 3 3 3 3 3 3 3 3 3 3 3 3 3 3 3 3 3 3 3 3 3 3 3 3 3 3 3 3 3 3 3 3 3 3 3 3 3 3 3 3 3 3 3 3 3 3 3 3 3 3 3 3 3 3 3 3 3 3 3 3 3 3 3 3 3 3 3 3 3 3 3 3 3 3 3 3 3 3 3 3 3 3 3 3 3 3 3 3 3 3 3 3 3 3 3 3 3 3 3 3 3 3 3 3 3 3 3 3 3 3 3 3 3 3 3 3 3 3 3 3 3 3 3 3 3 3 3 3 3 3 3 3 3 3 3 3 3 3 3 3 3 3 3 3 3 3 3 3 3 3 3</vcount>
          <p>0 0 0 1 0 1 2 0 2 1 1 3 0 1 4 3 1 5 2 2 6 1 2 7 4 2 8 2 3 9 4 3 10 5 3 11 1 4 12 3 4 13 6 4 14 1 5 15 6 5 16 4 5 17 6 6 18 3 6 19 7 6 20 4 7 21 6 7 22 8 7 23 8 8 24 6 8 25 9 8 26 2 9 27 10 9 28 0 9 29 10 10 30 2 10 31 5 10 32 11 11 33 12 11 34 10 11 35 11 12 36 10 12 37 13 12 38 13 13 39 10 13 40 5 13 41 13 14 42 5 14 43 8 14 44 8 15 45 5 15 46 4 15 47 13 16 48 8 16 49 14 16 50 14 17 51 8 17 52 15 17 53 15 18 54 8 18 55 16 18 56 0 19 57 10 19 58 12 19 59 0 20 60 12 20 61 3 20 62 3 21 63 12 21 64 17 21 65 17 22 66 12 22 67 14 22 68 17 23 69 14 23 70 18 23 71 17 24 72 18 24 73 19 24 74 17 25 75 19 25 76 16 25 77 17 26 78 16 26 79 3 26 80 3 27 81 16 27 82 7 27 83 7 28 84 16 28 85 8 28 86 18 29 87 20 29 88 19 29 89 19 30 90 20 30 91 21 30 92 21 31 93 20 31 94 22 31 95 22 32 96 20 32 97 23 32 98 20 33 99 18 33 100 24 33 101 20 34 102 24 34 103 23 34 104 24 35 105 18 35 106 14 35 107 23 36 108 24 36 109 25 36 110 24 37 111 14 37 112 15 37 113 25 38 114 24 38 115 26 38 116 24 39 117 15 39 118 27 39 119 24 40 120 27 40 121 26 40 122 27 41 123 15 41 124 28 41 125 27 42 126 28 42 127 26 42 128 28 43 129 15 43 130 16 43 131 26 44 132 28 44 133 21 44 134 28 45 135 16 45 136 19 45 137 28 46 138 19 46 139 21 46 140 9 47 141 6 47 142 7 47 143 9 48 144 7 48 145 8 48 146 29 49 147 12 49 148 11 49 149 12 50 150 29 50 151 14 50 152 29 51 153 11 51 154 13 51 155 29 52 156 13 52 157 14 52 158 21 53 159 22 53 160 30 53 161 21 54 162 30 54 163 31 54 164 21 55 165 31 55 166 26 55 167 30 56 168 22 56 169 32 56 170 32 57 171 22 57 172 33 57 173 33 58 174 22 58 175 34 58 176 33 59 177 34 59 178 31 59 179 34 60 180 22 60 181 23 60 182 31 61 183 34 61 184 26 61 185 34 62 186 23 62 187 25 62 188 34 63 189 25 63 190 26 63 191 35 64 192 31 64 193 30 64 194 36 65 195 30 65 196 32 65 197 30 66 198 36 66 199 37 66 200 30 67 201 37 67 202 35 67 203 37 68 204 36 68 205 38 68 206 37 69 207 38 69 208 39 69 209 39 70 210 38 70 211 40 70 212 37 71 213 39 71 214 35 71 215 41 72 216 31 72 217 35 72 218 31 73 219 41 73 220 33 73 221 33 74 222 41 74 223 32 74 224 35 75 225 39 75 226 42 75 227 42 76 228 39 76 229 43 76 230 42 77 231 43 77 232 44 77 233 35 78 234 42 78 235 45 78 236 35 79 237 45 79 238 41 79 239 42 80 240 44 80 241 46 80 242 42 81 243 46 81 244 45 81 245 41 82 246 45 82 247 47 82 248 41 83 249 47 83 250 32 83 251 47 84 252 45 84 253 46 84 254 32 85 255 47 85 256 48 85 257 48 86 258 47 86 259 46 86 260 32 87 261 48 87 262 36 87 263 49 88 264 46 88 265 44 88 266 46 89 267 49 89 268 48 89 269 48 90 270 49 90 271 36 90 272 49 91 273 44 91 274 50 91 275 36 92 276 49 92 277 38 92 278 38 93 279 49 93 280 50 93 281 50 94 282 40 94 283 38 94 284 44 95 285 51 95 286 50 95 287 51 96 288 44 96 289 43 96 290 50 97 291 51 97 292 52 97 293 52 98 294 51 98 295 43 98 296 50 99 297 52 99 298 53 99 299 53 100 300 52 100 301 54 100 302 54 101 303 52 101 304 55 101 305 55 102 306 52 102 307 56 102 308 56 103 309 52 103 310 43 103 311 56 104 312 43 104 313 57 104 314 57 105 315 43 105 316 40 105 317 40 106 318 43 106 319 39 106 320 53 107 321 40 107 322 50 107 323 40 108 324 53 108 325 57 108 326 57 109 327 53 109 328 58 109 329 57 110 330 58 110 331 56 110 332 58 111 333 53 111 334 59 111 335 59 112 336 53 112 337 54 112 338 60 113 339 61 113 340 59 113 341 59 114 342 61 114 343 58 114 344 58 115 345 61 115 346 56 115 347 56 116 348 61 116 349 62 116 350 54 117 351 55 117 352 59 117 353 59 118 354 55 118 355 60 118 356 62 119 357 61 119 358 63 119 359 63 120 360 61 120 361 60 120 362 62 121 363 63 121 364 64 121 365 62 122 366 64 122 367 65 122 368 64 123 369 63 123 370 66 123 371 66 124 372 63 124 373 60 124 374 64 125 375 66 125 376 67 125 377 67 126 378 66 126 379 68 126 380 67 127 381 68 127 382 69 127 383 68 128 384 66 128 385 70 128 386 70 129 387 66 129 388 60 129 389 70 130 390 60 130 391 71 130 392 71 131 393 60 131 394 72 131 395 72 132 396 60 132 397 55 132 398 72 133 399 55 133 400 73 133 401 72 134 402 73 134 403 74 134 404 72 135 405 74 135 406 75 135 407 62 136 408 55 136 409 56 136 410 55 137 411 62 137 412 76 137 413 76 138 414 62 138 415 73 138 416 73 139 417 62 139 418 65 139 419 73 140 420 65 140 421 74 140 422 76 141 423 55 141 424 73 141 425 77 142 426 78 142 427 79 142 428 77 143 429 79 143 430 80 143 431 80 144 432 79 144 433 81 144 434 81 145 435 79 145 436 69 145 437 69 146 438 79 146 439 67 146 440 82 147 441 78 147 442 77 147 443 82 148 444 77 148 445 80 148 446 78 149 447 82 149 448 83 149 449 78 150 450 83 150 451 79 150 452 83 151 453 82 151 454 84 151 455 79 152 456 83 152 457 85 152 458 85 153 459 83 153 460 84 153 461 85 154 462 84 154 463 67 154 464 67 155 465 84 155 466 86 155 467 69 156 468 87 156 469 88 156 470 87 157 471 69 157 472 68 157 473 87 158 474 68 158 475 70 158 476 87 159 477 70 159 478 89 159 479 67 160 480 79 160 481 85 160 482 90 161 483 71 161 484 72 161 485 71 162 486 90 162 487 91 162 488 90 163 489 72 163 490 92 163 491 90 164 492 92 164 493 93 164 494 93 165 495 92 165 496 94 165 497 94 166 498 92 166 499 95 166 500 92 167 501 72 167 502 96 167 503 92 168 504 96 168 505 95 168 506 95 169 507 96 169 508 97 169 509 96 170 510 72 170 511 75 170 512 96 171 513 75 171 514 98 171 515 98 172 516 75 172 517 99 172 518 98 173 519 99 173 520 100 173 521 99 174 522 75 174 523 74 174 524 100 175 525 99 175 526 96 175 527 99 176 528 74 176 529 65 176 530 96 177 531 99 177 532 97 177 533 97 178 534 99 178 535 65 178 536 97 179 537 65 179 538 101 179 539 101 180 540 65 180 541 64 180 542 101 181 543 64 181 544 86 181 545 86 182 546 64 182 547 67 182 548 87 183 549 102 183 550 88 183 551 102 184 552 87 184 553 89 184 554 103 185 555 104 185 556 102 185 557 103 186 558 102 186 559 105 186 560 105 187 561 102 187 562 89 187 563 105 188 564 89 188 565 106 188 566 106 189 567 89 189 568 107 189 569 107 190 570 89 190 571 71 190 572 107 191 573 71 191 574 91 191 575 107 192 576 91 192 577 108 192 578 104 193 579 81 193 580 88 193 581 88 194 582 81 194 583 69 194 584 82 195 585 80 195 586 88 195 587 82 196 588 88 196 589 109 196 590 82 197 591 109 197 592 84 197 593 109 198 594 88 198 595 110 198 596 110 199 597 88 199 598 104 199 599 109 200 600 110 200 601 111 200 602 84 201 603 109 201 604 112 201 605 112 202 606 109 202 607 111 202 608 84 203 609 112 203 610 86 203 611 112 204 612 111 204 613 113 204 614 112 205 615 113 205 616 86 205 617 86 206 618 113 206 619 101 206 620 70 207 621 71 207 622 89 207 623 94 208 624 114 208 625 93 208 626 114 209 627 94 209 628 115 209 629 114 210 630 115 210 631 116 210 632 93 211 633 114 211 634 117 211 635 93 212 636 117 212 637 118 212 638 93 213 639 118 213 640 90 213 641 97 214 642 101 214 643 119 214 644 97 215 645 119 215 646 95 215 647 113 216 648 120 216 649 101 216 650 101 217 651 120 217 652 121 217 653 121 218 654 120 218 655 122 218 656 101 219 657 121 219 658 119 219 659 123 220 660 91 220 661 121 220 662 121 221 663 91 221 664 124 221 665 121 222 666 124 222 667 119 222 668 125 223 669 95 223 670 119 223 671 95 224 672 125 224 673 94 224 674 94 225 675 125 225 676 115 225 677 115 226 678 125 226 679 119 226 680 115 227 681 119 227 682 126 227 683 126 228 684 119 228 685 127 228 686 90 229 687 118 229 688 91 229 689 100 230 690 98 230 691 128 230 692 128 231 693 98 231 694 129 231 695 100 232 696 128 232 697 130 232 698 105 233 699 131 233 700 103 233 701 131 234 702 105 234 703 106 234 704 131 235 705 106 235 706 132 235 707 132 236 708 106 236 709 107 236 710 132 237 711 107 237 712 108 237 713 103 238 714 131 238 715 133 238 716 103 239 717 133 239 718 134 239 719 134 240 720 133 240 721 135 240 722 103 241 723 134 241 724 104 241 725 134 242 726 135 242 727 136 242 728 134 243 729 136 243 730 104 243 731 136 244 732 135 244 733 137 244 734 104 245 735 136 245 736 110 245 737 136 246 738 137 246 739 138 246 740 136 247 741 138 247 742 110 247 743 110 248 744 138 248 745 139 248 746 139 249 747 138 249 748 140 249 749 140 250 750 138 250 751 141 250 752 110 251 753 139 251 754 111 251 755 139 252 756 140 252 757 142 252 758 139 253 759 142 253 760 111 253 761 142 254 762 140 254 763 143 254 764 142 255 765 143 255 766 144 255 767 142 256 768 144 256 769 111 256 770 111 257 771 144 257 772 145 257 773 111 258 774 145 258 775 113 258 776 146 259 777 135 259 778 133 259 779 146 260 780 133 260 781 131 260 782 146 261 783 131 261 784 147 261 785 147 262 786 131 262 787 132 262 788 147 263 789 132 263 790 148 263 791 148 264 792 132 264 793 149 264 794 146 265 795 147 265 796 150 265 797 146 266 798 150 266 799 151 266 800 146 267 801 151 267 802 135 267 803 135 268 804 151 268 805 152 268 806 135 269 807 152 269 808 153 269 809 135 270 810 153 270 811 137 270 812 153 271 813 152 271 814 154 271 815 153 272 816 154 272 817 155 272 818 156 273 819 132 273 820 108 273 821 156 274 822 108 274 823 157 274 824 156 275 825 157 275 826 158 275 827 91 276 828 123 276 829 108 276 830 159 277 831 160 277 832 161 277 833 123 278 834 157 278 835 108 278 836 157 279 837 123 279 838 162 279 839 162 280 840 123 280 841 122 280 842 162 281 843 122 281 844 163 281 845 164 282 846 165 282 847 145 282 848 164 283 849 145 283 850 144 283 851 165 284 852 164 284 853 166 284 854 165 285 855 166 285 856 167 285 857 167 286 858 166 286 859 168 286 860 168 287 861 166 287 862 169 287 863 167 288 864 168 288 865 122 288 866 122 289 867 168 289 868 170 289 869 170 290 870 168 290 871 171 290 872 170 291 873 171 291 874 162 291 875 141 292 876 138 292 877 137 292 878 141 293 879 137 293 880 172 293 881 172 294 882 137 294 883 173 294 884 173 295 885 137 295 886 174 295 887 173 296 888 174 296 889 143 296 890 143 297 891 174 297 892 144 297 893 144 298 894 174 298 895 152 298 896 152 299 897 174 299 898 175 299 899 174 300 900 137 300 901 153 300 902 175 301 903 174 301 904 176 301 905 176 302 906 174 302 907 153 302 908 176 303 909 153 303 910 155 303 911 140 304 912 141 304 913 172 304 914 140 305 915 172 305 916 173 305 917 140 306 918 173 306 919 143 306 920 118 307 921 177 307 922 91 307 923 118 308 924 178 308 925 177 308 926 177 309 927 178 309 928 179 309 929 177 310 930 179 310 931 180 310 932 177 311 933 180 311 934 124 311 935 177 312 936 124 312 937 91 312 938 178 313 939 118 313 940 181 313 941 178 314 942 181 314 943 182 314 944 181 315 945 118 315 946 117 315 947 181 316 948 117 316 949 182 316 950 128 317 951 129 317 952 183 317 953 183 318 954 129 318 955 130 318 956 130 319 957 129 319 958 100 319 959 183 320 960 130 320 961 184 320 962 184 321 963 130 321 964 116 321 965 116 322 966 130 322 967 128 322 968 122 323 969 123 323 970 121 323 971 185 324 972 167 324 973 113 324 974 185 325 975 113 325 976 145 325 977 185 326 978 145 326 979 167 326 980 167 327 981 145 327 982 165 327 983 113 328 984 167 328 985 120 328 986 120 329 987 167 329 988 122 329 989 186 330 990 187 330 991 178 330 992 178 331 993 187 331 994 179 331 995 179 332 996 187 332 997 180 332 998 180 333 999 187 333 1000 188 333 1001 180 334 1002 188 334 1003 189 334 1004 180 335 1005 189 335 1006 190 335 1007 119 336 1008 124 336 1009 180 336 1010 178 337 1011 191 337 1012 186 337 1013 186 338 1014 191 338 1015 192 338 1016 192 339 1017 191 339 1018 193 339 1019 191 340 1020 178 340 1021 182 340 1022 193 341 1023 191 341 1024 194 341 1025 190 342 1026 195 342 1027 194 342 1028 190 343 1029 194 343 1030 180 343 1031 194 344 1032 191 344 1033 196 344 1034 194 345 1035 196 345 1036 180 345 1037 196 346 1038 191 346 1039 182 346 1040 180 347 1041 196 347 1042 127 347 1043 180 348 1044 127 348 1045 119 348 1046 127 349 1047 196 349 1048 126 349 1049 196 350 1050 182 350 1051 116 350 1052 116 351 1053 182 351 1054 117 351 1055 116 352 1056 117 352 1057 114 352 1058 188 353 1059 197 353 1060 189 353 1061 197 354 1062 188 354 1063 198 354 1064 197 355 1065 198 355 1066 187 355 1067 189 356 1068 197 356 1069 199 356 1070 199 357 1071 197 357 1072 200 357 1073 189 358 1074 199 358 1075 190 358 1076 190 359 1077 199 359 1078 200 359 1079 126 360 1080 116 360 1081 183 360 1082 183 361 1083 116 361 1084 184 361 1085 116 362 1086 115 362 1087 126 362 1088 163 363 1089 122 363 1090 170 363 1091 148 364 1092 201 364 1093 147 364 1094 201 365 1095 148 365 1096 149 365 1097 147 366 1098 201 366 1099 150 366 1100 150 367 1101 201 367 1102 202 367 1103 202 368 1104 201 368 1105 203 368 1106 150 369 1107 202 369 1108 155 369 1109 202 370 1110 203 370 1111 204 370 1112 155 371 1113 202 371 1114 176 371 1115 176 372 1116 202 372 1117 204 372 1118 176 373 1119 204 373 1120 175 373 1121 154 374 1122 150 374 1123 155 374 1124 150 375 1125 154 375 1126 175 375 1127 175 376 1128 154 376 1129 152 376 1130 150 377 1131 175 377 1132 205 377 1133 205 378 1134 175 378 1135 204 378 1136 205 379 1137 204 379 1138 203 379 1139 205 380 1140 203 380 1141 201 380 1142 151 381 1143 150 381 1144 206 381 1145 206 382 1146 150 382 1147 205 382 1148 151 383 1149 206 383 1150 152 383 1151 206 384 1152 205 384 1153 201 384 1154 152 385 1155 206 385 1156 149 385 1157 149 386 1158 206 386 1159 201 386 1160 207 387 1161 208 387 1162 209 387 1163 132 388 1164 156 388 1165 149 388 1166 149 389 1167 156 389 1168 210 389 1169 210 390 1170 156 390 1171 211 390 1172 149 391 1173 210 391 1174 152 391 1175 152 392 1176 210 392 1177 212 392 1178 144 393 1179 152 393 1180 164 393 1181 164 394 1182 152 394 1183 212 394 1184 164 395 1185 212 395 1186 213 395 1187 164 396 1188 213 396 1189 214 396 1190 164 397 1191 214 397 1192 166 397 1193 166 398 1194 214 398 1195 169 398 1196 156 399 1197 158 399 1198 211 399 1199 211 400 1200 158 400 1201 215 400 1202 215 401 1203 158 401 1204 216 401 1205 216 402 1206 158 402 1207 200 402 1208 215 403 1209 216 403 1210 197 403 1211 215 404 1212 197 404 1213 217 404 1214 217 405 1215 197 405 1216 218 405 1217 213 406 1218 219 406 1219 220 406 1220 219 407 1221 213 407 1222 211 407 1223 213 408 1224 212 408 1225 211 408 1226 211 409 1227 212 409 1228 210 409 1229 221 410 1230 214 410 1231 213 410 1232 214 411 1233 221 411 1234 222 411 1235 222 412 1236 221 412 1237 223 412 1238 223 413 1239 221 413 1240 213 413 1241 223 414 1242 213 414 1243 220 414 1244 224 415 1245 187 415 1246 218 415 1247 218 416 1248 187 416 1249 186 416 1250 224 417 1251 218 417 1252 197 417 1253 197 418 1254 187 418 1255 224 418 1256 200 419 1257 190 419 1258 225 419 1259 186 420 1260 192 420 1261 218 420 1262 218 421 1263 192 421 1264 226 421 1265 218 422 1266 226 422 1267 227 422 1268 218 423 1269 227 423 1270 217 423 1271 227 424 1272 226 424 1273 228 424 1274 228 425 1275 226 425 1276 192 425 1277 227 426 1278 228 426 1279 229 426 1280 229 427 1281 228 427 1282 192 427 1283 229 428 1284 192 428 1285 193 428 1286 219 429 1287 162 429 1288 171 429 1289 219 430 1290 171 430 1291 168 430 1292 219 431 1293 168 431 1294 220 431 1295 162 432 1296 219 432 1297 230 432 1298 162 433 1299 230 433 1300 225 433 1301 225 434 1302 230 434 1303 195 434 1304 225 435 1305 195 435 1306 190 435 1307 162 436 1308 225 436 1309 157 436 1310 157 437 1311 225 437 1312 158 437 1313 158 438 1314 225 438 1315 200 438 1316 220 439 1317 168 439 1318 231 439 1319 220 440 1320 231 440 1321 232 440 1322 195 441 1323 193 441 1324 194 441 1325 193 442 1326 195 442 1327 233 442 1328 193 443 1329 233 443 1330 234 443 1331 193 444 1332 234 444 1333 229 444 1334 233 445 1335 195 445 1336 230 445 1337 233 446 1338 230 446 1339 234 446 1340 234 447 1341 230 447 1342 235 447 1343 235 448 1344 230 448 1345 215 448 1346 215 449 1347 230 449 1348 219 449 1349 236 450 1350 200 450 1351 197 450 1352 200 451 1353 236 451 1354 216 451 1355 216 452 1356 236 452 1357 197 452 1358 170 453 1359 162 453 1360 237 453 1361 237 454 1362 162 454 1363 163 454 1364 237 455 1365 163 455 1366 170 455 1367 231 456 1368 168 456 1369 169 456 1370 214 457 1371 231 457 1372 169 457 1373 219 458 1374 211 458 1375 215 458 1376 229 459 1377 234 459 1378 235 459 1379 229 460 1380 235 460 1381 215 460 1382 229 461 1383 215 461 1384 227 461 1385 227 462 1386 215 462 1387 217 462 1388 231 463 1389 214 463 1390 222 463 1391 231 464 1392 222 464 1393 232 464 1394 232 465 1395 222 465 1396 223 465 1397 232 466 1398 223 466 1399 220 466 1400 81 467 1401 104 467 1402 102 467 1403 81 468 1404 102 468 1405 80 468 1406 80 469 1407 102 469 1408 88 469 1409 188 470 1410 187 470 1411 198 470 1412 183 471 1413 126 471 1414 196 471 1415 183 472 1416 196 472 1417 128 472 1418 128 473 1419 196 473 1420 116 473 1421 96 474 1422 98 474 1423 129 474 1424 96 475 1425 129 475 1426 100 475 1427</p>
        </polylist>
      </mesh>
    </geometry>
  </library_geometries>
  <library_visual_scenes>
    <visual_scene id="Scene" name="Scene">
      <node id="PoisonFeatherArrow" name="PoisonFeatherArrow" type="NODE">
        <scale sid="scale">1 1 1</scale>
        <translate sid="location">0 0 0</translate>
        <rotate sid="rotationX">1 0 0 -57.34152058582641</rotate>
        <rotate sid="rotationY">0 1 0 57.33275677574473</rotate>
        <rotate sid="rotationZ">0 0 1 -136.21915151688748</rotate>
        <instance_geometry url="#PoisonFeatherArrow-mesh" name="PoisonFeatherArrow">
          <bind_material>
            <technique_common>
            </technique_common>
          </bind_material>
        </instance_geometry>
      </node>
    </visual_scene>
  </library_visual_scenes>
  <scene>
    <instance_visual_scene url="#Scene"/>
  </scene>
</COLLADA>
