<?xml version="1.0" encoding="utf-8"?>
<COLLADA xmlns="http://www.collada.org/2005/11/COLLADASchema" version="1.4.1" xmlns:xsi="http://www.w3.org/2001/XMLSchema-instance">
  <asset>
    <contributor>
      <author>Blockbench user</author>
      <authoring_tool>Blockbench</authoring_tool>
    </contributor>
    <created>2025-11-14T12:11:00.278Z</created>
    <modified>2025-11-14T12:11:00.278Z</modified>
    <unit name="meter" meter="1.0"/>
    <up_axis>Y_UP</up_axis>
  </asset>
  <library_effects>
  </library_effects>
  <library_images>
  </library_images>
  <library_materials>
  </library_materials>
  <library_geometries>
    <geometry id="Pomfret-mesh" name="Pomfret">
      <mesh>
        <source id="Pomfret-mesh-positions">
          <float_array id="Pomfret-mesh-positions-array" count="747">0.003675 -0.132943 -0.553633 0.005793 -0.122689 -0.50215 -0.00547 -0.119866 -0.496718 -0.003542 -0.089241 -0.539961 -0.001053 -0.076943 -0.423353 0.005673 -0.086052 -0.530806 0.007627 -0.016594 -0.369185 -0.004078 -0.055451 -0.533705 -0.004226 0.021862 -0.383253 -0.005092 0.056116 -0.468581 0.00655 0.056235 -0.468764 0.006706 -0.051362 -0.529372 0.005849 0.015327 -0.383131 -0.006413 -0.000821 -0.346541 0.003644 -0.294228 -0.322096 0.003618 -0.303505 -0.208754 -0.001121 -0.301247 -0.325911 0.009153 -0.252236 -0.079232 -0.006331 -0.264473 -0.102476 0.001902 -0.251961 -0.267943 -0.001638 -0.279641 -0.294417 -0.001692 -0.210335 -0.173849 -0.006641 -0.239571 -0.113055 -0.035029 -0.172051 -0.171332 -0.002804 -0.148461 -0.230437 -0.06198 -0.176384 -0.091536 -0.064803 -0.122277 -0.158324 -0.002418 -0.154671 -0.296873 0.00452 -0.130654 -0.309309 0.003773 -0.188836 -0.277632 0.004242 -0.14254 -0.235029 -0.002146 -0.211373 -0.262999 0.003044 -0.212166 -0.172095 0.033811 -0.221383 -0.090472 0.038369 -0.175499 -0.164511 0.062367 -0.122735 -0.169989 0.062936 -0.177956 -0.092169 -0.002283 -0.08886 -0.317763 -0.002524 -0.038697 -0.293959 0.001461 -0.05185 -0.331496 0.003977 -0.039536 -0.29463 0.029645 -0.006978 -0.291319 0.074784 -0.055726 -0.1733 0.064424 0.033075 -0.212523 0.088754 0.034015 -0.118727 0.104386 -0.030617 -0.028464 0.093514 -0.109353 -0.04087 -0.029561 -0.014779 -0.282957 -0.012629 0.03236 -0.340529 0.001251 -0.009881 -0.31819 0.01328 0.004619 -0.341139 0.013791 0.032774 -0.340132 0.018491 0.069891 -0.351393 0.019311 0.060302 -0.330031 0.066552 0.080629 -0.197188 -0.000484 0.111114 -0.292662 0.005683 0.061205 -0.386915 0.006138 0.111904 -0.370497 -0.007045 0.085029 -0.3412 -0.013957 0.061758 -0.36479 -0.004636 0.073961 -0.385298 -0.024133 0.065182 -0.313307 -0.072104 0.034135 -0.183699 -0.038188 -0.090294 -0.231001 -0.067603 -0.051072 -0.189146 -0.092452 -0.037041 -0.096796 -0.010424 -0.24659 -0.055854 -0.042964 -0.23005 0.014208 -0.011216 -0.254067 0.029634 -0.011572 -0.248787 0.133989 0.000105 -0.255227 0.076586 -0.043788 -0.219918 0.171556 -0.07978 -0.168999 0.066614 0.018445 -0.243813 -0.050806 0.035893 -0.242806 0.022829 0.013422 -0.248818 0.132463 0.010447 -0.240487 0.207964 0.041043 -0.220711 0.189272 0.079835 -0.174706 0.074022 -0.09365 -0.120797 -0.006418 -0.106849 -0.042206 0.019327 -0.10337 0.05462 -0.006201 -0.102393 -0.084298 0.095354 -0.108718 0.043692 0.099382 -0.103293 -0.033898 0.138002 -0.171462 0.018253 0.01391 -0.164687 -0.010674 0.001535 -0.182769 0.012752 -0.009562 -0.134872 -0.037522 0.070245 -0.13864 -0.081139 0.048845 -0.141097 -0.003331 0.088014 -0.125777 -0.090615 0.061029 0.105378 -0.078866 0.047289 0.110322 0.036048 0.107836 0.104768 -0.077614 0.099062 0.105226 0.048747 -0.011687 0.191331 0.016918 -0.019762 0.169099 -0.005757 -0.002165 0.178086 0.018978 0.000589 0.148438 0.000354 0.077364 0.1326 -0.041687 0.077501 0.103662 -0.034371 0.147127 0.140168 -0.076439 0.043977 0.115853 -0.104226 0.086977 -0.004818 0.088264 -0.500319 0.006446 0.113353 -0.505904 0.004567 0.191917 -0.527418 -0.003142 0.188728 -0.525465 0.00714 0.123191 -0.432173 -0.005885 0.143577 -0.409529 -0.052939 0.09317 -0.233778 -0.020278 0.198417 -0.168577 0.046502 0.104423 -0.240401 0.005315 0.128646 -0.270735 0.025218 0.16835 -0.206755 0.002469 0.128479 -0.30403 0.004548 0.186744 -0.264662 -0.002463 0.163276 -0.288451 -0.002925 0.217155 -0.160223 -0.0026 0.212638 -0.244749 0.073487 0.146949 -0.074784 0.08706 0.100338 -0.083557 0.096574 0.1026 0.028223 0.045438 0.206352 -0.054059 0.056397 0.200584 0.024164 0.020472 0.220558 -0.124541 0.004204 0.222526 -0.149039 0.000641 0.24662 -0.539595 -0.002651 0.202415 -0.448408 0.005088 0.217689 -0.474867 0.004812 0.242729 -0.196699 0.005033 0.285636 -0.163283 -0.00303 0.265922 -0.173872 0.005111 0.331871 -0.14485 -0.002221 0.264076 -0.05891 -0.003248 0.332115 -0.145392 -0.002762 0.265052 -0.01726 0.004051 0.263679 -0.038451 0.004771 0.364677 -0.146765 0.005404 0.287605 0.012163 0.021579 0.257438 0.020845 -0.002648 0.371452 -0.153303 -0.002474 0.349967 -0.077296 -0.006337 0.291709 0.034776 -0.004401 0.358634 -0.02297 -0.000402 0.410972 -0.228224 0.00405 0.398307 -0.175116 0.002351 0.418998 -0.176749 0.005704 0.367515 -0.033203 -0.086097 0.096591 -0.080759 -0.062919 0.140785 -0.129156 -0.090446 0.11779 -0.000826 -0.069106 0.172409 -0.012156 -0.050822 0.20684 0.010973 -0.096358 0.100235 0.084062 -0.067939 0.175109 0.115251 -0.095931 0.083601 0.144426 -0.098052 -0.011353 0.201677 -0.068473 0.130035 0.217973 -0.080337 0.039807 0.241838 -0.041362 0.181343 0.220964 -0.02093 0.238273 0.170198 -0.016238 0.168808 0.296831 0.000678 0.253746 0.163316 0.001121 0.165489 0.310411 0.020183 0.179031 0.280504 0.025422 0.209159 0.227739 0.03144 0.239036 0.130022 0.073388 0.158378 0.150408 0.076447 0.169258 0.061701 0.011615 0.273948 0.066751 0.003689 0.273109 0.08217 -0.000428 0.315818 0.057131 0.00035 0.267677 0.108247 -0.018285 0.262016 0.054392 -0.030688 -0.2902 0.03277 -0.028003 -0.284432 0.070566 -0.051147 -0.29673 -0.039682 -0.008324 -0.245583 0.183199 -0.020806 -0.193581 0.310106 -0.092055 -0.114159 0.130892 -0.075316 -0.137246 0.223955 -0.117919 -0.102837 0.079942 -0.094047 -0.066475 0.179735 -0.146712 -0.031296 0.057695 0.095742 -0.114373 0.123369 0.076974 -0.13691 0.224169 0.140901 -0.041909 0.069086 0.095315 -0.065331 0.186784 0.099282 -0.015694 0.20125 0.082864 -0.130623 0.237749 0.054913 -0.173592 0.254076 0.093652 -0.076455 0.252794 0.09224 -0.013916 0.276232 0.079385 -0.121209 0.309252 0.069993 -0.086358 0.338793 0.068337 -0.153573 0.273546 0.063027 -0.128914 0.36104 0.042439 -0.153771 0.347673 0.063752 -0.170708 0.270128 0.024699 -0.194512 0.302477 0.008859 -0.175972 0.354662 0.082223 0.040779 0.242235 -0.046947 -0.179192 0.265794 -0.054545 -0.173974 0.290209 -0.082915 -0.127388 0.235368 -0.091849 -0.070763 0.252977 -0.079368 -0.125817 0.255998 -0.05931 -0.158791 0.285387 -0.070022 -0.133965 0.332445 -0.084357 -0.030564 0.310045 -0.016288 -0.138863 0.408739 0.010138 -0.126122 0.430223 -0.009085 -0.101235 0.446367 -0.046824 -0.127724 0.382677 -0.03976 -0.10859 0.395494 0.004073 -0.100396 0.427049 0.027795 -0.103661 0.430406 -0.055862 -0.10038 0.381761 -0.027965 -0.080483 0.433183 0.016547 -0.086022 0.446367 -0.014411 -0.058304 0.441332 -0.047236 -0.063759 0.39583 -0.067023 -0.085747 0.343767 -0.080871 -0.064019 0.345354 -0.073531 -0.043999 0.379228 -0.082274 -0.016617 0.345262 -0.054557 -0.000504 0.373155 -0.039516 -0.030404 0.41292 -0.014936 -0.021424 0.437792 0.020698 -0.0234 0.435625 -0.088988 0.000572 0.263109 -0.06549 0.01791 0.335771 -0.058345 0.080715 0.306627 -0.021567 0.085973 0.370683 0.010788 0.069129 0.394365 0.057214 0.068638 0.327776 0.053712 -0.009064 0.383348 0.043435 -0.031838 0.411028 0.065644 0.004024 0.350786 0.076074 -0.040925 0.376634 0.085107 -0.029419 0.313249 0.050336 -0.122048 0.383806 0.059083 -0.097634 0.381304 0.050282 -0.063591 0.385912 0.082215 -0.066842 0.346971 0.031426 -0.083428 0.419298 0.031072 -0.060868 0.433824 0.097428 0.081443 0.149843</float_array>
          <technique_common>
            <accessor source="#Pomfret-mesh-positions-array" count="249" stride="3">
              <param name="X" type="float"/>
              <param name="Y" type="float"/>
              <param name="Z" type="float"/>
            </accessor>
          </technique_common>
        </source>
        <source id="Pomfret-mesh-normals">
          <float_array id="Pomfret-mesh-normals-array" count="1482">-0.146868 -0.968927 0.199026 -0.98399 -0.121789 -0.130123 0.026453 -0.86352 0.50362 0.60674 0.32688 -0.72458 0.999035 -0.024983 -0.036124 0.863514 -0.399951 0.307217 0.999938 -0.004626 -0.010101 0.671591 0.145171 -0.726561 -0.999912 -0.012162 0.005266 -0.018725 0.503905 -0.863556 0.161723 0.4845 -0.859713 0.363638 0.027662 -0.931129 0.999972 -0.002491 0.006996 0.999336 -0.030577 0.0198 0.998642 0.04239 -0.030291 -0.999819 -0.017326 0.00792 -0.999298 0.028361 -0.024469 -0.998633 0.037729 -0.036179 -0.926958 -0.296811 0.229461 0.837589 -0.544496 -0.044375 0.995955 -0.089578 -0.007103 0.19179 -0.915323 0.354119 0.995226 0.089844 -0.038109 -0.598262 0.656141 -0.459957 -0.775492 0.485362 -0.403776 -0.949919 0.270742 -0.156056 -0.999588 0.013231 -0.025486 -0.944308 -0.327515 0.031885 -0.999499 -0.022083 -0.022693 -0.996091 0.076385 -0.044354 -0.718175 -0.602481 -0.348198 -0.642996 -0.523133 -0.559364 -0.766724 -0.572712 -0.290059 -0.849397 -0.427061 -0.310072 0.084435 -0.477298 -0.874675 0.999928 -0.011831 0.001849 -0.164222 -0.506474 -0.846472 -0.999956 -0.00783 -0.005078 -0.999899 -0.013173 0.005245 -0.994969 -0.099991 0.006231 -0.904376 -0.038428 -0.425002 0.999475 -0.026837 0.01816 0.999787 -0.020337 -0.003468 0.997253 0.06345 -0.038226 0.675527 -0.659796 -0.329139 0.65297 -0.514021 -0.556248 0.711765 -0.615839 -0.337835 0.741727 -0.393723 -0.542977 0.790402 -0.541303 -0.286802 0.854724 -0.420361 -0.304537 -0.55439 -0.250764 -0.79358 -0.999983 0.000201 -0.005829 -0.999975 -0.00149 -0.006983 -0.990783 0.054158 -0.124161 -0.521652 -0.249916 -0.815734 0.08856 0.942929 -0.321002 0.997097 0.017866 -0.074017 0.999976 0.005222 0.004578 0.597534 -0.400435 -0.694698 0.74589 -0.369804 -0.55398 0.889806 -0.185486 -0.416941 0.923998 -0.059076 -0.377805 0.967959 0.002017 -0.251102 0.98032 -0.034389 -0.194399 0.977641 -0.106418 -0.181364 0.959017 -0.188176 -0.211838 0.941792 -0.270891 -0.19911 0.349532 -0.653179 0.671702 -0.926293 -0.108127 -0.360957 -0.150259 -0.952786 -0.263859 -0.644343 -0.44097 -0.624794 -0.159446 -0.623037 -0.765769 0.640326 -0.440853 -0.628991 0.340073 -0.865224 -0.368426 0.058361 -0.801822 0.594706 0.400087 -0.854844 -0.330411 0.949623 -0.006028 -0.313338 0.926466 -0.081664 -0.367413 0.987318 -0.098394 -0.124584 0.95209 -0.028171 0.304518 0.928334 -0.051037 -0.368226 0.936584 0.068893 -0.343605 0.981631 -0.157132 -0.108214 0.949503 0.298247 0.09743 0.960395 -0.064895 -0.270981 0.942312 -0.024128 -0.333865 0.926414 0.108444 -0.36055 0.554152 0.474068 0.684233 -0.973565 -0.163789 -0.159196 -0.904708 -0.023816 -0.425366 -0.977711 -0.158138 -0.138104 -0.893205 0.422179 -0.154755 -0.965367 -0.190616 -0.178135 -0.864253 0.460947 -0.201482 -0.93461 -0.033935 -0.35405 -0.847181 0.507241 -0.158083 0.295824 0.824185 -0.482916 -0.628034 -0.388581 -0.674224 -0.706184 -0.435001 -0.55864 -0.62324 -0.393698 -0.675702 -0.810634 -0.365312 -0.457625 -0.879479 -0.197467 -0.433039 -0.882444 -0.215666 -0.418068 -0.869766 -0.224366 -0.439507 -0.961223 -0.140513 -0.237292 -0.934788 -0.026737 -0.354199 -0.966383 -0.034763 -0.254747 0.173287 -0.914363 0.365939 -0.996555 -0.042627 -0.071138 -0.769404 -0.614717 -0.173612 -0.663224 -0.736289 -0.134211 -0.577656 -0.812694 -0.076432 -0.29398 -0.954641 0.047299 -0.642965 -0.765025 0.036514 -0.617159 -0.785413 0.047343 -0.844351 -0.534948 0.030025 -0.881799 -0.465211 -0.077524 0.110217 -0.990216 -0.085586 0.04527 -0.961745 0.27018 0.226773 -0.973108 -0.040427 0.672441 -0.724911 -0.149423 0.221211 -0.972153 -0.077356 0.357128 -0.933797 0.021992 0.702362 -0.70398 0.105355 0.578722 -0.810577 0.089696 0.821689 -0.567744 0.049943 0.863401 -0.498445 -0.078047 -0.946938 -0.26815 -0.177211 -0.966309 -0.182273 -0.181726 -0.984118 -0.12351 -0.127505 -0.992414 0.003257 -0.122895 -0.987276 -0.156399 -0.028725 -0.99857 0.023176 -0.048181 -0.998264 -0.050297 0.030662 -0.997974 -0.050534 0.03866 0.791764 0.387454 -0.472216 0.907047 0.326277 -0.2661 0.92637 0.098342 -0.363549 0.907703 0.311419 -0.281236 0.754167 0.235591 -0.612967 0.836251 0.364947 -0.409265 0.878785 0.223709 -0.421534 0.768422 -0.636887 -0.062467 0.822305 -0.556192 -0.120275 0.932644 -0.349904 -0.087992 0.962967 -0.267036 -0.037245 0.988351 -0.122173 -0.090758 0.999176 -0.027025 -0.030297 0.998675 -0.049801 0.012971 0.999084 -0.001535 -0.04276 0.987653 0.022325 -0.155059 -0.771996 0.340267 -0.53688 0.721534 0.55544 0.413371 -0.900144 0.355134 -0.252233 -0.902318 0.33906 -0.266197 -0.86134 0.323213 -0.391952 -0.922645 0.144137 -0.357703 -0.901674 0.182022 -0.392241 -0.004005 -0.702531 -0.711641 -0.999929 0.011496 0.003012 0.622744 -0.425723 -0.656468 0.999914 0.008377 0.010083 0.103997 -0.26037 -0.959892 -0.144868 -0.237972 -0.960408 0.999937 0.004469 0.010321 -0.999946 -0.00759 0.007101 0.999815 -0.013437 0.013784 0.999601 -0.02767 -0.005717 0.999714 0.020581 -0.012156 -0.998364 -0.033931 -0.046023 -0.998915 -0.030248 -0.035414 -0.999838 0.017624 0.003774 -0.695938 0.560233 -0.449232 -0.71163 0.516126 -0.476652 -0.938726 0.012564 -0.344435 0.629364 0.604411 -0.488455 0.925491 0.142533 -0.350928 0.685748 0.469142 -0.556467 0.684375 0.504778 -0.526146 0.972267 -0.219026 -0.082009 0.996115 0.022062 -0.085257 -0.96215 -0.014534 -0.272134 0.736009 0.360779 -0.572825 -0.99916 -0.038938 0.012761 0.303483 0.632086 -0.712998 0.910621 0.339533 -0.235556 0.967184 0.037744 -0.251259 0.971607 0.129737 -0.197857 0.924498 0.310761 -0.220753 0.97955 0.113217 -0.166322 0.95197 0.29358 -0.086967 0.871416 0.421875 -0.250311 0.846012 0.480257 -0.231552 0.887849 0.45102 -0.09113 0.874545 0.43064 -0.222982 0.651231 0.657078 -0.379667 0.350146 0.743201 -0.570131 0.999911 0.013321 -0.001147 -0.15075 -0.225097 -0.962604 -0.997938 0.063989 -0.005007 -0.998596 0.052885 -0.003031 -0.310191 0.859803 0.405611 0.999759 0.014106 -0.01683 0.997218 0.062541 -0.040558 0.999256 0.03165 0.022026 0.714125 0.495222 0.494752 0.278762 0.641929 0.714297 -0.992588 0.100096 0.068917 -0.471 0.684347 -0.556622 -0.999992 0.00066 -0.00388 0.711062 0.541348 -0.448701 0.999886 -0.013337 0.007102 0.999904 -0.011341 0.007949 -0.426415 0.557147 -0.712571 0.53141 0.678658 -0.506978 0.999791 -0.008995 0.018332 0.301146 0.352704 -0.885952 -0.999988 -0.003182 -0.003675 -0.999975 -0.000184 0.007034 -0.615962 0.716459 -0.327533 -0.999956 -0.006278 0.006936 0.070919 0.394429 -0.916186 -0.999454 -0.030674 -0.012263 0.999954 -0.008468 0.004535 0.537527 0.790543 -0.29344 0.062926 -0.057509 -0.99636 0.999787 0.011368 0.017247 0.999598 -0.023745 -0.015496 0.769599 0.617503 -0.162502 0.78567 0.598202 -0.157728 0.558396 -0.171737 -0.811603 -0.999753 0.017895 0.013158 -0.999972 0.006261 0.004059 -0.998118 -0.033106 -0.051614 -0.999379 -0.001474 -0.035214 -0.996138 -0.085061 -0.021764 -0.999213 0.038484 -0.009655 0.91799 -0.361486 -0.16316 0.086652 -0.641037 -0.762603 0.994935 0.076555 -0.065148 -0.98428 0.174778 0.02539 -0.427133 0.847888 0.314074 -0.967912 0.133764 -0.212729 -0.980041 0.080218 -0.181891 -0.981782 0.060936 -0.179972 -0.941439 0.263883 -0.209902 -0.931588 0.335604 -0.139691 -0.853336 0.439022 -0.281206 -0.931769 0.335042 -0.139831 -0.84371 0.510292 -0.166599 -0.806662 0.558408 -0.193589 -0.843123 0.510802 -0.168001 -0.958455 0.277551 -0.065805 -0.997506 0.0322 -0.062812 -0.97811 0.206168 -0.028205 -0.935943 0.352068 0.007625 -0.970334 0.231234 0.070583 -0.943159 0.31863 0.094474 -0.977981 0.123345 0.168343 -0.933469 0.330191 0.140034 -0.95311 0.18804 0.237114 -0.872175 0.449618 0.192757 -0.859165 0.475937 0.187934 -0.745697 0.572129 0.341473 -0.421768 0.788273 0.448037 -0.232468 0.833692 0.500915 0.193436 0.841554 0.50435 0.210423 0.839823 0.500419 0.632162 0.729233 0.261896 0.846931 0.491641 0.202478 0.97145 0.220658 -0.087149 0.885677 0.454781 -0.093544 0.944008 0.321732 -0.073061 0.777191 0.620787 0.102941 0.882604 0.46859 0.037871 0.852074 0.517077 -0.081247 0.857361 0.51449 0.015247 0.852855 0.522141 -0.002673 0.878823 0.476759 0.019285 0.884837 0.411626 -0.218235 0.988103 -0.078715 -0.132119 0.761502 0.495047 0.418381 0.491907 0.818285 0.297386 -0.039568 0.773657 0.632368 -0.906915 0.289967 0.305653 0.974881 -0.034981 -0.21996 0.968268 0.18912 0.163376 0.563229 0.791581 0.237009 0.587026 0.785669 0.195257 -0.523474 0.825274 0.21189 -0.30736 0.95123 -0.026283 -0.817945 0.565505 -0.105687 -0.947746 0.252792 -0.194613 -0.864987 0.501681 0.010672 -0.882671 0.469987 -0.001875 -0.931374 0.364063 0.000816 -0.835478 0.541768 0.091993 -0.63714 0.757777 0.14081 -0.836604 0.4936 0.237598 -0.984157 0.12135 0.129267 0.995435 0.085142 0.043131 0.999474 0.03057 0.010844 0.999291 -0.02135 -0.030999 -0.279658 -0.94595 0.164227 0.713604 -0.698317 0.055875 0.726971 -0.680029 -0.095259 0.028474 -0.874533 0.484129 0.002718 -0.997895 0.064792 -0.603338 -0.79223 0.091403 0.118067 -0.986497 0.113505 -0.619883 -0.745612 0.244557 -0.21692 -0.910597 0.351795 -0.975431 0.106413 0.192899 0.920067 0.269727 -0.284119 -0.590413 0.779944 -0.207604 -0.916026 -0.392055 -0.084792 -0.969493 -0.244032 0.023059 -0.943785 -0.317811 0.090914 -0.903775 -0.413854 0.109161 -0.953679 -0.299738 0.025568 0.825949 -0.289646 -0.483645 -0.853056 -0.390351 0.346298 0.819293 -0.262262 -0.50988 0.681527 0.479762 -0.552585 -0.176355 -0.858511 -0.481517 -0.910232 -0.268236 0.315479 -0.9204 -0.187287 0.343201 -0.234206 0.7405 0.629927 -0.952581 -0.195648 0.233048 -0.875517 -0.218325 0.43105 -0.799164 -0.600068 0.035441 -0.912145 -0.202932 0.356103 -0.905018 0.123901 0.40693 -0.984911 -0.120865 0.123861 -0.995584 -0.024504 0.090621 0.938556 -0.330031 0.100961 0.89154 -0.434928 0.126471 0.966443 -0.25687 0.002523 0.973554 -0.227824 0.01698 -0.853124 -0.125389 -0.506416 -0.661389 0.063875 -0.747318 -0.826835 0.408536 -0.386577 0.995954 -0.0542 0.07168 0.90261 -0.265529 0.338807 0.940704 -0.212341 0.26455 0.664932 -0.738524 -0.111569 0.903872 -0.23164 0.359666 0.912365 -0.281343 0.297384 0.922717 -0.225754 0.312455 0.834608 -0.43301 0.340488 0.974184 -0.175362 0.142176 0.967906 -0.138475 0.209721 0.927459 -0.226883 -0.297225 0.818294 -0.567348 -0.092256 0.891952 -0.434501 0.125021 0.98113 -0.169627 -0.092793 0.995511 -0.012675 0.093795 0.977477 -0.054355 0.203922 0.947541 -0.01527 0.319268 0.949354 -0.314077 -0.009065 0.84425 -0.500286 0.192236 0.682035 -0.692045 0.236436 0.952224 -0.279396 0.123318 0.937236 -0.253236 0.239707 0.899819 -0.303322 0.313563 0.74277 -0.597768 -0.301606 0.675263 -0.659786 0.329701 0.459844 -0.882949 -0.094576 0.785674 -0.568099 0.244907 0.559346 -0.712859 0.423042 0.631232 -0.730636 0.260225 0.255229 -0.884051 0.391552 0.434942 0.663086 0.609214 0.971169 0.03934 0.235124 0.993197 -0.097798 0.063209 0.968879 0.149481 0.197303 0.969258 0.230694 0.085558 -0.88434 -0.438604 0.159903 -0.771425 -0.627434 -0.105973 -0.975553 -0.175813 0.131855 -0.972683 -0.143354 0.182588 -0.889962 -0.230371 -0.39357 -0.821518 -0.567331 -0.05695 -0.98884 -0.142042 -0.04493 -0.920822 -0.343587 0.184485 -0.961222 -0.207976 0.181104 -0.88175 -0.13299 0.452582 -0.948218 -0.313595 -0.050406 -0.874221 -0.48235 0.055467 -0.97188 -0.215068 0.095894 -0.976554 -0.093364 0.19397 -0.74901 -0.616969 0.241522 -0.512781 -0.858188 0.023834 -0.625341 -0.669876 0.400267 -0.060206 -0.913968 0.401294 -0.218501 -0.849041 0.481026 -0.045817 -0.833479 0.550648 -0.25785 -0.65807 0.70743 -0.667742 -0.458559 0.586382 -0.594912 -0.69791 0.39875 -0.651339 -0.655478 0.382238 -0.853801 -0.032821 0.519563 -0.144643 0.98792 -0.055614 0.118168 0.985311 0.123281 -0.693707 -0.206172 0.690118 -0.860905 -0.270112 0.43114 -0.320116 -0.708701 0.628704 -0.701268 -0.448629 0.554036 -0.2861 -0.671013 0.684023 -0.298783 -0.162899 0.940315 -0.883157 0.02814 0.468234 -0.792869 0.287026 0.537563 -0.960061 -0.005969 0.279726 -0.943398 0.100829 0.315963 -0.912987 -0.038585 0.406159 -0.793899 -0.478584 -0.375074 -0.735107 -0.501805 0.455861 -0.973325 -0.028367 0.22767 -0.700008 -0.522563 0.486741 -0.353927 0.279035 0.892679 -0.928602 0.025237 0.370218 -0.652889 -0.220219 0.724734 -0.812711 0.044198 0.580988 0.065736 0.096268 0.993182 -0.997072 -0.029374 0.070607 -0.1785 0.918381 -0.353149 -0.755036 0.401727 0.518205 -0.993232 0.023684 0.11371 -0.939999 0.234193 0.248103 -0.919897 0.170654 0.353083 -0.92045 0.322596 0.220687 -0.959211 0.201248 0.198526 -0.874154 0.282693 0.394892 -0.960372 0.182091 0.211016 -0.841645 0.425324 0.332767 -0.830568 0.435586 0.347019 -0.830202 0.329565 0.449612 -0.798271 0.428614 0.423148 -0.763664 0.307556 0.56765 -0.720732 0.395031 0.569645 -0.188382 0.660285 0.727005 -0.339084 0.483378 0.807073 -0.438727 0.564883 0.698874 0.078081 0.412979 0.907387 0.538839 0.583463 0.607637 0.72951 0.461054 0.505217 0.77723 0.323813 0.539499 0.845617 0.423051 0.325516 0.7354 0.371958 0.566423 0.744289 0.353118 0.56687 0.866547 0.263911 0.423613 0.955935 0.20094 0.214038 0.769433 0.443091 0.460047 0.913625 0.32178 0.248491 0.926319 0.324756 0.190961 0.932499 0.231965 0.276837 0.953498 0.001483 0.301397 0.815932 -0.23835 0.526729 0.970163 -0.033257 0.240161 0.934445 0.20187 0.293361 0.59473 -0.59773 0.537601 0.647574 -0.502346 0.572972 0.986607 0.060319 0.151551 0.852112 -0.385154 -0.354347 0.971902 -0.214213 0.097567 0.51701 -0.696098 0.498145 0.551286 -0.683003 0.479157 0.579635 -0.684663 0.441882 0.664813 -0.526936 0.529492 0.363464 -0.292931 0.884356 0.170569 0.941961 -0.289164 0.48974 -0.447733 0.748124 0.559329 -0.796063 0.23116 0.752991 -0.205724 0.625046 -0.819932 -0.311162 -0.48051 0.806792 -0.186284 0.5607 0.171682 0.358439 0.917631 0.162738 -0.002368 0.986666 0.915207 0.188385 0.35624 0.75228 0.177794 0.634401 0.921774 -0.097969 0.375147 0.948 -0.044817 0.315099 0.319285 0.024462 0.947343 0.984219 0.175411 -0.023326 0.969477 0.242614 0.035398 0.975385 0.091318 0.200711 0.961952 0.270238 0.040256 0.952339 0.29707 0.069277 0.929204 0.288655 0.230779 0.873566 0.397537 0.280795 -0.989641 0.019489 0.142234 -0.960963 0.261258 0.091071 -0.96178 0.156823 0.224468 0.960253 0.16024 0.228555</float_array>
          <technique_common>
            <accessor source="#Pomfret-mesh-normals-array" count="494" stride="3">
              <param name="X" type="float"/>
              <param name="Y" type="float"/>
              <param name="Z" type="float"/>
            </accessor>
          </technique_common>
        </source>
        <source id="Pomfret-mesh-map-0">
          <float_array id="Pomfret-mesh-map-0-array" count="2964">0.921631 0.256348 0.908936 0.282471 0.892578 0.273926 0.921631 0.256348 0.892578 0.273926 0.919434 0.235107 0.892578 0.273926 0.908936 0.282471 0.90918 0.342529 0.921631 0.256348 0.919434 0.235107 0.945068 0.259033 0.921631 0.256348 0.945068 0.259033 0.908936 0.282471 0.90918 0.342529 0.908936 0.282471 0.94043 0.395752 0.94043 0.395752 0.908936 0.282471 0.945068 0.259033 0.522461 0.133057 0.508301 0.113525 0.529053 0.128174 0.449951 0.022217 0.508789 0.027588 0.508301 0.113525 0.508301 0.113525 0.508789 0.027588 0.516113 0.027588 0.508301 0.113525 0.516113 0.027588 0.51709 0.108154 0.508301 0.113525 0.51709 0.108154 0.529053 0.128174 0.51709 0.108154 0.516113 0.027588 0.578125 0.023193 0.51709 0.108154 0.578125 0.023193 0.529053 0.128174 0.529053 0.128174 0.578125 0.023193 0.60083 0.035889 0.016357 0.078369 0.000244 0.059082 0.099121 0.052002 0.099121 0.052002 0.000244 0.059082 0 0.014648 0.099121 0.052002 0 0.014648 0.105469 0.016846 0.105469 0.016846 0 0.014648 0.044922 0.000244 0.383057 0.173828 0.306152 0.127441 0.386719 0.17041 0.306152 0.127441 0.383057 0.173828 0.212402 0.180176 0.306152 0.127441 0.212402 0.180176 0.226807 0.146729 0.212402 0.180176 0.383057 0.173828 0.344482 0.22583 0.577148 0.550293 0.585205 0.509521 0.583984 0.543701 0.583984 0.543701 0.585205 0.509521 0.605713 0.476562 0.605713 0.476562 0.585205 0.509521 0.575928 0.398682 0.585205 0.509521 0.577148 0.550293 0.452881 0.39502 0.452881 0.39502 0.577148 0.550293 0.483154 0.50415 0.585205 0.509521 0.452881 0.39502 0.493896 0.394531 0.585205 0.509521 0.493896 0.394531 0.575928 0.398682 0.575928 0.398682 0.493896 0.394531 0.566406 0.359375 0.575928 0.398682 0.566406 0.359375 0.606934 0.338379 0.566406 0.359375 0.493896 0.394531 0.496094 0.327881 0.566406 0.359375 0.496094 0.327881 0.569824 0.316406 0.404541 0.415283 0.397705 0.436523 0.385742 0.376465 0.385742 0.376465 0.397705 0.436523 0.33374 0.413574 0.404541 0.415283 0.385742 0.376465 0.391602 0.352539 0.404541 0.415283 0.391602 0.352539 0.455078 0.377197 0.455078 0.377197 0.391602 0.352539 0.456787 0.302734 0.456787 0.302734 0.391602 0.352539 0.369141 0.315186 0.369141 0.315186 0.391602 0.352539 0.385742 0.376465 0.369141 0.315186 0.385742 0.376465 0.33374 0.413574 0.369141 0.315186 0.33374 0.413574 0.275391 0.349609 0.369141 0.315186 0.275391 0.349609 0.19165 0.304443 0.19165 0.304443 0.275391 0.349609 0.194092 0.341064 0.275391 0.349609 0.33374 0.413574 0.253906 0.39624 0.275391 0.349609 0.253906 0.39624 0.194092 0.341064 0.253906 0.39624 0.33374 0.413574 0.258789 0.448486 0.194092 0.341064 0.253906 0.39624 0.183105 0.39917 0.183105 0.39917 0.253906 0.39624 0.258789 0.448486 0.099365 0.439941 0.131836 0.425781 0.119385 0.441406 0.131836 0.425781 0.099365 0.439941 0.120605 0.377197 0.131836 0.425781 0.120605 0.377197 0.163086 0.445801 0.131836 0.425781 0.163086 0.445801 0.141357 0.439209 0.131836 0.425781 0.141357 0.439209 0.119385 0.441406 0.141357 0.439209 0.163086 0.445801 0.154541 0.456055 0.141357 0.439209 0.154541 0.456055 0.119385 0.441406 0.119385 0.441406 0.154541 0.456055 0.095947 0.500977 0.095947 0.500977 0.154541 0.456055 0.184326 0.468994 0.095947 0.500977 0.184326 0.468994 0.125 0.556641 0.125 0.556641 0.184326 0.468994 0.173584 0.55249 0.173584 0.55249 0.184326 0.468994 0.227783 0.515137 0.173584 0.55249 0.227783 0.515137 0.241455 0.578369 0.173584 0.55249 0.241455 0.578369 0.201172 0.645752 0.173584 0.55249 0.201172 0.645752 0.138428 0.637939 0.173584 0.55249 0.138428 0.637939 0.125 0.556641 0.125 0.556641 0.138428 0.637939 0.0979 0.613281 0.736572 0.783936 0.742188 0.717285 0.759033 0.705566 0.807861 0.71167 0.766846 0.725586 0.759033 0.705566 0.807861 0.71167 0.759033 0.705566 0.779785 0.690186 0.807861 0.71167 0.779785 0.690186 0.811279 0.688965 0.811279 0.688965 0.779785 0.690186 0.8125 0.685059 0.8125 0.685059 0.779785 0.690186 0.794189 0.65918 0.779785 0.690186 0.759033 0.705566 0.750732 0.684082 0.750732 0.684082 0.759033 0.705566 0.742188 0.717285 0.779785 0.690186 0.750732 0.684082 0.794189 0.65918 0.794189 0.65918 0.750732 0.684082 0.73584 0.662842 0.794189 0.65918 0.73584 0.662842 0.814697 0.57959 0.750732 0.684082 0.742188 0.717285 0.704346 0.657959 0.750732 0.684082 0.704346 0.657959 0.73584 0.662842 0.814697 0.57959 0.73584 0.662842 0.720703 0.639648 0.814697 0.57959 0.720703 0.639648 0.796631 0.538574 0.720703 0.639648 0.73584 0.662842 0.704346 0.657959 0.720703 0.639648 0.704346 0.657959 0.677246 0.625244 0.704346 0.657959 0.742188 0.717285 0.710205 0.702148 0.704346 0.657959 0.710205 0.702148 0.684814 0.67041 0.704346 0.657959 0.684814 0.67041 0.658936 0.64502 0.704346 0.657959 0.658936 0.64502 0.685547 0.63916 0.849121 0.233643 0.881348 0.260986 0.857178 0.279297 0.881348 0.260986 0.849121 0.233643 0.867188 0.224365 0.849121 0.233643 0.857178 0.279297 0.831299 0.257568 0.867188 0.224365 0.849121 0.233643 0.830566 0.20752 0.849121 0.233643 0.831299 0.257568 0.804932 0.227295 0.849121 0.233643 0.804932 0.227295 0.830566 0.20752 0.804932 0.227295 0.831299 0.257568 0.690674 0.270752 0.830566 0.20752 0.804932 0.227295 0.819336 0.175293 0.830566 0.20752 0.819336 0.175293 0.849121 0.197998 0.01709 0.150879 0.043457 0.088867 0.059814 0.125977 0.059814 0.125977 0.043457 0.088867 0.07959 0.06958 0.01709 0.150879 0.059814 0.125977 0.043945 0.177246 0.059814 0.125977 0.07959 0.06958 0.102051 0.097412 0.043945 0.177246 0.059814 0.125977 0.095703 0.14209 0.095703 0.14209 0.059814 0.125977 0.102051 0.097412 0.043945 0.177246 0.095703 0.14209 0.025635 0.217773 0.095703 0.14209 0.102051 0.097412 0.150146 0.131348 0.025635 0.217773 0.095703 0.14209 0.126709 0.186523 0.126709 0.186523 0.095703 0.14209 0.150146 0.131348 0.972412 0.280273 0.972412 0.248047 0.983887 0.263916 0.983398 0.242676 0.993408 0.212158 0.999756 0.248535 0.961914 0.031006 0.961914 0.116211 0.912598 0.056885 0.10376 0.67749 0.067627 0.742188 0.078369 0.712891 0.10376 0.67749 0.078369 0.712891 0.081787 0.671875 0.048096 0.623535 0.081787 0.671875 0.062988 0.653564 0.081787 0.671875 0.048096 0.623535 0.061523 0.599121 0.081787 0.671875 0.061523 0.599121 0.10376 0.67749 0.10376 0.67749 0.061523 0.599121 0.112549 0.641602 0.10376 0.67749 0.112549 0.641602 0.167969 0.676025 0.157471 0.177246 0.182617 0.147461 0.161865 0.189209 0.157471 0.177246 0.161865 0.189209 0.14917 0.193604 0.182617 0.147461 0.157471 0.177246 0.170166 0.127686 0.170166 0.127686 0.157471 0.177246 0.143799 0.195557 0.182617 0.147461 0.170166 0.127686 0.20459 0.13623 0.20459 0.13623 0.170166 0.127686 0.236328 0.127441 0.236328 0.127441 0.170166 0.127686 0.276123 0.116699 0.276123 0.116699 0.170166 0.127686 0.260742 0.096436 0.260742 0.096436 0.170166 0.127686 0.184326 0.092773 0.184326 0.092773 0.170166 0.127686 0.109863 0.072998 0.238037 0.916748 0.254639 0.979004 0.186035 0.915527 0.186035 0.915527 0.254639 0.979004 0.180176 0.980957 0.672119 0.088623 0.695801 0.012939 0.736084 0.048584 0.672119 0.088623 0.736084 0.048584 0.752197 0.111084 0.736084 0.048584 0.695801 0.012939 0.764404 0.000488 0.752197 0.111084 0.736084 0.048584 0.808594 0.070068 0.808594 0.070068 0.736084 0.048584 0.764404 0.000488 0.808594 0.070068 0.764404 0.000488 0.804443 0.014404 0.029053 0.851807 0.005371 0.864258 0.010986 0.844971 0.005371 0.864258 0.029053 0.851807 0.030518 0.906982 0.005371 0.864258 0.030518 0.906982 0.002197 0.918945 0.030518 0.906982 0.029053 0.851807 0.053711 0.898438 0.002197 0.918945 0.030518 0.906982 0.006592 0.931396 0.030518 0.906982 0.053711 0.898438 0.066406 0.938232 0.030518 0.906982 0.066406 0.938232 0.006592 0.931396 0.999512 0.26709 0.999512 0.298096 0.982666 0.287354 0.963867 0.955078 0.930664 0.962158 0.961426 0.880615 0.892578 0.758545 0.861572 0.813232 0.797852 0.763428 0.797852 0.763428 0.861572 0.813232 0.801025 0.83252 0.801025 0.83252 0.861572 0.813232 0.854004 0.868652 0.801025 0.83252 0.854004 0.868652 0.755615 0.906006 0.801025 0.83252 0.755615 0.906006 0.764648 0.837646 0.755615 0.906006 0.854004 0.868652 0.848145 0.920654 0.848145 0.920654 0.854004 0.868652 0.893066 0.933105 0.813965 0.014893 0.842529 0.01123 0.828857 0.022461 0.813965 0.014893 0.828857 0.022461 0.865967 0.063232 0.828857 0.022461 0.842529 0.01123 0.894531 0.053955 0.828857 0.022461 0.894531 0.053955 0.865967 0.063232 0.865967 0.063232 0.894531 0.053955 0.9104 0.100098 0.894531 0.053955 0.842529 0.01123 0.900146 0.025391 0.894531 0.053955 0.900146 0.025391 0.934326 0.02832 0.082275 0.82373 0.085205 0.852295 0.075195 0.823975 0.085205 0.852295 0.082275 0.82373 0.134277 0.796387 0.075195 0.823975 0.085205 0.852295 0.073242 0.864502 0.075195 0.823975 0.073242 0.864502 0.024902 0.797363 0.073242 0.864502 0.085205 0.852295 0.071533 0.917969 0.071533 0.917969 0.085205 0.852295 0.075684 0.917236 0.944336 0.893555 0.916748 0.808594 0.963867 0.791992 0.116211 0.788574 0.016113 0.788574 0.039307 0.736816 0.758057 0.275146 0.768066 0.332275 0.692871 0.295654 0.692871 0.295654 0.768066 0.332275 0.626953 0.342773 0.692871 0.295654 0.626953 0.342773 0.566162 0.27832 0.583496 0.627686 0.611816 0.587158 0.644775 0.679443 0.583496 0.627686 0.644775 0.679443 0.645752 0.814941 0.583496 0.627686 0.645752 0.814941 0.553223 0.750244 0.688965 0.93457 0.672852 0.89209 0.703613 0.886719 0.672852 0.89209 0.688965 0.93457 0.622314 0.961914 0.688965 0.93457 0.703613 0.886719 0.7229 0.964111 0.53833 0.169922 0.570312 0.140625 0.572021 0.18457 0.572021 0.18457 0.570312 0.140625 0.599854 0.13501 0.570312 0.140625 0.53833 0.169922 0.539551 0.143311 0.570312 0.140625 0.539551 0.143311 0.564453 0.109619 0.539551 0.143311 0.53833 0.169922 0.529541 0.1604 0.539551 0.143311 0.529541 0.1604 0.50293 0.141113 0.529541 0.1604 0.53833 0.169922 0.507812 0.157715 0.529541 0.1604 0.507812 0.157715 0.50293 0.141113 0.507812 0.157715 0.53833 0.169922 0.454834 0.22583 0.50293 0.141113 0.507812 0.157715 0.488281 0.120361 0.785156 0.342529 0.87085 0.36084 0.87793 0.403809 0.854248 0.309082 0.899414 0.344482 0.87085 0.36084 0.854248 0.309082 0.87085 0.36084 0.808594 0.315674 0.808594 0.315674 0.87085 0.36084 0.785156 0.342529 0.854248 0.309082 0.808594 0.315674 0.825195 0.268066 0.808594 0.315674 0.785156 0.342529 0.773682 0.288574 0.785156 0.342529 0.87793 0.403809 0.81958 0.438232 0.785156 0.342529 0.81958 0.438232 0.743164 0.368652 0.785156 0.342529 0.743164 0.368652 0.713623 0.345703 0.743164 0.368652 0.81958 0.438232 0.765137 0.423096 0.765137 0.423096 0.81958 0.438232 0.777588 0.438477 0.777588 0.438477 0.81958 0.438232 0.839355 0.476074 0.777588 0.438477 0.839355 0.476074 0.807617 0.498047 0.328613 0.962891 0.35376 0.973877 0.326172 0.968018 0.35376 0.973877 0.328613 0.962891 0.358398 0.923096 0.358398 0.923096 0.328613 0.962891 0.325684 0.903809 0.35376 0.973877 0.358398 0.923096 0.36377 0.9375 0.036865 0.478271 0.070557 0.435059 0.060547 0.493896 0.036865 0.478271 0.060547 0.493896 0.038818 0.513428 0.070557 0.435059 0.036865 0.478271 0.052979 0.406738 0.052979 0.406738 0.036865 0.478271 0.027344 0.463135 0.052979 0.406738 0.027344 0.463135 0.041016 0.38501 0.041016 0.38501 0.027344 0.463135 0.025879 0.42749 0.013672 0.208496 0.000488 0.219482 0.00415 0.11084 0.728516 0.94458 0.817627 0.94458 0.766602 0.962891 0.972412 0.179199 0.979736 0.199463 0.974365 0.235596 0.44043 0.725098 0.372314 0.710938 0.423828 0.689941 0.44043 0.725098 0.423828 0.689941 0.465332 0.681885 0.465332 0.681885 0.423828 0.689941 0.447021 0.672363 0.447021 0.672363 0.423828 0.689941 0.383301 0.688477 0.44043 0.725098 0.465332 0.681885 0.501465 0.671631 0.501465 0.671631 0.465332 0.681885 0.447021 0.672363 0.447021 0.672363 0.383301 0.688477 0.414551 0.649414 0.447021 0.672363 0.414551 0.649414 0.457764 0.595215 0.457764 0.595215 0.414551 0.649414 0.400391 0.641846 0.447021 0.672363 0.457764 0.595215 0.502441 0.660156 0.447021 0.672363 0.502441 0.660156 0.501465 0.671631 0.502441 0.660156 0.457764 0.595215 0.470215 0.563721 0.44043 0.725098 0.501465 0.671631 0.516357 0.765625 0.44043 0.725098 0.516357 0.765625 0.446289 0.748291 0.501465 0.671631 0.502441 0.660156 0.525635 0.663086 0.501465 0.671631 0.525635 0.663086 0.516357 0.765625 0.516357 0.765625 0.525635 0.663086 0.549316 0.787109 0.446289 0.748291 0.516357 0.765625 0.528564 0.808594 0.446289 0.748291 0.528564 0.808594 0.45752 0.80249 0.525635 0.663086 0.502441 0.660156 0.532959 0.648682 0.532959 0.648682 0.502441 0.660156 0.470215 0.563721 0.532959 0.648682 0.470215 0.563721 0.53125 0.601807 0.53125 0.601807 0.470215 0.563721 0.485352 0.518555 0.53125 0.601807 0.485352 0.518555 0.55127 0.574951 0.53125 0.601807 0.55127 0.574951 0.532959 0.648682 0.532959 0.648682 0.55127 0.574951 0.562988 0.667725 0.023193 0.377686 0.056152 0.356934 0.073242 0.374023 0.073242 0.374023 0.056152 0.356934 0.082275 0.375 0.056152 0.356934 0.023193 0.377686 0.047363 0.347412 0.047363 0.347412 0.023193 0.377686 0.024658 0.249268 0.047363 0.347412 0.024658 0.249268 0.033447 0.25415 0.672119 0.257568 0.638672 0.218994 0.6875 0.158691 0.6875 0.158691 0.638672 0.218994 0.667725 0.106445 0.667725 0.106445 0.638672 0.218994 0.601318 0.15625 0.672119 0.257568 0.6875 0.158691 0.712158 0.195801 0.712158 0.195801 0.6875 0.158691 0.709717 0.110596 0.672119 0.257568 0.712158 0.195801 0.75 0.232178 0.712158 0.195801 0.709717 0.110596 0.744873 0.125244 0.75 0.232178 0.712158 0.195801 0.808594 0.173828 0.712158 0.195801 0.744873 0.125244 0.772705 0.116699 0.712158 0.195801 0.772705 0.116699 0.808594 0.173828 0.104736 0.897461 0.151855 0.884766 0.09082 0.936279 0.09082 0.936279 0.151855 0.884766 0.130127 0.919434 0.151855 0.884766 0.104736 0.897461 0.138428 0.856934 0.130127 0.919434 0.151855 0.884766 0.190674 0.900391 0.151855 0.884766 0.138428 0.856934 0.165771 0.852783 0.151855 0.884766 0.165771 0.852783 0.190674 0.900391 0.165771 0.852783 0.138428 0.856934 0.133301 0.815186 0.190674 0.900391 0.165771 0.852783 0.213135 0.8479 0.213135 0.8479 0.165771 0.852783 0.189453 0.818848 0.190674 0.900391 0.213135 0.8479 0.236084 0.868652 0.190674 0.900391 0.236084 0.868652 0.246826 0.908447 0.246826 0.908447 0.236084 0.868652 0.265381 0.860596 0.246826 0.908447 0.265381 0.860596 0.260254 0.923096 0.260254 0.923096 0.265381 0.860596 0.283936 0.861328 0.260254 0.923096 0.283936 0.861328 0.296387 0.866699 0.260254 0.923096 0.296387 0.866699 0.286377 0.893799 0.260254 0.923096 0.286377 0.893799 0.272217 0.939941 0.272217 0.939941 0.286377 0.893799 0.312012 0.936768 0.462646 0.921631 0.506348 0.921631 0.505859 0.97998 0.219482 0.26416 0.23584 0.231934 0.290527 0.273682 0.290527 0.273682 0.23584 0.231934 0.28418 0.217041 0.23584 0.231934 0.219482 0.26416 0.192383 0.174316 0.192383 0.174316 0.219482 0.26416 0.149658 0.219971 0.183594 0.292969 0.219482 0.26416 0.229736 0.297119 0.149658 0.219971 0.219482 0.26416 0.150635 0.278564 0.150635 0.278564 0.219482 0.26416 0.183594 0.292969 0.150635 0.278564 0.183594 0.292969 0.163574 0.308838 0.163574 0.308838 0.183594 0.292969 0.177734 0.323242 0.150635 0.278564 0.163574 0.308838 0.126953 0.359131 0.150635 0.278564 0.126953 0.359131 0.140381 0.273193 0.150635 0.278564 0.140381 0.273193 0.149658 0.219971 0.140381 0.273193 0.126953 0.359131 0.119141 0.349609 0.140381 0.273193 0.119141 0.349609 0.118408 0.293457 0.140381 0.273193 0.118408 0.293457 0.112549 0.277832 0.140381 0.273193 0.112549 0.277832 0.136963 0.25293 0.140381 0.273193 0.136963 0.25293 0.149658 0.219971 0.149658 0.219971 0.136963 0.25293 0.120605 0.208984 0.120605 0.208984 0.136963 0.25293 0.104492 0.204346 0.436279 0.207764 0.425293 0.226807 0.447021 0.162842 0.447021 0.162842 0.425293 0.226807 0.392578 0.153564 0.436279 0.207764 0.447021 0.162842 0.463135 0.179443 0.447021 0.162842 0.392578 0.153564 0.418457 0.0896 0.418457 0.0896 0.392578 0.153564 0.366211 0.143311 0.418457 0.0896 0.366211 0.143311 0.341309 0.111084 0.447021 0.162842 0.418457 0.0896 0.480469 0.091309 0.447021 0.162842 0.480469 0.091309 0.478027 0.137451 0.447021 0.162842 0.478027 0.137451 0.463135 0.179443 0.463135 0.179443 0.478027 0.137451 0.478516 0.175293 0.613281 0.101318 0.678223 0.000977 0.633301 0.110352 0.633301 0.110352 0.678223 0.000977 0.659424 0.09668 0.678223 0.000977 0.613281 0.101318 0.613525 0.01123 0.917969 0.422852 0.918457 0.439941 0.911865 0.390137 0.918457 0.439941 0.917969 0.422852 0.9375 0.445312 0.918457 0.439941 0.9375 0.445312 0.935059 0.471924 0.918457 0.439941 0.935059 0.471924 0.919189 0.473389 0.919189 0.473389 0.935059 0.471924 0.929443 0.494873 0.919189 0.473389 0.929443 0.494873 0.908691 0.497314 0.929443 0.494873 0.935059 0.471924 0.939941 0.505127 0.908691 0.497314 0.929443 0.494873 0.928223 0.555176 0.928223 0.555176 0.929443 0.494873 0.939941 0.505127 0.999023 0.087402 0.975098 0.029053 0.999512 0.060303 0.975098 0.029053 0.999023 0.087402 0.970459 0.057373 0.970459 0.057373 0.999023 0.087402 0.971436 0.079346 0.324707 0.868408 0.358887 0.808838 0.361816 0.911377 0.749023 0.882324 0.679932 0.874756 0.684082 0.821289 0.684082 0.821289 0.679932 0.874756 0.622314 0.825439 0.622314 0.825439 0.679932 0.874756 0.611328 0.910889 0.749023 0.882324 0.684082 0.821289 0.727051 0.820312 0.727051 0.820312 0.684082 0.821289 0.721436 0.799805 0.721436 0.799805 0.684082 0.821289 0.653809 0.755859 0.727051 0.820312 0.721436 0.799805 0.736572 0.800537 0.727051 0.820312 0.736572 0.800537 0.767822 0.827637 0.736572 0.800537 0.721436 0.799805 0.747314 0.79834 0.721436 0.799805 0.653809 0.755859 0.730713 0.739014 0.730713 0.739014 0.653809 0.755859 0.69873 0.709961 0.69873 0.709961 0.653809 0.755859 0.666748 0.724365 0.092041 0.575439 0.038574 0.574951 0.053467 0.554688 0.053467 0.554688 0.038574 0.574951 0.009033 0.575928 0.092041 0.575439 0.053467 0.554688 0.109375 0.562744 0.109375 0.562744 0.053467 0.554688 0.056885 0.521484 0.109375 0.562744 0.056885 0.521484 0.099365 0.544189 0.019287 0.707031 0.060547 0.673096 0.06543 0.715088 0.060547 0.673096 0.019287 0.707031 0.023926 0.615234 0.356445 0.094238 0.289551 0.116211 0.34668 0.037109 0.34668 0.037109 0.289551 0.116211 0.260742 0.054688 0.356445 0.094238 0.34668 0.037109 0.403076 0.07373 0.178467 0.000488 0.174561 0.030273 0.143555 0.010254 0.143555 0.010254 0.174561 0.030273 0.155762 0.03125 0.155762 0.03125 0.174561 0.030273 0.147949 0.072266 0.147949 0.072266 0.174561 0.030273 0.191406 0.078125 0.191406 0.078125 0.174561 0.030273 0.251465 0.077881 0.948242 0.153076 0.967285 0.164795 0.925537 0.180664 0.967285 0.164795 0.948242 0.153076 0.98291 0.108154 0.967285 0.164795 0.98291 0.108154 0.999756 0.095947 0.967285 0.164795 0.999756 0.095947 0.997559 0.177979 0.901855 0.740234 0.931885 0.703857 0.958984 0.783691 0.958984 0.783691 0.931885 0.703857 0.959717 0.693115 0.901855 0.740234 0.958984 0.783691 0.90625 0.773193 0.589355 0.397461 0.632812 0.39502 0.639648 0.468018 0.639648 0.468018 0.632812 0.39502 0.680664 0.368408 0.639648 0.468018 0.680664 0.368408 0.657471 0.468262 0.639648 0.468018 0.657471 0.468262 0.663818 0.513428 0.639648 0.468018 0.663818 0.513428 0.599121 0.537842 0.657471 0.468262 0.680664 0.368408 0.695557 0.434814 0.695557 0.434814 0.680664 0.368408 0.740723 0.394043 0.695557 0.434814 0.740723 0.394043 0.733643 0.489502 0.733643 0.489502 0.740723 0.394043 0.767822 0.4729 0.695557 0.434814 0.733643 0.489502 0.696777 0.504883 0.696777 0.504883 0.733643 0.489502 0.759277 0.528564 0.696777 0.504883 0.759277 0.528564 0.733398 0.554443 0.695557 0.434814 0.696777 0.504883 0.682617 0.511719 0.695557 0.434814 0.682617 0.511719 0.657471 0.468262 0.682617 0.511719 0.696777 0.504883 0.733398 0.554443 0.657471 0.468262 0.682617 0.511719 0.663818 0.513428 0.682617 0.511719 0.733398 0.554443 0.681152 0.565186 0.682617 0.511719 0.681152 0.565186 0.663818 0.513428 0.663818 0.513428 0.681152 0.565186 0.599121 0.537842 0.681152 0.565186 0.733398 0.554443 0.721191 0.586914 0.599121 0.537842 0.681152 0.565186 0.599365 0.577393 0.599365 0.577393 0.681152 0.565186 0.721191 0.586914 0.400635 0.239258 0.369873 0.213379 0.468506 0.259766 0.369873 0.213379 0.400635 0.239258 0.429443 0.296143 0.369873 0.213379 0.429443 0.296143 0.357178 0.252197 0.357178 0.252197 0.429443 0.296143 0.321045 0.295898 0.357178 0.252197 0.321045 0.295898 0.297852 0.250244 0.943359 0.557373 0.938477 0.610107 0.88916 0.611084 0.88916 0.611084 0.938477 0.610107 0.945068 0.637451 0.824463 0.581055 0.88916 0.611084 0.821289 0.606689 0.821289 0.606689 0.88916 0.611084 0.806152 0.655518 0.806152 0.655518 0.88916 0.611084 0.889404 0.626953 0.889404 0.626953 0.88916 0.611084 0.945068 0.637451 0.806152 0.655518 0.889404 0.626953 0.869873 0.669189 0.889404 0.626953 0.945068 0.637451 0.900635 0.640625 0.889404 0.626953 0.900635 0.640625 0.869873 0.669189 0.900635 0.640625 0.945068 0.637451 0.934326 0.64209 0.934326 0.64209 0.945068 0.637451 0.939941 0.683105 0.934326 0.64209 0.939941 0.683105 0.900635 0.640625 0.900635 0.640625 0.939941 0.683105 0.869873 0.669189 0.869873 0.669189 0.939941 0.683105 0.881104 0.725342 0.898193 0.373535 0.899414 0.475098 0.87793 0.443359 0.87793 0.443359 0.899414 0.475098 0.871826 0.461182 0.871826 0.461182 0.899414 0.475098 0.878662 0.552979 0.417725 0.028564 0.337402 0.00708 0.451416 0.00708 0.171143 0.449463 0.217285 0.455566 0.2771 0.501221 0.2771 0.501221 0.217285 0.455566 0.287842 0.458252 0.2771 0.501221 0.287842 0.458252 0.326172 0.457031 0.2771 0.501221 0.326172 0.457031 0.310303 0.53125 0.2771 0.501221 0.310303 0.53125 0.273926 0.62207 0.273926 0.62207 0.310303 0.53125 0.311768 0.59375 0.310303 0.53125 0.326172 0.457031 0.332275 0.516602 0.332275 0.516602 0.326172 0.457031 0.351562 0.46167 0.351562 0.46167 0.326172 0.457031 0.353271 0.443604 0.310303 0.53125 0.332275 0.516602 0.343506 0.540527 0.310303 0.53125 0.343506 0.540527 0.311768 0.59375 0.332275 0.516602 0.351562 0.46167 0.378418 0.488037 0.332275 0.516602 0.378418 0.488037 0.343506 0.540527 0.378418 0.488037 0.351562 0.46167 0.378662 0.442139 0.378418 0.488037 0.378662 0.442139 0.406006 0.473633 0.343506 0.540527 0.378418 0.488037 0.387451 0.533203 0.387451 0.533203 0.378418 0.488037 0.406006 0.473633 0.311768 0.59375 0.343506 0.540527 0.356934 0.586914 0.356934 0.586914 0.343506 0.540527 0.387451 0.533203 0.311768 0.59375 0.356934 0.586914 0.383545 0.64624 0.383545 0.64624 0.356934 0.586914 0.379883 0.601562 0.379883 0.601562 0.356934 0.586914 0.406738 0.569824 0.379883 0.601562 0.406738 0.569824 0.418945 0.610352 0.406738 0.569824 0.356934 0.586914 0.387451 0.533203 0.406738 0.569824 0.387451 0.533203 0.449219 0.55835 0.449219 0.55835 0.387451 0.533203 0.428955 0.515625 0.428955 0.515625 0.387451 0.533203 0.443359 0.477539 0.443359 0.477539 0.387451 0.533203 0.406006 0.473633 0.443359 0.477539 0.406006 0.473633 0.456543 0.446533 0.313232 0.80127 0.3396 0.793701 0.333984 0.828613 0.3396 0.793701 0.313232 0.80127 0.284668 0.789795 0.284668 0.789795 0.313232 0.80127 0.290039 0.823975 0.38916 0.80542 0.3396 0.793701 0.363037 0.760254 0.363037 0.760254 0.3396 0.793701 0.306641 0.767578 0.306641 0.767578 0.3396 0.793701 0.284668 0.789795 0.363037 0.760254 0.306641 0.767578 0.364502 0.727051 0.364502 0.727051 0.306641 0.767578 0.307861 0.717285 0.307861 0.717285 0.306641 0.767578 0.284668 0.789795 0.364502 0.727051 0.307861 0.717285 0.354248 0.659912 0.354248 0.659912 0.307861 0.717285 0.332275 0.623779 0.332275 0.623779 0.307861 0.717285 0.278809 0.652344 0.307861 0.717285 0.284668 0.789795 0.255615 0.729248 0.307861 0.717285 0.255615 0.729248 0.278809 0.652344 0.255615 0.729248 0.284668 0.789795 0.23584 0.819092 0.23584 0.819092 0.284668 0.789795 0.261963 0.819824 0.278809 0.652344 0.255615 0.729248 0.226074 0.740723 0.226074 0.740723 0.255615 0.729248 0.23584 0.819092 0.278809 0.652344 0.226074 0.740723 0.262939 0.655518 0.226074 0.740723 0.23584 0.819092 0.209717 0.8125 0.262939 0.655518 0.226074 0.740723 0.254395 0.629395 0.254395 0.629395 0.226074 0.740723 0.174561 0.712402 0.174561 0.712402 0.226074 0.740723 0.209717 0.8125 0.254395 0.629395 0.174561 0.712402 0.255127 0.585205 0.174561 0.712402 0.209717 0.8125 0.175537 0.781738 0.175537 0.781738 0.209717 0.8125 0.185303 0.806885 0.174561 0.712402 0.175537 0.781738 0.159424 0.760254 0.174561 0.712402 0.159424 0.760254 0.109863 0.692383 0.159424 0.760254 0.175537 0.781738 0.151855 0.797607 0.109863 0.692383 0.159424 0.760254 0.104492 0.739258 0.159424 0.760254 0.151855 0.797607 0.120605 0.762451 0.159424 0.760254 0.120605 0.762451 0.104492 0.739258 0.623535 0.276367 0.565186 0.260254 0.614258 0.231201 0.608887 0.193115 0.614258 0.231201 0.577393 0.198242 0.577393 0.198242 0.614258 0.231201 0.565186 0.260254 0.577393 0.198242 0.565186 0.260254 0.539062 0.187256 0.539062 0.187256 0.565186 0.260254 0.535156 0.251709 0.539062 0.187256 0.535156 0.251709 0.500488 0.218018 0.500488 0.218018 0.535156 0.251709 0.493408 0.296631 0.493408 0.296631 0.535156 0.251709 0.565186 0.260254 0.493408 0.296631 0.565186 0.260254 0.468018 0.333984 0.521729 0.903076 0.567139 0.938721 0.526855 0.933594 0.567139 0.938721 0.521729 0.903076 0.602783 0.932861 0.602783 0.932861 0.521729 0.903076 0.557617 0.831543 0.557617 0.831543 0.521729 0.903076 0.526855 0.825928 0.557617 0.831543 0.526855 0.825928 0.562256 0.795654 0.526855 0.825928 0.521729 0.903076 0.498291 0.819092 0.498291 0.819092 0.521729 0.903076 0.480469 0.855957 0.498291 0.819092 0.480469 0.855957 0.461426 0.819824 0.480469 0.855957 0.521729 0.903076 0.486328 0.910889 0.480469 0.855957 0.486328 0.910889 0.461426 0.819824 0.461426 0.819824 0.486328 0.910889 0.432129 0.847656 0.461426 0.819824 0.432129 0.847656 0.418213 0.794434 0.418213 0.794434 0.432129 0.847656 0.383789 0.840088 0.432129 0.847656 0.486328 0.910889 0.440674 0.914551 0.383789 0.840088 0.432129 0.847656 0.400146 0.881836 0.400146 0.881836 0.432129 0.847656 0.440674 0.914551 0.400146 0.881836 0.440674 0.914551 0.379395 0.919922 0.379395 0.919922 0.440674 0.914551 0.408203 0.939941 0.895508 0.207275 0.915039 0.155273 0.919678 0.226562 0.915039 0.155273 0.895508 0.207275 0.889893 0.13501 0.915039 0.155273 0.889893 0.13501 0.939941 0.109131 0.889893 0.13501 0.895508 0.207275 0.862061 0.199951 0.889893 0.13501 0.862061 0.199951 0.849609 0.147705 0.889893 0.13501 0.849609 0.147705 0.821533 0.070068 0.821533 0.070068 0.849609 0.147705 0.793457 0.127197 0.921875 0.861572 0.930176 0.923096 0.882568 0.892334 0.921875 0.861572 0.882568 0.892334 0.868652 0.859375 0.921875 0.861572 0.868652 0.859375 0.895264 0.77832 0.075195 0.356201 0.050049 0.286865 0.079346 0.211914</float_array>
          <technique_common>
            <accessor source="#Pomfret-mesh-map-0-array" count="1482" stride="2">
              <param name="S" type="float"/>
              <param name="T" type="float"/>
            </accessor>
          </technique_common>
        </source>
        <vertices id="Pomfret-mesh-vertices">
          <input semantic="POSITION" source="#Pomfret-mesh-positions"/>
        </vertices>
        <polylist material="Material_-1-material" count="6">
          <input semantic="VERTEX" source="#Pomfret-mesh-vertices" offset="0"/>
          <input semantic="NORMAL" source="#Pomfret-mesh-normals" offset="1"/>
          <input semantic="TEXCOORD" source="#Pomfret-mesh-map-0" offset="2" set="0"/>
          <vcount>3 3 3 3 3 3 3 3 3 3 3 3 3 3 3 3 3 3 3 3 3 3 3 3 3 3 3 3 3 3 3 3 3 3 3 3 3 3 3 3 3 3 3 3 3 3 3 3 3 3 3 3 3 3 3 3 3 3 3 3 3 3 3 3 3 3 3 3 3 3 3 3 3 3 3 3 3 3 3 3 3 3 3 3 3 3 3 3 3 3 3 3 3 3 3 3 3 3 3 3 3 3 3 3 3 3 3 3 3 3 3 3 3 3 3 3 3 3 3 3 3 3 3 3 3 3 3 3 3 3 3 3 3 3 3 3 3 3 3 3 3 3 3 3 3 3 3 3 3 3 3 3 3 3 3 3 3 3 3 3 3 3 3 3 3 3 3 3 3 3 3 3 3 3 3 3 3 3 3 3 3 3 3 3 3 3 3 3 3 3 3 3 3 3 3 3 3 3 3 3 3 3 3 3 3 3 3 3 3 3 3 3 3 3 3 3 3 3 3 3 3 3 3 3 3 3 3 3 3 3 3 3 3 3 3 3 3 3 3 3 3 3 3 3 3 3 3 3 3 3 3 3 3 3 3 3 3 3 3 3 3 3 3 3 3 3 3 3 3 3 3 3 3 3 3 3 3 3 3 3 3 3 3 3 3 3 3 3 3 3 3 3 3 3 3 3 3 3 3 3 3 3 3 3 3 3 3 3 3 3 3 3 3 3 3 3 3 3 3 3 3 3 3 3 3 3 3 3 3 3 3 3 3 3 3 3 3 3 3 3 3 3 3 3 3 3 3 3 3 3 3 3 3 3 3 3 3 3 3 3 3 3 3 3 3 3 3 3 3 3 3 3 3 3 3 3 3 3 3 3 3 3 3 3 3 3 3 3 3 3 3 3 3 3 3 3 3 3 3 3 3 3 3 3 3 3 3 3 3 3 3 3 3 3 3 3 3 3 3 3 3 3 3 3 3 3 3 3 3 3 3 3 3 3 3 3 3 3 3 3 3 3 3 3 3 3 3 3 3 3 3 3 3 3 3 3 3 3 3 3 3 3 3 3 3 3 3 3 3 3 3 3 3 3 3 3 3 3 3 3 3 3 3 3 3 3 3 3 3 3 3 3 3 3</vcount>
          <p>0 0 0 1 0 1 2 0 2 0 1 3 2 1 4 3 1 5 2 2 6 1 2 7 4 2 8 0 3 9 3 3 10 5 3 11 0 4 12 5 4 13 1 4 14 4 5 15 1 5 16 6 5 17 6 6 18 1 6 19 5 6 20 3 7 21 7 7 22 5 7 23 8 8 24 9 8 25 7 8 26 7 9 27 9 9 28 10 9 29 7 10 30 10 10 31 11 10 32 7 11 33 11 11 34 5 11 35 11 12 36 10 12 37 12 12 38 11 13 39 12 13 40 5 13 41 5 14 42 12 14 43 6 14 44 7 15 45 3 15 46 8 15 47 8 16 48 3 16 49 2 16 50 8 17 51 2 17 52 13 17 53 13 18 54 2 18 55 4 18 56 14 19 57 15 19 58 16 19 59 15 20 60 14 20 61 17 20 62 15 21 63 17 21 64 18 21 65 17 22 66 14 22 67 19 22 68 16 23 69 20 23 70 14 23 71 14 24 72 20 24 73 19 24 74 19 25 75 20 25 76 21 25 77 20 26 78 16 26 79 18 26 80 18 27 81 16 27 82 15 27 83 20 28 84 18 28 85 22 28 86 20 29 87 22 29 88 21 29 89 21 30 90 22 30 91 23 30 92 21 31 93 23 31 94 24 31 95 23 32 96 22 32 97 25 32 98 23 33 99 25 33 100 26 33 101 27 34 102 28 34 103 29 34 104 29 35 105 28 35 106 30 35 107 27 36 108 29 36 109 31 36 110 27 37 111 31 37 112 24 37 113 24 38 114 31 38 115 21 38 116 21 39 117 31 39 118 19 39 119 19 40 120 31 40 121 29 40 122 19 41 123 29 41 124 30 41 125 19 42 126 30 42 127 32 42 128 19 43 129 32 43 130 17 43 131 17 44 132 32 44 133 33 44 134 32 45 135 30 45 136 34 45 137 32 46 138 34 46 139 33 46 140 34 47 141 30 47 142 35 47 143 33 48 144 34 48 145 36 48 146 36 49 147 34 49 148 35 49 149 27 50 150 37 50 151 28 50 152 37 51 153 27 51 154 24 51 155 37 52 156 24 52 157 38 52 158 37 53 159 38 53 160 39 53 161 37 54 162 39 54 163 28 54 164 39 55 165 38 55 166 40 55 167 39 56 168 40 56 169 28 56 170 28 57 171 40 57 172 30 57 173 30 58 174 40 58 175 41 58 176 30 59 177 41 59 178 35 59 179 35 60 180 41 60 181 42 60 182 42 61 183 41 61 184 43 61 185 42 62 186 43 62 187 44 62 188 42 63 189 44 63 190 45 63 191 42 64 192 45 64 193 46 64 194 42 65 195 46 65 196 35 65 197 35 66 198 46 66 199 36 66 200 4 67 201 6 67 202 13 67 203 47 68 204 48 68 205 13 68 206 47 69 207 13 69 208 49 69 209 47 70 210 49 70 211 38 70 212 38 71 213 49 71 214 40 71 215 40 72 216 49 72 217 41 72 218 49 73 219 13 73 220 50 73 221 50 74 222 13 74 223 6 74 224 49 75 225 50 75 226 41 75 227 41 76 228 50 76 229 51 76 230 41 77 231 51 77 232 43 77 233 50 78 234 6 78 235 52 78 236 50 79 237 52 79 238 51 79 239 43 80 240 51 80 241 53 80 242 43 81 243 53 81 244 54 81 245 53 82 246 51 82 247 52 82 248 53 83 249 52 83 250 55 83 251 52 84 252 6 84 253 12 84 254 52 85 255 12 85 256 56 85 257 52 86 258 56 86 259 57 86 260 52 87 261 57 87 262 58 87 263 59 88 264 8 88 265 13 88 266 8 89 267 59 89 268 60 89 269 59 90 270 13 90 271 48 90 272 60 91 273 59 91 274 58 91 275 59 92 276 48 92 277 61 92 278 59 93 279 61 93 280 58 93 281 61 94 282 48 94 283 62 94 284 58 95 285 61 95 286 55 95 287 58 96 288 55 96 289 52 96 290 38 97 291 24 97 292 63 97 293 63 98 294 24 98 295 23 98 296 38 99 297 63 99 298 47 99 299 63 100 300 23 100 301 26 100 302 47 101 303 63 101 304 64 101 305 64 102 306 63 102 307 26 102 308 47 103 309 64 103 310 48 103 311 64 104 312 26 104 313 65 104 314 48 105 315 64 105 316 62 105 317 62 106 318 64 106 319 65 106 320 66 107 321 18 107 322 17 107 323 18 108 324 66 108 325 22 108 326 22 109 327 67 109 328 25 109 329 67 110 330 22 110 331 66 110 332 67 111 333 66 111 334 68 111 335 69 112 336 68 112 337 70 112 338 68 113 339 69 113 340 71 113 341 68 114 342 71 114 343 67 114 344 67 115 345 71 115 346 72 115 347 67 116 348 72 116 349 25 116 350 73 117 351 68 117 352 66 117 353 73 118 354 66 118 355 17 118 356 68 119 357 73 119 358 74 119 359 74 120 360 73 120 361 33 120 362 68 121 363 74 121 364 70 121 365 70 122 366 74 122 367 75 122 368 75 123 369 74 123 370 76 123 371 76 124 372 74 124 373 77 124 374 77 125 375 74 125 376 78 125 377 78 126 378 74 126 379 36 126 380 25 127 381 79 127 382 26 127 383 26 128 384 79 128 385 65 128 386 65 129 387 79 129 388 80 129 389 65 130 390 80 130 391 81 130 392 80 131 393 79 131 394 82 131 395 81 132 396 80 132 397 83 132 398 83 133 399 80 133 400 82 133 401 83 134 402 82 134 403 84 134 404 85 135 405 86 135 406 87 135 407 86 136 408 85 136 409 88 136 410 86 137 411 88 137 412 89 137 413 88 138 414 85 138 415 90 138 416 89 139 417 88 139 418 91 139 419 88 140 420 90 140 421 84 140 422 88 141 423 84 141 424 91 141 425 33 142 426 73 142 427 17 142 428 33 143 429 36 143 430 74 143 431 36 144 432 46 144 433 78 144 434 78 145 435 46 145 436 92 145 437 92 146 438 46 146 439 45 146 440 92 147 441 45 147 442 93 147 443 92 148 444 93 148 445 94 148 446 93 149 447 45 149 448 95 149 449 95 150 450 45 150 451 44 150 452 96 151 453 97 151 454 98 151 455 96 152 456 98 152 457 99 152 458 98 153 459 97 153 460 100 153 461 98 154 462 100 154 463 99 154 464 99 155 465 100 155 466 101 155 467 100 156 468 97 156 469 102 156 470 100 157 471 102 157 472 103 157 473 9 158 474 104 158 475 10 158 476 104 159 477 9 159 478 60 159 479 10 160 480 104 160 481 105 160 482 10 161 483 105 161 484 56 161 485 105 162 486 104 162 487 106 162 488 106 163 489 104 163 490 107 163 491 10 164 492 56 164 493 12 164 494 9 165 495 8 165 496 60 165 497 57 166 498 56 166 499 108 166 500 108 167 501 56 167 502 105 167 503 108 168 504 105 168 505 106 168 506 60 169 507 58 169 508 109 169 509 60 170 510 109 170 511 107 170 512 60 171 513 107 171 514 104 171 515 110 172 516 55 172 517 61 172 518 55 173 519 110 173 520 111 173 521 110 174 522 61 174 523 62 174 524 55 175 525 112 175 526 53 175 527 53 176 528 112 176 529 54 176 530 112 177 531 55 177 532 113 177 533 112 178 534 113 178 535 114 178 536 113 179 537 55 179 538 115 179 539 113 180 540 115 180 541 116 180 542 115 181 543 55 181 544 117 181 545 115 182 546 117 182 547 116 182 548 117 183 549 55 183 550 118 183 551 116 184 552 117 184 553 119 184 554 120 185 555 54 185 556 112 185 557 44 186 558 43 186 559 54 186 560 44 187 561 54 187 562 121 187 563 121 188 564 54 188 565 120 188 566 44 189 567 121 189 568 95 189 569 121 190 570 120 190 571 122 190 572 120 191 573 112 191 574 114 191 575 120 192 576 114 192 577 123 192 578 120 193 579 123 193 580 124 193 581 123 194 582 114 194 583 125 194 584 125 195 585 114 195 586 126 195 587 126 196 588 114 196 589 113 196 590 126 197 591 113 197 592 116 197 593 107 198 594 127 198 595 106 198 596 127 199 597 107 199 598 128 199 599 128 200 600 107 200 601 109 200 602 127 201 603 128 201 604 129 201 605 129 202 606 108 202 607 106 202 608 129 203 609 106 203 610 127 203 611 108 204 612 129 204 613 57 204 614 57 205 615 129 205 616 128 205 617 57 206 618 128 206 619 58 206 620 58 207 621 128 207 622 109 207 623 111 208 624 118 208 625 55 208 626 117 209 627 118 209 628 119 209 629 116 210 630 119 210 631 130 210 632 126 211 633 116 211 634 130 211 635 126 212 636 130 212 637 131 212 638 131 213 639 130 213 640 132 213 641 132 214 642 130 214 643 119 214 644 126 215 645 131 215 646 133 215 647 133 216 648 131 216 649 132 216 650 132 217 651 119 217 652 118 217 653 132 218 654 118 218 655 134 218 656 134 219 657 118 219 658 111 219 659 132 220 660 134 220 661 135 220 662 132 221 663 135 221 664 133 221 665 135 222 666 134 222 667 136 222 668 126 223 669 133 223 670 137 223 671 126 224 672 137 224 673 125 224 674 133 225 675 135 225 676 138 225 677 133 226 678 138 226 679 137 226 680 137 227 681 138 227 682 139 227 683 125 228 684 137 228 685 140 228 686 125 229 687 140 229 688 123 229 689 138 230 690 135 230 691 141 230 692 141 231 693 135 231 694 136 231 695 141 232 696 136 232 697 142 232 698 142 233 699 136 233 700 143 233 701 142 234 702 143 234 703 144 234 704 142 235 705 144 235 706 141 235 707 141 236 708 144 236 709 145 236 710 145 237 711 146 237 712 141 237 713 141 238 714 146 238 715 138 238 716 146 239 717 145 239 718 147 239 719 147 240 720 145 240 721 144 240 722 147 241 723 144 241 724 148 241 725 110 242 726 62 242 727 149 242 728 149 243 729 62 243 730 81 243 731 81 244 732 62 244 733 65 244 734 110 245 735 149 245 736 150 245 737 150 246 738 149 246 739 151 246 740 110 247 741 150 247 742 111 247 743 150 248 744 151 248 745 152 248 746 111 249 747 150 249 748 134 249 749 150 250 750 152 250 751 153 250 752 150 251 753 153 251 754 134 251 755 81 252 756 154 252 757 149 252 758 149 253 759 154 253 760 151 253 761 154 254 762 81 254 763 83 254 764 151 255 765 154 255 766 155 255 767 154 256 768 83 256 769 156 256 770 154 257 771 156 257 772 155 257 773 156 258 774 83 258 775 157 258 776 155 259 777 156 259 778 158 259 779 158 260 780 156 260 781 159 260 782 155 261 783 158 261 784 160 261 785 155 262 786 160 262 787 161 262 788 161 263 789 160 263 790 162 263 791 161 264 792 162 264 793 163 264 794 163 265 795 162 265 796 164 265 797 163 266 798 164 266 799 165 266 800 163 267 801 165 267 802 166 267 803 163 268 804 166 268 805 167 268 806 167 269 807 166 269 808 168 269 809 122 270 810 95 270 811 121 270 812 124 271 813 169 271 814 120 271 815 120 272 816 169 272 817 122 272 818 169 273 819 124 273 820 168 273 821 168 274 822 124 274 823 167 274 824 140 275 825 124 275 826 123 275 827 167 276 828 124 276 829 170 276 830 170 277 831 124 277 832 140 277 833 170 278 834 140 278 835 139 278 836 139 279 837 140 279 838 137 279 839 170 280 840 139 280 841 148 280 842 170 281 843 148 281 844 171 281 845 170 282 846 171 282 847 167 282 848 171 283 849 148 283 850 144 283 851 171 284 852 144 284 853 143 284 854 171 285 855 143 285 856 172 285 857 171 286 858 172 286 859 173 286 860 171 287 861 173 287 862 167 287 863 167 288 864 173 288 865 163 288 866 163 289 867 173 289 868 161 289 869 136 290 870 134 290 871 174 290 872 174 291 873 134 291 874 153 291 875 136 292 876 174 292 877 143 292 878 174 293 879 153 293 880 155 293 881 155 294 882 153 294 883 152 294 884 155 295 885 152 295 886 151 295 887 174 296 888 155 296 889 161 296 890 174 297 891 161 297 892 173 297 893 174 298 894 173 298 895 143 298 896 143 299 897 173 299 898 172 299 899 147 300 900 139 300 901 146 300 902 146 301 903 139 301 904 138 301 905 139 302 906 147 302 907 148 302 908 175 303 909 176 303 910 177 303 911 176 304 912 175 304 913 70 304 914 176 305 915 70 305 916 75 305 917 176 306 918 75 306 919 69 306 920 69 307 921 75 307 922 178 307 923 69 308 924 178 308 925 71 308 926 178 309 927 75 309 928 76 309 929 71 310 930 178 310 931 179 310 932 179 311 933 178 311 934 76 311 935 69 312 936 177 312 937 176 312 938 177 313 939 69 313 940 175 313 941 175 314 942 69 314 943 70 314 944 79 315 945 25 315 946 72 315 947 79 316 948 72 316 949 180 316 950 180 317 951 72 317 952 181 317 953 181 318 954 72 318 955 71 318 956 79 319 957 180 319 958 82 319 959 82 320 960 180 320 961 182 320 962 182 321 963 180 321 964 183 321 965 82 322 966 182 322 967 91 322 968 82 323 969 91 323 970 84 323 971 91 324 972 182 324 973 89 324 974 182 325 975 183 325 976 184 325 977 184 326 978 183 326 979 90 326 980 90 327 981 183 327 982 84 327 983 86 328 984 89 328 985 184 328 986 184 329 987 89 329 988 182 329 989 86 330 990 184 330 991 87 330 992 87 331 993 184 331 994 90 331 995 87 332 996 90 332 997 85 332 998 157 333 999 84 333 1000 183 333 1001 84 334 1002 157 334 1003 83 334 1004 185 335 1005 186 335 1006 78 335 1007 78 336 1008 186 336 1009 77 336 1010 185 337 1011 78 337 1012 92 337 1013 92 338 1014 94 338 1015 185 338 1016 185 339 1017 94 339 1018 103 339 1019 103 340 1020 94 340 1021 100 340 1022 100 341 1023 94 341 1024 101 341 1025 101 342 1026 94 342 1027 93 342 1028 102 343 1029 187 343 1030 103 343 1031 187 344 1032 102 344 1033 97 344 1034 187 345 1035 97 345 1036 96 345 1037 187 346 1038 96 346 1039 99 346 1040 103 347 1041 187 347 1042 188 347 1043 188 348 1044 187 348 1045 99 348 1046 103 349 1047 188 349 1048 185 349 1049 185 350 1050 188 350 1051 186 350 1052 186 351 1053 188 351 1054 189 351 1055 186 352 1056 189 352 1057 190 352 1058 186 353 1059 190 353 1060 191 353 1061 186 354 1062 191 354 1063 77 354 1064 190 355 1065 189 355 1066 192 355 1067 192 356 1068 189 356 1069 193 356 1070 192 357 1071 193 357 1072 194 357 1073 194 358 1074 193 358 1075 195 358 1076 192 359 1077 194 359 1078 196 359 1079 196 360 1080 194 360 1081 197 360 1082 196 361 1083 197 361 1084 198 361 1085 192 362 1086 196 362 1087 199 362 1088 192 363 1089 199 363 1090 190 363 1091 199 364 1092 196 364 1093 198 364 1094 190 365 1095 199 365 1096 191 365 1097 199 366 1098 198 366 1099 200 366 1100 199 367 1101 200 367 1102 191 367 1103 191 368 1104 200 368 1105 77 368 1106 200 369 1107 198 369 1108 201 369 1109 77 370 1110 200 370 1111 76 370 1112 76 371 1113 200 371 1114 201 371 1115 101 372 1116 188 372 1117 99 372 1118 188 373 1119 101 373 1120 93 373 1121 188 374 1122 93 374 1123 189 374 1124 189 375 1125 93 375 1126 202 375 1127 189 376 1128 202 376 1129 193 376 1130 71 377 1131 203 377 1132 181 377 1133 181 378 1134 203 378 1135 204 378 1136 180 379 1137 181 379 1138 183 379 1139 183 380 1140 181 380 1141 157 380 1142 157 381 1143 181 381 1144 205 381 1145 205 382 1146 181 382 1147 204 382 1148 157 383 1149 205 383 1150 206 383 1151 205 384 1152 204 384 1153 207 384 1154 205 385 1155 207 385 1156 206 385 1157 207 386 1158 204 386 1159 208 386 1160 208 387 1161 204 387 1162 209 387 1163 208 388 1164 209 388 1165 207 388 1166 207 389 1167 209 389 1168 206 389 1169 206 390 1170 209 390 1171 210 390 1172 71 391 1173 179 391 1174 203 391 1175 203 392 1176 179 392 1177 204 392 1178 204 393 1179 179 393 1180 211 393 1181 179 394 1182 76 394 1183 201 394 1184 179 395 1185 201 395 1186 211 395 1187 211 396 1188 201 396 1189 212 396 1190 211 397 1191 212 397 1192 213 397 1193 211 398 1194 213 398 1195 214 398 1196 211 399 1197 214 399 1198 204 399 1199 204 400 1200 214 400 1201 209 400 1202 214 401 1203 213 401 1204 215 401 1205 215 402 1206 213 402 1207 216 402 1208 216 403 1209 213 403 1210 217 403 1211 214 404 1212 215 404 1213 218 404 1214 214 405 1215 218 405 1216 209 405 1217 215 406 1218 216 406 1219 219 406 1220 215 407 1221 219 407 1222 218 407 1223 219 408 1224 216 408 1225 220 408 1226 219 409 1227 220 409 1228 221 409 1229 218 410 1230 219 410 1231 222 410 1232 222 411 1233 219 411 1234 221 411 1235 209 412 1236 218 412 1237 223 412 1238 223 413 1239 218 413 1240 222 413 1241 209 414 1242 223 414 1243 210 414 1244 210 415 1245 223 415 1246 224 415 1247 224 416 1248 223 416 1249 225 416 1250 224 417 1251 225 417 1252 226 417 1253 225 418 1254 223 418 1255 222 418 1256 225 419 1257 222 419 1258 227 419 1259 227 420 1260 222 420 1261 228 420 1262 228 421 1263 222 421 1264 229 421 1265 229 422 1266 222 422 1267 221 422 1268 229 423 1269 221 423 1270 230 423 1271 226 424 1272 210 424 1273 224 424 1274 210 425 1275 226 425 1276 227 425 1277 227 426 1278 226 426 1279 225 426 1280 206 427 1281 210 427 1282 231 427 1283 231 428 1284 210 428 1285 232 428 1286 232 429 1287 210 429 1288 227 429 1289 231 430 1290 232 430 1291 159 430 1292 159 431 1293 232 431 1294 233 431 1295 233 432 1296 232 432 1297 227 432 1298 159 433 1299 233 433 1300 158 433 1301 158 434 1302 233 434 1303 160 434 1304 160 435 1305 233 435 1306 162 435 1307 233 436 1308 227 436 1309 234 436 1310 233 437 1311 234 437 1312 162 437 1313 234 438 1314 227 438 1315 229 438 1316 229 439 1317 227 439 1318 228 439 1319 162 440 1320 234 440 1321 235 440 1322 235 441 1323 234 441 1324 229 441 1325 162 442 1326 235 442 1327 164 442 1328 235 443 1329 229 443 1330 230 443 1331 164 444 1332 235 444 1333 165 444 1334 165 445 1335 235 445 1336 236 445 1337 236 446 1338 235 446 1339 230 446 1340 165 447 1341 236 447 1342 166 447 1343 236 448 1344 230 448 1345 237 448 1346 237 449 1347 230 449 1348 238 449 1349 236 450 1350 237 450 1351 239 450 1352 236 451 1353 239 451 1354 202 451 1355 239 452 1356 237 452 1357 240 452 1358 202 453 1359 239 453 1360 193 453 1361 239 454 1362 240 454 1363 241 454 1364 239 455 1365 241 455 1366 193 455 1367 194 456 1368 195 456 1369 197 456 1370 242 457 1371 197 457 1372 243 457 1373 243 458 1374 197 458 1375 195 458 1376 243 459 1377 195 459 1378 244 459 1379 244 460 1380 195 460 1381 245 460 1382 244 461 1383 245 461 1384 240 461 1385 240 462 1386 245 462 1387 241 462 1388 241 463 1389 245 463 1390 195 463 1391 241 464 1392 195 464 1393 193 464 1394 242 465 1395 198 465 1396 197 465 1397 198 466 1398 242 466 1399 201 466 1400 201 467 1401 242 467 1402 212 467 1403 212 468 1404 242 468 1405 217 468 1406 212 469 1407 217 469 1408 213 469 1409 217 470 1410 242 470 1411 216 470 1412 216 471 1413 242 471 1414 246 471 1415 216 472 1416 246 472 1417 220 472 1418 246 473 1419 242 473 1420 243 473 1421 246 474 1422 243 474 1423 220 474 1424 220 475 1425 243 475 1426 247 475 1427 220 476 1428 247 476 1429 221 476 1430 221 477 1431 247 477 1432 230 477 1433 247 478 1434 243 478 1435 244 478 1436 230 479 1437 247 479 1438 238 479 1439 238 480 1440 247 480 1441 244 480 1442 238 481 1443 244 481 1444 237 481 1445 237 482 1446 244 482 1447 240 482 1448 122 483 1449 93 483 1450 95 483 1451 93 484 1452 122 484 1453 248 484 1454 93 485 1455 248 485 1456 202 485 1457 248 486 1458 122 486 1459 169 486 1460 248 487 1461 169 487 1462 168 487 1463 248 488 1464 168 488 1465 236 488 1466 236 489 1467 168 489 1468 166 489 1469 157 490 1470 206 490 1471 231 490 1472 157 491 1473 231 491 1474 159 491 1475 157 492 1476 159 492 1477 156 492 1478 236 493 1479 202 493 1480 248 493 1481</p>
        </polylist>
      </mesh>
    </geometry>
  </library_geometries>
  <library_visual_scenes>
    <visual_scene id="Scene" name="Scene">
      <node id="Pomfret" name="Pomfret" type="NODE">
        <scale sid="scale">1 1 1</scale>
        <translate sid="location">0 0 0</translate>
        <rotate sid="rotationX">1 0 0 0</rotate>
        <rotate sid="rotationY">0 1 0 180</rotate>
        <rotate sid="rotationZ">0 0 1 0</rotate>
        <instance_geometry url="#Pomfret-mesh" name="Pomfret">
          <bind_material>
            <technique_common>
            </technique_common>
          </bind_material>
        </instance_geometry>
      </node>
    </visual_scene>
  </library_visual_scenes>
  <scene>
    <instance_visual_scene url="#Scene"/>
  </scene>
</COLLADA>
