<?xml version="1.0" encoding="utf-8"?>
<COLLADA xmlns="http://www.collada.org/2005/11/COLLADASchema" version="1.4.1" xmlns:xsi="http://www.w3.org/2001/XMLSchema-instance">
  <asset>
    <contributor>
      <author>Blockbench user</author>
      <authoring_tool>Blockbench</authoring_tool>
    </contributor>
    <created>2025-10-05T13:59:13.965Z</created>
    <modified>2025-10-05T13:59:13.965Z</modified>
    <unit name="meter" meter="1.0"/>
    <up_axis>Y_UP</up_axis>
  </asset>
  <library_effects>
  </library_effects>
  <library_images>
  </library_images>
  <library_materials>
  </library_materials>
  <library_geometries>
    <geometry id="Potatoes-mesh" name="Potatoes">
      <mesh>
        <source id="Potatoes-mesh-positions">
          <float_array id="Potatoes-mesh-positions-array" count="756">-0.161477 -0.115281 -0.085019 -0.162241 -0.132835 -0.048811 -0.186944 -0.110507 -0.046249 -0.15792 -0.142354 -0.002012 -0.196365 -0.107517 -0.002343 -0.133552 -0.150389 -0.046678 -0.102711 -0.164579 -0.002039 -0.094 -0.16333 -0.050306 -0.121872 -0.146041 -0.078137 -0.126895 -0.11534 -0.114694 -0.214412 -0.069765 -0.03581 -0.219771 -0.068172 -0.002052 -0.201373 -0.070603 -0.066881 -0.175264 -0.074209 -0.101675 -0.133338 -0.075994 -0.134863 -0.210885 -0.026055 -0.071345 -0.225741 -0.027274 -0.037677 -0.229726 -0.03761 -0.002121 -0.231741 0.005898 -0.002239 -0.224947 0.034386 -0.036381 -0.208305 0.030815 -0.072874 -0.175539 0.016353 -0.11779 -0.176226 -0.035146 -0.113135 -0.134285 -0.036564 -0.146621 -0.131018 0.015376 -0.151154 -0.07832 -0.115406 -0.137571 -0.081412 -0.062171 -0.164706 -0.072289 -0.141281 -0.11233 -0.082557 -0.02338 -0.1719 -0.048662 -0.157851 -0.091887 -0.026496 -0.132512 -0.136293 0.028607 -0.154149 -0.108747 -0.026656 -0.109097 -0.155017 0.029588 -0.109831 -0.158941 -0.02879 -0.061003 -0.17771 -0.056731 -0.168648 -0.050542 0.039771 -0.166092 -0.07292 -0.065762 -0.170601 -0.002094 0.080884 -0.17091 -0.002083 -0.040161 -0.027034 -0.182502 0.029382 -0.050596 -0.184281 0.016974 -0.017745 -0.188997 -0.030118 0.013249 -0.183049 0.026777 -0.13354 -0.138711 0.088813 -0.130573 -0.131958 0.087515 -0.155604 -0.092046 0.139296 -0.143455 -0.084981 0.129273 -0.126856 -0.115858 0.139594 -0.081972 -0.146393 0.098477 -0.084374 -0.162911 0.040115 -0.074532 -0.176326 0.109241 -0.049773 -0.172296 0.174131 -0.037111 -0.147123 0.085789 -0.021999 -0.180935 0.109722 -0.162889 -0.047697 0.040279 -0.170102 -0.039305 -0.173646 0.054408 -0.107173 -0.134376 0.055279 -0.140202 -0.158714 0.09256 -0.100975 -0.130056 0.090812 -0.124992 -0.124223 0.124422 -0.090845 -0.092427 0.099861 -0.138012 -0.158989 0.11422 -0.072342 -0.191571 0.087764 -0.064254 -0.203388 0.088793 -0.034921 -0.174425 0.116666 -0.024893 -0.191158 0.105171 -0.002011 -0.212488 0.079266 -0.001826 -0.227482 0.040108 -0.002138 -0.092107 0.046234 -0.1639 0.040947 0.012748 -0.186198 0.012739 0.06277 -0.172356 -0.053402 0.05898 -0.168706 -0.040455 0.110731 -0.140765 0.007533 0.092267 -0.155534 -0.090572 0.128506 -0.10915 -0.042764 0.144443 -0.091887 0.004384 0.14271 -0.091735 -0.002044 0.112406 -0.138909 0.064666 0.104958 -0.129525 -0.125994 0.135336 -0.062295 -0.07151 0.150834 -0.064387 -0.031775 0.159838 -0.044933 -0.03868 0.165229 -0.002083 -0.099794 0.148601 -0.005172 -0.105459 0.143944 -0.018638 -0.11949 0.155225 -0.002001 -0.173111 0.117025 0.025382 -0.158149 0.118458 -0.002078 -0.134666 0.130958 -0.020874 -0.146102 0.128711 -0.002189 -0.132316 0.159265 -0.015832 -0.130117 0.177113 -0.02069 -0.127857 0.162894 -0.0021 -0.127857 0.170444 0.013952 -0.139278 0.147954 -0.001842 -0.136529 0.168006 0.012154 0.011872 0.156827 -0.042739 0.071987 0.144311 -0.043393 0.038132 0.155314 -0.001648 -0.189418 -0.109214 0.03832 -0.135827 -0.14983 0.041222 -0.161538 -0.132335 0.046701 -0.161905 -0.114377 0.080993 -0.117612 -0.145982 0.077912 -0.220855 -0.05501 0.029247 -0.201327 -0.070706 0.062634 -0.227543 0.011919 0.030924 -0.209633 -0.027818 0.068398 -0.207908 0.030029 0.069258 -0.175784 0.01583 0.113512 -0.175127 -0.074496 0.097579 -0.13143 -0.090507 0.124608 -0.134758 -0.034342 0.142541 -0.176089 -0.03179 0.109534 -0.131246 0.015359 0.14683 -0.090007 -0.16308 0.050736 -0.056296 -0.167957 0.051313 0.033073 -0.168295 0.060014 -0.010533 -0.155075 0.100948 -0.069403 -0.158835 0.078125 -0.048013 -0.14037 0.117862 0.027465 -0.132879 0.135726 -0.028962 -0.114657 0.147408 -0.117139 -0.128193 0.102431 -0.076892 -0.114069 0.135468 -0.077732 -0.065175 0.160397 -0.084442 -0.025559 0.166892 -0.041226 -0.025178 0.1783 -0.016541 -0.053222 0.178346 0.02826 -0.109647 0.154937 0.00136 -0.020416 0.183623 -0.029103 0.013759 0.178969 0.040149 -0.03031 0.182984 0.092813 -0.130984 0.126113 0.048415 -0.15481 0.100743 0.088774 -0.165372 0.053222 0.101447 -0.153767 0.08408 0.128189 -0.157381 0.041339 0.149137 -0.139592 0.077875 0.142243 -0.126562 0.103199 0.144999 -0.085145 0.137278 0.099599 -0.085535 0.15807 0.129762 -0.048216 0.160869 0.175031 -0.03562 0.142723 0.152495 0.002722 0.158116 0.088866 -0.035925 0.175121 0.109508 0.009874 0.170101 0.048012 -0.075054 0.170953 0.041426 0.011658 0.182057 0.090248 0.03775 0.16747 -0.22226 0.043722 0.03132 -0.204518 0.087206 0.030913 -0.159294 0.114227 0.067889 -0.192746 0.084885 0.060269 -0.160805 0.093625 0.094149 -0.121444 0.122013 0.09262 -0.131766 0.092384 0.118797 -0.133949 0.055459 0.136198 -0.173646 0.054786 0.10288 -0.095015 0.047515 0.157842 -0.089847 0.094786 0.138449 0.022548 0.060541 0.167972 -0.04147 0.059244 0.166603 0.004501 0.092061 0.151956 -0.040539 0.092377 0.149796 -0.089786 0.128212 0.105823 -0.108497 0.139728 0.065182 -0.032962 0.114227 0.133415 0.010373 0.119581 0.12409 -0.041218 0.144194 0.088111 -0.061227 0.157723 0.035586 0.013234 0.143739 0.081266 0.068079 0.103019 0.127026 -0.031824 0.159823 0.040674 0.01286 0.156533 0.039891 0.066472 0.144914 0.039913 -0.13398 0.13137 0.018178 -0.10607 0.143533 0.015714 -0.121337 0.147984 0.013615 0.153122 -0.000432 -0.162166 0.131006 0.010194 -0.169117 0.151931 0.03259 -0.157602 0.088011 0.035481 -0.172706 0.196452 0.013912 -0.135898 0.131166 0.069293 -0.14875 0.168924 0.066274 -0.135532 0.196376 0.062543 -0.119174 0.139273 0.105237 -0.114611 0.186772 0.095425 -0.098382 0.216118 0.077107 -0.085795 0.195491 0.114433 -0.045135 0.152144 0.120118 -0.082571 0.17578 0.126993 -0.037738 0.138373 0.137334 -0.046184 0.089477 0.128623 -0.080677 0.185566 -0.073225 -0.124094 0.189994 -0.107584 -0.094724 0.224347 -0.077235 -0.086548 0.211629 -0.109251 -0.06825 0.238974 -0.072035 -0.061409 0.177306 -0.130294 -0.074076 0.21253 -0.118821 -0.020036 0.245677 -0.07429 -0.031749 0.247906 -0.078344 0.003342 0.213583 -0.114818 0.033133 0.186376 -0.136816 -0.039446 0.186589 -0.137535 0.020615 0.138418 -0.157675 -0.001966 0.203507 -0.037732 -0.125798 0.230821 -0.030497 -0.102047 0.260472 -0.028631 -0.047872 0.23134 0.019847 -0.101857 0.268869 -0.030324 -0.006785 0.267465 0.022075 -0.002075 0.256715 0.016513 -0.04893 0.250639 0.066303 -0.015065 0.230485 0.057192 -0.085156 0.230867 0.086876 -0.0312 0.070617 0.148689 -0.002028 0.122334 0.143753 -0.002164 0.157702 0.137172 -0.002139 0.146312 0.136291 0.041089 0.195124 0.116879 0.033058 0.153442 0.11906 0.07992 0.088912 0.129005 0.075699 0.144296 0.106089 0.107451 0.188177 0.094903 0.093419 0.202193 0.099861 0.065242 0.119684 0.083475 0.135726 0.167886 0.066156 0.132183 0.196666 0.063431 0.113976 0.129464 0.061536 0.14975 0.153198 0.035569 0.15156 0.198101 0.01625 0.130281 0.254853 0.056336 0.01143 0.250685 0.028562 0.052169 0.262258 -0.028536 0.03732 0.262212 -0.046046 0.011971 0.250593 -0.029516 0.063417 0.231233 0.017965 0.09872 0.229768 -0.030839 0.099138 0.228454 0.063343 0.08011 0.229691 0.088058 0.027333 0.213431 0.108814 -0.002191 0.185307 -0.132658 0.056804 0.183291 -0.102964 0.099572 0.211247 -0.109016 0.06509 0.245127 -0.071624 0.036951 0.226744 -0.077536 0.079015 0.191429 -0.07249 0.116478 0.206835 -0.036237 0.119588</float_array>
          <technique_common>
            <accessor source="#Potatoes-mesh-positions-array" count="252" stride="3">
              <param name="X" type="float"/>
              <param name="Y" type="float"/>
              <param name="Z" type="float"/>
            </accessor>
          </technique_common>
        </source>
        <source id="Potatoes-mesh-normals">
          <float_array id="Potatoes-mesh-normals-array" count="1500">-0.649218 -0.67895 -0.342846 -0.67294 -0.73453 -0.087277 -0.668116 -0.73821 -0.093091 -0.510958 -0.850352 -0.12579 -0.457754 -0.796193 -0.395648 -0.373198 -0.92702 -0.036841 -0.316696 -0.945011 -0.081597 -0.321731 -0.914362 -0.245826 -0.548684 -0.776044 -0.31097 -0.459022 -0.710393 -0.533516 -0.837226 -0.527634 -0.143715 -0.854417 -0.507445 -0.111672 -0.752491 -0.496081 -0.433199 -0.819495 -0.46762 -0.331299 -0.576722 -0.465762 -0.671162 -0.73545 -0.451688 -0.505065 -0.566706 -0.447438 -0.691841 -0.899713 -0.229323 -0.371386 -0.790278 -0.225821 -0.569618 -0.955282 -0.260817 -0.139326 -0.88181 -0.252605 -0.398248 -0.932823 -0.304291 -0.192996 -0.991139 -0.046245 -0.124522 -0.98318 0.016484 -0.181893 -0.914872 0.030685 -0.402577 -0.804551 0.020547 -0.593528 -0.775361 -0.195298 -0.600561 -0.773859 -0.04676 -0.631629 -0.609163 -0.237042 -0.75679 -0.610669 -0.239718 -0.754731 -0.624003 -0.062073 -0.778953 -0.599829 -0.032038 -0.799487 -0.376438 -0.470682 -0.797968 -0.356226 -0.440681 -0.823956 -0.425444 -0.267974 -0.8644 -0.304838 -0.7005 -0.64527 -0.328772 -0.744972 -0.580452 -0.427783 -0.05184 -0.902393 -0.394836 -0.178796 -0.901186 -0.223449 -0.867332 -0.444755 -0.213204 -0.911185 -0.352541 -0.216802 -0.707095 -0.673063 -0.121043 -0.834943 -0.536861 -0.07308 -0.850081 -0.521558 -0.183965 -0.614634 -0.76706 -0.235295 -0.452195 -0.860324 -0.062518 -0.623565 -0.779267 -0.068466 -0.428222 -0.901076 -0.208276 -0.424925 -0.880943 -0.137492 -0.951477 -0.275296 -0.034446 -0.965317 -0.258799 -0.141344 -0.987746 -0.066181 -0.160714 -0.985495 -0.054496 -0.002099 -0.99917 -0.040685 -0.230093 -0.211032 -0.950012 -0.08134 -0.165862 -0.982789 -0.253336 -0.183633 -0.949789 -0.083532 -0.17243 -0.981473 -0.238576 0.046299 -0.97002 -0.115384 0.015272 -0.993204 -0.047069 -0.645138 -0.762615 -0.041535 -0.824397 -0.564487 0.100896 -0.816832 -0.567983 0.112772 -0.652653 -0.749217 0.127759 -0.842101 -0.52397 0.261837 -0.821432 -0.506647 0.282234 -0.803776 -0.523725 0.346473 -0.580803 -0.736631 0.165316 -0.572589 -0.803002 0.334357 -0.571854 -0.749125 0.122361 -0.467638 -0.87541 -0.065339 -0.425134 -0.902769 0.366902 -0.348115 -0.86267 0.164092 -0.305444 -0.937965 0.396239 -0.319058 -0.860928 -0.04663 -0.333806 -0.941488 0.146162 -0.252362 -0.95653 0.147851 -0.177789 -0.972898 0.109632 -0.100534 -0.988875 -0.022094 -0.950496 -0.30995 0.071928 -0.939286 -0.335511 0.123972 -0.967363 -0.220995 0.088293 -0.988924 -0.119308 -0.001165 -0.992961 -0.118438 -0.014277 -0.999879 -0.006135 -0.756291 0.210442 -0.619466 -0.628277 0.237902 -0.740723 -0.588862 0.167447 -0.790698 -0.606766 0.353178 -0.71211 -0.580713 0.379014 -0.7205 -0.450149 0.673643 -0.586149 -0.37912 0.691043 -0.615408 -0.486051 0.694721 -0.530206 -0.714515 0.375558 -0.590275 -0.622567 0.62122 -0.475917 -0.767017 0.310389 -0.561554 -0.645854 0.708254 -0.285041 -0.627862 0.739622 -0.242379 -0.666992 0.735623 -0.11824 -0.771759 0.635237 -0.029346 -0.863853 0.351977 -0.360375 -0.918273 0.367803 -0.146611 -0.851932 0.313795 -0.419219 -0.908907 0.02046 -0.416497 -0.925867 0.355532 -0.127935 -0.987935 0.123288 -0.093724 -0.445744 0.201836 -0.872109 -0.352667 0.058949 -0.93389 -0.380575 0.40262 -0.832502 -0.257477 0.075392 -0.963339 -0.38409 0.399521 -0.832381 -0.043036 0.124824 -0.991245 -0.04119 0.244813 -0.968695 -0.187108 0.205988 -0.9605 -0.068341 0.266723 -0.961347 -0.246786 0.420087 -0.873283 -0.075964 0.488366 -0.869326 -0.149481 0.498449 -0.853935 -0.082621 0.482674 -0.871894 -0.420052 0.657478 -0.625523 -0.18352 0.703594 -0.686495 -0.067961 0.819783 -0.568628 0.0321 0.823473 -0.566447 0.009281 0.639201 -0.768983 -0.010649 0.841971 -0.539417 0.17615 0.675119 -0.716369 0.168621 0.818705 -0.548898 -0.301366 0.884258 -0.356743 -0.428884 0.834607 -0.345673 -0.269625 0.902657 -0.335429 -0.483797 0.851717 -0.20129 -0.149546 0.977749 -0.147113 -0.257473 0.962389 -0.086693 -0.38813 0.909132 -0.15111 -0.275218 0.959524 -0.059732 0.23259 0.884788 -0.403797 -0.558117 0.829717 0.008645 -0.103325 0.994638 -0.004414 -0.340665 0.939768 0.028 -0.348732 0.920457 0.176477 -0.406953 0.913379 0.011332 -0.621303 0.726792 -0.29284 -0.002698 0.175572 -0.984463 -0.850405 0.159906 -0.50124 0.472116 0.861668 -0.186104 0.664957 -0.27131 -0.695862 0.60531 0.666041 0.435876 0.640662 0.694797 -0.326817 -0.890627 -0.013978 -0.454519 -0.923843 0.331106 -0.19205 -0.687476 0.534067 0.492087 -0.900833 0.324679 -0.288241 -0.655001 0.490807 -0.574527 -0.164597 0.908861 -0.383249 -0.071109 0.952631 -0.295697 0.035847 0.947104 -0.318917 0.080291 0.954476 -0.287278 0.191406 0.934974 -0.298642 0.074028 0.990864 -0.112734 0.201965 0.974952 -0.093161 0.128149 0.990715 -0.045408 -0.669519 -0.738077 0.083588 -0.373251 -0.927233 0.030383 -0.538434 -0.832392 0.131196 -0.653415 -0.749594 0.105627 -0.451727 -0.792317 0.410095 -0.658545 -0.66953 0.343581 -0.529379 -0.77545 0.344143 -0.867071 -0.481448 0.128047 -0.844393 -0.503662 0.182551 -0.753515 -0.501463 0.425148 -0.848601 -0.444027 0.287605 -0.946429 -0.308071 0.096767 -0.970631 -0.102441 0.217673 -0.989991 -0.045492 0.133594 -0.935287 -0.101947 0.338888 -0.883416 -0.226247 0.410352 -0.893659 0.019998 0.448301 -0.80683 0.015295 0.590585 -0.736132 -0.453145 0.502761 -0.790538 -0.229424 0.567815 -0.582485 -0.469169 0.663771 -0.577047 -0.279241 0.76749 -0.769985 -0.188028 0.609728 -0.776361 -0.047517 0.628495 -0.616454 -0.225107 0.754527 -0.625156 -0.060983 0.778114 -0.598991 -0.026747 0.800309 -0.295187 -0.950396 0.098039 -0.316891 -0.914043 0.25319 -0.143948 -0.987598 0.06269 -0.160282 -0.984053 0.077125 -0.00874 -0.998661 0.050989 -0.030644 -0.960242 0.277483 -0.142711 -0.9562 0.255569 -0.244899 -0.913179 0.325773 -0.054511 -0.953121 0.29764 -0.128025 -0.871289 0.473778 -0.224091 -0.832127 0.507294 -0.056754 -0.81232 0.580444 -0.090868 -0.721456 0.686472 -0.264264 -0.778201 0.569709 -0.470172 -0.710023 0.524219 -0.491099 -0.572561 0.656503 -0.269429 -0.722238 0.637009 -0.390829 -0.572397 0.720842 -0.185296 -0.678979 0.71039 -0.35139 -0.430053 0.831613 -0.221504 -0.445971 0.867206 -0.428183 -0.297792 0.853217 -0.39517 -0.213419 0.893473 -0.428401 -0.047605 0.902334 -0.24856 -0.197565 0.948254 -0.181159 -0.41287 0.892592 -0.23774 -0.207712 0.94886 -0.079864 -0.435409 0.896683 -0.112697 -0.097582 0.988826 -0.126466 0.022326 0.99172 -0.021319 -0.147448 0.98884 -0.002105 -0.999179 0.040451 -0.045745 -0.635665 0.770608 0.130472 -0.634463 0.761862 0.107934 -0.811951 0.573659 0.00565 -0.845729 0.533583 0.005347 -0.949908 0.312485 0.084775 -0.954995 0.28425 0.063194 -0.993889 0.090505 0.115295 -0.944432 0.307823 0.172752 -0.850638 0.496561 0.262656 -0.933718 0.243275 0.306413 -0.913125 0.268912 0.305887 -0.810151 0.500089 0.304899 -0.809656 0.501492 0.379321 -0.602816 0.701947 0.345094 -0.573787 0.742751 0.16233 -0.583661 0.795606 0.388353 -0.376941 0.840891 0.431056 -0.352706 0.830535 0.399742 -0.129359 0.907454 0.305052 -0.084877 0.948546 0.24443 -0.267453 0.932053 0.266323 -0.01441 0.963776 0.121685 -0.47339 0.872408 0.177238 -0.28537 0.941887 -0.03222 -0.404713 0.913876 0.024228 -0.255616 0.966475 0.12821 -0.236447 0.963148 0.173631 0.029625 0.984365 0.161224 0.016904 0.986773 0.174417 0.211303 0.961733 0.021929 0.021424 0.99953 -0.987125 0.122609 0.102716 -0.977692 0.160722 0.135229 -0.906778 0.145706 0.39563 -0.920637 0.376585 0.103011 -0.925112 0.353111 0.13957 -0.771433 0.635418 0.033695 -0.671266 0.7304 0.126168 -0.641475 0.723127 0.256121 -0.858193 0.353624 0.372095 -0.664893 0.674927 0.319986 -0.848947 0.305318 0.431358 -0.644956 0.618852 0.44839 -0.485431 0.701203 0.52218 -0.462252 0.672094 0.578457 -0.591343 0.372103 0.715439 -0.72172 0.370105 0.58493 -0.77013 0.304682 0.560418 -0.603457 0.359515 0.71175 -0.757912 0.210129 0.617589 -0.62692 0.236944 0.742179 -0.589179 0.169743 0.789972 -0.34358 0.066306 0.93678 -0.255035 0.082416 0.963413 -0.444194 0.201522 0.872972 -0.376695 0.413006 0.829172 -0.272597 0.068375 0.959696 -0.409854 0.384207 0.827288 -0.04057 0.099236 0.994237 -0.034317 0.264442 0.963791 -0.340576 0.686363 0.642583 -0.025848 0.255706 0.966409 -0.201707 0.205509 0.957643 -0.231379 0.3908 0.89092 -0.028108 0.43999 0.897563 -0.179479 0.449061 0.875289 -0.039541 0.452929 0.890669 -0.398997 0.640854 0.655826 -0.332648 0.856015 0.395706 -0.145862 0.625308 0.766625 -0.033824 0.60698 0.793997 -0.172818 0.688141 0.704695 0.065506 0.703035 0.708132 -0.178228 0.922142 0.34335 -0.068061 0.826364 0.559008 0.015089 0.835218 0.549712 -0.166142 0.937801 0.304838 0.069301 0.866897 0.493647 0.217253 0.843895 0.490553 -0.117968 0.949853 0.289591 0.048281 0.945789 0.321173 -0.094605 0.985651 0.13979 0.075316 0.952846 0.29396 0.07494 0.990737 0.113248 0.202748 0.93604 0.287614 0.127607 0.990636 0.048556 0.210719 0.972454 0.099654 -0.621813 0.733539 0.274352 -0.364585 0.918891 -0.150724 -0.860419 0.023825 0.509031 -0.341217 0.939815 0.017872 -0.431301 0.880182 0.198139 -0.404541 0.843383 0.353627 -0.395173 0.917182 0.051148 -0.550069 0.834292 0.037172 -0.309821 0.947326 0.081146 -0.263995 0.963922 0.03407 0.347864 0.881793 0.318484 -0.04482 0.296147 0.95409 0.197298 0.880257 0.431534 0.129639 0.169667 0.976938 0.934476 0.26773 0.234682 -0.184109 -0.068127 0.980542 -0.163955 0.892647 -0.419881 0.284979 -0.057004 -0.956837 0.383325 -0.15394 -0.910695 0.116338 -0.000291 -0.99321 0.280895 -0.042549 -0.958795 0.188096 0.094684 -0.977576 0.357658 0.140483 -0.923225 0.188202 0.183026 -0.964926 0.233103 0.263464 -0.936082 0.112968 0.323642 -0.939412 0.479942 0.137059 -0.866528 0.15311 0.433705 -0.887951 0.230401 0.349404 -0.908203 0.141196 0.509136 -0.849025 0.166943 0.690603 -0.703702 0.51205 0.27488 -0.813785 0.331562 0.394307 -0.857081 0.519282 0.278641 -0.807902 0.144148 0.664184 -0.73354 0.303041 0.619457 -0.724182 0.477684 0.56495 -0.672793 0.363505 0.640072 -0.676884 0.594248 0.546625 -0.589974 0.599793 0.717432 -0.354317 0.424136 0.828667 -0.365266 0.336627 0.795094 -0.504488 0.408836 0.844845 -0.345094 0.317104 0.898046 -0.304891 0.10638 0.884803 -0.453659 0.112263 0.913967 -0.389951 0.09091 0.877325 -0.471207 0.083099 0.931876 -0.353132 0.204559 0.836124 -0.508971 0.19376 0.933447 -0.301883 0.443583 -0.571607 -0.690289 0.461531 -0.368445 -0.806993 0.42507 -0.555873 -0.714367 0.582582 -0.483431 -0.65337 0.418721 -0.736187 -0.531698 0.624129 -0.559577 -0.545286 0.784318 -0.511873 -0.350473 0.409779 -0.728309 -0.549224 0.518192 -0.715512 -0.468529 0.810291 -0.571738 -0.128624 0.754661 -0.618979 -0.217602 0.780896 -0.612944 -0.12042 0.742174 -0.669257 0.035678 0.637882 -0.753033 -0.161391 0.53552 -0.793293 -0.289661 0.572741 -0.819651 -0.011858 0.390649 -0.920456 -0.012418 0.335908 -0.905712 -0.258556 0.330049 -0.938643 -0.10008 0.36818 -0.91155 -0.183085 0.255304 -0.925467 -0.279875 0.224142 -0.974107 -0.029579 0.088468 -0.989067 -0.117984 0.223575 -0.972484 0.065482 0.631859 -0.35251 -0.690283 0.552884 -0.316457 -0.770827 0.668831 -0.315825 -0.672993 0.584588 -0.07808 -0.807565 0.663456 -0.0553 -0.746169 0.528692 -0.044813 -0.84763 0.856167 -0.265577 -0.443224 0.846676 -0.277813 -0.453828 0.69875 -0.004496 -0.715352 0.877292 -0.007226 -0.479903 0.654966 0.246654 -0.71427 0.89856 -0.372879 -0.23141 0.908919 -0.365432 -0.200815 0.903018 -0.416452 -0.105479 0.979151 0.044066 -0.198296 0.969929 0.075284 -0.231452 0.901404 0.064978 -0.428074 0.927714 0.280642 -0.246145 0.695864 0.306405 -0.64953 0.887566 0.20485 -0.412628 0.900876 0.313883 -0.299833 0.662466 0.458923 -0.592054 0.794132 0.530094 -0.297245 0.776195 0.55008 -0.308113 0.657001 0.691128 -0.30115 0.1978 0.975464 -0.096674 0.19987 0.973917 0.107417 0.094248 0.990343 -0.101679 0.099426 0.989165 -0.108018 0.182444 0.980238 -0.076467 0.094648 0.988484 0.11807 0.182457 0.980854 0.068074 0.105396 0.989442 0.099478 0.383838 0.915596 0.119805 0.394959 0.864437 0.311058 0.095277 0.930425 0.35388 0.115921 0.915608 0.384998 0.20338 0.935656 0.288418 0.200543 0.838844 0.506085 0.10683 0.885297 0.452588 0.087568 0.873975 0.478015 0.359563 0.792393 0.492775 0.433797 0.825515 0.361035 0.149817 0.704421 0.693791 0.19153 0.774241 0.603214 0.377267 0.638383 0.670922 0.27637 0.618714 0.735399 0.478025 0.567061 0.670771 0.151344 0.687173 0.710555 0.157097 0.517391 0.841206 0.27131 0.601332 0.751526 0.132253 0.575039 0.807366 0.148543 0.421528 0.894566 0.113092 0.31517 0.942273 0.347208 0.377203 0.858583 0.244033 0.287609 0.926137 0.505805 0.275088 0.817611 0.245141 0.257611 0.934635 0.478629 0.161988 0.862945 0.291989 0.181179 0.939104 0.936145 0.351213 -0.016778 0.934836 0.241512 0.260296 0.952381 0.120157 0.280237 0.988944 0.013229 0.147699 0.962332 -0.224501 0.153348 0.909092 0.077828 0.40926 0.91377 0.075851 0.399087 0.864046 -0.021643 0.502947 0.690054 -0.014527 0.723612 0.658121 0.263731 0.705211 0.530988 0.291167 0.795785 0.879551 0.225657 0.41889 0.693782 0.30923 0.650418 0.894295 0.32183 0.310906 0.613888 0.541037 0.574822 0.640537 0.635903 0.430511 0.815734 0.516258 0.260874 0.705586 0.63525 0.314015 0.802409 0.589315 0.094061 0.644682 0.72519 0.241836 0.432084 0.833009 0.345542 0.757894 0.651129 0.040348 0.647562 0.743673 0.166174 0.742326 0.667471 -0.058607 0.646776 0.742799 -0.173006 0.453315 0.890789 0.031632 0.50768 0.855708 -0.100125 0.453364 0.890987 -0.024553 0.290297 0.94888 -0.123914 0.214973 -0.974931 0.057403 0.348542 -0.933089 0.088671 0.361973 -0.922054 0.137086 0.324345 -0.910287 0.257249 0.435943 -0.74647 0.502728 0.603372 -0.787207 0.127467 0.63069 -0.77468 0.045824 0.459541 -0.719252 0.521056 0.404437 -0.596994 0.692841 0.629636 -0.755001 0.183114 0.48172 -0.709027 0.515002 0.789497 -0.591146 0.165047 0.597916 -0.551601 0.581578 0.806724 -0.520718 0.279374 0.463173 -0.521317 0.716728 0.59259 -0.505967 0.626765 0.461877 -0.36877 0.806646 0.786161 -0.590299 0.183026 0.885935 -0.435239 0.160271 0.91546 -0.402222 -0.012251 0.899748 -0.359825 0.246938 0.861447 -0.345669 0.372052 0.881751 -0.327713 0.339292 0.838196 -0.260693 0.479027 0.67037 -0.329834 0.66469 0.661514 -0.338517 0.669183 0.556758 -0.30295 0.773461 0.670192 -0.039474 0.741137 0.586082 -0.066984 0.807479 0.527378 -0.030899 0.849068</float_array>
          <technique_common>
            <accessor source="#Potatoes-mesh-normals-array" count="500" stride="3">
              <param name="X" type="float"/>
              <param name="Y" type="float"/>
              <param name="Z" type="float"/>
            </accessor>
          </technique_common>
        </source>
        <source id="Potatoes-mesh-map-0">
          <float_array id="Potatoes-mesh-map-0-array" count="3000">0.414551 0.268799 0.445068 0.291748 0.420654 0.3125 0.420654 0.3125 0.445068 0.291748 0.47876 0.32251 0.420654 0.3125 0.47876 0.32251 0.437988 0.351318 0.47876 0.32251 0.445068 0.291748 0.470947 0.272705 0.470947 0.272705 0.445068 0.291748 0.414551 0.268799 0.47876 0.32251 0.470947 0.272705 0.522705 0.287354 0.522705 0.287354 0.470947 0.272705 0.49707 0.243164 0.49707 0.243164 0.470947 0.272705 0.456299 0.244141 0.456299 0.244141 0.470947 0.272705 0.414551 0.268799 0.456299 0.244141 0.414551 0.268799 0.414062 0.22583 0.420654 0.3125 0.437988 0.351318 0.384277 0.344482 0.384277 0.344482 0.437988 0.351318 0.397461 0.374023 0.375 0.313965 0.414551 0.268799 0.420654 0.3125 0.375 0.313965 0.420654 0.3125 0.384277 0.344482 0.414062 0.22583 0.414551 0.268799 0.369629 0.273193 0.369629 0.273193 0.414551 0.268799 0.375 0.313965 0.414062 0.22583 0.369629 0.273193 0.37085 0.220703 0.375 0.313965 0.384277 0.344482 0.331787 0.325439 0.375 0.313965 0.331787 0.325439 0.369629 0.273193 0.342529 0.358398 0.384277 0.344482 0.397461 0.374023 0.384277 0.344482 0.342529 0.358398 0.331787 0.325439 0.342529 0.358398 0.397461 0.374023 0.364502 0.385986 0.342529 0.358398 0.364502 0.385986 0.325195 0.4021 0.342529 0.358398 0.325195 0.4021 0.286865 0.382324 0.331787 0.325439 0.342529 0.358398 0.277588 0.338379 0.331787 0.325439 0.277588 0.338379 0.279785 0.280029 0.330078 0.273438 0.369629 0.273193 0.331787 0.325439 0.330078 0.273438 0.331787 0.325439 0.279785 0.280029 0.369629 0.273193 0.330078 0.273438 0.37085 0.220703 0.37085 0.220703 0.330078 0.273438 0.330811 0.217773 0.330811 0.217773 0.330078 0.273438 0.279785 0.280029 0.330811 0.217773 0.279785 0.280029 0.279785 0.219971 0.259033 0.650879 0.219971 0.702637 0.214355 0.651611 0.219971 0.702637 0.259033 0.650879 0.280029 0.705811 0.280029 0.705811 0.259033 0.650879 0.299805 0.645264 0.214355 0.651611 0.219971 0.702637 0.183105 0.704346 0.214355 0.651611 0.183105 0.704346 0.168945 0.647461 0.346924 0.635986 0.317871 0.702148 0.299805 0.645264 0.299805 0.645264 0.317871 0.702148 0.280029 0.705811 0.168945 0.647461 0.183105 0.704346 0.14209 0.727295 0.168945 0.647461 0.14209 0.727295 0.130859 0.664551 0.183105 0.704346 0.219971 0.702637 0.198975 0.753418 0.183105 0.704346 0.198975 0.753418 0.14209 0.727295 0.14209 0.727295 0.198975 0.753418 0.166504 0.777832 0.198975 0.753418 0.219971 0.702637 0.231445 0.749268 0.231445 0.749268 0.219971 0.702637 0.280029 0.705811 0.198975 0.753418 0.231445 0.749268 0.231934 0.790771 0.231934 0.790771 0.231445 0.749268 0.282959 0.758789 0.282959 0.758789 0.231445 0.749268 0.280029 0.705811 0.122803 0.706543 0.130859 0.664551 0.14209 0.727295 0.122803 0.706543 0.14209 0.727295 0.094238 0.758301 0.130859 0.664551 0.122803 0.706543 0.095947 0.668213 0.130859 0.664551 0.095947 0.668213 0.095703 0.644043 0.095947 0.668213 0.122803 0.706543 0.000244 0.688965 0.282959 0.758789 0.280029 0.705811 0.314697 0.740234 0.282959 0.758789 0.314697 0.740234 0.324707 0.79126 0.314697 0.740234 0.280029 0.705811 0.317871 0.702148 0.324707 0.79126 0.314697 0.740234 0.349854 0.779541 0.314697 0.740234 0.317871 0.702148 0.355225 0.748291 0.314697 0.740234 0.355225 0.748291 0.349854 0.779541 0.959717 0.898682 0.968506 0.934326 0.934326 0.899902 0.968506 0.934326 0.959717 0.898682 0.985352 0.899414 0.985352 0.899414 0.959717 0.898682 0.962158 0.852295 0.962158 0.852295 0.959717 0.898682 0.934326 0.899902 0.985352 0.899414 0.962158 0.852295 0.998779 0.851562 0.998779 0.851562 0.962158 0.852295 0.996582 0.812988 0.996582 0.812988 0.962158 0.852295 0.970215 0.818359 0.970215 0.818359 0.962158 0.852295 0.924316 0.80957 0.962158 0.852295 0.934326 0.899902 0.917969 0.843994 0.962158 0.852295 0.917969 0.843994 0.924316 0.80957 0.917969 0.843994 0.934326 0.899902 0.899902 0.885742 0.899902 0.885742 0.934326 0.899902 0.88501 0.928223 0.924316 0.80957 0.917969 0.843994 0.890381 0.830566 0.890381 0.830566 0.917969 0.843994 0.899902 0.885742 0.924316 0.80957 0.890381 0.830566 0.89502 0.778809 0.899902 0.885742 0.88501 0.928223 0.876953 0.894287 0.899902 0.885742 0.876953 0.894287 0.890381 0.830566 0.890381 0.830566 0.876953 0.894287 0.863037 0.844238 0.863037 0.844238 0.876953 0.894287 0.851318 0.898682 0.065674 0.08252 0.023682 0.161621 0.0354 0.099609 0.065674 0.08252 0.0354 0.099609 0.024658 0.056152 0.065674 0.08252 0.024658 0.056152 0.022949 0.020752 0.065674 0.08252 0.022949 0.020752 0.093994 0.058838 0.065674 0.08252 0.093994 0.058838 0.156494 0.079346 0.156494 0.079346 0.093994 0.058838 0.095215 0.027588 0.446289 0.854004 0.42041 0.810547 0.491211 0.803467 0.42041 0.810547 0.446289 0.854004 0.388672 0.880127 0.42041 0.810547 0.388672 0.880127 0.356934 0.837402 0.388672 0.880127 0.446289 0.854004 0.45874 0.905273 0.388672 0.880127 0.45874 0.905273 0.415527 0.921875 0.415527 0.921875 0.45874 0.905273 0.45752 0.965576 0.415527 0.921875 0.45752 0.965576 0.380859 0.95874 0.45752 0.965576 0.45874 0.905273 0.497314 0.928467 0.45874 0.905273 0.446289 0.854004 0.514404 0.876465 0.45874 0.905273 0.514404 0.876465 0.497314 0.928467 0.514404 0.876465 0.446289 0.854004 0.491211 0.803467 0.497314 0.928467 0.514404 0.876465 0.55249 0.866943 0.497314 0.928467 0.55249 0.866943 0.558838 0.921143 0.558838 0.921143 0.55249 0.866943 0.595947 0.887939 0.595947 0.887939 0.55249 0.866943 0.591309 0.845947 0.55249 0.866943 0.514404 0.876465 0.540039 0.793213 0.55249 0.866943 0.540039 0.793213 0.591309 0.845947 0.540039 0.793213 0.514404 0.876465 0.491211 0.803467 0.540039 0.793213 0.491211 0.803467 0.515869 0.718018 0.591309 0.845947 0.540039 0.793213 0.583252 0.792969 0.583252 0.792969 0.540039 0.793213 0.575684 0.749268 0.55542 0.188721 0.587402 0.230225 0.552979 0.233643 0.587402 0.230225 0.55542 0.188721 0.621826 0.179199 0.55542 0.188721 0.552979 0.233643 0.507812 0.233643 0.621826 0.179199 0.55542 0.188721 0.585938 0.125977 0.55542 0.188721 0.507812 0.233643 0.493896 0.198242 0.582275 0.05542 0.614502 0.080078 0.585938 0.125977 0.582275 0.05542 0.585938 0.125977 0.531738 0.087891 0.585938 0.125977 0.55542 0.188721 0.539307 0.152344 0.585938 0.125977 0.539307 0.152344 0.531738 0.087891 0.539307 0.152344 0.55542 0.188721 0.493896 0.198242 0.531738 0.087891 0.539307 0.152344 0.479004 0.144531 0.479004 0.144531 0.539307 0.152344 0.493896 0.198242 0.531738 0.087891 0.479004 0.144531 0.494141 0.093506 0.454346 0.200439 0.493896 0.198242 0.446777 0.227783 0.493896 0.198242 0.454346 0.200439 0.479004 0.144531 0.479004 0.144531 0.454346 0.200439 0.421875 0.157227 0.479004 0.144531 0.421875 0.157227 0.41626 0.110596 0.494141 0.093506 0.479004 0.144531 0.470459 0.108643 0.470459 0.108643 0.479004 0.144531 0.41626 0.110596 0.494141 0.093506 0.470459 0.108643 0.447998 0.056152 0.447998 0.056152 0.470459 0.108643 0.41626 0.110596 0.821289 0.000244 0.867676 0.016357 0.876465 0.054932 0.876465 0.054932 0.867676 0.016357 0.91333 0.01416 0.821289 0.000244 0.876465 0.054932 0.80542 0.070801 0.876465 0.054932 0.91333 0.01416 0.94873 0.072754 0.754639 0.090332 0.80542 0.070801 0.776367 0.143555 0.776367 0.143555 0.80542 0.070801 0.854248 0.130371 0.854248 0.130371 0.80542 0.070801 0.865479 0.112061 0.865479 0.112061 0.80542 0.070801 0.876465 0.054932 0.854248 0.130371 0.865479 0.112061 0.86377 0.150879 0.986816 0.074463 0.983887 0.109619 0.94873 0.072754 0.94873 0.072754 0.983887 0.109619 0.955811 0.123779 0.90918 0.10376 0.876465 0.054932 0.94873 0.072754 0.90918 0.10376 0.94873 0.072754 0.955811 0.123779 0.876465 0.054932 0.90918 0.10376 0.865479 0.112061 0.90918 0.10376 0.955811 0.123779 0.943115 0.136719 0.865479 0.112061 0.90918 0.10376 0.890625 0.131104 0.890625 0.131104 0.90918 0.10376 0.943115 0.136719 0.865479 0.112061 0.890625 0.131104 0.86377 0.150879 0.86377 0.150879 0.890625 0.131104 0.887451 0.147217 0.86377 0.150879 0.887451 0.147217 0.889893 0.162842 0.86377 0.150879 0.889893 0.162842 0.893066 0.179932 0.887451 0.147217 0.890625 0.131104 0.912109 0.150879 0.912109 0.150879 0.890625 0.131104 0.943115 0.136719 0.887451 0.147217 0.912109 0.150879 0.889893 0.162842 0.912109 0.150879 0.943115 0.136719 0.894531 0.179443 0.912109 0.150879 0.894531 0.179443 0.889893 0.162842 0.347168 0.157227 0.364258 0.20459 0.320068 0.174316 0.347168 0.157227 0.320068 0.174316 0.305664 0.132324 0.347168 0.157227 0.305664 0.132324 0.359619 0.108887 0.359619 0.108887 0.305664 0.132324 0.313477 0.0896 0.359619 0.108887 0.313477 0.0896 0.336182 0.0354 0.313477 0.0896 0.305664 0.132324 0.260742 0.122559 0.336182 0.0354 0.313477 0.0896 0.282959 0.051758 0.282959 0.051758 0.313477 0.0896 0.260742 0.122559 0.720703 0.399414 0.681396 0.35498 0.720703 0.348633 0.718994 0.457031 0.678223 0.420654 0.720703 0.399414 0.720703 0.399414 0.678223 0.420654 0.67334 0.390381 0.720703 0.399414 0.67334 0.390381 0.681396 0.35498 0.67334 0.390381 0.678223 0.420654 0.637695 0.37793 0.67334 0.390381 0.637695 0.37793 0.681396 0.35498 0.637695 0.37793 0.678223 0.420654 0.639404 0.430908 0.720703 0.348633 0.681396 0.35498 0.6875 0.29248 0.720703 0.348633 0.6875 0.29248 0.71875 0.303223 0.681396 0.35498 0.637695 0.37793 0.655029 0.316406 0.681396 0.35498 0.655029 0.316406 0.6875 0.29248 0.71875 0.303223 0.6875 0.29248 0.716553 0.27124 0.716553 0.27124 0.6875 0.29248 0.674072 0.226562 0.716553 0.27124 0.674072 0.226562 0.70874 0.228516 0.674072 0.226562 0.6875 0.29248 0.643555 0.273926 0.643555 0.273926 0.6875 0.29248 0.655029 0.316406 0.674072 0.226562 0.643555 0.273926 0.629639 0.217773 0.629639 0.217773 0.643555 0.273926 0.577881 0.250244 0.617188 0.335449 0.655029 0.316406 0.637695 0.37793 0.655029 0.316406 0.617188 0.335449 0.643555 0.273926 0.617188 0.335449 0.637695 0.37793 0.580078 0.37207 0.617188 0.335449 0.580078 0.37207 0.547363 0.323242 0.643555 0.273926 0.617188 0.335449 0.596191 0.294189 0.643555 0.273926 0.596191 0.294189 0.577881 0.250244 0.596191 0.294189 0.617188 0.335449 0.547363 0.323242 0.596191 0.294189 0.547363 0.323242 0.577881 0.250244 0.577881 0.250244 0.547363 0.323242 0.528076 0.27002 0.06665 0.616943 0.018555 0.59082 0.06665 0.569824 0.06665 0.616943 0.06665 0.569824 0.099609 0.594482 0.06665 0.569824 0.018555 0.59082 0.061035 0.537354 0.061035 0.537354 0.018555 0.59082 0.011719 0.55542 0.061035 0.537354 0.011719 0.55542 0.054443 0.451172 0.061035 0.537354 0.054443 0.451172 0.104248 0.486816 0.06665 0.569824 0.061035 0.537354 0.090088 0.546143 0.06665 0.569824 0.090088 0.546143 0.099609 0.594482 0.090088 0.546143 0.061035 0.537354 0.104248 0.486816 0.090088 0.546143 0.104248 0.486816 0.131592 0.523926 0.090088 0.546143 0.131592 0.523926 0.099609 0.594482 0.131592 0.523926 0.104248 0.486816 0.143066 0.449463 0.131592 0.523926 0.143066 0.449463 0.168213 0.502197 0.099609 0.594482 0.131592 0.523926 0.12915 0.593018 0.099609 0.594482 0.12915 0.593018 0.122559 0.642578 0.122559 0.642578 0.12915 0.593018 0.17041 0.612305 0.12915 0.593018 0.131592 0.523926 0.162109 0.55249 0.12915 0.593018 0.162109 0.55249 0.17041 0.612305 0.162109 0.55249 0.131592 0.523926 0.168213 0.502197 0.17041 0.612305 0.162109 0.55249 0.216064 0.562988 0.216064 0.562988 0.162109 0.55249 0.168213 0.502197 0.17041 0.612305 0.216064 0.562988 0.227539 0.627197 0.227539 0.627197 0.216064 0.562988 0.253418 0.579346 0.227539 0.627197 0.253418 0.579346 0.276123 0.638916 0.253418 0.579346 0.216064 0.562988 0.264893 0.5354 0.216064 0.562988 0.168213 0.502197 0.242432 0.506104 0.216064 0.562988 0.242432 0.506104 0.264893 0.5354 0.242432 0.506104 0.168213 0.502197 0.193115 0.450439 0.264893 0.5354 0.242432 0.506104 0.278564 0.496094 0.264893 0.5354 0.278564 0.496094 0.305664 0.532471 0.278564 0.496094 0.242432 0.506104 0.276611 0.45752 0.688721 0.135742 0.707275 0.04834 0.746094 0.153564 0.139893 0.141357 0.13623 0.089355 0.166748 0.134521 0.139893 0.141357 0.166748 0.134521 0.183838 0.191406 0.183838 0.191406 0.166748 0.134521 0.207275 0.145996 0.207275 0.145996 0.166748 0.134521 0.19751 0.093994 0.207275 0.145996 0.19751 0.093994 0.24292 0.125488 0.207275 0.145996 0.24292 0.125488 0.255615 0.175781 0.255615 0.175781 0.24292 0.125488 0.304443 0.162109 0.207275 0.145996 0.255615 0.175781 0.227783 0.19165 0.207275 0.145996 0.227783 0.19165 0.183838 0.191406 0.227783 0.19165 0.255615 0.175781 0.268799 0.211182 0.227783 0.19165 0.268799 0.211182 0.233643 0.236328 0.227783 0.19165 0.233643 0.236328 0.207275 0.234619 0.227783 0.19165 0.207275 0.234619 0.183838 0.191406 0.183838 0.191406 0.207275 0.234619 0.155518 0.249023 0.183838 0.191406 0.155518 0.249023 0.135254 0.209229 0.183838 0.191406 0.135254 0.209229 0.139893 0.141357 0.135254 0.209229 0.155518 0.249023 0.113037 0.247314 0.113037 0.247314 0.155518 0.249023 0.122559 0.291504 0.113037 0.247314 0.122559 0.291504 0.074463 0.281494 0.113037 0.247314 0.074463 0.281494 0.085693 0.213135 0.113037 0.247314 0.085693 0.213135 0.135254 0.209229 0.085693 0.213135 0.074463 0.281494 0.053223 0.246826 0.139893 0.141357 0.135254 0.209229 0.110107 0.16748 0.110107 0.16748 0.135254 0.209229 0.085693 0.213135 0.139893 0.141357 0.110107 0.16748 0.074951 0.116699 0.074951 0.116699 0.110107 0.16748 0.06665 0.172852 0.06665 0.172852 0.110107 0.16748 0.085693 0.213135 0.085693 0.213135 0.053223 0.246826 0.030029 0.186523 0.085693 0.213135 0.030029 0.186523 0.06665 0.172852 0.030029 0.186523 0.053223 0.246826 0.021729 0.237549 0.06665 0.172852 0.030029 0.186523 0.046875 0.142822 0.019775 0.294678 0.064209 0.290771 0.033203 0.339355 0.033203 0.339355 0.064209 0.290771 0.077148 0.332275 0.077148 0.332275 0.064209 0.290771 0.124268 0.302246 0.033203 0.339355 0.077148 0.332275 0.096191 0.392578 0.033203 0.339355 0.096191 0.392578 0.050781 0.392822 0.050781 0.392822 0.096191 0.392578 0.065674 0.435059 0.065674 0.435059 0.096191 0.392578 0.115479 0.447021 0.115479 0.447021 0.096191 0.392578 0.171631 0.43042 0.096191 0.392578 0.077148 0.332275 0.13623 0.382324 0.096191 0.392578 0.13623 0.382324 0.171631 0.43042 0.13623 0.382324 0.077148 0.332275 0.124268 0.302246 0.171631 0.43042 0.13623 0.382324 0.197021 0.394043 0.171631 0.43042 0.197021 0.394043 0.228027 0.450195 0.228027 0.450195 0.197021 0.394043 0.246338 0.398926 0.246338 0.398926 0.197021 0.394043 0.257812 0.331787 0.197021 0.394043 0.13623 0.382324 0.19043 0.332764 0.19043 0.332764 0.13623 0.382324 0.124268 0.302246 0.197021 0.394043 0.19043 0.332764 0.257812 0.331787 0.19043 0.332764 0.124268 0.302246 0.195557 0.278564 0.19043 0.332764 0.195557 0.278564 0.257812 0.331787 0.257812 0.331787 0.195557 0.278564 0.268066 0.276611 0.056152 0.950928 0.015137 0.9021 0.088379 0.914551 0.088379 0.914551 0.015137 0.9021 0.015625 0.858887 0.056152 0.950928 0.088379 0.914551 0.097168 0.957275 0.097168 0.957275 0.088379 0.914551 0.137695 0.962158 0.088379 0.914551 0.015625 0.858887 0.054688 0.847656 0.137695 0.962158 0.088379 0.914551 0.139404 0.917725 0.056152 0.779541 0.054688 0.847656 0.021973 0.816406 0.054688 0.847656 0.056152 0.779541 0.105713 0.801025 0.137695 0.962158 0.139404 0.917725 0.177734 0.964111 0.054688 0.847656 0.105713 0.801025 0.101074 0.862549 0.054688 0.847656 0.101074 0.862549 0.088379 0.914551 0.088379 0.914551 0.101074 0.862549 0.139404 0.917725 0.101074 0.862549 0.105713 0.801025 0.139648 0.820557 0.139404 0.917725 0.101074 0.862549 0.13916 0.868896 0.13916 0.868896 0.101074 0.862549 0.139648 0.820557 0.177734 0.964111 0.139404 0.917725 0.183594 0.930908 0.177734 0.964111 0.183594 0.930908 0.212158 0.965332 0.139404 0.917725 0.13916 0.868896 0.166992 0.866211 0.166992 0.866211 0.13916 0.868896 0.139648 0.820557 0.139404 0.917725 0.166992 0.866211 0.183594 0.930908 0.166992 0.866211 0.139648 0.820557 0.182373 0.825928 0.212158 0.965332 0.183594 0.930908 0.217529 0.891357 0.217529 0.891357 0.183594 0.930908 0.166992 0.866211 0.217529 0.891357 0.166992 0.866211 0.182373 0.825928 0.212158 0.965332 0.217529 0.891357 0.259277 0.933838 0.217529 0.891357 0.182373 0.825928 0.234131 0.841064 0.234131 0.841064 0.182373 0.825928 0.196777 0.77002 0.259277 0.933838 0.217529 0.891357 0.267822 0.906494 0.267822 0.906494 0.217529 0.891357 0.234131 0.841064 0.259277 0.933838 0.267822 0.906494 0.302246 0.930908 0.267822 0.906494 0.234131 0.841064 0.280029 0.86499 0.267822 0.906494 0.280029 0.86499 0.302246 0.930908 0.280029 0.86499 0.234131 0.841064 0.301025 0.816406 0.302246 0.930908 0.280029 0.86499 0.327881 0.86084 0.327881 0.86084 0.280029 0.86499 0.301025 0.816406 0.861084 0.217041 0.873291 0.233887 0.830322 0.216309 0.830322 0.216309 0.873291 0.233887 0.865967 0.273193 0.861084 0.217041 0.830322 0.216309 0.837402 0.165039 0.830322 0.216309 0.865967 0.273193 0.791992 0.258301 0.791992 0.258301 0.865967 0.273193 0.813477 0.331543 0.791992 0.258301 0.813477 0.331543 0.753662 0.321777 0.830322 0.216309 0.791992 0.258301 0.785645 0.199951 0.785645 0.199951 0.791992 0.258301 0.766846 0.169922 0.766846 0.169922 0.791992 0.258301 0.692139 0.207275 0.766846 0.169922 0.692139 0.207275 0.674316 0.145752 0.785645 0.199951 0.766846 0.169922 0.796387 0.169678 0.830322 0.216309 0.785645 0.199951 0.810059 0.191406 0.810059 0.191406 0.785645 0.199951 0.796387 0.169678 0.830322 0.216309 0.810059 0.191406 0.837402 0.165039 0.810059 0.191406 0.796387 0.169678 0.82666 0.159424 0.810059 0.191406 0.82666 0.159424 0.837402 0.165039 0.837402 0.165039 0.82666 0.159424 0.847656 0.142334 0.785156 0.912354 0.744873 0.960449 0.721436 0.934326 0.744873 0.960449 0.785156 0.912354 0.808838 0.94751 0.657715 0.931152 0.679443 0.901855 0.721436 0.934326 0.785156 0.912354 0.721436 0.934326 0.763672 0.902588 0.763672 0.902588 0.721436 0.934326 0.679443 0.901855 0.785156 0.912354 0.763672 0.902588 0.784912 0.880371 0.763672 0.902588 0.679443 0.901855 0.723877 0.878906 0.763672 0.902588 0.723877 0.878906 0.784912 0.880371 0.723877 0.878906 0.679443 0.901855 0.655029 0.851318 0.785156 0.912354 0.784912 0.880371 0.831299 0.896484 0.723877 0.878906 0.655029 0.851318 0.767578 0.843506 0.723877 0.878906 0.767578 0.843506 0.784912 0.880371 0.767578 0.843506 0.655029 0.851318 0.654297 0.818848 0.767578 0.843506 0.654297 0.818848 0.710205 0.799805 0.831299 0.896484 0.784912 0.880371 0.807129 0.845703 0.807129 0.845703 0.784912 0.880371 0.767578 0.843506 0.831299 0.896484 0.807129 0.845703 0.83667 0.8479 0.767578 0.843506 0.710205 0.799805 0.787598 0.799805 0.767578 0.843506 0.787598 0.799805 0.807129 0.845703 0.83667 0.8479 0.807129 0.845703 0.837646 0.810059 0.837646 0.810059 0.807129 0.845703 0.787598 0.799805 0.83667 0.8479 0.837646 0.810059 0.868164 0.825684 0.868164 0.825684 0.837646 0.810059 0.873535 0.770752 0.873535 0.770752 0.837646 0.810059 0.814697 0.774414 0.814697 0.774414 0.837646 0.810059 0.787598 0.799805 0.873535 0.770752 0.814697 0.774414 0.861816 0.751221 0.861816 0.751221 0.814697 0.774414 0.810303 0.735352 0.814697 0.774414 0.787598 0.799805 0.749023 0.75415 0.814697 0.774414 0.749023 0.75415 0.810303 0.735352 0.749023 0.75415 0.787598 0.799805 0.710205 0.799805 0.810303 0.735352 0.749023 0.75415 0.744873 0.713379 0.749023 0.75415 0.710205 0.799805 0.671387 0.734375 0.749023 0.75415 0.671387 0.734375 0.744873 0.713379 0.867188 0.568848 0.814941 0.572754 0.864746 0.512451 0.814941 0.572754 0.867188 0.568848 0.835938 0.611572 0.864746 0.512451 0.814941 0.572754 0.802246 0.526367 0.802246 0.526367 0.814941 0.572754 0.767822 0.552246 0.864746 0.512451 0.802246 0.526367 0.843262 0.480469 0.802246 0.526367 0.767822 0.552246 0.768066 0.51416 0.768066 0.51416 0.767822 0.552246 0.739258 0.547119 0.843262 0.480469 0.802246 0.526367 0.803467 0.494629 0.803467 0.494629 0.802246 0.526367 0.768066 0.51416 0.768066 0.51416 0.739258 0.547119 0.719971 0.489502 0.719971 0.489502 0.739258 0.547119 0.712891 0.530273 0.719971 0.489502 0.712891 0.530273 0.687012 0.51001 0.719971 0.489502 0.687012 0.51001 0.684082 0.481689 0.768066 0.51416 0.719971 0.489502 0.771973 0.472656 0.768066 0.51416 0.771973 0.472656 0.803467 0.494629 0.771973 0.472656 0.719971 0.489502 0.738525 0.432129 0.771973 0.472656 0.738525 0.432129 0.789551 0.408691 0.803467 0.494629 0.771973 0.472656 0.8396 0.428711 0.8396 0.428711 0.771973 0.472656 0.789551 0.408691 0.803467 0.494629 0.8396 0.428711 0.843262 0.480469 0.843262 0.480469 0.8396 0.428711 0.872314 0.448486 0.8396 0.428711 0.789551 0.408691 0.839844 0.377197 0.8396 0.428711 0.839844 0.377197 0.872314 0.372803 0.839844 0.377197 0.789551 0.408691 0.807861 0.342285 0.844238 0.693604 0.875488 0.743408 0.824951 0.728271 0.844238 0.693604 0.824951 0.728271 0.80957 0.687012 0.875488 0.743408 0.844238 0.693604 0.880371 0.693848 0.844238 0.693604 0.80957 0.687012 0.84375 0.639893 0.844238 0.693604 0.84375 0.639893 0.880371 0.693848 0.84375 0.639893 0.80957 0.687012 0.792725 0.644775 0.875488 0.743408 0.880371 0.693848 0.904053 0.746826 0.904053 0.746826 0.880371 0.693848 0.938232 0.709961 0.880371 0.693848 0.84375 0.639893 0.891357 0.644043 0.880371 0.693848 0.891357 0.644043 0.938232 0.709961 0.891357 0.644043 0.84375 0.639893 0.865479 0.593018 0.904053 0.746826 0.938232 0.709961 0.930664 0.760254 0.930664 0.760254 0.938232 0.709961 0.975342 0.727295 0.930664 0.760254 0.975342 0.727295 0.959961 0.778564 0.975342 0.727295 0.938232 0.709961 0.999756 0.680176 0.999756 0.680176 0.938232 0.709961 0.947754 0.665283 0.947754 0.665283 0.938232 0.709961 0.891357 0.644043 0.999756 0.680176 0.947754 0.665283 0.986816 0.618896 0.891357 0.644043 0.865479 0.593018 0.9104 0.607666 0.891357 0.644043 0.9104 0.607666 0.947754 0.665283 0.947754 0.665283 0.9104 0.607666 0.986816 0.618896 0.9104 0.607666 0.865479 0.593018 0.905029 0.58374 0.986816 0.618896 0.9104 0.607666 0.959961 0.572754 0.959961 0.572754 0.9104 0.607666 0.905029 0.58374 0.959961 0.572754 0.905029 0.58374 0.935059 0.533936 0.401367 0.76709 0.404297 0.803955 0.379883 0.778076 0.401367 0.76709 0.379883 0.778076 0.383057 0.734131 0.404297 0.803955 0.401367 0.76709 0.434814 0.759521 0.404297 0.803955 0.434814 0.759521 0.458008 0.790527 0.458008 0.790527 0.434814 0.759521 0.457275 0.748535 0.434814 0.759521 0.401367 0.76709 0.437256 0.717041 0.434814 0.759521 0.437256 0.717041 0.457275 0.748535 0.437256 0.717041 0.401367 0.76709 0.383057 0.734131 0.457275 0.748535 0.437256 0.717041 0.472168 0.714111 0.472168 0.714111 0.437256 0.717041 0.443604 0.675049 0.437256 0.717041 0.383057 0.734131 0.393066 0.69043 0.437256 0.717041 0.393066 0.69043 0.443604 0.675049 0.393066 0.69043 0.383057 0.734131 0.34082 0.710205 0.393066 0.69043 0.34082 0.710205 0.360596 0.622803 0.443604 0.675049 0.393066 0.69043 0.428711 0.650146 0.428711 0.650146 0.393066 0.69043 0.360596 0.622803 0.443604 0.675049 0.428711 0.650146 0.469971 0.646484 0.443604 0.675049 0.469971 0.646484 0.484375 0.658203 0.428711 0.650146 0.360596 0.622803 0.406738 0.616455 0.406738 0.616455 0.360596 0.622803 0.30957 0.618896 0.469971 0.646484 0.428711 0.650146 0.452393 0.608154 0.452393 0.608154 0.428711 0.650146 0.406738 0.616455 0.469971 0.646484 0.452393 0.608154 0.476807 0.615479 0.406738 0.616455 0.30957 0.618896 0.311768 0.578857 0.406738 0.616455 0.311768 0.578857 0.342773 0.552246 0.452393 0.608154 0.406738 0.616455 0.420654 0.593018 0.420654 0.593018 0.406738 0.616455 0.342773 0.552246 0.420654 0.593018 0.342773 0.552246 0.406006 0.552246 0.406006 0.552246 0.342773 0.552246 0.370605 0.514404 0.452393 0.608154 0.420654 0.593018 0.445312 0.577393 0.445312 0.577393 0.420654 0.593018 0.406006 0.552246 0.452393 0.608154 0.445312 0.577393 0.485596 0.569336 0.445312 0.577393 0.406006 0.552246 0.427979 0.5354 0.485596 0.569336 0.445312 0.577393 0.45874 0.549316 0.45874 0.549316 0.445312 0.577393 0.427979 0.5354 0.463623 0.499756 0.476807 0.53833 0.435303 0.507812 0.476807 0.53833 0.463623 0.499756 0.514404 0.493408 0.476807 0.53833 0.514404 0.493408 0.543213 0.550293 0.476807 0.53833 0.543213 0.550293 0.510986 0.582764 0.510986 0.582764 0.543213 0.550293 0.537354 0.581543 0.543213 0.550293 0.514404 0.493408 0.565186 0.530518 0.565186 0.530518 0.514404 0.493408 0.558838 0.464355 0.565186 0.530518 0.558838 0.464355 0.596191 0.501709 0.596191 0.501709 0.558838 0.464355 0.589355 0.428955 0.589355 0.428955 0.558838 0.464355 0.54248 0.404785 0.589355 0.428955 0.54248 0.404785 0.560547 0.375 0.558838 0.464355 0.514404 0.493408 0.512207 0.44165 0.558838 0.464355 0.512207 0.44165 0.54248 0.404785 0.512207 0.44165 0.514404 0.493408 0.463623 0.499756 0.54248 0.404785 0.512207 0.44165 0.498291 0.388672 0.498291 0.388672 0.512207 0.44165 0.473877 0.410156 0.512207 0.44165 0.463623 0.499756 0.450195 0.456299 0.512207 0.44165 0.450195 0.456299 0.473877 0.410156 0.450195 0.456299 0.463623 0.499756 0.435303 0.507812 0.473877 0.410156 0.450195 0.456299 0.427002 0.415283 0.473877 0.410156 0.427002 0.415283 0.46167 0.355713 0.450195 0.456299 0.435303 0.507812 0.409424 0.453125 0.450195 0.456299 0.409424 0.453125 0.427002 0.415283 0.409424 0.453125 0.435303 0.507812 0.403809 0.494385 0.409424 0.453125 0.403809 0.494385 0.363525 0.467285 0.427002 0.415283 0.409424 0.453125 0.37207 0.400635 0.409424 0.453125 0.363525 0.467285 0.35376 0.443848 0.409424 0.453125 0.35376 0.443848 0.37207 0.400635 0.37207 0.400635 0.35376 0.443848 0.324463 0.41333 0.653564 0.768555 0.690918 0.790039 0.61377 0.791992 0.653564 0.768555 0.61377 0.791992 0.594238 0.736328 0.653564 0.768555 0.594238 0.736328 0.621582 0.709961 0.653564 0.768555 0.621582 0.709961 0.663818 0.721924 0.663818 0.721924 0.621582 0.709961 0.686768 0.701904 0.621582 0.709961 0.594238 0.736328 0.580322 0.699707 0.580322 0.699707 0.594238 0.736328 0.540527 0.738037 0.686768 0.701904 0.621582 0.709961 0.648926 0.662842 0.686768 0.701904 0.648926 0.662842 0.70874 0.649658 0.621582 0.709961 0.580322 0.699707 0.604492 0.67627 0.621582 0.709961 0.604492 0.67627 0.648926 0.662842 0.604492 0.67627 0.580322 0.699707 0.548828 0.652588 0.648926 0.662842 0.604492 0.67627 0.594238 0.637695 0.594238 0.637695 0.604492 0.67627 0.548828 0.652588 0.70874 0.649658 0.648926 0.662842 0.648926 0.624756 0.648926 0.624756 0.648926 0.662842 0.594238 0.637695 0.70874 0.649658 0.648926 0.624756 0.69165 0.590332 0.548828 0.652588 0.580322 0.699707 0.523438 0.67749 0.548828 0.652588 0.523438 0.67749 0.508545 0.641846 0.508545 0.641846 0.523438 0.67749 0.482178 0.638428 0.548828 0.652588 0.508545 0.641846 0.520752 0.611816 0.548828 0.652588 0.520752 0.611816 0.548828 0.599365 0.548828 0.652588 0.548828 0.599365 0.594238 0.637695 0.594238 0.637695 0.548828 0.599365 0.588623 0.583496 0.594238 0.637695 0.588623 0.583496 0.63501 0.585205 0.594238 0.637695 0.63501 0.585205 0.648926 0.624756 0.648926 0.624756 0.63501 0.585205 0.69165 0.590332 0.63501 0.585205 0.588623 0.583496 0.640625 0.527344 0.63501 0.585205 0.640625 0.527344 0.69165 0.590332 0.69165 0.590332 0.640625 0.527344 0.709717 0.543701</float_array>
          <technique_common>
            <accessor source="#Potatoes-mesh-map-0-array" count="1500" stride="2">
              <param name="S" type="float"/>
              <param name="T" type="float"/>
            </accessor>
          </technique_common>
        </source>
        <vertices id="Potatoes-mesh-vertices">
          <input semantic="POSITION" source="#Potatoes-mesh-positions"/>
        </vertices>
        <polylist material="Material_-1-material" count="6">
          <input semantic="VERTEX" source="#Potatoes-mesh-vertices" offset="0"/>
          <input semantic="NORMAL" source="#Potatoes-mesh-normals" offset="1"/>
          <input semantic="TEXCOORD" source="#Potatoes-mesh-map-0" offset="2" set="0"/>
          <vcount>3 3 3 3 3 3 3 3 3 3 3 3 3 3 3 3 3 3 3 3 3 3 3 3 3 3 3 3 3 3 3 3 3 3 3 3 3 3 3 3 3 3 3 3 3 3 3 3 3 3 3 3 3 3 3 3 3 3 3 3 3 3 3 3 3 3 3 3 3 3 3 3 3 3 3 3 3 3 3 3 3 3 3 3 3 3 3 3 3 3 3 3 3 3 3 3 3 3 3 3 3 3 3 3 3 3 3 3 3 3 3 3 3 3 3 3 3 3 3 3 3 3 3 3 3 3 3 3 3 3 3 3 3 3 3 3 3 3 3 3 3 3 3 3 3 3 3 3 3 3 3 3 3 3 3 3 3 3 3 3 3 3 3 3 3 3 3 3 3 3 3 3 3 3 3 3 3 3 3 3 3 3 3 3 3 3 3 3 3 3 3 3 3 3 3 3 3 3 3 3 3 3 3 3 3 3 3 3 3 3 3 3 3 3 3 3 3 3 3 3 3 3 3 3 3 3 3 3 3 3 3 3 3 3 3 3 3 3 3 3 3 3 3 3 3 3 3 3 3 3 3 3 3 3 3 3 3 3 3 3 3 3 3 3 3 3 3 3 3 3 3 3 3 3 3 3 3 3 3 3 3 3 3 3 3 3 3 3 3 3 3 3 3 3 3 3 3 3 3 3 3 3 3 3 3 3 3 3 3 3 3 3 3 3 3 3 3 3 3 3 3 3 3 3 3 3 3 3 3 3 3 3 3 3 3 3 3 3 3 3 3 3 3 3 3 3 3 3 3 3 3 3 3 3 3 3 3 3 3 3 3 3 3 3 3 3 3 3 3 3 3 3 3 3 3 3 3 3 3 3 3 3 3 3 3 3 3 3 3 3 3 3 3 3 3 3 3 3 3 3 3 3 3 3 3 3 3 3 3 3 3 3 3 3 3 3 3 3 3 3 3 3 3 3 3 3 3 3 3 3 3 3 3 3 3 3 3 3 3 3 3 3 3 3 3 3 3 3 3 3 3 3 3 3 3 3 3 3 3 3 3 3 3 3 3 3 3 3 3 3 3 3 3 3 3 3 3 3 3 3 3 3 3 3 3 3 3 3 3 3 3 3 3 3 3 3 3 3 3 3</vcount>
          <p>0 0 0 1 0 1 2 0 2 2 1 3 1 1 4 3 1 5 2 2 6 3 2 7 4 2 8 3 3 9 1 3 10 5 3 11 5 4 12 1 4 13 0 4 14 3 5 15 5 5 16 6 5 17 6 6 18 5 6 19 7 6 20 7 7 21 5 7 22 8 7 23 8 8 24 5 8 25 0 8 26 8 9 27 0 9 28 9 9 29 2 10 30 4 10 31 10 10 32 10 11 33 4 11 34 11 11 35 12 12 36 0 12 37 2 12 38 12 13 39 2 13 40 10 13 41 9 14 42 0 14 43 13 14 44 13 15 45 0 15 46 12 15 47 9 16 48 13 16 49 14 16 50 12 17 51 10 17 52 15 17 53 12 18 54 15 18 55 13 18 56 16 19 57 10 19 58 11 19 59 10 20 60 16 20 61 15 20 62 16 21 63 11 21 64 17 21 65 16 22 66 17 22 67 18 22 68 16 23 69 18 23 70 19 23 71 15 24 72 16 24 73 20 24 74 15 25 75 20 25 76 21 25 77 22 26 78 13 26 79 15 26 80 22 27 81 15 27 82 21 27 83 13 28 84 22 28 85 14 28 86 14 29 87 22 29 88 23 29 89 23 30 90 22 30 91 21 30 92 23 31 93 21 31 94 24 31 95 14 32 96 25 32 97 9 32 98 25 33 99 14 33 100 26 33 101 26 34 102 14 34 103 23 34 104 9 35 105 25 35 106 27 35 107 9 36 108 27 36 109 8 36 110 24 37 111 28 37 112 23 37 113 23 38 114 28 38 115 26 38 116 8 39 117 27 39 118 29 39 119 8 40 120 29 40 121 7 40 122 27 41 123 25 41 124 30 41 125 27 42 126 30 42 127 29 42 128 29 43 129 30 43 130 31 43 131 30 44 132 25 44 133 32 44 134 32 45 135 25 45 136 26 45 137 30 46 138 32 46 139 33 46 140 33 47 141 32 47 142 34 47 143 34 48 144 32 48 145 26 48 146 35 49 147 7 49 148 29 49 149 35 50 150 29 50 151 36 50 152 7 51 153 35 51 154 37 51 155 7 52 156 37 52 157 6 52 158 37 53 159 35 53 160 38 53 161 34 54 162 26 54 163 39 54 164 34 55 165 39 55 166 40 55 167 39 56 168 26 56 169 28 56 170 40 57 171 39 57 172 41 57 173 39 58 174 28 58 175 42 58 176 39 59 177 42 59 178 41 59 179 43 60 180 30 60 181 33 60 182 30 61 183 43 61 184 31 61 185 31 62 186 43 62 187 44 62 188 44 63 189 43 63 190 33 63 191 31 64 192 44 64 193 45 64 194 45 65 195 44 65 196 46 65 197 46 66 198 44 66 199 47 66 200 47 67 201 44 67 202 48 67 203 44 68 204 33 68 205 49 68 206 44 69 207 49 69 208 48 69 209 49 70 210 33 70 211 50 70 212 50 71 213 33 71 214 34 71 215 48 72 216 49 72 217 51 72 218 51 73 219 49 73 220 50 73 221 48 74 222 51 74 223 52 74 224 50 75 225 34 75 226 40 75 227 50 76 228 40 76 229 51 76 230 51 77 231 40 77 232 53 77 233 53 78 234 40 78 235 41 78 236 36 79 237 29 79 238 31 79 239 36 80 240 31 80 241 45 80 242 36 81 243 45 81 244 54 81 245 36 82 246 54 82 247 55 82 248 36 83 249 55 83 250 35 83 251 35 84 252 55 84 253 38 84 254 56 85 255 21 85 256 20 85 257 21 86 258 56 86 259 57 86 260 21 87 261 57 87 262 24 87 263 57 88 264 56 88 265 58 88 266 57 89 267 58 89 268 59 89 269 59 90 270 58 90 271 60 90 272 59 91 273 60 91 274 61 91 275 60 92 276 58 92 277 62 92 278 58 93 279 56 93 280 63 93 281 58 94 282 63 94 283 62 94 284 63 95 285 56 95 286 20 95 287 62 96 288 63 96 289 64 96 290 62 97 291 64 97 292 65 97 293 65 98 294 64 98 295 66 98 296 66 99 297 64 99 298 67 99 299 64 100 300 63 100 301 19 100 302 64 101 303 19 101 304 67 101 305 19 102 306 63 102 307 20 102 308 19 103 309 20 103 310 16 103 311 67 104 312 19 104 313 68 104 314 68 105 315 19 105 316 18 105 317 69 106 318 24 106 319 57 106 320 24 107 321 69 107 322 28 107 323 69 108 324 57 108 325 59 108 326 28 109 327 69 109 328 42 109 329 69 110 330 59 110 331 61 110 332 70 111 333 41 111 334 42 111 335 70 112 336 42 112 337 71 112 338 42 113 339 69 113 340 72 113 341 42 114 342 72 114 343 71 114 344 72 115 345 69 115 346 61 115 347 71 116 348 72 116 349 73 116 350 73 117 351 72 117 352 61 117 353 71 118 354 73 118 355 74 118 356 75 119 357 61 119 358 60 119 359 61 120 360 75 120 361 73 120 362 73 121 363 75 121 364 76 121 365 73 122 366 76 122 367 77 122 368 74 123 369 73 123 370 78 123 371 78 124 372 73 124 373 77 124 374 74 125 375 78 125 376 79 125 377 79 126 378 78 126 379 77 126 380 75 127 381 60 127 382 80 127 383 80 128 384 60 128 385 62 128 386 75 129 387 80 129 388 81 129 389 80 130 390 62 130 391 65 130 392 82 131 393 81 131 394 83 131 395 83 132 396 81 132 397 84 132 398 84 133 399 81 133 400 85 133 401 85 134 402 81 134 403 80 134 404 84 135 405 85 135 406 86 135 407 66 136 408 87 136 409 65 136 410 65 137 411 87 137 412 88 137 413 89 138 414 80 138 415 65 138 416 89 139 417 65 139 418 88 139 419 80 140 420 89 140 421 85 140 422 89 141 423 88 141 424 90 141 425 85 142 426 89 142 427 91 142 428 91 143 429 89 143 430 90 143 431 85 144 432 91 144 433 86 144 434 86 145 435 91 145 436 92 145 437 86 146 438 92 146 439 93 146 440 86 147 441 93 147 442 94 147 443 92 148 444 91 148 445 95 148 446 95 149 447 91 149 448 90 149 449 92 150 450 95 150 451 93 150 452 95 151 453 90 151 454 96 151 455 95 152 456 96 152 457 93 152 458 76 153 459 75 153 460 81 153 461 76 154 462 81 154 463 82 154 464 76 155 465 82 155 466 77 155 467 77 156 468 82 156 469 97 156 470 77 157 471 97 157 472 98 157 473 97 158 474 82 158 475 83 158 476 98 159 477 97 159 478 99 159 479 99 160 480 97 160 481 83 160 482 3 161 483 100 161 484 4 161 485 6 162 486 101 162 487 3 162 488 3 163 489 101 163 490 102 163 491 3 164 492 102 164 493 100 164 494 102 165 495 101 165 496 103 165 497 102 166 498 103 166 499 100 166 500 103 167 501 101 167 502 104 167 503 4 168 504 100 168 505 105 168 506 4 169 507 105 169 508 11 169 509 100 170 510 103 170 511 106 170 512 100 171 513 106 171 514 105 171 515 11 172 516 105 172 517 17 172 518 17 173 519 105 173 520 107 173 521 17 174 522 107 174 523 18 174 524 107 175 525 105 175 526 108 175 527 108 176 528 105 176 529 106 176 530 107 177 531 108 177 532 109 177 533 109 178 534 108 178 535 110 178 536 111 179 537 106 179 538 103 179 539 106 180 540 111 180 541 108 180 542 111 181 543 103 181 544 112 181 545 111 182 546 112 182 547 113 182 548 108 183 549 111 183 550 114 183 551 108 184 552 114 184 553 110 184 554 114 185 555 111 185 556 113 185 557 114 186 558 113 186 559 110 186 560 110 187 561 113 187 562 115 187 563 101 188 564 6 188 565 116 188 566 101 189 567 116 189 568 104 189 569 116 190 570 6 190 571 117 190 572 117 191 573 6 191 574 37 191 575 117 192 576 37 192 577 118 192 578 117 193 579 118 193 580 119 193 581 116 194 582 117 194 583 120 194 584 116 195 585 120 195 586 104 195 587 120 196 588 117 196 589 119 196 590 120 197 591 119 197 592 121 197 593 120 198 594 121 198 595 104 198 596 121 199 597 119 199 598 122 199 599 121 200 600 122 200 601 123 200 602 104 201 603 121 201 604 124 201 605 104 202 606 124 202 607 103 202 608 103 203 609 124 203 610 112 203 611 124 204 612 121 204 613 125 204 614 124 205 615 125 205 616 112 205 617 125 206 618 121 206 619 123 206 620 112 207 621 125 207 622 126 207 623 126 208 624 125 208 625 123 208 626 112 209 627 126 209 628 113 209 629 113 210 630 126 210 631 127 210 632 113 211 633 127 211 634 115 211 635 127 212 636 126 212 637 128 212 638 126 213 639 123 213 640 129 213 641 126 214 642 129 214 643 128 214 644 129 215 645 123 215 646 130 215 647 128 216 648 129 216 649 131 216 650 128 217 651 131 217 652 132 217 653 131 218 654 129 218 655 133 218 656 118 219 657 37 219 658 38 219 659 130 220 660 123 220 661 122 220 662 130 221 663 122 221 664 134 221 665 134 222 666 122 222 667 135 222 668 135 223 669 122 223 670 119 223 671 135 224 672 119 224 673 118 224 674 135 225 675 118 225 676 136 225 677 136 226 678 118 226 679 38 226 680 135 227 681 136 227 682 137 227 683 135 228 684 137 228 685 134 228 686 137 229 687 136 229 688 138 229 689 137 230 690 138 230 691 139 230 692 137 231 693 139 231 694 140 231 695 137 232 696 140 232 697 134 232 698 134 233 699 140 233 700 141 233 701 134 234 702 141 234 703 142 234 704 134 235 705 142 235 706 130 235 707 142 236 708 141 236 709 143 236 710 143 237 711 141 237 712 144 237 713 143 238 714 144 238 715 145 238 716 143 239 717 145 239 718 146 239 719 143 240 720 146 240 721 142 240 722 146 241 723 145 241 724 147 241 725 130 242 726 142 242 727 148 242 728 148 243 729 142 243 730 146 243 731 130 244 732 148 244 733 129 244 734 129 245 735 148 245 736 133 245 737 133 246 738 148 246 739 146 246 740 146 247 741 147 247 742 149 247 743 146 248 744 149 248 745 133 248 746 149 249 747 147 249 748 150 249 749 133 250 750 149 250 751 131 250 752 18 251 753 107 251 754 68 251 755 68 252 756 107 252 757 151 252 758 151 253 759 107 253 760 109 253 761 68 254 762 151 254 763 152 254 764 68 255 765 152 255 766 67 255 767 67 256 768 152 256 769 66 256 770 66 257 771 152 257 772 87 257 773 87 258 774 152 258 775 153 258 776 152 259 777 151 259 778 154 259 779 152 260 780 154 260 781 153 260 782 154 261 783 151 261 784 109 261 785 153 262 786 154 262 787 155 262 788 153 263 789 155 263 790 156 263 791 156 264 792 155 264 793 157 264 794 157 265 795 155 265 796 158 265 797 155 266 798 154 266 799 159 266 800 159 267 801 154 267 802 109 267 803 155 268 804 159 268 805 158 268 806 159 269 807 109 269 808 110 269 809 159 270 810 110 270 811 158 270 812 158 271 813 110 271 814 115 271 815 115 272 816 127 272 817 160 272 818 160 273 819 127 273 820 128 273 821 115 274 822 160 274 823 158 274 824 158 275 825 160 275 826 157 275 827 160 276 828 128 276 829 132 276 830 157 277 831 160 277 832 161 277 833 149 278 834 132 278 835 131 278 836 132 279 837 149 279 838 162 279 839 157 280 840 161 280 841 156 280 842 132 281 843 162 281 844 163 281 845 132 282 846 163 282 847 160 282 848 160 283 849 163 283 850 161 283 851 163 284 852 162 284 853 164 284 854 161 285 855 163 285 856 165 285 857 165 286 858 163 286 859 164 286 860 156 287 861 161 287 862 166 287 863 156 288 864 166 288 865 167 288 866 161 289 867 165 289 868 168 289 869 168 290 870 165 290 871 164 290 872 161 291 873 168 291 874 166 291 875 168 292 876 164 292 877 169 292 878 167 293 879 166 293 880 170 293 881 170 294 882 166 294 883 168 294 884 170 295 885 168 295 886 169 295 887 167 296 888 170 296 889 171 296 890 170 297 891 169 297 892 172 297 893 172 298 894 169 298 895 173 298 896 171 299 897 170 299 898 174 299 899 174 300 900 170 300 901 172 300 902 171 301 903 174 301 904 83 301 905 174 302 906 172 302 907 175 302 908 174 303 909 175 303 910 83 303 911 175 304 912 172 304 913 176 304 914 83 305 915 175 305 916 99 305 917 99 306 918 175 306 919 176 306 920 90 307 921 88 307 922 177 307 923 177 308 924 88 308 925 87 308 926 90 309 927 177 309 928 96 309 929 177 310 930 87 310 931 167 310 932 167 311 933 87 311 934 153 311 935 167 312 936 153 312 937 156 312 938 177 313 939 167 313 940 178 313 941 178 314 942 167 314 943 84 314 944 84 315 945 167 315 946 171 315 947 84 316 948 171 316 949 83 316 950 178 317 951 84 317 952 86 317 953 177 318 954 178 318 955 179 318 956 179 319 957 178 319 958 86 319 959 177 320 960 179 320 961 96 320 962 179 321 963 86 321 964 94 321 965 179 322 966 94 322 967 96 322 968 96 323 969 94 323 970 93 323 971 180 324 972 51 324 973 53 324 974 51 325 975 180 325 976 52 325 977 41 326 978 70 326 979 53 326 980 180 327 981 53 327 982 181 327 983 181 328 984 53 328 985 70 328 986 180 329 987 181 329 988 182 329 989 181 330 990 70 330 991 183 330 992 181 331 993 183 331 994 182 331 995 183 332 996 70 332 997 71 332 998 180 333 999 182 333 1000 184 333 1001 183 334 1002 71 334 1003 185 334 1004 183 335 1005 185 335 1006 182 335 1007 185 336 1008 71 336 1009 74 336 1010 185 337 1011 74 337 1012 79 337 1013 184 338 1014 182 338 1015 186 338 1016 186 339 1017 182 339 1018 185 339 1019 184 340 1020 186 340 1021 187 340 1022 185 341 1023 79 341 1024 188 341 1025 185 342 1026 188 342 1027 186 342 1028 187 343 1029 186 343 1030 189 343 1031 189 344 1032 186 344 1033 188 344 1034 187 345 1035 189 345 1036 190 345 1037 190 346 1038 189 346 1039 191 346 1040 191 347 1041 189 347 1042 192 347 1043 192 348 1044 189 348 1045 188 348 1046 191 349 1047 192 349 1048 193 349 1049 193 350 1050 192 350 1051 194 350 1052 192 351 1053 188 351 1054 195 351 1055 192 352 1056 195 352 1057 194 352 1058 195 353 1059 188 353 1060 79 353 1061 194 354 1062 195 354 1063 98 354 1064 195 355 1065 79 355 1066 77 355 1067 195 356 1068 77 356 1069 98 356 1070 48 357 1071 196 357 1072 47 357 1073 196 358 1074 48 358 1075 52 358 1076 47 359 1077 196 359 1078 197 359 1079 197 360 1080 196 360 1081 198 360 1082 47 361 1083 197 361 1084 46 361 1085 197 362 1086 198 362 1087 199 362 1088 199 363 1089 198 363 1090 200 363 1091 46 364 1092 197 364 1093 201 364 1094 201 365 1095 197 365 1096 199 365 1097 199 366 1098 200 366 1099 202 366 1100 202 367 1101 200 367 1102 203 367 1103 202 368 1104 203 368 1105 204 368 1106 202 369 1107 204 369 1108 205 369 1109 199 370 1110 202 370 1111 206 370 1112 199 371 1113 206 371 1114 201 371 1115 206 372 1116 202 372 1117 207 372 1118 206 373 1119 207 373 1120 208 373 1121 201 374 1122 206 374 1123 54 374 1124 54 375 1125 206 375 1126 208 375 1127 201 376 1128 54 376 1129 46 376 1130 46 377 1131 54 377 1132 45 377 1133 54 378 1134 208 378 1135 38 378 1136 54 379 1137 38 379 1138 55 379 1139 38 380 1140 208 380 1141 136 380 1142 209 381 1143 198 381 1144 196 381 1145 209 382 1146 196 382 1147 52 382 1148 198 383 1149 209 383 1150 210 383 1151 209 384 1152 52 384 1153 184 384 1154 209 385 1155 184 385 1156 210 385 1157 184 386 1158 52 386 1159 180 386 1160 198 387 1161 210 387 1162 200 387 1163 200 388 1164 210 388 1165 211 388 1166 210 389 1167 184 389 1168 212 389 1169 210 390 1170 212 390 1171 211 390 1172 212 391 1173 184 391 1174 187 391 1175 200 392 1176 211 392 1177 203 392 1178 203 393 1179 211 393 1180 213 393 1181 203 394 1182 213 394 1183 204 394 1184 213 395 1185 211 395 1186 214 395 1187 214 396 1188 211 396 1189 215 396 1190 215 397 1191 211 397 1192 212 397 1193 214 398 1194 215 398 1195 216 398 1196 212 399 1197 187 399 1198 217 399 1199 212 400 1200 217 400 1201 215 400 1202 215 401 1203 217 401 1204 216 401 1205 217 402 1206 187 402 1207 190 402 1208 216 403 1209 217 403 1210 218 403 1211 218 404 1212 217 404 1213 190 404 1214 218 405 1215 190 405 1216 191 405 1217 219 406 1218 98 406 1219 99 406 1220 219 407 1221 99 407 1222 176 407 1223 98 408 1224 219 408 1225 220 408 1226 98 409 1227 220 409 1228 194 409 1229 194 410 1230 220 410 1231 221 410 1232 220 411 1233 219 411 1234 222 411 1235 220 412 1236 222 412 1237 221 412 1238 222 413 1239 219 413 1240 176 413 1241 221 414 1242 222 414 1243 223 414 1244 223 415 1245 222 415 1246 224 415 1247 222 416 1248 176 416 1249 225 416 1250 222 417 1251 225 417 1252 224 417 1253 225 418 1254 176 418 1255 172 418 1256 225 419 1257 172 419 1258 173 419 1259 224 420 1260 225 420 1261 226 420 1262 226 421 1263 225 421 1264 173 421 1265 224 422 1266 226 422 1267 227 422 1268 224 423 1269 227 423 1270 228 423 1271 226 424 1272 173 424 1273 229 424 1274 229 425 1275 173 425 1276 169 425 1277 227 426 1278 226 426 1279 230 426 1280 230 427 1281 226 427 1282 229 427 1283 227 428 1284 230 428 1285 231 428 1286 229 429 1287 169 429 1288 164 429 1289 229 430 1290 164 430 1291 162 430 1292 230 431 1293 229 431 1294 232 431 1295 232 432 1296 229 432 1297 162 432 1298 232 433 1299 162 433 1300 150 433 1301 150 434 1302 162 434 1303 149 434 1304 230 435 1305 232 435 1306 233 435 1307 233 436 1308 232 436 1309 150 436 1310 230 437 1311 233 437 1312 234 437 1313 233 438 1314 150 438 1315 147 438 1316 234 439 1317 233 439 1318 145 439 1319 145 440 1320 233 440 1321 147 440 1322 235 441 1323 214 441 1324 216 441 1325 214 442 1326 235 442 1327 236 442 1328 214 443 1329 236 443 1330 237 443 1331 214 444 1332 237 444 1333 213 444 1334 213 445 1335 237 445 1336 238 445 1337 237 446 1338 236 446 1339 239 446 1340 239 447 1341 236 447 1342 240 447 1343 239 448 1344 240 448 1345 241 448 1346 241 449 1347 240 449 1348 234 449 1349 234 450 1350 240 450 1351 231 450 1352 234 451 1353 231 451 1354 230 451 1355 240 452 1356 236 452 1357 242 452 1358 240 453 1359 242 453 1360 231 453 1361 242 454 1362 236 454 1363 235 454 1364 231 455 1365 242 455 1366 227 455 1367 227 456 1368 242 456 1369 228 456 1370 242 457 1371 235 457 1372 243 457 1373 242 458 1374 243 458 1375 228 458 1376 243 459 1377 235 459 1378 216 459 1379 228 460 1380 243 460 1381 223 460 1382 228 461 1383 223 461 1384 224 461 1385 243 462 1386 216 462 1387 244 462 1388 243 463 1389 244 463 1390 223 463 1391 244 464 1392 216 464 1393 218 464 1394 244 465 1395 218 465 1396 191 465 1397 223 466 1398 244 466 1399 221 466 1400 244 467 1401 191 467 1402 193 467 1403 244 468 1404 193 468 1405 221 468 1406 221 469 1407 193 469 1408 194 469 1409 138 470 1410 136 470 1411 208 470 1412 138 471 1413 208 471 1414 207 471 1415 138 472 1416 207 472 1417 245 472 1418 138 473 1419 245 473 1420 139 473 1421 139 474 1422 245 474 1423 140 474 1424 245 475 1425 207 475 1426 205 475 1427 205 476 1428 207 476 1429 202 476 1430 140 477 1431 245 477 1432 246 477 1433 140 478 1434 246 478 1435 141 478 1436 245 479 1437 205 479 1438 247 479 1439 245 480 1440 247 480 1441 246 480 1442 247 481 1443 205 481 1444 248 481 1445 246 482 1446 247 482 1447 249 482 1448 249 483 1449 247 483 1450 248 483 1451 141 484 1452 246 484 1453 250 484 1454 250 485 1455 246 485 1456 249 485 1457 141 486 1458 250 486 1459 144 486 1460 248 487 1461 205 487 1462 204 487 1463 248 488 1464 204 488 1465 238 488 1466 238 489 1467 204 489 1468 213 489 1469 248 490 1470 238 490 1471 237 490 1472 248 491 1473 237 491 1474 239 491 1475 248 492 1476 239 492 1477 249 492 1478 249 493 1479 239 493 1480 241 493 1481 249 494 1482 241 494 1483 251 494 1484 249 495 1485 251 495 1486 250 495 1487 250 496 1488 251 496 1489 144 496 1490 251 497 1491 241 497 1492 234 497 1493 251 498 1494 234 498 1495 144 498 1496 144 499 1497 234 499 1498 145 499 1499</p>
        </polylist>
      </mesh>
    </geometry>
  </library_geometries>
  <library_visual_scenes>
    <visual_scene id="Scene" name="Scene">
      <node id="Potatoes" name="Potatoes" type="NODE">
        <scale sid="scale">1 1 1</scale>
        <translate sid="location">0 -0.3 0</translate>
        <rotate sid="rotationX">1 0 0 0</rotate>
        <rotate sid="rotationY">0 1 0 0</rotate>
        <rotate sid="rotationZ">0 0 1 0</rotate>
        <instance_geometry url="#Potatoes-mesh" name="Potatoes">
          <bind_material>
            <technique_common>
            </technique_common>
          </bind_material>
        </instance_geometry>
      </node>
    </visual_scene>
  </library_visual_scenes>
  <scene>
    <instance_visual_scene url="#Scene"/>
  </scene>
</COLLADA>
