<?xml version="1.0" encoding="utf-8"?>
<COLLADA xmlns="http://www.collada.org/2005/11/COLLADASchema" version="1.4.1" xmlns:xsi="http://www.w3.org/2001/XMLSchema-instance">
  <asset>
    <contributor>
      <author>Blockbench user</author>
      <authoring_tool>Blockbench</authoring_tool>
    </contributor>
    <created>2026-07-26T10:38:08.332Z</created>
    <modified>2026-07-26T10:38:08.335Z</modified>
    <unit name="meter" meter="1.0"/>
    <up_axis>Y_UP</up_axis>
  </asset>
  <library_effects>
  </library_effects>
  <library_images>
  </library_images>
  <library_materials>
  </library_materials>
  <library_geometries>
    <geometry id="PowerSupplyBox3-mesh" name="PowerSupplyBox3">
      <mesh>
        <source id="PowerSupplyBox3-mesh-positions">
          <float_array id="PowerSupplyBox3-mesh-positions-array" count="720">0.159852 0.501318 -0.079548 0.17731 0.473599 -0.082255 0.168586 0.49221 0.018371 0.174523 0.502192 0.028011 0.172512 0.502255 -0.088131 0.162826 0.502356 0.026804 0.159572 0.459142 -0.080733 -0.167093 0.45773 -0.085908 -0.185428 0.46299 -0.079585 -0.175603 0.462251 0.016167 -0.178751 0.492698 -0.076997 -0.1787 0.492355 0.018389 -0.171755 0.502318 0.027287 -0.172462 0.499522 -0.089773 -0.18347 0.504064 -0.084834 -0.184682 0.502288 0.027341 0.167649 0.462716 0.017732 -0.081919 0.203974 0.096392 -0.034626 0.168524 0.105054 -0.022163 0.230767 0.099371 -0.066985 0.163498 0.098237 -0.036749 0.30247 0.09976 0.067785 0.249442 0.09451 0.040893 0.19681 0.096503 0.075859 0.223961 0.104313 0.078315 0.223114 0.097599 0.072648 0.224765 0.101289 0.07467 0.224982 0.096424 0.020602 0.329595 0.105282 0.025651 0.349107 0.106837 0.168549 0.197594 0.102472 0.17994 0.457731 0.034843 0.162903 0.457778 0.039342 0.296835 0.45345 0.118973 0.17693 0.457888 -0.098696 -0.181682 0.114983 0.117085 -0.181014 0.285557 0.104058 -0.167981 0.346948 0.106399 -0.122116 0.255927 0.095458 -0.103943 0.284273 0.096778 -0.183897 0.145002 0.104725 -0.156158 0.181061 0.10546 -0.092218 0.123356 0.101742 -0.205853 0.062053 0.120263 -0.220015 -0.045971 0.144918 -0.218353 0.071483 0.146735 -0.188692 0.06905 0.144216 -0.192394 -0.037506 0.138287 -0.191542 -0.039178 0.117598 -0.225425 -0.053817 0.11862 -0.222624 0.088932 0.120616 -0.191412 -0.049447 0.146546 -0.188821 0.457727 0.036729 0.078981 0.124939 0.101481 0.17531 0.162702 0.102694 0.168353 0.128201 0.117765 0.175004 0.303963 0.104667 0.17292 0.346504 0.118368 0.159922 0.066948 0.128486 0.213588 0.067408 0.129283 0.183744 0.098297 0.12911 0.182454 0.04674 0.128058 0.01139 0.124892 0.101855 -0.130084 0.308331 -0.227617 -0.228371 0.291625 -0.227498 -0.228738 0.322672 -0.227849 -0.129101 0.285594 -0.227521 -0.30762 0.45341 0.119197 0.296797 0.45352 -0.226106 -0.308868 0.4533 -0.225335 -0.188624 0.457788 -0.097156 -0.181348 0.34708 0.118329 -0.170971 0.457784 0.037947 0.222502 0.325051 -0.227704 0.126083 0.35581 -0.230344 0.220013 0.357151 -0.229733 0.121712 0.325386 -0.227173 0.121782 0.29139 -0.227288 0.222026 0.289227 -0.227669 0.287255 0.409519 -0.225806 0.300061 0.413032 -0.235534 0.289012 0.409391 0.116356 0.300089 0.41287 0.128214 0.293768 0.347586 -0.103238 0.293383 0.348104 0.005333 0.242595 0.401936 0.115494 0.293054 0.291111 0.006475 0.298708 0.320889 -0.00002 0.293477 0.289276 -0.104805 0.293475 0.315186 -0.104564 0.249634 0.308614 0.117177 0.248972 0.27324 0.129065 0.29206 -0.134536 -0.125397 0.291116 -0.039567 0.068744 0.28924 -0.045251 -0.20489 0.281964 0.243448 -0.220685 -0.31442 0.412344 0.129172 -0.256792 0.401128 0.116831 -0.129459 0.330373 -0.227284 -0.227671 0.353325 -0.227847 -0.300958 0.409414 -0.225498 -0.129582 0.351693 -0.22743 -0.296965 0.230035 -0.224063 0.285836 -0.171995 -0.225033 0.206897 -0.109374 -0.226594 0.206179 -0.082239 -0.227349 0.206353 -0.157258 -0.227314 0.114272 -0.107975 -0.226539 0.205542 -0.185928 -0.226819 0.116468 -0.081688 -0.227782 -0.295591 0.065492 -0.223239 0.283709 0.060682 -0.225115 0.114396 -0.164484 -0.226499 -0.129715 -0.158106 -0.226939 0.28881 -0.362107 -0.224767 0.205194 -0.21738 -0.226498 0.11534 -0.21649 -0.226583 0.113539 -0.190057 -0.22677 -0.129509 -0.217802 -0.22667 -0.219785 -0.374124 0.056521 0.165652 -0.37838 0.074801 0.28499 -0.360545 0.112474 0.241948 -0.373569 0.073967 0.255648 -0.371502 -0.094824 0.241482 -0.371905 -0.03763 -0.314423 0.41262 -0.236469 -0.225974 -0.15762 -0.227442 -0.130214 -0.185864 -0.226767 -0.22631 -0.186289 -0.2268 -0.303201 0.307389 0.093217 -0.302351 0.408634 0.115064 -0.297057 0.291535 0.126875 -0.31481 0.273373 0.118802 -0.301012 0.234392 0.117425 -0.298168 -0.120453 -0.216209 0.291857 -0.205229 -0.007519 0.290142 -0.242926 0.116506 -0.226038 -0.216573 -0.226686 -0.293274 -0.361381 -0.219401 -0.140092 -0.430714 0.005017 -0.148354 -0.517168 0.001259 -0.117453 -0.525703 0.002721 -0.132261 -0.531351 -0.011415 -0.157128 -0.429544 -0.016835 -0.172044 -0.427692 0.007819 -0.064243 -0.564475 0.003753 -0.006315 -0.541519 -0.008091 -0.156797 -0.368586 -0.022163 -0.13967 -0.369027 0.01599 -0.012923 -0.522851 -0.005507 0.023404 -0.500689 0.009456 0.066828 -0.368267 -0.000854 0.053735 -0.427106 -0.011744 0.026451 -0.368599 -0.015333 0.032833 -0.43005 0.01447 0.024109 -0.4183 -0.00454 0.053624 -0.42679 0.014063 -0.297845 -0.07165 0.100744 -0.289402 -0.071145 0.111411 -0.301671 -0.363887 0.081318 -0.259035 -0.148137 0.108875 -0.304751 0.279657 0.009218 -0.174448 -0.370245 0.010141 -0.048802 -0.374736 -0.015715 -0.050403 -0.375755 -0.026891 -0.045582 -0.375617 -0.021723 -0.217531 -0.373031 0.045581 -0.230048 -0.374283 0.049011 0.035227 -0.369864 0.020945 0.093585 -0.36867 0.023538 -0.219805 0.378851 0.119951 0.173611 0.110576 0.117005 -0.18462 -0.065961 0.120222 -0.296667 -0.173088 0.126244 -0.302526 -0.233751 0.115218 -0.298153 -0.361398 0.115152 -0.255296 -0.31697 0.11606 -0.315951 -0.171989 0.117941 0.083878 -0.431484 0.004838 0.139248 -0.505055 -0.000758 0.096627 -0.435524 0.014816 0.208461 -0.494798 0.002719 0.108816 -0.438783 -0.003829 -0.308832 0.303364 0.003251 -0.305764 0.355326 0.006947 -0.307822 0.336443 0.004174 -0.306231 0.354531 -0.104974 -0.306327 0.289662 -0.105371 -0.306252 0.327453 -0.104734 0.035721 -0.234856 0.116321 -0.043314 -0.312874 0.117346 0.061615 -0.320081 0.109935 0.14529 -0.32157 0.115445 0.245255 -0.321118 0.117731 0.245729 -0.308458 0.108448 0.106741 -0.281072 0.116903 0.245301 -0.159551 0.109987 0.248526 -0.197659 0.129795 0.247348 -0.234079 0.117549 0.198298 -0.229621 0.116891 0.097121 -0.425639 -0.016921 0.109635 -0.370842 -0.014074 0.248047 0.23634 0.114785 0.181993 0.030616 0.116976 0.113153 -0.166406 0.116382 0.19954 -0.157949 0.116829 0.064719 -0.012915 0.116939 0.103866 0.072148 0.117456 0.133641 0.07241 0.117537 0.228666 0.062624 0.116855 0.200269 -0.183656 0.116379 0.200691 -0.21027 0.116873 -0.182642 -0.214739 0.117467 -0.089763 -0.263059 0.116561 -0.179657 -0.155902 0.117593 -0.08678 -0.073009 0.116783 0.032484 -0.169939 0.116576 0.11279 -0.224474 0.117768 0.111095 -0.201726 0.116552 0.004701 -0.014994 0.117068 -0.055033 0.022328 0.117092 0.164928 -0.373835 -0.038897 0.22962 -0.373552 -0.112612 -0.122794 -0.47036 0.030643 -0.199771 -0.446514 0.045675 -0.107917 -0.473216 0.031547 -0.205164 -0.439209 0.046216 -0.20157 -0.442977 0.047231 -0.160667 -0.469942 0.037955 0.261617 -0.374092 -0.116912 0.210424 -0.473095 -0.113263 0.225414 -0.471509 -0.09739 0.232928 -0.47019 -0.114606 0.212638 0.374847 0.120855 0.160751 -0.498298 -0.093065 0.168758 -0.514782 -0.100705 -0.053259 -0.422607 0.007447 -0.065859 -0.443555 0.019253 -0.075362 -0.45019 0.022138 -0.09679 -0.470212 0.026764</float_array>
          <technique_common>
            <accessor source="#PowerSupplyBox3-mesh-positions-array" count="240" stride="3">
              <param name="X" type="float"/>
              <param name="Y" type="float"/>
              <param name="Z" type="float"/>
            </accessor>
          </technique_common>
        </source>
        <source id="PowerSupplyBox3-mesh-normals">
          <float_array id="PowerSupplyBox3-mesh-normals-array" count="1500">-0.844752 -0.534545 0.025628 0.758165 -0.626276 0.181562 0.98669 0.161721 -0.016997 0.015069 0.999835 -0.01018 -0.072598 0.99736 0.001798 -0.108604 0.02864 -0.993672 0.269262 0.962855 -0.020197 0.284675 -0.146511 0.947362 0.821395 -0.570354 -0.00249 0.745845 -0.666022 0.011403 -0.923345 -0.383971 -0.000887 -0.002254 0.999873 0.015806 0.371925 0.927942 -0.02441 -0.630383 0.775927 0.023546 -0.858724 -0.511617 0.029007 -0.09865 0.110054 0.989018 -0.201623 -0.029765 0.979011 -0.043411 -0.01425 0.998956 0.052858 0.005335 0.998588 0.084898 0.073725 0.993658 0.543126 -0.785096 0.29772 0.147291 0.983495 0.105085 0.051589 0.011455 0.998603 -0.050793 0.063693 0.996676 0.39374 0.896384 0.203629 0.349324 -0.529193 0.773257 0.064117 -0.095755 0.993338 -0.066485 -0.06216 0.995849 -0.025306 -0.147771 0.988698 -0.044161 -0.223232 0.973764 0.272825 0.96146 -0.034069 -0.046988 0.059133 0.997144 -0.176924 -0.747769 -0.639952 -0.958902 -0.261248 0.110711 -0.881469 -0.384685 -0.273914 -0.803035 0.038396 -0.594693 0.842042 0.01976 -0.53905 -0.81031 0.01305 0.585856 -0.095112 0.269375 0.958327 0.25175 0.176881 0.951491 0.036342 0.999339 0.000356 0.216769 0.968017 0.126308 0.999746 -0.000598 -0.022535 0.979663 0.133272 -0.149997 -0.971337 -0.065914 -0.228387 -0.480446 0.068656 0.874333 0.113629 -0.061935 0.991591 -0.002173 -0.153897 0.988084 0.063933 -0.087282 0.99413 -0.973978 0.021049 0.225665 -0.000572 -0.149281 0.988795 -0.040062 -0.01579 0.999072 -0.045566 -0.017299 0.998812 0.093327 0.090034 0.991556 0.041721 0.060852 0.997275 0.046659 0.060209 0.997095 0.1643 -0.146274 0.975505 -0.033541 0.005431 0.999423 0.170727 0.05381 0.983848 0.901394 -0.019447 0.432563 0.81231 0.00423 -0.583211 -0.394349 0.899673 -0.187292 -0.311379 0.946082 -0.089281 -0.171074 -0.197863 -0.965186 0.798222 -0.391977 -0.45738 0.114225 0.8346 0.538883 -0.26084 0.52017 0.813256 0.083259 -0.016592 0.99639 -0.054284 0.020876 0.998307 0.987642 -0.02571 -0.154604 -0.8551 -0.049879 -0.516059 -0.836843 -0.037336 -0.546168 0.70996 0.124204 -0.693203 -0.863338 -0.504329 -0.017313 -0.142864 -0.00716 0.989716 -0.012006 0.001162 0.999927 -0.01402 0.003645 0.999895 -0.17731 0.423765 0.888248 0.00937 -0.989134 0.146718 -0.937808 0.063952 -0.341214 -0.712581 0.094585 -0.695184 -0.562318 0.026954 -0.826482 -0.079842 -0.155533 0.984599 0.064048 -0.303085 0.950809 -0.014775 -0.008675 0.999853 -0.014519 -0.037351 0.999197 -0.659478 0.751245 0.026828 0.005469 0.07198 0.997391 0.100289 0.032861 0.994416 -0.163726 -0.242775 0.956166 -0.002398 0.08848 0.996075 -0.086584 -0.015301 0.996127 -0.023335 0.107285 0.993954 0.005305 -0.42446 0.905431 0.120794 0.38555 0.914746 0.000709 -0.011296 -0.999936 -0.000489 -0.004243 -0.999991 -0.000046 0.998522 0.054348 0.036627 0.999329 0.000199 0.041007 0.996462 -0.073359 -0.000403 0.999508 -0.031348 -0.00316 0.99735 -0.072678 0.011841 0.999338 0.0344 0.665831 -0.004957 0.746086 0.011093 -0.999663 0.02349 0.001571 0.979576 0.20107 -0.273732 0.961151 0.035505 0.850757 0.155719 0.50196 -0.006154 0.999037 0.043432 -0.976103 0.034185 0.214601 -0.000823 0.979574 0.201082 -0.850512 0.525955 -0.001012 -0.000205 0.998573 0.053412 0.016137 0.998949 -0.042899 -0.875457 -0.030921 0.482307 -0.971284 0.208282 0.115004 -0.296151 0.276427 -0.914266 0.462868 -0.022488 -0.886142 -0.037102 0.999311 -0.000185 -0.004504 0.999924 0.011484 -0.001795 0.999352 -0.03595 0.007384 -0.062511 -0.998017 -0.005582 -0.10287 -0.994679 -0.036036 0.99935 0.000402 0.00361 0.20583 0.978581 -0.066968 0.231154 0.97061 -0.003821 -0.000926 -0.999992 -0.005257 0.003372 -0.99998 0.26334 -0.964702 -0.001713 0.300079 -0.953914 -0.000448 0.995498 0.094642 -0.005076 0.997859 0.065322 0.003227 0.154373 -0.977663 0.14263 0.732446 0.009413 0.68076 0.998489 -0.00351 -0.054831 -0.960837 -0.002652 0.277102 -0.021203 0.016429 0.99964 -0.639253 0.255693 0.725243 0.999103 -0.004925 0.042054 0.998055 -0.020563 0.058848 0.999987 0.004399 0.002711 0.999477 0.002881 -0.032221 0.998639 -0.000805 -0.052151 0.385654 -0.04071 -0.921745 0.001685 -0.736102 0.676869 0.002962 -0.764914 0.644125 0.981482 0.191536 0.002567 0.004529 0.014977 -0.999878 0.005052 0.048431 -0.998814 -0.031157 0.00115 -0.999514 -0.043278 -0.008955 -0.999023 0.005701 -0.000133 -0.999984 0.004138 -0.006824 -0.999968 -0.039473 -0.011762 -0.999151 -0.003386 -0.051925 -0.998645 -0.002346 -0.027875 -0.999609 -0.000367 0.015039 -0.999887 0.025351 -0.017974 -0.999517 0.031401 0.014671 -0.999399 -0.001014 -0.02784 -0.999612 0.004529 -0.04761 -0.998856 -0.003094 0.017307 -0.999845 0.028964 -0.000088 -0.99958 -0.027069 -0.044959 -0.998622 0.005099 0.04511 -0.998969 -0.008805 -0.000727 -0.999961 -0.008359 -0.000726 -0.999965 0.002279 0.018235 -0.999831 -0.003336 -0.011759 -0.999925 0.000347 0.222065 0.975032 0.018785 -0.001105 -0.999823 -0.000214 -0.007089 -0.999975 0.024052 -0.010469 -0.999656 -0.007522 -0.01705 -0.999826 0.000845 -0.010215 -0.999947 -0.018887 -0.005165 -0.999808 0.966508 0.014761 -0.256211 0.999403 0.000811 -0.034543 0.97536 0.008838 -0.220441 0.000832 -0.011479 -0.999934 0.000419 -0.011971 -0.999928 0.000393 -0.007048 -0.999975 -0.001627 0.010651 -0.999942 -0.033806 -0.857654 0.513114 0.280559 -0.959774 0.011018 -0.031208 -0.999404 -0.014772 0.300834 -0.953645 0.007825 0.063627 -0.964793 0.255197 0.001291 0.263824 -0.96457 -0.001322 0.22669 -0.973966 0.996765 0.080365 -0.000041 0.996802 0.07991 -0.000094 0.005194 -0.00629 -0.999967 0.000442 -0.022393 -0.999749 0.00164 -0.006226 -0.999979 -0.072382 -0.209795 0.975063 -0.877296 0.352204 0.326043 0.942767 -0.077879 0.324231 0.139742 0.01449 0.990082 -0.297461 -0.954728 -0.003403 -0.165837 -0.979346 0.115671 -0.82799 -0.009722 -0.560659 0.99931 -0.035311 0.011483 0.999041 -0.043778 0.000508 0.99991 -0.00166 0.013322 0.99999 0.002884 0.003452 0.999914 -0.011912 -0.005422 -0.150357 -0.005072 -0.988619 -0.000471 -0.050026 -0.998748 -0.130026 0.010494 -0.991455 -0.057655 -0.037855 0.997619 -0.712294 -0.209643 -0.669841 -0.645178 -0.171762 0.744475 -0.846579 -0.187625 -0.498097 0.782714 0.15915 -0.601689 0.082443 -0.051142 0.995283 -0.011412 -0.43559 -0.900073 -0.471552 -0.82151 0.320562 -0.064101 -0.061459 0.996049 0.911362 -0.040748 -0.409584 0.787136 0.102795 -0.608154 -0.856237 -0.040364 -0.515003 -0.578961 0.772113 0.262003 0.074342 0.128348 0.988939 -0.083739 -0.89204 0.444132 -0.08095 0.108491 -0.990796 -0.335176 -0.098829 0.936958 -0.189847 0.06837 -0.97943 0.716837 -0.465234 0.519328 -0.346528 -0.860704 -0.37297 0.37828 -0.584002 0.718225 0.82095 -0.442404 -0.360999 0.925374 -0.378957 0.00862 -0.782449 -0.041961 0.6213 -0.454083 -0.053175 0.889371 -0.992988 -0.006031 0.118057 0.037158 -0.018255 0.999143 -0.999828 -0.00672 -0.01727 -0.16408 -0.046694 0.985341 0.069555 -0.17517 0.982078 -0.057704 -0.99823 0.014365 -0.111932 -0.987399 -0.111869 -0.057033 -0.998368 0.002994 -0.145791 -0.983122 0.110524 0.078927 -0.97939 0.185917 -0.258676 -0.752299 -0.605914 0.014528 -0.995233 -0.096439 -0.376721 -0.69609 -0.611179 0.116641 -0.991118 0.063882 -0.082839 -0.987497 0.134114 0.078745 -0.977702 0.194673 0.040004 -0.998753 -0.029882 -0.003959 -0.989155 -0.146823 0.029985 -0.973536 -0.226556 0.011445 -0.999227 -0.037611 -0.012959 -0.938624 0.3447 -0.039137 -0.999189 -0.009419 0.124326 -0.965469 -0.228938 0.102834 -0.992272 -0.069433 -0.87704 -0.017296 -0.480106 0.037677 -0.00541 0.999275 0.085003 0.001459 0.99638 -0.08221 0.003085 0.99661 -0.000311 -0.043173 0.999068 -0.198247 -0.009814 0.980103 0.096499 0.015687 0.99521 0.039107 -0.020772 0.999019 0.830954 0.515729 0.208658 -0.722667 -0.120083 0.680686 -0.132437 -0.85467 0.501995 -0.281333 -0.902164 0.327036 -0.00132 -0.013955 0.999902 -0.994021 -0.104233 -0.032511 0.962425 0.257254 0.086936 0.355653 0.109704 0.928157 -0.783013 -0.031044 0.62123 -0.019939 -0.0012 0.9998 0.5173 -0.201154 0.831828 0.059316 0.043755 0.99728 -0.993798 -0.034101 0.105842 -0.3827 0.159676 0.909969 -0.704195 -0.18331 0.685935 -0.600085 0.106647 -0.792795 -0.398361 -0.126642 0.908444 -0.623707 -0.514186 0.588729 -0.015212 -0.227416 0.973679 0.475727 0.864952 0.159815 0.053376 -0.021752 -0.998338 -0.813005 0.00659 0.582219 -0.999218 -0.012249 0.037582 -0.834735 0.010125 0.550559 -0.998896 0.001191 0.046958 -0.999724 0.002378 -0.023355 -0.994161 0.107854 0.003382 -0.999895 0.000647 -0.014468 -0.999376 0.030987 -0.016965 0.06663 -0.054409 0.996293 0.011576 0.995575 0.093254 0.00876 0.836171 -0.548399 -0.021104 0.591704 0.805879 0.004627 -0.024895 0.999679 -0.004439 -0.136558 0.990622 0.008121 -0.656974 0.75387 -0.067146 -0.099656 0.992754 0.561459 0.475548 0.677214 -0.138491 -0.02787 0.989971 0.640812 0.396064 0.657642 -0.042483 -0.317187 0.947411 -0.000912 -0.121434 0.992599 0.013261 -0.023366 0.999639 -0.0243 -0.120897 0.992368 0.077182 -0.060145 0.995201 -0.376056 -0.214456 -0.901438 0.679122 -0.117446 -0.724568 -0.391903 -0.800446 -0.45354 0.840534 0.070859 0.537106 0.919521 -0.009422 0.392927 -0.286805 0.114911 -0.951072 -0.791132 -0.26309 -0.552172 -0.670187 -0.11473 0.733271 -0.636119 -0.12821 0.760865 0.26067 0.007194 -0.965401 0.000547 0.005297 -0.999986 0.000851 0.003384 -0.999994 0.001402 -0.020511 -0.999789 0.039359 -0.005657 0.999209 -0.425005 -0.317406 0.847717 -0.005052 -0.00125 0.999986 0.00234 -0.007155 0.999972 -0.002576 -0.016401 0.999862 -0.303632 0.33044 0.893654 -0.419769 -0.49584 0.760221 0.011941 0.010582 0.999873 0.40011 -0.580746 0.708975 0.223866 -0.013364 0.974528 0.022615 -0.029198 0.999318 -0.003451 -0.0176 0.999839 0.085584 0.102903 0.991003 0.14741 -0.013132 0.988988 0.148306 0.01303 0.988856 -0.125359 0.016425 0.991975 -0.012353 0.011667 0.999856 -0.990703 -0.013475 0.135375 -0.076563 0.040701 0.996234 0.001894 -0.015107 0.999884 -0.108844 0.003393 0.994053 -0.096964 0.118299 0.988232 0.002183 -0.001202 0.999997 -0.011111 -0.004482 0.999928 -0.062965 -0.080342 0.994777 0.023357 -0.157472 0.987247 -0.006258 0.009922 0.999931 0.009072 -0.00131 0.999958 0.011136 -0.002706 0.999934 -0.354267 0.023575 0.934847 0.002049 0.004311 0.999989 0.0022 0.004685 0.999987 0.000976 0.004756 0.999988 0.009275 -0.016272 0.999825 0.010236 -0.000336 0.999948 0.001523 0.053492 0.998567 0.999612 0.001738 0.027785 -0.039006 0.000162 0.999239 0.853692 -0.206428 0.478119 -0.994668 0.103071 0.003418 -0.997411 0.071799 -0.003915 -0.999407 -0.019929 -0.028073 -0.231059 -0.972939 -0.000733 0.001313 0.235833 0.971793 -0.990809 0.135268 0.00011 -0.986422 0.164194 0.003521 -0.000537 0.085792 -0.996313 -0.00969 -0.102283 -0.994708 -0.011391 -0.000352 -0.999935 0.000306 -0.006846 -0.999977 0.005328 0.020496 -0.999776 -0.171146 -0.034854 -0.984629 -0.163842 -0.020166 -0.98628 0.100827 -0.054973 -0.993384 0.072322 -0.033043 -0.996834 0.005523 0.067724 -0.997689 0.113865 -0.002484 -0.993493 0.980805 0.014078 -0.194485 -0.004065 -0.012271 -0.999916 0.134741 0.025296 -0.990558 0.00036 -0.003761 -0.999993 0.001358 -0.003007 -0.999995 -0.009261 -0.040022 -0.999156 0.000127 -0.003034 -0.999995 -0.999684 -0.001975 0.025074 -0.999077 0.001741 -0.042917 -0.998692 -0.006149 -0.050765 0.00225 -0.002919 0.999993 0.002524 -0.002723 0.999993 -0.000989 -0.003353 0.999994 -0.001518 -0.004004 0.999991 0.000923 -0.003337 0.999994 -0.001344 -0.002794 0.999995 0.002058 0.00265 0.999994 0.00023 0.00039 1 -0.00045 -0.005871 0.999983 -0.013843 0.036852 0.999225 0.001795 -0.997317 0.073181 -0.999665 -0.023059 0.011736 -0.98545 -0.169962 -0.001286 0.022256 -0.998915 -0.040918 0.047373 -0.992875 -0.10934 0.024901 -0.999528 0.018016 -0.019066 -0.999607 -0.02057 0.071292 -0.997399 0.01063 -0.042018 -0.998402 0.037776 -0.073167 -0.996399 -0.04284 -0.034835 -0.998476 0.042794 -0.1061 -0.993589 -0.039042 0.001072 -0.9595 -0.281706 -0.00001 -0.940546 -0.339666 -0.489072 -0.017863 -0.872061 -0.00101 0.01063 -0.999943 0.999986 -0.003531 0.003859 0.195926 0.890848 -0.409882 -0.490813 -0.242745 0.836766 0.775002 0.121346 0.620199 -0.085175 -0.437194 0.895325 -0.551708 -0.662658 -0.506461 -0.258487 -0.057557 -0.964299 0.948495 0.22952 0.218352 0.149894 0.037492 0.987991 -0.568969 -0.251769 0.782871 -0.996516 0.020624 0.080813 -0.728622 -0.145443 -0.669295 -0.036517 0.951266 0.306201 0.062443 -0.997236 -0.040261 0.025448 -0.999563 -0.015011 0.980151 -0.19449 -0.038452 0.999993 0.000042 0.003801 -0.032676 -0.992414 -0.118517 0.964765 0.076511 0.251744 -0.002187 -0.994714 -0.102661 0.727042 -0.135802 -0.673028 0.372359 0.016163 -0.927948 0.031258 -0.074919 0.9967 0.966597 -0.097061 -0.237214 -0.285065 -0.190561 -0.939375 -0.910744 -0.008194 0.412891 0.921563 -0.268391 0.280512 0.888039 -0.277869 0.3663 0.565871 -0.150273 -0.810684 -0.244508 -0.013045 0.96956 0.034074 -0.014586 0.999313 0.012477 0.01713 0.999775 0.328873 -0.541277 0.773862 -0.435481 -0.501397 0.747635 0.998744 -0.007001 -0.049611 -0.163535 -0.010821 0.986478 -0.000193 -0.05122 0.998687 0.002419 0.142639 0.989772 0.007515 0.042353 0.999074 -0.016401 -0.064569 0.997778 0.168221 0.311188 0.935341 -0.513837 0.673421 0.531485 0.150464 0.02917 0.988185 -0.001347 0.014501 0.999894 0.198815 -0.330969 0.92246 0.587874 -0.784735 0.196458 0.563056 0.082556 0.822285 0.975832 -0.218416 0.006872 0.280368 -0.015047 0.959775 -0.622041 -0.085656 0.778285 -0.070488 -0.095816 0.9929 0.125417 -0.005364 0.99209 -0.002869 0.016942 0.999852 -0.499077 0.36359 0.78659 0.149765 -0.552278 -0.820097 0.601552 -0.677646 0.423002 0.391327 0.015526 0.920121 -0.217207 -0.088362 -0.972118 -0.189669 -0.010709 -0.98179 0.058338 -0.932856 0.355494 -0.130133 -0.674728 -0.726504 0.012959 0.362477 0.931903 -0.146771 -0.070878 -0.986628 0.540433 -0.689722 -0.481887 0.211586 -0.586113 -0.782115 -0.449746 0.186385 -0.873492 -0.022996 -0.267223 -0.96336 0.356753 -0.900986 -0.246883 0.881321 0.136781 0.452288 0.649894 -0.474655 -0.593583 0.13291 -0.015898 0.991001 -0.061938 0.01847 -0.997909 0.054748 -0.463065 -0.884632 0.140591 0.420577 0.896298 0.614602 0.596699 0.51596 0.642498 0.737014 0.209777 0.036433 -0.108327 0.993447 -0.001815 0.01853 0.999827 -0.738823 0.547587 0.392797 0.9223 -0.373834 -0.098037 -0.291009 -0.136458 0.946939 0.110903 -0.139151 0.984041</float_array>
          <technique_common>
            <accessor source="#PowerSupplyBox3-mesh-normals-array" count="500" stride="3">
              <param name="X" type="float"/>
              <param name="Y" type="float"/>
              <param name="Z" type="float"/>
            </accessor>
          </technique_common>
        </source>
        <source id="PowerSupplyBox3-mesh-map-0">
          <float_array id="PowerSupplyBox3-mesh-map-0-array" count="3000">0.492029 0.087848 0.491399 0.083019 0.44299 0.086548 0.310411 0.11343 0.259355 0.124111 0.313145 0.117565 0.259355 0.124111 0.256499 0.131006 0.313145 0.117565 0.318629 0.858006 0.313013 0.909568 0.314391 0.85548 0.3161 0.912329 0.313013 0.909568 0.318629 0.858006 0.549855 0.258717 0.553969 0.264788 0.54041 0.264318 0.96962 0.996776 0.974066 0.989583 0.974437 0.952483 0.016228 0.978817 0.016488 0.971787 0.002231 0.97493 0.144497 0.080935 0.095976 0.082692 0.140444 0.083323 0.095976 0.082692 0.09938 0.086685 0.140444 0.083323 0.750383 0.196897 0.755901 0.196866 0.763914 0.239273 0.005782 0.24753 0.002851 0.195878 0.008062 0.192966 0.01031 0.246013 0.005782 0.24753 0.008062 0.192966 0.85981 0.803486 0.809797 0.805826 0.859682 0.808582 0.409335 0.45321 0.414305 0.50467 0.408983 0.504266 0.493351 0.489723 0.514743 0.466997 0.489919 0.453024 0.515346 0.485712 0.514743 0.466997 0.493351 0.489723 0.453329 0.452578 0.493351 0.489723 0.489919 0.453024 0.489919 0.453024 0.495839 0.405907 0.453329 0.452578 0.514272 0.426933 0.489919 0.453024 0.514743 0.466997 0.568169 0.04395 0.569691 0.041158 0.56874 0.040317 0.381115 0.008609 0.383449 0.010379 0.381017 0.006797 0.495839 0.405907 0.489919 0.453024 0.514272 0.426933 0.495839 0.405907 0.514272 0.426933 0.506995 0.407085 0.465686 0.192122 0.464038 0.191849 0.464845 0.191353 0.884315 0.560572 0.882582 0.561216 0.882582 0.56036 0.641958 0.096995 0.673844 0.097687 0.634198 0.098733 0.453329 0.452578 0.448751 0.415708 0.440982 0.410305 0.453329 0.452578 0.495839 0.405907 0.448751 0.415708 0.3675 0.079851 0.316531 0.080374 0.366801 0.082169 0.316531 0.080374 0.367556 0.083993 0.366801 0.082169 0.367109 0.079268 0.3675 0.079851 0.316531 0.080374 0.362055 0.080139 0.367109 0.079268 0.316531 0.080374 0.628115 0.325408 0.637814 0.328672 0.639926 0.32421 0.56874 0.040317 0.568169 0.04395 0.557039 0.043094 0.208518 0.049585 0.193844 0.050272 0.210148 0.053229 0.428909 0.544911 0.42837 0.561091 0.424545 0.545243 0.424545 0.545243 0.422621 0.558553 0.42837 0.561091 0.53353 0.315626 0.55024 0.314939 0.533729 0.310659 0.55024 0.314939 0.550237 0.310533 0.533729 0.310659 0.56315 0.818007 0.563313 0.885769 0.55743 0.825618 0.561091 0.881075 0.554604 0.829707 0.55743 0.825618 0.563313 0.885769 0.561091 0.881075 0.55743 0.825618 0.814865 0.712805 0.814462 0.695123 0.820404 0.70799 0.210148 0.053229 0.193844 0.050272 0.193564 0.056178 0.410586 0.655432 0.41548 0.729296 0.41142 0.635648 0.495913 0.224116 0.482101 0.197108 0.46991 0.241089 0.097679 0.101228 0.131649 0.136462 0.15742 0.126837 0.46991 0.241089 0.482101 0.197108 0.466919 0.198201 0.408905 0.726531 0.41548 0.729296 0.410586 0.655432 0.15742 0.126837 0.184824 0.100856 0.097679 0.101228 0.450916 0.484795 0.493351 0.489723 0.453329 0.452578 0.450916 0.484795 0.460897 0.499952 0.493351 0.489723 0.460897 0.499952 0.489321 0.527192 0.493351 0.489723 0.06013 0.934277 0.046562 0.970992 0.06507 0.95104 0.005783 0.949578 0.046562 0.970992 0.06013 0.934277 0.011303 0.936163 0.005783 0.949578 0.06013 0.934277 0.877818 0.557962 0.877508 0.617863 0.863823 0.611346 0.847331 0.574432 0.877818 0.557962 0.863823 0.611346 0.439579 0.228014 0.442985 0.176247 0.43645 0.176493 0.148037 0.992824 0.198337 0.99202 0.148205 0.9809 0.36567 0.567524 0.368539 0.577557 0.376354 0.577276 0.36567 0.567524 0.376354 0.577276 0.374302 0.566878 0.198337 0.99202 0.198219 0.980862 0.148205 0.9809 0.187766 0.044599 0.178184 0.037606 0.191075 0.034582 0.513181 0.01557 0.526919 0.015396 0.526679 0.003983 0.512304 0.003123 0.513181 0.01557 0.526679 0.003983 0.373219 0.931564 0.370719 0.872063 0.383746 0.930884 0.370719 0.872063 0.382853 0.870632 0.383746 0.930884 0.437715 0.255528 0.42749 0.308579 0.433634 0.251457 0.546058 0.79957 0.558176 0.80803 0.541927 0.800858 0.541927 0.800858 0.558176 0.80803 0.558694 0.81036 0.497978 0.100803 0.488731 0.113098 0.487946 0.116531 0.559944 0.753853 0.546058 0.79957 0.541927 0.800858 0.860029 0.734327 0.879097 0.698963 0.875246 0.750343 0.875246 0.750343 0.879097 0.698963 0.924996 0.736823 0.924996 0.736823 0.879097 0.698963 0.926623 0.716443 0.879097 0.698963 0.92097 0.699683 0.926623 0.716443 0.156627 0.537307 0.161419 0.573767 0.155755 0.447668 0.503817 0.751586 0.505286 0.696227 0.508076 0.760401 0.237048 0.006071 0.256698 0.006252 0.256301 0.012303 0.256301 0.012303 0.238181 0.011334 0.237048 0.006071 0.524157 0.298095 0.474816 0.281156 0.519949 0.232192 0.519949 0.232192 0.474816 0.281156 0.50346 0.226596 0.577581 0.024288 0.596151 0.02084 0.586872 0.012405 0.577581 0.024288 0.589289 0.03026 0.596151 0.02084 0.546692 0.825402 0.551789 0.887087 0.526874 0.855121 0.705868 0.278261 0.720467 0.251034 0.678987 0.251477 0.675591 0.28946 0.705868 0.278261 0.678987 0.251477 0.850973 0.149904 0.865224 0.150297 0.825534 0.129163 0.879537 0.129629 0.825534 0.129163 0.865224 0.150297 0.625528 0.516397 0.625655 0.570668 0.572499 0.542197 0.572499 0.542197 0.573489 0.529934 0.625528 0.516397 0.156627 0.537307 0.155964 0.501283 0.155755 0.447668 0.155932 0.407622 0.162775 0.409963 0.155755 0.447668 0.066446 0.024981 0.035068 0.021564 0.03813 0.024539 0.357978 0.028147 0.326976 0.026025 0.325659 0.0288 0.636734 0.816438 0.756242 0.847014 0.821762 0.815918 0.697002 0.928056 0.636734 0.816438 0.632233 0.990642 0.875294 0.925656 0.898111 0.99149 0.884249 0.925583 0.632233 0.990642 0.898111 0.99149 0.875294 0.925656 0.875294 0.925656 0.704632 0.92739 0.697002 0.928056 0.694635 0.856937 0.708658 0.859586 0.636734 0.816438 0.576854 0.715812 0.582463 0.623407 0.581695 0.715598 0.567914 0.744181 0.57495 0.745895 0.57246 0.836572 0.57246 0.836572 0.567914 0.744181 0.568795 0.907598 0.783897 0.242384 0.781491 0.183535 0.78388 0.190562 0.579438 0.128651 0.582482 0.113333 0.577679 0.130439 0.884683 0.858984 0.946609 0.863193 0.877393 0.859098 0.643164 0.12868 0.637603 0.113118 0.642717 0.111196 0.875315 0.866494 0.877393 0.859098 0.756242 0.847014 0.780219 0.250251 0.781491 0.183535 0.783897 0.242384 0.756242 0.847014 0.877393 0.859098 0.946609 0.863193 0.756242 0.847014 0.875294 0.925656 0.875315 0.866494 0.797803 0.251697 0.780219 0.250251 0.798279 0.248066 0.780219 0.250251 0.783897 0.242384 0.798279 0.248066 0.821528 0.123253 0.819159 0.103083 0.82665 0.105243 0.827972 0.123213 0.821528 0.123253 0.82665 0.105243 0.884249 0.925583 0.942849 0.987488 0.946609 0.863193 0.704632 0.92739 0.875294 0.925656 0.756242 0.847014 0.875294 0.925656 0.697002 0.928056 0.632233 0.990642 0.475353 0.068911 0.431124 0.073317 0.476075 0.075821 0.475353 0.068911 0.430133 0.068796 0.431124 0.073317 0.884249 0.925583 0.946609 0.863193 0.884683 0.858984 0.923346 0.110685 0.924048 0.126049 0.918929 0.109661 0.924048 0.126049 0.91773 0.125486 0.918929 0.109661 0.822555 0.661651 0.818892 0.614492 0.823088 0.617143 0.818892 0.614492 0.822555 0.661651 0.81586 0.663239 0.767921 0.331769 0.774644 0.337323 0.768297 0.157582 0.773739 0.151825 0.768297 0.157582 0.774644 0.337323 0.417255 0.160274 0.394719 0.272195 0.418542 0.334807 0.57669 0.786204 0.585639 0.750558 0.586222 0.788955 0.742192 0.161347 0.768297 0.157582 0.773739 0.151825 0.353138 0.213813 0.362788 0.214285 0.357504 0.20913 0.346665 0.275904 0.418542 0.334807 0.394719 0.272195 0.369859 0.266685 0.346665 0.275904 0.394719 0.272195 0.594768 0.566883 0.577239 0.612745 0.57504 0.55731 0.570895 0.628338 0.57504 0.55731 0.577239 0.612745 0.417255 0.160274 0.346362 0.208972 0.362776 0.192044 0.417255 0.160274 0.135283 0.28086 0.346362 0.208972 0.186281 0.186705 0.135283 0.28086 0.417255 0.160274 0.287873 0.312561 0.418542 0.334807 0.135283 0.28086 0.135283 0.28086 0.418542 0.334807 0.346665 0.275904 0.418542 0.334807 0.277561 0.326045 0.336216 0.334411 0.455078 0.150908 0.484517 0.16038 0.773739 0.151825 0.484517 0.16038 0.742192 0.161347 0.773739 0.151825 0.608942 0.227579 0.636496 0.223771 0.58322 0.22337 0.072974 0.057572 0.120957 0.057343 0.074925 0.054597 0.119237 0.40233 0.144697 0.365854 0.117028 0.4521 0.10586 0.40111 0.144697 0.365854 0.119237 0.40233 0.10586 0.40111 0.065392 0.366527 0.144697 0.365854 0.633406 0.05846 0.631544 0.055689 0.585138 0.058935 0.585138 0.058935 0.631544 0.055689 0.587471 0.055392 0.223839 0.799498 0.179903 0.817263 0.231282 0.805727 0.191203 0.810114 0.223839 0.799498 0.242165 0.75634 0.118284 0.56464 0.109518 0.551997 0.118284 0.550086 0.116462 0.643446 0.130701 0.680987 0.130528 0.64568 0.093886 0.646828 0.116462 0.643446 0.08477 0.607958 0.548046 0.0197 0.538297 0.017551 0.555419 0.029664 0.879888 0.52404 0.835181 0.523515 0.877628 0.528285 0.835181 0.523515 0.83639 0.52983 0.877628 0.528285 0.155381 0.647613 0.182288 0.664773 0.20068 0.606646 0.152971 0.609643 0.148515 0.646073 0.20068 0.606646 0.130701 0.680987 0.178708 0.751734 0.152146 0.689465 0.155381 0.647613 0.152146 0.689465 0.178708 0.751734 0.106592 0.690833 0.130701 0.680987 0.116336 0.648274 0.130701 0.680987 0.106592 0.690833 0.178708 0.751734 0.944316 0.770861 0.887096 0.793633 0.894363 0.759821 0.262827 0.844948 0.33417 0.769345 0.304597 0.733951 0.476913 0.934057 0.459144 0.620866 0.477174 0.622818 0.512439 0.033818 0.52383 0.02012 0.497132 0.02533 0.08588 0.689915 0.093271 0.690758 0.092883 0.650808 0.07729 0.646136 0.093886 0.646828 0.08477 0.607958 0.794879 0.073754 0.750232 0.072754 0.79047 0.077978 0.418142 0.066699 0.375874 0.067276 0.41489 0.073849 0.289479 0.914331 0.297138 0.955733 0.305013 0.93187 0.017386 0.336842 0.109445 0.336556 0.182117 0.329809 0.728202 0.304361 0.708797 0.296876 0.724904 0.285815 0.182117 0.329809 0.155662 0.337685 0.181423 0.338511 0.014215 0.604346 0.074338 0.690746 0.07729 0.646136 0.014215 0.604346 0.067482 0.803144 0.074338 0.690746 0.08588 0.689915 0.091556 0.713045 0.093271 0.690758 0.093271 0.690758 0.091556 0.713045 0.106592 0.690833 0.844706 0.475127 0.837026 0.279399 0.819239 0.213235 0.819239 0.213235 0.837343 0.235351 0.926152 0.229905 0.837343 0.235351 0.896736 0.235577 0.926152 0.229905 0.819239 0.213235 0.926152 0.229905 0.993196 0.213415 0.837026 0.279399 0.837343 0.235351 0.819239 0.213235 0.424548 0.876647 0.442942 0.614997 0.44262 0.930301 0.424113 0.614708 0.442942 0.614997 0.424548 0.876647 0.631197 0.779564 0.635502 0.797706 0.819023 0.779327 0.819023 0.779327 0.635502 0.797706 0.815969 0.795645 0.790953 0.06409 0.832788 0.065117 0.834542 0.058689 0.787764 0.060441 0.790953 0.06409 0.834542 0.058689 0.116728 0.850247 0.128981 0.849461 0.140573 0.770004 0.621617 0.636033 0.602544 0.586536 0.621599 0.583615 0.621617 0.636033 0.619618 0.652173 0.602544 0.586536 0.806305 0.395897 0.807242 0.343112 0.804655 0.413231 0.8069 0.43032 0.807242 0.343112 0.804655 0.413231 0.461789 0.15841 0.455078 0.150908 0.461135 0.332142 0.461789 0.15841 0.484517 0.16038 0.455078 0.150908 0.853048 0.027433 0.868586 0.027456 0.877648 0.022276 0.017222 0.166561 0.017386 0.336842 0.098663 0.224662 0.067766 0.161924 0.017222 0.166561 0.098663 0.224662 0.096162 0.161417 0.098663 0.224662 0.153796 0.225889 0.098663 0.224662 0.135283 0.28086 0.153796 0.225889 0.017386 0.336842 0.135283 0.28086 0.098663 0.224662 0.078767 0.885443 0.102592 0.933499 0.097085 0.893747 0.067482 0.803144 0.003536 0.801592 0.078767 0.885443 0.08434 0.490154 0.077556 0.47885 0.084372 0.46768 0.074511 0.51252 0.065425 0.485685 0.071713 0.471138 0.891646 0.146487 0.904912 0.131987 0.910188 0.098518 0.891646 0.146487 0.894152 0.123826 0.898883 0.098325 0.397759 0.743273 0.398043 0.715844 0.401729 0.742919 0.891646 0.146487 0.910188 0.098518 0.898883 0.098325 0.803133 0.139811 0.816954 0.174819 0.80782 0.139132 0.103427 0.352718 0.123268 0.345552 0.071007 0.345816 0.131727 0.345359 0.123268 0.345552 0.103427 0.352718 0.836244 0.187592 0.816954 0.174819 0.861593 0.202535 0.317416 0.072707 0.342435 0.073853 0.342882 0.060445 0.315311 0.060261 0.317416 0.072707 0.342882 0.060445 0.504968 0.657492 0.495679 0.655417 0.505521 0.630248 0.649404 0.171786 0.653257 0.177089 0.66613 0.172157 0.623588 0.173906 0.653257 0.177089 0.649404 0.171786 0.670519 0.763338 0.672955 0.765526 0.640126 0.773198 0.640126 0.773198 0.66038 0.762648 0.637098 0.767595 0.74845 0.109218 0.763106 0.108508 0.764518 0.11701 0.74108 0.114547 0.682399 0.109692 0.684749 0.118603 0.684749 0.118603 0.74108 0.114547 0.739869 0.120574 0.691086 0.163955 0.691893 0.167425 0.701531 0.167359 0.998646 0.973926 0.995574 0.969055 0.997559 0.951407 0.997559 0.951407 0.994637 0.943844 0.99709 0.912069 0.997559 0.951407 0.99709 0.912069 0.999494 0.911686 0.997834 0.145434 0.997834 0.152678 0.993016 0.14988 0.8069 0.43032 0.791529 0.737798 0.804384 0.589764 0.807242 0.343112 0.791529 0.737798 0.8069 0.43032 0.62119 0.829701 0.604459 0.854302 0.623093 0.67047 0.791529 0.737798 0.723471 0.47098 0.632431 0.604626 0.76902 0.050253 0.746467 0.051192 0.770808 0.057737 0.746467 0.051192 0.744745 0.061427 0.770808 0.057737 0.868407 0.43704 0.88531 0.437832 0.885477 0.387363 0.833816 0.515004 0.88531 0.437832 0.876721 0.451733 0.88531 0.437832 0.990524 0.508905 0.885477 0.387363 0.990524 0.508905 0.889832 0.387726 0.885477 0.387363 0.885477 0.387363 0.887363 0.385657 0.882532 0.34769 0.844706 0.475127 0.868407 0.43704 0.885477 0.387363 0.853518 0.473015 0.868407 0.43704 0.844706 0.475127 0.833816 0.515004 0.876721 0.451733 0.852644 0.479376 0.853518 0.473015 0.852644 0.479376 0.876721 0.451733 0.833816 0.515004 0.852644 0.479376 0.844706 0.475127 0.885477 0.387363 0.882532 0.34769 0.844706 0.475127 0.876721 0.451733 0.868407 0.43704 0.853518 0.473015 0.837026 0.279399 0.844706 0.475127 0.867343 0.344359 0.837026 0.279399 0.867343 0.344359 0.867477 0.312697 0.844706 0.475127 0.882532 0.34769 0.867343 0.344359 0.833816 0.515004 0.844706 0.475127 0.819239 0.213235 0.833816 0.515004 0.990524 0.508905 0.88531 0.437832 0.889832 0.387726 0.990524 0.508905 0.882532 0.34769 0.887363 0.385657 0.889832 0.387726 0.882532 0.34769 0.022207 0.044987 0.045436 0.052763 0.019323 0.053408 0.533993 0.359666 0.401368 0.377314 0.514607 0.376965 0.533993 0.359666 0.382418 0.359898 0.401368 0.377314 0.54719 0.382914 0.382418 0.359898 0.533993 0.359666 0.828608 0.530197 0.82886 0.688143 0.828885 0.678973 0.54719 0.382914 0.308468 0.359203 0.382418 0.359898 0.343593 0.376576 0.303869 0.378139 0.396028 0.383549 0.122971 0.949974 0.073961 0.951343 0.077704 0.96057 0.593664 0.26713 0.601878 0.268661 0.599112 0.258716 0.343593 0.376576 0.314988 0.376353 0.303869 0.378139 0.400239 0.005331 0.41372 0.01351 0.413507 0.006037 0.400426 0.013867 0.41372 0.01351 0.400239 0.005331 0.382418 0.359898 0.308468 0.359203 0.372078 0.359029 0.038024 0.003488 0.049894 0.003496 0.038595 0.008013 0.038595 0.008013 0.050012 0.010975 0.049894 0.003496 0.62119 0.829701 0.623061 0.882834 0.604459 0.854302 0.386624 0.08778 0.42502 0.095291 0.390879 0.081262 0.623291 0.91167 0.621702 0.979958 0.600323 0.957554 0.623291 0.91167 0.604459 0.854302 0.623061 0.882834 0.604459 0.854302 0.623291 0.91167 0.600323 0.957554 0.791529 0.737798 0.807745 0.738469 0.807047 0.671511 0.803524 0.622846 0.805206 0.642254 0.810043 0.636621 0.791529 0.737798 0.807047 0.671511 0.805206 0.642254 0.791529 0.737798 0.805206 0.642254 0.803524 0.622846 0.0137 0.377065 0.016664 0.350834 0.01891 0.37751 0.388239 0.702156 0.386088 0.663126 0.391651 0.696908 0.546327 0.179601 0.584499 0.192191 0.603656 0.173919 0.187497 0.078991 0.212615 0.085508 0.219678 0.07885 0.191281 0.084049 0.212615 0.085508 0.187497 0.078991 0.754059 0.405062 0.753155 0.412906 0.750093 0.369087 0.753155 0.412906 0.807242 0.343112 0.750093 0.369087 0.698873 0.225136 0.711432 0.222964 0.703917 0.226107 0.695686 0.370755 0.6952 0.405897 0.695367 0.386029 0.716945 0.168536 0.721398 0.168772 0.709049 0.218005 0.750093 0.369087 0.695686 0.370755 0.748042 0.374913 0.695686 0.370755 0.695367 0.386029 0.748042 0.374913 0.749807 0.381326 0.695367 0.386029 0.748966 0.387732 0.212787 0.4893 0.173921 0.457039 0.176769 0.505144 0.446177 0.994045 0.281704 0.993501 0.488497 0.995138 0.488497 0.995138 0.281704 0.993501 0.510196 0.996891 0.532725 0.992383 0.488497 0.995138 0.510196 0.996891 0.600323 0.957554 0.621702 0.979958 0.321786 0.981617 0.600323 0.957554 0.321786 0.981617 0.341132 0.959169 0.594564 0.719336 0.591909 0.831042 0.592394 0.668749 0.572462 0.92507 0.593435 0.946055 0.548253 0.937915 0.338092 0.9394 0.341132 0.959169 0.321786 0.981617 0.338092 0.9394 0.321786 0.981617 0.318196 0.94407 0.51581 0.847242 0.507199 0.863019 0.486683 0.882178 0.486683 0.882178 0.507199 0.863019 0.509342 0.880829 0.509342 0.880829 0.503149 0.918232 0.486683 0.882178 0.572462 0.92507 0.548253 0.937915 0.53198 0.894322 0.53198 0.894322 0.503149 0.918232 0.509342 0.880829 0.53198 0.894322 0.548253 0.937915 0.503149 0.918232 0.322998 0.832777 0.324478 0.803307 0.340583 0.797688 0.955472 0.078797 0.963638 0.085694 0.985783 0.08258 0.515815 0.39231 0.51135 0.401802 0.502302 0.395024 0.955472 0.078797 0.985783 0.08258 0.960675 0.071597 0.960675 0.071597 0.985783 0.08258 0.985532 0.0711 0.291768 0.631096 0.313687 0.636463 0.319334 0.621732 0.27809 0.040186 0.281643 0.033666 0.256143 0.036004 0.256143 0.036004 0.281643 0.033666 0.257378 0.022503 0.281643 0.033666 0.282477 0.02536 0.257378 0.022503 0.261616 0.764227 0.242165 0.75634 0.254989 0.764037 0.242165 0.75634 0.257191 0.753546 0.321364 0.662743 0.240681 0.699083 0.242165 0.75634 0.260047 0.691593 0.585549 0.379487 0.591198 0.399179 0.565603 0.419419 0.394989 0.567708 0.46418 0.596718 0.517429 0.558813 0.517429 0.558813 0.46418 0.596718 0.481884 0.594738 0.831456 0.048373 0.84671 0.062105 0.852516 0.048373 0.330211 0.503051 0.338885 0.54648 0.376644 0.527488 0.376314 0.540778 0.376644 0.527488 0.349848 0.547969 0.391043 0.56178 0.376314 0.540778 0.372909 0.551867 0.376314 0.540778 0.349848 0.547969 0.372909 0.551867 0.391043 0.56178 0.371986 0.582777 0.46418 0.596718 0.014753 0.147286 0.003429 0.12816 0.007852 0.129297 0.46418 0.596718 0.371986 0.582777 0.252058 0.596717 0.371986 0.582777 0.355236 0.566782 0.252058 0.596717 0.281285 0.050316 0.321495 0.047928 0.28019 0.043558 0.241911 0.576319 0.22001 0.596714 0.252058 0.596717 0.241911 0.576319 0.252058 0.596717 0.255384 0.574912 0.255384 0.574912 0.252058 0.596717 0.335419 0.560842 0.226912 0.575696 0.241911 0.576319 0.218086 0.576551 0.218086 0.576551 0.22001 0.596714 0.241911 0.576319 0.252058 0.596717 0.22001 0.596714 0.236499 0.597102 0.958539 0.749126 0.958839 0.77012 0.948543 0.75207 0.226607 0.38009 0.174987 0.348238 0.197068 0.42339 0.258609 0.343817 0.226607 0.38009 0.255899 0.38252 0.258609 0.343817 0.255899 0.38252 0.301527 0.429827 0.197068 0.42339 0.212787 0.4893 0.301527 0.429827 0.251195 0.488499 0.212787 0.4893 0.192132 0.52962 0.308468 0.359203 0.258609 0.343817 0.303869 0.378139 0.258609 0.343817 0.301527 0.429827 0.303869 0.378139 0.197068 0.42339 0.174987 0.348238 0.173921 0.457039 0.226607 0.38009 0.197068 0.42339 0.301527 0.429827 0.255899 0.38252 0.226607 0.38009 0.301527 0.429827 0.192132 0.52962 0.219871 0.533815 0.228865 0.53241 0.372892 0.673675 0.37825 0.681697 0.371403 0.697857 0.236241 0.532564 0.252893 0.533474 0.254451 0.495028 0.14788 0.069439 0.103751 0.070255 0.142652 0.073757 0.219871 0.533815 0.192132 0.52962 0.204577 0.559308 0.82775 0.048783 0.784533 0.046214 0.786168 0.052693 0.59262 0.456963 0.590062 0.451481 0.591559 0.415021 0.186281 0.186705 0.219594 0.162419 0.096162 0.161417 0.569431 0.645677 0.486683 0.882178 0.57504 0.55731 0.569431 0.645677 0.57504 0.55731 0.570895 0.628338 0.636918 0.343739 0.695686 0.370755 0.750093 0.369087 0.750093 0.369087 0.807242 0.343112 0.636918 0.343739 0.633458 0.719088 0.791529 0.737798 0.682232 0.656841 0.455078 0.150908 0.454239 0.338088 0.461135 0.332142 0.457825 0.897569 0.459144 0.620866 0.476913 0.934057 0.059367 0.576832 0.040412 0.58265 0.040825 0.396172 0.059367 0.576832 0.040825 0.396172 0.05841 0.40043 0.13265 0.529969 0.144697 0.365854 0.144176 0.545312 0.122098 0.5227 0.117028 0.4521 0.13265 0.529969 0.13265 0.529969 0.117028 0.4521 0.144697 0.365854 0.321364 0.662743 0.257191 0.753546 0.282591 0.744536 0.887096 0.793633 0.812392 0.757954 0.82382 0.739618 0.102592 0.933499 0.199754 0.97471 0.186401 0.936712 0.112624 0.898138 0.097085 0.893747 0.102592 0.933499 0.26035 0.086864 0.260994 0.100438 0.268758 0.10618 0.350149 0.634316 0.346951 0.61136 0.321663 0.60539 0.366889 0.619973 0.341796 0.664984 0.400163 0.602779 0.921366 0.535646 0.879037 0.546016 0.889866 0.531037 0.277561 0.326045 0.263505 0.334829 0.336216 0.334411 0.33417 0.769345 0.37605 0.728883 0.355728 0.692396 0.355728 0.692396 0.367181 0.715149 0.364871 0.695657 0.555502 0.075436 0.512134 0.069694 0.51298 0.075407 0.922243 0.795706 0.918428 0.793909 0.944316 0.770861 0.006752 0.734364 0.003536 0.801592 0.067482 0.803144 0.559923 0.07106 0.512134 0.069694 0.555502 0.075436 0.807242 0.343112 0.723471 0.47098 0.791529 0.737798 0.695686 0.370755 0.649738 0.352227 0.699628 0.413853 0.649738 0.352227 0.632431 0.604626 0.699628 0.413853 0.331676 0.474509 0.252893 0.533474 0.330211 0.503051 0.331676 0.474509 0.254451 0.495028 0.252893 0.533474 0.331676 0.474509 0.301527 0.429827 0.254451 0.495028 0.212787 0.4893 0.251195 0.488499 0.301527 0.429827 0.335419 0.560842 0.330211 0.503051 0.252893 0.533474 0.301527 0.429827 0.331676 0.474509 0.348423 0.449364 0.348423 0.449364 0.331676 0.474509 0.330211 0.503051 0.348423 0.449364 0.391043 0.56178 0.396028 0.383549 0.330211 0.503051 0.376644 0.527488 0.348423 0.449364 0.348423 0.449364 0.376644 0.527488 0.391043 0.56178 0.833816 0.515004 0.819239 0.213235 0.816874 0.512872 0.699628 0.413853 0.632431 0.604626 0.734843 0.415837 0.6952 0.405897 0.748438 0.398665 0.750051 0.390398 0.867343 0.344359 0.879201 0.329164 0.867477 0.312697 0.882532 0.34769 0.990524 0.508905 0.879201 0.329164 0.896225 0.280121 0.936988 0.240198 0.896736 0.235577 0.896225 0.280121 0.990524 0.508905 0.936988 0.240198 0.936988 0.240198 0.926152 0.229905 0.896736 0.235577 0.879201 0.329164 0.990524 0.508905 0.896225 0.280121 0.879201 0.329164 0.896225 0.280121 0.882597 0.30385 0.882597 0.30385 0.896225 0.280121 0.867477 0.312697 0.867477 0.312697 0.896225 0.280121 0.837026 0.279399 0.461135 0.332142 0.454239 0.338088 0.774644 0.337323 0.461135 0.332142 0.774644 0.337323 0.767921 0.331769 0.636918 0.343739 0.633961 0.448628 0.647198 0.413021 0.015542 0.53599 0.018577 0.530975 0.017053 0.573862 0.135283 0.28086 0.346665 0.275904 0.346362 0.208972 0.617824 0.474444 0.611132 0.45089 0.618035 0.469914 0.422675 0.102541 0.435925 0.119336 0.447542 0.127576 0.838706 0.687653 0.833923 0.665328 0.835799 0.651532 0.58684 0.035988 0.59436 0.034158 0.583494 0.035039 0.447542 0.127576 0.461172 0.134974 0.473706 0.134869 0.821502 0.031898 0.842013 0.028756 0.841457 0.026968 0.613608 0.420145 0.621041 0.398778 0.622488 0.3995 0.610835 0.432904 0.613608 0.420145 0.621041 0.398778 0.421575 0.103352 0.435925 0.119336 0.422675 0.102541 0.406896 0.899659 0.407506 0.9278 0.40657 0.829433 0.412681 0.920075 0.407506 0.9278 0.406896 0.899659 0.493837 0.78651 0.488497 0.664729 0.486977 0.617843 0.833253 0.125648 0.888696 0.125684 0.83369 0.098598 0.888696 0.125684 0.888901 0.099472 0.83369 0.098598 0.500968 0.604235 0.451823 0.608965 0.504589 0.612862 0.451823 0.608965 0.500968 0.604235 0.453114 0.605335 0.936988 0.240198 0.993196 0.213415 0.938335 0.226409 0.938335 0.226409 0.993196 0.213415 0.926152 0.229905 0.990524 0.508905 0.993196 0.213415 0.936988 0.240198 0.342012 0.091197 0.298955 0.090736 0.328315 0.088929 0.341555 0.109603 0.329463 0.099844 0.378455 0.100774 0.505477 0.546973 0.462527 0.553767 0.506453 0.5522 0.746192 0.119804 0.764518 0.11701 0.763297 0.124418 0.74845 0.109218 0.746192 0.119804 0.764518 0.11701 0.403858 0.760146 0.399123 0.751497 0.38361 0.757395 0.08817 0.421123 0.086598 0.375209 0.093051 0.375241 0.173717 0.138445 0.177736 0.143104 0.213163 0.135207 0.143274 0.591865 0.192807 0.577866 0.195441 0.582955 0.54719 0.382914 0.258609 0.343817 0.308468 0.359203 0.348423 0.449364 0.303869 0.378139 0.301527 0.429827 0.396028 0.383549 0.303869 0.378139 0.348423 0.449364 0.86277 0.243 0.872265 0.25547 0.861034 0.250808 0.8489 0.250343 0.86277 0.243 0.861034 0.250808 0.369859 0.266685 0.374589 0.259444 0.362788 0.214285 0.569431 0.645677 0.51581 0.847242 0.486683 0.882178 0.517429 0.558813 0.533993 0.359666 0.522595 0.460273 0.54719 0.382914 0.533993 0.359666 0.546602 0.593629 0.546054 0.564523 0.545098 0.495292 0.517429 0.558813 0.534033 0.580908 0.517429 0.558813 0.499141 0.599432 0.499141 0.599432 0.517429 0.558813 0.481884 0.594738 0.546054 0.564523 0.517429 0.558813 0.534033 0.580908 0.546602 0.593629 0.534033 0.580908 0.499141 0.599432 0.205592 0.447291 0.196775 0.470388 0.212787 0.4893 0.143274 0.591865 0.113892 0.576984 0.119594 0.592186 0.119594 0.592186 0.1301 0.599546 0.143274 0.591865 0.669189 0.050199 0.644271 0.056592 0.648451 0.048594 0.669189 0.050199 0.668835 0.061083 0.644271 0.056592 0.602544 0.586536 0.619618 0.652173 0.604459 0.854302 0.619618 0.652173 0.623093 0.67047 0.604459 0.854302 0.212787 0.4893 0.176769 0.505144 0.192132 0.52962 0.505161 0.565773 0.407726 0.55957 0.394989 0.567708 0.376644 0.527488 0.376314 0.540778 0.391043 0.56178 0.843121 0.257204 0.8489 0.250343 0.847873 0.267136 0.50831 0.125181 0.521865 0.112188 0.521368 0.110767 0.584319 0.206827 0.55911 0.205188 0.591728 0.207883 0.281515 0.145903 0.248389 0.139125 0.279217 0.147378 0.610835 0.432904 0.617824 0.474444 0.611132 0.45089 0.311046 0.135201 0.327003 0.122631 0.30411 0.138014 0.311046 0.135201 0.30411 0.138014 0.281515 0.145903 0.91688 0.077083 0.929459 0.076294 0.928846 0.075678 0.584319 0.206827 0.562059 0.205883 0.55911 0.205188 0.452339 0.702138 0.449414 0.708432 0.450521 0.693955 0.452339 0.702138 0.45094 0.68292 0.449422 0.682202 0.238931 0.131521 0.248389 0.139125 0.252859 0.138721 0.137556 0.974145 0.134963 0.968956 0.108191 0.979166 0.105414 0.991479 0.137556 0.974145 0.108191 0.979166 0.10025 0.026358 0.096477 0.031331 0.115111 0.029019 0.602429 0.446755 0.602472 0.423244 0.603753 0.423434 0.602429 0.446755 0.600087 0.432681 0.602472 0.423244 0.105414 0.991479 0.053589 0.977943 0.056111 0.972558 0.105414 0.991479 0.108191 0.979166 0.056111 0.972558 0.584319 0.206827 0.625588 0.187449 0.591728 0.207883 0.603967 0.455051 0.602429 0.446755 0.603933 0.447721 0.01159 0.107152 0.007852 0.129297 0.003429 0.12816 0.007413 0.103821 0.01159 0.107152 0.003429 0.12816 0.412585 0.034335 0.393628 0.035147 0.390011 0.041733 0.23116 0.541002 0.234749 0.573718 0.236318 0.569384 0.804627 0.757457 0.787952 0.757884 0.798047 0.76358 0.034229 0.59053 0.047743 0.58725 0.047884 0.588894 0.787952 0.757884 0.773025 0.762506 0.798047 0.76358 0.583494 0.035039 0.58684 0.035988 0.570624 0.033818</float_array>
          <technique_common>
            <accessor source="#PowerSupplyBox3-mesh-map-0-array" count="1500" stride="2">
              <param name="S" type="float"/>
              <param name="T" type="float"/>
            </accessor>
          </technique_common>
        </source>
        <vertices id="PowerSupplyBox3-mesh-vertices">
          <input semantic="POSITION" source="#PowerSupplyBox3-mesh-positions"/>
        </vertices>
        <polylist material="Material_-1-material" count="6">
          <input semantic="VERTEX" source="#PowerSupplyBox3-mesh-vertices" offset="0"/>
          <input semantic="NORMAL" source="#PowerSupplyBox3-mesh-normals" offset="1"/>
          <input semantic="TEXCOORD" source="#PowerSupplyBox3-mesh-map-0" offset="2" set="0"/>
          <vcount>3 3 3 3 3 3 3 3 3 3 3 3 3 3 3 3 3 3 3 3 3 3 3 3 3 3 3 3 3 3 3 3 3 3 3 3 3 3 3 3 3 3 3 3 3 3 3 3 3 3 3 3 3 3 3 3 3 3 3 3 3 3 3 3 3 3 3 3 3 3 3 3 3 3 3 3 3 3 3 3 3 3 3 3 3 3 3 3 3 3 3 3 3 3 3 3 3 3 3 3 3 3 3 3 3 3 3 3 3 3 3 3 3 3 3 3 3 3 3 3 3 3 3 3 3 3 3 3 3 3 3 3 3 3 3 3 3 3 3 3 3 3 3 3 3 3 3 3 3 3 3 3 3 3 3 3 3 3 3 3 3 3 3 3 3 3 3 3 3 3 3 3 3 3 3 3 3 3 3 3 3 3 3 3 3 3 3 3 3 3 3 3 3 3 3 3 3 3 3 3 3 3 3 3 3 3 3 3 3 3 3 3 3 3 3 3 3 3 3 3 3 3 3 3 3 3 3 3 3 3 3 3 3 3 3 3 3 3 3 3 3 3 3 3 3 3 3 3 3 3 3 3 3 3 3 3 3 3 3 3 3 3 3 3 3 3 3 3 3 3 3 3 3 3 3 3 3 3 3 3 3 3 3 3 3 3 3 3 3 3 3 3 3 3 3 3 3 3 3 3 3 3 3 3 3 3 3 3 3 3 3 3 3 3 3 3 3 3 3 3 3 3 3 3 3 3 3 3 3 3 3 3 3 3 3 3 3 3 3 3 3 3 3 3 3 3 3 3 3 3 3 3 3 3 3 3 3 3 3 3 3 3 3 3 3 3 3 3 3 3 3 3 3 3 3 3 3 3 3 3 3 3 3 3 3 3 3 3 3 3 3 3 3 3 3 3 3 3 3 3 3 3 3 3 3 3 3 3 3 3 3 3 3 3 3 3 3 3 3 3 3 3 3 3 3 3 3 3 3 3 3 3 3 3 3 3 3 3 3 3 3 3 3 3 3 3 3 3 3 3 3 3 3 3 3 3 3 3 3 3 3 3 3 3 3 3 3 3 3 3 3 3 3 3 3 3 3 3 3 3 3 3 3 3 3 3 3 3 3 3 3 3 3 3 3 3 3 3 3 3</vcount>
          <p>0 0 0 1 0 1 2 0 2 2 1 3 1 1 4 3 1 5 1 2 6 4 2 7 3 2 8 3 3 9 0 3 10 5 3 11 4 4 12 0 4 13 3 4 14 1 5 15 6 5 16 0 5 17 7 6 18 8 6 19 9 6 20 8 7 21 7 7 22 10 7 23 11 8 24 10 8 25 12 8 26 10 9 27 13 9 28 12 9 29 14 10 30 10 10 31 11 10 32 14 11 33 15 11 34 12 11 35 13 12 36 14 12 37 12 12 38 6 13 39 16 13 40 1 13 41 0 14 42 2 14 43 5 14 44 17 15 45 18 15 46 19 15 47 20 16 48 18 16 49 17 16 50 21 17 51 17 17 52 19 17 53 19 18 54 22 18 55 21 18 56 23 19 57 19 19 58 18 19 59 24 20 60 23 20 61 25 20 62 26 21 63 24 21 64 27 21 65 22 22 66 19 22 67 23 22 68 22 23 69 23 23 70 27 23 71 27 24 72 26 24 73 25 24 74 26 25 75 23 25 76 25 25 77 28 26 78 22 26 79 29 26 80 21 27 81 28 27 82 29 27 83 21 28 84 22 28 85 28 28 86 23 29 87 30 29 88 24 29 89 30 30 90 26 30 91 24 30 92 27 31 93 23 31 94 30 31 95 25 32 96 27 32 97 30 32 98 22 33 99 27 33 100 24 33 101 25 34 102 24 34 103 22 34 104 2 35 105 16 35 106 5 35 107 3 36 108 31 36 109 2 36 110 2 37 111 16 37 112 31 37 113 5 38 114 32 38 115 3 38 116 32 39 117 31 39 118 3 39 119 33 40 120 34 40 121 31 40 122 1 41 123 16 41 124 31 41 125 34 42 126 1 42 127 31 42 128 34 43 129 4 43 130 1 43 131 5 44 132 16 44 133 32 44 134 36 45 135 35 45 136 37 45 137 36 46 138 38 46 139 37 46 140 37 47 141 39 47 142 21 47 143 37 48 144 38 48 145 39 48 146 40 49 147 35 49 148 36 49 149 21 50 150 29 50 151 37 50 152 39 51 153 17 51 154 21 51 155 39 52 156 38 52 157 17 52 158 38 53 159 41 53 160 17 53 161 17 54 162 42 54 163 20 54 164 40 55 165 42 55 166 17 55 167 41 56 168 40 56 169 17 56 170 36 57 171 40 57 172 41 57 173 38 58 174 36 58 175 41 58 176 44 59 177 43 59 178 45 59 179 46 60 180 47 60 181 43 60 182 48 61 183 49 61 184 44 61 185 48 62 186 44 62 187 47 62 188 47 63 189 44 63 190 43 63 191 46 64 192 43 64 193 35 64 194 50 65 195 45 65 196 46 65 197 35 66 198 50 66 199 46 66 200 45 67 201 44 67 202 46 67 203 44 68 204 51 68 205 46 68 206 47 69 207 46 69 208 51 69 209 11 70 210 9 70 211 15 70 212 15 71 213 9 71 214 52 71 215 9 72 216 11 72 217 12 72 218 14 73 219 11 73 220 15 73 221 23 74 222 53 74 223 26 74 224 26 75 225 53 75 226 30 75 227 30 76 228 53 76 229 54 76 230 53 77 231 55 77 232 54 77 233 53 78 234 55 78 235 42 78 236 56 79 237 30 79 238 57 79 239 4 80 240 34 80 241 6 80 242 6 81 243 0 81 244 4 81 245 29 82 246 22 82 247 57 82 248 57 83 249 22 83 250 56 83 251 58 84 252 59 84 253 60 84 254 58 85 255 61 85 256 59 85 257 16 86 258 6 86 259 32 86 260 62 87 261 53 87 262 23 87 263 18 88 264 62 88 265 23 88 266 18 89 267 20 89 268 62 89 269 42 90 270 62 90 271 20 90 272 30 91 273 56 91 274 22 91 275 22 92 276 25 92 277 30 92 278 53 93 279 62 93 280 42 93 281 40 94 282 35 94 283 42 94 284 63 95 285 64 95 286 65 95 287 64 96 288 63 96 289 66 96 290 33 97 291 32 97 292 67 97 293 34 98 294 33 98 295 68 98 296 7 99 297 69 99 298 70 99 299 68 100 300 69 100 301 7 100 302 7 101 303 6 101 304 34 101 305 31 102 306 32 102 307 33 102 308 71 103 309 35 103 310 37 103 311 71 104 312 37 104 313 29 104 314 29 105 315 71 105 316 57 105 317 8 106 318 52 106 319 9 106 320 10 107 321 7 107 322 13 107 323 52 108 324 67 108 325 72 108 326 12 109 327 9 109 328 72 109 329 9 110 330 72 110 331 32 110 332 70 111 333 52 111 334 8 111 335 32 112 336 72 112 337 67 112 338 32 113 339 7 113 340 9 113 341 14 114 342 70 114 343 10 114 344 70 115 345 8 115 346 10 115 347 70 116 348 14 116 349 13 116 350 7 117 351 70 117 352 13 117 353 70 118 354 69 118 355 67 118 356 6 119 357 7 119 358 32 119 359 7 120 360 34 120 361 68 120 362 73 121 363 74 121 364 75 121 365 73 122 366 76 122 367 74 122 368 70 123 369 67 123 370 52 123 371 15 124 372 52 124 373 12 124 374 52 125 375 72 125 376 12 125 377 77 126 378 73 126 379 78 126 380 73 127 381 77 127 382 76 127 383 79 128 384 80 128 385 81 128 386 82 129 387 81 129 388 80 129 389 81 130 390 83 130 391 79 130 392 84 131 393 83 131 394 81 131 395 85 132 396 81 132 397 82 132 398 86 133 399 87 133 400 84 133 401 88 134 402 79 134 403 83 134 404 89 135 405 88 135 406 83 135 407 85 136 408 90 136 409 81 136 410 91 137 411 81 137 412 90 137 413 81 138 414 86 138 415 84 138 416 81 139 417 92 139 418 86 139 419 93 140 420 92 140 421 81 140 422 94 141 423 79 141 424 92 141 425 92 142 426 79 142 427 88 142 428 79 143 429 94 143 430 95 143 431 96 144 432 97 144 433 82 144 434 97 145 435 85 145 436 82 145 437 87 146 438 83 146 439 84 146 440 63 147 441 65 147 442 98 147 443 99 148 444 100 148 445 101 148 446 65 149 447 100 149 448 99 149 449 65 150 450 102 150 451 100 150 452 65 151 453 99 151 454 98 151 455 98 152 456 99 152 457 101 152 458 64 153 459 102 153 460 65 153 461 102 154 462 64 154 463 66 154 464 103 155 465 104 155 466 105 155 467 106 156 468 107 156 469 104 156 470 108 157 471 106 157 472 103 157 473 106 158 474 104 158 475 103 158 476 104 159 477 107 159 478 105 159 479 107 160 480 109 160 481 105 160 482 105 161 483 110 161 484 111 161 485 103 162 486 105 162 487 111 162 488 107 163 489 110 163 490 109 163 491 105 164 492 109 164 493 110 164 494 112 165 495 107 165 496 106 165 497 107 166 498 112 166 499 110 166 500 112 167 501 113 167 502 110 167 503 110 168 504 77 168 505 111 168 506 67 169 507 82 169 508 33 169 509 114 170 510 115 170 511 103 170 512 116 171 513 117 171 514 108 171 515 115 172 516 108 172 517 103 172 518 108 173 519 112 173 520 106 173 521 115 174 522 116 174 523 108 174 524 110 175 525 102 175 526 66 175 527 114 176 528 103 176 529 94 176 530 114 177 531 94 177 532 92 177 533 94 178 534 103 178 535 111 178 536 114 179 537 116 179 538 115 179 539 114 180 540 118 180 541 116 180 542 116 181 543 118 181 544 117 181 545 117 182 546 118 182 547 112 182 548 119 183 549 120 183 550 121 183 551 121 184 552 122 184 553 123 184 554 122 185 555 124 185 556 123 185 557 121 186 558 123 186 559 114 186 560 120 187 561 122 187 562 121 187 563 69 188 564 80 188 565 125 188 566 68 189 567 80 189 568 69 189 569 80 190 570 68 190 571 82 190 572 82 191 573 68 191 574 33 191 575 126 192 576 113 192 577 127 192 578 128 193 579 126 193 580 127 193 581 127 194 582 113 194 583 112 194 584 129 195 585 97 195 586 130 195 587 129 196 588 131 196 589 97 196 590 129 197 591 130 197 592 132 197 593 133 198 594 130 198 595 132 198 596 130 199 597 96 199 598 100 199 599 130 200 600 97 200 601 96 200 602 102 201 603 110 201 604 134 201 605 121 202 606 114 202 607 135 202 608 136 203 609 121 203 610 135 203 611 136 204 612 135 204 613 93 204 614 135 205 615 92 205 616 93 205 617 114 206 618 92 206 619 135 206 620 137 207 621 134 207 622 128 207 623 118 208 624 138 208 625 137 208 626 138 209 627 134 209 628 137 209 629 139 210 630 140 210 631 141 210 632 142 211 633 140 211 634 143 211 635 142 212 636 141 212 637 139 212 638 143 213 639 140 213 640 144 213 641 142 214 642 143 214 643 139 214 644 144 215 645 140 215 646 139 215 647 145 216 648 142 216 649 146 216 650 140 217 651 142 217 652 145 217 653 141 218 654 140 218 655 145 218 656 143 219 657 147 219 658 148 219 659 139 220 660 143 220 661 148 220 662 143 221 663 144 221 664 147 221 665 149 222 666 145 222 667 150 222 668 141 223 669 145 223 670 149 223 671 141 224 672 142 224 673 146 224 674 146 225 675 141 225 676 149 225 677 152 226 678 151 226 679 153 226 680 152 227 681 146 227 682 149 227 683 149 228 684 152 228 685 154 228 686 154 229 687 155 229 688 152 229 689 145 230 690 146 230 691 150 230 692 150 231 693 146 231 694 152 231 695 150 232 696 152 232 697 156 232 698 133 233 699 157 233 700 158 233 701 133 234 702 159 234 703 157 234 704 130 235 705 159 235 706 133 235 707 158 236 708 160 236 709 133 236 710 159 237 711 161 237 712 134 237 713 162 238 714 144 238 715 148 238 716 144 239 717 139 239 718 148 239 719 148 240 720 147 240 721 163 240 722 159 241 723 147 241 724 162 241 725 147 242 726 138 242 727 163 242 728 138 243 729 164 243 730 163 243 731 163 244 732 165 244 733 153 244 734 119 245 735 148 245 736 163 245 737 166 246 738 148 246 739 119 246 740 159 247 741 162 247 742 167 247 743 166 248 744 167 248 745 162 248 746 159 249 747 167 249 748 119 249 749 163 250 750 153 250 751 119 250 752 162 251 753 148 251 754 166 251 755 120 252 756 119 252 757 168 252 758 120 253 759 168 253 760 169 253 761 119 254 762 153 254 763 168 254 764 159 255 765 119 255 766 121 255 767 159 256 768 138 256 769 147 256 770 164 257 771 138 257 772 153 257 773 165 258 774 164 258 775 153 258 776 147 259 777 144 259 778 162 259 779 170 260 780 35 260 781 71 260 782 170 261 783 50 261 784 35 261 785 97 262 786 50 262 787 170 262 788 35 263 789 171 263 790 55 263 791 97 264 792 49 264 793 50 264 794 43 265 795 172 265 796 35 265 797 43 266 798 49 266 799 48 266 800 43 267 801 50 267 802 45 267 803 43 268 804 48 268 805 172 268 806 44 269 807 172 269 808 51 269 809 49 270 810 172 270 811 44 270 812 50 271 813 49 271 814 43 271 815 47 272 816 48 272 817 51 272 818 51 273 819 172 273 820 48 273 821 158 274 822 173 274 823 160 274 824 157 275 825 159 275 826 158 275 827 174 276 828 175 276 829 176 276 830 174 277 831 160 277 832 173 277 833 160 278 834 174 278 835 176 278 836 159 279 837 175 279 838 174 279 839 158 280 840 177 280 841 173 280 842 159 281 843 174 281 844 177 281 845 159 282 846 177 282 847 158 282 848 177 283 849 174 283 850 173 283 851 178 284 852 179 284 853 180 284 854 180 285 855 179 285 856 181 285 857 181 286 858 182 286 859 180 286 860 179 287 861 182 287 862 181 287 863 183 288 864 161 288 865 184 288 866 161 289 867 130 289 868 184 289 869 185 290 870 183 290 871 184 290 872 186 291 873 187 291 874 188 291 875 188 292 876 187 292 877 183 292 878 184 293 879 186 293 880 185 293 881 186 294 882 188 294 883 185 294 884 185 295 885 188 295 886 183 295 887 189 296 888 190 296 889 191 296 890 191 297 891 176 297 892 192 297 893 192 298 894 176 298 895 193 298 896 194 299 897 192 299 898 193 299 899 176 300 900 175 300 901 121 300 902 176 301 903 121 301 904 193 301 905 190 302 906 176 302 907 191 302 908 195 303 909 191 303 910 192 303 911 194 304 912 193 304 913 121 304 914 194 305 915 121 305 916 136 305 917 196 306 918 197 306 919 136 306 920 136 307 921 197 307 922 198 307 923 198 308 924 194 308 925 136 308 926 195 309 927 192 309 928 199 309 929 199 310 930 194 310 931 198 310 932 199 311 933 192 311 934 194 311 935 179 312 936 178 312 937 182 312 938 182 313 939 200 313 940 201 313 941 178 314 942 200 314 943 182 314 944 182 315 945 201 315 946 180 315 947 180 316 948 201 316 949 169 316 950 200 317 951 151 317 952 201 317 953 200 318 954 178 318 955 151 318 956 151 319 957 178 319 958 169 319 959 178 320 960 180 320 961 169 320 962 98 321 963 66 321 964 63 321 965 66 322 966 98 322 967 76 322 968 77 323 969 66 323 970 76 323 971 77 324 972 110 324 973 66 324 974 171 325 975 202 325 976 57 325 977 57 326 978 202 326 979 91 326 980 203 327 981 204 327 982 205 327 983 206 328 984 203 328 985 207 328 986 208 329 987 207 329 988 203 329 989 171 330 990 208 330 991 58 330 992 208 331 993 203 331 994 58 331 995 171 332 996 209 332 997 202 332 998 203 333 999 209 333 1000 59 333 1001 202 334 1002 209 334 1003 196 334 1004 209 335 1005 203 335 1006 196 335 1007 205 336 1008 204 336 1009 210 336 1010 210 337 1011 198 337 1012 196 337 1013 210 338 1014 196 338 1015 205 338 1016 205 339 1017 196 339 1018 203 339 1019 211 340 1020 210 340 1021 199 340 1022 199 341 1023 198 341 1024 210 341 1025 196 342 1026 198 342 1027 197 342 1028 160 343 1029 176 343 1030 212 343 1031 212 344 1032 176 344 1033 213 344 1034 160 345 1035 212 345 1036 214 345 1037 160 346 1038 214 346 1039 215 346 1040 213 347 1041 189 347 1042 215 347 1043 216 348 1044 189 348 1045 195 348 1046 49 349 1047 160 349 1048 172 349 1049 160 350 1050 215 350 1051 172 350 1052 213 351 1053 176 351 1054 190 351 1055 212 352 1056 213 352 1057 215 352 1058 214 353 1059 212 353 1060 215 353 1061 195 354 1062 217 354 1063 218 354 1064 216 355 1065 195 355 1066 218 355 1067 218 356 1068 204 356 1069 216 356 1070 218 357 1071 210 357 1072 204 357 1073 217 358 1074 195 358 1075 199 358 1076 217 359 1077 199 359 1078 211 359 1079 218 360 1080 217 360 1081 211 360 1082 93 361 1083 81 361 1084 136 361 1085 202 362 1086 136 362 1087 81 362 1088 202 363 1089 81 363 1090 91 363 1091 100 364 1092 186 364 1093 184 364 1094 184 365 1095 130 365 1096 100 365 1097 138 366 1098 159 366 1099 134 366 1100 96 367 1101 125 367 1102 100 367 1103 96 368 1104 82 368 1105 67 368 1106 69 369 1107 125 369 1108 96 369 1109 69 370 1110 96 370 1111 67 370 1112 74 371 1113 100 371 1114 79 371 1115 76 372 1116 101 372 1117 74 372 1118 74 373 1119 101 373 1120 100 373 1121 76 374 1122 98 374 1123 101 374 1124 113 375 1125 126 375 1126 110 375 1127 134 376 1128 110 376 1129 126 376 1130 126 377 1131 128 377 1132 134 377 1133 79 378 1134 73 378 1135 75 378 1136 73 379 1137 79 379 1138 95 379 1139 75 380 1140 74 380 1141 79 380 1142 95 381 1143 78 381 1144 73 381 1145 94 382 1146 111 382 1147 95 382 1148 77 383 1149 78 383 1150 111 383 1151 111 384 1152 78 384 1153 95 384 1154 127 385 1155 137 385 1156 128 385 1157 118 386 1158 127 386 1159 112 386 1160 114 387 1161 138 387 1162 118 387 1163 118 388 1164 137 388 1165 127 388 1166 130 389 1167 161 389 1168 159 389 1169 186 390 1170 100 390 1171 187 390 1172 100 391 1173 134 391 1174 187 391 1175 219 392 1176 204 392 1177 206 392 1178 219 393 1179 216 393 1180 204 393 1181 219 394 1182 215 394 1183 216 394 1184 189 395 1185 216 395 1186 215 395 1187 203 396 1188 206 396 1189 204 396 1190 215 397 1191 219 397 1192 220 397 1193 220 398 1194 219 398 1195 206 398 1196 220 399 1197 171 399 1198 35 399 1199 206 400 1200 207 400 1201 220 400 1202 220 401 1203 207 401 1204 171 401 1205 159 402 1206 121 402 1207 175 402 1208 187 403 1209 134 403 1210 161 403 1211 187 404 1212 161 404 1213 183 404 1214 168 405 1215 151 405 1216 169 405 1217 153 406 1218 138 406 1219 151 406 1220 221 407 1221 222 407 1222 124 407 1223 221 408 1224 138 408 1225 222 408 1226 222 409 1227 123 409 1228 124 409 1229 151 410 1230 138 410 1231 221 410 1232 151 411 1233 221 411 1234 201 411 1235 201 412 1236 221 412 1237 169 412 1238 169 413 1239 221 413 1240 120 413 1241 100 414 1242 125 414 1243 80 414 1244 100 415 1245 80 415 1246 79 415 1247 100 416 1248 102 416 1249 134 416 1250 117 417 1251 112 417 1252 108 417 1253 92 418 1254 88 418 1255 86 418 1256 223 419 1257 224 419 1258 225 419 1259 119 420 1260 226 420 1261 227 420 1262 119 421 1263 227 421 1264 224 421 1265 228 422 1266 227 422 1267 224 422 1268 227 423 1269 226 423 1270 228 423 1271 226 424 1272 167 424 1273 166 424 1274 224 425 1275 166 425 1276 119 425 1277 226 426 1278 224 426 1279 166 426 1280 167 427 1281 226 427 1282 119 427 1283 30 428 1284 55 428 1285 57 428 1286 54 429 1287 55 429 1288 30 429 1289 55 430 1290 42 430 1291 35 430 1292 120 431 1293 221 431 1294 122 431 1295 221 432 1296 124 432 1297 122 432 1298 86 433 1299 89 433 1300 87 433 1301 89 434 1302 86 434 1303 88 434 1304 222 435 1305 114 435 1306 229 435 1307 229 436 1308 114 436 1309 123 436 1310 138 437 1311 114 437 1312 222 437 1313 230 438 1314 222 438 1315 231 438 1316 150 439 1317 149 439 1318 154 439 1319 154 440 1320 150 440 1321 156 440 1322 155 441 1323 153 441 1324 168 441 1325 152 442 1326 155 442 1327 153 442 1328 155 443 1329 154 443 1330 168 443 1331 232 444 1332 229 444 1333 123 444 1334 231 445 1335 232 445 1336 123 445 1337 231 446 1338 222 446 1339 123 446 1340 97 447 1341 160 447 1342 49 447 1343 220 448 1344 172 448 1345 215 448 1346 35 449 1347 172 449 1348 220 449 1349 203 450 1350 59 450 1351 61 450 1352 58 451 1353 203 451 1354 61 451 1355 89 452 1356 83 452 1357 87 452 1358 202 453 1359 196 453 1360 136 453 1361 57 454 1362 170 454 1363 71 454 1364 97 455 1365 170 455 1366 85 455 1367 85 456 1368 170 456 1369 57 456 1370 233 457 1371 57 457 1372 90 457 1373 90 458 1374 57 458 1375 91 458 1376 85 459 1377 57 459 1378 233 459 1379 85 460 1380 233 460 1381 90 460 1382 213 461 1383 190 461 1384 189 461 1385 231 462 1386 234 462 1387 235 462 1388 235 463 1389 232 463 1390 231 463 1391 156 464 1392 151 464 1393 168 464 1394 156 465 1395 152 465 1396 151 465 1397 97 466 1398 131 466 1399 160 466 1400 131 467 1401 133 467 1402 160 467 1403 189 468 1404 191 468 1405 195 468 1406 57 469 1407 55 469 1408 171 469 1409 207 470 1410 208 470 1411 171 470 1412 171 471 1413 58 471 1414 60 471 1415 225 472 1416 236 472 1417 237 472 1418 238 473 1419 225 473 1420 237 473 1421 239 474 1422 236 474 1423 225 474 1424 226 475 1425 223 475 1426 224 475 1427 228 476 1428 226 476 1429 223 476 1430 228 477 1431 223 477 1432 239 477 1433 228 478 1434 239 478 1435 225 478 1436 238 479 1437 223 479 1438 225 479 1439 239 480 1440 223 480 1441 238 480 1442 239 481 1443 236 481 1444 238 481 1445 164 482 1446 236 482 1447 238 482 1448 235 483 1449 234 483 1450 230 483 1451 232 484 1452 235 484 1453 230 484 1454 230 485 1455 231 485 1456 234 485 1457 236 486 1458 165 486 1459 163 486 1460 236 487 1461 164 487 1462 165 487 1463 232 488 1464 229 488 1465 222 488 1466 232 489 1467 230 489 1468 222 489 1469 238 490 1470 163 490 1471 237 490 1472 237 491 1473 236 491 1474 163 491 1475 60 492 1476 59 492 1477 209 492 1478 171 493 1479 60 493 1480 209 493 1481 168 494 1482 154 494 1483 156 494 1484 218 495 1485 211 495 1486 210 495 1487 129 496 1488 132 496 1489 131 496 1490 238 497 1491 164 497 1492 163 497 1493 132 498 1494 133 498 1495 131 498 1496 224 499 1497 228 499 1498 225 499 1499</p>
        </polylist>
      </mesh>
    </geometry>
  </library_geometries>
  <library_visual_scenes>
    <visual_scene id="Scene" name="Scene">
      <node id="PowerSupplyBox3" name="PowerSupplyBox3" type="NODE">
        <scale sid="scale">1 1 1</scale>
        <translate sid="location">-0.005401241666666664 0.5666648541666665 0.018879041666666665</translate>
        <rotate sid="rotationX">1 0 0 0</rotate>
        <rotate sid="rotationY">0 1 0 0</rotate>
        <rotate sid="rotationZ">0 0 1 0</rotate>
        <instance_geometry url="#PowerSupplyBox3-mesh" name="PowerSupplyBox3">
          <bind_material>
            <technique_common>
            </technique_common>
          </bind_material>
        </instance_geometry>
      </node>
    </visual_scene>
  </library_visual_scenes>
  <scene>
    <instance_visual_scene url="#Scene"/>
  </scene>
</COLLADA>
