<?xml version="1.0" encoding="utf-8"?>
<COLLADA xmlns="http://www.collada.org/2005/11/COLLADASchema" version="1.4.1" xmlns:xsi="http://www.w3.org/2001/XMLSchema-instance">
  <asset>
    <contributor>
      <author>Blockbench user</author>
      <authoring_tool>Blockbench</authoring_tool>
    </contributor>
    <created>2026-07-23T17:26:59.246Z</created>
    <modified>2026-07-23T17:26:59.253Z</modified>
    <unit name="meter" meter="1.0"/>
    <up_axis>Y_UP</up_axis>
  </asset>
  <library_effects>
  </library_effects>
  <library_images>
  </library_images>
  <library_materials>
  </library_materials>
  <library_geometries>
    <geometry id="RedLight2-mesh" name="RedLight2">
      <mesh>
        <source id="RedLight2-mesh-positions">
          <float_array id="RedLight2-mesh-positions-array" count="744">-0.022726 0.226117 0.20672 -0.051854 0.164908 0.27407 0.078299 0.161077 0.264781 -0.032102 0.076947 0.313044 0.079963 0.029758 0.308088 0.094493 0.201533 0.20943 0.165883 0.156002 0.243033 0.062769 0.220903 0.247575 0.165002 0.139029 0.205746 -0.076149 0.223296 0.246954 -0.126109 0.189559 0.207916 0.162158 0.039073 0.262684 0.194745 0.068784 0.208919 -0.175457 0.137264 0.220835 0.124818 -0.204212 0.194825 0.170309 -0.179995 0.2019 0.216268 -0.101354 0.262526 -0.019985 0.246344 0.267903 -0.052511 0.238569 0.216033 0.050351 0.235112 0.212288 -0.156265 0.18814 0.268009 -0.141326 0.196339 0.239991 0.11334 0.210404 0.26761 0.119297 0.204105 0.236482 -0.034107 -0.000338 0.318547 -0.165597 0.037538 0.269122 -0.032428 -0.10244 0.295356 0.106889 -0.078408 0.281308 0.07201 -0.14534 0.255152 -0.042456 -0.166554 0.246411 -0.207984 -0.015124 0.212085 -0.14069 -0.088829 0.262503 0.217168 0.032822 0.217779 0.198405 -0.075396 0.242749 0.229117 -0.005833 0.253678 0.190042 0.175586 0.261486 0.210234 0.095538 0.268207 0.246637 0.020808 0.263508 0.191494 0.123139 0.231046 0.179194 -0.117901 0.268262 0.035057 -0.204892 0.267718 0.085185 -0.215475 0.260427 0.162635 -0.131756 0.244308 0.18084 -0.088523 0.247258 0.197794 0.075962 0.247336 0.097232 -0.180912 0.23658 -0.18323 -0.11104 0.24666 -0.216313 0.011457 0.247736 -0.226755 0.001378 0.225152 -0.191784 0.131845 0.241003 -0.223638 0.073331 0.267837 -0.218943 -0.054325 0.267422 0.304774 -0.303954 0.201541 0.252322 -0.299547 0.188989 0.262219 -0.314923 0.192472 0.182363 -0.075231 0.213863 -0.135108 -0.170892 0.268056 -0.073364 -0.194863 0.235163 -0.158919 -0.146147 0.245911 -0.2065 -0.131187 0.264843 0.046622 -0.198222 0.22422 -0.089554 -0.217965 0.26409 0.096199 -0.168635 0.205042 0.044726 -0.186234 0.211515 -0.060003 -0.185686 0.214084 -0.163691 -0.121622 0.215063 -0.056769 -0.188208 0.247508 0.065301 -0.186069 0.247523 0.35336 0.088023 -0.192316 0.351631 0.327438 -0.35049 0.351617 0.328959 0.103852 0.313904 0.361847 -0.346449 0.316799 0.361356 0.104707 0.33354 0.335674 0.100576 0.352271 -0.338477 0.102626 -0.33695 0.346318 0.100821 0.309629 0.359542 0.140776 0.308154 0.357568 0.195827 0.34849 0.321674 0.139457 0.08092 0.36414 0.14001 -0.383021 -0.333883 0.103554 -0.346816 -0.369635 -0.345815 -0.348374 -0.368822 0.108666 -0.383862 -0.332366 -0.346346 -0.384377 0.325765 -0.347292 0.343332 -0.000698 0.197385 0.280808 -0.265929 0.201623 0.305877 -0.362115 0.194395 0.346472 -0.32127 0.194726 0.193348 -0.363572 0.192428 0.213301 -0.30312 0.192651 0.147369 -0.332673 0.201849 0.232234 -0.087512 0.196853 0.255985 0.003293 0.200417 0.083157 -0.357463 0.192034 -0.150908 -0.331191 0.199673 -0.121977 -0.366983 0.174322 0.015642 -0.237951 0.194823 -0.095065 -0.230631 0.201938 -0.196207 -0.157904 0.195087 -0.237766 -0.362432 -0.345942 -0.283873 -0.284393 -0.345943 -0.337758 -0.12475 -0.348218 -0.286852 -0.314978 -0.348338 -0.324921 -0.270694 -0.348141 -0.313307 -0.320193 -0.342344 -0.334785 -0.288352 -0.334647 0.174379 -0.344031 -0.34792 -0.09535 -0.368965 -0.304618 0.312621 -0.374656 -0.345098 0.182353 -0.371849 -0.318802 0.334618 -0.36018 -0.345676 0.247219 -0.112593 -0.3465 0.293325 -0.080333 -0.322402 0.24275 -0.123276 -0.321493 0.223104 -0.103682 -0.311367 0.245802 -0.081874 -0.331262 0.013864 0.227374 -0.345003 0.215534 0.094236 -0.348142 0.232967 -0.054364 -0.348057 0.311696 -0.063396 -0.347632 0.307149 0.274789 -0.348347 0.180727 -0.141174 -0.345453 0.35335 -0.100491 -0.255895 0.349139 -0.164378 -0.346189 0.327627 -0.121827 -0.333365 0.32577 -0.098242 -0.290739 0.282946 -0.131578 -0.330961 0.349763 0.325717 -0.346762 0.350799 -0.036479 -0.344301 0.119151 0.213838 -0.348497 -0.213209 0.156526 0.263578 -0.068157 0.261477 0.261433 0.082834 0.252459 0.265079 -0.159902 0.229445 0.201918 -0.00799 0.272668 0.194703 -0.02866 0.290674 0.194768 -0.247258 0.122068 0.201888 0.043207 0.360671 0.1969 0.109958 0.248314 0.19718 0.314662 -0.375046 0.109472 -0.335627 0.28818 -0.33929 -0.316892 0.317335 -0.338739 -0.311822 0.258628 -0.348376 -0.345899 0.365219 -0.347417 -0.325823 -0.067254 -0.348105 -0.246331 0.096902 -0.345813 -0.281817 0.292683 -0.342721 -0.289802 0.310388 -0.332438 0.040088 0.359377 -0.345774 -0.198822 0.172073 -0.348039 -0.066496 0.242602 -0.348397 -0.176441 0.183488 -0.316318 -0.240121 0.105488 -0.317506 0.352998 -0.334241 -0.351626 0.147425 0.1693 -0.345241 0.078462 -0.221727 -0.344888 -0.047411 -0.238189 -0.346329 -0.123167 0.20326 -0.346442 0.198839 -0.150499 -0.348333 0.125665 -0.20605 -0.314974 0.033841 -0.256874 -0.348344 0.29829 -0.107185 -0.340056 0.350202 -0.341007 -0.349782 0.253956 -0.278517 -0.348246 0.274654 -0.32073 -0.346491 0.305041 -0.28385 -0.348034 0.016267 -0.248954 -0.31378 -0.109581 -0.240945 -0.348304 -0.086407 -0.240412 -0.314629 -0.228325 -0.136036 -0.348226 0.256243 -0.300364 -0.334801 0.292499 0.364074 -0.037891 0.297804 0.362361 0.019376 -0.213681 0.359856 -0.228576 0.27501 0.364048 0.014774 -0.342315 0.368342 0.004171 -0.344585 0.36716 0.107598 -0.267608 -0.108627 -0.320251 -0.252965 -0.111015 -0.339104 -0.231986 -0.099272 -0.313847 -0.247803 -0.110288 -0.32107 -0.321963 -0.102677 -0.315947 -0.250553 -0.088367 -0.316146 -0.285538 -0.084403 -0.330801 -0.178325 -0.179631 -0.314393 -0.241789 -0.054829 -0.348186 -0.166227 -0.178668 -0.342771 -0.031915 0.239066 -0.31578 0.12145 0.201471 -0.319422 0.072122 0.336746 -0.348343 0.249646 0.295713 -0.348182 0.28335 0.318132 -0.34043 0.137379 0.361066 -0.343573 0.08495 0.358003 -0.313597 0.225881 0.152729 0.201931 0.353408 0.066956 -0.140268 0.353327 0.045304 -0.185657 0.122493 0.359087 0.197301 0.292257 0.314799 0.198688 0.050237 0.34004 0.201881 0.256157 0.307069 0.18958 0.309264 0.273974 0.201962 0.346753 0.321328 0.194422 0.273145 0.194416 0.192497 0.26658 0.272414 0.189232 0.299282 0.27489 0.186964 0.208215 0.104614 -0.315899 -0.311312 0.268847 -0.335836 -0.38338 0.329641 0.104677 0.3004 0.298624 -0.335945 0.28439 0.265601 -0.334362 0.306689 -0.352047 0.100644 0.082751 -0.366537 0.111671 -0.076574 -0.361552 0.108299 0.339874 -0.316495 0.100564 -0.351562 0.364033 -0.25419 -0.254661 0.011018 0.264156 -0.262082 -0.038842 0.201834 -0.309172 -0.29431 -0.333618 -0.3266 0.028628 0.199477 -0.373586 0.082352 0.198284 -0.311249 -0.266828 0.201051 -0.377539 -0.319689 0.193929 -0.374861 0.197791 0.197682 -0.340424 0.151647 0.201637 -0.318456 0.191206 0.19336 -0.333566 0.277579 0.201546 -0.372889 0.323468 0.196643 -0.294399 0.314605 0.192125 -0.282565 0.285748 0.188923 -0.335081 0.362765 0.19599 -0.323747 0.313793 0.18465 -0.366744 0.323278 0.100639 -0.333933 0.364897 0.140723 -0.310165 0.264807 0.187189 -0.067773 -0.373074 0.102688 -0.369081 -0.318317 0.100641 -0.343615 -0.350636 0.100669 -0.376584 0.152901 0.135402 -0.335583 -0.361733 0.195806 -0.243056 -0.363792 0.193271 -0.162613 -0.339538 0.181996 -0.320397 -0.317907 0.194455 -0.335577 -0.292476 0.190044 -0.282204 -0.285123 0.20146 -0.286713 -0.30854 0.187368 -0.309113 -0.293886 0.186483</float_array>
          <technique_common>
            <accessor source="#RedLight2-mesh-positions-array" count="248" stride="3">
              <param name="X" type="float"/>
              <param name="Y" type="float"/>
              <param name="Z" type="float"/>
            </accessor>
          </technique_common>
        </source>
        <source id="RedLight2-mesh-normals">
          <float_array id="RedLight2-mesh-normals-array" count="1500">0.070336 0.722879 0.687386 0.076906 0.418284 0.905055 0.172086 0.310487 0.934871 -0.533064 -0.845963 -0.013753 0.552071 0.587928 0.591235 -0.614106 -0.712734 0.338945 0.148841 0.777098 0.611527 0.016739 0.995615 0.092034 -0.202254 -0.930807 0.304454 0.315116 -0.87945 0.35675 0.438169 0.28653 0.852003 0.58401 0.389173 0.712373 0.714998 0.33057 0.616037 -0.264781 0.767862 0.583334 -0.428582 0.576326 0.695821 -0.254622 0.679362 -0.688212 -0.027136 -0.985953 0.164804 0.390411 -0.914312 -0.107764 0.419911 -0.90662 -0.041414 -0.258225 -0.95684 -0.133333 -0.436455 -0.894431 0.09747 0.073034 0.068949 0.994943 -0.377367 0.302999 0.875092 0.134972 -0.217356 0.966716 0.163944 -0.432 0.886848 0.142688 -0.204255 0.968463 0.489478 -0.092822 0.867061 0.052961 -0.611167 0.789728 -0.705946 -0.175089 0.686282 -0.435709 0.356995 0.826264 -0.331698 0.075562 0.940354 -0.30827 -0.215525 0.926563 -0.38001 -0.12292 0.916779 -0.793374 0.264106 0.548457 0.519319 0.200742 0.830668 -0.796086 -0.603379 -0.046694 -0.922825 -0.298157 0.24392 -0.253935 -0.183414 0.949672 0.104454 -0.17919 0.978254 0.119406 0.075637 0.98996 -0.973946 -0.197419 0.111604 0.131154 0.115751 0.984581 0.29623 -0.356556 0.886068 -0.748371 -0.632322 -0.200273 0.914001 -0.405516 0.012637 -0.812203 0.522649 0.259162 0.268194 -0.0281 0.962955 0.932085 0.223031 0.285438 -0.826983 0.013695 -0.562059 -0.596135 0.801241 -0.051339 -0.483665 0.803563 -0.346921 -0.718558 -0.695459 0.00322 0.702294 0.314335 0.638731 0.965007 0.260346 0.03134 -0.839718 -0.231101 0.491392 0.6195 -0.775337 -0.12277 -0.163526 0.143254 0.976083 0.70904 -0.564769 0.422254 0.924308 -0.169195 0.342092 0.787068 -0.201476 0.583036 0.919987 -0.206093 -0.333391 0.990236 0.036856 -0.134438 -0.226169 0.07443 0.97124 0.658165 -0.194327 0.727362 -0.994189 0.087624 0.062533 0.867561 -0.057632 0.493981 -0.994719 0.102531 -0.004555 0.797221 0.572317 -0.192072 0.841973 0.396076 0.366339 0.496054 0.793279 0.353043 0.859799 -0.504434 -0.079318 0.391489 -0.908004 -0.149217 0.866083 -0.282275 0.412579 0.767408 -0.596714 0.234558 -0.069725 -0.044726 0.996563 0.18441 0.926211 -0.328825 0.042413 0.985806 0.16244 -0.335154 0.94055 0.055115 0.025231 -0.48335 0.875064 -0.018309 -0.101521 0.994665 0.632315 -0.731015 0.256503 0.583786 -0.591099 0.556593 0.573476 -0.539695 0.616324 -0.726646 0.649054 0.2252 0.398765 -0.228517 0.888125 0.333713 -0.782917 0.525049 0.090104 -0.75419 0.650445 0.007902 -0.862428 0.506119 0.520376 0.853176 0.036058 -0.034104 -0.044917 0.998408 0.525664 0.850588 0.013319 0.275347 0.641528 -0.715979 -0.015516 0.8887 -0.458227 -0.300082 0.939153 0.167163 -0.637614 0.754808 -0.153991 0.842306 0.361499 0.399799 -0.760308 -0.300107 0.57608 -0.855908 0.154353 0.493554 -0.305292 -0.547201 0.779338 -0.408646 -0.670853 0.618841 -0.916479 -0.355525 0.183489 -0.913625 -0.38036 0.143579 0.092022 -0.106307 0.990066 -0.016263 0.891833 -0.452073 -0.321012 -0.912274 -0.254376 0.28925 0.398651 0.870294 0.044418 0.932023 0.359666 0.013357 0.892419 0.451009 0.007047 0.997192 0.074561 -0.01752 0.999832 0.00543 -0.406617 -0.647375 0.644645 0.346599 -0.577378 0.739259 0.2472 -0.926147 0.284857 0.79683 0.556796 -0.234608 0.999974 0.007226 0.000007 0.67366 0.739033 -0.003518 0.681162 0.732129 -0.00243 -0.179033 -0.001983 0.983841 -0.285936 -0.331036 0.899253 -0.002182 -0.160197 0.987083 0.697983 0.714741 0.04433 0.69768 0.716335 -0.01033 0.018423 0.821432 -0.570009 -0.01352 -0.863293 0.504522 -0.709981 -0.70422 -0.001174 -0.709218 -0.704989 -0.001051 -0.999998 -0.00078 0.001867 0.012618 0.013002 0.999836 0.020935 0.011039 0.99972 0.111785 -0.119096 0.98657 0.158609 -0.006636 0.987319 -0.015764 -0.122228 0.992377 -0.096439 0.028161 0.99494 -0.092377 -0.396709 0.913285 0.163173 -0.057491 0.984921 0.148053 -0.022575 0.988722 -0.076138 -0.1011 0.991959 -0.037357 -0.169761 0.984777 -0.374386 -0.03105 0.926753 -0.098285 0.119723 0.98793 0.830032 -0.551102 0.085636 0.950419 -0.255547 0.177198 0.895413 -0.079874 0.438013 -0.159994 0.02371 0.986833 -0.041198 -0.599463 0.799341 -0.173893 0.56275 -0.80813 0.032032 -0.005229 0.999473 -0.030506 -0.04054 0.998712 0.060351 -0.055961 0.996607 0.032476 -0.047678 0.998335 -0.05987 0.010765 0.998148 -0.056093 -0.033153 -0.997875 0.112818 0.066643 -0.991378 0.002029 -0.048333 -0.998829 -0.007618 -0.021817 -0.999733 0.200655 -0.06738 -0.977342 -0.259468 0.241498 -0.93507 -0.614776 -0.232508 -0.753652 0.041239 -0.955183 -0.29313 0.000854 -0.030555 -0.999533 -0.022199 -0.999748 -0.003254 -0.186712 0.245739 -0.951184 0.015611 0.994515 0.103425 0.631122 -0.747661 -0.206613 0.145499 -0.745163 -0.650816 0.185456 -0.238594 -0.953246 -0.017278 -0.002599 -0.999847 0.001879 -0.002089 -0.999996 0.602949 -0.792355 -0.092879 -0.326239 0.407944 -0.852731 -0.057367 -0.539577 -0.83998 0.005405 0.000062 -0.999985 -0.161558 -0.568045 -0.806985 0.767092 -0.474565 -0.431692 0.766894 0.506492 -0.394131 0.548582 0.741474 -0.386359 0.102483 0.709537 -0.697176 0.606526 -0.602334 -0.51896 0.045113 -0.006659 -0.99896 0.05101 -0.845981 -0.530768 0.163187 -0.777695 -0.607092 0.516217 -0.686559 -0.512012 0.085531 -0.000956 -0.996335 0.001396 -0.001844 -0.999997 -0.98627 0.034604 -0.161474 -0.318275 0.456863 0.830649 -0.075593 0.178781 0.980981 0.001573 0.397348 0.917667 0.022825 0.076548 0.996805 0.036524 0.038323 0.998598 -0.276483 0.956906 -0.088812 -0.113204 0.064946 0.991447 -0.773517 0.629269 0.075443 -0.528699 0.739236 0.417143 0.155437 0.171302 0.97288 0.128979 -0.162222 0.978289 0.053177 0.975906 0.211612 0.201752 0.979215 0.020817 -0.028472 -0.03629 0.998936 -0.007613 -0.999971 -0.000824 0.118467 -0.057392 -0.991298 0.56857 0.623126 -0.537068 0.111216 -0.111594 -0.987511 0.018779 0.004866 -0.999812 -0.047264 -0.03496 -0.99827 -0.359003 -0.372564 -0.855753 -0.322708 -0.579973 0.747991 0.003315 -0.061688 -0.99809 -0.000372 -0.004379 -0.99999 0.001304 0.021267 -0.999773 -0.052435 0.208375 -0.976642 -0.01327 -0.021216 -0.999687 0.739687 -0.599224 -0.306258 0.844786 -0.534602 -0.023176 0.470277 -0.882403 -0.014269 0.774278 -0.632464 0.021976 0.999996 -0.002153 0.00158 0.997643 0.024714 -0.064013 0.024757 0.061026 -0.997829 -0.017503 -0.002774 -0.999843 0.034353 -0.050613 -0.998127 0.011269 0.001365 -0.999936 0.010237 0.001501 -0.999946 -0.662949 0.644453 -0.381024 0.025896 0.611188 -0.791061 -0.530194 0.822361 0.206438 0.059948 0.517321 -0.853689 0.53801 -0.686455 -0.489207 -0.719059 0.679263 0.146824 0.029726 -0.365567 -0.93031 -0.211609 0.851244 -0.480213 -0.297459 -0.163599 -0.940613 0.404416 0.445224 -0.798889 -0.281796 0.017818 -0.959309 -0.27527 0.017896 -0.9612 0.222046 -0.373374 -0.900715 -0.000039 -0.004928 -0.999988 0.021451 -0.031028 -0.999288 0.014788 0.005687 -0.999874 0.061125 -0.007148 -0.998104 0.005548 0.013394 -0.999895 0.000395 -0.000509 -1 -0.342446 0.862831 -0.371825 -0.002182 -0.017137 -0.999851 -0.006685 -0.012387 -0.999901 -0.004274 -0.011756 -0.999922 0.083017 0.979735 -0.182287 0.000004 0.000748 -1 0.109899 0.989741 -0.091294 -0.064074 -0.730284 -0.680133 0.014077 0.000741 -0.999901 0.762443 0.395146 0.512387 -0.00903 -0.034372 -0.999368 -0.326649 0.230794 -0.916534 0.10894 0.994048 0.000383 -0.138071 0.989515 0.042389 -0.005471 0.999956 -0.007597 -0.030509 0.998563 0.044067 0.069082 0.997336 0.023433 -0.007572 0.999969 -0.002021 0.074793 0.997187 -0.004905 0.008825 0.999894 0.011621 0.014896 0.999491 -0.028209 0.078868 0.765188 -0.638958 0.705648 0.51906 0.482326 -0.608737 0.780418 0.142782 0.414843 0.64317 -0.643613 0.043371 0.814597 -0.578403 -0.002461 0.571239 -0.82078 0.029037 -0.158623 -0.986912 0.371108 -0.125994 -0.920003 -0.022209 0.216457 -0.97604 0.01026 0.537952 -0.842913 0.740013 0.497233 -0.452924 0.943617 0.180684 -0.277382 0.08765 -0.597995 -0.796693 -0.769909 -0.487763 -0.411493 -0.27671 -0.625013 -0.729925 0.157141 -0.792366 -0.589459 0.980179 -0.182511 0.077067 -0.637122 -0.651175 -0.412368 0.033515 -0.669779 -0.741804 -0.314546 -0.090177 -0.944949 -0.780076 -0.518529 -0.350155 0.926934 -0.191779 -0.322512 -0.00029 0.002025 -0.999998 -0.229791 -0.902003 -0.365495 -0.23769 -0.971205 0.016224 0.319141 0.736417 -0.596522 -0.362924 0.9278 0.086447 -0.003261 0.01554 -0.999874 -0.533801 -0.806268 -0.254929 -0.391405 -0.7494 -0.534042 0.080356 0.982549 0.167753 0.11722 -0.85157 -0.510968 -0.074175 -0.088692 -0.993293 -0.018138 0.015092 -0.999722 0.01111 0.001651 -0.999937 0.001313 0.001755 -0.999998 0.464751 -0.431304 -0.773293 -0.1079 0.120996 -0.986771 -0.085948 -0.076698 -0.993343 -0.00093 0.00533 -0.999985 -0.016874 0.23585 -0.971643 0.005685 0.020674 -0.99977 0.437909 0.685839 -0.581258 0.018875 -0.997444 -0.068908 0.011152 0.49201 -0.870518 -0.289974 0.860309 -0.419266 -0.003809 -0.881041 -0.473025 0.752588 -0.59725 0.277314 0.976476 0.195797 0.090325 0.981615 0.001511 -0.190865 0.999519 -0.00281 -0.030876 0.99998 0.000968 0.006297 0.999997 -0.001663 0.001906 0.999971 0.002405 -0.00729 0.999999 -0.000545 0.001459 0.999996 0.001321 -0.002415 0.999983 0.005588 0.001339 0.999999 -0.000978 -0.001318 0.894308 -0.001438 0.44745 -0.551055 0.000294 -0.834469 0.008443 0.063618 0.997939 0.008411 -0.045719 0.998919 0.02716 0.135129 0.990456 -0.3002 0.811774 0.500901 -0.016827 0.072961 0.997193 0.105741 0.07418 0.991623 -0.041114 -0.07782 0.996119 0.074317 0.139211 0.98747 -0.009154 -0.114033 0.993435 0.049916 0.004984 0.998741 -0.128604 0.939996 0.31602 -0.174157 -0.037998 0.983984 0.133192 0.072674 0.988422 0.188628 0.007032 0.982023 -0.067784 0.992085 0.105705 0.034547 -0.003166 0.999398 -0.803995 -0.293455 0.517181 0.738769 0.6722 -0.048663 0.743969 0.6636 -0.078395 -0.762405 -0.614993 -0.201302 -0.744902 -0.665644 0.045161 0.103287 -0.047596 -0.993512 0.57198 0.624324 -0.532032 -0.615921 0.622789 -0.482469 0.218321 -0.033268 -0.97531 -0.437385 0.295941 -0.849184 -0.039013 0.058016 -0.997553 -0.152851 -0.986713 0.055085 -0.000366 0.001113 -0.999999 -0.999997 -0.000545 0.002211 0.001448 -0.308744 0.951144 0.69 0.478128 -0.543409 0.235313 -0.017749 -0.971758 0.240067 -0.162268 -0.957098 -0.577082 0.242392 -0.779886 -0.223222 -0.607444 -0.762354 -0.053678 -0.980433 -0.189395 0.014737 -0.994189 -0.106639 0.069638 -0.991313 0.11158 0.050391 -0.997604 -0.047409 -0.03345 -0.993111 0.112304 -0.02114 -0.320226 0.947105 0.707847 -0.702952 -0.06936 0.72825 -0.679956 -0.08551 -0.754327 0.656487 -0.003966 -0.715533 0.697722 -0.034588 0.696769 -0.717286 -0.003744 0.667135 -0.744936 0.001115 0.923994 -0.382402 -0.002087 -0.13439 0.314152 0.939813 -0.166904 -0.001639 0.985972 -0.060922 0.059108 0.996391 0.022216 0.364966 0.930756 -0.242207 -0.154722 0.957808 -0.8996 0.257677 0.352593 -0.282828 0.084367 0.955453 -0.103844 -0.007052 0.994569 -0.994769 0.091629 0.045146 -0.211705 -0.066988 0.975035 -0.228077 -0.078343 0.970486 0.086763 -0.266705 0.959865 0.974031 0.001624 0.226409 -0.434944 0.018934 -0.900259 0.861003 0.319992 0.395322 0.57702 0.796217 0.181899 0.631838 0.770478 0.084521 0.054902 0.004302 -0.998483 0.662041 0.749358 -0.012821 0.512819 0.776945 -0.365202 -0.033991 -0.001463 -0.999421 -0.027372 -0.002935 -0.999621 -0.238388 0.098873 -0.966124 -0.517106 0.346472 -0.782661 -0.118525 -0.640563 -0.758703 0.108303 0.302007 -0.947134 -0.139746 -0.550767 -0.822877 0.324573 -0.839814 -0.435161 -0.358771 0.933167 -0.021995 -0.139357 0.82463 -0.548239 -0.546193 0.629229 -0.552941 0.295225 -0.95532 0.014342 0.019962 -0.95213 0.30504 -0.051544 -0.977653 0.203807 -0.18829 -0.261961 0.946532 0.589098 0.579803 0.562842 0.272649 0.096607 0.957251 -0.073243 -0.03522 0.996692 -0.055966 -0.026783 0.998073 0.012682 0.010187 0.999868 -0.099085 -0.009804 0.995031 -0.889325 -0.299521 0.345525 -0.872178 -0.485813 0.057373 0.093348 0.153974 0.983656 -0.112249 0.009976 0.99363 0.000938 -0.109904 0.993942 0.200373 -0.176768 0.963641 0.285655 0.340494 0.895804 -0.129067 0.903548 0.408586 -0.003596 -0.22638 0.974032 0.18215 -0.243071 0.952753 -0.009389 -0.999954 0.001757 -0.231817 0.939791 0.251105 0.001928 0.998066 0.062137 0.999846 -0.014132 0.010383 0.99945 -0.010328 0.03152 0.934432 0.009082 -0.356025 -0.042501 -0.728198 -0.684048 -0.230874 0.462092 0.856252 0.419958 -0.220226 0.880418 0.016204 -0.103703 0.994476 0.281579 -0.441655 0.851853 0.005049 0.999208 0.039475 0.146918 -0.226871 0.96278 0.066549 -0.082598 0.994358 -0.033623 0.002762 0.999431 -0.066819 0.054082 0.996298 -0.079064 0.041435 0.996008 0.321554 0.019512 0.94669 -0.051251 0.11725 0.991779 -0.071494 0.073824 0.994705 0.24728 -0.048458 0.967732 -0.052085 -0.023383 0.998369 -0.192242 0.167928 0.966873 0.75813 0.385343 0.52607 -0.051531 -0.527328 -0.848098 0.235329 -0.001518 0.971915 -0.581083 -0.784959 0.214901 -0.579978 -0.786634 0.211735 0.048934 0.998758 -0.00937 -0.437685 0.899128 0.000669 -0.291335 0.956605 -0.005527 0.000209 -0.810232 0.586109 -0.004556 -0.364799 0.931075 0.000929 0.906521 -0.422161 0.008462 0.999314 0.03606 0.019799 0.997093 0.073575 0.021331 0.165415 0.985993 0.368996 0.291518 0.88253 -0.695449 0.71854 0.007201 -0.788705 0.614728 0.007331 -0.720209 0.692131 -0.047469 -0.998402 0.055182 -0.012153 -0.81338 0.36743 0.451009 -0.750664 -0.525945 0.399856 0.012718 -0.429921 0.902777 -0.581014 0.75376 -0.307032 0.997537 0.010346 -0.069373 0.205346 -0.000745 0.978689 -0.782907 -0.616967 -0.080056 -0.025217 -0.993193 -0.113719 -0.041302 -0.994482 -0.096436 -0.037539 -0.993492 -0.107539 -0.707157 -0.706691 -0.022728 0.68475 0.728306 0.026224 -0.997842 0.015129 -0.0639 -0.37416 -0.718079 0.586828 -0.009588 0.404617 0.914436 0.027851 0.021157 0.999388 0.03847 0.082846 0.99582 -0.148976 0.081999 0.985435 0.498785 -0.695229 0.517562 -0.027559 -0.117053 0.992743 -0.065159 -0.135338 0.988655 0.310343 -0.922371 0.230043 -0.966578 0.00352 -0.256348 0.048142 0.09865 0.993957 -0.31359 0.533213 -0.785713 -0.033129 -0.457927 0.888372 0.005438 0.999238 0.03866 -0.295439 -0.450199 0.842637 0.142212 0.250964 0.957493 -0.99828 0.009188 0.057903 0.153166 -0.049189 0.986975 -0.337637 -0.466744 0.817405 -0.995861 -0.009186 -0.090425 0.093531 -0.466245 0.879698 0.130106 0.256717 0.957689</float_array>
          <technique_common>
            <accessor source="#RedLight2-mesh-normals-array" count="500" stride="3">
              <param name="X" type="float"/>
              <param name="Y" type="float"/>
              <param name="Z" type="float"/>
            </accessor>
          </technique_common>
        </source>
        <source id="RedLight2-mesh-map-0">
          <float_array id="RedLight2-mesh-map-0-array" count="3000">0.96024 0.761355 0.956564 0.72446 0.919515 0.77299 0.921031 0.731823 0.924176 0.704814 0.896259 0.743519 0.875977 0.73449 0.896259 0.743519 0.924176 0.704814 0.286753 0.689468 0.269449 0.704431 0.270092 0.679518 0.859517 0.004611 0.864486 0.000471 0.85909 0.000471 0.286753 0.689468 0.288231 0.71699 0.269449 0.704431 0.941135 0.80033 0.96024 0.761355 0.919515 0.77299 0.779729 0.269019 0.778789 0.228315 0.75905 0.265086 0.778789 0.228315 0.75905 0.265086 0.760239 0.221432 0.216794 0.80431 0.218264 0.847529 0.198255 0.822897 0.875977 0.73449 0.870395 0.780055 0.919515 0.77299 0.870395 0.780055 0.919515 0.81587 0.919515 0.77299 0.882305 0.82273 0.897591 0.822527 0.870395 0.780055 0.98478 0.733508 0.996962 0.707389 0.956564 0.72446 0.688615 0.262241 0.683517 0.262241 0.686072 0.2669 0.953443 0.914296 0.956566 0.942019 0.979714 0.903006 0.06668 0.713161 0.052734 0.736964 0.09722 0.736429 0.211253 0.251618 0.22447 0.286415 0.207621 0.283188 0.211253 0.251618 0.223183 0.25885 0.22447 0.286415 0.105225 0.712202 0.06668 0.713161 0.09722 0.736429 0.88526 0.439932 0.870748 0.43592 0.884976 0.412643 0.924176 0.704814 0.899762 0.676766 0.875977 0.73449 0.956564 0.72446 0.949785 0.660215 0.928391 0.681899 0.867129 0.646731 0.851711 0.67259 0.899762 0.676766 0.524605 0.864318 0.485963 0.835674 0.499219 0.804577 0.899762 0.676766 0.851711 0.67259 0.858771 0.701246 0.524914 0.77862 0.499219 0.804577 0.502785 0.770798 0.504903 0.886603 0.485963 0.835674 0.524605 0.864318 0.873278 0.95392 0.914763 0.928088 0.87334 0.916641 0.956564 0.72446 0.981716 0.6836 0.949785 0.660215 0.949785 0.660215 0.897757 0.665775 0.928391 0.681899 0.884367 0.627197 0.897757 0.665775 0.911363 0.628784 0.949785 0.660215 0.922355 0.642606 0.897757 0.665775 0.060664 0.982848 0.087925 0.98049 0.083369 0.960657 0.214371 0.178178 0.18865 0.19783 0.1729 0.229997 0.5664 0.814863 0.55277 0.835321 0.552019 0.817229 0.060664 0.982848 0.054443 0.960326 0.027427 0.978821 0.18865 0.19783 0.157178 0.233396 0.1729 0.229997 0.107021 0.233945 0.04905 0.193781 0.055363 0.216895 0.107021 0.233945 0.112214 0.245337 0.157178 0.233396 0.054443 0.960326 0.060664 0.982848 0.083369 0.960657 0.215032 0.135533 0.18865 0.19783 0.214371 0.178178 0.112214 0.245337 0.107021 0.233945 0.055363 0.216895 0.565722 0.849347 0.55277 0.835321 0.5664 0.814863 0.072465 0.915758 0.056856 0.936427 0.058482 0.894169 0.072465 0.915758 0.070185 0.88402 0.058482 0.894169 0.214263 0.939247 0.222717 0.937664 0.256937 0.908955 0.198138 0.95337 0.172194 0.960039 0.189404 0.968019 0.216321 0.954926 0.25517 0.968962 0.189404 0.968019 0.068318 0.167747 0.087912 0.168947 0.067504 0.154199 0.087912 0.168947 0.116321 0.154241 0.067504 0.154199 0.870748 0.43592 0.88526 0.439932 0.886569 0.459483 0.189404 0.968019 0.172194 0.960039 0.159883 0.965699 0.674938 0.967245 0.699745 0.988256 0.715023 0.967996 0.064704 0.811188 0.081238 0.835583 0.075632 0.785291 0.199852 0.774534 0.216794 0.80431 0.198255 0.822897 0.209765 0.750145 0.18721 0.751425 0.231757 0.759206 0.199852 0.774534 0.217791 0.770689 0.216794 0.80431 0.715023 0.967996 0.699745 0.988256 0.7574 0.96853 0.7574 0.96853 0.699745 0.988256 0.756107 0.986539 0.295181 0.792362 0.284317 0.788999 0.289657 0.844665 0.65076 0.222517 0.596148 0.22755 0.622284 0.245508 0.279516 0.744689 0.285364 0.755995 0.274948 0.749295 0.499219 0.804577 0.461042 0.78176 0.502785 0.770798 0.629702 0.179432 0.687555 0.180986 0.634272 0.159143 0.261623 0.740299 0.235685 0.71338 0.259572 0.687611 0.687555 0.180986 0.6968 0.159097 0.634272 0.159143 0.568124 0.23153 0.573143 0.2434 0.596148 0.22755 0.573143 0.2434 0.622284 0.245508 0.596148 0.22755 0.146786 0.212268 0.119545 0.212673 0.13222 0.223446 0.65076 0.222517 0.677221 0.23713 0.691222 0.22053 0.918238 0.097305 0.893277 0.105642 0.90013 0.090462 0.65076 0.222517 0.622284 0.245508 0.677221 0.23713 0.211253 0.251618 0.225168 0.236139 0.223183 0.25885 0.025209 0.092469 0.026548 0.126165 0.033383 0.082392 0.161484 0.171019 0.171417 0.155216 0.116321 0.154241 0.161484 0.171019 0.116321 0.154241 0.110979 0.174778 0.087912 0.168947 0.110979 0.174778 0.116321 0.154241 0.023956 0.169905 0.055363 0.216895 0.04905 0.193781 0.026548 0.126165 0.023956 0.169905 0.04905 0.193781 0.981743 0.94357 0.956566 0.942019 0.979714 0.903006 0.485963 0.835674 0.456263 0.817694 0.461042 0.78176 0.485963 0.835674 0.461042 0.78176 0.499219 0.804577 0.687555 0.180986 0.745222 0.180431 0.6968 0.159097 0.381674 0.81562 0.379773 0.825637 0.380973 0.807439 0.468811 0.860991 0.459846 0.839986 0.485963 0.835674 0.468811 0.860991 0.485963 0.835674 0.504903 0.886603 0.491581 0.903512 0.468811 0.860991 0.504903 0.886603 0.458548 0.045306 0.462712 0.027095 0.405442 0.026796 0.087649 0.8673 0.078485 0.857764 0.102031 0.899595 0.406118 0.045764 0.458548 0.045306 0.405442 0.026796 0.090464 0.90437 0.078485 0.857764 0.102031 0.899595 0.139274 0.938888 0.090464 0.90437 0.102031 0.899595 0.358647 0.026862 0.348632 0.04742 0.361438 0.046101 0.745222 0.180431 0.748796 0.159152 0.6968 0.159097 0.674938 0.967245 0.669719 0.98667 0.699745 0.988256 0.91779 0.961847 0.914763 0.928088 0.873278 0.95392 0.992252 0.673322 0.989476 0.628866 0.971132 0.63563 0.519566 0.904193 0.504903 0.886603 0.524605 0.864318 0.509513 0.923671 0.491581 0.903512 0.504903 0.886603 0.269449 0.704431 0.288231 0.71699 0.269839 0.734204 0.288231 0.71699 0.2875 0.738676 0.269839 0.734204 0.176342 0.946046 0.139274 0.938888 0.172655 0.9523 0.116156 0.940197 0.090464 0.90437 0.139274 0.938888 0.124021 0.205406 0.091403 0.196279 0.115538 0.189529 0.091403 0.196279 0.115538 0.189529 0.06772 0.19015 0.152763 0.20557 0.115538 0.189529 0.124021 0.205406 0.152763 0.20557 0.151119 0.18727 0.115538 0.189529 0.361438 0.046101 0.406118 0.045764 0.405442 0.026796 0.361438 0.046101 0.405442 0.026796 0.358647 0.026862 0.515482 0.915782 0.509513 0.923671 0.504903 0.886603 0.14681 0.949611 0.172655 0.9523 0.139274 0.938888 0.139274 0.938888 0.127904 0.945123 0.133013 0.946614 0.119545 0.212673 0.106486 0.211908 0.13222 0.223446 0.660445 0.502622 0.591696 0.614597 0.781762 0.615672 0.52373 0.16024 0.512225 0.185715 0.509884 0.29654 0.522745 0.267364 0.52373 0.16024 0.509884 0.29654 0.017736 0.682263 0.29794 0.656599 0.018506 0.656652 0.005844 0.673482 0.017736 0.682263 0.018506 0.656652 0.865827 0.502013 0.862787 0.470602 0.868922 0.472145 0.827452 0.111812 0.825155 0.137993 0.849855 0.108855 0.849855 0.108855 0.839806 0.090902 0.827452 0.111812 0.281878 0.021469 0.25164 0.019303 0.25141 0.022943 0.561282 0.094692 0.786418 0.094515 0.827427 0.111811 0.841977 0.936151 0.648474 0.956513 0.84315 0.960892 0.841977 0.936151 0.648417 0.94595 0.648474 0.956513 0.651457 0.637931 0.648417 0.94595 0.841977 0.936151 0.48473 0.994663 0.556615 0.903149 0.591264 0.962285 0.591264 0.962285 0.605427 0.973144 0.48473 0.994663 0.605427 0.973144 0.627992 0.978931 0.61232 0.995086 0.48473 0.994663 0.605427 0.973144 0.61232 0.995086 0.626725 0.921705 0.627992 0.978931 0.605427 0.973144 0.605144 0.933481 0.626725 0.921705 0.605427 0.973144 0.605427 0.973144 0.605144 0.933481 0.606237 0.954448 0.605144 0.933481 0.618312 0.902299 0.626725 0.921705 0.618312 0.902299 0.605144 0.933481 0.556615 0.903149 0.556615 0.903149 0.605144 0.933481 0.591264 0.962285 0.591264 0.962285 0.605144 0.933481 0.606237 0.954448 0.143853 0.677898 0.141671 0.68547 0.157277 0.680681 0.516341 0.941306 0.556615 0.903149 0.48473 0.994663 0.852862 0.166633 0.881087 0.137478 0.88164 0.167732 0.852862 0.166633 0.88164 0.167732 0.876666 0.205614 0.852862 0.166633 0.876666 0.205614 0.851818 0.195398 0.556615 0.903149 0.623643 0.880252 0.618312 0.902299 0.669773 0.079052 0.662161 0.065032 0.571632 0.070971 0.417158 0.833672 0.425492 0.892307 0.41795 0.813799 0.619737 0.762987 0.623643 0.880252 0.577396 0.84159 0.577396 0.84159 0.623643 0.880252 0.556615 0.903149 0.573391 0.795576 0.619737 0.762987 0.577396 0.84159 0.477146 0.955204 0.516341 0.941306 0.48473 0.994663 0.551153 0.752656 0.619737 0.762987 0.573391 0.795576 0.340807 0.590921 0.307182 0.607784 0.246755 0.613279 0.340807 0.590921 0.321699 0.60903 0.307182 0.607784 0.340807 0.590921 0.342579 0.628961 0.321699 0.60903 0.342579 0.628961 0.329171 0.650378 0.318037 0.630657 0.323559 0.623954 0.342579 0.628961 0.318037 0.630657 0.321699 0.60903 0.342579 0.628961 0.323559 0.623954 0.603636 0.010445 0.590445 0.008382 0.598912 0.006806 0.712235 0.19627 0.541166 0.187892 0.654491 0.210251 0.914605 0.166999 0.911663 0.475904 0.908564 0.424456 0.908564 0.424456 0.914605 0.166999 0.898833 0.230633 0.914605 0.166999 0.898833 0.230633 0.905424 0.170518 0.898833 0.230633 0.908564 0.424456 0.893851 0.361908 0.104875 0.011011 0.086705 0.016924 0.103718 0.01737 0.188229 0.809178 0.181253 0.80113 0.175839 0.780648 0.487087 0.922641 0.480934 0.93337 0.491518 0.943313 0.097227 0.467417 0.150077 0.374411 0.215156 0.363318 0.217331 0.327707 0.150077 0.374411 0.073724 0.334443 0.104875 0.011011 0.08932 0.007235 0.086705 0.016924 0.237507 0.358398 0.224411 0.356697 0.217331 0.327707 0.217331 0.327707 0.224411 0.356697 0.215156 0.363318 0.217331 0.327707 0.215156 0.363318 0.150077 0.374411 0.188229 0.809178 0.165833 0.80638 0.181253 0.80113 0.868354 0.607928 0.872673 0.572276 0.885271 0.615782 0.341877 0.524491 0.344089 0.476491 0.356133 0.499001 0.356133 0.499001 0.355917 0.514993 0.341877 0.524491 0.179577 0.275561 0.161749 0.30226 0.200788 0.294674 0.919735 0.217269 0.926131 0.180176 0.932862 0.22502 0.952786 0.025562 0.94353 0.003915 0.953696 0.003296 0.175839 0.780648 0.165588 0.770832 0.193046 0.764978 0.193046 0.764978 0.188229 0.809178 0.175839 0.780648 0.932862 0.22502 0.926131 0.180176 0.932808 0.180886 0.217331 0.327707 0.073724 0.334443 0.205026 0.312798 0.073724 0.334443 0.150077 0.374411 0.104024 0.422385 0.770944 0.081941 0.757922 0.07586 0.758637 0.083451 0.141797 0.763874 0.15064 0.792918 0.156893 0.842345 0.15064 0.792918 0.169992 0.846989 0.156893 0.842345 0.196564 0.885789 0.156893 0.842345 0.169992 0.846989 0.169992 0.846989 0.20318 0.879423 0.196564 0.885789 0.096595 0.136072 0.060042 0.107081 0.057687 0.119366 0.821483 0.064106 0.878677 0.064788 0.847221 0.032666 0.141797 0.763874 0.161511 0.73376 0.15064 0.792918 0.878677 0.064788 0.932879 0.064082 0.925795 0.032077 0.878677 0.064788 0.925795 0.032077 0.847221 0.032666 0.196564 0.885789 0.20318 0.879423 0.212829 0.890778 0.354354 0.823597 0.327188 0.855301 0.390248 0.754188 0.821483 0.064106 0.847221 0.032666 0.796127 0.032213 0.79692 0.063936 0.821483 0.064106 0.796127 0.032213 0.745844 0.239579 0.736339 0.244529 0.701615 0.273129 0.578679 0.322359 0.576163 0.634574 0.384224 0.631182 0.064836 0.628342 0.054701 0.65014 0.057408 0.61794 0.054701 0.65014 0.064836 0.628342 0.078622 0.617624 0.054701 0.65014 0.038879 0.63365 0.057408 0.61794 0.22088 0.625203 0.129357 0.627645 0.150395 0.585964 0.150395 0.585964 0.054701 0.65014 0.078622 0.617624 0.065223 0.605594 0.057408 0.61794 0.038879 0.63365 0.357491 0.573537 0.354031 0.585417 0.351634 0.567943 0.041534 0.453393 0.065223 0.605594 0.038879 0.63365 0.119341 0.564799 0.078622 0.617624 0.092486 0.504627 0.092486 0.504627 0.078622 0.617624 0.041534 0.453393 0.078622 0.617624 0.065223 0.605594 0.041534 0.453393 0.150395 0.585964 0.078622 0.617624 0.119341 0.564799 0.993943 0.544765 0.994681 0.592716 0.980852 0.558825 0.982171 0.59749 0.980852 0.558825 0.994681 0.592716 0.980852 0.558825 0.981633 0.526296 0.993943 0.544765 0.986143 0.243606 0.971976 0.179665 0.974279 0.240496 0.62672 0.418585 0.781526 0.304679 0.589317 0.311072 0.589317 0.311072 0.592644 0.389502 0.62672 0.418585 0.558668 0.298023 0.572208 0.271282 0.572218 0.29429 0.280293 0.435732 0.097227 0.467417 0.215156 0.363318 0.280293 0.435732 0.215156 0.363318 0.247716 0.388594 0.280293 0.435732 0.28254 0.520018 0.097227 0.467417 0.28254 0.520018 0.106251 0.529713 0.097227 0.467417 0.13796 0.276682 0.097223 0.285277 0.161749 0.30226 0.179577 0.275561 0.13796 0.276682 0.161749 0.30226 0.06303 0.267932 0.097223 0.285277 0.13796 0.276682 0.253308 0.381908 0.251381 0.341586 0.257464 0.315205 0.848291 0.537016 0.858316 0.511429 0.872673 0.572276 0.872673 0.572276 0.848291 0.537016 0.868354 0.607928 0.415579 0.768868 0.420358 0.775622 0.42036 0.765044 0.196553 0.280224 0.179577 0.275561 0.200788 0.294674 0.257464 0.315205 0.251381 0.341586 0.239001 0.334443 0.257464 0.315205 0.239001 0.334443 0.244642 0.322123 0.026104 0.215596 0.029478 0.293931 0.029515 0.349789 0.029478 0.293931 0.026104 0.215596 0.030581 0.213995 0.566249 0.866479 0.551631 0.863115 0.560963 0.85807 0.311994 0.354159 0.324437 0.425448 0.295848 0.462551 0.324922 0.346998 0.327436 0.377515 0.311994 0.354159 0.257464 0.315205 0.311994 0.354159 0.253308 0.381908 0.337852 0.319993 0.313722 0.334166 0.257464 0.315205 0.313722 0.334166 0.311994 0.354159 0.257464 0.315205 0.311994 0.354159 0.295848 0.462551 0.253308 0.381908 0.097223 0.285277 0.06303 0.267932 0.050272 0.280929 0.295848 0.462551 0.340807 0.590921 0.290294 0.523488 0.290294 0.523488 0.340807 0.590921 0.246755 0.613279 0.295848 0.462551 0.334961 0.392633 0.340807 0.590921 0.299497 0.48378 0.284745 0.496938 0.289048 0.473512 0.290294 0.523488 0.246755 0.613279 0.247418 0.580582 0.290294 0.523488 0.284745 0.496938 0.299497 0.48378 0.147913 0.12106 0.15165 0.103588 0.09123 0.111738 0.337852 0.319993 0.334961 0.392633 0.324922 0.346998 0.987163 0.367643 0.983667 0.376339 0.980826 0.361329 0.324922 0.346998 0.313722 0.334166 0.337852 0.319993 0.234782 0.021302 0.220558 0.023645 0.221607 0.01023 0.508201 0.157004 0.504323 0.239105 0.500291 0.288785 0.504323 0.239105 0.502337 0.255807 0.500291 0.288785 0.502886 0.220859 0.487513 0.226732 0.498548 0.23201 0.946138 0.451545 0.946832 0.429849 0.948259 0.453372 0.756132 0.009254 0.772971 0.015409 0.775799 0.007488 0.491468 0.240214 0.485024 0.230905 0.49408 0.254944 0.502337 0.255807 0.49408 0.254944 0.500291 0.288785 0.247939 0.233748 0.251238 0.300938 0.422779 0.296716 0.247939 0.233748 0.422779 0.296716 0.453756 0.204951 0.294092 0.961052 0.279385 0.932855 0.29363 0.916014 0.279385 0.932855 0.29363 0.916014 0.281574 0.929421 0.276196 0.917656 0.281574 0.929421 0.279299 0.928472 0.276196 0.917656 0.29363 0.916014 0.281574 0.929421 0.279385 0.932855 0.294092 0.961052 0.27717 0.958632 0.279385 0.932855 0.27717 0.958632 0.276196 0.917656 0.868441 0.34731 0.848482 0.312651 0.867919 0.336421 0.969087 0.605525 0.978145 0.606631 0.969796 0.610975 0.976498 0.613854 0.969796 0.610975 0.978145 0.606631 0.279299 0.928472 0.279385 0.932855 0.276196 0.917656 0.129179 0.087525 0.157552 0.093847 0.164195 0.085388 0.009532 0.078352 0.016385 0.081355 0.005439 0.086256 0.215059 0.586363 0.220987 0.607329 0.22088 0.625203 0.889073 0.337696 0.867158 0.394687 0.868441 0.34731 0.867919 0.336421 0.889073 0.337696 0.868441 0.34731 0.865934 0.320221 0.867919 0.336421 0.850234 0.308774 0.005439 0.086256 0.016385 0.081355 0.010604 0.099156 0.169085 0.112097 0.171421 0.122498 0.180339 0.117437 0.864488 0.299144 0.865934 0.320221 0.850234 0.308774 0.220987 0.607329 0.215059 0.586363 0.234101 0.591629 0.867158 0.394687 0.854277 0.385293 0.868441 0.34731 0.410847 0.922238 0.398768 0.908598 0.415241 0.907242 0.235572 0.632624 0.054701 0.65014 0.22088 0.625203 0.95773 0.601205 0.943959 0.565296 0.956518 0.556858 0.402577 0.850547 0.389817 0.809938 0.391318 0.880836 0.403036 0.782409 0.402577 0.850547 0.389817 0.809938 0.858316 0.511429 0.840235 0.482221 0.848291 0.537016 0.22088 0.625203 0.150395 0.585964 0.215059 0.586363 0.867158 0.394687 0.842647 0.43641 0.854277 0.385293 0.842647 0.43641 0.867158 0.394687 0.856267 0.452568 0.856267 0.452568 0.842647 0.43641 0.840235 0.482221 0.840235 0.482221 0.856267 0.452568 0.858316 0.511429 0.263612 0.54722 0.215059 0.586363 0.28254 0.520018 0.438466 0.748971 0.443258 0.728484 0.426933 0.727401 0.106251 0.529713 0.28254 0.520018 0.215059 0.586363 0.104024 0.422385 0.048399 0.439163 0.066735 0.353998 0.066735 0.353998 0.044156 0.327421 0.058668 0.338418 0.073724 0.334443 0.058668 0.338418 0.097147 0.309098 0.097147 0.309098 0.058668 0.338418 0.044156 0.327421 0.104024 0.422385 0.066735 0.353998 0.073724 0.334443 0.048399 0.439163 0.042381 0.40887 0.044156 0.327421 0.066735 0.353998 0.048399 0.439163 0.044156 0.327421 0.033604 0.635124 0.032168 0.645776 0.0182 0.626381 0.97901 0.269883 0.990843 0.251848 0.991494 0.292564 0.991494 0.292564 0.990843 0.251848 0.993716 0.070601 0.030339 0.604301 0.033604 0.635124 0.0182 0.626381 0.991494 0.292564 0.993716 0.070601 0.993565 0.3759 0.694625 0.261443 0.712391 0.24614 0.69272 0.246227 0.876666 0.205614 0.881287 0.285142 0.852521 0.210884 0.029515 0.349789 0.026104 0.215596 0.029901 0.519973 0.62672 0.418585 0.593417 0.44581 0.591696 0.614597 0.781762 0.615672 0.781526 0.304679 0.674232 0.495384 0.781526 0.304679 0.62672 0.418585 0.674232 0.495384 0.660445 0.502622 0.62672 0.418585 0.591696 0.614597 0.62672 0.418585 0.660445 0.502622 0.660962 0.487682 0.62672 0.418585 0.660962 0.487682 0.674232 0.495384 0.781762 0.615672 0.674232 0.495384 0.660445 0.502622 0.829966 0.003307 0.813756 0.01478 0.832276 0.019257 0.029901 0.519973 0.026104 0.215596 0.025254 0.515025 0.965292 0.166542 0.9656 0.176584 0.961242 0.469054 0.328868 0.886884 0.346911 0.969235 0.329551 0.980165 0.334036 0.866354 0.373665 0.886199 0.346911 0.969235 0.328868 0.886884 0.334036 0.866354 0.346911 0.969235 0.373665 0.886199 0.346911 0.969235 0.352905 0.952004 0.329551 0.980165 0.346911 0.969235 0.36408 0.973997 0.329551 0.980165 0.36408 0.973997 0.343009 0.997002 0.354354 0.823597 0.373665 0.886199 0.334036 0.866354 0.373665 0.886199 0.419018 0.937194 0.395746 0.960622 0.395746 0.960622 0.36408 0.973997 0.373665 0.886199 0.373665 0.886199 0.36588 0.959979 0.352905 0.952004 0.36588 0.959979 0.373665 0.886199 0.36408 0.973997 0.395746 0.960622 0.48473 0.994663 0.36408 0.973997 0.419018 0.937194 0.48473 0.994663 0.395746 0.960622 0.36408 0.973997 0.48473 0.994663 0.343009 0.997002 0.004194 0.158775 0.005041 0.14261 0.010872 0.157229 0.419018 0.937194 0.477146 0.955204 0.48473 0.994663 0.638164 0.969443 0.638649 0.976946 0.651158 0.973479 0.557541 0.781071 0.554733 0.794146 0.544994 0.78173 0.392513 0.760034 0.403036 0.782409 0.389817 0.809938 0.944962 0.499869 0.956518 0.556858 0.943959 0.565296 0.956518 0.556858 0.944962 0.499869 0.957671 0.502651 0.92365 0.129646 0.932387 0.119927 0.917057 0.126551 0.374114 0.3136 0.372014 0.320679 0.36217 0.315475 0.694357 0.01365 0.694731 0.006599 0.680686 0.010278 0.917057 0.126551 0.932387 0.119927 0.931284 0.107188 0.914332 0.110092 0.917057 0.126551 0.931284 0.107188 0.048399 0.439163 0.092486 0.504627 0.041534 0.453393 0.436795 0.849 0.437269 0.799561 0.449535 0.83111 0.104024 0.422385 0.092486 0.504627 0.048399 0.439163 0.839917 0.636215 0.651457 0.637931 0.841977 0.936151 0.005205 0.983761 0.011115 0.846764 0.005844 0.673482 0.396242 0.016835 0.381535 0.016579 0.385712 0.009549 0.107873 0.95385 0.109748 0.97009 0.102252 0.960508 0.107873 0.95385 0.11957 0.956768 0.109748 0.97009 0.396242 0.016835 0.40115 0.00942 0.385712 0.009549 0.899582 0.498363 0.897283 0.512694 0.903207 0.509808 0.530547 0.071271 0.571632 0.070971 0.479413 0.029183 0.479413 0.029183 0.480493 0.072381 0.530547 0.071271 0.571632 0.070971 0.575089 0.031367 0.479413 0.029183 0.662161 0.065032 0.646968 0.029874 0.571632 0.070971 0.646968 0.029874 0.575089 0.031367 0.571632 0.070971 0.750153 0.000476 0.708762 0.000648 0.725153 0.010429 0.335142 0.072804 0.328034 0.034399 0.309068 0.075315 0.311359 0.03491 0.309068 0.075315 0.328034 0.034399 0.932164 0.983664 0.976041 0.974837 0.785628 0.97398 0.977088 0.994334 0.976041 0.974837 0.932164 0.983664 0.384224 0.631182 0.576163 0.634574 0.414223 0.64609 0.576163 0.634574 0.56005 0.646864 0.414223 0.64609 0.781526 0.304679 0.590179 0.304807 0.589317 0.311072 0.302276 0.674246 0.310885 0.671719 0.29794 0.656599 0.017736 0.682263 0.291043 0.66199 0.29794 0.656599 0.302276 0.674246 0.29794 0.656599 0.291043 0.66199 0.302276 0.674246 0.311816 0.777276 0.310885 0.671719 0.857512 0.594176 0.852863 0.600045 0.842977 0.597063 0.932879 0.064082 0.965348 0.031912 0.925795 0.032077 0.141797 0.763874 0.170415 0.699369 0.161511 0.73376 0.161511 0.73376 0.170415 0.699369 0.19833 0.688234 0.932879 0.064082 0.972387 0.062383 0.965348 0.031912 0.170415 0.699369 0.212829 0.671846 0.19833 0.688234 0.181393 0.729544 0.194272 0.736396 0.189352 0.71604 0.194272 0.736396 0.200682 0.723516 0.189352 0.71604 0.591696 0.614597 0.593417 0.44581 0.589317 0.311072 0.592644 0.389502 0.593417 0.44581 0.589317 0.311072 0.852521 0.210884 0.881287 0.285142 0.854243 0.27353 0.101587 0.70206 0.114106 0.671173 0.092659 0.671864 0.061824 0.702349 0.101587 0.70206 0.061186 0.682138 0.305032 0.623509 0.246755 0.613279 0.307182 0.607784 0.107119 0.09949 0.115259 0.100271 0.129179 0.087525 0.107119 0.09949 0.129179 0.087525 0.097134 0.087113 0.246755 0.613279 0.329171 0.650378 0.054701 0.65014 0.909575 0.850304 0.90799 0.864894 0.936891 0.866324 0.547023 0.23645 0.551386 0.247837 0.54479 0.249598 0.617891 0.639901 0.625842 0.653928 0.626244 0.642354 0.617891 0.639901 0.626244 0.642354 0.637312 0.643009 0.625842 0.653928 0.637312 0.643009 0.626244 0.642354 0.892992 0.524306 0.892854 0.538247 0.891159 0.53109 0.449841 0.880125 0.436795 0.849 0.449535 0.83111 0.985113 0.168873 0.971976 0.179665 0.972736 0.151665 0.402577 0.850547 0.403647 0.891731 0.391318 0.880836 0.985113 0.168873 0.986143 0.243606 0.971976 0.179665 0.253667 0.855483 0.228185 0.876867 0.228742 0.845883 0.046568 0.822828 0.01841 0.781487 0.047073 0.775065 0.046568 0.822828 0.01703 0.827281 0.01841 0.781487 0.887524 0.523805 0.880018 0.511707 0.882661 0.49484 0.995596 0.393126 0.993565 0.3759 0.99138 0.39194 0.495078 0.718512 0.619737 0.762987 0.551153 0.752656 0.465559 0.683406 0.619737 0.762987 0.495078 0.718512 0.465559 0.683406 0.440034 0.663005 0.619737 0.762987 0.440034 0.663005 0.589497 0.689061 0.619737 0.762987 0.440034 0.663005 0.610277 0.657861 0.589497 0.689061 0.018841 0.92509 0.04688 0.889985 0.045043 0.947801 0.018841 0.92509 0.017508 0.873022 0.04688 0.889985 0.395802 0.664119 0.41335 0.676954 0.396914 0.688001 0.395802 0.664119 0.360572 0.683698 0.341457 0.662362 0.347312 0.701156 0.361507 0.701935 0.327188 0.855301 0.325124 0.681088 0.341457 0.662362 0.344811 0.686284 0.341457 0.662362 0.360572 0.683698 0.344811 0.686284 0.344811 0.686284 0.347312 0.701156 0.327188 0.855301 0.325124 0.681088 0.344811 0.686284 0.327188 0.855301 0.005205 0.983761 0.022043 0.987528 0.012771 0.97719 0.578679 0.322359 0.384224 0.631182 0.386826 0.322772 0.140275 0.961712 0.143159 0.964689 0.149108 0.959981 0.736771 0.118022 0.562288 0.115642 0.72268 0.136181 0.311359 0.03491 0.040941 0.050579 0.175698 0.076024 0.041208 0.074689 0.175698 0.076024 0.040941 0.050579 0.040941 0.050579 0.311359 0.03491 0.043306 0.03141 0.654491 0.210251 0.541166 0.187892 0.542093 0.209076 0.970498 0.809562 0.970152 0.822076 0.959852 0.808633 0.959852 0.808633 0.970152 0.822076 0.962812 0.825061 0.962812 0.825061 0.953306 0.815438 0.959852 0.808633 0.732371 0.080912 0.740961 0.083799 0.729397 0.087194 0.949417 0.603107 0.935937 0.607788 0.949949 0.617159 0.093671 0.997475 0.022043 0.987528 0.005205 0.983761 0.395802 0.664119 0.396914 0.688001 0.360572 0.683698 0.465559 0.683406 0.495078 0.718512 0.436485 0.718546 0.396914 0.688001 0.436485 0.718546 0.390248 0.754188 0.396914 0.688001 0.465559 0.683406 0.436485 0.718546 0.465559 0.683406 0.396914 0.688001 0.41335 0.676954 0.361507 0.701935 0.390248 0.754188 0.327188 0.855301 0.361507 0.701935 0.396914 0.688001 0.390248 0.754188 0.360572 0.683698 0.396914 0.688001 0.361507 0.701935 0.41335 0.676954 0.440034 0.663005 0.465559 0.683406 0.354354 0.823597 0.334036 0.866354 0.327188 0.855301 0.642633 0.687093 0.641188 0.668478 0.644719 0.660923 0.221607 0.01023 0.233461 0.006539 0.234782 0.021302 0.272949 0.99669 0.022043 0.987528 0.093671 0.997475 0.04688 0.889985 0.017508 0.873022 0.046568 0.822828 0.017508 0.873022 0.01703 0.827281 0.046568 0.822828 0.232374 0.086792 0.247939 0.233748 0.28751 0.140985 0.230982 0.198738 0.233139 0.290613 0.234112 0.208273 0.232374 0.086792 0.230982 0.198738 0.234112 0.208273 0.947381 0.285141 0.948177 0.213805 0.945353 0.412997 0.948177 0.213805 0.945353 0.412997 0.944431 0.10699 0.736771 0.118022 0.561282 0.094692 0.562288 0.115642 0.825155 0.137993 0.827427 0.111811 0.752114 0.138767 0.827427 0.111811 0.736771 0.118022 0.752114 0.138767 0.272949 0.99669 0.308065 0.980304 0.289846 0.988104 0.308065 0.980304 0.30185 0.975985 0.289846 0.988104 0.7827 0.99481 0.932164 0.983664 0.785628 0.97398 0.5463 0.091798 0.562319 0.14049 0.562288 0.115642 0.793968 0.077958 0.785782 0.086018 0.787359 0.076742 0.815363 0.283389 0.79501 0.248245 0.836288 0.204115 0.815363 0.283389 0.793853 0.314512 0.787809 0.283793 0.815363 0.283389 0.787809 0.283793 0.793686 0.261925 0.304576 0.857827 0.308065 0.980304 0.310325 0.851463 0.561282 0.094692 0.5463 0.091798 0.562288 0.115642 0.309068 0.075315 0.311359 0.03491 0.175698 0.076024 0.272949 0.99669 0.289846 0.988104 0.022043 0.987528 0.798874 0.503047 0.833804 0.50205 0.83693 0.519563 0.753458 0.071216 0.749136 0.028617 0.70873 0.071392 0.749136 0.028617 0.662161 0.065032 0.70873 0.071392 0.749136 0.028617 0.646968 0.029874 0.662161 0.065032 0.798874 0.503047 0.83693 0.519563 0.800936 0.530273 0.852215 0.133322 0.849855 0.108855 0.825155 0.137993 0.836288 0.204115 0.79501 0.248245 0.797438 0.200176 0.679022 0.071218 0.662161 0.065032 0.669773 0.079052 0.30185 0.975985 0.308065 0.980304 0.304576 0.857827 0.627908 0.676779 0.626148 0.726311 0.610833 0.691939 0.610277 0.657861 0.627908 0.676779 0.603321 0.679727 0.603321 0.679727 0.627908 0.676779 0.610833 0.691939 0.589497 0.689061 0.610277 0.657861 0.603321 0.679727 0.597599 0.702503 0.626148 0.726311 0.619737 0.762987 0.610833 0.691939 0.626148 0.726311 0.597599 0.702503 0.70873 0.071392 0.679022 0.071218 0.669773 0.079052 0.833804 0.50205 0.815363 0.283389 0.836288 0.204115 0.589497 0.689061 0.597599 0.702503 0.619737 0.762987 0.368579 0.000829 0.359853 0.002519 0.373028 0.007912 0.638983 0.02998 0.575089 0.031367 0.646968 0.029874 0.562288 0.115642 0.562319 0.14049 0.72268 0.136181 0.995401 0.970145 0.996696 0.980085 0.993729 0.983199 0.07488 0.01804 0.065136 0.023279 0.067331 0.012836 0.793853 0.314512 0.815363 0.283389 0.798874 0.503047 0.644224 0.763949 0.644533 0.81143 0.634259 0.794165 0.070911 0.006214 0.067331 0.012836 0.05876 0.012185 0.833804 0.50205 0.798874 0.503047 0.815363 0.283389 0.07488 0.01804 0.067331 0.012836 0.070911 0.006214 0.067331 0.012836 0.065136 0.023279 0.05876 0.012185</float_array>
          <technique_common>
            <accessor source="#RedLight2-mesh-map-0-array" count="1500" stride="2">
              <param name="S" type="float"/>
              <param name="T" type="float"/>
            </accessor>
          </technique_common>
        </source>
        <vertices id="RedLight2-mesh-vertices">
          <input semantic="POSITION" source="#RedLight2-mesh-positions"/>
        </vertices>
        <polylist material="Material_-1-material" count="6">
          <input semantic="VERTEX" source="#RedLight2-mesh-vertices" offset="0"/>
          <input semantic="NORMAL" source="#RedLight2-mesh-normals" offset="1"/>
          <input semantic="TEXCOORD" source="#RedLight2-mesh-map-0" offset="2" set="0"/>
          <vcount>3 3 3 3 3 3 3 3 3 3 3 3 3 3 3 3 3 3 3 3 3 3 3 3 3 3 3 3 3 3 3 3 3 3 3 3 3 3 3 3 3 3 3 3 3 3 3 3 3 3 3 3 3 3 3 3 3 3 3 3 3 3 3 3 3 3 3 3 3 3 3 3 3 3 3 3 3 3 3 3 3 3 3 3 3 3 3 3 3 3 3 3 3 3 3 3 3 3 3 3 3 3 3 3 3 3 3 3 3 3 3 3 3 3 3 3 3 3 3 3 3 3 3 3 3 3 3 3 3 3 3 3 3 3 3 3 3 3 3 3 3 3 3 3 3 3 3 3 3 3 3 3 3 3 3 3 3 3 3 3 3 3 3 3 3 3 3 3 3 3 3 3 3 3 3 3 3 3 3 3 3 3 3 3 3 3 3 3 3 3 3 3 3 3 3 3 3 3 3 3 3 3 3 3 3 3 3 3 3 3 3 3 3 3 3 3 3 3 3 3 3 3 3 3 3 3 3 3 3 3 3 3 3 3 3 3 3 3 3 3 3 3 3 3 3 3 3 3 3 3 3 3 3 3 3 3 3 3 3 3 3 3 3 3 3 3 3 3 3 3 3 3 3 3 3 3 3 3 3 3 3 3 3 3 3 3 3 3 3 3 3 3 3 3 3 3 3 3 3 3 3 3 3 3 3 3 3 3 3 3 3 3 3 3 3 3 3 3 3 3 3 3 3 3 3 3 3 3 3 3 3 3 3 3 3 3 3 3 3 3 3 3 3 3 3 3 3 3 3 3 3 3 3 3 3 3 3 3 3 3 3 3 3 3 3 3 3 3 3 3 3 3 3 3 3 3 3 3 3 3 3 3 3 3 3 3 3 3 3 3 3 3 3 3 3 3 3 3 3 3 3 3 3 3 3 3 3 3 3 3 3 3 3 3 3 3 3 3 3 3 3 3 3 3 3 3 3 3 3 3 3 3 3 3 3 3 3 3 3 3 3 3 3 3 3 3 3 3 3 3 3 3 3 3 3 3 3 3 3 3 3 3 3 3 3 3 3 3 3 3 3 3 3 3 3 3 3 3 3 3 3 3 3 3 3 3 3 3 3 3 3 3 3 3 3 3 3 3 3 3</vcount>
          <p>0 0 0 1 0 1 2 0 2 1 1 3 3 1 4 2 1 5 4 2 6 2 2 7 3 2 8 5 3 9 6 3 10 7 3 11 8 4 12 5 4 13 2 4 14 5 5 15 8 5 16 6 5 17 5 6 18 0 6 19 2 6 20 9 7 21 7 7 22 0 7 23 7 8 24 0 8 25 5 8 26 10 9 27 0 9 28 9 9 29 4 10 30 11 10 31 2 10 32 11 11 33 8 11 34 2 11 35 12 12 36 8 12 37 11 12 38 0 13 39 10 13 40 1 13 41 10 14 42 13 14 43 1 14 44 15 15 45 14 15 46 16 15 47 17 16 48 18 16 49 19 16 50 20 17 51 18 17 52 17 17 53 20 18 54 21 18 55 18 18 56 22 19 57 17 19 58 19 19 59 23 20 60 22 20 61 19 20 62 3 21 63 24 21 64 4 21 65 1 22 66 25 22 67 3 22 68 26 23 69 27 23 70 24 23 71 26 24 72 28 24 73 27 24 74 24 25 75 27 25 76 4 25 77 4 26 78 27 26 79 11 26 80 29 27 81 28 27 82 26 27 83 30 28 84 31 28 85 25 28 86 1 29 87 13 29 88 25 29 89 25 30 90 24 30 91 3 30 92 26 31 93 24 31 94 31 31 95 25 32 96 31 32 97 24 32 98 32 33 99 33 33 100 34 33 101 35 34 102 36 34 103 37 34 104 36 35 105 6 35 106 38 35 107 32 36 108 36 36 109 38 36 110 36 37 111 34 37 112 37 37 113 39 38 114 40 38 115 41 38 116 39 39 117 16 39 118 34 39 119 36 40 120 32 40 121 34 40 122 22 41 123 36 41 124 35 41 125 16 42 126 39 42 127 41 42 128 22 43 129 6 43 130 36 43 131 33 44 132 34 44 133 39 44 134 33 45 135 42 45 136 39 45 137 43 46 138 33 46 139 44 46 140 32 47 141 38 47 142 44 47 143 32 48 144 33 48 145 44 48 146 42 49 147 45 49 148 39 49 149 45 50 150 40 50 151 39 50 152 22 51 153 23 51 154 6 51 155 44 52 156 38 52 157 6 52 158 46 53 159 30 53 160 47 53 161 48 54 162 46 54 163 47 54 164 49 55 165 10 55 166 9 55 167 21 56 168 49 56 169 9 56 170 49 57 171 13 57 172 10 57 173 47 58 174 30 58 175 49 58 176 49 59 177 30 59 178 13 59 179 47 60 180 48 60 181 49 60 182 50 61 183 51 61 184 48 61 185 52 62 186 53 62 187 54 62 188 27 63 189 55 63 190 11 63 191 12 64 192 55 64 193 44 64 194 12 65 195 11 65 196 55 65 197 55 66 198 43 66 199 44 66 200 56 67 201 46 67 202 51 67 203 46 68 204 48 68 205 51 68 206 57 69 207 58 69 208 56 69 209 50 70 210 49 70 211 20 70 212 21 71 213 18 71 214 9 71 215 50 72 216 48 72 217 49 72 218 20 73 219 49 73 220 21 73 221 59 74 222 56 74 223 51 74 224 57 75 225 56 75 226 40 75 227 57 76 228 40 76 229 60 76 230 45 77 231 60 77 232 40 77 233 61 78 234 41 78 235 40 78 236 56 79 237 61 79 238 40 79 239 41 80 240 14 80 241 16 80 242 28 81 243 62 81 244 55 81 245 28 82 246 55 82 247 27 82 248 55 83 249 62 83 250 43 83 251 43 84 252 42 84 253 33 84 254 63 85 255 62 85 256 28 85 257 63 86 258 28 86 259 29 86 260 64 87 261 63 87 262 29 87 263 65 88 264 46 88 265 66 88 266 46 89 267 58 89 268 66 89 269 64 90 270 65 90 271 66 90 272 57 91 273 58 91 274 66 91 275 67 92 276 57 92 277 66 92 278 67 93 279 62 93 280 63 93 281 62 94 282 67 94 283 43 94 284 46 95 285 65 95 286 30 95 287 65 96 288 31 96 289 30 96 290 13 97 291 30 97 292 25 97 293 31 98 294 29 98 295 26 98 296 65 99 297 64 99 298 29 99 299 6 100 300 8 100 301 44 100 302 8 101 303 12 101 304 44 101 305 43 102 306 67 102 307 42 102 308 60 103 309 57 103 310 67 103 311 19 104 312 23 104 313 7 104 314 23 105 315 7 105 316 6 105 317 18 106 318 7 106 319 19 106 320 18 107 321 9 107 322 7 107 323 63 108 324 64 108 325 66 108 326 63 109 327 66 109 328 67 109 329 31 110 330 65 110 331 29 110 332 45 111 333 42 111 334 67 111 335 67 112 336 60 112 337 45 112 338 58 113 339 46 113 340 56 113 341 68 114 342 69 114 343 70 114 344 69 115 345 71 115 346 72 115 347 70 116 348 69 116 349 72 116 350 73 117 351 74 117 352 70 117 353 72 118 354 73 118 355 70 118 356 75 119 357 73 119 358 72 119 359 76 120 360 77 120 361 78 120 362 78 121 363 73 121 364 76 121 365 76 122 366 75 122 367 79 122 368 75 123 369 73 123 370 76 123 371 80 124 372 81 124 373 82 124 374 80 125 375 83 125 376 81 125 377 84 126 378 83 126 379 80 126 380 85 127 381 15 127 382 86 127 383 86 128 384 52 128 385 85 128 386 52 129 387 87 129 388 88 129 389 85 130 390 52 130 391 88 130 392 89 131 393 87 131 394 52 131 395 90 132 396 89 132 397 52 132 398 52 133 399 90 133 400 54 133 401 90 134 402 91 134 403 89 134 404 91 135 405 90 135 406 15 135 407 15 136 408 90 136 409 86 136 410 86 137 411 90 137 412 54 137 413 53 138 414 54 138 415 86 138 416 92 139 417 15 139 418 85 139 419 16 140 420 15 140 421 92 140 422 16 141 423 92 141 424 93 141 425 16 142 426 93 142 427 34 142 428 15 143 429 94 143 430 91 143 431 95 144 432 96 144 433 94 144 434 14 145 435 97 145 436 15 145 437 95 146 438 94 146 439 97 146 440 97 147 441 94 147 442 15 147 443 98 148 444 95 148 445 97 148 446 93 149 447 92 149 448 85 149 449 99 150 450 95 150 451 98 150 452 100 151 453 101 151 454 102 151 455 100 152 456 103 152 457 101 152 458 100 153 459 81 153 460 103 153 461 81 154 462 83 154 463 104 154 464 105 155 465 81 155 466 104 155 467 103 156 468 81 156 469 105 156 470 104 157 471 105 157 472 106 157 473 100 158 474 107 158 475 108 158 476 109 159 477 81 159 478 100 159 479 100 160 480 109 160 481 110 160 482 109 161 483 110 161 484 111 161 485 110 162 486 100 162 487 108 162 488 112 163 489 113 163 490 114 163 491 115 164 492 116 164 493 113 164 494 114 165 495 116 165 496 113 165 497 117 166 498 118 166 499 119 166 500 120 167 501 118 167 502 121 167 503 112 168 504 120 168 505 113 168 506 112 169 507 116 169 508 120 169 509 120 170 510 116 170 511 119 170 512 120 171 513 119 171 514 118 171 515 115 172 516 119 172 517 116 172 518 115 173 519 122 173 520 119 173 521 123 174 522 124 174 523 125 174 524 125 175 525 126 175 526 123 175 527 127 176 528 115 176 529 126 176 530 126 177 531 120 177 532 123 177 533 128 178 534 129 178 535 121 178 536 113 179 537 120 179 538 126 179 539 126 180 540 115 180 541 113 180 542 123 181 543 120 181 544 129 181 545 120 182 546 121 182 547 129 182 548 121 183 549 118 183 550 130 183 551 116 184 552 112 184 553 114 184 554 131 185 555 20 185 556 132 185 557 20 186 558 17 186 559 132 186 560 133 187 561 132 187 562 17 187 563 17 188 564 22 188 565 133 188 566 134 189 567 135 189 568 136 189 569 135 190 570 134 190 571 132 190 572 131 191 573 50 191 574 20 191 575 134 192 576 137 192 577 131 192 578 134 193 579 131 193 580 132 193 581 133 194 582 22 194 583 35 194 584 136 195 585 138 195 586 134 195 587 135 196 588 132 196 589 133 196 590 139 197 591 135 197 592 133 197 593 136 198 594 135 198 595 139 198 596 81 199 597 109 199 598 140 199 599 141 200 600 84 200 601 142 200 602 84 201 603 141 201 604 143 201 605 84 202 606 144 202 607 142 202 608 145 203 609 84 203 610 146 203 611 146 204 612 84 204 613 143 204 614 147 205 615 142 205 616 144 205 617 148 206 618 142 206 619 147 206 620 149 207 621 147 207 622 144 207 623 150 208 624 143 208 625 151 208 626 151 209 627 143 209 628 149 209 629 143 210 630 147 210 631 149 210 632 146 211 633 143 211 634 150 211 635 152 212 636 153 212 637 150 212 638 146 213 639 150 213 640 153 213 641 150 214 642 151 214 643 152 214 644 146 215 645 152 215 646 153 215 647 123 216 648 74 216 649 154 216 650 154 217 651 124 217 652 123 217 653 118 218 654 117 218 655 155 218 656 156 219 657 117 219 658 119 219 659 156 220 660 119 220 661 122 220 662 156 221 663 157 221 664 117 221 665 157 222 666 158 222 667 117 222 668 159 223 669 160 223 670 115 223 671 127 224 672 159 224 673 115 224 674 161 225 675 160 225 676 159 225 677 159 226 678 127 226 679 124 226 680 160 227 681 156 227 682 122 227 683 122 228 684 160 228 685 115 228 686 162 229 687 125 229 688 127 229 689 125 230 690 127 230 691 126 230 692 124 231 693 127 231 694 162 231 695 124 232 696 162 232 697 125 232 698 163 233 699 124 233 700 129 233 701 124 234 702 163 234 703 111 234 704 109 235 705 163 235 706 111 235 707 164 236 708 107 236 709 161 236 710 165 237 711 107 237 712 164 237 713 124 238 714 164 238 715 159 238 716 111 239 717 166 239 718 124 239 719 166 240 720 164 240 721 124 240 722 164 241 723 161 241 724 159 241 725 160 242 726 161 242 727 167 242 728 161 243 729 100 243 730 168 243 731 168 244 732 100 244 733 102 244 734 161 245 735 107 245 736 100 245 737 161 246 738 169 246 739 167 246 740 168 247 741 102 247 742 170 247 743 168 248 744 169 248 745 161 248 746 110 249 747 107 249 748 111 249 749 111 250 750 107 250 751 165 250 752 171 251 753 165 251 754 164 251 755 165 252 756 166 252 757 111 252 758 166 253 759 165 253 760 171 253 761 71 254 762 172 254 763 72 254 764 172 255 765 173 255 766 72 255 767 71 256 768 174 256 769 172 256 770 174 257 771 72 257 772 175 257 773 172 258 774 175 258 775 173 258 776 172 259 777 174 259 778 175 259 779 173 260 780 175 260 781 72 260 782 176 261 783 177 261 784 72 261 785 176 262 786 72 262 787 174 262 788 102 263 789 178 263 790 170 263 791 178 264 792 170 264 793 179 264 794 180 265 795 179 265 796 181 265 797 180 266 798 170 266 799 179 266 800 178 267 801 102 267 802 182 267 803 178 268 804 182 268 805 180 268 806 180 269 807 182 269 808 183 269 809 184 270 810 183 270 811 178 270 812 181 271 813 178 271 814 183 271 815 181 272 816 178 272 817 180 272 818 185 273 819 170 273 820 180 273 821 181 274 822 179 274 823 183 274 824 186 275 825 184 275 826 145 275 827 186 276 828 187 276 829 180 276 830 183 277 831 186 277 832 180 277 833 184 278 834 183 278 835 182 278 836 183 279 837 179 279 838 186 279 839 184 280 840 179 280 841 178 280 842 145 281 843 184 281 844 182 281 845 184 282 846 186 282 847 179 282 848 187 283 849 185 283 850 180 283 851 102 284 852 145 284 853 182 284 854 102 285 855 84 285 856 145 285 857 188 286 858 130 286 859 189 286 860 117 287 861 189 287 862 188 287 863 155 288 864 117 288 865 189 288 866 156 289 867 167 289 868 160 289 869 145 290 870 146 290 871 186 290 872 187 291 873 169 291 874 185 291 875 169 292 876 187 292 877 157 292 878 157 293 879 169 293 880 167 293 881 167 294 882 157 294 883 156 294 884 187 295 885 186 295 886 157 295 887 186 296 888 146 296 889 158 296 890 158 297 891 157 297 892 186 297 893 130 298 894 190 298 895 191 298 896 191 299 897 71 299 898 192 299 899 121 300 900 192 300 901 128 300 902 128 301 903 192 301 904 71 301 905 130 302 906 191 302 907 121 302 908 190 303 909 193 303 910 71 303 911 191 304 912 190 304 913 71 304 914 190 305 915 149 305 916 194 305 917 194 306 918 149 306 919 193 306 920 193 307 921 149 307 922 144 307 923 193 308 924 190 308 925 194 308 926 193 309 927 144 309 928 71 309 929 34 310 930 93 310 931 37 310 932 93 311 933 195 311 934 37 311 935 129 312 936 163 312 937 128 312 938 123 313 939 129 313 940 69 313 941 70 314 942 74 314 943 196 314 944 74 315 945 123 315 946 196 315 947 68 316 948 123 316 949 69 316 950 123 317 951 68 317 952 197 317 953 123 318 954 197 318 955 196 318 956 70 319 957 196 319 958 68 319 959 197 320 960 68 320 961 196 320 962 128 321 963 163 321 964 69 321 965 154 322 966 163 322 967 69 322 968 198 323 969 199 323 970 77 323 971 200 324 972 139 324 973 199 324 974 198 325 975 200 325 976 199 325 977 139 326 978 199 326 979 201 326 980 77 327 981 199 327 982 202 327 983 77 328 984 202 328 985 203 328 986 136 329 987 139 329 988 200 329 989 139 330 990 195 330 991 204 330 992 204 331 993 202 331 994 139 331 995 139 332 996 205 332 997 201 332 998 205 333 999 139 333 1000 202 333 1001 204 334 1002 85 334 1003 202 334 1004 195 335 1005 85 335 1006 204 335 1007 202 336 1008 85 336 1009 203 336 1010 206 337 1011 205 337 1012 202 337 1013 195 338 1014 93 338 1015 85 338 1016 206 339 1017 202 339 1018 199 339 1019 118 340 1020 155 340 1021 207 340 1022 207 341 1023 155 341 1024 189 341 1025 118 342 1026 189 342 1027 130 342 1028 189 343 1029 118 343 1030 207 343 1031 141 344 1032 142 344 1033 208 344 1034 208 345 1035 143 345 1036 141 345 1037 143 346 1038 208 346 1039 147 346 1040 208 347 1041 142 347 1042 148 347 1043 147 348 1044 208 348 1045 148 348 1046 190 349 1047 151 349 1048 149 349 1049 151 350 1050 130 350 1051 188 350 1052 130 351 1053 151 351 1054 190 351 1055 209 352 1056 84 352 1057 80 352 1058 177 353 1059 75 353 1060 72 353 1061 121 354 1062 192 354 1063 210 354 1064 210 355 1065 191 355 1066 192 355 1067 210 356 1068 211 356 1069 191 356 1070 121 357 1071 211 357 1072 210 357 1073 191 358 1074 121 358 1075 211 358 1076 89 359 1077 94 359 1078 212 359 1079 212 360 1080 87 360 1081 89 360 1082 94 361 1083 213 361 1084 212 361 1085 96 362 1086 214 362 1087 94 362 1088 214 363 1089 213 363 1090 94 363 1091 94 364 1092 89 364 1093 91 364 1094 87 365 1095 212 365 1096 88 365 1097 215 366 1098 88 366 1099 212 366 1100 216 367 1101 84 367 1102 209 367 1103 144 368 1104 84 368 1105 216 368 1106 140 369 1107 109 369 1108 74 369 1109 109 370 1110 163 370 1111 74 370 1112 74 371 1113 163 371 1114 154 371 1115 212 372 1116 140 372 1117 74 372 1118 73 373 1119 215 373 1120 74 373 1121 212 374 1122 74 374 1123 215 374 1124 212 375 1125 213 375 1126 140 375 1127 86 376 1128 53 376 1129 52 376 1130 137 377 1131 217 377 1132 131 377 1133 131 378 1134 217 378 1135 50 378 1136 50 379 1137 217 379 1138 51 379 1139 137 380 1140 218 380 1141 217 380 1142 217 381 1143 59 381 1144 51 381 1145 201 382 1146 205 382 1147 199 382 1148 205 383 1149 206 383 1150 199 383 1151 69 384 1152 129 384 1153 154 384 1154 124 385 1155 129 385 1156 154 385 1157 37 386 1158 195 386 1159 35 386 1160 139 387 1161 133 387 1162 35 387 1163 195 388 1164 139 388 1165 35 388 1166 104 389 1167 102 389 1168 101 389 1169 168 390 1170 170 390 1171 185 390 1172 168 391 1173 185 391 1174 169 391 1175 102 392 1176 83 392 1177 84 392 1178 104 393 1179 83 393 1180 102 393 1181 101 394 1182 103 394 1183 105 394 1184 101 395 1185 105 395 1186 219 395 1187 101 396 1188 219 396 1189 106 396 1190 105 397 1191 106 397 1192 219 397 1193 101 398 1194 106 398 1195 104 398 1196 152 399 1197 151 399 1198 188 399 1199 158 400 1200 152 400 1201 188 400 1202 117 401 1203 158 401 1204 188 401 1205 158 402 1206 146 402 1207 152 402 1208 41 403 1209 97 403 1210 14 403 1211 61 404 1212 97 404 1213 41 404 1214 61 405 1215 98 405 1216 97 405 1217 56 406 1218 59 406 1219 61 406 1220 69 407 1221 71 407 1222 128 407 1223 218 408 1224 95 408 1225 99 408 1226 220 409 1227 95 409 1228 218 409 1229 220 410 1230 221 410 1231 95 410 1232 221 411 1233 222 411 1234 95 411 1235 221 412 1236 223 412 1237 222 412 1238 218 413 1239 59 413 1240 217 413 1241 218 414 1242 99 414 1243 59 414 1244 224 415 1245 225 415 1246 226 415 1247 224 416 1248 227 416 1249 228 416 1250 229 417 1251 230 417 1252 138 417 1253 231 418 1254 228 418 1255 232 418 1256 228 419 1257 227 419 1258 232 419 1259 232 420 1260 229 420 1261 138 420 1262 231 421 1263 232 421 1264 138 421 1265 177 422 1266 233 422 1267 75 422 1268 81 423 1269 140 423 1270 82 423 1271 79 424 1272 200 424 1273 198 424 1274 79 425 1275 234 425 1276 138 425 1277 215 426 1278 78 426 1279 85 426 1280 203 427 1281 85 427 1282 78 427 1283 78 428 1284 215 428 1285 73 428 1286 108 429 1287 107 429 1288 110 429 1289 232 430 1290 227 430 1291 229 430 1292 229 431 1293 227 431 1294 235 431 1295 235 432 1296 230 432 1297 229 432 1298 235 433 1299 230 433 1300 227 433 1301 144 434 1302 174 434 1303 71 434 1304 209 435 1305 233 435 1306 177 435 1307 224 436 1308 226 436 1309 227 436 1310 220 437 1311 218 437 1312 137 437 1313 226 438 1314 137 438 1315 134 438 1316 226 439 1317 220 439 1318 137 439 1319 220 440 1320 226 440 1321 225 440 1322 230 441 1323 134 441 1324 138 441 1325 230 442 1326 226 442 1327 134 442 1328 227 443 1329 226 443 1330 230 443 1331 225 444 1332 221 444 1333 220 444 1334 136 445 1335 200 445 1336 138 445 1337 138 446 1338 200 446 1339 79 446 1340 171 447 1341 164 447 1342 166 447 1343 80 448 1344 233 448 1345 209 448 1346 59 449 1347 99 449 1348 61 449 1349 99 450 1350 98 450 1351 61 450 1352 144 451 1353 176 451 1354 174 451 1355 216 452 1356 177 452 1357 176 452 1358 144 453 1359 216 453 1360 176 453 1361 236 454 1362 213 454 1363 82 454 1364 213 455 1365 82 455 1366 140 455 1367 79 456 1368 75 456 1369 234 456 1370 77 457 1371 76 457 1372 198 457 1373 76 458 1374 79 458 1375 198 458 1376 80 459 1377 82 459 1378 237 459 1379 82 460 1380 238 460 1381 237 460 1382 177 461 1383 216 461 1384 209 461 1385 233 462 1386 231 462 1387 234 462 1388 233 463 1389 228 463 1390 231 463 1391 239 464 1392 224 464 1393 233 464 1394 239 465 1395 221 465 1396 225 465 1397 239 466 1398 225 466 1399 224 466 1400 214 467 1401 82 467 1402 236 467 1403 75 468 1404 233 468 1405 234 468 1406 88 469 1407 215 469 1408 85 469 1409 80 470 1410 237 470 1411 233 470 1412 223 471 1413 237 471 1414 238 471 1415 240 472 1416 238 472 1417 241 472 1418 238 473 1419 96 473 1420 241 473 1421 238 474 1422 214 474 1423 96 474 1424 223 475 1425 238 475 1426 240 475 1427 203 476 1428 78 476 1429 77 476 1430 233 477 1431 224 477 1432 228 477 1433 242 478 1434 96 478 1435 95 478 1436 238 479 1437 82 479 1438 214 479 1439 240 480 1440 241 480 1441 243 480 1442 223 481 1443 240 481 1444 244 481 1445 244 482 1446 240 482 1447 243 482 1448 222 483 1449 223 483 1450 244 483 1451 245 484 1452 241 484 1453 95 484 1454 243 485 1455 241 485 1456 245 485 1457 241 486 1458 242 486 1459 95 486 1460 237 487 1461 239 487 1462 233 487 1463 222 488 1464 245 488 1465 95 488 1466 246 489 1467 243 489 1468 245 489 1469 236 490 1470 213 490 1471 214 490 1472 234 491 1473 231 491 1474 138 491 1475 246 492 1476 245 492 1477 222 492 1478 244 493 1479 243 493 1480 247 493 1481 221 494 1482 239 494 1483 223 494 1484 241 495 1485 96 495 1486 242 495 1487 222 496 1488 247 496 1489 246 496 1490 237 497 1491 223 497 1492 239 497 1493 244 498 1494 247 498 1495 222 498 1496 247 499 1497 243 499 1498 246 499 1499</p>
        </polylist>
      </mesh>
    </geometry>
  </library_geometries>
  <library_visual_scenes>
    <visual_scene id="Scene" name="Scene">
      <node id="RedLight2" name="RedLight2" type="NODE">
        <scale sid="scale">1 1 1</scale>
        <translate sid="location">0.0014611491935483938 0.3783248548387096 0.009467689516129054</translate>
        <rotate sid="rotationX">1 0 0 0</rotate>
        <rotate sid="rotationY">0 1 0 0</rotate>
        <rotate sid="rotationZ">0 0 1 0</rotate>
        <instance_geometry url="#RedLight2-mesh" name="RedLight2">
          <bind_material>
            <technique_common>
            </technique_common>
          </bind_material>
        </instance_geometry>
      </node>
    </visual_scene>
  </library_visual_scenes>
  <scene>
    <instance_visual_scene url="#Scene"/>
  </scene>
</COLLADA>
