<?xml version="1.0" encoding="utf-8"?>
<COLLADA xmlns="http://www.collada.org/2005/11/COLLADASchema" version="1.4.1" xmlns:xsi="http://www.w3.org/2001/XMLSchema-instance">
  <asset>
    <contributor>
      <author>Blockbench user</author>
      <authoring_tool>Blockbench</authoring_tool>
    </contributor>
    <created>2025-12-05T13:54:48.600Z</created>
    <modified>2025-12-05T13:54:48.607Z</modified>
    <unit name="meter" meter="1.0"/>
    <up_axis>Y_UP</up_axis>
  </asset>
  <library_effects>
  </library_effects>
  <library_images>
  </library_images>
  <library_materials>
  </library_materials>
  <library_geometries>
    <geometry id="Rockfish-mesh" name="Rockfish">
      <mesh>
        <source id="Rockfish-mesh-positions">
          <float_array id="Rockfish-mesh-positions-array" count="750">-0.285492 -0.024359 -0.009582 -0.479034 0.040524 -0.004463 -0.490509 -0.035568 -0.00526 -0.487183 -0.047951 0.004792 -0.386871 -0.057007 -0.002851 -0.34491 -0.008943 -0.002486 -0.347595 -0.012567 0.002779 -0.481964 0.015867 0.004967 -0.492493 0.116928 -0.005667 -0.352234 0.04163 0.003329 -0.490112 0.119995 0.005229 -0.325684 0.09021 0.002489 -0.374786 0.037415 -0.002688 -0.293427 0.10128 -0.003205 -0.448273 0.187973 0.003267 -0.305115 -0.029242 0.001081 -0.310455 0.037243 0.018299 -0.233322 -0.021009 0.013522 -0.238098 0.022873 0.029184 -0.216125 0.072678 0.022923 -0.287262 0.085144 0.015537 -0.257507 0.085068 0.001009 -0.350372 0.141754 -0.001229 -0.237045 -0.024492 -0.010657 -0.333252 0.046509 -0.012192 -0.269745 0.017092 -0.022655 -0.195129 0.018843 -0.040775 -0.293732 0.067284 -0.020311 -0.249191 0.062222 -0.021338 -0.220688 0.039219 -0.034321 -0.262329 -0.05867 0.000893 -0.212128 -0.111267 -0.004655 -0.246979 -0.096024 0.004909 -0.161331 -0.053207 0.00294 -0.191696 -0.041775 -0.003371 -0.161469 -0.141357 0.00286 -0.166107 -0.027723 -0.031971 -0.112465 -0.114067 -0.000714 -0.111412 0.052162 -0.057621 -0.127609 0.002383 -0.055813 -0.174103 -0.02158 0.033672 -0.196045 0.030909 0.039406 -0.126892 -0.008277 0.053112 -0.101501 0.041061 0.065056 -0.219711 0.057625 0.051144 -0.20108 0.075539 -0.025358 -0.165543 0.092995 0.001245 -0.16008 0.075027 -0.031677 -0.059242 0.084663 -0.063408 -0.155533 0.084961 0.022177 -0.060184 0.137421 0.00427 -0.166122 0.068184 0.034294 -0.108658 0.072174 0.065361 -0.077362 0.077728 0.058987 -0.060909 -0.113251 -0.001044 -0.094727 -0.061783 -0.045158 -0.081154 -0.083923 0.031563 0.002101 -0.131165 0.041344 -0.001972 -0.086845 0.075745 0.051605 -0.048798 0.104782 -0.054459 0.011511 0.079636 -0.052799 0.010798 -0.079849 0.048344 -0.059105 -0.10199 -0.009927 -0.079483 -0.074631 -0.004454 -0.118301 -0.052452 -0.058056 0.138947 -0.004249 -0.177902 0.14566 -0.00459 -0.178986 0.18576 -0.004362 -0.20314 0.146851 0.002738 -0.068558 0.112404 -0.036644 -0.020571 0.121941 -0.038288 0.035538 0.144623 -0.029591 -0.005626 0.142929 -0.045643 -0.002411 0.158081 -0.001168 -0.056183 0.19989 -0.004136 -0.109573 0.205429 0.005875 -0.121208 0.196243 -0.003634 -0.155731 0.188644 0.005207 0.011535 0.159088 0.001605 -0.053932 0.119774 0.035534 0.041351 0.143539 0.03207 -0.017849 0.069336 0.081215 0.073532 0.021637 0.109833 0.084686 -0.138641 -0.068848 0.159561 -0.081795 -0.115822 0.04179 -0.159622 0.004087 0.164734 -0.172455 -0.000674 0.087975 -0.138321 0.067749 0.115707 -0.11013 -0.150879 0.08548 -0.069214 -0.162491 0.028046 -0.058449 -0.194321 0.167007 -0.084175 -0.132584 0.171753 -0.031372 -0.129852 0.094444 -0.01833 -0.164749 0.044983 -0.026209 -0.195953 0.119522 -0.009348 -0.166138 0.126282 -0.046127 -0.152191 0.125534 -0.02669 -0.125381 0.082832 0.027252 -0.110909 0.175064 0.015711 -0.12413 -0.008005 0.05518 -0.086288 0.088524 0.080322 -0.093277 0.126434 0.063126 -0.104401 0.096016 0.091484 -0.104858 0.171036 0.060032 -0.112526 0.202789 -0.142776 -0.045246 0.192932 -0.160568 -0.002153 0.262512 -0.144104 -0.035007 0.146973 -0.144516 -0.058403 0.216736 -0.135376 -0.067299 0.188034 -0.182526 -0.080902 0.187836 -0.13858 -0.068771 0.108932 -0.156342 -0.092468 0.137146 -0.1996 -0.10685 0.195328 -0.142426 0.041805 0.146149 -0.142975 0.063049 0.192947 -0.179932 0.080574 0.102394 -0.173431 0.100571 0.202271 -0.138672 0.066147 0.283264 -0.138458 0.040833 0.156479 -0.084427 0.116913 0.117607 -0.023159 0.12384 0.11219 -0.064362 0.148941 0.117378 -0.112419 0.148041 0.081833 -0.074097 0.167252 0.164993 -0.085892 0.133606 0.040741 -0.07563 0.184357 0.047295 -0.019308 0.186356 0.03521 -0.040539 0.197128 0.168533 -0.046909 0.138733 0.122353 -0.009668 0.163864 0.16774 -0.030542 0.132217 0.117737 0.138535 -0.052696 0.143478 0.159363 -0.009531 0.115913 0.133377 -0.105209 0.157974 0.10511 -0.119507 0.157181 0.13942 -0.070343 0.190781 0.099403 -0.093681 0.218521 0.133331 -0.055454 0.218994 0.094398 -0.096146 0.227722 0.072212 -0.099274 0.25946 0.062836 -0.092407 0.282654 0.113876 -0.045841 0.256104 0.132782 -0.022772 0.152679 0.151855 -0.043255 0.20311 0.152222 0.00136 0.253723 0.125366 0.052937 0.200668 0.140488 0.042858 0.211243 0.088783 0.09861 0.15593 0.160889 0.008428 0.121971 0.198929 -0.000712 0.188568 0.183594 -0.000218 0.157654 0.141724 0.058956 0.111519 0.135223 0.056793 0.08963 0.079216 0.094032 0.119926 0.133682 0.107658 0.133408 0.067856 0.107506 0.190872 0.104736 0.089752 0.128265 0.006655 0.121071 0.20575 -0.108475 -0.097473 0.337433 -0.122597 -0.053684 0.274963 -0.089584 -0.110733 0.344421 -0.135132 -0.005187 0.31308 -0.098412 -0.10025 0.371521 -0.101463 -0.06694 0.275635 -0.056126 -0.13298 0.22789 -0.055275 -0.124123 0.326019 -0.080276 -0.110008 0.369904 -0.080132 -0.098511 0.408875 -0.060848 -0.080894 0.385071 -0.056561 -0.104111 0.365753 -0.032921 -0.105247 0.422577 -0.002875 -0.072937 0.318573 -0.041981 -0.126465 0.294769 -0.025139 -0.121124 0.258209 0.004948 -0.129364 0.231308 0.003035 -0.134659 0.228668 -0.03133 -0.136536 0.204636 -0.108292 0.097977 0.267395 -0.108688 0.084328 0.227524 -0.071259 0.112305 0.233902 -0.034073 0.132324 0.332092 -0.128876 0.038731 0.309204 -0.115578 0.083557 0.275909 -0.079659 0.119057 0.335541 -0.101501 0.089104 0.400879 -0.110672 0.041611 0.278107 -0.058353 0.13237 0.232117 0.007531 0.13623 0.266174 -0.020395 0.130966 0.299988 -0.016689 0.121086 0.269897 0.001957 0.140976 0.263763 0.0415 0.111557 0.255402 0.060017 0.095627 0.220154 -0.006268 0.120384 0.182602 0.031069 0.122253 0.425079 -0.109947 0.001396 0.44577 -0.111298 -0.002725 0.405945 -0.070618 0.078041 0.469513 -0.08429 -0.003434 0.493256 -0.078484 -0.02479 0.476288 -0.061653 0.058628 0.448303 -0.033802 0.060272 0.498962 -0.05703 0.000639 0.422638 -0.058559 0.05851 0.476654 -0.063446 -0.000814 0.421387 -0.040203 0.023621 0.48877 -0.001248 -0.048676 0.418335 -0.041039 -0.034912 0.450653 0.00768 0.019947 0.42572 -0.051865 -0.06456 0.488281 0.002303 0.000281 0.472534 -0.011245 0.059158 0.437958 -0.000999 0.066147 0.5 0.014438 0.015217 0.469208 -0.018322 -0.041744 0.458405 -0.048447 -0.06382 0.323273 -0.042736 0.127258 0.339233 -0.08342 0.110176 0.374084 -0.038261 0.10643 0.324829 0.012173 0.104889 0.360443 0.037601 0.079063 0.399231 0.003055 0.078781 0.432739 0.036751 0.050819 0.211761 0.001171 -0.118484 0.263611 0.034107 -0.113396 0.287415 -0.007548 -0.142151 0.32666 0.014008 -0.103935 0.31308 0.06517 -0.093063 0.357574 0.039188 -0.080566 0.391052 0.031677 -0.086662 0.392517 0.071938 -0.065598 0.378296 0.075821 -0.04126 0.34613 0.086159 -0.053764 0.324432 0.099815 -0.038696 0.304504 0.137695 -0.039211 0.299835 0.076752 0.080544 0.30127 0.07 0.098686 0.338776 0.067207 0.085693 0.306885 0.105942 0.03643 0.377655 0.064987 0.076317 0.346161 0.079979 0.050686 0.387482 0.075729 0.028353 0.272888 0.129242 0.01018 0.315704 0.111099 0.002774 0.423889 0.026423 -0.060635 0.453156 0.038239 -0.038746 0.412842 0.064537 -0.026686 0.441467 0.052673 0.012821 0.459229 0.037148 0.035671</float_array>
          <technique_common>
            <accessor source="#Rockfish-mesh-positions-array" count="250" stride="3">
              <param name="X" type="float"/>
              <param name="Y" type="float"/>
              <param name="Z" type="float"/>
            </accessor>
          </technique_common>
        </source>
        <source id="Rockfish-mesh-normals">
          <float_array id="Rockfish-mesh-normals-array" count="1488">-0.883423 0.128504 0.45061 -0.115771 -0.644567 -0.755732 0.021013 -0.010753 -0.999721 0.058922 -0.176549 0.982527 -0.992103 0.081395 -0.095429 0.015434 -0.004004 0.999873 -0.770872 -0.145566 -0.620135 0.014395 -0.008915 0.999857 -0.969384 -0.076441 0.233347 0.012924 -0.001505 0.999915 0.018009 0.007445 0.99981 0.017258 0.00787 -0.99982 0.017753 0.007085 -0.999817 0.016641 -0.012824 -0.999779 0.01066 -0.021673 -0.999708 0.021077 0.111816 -0.993505 -0.850509 0.524572 0.038197 0.01969 0.016734 0.999666 -0.007193 -0.119421 0.992818 0.064485 -0.048728 -0.996728 0.037213 -0.006956 0.999283 -0.349794 -0.261097 0.899707 -0.136071 -0.258601 0.956353 -0.206779 -0.348764 0.914115 -0.112877 0.172803 0.978467 -0.311139 0.204168 0.928174 -0.085653 0.098638 0.99143 -0.295363 0.177654 0.938722 0.137831 0.95084 0.27732 -0.330942 -0.090759 0.939276 0.280969 0.771058 0.571424 0.528373 0.721552 0.44742 -0.012117 -0.900506 -0.434676 0.091027 -0.987557 0.128242 -0.396939 -0.299462 -0.867618 0.000313 -0.172477 -0.985014 -0.022014 -0.293091 -0.955831 -0.205251 -0.416884 -0.885483 -0.250205 -0.203482 -0.946569 -0.19418 -0.129379 -0.972397 -0.281231 0.351036 -0.893131 -0.388073 0.417032 -0.821878 -0.180635 -0.040433 -0.982719 0.293309 0.427612 -0.855054 0.06448 0.709697 -0.70155 -0.018753 0.037697 -0.999113 -0.297167 0.162798 -0.940845 -0.353969 -0.242568 -0.903253 -0.025388 0.096542 0.995005 -0.040151 0.399054 0.916048 0.023455 -0.000944 0.999724 -0.45111 -0.836902 -0.309991 -0.376046 -0.907207 0.188586 -0.208905 -0.790728 -0.575419 -0.284381 -0.346262 -0.893997 -0.47394 -0.544856 -0.691747 0.039702 0.006789 -0.999189 -0.069468 0.038843 -0.996828 -0.236223 0.011449 -0.971631 -0.213094 0.041887 -0.976133 -0.209668 0.032728 -0.977225 -0.283511 -0.345806 -0.894449 -0.304841 -0.349401 0.885997 -0.19106 -0.820845 0.538247 -0.197952 -0.187846 0.962044 -0.313829 -0.231775 0.920756 -0.249949 -0.104403 0.962614 -0.117907 -0.485134 0.866454 0.769666 0.51754 0.373855 -0.904917 0.412432 0.105003 -0.067894 -0.046869 -0.996591 0.102055 0.120112 0.987501 -0.16652 0.320057 -0.932649 -0.236975 0.633887 -0.736227 0.222401 0.966702 0.126587 -0.39736 0.91502 -0.069601 -0.06406 0.871466 -0.486254 -0.141139 0.308352 -0.940744 -0.236954 0.464086 -0.853508 -0.311635 0.342408 -0.886363 -0.174855 0.888346 0.424578 -0.352966 0.804561 0.477595 -0.118116 0.629317 0.768121 -0.188786 0.280612 0.941072 -0.280094 0.347571 0.894842 -0.105696 0.6252 0.773274 -0.692274 -0.16613 0.702252 0.193499 0.034899 0.98048 -0.088726 0.924734 0.370128 0.033509 -0.188706 -0.981462 0.073305 -0.00102 0.997309 0.007248 -0.05413 0.998508 -0.000625 -0.340731 -0.94016 -0.444865 -0.733168 -0.514354 -0.452115 -0.784333 0.424751 -0.344453 -0.937881 -0.041602 -0.249548 -0.401864 0.88104 -0.487857 -0.777652 0.396551 -0.412536 -0.581911 0.700852 -0.440409 -0.482046 0.757411 -0.320682 -0.246412 0.914573 -0.305243 -0.144359 0.941269 -0.329054 -0.058817 0.942477 -0.263438 -0.287888 -0.920718 -0.312038 0.067109 -0.947696 -0.313637 -0.309773 -0.897593 -0.355788 -0.227698 -0.906404 -0.358551 -0.19917 -0.912015 -0.37559 -0.499128 -0.780899 -0.494942 -0.729646 -0.471857 -0.443748 -0.681292 0.582176 -0.363358 0.791105 -0.49206 -0.003384 -0.110905 -0.993825 0.003169 0.005771 -0.999978 -0.282167 -0.170811 -0.944037 -0.27893 -0.00208 -0.960309 -0.289968 0.612273 -0.735555 -0.346059 0.777607 -0.524948 -0.156039 0.658176 -0.736516 -0.176911 0.788654 -0.588835 -0.149809 0.654677 -0.740915 0.330137 -0.512802 -0.792492 0.088778 0.940861 -0.326955 -0.828427 0.545732 -0.126038 -0.223752 0.750784 -0.621498 0.055231 0.000154 -0.998474 0.206988 0.331557 0.920449 -0.007837 0.002095 -0.999967 -0.046994 0.746539 -0.66368 0.008875 0.020513 -0.99975 0.081102 0.035391 0.996077 -0.42725 -0.330143 0.841702 0.172705 0.305016 0.936557 -0.187107 0.703646 0.685474 -0.230748 0.826872 0.512872 -0.177323 0.795429 0.579524 -0.13959 0.250463 0.95801 -0.322078 0.178525 0.929728 -0.237128 0.123819 0.963555 -0.217544 0.565123 0.795808 -0.299922 0.586709 0.75221 -0.337829 0.789127 0.512981 -0.391079 0.394508 0.831517 -0.178468 0.973907 0.140195 -0.017095 -0.03963 0.999068 -0.011743 -0.040181 0.999123 -0.200522 -0.453485 -0.868414 -0.262368 -0.470859 -0.842292 -0.214546 -0.50717 -0.834714 -0.274014 -0.869363 -0.411246 -0.110641 -0.935945 -0.334313 -0.375289 -0.867337 -0.326931 -0.08231 -0.925611 0.369419 -0.409631 -0.881043 0.236573 -0.208932 -0.871712 0.443245 -0.498761 -0.125056 0.85767 -0.34211 0.013911 0.939557 -0.347141 -0.017312 0.937653 -0.4638 0.120653 0.877686 -0.393484 0.109822 0.912748 -0.541198 0.323602 0.776136 -0.203993 0.678663 0.705552 -0.312173 0.912486 0.264418 0.401712 -0.085065 -0.911807 0.370575 -0.080197 -0.925334 0.407957 -0.25864 -0.875601 0.40847 -0.257047 -0.87583 -0.126208 -0.365064 -0.922388 -0.165665 -0.226978 -0.959706 -0.297763 0.020343 -0.954423 -0.119227 0.168143 -0.978526 -0.221812 -0.012116 -0.975014 -0.233142 0.094897 -0.967801 -0.152532 0.3263 -0.932879 -0.127541 0.325012 -0.93707 -0.441721 -0.485962 -0.754138 -0.145056 0.344562 -0.927489 0.07182 -0.857409 -0.5096 0.35967 -0.888612 -0.284615 0.043301 -0.926905 -0.372791 -0.188911 -0.467988 0.863307 0.030351 -0.953245 -0.300671 -0.160506 -0.625395 0.763622 0.773185 -0.557747 0.301831 0.019584 0.266122 -0.96374 -0.32741 -0.717567 0.614736 -0.275776 -0.460403 0.843787 0.095315 -0.843921 0.527932 -0.097272 -0.963328 -0.250075 0.380877 -0.861833 0.334929 -0.28424 -0.68029 -0.675584 -0.21096 -0.623948 -0.752452 0.931716 -0.287946 -0.221344 -0.71148 -0.635039 0.300869 0.093863 -0.951718 0.292273 -0.299284 -0.406894 0.863056 -0.189938 -0.612833 0.767046 -0.228755 -0.36624 0.901964 -0.1877 -0.227129 0.955605 -0.50701 -0.038608 -0.861075 -0.283631 -0.012662 -0.95885 -0.310745 -0.523374 -0.793421 -0.45317 0.084231 -0.887436 -0.763121 0.111396 -0.636583 0.379105 -0.263118 0.887158 0.375791 -0.267745 0.887183 0.351846 -0.153396 0.923403 0.355242 -0.13425 0.925084 0.231332 0.332253 0.914381 0.392809 -0.12749 0.91074 -0.304945 0.533263 -0.789075 -0.387608 0.190669 -0.90189 -0.268384 0.132444 -0.954164 -0.264999 0.260042 -0.928522 -0.169985 0.402603 -0.899453 -0.13427 0.639278 -0.757163 -0.169577 0.619441 -0.766509 -0.0636 0.88581 -0.459669 -0.037028 0.908482 -0.41628 0.015807 0.911691 -0.410572 -0.89072 0.421623 -0.169858 -0.251822 0.111548 -0.961323 -0.889767 0.456204 -0.013904 0.338491 0.774198 -0.534828 -0.064929 0.993328 -0.095313 0.507442 0.710447 -0.487614 0.404935 -0.182516 0.895944 0.440315 -0.577989 -0.68706 0.019858 0.740565 -0.671691 0.06773 0.721285 -0.689319 -0.066455 0.11362 -0.991299 0.850375 0.385092 -0.358561 0.332508 0.582074 -0.742044 0.288342 0.570546 -0.768984 0.319653 0.879399 -0.352816 0.006701 0.56649 -0.824041 -0.275032 0.919815 -0.279817 0.231099 0.940273 -0.24996 0.218005 0.942268 -0.254175 0.148685 0.973083 -0.176072 0.383198 0.91802 0.101975 0.083385 0.738501 0.669077 0.214238 0.936555 0.277428 0.213633 0.936693 0.277431 0.207172 0.399513 0.893011 0.18369 0.035735 -0.982334 0.004656 0.052388 0.998616 0.064859 0.250554 -0.965927 -0.083184 0.173511 -0.981312 -0.048711 0.192026 0.98018 -0.033625 0.876483 0.480256 -0.067716 0.932088 0.355846 0.155947 0.925316 0.345646 -0.136465 0.755067 0.641289 -0.154274 0.717544 0.679212 -0.156828 0.598993 0.785247 -0.148859 0.587197 0.795638 -0.879153 0.44926 0.158918 -0.141789 0.988457 0.053381 -0.309014 -0.065481 0.948801 0.253176 0.743106 0.619432 0.432512 0.773774 0.462825 0.264239 0.051896 0.96306 0.300981 0.727009 0.617146 -0.023088 0.462618 0.886257 -0.229756 0.001732 0.973247 -0.20297 -0.007031 0.97916 -0.345187 0.20839 0.915107 -0.136408 0.225285 0.964697 -0.204651 0.311836 0.927834 -0.140009 0.298244 0.944165 0.175796 0.411921 -0.894101 0.372543 0.248496 -0.894126 -0.177125 0.974126 -0.140379 0.000883 -0.869327 -0.494236 0.000948 -0.690336 -0.723489 -0.036061 -0.607929 -0.793172 0.114706 -0.720393 -0.684015 0.367743 -0.623599 -0.689848 0.097315 -0.823879 -0.558348 0.107812 -0.804747 -0.583746 0.202173 -0.940738 -0.272284 0.091062 -0.994633 0.049129 0.233986 -0.972204 0.008352 -0.093592 -0.90273 -0.419905 0.273584 -0.787593 -0.552131 0.099701 -0.552324 -0.827646 -0.1624 -0.544081 -0.823166 0.360301 -0.628127 -0.689666 0.123166 -0.536921 -0.834593 0.149076 -0.81578 -0.558819 0.554077 -0.67634 -0.485349 0.551105 -0.511286 -0.659447 -0.127201 -0.151053 -0.980308 0.252101 -0.114927 -0.960852 0.370009 0.259495 -0.892051 0.43802 -0.281699 -0.853689 0.249816 -0.340902 -0.906299 0.0303 0.340809 -0.939644 0.333408 0.150236 -0.930735 0.18438 0.110432 -0.976631 0.227378 -0.30847 -0.923659 0.14525 -0.459067 -0.876448 0.994419 -0.072192 -0.076933 -0.182744 -0.164432 -0.969312 0.239937 -0.229296 -0.943321 0.376678 -0.87907 0.292145 -0.903559 0.102735 -0.415965 0.076411 -0.471815 -0.87838 -0.055809 -0.428524 -0.901805 0.00014 -0.709708 0.704496 0.017435 -0.723928 0.689655 0.142855 -0.721252 0.677782 -0.027284 -0.654543 0.755532 0.186758 -0.452746 0.871861 0.137608 -0.430227 0.892171 0.168799 -0.970655 -0.171279 0.381608 -0.488043 0.784977 0.123886 -0.140442 0.982308 0.167018 -0.400784 0.90082 0.22611 0.275593 0.934304 -0.094022 0.823802 0.559026 0.189819 -0.77656 0.600769 0.178918 -0.780257 0.599322 -0.155353 -0.965882 0.207214 -0.111367 -0.748886 0.653275 -0.217027 -0.722139 0.656821 -0.198397 -0.438 0.876809 0.164292 -0.612163 0.773476 0.296748 -0.775035 0.557909 0.215516 -0.533347 0.817982 -0.270019 -0.490035 0.828828 -0.053553 -0.095617 0.993977 0.240223 0.111189 0.964329 0.266411 0.119131 0.956469 0.296274 -0.43104 0.852306 -0.964513 0.044065 0.260334 0.374456 0.290693 0.8805 -0.074804 0.630714 0.772402 -0.193297 -0.230464 0.953689 -0.887468 0.055526 0.457512 -0.282656 -0.010042 -0.959169 0.046893 0.863442 -0.502264 0.020019 0.402839 0.915052 -0.060694 0.540211 0.839338 -0.753803 -0.093407 0.650427 -0.83755 0.514277 0.184469 0.035959 -0.013855 0.999257 0.259443 0.213793 0.941797 -0.074882 0.118725 0.990099 0.236207 0.265679 0.934677 -0.121916 0.224535 0.966809 0.004436 0.377193 0.926124 0.306887 -0.909817 -0.27938 0.275615 -0.937833 0.210964 0.196938 -0.961386 0.192233 -0.014391 -0.969287 0.245511 0.314644 -0.813883 -0.488461 0.248415 -0.959592 0.132188 0.221789 -0.898137 0.379684 -0.077862 -0.994857 -0.06479 0.456103 -0.634032 -0.624478 0.56064 -0.594846 0.576057 0.386971 -0.646734 0.657258 0.583188 -0.528873 -0.616592 0.622097 -0.531807 0.57461 -0.015595 -0.960333 -0.278421 0.205156 -0.926472 0.315533 0.446024 -0.85541 0.263319 0.239555 0.184441 0.953202 0.801077 -0.53387 0.270664 0.678117 0.66261 0.317972 -0.504114 0.568852 -0.649828 -0.245634 0.921902 -0.299601 0.498074 0.774635 0.389696 0.690804 -0.064427 -0.720166 0.342704 0.047776 -0.938228 0.851404 -0.523209 -0.036921 0.375108 0.926401 -0.03279 0.803728 -0.514206 -0.299356 0.595178 -0.577216 -0.559092 0.484189 -0.776108 0.404003 0.452819 0.867921 -0.20413 -0.432268 -0.61584 -0.6587 0.681649 -0.731546 0.013977 0.160985 -0.12458 0.979063 0.335357 0.706879 0.622782 0.703677 -0.710087 0.024807 0.083471 -0.909043 0.408256 0.382381 -0.804681 0.454173 0.668441 -0.741305 0.060446 0.6258 -0.769278 -0.128788 0.680064 -0.646476 -0.345806 -0.085615 0.90766 -0.410881 -0.106255 0.959936 0.259295 0.391896 -0.52605 -0.754777 -0.281706 0.911835 0.298661 0.816166 0.338219 -0.468488 0.211133 -0.306835 0.928049 -0.069578 -0.751017 0.656607 0.023107 0.250022 0.967964 0.406025 -0.727487 0.553087 0.459819 -0.285098 0.841003 0.38647 -0.224039 0.894677 0.52565 -0.206469 0.825265 0.168976 0.367742 0.914447 0.32912 0.348245 0.877728 0.246555 0.304175 0.920157 0.671429 0.506569 0.540899 0.355186 0.373072 0.857123 0.527446 0.0142 0.84947 0.3381 0.372562 0.864226 0.322489 0.383002 0.865627 0.322074 0.39405 0.86081 -0.082869 0.125968 -0.988567 0.053457 0.885912 0.460762 -0.105028 0.440561 -0.891557 0.191774 0.105102 -0.975795 -0.640017 0.090841 -0.762972 -0.524181 0.642052 -0.559467 -0.031623 0.586642 -0.809229 0.262454 0.196494 -0.944726 0.248826 0.266415 -0.931187 0.177089 0.219635 -0.959375 -0.107841 0.242619 -0.964109 0.13477 0.372003 -0.918396 -0.1251 0.478698 -0.869022 -0.181062 -0.209699 -0.960855 -0.509202 -0.739388 -0.440476 -0.160819 0.496816 -0.852825 0.886606 0.456866 0.072128 0.140658 0.455366 -0.879123 0.217919 0.238064 -0.946487 0.050856 0.366496 -0.929029 0.3403 0.308314 -0.888335 0.223571 0.259018 -0.939641 -0.035419 0.586208 -0.809386 0.376727 0.337935 -0.862483 0.413218 0.292908 -0.862239 0.323099 0.33906 -0.883541 -0.268087 -0.556877 -0.786141 -0.056726 0.464447 -0.883782 -0.517575 0.744759 -0.421248 0.490054 0.493654 -0.718438 -0.038654 0.683013 -0.729383 0.45034 0.572983 -0.684752 0.251153 0.750068 -0.611817 0.383662 0.888268 -0.252555 0.349991 0.887346 -0.300205 0.19743 0.090593 -0.976122 0.225876 0.249084 0.941773 0.23605 0.63943 0.731717 -0.221351 0.908096 0.355479 -0.181384 0.593002 0.784505 0.192659 0.181924 0.964254 0.333765 0.233931 0.913169 0.183317 0.925967 0.330122 0.495108 0.171608 0.851715 0.431806 0.718913 0.544709 0.231569 -0.048115 0.971628 0.174776 0.912526 0.369798 0.306514 0.770543 0.558849 0.140658 0.920167 0.365388 0.061682 0.061124 0.996222 0.496177 0.206412 0.843328 0.538985 0.791649 0.287726 0.235883 0.936866 0.258149 0.401509 0.878296 0.259588 0.538063 0.84142 0.050003 0.017433 0.995032 0.098016 0.295942 0.875996 0.380854 0.415599 0.860478 0.294711 0.476497 0.868585 -0.136056 0.883118 0.465398 0.059231 0.415226 0.814499 0.40519 -0.054845 0.989432 0.134229 -0.321956 0.516245 -0.793622 0.623533 0.27877 -0.730407 0.480653 0.321109 -0.816003 0.292905 0.473122 -0.830881 0.674811 0.680461 -0.285663 0.680264 -0.730525 0.059782 0.239658 0.683555 -0.689432 0.796427 0.514256 -0.318189 0.61597 0.347476 -0.706995 0.301261 0.953241 0.023946 0.516966 0.847546 -0.120051 0.27566 0.957243 0.08773 0.546765 0.830233 -0.10845 0.380342 0.923549 -0.048969 0.404284 0.913146 -0.052142 0.456442 0.778392 0.431006 0.536683 0.830826 0.147309 0.227171 0.878493 0.420289 0.557509 0.305743 0.771819 0.453031 0.388445 0.802417</float_array>
          <technique_common>
            <accessor source="#Rockfish-mesh-normals-array" count="496" stride="3">
              <param name="X" type="float"/>
              <param name="Y" type="float"/>
              <param name="Z" type="float"/>
            </accessor>
          </technique_common>
        </source>
        <source id="Rockfish-mesh-map-0">
          <float_array id="Rockfish-mesh-map-0-array" count="2976">0.446777 0.864502 0.517334 0.87793 0.506592 0.889648 0.506592 0.889648 0.517334 0.87793 0.5271 0.968262 0.5271 0.968262 0.517334 0.87793 0.558105 0.997314 0.506592 0.889648 0.5271 0.968262 0.465088 0.993652 0.446777 0.864502 0.506592 0.889648 0.457031 0.880859 0.457031 0.880859 0.506592 0.889648 0.465088 0.993652 0.446777 0.864502 0.457031 0.880859 0.381592 0.85083 0.457031 0.880859 0.465088 0.993652 0.414551 0.984375 0.381592 0.85083 0.457031 0.880859 0.376465 0.861084 0.376465 0.861084 0.457031 0.880859 0.414551 0.984375 0.376465 0.861084 0.414551 0.984375 0.370605 0.999756 0.637695 0.483887 0.585693 0.571045 0.55542 0.517822 0.585693 0.571045 0.637695 0.483887 0.669678 0.513916 0.637695 0.483887 0.55542 0.517822 0.52124 0.467285 0.637695 0.483887 0.52124 0.467285 0.662109 0.395996 0.662109 0.395996 0.52124 0.467285 0.513916 0.394531 0.513916 0.394531 0.52124 0.467285 0.512695 0.463379 0.513916 0.394531 0.512695 0.463379 0.399658 0.391846 0.101807 0.770752 0.119873 0.813232 0.067871 0.779785 0.067871 0.779785 0.119873 0.813232 0.076904 0.812012 0.101807 0.770752 0.067871 0.779785 0.10083 0.729248 0.10083 0.729248 0.067871 0.779785 0.064697 0.72876 0.064697 0.72876 0.067871 0.779785 0.00708 0.77002 0.064697 0.72876 0.00708 0.77002 0.008057 0.731689 0.064697 0.72876 0.008057 0.731689 0.003174 0.685547 0.10083 0.729248 0.064697 0.72876 0.062256 0.688477 0.062256 0.688477 0.064697 0.72876 0.003174 0.685547 0.10083 0.729248 0.062256 0.688477 0.095947 0.687256 0.062256 0.688477 0.003174 0.685547 0.041504 0.671387 0.095947 0.687256 0.062256 0.688477 0.114258 0.646729 0.062256 0.688477 0.041504 0.671387 0.06665 0.669434 0.062256 0.688477 0.06665 0.669434 0.114258 0.646729 0.488525 0.035645 0.476318 0.053223 0.439697 0.064941 0.488525 0.035645 0.439697 0.064941 0.432861 0.046631 0.476318 0.053223 0.488525 0.035645 0.534668 0.08252 0.534668 0.08252 0.488525 0.035645 0.529297 0.032471 0.439697 0.064941 0.476318 0.053223 0.473389 0.093506 0.439697 0.064941 0.473389 0.093506 0.417236 0.085693 0.473389 0.093506 0.476318 0.053223 0.534668 0.08252 0.534668 0.08252 0.529297 0.032471 0.565186 0.05957 0.534668 0.08252 0.565186 0.05957 0.537354 0.13501 0.534668 0.08252 0.537354 0.13501 0.516113 0.112793 0.534668 0.08252 0.516113 0.112793 0.473389 0.093506 0.516113 0.112793 0.537354 0.13501 0.51123 0.14917 0.516113 0.112793 0.51123 0.14917 0.487549 0.131836 0.516113 0.112793 0.487549 0.131836 0.473389 0.093506 0.473389 0.093506 0.487549 0.131836 0.468262 0.135498 0.221924 0.004395 0.279053 0.004395 0.250977 0.01709 0.911621 0.440918 0.962158 0.442383 0.897705 0.519043 0.911621 0.440918 0.897705 0.519043 0.879395 0.497559 0.897705 0.519043 0.962158 0.442383 0.969727 0.52002 0.969727 0.52002 0.962158 0.442383 0.976074 0.467773 0.870361 0.196045 0.860352 0.145996 0.881104 0.143799 0.870361 0.196045 0.881104 0.143799 0.901611 0.19458 0.901611 0.19458 0.881104 0.143799 0.923828 0.142822 0.870361 0.196045 0.901611 0.19458 0.917969 0.292725 0.870361 0.196045 0.917969 0.292725 0.827637 0.256348 0.870361 0.196045 0.827637 0.256348 0.788086 0.208496 0.0354 0.238037 0.077148 0.212646 0.106934 0.215576 0.106934 0.215576 0.077148 0.212646 0.157715 0.14209 0.106934 0.215576 0.157715 0.14209 0.167725 0.191895 0.106934 0.215576 0.167725 0.191895 0.157715 0.241699 0.930176 0.393799 0.865234 0.346924 0.928955 0.339111 0.865234 0.346924 0.930176 0.393799 0.889404 0.422607 0.928955 0.339111 0.865234 0.346924 0.871582 0.298828 0.871582 0.298828 0.865234 0.346924 0.82373 0.351807 0.871582 0.298828 0.82373 0.351807 0.799316 0.303711 0.928955 0.339111 0.871582 0.298828 0.917725 0.310059 0.917725 0.310059 0.871582 0.298828 0.938965 0.297119 0.917725 0.310059 0.938965 0.297119 0.928955 0.339111 0.799072 0.571289 0.851074 0.499023 0.892334 0.459229 0.851074 0.499023 0.799072 0.571289 0.848145 0.452148 0.027832 0.805908 0.058594 0.783447 0.071777 0.816162 0.820068 0.854492 0.805908 0.874756 0.780518 0.807373 0.780518 0.807373 0.805908 0.874756 0.757568 0.849365 0.780518 0.807373 0.757568 0.849365 0.728516 0.77832 0.780518 0.807373 0.728516 0.77832 0.756348 0.756348 0.780518 0.807373 0.756348 0.756348 0.812256 0.807373 0.812256 0.807373 0.756348 0.756348 0.800781 0.718018 0.800781 0.718018 0.756348 0.756348 0.818115 0.662354 0.728516 0.77832 0.757568 0.849365 0.707764 0.802246 0.728516 0.77832 0.707764 0.802246 0.65918 0.779541 0.707764 0.802246 0.757568 0.849365 0.709473 0.827637 0.709473 0.827637 0.757568 0.849365 0.718994 0.874268 0.709473 0.827637 0.718994 0.874268 0.641357 0.843506 0.709473 0.827637 0.641357 0.843506 0.707764 0.802246 0.707764 0.802246 0.641357 0.843506 0.649658 0.817871 0.649658 0.817871 0.641357 0.843506 0.623291 0.804443 0.649658 0.817871 0.623291 0.804443 0.707764 0.802246 0.779541 0.208496 0.797363 0.16748 0.83667 0.143555 0.797363 0.16748 0.779541 0.208496 0.711426 0.170654 0.711426 0.170654 0.779541 0.208496 0.756104 0.237793 0.756104 0.237793 0.779541 0.208496 0.827393 0.285156 0.756104 0.237793 0.827393 0.285156 0.779053 0.303711 0.711426 0.170654 0.756104 0.237793 0.708252 0.221924 0.711426 0.170654 0.708252 0.221924 0.707275 0.14917 0.825684 0.100586 0.850342 0.127197 0.770508 0.142578 0.751953 0.164795 0.701416 0.138672 0.770508 0.142578 0.770508 0.142578 0.701416 0.138672 0.716553 0.100098 0.770508 0.142578 0.716553 0.100098 0.825684 0.100586 0.825684 0.100586 0.716553 0.100098 0.705811 0.040771 0.825684 0.100586 0.705811 0.040771 0.803955 0.03833 0.825684 0.100586 0.803955 0.03833 0.838135 0.056885 0.308838 0.143311 0.267822 0.190186 0.250244 0.103271 0.267822 0.190186 0.308838 0.143311 0.324951 0.187256 0.308838 0.143311 0.250244 0.103271 0.317871 0.112305 0.250244 0.103271 0.267822 0.190186 0.172119 0.194824 0.250244 0.103271 0.172119 0.194824 0.187988 0.133789 0.250244 0.103271 0.187988 0.133789 0.180908 0.102051 0.250244 0.103271 0.180908 0.102051 0.227783 0.07666 0.978027 0.950684 0.883057 0.985352 0.866699 0.947266 0.168457 0.109131 0.147217 0.080811 0.232178 0.015381 0.232178 0.015381 0.147217 0.080811 0.124512 0.036377 0.232178 0.015381 0.124512 0.036377 0.114014 0.000244 0.124512 0.036377 0.147217 0.080811 0.10083 0.041992 0.124512 0.036377 0.10083 0.041992 0.114014 0.000244 0.230225 0.271973 0.291748 0.268799 0.225586 0.302979 0.225586 0.302979 0.291748 0.268799 0.220459 0.339844 0.230225 0.271973 0.225586 0.302979 0.185791 0.291992 0.185791 0.291992 0.225586 0.302979 0.220459 0.339844 0.230225 0.271973 0.185791 0.291992 0.140381 0.286621 0.140381 0.286621 0.185791 0.291992 0.165039 0.298096 0.140381 0.286621 0.165039 0.298096 0.151855 0.327393 0.151855 0.327393 0.165039 0.298096 0.185791 0.291992 0.151855 0.327393 0.185791 0.291992 0.220459 0.339844 0.151855 0.327393 0.220459 0.339844 0.19043 0.366211 0.151855 0.327393 0.19043 0.366211 0.193604 0.402832 0.19043 0.366211 0.220459 0.339844 0.207031 0.426025 0.19043 0.366211 0.207031 0.426025 0.193604 0.402832 0.207031 0.426025 0.220459 0.339844 0.224854 0.457764 0.151855 0.327393 0.193604 0.402832 0.151611 0.39502 0.151611 0.39502 0.193604 0.402832 0.207031 0.426025 0.151611 0.39502 0.207031 0.426025 0.204346 0.443848 0.151855 0.327393 0.151611 0.39502 0.147217 0.31665 0.147217 0.31665 0.151611 0.39502 0.125488 0.377441 0.147217 0.31665 0.125488 0.377441 0.107666 0.305908 0.35791 0.21875 0.342773 0.27124 0.327881 0.243652 0.342773 0.27124 0.35791 0.21875 0.391357 0.260986 0.391357 0.260986 0.35791 0.21875 0.451904 0.211426 0.342773 0.27124 0.391357 0.260986 0.362549 0.306641 0.342773 0.27124 0.362549 0.306641 0.298096 0.311035 0.298096 0.311035 0.362549 0.306641 0.357178 0.334473 0.908447 0.099121 0.933105 0.058105 0.909424 0.120605 0.908447 0.099121 0.909424 0.120605 0.881836 0.124756 0.909424 0.120605 0.933105 0.058105 0.989258 0.087158 0.909424 0.120605 0.989258 0.087158 0.981934 0.191895 0.406738 0.500488 0.437988 0.426758 0.496826 0.505127 0.437988 0.426758 0.406738 0.500488 0.358643 0.437012 0.437988 0.426758 0.358643 0.437012 0.383545 0.407471 0.358643 0.437012 0.406738 0.500488 0.332275 0.503906 0.332275 0.503906 0.406738 0.500488 0.388916 0.593506 0.358643 0.437012 0.332275 0.503906 0.297363 0.413818 0.332275 0.503906 0.388916 0.593506 0.300293 0.566162 0.297363 0.413818 0.332275 0.503906 0.2854 0.479492 0.2854 0.479492 0.332275 0.503906 0.300293 0.566162 0.605469 0.139648 0.640869 0.116699 0.692871 0.134277 0.640869 0.116699 0.605469 0.139648 0.571533 0.102783 0.640869 0.116699 0.571533 0.102783 0.592529 0.052734 0.692871 0.134277 0.640869 0.116699 0.660156 0.074951 0.660156 0.074951 0.640869 0.116699 0.592529 0.052734 0.692871 0.134277 0.660156 0.074951 0.700928 0.098145 0.660156 0.074951 0.592529 0.052734 0.6521 0.054932 0.660156 0.074951 0.6521 0.054932 0.700928 0.098145 0.322266 0.115967 0.378174 0.040283 0.374756 0.130371 0.322266 0.115967 0.374756 0.130371 0.337646 0.163818 0.374756 0.130371 0.378174 0.040283 0.414062 0.061768 0.374756 0.130371 0.414062 0.061768 0.408691 0.129639 0.277344 0.780762 0.24707 0.687012 0.286621 0.751465 0.24707 0.687012 0.277344 0.780762 0.226807 0.785889 0.286621 0.751465 0.24707 0.687012 0.32373 0.681396 0.286621 0.751465 0.32373 0.681396 0.32251 0.766602 0.32373 0.681396 0.24707 0.687012 0.234375 0.570557 0.32373 0.681396 0.234375 0.570557 0.295654 0.585938 0.32373 0.681396 0.295654 0.585938 0.359863 0.648193 0.32373 0.681396 0.359863 0.648193 0.379395 0.66748 0.379395 0.66748 0.359863 0.648193 0.376709 0.644043 0.32373 0.681396 0.379395 0.66748 0.418701 0.673828 0.870117 0.559814 0.936279 0.539062 0.936279 0.643066 0.936279 0.539062 0.870117 0.559814 0.908447 0.532959 0.908447 0.532959 0.870117 0.559814 0.864746 0.50708 0.870117 0.559814 0.936279 0.643066 0.897461 0.612061 0.864746 0.50708 0.870117 0.559814 0.841797 0.534912 0.870117 0.559814 0.897461 0.612061 0.827637 0.584229 0.870117 0.559814 0.827637 0.584229 0.841797 0.534912 0.841797 0.534912 0.827637 0.584229 0.82251 0.553711 0.827637 0.584229 0.897461 0.612061 0.849609 0.6521 0.827637 0.584229 0.849609 0.6521 0.812744 0.634277 0.180664 0.699707 0.112305 0.781494 0.116699 0.677979 0.112305 0.781494 0.180664 0.699707 0.160156 0.741211 0.180664 0.699707 0.116699 0.677979 0.153564 0.673096 0.160156 0.741211 0.180664 0.699707 0.210938 0.727051 0.160156 0.741211 0.210938 0.727051 0.219727 0.807129 0.210938 0.727051 0.180664 0.699707 0.205811 0.693604 0.205811 0.693604 0.180664 0.699707 0.153564 0.673096 0.205811 0.693604 0.153564 0.673096 0.219482 0.608887 0.894287 0.730225 0.886963 0.813721 0.849854 0.669189 0.849854 0.669189 0.886963 0.813721 0.812744 0.698242 0.812744 0.698242 0.886963 0.813721 0.811768 0.758545 0.811768 0.758545 0.886963 0.813721 0.826172 0.818115 0.059814 0.016113 0.087646 0.044678 0.041016 0.042969 0.087646 0.044678 0.059814 0.016113 0.107422 0.002197 0.297852 0.218018 0.247803 0.266357 0.263672 0.235107 0.247803 0.266357 0.297852 0.218018 0.335693 0.228271 0.335693 0.228271 0.297852 0.218018 0.306396 0.196533 0.306396 0.196533 0.297852 0.218018 0.263672 0.235107 0.306396 0.196533 0.263672 0.235107 0.172363 0.200439 0.172363 0.200439 0.263672 0.235107 0.165283 0.235352 0.165283 0.235352 0.263672 0.235107 0.213623 0.262207 0.949463 0.714111 0.895508 0.703369 0.877197 0.68457 0.949463 0.714111 0.877197 0.68457 0.989014 0.679688 0.895508 0.703369 0.949463 0.714111 0.960938 0.770508 0.895508 0.703369 0.960938 0.770508 0.904785 0.768799 0.934814 0.336426 0.980225 0.399902 0.934814 0.390869 0.980225 0.399902 0.934814 0.336426 0.976074 0.354004 0.04126 0.477051 0.091309 0.486816 0.002686 0.543701 0.002686 0.543701 0.091309 0.486816 0.07251 0.573486 0.002686 0.543701 0.07251 0.573486 0.006104 0.597412 0.006104 0.597412 0.07251 0.573486 0.090088 0.60083 0.006104 0.597412 0.090088 0.60083 0.000244 0.637207 0.090088 0.60083 0.07251 0.573486 0.097412 0.602783 0.543213 0.770264 0.580322 0.755615 0.562256 0.777588 0.562256 0.777588 0.580322 0.755615 0.629883 0.773926 0.580322 0.755615 0.543213 0.770264 0.574951 0.70459 0.629883 0.773926 0.580322 0.755615 0.606689 0.731689 0.606689 0.731689 0.580322 0.755615 0.574951 0.70459 0.629883 0.773926 0.606689 0.731689 0.654785 0.738525 0.654785 0.738525 0.606689 0.731689 0.574951 0.70459 0.629883 0.773926 0.654785 0.738525 0.648193 0.799316 0.654785 0.738525 0.574951 0.70459 0.661621 0.682129 0.654785 0.738525 0.661621 0.682129 0.677002 0.730713 0.654785 0.738525 0.677002 0.730713 0.694092 0.742676 0.694092 0.742676 0.677002 0.730713 0.661621 0.682129 0.694092 0.742676 0.661621 0.682129 0.721436 0.731445 0.721436 0.731445 0.661621 0.682129 0.718994 0.659912 0.718994 0.659912 0.661621 0.682129 0.689209 0.645508 0.661621 0.682129 0.574951 0.70459 0.601074 0.681885 0.601074 0.681885 0.574951 0.70459 0.579346 0.662842 0.689209 0.645508 0.661621 0.682129 0.634277 0.62915 0.634277 0.62915 0.661621 0.682129 0.601074 0.681885 0.634277 0.62915 0.601074 0.681885 0.579346 0.662842 0.689209 0.645508 0.634277 0.62915 0.682129 0.58374 0.637695 0.591553 0.658936 0.528809 0.682129 0.58374 0.637695 0.591553 0.682129 0.58374 0.634277 0.62915 0.637695 0.591553 0.634277 0.62915 0.595947 0.602051 0.595947 0.602051 0.634277 0.62915 0.550049 0.607666 0.634277 0.62915 0.579346 0.662842 0.598633 0.632324 0.634277 0.62915 0.598633 0.632324 0.550049 0.607666 0.550049 0.607666 0.598633 0.632324 0.579346 0.662842 0.030273 0.994141 0.00415 0.997803 0.007568 0.910645 0.030273 0.994141 0.007568 0.910645 0.068115 0.982422 0.068115 0.982422 0.007568 0.910645 0.043945 0.901855 0.068115 0.982422 0.043945 0.901855 0.104004 0.961182 0.068115 0.982422 0.104004 0.961182 0.113281 0.993896 0.104004 0.961182 0.043945 0.901855 0.086914 0.922607 0.086914 0.922607 0.043945 0.901855 0.039307 0.821289 0.086914 0.922607 0.039307 0.821289 0.117676 0.81958 0.086914 0.922607 0.117676 0.81958 0.14209 0.894043 0.086914 0.922607 0.14209 0.894043 0.126709 0.931396 0.086914 0.922607 0.126709 0.931396 0.104004 0.961182 0.126709 0.931396 0.14209 0.894043 0.173584 0.918457 0.150391 0.973877 0.113281 0.993896 0.104004 0.961182 0.150391 0.973877 0.104004 0.961182 0.126709 0.931396 0.150391 0.973877 0.126709 0.931396 0.173584 0.918457 0.113281 0.993896 0.150391 0.973877 0.16748 0.985596 0.16748 0.985596 0.150391 0.973877 0.173584 0.918457 0.29834 0.400146 0.242676 0.495117 0.231689 0.39624 0.29834 0.400146 0.231689 0.39624 0.268311 0.330322 0.268311 0.330322 0.231689 0.39624 0.243652 0.325684 0.29834 0.400146 0.268311 0.330322 0.303223 0.320312 0.29834 0.400146 0.303223 0.320312 0.339111 0.354492 0.29834 0.400146 0.339111 0.354492 0.405029 0.371582 0.868408 0.843018 0.881592 0.879883 0.807861 0.905762 0.868408 0.843018 0.807861 0.905762 0.819824 0.865479 0.807861 0.905762 0.881592 0.879883 0.84668 0.921387 0.807861 0.905762 0.84668 0.921387 0.875977 0.985352 0.807861 0.905762 0.875977 0.985352 0.777344 0.934326 0.777344 0.934326 0.875977 0.985352 0.788574 0.998779 0.807861 0.905762 0.777344 0.934326 0.777588 0.907227 0.777588 0.907227 0.777344 0.934326 0.7229 0.894531 0.689453 0.598877 0.787598 0.565186 0.74707 0.637451 0.787598 0.565186 0.689453 0.598877 0.711182 0.539062 0.74707 0.637451 0.787598 0.565186 0.808838 0.59668 0.74707 0.637451 0.808838 0.59668 0.806885 0.666748 0.74707 0.637451 0.806885 0.666748 0.756104 0.70874 0.787598 0.565186 0.711182 0.539062 0.747803 0.532959 0.787598 0.565186 0.747803 0.532959 0.806885 0.530273 0.747803 0.532959 0.711182 0.539062 0.701172 0.504883 0.701172 0.504883 0.711182 0.539062 0.676514 0.513672 0.806885 0.530273 0.747803 0.532959 0.753418 0.509521 0.753418 0.509521 0.747803 0.532959 0.701172 0.504883 0.806885 0.530273 0.753418 0.509521 0.792725 0.498291 0.806885 0.530273 0.792725 0.498291 0.826904 0.486328 0.826904 0.486328 0.792725 0.498291 0.801025 0.474609 0.801025 0.474609 0.792725 0.498291 0.775635 0.465332 0.775635 0.465332 0.792725 0.498291 0.753418 0.509521 0.801025 0.474609 0.775635 0.465332 0.820068 0.418213 0.775635 0.465332 0.753418 0.509521 0.731445 0.47998 0.731445 0.47998 0.753418 0.509521 0.701172 0.504883 0.731445 0.47998 0.701172 0.504883 0.705322 0.474365 0.705322 0.474365 0.701172 0.504883 0.668213 0.464355 0.668213 0.464355 0.701172 0.504883 0.650635 0.467529 0.947021 0.883057 0.937012 0.794434 0.979004 0.783447 0.947021 0.883057 0.979004 0.783447 0.968018 0.893311 0.947021 0.883057 0.968018 0.893311 0.989258 0.913818 0.947021 0.883057 0.989258 0.913818 0.956787 0.926514 0.937012 0.794434 0.947021 0.883057 0.902588 0.838867 0.902588 0.838867 0.947021 0.883057 0.889648 0.846924 0.902588 0.838867 0.889648 0.846924 0.852539 0.822021 0.889648 0.846924 0.947021 0.883057 0.884033 0.903564 0.884033 0.903564 0.947021 0.883057 0.922852 0.941162 0.030518 0.352783 0.049072 0.295166 0.070557 0.391113 0.049072 0.295166 0.030518 0.352783 0.017822 0.3125 0.049072 0.295166 0.017822 0.3125 0.014893 0.255127 0.070557 0.391113 0.049072 0.295166 0.096924 0.309082 0.049072 0.295166 0.014893 0.255127 0.062256 0.259277 0.049072 0.295166 0.062256 0.259277 0.096924 0.309082 0.096924 0.309082 0.062256 0.259277 0.107422 0.296631 0.107422 0.296631 0.062256 0.259277 0.087158 0.23291 0.107422 0.296631 0.087158 0.23291 0.130859 0.274902 0.130859 0.274902 0.087158 0.23291 0.17749 0.251465 0.980957 0.24292 0.907227 0.19751 0.982422 0.19873 0.907227 0.19751 0.980957 0.24292 0.928467 0.248779 0.336426 0.873779 0.344238 0.828369 0.396973 0.826904 0.396973 0.826904 0.344238 0.828369 0.350586 0.796387 0.396973 0.826904 0.350586 0.796387 0.395264 0.786621 0.396973 0.826904 0.395264 0.786621 0.437256 0.828857 0.396973 0.826904 0.437256 0.828857 0.441406 0.857422 0.441406 0.857422 0.437256 0.828857 0.481689 0.853516 0.437256 0.828857 0.395264 0.786621 0.409912 0.763916 0.409912 0.763916 0.395264 0.786621 0.383301 0.687744 0.437256 0.828857 0.409912 0.763916 0.458984 0.830566 0.437256 0.828857 0.458984 0.830566 0.481689 0.853516 0.481689 0.853516 0.458984 0.830566 0.523682 0.863037 0.523682 0.863037 0.458984 0.830566 0.504395 0.84375 0.504395 0.84375 0.458984 0.830566 0.498291 0.823975 0.504395 0.84375 0.498291 0.823975 0.518799 0.8396 0.504395 0.84375 0.518799 0.8396 0.555664 0.855225 0.504395 0.84375 0.555664 0.855225 0.523682 0.863037 0.523682 0.863037 0.555664 0.855225 0.577637 0.865723 0.582031 0.851318 0.628418 0.865967 0.588379 0.9021 0.628418 0.865967 0.582031 0.851318 0.589844 0.840576 0.628418 0.865967 0.589844 0.840576 0.608154 0.821533 0.620361 0.838379 0.684326 0.876709 0.628418 0.865967 0.628418 0.865967 0.684326 0.876709 0.675293 0.898926 0.628418 0.865967 0.675293 0.898926 0.588379 0.9021 0.675293 0.898926 0.684326 0.876709 0.70752 0.905273 0.675293 0.898926 0.70752 0.905273 0.724609 0.949951 0.588379 0.9021 0.675293 0.898926 0.652832 0.938477 0.652832 0.938477 0.675293 0.898926 0.724609 0.949951 0.588379 0.9021 0.652832 0.938477 0.598389 0.94165 0.652832 0.938477 0.724609 0.949951 0.694336 0.999756 0.598389 0.94165 0.652832 0.938477 0.622314 0.98291 0.622314 0.98291 0.652832 0.938477 0.694336 0.999756 0.61499 0.304932 0.619385 0.259521 0.685791 0.32666 0.61499 0.304932 0.685791 0.32666 0.606201 0.351562 0.61499 0.304932 0.606201 0.351562 0.567383 0.343506 0.685791 0.32666 0.619385 0.259521 0.705078 0.320557 0.705078 0.320557 0.619385 0.259521 0.661377 0.241455 0.606201 0.351562 0.685791 0.32666 0.666016 0.373535 0.606201 0.351562 0.666016 0.373535 0.581543 0.373291 0.666016 0.373535 0.685791 0.32666 0.705078 0.320557 0.705078 0.320557 0.661377 0.241455 0.7229 0.232666 0.666016 0.373535 0.705078 0.320557 0.703125 0.412354 0.666016 0.373535 0.703125 0.412354 0.666504 0.43335 0.705078 0.320557 0.7229 0.232666 0.742188 0.32251 0.705078 0.320557 0.742188 0.32251 0.703125 0.412354 0.742188 0.32251 0.7229 0.232666 0.773682 0.310059 0.703125 0.412354 0.742188 0.32251 0.756104 0.378418 0.756104 0.378418 0.742188 0.32251 0.773682 0.310059 0.703125 0.412354 0.756104 0.378418 0.762695 0.415283 0.756104 0.378418 0.773682 0.310059 0.796143 0.33252 0.756104 0.378418 0.796143 0.33252 0.762695 0.415283 0.762695 0.415283 0.796143 0.33252 0.792969 0.427246 0.792969 0.427246 0.796143 0.33252 0.812744 0.344971 0.792969 0.427246 0.812744 0.344971 0.827148 0.406006 0.491211 0.142822 0.522217 0.168945 0.4375 0.192139 0.491211 0.142822 0.4375 0.192139 0.364502 0.147949 0.484131 0.618652 0.484375 0.705811 0.424561 0.675781 0.484131 0.618652 0.424561 0.675781 0.407227 0.600098 0.424561 0.675781 0.484375 0.705811 0.400391 0.718994 0.400391 0.718994 0.484375 0.705811 0.435791 0.755127 0.484375 0.705811 0.484131 0.618652 0.515137 0.582764 0.515137 0.582764 0.484131 0.618652 0.407227 0.600098 0.435791 0.755127 0.484375 0.705811 0.534912 0.733154 0.435791 0.755127 0.534912 0.733154 0.4729 0.772217 0.435791 0.755127 0.4729 0.772217 0.456543 0.810303 0.456543 0.810303 0.4729 0.772217 0.541016 0.760254 0.541016 0.760254 0.4729 0.772217 0.534912 0.733154 0.534912 0.733154 0.484375 0.705811 0.535645 0.645264 0.535645 0.645264 0.484375 0.705811 0.515137 0.582764 0.534912 0.733154 0.535645 0.645264 0.562256 0.668945 0.562256 0.668945 0.535645 0.645264 0.528564 0.555176 0.528564 0.555176 0.535645 0.645264 0.515137 0.582764 0.528564 0.555176 0.515137 0.582764 0.475098 0.563232 0.475098 0.563232 0.515137 0.582764 0.407227 0.600098 0.528564 0.555176 0.475098 0.563232 0.433105 0.517822 0.475098 0.563232 0.407227 0.600098 0.399658 0.564941 0.475098 0.563232 0.399658 0.564941 0.433105 0.517822 0.051514 0.135498 0.019775 0.138184 0.048828 0.101074 0.048828 0.101074 0.019775 0.138184 0.038574 0.080811 0.019775 0.138184 0.051514 0.135498 0.045166 0.162109 0.048828 0.101074 0.038574 0.080811 0.093262 0.080322 0.048828 0.101074 0.093262 0.080322 0.087402 0.118408 0.048828 0.101074 0.087402 0.118408 0.051514 0.135498 0.087402 0.118408 0.093262 0.080322 0.137451 0.082275 0.045166 0.162109 0.051514 0.135498 0.074707 0.169434 0.074707 0.169434 0.051514 0.135498 0.087402 0.118408 0.045166 0.162109 0.074707 0.169434 0.044434 0.207764 0.045166 0.162109 0.044434 0.207764 0.0271 0.185303 0.074707 0.169434 0.087402 0.118408 0.115723 0.170166 0.087402 0.118408 0.137451 0.082275 0.147705 0.109863 0.115723 0.170166 0.087402 0.118408 0.127686 0.129883 0.127686 0.129883 0.087402 0.118408 0.147705 0.109863 0.127686 0.129883 0.147705 0.109863 0.166748 0.118896 0.667969 0.202637 0.618652 0.21582 0.650391 0.182617 0.619629 0.143799 0.702881 0.154541 0.650391 0.182617 0.619629 0.143799 0.650391 0.182617 0.602783 0.177979 0.602783 0.177979 0.650391 0.182617 0.618652 0.21582 0.619629 0.143799 0.602783 0.177979 0.593506 0.15332 0.593506 0.15332 0.602783 0.177979 0.525635 0.161133 0.593506 0.15332 0.525635 0.161133 0.542725 0.138916 0.525635 0.161133 0.602783 0.177979 0.536377 0.195312 0.602783 0.177979 0.618652 0.21582 0.580566 0.235596 0.602783 0.177979 0.580566 0.235596 0.536377 0.195312 0.580566 0.235596 0.618652 0.21582 0.610352 0.289795 0.536377 0.195312 0.580566 0.235596 0.535645 0.234619 0.535645 0.234619 0.580566 0.235596 0.563721 0.260986 0.917236 0.255859 0.971436 0.273438 0.927002 0.291016 0.271973 0.53418 0.245605 0.524658 0.230957 0.491455 0.245605 0.524658 0.271973 0.53418 0.230225 0.564209 0.245605 0.524658 0.230225 0.564209 0.230957 0.491455 0.230225 0.564209 0.271973 0.53418 0.291748 0.555176 0.230957 0.491455 0.230225 0.564209 0.182129 0.51416 0.230957 0.491455 0.182129 0.51416 0.21875 0.460449 0.21875 0.460449 0.182129 0.51416 0.163574 0.455566 0.182129 0.51416 0.230225 0.564209 0.171143 0.568359 0.171143 0.568359 0.230225 0.564209 0.224121 0.591309 0.163574 0.455566 0.182129 0.51416 0.135742 0.528076 0.135742 0.528076 0.182129 0.51416 0.171143 0.568359 0.163574 0.455566 0.135742 0.528076 0.0896 0.45874 0.0896 0.45874 0.135742 0.528076 0.102783 0.508057 0.102783 0.508057 0.135742 0.528076 0.085205 0.546143 0.085205 0.546143 0.135742 0.528076 0.09375 0.572998 0.09375 0.572998 0.135742 0.528076 0.171143 0.568359 0.171143 0.568359 0.224121 0.591309 0.168701 0.64502 0.09375 0.572998 0.171143 0.568359 0.122559 0.595459 0.122559 0.595459 0.171143 0.568359 0.168701 0.64502 0.09375 0.572998 0.122559 0.595459 0.126709 0.628418 0.126709 0.628418 0.122559 0.595459 0.168701 0.64502 0.126709 0.628418 0.168701 0.64502 0.14209 0.669434 0.265137 0.938721 0.246582 0.89917 0.310303 0.947021 0.310303 0.947021 0.246582 0.89917 0.308105 0.884033 0.246582 0.89917 0.265137 0.938721 0.234619 0.911133 0.234619 0.911133 0.265137 0.938721 0.246826 0.951904 0.234619 0.911133 0.246826 0.951904 0.188477 0.940674 0.234619 0.911133 0.188477 0.940674 0.216064 0.881836 0.234619 0.911133 0.216064 0.881836 0.246582 0.89917 0.216064 0.881836 0.188477 0.940674 0.183838 0.885986 0.308105 0.884033 0.246582 0.89917 0.264648 0.856201 0.216064 0.881836 0.183838 0.885986 0.194824 0.85376 0.246582 0.89917 0.216064 0.881836 0.232666 0.853027 0.246582 0.89917 0.232666 0.853027 0.264648 0.856201 0.232666 0.853027 0.216064 0.881836 0.194824 0.85376 0.194824 0.85376 0.183838 0.885986 0.140869 0.873047 0.194824 0.85376 0.140869 0.873047 0.160889 0.806396 0.194824 0.85376 0.160889 0.806396 0.21582 0.81543 0.194824 0.85376 0.21582 0.81543 0.232666 0.853027 0.305176 0.843018 0.308105 0.884033 0.264648 0.856201 0.305176 0.843018 0.264648 0.856201 0.232666 0.853027 0.308105 0.884033 0.305176 0.843018 0.328857 0.820801 0.232666 0.853027 0.21582 0.81543 0.268555 0.823975 0.232666 0.853027 0.268555 0.823975 0.305176 0.843018 0.268555 0.823975 0.21582 0.81543 0.275146 0.786377 0.268555 0.823975 0.275146 0.786377 0.294189 0.79248 0.268555 0.823975 0.294189 0.79248 0.305176 0.843018 0.305176 0.843018 0.294189 0.79248 0.328857 0.820801 0.328857 0.820801 0.294189 0.79248 0.322266 0.786621 0.163574 0.431396 0.121094 0.438721 0.11792 0.399658 0.11792 0.399658 0.121094 0.438721 0.085449 0.453613 0.11792 0.399658 0.085449 0.453613 0.031006 0.393799 0.031006 0.393799 0.085449 0.453613 0.014893 0.478271 0.031006 0.393799 0.014893 0.478271 0.003418 0.443604 0.503662 0.31958 0.477539 0.271484 0.519043 0.26416 0.503662 0.31958 0.519043 0.26416 0.55249 0.31543 0.55249 0.31543 0.519043 0.26416 0.56543 0.26709 0.503662 0.31958 0.55249 0.31543 0.54248 0.337891 0.477539 0.271484 0.503662 0.31958 0.448486 0.324463 0.448486 0.324463 0.503662 0.31958 0.54248 0.337891 0.477539 0.271484 0.448486 0.324463 0.394531 0.269287 0.448486 0.324463 0.54248 0.337891 0.47998 0.383301 0.47998 0.383301 0.54248 0.337891 0.584717 0.387207 0.448486 0.324463 0.47998 0.383301 0.415039 0.356689 0.394531 0.269287 0.448486 0.324463 0.412354 0.32251 0.412354 0.32251 0.448486 0.324463 0.415039 0.356689 0.394531 0.269287 0.412354 0.32251 0.362549 0.353516 0.362549 0.353516 0.412354 0.32251 0.415039 0.356689</float_array>
          <technique_common>
            <accessor source="#Rockfish-mesh-map-0-array" count="1488" stride="2">
              <param name="S" type="float"/>
              <param name="T" type="float"/>
            </accessor>
          </technique_common>
        </source>
        <vertices id="Rockfish-mesh-vertices">
          <input semantic="POSITION" source="#Rockfish-mesh-positions"/>
        </vertices>
        <polylist material="Material_-1-material" count="6">
          <input semantic="VERTEX" source="#Rockfish-mesh-vertices" offset="0"/>
          <input semantic="NORMAL" source="#Rockfish-mesh-normals" offset="1"/>
          <input semantic="TEXCOORD" source="#Rockfish-mesh-map-0" offset="2" set="0"/>
          <vcount>3 3 3 3 3 3 3 3 3 3 3 3 3 3 3 3 3 3 3 3 3 3 3 3 3 3 3 3 3 3 3 3 3 3 3 3 3 3 3 3 3 3 3 3 3 3 3 3 3 3 3 3 3 3 3 3 3 3 3 3 3 3 3 3 3 3 3 3 3 3 3 3 3 3 3 3 3 3 3 3 3 3 3 3 3 3 3 3 3 3 3 3 3 3 3 3 3 3 3 3 3 3 3 3 3 3 3 3 3 3 3 3 3 3 3 3 3 3 3 3 3 3 3 3 3 3 3 3 3 3 3 3 3 3 3 3 3 3 3 3 3 3 3 3 3 3 3 3 3 3 3 3 3 3 3 3 3 3 3 3 3 3 3 3 3 3 3 3 3 3 3 3 3 3 3 3 3 3 3 3 3 3 3 3 3 3 3 3 3 3 3 3 3 3 3 3 3 3 3 3 3 3 3 3 3 3 3 3 3 3 3 3 3 3 3 3 3 3 3 3 3 3 3 3 3 3 3 3 3 3 3 3 3 3 3 3 3 3 3 3 3 3 3 3 3 3 3 3 3 3 3 3 3 3 3 3 3 3 3 3 3 3 3 3 3 3 3 3 3 3 3 3 3 3 3 3 3 3 3 3 3 3 3 3 3 3 3 3 3 3 3 3 3 3 3 3 3 3 3 3 3 3 3 3 3 3 3 3 3 3 3 3 3 3 3 3 3 3 3 3 3 3 3 3 3 3 3 3 3 3 3 3 3 3 3 3 3 3 3 3 3 3 3 3 3 3 3 3 3 3 3 3 3 3 3 3 3 3 3 3 3 3 3 3 3 3 3 3 3 3 3 3 3 3 3 3 3 3 3 3 3 3 3 3 3 3 3 3 3 3 3 3 3 3 3 3 3 3 3 3 3 3 3 3 3 3 3 3 3 3 3 3 3 3 3 3 3 3 3 3 3 3 3 3 3 3 3 3 3 3 3 3 3 3 3 3 3 3 3 3 3 3 3 3 3 3 3 3 3 3 3 3 3 3 3 3 3 3 3 3 3 3 3 3 3 3 3 3 3 3 3 3 3 3 3 3 3 3 3 3 3 3 3 3 3 3 3 3 3 3 3 3 3 3 3 3</vcount>
          <p>1 0 0 2 0 1 3 0 2 3 1 3 2 1 4 4 1 5 4 2 6 2 2 7 5 2 8 3 3 9 4 3 10 6 3 11 1 4 12 3 4 13 7 4 14 7 5 15 3 5 16 6 5 17 1 6 18 7 6 19 8 6 20 7 7 21 6 7 22 9 7 23 8 8 24 7 8 25 10 8 26 10 9 27 7 9 28 9 9 29 10 10 30 9 10 31 11 10 32 12 11 33 2 11 34 1 11 35 2 12 36 12 12 37 5 12 38 12 13 39 1 13 40 8 13 41 12 14 42 8 14 43 13 14 44 13 15 45 8 15 46 14 15 47 14 16 48 8 16 49 10 16 50 14 17 51 10 17 52 11 17 53 6 18 54 4 18 55 15 18 56 15 19 57 4 19 58 5 19 59 6 20 60 15 20 61 9 20 62 9 21 63 15 21 64 16 21 65 16 22 66 15 22 67 17 22 68 16 23 69 17 23 70 18 23 71 16 24 72 18 24 73 19 24 74 9 25 75 16 25 76 20 25 77 20 26 78 16 26 79 19 26 80 9 27 81 20 27 82 11 27 83 20 28 84 19 28 85 21 28 86 11 29 87 20 29 88 22 29 89 20 30 90 21 30 91 13 30 92 20 31 93 13 31 94 22 31 95 15 32 96 0 32 97 23 32 98 15 33 99 23 33 100 17 33 101 0 34 102 15 34 103 24 34 104 24 35 105 15 35 106 5 35 107 23 36 108 0 36 109 25 36 110 23 37 111 25 37 112 26 37 113 25 38 114 0 38 115 24 38 116 24 39 117 5 39 118 12 39 119 24 40 120 12 40 121 13 40 122 24 41 123 13 41 124 27 41 125 24 42 126 27 42 127 25 42 128 27 43 129 13 43 130 21 43 131 27 44 132 21 44 133 28 44 134 27 45 135 28 45 136 25 45 137 25 46 138 28 46 139 29 46 140 30 47 141 31 47 142 32 47 143 30 48 144 32 48 145 33 48 146 30 49 147 33 49 148 34 49 149 33 50 150 32 50 151 35 50 152 35 51 153 32 51 154 31 51 155 34 52 156 17 52 157 23 52 158 34 53 159 23 53 160 36 53 161 36 54 162 23 54 163 26 54 164 34 55 165 36 55 166 37 55 167 34 56 168 37 56 169 31 56 170 34 57 171 31 57 172 30 57 173 25 58 174 29 58 175 26 58 176 26 59 177 29 59 178 38 59 179 26 60 180 38 60 181 39 60 182 26 61 183 39 61 184 36 61 185 17 62 186 40 62 187 18 62 188 40 63 189 17 63 190 34 63 191 18 64 192 40 64 193 41 64 194 41 65 195 40 65 196 42 65 197 41 66 198 42 66 199 43 66 200 18 67 201 41 67 202 44 67 203 44 68 204 41 68 205 19 68 206 44 69 207 19 69 208 18 69 209 14 70 210 22 70 211 13 70 212 22 71 213 14 71 214 11 71 215 45 72 216 29 72 217 28 72 218 28 73 219 21 73 220 45 73 221 45 74 222 21 74 223 19 74 224 45 75 225 19 75 226 46 75 227 45 76 228 46 76 229 47 76 230 45 77 231 47 77 232 29 77 233 29 78 234 47 78 235 38 78 236 38 79 237 47 79 238 48 79 239 46 80 240 19 80 241 49 80 242 46 81 243 49 81 244 50 81 245 49 82 246 19 82 247 51 82 248 51 83 249 19 83 250 41 83 251 51 84 252 41 84 253 43 84 254 51 85 255 43 85 256 49 85 257 49 86 258 43 86 259 52 86 260 52 87 261 43 87 262 53 87 263 52 88 264 53 88 265 49 88 266 37 89 267 35 89 268 31 89 269 35 90 270 37 90 271 33 90 272 33 91 273 37 91 274 54 91 275 54 92 276 37 92 277 36 92 278 54 93 279 36 93 280 55 93 281 33 94 282 54 94 283 56 94 284 33 95 285 56 95 286 34 95 287 42 96 288 40 96 289 56 96 290 54 97 291 57 97 292 56 97 293 56 98 294 57 98 295 58 98 296 56 99 297 58 99 298 42 99 299 42 100 300 58 100 301 59 100 302 42 101 303 59 101 304 60 101 305 42 102 306 60 102 307 43 102 308 39 103 309 61 103 310 55 103 311 61 104 312 39 104 313 38 104 314 39 105 315 55 105 316 36 105 317 55 106 318 61 106 319 62 106 320 55 107 321 62 107 322 63 107 323 55 108 324 63 108 325 64 108 326 55 109 327 64 109 328 54 109 329 56 110 330 40 110 331 34 110 332 47 111 333 46 111 334 65 111 335 65 112 336 46 112 337 66 112 338 65 113 339 66 113 340 67 113 341 66 114 342 46 114 343 68 114 344 66 115 345 68 115 346 67 115 347 48 116 348 47 116 349 69 116 350 69 117 351 47 117 352 65 117 353 48 118 354 69 118 355 70 118 356 70 119 357 69 119 358 65 119 359 48 120 360 70 120 361 71 120 362 71 121 363 70 121 364 72 121 365 71 122 366 72 122 367 73 122 368 73 123 369 72 123 370 70 123 371 73 124 372 70 124 373 65 124 374 73 125 375 65 125 376 74 125 377 73 126 378 74 126 379 75 126 380 74 127 381 65 127 382 76 127 383 74 128 384 76 128 385 75 128 386 76 129 387 65 129 388 67 129 389 73 130 390 75 130 391 50 130 392 50 131 393 75 131 394 76 131 395 50 132 396 76 132 397 77 132 398 73 133 399 50 133 400 78 133 401 78 134 402 50 134 403 79 134 404 78 135 405 79 135 406 80 135 407 60 136 408 53 136 409 43 136 410 53 137 411 60 137 412 81 137 413 81 138 414 60 138 415 82 138 416 53 139 417 81 139 418 79 139 419 53 140 420 79 140 421 49 140 422 49 141 423 79 141 424 50 141 425 67 142 426 68 142 427 77 142 428 67 143 429 77 143 430 76 143 431 77 144 432 68 144 433 46 144 434 77 145 435 46 145 436 50 145 437 83 146 438 62 146 439 84 146 440 62 147 441 83 147 442 64 147 443 62 148 444 64 148 445 63 148 446 64 149 447 83 149 448 85 149 449 85 150 450 83 150 451 86 150 452 64 151 453 85 151 454 54 151 455 85 152 456 86 152 457 87 152 458 54 153 459 85 153 460 57 153 461 57 154 462 85 154 463 87 154 464 88 155 465 89 155 466 90 155 467 89 156 468 88 156 469 91 156 470 89 157 471 91 157 472 92 157 473 90 158 474 89 158 475 93 158 476 93 159 477 89 159 478 92 159 479 90 160 480 93 160 481 94 160 482 93 161 483 92 161 484 95 161 485 93 162 486 95 162 487 94 162 488 88 163 489 90 163 490 96 163 491 88 164 492 96 164 493 91 164 494 96 165 495 90 165 496 94 165 497 96 166 498 94 166 499 95 166 500 92 167 501 62 167 502 97 167 503 62 168 504 92 168 505 84 168 506 97 169 507 62 169 508 98 169 509 97 170 510 98 170 511 99 170 512 98 171 513 62 171 514 61 171 515 98 172 516 61 172 517 100 172 518 98 173 519 100 173 520 101 173 521 98 174 522 101 174 523 102 174 524 102 175 525 101 175 526 103 175 527 98 176 528 102 176 529 104 176 530 105 177 531 86 177 532 83 177 533 86 178 534 105 178 535 106 178 536 106 179 537 105 179 538 107 179 539 105 180 540 83 180 541 108 180 542 107 181 543 105 181 544 109 181 545 105 182 546 108 182 547 110 182 548 105 183 549 110 183 550 109 183 551 109 184 552 110 184 553 111 184 554 110 185 555 108 185 556 112 185 557 110 186 558 112 186 559 113 186 560 114 187 561 87 187 562 86 187 563 87 188 564 114 188 565 115 188 566 114 189 567 86 189 568 106 189 569 115 190 570 114 190 571 116 190 572 115 191 573 116 191 574 117 191 575 116 192 576 114 192 577 118 192 578 118 193 579 114 193 580 106 193 581 118 194 582 106 194 583 119 194 584 87 195 585 120 195 586 57 195 587 57 196 588 120 196 589 58 196 590 58 197 591 120 197 592 59 197 593 59 198 594 120 198 595 121 198 596 122 199 597 123 199 598 124 199 599 123 200 600 122 200 601 125 200 602 126 201 603 122 201 604 124 201 605 122 202 606 126 202 607 127 202 608 127 203 609 126 203 610 128 203 611 128 204 612 126 204 613 124 204 614 128 205 615 124 205 616 129 205 617 129 206 618 124 206 619 125 206 620 125 207 621 124 207 622 123 207 623 130 208 624 127 208 625 128 208 626 130 209 627 128 209 628 129 209 629 127 210 630 130 210 631 131 210 632 127 211 633 131 211 634 122 211 635 38 212 636 100 212 637 61 212 638 100 213 639 38 213 640 48 213 641 100 214 642 48 214 643 101 214 644 101 215 645 48 215 646 71 215 647 101 216 648 71 216 649 132 216 650 132 217 651 71 217 652 78 217 653 132 218 654 78 218 655 133 218 656 78 219 657 71 219 658 73 219 659 101 220 660 134 220 661 103 220 662 103 221 663 134 221 664 135 221 665 134 222 666 101 222 667 132 222 668 135 223 669 134 223 670 136 223 671 136 224 672 134 224 673 132 224 674 135 225 675 136 225 676 137 225 677 137 226 678 136 226 679 132 226 680 135 227 681 137 227 682 102 227 683 137 228 684 132 228 685 138 228 686 137 229 687 138 229 688 139 229 689 137 230 690 139 230 691 140 230 692 140 231 693 139 231 694 138 231 695 140 232 696 138 232 697 141 232 698 141 233 699 138 233 700 142 233 701 142 234 702 138 234 703 143 234 704 138 235 705 132 235 706 144 235 707 144 236 708 132 236 709 133 236 710 143 237 711 138 237 712 145 237 713 145 238 714 138 238 715 144 238 716 145 239 717 144 239 718 133 239 719 143 240 720 145 240 721 146 240 722 147 241 723 148 241 724 146 241 725 147 242 726 146 242 727 145 242 728 147 243 729 145 243 730 149 243 731 149 244 732 145 244 733 150 244 734 145 245 735 133 245 736 151 245 737 145 246 738 151 246 739 150 246 740 150 247 741 151 247 742 133 247 743 150 248 744 133 248 745 78 248 746 150 249 747 78 249 748 149 249 749 149 250 750 78 250 751 80 250 752 149 251 753 80 251 754 152 251 755 149 252 756 152 252 757 147 252 758 152 253 759 80 253 760 153 253 761 153 254 762 80 254 763 79 254 764 153 255 765 79 255 766 81 255 767 153 256 768 81 256 769 154 256 770 153 257 771 154 257 772 155 257 773 153 258 774 155 258 775 152 258 776 155 259 777 154 259 778 156 259 779 157 260 780 147 260 781 152 260 782 157 261 783 152 261 784 155 261 785 157 262 786 155 262 787 156 262 788 147 263 789 157 263 790 148 263 791 148 264 792 157 264 793 156 264 794 82 265 795 60 265 796 59 265 797 82 266 798 59 266 799 158 266 800 158 267 801 59 267 802 121 267 803 82 268 804 158 268 805 156 268 806 82 269 807 156 269 808 154 269 809 82 270 810 154 270 811 81 270 812 113 271 813 112 271 814 111 271 815 113 272 816 111 272 817 110 272 818 111 273 819 112 273 820 108 273 821 111 274 822 108 274 823 83 274 824 111 275 825 83 275 826 159 275 827 159 276 828 83 276 829 84 276 830 111 277 831 159 277 832 109 277 833 109 278 834 159 278 835 107 278 836 159 279 837 160 279 838 107 279 839 160 280 840 159 280 841 161 280 842 107 281 843 160 281 844 162 281 845 107 282 846 162 282 847 119 282 848 107 283 849 119 283 850 106 283 851 160 284 852 161 284 853 163 284 854 160 285 855 163 285 856 164 285 857 163 286 858 161 286 859 165 286 860 165 287 861 161 287 862 166 287 863 164 288 864 163 288 865 167 288 866 167 289 867 163 289 868 165 289 869 164 290 870 167 290 871 168 290 872 164 291 873 168 291 874 169 291 875 169 292 876 168 292 877 170 292 878 170 293 879 168 293 880 171 293 881 171 294 882 168 294 883 167 294 884 170 295 885 171 295 886 172 295 887 171 296 888 167 296 889 173 296 890 173 297 891 167 297 892 165 297 893 173 298 894 165 298 895 174 298 896 174 299 897 165 299 898 175 299 899 175 300 900 165 300 901 176 300 902 166 301 903 96 301 904 95 301 905 166 302 906 95 302 907 177 302 908 166 303 909 177 303 910 176 303 911 166 304 912 176 304 913 165 304 914 96 305 915 166 305 916 91 305 917 91 306 918 166 306 919 84 306 920 91 307 921 84 307 922 92 307 923 84 308 924 166 308 925 159 308 926 159 309 927 166 309 928 161 309 929 115 310 930 178 310 931 87 310 932 178 311 933 115 311 934 118 311 935 178 312 936 118 312 937 179 312 938 87 313 939 178 313 940 120 313 941 178 314 942 179 314 943 180 314 944 178 315 945 180 315 946 120 315 947 120 316 948 180 316 949 125 316 950 125 317 951 180 317 952 181 317 953 125 318 954 181 318 955 129 318 956 129 319 957 181 319 958 130 319 959 118 320 960 117 320 961 116 320 962 117 321 963 118 321 964 115 321 965 118 322 966 119 322 967 179 322 968 179 323 969 119 323 970 182 323 971 179 324 972 182 324 973 183 324 974 179 325 975 183 325 976 184 325 977 179 326 978 184 326 979 180 326 980 180 327 981 184 327 982 181 327 983 184 328 984 183 328 985 185 328 986 185 329 987 183 329 988 186 329 989 184 330 990 185 330 991 187 330 992 184 331 993 187 331 994 181 331 995 181 332 996 187 332 997 188 332 998 188 333 999 187 333 1000 189 333 1001 189 334 1002 187 334 1003 190 334 1004 189 335 1005 190 335 1006 191 335 1007 189 336 1008 191 336 1009 192 336 1010 189 337 1011 192 337 1012 188 337 1013 188 338 1014 192 338 1015 193 338 1016 120 339 1017 131 339 1018 121 339 1019 131 340 1020 120 340 1021 125 340 1022 131 341 1023 125 341 1024 122 341 1025 130 342 1026 181 342 1027 131 342 1028 131 343 1029 181 343 1030 194 343 1031 131 344 1032 194 344 1033 121 344 1034 194 345 1035 181 345 1036 188 345 1037 194 346 1038 188 346 1039 193 346 1040 121 347 1041 194 347 1042 195 347 1043 195 348 1044 194 348 1045 193 348 1046 121 349 1047 195 349 1048 158 349 1049 195 350 1050 193 350 1051 148 350 1052 158 351 1053 195 351 1054 156 351 1055 156 352 1056 195 352 1057 148 352 1058 162 353 1059 160 353 1060 196 353 1061 162 354 1062 196 354 1063 182 354 1064 162 355 1065 182 355 1066 119 355 1067 196 356 1068 160 356 1069 197 356 1070 197 357 1071 160 357 1072 164 357 1073 182 358 1074 196 358 1075 186 358 1076 182 359 1077 186 359 1078 183 359 1079 186 360 1080 196 360 1081 197 360 1082 197 361 1083 164 361 1084 169 361 1085 186 362 1086 197 362 1087 198 362 1088 186 363 1089 198 363 1090 185 363 1091 197 364 1092 169 364 1093 199 364 1094 197 365 1095 199 365 1096 198 365 1097 199 366 1098 169 366 1099 200 366 1100 198 367 1101 199 367 1102 201 367 1103 201 368 1104 199 368 1105 200 368 1106 198 369 1107 201 369 1108 202 369 1109 201 370 1110 200 370 1111 203 370 1112 201 371 1113 203 371 1114 202 371 1115 202 372 1116 203 372 1117 204 372 1118 204 373 1119 203 373 1120 205 373 1121 204 374 1122 205 374 1123 206 374 1124 169 375 1125 170 375 1126 172 375 1127 169 376 1128 172 376 1129 207 376 1130 208 377 1131 209 377 1132 206 377 1133 208 378 1134 206 378 1135 205 378 1136 206 379 1137 209 379 1138 204 379 1139 204 380 1140 209 380 1141 202 380 1142 209 381 1143 208 381 1144 210 381 1145 210 382 1146 208 382 1147 205 382 1148 202 383 1149 209 383 1150 211 383 1151 202 384 1152 211 384 1153 212 384 1154 202 385 1155 212 385 1156 213 385 1157 213 386 1158 212 386 1159 214 386 1160 214 387 1161 212 387 1162 211 387 1163 211 388 1164 209 388 1165 215 388 1166 215 389 1167 209 389 1168 210 389 1169 211 390 1170 215 390 1171 207 390 1172 207 391 1173 215 391 1174 169 391 1175 169 392 1176 215 392 1177 210 392 1178 169 393 1179 210 393 1180 216 393 1181 216 394 1182 210 394 1183 205 394 1184 169 395 1185 216 395 1186 200 395 1187 216 396 1188 205 396 1189 203 396 1190 216 397 1191 203 397 1192 200 397 1193 217 398 1194 187 398 1195 218 398 1196 218 399 1197 187 399 1198 185 399 1199 187 400 1200 217 400 1201 190 400 1202 218 401 1203 185 401 1204 198 401 1205 218 402 1206 198 402 1207 219 402 1208 218 403 1209 219 403 1210 217 403 1211 219 404 1212 198 404 1213 202 404 1214 190 405 1215 217 405 1216 220 405 1217 220 406 1218 217 406 1219 219 406 1220 190 407 1221 220 407 1222 192 407 1223 190 408 1224 192 408 1225 191 408 1226 220 409 1227 219 409 1228 221 409 1229 219 410 1230 202 410 1231 213 410 1232 221 411 1233 219 411 1234 222 411 1235 222 412 1236 219 412 1237 213 412 1238 222 413 1239 213 413 1240 223 413 1241 97 414 1242 99 414 1243 92 414 1244 177 415 1245 95 415 1246 92 415 1247 177 416 1248 92 416 1249 224 416 1250 224 417 1251 92 417 1252 99 417 1253 177 418 1254 224 418 1255 176 418 1256 176 419 1257 224 419 1258 141 419 1259 176 420 1260 141 420 1261 225 420 1262 141 421 1263 224 421 1264 140 421 1265 224 422 1266 99 422 1267 104 422 1268 224 423 1269 104 423 1270 140 423 1271 104 424 1272 99 424 1273 98 424 1274 140 425 1275 104 425 1276 137 425 1277 137 426 1278 104 426 1279 102 426 1280 103 427 1281 135 427 1282 102 427 1283 175 428 1284 226 428 1285 174 428 1286 226 429 1287 175 429 1288 225 429 1289 226 430 1290 225 430 1291 174 430 1292 225 431 1293 175 431 1294 176 431 1295 174 432 1296 225 432 1297 227 432 1298 174 433 1299 227 433 1300 173 433 1301 173 434 1302 227 434 1303 171 434 1304 227 435 1305 225 435 1306 228 435 1307 228 436 1308 225 436 1309 141 436 1310 171 437 1311 227 437 1312 229 437 1313 229 438 1314 227 438 1315 228 438 1316 171 439 1317 229 439 1318 172 439 1319 172 440 1320 229 440 1321 230 440 1322 230 441 1323 229 441 1324 231 441 1325 231 442 1326 229 442 1327 232 442 1328 232 443 1329 229 443 1330 228 443 1331 228 444 1332 141 444 1333 142 444 1334 232 445 1335 228 445 1336 233 445 1337 233 446 1338 228 446 1339 142 446 1340 232 447 1341 233 447 1342 234 447 1343 234 448 1344 233 448 1345 142 448 1346 234 449 1347 142 449 1348 235 449 1349 193 450 1350 236 450 1351 148 450 1352 148 451 1353 236 451 1354 146 451 1355 236 452 1356 193 452 1357 237 452 1358 237 453 1359 193 453 1360 192 453 1361 237 454 1362 192 454 1363 220 454 1364 237 455 1365 220 455 1366 238 455 1367 237 456 1368 238 456 1369 236 456 1370 238 457 1371 220 457 1372 221 457 1373 146 458 1374 236 458 1375 239 458 1376 238 459 1377 221 459 1378 240 459 1379 236 460 1380 238 460 1381 241 460 1382 236 461 1383 241 461 1384 239 461 1385 241 462 1386 238 462 1387 240 462 1388 240 463 1389 221 463 1390 222 463 1391 240 464 1392 222 464 1393 223 464 1394 240 465 1395 223 465 1396 242 465 1397 240 466 1398 242 466 1399 241 466 1400 243 467 1401 146 467 1402 239 467 1403 243 468 1404 239 468 1405 241 468 1406 146 469 1407 243 469 1408 143 469 1409 241 470 1410 242 470 1411 244 470 1412 241 471 1413 244 471 1414 243 471 1415 244 472 1416 242 472 1417 234 472 1418 244 473 1419 234 473 1420 235 473 1421 244 474 1422 235 474 1423 243 474 1424 243 475 1425 235 475 1426 143 475 1427 143 476 1428 235 476 1429 142 476 1430 230 477 1431 245 477 1432 172 477 1433 172 478 1434 245 478 1435 246 478 1436 172 479 1437 246 479 1438 207 479 1439 207 480 1440 246 480 1441 214 480 1442 207 481 1443 214 481 1444 211 481 1445 247 482 1446 246 482 1447 245 482 1448 247 483 1449 245 483 1450 231 483 1451 231 484 1452 245 484 1453 230 484 1454 247 485 1455 231 485 1456 232 485 1457 246 486 1458 247 486 1459 248 486 1460 248 487 1461 247 487 1462 232 487 1463 246 488 1464 248 488 1465 214 488 1466 248 489 1467 232 489 1468 242 489 1469 242 490 1470 232 490 1471 234 490 1472 248 491 1473 242 491 1474 223 491 1475 214 492 1476 248 492 1477 249 492 1478 249 493 1479 248 493 1480 223 493 1481 214 494 1482 249 494 1483 213 494 1484 213 495 1485 249 495 1486 223 495 1487</p>
        </polylist>
      </mesh>
    </geometry>
  </library_geometries>
  <library_visual_scenes>
    <visual_scene id="Scene" name="Scene">
      <node id="Rockfish" name="Rockfish" type="NODE">
        <scale sid="scale">1 1 1</scale>
        <translate sid="location">0 0 0</translate>
        <rotate sid="rotationX">1 0 0 0</rotate>
        <rotate sid="rotationY">0 1 0 90</rotate>
        <rotate sid="rotationZ">0 0 1 0</rotate>
        <instance_geometry url="#Rockfish-mesh" name="Rockfish">
          <bind_material>
            <technique_common>
            </technique_common>
          </bind_material>
        </instance_geometry>
      </node>
    </visual_scene>
  </library_visual_scenes>
  <scene>
    <instance_visual_scene url="#Scene"/>
  </scene>
</COLLADA>
