<?xml version="1.0" encoding="utf-8"?>
<COLLADA xmlns="http://www.collada.org/2005/11/COLLADASchema" version="1.4.1" xmlns:xsi="http://www.w3.org/2001/XMLSchema-instance">
  <asset>
    <contributor>
      <author>Blockbench user</author>
      <authoring_tool>Blockbench</authoring_tool>
    </contributor>
    <created>2025-09-30T11:30:55.007Z</created>
    <modified>2025-09-30T11:30:55.007Z</modified>
    <unit name="meter" meter="1.0"/>
    <up_axis>Y_UP</up_axis>
  </asset>
  <library_effects>
  </library_effects>
  <library_images>
  </library_images>
  <library_materials>
  </library_materials>
  <library_geometries>
    <geometry id="Rocks-mesh" name="Rocks">
      <mesh>
        <source id="Rocks-mesh-positions">
          <float_array id="Rocks-mesh-positions-array" count="756">-0.158563 -0.019205 -0.180926 -0.121402 -0.057085 -0.174544 -0.158803 -0.047415 -0.160352 -0.139594 -0.069858 -0.137867 -0.184976 -0.024275 -0.143666 -0.111974 -0.029945 -0.198756 -0.163342 0.01133 -0.182058 -0.139994 -0.003463 -0.195851 -0.069393 -0.008693 -0.211084 -0.127897 0.025694 -0.193964 -0.059663 0.050137 -0.189378 0.015065 0.03976 -0.195599 -0.034222 0.089305 -0.164023 -0.073659 0.084838 -0.163119 -0.114147 0.06735 -0.172452 -0.105554 0.102707 -0.142385 -0.143539 0.064048 -0.160615 -0.187 0.011061 -0.140853 -0.150159 0.089376 -0.121868 -0.168477 0.061624 -0.115401 -0.195324 -0.051005 -0.089863 -0.208462 -0.027477 -0.082904 -0.194009 0.022976 -0.094283 -0.162222 -0.079386 -0.079541 -0.10305 -0.086956 -0.1183 -0.070477 -0.107546 -0.073017 -0.205523 -0.014197 -0.053523 -0.192797 0.041544 -0.023846 -0.20398 -0.009761 -0.023721 -0.212166 -0.022764 -0.051599 -0.203431 -0.047451 -0.049889 -0.204563 -0.03732 0.025103 -0.201064 -0.045886 -0.02377 -0.186394 -0.068971 -0.023664 -0.191905 -0.059851 -0.003133 -0.16755 -0.081114 -0.023634 -0.167379 -0.075761 0.021209 -0.145939 -0.092141 -0.023508 -0.139971 -0.090847 0.006816 -0.072904 -0.111924 -0.044514 -0.099443 -0.10346 -0.016711 -0.024746 -0.116064 -0.060025 -0.059689 -0.116533 -0.023701 -0.088872 -0.077817 -0.153501 -0.052202 -0.096014 -0.115349 -0.026499 -0.075787 -0.165521 -0.068959 -0.047668 -0.195553 -0.024761 -0.058145 -0.186964 0.022857 -0.070425 -0.164252 -0.024902 -0.034443 -0.204153 0.046909 -0.036438 -0.195576 0.014691 -0.008921 -0.207813 -0.024825 0.016638 -0.207173 0.070189 0.005864 -0.198893 0.081532 -0.030872 -0.187365 0.116989 0.006456 -0.176283 0.006224 -0.096555 -0.117184 0.073105 -0.086043 -0.117328 0.01068 -0.109593 -0.077134 -0.117246 0.107041 -0.125836 -0.07156 0.124086 -0.102969 -0.079204 0.114726 -0.126705 -0.02516 0.119494 -0.13876 -0.067678 0.13232 -0.055528 -0.148615 0.107014 -0.063796 -0.024859 0.104621 -0.149796 0.023218 0.075456 -0.16822 0.004715 0.108158 -0.150173 0.058161 0.111092 -0.139949 0.022812 0.124821 -0.119272 -0.011694 0.126887 -0.129931 -0.024996 0.139296 -0.097628 -0.057914 0.123022 -0.123927 -0.043523 0.137328 -0.071936 -0.025008 0.137727 -0.063416 -0.026451 0.130485 -0.043962 -0.172993 0.051072 -0.097766 -0.188703 0.043709 -0.062215 -0.183638 0.063459 -0.071793 -0.175646 0.084891 -0.023687 -0.180642 0.068108 0.026012 -0.157865 0.080991 0.051064 -0.172112 0.088383 -0.060934 -0.152469 0.098798 -0.023724 -0.098951 0.121701 -0.038285 -0.122522 0.097584 0.032113 -0.116371 0.110888 -0.023709 -0.090975 0.121568 -0.023788 -0.058923 0.131177 -0.032042 -0.091896 0.095191 0.031279 -0.072246 0.121311 -0.023725 -0.055407 0.124901 -0.023833 -0.080261 0.108521 -0.013774 -0.069045 0.098762 0.013821 -0.040232 0.087816 0.038649 -0.046325 0.097655 0.01716 -0.024906 0.105747 0.005115 -0.026733 0.118067 -0.021773 0.013879 0.1193 -0.023705 0.070807 0.103602 0.010447 0.025099 0.097655 0.027807 0.018953 0.135342 -0.071204 0.053558 0.115772 -0.096267 0.082001 0.119902 -0.054341 0.068543 0.120611 -0.040299 0.108745 0.105649 -0.002715 0.10336 0.108202 -0.023707 -0.129772 -0.087018 0.063084 -0.074104 -0.103433 0.041886 -0.134837 -0.061836 0.116229 -0.116371 -0.078766 0.097999 -0.169128 -0.061468 0.063295 -0.174422 -0.016406 0.123205 -0.15838 -0.018219 0.135682 -0.162016 0.001254 0.145598 -0.18668 0.007135 0.116 -0.196902 -0.017858 0.082308 -0.192454 0.001837 0.083681 -0.198251 -0.033158 0.05864 -0.196124 0.020362 0.018864 -0.081439 -0.086965 0.092121 -0.02499 -0.099879 0.060504 -0.024811 -0.06345 0.124715 -0.083177 -0.069964 0.126419 -0.09516 -0.04383 0.150218 -0.123083 -0.02324 0.149281 -0.056379 -0.061553 0.135843 -0.050358 -0.0374 0.152997 -0.067081 -0.033429 0.149715 -0.025079 -0.024246 0.155433 -0.007154 -0.038694 0.148423 -0.025027 -0.114557 0.009235 -0.004309 -0.11531 -0.004964 0.023412 -0.115727 -0.023862 -0.024822 -0.109974 0.030444 -0.000088 -0.11055 0.028242 0.033857 -0.103141 0.031908 0.05696 -0.091122 0.07213 -0.002593 -0.090288 0.084779 0.033251 -0.088241 0.095643 -0.02499 -0.091848 0.079643 0.031096 -0.071622 0.134985 0.033388 -0.048479 0.149864 0.078548 -0.048519 0.148743 0.073425 -0.06485 0.132411 0.070578 -0.074671 0.112237 0.10328 -0.07327 0.070815 0.104503 -0.061863 0.088015 0.133055 -0.02086 0.138313 -0.175794 0.016135 0.13264 -0.154698 0.011379 0.148869 -0.164383 0.034278 0.130856 -0.134128 0.009209 0.157789 -0.170889 0.063228 0.07842 -0.110065 0.050602 0.140978 -0.144419 0.056523 0.128409 -0.144419 0.067124 0.084904 -0.127828 0.081993 0.079975 -0.122397 0.066114 0.106714 -0.081079 0.058992 0.124177 -0.102976 0.071994 0.102082 -0.075631 0.067297 0.108887 -0.080994 -0.004793 0.163519 -0.086242 0.029822 0.161014 -0.081056 0.052725 0.141732 -0.075522 0.048276 0.157469 -0.02506 0.061664 0.141458 0.010068 0.057108 0.150241 -0.024793 0.007356 0.159047 -0.042166 -0.010044 0.157561 0.006375 -0.021875 0.155159 -0.011188 0.082493 0.062512 0.017684 0.063818 0.140429 -0.09101 0.062178 0.104221 0.08534 -0.066436 -0.148732 0.112267 -0.067518 -0.121662 0.116544 -0.073909 -0.085506 0.107934 -0.050119 -0.153638 0.130894 -0.045554 -0.128055 0.14179 -0.04547 -0.090926 0.133603 -0.018786 -0.151946 0.050042 -0.103105 -0.07177 0.095791 -0.093187 -0.046184 0.060636 -0.10509 -0.023763 0.090497 -0.0955 -0.024588 0.061694 -0.099134 -0.000754 0.121586 -0.080237 -0.056214 0.155054 -0.042536 -0.034278 0.129453 -0.080583 -0.023766 0.129716 -0.082019 -0.004791 0.096397 -0.078934 0.032079 0.107213 -0.074494 0.04765 0.127818 -0.078819 0.016789 0.143048 -0.066543 -0.023626 0.144146 -0.057378 -0.02411 0.156804 -0.050261 -0.024024 0.146753 -0.065072 0.002639 0.152676 -0.058304 0.029586 0.156883 -0.032662 -0.02357 0.128561 -0.032534 -0.115235 0.150606 -0.008312 -0.135237 0.155443 -0.019548 -0.080874 0.162315 -0.029923 -0.068394 0.149554 -0.008447 -0.06285 0.131854 0.023406 -0.084665 0.133764 -0.004121 -0.142396 0.14474 0.005604 -0.146091 0.124948 0.032199 -0.156967 0.139401 0.02278 -0.127689 0.126263 0.047673 -0.128398 0.109294 0.067492 -0.132012 0.129121 0.048311 0.007008 0.15024 -0.016391 -0.006956 0.135799 0.020734 0.054077 0.145392 -0.027579 0.092464 0.149154 -0.045288 0.063421 0.137125 -0.038999 0.089101 0.149783 -0.039855 0.077311 0.143734 -0.014901 0.126773 0.126766 0.024623 0.127311 0.128195 0.012359 0.139091 0.12353 0.052123 0.08917 0.114783 0.054201 0.110682 0.053335 0.056869 -0.175871 0.086266 0.035913 -0.177118 0.066422 0.050053 -0.168552 0.088027 0.048794 -0.163211 0.107053 0.060663 -0.144501 0.071013 0.061633 -0.168129 0.077095 0.093551 -0.144524 0.041347 0.08591 -0.165967 0.069149 0.108778 -0.111969 0.099735 0.105472 -0.080925 0.101874 0.08677 -0.112576 0.131408 0.037269 -0.085151 0.114611 0.084722 -0.023687 0.11468 0.094934 0.016877 0.115903 0.080034 0.054924 0.092646 0.09941 0.009786 0.108928 0.07472 0.080959 0.019928 0.085352 0.059298 0.101233 0.068179 0.110442 0.094933 0.059537 0.112752 0.012915 -0.027494 0.149052 0.033726 -0.013446 0.152894 -0.000457 0.019625 0.157686 0.059739 0.044983 0.147874 0.109717 0.020946 0.142064 0.112782 -0.020754 0.143048 0.110918 0.024151 0.129713 0.080091 0.064394 0.140086 0.106459 0.046073 0.138645</float_array>
          <technique_common>
            <accessor source="#Rocks-mesh-positions-array" count="252" stride="3">
              <param name="X" type="float"/>
              <param name="Y" type="float"/>
              <param name="Z" type="float"/>
            </accessor>
          </technique_common>
        </source>
        <source id="Rocks-mesh-normals">
          <float_array id="Rocks-mesh-normals-array" count="1500">-0.417144 -0.533211 -0.735987 -0.383352 -0.796531 -0.467526 -0.718707 -0.405707 -0.564678 -0.407069 -0.52523 -0.747281 -0.797495 -0.146525 -0.585262 -0.403 -0.332888 -0.852512 -0.559413 -0.11798 -0.82045 -0.218079 -0.124569 -0.967948 -0.198404 0.14506 -0.969326 -0.389391 0.21946 -0.894546 -0.064415 0.3548 -0.932721 0.005123 0.541062 -0.840967 -0.084211 0.579457 -0.81064 -0.066325 0.584944 -0.808358 -0.115744 0.485651 -0.866456 -0.113575 0.659498 -0.743077 -0.447232 0.476008 -0.757232 -0.368752 0.519699 -0.770672 -0.344355 0.655359 -0.672253 -0.768269 0.466777 -0.438044 -0.459141 0.705634 -0.539695 -0.799889 0.430547 -0.418099 -0.736777 -0.538297 -0.409141 -0.538398 -0.780112 -0.318673 -0.867159 -0.010027 -0.49793 -0.932028 -0.024601 -0.361549 -0.85783 -0.375086 -0.351338 -0.86513 0.439011 -0.242528 -0.952696 0.227453 -0.201581 -0.549614 -0.763975 -0.338032 -0.289859 -0.920284 -0.262792 -0.270514 -0.93473 -0.230437 -0.962535 0.269934 -0.025726 -0.967873 0.246739 -0.048388 -0.976875 0.212978 0.018884 -0.796447 0.57695 -0.181109 -0.99662 -0.056149 0.059968 0.135328 0.116043 0.983982 -0.939669 -0.336692 -0.060506 -0.881563 -0.451242 -0.138665 -0.999885 -0.004506 -0.014483 -0.576684 -0.810722 0.100822 -0.726872 -0.68126 -0.086841 -0.839292 -0.532852 0.107973 -0.843968 -0.536267 0.01168 -0.622894 -0.772167 -0.12554 -0.539975 -0.838117 -0.077377 -0.538976 -0.836137 0.101881 -0.453018 -0.888697 -0.070653 -0.451415 -0.883296 0.126541 -0.293929 -0.946927 -0.130136 -0.236812 -0.967571 0.087898 -0.278207 -0.945547 -0.168944 -0.288693 -0.95729 0.015888 -0.1361 -0.977403 -0.161739 -0.314105 -0.949327 -0.010792 -0.128267 -0.982357 -0.136099 -0.268457 -0.86057 -0.43284 -0.24603 -0.90946 -0.335187 -0.149898 -0.940625 -0.304558 -0.148252 -0.936088 -0.319001 -0.045988 -0.918095 -0.393684 -0.094325 -0.778206 -0.620885 -0.098898 -0.792319 -0.602038 -0.196044 -0.613976 -0.764592 -0.058379 -0.768574 -0.637091 0.100041 -0.772309 -0.62732 -0.083422 -0.369685 -0.925405 0.229011 -0.570599 -0.788651 0.018169 -0.586929 -0.809435 -0.069801 -0.369941 -0.926429 0.06537 -0.700886 -0.710272 0.037557 -0.198695 -0.979342 0.10499 -0.29888 -0.948498 0.03896 0.085181 -0.995604 -0.12438 0.361512 -0.924034 -0.009835 0.461115 -0.887286 0.114745 0.279246 -0.953339 0.106515 0.189137 -0.976157 0.204456 -0.187837 -0.960685 0.25804 -0.215839 -0.941716 0.431847 -0.145964 -0.890058 -0.020577 -0.923571 -0.382874 0.107793 -0.884888 -0.453159 0.138285 -0.885837 -0.44291 0.146388 -0.935728 -0.320909 0.02292 -0.949879 -0.311778 -0.019166 -0.943002 -0.332234 -0.09212 -0.94994 -0.298542 -0.775812 0.486474 -0.401821 -0.453432 0.729896 -0.511519 -0.164385 0.919536 -0.356975 -0.253421 0.92499 -0.283146 0.022929 0.774478 -0.632185 -0.207916 0.740314 -0.639301 -0.153719 0.935121 -0.319247 -0.091388 0.655068 -0.750023 -0.283092 0.9486 -0.141482 -0.282112 0.948779 -0.142237 0.230564 0.582838 -0.779192 0.099778 0.643755 -0.758699 -0.065569 0.453432 -0.888876 -0.081125 0.592861 -0.801208 0.047147 0.867408 -0.49536 0.220761 0.79859 -0.559927 0.028053 0.744964 -0.666515 0.149195 0.942057 -0.300448 -0.136844 0.852281 -0.504868 -0.127946 0.907044 -0.401124 -0.11925 -0.992489 -0.027282 -0.327864 0.930169 -0.165198 -0.230388 0.952666 -0.198367 -0.291525 0.946207 -0.140376 -0.042562 0.998046 0.045747 -0.094885 0.982517 0.160178 -0.055008 0.937082 0.344749 -0.780562 0.603872 0.161437 -0.792309 0.56372 -0.23338 -0.929657 0.359886 -0.078872 -0.937744 -0.134097 -0.320396 -0.917081 0.042975 -0.396377 -0.974373 0.205094 -0.092376 -0.825614 0.473424 -0.30697 -0.929806 0.36793 -0.009436 -0.929459 0.367646 0.030706 -0.633158 0.750404 0.189752 -0.899226 0.435216 -0.044493 -0.816236 0.502014 -0.285903 -0.514221 0.857076 0.031581 -0.610356 0.785484 0.102369 -0.622898 0.752986 -0.212156 -0.481323 0.842184 -0.243011 -0.352657 0.922776 0.155299 -0.301828 0.952556 0.039199 -0.507288 0.845874 0.164793 -0.328495 0.923888 0.19627 -0.302255 0.902093 0.308009 -0.312013 0.931374 0.187593 -0.245993 0.958496 0.144126 -0.37794 0.900237 0.216181 -0.38128 0.907868 0.174358 -0.250999 0.957779 0.140208 0.081951 0.898302 0.431668 0.006165 0.639686 0.768611 -0.156045 0.751344 0.641196 0.562527 0.741944 0.364805 0.005706 0.611826 0.790972 0.08252 0.949634 0.302301 -0.538919 0.701057 0.466997 -0.175174 0.837353 0.517836 0.090497 0.945778 0.311953 -0.017557 0.907198 0.420337 -0.041882 0.827788 0.559475 -0.002973 0.832514 0.553996 0.935683 0.072546 -0.345303 -0.023059 0.971405 0.236304 0.170033 0.859019 0.482882 0.18537 0.898056 0.398916 -0.003246 0.872661 0.488316 -0.007737 0.908875 0.416997 0.081207 0.932092 0.353 -0.003196 0.906577 0.422028 0.002736 0.943792 0.33053 0.109092 0.938176 0.328518 0.062183 0.997016 0.045736 0.20286 0.959838 -0.193802 0.39113 0.90511 -0.16671 0.300708 0.907465 -0.293397 0.072621 0.946624 0.314053 0.076469 0.942143 0.326373 0.199411 0.969548 0.142168 0.058139 0.94733 0.314936 0.248105 0.949953 0.189826 0.321745 0.946267 0.032537 -0.435078 -0.893847 0.108373 -0.421291 -0.896462 0.137369 -0.237314 -0.965331 0.108709 -0.243934 -0.963991 0.105916 -0.289901 -0.948755 0.125786 -0.414826 -0.836934 0.357017 -0.525705 -0.811901 0.253873 -0.513329 -0.793442 0.327022 -0.643838 -0.748331 0.159603 -0.652127 -0.632423 0.418056 -0.544041 -0.568772 0.616862 -0.578589 -0.453289 0.678059 -0.770624 -0.217964 0.598857 -0.834073 -0.290812 0.468775 -0.685121 -0.609937 0.398228 -0.968041 0.208953 0.138694 -0.698959 -0.685523 0.203753 -0.68028 -0.695689 0.23073 -0.663 -0.610888 0.432721 -0.709715 -0.670319 0.216743 -0.948649 -0.238243 0.208097 -0.974696 0.216149 0.056995 -0.855246 -0.517384 0.029463 -0.980947 0.173967 0.086484 -0.987588 0.12712 0.092255 -0.976618 0.212947 0.029522 -0.169888 -0.943502 0.284505 -0.046783 -0.951201 0.305004 -0.172446 -0.941743 0.28876 0.077053 -0.867277 0.491827 -0.135875 -0.890388 0.434451 0.112138 -0.888051 0.445859 -0.232371 -0.818779 0.52498 -0.242056 -0.711617 0.659553 -0.390769 -0.542562 0.74359 -0.374617 -0.471672 0.79824 -0.04195 -0.683162 0.729061 0.11157 -0.877666 0.466106 0.033561 -0.584276 0.810861 -0.105609 0.330453 0.937895 0.239335 -0.601173 0.762437 0.23407 -0.598651 0.766047 -0.186819 -0.606704 0.772663 0.002765 -0.99837 0.057011 0.009769 -0.999291 0.03637 -0.144679 -0.966873 0.210294 -0.089207 -0.980304 0.176199 0.056303 -0.989293 0.134649 -0.003959 -0.977431 0.211216 -0.051908 -0.946776 0.317679 0.006268 -0.947937 0.318395 0.200101 -0.973114 0.114052 0.191407 -0.96515 0.178462 0.035684 -0.940267 0.338562 0.132985 -0.958669 0.251534 -0.047827 -0.940964 0.335111 -0.024478 -0.921842 0.386791 -0.999794 0.018701 -0.007827 -0.063224 -0.844254 0.532201 -0.210769 -0.861594 0.46177 -0.06422 -0.920534 0.385347 -0.228451 -0.583432 0.779369 -0.156053 -0.523182 0.837811 0.020366 -0.542107 0.840063 0.156524 -0.722517 0.673401 0.168518 -0.904662 0.391393 0.198192 -0.92864 0.313604 0.140948 -0.897832 0.417171 0.354409 -0.901239 0.249324 0.569477 -0.703122 0.425812 0.522563 -0.793295 0.312426 0.540146 -0.775905 0.325904 -0.772627 -0.187152 0.606648 -0.578921 0.160139 0.799504 -0.503598 0.39244 0.769662 -0.810511 0.533555 0.241644 -0.296415 0.509879 0.807565 -0.808018 0.467592 0.35842 -0.934564 0.337846 0.111585 -0.270405 0.341699 0.900068 -0.648746 0.629288 0.427931 -0.918369 0.339953 0.202561 -0.948218 0.287145 0.135762 -0.951845 0.297648 0.073458 -0.63176 0.752122 0.187597 -0.197044 0.952524 0.232103 -0.382569 0.847427 0.368115 -0.273851 0.563869 0.779139 -0.288182 0.919437 0.267558 -0.186544 0.954518 0.232589 -0.480431 0.707781 0.517912 -0.009298 0.918038 0.396382 -0.12927 0.840849 0.525606 0.096616 0.943173 0.317947 0.082465 0.943175 0.321901 0.08195 0.94324 0.321842 0.088922 0.943121 0.320338 -0.37435 -0.475313 0.796203 -0.295491 -0.335173 0.894619 -0.398581 -0.008192 0.917097 -0.18159 -0.306804 0.934289 -0.212539 -0.245153 0.9459 -0.302277 0.50426 0.808919 -0.26759 0.492023 0.828437 -0.091912 0.057989 0.994077 -0.067335 0.651456 0.755692 -0.074349 0.808335 0.584009 -0.014242 0.941692 0.336174 -0.44018 0.845464 0.302378 -0.752113 0.515723 0.410312 0.160639 0.095434 0.982389 -0.147997 0.936829 0.316936 -0.036411 0.82012 0.571032 0.070594 0.125689 0.989555 0.055759 0.107417 0.992649 0.121433 -0.204225 0.971363 0.0953 -0.351857 0.93119 0.19864 -0.495366 0.845669 -0.214029 -0.09803 0.971896 -0.011174 -0.161278 0.986846 0.029035 -0.113832 0.993076 0.017239 -0.113758 0.993359 -0.120269 0.909764 0.397323 -0.022844 0.924672 0.380078 -0.216989 0.862823 0.456566 -0.038703 0.964241 0.262186 -0.048353 0.967111 0.249717 -0.043268 0.971007 0.235104 -0.143903 0.913162 0.38135 -0.256945 -0.103876 0.960827 -0.386731 0.861149 0.329942 0.642504 0.739265 -0.201684 -0.106106 0.807446 0.580321 0.206638 -0.73814 -0.642223 0.172513 -0.864334 -0.472405 0.269795 -0.695037 -0.666434 0.358093 -0.848291 -0.390091 0.399856 -0.893316 -0.205189 0.344433 -0.673537 -0.653998 0.445715 -0.759565 -0.473707 0.716953 -0.667005 -0.20269 0.618381 -0.652083 -0.438626 0.711626 -0.67127 -0.207329 0.677098 -0.526982 -0.513642 0.573594 -0.432349 -0.695747 0.58197 -0.332483 -0.742136 0.191241 -0.947059 -0.257888 0.309396 -0.931312 -0.192176 0.172555 -0.981853 -0.078678 0.270993 -0.946765 -0.173777 0.112047 -0.983784 -0.140052 0.009698 -0.999946 -0.003607 0.301427 -0.947612 -0.1057 0.236201 -0.970612 -0.046068 0.266819 -0.9359 0.229996 0.303545 -0.925707 0.22567 0.232513 -0.969358 0.079262 0.40809 -0.886255 -0.219122 0.352708 -0.900257 -0.255215 0.45347 -0.891133 0.015708 0.792062 -0.554136 -0.256068 0.357709 -0.928822 -0.096617 0.787299 -0.584221 -0.197096 0.249725 -0.955658 0.156064 0.357974 -0.930683 -0.075391 0.353983 -0.915884 0.189348 0.249431 -0.919976 0.302373 0.359877 -0.930273 0.071274 0.330956 -0.942841 0.038973 0.103603 -0.973146 0.205558 0.078043 -0.985149 0.152943 0.578948 -0.554682 -0.597617 0.717287 -0.693973 -0.062459 0.71592 -0.049017 0.69646 0.397151 -0.699174 -0.594497 0.717384 -0.693886 -0.062319 0.657843 -0.734459 0.166769 0.983406 -0.12474 -0.131726 0.471124 -0.834437 -0.285932 0.616188 -0.785174 0.061755 0.938042 -0.013191 0.346271 0.98853 0.03172 0.147655 0.874743 0.410411 -0.257656 0.643218 -0.741872 -0.189464 0.806984 -0.211127 -0.551546 0.630148 -0.747385 -0.210544 0.786935 -0.186343 -0.588225 0.716226 -0.671831 -0.188849 0.709387 -0.696711 -0.106603 -0.653961 -0.653673 -0.380851 0.992765 -0.007595 0.11983 0.866745 0.480309 0.134372 0.854457 0.51799 -0.039879 0.876841 0.480685 -0.009588 0.875498 0.482725 0.021884 0.441518 0.48623 -0.754084 0.609822 -0.437155 0.661069 0.20954 -0.544902 -0.811895 0.723211 -0.169493 -0.669506 0.713476 0.265858 -0.648284 0.934893 0.350505 -0.055873 0.823197 0.514085 -0.240964 0.940351 0.299925 0.160578 0.85261 0.442045 -0.278662 0.873134 0.464983 0.146386 0.705723 0.653931 0.272635 0.947959 0.317823 0.019048 0.95215 0.289891 0.096823 0.952434 0.301872 0.041736 0.961201 0.210889 0.177817 0.920619 -0.375195 -0.10812 0.964928 0.251469 0.07535 0.99201 0.110587 0.060718 0.991965 0.110913 0.060851 0.446076 -0.795888 0.409363 0.437087 -0.823264 0.362204 0.360145 -0.92638 0.110074 0.531725 -0.836178 0.134444 0.517207 -0.729742 0.447184 0.510701 -0.748751 0.422561 0.534187 -0.777906 0.330918 0.733607 -0.615705 0.287625 0.257396 -0.903805 0.341884 0.538143 -0.571843 0.619191 0.752106 0.601489 -0.269348 0.681692 -0.674967 0.28234 0.913673 0.393626 -0.101292 0.956647 0.272224 0.103541 0.882621 0.375061 0.28339 0.960373 0.25829 0.104741 0.821219 0.493633 0.286227 0.233681 0.463109 -0.854941 0.15391 0.57898 -0.800684 0.084807 0.594143 -0.799876 0.266064 0.468236 -0.842594 0.396557 0.390041 -0.83103 0.447091 0.444296 -0.776345 0.525457 0.835339 -0.161566 0.503654 0.857915 -0.101562 0.400392 0.64646 -0.649443 0.208794 0.70417 -0.678639 0.376488 0.559934 -0.738059 0.710607 0.604457 -0.360095 0.724053 0.542167 -0.426383 0.512989 0.386153 -0.766634 0.236377 -0.058274 -0.969912 0.661167 0.601949 -0.447789 0.497396 0.452566 -0.740122 -0.032383 0.049311 -0.998258 0.058465 0.112385 -0.991943 0.359952 0.509439 -0.781605 -0.131261 0.421023 -0.897502 0.101269 0.681368 -0.724902 0.33514 0.559476 -0.758068 0.641925 0.742675 -0.190699 0.334215 0.94098 -0.053456 0.337628 0.937666 -0.082395 0.197858 0.953312 -0.228141 0.353861 0.900503 -0.252739 0.559488 0.825454 -0.074829 0.537781 0.806416 -0.245936 0.502597 0.758741 -0.414377 0.666582 0.640708 -0.381001 0.885861 0.423172 -0.1902 0.880316 0.459141 -0.119304 0.907843 0.014505 -0.419058 0.778719 0.003049 -0.627365 0.932585 0.360394 -0.020036 0.934315 0.355916 -0.019457 0.902088 0.423927 -0.080771 0.899118 0.430788 -0.077512 0.887781 0.425269 -0.176043 0.931869 0.351444 -0.090044 0.947293 0.310294 -0.079711 0.108824 0.885642 0.451437 0.956849 0.279705 0.078771 0.947032 0.317005 0.051368 0.947196 0.317115 0.047518 -0.189347 -0.981417 -0.031132 0.072428 0.929488 0.361672 0.159606 0.725982 0.668936 0.738944 0.593418 0.319087 0.266738 0.927803 0.26083 0.05943 0.947231 0.314996 0.021799 0.93 0.366912 0.767231 0.58845 0.255114 0.676663 0.661483 0.323369 0.143929 0.156311 0.977165 0.205877 -0.923952 0.322377 -0.034255 0.005238 0.999399 0.276901 -0.540855 0.794231 -0.70844 -0.695751 -0.118503 0.037977 -0.397715 0.916723 0.024287 -0.171374 0.984907 0.085258 -0.008964 0.996319 0.092723 -0.033507 0.995128 -0.050305 0.208147 0.976803 0.084353 -0.056959 0.994807 0.1542 0.016236 0.987906 0.128652 0.027901 0.991297 0.12764 0.045856 0.99076 0.126506 0.032685 0.991427 0.2263 -0.079889 0.970776 0.458881 -0.696102 0.55215 0.175084 0.036077 0.983892 0.227463 0.010481 0.97373 0.441109 0.857327 0.265356 0.708288 0.087215 0.700515 -0.048899 0.933022 0.356482 -0.062384 0.965077 0.254429 -0.007512 0.966558 0.256339 0.067193 0.976795 0.203361 0.196847 0.945042 0.261049 0.761853 -0.424649 0.489136 -0.004545 0.827097 0.56204 -0.02888 0.835423 0.548848 0.110958 0.267667 0.957101 0.088312 0.170148 0.981453 0.568809 0.805604 0.165703 0.185889 0.19174 0.963681 0.277052 0.897425 0.343322 0.187899 0.156317 0.96967 0.763623 0.522572 0.379207 0.980419 0.145238 0.132979 0.150612 -0.346604 0.925841 0.087383 0.695343 0.713345</float_array>
          <technique_common>
            <accessor source="#Rocks-mesh-normals-array" count="500" stride="3">
              <param name="X" type="float"/>
              <param name="Y" type="float"/>
              <param name="Z" type="float"/>
            </accessor>
          </technique_common>
        </source>
        <source id="Rocks-mesh-map-0">
          <float_array id="Rocks-mesh-map-0-array" count="3000">0.721191 0.301758 0.776855 0.309082 0.745605 0.330811 0.745605 0.330811 0.776855 0.309082 0.778564 0.349121 0.721191 0.301758 0.745605 0.330811 0.708008 0.341553 0.776855 0.309082 0.721191 0.301758 0.759033 0.273682 0.721191 0.301758 0.708008 0.341553 0.688232 0.287109 0.759033 0.273682 0.721191 0.301758 0.71875 0.273438 0.71875 0.273438 0.721191 0.301758 0.688232 0.287109 0.759033 0.273682 0.71875 0.273438 0.765381 0.226562 0.765381 0.226562 0.71875 0.273438 0.69873 0.243408 0.69873 0.243408 0.71875 0.273438 0.688232 0.287109 0.765381 0.226562 0.69873 0.243408 0.713135 0.176514 0.763916 0.12915 0.713135 0.176514 0.685059 0.127686 0.685059 0.127686 0.713135 0.176514 0.66748 0.159424 0.66748 0.159424 0.713135 0.176514 0.663818 0.202148 0.663818 0.202148 0.713135 0.176514 0.69873 0.243408 0.66748 0.159424 0.663818 0.202148 0.623779 0.171631 0.69873 0.243408 0.688232 0.287109 0.644043 0.230957 0.69873 0.243408 0.644043 0.230957 0.663818 0.202148 0.663818 0.202148 0.644043 0.230957 0.623779 0.171631 0.644043 0.230957 0.688232 0.287109 0.648926 0.306641 0.623779 0.171631 0.644043 0.230957 0.599365 0.212158 0.599365 0.212158 0.644043 0.230957 0.599121 0.249268 0.39502 0.657959 0.373779 0.600098 0.412842 0.585449 0.39502 0.657959 0.412842 0.585449 0.446045 0.608887 0.332275 0.595215 0.334717 0.560059 0.373779 0.600098 0.332275 0.595215 0.373779 0.600098 0.366943 0.658691 0.366943 0.658691 0.373779 0.600098 0.39502 0.657959 0.30957 0.638428 0.271973 0.601318 0.332275 0.595215 0.30957 0.638428 0.332275 0.595215 0.366943 0.658691 0.39502 0.657959 0.446045 0.608887 0.443359 0.664062 0.443359 0.664062 0.446045 0.608887 0.488281 0.615967 0.443359 0.664062 0.488281 0.615967 0.521484 0.666992 0.30957 0.638428 0.366943 0.658691 0.347656 0.683838 0.30957 0.638428 0.347656 0.683838 0.280518 0.692383 0.280518 0.692383 0.347656 0.683838 0.338867 0.709961 0.347656 0.683838 0.366943 0.658691 0.359375 0.683105 0.338867 0.709961 0.347656 0.683838 0.385254 0.697998 0.385254 0.697998 0.347656 0.683838 0.359375 0.683105 0.385254 0.697998 0.359375 0.683105 0.366943 0.658691 0.385254 0.697998 0.366943 0.658691 0.39502 0.657959 0.338867 0.709961 0.385254 0.697998 0.359619 0.752197 0.359619 0.752197 0.385254 0.697998 0.380371 0.722412 0.385254 0.697998 0.39502 0.657959 0.417236 0.714355 0.385254 0.697998 0.417236 0.714355 0.380371 0.722412 0.380371 0.722412 0.417236 0.714355 0.408203 0.72998 0.417236 0.714355 0.39502 0.657959 0.443359 0.664062 0.417236 0.714355 0.443359 0.664062 0.439941 0.717041 0.417236 0.714355 0.439941 0.717041 0.432129 0.745605 0.439941 0.717041 0.443359 0.664062 0.467529 0.7229 0.439941 0.717041 0.467529 0.7229 0.486084 0.758057 0.467529 0.7229 0.443359 0.664062 0.526855 0.700195 0.467529 0.7229 0.526855 0.700195 0.486084 0.758057 0.526855 0.700195 0.443359 0.664062 0.521484 0.666992 0.486084 0.758057 0.526855 0.700195 0.513184 0.738525 0.526855 0.700195 0.521484 0.666992 0.551025 0.667236 0.513184 0.738525 0.526855 0.700195 0.550293 0.713623 0.550293 0.713623 0.526855 0.700195 0.551025 0.667236 0.272705 0.199219 0.305908 0.226074 0.272705 0.236572 0.305908 0.226074 0.272705 0.199219 0.30249 0.189209 0.30249 0.189209 0.272705 0.199219 0.280518 0.154297 0.30249 0.189209 0.280518 0.154297 0.316895 0.142578 0.280518 0.154297 0.272705 0.199219 0.231445 0.170654 0.231445 0.170654 0.272705 0.199219 0.272705 0.236572 0.231445 0.170654 0.272705 0.236572 0.22998 0.220703 0.22998 0.220703 0.272705 0.236572 0.244629 0.256348 0.231445 0.170654 0.22998 0.220703 0.213379 0.1875 0.231445 0.170654 0.213379 0.1875 0.201172 0.145752 0.22998 0.220703 0.244629 0.256348 0.203613 0.25293 0.201172 0.145752 0.213379 0.1875 0.194336 0.20752 0.194336 0.20752 0.213379 0.1875 0.22998 0.220703 0.194336 0.20752 0.22998 0.220703 0.203613 0.25293 0.201172 0.145752 0.194336 0.20752 0.157715 0.163086 0.194336 0.20752 0.203613 0.25293 0.153564 0.206787 0.194336 0.20752 0.153564 0.206787 0.157715 0.163086 0.153564 0.206787 0.203613 0.25293 0.158936 0.24707 0.158936 0.24707 0.203613 0.25293 0.154053 0.292725 0.158936 0.24707 0.154053 0.292725 0.115967 0.234131 0.158936 0.24707 0.115967 0.234131 0.113525 0.178467 0.158936 0.24707 0.113525 0.178467 0.153564 0.206787 0.153564 0.206787 0.113525 0.178467 0.157715 0.163086 0.157715 0.163086 0.113525 0.178467 0.135254 0.145508 0.135254 0.145508 0.113525 0.178467 0.087158 0.146973 0.886719 0.737061 0.922852 0.806396 0.841797 0.794678 0.841797 0.794678 0.922852 0.806396 0.875732 0.861328 0.841797 0.794678 0.875732 0.861328 0.79126 0.858643 0.841797 0.794678 0.79126 0.858643 0.794678 0.765869 0.841797 0.794678 0.794678 0.765869 0.80542 0.715576 0.841797 0.794678 0.80542 0.715576 0.886719 0.737061 0.886719 0.737061 0.80542 0.715576 0.863037 0.680176 0.678467 0.921143 0.66333 0.968262 0.610352 0.908447 0.481934 0.978027 0.431641 0.983643 0.466064 0.965088 0.481934 0.978027 0.466064 0.965088 0.501221 0.924072 0.481934 0.978027 0.501221 0.924072 0.501709 0.950928 0.481934 0.978027 0.501709 0.950928 0.519287 0.999756 0.519287 0.999756 0.501709 0.950928 0.555176 0.943115 0.555176 0.943115 0.501709 0.950928 0.501221 0.924072 0.519287 0.999756 0.555176 0.943115 0.556396 0.988037 0.501221 0.924072 0.466064 0.965088 0.488281 0.878418 0.488281 0.878418 0.466064 0.965088 0.414551 0.921387 0.556396 0.988037 0.555176 0.943115 0.560303 0.962891 0.556396 0.988037 0.560303 0.962891 0.614746 0.992432 0.614746 0.992432 0.560303 0.962891 0.580811 0.96582 0.580811 0.96582 0.560303 0.962891 0.555176 0.943115 0.632812 0.955811 0.580811 0.96582 0.603027 0.919922 0.603027 0.919922 0.580811 0.96582 0.570312 0.932861 0.570312 0.932861 0.580811 0.96582 0.555176 0.943115 0.603027 0.919922 0.570312 0.932861 0.542725 0.881592 0.570312 0.932861 0.555176 0.943115 0.525635 0.924072 0.570312 0.932861 0.525635 0.924072 0.542725 0.881592 0.525635 0.924072 0.555176 0.943115 0.501221 0.924072 0.542725 0.881592 0.525635 0.924072 0.51709 0.883057 0.51709 0.883057 0.525635 0.924072 0.501221 0.924072 0.51709 0.883057 0.501221 0.924072 0.488281 0.878418 0.542725 0.881592 0.51709 0.883057 0.529541 0.867676 0.529541 0.867676 0.51709 0.883057 0.488281 0.878418 0.529541 0.867676 0.488281 0.878418 0.518555 0.849854 0.845703 0.242188 0.828369 0.255371 0.849854 0.202148 0.845703 0.242188 0.849854 0.202148 0.881104 0.227539 0.881104 0.227539 0.849854 0.202148 0.917969 0.223145 0.828369 0.255371 0.845703 0.242188 0.872559 0.257568 0.872559 0.257568 0.845703 0.242188 0.881104 0.227539 0.872559 0.257568 0.881104 0.227539 0.917969 0.223145 0.828369 0.255371 0.872559 0.257568 0.81665 0.29248 0.872559 0.257568 0.917969 0.223145 0.921143 0.280762 0.921143 0.280762 0.917969 0.223145 0.967529 0.25708 0.921143 0.280762 0.967529 0.25708 0.994629 0.280762 0.872559 0.257568 0.921143 0.280762 0.878662 0.29126 0.872559 0.257568 0.878662 0.29126 0.81665 0.29248 0.878662 0.29126 0.921143 0.280762 0.908447 0.321289 0.878662 0.29126 0.908447 0.321289 0.868408 0.322021 0.878662 0.29126 0.868408 0.322021 0.81665 0.29248 0.81665 0.29248 0.868408 0.322021 0.802246 0.328125 0.498535 0.10498 0.577881 0.133789 0.503418 0.160645 0.503418 0.160645 0.577881 0.133789 0.621094 0.161621 0.489502 0 0.498535 0.10498 0.459717 0.099121 0.498535 0.10498 0.489502 0 0.541748 0.031738 0.577881 0.133789 0.498535 0.10498 0.55127 0.110107 0.55127 0.110107 0.498535 0.10498 0.541748 0.031738 0.621094 0.161621 0.577881 0.133789 0.5896 0.11499 0.5896 0.11499 0.577881 0.133789 0.55127 0.110107 0.5896 0.11499 0.55127 0.110107 0.541748 0.031738 0.621094 0.161621 0.5896 0.11499 0.634521 0.130615 0.5896 0.11499 0.541748 0.031738 0.583252 0.02832 0.634521 0.130615 0.5896 0.11499 0.614746 0.112061 0.634521 0.130615 0.614746 0.112061 0.638184 0.114746 0.5896 0.11499 0.583252 0.02832 0.606934 0.090576 0.5896 0.11499 0.606934 0.090576 0.614746 0.112061 0.606934 0.090576 0.583252 0.02832 0.616943 0.048096 0.606934 0.090576 0.616943 0.048096 0.614746 0.112061 0.614746 0.112061 0.616943 0.048096 0.638184 0.114746 0.616943 0.048096 0.583252 0.02832 0.650635 0.005371 0.616943 0.048096 0.650635 0.005371 0.646973 0.041748 0.616943 0.048096 0.646973 0.041748 0.638184 0.114746 0.638184 0.114746 0.646973 0.041748 0.676758 0.061768 0.379883 0.914062 0.369629 0.908203 0.404053 0.910156 0.90918 0.509277 0.944336 0.529541 0.914551 0.558105 0.914551 0.558105 0.944336 0.529541 0.945557 0.563965 0.945557 0.563965 0.944336 0.529541 0.980469 0.572266 0.914551 0.558105 0.945557 0.563965 0.933594 0.609131 0.933594 0.609131 0.945557 0.563965 0.980469 0.572266 0.914551 0.558105 0.933594 0.609131 0.889893 0.555176 0.933594 0.609131 0.980469 0.572266 0.966064 0.681885 0.966064 0.681885 0.980469 0.572266 0.997559 0.634521 0.889893 0.555176 0.933594 0.609131 0.874023 0.604004 0.889893 0.555176 0.874023 0.604004 0.851074 0.549561 0.851074 0.549561 0.874023 0.604004 0.81665 0.603516 0.81665 0.603516 0.874023 0.604004 0.835205 0.645508 0.835205 0.645508 0.874023 0.604004 0.886475 0.681396 0.933594 0.609131 0.966064 0.681885 0.904297 0.667725 0.933594 0.609131 0.904297 0.667725 0.874023 0.604004 0.874023 0.604004 0.904297 0.667725 0.886475 0.681396 0.904297 0.667725 0.966064 0.681885 0.943359 0.722168 0.886475 0.681396 0.904297 0.667725 0.920166 0.712891 0.920166 0.712891 0.904297 0.667725 0.943359 0.722168 0.357666 0.511719 0.391113 0.52832 0.35791 0.53833 0.391113 0.52832 0.357666 0.511719 0.378906 0.478271 0.378906 0.478271 0.357666 0.511719 0.304443 0.513916 0.378906 0.478271 0.304443 0.513916 0.318604 0.4646 0.318604 0.4646 0.304443 0.513916 0.261963 0.505371 0.423096 0.420898 0.378906 0.478271 0.391357 0.428467 0.391113 0.52832 0.378906 0.478271 0.425049 0.491699 0.425049 0.491699 0.378906 0.478271 0.423096 0.420898 0.416992 0.567871 0.404297 0.575928 0.391113 0.52832 0.425049 0.491699 0.423096 0.420898 0.49585 0.444336 0.49585 0.444336 0.423096 0.420898 0.493164 0.422119 0.49585 0.444336 0.493164 0.422119 0.518555 0.418457 0.49585 0.444336 0.518555 0.418457 0.527344 0.460938 0.49585 0.444336 0.527344 0.460938 0.48877 0.496826 0.49585 0.444336 0.48877 0.496826 0.425049 0.491699 0.48877 0.496826 0.527344 0.460938 0.516113 0.498535 0.466309 0.519775 0.391113 0.52832 0.425049 0.491699 0.391113 0.52832 0.466309 0.519775 0.416992 0.567871 0.466309 0.519775 0.425049 0.491699 0.48877 0.496826 0.416992 0.567871 0.466309 0.519775 0.464355 0.553955 0.464355 0.553955 0.466309 0.519775 0.48877 0.496826 0.464355 0.553955 0.48877 0.496826 0.516113 0.498535 0.416992 0.567871 0.464355 0.553955 0.428467 0.581543 0.464355 0.553955 0.516113 0.498535 0.511719 0.59668 0.511719 0.59668 0.516113 0.498535 0.554199 0.552734 0.511719 0.59668 0.554199 0.552734 0.577393 0.596436 0.171875 0.776855 0.203613 0.708252 0.245361 0.781982 0.171875 0.776855 0.245361 0.781982 0.224121 0.849365 0.203613 0.708252 0.171875 0.776855 0.15625 0.729736 0.171875 0.776855 0.224121 0.849365 0.117676 0.856689 0.15625 0.729736 0.171875 0.776855 0.117188 0.775879 0.117188 0.775879 0.171875 0.776855 0.117676 0.856689 0.15625 0.729736 0.117188 0.775879 0.118896 0.704102 0.118896 0.704102 0.117188 0.775879 0.062988 0.756592 0.118896 0.704102 0.062988 0.756592 0.044678 0.660889 0.044678 0.660889 0.062988 0.756592 0.037598 0.71167 0.062988 0.756592 0.117188 0.775879 0.10083 0.813232 0.10083 0.813232 0.117188 0.775879 0.117676 0.856689 0.062988 0.756592 0.10083 0.813232 0.050537 0.816406 0.062988 0.756592 0.050537 0.816406 0.043701 0.793457 0.050537 0.816406 0.10083 0.813232 0.038574 0.865234 0.038574 0.865234 0.10083 0.813232 0.117676 0.856689 0.038574 0.865234 0.117676 0.856689 0.067383 0.886719 0.434326 0.841309 0.480713 0.835449 0.432129 0.865723 0.432129 0.865723 0.480713 0.835449 0.429199 0.898438 0.480713 0.835449 0.434326 0.841309 0.417725 0.827393 0.480713 0.835449 0.417725 0.827393 0.439209 0.782227 0.434326 0.841309 0.432129 0.865723 0.404053 0.848145 0.434326 0.841309 0.404053 0.848145 0.417725 0.827393 0.439209 0.782227 0.417725 0.827393 0.393066 0.807129 0.393066 0.807129 0.417725 0.827393 0.404053 0.848145 0.404053 0.848145 0.432129 0.865723 0.378418 0.871582 0.404053 0.848145 0.378418 0.871582 0.331299 0.864014 0.393066 0.807129 0.404053 0.848145 0.358643 0.807129 0.404053 0.848145 0.331299 0.864014 0.327148 0.831299 0.404053 0.848145 0.327148 0.831299 0.358643 0.807129 0.393066 0.807129 0.358643 0.807129 0.376709 0.793701 0.393066 0.807129 0.376709 0.793701 0.340332 0.75 0.340332 0.75 0.376709 0.793701 0.358643 0.807129 0.340332 0.75 0.358643 0.807129 0.295166 0.802246 0.295166 0.802246 0.358643 0.807129 0.327148 0.831299 0.340332 0.75 0.295166 0.802246 0.300293 0.735352 0.300293 0.735352 0.295166 0.802246 0.274414 0.767822 0.274414 0.767822 0.295166 0.802246 0.243896 0.825928 0.243896 0.825928 0.295166 0.802246 0.266602 0.838135 0.266602 0.838135 0.295166 0.802246 0.327148 0.831299 0.287354 0.848877 0.327148 0.831299 0.331299 0.864014 0.327148 0.831299 0.287354 0.848877 0.266602 0.838135 0.287354 0.848877 0.331299 0.864014 0.295654 0.899902 0.287354 0.848877 0.295654 0.899902 0.273926 0.890625 0.287354 0.848877 0.273926 0.890625 0.266602 0.838135 0.266602 0.838135 0.273926 0.890625 0.197998 0.880615 0.222168 0.306396 0.208008 0.330078 0.200195 0.288574 0.222168 0.306396 0.200195 0.288574 0.218262 0.281006 0.222168 0.306396 0.218262 0.281006 0.254639 0.294678 0.222168 0.306396 0.254639 0.294678 0.208008 0.330078 0.254639 0.294678 0.218262 0.281006 0.208496 0.264893 0.208008 0.330078 0.254639 0.294678 0.29126 0.363281 0.208008 0.330078 0.29126 0.363281 0.198242 0.373779 0.284668 0.269043 0.29541 0.297607 0.254639 0.294678 0.254639 0.294678 0.29541 0.297607 0.29126 0.363281 0.198242 0.373779 0.29126 0.363281 0.299316 0.428711 0.198242 0.373779 0.299316 0.428711 0.223633 0.452148 0.223633 0.452148 0.299316 0.428711 0.26001 0.491699 0.299316 0.428711 0.29126 0.363281 0.325684 0.394287 0.29126 0.363281 0.29541 0.297607 0.317139 0.343994 0.325684 0.394287 0.29126 0.363281 0.344971 0.349854 0.344971 0.349854 0.29126 0.363281 0.317139 0.343994 0.325684 0.394287 0.344971 0.349854 0.381836 0.396484 0.317139 0.343994 0.29541 0.297607 0.33252 0.308594 0.317139 0.343994 0.33252 0.308594 0.344971 0.349854 0.33252 0.308594 0.29541 0.297607 0.338623 0.272705 0.344971 0.349854 0.33252 0.308594 0.355957 0.312988 0.344971 0.349854 0.355957 0.312988 0.381836 0.396484 0.381836 0.396484 0.355957 0.312988 0.412598 0.381592 0.412598 0.381592 0.355957 0.312988 0.38501 0.300049 0.412598 0.381592 0.38501 0.300049 0.461426 0.351562 0.897461 0.380615 0.865234 0.336914 0.901367 0.339844 0.865234 0.336914 0.897461 0.380615 0.844971 0.369385 0.865234 0.336914 0.844971 0.369385 0.852539 0.344238 0.844971 0.369385 0.897461 0.380615 0.86084 0.432617 0.86084 0.432617 0.897461 0.380615 0.923096 0.419922 0.762695 0.395508 0.799805 0.337402 0.844971 0.369385 0.762695 0.395508 0.844971 0.369385 0.806396 0.424805 0.806396 0.424805 0.844971 0.369385 0.86084 0.432617 0.762695 0.395508 0.806396 0.424805 0.761963 0.431152 0.762695 0.395508 0.761963 0.431152 0.745117 0.361328 0.745117 0.361328 0.761963 0.431152 0.742188 0.425537 0.742188 0.425537 0.761963 0.431152 0.723145 0.427002 0.761963 0.431152 0.806396 0.424805 0.779785 0.439453 0.779785 0.439453 0.806396 0.424805 0.86084 0.432617 0.761963 0.431152 0.779785 0.439453 0.743652 0.492432 0.743652 0.492432 0.779785 0.439453 0.768555 0.542969 0.768555 0.542969 0.779785 0.439453 0.845703 0.504395 0.845703 0.504395 0.779785 0.439453 0.86084 0.432617 0.845703 0.504395 0.86084 0.432617 0.873779 0.48291 0.873779 0.48291 0.86084 0.432617 0.923096 0.419922 0.873779 0.48291 0.923096 0.419922 0.910156 0.456787 0.873779 0.48291 0.910156 0.456787 0.916504 0.483643 0.873779 0.48291 0.916504 0.483643 0.892334 0.506836 0.873779 0.48291 0.892334 0.506836 0.845703 0.504395 0.845703 0.504395 0.892334 0.506836 0.889893 0.540527 0.454346 0.077148 0.430908 0.105225 0.366943 0.051758 0.454346 0.077148 0.366943 0.051758 0.425293 0.006104 0.366943 0.051758 0.430908 0.105225 0.397217 0.094727 0.366943 0.051758 0.397217 0.094727 0.290039 0.133301 0.366943 0.051758 0.290039 0.133301 0.259521 0.001465 0.259521 0.001465 0.290039 0.133301 0.251221 0.05957 0.251221 0.05957 0.290039 0.133301 0.237549 0.136963 0.359619 0.950684 0.395264 0.967773 0.371582 0.971436 0.359619 0.950684 0.371582 0.971436 0.358887 0.999756 0.358887 0.999756 0.371582 0.971436 0.395264 0.967773 0.358887 0.999756 0.395264 0.967773 0.419678 0.983887 0.179443 0.445557 0.13208 0.558105 0.080566 0.461182 0.080566 0.461182 0.13208 0.558105 0.064697 0.581787 0.13208 0.558105 0.179443 0.445557 0.213623 0.496826 0.064697 0.581787 0.13208 0.558105 0.131348 0.622803 0.064697 0.581787 0.131348 0.622803 0.092285 0.672852 0.13208 0.558105 0.213623 0.496826 0.182373 0.574707 0.13208 0.558105 0.182373 0.574707 0.131348 0.622803 0.092285 0.672852 0.131348 0.622803 0.188232 0.635742 0.188232 0.635742 0.131348 0.622803 0.182373 0.574707 0.092285 0.672852 0.188232 0.635742 0.163574 0.699951 0.188232 0.635742 0.182373 0.574707 0.260742 0.596436 0.260742 0.596436 0.182373 0.574707 0.213623 0.496826 0.260742 0.596436 0.213623 0.496826 0.308105 0.538574 0.733154 0.751953 0.77002 0.714111 0.784424 0.804443 0.733154 0.751953 0.784424 0.804443 0.721924 0.812744 0.77002 0.714111 0.733154 0.751953 0.681152 0.705322 0.77002 0.714111 0.681152 0.705322 0.716553 0.664062 0.77002 0.714111 0.716553 0.664062 0.794678 0.668457 0.794678 0.668457 0.716553 0.664062 0.794434 0.605469 0.821533 0.103027 0.805908 0.13623 0.766113 0.116455 0.821533 0.103027 0.766113 0.116455 0.797852 0.084961 0.823486 0.148682 0.795654 0.163818 0.805908 0.13623 0.823486 0.148682 0.805908 0.13623 0.821533 0.103027 0.850586 0.18335 0.818359 0.217041 0.823486 0.148682 0.740479 0.02832 0.79248 0.032227 0.797852 0.084961 0.797852 0.084961 0.79248 0.032227 0.818848 0.054932 0.797852 0.084961 0.818848 0.054932 0.821533 0.103027 0.818848 0.054932 0.79248 0.032227 0.872803 0.01123 0.821533 0.103027 0.818848 0.054932 0.859375 0.066895 0.859375 0.066895 0.818848 0.054932 0.872803 0.01123 0.871338 0.08252 0.823486 0.148682 0.821533 0.103027 0.871338 0.08252 0.821533 0.103027 0.859375 0.066895 0.885498 0.128174 0.850586 0.18335 0.823486 0.148682 0.885498 0.128174 0.823486 0.148682 0.871338 0.08252 0.850586 0.18335 0.885498 0.128174 0.902832 0.190186 0.902832 0.190186 0.885498 0.128174 0.907715 0.12915 0.907715 0.12915 0.885498 0.128174 0.889648 0.091553 0.889648 0.091553 0.885498 0.128174 0.871338 0.08252 0.872314 0.050293 0.859375 0.066895 0.872803 0.01123 0.859375 0.066895 0.872314 0.050293 0.871338 0.08252 0.872314 0.050293 0.872803 0.01123 0.877197 0.037842 0.877197 0.037842 0.872803 0.01123 0.886475 0.025635 0.871338 0.08252 0.872314 0.050293 0.896729 0.063232 0.871338 0.08252 0.896729 0.063232 0.889648 0.091553 0.896729 0.063232 0.872314 0.050293 0.877197 0.037842 0.896729 0.063232 0.877197 0.037842 0.886475 0.025635 0.889648 0.091553 0.896729 0.063232 0.922119 0.066162 0.896729 0.063232 0.886475 0.025635 0.905762 0.010254 0.128174 0.105469 0.134277 0.128174 0.087646 0.126221 0.134277 0.128174 0.128174 0.105469 0.162842 0.096191 0.128174 0.105469 0.087646 0.126221 0.081299 0.096436 0.162842 0.096191 0.128174 0.105469 0.147705 0.057373 0.147705 0.057373 0.128174 0.105469 0.081299 0.096436 0.162842 0.096191 0.147705 0.057373 0.169434 0.056152 0.162842 0.096191 0.169434 0.056152 0.192871 0.135986 0.192871 0.135986 0.169434 0.056152 0.212158 0.053955 0.212158 0.053955 0.169434 0.056152 0.226074 0.046387 0.226074 0.046387 0.169434 0.056152 0.200195 0.016357 0.200195 0.016357 0.169434 0.056152 0.145996 0.031006 0.145996 0.031006 0.169434 0.056152 0.147705 0.057373 0.145996 0.031006 0.147705 0.057373 0.09668 0.01416 0.09668 0.01416 0.147705 0.057373 0.081299 0.096436 0.068115 0.113281 0.081299 0.096436 0.087646 0.126221 0.068115 0.113281 0.087646 0.126221 0.050537 0.120361 0.068115 0.113281 0.050537 0.120361 0.081299 0.096436 0.050537 0.120361 0.087646 0.126221 0.05835 0.165039 0.050537 0.120361 0.05835 0.165039 0.01709 0.151367 0.081299 0.096436 0.050537 0.120361 0.03418 0.094482 0.03418 0.094482 0.050537 0.120361 0.01709 0.151367 0.081299 0.096436 0.03418 0.094482 0.09668 0.01416 0.03418 0.094482 0.01709 0.151367 0.038086 0.026855 0.03418 0.094482 0.038086 0.026855 0.09668 0.01416 0.09668 0.01416 0.038086 0.026855 0.01123 0.005615 0.11792 0.258789 0.017334 0.30957 0.014404 0.258789 0.017334 0.30957 0.11792 0.258789 0.044922 0.306885 0.044922 0.306885 0.11792 0.258789 0.123291 0.318115 0.017334 0.30957 0.044922 0.306885 0.031006 0.37085 0.017334 0.30957 0.031006 0.37085 0.004883 0.358398 0.044922 0.306885 0.123291 0.318115 0.103027 0.389404 0.031006 0.37085 0.044922 0.306885 0.066895 0.383789 0.066895 0.383789 0.044922 0.306885 0.103027 0.389404 0.023926 0.423828 0.000488 0.394531 0.031006 0.37085 0.023926 0.423828 0.031006 0.37085 0.066895 0.383789 0.019043 0.483643 0.023926 0.423828 0.043213 0.437744 0.043213 0.437744 0.023926 0.423828 0.066895 0.383789 0.043213 0.437744 0.066895 0.383789 0.065918 0.439209 0.065918 0.439209 0.066895 0.383789 0.085693 0.406494 0.065918 0.439209 0.085693 0.406494 0.139404 0.421387 0.139404 0.421387 0.085693 0.406494 0.103027 0.389404 0.085693 0.406494 0.066895 0.383789 0.081299 0.389648 0.085693 0.406494 0.081299 0.389648 0.103027 0.389404 0.103027 0.389404 0.081299 0.389648 0.066895 0.383789 0.139404 0.421387 0.103027 0.389404 0.138428 0.403809 0.138428 0.403809 0.103027 0.389404 0.178223 0.367676 0.178223 0.367676 0.103027 0.389404 0.123291 0.318115 0.138428 0.403809 0.178223 0.367676 0.175293 0.387207 0.178223 0.367676 0.123291 0.318115 0.178223 0.31543 0.178223 0.367676 0.178223 0.31543 0.19751 0.328857 0.650635 0.489502 0.580566 0.442139 0.670898 0.434814 0.650635 0.489502 0.670898 0.434814 0.700195 0.492432 0.700195 0.492432 0.670898 0.434814 0.743164 0.440918 0.580566 0.442139 0.650635 0.489502 0.601318 0.493896 0.580566 0.442139 0.601318 0.493896 0.545654 0.484375 0.545654 0.484375 0.601318 0.493896 0.566406 0.52832 0.601318 0.493896 0.650635 0.489502 0.634277 0.500488 0.634277 0.500488 0.650635 0.489502 0.700195 0.492432 0.566406 0.52832 0.601318 0.493896 0.61377 0.51709 0.61377 0.51709 0.601318 0.493896 0.634277 0.500488 0.566406 0.52832 0.61377 0.51709 0.606934 0.556152 0.566406 0.52832 0.606934 0.556152 0.574951 0.566406 0.574951 0.566406 0.606934 0.556152 0.607178 0.575684 0.606934 0.556152 0.61377 0.51709 0.640137 0.51709 0.640137 0.51709 0.61377 0.51709 0.634277 0.500488 0.607178 0.575684 0.606934 0.556152 0.669189 0.56543 0.669189 0.56543 0.606934 0.556152 0.640137 0.51709 0.640137 0.51709 0.634277 0.500488 0.689941 0.52124 0.689941 0.52124 0.634277 0.500488 0.700195 0.492432 0.640137 0.51709 0.689941 0.52124 0.669189 0.56543 0.689941 0.52124 0.700195 0.492432 0.742188 0.525391 0.689941 0.52124 0.742188 0.525391 0.704834 0.576416 0.689941 0.52124 0.704834 0.576416 0.669189 0.56543 0.669189 0.56543 0.704834 0.576416 0.685303 0.607178 0.685303 0.607178 0.704834 0.576416 0.736572 0.614014 0.685303 0.607178 0.736572 0.614014 0.705566 0.628906 0.685303 0.607178 0.705566 0.628906 0.683594 0.675537 0.685303 0.607178 0.683594 0.675537 0.653564 0.64624 0.653564 0.64624 0.683594 0.675537 0.664795 0.710693 0.669189 0.56543 0.685303 0.607178 0.637207 0.601807 0.637207 0.601807 0.685303 0.607178 0.653564 0.64624 0.669189 0.56543 0.637207 0.601807 0.607178 0.575684 0.637207 0.601807 0.653564 0.64624 0.569336 0.631836 0.637207 0.601807 0.569336 0.631836 0.607178 0.575684 0.665771 0.366211 0.682129 0.354736 0.703857 0.37793 0.682129 0.354736 0.665771 0.366211 0.689697 0.322266 0.689697 0.322266 0.665771 0.366211 0.597168 0.318359 0.597168 0.318359 0.665771 0.366211 0.588867 0.364502 0.588867 0.364502 0.665771 0.366211 0.612061 0.408203 0.588867 0.364502 0.612061 0.408203 0.570557 0.385986 0.588867 0.364502 0.570557 0.385986 0.559814 0.374756 0.588867 0.364502 0.559814 0.374756 0.554199 0.353271 0.588867 0.364502 0.554199 0.353271 0.597168 0.318359 0.554199 0.353271 0.559814 0.374756 0.527588 0.381836 0.597168 0.318359 0.554199 0.353271 0.540283 0.322021 0.597168 0.318359 0.540283 0.322021 0.572266 0.269043 0.572266 0.269043 0.540283 0.322021 0.525635 0.282227 0.554199 0.353271 0.527588 0.381836 0.53833 0.363037 0.554199 0.353271 0.53833 0.363037 0.540283 0.322021 0.53833 0.363037 0.527588 0.381836 0.491699 0.409668 0.525635 0.282227 0.540283 0.322021 0.520264 0.306152 0.520264 0.306152 0.540283 0.322021 0.53833 0.363037 0.520264 0.306152 0.53833 0.363037 0.491699 0.409668 0.520264 0.306152 0.491699 0.409668 0.46582 0.365723 0.525635 0.282227 0.520264 0.306152 0.509033 0.273193 0.509033 0.273193 0.520264 0.306152 0.503418 0.283936 0.509033 0.273193 0.503418 0.283936 0.498779 0.272949 0.441162 0.965332 0.35791 0.938477 0.396729 0.921387 0.450684 0.279297 0.460449 0.308594 0.414795 0.294434 0.460449 0.308594 0.450684 0.279297 0.461426 0.266357 0.461426 0.266357 0.450684 0.279297 0.414795 0.294434 0.460449 0.308594 0.461426 0.266357 0.489502 0.296875 0.461426 0.266357 0.414795 0.294434 0.374512 0.256592 0.461426 0.266357 0.374512 0.256592 0.44751 0.233643 0.461426 0.266357 0.44751 0.233643 0.523926 0.247559 0.573242 0.208008 0.523926 0.247559 0.516357 0.212158 0.516357 0.212158 0.523926 0.247559 0.44751 0.233643 0.516357 0.212158 0.44751 0.233643 0.473145 0.13501 0.473145 0.13501 0.44751 0.233643 0.392822 0.140381 0.44751 0.233643 0.374512 0.256592 0.356934 0.195068 0.44751 0.233643 0.356934 0.195068 0.392822 0.140381 0.356934 0.195068 0.374512 0.256592 0.334229 0.182129 0.334229 0.182129 0.374512 0.256592 0.349365 0.27417 0.392822 0.140381 0.356934 0.195068 0.362549 0.137939 0.362549 0.137939 0.356934 0.195068 0.334229 0.182129 0.392822 0.140381 0.362549 0.137939 0.384766 0.127686 0.362549 0.137939 0.334229 0.182129 0.322754 0.161621 0.738037 0.871826 0.672363 0.899658 0.69165 0.862793 0.69165 0.862793 0.672363 0.899658 0.584229 0.827148 0.69165 0.862793 0.584229 0.827148 0.613037 0.749756 0.69165 0.862793 0.613037 0.749756 0.701172 0.740723 0.701172 0.740723 0.613037 0.749756 0.659668 0.736328 0.659668 0.736328 0.613037 0.749756 0.646729 0.724854 0.613037 0.749756 0.584229 0.827148 0.564453 0.830566 0.564453 0.830566 0.584229 0.827148 0.562012 0.87915 0.613037 0.749756 0.564453 0.830566 0.570801 0.762207 0.570801 0.762207 0.564453 0.830566 0.499512 0.819092 0.646729 0.724854 0.613037 0.749756 0.598145 0.705322 0.598145 0.705322 0.613037 0.749756 0.570801 0.762207 0.646729 0.724854 0.598145 0.705322 0.645264 0.697021 0.598145 0.705322 0.570801 0.762207 0.560059 0.684814 0.645264 0.697021 0.598145 0.705322 0.588135 0.658691 0.598145 0.705322 0.560059 0.684814 0.57373 0.674072 0.598145 0.705322 0.57373 0.674072 0.588135 0.658691 0.588135 0.658691 0.57373 0.674072 0.568115 0.641846</float_array>
          <technique_common>
            <accessor source="#Rocks-mesh-map-0-array" count="1500" stride="2">
              <param name="S" type="float"/>
              <param name="T" type="float"/>
            </accessor>
          </technique_common>
        </source>
        <vertices id="Rocks-mesh-vertices">
          <input semantic="POSITION" source="#Rocks-mesh-positions"/>
        </vertices>
        <polylist material="Material_-1-material" count="6">
          <input semantic="VERTEX" source="#Rocks-mesh-vertices" offset="0"/>
          <input semantic="NORMAL" source="#Rocks-mesh-normals" offset="1"/>
          <input semantic="TEXCOORD" source="#Rocks-mesh-map-0" offset="2" set="0"/>
          <vcount>3 3 3 3 3 3 3 3 3 3 3 3 3 3 3 3 3 3 3 3 3 3 3 3 3 3 3 3 3 3 3 3 3 3 3 3 3 3 3 3 3 3 3 3 3 3 3 3 3 3 3 3 3 3 3 3 3 3 3 3 3 3 3 3 3 3 3 3 3 3 3 3 3 3 3 3 3 3 3 3 3 3 3 3 3 3 3 3 3 3 3 3 3 3 3 3 3 3 3 3 3 3 3 3 3 3 3 3 3 3 3 3 3 3 3 3 3 3 3 3 3 3 3 3 3 3 3 3 3 3 3 3 3 3 3 3 3 3 3 3 3 3 3 3 3 3 3 3 3 3 3 3 3 3 3 3 3 3 3 3 3 3 3 3 3 3 3 3 3 3 3 3 3 3 3 3 3 3 3 3 3 3 3 3 3 3 3 3 3 3 3 3 3 3 3 3 3 3 3 3 3 3 3 3 3 3 3 3 3 3 3 3 3 3 3 3 3 3 3 3 3 3 3 3 3 3 3 3 3 3 3 3 3 3 3 3 3 3 3 3 3 3 3 3 3 3 3 3 3 3 3 3 3 3 3 3 3 3 3 3 3 3 3 3 3 3 3 3 3 3 3 3 3 3 3 3 3 3 3 3 3 3 3 3 3 3 3 3 3 3 3 3 3 3 3 3 3 3 3 3 3 3 3 3 3 3 3 3 3 3 3 3 3 3 3 3 3 3 3 3 3 3 3 3 3 3 3 3 3 3 3 3 3 3 3 3 3 3 3 3 3 3 3 3 3 3 3 3 3 3 3 3 3 3 3 3 3 3 3 3 3 3 3 3 3 3 3 3 3 3 3 3 3 3 3 3 3 3 3 3 3 3 3 3 3 3 3 3 3 3 3 3 3 3 3 3 3 3 3 3 3 3 3 3 3 3 3 3 3 3 3 3 3 3 3 3 3 3 3 3 3 3 3 3 3 3 3 3 3 3 3 3 3 3 3 3 3 3 3 3 3 3 3 3 3 3 3 3 3 3 3 3 3 3 3 3 3 3 3 3 3 3 3 3 3 3 3 3 3 3 3 3 3 3 3 3 3 3 3 3 3 3 3 3 3 3 3 3 3 3 3 3 3 3 3 3 3 3 3 3</vcount>
          <p>0 0 0 1 0 1 2 0 2 2 1 3 1 1 4 3 1 5 0 2 6 2 2 7 4 2 8 1 3 9 0 3 10 5 3 11 0 4 12 4 4 13 6 4 14 5 5 15 0 5 16 7 5 17 7 6 18 0 6 19 6 6 20 5 7 21 7 7 22 8 7 23 8 8 24 7 8 25 9 8 26 9 9 27 7 9 28 6 9 29 8 10 30 9 10 31 10 10 32 11 11 33 10 11 34 12 11 35 12 12 36 10 12 37 13 12 38 13 13 39 10 13 40 14 13 41 14 14 42 10 14 43 9 14 44 13 15 45 14 15 46 15 15 47 9 16 48 6 16 49 16 16 50 9 17 51 16 17 52 14 17 53 14 18 54 16 18 55 15 18 56 16 19 57 6 19 58 17 19 59 15 20 60 16 20 61 18 20 62 18 21 63 16 21 64 19 21 65 20 22 66 4 22 67 2 22 68 20 23 69 2 23 70 3 23 71 17 24 72 6 24 73 4 24 74 17 25 75 4 25 76 21 25 77 21 26 78 4 26 79 20 26 80 22 27 81 19 27 82 17 27 83 22 28 84 17 28 85 21 28 86 20 29 87 3 29 88 23 29 89 23 30 90 3 30 91 24 30 92 23 31 93 24 31 94 25 31 95 22 32 96 21 32 97 26 32 98 22 33 99 26 33 100 27 33 101 27 34 102 26 34 103 28 34 104 26 35 105 21 35 106 29 35 107 28 36 108 26 36 109 30 36 110 30 37 111 26 37 112 29 37 113 30 38 114 29 38 115 21 38 116 30 39 117 21 39 118 20 39 119 28 40 120 30 40 121 31 40 122 31 41 123 30 41 124 32 41 125 30 42 126 20 42 127 33 42 128 30 43 129 33 43 130 32 43 131 32 44 132 33 44 133 34 44 134 33 45 135 20 45 136 23 45 137 33 46 138 23 46 139 35 46 140 33 47 141 35 47 142 36 47 143 35 48 144 23 48 145 37 48 146 35 49 147 37 49 148 38 49 149 37 50 150 23 50 151 39 50 152 37 51 153 39 51 154 38 51 155 39 52 156 23 52 157 25 52 158 38 53 159 39 53 160 40 53 161 39 54 162 25 54 163 41 54 164 40 55 165 39 55 166 42 55 167 42 56 168 39 56 169 41 56 170 43 57 171 3 57 172 1 57 173 3 58 174 43 58 175 24 58 176 24 59 177 43 59 178 44 59 179 24 60 180 44 60 181 25 60 182 44 61 183 43 61 184 45 61 185 45 62 186 43 62 187 1 62 188 45 63 189 1 63 190 46 63 191 46 64 192 1 64 193 5 64 194 45 65 195 46 65 196 47 65 197 45 66 198 47 66 199 48 66 200 46 67 201 5 67 202 8 67 203 48 68 204 47 68 205 49 68 206 49 69 207 47 69 208 46 69 209 49 70 210 46 70 211 8 70 212 48 71 213 49 71 214 50 71 215 49 72 216 8 72 217 51 72 218 49 73 219 51 73 220 50 73 221 51 74 222 8 74 223 52 74 224 52 75 225 8 75 226 10 75 227 52 76 228 10 76 229 11 76 230 52 77 231 11 77 232 53 77 233 52 78 234 53 78 235 51 78 236 51 79 237 53 79 238 50 79 239 50 80 240 53 80 241 54 80 242 54 81 243 53 81 244 55 81 245 44 82 246 45 82 247 56 82 248 56 83 249 45 83 250 48 83 251 56 84 252 48 84 253 57 84 254 56 85 255 57 85 256 58 85 257 56 86 258 58 86 259 41 86 260 56 87 261 41 87 262 44 87 263 44 88 264 41 88 265 25 88 266 19 89 267 16 89 268 17 89 269 15 90 270 18 90 271 59 90 272 15 91 273 59 91 274 60 91 275 15 92 276 60 92 277 61 92 278 15 93 279 61 93 280 13 93 281 13 94 282 61 94 283 62 94 284 62 95 285 61 95 286 60 95 287 13 96 288 62 96 289 12 96 290 60 97 291 59 97 292 63 97 293 63 98 294 59 98 295 64 98 296 12 99 297 62 99 298 65 99 299 12 100 300 65 100 301 66 100 302 66 101 303 65 101 304 67 101 305 67 102 306 65 102 307 62 102 308 68 103 309 67 103 310 69 103 311 69 104 312 67 104 313 70 104 314 70 105 315 67 105 316 62 105 317 69 106 318 70 106 319 71 106 320 70 107 321 62 107 322 72 107 323 70 108 324 72 108 325 71 108 326 72 109 327 62 109 328 60 109 329 71 110 330 72 110 331 73 110 332 73 111 333 72 111 334 60 111 335 73 112 336 60 112 337 63 112 338 71 113 339 73 113 340 74 113 341 74 114 342 73 114 343 63 114 344 74 115 345 63 115 346 75 115 347 76 116 348 19 116 349 22 116 350 76 117 351 22 117 352 77 117 353 77 118 354 22 118 355 27 118 356 19 119 357 76 119 358 78 119 359 78 120 360 76 120 361 77 120 362 78 121 363 77 121 364 27 121 365 19 122 366 78 122 367 18 122 368 78 123 369 27 123 370 79 123 371 79 124 372 27 124 373 80 124 374 79 125 375 80 125 376 81 125 377 78 126 378 79 126 379 82 126 380 78 127 381 82 127 382 18 127 383 82 128 384 79 128 385 83 128 386 82 129 387 83 129 388 64 129 389 82 130 390 64 130 391 18 130 392 18 131 393 64 131 394 59 131 395 83 132 396 84 132 397 64 132 398 64 133 399 84 133 400 63 133 401 81 134 402 83 134 403 79 134 404 83 135 405 81 135 406 85 135 407 84 136 408 83 136 409 86 136 410 86 137 411 83 137 412 85 137 413 63 138 414 84 138 415 87 138 416 87 139 417 84 139 418 86 139 419 87 140 420 86 140 421 85 140 422 63 141 423 87 141 424 88 141 425 87 142 426 85 142 427 89 142 428 88 143 429 87 143 430 90 143 431 88 144 432 90 144 433 91 144 434 87 145 435 89 145 436 92 145 437 87 146 438 92 146 439 90 146 440 92 147 441 89 147 442 93 147 443 92 148 444 93 148 445 90 148 446 90 149 447 93 149 448 91 149 449 93 150 450 89 150 451 94 150 452 93 151 453 94 151 454 95 151 455 93 152 456 95 152 457 91 152 458 91 153 459 95 153 460 96 153 461 88 154 462 91 154 463 63 154 464 63 155 465 91 155 466 75 155 467 75 156 468 91 156 469 97 156 470 97 157 471 91 157 472 96 157 473 75 158 474 97 158 475 98 158 476 98 159 477 97 159 478 96 159 479 75 160 480 98 160 481 74 160 482 98 161 483 96 161 484 99 161 485 99 162 486 96 162 487 100 162 488 74 163 489 98 163 490 101 163 491 74 164 492 101 164 493 71 164 494 71 165 495 101 165 496 69 165 497 69 166 498 101 166 499 102 166 500 102 167 501 101 167 502 103 167 503 98 168 504 99 168 505 104 168 506 98 169 507 104 169 508 101 169 509 101 170 510 104 170 511 103 170 512 104 171 513 99 171 514 105 171 515 103 172 516 104 172 517 106 172 518 106 173 519 104 173 520 105 173 521 38 174 522 36 174 523 35 174 524 36 175 525 38 175 526 107 175 527 107 176 528 38 176 529 40 176 530 107 177 531 40 177 532 108 177 533 108 178 534 40 178 535 42 178 536 109 179 537 107 179 538 110 179 539 36 180 540 107 180 541 111 180 542 111 181 543 107 181 544 109 181 545 34 182 546 33 182 547 36 182 548 111 183 549 109 183 550 112 183 551 112 184 552 109 184 553 113 184 554 112 185 555 113 185 556 114 185 557 112 186 558 114 186 559 115 186 560 112 187 561 115 187 562 116 187 563 112 188 564 116 188 565 111 188 566 116 189 567 115 189 568 117 189 569 118 190 570 36 190 571 111 190 572 36 191 573 118 191 574 34 191 575 118 192 576 111 192 577 116 192 578 34 193 579 118 193 580 31 193 581 31 194 582 118 194 583 116 194 584 31 195 585 116 195 586 117 195 587 34 196 588 31 196 589 32 196 590 31 197 591 117 197 592 28 197 593 28 198 594 117 198 595 119 198 596 28 199 597 119 199 598 27 199 599 120 200 600 107 200 601 108 200 602 120 201 603 108 201 604 121 201 605 107 202 606 120 202 607 110 202 608 120 203 609 121 203 610 122 203 611 110 204 612 120 204 613 123 204 614 123 205 615 120 205 616 122 205 617 110 206 618 123 206 619 109 206 620 109 207 621 123 207 622 124 207 623 109 208 624 124 208 625 113 208 626 113 209 627 124 209 628 125 209 629 124 210 630 123 210 631 126 210 632 126 211 633 123 211 634 122 211 635 124 212 636 126 212 637 127 212 638 124 213 639 127 213 640 128 213 641 127 214 642 126 214 643 129 214 644 129 215 645 126 215 646 122 215 647 129 216 648 122 216 649 130 216 650 131 217 651 42 217 652 132 217 653 132 218 654 42 218 655 133 218 656 42 219 657 131 219 658 134 219 659 42 220 660 134 220 661 108 220 662 131 221 663 132 221 664 135 221 665 131 222 666 135 222 667 134 222 668 108 223 669 134 223 670 121 223 671 121 224 672 134 224 673 135 224 674 135 225 675 132 225 676 136 225 677 135 226 678 136 226 679 137 226 680 121 227 681 135 227 682 138 227 683 135 228 684 137 228 685 139 228 686 135 229 687 139 229 688 138 229 689 121 230 690 138 230 691 140 230 692 121 231 693 140 231 694 122 231 695 122 232 696 140 232 697 138 232 698 122 233 699 138 233 700 141 233 701 141 234 702 138 234 703 139 234 704 122 235 705 141 235 706 130 235 707 130 236 708 141 236 709 142 236 710 142 237 711 141 237 712 143 237 713 143 238 714 141 238 715 144 238 716 144 239 717 141 239 718 139 239 719 145 240 720 139 240 721 137 240 722 139 241 723 145 241 724 144 241 725 145 242 726 137 242 727 146 242 728 145 243 729 146 243 730 147 243 731 145 244 732 147 244 733 144 244 734 144 245 735 147 245 736 148 245 737 149 246 738 115 246 739 114 246 740 149 247 741 114 247 742 150 247 743 149 248 744 150 248 745 151 248 746 149 249 747 151 249 748 115 249 749 151 250 750 150 250 751 152 250 752 115 251 753 151 251 754 153 251 755 115 252 756 153 252 757 117 252 758 154 253 759 155 253 760 151 253 761 151 254 762 155 254 763 153 254 764 117 255 765 153 255 766 80 255 767 117 256 768 80 256 769 119 256 770 119 257 771 80 257 772 27 257 773 80 258 774 153 258 775 81 258 776 153 259 777 155 259 778 156 259 779 81 260 780 153 260 781 157 260 782 157 261 783 153 261 784 156 261 785 81 262 786 157 262 787 85 262 788 156 263 789 155 263 790 158 263 791 156 264 792 158 264 793 157 264 794 158 265 795 155 265 796 159 265 797 157 266 798 158 266 799 160 266 800 157 267 801 160 267 802 85 267 803 85 268 804 160 268 805 89 268 806 89 269 807 160 269 808 161 269 809 89 270 810 161 270 811 94 270 812 125 271 813 114 271 814 113 271 815 114 272 816 125 272 817 152 272 818 114 273 819 152 273 820 150 273 821 152 274 822 125 274 823 162 274 824 162 275 825 125 275 826 124 275 827 154 276 828 151 276 829 152 276 830 154 277 831 152 277 832 163 277 833 163 278 834 152 278 835 162 278 836 154 279 837 163 279 838 164 279 839 154 280 840 164 280 841 155 280 842 155 281 843 164 281 844 159 281 845 159 282 846 164 282 847 161 282 848 164 283 849 163 283 850 165 283 851 165 284 852 163 284 853 162 284 854 164 285 855 165 285 856 166 285 857 166 286 858 165 286 859 167 286 860 167 287 861 165 287 862 168 287 863 168 288 864 165 288 865 162 288 866 168 289 867 162 289 868 169 289 869 169 290 870 162 290 871 124 290 872 169 291 873 124 291 874 128 291 875 169 292 876 128 292 877 127 292 878 169 293 879 127 293 880 129 293 881 169 294 882 129 294 883 168 294 884 168 295 885 129 295 886 170 295 887 96 296 888 95 296 889 171 296 890 96 297 891 171 297 892 100 297 893 171 298 894 95 298 895 94 298 896 171 299 897 94 299 898 161 299 899 171 300 900 161 300 901 172 300 902 172 301 903 161 301 904 166 301 905 166 302 906 161 302 907 164 302 908 161 303 909 160 303 910 173 303 911 161 304 912 173 304 913 159 304 914 159 305 915 173 305 916 160 305 917 159 306 918 160 306 919 158 306 920 50 307 921 174 307 922 48 307 923 48 308 924 174 308 925 57 308 926 174 309 927 50 309 928 54 309 929 57 310 930 174 310 931 175 310 932 57 311 933 175 311 934 176 311 935 174 312 936 54 312 937 177 312 938 174 313 939 177 313 940 175 313 941 176 314 942 175 314 943 178 314 944 178 315 945 175 315 946 177 315 947 176 316 948 178 316 949 179 316 950 178 317 951 177 317 952 180 317 953 180 318 954 177 318 955 54 318 956 180 319 957 54 319 958 55 319 959 181 320 960 58 320 961 57 320 962 181 321 963 57 321 964 182 321 965 58 322 966 181 322 967 183 322 968 58 323 969 183 323 970 133 323 971 58 324 972 133 324 973 41 324 974 41 325 975 133 325 976 42 325 977 184 326 978 183 326 979 181 326 980 184 327 981 181 327 982 182 327 983 185 328 984 133 328 985 183 328 986 185 329 987 183 329 988 184 329 989 136 330 990 132 330 991 185 330 992 57 331 993 176 331 994 182 331 995 182 332 996 176 332 997 186 332 998 182 333 999 186 333 1000 184 333 1001 186 334 1002 176 334 1003 187 334 1004 184 335 1005 186 335 1006 188 335 1007 188 336 1008 186 336 1009 187 336 1010 189 337 1011 185 337 1012 184 337 1013 189 338 1014 184 338 1015 188 338 1016 190 339 1017 136 339 1018 185 339 1019 190 340 1020 185 340 1021 189 340 1022 136 341 1023 190 341 1024 137 341 1025 137 342 1026 190 342 1027 191 342 1028 191 343 1029 190 343 1030 192 343 1031 192 344 1032 190 344 1033 189 344 1034 193 345 1035 188 345 1036 187 345 1037 188 346 1038 193 346 1039 189 346 1040 193 347 1041 187 347 1042 194 347 1043 194 348 1044 187 348 1045 195 348 1046 189 349 1047 193 349 1048 196 349 1049 189 350 1050 196 350 1051 192 350 1052 196 351 1053 193 351 1054 194 351 1055 196 352 1056 194 352 1057 195 352 1058 192 353 1059 196 353 1060 197 353 1061 196 354 1062 195 354 1063 198 354 1064 199 355 1065 178 355 1066 180 355 1067 178 356 1068 199 356 1069 179 356 1070 199 357 1071 180 357 1072 200 357 1073 179 358 1074 199 358 1075 201 358 1076 201 359 1077 199 359 1078 200 359 1079 179 360 1080 201 360 1081 202 360 1082 179 361 1083 202 361 1084 176 361 1085 176 362 1086 202 362 1087 187 362 1088 187 363 1089 202 363 1090 195 363 1091 195 364 1092 202 364 1093 198 364 1094 198 365 1095 202 365 1096 203 365 1097 203 366 1098 202 366 1099 201 366 1100 203 367 1101 201 367 1102 204 367 1103 204 368 1104 201 368 1105 200 368 1106 205 369 1107 200 369 1108 180 369 1109 205 370 1110 180 370 1111 206 370 1112 205 371 1113 206 371 1114 200 371 1115 206 372 1116 180 372 1117 55 372 1118 206 373 1119 55 373 1120 207 373 1121 200 374 1122 206 374 1123 208 374 1124 208 375 1125 206 375 1126 207 375 1127 200 376 1128 208 376 1129 204 376 1130 208 377 1131 207 377 1132 209 377 1133 208 378 1134 209 378 1135 204 378 1136 204 379 1137 209 379 1138 210 379 1139 211 380 1140 198 380 1141 203 380 1142 198 381 1143 211 381 1144 212 381 1145 212 382 1146 211 382 1147 213 382 1148 198 383 1149 212 383 1150 197 383 1151 198 384 1152 197 384 1153 196 384 1154 212 385 1155 213 385 1156 214 385 1157 197 386 1158 212 386 1159 215 386 1160 215 387 1161 212 387 1162 214 387 1163 191 388 1164 192 388 1165 197 388 1166 191 389 1167 197 389 1168 215 389 1169 137 390 1170 191 390 1171 146 390 1172 146 391 1173 191 391 1174 215 391 1175 146 392 1176 215 392 1177 147 392 1178 147 393 1179 215 393 1180 216 393 1181 147 394 1182 216 394 1183 148 394 1184 148 395 1185 216 395 1186 214 395 1187 216 396 1188 215 396 1189 217 396 1190 216 397 1191 217 397 1192 214 397 1193 214 398 1194 217 398 1195 215 398 1196 148 399 1197 214 399 1198 218 399 1199 218 400 1200 214 400 1201 219 400 1202 219 401 1203 214 401 1204 213 401 1205 218 402 1206 219 402 1207 220 402 1208 219 403 1209 213 403 1210 221 403 1211 219 404 1212 221 404 1213 222 404 1214 223 405 1215 53 405 1216 11 405 1217 223 406 1218 11 406 1219 66 406 1220 66 407 1221 11 407 1222 12 407 1223 53 408 1224 223 408 1225 224 408 1226 53 409 1227 224 409 1228 55 409 1229 55 410 1230 224 410 1231 207 410 1232 224 411 1233 223 411 1234 225 411 1235 225 412 1236 223 412 1237 66 412 1238 207 413 1239 224 413 1240 226 413 1241 226 414 1242 224 414 1243 225 414 1244 207 415 1245 226 415 1246 227 415 1247 207 416 1248 227 416 1249 209 416 1250 209 417 1251 227 417 1252 210 417 1253 227 418 1254 226 418 1255 228 418 1256 228 419 1257 226 419 1258 225 419 1259 210 420 1260 227 420 1261 229 420 1262 229 421 1263 227 421 1264 228 421 1265 228 422 1266 225 422 1267 230 422 1268 230 423 1269 225 423 1270 66 423 1271 228 424 1272 230 424 1273 229 424 1274 230 425 1275 66 425 1276 67 425 1277 230 426 1278 67 426 1279 68 426 1280 230 427 1281 68 427 1282 229 427 1283 229 428 1284 68 428 1285 231 428 1286 231 429 1287 68 429 1288 69 429 1289 231 430 1290 69 430 1291 102 430 1292 231 431 1293 102 431 1294 103 431 1295 231 432 1296 103 432 1297 232 432 1298 232 433 1299 103 433 1300 106 433 1301 229 434 1302 231 434 1303 233 434 1304 233 435 1305 231 435 1306 232 435 1307 229 436 1308 233 436 1309 210 436 1310 233 437 1311 232 437 1312 234 437 1313 233 438 1314 234 438 1315 210 438 1316 234 439 1317 204 439 1318 210 439 1319 204 440 1320 234 440 1321 203 440 1322 203 441 1323 234 441 1324 211 441 1325 211 442 1326 234 442 1327 235 442 1328 235 443 1329 234 443 1330 232 443 1331 235 444 1332 232 444 1333 106 444 1334 235 445 1335 106 445 1336 105 445 1337 235 446 1338 105 446 1339 236 446 1340 235 447 1341 236 447 1342 211 447 1343 236 448 1344 105 448 1345 99 448 1346 211 449 1347 236 449 1348 237 449 1349 211 450 1350 237 450 1351 213 450 1352 213 451 1353 237 451 1354 221 451 1355 236 452 1356 99 452 1357 238 452 1358 236 453 1359 238 453 1360 237 453 1361 238 454 1362 99 454 1363 100 454 1364 221 455 1365 237 455 1366 239 455 1367 239 456 1368 237 456 1369 238 456 1370 239 457 1371 238 457 1372 100 457 1373 239 458 1374 100 458 1375 240 458 1376 221 459 1377 239 459 1378 222 459 1379 222 460 1380 239 460 1381 241 460 1382 222 461 1383 241 461 1384 242 461 1385 185 462 1386 132 462 1387 133 462 1388 243 463 1389 130 463 1390 142 463 1391 130 464 1392 243 464 1393 170 464 1394 170 465 1395 243 465 1396 142 465 1397 130 466 1398 170 466 1399 129 466 1400 170 467 1401 142 467 1402 143 467 1403 170 468 1404 143 468 1405 244 468 1406 170 469 1407 244 469 1408 168 469 1409 167 470 1410 168 470 1411 245 470 1412 245 471 1413 168 471 1414 244 471 1415 245 472 1416 244 472 1417 246 472 1418 246 473 1419 244 473 1420 247 473 1421 244 474 1422 143 474 1423 248 474 1424 244 475 1425 248 475 1426 247 475 1427 248 476 1428 143 476 1429 148 476 1430 148 477 1431 143 477 1432 144 477 1433 247 478 1434 248 478 1435 220 478 1436 220 479 1437 248 479 1438 148 479 1439 247 480 1440 220 480 1441 249 480 1442 220 481 1443 148 481 1444 218 481 1445 100 482 1446 171 482 1447 240 482 1448 240 483 1449 171 483 1450 172 483 1451 240 484 1452 172 484 1453 250 484 1454 240 485 1455 250 485 1456 239 485 1457 239 486 1458 250 486 1459 241 486 1460 241 487 1461 250 487 1462 242 487 1463 250 488 1464 172 488 1465 167 488 1466 167 489 1467 172 489 1468 166 489 1469 250 490 1470 167 490 1471 246 490 1472 246 491 1473 167 491 1474 245 491 1475 242 492 1476 250 492 1477 251 492 1478 251 493 1479 250 493 1480 246 493 1481 242 494 1482 251 494 1483 222 494 1484 251 495 1485 246 495 1486 247 495 1487 222 496 1488 251 496 1489 219 496 1490 251 497 1491 247 497 1492 249 497 1493 251 498 1494 249 498 1495 219 498 1496 219 499 1497 249 499 1498 220 499 1499</p>
        </polylist>
      </mesh>
    </geometry>
  </library_geometries>
  <library_visual_scenes>
    <visual_scene id="Scene" name="Scene">
      <node id="Rocks" name="Rocks" type="NODE">
        <scale sid="scale">1 1 1</scale>
        <translate sid="location">0 0 0</translate>
        <rotate sid="rotationX">1 0 0 0</rotate>
        <rotate sid="rotationY">0 1 0 0</rotate>
        <rotate sid="rotationZ">0 0 1 0</rotate>
        <instance_geometry url="#Rocks-mesh" name="Rocks">
          <bind_material>
            <technique_common>
            </technique_common>
          </bind_material>
        </instance_geometry>
      </node>
    </visual_scene>
  </library_visual_scenes>
  <scene>
    <instance_visual_scene url="#Scene"/>
  </scene>
</COLLADA>
