<?xml version="1.0" encoding="utf-8"?>
<COLLADA xmlns="http://www.collada.org/2005/11/COLLADASchema" version="1.4.1" xmlns:xsi="http://www.w3.org/2001/XMLSchema-instance">
  <asset>
    <contributor>
      <author>Blockbench user</author>
      <authoring_tool>Blockbench</authoring_tool>
    </contributor>
    <created>2025-09-30T16:05:02.181Z</created>
    <modified>2025-09-30T16:05:02.190Z</modified>
    <unit name="meter" meter="1.0"/>
    <up_axis>Y_UP</up_axis>
  </asset>
  <library_effects>
  </library_effects>
  <library_images>
  </library_images>
  <library_materials>
  </library_materials>
  <library_geometries>
    <geometry id="RockPickaxe-mesh" name="RockPickaxe">
      <mesh>
        <source id="RockPickaxe-mesh-positions">
          <float_array id="RockPickaxe-mesh-positions-array" count="753">-0.270574 0.024908 -0.347575 -0.22141 -0.016539 -0.385539 -0.318303 -0.0376 -0.296931 -0.229314 0.016472 -0.380351 -0.176991 0.003293 -0.402903 -0.22379 0.021908 -0.346446 -0.327733 0.037222 -0.284571 -0.264501 0.041101 -0.249858 -0.367894 0.048262 -0.208628 -0.368596 -0.049597 -0.206034 -0.26862 -0.045809 -0.225718 -0.270299 -0.037691 -0.276851 -0.250615 -0.032839 -0.293879 -0.260442 -0.020109 -0.261485 -0.210423 -0.018282 -0.365153 -0.250981 0.032236 -0.295405 -0.279027 0.043016 -0.237605 -0.273198 0.045145 -0.215342 -0.28336 0.051317 -0.171267 -0.383885 0.054743 -0.151576 -0.384374 -0.055288 -0.150973 -0.379186 0.05504 -0.129199 -0.284856 0.053095 -0.135806 -0.303502 0.059347 -0.001738 -0.408177 0.058626 -0.086121 -0.407475 -0.060797 -0.085585 -0.407842 -0.022116 -0.061216 -0.379765 -0.056906 -0.129763 -0.277806 -0.054239 -0.103205 -0.3364 -0.053942 -0.173045 -0.281957 -0.050585 -0.167758 -0.296666 -0.052183 -0.16466 -0.281621 -0.014003 -0.186686 -0.297002 0.011298 -0.15758 -0.272893 0.053606 -0.085727 -0.408391 0.030783 -0.052527 -0.406896 -0.040266 -0.024512 -0.439244 -0.023964 -0.055835 -0.438817 -0.038153 0.001714 -0.408574 -0.031529 0.016317 -0.437138 -0.003608 0.021657 -0.408666 0.024061 0.019895 -0.439519 0.029535 -0.047476 -0.439275 0.032709 0.007962 -0.407689 0.039171 -0.014354 -0.403752 0.061079 0.013875 -0.406102 0.029945 0.053327 -0.375188 0.052812 0.052297 -0.406072 -0.062121 0.012647 -0.302739 -0.060122 -0.000102 -0.375035 -0.054083 0.054326 -0.40772 -0.033823 0.044332 -0.238133 -0.05469 -0.061787 -0.264867 -0.026886 -0.091552 -0.191258 -0.043062 -0.065569 -0.260808 0.037252 -0.086846 -0.19074 0.01305 -0.0824 -0.191106 0.045687 -0.051949 -0.243474 0.054022 -0.026547 -0.191136 -0.029501 -0.061492 -0.19074 -0.03763 -0.024573 -0.130467 -0.029883 -0.057326 -0.191716 0.022474 -0.067293 -0.190404 0.035818 -0.028935 -0.124165 0.028086 -0.056276 -0.126744 -0.003526 -0.065851 -0.039967 -0.025574 -0.036973 0.019023 -0.012894 -0.045997 0.042199 0.021639 -0.043081 -0.064465 0.022653 -0.04348 -0.022412 0.029343 -0.016024 -0.271001 -0.053644 0.050542 -0.238286 -0.050303 0.03153 -0.258885 -0.024506 0.051221 -0.190465 -0.001305 0.050046 -0.27094 -0.055876 0.088292 -0.328648 -0.059763 0.105336 -0.372533 -0.052485 0.094548 -0.241521 0.049604 0.032216 -0.272221 0.051634 0.052274 -0.256444 0.020592 0.051671 -0.270818 0.050875 0.087316 -0.333928 0.049627 0.103002 -0.368779 0.059687 0.098455 -0.320409 0.061861 0.101278 -0.399419 -0.033384 0.105169 -0.40186 0.001027 0.135122 -0.394841 -0.044939 0.179128 -0.398717 0.031439 0.106176 -0.376744 -0.069327 0.15653 -0.365605 -0.048075 0.201162 -0.297551 -0.047827 0.229543 -0.352513 -0.029831 0.215169 -0.38828 -0.048533 0.205831 -0.40482 -0.000724 0.212606 -0.37235 -0.020939 0.226247 -0.340398 0.000853 0.277364 -0.39066 0.047197 0.204732 -0.395268 0.043783 0.177617 -0.3635 0.036169 0.206197 -0.315801 0.044279 0.216665 -0.329778 0.070299 0.205709 -0.376225 0.067346 0.161962 -0.249059 0.064737 0.11704 -0.271764 -0.067907 0.148122 -0.335179 -0.071913 0.201833 -0.301793 -0.057352 0.219197 -0.258244 -0.027783 0.086492 -0.250066 -0.067175 0.12119 -0.213963 -0.037497 0.138372 -0.254643 0.027777 0.092504 -0.213231 -0.023144 0.125097 -0.20435 -0.012861 0.15154 -0.225224 -0.00114 0.129201 -0.209752 0.029613 0.130407 -0.233739 0.048864 0.124822 -0.253758 0.05028 0.175801 -0.249455 -0.046991 0.185186 -0.246434 -0.043688 0.247548 -0.270146 -0.042536 0.278341 -0.280522 -0.022656 0.28301 -0.225285 -0.01881 0.252248 -0.24735 -0.001423 0.284291 -0.233464 0.031549 0.243947 -0.320043 -0.002997 0.286733 -0.273045 0.032553 0.278371 -0.29807 0.049539 0.225881 -0.221105 -0.02833 0.175283 -0.215367 0.001268 0.252492 -0.21433 -0.001834 0.190572 -0.210942 0.010572 0.169179 -0.234807 0.017822 0.202169 -0.234166 0.042795 0.176458 -0.191594 -0.048498 0.014692 -0.080815 -0.032019 -0.020987 -0.126103 -0.029596 0.015668 -0.19196 -0.031717 0.015668 -0.134404 -0.002866 0.034391 -0.076146 -0.005161 0.012853 -0.129979 0.027593 0.016545 -0.192052 0.004691 0.038091 -0.191319 0.044561 0.01827 -0.191197 0.032686 0.010701 0.225505 -0.033564 -0.029734 0.093906 0.029419 0.002095 -0.05325 0.026129 0.008039 0.090425 0.016353 0.017026 0.052834 -0.004049 0.021978 -0.015775 -0.026508 0.011457 0.116241 -0.030625 0.00179 0.226756 0.028597 -0.042948 0.225886 0.033674 -0.030087 0.219401 0.023781 0.007482 0.13795 0.008737 -0.052463 0.226192 -0.028938 -0.042725 0.232432 -0.020674 -0.059755 0.248805 0.034941 -0.044968 0.226024 -0.046709 -0.002349 0.244243 -0.031408 -0.046834 0.26971 0.01155 -0.057405 0.247096 -0.044069 -0.003592 0.277278 -0.034811 -0.048555 0.218898 -0.026074 0.006574 0.222758 -0.014854 0.026303 0.243922 -0.005852 0.020879 0.22343 0.040144 0.011914 0.266124 -0.005462 0.024564 0.292232 -0.039412 0.000661 0.238719 0.038771 0.004003 0.25172 0.033125 0.010946 0.273845 0.045198 -0.006953 0.279796 0.036928 -0.043993 0.300731 0.042005 0.002118 0.296474 0.005853 0.020871 0.308925 -0.023056 0.016561 0.336513 -0.011278 0.021604 0.328151 0.040605 -0.002597 0.298015 0.044329 -0.030818 0.305797 0.030352 -0.051731 0.33279 0.034025 -0.050206 0.312739 -0.026539 -0.047236 0.299464 -0.040735 -0.03243 0.326686 -0.038721 -0.002002 0.339259 0.01841 0.022039 0.363887 0.006147 0.02197 0.361598 0.043871 -0.007041 0.380061 0.040834 -0.015464 0.363338 0.037844 -0.046639 0.376399 0.012898 -0.046564 0.344783 0.030031 -0.04311 0.355281 -0.020769 -0.055192 0.368373 -0.037623 -0.039483 0.392665 -0.019642 -0.055304 0.340022 -0.036516 -0.042298 0.362361 -0.042509 -0.005683 0.385585 -0.034601 0.008878 0.387263 -0.010694 0.028981 0.395747 -0.04452 -0.019126 0.403255 -0.033938 -0.042996 0.406734 -0.037405 0.003686 0.410487 0.028551 -0.049668 0.42364 -0.029459 -0.051359 0.434474 -0.04389 -0.003974 0.450954 -0.033522 -0.05248 0.42657 -0.004214 0.021039 0.441218 -0.02886 0.019574 0.451717 0.036051 0.009458 0.401088 0.0031 0.020742 0.397517 0.033251 0.011502 0.398036 0.043287 -0.047808 0.412624 0.04664 -0.003753 0.423518 0.038553 -0.04025 0.444453 0.022703 -0.048998 0.449336 0.047384 -0.028819 0.423671 0.03245 -0.006251 0.448085 0.035147 -0.007716 0.450862 0.027973 -0.05864 0.476649 -0.012679 -0.059372 0.469722 -0.033064 -0.046119 0.466334 0.005992 -0.06032 0.467647 0.03681 -0.042324 0.500301 0.00305 -0.085074 0.47256 0.04669 -0.009154 0.495143 0.009163 -0.05624 0.481715 0.044512 -0.051274 0.491786 0.033525 -0.039763 0.483729 -0.005695 -0.085305 0.471065 -0.013824 -0.077834 0.517696 -0.011434 -0.103576 0.485774 -0.05068 -0.038636 0.458308 -0.048731 -0.004512 0.491023 -0.019428 -0.054431 0.51089 -0.009925 -0.074961 0.474879 -0.030378 0.005525 0.468562 0.000974 0.017133 0.469173 0.037901 0.017087 0.495082 -0.017605 0.020597 0.486659 0.001746 0.039144 0.468227 -0.010638 0.032827 0.497096 -0.016623 0.057935 0.492549 -0.034876 -0.040835 0.478603 0.029198 -0.002471 0.559901 0.031881 0.018979 0.497127 0.022028 0.015256 0.559901 -0.030487 -0.05788 0.559474 0.011966 -0.067406 0.559779 -0.04336 -0.026629 0.559779 0.042837 -0.034131 0.559962 -0.03067 0.022107 0.506679 0.010695 0.035367 0.517726 -0.013746 0.042295</float_array>
          <technique_common>
            <accessor source="#RockPickaxe-mesh-positions-array" count="251" stride="3">
              <param name="X" type="float"/>
              <param name="Y" type="float"/>
              <param name="Z" type="float"/>
            </accessor>
          </technique_common>
        </source>
        <source id="RockPickaxe-mesh-normals">
          <float_array id="RockPickaxe-mesh-normals-array" count="1494">-0.65955 -0.099974 -0.744982 -0.62517 -0.0271 -0.780018 -0.383986 0.052933 -0.92182 0.16552 0.9692 -0.18236 0.067129 0.983395 -0.168605 -0.738732 0.018195 -0.673754 0.030238 0.98579 -0.165238 0.014172 0.990538 -0.136502 -0.872953 -0.029587 -0.486907 0.013255 -0.99224 -0.123627 0.065888 -0.984592 -0.161976 0.064448 -0.985248 -0.158537 0.125726 -0.982874 -0.134727 0.901799 -0.421247 -0.09649 0.557452 -0.70111 0.444626 0.105974 -0.984283 -0.14127 0.31289 -0.917099 -0.247043 0.76119 -0.047875 0.64676 0.864833 0.055375 0.498996 0.883797 0.015936 0.467599 0.958178 0.012094 0.285919 0.06706 0.984272 -0.16344 0.079165 0.982645 -0.167757 0.959134 0.009888 0.282781 0.971511 0.019559 0.236187 0.648193 0.175117 0.741067 0.013027 0.990164 -0.139307 -0.884346 -0.00603 -0.466793 0.025518 0.994479 -0.101783 0.023154 0.990791 -0.133406 0.01244 0.993918 -0.10942 -0.961299 -0.000407 -0.275507 -0.962806 0.002798 -0.270181 0.030218 0.999351 -0.019609 -0.978655 0.005475 0.205437 -0.036119 0.998016 -0.051564 0.019028 0.998804 -0.045049 0.038946 0.997624 -0.056836 -0.829884 -0.007382 -0.557888 -0.999966 -0.005904 -0.005689 -0.847405 0.007058 -0.530901 -0.977123 0.003983 0.212636 0.042087 -0.997224 -0.061433 -0.006383 -0.997187 -0.074683 -0.022317 -0.993779 -0.10911 0.034849 -0.998831 -0.033485 0.00993 -0.990088 -0.140097 0.067832 -0.995483 -0.066421 0.054732 -0.99724 -0.05016 0.075395 -0.985733 -0.150489 0.966482 0.110922 0.231534 0.136076 0.454282 0.880404 0.968017 0.141171 0.207397 0.943862 -0.242886 -0.223899 0.973189 -0.027982 0.228298 0.863859 -0.051316 0.501112 0.83935 -0.103618 0.533625 0.955669 0.037628 -0.292028 0.950697 -0.305132 0.055406 0.916338 -0.060053 -0.395876 0.972627 -0.006665 -0.232276 -0.999879 -0.008213 -0.013176 -0.999679 -0.019608 0.016069 -0.175795 0.157783 -0.9717 -0.023102 -0.896389 -0.442666 -0.251167 -0.940232 -0.229955 0.110155 -0.970975 0.212306 -0.299877 -0.465987 0.832424 0.123037 -0.06354 0.990366 -0.999964 -0.006066 0.005924 -0.164236 0.151453 -0.974725 -0.993591 -0.016285 0.111858 -0.261618 0.327038 0.908076 -0.999965 -0.006886 0.004795 -0.073584 0.974333 -0.212743 -0.236945 0.969994 -0.054492 0.099408 0.909334 0.404017 -0.999634 0.023605 0.013196 -0.990102 0.136643 0.03204 -0.991245 0.125582 0.040784 -0.988879 0.139608 0.051269 0.013359 0.999595 -0.025112 0.044741 0.98297 0.178237 0.017647 -0.99975 -0.013727 0.038962 -0.986157 0.161171 -0.999806 -0.013731 0.014095 -0.996613 -0.078614 -0.024137 -0.996165 -0.084287 0.023465 -0.999538 -0.003596 0.030175 0.044186 -0.997952 -0.046257 0.038413 -0.998125 -0.047663 0.721117 -0.04663 -0.691243 0.108822 -0.675795 -0.729012 0.522005 0.113229 -0.845394 0.006153 0.072788 -0.997328 0.264448 -0.279318 -0.923065 0.086373 0.067465 -0.993976 0.386674 0.344277 -0.855544 0.271873 0.658128 -0.702106 0.124221 0.989873 -0.06871 0.999958 -0.009114 0.000392 0.999914 -0.005413 -0.011917 0.008623 -0.976551 -0.215114 0.984003 -0.11551 0.13563 0.998404 0.017147 0.053806 0.999459 -0.004762 -0.032529 -0.025018 0.94445 -0.3277 -0.022425 -0.111142 -0.993552 0.063039 -0.315184 -0.946934 0.132149 0.277453 -0.951607 0.222105 -0.328321 -0.918082 0.048319 -0.718547 -0.693798 0.134537 -0.00662 -0.990886 0.225099 0.265579 -0.937442 0.008941 0.637246 -0.770608 0.182134 0.854149 -0.48709 0.010141 0.967841 -0.251359 0.095886 0.994843 -0.033057 0.127813 -0.990702 0.046624 0.128354 -0.990624 0.046781 0.00861 -0.992546 0.121563 0.506439 -0.229951 0.831049 0.183886 -0.499404 0.84663 0.923286 -0.383353 -0.024158 0.002065 -0.998254 -0.059026 0.026913 -0.990512 -0.134769 -0.175347 -0.983238 0.049971 0.070936 0.996585 -0.042269 0.117049 0.990614 0.070588 0.114569 0.990572 0.075103 0.011365 0.990793 0.134905 0.54024 0.259022 0.800655 0.181023 0.481823 0.857366 0.020935 -0.011109 0.999719 0.890966 0.453333 -0.025853 -0.014245 0.999652 0.022223 0.011435 0.998507 0.053415 0.294456 0.938433 -0.18066 0.066394 -0.210802 -0.975272 -0.997158 0.014883 0.073856 -0.556947 -0.633643 0.536942 -0.540376 -0.838757 0.066937 -0.555553 -0.82745 0.081774 -0.990807 0.006076 0.135148 -0.995876 -0.088397 0.020395 -0.993037 -0.109109 0.044421 -0.96641 0.222425 0.128756 -0.592318 0.803463 0.060056 -0.497033 0.695324 0.519117 -0.687938 0.725661 -0.012564 -0.81927 -0.572103 -0.038671 -0.438612 -0.763977 0.473242 -0.351878 -0.397963 0.847235 -0.007091 -0.991268 -0.131674 0.16242 -0.671577 0.722914 -0.921433 -0.344295 0.180059 -0.98094 -0.18977 -0.041762 0.136411 -0.638903 0.757096 -0.519787 -0.293518 0.80229 -0.136717 -0.877554 0.459574 -0.959912 0.27865 -0.030373 -0.252363 0.229045 0.940134 -0.836562 -0.052607 0.545342 -0.985382 -0.016589 0.169547 0.340329 0.881611 0.327015 0.378413 0.908231 -0.178662 -0.250035 0.83255 0.494311 -0.248876 0.259244 0.933195 -0.374476 0.703756 0.603735 -0.578055 0.579361 0.574624 -0.796866 0.600616 -0.065307 -0.002416 0.997896 -0.064795 -0.62388 -0.742415 -0.244118 -0.093441 -0.959163 -0.266976 -0.001526 -0.982732 -0.185027 0.008324 -0.997877 -0.064598 -0.551772 -0.691123 0.466794 -0.301845 -0.360421 0.882602 -0.699066 0.695558 -0.165848 -0.037332 0.991584 -0.123963 0.908557 -0.414125 -0.054988 0.007841 -0.980366 -0.19703 -0.21036 -0.957875 -0.195513 0.480919 -0.796811 0.365799 0.663404 -0.469891 -0.582321 0.679698 -0.348527 -0.645399 0.997785 -0.062083 -0.023901 0.99796 -0.053671 -0.034572 0.565886 -0.575194 -0.590699 0.942909 -0.250785 -0.219157 0.559431 0.43635 -0.704724 0.786207 0.01589 -0.61776 0.951153 -0.031815 -0.307077 -0.138346 0.108209 -0.984455 0.624994 -0.285953 -0.72637 0.825638 0.548325 -0.1329 0.550597 0.489979 -0.675842 0.680252 0.32928 -0.654852 0.582601 0.785969 0.206951 0.640873 0.731961 0.231334 0.678964 0.335033 -0.65327 0.337428 0.907478 0.250251 0.0662 0.884863 -0.461123 -0.016809 0.994295 -0.105332 -0.241565 0.131453 -0.96144 -0.991548 0.127129 0.025904 -0.293693 -0.640219 0.709833 0.307898 -0.932296 0.189799 0.464167 -0.73828 0.489379 0.063192 -0.996762 0.049732 0.053091 -0.995529 0.078126 -0.734715 -0.49293 0.466063 0.768841 0.26456 0.582144 -0.384362 -0.782043 0.490585 0.443954 -0.515829 0.732684 -0.360836 -0.80658 0.468215 0.399295 -0.662075 0.634208 0.855 0.216544 0.471258 -0.362517 -0.814543 0.452881 0.035855 -0.1159 0.992613 -0.097774 0.82772 0.552557 0.562111 0.535003 0.630716 0.028778 0.192666 0.980842 -0.477101 0.74165 0.471519 0.207209 0.955407 0.210386 -0.465285 0.752894 0.465468 -0.483229 0.106334 0.869013 0.360061 0.872048 0.331494 0.482122 -0.854768 0.192172 0.320581 -0.894436 0.31179 0.30207 -0.952612 0.035822 0.915392 -0.311851 0.254571 0.744789 -0.656126 0.121608 0.834467 -0.474962 0.279422 0.89131 -0.441535 0.103022 -0.258583 0.116079 0.958989 0.964217 -0.263484 0.029348 0.850068 -0.142522 0.507022 0.967782 -0.251682 0.007315 0.975558 0.183911 0.120261 0.684871 0.728235 -0.025012 0.865859 0.466372 -0.18107 0.740839 0.523461 0.420886 0.998881 -0.043861 -0.017699 0.767562 0.450119 0.456335 0.807739 0.518985 0.279666 0.223651 0.961787 0.157941 0.358077 0.93055 -0.076533 0.330807 0.892739 0.305915 0.235342 -0.969757 -0.064695 0.055497 -0.997353 0.046978 0.996488 -0.083717 -0.001498 0.296695 -0.577097 0.760875 0.054855 -0.989581 -0.133118 0.046585 -0.991302 0.123084 0.999422 0.020208 0.02733 0.99749 0.025595 -0.066021 0.031843 -0.988735 0.14625 0.018351 -0.569783 0.82159 0.285517 -0.488764 0.824373 0.326301 0.442117 0.8355 -0.014097 -0.524378 0.851369 0.992957 0.06394 -0.099744 0.119551 0.488912 0.864102 0.976643 -0.109781 -0.184708 0.274286 0.551089 0.788079 0.119073 0.990379 0.070503 0.164876 0.986179 0.016314 0.999664 -0.005825 0.025252 0.999961 0.008256 0.003166 -0.010026 0.699462 0.714599 0.989257 0.142843 0.031079 0.075051 0.993962 0.080044 0.027155 0.989372 0.142848 0.050117 0.986248 -0.15749 0.086126 -0.980736 -0.175326 -0.016291 -0.91221 -0.4094 -0.017777 0.993778 0.109953 0.038816 0.982716 0.181002 0.009853 0.751366 0.659812 0.111244 0.071103 0.991246 -0.038953 0.302897 0.952227 -0.070848 0.202123 0.976794 -0.066177 -0.250319 0.965899 0.03701 0.039368 0.998539 0.031829 -0.99396 0.105029 -0.002634 -0.996481 0.083773 -0.035037 0.936026 -0.350183 -0.037103 0.928648 -0.369102 -0.012925 0.996807 0.07879 0.032212 0.965149 0.259712 -0.078438 0.136035 -0.987594 -0.0181 0.496676 -0.867747 -0.025027 -0.499742 -0.865813 -0.00498 -0.261164 -0.965282 -0.019168 -0.941561 -0.336297 0.107618 -0.004908 -0.99418 -0.940156 0.007896 -0.340653 -0.172319 0.300178 -0.938189 0.113297 -0.909549 -0.399855 0.72501 -0.030499 -0.688063 -0.313073 -0.851303 -0.421033 -0.462843 0.056703 -0.884625 0.102517 -0.952808 -0.28574 -0.071349 -0.198255 -0.97755 -0.112625 -0.955582 -0.272358 0.033655 -0.977594 0.207793 0.012658 -0.84594 0.533127 0.019216 -0.471673 0.881564 -0.01602 -0.979955 0.198572 0.099747 0.057325 0.99336 0.074867 -0.018914 0.997014 0.005481 0.751897 0.659257 -0.844157 -0.489368 -0.218902 -0.95325 -0.279077 -0.115893 -0.791716 -0.451398 0.411613 -0.98206 0.006476 0.188458 0.424992 -0.580866 0.694245 -0.909351 0.115665 0.399628 0.139692 0.249029 0.958369 -0.960071 0.262555 -0.096585 0.115846 -0.528771 0.840822 -0.15733 0.974608 -0.159332 -0.288071 0.883903 -0.368416 -0.128287 -0.542322 0.830319 -0.01623 -0.58393 0.811642 0.453933 0.361012 0.814626 0.055013 0.996263 -0.066587 -0.160089 0.332791 0.929312 0.394134 0.919006 0.0093 -0.408083 0.164583 0.897987 -0.445442 0.893785 0.052251 0.41024 0.435853 0.801084 -0.055245 0.972555 -0.22602 -0.002198 0.467932 -0.883762 -0.210996 0.539334 0.815229 0.177868 0.966099 -0.187126 0.788689 0.011406 -0.614687 -0.066191 0.465583 0.882525 0.260437 -0.413868 0.872288 -0.466734 -0.323724 0.82302 -0.098349 -0.188051 0.977223 0.174049 0.437208 0.882358 -0.435142 0.894899 0.099028 0.050959 0.838984 -0.541764 0.851256 0.523697 -0.033244 -0.268107 0.07051 -0.960805 -0.119252 0.968024 -0.220701 0.053868 -0.072117 -0.99594 0.206135 -0.792051 -0.574599 -0.076141 -0.965282 -0.249865 0.463203 -0.809476 -0.36082 0.096765 -0.993444 0.060867 0.023513 -0.998707 0.045068 0.067216 -0.729889 0.680253 0.171702 0.439042 0.881907 -0.882099 0.074775 0.465091 -0.004296 -0.014253 0.999889 0.29751 0.593286 0.747997 0.01553 0.746338 0.665386 0.416812 0.569891 0.708161 0.095515 0.98471 -0.14568 0.78659 0.410449 -0.461311 -0.13219 0.944487 -0.300782 -0.408264 0.899631 -0.154868 0.218421 0.111444 -0.96947 -0.254123 0.173768 -0.951434 0.632294 -0.205158 -0.74707 -0.52692 -0.035312 -0.849181 -0.66796 0.03872 -0.743189 0.048597 -0.660555 -0.749203 0.363544 0.926954 -0.09269 0.027495 0.990569 -0.134227 0.49725 -0.046146 -0.866379 0.143274 -0.095739 -0.985041 0.06584 -0.070608 -0.995329 -0.314365 -0.936515 -0.155286 -0.023993 -0.988815 -0.147207 -0.114524 -0.989149 -0.092028 0.36074 -0.930015 -0.070275 0.008634 -0.65387 0.756558 0.15682 -0.675727 0.720279 0.293997 -0.479228 0.826987 -0.357791 -0.452895 0.816622 -0.562124 -0.508814 0.652015 0.22017 -0.794905 -0.565377 -0.369323 -0.910022 0.18831 -0.458468 -0.750036 -0.47671 -0.047428 -0.946849 0.318163 0.684426 -0.721541 -0.104595 0.652892 -0.154729 -0.741479 -0.368305 -0.056457 -0.927989 0.100642 -0.644449 0.757995 0.082145 -0.947998 -0.307492 -0.241415 -0.96892 -0.053969 -0.1525 -0.95461 -0.255857 0.114854 -0.513296 0.850491 -0.728806 -0.463134 0.50433 0.27234 0.105008 0.956454 -0.125339 -0.39981 0.907988 0.649927 -0.216206 0.728595 0.238794 0.310274 0.920167 -0.010625 0.371704 0.92829 -0.245193 0.13528 -0.959989 -0.007581 0.118917 -0.992875 -0.759989 0.525455 -0.382509 0.765918 0.632791 0.113779 0.165933 0.972075 0.165939 -0.445166 0.744506 0.497531 -0.424227 0.849089 -0.314769 -0.758044 0.618073 -0.208219 0.507281 0.139808 -0.850365 0.368097 0.48706 0.792008 -0.279208 0.154304 -0.947752 0.136449 0.610725 -0.779998 0.708312 0.456666 0.538285 0.793586 0.599496 0.104042 -0.017681 0.59609 0.802723 -0.455926 0.7814 0.426083 -0.097627 0.97949 0.176263 0.075111 0.300301 0.950883 -0.816255 -0.058789 -0.574693 -0.032315 0.058057 -0.99779 -0.842013 0.431401 -0.323894 -0.18268 -0.098265 -0.97825 0.272511 -0.587818 -0.761714 -0.598402 -0.366761 -0.712321 0.084721 0.837056 -0.540519 0.51099 0.417121 -0.751598 -0.499215 0.452697 -0.738817 0.291605 0.904061 -0.312474 0.702462 0.711277 -0.025135 -0.551235 0.818445 -0.162135 -0.507046 -0.071947 -0.858911 0.673528 0.731142 0.108588 0.844966 0.374602 -0.381714 -0.644792 0.413967 -0.642553 -0.369582 0.716011 -0.592231 -0.845352 -0.452617 0.283756 0.496622 -0.862562 -0.096712 -0.326147 -0.886656 -0.327826 0.732603 0.010467 0.680576 -0.153379 -0.501457 -0.851479 -0.573819 -0.702032 -0.421763 0.130625 -0.93912 -0.317789 0.087131 -0.460973 -0.883126 -0.188436 -0.80898 -0.556815 0.731503 -0.062451 0.678972 -0.242797 -0.711828 -0.659053 -0.197552 -0.942767 -0.268632 -0.15238 -0.81272 0.562376 0.271601 -0.638867 0.719779 0.519618 -0.720394 0.45938 0.362108 -0.258613 0.895543 -0.09621 0.168445 0.981005 -0.401146 0.007778 0.915981 -0.38115 -0.387566 0.839355 -0.772604 0.013574 0.634743 -0.433578 -0.719939 -0.541939 -0.597678 0.650547 0.468582 -0.234598 -0.971341 0.038201 -0.538686 0.433157 0.722629 0.87325 -0.323671 0.364241 0.748427 -0.394974 -0.532779 0.838458 0.421597 0.345319 -0.162771 0.843799 0.511379 0.480405 0.863655 -0.152683 0.882592 0.399565 0.247747 -0.222806 0.93269 0.283631 -0.424162 0.904608 0.042086 -0.358566 0.816623 0.452279 -0.82012 0.553698 0.144296 -0.301951 0.591945 -0.74728 0.77325 0.634089 0.003892 -0.083837 -0.218977 -0.972122 -0.169287 -0.037918 -0.984837 -0.143108 -0.661804 -0.735891 -0.036146 -0.923973 -0.380747 -0.166959 0.536483 -0.827231 0.999861 0.006622 -0.015308 -0.044067 0.732582 -0.679251 0.999996 0.002257 -0.001832 -0.140677 0.987926 0.064899 -0.134392 -0.989914 0.044822 -0.052394 -0.966355 0.251819 0.999935 -0.011391 -0.000789 -0.147857 -0.647884 0.747251 0.999999 0.000937 -0.00076 -0.013189 0.049928 0.998666 -0.080087 0.137183 0.987303 0.391379 0.609756 0.689217 -0.246822 0.789399 0.562075 0.872645 -0.109173 -0.475996 0.049215 0.292911 0.954872 0.151345 -0.98832 0.01783 0.321843 0.760201 0.564369 0.6793 0.100995 -0.726878 -0.085363 0.975765 0.201485</float_array>
          <technique_common>
            <accessor source="#RockPickaxe-mesh-normals-array" count="498" stride="3">
              <param name="X" type="float"/>
              <param name="Y" type="float"/>
              <param name="Z" type="float"/>
            </accessor>
          </technique_common>
        </source>
        <source id="RockPickaxe-mesh-map-0">
          <float_array id="RockPickaxe-mesh-map-0-array" count="2988">0.815918 0.524414 0.867676 0.488281 0.832031 0.60498 0.867676 0.488281 0.815918 0.524414 0.851562 0.485352 0.867676 0.488281 0.851562 0.485352 0.877441 0.442383 0.877441 0.442383 0.851562 0.485352 0.833008 0.483398 0.833008 0.483398 0.851562 0.485352 0.815918 0.524414 0.815918 0.524414 0.832031 0.60498 0.766113 0.585449 0.815918 0.524414 0.766113 0.585449 0.72998 0.543457 0.72998 0.543457 0.766113 0.585449 0.678711 0.591064 0.766113 0.585449 0.832031 0.60498 0.81958 0.688477 0.81958 0.688477 0.832031 0.60498 0.87915 0.677002 0.832764 0.04541 0.87085 0.028564 0.866455 0.132324 0.87085 0.028564 0.832764 0.04541 0.817383 0.012451 0.832764 0.04541 0.866455 0.132324 0.830811 0.06665 0.817383 0.012451 0.832764 0.04541 0.812012 0.04541 0.812012 0.04541 0.832764 0.04541 0.830811 0.06665 0.830811 0.06665 0.866455 0.132324 0.846924 0.126953 0.846924 0.126953 0.866455 0.132324 0.846924 0.166748 0.846924 0.126953 0.846924 0.166748 0.806885 0.127441 0.846924 0.126953 0.806885 0.127441 0.830811 0.06665 0.830811 0.06665 0.806885 0.127441 0.783936 0.085938 0.830811 0.06665 0.783936 0.085938 0.812012 0.04541 0.783936 0.085938 0.806885 0.127441 0.780518 0.130371 0.783936 0.085938 0.780518 0.130371 0.762939 0.054443 0.783936 0.085938 0.762939 0.054443 0.812012 0.04541 0.812012 0.04541 0.762939 0.054443 0.817383 0.012451 0.817383 0.012451 0.762939 0.054443 0.751953 0.044922 0.751953 0.044922 0.762939 0.054443 0.685059 0.015137 0.734375 0.170166 0.734131 0.112061 0.763428 0.116211 0.753662 0.063721 0.734131 0.112061 0.747314 0.061035 0.747314 0.061035 0.734131 0.112061 0.727783 0.060547 0.727783 0.060547 0.734131 0.112061 0.695801 0.109131 0.734131 0.112061 0.734375 0.170166 0.697754 0.171387 0.734131 0.112061 0.697754 0.171387 0.695801 0.109131 0.727783 0.060547 0.695801 0.109131 0.68042 0.105225 0.68042 0.105225 0.695801 0.109131 0.697754 0.171387 0.712158 0.051025 0.727783 0.060547 0.650146 0.023682 0.650146 0.023682 0.727783 0.060547 0.68042 0.105225 0.650146 0.023682 0.68042 0.105225 0.64624 0.10376 0.64624 0.10376 0.68042 0.105225 0.649902 0.174072 0.64624 0.10376 0.649902 0.174072 0.630371 0.156006 0.649902 0.174072 0.68042 0.105225 0.68335 0.174805 0.68335 0.174805 0.68042 0.105225 0.697754 0.171387 0.649902 0.174072 0.68335 0.174805 0.68457 0.234375 0.68335 0.174805 0.697754 0.171387 0.71875 0.194336 0.71875 0.194336 0.697754 0.171387 0.734375 0.170166 0.68335 0.174805 0.71875 0.194336 0.68457 0.234375 0.71875 0.194336 0.734375 0.170166 0.752441 0.224365 0.71875 0.194336 0.752441 0.224365 0.729248 0.2229 0.68457 0.234375 0.71875 0.194336 0.719727 0.220215 0.719727 0.220215 0.71875 0.194336 0.729248 0.2229 0.729248 0.2229 0.752441 0.224365 0.734619 0.245361 0.729248 0.2229 0.734619 0.245361 0.719727 0.220215 0.734619 0.245361 0.752441 0.224365 0.759766 0.275879 0.734619 0.245361 0.759766 0.275879 0.750977 0.277588 0.734619 0.245361 0.750977 0.277588 0.730469 0.283936 0.719727 0.220215 0.734619 0.245361 0.720215 0.258057 0.720215 0.258057 0.734619 0.245361 0.730469 0.283936 0.719727 0.220215 0.720215 0.258057 0.68457 0.234375 0.720215 0.258057 0.730469 0.283936 0.715576 0.28418 0.720215 0.258057 0.715576 0.28418 0.68457 0.234375 0.68457 0.234375 0.715576 0.28418 0.696533 0.295654 0.705811 0.509033 0.756348 0.508789 0.656494 0.581787 0.567627 0.572754 0.656494 0.581787 0.679688 0.611084 0.705811 0.509033 0.656494 0.581787 0.635986 0.551514 0.635986 0.551514 0.656494 0.581787 0.567627 0.572754 0.635986 0.551514 0.567627 0.572754 0.58374 0.512207 0.58374 0.512207 0.567627 0.572754 0.543945 0.487793 0.58374 0.512207 0.543945 0.487793 0.592285 0.476562 0.592285 0.476562 0.543945 0.487793 0.618652 0.426514 0.635986 0.551514 0.58374 0.512207 0.667725 0.499512 0.635986 0.551514 0.667725 0.499512 0.705811 0.509033 0.58374 0.512207 0.592285 0.476562 0.629639 0.459961 0.629639 0.459961 0.592285 0.476562 0.618652 0.426514 0.58374 0.512207 0.629639 0.459961 0.667725 0.499512 0.705811 0.509033 0.667725 0.499512 0.674561 0.45874 0.674561 0.45874 0.667725 0.499512 0.629639 0.459961 0.674561 0.45874 0.629639 0.459961 0.618652 0.426514 0.705811 0.509033 0.674561 0.45874 0.756348 0.508789 0.674561 0.45874 0.618652 0.426514 0.664795 0.420898 0.674561 0.45874 0.664795 0.420898 0.756348 0.508789 0.664795 0.420898 0.618652 0.426514 0.615234 0.390381 0.756348 0.508789 0.664795 0.420898 0.763184 0.350586 0.763184 0.350586 0.664795 0.420898 0.685059 0.367676 0.859131 0.267334 0.758545 0.207275 0.902344 0.161133 0.859131 0.267334 0.902344 0.161133 0.919189 0.242676 0.758545 0.207275 0.859131 0.267334 0.807861 0.268799 0.807861 0.268799 0.859131 0.267334 0.83374 0.30835 0.83374 0.30835 0.859131 0.267334 0.859619 0.31543 0.83374 0.30835 0.859619 0.31543 0.842285 0.366455 0.889648 0.491943 0.895264 0.512939 0.869385 0.520264 0.895264 0.512939 0.889648 0.491943 0.905518 0.491699 0.905518 0.491699 0.889648 0.491943 0.892578 0.483398 0.905518 0.491699 0.892578 0.483398 0.912598 0.480713 0.892578 0.483398 0.889648 0.491943 0.885986 0.462402 0.892578 0.483398 0.885986 0.462402 0.890869 0.466309 0.912598 0.480713 0.892578 0.483398 0.908447 0.468506 0.908447 0.468506 0.892578 0.483398 0.890869 0.466309 0.890869 0.466309 0.885986 0.462402 0.90918 0.458984 0.890869 0.466309 0.90918 0.458984 0.908447 0.468506 0.90918 0.458984 0.885986 0.462402 0.890625 0.44751 0.912598 0.480713 0.908447 0.468506 0.914062 0.474854 0.912598 0.480713 0.914062 0.474854 0.919434 0.480957 0.919434 0.480957 0.914062 0.474854 0.92749 0.471436 0.908447 0.468506 0.90918 0.458984 0.912109 0.463867 0.908447 0.468506 0.912109 0.463867 0.914062 0.474854 0.912109 0.463867 0.90918 0.458984 0.912354 0.452881 0.912109 0.463867 0.912354 0.452881 0.926514 0.457031 0.914062 0.474854 0.912109 0.463867 0.93042 0.4646 0.914062 0.474854 0.93042 0.4646 0.92749 0.471436 0.93042 0.4646 0.912109 0.463867 0.926514 0.457031 0.92749 0.471436 0.93042 0.4646 0.952393 0.4646 0.952393 0.4646 0.93042 0.4646 0.967285 0.457275 0.967285 0.457275 0.93042 0.4646 0.970459 0.446289 0.93042 0.4646 0.926514 0.457031 0.943115 0.454346 0.93042 0.4646 0.943115 0.454346 0.970459 0.446289 0.943115 0.454346 0.926514 0.457031 0.952393 0.447021 0.943115 0.454346 0.952393 0.447021 0.970459 0.446289 0.69165 0.999756 0.659668 0.999756 0.68042 0.995361 0.065186 0.910156 0.069092 0.948242 0.020752 0.962158 0.065186 0.910156 0.020752 0.962158 0.040771 0.906738 0.069092 0.948242 0.065186 0.910156 0.121826 0.934326 0.065186 0.910156 0.040771 0.906738 0.054932 0.892334 0.054932 0.892334 0.040771 0.906738 0.019287 0.866455 0.065186 0.910156 0.054932 0.892334 0.08252 0.893555 0.065186 0.910156 0.08252 0.893555 0.121826 0.934326 0.121826 0.934326 0.08252 0.893555 0.121582 0.897217 0.121826 0.934326 0.121582 0.897217 0.139648 0.91748 0.659668 0.966309 0.695557 0.921631 0.700928 0.955811 0.700928 0.955811 0.695557 0.921631 0.735352 0.931396 0.735352 0.931396 0.695557 0.921631 0.73291 0.908936 0.73291 0.908936 0.695557 0.921631 0.693848 0.86084 0.735352 0.931396 0.73291 0.908936 0.754395 0.921875 0.735352 0.931396 0.754395 0.921875 0.78125 0.953857 0.78125 0.953857 0.754395 0.921875 0.794434 0.927734 0.754395 0.921875 0.73291 0.908936 0.747559 0.892822 0.747559 0.892822 0.73291 0.908936 0.732666 0.853027 0.732666 0.853027 0.73291 0.908936 0.693848 0.86084 0.732666 0.853027 0.693848 0.86084 0.713867 0.838379 0.732666 0.853027 0.713867 0.838379 0.734131 0.842041 0.341553 0.895264 0.340332 0.928223 0.281494 0.912598 0.244141 0.903564 0.281494 0.912598 0.264893 0.950195 0.281494 0.912598 0.244141 0.903564 0.242188 0.864502 0.281494 0.912598 0.242188 0.864502 0.273926 0.853516 0.281494 0.912598 0.273926 0.853516 0.341553 0.895264 0.341553 0.895264 0.273926 0.853516 0.303223 0.820557 0.303223 0.820557 0.273926 0.853516 0.253174 0.783936 0.341553 0.895264 0.303223 0.820557 0.33667 0.843994 0.341553 0.895264 0.33667 0.843994 0.378174 0.888184 0.341553 0.895264 0.378174 0.888184 0.370605 0.93457 0.378174 0.888184 0.33667 0.843994 0.377197 0.842529 0.063965 0.040527 0.060791 0.072266 0.027588 0.012451 0.060791 0.072266 0.063965 0.040527 0.097168 0.064453 0.149902 0.042725 0.124268 0.081543 0.097168 0.064453 0.060791 0.072266 0.097168 0.064453 0.087402 0.080322 0.087402 0.080322 0.097168 0.064453 0.124268 0.081543 0.060791 0.072266 0.087402 0.080322 0.082031 0.119629 0.060791 0.072266 0.082031 0.119629 0.036133 0.146973 0.087402 0.080322 0.124268 0.081543 0.11499 0.102783 0.087402 0.080322 0.11499 0.102783 0.082031 0.119629 0.11499 0.102783 0.124268 0.081543 0.166016 0.137695 0.036133 0.146973 0.082031 0.119629 0.085449 0.164307 0.085449 0.164307 0.082031 0.119629 0.11499 0.102783 0.085449 0.164307 0.11499 0.102783 0.166016 0.137695 0.036133 0.146973 0.085449 0.164307 0.057617 0.178955 0.085449 0.164307 0.166016 0.137695 0.101807 0.18457 0.085449 0.164307 0.101807 0.18457 0.057617 0.178955 0.101807 0.18457 0.166016 0.137695 0.136719 0.212402 0.101807 0.18457 0.136719 0.212402 0.110352 0.229248 0.057617 0.178955 0.101807 0.18457 0.056885 0.210449 0.056885 0.210449 0.101807 0.18457 0.110352 0.229248 0.057617 0.178955 0.056885 0.210449 0.022217 0.216797 0.056885 0.210449 0.110352 0.229248 0.085449 0.327881 0.54126 0.974854 0.581543 0.974854 0.574707 0.994873 0.010742 0.300537 0.048096 0.304932 0.005615 0.352051 0.005615 0.352051 0.048096 0.304932 0.089355 0.352783 0.005615 0.352051 0.089355 0.352783 0.03418 0.39917 0.005615 0.352051 0.03418 0.39917 0.000244 0.390625 0.000244 0.390625 0.03418 0.39917 0.028809 0.431641 0.615479 0.974854 0.654541 0.974854 0.649902 1 0.00708 0.54126 0.04248 0.519043 0.074463 0.564453 0.646973 0.718262 0.659912 0.695801 0.689453 0.712891 0.741455 0.681152 0.741943 0.736328 0.689453 0.712891 0.741455 0.681152 0.689453 0.712891 0.706543 0.68335 0.741455 0.681152 0.706543 0.68335 0.683838 0.647705 0.683838 0.647705 0.706543 0.68335 0.689453 0.712891 0.683838 0.647705 0.689453 0.712891 0.659912 0.695801 0.659912 0.695801 0.646973 0.718262 0.603271 0.678955 0.603271 0.678955 0.646973 0.718262 0.608887 0.709229 0.683838 0.647705 0.659912 0.695801 0.662598 0.650391 0.683838 0.647705 0.662598 0.650391 0.661377 0.630859 0.662598 0.650391 0.659912 0.695801 0.639648 0.651611 0.639648 0.651611 0.659912 0.695801 0.603271 0.678955 0.661377 0.630859 0.662598 0.650391 0.612549 0.633301 0.612549 0.633301 0.662598 0.650391 0.639648 0.651611 0.612549 0.633301 0.639648 0.651611 0.603271 0.678955 0.603271 0.678955 0.608887 0.709229 0.575684 0.689453 0.612549 0.633301 0.603271 0.678955 0.585449 0.644043 0.585449 0.644043 0.603271 0.678955 0.575684 0.689453 0.612549 0.633301 0.585449 0.644043 0.568115 0.593994 0.568115 0.593994 0.585449 0.644043 0.566162 0.653564 0.566162 0.653564 0.585449 0.644043 0.575684 0.689453 0.568115 0.593994 0.566162 0.653564 0.525146 0.533936 0.566162 0.653564 0.575684 0.689453 0.530273 0.712646 0.566162 0.653564 0.530273 0.712646 0.461426 0.73999 0.530273 0.712646 0.575684 0.689453 0.523926 0.725586 0.553711 0.999512 0.509766 0.999512 0.523682 0.978271 0.548828 0.375732 0.62207 0.378174 0.563232 0.385742 0.601074 0.388428 0.567139 0.452881 0.563232 0.385742 0.563232 0.385742 0.567139 0.452881 0.548828 0.375732 0.548828 0.375732 0.567139 0.452881 0.503174 0.433838 0.548828 0.375732 0.503174 0.433838 0.499756 0.398438 0.548828 0.375732 0.499756 0.398438 0.479248 0.384033 0.479248 0.384033 0.499756 0.398438 0.503174 0.433838 0.548828 0.375732 0.479248 0.384033 0.528809 0.297363 0.479248 0.384033 0.503174 0.433838 0.46167 0.450928 0.528809 0.297363 0.479248 0.384033 0.447266 0.310791 0.479248 0.384033 0.46167 0.450928 0.446289 0.413574 0.446289 0.413574 0.46167 0.450928 0.391113 0.452881 0.447266 0.310791 0.479248 0.384033 0.44458 0.340332 0.44458 0.340332 0.479248 0.384033 0.446289 0.413574 0.447266 0.310791 0.44458 0.340332 0.351807 0.340576 0.446289 0.413574 0.391113 0.452881 0.407227 0.397217 0.446289 0.413574 0.407227 0.397217 0.44458 0.340332 0.44458 0.340332 0.407227 0.397217 0.351807 0.340576 0.407227 0.397217 0.391113 0.452881 0.344727 0.361328 0.407227 0.397217 0.344727 0.361328 0.351807 0.340576 0.351807 0.340576 0.344727 0.361328 0.327148 0.32251 0.327148 0.32251 0.344727 0.361328 0.272217 0.350586 0.128174 0.345947 0.178223 0.306885 0.198242 0.389893 0.178223 0.306885 0.128174 0.345947 0.129639 0.235107 0.128174 0.345947 0.198242 0.389893 0.055664 0.397705 0.055664 0.397705 0.198242 0.389893 0.154785 0.418945 0.055664 0.397705 0.154785 0.418945 0.060791 0.44458 0.154785 0.418945 0.198242 0.389893 0.196777 0.429443 0.060791 0.44458 0.154785 0.418945 0.076172 0.474121 0.060791 0.44458 0.076172 0.474121 0.062012 0.52417 0.076172 0.474121 0.154785 0.418945 0.147949 0.457031 0.154785 0.418945 0.196777 0.429443 0.180908 0.465088 0.154785 0.418945 0.180908 0.465088 0.147949 0.457031 0.180908 0.465088 0.196777 0.429443 0.230469 0.481689 0.076172 0.474121 0.147949 0.457031 0.135498 0.495117 0.076172 0.474121 0.135498 0.495117 0.062012 0.52417 0.135498 0.495117 0.147949 0.457031 0.180908 0.465088 0.062012 0.52417 0.135498 0.495117 0.17749 0.513672 0.17749 0.513672 0.135498 0.495117 0.180908 0.465088 0.17749 0.513672 0.180908 0.465088 0.230469 0.481689 0.062012 0.52417 0.17749 0.513672 0.101807 0.578613 0.17749 0.513672 0.230469 0.481689 0.18457 0.538574 0.17749 0.513672 0.18457 0.538574 0.101807 0.578613 0.681152 0.815918 0.623535 0.847168 0.633545 0.820801 0.623535 0.847168 0.681152 0.815918 0.680908 0.844482 0.681152 0.815918 0.633545 0.820801 0.659668 0.806885 0.680908 0.844482 0.681152 0.815918 0.719238 0.814209 0.652832 0.736572 0.659668 0.806885 0.627686 0.773926 0.659668 0.806885 0.652832 0.736572 0.686523 0.75708 0.681152 0.815918 0.659668 0.806885 0.688477 0.805664 0.681152 0.815918 0.688477 0.805664 0.719238 0.814209 0.688477 0.805664 0.659668 0.806885 0.686523 0.75708 0.688477 0.805664 0.686523 0.75708 0.711182 0.766602 0.711182 0.766602 0.686523 0.75708 0.708984 0.734863 0.711182 0.766602 0.708984 0.734863 0.742188 0.755859 0.688477 0.805664 0.711182 0.766602 0.723145 0.80542 0.688477 0.805664 0.723145 0.80542 0.719238 0.814209 0.723145 0.80542 0.711182 0.766602 0.742188 0.755859 0.719238 0.814209 0.723145 0.80542 0.755371 0.814697 0.719238 0.814209 0.755371 0.814697 0.763184 0.8479 0.763184 0.8479 0.755371 0.814697 0.797852 0.847168 0.797852 0.847168 0.755371 0.814697 0.79126 0.80249 0.755371 0.814697 0.723145 0.80542 0.752441 0.802979 0.755371 0.814697 0.752441 0.802979 0.79126 0.80249 0.752441 0.802979 0.723145 0.80542 0.742188 0.755859 0.79126 0.80249 0.752441 0.802979 0.777832 0.797119 0.777832 0.797119 0.752441 0.802979 0.742188 0.755859 0.777832 0.797119 0.742188 0.755859 0.792236 0.691895 0.777832 0.797119 0.792236 0.691895 0.821777 0.75708 0.385742 0.998535 0.373779 0.990234 0.395264 0.994385 0.385742 0.998535 0.395264 0.994385 0.458008 0.996338 0.834229 0.93335 0.892822 0.873047 0.916748 0.885742 0.916748 0.885742 0.892822 0.873047 0.953613 0.859375 0.834229 0.93335 0.916748 0.885742 0.845703 0.947754 0.916748 0.885742 0.953613 0.859375 0.945312 0.896973 0.845703 0.947754 0.916748 0.885742 0.875 0.94751 0.875 0.94751 0.916748 0.885742 0.945312 0.896973 0.875 0.94751 0.945312 0.896973 0.925049 0.943848 0.925049 0.943848 0.945312 0.896973 0.982666 0.906494 0.925049 0.943848 0.982666 0.906494 0.968262 0.950439 0.375 0.832764 0.26416 0.773926 0.446777 0.839355 0.973389 0.223389 0.935059 0.252686 0.970215 0.138428 0.970215 0.138428 0.935059 0.252686 0.960693 0.13623 0.960693 0.13623 0.935059 0.252686 0.919678 0.192871 0.960693 0.13623 0.919678 0.192871 0.939209 0.130859 0.171143 0.940918 0.247559 0.938965 0.229736 0.958496 0.171143 0.940918 0.229736 0.958496 0.114014 0.948242 0.915283 0.168945 0.90625 0.131592 0.919189 0.001221 0.919189 0.001221 0.90625 0.131592 0.893555 0.056396 0.233398 0.70459 0.233398 0.872559 0.224854 0.704346 0.953125 0.696777 0.884521 0.633789 0.93042 0.58252 0.93042 0.58252 0.884521 0.633789 0.909424 0.584473 0.909424 0.584473 0.884521 0.633789 0.857422 0.621826 0.93042 0.58252 0.909424 0.584473 0.95459 0.549072 0.909424 0.584473 0.857422 0.621826 0.903564 0.565918 0.909424 0.584473 0.903564 0.565918 0.95459 0.549072 0.903564 0.565918 0.857422 0.621826 0.850098 0.582764 0.95459 0.549072 0.903564 0.565918 0.936279 0.531006 0.903564 0.565918 0.850098 0.582764 0.878906 0.537598 0.903564 0.565918 0.878906 0.537598 0.936279 0.531006 0.95166 0.02002 0.929932 0.063721 0.934326 0.012207 0.929932 0.063721 0.95166 0.02002 0.928711 0.123779 0.928711 0.123779 0.95166 0.02002 0.971436 0.098145 0.67334 0.930176 0.575195 0.94751 0.52417 0.92749 0.606689 0.01416 0.624023 0.098389 0.608398 0.120605 0.624023 0.098389 0.606689 0.01416 0.637939 0.017578 0.624023 0.098389 0.637939 0.017578 0.636719 0.097168 0.911377 0.407959 0.93457 0.424072 0.944092 0.432861 0.93457 0.424072 0.911377 0.407959 0.929688 0.385498 0.929688 0.385498 0.911377 0.407959 0.913086 0.369141 0.929688 0.385498 0.913086 0.369141 0.93335 0.331787 0.913086 0.369141 0.911377 0.407959 0.887695 0.362061 0.93335 0.331787 0.913086 0.369141 0.915527 0.31958 0.915527 0.31958 0.913086 0.369141 0.887695 0.362061 0.93335 0.331787 0.915527 0.31958 0.944336 0.291748 0.887695 0.362061 0.911377 0.407959 0.884277 0.409668 0.944336 0.291748 0.915527 0.31958 0.912354 0.264893 0.944336 0.291748 0.912354 0.264893 0.947266 0.277832 0.887695 0.362061 0.884277 0.409668 0.861572 0.357422 0.861572 0.357422 0.884277 0.409668 0.835205 0.4021 0.915527 0.31958 0.887695 0.362061 0.897461 0.313721 0.915527 0.31958 0.897461 0.313721 0.912354 0.264893 0.897461 0.313721 0.887695 0.362061 0.861572 0.357422 0.912354 0.264893 0.897461 0.313721 0.880127 0.312988 0.880127 0.312988 0.897461 0.313721 0.861572 0.357422 0.31958 0.264648 0.384277 0.318848 0.283691 0.307373 0.31958 0.264648 0.283691 0.307373 0.21167 0.276611 0.384277 0.318848 0.31958 0.264648 0.388916 0.262939 0.384277 0.318848 0.388916 0.262939 0.437256 0.289062 0.31958 0.264648 0.21167 0.276611 0.311279 0.213867 0.31958 0.264648 0.311279 0.213867 0.388916 0.262939 0.437256 0.289062 0.388916 0.262939 0.518799 0.260498 0.311279 0.213867 0.21167 0.276611 0.237793 0.219971 0.237793 0.219971 0.21167 0.276611 0.148193 0.213379 0.237793 0.219971 0.148193 0.213379 0.191406 0.186279 0.237793 0.219971 0.191406 0.186279 0.224365 0.142578 0.311279 0.213867 0.237793 0.219971 0.313965 0.163574 0.388916 0.262939 0.311279 0.213867 0.370117 0.224609 0.388916 0.262939 0.370117 0.224609 0.41748 0.221436 0.41748 0.221436 0.370117 0.224609 0.311279 0.213867 0.388916 0.262939 0.41748 0.221436 0.518799 0.260498 0.41748 0.221436 0.311279 0.213867 0.421387 0.172363 0.518799 0.260498 0.41748 0.221436 0.501221 0.197266 0.518799 0.260498 0.501221 0.197266 0.541504 0.215332 0.518799 0.260498 0.541504 0.215332 0.610352 0.298584 0.541504 0.215332 0.501221 0.197266 0.575684 0.150146 0.610352 0.298584 0.541504 0.215332 0.602539 0.216797 0.602539 0.216797 0.541504 0.215332 0.575684 0.150146 0.602539 0.216797 0.575684 0.150146 0.631348 0.174561 0.24585 0.112549 0.164551 0.112305 0.153564 0.065918 0.24585 0.112549 0.153564 0.065918 0.199951 0.062256 0.199951 0.062256 0.153564 0.065918 0.19873 0.003662 0.199951 0.062256 0.19873 0.003662 0.262451 0.05127 0.199951 0.062256 0.262451 0.05127 0.24585 0.112549 0.262451 0.05127 0.19873 0.003662 0.287598 0.011719 0.262451 0.05127 0.287598 0.011719 0.322998 0.05542 0.322998 0.05542 0.287598 0.011719 0.362061 0.019287 0.24585 0.112549 0.262451 0.05127 0.321777 0.09668 0.321777 0.09668 0.262451 0.05127 0.322998 0.05542 0.322998 0.05542 0.362061 0.019287 0.407471 0.067627 0.322998 0.05542 0.407471 0.067627 0.321777 0.09668 0.407471 0.067627 0.362061 0.019287 0.44751 0.04126 0.44751 0.04126 0.362061 0.019287 0.414062 0.000244 0.321777 0.09668 0.407471 0.067627 0.438232 0.101562 0.438232 0.101562 0.407471 0.067627 0.44751 0.04126 0.24585 0.112549 0.321777 0.09668 0.319092 0.124268 0.24585 0.112549 0.319092 0.124268 0.223389 0.133545 0.319092 0.124268 0.321777 0.09668 0.438232 0.101562 0.319092 0.124268 0.438232 0.101562 0.426514 0.153564 0.319092 0.124268 0.426514 0.153564 0.334717 0.168945 0.426514 0.153564 0.438232 0.101562 0.504883 0.131592 0.438232 0.101562 0.44751 0.04126 0.502441 0.064209 0.438232 0.101562 0.502441 0.064209 0.504883 0.131592 0.502441 0.064209 0.44751 0.04126 0.531006 0.021484 0.504883 0.131592 0.502441 0.064209 0.567871 0.116699 0.504883 0.131592 0.567871 0.116699 0.550049 0.1521 0.567871 0.116699 0.502441 0.064209 0.597656 0.061035 0.597656 0.061035 0.502441 0.064209 0.531006 0.021484 0.597656 0.061035 0.531006 0.021484 0.584229 0.014404 0.365234 0.498291 0.415283 0.462646 0.441406 0.519531 0.415283 0.462646 0.365234 0.498291 0.321777 0.458496 0.365234 0.498291 0.441406 0.519531 0.402832 0.533936 0.321777 0.458496 0.365234 0.498291 0.31665 0.502686 0.31665 0.502686 0.365234 0.498291 0.402832 0.533936 0.402832 0.533936 0.441406 0.519531 0.516357 0.555176 0.402832 0.533936 0.516357 0.555176 0.411621 0.570557 0.321777 0.458496 0.31665 0.502686 0.267578 0.437256 0.402832 0.533936 0.411621 0.570557 0.316406 0.559814 0.402832 0.533936 0.316406 0.559814 0.31665 0.502686 0.316406 0.559814 0.411621 0.570557 0.395508 0.61084 0.31665 0.502686 0.316406 0.559814 0.237061 0.522705 0.237061 0.522705 0.316406 0.559814 0.26123 0.571045 0.237061 0.522705 0.26123 0.571045 0.15625 0.569092 0.31665 0.502686 0.237061 0.522705 0.242188 0.467285 0.31665 0.502686 0.242188 0.467285 0.267578 0.437256 0.267578 0.437256 0.242188 0.467285 0.206299 0.420654 0.267578 0.437256 0.206299 0.420654 0.238525 0.386963 0.022461 0.572998 0.086182 0.61377 0.067871 0.671875 0.022461 0.572998 0.067871 0.671875 0.0271 0.684082 0.067871 0.671875 0.086182 0.61377 0.13208 0.68042 0.0271 0.684082 0.067871 0.671875 0.13501 0.752197 0.13501 0.752197 0.067871 0.671875 0.13208 0.68042 0.13501 0.752197 0.13208 0.68042 0.216309 0.735596 0.267822 0.618164 0.196289 0.63208 0.184082 0.595703 0.267822 0.618164 0.184082 0.595703 0.307373 0.583252 0.184082 0.595703 0.196289 0.63208 0.076904 0.585693 0.267822 0.618164 0.307373 0.583252 0.343994 0.676514 0.076904 0.585693 0.196289 0.63208 0.150146 0.65918 0.150146 0.65918 0.196289 0.63208 0.197266 0.696777 0.267822 0.618164 0.343994 0.676514 0.263184 0.649902 0.267822 0.618164 0.263184 0.649902 0.196289 0.63208 0.263184 0.649902 0.343994 0.676514 0.248535 0.692871 0.197266 0.696777 0.196289 0.63208 0.248535 0.692871 0.248535 0.692871 0.196289 0.63208 0.263184 0.649902 0.916992 0.841553 0.971436 0.766602 0.965576 0.827148 0.210449 0.82666 0.124023 0.8396 0.113037 0.825928 0.124023 0.8396 0.210449 0.82666 0.216064 0.873047 0.113037 0.825928 0.124023 0.8396 0.080322 0.874023 0.210449 0.82666 0.113037 0.825928 0.143066 0.779297 0.210449 0.82666 0.143066 0.779297 0.205078 0.79834 0.143066 0.779297 0.113037 0.825928 0.122559 0.795654 0.113037 0.825928 0.080322 0.874023 0.080322 0.820557 0.113037 0.825928 0.080322 0.820557 0.122559 0.795654 0.122559 0.795654 0.080322 0.820557 0.092041 0.739258 0.080322 0.820557 0.080322 0.874023 0.041748 0.867676 0.092041 0.739258 0.080322 0.820557 0.054443 0.772217 0.080322 0.820557 0.041748 0.867676 0.05542 0.817139 0.080322 0.820557 0.05542 0.817139 0.054443 0.772217 0.05542 0.817139 0.041748 0.867676 0.031494 0.808105 0.05542 0.817139 0.031494 0.808105 0.054443 0.772217 0.375244 0.95459 0.333496 0.991699 0.345459 0.962891 0.333496 0.991699 0.375244 0.95459 0.359131 0.999512 0.375244 0.95459 0.345459 0.962891 0.337158 0.937012 0.337158 0.937012 0.345459 0.962891 0.333496 0.991699 0.337158 0.937012 0.333496 0.991699 0.278809 0.997314 0.337158 0.937012 0.278809 0.997314 0.27832 0.949219 0.438232 0.928467 0.478516 0.882568 0.477783 0.92334 0.477783 0.92334 0.478516 0.882568 0.536377 0.890869 0.477783 0.92334 0.536377 0.890869 0.501465 0.938721 0.478516 0.882568 0.438232 0.928467 0.428223 0.899414 0.428223 0.899414 0.438232 0.928467 0.385254 0.915283 0.428223 0.899414 0.385254 0.915283 0.388916 0.882568 0.385254 0.915283 0.438232 0.928467 0.38501 0.949219 0.872314 0.748535 0.842285 0.739014 0.865967 0.689941 0.842285 0.739014 0.872314 0.748535 0.83374 0.775635 0.83374 0.775635 0.872314 0.748535 0.875732 0.782715 0.875732 0.782715 0.872314 0.748535 0.900391 0.741699 0.83374 0.775635 0.875732 0.782715 0.849121 0.82373 0.83374 0.775635 0.849121 0.82373 0.807129 0.849121 0.807129 0.849121 0.849121 0.82373 0.826172 0.858887 0.849121 0.82373 0.875732 0.782715 0.892334 0.814209 0.826172 0.858887 0.849121 0.82373 0.869873 0.855469 0.849121 0.82373 0.892334 0.814209 0.87207 0.834961 0.849121 0.82373 0.87207 0.834961 0.869873 0.855469 0.87207 0.834961 0.892334 0.814209 0.910889 0.858154 0.87207 0.834961 0.910889 0.858154 0.869873 0.855469 0.163818 0.013916 0.099854 0.050781 0.091064 0.026611 0.091064 0.026611 0.099854 0.050781 0.063721 0.012451 0.822021 0.410645 0.87793 0.419189 0.82959 0.432617 0.773926 0.314697 0.822021 0.410645 0.797363 0.390381 0.797363 0.390381 0.822021 0.410645 0.79834 0.429932 0.79834 0.429932 0.822021 0.410645 0.82959 0.432617 0.79834 0.429932 0.82959 0.432617 0.799561 0.454346 0.799561 0.454346 0.82959 0.432617 0.815918 0.465088 0.815918 0.465088 0.82959 0.432617 0.83667 0.463867 0.799561 0.454346 0.815918 0.465088 0.771729 0.513184 0.455322 0.982178 0.506592 0.982178 0.489258 0.999756 0.594238 0.97583 0.626221 0.999023 0.585205 1 0.354248 0.684082 0.446045 0.688965 0.360107 0.740967 0.360107 0.740967 0.446045 0.688965 0.445068 0.727051 0.446045 0.688965 0.354248 0.684082 0.443115 0.661865 0.443115 0.661865 0.354248 0.684082 0.354736 0.639648 0.360107 0.740967 0.445068 0.727051 0.457764 0.763672 0.354248 0.684082 0.360107 0.740967 0.311768 0.776123 0.311768 0.776123 0.360107 0.740967 0.457764 0.763672 0.354248 0.684082 0.311768 0.776123 0.244141 0.753662 0.311768 0.776123 0.457764 0.763672 0.420166 0.817627 0.540771 0.745361 0.609375 0.756592 0.609375 0.853027 0.540771 0.745361 0.609375 0.853027 0.540283 0.865967 0.540283 0.865967 0.609375 0.853027 0.651367 0.874023 0.540771 0.745361 0.540283 0.865967 0.517334 0.776855 0.540283 0.865967 0.651367 0.874023 0.453369 0.870605 0.540283 0.865967 0.453369 0.870605 0.517334 0.776855 0.517334 0.776855 0.453369 0.870605 0.46167 0.782471 0.95459 0.492432 0.979492 0.46167 0.978027 0.515381 0.95459 0.492432 0.978027 0.515381 0.953369 0.521973 0.95459 0.492432 0.953369 0.521973 0.912598 0.511963 0.953369 0.521973 0.978027 0.515381 0.970215 0.553467 0.046387 0.755615 0.010498 0.761475 0.032227 0.714111 0.010498 0.761475 0.046387 0.755615 0.023438 0.798584 0.046387 0.755615 0.032227 0.714111 0.076172 0.731445 0.98291 0.729004 0.910645 0.828369 0.909424 0.711182</float_array>
          <technique_common>
            <accessor source="#RockPickaxe-mesh-map-0-array" count="1494" stride="2">
              <param name="S" type="float"/>
              <param name="T" type="float"/>
            </accessor>
          </technique_common>
        </source>
        <vertices id="RockPickaxe-mesh-vertices">
          <input semantic="POSITION" source="#RockPickaxe-mesh-positions"/>
        </vertices>
        <polylist material="Material_-1-material" count="6">
          <input semantic="VERTEX" source="#RockPickaxe-mesh-vertices" offset="0"/>
          <input semantic="NORMAL" source="#RockPickaxe-mesh-normals" offset="1"/>
          <input semantic="TEXCOORD" source="#RockPickaxe-mesh-map-0" offset="2" set="0"/>
          <vcount>3 3 3 3 3 3 3 3 3 3 3 3 3 3 3 3 3 3 3 3 3 3 3 3 3 3 3 3 3 3 3 3 3 3 3 3 3 3 3 3 3 3 3 3 3 3 3 3 3 3 3 3 3 3 3 3 3 3 3 3 3 3 3 3 3 3 3 3 3 3 3 3 3 3 3 3 3 3 3 3 3 3 3 3 3 3 3 3 3 3 3 3 3 3 3 3 3 3 3 3 3 3 3 3 3 3 3 3 3 3 3 3 3 3 3 3 3 3 3 3 3 3 3 3 3 3 3 3 3 3 3 3 3 3 3 3 3 3 3 3 3 3 3 3 3 3 3 3 3 3 3 3 3 3 3 3 3 3 3 3 3 3 3 3 3 3 3 3 3 3 3 3 3 3 3 3 3 3 3 3 3 3 3 3 3 3 3 3 3 3 3 3 3 3 3 3 3 3 3 3 3 3 3 3 3 3 3 3 3 3 3 3 3 3 3 3 3 3 3 3 3 3 3 3 3 3 3 3 3 3 3 3 3 3 3 3 3 3 3 3 3 3 3 3 3 3 3 3 3 3 3 3 3 3 3 3 3 3 3 3 3 3 3 3 3 3 3 3 3 3 3 3 3 3 3 3 3 3 3 3 3 3 3 3 3 3 3 3 3 3 3 3 3 3 3 3 3 3 3 3 3 3 3 3 3 3 3 3 3 3 3 3 3 3 3 3 3 3 3 3 3 3 3 3 3 3 3 3 3 3 3 3 3 3 3 3 3 3 3 3 3 3 3 3 3 3 3 3 3 3 3 3 3 3 3 3 3 3 3 3 3 3 3 3 3 3 3 3 3 3 3 3 3 3 3 3 3 3 3 3 3 3 3 3 3 3 3 3 3 3 3 3 3 3 3 3 3 3 3 3 3 3 3 3 3 3 3 3 3 3 3 3 3 3 3 3 3 3 3 3 3 3 3 3 3 3 3 3 3 3 3 3 3 3 3 3 3 3 3 3 3 3 3 3 3 3 3 3 3 3 3 3 3 3 3 3 3 3 3 3 3 3 3 3 3 3 3 3 3 3 3 3 3 3 3 3 3 3 3 3 3 3 3 3 3 3 3 3 3 3 3 3 3 3 3 3 3 3</vcount>
          <p>0 0 0 1 0 1 2 0 2 1 1 3 0 1 4 3 1 5 1 2 6 3 2 7 4 2 8 4 3 9 3 3 10 5 3 11 5 4 12 3 4 13 0 4 14 0 5 15 2 5 16 6 5 17 0 6 18 6 6 19 7 6 20 7 7 21 6 7 22 8 7 23 6 8 24 2 8 25 9 8 26 9 9 27 2 9 28 10 9 29 11 10 30 2 10 31 1 10 32 2 11 33 11 11 34 10 11 35 11 12 36 1 12 37 12 12 38 10 13 39 11 13 40 13 13 41 13 14 42 11 14 43 12 14 44 12 15 45 1 15 46 14 15 47 14 16 48 1 16 49 4 16 50 14 17 51 4 17 52 5 17 53 14 18 54 5 18 55 12 18 56 12 19 57 5 19 58 15 19 59 12 20 60 15 20 61 13 20 62 15 21 63 5 21 64 0 21 65 15 22 66 0 22 67 7 22 68 15 23 69 7 23 70 13 23 71 13 24 72 7 24 73 10 24 74 10 25 75 7 25 76 16 25 77 16 26 78 7 26 79 8 26 80 9 27 81 8 27 82 6 27 83 16 28 84 8 28 85 17 28 86 17 29 87 8 29 88 18 29 89 18 30 90 8 30 91 19 30 92 8 31 93 9 31 94 20 31 95 8 32 96 20 32 97 19 32 98 18 33 99 19 33 100 21 33 101 21 34 102 19 34 103 20 34 104 22 35 105 18 35 106 23 35 107 23 36 108 18 36 109 21 36 110 23 37 111 21 37 112 24 37 113 24 38 114 21 38 115 25 38 116 24 39 117 25 39 118 26 39 119 25 40 120 21 40 121 27 40 122 27 41 123 21 41 124 20 41 125 25 42 126 27 42 127 28 42 128 27 43 129 20 43 130 29 43 131 29 44 132 20 44 133 9 44 134 27 45 135 29 45 136 28 45 137 29 46 138 9 46 139 10 46 140 29 47 141 10 47 142 30 47 143 28 48 144 29 48 145 31 48 146 31 49 147 29 49 148 30 49 149 30 50 150 10 50 151 32 50 152 30 51 153 32 51 154 31 51 155 32 52 156 10 52 157 16 52 158 32 53 159 16 53 160 17 53 161 32 54 162 17 54 163 18 54 164 31 55 165 32 55 166 33 55 167 33 56 168 32 56 169 18 56 170 31 57 171 33 57 172 28 57 173 33 58 174 18 58 175 22 58 176 33 59 177 22 59 178 28 59 179 28 60 180 22 60 181 34 60 182 35 61 183 24 61 184 26 61 185 36 62 186 26 62 187 25 62 188 35 63 189 26 63 190 37 63 191 37 64 192 26 64 193 36 64 194 37 65 195 36 65 196 38 65 197 38 66 198 36 66 199 39 66 200 38 67 201 39 67 202 40 67 203 40 68 204 39 68 205 41 68 206 37 69 207 38 69 208 42 69 209 37 70 210 42 70 211 35 70 212 38 71 213 40 71 214 43 71 215 43 72 216 40 72 217 41 72 218 38 73 219 43 73 220 42 73 221 35 74 222 42 74 223 44 74 224 44 75 225 42 75 226 43 75 227 44 76 228 43 76 229 41 76 230 35 77 231 44 77 232 24 77 233 44 78 234 41 78 235 45 78 236 44 79 237 45 79 238 24 79 239 45 80 240 41 80 241 46 80 242 24 81 243 45 81 244 23 81 245 23 82 246 45 82 247 47 82 248 48 83 249 25 83 250 49 83 251 48 84 252 49 84 253 50 84 254 25 85 255 48 85 256 36 85 257 36 86 258 48 86 259 39 86 260 39 87 261 48 87 262 51 87 263 39 88 264 51 88 265 41 88 266 28 89 267 49 89 268 25 89 269 49 90 270 28 90 271 52 90 272 52 91 273 28 91 274 53 91 275 52 92 276 53 92 277 54 92 278 53 93 279 28 93 280 34 93 281 53 94 282 34 94 283 55 94 284 54 95 285 53 95 286 56 95 287 56 96 288 53 96 289 55 96 290 55 97 291 34 97 292 57 97 293 55 98 294 57 98 295 56 98 296 57 99 297 34 99 298 58 99 299 54 100 300 56 100 301 59 100 302 54 101 303 59 101 304 60 101 305 60 102 306 59 102 307 61 102 308 56 103 309 57 103 310 62 103 311 56 104 312 62 104 313 59 104 314 62 105 315 57 105 316 63 105 317 62 106 318 63 106 319 64 106 320 59 107 321 62 107 322 65 107 323 59 108 324 65 108 325 61 108 326 65 109 327 62 109 328 64 109 329 61 110 330 65 110 331 66 110 332 66 111 333 65 111 334 67 111 335 67 112 336 65 112 337 68 112 338 65 113 339 64 113 340 69 113 341 65 114 342 69 114 343 68 114 344 69 115 345 64 115 346 70 115 347 69 116 348 70 116 349 68 116 350 22 117 351 23 117 352 34 117 353 71 118 354 49 118 355 52 118 356 71 119 357 52 119 358 72 119 359 49 120 360 71 120 361 50 120 362 71 121 363 72 121 364 73 121 365 73 122 366 72 122 367 74 122 368 71 123 369 73 123 370 75 123 371 71 124 372 75 124 373 50 124 374 50 125 375 75 125 376 76 125 377 50 126 378 76 126 379 77 126 380 34 127 381 23 127 382 58 127 383 58 128 384 23 128 385 78 128 386 78 129 387 23 129 388 79 129 389 79 130 390 23 130 391 47 130 392 78 131 393 79 131 394 80 131 395 78 132 396 80 132 397 74 132 398 74 133 399 80 133 400 73 133 401 80 134 402 79 134 403 81 134 404 81 135 405 79 135 406 82 135 407 82 136 408 79 136 409 47 136 410 82 137 411 47 137 412 83 137 413 82 138 414 83 138 415 84 138 416 46 139 417 41 139 418 51 139 419 50 140 420 51 140 421 48 140 422 51 141 423 50 141 424 77 141 425 51 142 426 77 142 427 85 142 428 51 143 429 85 143 430 46 143 431 46 144 432 85 144 433 86 144 434 86 145 435 85 145 436 87 145 437 46 146 438 86 146 439 88 146 440 46 147 441 88 147 442 47 147 443 46 148 444 47 148 445 45 148 446 47 149 447 88 149 448 83 149 449 89 150 450 87 150 451 85 150 452 87 151 453 89 151 454 90 151 455 91 152 456 92 152 457 90 152 458 87 153 459 90 153 460 93 153 461 93 154 462 90 154 463 92 154 464 87 155 465 93 155 466 94 155 467 87 156 468 94 156 469 86 156 470 93 157 471 92 157 472 95 157 473 93 158 474 95 158 475 94 158 476 95 159 477 92 159 478 96 159 479 86 160 480 94 160 481 97 160 482 97 161 483 94 161 484 95 161 485 97 162 486 95 162 487 96 162 488 86 163 489 97 163 490 98 163 491 97 164 492 96 164 493 99 164 494 97 165 495 99 165 496 98 165 497 99 166 498 96 166 499 100 166 500 99 167 501 100 167 502 101 167 503 98 168 504 99 168 505 102 168 506 102 169 507 99 169 508 101 169 509 98 170 510 102 170 511 88 170 512 102 171 513 101 171 514 103 171 515 89 172 516 85 172 517 77 172 518 77 173 519 76 173 520 89 173 521 89 174 522 76 174 523 104 174 524 89 175 525 104 175 526 105 175 527 89 176 528 105 176 529 90 176 530 90 177 531 105 177 532 106 177 533 102 178 534 83 178 535 88 178 536 84 179 537 83 179 538 102 179 539 73 180 540 107 180 541 75 180 542 104 181 543 76 181 544 75 181 545 104 182 546 75 182 547 108 182 548 104 183 549 108 183 550 109 183 551 109 184 552 108 184 553 75 184 554 109 185 555 75 185 556 107 185 557 107 186 558 73 186 559 110 186 560 110 187 561 73 187 562 80 187 563 109 188 564 107 188 565 111 188 566 109 189 567 111 189 568 112 189 569 111 190 570 107 190 571 113 190 572 113 191 573 107 191 574 110 191 575 112 192 576 111 192 577 114 192 578 114 193 579 111 193 580 113 193 581 114 194 582 113 194 583 110 194 584 110 195 585 80 195 586 81 195 587 114 196 588 110 196 589 115 196 590 115 197 591 110 197 592 81 197 593 114 198 594 115 198 595 116 198 596 116 199 597 115 199 598 103 199 599 103 200 600 115 200 601 81 200 602 116 201 603 103 201 604 101 201 605 103 202 606 81 202 607 84 202 608 103 203 609 84 203 610 102 203 611 84 204 612 81 204 613 82 204 614 98 205 615 88 205 616 86 205 617 91 206 618 90 206 619 106 206 620 105 207 621 117 207 622 106 207 623 106 208 624 117 208 625 91 208 626 91 209 627 117 209 628 118 209 629 91 210 630 118 210 631 119 210 632 91 211 633 119 211 634 120 211 635 120 212 636 119 212 637 118 212 638 91 213 639 120 213 640 92 213 641 120 214 642 118 214 643 121 214 644 92 215 645 120 215 646 96 215 647 120 216 648 121 216 649 122 216 650 122 217 651 121 217 652 123 217 653 96 218 654 120 218 655 124 218 656 124 219 657 120 219 658 122 219 659 96 220 660 124 220 661 100 220 662 122 221 663 123 221 664 125 221 665 122 222 666 125 222 667 124 222 668 124 223 669 125 223 670 100 223 671 125 224 672 123 224 673 126 224 674 125 225 675 126 225 676 100 225 677 100 226 678 126 226 679 101 226 680 101 227 681 126 227 682 116 227 683 117 228 684 104 228 685 109 228 686 104 229 687 117 229 688 105 229 689 117 230 690 109 230 691 118 230 692 118 231 693 109 231 694 127 231 695 118 232 696 127 232 697 121 232 698 127 233 699 109 233 700 112 233 701 121 234 702 127 234 703 128 234 704 121 235 705 128 235 706 123 235 707 128 236 708 127 236 709 129 236 710 127 237 711 112 237 712 130 237 713 127 238 714 130 238 715 129 238 716 130 239 717 112 239 718 114 239 719 128 240 720 129 240 721 131 240 722 128 241 723 131 241 724 123 241 725 131 242 726 129 242 727 130 242 728 123 243 729 131 243 730 132 243 731 132 244 732 131 244 733 130 244 734 132 245 735 130 245 736 114 245 737 123 246 738 132 246 739 126 246 740 132 247 741 114 247 742 116 247 743 132 248 744 116 248 745 126 248 746 133 249 747 52 249 748 54 249 749 52 250 750 133 250 751 72 250 752 133 251 753 54 251 754 60 251 755 72 252 756 133 252 757 74 252 758 134 253 759 60 253 760 61 253 761 60 254 762 134 254 763 135 254 764 133 255 765 60 255 766 136 255 767 133 256 768 136 256 769 74 256 770 136 257 771 60 257 772 135 257 773 136 258 774 135 258 775 137 258 776 137 259 777 135 259 778 138 259 779 137 260 780 138 260 781 139 260 782 136 261 783 137 261 784 140 261 785 136 262 786 140 262 787 74 262 788 140 263 789 137 263 790 139 263 791 74 264 792 140 264 793 141 264 794 74 265 795 141 265 796 78 265 797 78 266 798 141 266 799 58 266 800 58 267 801 141 267 802 57 267 803 141 268 804 140 268 805 142 268 806 141 269 807 142 269 808 57 269 809 142 270 810 140 270 811 139 270 812 57 271 813 142 271 814 63 271 815 63 272 816 142 272 817 139 272 818 63 273 819 139 273 820 70 273 821 63 274 822 70 274 823 64 274 824 134 275 825 61 275 826 66 275 827 134 276 828 66 276 829 143 276 830 144 277 831 70 277 832 145 277 833 145 278 834 70 278 835 139 278 836 144 279 837 145 279 838 146 279 839 145 280 840 139 280 841 138 280 842 146 281 843 145 281 844 147 281 845 147 282 846 145 282 847 138 282 848 147 283 849 138 283 850 148 283 851 148 284 852 138 284 853 135 284 854 148 285 855 135 285 856 134 285 857 149 286 858 134 286 859 143 286 860 68 287 861 70 287 862 150 287 863 150 288 864 70 288 865 151 288 866 151 289 867 70 289 868 144 289 869 151 290 870 144 290 871 152 290 872 153 291 873 67 291 874 68 291 875 153 292 876 68 292 877 150 292 878 66 293 879 67 293 880 154 293 881 154 294 882 67 294 883 153 294 884 143 295 885 66 295 886 154 295 887 153 296 888 150 296 889 154 296 890 154 297 891 150 297 892 155 297 893 155 298 894 150 298 895 156 298 896 154 299 897 155 299 898 157 299 899 155 300 900 156 300 901 158 300 902 155 301 903 158 301 904 157 301 905 158 302 906 156 302 907 159 302 908 157 303 909 158 303 910 160 303 911 158 304 912 159 304 913 161 304 914 158 305 915 161 305 916 160 305 917 162 306 918 149 306 919 143 306 920 149 307 921 162 307 922 148 307 923 148 308 924 162 308 925 147 308 926 149 309 927 148 309 928 134 309 929 162 310 930 146 310 931 147 310 932 146 311 933 162 311 934 152 311 935 146 312 936 152 312 937 144 312 938 157 313 939 143 313 940 154 313 941 143 314 942 157 314 943 162 314 944 162 315 945 157 315 946 163 315 947 162 316 948 163 316 949 152 316 950 163 317 951 157 317 952 164 317 953 152 318 954 163 318 955 165 318 956 165 319 957 163 319 958 164 319 959 152 320 960 165 320 961 151 320 962 164 321 963 157 321 964 160 321 965 151 322 966 165 322 967 156 322 968 151 323 969 156 323 970 150 323 971 164 324 972 160 324 973 166 324 974 166 325 975 160 325 976 167 325 977 165 326 978 164 326 979 168 326 980 165 327 981 168 327 982 156 327 983 168 328 984 164 328 985 166 328 986 156 329 987 168 329 988 169 329 989 169 330 990 168 330 991 166 330 992 170 331 993 156 331 994 169 331 995 170 332 996 169 332 997 166 332 998 156 333 999 170 333 1000 171 333 1001 156 334 1002 171 334 1003 159 334 1004 170 335 1005 166 335 1006 172 335 1007 170 336 1008 172 336 1009 171 336 1010 159 337 1011 171 337 1012 161 337 1013 172 338 1014 166 338 1015 173 338 1016 173 339 1017 166 339 1018 167 339 1019 173 340 1020 167 340 1021 174 340 1022 173 341 1023 174 341 1024 175 341 1025 172 342 1026 173 342 1027 176 342 1028 171 343 1029 172 343 1030 177 343 1031 171 344 1032 177 344 1033 178 344 1034 178 345 1035 177 345 1036 172 345 1037 171 346 1038 178 346 1039 161 346 1040 178 347 1041 172 347 1042 179 347 1043 161 348 1044 178 348 1045 180 348 1046 161 349 1047 180 349 1048 181 349 1049 161 350 1050 181 350 1051 160 350 1052 181 351 1053 180 351 1054 182 351 1055 160 352 1056 181 352 1057 167 352 1058 167 353 1059 181 353 1060 182 353 1061 167 354 1062 182 354 1063 174 354 1064 176 355 1065 173 355 1066 175 355 1067 176 356 1068 175 356 1069 183 356 1070 183 357 1071 175 357 1072 184 357 1073 183 358 1074 184 358 1075 185 358 1076 183 359 1077 185 359 1078 176 359 1079 185 360 1080 184 360 1081 186 360 1082 185 361 1083 186 361 1084 187 361 1085 187 362 1086 186 362 1087 188 362 1088 176 363 1089 185 363 1090 189 363 1091 189 364 1092 185 364 1093 187 364 1094 187 365 1095 188 365 1096 190 365 1097 187 366 1098 190 366 1099 189 366 1100 190 367 1101 188 367 1102 191 367 1103 191 368 1104 188 368 1105 192 368 1106 189 369 1107 190 369 1108 193 369 1109 193 370 1110 190 370 1111 191 370 1112 176 371 1113 189 371 1114 179 371 1115 176 372 1116 179 372 1117 172 372 1118 179 373 1119 189 373 1120 193 373 1121 179 374 1122 193 374 1123 180 374 1124 179 375 1125 180 375 1126 178 375 1127 180 376 1128 193 376 1129 182 376 1130 193 377 1131 191 377 1132 194 377 1133 193 378 1134 194 378 1135 182 378 1136 194 379 1137 191 379 1138 195 379 1139 182 380 1140 194 380 1141 175 380 1142 182 381 1143 175 381 1144 174 381 1145 175 382 1146 194 382 1147 184 382 1148 184 383 1149 194 383 1150 195 383 1151 184 384 1152 195 384 1153 196 384 1154 197 385 1155 191 385 1156 192 385 1157 191 386 1158 197 386 1159 195 386 1160 197 387 1161 192 387 1162 198 387 1163 195 388 1164 197 388 1165 199 388 1166 199 389 1167 197 389 1168 198 389 1169 198 390 1170 192 390 1171 200 390 1172 198 391 1173 200 391 1174 201 391 1175 195 392 1176 199 392 1177 196 392 1178 198 393 1179 201 393 1180 202 393 1181 198 394 1182 202 394 1183 199 394 1184 202 395 1185 201 395 1186 203 395 1187 199 396 1188 202 396 1189 204 396 1190 204 397 1191 202 397 1192 205 397 1193 204 398 1194 205 398 1195 206 398 1196 199 399 1197 204 399 1198 207 399 1199 199 400 1200 207 400 1201 196 400 1202 196 401 1203 207 401 1204 208 401 1205 196 402 1206 208 402 1207 184 402 1208 192 403 1209 188 403 1210 209 403 1211 192 404 1212 209 404 1213 200 404 1214 209 405 1215 188 405 1216 186 405 1217 200 406 1218 209 406 1219 208 406 1220 208 407 1221 209 407 1222 186 407 1223 208 408 1224 186 408 1225 184 408 1226 210 409 1227 211 409 1228 200 409 1229 210 410 1230 200 410 1231 208 410 1232 200 411 1233 211 411 1234 201 411 1235 210 412 1236 208 412 1237 204 412 1238 201 413 1239 211 413 1240 212 413 1241 212 414 1242 211 414 1243 213 414 1244 210 415 1245 204 415 1246 214 415 1247 210 416 1248 214 416 1249 211 416 1250 214 417 1251 204 417 1252 215 417 1253 213 418 1254 211 418 1255 215 418 1256 215 419 1257 211 419 1258 214 419 1259 204 420 1260 208 420 1261 207 420 1262 203 421 1263 212 421 1264 216 421 1265 212 422 1266 203 422 1267 201 422 1268 216 423 1269 212 423 1270 213 423 1271 203 424 1272 216 424 1273 217 424 1274 203 425 1275 217 425 1276 218 425 1277 217 426 1278 216 426 1279 219 426 1280 216 427 1281 213 427 1282 220 427 1283 216 428 1284 220 428 1285 219 428 1286 219 429 1287 220 429 1288 221 429 1289 220 430 1290 213 430 1291 222 430 1292 221 431 1293 220 431 1294 223 431 1295 220 432 1296 222 432 1297 224 432 1298 220 433 1299 224 433 1300 223 433 1301 224 434 1302 222 434 1303 225 434 1304 224 435 1305 225 435 1306 223 435 1307 219 436 1308 226 436 1309 227 436 1310 226 437 1311 219 437 1312 221 437 1313 219 438 1314 227 438 1315 217 438 1316 217 439 1317 227 439 1318 226 439 1319 217 440 1320 226 440 1321 228 440 1322 217 441 1323 228 441 1324 221 441 1325 217 442 1326 229 442 1327 218 442 1328 218 443 1329 229 443 1330 230 443 1331 218 444 1332 230 444 1333 203 444 1334 229 445 1335 217 445 1336 231 445 1337 231 446 1338 217 446 1339 232 446 1340 231 447 1341 232 447 1342 223 447 1343 232 448 1344 217 448 1345 221 448 1346 230 449 1347 202 449 1348 203 449 1349 202 450 1350 230 450 1351 205 450 1352 205 451 1353 230 451 1354 233 451 1355 233 452 1356 230 452 1357 229 452 1358 205 453 1359 233 453 1360 234 453 1361 205 454 1362 234 454 1363 206 454 1364 206 455 1365 234 455 1366 235 455 1367 234 456 1368 233 456 1369 236 456 1370 235 457 1371 234 457 1372 237 457 1373 234 458 1374 236 458 1375 238 458 1376 234 459 1377 238 459 1378 237 459 1379 238 460 1380 236 460 1381 239 460 1382 238 461 1383 239 461 1384 237 461 1385 233 462 1386 229 462 1387 240 462 1388 240 463 1389 229 463 1390 231 463 1391 241 464 1392 225 464 1393 222 464 1394 242 465 1395 241 465 1396 243 465 1397 243 466 1398 241 466 1399 235 466 1400 235 467 1401 241 467 1402 222 467 1403 235 468 1404 222 468 1405 206 468 1406 206 469 1407 222 469 1408 215 469 1409 215 470 1410 222 470 1411 213 470 1412 206 471 1413 215 471 1414 204 471 1415 228 472 1416 226 472 1417 221 472 1418 221 473 1419 223 473 1420 232 473 1421 244 474 1422 231 474 1423 245 474 1424 245 475 1425 231 475 1426 223 475 1427 231 476 1428 244 476 1429 240 476 1430 240 477 1431 244 477 1432 246 477 1433 245 478 1434 223 478 1435 225 478 1436 244 479 1437 245 479 1438 247 479 1439 247 480 1440 245 480 1441 225 480 1442 244 481 1443 247 481 1444 242 481 1445 247 482 1446 225 482 1447 241 482 1448 233 483 1449 240 483 1450 246 483 1451 233 484 1452 246 484 1453 248 484 1454 248 485 1455 246 485 1456 244 485 1457 233 486 1458 248 486 1459 236 486 1460 248 487 1461 244 487 1462 242 487 1463 248 488 1464 242 488 1465 236 488 1466 236 489 1467 242 489 1468 243 489 1469 243 490 1470 235 490 1471 237 490 1472 243 491 1473 237 491 1474 249 491 1475 243 492 1476 249 492 1477 236 492 1478 249 493 1479 237 493 1480 250 493 1481 250 494 1482 239 494 1483 236 494 1484 239 495 1485 250 495 1486 237 495 1487 250 496 1488 236 496 1489 249 496 1490 247 497 1491 241 497 1492 242 497 1493</p>
        </polylist>
      </mesh>
    </geometry>
  </library_geometries>
  <library_visual_scenes>
    <visual_scene id="Scene" name="Scene">
      <node id="RockPickaxe" name="RockPickaxe" type="NODE">
        <scale sid="scale">1 1 1</scale>
        <translate sid="location">0 0 0</translate>
        <rotate sid="rotationX">1 0 0 0</rotate>
        <rotate sid="rotationY">0 1 0 0</rotate>
        <rotate sid="rotationZ">0 0 1 -90</rotate>
        <instance_geometry url="#RockPickaxe-mesh" name="RockPickaxe">
          <bind_material>
            <technique_common>
            </technique_common>
          </bind_material>
        </instance_geometry>
      </node>
    </visual_scene>
  </library_visual_scenes>
  <scene>
    <instance_visual_scene url="#Scene"/>
  </scene>
</COLLADA>
