<?xml version="1.0" encoding="utf-8"?>
<COLLADA xmlns="http://www.collada.org/2005/11/COLLADASchema" version="1.4.1" xmlns:xsi="http://www.w3.org/2001/XMLSchema-instance">
  <asset>
    <contributor>
      <author>Blockbench user</author>
      <authoring_tool>Blockbench</authoring_tool>
    </contributor>
    <created>2025-12-31T16:12:38.720Z</created>
    <modified>2025-12-31T16:12:38.720Z</modified>
    <unit name="meter" meter="1.0"/>
    <up_axis>Y_UP</up_axis>
  </asset>
  <library_effects>
  </library_effects>
  <library_images>
  </library_images>
  <library_materials>
  </library_materials>
  <library_geometries>
    <geometry id="Roofies-mesh" name="Roofies">
      <mesh>
        <source id="Roofies-mesh-positions">
          <float_array id="Roofies-mesh-positions-array" count="753">-0.009326 -0.091049 -0.3685 -0.000152 -0.079933 -0.49472 0.000371 -0.157318 -0.445251 0.007747 -0.101067 -0.385895 -0.010632 -0.034946 -0.386597 0.012341 -0.053272 -0.365875 -0.000768 -0.019835 -0.487946 -0.015236 0.021879 -0.333496 0.014073 0.008592 -0.35144 0.000326 0.013867 -0.495514 0.000302 0.082726 -0.491394 0.012577 0.03315 -0.341583 0.008107 -0.081947 -0.294525 0.031559 -0.044231 -0.263245 0.017826 -0.068497 -0.253021 -0.012573 -0.075134 -0.303864 -0.027491 -0.040051 -0.288116 -0.045795 -0.047604 -0.217743 -0.015534 -0.038109 -0.33786 0.000958 -0.173996 -0.291718 -0.003464 -0.115524 -0.160919 -0.000312 -0.110748 -0.256348 -0.000137 -0.198135 -0.316895 -0.006706 -0.146835 -0.11631 0.002807 -0.112724 -0.161423 -0.005051 -0.091331 -0.190094 0.031244 -0.079163 -0.189285 0.029291 0.014372 -0.294128 0.043358 0.015738 -0.238281 0.015345 0.054153 -0.268585 0.041065 0.058617 -0.191803 0.008197 0.074554 -0.37384 -0.000256 0.116882 -0.375031 -0.013548 0.061771 -0.299316 -0.030739 0.056786 -0.201248 0.002048 0.083023 -0.195755 -0.036423 0.024912 -0.255737 -0.000218 -0.225418 -0.171219 0.000275 -0.220123 -0.231964 -0.009396 -0.165314 -0.060188 -0.000493 -0.210617 -0.078156 0.008436 -0.164642 -0.070137 0.005771 -0.147552 -0.118889 -0.048771 -0.095398 -0.134521 -0.062576 -0.034626 -0.168335 0.060486 -0.054546 -0.163559 0.04427 -0.12278 -0.092766 -0.074974 -0.01421 -0.120888 -0.05312 0.057457 -0.1745 -0.067825 -0.093391 -0.081894 -0.091064 -0.011926 -0.066895 -0.073112 0.051361 -0.114143 -0.092651 -0.056618 -0.035946 -0.090752 0.06395 -0.044647 -0.104851 -0.045429 0.021515 -0.10659 0.04427 0.035076 0.075539 0.050175 -0.108604 0.072044 -0.055145 -0.112427 0.091133 -0.018972 -0.064835 0.087509 0.061058 -0.054447 0.078766 -0.097397 -0.041306 0.104454 0.01167 -0.003034 0.102928 -0.059116 0.027649 0.000006 0.093185 -0.269226 -0.002783 0.122765 -0.251038 -0.000999 0.16597 -0.330627 -0.003096 0.20697 -0.277344 0.002417 0.109528 -0.253326 0.00194 0.188049 -0.324982 -0.002758 0.10508 -0.183868 -0.003872 0.125122 -0.157928 -0.051552 0.113503 -0.111 -0.002672 0.149689 -0.117226 -0.000157 0.21814 -0.213898 -0.000246 0.227005 -0.143921 0.002535 0.154907 -0.108032 0.00183 0.209534 -0.258423 0.002946 0.129013 -0.150391 0.03371 0.131775 -0.118973 -0.000529 -0.180023 -0.031651 -0.056301 -0.138565 -0.029245 -0.025496 -0.162308 0.0208 -0.083115 -0.116264 0.044163 0.034527 -0.160461 0.023964 0.058544 -0.140366 -0.016514 -0.052479 -0.150803 0.070107 -0.103699 -0.085251 0.114693 -0.01672 -0.165665 0.109833 -0.082199 -0.121841 0.137833 -0.055786 -0.142532 0.180954 -0.183289 -0.016747 0.099335 -0.210678 -0.031643 0.0411 -0.232193 0.002318 0.004632 -0.176132 -0.025738 0.124969 -0.122993 -0.057217 0.196518 -0.18956 -0.063126 0.080185 -0.118393 -0.089302 0.194595 -0.142044 -0.052582 0.178436 -0.154968 -0.104012 0.138489 -0.092598 -0.074127 0.231293 -0.208954 0.017668 0.068169 -0.135071 -0.020258 0.20372 -0.109207 -0.017876 0.214752 -0.115303 -0.02154 0.100029 -0.113609 -0.005816 0.166901 -0.10791 0.073616 0.112488 -0.09771 -0.074173 0.190826 -0.104858 0.032303 0.208344 0.083237 -0.119377 0.074852 0.050461 -0.152634 0.118355 0.025158 -0.157715 0.172745 0.070786 -0.130646 0.173126 0.107094 -0.074448 0.111076 0.108971 -0.055222 0.163391 0.107361 0.067299 0.075027 0.11412 -0.004701 0.083282 0.112183 0.048698 0.145691 0.100517 -0.066544 0.194977 0.109627 -0.022318 0.21315 0.203033 0.015797 0.081528 0.230362 0.001089 0.006459 0.175079 -0.019659 0.115974 0.153091 -0.03801 0.167114 0.128036 -0.024603 0.204056 0.200912 -0.039425 0.056969 0.189453 -0.061779 0.079575 0.12072 -0.089584 0.195663 -0.040756 0.149338 -0.076332 -0.083374 0.100853 -0.016766 -0.092247 0.104698 0.048969 -0.06633 0.157425 0.040455 -0.081223 0.144501 0.119507 -0.043091 0.199478 0.142853 -0.043083 0.1772 0.004807 -0.006617 0.194443 -0.00488 -0.006766 0.213516 0.069847 -0.004593 0.173248 -0.06588 0.00009 0.247086 -0.069443 -0.000846 0.263275 0.02557 0.004697 0.20665 0.044327 0.006982 0.193512 -0.005672 0.03896 0.186935 0.026026 0.004531 0.173279 -0.067505 0.055611 0.141449 -0.047779 0.063286 0.156708 0.023684 0.073631 0.101044 -0.053162 0.089592 0.092285 -0.002239 0.092949 0.105553 0.0494 0.091377 0.114159 0.134491 0.085716 0.104889 0.198944 0.104027 0.042686 0.206223 0.087669 0.087158 0.23819 0.112015 0.028278 0.220261 -0.004751 0.209518 0.176605 -0.002422 0.202316 0.234192 -0.007857 0.21489 0.135193 0.000721 0.271179 0.066139 0 0.279755 0.110161 0.000737 0.246643 0.218323 0.004736 0.206528 0.200623 0.00887 0.210037 0.071388 0.004326 0.215668 0.102196 0.007046 0.212845 0.138672 0.042217 0.19722 0.1716 0.072151 0.1633 0.153122 0.052975 0.166763 0.25235 -0.03183 -0.187027 0.140472 -0.034798 -0.229752 0.089951 -0.044086 -0.278564 0.086037 -0.026581 -0.181839 0.098137 -0.018976 -0.159668 0.164703 -0.035686 -0.229095 0.156281 -0.020329 -0.161179 0.199158 -0.022017 -0.163239 0.222626 0.017796 -0.164627 0.184189 0.020746 -0.162079 0.227554 -0.014181 -0.147263 0.298859 -0.050247 -0.138245 0.264557 -0.039543 -0.117714 0.337097 -0.086449 -0.09182 0.286072 -0.101021 -0.031391 0.24527 -0.086021 -0.094551 0.209976 0.036709 -0.22818 0.078949 0.0359 -0.229523 0.150894 0.020746 -0.161545 0.212112 0.080002 -0.104767 0.215103 0.023279 -0.179794 0.103409 -0.107338 -0.045258 0.260376 -0.112709 0.017052 0.225006 -0.098717 -0.046597 0.317108 -0.094604 -0.090752 0.321594 -0.056904 -0.079926 0.407074 -0.047031 -0.101662 0.392273 -0.071716 -0.111145 0.329376 -0.000774 -0.105309 0.399414 0.030247 -0.149414 0.275299 0.04348 -0.119537 0.326355 0.030567 -0.093338 0.422211 0.056736 -0.111 0.364166 0.083214 -0.083794 0.264069 0.10157 -0.03273 0.241531 0.084167 -0.099419 0.300781 0.104408 -0.060963 0.268494 0.060341 -0.088104 0.380157 0.094498 -0.079033 0.311523 0.110748 -0.018297 0.248642 0.08326 -0.09697 0.35672 0.03825 -0.037159 0.474274 0.102173 -0.056942 0.317291 0.097183 0.021873 0.30368 0.086258 0.028177 0.346863 0.06488 -0.048855 0.419067 0.093773 0.060867 0.273346 0.082886 0.068932 0.309082 0.052841 0.142029 0.30719 0.067551 0.091995 0.341705 0.021812 0.124695 0.364929 0.041767 0.05843 0.400665 0.073997 0.082253 0.366791 0.066681 0.030865 0.386169 0.098984 0.053478 0.370819 -0.064606 -0.04319 0.416229 -0.085289 0.021343 0.352875 -0.096947 0.030754 0.302063 -0.062351 0.035473 0.391846 -0.021053 0.009263 0.4841 -0.093613 0.05735 0.375977 -0.083305 0.042034 0.333282 -0.042221 0.04974 0.405609 -0.071136 0.085533 0.351013 -0.021091 0.047634 0.446259 -0.035271 0.120529 0.358856 0.010469 0.067741 0.437286 0.022675 0.04464 0.44516 0.000389 -0.079483 0.435364 -0.025204 -0.088028 0.436646 0.006186 -0.046852 0.495087 -0.041672 -0.03809 0.47348 -0.057384 -0.024214 0.450348 -0.019167 -0.013175 0.497375 0.025993 -0.007477 0.496918 0.027891 0.007223 0.479187 -0.091652 0.105515 0.177292 -0.070618 0.157257 0.193329 -0.089241 0.081879 0.230316 -0.087952 0.081169 0.267548 -0.060951 0.143845 0.272186 -0.010141 0.196396 0.251648 -0.041157 0.152863 0.316193 0.002109 0.163162 0.323578 -0.087921 0.064911 0.294495</float_array>
          <technique_common>
            <accessor source="#Roofies-mesh-positions-array" count="251" stride="3">
              <param name="X" type="float"/>
              <param name="Y" type="float"/>
              <param name="Z" type="float"/>
            </accessor>
          </technique_common>
        </source>
        <source id="Roofies-mesh-normals">
          <float_array id="Roofies-mesh-normals-array" count="1494">-0.995427 -0.056138 -0.077294 0.995693 -0.045066 -0.081024 -0.995911 -0.047893 -0.076603 0.994636 -0.060446 -0.083934 -0.995307 0.000705 -0.096765 0.994662 0.021569 -0.100907 -0.995384 0.008674 -0.095585 0.994199 -0.002747 -0.107518 -0.995311 0.010722 -0.096131 0.993837 -0.053999 -0.096805 -0.995379 0.005389 -0.095874 0.991122 0.09691 -0.091021 0.996784 0.005132 -0.079975 0.986545 -0.160758 0.029753 0.994527 -0.102978 0.017631 0.998306 -0.038191 0.043892 0.898476 -0.274557 -0.342578 0.862602 -0.504413 -0.038533 -0.448945 -0.789777 0.417972 -0.99229 -0.122361 -0.019719 -0.487916 -0.521634 0.699883 -0.754991 -0.60158 -0.260939 -0.994448 -0.102276 -0.024773 -0.928063 -0.289424 -0.234378 -0.993018 -0.056517 -0.103546 -0.972268 0.02177 -0.232855 -0.994985 0.012166 -0.099287 -0.999451 -0.001564 -0.03309 -0.983856 0.148616 -0.099699 -0.998193 0.041617 -0.043334 0.998108 -0.059867 0.013989 0.998766 0.037965 -0.032027 -0.62095 -0.619649 -0.480059 -0.993032 -0.111419 -0.038376 0.948616 0.31547 -0.024602 0.261268 -0.737948 -0.622231 0.964624 -0.09272 -0.246785 0.966318 -0.089715 -0.241206 0.948886 0.165638 -0.268662 0.863573 0.449469 -0.228515 0.897858 0.412903 -0.152846 0.867813 0.385815 -0.313126 0.99652 0.062067 -0.055645 0.980386 0.194975 -0.028788 -0.338971 0.787957 0.514026 0.173404 0.981572 0.080292 -0.53308 0.748671 -0.394103 -0.964842 -0.001661 -0.262826 -0.967585 -0.007214 -0.252443 -0.927746 0.264691 -0.263107 -0.906547 0.398684 -0.138649 -0.993626 0.09459 -0.061327 -0.984923 0.164659 -0.053055 0.979577 0.194152 -0.052292 0.996423 0.056323 -0.063005 -0.997281 -0.07228 -0.014394 -0.997244 -0.072859 -0.014025 -0.99735 -0.039787 -0.060905 -0.97852 -0.204023 0.029557 0.979956 -0.196271 0.034111 0.9973 -0.032429 -0.065885 0.996986 -0.077576 0.001329 0.998671 -0.048514 -0.017404 0.998543 0.037038 -0.039256 -0.575242 -0.647429 -0.499931 -0.496952 -0.744718 -0.445459 -0.674285 -0.72309 -0.149934 -0.916124 -0.332622 -0.223784 -0.949296 -0.040647 -0.311744 0.261039 -0.737891 -0.622396 0.754126 -0.586023 -0.296432 0.675885 -0.601898 -0.425321 0.745353 -0.614021 -0.259669 0.314446 -0.923263 -0.220703 0.753904 -0.655995 0.036043 0.778324 -0.560058 -0.283807 0.956101 -0.069621 -0.284647 -0.955625 0.079135 -0.283758 -0.968395 -0.174972 -0.177755 -0.878443 -0.368688 -0.303986 -0.937834 -0.21777 -0.270264 -0.956151 0.056708 -0.287333 -0.920038 -0.200468 -0.336664 -0.999403 0.013444 -0.031834 -0.978179 0.000413 -0.207765 -0.981255 0.010072 -0.192453 0.971387 -0.015253 -0.237011 0.975041 -0.024346 -0.220686 0.883151 -0.42213 -0.204575 0.932594 -0.017863 -0.360484 0.970553 0.073717 -0.229329 0.95186 -0.215503 -0.217992 0.96636 0.075666 -0.245812 0.975081 -0.188743 -0.116593 0.956092 -0.133663 -0.260812 -0.996673 -0.060157 -0.054997 -0.999484 -0.012902 -0.029408 0.994238 -0.060765 -0.088304 -0.969948 0.172885 -0.171204 0.987859 -0.101405 -0.117696 0.999663 0.020556 0.015871 -0.999992 -0.003924 -0.000661 -0.981067 -0.187375 -0.048968 -0.994682 -0.102101 0.013524 0.993522 -0.105507 -0.042206 -0.197681 0.431326 -0.880273 -0.629016 0.558902 -0.54034 -0.466373 0.783889 -0.409896 -0.647302 0.589472 -0.483242 -0.999409 -0.024983 -0.023618 -0.636425 0.586033 -0.501526 -0.906184 0.327904 -0.267037 -0.949399 0.058698 -0.30854 -0.999531 0.027901 0.012628 -0.996166 0.081505 0.031796 -0.999548 0.029629 -0.005025 0.999315 0.036855 -0.003398 0.183134 0.966714 -0.178678 0.562596 0.78703 -0.25312 0.999997 0.002191 0.000945 0.997739 0.058418 0.033234 0.999545 0.029055 -0.008063 0.999883 -0.00538 -0.014339 0.412341 0.779075 -0.472247 0.453422 0.621405 -0.638956 0.529909 0.62448 -0.573778 0.532951 0.815425 -0.225933 0.860068 0.400762 -0.31571 0.863623 0.391056 -0.318168 -0.968907 0.083914 -0.232761 -0.953152 -0.253047 0.165733 -0.58821 -0.778615 -0.218558 -0.596892 -0.802213 -0.013182 -0.606651 -0.745996 -0.274708 -0.674304 -0.665068 -0.320933 -0.807389 -0.523396 -0.272361 -0.898088 -0.411146 -0.156195 -0.904903 -0.410569 -0.11218 -0.90887 -0.350948 -0.22537 0.011963 -0.945614 0.32507 0.568286 -0.819863 -0.069831 0.579808 -0.794097 -0.182301 0.967061 -0.212309 0.140419 0.647001 -0.70751 -0.284288 0.647481 -0.707433 -0.283385 0.800168 -0.534064 -0.272959 0.889383 -0.453203 -0.060042 0.831075 -0.440117 -0.340017 -0.518059 -0.85112 -0.08491 -0.725432 -0.685963 -0.056589 -0.767656 -0.638353 0.056654 -0.386984 -0.92208 0.003378 -0.820474 -0.558705 -0.121124 -0.508662 -0.849497 0.14006 -0.568985 -0.82109 -0.045467 0.89219 0.08993 -0.442617 -0.90844 -0.161493 0.385561 0.867741 0.193782 -0.457683 -0.91296 -0.133837 0.385475 0.868204 -0.032345 -0.495153 0.854475 0.152273 -0.496674 -0.868859 -0.219478 0.44375 0.842712 -0.051246 -0.535921 -0.888553 -0.120535 0.442656 -0.755547 -0.272761 0.595609 0.871606 0.296445 -0.390413 -0.90606 -0.191068 0.377557 0.871358 0.294276 -0.392604 -0.883407 -0.059809 0.464773 -0.867734 -0.176307 0.464708 0.853681 0.353503 -0.382446 0.353 0.288777 -0.889943 -0.978319 -0.194538 -0.071045 -0.991224 0.000768 -0.132188 -0.935758 -0.328303 -0.128739 -0.9843 -0.164627 0.063644 -0.997042 0.076512 0.007266 -0.976118 -0.190458 0.1045 -0.889047 -0.437874 0.133651 -0.976067 -0.214517 0.035727 -0.988127 0.100483 0.116227 0.643577 -0.765379 0.00189 0.032885 -0.998622 -0.040895 0.184021 -0.981633 0.050334 0.675647 -0.735311 -0.053082 0.190779 -0.981629 -0.002949 0.719728 -0.69416 0.011588 0.899617 -0.410536 -0.148825 0.864023 -0.500754 0.052048 0.913182 -0.390298 -0.117328 0.891411 -0.4348 0.127808 0.999446 -0.028787 -0.016705 0.965177 0.061452 -0.254277 0.988985 -0.128734 -0.073044 0.994061 -0.065507 0.086902 0.999128 -0.034808 -0.023055 0.964525 0.015079 0.26356 0.980805 -0.151687 -0.122523 -0.869356 0.317502 -0.378698 0.896559 -0.238627 0.373147 -0.860764 0.245397 -0.445944 0.903906 -0.165142 0.394565 -0.895398 0.114371 -0.430327 -0.866698 0.213333 -0.450914 0.914939 -0.066437 0.398087 -0.895631 0.009402 -0.444698 0.851597 -0.294446 0.433686 -0.865776 0.158772 -0.474577 -0.962624 0.079844 -0.258804 -0.900208 0.326876 -0.28771 -0.876432 0.444101 -0.18612 -0.614267 0.636408 -0.466541 -0.867967 0.397974 -0.297069 -0.952224 0.28091 -0.119828 -0.954861 0.259769 -0.144083 -0.960647 0.253912 -0.112636 -0.896996 0.417409 -0.145493 -0.899252 0.425898 -0.099786 -0.808929 0.585163 -0.056731 -0.843296 0.500427 -0.196025 -0.823279 0.506746 -0.255775 -0.471632 0.829753 -0.298452 -0.46414 0.858025 -0.219924 -0.48193 0.756369 -0.442322 -0.426626 0.815874 -0.390307 -0.462472 0.832649 -0.304656 -0.998875 0.015918 -0.044674 -0.996693 0.060601 -0.054127 -0.997956 0.062695 -0.012402 -0.995145 0.094927 -0.025978 0.995427 0.095311 -0.006434 0.990379 0.138091 0.008976 0.397649 0.891717 -0.216139 0.998016 0.059512 -0.020548 0.996569 0.058425 -0.058621 0.461966 0.837343 -0.292307 0.998455 0.011451 -0.054366 0.458737 0.800584 -0.38552 0.587333 0.741463 -0.324456 0.752885 0.622468 -0.21377 0.908069 0.323705 -0.265755 0.855363 0.396035 -0.333932 0.849229 0.421172 -0.318473 0.583582 0.761164 -0.282953 0.916764 0.325617 -0.231337 0.88357 0.4213 -0.204475 0.880675 0.435046 -0.187475 0.972499 0.180736 -0.146904 0.977254 0.18125 -0.1101 0.95367 0.227086 -0.197344 0.939414 0.34235 -0.01727 0.952145 0.30526 0.015381 0.995093 0.088294 -0.044662 0.938561 0.320297 0.128502 0.942395 0.295713 0.156347 0.984711 0.100029 0.142613 0.953229 0.290409 0.083769 0.908344 0.406068 -0.100102 0.887096 0.42988 -0.168121 0.755821 0.585566 0.292997 -0.63059 0.757701 -0.168063 -0.356798 0.925075 0.130123 -0.405357 0.913789 -0.025982 -0.369466 0.917585 0.146741 -0.99165 0.127519 -0.019238 -0.983385 0.155356 0.093909 -0.993668 0.106104 -0.036945 -0.993868 0.103652 0.038503 -0.991484 0.129574 0.013052 0.995717 0.090087 0.020794 0.989965 0.126543 -0.062892 0.986495 0.044338 -0.157674 0.418606 0.890938 -0.176063 0.982783 0.141214 0.119144 0.533307 0.84256 -0.075341 0.997752 0.06694 0.003301 0.990841 0.125539 0.049747 0.994791 0.075642 -0.068327 0.317512 0.942095 0.107902 0.370793 0.927666 0.044145 0.539236 0.839127 -0.07135 0.375134 0.9065 0.193732 0.730575 0.679791 -0.064374 0.777293 0.61583 0.128721 0.842879 0.523931 -0.122686 0.928425 0.37096 -0.020366 0.939107 0.318764 0.128329 -0.676499 0.735702 -0.033047 -0.995127 0.095042 -0.026242 -0.975138 0.19412 -0.106878 -0.977862 0.184552 -0.098626 -0.884921 0.462714 -0.053015 0.985502 -0.158813 -0.059696 -0.993288 0.107289 0.043223 0.962853 -0.261125 0.068755 0.982482 -0.185868 -0.01346 -0.389742 -0.917066 0.084206 -0.441792 -0.895329 -0.056613 -0.418167 -0.901778 -0.109235 0.020478 -0.99815 0.057255 0.002947 -0.978795 0.204821 -0.434147 -0.871693 0.227305 -0.492617 -0.815597 0.303529 -0.684758 -0.66848 0.290243 -0.806342 -0.452003 -0.381453 -0.727745 -0.626877 0.278231 -0.722373 -0.687237 -0.076693 -0.776321 -0.602077 0.186624 -0.903083 -0.415334 0.109267 -0.861501 -0.472213 0.18663 -0.832825 -0.313376 0.456288 -0.388876 -0.722223 0.571987 -0.835901 0.281758 0.471044 -0.771568 -0.329952 0.543888 -0.270155 0.851435 0.449526 -0.7548 -0.295322 0.585715 0.968476 -0.247622 0.027171 -0.981553 0.139216 0.131043 0.891586 -0.452191 0.024437 -0.897954 0.439632 -0.02004 -0.965162 -0.261181 -0.015728 -0.934274 -0.329959 0.135123 0.989507 0.143821 0.013811 0.986428 0.110646 0.121317 0.510208 -0.859644 -0.026454 0.503131 -0.850263 0.154634 0.655147 -0.69886 0.287013 0.894577 -0.440543 0.075194 0.893426 -0.441896 0.080728 0.936811 0.325205 -0.128944 -0.965594 -0.259509 -0.016816 0.024003 -0.993687 0.109592 0.121869 -0.882355 -0.45453 -0.098716 -0.992898 -0.066396 -0.798092 0.580047 -0.163079 0.063411 0.401291 -0.913753 -0.569895 -0.712149 -0.409956 0.441591 0.116629 -0.889604 -0.417901 -0.575448 -0.703007 -0.98865 0.000062 0.150237 -0.985997 -0.076807 0.148019 -0.855776 -0.484312 -0.181904 -0.91205 -0.043529 0.407762 -0.710744 -0.586904 0.387797 -0.636485 -0.761381 -0.12323 -0.685529 -0.630459 0.364102 -0.097336 -0.920762 -0.377787 -0.106123 -0.976257 0.18884 -0.266542 -0.899972 0.344973 -0.373696 -0.837273 0.399156 0.148437 -0.919548 0.363867 0.378422 -0.838306 0.392479 0.15795 -0.946894 0.280079 -0.094373 -0.963475 0.25062 0.833053 -0.552863 -0.019119 0.807971 -0.58887 -0.020364 0.080717 -0.967282 0.240522 0.690509 -0.722483 0.034879 0.778607 -0.593696 0.203217 0.781668 -0.605026 0.151452 0.948204 -0.309747 0.070471 -0.315882 -0.303749 -0.898863 0.157651 0.109017 -0.981459 -0.3604 0.417085 -0.834357 0.514298 -0.426868 0.743829 0.801151 -0.188417 0.568028 0.820221 -0.039619 0.570673 0.306257 0.862301 0.403291 0.200851 -0.899489 -0.388045 0.462038 -0.886043 0.038067 0.729567 -0.622256 -0.283777 0.878896 -0.358309 0.314892 0.753591 -0.451997 0.477283 0.889205 -0.457333 0.012736 0.771747 -0.554838 0.310744 0.97767 -0.050348 0.204023 -0.663435 -0.624151 -0.412662 0.185404 -0.845308 0.501078 0.932637 -0.348463 0.093603 0.724227 -0.07257 -0.685732 0.896157 0.013466 0.443532 0.959048 -0.000666 0.283243 0.867836 -0.42532 -0.256835 0.588433 -0.411327 -0.696101 0.816256 -0.266545 -0.512524 0.94387 0.114337 0.309899 0.469511 -0.46872 -0.748238 0.959434 0.127215 0.2516 0.9781 0.174174 0.113946 0.929886 0.353222 0.1027 0.938684 0.259066 0.227504 0.88426 0.434424 0.171348 0.757448 0.157383 0.633642 0.911711 0.378853 0.158913 0.984455 0.156094 0.080517 0.911435 0.378784 0.160652 0.928506 0.290832 0.230855 0.655763 0.549747 0.517449 0.649286 0.503112 0.570355 -0.230788 0.885535 0.403194 0.953073 0.267993 -0.140824 0.641616 0.188978 0.743382 0.644157 -0.671242 0.366737 0.216589 0.317317 0.923255 0.570674 0.394752 -0.720071 -0.907453 -0.270396 0.321581 -0.945623 0.015866 0.324877 -0.969611 0.067903 0.235038 -0.874978 0.166055 0.454797 -0.88267 0.162052 0.441172 -0.645865 -0.512415 0.565941 -0.974876 -0.096589 -0.200718 -0.701153 0.538827 0.466959 -0.690393 0.380647 0.615195 -0.792869 0.4275 0.434284 -0.815317 0.372704 0.443114 -0.273868 0.716284 0.64182 0.04711 0.344478 0.937612 -0.152614 -0.800296 0.579859 -0.115884 -0.804903 0.581981 0.319863 -0.938366 0.130981 -0.616201 -0.614958 0.49206 -0.181368 -0.855489 0.48502 0.304832 -0.84793 0.433697 -0.628 -0.585348 0.51282 -0.413419 -0.624847 0.662307 -0.882493 -0.279323 0.378398 -0.859322 -0.347556 0.375194 -0.417557 0.828766 -0.372551 -0.784129 0.12536 0.607804 -0.777192 0.270744 0.56804 -0.437411 -0.384524 0.812904 0.553976 -0.60539 0.571501 0.458576 0.288116 0.840653 0.727554 -0.517209 0.450733 0.081734 -0.582954 0.808384 0.106878 0.512912 0.851762 -0.090958 0.771409 0.629805 0.90361 0.048451 0.425607 0.911711 0.262989 0.315626 0.839648 -0.281294 0.464612 0.898388 0.150045 0.412778 0.888142 0.158022 0.431547 0.10139 0.67703 0.728938 0.745085 0.502598 0.438456 0.065773 0.700685 0.710433 0.764291 0.445687 0.466072 0.705632 0.532266 0.467735 -0.9953 0.083705 -0.048703 -0.932608 0.356604 -0.055471 -0.936012 0.346005 0.064509 -0.971664 0.177015 0.156637 -0.981162 0.190527 0.031934 -0.931572 0.356304 0.072259 -0.960156 0.236406 0.149039 -0.92906 0.320329 0.185034 -0.930162 0.346639 -0.121001 -0.940587 0.337307 0.038996 -0.965554 0.257362 0.038336 -0.825707 0.563701 0.021214 -0.908762 0.37849 0.175778 -0.691619 0.693238 0.202691 -0.657131 0.721125 0.219449 -0.678296 0.717591 0.158042 -0.38114 0.913653 0.141316 0.181407 0.904127 0.386842 0.42415 0.837208 0.345224 0.460127 0.849233 0.25901 -0.994679 0.089286 0.051394 0.977867 0.005192 0.209164 0.838208 0.080046 0.539444 0.923688 0.345096 0.166461 0.917484 0.377637 0.124956 0.914245 0.368492 0.168432 -0.944047 0.121001 0.306812 -0.639791 -0.413949 -0.647544 -0.59204 -0.435835 -0.677891 -0.951871 0.26195 0.159138 -0.877845 0.354333 0.322237 -0.8796 0.406873 0.246491 -0.948438 0.28248 0.143773 -0.980006 0.059362 0.189905 -0.90844 0.303697 0.287236 -0.900182 0.341842 0.269846 -0.888546 0.447632 0.100555 -0.959069 0.178793 0.219592 -0.654679 0.556218 0.511877 -0.60616 0.478901 0.634999 -0.858613 0.380309 -0.343727 0.055397 0.636925 0.768933 0.969751 -0.006839 0.244002 -0.278401 0.852971 0.441513 -0.280656 0.745904 0.604036 -0.126011 0.695686 0.707208 -0.121645 0.789123 0.602069 0.722193 0.48398 0.494167 0.464686 0.747786 0.474218 0.456216 0.810762 0.366786</float_array>
          <technique_common>
            <accessor source="#Roofies-mesh-normals-array" count="498" stride="3">
              <param name="X" type="float"/>
              <param name="Y" type="float"/>
              <param name="Z" type="float"/>
            </accessor>
          </technique_common>
        </source>
        <source id="Roofies-mesh-map-0">
          <float_array id="Roofies-mesh-map-0-array" count="2988">0.053955 0.473633 0.09375 0.547119 0.037842 0.556641 0.037842 0.556641 0.09375 0.547119 0.062256 0.617188 0.09375 0.547119 0.053955 0.473633 0.109619 0.475342 0.062256 0.617188 0.09375 0.547119 0.102051 0.630127 0.09375 0.547119 0.109619 0.475342 0.13916 0.544922 0.09375 0.547119 0.13916 0.544922 0.102051 0.630127 0.13916 0.544922 0.109619 0.475342 0.149414 0.433838 0.102051 0.630127 0.13916 0.544922 0.149414 0.642334 0.13916 0.544922 0.149414 0.433838 0.16333 0.545898 0.13916 0.544922 0.16333 0.545898 0.149414 0.642334 0.16333 0.545898 0.149414 0.433838 0.212646 0.540039 0.149414 0.642334 0.16333 0.545898 0.167969 0.653076 0.167969 0.653076 0.16333 0.545898 0.212646 0.540039 0.681396 0.11084 0.769775 0.029785 0.745361 0.097168 0.681396 0.11084 0.745361 0.097168 0.72876 0.124512 0.681396 0.11084 0.72876 0.124512 0.725342 0.161377 0.681396 0.11084 0.725342 0.161377 0.668213 0.142334 0.681396 0.11084 0.668213 0.142334 0.658936 0.128174 0.769775 0.029785 0.681396 0.11084 0.672607 0.07959 0.769775 0.029785 0.672607 0.07959 0.703613 0.04248 0.672607 0.07959 0.681396 0.11084 0.641113 0.074707 0.641113 0.074707 0.681396 0.11084 0.608887 0.115234 0.703613 0.04248 0.672607 0.07959 0.655029 0.049072 0.655029 0.049072 0.672607 0.07959 0.641113 0.074707 0.703613 0.04248 0.655029 0.049072 0.655029 0.020996 0.655029 0.049072 0.641113 0.074707 0.611816 0.040039 0.655029 0.049072 0.611816 0.040039 0.655029 0.020996 0.070801 0.079834 0.181396 0.110596 0.131592 0.120605 0.181396 0.110596 0.070801 0.079834 0.045654 0.063232 0.181396 0.110596 0.045654 0.063232 0.202148 0.069336 0.045654 0.063232 0.070801 0.079834 0.157959 0.183105 0.157959 0.183105 0.070801 0.079834 0.131592 0.120605 0.181396 0.110596 0.202148 0.069336 0.174072 0.139404 0.181396 0.110596 0.174072 0.139404 0.131592 0.120605 0.131592 0.120605 0.174072 0.139404 0.157959 0.183105 0.157959 0.183105 0.174072 0.139404 0.202881 0.156494 0.572998 0.045166 0.595215 0.000488 0.597168 0.070312 0.595215 0.000488 0.572998 0.045166 0.557373 0.02124 0.572998 0.045166 0.597168 0.070312 0.580566 0.077881 0.557373 0.02124 0.572998 0.045166 0.53418 0.056152 0.53418 0.056152 0.572998 0.045166 0.580566 0.077881 0.557373 0.02124 0.53418 0.056152 0.541992 0.000244 0.53418 0.056152 0.580566 0.077881 0.586182 0.111816 0.53418 0.056152 0.586182 0.111816 0.57251 0.134277 0.53418 0.056152 0.57251 0.134277 0.528564 0.074707 0.53418 0.056152 0.528564 0.074707 0.474121 0.058838 0.53418 0.056152 0.474121 0.058838 0.478027 0.04248 0.031494 0.852051 0.078125 0.86499 0.039795 0.894531 0.078125 0.86499 0.031494 0.852051 0.058838 0.826172 0.039795 0.894531 0.078125 0.86499 0.079346 0.898438 0.079346 0.898438 0.078125 0.86499 0.10083 0.850586 0.039795 0.894531 0.079346 0.898438 0.023193 0.988281 0.023193 0.988281 0.079346 0.898438 0.085205 0.951904 0.023193 0.988281 0.085205 0.951904 0.0896 0.974854 0.023193 0.988281 0.0896 0.974854 0.103027 1 0.455322 0.151367 0.436279 0.211426 0.422119 0.123779 0.422119 0.123779 0.436279 0.211426 0.374268 0.079102 0.436279 0.211426 0.455322 0.151367 0.493408 0.223389 0.493408 0.223389 0.455322 0.151367 0.506836 0.190186 0.506836 0.190186 0.455322 0.151367 0.537842 0.165527 0.537842 0.165527 0.455322 0.151367 0.519287 0.123535 0.519287 0.123535 0.455322 0.151367 0.422119 0.123779 0.519287 0.123535 0.422119 0.123779 0.374268 0.079102 0.519287 0.123535 0.374268 0.079102 0.524658 0.079346 0.935547 0.757324 0.889893 0.78418 0.914795 0.713623 0.889893 0.78418 0.935547 0.757324 0.907959 0.82959 0.889893 0.78418 0.907959 0.82959 0.828125 0.829834 0.907959 0.82959 0.935547 0.757324 0.94165 0.810791 0.907959 0.82959 0.94165 0.810791 0.948242 0.883789 0.822021 0.106445 0.893799 0.127197 0.853271 0.126465 0.893799 0.127197 0.822021 0.106445 0.835938 0.071045 0.893799 0.127197 0.835938 0.071045 0.907471 0.085205 0.835938 0.071045 0.822021 0.106445 0.775391 0.098145 0.775391 0.098145 0.822021 0.106445 0.803467 0.126465 0.775391 0.098145 0.803467 0.126465 0.745605 0.114502 0.835938 0.071045 0.775391 0.098145 0.766602 0.073486 0.835938 0.071045 0.766602 0.073486 0.777588 0.024902 0.113525 0.307861 0.148438 0.324707 0.092529 0.35083 0.148438 0.324707 0.113525 0.307861 0.161133 0.254395 0.161133 0.254395 0.113525 0.307861 0.121094 0.248535 0.148438 0.324707 0.161133 0.254395 0.188721 0.316406 0.148438 0.324707 0.188721 0.316406 0.156982 0.350098 0.188721 0.316406 0.161133 0.254395 0.201416 0.271484 0.188721 0.316406 0.201416 0.271484 0.244873 0.332764 0.244873 0.332764 0.201416 0.271484 0.24585 0.255615 0.244873 0.332764 0.24585 0.255615 0.295654 0.297119 0.866943 0.574951 0.936279 0.528076 0.961426 0.596924 0.936279 0.528076 0.866943 0.574951 0.903809 0.510742 0.936279 0.528076 0.903809 0.510742 0.919922 0.460205 0.903809 0.510742 0.866943 0.574951 0.860107 0.516846 0.860107 0.516846 0.866943 0.574951 0.828857 0.563965 0.903809 0.510742 0.860107 0.516846 0.874512 0.460449 0.860107 0.516846 0.828857 0.563965 0.810791 0.515869 0.860107 0.516846 0.810791 0.515869 0.874512 0.460449 0.874512 0.460449 0.810791 0.515869 0.81665 0.460938 0.471191 0.044189 0.453613 0.059082 0.425293 0.021973 0.425293 0.021973 0.453613 0.059082 0.384033 0.035156 0.471191 0.044189 0.425293 0.021973 0.476807 0.024658 0.425293 0.021973 0.384033 0.035156 0.413818 0.010254 0.425293 0.021973 0.413818 0.010254 0.476807 0.024658 0.476807 0.024658 0.413818 0.010254 0.514404 0.012207 0.552002 0.86377 0.62085 0.878662 0.639893 0.930664 0.639893 0.930664 0.62085 0.878662 0.656982 0.919434 0.656982 0.919434 0.62085 0.878662 0.643066 0.861816 0.656982 0.919434 0.643066 0.861816 0.659912 0.868896 0.639893 0.930664 0.656982 0.919434 0.686279 0.936523 0.639893 0.930664 0.686279 0.936523 0.693604 0.946045 0.693604 0.946045 0.686279 0.936523 0.689453 0.875 0.639893 0.930664 0.693604 0.946045 0.625732 0.952881 0.639893 0.930664 0.625732 0.952881 0.552002 0.86377 0.625732 0.952881 0.693604 0.946045 0.652832 1 0.652832 1 0.693604 0.946045 0.705078 0.995605 0.705078 0.995605 0.693604 0.946045 0.756592 0.984131 0.552002 0.86377 0.625732 0.952881 0.609131 0.987061 0.552002 0.86377 0.609131 0.987061 0.547607 0.915283 0.547607 0.915283 0.609131 0.987061 0.545654 0.971436 0.547607 0.915283 0.545654 0.971436 0.484131 0.990723 0.552002 0.86377 0.547607 0.915283 0.547363 0.878906 0.552002 0.86377 0.547363 0.878906 0.546631 0.822998 0.546631 0.822998 0.547363 0.878906 0.438721 0.909424 0.547363 0.878906 0.547607 0.915283 0.468262 0.951904 0.468262 0.951904 0.547607 0.915283 0.484131 0.990723 0.547363 0.878906 0.468262 0.951904 0.438721 0.909424 0.468262 0.951904 0.484131 0.990723 0.45166 0.98291 0.438721 0.909424 0.468262 0.951904 0.403564 0.920166 0.403564 0.920166 0.468262 0.951904 0.45166 0.98291 0.438721 0.909424 0.403564 0.920166 0.405273 0.855469 0.403564 0.920166 0.45166 0.98291 0.380127 0.988525 0.403564 0.920166 0.380127 0.988525 0.375 0.878418 0.947754 0.775146 0.930664 0.723145 0.983398 0.72168 0.17041 0.20874 0.14917 0.19458 0.194336 0.176025 0.14917 0.19458 0.17041 0.20874 0.111572 0.242432 0.111572 0.242432 0.17041 0.20874 0.165527 0.243408 0.14917 0.19458 0.111572 0.242432 0.110596 0.143066 0.110596 0.143066 0.111572 0.242432 0.035889 0.15332 0.035889 0.15332 0.111572 0.242432 0.040527 0.212402 0.040527 0.212402 0.111572 0.242432 0.030273 0.267822 0.030273 0.267822 0.111572 0.242432 0.037109 0.325928 0.037109 0.325928 0.111572 0.242432 0.101074 0.319336 0.015137 0.624512 0.057861 0.657715 0.005859 0.682129 0.005859 0.682129 0.057861 0.657715 0.036377 0.722656 0.036377 0.722656 0.057861 0.657715 0.097412 0.675781 0.097412 0.675781 0.057861 0.657715 0.102539 0.635742 0.036377 0.722656 0.097412 0.675781 0.113525 0.731445 0.113525 0.731445 0.097412 0.675781 0.137451 0.690674 0.036377 0.722656 0.113525 0.731445 0.05957 0.769775 0.036377 0.722656 0.05957 0.769775 0.003174 0.809082 0.05957 0.769775 0.113525 0.731445 0.137451 0.790283 0.905518 0.632324 0.874756 0.674805 0.874756 0.583008 0.874756 0.583008 0.874756 0.674805 0.835449 0.64624 0.835449 0.64624 0.874756 0.674805 0.794189 0.706543 0.874756 0.674805 0.905518 0.632324 0.906738 0.714355 0.794189 0.706543 0.874756 0.674805 0.83252 0.734375 0.83252 0.734375 0.874756 0.674805 0.906738 0.714355 0.83252 0.734375 0.906738 0.714355 0.860107 0.776367 0.717285 0.440674 0.717041 0.377441 0.756592 0.357422 0.756592 0.357422 0.717041 0.377441 0.645996 0.344727 0.717041 0.377441 0.717285 0.440674 0.631104 0.492676 0.645996 0.344727 0.717041 0.377441 0.669922 0.387451 0.669922 0.387451 0.717041 0.377441 0.631104 0.492676 0.669922 0.387451 0.631104 0.492676 0.601562 0.477051 0.645996 0.344727 0.669922 0.387451 0.590332 0.365479 0.669922 0.387451 0.601562 0.477051 0.609375 0.411865 0.669922 0.387451 0.609375 0.411865 0.590332 0.365479 0.590332 0.365479 0.609375 0.411865 0.532227 0.350586 0.172119 0.660156 0.20752 0.581055 0.204346 0.640381 0.204346 0.640381 0.20752 0.581055 0.243408 0.696289 0.172119 0.660156 0.204346 0.640381 0.200195 0.77002 0.200195 0.77002 0.204346 0.640381 0.243408 0.696289 0.200195 0.77002 0.243408 0.696289 0.24707 0.755371 0.172119 0.660156 0.200195 0.77002 0.172607 0.775391 0.172607 0.775391 0.200195 0.77002 0.196533 0.793701 0.617432 0.242676 0.546143 0.270996 0.572754 0.186035 0.546143 0.270996 0.617432 0.242676 0.583984 0.317627 0.572754 0.186035 0.546143 0.270996 0.504395 0.21167 0.617432 0.242676 0.572754 0.186035 0.662109 0.197998 0.617432 0.242676 0.662109 0.197998 0.69458 0.254639 0.662109 0.197998 0.572754 0.186035 0.621338 0.131592 0.621338 0.131592 0.572754 0.186035 0.561279 0.142334 0.662109 0.197998 0.621338 0.131592 0.677734 0.153076 0.662109 0.197998 0.677734 0.153076 0.70166 0.170166 0.293701 0.409668 0.346924 0.413818 0.334961 0.451172 0.368652 0.365967 0.388916 0.405518 0.346924 0.413818 0.368652 0.365967 0.346924 0.413818 0.327393 0.383545 0.327393 0.383545 0.346924 0.413818 0.293701 0.409668 0.368652 0.365967 0.327393 0.383545 0.344238 0.3479 0.327393 0.383545 0.293701 0.409668 0.274658 0.346191 0.293701 0.409668 0.334961 0.451172 0.264404 0.452637 0.274658 0.346191 0.293701 0.409668 0.248779 0.399414 0.248779 0.399414 0.293701 0.409668 0.264404 0.452637 0.274658 0.346191 0.248779 0.399414 0.2229 0.364502 0.244385 0.505127 0.192383 0.490479 0.264404 0.452637 0.264404 0.452637 0.192383 0.490479 0.2146 0.442871 0.264404 0.452637 0.2146 0.442871 0.248779 0.399414 0.248779 0.399414 0.2146 0.442871 0.167969 0.40332 0.248779 0.399414 0.167969 0.40332 0.2229 0.364502 0.2229 0.364502 0.167969 0.40332 0.20459 0.3479 0.20459 0.3479 0.167969 0.40332 0.171875 0.344727 0.930664 0.254639 0.948486 0.192627 0.957275 0.291016 0.948486 0.192627 0.930664 0.254639 0.856201 0.304443 0.930664 0.254639 0.957275 0.291016 0.956055 0.370605 0.897949 0.142822 0.96167 0.168457 0.977783 0.207764 0.977783 0.207764 0.96167 0.168457 0.981934 0.137939 0.981934 0.137939 0.96167 0.168457 0.980469 0.076904 0.96167 0.168457 0.897949 0.142822 0.949951 0.14917 0.96167 0.168457 0.949951 0.14917 0.980469 0.076904 0.949951 0.14917 0.897949 0.142822 0.915527 0.084717 0.949951 0.14917 0.915527 0.084717 0.980469 0.076904 0.35791 0.318359 0.398926 0.258545 0.432373 0.316406 0.432373 0.316406 0.398926 0.258545 0.480225 0.279541 0.480225 0.279541 0.398926 0.258545 0.491211 0.233887 0.480225 0.279541 0.491211 0.233887 0.536865 0.305908 0.491211 0.233887 0.398926 0.258545 0.412109 0.217529 0.412109 0.217529 0.398926 0.258545 0.338867 0.210693 0.870117 0.452148 0.799805 0.456543 0.830322 0.409424 0.830322 0.409424 0.799805 0.456543 0.769531 0.390137 0.870117 0.452148 0.830322 0.409424 0.873291 0.379883 0.873291 0.379883 0.830322 0.409424 0.814209 0.339355 0.873291 0.379883 0.814209 0.339355 0.844238 0.284668 0.302246 0.834229 0.279297 0.777832 0.346924 0.771729 0.279297 0.777832 0.302246 0.834229 0.253174 0.799561 0.346924 0.771729 0.279297 0.777832 0.279541 0.733154 0.279541 0.733154 0.279297 0.777832 0.242432 0.773438 0.393066 0.746826 0.424072 0.770264 0.346924 0.771729 0.393066 0.746826 0.346924 0.771729 0.3396 0.736084 0.3396 0.736084 0.346924 0.771729 0.279541 0.733154 0.393066 0.746826 0.3396 0.736084 0.393555 0.671875 0.3396 0.736084 0.279541 0.733154 0.325684 0.67334 0.3396 0.736084 0.325684 0.67334 0.393555 0.671875 0.325684 0.67334 0.279541 0.733154 0.243896 0.674316 0.325684 0.67334 0.243896 0.674316 0.242676 0.616211 0.325684 0.67334 0.242676 0.616211 0.285645 0.613037 0.285645 0.613037 0.242676 0.616211 0.26123 0.582031 0.393555 0.671875 0.325684 0.67334 0.340088 0.609863 0.340088 0.609863 0.325684 0.67334 0.285645 0.613037 0.340088 0.609863 0.285645 0.613037 0.26123 0.582031 0.393555 0.671875 0.340088 0.609863 0.382812 0.602539 0.382812 0.602539 0.340088 0.609863 0.39502 0.577881 0.340088 0.609863 0.26123 0.582031 0.325928 0.557617 0.325928 0.557617 0.26123 0.582031 0.25708 0.549805 0.816162 0.195557 0.803223 0.155762 0.854736 0.131592 0.816162 0.195557 0.854736 0.131592 0.890137 0.2146 0.816162 0.195557 0.890137 0.2146 0.825439 0.239258 0.825439 0.239258 0.890137 0.2146 0.875 0.27124 0.803223 0.155762 0.816162 0.195557 0.765381 0.202637 0.765381 0.202637 0.816162 0.195557 0.825439 0.239258 0.765381 0.202637 0.825439 0.239258 0.768799 0.267334 0.803223 0.155762 0.765381 0.202637 0.740723 0.131592 0.740723 0.131592 0.765381 0.202637 0.72168 0.199707 0.614014 0.281982 0.676514 0.258301 0.683838 0.304688 0.683838 0.304688 0.676514 0.258301 0.744141 0.263672 0.683838 0.304688 0.744141 0.263672 0.738525 0.331055 0.683838 0.304688 0.738525 0.331055 0.686768 0.344482 0.738525 0.331055 0.744141 0.263672 0.795654 0.286377 0.738525 0.331055 0.795654 0.286377 0.787842 0.34375 0.738525 0.331055 0.787842 0.34375 0.796143 0.381592 0.787842 0.34375 0.795654 0.286377 0.825928 0.300537 0.787842 0.34375 0.825928 0.300537 0.801514 0.348877 0.173828 0.016357 0.13623 0.058838 0.108643 0.020752 0.13623 0.058838 0.173828 0.016357 0.206055 0.004395 0.627441 0.500732 0.695312 0.477051 0.658203 0.57666 0.622803 0.612305 0.658203 0.57666 0.661621 0.637695 0.627441 0.500732 0.658203 0.57666 0.627686 0.567383 0.627686 0.567383 0.658203 0.57666 0.622803 0.612305 0.627441 0.500732 0.627686 0.567383 0.577148 0.508789 0.627686 0.567383 0.622803 0.612305 0.576904 0.550537 0.627686 0.567383 0.576904 0.550537 0.577148 0.508789 0.576904 0.550537 0.622803 0.612305 0.572754 0.637207 0.627441 0.500732 0.577148 0.508789 0.570068 0.472168 0.576904 0.550537 0.572754 0.637207 0.530029 0.626953 0.570068 0.472168 0.577148 0.508789 0.521484 0.508789 0.570068 0.472168 0.521484 0.508789 0.517334 0.484619 0.517334 0.484619 0.521484 0.508789 0.477295 0.473633 0.521484 0.508789 0.577148 0.508789 0.522461 0.536865 0.521484 0.508789 0.522461 0.536865 0.477295 0.473633 0.522461 0.536865 0.577148 0.508789 0.576904 0.550537 0.576904 0.550537 0.530029 0.626953 0.52417 0.573242 0.576904 0.550537 0.52417 0.573242 0.522461 0.536865 0.52417 0.573242 0.530029 0.626953 0.497559 0.613037 0.52417 0.573242 0.497559 0.613037 0.522461 0.536865 0.522461 0.536865 0.497559 0.613037 0.477295 0.473633 0.497559 0.613037 0.530029 0.626953 0.526611 0.645996 0.477295 0.473633 0.497559 0.613037 0.450928 0.599365 0.450928 0.599365 0.497559 0.613037 0.442139 0.670654 0.477295 0.473633 0.450928 0.599365 0.390625 0.496094 0.390625 0.496094 0.450928 0.599365 0.404297 0.574219 0.404297 0.574219 0.450928 0.599365 0.391602 0.62085 0.973145 0.072021 0.896484 0.072021 0.958496 0.033447 0.018311 0.072021 0.000244 0.016113 0.066162 0.023682 0.898193 0.038818 0.840088 0.056641 0.800293 0.03418 0.840088 0.056641 0.898193 0.038818 0.881592 0.074463 0.881592 0.074463 0.898193 0.038818 0.933594 0.036377 0.185547 0.03125 0.244141 0.058594 0.14917 0.058105 0.376953 0.058594 0.303711 0.033691 0.365723 0.028076 0.365723 0.028076 0.303711 0.033691 0.417725 0.000488 0.417725 0.000488 0.303711 0.033691 0.324219 0.00415 0.301025 0.220703 0.277344 0.272949 0.273682 0.238037 0.301025 0.220703 0.273682 0.238037 0.260742 0.218506 0.301025 0.220703 0.260742 0.218506 0.255859 0.201904 0.224365 0.223633 0.222656 0.204102 0.255859 0.201904 0.255859 0.201904 0.222656 0.204102 0.230957 0.150391 0.255859 0.201904 0.230957 0.150391 0.268799 0.153564 0.268799 0.153564 0.230957 0.150391 0.227783 0.10498 0.268799 0.153564 0.227783 0.10498 0.282715 0.106445 0.268799 0.153564 0.282715 0.106445 0.352295 0.12085 0.301025 0.220703 0.255859 0.201904 0.325195 0.178467 0.325195 0.178467 0.255859 0.201904 0.268799 0.153564 0.301025 0.220703 0.325195 0.178467 0.324951 0.222656 0.324951 0.222656 0.325195 0.178467 0.344238 0.186035 0.325195 0.178467 0.268799 0.153564 0.336914 0.165283 0.336914 0.165283 0.268799 0.153564 0.352295 0.12085 0.325195 0.178467 0.336914 0.165283 0.35498 0.178711 0.35498 0.178711 0.336914 0.165283 0.38916 0.189697 0.336914 0.165283 0.352295 0.12085 0.380615 0.107422 0.380615 0.107422 0.352295 0.12085 0.360107 0.10498 0.336914 0.165283 0.380615 0.107422 0.386719 0.129883 0.711182 0.018555 0.690918 0.00415 0.784424 0.003174 0.925781 0.985352 0.960693 0.946533 0.954102 0.990479 0.954102 0.990479 0.960693 0.946533 0.978516 0.941162 0.954102 0.990479 0.978516 0.941162 0.980225 0.981201 0.460205 0.45752 0.387939 0.467041 0.351074 0.441162 0.351074 0.441162 0.387939 0.467041 0.3396 0.467041 0.387939 0.467041 0.460205 0.45752 0.345215 0.508301 0.387939 0.467041 0.345215 0.508301 0.3396 0.467041 0.3396 0.467041 0.345215 0.508301 0.302002 0.523926 0.302002 0.523926 0.345215 0.508301 0.334961 0.553711 0.3396 0.467041 0.302002 0.523926 0.260742 0.498047 0.260742 0.498047 0.302002 0.523926 0.235596 0.525146 0.235596 0.525146 0.302002 0.523926 0.233398 0.546875 0.049561 0.078857 0.055664 0.114258 0.026855 0.150879 0.055664 0.114258 0.049561 0.078857 0.102539 0.138672 0.085449 0.054443 0.045898 0.054932 0.090088 0.022949 0.085449 0.054443 0.090088 0.022949 0.101074 0.027832 0.085449 0.054443 0.101074 0.027832 0.126953 0.057617 0.175537 0.009033 0.121582 0.004395 0.182861 0.000244 0.846191 0.026123 0.817139 0.028564 0.849609 0.003418 0.846191 0.026123 0.849609 0.003418 0.872314 0.003174 0.846191 0.026123 0.872314 0.003174 0.868408 0.028809 0.246826 0.813965 0.247314 0.802246 0.26709 0.852539 0.220215 0.770508 0.246826 0.813965 0.23291 0.848877 0.23291 0.848877 0.246826 0.813965 0.254883 0.872559 0.254883 0.872559 0.246826 0.813965 0.26709 0.852539 0.23291 0.848877 0.254883 0.872559 0.216553 0.926758 0.216553 0.926758 0.254883 0.872559 0.237061 0.932861 0.254883 0.872559 0.26709 0.852539 0.268799 0.890137 0.254883 0.872559 0.268799 0.890137 0.237061 0.932861 0.268799 0.890137 0.26709 0.852539 0.288086 0.904297 0.237061 0.932861 0.268799 0.890137 0.260986 0.962646 0.260986 0.962646 0.268799 0.890137 0.288086 0.904297 0.260986 0.962646 0.288086 0.904297 0.330322 0.917969 0.260986 0.962646 0.330322 0.917969 0.358887 0.94751 0.260986 0.962646 0.358887 0.94751 0.320312 0.982666 0.260986 0.962646 0.320312 0.982666 0.255127 0.993408 0.255127 0.993408 0.320312 0.982666 0.306641 0.999756 0.922119 0.406738 0.946289 0.381836 0.959961 0.377197 0.959961 0.377197 0.946289 0.381836 0.98291 0.365479 0.946289 0.381836 0.922119 0.406738 0.899414 0.383545 0.922119 0.406738 0.959961 0.377197 0.982422 0.4375 0.922119 0.406738 0.982422 0.4375 0.943604 0.467285 0.922119 0.406738 0.943604 0.467285 0.897949 0.438477 0.943604 0.467285 0.982422 0.4375 0.97583 0.49585 0.952881 0.631348 0.952393 0.65332 0.912109 0.639404 0.952393 0.65332 0.952881 0.631348 0.978027 0.609375 0.978027 0.609375 0.952881 0.631348 0.967773 0.597656 0.912109 0.639404 0.952393 0.65332 0.916748 0.705566 0.916748 0.705566 0.952393 0.65332 0.974365 0.699951 0.916748 0.705566 0.974365 0.699951 0.946533 0.711914 0.916748 0.705566 0.946533 0.711914 0.934082 0.718018 0.474854 0.338623 0.449707 0.315186 0.504639 0.317871 0.449707 0.315186 0.474854 0.338623 0.421387 0.329834 0.474854 0.338623 0.504639 0.317871 0.517578 0.327393 0.421387 0.329834 0.474854 0.338623 0.412109 0.347656 0.421387 0.329834 0.412109 0.347656 0.388184 0.333496 0.474854 0.338623 0.517578 0.327393 0.484619 0.362061 0.474854 0.338623 0.484619 0.362061 0.412109 0.347656 0.484619 0.362061 0.517578 0.327393 0.54834 0.313721 0.412109 0.347656 0.484619 0.362061 0.437012 0.369385 0.412109 0.347656 0.437012 0.369385 0.331543 0.314453 0.437012 0.369385 0.484619 0.362061 0.487061 0.378662 0.487061 0.378662 0.484619 0.362061 0.527832 0.394775 0.437012 0.369385 0.487061 0.378662 0.484375 0.458496 0.437012 0.369385 0.484375 0.458496 0.424561 0.439697 0.768311 0.74585 0.769287 0.688721 0.771973 0.733643 0.769287 0.688721 0.768311 0.74585 0.760498 0.709961 0.768311 0.74585 0.771973 0.733643 0.819092 0.755127 0.819092 0.755127 0.771973 0.733643 0.793457 0.716553 0.768311 0.74585 0.819092 0.755127 0.807373 0.760742 0.768311 0.74585 0.807373 0.760742 0.782959 0.818359 0.768311 0.74585 0.782959 0.818359 0.741211 0.814941 0.782959 0.818359 0.807373 0.760742 0.821045 0.817383 0.741211 0.814941 0.782959 0.818359 0.766113 0.848145 0.766113 0.848145 0.782959 0.818359 0.821045 0.817383 0.741211 0.814941 0.766113 0.848145 0.670898 0.829834 0.766113 0.848145 0.821045 0.817383 0.834229 0.895508 0.670898 0.829834 0.766113 0.848145 0.729004 0.878662 0.766113 0.848145 0.834229 0.895508 0.781982 0.889648 0.766113 0.848145 0.781982 0.889648 0.729004 0.878662 0.781982 0.889648 0.834229 0.895508 0.810547 0.930908 0.781982 0.889648 0.810547 0.930908 0.751465 0.94165 0.781982 0.889648 0.751465 0.94165 0.761963 0.903809 0.781982 0.889648 0.761963 0.903809 0.729004 0.878662 0.761963 0.903809 0.751465 0.94165 0.717285 0.924561 0.738037 0.900391 0.717285 0.924561 0.729004 0.878662 0.717285 0.924561 0.738037 0.900391 0.761963 0.903809 0.761963 0.903809 0.738037 0.900391 0.729004 0.878662 0.710205 0.605713 0.775391 0.683105 0.683594 0.635742 0.775391 0.683105 0.710205 0.605713 0.802979 0.602783 0.775391 0.683105 0.802979 0.602783 0.831055 0.640869 0.802979 0.602783 0.710205 0.605713 0.783447 0.559082 0.783447 0.559082 0.710205 0.605713 0.687256 0.516846 0.802979 0.602783 0.783447 0.559082 0.814697 0.579346 0.802979 0.602783 0.814697 0.579346 0.820801 0.61377 0.783447 0.559082 0.687256 0.516846 0.763916 0.522705 0.783447 0.559082 0.763916 0.522705 0.810547 0.537354 0.763916 0.522705 0.687256 0.516846 0.741699 0.496338 0.763916 0.522705 0.741699 0.496338 0.810547 0.46167 0.810547 0.46167 0.741699 0.496338 0.74707 0.45874 0.74707 0.45874 0.741699 0.496338 0.731445 0.455566 0.751221 0.76123 0.713379 0.813965 0.680908 0.789307 0.680908 0.789307 0.713379 0.813965 0.663086 0.822754 0.751221 0.76123 0.680908 0.789307 0.697266 0.758789 0.751221 0.76123 0.697266 0.758789 0.729004 0.714355 0.680908 0.789307 0.663086 0.822754 0.61084 0.747559 0.680908 0.789307 0.61084 0.747559 0.697266 0.758789 0.729004 0.714355 0.697266 0.758789 0.647949 0.702881 0.647949 0.702881 0.697266 0.758789 0.61084 0.747559 0.729004 0.714355 0.647949 0.702881 0.701172 0.653076 0.701172 0.653076 0.647949 0.702881 0.651855 0.672852 0.701172 0.653076 0.651855 0.672852 0.58374 0.671387 0.651855 0.672852 0.647949 0.702881 0.600342 0.702148 0.651855 0.672852 0.600342 0.702148 0.58374 0.671387 0.600342 0.702148 0.647949 0.702881 0.61084 0.747559 0.574707 0.792725 0.61084 0.747559 0.663086 0.822754 0.61084 0.747559 0.574707 0.792725 0.600342 0.702148 0.574707 0.792725 0.663086 0.822754 0.673584 0.870605 0.600342 0.702148 0.574707 0.792725 0.56665 0.740967 0.58374 0.671387 0.600342 0.702148 0.545166 0.724121 0.545166 0.724121 0.600342 0.702148 0.56665 0.740967 0.56665 0.740967 0.574707 0.792725 0.52124 0.817871 0.56665 0.740967 0.52124 0.817871 0.545166 0.724121 0.52124 0.817871 0.574707 0.792725 0.462402 0.875244 0.545166 0.724121 0.52124 0.817871 0.433594 0.721191 0.433594 0.721191 0.52124 0.817871 0.397949 0.741211 0.58374 0.671387 0.545166 0.724121 0.517334 0.677979 0.517334 0.677979 0.545166 0.724121 0.433594 0.721191 0.58374 0.671387 0.517334 0.677979 0.539551 0.63501 0.517334 0.677979 0.433594 0.721191 0.459717 0.681641 0.517334 0.677979 0.459717 0.681641 0.491699 0.649414 0.055664 0.61792 0.000244 0.61792 0.025391 0.561279 0.20166 0.930908 0.224121 0.980469 0.176025 0.974854 0.20166 0.930908 0.176025 0.974854 0.154541 0.93042 0.154541 0.93042 0.176025 0.974854 0.115234 0.995605 0.154541 0.93042 0.115234 0.995605 0.108398 0.958252 0.20166 0.930908 0.154541 0.93042 0.167236 0.893799 0.154541 0.93042 0.108398 0.958252 0.116699 0.921143 0.154541 0.93042 0.116699 0.921143 0.167236 0.893799 0.116699 0.921143 0.108398 0.958252 0.092529 0.960449 0.116699 0.921143 0.092529 0.960449 0.096436 0.906738 0.116699 0.921143 0.096436 0.906738 0.167236 0.893799 0.20166 0.930908 0.167236 0.893799 0.214111 0.885254 0.167236 0.893799 0.096436 0.906738 0.121338 0.865723 0.167236 0.893799 0.121338 0.865723 0.214111 0.885254 0.214111 0.885254 0.121338 0.865723 0.159668 0.832275 0.159668 0.832275 0.121338 0.865723 0.104004 0.837891 0.214111 0.885254 0.159668 0.832275 0.172852 0.83252 0.172852 0.83252 0.159668 0.832275 0.114746 0.802979 0.172852 0.83252 0.114746 0.802979 0.171143 0.787109 0.172852 0.83252 0.171143 0.787109 0.22168 0.815674 0.938232 0.509521 0.973877 0.524902 0.949707 0.545166 0.949707 0.545166 0.973877 0.524902 0.979004 0.547363 0.696289 0.016357 0.60083 0.016357 0.625977 0.000244 0.211426 0.031738 0.27124 0.000244 0.255127 0.056885 0.255127 0.056885 0.27124 0.000244 0.283936 0.057617 0.283936 0.057617 0.27124 0.000244 0.311279 0.000732 0.833984 0.005127 0.804688 0.028809 0.781006 0.019287 0.833984 0.005127 0.781006 0.019287 0.765381 0.016357 0.833984 0.005127 0.765381 0.016357 0.81665 0.000977 0.852295 0.953857 0.859375 0.981201 0.803955 0.996094 0.928467 0.960938 0.914062 0.999756 0.859375 0.981201 0.928467 0.960938 0.859375 0.981201 0.852295 0.953857 0.852295 0.953857 0.803955 0.996094 0.824219 0.94043 0.824219 0.94043 0.803955 0.996094 0.765137 0.950684 0.852295 0.953857 0.824219 0.94043 0.84375 0.918213 0.84375 0.918213 0.824219 0.94043 0.831787 0.911621 0.928467 0.960938 0.852295 0.953857 0.882568 0.911133 0.882568 0.911133 0.852295 0.953857 0.84375 0.918213 0.928467 0.960938 0.882568 0.911133 0.923096 0.918457 0.923096 0.918457 0.882568 0.911133 0.915039 0.879883 0.882568 0.911133 0.84375 0.918213 0.863281 0.891357 0.882568 0.911133 0.863281 0.891357 0.876953 0.869629 0.923584 0.890625 0.97998 0.890625 0.938232 0.961426 0.092285 0.390137 0.059326 0.380859 0.132324 0.35498 0.059326 0.380859 0.092285 0.390137 0.068848 0.433105 0.059326 0.380859 0.068848 0.433105 0.030029 0.425293 0.030029 0.425293 0.068848 0.433105 0.0271 0.503662 0.030029 0.425293 0.0271 0.503662 0.000244 0.487549 0.059326 0.380859 0.030029 0.425293 0.013672 0.366211 0.059326 0.380859 0.013672 0.366211 0.002441 0.317139</float_array>
          <technique_common>
            <accessor source="#Roofies-mesh-map-0-array" count="1494" stride="2">
              <param name="S" type="float"/>
              <param name="T" type="float"/>
            </accessor>
          </technique_common>
        </source>
        <vertices id="Roofies-mesh-vertices">
          <input semantic="POSITION" source="#Roofies-mesh-positions"/>
        </vertices>
        <polylist material="Material_-1-material" count="6">
          <input semantic="VERTEX" source="#Roofies-mesh-vertices" offset="0"/>
          <input semantic="NORMAL" source="#Roofies-mesh-normals" offset="1"/>
          <input semantic="TEXCOORD" source="#Roofies-mesh-map-0" offset="2" set="0"/>
          <vcount>3 3 3 3 3 3 3 3 3 3 3 3 3 3 3 3 3 3 3 3 3 3 3 3 3 3 3 3 3 3 3 3 3 3 3 3 3 3 3 3 3 3 3 3 3 3 3 3 3 3 3 3 3 3 3 3 3 3 3 3 3 3 3 3 3 3 3 3 3 3 3 3 3 3 3 3 3 3 3 3 3 3 3 3 3 3 3 3 3 3 3 3 3 3 3 3 3 3 3 3 3 3 3 3 3 3 3 3 3 3 3 3 3 3 3 3 3 3 3 3 3 3 3 3 3 3 3 3 3 3 3 3 3 3 3 3 3 3 3 3 3 3 3 3 3 3 3 3 3 3 3 3 3 3 3 3 3 3 3 3 3 3 3 3 3 3 3 3 3 3 3 3 3 3 3 3 3 3 3 3 3 3 3 3 3 3 3 3 3 3 3 3 3 3 3 3 3 3 3 3 3 3 3 3 3 3 3 3 3 3 3 3 3 3 3 3 3 3 3 3 3 3 3 3 3 3 3 3 3 3 3 3 3 3 3 3 3 3 3 3 3 3 3 3 3 3 3 3 3 3 3 3 3 3 3 3 3 3 3 3 3 3 3 3 3 3 3 3 3 3 3 3 3 3 3 3 3 3 3 3 3 3 3 3 3 3 3 3 3 3 3 3 3 3 3 3 3 3 3 3 3 3 3 3 3 3 3 3 3 3 3 3 3 3 3 3 3 3 3 3 3 3 3 3 3 3 3 3 3 3 3 3 3 3 3 3 3 3 3 3 3 3 3 3 3 3 3 3 3 3 3 3 3 3 3 3 3 3 3 3 3 3 3 3 3 3 3 3 3 3 3 3 3 3 3 3 3 3 3 3 3 3 3 3 3 3 3 3 3 3 3 3 3 3 3 3 3 3 3 3 3 3 3 3 3 3 3 3 3 3 3 3 3 3 3 3 3 3 3 3 3 3 3 3 3 3 3 3 3 3 3 3 3 3 3 3 3 3 3 3 3 3 3 3 3 3 3 3 3 3 3 3 3 3 3 3 3 3 3 3 3 3 3 3 3 3 3 3 3 3 3 3 3 3 3 3 3 3 3 3 3 3 3 3 3 3 3 3 3 3 3 3 3 3 3 3 3 3</vcount>
          <p>0 0 0 1 0 1 2 0 2 2 1 3 1 1 4 3 1 5 1 2 6 0 2 7 4 2 8 3 3 9 1 3 10 5 3 11 1 4 12 4 4 13 6 4 14 1 5 15 6 5 16 5 5 17 6 6 18 4 6 19 7 6 20 5 7 21 6 7 22 8 7 23 6 8 24 7 8 25 9 8 26 6 9 27 9 9 28 8 9 29 9 10 30 7 10 31 10 10 32 8 11 33 9 11 34 11 11 35 11 12 36 9 12 37 10 12 38 12 13 39 2 13 40 3 13 41 12 14 42 3 14 43 5 14 44 12 15 45 5 15 46 8 15 47 12 16 48 8 16 49 13 16 50 12 17 51 13 17 52 14 17 53 2 18 54 12 18 55 15 18 56 2 19 57 15 19 58 0 19 59 15 20 60 12 20 61 16 20 62 16 21 63 12 21 64 17 21 65 0 22 66 15 22 67 18 22 68 18 23 69 15 23 70 16 23 71 0 24 72 18 24 73 4 24 74 18 25 75 16 25 76 7 25 77 18 26 78 7 26 79 4 26 80 19 27 81 20 27 82 21 27 83 20 28 84 19 28 85 22 28 86 20 29 87 22 29 88 23 29 89 22 30 90 19 30 91 24 30 92 24 31 93 19 31 94 21 31 95 20 32 96 23 32 97 25 32 98 20 33 99 25 33 100 21 33 101 21 34 102 25 34 103 24 34 104 24 35 105 25 35 106 26 35 107 27 36 108 13 36 109 8 36 110 13 37 111 27 37 112 28 37 113 27 38 114 8 38 115 11 38 116 28 39 117 27 39 118 29 39 119 29 40 120 27 40 121 11 40 122 28 41 123 29 41 124 30 41 125 29 42 126 11 42 127 31 42 128 29 43 129 31 43 130 32 43 131 29 44 132 32 44 133 33 44 134 29 45 135 33 45 136 34 45 137 29 46 138 34 46 139 35 46 140 16 47 141 36 47 142 7 47 143 36 48 144 16 48 145 17 48 146 7 49 147 36 49 148 33 49 149 33 50 150 36 50 151 34 50 152 7 51 153 33 51 154 10 51 155 10 52 156 33 52 157 32 52 158 10 53 159 32 53 160 31 53 161 10 54 162 31 54 163 11 54 164 37 55 165 23 55 166 38 55 167 38 56 168 23 56 169 22 56 170 23 57 171 37 57 172 39 57 173 39 58 174 37 58 175 40 58 176 40 59 177 37 59 178 41 59 179 41 60 180 37 60 181 42 60 182 42 61 183 37 61 184 38 61 185 42 62 186 38 62 187 22 62 188 42 63 189 22 63 190 24 63 191 43 64 192 25 64 193 23 64 194 25 65 195 43 65 196 17 65 197 25 66 198 17 66 199 12 66 200 17 67 201 43 67 202 44 67 203 17 68 204 44 68 205 36 68 206 26 69 207 42 69 208 24 69 209 42 70 210 26 70 211 45 70 212 42 71 213 45 71 214 46 71 215 45 72 216 26 72 217 14 72 218 14 73 219 26 73 220 25 73 221 14 74 222 25 74 223 12 74 224 45 75 225 14 75 226 13 75 227 45 76 228 13 76 229 28 76 230 44 77 231 47 77 232 48 77 233 47 78 234 44 78 235 49 78 236 49 79 237 44 79 238 43 79 239 47 80 240 49 80 241 50 80 242 47 81 243 50 81 244 51 81 245 50 82 246 49 82 247 52 82 248 50 83 249 52 83 250 53 83 251 53 84 252 52 84 253 54 84 254 53 85 255 54 85 256 55 85 257 56 86 258 45 86 259 28 86 260 45 87 261 56 87 262 57 87 263 45 88 264 57 88 265 46 88 266 57 89 267 56 89 268 58 89 269 58 90 270 56 90 271 59 90 272 57 91 273 58 91 274 60 91 275 58 92 276 59 92 277 61 92 278 58 93 279 61 93 280 60 93 281 60 94 282 61 94 283 62 94 284 63 95 285 64 95 286 65 95 287 65 96 288 64 96 289 66 96 290 63 97 291 65 97 292 67 97 293 65 98 294 66 98 295 68 98 296 65 99 297 68 99 298 67 99 299 67 100 300 68 100 301 35 100 302 66 101 303 64 101 304 69 101 305 69 102 306 64 102 307 35 102 308 35 103 309 64 103 310 63 103 311 35 104 312 63 104 313 67 104 314 69 105 315 35 105 316 34 105 317 69 106 318 34 106 319 48 106 320 48 107 321 34 107 322 36 107 323 69 108 324 48 108 325 70 108 326 69 109 327 70 109 328 66 109 329 70 110 330 48 110 331 71 110 332 71 111 333 48 111 334 51 111 335 51 112 336 48 112 337 47 112 338 66 113 339 70 113 340 72 113 341 66 114 342 72 114 343 73 114 344 73 115 345 72 115 346 74 115 347 73 116 348 74 116 349 75 116 350 66 117 351 73 117 352 76 117 353 66 118 354 76 118 355 68 118 356 68 119 357 76 119 358 35 119 359 76 120 360 73 120 361 77 120 362 77 121 363 73 121 364 75 121 365 76 122 366 77 122 367 35 122 368 77 123 369 75 123 370 78 123 371 35 124 372 77 124 373 30 124 374 30 125 375 77 125 376 78 125 377 35 126 378 30 126 379 29 126 380 30 127 381 78 127 382 56 127 383 30 128 384 56 128 385 28 128 386 44 129 387 48 129 388 36 129 389 79 130 390 39 130 391 40 130 392 39 131 393 79 131 394 80 131 395 80 132 396 79 132 397 81 132 398 39 133 399 80 133 400 23 133 401 23 134 402 80 134 403 43 134 404 43 135 405 80 135 406 49 135 407 49 136 408 80 136 409 52 136 410 52 137 411 80 137 412 54 137 413 54 138 414 80 138 415 82 138 416 81 139 417 79 139 418 83 139 419 83 140 420 79 140 421 84 140 422 84 141 423 79 141 424 41 141 425 41 142 426 79 142 427 40 142 428 84 143 429 41 143 430 46 143 431 46 144 432 41 144 433 42 144 434 84 145 435 46 145 436 60 145 437 84 146 438 60 146 439 62 146 440 60 147 441 46 147 442 57 147 443 81 148 444 85 148 445 80 148 446 80 149 447 85 149 448 82 149 449 82 150 450 85 150 451 86 150 452 85 151 453 81 151 454 87 151 455 86 152 456 85 152 457 88 152 458 88 153 459 85 153 460 87 153 461 88 154 462 87 154 463 89 154 464 90 155 465 91 155 466 92 155 467 92 156 468 91 156 469 93 156 470 91 157 471 90 157 472 94 157 473 93 158 474 91 158 475 95 158 476 95 159 477 91 159 478 94 159 479 95 160 480 94 160 481 96 160 482 93 161 483 95 161 484 97 161 485 95 162 486 96 162 487 98 162 488 95 163 489 98 163 490 97 163 491 97 164 492 98 164 493 99 164 494 90 165 495 92 165 496 100 165 497 100 166 498 92 166 499 93 166 500 90 167 501 100 167 502 101 167 503 101 168 504 100 168 505 93 168 506 101 169 507 93 169 508 97 169 509 90 170 510 101 170 511 94 170 512 94 171 513 101 171 514 102 171 515 103 172 516 54 172 517 86 172 518 54 173 519 103 173 520 55 173 521 86 174 522 54 174 523 82 174 524 103 175 525 86 175 526 104 175 527 103 176 528 104 176 529 105 176 530 104 177 531 86 177 532 106 177 533 106 178 534 86 178 535 88 178 536 104 179 537 106 179 538 102 179 539 104 180 540 102 180 541 107 180 542 108 181 543 83 181 544 84 181 545 87 182 546 81 182 547 83 182 548 87 183 549 83 183 550 109 183 551 109 184 552 83 184 553 108 184 554 87 185 555 109 185 556 110 185 557 109 186 558 108 186 559 111 186 560 108 187 561 84 187 562 62 187 563 111 188 564 108 188 565 112 188 566 112 189 567 108 189 568 62 189 569 111 190 570 112 190 571 113 190 572 61 191 573 114 191 574 62 191 575 62 192 576 114 192 577 115 192 578 62 193 579 115 193 580 112 193 581 112 194 582 115 194 583 116 194 584 112 195 585 116 195 586 113 195 587 113 196 588 116 196 589 117 196 590 117 197 591 116 197 592 118 197 593 119 198 594 120 198 595 121 198 596 120 199 597 119 199 598 122 199 599 119 200 600 121 200 601 123 200 602 122 201 603 124 201 604 120 201 605 120 202 606 124 202 607 121 202 608 121 203 609 124 203 610 123 203 611 124 204 612 122 204 613 125 204 614 124 205 615 125 205 616 123 205 617 125 206 618 122 206 619 126 206 620 125 207 621 126 207 622 123 207 623 50 208 624 53 208 625 51 208 626 51 209 627 53 209 628 71 209 629 71 210 630 53 210 631 127 210 632 71 211 633 127 211 634 70 211 635 127 212 636 53 212 637 128 212 638 128 213 639 53 213 640 55 213 641 128 214 642 55 214 643 129 214 644 129 215 645 55 215 646 105 215 647 128 216 648 129 216 649 130 216 650 130 217 651 129 217 652 131 217 653 130 218 654 131 218 655 132 218 656 128 219 657 133 219 658 127 219 659 133 220 660 128 220 661 130 220 662 127 221 663 133 221 664 134 221 665 134 222 666 133 222 667 135 222 668 72 223 669 70 223 670 127 223 671 72 224 672 127 224 673 136 224 674 136 225 675 127 225 676 134 225 677 72 226 678 136 226 679 74 226 680 136 227 681 134 227 682 137 227 683 136 228 684 137 228 685 74 228 686 137 229 687 134 229 688 138 229 689 137 230 690 138 230 691 139 230 692 137 231 693 139 231 694 140 231 695 140 232 696 139 232 697 141 232 698 74 233 699 137 233 700 142 233 701 142 234 702 137 234 703 140 234 704 142 235 705 140 235 706 141 235 707 74 236 708 142 236 709 75 236 710 75 237 711 142 237 712 78 237 713 142 238 714 141 238 715 143 238 716 143 239 717 141 239 718 144 239 719 145 240 720 59 240 721 56 240 722 145 241 723 56 241 724 78 241 725 145 242 726 78 242 727 143 242 728 143 243 729 78 243 730 142 243 731 59 244 732 145 244 733 146 244 734 146 245 735 145 245 736 143 245 737 146 246 738 143 246 739 144 246 740 59 247 741 146 247 742 61 247 743 61 248 744 146 248 745 147 248 746 61 249 747 147 249 748 114 249 749 114 250 750 147 250 751 148 250 752 114 251 753 148 251 754 116 251 755 114 252 756 116 252 757 115 252 758 116 253 759 148 253 760 149 253 761 116 254 762 149 254 763 150 254 764 116 255 765 150 255 766 118 255 767 150 256 768 149 256 769 151 256 770 150 257 771 151 257 772 152 257 773 144 258 774 147 258 775 146 258 776 147 259 777 144 259 778 141 259 779 135 260 780 130 260 781 132 260 782 153 261 783 132 261 784 154 261 785 135 262 786 132 262 787 155 262 788 155 263 789 132 263 790 153 263 791 135 264 792 155 264 793 156 264 794 155 265 795 153 265 796 157 265 797 155 266 798 157 266 799 156 266 800 157 267 801 153 267 802 158 267 803 135 268 804 156 268 805 138 268 806 157 269 807 158 269 808 159 269 809 138 270 810 156 270 811 160 270 812 138 271 813 160 271 814 139 271 815 139 272 816 160 272 817 141 272 818 160 273 819 156 273 820 161 273 821 160 274 822 161 274 823 141 274 824 161 275 825 156 275 826 157 275 827 157 276 828 159 276 829 162 276 830 157 277 831 162 277 832 161 277 833 162 278 834 159 278 835 163 278 836 162 279 837 163 279 838 161 279 839 161 280 840 163 280 841 141 280 842 163 281 843 159 281 844 154 281 845 141 282 846 163 282 847 164 282 848 164 283 849 163 283 850 165 283 851 141 284 852 164 284 853 147 284 854 147 285 855 164 285 856 148 285 857 148 286 858 164 286 859 149 286 860 130 287 861 135 287 862 133 287 863 135 288 864 138 288 865 134 288 866 166 289 867 167 289 868 168 289 869 167 290 870 166 290 871 169 290 872 169 291 873 166 291 874 170 291 875 169 292 876 170 292 877 167 292 878 166 293 879 168 293 880 171 293 881 171 294 882 168 294 883 172 294 884 172 295 885 168 295 886 167 295 887 89 296 888 87 296 889 170 296 890 89 297 891 170 297 892 172 297 893 89 298 894 172 298 895 173 298 896 174 299 897 175 299 898 173 299 899 173 300 900 175 300 901 176 300 902 173 301 903 176 301 904 177 301 905 177 302 906 176 302 907 178 302 908 177 303 909 178 303 910 179 303 911 177 304 912 179 304 913 180 304 914 89 305 915 173 305 916 181 305 917 181 306 918 173 306 919 177 306 920 89 307 921 181 307 922 88 307 923 88 308 924 181 308 925 106 308 926 181 309 927 177 309 928 99 309 929 99 310 930 177 310 931 180 310 932 181 311 933 99 311 934 96 311 935 96 312 936 99 312 937 98 312 938 99 313 939 180 313 940 101 313 941 101 314 942 180 314 943 102 314 944 99 315 945 101 315 946 97 315 947 170 316 948 172 316 949 167 316 950 171 317 951 172 317 952 166 317 953 166 318 954 172 318 955 173 318 956 166 319 957 173 319 958 170 319 959 182 320 960 183 320 961 174 320 962 174 321 963 183 321 964 184 321 965 183 322 966 182 322 967 110 322 968 183 323 969 110 323 970 184 323 971 184 324 972 110 324 973 111 324 974 111 325 975 110 325 976 109 325 977 184 326 978 111 326 979 185 326 980 185 327 981 111 327 982 117 327 983 117 328 984 111 328 985 113 328 986 182 329 987 186 329 988 110 329 989 186 330 990 182 330 991 174 330 992 170 331 993 87 331 994 110 331 995 170 332 996 110 332 997 174 332 998 170 333 999 174 333 1000 173 333 1001 110 334 1002 186 334 1003 174 334 1004 94 335 1005 102 335 1006 106 335 1007 94 336 1008 106 336 1009 181 336 1010 94 337 1011 181 337 1012 96 337 1013 187 338 1014 180 338 1015 179 338 1016 188 339 1017 187 339 1018 189 339 1019 189 340 1020 187 340 1021 190 340 1022 190 341 1023 187 341 1024 179 341 1025 189 342 1026 190 342 1027 191 342 1028 191 343 1029 190 343 1030 192 343 1031 190 344 1032 179 344 1033 193 344 1034 190 345 1035 193 345 1036 192 345 1037 193 346 1038 179 346 1039 178 346 1040 192 347 1041 193 347 1042 194 347 1043 194 348 1044 193 348 1045 178 348 1046 194 349 1047 178 349 1048 176 349 1049 194 350 1050 176 350 1051 195 350 1052 194 351 1053 195 351 1054 196 351 1055 194 352 1056 196 352 1057 197 352 1058 197 353 1059 196 353 1060 198 353 1061 195 354 1062 175 354 1063 184 354 1064 184 355 1065 175 355 1066 174 355 1067 175 356 1068 195 356 1069 176 356 1070 195 357 1071 184 357 1072 185 357 1073 195 358 1074 185 358 1075 199 358 1076 195 359 1077 199 359 1078 196 359 1079 199 360 1080 185 360 1081 200 360 1082 117 361 1083 126 361 1084 185 361 1085 126 362 1086 117 362 1087 123 362 1088 123 363 1089 117 363 1090 118 363 1091 185 364 1092 126 364 1093 200 364 1094 200 365 1095 126 365 1096 122 365 1097 200 366 1098 122 366 1099 123 366 1100 200 367 1101 123 367 1102 118 367 1103 201 368 1104 196 368 1105 199 368 1106 196 369 1107 201 369 1108 198 369 1109 201 370 1110 199 370 1111 202 370 1112 198 371 1113 201 371 1114 203 371 1115 198 372 1116 203 372 1117 197 372 1118 201 373 1119 202 373 1120 204 373 1121 201 374 1122 204 374 1123 203 374 1124 204 375 1125 202 375 1126 205 375 1127 203 376 1128 204 376 1129 206 376 1130 203 377 1131 206 377 1132 207 377 1133 206 378 1134 204 378 1135 208 378 1136 208 379 1137 204 379 1138 209 379 1139 206 380 1140 208 380 1141 210 380 1142 206 381 1143 210 381 1144 211 381 1145 205 382 1146 199 382 1147 200 382 1148 199 383 1149 205 383 1150 202 383 1151 205 384 1152 200 384 1153 150 384 1154 150 385 1155 200 385 1156 118 385 1157 205 386 1158 150 386 1159 152 386 1160 205 387 1161 152 387 1162 212 387 1163 205 388 1164 212 388 1165 209 388 1166 212 389 1167 152 389 1168 151 389 1169 209 390 1170 212 390 1171 213 390 1172 213 391 1173 212 391 1174 151 391 1175 209 392 1176 213 392 1177 208 392 1178 213 393 1179 151 393 1180 214 393 1181 208 394 1182 213 394 1183 210 394 1184 213 395 1185 214 395 1186 215 395 1187 213 396 1188 215 396 1189 210 396 1190 215 397 1191 214 397 1192 216 397 1193 215 398 1194 216 398 1195 217 398 1196 215 399 1197 217 399 1198 218 399 1199 215 400 1200 218 400 1201 210 400 1202 218 401 1203 217 401 1204 219 401 1205 220 402 1206 219 402 1207 210 402 1208 219 403 1209 220 403 1210 218 403 1211 218 404 1212 220 404 1213 210 404 1214 221 405 1215 189 405 1216 191 405 1217 189 406 1218 221 406 1219 222 406 1220 189 407 1221 222 407 1222 223 407 1223 222 408 1224 221 408 1225 224 408 1226 224 409 1227 221 409 1228 225 409 1229 222 410 1230 224 410 1231 226 410 1232 222 411 1233 226 411 1234 227 411 1235 224 412 1236 225 412 1237 228 412 1238 224 413 1239 228 413 1240 229 413 1241 228 414 1242 225 414 1243 230 414 1244 228 415 1245 230 415 1246 231 415 1247 231 416 1248 230 416 1249 232 416 1250 232 417 1251 230 417 1252 233 417 1253 192 418 1254 194 418 1255 234 418 1256 234 419 1257 194 419 1258 197 419 1259 192 420 1260 234 420 1261 235 420 1262 192 421 1263 235 421 1264 191 421 1265 234 422 1266 197 422 1267 236 422 1268 234 423 1269 236 423 1270 235 423 1271 191 424 1272 235 424 1273 237 424 1274 237 425 1275 235 425 1276 236 425 1277 191 426 1278 237 426 1279 221 426 1280 221 427 1281 237 427 1282 238 427 1283 221 428 1284 238 428 1285 225 428 1286 238 429 1287 237 429 1288 239 429 1289 238 430 1290 239 430 1291 225 430 1292 239 431 1293 237 431 1294 236 431 1295 207 432 1296 236 432 1297 197 432 1298 236 433 1299 207 433 1300 239 433 1301 207 434 1302 197 434 1303 203 434 1304 239 435 1305 207 435 1306 240 435 1307 225 436 1308 239 436 1309 241 436 1310 241 437 1311 239 437 1312 240 437 1313 240 438 1314 207 438 1315 211 438 1316 240 439 1317 211 439 1318 241 439 1319 211 440 1320 207 440 1321 206 440 1322 241 441 1323 211 441 1324 219 441 1325 219 442 1326 211 442 1327 210 442 1328 225 443 1329 241 443 1330 233 443 1331 233 444 1332 241 444 1333 219 444 1334 225 445 1335 233 445 1336 230 445 1337 233 446 1338 219 446 1339 217 446 1340 233 447 1341 217 447 1342 232 447 1343 105 448 1344 55 448 1345 103 448 1346 131 449 1347 129 449 1348 105 449 1349 131 450 1350 105 450 1351 242 450 1352 242 451 1353 105 451 1354 104 451 1355 242 452 1356 104 452 1357 107 452 1358 131 453 1359 242 453 1360 243 453 1361 242 454 1362 107 454 1363 244 454 1364 242 455 1365 244 455 1366 243 455 1367 244 456 1368 107 456 1369 188 456 1370 244 457 1371 188 457 1372 245 457 1373 244 458 1374 245 458 1375 243 458 1376 131 459 1377 243 459 1378 132 459 1379 243 460 1380 245 460 1381 246 460 1382 243 461 1383 246 461 1384 132 461 1385 132 462 1386 246 462 1387 247 462 1388 247 463 1389 246 463 1390 248 463 1391 132 464 1392 247 464 1393 154 464 1394 154 465 1395 247 465 1396 249 465 1397 154 466 1398 249 466 1399 165 466 1400 154 467 1401 165 467 1402 163 467 1403 153 468 1404 154 468 1405 158 468 1406 158 469 1407 154 469 1408 159 469 1409 119 470 1410 123 470 1411 122 470 1412 164 471 1413 165 471 1414 149 471 1415 149 472 1416 165 472 1417 151 472 1418 151 473 1419 165 473 1420 214 473 1421 107 474 1422 102 474 1423 180 474 1424 107 475 1425 180 475 1426 187 475 1427 107 476 1428 187 476 1429 188 476 1430 250 477 1431 245 477 1432 188 477 1433 248 478 1434 246 478 1435 245 478 1436 248 479 1437 245 479 1438 250 479 1439 250 480 1440 188 480 1441 223 480 1442 223 481 1443 188 481 1444 189 481 1445 250 482 1446 223 482 1447 227 482 1448 227 483 1449 223 483 1450 222 483 1451 248 484 1452 250 484 1453 229 484 1454 229 485 1455 250 485 1456 227 485 1457 248 486 1458 229 486 1459 231 486 1460 231 487 1461 229 487 1462 228 487 1463 229 488 1464 227 488 1465 226 488 1466 229 489 1467 226 489 1468 224 489 1469 205 490 1470 209 490 1471 204 490 1472 248 491 1473 249 491 1474 247 491 1475 249 492 1476 248 492 1477 231 492 1478 249 493 1479 231 493 1480 216 493 1481 216 494 1482 231 494 1483 232 494 1484 216 495 1485 232 495 1486 217 495 1487 249 496 1488 216 496 1489 214 496 1490 249 497 1491 214 497 1492 165 497 1493</p>
        </polylist>
      </mesh>
    </geometry>
  </library_geometries>
  <library_visual_scenes>
    <visual_scene id="Scene" name="Scene">
      <node id="Roofies" name="Roofies" type="NODE">
        <scale sid="scale">1 1 1</scale>
        <translate sid="location">0 0 0</translate>
        <rotate sid="rotationX">1 0 0 0</rotate>
        <rotate sid="rotationY">0 1 0 -180</rotate>
        <rotate sid="rotationZ">0 0 1 0</rotate>
        <instance_geometry url="#Roofies-mesh" name="Roofies">
          <bind_material>
            <technique_common>
            </technique_common>
          </bind_material>
        </instance_geometry>
      </node>
    </visual_scene>
  </library_visual_scenes>
  <scene>
    <instance_visual_scene url="#Scene"/>
  </scene>
</COLLADA>
