<?xml version="1.0" encoding="utf-8"?>
<COLLADA xmlns="http://www.collada.org/2005/11/COLLADASchema" version="1.4.1" xmlns:xsi="http://www.w3.org/2001/XMLSchema-instance">
  <asset>
    <contributor>
      <author>Blockbench user</author>
      <authoring_tool>Blockbench</authoring_tool>
    </contributor>
    <created>2026-03-08T04:52:13.463Z</created>
    <modified>2026-03-08T04:52:13.479Z</modified>
    <unit name="meter" meter="1.0"/>
    <up_axis>Y_UP</up_axis>
  </asset>
  <library_effects>
  </library_effects>
  <library_images>
  </library_images>
  <library_materials>
  </library_materials>
  <library_geometries>
    <geometry id="RoomOnTheBroom-mesh" name="RoomOnTheBroom">
      <mesh>
        <source id="RoomOnTheBroom-mesh-positions">
          <float_array id="RoomOnTheBroom-mesh-positions-array" count="738">-0.01539 -0.289948 0.064667 -0.014046 -0.294556 0.08445 -0.083588 -0.286682 0.092644 -0.072655 -0.365753 0.150009 -0.052624 -0.210861 0.048607 -0.014918 -0.196487 0.051201 -0.053764 -0.246674 0.084488 -0.096832 -0.317352 0.130127 0.060776 -0.307434 0.079834 0.027233 -0.383728 0.105621 0.004336 -0.270996 0.084969 0.038757 -0.184662 0.047493 -0.087105 -0.196381 0.077461 -0.12355 -0.301331 0.135986 -0.126785 -0.258575 0.131638 -0.087059 -0.122917 0.08963 -0.170593 -0.238205 0.208801 -0.159576 -0.195541 0.229233 -0.097626 -0.103966 0.153717 -0.124344 -0.133438 0.288818 -0.083923 -0.195694 0.128616 -0.134048 -0.271423 0.174881 -0.067123 -0.202713 0.078552 -0.045361 -0.173508 0.139847 -0.047039 -0.152832 0.133392 -0.10099 -0.198685 0.175354 -0.116989 -0.199417 0.20253 -0.04483 -0.158722 0.22316 0.032871 -0.308624 0.112808 -0.001649 -0.379822 0.181168 -0.051136 -0.350098 0.156143 0.025127 -0.38678 0.1922 0.045509 -0.365875 0.198257 -0.011357 -0.41452 0.270264 0.025166 -0.39267 0.31369 -0.053577 -0.396362 0.23111 -0.012587 -0.410614 0.302124 -0.026548 -0.349335 0.170975 -0.007487 -0.255432 0.098892 0.021957 -0.324982 0.157455 0.025665 -0.377228 0.229736 0.028395 -0.372437 0.30777 0.047119 -0.295349 0.190094 -0.153854 -0.321991 0.210083 -0.157532 -0.309113 0.188736 -0.190277 -0.301422 0.314941 -0.18399 -0.292572 0.355743 -0.047371 -0.268616 0.12487 -0.087814 -0.268921 0.203217 -0.078896 -0.222977 0.182663 -0.02858 -0.195648 0.249191 -0.077225 -0.356506 0.25238 -0.016722 -0.385956 0.265808 0.012652 -0.271484 0.14061 -0.03495 -0.333618 0.224945 -0.047604 -0.404358 0.321594 -0.032486 -0.281464 0.190994 0.042431 -0.23822 0.145004 0.007834 -0.285858 0.194336 -0.019165 -0.330933 0.240952 0.026268 -0.305542 0.247574 -0.039501 -0.340881 0.325897 -0.022366 -0.087463 0.033962 -0.122948 -0.194305 0.015391 -0.035255 -0.162933 0.011693 -0.128204 -0.144287 0.029104 -0.111351 -0.116333 0.049389 -0.020353 -0.100082 0.016905 0.028013 -0.102303 0.017014 0.053604 -0.074165 -0.008142 -0.003346 -0.233398 -0.008281 -0.004677 -0.147568 0.024557 -0.042213 -0.227829 0.008644 -0.019075 -0.143112 0.045757 -0.015566 -0.19249 0.051437 0.002495 -0.146515 0.060715 0.067436 -0.238525 0.041744 0.032185 -0.141571 0.024576 -0.128006 -0.289825 0.270905 -0.105545 -0.223389 0.301636 -0.10424 -0.245377 0.302032 -0.022808 -0.222168 0.328918 -0.035297 -0.122375 0.181473 -0.068802 -0.139923 0.169098 -0.046593 -0.151688 0.131271 -0.077858 -0.11628 0.162888 0.008701 -0.117424 0.148499 0.003204 -0.149368 0.19545 -0.039543 -0.225464 0.216263 0.104469 -0.36554 0.111794 0.104546 -0.397919 0.140793 0.103775 -0.34549 0.121765 0.127075 -0.256409 0.102806 0.147858 -0.360626 0.190903 0.099915 -0.42569 0.197754 0.124054 -0.453857 0.302887 0.16011 -0.320221 0.235779 0.112625 -0.45578 0.309357 0.14183 -0.242157 0.147507 0.148438 -0.318604 0.241699 0.088661 -0.246994 0.080582 0.129486 -0.235046 0.155533 0.084282 -0.235962 0.106522 0.095612 -0.281281 0.179932 0.084839 -0.302765 0.240631 0.156174 -0.195023 0.125946 0.152496 -0.280212 0.161026 0.152298 -0.18396 0.105186 0.041199 -0.204681 -0.009676 0.072014 -0.137665 0.051388 0.032574 -0.141571 0.025894 0.030964 -0.098679 0.033176 -0.016499 -0.191879 0.049412 0.063927 -0.149185 0.06472 0.091354 -0.168137 0.046669 0.171005 -0.157745 0.127869 0.112602 -0.237732 0.168289 0.099831 -0.197372 0.065536 0.025469 -0.274811 0.277191 0.056938 -0.277985 0.176392 0.09803 -0.200226 0.176041 0.048306 -0.226868 0.269653 0.054497 -0.311401 0.291107 0.085701 -0.261871 0.229126 0.080612 -0.248306 0.233337 0.133087 -0.270996 0.19751 0.112175 -0.175735 0.198486 0.086731 -0.19223 0.227356 0.074539 -0.093285 0.084274 0.029594 -0.036835 -0.091377 -0.035587 -0.025387 -0.081276 -0.020952 -0.010648 -0.093262 -0.019394 -0.051361 -0.019989 0.074112 -0.021315 -0.075668 0.058262 -0.004978 -0.07209 -0.048447 0.015013 -0.049641 0.007744 -0.026281 -0.032722 -0.003413 -0.016983 -0.019394 -0.028788 0.034138 -0.030218 -0.006612 -0.003644 0.030285 -0.027815 -0.054733 0.050831 0.05674 -0.02722 0.057404 0.022299 -0.04076 0.08123 -0.032955 -0.064323 0.056511 0.033783 0.094063 -0.15033 0.000631 0.0811 -0.138596 0.034473 -0.030315 -0.024582 0.034679 -0.008788 -0.000218 0.034325 0.059864 -0.069153 0.008051 -0.004273 -0.002248 -0.003388 0.133835 -0.151398 0.007232 0.159668 -0.156921 0.005497 0.057148 -0.011614 -0.011996 0.052536 0.004191 0.023596 0.003463 0.025797 0.039017 0.058632 0.001138 0.066856 0.041237 -0.018356 0.067764 -0.017262 0.007222 0.092987 0.013684 -0.055538 0.068115 -0.070702 0.048294 -0.004161 0.405151 -0.505859 -0.003693 0.336334 -0.429108 -0.024181 0.395294 -0.474396 -0.026688 0.454163 -0.472168 -0.008384 0.236969 -0.259033 0.005859 0.216934 -0.251526 -0.018156 0.355469 -0.376312 -0.00338 0.388641 -0.384705 -0.007009 0.232727 -0.220886 0.005362 0.241882 -0.214691 0.049786 0.392731 -0.492828 0.049889 0.455261 -0.491302 0.050781 0.373993 -0.396729 0.041512 0.295319 -0.364685 0.035538 0.213654 -0.242401 0.03886 0.231613 -0.224396 0.031395 0.354187 -0.349182 0.025747 0.239136 -0.212921 0.017387 0.44812 -0.427155 -0.108078 -0.090111 0.084312 -0.048622 -0.056862 0.145584 -0.06263 -0.08194 0.099236 0.004996 -0.079636 0.117607 -0.074074 -0.173874 0.260223 0.004982 -0.147171 0.272003 0.036846 -0.119362 0.239395 -0.017078 -0.096031 0.215683 -0.027033 -0.156677 0.312164 -0.095108 -0.125168 0.248627 -0.114243 -0.148621 0.24115 -0.109032 -0.157104 0.265411 0.004886 -0.143082 0.234543 0.014774 -0.186401 0.257507 -0.012918 -0.054596 0.168732 0.019184 -0.056435 0.160477 -0.00654 -0.060585 0.108521 0.010553 -0.071465 0.170181 -0.036602 -0.076118 0.191574 0.023024 -0.080299 0.258026 0.045696 -0.055614 0.124283 0.060684 -0.085823 0.231735 0.080254 -0.08506 0.211807 -0.106598 -0.053974 0.169632 0.04118 -0.078094 0.161133 0.070381 -0.101982 0.142365 0.054298 -0.075562 0.063217 0.092651 -0.086357 0.172058 0.031876 -0.048603 0.237259 -0.091728 -0.354095 0.336456 -0.089005 -0.28302 0.29248 -0.056541 -0.249786 0.208435 -0.054756 -0.293762 0.279999 0.001346 -0.22937 0.260742 -0.191162 -0.293091 0.347229 -0.151001 -0.185242 0.299469 -0.142075 -0.184311 0.344788 -0.04052 -0.129669 0.314301 -0.103203 -0.31366 0.371246 -0.080788 -0.28363 0.386169 -0.014975 -0.396729 0.390869 0.018606 -0.371429 0.387177 0.059689 -0.306427 0.328156 0.009646 -0.311981 0.405762 0.002348 -0.357483 0.397186 0.007296 -0.284576 0.370667 -0.05032 -0.315308 0.42038 -0.03759 -0.251129 0.382507 0.042839 -0.235947 0.328339 0.036366 -0.22963 0.369995 -0.020329 -0.265991 0.427399 -0.094223 -0.20195 0.378174 0.025961 -0.240341 0.396088 0.040291 -0.273224 0.410858 0.005253 -0.387573 0.447998 -0.01521 -0.430206 0.494751 0.096207 -0.269073 0.34079 0.11422 -0.337128 0.270599 0.122917 -0.317291 0.296967 0.093208 -0.167358 0.256256 0.035419 -0.162964 0.333008 0.075142 -0.408081 0.357361 0.027733 -0.431335 0.433655 0.073814 -0.357208 0.393341 -0.033863 -0.112701 0.318726 0.000038 -0.095787 0.247879 0.014933 -0.141312 0.351288</float_array>
          <technique_common>
            <accessor source="#RoomOnTheBroom-mesh-positions-array" count="246" stride="3">
              <param name="X" type="float"/>
              <param name="Y" type="float"/>
              <param name="Z" type="float"/>
            </accessor>
          </technique_common>
        </source>
        <source id="RoomOnTheBroom-mesh-normals">
          <float_array id="RoomOnTheBroom-mesh-normals-array" count="1476">-0.13495 -0.967006 -0.216074 -0.160149 -0.594059 -0.788319 -0.36993 -0.349006 -0.861015 0.364762 0.30187 0.880808 0.388132 0.321269 0.863794 0.113097 0.319927 0.940668 0.106445 0.276063 0.955227 -0.903341 -0.427225 -0.038142 -0.178632 -0.444077 -0.878001 0.026575 -0.406941 -0.913068 0.010272 0.256442 0.966505 -0.553806 -0.537763 -0.635696 0.313509 0.490582 0.813045 -0.391682 -0.340621 -0.85473 0.279729 0.118058 0.952793 -0.727536 -0.123673 -0.674831 -0.848658 0.086956 -0.521745 -0.85521 0.092525 -0.509956 -0.890945 0.361614 -0.274685 -0.885644 0.384863 -0.259836 -0.846468 0.529914 -0.0518 0.825303 -0.563948 -0.028939 0.500305 0.233524 0.833763 0.493041 0.261855 0.829664 0.785579 -0.519311 0.336425 0.422326 -0.867353 0.263323 -0.397875 0.243831 0.884445 0.869928 -0.397266 0.292243 0.72633 -0.649947 0.223636 0.805253 -0.36899 0.464128 0.615549 -0.785274 -0.066672 -0.908152 -0.103571 -0.405627 -0.132235 -0.652394 -0.746254 -0.018331 -0.661625 -0.74961 0.100024 -0.713919 -0.693048 0.696828 -0.543941 -0.467503 0.702634 -0.707371 0.077019 -0.087992 -0.924936 -0.369799 0.583697 -0.807554 -0.084588 -0.058092 -0.928099 -0.367773 -0.233919 -0.823964 -0.516105 -0.462924 -0.881793 0.090235 -0.32065 0.810693 0.489858 -0.425383 0.603826 0.674124 -0.092723 0.618065 0.780639 -0.186705 0.812845 0.551746 -0.217939 0.924941 0.311426 -0.231949 0.782659 0.577619 -0.679903 0.732995 -0.021217 -0.866512 0.382382 0.320844 -0.965057 0.26144 0.017711 -0.227196 -0.5585 -0.797784 -0.147477 0.560737 0.814754 0.312668 -0.788538 -0.529572 -0.871913 -0.022185 -0.489158 0.943136 -0.326697 0.061342 -0.96381 -0.108641 -0.243448 -0.824543 -0.535975 -0.181272 0.040442 -0.977749 0.205843 0.949152 -0.206079 0.237995 -0.888065 -0.032763 -0.45855 -0.837087 0.10232 -0.537417 -0.691624 0.679865 0.243803 -0.326395 -0.74083 -0.587058 -0.266905 -0.796029 -0.543231 0.837213 0.291344 0.462811 -0.809874 0.043337 0.585001 0.349522 0.649183 0.675571 0.585639 0.615635 0.527276 0.643568 0.395981 0.654995 0.636809 -0.628995 0.445914 -0.019481 -0.712351 -0.701553 -0.019616 -0.713049 -0.700839 0.485288 -0.752005 -0.446077 0.486237 -0.873714 0.014084 0.148122 -0.303072 0.941386 0.092312 -0.254242 0.962725 0.333406 -0.677076 0.656055 -0.205184 0.238667 -0.949177 -0.077856 0.100711 -0.991865 0.005976 0.081234 -0.996677 -0.028225 -0.651844 -0.757827 -0.126588 0.217043 -0.967919 0.572373 -0.285253 0.768778 -0.278076 -0.227853 0.933144 -0.454329 0.005682 -0.890816 -0.386995 -0.001829 0.92208 -0.387589 0.084684 -0.917934 0.34121 0.226861 0.9122 -0.201993 0.40171 0.893212 0.994185 0.060396 -0.089149 -0.563139 0.054829 0.824541 -0.852073 0.240961 0.46466 -0.137691 -0.258962 -0.956023 -0.102518 -0.262574 -0.95945 0.027297 -0.164665 -0.985972 -0.336218 0.331978 -0.881333 0.358153 -0.654895 -0.665462 0.642837 -0.754659 0.131339 -0.832473 -0.113775 -0.542258 -0.670552 -0.148333 -0.726882 -0.625366 0.061017 -0.777943 -0.82588 -0.272631 -0.493554 -0.954757 0.244442 0.169374 0.908518 -0.399087 -0.12379 0.688445 -0.686087 -0.235221 0.389884 -0.751589 -0.532076 0.286936 -0.853964 0.434067 0.342531 0.775726 -0.53002 -0.572383 0.139345 -0.80806 -0.227506 -0.68177 -0.695292 -0.395222 0.244371 0.885484 -0.702282 0.624138 0.342421 -0.642139 0.726185 0.245587 0.879223 -0.460036 0.123831 0.47087 -0.461207 -0.752043 -0.004022 -0.401737 -0.915746 -0.324655 -0.631447 -0.704183 -0.52985 0.282435 0.79968 -0.002815 -0.483561 -0.875306 0.671636 -0.197927 -0.713954 0.945533 -0.215926 -0.243604 0.818466 -0.266888 -0.508807 0.772616 -0.593145 -0.22637 0.744039 -0.582678 -0.326944 0.962719 -0.269767 -0.01995 0.42815 0.310643 0.848639 0.971814 -0.035901 -0.233 0.464518 0.291213 0.836312 0.387283 0.728966 0.564465 -0.555856 0.246629 0.79385 -0.880599 0.061337 0.469875 -0.992857 -0.053333 -0.106723 -0.913504 0.30212 0.272459 -0.93886 0.119882 0.322754 -0.920943 0.336975 0.195736 0.014165 -0.965019 -0.261798 0.703496 -0.53793 -0.464462 0.728934 -0.526511 -0.43754 0.857179 -0.514152 -0.029847 0.841461 -0.539829 0.022984 -0.609111 0.459951 0.646087 0.953425 -0.059785 -0.295647 0.85427 -0.229044 -0.46665 0.895569 -0.301028 -0.327625 -0.442034 0.172548 -0.880246 0.992148 0.114916 0.049365 -0.537013 0.315162 0.782489 0.075568 -0.467286 0.880871 -0.524386 -0.161616 0.836002 0.528454 -0.122781 0.840036 -0.282987 -0.63412 -0.71959 0.630139 -0.071628 -0.773172 0.331016 -0.046535 -0.942477 0.676827 -0.180044 -0.713786 0.650416 -0.202391 -0.732118 0.702927 0.106841 -0.703192 0.226537 -0.462427 -0.85723 0.503324 -0.421383 -0.754388 0.7057 -0.16624 -0.688732 0.909073 0.012629 -0.416446 -0.38972 0.168599 0.905369 -0.204827 0.325951 0.922931 -0.27598 -0.221471 -0.9353 -0.860369 -0.138003 0.490633 -0.261481 0.10552 0.959423 -0.716767 -0.173925 0.675275 0.220157 0.877323 0.426421 -0.624096 -0.206647 0.753526 -0.922748 -0.231123 0.308412 -0.704211 0.296127 0.645287 0.443566 -0.779736 -0.441884 -0.852518 -0.365147 -0.374005 0.922604 -0.25498 0.289461 -0.970983 -0.097501 -0.218369 0.778466 -0.424963 0.461949 0.838353 -0.441587 0.319633 0.995368 0.084523 0.045801 -0.836795 0.443655 0.320849 0.726691 0.437133 -0.529939 -0.33442 -0.729779 -0.59631 -0.284047 -0.790614 -0.542445 0.972202 0.212412 0.098513 0.983818 -0.037757 -0.17515 -0.836648 -0.401963 0.372082 -0.931359 -0.330101 -0.153638 0.976273 -0.00894 0.216358 0.894486 0.24564 -0.373571 0.92949 0.270917 -0.250306 0.655404 0.526327 0.541688 0.941781 0.328097 -0.073489 -0.215896 -0.478008 -0.851409 -0.212939 -0.918557 -0.333031 0.320481 -0.946863 0.027254 0.187175 0.379989 -0.905855 -0.926509 -0.365362 0.089955 -0.749455 0.243514 -0.615645 -0.581736 0.734741 -0.348911 0.459646 0.888029 0.01144 0.587645 0.80605 -0.070401 0.611584 0.787356 -0.077688 0.620535 0.144836 -0.770688 -0.80536 0.323132 0.496971 -0.886317 -0.201743 0.416825 -0.932355 0.349045 -0.094244 -0.21067 0.438747 0.873567 -0.31419 0.945702 0.083261 -0.525022 0.624119 0.578642 0.02194 -0.701186 -0.712641 0.106385 -0.706642 -0.699527 0.999974 -0.001585 -0.007055 0.999966 -0.002683 -0.007807 0.066243 0.707173 0.70393 -0.816872 -0.431513 -0.382775 -0.987384 -0.104195 -0.119232 -0.880307 0.312532 0.356909 -0.788282 0.42017 0.449521 0.726096 0.222673 -0.650539 0.528475 -0.106458 -0.842247 -0.446364 0.861311 -0.2427 0.437502 0.608719 0.661856 -0.333315 0.460816 0.822527 0.355724 -0.004091 -0.934582 -0.550727 0.05219 -0.833053 0.667136 0.307103 0.678688 0.05011 -0.14852 -0.987639 0.2105 0.399624 -0.892183 0.853891 -0.51253 0.090455 0.866443 0.211248 0.452383 -0.10517 0.762208 -0.638732 -0.881733 0.418071 -0.21855 -0.134291 -0.760147 -0.635722 -0.058784 -0.601913 -0.796395 0.961055 -0.262491 0.086436 0.948442 -0.277408 0.153306 0.921077 0.294359 -0.254892 0.673734 -0.727702 -0.12858 0.574412 -0.021174 0.818292 -0.008818 0.88415 0.46712 -0.839363 0.410848 -0.355911 -0.56115 -0.617966 -0.550663 -0.841394 -0.015387 -0.540202 -0.785112 -0.525097 -0.328439 -0.67819 -0.626227 -0.384574 -0.998083 -0.044146 0.043384 -0.998257 -0.036165 0.046636 -0.716325 0.453295 0.530474 -0.998167 -0.052481 0.030143 -0.777294 0.455924 0.433529 -0.663467 0.56331 0.492437 -0.010173 -0.744534 -0.667507 0.239799 0.02329 -0.970543 0.999943 -0.001388 -0.010624 0.127924 -0.793514 -0.594955 0.99069 -0.131326 -0.035864 0.045634 -0.827858 -0.559078 0.077609 -0.830842 -0.55107 0.989354 -0.13864 -0.044254 0.990121 -0.13377 -0.042028 0.666884 0.551156 0.501491 0.711294 0.52225 0.470441 0.046632 0.762283 0.645561 0.086997 0.756318 0.648394 -0.218842 0.482438 -0.848152 0.015321 0.992861 0.11829 -0.52479 0.608245 0.595511 0.741951 0.511943 0.432923 -0.179848 0.61228 0.769915 0.694845 0.517852 0.499019 -0.022539 -0.638623 -0.769189 -0.428342 -0.567876 -0.70288 0.172992 -0.60243 -0.779199 -0.995844 -0.084277 -0.034529 -0.999324 -0.012237 0.03466 -0.67312 0.408518 0.616459 0.991563 -0.0879 -0.095272 0.998219 -0.052297 -0.028697 0.719816 0.454923 0.524319 -0.262813 0.595947 0.758799 0.006423 0.575018 0.818115 -0.638758 0.432578 0.63629 0.172159 0.676456 0.716078 -0.398073 0.683769 -0.611553 -0.442224 0.736641 -0.511662 -0.367908 0.919004 -0.141689 -0.340639 0.641374 -0.687462 -0.868939 0.196757 -0.454128 -0.989999 -0.072261 -0.121159 -0.684414 0.119565 -0.719223 -0.70106 0.529832 -0.477277 0.340192 -0.89592 0.285652 -0.054839 -0.795995 0.602814 -0.099875 0.854901 0.509087 -0.346314 0.85411 0.388023 -0.347451 0.853495 0.38836 -0.333304 0.867172 0.370028 -0.302817 -0.92658 -0.223048 -0.124691 -0.834179 -0.537213 0.095682 -0.847167 -0.52264 0.316136 -0.944737 -0.086775 0.397503 -0.917476 -0.015134 0.758439 -0.646096 0.085615 -0.087406 0.934349 0.345474 0.809174 0.418315 0.412614 0.548051 -0.833661 -0.068186 0.342746 -0.904308 -0.254465 -0.982291 0.186967 0.0122 -0.979998 -0.185528 0.071997 -0.720774 0.527797 0.449349 -0.008193 0.996356 -0.084899 -0.38825 0.921494 -0.010551 0.106481 0.974611 0.196963 -0.000951 -0.995099 0.098879 -0.03243 -0.994899 0.095524 0.269326 -0.878735 0.394067 -0.724497 0.615878 0.309513 -0.361723 0.931282 0.043243 -0.016276 0.983875 0.178118 -0.450113 0.890164 0.070751 -0.790656 0.539307 -0.289845 -0.049494 0.993038 0.10689 -0.802502 0.571501 0.1714 0.26966 0.937769 0.218797 0.290906 0.930849 0.221121 0.205542 0.949219 0.238193 -0.913791 0.09577 0.394734 0.034782 0.423735 0.905118 -0.054153 0.687486 0.724175 0.50035 0.821669 0.272967 0.471718 0.246542 0.846581 -0.137783 0.887953 -0.438811 0.285138 -0.151951 -0.946365 0.536863 0.141916 -0.831648 0.670376 0.734003 0.108792 0.549238 0.819804 0.162049 -0.199448 -0.978526 -0.052024 -0.022115 -0.997958 -0.059927 -0.194558 -0.980471 -0.028687 0.1723 -0.972426 -0.157161 0.459845 0.880562 0.114685 0.550228 0.835007 -0.003461 0.543966 0.839085 -0.006118 0.521618 0.85311 0.010866 0.137141 -0.987471 0.078056 0.691277 0.176561 -0.700687 0.803425 0.324302 -0.499336 0.908795 -0.280557 0.308837 0.353734 0.248296 -0.901788 -0.619549 -0.313786 0.719512 0.279208 0.806492 0.521166 0.810424 0.568107 0.143061 -0.96512 -0.206803 -0.160551 -0.834058 -0.343259 -0.43188 -0.763045 -0.636324 -0.113377 0.729286 0.5031 0.463716 -0.999413 0.033292 -0.008076 0.839658 0.262138 0.475665 -0.979954 0.198384 0.018259 -0.71816 0.636276 0.281778 0.841825 0.304571 0.445608 0.84315 -0.524508 0.118276 0.789937 0.307885 0.530289 0.730006 -0.60962 0.308958 0.142545 -0.392118 0.908804 -0.969634 -0.01197 -0.244267 -0.539841 0.635443 0.552072 -0.82212 -0.498705 -0.27461 -0.980613 0.181555 -0.073723 -0.963081 0.266603 -0.037397 -0.214588 -0.947138 0.2385 -0.926732 0.371105 0.058727 -0.67981 0.493425 0.542578 -0.885094 0.463684 0.040068 0.926782 -0.304174 0.220347 0.904411 -0.398113 0.153448 0.480225 0.286981 0.82887 -0.290479 0.882106 0.370825 0.760848 -0.644607 0.07478 -0.86388 0.477496 0.16034 0.675216 -0.728116 -0.118032 -0.221413 0.75552 0.616575 0.065983 -0.863992 -0.499163 -0.309008 -0.839026 -0.447828 -0.818351 -0.514472 -0.256165 0.913236 -0.283118 -0.292992 -0.941676 0.189836 0.277864 -0.798622 0.354381 0.486434 0.816472 -0.404866 -0.411653 0.393853 -0.910383 0.126817 0.385682 -0.909901 0.152741 -0.665729 0.734282 -0.132799 0.598013 -0.754149 0.271366 0.883532 -0.422985 0.201132 0.904477 -0.348925 0.2453 0.841047 -0.041849 0.539341 0.313814 -0.284331 0.905912 -0.847401 0.425218 -0.317963 -0.961057 -0.034507 -0.274186 -0.975652 -0.091654 -0.199255 0.216909 0.432027 0.875387 -0.405023 0.56731 0.717018 -0.317206 0.169379 0.933108 -0.697424 0.267989 0.664667 -0.965287 -0.162329 -0.204623 -0.505826 -0.634765 -0.584134 -0.668505 -0.461679 -0.583056 0.362547 -0.763949 -0.533799 0.054887 -0.707801 -0.704276 -0.291444 -0.625024 -0.724158 -0.330472 0.527428 0.782693 -0.551752 -0.251762 -0.795101 0.183947 0.472233 0.862067 0.24254 -0.217111 0.945535 0.360849 -0.228304 0.904248 0.380703 0.572904 0.725842 0.81804 0.194167 0.541396 -0.195679 -0.729528 -0.655362 0.344053 -0.90884 -0.235876 -0.951289 0.222007 -0.21392 -0.154951 0.347808 0.924673 0.647918 0.528667 0.548374 -0.172357 -0.707874 -0.684987 -0.943151 -0.24572 -0.223805 -0.879262 -0.281487 -0.384269 0.940784 -0.333801 -0.059177 -0.874492 0.470366 0.118408 -0.788252 -0.204983 -0.580208 -0.7937 -0.325138 -0.514125 0.958845 0.057985 0.277947 0.823018 0.13769 0.551075 -0.916419 -0.122176 -0.381115 0.647448 0.613333 0.452365 0.958407 0.208395 0.195005 0.928683 0.2567 0.267681 0.924796 0.258937 0.278755 0.724431 0.453114 0.519506 0.968033 -0.007946 0.250696 0.862119 0.204908 0.463425 0.894828 -0.44467 0.039389 -0.870062 -0.224224 -0.438994 -0.856742 -0.136359 -0.497393 -0.798673 -0.097056 -0.593886 -0.795624 -0.22426 -0.562753 -0.798618 -0.227643 -0.557124 0.902117 -0.233211 0.363039 0.850114 -0.289101 0.440144 0.80157 -0.189978 0.566916 0.879576 0.058074 0.472201 0.696457 0.130833 0.705571 0.764361 0.175704 0.620388 -0.681215 0.689697 0.245487 0.816245 -0.521834 0.247857 -0.746353 0.636642 0.194018 -0.330421 0.720211 0.610015 -0.523216 0.808035 0.270784 -0.463883 0.880203 0.100275 -0.159489 0.906671 0.390527 -0.934526 0.336167 0.11685 -0.239169 0.931744 0.273225 0.381773 -0.79665 -0.468612 -0.463543 0.680103 0.567967 -0.337655 0.747013 0.572679 0.363231 0.604693 0.708808 0.260432 0.594045 0.761108 0.746919 0.427148 0.509565 -0.785457 -0.471474 -0.400961 -0.278156 -0.73342 -0.620262 -0.192457 -0.706843 -0.680686 0.054524 -0.848471 -0.526426 0.065555 0.654559 0.753163 0.186185 0.607046 0.772548 0.660887 0.424024 0.619219 0.082638 0.624734 0.776452 -0.192673 0.72626 0.659866 0.219732 0.808172 0.546421 0.084008 -0.907479 -0.411611 -0.55479 0.000689 0.83199 0.117003 0.826401 0.550791 0.123652 -0.98216 -0.141679 0.041384 -0.912237 -0.407566 0.463954 0.722337 0.512811 0.504551 0.767313 0.395803 0.562151 0.733921 0.381244 0.702948 0.668499 0.242843 0.985662 -0.021369 0.167374 0.793075 0.583199 0.175814 -0.835115 -0.414775 -0.361309 -0.027011 0.444838 0.895204 -0.012652 -0.165351 -0.986154 -0.114408 0.915477 -0.385763 0.03768 -0.920393 0.389176 -0.823408 0.561953 0.078788</float_array>
          <technique_common>
            <accessor source="#RoomOnTheBroom-mesh-normals-array" count="492" stride="3">
              <param name="X" type="float"/>
              <param name="Y" type="float"/>
              <param name="Z" type="float"/>
            </accessor>
          </technique_common>
        </source>
        <source id="RoomOnTheBroom-mesh-map-0">
          <float_array id="RoomOnTheBroom-mesh-map-0-array" count="2952">0.245361 0.488037 0.243164 0.504639 0.19043 0.496338 0.19043 0.496338 0.243164 0.504639 0.189697 0.56958 0.245361 0.488037 0.19043 0.496338 0.212646 0.43042 0.375488 0.32666 0.3125 0.341797 0.28833 0.29834 0.28833 0.29834 0.3125 0.341797 0.249512 0.378418 0.375488 0.32666 0.28833 0.29834 0.299316 0.244873 0.299316 0.244873 0.28833 0.29834 0.250977 0.215576 0.250977 0.215576 0.28833 0.29834 0.2771 0.302734 0.989502 0.823486 0.937012 0.80957 0.991211 0.776611 0.991211 0.776611 0.937012 0.80957 0.915283 0.774658 0.915283 0.774658 0.937012 0.80957 0.834961 0.829346 0.283936 0.030762 0.313721 0.014404 0.275635 0.068359 0.283936 0.030762 0.275635 0.068359 0.219727 0.016846 0.390625 0.187256 0.493408 0.179443 0.472656 0.196289 0.472656 0.196289 0.493408 0.179443 0.469727 0.216553 0.472656 0.196289 0.469727 0.216553 0.390625 0.187256 0.390625 0.187256 0.469727 0.216553 0.358887 0.236084 0.358887 0.236084 0.469727 0.216553 0.493652 0.285889 0.358887 0.236084 0.493652 0.285889 0.468994 0.315186 0.358887 0.236084 0.468994 0.315186 0.368164 0.307861 0.368164 0.307861 0.468994 0.315186 0.446045 0.373047 0.81543 0.770264 0.762695 0.795166 0.802002 0.730469 0.825928 0.831299 0.81543 0.770264 0.865723 0.777588 0.81543 0.770264 0.825928 0.831299 0.784424 0.830811 0.81543 0.770264 0.784424 0.830811 0.762695 0.795166 0.762695 0.795166 0.784424 0.830811 0.737549 0.820312 0.762695 0.795166 0.737549 0.820312 0.723145 0.813232 0.802002 0.730469 0.762695 0.795166 0.744629 0.759033 0.744629 0.759033 0.762695 0.795166 0.723145 0.813232 0.802002 0.730469 0.744629 0.759033 0.747314 0.737793 0.744629 0.759033 0.723145 0.813232 0.684082 0.760498 0.36377 0.987549 0.430908 0.969727 0.464111 0.988281 0.332031 0.530029 0.30127 0.503174 0.338867 0.446777 0.332031 0.530029 0.338867 0.446777 0.382812 0.466797 0.338867 0.446777 0.30127 0.503174 0.320801 0.435059 0.320801 0.435059 0.30127 0.503174 0.300293 0.436279 0.320801 0.435059 0.300293 0.436279 0.338867 0.373535 0.320801 0.435059 0.338867 0.373535 0.338867 0.446777 0.338867 0.373535 0.300293 0.436279 0.303711 0.354004 0.338867 0.446777 0.338867 0.373535 0.364014 0.409668 0.338867 0.446777 0.364014 0.409668 0.382812 0.466797 0.364014 0.409668 0.338867 0.373535 0.355469 0.355225 0.382812 0.466797 0.364014 0.409668 0.397461 0.450928 0.382812 0.466797 0.397461 0.450928 0.457764 0.492188 0.457764 0.492188 0.397461 0.450928 0.437744 0.445801 0.397461 0.450928 0.364014 0.409668 0.406738 0.393555 0.406738 0.393555 0.364014 0.409668 0.355469 0.355225 0.397461 0.450928 0.406738 0.393555 0.437744 0.445801 0.406738 0.393555 0.355469 0.355225 0.396973 0.340576 0.437744 0.445801 0.406738 0.393555 0.462891 0.417725 0.462891 0.417725 0.406738 0.393555 0.396973 0.340576 0.320312 0.07373 0.312256 0.027344 0.403076 0.027344 0.320312 0.07373 0.403076 0.027344 0.348389 0.0979 0.533936 0.746826 0.518311 0.747559 0.472412 0.709961 0.472412 0.709961 0.518311 0.747559 0.498535 0.787842 0.533936 0.746826 0.472412 0.709961 0.509521 0.707275 0.498535 0.787842 0.518311 0.747559 0.593994 0.788818 0.593994 0.788818 0.518311 0.747559 0.533936 0.746826 0.593994 0.788818 0.533936 0.746826 0.629639 0.782471 0.629639 0.782471 0.533936 0.746826 0.509521 0.707275 0.873535 0.934814 0.852783 0.998047 0.824707 0.971191 0.873535 0.934814 0.824707 0.971191 0.80127 0.920654 0.80127 0.920654 0.824707 0.971191 0.762695 0.996826 0.197266 0.181152 0.130127 0.238281 0.126953 0.140381 0.130127 0.238281 0.197266 0.181152 0.179199 0.255371 0.179199 0.255371 0.197266 0.181152 0.226807 0.156494 0.226807 0.156494 0.197266 0.181152 0.202637 0.144775 0.179199 0.255371 0.226807 0.156494 0.220703 0.239258 0.179199 0.255371 0.220703 0.239258 0.184082 0.296631 0.220703 0.239258 0.226807 0.156494 0.252197 0.205078 0.062012 0.839355 0.087891 0.86084 0.013916 0.858154 0.287354 0.663574 0.312744 0.674072 0.252686 0.70166 0.312744 0.674072 0.287354 0.663574 0.31665 0.626465 0.31665 0.626465 0.287354 0.663574 0.28125 0.624023 0.31665 0.626465 0.28125 0.624023 0.328613 0.568848 0.179932 0.522705 0.141846 0.484619 0.174561 0.457275 0.141846 0.484619 0.179932 0.522705 0.110352 0.503906 0.110352 0.503906 0.179932 0.522705 0.129883 0.522949 0.141846 0.484619 0.110352 0.503906 0.128418 0.433594 0.141846 0.484619 0.128418 0.433594 0.174561 0.457275 0.174561 0.457275 0.128418 0.433594 0.126709 0.41626 0.126709 0.41626 0.128418 0.433594 0.102539 0.398682 0.174561 0.457275 0.126709 0.41626 0.207031 0.426514 0.207031 0.426514 0.126709 0.41626 0.15918 0.395508 0.866699 0.039307 0.842041 0.016602 0.882812 0.02832 0.842041 0.016602 0.866699 0.039307 0.857666 0.082031 0.626465 0.960205 0.578369 0.962402 0.638672 0.93457 0.578369 0.962402 0.626465 0.960205 0.577881 0.994141 0.089844 0.92334 0.061523 0.953125 0.050781 0.87793 0.050781 0.87793 0.061523 0.953125 0.00415 0.953613 0.050781 0.87793 0.00415 0.953613 0.025146 0.902588 0.050781 0.87793 0.025146 0.902588 0.010254 0.87915 0.010254 0.87915 0.025146 0.902588 0.00415 0.953613 0.018799 0.623047 0.018066 0.556885 0.07251 0.525879 0.018799 0.623047 0.07251 0.525879 0.09375 0.61084 0.09375 0.61084 0.07251 0.525879 0.099609 0.532959 0.108887 0.423584 0.042725 0.444824 0.041504 0.412842 0.122803 0.136475 0.122803 0.156494 0.058594 0.137451 0.058594 0.137451 0.122803 0.156494 0.062744 0.195068 0.062744 0.195068 0.122803 0.156494 0.122803 0.239746 0.274658 0.37085 0.287109 0.438232 0.251221 0.436279 0.251221 0.436279 0.287109 0.438232 0.251465 0.531982 0.194092 0.574951 0.257812 0.644287 0.193604 0.596924 0.193604 0.596924 0.257812 0.644287 0.208984 0.666504 0.257812 0.644287 0.194092 0.574951 0.281982 0.610596 0.281982 0.610596 0.194092 0.574951 0.234375 0.532471 0.281982 0.610596 0.234375 0.532471 0.317871 0.560303 0.983887 0.876465 0.955811 0.877197 0.960693 0.847412 0.983887 0.876465 0.960693 0.847412 0.997803 0.848389 0.163574 0.327637 0.127197 0.319092 0.157959 0.253906 0.127197 0.319092 0.163574 0.327637 0.128418 0.390137 0.093994 0.128174 0.049805 0.119141 0.050781 0.103516 0.093994 0.128174 0.050781 0.103516 0.100342 0.092041 0.100342 0.092041 0.050781 0.103516 0.090576 0.043457 0.100342 0.092041 0.090576 0.043457 0.124512 0.040039 0.557373 0.950928 0.499756 0.934814 0.446289 0.896484 0.557373 0.950928 0.446289 0.896484 0.529053 0.881592 0.61499 0.091797 0.571289 0.060791 0.561768 0.033447 0.61499 0.091797 0.561768 0.033447 0.596436 0.047852 0.908936 0.999756 0.860352 0.99707 0.948975 0.971924 0.948975 0.971924 0.860352 0.99707 0.883789 0.949463 0.757568 0.539795 0.720459 0.535645 0.693848 0.481445 0.757568 0.539795 0.693848 0.481445 0.811768 0.508789 0.757568 0.539795 0.811768 0.508789 0.803223 0.572266 0.803223 0.572266 0.811768 0.508789 0.86792 0.624756 0.86792 0.624756 0.811768 0.508789 0.857666 0.500977 0.86792 0.624756 0.857666 0.500977 0.877441 0.630859 0.857666 0.500977 0.811768 0.508789 0.877686 0.415039 0.877441 0.630859 0.857666 0.500977 0.866699 0.500244 0.866699 0.500244 0.857666 0.500977 0.877686 0.415039 0.075195 0.781982 0.082764 0.824463 0.034424 0.779785 0.034424 0.779785 0.082764 0.824463 0.01001 0.826172 0.820557 0.195801 0.781494 0.172119 0.863525 0.186523 0.863525 0.186523 0.781494 0.172119 0.83667 0.0979 0.863525 0.186523 0.83667 0.0979 0.920166 0.124268 0.83667 0.0979 0.781494 0.172119 0.72876 0.111328 0.72876 0.111328 0.781494 0.172119 0.723877 0.123779 0.393799 0.634521 0.334961 0.661621 0.39502 0.560303 0.39502 0.560303 0.334961 0.661621 0.333984 0.599365 0.39502 0.560303 0.333984 0.599365 0.333252 0.55249 0.39502 0.560303 0.333252 0.55249 0.385742 0.474609 0.993164 0.771484 0.965332 0.771484 0.97168 0.732422 0.875 0.084717 0.943848 0.0354 0.950195 0.064697 0.033203 0.248535 0.033447 0.303711 0.001709 0.277832 0.033203 0.248535 0.001709 0.277832 0.021729 0.236328 0.001709 0.436279 0.009521 0.408936 0.03833 0.448975 0.03833 0.448975 0.009521 0.408936 0.032471 0.414307 0.965576 0.03418 0.957764 0.010498 0.983643 0.009521 0.915771 0.025635 0.952393 0.013916 0.958252 0.032715 0.045166 0.669678 0.023926 0.680176 0.017822 0.656006 0.023926 0.680176 0.045166 0.669678 0.02002 0.717529 0.045166 0.669678 0.017822 0.656006 0.019531 0.64624 0.045166 0.669678 0.019531 0.64624 0.034424 0.625488 0.361816 0.877686 0.308105 0.896484 0.345459 0.83252 0.308105 0.896484 0.361816 0.877686 0.346191 0.951904 0.346191 0.951904 0.361816 0.877686 0.398926 0.924316 0.398926 0.924316 0.361816 0.877686 0.423096 0.928223 0.266357 0.960938 0.3396 0.980469 0.233643 0.986328 0.07959 0.278564 0.036621 0.325928 0.041748 0.226318 0.07959 0.278564 0.041748 0.226318 0.070801 0.209229 0.07959 0.278564 0.070801 0.209229 0.125 0.297119 0.716797 0.386719 0.783203 0.381592 0.755371 0.435547 0.716797 0.386719 0.755371 0.435547 0.712891 0.447021 0.712891 0.447021 0.755371 0.435547 0.738037 0.475586 0.738037 0.475586 0.755371 0.435547 0.825684 0.478027 0.716797 0.386719 0.712891 0.447021 0.670166 0.407959 0.670166 0.407959 0.712891 0.447021 0.643311 0.475342 0.670166 0.407959 0.643311 0.475342 0.630615 0.470947 0.670166 0.407959 0.630615 0.470947 0.594971 0.467529 0.002686 0.004639 0.047363 0 0.068359 0.0354 0.002686 0.004639 0.068359 0.0354 0.018066 0.048584 0.227539 0.82666 0.212646 0.786865 0.240234 0.739502 0.227539 0.82666 0.240234 0.739502 0.252441 0.790039 0.227539 0.82666 0.252441 0.790039 0.240234 0.854248 0.240234 0.854248 0.252441 0.790039 0.311768 0.872314 0.227539 0.82666 0.240234 0.854248 0.167969 0.876465 0.200928 0.797119 0.138184 0.805664 0.168457 0.729248 0.200928 0.797119 0.168457 0.729248 0.235107 0.721924 0.138184 0.805664 0.200928 0.797119 0.189941 0.838623 0.189941 0.838623 0.200928 0.797119 0.196289 0.844727 0.628662 0.04126 0.655029 0.052734 0.655762 0.066162 0.655762 0.066162 0.655029 0.052734 0.737549 0.057861 0.628662 0.04126 0.655762 0.066162 0.620361 0.095459 0.751709 0.051025 0.799316 0.040527 0.789062 0.088867 0.799316 0.040527 0.751709 0.051025 0.781982 0.022461 0.799316 0.040527 0.781982 0.022461 0.830078 0.029541 0.799316 0.040527 0.830078 0.029541 0.839844 0.070801 0.190674 0.64209 0.114014 0.542725 0.145996 0.527588 0.190674 0.64209 0.145996 0.527588 0.18457 0.564941 0.182129 0.642822 0.113037 0.567139 0.116943 0.558105 0.113037 0.567139 0.182129 0.642822 0.098633 0.610596 0.905762 0.500244 0.952881 0.526367 0.936279 0.532471 0.952881 0.526367 0.905762 0.500244 0.989258 0.49292 0.989258 0.49292 0.905762 0.500244 0.881104 0.470703 0.881104 0.470703 0.905762 0.500244 0.873047 0.497314 0.952881 0.526367 0.989258 0.49292 0.968994 0.56958 0.952881 0.526367 0.968994 0.56958 0.936279 0.532471 0.873047 0.497314 0.905762 0.500244 0.885498 0.560547 0.885498 0.560547 0.905762 0.500244 0.936279 0.532471 0.885498 0.560547 0.936279 0.532471 0.898438 0.572266 0.898438 0.572266 0.936279 0.532471 0.968994 0.56958 0.898438 0.572266 0.968994 0.56958 0.955811 0.592529 0.955811 0.592529 0.968994 0.56958 0.99292 0.64209 0.335938 0.776855 0.419189 0.78125 0.365723 0.831299 0.335938 0.776855 0.365723 0.831299 0.298828 0.818359 0.335938 0.776855 0.298828 0.818359 0.276123 0.740234 0.276123 0.740234 0.298828 0.818359 0.256348 0.782471 0.256348 0.782471 0.298828 0.818359 0.291016 0.827393 0.173096 0.891846 0.292236 0.937988 0.190186 0.940186 0.292236 0.937988 0.173096 0.891846 0.298584 0.912109 0.298584 0.912109 0.173096 0.891846 0.298584 0.886963 0.298584 0.886963 0.173096 0.891846 0.229004 0.86377 0.298584 0.886963 0.229004 0.86377 0.297363 0.875 0.266846 0.084229 0.253418 0.193604 0.255615 0.084961 0.253418 0.193604 0.266846 0.084229 0.287109 0.221436 0.287109 0.221436 0.266846 0.084229 0.297363 0.07959 0.287109 0.221436 0.297363 0.07959 0.300049 0.237793 0.60083 0.026367 0.623779 0.026367 0.616943 0.080078 0.095459 0.927979 0.134033 0.943848 0.075439 0.948486 0.134033 0.943848 0.095459 0.927979 0.125732 0.922363 0.134033 0.943848 0.125732 0.922363 0.164307 0.880859 0.134033 0.943848 0.164307 0.880859 0.177002 0.94043 0.134033 0.943848 0.177002 0.94043 0.161865 0.997803 0.161865 0.997803 0.177002 0.94043 0.19751 0.970459 0.19751 0.970459 0.177002 0.94043 0.239258 0.973877 0.93335 0.475342 0.878174 0.455566 0.947021 0.454102 0.05249 0.383301 0.023682 0.406494 0.023682 0.373047 0.023682 0.406494 0.05249 0.383301 0.099854 0.4104 0.099854 0.4104 0.05249 0.383301 0.084473 0.354248 0.084473 0.354248 0.05249 0.383301 0.023682 0.373047 0.084473 0.354248 0.023682 0.373047 0.02002 0.324707 0.305176 0.098389 0.384277 0.144287 0.314453 0.217773 0.314453 0.217773 0.384277 0.144287 0.343506 0.256348 0.384277 0.144287 0.305176 0.098389 0.390137 0.106934 0.384277 0.144287 0.390137 0.106934 0.445801 0.116699 0.384277 0.144287 0.445801 0.116699 0.44751 0.159912 0.384277 0.144287 0.44751 0.159912 0.413086 0.180664 0.44751 0.159912 0.445801 0.116699 0.494873 0.108643 0.001221 0.132568 0.014404 0.109863 0.064941 0.133057 0.025635 0.750488 0.100098 0.750488 0.07959 0.773193 0.300049 0.686523 0.369629 0.678711 0.325195 0.698975 0.300049 0.686523 0.325195 0.698975 0.291016 0.70752 0.325195 0.698975 0.369629 0.678711 0.448975 0.744629 0.448975 0.744629 0.369629 0.678711 0.460205 0.740967 0.291016 0.70752 0.325195 0.698975 0.355469 0.747559 0.355469 0.747559 0.325195 0.698975 0.448975 0.744629 0.291016 0.70752 0.355469 0.747559 0.335938 0.769043 0.355469 0.747559 0.448975 0.744629 0.463135 0.758057 0.335938 0.769043 0.355469 0.747559 0.459473 0.769287 0.459473 0.769287 0.355469 0.747559 0.463135 0.758057 0.494141 0.295654 0.515869 0.32251 0.468018 0.353027 0.515869 0.32251 0.494141 0.295654 0.536377 0.295166 0.515869 0.32251 0.536377 0.295166 0.554199 0.353516 0.468018 0.353027 0.515869 0.32251 0.50415 0.397949 0.50415 0.397949 0.515869 0.32251 0.554199 0.353516 0.468018 0.353027 0.50415 0.397949 0.467285 0.4729 0.467285 0.4729 0.50415 0.397949 0.489014 0.480225 0.489014 0.480225 0.50415 0.397949 0.507324 0.484375 0.507324 0.484375 0.50415 0.397949 0.554199 0.353516 0.507324 0.484375 0.554199 0.353516 0.565918 0.39624 0.507324 0.484375 0.565918 0.39624 0.516113 0.490723 0.516113 0.490723 0.565918 0.39624 0.529053 0.493896 0.529053 0.493896 0.565918 0.39624 0.603271 0.398682 0.186279 0.322266 0.219482 0.287354 0.235352 0.323242 0.186279 0.322266 0.235352 0.323242 0.215088 0.355957 0.215088 0.355957 0.235352 0.323242 0.245117 0.390625 0.186279 0.322266 0.215088 0.355957 0.185791 0.399414 0.215088 0.355957 0.245117 0.390625 0.218262 0.42627 0.215088 0.355957 0.218262 0.42627 0.185791 0.399414 0.665527 0.654785 0.644775 0.630371 0.793945 0.603027 0.793945 0.603027 0.644775 0.630371 0.808105 0.586426 0.665527 0.654785 0.793945 0.603027 0.792725 0.629639 0.808105 0.586426 0.644775 0.630371 0.680908 0.601318 0.808105 0.586426 0.680908 0.601318 0.779785 0.569824 0.779785 0.569824 0.680908 0.601318 0.696533 0.582764 0.665527 0.654785 0.792725 0.629639 0.799805 0.650146 0.665527 0.654785 0.799805 0.650146 0.608398 0.703613 0.608398 0.703613 0.799805 0.650146 0.802246 0.666016 0.608398 0.703613 0.802246 0.666016 0.724854 0.700928 0.724854 0.700928 0.802246 0.666016 0.809082 0.682129 0.724854 0.700928 0.809082 0.682129 0.809082 0.696045 0.751465 0.731201 0.644287 0.712646 0.824951 0.708008 0.705566 0.960938 0.645264 0.989258 0.656738 0.973633 0.705566 0.960938 0.656738 0.973633 0.662842 0.946289 0.705566 0.960938 0.662842 0.946289 0.697266 0.914307 0.645264 0.989258 0.705566 0.960938 0.71167 0.990234 0.71167 0.990234 0.705566 0.960938 0.71167 0.963379 0.71167 0.990234 0.71167 0.963379 0.739502 0.991943 0.100342 0.953125 0.154541 0.99707 0.115234 0.998047 0.100342 0.953125 0.115234 0.998047 0.09082 0.991699 0.100342 0.953125 0.09082 0.991699 0.053467 0.973389 0.053467 0.973389 0.09082 0.991699 0.064941 0.997803 0.875977 0.642578 0.894775 0.683105 0.84668 0.685791 0.92627 0.588623 0.971436 0.635742 0.875977 0.642578 0.875977 0.642578 0.971436 0.635742 0.977051 0.668945 0.875977 0.642578 0.977051 0.668945 0.894775 0.683105 0.894775 0.683105 0.977051 0.668945 0.92749 0.716553 0.92749 0.716553 0.977051 0.668945 0.959229 0.769287 0.92749 0.716553 0.959229 0.769287 0.862305 0.752441 0.92749 0.716553 0.862305 0.752441 0.894775 0.683105 0.894775 0.683105 0.862305 0.752441 0.84668 0.685791 0.84668 0.685791 0.862305 0.752441 0.847656 0.756592 0.84668 0.685791 0.847656 0.756592 0.829346 0.767578 0.84668 0.685791 0.829346 0.767578 0.829346 0.675049 0.173096 0.64917 0.161865 0.709717 0.128418 0.659668 0.161865 0.709717 0.173096 0.64917 0.19751 0.701416 0.19751 0.701416 0.173096 0.64917 0.205322 0.671387 0.19751 0.701416 0.205322 0.671387 0.227539 0.710693 0.227539 0.710693 0.205322 0.671387 0.259766 0.676514 0.675537 0.748291 0.6875 0.803955 0.661133 0.80957 0.675537 0.748291 0.661133 0.80957 0.636475 0.768066 0.636475 0.768066 0.661133 0.80957 0.641846 0.827148 0.661133 0.80957 0.6875 0.803955 0.679199 0.827393 0.661133 0.80957 0.679199 0.827393 0.641846 0.827148 0.679199 0.827393 0.6875 0.803955 0.717285 0.831055 0.641846 0.827148 0.679199 0.827393 0.646484 0.839844 0.679199 0.827393 0.717285 0.831055 0.666748 0.867432 0.679199 0.827393 0.666748 0.867432 0.646484 0.839844 0.666748 0.867432 0.717285 0.831055 0.719238 0.874756 0.719238 0.874756 0.717285 0.831055 0.748047 0.843018 0.646484 0.839844 0.666748 0.867432 0.614746 0.877686 0.646484 0.839844 0.614746 0.877686 0.641846 0.827148 0.641846 0.827148 0.614746 0.877686 0.623779 0.813232 0.623779 0.813232 0.614746 0.877686 0.590576 0.878418 0.623779 0.813232 0.590576 0.878418 0.579834 0.866211 0.734375 0.068115 0.653564 0.106934 0.688232 0.068604 0.688232 0.068604 0.653564 0.106934 0.621094 0.102295 0.621094 0.102295 0.653564 0.106934 0.615479 0.176025 0.621094 0.102295 0.615479 0.176025 0.584473 0.142578 0.621094 0.102295 0.584473 0.142578 0.548828 0.065674 0.969482 0.453125 0.992188 0.475586 0.94043 0.476074 0.939697 0.999756 0.958984 0.969238 0.980469 0.969238 0.939697 0.999756 0.980469 0.969238 0.99292 0.998047 0.78833 0.875488 0.807129 0.903809 0.763916 0.926025 0.763916 0.926025 0.807129 0.903809 0.781738 0.933105 0.78833 0.875488 0.763916 0.926025 0.782471 0.8396 0.782471 0.8396 0.763916 0.926025 0.759521 0.845703 0.759521 0.845703 0.763916 0.926025 0.749512 0.872559 0.749512 0.872559 0.763916 0.926025 0.750977 0.933105 0.759521 0.845703 0.749512 0.872559 0.711914 0.891113 0.711914 0.891113 0.749512 0.872559 0.750977 0.933105 0.711914 0.891113 0.750977 0.933105 0.716553 0.919678 0.711914 0.891113 0.716553 0.919678 0.662109 0.882568 0.711914 0.891113 0.662109 0.882568 0.696777 0.877441 0.54248 0.082031 0.463135 0.056641 0.519775 0.034424 0.957031 0.230957 0.943115 0.243896 0.922607 0.223633 0.922607 0.223633 0.943115 0.243896 0.914062 0.230469 0.914062 0.230469 0.943115 0.243896 0.885986 0.243652 0.556641 0.969482 0.522705 0.988037 0.471191 0.934814 0.556641 0.969482 0.471191 0.934814 0.560303 0.957764 0.362061 0.982178 0.293213 0.957275 0.398438 0.960205 0.975586 0.291504 0.876465 0.313965 0.924805 0.27124 0.924805 0.27124 0.876465 0.313965 0.825195 0.290283 0.975586 0.291504 0.924805 0.27124 0.977051 0.248047 0.975586 0.291504 0.977051 0.248047 0.976807 0.371826 0.876465 0.313965 0.975586 0.291504 0.933594 0.324463 0.933594 0.324463 0.975586 0.291504 0.976807 0.371826 0.876465 0.313965 0.933594 0.324463 0.854004 0.337646 0.854004 0.337646 0.933594 0.324463 0.888184 0.381836 0.933594 0.324463 0.976807 0.371826 0.921387 0.384277 0.933594 0.324463 0.921387 0.384277 0.888184 0.381836 0.921387 0.384277 0.976807 0.371826 0.946045 0.397217 0.888184 0.381836 0.921387 0.384277 0.91626 0.390625 0.91626 0.390625 0.921387 0.384277 0.946045 0.397217 0.91626 0.390625 0.946045 0.397217 0.925293 0.449707 0.91626 0.390625 0.925293 0.449707 0.884033 0.411865 0.925293 0.449707 0.946045 0.397217 0.9646 0.437012 0.631104 0.325195 0.550781 0.320801 0.549316 0.296875 0.631104 0.325195 0.549316 0.296875 0.633545 0.283936 0.549316 0.296875 0.550781 0.320801 0.544189 0.290771 0.633545 0.283936 0.549316 0.296875 0.622559 0.229736 0.622559 0.229736 0.549316 0.296875 0.544189 0.290771 0.633545 0.283936 0.622559 0.229736 0.674805 0.262207 0.557861 0.153076 0.544189 0.290771 0.494141 0.164062 0.544189 0.290771 0.557861 0.153076 0.617676 0.184326 0.544189 0.290771 0.617676 0.184326 0.622559 0.229736 0.622559 0.229736 0.617676 0.184326 0.62793 0.171143 0.622559 0.229736 0.62793 0.171143 0.641357 0.1604 0.674805 0.262207 0.622559 0.229736 0.662842 0.224609 0.662842 0.224609 0.622559 0.229736 0.641357 0.1604 0.674805 0.262207 0.662842 0.224609 0.732422 0.263916 0.662842 0.224609 0.641357 0.1604 0.699951 0.154297 0.050049 1 0.003906 0.966797 0.046875 0.958252 0.468262 1 0.468262 0.944336 0.499756 0.973633 0.062012 0.207031 0.002686 0.226074 0.044922 0.173584 0.044922 0.173584 0.002686 0.226074 0 0.154053 0.558594 0.85376 0.55249 0.921143 0.532715 0.851562 0.558594 0.85376 0.532715 0.851562 0.553711 0.793701 0.763672 0.288574 0.750244 0.251709 0.772705 0.27417 0.772705 0.27417 0.750244 0.251709 0.783447 0.231201 0.772705 0.27417 0.783447 0.231201 0.814697 0.267822 0.783447 0.231201 0.750244 0.251709 0.780762 0.201416 0.780762 0.201416 0.750244 0.251709 0.672119 0.220703 0.780762 0.201416 0.672119 0.220703 0.722412 0.171631 0.780762 0.201416 0.722412 0.171631 0.76416 0.166016 0.783447 0.231201 0.780762 0.201416 0.798828 0.199951 0.783447 0.231201 0.798828 0.199951 0.814697 0.267822 0.814697 0.267822 0.798828 0.199951 0.851562 0.204346 0.814697 0.267822 0.851562 0.204346 0.879639 0.268555 0.094971 0.830566 0.116455 0.755859 0.12915 0.815674 0.116455 0.755859 0.094971 0.830566 0.080566 0.780273 0.094971 0.830566 0.12915 0.815674 0.097412 0.858154 0.094971 0.830566 0.097412 0.858154 0.07251 0.839355 0.097412 0.858154 0.12915 0.815674 0.186279 0.845215 0.097412 0.858154 0.186279 0.845215 0.150879 0.883545 0.097412 0.858154 0.150879 0.883545 0.07959 0.883789 0.07959 0.883789 0.150879 0.883545 0.092041 0.915771 0.985352 0.102051 0.954346 0.180908 0.939697 0.148682 0.954346 0.180908 0.985352 0.102051 0.998047 0.151855 0.939697 0.148682 0.954346 0.180908 0.908691 0.164062 0.954346 0.180908 0.998047 0.151855 0.995361 0.200928 0.908691 0.164062 0.954346 0.180908 0.928955 0.210938 0.928955 0.210938 0.954346 0.180908 0.995361 0.200928 0.928955 0.210938 0.995361 0.200928 0.96875 0.217773 0.908691 0.164062 0.928955 0.210938 0.856934 0.199707 0.856934 0.199707 0.928955 0.210938 0.877686 0.240723 0.036865 0.107666 0.017822 0.054932 0.085938 0.038086 0.017822 0.054932 0.036865 0.107666 0.02417 0.093262 0.604492 0.721436 0.588623 0.643555 0.601074 0.603271 0.588623 0.643555 0.604492 0.721436 0.593262 0.743408 0.593262 0.743408 0.604492 0.721436 0.652832 0.752441 0.954834 0.848145 0.942383 0.918457 0.939209 0.816895 0.939209 0.816895 0.942383 0.918457 0.883057 0.825928 0.883057 0.825928 0.942383 0.918457 0.82251 0.919434 0.972412 0.040283 0.99707 0.043213 0.997803 0.115234 0.97583 0.884766 0.997559 0.964355 0.942871 0.92749 0.942871 0.92749 0.997559 0.964355 0.946533 0.964355 0.942871 0.92749 0.946533 0.964355 0.883301 0.930176 0.901611 0.094482 0.796387 0.078125 0.901611 0.094482 0.912109 0.081299 0.901611 0.094482 0.901611 0.094482 0.901611 0.094482 0.912109 0.081299 0.977051 0.070557 0.659424 0.048828 0.659424 0.037109 0.74707 0.042969 0.130859 0.040283 0.169678 0.157227 0.109131 0.106445 0.169678 0.157227 0.130859 0.040283 0.175049 0.044678 0.169678 0.157227 0.175049 0.044678 0.213135 0.131104 0.213135 0.131104 0.175049 0.044678 0.244141 0.049561 0.046631 0.51709 0.071777 0.44165 0.121826 0.435547 0.046631 0.51709 0.121826 0.435547 0.099121 0.516846 0.481445 0.621094 0.551514 0.592285 0.557129 0.613037 0.472412 0.508545 0.491455 0.506104 0.551514 0.592285 0.472412 0.508545 0.551514 0.592285 0.481445 0.621094 0.472412 0.508545 0.481445 0.621094 0.414307 0.5896 0.414307 0.5896 0.481445 0.621094 0.436768 0.659668 0.414307 0.5896 0.436768 0.659668 0.409668 0.698486 0.481445 0.621094 0.557129 0.613037 0.498291 0.656982 0.481445 0.621094 0.498291 0.656982 0.436768 0.659668 0.436768 0.659668 0.498291 0.656982 0.409668 0.698486 0.498291 0.656982 0.557129 0.613037 0.56543 0.656738 0.409668 0.698486 0.498291 0.656982 0.533203 0.703613 0.533203 0.703613 0.498291 0.656982 0.56543 0.656738 0.612793 0.899902 0.690674 0.909424 0.574951 0.950684 0.612793 0.899902 0.574951 0.950684 0.561768 0.87207 0.436523 0.09375 0.369141 0.082031 0.481689 0.071533 0.436523 0.09375 0.481689 0.071533 0.554199 0.091064 0.000244 0.774902 0.008301 0.750244 0.067871 0.775391 0.143799 0.751953 0.051514 0.73584 0.140137 0.701416 0.140137 0.701416 0.051514 0.73584 0.053955 0.678467 0.140137 0.701416 0.053955 0.678467 0.059082 0.667236 0.140137 0.701416 0.059082 0.667236 0.115234 0.648193 0.480713 0.035889 0.431641 0.071045 0.418701 0.016602 0.606445 0.352051 0.657959 0.40625 0.572021 0.361572 0.657959 0.40625 0.606445 0.352051 0.704346 0.376465 0.704346 0.376465 0.606445 0.352051 0.660645 0.311768 0.704346 0.376465 0.660645 0.311768 0.73999 0.366699 0.73999 0.366699 0.660645 0.311768 0.731445 0.295166 0.73999 0.366699 0.731445 0.295166 0.833008 0.311768 0.73999 0.366699 0.833008 0.311768 0.805908 0.381592 0.805908 0.381592 0.833008 0.311768 0.872314 0.38623 0.805908 0.381592 0.872314 0.38623 0.879395 0.4104 0.626221 0.510986 0.615723 0.603516 0.543945 0.56958 0.626221 0.510986 0.543945 0.56958 0.556885 0.525635 0.626221 0.510986 0.556885 0.525635 0.560547 0.463867 0.615723 0.603516 0.626221 0.510986 0.679688 0.548584 0.615723 0.603516 0.679688 0.548584 0.636719 0.631104 0.679688 0.548584 0.626221 0.510986 0.675049 0.495361 0.679688 0.548584 0.675049 0.495361 0.710693 0.5354 0.679688 0.548584 0.710693 0.5354 0.681396 0.558105 0.681396 0.558105 0.710693 0.5354 0.736328 0.564941 0.487061 0.882812 0.438477 0.889404 0.432617 0.8479 0.432617 0.8479 0.438477 0.889404 0.356934 0.845703 0.356934 0.845703 0.438477 0.889404 0.40918 0.897949 0.487061 0.882812 0.432617 0.8479 0.423828 0.773682 0.487061 0.882812 0.423828 0.773682 0.485352 0.790771 0.487061 0.882812 0.485352 0.790771 0.513672 0.873779 0.939453 0.13501 0.901611 0.094482 0.977051 0.070557 0.93335 0.034424 0.866943 0.082031 0.871582 0.044922 0.879883 0.014648 0.92334 0.014648 0.892334 0.030029 0.082764 0.338379 0.058594 0.311035 0.114746 0.311279 0.082764 0.338379 0.114746 0.311279 0.123779 0.389648 0.958496 0.395996 0.989014 0.374756 1 0.425781 0.958496 0.395996 1 0.425781 0.974121 0.443848 0.017822 0.549805 0.017822 0.458984 0.026123 0.505127</float_array>
          <technique_common>
            <accessor source="#RoomOnTheBroom-mesh-map-0-array" count="1476" stride="2">
              <param name="S" type="float"/>
              <param name="T" type="float"/>
            </accessor>
          </technique_common>
        </source>
        <vertices id="RoomOnTheBroom-mesh-vertices">
          <input semantic="POSITION" source="#RoomOnTheBroom-mesh-positions"/>
        </vertices>
        <polylist material="Material_-1-material" count="6">
          <input semantic="VERTEX" source="#RoomOnTheBroom-mesh-vertices" offset="0"/>
          <input semantic="NORMAL" source="#RoomOnTheBroom-mesh-normals" offset="1"/>
          <input semantic="TEXCOORD" source="#RoomOnTheBroom-mesh-map-0" offset="2" set="0"/>
          <vcount>3 3 3 3 3 3 3 3 3 3 3 3 3 3 3 3 3 3 3 3 3 3 3 3 3 3 3 3 3 3 3 3 3 3 3 3 3 3 3 3 3 3 3 3 3 3 3 3 3 3 3 3 3 3 3 3 3 3 3 3 3 3 3 3 3 3 3 3 3 3 3 3 3 3 3 3 3 3 3 3 3 3 3 3 3 3 3 3 3 3 3 3 3 3 3 3 3 3 3 3 3 3 3 3 3 3 3 3 3 3 3 3 3 3 3 3 3 3 3 3 3 3 3 3 3 3 3 3 3 3 3 3 3 3 3 3 3 3 3 3 3 3 3 3 3 3 3 3 3 3 3 3 3 3 3 3 3 3 3 3 3 3 3 3 3 3 3 3 3 3 3 3 3 3 3 3 3 3 3 3 3 3 3 3 3 3 3 3 3 3 3 3 3 3 3 3 3 3 3 3 3 3 3 3 3 3 3 3 3 3 3 3 3 3 3 3 3 3 3 3 3 3 3 3 3 3 3 3 3 3 3 3 3 3 3 3 3 3 3 3 3 3 3 3 3 3 3 3 3 3 3 3 3 3 3 3 3 3 3 3 3 3 3 3 3 3 3 3 3 3 3 3 3 3 3 3 3 3 3 3 3 3 3 3 3 3 3 3 3 3 3 3 3 3 3 3 3 3 3 3 3 3 3 3 3 3 3 3 3 3 3 3 3 3 3 3 3 3 3 3 3 3 3 3 3 3 3 3 3 3 3 3 3 3 3 3 3 3 3 3 3 3 3 3 3 3 3 3 3 3 3 3 3 3 3 3 3 3 3 3 3 3 3 3 3 3 3 3 3 3 3 3 3 3 3 3 3 3 3 3 3 3 3 3 3 3 3 3 3 3 3 3 3 3 3 3 3 3 3 3 3 3 3 3 3 3 3 3 3 3 3 3 3 3 3 3 3 3 3 3 3 3 3 3 3 3 3 3 3 3 3 3 3 3 3 3 3 3 3 3 3 3 3 3 3 3 3 3 3 3 3 3 3 3 3 3 3 3 3 3 3 3 3 3 3 3 3 3 3 3 3 3 3 3 3 3 3 3 3 3 3 3 3 3 3 3 3 3 3 3 3 3</vcount>
          <p>0 0 0 1 0 1 2 0 2 2 1 3 1 1 4 3 1 5 0 2 6 2 2 7 4 2 8 5 3 9 6 3 10 1 3 11 1 4 12 6 4 13 7 4 14 5 5 15 1 5 16 8 5 17 8 6 18 1 6 19 9 6 20 9 7 21 1 7 22 0 7 23 6 8 24 5 8 25 10 8 26 10 9 27 5 9 28 11 9 29 11 10 30 5 10 31 8 10 32 7 11 33 2 11 34 3 11 35 7 12 36 3 12 37 1 12 38 12 13 39 7 13 40 13 13 41 13 14 42 7 14 43 14 14 44 13 15 45 14 15 46 12 15 47 12 16 48 14 16 49 15 16 50 15 17 51 14 17 52 16 17 53 15 18 54 16 18 55 17 18 56 15 19 57 17 19 58 18 19 59 18 20 60 17 20 61 19 20 62 14 21 63 20 21 64 21 21 65 6 22 66 14 22 67 7 22 68 14 23 69 6 23 70 22 23 71 14 24 72 22 24 73 20 24 74 20 25 75 22 25 76 23 25 77 20 26 78 23 26 79 24 26 80 21 27 81 20 27 82 25 27 83 25 28 84 20 28 85 24 28 86 21 29 87 25 29 88 26 29 89 25 30 90 24 30 91 27 30 92 12 31 93 2 31 94 7 31 95 10 32 96 28 32 97 29 32 98 10 33 99 29 33 100 30 33 101 29 34 102 28 34 103 31 34 104 31 35 105 28 35 106 32 35 107 31 36 108 32 36 109 33 36 110 31 37 111 33 37 112 29 37 113 33 38 114 32 38 115 34 38 116 29 39 117 33 39 118 35 39 119 29 40 120 35 40 121 30 40 122 35 41 123 33 41 124 36 41 125 30 42 126 35 42 127 37 42 128 30 43 129 37 43 130 38 43 131 38 44 132 37 44 133 39 44 134 37 45 135 35 45 136 40 45 137 40 46 138 35 46 139 36 46 140 37 47 141 40 47 142 39 47 143 40 48 144 36 48 145 41 48 146 39 49 147 40 49 148 42 49 149 42 50 150 40 50 151 41 50 152 6 51 153 10 51 154 30 51 155 6 52 156 30 52 157 38 52 158 43 53 159 44 53 160 14 53 161 14 54 162 44 54 163 16 54 164 43 55 165 14 55 166 21 55 167 16 56 168 44 56 169 45 56 170 45 57 171 44 57 172 43 57 173 45 58 174 43 58 175 46 58 176 46 59 177 43 59 178 21 59 179 47 60 180 48 60 181 49 60 182 47 61 183 49 61 184 23 61 185 23 62 186 49 62 187 50 62 188 39 63 189 51 63 190 47 63 191 51 64 192 39 64 193 52 64 194 52 65 195 39 65 196 53 65 197 53 66 198 39 66 199 42 66 200 52 67 201 53 67 202 54 67 203 52 68 204 54 68 205 55 68 206 54 69 207 53 69 208 56 69 209 53 70 210 57 70 211 56 70 212 58 71 213 56 71 214 57 71 215 56 72 216 58 72 217 59 72 218 59 73 219 58 73 220 60 73 221 59 74 222 60 74 223 61 74 224 62 75 225 63 75 226 64 75 227 63 76 228 62 76 229 65 76 230 65 77 231 62 77 232 66 77 233 63 78 234 65 78 235 67 78 236 63 79 237 67 79 238 64 79 239 64 80 240 67 80 241 68 80 242 68 81 243 67 81 244 69 81 245 64 82 246 68 82 247 70 82 248 70 83 249 68 83 250 71 83 251 71 84 252 62 84 253 64 84 254 62 85 255 71 85 256 4 85 257 64 86 258 72 86 259 71 86 260 72 87 261 64 87 262 70 87 263 22 88 264 6 88 265 73 88 266 73 89 267 6 89 268 38 89 269 73 90 270 38 90 271 74 90 272 73 91 273 74 91 274 75 91 275 75 92 276 74 92 277 38 92 278 0 93 279 4 93 280 71 93 281 0 94 282 71 94 283 76 94 284 76 95 285 71 95 286 77 95 287 71 96 288 70 96 289 72 96 290 73 97 291 75 97 292 22 97 293 22 98 294 75 98 295 23 98 296 23 99 297 75 99 298 38 99 299 2 100 300 12 100 301 4 100 302 4 101 303 12 101 304 62 101 305 25 102 306 78 102 307 26 102 308 26 103 309 78 103 310 79 103 311 78 104 312 25 104 313 80 104 314 80 105 315 25 105 316 27 105 317 80 106 318 27 106 319 81 106 320 82 107 321 83 107 322 84 107 323 82 108 324 84 108 325 85 108 326 38 109 327 47 109 328 23 109 329 47 110 330 38 110 331 39 110 332 86 111 333 24 111 334 23 111 335 86 112 336 23 112 337 87 112 338 87 113 339 23 113 340 50 113 341 87 114 342 50 114 343 88 114 344 76 115 345 8 115 346 9 115 347 76 116 348 9 116 349 0 116 350 8 117 351 89 117 352 90 117 353 8 118 354 90 118 355 91 118 356 8 119 357 76 119 358 89 119 359 89 120 360 76 120 361 92 120 362 90 121 363 89 121 364 92 121 365 90 122 366 92 122 367 93 122 368 90 123 369 93 123 370 94 123 371 94 124 372 93 124 373 95 124 374 95 125 375 93 125 376 96 125 377 95 126 378 96 126 379 97 126 380 96 127 381 93 127 382 98 127 383 97 128 384 96 128 385 99 128 386 99 129 387 96 129 388 98 129 389 8 130 390 91 130 391 100 130 392 100 131 393 91 131 394 101 131 395 90 132 396 94 132 397 91 132 398 91 133 399 94 133 400 99 133 401 91 134 402 99 134 403 101 134 404 99 135 405 94 135 406 97 135 407 97 136 408 94 136 409 95 136 410 28 137 411 102 137 412 32 137 413 32 138 414 102 138 415 103 138 416 32 139 417 103 139 418 104 139 419 32 140 420 104 140 421 34 140 422 57 141 423 53 141 424 42 141 425 93 142 426 92 142 427 98 142 428 105 143 429 106 143 430 92 143 431 105 144 432 92 144 433 107 144 434 71 145 435 68 145 436 108 145 437 108 146 438 68 146 439 77 146 440 109 147 441 110 147 442 11 147 443 108 148 444 77 148 445 71 148 446 111 149 447 110 149 448 109 149 449 110 150 450 111 150 451 112 150 452 111 151 453 109 151 454 113 151 455 111 152 456 113 152 457 11 152 458 114 153 459 76 153 460 77 153 461 76 154 462 114 154 463 92 154 464 92 155 465 114 155 466 107 155 467 107 156 468 114 156 469 115 156 470 10 157 471 11 157 472 28 157 473 102 158 474 28 158 475 11 158 476 102 159 477 11 159 478 113 159 479 102 160 480 113 160 481 116 160 482 11 161 483 8 161 484 100 161 485 11 162 486 100 162 487 117 162 488 117 163 489 100 163 490 113 163 491 113 164 492 100 164 493 101 164 494 11 165 495 117 165 496 109 165 497 109 166 498 117 166 499 105 166 500 109 167 501 105 167 502 107 167 503 109 168 504 107 168 505 115 168 506 117 169 507 92 169 508 106 169 509 117 170 510 106 170 511 105 170 512 60 171 513 58 171 514 57 171 515 60 172 516 57 172 517 42 172 518 60 173 519 42 173 520 118 173 521 118 174 522 42 174 523 41 174 524 60 175 525 118 175 526 61 175 527 119 176 528 120 176 529 121 176 530 119 177 531 121 177 532 122 177 533 120 178 534 119 178 535 123 178 536 123 179 537 119 179 538 124 179 539 125 180 540 116 180 541 101 180 542 101 181 543 116 181 544 113 181 545 125 182 546 101 182 547 126 182 548 102 183 549 120 183 550 103 183 551 120 184 552 102 184 553 116 184 554 120 185 555 116 185 556 127 185 557 120 186 558 127 186 559 123 186 560 128 187 561 98 187 562 92 187 563 128 188 564 92 188 565 117 188 566 128 189 567 101 189 568 98 189 569 101 190 570 128 190 571 126 190 572 129 191 573 130 191 574 131 191 575 130 192 576 129 192 577 132 192 578 132 193 579 129 193 580 133 193 581 133 194 582 129 194 583 134 194 584 130 195 585 132 195 586 135 195 587 130 196 588 135 196 589 131 196 590 134 197 591 129 197 592 136 197 593 136 198 594 129 198 595 131 198 596 136 199 597 131 199 598 137 199 599 137 200 600 131 200 601 135 200 602 137 201 603 135 201 604 138 201 605 138 202 606 135 202 607 139 202 608 139 203 609 135 203 610 132 203 611 139 204 612 132 204 613 140 204 614 139 205 615 140 205 616 141 205 617 141 206 618 140 206 619 142 206 620 142 207 621 140 207 622 143 207 623 144 208 624 136 208 625 145 208 626 136 209 627 144 209 628 146 209 629 146 210 630 144 210 631 147 210 632 147 211 633 144 211 634 148 211 635 147 212 636 148 212 637 149 212 638 137 213 639 145 213 640 136 213 641 145 214 642 137 214 643 150 214 644 150 215 645 137 215 646 149 215 647 150 216 648 149 216 649 151 216 650 149 217 651 137 217 652 138 217 653 138 218 654 152 218 655 149 218 656 152 219 657 138 219 658 153 219 659 152 220 660 153 220 661 154 220 662 152 221 663 154 221 664 155 221 665 152 222 666 155 222 667 147 222 668 147 223 669 155 223 670 156 223 671 156 224 672 155 224 673 157 224 674 149 225 675 152 225 676 147 225 677 158 226 678 133 226 679 134 226 680 133 227 681 158 227 682 157 227 683 157 228 684 158 228 685 156 228 686 156 229 687 158 229 688 134 229 689 156 230 690 134 230 691 146 230 692 133 231 693 69 231 694 132 231 695 132 232 696 69 232 697 67 232 698 69 233 699 133 233 700 157 233 701 69 234 702 157 234 703 141 234 704 69 235 705 141 235 706 159 235 707 69 236 708 159 236 709 68 236 710 159 237 711 141 237 712 142 237 713 136 238 714 146 238 715 134 238 716 156 239 717 146 239 718 147 239 719 160 240 720 161 240 721 162 240 722 160 241 723 162 241 724 163 241 725 162 242 726 161 242 727 164 242 728 164 243 729 161 243 730 165 243 731 163 244 732 162 244 733 166 244 734 166 245 735 162 245 736 164 245 737 163 246 738 166 246 739 167 246 740 166 247 741 164 247 742 168 247 743 167 248 744 166 248 745 169 248 746 169 249 747 166 249 748 168 249 749 160 250 750 170 250 751 161 250 752 170 251 753 160 251 754 171 251 755 170 252 756 171 252 757 172 252 758 161 253 759 170 253 760 173 253 761 173 254 762 170 254 763 172 254 764 161 255 765 173 255 766 165 255 767 165 256 768 173 256 769 174 256 770 174 257 771 173 257 772 175 257 773 175 258 774 173 258 775 172 258 776 175 259 777 172 259 778 176 259 779 175 260 780 176 260 781 177 260 782 177 261 783 176 261 784 169 261 785 169 262 786 176 262 787 167 262 788 171 263 789 160 263 790 163 263 791 171 264 792 163 264 793 178 264 794 178 265 795 163 265 796 167 265 797 171 266 798 178 266 799 172 266 800 178 267 801 167 267 802 176 267 803 178 268 804 176 268 805 172 268 806 144 269 807 145 269 808 165 269 809 165 270 810 145 270 811 164 270 812 144 271 813 165 271 814 174 271 815 164 272 816 145 272 817 150 272 818 164 273 819 150 273 820 168 273 821 168 274 822 150 274 823 151 274 824 144 275 825 174 275 826 175 275 827 144 276 828 175 276 829 148 276 830 148 277 831 175 277 832 177 277 833 148 278 834 177 278 835 151 278 836 151 279 837 177 279 838 169 279 839 151 280 840 169 280 841 168 280 842 148 281 843 151 281 844 149 281 845 143 282 846 65 282 847 66 282 848 143 283 849 66 283 850 179 283 851 143 284 852 179 284 853 180 284 854 65 285 855 143 285 856 67 285 857 67 286 858 143 286 859 140 286 860 67 287 861 140 287 862 132 287 863 62 288 864 12 288 865 15 288 866 62 289 867 15 289 868 181 289 869 62 290 870 181 290 871 66 290 872 66 291 873 181 291 874 179 291 875 82 292 876 182 292 877 85 292 878 183 293 879 184 293 880 82 293 881 82 294 882 184 294 883 185 294 884 82 295 885 185 295 886 182 295 887 182 296 888 185 296 889 186 296 890 186 297 891 185 297 892 187 297 893 186 298 894 187 298 895 188 298 896 186 299 897 188 299 898 182 299 899 182 300 900 188 300 901 85 300 902 85 301 903 188 301 904 189 301 905 85 302 906 189 302 907 190 302 908 85 303 909 190 303 910 83 303 911 86 304 912 27 304 913 24 304 914 27 305 915 86 305 916 191 305 917 191 306 918 86 306 919 87 306 920 191 307 921 87 307 922 192 307 923 192 308 924 87 308 925 88 308 926 143 309 927 180 309 928 193 309 929 143 310 930 193 310 931 142 310 932 142 311 933 193 311 934 194 311 935 193 312 936 180 312 937 195 312 938 193 313 939 195 313 940 194 313 941 195 314 942 180 314 943 181 314 944 194 315 945 195 315 946 196 315 947 195 316 948 181 316 949 197 316 950 195 317 951 197 317 952 196 317 953 197 318 954 181 318 955 18 318 956 18 319 957 181 319 958 15 319 959 196 320 960 197 320 961 198 320 962 196 321 963 198 321 964 194 321 965 194 322 966 198 322 967 199 322 968 199 323 969 198 323 970 200 323 971 199 324 972 200 324 973 201 324 974 138 325 975 139 325 976 153 325 977 153 326 978 139 326 979 154 326 980 154 327 981 139 327 982 141 327 983 154 328 984 141 328 985 157 328 986 154 329 987 157 329 988 155 329 989 180 330 990 181 330 991 202 330 992 114 331 993 77 331 994 68 331 995 114 332 996 68 332 997 159 332 998 203 333 999 204 333 1000 205 333 1001 205 334 1002 204 334 1003 128 334 1004 203 335 1005 205 335 1006 200 335 1007 200 336 1008 205 336 1009 201 336 1010 201 337 1011 205 337 1012 206 337 1013 206 338 1014 205 338 1015 159 338 1016 201 339 1017 206 339 1018 199 339 1019 199 340 1020 206 340 1021 159 340 1022 199 341 1023 159 341 1024 142 341 1025 199 342 1026 142 342 1027 207 342 1028 199 343 1029 207 343 1030 194 343 1031 159 344 1032 115 344 1033 114 344 1034 205 345 1035 128 345 1036 109 345 1037 109 346 1038 128 346 1039 113 346 1040 113 347 1041 128 347 1042 117 347 1043 205 348 1044 109 348 1045 115 348 1046 205 349 1047 115 349 1048 159 349 1049 204 350 1050 126 350 1051 128 350 1052 208 351 1053 48 351 1054 51 351 1055 51 352 1056 48 352 1057 47 352 1058 208 353 1059 51 353 1060 55 353 1061 208 354 1062 55 354 1063 54 354 1064 48 355 1065 208 355 1066 209 355 1067 209 356 1068 208 356 1069 54 356 1070 48 357 1071 209 357 1072 49 357 1073 49 358 1074 209 358 1075 50 358 1076 209 359 1077 54 359 1078 210 359 1079 209 360 1080 210 360 1081 50 360 1082 210 361 1083 54 361 1084 56 361 1085 50 362 1086 210 362 1087 88 362 1088 88 363 1089 210 363 1090 56 363 1091 88 364 1092 56 364 1093 211 364 1094 88 365 1095 211 365 1096 212 365 1097 211 366 1098 56 366 1099 59 366 1100 16 367 1101 45 367 1102 213 367 1103 16 368 1104 213 368 1105 17 368 1106 213 369 1107 45 369 1108 46 369 1109 17 370 1110 213 370 1111 214 370 1112 214 371 1113 213 371 1114 46 371 1115 17 372 1116 214 372 1117 19 372 1118 26 373 1119 46 373 1120 21 373 1121 46 374 1122 26 374 1123 190 374 1124 46 375 1125 190 375 1126 214 375 1127 214 376 1128 190 376 1129 189 376 1130 214 377 1131 189 377 1132 188 377 1133 19 378 1134 214 378 1135 215 378 1136 215 379 1137 214 379 1138 188 379 1139 19 380 1140 215 380 1141 216 380 1142 215 381 1143 188 381 1144 187 381 1145 55 382 1146 51 382 1147 52 382 1148 59 383 1149 61 383 1150 211 383 1151 80 384 1152 217 384 1153 78 384 1154 78 385 1155 217 385 1156 79 385 1157 218 386 1158 79 386 1159 217 386 1160 218 387 1161 217 387 1162 80 387 1163 33 388 1164 34 388 1165 36 388 1166 36 389 1167 34 389 1168 219 389 1169 36 390 1170 219 390 1171 41 390 1172 219 391 1173 34 391 1174 220 391 1175 220 392 1176 34 392 1177 104 392 1178 220 393 1179 104 393 1180 221 393 1181 220 394 1182 221 394 1183 222 394 1184 219 395 1185 220 395 1186 223 395 1187 219 396 1188 223 396 1189 41 396 1190 41 397 1191 223 397 1192 224 397 1193 41 398 1194 224 398 1195 118 398 1196 212 399 1197 61 399 1198 118 399 1199 61 400 1200 212 400 1201 211 400 1202 212 401 1203 118 401 1204 192 401 1205 212 402 1206 192 402 1207 88 402 1208 192 403 1209 118 403 1210 224 403 1211 192 404 1212 224 404 1213 81 404 1214 192 405 1215 81 405 1216 191 405 1217 191 406 1218 81 406 1219 27 406 1220 81 407 1221 225 407 1222 218 407 1223 225 408 1224 81 408 1225 224 408 1226 218 409 1227 225 409 1228 226 409 1229 225 410 1230 224 410 1231 223 410 1232 226 411 1233 225 411 1234 222 411 1235 222 412 1236 225 412 1237 223 412 1238 222 413 1239 223 413 1240 220 413 1241 226 414 1242 222 414 1243 227 414 1244 227 415 1245 222 415 1246 221 415 1247 228 416 1248 229 416 1249 230 416 1250 229 417 1251 228 417 1252 231 417 1253 232 418 1254 233 418 1255 234 418 1256 233 419 1257 232 419 1258 231 419 1259 231 420 1260 232 420 1261 235 420 1262 125 421 1263 236 421 1264 116 421 1265 116 422 1266 236 422 1267 127 422 1268 127 423 1269 236 423 1270 228 423 1271 237 424 1272 236 424 1273 125 424 1274 119 425 1275 122 425 1276 124 425 1277 124 426 1278 122 426 1279 121 426 1280 124 427 1281 121 427 1282 120 427 1283 123 428 1284 221 428 1285 104 428 1286 124 429 1287 104 429 1288 123 429 1289 104 430 1290 124 430 1291 120 430 1292 98 431 1293 101 431 1294 99 431 1295 126 432 1296 237 432 1297 125 432 1298 237 433 1299 126 433 1300 238 433 1301 237 434 1302 238 434 1303 235 434 1304 235 435 1305 238 435 1306 239 435 1307 221 436 1308 123 436 1309 127 436 1310 221 437 1311 127 437 1312 227 437 1313 240 438 1314 236 438 1315 237 438 1316 231 439 1317 228 439 1318 236 439 1319 231 440 1320 236 440 1321 240 440 1322 231 441 1323 240 441 1324 233 441 1325 233 442 1326 240 442 1327 241 442 1328 233 443 1329 241 443 1330 234 443 1331 240 444 1332 237 444 1333 242 444 1334 240 445 1335 242 445 1336 241 445 1337 241 446 1338 242 446 1339 234 446 1340 242 447 1341 237 447 1342 235 447 1343 234 448 1344 242 448 1345 232 448 1346 232 449 1347 242 449 1348 235 449 1349 26 450 1350 79 450 1351 83 450 1352 26 451 1353 83 451 1354 190 451 1355 183 452 1356 83 452 1357 79 452 1358 183 453 1359 79 453 1360 218 453 1361 82 454 1362 83 454 1363 183 454 1364 18 455 1365 19 455 1366 197 455 1367 197 456 1368 19 456 1369 216 456 1370 197 457 1371 216 457 1372 243 457 1373 197 458 1374 243 458 1375 198 458 1376 218 459 1377 80 459 1378 81 459 1379 226 460 1380 183 460 1381 218 460 1382 183 461 1383 226 461 1384 184 461 1385 184 462 1386 226 462 1387 227 462 1388 184 463 1389 227 463 1390 185 463 1391 185 464 1392 227 464 1393 127 464 1394 185 465 1395 127 465 1396 228 465 1397 185 466 1398 228 466 1399 187 466 1400 187 467 1401 228 467 1402 230 467 1403 187 468 1404 230 468 1405 215 468 1406 239 469 1407 230 469 1408 229 469 1409 239 470 1410 229 470 1411 231 470 1412 239 471 1413 231 471 1414 235 471 1415 230 472 1416 239 472 1417 216 472 1418 230 473 1419 216 473 1420 215 473 1421 216 474 1422 239 474 1423 244 474 1424 216 475 1425 244 475 1426 245 475 1427 216 476 1428 245 476 1429 243 476 1430 243 477 1431 245 477 1432 198 477 1433 203 478 1434 200 478 1435 244 478 1436 244 479 1437 200 479 1438 245 479 1439 245 480 1440 200 480 1441 198 480 1442 203 481 1443 244 481 1444 239 481 1445 203 482 1446 239 482 1447 238 482 1448 203 483 1449 238 483 1450 204 483 1451 103 484 1452 120 484 1453 104 484 1454 204 485 1455 238 485 1456 126 485 1457 85 486 1458 84 486 1459 83 486 1460 11 487 1461 110 487 1462 112 487 1463 11 488 1464 112 488 1465 111 488 1466 202 489 1467 180 489 1468 179 489 1469 202 490 1470 179 490 1471 181 490 1472 207 491 1473 142 491 1474 194 491 1475</p>
        </polylist>
      </mesh>
    </geometry>
  </library_geometries>
  <library_visual_scenes>
    <visual_scene id="Scene" name="Scene">
      <node id="RoomOnTheBroom" name="RoomOnTheBroom" type="NODE">
        <scale sid="scale">1 1 1</scale>
        <translate sid="location">0 0.125 0</translate>
        <rotate sid="rotationX">1 0 0 -130</rotate>
        <rotate sid="rotationY">0 1 0 0</rotate>
        <rotate sid="rotationZ">0 0 1 0</rotate>
        <instance_geometry url="#RoomOnTheBroom-mesh" name="RoomOnTheBroom">
          <bind_material>
            <technique_common>
            </technique_common>
          </bind_material>
        </instance_geometry>
      </node>
    </visual_scene>
  </library_visual_scenes>
  <scene>
    <instance_visual_scene url="#Scene"/>
  </scene>
</COLLADA>
