<?xml version="1.0" encoding="utf-8"?>
<COLLADA xmlns="http://www.collada.org/2005/11/COLLADASchema" version="1.4.1" xmlns:xsi="http://www.w3.org/2001/XMLSchema-instance">
  <asset>
    <contributor>
      <author>Blockbench user</author>
      <authoring_tool>Blockbench</authoring_tool>
    </contributor>
    <created>2025-11-09T10:08:45.584Z</created>
    <modified>2025-11-09T10:08:45.593Z</modified>
    <unit name="meter" meter="1.0"/>
    <up_axis>Y_UP</up_axis>
  </asset>
  <library_effects>
  </library_effects>
  <library_images>
  </library_images>
  <library_materials>
  </library_materials>
  <library_geometries>
    <geometry id="Rope-mesh" name="Rope">
      <mesh>
        <source id="Rope-mesh-positions">
          <float_array id="Rope-mesh-positions-array" count="759">-0.041889 -0.425657 -0.229042 -0.008935 -0.495207 -0.201302 -0.040088 -0.415922 -0.198113 -0.012783 -0.479948 -0.163613 0.015193 -0.411833 -0.186165 0.024819 -0.366728 -0.199806 0.012633 -0.340147 -0.230721 -0.008349 -0.469481 -0.240273 0.069749 -0.491606 -0.179863 -0.018352 -0.392942 -0.251107 -0.04235 -0.330137 -0.259957 0.005551 -0.272368 -0.25959 0.002767 -0.432707 -0.242989 0.056313 -0.455992 -0.185875 -0.025031 -0.395994 -0.296181 -0.012778 -0.315306 -0.298775 0.016436 -0.358091 -0.304695 0.015698 -0.427946 -0.287331 0.056328 -0.4335 -0.265816 0.075768 -0.411711 -0.229012 0.048058 -0.410551 -0.162346 0.06025 -0.391478 -0.241524 0.053017 -0.351896 -0.313332 -0.007528 -0.293669 -0.340218 0.067444 -0.31793 -0.282357 -0.056171 -0.462523 -0.123574 -0.040105 -0.512327 -0.112007 -0.015661 -0.46649 -0.076561 0.019965 -0.518858 -0.11985 0.059899 -0.501097 -0.084198 0.002644 -0.499723 -0.074364 0.048752 -0.466734 -0.031758 -0.042915 -0.49127 -0.013581 -0.042068 -0.44412 -0.030567 0.064095 -0.493742 0.002149 0.058327 -0.43115 -0.002753 0.00093 -0.518858 -0.051125 0.006564 -0.496031 0.022301 -0.036838 -0.437956 -0.118767 0.015257 -0.452208 -0.101189 0.021271 -0.426268 -0.05114 -0.005219 -0.43762 0.000757 0.066971 -0.446043 -0.094864 -0.007346 -0.461851 0.084228 -0.032834 -0.402525 0.038526 0.003678 -0.394896 0.061691 -0.049678 -0.427458 0.074577 -0.031112 -0.387632 0.106086 -0.031438 -0.334654 0.079345 -0.040012 -0.335051 0.146736 0.012 -0.349272 0.146461 -0.006307 -0.396788 0.149833 0.047364 -0.383055 0.144119 0.049893 -0.272184 0.113144 0.050805 -0.371183 0.106071 0.059907 -0.438444 0.095314 0.043217 -0.437223 0.047273 0.03175 -0.351561 0.066345 -0.023862 -0.302702 0.102646 0.009211 -0.303587 0.173393 0.055794 -0.261366 0.158104 0.044518 -0.214338 0.063411 0.004887 -0.241972 0.147728 0.047688 -0.186247 0.09423 0.022141 -0.165495 0.047548 0.064126 -0.153578 0.066196 0.054993 -0.153349 0.121551 -0.029519 -0.221632 0.146431 0.006688 -0.137266 0.110145 -0.019199 -0.195921 0.096344 -0.037486 -0.128561 0.090896 -0.035941 -0.178938 0.057277 -0.035541 -0.252119 0.088974 0.02908 -0.247114 0.087227 -0.020342 -0.125547 0.041034 0.01941 -0.286039 0.072204 -0.027393 -0.238844 -0.249001 0.023709 -0.181105 -0.243965 -0.038421 -0.264143 -0.312142 -0.023407 -0.19998 -0.271828 0.013186 -0.160673 -0.22303 -0.04581 -0.161421 -0.259499 -0.02365 -0.18527 -0.330208 0.014289 -0.249846 -0.325417 0.053071 -0.253233 -0.330117 0.016753 -0.16017 -0.310585 0.076989 -0.250517 -0.292397 0.059914 -0.212263 -0.292519 0.048497 -0.101782 -0.281227 0.06839 -0.192335 -0.253884 -0.017576 -0.115606 -0.2454 0.034859 -0.090063 -0.207772 -0.018837 -0.08856 -0.195702 0.015572 -0.043633 -0.162178 -0.038415 -0.087713 -0.278786 -0.026882 -0.05142 -0.202339 0.016064 -0.062059 -0.276558 -0.049915 -0.01983 -0.205193 -0.000054 -0.006676 -0.253792 0.06424 -0.080107 -0.257149 0.040017 -0.025329 -0.218666 -0.031248 0.012842 -0.187523 0.063141 -0.114454 -0.223961 -0.039916 -0.031633 -0.159691 0.010985 0.046747 -0.093155 0.030709 0.002611 -0.114907 0.036374 0.022554 -0.157265 0.054238 0.002581 -0.175499 -0.027643 0.070353 -0.137535 0.018345 0.043421 -0.194054 -0.030488 0.053499 -0.189751 -0.079002 0.035356 -0.128197 -0.047431 0.043074 -0.056008 -0.019959 0.060892 -0.031449 0.000378 0.107714 -0.008978 -0.053985 0.085009 -0.05484 -0.028688 0.109178 -0.125527 -0.097206 0.118731 -0.052155 0.006919 0.08716 -0.097534 -0.068382 0.160173 -0.060158 0.054879 0.075556 -0.08239 0.018677 0.123217 -0.083908 0.068894 0.128939 -0.093643 0.087609 0.087633 -0.042084 0.07016 0.156023 -0.0579 0.027108 0.149309 -0.095764 0.019169 0.21335 -0.063866 -0.006436 0.158358 -0.045037 -0.026264 -0.116674 0.000009 0.041108 -0.146559 0.017294 0.050393 -0.110647 0.034311 -0.001198 -0.07181 -0.013115 -0.045623 -0.071573 0.027663 0.023747 -0.055952 0.04577 -0.008862 -0.004594 0.004905 -0.031125 -0.025576 -0.05587 0.02974 -0.073473 -0.035767 0.037236 -0.020439 -0.054924 0.072281 -0.075506 0.024533 0.013379 -0.079527 0.082618 0.078522 0.007795 -0.037358 0.060509 0.104471 -0.025242 0.017884 0.031679 0.008917 0.052586 0.027006 -0.014691 -0.073348 0.188494 -0.006644 -0.086891 0.172396 0.011991 -0.077133 0.114855 -0.006224 -0.032546 0.153994 0.030931 -0.014417 0.151293 -0.020714 0.02147 0.146517 -0.008324 0.064873 0.141893 -0.0042 0.060639 0.203798 -0.006438 0.07293 0.218843 -0.035568 -0.023918 0.215731 -0.040028 -0.14373 0.218904 -0.019406 -0.087776 0.20244 -0.044388 -0.097328 0.144609 0.035805 -0.131126 0.165926 0.05114 -0.110153 0.269594 0.013184 -0.056884 0.127382 0.096382 -0.103897 0.233065 0.073448 -0.107635 0.180437 0.089813 -0.014106 0.164965 0.120163 0.015349 0.128145 0.096733 -0.036874 0.21483 -0.078484 -0.065551 0.256014 -0.090004 0.025403 0.24637 -0.092171 -0.057914 0.24103 0.00944 -0.019906 0.228868 0.013497 0.095376 0.223909 -0.040089 0.096039 0.18326 0.051998 0.132744 0.248415 0.019843 0.103867 0.262026 -0.050415 0.037888 0.289431 -0.066704 0.086449 0.291231 -0.009995 0.102868 0.263185 0.066459 -0.001502 0.298738 -0.050743 0.120232 0.307375 0.065155 0.025265 0.341768 -0.026455 0.083619 0.327028 0.001875 0.042287 0.337923 0.033467 -0.006517 0.221193 0.049778 -0.022157 0.135714 0.048321 -0.129737 0.225954 0.114181 -0.152137 0.295351 0.042425 -0.068694 0.175005 0.150444 -0.010168 0.162126 0.146248 -0.017906 0.203997 0.184974 -0.111427 0.238405 0.1641 -0.134742 0.299501 0.109153 -0.087272 0.354647 0.024088 -0.106399 0.336885 -0.00498 -0.095069 0.269655 0.153587 -0.09803 0.326448 0.091812 -0.058246 0.272829 0.121795 -0.018072 0.246706 0.156395 -0.05978 0.304415 0.154625 -0.010733 0.27051 0.175544 -0.054939 0.302675 0.197502 -0.078216 0.325533 0.197426 -0.0324 0.345461 0.155784 -0.054397 0.319307 0.051859 -0.007409 0.333284 0.025768 0.067025 0.154207 0.073105 0.026665 0.154879 0.042516 0.064164 0.205004 0.117874 0.099938 0.194796 0.09111 0.051018 0.223848 0.014344 0.024953 0.200594 0.03529 -0.104095 0.280519 -0.024239 -0.061633 0.330233 -0.040943 0.100739 0.230135 0.13002 0.107522 0.294771 0.127281 0.089753 0.337282 0.077766 0.059342 0.27997 0.153938 0.054078 0.193071 0.171501 0.021268 0.259737 0.140732 0.023392 0.287844 0.17202 -0.003156 0.290926 0.250618 0.037518 0.299074 0.076015 0.013251 0.343325 0.157203 0.033459 0.306063 0.156242 0.042737 0.315401 0.236488 -0.038259 0.29825 0.266655 -0.020596 0.321688 0.288383 -0.006213 0.306887 0.286979 -0.002474 0.328798 0.277092 -0.038125 0.326387 0.24987 -0.011381 0.361849 0.246223 0.022317 0.363802 0.245033 0.023518 0.29941 0.29171 0.040852 0.314272 0.291069 0.015051 0.330355 0.221 0.037491 0.338076 0.241935 -0.063468 0.344393 0.227455 -0.057334 0.378176 0.243232 -0.031568 0.367189 0.239921 -0.015572 0.429293 0.24221 0.005665 0.401979 0.233925 0.014823 0.478762 0.252968 -0.0998 0.326082 0.356102 -0.063419 0.344667 0.227348 -0.036085 0.359713 0.247627 0.066056 0.394075 0.325035 0.008078 0.362368 0.209724 0.012807 0.459017 0.318138 -0.097221 0.372896 0.355522 -0.093032 0.39786 0.329735 -0.052284 0.316439 0.280205 -0.078193 0.296755 0.377861 -0.048629 0.404787 0.347282 0.025899 0.407045 0.350242 0.021954 0.363832 0.244484</float_array>
          <technique_common>
            <accessor source="#Rope-mesh-positions-array" count="253" stride="3">
              <param name="X" type="float"/>
              <param name="Y" type="float"/>
              <param name="Z" type="float"/>
            </accessor>
          </technique_common>
        </source>
        <source id="Rope-mesh-normals">
          <float_array id="Rope-mesh-normals-array" count="1518">-0.915081 -0.366339 0.168591 -0.928644 -0.367051 0.053793 -0.222043 0.387439 0.894756 -0.22269 0.325445 0.918964 -0.431605 0.592861 0.679877 -0.83828 0.532165 -0.118687 -0.785143 -0.511361 -0.349372 0.184598 -0.82149 -0.539516 -0.839464 0.53319 -0.104924 -0.521852 -0.186041 -0.832502 -0.476983 -0.058684 0.876951 -0.397465 0.324117 0.85847 0.554869 -0.226841 -0.800414 0.153373 -0.118815 -0.980999 0.752992 0.177096 -0.633751 -0.929378 -0.33254 0.16023 -0.884907 -0.437158 0.160725 -0.80995 0.104442 -0.577125 -0.200157 -0.001103 -0.979763 -0.563735 -0.787544 -0.248955 0.021443 -0.241389 -0.970192 -0.068444 -0.989639 -0.126217 -0.128614 -0.954623 -0.268614 0.432463 -0.221807 -0.873944 0.84669 -0.512241 -0.143964 0.922765 -0.031248 0.384095 0.785458 0.25317 -0.564766 0.676541 0.685405 0.269281 0.851462 0.200623 -0.484523 -0.184761 0.961552 0.203176 0.770137 0.028364 0.637248 0.033462 -0.873845 -0.485051 -0.114309 -0.511972 -0.851362 0.954012 -0.211344 -0.212592 0.804554 0.226172 0.549125 0.230434 0.780903 0.580595 -0.706068 -0.368247 -0.604865 -0.671224 0.030471 -0.740628 -0.75809 -0.094691 0.645238 -0.162753 -0.794696 -0.584781 0.699251 -0.187404 -0.689875 -0.052506 -0.927477 0.370176 0.047203 -0.91418 0.402551 -0.588791 -0.27404 0.760413 0.075964 -0.826523 0.557753 -0.745662 -0.443587 -0.497211 -0.886722 -0.142508 -0.439791 0.754554 -0.302478 -0.582371 0.925634 0.055989 -0.374255 -0.722073 -0.506991 -0.470713 0.635678 -0.618284 -0.46221 -0.307183 -0.901812 0.30393 0.13738 -0.948804 0.284427 -0.196073 0.9558 0.219094 -0.716374 0.624594 -0.31095 -0.673647 0.409782 0.615044 0.030316 0.818465 0.573756 0.045863 0.838094 0.543594 0.896884 -0.063684 0.437657 -0.675546 0.431617 -0.597783 -0.365525 0.843618 -0.393318 -0.244071 0.965874 0.086694 0.619432 0.63906 0.455968 -0.050376 0.88917 -0.454796 -0.106277 0.989716 -0.095747 0.658197 0.638237 0.399288 0.933565 0.327701 -0.14515 0.964337 -0.07468 0.253923 0.989807 -0.109507 0.09105 -0.058242 -0.927394 0.369524 -0.160896 -0.980385 -0.113831 -0.94384 0.126861 0.305078 -0.362094 -0.848112 0.386774 -0.370492 0.894496 0.250225 -0.107482 0.645369 -0.756272 -0.109621 0.68691 -0.718428 0.086379 0.897811 -0.431827 -0.856631 -0.139492 -0.496714 -0.578301 -0.779416 -0.240995 -0.06844 0.974629 -0.213104 -0.876852 0.473703 -0.082074 -0.776076 -0.28797 -0.561051 -0.989529 -0.069843 -0.126307 -0.165624 -0.620576 0.766456 -0.86864 0.0131 0.49527 -0.785976 0.33949 0.51671 -0.591713 -0.567688 0.572369 0.097443 0.033046 0.994692 0.248864 -0.689663 0.680024 0.300087 0.250318 0.920483 0.995856 0.00268 0.0909 0.847935 -0.522994 -0.086502 -0.102185 -0.170564 0.980034 0.299875 -0.525105 0.796454 0.94759 0.110791 0.299663 0.746115 0.595577 0.29766 0.860449 -0.404981 -0.309223 0.207244 -0.836053 0.508002 -0.14301 0.19681 -0.969956 0.928027 0.194907 -0.317454 -0.146189 0.198775 -0.969081 0.918631 0.180522 -0.351465 -0.008054 0.590443 -0.807039 0.674343 0.737294 0.040718 -0.134757 -0.509299 0.849974 0.58391 -0.385525 0.714437 0.89558 -0.444776 -0.010526 0.991864 -0.016374 -0.126242 -0.042819 0.3816 0.923335 -0.587974 0.275519 0.76051 0.993571 0.011446 -0.11263 0.094373 0.650783 0.753376 0.887825 0.290959 -0.356525 0.446012 -0.701456 -0.555908 0.929464 -0.334893 0.154737 0.870746 -0.413872 0.265538 -0.900586 0.434538 -0.011059 -0.943399 0.309883 -0.118201 0.099353 0.229796 0.968154 -0.308252 -0.468632 0.827868 -0.073525 0.4205 0.904309 -0.916184 0.400407 0.016768 -0.405187 -0.036116 0.91352 -0.926948 -0.22752 0.298333 -0.95717 0.285015 -0.050911 -0.966327 -0.171187 0.192113 -0.726338 -0.687224 0.012523 -0.037643 0.140692 -0.989338 -0.168078 -0.526433 -0.833438 -0.048982 -0.277581 -0.959453 -0.236938 -0.396591 -0.886891 0.178051 -0.631948 -0.754281 -0.455433 -0.328774 -0.827338 -0.053807 0.371146 -0.927014 0.795758 0.035643 -0.604566 -0.385418 -0.460234 -0.799773 0.792756 0.050701 -0.607427 -0.793545 -0.492362 -0.357584 -0.727527 0.605304 -0.322973 -0.323278 -0.558889 0.763632 0.119283 -0.190559 0.974402 -0.794301 -0.491426 -0.357191 -0.881955 -0.363718 0.299772 -0.581238 0.45562 0.67422 -0.980926 0.162899 0.106056 -0.100274 -0.736771 0.668666 -0.451157 -0.498757 0.740067 -0.874452 -0.471258 -0.115103 -0.341643 0.556018 -0.75771 -0.3304 0.445517 -0.832076 -0.851392 -0.509461 -0.124825 0.460186 0.069828 -0.885072 0.768853 0.220711 -0.600127 -0.13186 -0.150164 -0.979828 -0.147635 -0.608424 -0.779759 0.262684 0.295304 -0.918582 0.834619 -0.194903 -0.515193 0.759319 0.403476 -0.510531 0.683071 0.012043 0.730253 0.641085 0.28388 -0.713037 0.494221 0.223279 0.840174 0.521243 0.139909 -0.841862 0.110001 0.399193 0.910245 0.95325 0.126554 -0.274407 0.772582 -0.617217 0.148867 0.164686 -0.198193 0.966229 -0.17658 0.766748 -0.617185 -0.712343 0.56649 -0.414314 -0.6231 0.147624 0.768085 -0.52547 -0.022499 0.850515 0.082966 -0.874442 0.477983 0.146834 -0.661337 0.735577 -0.885634 -0.41696 0.204441 -0.79708 -0.603834 -0.00696 -0.959919 -0.167815 0.224486 -0.114552 0.324799 -0.93882 -0.387926 0.853927 -0.346876 -0.742443 -0.572728 -0.347508 -0.70673 0.083129 -0.702582 0.25837 0.318167 -0.912148 0.473518 0.449233 -0.757609 0.476169 0.47571 -0.739569 0.665824 0.60306 -0.439315 0.455431 0.889005 -0.047456 0.936755 0.227232 0.266188 0.89884 -0.319079 -0.300457 0.55491 0.094873 0.826483 0.279924 -0.284079 0.917029 0.474801 -0.498572 0.725252 0.856063 -0.413312 -0.31037 0.283464 0.333741 0.899036 -0.808854 -0.587463 0.025359 -0.627107 0.616077 -0.476641 -0.890307 0.353299 0.287288 -0.89609 0.34748 0.276188 -0.264078 -0.518751 0.813117 0.923063 0.285435 0.25784 -0.180765 -0.91211 0.367939 -0.117425 -0.690828 0.71342 -0.685322 -0.018353 0.728009 0.954188 -0.298919 -0.013123 0.554326 -0.233519 0.798869 0.662715 -0.366183 0.653237 0.461111 0.786862 -0.410152 0.963287 -0.117388 -0.241449 0.680609 0.698542 0.22093 0.74554 0.420205 -0.517299 0.16572 0.935821 -0.311089 -0.014355 0.332997 -0.942819 -0.418835 -0.04188 -0.907096 -0.782438 -0.019483 -0.622424 -0.210234 -0.958132 0.194381 0.21451 -0.945802 0.243812 0.275049 -0.897877 0.343752 -0.626926 -0.098589 0.772816 -0.611276 -0.117335 0.782671 -0.075164 0.292793 -0.953217 -0.704617 0.192288 -0.683038 -0.61634 -0.785405 -0.057134 -0.572792 0.756145 -0.316471 -0.5763 0.786387 -0.222426 -0.899499 -0.151992 0.409635 0.93768 0.129292 0.322552 0.678472 0.641048 -0.358795 0.626624 0.751641 -0.205858 0.283704 -0.075042 -0.955971 -0.09096 0.377855 -0.921386 0.34348 0.231912 -0.910076 -0.170224 -0.160265 -0.972285 0.780334 -0.318334 -0.538277 0.961344 0.202004 -0.187117 -0.135386 -0.373287 -0.917784 0.265418 0.456015 -0.849473 -0.832562 0.017445 -0.553657 -0.188883 -0.774783 -0.603353 0.383102 -0.871742 -0.305448 -0.678871 -0.731779 -0.060275 0.902707 -0.030012 -0.429209 0.904926 0.399134 0.147652 0.095494 -0.328257 -0.939749 0.723419 0.133901 -0.6773 -0.908704 -0.415391 0.04133 -0.667064 0.159837 -0.727652 -0.273864 0.108463 0.955633 -0.319603 0.457379 0.829854 -0.671016 0.119659 -0.731724 -0.8928 -0.208802 0.399136 0.194794 0.884987 0.42291 -0.417976 -0.747705 -0.515977 -0.317569 -0.873228 -0.369626 0.038856 -0.344333 -0.938043 0.67091 -0.55479 -0.492024 0.839223 -0.430154 0.332674 0.772015 -0.309629 -0.555088 0.670119 0.254723 0.697178 -0.284738 0.439217 0.852064 0.477447 0.806619 0.348439 0.508619 0.653146 0.560988 -0.643472 0.71406 0.275794 0.608066 -0.770725 -0.190365 -0.810951 0.530536 -0.246759 -0.933756 0.178419 -0.310268 -0.941597 0.026788 0.335676 0.202142 -0.49372 0.845801 -0.55906 0.327999 0.761491 -0.361302 0.561062 0.744762 0.55517 0.064057 0.829267 0.636419 0.324233 0.699888 0.467483 -0.430122 0.772305 0.566044 0.04493 0.82315 -0.054304 0.600378 0.797871 0.70555 -0.586982 -0.397054 0.729039 0.219154 0.64844 0.745731 0.529196 0.404768 0.548379 -0.321642 -0.771898 0.418535 -0.320101 -0.84992 -0.819107 -0.489879 -0.298466 -0.007174 0.272647 -0.962087 -0.666502 0.334952 -0.66602 0.169065 0.782985 -0.598625 0.136495 0.880764 -0.453457 -0.802495 0.493354 -0.335566 -0.861132 0.449467 -0.237553 -0.891062 -0.267243 0.366865 -0.409692 -0.337728 0.847403 -0.595831 -0.779166 0.194641 0.206351 -0.78701 0.581408 0.746805 -0.596841 0.293366 -0.641966 -0.011485 0.766647 -0.30479 0.149821 0.940562 -0.091083 0.032734 0.995305 -0.091409 0.029733 0.995369 0.201323 -0.49782 0.84359 0.993962 -0.109048 -0.012207 0.985297 -0.094132 0.142581 -0.832459 -0.208849 -0.51322 -0.423859 -0.802063 -0.42076 0.365169 -0.819178 -0.442267 -0.087957 -0.628962 -0.772444 0.038877 -0.658624 -0.751467 -0.611978 -0.68103 -0.402095 -0.862503 0.318479 0.393267 -0.50167 -0.860336 0.090274 -0.920538 0.28432 0.267902 -0.868853 0.202228 0.451884 -0.624741 -0.526179 0.576918 -0.24826 0.303671 0.919865 -0.332541 -0.204099 0.920739 0.001559 -0.535972 0.844234 0.2066 -0.97731 -0.046707 -0.035608 -0.998739 0.035396 -0.397949 -0.493435 -0.773407 -0.054919 -0.304256 -0.951006 -0.471132 -0.450334 -0.758442 0.138935 -0.839727 0.524935 0.905494 -0.143782 -0.399259 0.178561 0.239699 -0.954285 -0.319162 -0.914569 0.248392 -0.942984 -0.299933 0.144296 -0.437015 0.357026 -0.825561 0.689 0.5657 -0.453059 0.903735 0.077035 0.421105 0.119914 -0.901807 -0.415168 0.13615 -0.905954 -0.400886 0.423087 0.286881 -0.859475 0.185533 -0.968783 -0.164426 0.782696 -0.567296 -0.256051 0.306667 -0.652174 -0.693271 0.173337 -0.659628 -0.731331 0.859363 -0.303022 -0.411914 0.493967 -0.328161 -0.805175 0.370401 0.390934 -0.842599 0.032608 0.501761 -0.864391 0.725738 0.666866 -0.169097 0.433946 0.808624 -0.397263 0.617088 0.772312 0.150787 0.161276 0.972338 -0.168967 0.878894 -0.354762 -0.318887 0.425212 0.229651 -0.875474 0.872825 0.214381 -0.438425 0.477467 0.310324 -0.822024 0.248784 0.968522 -0.008525 0.849699 -0.418924 0.32018 0.783081 -0.132924 -0.607549 -0.16928 0.610175 -0.773971 -0.410519 -0.817864 -0.403203 -0.564621 -0.674329 -0.475903 -0.397686 -0.79834 -0.452216 -0.219318 -0.972935 -0.072781 -0.099126 -0.685465 0.721326 -0.7156 -0.56946 0.404515 -0.340101 -0.41138 0.845635 -0.965794 -0.048307 0.254772 -0.934879 -0.039504 0.352761 -0.650437 0.749544 0.122943 -0.675613 0.737233 -0.005927 -0.460401 0.490018 0.740212 -0.077697 0.354191 0.93194 -0.483679 0.832608 0.26985 -0.209521 0.714804 0.6672 0.405203 0.73567 0.542771 0.453154 0.666961 0.591451 -0.334821 0.523134 0.783726 -0.727063 -0.511421 0.458069 -0.577997 -0.395849 0.713599 -0.577573 -0.815707 0.032108 -0.699859 -0.712521 0.050102 -0.695335 0.478958 -0.535825 0.552729 0.679723 0.482149 -0.998656 0.005102 -0.051571 -0.831819 0.553834 0.036685 0.492768 0.772755 0.400037 -0.359908 0.919965 -0.155341 0.173616 0.703259 0.689408 0.240567 0.922959 0.300455 -0.077573 -0.971392 -0.224455 0.042546 -0.675827 -0.735832 0.011213 -0.986573 -0.162933 0.284143 -0.888985 -0.359122 0.292112 -0.866651 -0.40446 0.383086 -0.761945 -0.522193 0.478163 -0.166256 0.862392 0.334269 -0.612491 0.716323 0.358521 -0.60579 0.710269 0.74457 -0.656764 0.119486 0.624544 0.241012 0.742871 0.853255 0.144099 0.50119 0.880695 -0.470919 0.051102 0.298916 -0.449413 -0.84183 -0.75336 -0.611702 0.241389 0.590724 -0.426492 0.684945 -0.533518 -0.151508 -0.832108 0.766864 -0.43212 0.474544 -0.494477 -0.153741 -0.855486 -0.050483 -0.625011 0.778982 -0.133974 0.04139 -0.99012 -0.323251 -0.653599 0.684337 -0.710576 0.412372 -0.570115 -0.840016 0.542104 0.022277 -0.270839 0.839269 -0.471459 -0.091782 0.744881 -0.660854 -0.226053 -0.131243 -0.965233 -0.746256 0.661713 0.072373 0.089063 0.447002 -0.890088 -0.060973 0.92631 -0.371795 -0.199081 0.88905 -0.412257 -0.632459 -0.166855 -0.756409 -0.631352 -0.170171 -0.756595 -0.652836 -0.675929 -0.341943 0.606661 -0.713446 -0.350652 0.917258 -0.365123 -0.15913 0.427504 -0.813118 0.395069 0.978882 -0.095056 0.180979 0.728927 0.626398 0.276209 0.108251 0.773139 0.62493 0.681668 -0.040578 0.730535 0.496608 -0.845383 -0.196742 0.442385 0.151841 0.883878 0.480184 -0.861273 -0.16623 0.035472 -0.67503 0.736937 0.207487 0.181701 0.961215 -0.535575 0.7229 0.436549 0.144901 0.550651 0.822062 0.457798 -0.638675 0.618478 0.412465 -0.691426 0.59313 0.460159 -0.86739 0.18944 -0.106944 0.989822 0.093893 -0.170126 0.737134 0.653981 -0.809899 0.475532 0.343413 -0.530477 0.776942 0.33905 -0.402163 0.801529 0.442512 0.147743 0.978465 -0.144147 0.659233 0.736258 -0.152763 0.70698 0.68803 -0.163691 0.049172 0.995272 -0.083763 0.879079 0.476668 0.002951 0.958278 -0.276473 0.072568 0.922017 -0.31703 0.222207 0.859473 -0.509608 -0.04007 -0.559366 -0.824841 0.082141 -0.07746 -0.960049 0.268898 0.151468 -0.730979 0.665377 -0.683736 -0.687605 0.244346 0.409125 0.316384 0.855872 0.985388 -0.109149 0.130757 -0.233323 0.946786 0.221714 -0.551087 0.48541 0.678734 -0.013572 0.680552 0.732574 -0.739571 -0.376632 0.557838 0.624373 -0.739123 -0.252696 -0.207474 0.282379 0.936599 0.28234 0.952439 0.11465 0.884637 -0.383133 0.265755 0.460062 0.887227 0.034241 -0.543386 -0.408803 0.73322 -0.587237 -0.314973 0.745617 -0.550271 -0.558294 0.620894 -0.555748 0.79919 -0.228997 -0.867618 0.330872 -0.371165 0.355132 0.904265 -0.237034 -0.966421 0.250955 -0.055252 0.487224 0.577515 -0.655049 0.055978 0.795854 -0.602896 -0.059656 0.246986 -0.967181 0.348802 -0.924447 0.154064 0.801188 -0.598217 0.015296 0.374183 0.926838 -0.030948 -0.625017 0.090444 0.775354 0.051113 0.06395 0.996643 -0.624408 0.717139 0.309557 0.956699 0.255039 -0.140291 0.693403 -0.685076 0.223303 -0.686372 -0.47152 0.553681 0.805704 0.446975 -0.388657 0.995217 0.000947 0.097679 0.523683 0.816125 -0.24433 -0.30582 0.93372 -0.186123 -0.058448 0.998146 -0.016967 0.771474 -0.491281 0.404316 -0.967785 -0.017523 -0.251167 -0.95914 0.049388 -0.278588 -0.968063 -0.082209 -0.236844 -0.835239 0.3498 -0.424284 0.386287 0.921013 -0.050166 -0.768372 0.220059 -0.600982 -0.717981 0.537361 -0.442433 -0.049818 0.721619 0.690496 0.768725 -0.238835 0.593313 0.587034 -0.744187 0.318712 0.596846 0.802125 -0.01926 0.887059 0.106925 0.449103 0.84463 -0.039917 0.53386 -0.212985 0.953494 0.213275 0.639938 0.70251 0.311382 -0.197564 0.969795 0.143061 0.663663 -0.712198 0.228747 -0.101852 0.901521 -0.420579 -0.960811 -0.184778 0.206637 -0.679518 -0.688556 -0.253271 0.012153 -0.918683 0.39481 0.937974 0.022568 -0.345972 -0.013044 0.925797 -0.377796 -0.977797 -0.178682 0.109484 -0.719534 0.594253 -0.359352 -0.70767 0.611409 -0.354094 0.663088 -0.417195 0.6215</float_array>
          <technique_common>
            <accessor source="#Rope-mesh-normals-array" count="506" stride="3">
              <param name="X" type="float"/>
              <param name="Y" type="float"/>
              <param name="Z" type="float"/>
            </accessor>
          </technique_common>
        </source>
        <source id="Rope-mesh-map-0">
          <float_array id="Rope-mesh-map-0-array" count="3036">0.722168 0.66626 0.746826 0.724609 0.700928 0.675537 0.700928 0.675537 0.746826 0.724609 0.713623 0.736816 0.700928 0.675537 0.713623 0.736816 0.669189 0.682861 0.700928 0.675537 0.669189 0.682861 0.657959 0.64209 0.700928 0.675537 0.657959 0.64209 0.688232 0.618652 0.700928 0.675537 0.688232 0.618652 0.722168 0.66626 0.746826 0.724609 0.722168 0.66626 0.75293 0.687744 0.746826 0.724609 0.75293 0.687744 0.807373 0.728271 0.722168 0.66626 0.688232 0.618652 0.733154 0.634277 0.722168 0.66626 0.733154 0.634277 0.75293 0.687744 0.733154 0.634277 0.688232 0.618652 0.71167 0.585449 0.71167 0.585449 0.688232 0.618652 0.662354 0.573242 0.807373 0.728271 0.75293 0.687744 0.762207 0.659912 0.762207 0.659912 0.75293 0.687744 0.733154 0.634277 0.807373 0.728271 0.762207 0.659912 0.813721 0.696289 0.733154 0.634277 0.71167 0.585449 0.754395 0.608154 0.733154 0.634277 0.754395 0.608154 0.762207 0.659912 0.754395 0.608154 0.71167 0.585449 0.751953 0.555176 0.754395 0.608154 0.751953 0.555176 0.788086 0.575928 0.762207 0.659912 0.754395 0.608154 0.780273 0.629395 0.780273 0.629395 0.754395 0.608154 0.788086 0.575928 0.762207 0.659912 0.780273 0.629395 0.808594 0.640869 0.762207 0.659912 0.808594 0.640869 0.813721 0.696289 0.808594 0.640869 0.780273 0.629395 0.788086 0.575928 0.813721 0.696289 0.808594 0.640869 0.833984 0.650635 0.813721 0.696289 0.833984 0.650635 0.856934 0.686279 0.833984 0.650635 0.808594 0.640869 0.846436 0.62915 0.833984 0.650635 0.846436 0.62915 0.856934 0.686279 0.846436 0.62915 0.808594 0.640869 0.788086 0.575928 0.856934 0.686279 0.846436 0.62915 0.879883 0.66333 0.879883 0.66333 0.846436 0.62915 0.881836 0.631592 0.846436 0.62915 0.788086 0.575928 0.813721 0.566162 0.813721 0.566162 0.788086 0.575928 0.802246 0.529297 0.846436 0.62915 0.813721 0.566162 0.850098 0.56665 0.846436 0.62915 0.850098 0.56665 0.881836 0.631592 0.881836 0.631592 0.850098 0.56665 0.893311 0.602539 0.940674 0.465332 0.994629 0.455811 0.95752 0.493896 0.994629 0.455811 0.940674 0.465332 0.993164 0.395508 0.940674 0.465332 0.95752 0.493896 0.931641 0.516113 0.95752 0.493896 0.994629 0.455811 0.981689 0.511475 0.981689 0.511475 0.994629 0.455811 0.99707 0.542969 0.95752 0.493896 0.981689 0.511475 0.953857 0.5354 0.953857 0.5354 0.981689 0.511475 0.99707 0.542969 0.95752 0.493896 0.953857 0.5354 0.931641 0.516113 0.953857 0.5354 0.99707 0.542969 0.98584 0.587158 0.931641 0.516113 0.953857 0.5354 0.889404 0.553467 0.931641 0.516113 0.889404 0.553467 0.876465 0.524658 0.953857 0.5354 0.98584 0.587158 0.959717 0.614746 0.959717 0.614746 0.98584 0.587158 0.999512 0.621826 0.889404 0.553467 0.953857 0.5354 0.937256 0.556396 0.937256 0.556396 0.953857 0.5354 0.959717 0.614746 0.889404 0.553467 0.937256 0.556396 0.905762 0.605469 0.905762 0.605469 0.937256 0.556396 0.959717 0.614746 0.703125 0.91626 0.72998 0.933594 0.682129 0.974121 0.682129 0.974121 0.72998 0.933594 0.684814 0.996826 0.682129 0.974121 0.684814 0.996826 0.647949 0.974121 0.703125 0.91626 0.682129 0.974121 0.65332 0.943115 0.65332 0.943115 0.682129 0.974121 0.647949 0.974121 0.703125 0.91626 0.65332 0.943115 0.684326 0.88208 0.65332 0.943115 0.647949 0.974121 0.611328 0.994385 0.65332 0.943115 0.611328 0.994385 0.608398 0.948975 0.608398 0.948975 0.611328 0.994385 0.574707 0.974365 0.608398 0.948975 0.574707 0.974365 0.578613 0.922607 0.65332 0.943115 0.608398 0.948975 0.628906 0.911377 0.65332 0.943115 0.628906 0.911377 0.684326 0.88208 0.628906 0.911377 0.608398 0.948975 0.578613 0.922607 0.684326 0.88208 0.628906 0.911377 0.669678 0.853027 0.628906 0.911377 0.578613 0.922607 0.600586 0.883545 0.628906 0.911377 0.600586 0.883545 0.669678 0.853027 0.787109 0.986328 0.814697 0.934326 0.815186 0.995605 0.815186 0.995605 0.814697 0.934326 0.881836 0.953125 0.524658 0.686768 0.509033 0.729492 0.438232 0.698975 0.438232 0.698975 0.509033 0.729492 0.471191 0.737061 0.524658 0.686768 0.438232 0.698975 0.497803 0.662109 0.513916 0.615723 0.537842 0.635254 0.497803 0.662109 0.513916 0.615723 0.497803 0.662109 0.457031 0.634521 0.513916 0.615723 0.457031 0.634521 0.445312 0.602051 0.457031 0.634521 0.497803 0.662109 0.438965 0.654541 0.438965 0.654541 0.497803 0.662109 0.438232 0.698975 0.445312 0.602051 0.457031 0.634521 0.406494 0.629883 0.406494 0.629883 0.457031 0.634521 0.438965 0.654541 0.445312 0.602051 0.406494 0.629883 0.406982 0.582764 0.406982 0.582764 0.406494 0.629883 0.362793 0.60498 0.362793 0.60498 0.406494 0.629883 0.35083 0.637451 0.406494 0.629883 0.438965 0.654541 0.38208 0.656738 0.406494 0.629883 0.38208 0.656738 0.35083 0.637451 0.38208 0.656738 0.438965 0.654541 0.438232 0.698975 0.35083 0.637451 0.38208 0.656738 0.356689 0.683594 0.356689 0.683594 0.38208 0.656738 0.438232 0.698975 0.35083 0.637451 0.356689 0.683594 0.2854 0.663574 0.2854 0.663574 0.356689 0.683594 0.352295 0.714111 0.352295 0.714111 0.356689 0.683594 0.438232 0.698975 0.352295 0.714111 0.438232 0.698975 0.397705 0.73291 0.933594 0.891846 0.981934 0.875488 0.987793 0.910889 0.933594 0.891846 0.987793 0.910889 0.955566 0.92749 0.933594 0.891846 0.955566 0.92749 0.895264 0.918213 0.981934 0.875488 0.933594 0.891846 0.92334 0.852539 0.981934 0.875488 0.92334 0.852539 0.965576 0.820557 0.933594 0.891846 0.895264 0.918213 0.869873 0.891357 0.933594 0.891846 0.869873 0.891357 0.92334 0.852539 0.869873 0.891357 0.895264 0.918213 0.842041 0.929688 0.92334 0.852539 0.869873 0.891357 0.868408 0.855713 0.869873 0.891357 0.842041 0.929688 0.813232 0.907959 0.869873 0.891357 0.813232 0.907959 0.868408 0.855713 0.128906 0.513916 0.164307 0.516602 0.148926 0.552979 0.164307 0.516602 0.128906 0.513916 0.187256 0.484131 0.187256 0.484131 0.128906 0.513916 0.178223 0.456055 0.187256 0.484131 0.178223 0.456055 0.223145 0.442871 0.164307 0.516602 0.187256 0.484131 0.210938 0.516602 0.164307 0.516602 0.210938 0.516602 0.148926 0.552979 0.187256 0.484131 0.223145 0.442871 0.243408 0.467773 0.187256 0.484131 0.243408 0.467773 0.210938 0.516602 0.243408 0.467773 0.223145 0.442871 0.24707 0.426514 0.243408 0.467773 0.24707 0.426514 0.265137 0.445801 0.243408 0.467773 0.265137 0.445801 0.271973 0.479492 0.243408 0.467773 0.271973 0.479492 0.210938 0.516602 0.148926 0.552979 0.210938 0.516602 0.185303 0.568359 0.148926 0.552979 0.185303 0.568359 0.165039 0.577393 0.210938 0.516602 0.271973 0.479492 0.231689 0.536133 0.210938 0.516602 0.231689 0.536133 0.185303 0.568359 0.231689 0.536133 0.271973 0.479492 0.291504 0.51709 0.231689 0.536133 0.291504 0.51709 0.263428 0.557617 0.263428 0.557617 0.291504 0.51709 0.308594 0.540039 0.263428 0.557617 0.308594 0.540039 0.289551 0.57251 0.231689 0.536133 0.263428 0.557617 0.225342 0.570068 0.231689 0.536133 0.225342 0.570068 0.185303 0.568359 0.263428 0.557617 0.289551 0.57251 0.239746 0.607178 0.263428 0.557617 0.239746 0.607178 0.225342 0.570068 0.239746 0.607178 0.289551 0.57251 0.262451 0.623779 0.262451 0.623779 0.289551 0.57251 0.319824 0.593994 0.262451 0.623779 0.319824 0.593994 0.299316 0.621094 0.239746 0.607178 0.262451 0.623779 0.226074 0.628174 0.185303 0.568359 0.225342 0.570068 0.208984 0.601807 0.208984 0.601807 0.225342 0.570068 0.239746 0.607178 0.208984 0.601807 0.239746 0.607178 0.226074 0.628174 0.185303 0.568359 0.208984 0.601807 0.16333 0.625977 0.16333 0.625977 0.208984 0.601807 0.226074 0.628174 0.890137 0.696777 0.900635 0.651367 0.909668 0.669678 0.924072 0.641846 0.966309 0.673096 0.909668 0.669678 0.909668 0.669678 0.966309 0.673096 0.955322 0.702148 0.955322 0.702148 0.966309 0.673096 0.989258 0.722168 0.890137 0.696777 0.909668 0.669678 0.917725 0.705566 0.917725 0.705566 0.909668 0.669678 0.955322 0.702148 0.955322 0.702148 0.989258 0.722168 0.958008 0.737793 0.955322 0.702148 0.958008 0.737793 0.917725 0.705566 0.958008 0.737793 0.989258 0.722168 0.999756 0.727539 0.958008 0.737793 0.999756 0.727539 0.979004 0.75293 0.958008 0.737793 0.979004 0.75293 0.937744 0.771729 0.917725 0.705566 0.958008 0.737793 0.898438 0.731201 0.917725 0.705566 0.898438 0.731201 0.890137 0.696777 0.898438 0.731201 0.958008 0.737793 0.937744 0.771729 0.890137 0.696777 0.898438 0.731201 0.835449 0.702393 0.835449 0.702393 0.898438 0.731201 0.837402 0.736572 0.898438 0.731201 0.937744 0.771729 0.88208 0.752686 0.898438 0.731201 0.88208 0.752686 0.837402 0.736572 0.88208 0.752686 0.937744 0.771729 0.898193 0.806396 0.837402 0.736572 0.88208 0.752686 0.855469 0.774414 0.855469 0.774414 0.88208 0.752686 0.898193 0.806396 0.837402 0.736572 0.855469 0.774414 0.791992 0.775879 0.855469 0.774414 0.898193 0.806396 0.855713 0.804688 0.855469 0.774414 0.855713 0.804688 0.791992 0.775879 0.855713 0.804688 0.898193 0.806396 0.912354 0.844482 0.791992 0.775879 0.855713 0.804688 0.802002 0.803955 0.855713 0.804688 0.912354 0.844482 0.852295 0.825684 0.855713 0.804688 0.852295 0.825684 0.802002 0.803955 0.802002 0.803955 0.852295 0.825684 0.827393 0.845459 0.735107 0.343262 0.816406 0.337646 0.751953 0.379639 0.816406 0.337646 0.735107 0.343262 0.791016 0.307373 0.816406 0.337646 0.791016 0.307373 0.856445 0.310791 0.856445 0.310791 0.791016 0.307373 0.819336 0.273438 0.816406 0.337646 0.856445 0.310791 0.861328 0.349121 0.861328 0.349121 0.856445 0.310791 0.891602 0.311523 0.816406 0.337646 0.861328 0.349121 0.81543 0.378418 0.816406 0.337646 0.81543 0.378418 0.751953 0.379639 0.81543 0.378418 0.861328 0.349121 0.868652 0.387451 0.751953 0.379639 0.81543 0.378418 0.814453 0.433594 0.814453 0.433594 0.81543 0.378418 0.868652 0.387451 0.814453 0.433594 0.868652 0.387451 0.897461 0.410889 0.814453 0.433594 0.897461 0.410889 0.863281 0.459229 0.751953 0.379639 0.814453 0.433594 0.762207 0.439697 0.814453 0.433594 0.863281 0.459229 0.786377 0.462158 0.814453 0.433594 0.786377 0.462158 0.762207 0.439697 0.786377 0.462158 0.863281 0.459229 0.83667 0.497314 0.83667 0.497314 0.863281 0.459229 0.898193 0.510742 0.786377 0.462158 0.83667 0.497314 0.766602 0.490479 0.786377 0.462158 0.766602 0.490479 0.762207 0.439697 0.766602 0.490479 0.83667 0.497314 0.782227 0.515381 0.766602 0.490479 0.782227 0.515381 0.72168 0.515381 0.766602 0.490479 0.72168 0.515381 0.713379 0.48999 0.766602 0.490479 0.713379 0.48999 0.762207 0.439697 0.762207 0.439697 0.713379 0.48999 0.705811 0.471191 0.484375 0.441162 0.452881 0.418457 0.478271 0.411621 0.443115 0.447754 0.400391 0.423828 0.452881 0.418457 0.443115 0.447754 0.452881 0.418457 0.484375 0.441162 0.443115 0.447754 0.484375 0.441162 0.508545 0.509277 0.508545 0.509277 0.484375 0.441162 0.524902 0.47168 0.508545 0.509277 0.524902 0.47168 0.556396 0.46875 0.484375 0.441162 0.478271 0.411621 0.519043 0.422363 0.484375 0.441162 0.519043 0.422363 0.524902 0.47168 0.519043 0.422363 0.478271 0.411621 0.484863 0.398682 0.524902 0.47168 0.519043 0.422363 0.556396 0.46875 0.556396 0.46875 0.519043 0.422363 0.562256 0.445068 0.562256 0.445068 0.519043 0.422363 0.552246 0.375732 0.556396 0.46875 0.562256 0.445068 0.603271 0.510498 0.562256 0.445068 0.552246 0.375732 0.589844 0.4104 0.603271 0.510498 0.562256 0.445068 0.60376 0.45752 0.60376 0.45752 0.562256 0.445068 0.589844 0.4104 0.603271 0.510498 0.60376 0.45752 0.641846 0.462158 0.641846 0.462158 0.60376 0.45752 0.589844 0.4104 0.641846 0.462158 0.589844 0.4104 0.649414 0.43457 0.641846 0.462158 0.649414 0.43457 0.701172 0.453369 0.701172 0.453369 0.649414 0.43457 0.750977 0.432129 0.724121 0.9104 0.672607 0.835205 0.696533 0.798096 0.696533 0.798096 0.672607 0.835205 0.67041 0.778564 0.696533 0.798096 0.67041 0.778564 0.672363 0.728027 0.696533 0.798096 0.672363 0.728027 0.730713 0.759521 0.118652 0.2229 0.090332 0.169189 0.120117 0.161621 0.120117 0.161621 0.090332 0.169189 0.123535 0.076416 0.123535 0.076416 0.090332 0.169189 0.085938 0.097168 0.085938 0.097168 0.090332 0.169189 0.041016 0.150146 0.041016 0.150146 0.090332 0.169189 0.053223 0.190186 0.085938 0.097168 0.041016 0.150146 0.051025 0.085693 0.18457 0.720459 0.125244 0.677979 0.156738 0.676514 0.125244 0.677979 0.18457 0.720459 0.11499 0.715088 0.125244 0.677979 0.11499 0.715088 0.046631 0.714355 0.156738 0.676514 0.125244 0.677979 0.143311 0.63623 0.125244 0.677979 0.046631 0.714355 0.099121 0.657959 0.125244 0.677979 0.099121 0.657959 0.143311 0.63623 0.143311 0.63623 0.099121 0.657959 0.103516 0.603027 0.143311 0.63623 0.103516 0.603027 0.163818 0.590088 0.163818 0.590088 0.103516 0.603027 0.11499 0.566895 0.103516 0.603027 0.099121 0.657959 0.084961 0.621094 0.103516 0.603027 0.084961 0.621094 0.043701 0.586426 0.084961 0.621094 0.099121 0.657959 0.060547 0.641357 0.658203 0.240723 0.598633 0.242432 0.595215 0.199219 0.595215 0.199219 0.598633 0.242432 0.5625 0.228271 0.658203 0.240723 0.595215 0.199219 0.655762 0.204102 0.5625 0.228271 0.598633 0.242432 0.583984 0.277344 0.5625 0.228271 0.583984 0.277344 0.512207 0.228516 0.598633 0.242432 0.658203 0.240723 0.671631 0.290039 0.598633 0.242432 0.671631 0.290039 0.583984 0.277344 0.658203 0.240723 0.655762 0.204102 0.701904 0.246094 0.658203 0.240723 0.701904 0.246094 0.671631 0.290039 0.701904 0.246094 0.655762 0.204102 0.735107 0.208008 0.701904 0.246094 0.735107 0.208008 0.75 0.289062 0.701904 0.246094 0.75 0.289062 0.671631 0.290039 0.671631 0.290039 0.75 0.289062 0.706055 0.33374 0.50293 0.27832 0.512207 0.228516 0.583984 0.277344 0.671631 0.290039 0.706055 0.33374 0.647217 0.319092 0.671631 0.290039 0.647217 0.319092 0.583984 0.277344 0.647217 0.319092 0.706055 0.33374 0.6521 0.374512 0.583984 0.277344 0.647217 0.319092 0.587402 0.317627 0.583984 0.277344 0.587402 0.317627 0.50293 0.27832 0.587402 0.317627 0.647217 0.319092 0.6521 0.374512 0.50293 0.27832 0.587402 0.317627 0.523926 0.328125 0.50293 0.27832 0.523926 0.328125 0.46875 0.330566 0.587402 0.317627 0.6521 0.374512 0.549805 0.359863 0.587402 0.317627 0.549805 0.359863 0.523926 0.328125 0.523926 0.328125 0.549805 0.359863 0.46875 0.330566 0.549805 0.359863 0.6521 0.374512 0.644775 0.419922 0.46875 0.330566 0.549805 0.359863 0.47876 0.359619 0.46875 0.330566 0.47876 0.359619 0.426758 0.350342 0.228516 0.845459 0.245605 0.79541 0.295898 0.825684 0.3479 0.777344 0.339111 0.824707 0.295898 0.825684 0.295898 0.825684 0.245605 0.79541 0.277344 0.780762 0.295898 0.825684 0.277344 0.780762 0.3479 0.777344 0.3479 0.777344 0.277344 0.780762 0.323242 0.715576 0.3479 0.777344 0.323242 0.715576 0.392822 0.760498 0.277344 0.780762 0.245605 0.79541 0.274902 0.748291 0.277344 0.780762 0.274902 0.748291 0.323242 0.715576 0.274902 0.748291 0.245605 0.79541 0.195068 0.769531 0.323242 0.715576 0.274902 0.748291 0.293701 0.686523 0.274902 0.748291 0.195068 0.769531 0.270752 0.718018 0.274902 0.748291 0.270752 0.718018 0.293701 0.686523 0.293701 0.686523 0.270752 0.718018 0.221191 0.716309 0.293701 0.686523 0.221191 0.716309 0.258301 0.665039 0.258301 0.665039 0.221191 0.716309 0.210938 0.637939 0.417969 0.94751 0.403076 0.993408 0.347656 0.962158 0.442627 0.508545 0.512939 0.533691 0.486328 0.560547 0.414551 0.568115 0.486328 0.560547 0.450684 0.591553 0.450684 0.591553 0.486328 0.560547 0.511719 0.597656 0.511719 0.597656 0.486328 0.560547 0.512939 0.533691 0.511719 0.597656 0.512939 0.533691 0.531738 0.593018 0.531738 0.593018 0.512939 0.533691 0.546143 0.550049 0.531738 0.593018 0.546143 0.550049 0.576416 0.592041 0.546143 0.550049 0.512939 0.533691 0.541504 0.504883 0.546143 0.550049 0.541504 0.504883 0.576416 0.592041 0.576416 0.592041 0.541504 0.504883 0.593262 0.555176 0.593262 0.555176 0.541504 0.504883 0.602783 0.521484 0.593262 0.555176 0.602783 0.521484 0.62085 0.548584 0.62085 0.548584 0.602783 0.521484 0.652588 0.54248 0.62085 0.548584 0.652588 0.54248 0.65332 0.588379 0.652588 0.54248 0.602783 0.521484 0.647705 0.510986 0.652588 0.54248 0.647705 0.510986 0.706299 0.573242 0.706299 0.573242 0.647705 0.510986 0.690674 0.526367 0.274902 0.941406 0.26001 0.984375 0.215576 0.986328 0.765869 0.151367 0.831787 0.106934 0.82666 0.169922 0.765869 0.151367 0.82666 0.169922 0.78418 0.172363 0.831787 0.106934 0.765869 0.151367 0.732422 0.133789 0.732422 0.133789 0.765869 0.151367 0.729248 0.198975 0.831787 0.106934 0.732422 0.133789 0.744385 0.092773 0.831787 0.106934 0.744385 0.092773 0.842285 0.039062 0.744385 0.092773 0.732422 0.133789 0.657959 0.131348 0.842285 0.039062 0.744385 0.092773 0.773926 0.023438 0.773926 0.023438 0.744385 0.092773 0.70166 0.07251 0.70166 0.07251 0.744385 0.092773 0.657959 0.131348 0.773926 0.023438 0.70166 0.07251 0.606201 0.098633 0.606201 0.098633 0.70166 0.07251 0.657959 0.131348 0.606201 0.098633 0.657959 0.131348 0.588135 0.147705 0.135986 0.310547 0.099609 0.346436 0.085449 0.282959 0.099609 0.346436 0.135986 0.310547 0.138428 0.352051 0.135986 0.310547 0.085449 0.282959 0.141846 0.264893 0.135986 0.310547 0.141846 0.264893 0.197754 0.296631 0.141846 0.264893 0.085449 0.282959 0.056641 0.231689 0.085449 0.282959 0.099609 0.346436 0.057861 0.331299 0.085449 0.282959 0.057861 0.331299 0.035645 0.297363 0.035645 0.297363 0.057861 0.331299 0.04126 0.363281 0.04126 0.363281 0.057861 0.331299 0.099609 0.346436 0.04126 0.363281 0.099609 0.346436 0.13208 0.391846 0.19873 0.94873 0.256592 0.9375 0.192139 0.988525 0.441895 0.935059 0.503174 0.979492 0.44751 0.967773 0.197021 0.046143 0.225098 0.109375 0.199951 0.085938 0.199951 0.085938 0.225098 0.109375 0.212646 0.126465 0.199951 0.085938 0.212646 0.126465 0.137939 0.094727 0.277832 0.11377 0.225098 0.109375 0.249023 0.075195 0.225098 0.109375 0.277832 0.11377 0.212646 0.126465 0.137939 0.094727 0.212646 0.126465 0.150635 0.160889 0.212646 0.126465 0.277832 0.11377 0.286377 0.156738 0.286377 0.156738 0.277832 0.11377 0.315674 0.114502 0.150635 0.160889 0.212646 0.126465 0.213135 0.162109 0.213135 0.162109 0.212646 0.126465 0.286377 0.156738 0.213135 0.162109 0.286377 0.156738 0.262939 0.197754 0.262939 0.197754 0.286377 0.156738 0.343018 0.185059 0.150635 0.160889 0.213135 0.162109 0.192383 0.202637 0.192383 0.202637 0.213135 0.162109 0.262939 0.197754 0.150635 0.160889 0.192383 0.202637 0.128174 0.198975 0.192383 0.202637 0.262939 0.197754 0.26709 0.231689 0.128174 0.198975 0.192383 0.202637 0.13501 0.239014 0.192383 0.202637 0.26709 0.231689 0.225342 0.263184 0.13501 0.239014 0.192383 0.202637 0.181885 0.23584 0.181885 0.23584 0.192383 0.202637 0.225342 0.263184 0.181885 0.23584 0.225342 0.263184 0.188721 0.277832 0.10083 0.004395 0.171631 0.026855 0.164062 0.080811 0.171631 0.026855 0.10083 0.004395 0.1875 0.004883 0.548828 0.996582 0.474121 0.942383 0.555176 0.927246 0.425781 0.888428 0.413086 0.922119 0.349609 0.824463 0.413086 0.922119 0.425781 0.888428 0.484619 0.929932 0.425781 0.888428 0.349609 0.824463 0.388428 0.826172 0.388428 0.826172 0.349609 0.824463 0.366943 0.797119 0.388428 0.826172 0.366943 0.797119 0.414307 0.780762 0.425781 0.888428 0.388428 0.826172 0.436279 0.844238 0.436279 0.844238 0.388428 0.826172 0.414307 0.780762 0.484619 0.929932 0.425781 0.888428 0.480469 0.875977 0.480469 0.875977 0.425781 0.888428 0.436279 0.844238 0.484619 0.929932 0.480469 0.875977 0.55835 0.883789 0.484619 0.929932 0.55835 0.883789 0.548096 0.914795 0.480469 0.875977 0.436279 0.844238 0.461914 0.83374 0.461914 0.83374 0.436279 0.844238 0.414307 0.780762 0.55835 0.883789 0.480469 0.875977 0.513672 0.859131 0.513672 0.859131 0.480469 0.875977 0.461914 0.83374 0.461914 0.83374 0.414307 0.780762 0.486328 0.805176 0.461914 0.83374 0.486328 0.805176 0.513672 0.859131 0.486328 0.805176 0.414307 0.780762 0.45459 0.773682 0.486328 0.805176 0.45459 0.773682 0.500977 0.776855 0.500977 0.776855 0.45459 0.773682 0.461914 0.751221 0.500977 0.776855 0.461914 0.751221 0.49585 0.743896 0.500977 0.776855 0.49585 0.743896 0.508057 0.740234 0.500977 0.776855 0.508057 0.740234 0.532227 0.763428 0.513672 0.859131 0.486328 0.805176 0.545654 0.838135 0.545654 0.838135 0.486328 0.805176 0.500977 0.776855 0.545654 0.838135 0.500977 0.776855 0.532227 0.763428 0.513672 0.859131 0.545654 0.838135 0.55835 0.883789 0.545654 0.838135 0.532227 0.763428 0.584473 0.843994 0.545654 0.838135 0.584473 0.843994 0.55835 0.883789 0.55835 0.883789 0.584473 0.843994 0.625977 0.859131 0.801758 0.837646 0.768311 0.881836 0.759033 0.825928 0.759033 0.825928 0.768311 0.881836 0.744385 0.8396 0.801758 0.837646 0.759033 0.825928 0.783447 0.787354 0.783447 0.787354 0.759033 0.825928 0.748779 0.756836 0.748779 0.756836 0.759033 0.825928 0.738281 0.792725 0.339844 0.311523 0.394775 0.320801 0.379883 0.376953 0.481201 0.257324 0.463135 0.304688 0.394775 0.320801 0.481201 0.257324 0.394775 0.320801 0.399902 0.253418 0.399902 0.253418 0.394775 0.320801 0.356689 0.280273 0.356689 0.280273 0.394775 0.320801 0.339844 0.311523 0.399902 0.253418 0.356689 0.280273 0.318848 0.199463 0.318848 0.199463 0.356689 0.280273 0.283203 0.230957 0.283203 0.230957 0.356689 0.280273 0.339844 0.311523 0.314697 0.379883 0.339844 0.311523 0.379883 0.376953 0.339844 0.311523 0.314697 0.379883 0.288574 0.375244 0.288574 0.375244 0.314697 0.379883 0.288574 0.452881 0.314697 0.379883 0.379883 0.376953 0.337646 0.407715 0.314697 0.379883 0.337646 0.407715 0.288574 0.452881 0.337646 0.407715 0.379883 0.376953 0.34668 0.445312 0.337646 0.407715 0.34668 0.445312 0.288574 0.452881 0.34668 0.445312 0.379883 0.376953 0.398682 0.4104 0.288574 0.452881 0.34668 0.445312 0.291748 0.491943 0.119385 0.815918 0.083252 0.878418 0.06958 0.790527 0.119385 0.815918 0.06958 0.790527 0.112793 0.780029 0.083252 0.878418 0.119385 0.815918 0.160645 0.893311 0.083252 0.878418 0.160645 0.893311 0.15918 0.927734 0.160645 0.893311 0.119385 0.815918 0.172119 0.834473 0.172119 0.834473 0.119385 0.815918 0.112793 0.780029 0.160645 0.893311 0.172119 0.834473 0.205078 0.898926 0.205078 0.898926 0.172119 0.834473 0.227051 0.799805 0.227051 0.799805 0.172119 0.834473 0.197266 0.79126 0.197266 0.79126 0.172119 0.834473 0.144775 0.736572 0.144775 0.736572 0.172119 0.834473 0.112793 0.780029 0.144775 0.736572 0.112793 0.780029 0.093018 0.730957 0.013672 0.94458 0 0.886963 0.0271 0.917236 0.0271 0.917236 0 0.886963 0.028076 0.859863 0.013672 0.94458 0.0271 0.917236 0.027832 0.994873 0.0271 0.917236 0.028076 0.859863 0.052002 0.887695 0.052002 0.887695 0.028076 0.859863 0.057373 0.8479 0.052002 0.887695 0.057373 0.8479 0.083252 0.907715 0.0271 0.917236 0.052002 0.887695 0.05127 0.950195 0.0271 0.917236 0.05127 0.950195 0.027832 0.994873 0.05127 0.950195 0.052002 0.887695 0.083252 0.907715 0.027832 0.994873 0.05127 0.950195 0.046387 0.996826 0.046387 0.996826 0.05127 0.950195 0.084229 0.979248 0.084229 0.979248 0.05127 0.950195 0.083252 0.907715 0.084229 0.979248 0.083252 0.907715 0.10376 0.92749 0.084229 0.979248 0.10376 0.92749 0.108887 0.955566 0.108887 0.955566 0.10376 0.92749 0.119141 0.948486 0.119141 0.948486 0.10376 0.92749 0.12915 0.931396 0.119141 0.948486 0.12915 0.931396 0.164551 0.955566 0.004395 0.006592 0.030029 0.010986 0.025146 0.030273 0.025146 0.030273 0.030029 0.010986 0.06958 0.025146 0.025146 0.030273 0.06958 0.025146 0.10498 0.068115 0.10498 0.068115 0.06958 0.025146 0.114502 0.041992 0.025146 0.030273 0.10498 0.068115 0.039551 0.077393 0.025146 0.030273 0.039551 0.077393 0.005615 0.0625 0.005615 0.0625 0.039551 0.077393 0.023193 0.103027 0.324707 0.022217 0.25293 0.054688 0.280029 0 0.25293 0.054688 0.324707 0.022217 0.269287 0.081299 0.280029 0 0.25293 0.054688 0.234375 0.03418 0.280029 0 0.234375 0.03418 0.239014 0.004639 0.239014 0.004639 0.234375 0.03418 0.22583 0.023193 0.22583 0.023193 0.234375 0.03418 0.187012 0.026123 0.921631 0.078613 0.980225 0.088379 0.914795 0.161133 0.914795 0.161133 0.980225 0.088379 0.96582 0.164062 0.914795 0.161133 0.96582 0.164062 0.904785 0.204346 0.904785 0.204346 0.96582 0.164062 0.925049 0.202637 0.904785 0.204346 0.925049 0.202637 0.927734 0.223633 0.927734 0.223633 0.925049 0.202637 0.96582 0.164062 0.904785 0.204346 0.927734 0.223633 0.871338 0.230713 0.871338 0.230713 0.927734 0.223633 0.897217 0.261719 0.897217 0.261719 0.927734 0.223633 0.916992 0.278809 0.927734 0.223633 0.96582 0.164062 0.967773 0.215332 0.967773 0.215332 0.96582 0.164062 0.98291 0.237061 0.967773 0.215332 0.98291 0.237061 0.927734 0.223633 0.927734 0.223633 0.98291 0.237061 0.952637 0.284668 0.927734 0.223633 0.952637 0.284668 0.916992 0.278809 0.952637 0.284668 0.98291 0.237061 0.983398 0.295654 0.916992 0.278809 0.952637 0.284668 0.947021 0.311279 0.947021 0.311279 0.952637 0.284668 0.983398 0.295654 0.389648 0.917236 0.411865 0.938721 0.363037 0.941406 0.389648 0.917236 0.363037 0.941406 0.352539 0.868896 0.352539 0.868896 0.363037 0.941406 0.331299 0.957031 0.352539 0.868896 0.331299 0.957031 0.311523 0.939453 0.352539 0.868896 0.311523 0.939453 0.253174 0.924805 0.352539 0.868896 0.253174 0.924805 0.258057 0.891846 0.352539 0.868896 0.258057 0.891846 0.328125 0.83374 0.258057 0.891846 0.253174 0.924805 0.199463 0.937988 0.804688 0.86499 0.767578 0.983643 0.744385 0.92334 0.767578 0.983643 0.804688 0.86499 0.798828 0.938232 0.837891 0.022461 0.995605 0.022461 0.895508 0.057861 0.973145 0.936279 0.968506 0.972168 0.942871 0.953857 0.942871 0.953857 0.968506 0.972168 0.926758 0.970459 0.973145 0.936279 0.942871 0.953857 0.888672 0.935547 0.043945 0.452148 0.089355 0.393066 0.070312 0.466309 0.070312 0.466309 0.089355 0.393066 0.0979 0.549072 0.070312 0.466309 0.0979 0.549072 0.046143 0.488281 0.0979 0.549072 0.089355 0.393066 0.143799 0.405273 0.790283 0.223389 0.818848 0.180176 0.827637 0.217529 0.790283 0.223389 0.827637 0.217529 0.858643 0.234863 0.790283 0.223389 0.858643 0.234863 0.91333 0.311279 0.858643 0.234863 0.827637 0.217529 0.872314 0.190918 0.872314 0.190918 0.827637 0.217529 0.912598 0.077637 0.459229 0.090088 0.337402 0.072754 0.33374 0.022705 0.459229 0.090088 0.33374 0.022705 0.482422 0.050293 0.337402 0.072754 0.459229 0.090088 0.422363 0.109619 0.337402 0.072754 0.422363 0.109619 0.338135 0.102539 0.338135 0.102539 0.422363 0.109619 0.326172 0.131348 0.326172 0.131348 0.422363 0.109619 0.356445 0.184082 0.356445 0.184082 0.422363 0.109619 0.395264 0.235107 0.395264 0.235107 0.422363 0.109619 0.459229 0.090088 0.395264 0.235107 0.459229 0.090088 0.482666 0.235107 0.482666 0.235107 0.459229 0.090088 0.551758 0.181885 0.551758 0.181885 0.459229 0.090088 0.563721 0.140869 0.563721 0.140869 0.459229 0.090088 0.544189 0.106934 0.544189 0.106934 0.459229 0.090088 0.482422 0.050293 0.563721 0.140869 0.544189 0.106934 0.57666 0.102783 0.544189 0.106934 0.482422 0.050293 0.512207 0.02417 0.544189 0.106934 0.512207 0.02417 0.57666 0.102783 0.57666 0.102783 0.512207 0.02417 0.60376 0.084961 0.61377 0.081055 0.702637 0.016357 0.709229 0.039062 0.016113 0.827637 0.001221 0.868652 0.00708 0.732422 0.605957 0.070801 0.52002 0.008301 0.628174 0.037354 0.182373 0.312256 0.301025 0.286621 0.224854 0.368408 0.224854 0.368408 0.301025 0.286621 0.26709 0.410156 0.182373 0.312256 0.224854 0.368408 0.145508 0.441162 0.145508 0.441162 0.224854 0.368408 0.26709 0.410156 0.55249 0.606934 0.617676 0.596191 0.619141 0.69751 0.55249 0.606934 0.619141 0.69751 0.536377 0.704102 0.536377 0.704102 0.619141 0.69751 0.575684 0.805908</float_array>
          <technique_common>
            <accessor source="#Rope-mesh-map-0-array" count="1518" stride="2">
              <param name="S" type="float"/>
              <param name="T" type="float"/>
            </accessor>
          </technique_common>
        </source>
        <vertices id="Rope-mesh-vertices">
          <input semantic="POSITION" source="#Rope-mesh-positions"/>
        </vertices>
        <polylist material="Material_-1-material" count="6">
          <input semantic="VERTEX" source="#Rope-mesh-vertices" offset="0"/>
          <input semantic="NORMAL" source="#Rope-mesh-normals" offset="1"/>
          <input semantic="TEXCOORD" source="#Rope-mesh-map-0" offset="2" set="0"/>
          <vcount>3 3 3 3 3 3 3 3 3 3 3 3 3 3 3 3 3 3 3 3 3 3 3 3 3 3 3 3 3 3 3 3 3 3 3 3 3 3 3 3 3 3 3 3 3 3 3 3 3 3 3 3 3 3 3 3 3 3 3 3 3 3 3 3 3 3 3 3 3 3 3 3 3 3 3 3 3 3 3 3 3 3 3 3 3 3 3 3 3 3 3 3 3 3 3 3 3 3 3 3 3 3 3 3 3 3 3 3 3 3 3 3 3 3 3 3 3 3 3 3 3 3 3 3 3 3 3 3 3 3 3 3 3 3 3 3 3 3 3 3 3 3 3 3 3 3 3 3 3 3 3 3 3 3 3 3 3 3 3 3 3 3 3 3 3 3 3 3 3 3 3 3 3 3 3 3 3 3 3 3 3 3 3 3 3 3 3 3 3 3 3 3 3 3 3 3 3 3 3 3 3 3 3 3 3 3 3 3 3 3 3 3 3 3 3 3 3 3 3 3 3 3 3 3 3 3 3 3 3 3 3 3 3 3 3 3 3 3 3 3 3 3 3 3 3 3 3 3 3 3 3 3 3 3 3 3 3 3 3 3 3 3 3 3 3 3 3 3 3 3 3 3 3 3 3 3 3 3 3 3 3 3 3 3 3 3 3 3 3 3 3 3 3 3 3 3 3 3 3 3 3 3 3 3 3 3 3 3 3 3 3 3 3 3 3 3 3 3 3 3 3 3 3 3 3 3 3 3 3 3 3 3 3 3 3 3 3 3 3 3 3 3 3 3 3 3 3 3 3 3 3 3 3 3 3 3 3 3 3 3 3 3 3 3 3 3 3 3 3 3 3 3 3 3 3 3 3 3 3 3 3 3 3 3 3 3 3 3 3 3 3 3 3 3 3 3 3 3 3 3 3 3 3 3 3 3 3 3 3 3 3 3 3 3 3 3 3 3 3 3 3 3 3 3 3 3 3 3 3 3 3 3 3 3 3 3 3 3 3 3 3 3 3 3 3 3 3 3 3 3 3 3 3 3 3 3 3 3 3 3 3 3 3 3 3 3 3 3 3 3 3 3 3 3 3 3 3 3 3 3 3 3 3 3 3 3 3 3 3 3 3 3 3 3 3 3 3 3 3 3 3 3 3 3 3 3</vcount>
          <p>0 0 0 1 0 1 2 0 2 2 1 3 1 1 4 3 1 5 2 2 6 3 2 7 4 2 8 2 3 9 4 3 10 5 3 11 2 4 12 5 4 13 6 4 14 2 5 15 6 5 16 0 5 17 1 6 18 0 6 19 7 6 20 1 7 21 7 7 22 8 7 23 0 8 24 6 8 25 9 8 26 0 9 27 9 9 28 7 9 29 9 10 30 6 10 31 10 10 32 10 11 33 6 11 34 11 11 35 8 12 36 7 12 37 12 12 38 12 13 39 7 13 40 9 13 41 8 14 42 12 14 43 13 14 44 9 15 45 10 15 46 14 15 47 9 16 48 14 16 49 12 16 50 14 17 51 10 17 52 15 17 53 14 18 54 15 18 55 16 18 56 12 19 57 14 19 58 17 19 59 17 20 60 14 20 61 16 20 62 12 21 63 17 21 64 18 21 65 12 22 66 18 22 67 13 22 68 18 23 69 17 23 70 16 23 71 13 24 72 18 24 73 19 24 74 13 25 75 19 25 76 20 25 77 19 26 78 18 26 79 21 26 80 19 27 81 21 27 82 20 27 83 21 28 84 18 28 85 16 28 86 20 29 87 21 29 88 4 29 89 4 30 90 21 30 91 5 30 92 21 31 93 16 31 94 22 31 95 22 32 96 16 32 97 23 32 98 21 33 99 22 33 100 24 33 101 21 34 102 24 34 103 5 34 104 5 35 105 24 35 106 6 35 107 25 36 108 3 36 109 26 36 110 3 37 111 25 37 112 4 37 113 25 38 114 26 38 115 27 38 116 26 39 117 3 39 118 28 39 119 28 40 120 3 40 121 29 40 122 26 41 123 28 41 124 30 41 125 30 42 126 28 42 127 29 42 128 26 43 129 30 43 130 27 43 131 30 44 132 29 44 133 31 44 134 27 45 135 30 45 136 32 45 137 27 46 138 32 46 139 33 46 140 30 47 141 31 47 142 34 47 143 34 48 144 31 48 145 35 48 146 32 49 147 30 49 148 36 49 149 36 50 150 30 50 151 34 50 152 32 51 153 36 51 154 37 51 155 37 52 156 36 52 157 34 52 158 20 53 159 4 53 160 38 53 161 38 54 162 4 54 163 25 54 164 38 55 165 25 55 166 27 55 167 20 56 168 38 56 169 39 56 170 39 57 171 38 57 172 27 57 173 20 58 174 39 58 175 13 58 176 39 59 177 27 59 178 33 59 179 39 60 180 33 60 181 40 60 182 40 61 183 33 61 184 41 61 185 40 62 186 41 62 187 31 62 188 39 63 189 40 63 190 42 63 191 39 64 192 42 64 193 13 64 194 42 65 195 40 65 196 31 65 197 13 66 198 42 66 199 8 66 200 42 67 201 31 67 202 29 67 203 42 68 204 29 68 205 8 68 206 1 69 207 8 69 208 3 69 209 3 70 210 8 70 211 29 70 212 33 71 213 32 71 214 43 71 215 43 72 216 32 72 217 37 72 218 33 73 219 43 73 220 41 73 221 35 74 222 31 74 223 41 74 224 35 75 225 41 75 226 44 75 227 35 76 228 44 76 229 45 76 230 44 77 231 41 77 232 46 77 233 46 78 234 41 78 235 43 78 236 45 79 237 44 79 238 47 79 239 47 80 240 44 80 241 46 80 242 45 81 243 47 81 244 48 81 245 48 82 246 47 82 247 49 82 248 49 83 249 47 83 250 50 83 251 47 84 252 46 84 253 51 84 254 47 85 255 51 85 256 50 85 257 51 86 258 46 86 259 43 86 260 50 87 261 51 87 262 52 87 263 52 88 264 51 88 265 43 88 266 50 89 267 52 89 268 53 89 269 53 90 270 52 90 271 54 90 272 54 91 273 52 91 274 43 91 275 54 92 276 43 92 277 55 92 278 56 93 279 37 93 280 34 93 281 56 94 282 34 94 283 35 94 284 56 95 285 35 95 286 45 95 287 37 96 288 56 96 289 55 96 290 37 97 291 55 97 292 43 97 293 56 98 294 45 98 295 57 98 296 56 99 297 57 99 298 55 99 299 57 100 300 45 100 301 48 100 302 55 101 303 57 101 304 54 101 305 57 102 306 48 102 307 58 102 308 57 103 309 58 103 310 54 103 311 50 104 312 59 104 313 49 104 314 59 105 315 50 105 316 60 105 317 60 106 318 50 106 319 53 106 320 60 107 321 53 107 322 61 107 323 59 108 324 60 108 325 62 108 326 59 109 327 62 109 328 49 109 329 60 110 330 61 110 331 63 110 332 60 111 333 63 111 334 62 111 335 63 112 336 61 112 337 64 112 338 63 113 339 64 113 340 65 113 341 63 114 342 65 114 343 66 114 344 63 115 345 66 115 346 62 115 347 49 116 348 62 116 349 58 116 350 49 117 351 58 117 352 48 117 353 62 118 354 66 118 355 67 118 356 62 119 357 67 119 358 58 119 359 67 120 360 66 120 361 68 120 362 67 121 363 68 121 364 69 121 365 69 122 366 68 122 367 70 122 368 69 123 369 70 123 370 71 123 371 67 124 372 69 124 373 72 124 374 67 125 375 72 125 376 58 125 377 69 126 378 71 126 379 73 126 380 69 127 381 73 127 382 72 127 383 73 128 384 71 128 385 61 128 386 61 129 387 71 129 388 74 129 389 61 130 390 74 130 391 64 130 392 73 131 393 61 131 394 53 131 395 58 132 396 72 132 397 75 132 398 75 133 399 72 133 400 73 133 401 75 134 402 73 134 403 53 134 404 58 135 405 75 135 406 54 135 407 54 136 408 75 136 409 53 136 410 23 137 411 16 137 412 15 137 413 10 138 414 11 138 415 15 138 416 15 139 417 11 139 418 76 139 419 76 140 420 11 140 421 77 140 422 23 141 423 15 141 424 78 141 425 78 142 426 15 142 427 76 142 428 76 143 429 77 143 430 79 143 431 76 144 432 79 144 433 78 144 434 79 145 435 77 145 436 80 145 437 79 146 438 80 146 439 81 146 440 79 147 441 81 147 442 82 147 443 78 148 444 79 148 445 83 148 446 78 149 447 83 149 448 23 149 449 83 150 450 79 150 451 82 150 452 23 151 453 83 151 454 22 151 455 22 152 456 83 152 457 24 152 458 83 153 459 82 153 460 84 153 461 83 154 462 84 154 463 24 154 464 84 155 465 82 155 466 85 155 467 24 156 468 84 156 469 86 156 470 86 157 471 84 157 472 85 157 473 24 158 474 86 158 475 6 158 476 86 159 477 85 159 478 87 159 479 86 160 480 87 160 481 6 160 482 87 161 483 85 161 484 88 161 485 6 162 486 87 162 487 11 162 488 87 163 489 88 163 490 89 163 491 87 164 492 89 164 493 11 164 494 11 165 495 89 165 496 77 165 497 82 166 498 90 166 499 85 166 500 90 167 501 82 167 502 81 167 503 90 168 504 81 168 505 91 168 506 91 169 507 81 169 508 80 169 509 90 170 510 91 170 511 92 170 512 92 171 513 91 171 514 93 171 515 90 172 516 92 172 517 94 172 518 90 173 519 94 173 520 85 173 521 94 174 522 92 174 523 95 174 524 85 175 525 94 175 526 96 175 527 96 176 528 94 176 529 95 176 530 96 177 531 95 177 532 97 177 533 96 178 534 97 178 535 98 178 536 85 179 537 96 179 538 88 179 539 96 180 540 98 180 541 99 180 542 96 181 543 99 181 544 88 181 545 99 182 546 98 182 547 100 182 548 100 183 549 98 183 550 101 183 551 99 184 552 100 184 553 102 184 554 99 185 555 102 185 556 88 185 557 102 186 558 100 186 559 91 186 560 102 187 561 91 187 562 80 187 563 102 188 564 80 188 565 77 188 566 102 189 567 77 189 568 88 189 569 88 190 570 77 190 571 89 190 572 103 191 573 97 191 574 95 191 575 101 192 576 98 192 577 97 192 578 101 193 579 97 193 580 103 193 581 101 194 582 103 194 583 104 194 584 104 195 585 103 195 586 105 195 587 104 196 588 105 196 589 106 196 590 103 197 591 95 197 592 93 197 593 103 198 594 93 198 595 105 198 596 93 199 597 95 199 598 92 199 599 105 200 600 93 200 601 106 200 602 106 201 603 93 201 604 107 201 605 107 202 606 93 202 607 91 202 608 106 203 609 107 203 610 108 203 611 107 204 612 91 204 613 100 204 614 108 205 615 107 205 616 109 205 617 109 206 618 107 206 619 100 206 620 108 207 621 109 207 622 110 207 623 110 208 624 109 208 625 100 208 626 110 209 627 100 209 628 101 209 629 110 210 630 101 210 631 111 210 632 111 211 633 101 211 634 112 211 635 101 212 636 104 212 637 112 212 638 112 213 639 104 213 640 113 213 641 112 214 642 113 214 643 114 214 644 112 215 645 114 215 646 115 215 647 106 216 648 108 216 649 116 216 650 116 217 651 108 217 652 117 217 653 117 218 654 108 218 655 115 218 656 115 219 657 108 219 658 111 219 659 111 220 660 108 220 661 110 220 662 115 221 663 111 221 664 112 221 665 106 222 666 118 222 667 104 222 668 118 223 669 106 223 670 116 223 671 118 224 672 116 224 673 119 224 674 104 225 675 118 225 676 120 225 677 118 226 678 119 226 679 121 226 680 118 227 681 121 227 682 120 227 683 120 228 684 121 228 685 122 228 686 120 229 687 122 229 688 123 229 689 123 230 690 122 230 691 124 230 692 122 231 693 121 231 694 125 231 695 122 232 696 125 232 697 126 232 698 125 233 699 121 233 700 127 233 701 128 234 702 129 234 703 64 234 704 64 235 705 129 235 706 65 235 707 128 236 708 64 236 709 74 236 710 65 237 711 129 237 712 130 237 713 65 238 714 130 238 715 66 238 716 129 239 717 128 239 718 131 239 719 129 240 720 131 240 721 130 240 722 128 241 723 74 241 724 132 241 725 128 242 726 132 242 727 131 242 728 132 243 729 74 243 730 133 243 731 132 244 732 133 244 733 134 244 734 132 245 735 134 245 736 131 245 737 131 246 738 134 246 739 135 246 740 68 247 741 66 247 742 130 247 743 131 248 744 135 248 745 136 248 746 131 249 747 136 249 748 130 249 749 136 250 750 135 250 751 137 250 752 130 251 753 136 251 754 138 251 755 130 252 756 138 252 757 68 252 758 138 253 759 136 253 760 137 253 761 68 254 762 138 254 763 139 254 764 68 255 765 139 255 766 70 255 767 138 256 768 137 256 769 133 256 770 138 257 771 133 257 772 139 257 773 139 258 774 133 258 775 70 258 776 133 259 777 137 259 778 140 259 779 70 260 780 133 260 781 74 260 782 70 261 783 74 261 784 71 261 785 135 262 786 134 262 787 113 262 788 141 263 789 114 263 790 113 263 791 113 264 792 134 264 793 142 264 794 113 265 795 142 265 796 141 265 797 141 266 798 142 266 799 123 266 800 141 267 801 123 267 802 124 267 803 142 268 804 134 268 805 143 268 806 142 269 807 143 269 808 123 269 809 143 270 810 134 270 811 133 270 812 123 271 813 143 271 814 120 271 815 143 272 816 133 272 817 140 272 818 143 273 819 140 273 820 120 273 821 120 274 822 140 274 823 137 274 824 120 275 825 137 275 826 104 275 827 104 276 828 137 276 829 113 276 830 137 277 831 135 277 832 113 277 833 116 278 834 117 278 835 119 278 836 121 279 837 119 279 838 127 279 839 127 280 840 119 280 841 144 280 842 144 281 843 119 281 844 117 281 845 144 282 846 117 282 847 145 282 848 145 283 849 117 283 850 146 283 851 145 284 852 146 284 853 147 284 854 146 285 855 117 285 856 115 285 857 146 286 858 115 286 859 147 286 860 147 287 861 115 287 862 148 287 863 148 288 864 115 288 865 114 288 866 148 289 867 114 289 868 149 289 869 149 290 870 114 290 871 150 290 872 149 291 873 150 291 874 151 291 875 150 292 876 114 292 877 141 292 878 150 293 879 141 293 880 152 293 881 152 294 882 141 294 883 124 294 884 125 295 885 127 295 886 153 295 887 145 296 888 154 296 889 155 296 890 145 297 891 155 297 892 144 297 893 154 298 894 145 298 895 156 298 896 156 299 897 145 299 898 147 299 899 154 300 900 156 300 901 157 300 902 154 301 903 157 301 904 158 301 905 157 302 906 156 302 907 159 302 908 158 303 909 157 303 910 160 303 911 160 304 912 157 304 913 161 304 914 161 305 915 157 305 916 159 305 917 160 306 918 161 306 919 162 306 920 162 307 921 161 307 922 159 307 923 162 308 924 159 308 925 163 308 926 164 309 927 153 309 928 155 309 929 153 310 930 164 310 931 126 310 932 164 311 933 155 311 934 165 311 935 164 312 936 165 312 937 166 312 938 165 313 939 155 313 940 154 313 941 155 314 942 153 314 943 167 314 944 155 315 945 167 315 946 144 315 947 144 316 948 167 316 949 168 316 950 168 317 951 167 317 952 153 317 953 168 318 954 153 318 955 127 318 956 126 319 957 125 319 958 153 319 959 122 320 960 126 320 961 124 320 962 150 321 963 152 321 964 151 321 965 151 322 966 152 322 967 169 322 968 151 323 969 169 323 970 170 323 971 126 324 972 152 324 973 124 324 974 152 325 975 126 325 976 169 325 977 170 326 978 169 326 979 171 326 980 169 327 981 126 327 982 166 327 983 166 328 984 126 328 985 164 328 986 171 329 987 169 329 988 172 329 989 172 330 990 169 330 991 166 330 992 172 331 993 166 331 994 173 331 995 173 332 996 166 332 997 165 332 998 171 333 999 172 333 1000 174 333 1001 174 334 1002 172 334 1003 173 334 1004 171 335 1005 174 335 1006 175 335 1007 174 336 1008 173 336 1009 176 336 1010 175 337 1011 174 337 1012 177 337 1013 174 338 1014 176 338 1015 178 338 1016 177 339 1017 174 339 1018 179 339 1019 179 340 1020 174 340 1021 178 340 1022 179 341 1023 178 341 1024 180 341 1025 181 342 1026 147 342 1027 148 342 1028 147 343 1029 181 343 1030 182 343 1031 168 344 1032 127 344 1033 144 344 1034 183 345 1035 160 345 1036 162 345 1037 160 346 1038 183 346 1039 184 346 1040 183 347 1041 162 347 1042 185 347 1043 185 348 1044 162 348 1045 186 348 1046 185 349 1047 186 349 1048 187 349 1049 183 350 1050 185 350 1051 188 350 1052 188 351 1053 185 351 1054 187 351 1055 184 352 1056 183 352 1057 189 352 1058 189 353 1059 183 353 1060 188 353 1061 184 354 1062 189 354 1063 190 354 1064 184 355 1065 190 355 1066 191 355 1067 189 356 1068 188 356 1069 192 356 1070 192 357 1071 188 357 1072 187 357 1073 190 358 1074 189 358 1075 193 358 1076 193 359 1077 189 359 1078 192 359 1079 192 360 1080 187 360 1081 194 360 1082 192 361 1083 194 361 1084 193 361 1085 194 362 1086 187 362 1087 195 362 1088 194 363 1089 195 363 1090 196 363 1091 196 364 1092 195 364 1093 197 364 1094 196 365 1095 197 365 1096 198 365 1097 196 366 1098 198 366 1099 199 366 1100 196 367 1101 199 367 1102 200 367 1103 193 368 1104 194 368 1105 201 368 1106 201 369 1107 194 369 1108 196 369 1109 201 370 1110 196 370 1111 200 370 1112 193 371 1113 201 371 1114 190 371 1115 201 372 1116 200 372 1117 202 372 1118 201 373 1119 202 373 1120 190 373 1121 190 374 1122 202 374 1123 178 374 1124 159 375 1125 156 375 1126 182 375 1127 182 376 1128 156 376 1129 147 376 1130 159 377 1131 182 377 1132 163 377 1133 163 378 1134 182 378 1135 203 378 1136 203 379 1137 182 379 1138 204 379 1139 170 380 1140 203 380 1141 204 380 1142 162 381 1143 163 381 1144 203 381 1145 162 382 1146 203 382 1147 205 382 1148 205 383 1149 203 383 1150 206 383 1151 206 384 1152 203 384 1153 170 384 1154 205 385 1155 206 385 1156 175 385 1157 175 386 1158 206 386 1159 171 386 1160 171 387 1161 206 387 1162 170 387 1163 207 388 1164 170 388 1165 204 388 1166 170 389 1167 207 389 1168 151 389 1169 151 390 1170 207 390 1171 149 390 1172 207 391 1173 204 391 1174 208 391 1175 207 392 1176 208 392 1177 149 392 1178 208 393 1179 204 393 1180 181 393 1181 208 394 1182 181 394 1183 149 394 1184 181 395 1185 204 395 1186 182 395 1187 149 396 1188 181 396 1189 148 396 1190 209 397 1191 165 397 1192 154 397 1193 209 398 1194 154 398 1195 158 398 1196 165 399 1197 209 399 1198 176 399 1199 165 400 1200 176 400 1201 173 400 1202 176 401 1203 209 401 1204 210 401 1205 210 402 1206 209 402 1207 158 402 1208 176 403 1209 210 403 1210 178 403 1211 178 404 1212 210 404 1213 190 404 1214 190 405 1215 210 405 1216 191 405 1217 191 406 1218 210 406 1219 184 406 1220 184 407 1221 210 407 1222 158 407 1223 184 408 1224 158 408 1225 160 408 1226 205 409 1227 175 409 1228 211 409 1229 211 410 1230 175 410 1231 177 410 1232 205 411 1233 211 411 1234 162 411 1235 211 412 1236 177 412 1237 212 412 1238 212 413 1239 177 413 1240 213 413 1241 212 414 1242 213 414 1243 214 414 1244 211 415 1245 212 415 1246 215 415 1247 211 416 1248 215 416 1249 162 416 1250 215 417 1251 212 417 1252 214 417 1253 162 418 1254 215 418 1255 186 418 1256 186 419 1257 215 419 1258 187 419 1259 187 420 1260 215 420 1261 214 420 1262 187 421 1263 214 421 1264 216 421 1265 187 422 1266 216 422 1267 195 422 1268 195 423 1269 216 423 1270 197 423 1271 197 424 1272 216 424 1273 217 424 1274 197 425 1275 217 425 1276 218 425 1277 178 426 1278 202 426 1279 180 426 1280 180 427 1281 202 427 1282 219 427 1283 180 428 1284 219 428 1285 214 428 1286 214 429 1287 219 429 1288 216 429 1289 180 430 1290 214 430 1291 213 430 1292 180 431 1293 213 431 1294 179 431 1295 179 432 1296 213 432 1297 177 432 1298 202 433 1299 220 433 1300 219 433 1301 220 434 1302 202 434 1303 200 434 1304 219 435 1305 220 435 1306 221 435 1307 219 436 1308 221 436 1309 216 436 1310 216 437 1311 221 437 1312 217 437 1313 217 438 1314 221 438 1315 222 438 1316 198 439 1317 197 439 1318 223 439 1319 223 440 1320 197 440 1321 218 440 1322 223 441 1323 218 441 1324 224 441 1325 224 442 1326 218 442 1327 225 442 1328 224 443 1329 225 443 1330 226 443 1331 226 444 1332 225 444 1333 218 444 1334 224 445 1335 226 445 1336 227 445 1337 227 446 1338 226 446 1339 228 446 1340 228 447 1341 226 447 1342 229 447 1343 226 448 1344 218 448 1345 230 448 1346 230 449 1347 218 449 1348 231 449 1349 230 450 1350 231 450 1351 226 450 1352 226 451 1353 231 451 1354 232 451 1355 226 452 1356 232 452 1357 229 452 1358 232 453 1359 231 453 1360 222 453 1361 229 454 1362 232 454 1363 233 454 1364 233 455 1365 232 455 1366 222 455 1367 199 456 1368 198 456 1369 234 456 1370 199 457 1371 234 457 1372 200 457 1373 200 458 1374 234 458 1375 235 458 1376 200 459 1377 235 459 1378 236 459 1379 200 460 1380 236 460 1381 237 460 1382 200 461 1383 237 461 1384 238 461 1385 200 462 1386 238 462 1387 220 462 1388 238 463 1389 237 463 1390 239 463 1391 217 464 1392 231 464 1393 218 464 1394 231 465 1395 217 465 1396 222 465 1397 198 466 1398 240 466 1399 223 466 1400 241 467 1401 227 467 1402 242 467 1403 242 468 1404 227 468 1405 228 468 1406 241 469 1407 242 469 1408 238 469 1409 222 470 1410 221 470 1411 233 470 1412 233 471 1413 221 471 1414 243 471 1415 233 472 1416 243 472 1417 229 472 1418 243 473 1419 221 473 1420 220 473 1421 220 474 1422 238 474 1423 244 474 1424 220 475 1425 244 475 1426 229 475 1427 220 476 1428 229 476 1429 243 476 1430 229 477 1431 244 477 1432 228 477 1433 228 478 1434 244 478 1435 245 478 1436 246 479 1437 234 479 1438 198 479 1439 246 480 1440 198 480 1441 240 480 1442 234 481 1443 246 481 1444 247 481 1445 234 482 1446 247 482 1447 235 482 1448 235 483 1449 247 483 1450 236 483 1451 236 484 1452 247 484 1453 237 484 1454 237 485 1455 247 485 1456 239 485 1457 239 486 1458 247 486 1459 246 486 1460 239 487 1461 246 487 1462 238 487 1463 238 488 1464 246 488 1465 241 488 1466 241 489 1467 246 489 1468 227 489 1469 227 490 1470 246 490 1471 248 490 1472 248 491 1473 246 491 1474 240 491 1475 227 492 1476 248 492 1477 224 492 1478 248 493 1479 240 493 1480 249 493 1481 248 494 1482 249 494 1483 224 494 1484 224 495 1485 249 495 1486 223 495 1487 250 496 1488 228 496 1489 242 496 1490 238 497 1491 244 497 1492 245 497 1493 240 498 1494 223 498 1495 249 498 1496 250 499 1497 228 499 1498 251 499 1499 251 500 1500 228 500 1501 245 500 1502 250 501 1503 251 501 1504 252 501 1505 252 502 1506 251 502 1507 245 502 1508 238 503 1509 242 503 1510 250 503 1511 238 504 1512 250 504 1513 245 504 1514 245 505 1515 250 505 1516 252 505 1517</p>
        </polylist>
      </mesh>
    </geometry>
  </library_geometries>
  <library_visual_scenes>
    <visual_scene id="Scene" name="Scene">
      <node id="Rope" name="Rope" type="NODE">
        <scale sid="scale">1 1 1</scale>
        <translate sid="location">0 0 0</translate>
        <rotate sid="rotationX">1 0 0 0</rotate>
        <rotate sid="rotationY">0 1 0 -90</rotate>
        <rotate sid="rotationZ">0 0 1 0</rotate>
        <instance_geometry url="#Rope-mesh" name="Rope">
          <bind_material>
            <technique_common>
            </technique_common>
          </bind_material>
        </instance_geometry>
      </node>
    </visual_scene>
  </library_visual_scenes>
  <scene>
    <instance_visual_scene url="#Scene"/>
  </scene>
</COLLADA>
