<?xml version="1.0" encoding="utf-8"?>
<COLLADA xmlns="http://www.collada.org/2005/11/COLLADASchema" version="1.4.1" xmlns:xsi="http://www.w3.org/2001/XMLSchema-instance">
  <asset>
    <contributor>
      <author>Blockbench user</author>
      <authoring_tool>Blockbench</authoring_tool>
    </contributor>
    <created>2025-12-06T02:22:30.729Z</created>
    <modified>2025-12-06T02:22:30.752Z</modified>
    <unit name="meter" meter="1.0"/>
    <up_axis>Y_UP</up_axis>
  </asset>
  <library_effects>
  </library_effects>
  <library_images>
  </library_images>
  <library_materials>
  </library_materials>
  <library_geometries>
    <geometry id="Salmon-mesh" name="Salmon">
      <mesh>
        <source id="Salmon-mesh-positions">
          <float_array id="Salmon-mesh-positions-array" count="756">-0.150192 -0.232178 -0.209717 -0.093369 -0.23851 -0.216736 -0.125473 -0.255524 -0.215256 -0.095924 -0.122269 -0.171097 -0.159531 -0.182709 -0.191971 -0.113121 -0.104614 -0.160156 -0.09362 -0.114601 -0.140869 -0.013374 -0.134491 -0.187195 -0.062691 -0.11734 -0.095467 0.014518 -0.112183 -0.134186 0.064545 -0.140854 -0.212952 0.040184 -0.075554 -0.110046 0.076752 -0.12439 -0.164642 -0.076584 -0.138977 -0.185608 -0.007398 -0.128983 -0.209076 0.018906 -0.117699 -0.255035 -0.217682 -0.071991 -0.083099 -0.09803 -0.073341 -0.238678 -0.102119 -0.104141 -0.052299 -0.172104 -0.10083 -0.038692 -0.216461 -0.084305 -0.021473 -0.361511 -0.017157 0.062397 -0.300079 -0.01993 -0.045223 -0.251953 0.004295 -0.121857 -0.338898 0.070686 -0.0406 -0.231903 0.050446 -0.158096 -0.083229 -0.113388 -0.080688 -0.045483 -0.170593 -0.058334 -0.021358 -0.194321 -0.083 -0.034538 -0.150757 -0.118996 -0.082329 -0.015543 -0.266754 -0.07505 -0.068314 -0.259216 -0.00634 -0.068489 -0.287079 0.082352 -0.074608 -0.290649 0.116501 -0.105537 -0.261139 -0.025679 0.002193 -0.290741 0.078773 -0.011219 -0.303101 -0.10923 0.062241 -0.244034 -0.055233 0.125168 -0.244278 -0.189514 0.136551 -0.169876 -0.127594 0.190826 -0.151505 -0.433167 0.034985 0.111214 -0.461365 0.114342 0.169693 -0.346161 0.139114 -0.01196 -0.463379 0.01667 0.18042 -0.439972 -0.002153 0.186874 -0.32373 -0.041168 0.122162 -0.411804 -0.001634 0.195801 -0.285187 -0.041656 0.117584 -0.18541 -0.069855 0.058628 -0.164764 -0.069496 0.042217 -0.226013 -0.053986 0.088898 -0.081711 -0.11351 -0.063469 -0.023338 -0.050426 -0.044914 -0.187729 -0.115196 0.096573 -0.147339 -0.093216 0.056705 -0.21965 -0.09272 0.101082 -0.073868 -0.028603 0.019632 -0.192688 0.011133 0.132614 -0.159561 0.016523 0.112274 -0.26123 -0.064262 0.110428 -0.261108 -0.081131 0.114647 -0.266052 0.02603 0.183517 -0.161682 0.071777 0.134995 -0.06337 0.047981 0.044315 -0.195297 0.098175 -0.36261 -0.186981 0.060841 -0.369049 -0.186752 0.132935 -0.281677 -0.189209 0.038513 -0.361511 -0.183105 0.1026 -0.276855 -0.185181 0.133362 -0.29187 -0.192459 0.141357 -0.349457 -0.131439 0.179413 -0.205261 -0.171997 0.163849 -0.278259 -0.188049 0.163025 -0.362488 -0.129166 0.203568 -0.21701 -0.167908 0.194016 -0.296112 -0.193726 0.152603 -0.30835 -0.134872 0.194214 -0.206345 -0.180984 0.187302 -0.30307 -0.256042 0.123917 -0.120262 -0.216156 0.178665 -0.11467 -0.277954 0.201904 -0.022194 -0.23317 0.240082 0.009383 -0.167389 0.240997 -0.024195 -0.06337 0.209656 -0.118599 -0.089653 0.194489 -0.156998 -0.405579 0.170029 0.115593 -0.217346 0.247452 0.171158 -0.176697 0.211838 0.148575 -0.058395 0.20137 -0.046909 -0.228104 0.262421 0.104332 -0.013024 0.148346 -0.040707 0.011974 0.089928 -0.030134 -0.147369 0.166519 0.141464 -0.342255 0.031872 0.214706 -0.32077 0.041965 0.212769 -0.228928 0.043228 0.175995 -0.249084 0.051174 0.206161 -0.311951 0.070534 0.240494 -0.230301 0.089577 0.219269 -0.399078 0.228455 0.207443 -0.43457 0.188583 0.198334 -0.47345 0.138275 0.238129 -0.459778 0.168945 0.264374 -0.483765 0.066467 0.224777 -0.486786 0.114166 0.273071 -0.481293 0.169159 0.302704 -0.4776 0.053284 0.263306 -0.499664 0.169785 0.368805 -0.46875 0.094025 0.300507 -0.418823 0.049793 0.24028 -0.425354 0.115936 0.294983 -0.332794 0.096634 0.280518 -0.493927 0.199783 0.362854 -0.418396 0.158707 0.313416 -0.431274 0.154404 0.285187 -0.336884 0.253815 0.184174 -0.416992 0.246124 0.328278 -0.318756 0.264465 0.278473 -0.374756 0.255615 0.362061 -0.247482 0.243515 0.257812 -0.301086 0.23111 0.349274 -0.369415 0.235107 0.382202 -0.189774 0.207016 0.195343 -0.365601 0.218658 0.371155 -0.231949 0.188263 0.259094 -0.184845 0.139969 0.191818 -0.265015 0.214828 0.292755 -0.222214 0.105278 0.226486 -0.310089 0.213882 0.344543 -0.31076 0.191238 0.322906 -0.255676 0.138077 0.266815 -0.285431 0.132446 0.284821 -0.349426 0.168472 0.320801 -0.454041 0.206299 0.2883 -0.422058 0.22438 0.367889 -0.408112 0.189087 0.337372 -0.273407 -0.089584 0.126892 -0.21167 -0.123268 0.1092 -0.212204 -0.104454 0.114685 -0.158813 0.000463 0.119774 -0.111359 0.021547 0.114182 -0.207001 0.025198 0.148117 -0.102226 0.017935 0.105385 -0.044739 0.002522 0.111061 0.034126 0.033653 0.073433 -0.209778 0.060505 0.188202 -0.150665 0.10495 0.149323 -0.141556 0.122574 0.132309 0.00842 0.049965 0.060425 0.14299 -0.121292 -0.198456 0.209137 -0.036129 -0.271515 0.214279 -0.073814 -0.255676 0.298828 -0.052975 -0.230408 0.222687 -0.099068 -0.217941 0.362305 -0.067924 -0.175674 0.171249 -0.125595 -0.206757 0.134979 -0.09153 -0.162155 0.22998 -0.096863 -0.210876 0.195206 -0.156891 -0.198807 0.235001 -0.183838 -0.176468 0.301147 -0.148453 -0.171738 0.097633 -0.011049 -0.100883 0.25531 -0.055901 -0.146774 0.160553 -0.022562 -0.125015 0.246231 -0.020945 -0.124557 0.036831 0.058743 -0.293274 0.014023 0.124077 -0.256073 0.111778 0.093315 -0.277405 0.161713 0.036098 -0.289642 0.104912 0.134521 -0.234192 0.228363 0.078262 -0.25705 0.213516 0.100708 -0.239075 0.183182 0.096832 -0.193008 0.043758 0.154968 -0.123917 0.173798 0.044704 -0.131317 0.134995 0.059277 -0.118111 0.007329 -0.002553 -0.043919 0.263153 0.031006 -0.262268 0.325562 -0.079033 -0.176727 0.264587 0.030762 -0.129013 0.341766 -0.031292 -0.09507 0.353241 0.028513 -0.093971 0.374481 -0.128632 -0.120529 0.340515 -0.124382 -0.139511 0.362152 -0.075722 -0.147766 0.425018 -0.063126 -0.100128 0.374573 -0.16713 -0.077042 0.411102 -0.116364 -0.087227 0.441376 -0.122757 -0.044182 0.429688 -0.167511 -0.020868 0.411438 -0.109055 -0.100426 0.449677 -0.13092 -0.037914 0.415649 -0.065765 -0.118675 0.459229 -0.036449 -0.099571 0.398743 -0.036957 -0.17067 0.373108 0.042206 -0.201187 0.447357 0.032978 -0.121063 0.470337 0.054394 -0.018671 0.459839 0.061287 -0.043564 0.494171 0.014985 -0.034264 0.485596 -0.033318 -0.034977 0.423462 -0.000567 -0.149719 0.381561 0.068092 -0.16069 0.409943 0.064148 -0.112022 0.298889 0.07193 -0.217804 0.294495 0.145523 -0.229279 0.291687 0.072052 -0.211624 0.285034 0.066849 -0.184875 0.369293 0.175674 -0.203079 0.359375 0.115112 -0.203949 0.410309 0.105972 -0.172791 0.439728 0.117889 -0.150833 0.3573 0.119179 -0.199097 0.415619 0.108452 -0.16066 0.374054 0.06797 -0.160065 0.410339 -0.023684 -0.047531 0.451874 -0.057781 -0.051701 0.461578 -0.046951 -0.007035 0.462158 -0.09211 -0.01225 0.462402 -0.126221 -0.001348 0.448456 -0.079445 -0.066742 0.378754 -0.007277 -0.065239 0.398407 0.030691 -0.0606 0.403595 0.021952 0.000213 0.443939 0.037811 -0.022726 0.449127 -0.019218 0.018179 0.464111 0.08165 0.005179 0.471069 -0.050449 0.077065 0.497589 -0.023878 0.06514 0.474762 -0.083199 0.142456 0.478851 -0.059814 0.143372 0.498962 0.021976 0.079735 0.473145 0.044994 0.075935 0.47583 0.038857 0.143646 0.457977 0.02697 0.065353 0.472473 -0.007488 0.163345 0.470795 0.040718 0.155182 0.4758 -0.036644 0.180008 0.470245 -0.089058 0.178635 0.463135 -0.069084 0.262451 0.467834 -0.119621 0.239502 0.460236 -0.014339 0.227386 0.479309 -0.001276 0.156082 0.475891 0.025938 0.180359 0.463989 0.082161 0.194916 0.4534 0.09668 0.209686 0.426178 0.118103 0.274353 0.451782 0.057579 0.266632 0.449768 0.043995 0.261902 0.474945 0.009424 0.16835</float_array>
          <technique_common>
            <accessor source="#Salmon-mesh-positions-array" count="252" stride="3">
              <param name="X" type="float"/>
              <param name="Y" type="float"/>
              <param name="Z" type="float"/>
            </accessor>
          </technique_common>
        </source>
        <source id="Salmon-mesh-normals">
          <float_array id="Salmon-mesh-normals-array" count="1506">-0.108633 0.119132 -0.986918 0.228129 -0.351479 0.907976 -0.069938 -0.299786 0.951439 0.01014 -0.335947 0.941826 0.120784 -0.435241 0.892175 -0.618321 -0.749276 0.237199 0.126922 -0.36009 0.924243 -0.09358 -0.963322 0.251501 -0.198268 -0.977188 0.076114 0.205757 -0.93599 0.285633 0.045467 -0.929083 0.367066 0.365531 -0.67707 0.63872 0.231137 -0.643101 0.730066 -0.082436 0.310105 -0.947122 -0.045539 0.305162 -0.951211 -0.096368 0.319921 -0.942531 0.063258 -0.971759 -0.22734 -0.175144 0.458934 -0.871036 -0.344834 0.293692 -0.891535 -0.384399 -0.821252 -0.421642 -0.528348 -0.748983 -0.39984 -0.367221 -0.923943 -0.107131 -0.024639 -0.99307 0.114916 -0.393821 -0.901182 -0.181043 -0.401779 -0.899482 -0.171772 -0.489943 -0.85667 -0.161471 -0.607771 -0.723073 -0.328299 -0.615686 -0.633956 -0.468008 -0.671543 -0.472216 -0.571001 -0.763247 -0.297713 -0.573429 -0.742351 -0.183488 -0.644397 -0.341515 -0.936647 0.077846 -0.740125 -0.603937 -0.295761 -0.15614 -0.986623 0.046846 -0.781863 -0.592139 -0.195093 -0.569268 0.095377 -0.816601 -0.73461 -0.550249 -0.396957 -0.663778 -0.261774 -0.700623 -0.631073 -0.193475 -0.751209 -0.629709 -0.194298 -0.75214 -0.358566 -0.731301 -0.580198 -0.373292 -0.834985 -0.404292 -0.369969 -0.181192 -0.911204 -0.295285 -0.623103 -0.724258 -0.07227 -0.570022 -0.818445 0.036808 -0.668275 -0.743003 0.070912 -0.839451 -0.538789 -0.34757 -0.143107 -0.926669 -0.127984 -0.086206 -0.988023 -0.418363 0.118351 -0.900536 -0.316255 0.267846 -0.910078 -0.575854 0.039368 -0.816604 -0.576163 0.174397 -0.798513 -0.427668 0.363768 -0.82751 -0.337669 0.623815 -0.704865 -0.775629 -0.304053 -0.553129 -0.854937 0.074509 -0.513352 -0.845374 0.127395 -0.518762 -0.699862 -0.60229 -0.383979 -0.70533 -0.54579 -0.452353 -0.560976 -0.786334 -0.258816 -0.379111 -0.916385 -0.128505 -0.101435 -0.921999 0.373668 0.05083 -0.853318 0.518908 -0.452566 -0.888898 -0.071027 -0.33896 -0.940345 0.029267 -0.062265 -0.953479 0.29496 0.274477 -0.904822 0.325514 0.618465 0.094337 0.780129 0.025659 -0.932987 0.358994 -0.374327 -0.922901 0.090188 0.47045 -0.620006 0.627909 0.455669 0.499317 0.736918 0.436552 -0.600208 0.670204 0.514223 -0.481114 0.710003 0.449564 -0.678254 0.58126 0.548596 -0.161235 0.820393 0.446907 0.680518 0.580663 -0.409613 -0.611838 -0.676662 0.35688 -0.639663 0.680785 0.346901 -0.638643 0.686873 0.636643 -0.272251 0.721502 0.599792 -0.318761 0.733922 -0.947044 -0.246451 0.205839 -0.994995 0.078342 -0.062035 0.995145 -0.098381 0.002724 -0.985031 -0.095627 0.143417 0.93238 0.252327 -0.258843 0.997502 0.038366 -0.059314 0.991322 -0.025895 -0.128881 0.874868 -0.1635 -0.455932 0.930008 -0.329294 -0.163254 0.875768 -0.178477 -0.448527 0.938572 -0.296848 -0.175965 0.862449 -0.284705 -0.418478 0.955042 -0.2358 -0.179701 0.859759 -0.341344 -0.379867 -0.978512 -0.13072 0.159455 -0.99526 0.08155 -0.052986 -0.808949 -0.003809 0.587867 -0.763609 -0.130806 0.632291 -0.879859 0.242383 0.408778 -0.924755 0.35886 -0.126679 -0.878349 0.261671 0.400039 -0.976101 0.215507 0.02801 -0.659646 0.703611 0.264195 -0.284098 0.898924 -0.333502 -0.513398 0.845045 0.149404 -0.725094 0.111695 -0.679531 -0.609875 0.195155 -0.768093 -0.579314 0.488685 -0.652367 -0.367172 0.645556 -0.669658 -0.372056 0.810545 -0.452318 -0.304441 0.836379 -0.455835 -0.225289 0.880371 -0.417363 -0.072383 0.919997 -0.385183 -0.327428 0.93941 0.101491 -0.969469 -0.216419 0.115291 -0.57827 0.741272 0.340764 0.831792 -0.03967 -0.553668 0.760892 -0.340323 -0.552471 0.122522 -0.972571 0.197724 -0.16586 0.739322 -0.652606 -0.741259 0.190681 -0.643565 -0.6226 0.513869 -0.590177 -0.608681 0.571489 -0.550371 -0.640624 0.622655 -0.449335 0.719399 0.564198 0.40515 0.435729 0.890731 0.129377 0.680941 0.626933 0.378516 0.752536 0.414624 0.511642 0.75293 0.405984 0.517951 0.718153 -0.059342 0.693351 -0.126164 0.967123 -0.220807 0.253778 0.966385 -0.041203 0.398287 0.913939 0.077994 0.196316 -0.758268 0.621683 0.300242 -0.481051 0.823677 0.348685 -0.377469 0.857867 0.150803 -0.926481 0.344805 0.154611 -0.712218 0.684719 0.320905 -0.442735 0.837261 -0.91366 -0.025713 -0.405665 -0.809349 0.359795 -0.464222 -0.647971 0.662603 -0.375621 -0.852779 0.35902 -0.379306 -0.806164 0.499568 -0.317065 -0.839603 0.516971 -0.166754 -0.918478 -0.024411 -0.394717 -0.955863 0.180425 -0.231891 -0.953944 0.18145 -0.238888 -0.952776 0.212215 -0.217215 -0.920904 -0.389535 0.014071 -0.981257 -0.164225 0.10082 -0.988693 -0.140981 -0.051091 -0.647267 -0.732091 0.21234 -0.013732 -0.672604 0.739875 0.20633 -0.740993 0.639028 0.230922 -0.68295 0.693003 -0.217196 -0.655339 0.723434 0.379406 -0.567133 0.731035 0.103191 -0.642579 0.759239 -0.012727 -0.638013 0.769921 0.064637 -0.715909 0.695195 0.37843 -0.68638 0.621027 0.319703 -0.708855 0.62874 0.367247 -0.535649 0.760401 0.706663 0.005213 0.707531 -0.96661 0.142627 -0.21289 0.327082 -0.418384 0.847332 -0.907041 0.266324 -0.326109 0.216715 0.887625 -0.406395 0.19821 0.951458 -0.235456 0.336806 0.923441 0.183897 -0.676224 0.629259 -0.383084 -0.602238 0.692208 -0.39769 -0.461066 0.82045 -0.338055 -0.461024 0.820488 -0.338017 -0.230182 0.949949 -0.211217 -0.431488 0.881268 -0.192832 -0.140063 0.986531 -0.084492 -0.216492 0.973887 -0.068371 0.322823 0.933331 0.157096 -0.197402 0.979908 -0.028501 0.319374 0.935105 0.153555 0.715743 0.640637 0.278023 0.348884 0.878365 0.326734 0.352272 0.877481 0.325472 0.341976 0.702277 0.624388 0.703634 0.659405 0.264734 0.363535 -0.459823 0.810188 0.778341 0.232349 0.583266 0.829287 0.031633 0.557927 0.779264 0.232577 0.581941 0.85173 0.104792 0.513395 0.596026 -0.232124 0.768681 0.363113 -0.418378 0.832531 0.658257 -0.498819 0.563806 0.27387 -0.668664 0.691291 0.749224 -0.128433 0.649745 0.067309 -0.690323 0.720364 0.696136 -0.152401 0.701547 0.535165 -0.284655 0.795343 0.529874 -0.387179 0.754537 0.224081 -0.460022 0.859167 0.24625 -0.430041 0.868577 0.38897 -0.598575 0.700293 0.402051 -0.545202 0.735602 0.327945 -0.704047 0.629897 -0.916124 0.306339 -0.258597 -0.684193 0.673146 -0.280632 -0.607384 0.768199 -0.202375 -0.91318 -0.11094 0.392167 -0.809301 0.552395 0.199726 -0.478267 0.794216 0.374809 -0.320998 0.619742 0.716157 -0.658789 -0.53653 0.527383 -0.10498 -0.571107 0.814135 -0.374952 -0.686682 0.6228 -0.110598 -0.674704 0.729755 0.103766 -0.809447 0.577952 -0.908316 -0.021908 0.417711 0.145766 -0.333685 0.931347 0.003766 -0.619976 0.784612 -0.043373 -0.389448 0.920027 0.036179 -0.482394 0.875207 -0.501452 -0.583603 -0.638712 0.117844 0.217151 0.968999 0.246129 0.24273 0.938351 -0.147502 -0.045339 -0.988022 -0.439407 -0.555853 -0.705654 0.387293 0.242673 0.889446 -0.158428 -0.928275 0.336463 -0.360176 -0.308788 -0.880297 0.574008 0.748692 0.331625 -0.427833 -0.535097 -0.728444 0.628059 0.740905 -0.23791 0.582856 0.745263 0.323824 0.462106 0.217575 0.85972 0.141792 -0.769179 0.623104 0.191659 -0.707934 0.679777 0.472184 0.438834 0.764505 -0.432105 -0.398035 -0.80923 0.247968 -0.315138 0.916078 0.249515 -0.591339 0.766851 0.46832 -0.394727 0.790485 0.411855 -0.582565 0.70071 -0.055642 -0.521159 -0.851644 -0.100784 -0.652491 -0.751065 0.07407 0.096544 0.992569 0.188784 0.524914 0.829955 0.402824 -0.782248 0.475206 0.663929 -0.274594 0.695555 0.456328 -0.47912 0.749806 0.635317 -0.767101 0.089038 0.667633 -0.213752 0.713145 0.783853 -0.542553 0.30201 0.748607 -0.164553 0.642269 0.792721 0.035244 0.608566 0.795155 0.026605 0.605823 0.825179 0.489881 0.281241 0.874987 0.014929 0.483917 0.392049 -0.735753 -0.552236 0.726773 -0.046629 0.685293 0.634361 -0.212028 0.743391 0.567097 -0.182213 0.803243 0.593583 -0.377264 0.710867 0.538711 -0.302638 0.786258 -0.08429 0.937221 -0.338395 -0.075417 0.892477 -0.444743 -0.097674 -0.42484 -0.899984 -0.445711 0.564694 -0.694595 -0.170982 -0.929733 -0.32613 -0.170977 -0.943404 -0.284175 -0.02468 -0.944333 0.328064 0.184495 -0.943589 0.274956 -0.052897 -0.195359 -0.979304 0.199454 -0.178026 -0.9636 0.242213 -0.347657 -0.905797 0.343285 -0.323729 -0.881677 0.219376 -0.535754 -0.815378 0.281169 -0.767401 -0.576229 0.339967 -0.744793 -0.5742 0.220841 -0.884781 -0.410356 0.252946 -0.965207 -0.066293 -0.264765 0.109466 -0.95808 0.3576 -0.681946 0.638021 0.290655 -0.707489 0.644189 0.221605 -0.320979 0.920795 -0.604784 -0.272905 0.748171 -0.059221 -0.288122 -0.955761 0.226459 -0.401309 -0.887506 -0.111168 0.360031 0.926293 0.271918 -0.390748 -0.879418 -0.248699 0.343861 0.905488 0.306117 -0.598464 0.74036 0.371947 -0.446838 0.813629 0.194119 -0.859628 0.472607 0.031092 -0.482817 0.875169 0.005589 -0.535356 0.844608 0.21956 -0.524426 0.82266 -0.107723 0.074671 -0.991373 -0.28788 0.277161 -0.916683 -0.14288 0.451594 -0.880709 -0.097406 0.760278 -0.642254 -0.038333 0.484305 -0.874059 0.07732 0.272585 -0.95902 0.037367 0.832596 -0.552619 0.080362 0.727719 -0.681152 0.208283 0.724157 -0.65743 0.18157 0.685065 -0.705491 0.106943 0.897562 -0.427722 0.297159 0.915069 0.272664 0.456371 0.885335 0.088927 0.408382 0.910995 0.057557 0.456319 0.886991 0.070853 0.636862 0.601373 0.482449 0.541872 0.599527 0.589018 0.736924 0.412294 0.535683 0.538911 0.595588 0.595692 -0.421371 -0.859329 -0.289828 0.550096 -0.150081 0.821505 0.527211 -0.072691 0.84662 0.06016 0.174123 -0.982884 0.215791 -0.10203 -0.971094 0.256387 -0.073538 -0.963773 0.381252 -0.181906 -0.906398 0.26272 0.294859 -0.918714 0.206125 0.373338 -0.904506 -0.040584 -0.834601 0.549358 -0.006991 0.088321 0.996068 -0.010619 0.095346 0.995388 0.360659 0.016353 0.932554 0.338644 0.050259 0.939571 -0.298495 -0.565961 0.768498 -0.272526 0.178228 0.945497 -0.365908 0.053134 0.929133 0.398068 -0.204273 -0.894323 -0.361832 0.192805 0.912088 0.368518 -0.514108 -0.774525 -0.594139 0.384084 0.706738 -0.169861 -0.93168 0.321122 -0.139631 -0.782994 0.606155 -0.26629 -0.785221 0.559033 -0.660399 0.401322 0.634676 0.26692 -0.721305 -0.639119 -0.610902 0.333666 0.717959 -0.484132 0.493344 0.722654 -0.746746 0.334501 0.574874 -0.688499 0.468293 0.553779 -0.59581 0.546745 0.588286 0.557319 -0.621101 -0.551025 0.604604 -0.569358 -0.557033 0.586619 -0.582547 -0.562598 0.756536 -0.315144 -0.573007 0.586157 -0.362472 -0.724593 0.544826 -0.334093 -0.769121 0.287513 -0.928778 -0.233896 0.617652 -0.555193 -0.557016 0.5983 -0.622473 -0.504544 0.285941 -0.920512 -0.266263 0.356495 -0.709961 -0.607345 0.505733 -0.479159 -0.717385 0.525064 -0.152726 -0.837247 0.491389 -0.118591 -0.862829 0.414804 0.395847 -0.819294 0.760042 -0.070038 -0.646089 0.890715 0.361543 -0.275524 0.762901 0.576879 -0.291877 0.880472 0.003802 -0.474084 0.916947 -0.157369 -0.366666 0.607568 -0.765759 -0.210889 0.690859 -0.054207 -0.720955 0.848995 -0.518709 -0.100734 0.735493 0.053095 -0.675449 0.623378 0.593271 -0.509342 0.575847 0.770496 -0.27338 0.542711 0.756985 -0.363922 0.406939 0.66749 -0.623585 0.413693 0.725455 -0.550067 0.386305 0.718599 -0.578259 0.194781 -0.139749 -0.97084 -0.244072 0.235391 0.940755 0.255837 0.934607 0.247098 0.255666 0.935082 0.245474 0.166036 0.740629 0.651077 0.371358 -0.12136 -0.920524 0.240424 -0.025434 -0.970335 0.492823 -0.451688 -0.743709 0.511149 -0.071405 -0.856521 0.372724 -0.526886 -0.763851 0.614458 -0.621554 -0.485913 0.597355 0.003028 -0.801971 0.630138 -0.65284 -0.420387 -0.378582 0.144802 0.914171 -0.496392 0.165442 0.852188 -0.340571 0.231966 0.911155 -0.489512 0.672329 0.555294 -0.468469 0.353822 0.809535 -0.461485 0.437336 0.771861 -0.430723 0.453713 0.780142 -0.601084 0.624495 0.498702 -0.06138 0.982503 0.175842 -0.149382 0.854575 0.49738 -0.162734 0.868899 0.467473 -0.406876 0.83503 0.370374 -0.419908 0.840988 0.341199 0.110875 0.815807 0.567597 0.792859 0.51242 0.329847 0.815178 0.3774 0.439379 0.801472 0.533047 0.271117 0.577226 0.428851 0.694908 0.593966 -0.677301 0.43413 0.368214 -0.688549 0.624755 0.581003 -0.387066 0.715972 0.431107 -0.491443 0.756723 0.638791 -0.422567 0.642949 0.645611 -0.313005 0.696573 0.733635 -0.136087 0.665778 -0.085444 -0.700029 -0.708984 0.126386 0.732559 0.668867 -0.275612 -0.804398 0.526291 -0.560148 -0.730187 0.391232 -0.584753 -0.750091 0.308913 -0.974544 -0.038032 0.220948 -0.856932 0.256841 0.446878 -0.897609 0.128353 0.421691 -0.877793 0.17688 0.445188 -0.796345 0.429713 0.425654 0.962668 -0.076133 -0.259758 0.833403 -0.454047 -0.315088 0.939582 -0.150034 -0.307695 0.788524 -0.24705 -0.563202 0.769631 -0.29799 -0.564685 -0.667659 0.114589 0.735595 -0.548261 -0.172162 0.818395 -0.587654 0.208667 0.781742 -0.603581 -0.617219 0.504709 -0.886283 0.441764 0.139092 0.97797 0.201512 -0.054473 -0.642851 0.042752 0.764797 -0.838018 0.265629 0.476621 -0.494869 0.739798 0.455854 -0.869169 0.478761 -0.123831 -0.482069 0.62743 0.611507 0.812326 -0.542947 -0.212918 0.771857 -0.063146 0.632653 -0.627272 -0.65898 0.41506 -0.880215 -0.467804 0.079878 0.415637 -0.90559 -0.084573 0.703777 -0.710209 -0.01734 0.55403 -0.731411 -0.397604 0.972567 -0.176016 0.152094 0.979815 -0.172449 -0.101112 0.977121 -0.090516 0.19246 0.999019 -0.016879 -0.04095 0.841503 0.535926 -0.068231 0.659973 0.749283 0.05486 0.661488 0.748799 0.041637 -0.986733 0.025267 0.160375 -0.987256 0.029433 0.156395 -0.930184 -0.322348 0.175642 -0.804066 0.560888 0.197187 -0.768453 0.639798 0.011734 -0.540191 0.835691 0.099067 0.261578 -0.601062 0.755183 0.87219 0.419456 -0.251675 -0.995089 -0.081191 0.05662 -0.994019 0.10452 0.031666 -0.98815 0.107595 -0.109464 -0.995694 -0.060806 -0.069973 -0.866776 -0.46378 -0.183325 -0.957759 -0.239988 -0.158442 0.985002 -0.172452 0.005596 0.990585 0.03162 0.133199 0.979894 0.141795 0.140364 0.980264 0.046105 0.192242 0.994367 -0.02986 0.101694 -0.992987 -0.117942 -0.008104 0.970922 -0.058026 0.232259 0.939891 0.17275 0.294556 0.957962 0.08938 0.272618 0.955485 0.193343 0.22286 0.994839 0.096219 0.032206 0.965932 -0.093837 0.241185 0.979521 0.190429 0.065383 0.960519 0.277915 -0.012899 0.714364 0.681709 -0.157978 0.884086 0.401493 0.239155 0.965193 0.1486 0.215224 0.958172 -0.041864 0.283115 0.898367 0.345432 0.271317 0.55972 -0.345293 0.753317 -0.347685 -0.261933 0.900281 -0.989699 -0.01027 0.142795 -0.931591 0.028932 0.362356 -0.967854 0.19018 -0.164593 -0.967622 -0.025029 -0.25116 -0.961556 -0.204591 -0.183173 -0.974794 -0.119516 -0.188393 -0.920433 -0.241325 -0.307516 -0.965068 -0.258519 -0.042567</float_array>
          <technique_common>
            <accessor source="#Salmon-mesh-normals-array" count="502" stride="3">
              <param name="X" type="float"/>
              <param name="Y" type="float"/>
              <param name="Z" type="float"/>
            </accessor>
          </technique_common>
        </source>
        <source id="Salmon-mesh-map-0">
          <float_array id="Salmon-mesh-map-0-array" count="3012">0.344971 0.221191 0.401611 0.190186 0.381348 0.213135 0.381348 0.213135 0.401611 0.190186 0.434082 0.289795 0.381348 0.213135 0.434082 0.289795 0.344971 0.221191 0.344971 0.221191 0.434082 0.289795 0.361328 0.264893 0.361328 0.264893 0.434082 0.289795 0.423584 0.315918 0.423584 0.315918 0.434082 0.289795 0.445068 0.317139 0.434082 0.289795 0.401611 0.190186 0.512695 0.256836 0.434082 0.289795 0.512695 0.256836 0.445068 0.317139 0.445068 0.317139 0.512695 0.256836 0.487061 0.351318 0.487061 0.351318 0.512695 0.256836 0.560303 0.278076 0.560303 0.278076 0.512695 0.256836 0.562988 0.233398 0.487061 0.351318 0.560303 0.278076 0.57959 0.332764 0.57959 0.332764 0.560303 0.278076 0.60498 0.301758 0.224121 0.537842 0.225342 0.638184 0.177246 0.5625 0.177246 0.5625 0.225342 0.638184 0.182861 0.668701 0.225342 0.638184 0.224121 0.537842 0.257812 0.572754 0.182861 0.668701 0.225342 0.638184 0.190674 0.684814 0.225342 0.638184 0.257812 0.572754 0.272461 0.642822 0.225342 0.638184 0.272461 0.642822 0.190674 0.684814 0.190674 0.684814 0.272461 0.642822 0.179443 0.72583 0.471436 0.799805 0.398193 0.869629 0.406982 0.816895 0.471436 0.799805 0.406982 0.816895 0.397949 0.810303 0.409912 0.77002 0.436768 0.760986 0.397949 0.810303 0.397949 0.810303 0.436768 0.760986 0.471436 0.799805 0.471436 0.799805 0.436768 0.760986 0.463623 0.747559 0.471436 0.799805 0.463623 0.747559 0.559326 0.741211 0.471436 0.799805 0.559326 0.741211 0.527344 0.794678 0.471436 0.799805 0.527344 0.794678 0.398193 0.869629 0.398193 0.869629 0.527344 0.794678 0.521729 0.858643 0.521729 0.858643 0.527344 0.794678 0.567139 0.82666 0.521729 0.858643 0.567139 0.82666 0.541748 0.883057 0.567139 0.953369 0.586426 0.974609 0.527588 0.973633 0.586426 0.974609 0.567139 0.953369 0.611328 0.918213 0.567139 0.953369 0.527588 0.973633 0.546875 0.945068 0.611328 0.918213 0.567139 0.953369 0.597168 0.880371 0.567139 0.953369 0.546875 0.945068 0.55127 0.901611 0.567139 0.953369 0.55127 0.901611 0.597168 0.880371 0.865723 0.479248 0.82251 0.479248 0.823975 0.34082 0.15918 0.809814 0.254883 0.755859 0.257324 0.788818 0.257324 0.788818 0.254883 0.755859 0.269531 0.775391 0.257324 0.788818 0.269531 0.775391 0.324219 0.781006 0.257324 0.788818 0.324219 0.781006 0.263428 0.818848 0.269531 0.775391 0.254883 0.755859 0.317139 0.757568 0.269531 0.775391 0.317139 0.757568 0.324219 0.781006 0.324219 0.781006 0.317139 0.757568 0.355469 0.779053 0.324219 0.781006 0.355469 0.779053 0.378418 0.801758 0.324219 0.781006 0.378418 0.801758 0.34668 0.812256 0.317139 0.757568 0.254883 0.755859 0.282227 0.73291 0.317139 0.757568 0.282227 0.73291 0.320801 0.720215 0.282227 0.73291 0.254883 0.755859 0.242188 0.70459 0.282227 0.73291 0.242188 0.70459 0.25708 0.664551 0.849365 0.557129 0.807373 0.515137 0.943848 0.512695 0.849365 0.557129 0.943848 0.512695 0.938477 0.57959 0.849365 0.557129 0.938477 0.57959 0.836914 0.613525 0.836914 0.613525 0.938477 0.57959 0.92749 0.637207 0.181885 0.209961 0.118652 0.338379 0.115479 0.21582 0.115479 0.21582 0.118652 0.338379 0.05835 0.37207 0.115479 0.21582 0.05835 0.37207 0.06665 0.226562 0.118652 0.338379 0.181885 0.209961 0.168945 0.29248 0.118652 0.338379 0.168945 0.29248 0.124756 0.390381 0.124756 0.390381 0.168945 0.29248 0.145508 0.38916 0.145508 0.38916 0.168945 0.29248 0.209717 0.321533 0.145508 0.38916 0.209717 0.321533 0.165283 0.390137 0.165283 0.390137 0.209717 0.321533 0.234375 0.312744 0.426025 0.015381 0.525146 0.087402 0.402832 0.060547 0.089844 0.182129 0.072754 0.203369 0.088867 0.087402 0.088867 0.087402 0.072754 0.203369 0.029785 0.150635 0.029785 0.150635 0.072754 0.203369 0.032959 0.163574 0.029785 0.150635 0.032959 0.163574 0.007568 0.135742 0.032959 0.163574 0.072754 0.203369 0.047119 0.228271 0.032959 0.163574 0.047119 0.228271 0.042725 0.241943 0.032959 0.163574 0.042725 0.241943 0.006104 0.247314 0.999756 0.65625 0.985352 0.687012 0.985352 0.639893 0.762939 0.512695 0.795654 0.559082 0.702881 0.546387 0.702881 0.546387 0.795654 0.559082 0.721191 0.557861 0.795654 0.559082 0.762939 0.512695 0.842773 0.560303 0.98999 0.608887 1 0.581787 0.997559 0.644043 0.498291 0.950684 0.473389 0.951416 0.433838 0.919189 0.473389 0.951416 0.498291 0.950684 0.440918 0.992676 0.933594 0.378906 0.9375 0.463379 0.899414 0.419922 0.899414 0.419922 0.9375 0.463379 0.895508 0.508057 0.242432 0.95166 0.15332 0.95166 0.266357 0.919922 0.266357 0.919922 0.15332 0.95166 0.177246 0.90332 0.905762 0.970703 0.891357 0.92749 0.980469 0.96167 0.980469 0.96167 0.891357 0.92749 0.93335 0.925293 0.93335 0.925293 0.891357 0.92749 0.980713 0.888428 0.93335 0.925293 0.980713 0.888428 0.980469 0.96167 0.827881 0.233887 0.842773 0.285889 0.800537 0.230225 0.800537 0.230225 0.842773 0.285889 0.819336 0.296143 0.842773 0.285889 0.827881 0.233887 0.852295 0.247559 0.819336 0.296143 0.842773 0.285889 0.869873 0.351074 0.842773 0.285889 0.852295 0.247559 0.864502 0.297363 0.842773 0.285889 0.864502 0.297363 0.869873 0.351074 0.864502 0.297363 0.852295 0.247559 0.872314 0.240479 0.869873 0.351074 0.864502 0.297363 0.890869 0.345215 0.864502 0.297363 0.872314 0.240479 0.88916 0.288818 0.864502 0.297363 0.88916 0.288818 0.890869 0.345215 0.188477 0.065186 0.130615 0.063232 0.147217 0.043945 0.188477 0.065186 0.147217 0.043945 0.177002 0.042236 0.122803 0.080566 0.069336 0.033936 0.130615 0.063232 0.130615 0.063232 0.069336 0.033936 0.073242 0.019531 0.130615 0.063232 0.073242 0.019531 0.147217 0.043945 0.177002 0.042236 0.147217 0.043945 0.141113 0.017334 0.141113 0.017334 0.147217 0.043945 0.073242 0.019531 0.177002 0.042236 0.141113 0.017334 0.180908 0.02417 0.141113 0.017334 0.073242 0.019531 0.077393 0.005371 0.180908 0.02417 0.141113 0.017334 0.13623 0.007568 0.13623 0.007568 0.141113 0.017334 0.077393 0.005371 0.816162 0.863525 0.890869 0.946777 0.805908 0.922607 0.816162 0.863525 0.805908 0.922607 0.755371 0.892822 0.755371 0.892822 0.805908 0.922607 0.763428 0.944092 0.300781 0.133057 0.312012 0.195557 0.270264 0.193848 0.19043 0.216553 0.172852 0.173096 0.270264 0.193848 0.270264 0.193848 0.172852 0.173096 0.300781 0.133057 0.300781 0.133057 0.172852 0.173096 0.197021 0.112549 0.300781 0.133057 0.197021 0.112549 0.288086 0.083984 0.300781 0.133057 0.288086 0.083984 0.33252 0.114258 0.300781 0.133057 0.33252 0.114258 0.333252 0.121338 0.33252 0.114258 0.288086 0.083984 0.341797 0.109375 0.341797 0.109375 0.288086 0.083984 0.323242 0.082031 0.341797 0.109375 0.323242 0.082031 0.352539 0.092041 0.352539 0.092041 0.323242 0.082031 0.34375 0.065186 0.788818 0.010986 0.788818 0.079834 0.772705 0.068359 0 0.589355 0.078857 0.589355 0.018799 0.626221 0.000244 0.365967 0.000244 0.266846 0.046631 0.376465 0.046631 0.376465 0.000244 0.266846 0.057617 0.297852 0.89502 0.414307 0.89502 0.286133 0.940918 0.328857 0.394043 0.861572 0.36084 0.876709 0.226318 0.827881 0.394043 0.861572 0.226318 0.827881 0.373535 0.823486 0.569824 0.821045 0.73584 0.776611 0.722168 0.821045 0.73584 0.776611 0.569824 0.821045 0.739746 0.733887 0.739746 0.733887 0.569824 0.821045 0.585205 0.78833 0.739746 0.733887 0.585205 0.78833 0.668701 0.707275 0.827637 0.564697 0.760254 0.632568 0.765381 0.583496 0.760254 0.632568 0.827637 0.564697 0.723877 0.721191 0.723877 0.721191 0.827637 0.564697 0.770752 0.710693 0.458984 0.917236 0.405762 0.910645 0.501709 0.881836 0.458984 0.917236 0.501709 0.881836 0.474854 0.915527 0.474854 0.915527 0.501709 0.881836 0.529297 0.877197 0.474854 0.915527 0.529297 0.877197 0.521484 0.900879 0.474854 0.915527 0.521484 0.900879 0.489014 0.938965 0.489014 0.938965 0.521484 0.900879 0.544189 0.920654 0.657715 0.323242 0.701172 0.342041 0.685547 0.366211 0.651855 0.275146 0.677246 0.216064 0.657715 0.323242 0.60083 0.278076 0.651855 0.275146 0.611328 0.299805 0.611328 0.299805 0.651855 0.275146 0.617676 0.338379 0.617676 0.338379 0.651855 0.275146 0.657715 0.323242 0.611328 0.299805 0.617676 0.338379 0.604736 0.327881 0.657715 0.323242 0.685547 0.366211 0.649414 0.363037 0.657715 0.323242 0.649414 0.363037 0.617676 0.338379 0.617676 0.338379 0.649414 0.363037 0.613281 0.363037 0.617676 0.338379 0.613281 0.363037 0.59375 0.353027 0.649414 0.363037 0.685547 0.366211 0.643311 0.383545 0.649414 0.363037 0.643311 0.383545 0.613281 0.363037 0.613281 0.363037 0.643311 0.383545 0.564697 0.399658 0.643311 0.383545 0.685547 0.366211 0.693848 0.381348 0.564697 0.399658 0.643311 0.383545 0.626709 0.405273 0.643311 0.383545 0.693848 0.381348 0.668701 0.409424 0.643311 0.383545 0.668701 0.409424 0.626709 0.405273 0.668701 0.409424 0.693848 0.381348 0.69751 0.396729 0.626709 0.405273 0.668701 0.409424 0.635986 0.430176 0.668701 0.409424 0.69751 0.396729 0.69458 0.436279 0.635986 0.430176 0.668701 0.409424 0.666016 0.461914 0.666016 0.461914 0.668701 0.409424 0.69458 0.436279 0.666016 0.461914 0.69458 0.436279 0.699951 0.447998 0.666016 0.461914 0.699951 0.447998 0.69165 0.462158 0.372559 0.332275 0.254639 0.412598 0.22876 0.362549 0.372559 0.332275 0.22876 0.362549 0.331299 0.309326 0.372559 0.332275 0.331299 0.309326 0.336426 0.213867 0.331299 0.309326 0.22876 0.362549 0.242188 0.310547 0.336426 0.213867 0.331299 0.309326 0.293213 0.259033 0.293213 0.259033 0.331299 0.309326 0.242188 0.310547 0.293213 0.259033 0.242188 0.310547 0.230957 0.277344 0.293213 0.259033 0.230957 0.277344 0.248535 0.243408 0.293213 0.259033 0.248535 0.243408 0.242676 0.206787 0.790283 0.29248 0.702148 0.270996 0.688721 0.220947 0.790283 0.29248 0.688721 0.220947 0.803955 0.263916 0.803955 0.263916 0.688721 0.220947 0.72168 0.212891 0.803955 0.263916 0.72168 0.212891 0.7854 0.221436 0.72168 0.212891 0.688721 0.220947 0.65332 0.174072 0.7854 0.221436 0.72168 0.212891 0.706299 0.169678 0.706299 0.169678 0.72168 0.212891 0.65332 0.174072 0.7854 0.221436 0.706299 0.169678 0.775146 0.189941 0.706299 0.169678 0.65332 0.174072 0.662598 0.149658 0.775146 0.189941 0.706299 0.169678 0.742676 0.160645 0.775146 0.189941 0.742676 0.160645 0.802246 0.183594 0.706299 0.169678 0.662598 0.149658 0.696045 0.132812 0.706299 0.169678 0.696045 0.132812 0.742676 0.160645 0.696045 0.132812 0.662598 0.149658 0.660156 0.135986 0.802246 0.183594 0.742676 0.160645 0.786377 0.166748 0.696045 0.132812 0.660156 0.135986 0.663574 0.127197 0.786377 0.166748 0.742676 0.160645 0.756836 0.137451 0.786377 0.166748 0.756836 0.137451 0.805176 0.140869 0.756836 0.137451 0.742676 0.160645 0.731445 0.140625 0.731445 0.140625 0.742676 0.160645 0.696045 0.132812 0.756836 0.137451 0.731445 0.140625 0.784912 0.105225 0.696045 0.132812 0.663574 0.127197 0.692871 0.124023 0.696045 0.132812 0.692871 0.124023 0.731445 0.140625 0.692871 0.124023 0.663574 0.127197 0.696289 0.109375 0.731445 0.140625 0.692871 0.124023 0.756836 0.111328 0.756836 0.111328 0.692871 0.124023 0.696289 0.109375 0.731445 0.140625 0.756836 0.111328 0.784912 0.105225 0.756836 0.111328 0.696289 0.109375 0.745361 0.099121 0.756836 0.111328 0.745361 0.099121 0.784912 0.105225 0.745361 0.099121 0.696289 0.109375 0.708984 0.085205 0.745361 0.099121 0.708984 0.085205 0.737305 0.070801 0.745361 0.099121 0.737305 0.070801 0.784912 0.105225 0.784912 0.105225 0.737305 0.070801 0.788086 0.09668 0.788086 0.09668 0.737305 0.070801 0.761475 0.065186 0.454834 0.083252 0.448486 0.131348 0.378418 0.06665 0.378418 0.06665 0.448486 0.131348 0.343994 0.144043 0.343994 0.144043 0.448486 0.131348 0.456055 0.206055 0.448486 0.131348 0.454834 0.083252 0.50708 0.192383 0.448486 0.131348 0.50708 0.192383 0.456055 0.206055 0.456055 0.206055 0.50708 0.192383 0.504883 0.244385 0.504883 0.244385 0.50708 0.192383 0.540527 0.234619 0.50708 0.192383 0.454834 0.083252 0.498779 0.087402 0.540527 0.234619 0.50708 0.192383 0.55835 0.217041 0.50708 0.192383 0.498779 0.087402 0.529297 0.146484 0.50708 0.192383 0.529297 0.146484 0.55835 0.217041 0.55835 0.217041 0.529297 0.146484 0.621582 0.177002 0.529297 0.146484 0.498779 0.087402 0.531006 0.10376 0.621582 0.177002 0.529297 0.146484 0.593262 0.128906 0.593262 0.128906 0.529297 0.146484 0.531006 0.10376 0.593262 0.128906 0.531006 0.10376 0.564697 0.069336 0.593262 0.128906 0.564697 0.069336 0.647217 0.06543 0.932129 0.186035 0.911133 0.241455 0.904541 0.15918 0.911133 0.241455 0.932129 0.186035 0.96167 0.206055 0.96167 0.206055 0.932129 0.186035 0.922363 0.145508 0.904541 0.15918 0.911133 0.241455 0.895996 0.196045 0.895996 0.196045 0.911133 0.241455 0.83252 0.221924 0.932129 0.186035 0.904541 0.15918 0.897461 0.136963 0.932129 0.186035 0.897461 0.136963 0.922363 0.145508 0.897461 0.136963 0.904541 0.15918 0.895996 0.196045 0.922363 0.145508 0.897461 0.136963 0.933105 0.134033 0.897461 0.136963 0.895996 0.196045 0.874512 0.103027 0.990723 0.53418 0.994629 0.511719 0.995605 0.577148 0.990723 0.53418 0.995605 0.577148 0.985352 0.568604 0.415771 0.937012 0.424561 0.963623 0.397705 0.933594 0.397705 0.933594 0.424561 0.963623 0.329346 0.876221 0.329346 0.876221 0.424561 0.963623 0.328857 0.971924 0.509521 0.980469 0.597412 0.980469 0.56543 0.994629 0.530029 0.038574 0.524658 0.051514 0.500488 0.038574 0.500488 0.038574 0.524658 0.051514 0.536133 0.088379 0.500488 0.038574 0.536133 0.088379 0.481934 0.038086 0.500488 0.038574 0.481934 0.038086 0.447021 0.005371 0.447021 0.005371 0.481934 0.038086 0.456055 0.026367 0.018066 0.134766 0.006348 0.089355 0.036377 0.070801 0.036377 0.070801 0.006348 0.089355 0.053711 0.013184 0.018066 0.134766 0.036377 0.070801 0.052002 0.109375 0.052002 0.109375 0.036377 0.070801 0.053711 0.013184 0.003418 0.073486 0.003418 0.04834 0.022705 0.050537 0.233398 0.474121 0.222412 0.40918 0.251709 0.426514 0.251709 0.426514 0.222412 0.40918 0.240723 0.399902 0.233398 0.474121 0.251709 0.426514 0.273926 0.42749 0.222412 0.40918 0.233398 0.474121 0.194336 0.452393 0.222412 0.40918 0.194336 0.452393 0.208984 0.410156 0.208984 0.410156 0.194336 0.452393 0.165283 0.399902 0.194336 0.452393 0.233398 0.474121 0.207031 0.496826 0.194336 0.452393 0.207031 0.496826 0.162354 0.472656 0.162354 0.472656 0.207031 0.496826 0.178223 0.503174 0.207031 0.496826 0.233398 0.474121 0.23291 0.49292 0.23291 0.49292 0.233398 0.474121 0.273926 0.42749 0.207031 0.496826 0.23291 0.49292 0.255615 0.561035 0.255615 0.561035 0.23291 0.49292 0.270752 0.486572 0.270752 0.486572 0.23291 0.49292 0.273926 0.42749 0.270752 0.486572 0.273926 0.42749 0.289307 0.440674 0.270752 0.486572 0.289307 0.440674 0.299561 0.466064 0.299561 0.466064 0.289307 0.440674 0.339355 0.472168 0.299561 0.466064 0.339355 0.472168 0.345215 0.477051 0.299561 0.466064 0.345215 0.477051 0.314209 0.479492 0.591797 0.989258 0.674072 0.989258 0.680908 0.994629 0.766846 0.055176 0.737793 0.064697 0.752686 0.034424 0.752686 0.034424 0.737793 0.064697 0.744873 0.027344 0.566162 0.05542 0.54248 0.049561 0.54248 0.01709 0.54248 0.049561 0.566162 0.05542 0.540771 0.08374 0.750977 0.908203 0.715576 0.919922 0.709473 0.891357 0.709473 0.891357 0.715576 0.919922 0.643799 0.912842 0.709473 0.891357 0.643799 0.912842 0.637939 0.891357 0.637939 0.891357 0.643799 0.912842 0.615723 0.920898 0.709473 0.891357 0.637939 0.891357 0.689697 0.875244 0.689697 0.875244 0.637939 0.891357 0.630371 0.865723 0.630371 0.865723 0.637939 0.891357 0.56665 0.860107 0.689697 0.875244 0.630371 0.865723 0.700928 0.825195 0.700928 0.825195 0.630371 0.865723 0.659912 0.828613 0.659912 0.828613 0.630371 0.865723 0.64502 0.836914 0.289062 0.977051 0.300781 0.956299 0.326416 0.977783 0.300781 0.956299 0.289062 0.977051 0.246826 0.95874 0.246826 0.95874 0.289062 0.977051 0.273926 0.977539 0.983643 0.160156 0.970215 0.133301 0.998779 0.178467 0.983643 0.160156 0.998779 0.178467 0.965576 0.17749 0.983643 0.160156 0.965576 0.17749 0.970215 0.133301 0.998779 0.178467 0.970215 0.133301 0.999756 0.106201 0.970215 0.133301 0.965576 0.17749 0.924316 0.105225 0.970215 0.133301 0.924316 0.105225 0.999756 0.106201 0.842041 0.97876 0.811279 0.97876 0.844727 0.941162 0.844727 0.941162 0.811279 0.97876 0.806641 0.929199 0.949463 0.508789 0.991943 0.46582 0.987549 0.520996 0.991943 0.46582 0.949463 0.508789 0.946777 0.458008 0.946777 0.458008 0.949463 0.508789 0.931152 0.498291 0.991943 0.46582 0.946777 0.458008 0.954834 0.428955 0.559326 0.486572 0.608398 0.477783 0.577637 0.53418 0.559326 0.486572 0.577637 0.53418 0.496338 0.526855 0.559326 0.486572 0.496338 0.526855 0.511963 0.487305 0.511963 0.487305 0.496338 0.526855 0.426025 0.531494 0.559326 0.486572 0.511963 0.487305 0.549805 0.436523 0.559326 0.486572 0.549805 0.436523 0.592041 0.416992 0.511963 0.487305 0.426025 0.531494 0.510254 0.43042 0.511963 0.487305 0.510254 0.43042 0.549805 0.436523 0.549805 0.436523 0.510254 0.43042 0.566406 0.366455 0.566406 0.366455 0.510254 0.43042 0.547119 0.370117 0.510254 0.43042 0.426025 0.531494 0.405762 0.51001 0.547119 0.370117 0.510254 0.43042 0.505371 0.372559 0.510254 0.43042 0.405762 0.51001 0.434082 0.443115 0.510254 0.43042 0.434082 0.443115 0.505371 0.372559 0.434082 0.443115 0.405762 0.51001 0.366699 0.490234 0.434082 0.443115 0.366699 0.490234 0.373291 0.448486 0.505371 0.372559 0.434082 0.443115 0.464844 0.344727 0.434082 0.443115 0.373291 0.448486 0.37085 0.409668 0.434082 0.443115 0.37085 0.409668 0.464844 0.344727 0.464844 0.344727 0.37085 0.409668 0.44043 0.35376 0.44043 0.35376 0.37085 0.409668 0.34375 0.36084 0.44043 0.35376 0.34375 0.36084 0.398926 0.326904 0.389893 0.731445 0.484131 0.686035 0.436279 0.744873 0.436279 0.744873 0.484131 0.686035 0.540771 0.730713 0.540771 0.730713 0.484131 0.686035 0.568359 0.691406 0.540771 0.730713 0.568359 0.691406 0.62207 0.743408 0.568359 0.691406 0.484131 0.686035 0.536621 0.656494 0.536621 0.656494 0.484131 0.686035 0.474854 0.614746 0.068604 0.389893 0.016846 0.461182 0.000244 0.39502 0.350586 0.018311 0.357422 0.056396 0.29126 0.00708 0.29126 0.00708 0.357422 0.056396 0.29248 0.055664 0.29126 0.00708 0.29248 0.055664 0.24292 0.006348 0.24292 0.006348 0.29248 0.055664 0.262207 0.060547 0.773926 0.994629 0.685303 0.989746 0.765625 0.959229 0.765625 0.959229 0.685303 0.989746 0.740723 0.919434 0.740723 0.919434 0.685303 0.989746 0.662598 0.942871 0.025146 0.759033 0.009521 0.66626 0.068359 0.684082 0.068359 0.684082 0.009521 0.66626 0.068604 0.60376 0.661133 0.590088 0.634277 0.608398 0.585693 0.599609 0.585693 0.599609 0.634277 0.608398 0.606689 0.640381 0.585693 0.599609 0.606689 0.640381 0.526611 0.621826 0.526611 0.621826 0.606689 0.640381 0.572754 0.686035 0.572754 0.686035 0.606689 0.640381 0.644531 0.701172 0.606689 0.640381 0.634277 0.608398 0.688232 0.62793 0.688232 0.62793 0.634277 0.608398 0.661133 0.590088 0.644531 0.701172 0.606689 0.640381 0.682129 0.67334 0.682129 0.67334 0.606689 0.640381 0.688232 0.62793 0.644531 0.701172 0.682129 0.67334 0.728027 0.690918 0.728027 0.690918 0.682129 0.67334 0.753174 0.632812 0.753174 0.632812 0.682129 0.67334 0.688232 0.62793 0.753174 0.632812 0.688232 0.62793 0.661133 0.590088 0.753174 0.632812 0.661133 0.590088 0.686279 0.570312 0.753174 0.632812 0.686279 0.570312 0.748779 0.586182 0.748779 0.586182 0.686279 0.570312 0.660156 0.530518 0.660156 0.530518 0.686279 0.570312 0.661133 0.590088 0.660156 0.530518 0.661133 0.590088 0.585693 0.599609 0.660156 0.530518 0.585693 0.599609 0.590576 0.565674 0.660156 0.530518 0.590576 0.565674 0.662354 0.482666 0.662354 0.482666 0.590576 0.565674 0.589355 0.526611 0.943848 0.577637 0.943848 0.705078 0.935303 0.673584 0.125 0.410889 0.186279 0.541016 0.13501 0.48291 0.125 0.410889 0.13501 0.48291 0.087158 0.394531 0.087158 0.394531 0.13501 0.48291 0.034424 0.448975 0.034424 0.448975 0.13501 0.48291 0.081787 0.546143 0.034424 0.448975 0.081787 0.546143 0.049072 0.584473 0.915283 0.031006 0.94043 0.095459 0.864502 0.090576 0.816406 0.032471 0.864502 0.090576 0.820801 0.063232 0.864502 0.090576 0.816406 0.032471 0.847656 0.01416 0.864502 0.090576 0.847656 0.01416 0.915283 0.031006 0.915283 0.031006 0.847656 0.01416 0.876709 0.000488 0.915283 0.031006 0.876709 0.000488 0.943848 0.002441 0.019043 0.87915 0.046875 0.938477 0.01123 0.947754 0.01123 0.947754 0.046875 0.938477 0.084717 0.935303 0.084717 0.935303 0.046875 0.938477 0.019043 0.87915 0.084717 0.935303 0.019043 0.87915 0.061035 0.876465 0.084717 0.935303 0.061035 0.876465 0.098389 0.897217 0.084717 0.935303 0.098389 0.897217 0.152588 0.940186 0.517334 0.865479 0.456299 0.883301 0.392334 0.875488 0.392334 0.875488 0.456299 0.883301 0.382812 0.912598 0.814941 0.144287 0.830811 0.20752 0.798828 0.1604 0.830811 0.20752 0.814941 0.144287 0.872559 0.175537 0.872559 0.175537 0.814941 0.144287 0.872559 0.12207 0.872559 0.12207 0.814941 0.144287 0.793701 0.111572 0.872559 0.12207 0.793701 0.111572 0.868408 0.102783 0.868408 0.102783 0.793701 0.111572 0.794434 0.054199 0.415283 0.609619 0.477051 0.573242 0.45874 0.661377 0.477051 0.573242 0.415283 0.609619 0.423828 0.568115 0.477051 0.573242 0.423828 0.568115 0.388428 0.514648 0.423828 0.568115 0.415283 0.609619 0.385254 0.557617 0.423828 0.568115 0.385254 0.557617 0.388428 0.514648 0.388428 0.514648 0.385254 0.557617 0.364258 0.571533 0.364258 0.571533 0.385254 0.557617 0.415283 0.609619 0.388428 0.514648 0.364258 0.571533 0.31543 0.55127 0.415283 0.609619 0.45874 0.661377 0.385742 0.640137 0.415283 0.609619 0.385742 0.640137 0.364258 0.571533 0.385742 0.640137 0.45874 0.661377 0.369629 0.700195 0.31543 0.55127 0.364258 0.571533 0.360596 0.590576 0.360596 0.590576 0.364258 0.571533 0.385742 0.640137 0.385742 0.640137 0.369629 0.700195 0.334229 0.619873 0.385742 0.640137 0.334229 0.619873 0.360596 0.590576 0.360596 0.590576 0.334229 0.619873 0.31543 0.55127 0.334229 0.619873 0.369629 0.700195 0.342773 0.701172 0.334229 0.619873 0.342773 0.701172 0.276611 0.69751 0.334229 0.619873 0.276611 0.69751 0.277588 0.599121 0.334229 0.619873 0.277588 0.599121 0.31543 0.55127 0.31543 0.55127 0.277588 0.599121 0.27002 0.515869 0.961914 0.274902 0.952637 0.333496 0.888184 0.247803 0.98999 0.030029 0.960693 0.083008 0.948486 0.008301 0.960693 0.083008 0.98999 0.030029 0.990967 0.061768 0.948486 0.008301 0.960693 0.083008 0.926025 0.040771 0.926025 0.040771 0.960693 0.083008 0.955078 0.100586 0.733154 0.047607 0.681641 0.041016 0.731689 0.031006 0.681641 0.041016 0.733154 0.047607 0.692871 0.093262 0.681641 0.041016 0.692871 0.093262 0.651367 0.058594 0.651367 0.058594 0.692871 0.093262 0.657959 0.121338 0.681641 0.041016 0.651367 0.058594 0.654053 0.006104 0.654053 0.006104 0.651367 0.058594 0.607178 0.005371 0.607178 0.005371 0.651367 0.058594 0.605469 0.045898 0.217285 0.027344 0.263184 0.070557 0.258057 0.086426 0.258057 0.086426 0.263184 0.070557 0.331299 0.061523 0.824707 0.313965 0.80542 0.391846 0.762451 0.357178 0.762451 0.357178 0.80542 0.391846 0.774658 0.407227 0.762451 0.357178 0.774658 0.407227 0.750977 0.418945 0.750977 0.418945 0.774658 0.407227 0.749512 0.455566 0.749512 0.455566 0.774658 0.407227 0.80542 0.391846 0.749512 0.455566 0.80542 0.391846 0.773438 0.4729 0.773438 0.4729 0.80542 0.391846 0.806885 0.46167 0.773438 0.4729 0.806885 0.46167 0.828857 0.506104 0.749512 0.455566 0.773438 0.4729 0.712158 0.501221 0.749512 0.455566 0.712158 0.501221 0.681885 0.469482 0.712158 0.501221 0.773438 0.4729 0.754395 0.509521 0.681885 0.469482 0.712158 0.501221 0.678467 0.53418 0.678467 0.53418 0.712158 0.501221 0.754395 0.509521 0.977051 0.727295 0.977783 0.768799 0.943115 0.747559 0.943115 0.747559 0.977783 0.768799 0.918701 0.766357 0.977051 0.727295 0.943115 0.747559 0.937012 0.709717 0.943115 0.747559 0.918701 0.766357 0.890381 0.726562 0.943115 0.747559 0.890381 0.726562 0.937012 0.709717 0.869629 0.886719 0.869873 0.845459 0.915039 0.862061 0.915039 0.862061 0.869873 0.845459 0.915527 0.808838 0.915527 0.808838 0.869873 0.845459 0.858643 0.78833 0.915039 0.862061 0.915527 0.808838 0.936768 0.808105 0.936768 0.808105 0.915527 0.808838 0.945557 0.772461 0.915039 0.862061 0.936768 0.808105 0.94043 0.898682 0.601318 0.0625 0.570557 0.0625 0.597168 0.027344 0.742676 0.850342 0.715332 0.857178 0.731445 0.821045 0.708496 0.882812 0.742676 0.850342 0.757324 0.87207 0.757324 0.87207 0.742676 0.850342 0.811279 0.85376 0.811279 0.85376 0.742676 0.850342 0.731445 0.821045 0.811279 0.85376 0.731445 0.821045 0.8125 0.821777 0.811279 0.85376 0.8125 0.821777 0.859131 0.876953 0.859131 0.876953 0.8125 0.821777 0.864502 0.854492 0.8125 0.821777 0.731445 0.821045 0.740234 0.783203 0.864502 0.854492 0.8125 0.821777 0.838135 0.786865 0.838135 0.786865 0.8125 0.821777 0.740234 0.783203 0.838135 0.786865 0.740234 0.783203 0.751953 0.746094 0.838135 0.786865 0.751953 0.746094 0.832031 0.758301 0.838135 0.786865 0.832031 0.758301 0.87085 0.740723 0.206299 0.09375 0.165771 0.133545 0.122803 0.107666 0.122803 0.107666 0.165771 0.133545 0.0896 0.200439 0.0896 0.200439 0.165771 0.133545 0.1521 0.202393 0.206299 0.09375 0.122803 0.107666 0.120117 0.08667 0.120117 0.08667 0.122803 0.107666 0.058105 0.04834 0.206299 0.09375 0.120117 0.08667 0.206299 0.076904 0.206299 0.09375 0.206299 0.076904 0.237549 0.068115 0.237549 0.068115 0.206299 0.076904 0.220215 0.05127 0.209473 0.904053 0.186768 0.828369 0.236572 0.898193 0.236572 0.898193 0.186768 0.828369 0.267334 0.864014 0.236572 0.898193 0.267334 0.864014 0.309814 0.920898 0.309814 0.920898 0.267334 0.864014 0.324707 0.870117 0.873779 0.731934 0.883301 0.70874 0.891113 0.783691 0.883301 0.70874 0.873779 0.731934 0.884277 0.649902 0.884277 0.649902 0.873779 0.731934 0.841797 0.729492 0.884277 0.649902 0.841797 0.729492 0.83374 0.637939 0.83374 0.637939 0.841797 0.729492 0.793213 0.672363 0.793213 0.672363 0.841797 0.729492 0.793457 0.725098 0.029053 0.806396 0.013428 0.778809 0.060547 0.787842 0.013428 0.778809 0.029053 0.806396 0.005859 0.803955 0.060547 0.787842 0.013428 0.778809 0.070557 0.72583 0.060547 0.787842 0.070557 0.72583 0.09375 0.768311 0.029053 0.806396 0.060547 0.787842 0.038086 0.867676 0.029053 0.806396 0.038086 0.867676 0.005127 0.868896 0.060547 0.787842 0.09375 0.768311 0.080322 0.807373 0.060547 0.787842 0.080322 0.807373 0.038086 0.867676 0.080322 0.807373 0.09375 0.768311 0.137451 0.811035 0.137451 0.811035 0.09375 0.768311 0.115967 0.725586 0.137451 0.811035 0.115967 0.725586 0.156006 0.817139 0.137451 0.811035 0.156006 0.817139 0.171631 0.881836 0.080322 0.807373 0.137451 0.811035 0.115723 0.873291 0.080322 0.807373 0.115723 0.873291 0.038086 0.867676 0.115723 0.873291 0.137451 0.811035 0.171631 0.881836 0.038086 0.867676 0.115723 0.873291 0.104736 0.87793 0.104736 0.87793 0.115723 0.873291 0.171631 0.881836 0.064209 0.719727 0.07959 0.66626 0.125488 0.672852 0.125488 0.672852 0.07959 0.66626 0.095703 0.661377 0.095703 0.661377 0.07959 0.66626 0.074219 0.605957 0.095703 0.661377 0.074219 0.605957 0.121582 0.573486 0.095703 0.661377 0.121582 0.573486 0.125488 0.672852 0.125488 0.672852 0.121582 0.573486 0.167969 0.614746 0.167969 0.614746 0.121582 0.573486 0.173828 0.545654 0.125488 0.672852 0.167969 0.614746 0.174561 0.722168</float_array>
          <technique_common>
            <accessor source="#Salmon-mesh-map-0-array" count="1506" stride="2">
              <param name="S" type="float"/>
              <param name="T" type="float"/>
            </accessor>
          </technique_common>
        </source>
        <vertices id="Salmon-mesh-vertices">
          <input semantic="POSITION" source="#Salmon-mesh-positions"/>
        </vertices>
        <polylist material="Material_-1-material" count="6">
          <input semantic="VERTEX" source="#Salmon-mesh-vertices" offset="0"/>
          <input semantic="NORMAL" source="#Salmon-mesh-normals" offset="1"/>
          <input semantic="TEXCOORD" source="#Salmon-mesh-map-0" offset="2" set="0"/>
          <vcount>3 3 3 3 3 3 3 3 3 3 3 3 3 3 3 3 3 3 3 3 3 3 3 3 3 3 3 3 3 3 3 3 3 3 3 3 3 3 3 3 3 3 3 3 3 3 3 3 3 3 3 3 3 3 3 3 3 3 3 3 3 3 3 3 3 3 3 3 3 3 3 3 3 3 3 3 3 3 3 3 3 3 3 3 3 3 3 3 3 3 3 3 3 3 3 3 3 3 3 3 3 3 3 3 3 3 3 3 3 3 3 3 3 3 3 3 3 3 3 3 3 3 3 3 3 3 3 3 3 3 3 3 3 3 3 3 3 3 3 3 3 3 3 3 3 3 3 3 3 3 3 3 3 3 3 3 3 3 3 3 3 3 3 3 3 3 3 3 3 3 3 3 3 3 3 3 3 3 3 3 3 3 3 3 3 3 3 3 3 3 3 3 3 3 3 3 3 3 3 3 3 3 3 3 3 3 3 3 3 3 3 3 3 3 3 3 3 3 3 3 3 3 3 3 3 3 3 3 3 3 3 3 3 3 3 3 3 3 3 3 3 3 3 3 3 3 3 3 3 3 3 3 3 3 3 3 3 3 3 3 3 3 3 3 3 3 3 3 3 3 3 3 3 3 3 3 3 3 3 3 3 3 3 3 3 3 3 3 3 3 3 3 3 3 3 3 3 3 3 3 3 3 3 3 3 3 3 3 3 3 3 3 3 3 3 3 3 3 3 3 3 3 3 3 3 3 3 3 3 3 3 3 3 3 3 3 3 3 3 3 3 3 3 3 3 3 3 3 3 3 3 3 3 3 3 3 3 3 3 3 3 3 3 3 3 3 3 3 3 3 3 3 3 3 3 3 3 3 3 3 3 3 3 3 3 3 3 3 3 3 3 3 3 3 3 3 3 3 3 3 3 3 3 3 3 3 3 3 3 3 3 3 3 3 3 3 3 3 3 3 3 3 3 3 3 3 3 3 3 3 3 3 3 3 3 3 3 3 3 3 3 3 3 3 3 3 3 3 3 3 3 3 3 3 3 3 3 3 3 3 3 3 3 3 3 3 3 3 3 3 3 3 3 3 3 3 3 3 3 3 3 3 3 3 3 3 3 3 3 3 3 3 3 3 3 3 3 3 3 3 3 3</vcount>
          <p>0 0 0 1 0 1 2 0 2 2 1 3 1 1 4 3 1 5 2 2 6 3 2 7 0 2 8 0 3 9 3 3 10 4 3 11 4 4 12 3 4 13 5 4 14 5 5 15 3 5 16 6 5 17 3 6 18 1 6 19 7 6 20 3 7 21 7 7 22 6 7 23 6 8 24 7 8 25 8 8 26 8 9 27 7 9 28 9 9 29 9 10 30 7 10 31 10 10 32 8 11 33 9 11 34 11 11 35 11 12 36 9 12 37 12 12 38 0 13 39 13 13 40 1 13 41 1 14 42 13 14 43 7 14 44 13 15 45 0 15 46 4 15 47 7 16 48 13 16 49 14 16 50 13 17 51 4 17 52 5 17 53 13 18 54 5 18 55 14 18 56 14 19 57 5 19 58 15 19 59 16 20 60 17 20 61 5 20 62 16 21 63 5 21 64 6 21 65 18 22 66 19 22 67 6 22 68 6 23 69 19 23 70 16 23 71 16 24 72 19 24 73 20 24 74 16 25 75 20 25 76 21 25 77 16 26 78 21 26 79 22 26 80 16 27 81 22 27 82 17 27 83 17 28 84 22 28 85 23 28 86 23 29 87 22 29 88 24 29 89 23 30 90 24 30 91 25 30 92 26 31 93 18 31 94 6 31 95 18 32 96 26 32 97 27 32 98 26 33 99 6 33 100 8 33 101 27 34 102 26 34 103 28 34 104 26 35 105 8 35 106 29 35 107 26 36 108 29 36 109 28 36 110 23 37 111 25 37 112 17 37 113 25 38 114 30 38 115 17 38 116 17 39 117 30 39 118 31 39 119 17 40 120 31 40 121 15 40 122 17 41 123 15 41 124 5 41 125 31 42 126 30 42 127 32 42 128 31 43 129 32 43 130 15 43 131 15 44 132 32 44 133 33 44 134 15 45 135 33 45 136 34 45 137 15 46 138 34 46 139 10 46 140 32 47 141 30 47 142 35 47 143 32 48 144 35 48 145 36 48 146 35 49 147 30 49 148 37 49 149 35 50 150 37 50 151 38 50 152 37 51 153 30 51 154 25 51 155 37 52 156 25 52 157 39 52 158 37 53 159 39 53 160 38 53 161 38 54 162 39 54 163 40 54 164 22 55 165 41 55 166 24 55 167 24 56 168 41 56 169 42 56 170 24 57 171 42 57 172 43 57 173 41 58 174 22 58 175 21 58 176 41 59 177 21 59 178 44 59 179 44 60 180 21 60 181 45 60 182 45 61 183 21 61 184 46 61 185 45 62 186 46 62 187 47 62 188 47 63 189 46 63 190 48 63 191 21 64 192 20 64 193 46 64 194 20 65 195 19 65 196 46 65 197 46 66 198 19 66 199 49 66 200 49 67 201 19 67 202 50 67 203 49 68 204 50 68 205 51 68 206 50 69 207 19 69 208 18 69 209 50 70 210 18 70 211 52 70 212 50 71 213 52 71 214 53 71 215 54 72 216 55 72 217 56 72 218 50 73 219 57 73 220 58 73 221 58 74 222 57 74 223 59 74 224 57 75 225 50 75 226 53 75 227 51 76 228 60 76 229 49 76 230 55 77 231 49 77 232 60 77 233 49 78 234 55 78 235 61 78 236 50 79 237 58 79 238 51 79 239 51 80 240 58 80 241 62 80 242 59 81 243 57 81 244 63 81 245 63 82 246 57 82 247 64 82 248 65 83 249 66 83 250 67 83 251 67 84 252 66 84 253 68 84 254 68 85 255 66 85 256 69 85 257 68 86 258 69 86 259 67 86 260 65 87 261 70 87 262 66 87 263 66 88 264 70 88 265 69 88 266 70 89 267 65 89 268 71 89 269 69 90 270 70 90 271 72 90 272 70 91 273 71 91 274 73 91 275 70 92 276 73 92 277 72 92 278 73 93 279 71 93 280 74 93 281 72 94 282 73 94 283 75 94 284 73 95 285 74 95 286 76 95 287 73 96 288 76 96 289 75 96 290 65 97 291 67 97 292 77 97 293 65 98 294 77 98 295 71 98 296 69 99 297 72 99 298 67 99 299 67 100 300 72 100 301 78 100 302 67 101 303 78 101 304 77 101 305 71 102 306 77 102 307 79 102 308 79 103 309 77 103 310 78 103 311 71 104 312 79 104 313 74 104 314 79 105 315 78 105 316 75 105 317 74 106 318 79 106 319 76 106 320 76 107 321 79 107 322 75 107 323 25 108 324 24 108 325 80 108 326 25 109 327 80 109 328 39 109 329 39 110 330 80 110 331 81 110 332 40 111 333 39 111 334 81 111 335 82 112 336 83 112 337 81 112 338 81 113 339 83 113 340 40 113 341 40 114 342 83 114 343 84 114 344 40 115 345 84 115 346 85 115 347 40 116 348 85 116 349 78 116 350 40 117 351 78 117 352 72 117 353 78 118 354 85 118 355 75 118 356 75 119 357 85 119 358 86 119 359 75 120 360 86 120 361 72 120 362 72 121 363 86 121 364 40 121 365 38 122 366 40 122 367 86 122 368 43 123 369 80 123 370 24 123 371 80 124 372 43 124 373 81 124 374 81 125 375 43 125 376 82 125 377 87 126 378 82 126 379 43 126 380 88 127 381 89 127 382 90 127 383 88 128 384 90 128 385 91 128 386 89 129 387 92 129 388 90 129 389 92 130 390 89 130 391 93 130 392 93 131 393 89 131 394 94 131 395 93 132 396 94 132 397 64 132 398 91 133 399 84 133 400 83 133 401 84 134 402 91 134 403 85 134 404 85 135 405 91 135 406 90 135 407 95 136 408 47 136 409 62 136 410 95 137 411 62 137 412 96 137 413 96 138 414 62 138 415 97 138 416 96 139 417 97 139 418 98 139 419 96 140 420 98 140 421 99 140 422 99 141 423 98 141 424 100 141 425 42 142 426 41 142 427 44 142 428 87 143 429 43 143 430 42 143 431 101 144 432 87 144 433 102 144 434 102 145 435 87 145 436 103 145 437 103 146 438 87 146 439 42 146 440 102 147 441 103 147 442 104 147 443 42 148 444 44 148 445 105 148 446 42 149 447 105 149 448 103 149 449 103 150 450 105 150 451 106 150 452 103 151 453 106 151 454 107 151 455 105 152 456 44 152 457 108 152 458 105 153 459 108 153 460 106 153 461 106 154 462 108 154 463 109 154 464 108 155 465 44 155 466 45 155 467 109 156 468 108 156 469 110 156 470 108 157 471 45 157 472 111 157 473 108 158 474 111 158 475 110 158 476 111 159 477 45 159 478 47 159 479 110 160 480 111 160 481 112 160 482 111 161 483 47 161 484 95 161 485 112 162 486 111 162 487 113 162 488 113 163 489 111 163 490 95 163 491 113 164 492 95 164 493 96 164 494 113 165 495 96 165 496 99 165 497 109 166 498 110 166 499 112 166 500 109 167 501 112 167 502 114 167 503 109 168 504 114 168 505 106 168 506 114 169 507 112 169 508 115 169 509 106 170 510 114 170 511 107 170 512 107 171 513 114 171 514 115 171 515 107 172 516 115 172 517 116 172 518 107 173 519 116 173 520 104 173 521 107 174 522 104 174 523 103 174 524 82 175 525 87 175 526 101 175 527 82 176 528 101 176 529 83 176 530 83 177 531 101 177 532 117 177 533 83 178 534 117 178 535 91 178 536 117 179 537 101 179 538 118 179 539 91 180 540 117 180 541 119 180 542 119 181 543 117 181 544 118 181 545 91 182 546 119 182 547 88 182 548 119 183 549 118 183 550 120 183 551 88 184 552 119 184 553 121 184 554 88 185 555 121 185 556 89 185 557 119 186 558 120 186 559 122 186 560 119 187 561 122 187 562 121 187 563 122 188 564 120 188 565 123 188 566 89 189 567 121 189 568 124 189 569 122 190 570 123 190 571 125 190 572 124 191 573 121 191 574 126 191 575 124 192 576 126 192 577 127 192 578 126 193 579 121 193 580 128 193 581 128 194 582 121 194 583 122 194 584 126 195 585 128 195 586 129 195 587 122 196 588 125 196 589 130 196 590 122 197 591 130 197 592 128 197 593 130 198 594 125 198 595 131 198 596 128 199 597 130 199 598 132 199 599 132 200 600 130 200 601 131 200 602 128 201 603 132 201 604 129 201 605 132 202 606 131 202 607 133 202 608 132 203 609 133 203 610 129 203 611 133 204 612 131 204 613 134 204 614 133 205 615 134 205 616 113 205 617 133 206 618 113 206 619 129 206 620 129 207 621 113 207 622 100 207 623 100 208 624 113 208 625 99 208 626 104 209 627 135 209 628 102 209 629 102 210 630 135 210 631 101 210 632 101 211 633 135 211 634 118 211 635 135 212 636 104 212 637 136 212 638 135 213 639 136 213 640 118 213 641 118 214 642 136 214 643 120 214 644 120 215 645 136 215 646 123 215 647 136 216 648 104 216 649 116 216 650 123 217 651 136 217 652 125 217 653 136 218 654 116 218 655 137 218 656 136 219 657 137 219 658 125 219 659 125 220 660 137 220 661 131 220 662 137 221 663 116 221 664 115 221 665 131 222 666 137 222 667 134 222 668 134 223 669 137 223 670 115 223 671 134 224 672 115 224 673 112 224 674 134 225 675 112 225 676 113 225 677 138 226 678 46 226 679 139 226 680 46 227 681 138 227 682 48 227 683 48 228 684 138 228 685 140 228 686 139 229 687 46 229 688 61 229 689 61 230 690 46 230 691 49 230 692 138 231 693 139 231 694 54 231 695 138 232 696 54 232 697 140 232 698 54 233 699 139 233 700 61 233 701 140 234 702 54 234 703 56 234 704 54 235 705 61 235 706 55 235 707 60 236 708 48 236 709 140 236 710 60 237 711 140 237 712 56 237 713 60 238 714 51 238 715 48 238 716 48 239 717 51 239 718 47 239 719 47 240 720 51 240 721 62 240 722 55 241 723 60 241 724 56 241 725 59 242 726 141 242 727 58 242 728 58 243 729 141 243 730 142 243 731 58 244 732 142 244 733 143 244 734 58 245 735 143 245 736 62 245 737 62 246 738 143 246 739 97 246 740 141 247 741 144 247 742 145 247 743 145 248 744 144 248 745 146 248 746 141 249 747 145 249 748 142 249 749 142 250 750 145 250 751 146 250 752 98 251 753 97 251 754 147 251 755 148 252 756 100 252 757 147 252 758 147 253 759 100 253 760 98 253 761 148 254 762 147 254 763 97 254 764 100 255 765 148 255 766 127 255 767 100 256 768 127 256 769 129 256 770 129 257 771 127 257 772 126 257 773 127 258 774 148 258 775 94 258 776 127 259 777 94 259 778 124 259 779 124 260 780 94 260 781 89 260 782 94 261 783 148 261 784 149 261 785 149 262 786 148 262 787 97 262 788 94 263 789 149 263 790 64 263 791 64 264 792 149 264 793 63 264 794 63 265 795 149 265 796 97 265 797 63 266 798 97 266 799 143 266 800 63 267 801 143 267 802 59 267 803 59 268 804 143 268 805 142 268 806 59 269 807 142 269 808 144 269 809 59 270 810 144 270 811 141 270 812 150 271 813 144 271 814 142 271 815 15 272 816 10 272 817 14 272 818 14 273 819 10 273 820 7 273 821 10 274 822 12 274 823 9 274 824 12 275 825 10 275 826 151 275 827 32 276 828 36 276 829 33 276 830 33 277 831 36 277 832 152 277 833 33 278 834 152 278 835 153 278 836 153 279 837 152 279 838 154 279 839 33 280 840 153 280 841 34 280 842 34 281 843 153 281 844 155 281 845 155 282 846 153 282 847 156 282 848 34 283 849 155 283 850 10 283 851 10 284 852 155 284 853 151 284 854 151 285 855 155 285 856 157 285 857 151 286 858 158 286 859 12 286 860 158 287 861 151 287 862 159 287 863 159 288 864 151 288 865 157 288 866 160 289 867 161 289 868 157 289 869 160 290 870 157 290 871 155 290 872 160 291 873 155 291 874 161 291 875 157 292 876 161 292 877 159 292 878 161 293 879 155 293 880 162 293 881 161 294 882 162 294 883 159 294 884 12 295 885 158 295 886 11 295 887 11 296 888 158 296 889 163 296 890 164 297 891 158 297 892 159 297 893 158 298 894 164 298 895 165 298 896 165 299 897 164 299 898 166 299 899 158 300 900 165 300 901 163 300 902 167 301 903 36 301 904 35 301 905 167 302 906 35 302 907 38 302 908 167 303 909 38 303 910 168 303 911 168 304 912 38 304 913 86 304 914 167 305 915 168 305 916 169 305 917 167 306 918 169 306 919 170 306 920 168 307 921 86 307 922 171 307 923 168 308 924 171 308 925 169 308 926 169 309 927 171 309 928 172 309 929 172 310 930 171 310 931 173 310 932 171 311 933 86 311 934 85 311 935 173 312 936 171 312 937 174 312 938 171 313 939 85 313 940 175 313 941 171 314 942 175 314 943 174 314 944 175 315 945 85 315 946 90 315 947 175 316 948 90 316 949 92 316 950 174 317 951 175 317 952 176 317 953 175 318 954 92 318 955 93 318 956 175 319 957 93 319 958 176 319 959 176 320 960 93 320 961 177 320 962 177 321 963 93 321 964 178 321 965 177 322 966 178 322 967 163 322 968 167 323 969 170 323 970 36 323 971 36 324 972 170 324 973 152 324 974 152 325 975 170 325 976 179 325 977 152 326 978 179 326 979 154 326 980 179 327 981 170 327 982 172 327 983 172 328 984 170 328 985 169 328 986 159 329 987 180 329 988 164 329 989 166 330 990 181 330 991 165 330 992 165 331 993 181 331 994 176 331 995 165 332 996 176 332 997 163 332 998 163 333 999 176 333 1000 177 333 1001 164 334 1002 182 334 1003 166 334 1004 166 335 1005 182 335 1006 181 335 1007 181 336 1008 182 336 1009 183 336 1010 155 337 1011 180 337 1012 162 337 1013 162 338 1014 180 338 1015 159 338 1016 184 339 1017 185 339 1018 180 339 1019 180 340 1020 185 340 1021 186 340 1022 180 341 1023 186 341 1024 164 341 1025 164 342 1026 186 342 1027 182 342 1028 182 343 1029 186 343 1030 187 343 1031 186 344 1032 185 344 1033 188 344 1034 188 345 1035 185 345 1036 184 345 1037 187 346 1038 186 346 1039 189 346 1040 189 347 1041 186 347 1042 188 347 1043 187 348 1044 189 348 1045 190 348 1046 190 349 1047 189 349 1048 191 349 1049 191 350 1050 189 350 1051 188 350 1052 191 351 1053 188 351 1054 184 351 1055 191 352 1056 184 352 1057 192 352 1058 191 353 1059 192 353 1060 193 353 1061 193 354 1062 192 354 1063 194 354 1064 194 355 1065 192 355 1066 184 355 1067 194 356 1068 184 356 1069 180 356 1070 194 357 1071 180 357 1072 156 357 1073 194 358 1074 156 358 1075 195 358 1076 195 359 1077 156 359 1078 196 359 1079 155 360 1080 156 360 1081 180 360 1082 156 361 1083 153 361 1084 154 361 1085 156 362 1086 154 362 1087 196 362 1088 196 363 1089 154 363 1090 197 363 1091 197 364 1092 154 364 1093 179 364 1094 197 365 1095 179 365 1096 172 365 1097 195 366 1098 196 366 1099 198 366 1100 199 367 1101 198 367 1102 200 367 1103 198 368 1104 199 368 1105 201 368 1106 198 369 1107 201 369 1108 195 369 1109 195 370 1110 201 370 1111 202 370 1112 195 371 1113 202 371 1114 194 371 1115 197 372 1116 203 372 1117 196 372 1118 196 373 1119 203 373 1120 198 373 1121 198 374 1122 203 374 1123 197 374 1124 198 375 1125 197 375 1126 204 375 1127 198 376 1128 204 376 1129 205 376 1130 198 377 1131 205 377 1132 200 377 1133 172 378 1134 206 378 1135 197 378 1136 197 379 1137 206 379 1138 204 379 1139 173 380 1140 206 380 1141 172 380 1142 206 381 1143 173 381 1144 207 381 1145 207 382 1146 173 382 1147 208 382 1148 208 383 1149 173 383 1150 174 383 1151 208 384 1152 174 384 1153 209 384 1154 209 385 1155 174 385 1156 176 385 1157 210 386 1158 206 386 1159 207 386 1160 206 387 1161 210 387 1162 211 387 1163 206 388 1164 211 388 1165 204 388 1166 211 389 1167 210 389 1168 212 389 1169 211 390 1170 212 390 1171 204 390 1172 204 391 1173 212 391 1174 213 391 1175 213 392 1176 212 392 1177 210 392 1178 204 393 1179 213 393 1180 205 393 1181 210 394 1182 207 394 1183 214 394 1184 210 395 1185 214 395 1186 213 395 1187 214 396 1188 207 396 1189 208 396 1190 205 397 1191 213 397 1192 215 397 1193 215 398 1194 213 398 1195 214 398 1196 214 399 1197 208 399 1198 216 399 1199 214 400 1200 216 400 1201 215 400 1202 215 401 1203 216 401 1204 205 401 1205 216 402 1206 208 402 1207 209 402 1208 216 403 1209 209 403 1210 181 403 1211 216 404 1212 181 404 1213 183 404 1214 216 405 1215 183 405 1216 205 405 1217 205 406 1218 183 406 1219 200 406 1220 181 407 1221 209 407 1222 176 407 1223 29 408 1224 52 408 1225 28 408 1226 52 409 1227 29 409 1228 8 409 1229 28 410 1230 52 410 1231 27 410 1232 27 411 1233 52 411 1234 18 411 1235 8 412 1236 53 412 1237 52 412 1238 53 413 1239 8 413 1240 11 413 1241 53 414 1242 11 414 1243 178 414 1244 178 415 1245 11 415 1246 163 415 1247 53 416 1248 178 416 1249 57 416 1250 57 417 1251 178 417 1252 64 417 1253 64 418 1254 178 418 1255 93 418 1256 144 419 1257 150 419 1258 146 419 1259 146 420 1260 150 420 1261 142 420 1262 182 421 1263 187 421 1264 217 421 1265 217 422 1266 187 422 1267 218 422 1268 217 423 1269 218 423 1270 219 423 1271 219 424 1272 218 424 1273 220 424 1274 220 425 1275 218 425 1276 187 425 1277 220 426 1278 187 426 1279 221 426 1280 221 427 1281 187 427 1282 190 427 1283 221 428 1284 190 428 1285 191 428 1286 220 429 1287 221 429 1288 222 429 1289 220 430 1290 222 430 1291 202 430 1292 222 431 1293 221 431 1294 193 431 1295 202 432 1296 222 432 1297 194 432 1298 194 433 1299 222 433 1300 193 433 1301 183 434 1302 182 434 1303 223 434 1304 223 435 1305 182 435 1306 217 435 1307 183 436 1308 223 436 1309 224 436 1310 223 437 1311 217 437 1312 225 437 1313 223 438 1314 225 438 1315 224 438 1316 225 439 1317 217 439 1318 224 439 1319 224 440 1320 217 440 1321 226 440 1322 226 441 1323 217 441 1324 227 441 1325 224 442 1326 226 442 1327 200 442 1328 200 443 1329 226 443 1330 228 443 1331 224 444 1332 200 444 1333 183 444 1334 193 445 1335 221 445 1336 191 445 1337 219 446 1338 220 446 1339 202 446 1340 217 447 1341 219 447 1342 227 447 1343 227 448 1344 219 448 1345 229 448 1346 229 449 1347 219 449 1348 202 449 1349 229 450 1350 202 450 1351 230 450 1352 229 451 1353 230 451 1354 231 451 1355 231 452 1356 230 452 1357 232 452 1358 230 453 1359 202 453 1360 201 453 1361 232 454 1362 230 454 1363 233 454 1364 233 455 1365 230 455 1366 201 455 1367 233 456 1368 201 456 1369 199 456 1370 233 457 1371 199 457 1372 234 457 1373 233 458 1374 234 458 1375 235 458 1376 226 459 1377 227 459 1378 236 459 1379 236 460 1380 227 460 1381 237 460 1382 237 461 1383 227 461 1384 229 461 1385 226 462 1386 236 462 1387 234 462 1388 234 463 1389 236 463 1390 238 463 1391 226 464 1392 234 464 1393 199 464 1394 226 465 1395 199 465 1396 228 465 1397 228 466 1398 199 466 1399 200 466 1400 237 467 1401 229 467 1402 239 467 1403 239 468 1404 229 468 1405 240 468 1406 239 469 1407 240 469 1408 241 469 1409 241 470 1410 240 470 1411 242 470 1412 231 471 1413 240 471 1414 229 471 1415 240 472 1416 231 472 1417 242 472 1418 242 473 1419 231 473 1420 232 473 1421 242 474 1422 232 474 1423 241 474 1424 241 475 1425 232 475 1426 243 475 1427 243 476 1428 232 476 1429 237 476 1430 239 477 1431 232 477 1432 244 477 1433 232 478 1434 239 478 1435 237 478 1436 244 479 1437 232 479 1438 233 479 1439 244 480 1440 233 480 1441 235 480 1442 239 481 1443 244 481 1444 243 481 1445 239 482 1446 243 482 1447 241 482 1448 244 483 1449 235 483 1450 245 483 1451 244 484 1452 245 484 1453 243 484 1454 245 485 1455 235 485 1456 246 485 1457 246 486 1458 235 486 1459 234 486 1460 246 487 1461 234 487 1462 247 487 1463 246 488 1464 247 488 1465 248 488 1466 245 489 1467 246 489 1468 249 489 1469 245 490 1470 249 490 1471 243 490 1472 249 491 1473 246 491 1474 248 491 1475 243 492 1476 249 492 1477 250 492 1478 250 493 1479 249 493 1480 248 493 1481 236 494 1482 237 494 1483 238 494 1484 238 495 1485 237 495 1486 251 495 1487 251 496 1488 237 496 1489 243 496 1490 251 497 1491 243 497 1492 250 497 1493 251 498 1494 250 498 1495 238 498 1496 238 499 1497 250 499 1498 247 499 1499 247 500 1500 250 500 1501 248 500 1502 238 501 1503 247 501 1504 234 501 1505</p>
        </polylist>
      </mesh>
    </geometry>
  </library_geometries>
  <library_visual_scenes>
    <visual_scene id="Scene" name="Scene">
      <node id="Salmon" name="Salmon" type="NODE">
        <scale sid="scale">1 1 1</scale>
        <translate sid="location">0 0 0</translate>
        <rotate sid="rotationX">1 0 0 0</rotate>
        <rotate sid="rotationY">0 1 0 -90</rotate>
        <rotate sid="rotationZ">0 0 1 0</rotate>
        <instance_geometry url="#Salmon-mesh" name="Salmon">
          <bind_material>
            <technique_common>
            </technique_common>
          </bind_material>
        </instance_geometry>
      </node>
    </visual_scene>
  </library_visual_scenes>
  <scene>
    <instance_visual_scene url="#Scene"/>
  </scene>
</COLLADA>
