<?xml version="1.0" encoding="utf-8"?>
<COLLADA xmlns="http://www.collada.org/2005/11/COLLADASchema" version="1.4.1" xmlns:xsi="http://www.w3.org/2001/XMLSchema-instance">
  <asset>
    <contributor>
      <author>Blockbench user</author>
      <authoring_tool>Blockbench</authoring_tool>
    </contributor>
    <created>2026-03-08T09:17:38.785Z</created>
    <modified>2026-03-08T09:17:38.792Z</modified>
    <unit name="meter" meter="1.0"/>
    <up_axis>Y_UP</up_axis>
  </asset>
  <library_effects>
  </library_effects>
  <library_images>
  </library_images>
  <library_materials>
  </library_materials>
  <library_geometries>
    <geometry id="Saltpeter-mesh" name="Saltpeter">
      <mesh>
        <source id="Saltpeter-mesh-positions">
          <float_array id="Saltpeter-mesh-positions-array" count="753">-0.196243 -0.327972 -0.359436 -0.207458 -0.420898 -0.273315 -0.293762 -0.267548 -0.352753 -0.175583 -0.309479 -0.398315 -0.092079 -0.366974 -0.405273 -0.095978 -0.222183 -0.383972 -0.145874 -0.243591 -0.314087 -0.266083 -0.203278 -0.349152 -0.181488 -0.197357 -0.266876 -0.285797 -0.253479 -0.241669 -0.237961 -0.164032 -0.233734 -0.206055 -0.439423 -0.137482 -0.307281 -0.360229 -0.187637 -0.097694 -0.475525 -0.197464 -0.261658 -0.281036 -0.1763 -0.330414 -0.307068 -0.095528 -0.291595 -0.419006 -0.080681 -0.230652 -0.206421 -0.128143 -0.258698 -0.205353 -0.206863 -0.075638 -0.421753 -0.334351 0.027647 -0.279907 -0.485504 0.039223 -0.333557 -0.426941 -0.002895 -0.428955 -0.343231 0.024546 -0.458374 -0.267548 0.016317 -0.482361 -0.143127 0.054604 -0.411621 -0.384979 0.17511 -0.394165 -0.345581 0.156921 -0.436279 -0.20253 0.09343 -0.448792 -0.033539 0.262726 -0.391327 -0.265198 0.286835 -0.417664 -0.133255 0.233002 -0.438751 0.051823 0.266693 -0.314911 -0.228439 -0.267822 -0.074142 -0.378967 -0.17688 -0.115814 -0.329437 -0.255585 -0.000084 -0.3862 -0.156921 -0.038998 -0.305695 -0.140594 -0.099892 -0.367249 -0.05965 -0.172867 -0.326019 -0.012235 -0.196808 -0.367737 -0.222031 -0.066505 -0.229599 -0.303497 -0.025026 -0.307892 -0.224991 -0.120461 -0.156525 -0.242065 0.008192 -0.306702 0.041336 -0.170105 -0.422699 0.180023 -0.236984 -0.452728 0.226288 -0.306305 -0.360474 0.310577 -0.255676 -0.296265 0.234436 -0.210754 -0.187668 0.223236 -0.214401 -0.380951 0.182953 -0.171753 -0.267883 0.151489 -0.144409 -0.377472 0.114868 -0.149414 -0.441284 0.140823 -0.109245 -0.377533 0.031654 -0.108894 -0.35257 0.158661 -0.138962 -0.262299 0.203003 -0.116386 -0.205673 0.06852 -0.059856 -0.319977 0.187988 0.080177 -0.412811 -0.094673 0.005243 -0.416809 -0.16095 0.040264 -0.37265 -0.128571 0.049767 -0.330597 -0.005615 -0.028873 -0.298523 -0.027924 -0.038349 -0.202026 0.014423 -0.095398 -0.194412 0.087685 -0.037464 -0.142548 0.085144 0.156006 -0.379791 -0.243256 -0.499146 0.022175 -0.088272 -0.49881 -0.046074 -0.047249 -0.463165 0.03384 -0.143402 -0.490387 0.053169 -0.257202 -0.456116 0.09462 -0.227585 -0.449127 0.208893 -0.364502 -0.386566 -0.016907 -0.370575 -0.237762 -0.010217 -0.375916 -0.369202 0.063393 -0.284973 -0.401428 0.131317 -0.17981 -0.413055 0.289215 -0.400421 -0.276093 0.116234 -0.332642 -0.197464 0.077957 -0.362518 -0.140823 0.151077 -0.338409 -0.300751 0.178375 -0.265228 -0.345947 0.315155 -0.329651 -0.179031 0.261444 -0.3302 -0.249084 0.294586 -0.219376 -0.25766 0.373016 -0.290314 -0.21405 -0.056774 -0.323608 -0.15892 -0.035187 -0.327881 -0.17807 0.032837 -0.371155 -0.123322 0.064041 -0.475067 -0.019753 -0.031597 -0.292175 -0.185654 -0.113106 -0.391113 -0.065941 -0.10598 -0.249512 -0.094315 -0.02342 -0.376984 -0.096741 -0.172379 -0.363983 0.002387 -0.180878 -0.301178 -0.098732 -0.206329 -0.274261 0.002837 -0.146439 -0.183777 -0.126205 -0.072884 -0.174759 -0.079193 -0.143143 -0.136398 -0.077675 -0.190735 -0.098732 -0.08252 -0.169601 -0.153519 -0.13176 -0.077942 -0.167343 0.160477 -0.09481 -0.133362 0.147903 -0.191101 -0.015379 0.143921 -0.24234 -0.117767 0.010315 -0.242584 -0.170227 -0.102478 -0.054489 0.281708 -0.177277 -0.016777 0.21814 -0.207626 0.00734 0.278534 -0.232834 -0.056839 0.476593 -0.048824 -0.164505 0.269623 -0.163727 0.009134 0.236603 -0.110466 0.011175 0.31543 -0.246384 0.022469 0.299164 -0.16571 0.10244 0.270477 -0.220154 0.061859 0.299988 -0.273407 -0.041054 0.286774 -0.191772 0.138062 0.325409 -0.323273 0.006732 0.284821 -0.28067 0.202469 0.199539 -0.317169 0.185287 0.167847 -0.079201 -0.126266 0.217926 -0.135025 -0.155518 0.241211 0.115685 -0.348358 0.246399 -0.008316 -0.164688 0.263611 -0.073952 -0.119041 0.185287 -0.053715 -0.075645 0.262604 -0.042091 -0.097069 0.242126 -0.111618 -0.033085 0.158127 -0.113251 -0.063087 0.149368 -0.069061 -0.04454 0.296265 -0.202209 -0.139984 0.377472 -0.03233 -0.246933 0.422241 -0.083588 -0.240631 0.366577 0.005278 -0.201736 0.440613 -0.004894 -0.229507 0.396515 0.016228 -0.187057 0.410156 0.012009 -0.150146 0.201355 -0.097229 -0.008422 0.229858 -0.108696 0.024982 0.240295 0.166351 -0.00223 0.090263 -0.118141 0.019306 0.114044 -0.029545 -0.039768 0.067978 -0.038807 0.058914 0.274841 -0.269928 -0.154114 0.371582 -0.368774 -0.064766 0.161163 -0.421051 0.121483 -0.074951 -0.475555 0.141525 0.057186 -0.43869 0.109978 -0.046757 -0.44928 0.243759 0.110413 -0.370972 0.37793 -0.009581 -0.376709 0.34906 -0.096954 -0.387604 0.375458 -0.132843 -0.301453 0.431671 -0.060268 -0.201981 0.375366 -0.040462 -0.261444 0.445221 0.108345 -0.296967 0.339478 0.019787 -0.194611 0.311249 0.086082 -0.231201 0.344574 0.022354 -0.046219 0.44986 -0.377716 -0.081207 0.264893 -0.365295 -0.045155 0.173798 -0.241028 -0.106697 0.266327 -0.243454 -0.167389 0.358276 -0.247986 -0.090126 0.17807 -0.290497 -0.098167 0.086662 -0.424072 0.005002 0.037922 -0.271149 -0.074799 0.122169 -0.152206 -0.095963 0.107346 -0.253693 0.029526 0.108078 -0.323364 -0.01956 0.044353 -0.126617 -0.11216 0.176727 -0.149902 0.170349 0.261444 -0.187546 -0.069153 0.21524 -0.132141 -0.153854 0.247604 -0.046215 -0.118736 0.208923 -0.118279 -0.098167 0.279694 -0.086945 0.176865 0.287964 0.024128 -0.09845 0.167938 -0.108994 -0.00876 0.406158 -0.12291 -0.184387 0.321747 -0.083046 -0.067062 0.481506 -0.044605 0.01943 0.38446 0.025625 -0.164413 0.225861 0.013712 -0.160629 0.170349 0.046246 -0.071732 0.280731 0.115868 -0.053379 0.31366 0.156448 -0.404266 0.22522 0.202835 -0.359802 0.321045 0.26593 -0.291046 0.295258 0.244598 -0.207275 0.203979 0.18103 -0.151901 0.13501 0.170319 -0.148682 0.216095 0.164566 -0.077202 0.158783 0.232285 -0.134491 0.120148 0.199173 -0.212433 0.284363 0.086472 -0.191986 0.258911 0.20546 -0.296021 0.334106 0.442871 -0.054745 0.050861 0.403717 -0.005938 -0.007513 0.352509 0.034248 0.059925 0.254669 -0.054939 0.062092 0.286438 0.157883 0.050072 0.431793 0.029024 0.047356 0.420715 -0.013919 0.116707 0.001661 -0.21347 0.188705 0.171402 -0.027224 0.263977 0.088287 -0.039215 0.185486 0.088264 -0.105011 0.111412 0.100937 0.039639 0.090141 0.027214 -0.037525 0.0802 -0.401581 -0.001363 -0.070709 -0.399475 0.060192 -0.033009 -0.306946 -0.016939 0.007808 -0.186249 -0.050903 0.000621 -0.241913 0.07206 0.064438 -0.137817 -0.069763 0.0662 -0.128937 0.013232 0.040367 -0.168427 0.009406 -0.057133 -0.119781 0.34494 -0.248993 -0.165482 0.379425 -0.143539 0.063484 0.355988 -0.251465 -0.043854 0.507751 -0.193527 0.071091 0.110512 -0.196045 0.122887 0.034248 -0.083916 0.115662 0.380127 -0.15419 0.083061 0.234955 -0.010411 -0.02907 0.276123 0.026297 -0.04237 0.06765 0.066154 -0.130386 0.260315 -0.010673 -0.122894 0.403625 -0.047466 0.047977 0.407532 -0.033676 -0.04874 0.496399 -0.14325 -0.017099 0.51416 -0.175873 -0.128113 -0.006684 0.065231 -0.079231 0.232971 0.118668 -0.145355 0.218582 0.136658 -0.102936 0.275909 0.222046 -0.175858 0.191605 0.199814 -0.019314 0.200974 0.256195 -0.013872 0.230515 0.167618 0.121223 0.188477 -0.292755 0.171722 0.192902 -0.381927 0.2108 0.164429 -0.286987 0.131577 0.078209 0.013907 0.273071 0.1604 0.125244 0.196884 0.169464 0.155533 0.138153 0.179123 0.110527 0.166046 0.171478 0.002315 0.226288 0.235184 0.067429</float_array>
          <technique_common>
            <accessor source="#Saltpeter-mesh-positions-array" count="251" stride="3">
              <param name="X" type="float"/>
              <param name="Y" type="float"/>
              <param name="Z" type="float"/>
            </accessor>
          </technique_common>
        </source>
        <source id="Saltpeter-mesh-normals">
          <float_array id="Saltpeter-mesh-normals-array" count="1494">-0.413877 -0.591419 -0.692047 -0.460979 -0.681058 -0.56891 -0.496395 -0.651523 -0.573681 0.018108 0.146002 -0.989119 -0.684962 0.671185 -0.283439 0.036582 0.780809 -0.623697 0.261391 -0.058591 -0.963453 0.400723 0.787253 -0.468672 -0.918654 0.394745 0.015875 -0.383394 0.861779 0.332182 -0.362141 0.272743 -0.891328 -0.580302 -0.807712 -0.104163 -0.373652 -0.91957 -0.121552 -0.699674 -0.597048 -0.392415 -0.975101 0.217679 0.042348 -0.796372 0.392974 0.459741 -0.735237 0.490533 -0.467766 -0.942012 -0.332599 -0.044624 -0.708765 0.566152 -0.420861 -0.911886 0.127036 0.390288 -0.904858 0.273673 0.326091 -0.882581 0.468511 0.039346 -0.771084 0.570653 0.28246 -0.482172 -0.743872 -0.462779 -0.333329 -0.618912 -0.711224 -0.184098 -0.904399 -0.384929 -0.603133 0.100175 -0.791325 0.072863 -0.728184 -0.681498 -0.150188 -0.798979 -0.582302 0.048604 -0.670819 -0.740027 -0.0863 -0.92248 -0.376274 -0.131714 -0.939135 -0.317298 0.030385 -0.981837 -0.187278 -0.408789 -0.49328 -0.767833 0.014164 -0.930221 -0.366725 0.336682 -0.393499 -0.855455 0.242112 -0.955556 -0.168208 0.293518 -0.9116 -0.287807 0.218362 -0.943316 -0.249946 0.331861 -0.941727 0.054952 0.253602 -0.936193 -0.243368 0.15051 -0.988468 -0.016644 0.259237 -0.93694 -0.23439 0.11901 -0.989812 -0.078159 0.98432 0.032316 -0.173407 -0.613799 -0.721531 -0.32038 0.14694 -0.607312 -0.780757 0.41624 -0.15626 -0.895727 0.646496 0.066913 -0.759978 -0.876158 -0.261268 -0.405075 -0.743623 0.366125 -0.559443 -0.646448 -0.243718 -0.722984 -0.768349 -0.197049 -0.608943 0.647499 0.330153 -0.686836 -0.124579 0.792828 -0.596577 -0.66985 0.078107 0.738377 -0.984542 0.157572 0.076467 -0.874276 -0.472211 -0.112511 -0.86227 0.093871 -0.497673 -0.351506 0.625095 0.696922 -0.475457 0.879674 -0.010717 0.981071 0.082084 -0.175393 -0.123325 0.790677 -0.599684 -0.746045 0.398261 -0.533671 0.048647 0.491338 -0.869609 0.331128 -0.66225 -0.672145 0.334124 -0.66539 -0.667546 0.358495 -0.355163 -0.863331 0.607257 -0.46315 -0.645547 0.954099 0.088155 -0.286225 0.627796 -0.740333 -0.240371 0.824992 0.034695 0.564078 0.864998 -0.081587 -0.495098 0.652942 -0.143996 -0.743594 0.55605 0.829842 0.046594 0.524287 0.841467 -0.130603 0.574403 0.615623 -0.539508 0.697598 0.716164 -0.021594 0.153186 0.651344 -0.743159 0.253777 -0.964728 -0.069973 -0.340335 0.851838 -0.398176 0.830885 0.251164 -0.496535 -0.148976 0.734697 -0.661836 0.794688 0.601991 -0.077957 0.954421 0.28937 -0.073119 0.557442 0.522788 -0.644943 0.616866 0.779946 0.105646 0.027309 -0.568425 -0.822282 0.054116 -0.445011 -0.893889 -0.592685 -0.11679 -0.796922 0.224507 0.899005 -0.376015 0.563905 0.802977 -0.192972 0.76376 -0.167574 -0.62337 0.491288 0.84845 0.196898 0.765015 0.599324 0.235716 0.445513 0.2147 -0.86915 -0.470723 0.332681 -0.817156 -0.494461 0.38158 -0.780964 -0.738112 0.454506 -0.498612 -0.007339 0.557342 -0.830251 0.450599 0.78909 0.417488 -0.170947 0.631298 -0.756465 -0.91321 -0.041984 -0.405321 -0.435326 -0.209112 -0.87565 -0.445785 -0.810473 -0.380012 -0.456918 -0.792939 -0.40308 -0.164943 -0.910559 -0.379046 -0.372244 -0.920549 -0.118421 0.01359 -0.988159 -0.152833 0.351581 -0.908751 0.224861 0.309956 -0.917284 0.250034 0.051941 -0.992229 0.113067 -0.078765 -0.863685 0.497839 -0.897442 -0.43298 0.084414 -0.245072 -0.961755 0.122339 -0.471608 -0.87688 -0.093103 -0.700431 -0.327044 -0.634381 -0.91033 -0.018564 -0.413466 -0.603142 -0.793011 0.085748 -0.990472 -0.034428 -0.133343 -0.791317 -0.562546 0.239497 -0.594296 -0.633909 0.494946 -0.830775 -0.113198 0.544976 -0.960135 -0.105871 -0.258712 -0.624449 -0.503312 0.597278 -0.751852 0.658955 0.02229 -0.736658 0.35472 -0.575767 -0.682204 -0.573865 0.453074 -0.70482 0.014807 0.709232 -0.802045 -0.542488 0.249862 -0.962511 -0.102212 0.251248 -0.824051 -0.493764 0.277736 -0.997887 0.034014 0.055367 -0.517652 0.369209 0.77183 -0.685415 0.511427 -0.518314 -0.539232 0.511271 -0.669202 -0.508181 0.03013 -0.860723 -0.841283 0.531843 0.096877 -0.848599 0.512613 0.130794 -0.821074 -0.533928 -0.201887 -0.82423 -0.483475 -0.294784 -0.676131 -0.734289 -0.060555 -0.887037 -0.461673 -0.004807 -0.37983 -0.831025 -0.406357 -0.871455 -0.448947 -0.197517 -0.770138 -0.63088 -0.094224 -0.424203 0.333151 0.842058 -0.760028 -0.636069 0.133322 -0.961785 0.104441 -0.253104 -0.409149 -0.024543 -0.912138 -0.302699 -0.711485 -0.634162 -0.383216 -0.693726 -0.609828 0.458346 -0.305729 -0.834535 -0.988879 0.101129 0.109048 0.580321 0.294022 -0.759459 0.843511 0.368995 -0.390298 -0.64714 0.669399 0.364848 -0.518593 0.758936 -0.393799 -0.160208 0.797165 0.582117 0.075701 0.992814 0.092685 0.230962 0.792838 0.563972 -0.838981 -0.070829 -0.539531 -0.936102 -0.169445 -0.308223 -0.398269 -0.144376 -0.905835 -0.311604 -0.18471 -0.932086 -0.362514 0.528926 0.767347 -0.291906 0.53069 0.795713 -0.022703 0.614997 0.788203 -0.595575 0.769207 -0.231541 0.558248 0.449357 -0.69745 0.054083 0.923381 0.380056 -0.578972 0.386342 0.718005 -0.770587 0.387965 0.505647 -0.982406 -0.147116 -0.115041 0.239268 0.792493 0.560987 -0.017649 0.618889 -0.78528 -0.209593 0.671049 -0.711171 0.508965 -0.522407 0.684138 0.708348 -0.43903 0.552716 0.51985 -0.633098 0.573535 0.845592 0.519537 0.122699 0.115759 -0.095353 -0.98869 0.861168 0.434748 -0.263409 -0.386901 -0.907627 0.162851 0.240719 -0.658393 0.713143 0.492897 0.822366 -0.284197 0.891082 -0.453323 -0.021728 0.885499 0.464442 0.013594 0.722124 0.583402 -0.371725 0.977833 0.108337 0.179183 0.333491 -0.904446 0.266009 0.750015 0.661038 0.022502 0.924546 0.077218 0.373166 -0.469007 0.041545 -0.882217 0.769261 -0.21637 -0.601183 -0.696229 0.708266 -0.116723 0.976287 0.142962 -0.162561 -0.010003 0.893605 0.448744 0.974636 -0.105358 0.197446 -0.253974 0.694403 0.673276 0.253782 0.087417 0.963303 -0.898262 0.429452 0.093255 0.97263 0.106004 0.206768 0.865916 0.201042 -0.458008 0.94347 0.280596 -0.17644 0.514217 0.42771 -0.743401 -0.639998 0.68576 -0.346606 -0.210678 -0.446706 -0.869522 -0.323435 -0.388567 -0.86279 -0.742168 0.416264 -0.525273 -0.446731 0.855122 0.263053 0.231455 0.082982 -0.9693 -0.142843 0.743606 -0.653181 0.832862 -0.118001 -0.540755 -0.069588 0.862411 -0.501402 0.684 0.721312 0.108873 0.398112 0.916357 -0.042387 -0.442025 0.858059 0.261435 -0.445194 0.855494 0.264446 0.448862 0.290765 0.844973 0.307426 0.399803 0.863509 0.57021 0.504732 0.648156 0.547608 0.609526 -0.57324 0.331229 0.942661 0.040967 0.741202 -0.093887 -0.664684 0.110115 0.926916 -0.358751 -0.211822 0.970294 -0.116883 0.770341 -0.110854 0.627922 0.520544 0.372545 0.768274 0.903867 0.041307 0.425814 0.987702 0.05979 -0.144464 0.646586 -0.054933 -0.76086 0.771752 0.617328 -0.152659 0.475921 -0.878653 0.03832 0.80809 0.56654 0.161316 0.69867 -0.306693 0.646375 0.646535 -0.233816 0.72617 0.855903 0.395493 -0.33319 0.612967 -0.029173 -0.78957 0.944757 -0.316596 0.084861 0.896625 0.401329 -0.187079 0.70583 0.547909 0.448998 0.60752 -0.778589 -0.157224 0.642692 -0.757772 -0.112818 0.264159 -0.963524 -0.042906 -0.071828 -0.973079 0.218994 0.25859 -0.964961 -0.044504 0.01819 -0.916079 0.400585 0.300328 -0.940508 0.158894 -0.15925 -0.944689 0.286711 -0.103366 -0.801561 0.58891 -0.118208 -0.915808 0.383827 0.251534 -0.836139 0.487445 -0.53273 -0.792668 0.296439 -0.128817 -0.495911 0.858765 -0.545373 -0.501177 0.671856 -0.574947 -0.218201 0.788558 -0.635904 -0.589738 0.497831 -0.220413 0.597305 0.771132 0.302701 -0.561429 0.770175 0.098058 -0.51485 0.851654 -0.378009 0.64933 0.659909 0.410498 -0.516786 0.751281 0.364097 0.757632 0.54169 0.205294 0.835771 0.509255 0.541561 -0.57883 0.609646 -0.890262 -0.441383 0.112315 -0.990987 0.00304 -0.13392 -0.018765 -0.044436 0.998836 0.165516 0.909074 0.382346 -0.583144 0.68498 0.436743 0.34946 0.925472 0.146215 -0.345737 0.912697 0.217832 -0.290701 0.074285 0.953926 -0.612327 0.77124 -0.17391 -0.422731 0.197776 -0.884411 0.352368 0.92951 0.108848 0.194344 0.963585 0.183669 0.142024 0.10912 0.98383 -0.909697 0.201275 0.363236 -0.704364 0.084816 0.704754 0.17802 0.970772 0.160969 -0.936882 -0.169007 0.306085 0.130456 0.757571 -0.639584 -0.520261 -0.014046 0.853892 0.41336 0.900286 0.136448 0.137938 0.979868 -0.144332 0.50176 0.850778 -0.15625 -0.711676 -0.209287 0.670609 -0.376224 -0.287367 0.880838 0.529701 -0.150225 0.834775 -0.300891 0.788981 -0.535699 -0.997447 0.066398 0.026291 -0.957211 -0.0602 0.283059 -0.483575 0.689952 -0.538629 -0.121272 0.764401 0.633233 0.808948 0.458321 -0.368166 0.058162 0.733717 0.676962 0.558392 0.73704 -0.380748 0.338119 -0.545959 0.766553 0.545631 0.835867 -0.060116 0.514071 -0.052919 0.856113 -0.973985 0.169012 0.150957 -0.972574 0.089225 0.214799 -0.286496 -0.440089 0.851024 0.274724 0.799125 0.53472 0.422075 0.855561 0.299781 -0.973969 0.139471 0.178698 -0.738765 -0.087943 0.6682 0.312008 0.233595 0.920915 -0.277487 0.768619 0.57639 -0.628679 -0.543616 0.556097 0.180343 -0.968824 0.169869 0.151879 -0.982534 0.107515 0.024945 -0.996761 0.076461 0.117722 -0.926706 0.356872 0.147255 -0.975323 0.164504 0.223687 -0.96982 0.097026 0.231747 -0.933567 0.273398 0.67283 -0.55145 0.493155 0.909734 -0.401356 0.10629 0.847188 -0.500661 -0.177794 0.286384 -0.914522 0.285717 0.669802 -0.703626 -0.237226 0.623667 0.779997 0.051419 0.976719 0.176442 0.122016 0.339041 -0.216629 0.915491 0.312778 0.860342 0.40247 0.731546 0.389398 0.559651 0.608915 0.691599 0.388476 -0.02364 0.725665 0.687642 0.070701 0.906857 0.415465 0.856157 0.464549 0.226253 0.664224 0.621597 0.415239 0.397069 -0.917531 -0.021762 0.445001 0.48245 0.754464 0.34107 0.499542 0.796322 0.541679 -0.189974 0.818837 0.531154 -0.190903 0.825489 0.055704 -0.058377 0.996739 0.044512 0.461586 0.885978 0.595558 0.140318 0.790962 -0.229632 0.443683 0.866265 0.481436 -0.486086 -0.729341 -0.097363 -0.022232 -0.995001 0.555338 -0.808916 -0.193014 -0.441002 0.583065 -0.682314 -0.594204 0.640018 -0.487134 -0.685351 0.600595 -0.411801 0.911079 -0.157517 -0.380952 0.861106 0.092962 -0.499855 0.961418 0.137121 0.238482 0.624549 -0.552049 0.552432 0.139983 0.831668 0.53734 -0.310315 0.507894 0.803584 0.155051 -0.214795 0.964273 0.460227 0.6326 0.622903 0.125868 0.403203 0.906413 0.917328 -0.390903 -0.075527 0.997057 -0.060829 0.046656 0.550168 0.809267 -0.20592 -0.497397 0.789654 0.359225 -0.558422 -0.310005 0.769456 -0.538079 -0.208478 0.816706 0.572733 -0.403351 0.713642 0.709189 -0.264034 0.65371 -0.29368 0.941167 0.1672 -0.326749 0.929145 0.172987 0.278975 0.860228 -0.426826 -0.671231 0.739961 -0.043655 0.138483 0.740423 -0.657721 -0.453427 0.666443 -0.591825 -0.563476 0.168303 0.808807 0.513317 0.696351 0.501599 0.369848 0.644209 0.669483 0.324173 0.415277 -0.849975 -0.245791 0.736048 0.630729 0.626343 0.668123 0.40163 -0.207735 0.758948 0.617126 -0.361923 -0.371839 -0.854838 -0.503911 0.463601 -0.728799 0.23976 -0.099081 -0.965763 0.554375 0.630672 -0.543066 0.062052 0.412802 -0.908705 -0.203783 0.684559 -0.699894 0.086025 0.489344 -0.867837 -0.691842 0.672615 -0.262573 -0.734826 0.574088 0.361183 0.743435 0.540781 -0.393524 -0.260509 0.665983 -0.699001 -0.926924 0.023762 0.374496 -0.814806 -0.000591 -0.579733 -0.960101 -0.061168 -0.272882 -0.94382 -0.031595 -0.328947 -0.393921 -0.234006 -0.888857 -0.923705 -0.07573 -0.375545 -0.011135 -0.038853 -0.999183 -0.723167 0.499686 -0.476806 -0.032954 0.336038 -0.941272 0.624749 0.39216 -0.675203 0.531354 0.793885 0.29565 0.143693 0.756279 0.638275 0.065091 0.493906 0.867076 -0.696259 0.663198 0.274576 -0.759405 -0.186273 0.623384 0.391185 -0.224336 -0.892551 0.443276 -0.260383 -0.857734 0.405612 -0.189316 -0.894225 0.888465 -0.064634 -0.454371 0.884311 -0.076578 -0.460576 0.886358 -0.074335 -0.456994 0.951598 0.080161 0.296707 0.924558 0.044881 0.378389 0.37257 0.208466 0.904286 0.225984 0.168998 0.95936 -0.36307 0.197264 0.910641 -0.953635 0.120643 0.275725 -0.918711 0.093221 0.383772 -0.08357 0.251899 0.964138 -0.360315 0.553833 0.750628 0.369745 0.197559 0.907887 0.869283 0.235323 0.434708 -0.701524 0.6998 0.134703 -0.070681 0.743296 0.665218 -0.705028 0.703406 0.090306 0.675257 0.704292 0.219092 0.117947 0.819625 0.560627 -0.337618 0.924688 0.175974 0.656473 0.57038 -0.493671 0.366095 0.546481 -0.753215 -0.735054 0.271962 0.621073 -0.97614 0.152542 0.154535 -0.923657 0.098961 0.370222 -0.939445 0.064035 0.336664 -0.38532 0.184511 0.904149 -0.558881 0.638083 0.529624 -0.209433 0.253305 -0.944444 -0.306571 0.266294 -0.913839 -0.301191 0.854187 -0.42385 -0.744143 0.663693 -0.075909 -0.908785 0.06131 -0.412735 -0.912613 0.055193 -0.405081 -0.927115 -0.181661 0.327808 0.647106 0.520084 0.557464 0.625994 0.467227 0.624364 -0.959096 0.143801 -0.243836 -0.723097 0.49971 0.476887 -0.38378 0.467885 0.796113 -0.344713 -0.295586 0.890956 0.177162 0.564951 0.805881 0.471242 -0.185773 0.862217 0.569702 0.768495 0.291299 0.270608 0.909456 -0.315691 0.987616 0.110444 0.111429 0.987851 0.118715 0.100284 0.573389 0.332147 -0.748935 0.669969 0.35627 -0.651316 0.434836 0.395717 0.808904 0.93474 -0.280517 -0.21811 0.885806 0.174725 0.429905 0.710777 0.663562 -0.233412 0.462665 0.886517 -0.00538 0.110875 0.538748 0.835139 0.789047 -0.416049 -0.452005 0.802256 -0.402918 -0.440502 -0.887059 0.408342 0.21537 -0.725217 0.452593 0.518864 -0.389606 0.904052 -0.175776 -0.128049 0.244834 -0.961072 0.655515 0.286072 -0.698902 0.243652 0.952011 0.185224 0.763845 0.633282 -0.124479 0.090244 0.537282 0.838561 0.919139 0.090825 0.38332 -0.996044 0.08236 -0.033358 -0.940449 0.190132 -0.28179 -0.246558 0.025239 -0.968799 0.960061 0.279146 -0.018957 0.97469 -0.135452 0.177854 0.972788 -0.137764 0.186293 -0.526861 0.592777 0.609125 0.444225 -0.076865 0.892612 0.365538 -0.035638 0.930114 -0.644784 0.094473 0.758504 0.997009 0.02049 -0.074525 -0.93102 0.282228 -0.231405 -0.916261 0.306573 -0.257837 -0.60303 0.044488 0.796477 -0.59542 0.775943 -0.208296 -0.263698 0.813298 0.518662 0.006173 0.711918 -0.702235 0.334609 0.69842 0.63265 0.642847 0.605548 -0.469105 0.796412 0.592365 0.121783 -0.311535 -0.002967 -0.95023 -0.058856 0.032134 -0.997749 0.738953 -0.094047 -0.667161 -0.027595 0.849364 -0.527086</float_array>
          <technique_common>
            <accessor source="#Saltpeter-mesh-normals-array" count="498" stride="3">
              <param name="X" type="float"/>
              <param name="Y" type="float"/>
              <param name="Z" type="float"/>
            </accessor>
          </technique_common>
        </source>
        <source id="Saltpeter-mesh-map-0">
          <float_array id="Saltpeter-mesh-map-0-array" count="2988">0.099609 0.454834 0.061523 0.496582 0.039307 0.41626 0.099609 0.454834 0.039307 0.41626 0.11377 0.438965 0.099609 0.454834 0.11377 0.438965 0.156006 0.467041 0.156006 0.467041 0.11377 0.438965 0.159668 0.409912 0.159668 0.409912 0.11377 0.438965 0.124756 0.388184 0.124756 0.388184 0.11377 0.438965 0.039307 0.41626 0.124756 0.388184 0.039307 0.41626 0.06958 0.388672 0.124756 0.388184 0.06958 0.388672 0.110107 0.353271 0.06958 0.388672 0.039307 0.41626 0.046875 0.362305 0.06958 0.388672 0.046875 0.362305 0.110107 0.353271 0.110107 0.353271 0.046875 0.362305 0.092773 0.327637 0.647949 0.360596 0.669678 0.317871 0.737793 0.367188 0.669678 0.317871 0.647949 0.360596 0.583008 0.312988 0.647949 0.360596 0.737793 0.367188 0.695557 0.473389 0.695557 0.473389 0.737793 0.367188 0.754639 0.450684 0.754639 0.450684 0.737793 0.367188 0.776611 0.412842 0.776611 0.412842 0.737793 0.367188 0.804443 0.353027 0.804443 0.353027 0.737793 0.367188 0.801025 0.310303 0.776611 0.412842 0.804443 0.353027 0.820312 0.445068 0.776611 0.412842 0.820312 0.445068 0.754639 0.450684 0.754639 0.450684 0.820312 0.445068 0.786377 0.467773 0.754639 0.450684 0.786377 0.467773 0.792725 0.501953 0.792725 0.501953 0.786377 0.467773 0.820312 0.445068 0.775146 0.739014 0.7854 0.793213 0.754639 0.763916 0.7854 0.793213 0.775146 0.739014 0.819824 0.76416 0.819824 0.76416 0.775146 0.739014 0.820557 0.712891 0.695557 0.758545 0.754639 0.763916 0.72876 0.809082 0.754639 0.763916 0.695557 0.758545 0.714111 0.737305 0.775146 0.739014 0.754639 0.763916 0.757812 0.719482 0.757812 0.719482 0.754639 0.763916 0.714111 0.737305 0.820557 0.712891 0.775146 0.739014 0.774902 0.694336 0.774902 0.694336 0.775146 0.739014 0.757812 0.719482 0.820557 0.712891 0.774902 0.694336 0.811279 0.668945 0.757812 0.719482 0.714111 0.737305 0.733398 0.71167 0.757812 0.719482 0.733398 0.71167 0.774902 0.694336 0.733398 0.71167 0.714111 0.737305 0.703369 0.677979 0.811279 0.668945 0.774902 0.694336 0.761475 0.643066 0.761475 0.643066 0.774902 0.694336 0.733398 0.71167 0.761475 0.643066 0.733398 0.71167 0.703369 0.677979 0.811279 0.668945 0.761475 0.643066 0.821289 0.62085 0.761475 0.643066 0.703369 0.677979 0.718018 0.62793 0.821289 0.62085 0.761475 0.643066 0.749512 0.591553 0.749512 0.591553 0.761475 0.643066 0.718018 0.62793 0.821289 0.62085 0.749512 0.591553 0.811523 0.563232 0.749512 0.591553 0.718018 0.62793 0.700928 0.603027 0.996826 0.079102 0.965576 0.009277 0.999023 0 0.965576 0.009277 0.996826 0.079102 0.952881 0.056152 0.952881 0.056152 0.996826 0.079102 0.999512 0.110596 0.952881 0.056152 0.999512 0.110596 0.947754 0.092773 0.965576 0.009277 0.952881 0.056152 0.93335 0.001953 0.952881 0.056152 0.947754 0.092773 0.925049 0.067139 0.952881 0.056152 0.925049 0.067139 0.93335 0.001953 0.93335 0.001953 0.925049 0.067139 0.895508 0.015869 0.895508 0.015869 0.925049 0.067139 0.875488 0.050049 0.895508 0.015869 0.875488 0.050049 0.859375 0.021729 0.04248 0.533447 0.113037 0.544434 0.074951 0.600586 0.113037 0.544434 0.04248 0.533447 0.080811 0.513184 0.04248 0.533447 0.074951 0.600586 0.045898 0.637451 0.045898 0.637451 0.074951 0.600586 0.104004 0.637695 0.074951 0.600586 0.113037 0.544434 0.096924 0.598633 0.074951 0.600586 0.096924 0.598633 0.104004 0.637695 0.104004 0.637695 0.096924 0.598633 0.113037 0.544434 0.529297 0.35791 0.566162 0.311279 0.575684 0.381104 0.566162 0.311279 0.529297 0.35791 0.509277 0.332031 0.566162 0.311279 0.509277 0.332031 0.537842 0.273926 0.566162 0.311279 0.537842 0.273926 0.605225 0.288818 0.605225 0.288818 0.537842 0.273926 0.548584 0.229492 0.605225 0.288818 0.548584 0.229492 0.583496 0.21875 0.583496 0.21875 0.548584 0.229492 0.552246 0.179199 0.552246 0.179199 0.548584 0.229492 0.513672 0.178467 0.513672 0.178467 0.548584 0.229492 0.510498 0.216797 0.513672 0.178467 0.510498 0.216797 0.466553 0.2146 0.548584 0.229492 0.537842 0.273926 0.518311 0.255859 0.548584 0.229492 0.518311 0.255859 0.510498 0.216797 0.466553 0.2146 0.510498 0.216797 0.471924 0.255859 0.471924 0.255859 0.510498 0.216797 0.518311 0.255859 0.518311 0.255859 0.537842 0.273926 0.500732 0.286621 0.518311 0.255859 0.500732 0.286621 0.471924 0.255859 0.500732 0.286621 0.537842 0.273926 0.509277 0.332031 0.500732 0.286621 0.509277 0.332031 0.496094 0.30957 0.496094 0.30957 0.509277 0.332031 0.478516 0.309814 0.496094 0.30957 0.478516 0.309814 0.500732 0.286621 0.478516 0.309814 0.509277 0.332031 0.493164 0.348145 0.471924 0.255859 0.500732 0.286621 0.469238 0.264648 0.469238 0.264648 0.500732 0.286621 0.478516 0.309814 0.471924 0.255859 0.469238 0.264648 0.443604 0.258789 0.469238 0.264648 0.478516 0.309814 0.442139 0.316895 0.469238 0.264648 0.442139 0.316895 0.368164 0.308105 0.702881 0.300537 0.660889 0.261963 0.707764 0.232666 0.707764 0.232666 0.660889 0.261963 0.701172 0.199463 0.707764 0.232666 0.701172 0.199463 0.731445 0.20459 0.707764 0.232666 0.731445 0.20459 0.763428 0.258545 0.707764 0.232666 0.763428 0.258545 0.702881 0.300537 0.763428 0.258545 0.731445 0.20459 0.789795 0.223633 0.763428 0.258545 0.789795 0.223633 0.812256 0.240234 0.812256 0.240234 0.789795 0.223633 0.835693 0.196777 0.702881 0.300537 0.763428 0.258545 0.760254 0.296387 0.702881 0.300537 0.760254 0.296387 0.708008 0.328125 0.708008 0.328125 0.760254 0.296387 0.72583 0.338135 0.760254 0.296387 0.763428 0.258545 0.80127 0.293945 0.80127 0.293945 0.763428 0.258545 0.812256 0.240234 0.760254 0.296387 0.80127 0.293945 0.773438 0.325195 0.80127 0.293945 0.812256 0.240234 0.861816 0.354736 0.80127 0.293945 0.861816 0.354736 0.834961 0.378906 0.473877 0.370605 0.504395 0.350342 0.509033 0.375488 0.473877 0.370605 0.509033 0.375488 0.466797 0.418701 0.466797 0.418701 0.509033 0.375488 0.517578 0.433594 0.517578 0.433594 0.509033 0.375488 0.551758 0.386963 0.517578 0.433594 0.551758 0.386963 0.562988 0.441162 0.517578 0.433594 0.562988 0.441162 0.507324 0.466064 0.517578 0.433594 0.507324 0.466064 0.476807 0.453369 0.517578 0.433594 0.476807 0.453369 0.466797 0.418701 0.466797 0.418701 0.476807 0.453369 0.438965 0.426025 0.466797 0.418701 0.438965 0.426025 0.473877 0.370605 0.438965 0.426025 0.476807 0.453369 0.428955 0.45752 0.473877 0.370605 0.438965 0.426025 0.438965 0.369873 0.473877 0.370605 0.438965 0.369873 0.448486 0.331787 0.448486 0.331787 0.438965 0.369873 0.402588 0.334717 0.438965 0.369873 0.438965 0.426025 0.415283 0.385742 0.438965 0.369873 0.415283 0.385742 0.402588 0.334717 0.438965 0.426025 0.428955 0.45752 0.413086 0.430664 0.438965 0.426025 0.413086 0.430664 0.415283 0.385742 0.413086 0.430664 0.428955 0.45752 0.423828 0.475586 0.402588 0.334717 0.415283 0.385742 0.381592 0.376953 0.381592 0.376953 0.415283 0.385742 0.413086 0.430664 0.402588 0.334717 0.381592 0.376953 0.365479 0.341309 0.365479 0.341309 0.381592 0.376953 0.337646 0.364258 0.381592 0.376953 0.413086 0.430664 0.373047 0.408691 0.381592 0.376953 0.373047 0.408691 0.337646 0.364258 0.373047 0.408691 0.413086 0.430664 0.35498 0.447021 0.337646 0.364258 0.373047 0.408691 0.324951 0.409912 0.373047 0.408691 0.35498 0.447021 0.333008 0.425293 0.373047 0.408691 0.333008 0.425293 0.324951 0.409912 0.324951 0.409912 0.333008 0.425293 0.290039 0.431396 0.503418 0.112793 0.52124 0.156494 0.470459 0.143799 0.470459 0.143799 0.52124 0.156494 0.479248 0.193115 0.470459 0.143799 0.479248 0.193115 0.439697 0.163818 0.439697 0.163818 0.479248 0.193115 0.440186 0.20166 0.440186 0.20166 0.479248 0.193115 0.443115 0.227783 0.439697 0.163818 0.440186 0.20166 0.405029 0.20874 0.405029 0.20874 0.440186 0.20166 0.443115 0.227783 0.439697 0.163818 0.405029 0.20874 0.337646 0.159424 0.405029 0.20874 0.443115 0.227783 0.412109 0.26123 0.105713 0.873291 0.082031 0.831299 0.114014 0.838867 0.114014 0.838867 0.082031 0.831299 0.09375 0.793945 0.114014 0.838867 0.09375 0.793945 0.163574 0.770996 0.163574 0.770996 0.09375 0.793945 0.08252 0.744873 0.114014 0.838867 0.163574 0.770996 0.170654 0.810303 0.170654 0.810303 0.163574 0.770996 0.212158 0.794678 0.170654 0.810303 0.212158 0.794678 0.181885 0.853027 0.170654 0.810303 0.181885 0.853027 0.114014 0.838867 0.114014 0.838867 0.181885 0.853027 0.105713 0.873291 0.105713 0.873291 0.181885 0.853027 0.167969 0.896484 0.105713 0.873291 0.167969 0.896484 0.121826 0.91748 0.167969 0.896484 0.181885 0.853027 0.213623 0.898193 0.167969 0.896484 0.213623 0.898193 0.165283 0.936035 0.167969 0.896484 0.165283 0.936035 0.14917 0.914551 0.288574 0.372559 0.323486 0.392578 0.295898 0.396484 0.323486 0.392578 0.288574 0.372559 0.327148 0.358643 0.288574 0.372559 0.295898 0.396484 0.269287 0.373047 0.269287 0.373047 0.295898 0.396484 0.283203 0.427002 0.269287 0.373047 0.283203 0.427002 0.166748 0.411133 0.269287 0.373047 0.166748 0.411133 0.169189 0.376709 0.269287 0.373047 0.169189 0.376709 0.178223 0.323486 0.269287 0.373047 0.178223 0.323486 0.259521 0.330078 0.288574 0.372559 0.269287 0.373047 0.297363 0.332275 0.288574 0.372559 0.297363 0.332275 0.327148 0.358643 0.297363 0.332275 0.269287 0.373047 0.259521 0.330078 0.327148 0.358643 0.297363 0.332275 0.325439 0.298096 0.325439 0.298096 0.297363 0.332275 0.259521 0.330078 0.327148 0.358643 0.325439 0.298096 0.373535 0.316895 0.325439 0.298096 0.259521 0.330078 0.31543 0.275635 0.325439 0.298096 0.31543 0.275635 0.337158 0.272461 0.325439 0.298096 0.337158 0.272461 0.354004 0.302734 0.00708 0.591553 0.016602 0.552734 0.03125 0.560547 0.03125 0.560547 0.016602 0.552734 0.030518 0.543213 0.030518 0.543213 0.016602 0.552734 0.007324 0.512207 0.44043 0.585938 0.406738 0.598145 0.418457 0.56543 0.44043 0.585938 0.418457 0.56543 0.476074 0.459229 0.406738 0.598145 0.44043 0.585938 0.444824 0.594482 0.444824 0.594482 0.44043 0.585938 0.459229 0.587646 0.406738 0.598145 0.444824 0.594482 0.434814 0.62085 0.434814 0.62085 0.444824 0.594482 0.475342 0.630127 0.406738 0.598145 0.434814 0.62085 0.425293 0.645264 0.425293 0.645264 0.434814 0.62085 0.475342 0.630127 0.406738 0.598145 0.425293 0.645264 0.375977 0.640869 0.425293 0.645264 0.475342 0.630127 0.463623 0.659912 0.375977 0.640869 0.425293 0.645264 0.382324 0.678223 0.382324 0.678223 0.425293 0.645264 0.463623 0.659912 0.382324 0.678223 0.463623 0.659912 0.472412 0.711182 0.382324 0.678223 0.472412 0.711182 0.447021 0.752197 0.764648 0.835449 0.778076 0.870117 0.734619 0.851318 0.778076 0.870117 0.764648 0.835449 0.847168 0.743652 0.734619 0.851318 0.778076 0.870117 0.741943 0.888916 0.734619 0.851318 0.741943 0.888916 0.714111 0.896729 0.741943 0.888916 0.778076 0.870117 0.769043 0.898682 0.714111 0.896729 0.741943 0.888916 0.735596 0.909668 0.735596 0.909668 0.741943 0.888916 0.769043 0.898682 0.714111 0.896729 0.735596 0.909668 0.72876 0.940186 0.72876 0.940186 0.735596 0.909668 0.7854 0.909912 0.7854 0.909912 0.735596 0.909668 0.769043 0.898682 0.7854 0.909912 0.769043 0.898682 0.778076 0.870117 0.7854 0.909912 0.778076 0.870117 0.798096 0.915039 0.002197 0.687256 0.002441 0.645264 0.033691 0.660645 0.002197 0.687256 0.033691 0.660645 0.035889 0.68335 0.002197 0.687256 0.035889 0.68335 0.011475 0.718018 0.646484 0.096924 0.723145 0.092773 0.644775 0.134521 0.644775 0.134521 0.723145 0.092773 0.703613 0.154541 0.703613 0.154541 0.723145 0.092773 0.760254 0.093994 0.723145 0.092773 0.646484 0.096924 0.707764 0.077393 0.707764 0.077393 0.646484 0.096924 0.611816 0.076904 0.760254 0.093994 0.723145 0.092773 0.732422 0.061279 0.732422 0.061279 0.723145 0.092773 0.707764 0.077393 0.760254 0.093994 0.732422 0.061279 0.737549 0.023926 0.732422 0.061279 0.707764 0.077393 0.711182 0.064453 0.737549 0.023926 0.732422 0.061279 0.705078 0.052246 0.705078 0.052246 0.732422 0.061279 0.711182 0.064453 0.705078 0.052246 0.711182 0.064453 0.707764 0.077393 0.705078 0.052246 0.707764 0.077393 0.611816 0.076904 0.737549 0.023926 0.705078 0.052246 0.598877 0.026855 0.598877 0.026855 0.705078 0.052246 0.611816 0.076904 0.326172 0.775635 0.362061 0.751709 0.282959 0.838379 0.282959 0.838379 0.362061 0.751709 0.345947 0.782227 0.345947 0.782227 0.362061 0.751709 0.355713 0.780762 0.355713 0.780762 0.362061 0.751709 0.55127 0.822021 0.362061 0.751709 0.326172 0.775635 0.32959 0.719482 0.362061 0.751709 0.32959 0.719482 0.33252 0.665527 0.33252 0.665527 0.32959 0.719482 0.310547 0.685547 0.33252 0.665527 0.310547 0.685547 0.290771 0.64502 0.33252 0.665527 0.290771 0.64502 0.292969 0.59082 0.035889 0.76416 0.004395 0.808105 0.005371 0.756836 0.504395 0.075684 0.44165 0.100098 0.424561 0.050049 0.44165 0.100098 0.504395 0.075684 0.471191 0.133789 0.424561 0.050049 0.44165 0.100098 0.368164 0.123779 0.44165 0.100098 0.471191 0.133789 0.44043 0.141113 0.44165 0.100098 0.44043 0.141113 0.368164 0.123779 0.368164 0.123779 0.44043 0.141113 0.343506 0.154297 0.98877 0.260498 0.966797 0.290283 0.940918 0.26123 0.966797 0.290283 0.98877 0.260498 1 0.293213 0.966797 0.290283 1 0.293213 0.983643 0.332031 0.966797 0.290283 0.983643 0.332031 0.967529 0.340088 0.967529 0.340088 0.983643 0.332031 0.994141 0.370117 0.049561 0.305908 0.04248 0.224121 0.074463 0.332764 0.074463 0.332764 0.04248 0.224121 0.081543 0.213867 0.608398 0.365479 0.611084 0.42041 0.5896 0.378174 0.5896 0.378174 0.611084 0.42041 0.562988 0.460449 0.611084 0.42041 0.608398 0.365479 0.642334 0.383789 0.562988 0.460449 0.611084 0.42041 0.579834 0.496094 0.611084 0.42041 0.642334 0.383789 0.634521 0.456299 0.611084 0.42041 0.634521 0.456299 0.579834 0.496094 0.705811 0.483643 0.67627 0.504639 0.634521 0.456299 0.579834 0.496094 0.634521 0.456299 0.635254 0.520508 0.635254 0.520508 0.634521 0.456299 0.67627 0.504639 0.548828 0.538818 0.500244 0.50708 0.579834 0.496094 0.548828 0.538818 0.579834 0.496094 0.583496 0.578125 0.583496 0.578125 0.579834 0.496094 0.635254 0.520508 0.548828 0.538818 0.583496 0.578125 0.526855 0.578125 0.583496 0.578125 0.635254 0.520508 0.633301 0.569092 0.583496 0.578125 0.633301 0.569092 0.647217 0.632568 0.635254 0.520508 0.67627 0.504639 0.677246 0.575684 0.635254 0.520508 0.677246 0.575684 0.633301 0.569092 0.633301 0.569092 0.677246 0.575684 0.647217 0.632568 0.677246 0.575684 0.67627 0.504639 0.723633 0.523193 0.647217 0.632568 0.677246 0.575684 0.68457 0.644287 0.68457 0.644287 0.677246 0.575684 0.710449 0.632812 0.647217 0.632568 0.68457 0.644287 0.682373 0.695312 0.581299 1 0.611572 0.954834 0.654541 0.989746 0.654541 0.989746 0.611572 0.954834 0.651611 0.916748 0.611572 0.954834 0.581299 1 0.548584 0.928223 0.611572 0.954834 0.548584 0.928223 0.651611 0.916748 0.548584 0.928223 0.581299 1 0.510254 0.980469 0.651611 0.916748 0.548584 0.928223 0.577148 0.886475 0.650635 0.166504 0.700439 0.188965 0.665527 0.231689 0.700439 0.188965 0.650635 0.166504 0.762939 0.1521 0.650635 0.166504 0.665527 0.231689 0.621094 0.181641 0.621094 0.181641 0.665527 0.231689 0.614258 0.262207 0.621094 0.181641 0.614258 0.262207 0.593018 0.202148 0.621094 0.181641 0.593018 0.202148 0.553467 0.171631 0.621094 0.181641 0.553467 0.171631 0.581543 0.125977 0.621094 0.181641 0.581543 0.125977 0.650635 0.166504 0.650635 0.166504 0.581543 0.125977 0.628662 0.114746 0.354248 0.219971 0.324951 0.262939 0.306152 0.230957 0.306152 0.230957 0.324951 0.262939 0.220215 0.321777 0.324951 0.262939 0.354248 0.219971 0.359131 0.256592 0.359131 0.256592 0.354248 0.219971 0.403809 0.25293 0.403809 0.25293 0.354248 0.219971 0.387207 0.203857 0.21582 0.559082 0.247559 0.551025 0.25 0.59375 0.25 0.59375 0.247559 0.551025 0.2771 0.562012 0.25 0.59375 0.2771 0.562012 0.286377 0.587646 0.247559 0.551025 0.21582 0.559082 0.165039 0.423096 0.165039 0.423096 0.21582 0.559082 0.181885 0.557861 0.21582 0.559082 0.25 0.59375 0.231689 0.662598 0.231689 0.662598 0.25 0.59375 0.280029 0.623779 0.231689 0.662598 0.280029 0.623779 0.248047 0.716309 0.21582 0.559082 0.231689 0.662598 0.207764 0.666992 0.207764 0.666992 0.231689 0.662598 0.248047 0.716309 0.21582 0.559082 0.207764 0.666992 0.169922 0.689453 0.169922 0.689453 0.207764 0.666992 0.248047 0.716309 0.21582 0.559082 0.169922 0.689453 0.179932 0.568848 0.169922 0.689453 0.248047 0.716309 0.205566 0.784424 0.067871 0.693848 0.046387 0.670654 0.088135 0.680908 0.046387 0.670654 0.067871 0.693848 0.050049 0.714355 0.050049 0.714355 0.067871 0.693848 0.101562 0.732666 0.101562 0.732666 0.067871 0.693848 0.088135 0.680908 0.101562 0.732666 0.088135 0.680908 0.132812 0.740479 0.163574 0.946045 0.214844 0.908447 0.21582 0.954834 0.003174 0.602295 0.035156 0.605713 0.035156 0.654297 0.035156 0.605713 0.003174 0.602295 0.033936 0.579346 0.155762 0.762451 0.118164 0.705811 0.155518 0.712402 0.155518 0.712402 0.118164 0.705811 0.146973 0.662842 0.146973 0.662842 0.118164 0.705811 0.120361 0.63916 0.146973 0.662842 0.120361 0.63916 0.160645 0.584961 0.819824 0.91333 0.834473 0.954346 0.770752 0.930908 0.834473 0.954346 0.819824 0.91333 0.874756 0.925537 0.874756 0.925537 0.819824 0.91333 0.854248 0.851807 0.874756 0.925537 0.854248 0.851807 0.88501 0.880127 0.874756 0.925537 0.88501 0.880127 0.92334 0.889404 0.874756 0.925537 0.92334 0.889404 0.93335 0.957764 0.93335 0.957764 0.92334 0.889404 0.98584 0.895264 0.818848 0.067139 0.837891 0.024902 0.89502 0.076904 0.837891 0.024902 0.818848 0.067139 0.80127 0.027344 0.80127 0.027344 0.818848 0.067139 0.77002 0.056885 0.80127 0.027344 0.77002 0.056885 0.743896 0.02417 0.77002 0.056885 0.818848 0.067139 0.774658 0.090332 0.9375 0.185547 0.951172 0.233643 0.916992 0.221436 0.916992 0.221436 0.951172 0.233643 0.940186 0.25415 0.940186 0.25415 0.951172 0.233643 0.967285 0.252197 0.951172 0.233643 0.9375 0.185547 0.969971 0.192383 0.969971 0.192383 0.9375 0.185547 0.951172 0.148926 0.9375 0.185547 0.916992 0.221436 0.896973 0.183105 0.896973 0.183105 0.916992 0.221436 0.866943 0.225342 0.896973 0.183105 0.866943 0.225342 0.839355 0.190918 0.951172 0.148926 0.9375 0.185547 0.9104 0.139404 0.9104 0.139404 0.9375 0.185547 0.896973 0.183105 0.951172 0.148926 0.9104 0.139404 0.961914 0.112793 0.9104 0.139404 0.896973 0.183105 0.878418 0.145264 0.878418 0.145264 0.896973 0.183105 0.839355 0.190918 0.9104 0.139404 0.878418 0.145264 0.877441 0.117676 0.877441 0.117676 0.878418 0.145264 0.827881 0.121582 0.878418 0.145264 0.839355 0.190918 0.835693 0.156738 0.878418 0.145264 0.835693 0.156738 0.827881 0.121582 0.835693 0.156738 0.839355 0.190918 0.779541 0.198486 0.827881 0.121582 0.835693 0.156738 0.792969 0.123291 0.582275 0.695557 0.484863 0.662842 0.606689 0.6604 0.606689 0.6604 0.484863 0.662842 0.493896 0.630859 0.484863 0.662842 0.582275 0.695557 0.489014 0.718018 0.606689 0.6604 0.493896 0.630859 0.608154 0.607422 0.608154 0.607422 0.493896 0.630859 0.515381 0.597168 0.515381 0.597168 0.493896 0.630859 0.490723 0.623047 0.515381 0.597168 0.490723 0.623047 0.480469 0.490967 0.582275 0.695557 0.606689 0.6604 0.61792 0.701416 0.582275 0.695557 0.61792 0.701416 0.589844 0.729004 0.582275 0.695557 0.589844 0.729004 0.489014 0.718018 0.589844 0.729004 0.61792 0.701416 0.614746 0.760986 0.589844 0.729004 0.614746 0.760986 0.479248 0.768066 0.589844 0.729004 0.479248 0.768066 0.489014 0.718018 0.489014 0.718018 0.479248 0.768066 0.469482 0.727295 0.469482 0.727295 0.479248 0.768066 0.462891 0.783447 0.951416 0.315674 0.939453 0.375 0.928711 0.334229 0.939453 0.375 0.951416 0.315674 0.98999 0.448486 0.928711 0.334229 0.939453 0.375 0.881836 0.364014 0.928711 0.334229 0.881836 0.364014 0.899414 0.314697 0.928711 0.334229 0.899414 0.314697 0.951416 0.315674 0.951416 0.315674 0.899414 0.314697 0.933594 0.255859 0.933594 0.255859 0.899414 0.314697 0.881836 0.272217 0.094238 0.208496 0.116211 0.258789 0.085205 0.269775 0.085205 0.269775 0.116211 0.258789 0.126465 0.306152 0.085205 0.269775 0.126465 0.306152 0.081299 0.302734 0.126465 0.306152 0.116211 0.258789 0.157227 0.284912 0.081299 0.302734 0.126465 0.306152 0.112793 0.34082 0.126465 0.306152 0.157227 0.284912 0.163574 0.323975 0.126465 0.306152 0.163574 0.323975 0.112793 0.34082 0.163574 0.323975 0.157227 0.284912 0.218262 0.296631 0.112793 0.34082 0.163574 0.323975 0.146484 0.370117 0.146484 0.370117 0.163574 0.323975 0.165527 0.368408 0.096191 0.962891 0.105713 0.914551 0.156494 0.949219 0.105713 0.914551 0.096191 0.962891 0.040527 0.866455 0.105713 0.914551 0.040527 0.866455 0.070068 0.83252 0.040527 0.866455 0.096191 0.962891 0.044189 0.951904 0.248047 0.539551 0.186768 0.443115 0.24707 0.460449 0.24707 0.460449 0.186768 0.443115 0.212891 0.423584 0.248047 0.539551 0.24707 0.460449 0.306396 0.549316 0.306396 0.549316 0.24707 0.460449 0.319092 0.490723 0.306396 0.549316 0.319092 0.490723 0.352783 0.559326 0.306396 0.549316 0.352783 0.559326 0.341064 0.592285 0.352783 0.559326 0.319092 0.490723 0.391357 0.473389 0.391357 0.473389 0.319092 0.490723 0.335693 0.468506 0.391357 0.473389 0.335693 0.468506 0.399902 0.441162 0.352783 0.559326 0.391357 0.473389 0.395752 0.545654 0.341064 0.592285 0.352783 0.559326 0.388428 0.589355 0.341064 0.592285 0.388428 0.589355 0.367676 0.646729 0.341064 0.592285 0.367676 0.646729 0.32666 0.596191 0.32666 0.596191 0.367676 0.646729 0.389648 0.734131 0.931641 0.787842 0.933594 0.678955 0.993896 0.68042 0.933594 0.678955 0.931641 0.787842 0.863525 0.690918 0.931641 0.787842 0.993896 0.68042 0.995605 0.807129 0.863525 0.690918 0.931641 0.787842 0.837646 0.821777 0.931641 0.787842 0.995605 0.807129 0.93042 0.883789 0.931641 0.787842 0.93042 0.883789 0.837646 0.821777 0.594482 0.028564 0.577148 0.063477 0.527588 0.023926 0.527588 0.023926 0.577148 0.063477 0.509521 0.044189 0.509521 0.044189 0.577148 0.063477 0.531982 0.095215 0.509521 0.044189 0.531982 0.095215 0.465576 0.024658 0.531982 0.095215 0.577148 0.063477 0.571533 0.112549 0.531982 0.095215 0.571533 0.112549 0.526611 0.172363 0.083984 0.137207 0.118408 0.13916 0.103027 0.197266 0.103027 0.197266 0.118408 0.13916 0.144531 0.185303 0.118408 0.13916 0.083984 0.137207 0.085693 0.061035 0.144531 0.185303 0.118408 0.13916 0.163574 0.156494 0.163574 0.156494 0.118408 0.13916 0.085693 0.061035 0.163574 0.156494 0.085693 0.061035 0.120117 0.046143 0.163574 0.156494 0.120117 0.046143 0.17749 0.084717 0.163574 0.156494 0.17749 0.084717 0.218262 0.17041 0.218262 0.17041 0.17749 0.084717 0.210449 0.059326 0.218262 0.17041 0.210449 0.059326 0.240723 0.124023 0.240723 0.124023 0.210449 0.059326 0.245117 0.04834 0.937988 0.551758 0.930176 0.674561 0.88623 0.616943 0.930176 0.674561 0.937988 0.551758 0.999756 0.55542 0.937988 0.551758 0.88623 0.616943 0.873779 0.499023 0.873779 0.499023 0.88623 0.616943 0.834961 0.577881 0.873779 0.499023 0.834961 0.577881 0.786377 0.525635 0.873779 0.499023 0.786377 0.525635 0.853516 0.423096 0.999756 0.55542 0.937988 0.551758 0.960693 0.475342 0.960693 0.475342 0.937988 0.551758 0.873779 0.499023 0.999756 0.55542 0.960693 0.475342 0.980957 0.447021 0.873779 0.499023 0.853516 0.423096 0.959229 0.45166 0.873779 0.499023 0.959229 0.45166 0.960693 0.475342 0.960693 0.475342 0.959229 0.45166 0.980957 0.447021 0.959229 0.45166 0.853516 0.423096 0.891113 0.371338 0.959229 0.45166 0.891113 0.371338 0.980957 0.447021 0.556641 0.835693 0.555664 0.790771 0.57959 0.793945 0.556641 0.835693 0.57959 0.793945 0.578857 0.827148 0.525635 0.822998 0.556641 0.835693 0.471436 0.857178 0.471436 0.857178 0.556641 0.835693 0.476562 0.918701 0.476562 0.918701 0.556641 0.835693 0.578369 0.879639 0.578369 0.879639 0.556641 0.835693 0.578857 0.827148 0.578369 0.879639 0.578857 0.827148 0.661865 0.913086 0.661865 0.913086 0.578857 0.827148 0.674072 0.884033 0.661865 0.913086 0.674072 0.884033 0.714355 0.918945 0.714355 0.918945 0.674072 0.884033 0.693604 0.855713 0.693604 0.855713 0.674072 0.884033 0.578857 0.827148 0.693604 0.855713 0.578857 0.827148 0.589844 0.780762 0.693604 0.855713 0.589844 0.780762 0.719727 0.838135 0.010498 0.424561 0.026611 0.362305 0.035889 0.428955 0.026611 0.362305 0.010498 0.424561 0.001221 0.351562 0.010498 0.424561 0.035889 0.428955 0.000244 0.449707 0.195312 0.843506 0.228516 0.835205 0.218506 0.894531 0.218506 0.894531 0.228516 0.835205 0.258057 0.851074 0.258057 0.851074 0.228516 0.835205 0.278809 0.69873 0.218506 0.894531 0.258057 0.851074 0.274902 0.885742 0.274902 0.885742 0.258057 0.851074 0.408447 0.809082 0.218506 0.894531 0.274902 0.885742 0.261475 0.929688 0.218506 0.894531 0.261475 0.929688 0.227295 0.950195 0.274902 0.885742 0.408447 0.809082 0.418945 0.860596 0.274902 0.885742 0.418945 0.860596 0.261475 0.929688 0.261475 0.929688 0.418945 0.860596 0.227295 0.950195 0.227295 0.950195 0.418945 0.860596 0.311768 0.932373 0.311768 0.932373 0.418945 0.860596 0.382812 0.908936 0.122559 0.549805 0.107422 0.51709 0.126465 0.511719 0.126465 0.511719 0.107422 0.51709 0.118408 0.472412 0.122559 0.549805 0.126465 0.511719 0.151611 0.515137 0.122559 0.549805 0.151611 0.515137 0.160645 0.546387 0.122559 0.549805 0.160645 0.546387 0.108643 0.648193 0.65918 0.999756 0.770752 0.968994 0.767334 0.999756 0.770752 0.968994 0.65918 0.999756 0.659668 0.962646 0.287842 0.162109 0.333984 0.065674 0.361572 0.084473 0.333984 0.065674 0.287842 0.162109 0.270264 0.131104 0.361572 0.084473 0.333984 0.065674 0.365723 0.052979 0.361572 0.084473 0.365723 0.052979 0.4021 0.067871 0.4021 0.067871 0.365723 0.052979 0.357666 0.01709 0.365723 0.052979 0.333984 0.065674 0.335449 0.034424 0.365723 0.052979 0.335449 0.034424 0.357666 0.01709 0.335449 0.034424 0.333984 0.065674 0.23877 0.019043 0.335449 0.034424 0.23877 0.019043 0.357666 0.01709 0.077148 0.136475 0 0.175293 0.002441 0.130859 0 0.175293 0.077148 0.136475 0.094482 0.190918 0 0.175293 0.094482 0.190918 0.009521 0.233154 0.032959 0.796875 0.032959 0.835938 0.000244 0.819092 0.029053 0.447021 0.029053 0.531006 0.002197 0.455322 0.228271 0.293213 0.2771 0.163574 0.304932 0.217773 0.304932 0.217773 0.2771 0.163574 0.364746 0.207764 0.2771 0.163574 0.228271 0.293213 0.228271 0.172607 0.228271 0.172607 0.228271 0.293213 0.182129 0.278564 0.228271 0.172607 0.182129 0.278564 0.165771 0.194824 0.035889 0.702637 0.035889 0.758545 0.002197 0.739014 0.046875 0.041748 0.065918 0.084717 0.035889 0.0896 0.065918 0.084717 0.046875 0.041748 0.081787 0.055176 0.046875 0.041748 0.035889 0.0896 0.023926 0.032227 0.081787 0.055176 0.046875 0.041748 0.076904 0.018799 0.076904 0.018799 0.046875 0.041748 0.023926 0.032227 0.081787 0.055176 0.076904 0.018799 0.101807 0.040527 0.076904 0.018799 0.023926 0.032227 0.046387 0.000977 0.101807 0.040527 0.076904 0.018799 0.109863 0.018311 0.109863 0.018311 0.076904 0.018799 0.046387 0.000977 0.299805 0.970947 0.384277 0.91748 0.33667 0.968994 0.384277 0.91748 0.299805 0.970947 0.290039 0.945068 0.505615 0.967529 0.505615 0.993652 0.405518 0.984863 0.032227 0.842285 0.015381 0.865967 0.002197 0.829834</float_array>
          <technique_common>
            <accessor source="#Saltpeter-mesh-map-0-array" count="1494" stride="2">
              <param name="S" type="float"/>
              <param name="T" type="float"/>
            </accessor>
          </technique_common>
        </source>
        <vertices id="Saltpeter-mesh-vertices">
          <input semantic="POSITION" source="#Saltpeter-mesh-positions"/>
        </vertices>
        <polylist material="Material_-1-material" count="6">
          <input semantic="VERTEX" source="#Saltpeter-mesh-vertices" offset="0"/>
          <input semantic="NORMAL" source="#Saltpeter-mesh-normals" offset="1"/>
          <input semantic="TEXCOORD" source="#Saltpeter-mesh-map-0" offset="2" set="0"/>
          <vcount>3 3 3 3 3 3 3 3 3 3 3 3 3 3 3 3 3 3 3 3 3 3 3 3 3 3 3 3 3 3 3 3 3 3 3 3 3 3 3 3 3 3 3 3 3 3 3 3 3 3 3 3 3 3 3 3 3 3 3 3 3 3 3 3 3 3 3 3 3 3 3 3 3 3 3 3 3 3 3 3 3 3 3 3 3 3 3 3 3 3 3 3 3 3 3 3 3 3 3 3 3 3 3 3 3 3 3 3 3 3 3 3 3 3 3 3 3 3 3 3 3 3 3 3 3 3 3 3 3 3 3 3 3 3 3 3 3 3 3 3 3 3 3 3 3 3 3 3 3 3 3 3 3 3 3 3 3 3 3 3 3 3 3 3 3 3 3 3 3 3 3 3 3 3 3 3 3 3 3 3 3 3 3 3 3 3 3 3 3 3 3 3 3 3 3 3 3 3 3 3 3 3 3 3 3 3 3 3 3 3 3 3 3 3 3 3 3 3 3 3 3 3 3 3 3 3 3 3 3 3 3 3 3 3 3 3 3 3 3 3 3 3 3 3 3 3 3 3 3 3 3 3 3 3 3 3 3 3 3 3 3 3 3 3 3 3 3 3 3 3 3 3 3 3 3 3 3 3 3 3 3 3 3 3 3 3 3 3 3 3 3 3 3 3 3 3 3 3 3 3 3 3 3 3 3 3 3 3 3 3 3 3 3 3 3 3 3 3 3 3 3 3 3 3 3 3 3 3 3 3 3 3 3 3 3 3 3 3 3 3 3 3 3 3 3 3 3 3 3 3 3 3 3 3 3 3 3 3 3 3 3 3 3 3 3 3 3 3 3 3 3 3 3 3 3 3 3 3 3 3 3 3 3 3 3 3 3 3 3 3 3 3 3 3 3 3 3 3 3 3 3 3 3 3 3 3 3 3 3 3 3 3 3 3 3 3 3 3 3 3 3 3 3 3 3 3 3 3 3 3 3 3 3 3 3 3 3 3 3 3 3 3 3 3 3 3 3 3 3 3 3 3 3 3 3 3 3 3 3 3 3 3 3 3 3 3 3 3 3 3 3 3 3 3 3 3 3 3 3 3 3 3 3 3 3 3 3 3 3 3 3 3 3 3 3 3 3 3</vcount>
          <p>0 0 0 1 0 1 2 0 2 0 1 3 2 1 4 3 1 5 0 2 6 3 2 7 4 2 8 4 3 9 3 3 10 5 3 11 5 4 12 3 4 13 6 4 14 6 5 15 3 5 16 2 5 17 6 6 18 2 6 19 7 6 20 6 7 21 7 7 22 8 7 23 7 8 24 2 8 25 9 8 26 7 9 27 9 9 28 8 9 29 8 10 30 9 10 31 10 10 32 1 11 33 11 11 34 12 11 35 11 12 36 1 12 37 13 12 38 1 13 39 12 13 40 2 13 41 2 14 42 12 14 43 9 14 44 9 15 45 12 15 46 14 15 47 14 16 48 12 16 49 15 16 50 15 17 51 12 17 52 16 17 53 14 18 54 15 18 55 17 18 56 14 19 57 17 19 58 9 19 59 9 20 60 17 20 61 18 20 62 9 21 63 18 21 64 10 21 65 10 22 66 18 22 67 17 22 68 19 23 69 0 23 70 4 23 71 0 24 72 19 24 73 1 24 74 1 25 75 19 25 76 13 25 77 20 26 78 4 26 79 5 26 80 4 27 81 20 27 82 21 27 83 19 28 84 4 28 85 22 28 86 22 29 87 4 29 88 21 29 89 13 30 90 19 30 91 23 30 92 23 31 93 19 31 94 22 31 95 13 32 96 23 32 97 24 32 98 22 33 99 21 33 100 25 33 101 22 34 102 25 34 103 23 34 104 25 35 105 21 35 106 26 35 107 24 36 108 23 36 109 27 36 110 27 37 111 23 37 112 25 37 113 27 38 114 25 38 115 26 38 116 24 39 117 27 39 118 28 39 119 27 40 120 26 40 121 29 40 122 28 41 123 27 41 124 30 41 125 30 42 126 27 42 127 29 42 128 28 43 129 30 43 130 31 43 131 30 44 132 29 44 133 32 44 134 33 45 135 8 45 136 10 45 137 8 46 138 33 46 139 34 46 140 34 47 141 33 47 142 35 47 143 34 48 144 35 48 145 36 48 146 8 49 147 34 49 148 6 49 149 34 50 150 36 50 151 37 50 152 34 51 153 37 51 154 6 51 155 6 52 156 37 52 157 5 52 158 5 53 159 37 53 160 38 53 161 5 54 162 38 54 163 39 54 164 10 55 165 40 55 166 41 55 167 40 56 168 10 56 169 42 56 170 10 57 171 41 57 172 33 57 173 33 58 174 41 58 175 35 58 176 41 59 177 40 59 178 43 59 179 41 60 180 43 60 181 35 60 182 35 61 183 43 61 184 40 61 185 39 62 186 20 62 187 5 62 188 20 63 189 39 63 190 44 63 191 20 64 192 44 64 193 45 64 194 20 65 195 45 65 196 21 65 197 21 66 198 45 66 199 46 66 200 21 67 201 46 67 202 26 67 203 26 68 204 46 68 205 29 68 206 29 69 207 46 69 208 32 69 209 32 70 210 46 70 211 47 70 212 32 71 213 47 71 214 48 71 215 46 72 216 45 72 217 49 72 218 46 73 219 49 73 220 47 73 221 48 74 222 47 74 223 50 74 224 50 75 225 47 75 226 49 75 227 49 76 228 45 76 229 51 76 230 49 77 231 51 77 232 50 77 233 51 78 234 45 78 235 44 78 236 51 79 237 44 79 238 52 79 239 52 80 240 44 80 241 53 80 242 52 81 243 53 81 244 51 81 245 53 82 246 44 82 247 54 82 248 50 83 249 51 83 250 55 83 251 55 84 252 51 84 253 53 84 254 50 85 255 55 85 256 56 85 257 55 86 258 53 86 259 57 86 260 55 87 261 57 87 262 58 87 263 38 88 264 37 88 265 59 88 266 59 89 267 37 89 268 60 89 269 59 90 270 60 90 271 61 90 272 59 91 273 61 91 274 62 91 275 59 92 276 62 92 277 38 92 278 62 93 279 61 93 280 63 93 281 62 94 282 63 94 283 64 94 284 64 95 285 63 95 286 65 95 287 38 96 288 62 96 289 54 96 290 38 97 291 54 97 292 39 97 293 39 98 294 54 98 295 44 98 296 54 99 297 62 99 298 57 99 299 57 100 300 62 100 301 64 100 302 54 101 303 57 101 304 53 101 305 57 102 306 64 102 307 66 102 308 57 103 309 66 103 310 58 103 311 16 104 312 12 104 313 11 104 314 16 105 315 11 105 316 67 105 317 67 106 318 11 106 319 68 106 320 68 107 321 11 107 322 13 107 323 68 108 324 13 108 325 24 108 326 68 109 327 24 109 328 69 109 329 68 110 330 69 110 331 70 110 332 68 111 333 70 111 334 67 111 335 67 112 336 70 112 337 71 112 338 67 113 339 71 113 340 16 113 341 71 114 342 70 114 343 72 114 344 16 115 345 71 115 346 73 115 347 16 116 348 73 116 349 15 116 350 15 117 351 73 117 352 74 117 353 73 118 354 71 118 355 75 118 356 73 119 357 75 119 358 74 119 359 71 120 360 72 120 361 76 120 362 71 121 363 76 121 364 75 121 365 76 122 366 72 122 367 77 122 368 74 123 369 75 123 370 78 123 371 78 124 372 75 124 373 76 124 374 74 125 375 78 125 376 79 125 377 79 126 378 78 126 379 80 126 380 78 127 381 76 127 382 81 127 383 78 128 384 81 128 385 80 128 386 81 129 387 76 129 388 82 129 389 80 130 390 81 130 391 83 130 392 81 131 393 82 131 394 84 131 395 81 132 396 84 132 397 83 132 398 83 133 399 84 133 400 85 133 401 17 134 402 15 134 403 86 134 404 86 135 405 15 135 406 74 135 407 86 136 408 74 136 409 87 136 410 87 137 411 74 137 412 88 137 413 88 138 414 74 138 415 79 138 416 87 139 417 88 139 418 89 139 419 89 140 420 88 140 421 79 140 422 87 141 423 89 141 424 90 141 425 89 142 426 79 142 427 80 142 428 17 143 429 86 143 430 91 143 431 91 144 432 86 144 433 87 144 434 91 145 435 87 145 436 92 145 437 92 146 438 87 146 439 93 146 440 91 147 441 92 147 442 94 147 443 94 148 444 92 148 445 95 148 446 94 149 447 95 149 448 96 149 449 94 150 450 96 150 451 91 150 452 91 151 453 96 151 454 17 151 455 17 152 456 96 152 457 42 152 458 17 153 459 42 153 460 10 153 461 42 154 462 96 154 463 97 154 464 42 155 465 97 155 466 98 155 467 42 156 468 98 156 469 99 156 470 100 157 471 42 157 472 99 157 473 42 158 474 100 158 475 40 158 476 100 159 477 99 159 478 101 159 479 101 160 480 99 160 481 102 160 482 101 161 483 102 161 484 103 161 485 101 162 486 103 162 487 104 162 488 101 163 489 104 163 490 105 163 491 101 164 492 105 164 493 63 164 494 100 165 495 101 165 496 106 165 497 100 166 498 106 166 499 40 166 500 106 167 501 101 167 502 63 167 503 40 168 504 106 168 505 36 168 506 36 169 507 106 169 508 63 169 509 40 170 510 36 170 511 35 170 512 36 171 513 63 171 514 61 171 515 36 172 516 61 172 517 60 172 518 36 173 519 60 173 520 37 173 521 99 174 522 98 174 523 102 174 524 102 175 525 98 175 526 107 175 527 107 176 528 98 176 529 93 176 530 108 177 531 109 177 532 110 177 533 108 178 534 110 178 535 111 178 536 109 179 537 108 179 538 112 179 539 112 180 540 108 180 541 113 180 542 109 181 543 112 181 544 114 181 545 114 182 546 112 182 547 115 182 548 109 183 549 114 183 550 116 183 551 116 184 552 114 184 553 115 184 554 109 185 555 116 185 556 117 185 557 116 186 558 115 186 559 118 186 560 117 187 561 116 187 562 119 187 563 119 188 564 116 188 565 118 188 566 119 189 567 118 189 568 120 189 569 119 190 570 120 190 571 121 190 572 56 191 573 122 191 574 123 191 575 122 192 576 56 192 577 124 192 578 123 193 579 122 193 580 125 193 581 123 194 582 125 194 583 126 194 584 125 195 585 122 195 586 127 195 587 126 196 588 125 196 589 128 196 590 128 197 591 125 197 592 127 197 593 126 198 594 128 198 595 129 198 596 129 199 597 128 199 598 130 199 599 130 200 600 128 200 601 127 200 602 130 201 603 127 201 604 122 201 605 130 202 606 122 202 607 131 202 608 48 203 609 50 203 610 56 203 611 48 204 612 56 204 613 123 204 614 48 205 615 123 205 616 132 205 617 126 206 618 133 206 619 123 206 620 123 207 621 133 207 622 132 207 623 132 208 624 133 208 625 134 208 626 133 209 627 126 209 628 135 209 629 135 210 630 126 210 631 129 210 632 134 211 633 133 211 634 136 211 635 136 212 636 133 212 637 135 212 638 134 213 639 136 213 640 111 213 641 136 214 642 135 214 643 137 214 644 111 215 645 136 215 646 138 215 647 138 216 648 136 216 649 137 216 650 138 217 651 137 217 652 135 217 653 138 218 654 135 218 655 129 218 656 111 219 657 138 219 658 108 219 659 108 220 660 138 220 661 129 220 662 129 221 663 139 221 664 108 221 665 108 222 666 139 222 667 113 222 668 113 223 669 139 223 670 140 223 671 140 224 672 139 224 673 141 224 674 139 225 675 129 225 676 130 225 677 139 226 678 130 226 679 142 226 680 142 227 681 130 227 682 131 227 683 142 228 684 131 228 685 143 228 686 142 229 687 143 229 688 144 229 689 145 230 690 30 230 691 32 230 692 145 231 693 146 231 694 30 231 695 146 232 696 145 232 697 117 232 698 30 233 699 146 233 700 31 233 701 146 234 702 117 234 703 119 234 704 146 235 705 119 235 706 31 235 707 31 236 708 119 236 709 147 236 710 48 237 711 145 237 712 32 237 713 145 238 714 48 238 715 132 238 716 145 239 717 132 239 718 110 239 719 145 240 720 110 240 721 117 240 722 117 241 723 110 241 724 109 241 725 132 242 726 134 242 727 110 242 728 110 243 729 134 243 730 111 243 731 69 244 732 148 244 733 70 244 734 70 245 735 148 245 736 72 245 737 148 246 738 69 246 739 149 246 740 72 247 741 148 247 742 77 247 743 148 248 744 149 248 745 150 248 746 148 249 747 150 249 748 77 249 749 151 250 750 152 250 751 150 250 752 77 251 753 150 251 754 153 251 755 153 252 756 150 252 757 152 252 758 82 253 759 76 253 760 77 253 761 82 254 762 77 254 763 85 254 764 85 255 765 77 255 766 153 255 767 82 256 768 85 256 769 84 256 770 85 257 771 153 257 772 154 257 773 85 258 774 154 258 775 155 258 776 153 259 777 152 259 778 156 259 779 153 260 780 156 260 781 154 260 782 154 261 783 156 261 784 155 261 785 156 262 786 152 262 787 157 262 788 155 263 789 156 263 790 158 263 791 158 264 792 156 264 793 159 264 794 155 265 795 158 265 796 160 265 797 83 266 798 161 266 799 80 266 800 80 267 801 161 267 802 162 267 803 161 268 804 83 268 805 163 268 806 161 269 807 163 269 808 162 269 809 163 270 810 83 270 811 164 270 812 162 271 813 163 271 814 165 271 815 166 272 816 89 272 817 80 272 818 89 273 819 166 273 820 167 273 821 166 274 822 80 274 823 168 274 824 168 275 825 80 275 826 162 275 827 168 276 828 162 276 829 165 276 830 168 277 831 165 277 832 169 277 833 168 278 834 169 278 835 170 278 836 168 279 837 170 279 838 166 279 839 166 280 840 170 280 841 171 280 842 165 281 843 172 281 844 169 281 845 169 282 846 172 282 847 173 282 848 172 283 849 165 283 850 174 283 851 174 284 852 165 284 853 175 284 854 175 285 855 165 285 856 163 285 857 176 286 858 172 286 859 177 286 860 177 287 861 172 287 862 174 287 863 177 288 864 174 288 865 175 288 866 172 289 867 176 289 868 178 289 869 178 290 870 176 290 871 179 290 872 176 291 873 177 291 874 180 291 875 180 292 876 177 292 877 181 292 878 180 293 879 181 293 880 182 293 881 176 294 882 180 294 883 183 294 884 183 295 885 180 295 886 182 295 887 176 296 888 183 296 889 160 296 890 160 297 891 183 297 892 182 297 893 176 298 894 160 298 895 184 298 896 160 299 897 182 299 898 155 299 899 185 300 900 176 300 901 184 300 902 176 301 903 185 301 904 179 301 905 179 302 906 185 302 907 186 302 908 186 303 909 185 303 910 184 303 911 186 304 912 184 304 913 187 304 914 181 305 915 163 305 916 164 305 917 181 306 918 175 306 919 163 306 920 175 307 921 181 307 922 177 307 923 83 308 924 85 308 925 164 308 926 164 309 927 85 309 928 181 309 929 181 310 930 85 310 931 155 310 932 181 311 933 155 311 934 182 311 935 28 312 936 69 312 937 24 312 938 69 313 939 28 313 940 149 313 941 149 314 942 28 314 943 31 314 944 149 315 945 31 315 946 147 315 947 149 316 948 147 316 949 188 316 950 149 317 951 188 317 952 150 317 953 150 318 954 188 318 955 151 318 956 121 319 957 147 319 958 119 319 959 147 320 960 121 320 961 188 320 962 188 321 963 121 321 964 189 321 965 188 322 966 189 322 967 151 322 968 189 323 969 121 323 970 190 323 971 191 324 972 192 324 973 193 324 974 193 325 975 192 325 976 194 325 977 194 326 978 192 326 979 195 326 980 192 327 981 191 327 982 118 327 983 118 328 984 191 328 985 120 328 986 191 329 987 193 329 988 196 329 989 196 330 990 193 330 991 197 330 992 196 331 993 197 331 994 159 331 995 120 332 996 191 332 997 190 332 998 190 333 999 191 333 1000 196 333 1001 120 334 1002 190 334 1003 121 334 1004 190 335 1005 196 335 1006 198 335 1007 198 336 1008 196 336 1009 159 336 1010 190 337 1011 198 337 1012 189 337 1013 189 338 1014 198 338 1015 151 338 1016 198 339 1017 159 339 1018 157 339 1019 198 340 1020 157 340 1021 151 340 1022 157 341 1023 159 341 1024 156 341 1025 151 342 1026 157 342 1027 152 342 1028 199 343 1029 112 343 1030 200 343 1031 200 344 1032 112 344 1033 113 344 1034 112 345 1035 199 345 1036 115 345 1037 200 346 1038 113 346 1039 201 346 1040 201 347 1041 113 347 1042 202 347 1043 202 348 1044 113 348 1045 140 348 1046 202 349 1047 140 349 1048 203 349 1049 199 350 1050 200 350 1051 204 350 1052 199 351 1053 204 351 1054 205 351 1055 199 352 1056 205 352 1057 115 352 1058 205 353 1059 204 353 1060 201 353 1061 205 354 1062 201 354 1063 195 354 1064 205 355 1065 195 355 1066 115 355 1067 115 356 1068 195 356 1069 118 356 1070 118 357 1071 195 357 1072 192 357 1073 184 358 1074 158 358 1075 206 358 1076 158 359 1077 184 359 1078 160 359 1079 206 360 1080 158 360 1081 159 360 1082 206 361 1083 159 361 1084 197 361 1085 206 362 1086 197 362 1087 184 362 1088 184 363 1089 197 363 1090 187 363 1091 187 364 1092 197 364 1093 193 364 1094 193 365 1095 207 365 1096 187 365 1097 187 366 1098 207 366 1099 208 366 1100 187 367 1101 208 367 1102 186 367 1103 208 368 1104 207 368 1105 194 368 1106 186 369 1107 208 369 1108 179 369 1109 208 370 1110 194 370 1111 209 370 1112 208 371 1113 209 371 1114 179 371 1115 209 372 1116 194 372 1117 210 372 1118 179 373 1119 209 373 1120 211 373 1121 211 374 1122 209 374 1123 144 374 1124 95 375 1125 97 375 1126 96 375 1127 97 376 1128 95 376 1129 93 376 1130 97 377 1131 93 377 1132 98 377 1133 93 378 1134 95 378 1135 92 378 1136 87 379 1137 90 379 1138 212 379 1139 212 380 1140 90 380 1141 213 380 1142 87 381 1143 212 381 1144 93 381 1145 93 382 1146 212 382 1147 214 382 1148 93 383 1149 214 383 1150 215 383 1151 93 384 1152 215 384 1153 107 384 1154 215 385 1155 214 385 1156 216 385 1157 216 386 1158 214 386 1159 171 386 1160 216 387 1161 171 387 1162 170 387 1163 215 388 1164 216 388 1165 217 388 1166 107 389 1167 215 389 1168 218 389 1169 107 390 1170 218 390 1171 219 390 1172 107 391 1173 219 391 1174 102 391 1175 102 392 1176 219 392 1177 103 392 1178 220 393 1179 104 393 1180 103 393 1181 104 394 1182 220 394 1183 105 394 1184 220 395 1185 103 395 1186 221 395 1187 105 396 1188 220 396 1189 222 396 1190 220 397 1191 221 397 1192 223 397 1193 220 398 1194 223 398 1195 222 398 1196 212 399 1197 213 399 1198 214 399 1199 214 400 1200 213 400 1201 171 400 1202 171 401 1203 213 401 1204 167 401 1205 171 402 1206 167 402 1207 166 402 1208 167 403 1209 213 403 1210 90 403 1211 167 404 1212 90 404 1213 89 404 1214 105 405 1215 224 405 1216 63 405 1217 63 406 1218 224 406 1219 65 406 1220 224 407 1221 105 407 1222 222 407 1223 65 408 1224 224 408 1225 225 408 1226 225 409 1227 224 409 1228 222 409 1229 225 410 1230 222 410 1231 226 410 1232 225 411 1233 226 411 1234 227 411 1235 225 412 1236 227 412 1237 144 412 1238 144 413 1239 227 413 1240 228 413 1241 144 414 1242 228 414 1243 229 414 1244 229 415 1245 228 415 1246 230 415 1247 231 416 1248 103 416 1249 230 416 1250 103 417 1251 231 417 1252 221 417 1253 231 418 1254 230 418 1255 232 418 1256 232 419 1257 230 419 1258 228 419 1259 232 420 1260 228 420 1261 227 420 1262 232 421 1263 227 421 1264 226 421 1265 221 422 1266 231 422 1267 233 422 1268 233 423 1269 231 423 1270 232 423 1271 221 424 1272 233 424 1273 223 424 1274 232 425 1275 226 425 1276 234 425 1277 232 426 1278 234 426 1279 233 426 1280 233 427 1281 234 427 1282 223 427 1283 234 428 1284 226 428 1285 222 428 1286 234 429 1287 222 429 1288 223 429 1289 218 430 1290 215 430 1291 217 430 1292 218 431 1293 217 431 1294 235 431 1295 219 432 1296 218 432 1297 103 432 1298 103 433 1299 218 433 1300 230 433 1301 230 434 1302 218 434 1303 229 434 1304 229 435 1305 218 435 1306 235 435 1307 229 436 1308 235 436 1309 236 436 1310 236 437 1311 235 437 1312 237 437 1313 236 438 1314 237 438 1315 238 438 1316 238 439 1317 237 439 1318 239 439 1319 239 440 1320 237 440 1321 235 440 1322 239 441 1323 235 441 1324 169 441 1325 239 442 1326 169 442 1327 173 442 1328 217 443 1329 170 443 1330 169 443 1331 170 444 1332 217 444 1333 216 444 1334 217 445 1335 169 445 1336 235 445 1337 239 446 1338 173 446 1339 238 446 1340 238 447 1341 173 447 1342 178 447 1343 178 448 1344 173 448 1345 172 448 1346 238 449 1347 178 449 1348 240 449 1349 240 450 1350 178 450 1351 179 450 1352 238 451 1353 240 451 1354 241 451 1355 238 452 1356 241 452 1357 236 452 1358 240 453 1359 179 453 1360 211 453 1361 240 454 1362 211 454 1363 241 454 1364 241 455 1365 211 455 1366 236 455 1367 236 456 1368 211 456 1369 229 456 1370 229 457 1371 211 457 1372 144 457 1373 65 458 1374 225 458 1375 143 458 1376 143 459 1377 225 459 1378 144 459 1379 65 460 1380 143 460 1381 131 460 1382 65 461 1383 131 461 1384 122 461 1385 65 462 1386 122 462 1387 242 462 1388 58 463 1389 56 463 1390 55 463 1391 56 464 1392 58 464 1393 124 464 1394 64 465 1395 242 465 1396 66 465 1397 242 466 1398 64 466 1399 65 466 1400 66 467 1401 242 467 1402 243 467 1403 66 468 1404 243 468 1405 58 468 1406 58 469 1407 243 469 1408 124 469 1409 243 470 1410 242 470 1411 244 470 1412 243 471 1413 244 471 1414 124 471 1415 244 472 1416 242 472 1417 122 472 1418 244 473 1419 122 473 1420 124 473 1421 210 474 1422 142 474 1423 209 474 1424 142 475 1425 210 475 1426 245 475 1427 142 476 1428 245 476 1429 139 476 1430 142 477 1431 144 477 1432 209 477 1433 246 478 1434 202 478 1435 203 478 1436 246 479 1437 195 479 1438 202 479 1439 202 480 1440 195 480 1441 201 480 1442 195 481 1443 246 481 1444 194 481 1445 194 482 1446 246 482 1447 247 482 1448 194 483 1449 247 483 1450 210 483 1451 207 484 1452 193 484 1453 194 484 1454 248 485 1455 245 485 1456 210 485 1457 245 486 1458 248 486 1459 249 486 1460 248 487 1461 210 487 1462 247 487 1463 249 488 1464 248 488 1465 250 488 1466 250 489 1467 248 489 1468 247 489 1469 249 490 1470 250 490 1471 141 490 1472 250 491 1473 247 491 1474 246 491 1475 141 492 1476 250 492 1477 203 492 1478 203 493 1479 250 493 1480 246 493 1481 249 494 1482 139 494 1483 245 494 1484 139 495 1485 249 495 1486 141 495 1487 141 496 1488 203 496 1489 140 496 1490 204 497 1491 200 497 1492 201 497 1493</p>
        </polylist>
      </mesh>
    </geometry>
  </library_geometries>
  <library_visual_scenes>
    <visual_scene id="Scene" name="Scene">
      <node id="Saltpeter" name="Saltpeter" type="NODE">
        <scale sid="scale">1 1 1</scale>
        <translate sid="location">0 0 0</translate>
        <rotate sid="rotationX">1 0 0 0</rotate>
        <rotate sid="rotationY">0 1 0 0</rotate>
        <rotate sid="rotationZ">0 0 1 0</rotate>
        <instance_geometry url="#Saltpeter-mesh" name="Saltpeter">
          <bind_material>
            <technique_common>
            </technique_common>
          </bind_material>
        </instance_geometry>
      </node>
    </visual_scene>
  </library_visual_scenes>
  <scene>
    <instance_visual_scene url="#Scene"/>
  </scene>
</COLLADA>
