<?xml version="1.0" encoding="utf-8"?>
<COLLADA xmlns="http://www.collada.org/2005/11/COLLADASchema" version="1.4.1" xmlns:xsi="http://www.w3.org/2001/XMLSchema-instance">
  <asset>
    <contributor>
      <author>Blockbench user</author>
      <authoring_tool>Blockbench</authoring_tool>
    </contributor>
    <created>2025-11-15T01:04:34.911Z</created>
    <modified>2025-11-15T01:04:34.911Z</modified>
    <unit name="meter" meter="1.0"/>
    <up_axis>Y_UP</up_axis>
  </asset>
  <library_effects>
  </library_effects>
  <library_images>
  </library_images>
  <library_materials>
  </library_materials>
  <library_geometries>
    <geometry id="SeaCucumber-mesh" name="SeaCucumber">
      <mesh>
        <source id="SeaCucumber-mesh-positions">
          <float_array id="SeaCucumber-mesh-positions-array" count="753">-0.154987 -0.058173 -0.229577 -0.191975 -0.084998 -0.333611 -0.088551 -0.059028 -0.301964 -0.137867 0.006738 -0.326928 -0.060627 -0.128623 -0.255089 -0.12891 -0.123222 -0.215752 -0.208241 -0.061484 -0.172692 -0.173801 -0.113181 -0.173607 -0.210941 -0.198722 -0.194024 -0.146626 -0.188316 -0.112374 -0.205051 -0.123771 -0.063622 -0.186787 -0.020499 -0.035218 -0.194294 0.025826 -0.093056 -0.202061 0.019692 -0.233483 -0.183277 0.021279 -0.282708 -0.211277 0.081906 -0.204064 -0.177891 0.06862 -0.07914 -0.18729 0.163621 -0.157387 -0.206882 0.142552 -0.258934 -0.140141 0.115861 -0.329003 -0.046482 -0.19509 -0.191948 -0.056828 -0.229209 -0.151711 0.107517 -0.089484 -0.261864 0.054398 -0.161521 -0.237755 0.024996 -0.116157 -0.302147 0.104778 -0.028907 -0.318657 -0.035858 -0.066962 -0.323113 0.046471 -0.029548 -0.355736 0.174099 -0.105186 -0.213189 0.157818 -0.070518 -0.231865 0.15115 -0.131187 -0.196831 0.129856 -0.180106 -0.146355 0.067467 -0.228019 -0.162682 -0.112186 -0.239371 -0.10215 0.058643 -0.25521 -0.104195 -0.073551 -0.274284 -0.047303 -0.199833 -0.182395 -0.019638 -0.198215 -0.126853 0.049923 -0.156696 -0.247886 0.056055 -0.201176 -0.162925 0.090051 -0.235889 -0.27233 -0.007439 -0.119907 -0.256675 -0.010567 -0.098591 -0.28231 0.052702 0.094776 -0.287345 0.008461 0.146709 -0.225242 -0.051697 0.171459 -0.191825 -0.091622 0.12952 -0.259116 0.00798 0.249859 -0.27169 -0.005661 0.180569 -0.239738 0.042299 0.061722 -0.314445 0.097187 -0.053501 -0.309714 0.058502 0.195156 -0.237937 0.095165 0.12112 -0.292014 0.121112 0.051296 -0.326133 0.154846 0.191952 -0.200217 0.153068 0.077847 -0.315452 0.194435 0.217785 -0.33242 0.172813 -0.171207 0.061219 -0.415551 -0.089855 0.082439 -0.383904 -0.130863 0.041135 -0.323906 -0.200352 0.158765 -0.311516 -0.130528 0.162904 -0.376793 -0.061314 0.113065 -0.406304 -0.139912 0.212113 -0.363854 -0.178776 0.216714 -0.280297 -0.067669 0.221528 -0.406853 -0.005853 0.154706 -0.427422 0.126041 0.157483 -0.388909 -0.053539 -0.002875 -0.369622 0.072224 0.08517 -0.399498 0.135433 0.029267 -0.337914 0.107006 0.097673 -0.380852 -0.284702 0.04313 0.000793 -0.14719 0.138093 -0.0794 -0.24625 0.198876 -0.086327 -0.222172 0.142083 0.007545 -0.113377 0.11605 -0.0084 -0.163151 0.041634 -0.002312 -0.078945 0.152333 0.012359 -0.105526 0.176362 -0.020173 -0.081875 0.229394 -0.036972 0.2048 -0.084434 -0.335717 0.223965 -0.19799 -0.19204 0.183987 -0.124412 -0.141152 0.21516 -0.124763 -0.071206 0.218838 -0.061195 -0.182793 0.203548 -0.016936 -0.056191 0.187344 0.077384 -0.072716 0.297451 0.044362 0.000602 0.220211 0.053937 -0.197075 0.222256 0.048505 -0.25219 0.164074 0.002343 -0.280114 0.205318 0.139886 -0.151375 0.204525 0.149545 -0.307213 0.208431 -0.182304 -0.024514 0.21603 -0.121665 -0.014115 0.203304 -0.176505 0.05797 0.173946 -0.0792 0.138603 0.184673 0.062074 -0.417534 0.154827 0.10386 -0.325066 0.166058 0.149564 -0.062996 0.188625 0.191857 -0.128273 0.126972 0.133515 -0.000374 0.047947 0.175576 0.014083 0.105572 0.196595 -0.030297 0.175564 0.096322 -0.014809 0.085102 0.083817 0.051801 0.154613 0.022645 0.054376 0.177685 0.004792 0.006553 0.198681 0.216943 -0.202965 0.28088 0.239816 -0.14576 0.157391 0.252251 -0.132592 0.070927 0.268411 -0.051911 0.08485 0.288033 0.018379 -0.226826 0.261636 -0.346276 -0.156742 0.288842 -0.33416 -0.129169 0.298287 -0.374291 -0.180973 0.316705 -0.297936 -0.074978 0.361489 -0.397637 -0.178364 0.248391 -0.195214 -0.014114 0.259927 -0.419457 0.004857 0.311028 -0.425835 -0.12952 0.402902 -0.33239 0.073849 0.436684 -0.379723 -0.043289 0.435189 -0.384026 -0.075001 0.469613 -0.340813 0.030087 0.485116 -0.36126 -0.072681 0.511239 -0.29934 -0.091846 0.491738 -0.260003 0.070301 0.51957 -0.236901 -0.131123 0.409371 -0.214898 -0.054462 0.469491 -0.165932 -0.157444 0.304284 -0.191033 -0.147907 0.209969 -0.109063 -0.068287 0.275689 -0.044571 -0.224293 0.307076 -0.128823 -0.132938 0.270959 -0.123238 -0.04073 0.309014 -0.082528 -0.124592 0.34176 -0.152123 -0.188694 0.405221 -0.165688 0.007784 0.39457 -0.095299 0.031752 0.476052 -0.146447 0.08289 0.343911 -0.097832 0.122524 0.477914 -0.202141 0.14732 0.378487 -0.160042 0.162731 0.313027 -0.173684 0.232723 0.400185 -0.188134 0.18745 0.334496 -0.248253 0.073101 0.515511 -0.321862 0.133068 0.461861 -0.301262 0.134457 0.396767 -0.35241 0.106251 0.289513 -0.399193 0.173656 0.305627 -0.329766 0.12949 0.226601 -0.380669 0.187923 0.206925 -0.321953 0.252026 0.26162 -0.351494 0.006804 0.210969 -0.013337 -0.149937 -0.264457 0.106128 -0.17725 -0.22689 0.147255 -0.206989 -0.333732 0.172287 -0.160435 -0.079826 0.148056 -0.13451 -0.275535 0.203529 -0.172504 -0.166038 0.206901 -0.04565 -0.331046 0.125927 -0.099224 -0.29766 0.136032 -0.053181 -0.326896 0.210502 -0.116772 -0.308982 0.273933 0.09515 -0.319846 0.262245 -0.102276 -0.305137 0.298667 -0.143635 -0.254203 0.322517 0.139828 -0.291892 0.28907 0.050156 -0.320701 0.335456 -0.059475 -0.32775 0.323799 -0.166645 -0.226493 0.25605 -0.157581 -0.16854 0.294578 -0.158253 -0.116416 0.212837 -0.151615 -0.142661 0.352272 -0.141636 -0.104285 0.269935 -0.237904 -0.142432 0.338569 -0.235859 -0.048392 0.208976 -0.131641 -0.045631 0.217094 -0.149998 -0.007636 0.100191 -0.088535 0.028939 0.151275 -0.047413 0.029336 0.179214 0.082577 0.030587 0.16143 -0.065395 0.064175 0.12405 -0.060253 0.089473 0.090944 -0.138721 0.063187 0.057077 -0.151905 0.005883 0.0554 -0.098461 0.092981 0.055744 -0.222202 -0.033134 0.077832 -0.172504 -0.029899 0.014644 -0.175922 -0.078208 0.057349 0.169857 -0.241599 0.194114 0.178677 -0.225303 0.246147 0.171078 -0.16674 0.290733 0.169064 -0.115684 0.215187 0.122967 -0.0279 0.20919 0.138866 -0.084266 0.288795 0.248165 -0.047294 0.209144 -0.145725 -0.219749 0.391151 -0.140141 -0.15911 0.420967 -0.099628 -0.073829 0.405403 -0.128468 -0.181846 0.494148 -0.069904 -0.095191 0.485237 -0.129887 -0.040321 0.479774 -0.098522 -0.061271 0.33274 -0.063824 -0.006423 0.29 -0.142597 -0.358054 0.349464 -0.069996 -0.304221 0.370399 -0.09132 -0.298759 0.443763 0.061592 -0.328696 0.394905 -0.047535 -0.325248 0.40406 0.092876 -0.308402 0.431739 -0.054245 -0.292045 0.518776 -0.056076 -0.197684 0.562446 0.05447 -0.133186 0.541572 0.082638 -0.065589 0.428291 0.056808 -0.216758 0.566291 0.137234 -0.179465 0.496162 0.105633 -0.250144 0.515419 0.01248 -0.28057 0.555091 0.072002 -0.30355 0.501014 -0.060253 -0.324302 0.479988 0.152645 -0.355399 0.35102 0.161999 -0.248832 0.323371 0.156673 -0.132087 0.349525 0.247677 -0.142173 0.336891 0.153439 -0.169547 0.428657 0.111515 -0.110618 0.46244 0.140026 -0.040061 0.480842 -0.084461 0.123595 0.051834 0.009725 0.156728 0.048467 0.03269 0.102014 0.028823 0.043755 0.088995 0.124919 0.103298 0.06564 0.103084 0.172695 -0.034339 0.113174 0.270687 -0.018935 0.094072 0.022604 0.006699 0.211341 0.077198 0.06049 0.27053 0.185955 -0.072669 0.056442 0.220898 -0.029716 0.059739 -0.062962 0.067878 0.252677 0.069248 -0.021659 0.286872 -0.058949 -0.044578 0.372871 -0.099842 0.030457 0.35746 0.037983 -0.03408 0.382942 0.119312 -0.055717 0.32505 -0.02644 -0.025275 0.318489 0.052505 -0.024902 0.32798 -0.048615 -0.06684 0.443946</float_array>
          <technique_common>
            <accessor source="#SeaCucumber-mesh-positions-array" count="251" stride="3">
              <param name="X" type="float"/>
              <param name="Y" type="float"/>
              <param name="Z" type="float"/>
            </accessor>
          </technique_common>
        </source>
        <source id="SeaCucumber-mesh-normals">
          <float_array id="SeaCucumber-mesh-normals-array" count="1494">0.186525 -0.965333 0.182593 0.317696 -0.118853 -0.940714 -0.486409 -0.363824 -0.794379 -0.593036 -0.599772 -0.537198 -0.657562 -0.399378 -0.638835 -0.666488 -0.43327 -0.606688 -0.570912 0.416719 -0.707393 -0.782064 0.198561 0.590719 -0.80734 -0.51973 -0.279432 -0.801533 -0.52904 -0.278678 -0.983443 0.143478 0.1107 -0.988814 0.02363 0.147268 -0.648744 -0.423908 -0.632008 -0.992344 0.112956 0.049952 -0.753452 -0.478146 -0.451316 -0.477434 -0.853279 -0.209696 -0.982638 -0.174874 0.061988 -0.934194 0.029731 -0.355525 -0.924219 0.264777 0.275158 -0.954847 0.126821 0.268671 -0.968688 0.201474 0.145092 -0.962022 -0.141489 -0.233439 -0.725259 -0.006206 -0.688448 0.577659 -0.731738 -0.361759 -0.466871 -0.71006 -0.527111 -0.533459 -0.572505 -0.622623 0.042568 -0.345172 -0.937574 -0.227674 -0.936524 -0.266621 -0.207236 -0.51349 -0.832695 0.229904 -0.959261 0.1642 -0.309861 -0.61354 -0.72633 0.501045 -0.579744 -0.642535 0.105196 -0.276925 -0.955116 -0.353916 -0.701446 -0.618641 -0.371452 0.007843 -0.928419 0.407045 -0.545373 -0.732723 0.552821 -0.178829 -0.813885 0.448458 -0.724835 -0.522972 0.447594 -0.729088 -0.517775 0.162967 -0.931904 -0.324033 0.249966 0.004454 -0.968244 -0.050444 -0.755304 -0.653431 -0.527708 -0.494307 -0.690785 -0.091677 -0.950383 -0.297267 -0.086252 -0.866855 -0.491042 -0.79535 -0.574955 -0.191948 -0.750544 -0.438029 -0.494786 -0.99727 -0.044627 0.05883 -0.916879 -0.301258 0.26187 -0.879662 -0.319602 -0.352207 -0.649244 0.35176 0.67435 -0.483425 -0.851831 -0.201703 -0.656089 -0.729546 -0.193155 -0.009077 -0.130832 -0.991363 0.136354 -0.969595 0.203208 -0.509528 -0.843476 -0.17009 -0.475462 -0.859409 -0.188022 -0.046849 -0.994697 -0.091561 0.018157 -0.959932 -0.279643 0.493324 -0.781845 -0.381248 0.486821 -0.794435 -0.363151 0.291107 -0.34081 -0.893927 0.044182 -0.914869 0.401325 0.588982 -0.572598 -0.570291 0.60811 -0.752752 -0.252123 -0.146863 -0.84148 -0.519945 -0.02948 -0.850989 0.524356 0.562176 -0.699441 -0.441294 0.506024 -0.859343 -0.073959 0.052485 -0.960361 -0.273775 0.493354 -0.863257 -0.10672 0.45632 -0.80582 -0.377394 0.390974 -0.913261 -0.11443 0.624154 -0.638403 0.450415 0.423179 -0.90518 -0.039597 0.457023 -0.043381 -0.888396 -0.169956 -0.90515 -0.389638 0.361192 -0.864902 -0.348547 -0.015018 0.847906 -0.529934 -0.918659 -0.087789 0.385174 -0.868976 0.216056 -0.445198 -0.582745 -0.127102 -0.802654 -0.650895 0.196951 -0.733175 -0.853333 0.490425 0.176936 -0.649944 -0.265603 -0.712059 -0.488109 -0.171092 -0.855848 -0.683578 0.060889 -0.727333 -0.775552 0.497862 -0.388139 -0.519373 0.1233 -0.845605 -0.379171 -0.066674 -0.922921 -0.37447 0.028733 -0.926794 0.223184 -0.660719 -0.716687 -0.60983 -0.73286 -0.301701 -0.588888 -0.806774 -0.048247 -0.419668 -0.57979 -0.698371 -0.455905 -0.332289 -0.825672 -0.104305 -0.738108 -0.666571 -0.090432 -0.201757 -0.975252 -0.071212 -0.544767 -0.835558 0.230252 -0.591181 -0.772974 0.154307 0.065332 -0.985861 0.530039 -0.281761 -0.799794 0.471338 -0.490914 -0.732696 0.252654 -0.888985 -0.381932 -0.60204 0.446107 -0.66222 -0.596918 -0.662226 -0.45293 -0.782633 0.347788 0.516264 -0.522432 -0.852617 -0.010464 -0.712245 0.312398 -0.628582 0.253288 0.951472 0.174773 0.141755 -0.013838 0.989805 -0.7541 0.433205 0.493627 -0.795813 -0.06529 0.602012 -0.8371 0.464741 0.288581 0.221875 -0.948181 0.22743 -0.453544 -0.620391 -0.639853 -0.448413 -0.539859 -0.712375 -0.209693 -0.976504 -0.049692 0.621176 0.645176 -0.444847 0.877949 0.166608 0.448829 0.825812 -0.425446 -0.370176 0.708685 -0.616577 -0.342926 0.721508 -0.611592 -0.324625 0.724231 -0.685604 -0.073726 0.63314 -0.115014 -0.765445 0.991724 0.094733 0.086655 0.542226 -0.053755 -0.838511 0.955651 0.201765 0.214529 0.992902 0.002908 0.118898 0.99926 -0.007229 0.037789 0.642609 -0.423818 -0.638304 0.98691 0.159919 0.020857 0.984381 0.175955 0.005897 0.905326 0.177713 0.38575 0.593336 -0.47923 -0.646754 0.19566 0.592531 -0.781425 0.640854 -0.523547 -0.561431 0.623051 -0.745243 -0.237527 0.405785 -0.004699 -0.913957 0.639437 0.430692 0.636887 0.877191 -0.027723 -0.47934 0.835301 -0.549527 0.017091 0.993713 0.109953 -0.02111 0.988162 -0.136005 0.070983 0.931075 -0.355295 0.082852 0.966232 0.092105 0.240651 0.929704 -0.272999 -0.247227 0.955942 0.048504 0.28952 0.989045 0.142597 -0.038165 -0.549653 -0.59591 -0.585468 0.862244 -0.295085 0.411656 0.262477 0.908296 -0.325736 0.0701 0.093262 -0.993171 0.646647 -0.384807 -0.658613 0.049113 0.78477 -0.617838 0.672351 -0.529112 -0.517672 0.564524 -0.31615 -0.762471 0.708229 -0.063024 -0.703165 0.662981 -0.496878 -0.559972 0.946331 0.251787 0.202634 0.909711 -0.060779 0.41077 0.912187 0.118643 0.392223 0.816756 0.166468 0.552447 0.47825 0.731508 0.485977 0.564113 0.162673 0.809514 0.5733 0.806053 -0.146987 0.51563 0.374586 0.770591 0.449193 0.540377 0.71149 0.910771 0.113745 0.396935 0.9818 0.064446 0.178651 -0.210276 0.733623 0.646206 0.303345 -0.854807 0.421055 0.955098 0.217191 0.201533 0.996296 0.085986 0.00026 0.411599 -0.879228 -0.239882 0.118196 0.131514 0.984243 0.738722 0.419758 0.527346 0.670383 0.454238 0.586731 0.642552 0.487815 0.590901 0.895737 0.349364 -0.274955 -0.514964 -0.835078 -0.193537 -0.362426 0.626209 0.690297 0.019431 0.36455 -0.930981 -0.520166 0.206609 -0.828697 -0.735479 -0.340874 -0.585555 -0.825749 0.014923 -0.56384 -0.712258 0.396846 -0.578966 -0.96866 0.234278 -0.082533 -0.86963 -0.420995 -0.25789 -0.897342 0.415003 -0.150163 -0.264068 0.052172 -0.963092 -0.320956 0.140189 -0.936661 -0.360336 0.017366 -0.932661 -0.355321 -0.040301 -0.933875 -0.710158 0.148858 -0.688125 -0.082814 0.38308 -0.919995 0.034059 0.167324 -0.985313 -0.575826 0.381166 -0.723282 -0.57574 0.379047 -0.724463 -0.235861 0.668327 -0.705485 -0.234874 0.692598 -0.682014 -0.753997 0.576427 -0.314992 -0.903196 0.327166 -0.277848 -0.873072 0.471495 -0.124244 -0.206827 0.912935 0.351814 -0.893777 0.446914 0.037826 -0.710677 0.566973 0.416509 -0.92818 0.286431 0.23757 -0.850564 0.522923 0.055608 -0.987072 0.139305 0.079263 -0.858172 0.281833 0.429083 -0.756314 0.454834 0.470229 -0.221735 0.787696 -0.574777 0.167953 0.377499 0.910652 -0.915114 0.324627 0.239132 -0.644526 0.294033 -0.705784 -0.348692 -0.808745 0.47365 -0.656801 -0.494253 0.569497 -0.485379 0.800865 0.350746 0.088604 0.36729 0.925877 -0.38542 0.805403 -0.450308 -0.499859 0.377035 0.779734 -0.516798 -0.355551 0.778783 -0.490809 0.394286 0.776946 0.483341 0.620274 0.617772 -0.484344 0.352493 0.800725 -0.703333 0.446004 0.553536 -0.746779 0.247337 0.61737 -0.740649 0.314818 0.593572 0.059636 0.144618 0.987689 -0.649299 -0.010071 -0.760467 -0.222606 0.564447 0.794887 0.32109 0.433952 0.841776 0.45815 0.457647 0.762009 0.096345 0.09329 0.990966 -0.151594 0.794747 0.587704 0.071856 0.509975 0.857183 0.489838 0.440671 0.752241 0.680278 0.299181 0.669114 0.691176 0.012133 0.722585 0.712904 0.348721 0.608409 0.336726 -0.115476 0.934495 0.885598 0.204227 0.417142 0.903105 0.22677 0.364661 0.045479 0.903325 -0.426538 -0.036803 0.998125 -0.048898 -0.106757 0.840207 -0.531653 0.669262 0.742905 -0.013436 0.302646 0.565841 -0.766961 0.029142 0.378941 -0.924962 0.629193 0.46379 -0.623711 0.644714 0.76245 -0.0549 0.607232 0.498861 -0.61839 0.518965 0.223413 -0.825083 0.286634 0.187403 -0.939532 0.697293 0.124524 -0.705887 0.888628 0.294934 -0.351219 0.922705 0.286724 -0.257692 0.914346 0.403676 0.031887 0.909964 0.332093 0.248356 -0.370243 0.75301 -0.543963 0.783684 -0.615652 0.082534 -0.202824 0.931815 0.300969 -0.154169 0.914429 0.374235 0.298986 0.803886 0.514174 0.276944 0.10011 -0.955657 0.279935 0.094298 -0.955377 0.722311 0.031521 -0.69085 0.715903 0.047322 -0.696594 0.210993 -0.203565 -0.956056 0.209739 -0.197388 -0.957626 0.709903 0.055499 -0.702109 0.327997 0.121567 0.936824 0.054834 0.51886 -0.853099 0.348608 -0.727646 -0.590765 0.985803 0.134542 -0.100456 0.962042 0.250588 -0.108078 0.984069 0.026276 -0.175835 -0.08076 0.616236 0.78341 -0.687444 0.723257 -0.065734 0.086484 -0.452802 0.887407 -0.890428 -0.454128 -0.030095 -0.507402 -0.836172 -0.20823 -0.871932 -0.464531 -0.154742 -0.794935 0.080377 -0.601347 -0.874692 0.097425 0.474786 -0.587206 0.335981 0.736414 -0.992823 0.113719 -0.03702 -0.866936 -0.312766 0.388072 -0.492133 -0.849751 -0.189018 -0.204175 -0.512475 -0.834075 -0.187121 -0.872901 0.450587 -0.152786 -0.49381 -0.856042 0.10317 -0.978305 -0.179656 -0.533221 -0.845282 -0.034264 -0.207487 -0.572939 0.7929 -0.016885 -0.683249 -0.72999 0.418627 -0.77527 0.472977 -0.53384 -0.845583 -0.001905 -0.143959 -0.948183 -0.283238 0.108566 -0.97568 0.190424 -0.498219 -0.825094 -0.266455 -0.036671 -0.970723 0.237385 0.076488 -0.993535 -0.083897 -0.040668 -0.983422 0.176712 -0.58093 -0.680697 0.446286 0.067061 -0.744548 0.664192 0.028443 -0.872868 -0.487128 0.122159 -0.625356 -0.770719 -0.912117 -0.308168 -0.270325 -0.852036 -0.522409 -0.033515 -0.984763 0.041796 0.168804 -0.721802 -0.301328 0.62306 -0.952456 0.25328 0.16934 -0.924583 -0.302673 0.231375 -0.92879 0.308971 0.204658 -0.068182 -0.907639 0.414178 -0.518537 -0.19097 -0.833457 -0.951723 0.252436 0.174639 -0.599476 -0.705387 -0.378229 0.011173 0.894186 -0.447556 -0.925242 0.293308 0.240618 -0.66758 0.670887 0.322875 -0.391434 0.725691 0.56582 -0.009628 0.999954 -0.000037 -0.051986 0.631735 0.773439 -0.664332 0.678509 0.31351 0.195213 0.764421 0.614453 -0.460111 0.738501 0.492863 -0.669413 0.132621 0.730957 -0.66665 0.705251 0.241245 -0.065797 0.044311 -0.996849 -0.395726 0.874399 0.280763 -0.538771 0.74913 -0.385396 -0.933495 0.193602 0.301836 -0.094821 -0.49091 0.866035 -0.69002 -0.451358 -0.565816 -0.953977 0.248862 0.167318 -0.876817 0.35179 0.327775 -0.926176 0.33947 0.164187 -0.89126 0.367988 0.265028 0.612141 -0.763532 -0.205675 0.753654 -0.652781 0.076692 0.647839 -0.642137 -0.409836 0.869377 -0.22294 0.441 0.994329 0.098515 0.040071 0.839356 0.460493 0.288837 0.928442 0.364327 0.072538 0.131768 -0.159912 0.978297 0.734268 0.238411 0.635618 0.904501 -0.064848 0.421513 0.98338 0.035976 -0.177958 0.976884 0.162019 0.139458 0.6083 -0.73091 -0.309422 0.011886 0.074363 0.99716 -0.825359 0.089656 -0.557444 -0.99731 -0.073028 0.00629 -0.985954 0.008785 0.166786 -0.855713 0.452362 0.251246 -0.847688 0.453062 0.275972 -0.732689 0.53803 0.416763 -0.676666 -0.734197 0.055482 -0.825254 0.558485 0.083959 -0.807184 0.566428 0.166175 -0.063537 0.90748 0.415262 -0.788898 0.600564 0.130242 -0.749419 0.509081 0.42333 -0.65907 -0.195058 -0.726347 0.040241 -0.707735 -0.705331 0.427657 -0.764393 0.482506 -0.419744 0.224031 0.87956 -0.519971 -0.849652 -0.087878 -0.864494 -0.459281 0.204232 -0.068899 -0.86612 -0.495065 -0.585906 -0.802806 -0.11053 -0.163821 -0.981361 -0.100465 0.00924 -0.891787 0.452362 0.703281 -0.674054 -0.225938 -0.790494 -0.436381 0.429758 -0.945312 -0.322206 0.050682 -0.813204 -0.194771 0.54842 -0.68671 -0.316243 0.654538 -0.559026 0.449457 0.696763 -0.185166 0.575226 0.796761 0.027069 0.855442 0.51719 0.015332 0.283995 0.958703 0.568861 0.247864 0.784195 0.681208 -0.107261 0.72419 -0.056416 -0.13445 0.989313 0.470809 -0.459265 0.753269 -0.386324 -0.393556 0.834187 0.472263 -0.494255 0.729849 -0.0346 -0.932939 0.358368 0.019502 -0.770204 0.637499 -0.81772 -0.373925 0.437624 0.136944 -0.984428 0.110213 -0.571361 -0.816229 -0.085534 0.112979 -0.993104 0.031297 0.012015 -0.880076 0.47468 -0.133242 -0.7057 -0.695869 0.9126 -0.175867 -0.369097 -0.059993 0.255615 0.964915 0.526581 -0.840698 -0.126251 0.922633 -0.226227 -0.312362 0.969791 -0.010357 0.243719 -0.025939 -0.863966 0.502881 0.997869 0.032899 0.056355 0.862283 -0.36838 0.347512 0.879201 -0.377006 0.291327 0.848765 -0.528267 -0.02306 0.916278 -0.364328 0.16643 0.615638 0.520002 0.592105 0.464855 0.704655 0.53607 0.850919 0.450337 0.270433 0.253777 -0.338835 0.905974 -0.952975 0.088849 0.28973 -0.932793 0.193967 0.303766 0.016684 -0.472906 0.880955 0.020001 0.944494 0.327918 -0.86264 -0.505674 -0.012115 -0.958393 0.277894 0.065243 -0.76764 0.413576 0.489575 -0.766351 0.468503 0.439559 -0.779634 0.546486 0.305818 -0.771745 0.56058 0.300266 -0.472497 0.664384 0.579086 0.050762 0.997726 0.044333 -0.261067 0.797411 0.54404 0.198694 0.034232 0.979464 0.134034 -0.28455 0.949245 0.053511 0.838624 0.542077 0.665619 0.011469 0.746204 -0.315111 0.248867 0.915844 -0.175073 0.932315 0.316445 0.399308 0.482212 0.77976 -0.108041 0.527324 0.842767 -0.249106 0.670531 0.69881 0.216869 0.742814 0.633399 -0.21625 0.957651 -0.190104 -0.114063 0.470985 0.874736 0.413338 0.894494 0.17039 0.472673 0.671155 0.57108 0.659631 0.750904 0.032107 0.78359 0.368891 0.499906 0.667132 0.626904 0.402401 0.021586 0.721239 0.69235 0.657326 0.693934 0.293902 0.259435 0.711991 0.652505 0.19978 0.626356 -0.753503 0.058249 0.871421 0.487065 -0.168195 0.365066 0.915662 0.917949 0.279386 0.281627 0.943358 0.214219 0.25335 0.927844 0.335798 0.16231 0.564153 -0.403661 -0.72027 0.619565 0.784924 0.005883 0.431271 0.466882 -0.772027 0.57577 -0.414293 -0.704876 0.235738 -0.778804 0.581285 0.981718 0.113843 0.152542 0.862884 0.267225 0.428979 0.130626 0.844487 -0.519402 -0.921519 0.334597 0.197098 -0.076804 -0.031058 0.996562 -0.982796 -0.073673 -0.169364 -0.615943 0.771808 0.15788 0.599654 0.353648 0.717877 0.115636 0.951301 0.285754 -0.801745 0.190296 0.566562 0.428838 0.834138 -0.34686 -0.501895 0.853543 0.139875 -0.652609 -0.2059 0.729182 -0.844044 0.128186 -0.520728 -0.146318 0.819583 0.553963 -0.114765 0.75928 0.640565 0.397636 0.889204 0.226278 0.667086 0.480483 0.569326 0.540365 0.825531 -0.162803 -0.130726 0.95636 0.261315 0.112296 0.890125 0.441664 0.414174 0.873653 0.255322 -0.023726 0.987064 0.158559 -0.013508 0.997228 0.073169 0.357401 0.817746 -0.451171 0.630332 0.710527 0.312783 0.615606 0.695902 0.369797 0.823284 0.033054 0.566666 0.143582 0.922858 -0.357377 -0.02662 0.989199 -0.144139 0.479115 0.588592 0.65116 0.062264 0.807514 0.586553 0.470255 0.163288 -0.867293 0.168774 0.797841 0.578762 0.878881 0.464619 0.108156 0.829372 0.491106 0.266378 0.780235 0.532537 0.328082 0.536462 0.362677 -0.76202 0.694928 -0.094907 -0.712789</float_array>
          <technique_common>
            <accessor source="#SeaCucumber-mesh-normals-array" count="498" stride="3">
              <param name="X" type="float"/>
              <param name="Y" type="float"/>
              <param name="Z" type="float"/>
            </accessor>
          </technique_common>
        </source>
        <source id="SeaCucumber-mesh-map-0">
          <float_array id="SeaCucumber-mesh-map-0-array" count="2988">0.615234 0.932373 0.616943 0.983154 0.576416 0.956299 0.576416 0.956299 0.616943 0.983154 0.570557 0.996826 0.525391 0.820801 0.474609 0.837891 0.493896 0.810547 0.474609 0.837891 0.525391 0.820801 0.493408 0.865234 0.525391 0.820801 0.493896 0.810547 0.533936 0.784668 0.533936 0.784668 0.493896 0.810547 0.504395 0.783936 0.504395 0.783936 0.493896 0.810547 0.461182 0.777344 0.504395 0.783936 0.461182 0.777344 0.471191 0.744385 0.504395 0.783936 0.471191 0.744385 0.507812 0.730713 0.504395 0.783936 0.507812 0.730713 0.533936 0.784668 0.533936 0.784668 0.507812 0.730713 0.561035 0.718506 0.533936 0.784668 0.561035 0.718506 0.579346 0.750244 0.525391 0.820801 0.533936 0.784668 0.57666 0.814453 0.57666 0.814453 0.533936 0.784668 0.579346 0.750244 0.525391 0.820801 0.57666 0.814453 0.560547 0.860596 0.560547 0.860596 0.57666 0.814453 0.583252 0.836426 0.57666 0.814453 0.579346 0.750244 0.607422 0.801025 0.57666 0.814453 0.607422 0.801025 0.583252 0.836426 0.607422 0.801025 0.579346 0.750244 0.600586 0.741455 0.607422 0.801025 0.600586 0.741455 0.64209 0.788574 0.607422 0.801025 0.64209 0.788574 0.632324 0.827637 0.607422 0.801025 0.632324 0.827637 0.583252 0.836426 0.583252 0.836426 0.632324 0.827637 0.630615 0.861084 0.121338 0.94458 0.158447 0.982422 0.112793 0.995361 0.158447 0.982422 0.121338 0.94458 0.169922 0.926514 0.158447 0.982422 0.169922 0.926514 0.189209 0.947021 0.225342 0.143311 0.256104 0.244629 0.20752 0.215332 0.225342 0.143311 0.20752 0.215332 0.204346 0.099609 0.204346 0.099609 0.20752 0.215332 0.166748 0.156982 0.256104 0.244629 0.225342 0.143311 0.266846 0.187256 0.266846 0.187256 0.225342 0.143311 0.267578 0.109131 0.256104 0.244629 0.266846 0.187256 0.306885 0.248535 0.306885 0.248535 0.266846 0.187256 0.307861 0.15918 0.307861 0.15918 0.266846 0.187256 0.267578 0.109131 0.307861 0.15918 0.267578 0.109131 0.363281 0.179443 0.236572 0.29248 0.20752 0.215332 0.256104 0.244629 0.236572 0.29248 0.256104 0.244629 0.260742 0.282227 0.20752 0.215332 0.236572 0.29248 0.215576 0.281738 0.20752 0.215332 0.215576 0.281738 0.170654 0.279053 0.20752 0.215332 0.170654 0.279053 0.166748 0.156982 0.166748 0.156982 0.170654 0.279053 0.143066 0.228027 0.166748 0.156982 0.143066 0.228027 0.134277 0.1521 0.42334 0.693848 0.366455 0.69165 0.399902 0.678467 0.399902 0.678467 0.366455 0.69165 0.291016 0.67334 0.399902 0.678467 0.291016 0.67334 0.373779 0.647217 0.42334 0.693848 0.399902 0.678467 0.485596 0.685791 0.485596 0.685791 0.399902 0.678467 0.486328 0.650635 0.485596 0.685791 0.486328 0.650635 0.539062 0.69458 0.539062 0.69458 0.486328 0.650635 0.543701 0.624023 0.539062 0.69458 0.543701 0.624023 0.568115 0.685059 0.543701 0.624023 0.486328 0.650635 0.520264 0.585938 0.894775 0.517334 0.934082 0.503418 0.94165 0.5354 0.894775 0.517334 0.94165 0.5354 0.903076 0.579102 0.903076 0.579102 0.94165 0.5354 0.952637 0.598389 0.952637 0.598389 0.94165 0.5354 0.978516 0.555664 0.978516 0.555664 0.94165 0.5354 0.977295 0.522217 0.977295 0.522217 0.94165 0.5354 0.934082 0.503418 0.977295 0.522217 0.934082 0.503418 0.978516 0.421875 0.689941 0.660889 0.730957 0.606201 0.741943 0.647461 0.689941 0.660889 0.741943 0.647461 0.727539 0.694336 0.727539 0.694336 0.741943 0.647461 0.762939 0.700928 0.762939 0.700928 0.741943 0.647461 0.794922 0.634277 0.762939 0.700928 0.794922 0.634277 0.814209 0.686279 0.762939 0.700928 0.814209 0.686279 0.785156 0.705322 0.689941 0.660889 0.727539 0.694336 0.695801 0.6875 0.695801 0.6875 0.727539 0.694336 0.703857 0.742188 0.695801 0.6875 0.703857 0.742188 0.677734 0.714844 0.695801 0.6875 0.677734 0.714844 0.689941 0.660889 0.689941 0.660889 0.677734 0.714844 0.642578 0.659668 0.689941 0.660889 0.642578 0.659668 0.637695 0.62915 0.642578 0.659668 0.677734 0.714844 0.651367 0.726318 0.642578 0.659668 0.651367 0.726318 0.630371 0.692139 0.642578 0.659668 0.630371 0.692139 0.617432 0.659912 0.630371 0.692139 0.651367 0.726318 0.623779 0.741943 0.617432 0.659912 0.630371 0.692139 0.598633 0.672852 0.630371 0.692139 0.623779 0.741943 0.580811 0.714844 0.630371 0.692139 0.580811 0.714844 0.598633 0.672852 0.0354 0.141846 0.010742 0.184326 0.01709 0.113281 0.010742 0.184326 0.0354 0.141846 0.084961 0.12915 0.084961 0.12915 0.0354 0.141846 0.01709 0.113281 0.01709 0.113281 0.010742 0.184326 0 0.101318 0.084961 0.12915 0.01709 0.113281 0.009521 0.065918 0.009521 0.065918 0.01709 0.113281 0 0.101318 0.051514 0.848145 0.051514 0.901611 0.009277 0.877686 0.138916 0.509521 0.159912 0.435059 0.176025 0.482178 0.138916 0.509521 0.176025 0.482178 0.157227 0.526123 0.176025 0.482178 0.159912 0.435059 0.195312 0.463623 0.195312 0.463623 0.159912 0.435059 0.192383 0.416748 0.176025 0.482178 0.195312 0.463623 0.222656 0.502197 0.176025 0.482178 0.222656 0.502197 0.190674 0.547363 0.176025 0.482178 0.190674 0.547363 0.157227 0.526123 0.157227 0.526123 0.190674 0.547363 0.195801 0.616455 0.013184 0.534668 0.032227 0.511963 0.06665 0.533203 0.60083 0.858643 0.60083 0.927734 0.591797 0.891846 0.09375 0.482422 0.125488 0.507324 0.096191 0.532471 0.09375 0.482422 0.096191 0.532471 0.055664 0.508789 0.125488 0.507324 0.09375 0.482422 0.122559 0.439941 0.09375 0.482422 0.055664 0.508789 0.039795 0.43335 0.039795 0.43335 0.055664 0.508789 0.029541 0.498535 0.09375 0.482422 0.039795 0.43335 0.078857 0.396484 0.09375 0.482422 0.078857 0.396484 0.122559 0.439941 0.078857 0.396484 0.039795 0.43335 0.032715 0.413574 0.122559 0.439941 0.078857 0.396484 0.113525 0.405762 0.122559 0.439941 0.113525 0.405762 0.160889 0.419678 0.503906 0.0354 0.52002 0.022461 0.551758 0.06958 0.551758 0.06958 0.52002 0.022461 0.551758 0.016602 0.833008 0.937744 0.871338 0.971191 0.835449 0.97168 0.871338 0.971191 0.833008 0.937744 0.883545 0.948975 0.833008 0.937744 0.835449 0.97168 0.785645 0.996582 0.833008 0.937744 0.785645 0.996582 0.785645 0.949463 0.785645 0.949463 0.785645 0.996582 0.743652 0.977539 0.833008 0.937744 0.785645 0.949463 0.778076 0.918213 0.833008 0.937744 0.778076 0.918213 0.801758 0.911621 0.833008 0.937744 0.801758 0.911621 0.804688 0.883789 0.50415 0.000732 0.485107 0.054199 0.458252 0.040039 0.50415 0.000732 0.458252 0.040039 0.447021 0.000488 0.974365 0.008545 0.960693 0.050537 0.941406 0.00708 0.941406 0.00708 0.960693 0.050537 0.91626 0.025635 0.180908 0.729248 0.133789 0.752197 0.152588 0.71875 0.133789 0.752197 0.180908 0.729248 0.176758 0.763428 0.176758 0.763428 0.180908 0.729248 0.209961 0.750732 0.180908 0.729248 0.152588 0.71875 0.201172 0.692627 0.180908 0.729248 0.201172 0.692627 0.209961 0.750732 0.201172 0.692627 0.152588 0.71875 0.165771 0.704834 0.201172 0.692627 0.165771 0.704834 0.164795 0.69458 0.209961 0.750732 0.201172 0.692627 0.258789 0.723145 0.293701 0.691406 0.317139 0.750244 0.258789 0.723145 0.293701 0.691406 0.258789 0.723145 0.224121 0.635742 0.224121 0.635742 0.258789 0.723145 0.201172 0.692627 0.224121 0.635742 0.201172 0.692627 0.207031 0.624512 0.207031 0.624512 0.201172 0.692627 0.176514 0.635254 0.224121 0.635742 0.207031 0.624512 0.244873 0.603271 0.244873 0.603271 0.207031 0.624512 0.213135 0.565674 0.419922 0.995361 0.393555 0.944336 0.436279 0.938477 0.436279 0.938477 0.393555 0.944336 0.443604 0.90332 0.393555 0.944336 0.419922 0.995361 0.366211 0.971191 0.393555 0.944336 0.366211 0.971191 0.355713 0.94165 0.307373 0.065674 0.341064 0.047607 0.339844 0.069092 0.341064 0.047607 0.307373 0.065674 0.30835 0.019775 0.30835 0.019775 0.307373 0.065674 0.27417 0.038574 0.307373 0.065674 0.339844 0.069092 0.301025 0.096436 0.301025 0.096436 0.339844 0.069092 0.323486 0.105469 0.301025 0.096436 0.323486 0.105469 0.328369 0.138184 0.307373 0.065674 0.301025 0.096436 0.270264 0.068604 0.307373 0.065674 0.270264 0.068604 0.27417 0.038574 0.270264 0.068604 0.301025 0.096436 0.226318 0.102051 0.27417 0.038574 0.270264 0.068604 0.250977 0.044922 0.250977 0.044922 0.270264 0.068604 0.226318 0.102051 0.250977 0.044922 0.226318 0.102051 0.218018 0.052002 0.009766 0.572754 0.031494 0.622314 0.001953 0.67334 0.001953 0.67334 0.031494 0.622314 0.082031 0.625488 0.082031 0.625488 0.031494 0.622314 0.009766 0.572754 0.053467 0.352051 0.029785 0.40332 0.029541 0.323486 0.053467 0.352051 0.029541 0.323486 0.048584 0.280762 0.515137 0.05835 0.445557 0.100342 0.496582 0.065186 0.496582 0.065186 0.445557 0.100342 0.459961 0.063965 0.459961 0.063965 0.445557 0.100342 0.407959 0.070801 0.459961 0.063965 0.407959 0.070801 0.435303 0.029297 0.435303 0.029297 0.407959 0.070801 0.402832 0.031006 0.661865 0.882812 0.685791 0.912598 0.631592 0.949219 0.661865 0.882812 0.631592 0.949219 0.620605 0.907959 0.661865 0.882812 0.620605 0.907959 0.623291 0.891846 0.685791 0.912598 0.661865 0.882812 0.688965 0.858154 0.688965 0.858154 0.661865 0.882812 0.67749 0.814941 0.67749 0.814941 0.661865 0.882812 0.650635 0.842285 0.685791 0.912598 0.688965 0.858154 0.701904 0.888428 0.701904 0.888428 0.688965 0.858154 0.723145 0.848877 0.701904 0.888428 0.723145 0.848877 0.750244 0.887695 0.701904 0.888428 0.750244 0.887695 0.738037 0.913574 0.701904 0.888428 0.738037 0.913574 0.685791 0.912598 0.685791 0.912598 0.738037 0.913574 0.734375 0.953125 0.734375 0.953125 0.738037 0.913574 0.768555 0.929932 0.317383 0.327393 0.289307 0.31543 0.325684 0.294434 0.289307 0.31543 0.317383 0.327393 0.253418 0.378906 0.325684 0.294434 0.289307 0.31543 0.267822 0.258301 0.325684 0.294434 0.267822 0.258301 0.335449 0.258057 0.325684 0.294434 0.335449 0.258057 0.367188 0.291016 0.367188 0.291016 0.335449 0.258057 0.402344 0.260742 0.402344 0.260742 0.335449 0.258057 0.395264 0.223877 0.402344 0.260742 0.395264 0.223877 0.438477 0.226318 0.133057 0.349854 0.185303 0.33374 0.121582 0.396973 0.133057 0.349854 0.121582 0.396973 0.105713 0.324219 0.133057 0.349854 0.105713 0.324219 0.185303 0.33374 0.185303 0.33374 0.105713 0.324219 0.191162 0.290771 0.191162 0.290771 0.105713 0.324219 0.11499 0.287354 0.11499 0.287354 0.105713 0.324219 0.088867 0.341553 0.11499 0.287354 0.088867 0.341553 0.088623 0.244385 0.659912 0.967041 0.685791 0.929199 0.697754 0.997803 0.697754 0.997803 0.685791 0.929199 0.721924 0.977783 0.685791 0.929199 0.659912 0.967041 0.626465 0.967285 0.055664 0.246826 0.022217 0.283447 0.021484 0.239502 0.055664 0.246826 0.021484 0.239502 0.031006 0.185547 0.055664 0.246826 0.031006 0.185547 0.084961 0.233398 0.084961 0.233398 0.031006 0.185547 0.07959 0.179443 0.605957 0.513916 0.628418 0.443604 0.686768 0.546631 0.560059 0.371826 0.648926 0.372559 0.628418 0.443604 0.560059 0.371826 0.628418 0.443604 0.559082 0.454834 0.559082 0.454834 0.628418 0.443604 0.605957 0.513916 0.559082 0.454834 0.605957 0.513916 0.552002 0.506104 0.559082 0.454834 0.552002 0.506104 0.506348 0.459473 0.506348 0.459473 0.552002 0.506104 0.523193 0.540283 0.552002 0.506104 0.605957 0.513916 0.544922 0.566895 0.552002 0.506104 0.544922 0.566895 0.523193 0.540283 0.544922 0.566895 0.605957 0.513916 0.686768 0.546631 0.523193 0.540283 0.544922 0.566895 0.435059 0.600586 0.544922 0.566895 0.686768 0.546631 0.612061 0.614014 0.544922 0.566895 0.612061 0.614014 0.559814 0.63208 0.612061 0.614014 0.686768 0.546631 0.69873 0.628662 0.431641 0.741211 0.508545 0.699463 0.491455 0.723633 0.508545 0.699463 0.431641 0.741211 0.422607 0.703125 0.422607 0.703125 0.431641 0.741211 0.387695 0.742432 0.422607 0.703125 0.387695 0.742432 0.325195 0.702393 0.387695 0.742432 0.431641 0.741211 0.407471 0.793945 0.387695 0.742432 0.407471 0.793945 0.370361 0.789551 0.86499 0.61499 0.877441 0.670654 0.822754 0.65332 0.86499 0.61499 0.822754 0.65332 0.832031 0.610107 0.832031 0.610107 0.822754 0.65332 0.789795 0.597656 0.789795 0.597656 0.822754 0.65332 0.746094 0.543213 0.789795 0.597656 0.746094 0.543213 0.773193 0.548096 0.832031 0.610107 0.789795 0.597656 0.83667 0.563721 0.832031 0.610107 0.83667 0.563721 0.86499 0.61499 0.83667 0.563721 0.789795 0.597656 0.773193 0.548096 0.86499 0.61499 0.83667 0.563721 0.88623 0.573486 0.83667 0.563721 0.773193 0.548096 0.793701 0.497803 0.88623 0.573486 0.83667 0.563721 0.885742 0.537598 0.83667 0.563721 0.793701 0.497803 0.868408 0.491455 0.83667 0.563721 0.868408 0.491455 0.885742 0.537598 0.112061 0.197266 0.089355 0.150879 0.127441 0.137207 0.089355 0.150879 0.112061 0.197266 0.092773 0.213867 0.092773 0.213867 0.112061 0.197266 0.125732 0.27832 0.2146 0.999512 0.157227 0.999512 0.199951 0.962891 0.83252 0.415283 0.834473 0.466553 0.798584 0.474609 0.834473 0.466553 0.83252 0.415283 0.876953 0.39917 0.834473 0.466553 0.876953 0.39917 0.893311 0.489014 0.876953 0.39917 0.83252 0.415283 0.811035 0.380371 0.876953 0.39917 0.811035 0.380371 0.80127 0.347656 0.876953 0.39917 0.80127 0.347656 0.871338 0.352783 0.893311 0.489014 0.876953 0.39917 0.91626 0.431885 0.876953 0.39917 0.871338 0.352783 0.930908 0.366943 0.91626 0.431885 0.876953 0.39917 0.937988 0.404541 0.937988 0.404541 0.876953 0.39917 0.930908 0.366943 0.91626 0.431885 0.937988 0.404541 0.951904 0.445312 0.937988 0.404541 0.930908 0.366943 0.9729 0.360352 0.937988 0.404541 0.9729 0.360352 0.971924 0.401123 0.9729 0.360352 0.930908 0.366943 0.978516 0.328613 0.381836 0.803711 0.355957 0.834473 0.317627 0.794678 0.317627 0.794678 0.355957 0.834473 0.328613 0.848145 0.355957 0.834473 0.381836 0.803711 0.385254 0.849609 0.328613 0.848145 0.355957 0.834473 0.34375 0.872314 0.328613 0.848145 0.34375 0.872314 0.303223 0.856201 0.34375 0.872314 0.355957 0.834473 0.385254 0.849609 0.385254 0.849609 0.381836 0.803711 0.413574 0.813232 0.34375 0.872314 0.385254 0.849609 0.378906 0.881348 0.34375 0.872314 0.378906 0.881348 0.375 0.929443 0.34375 0.872314 0.375 0.929443 0.33374 0.933838 0.375 0.929443 0.378906 0.881348 0.412109 0.912598 0.412109 0.912598 0.378906 0.881348 0.385254 0.849609 0.412109 0.912598 0.385254 0.849609 0.443359 0.871338 0.443359 0.871338 0.385254 0.849609 0.413574 0.813232 0.443359 0.871338 0.413574 0.813232 0.457275 0.835449 0.443359 0.871338 0.457275 0.835449 0.480957 0.869629 0.443359 0.871338 0.480957 0.869629 0.471924 0.892334 0.257568 0.976562 0.224121 0.92334 0.288574 0.947021 0.224121 0.92334 0.257568 0.976562 0.221924 0.967529 0.224121 0.92334 0.221924 0.967529 0.194824 0.933105 0.611328 0.071777 0.609131 0.108887 0.56543 0.107666 0.611328 0.071777 0.56543 0.107666 0.561523 0.051758 0.67627 0.089844 0.683594 0.115234 0.609131 0.108887 0.67627 0.089844 0.609131 0.108887 0.611328 0.071777 0.611328 0.071777 0.561523 0.051758 0.609375 0.040039 0.609375 0.040039 0.561523 0.051758 0.565186 0.025635 0.611328 0.071777 0.609375 0.040039 0.683594 0.030518 0.661865 0.065674 0.683594 0.030518 0.67627 0.089844 0.683594 0.030518 0.661865 0.065674 0.611328 0.071777 0.611328 0.071777 0.661865 0.065674 0.67627 0.089844 0.306396 0.94043 0.329102 0.996582 0.284912 0.976562 0.284912 0.976562 0.329102 0.996582 0.279785 0.998779 0.329102 0.996582 0.306396 0.94043 0.346436 0.946777 0.951416 0.996582 0.891602 0.955078 0.935791 0.953369 0.951416 0.996582 0.935791 0.953369 0.983887 0.975342 0.983887 0.975342 0.935791 0.953369 0.975342 0.925537 0.945557 0.064941 0.950195 0.100586 0.885986 0.083984 0.950195 0.100586 0.945557 0.064941 0.978271 0.058838 0.885986 0.083984 0.950195 0.100586 0.919189 0.126709 0.919189 0.126709 0.950195 0.100586 0.978027 0.16333 0.885986 0.083984 0.919189 0.126709 0.821045 0.114746 0.919189 0.126709 0.978027 0.16333 0.931641 0.186279 0.821045 0.114746 0.919189 0.126709 0.872559 0.15332 0.872559 0.15332 0.919189 0.126709 0.931641 0.186279 0.775146 0.415771 0.739014 0.437012 0.780029 0.355225 0.739014 0.437012 0.775146 0.415771 0.762939 0.534668 0.780029 0.355225 0.739014 0.437012 0.6604 0.400879 0.780029 0.355225 0.6604 0.400879 0.713379 0.351074 0.713379 0.351074 0.6604 0.400879 0.656738 0.351562 0.780029 0.355225 0.713379 0.351074 0.745361 0.326416 0.745361 0.326416 0.713379 0.351074 0.656738 0.351562 0.780029 0.355225 0.745361 0.326416 0.814209 0.307129 0.814209 0.307129 0.745361 0.326416 0.755615 0.277832 0.755615 0.277832 0.745361 0.326416 0.703857 0.312012 0.703857 0.312012 0.745361 0.326416 0.656738 0.351562 0.703857 0.312012 0.656738 0.351562 0.626465 0.34082 0.882568 0.302979 0.852295 0.339111 0.820312 0.291992 0.882568 0.302979 0.820312 0.291992 0.807617 0.198486 0.807617 0.198486 0.820312 0.291992 0.768066 0.227051 0.882568 0.302979 0.807617 0.198486 0.89624 0.286377 0.882568 0.302979 0.89624 0.286377 0.917236 0.31665 0.89624 0.286377 0.807617 0.198486 0.827148 0.15332 0.89624 0.286377 0.827148 0.15332 0.904785 0.185791 0.89624 0.286377 0.904785 0.185791 0.918701 0.25708 0.109863 0.084717 0.12915 0.124268 0.065186 0.096436 0.109863 0.084717 0.065186 0.096436 0.064941 0.047607 0.12915 0.124268 0.109863 0.084717 0.15625 0.077637 0.15625 0.077637 0.109863 0.084717 0.064941 0.047607 0.12915 0.124268 0.15625 0.077637 0.156982 0.141846 0.15625 0.077637 0.064941 0.047607 0.175049 0.046631 0.156982 0.141846 0.15625 0.077637 0.180176 0.112549 0.15625 0.077637 0.175049 0.046631 0.20459 0.049561 0.15625 0.077637 0.20459 0.049561 0.180176 0.112549 0.479492 0.280518 0.424805 0.256592 0.448486 0.252441 0.479492 0.280518 0.448486 0.252441 0.473877 0.225098 0.479492 0.280518 0.473877 0.225098 0.51709 0.239014 0.479492 0.280518 0.51709 0.239014 0.52832 0.300049 0.52832 0.300049 0.51709 0.239014 0.570557 0.27124 0.570557 0.27124 0.51709 0.239014 0.580811 0.244873 0.570557 0.27124 0.580811 0.244873 0.643555 0.224365 0.570557 0.27124 0.643555 0.224365 0.598389 0.289062 0.570557 0.27124 0.598389 0.289062 0.52832 0.300049 0.616699 0.305664 0.598389 0.289062 0.682617 0.302246 0.598389 0.289062 0.616699 0.305664 0.577393 0.341797 0.598389 0.289062 0.577393 0.341797 0.539551 0.334717 0.598389 0.289062 0.539551 0.334717 0.52832 0.300049 0.539551 0.334717 0.577393 0.341797 0.583496 0.36377 0.52832 0.300049 0.539551 0.334717 0.510254 0.333008 0.510254 0.333008 0.539551 0.334717 0.511475 0.364746 0.511475 0.364746 0.539551 0.334717 0.529053 0.375488 0.52832 0.300049 0.510254 0.333008 0.478516 0.331787 0.478516 0.331787 0.510254 0.333008 0.511475 0.364746 0.52832 0.300049 0.478516 0.331787 0.479492 0.280518 0.478516 0.331787 0.511475 0.364746 0.45752 0.345215 0.479492 0.280518 0.478516 0.331787 0.433594 0.321289 0.433594 0.321289 0.478516 0.331787 0.45752 0.345215 0.27124 0.499756 0.251953 0.527588 0.220703 0.474365 0.27124 0.499756 0.220703 0.474365 0.233398 0.445801 0.27124 0.499756 0.233398 0.445801 0.279541 0.467041 0.279541 0.467041 0.233398 0.445801 0.243652 0.409668 0.243652 0.409668 0.233398 0.445801 0.19873 0.397217 0.243652 0.409668 0.19873 0.397217 0.19458 0.34082 0.243652 0.409668 0.19458 0.34082 0.244385 0.362549 0.826172 0.099121 0.826904 0.031494 0.869141 0.049561 0.869141 0.049561 0.826904 0.031494 0.88916 0.034668 0.869141 0.049561 0.88916 0.034668 0.939941 0.052979 0.869141 0.049561 0.939941 0.052979 0.89624 0.068359 0.97876 0.228516 0.938721 0.249756 0.925537 0.195068 0.938721 0.249756 0.97876 0.228516 0.981689 0.283936 0.938721 0.249756 0.981689 0.283936 0.919189 0.29834 0.689209 0.176025 0.572754 0.117432 0.620361 0.131348 0.689209 0.176025 0.620361 0.131348 0.659424 0.13208 0.689209 0.176025 0.659424 0.13208 0.703613 0.13623 0.689209 0.176025 0.703613 0.13623 0.750732 0.164551 0.750732 0.164551 0.703613 0.13623 0.742676 0.098389 0.750732 0.164551 0.742676 0.098389 0.797363 0.127441 0.750732 0.164551 0.797363 0.127441 0.812256 0.159912 0.689209 0.176025 0.750732 0.164551 0.731689 0.2146 0.689209 0.176025 0.731689 0.2146 0.689941 0.239502 0.689209 0.176025 0.689941 0.239502 0.648682 0.213379 0.689941 0.239502 0.731689 0.2146 0.745117 0.268799 0.689941 0.239502 0.745117 0.268799 0.698242 0.294678 0.060303 0.80542 0.094971 0.833008 0.060303 0.90332 0.094971 0.833008 0.060303 0.80542 0.122803 0.788574 0.094971 0.833008 0.122803 0.788574 0.139648 0.852295 0.094971 0.833008 0.139648 0.852295 0.060303 0.90332 0.060303 0.90332 0.139648 0.852295 0.167725 0.9104 0.060303 0.90332 0.167725 0.9104 0.079834 0.950195 0.572998 0.903809 0.488037 0.901611 0.554688 0.877686 0.572998 0.903809 0.554688 0.877686 0.589355 0.858154 0.488037 0.901611 0.572998 0.903809 0.504639 0.948242 0.504639 0.948242 0.572998 0.903809 0.578613 0.939209 0.488037 0.901611 0.504639 0.948242 0.455322 0.901123 0.359863 0.391113 0.391602 0.436279 0.305908 0.459473 0.359863 0.391113 0.305908 0.459473 0.267822 0.425537 0.359863 0.391113 0.267822 0.425537 0.28833 0.385986 0.305908 0.459473 0.391602 0.436279 0.360352 0.49707 0.305908 0.459473 0.360352 0.49707 0.279785 0.523193 0.279785 0.523193 0.360352 0.49707 0.352051 0.581787 0.279785 0.523193 0.352051 0.581787 0.279053 0.631836 0.352051 0.581787 0.360352 0.49707 0.430664 0.523682 0.352051 0.581787 0.430664 0.523682 0.408691 0.621094 0.408691 0.621094 0.430664 0.523682 0.496094 0.474854 0.430664 0.523682 0.360352 0.49707 0.426758 0.472412 0.430664 0.523682 0.426758 0.472412 0.496094 0.474854 0.426758 0.472412 0.360352 0.49707 0.391602 0.436279 0.496094 0.474854 0.426758 0.472412 0.475586 0.437256 0.475586 0.437256 0.426758 0.472412 0.391602 0.436279 0.475586 0.437256 0.391602 0.436279 0.393311 0.403076 0.393311 0.403076 0.391602 0.436279 0.359863 0.391113 0.475586 0.437256 0.393311 0.403076 0.499023 0.395752 0.393311 0.403076 0.359863 0.391113 0.380615 0.354004 0.393311 0.403076 0.380615 0.354004 0.499023 0.395752 0.499023 0.395752 0.380615 0.354004 0.481689 0.365967 0.813477 0.018555 0.777588 0.040527 0.693848 0.016602 0.777588 0.040527 0.813477 0.018555 0.79248 0.083252 0.777588 0.040527 0.79248 0.083252 0.693848 0.016602 0.693848 0.016602 0.79248 0.083252 0.692139 0.094727 0.944092 0.932861 0.888184 0.925537 0.930908 0.906738 0.930908 0.906738 0.888184 0.925537 0.868896 0.890381 0.868896 0.890381 0.888184 0.925537 0.839111 0.924805 0.930908 0.906738 0.868896 0.890381 0.893555 0.852539 0.930908 0.906738 0.893555 0.852539 0.970459 0.84375 0.970459 0.84375 0.893555 0.852539 0.961914 0.800781 0.961914 0.800781 0.893555 0.852539 0.921143 0.794678 0.921143 0.794678 0.893555 0.852539 0.889893 0.81543 0.083008 0.978516 0.031738 0.998779 0.034668 0.951172 0.083008 0.978516 0.034668 0.951172 0.056152 0.934326 0.034668 0.951172 0.031738 0.998779 0 0.983887 0.034668 0.951172 0 0.983887 0.007812 0.919189 0.053467 0.791992 0.029785 0.8396 0.037842 0.787109 0.053467 0.791992 0.037842 0.787109 0.054688 0.757812 0.053467 0.791992 0.054688 0.757812 0.112061 0.775879 0.112061 0.775879 0.054688 0.757812 0.076416 0.729004 0.076416 0.729004 0.054688 0.757812 0.031738 0.704346 0.334717 0.019287 0.394775 0.019287 0.375488 0.072021 0.114746 0.730469 0.108154 0.691406 0.122559 0.681152 0.108154 0.691406 0.114746 0.730469 0.093506 0.730225 0.114746 0.730469 0.122559 0.681152 0.144043 0.701172 0.144043 0.701172 0.122559 0.681152 0.147461 0.679688 0.099609 0.702881 0.087646 0.678955 0.108154 0.691406 0.108154 0.691406 0.087646 0.678955 0.092773 0.608887 0.147461 0.679688 0.122559 0.681152 0.133057 0.642578 0.122559 0.681152 0.108154 0.691406 0.111084 0.631104 0.122559 0.681152 0.111084 0.631104 0.133057 0.642578 0.111084 0.631104 0.108154 0.691406 0.092773 0.608887 0.133057 0.642578 0.111084 0.631104 0.145264 0.619629 0.145264 0.619629 0.111084 0.631104 0.092773 0.608887 0.133057 0.642578 0.145264 0.619629 0.147461 0.679688 0.145264 0.619629 0.092773 0.608887 0.124023 0.585693 0.147461 0.679688 0.145264 0.619629 0.166748 0.635254 0.147461 0.679688 0.166748 0.635254 0.167969 0.684326 0.166748 0.635254 0.145264 0.619629 0.169678 0.599121 0.856934 0.679199 0.808838 0.732422 0.762207 0.732666 0.808838 0.732422 0.856934 0.679199 0.818848 0.771729 0.762207 0.732666 0.808838 0.732422 0.78125 0.756348 0.78125 0.756348 0.808838 0.732422 0.818848 0.771729 0.762207 0.732666 0.78125 0.756348 0.740234 0.783203 0.740234 0.783203 0.78125 0.756348 0.818848 0.771729 0.740234 0.783203 0.818848 0.771729 0.756836 0.82373 0.740234 0.783203 0.756836 0.82373 0.696289 0.844727 0.756836 0.82373 0.818848 0.771729 0.819092 0.82251 0.819092 0.82251 0.818848 0.771729 0.857178 0.806641 0.819092 0.82251 0.857178 0.806641 0.879883 0.851562 0.857178 0.806641 0.818848 0.771729 0.885254 0.802002 0.054443 0.086914 0.018555 0.054443 0.036377 0.028564 0.303711 0.758057 0.290283 0.799805 0.241211 0.786865 0.303711 0.758057 0.241211 0.786865 0.262207 0.739014 0.262207 0.739014 0.241211 0.786865 0.189209 0.784668 0.241211 0.786865 0.290283 0.799805 0.260498 0.820312 0.260498 0.820312 0.290283 0.799805 0.308594 0.831299 0.260498 0.820312 0.308594 0.831299 0.252197 0.849854 0.260498 0.820312 0.252197 0.849854 0.241211 0.786865 0.241211 0.786865 0.252197 0.849854 0.20752 0.809814 0.241211 0.786865 0.20752 0.809814 0.189209 0.784668 0.189209 0.784668 0.20752 0.809814 0.147705 0.81958 0.189209 0.784668 0.147705 0.81958 0.134033 0.787842 0.449219 0.974609 0.48999 0.960205 0.48999 0.994629 0.48999 0.960205 0.449219 0.974609 0.452148 0.915283 0.898926 0.664307 0.90918 0.614746 0.953613 0.662354 0.953613 0.662354 0.90918 0.614746 0.973877 0.60498 0.898926 0.664307 0.953613 0.662354 0.928467 0.72168 0.928467 0.72168 0.953613 0.662354 0.976562 0.738281 0.928467 0.72168 0.976562 0.738281 0.94165 0.774902 0.498535 0.956787 0.558105 0.956787 0.530029 0.988525 0.518799 0.15332 0.561279 0.121582 0.554688 0.166504 0.561279 0.121582 0.518799 0.15332 0.518799 0.118896 0.561279 0.121582 0.518799 0.118896 0.518066 0.083252 0.518799 0.15332 0.554688 0.166504 0.463379 0.173096 0.463379 0.173096 0.554688 0.166504 0.452881 0.222656 0.463379 0.173096 0.452881 0.222656 0.403564 0.175537 0.518799 0.118896 0.518799 0.15332 0.47583 0.119385 0.518799 0.118896 0.47583 0.119385 0.518066 0.083252 0.47583 0.119385 0.518799 0.15332 0.463379 0.173096 0.518066 0.083252 0.47583 0.119385 0.411377 0.126465 0.463379 0.173096 0.403564 0.175537 0.435547 0.146729 0.463379 0.173096 0.435547 0.146729 0.47583 0.119385 0.47583 0.119385 0.435547 0.146729 0.411377 0.126465 0.435547 0.146729 0.403564 0.175537 0.370361 0.161377 0.435547 0.146729 0.370361 0.161377 0.411377 0.126465 0.411377 0.126465 0.370361 0.161377 0.361816 0.095703 0.411377 0.126465 0.361816 0.095703 0.398193 0.077148 0.088623 0.568604 0.074707 0.60376 0.038574 0.574463 0.074707 0.60376 0.088623 0.568604 0.155029 0.54834 0.088623 0.568604 0.038574 0.574463 0.067383 0.542236 0.088623 0.568604 0.067383 0.542236 0.155029 0.54834 0.215088 0.867676 0.184326 0.923828 0.17041 0.873779 0.184326 0.923828 0.215088 0.867676 0.230469 0.909424 0.230469 0.909424 0.215088 0.867676 0.23999 0.858398 0.230469 0.909424 0.23999 0.858398 0.272705 0.928711 0.272705 0.928711 0.23999 0.858398 0.296143 0.86792 0.272705 0.928711 0.296143 0.86792 0.330078 0.893799 0.041016 0.756836 0.001465 0.743896 0.022461 0.717285</float_array>
          <technique_common>
            <accessor source="#SeaCucumber-mesh-map-0-array" count="1494" stride="2">
              <param name="S" type="float"/>
              <param name="T" type="float"/>
            </accessor>
          </technique_common>
        </source>
        <vertices id="SeaCucumber-mesh-vertices">
          <input semantic="POSITION" source="#SeaCucumber-mesh-positions"/>
        </vertices>
        <polylist material="Material_-1-material" count="6">
          <input semantic="VERTEX" source="#SeaCucumber-mesh-vertices" offset="0"/>
          <input semantic="NORMAL" source="#SeaCucumber-mesh-normals" offset="1"/>
          <input semantic="TEXCOORD" source="#SeaCucumber-mesh-map-0" offset="2" set="0"/>
          <vcount>3 3 3 3 3 3 3 3 3 3 3 3 3 3 3 3 3 3 3 3 3 3 3 3 3 3 3 3 3 3 3 3 3 3 3 3 3 3 3 3 3 3 3 3 3 3 3 3 3 3 3 3 3 3 3 3 3 3 3 3 3 3 3 3 3 3 3 3 3 3 3 3 3 3 3 3 3 3 3 3 3 3 3 3 3 3 3 3 3 3 3 3 3 3 3 3 3 3 3 3 3 3 3 3 3 3 3 3 3 3 3 3 3 3 3 3 3 3 3 3 3 3 3 3 3 3 3 3 3 3 3 3 3 3 3 3 3 3 3 3 3 3 3 3 3 3 3 3 3 3 3 3 3 3 3 3 3 3 3 3 3 3 3 3 3 3 3 3 3 3 3 3 3 3 3 3 3 3 3 3 3 3 3 3 3 3 3 3 3 3 3 3 3 3 3 3 3 3 3 3 3 3 3 3 3 3 3 3 3 3 3 3 3 3 3 3 3 3 3 3 3 3 3 3 3 3 3 3 3 3 3 3 3 3 3 3 3 3 3 3 3 3 3 3 3 3 3 3 3 3 3 3 3 3 3 3 3 3 3 3 3 3 3 3 3 3 3 3 3 3 3 3 3 3 3 3 3 3 3 3 3 3 3 3 3 3 3 3 3 3 3 3 3 3 3 3 3 3 3 3 3 3 3 3 3 3 3 3 3 3 3 3 3 3 3 3 3 3 3 3 3 3 3 3 3 3 3 3 3 3 3 3 3 3 3 3 3 3 3 3 3 3 3 3 3 3 3 3 3 3 3 3 3 3 3 3 3 3 3 3 3 3 3 3 3 3 3 3 3 3 3 3 3 3 3 3 3 3 3 3 3 3 3 3 3 3 3 3 3 3 3 3 3 3 3 3 3 3 3 3 3 3 3 3 3 3 3 3 3 3 3 3 3 3 3 3 3 3 3 3 3 3 3 3 3 3 3 3 3 3 3 3 3 3 3 3 3 3 3 3 3 3 3 3 3 3 3 3 3 3 3 3 3 3 3 3 3 3 3 3 3 3 3 3 3 3 3 3 3 3 3 3 3 3 3 3 3 3 3 3 3 3 3 3 3 3 3 3 3 3 3 3 3 3 3 3 3 3</vcount>
          <p>0 0 0 1 0 1 2 0 2 2 1 3 1 1 4 3 1 5 0 2 6 4 2 7 5 2 8 4 3 9 0 3 10 2 3 11 0 4 12 5 4 13 6 4 14 6 5 15 5 5 16 7 5 17 7 6 18 5 6 19 8 6 20 7 7 21 8 7 22 9 7 23 7 8 24 9 8 25 10 8 26 7 9 27 10 9 28 6 9 29 6 10 30 10 10 31 11 10 32 6 11 33 11 11 34 12 11 35 0 12 36 6 12 37 13 12 38 13 13 39 6 13 40 12 13 41 0 14 42 13 14 43 3 14 44 3 15 45 13 15 46 14 15 47 13 16 48 12 16 49 15 16 50 13 17 51 15 17 52 14 17 53 15 18 54 12 18 55 16 18 56 15 19 57 16 19 58 17 19 59 15 20 60 17 20 61 18 20 62 15 21 63 18 21 64 14 21 65 14 22 66 18 22 67 19 22 68 5 23 69 9 23 70 8 23 71 9 24 72 5 24 73 20 24 74 9 25 75 20 25 76 21 25 77 4 26 78 22 26 79 23 26 80 4 27 81 23 27 82 5 27 83 5 28 84 23 28 85 20 28 86 22 29 87 4 29 88 24 29 89 24 30 90 4 30 91 2 30 92 22 31 93 24 31 94 25 31 95 25 32 96 24 32 97 26 32 98 26 33 99 24 33 100 2 33 101 26 34 102 2 34 103 27 34 104 28 35 105 23 35 106 22 35 107 28 36 108 22 36 109 29 36 110 23 37 111 28 37 112 30 37 113 23 38 114 30 38 115 31 38 116 23 39 117 31 39 118 20 39 119 20 40 120 31 40 121 32 40 122 20 41 123 32 41 124 21 41 125 9 42 126 21 42 127 33 42 128 33 43 129 21 43 130 34 43 131 33 44 132 34 44 133 35 44 134 9 45 135 33 45 136 10 45 137 10 46 138 33 46 139 36 46 140 10 47 141 36 47 142 37 47 143 37 48 144 36 48 145 38 48 146 37 49 147 38 49 148 39 49 149 38 50 150 36 50 151 40 50 152 33 51 153 35 51 154 41 51 155 33 52 156 41 52 157 36 52 158 36 53 159 41 53 160 40 53 161 40 54 162 41 54 163 38 54 164 38 55 165 41 55 166 42 55 167 42 56 168 41 56 169 35 56 170 42 57 171 35 57 172 43 57 173 43 58 174 35 58 175 34 58 176 43 59 177 34 59 178 44 59 179 44 60 180 34 60 181 45 60 182 45 61 183 34 61 184 21 61 185 45 62 186 21 62 187 32 62 188 45 63 189 32 63 190 31 63 191 43 64 192 44 64 193 46 64 194 46 65 195 44 65 196 47 65 197 46 66 198 47 66 199 48 66 200 46 67 201 48 67 202 43 67 203 43 68 204 48 68 205 49 68 206 43 69 207 49 69 208 50 69 209 49 70 210 48 70 211 51 70 212 49 71 213 51 71 214 52 71 215 49 72 216 52 72 217 53 72 218 52 73 219 51 73 220 54 73 221 53 74 222 52 74 223 55 74 224 52 75 225 54 75 226 56 75 227 52 76 228 56 76 229 55 76 230 57 77 231 58 77 232 59 77 233 58 78 234 57 78 235 19 78 236 19 79 237 57 79 238 59 79 239 59 80 240 58 80 241 3 80 242 19 81 243 59 81 244 14 81 245 14 82 246 59 82 247 3 82 248 0 83 249 3 83 250 1 83 251 58 84 252 60 84 253 61 84 254 58 85 255 61 85 256 62 85 257 61 86 258 60 86 259 63 86 260 63 87 261 60 87 262 64 87 263 61 88 264 63 88 265 65 88 266 61 89 267 65 89 268 66 89 269 61 90 270 66 90 271 62 90 272 62 91 273 66 91 274 67 91 275 18 92 276 60 92 277 19 92 278 60 93 279 58 93 280 19 93 281 68 94 282 2 94 283 3 94 284 68 95 285 3 95 286 58 95 287 2 96 288 68 96 289 27 96 290 68 97 291 58 97 292 69 97 293 69 98 294 58 98 295 62 98 296 68 99 297 69 99 298 70 99 299 68 100 300 70 100 301 27 100 302 70 101 303 69 101 304 71 101 305 27 102 306 70 102 307 25 102 308 27 103 309 25 103 310 26 103 311 16 104 312 12 104 313 72 104 314 72 105 315 12 105 316 11 105 317 73 106 318 17 106 319 16 106 320 17 107 321 73 107 322 74 107 323 73 108 324 16 108 325 75 108 326 73 109 327 75 109 328 76 109 329 76 110 330 75 110 331 77 110 332 73 111 333 76 111 334 78 111 335 73 112 336 78 112 337 79 112 338 73 113 339 79 113 340 80 113 341 81 114 342 29 114 343 22 114 344 81 115 345 22 115 346 25 115 347 30 116 348 82 116 349 31 116 350 31 117 351 82 117 352 45 117 353 83 118 354 82 118 355 30 118 356 82 119 357 83 119 358 45 119 359 45 120 360 83 120 361 84 120 362 83 121 363 30 121 364 85 121 365 83 122 366 85 122 367 84 122 368 85 123 369 30 123 370 28 123 371 85 124 372 28 124 373 29 124 374 84 125 375 85 125 376 86 125 377 87 126 378 88 126 379 86 126 380 87 127 381 86 127 382 89 127 383 89 128 384 86 128 385 85 128 386 89 129 387 85 129 388 90 129 389 90 130 390 85 130 391 91 130 392 89 131 393 90 131 394 92 131 395 92 132 396 90 132 397 93 132 398 81 133 399 91 133 400 29 133 401 29 134 402 91 134 403 85 134 404 91 135 405 81 135 406 25 135 407 91 136 408 25 136 409 70 136 410 94 137 411 44 137 412 45 137 413 44 138 414 94 138 415 47 138 416 47 139 417 94 139 418 48 139 419 94 140 420 45 140 421 95 140 422 95 141 423 45 141 424 84 141 425 95 142 426 84 142 427 86 142 428 94 143 429 95 143 430 96 143 431 94 144 432 96 144 433 48 144 434 96 145 435 95 145 436 97 145 437 48 146 438 96 146 439 51 146 440 51 147 441 96 147 442 97 147 443 51 148 444 97 148 445 54 148 446 71 149 447 98 149 448 70 149 449 70 150 450 98 150 451 99 150 452 99 151 453 98 151 454 71 151 455 69 152 456 62 152 457 67 152 458 69 153 459 67 153 460 93 153 461 69 154 462 93 154 463 71 154 464 71 155 465 93 155 466 99 155 467 99 156 468 93 156 469 90 156 470 99 157 471 90 157 472 70 157 473 70 158 474 90 158 475 91 158 476 100 159 477 87 159 478 89 159 479 100 160 480 89 160 481 92 160 482 100 161 483 92 161 484 101 161 485 87 162 486 100 162 487 102 162 488 102 163 489 100 163 490 103 163 491 103 164 492 100 164 493 104 164 494 87 165 495 102 165 496 105 165 497 105 166 498 102 166 499 106 166 500 105 167 501 106 167 502 107 167 503 105 168 504 107 168 505 108 168 506 105 169 507 108 169 508 87 169 509 87 170 510 108 170 511 88 170 512 88 171 513 108 171 514 86 171 515 92 172 516 109 172 517 101 172 518 109 173 519 92 173 520 93 173 521 101 174 522 109 174 523 110 174 524 101 175 525 110 175 526 111 175 527 101 176 528 111 176 529 100 176 530 100 177 531 111 177 532 104 177 533 104 178 534 111 178 535 112 178 536 104 179 537 112 179 538 113 179 539 114 180 540 63 180 541 64 180 542 114 181 543 64 181 544 115 181 545 114 182 546 115 182 547 63 182 548 63 183 549 115 183 550 65 183 551 65 184 552 115 184 553 116 184 554 116 185 555 115 185 556 117 185 557 116 186 558 117 186 559 118 186 560 64 187 561 119 187 562 115 187 563 115 188 564 119 188 565 117 188 566 119 189 567 64 189 568 60 189 569 120 190 570 66 190 571 65 190 572 120 191 573 65 191 574 116 191 575 120 192 576 116 192 577 121 192 578 121 193 579 116 193 580 118 193 581 122 194 582 118 194 583 117 194 584 123 195 585 121 195 586 118 195 587 123 196 588 118 196 589 124 196 590 124 197 591 118 197 592 122 197 593 124 198 594 122 198 595 125 198 596 124 199 597 125 199 598 126 199 599 126 200 600 125 200 601 127 200 602 125 201 603 122 201 604 128 201 605 125 202 606 128 202 607 127 202 608 128 203 609 122 203 610 117 203 611 127 204 612 128 204 613 129 204 614 128 205 615 117 205 616 130 205 617 128 206 618 130 206 619 131 206 620 130 207 621 117 207 622 132 207 623 17 208 624 60 208 625 18 208 626 60 209 627 17 209 628 119 209 629 119 210 630 17 210 631 133 210 632 119 211 633 133 211 634 134 211 635 133 212 636 17 212 637 74 212 638 133 213 639 74 213 640 73 213 641 132 214 642 117 214 643 119 214 644 132 215 645 119 215 646 135 215 647 135 216 648 119 216 649 136 216 650 136 217 651 119 217 652 134 217 653 136 218 654 134 218 655 137 218 656 135 219 657 136 219 658 138 219 659 135 220 660 138 220 661 132 220 662 138 221 663 136 221 664 137 221 665 132 222 666 138 222 667 139 222 668 138 223 669 137 223 670 140 223 671 139 224 672 138 224 673 130 224 674 138 225 675 140 225 676 131 225 677 138 226 678 131 226 679 130 226 680 80 227 681 133 227 682 73 227 683 133 228 684 80 228 685 134 228 686 134 229 687 80 229 688 112 229 689 130 230 690 132 230 691 139 230 692 140 231 693 141 231 694 131 231 695 141 232 696 140 232 697 142 232 698 141 233 699 142 233 700 143 233 701 142 234 702 140 234 703 137 234 704 142 235 705 137 235 706 134 235 707 142 236 708 134 236 709 112 236 710 143 237 711 142 237 712 144 237 713 142 238 714 112 238 715 111 238 716 144 239 717 142 239 718 145 239 719 145 240 720 142 240 721 111 240 722 144 241 723 145 241 724 146 241 725 145 242 726 111 242 727 109 242 728 145 243 729 109 243 730 147 243 731 109 244 732 111 244 733 110 244 734 129 245 735 148 245 736 127 245 737 127 246 738 148 246 739 126 246 740 148 247 741 129 247 742 149 247 743 126 248 744 148 248 745 123 248 746 126 249 747 123 249 748 124 249 749 123 250 750 148 250 751 149 250 752 149 251 753 129 251 754 143 251 755 123 252 756 149 252 757 150 252 758 123 253 759 150 253 760 151 253 761 123 254 762 151 254 763 121 254 764 151 255 765 150 255 766 152 255 767 152 256 768 150 256 769 149 256 770 152 257 771 149 257 772 147 257 773 147 258 774 149 258 775 143 258 776 147 259 777 143 259 778 144 259 779 147 260 780 144 260 781 146 260 782 147 261 783 146 261 784 145 261 785 131 262 786 129 262 787 128 262 788 129 263 789 131 263 790 141 263 791 129 264 792 141 264 793 143 264 794 153 265 795 67 265 796 66 265 797 153 266 798 66 266 799 120 266 800 154 267 801 93 267 802 67 267 803 154 268 804 67 268 805 153 268 806 153 269 807 120 269 808 151 269 809 151 270 810 120 270 811 121 270 812 153 271 813 151 271 814 152 271 815 155 272 816 152 272 817 154 272 818 152 273 819 155 273 820 153 273 821 153 274 822 155 274 823 154 274 824 152 275 825 109 275 826 154 275 827 154 276 828 109 276 829 93 276 830 109 277 831 152 277 832 147 277 833 112 278 834 80 278 835 156 278 836 112 279 837 156 279 838 113 279 839 113 280 840 156 280 841 104 280 842 38 281 843 157 281 844 39 281 845 157 282 846 38 282 847 42 282 848 39 283 849 157 283 850 158 283 851 158 284 852 157 284 853 159 284 854 39 285 855 158 285 856 160 285 857 158 286 858 159 286 859 161 286 860 160 287 861 158 287 862 162 287 863 162 288 864 158 288 865 161 288 866 42 289 867 50 289 868 157 289 869 50 290 870 42 290 871 43 290 872 157 291 873 50 291 874 49 291 875 157 292 876 49 292 877 163 292 878 163 293 879 49 293 880 53 293 881 157 294 882 163 294 883 164 294 884 164 295 885 163 295 886 53 295 887 157 296 888 164 296 889 159 296 890 159 297 891 164 297 892 161 297 893 161 298 894 164 298 895 165 298 896 165 299 897 164 299 898 53 299 899 165 300 900 53 300 901 55 300 902 166 301 903 161 301 904 165 301 905 166 302 906 165 302 907 167 302 908 167 303 909 165 303 910 55 303 911 166 304 912 167 304 913 168 304 914 166 305 915 168 305 916 169 305 917 168 306 918 167 306 919 170 306 920 168 307 921 170 307 922 171 307 923 168 308 924 171 308 925 172 308 926 173 309 927 162 309 928 161 309 929 173 310 930 161 310 931 166 310 932 162 311 933 173 311 934 174 311 935 174 312 936 173 312 937 166 312 938 162 313 939 174 313 940 175 313 941 174 314 942 166 314 943 176 314 944 175 315 945 174 315 946 177 315 947 174 316 948 176 316 949 178 316 950 174 317 951 178 317 952 177 317 953 160 318 954 162 318 955 175 318 956 160 319 957 175 319 958 179 319 959 160 320 960 179 320 961 180 320 962 160 321 963 180 321 964 181 321 965 181 322 966 180 322 967 182 322 968 182 323 969 180 323 970 183 323 971 182 324 972 183 324 973 184 324 974 182 325 975 184 325 976 185 325 977 182 326 978 185 326 979 181 326 980 186 327 981 185 327 982 106 327 983 185 328 984 186 328 985 187 328 986 185 329 987 187 329 988 188 329 989 185 330 990 188 330 991 181 330 992 188 331 993 187 331 994 189 331 995 181 332 996 188 332 997 190 332 998 190 333 999 188 333 1000 191 333 1001 191 334 1002 188 334 1003 77 334 1004 181 335 1005 190 335 1006 192 335 1007 192 336 1008 190 336 1009 191 336 1010 181 337 1011 192 337 1012 160 337 1013 192 338 1014 191 338 1015 37 338 1016 160 339 1017 192 339 1018 39 339 1019 39 340 1020 192 340 1021 37 340 1022 167 341 1023 55 341 1024 193 341 1025 167 342 1026 193 342 1027 194 342 1028 167 343 1029 194 343 1030 170 343 1031 170 344 1032 194 344 1033 195 344 1034 195 345 1035 194 345 1036 196 345 1037 195 346 1038 196 346 1039 197 346 1040 195 347 1041 197 347 1042 198 347 1043 55 348 1044 56 348 1045 193 348 1046 193 349 1047 56 349 1048 54 349 1049 193 350 1050 54 350 1051 196 350 1052 193 351 1053 196 351 1054 194 351 1055 97 352 1056 196 352 1057 54 352 1058 196 353 1059 97 353 1060 199 353 1061 196 354 1062 199 354 1063 197 354 1064 176 355 1065 166 355 1066 169 355 1067 176 356 1068 169 356 1069 200 356 1070 176 357 1071 200 357 1072 201 357 1073 176 358 1074 201 358 1075 202 358 1076 202 359 1077 201 359 1078 203 359 1079 202 360 1080 203 360 1081 204 360 1082 202 361 1083 204 361 1084 205 361 1085 176 362 1086 202 362 1087 206 362 1088 176 363 1089 206 363 1090 177 363 1091 176 364 1092 177 364 1093 178 364 1094 177 365 1095 206 365 1096 207 365 1097 177 366 1098 207 366 1099 180 366 1100 168 367 1101 208 367 1102 169 367 1103 208 368 1104 168 368 1105 172 368 1106 208 369 1107 172 369 1108 209 369 1109 208 370 1110 209 370 1111 169 370 1112 169 371 1113 209 371 1114 210 371 1115 169 372 1116 210 372 1117 200 372 1118 209 373 1119 211 373 1120 212 373 1121 209 374 1122 212 374 1123 210 374 1124 211 375 1125 209 375 1126 171 375 1127 171 376 1128 209 376 1129 172 376 1130 211 377 1131 171 377 1132 213 377 1133 210 378 1134 214 378 1135 203 378 1136 210 379 1137 203 379 1138 201 379 1139 210 380 1140 201 380 1141 200 380 1142 203 381 1143 214 381 1144 215 381 1145 203 382 1146 215 382 1147 204 382 1148 204 383 1149 215 383 1150 216 383 1151 204 384 1152 216 384 1153 217 384 1154 216 385 1155 215 385 1156 218 385 1157 216 386 1158 218 386 1159 219 386 1160 219 387 1161 218 387 1162 220 387 1163 218 388 1164 215 388 1165 221 388 1166 218 389 1167 221 389 1168 220 389 1169 221 390 1170 215 390 1171 214 390 1172 220 391 1173 221 391 1174 222 391 1175 222 392 1176 221 392 1177 214 392 1178 222 393 1179 214 393 1180 223 393 1181 223 394 1182 214 394 1183 210 394 1184 222 395 1185 223 395 1186 213 395 1187 223 396 1188 210 396 1189 212 396 1190 223 397 1191 212 397 1192 213 397 1193 213 398 1194 212 398 1195 211 398 1196 170 399 1197 224 399 1198 171 399 1199 224 400 1200 170 400 1201 225 400 1202 224 401 1203 225 401 1204 171 401 1205 171 402 1206 225 402 1207 213 402 1208 170 403 1209 195 403 1210 225 403 1211 225 404 1212 195 404 1213 226 404 1214 226 405 1215 195 405 1216 227 405 1217 225 406 1218 226 406 1219 228 406 1220 225 407 1221 228 407 1222 213 407 1223 213 408 1224 228 408 1225 222 408 1226 222 409 1227 228 409 1228 220 409 1229 220 410 1230 228 410 1231 219 410 1232 216 411 1233 219 411 1234 229 411 1235 216 412 1236 229 412 1237 217 412 1238 229 413 1239 219 413 1240 228 413 1241 229 414 1242 228 414 1243 230 414 1244 11 415 1245 10 415 1246 191 415 1247 11 416 1248 191 416 1249 77 416 1250 11 417 1251 77 417 1252 72 417 1253 72 418 1254 77 418 1255 16 418 1256 16 419 1257 77 419 1258 75 419 1259 10 420 1260 37 420 1261 191 420 1262 77 421 1263 189 421 1264 231 421 1265 189 422 1266 77 422 1267 188 422 1268 77 423 1269 231 423 1270 76 423 1271 76 424 1272 231 424 1273 78 424 1274 187 425 1275 186 425 1276 189 425 1277 189 426 1278 186 426 1279 106 426 1280 78 427 1281 231 427 1282 232 427 1283 231 428 1284 189 428 1285 233 428 1286 231 429 1287 233 429 1288 232 429 1289 233 430 1290 189 430 1291 106 430 1292 232 431 1293 233 431 1294 103 431 1295 103 432 1296 233 432 1297 106 432 1298 232 433 1299 103 433 1300 78 433 1301 103 434 1302 106 434 1303 102 434 1304 78 435 1305 103 435 1306 156 435 1307 78 436 1308 156 436 1309 79 436 1310 156 437 1311 103 437 1312 104 437 1313 185 438 1314 234 438 1315 106 438 1316 234 439 1317 185 439 1318 184 439 1319 106 440 1320 234 440 1321 235 440 1322 235 441 1323 234 441 1324 184 441 1325 106 442 1326 235 442 1327 107 442 1328 107 443 1329 235 443 1330 184 443 1331 107 444 1332 184 444 1333 236 444 1334 107 445 1335 236 445 1336 237 445 1337 236 446 1338 184 446 1339 197 446 1340 197 447 1341 184 447 1342 238 447 1343 197 448 1344 238 448 1345 239 448 1346 238 449 1347 184 449 1348 183 449 1349 156 450 1350 80 450 1351 79 450 1352 86 451 1353 108 451 1354 240 451 1355 86 452 1356 240 452 1357 95 452 1358 95 453 1359 240 453 1360 97 453 1361 240 454 1362 108 454 1363 241 454 1364 241 455 1365 108 455 1366 107 455 1367 241 456 1368 107 456 1369 237 456 1370 241 457 1371 237 457 1372 240 457 1373 240 458 1374 237 458 1375 236 458 1376 240 459 1377 236 459 1378 97 459 1379 97 460 1380 236 460 1381 197 460 1382 97 461 1383 197 461 1384 199 461 1385 180 462 1386 175 462 1387 177 462 1388 175 463 1389 180 463 1390 179 463 1391 242 464 1392 183 464 1393 207 464 1394 207 465 1395 183 465 1396 180 465 1397 242 466 1398 207 466 1399 238 466 1400 238 467 1401 207 467 1402 243 467 1403 238 468 1404 243 468 1405 239 468 1406 242 469 1407 238 469 1408 183 469 1409 244 470 1410 206 470 1411 202 470 1412 206 471 1413 244 471 1414 245 471 1415 206 472 1416 245 472 1417 207 472 1418 244 473 1419 202 473 1420 246 473 1421 246 474 1422 202 474 1423 217 474 1424 246 475 1425 217 475 1426 247 475 1427 245 476 1428 244 476 1429 248 476 1430 245 477 1431 248 477 1432 207 477 1433 248 478 1434 244 478 1435 246 478 1436 207 479 1437 248 479 1438 243 479 1439 246 480 1440 247 480 1441 249 480 1442 246 481 1443 249 481 1444 248 481 1445 248 482 1446 249 482 1447 243 482 1448 249 483 1449 247 483 1450 198 483 1451 249 484 1452 198 484 1453 243 484 1454 243 485 1455 198 485 1456 197 485 1457 243 486 1458 197 486 1459 239 486 1460 250 487 1461 202 487 1462 205 487 1463 202 488 1464 250 488 1465 217 488 1466 250 489 1467 205 489 1468 204 489 1469 250 490 1470 204 490 1471 217 490 1472 198 491 1473 227 491 1474 195 491 1475 227 492 1476 198 492 1477 226 492 1478 226 493 1479 198 493 1480 247 493 1481 226 494 1482 247 494 1483 228 494 1484 228 495 1485 247 495 1486 217 495 1487 228 496 1488 217 496 1489 230 496 1490 230 497 1491 229 497 1492 217 497 1493</p>
        </polylist>
      </mesh>
    </geometry>
  </library_geometries>
  <library_visual_scenes>
    <visual_scene id="Scene" name="Scene">
      <node id="SeaCucumber" name="SeaCucumber" type="NODE">
        <scale sid="scale">1 1 1</scale>
        <translate sid="location">0 0 0</translate>
        <rotate sid="rotationX">1 0 0 0</rotate>
        <rotate sid="rotationY">0 1 0 0</rotate>
        <rotate sid="rotationZ">0 0 1 0</rotate>
        <instance_geometry url="#SeaCucumber-mesh" name="SeaCucumber">
          <bind_material>
            <technique_common>
            </technique_common>
          </bind_material>
        </instance_geometry>
      </node>
    </visual_scene>
  </library_visual_scenes>
  <scene>
    <instance_visual_scene url="#Scene"/>
  </scene>
</COLLADA>
