<?xml version="1.0" encoding="utf-8"?>
<COLLADA xmlns="http://www.collada.org/2005/11/COLLADASchema" version="1.4.1" xmlns:xsi="http://www.w3.org/2001/XMLSchema-instance">
  <asset>
    <contributor>
      <author>Blockbench user</author>
      <authoring_tool>Blockbench</authoring_tool>
    </contributor>
    <created>2026-03-08T10:05:57.166Z</created>
    <modified>2026-03-08T10:05:57.176Z</modified>
    <unit name="meter" meter="1.0"/>
    <up_axis>Y_UP</up_axis>
  </asset>
  <library_effects>
  </library_effects>
  <library_images>
  </library_images>
  <library_materials>
  </library_materials>
  <library_geometries>
    <geometry id="SmokedHam-mesh" name="SmokedHam">
      <mesh>
        <source id="SmokedHam-mesh-positions">
          <float_array id="SmokedHam-mesh-positions-array" count="756">-0.44693 -0.117226 -0.303009 -0.454773 -0.185562 -0.226013 -0.46582 -0.060589 -0.272522 -0.41449 0.042301 -0.363464 -0.468536 0.031879 -0.339691 -0.469025 0.156158 -0.150986 -0.449493 -0.083374 -0.126968 -0.343109 -0.173523 -0.234482 -0.336609 -0.125092 -0.321625 -0.289276 -0.17012 -0.33609 -0.275238 -0.242157 -0.225739 -0.340424 -0.22374 -0.111107 -0.279327 -0.266754 -0.075615 -0.380646 -0.232742 -0.101982 -0.366516 -0.244904 -0.003369 -0.462402 -0.197083 -0.025049 -0.465912 -0.196625 -0.125687 -0.44516 -0.100594 0.004798 -0.449921 0.047226 -0.005864 -0.450897 -0.037312 0.084541 -0.381378 -0.018488 -0.373169 -0.418152 0.085037 -0.283875 -0.310913 0.067955 -0.343811 -0.281586 0.039078 -0.372803 -0.253571 -0.08976 -0.395264 -0.176956 0.046844 -0.36795 -0.250031 0.177429 -0.401337 -0.214096 -0.164276 -0.362091 -0.163528 -0.111694 -0.358368 -0.174957 -0.22525 -0.20723 -0.208466 -0.259094 -0.159103 -0.142319 -0.232071 -0.260071 -0.026094 -0.207291 -0.262054 -0.081924 -0.26297 -0.054955 -0.075539 -0.14769 -0.364807 -0.097946 -0.020773 -0.419373 -0.013165 -0.123108 -0.345612 -0.067848 0.109085 -0.384888 -0.003888 0.011518 -0.377167 0.081009 -0.111534 -0.385406 0.164627 -0.022047 -0.361023 0.139191 -0.160461 -0.318207 0.016623 -0.240067 -0.247391 -0.023897 -0.226608 -0.031422 0.042625 -0.260986 -0.025928 0.127167 -0.228561 -0.213318 0.126312 -0.243774 -0.008506 0.179886 -0.225876 -0.263916 0.233109 -0.283203 -0.106323 -0.187225 -0.216843 0.064796 -0.130981 -0.257385 -0.041756 -0.032078 -0.216476 0.080513 -0.104233 -0.242432 0.091499 -0.12674 -0.243393 0.18985 -0.135315 -0.238708 0.089142 -0.195312 -0.200195 0.219986 -0.243607 -0.252716 0.164795 -0.225891 -0.198624 0.255371 -0.282776 -0.244217 0.070885 -0.315063 -0.227921 0.206009 -0.293427 -0.153931 0.296906 -0.344116 -0.105965 0.288818 -0.337585 -0.216965 0.140076 -0.408752 -0.142593 0.272675 -0.3591 -0.039276 0.301331 -0.380035 -0.241409 0.106758 -0.464294 -0.203384 0.109047 -0.486847 -0.110565 0.245148 -0.442932 0.097435 -0.273254 -0.389893 0.167007 -0.318726 -0.469666 0.170486 -0.248276 -0.4216 0.19957 -0.278748 -0.468719 0.184067 -0.184982 -0.47113 0.213257 -0.074219 -0.433258 0.230087 -0.112381 -0.33313 0.205139 -0.193039 -0.260773 0.207169 -0.305908 -0.358795 0.277191 -0.159012 -0.367798 0.283844 -0.08297 -0.259644 0.256531 -0.157394 -0.313904 0.189789 -0.339844 -0.228302 0.238831 -0.239334 -0.231842 0.265594 -0.111 -0.171951 0.212234 -0.262756 -0.189621 0.243393 -0.03418 -0.16629 0.239822 -0.192429 -0.153641 0.165314 -0.360504 -0.087448 0.172882 -0.400208 0.008867 0.125473 -0.348389 -0.120224 0.218307 -0.362976 -0.104416 0.248672 -0.25946 -0.006111 0.207306 -0.340302 -0.475739 0.219818 -0.009975 -0.407196 0.283325 -0.024862 -0.489716 0.203949 0.13884 -0.440765 0.217804 0.008659 -0.361633 0.236862 0.027428 -0.384521 0.238892 0.111717 -0.317841 0.28653 -0.009288 -0.272308 0.247162 0.013251 -0.355652 0.218155 0.092865 -0.257751 0.263855 -0.059994 -0.169525 0.222412 0.030853 0.074554 0.053047 -0.415131 0.099426 0.12851 -0.347137 0.165604 0.022623 -0.366821 0.300354 -0.035294 -0.371521 0.197769 -0.117554 -0.370239 0.237534 0.030493 -0.388702 0.249466 0.100914 -0.35498 0.336731 0.031326 -0.383759 0.166245 0.114426 -0.355713 0.052971 0.192978 -0.372742 -0.013192 0.237656 -0.207977 -0.055046 0.238266 -0.224457 0.06591 0.235489 -0.333527 0.126343 0.189651 -0.338776 0.185318 0.182297 -0.334259 0.18045 0.24408 -0.286163 0.297913 0.155182 -0.308929 0.119286 0.229767 -0.202408 0.025166 0.280457 -0.092415 -0.024519 0.239044 -0.016924 0.05072 0.245346 0.033531 0.077797 0.281586 -0.075203 0.122299 0.22728 0.036888 0.177933 0.284058 -0.09214 0.233643 0.261505 -0.082222 0.264191 0.212021 -0.234421 0.127441 0.260956 -0.037659 0.227631 0.239365 0.029776 -0.120399 0.275787 -0.066315 -0.049217 0.257446 -0.052345 -0.031986 0.224976 0.034023 -0.493805 0.088371 0.229813 -0.498444 -0.06633 0.303009 -0.439636 -0.029272 0.33252 -0.49649 0.060547 0.295319 -0.391418 0.089912 0.278717 -0.41925 0.166733 0.269714 -0.43689 0.045166 0.34198 -0.300873 0.031986 0.354248 -0.264679 -0.03101 0.327118 -0.208984 0.045971 0.334503 -0.214188 -0.086555 0.320923 -0.304474 0.158188 0.354065 -0.359375 0.133148 0.261414 -0.214523 0.123123 0.286865 -0.284637 0.169922 0.287048 -0.170013 -0.123154 0.305206 -0.167633 -0.071655 0.382324 -0.16275 0.003384 0.375061 -0.062298 -0.172409 0.284729 -0.082855 -0.08007 0.380798 -0.035278 -0.231827 0.208633 0.091736 -0.24472 0.178833 -0.010653 -0.148956 0.335907 0.101433 -0.200302 0.308197 -0.053955 -0.100571 0.331421 -0.022152 -0.078285 0.358002 0.142563 -0.107986 0.364258 -0.088371 -0.037022 0.400238 -0.019951 0.00478 0.359436 0.097191 -0.029999 0.384094 -0.019506 0.029827 0.374756 0.037403 0.068642 0.393524 0.049164 -0.009732 0.389679 -0.155365 0.042583 0.407379 -0.083748 0.072006 0.40802 -0.176483 0.102951 0.367371 -0.088806 0.13147 0.358368 -0.019775 0.164581 0.258545 0.053219 0.202072 0.230347 -0.015167 0.212265 0.157822 -0.165375 0.171921 0.272064 -0.206787 0.184875 0.229797 -0.327484 0.190811 0.237366 -0.11396 0.218811 0.215179 -0.081085 0.246414 0.105705 -0.17067 0.228333 0.065041 -0.246368 0.255981 0.081367 -0.291077 0.196091 0.177887 -0.497253 0.179245 0.23027 -0.439636 0.185791 0.178177 -0.364319 0.185852 0.202545 0.356689 -0.175919 -0.307983 0.408325 -0.230011 -0.223389 0.396576 -0.282288 -0.070717 0.48938 -0.213531 -0.20755 0.479095 -0.267151 0.014928 0.49173 -0.15387 -0.264374 0.481598 -0.15892 -0.078865 0.371582 -0.136093 -0.362946 0.493378 -0.061905 -0.271759 0.487183 -0.090889 -0.33844 0.487671 -0.109695 -0.109985 0.480011 -0.036243 -0.272552 0.472412 -0.098022 -0.062241 0.482239 0.028322 -0.352325 0.39682 0.09552 -0.335541 0.460266 0.123581 -0.029791 0.469482 0.155396 -0.202454 0.479858 0.166489 -0.318298 0.479462 0.214539 -0.26889 0.480438 0.216446 -0.176453 0.331512 0.156235 -0.35083 0.36499 0.209473 -0.32074 0.429657 0.21019 -0.244461 0.358795 0.230194 -0.217072 0.340973 0.216843 -0.246567 0.26178 0.241943 -0.198349 0.365753 0.26413 -0.21257 0.237732 -0.278564 0.060181 0.161209 -0.28009 0.194351 0.208908 -0.25473 0.28656 0.474487 -0.276093 0.206741 0.305481 -0.17775 0.369049 0.463654 0.034458 0.085472 0.470367 -0.138245 0.165421 0.461121 0.007729 0.21431 0.463593 -0.100693 0.277008 0.476593 -0.16777 0.128799 0.473694 -0.125092 0.261536 0.458771 -0.10466 0.385773 0.465149 0.006155 0.372742 0.464508 -0.194427 0.347443 0.476776 -0.281708 0.134857 0.31308 0.25293 0.018795 0.482117 0.269043 -0.155716 0.400269 0.288666 -0.088531 0.37674 0.247131 0.048019 0.465698 0.237976 0.05463 0.479797 0.273254 -0.0783 0.462097 0.15892 -0.010369 0.290192 -0.04327 0.404083 0.369904 -0.004284 0.403015 0.356628 0.033321 0.377289 0.216049 0.062584 0.361206 0.26532 0.101067 0.380188 0.191208 0.130341 0.313721 0.204529 0.01285 0.408356 0.122391 0.053268 0.378632 0.132416 0.096321 0.333496 0.125183 0.152786 0.265991 0.188583 0.245865 0.133957 0.27005 0.207748 0.111649 0.340759 0.242798 0.136551 0.352722 0.189789 0.292847 0.307434 0.187943 0.353088 0.471252 0.169693 0.299255 0.315491 0.151657 0.389282 0.466827 0.10556 0.388916</float_array>
          <technique_common>
            <accessor source="#SmokedHam-mesh-positions-array" count="252" stride="3">
              <param name="X" type="float"/>
              <param name="Y" type="float"/>
              <param name="Z" type="float"/>
            </accessor>
          </technique_common>
        </source>
        <source id="SmokedHam-mesh-normals">
          <float_array id="SmokedHam-mesh-normals-array" count="1500">-0.949988 -0.179164 -0.255781 -0.343308 -0.270983 -0.899282 -0.953686 -0.194619 -0.229359 -0.999712 -0.021135 0.011329 -0.992437 -0.070876 0.100228 0.030576 -0.74911 -0.66174 -0.143847 -0.860394 -0.488906 -0.69468 -0.605493 -0.388328 -0.639514 -0.67846 -0.361544 -0.667717 -0.69445 -0.268129 -0.508064 -0.847671 -0.152725 0.120171 -0.918587 -0.376505 0.069341 -0.917939 -0.390615 0.184337 -0.971917 -0.14628 -0.437046 -0.89815 -0.048146 -0.352597 -0.925068 -0.141156 -0.392252 -0.919809 0.009495 -0.983346 -0.133013 -0.123846 -0.980714 0.143681 0.1325 -0.985624 0.165259 0.035128 -0.988268 0.143858 0.051299 -0.999129 -0.030094 0.028923 -0.998416 -0.035317 -0.043803 -0.178949 -0.488168 -0.854207 -0.57418 -0.185445 -0.79745 -0.357282 0.815922 -0.454555 -0.125973 0.871577 -0.473797 0.12787 0.223904 -0.966186 -0.292857 0.512805 -0.807011 0.207461 -0.353839 -0.912007 -0.660408 -0.012711 -0.750799 -0.545881 -0.325856 -0.771901 0.032366 0.178481 -0.983411 0.061165 -0.214977 -0.974702 -0.247942 -0.500588 -0.829419 -0.118868 -0.838288 -0.532112 0.373964 -0.024361 -0.927123 0.317371 -0.240262 -0.91736 0.282457 -0.866108 -0.412403 0.671092 -0.616201 -0.412228 -0.774127 -0.476601 -0.416628 0.200836 -0.958258 -0.203488 0.1647 -0.816742 -0.552998 -0.310977 -0.633404 -0.708585 -0.600849 -0.098834 -0.793229 -0.235457 -0.41866 -0.877088 0.387967 -0.305381 -0.869611 -0.316695 0.311337 -0.895976 0.357351 0.161464 -0.919907 0.446309 -0.664009 -0.599917 0.463476 -0.232365 -0.8551 -0.36243 -0.188943 -0.912658 -0.217284 -0.670624 -0.709261 0.12408 0.151268 -0.980674 0.576933 -0.336276 -0.744357 -0.249891 -0.647684 -0.719764 0.114864 -0.753113 -0.647786 -0.594211 -0.801954 -0.061509 -0.456919 -0.888991 -0.030326 0.242733 -0.826118 -0.508537 0.136085 -0.984684 -0.108989 0.215188 -0.973956 -0.071445 -0.462078 -0.71869 -0.519585 -0.211527 -0.93927 -0.270237 0.19381 -0.886777 -0.419599 -0.086247 -0.982787 -0.163373 0.28158 -0.947411 0.152069 0.747016 -0.662595 0.054167 -0.586513 -0.809939 -0.00142 -0.342243 -0.935227 -0.090667 -0.140794 -0.98426 -0.106815 0.55113 -0.831055 -0.074857 -0.461637 -0.885852 0.046445 0.493884 -0.862006 0.114123 0.357318 -0.915905 0.182871 -0.078483 -0.98883 0.126714 0.347113 -0.935185 0.070297 -0.128013 -0.982412 0.135936 -0.11617 -0.992566 -0.036283 -0.430418 -0.895463 0.113517 -0.384074 -0.923245 -0.010247 -0.511178 -0.856991 0.065296 0.668952 -0.734564 0.11366 0.423471 -0.811831 0.401998 0.258777 -0.946341 -0.193579 0.281152 -0.947489 0.152377 -0.001965 -0.858381 0.513009 -0.306052 -0.951107 0.041575 -0.106632 -0.758546 0.642836 -0.605042 -0.540868 0.584282 -0.442886 -0.896575 0.002302 -0.893658 -0.377568 0.242524 -0.415213 -0.909255 0.029218 0.286554 -0.761755 0.581048 -0.123402 -0.209719 0.969943 0.488275 -0.872504 0.018015 0.879311 -0.460211 0.122548 -0.193726 -0.896354 0.398772 -0.25034 -0.600442 0.759473 -0.411732 -0.911048 -0.02163 -0.46941 -0.763759 0.443088 -0.437001 -0.89816 -0.048369 -0.978786 -0.203549 -0.023375 -0.962475 0.220793 -0.157775 0.046628 0.701994 -0.710655 -0.469871 -0.20324 -0.859019 0.59407 0.446253 -0.669282 -0.661532 0.014273 -0.749781 -0.999923 -0.011391 0.004911 -0.628844 0.278797 -0.725829 -0.999682 0.023134 0.009993 -0.58398 0.795451 -0.161942 -0.999757 -0.011769 -0.01866 -0.572969 0.789359 -0.220496 -0.147822 0.985039 0.08858 -0.162745 0.867365 -0.470311 -0.049514 0.998678 -0.01378 -0.594705 0.160217 -0.787817 -0.590272 0.795068 -0.139447 0.109444 0.456074 -0.883186 -0.485799 0.016529 -0.873914 -0.155576 -0.340601 -0.927247 -0.692894 0.006466 -0.721011 -0.697363 0.011254 -0.71663 -0.294311 0.955286 -0.028461 -0.112892 0.944928 -0.30719 -0.150386 0.704764 -0.693319 -0.456565 0.84531 -0.277487 -0.272528 0.913654 -0.301602 0.020602 0.978845 -0.203562 0.193007 0.846246 -0.496605 0.357151 0.916295 -0.181234 0.085363 0.953916 -0.287675 0.560075 0.825544 -0.06924 -0.84332 0.519902 -0.136064 0.270313 0.886736 -0.375007 0.388033 -0.01845 -0.921461 -0.209336 0.102319 -0.972476 -0.455463 -0.337731 -0.823706 0.441967 -0.078795 -0.893564 -0.790654 0.480904 -0.378943 -0.584611 0.770176 -0.255068 -0.51658 0.28814 -0.8063 -0.359366 0.908862 -0.211723 0.203073 0.704177 -0.680365 0.150314 0.94223 -0.299345 -0.994416 -0.073492 0.075741 -0.993069 -0.105699 0.051388 -0.987271 -0.14901 -0.055611 -0.977186 -0.149764 -0.150594 -0.606961 0.746289 -0.273224 -0.688709 0.714632 -0.122392 0.00073 0.994355 0.106102 -0.362422 0.56493 0.741286 -0.503788 0.796451 -0.334461 -0.316192 0.555464 0.769079 -0.214976 0.973187 -0.081813 -0.033448 0.999346 -0.013752 -0.150709 0.670135 0.726778 0.067881 0.553679 0.829959 -0.066026 0.957773 0.279841 0.211826 0.960841 -0.178646 0.540951 0.790341 0.287634 0.154877 0.981549 0.112136 0.117955 0.990355 -0.072682 0.199207 0.932416 -0.301523 0.231653 0.961096 0.150438 0.188786 0.948674 0.253729 0.186201 0.950414 0.249085 0.601674 0.795602 0.070753 0.389912 0.184207 -0.90224 -0.529537 0.262945 -0.806505 -0.012279 0.671565 -0.740844 -0.048999 -0.621911 -0.781554 0.531183 0.463791 -0.709043 0.431987 -0.125372 -0.893123 -0.069956 0.071734 -0.994968 -0.10578 -0.344612 -0.932766 -0.277198 -0.117708 -0.953576 -0.304462 0.452866 -0.837983 0.041464 0.425802 -0.903866 0.028205 0.11988 -0.992388 0.533101 0.179285 -0.826838 -0.481576 -0.001535 -0.876403 0.024784 -0.353535 -0.935093 0.09974 0.970981 -0.217366 -0.208029 0.696661 -0.686576 -0.336204 0.913874 -0.227597 0.417123 -0.059619 -0.906892 0.366825 0.567992 -0.736766 -0.045531 0.154998 -0.986865 -0.188905 0.119259 -0.974727 0.107179 0.272156 -0.956266 0.054999 0.28686 -0.956393 0.136189 0.615215 -0.776507 0.310318 0.599058 -0.738128 0.580673 0.788689 -0.201963 -0.54555 0.795948 -0.26238 -0.335578 0.914201 -0.227208 0.368752 0.923016 -0.109832 -0.679581 0.732182 -0.04561 -0.284223 0.907073 0.31054 -0.114672 0.950653 0.288288 0.094165 0.932345 -0.349093 0.212921 0.909807 0.356252 -0.457134 0.869908 -0.185173 0.396509 0.900146 -0.180329 0.45227 0.870887 -0.192373 -0.527267 0.839261 -0.132783 0.49332 0.84988 -0.185312 0.063781 0.907813 0.414497 -0.040156 0.932742 0.358302 -0.07706 0.9106 0.406041 0.291867 0.947589 -0.129957 0.279548 0.953722 -0.110757 -0.304554 0.939452 -0.157089 -0.691707 0.720701 0.046174 0.269065 0.956151 -0.115665 0.178402 0.932216 0.314874 0.265014 0.918795 0.292548 0.685465 0.720708 -0.10353 0.017035 0.999835 -0.006254 -0.612873 -0.783035 0.10603 -0.979107 0.119008 -0.164882 -0.969141 -0.052463 -0.24086 -0.985726 -0.04694 -0.161682 0.171519 -0.765774 0.619815 -0.464273 -0.509227 0.724664 -0.999288 0.013248 -0.035332 -0.477875 0.060475 0.876344 0.291768 -0.383279 0.876338 -0.193616 0.905826 0.376818 -0.429844 -0.050079 0.901513 -0.626694 -0.07545 0.775604 0.343851 -0.130857 0.929862 -0.162112 0.856804 0.489496 -0.126683 -0.522573 0.843131 0.025107 0.807568 0.58924 -0.191965 -0.479148 0.856485 -0.237544 -0.230431 0.943649 0.240856 -0.263859 0.934006 0.009504 -0.102301 0.994708 -0.646996 -0.017356 0.762295 0.209004 0.007382 0.977887 -0.7246 0.639662 0.256491 0.64151 0.435841 0.631275 0.530794 0.794074 0.296149 -0.301752 -0.160414 0.939794 -0.114017 -0.211897 0.970618 0.179276 -0.510598 0.840922 -0.102352 -0.494259 0.863268 0.521409 -0.704235 0.481857 -0.434208 -0.742885 0.509495 -0.792794 -0.031241 0.608688 -0.592655 0.115717 0.797101 -0.189076 -0.699849 0.688812 -0.169425 -0.73048 0.661584 -0.07223 -0.828414 0.55544 -0.025029 -0.79223 0.609709 0.147654 -0.982444 -0.114026 -0.128338 -0.984304 -0.121142 -0.190442 -0.805421 0.561275 -0.225672 -0.795854 0.561862 -0.085421 -0.535981 0.839897 0.080397 -0.90303 0.421988 -0.538823 -0.414206 0.733555 -0.456806 -0.332312 0.825165 0.203416 -0.856366 0.474615 -0.091963 -0.310738 0.946036 -0.024722 -0.414072 0.909908 0.338224 -0.350974 0.873168 -0.264576 0.109949 0.958077 0.524806 -0.028593 0.850742 0.078631 0.627447 0.774679 -0.209192 -0.011337 0.977809 0.097899 -0.520543 0.848204 0.075197 -0.521279 0.850067 -0.417333 -0.1069 0.902444 0.12066 -0.644922 0.754663 -0.772355 -0.311079 0.553803 0.171216 -0.435996 0.883512 -0.797752 0.113417 0.592224 -0.20833 0.488628 0.847255 -0.858487 0.223397 0.46162 0.637008 0.525275 0.564186 -0.126026 0.629488 0.766722 0.615173 0.515587 0.596432 -0.570629 0.535662 0.622454 -0.158553 0.771823 0.615752 -0.292699 0.869357 0.398178 -0.562033 0.699797 0.440912 -0.20427 0.804197 0.558159 -0.443428 0.637661 0.629889 0.07923 0.6712 0.73703 -0.16458 0.828957 0.53455 0.270288 0.842319 0.466308 -0.231746 0.843005 0.485423 0.124117 0.894634 0.429214 0.353853 0.876205 0.32719 0.439384 0.897712 0.032479 -0.236353 0.962801 0.130965 -0.231616 0.945894 0.227243 0.456856 0.888284 0.047266 -0.264681 0.950922 0.160284 -0.313139 0.932982 0.17745 -0.118665 0.977694 -0.173301 0.256486 0.953778 -0.156594 0.384694 0.868231 0.313346 0.289576 0.928974 -0.230551 -0.168718 0.870643 0.462076 -0.326886 0.945061 0.002128 -0.98514 -0.134458 -0.106864 -0.975272 -0.114357 -0.189123 -0.995051 -0.037292 -0.092103 -0.453923 -0.021703 0.890777 0.13467 0.953736 0.268797 0.060864 0.97981 0.190441 -0.132398 0.825015 0.549383 -0.319675 0.947329 -0.019382 -0.071496 0.973204 0.218544 -0.1705 0.833915 0.524896 0.669132 0.696876 0.25812 0.641462 0.751106 0.156094 -0.040055 0.959344 0.279381 -0.256852 0.870004 0.420856 -0.13713 0.990545 0.003994 -0.220987 0.970585 0.095544 0.056413 0.990865 0.12249 0.265341 0.242427 0.933179 0.243448 0.19944 0.949187 -0.50075 0.554232 0.664888 0.550383 0.82508 -0.127756 -0.447949 0.89374 0.023892 -0.443938 0.860921 0.248464 -0.023268 -0.75829 -0.651502 -0.602002 -0.132926 -0.787353 -0.009607 -0.642148 -0.766521 0.087065 -0.814322 -0.573847 0.046116 -0.93365 -0.355205 0.074537 -0.945187 -0.317909 0.245653 -0.922722 -0.297048 0.271083 -0.727293 -0.630522 0.37451 -0.905207 -0.200853 0.998847 0.006018 0.047626 0.326475 -0.658601 -0.677981 0.998169 0.024744 0.055191 0.295832 -0.809819 -0.506632 -0.060354 -0.800448 -0.596356 0.99844 -0.013542 0.054163 0.03548 -0.059793 -0.99758 0.397559 -0.686834 -0.608446 0.188471 0.049741 -0.980818 0.996337 -0.024435 -0.081944 0.992365 -0.123331 -0.001425 0.872391 0.459564 0.166537 0.872445 0.459478 0.166495 0.816788 0.437091 0.376576 0.994054 0.029001 -0.104958 0.141864 -0.108715 -0.983898 0.197166 -0.280238 -0.939464 0.050424 -0.207014 -0.977038 0.196109 0.464925 -0.863358 -0.400927 -0.913468 -0.069524 0.9977 0.036303 0.057247 0.997628 0.047364 0.04996 0.997791 0.030688 0.058912 0.996042 -0.004696 0.088765 -0.002706 0.239085 -0.970995 0.993762 -0.075866 0.081745 0.984753 -0.173822 -0.006812 0.21514 -0.014477 -0.976476 0.125894 -0.112775 -0.985613 0.13064 0.51435 -0.847572 0.169545 0.401962 -0.899823 0.272737 0.690804 -0.669631 -0.502833 0.774534 -0.38374 -0.604235 0.644656 -0.468315 0.297674 0.449124 -0.842424 -0.096467 0.995145 -0.019512 -0.064728 0.996865 0.045504 0.183246 0.957005 -0.224862 0.076353 0.994325 -0.074076 -0.633519 0.722475 -0.276918 0.077434 0.889872 -0.449592 -0.148734 0.752609 -0.64145 -0.113987 0.929145 -0.351705 0.518429 0.77665 -0.357835 -0.030342 0.768316 -0.639352 -0.167836 0.163383 -0.972182 -0.000474 -0.999612 0.027864 -0.317584 -0.947576 0.035218 -0.218251 -0.966444 -0.13547 -0.436884 -0.895478 -0.085155 0.195148 -0.980282 0.031067 -0.334435 -0.929739 0.15407 -0.485567 -0.814998 0.316233 -0.019459 -0.945173 0.32599 -0.344836 -0.844125 0.410538 0.001852 -0.964442 0.26429 -0.160129 -0.621163 0.767148 -0.212534 -0.436279 0.874351 0.998525 0.053023 0.011648 0.998755 0.046803 0.017241 0.998127 0.052969 0.030613 0.799789 0.589854 0.111399 0.997847 0.048367 0.044298 0.990387 0.11666 0.07432 0.993698 -0.110429 0.019243 0.8988 0.429058 -0.089827 0.953768 0.291564 -0.072914 0.934285 0.352371 0.054273 0.997727 -0.052448 0.04232 0.996119 -0.0751 0.045902 0.993033 0.013479 0.117064 0.084211 -0.386742 0.918335 -0.066707 -0.087521 0.993927 0.013979 -0.739138 0.673409 0.082543 -0.85937 0.504648 0.998076 0.02224 0.057878 0.999496 0.003284 0.03157 0.999703 0.002893 0.024218 0.009627 -0.996893 0.078176 0.999804 -0.007117 0.018469 0.024432 -0.992474 -0.119994 0.067546 -0.991614 0.110178 -0.931364 0.247202 -0.267307 0.336872 0.920071 0.199965 -0.130768 0.973904 0.185504 -0.084539 0.979019 -0.185403 -0.167319 0.950925 0.260282 -0.150228 0.968145 0.200318 -0.160177 0.877771 -0.45151 -0.043089 0.957875 0.283936 0.075353 0.950311 0.302044 0.149875 0.951568 0.268431 0.195914 0.979474 -0.047407 0.991204 -0.108017 0.076464 0.404178 0.324295 -0.855262 0.99848 -0.044628 0.03235 0.991251 -0.111327 0.070906 0.322193 0.059281 -0.944816 0.980238 -0.193475 0.041236 0.996512 -0.073428 0.03966 -0.008146 -0.999839 -0.016018 -0.022089 -0.511724 0.858866 -0.089144 -0.293919 0.951664 -0.118982 -0.309207 0.943522 -0.056965 -0.425765 0.903039 0.145876 0.107253 0.983472 0.301752 -0.5966 0.743649 -0.086924 0.204438 0.975013 0.182445 0.598215 0.78029 0.024811 0.570406 0.820988 -0.163103 -0.26055 0.951584 -0.553646 0.332185 0.763629 0.093461 0.673505 0.73325 -0.018618 -0.456912 0.889317 -0.05495 -0.384188 0.921618 -0.332474 -0.880782 0.33717 -0.161774 0.349836 0.922737 0.068742 0.677943 0.731893 0.168501 -0.023059 0.985432 -0.047138 0.561624 0.826049 0.05825 0.715885 0.695785 0.244098 0.674066 0.697174 -0.211874 0.738336 0.640288 0.180653 0.75275 0.633034 0.217176 0.760061 0.612488 -0.08298 0.973081 0.215005 0.230359 0.951013 0.206175 0.448817 0.851474 0.271211 -0.590073 0.765569 0.256357 -0.120443 0.986967 -0.106721 -0.105283 0.835885 0.538713 0.446084 0.887982 0.111794 0.476367 0.742823 0.470414 -0.093267 0.911601 0.400356 -0.09949 0.912099 0.397715 -0.406383 0.905677 -0.120835 -0.479808 0.865424 0.14431 0.095555 0.991583 0.087366 -0.288858 0.899704 0.327251 0.23031 0.926784 0.296698 -0.362616 0.899143 -0.245054 0.157509 0.976314 0.14833 0.147454 0.953514 0.26281 0.290565 0.70731 0.644426 0.24016 0.783898 0.572562 0.997933 -0.064177 0.003346 0.998414 -0.044106 -0.03498 0.999407 0.002945 -0.03431 0.999809 -0.007292 0.018144 0.999215 -0.015557 -0.036436 0.998502 -0.024986 -0.04867 -0.526655 0.386161 0.757307 -0.499928 0.553457 0.666151 -0.058018 -0.120604 0.991004 -0.031606 -0.11165 0.993245 0.001149 -0.160615 0.987016 0.999844 -0.017392 0.00316</float_array>
          <technique_common>
            <accessor source="#SmokedHam-mesh-normals-array" count="500" stride="3">
              <param name="X" type="float"/>
              <param name="Y" type="float"/>
              <param name="Z" type="float"/>
            </accessor>
          </technique_common>
        </source>
        <source id="SmokedHam-mesh-map-0">
          <float_array id="SmokedHam-mesh-map-0-array" count="3000">0.891113 0.532715 0.853027 0.560059 0.875488 0.504639 0.935303 0.466797 0.891113 0.532715 0.9104 0.465576 0.9104 0.465576 0.891113 0.532715 0.875488 0.504639 0.9104 0.465576 0.875488 0.504639 0.852539 0.414307 0.852539 0.414307 0.875488 0.504639 0.798584 0.509766 0.853027 0.560059 0.891113 0.532715 0.884033 0.602051 0.884033 0.602051 0.891113 0.532715 0.920654 0.582031 0.884033 0.602051 0.920654 0.582031 0.931152 0.612549 0.884033 0.602051 0.931152 0.612549 0.886719 0.647705 0.884033 0.602051 0.886719 0.647705 0.824219 0.629395 0.824219 0.629395 0.886719 0.647705 0.827148 0.66748 0.884033 0.602051 0.824219 0.629395 0.812012 0.613037 0.884033 0.602051 0.812012 0.613037 0.853027 0.560059 0.812012 0.613037 0.824219 0.629395 0.773438 0.635254 0.812012 0.613037 0.773438 0.635254 0.764893 0.582031 0.853027 0.560059 0.812012 0.613037 0.806885 0.564941 0.806885 0.564941 0.812012 0.613037 0.764893 0.582031 0.853027 0.560059 0.806885 0.564941 0.875488 0.504639 0.875488 0.504639 0.806885 0.564941 0.798584 0.509766 0.806885 0.564941 0.764893 0.582031 0.741211 0.534668 0.806885 0.564941 0.741211 0.534668 0.798584 0.509766 0.798584 0.509766 0.741211 0.534668 0.71875 0.489746 0.71875 0.489746 0.741211 0.534668 0.694824 0.525879 0.712158 0.763672 0.726318 0.809814 0.671631 0.801758 0.671631 0.801758 0.726318 0.809814 0.658936 0.831543 0.633545 0.84668 0.658936 0.831543 0.65918 0.857178 0.658936 0.831543 0.633545 0.84668 0.629639 0.790283 0.658936 0.831543 0.629639 0.790283 0.671631 0.801758 0.671631 0.801758 0.629639 0.790283 0.632812 0.768799 0.671631 0.801758 0.632812 0.768799 0.712158 0.763672 0.712158 0.763672 0.632812 0.768799 0.675049 0.727539 0.712158 0.763672 0.675049 0.727539 0.716797 0.732666 0.675049 0.727539 0.632812 0.768799 0.608154 0.726074 0.608154 0.726074 0.632812 0.768799 0.582031 0.771973 0.716797 0.732666 0.675049 0.727539 0.706787 0.69751 0.716797 0.732666 0.706787 0.69751 0.744141 0.72876 0.675049 0.727539 0.608154 0.726074 0.671387 0.683105 0.675049 0.727539 0.671387 0.683105 0.706787 0.69751 0.727783 0.630615 0.74707 0.62085 0.706787 0.69751 0.727783 0.630615 0.706787 0.69751 0.671387 0.683105 0.727783 0.630615 0.671387 0.683105 0.705078 0.62085 0.677734 0.590332 0.736328 0.539551 0.705078 0.62085 0.677734 0.590332 0.705078 0.62085 0.655762 0.643311 0.655762 0.643311 0.705078 0.62085 0.671387 0.683105 0.604248 0.679443 0.671387 0.683105 0.608154 0.726074 0.671387 0.683105 0.604248 0.679443 0.655762 0.643311 0.655762 0.643311 0.604248 0.679443 0.63208 0.630615 0.604248 0.679443 0.608154 0.726074 0.552979 0.706543 0.604248 0.679443 0.552979 0.706543 0.559082 0.669189 0.555908 0.062012 0.50415 0.062256 0.55127 0.041504 0.614746 0.036621 0.612305 0.069336 0.555908 0.062012 0.555908 0.062012 0.612305 0.069336 0.55835 0.10376 0.555908 0.062012 0.55835 0.10376 0.50415 0.062256 0.55835 0.10376 0.612305 0.069336 0.585693 0.139893 0.55835 0.10376 0.585693 0.139893 0.522949 0.135986 0.50415 0.062256 0.55835 0.10376 0.487305 0.082275 0.487305 0.082275 0.55835 0.10376 0.522949 0.135986 0.50415 0.062256 0.487305 0.082275 0.407227 0.032715 0.407227 0.032715 0.487305 0.082275 0.397217 0.075439 0.487305 0.082275 0.522949 0.135986 0.470947 0.132812 0.487305 0.082275 0.470947 0.132812 0.397217 0.075439 0.397217 0.075439 0.470947 0.132812 0.385498 0.105957 0.470947 0.132812 0.522949 0.135986 0.489502 0.155273 0.470947 0.132812 0.489502 0.155273 0.455566 0.197754 0.261963 0.223877 0.196289 0.139648 0.241699 0.161377 0.241699 0.161377 0.196289 0.139648 0.228027 0.10376 0.228027 0.10376 0.196289 0.139648 0.199707 0.035889 0.199707 0.035889 0.196289 0.139648 0.169678 0.147949 0.199707 0.035889 0.169678 0.147949 0.149414 0.074219 0.149414 0.074219 0.169678 0.147949 0.140381 0.160645 0.149414 0.074219 0.140381 0.160645 0.12207 0.070801 0.00415 0.165283 0.034912 0.070557 0.035156 0.174561 0.259033 0.925293 0.275635 0.946533 0.226562 0.937012 0.259033 0.925293 0.226562 0.937012 0.246338 0.906006 0.246338 0.906006 0.226562 0.937012 0.203613 0.918945 0.246338 0.906006 0.203613 0.918945 0.234863 0.884521 0.203613 0.918945 0.226562 0.937012 0.174561 0.952148 0.234863 0.884521 0.203613 0.918945 0.197266 0.912598 0.197266 0.912598 0.203613 0.918945 0.174561 0.952148 0.234863 0.884521 0.197266 0.912598 0.188721 0.894531 0.188721 0.894531 0.197266 0.912598 0.174561 0.952148 0.188721 0.894531 0.174561 0.952148 0.141602 0.943848 0.188721 0.894531 0.141602 0.943848 0.137939 0.917969 0.137939 0.917969 0.141602 0.943848 0.122314 0.945068 0.188721 0.894531 0.137939 0.917969 0.14624 0.891357 0.188721 0.894531 0.14624 0.891357 0.183838 0.843506 0.137939 0.917969 0.122314 0.945068 0.105469 0.907959 0.137939 0.917969 0.105469 0.907959 0.14624 0.891357 0.105469 0.907959 0.122314 0.945068 0.087158 0.953613 0.105469 0.907959 0.087158 0.953613 0.060303 0.94458 0.14624 0.891357 0.105469 0.907959 0.102295 0.880615 0.102295 0.880615 0.105469 0.907959 0.060303 0.94458 0.14624 0.891357 0.102295 0.880615 0.135742 0.801025 0.102295 0.880615 0.060303 0.94458 0.046631 0.917236 0.046631 0.917236 0.060303 0.94458 0.037598 0.960938 0.135742 0.801025 0.102295 0.880615 0.093018 0.85498 0.135742 0.801025 0.093018 0.85498 0.105957 0.822021 0.102295 0.880615 0.046631 0.917236 0.062988 0.848633 0.102295 0.880615 0.062988 0.848633 0.093018 0.85498 0.093018 0.85498 0.062988 0.848633 0.105957 0.822021 0.062988 0.848633 0.046631 0.917236 0.018311 0.896973 0.105957 0.822021 0.062988 0.848633 0.060059 0.800049 0.060059 0.800049 0.062988 0.848633 0.018311 0.896973 0.060059 0.800049 0.018311 0.896973 0.014648 0.80127 0.416016 0.010986 0.371826 0.019531 0.376465 0.006836 0.376465 0.006836 0.371826 0.019531 0.33374 0 0.371826 0.019531 0.416016 0.010986 0.344971 0.048584 0.371826 0.019531 0.344971 0.048584 0.33374 0 0.344971 0.048584 0.416016 0.010986 0.347412 0.093018 0.33374 0 0.344971 0.048584 0.31543 0.022217 0.344971 0.048584 0.347412 0.093018 0.332031 0.075928 0.344971 0.048584 0.332031 0.075928 0.31543 0.022217 0.332031 0.075928 0.347412 0.093018 0.322266 0.130371 0.332031 0.075928 0.322266 0.130371 0.301758 0.112549 0.31543 0.022217 0.332031 0.075928 0.264648 0.05835 0.264648 0.05835 0.332031 0.075928 0.301758 0.112549 0.31543 0.022217 0.264648 0.05835 0.245361 0.001953 0.264648 0.05835 0.301758 0.112549 0.251221 0.099121 0.251221 0.099121 0.301758 0.112549 0.265625 0.134766 0.264648 0.05835 0.251221 0.099121 0.227295 0.074951 0.710449 0.875977 0.681152 0.914551 0.634033 0.895508 0.710449 0.875977 0.634033 0.895508 0.674316 0.873535 0.681152 0.914551 0.710449 0.875977 0.744629 0.89917 0.681152 0.914551 0.744629 0.89917 0.683838 0.931885 0.710449 0.875977 0.674316 0.873535 0.73584 0.848633 0.710449 0.875977 0.73584 0.848633 0.744629 0.89917 0.73584 0.848633 0.674316 0.873535 0.660889 0.863037 0.728516 0.781006 0.759766 0.772705 0.73584 0.848633 0.73584 0.848633 0.759766 0.772705 0.763184 0.818359 0.763184 0.818359 0.759766 0.772705 0.778076 0.754883 0.73584 0.848633 0.763184 0.818359 0.788818 0.84082 0.788818 0.84082 0.763184 0.818359 0.778076 0.754883 0.73584 0.848633 0.788818 0.84082 0.744629 0.89917 0.788818 0.84082 0.778076 0.754883 0.813232 0.720215 0.788818 0.84082 0.813232 0.720215 0.805176 0.809326 0.744629 0.89917 0.788818 0.84082 0.797607 0.89209 0.744629 0.89917 0.797607 0.89209 0.797607 0.938232 0.797607 0.938232 0.797607 0.89209 0.841309 0.937012 0.841309 0.937012 0.797607 0.89209 0.8396 0.911133 0.841309 0.937012 0.8396 0.911133 0.877441 0.950684 0.797607 0.89209 0.788818 0.84082 0.821777 0.881592 0.821777 0.881592 0.788818 0.84082 0.805176 0.809326 0.797607 0.89209 0.821777 0.881592 0.8396 0.911133 0.821777 0.881592 0.805176 0.809326 0.837891 0.841553 0.8396 0.911133 0.821777 0.881592 0.873779 0.89624 0.873779 0.89624 0.821777 0.881592 0.837891 0.841553 0.955078 0.990723 0.846436 0.999023 0.903564 0.928955 0.955078 0.990723 0.903564 0.928955 0.987061 0.96167 0.987061 0.96167 0.903564 0.928955 0.989746 0.934082 0.989746 0.934082 0.903564 0.928955 0.885986 0.866943 0.230713 0.727051 0.255127 0.751221 0.206299 0.769531 0.206299 0.769531 0.255127 0.751221 0.247803 0.789551 0.288086 0.828857 0.229492 0.801758 0.247803 0.789551 0.247803 0.789551 0.229492 0.801758 0.206299 0.769531 0.230713 0.727051 0.206299 0.769531 0.188721 0.734375 0.206299 0.769531 0.229492 0.801758 0.185791 0.808105 0.185791 0.808105 0.229492 0.801758 0.206055 0.835205 0.188721 0.734375 0.206299 0.769531 0.164551 0.773926 0.164551 0.773926 0.206299 0.769531 0.185791 0.808105 0.164551 0.773926 0.185791 0.808105 0.140137 0.795654 0.140137 0.795654 0.185791 0.808105 0.17627 0.826904 0.188721 0.734375 0.164551 0.773926 0.130859 0.751953 0.130859 0.751953 0.164551 0.773926 0.140137 0.795654 0.188721 0.734375 0.130859 0.751953 0.12085 0.723145 0.188721 0.734375 0.12085 0.723145 0.182129 0.694824 0.182129 0.694824 0.12085 0.723145 0.128906 0.697266 0.12085 0.723145 0.130859 0.751953 0.092285 0.776123 0.092285 0.776123 0.130859 0.751953 0.140137 0.795654 0.092285 0.776123 0.140137 0.795654 0.093262 0.796143 0.092285 0.776123 0.093262 0.796143 0.02417 0.77002 0.924072 0.883301 0.890625 0.856445 0.921875 0.820312 0.921875 0.820312 0.890625 0.856445 0.890381 0.797852 0.890381 0.797852 0.890625 0.856445 0.859131 0.806641 0.921875 0.820312 0.890381 0.797852 0.883789 0.724854 0.890381 0.797852 0.859131 0.806641 0.869385 0.736084 0.890381 0.797852 0.869385 0.736084 0.883789 0.724854 0.891846 0.673096 0.936523 0.689453 0.883789 0.724854 0.891846 0.673096 0.883789 0.724854 0.853027 0.714111 0.853027 0.714111 0.883789 0.724854 0.869385 0.736084 0.853027 0.714111 0.869385 0.736084 0.816406 0.710938 0.853027 0.714111 0.816406 0.710938 0.81665 0.674561 0.816406 0.710938 0.869385 0.736084 0.829834 0.744141 0.615234 0.429688 0.653564 0.400879 0.657227 0.44043 0.657227 0.44043 0.653564 0.400879 0.682373 0.414307 0.657227 0.44043 0.682373 0.414307 0.714111 0.436523 0.649414 0.334229 0.653564 0.400879 0.631104 0.342041 0.682373 0.414307 0.653564 0.400879 0.691162 0.393555 0.691162 0.393555 0.653564 0.400879 0.649414 0.334229 0.714111 0.436523 0.682373 0.414307 0.727783 0.407959 0.727783 0.407959 0.682373 0.414307 0.691162 0.393555 0.714111 0.436523 0.727783 0.407959 0.739502 0.484375 0.739502 0.484375 0.727783 0.407959 0.748047 0.443359 0.748047 0.443359 0.727783 0.407959 0.753174 0.417236 0.748047 0.443359 0.753174 0.417236 0.773682 0.45752 0.753174 0.417236 0.727783 0.407959 0.762939 0.381592 0.753174 0.417236 0.762939 0.381592 0.784424 0.430176 0.727783 0.407959 0.691162 0.393555 0.732666 0.341309 0.727783 0.407959 0.732666 0.341309 0.762939 0.381592 0.688965 0.284668 0.691162 0.393555 0.649414 0.334229 0.691162 0.393555 0.688965 0.284668 0.732666 0.341309 0.688965 0.284668 0.649414 0.334229 0.665527 0.245117 0.688965 0.284668 0.665527 0.245117 0.705566 0.223633 0.688965 0.284668 0.705566 0.223633 0.715576 0.27832 0.688965 0.284668 0.715576 0.27832 0.732666 0.341309 0.715576 0.27832 0.705566 0.223633 0.743652 0.225098 0.772461 0.291016 0.762939 0.381592 0.732666 0.341309 0.762939 0.381592 0.772461 0.291016 0.802246 0.293945 0.762939 0.381592 0.802246 0.293945 0.803467 0.370605 0.772461 0.291016 0.732666 0.341309 0.744385 0.264893 0.744385 0.264893 0.732666 0.341309 0.715576 0.27832 0.744385 0.264893 0.715576 0.27832 0.743652 0.225098 0.772461 0.291016 0.744385 0.264893 0.780029 0.226562 0.780029 0.226562 0.744385 0.264893 0.743652 0.225098 0.680176 0.129395 0.653564 0.177002 0.6521 0.128906 0.680176 0.129395 0.6521 0.128906 0.696045 0.056396 0.696045 0.056396 0.6521 0.128906 0.645752 0.087402 0.696045 0.056396 0.645752 0.087402 0.675537 0.005127 0.680176 0.129395 0.696045 0.056396 0.72583 0.076904 0.72583 0.076904 0.696045 0.056396 0.761475 0.061035 0.72583 0.076904 0.761475 0.061035 0.748291 0.075195 0.72583 0.076904 0.748291 0.075195 0.680176 0.129395 0.680176 0.129395 0.748291 0.075195 0.700195 0.138184 0.641357 0.905762 0.675537 0.919922 0.672119 0.986328 0.119873 0.371826 0.053223 0.473145 0.000244 0.449951 0.053223 0.473145 0.119873 0.371826 0.16333 0.501953 0.16333 0.501953 0.119873 0.371826 0.157959 0.400635 0.157959 0.400635 0.119873 0.371826 0.197754 0.39624 0.197754 0.39624 0.119873 0.371826 0.169434 0.343018 0.16333 0.501953 0.157959 0.400635 0.18457 0.463623 0.18457 0.463623 0.157959 0.400635 0.197754 0.39624 0.197754 0.39624 0.169434 0.343018 0.237549 0.373535 0.16333 0.501953 0.18457 0.463623 0.233887 0.490967 0.16333 0.501953 0.233887 0.490967 0.213623 0.524414 0.18457 0.463623 0.197754 0.39624 0.215576 0.437744 0.215576 0.437744 0.197754 0.39624 0.237549 0.373535 0.18457 0.463623 0.215576 0.437744 0.233887 0.490967 0.215576 0.437744 0.237549 0.373535 0.286865 0.423096 0.215576 0.437744 0.286865 0.423096 0.233887 0.490967 0.286865 0.423096 0.237549 0.373535 0.294434 0.377441 0.294434 0.377441 0.237549 0.373535 0.256836 0.341064 0.286865 0.423096 0.294434 0.377441 0.3396 0.4104 0.3396 0.4104 0.294434 0.377441 0.326904 0.352539 0.233887 0.490967 0.286865 0.423096 0.307861 0.49585 0.307861 0.49585 0.286865 0.423096 0.3396 0.4104 0.233887 0.490967 0.307861 0.49585 0.254883 0.516602 0.307861 0.49585 0.3396 0.4104 0.370361 0.458252 0.307861 0.49585 0.370361 0.458252 0.345947 0.508301 1 0.273193 0.987549 0.297363 0.957764 0.28125 0.957764 0.28125 0.987549 0.297363 0.943604 0.308838 0.943604 0.308838 0.987549 0.297363 0.987305 0.335693 0.943604 0.308838 0.987305 0.335693 0.943115 0.335938 0.943115 0.335938 0.987305 0.335693 0.987305 0.356689 0.943604 0.308838 0.943115 0.335938 0.908691 0.317627 0.943604 0.308838 0.908691 0.317627 0.896729 0.270752 0.896729 0.270752 0.908691 0.317627 0.882324 0.294922 0.943115 0.335938 0.987305 0.356689 0.931152 0.390381 0.931152 0.390381 0.987305 0.356689 0.985107 0.396729 0.908691 0.317627 0.943115 0.335938 0.893066 0.347656 0.931152 0.390381 0.985107 0.396729 0.956055 0.425049 0.956055 0.425049 0.985107 0.396729 0.999023 0.450684 0.956055 0.425049 0.999023 0.450684 0.963379 0.480469 0.931152 0.390381 0.956055 0.425049 0.898193 0.398438 0.898193 0.398438 0.956055 0.425049 0.900879 0.442139 0.943115 0.335938 0.931152 0.390381 0.901123 0.371826 0.943115 0.335938 0.901123 0.371826 0.893066 0.347656 0.901123 0.371826 0.931152 0.390381 0.898193 0.398438 0.901123 0.371826 0.898193 0.398438 0.87915 0.371338 0.901123 0.371826 0.87915 0.371338 0.893066 0.347656 0.87915 0.371338 0.898193 0.398438 0.855225 0.40918 0.879395 0.33374 0.908691 0.317627 0.893066 0.347656 0.879395 0.33374 0.893066 0.347656 0.87915 0.371338 0.908691 0.317627 0.879395 0.33374 0.882324 0.294922 0.879395 0.33374 0.87915 0.371338 0.846924 0.346924 0.879395 0.33374 0.846924 0.346924 0.882324 0.294922 0.846924 0.346924 0.87915 0.371338 0.835205 0.370117 0.882324 0.294922 0.846924 0.346924 0.841309 0.340576 0.841309 0.340576 0.846924 0.346924 0.813232 0.342041 0.813232 0.342041 0.846924 0.346924 0.817627 0.357666 0.406738 0.996826 0.376953 0.918457 0.418701 0.979492 0.406738 0.996826 0.418701 0.979492 0.452637 0.999023 0.418701 0.979492 0.376953 0.918457 0.413818 0.946777 0.452637 0.999023 0.418701 0.979492 0.449707 0.97168 0.449707 0.97168 0.418701 0.979492 0.413818 0.946777 0.452637 0.999023 0.449707 0.97168 0.490234 0.981689 0.413818 0.946777 0.376953 0.918457 0.446045 0.936035 0.413818 0.946777 0.446045 0.936035 0.449707 0.97168 0.446045 0.936035 0.376953 0.918457 0.472656 0.891113 0.472656 0.891113 0.376953 0.918457 0.390869 0.889404 0.472656 0.891113 0.390869 0.889404 0.479004 0.856934 0.472656 0.891113 0.479004 0.856934 0.519287 0.862305 0.490234 0.981689 0.449707 0.97168 0.497314 0.952148 0.497314 0.952148 0.449707 0.97168 0.446045 0.936035 0.490234 0.981689 0.497314 0.952148 0.52124 0.964844 0.490234 0.981689 0.52124 0.964844 0.513428 1 0.497314 0.952148 0.446045 0.936035 0.516113 0.918457 0.516113 0.918457 0.446045 0.936035 0.472656 0.891113 0.497314 0.952148 0.516113 0.918457 0.52124 0.964844 0.472656 0.891113 0.519287 0.862305 0.553711 0.881104 0.472656 0.891113 0.553711 0.881104 0.516113 0.918457 0.553711 0.881104 0.519287 0.862305 0.552246 0.843506 0.552246 0.843506 0.519287 0.862305 0.546631 0.810303 0.552246 0.843506 0.546631 0.810303 0.567139 0.822021 0.553711 0.881104 0.552246 0.843506 0.589355 0.823242 0.516113 0.918457 0.553711 0.881104 0.578857 0.924316 0.516113 0.918457 0.578857 0.924316 0.52124 0.964844 0.578857 0.924316 0.553711 0.881104 0.592285 0.91748 0.578857 0.924316 0.592285 0.91748 0.618896 0.952881 0.52124 0.964844 0.578857 0.924316 0.583984 0.965576 0.583984 0.965576 0.578857 0.924316 0.618896 0.952881 0.52124 0.964844 0.583984 0.965576 0.553467 0.989746 0.583984 0.965576 0.618896 0.952881 0.634766 0.980225 0.553223 0.158691 0.64502 0.124023 0.558105 0.228027 0.558105 0.228027 0.64502 0.124023 0.64502 0.234131 0.558105 0.228027 0.64502 0.234131 0.601074 0.254883 0.601074 0.254883 0.64502 0.234131 0.617188 0.294922 0.558105 0.228027 0.601074 0.254883 0.567627 0.269043 0.567627 0.269043 0.601074 0.254883 0.617188 0.294922 0.558105 0.228027 0.567627 0.269043 0.515137 0.279053 0.558105 0.228027 0.515137 0.279053 0.488037 0.233154 0.567627 0.269043 0.617188 0.294922 0.566406 0.313965 0.567627 0.269043 0.566406 0.313965 0.515137 0.279053 0.515137 0.279053 0.566406 0.313965 0.50293 0.298584 0.515137 0.279053 0.50293 0.298584 0.473877 0.293457 0.50293 0.298584 0.566406 0.313965 0.539795 0.349121 0.50293 0.298584 0.539795 0.349121 0.476074 0.350586 0.539795 0.349121 0.566406 0.313965 0.575684 0.341797 0.575684 0.341797 0.566406 0.313965 0.617188 0.294922 0.539795 0.349121 0.575684 0.341797 0.547119 0.385498 0.575684 0.341797 0.617188 0.294922 0.621826 0.334717 0.621826 0.334717 0.617188 0.294922 0.642334 0.330078 0.575684 0.341797 0.621826 0.334717 0.604004 0.371338 0.575684 0.341797 0.604004 0.371338 0.614258 0.406738 0.604004 0.371338 0.621826 0.334717 0.639648 0.386719 0.694824 0.938477 0.742676 0.908203 0.719727 0.991211 0.100586 0.104492 0.067627 0.088379 0.084229 0.015869 0.067627 0.088379 0.100586 0.104492 0.042969 0.12207 0.464355 0.508301 0.379883 0.545166 0.357422 0.519531 0.379883 0.545166 0.464355 0.508301 0.470703 0.567871 0.379883 0.545166 0.470703 0.567871 0.387207 0.63208 0.387207 0.63208 0.470703 0.567871 0.468506 0.642578 0.468506 0.642578 0.470703 0.567871 0.515381 0.579346 0.515381 0.579346 0.470703 0.567871 0.464355 0.508301 0.468506 0.642578 0.515381 0.579346 0.531738 0.69043 0.531738 0.69043 0.515381 0.579346 0.534668 0.545166 0.534668 0.545166 0.515381 0.579346 0.464355 0.508301 0.531738 0.69043 0.534668 0.545166 0.584961 0.627441 0.534668 0.545166 0.464355 0.508301 0.493896 0.482422 0.493896 0.482422 0.464355 0.508301 0.455322 0.415527 0.584961 0.627441 0.534668 0.545166 0.579346 0.523438 0.493896 0.482422 0.455322 0.415527 0.507324 0.413574 0.534668 0.545166 0.493896 0.482422 0.551758 0.499756 0.551758 0.499756 0.493896 0.482422 0.507324 0.413574 0.534668 0.545166 0.551758 0.499756 0.579346 0.523438 0.584961 0.627441 0.579346 0.523438 0.608154 0.607178 0.608154 0.607178 0.579346 0.523438 0.591553 0.515625 0.608154 0.607178 0.591553 0.515625 0.630371 0.619141 0.591553 0.515625 0.579346 0.523438 0.597168 0.459717 0.597168 0.459717 0.579346 0.523438 0.551758 0.499756 0.597168 0.459717 0.551758 0.499756 0.507324 0.413574 0.597168 0.459717 0.507324 0.413574 0.548584 0.399414 0.548584 0.399414 0.507324 0.413574 0.517822 0.369385 0.597168 0.459717 0.548584 0.399414 0.603516 0.404785 0.871582 0.014893 0.915771 0.075928 0.813232 0.070068 0.193848 0.664062 0.299316 0.510254 0.251221 0.685059 0.251221 0.685059 0.299316 0.510254 0.371582 0.62793 0.299316 0.510254 0.193848 0.664062 0.201172 0.539307 0.201172 0.539307 0.193848 0.664062 0.155273 0.594482 0.155273 0.594482 0.193848 0.664062 0.130859 0.652832 0.201172 0.539307 0.155273 0.594482 0.151855 0.555176 0.201172 0.539307 0.151855 0.555176 0.165771 0.512695 0.155273 0.594482 0.130859 0.652832 0.085938 0.623291 0.085938 0.623291 0.130859 0.652832 0.046631 0.658447 0.046631 0.658447 0.130859 0.652832 0.093506 0.690186 0.155273 0.594482 0.085938 0.623291 0.095703 0.583984 0.155273 0.594482 0.095703 0.583984 0.151855 0.555176 0.085938 0.623291 0.046631 0.658447 0.056885 0.609619 0.085938 0.623291 0.056885 0.609619 0.095703 0.583984 0.056885 0.609619 0.046631 0.658447 0.004883 0.642578 0.125244 0.542236 0.165771 0.512695 0.151855 0.555176 0.125244 0.542236 0.151855 0.555176 0.095703 0.583984 0.165771 0.512695 0.125244 0.542236 0.087158 0.523926 0.125244 0.542236 0.095703 0.583984 0.076172 0.548096 0.076172 0.548096 0.095703 0.583984 0.056885 0.609619 0.125244 0.542236 0.076172 0.548096 0.087158 0.523926 0.076172 0.548096 0.056885 0.609619 0.039795 0.545898 0.076172 0.548096 0.039795 0.545898 0.087158 0.523926 0.039795 0.545898 0.056885 0.609619 0 0.562256 0.087158 0.523926 0.039795 0.545898 0.037842 0.519043 0.087158 0.523926 0.037842 0.519043 0.07666 0.509033 0.841553 0.330078 0.806396 0.256836 0.864502 0.293945 0.864502 0.293945 0.806396 0.256836 0.846436 0.235352 0.846436 0.235352 0.806396 0.256836 0.77124 0.200195 0.846436 0.235352 0.77124 0.200195 0.802979 0.173584 0.846436 0.235352 0.802979 0.173584 0.877197 0.213135 0.877197 0.213135 0.802979 0.173584 0.861328 0.164795 0.802979 0.173584 0.77124 0.200195 0.772217 0.138672 0.802979 0.173584 0.772217 0.138672 0.820801 0.125977 0.772217 0.138672 0.77124 0.200195 0.73584 0.178223 0.73584 0.178223 0.77124 0.200195 0.650879 0.198242 0.772217 0.138672 0.73584 0.178223 0.714844 0.130615 0.772217 0.138672 0.714844 0.130615 0.760986 0.09668 0.283936 0.248291 0.223145 0.262939 0.202881 0.189453 0.202881 0.189453 0.223145 0.262939 0.137207 0.256836 0.137207 0.256836 0.223145 0.262939 0.183594 0.303955 0.202881 0.189453 0.137207 0.256836 0.206055 0.169922 0.137207 0.256836 0.183594 0.303955 0.133789 0.310059 0.206055 0.169922 0.137207 0.256836 0.131104 0.236084 0.206055 0.169922 0.131104 0.236084 0.176758 0.167725 0.137207 0.256836 0.133789 0.310059 0.127441 0.297119 0.137207 0.256836 0.127441 0.297119 0.131104 0.236084 0.127441 0.297119 0.133789 0.310059 0.101807 0.341064 0.101807 0.341064 0.133789 0.310059 0.126709 0.360107 0.131104 0.236084 0.127441 0.297119 0.087158 0.305908 0.087158 0.305908 0.127441 0.297119 0.101807 0.341064 0.087158 0.305908 0.101807 0.341064 0.037354 0.357422 0.037354 0.357422 0.101807 0.341064 0.013672 0.424805 0.087158 0.305908 0.037354 0.357422 0.000244 0.32251 0.087158 0.305908 0.000244 0.32251 0.067383 0.23584 0.087158 0.305908 0.067383 0.23584 0.131104 0.236084 0.131104 0.236084 0.067383 0.23584 0.080566 0.209473 0.131104 0.236084 0.080566 0.209473 0.176758 0.167725 0.080566 0.209473 0.067383 0.23584 0.00293 0.171387 0.176758 0.167725 0.080566 0.209473 0.105225 0.165771 0.105225 0.165771 0.080566 0.209473 0.044434 0.127197 0.105225 0.165771 0.044434 0.127197 0.098877 0.122559 0.318848 0.827148 0.310791 0.856934 0.296387 0.750732 0.282959 0.677002 0.296387 0.750732 0.259277 0.765137 0.296387 0.750732 0.282959 0.677002 0.339844 0.678467 0.318848 0.827148 0.296387 0.750732 0.460938 0.788574 0.318848 0.827148 0.460938 0.788574 0.388428 0.832275 0.296387 0.750732 0.339844 0.678467 0.40625 0.744385 0.296387 0.750732 0.40625 0.744385 0.460938 0.788574 0.40625 0.744385 0.339844 0.678467 0.378418 0.653564 0.40625 0.744385 0.378418 0.653564 0.453857 0.646973 0.40625 0.744385 0.453857 0.646973 0.458984 0.737549 0.40625 0.744385 0.458984 0.737549 0.460938 0.788574 0.458984 0.737549 0.453857 0.646973 0.547119 0.735596 0.472412 0.823975 0.388428 0.832275 0.460938 0.788574 0.472412 0.823975 0.460938 0.788574 0.458984 0.737549 0.472412 0.823975 0.458984 0.737549 0.547119 0.735596 0.388428 0.832275 0.472412 0.823975 0.394043 0.854492 0.472412 0.823975 0.547119 0.735596 0.50415 0.854248 0.50415 0.854248 0.547119 0.735596 0.564209 0.755859 0.324951 0.946533 0.324951 0.83252 0.366211 0.86792 0.749756 0.912109 0.794922 0.945312 0.760498 0.983154 0.994141 0.085938 0.999268 0.162109 0.953857 0.115723 0.953857 0.115723 0.999268 0.162109 0.946045 0.199219 0.946045 0.199219 0.999268 0.162109 0.970947 0.272217 0.946045 0.199219 0.970947 0.272217 0.909424 0.264893 0.946045 0.199219 0.909424 0.264893 0.917969 0.221924 0.946045 0.199219 0.917969 0.221924 0.953857 0.115723 0.917969 0.221924 0.909424 0.264893 0.896973 0.219971 0.917969 0.221924 0.896973 0.219971 0.891113 0.15625 0.891113 0.15625 0.896973 0.219971 0.872559 0.177002 0.891113 0.15625 0.872559 0.177002 0.861816 0.141113 0.917969 0.221924 0.891113 0.15625 0.922363 0.153076 0.917969 0.221924 0.922363 0.153076 0.953857 0.115723 0.953857 0.115723 0.922363 0.153076 0.94165 0.095947 0.953857 0.115723 0.94165 0.095947 0.954834 0.073486 0.94165 0.095947 0.922363 0.153076 0.90332 0.118408 0.90332 0.118408 0.922363 0.153076 0.891113 0.15625 0.94165 0.095947 0.90332 0.118408 0.906494 0.084473 0.891113 0.15625 0.861816 0.141113 0.87207 0.115234 0.891113 0.15625 0.87207 0.115234 0.90332 0.118408 0.90332 0.118408 0.87207 0.115234 0.906494 0.084473 0.87207 0.115234 0.861816 0.141113 0.844238 0.115234 0.906494 0.084473 0.87207 0.115234 0.817139 0.075928 0.817139 0.075928 0.87207 0.115234 0.844238 0.115234 0.452148 0.4104 0.39917 0.436035 0.370117 0.406738 0.452148 0.4104 0.370117 0.406738 0.450195 0.380127 0.450195 0.380127 0.370117 0.406738 0.352295 0.372559 0.450195 0.380127 0.352295 0.372559 0.417236 0.344238 0.450195 0.380127 0.417236 0.344238 0.462402 0.338135 0.417236 0.344238 0.352295 0.372559 0.330322 0.345947 0.462402 0.338135 0.417236 0.344238 0.415283 0.306152 0.415283 0.306152 0.417236 0.344238 0.330322 0.345947 0.462402 0.338135 0.415283 0.306152 0.473389 0.304199 0.473389 0.304199 0.415283 0.306152 0.443604 0.260986 0.443604 0.260986 0.415283 0.306152 0.406738 0.273438 0.406738 0.273438 0.415283 0.306152 0.330322 0.345947 0.443604 0.260986 0.406738 0.273438 0.432373 0.217773 0.406738 0.273438 0.330322 0.345947 0.339355 0.275391 0.406738 0.273438 0.339355 0.275391 0.432373 0.217773 0.339355 0.275391 0.330322 0.345947 0.313965 0.292725 0.339355 0.275391 0.313965 0.292725 0.338135 0.22583 0.339355 0.275391 0.338135 0.22583 0.432373 0.217773 0.338135 0.22583 0.313965 0.292725 0.293945 0.2854 0.338135 0.22583 0.293945 0.2854 0.293701 0.220215 0.338135 0.22583 0.293701 0.220215 0.338623 0.151855 0.338135 0.22583 0.338623 0.151855 0.432373 0.217773 0.338623 0.151855 0.293701 0.220215 0.295654 0.124023 0.432373 0.217773 0.338623 0.151855 0.391602 0.143799 0.432373 0.217773 0.391602 0.143799 0.446045 0.177979 0.446045 0.177979 0.391602 0.143799 0.448242 0.161377 0.983643 0.606689 0.947266 0.655518 0.947266 0.612549 0.947266 0.655518 0.983643 0.606689 0.993652 0.625732 0.983643 0.606689 0.947266 0.612549 0.949951 0.565674 0.983643 0.606689 0.949951 0.565674 0.996826 0.539307 0.996826 0.539307 0.949951 0.565674 0.954834 0.518555 0.996826 0.539307 0.954834 0.518555 0.941406 0.459961</float_array>
          <technique_common>
            <accessor source="#SmokedHam-mesh-map-0-array" count="1500" stride="2">
              <param name="S" type="float"/>
              <param name="T" type="float"/>
            </accessor>
          </technique_common>
        </source>
        <vertices id="SmokedHam-mesh-vertices">
          <input semantic="POSITION" source="#SmokedHam-mesh-positions"/>
        </vertices>
        <polylist material="Material_-1-material" count="6">
          <input semantic="VERTEX" source="#SmokedHam-mesh-vertices" offset="0"/>
          <input semantic="NORMAL" source="#SmokedHam-mesh-normals" offset="1"/>
          <input semantic="TEXCOORD" source="#SmokedHam-mesh-map-0" offset="2" set="0"/>
          <vcount>3 3 3 3 3 3 3 3 3 3 3 3 3 3 3 3 3 3 3 3 3 3 3 3 3 3 3 3 3 3 3 3 3 3 3 3 3 3 3 3 3 3 3 3 3 3 3 3 3 3 3 3 3 3 3 3 3 3 3 3 3 3 3 3 3 3 3 3 3 3 3 3 3 3 3 3 3 3 3 3 3 3 3 3 3 3 3 3 3 3 3 3 3 3 3 3 3 3 3 3 3 3 3 3 3 3 3 3 3 3 3 3 3 3 3 3 3 3 3 3 3 3 3 3 3 3 3 3 3 3 3 3 3 3 3 3 3 3 3 3 3 3 3 3 3 3 3 3 3 3 3 3 3 3 3 3 3 3 3 3 3 3 3 3 3 3 3 3 3 3 3 3 3 3 3 3 3 3 3 3 3 3 3 3 3 3 3 3 3 3 3 3 3 3 3 3 3 3 3 3 3 3 3 3 3 3 3 3 3 3 3 3 3 3 3 3 3 3 3 3 3 3 3 3 3 3 3 3 3 3 3 3 3 3 3 3 3 3 3 3 3 3 3 3 3 3 3 3 3 3 3 3 3 3 3 3 3 3 3 3 3 3 3 3 3 3 3 3 3 3 3 3 3 3 3 3 3 3 3 3 3 3 3 3 3 3 3 3 3 3 3 3 3 3 3 3 3 3 3 3 3 3 3 3 3 3 3 3 3 3 3 3 3 3 3 3 3 3 3 3 3 3 3 3 3 3 3 3 3 3 3 3 3 3 3 3 3 3 3 3 3 3 3 3 3 3 3 3 3 3 3 3 3 3 3 3 3 3 3 3 3 3 3 3 3 3 3 3 3 3 3 3 3 3 3 3 3 3 3 3 3 3 3 3 3 3 3 3 3 3 3 3 3 3 3 3 3 3 3 3 3 3 3 3 3 3 3 3 3 3 3 3 3 3 3 3 3 3 3 3 3 3 3 3 3 3 3 3 3 3 3 3 3 3 3 3 3 3 3 3 3 3 3 3 3 3 3 3 3 3 3 3 3 3 3 3 3 3 3 3 3 3 3 3 3 3 3 3 3 3 3 3 3 3 3 3 3 3 3 3 3 3 3 3 3 3 3 3 3 3 3 3 3 3 3 3 3 3 3 3</vcount>
          <p>0 0 0 1 0 1 2 0 2 3 1 3 0 1 4 4 1 5 4 2 6 0 2 7 2 2 8 4 3 9 2 3 10 5 3 11 5 4 12 2 4 13 6 4 14 1 5 15 0 5 16 7 5 17 7 6 18 0 6 19 8 6 20 7 7 21 8 7 22 9 7 23 7 8 24 9 8 25 10 8 26 7 9 27 10 9 28 11 9 29 11 10 30 10 10 31 12 10 32 7 11 33 11 11 34 13 11 35 7 12 36 13 12 37 1 12 38 13 13 39 11 13 40 14 13 41 13 14 42 14 14 43 15 14 44 1 15 45 13 15 46 16 15 47 16 16 48 13 16 49 15 16 50 1 17 51 16 17 52 2 17 53 2 18 54 16 18 55 6 18 56 16 19 57 15 19 58 17 19 59 16 20 60 17 20 61 6 20 62 6 21 63 17 21 64 18 21 65 18 22 66 17 22 67 19 22 68 8 23 69 0 23 70 20 23 71 20 24 72 0 24 73 3 24 74 21 25 75 3 25 76 4 25 77 3 26 78 21 26 79 22 26 80 3 27 81 22 27 82 20 27 83 20 28 84 22 28 85 23 28 86 20 29 87 23 29 88 8 29 89 8 30 90 23 30 91 24 30 92 8 31 93 24 31 94 9 31 95 24 32 96 23 32 97 25 32 98 25 33 99 23 33 100 26 33 101 9 34 102 24 34 103 27 34 104 9 35 105 27 35 106 10 35 107 24 36 108 25 36 109 28 36 110 24 37 111 28 37 112 27 37 113 29 38 114 30 38 115 27 38 116 29 39 117 27 39 118 28 39 119 29 40 120 28 40 121 31 40 122 32 41 123 33 41 124 31 41 125 32 42 126 31 42 127 34 42 128 34 43 129 31 43 130 28 43 131 35 44 132 28 44 133 25 44 134 28 45 135 35 45 136 34 45 137 34 46 138 35 46 139 36 46 140 35 47 141 25 47 142 37 47 143 35 48 144 37 48 145 38 48 146 36 49 147 32 49 148 34 49 149 35 50 150 38 50 151 36 50 152 36 51 153 38 51 154 39 51 155 36 52 156 39 52 157 32 52 158 39 53 159 38 53 160 40 53 161 39 54 162 40 54 163 41 54 164 32 55 165 39 55 166 42 55 167 42 56 168 39 56 169 41 56 170 32 57 171 42 57 172 43 57 173 43 58 174 42 58 175 44 58 176 42 59 177 41 59 178 45 59 179 42 60 180 45 60 181 44 60 182 44 61 183 45 61 184 46 61 185 45 62 186 41 62 187 47 62 188 45 63 189 47 63 190 48 63 191 27 64 192 30 64 193 10 64 194 10 65 195 30 65 196 12 65 197 12 66 198 30 66 199 49 66 200 49 67 201 30 67 202 29 67 203 49 68 204 29 68 205 50 68 206 50 69 207 29 69 208 31 69 209 50 70 210 31 70 211 33 70 212 33 71 213 32 71 214 43 71 215 43 72 216 44 72 217 51 72 218 43 73 219 51 73 220 33 73 221 33 74 222 51 74 223 52 74 224 33 75 225 52 75 226 50 75 227 52 76 228 51 76 229 53 76 230 50 77 231 52 77 232 54 77 233 54 78 234 52 78 235 53 78 236 50 79 237 54 79 238 49 79 239 49 80 240 54 80 241 53 80 242 49 81 243 53 81 244 55 81 245 49 82 246 55 82 247 56 82 248 56 83 249 55 83 250 57 83 251 49 84 252 56 84 253 58 84 254 49 85 255 58 85 256 12 85 257 56 86 258 57 86 259 59 86 260 56 87 261 59 87 262 58 87 263 59 88 264 57 88 265 60 88 266 59 89 267 60 89 268 61 89 269 58 90 270 59 90 271 62 90 272 62 91 273 59 91 274 61 91 275 58 92 276 62 92 277 11 92 278 62 93 279 61 93 280 63 93 281 63 94 282 61 94 283 64 94 284 11 95 285 62 95 286 65 95 287 11 96 288 65 96 289 14 96 290 62 97 291 63 97 292 66 97 293 62 98 294 66 98 295 65 98 296 65 99 297 66 99 298 14 99 299 66 100 300 63 100 301 67 100 302 14 101 303 66 101 304 15 101 305 15 102 306 66 102 307 67 102 308 15 103 309 67 103 310 17 103 311 4 104 312 68 104 313 21 104 314 21 105 315 68 105 316 69 105 317 68 106 318 4 106 319 70 106 320 68 107 321 70 107 322 69 107 323 70 108 324 4 108 325 5 108 326 69 109 327 70 109 328 71 109 329 70 110 330 5 110 331 72 110 332 70 111 333 72 111 334 71 111 335 72 112 336 5 112 337 73 112 338 72 113 339 73 113 340 74 113 341 71 114 342 72 114 343 75 114 344 75 115 345 72 115 346 74 115 347 71 116 348 75 116 349 76 116 350 75 117 351 74 117 352 77 117 353 77 118 354 74 118 355 78 118 356 75 119 357 77 119 358 79 119 359 80 120 360 22 120 361 21 120 362 80 121 363 21 121 364 69 121 365 22 122 366 80 122 367 26 122 368 22 123 369 26 123 370 23 123 371 80 124 372 69 124 373 76 124 374 80 125 375 76 125 376 26 125 377 76 126 378 69 126 379 71 126 380 75 127 381 79 127 382 76 127 383 76 128 384 79 128 385 81 128 386 81 129 387 79 129 388 82 129 389 76 130 390 81 130 391 83 130 392 83 131 393 81 131 394 82 131 395 76 132 396 83 132 397 26 132 398 83 133 399 82 133 400 84 133 401 83 134 402 84 134 403 85 134 404 26 135 405 83 135 406 86 135 407 26 136 408 86 136 409 25 136 410 25 137 411 86 137 412 37 137 413 37 138 414 86 138 415 87 138 416 37 139 417 87 139 418 88 139 419 86 140 420 83 140 421 89 140 422 89 141 423 83 141 424 85 141 425 86 142 426 89 142 427 87 142 428 89 143 429 85 143 430 90 143 431 87 144 432 89 144 433 91 144 434 91 145 435 89 145 436 90 145 437 5 146 438 6 146 439 18 146 440 5 147 441 18 147 442 73 147 443 73 148 444 18 148 445 92 148 446 92 149 447 18 149 448 19 149 449 74 150 450 73 150 451 93 150 452 93 151 453 73 151 454 92 151 455 94 152 456 95 152 457 92 152 458 92 153 459 95 153 460 93 153 461 74 154 462 93 154 463 78 154 464 93 155 465 95 155 466 96 155 467 96 156 468 95 156 469 97 156 470 78 157 471 93 157 472 98 157 473 98 158 474 93 158 475 96 158 476 98 159 477 96 159 478 99 159 479 99 160 480 96 160 481 100 160 482 78 161 483 98 161 484 101 161 485 101 162 486 98 162 487 99 162 488 78 163 489 101 163 490 82 163 491 78 164 492 82 164 493 77 164 494 77 165 495 82 165 496 79 165 497 82 166 498 101 166 499 84 166 500 84 167 501 101 167 502 99 167 503 84 168 504 99 168 505 102 168 506 84 169 507 102 169 508 85 169 509 37 170 510 88 170 511 38 170 512 38 171 513 88 171 514 103 171 515 103 172 516 88 172 517 104 172 518 38 173 519 103 173 520 40 173 521 103 174 522 104 174 523 105 174 524 103 175 525 105 175 526 40 175 527 106 176 528 107 176 529 40 176 530 106 177 531 40 177 532 108 177 533 108 178 534 40 178 535 105 178 536 108 179 537 105 179 538 109 179 539 108 180 540 109 180 541 110 180 542 109 181 543 105 181 544 111 181 545 87 182 546 91 182 547 88 182 548 88 183 549 91 183 550 112 183 551 88 184 552 112 184 553 104 184 554 113 185 555 91 185 556 114 185 557 112 186 558 91 186 559 115 186 560 115 187 561 91 187 562 113 187 563 104 188 564 112 188 565 116 188 566 116 189 567 112 189 568 115 189 569 104 190 570 116 190 571 105 190 572 105 191 573 116 191 574 111 191 575 111 192 576 116 192 577 117 192 578 111 193 579 117 193 580 109 193 581 117 194 582 116 194 583 118 194 584 117 195 585 118 195 586 119 195 587 116 196 588 115 196 589 120 196 590 116 197 591 120 197 592 118 197 593 121 198 594 115 198 595 113 198 596 115 199 597 121 199 598 120 199 599 121 200 600 113 200 601 122 200 602 121 201 603 122 201 604 123 201 605 121 202 606 123 202 607 124 202 608 121 203 609 124 203 610 120 203 611 124 204 612 123 204 613 125 204 614 126 205 615 118 205 616 120 205 617 118 206 618 126 206 619 127 206 620 118 207 621 127 207 622 128 207 623 126 208 624 120 208 625 129 208 626 129 209 627 120 209 628 124 209 629 129 210 630 124 210 631 125 210 632 126 211 633 129 211 634 130 211 635 130 212 636 129 212 637 125 212 638 114 213 639 91 213 640 90 213 641 114 214 642 90 214 643 131 214 644 131 215 645 90 215 646 85 215 647 131 216 648 85 216 649 102 216 650 114 217 651 131 217 652 132 217 653 132 218 654 131 218 655 133 218 656 132 219 657 133 219 658 122 219 659 132 220 660 122 220 661 114 220 662 114 221 663 122 221 664 113 221 665 11 222 666 12 222 667 58 222 668 67 223 669 19 223 670 17 223 671 19 224 672 67 224 673 134 224 674 134 225 675 67 225 676 135 225 677 135 226 678 67 226 679 136 226 680 136 227 681 67 227 682 63 227 683 134 228 684 135 228 685 137 228 686 137 229 687 135 229 688 136 229 689 136 230 690 63 230 691 64 230 692 134 231 693 137 231 694 138 231 695 134 232 696 138 232 697 139 232 698 137 233 699 136 233 700 140 233 701 140 234 702 136 234 703 64 234 704 137 235 705 140 235 706 138 235 707 140 236 708 64 236 709 141 236 710 140 237 711 141 237 712 138 237 713 141 238 714 64 238 715 142 238 716 142 239 717 64 239 718 61 239 719 141 240 720 142 240 721 143 240 722 143 241 723 142 241 724 144 241 725 138 242 726 141 242 727 145 242 728 145 243 729 141 243 730 143 243 731 138 244 732 145 244 733 146 244 734 145 245 735 143 245 736 147 245 737 145 246 738 147 246 739 148 246 740 61 247 741 60 247 742 142 247 743 142 248 744 60 248 745 144 248 746 144 249 747 60 249 748 57 249 749 144 250 750 57 250 751 149 250 752 149 251 753 57 251 754 55 251 755 144 252 756 149 252 757 150 252 758 144 253 759 150 253 760 143 253 761 143 254 762 150 254 763 151 254 764 149 255 765 55 255 766 152 255 767 152 256 768 55 256 769 53 256 770 150 257 771 149 257 772 153 257 773 152 258 774 53 258 775 154 258 776 154 259 777 53 259 778 51 259 779 154 260 780 51 260 781 155 260 782 152 261 783 154 261 784 156 261 785 156 262 786 154 262 787 157 262 788 149 263 789 152 263 790 158 263 791 149 264 792 158 264 793 153 264 794 158 265 795 152 265 796 156 265 797 158 266 798 156 266 799 159 266 800 158 267 801 159 267 802 153 267 803 159 268 804 156 268 805 160 268 806 161 269 807 150 269 808 153 269 809 161 270 810 153 270 811 159 270 812 150 271 813 161 271 814 151 271 815 161 272 816 159 272 817 162 272 818 161 273 819 162 273 820 151 273 821 162 274 822 159 274 823 163 274 824 151 275 825 162 275 826 164 275 827 164 276 828 162 276 829 165 276 830 165 277 831 162 277 832 166 277 833 151 278 834 164 278 835 167 278 836 151 279 837 167 279 838 143 279 839 167 280 840 164 280 841 168 280 842 143 281 843 167 281 844 169 281 845 169 282 846 167 282 847 168 282 848 143 283 849 169 283 850 147 283 851 168 284 852 164 284 853 170 284 854 168 285 855 170 285 856 169 285 857 170 286 858 164 286 859 171 286 860 171 287 861 164 287 862 165 287 863 171 288 864 165 288 865 172 288 866 171 289 867 172 289 868 173 289 869 147 290 870 169 290 871 174 290 872 174 291 873 169 291 874 170 291 875 147 292 876 174 292 877 175 292 878 147 293 879 175 293 880 176 293 881 174 294 882 170 294 883 177 294 884 177 295 885 170 295 886 171 295 887 174 296 888 177 296 889 175 296 890 171 297 891 173 297 892 178 297 893 171 298 894 178 298 895 177 298 896 178 299 897 173 299 898 133 299 899 133 300 900 173 300 901 123 300 902 133 301 903 123 301 904 122 301 905 178 302 906 133 302 907 131 302 908 177 303 909 178 303 910 179 303 911 177 304 912 179 304 913 175 304 914 179 305 915 178 305 916 102 305 917 179 306 918 102 306 919 99 306 920 175 307 921 179 307 922 180 307 923 180 308 924 179 308 925 99 308 926 175 309 927 180 309 928 181 309 929 180 310 930 99 310 931 100 310 932 92 311 933 19 311 934 94 311 935 94 312 936 19 312 937 134 312 938 94 313 939 134 313 940 182 313 941 182 314 942 134 314 943 139 314 944 94 315 945 182 315 946 183 315 947 183 316 948 182 316 949 139 316 950 94 317 951 183 317 952 97 317 953 94 318 954 97 318 955 95 318 956 183 319 957 139 319 958 184 319 959 183 320 960 184 320 961 97 320 962 97 321 963 184 321 964 100 321 965 97 322 966 100 322 967 96 322 968 100 323 969 184 323 970 181 323 971 100 324 972 181 324 973 180 324 974 181 325 975 184 325 976 176 325 977 176 326 978 184 326 979 139 326 980 181 327 981 176 327 982 175 327 983 176 328 984 139 328 985 146 328 986 146 329 987 139 329 988 138 329 989 176 330 990 146 330 991 148 330 992 176 331 993 148 331 994 147 331 995 148 332 996 146 332 997 145 332 998 102 333 999 178 333 1000 131 333 1001 41 334 1002 107 334 1003 185 334 1004 107 335 1005 41 335 1006 40 335 1007 185 336 1008 47 336 1009 41 336 1010 47 337 1011 185 337 1012 186 337 1013 47 338 1014 186 338 1015 48 338 1016 48 339 1017 186 339 1018 187 339 1019 187 340 1020 186 340 1021 188 340 1022 188 341 1023 186 341 1024 185 341 1025 187 342 1026 188 342 1027 189 342 1028 189 343 1029 188 343 1030 190 343 1031 190 344 1032 188 344 1033 185 344 1034 189 345 1035 190 345 1036 191 345 1037 190 346 1038 185 346 1039 192 346 1040 192 347 1041 185 347 1042 107 347 1043 191 348 1044 190 348 1045 193 348 1046 192 349 1047 107 349 1048 106 349 1049 190 350 1050 192 350 1051 194 350 1052 194 351 1053 192 351 1054 106 351 1055 190 352 1056 194 352 1057 193 352 1058 191 353 1059 193 353 1060 195 353 1061 195 354 1062 193 354 1063 196 354 1064 195 355 1065 196 355 1066 197 355 1067 196 356 1068 193 356 1069 198 356 1070 198 357 1071 193 357 1072 194 357 1073 198 358 1074 194 358 1075 106 358 1076 198 359 1077 106 359 1078 110 359 1079 110 360 1080 106 360 1081 108 360 1082 198 361 1083 110 361 1084 199 361 1085 48 362 1086 46 362 1087 45 362 1088 198 363 1089 200 363 1090 196 363 1091 196 364 1092 200 364 1093 197 364 1094 200 365 1095 198 365 1096 201 365 1097 201 366 1098 198 366 1099 202 366 1100 202 367 1101 198 367 1102 199 367 1103 201 368 1104 202 368 1105 203 368 1106 201 369 1107 203 369 1108 204 369 1109 202 370 1110 199 370 1111 205 370 1112 205 371 1113 199 371 1114 109 371 1115 109 372 1116 199 372 1117 110 372 1118 202 373 1119 205 373 1120 206 373 1121 202 374 1122 206 374 1123 203 374 1124 205 375 1125 109 375 1126 119 375 1127 205 376 1128 119 376 1129 206 376 1130 119 377 1131 109 377 1132 117 377 1133 207 378 1134 204 378 1135 203 378 1136 207 379 1137 203 379 1138 206 379 1139 204 380 1140 207 380 1141 208 380 1142 207 381 1143 206 381 1144 209 381 1145 209 382 1146 206 382 1147 119 382 1148 207 383 1149 209 383 1150 208 383 1151 209 384 1152 119 384 1153 128 384 1154 209 385 1155 128 385 1156 208 385 1157 128 386 1158 119 386 1159 118 386 1160 208 387 1161 128 387 1162 210 387 1163 208 388 1164 210 388 1165 211 388 1166 187 389 1167 212 389 1168 48 389 1169 48 390 1170 212 390 1171 46 390 1172 46 391 1173 212 391 1174 213 391 1175 46 392 1176 213 392 1177 155 392 1178 46 393 1179 155 393 1180 44 393 1181 44 394 1182 155 394 1183 51 394 1184 155 395 1185 213 395 1186 157 395 1187 155 396 1188 157 396 1189 154 396 1190 157 397 1191 213 397 1192 214 397 1193 214 398 1194 213 398 1195 215 398 1196 157 399 1197 214 399 1198 216 399 1199 157 400 1200 216 400 1201 160 400 1202 200 401 1203 217 401 1204 197 401 1205 197 402 1206 217 402 1207 218 402 1208 218 403 1209 217 403 1210 219 403 1211 197 404 1212 218 404 1213 195 404 1214 218 405 1215 219 405 1216 220 405 1217 195 406 1218 218 406 1219 221 406 1220 195 407 1221 221 407 1222 191 407 1223 218 408 1224 220 408 1225 222 408 1226 218 409 1227 222 409 1228 221 409 1229 222 410 1230 220 410 1231 223 410 1232 223 411 1233 220 411 1234 224 411 1235 221 412 1236 222 412 1237 225 412 1238 225 413 1239 222 413 1240 223 413 1241 225 414 1242 223 414 1243 216 414 1244 216 415 1245 223 415 1246 160 415 1247 225 416 1248 216 416 1249 214 416 1250 225 417 1251 214 417 1252 215 417 1253 225 418 1254 215 418 1255 221 418 1256 221 419 1257 215 419 1258 226 419 1259 221 420 1260 226 420 1261 191 420 1262 226 421 1263 215 421 1264 213 421 1265 191 422 1266 226 422 1267 189 422 1268 189 423 1269 226 423 1270 212 423 1271 189 424 1272 212 424 1273 187 424 1274 210 425 1275 128 425 1276 127 425 1277 130 426 1278 127 426 1279 126 426 1280 127 427 1281 130 427 1282 227 427 1283 210 428 1284 127 428 1285 228 428 1286 210 429 1287 228 429 1288 211 429 1289 127 430 1290 227 430 1291 229 430 1292 127 431 1293 229 431 1294 228 431 1295 229 432 1296 227 432 1297 230 432 1298 229 433 1299 230 433 1300 231 433 1301 229 434 1302 231 434 1303 232 434 1304 229 435 1305 232 435 1306 228 435 1307 232 436 1308 231 436 1309 233 436 1310 204 437 1311 211 437 1312 228 437 1313 204 438 1314 228 438 1315 232 438 1316 204 439 1317 232 439 1318 233 439 1319 211 440 1320 204 440 1321 208 440 1322 204 441 1323 233 441 1324 201 441 1325 201 442 1326 233 442 1327 200 442 1328 226 443 1329 213 443 1330 212 443 1331 156 444 1332 157 444 1333 160 444 1334 159 445 1335 160 445 1336 163 445 1337 163 446 1338 160 446 1339 234 446 1340 234 447 1341 160 447 1342 223 447 1343 234 448 1344 223 448 1345 224 448 1346 234 449 1347 224 449 1348 235 449 1349 234 450 1350 235 450 1351 163 450 1352 235 451 1353 224 451 1354 236 451 1355 235 452 1356 236 452 1357 237 452 1358 237 453 1359 236 453 1360 238 453 1361 237 454 1362 238 454 1363 239 454 1364 235 455 1365 237 455 1366 240 455 1367 235 456 1368 240 456 1369 163 456 1370 163 457 1371 240 457 1372 166 457 1373 163 458 1374 166 458 1375 162 458 1376 166 459 1377 240 459 1378 241 459 1379 241 460 1380 240 460 1381 237 460 1382 166 461 1383 241 461 1384 165 461 1385 237 462 1386 239 462 1387 242 462 1388 237 463 1389 242 463 1390 241 463 1391 241 464 1392 242 464 1393 165 464 1394 242 465 1395 239 465 1396 243 465 1397 165 466 1398 242 466 1399 172 466 1400 172 467 1401 242 467 1402 243 467 1403 123 468 1404 173 468 1405 172 468 1406 123 469 1407 172 469 1408 125 469 1409 125 470 1410 172 470 1411 243 470 1412 125 471 1413 243 471 1414 244 471 1415 125 472 1416 244 472 1417 130 472 1418 244 473 1419 243 473 1420 239 473 1421 130 474 1422 244 474 1423 245 474 1424 245 475 1425 244 475 1426 239 475 1427 130 476 1428 245 476 1429 227 476 1430 227 477 1431 245 477 1432 230 477 1433 230 478 1434 245 478 1435 246 478 1436 246 479 1437 245 479 1438 239 479 1439 230 480 1440 246 480 1441 231 480 1442 246 481 1443 239 481 1444 247 481 1445 246 482 1446 247 482 1447 231 482 1448 247 483 1449 239 483 1450 248 483 1451 247 484 1452 248 484 1453 249 484 1454 247 485 1455 249 485 1456 231 485 1457 249 486 1458 248 486 1459 250 486 1460 249 487 1461 250 487 1462 251 487 1463 249 488 1464 251 488 1465 219 488 1466 249 489 1467 219 489 1468 231 489 1469 219 490 1470 251 490 1471 220 490 1472 231 491 1473 219 491 1474 217 491 1475 231 492 1476 217 492 1477 233 492 1478 233 493 1479 217 493 1480 200 493 1481 250 494 1482 239 494 1483 238 494 1484 239 495 1485 250 495 1486 248 495 1487 250 496 1488 238 496 1489 236 496 1490 250 497 1491 236 497 1492 251 497 1493 251 498 1494 236 498 1495 224 498 1496 251 499 1497 224 499 1498 220 499 1499</p>
        </polylist>
      </mesh>
    </geometry>
  </library_geometries>
  <library_visual_scenes>
    <visual_scene id="Scene" name="Scene">
      <node id="SmokedHam" name="SmokedHam" type="NODE">
        <scale sid="scale">1 1 1</scale>
        <translate sid="location">0 0 0</translate>
        <rotate sid="rotationX">1 0 0 0</rotate>
        <rotate sid="rotationY">0 1 0 0</rotate>
        <rotate sid="rotationZ">0 0 1 0</rotate>
        <instance_geometry url="#SmokedHam-mesh" name="SmokedHam">
          <bind_material>
            <technique_common>
            </technique_common>
          </bind_material>
        </instance_geometry>
      </node>
    </visual_scene>
  </library_visual_scenes>
  <scene>
    <instance_visual_scene url="#Scene"/>
  </scene>
</COLLADA>
