<?xml version="1.0" encoding="utf-8"?>
<COLLADA xmlns="http://www.collada.org/2005/11/COLLADASchema" version="1.4.1" xmlns:xsi="http://www.w3.org/2001/XMLSchema-instance">
  <asset>
    <contributor>
      <author>Blockbench user</author>
      <authoring_tool>Blockbench</authoring_tool>
    </contributor>
    <created>2026-04-01T12:01:15.598Z</created>
    <modified>2026-04-01T12:01:15.604Z</modified>
    <unit name="meter" meter="1.0"/>
    <up_axis>Y_UP</up_axis>
  </asset>
  <library_effects>
  </library_effects>
  <library_images>
  </library_images>
  <library_materials>
  </library_materials>
  <library_geometries>
    <geometry id="SomeonesNewShield-mesh" name="SomeonesNewShield">
      <mesh>
        <source id="SomeonesNewShield-mesh-positions">
          <float_array id="SomeonesNewShield-mesh-positions-array" count="759">0.087932 -0.984255 -0.038416 0.078355 -1.004261 0.004289 0.058089 -0.840845 -0.1457 0.054923 -0.803701 -0.11393 0.070005 -0.825913 -0.169172 0.097013 -0.85826 -0.126763 0.110122 -0.978815 -0.017302 0.104898 -0.838024 -0.088928 0.07235 -0.462206 0.000258 0.072003 -0.949192 0.002611 0.101651 -0.90985 0.001918 0.096111 -0.80729 -0.093705 0.092395 -1.001606 0.013887 0.114229 -0.925832 0.005614 0.10212 -0.902103 0.096225 0.10647 -0.88409 -0.013816 0.106487 -0.882945 0.014765 0.071766 -0.864723 0.141965 0.116178 -0.867669 -0.003733 0.115528 -0.757512 0.009033 0.089985 -0.716482 0.14063 0.031485 -0.62752 -0.264717 0.026216 -0.559528 -0.254955 0.050602 -0.492395 -0.143506 0.014796 -0.467063 -0.318706 0.028463 -0.47892 -0.326944 0.049079 -0.661792 -0.259686 0.075968 -0.683064 -0.227654 0.062747 -0.580487 -0.27868 0.047474 -0.410972 -0.330003 0.081499 -0.626423 -0.211968 0.071076 -0.518891 -0.256444 0.087442 -0.684285 -0.18258 0.077008 -0.668393 -0.177939 0.089348 -0.673829 -0.144827 0.104799 -0.187598 -0.028982 0.064906 -0.492722 -0.253863 0.11658 -0.204861 -0.017862 0.12012 -0.277692 0.005272 0.004926 -0.28202 -0.325394 0.052774 -0.202959 -0.321584 0.060066 -0.354845 -0.272521 0.047808 -0.245675 -0.301562 0.053521 -0.19699 -0.298834 0.040627 -0.281349 -0.351604 0.016563 -0.301333 -0.361505 0.003839 -0.295391 -0.351919 0.007649 0.213667 -0.321076 0.057734 -0.836934 0.147283 0.092459 -0.728512 0.160204 0.07666 -0.67308 0.176219 0.104949 -0.222088 0.027874 0.066688 -0.508977 0.246406 0.087774 -0.216205 0.154034 0.070906 -0.51808 0.257154 0.058467 -0.549886 0.29348 0.078718 -0.715202 0.21487 0.041311 -0.605173 0.28704 0.030938 -0.625005 0.268844 0.025573 -0.436279 0.337612 0.025717 -0.554667 0.256479 0.051601 -0.469182 0.138263 0.115742 -0.186744 0.019194 0.061589 -0.451865 0.265543 0.047333 0.061177 0.324706 0.025129 -0.139484 0.259633 0.004211 -0.264866 0.328199 0.008827 -0.389426 0.337848 0.013878 -0.241147 0.370115 -0.001626 -0.128171 0.370265 0.048182 -0.256856 0.300135 0.055817 -0.273539 0.310938 0.04098 -0.290019 0.350888 0.048053 0.061909 -0.321064 0.039517 0.065783 -0.329919 0.06377 0.054853 -0.256158 0.026677 0.271198 -0.396101 0.010912 -0.059405 -0.386982 0.001736 0.218858 -0.405708 -0.005178 0.009529 -0.381629 0.050961 -0.143866 -0.14225 0.026122 -0.0725 -0.254693 0.041501 -0.097136 -0.181031 0.02123 -0.09436 -0.244409 0.031366 -0.091225 -0.184257 0.087941 -0.045238 -0.152926 0.115078 -0.145528 -0.043772 0.120984 -0.11857 0.010872 0.080316 0.082288 -0.24704 0.119523 -0.10703 -0.017456 0.089551 0.085544 -0.201831 0.086666 0.060404 -0.16961 0.106889 0.058705 -0.028531 0.106179 -0.083713 -0.031492 0.120502 0.074198 -0.014901 0.115878 -0.078151 0.046898 0.102206 -0.162046 0.050164 0.111453 -0.121186 0.062924 0.088068 -0.044925 0.15273 0.064195 0.056289 0.254255 0.077405 0.067311 0.245668 0.088686 0.072494 0.209531 0.098348 0.028267 0.147765 0.087051 0.060175 0.169507 0.106691 0.058855 0.028384 0.106805 -0.086688 0.028416 -0.013159 0.632183 -0.386327 0.045919 0.100783 -0.346009 0.056032 0.077852 -0.337981 0.047783 0.105885 -0.322206 0.037748 0.112842 -0.331897 0.027972 0.074471 -0.245972 0.028677 0.061498 -0.185555 0.040972 0.30467 -0.187371 -0.013269 0.079669 -0.243198 -0.02194 0.078303 -0.185744 -0.008675 0.084656 -0.185507 -0.048386 0.138898 -0.185449 0.041603 0.081364 -0.183561 -0.072432 0.15892 -0.185051 -0.064456 0.226509 -0.185717 -0.064619 0.133274 -0.241747 -0.068772 0.211259 -0.242542 -0.070468 0.258375 -0.228999 0.064903 0.111942 -0.252432 0.098606 0.202372 -0.142697 0.088781 0.216654 -0.149034 0.121019 0.077517 0.013313 0.106858 0.114877 0.030409 0.118733 0.263827 0.016919 0.120773 0.102796 -0.013231 0.118516 0.3471 0.013642 0.120352 0.343041 -0.011661 0.118345 0.583951 -0.001796 0.10476 0.579117 -0.029085 0.104998 0.35532 -0.029105 0.054553 0.562717 -0.296056 0.119002 0.264384 -0.018074 0.10699 0.245217 -0.028829 0.086946 0.108617 -0.163796 0.106744 0.111814 -0.029718 0.051273 0.313463 -0.14001 0.072274 0.648956 0.000034 0.051382 0.663621 -0.139697 0.006617 0.110289 0.323724 0.023139 0.014412 0.26734 0.030972 -0.12292 0.198365 0.031405 -0.02698 0.220916 0.044134 -0.10643 0.170545 0.038902 0.079973 0.330986 0.046008 0.081099 0.346006 0.030547 0.069016 0.384661 0.00173 0.221898 0.406607 0.091452 0.099168 0.182965 0.081344 0.101209 0.237258 0.106993 0.245658 0.028463 0.107901 0.254994 0.091526 0.104977 0.352069 0.029255 0.089371 0.217603 0.14648 0.089145 0.364104 0.147926 0.064602 0.111461 0.252994 0.055514 0.089766 0.337746 -0.028326 0.011011 0.221442 -0.061562 0.112511 0.229309 -0.02958 0.086817 0.223962 -0.00887 0.313631 0.372454 -0.010542 0.260646 0.397352 0.046878 0.107119 0.32491 -0.015019 0.669778 -0.41341 0.034158 0.615433 -0.350069 0.042991 0.613919 -0.341355 -0.008158 0.301577 -0.185698 -0.009829 0.316984 -0.206769 -0.034377 0.278275 -0.244223 0.025959 0.308188 -0.2551 0.027262 0.33005 -0.204716 0.041349 0.338301 -0.185473 -0.002949 0.677439 -0.423297 0.021488 0.664548 -0.411456 0.012386 0.720338 -0.336519 0.046164 0.771648 -0.27486 0.034614 0.778983 -0.252564 0.022913 0.697975 -0.269072 0.068584 0.753663 -0.263749 0.03975 0.625023 -0.362449 0.06125 0.673814 -0.290706 0.060101 0.677828 -0.270577 0.092029 0.67363 -0.132717 0.04953 0.353479 0.15044 0.023636 0.348674 0.265145 0.037627 0.353294 0.175068 0.039313 0.499129 0.170064 0.045599 0.503584 0.165181 0.025651 0.505537 0.256444 0.020272 0.450479 0.246634 0.105051 0.670909 -0.103486 0.10964 0.632095 -0.022986 0.107897 0.712309 -0.021109 0.117619 0.753679 -0.000332 0.117115 0.79199 0.000516 0.108097 0.801217 -0.001584 0.086792 0.756245 -0.164522 0.108338 0.886887 0.001111 0.088418 0.774703 -0.176202 0.082246 0.78221 -0.147103 0.100228 0.904622 -0.00074 0.101372 0.845062 -0.100761 0.113291 0.922787 0.003814 0.1121 0.984864 -0.001116 0.09501 0.883102 -0.13482 0.080426 0.939314 -0.103154 0.09389 1.006739 -0.0015 0.069049 0.884558 -0.166449 0.056601 0.890185 -0.145176 0.075945 0.990145 -0.009466 0.051768 0.834131 -0.135814 -0.112829 0.195997 0.2301 -0.119743 0.237423 0.254405 -0.116309 0.243346 0.219879 -0.085971 0.26815 0.225901 -0.053827 0.352213 0.25144 0.104811 0.575404 0.026238 0.052685 0.564496 0.304305 -0.061279 0.359144 0.220738 -0.006849 0.396764 0.240829 0.013932 0.465879 0.299983 -0.008477 0.629688 0.373283 0.033666 0.623695 0.349594 0.04032 0.623817 0.363829 0.043256 0.618415 0.341091 0.019884 0.667718 0.414069 -0.014848 0.671319 0.411751 0.071834 0.957123 -0.000471 0.108117 0.677956 0.067362 0.10547 0.670516 0.099363 0.112962 0.571089 0.01791 0.09369 0.671647 0.112158 0.089464 0.767262 0.146408 0.080792 0.773269 0.157668 0.097859 0.823544 0.123027 0.065772 0.687221 0.27689 0.081467 0.806692 0.209399 0.101482 0.927089 0.090388 0.070027 0.893274 0.156994 0.065409 0.935186 0.090223 0.03618 0.785144 0.248213 0.027386 0.715768 0.250076 0.053495 0.848619 0.125653 0.06515 0.692203 0.251412 0.03459 0.674513 0.379027 0.035944 0.741638 0.312481 -0.002524 0.677671 0.423103 0.013622 0.720096 0.32833</float_array>
          <technique_common>
            <accessor source="#SomeonesNewShield-mesh-positions-array" count="253" stride="3">
              <param name="X" type="float"/>
              <param name="Y" type="float"/>
              <param name="Z" type="float"/>
            </accessor>
          </technique_common>
        </source>
        <source id="SomeonesNewShield-mesh-normals">
          <float_array id="SomeonesNewShield-mesh-normals-array" count="1494">-0.795502 -0.460325 -0.394053 -0.994406 -0.103368 0.021736 -0.516445 -0.579264 -0.630665 0.473792 -0.528227 -0.704625 0.982884 -0.05325 -0.176364 -0.989174 0.001414 0.146744 0.913064 0.303402 0.27251 0.669019 -0.458433 -0.585023 -0.99342 -0.114493 0.002667 0.382727 -0.866611 -0.320163 0.495088 -0.811141 -0.311349 0.992365 -0.024654 -0.120844 0.620705 0.604092 0.499798 0.974314 -0.148675 0.169136 0.9049 -0.320343 0.280242 0.983649 -0.179973 0.006613 0.312091 -0.623604 0.716741 -0.327505 -0.671399 0.664804 0.711036 -0.458581 -0.533039 0.85516 -0.51797 0.02023 0.899718 -0.045011 0.434144 0.640941 -0.42151 0.641501 -0.669971 -0.423672 -0.609623 -0.993991 -0.086635 0.066903 -0.99433 -0.103949 0.022422 -0.977666 0.006388 0.210068 -0.988765 0.000478 0.149481 -0.994865 -0.084988 0.054954 -0.669205 -0.298558 -0.680462 -0.654284 -0.427474 -0.623842 -0.451998 -0.352353 -0.819479 0.608738 -0.322221 -0.72499 0.638467 -0.275245 -0.718749 0.683783 -0.300726 -0.664834 0.414757 -0.272541 -0.868158 0.560932 -0.193189 -0.805005 0.959652 -0.015967 -0.280738 0.957585 -0.025886 -0.286987 0.968594 -0.026052 -0.247278 0.979963 -0.009916 -0.198933 0.994998 -0.099532 0.008543 0.795287 0.576724 -0.186835 0.88971 0.306902 0.337976 0.79766 0.389137 0.460771 0.928149 -0.091193 -0.360864 0.991889 0.001579 -0.127097 0.991473 -0.000459 -0.130314 0.857747 0.265264 0.440347 0.928024 -0.092075 -0.360962 0.936262 0.191726 0.294371 0.732343 -0.014957 -0.680771 0.992244 -0.008523 0.124014 -0.993081 -0.049115 0.106665 0.94686 -0.012006 -0.32142 0.947245 -0.011168 -0.320314 0.853659 0.152156 0.498112 0.977854 0.00602 -0.2092 0.860439 -0.038549 -0.508094 0.812601 -0.062893 -0.579417 0.818571 0.162999 0.550793 0.935348 -0.009518 -0.353601 0.462545 -0.121911 -0.878174 0.391565 -0.150427 -0.907771 -0.645373 -0.187364 -0.740533 -0.621 -0.186907 -0.7612 -0.9965 -0.050752 0.066418 -0.9543 0.002639 0.29884 0.675052 -0.014443 -0.737628 0.986485 -0.004091 -0.163798 -0.764805 -0.470431 0.44019 -0.993345 -0.114836 -0.008873 0.991404 0.007027 0.130646 0.736178 0.46585 -0.490944 0.869804 0.348746 -0.349024 0.323706 -0.538528 0.777947 0.991467 -0.000278 0.130361 0.834159 -0.173255 0.523604 0.975959 -0.001527 0.217949 0.957479 0.16067 -0.239624 0.634984 0.375964 -0.674867 0.952766 -0.027125 0.302492 0.968883 -0.014601 0.247088 0.966782 -0.039279 0.252568 0.604226 -0.371742 0.704783 0.362 -0.42209 0.831142 0.613558 -0.276548 0.73964 -0.682426 -0.2673 0.680327 -0.429017 -0.478558 0.766112 -0.637191 -0.442507 0.631012 -0.979056 0.015748 -0.202979 -0.988885 -0.000014 -0.148684 -0.995168 -0.083073 -0.052344 -0.992169 -0.124903 -0.000946 0.660877 -0.013347 0.750376 0.653534 -0.013717 0.756773 0.941301 -0.006362 0.337507 0.990865 0.000765 0.134857 0.973257 0.000555 0.229717 -0.976895 0.00024 -0.21372 -0.956912 0.000851 -0.290376 -0.992495 -0.045567 -0.113483 -0.995821 -0.081251 -0.041706 -0.712621 -0.25798 0.652393 -0.470062 -0.172359 0.865641 -0.779343 -0.107772 0.617259 0.970596 0.006018 0.240637 0.833937 -0.040296 0.550386 0.957626 0.16467 -0.236295 0.896077 0.13653 -0.42238 0.749715 0.185943 -0.6351 0.948886 -0.010827 0.315433 0.939063 -0.012695 0.34351 0.413577 -0.125422 0.901789 0.596488 -0.134657 0.791246 0.402062 -0.228055 0.886757 0.714973 -0.044809 -0.697714 0.933783 0.057021 0.353267 0.709237 -0.045173 -0.703521 0.971919 0.00032 -0.235314 0.932022 -0.005649 -0.362357 0.586751 -0.050271 -0.808205 0.438019 -0.084024 -0.895031 -0.627154 -0.096045 -0.772951 -0.584368 -0.073656 -0.808139 -0.648737 -0.092781 -0.755336 -0.998288 -0.02434 0.053177 -0.976919 0.000238 0.213609 -0.963759 -0.00033 0.266773 -0.9765 -0.000305 0.215519 -0.980692 -0.039597 0.191507 -0.891106 0.340539 0.299938 -0.530607 -0.837111 0.133047 0.971405 0.000699 -0.237426 0.97373 0.00029 -0.227706 0.974307 -0.000721 -0.225224 0.990951 0.000489 -0.134222 0.278641 -0.378409 -0.882704 0.994957 -0.017911 -0.098692 0.760611 -0.37272 -0.531555 0.80546 -0.319988 -0.49884 0.813896 -0.312719 -0.489673 0.986624 -0.002492 -0.16299 0.989876 -0.001983 -0.141921 0.486886 0.637836 0.596747 0.733348 0.010478 -0.679773 0.995095 -0.062424 -0.076747 0.703996 0.006209 -0.710177 0.998563 -0.004642 -0.053388 0.988479 -0.000042 -0.151359 0.910262 -0.0195 0.413574 0.97919 -0.051316 0.196352 0.86023 -0.142448 0.489605 0.723627 -0.349602 0.595099 0.98628 -0.041963 0.159656 0.990818 -0.004881 0.135114 0.990532 -0.00065 0.137281 0.973466 0.000076 0.22883 0.711673 -0.406708 0.572809 0.802032 -0.335766 0.493969 0.808002 -0.328334 0.489213 0.953653 -0.102147 0.283042 0.987779 -0.001857 0.15585 0.979724 -0.026804 0.198552 0.673086 0.564151 -0.478214 0.990455 0.000803 0.137837 0.561117 0.611459 -0.557911 0.7784 0.000744 0.627768 0.598638 0.573787 -0.558929 -0.988765 0.000481 0.14948 -0.99306 -0.011845 0.117015 -0.948096 0.002439 0.317976 0.9209 -0.010551 -0.389655 0.441254 -0.04576 -0.896215 0.877764 0.058051 0.475563 0.267659 -0.761004 -0.590958 -0.159486 -0.388103 -0.907712 0.73614 -0.630239 -0.246771 0.866555 -0.453071 -0.209306 0.913926 0.312269 -0.259282 0.81657 0.548006 -0.181389 0.683087 0.701327 -0.203794 0.985619 -0.040878 -0.163962 0.999815 0.017536 -0.007912 -0.928361 0.033647 -0.370154 -0.975651 -0.000735 0.219326 0.136016 0.968954 0.206464 -0.314085 -0.946818 -0.069907 -0.012865 -0.010492 0.999862 0.115058 0.984299 -0.133852 0.068577 0.993455 -0.091346 0.019569 0.003664 0.999802 0.022506 0.007193 0.999721 0.80151 0.586906 -0.114558 -0.718188 -0.684592 -0.124659 -0.840606 -0.527545 0.12279 0.909738 0.382916 0.160473 -0.041165 -0.012382 -0.999076 0.976296 0.17871 -0.122105 -0.992205 -0.053986 -0.112315 -0.996994 -0.013985 -0.076203 0.876864 0.410158 -0.25076 0.797612 0.3218 -0.510157 0.797388 0.322087 -0.510325 0.979789 -0.027304 -0.19816 0.619483 0.591048 0.516627 0.796132 -0.592849 -0.121262 0.928195 -0.329082 -0.173663 0.999832 0.000047 -0.018338 0.730031 -0.008639 0.683359 0.766862 -0.003009 0.641805 0.999814 -0.00845 -0.017338 0.999923 0.012225 0.00235 0.999007 0.00435 0.04435 0.997392 0.001276 0.072159 0.997426 0.005381 0.071503 0.89307 0.025833 -0.449175 0.750946 0.000859 -0.660363 0.974235 0.000544 -0.225535 0.803087 0.333278 -0.49394 0.811569 0.326116 -0.484773 0.979059 0.026293 -0.201872 0.987172 -0.003926 -0.15961 0.986283 0.007027 -0.164915 0.969642 0.003296 -0.244507 0.543915 -0.643256 0.538867 0.679748 -0.01453 -0.733302 0.833053 -0.44583 0.327505 0.762391 0.002907 -0.64711 0.989276 -0.000852 -0.146056 0.894696 0.406432 -0.185291 0.626349 0.771616 -0.110884 0.98657 0.000203 -0.163342 -0.296001 0.013706 0.955089 -0.160859 0.005561 0.986962 -0.043278 -0.071895 0.996473 -0.009526 -0.017461 0.999802 -0.970393 0.003976 0.241499 -0.975766 -0.000407 0.218818 -0.976985 0.000678 0.213309 -0.98894 -0.000053 0.148313 -0.988928 -0.000038 0.148394 -0.989003 0.000176 0.147892 -0.957851 0.002716 -0.287253 -0.958806 0.001825 -0.284056 -0.995245 -0.00801 -0.097075 -0.97289 0.057072 -0.224117 -0.920257 0.093472 -0.379987 -0.642573 0.752901 0.142269 -0.977878 -0.001514 -0.20917 0.972508 -0.00149 0.232864 0.498041 -0.065476 0.864678 0.900207 0.064251 -0.430697 0.864218 0.073124 -0.497776 0.929585 -0.010724 0.368453 0.93814 -0.005307 0.346215 0.493849 -0.067201 0.866947 0.369829 -0.063349 0.926938 -0.570579 -0.079389 0.817397 -0.999164 -0.038158 -0.014652 0.832765 -0.539696 0.123412 0.849778 -0.512576 0.123061 0.887555 0.428877 -0.168256 0.984601 0.061048 0.163811 0.955421 -0.03839 0.292739 0.980689 0.077249 0.17967 0.945368 0.300498 0.126414 0.994934 0.000468 0.100526 0.456278 -0.668194 -0.587646 0.989753 -0.021659 0.141139 0.983126 0.003543 0.182895 0.792039 0.346338 0.502717 0.991221 0.000224 0.132216 0.802349 0.331672 0.496215 0.97417 -0.000726 0.225816 0.746362 0.376534 0.548786 0.968612 -0.052258 0.243022 -0.988884 -0.000098 -0.148688 -0.977637 -0.001408 -0.210296 0.990919 0.107884 0.08025 -0.140895 0.030559 -0.989553 0.140895 -0.030559 0.989553 -0.950123 0.002373 -0.311865 -0.995013 -0.014955 -0.098622 -0.996423 -0.017083 -0.082758 -0.722704 -0.064512 0.688141 0.704375 -0.676322 0.215509 -0.151999 -0.373827 0.914959 0.871422 -0.386918 0.301527 0.515713 -0.328617 -0.791234 0.666124 0.702267 0.251196 0.792967 0.564387 0.2295 0.971207 -0.000755 -0.238234 -0.812191 -0.04012 -0.58201 -0.998602 -0.012411 0.051376 0.873838 0.023801 0.485634 0.700348 -0.020795 -0.713498 0.687007 -0.020897 -0.72635 0.968889 -0.00019 -0.247497 -0.968466 0.116453 0.220253 -0.700214 0.525016 0.483796 -0.698997 0.549716 0.457401 -0.564795 0.73019 -0.384486 -0.458031 0.750863 -0.475828 -0.319451 0.932924 -0.166145 -0.504821 0.677246 0.535251 0.037549 -0.056733 0.997683 -0.460162 0.876286 -0.142737 0.060502 -0.99604 -0.065141 -0.976306 -0.000186 0.216395 -0.481747 0.226022 -0.846661 -0.888897 0.454847 -0.054553 -0.79437 0.595724 0.118696 -0.963532 -0.000125 0.267591 0.414644 -0.030648 -0.909468 0.423116 -0.02977 -0.905586 -0.619351 -0.036409 -0.784269 -0.652681 0.718639 -0.239929 -0.958072 0.134746 0.252867 -0.378944 0.802759 -0.460412 -0.976999 0.103081 0.186674 -0.964968 0.163824 0.204937 -0.955549 -0.001541 0.294827 -0.964296 0.001957 0.26482 -0.976631 0.000072 0.214924 -0.976409 -0.00027 0.215928 0.931265 -0.001939 -0.364337 0.576591 0.68735 -0.441693 -0.103668 0.791718 -0.602027 0.675237 0.516289 -0.526783 0.945619 0.036076 -0.32327 0.937078 0.00008 -0.34912 0.903987 0.024026 0.426885 0.887564 -0.458407 0.045756 0.690603 0.332567 -0.642236 0.955652 0.011577 -0.294271 0.912674 -0.38766 0.129406 0.970639 0.006435 -0.240455 0.97423 0.002959 -0.225535 0.974513 0.001085 -0.224327 -0.289533 0.880777 -0.374702 -0.006684 -0.917277 0.398194 -0.977115 -0.001059 0.212711 -0.976982 0.000114 0.213323 -0.977199 0.001136 0.212322 -0.988681 -0.000268 -0.150031 -0.975929 0.000772 -0.218088 -0.975454 0.000005 -0.220204 -0.131927 -0.988699 -0.071198 -0.900329 -0.004524 -0.435187 -0.637973 0.058697 -0.767819 -0.649696 0.743608 -0.157929 -0.970887 0.003005 -0.23952 0.871858 -0.310057 -0.379115 0.980326 0.193779 0.03755 -0.880929 -0.030188 0.472285 0.99545 -0.050237 -0.080967 0.990914 0.015973 -0.133542 0.84889 -0.334451 -0.409302 0.992244 -0.002614 -0.124276 0.626476 0.471007 -0.621031 0.888789 0.26926 -0.370882 0.991072 0.011694 -0.132813 0.991513 0.001299 -0.130001 0.973731 -0.025389 -0.226283 0.978445 -0.16489 -0.124323 0.910235 -0.393043 0.13034 0.782143 0.435725 -0.445417 0.979485 0.038824 0.197743 0.975991 -0.01631 -0.217201 0.850321 0.347568 -0.395158 0.829745 -0.472064 0.29779 0.836602 -0.466423 0.287309 0.709354 -0.602017 0.366595 0.992703 0.009504 -0.120208 0.988209 0.031036 -0.149934 0.984401 0.007248 -0.175792 0.775945 0.450211 -0.441836 0.684968 0.562094 -0.46354 0.973467 0.027525 -0.227165 0.687348 0.483606 -0.54192 0.711723 0.41744 -0.564973 0.658691 0.447362 -0.604973 -0.536629 0.683496 -0.494836 -0.659463 0.647079 -0.382619 -0.992802 0.097278 0.069859 -0.600008 0.614003 -0.512827 -0.988388 0.125229 0.086064 -0.599456 0.614178 -0.513262 -0.990036 0.101647 0.097446 -0.988564 -0.097501 -0.115042 0.74462 -0.24094 0.622486 0.778169 -0.435152 0.452875 0.328248 -0.17619 -0.928014 0.693201 0.010007 0.720675 0.991248 0.002519 0.131987 0.756937 0.00939 0.653421 0.757144 0.368716 0.539241 0.98945 0.008271 0.144638 0.973848 -0.000118 0.227202 0.97097 -0.001552 0.239198 -0.821642 0.479769 0.307776 -0.903035 0.429263 -0.016164 0.297456 -0.134348 -0.945236 -0.615462 0.723461 0.312746 0.442522 -0.170039 -0.880489 0.566684 -0.430185 0.702716 -0.957009 -0.000481 -0.290058 -0.987246 -0.035618 -0.155167 -0.989819 -0.114465 -0.084591 -0.980708 0.122886 -0.152024 -0.978528 0.124811 -0.164028 -0.957605 0.006324 -0.288016 -0.95507 0.001966 -0.296375 -0.96392 -0.009666 -0.266016 0.903019 0.023378 -0.428963 0.647684 -0.01983 0.761651 0.905589 0.0234 -0.42351 0.657414 -0.019181 0.753285 0.483809 -0.034337 0.8745 0.928747 -0.00244 0.370707 0.925654 -0.002098 0.378366 -0.666345 -0.033104 0.744908 -0.996526 -0.00754 -0.082943 0.990816 0.001068 -0.135211 -0.989023 -0.00117 0.147754 -0.989038 -0.001124 0.147659 -0.97678 -0.002668 0.214229 0.99975 0.021582 0.0059 0.986565 0.15179 -0.060416 0.994947 0.040742 0.091766 0.974292 -0.094228 0.204635 0.978509 -0.191391 -0.076745 0.988699 0.009679 0.149603 0.99662 -0.035106 0.074271 0.436071 -0.550404 0.711967 0.624373 -0.47882 0.617162 0.686356 0.418308 0.594923 0.420802 0.571585 0.704426 0.991853 -0.001784 0.127373 0.992951 -0.006518 0.118342 0.798943 0.411124 0.438938 0.818832 0.38641 0.424502 0.818974 -0.487068 -0.303392 0.874141 -0.439361 -0.206975 0.983055 -0.026699 0.181355 0.981193 0.025957 0.191275 0.71242 0.429864 0.554684 0.990846 0.007808 0.134771 0.806515 -0.501506 -0.313089 0.990586 0.029624 0.133651 0.6847 0.577778 0.44425 -0.502112 0.749837 -0.430845 0.448711 0.693311 0.563895 -0.715775 0.640777 0.277616 -0.318275 0.792861 0.519685 -0.992787 0.111801 -0.04329 -0.990993 0.130972 0.027908 -0.717613 0.566443 0.405184 -0.989453 0.123394 -0.075877 -0.991049 0.100369 -0.088027 -0.991961 0.119601 -0.041345 -0.989389 -0.001651 -0.145283 -0.988898 0.00048 -0.148596 -0.976944 -0.004622 -0.213447 0.715793 0.004444 0.698298 0.991762 0.00024 0.128097 0.992363 -0.00032 0.123351 0.974213 0.000079 0.225632 0.822616 0.354948 0.444201 0.973693 -0.000663 0.227864 0.958669 -0.273928 -0.076926 0.970464 0.005172 0.241191 0.96831 -0.001043 0.249748 0.721524 0.331217 0.608028 0.914807 -0.391604 -0.098863 0.954094 0.042168 0.296525 0.530204 0.591514 0.607449 0.683689 0.441871 0.580792 0.663464 -0.683543 -0.304277 0.955543 0.019809 0.294186 0.922801 -0.011151 0.385116 0.815104 0.399484 0.419544 0.362133 -0.030338 0.931633 -0.667828 -0.033144 0.743577 0.514219 0.652782 0.556287 -0.986272 0.00166 -0.165123 -0.607951 0.758148 0.235814 -0.573912 0.779454 0.25115 -0.958129 0.100974 -0.267941 -0.754261 0.544993 0.366159 -0.373424 0.768832 0.519088 -0.976736 0.11903 -0.178379 -0.972515 0.148579 -0.179271 -0.978124 -0.002581 -0.208008 -0.975139 0.001337 -0.221588 -0.960048 -0.000552 -0.279834 -0.962969 -0.011194 -0.269379 0.961339 0.018603 0.27474</float_array>
          <technique_common>
            <accessor source="#SomeonesNewShield-mesh-normals-array" count="498" stride="3">
              <param name="X" type="float"/>
              <param name="Y" type="float"/>
              <param name="Z" type="float"/>
            </accessor>
          </technique_common>
        </source>
        <source id="SomeonesNewShield-mesh-map-0">
          <float_array id="SomeonesNewShield-mesh-map-0-array" count="2988">0.260742 0.820313 0.258789 0.812744 0.277832 0.810059 0.277832 0.810059 0.258789 0.812744 0.280762 0.787109 0.260742 0.820313 0.277832 0.810059 0.287598 0.817871 0.260742 0.820313 0.287598 0.817871 0.268555 0.82666 0.252441 0.845703 0.28125 0.830078 0.278809 0.851563 0.2854 0.758545 0.255127 0.792236 0.233643 0.783936 0.296875 0.857178 0.314209 0.846436 0.317139 0.854736 0.348145 0.339844 0.330811 0.333008 0.331543 0.323975 0.323242 0.36792 0.345947 0.360352 0.347656 0.378662 0.345947 0.360352 0.35083 0.353516 0.359619 0.357666 0.359619 0.357666 0.35083 0.353516 0.363037 0.350586 0.379639 0.330811 0.35498 0.333496 0.372314 0.306396 0.372314 0.306396 0.384521 0.30957 0.379639 0.330811 0.363037 0.350586 0.379639 0.330811 0.378662 0.354736 0.363037 0.350586 0.378662 0.354736 0.359619 0.357666 0.401123 0.324463 0.394531 0.315186 0.403076 0.316406 0.374756 0.367676 0.390869 0.366455 0.397217 0.387939 0.374756 0.367676 0.397217 0.387939 0.368408 0.374023 0.854248 0.628418 0.87085 0.629639 0.878418 0.639648 0.845947 0.61792 0.833496 0.624512 0.830566 0.617188 0.830566 0.617188 0.833496 0.624512 0.764648 0.616455 0.836182 0.568115 0.836426 0.609619 0.817871 0.55127 0.509033 0.774902 0.488281 0.763428 0.519531 0.766357 0.519531 0.766357 0.488281 0.763428 0.515137 0.743652 0.515137 0.743652 0.488281 0.763428 0.470459 0.738525 0.515137 0.743652 0.470459 0.738525 0.539063 0.713867 0.539063 0.713867 0.470459 0.738525 0.508301 0.68042 0.575928 0.766602 0.601563 0.747314 0.611572 0.763672 0.575928 0.766602 0.611572 0.763672 0.605225 0.773926 0.509033 0.774902 0.550049 0.766602 0.547607 0.775391 0.577148 0.77417 0.575928 0.766602 0.605225 0.773926 0.49707 0.786865 0.543945 0.783936 0.529053 0.794678 0.529053 0.794678 0.543945 0.783936 0.568359 0.787598 0.49707 0.786865 0.529053 0.794678 0.489014 0.796875 0.577148 0.77417 0.605225 0.773926 0.594727 0.786621 0.594727 0.786621 0.605225 0.773926 0.623291 0.783691 0.529053 0.794678 0.568359 0.787598 0.552002 0.8125 0.552002 0.8125 0.568359 0.787598 0.582031 0.807861 0.52124 0.815186 0.489014 0.796875 0.529053 0.794678 0.489014 0.796875 0.52124 0.815186 0.486572 0.817139 0.529053 0.794678 0.552002 0.8125 0.529297 0.821289 0.529053 0.794678 0.529297 0.821289 0.52124 0.815186 0.486572 0.817139 0.52124 0.815186 0.505859 0.824707 0.505859 0.824707 0.52124 0.815186 0.529297 0.821289 0.505859 0.824707 0.529297 0.821289 0.529297 0.828125 0.491699 0.833008 0.521973 0.8396 0.477783 0.87915 0.507813 0.894287 0.521973 0.8396 0.567139 0.896973 0.566895 0.817871 0.552002 0.8125 0.582031 0.807861 0.529297 0.828125 0.549072 0.820557 0.563965 0.824951 0.5896 0.815186 0.566895 0.817871 0.582031 0.807861 0.077393 0.219971 0.090576 0.171387 0.095947 0.15918 0.996094 0.343018 0.992188 0.427979 0.988525 0.384766 0.73584 0.346924 0.728271 0.392334 0.702637 0.342773 0.515625 0.33667 0.524658 0.307373 0.53833 0.361084 0.524658 0.307373 0.49707 0.305664 0.505859 0.278076 0.518066 0.286133 0.524658 0.307373 0.505859 0.278076 0.574951 0.335205 0.537598 0.306396 0.588867 0.299072 0.516357 0.273926 0.518066 0.286133 0.510742 0.272461 0.516357 0.273926 0.510742 0.272461 0.503418 0.239746 0.510742 0.272461 0.518066 0.286133 0.505859 0.278076 0.47583 0.272217 0.505859 0.278076 0.49707 0.305664 0.468994 0.275879 0.495117 0.320068 0.464355 0.286865 0.464355 0.286865 0.495117 0.320068 0.489502 0.324463 0.464355 0.286865 0.489502 0.324463 0.45874 0.291016 0.45874 0.291016 0.489502 0.324463 0.482666 0.328613 0.45874 0.291016 0.482666 0.328613 0.453125 0.310303 0.407227 0.28125 0.453125 0.310303 0.419678 0.315674 0.148926 0.34375 0.169434 0.276611 0.180908 0.380615 0.20459 0.287598 0.220703 0.241211 0.223389 0.281738 0.257568 0.600342 0.264893 0.586182 0.280273 0.583252 0.257568 0.600342 0.280273 0.583252 0.271729 0.61084 0.258057 0.560791 0.243896 0.584473 0.247803 0.566162 0.258057 0.560791 0.247803 0.566162 0.250488 0.559326 0.258057 0.560791 0.250488 0.559326 0.264404 0.548096 0.264404 0.548096 0.250488 0.559326 0.265381 0.542725 0.298828 0.485107 0.269043 0.469727 0.278076 0.439941 0.283936 0.5271 0.31665 0.499512 0.300781 0.520264 0.31665 0.499512 0.311768 0.461914 0.341553 0.460938 0.338379 0.492432 0.347412 0.486084 0.343994 0.495117 0.314697 0.507568 0.327881 0.504639 0.311768 0.517822 0.327881 0.504639 0.341553 0.514893 0.326172 0.526611 0.327881 0.504639 0.326172 0.526611 0.311768 0.517822 0.290039 0.536621 0.304932 0.54248 0.279053 0.56665 0.279053 0.56665 0.309082 0.548828 0.295654 0.567871 0.295654 0.567871 0.309082 0.548828 0.32373 0.545166 0.32373 0.545166 0.309082 0.548828 0.340088 0.524414 0.364502 0.519531 0.363525 0.512695 0.388428 0.496826 0.295654 0.567871 0.32373 0.545166 0.312012 0.563232 0.295654 0.567871 0.297607 0.575195 0.280273 0.583252 0.329346 0.571533 0.337891 0.584229 0.300537 0.590576 0.300537 0.590576 0.337891 0.584229 0.32666 0.609375 0.329346 0.571533 0.300537 0.590576 0.297607 0.575195 0.297607 0.575195 0.300537 0.590576 0.280273 0.583252 0.179443 0.582764 0.21875 0.599121 0.196045 0.597656 0.179443 0.582764 0.196045 0.597656 0.157959 0.584717 0.157959 0.584717 0.196045 0.597656 0.142578 0.594971 0.195313 0.577393 0.152344 0.538818 0.221436 0.530273 0.187988 0.457764 0.178955 0.461426 0.176025 0.437744 0.413086 0.578857 0.458252 0.590088 0.415527 0.610596 0.415527 0.610596 0.44751 0.617188 0.397705 0.644775 0.438232 0.637207 0.496826 0.628418 0.480713 0.647949 0.480713 0.647949 0.496826 0.628418 0.513428 0.645996 0.480713 0.647949 0.513428 0.645996 0.476807 0.656494 0.444336 0.650635 0.476807 0.656494 0.443115 0.657227 0.416504 0.655518 0.413574 0.66748 0.394287 0.692871 0.525391 0.062988 0.52124 0.079102 0.484375 0.0625 0.477051 0.057861 0.484375 0.0625 0.451904 0.061523 0.510742 0.052979 0.522461 0.059814 0.502441 0.05835 0.502441 0.05835 0.477051 0.057861 0.479736 0.050537 0.502441 0.05835 0.479736 0.050537 0.510742 0.052979 0.509521 0.033447 0.510742 0.052979 0.479736 0.050537 0.479736 0.050537 0.474121 0.030029 0.509521 0.033447 0.486572 0.023926 0.485596 0.016846 0.514893 0.022461 0.509521 0.033447 0.486572 0.023926 0.513672 0.0271 0.509521 0.033447 0.513672 0.0271 0.533936 0.027344 0.670654 0.729736 0.66748 0.724609 0.70874 0.722656 0.691895 0.718506 0.66748 0.724609 0.668457 0.716309 0.66748 0.724609 0.691895 0.718506 0.70874 0.722656 0.676514 0.741943 0.70874 0.722656 0.733887 0.757568 0.705078 0.703125 0.655029 0.698242 0.691406 0.685791 0.691406 0.685791 0.655029 0.698242 0.693115 0.678223 0.677246 0.671143 0.641602 0.689941 0.630615 0.68042 0.677246 0.671143 0.630615 0.68042 0.630127 0.666992 0.73584 0.64624 0.677246 0.671143 0.690918 0.650635 0.677246 0.671143 0.630127 0.666992 0.660889 0.663086 0.660889 0.663086 0.630127 0.666992 0.675537 0.637451 0.744873 0.224365 0.807373 0.193604 0.787598 0.243164 0.697754 0.172363 0.745605 0.192383 0.725098 0.199707 0.725098 0.199707 0.745605 0.192383 0.744873 0.224365 0.725098 0.199707 0.744873 0.224365 0.722656 0.213623 0.722656 0.213623 0.725098 0.199707 0.721436 0.203125 0.722656 0.213623 0.713135 0.222412 0.721436 0.203125 0.675049 0.779541 0.676514 0.741943 0.72168 0.779541 0.675049 0.779541 0.72168 0.779541 0.70166 0.801514 0.645508 0.815918 0.675049 0.779541 0.70166 0.801514 0.645508 0.815918 0.687256 0.832275 0.662842 0.859619 0.352539 0.278076 0.355225 0.283203 0.347168 0.279053 0.352539 0.278076 0.347168 0.279053 0.349365 0.270264 0.322266 0.313477 0.355225 0.283203 0.327393 0.317627 0.306641 0.403564 0.301758 0.392578 0.313965 0.361572 0.313965 0.361572 0.301758 0.392578 0.306152 0.360596 0.298828 0.33667 0.306152 0.360596 0.290527 0.366455 0.300293 0.317871 0.282715 0.316406 0.302246 0.300537 0.300293 0.317871 0.302246 0.300537 0.305664 0.310303 0.302246 0.300537 0.282715 0.316406 0.304688 0.291992 0.317139 0.297607 0.304688 0.291992 0.312744 0.280762 0.304688 0.291992 0.282715 0.316406 0.257568 0.320068 0.312744 0.280762 0.300781 0.287109 0.241943 0.241211 0.341797 0.435059 0.283936 0.432617 0.277344 0.425537 0.317871 0.426514 0.277344 0.425537 0.328857 0.420654 0.276855 0.418945 0.277344 0.425537 0.24585 0.432861 0.288086 0.413086 0.276855 0.418945 0.262451 0.411621 0.262451 0.411621 0.276855 0.418945 0.241455 0.422363 0.241455 0.422363 0.276855 0.418945 0.24585 0.432861 0.288086 0.413086 0.262451 0.411621 0.236816 0.367432 0.193115 0.411133 0.236816 0.367432 0.234863 0.40918 0.2146 0.357666 0.193115 0.411133 0.154541 0.414063 0.154541 0.414063 0.193115 0.411133 0.165039 0.422607 0.193115 0.411133 0.234863 0.40918 0.19458 0.417969 0.193115 0.411133 0.19458 0.417969 0.165039 0.422607 0.165039 0.422607 0.19458 0.417969 0.190186 0.427734 0.190186 0.427734 0.241455 0.422363 0.209717 0.442139 0.209717 0.442139 0.241455 0.422363 0.24585 0.432861 0.209717 0.442139 0.228516 0.444824 0.202393 0.447266 0.224365 0.47583 0.221191 0.450684 0.236816 0.451416 0.236816 0.451416 0.221191 0.450684 0.228516 0.444824 0.224365 0.47583 0.236816 0.451416 0.234375 0.467529 0.228516 0.444824 0.246094 0.44458 0.236816 0.451416 0.125488 0.902588 0.194336 0.959473 0.153809 0.966553 0.84668 0.14624 0.894775 0.152588 0.913086 0.216064 0.84668 0.14624 0.913086 0.216064 0.831055 0.165039 0.099121 0.791504 0.122314 0.781738 0.087158 0.833496 0.105957 0.678955 0.095459 0.788574 0.07373 0.768311 0.603271 0.935791 0.570557 0.932861 0.639648 0.921875 0.62793 0.936523 0.632813 0.929443 0.638916 0.933838 0.638916 0.933838 0.632813 0.929443 0.653076 0.923828 0.641357 0.964844 0.62793 0.936523 0.638916 0.933838 0.659424 0.976074 0.641357 0.964844 0.638916 0.933838 0.64917 0.933838 0.653076 0.923828 0.684082 0.960205 0.684082 0.960205 0.653076 0.923828 0.658936 0.920898 0.65918 0.914795 0.653076 0.923828 0.654541 0.914063 0.91333 0.263428 0.867432 0.273926 0.878174 0.282959 0.878174 0.282959 0.867432 0.273926 0.888184 0.29541 0.91333 0.263428 0.867432 0.273926 0.875488 0.266846 0.819336 0.273438 0.799072 0.246582 0.736572 0.259766 0.565186 0.176758 0.602539 0.172852 0.599121 0.162598 0.599121 0.162598 0.565186 0.176758 0.56665 0.157471 0.569092 0.132568 0.561035 0.140869 0.561768 0.113281 0.612549 0.17041 0.614258 0.156006 0.637695 0.177246 0.637695 0.177246 0.614258 0.156006 0.640381 0.155762 0.569092 0.132568 0.561768 0.113281 0.572021 0.106201 0.572021 0.106201 0.561768 0.113281 0.558838 0.092285 0.636963 0.143066 0.608154 0.122559 0.638428 0.11499 0.599609 0.119629 0.599121 0.142578 0.569092 0.132568 0.599609 0.119629 0.569092 0.132568 0.572021 0.106201 0.638428 0.11499 0.608154 0.122559 0.609619 0.102539 0.609619 0.102539 0.608154 0.122559 0.599609 0.119629 0.638428 0.11499 0.609619 0.102539 0.639648 0.093262 0.604248 0.078369 0.60083 0.102295 0.569336 0.082031 0.604248 0.078369 0.569336 0.082031 0.574951 0.057373 0.092285 0.230713 0.069092 0.257324 0.060303 0.256592 0.060303 0.256592 0.069092 0.257324 0.05835 0.292969 0.05835 0.292969 0.069092 0.257324 0.068604 0.309326 0.398926 0.923584 0.392334 0.911377 0.406494 0.906494 0.398926 0.928467 0.388184 0.913086 0.398926 0.923584 0.4104 0.962646 0.407715 0.957275 0.411377 0.922119 0.411377 0.922119 0.416504 0.916748 0.414795 0.939209 0.380127 0.989014 0.409424 0.967041 0.412598 0.970459 0.392578 0.986084 0.411865 0.973145 0.399902 0.984619 0.425293 0.975098 0.421631 0.971924 0.469727 0.973389 0.421631 0.971924 0.421387 0.966797 0.425781 0.963379 0.469727 0.973389 0.421631 0.971924 0.465576 0.968018 0.469727 0.973389 0.465576 0.968018 0.491455 0.969238 0.491699 0.964844 0.491455 0.969238 0.465576 0.968018 0.497559 0.970215 0.491699 0.964844 0.535156 0.978271 0.535156 0.978271 0.491699 0.964844 0.510986 0.969482 0.539307 0.967529 0.495605 0.961426 0.5 0.958984 0.492188 0.908936 0.47583 0.92041 0.474121 0.909912 0.463867 0.92627 0.465332 0.921875 0.473877 0.932129 0.473877 0.932129 0.476807 0.945801 0.463867 0.92627 0.429932 0.904541 0.454346 0.925537 0.424561 0.911621 0.454346 0.925537 0.475586 0.954346 0.452881 0.940186 0.454346 0.925537 0.452881 0.940186 0.438477 0.926514 0.468262 0.958984 0.475586 0.954346 0.465576 0.968018 0.438477 0.926514 0.452881 0.940186 0.438721 0.931885 0.464111 0.959717 0.465576 0.963379 0.425781 0.963379 0.428467 0.926025 0.427246 0.919434 0.438721 0.931885 0.428223 0.959717 0.464111 0.959717 0.425781 0.963379 0.438721 0.931885 0.428223 0.959717 0.428467 0.926025 0.427246 0.919434 0.428467 0.926025 0.422852 0.944824 0.422852 0.944824 0.428467 0.926025 0.428223 0.959717 0.427246 0.919434 0.422852 0.944824 0.419678 0.932617 0.292236 0.032471 0.309326 0.029297 0.285645 0.03833 0.307373 0.034424 0.285645 0.03833 0.309326 0.029297 0.307373 0.034424 0.309326 0.029297 0.313477 0.041992 0.307373 0.034424 0.313477 0.041992 0.310791 0.043945 0.31543 0.014648 0.309326 0.029297 0.292236 0.032471 0.31543 0.014648 0.342285 0.00415 0.311768 0.030029 0.311768 0.030029 0.342285 0.00415 0.329834 0.029297 0.015137 0.285645 0.037109 0.263428 0.035156 0.324463 0.922119 0.472168 0.957764 0.546631 0.928223 0.498047 0.928223 0.498047 0.957764 0.546631 0.919678 0.530762 0.93335 0.696289 0.916504 0.72583 0.907715 0.680176 0.93335 0.696289 0.907715 0.680176 0.935547 0.657715 0.93335 0.696289 0.935547 0.657715 0.937988 0.693848 0.937988 0.693848 0.935547 0.657715 0.945068 0.652588 0.976318 0.690186 0.9729 0.644531 0.979492 0.646973 0.976318 0.690186 0.952637 0.698975 0.979736 0.694336 0.952637 0.698975 0.979736 0.694336 0.984131 0.749023 0.176025 0.191162 0.172607 0.146484 0.188721 0.156982 0.196045 0.190674 0.200928 0.186279 0.201904 0.211426 0.201904 0.211426 0.200928 0.186279 0.208984 0.180664 0.201904 0.211426 0.208984 0.180664 0.211182 0.233643 0.211182 0.233643 0.208984 0.180664 0.234863 0.182129 0.211182 0.233643 0.234863 0.182129 0.231689 0.223389 0.243164 0.233643 0.245361 0.164551 0.256104 0.19043 0.256104 0.19043 0.245361 0.164551 0.262451 0.131836 0.256104 0.19043 0.262451 0.131836 0.270508 0.156738 0.269043 0.209473 0.291504 0.210693 0.303711 0.221924 0.893799 0.336182 0.871582 0.318359 0.876221 0.312744 0.906494 0.363037 0.88623 0.342285 0.893799 0.336182 0.909424 0.365723 0.906494 0.363037 0.923096 0.368896 0.919922 0.348389 0.893799 0.336182 0.886719 0.301758 0.907715 0.384033 0.923096 0.368896 0.937256 0.371338 0.937256 0.371338 0.923096 0.368896 0.919922 0.348389 0.919922 0.348389 0.886719 0.301758 0.908691 0.324219 0.925537 0.342285 0.911865 0.318115 0.933105 0.322998 0.933105 0.322998 0.935303 0.304199 0.937256 0.325928 0.937256 0.325928 0.935303 0.304199 0.946045 0.300537 0.937256 0.325928 0.946045 0.300537 0.952881 0.325439 0.953613 0.298584 0.963379 0.281738 0.959229 0.298096 0.959229 0.298096 0.963379 0.281738 0.974365 0.305176 0.953613 0.298584 0.958496 0.31665 0.952881 0.325439 0.958496 0.31665 0.974365 0.305176 0.979736 0.335693 0.940674 0.369873 0.960693 0.341797 0.945068 0.371094 0.935059 0.380371 0.937256 0.371338 0.948975 0.400391 0.265869 0.614746 0.261719 0.661621 0.238281 0.609863 0.250977 0.705811 0.247803 0.666504 0.213623 0.702393 0.250977 0.705811 0.247559 0.738281 0.213623 0.702393 0.172119 0.062988 0.163574 0.049316 0.185791 0.056396 0.794678 0.025635 0.799072 0.047119 0.79248 0.046875 0.491943 0.189697 0.410889 0.141602 0.52832 0.162842 0.52832 0.162842 0.410889 0.141602 0.474365 0.126221 0.474365 0.126221 0.410889 0.141602 0.410645 0.119629 0.474365 0.126221 0.410645 0.119629 0.46582 0.104248 0.81543 0.349609 0.819336 0.370361 0.814453 0.362061 0.807617 0.341797 0.81543 0.349609 0.803955 0.346436 0.803955 0.346436 0.81543 0.349609 0.814453 0.362061 0.785889 0.351563 0.786621 0.341553 0.773926 0.346191 0.824951 0.033447 0.866211 0 0.869629 0.007813 0.824951 0.033447 0.869629 0.007813 0.834473 0.037354 0.392822 0.044434 0.399658 0.005371 0.445557 0.018799 0.076172 0.899414 0.074707 0.890137 0.084229 0.880615 0.076172 0.899414 0.087158 0.880371 0.085449 0.915039 0.76709 0.08374 0.781494 0.116699 0.753174 0.085693 0.753174 0.085693 0.781494 0.116699 0.778809 0.123779 0.737305 0.081787 0.778809 0.123779 0.745605 0.093018 0.745605 0.093018 0.778809 0.123779 0.769531 0.148682 0.126221 0.400879 0.130127 0.399414 0.127197 0.421387 0.119141 0.379395 0.126221 0.400879 0.109863 0.378418 0.119141 0.379395 0.109863 0.378418 0.110596 0.367432 0.135498 0.357666 0.126221 0.343994 0.132568 0.34082 0.132568 0.34082 0.119141 0.328857 0.12085 0.323486 0.11499 0.332764 0.102295 0.358154 0.085449 0.343506 0.085449 0.343506 0.102295 0.358154 0.097168 0.36377 0.085449 0.343506 0.097168 0.36377 0.079834 0.356934 0.12085 0.323486 0.132568 0.34082 0.131104 0.335205 0.131104 0.335205 0.12085 0.323486 0.140869 0.312744 0.140869 0.312744 0.12085 0.323486 0.130371 0.273682 0.343262 0.962402 0.339844 0.955078 0.343994 0.952637 0.343262 0.962402 0.36499 0.957275 0.343994 0.952637 0.36499 0.957275 0.368896 0.942139 0.343994 0.952637 0.019043 0.418457 0.037109 0.45752 0.021973 0.51416 0.420654 0.82666 0.404541 0.827393 0.43335 0.803955 0.420654 0.82666 0.43335 0.803955 0.463379 0.780762 0.436523 0.796875 0.404541 0.827393 0.418213 0.804443 0.458984 0.77124 0.450684 0.77417 0.456055 0.749023 0.450684 0.77417 0.43457 0.767578 0.456055 0.749023 0.466309 0.716797 0.459229 0.733643 0.459961 0.715576 0.459229 0.733643 0.437256 0.735107 0.459961 0.715576 0.437256 0.735107 0.456055 0.749023 0.43457 0.767578 0.43457 0.767578 0.388672 0.762695 0.437256 0.735107 0.439453 0.70752 0.388672 0.762695 0.364258 0.734375 0.439453 0.70752 0.364258 0.734375 0.385986 0.696533 0.385986 0.696533 0.326172 0.699463 0.323242 0.676758 0.793457 0.907227 0.783936 0.960205 0.739258 0.956787 0.844482 0.872314 0.821777 0.87085 0.844971 0.86377 0.844482 0.872314 0.844971 0.86377 0.866943 0.858643 0.844482 0.872314 0.869873 0.864014 0.862061 0.879883 0.824463 0.882324 0.862061 0.879883 0.830322 0.904541 0.799072 0.947998 0.783936 0.960205 0.810547 0.911621 0.784668 0.970459 0.799072 0.947998 0.804443 0.958984 0.831787 0.913086 0.830322 0.904541 0.845703 0.907715 0.831787 0.913086 0.845703 0.907715 0.835693 0.915771 0.851807 0.900391 0.830322 0.904541 0.862061 0.879883 0.845703 0.907715 0.858154 0.907959 0.835693 0.915771 0.835693 0.915771 0.858154 0.907959 0.858154 0.935547 0.875977 0.948486 0.879639 0.908691 0.894531 0.931641 0.875977 0.948486 0.894531 0.931641 0.89624 0.975098 0.133789 0.825684 0.131348 0.816406 0.137451 0.821289 0.160156 0.832764 0.153564 0.840576 0.174561 0.823486 0.151855 0.785156 0.153809 0.804932 0.143066 0.794922 0.174561 0.823486 0.151855 0.785156 0.251465 0.805908 0.705322 0.954102 0.705322 0.883057 0.734863 0.92334 0.84375 0.475098 0.764648 0.518555 0.772217 0.481934 0.781982 0.460205 0.772217 0.481934 0.729492 0.455566 0.781982 0.460205 0.729492 0.455566 0.772461 0.423096 0.781982 0.460205 0.772461 0.423096 0.787598 0.442139 0.821045 0.45874 0.78833 0.457764 0.864258 0.433105 0.821045 0.45874 0.864258 0.433105 0.867432 0.436279 0.867432 0.436279 0.864258 0.433105 0.89502 0.387939 0.864258 0.433105 0.787598 0.442139 0.826172 0.414063 0.431885 0.468506 0.428955 0.462891 0.43457 0.456299 0.431885 0.468506 0.43457 0.456299 0.440186 0.459961 0.450195 0.446045 0.447266 0.443604 0.467773 0.442627 0.467773 0.442627 0.447266 0.443604 0.443359 0.434814 0.467773 0.442627 0.443359 0.434814 0.468506 0.435059 0.44043 0.439453 0.43335 0.448242 0.439697 0.431396 0.439697 0.431396 0.43335 0.448242 0.408203 0.44165 0.468506 0.435059 0.443359 0.434814 0.459229 0.428955 0.459229 0.428955 0.443359 0.434814 0.439697 0.431396 0.459229 0.428955 0.439453 0.418945 0.456543 0.402832 0.459229 0.428955 0.456543 0.402832 0.484619 0.408936 0.439941 0.408936 0.43042 0.394287 0.442383 0.397461 0.442383 0.397461 0.435547 0.392822 0.45166 0.39209 0.45166 0.39209 0.435547 0.392822 0.433594 0.387207 0.456543 0.402832 0.459229 0.398682 0.484619 0.408936 0.459229 0.398682 0.442383 0.397461 0.45166 0.39209 0.433594 0.387207 0.438477 0.372803 0.45166 0.39209 0.484619 0.408936 0.459229 0.398682 0.483398 0.403076 0.459229 0.398682 0.45166 0.39209 0.471924 0.394287 0.459229 0.398682 0.471924 0.394287 0.483398 0.403076 0.497314 0.402832 0.495361 0.395508 0.512451 0.397461 0.512451 0.397461 0.495361 0.395508 0.514648 0.383057 0.495361 0.395508 0.484863 0.377686 0.514648 0.383057 0.484863 0.377686 0.471924 0.394287 0.45166 0.39209 0.514648 0.383057 0.484863 0.377686 0.506104 0.373291 0.514648 0.383057 0.506104 0.373291 0.53125 0.375244 0.484863 0.377686 0.45166 0.39209 0.461182 0.375977 0.506104 0.373291 0.484863 0.377686 0.478271 0.370605 0.478271 0.370605 0.484863 0.377686 0.461182 0.375977 0.461182 0.375977 0.448486 0.367676 0.478271 0.370605 0.494141 0.359375 0.49292 0.365723 0.467529 0.364502 0.508789 0.366943 0.494141 0.359375 0.524414 0.356201 0.524414 0.356201 0.494141 0.359375 0.496094 0.345215 0.442139 0.359863 0.444824 0.35498 0.467529 0.364502 0.444824 0.35498 0.428955 0.338135 0.465332 0.343994 0.472412 0.359619 0.467529 0.364502 0.444824 0.35498 0.472412 0.359619 0.444824 0.35498 0.465332 0.343994 0.682617 0.09375 0.665039 0.07959 0.691406 0.071533 0.729736 0.034912 0.74292 0.051758 0.717285 0.059814 0.729736 0.034912 0.717285 0.059814 0.715332 0.037109 0.717285 0.059814 0.74292 0.051758 0.740479 0.064453 0.993408 0.185791 0.996582 0.148193 0.997803 0.19043 0.204102 0.961914 0.266357 0.97998 0.154053 1 0.154053 1 0.266357 0.97998 0.266846 0.986084 0.274414 0.991699 0.301025 0.950439 0.297852 0.96875 0.274414 0.991699 0.297852 0.96875 0.316162 0.98877 0.106445 0.667969 0.062012 0.711914 0.062988 0.651855 0.106445 0.667969 0.072021 0.613281 0.130371 0.612305 0.973145 0.021729 0.977051 0.034668 0.965332 0.038086 0.973145 0.021729 0.965332 0.038086 0.961426 0.026611 0.954102 0.025391 0.961426 0.026611 0.965332 0.038086 0.965332 0.038086 0.977783 0.045898 0.962646 0.04834 0.965332 0.038086 0.962646 0.04834 0.954102 0.025391 0.954102 0.025391 0.951904 0.042969 0.949463 0.032715 0.322021 0.124023 0.27417 0.114258 0.314453 0.079834 0.318848 0.138916 0.322021 0.124023 0.325928 0.132324 0.318848 0.138916 0.337158 0.138184 0.34375 0.151855 0.369873 0.162598 0.369629 0.143799 0.374512 0.152832 0.369873 0.162598 0.374512 0.152832 0.376221 0.185303 0.364502 0.111084 0.322021 0.124023 0.314453 0.079834 0.364502 0.111084 0.366455 0.088379 0.422852 0.07666 0.002686 0.772461 0.085449 0.857178 0 0.845703 0.899658 0.910156 0.905762 0.884521 0.906494 0.906006 0.906494 0.906006 0.905762 0.884521 0.912598 0.892578 0.899658 0.910156 0.909424 0.955566 0.904297 0.95752 0.909424 0.955566 0.913574 0.955566 0.896484 0.990967 0.449219 0.869629 0.3396 0.911377 0.442627 0.868652 0.949951 0.202148 0.970703 0.200928 0.966553 0.247314 0.949951 0.202148 0.966553 0.247314 0.947998 0.253906 0.036865 0.545166 0.043213 0.553711 0.034912 0.591797 0.036865 0.545166 0.034912 0.591797 0.026123 0.521484 0.061035 0.04834 0.126465 0.028809 0.098389 0.060791 0.059082 0.406494 0.075439 0.362793 0.106445 0.395752 0.059082 0.406494 0.106445 0.395752 0.09375 0.42749 0.028809 0.423828 0.059082 0.406494 0.065674 0.426025 0.797363 0.648926 0.798584 0.677002 0.784424 0.659912 0.787109 0.634033 0.784424 0.659912 0.782715 0.638184 0.777344 0.624268 0.779785 0.675781 0.76709 0.681396 0.777344 0.624268 0.76709 0.681396 0.772949 0.626221 0.779785 0.675781 0.798584 0.677002 0.801025 0.682617 0.779785 0.675781 0.801025 0.682617 0.782715 0.687012 0.779785 0.675781 0.782715 0.687012 0.76709 0.681396 0.772949 0.626221 0.76709 0.681396 0.76709 0.641357 0.76709 0.641357 0.76709 0.681396 0.758789 0.672119 0.762695 0.686768 0.76709 0.681396 0.782715 0.687012 0.808838 0.701172 0.812012 0.697021 0.832764 0.707031 0.785889 0.694336 0.812744 0.733887 0.769287 0.729736 0.812744 0.733887 0.808838 0.701172 0.832764 0.707031 0.812744 0.733887 0.835938 0.744141 0.811523 0.741211 0.812744 0.733887 0.793457 0.73877 0.769287 0.729736 0.811523 0.741211 0.835938 0.744141 0.797363 0.748291 0.751709 0.733643 0.768555 0.742676 0.751709 0.73999 0.751709 0.73999 0.768555 0.742676 0.772705 0.765625 0.772705 0.765625 0.797363 0.748291 0.809814 0.772705 0.781006 0.774902 0.772705 0.765625 0.809814 0.772705 0.809814 0.772705 0.797363 0.748291 0.831543 0.752686 0.831543 0.752686 0.797363 0.748291 0.835938 0.744141 0.809814 0.772705 0.831543 0.752686 0.845947 0.776367 0.866211 0.777588 0.875244 0.785645 0.830566 0.782471 0.897217 0.779053 0.885498 0.777588 0.915039 0.758301 0.830566 0.782471 0.859131 0.789551 0.827881 0.789063 0.859131 0.789551 0.866943 0.795654 0.833496 0.797363 0.859131 0.789551 0.833496 0.797363 0.827881 0.789063 0.866943 0.795654 0.86499 0.808594 0.833496 0.797363 0.86499 0.808594 0.897217 0.779053 0.910889 0.831055 0.778564 0.781982 0.804443 0.793213 0.77002 0.786621 0.740479 0.801758 0.77002 0.786621 0.776611 0.806396 0.776611 0.806396 0.77002 0.786621 0.804443 0.793213 0.776611 0.806396 0.804443 0.793213 0.833008 0.814941 0.783203 0.8479 0.831055 0.857178 0.764648 0.896973 0.783203 0.8479 0.764648 0.896973 0.697266 0.874268 0.15332 0.069336 0.137939 0.099854 0.186035 0.075928 0.000244 0.645752 0.004639 0.644531 0.002686 0.727295 0.47583 0.48999 0.505127 0.451904 0.53125 0.460938 0.516113 0.50708 0.53125 0.460938 0.557861 0.471436 0.516113 0.50708 0.557861 0.471436 0.580078 0.489258 0.580078 0.489258 0.574951 0.464355 0.584717 0.476563 0.516113 0.50708 0.557373 0.522461 0.553467 0.549072 0.585693 0.494873 0.584717 0.476563 0.591797 0.493896 0.564453 0.54541 0.582764 0.521973 0.587158 0.546631 0.559814 0.560791 0.585938 0.557617 0.54834 0.573975 0.591553 0.541504 0.588135 0.535645 0.595215 0.528076 0.595215 0.528076 0.588135 0.535645 0.588867 0.520752 0.612793 0.511475 0.591797 0.493896 0.609619 0.480225 0.612793 0.511475 0.609619 0.480225 0.620605 0.505615 0.620605 0.505615 0.609619 0.480225 0.619141 0.472168 0.598633 0.562012 0.592529 0.558105 0.597656 0.546143 0.598633 0.562012 0.597656 0.546143 0.618408 0.563721 0.616943 0.57959 0.598633 0.562012 0.618408 0.563721 0.618408 0.563721 0.622559 0.531006 0.623535 0.565674 0.615234 0.601807 0.628174 0.56958 0.626221 0.605225 0.626221 0.605225 0.628174 0.56958 0.640381 0.575439 0.631836 0.556885 0.623535 0.565674 0.622559 0.531006 0.640381 0.575439 0.660156 0.561279 0.690186 0.618408 0.640137 0.559082 0.631836 0.556885 0.637451 0.537842 0.637451 0.537842 0.631836 0.556885 0.628906 0.525635 0.640137 0.559082 0.637451 0.537842 0.656982 0.53418 0.626221 0.489746 0.625488 0.470703 0.633301 0.480713 0.626953 0.508057 0.633057 0.503174 0.634521 0.519043 0.634521 0.519043 0.633057 0.503174 0.651611 0.500977 0.634521 0.519043 0.651611 0.500977 0.656982 0.53418 0.713379 0.474365 0.653564 0.478027 0.664795 0.448486 0.688477 0.490479 0.713379 0.474365 0.720459 0.531494 0.687744 0.542969 0.686279 0.519043 0.720459 0.531494 0.687744 0.542969 0.720459 0.531494 0.717529 0.541992 0.999756 0.681152 0.999756 0.753906 0.995361 0.753174</float_array>
          <technique_common>
            <accessor source="#SomeonesNewShield-mesh-map-0-array" count="1494" stride="2">
              <param name="S" type="float"/>
              <param name="T" type="float"/>
            </accessor>
          </technique_common>
        </source>
        <vertices id="SomeonesNewShield-mesh-vertices">
          <input semantic="POSITION" source="#SomeonesNewShield-mesh-positions"/>
        </vertices>
        <polylist material="Material_-1-material" count="6">
          <input semantic="VERTEX" source="#SomeonesNewShield-mesh-vertices" offset="0"/>
          <input semantic="NORMAL" source="#SomeonesNewShield-mesh-normals" offset="1"/>
          <input semantic="TEXCOORD" source="#SomeonesNewShield-mesh-map-0" offset="2" set="0"/>
          <vcount>3 3 3 3 3 3 3 3 3 3 3 3 3 3 3 3 3 3 3 3 3 3 3 3 3 3 3 3 3 3 3 3 3 3 3 3 3 3 3 3 3 3 3 3 3 3 3 3 3 3 3 3 3 3 3 3 3 3 3 3 3 3 3 3 3 3 3 3 3 3 3 3 3 3 3 3 3 3 3 3 3 3 3 3 3 3 3 3 3 3 3 3 3 3 3 3 3 3 3 3 3 3 3 3 3 3 3 3 3 3 3 3 3 3 3 3 3 3 3 3 3 3 3 3 3 3 3 3 3 3 3 3 3 3 3 3 3 3 3 3 3 3 3 3 3 3 3 3 3 3 3 3 3 3 3 3 3 3 3 3 3 3 3 3 3 3 3 3 3 3 3 3 3 3 3 3 3 3 3 3 3 3 3 3 3 3 3 3 3 3 3 3 3 3 3 3 3 3 3 3 3 3 3 3 3 3 3 3 3 3 3 3 3 3 3 3 3 3 3 3 3 3 3 3 3 3 3 3 3 3 3 3 3 3 3 3 3 3 3 3 3 3 3 3 3 3 3 3 3 3 3 3 3 3 3 3 3 3 3 3 3 3 3 3 3 3 3 3 3 3 3 3 3 3 3 3 3 3 3 3 3 3 3 3 3 3 3 3 3 3 3 3 3 3 3 3 3 3 3 3 3 3 3 3 3 3 3 3 3 3 3 3 3 3 3 3 3 3 3 3 3 3 3 3 3 3 3 3 3 3 3 3 3 3 3 3 3 3 3 3 3 3 3 3 3 3 3 3 3 3 3 3 3 3 3 3 3 3 3 3 3 3 3 3 3 3 3 3 3 3 3 3 3 3 3 3 3 3 3 3 3 3 3 3 3 3 3 3 3 3 3 3 3 3 3 3 3 3 3 3 3 3 3 3 3 3 3 3 3 3 3 3 3 3 3 3 3 3 3 3 3 3 3 3 3 3 3 3 3 3 3 3 3 3 3 3 3 3 3 3 3 3 3 3 3 3 3 3 3 3 3 3 3 3 3 3 3 3 3 3 3 3 3 3 3 3 3 3 3 3 3 3 3 3 3 3 3 3 3 3 3 3 3 3 3 3 3 3 3 3 3 3 3 3 3 3 3 3</vcount>
          <p>0 0 0 1 0 1 2 0 2 2 1 3 1 1 4 3 1 5 0 2 6 2 2 7 4 2 8 0 3 9 4 3 10 5 3 11 6 4 12 5 4 13 7 4 14 8 5 15 3 5 16 9 5 17 10 6 18 7 6 19 11 6 20 6 7 21 0 7 22 5 7 23 3 8 24 1 8 25 9 8 26 1 9 27 0 9 28 12 9 29 12 10 30 0 10 31 6 10 32 13 11 33 6 11 34 7 11 35 7 12 36 10 12 37 13 12 38 6 13 39 13 13 40 14 13 41 6 14 42 14 14 43 12 14 44 10 15 45 15 15 46 16 15 47 12 16 48 14 16 49 17 16 50 12 17 51 17 17 52 1 17 53 15 18 54 10 18 55 11 18 56 15 19 57 18 19 58 16 19 59 16 20 60 18 20 61 19 20 62 10 21 63 16 21 64 20 21 65 4 22 66 2 22 67 21 22 68 21 23 69 2 23 70 22 23 71 22 24 72 2 24 73 3 24 74 22 25 75 3 25 76 23 25 77 23 26 78 3 26 79 8 26 80 21 27 81 22 27 82 24 27 83 21 28 84 24 28 85 25 28 86 4 29 87 21 29 88 26 29 89 26 30 90 21 30 91 25 30 92 4 31 93 26 31 94 27 31 95 27 32 96 26 32 97 28 32 98 4 33 99 27 33 100 5 33 101 26 34 102 25 34 103 28 34 104 28 35 105 25 35 106 29 35 107 27 36 108 28 36 109 30 36 110 30 37 111 28 37 112 31 37 113 32 38 114 5 38 115 27 38 116 5 39 117 32 39 118 7 39 119 27 40 120 30 40 121 33 40 122 27 41 123 33 41 124 32 41 125 7 42 126 32 42 127 11 42 128 11 43 129 32 43 130 33 43 131 11 44 132 33 44 133 34 44 134 11 45 135 34 45 136 15 45 137 15 46 138 34 46 139 35 46 140 33 47 141 30 47 142 31 47 143 34 48 144 33 48 145 36 48 146 36 49 147 33 49 148 31 49 149 18 50 150 15 50 151 37 50 152 18 51 153 38 51 154 19 51 155 24 52 156 22 52 157 39 52 158 29 53 159 31 53 160 28 53 161 31 54 162 29 54 163 40 54 164 36 55 165 31 55 166 40 55 167 36 56 168 41 56 169 34 56 170 41 57 171 36 57 172 42 57 173 41 58 174 42 58 175 43 58 176 42 59 177 36 59 178 40 59 179 44 60 180 40 60 181 29 60 182 44 61 183 29 61 184 45 61 185 45 62 186 29 62 187 25 62 188 45 63 189 25 63 190 46 63 191 46 64 192 25 64 193 24 64 194 46 65 195 24 65 196 39 65 197 47 66 198 39 66 199 22 66 200 15 67 201 35 67 202 37 67 203 18 68 204 37 68 205 38 68 206 1 69 207 17 69 208 48 69 209 1 70 210 48 70 211 9 70 212 49 71 213 14 71 214 13 71 215 49 72 216 13 72 217 10 72 218 49 73 219 10 73 220 50 73 221 50 74 222 10 74 223 20 74 224 20 75 225 16 75 226 51 75 227 20 76 228 52 76 229 50 76 230 52 77 231 20 77 232 53 77 233 50 78 234 52 78 235 54 78 236 50 79 237 54 79 238 49 79 239 54 80 240 55 80 241 56 80 242 54 81 243 56 81 244 49 81 245 49 82 246 56 82 247 14 82 248 14 83 249 56 83 250 17 83 251 17 84 252 56 84 253 57 84 254 57 85 255 56 85 256 55 85 257 58 86 258 57 86 259 59 86 260 17 87 261 57 87 262 58 87 263 17 88 264 58 88 265 48 88 266 60 89 267 61 89 268 9 89 269 9 90 270 61 90 271 8 90 272 60 91 273 9 91 274 58 91 275 58 92 276 9 92 277 48 92 278 51 93 279 16 93 280 19 93 281 51 94 282 19 94 283 62 94 284 62 95 285 19 95 286 38 95 287 51 96 288 53 96 289 20 96 290 63 97 291 53 97 292 64 97 293 61 98 294 60 98 295 65 98 296 65 99 297 60 99 298 66 99 299 66 100 300 60 100 301 67 100 302 67 101 303 60 101 304 58 101 305 67 102 306 58 102 307 59 102 308 67 103 309 59 103 310 68 103 311 67 104 312 68 104 313 69 104 314 52 105 315 53 105 316 63 105 317 70 106 318 63 106 319 64 106 320 54 107 321 52 107 322 63 107 323 63 108 324 70 108 325 71 108 326 63 109 327 71 109 328 54 109 329 55 110 330 54 110 331 71 110 332 71 111 333 72 111 334 55 111 335 72 112 336 68 112 337 59 112 338 55 113 339 72 113 340 59 113 341 55 114 342 59 114 343 57 114 344 43 115 345 42 115 346 73 115 347 74 116 348 42 116 349 40 116 350 42 117 351 74 117 352 73 117 353 43 118 354 73 118 355 75 118 356 40 119 357 44 119 358 76 119 359 76 120 360 44 120 361 77 120 362 77 121 363 44 121 364 45 121 365 77 122 366 45 122 367 46 122 368 78 123 369 77 123 370 79 123 371 77 124 372 46 124 373 79 124 374 79 125 375 46 125 376 39 125 377 80 126 378 22 126 379 23 126 380 47 127 381 22 127 382 81 127 383 81 128 384 22 128 385 80 128 386 81 129 387 80 129 388 82 129 389 82 130 390 81 130 391 83 130 392 82 131 393 84 131 394 83 131 395 41 132 396 43 132 397 75 132 398 41 133 399 75 133 400 85 133 401 34 134 402 41 134 403 85 134 404 34 135 405 85 135 406 35 135 407 37 136 408 35 136 409 86 136 410 37 137 411 86 137 412 87 137 413 86 138 414 35 138 415 85 138 416 75 139 417 88 139 418 85 139 419 85 140 420 88 140 421 86 140 422 89 141 423 86 141 424 90 141 425 91 142 426 92 142 427 93 142 428 91 143 429 93 143 430 89 143 431 93 144 432 92 144 433 89 144 434 86 145 435 89 145 436 87 145 437 89 146 438 92 146 439 94 146 440 87 147 441 89 147 442 94 147 443 38 148 444 37 148 445 87 148 446 38 149 447 87 149 448 62 149 449 62 150 450 87 150 451 95 150 452 51 151 453 62 151 454 96 151 455 96 152 456 62 152 457 97 152 458 97 153 459 62 153 460 95 153 461 51 154 462 96 154 463 53 154 464 98 155 465 53 155 466 96 155 467 53 156 468 98 156 469 99 156 470 99 157 471 98 157 472 100 157 473 98 158 474 96 158 475 97 158 476 98 159 477 97 159 478 100 159 479 100 160 480 97 160 481 101 160 482 101 161 483 97 161 484 102 161 485 102 162 486 97 162 487 95 162 488 102 163 489 95 163 490 103 163 491 104 164 492 103 164 493 105 164 494 105 165 495 103 165 496 95 165 497 104 166 498 105 166 499 87 166 500 95 167 501 87 167 502 105 167 503 80 168 504 23 168 505 8 168 506 106 169 507 79 169 508 39 169 509 106 170 510 39 170 511 47 170 512 76 171 513 107 171 514 40 171 515 76 172 516 77 172 517 78 172 518 74 173 519 40 173 520 107 173 521 73 174 522 74 174 523 108 174 524 108 175 525 74 175 526 107 175 527 75 176 528 73 176 529 108 176 530 88 177 531 75 177 532 108 177 533 108 178 534 107 178 535 88 178 536 88 179 537 107 179 538 109 179 539 109 180 540 107 180 541 110 180 542 83 181 543 111 181 544 84 181 545 84 182 546 111 182 547 112 182 548 83 183 549 111 183 550 81 183 551 111 184 552 81 184 553 113 184 554 112 185 555 111 185 556 114 185 557 114 186 558 112 186 559 115 186 560 115 187 561 116 187 562 117 187 563 111 188 564 114 188 565 118 188 566 118 189 567 114 189 568 116 189 569 115 190 570 117 190 571 119 190 572 119 191 573 117 191 574 120 191 575 116 192 576 114 192 577 117 192 578 121 193 579 114 193 580 115 193 581 121 194 582 115 194 583 119 194 584 117 195 585 114 195 586 122 195 587 122 196 588 114 196 589 121 196 590 117 197 591 122 197 592 120 197 593 122 198 594 121 198 595 119 198 596 122 199 597 119 199 598 123 199 599 109 200 600 124 200 601 88 200 602 88 201 603 124 201 604 125 201 605 125 202 606 124 202 607 126 202 608 90 203 609 86 203 610 88 203 611 91 204 612 89 204 613 90 204 614 94 205 615 92 205 616 91 205 617 91 206 618 90 206 619 94 206 620 87 207 621 94 207 622 127 207 623 87 208 624 127 208 625 104 208 626 128 209 627 127 209 628 129 209 629 127 210 630 94 210 631 130 210 632 129 211 633 127 211 634 130 211 635 129 212 636 130 212 637 131 212 638 132 213 639 131 213 640 130 213 641 131 214 642 132 214 643 133 214 644 133 215 645 132 215 646 134 215 647 134 216 648 132 216 649 135 216 650 136 217 651 126 217 652 124 217 653 125 218 654 126 218 655 135 218 656 135 219 657 132 219 658 125 219 659 88 220 660 125 220 661 90 220 662 125 221 663 132 221 664 137 221 665 125 222 666 137 222 667 90 222 668 137 223 669 132 223 670 130 223 671 90 224 672 137 224 673 138 224 674 138 225 675 137 225 676 130 225 677 139 226 678 90 226 679 138 226 680 140 227 681 138 227 682 130 227 683 138 228 684 140 228 685 139 228 686 90 229 687 139 229 688 130 229 689 130 230 690 139 230 691 140 230 692 90 231 693 130 231 694 94 231 695 82 232 696 118 232 697 84 232 698 112 233 699 84 233 700 118 233 701 112 234 702 118 234 703 116 234 704 112 235 705 116 235 706 115 235 707 80 236 708 118 236 709 82 236 710 80 237 711 141 237 712 118 237 713 118 238 714 141 238 715 111 238 716 80 239 717 8 239 718 141 239 719 8 240 720 142 240 721 141 240 722 141 241 723 142 241 724 143 241 725 65 242 726 66 242 727 144 242 728 65 243 729 144 243 730 145 243 731 65 244 732 145 244 733 146 244 734 146 245 735 145 245 736 147 245 737 146 246 738 147 246 739 148 246 740 146 247 741 65 247 742 148 247 743 65 248 744 148 248 745 61 248 746 53 249 747 99 249 748 64 249 749 64 250 750 149 250 751 70 250 752 70 251 753 149 251 754 150 251 755 70 252 756 150 252 757 71 252 758 71 253 759 150 253 760 151 253 761 71 254 762 151 254 763 72 254 764 72 255 765 151 255 766 68 255 767 68 256 768 151 256 769 152 256 770 68 257 771 152 257 772 69 257 773 69 258 774 66 258 775 67 258 776 101 259 777 104 259 778 127 259 779 103 260 780 104 260 781 101 260 782 102 261 783 103 261 784 101 261 785 153 262 786 101 262 787 127 262 788 100 263 789 101 263 790 154 263 791 154 264 792 101 264 793 153 264 794 153 265 795 127 265 796 128 265 797 153 266 798 128 266 799 155 266 800 155 267 801 129 267 802 153 267 803 153 268 804 129 268 805 156 268 806 153 269 807 156 269 808 154 269 809 156 270 810 157 270 811 158 270 812 158 271 813 157 271 814 159 271 815 156 272 816 158 272 817 154 272 818 158 273 819 159 273 820 160 273 821 154 274 822 158 274 823 160 274 824 100 275 825 154 275 826 161 275 827 8 276 828 61 276 829 142 276 830 148 277 831 61 277 832 145 277 833 148 278 834 147 278 835 145 278 836 162 279 837 163 279 838 164 279 839 162 280 840 164 280 841 163 280 842 144 281 843 66 281 844 165 281 845 165 282 846 66 282 847 166 282 848 166 283 849 66 283 850 69 283 851 166 284 852 69 284 853 152 284 854 64 285 855 99 285 856 100 285 857 149 286 858 64 286 859 161 286 860 161 287 861 64 287 862 100 287 863 161 288 864 149 288 865 167 288 866 161 289 867 154 289 868 160 289 869 161 290 870 160 290 871 167 290 872 124 291 873 109 291 874 136 291 875 168 292 876 78 292 877 79 292 878 168 293 879 79 293 880 106 293 881 107 294 882 169 294 883 110 294 884 110 295 885 169 295 886 170 295 887 110 296 888 170 296 889 109 296 890 109 297 891 170 297 892 136 297 893 120 298 894 123 298 895 119 298 896 123 299 897 120 299 898 171 299 899 123 300 900 171 300 901 172 300 902 123 301 903 172 301 904 173 301 905 173 302 906 172 302 907 174 302 908 175 303 909 172 303 910 176 303 911 176 304 912 172 304 913 171 304 914 176 305 915 171 305 916 113 305 917 174 306 918 173 306 919 171 306 920 171 307 921 174 307 922 113 307 923 113 308 924 174 308 925 81 308 926 122 309 927 123 309 928 173 309 929 122 310 930 120 310 931 173 310 932 120 311 933 171 311 934 173 311 935 47 312 936 81 312 937 174 312 938 76 313 939 78 313 940 177 313 941 76 314 942 177 314 943 178 314 944 177 315 945 78 315 946 168 315 947 177 316 948 168 316 949 179 316 950 168 317 951 106 317 952 179 317 953 180 318 954 179 318 955 181 318 956 179 319 957 182 319 958 181 319 959 182 320 960 179 320 961 106 320 962 106 321 963 47 321 964 182 321 965 182 322 966 47 322 967 174 322 968 182 323 969 174 323 970 143 323 971 143 324 972 174 324 973 176 324 974 178 325 975 107 325 976 76 325 977 178 326 978 177 326 979 179 326 980 178 327 981 179 327 982 180 327 983 178 328 984 180 328 985 183 328 986 178 329 987 183 329 988 184 329 989 184 330 990 107 330 991 178 330 992 107 331 993 184 331 994 169 331 995 169 332 996 184 332 997 185 332 998 169 333 999 185 333 1000 170 333 1001 185 334 1002 184 334 1003 183 334 1004 185 335 1005 186 335 1006 170 335 1007 170 336 1008 186 336 1009 136 336 1010 136 337 1011 186 337 1012 187 337 1013 136 338 1014 187 338 1015 126 338 1016 174 339 1017 172 339 1018 175 339 1019 175 340 1020 174 340 1021 176 340 1022 141 341 1023 176 341 1024 113 341 1025 176 342 1026 141 342 1027 143 342 1028 113 343 1029 111 343 1030 141 343 1031 188 344 1032 142 344 1033 61 344 1034 188 345 1035 61 345 1036 145 345 1037 188 346 1038 145 346 1039 189 346 1040 188 347 1041 189 347 1042 190 347 1043 188 348 1044 190 348 1045 191 348 1046 188 349 1047 191 349 1048 192 349 1049 192 350 1050 191 350 1051 193 350 1052 191 351 1053 190 351 1054 194 351 1055 133 352 1056 134 352 1057 195 352 1058 133 353 1059 195 353 1060 196 353 1061 197 354 1062 196 354 1063 198 354 1064 198 355 1065 196 355 1066 195 355 1067 198 356 1068 195 356 1069 199 356 1070 195 357 1071 134 357 1072 187 357 1073 187 358 1074 134 358 1075 126 358 1076 199 359 1077 195 359 1078 200 359 1079 200 360 1080 195 360 1081 187 360 1082 200 361 1083 187 361 1084 201 361 1085 200 362 1086 201 362 1087 202 362 1088 187 363 1089 186 363 1090 201 363 1091 201 364 1092 186 364 1093 203 364 1094 203 365 1095 186 365 1096 185 365 1097 201 366 1098 204 366 1099 202 366 1100 204 367 1101 201 367 1102 203 367 1103 185 368 1104 183 368 1105 203 368 1106 202 369 1107 204 369 1108 205 369 1109 204 370 1110 203 370 1111 206 370 1112 204 371 1113 206 371 1114 205 371 1115 205 372 1116 206 372 1117 207 372 1118 207 373 1119 206 373 1120 208 373 1121 206 374 1122 209 374 1123 208 374 1124 209 375 1125 206 375 1126 203 375 1127 208 376 1128 209 376 1129 210 376 1130 208 377 1131 210 377 1132 211 377 1133 209 378 1134 203 378 1135 183 378 1136 210 379 1137 209 379 1138 212 379 1139 212 380 1140 209 380 1141 183 380 1142 183 381 1143 180 381 1144 212 381 1145 213 382 1146 210 382 1147 212 382 1148 210 383 1149 213 383 1150 214 383 1151 214 384 1152 213 384 1153 215 384 1154 180 385 1155 181 385 1156 212 385 1157 181 386 1158 182 386 1159 215 386 1160 213 387 1161 212 387 1162 181 387 1163 213 388 1164 181 388 1165 215 388 1166 216 389 1167 217 389 1168 218 389 1169 217 390 1170 216 390 1171 219 390 1172 217 391 1173 219 391 1174 220 391 1175 219 392 1176 216 392 1177 218 392 1178 155 393 1179 128 393 1180 129 393 1181 159 394 1182 157 394 1183 221 394 1184 221 395 1185 157 395 1186 131 395 1187 131 396 1188 157 396 1189 156 396 1190 131 397 1191 156 397 1192 129 397 1193 160 398 1194 159 398 1195 222 398 1196 160 399 1197 222 399 1198 167 399 1199 217 400 1200 220 400 1201 223 400 1202 217 401 1203 223 401 1204 218 401 1205 219 402 1206 218 402 1207 223 402 1208 223 403 1209 220 403 1210 224 403 1211 223 404 1212 224 404 1213 219 404 1214 219 405 1215 224 405 1216 220 405 1217 189 406 1218 145 406 1219 165 406 1220 190 407 1221 189 407 1222 225 407 1223 190 408 1224 225 408 1225 194 408 1226 194 409 1227 225 409 1228 193 409 1229 194 410 1230 193 410 1231 191 410 1232 225 411 1233 189 411 1234 165 411 1235 225 412 1236 165 412 1237 226 412 1238 144 413 1239 165 413 1240 145 413 1241 150 414 1242 149 414 1243 227 414 1244 227 415 1245 149 415 1246 167 415 1247 150 416 1248 227 416 1249 228 416 1250 227 417 1251 167 417 1252 229 417 1253 151 418 1254 230 418 1255 152 418 1256 151 419 1257 150 419 1258 228 419 1259 151 420 1260 228 420 1261 230 420 1262 166 421 1263 152 421 1264 231 421 1265 166 422 1266 231 422 1267 165 422 1268 126 423 1269 134 423 1270 135 423 1271 143 424 1272 142 424 1273 232 424 1274 143 425 1275 232 425 1276 215 425 1277 182 426 1278 143 426 1279 215 426 1280 196 427 1281 197 427 1282 233 427 1283 196 428 1284 233 428 1285 133 428 1286 133 429 1287 233 429 1288 234 429 1289 133 430 1290 234 430 1291 235 430 1292 233 431 1293 197 431 1294 198 431 1295 233 432 1296 198 432 1297 199 432 1298 233 433 1299 199 433 1300 234 433 1301 235 434 1302 234 434 1303 221 434 1304 221 435 1305 234 435 1306 236 435 1307 236 436 1308 234 436 1309 199 436 1310 236 437 1311 199 437 1312 200 437 1313 236 438 1314 202 438 1315 237 438 1316 202 439 1317 236 439 1318 200 439 1319 202 440 1320 205 440 1321 238 440 1322 202 441 1323 238 441 1324 237 441 1325 238 442 1326 205 442 1327 239 442 1328 238 443 1329 239 443 1330 240 443 1331 240 444 1332 239 444 1333 241 444 1334 241 445 1335 239 445 1336 242 445 1337 243 446 1338 241 446 1339 242 446 1340 242 447 1341 239 447 1342 207 447 1343 207 448 1344 239 448 1345 205 448 1346 242 449 1347 207 449 1348 208 449 1349 208 450 1350 211 450 1351 242 450 1352 214 451 1353 211 451 1354 210 451 1355 242 452 1356 211 452 1357 243 452 1358 211 453 1359 214 453 1360 244 453 1361 211 454 1362 244 454 1363 243 454 1364 214 455 1365 232 455 1366 244 455 1367 232 456 1368 214 456 1369 215 456 1370 243 457 1371 244 457 1372 245 457 1373 246 458 1374 245 458 1375 247 458 1376 247 459 1377 245 459 1378 244 459 1379 247 460 1380 244 460 1381 232 460 1382 247 461 1383 232 461 1384 142 461 1385 247 462 1386 142 462 1387 188 462 1388 192 463 1389 188 463 1390 193 463 1391 235 464 1392 221 464 1393 131 464 1394 159 465 1395 221 465 1396 236 465 1397 159 466 1398 236 466 1399 237 466 1400 159 467 1401 237 467 1402 248 467 1403 248 468 1404 237 468 1405 238 468 1406 159 469 1407 248 469 1408 222 469 1409 248 470 1410 238 470 1411 240 470 1412 222 471 1413 248 471 1414 229 471 1415 222 472 1416 229 472 1417 167 472 1418 227 473 1419 229 473 1420 240 473 1421 240 474 1422 229 474 1423 248 474 1424 249 475 1425 240 475 1426 241 475 1427 249 476 1428 241 476 1429 250 476 1430 250 477 1431 241 477 1432 243 477 1433 228 478 1434 227 478 1435 240 478 1436 228 479 1437 240 479 1438 249 479 1439 230 480 1440 228 480 1441 249 480 1442 249 481 1443 250 481 1444 230 481 1445 230 482 1446 251 482 1447 152 482 1448 152 483 1449 251 483 1450 231 483 1451 251 484 1452 230 484 1453 250 484 1454 231 485 1455 226 485 1456 165 485 1457 231 486 1458 251 486 1459 252 486 1460 252 487 1461 251 487 1462 250 487 1463 231 488 1464 252 488 1465 226 488 1466 250 489 1467 243 489 1468 245 489 1469 250 490 1470 245 490 1471 252 490 1472 252 491 1473 245 491 1474 246 491 1475 252 492 1476 246 492 1477 226 492 1478 188 493 1479 246 493 1480 247 493 1481 246 494 1482 188 494 1483 193 494 1484 226 495 1485 246 495 1486 193 495 1487 226 496 1488 193 496 1489 225 496 1490 131 497 1491 133 497 1492 235 497 1493</p>
        </polylist>
      </mesh>
    </geometry>
  </library_geometries>
  <library_visual_scenes>
    <visual_scene id="Scene" name="Scene">
      <node id="SomeonesNewShield" name="SomeonesNewShield" type="NODE">
        <scale sid="scale">1 1 1</scale>
        <translate sid="location">0 0 0</translate>
        <rotate sid="rotationX">1 0 0 0</rotate>
        <rotate sid="rotationY">0 1 0 90</rotate>
        <rotate sid="rotationZ">0 0 1 0</rotate>
        <instance_geometry url="#SomeonesNewShield-mesh" name="SomeonesNewShield">
          <bind_material>
            <technique_common>
            </technique_common>
          </bind_material>
        </instance_geometry>
      </node>
    </visual_scene>
  </library_visual_scenes>
  <scene>
    <instance_visual_scene url="#Scene"/>
  </scene>
</COLLADA>
