<?xml version="1.0" encoding="utf-8"?>
<COLLADA xmlns="http://www.collada.org/2005/11/COLLADASchema" version="1.4.1" xmlns:xsi="http://www.w3.org/2001/XMLSchema-instance">
  <asset>
    <contributor>
      <author>Blockbench user</author>
      <authoring_tool>Blockbench</authoring_tool>
    </contributor>
    <created>2026-01-01T04:20:13.671Z</created>
    <modified>2026-01-01T04:20:13.671Z</modified>
    <unit name="meter" meter="1.0"/>
    <up_axis>Y_UP</up_axis>
  </asset>
  <library_effects>
  </library_effects>
  <library_images>
  </library_images>
  <library_materials>
  </library_materials>
  <library_geometries>
    <geometry id="Stonefish-mesh" name="Stonefish">
      <mesh>
        <source id="Stonefish-mesh-positions">
          <float_array id="Stonefish-mesh-positions-array" count="744">-0.411865 0.106392 0.209518 -0.383484 0.235306 0.202682 -0.422089 0.149658 0.178162 -0.436462 0.110458 0.1362 -0.440247 0.156036 0.118416 -0.397583 0.190079 0.155029 -0.406128 0.118401 0.163483 -0.375305 0.150421 0.09568 -0.406647 0.238419 0.134933 -0.441254 0.150543 0.085503 -0.412506 0.192017 0.091354 -0.417908 0.09848 0.146896 -0.427582 0.060322 0.099945 -0.400543 0.080086 0.117401 -0.400269 0.04612 0.096733 -0.355774 0.054813 0.089378 -0.375427 0.112915 0.109024 -0.32901 0.0858 0.067596 -0.336487 0.121658 0.029329 -0.387665 0.161392 0.056694 -0.381256 0.27478 0.169724 -0.396271 0.200348 0.109619 0.198395 -0.155914 0.151611 0.163193 -0.170776 0.194183 0.195953 -0.193939 0.12941 0.187393 -0.182327 0.137039 0.201752 -0.164841 0.12117 0.220001 -0.166 0.116631 0.209122 -0.206528 0.112366 -0.003089 -0.165207 0.130493 0.082489 -0.137238 0.133621 0.019384 -0.067612 0.123932 0.16716 -0.101173 0.114624 0.131393 -0.179596 0.12619 0.072166 -0.224152 0.11673 0.21431 -0.150955 0.114922 0.252258 -0.153198 0.110115 0.178879 -0.216522 0.119675 0.19516 -0.261444 0.092133 0.187088 -0.178925 0.122787 -0.057755 -0.084839 0.124908 -0.134949 -0.000509 0.097618 -0.215897 -0.034107 0.095558 -0.147354 -0.103775 0.110146 -0.120209 -0.173141 0.106041 -0.200211 -0.132309 0.093864 -0.032322 -0.228317 0.102203 -0.196762 -0.17868 0.077286 -0.115051 -0.217834 0.082924 -0.200623 -0.210617 0.046215 -0.068474 -0.261169 0.055229 -0.176956 -0.236938 0.019327 -0.1409 -0.252411 -0.014587 -0.029282 -0.288483 -0.009763 -0.240128 -0.200699 -0.022209 -0.02035 -0.269104 -0.067909 -0.130661 -0.244095 -0.047993 -0.229828 -0.185257 -0.060257 -0.07666 -0.237259 -0.082054 -0.107056 -0.192795 -0.101341 -0.017096 -0.243698 -0.096596 0.003904 -0.212997 -0.117165 -0.191101 -0.121376 -0.098686 -0.042702 -0.141342 -0.127914 -0.134933 -0.09446 -0.114891 -0.059807 -0.058498 -0.12059 -0.220062 -0.007316 -0.09066 -0.018795 0.007073 0.097672 -0.106583 0.048191 0.075478 0.067108 -0.002081 0.092842 -0.025021 0.073723 0.050457 -0.141815 0.088646 0.040638 0.09214 0.051521 0.054554 0.040569 0.082703 0.030188 -0.070755 0.108521 0.008092 0.020533 0.095695 0.00771 -0.075836 0.109016 -0.004712 -0.026867 0.13681 -0.000669 0.103065 0.13092 0.00555 0.066238 0.13829 -0.004431 0.047626 0.091194 -0.0077 -0.090797 0.10537 -0.01745 0.060448 0.063713 -0.047558 0.016865 -0.267212 0.092949 0.066055 -0.264282 0.092636 0.02482 -0.294586 0.11882 0.035259 -0.290192 0.050503 0.097374 -0.30069 0.09095 0.103928 -0.294464 0.068916 0.183731 -0.03294 0.088036 0.276642 -0.084541 0.087105 0.215576 0.009791 0.057941 0.20192 0.047184 0.027676 0.199585 0.059685 0.009211 0.224167 0.094482 0.008046 0.163376 0.177994 0.000718 0.229721 0.151962 0.001692 0.213242 0.10463 -0.008207 0.207413 0.056358 -0.010255 0.16095 0.054478 -0.033039 0.253082 0.011291 -0.044815 0.160355 0.019827 -0.065277 0.02421 0.002634 -0.095413 0.222626 -0.039333 -0.082237 0.14856 -0.090889 -0.115311 0.26297 -0.122208 -0.100182 0.031242 -0.052464 -0.119484 0.25177 -0.191269 0.104256 0.276001 -0.238571 0.094078 0.307617 -0.212433 0.102676 0.330994 -0.159271 0.09211 0.390594 -0.167664 0.074417 0.36496 -0.093231 0.061726 0.126846 -0.287659 0.075752 0.172974 -0.304626 0.045662 0.262543 -0.275452 0.075508 0.34494 -0.253479 0.083916 0.408295 -0.242279 0.064873 0.402344 -0.26944 0.046333 0.326569 -0.29657 0.02737 0.247177 -0.310272 0.005898 -0.44873 0.080872 0.081413 -0.429138 0.008462 0.04665 -0.446167 0.075729 0.047054 -0.432617 0.112328 0.038967 -0.311096 -0.075951 0.070358 -0.247757 -0.143341 0.07267 -0.30188 -0.149399 0.049282 -0.250671 -0.179779 0.057007 -0.323029 -0.176743 0.068321 -0.354004 -0.14444 0.04987 -0.296936 -0.162216 0.033112 -0.265106 -0.18956 0.011062 -0.329895 -0.143738 0.001289 -0.362183 -0.112801 0.028685 -0.341339 0.003228 0.082474 -0.288818 0.026516 0.07885 -0.373749 -0.008266 0.076309 -0.403687 -0.013977 0.059578 -0.394104 -0.066658 0.044834 -0.390533 -0.065971 0.020363 -0.41861 -0.0158 0.013581 -0.255219 0.057827 0.065247 0.410675 -0.161331 0.076591 0.402313 -0.132401 0.071243 0.433105 -0.172852 0.050278 0.456421 -0.210342 0.038513 0.448059 -0.154221 0.035278 0.424927 -0.143829 0.066628 0.423889 -0.125061 0.046043 0.378967 -0.050407 0.019398 0.441498 -0.116394 0.008824 0.48587 -0.20079 0.009451 0.402679 -0.070786 -0.013144 0.453064 -0.144272 -0.02038 0.402039 -0.103058 -0.046661 0.411926 -0.143845 -0.073669 0.445221 -0.183563 -0.043312 0.368835 -0.130554 -0.075882 0.32251 -0.075195 -0.069595 0.39209 -0.174713 -0.073738 0.29129 -0.177536 -0.103889 -0.385529 0.112717 0.009246 0.466919 -0.258209 0.029142 0.456573 -0.277283 0.001602 0.478912 -0.26001 0.006536 0.325256 -0.028595 0.04274 0.283661 0.010443 0.033676 0.32608 -0.000787 0.003948 0.277557 0.03968 0.009771 0.269043 0.089783 0.005315 0.276306 0.064201 -0.004117 0.290649 0.023968 0.007044 0.280396 0.02891 -0.009377 0.323608 -0.015466 -0.031853 -0.29718 0.091606 0.037457 -0.284485 0.109657 0.004507 -0.250702 0.096275 0.026648 -0.321259 0.102394 -0.008706 -0.133591 0.111664 0.008967 0.474915 -0.235489 0.034046 0.492767 -0.234375 0.012787 0.491394 -0.21637 -0.012813 0.486633 -0.245102 -0.014503 -0.437195 -0.094925 0.068909 -0.363983 -0.098053 0.044003 -0.361694 -0.106041 -0.021938 -0.402466 -0.046822 -0.017883 -0.385376 -0.107956 -0.037979 -0.384186 -0.148529 -0.064545 -0.446838 -0.09269 -0.045376 -0.377136 -0.061501 -0.030163 -0.410706 0.017422 -0.011374 0.0625 -0.307556 0.0087 0.15506 -0.306091 -0.040989 -0.399231 0.063026 -0.013338 -0.165405 0.155792 0.000381 -0.298004 0.175171 0.00049 -0.099998 0.143723 -0.001057 0.311096 -0.298798 -0.028906 0.429108 -0.277039 -0.025124 0.474548 -0.262512 -0.020193 0.471558 -0.249191 -0.019747 0.444824 -0.245697 -0.044426 0.363495 -0.27066 -0.063126 0.392426 -0.230118 -0.072845 -0.305969 -0.159988 -0.035522 -0.31012 -0.175568 -0.06588 -0.321075 -0.133484 -0.044785 -0.29245 -0.10318 -0.063927 -0.265411 -0.041897 -0.084457 0.077347 -0.300995 -0.041103 0.12001 -0.291412 -0.076363 0.054428 -0.281067 -0.077179 0.058735 -0.272461 -0.090225 0.10817 -0.251221 -0.101646 0.056828 -0.307098 -0.113998 -0.013442 -0.305878 -0.144577 -0.002855 -0.264069 -0.101265 -0.362732 -0.016909 -0.046841 -0.32959 0.041798 -0.048653 0.186539 -0.287445 -0.071724 0.231339 -0.257019 -0.089546 0.203735 -0.210388 -0.113693 0.244019 -0.192932 -0.103882 0.178223 -0.211197 -0.117447 0.147217 -0.189545 -0.123405 0.064804 -0.195709 -0.128387 0.084137 -0.1353 -0.132019 0.303986 -0.280792 -0.064888 0.314819 -0.252411 -0.087013 0.272308 -0.226852 -0.098251 0.304077 -0.220139 -0.10228 0.216446 -0.158966 -0.115051 0.017744 -0.256897 -0.096443 0.177261 -0.199265 -0.144424 0.194687 -0.169418 -0.133789 0.190338 -0.145309 -0.171906 0.217773 -0.173355 -0.119637 0.177261 -0.199265 -0.144424 0.190338 -0.145309 -0.171906 0.152161 -0.150253 -0.227203 -0.218353 0.115425 -0.00772 -0.173096 0.078651 -0.049763 -0.232025 0.044621 -0.070145 -0.075226 0.049732 -0.074417 -0.120605 0.013172 -0.095657 0.173248 -0.164948 -0.181183</float_array>
          <technique_common>
            <accessor source="#Stonefish-mesh-positions-array" count="248" stride="3">
              <param name="X" type="float"/>
              <param name="Y" type="float"/>
              <param name="Z" type="float"/>
            </accessor>
          </technique_common>
        </source>
        <source id="Stonefish-mesh-normals">
          <float_array id="Stonefish-mesh-normals-array" count="1464">-0.80913 0.207291 0.549853 -0.947935 0.006744 0.318391 -0.955129 0.035422 0.294064 -0.897571 0.316793 0.306608 0.97254 -0.218377 -0.080484 0.989692 -0.106721 0.095498 0.91951 -0.063875 0.387841 -0.897763 0.301834 0.320809 -0.922827 0.383549 -0.035778 -0.68455 0.543099 -0.486245 -0.597942 -0.786011 0.15701 -0.652849 -0.516388 0.554195 0.868186 -0.495788 -0.021139 0.185786 -0.780907 0.596378 -0.168 -0.51342 0.841532 0.235792 -0.503773 0.831032 0.685691 -0.363703 0.630513 0.469191 -0.136318 0.872512 0.597237 -0.691511 0.40635 0.654321 -0.034115 0.755447 0.86619 0.165001 0.471689 0.719461 0.230729 0.655088 0.833731 0.474752 0.281962 0.620936 0.783505 0.023625 -0.892737 0.317404 0.319806 0.022541 0.682898 -0.730166 0.977326 -0.165469 -0.132115 0.553959 0.452548 -0.698806 0.982274 -0.186933 -0.013893 0.213793 0.803009 -0.556299 0.927017 0.359133 0.107998 0.777785 -0.353413 0.519759 -0.732837 0.536279 -0.418753 -0.844779 0.481118 -0.234252 -0.009301 0.95927 -0.282337 0.735984 -0.375975 0.563001 0.666359 -0.252696 0.701506 -0.06295 0.081365 0.994694 0.114864 0.238307 0.964373 0.014904 -0.156057 0.987636 0.196284 0.054866 0.979011 0.007929 -0.217755 0.975971 0.099821 0.100469 0.98992 0.132207 0.131099 0.982514 -0.013468 -0.190506 0.981594 0.013528 -0.519072 0.854623 0.056889 0.218562 0.974163 0.061856 -0.095739 0.993483 -0.652256 0.709689 0.266278 -0.669881 0.718814 0.185919 -0.97576 0.207227 0.070347 -0.804204 0.415861 -0.424635 0.56182 -0.646994 0.515516 0.368429 -0.588712 0.719499 -0.002483 0.067644 0.997706 -0.112412 0.211304 0.970935 -0.170371 0.038554 0.984625 -0.154889 -0.036748 0.987248 -0.193878 -0.133387 0.971915 -0.219949 -0.143177 0.964947 -0.170601 -0.336169 0.926221 -0.308939 -0.340465 0.888054 -0.256389 -0.467245 0.846136 -0.281303 -0.466284 0.838718 -0.350161 -0.631084 0.692185 -0.245501 -0.695461 0.675324 -0.320468 -0.730132 0.603496 -0.340819 -0.80408 0.487133 -0.26369 -0.952219 0.154098 -0.309018 -0.92891 0.204044 -0.455814 -0.886458 -0.080163 -0.275589 -0.898465 -0.341776 -0.414529 -0.84516 -0.337446 -0.262919 -0.914274 -0.308182 -0.418541 -0.796408 -0.43653 -0.278358 -0.755589 -0.59296 -0.325178 -0.68414 -0.652849 -0.296234 -0.543261 -0.785566 -0.254942 -0.526178 -0.811259 -0.205222 -0.443989 -0.872214 -0.317125 -0.34028 -0.885235 -0.182702 -0.261026 -0.947885 -0.216911 -0.219901 -0.951101 -0.20987 -0.144254 -0.967029 -0.106701 0.06568 -0.992119 -0.139644 0.136296 -0.980777 -0.047632 0.267806 0.962295 -0.021449 0.321851 0.946547 -0.028313 0.427313 0.90366 0.091547 0.371635 0.923854 0.067006 0.580916 0.811201 0.1073 0.581372 0.806532 0.021857 0.663269 0.748062 0.076354 0.555694 0.827873 0.112672 0.720784 0.683941 0.070743 0.806913 0.586418 0.128715 0.903974 0.407754 0.139045 0.990142 -0.016898 -0.118722 0.065048 0.990795 -0.040231 0.154791 0.987128 0.009968 0.821638 0.569923 -0.041582 0.08553 -0.995467 -0.002526 0.148304 -0.988939 0.121265 0.907494 -0.40218 0.123285 0.835094 -0.536115 -0.11421 -0.36184 0.925218 -0.114001 -0.364093 0.924359 0.036319 -0.518467 0.854326 -0.354593 -0.61582 0.703584 -0.035903 0.680899 0.731497 -0.232648 -0.893912 0.38314 -0.306829 -0.699322 -0.645604 -0.166382 -0.895528 0.412731 -0.366774 -0.86099 -0.352381 0.136219 0.341924 0.929802 0.12669 0.333286 0.934275 0.185553 0.317321 0.929988 0.163436 0.483754 0.859808 0.154667 0.525409 0.836674 0.203197 0.65977 0.723474 0.179583 0.772731 0.608799 0.206923 0.915599 0.344762 0.161712 0.82655 0.539134 0.00268 0.054947 0.998486 -0.008683 0.039586 0.999178 0.007384 0.092742 0.995663 0.027475 0.107209 0.993857 -0.184474 0.331327 0.925307 0.083483 0.176066 -0.980832 0.00255 0.12247 -0.992469 -0.008956 0.072764 -0.997309 -0.006561 0.043178 -0.999046 0.183728 0.875507 -0.446914 0.152962 0.835906 -0.527128 0.270115 0.743165 -0.612163 0.166085 0.670165 -0.723391 0.219046 0.662594 -0.716232 0.107523 0.572854 -0.812574 0.230791 0.484782 -0.843636 0.146932 0.412405 -0.899074 0.141524 0.382439 -0.913078 0.205695 0.301712 -0.930945 0.166971 0.412536 -0.895508 0.540884 0.294109 0.788001 0.248455 0.201603 0.947432 0.241014 -0.165336 0.956335 0.219195 -0.096621 0.970885 0.246592 -0.038006 0.968374 0.11532 -0.152535 0.981547 0.114552 -0.152539 0.981636 -0.092345 -0.208576 0.973637 0.228716 0.092042 0.969132 0.291976 0.061308 0.954459 0.233835 0.233286 0.943874 0.290404 0.272646 0.91724 0.014686 -0.516334 0.856261 0.01551 -0.558614 0.829283 0.356445 0.284057 0.890089 0.365819 0.22569 0.902907 0.325885 -0.930713 -0.166051 0.072206 -0.817362 0.571582 -0.098422 -0.985472 0.138415 0.200882 0.246412 0.948118 0.117223 -0.487862 0.865014 0.114844 -0.479859 0.869797 0.031706 -0.4587 0.888025 0.056005 -0.372464 0.926355 0.308672 -0.148709 0.939472 0.154926 -0.801808 0.57715 0.151779 -0.814904 0.55937 0.105878 -0.851109 0.514202 0.08491 -0.952137 0.29364 -0.976229 0.003489 0.216715 -0.794466 -0.441937 0.416552 -0.793912 -0.424023 0.435785 -0.968855 -0.245057 -0.03559 -0.982552 0.158665 -0.097043 -0.998281 0.054537 0.021441 -0.894642 0.249297 -0.370765 -0.249353 -0.088381 0.964371 -0.241521 -0.034555 0.96978 -0.334709 -0.283761 0.898582 -0.315895 -0.340149 0.885725 -0.350199 -0.29869 0.887775 -0.323291 -0.351767 0.878489 -0.338643 -0.348592 0.873959 -0.253101 -0.658724 0.708535 0.15511 0.480886 0.862954 0.060697 0.538314 0.840556 -0.392778 -0.710284 -0.584142 -0.107015 -0.888636 -0.445953 -0.446596 -0.836195 0.318325 -0.477361 -0.816844 0.323871 -0.465962 -0.801611 0.374565 -0.468542 -0.881627 -0.05659 -0.556812 -0.818036 -0.144148 -0.58579 -0.797649 0.143547 -0.602206 -0.779836 0.170892 0.178011 -0.081435 0.980653 0.112864 -0.100715 0.988493 -0.033766 0.227594 0.97317 -0.162991 -0.209778 0.964068 -0.116634 -0.19361 0.974121 -0.045115 -0.370413 0.927771 -0.379117 -0.423279 0.822864 -0.358012 -0.476193 0.803161 -0.1669 -0.511604 0.842856 -0.700206 -0.501348 0.508292 -0.634873 -0.313163 0.706304 -0.89832 -0.415502 -0.142755 -0.874487 -0.479468 0.073369 0.341036 -0.039233 0.939231 -0.091665 0.160593 0.982755 -0.03468 0.429301 0.902495 0.133168 0.271241 0.953255 0.29379 0.366744 0.882715 -0.149459 0.1378 0.979119 0.283553 -0.007921 0.958924 0.136779 0.35512 0.92476 0.201745 -0.82234 0.53203 0.496843 0.036903 0.867055 0.611947 0.13609 0.779103 0.706058 -0.185982 0.683296 0.317644 0.260361 0.911764 0.777307 -0.127976 0.615968 0.496786 0.621036 0.606233 0.457481 0.668469 0.586396 0.771404 0.489126 0.407053 0.474971 0.535142 0.698588 0.758277 0.456805 0.465129 0.68141 0.572691 0.455747 0.805905 0.426761 0.410356 0.730196 0.674366 0.109751 0.881597 0.46282 -0.092656 0.792852 0.565884 -0.226188 0.683584 0.519204 -0.512971 0.682212 0.511393 -0.522555 0.777262 0.194145 -0.598474 0.217855 0.575005 -0.788611 0.383237 0.414441 -0.82545 0.043381 -0.025645 -0.998729 0.282431 0.102425 -0.953804 -0.646742 0.526187 -0.552135 -0.44268 0.567898 -0.693921 -0.145584 0.687304 -0.711631 -0.034216 0.430065 0.902149 -0.010502 0.64726 0.762197 0.326787 -0.580621 0.745714 0.302212 -0.581698 0.755179 0.272266 -0.835875 0.476638 0.213317 -0.885028 0.41379 0.526592 -0.778556 0.341396 0.246642 0.428411 0.869271 0.272836 0.44097 0.855047 0.288234 0.428579 0.856295 0.508918 0.515183 0.689629 0.287232 0.496269 0.819277 0.504558 0.696597 0.510072 0.531789 0.682907 0.500837 0.245835 0.662484 0.707588 0.678394 0.733876 0.034737 0.236131 0.644153 0.727536 0.207109 0.822081 0.530367 0.001191 0.032621 0.999467 0.070899 0.100311 0.992427 0.071144 0.102801 0.992154 0.705657 0.412698 -0.575959 0.953927 0.183231 0.23759 0.158734 0.148863 -0.976035 0.085086 0.031976 -0.99586 0.721507 0.5223 0.454566 0.627482 0.407716 0.663351 0.527466 0.693582 0.490636 0.07015 0.155003 -0.98542 0.858026 0.171592 -0.484095 0.563374 0.819486 -0.105132 0.289068 0.74957 -0.59547 0.580238 0.73872 -0.342952 0.374306 0.682464 -0.627804 0.591763 0.730689 -0.340455 0.336046 0.498692 -0.798987 0.553846 0.594476 -0.582969 0.395006 0.485539 -0.779886 0.058426 -0.63407 0.771066 0.074396 -0.815534 0.573908 0.321693 0.807021 0.495207 0.417728 0.702285 0.576454 0.429481 0.711996 0.555524 0.025826 0.8725 0.487932 -0.01208 0.89008 -0.455645 0.529532 0.823169 -0.204912 -0.088416 0.693298 -0.715207 -0.040527 0.710276 0.702755 0.094377 0.699785 0.708092 -0.018299 0.811042 0.584701 -0.027302 0.836523 0.547251 0.479603 0.001538 0.877484 0.404477 0.136839 0.904253 0.423846 -0.331132 0.843034 0.690953 0.401348 0.601251 0.718423 -0.378772 0.583439 0.652549 0.206427 0.729087 0.671586 0.141984 0.727196 0.973226 0.209298 0.095007 0.975404 -0.152252 -0.159396 0.711213 -0.693855 0.112877 0.874628 0.181457 0.449554 0.319724 0.282813 0.904319 -0.476544 -0.02208 -0.878873 -0.311005 -0.322053 0.89418 -0.310956 -0.30819 0.899069 -0.322947 -0.298259 0.898191 0.323536 0.186919 0.92757 0.023591 0.130438 0.991176 -0.489816 -0.568945 -0.660592 -0.390571 -0.579767 -0.71507 -0.836425 -0.530694 -0.136956 -0.783148 -0.531472 -0.322826 -0.78036 -0.622654 0.057799 -0.824212 -0.565681 -0.026066 -0.87397 -0.485065 0.029822 -0.493684 -0.393019 0.775765 -0.4591 -0.496035 0.737005 -0.231138 -0.537693 0.81084 -0.198261 -0.355659 0.913345 -0.072482 0.563413 -0.82299 -0.417822 0.038377 -0.907718 -0.086671 -0.93877 0.333464 -0.242583 -0.941713 0.233086 -0.251147 -0.937109 0.242388 0.022409 -0.999674 0.012269 -0.060208 -0.997755 0.029316 -0.961614 -0.242668 -0.128103 -0.894995 -0.111504 -0.431915 -0.916049 -0.077627 -0.393483 -0.772115 0.149376 -0.617677 -0.755021 0.162624 -0.635213 -0.031366 0.16906 0.985107 0.010067 0.063266 0.997946 -0.47409 0.46931 -0.744974 0.024001 0.207578 0.977924 0.048404 0.801956 0.595419 0.051552 0.798295 0.600056 0.078238 0.311154 0.947134 0.772458 0.567732 -0.284585 -0.002914 0.102724 -0.994706 0.340861 0.718686 -0.606057 0.146532 -0.989205 -0.001126 0.172263 -0.985015 -0.008366 0.061758 -0.976098 -0.208374 0.183868 -0.962855 -0.197743 0.319688 -0.885715 -0.336614 0.615156 -0.787954 -0.026678 0.958984 0.221187 -0.177276 0.37456 -0.815817 -0.440621 0.273421 -0.600077 -0.751763 0.68001 0.17646 -0.711651 0.388472 -0.755353 -0.527761 0.350846 -0.612279 -0.708535 0.581772 -0.048647 -0.811896 0.556714 0.011335 -0.830627 0.479629 0.012666 -0.87738 0.65877 0.276803 -0.699573 0.882771 0.458618 -0.101907 -0.530005 -0.847477 0.029627 -0.706379 -0.690843 -0.154156 -0.359178 -0.559166 0.747212 -0.407869 -0.802215 -0.435998 -0.295627 -0.832889 0.467869 -0.138101 -0.873355 0.467097 0.157811 0.475024 -0.865707 0.117923 0.46935 -0.875103 -0.31218 -0.278792 -0.908195 -0.357881 -0.312398 -0.879959 -0.345544 -0.157452 -0.925099 -0.249803 -0.060544 -0.966402 -0.195383 0.080903 -0.977384 -0.064484 -0.986701 -0.149211 -0.16593 -0.970075 -0.177263 -0.061283 -0.941937 -0.33015 -0.207026 -0.918164 -0.337809 -0.137069 -0.901354 -0.410819 -0.19178 -0.905563 -0.378386 0.029616 -0.525976 -0.849984 0.338232 0.519802 -0.784477 -0.135313 -0.813165 0.566086 0.349052 0.517151 -0.781484 -0.314871 -0.643261 0.697905 -0.433079 -0.749058 0.501353 -0.182256 -0.953626 -0.23954 -0.770629 -0.431176 -0.469275 -0.535587 -0.185599 -0.823832 -0.23801 -0.71355 -0.658937 -0.441419 -0.185747 -0.877865 -0.630826 -0.084704 -0.771287 -0.387145 -0.134748 -0.912119 -0.321889 0.152878 -0.934353 -0.275221 0.191945 -0.942025 -0.430683 -0.15481 -0.889127 0.090655 0.265572 -0.959819 0.157998 0.474543 -0.865936 0.175824 -0.875293 -0.450497 -0.395472 0.195558 -0.897418 -0.285697 0.460695 -0.84032 -0.543729 0.100933 -0.833169 0.076881 -0.88541 -0.458409 0.084474 -0.887928 -0.45216 0.090081 -0.511162 -0.854751 0.054489 -0.563196 -0.824525 0.336182 -0.268452 -0.902727 0.146289 -0.385226 -0.911153 0.065057 -0.462874 -0.884033 -0.035683 -0.31232 -0.949307 0.084028 -0.37841 -0.921816 0.066176 -0.080973 -0.994517 0.161838 -0.86932 -0.467002 0.076834 -0.885476 -0.458289 0.131411 -0.640203 -0.756882 0.080171 -0.589052 -0.804109 0.058196 -0.627501 -0.776437 0.047064 -0.33542 -0.940892 -0.022604 -0.433664 -0.900791 -0.054603 -0.207674 -0.976673 -0.110784 -0.070691 -0.991327 -0.755404 -0.647107 -0.10304 0.108273 -0.153955 -0.982128 0.326321 -0.434153 -0.839658 0.275614 -0.405603 -0.871506 0.262497 -0.339858 -0.903101 0.321681 0.060864 -0.94489 0.286897 -0.013699 -0.957863 0.495535 -0.010993 -0.868519 0.441097 -0.281547 -0.852153 -0.023509 -0.430463 -0.902302 -0.0346 -0.455537 -0.889544 -0.028166 -0.433941 -0.900501 0.325317 0.549278 -0.769716 -0.094326 0.727694 -0.679385 0.320143 -0.319976 -0.891697 -0.115829 -0.220617 -0.968458 -0.029905 -0.050449 -0.998279 -0.036077 0.080613 -0.996092 0.00201 0.150874 -0.988551 0.088525 -0.909775 -0.405553 -0.874411 0.431418 0.221999 -0.059537 -0.343196 -0.937375 -0.398754 0.915812 -0.047795 0.125063 -0.012107 -0.992075 0.151737 0.147578 -0.977342 0.174971 0.170776 -0.96965 0.104554 0.21374 -0.971279 -0.670627 0.589964 0.449668 0.191377 -0.819505 -0.540172 0.90762 0.20114 -0.368467 -0.759874 0.431715 0.486018 0.892209 0.420596 -0.164504 0.023579 0.166884 -0.985694 -0.172887 -0.095781 -0.980274 -0.052793 0.262597 -0.96346 -0.121302 0.972839 -0.197153 -0.082452 0.704465 -0.704933 -0.107695 0.641437 -0.759579 -0.19384 0.558396 -0.80661 -0.138796 0.558301 -0.817946 -0.212807 0.316169 -0.924527 0.009998 0.757969 -0.652214 0.038245 0.720084 -0.692832 0.061887 0.722434 -0.688664 -0.049078 0.546582 -0.835966 -0.033437 0.555521 -0.83083 0.27231 0.460648 -0.844779 0.228411 0.310957 -0.922569 0.101316 0.575626 -0.811412 0.235828 0.302235 -0.923601 0.233643 0.183566 -0.954837 0.184161 0.159249 -0.96991 -0.11718 0.341381 -0.932592 0.035589 0.468629 -0.882678 0.026958 0.348775 -0.936819 -0.099934 0.250244 -0.963012 -0.015281 0.398654 -0.916974 0.640966 0.286117 -0.712249 0.33754 -0.272563 -0.900986 0.642048 -0.352643 -0.680747 0.522477 -0.00123 -0.852653 -0.759902 0.431705 0.485984 -0.75989 0.431671 0.486032 -0.759831 0.431769 0.486037</float_array>
          <technique_common>
            <accessor source="#Stonefish-mesh-normals-array" count="488" stride="3">
              <param name="X" type="float"/>
              <param name="Y" type="float"/>
              <param name="Z" type="float"/>
            </accessor>
          </technique_common>
        </source>
        <source id="Stonefish-mesh-map-0">
          <float_array id="Stonefish-mesh-map-0-array" count="2928">0.352051 0.388428 0.502686 0.371582 0.408936 0.425049 0.352051 0.388428 0.408936 0.425049 0.367432 0.477295 0.367432 0.477295 0.408936 0.425049 0.426025 0.501709 0.426025 0.501709 0.408936 0.425049 0.502686 0.371582 0.502686 0.371582 0.352051 0.388428 0.452148 0.306641 0.452148 0.306641 0.352051 0.388428 0.352539 0.331299 0.452148 0.306641 0.352539 0.331299 0.397949 0.242432 0.426025 0.501709 0.502686 0.371582 0.5354 0.453857 0.426025 0.501709 0.5354 0.453857 0.433838 0.540771 0.433838 0.540771 0.5354 0.453857 0.503174 0.531738 0.341553 0.495605 0.287109 0.501709 0.287842 0.476562 0.287842 0.476562 0.287109 0.501709 0.230713 0.495361 0.341553 0.495605 0.287842 0.476562 0.310059 0.46167 0.287842 0.476562 0.230713 0.495361 0.247803 0.463379 0.247803 0.463379 0.230713 0.495361 0.204102 0.477539 0.247803 0.463379 0.204102 0.477539 0.193115 0.435059 0.287842 0.476562 0.247803 0.463379 0.260742 0.421387 0.260742 0.421387 0.247803 0.463379 0.193115 0.435059 0.287842 0.476562 0.260742 0.421387 0.310059 0.46167 0.260742 0.421387 0.193115 0.435059 0.201416 0.387207 0.310059 0.46167 0.260742 0.421387 0.282227 0.38623 0.282227 0.38623 0.260742 0.421387 0.201416 0.387207 0.282227 0.38623 0.201416 0.387207 0.217529 0.330322 0.282227 0.38623 0.217529 0.330322 0.289551 0.343018 0.588135 0.643555 0.506348 0.628662 0.497803 0.583008 0.497803 0.583008 0.506348 0.628662 0.41748 0.563965 0.506348 0.628662 0.588135 0.643555 0.440186 0.698975 0.41748 0.563965 0.506348 0.628662 0.420654 0.604492 0.420654 0.604492 0.506348 0.628662 0.440186 0.698975 0.41748 0.563965 0.420654 0.604492 0.365479 0.5354 0.420654 0.604492 0.440186 0.698975 0.353027 0.673096 0.037842 0.916992 0.003906 0.892822 0.060547 0.89502 0.003906 0.892822 0.037842 0.916992 0.026611 0.936523 0.026611 0.936523 0.037842 0.916992 0.051025 0.933594 0.051025 0.933594 0.037842 0.916992 0.066406 0.928467 0.066406 0.928467 0.037842 0.916992 0.060547 0.89502 0.066406 0.928467 0.060547 0.89502 0.078125 0.897461 0.440674 0.705566 0.494873 0.74292 0.431152 0.77417 0.431152 0.77417 0.494873 0.74292 0.541016 0.793701 0.494873 0.74292 0.440674 0.705566 0.542969 0.725098 0.494873 0.74292 0.542969 0.725098 0.541016 0.793701 0.542969 0.725098 0.440674 0.705566 0.512939 0.679932 0.541016 0.793701 0.542969 0.725098 0.591553 0.769531 0.541016 0.793701 0.591553 0.769531 0.609375 0.793457 0.542969 0.725098 0.512939 0.679932 0.582031 0.706299 0.582031 0.706299 0.512939 0.679932 0.598877 0.674072 0.591553 0.769531 0.542969 0.725098 0.582764 0.738281 0.582764 0.738281 0.542969 0.725098 0.582031 0.706299 0.591553 0.769531 0.582764 0.738281 0.591064 0.752441 0.591064 0.752441 0.582764 0.738281 0.59375 0.733398 0.59375 0.733398 0.582764 0.738281 0.582031 0.706299 0.59375 0.733398 0.582031 0.706299 0.634521 0.72168 0.634521 0.72168 0.582031 0.706299 0.601074 0.698242 0.601074 0.698242 0.582031 0.706299 0.597412 0.691895 0.958496 0.414795 0.943115 0.480957 0.901123 0.447754 0.826904 0.476562 0.788086 0.431641 0.901123 0.447754 0.901123 0.447754 0.788086 0.431641 0.851318 0.409668 0.901123 0.447754 0.851318 0.409668 0.958496 0.414795 0.958496 0.414795 0.851318 0.409668 0.887695 0.374756 0.887695 0.374756 0.851318 0.409668 0.826416 0.375732 0.958496 0.414795 0.887695 0.374756 0.95752 0.364014 0.887695 0.374756 0.826416 0.375732 0.840576 0.345459 0.95752 0.364014 0.887695 0.374756 0.903076 0.343994 0.903076 0.343994 0.887695 0.374756 0.840576 0.345459 0.903076 0.343994 0.840576 0.345459 0.846436 0.315674 0.95752 0.364014 0.903076 0.343994 0.943604 0.320312 0.943604 0.320312 0.903076 0.343994 0.846436 0.315674 0.943604 0.320312 0.846436 0.315674 0.868896 0.294189 0.943604 0.320312 0.868896 0.294189 0.895752 0.271729 0.943604 0.320312 0.895752 0.271729 0.975098 0.275879 0.895752 0.271729 0.868896 0.294189 0.819824 0.265625 0.975098 0.275879 0.895752 0.271729 0.977539 0.233887 0.895752 0.271729 0.819824 0.265625 0.899658 0.247559 0.895752 0.271729 0.899658 0.247559 0.977539 0.233887 0.899658 0.247559 0.819824 0.265625 0.821777 0.237061 0.977539 0.233887 0.899658 0.247559 0.930664 0.217041 0.930664 0.217041 0.899658 0.247559 0.821777 0.237061 0.930664 0.217041 0.821777 0.237061 0.898926 0.194824 0.930664 0.217041 0.898926 0.194824 0.96875 0.200195 0.96875 0.200195 0.898926 0.194824 0.972656 0.171631 0.898926 0.194824 0.821777 0.237061 0.825439 0.180176 0.972656 0.171631 0.898926 0.194824 0.920898 0.140625 0.920898 0.140625 0.898926 0.194824 0.825439 0.180176 0.920898 0.140625 0.825439 0.180176 0.850342 0.144531 0.920898 0.140625 0.850342 0.144531 0.882324 0.0979 0.882324 0.0979 0.850342 0.144531 0.769043 0.122314 0.488281 0.335693 0.615479 0.363037 0.523682 0.392334 0.615479 0.363037 0.488281 0.335693 0.553467 0.302002 0.615479 0.363037 0.553467 0.302002 0.62915 0.313477 0.553467 0.302002 0.488281 0.335693 0.491943 0.274414 0.62915 0.313477 0.553467 0.302002 0.600586 0.245361 0.600586 0.245361 0.553467 0.302002 0.491943 0.274414 0.62915 0.313477 0.600586 0.245361 0.661865 0.320312 0.600586 0.245361 0.491943 0.274414 0.499756 0.213379 0.600586 0.245361 0.499756 0.213379 0.564697 0.198242 0.600586 0.245361 0.564697 0.198242 0.633545 0.200684 0.633545 0.200684 0.564697 0.198242 0.580811 0.175049 0.633545 0.200684 0.580811 0.175049 0.63916 0.19043 0.63916 0.19043 0.580811 0.175049 0.614258 0.154297 0.614258 0.154297 0.580811 0.175049 0.578613 0.084961 0.614258 0.154297 0.578613 0.084961 0.600098 0.091309 0.614258 0.154297 0.600098 0.091309 0.627686 0.093018 0.614258 0.154297 0.627686 0.093018 0.63916 0.19043 0.63916 0.19043 0.627686 0.093018 0.649902 0.183594 0.649902 0.183594 0.627686 0.093018 0.65625 0.061523 0.092041 0.928223 0.073486 0.996094 0.039307 0.942627 0.073486 0.996094 0.092041 0.928223 0.12085 0.957275 0.073486 0.996094 0.12085 0.957275 0.101318 0.990479 0.12085 0.957275 0.092041 0.928223 0.112061 0.891846 0.101318 0.990479 0.12085 0.957275 0.134521 0.979004 0.12085 0.957275 0.112061 0.891846 0.153076 0.953613 0.134521 0.979004 0.12085 0.957275 0.179443 0.987061 0.12085 0.957275 0.153076 0.953613 0.187012 0.980469 0.12085 0.957275 0.187012 0.980469 0.179443 0.987061 0.660889 0.068115 0.750732 0.076904 0.678223 0.119385 0.678223 0.119385 0.750732 0.076904 0.763916 0.120605 0.763916 0.120605 0.750732 0.076904 0.79248 0.057617 0.678223 0.119385 0.763916 0.120605 0.76416 0.161865 0.678223 0.119385 0.76416 0.161865 0.681396 0.166748 0.681396 0.166748 0.76416 0.161865 0.75415 0.194092 0.681396 0.166748 0.75415 0.194092 0.649414 0.196045 0.649414 0.196045 0.75415 0.194092 0.637695 0.216797 0.637695 0.216797 0.75415 0.194092 0.75415 0.209473 0.637695 0.216797 0.75415 0.209473 0.68335 0.258789 0.68335 0.258789 0.75415 0.209473 0.775879 0.231934 0.68335 0.258789 0.775879 0.231934 0.743164 0.27124 0.743164 0.27124 0.775879 0.231934 0.7854 0.270264 0.68335 0.258789 0.743164 0.27124 0.67627 0.283691 0.743164 0.27124 0.7854 0.270264 0.781982 0.307373 0.743164 0.27124 0.781982 0.307373 0.67627 0.283691 0.67627 0.283691 0.781982 0.307373 0.671387 0.319092 0.671387 0.319092 0.781982 0.307373 0.771973 0.337402 0.671387 0.319092 0.771973 0.337402 0.737061 0.351074 0.671387 0.319092 0.737061 0.351074 0.672363 0.354492 0.737061 0.351074 0.771973 0.337402 0.790283 0.381104 0.672363 0.354492 0.737061 0.351074 0.738037 0.385742 0.738037 0.385742 0.737061 0.351074 0.790283 0.381104 0.672363 0.354492 0.738037 0.385742 0.656006 0.408203 0.738037 0.385742 0.790283 0.381104 0.776123 0.424316 0.738037 0.385742 0.776123 0.424316 0.656006 0.408203 0.656006 0.408203 0.776123 0.424316 0.747559 0.4729 0.747559 0.4729 0.776123 0.424316 0.796387 0.481201 0.656006 0.408203 0.747559 0.4729 0.649658 0.449219 0.824707 0.910889 0.835449 0.879395 0.835938 0.912842 0.824707 0.910889 0.835938 0.912842 0.822754 0.919189 0.835449 0.879395 0.824707 0.910889 0.797363 0.891113 0.835449 0.879395 0.797363 0.891113 0.82959 0.833496 0.82959 0.833496 0.797363 0.891113 0.772217 0.894531 0.835938 0.912842 0.835449 0.879395 0.861328 0.894287 0.861328 0.894287 0.835449 0.879395 0.82959 0.833496 0.861328 0.894287 0.82959 0.833496 0.866699 0.827148 0.861328 0.894287 0.866699 0.827148 0.912842 0.848633 0.912842 0.848633 0.866699 0.827148 0.921387 0.797363 0.861328 0.894287 0.912842 0.848633 0.921631 0.920654 0.921631 0.920654 0.912842 0.848633 0.975342 0.870361 0.967529 0.55127 1 0.490723 0.996094 0.562256 1 0.490723 0.967529 0.55127 0.958008 0.508057 0.958008 0.508057 0.967529 0.55127 0.941162 0.573975 0.958008 0.508057 0.941162 0.573975 0.943115 0.521973 0.958008 0.508057 0.943115 0.521973 0.935303 0.511963 0.958008 0.508057 0.935303 0.511963 0.953857 0.487549 0.953857 0.487549 0.935303 0.511963 0.905273 0.489258 0.995361 0.467529 0.949219 0.482422 0.965088 0.412109 0.235107 0.25 0.325928 0.259766 0.288574 0.283447 0.235107 0.25 0.288574 0.283447 0.219971 0.282227 0.235107 0.25 0.219971 0.282227 0.182617 0.211182 0.235107 0.25 0.182617 0.211182 0.221191 0.215576 0.221191 0.215576 0.182617 0.211182 0.164307 0.157715 0.182617 0.211182 0.219971 0.282227 0.120605 0.21582 0.120605 0.21582 0.219971 0.282227 0.154053 0.290527 0.154053 0.290527 0.219971 0.282227 0.200439 0.368652 0.154053 0.290527 0.200439 0.368652 0.142578 0.361572 0 0.650635 0.04126 0.617432 0.037842 0.695312 0 0.650635 0.037842 0.695312 0.00293 0.711426 0.00293 0.711426 0.037842 0.695312 0.043457 0.770508 0.043457 0.770508 0.037842 0.695312 0.069092 0.712158 0.069092 0.712158 0.037842 0.695312 0.04126 0.617432 0.069092 0.712158 0.04126 0.617432 0.078369 0.632324 0.069092 0.712158 0.078369 0.632324 0.102783 0.686768 0.810059 0.648193 0.750732 0.728271 0.763428 0.646729 0.750732 0.728271 0.810059 0.648193 0.827637 0.719727 0.763428 0.646729 0.750732 0.728271 0.732178 0.665039 0.763428 0.646729 0.732178 0.665039 0.734863 0.623779 0.732178 0.665039 0.750732 0.728271 0.705322 0.693359 0.734863 0.623779 0.732178 0.665039 0.701416 0.64917 0.701416 0.64917 0.732178 0.665039 0.705322 0.693359 0.734863 0.623779 0.701416 0.64917 0.714355 0.604004 0.701416 0.64917 0.705322 0.693359 0.680176 0.688721 0.680176 0.688721 0.705322 0.693359 0.6604 0.720459 0.680176 0.688721 0.6604 0.720459 0.661865 0.66626 0.680176 0.688721 0.661865 0.66626 0.701416 0.64917 0.714355 0.604004 0.701416 0.64917 0.669922 0.633301 0.669922 0.633301 0.701416 0.64917 0.661865 0.66626 0.714355 0.604004 0.669922 0.633301 0.705078 0.56958 0.705078 0.56958 0.669922 0.633301 0.656006 0.606201 0.656006 0.606201 0.669922 0.633301 0.62793 0.658203 0.62793 0.658203 0.669922 0.633301 0.661865 0.66626 0.62793 0.658203 0.661865 0.66626 0.605469 0.676514 0.856445 0.53125 0.898682 0.538086 0.850342 0.58374 0.856445 0.53125 0.850342 0.58374 0.808105 0.564453 0.808105 0.564453 0.850342 0.58374 0.730957 0.608887 0.730957 0.608887 0.850342 0.58374 0.817139 0.644531 0.817139 0.644531 0.850342 0.58374 0.879395 0.594482 0.879395 0.594482 0.850342 0.58374 0.898682 0.538086 0.817139 0.644531 0.879395 0.594482 0.9104 0.605957 0.9104 0.605957 0.879395 0.594482 0.898682 0.538086 0.9104 0.605957 0.898682 0.538086 0.922119 0.519531 0.9104 0.605957 0.922119 0.519531 0.938965 0.589111 0.9104 0.605957 0.938965 0.589111 0.939453 0.633301 0.939453 0.633301 0.938965 0.589111 0.975342 0.642334 0.975342 0.642334 0.938965 0.589111 0.977539 0.608154 0.010986 0.439453 0.069336 0.481689 0.000977 0.542969 0.052002 0.50708 0.09668 0.469971 0.065918 0.569336 0.065918 0.569336 0.09668 0.469971 0.096436 0.560791 0.065918 0.569336 0.096436 0.560791 0.087402 0.612305 0.065918 0.569336 0.087402 0.612305 0.056885 0.616943 0.538086 0.514404 0.552002 0.5354 0.517822 0.517578 0.517822 0.517578 0.552002 0.5354 0.490967 0.575439 0.490967 0.575439 0.552002 0.5354 0.560547 0.589844 0.538086 0.514404 0.517822 0.517578 0.549316 0.488525 0.549316 0.488525 0.517822 0.517578 0.541748 0.460205 0.549316 0.488525 0.541748 0.460205 0.584961 0.488281 0.538086 0.514404 0.549316 0.488525 0.55957 0.514893 0.538086 0.514404 0.55957 0.514893 0.552002 0.5354 0.55957 0.514893 0.549316 0.488525 0.584961 0.488281 0.560547 0.589844 0.552002 0.5354 0.584473 0.525635 0.584473 0.525635 0.552002 0.5354 0.55957 0.514893 0.584473 0.525635 0.55957 0.514893 0.584961 0.488281 0.560547 0.589844 0.584473 0.525635 0.622559 0.607178 0.584473 0.525635 0.584961 0.488281 0.62793 0.517578 0.584473 0.525635 0.62793 0.517578 0.622559 0.607178 0.62793 0.517578 0.584961 0.488281 0.613281 0.437744 0.622559 0.607178 0.62793 0.517578 0.657959 0.570801 0.62793 0.517578 0.613281 0.437744 0.658447 0.487061 0.62793 0.517578 0.658447 0.487061 0.657959 0.570801 0.657959 0.570801 0.658447 0.487061 0.705566 0.564453 0.705566 0.564453 0.658447 0.487061 0.720947 0.504883 0.720947 0.504883 0.658447 0.487061 0.689209 0.4646 0.705566 0.564453 0.720947 0.504883 0.739746 0.534912 0.705566 0.564453 0.739746 0.534912 0.766113 0.571289 0.739746 0.534912 0.720947 0.504883 0.75415 0.500732 0.739746 0.534912 0.75415 0.500732 0.830566 0.541504 0.072998 0.844971 0.038086 0.883545 0.055176 0.7854 0.055176 0.7854 0.038086 0.883545 0.000244 0.769775 0.000244 0.769775 0.038086 0.883545 0.008545 0.838867 0.960693 0.756836 0.997559 0.670166 0.999023 0.756836 0.997559 0.670166 0.960693 0.756836 0.94165 0.721191 0.159424 0.7146 0.184326 0.69873 0.250488 0.721191 0.184326 0.69873 0.159424 0.7146 0.130127 0.636963 0.130127 0.636963 0.159424 0.7146 0.109131 0.650635 0.109131 0.650635 0.159424 0.7146 0.101074 0.796875 0.130127 0.636963 0.109131 0.650635 0.109375 0.620361 0.371094 0.645508 0.3479 0.577148 0.391357 0.578857 0.3479 0.577148 0.371094 0.645508 0.310791 0.637695 0.310791 0.637695 0.371094 0.645508 0.330566 0.684082 0.310791 0.637695 0.330566 0.684082 0.290771 0.672852 0.3479 0.577148 0.310791 0.637695 0.306396 0.602051 0.310791 0.637695 0.290771 0.672852 0.283203 0.626953 0.310791 0.637695 0.283203 0.626953 0.306396 0.602051 0.3479 0.577148 0.306396 0.602051 0.328125 0.550293 0.283203 0.626953 0.290771 0.672852 0.269531 0.693848 0.328125 0.550293 0.306396 0.602051 0.286133 0.583984 0.328125 0.550293 0.286133 0.583984 0.317627 0.54126 0.317627 0.54126 0.286133 0.583984 0.29248 0.536377 0.29248 0.536377 0.286133 0.583984 0.272461 0.553467 0.29248 0.536377 0.272461 0.553467 0.264648 0.505859 0.264648 0.505859 0.272461 0.553467 0.267822 0.569824 0.267822 0.569824 0.272461 0.553467 0.286133 0.583984 0.264648 0.505859 0.267822 0.569824 0.243652 0.529541 0.243652 0.529541 0.267822 0.569824 0.233643 0.555908 0.28418 0.5979 0.286133 0.583984 0.306396 0.602051 0.286133 0.583984 0.28418 0.5979 0.267822 0.569824 0.28418 0.5979 0.306396 0.602051 0.283203 0.626953 0.233643 0.555908 0.267822 0.569824 0.269531 0.593262 0.269531 0.593262 0.267822 0.569824 0.28418 0.5979 0.269531 0.593262 0.28418 0.5979 0.283203 0.626953 0.233643 0.555908 0.269531 0.593262 0.240967 0.594482 0.269531 0.593262 0.283203 0.626953 0.259521 0.634766 0.269531 0.593262 0.259521 0.634766 0.240967 0.594482 0.259521 0.634766 0.283203 0.626953 0.269531 0.693848 0.240967 0.594482 0.259521 0.634766 0.223633 0.661133 0.259521 0.634766 0.269531 0.693848 0.242676 0.711914 0.259521 0.634766 0.242676 0.711914 0.223633 0.661133 0.700195 0.047363 0.64502 0.047363 0.739014 0.012939 0.739014 0.012939 0.64502 0.047363 0.666504 0.010986 0.617676 0.94043 0.624756 0.992676 0.5979 0.962402 0.617676 0.94043 0.5979 0.962402 0.583252 0.932129 0.583252 0.932129 0.5979 0.962402 0.57251 0.969971 0.57251 0.969971 0.5979 0.962402 0.589111 0.993164 0.583252 0.932129 0.57251 0.969971 0.557373 0.948242 0.583252 0.932129 0.557373 0.948242 0.601318 0.888916 0.601318 0.888916 0.557373 0.948242 0.557861 0.903076 0.625488 0.083496 0.550049 0.058105 0.622314 0.047607 0.625488 0.083496 0.622314 0.047607 0.65332 0.054688 0.622314 0.047607 0.550049 0.058105 0.544678 0.032227 0.622314 0.047607 0.544678 0.032227 0.644775 0.030518 0.373291 0.933594 0.333496 0.880371 0.423828 0.897949 0.333496 0.880371 0.373291 0.933594 0.306641 0.908447 0.306641 0.908447 0.373291 0.933594 0.297119 0.936035 0.333496 0.880371 0.306641 0.908447 0.280273 0.902832 0.280273 0.902832 0.306641 0.908447 0.297119 0.936035 0.333496 0.880371 0.280273 0.902832 0.291504 0.866699 0.333496 0.880371 0.291504 0.866699 0.313965 0.819824 0.291504 0.866699 0.280273 0.902832 0.259521 0.883301 0.259521 0.883301 0.280273 0.902832 0.250977 0.919434 0.250977 0.919434 0.280273 0.902832 0.297119 0.936035 0.250977 0.919434 0.297119 0.936035 0.268311 0.941895 0.429688 0.896484 0.4021 0.848633 0.443115 0.848877 0.429688 0.896484 0.443115 0.848877 0.474609 0.887451 0.443115 0.848877 0.4021 0.848633 0.384766 0.799072 0.443115 0.848877 0.384766 0.799072 0.47998 0.802002 0.384766 0.799072 0.4021 0.848633 0.328125 0.832275 0.122803 0.858398 0.084961 0.921387 0.103516 0.822998 0.122803 0.858398 0.103516 0.822998 0.15918 0.801025 0.103516 0.822998 0.084961 0.921387 0.077148 0.837891 0.103516 0.822998 0.077148 0.837891 0.059082 0.772949 0.035156 0.444092 0.029541 0.400879 0.050537 0.393066 0.035156 0.444092 0.050537 0.393066 0.075928 0.478271 0.075928 0.478271 0.050537 0.393066 0.102051 0.42749 0.102051 0.42749 0.050537 0.393066 0.06958 0.362793 0.06958 0.362793 0.050537 0.393066 0.050293 0.351807 0.102051 0.42749 0.06958 0.362793 0.119873 0.412842 0.102051 0.42749 0.119873 0.412842 0.162109 0.43457 0.162109 0.43457 0.119873 0.412842 0.145752 0.371094 0.145752 0.371094 0.119873 0.412842 0.06958 0.362793 0.145752 0.371094 0.06958 0.362793 0.092773 0.344727 0.092773 0.344727 0.06958 0.362793 0.063477 0.309814 0.348633 0.312256 0.341553 0.394531 0.312256 0.373779 0.312256 0.373779 0.341553 0.394531 0.305176 0.431152 0.305176 0.431152 0.341553 0.394531 0.345947 0.458496 0.348633 0.312256 0.312256 0.373779 0.296875 0.311523 0.348633 0.312256 0.296875 0.311523 0.337646 0.261963 0.121094 0.01001 0.148682 0.056396 0.080322 0.016846 0.080322 0.016846 0.148682 0.056396 0.076172 0.052246 0.080322 0.016846 0.076172 0.052246 0.048096 0.008301 0.076172 0.052246 0.148682 0.056396 0.149658 0.094238 0.076172 0.052246 0.149658 0.094238 0.081055 0.089111 0.265381 0.975098 0.290771 0.943359 0.362549 0.981201 0.362549 0.981201 0.290771 0.943359 0.37793 0.938721 0.016602 0.59668 0.05957 0.565674 0.053955 0.602295 0.922363 0.959717 0.976318 0.905518 0.968018 0.947998 0.922363 0.959717 0.968018 0.947998 0.975098 0.977051 0.922363 0.959717 0.975098 0.977051 0.893555 1 0.976318 0.905518 0.922363 0.959717 0.937256 0.936035 0.937256 0.936035 0.922363 0.959717 0.913086 0.943115 0.937256 0.936035 0.913086 0.943115 0.976318 0.905518 0.976318 0.905518 0.913086 0.943115 0.915771 0.929688 0.796875 0.059082 0.951904 0.053711 0.959473 0.12085 0.10083 0.442871 0.168945 0.465332 0.111328 0.491943 0.111328 0.491943 0.168945 0.465332 0.244629 0.512207 0.448486 0.185303 0.352783 0.276123 0.421143 0.167236 0.448486 0.185303 0.421143 0.167236 0.473877 0.163818 0.448486 0.185303 0.473877 0.163818 0.498291 0.183838 0.498291 0.183838 0.473877 0.163818 0.486572 0.155029 0.498291 0.183838 0.486572 0.155029 0.506836 0.157227 0.473877 0.163818 0.421143 0.167236 0.448242 0.130127 0.473877 0.163818 0.448242 0.130127 0.486572 0.155029 0.486572 0.155029 0.448242 0.130127 0.506836 0.157227 0.448242 0.130127 0.421143 0.167236 0.383057 0.123291 0.506836 0.157227 0.448242 0.130127 0.529541 0.135742 0.529541 0.135742 0.448242 0.130127 0.491455 0.078369 0.491455 0.078369 0.448242 0.130127 0.443359 0.070801 0.529541 0.135742 0.491455 0.078369 0.548096 0.063477 0.529541 0.135742 0.548096 0.063477 0.562988 0.129883 0.743408 0.755127 0.800781 0.794922 0.770508 0.801514 0.770508 0.801514 0.800781 0.794922 0.811768 0.830322 0.770508 0.801514 0.811768 0.830322 0.776611 0.863037 0.743408 0.755127 0.770508 0.801514 0.719727 0.770996 0.770508 0.801514 0.776611 0.863037 0.750488 0.817139 0.770508 0.801514 0.750488 0.817139 0.719727 0.770996 0.750488 0.817139 0.776611 0.863037 0.731201 0.8479 0.750488 0.817139 0.731201 0.8479 0.719727 0.770996 0.719727 0.770996 0.731201 0.8479 0.697998 0.842773 0.719727 0.770996 0.697998 0.842773 0.658936 0.776611 0.658936 0.776611 0.697998 0.842773 0.651123 0.856689 0.658936 0.776611 0.651123 0.856689 0.615479 0.765625 0.615479 0.765625 0.651123 0.856689 0.612549 0.860107 0.304199 0.084229 0.274658 0.153076 0.253418 0.114258 0.253418 0.114258 0.274658 0.153076 0.195312 0.179688 0.304199 0.084229 0.253418 0.114258 0.264648 0.070312 0.253418 0.114258 0.195312 0.179688 0.168945 0.132812 0.264648 0.070312 0.253418 0.114258 0.217285 0.096436 0.217285 0.096436 0.253418 0.114258 0.168945 0.132812 0.227539 0.02832 0.27124 0.029053 0.264648 0.070312 0.227539 0.02832 0.264648 0.070312 0.211182 0.061035 0.211182 0.061035 0.264648 0.070312 0.217285 0.096436 0.227539 0.02832 0.211182 0.061035 0.155273 0.053223 0.155273 0.053223 0.211182 0.061035 0.158691 0.0979 0.158691 0.0979 0.211182 0.061035 0.217285 0.096436 0.158691 0.0979 0.217285 0.096436 0.168945 0.132812 0.158691 0.0979 0.168945 0.132812 0.147705 0.112061 0.158691 0.0979 0.147705 0.112061 0.12793 0.106689 0.147705 0.112061 0.168945 0.132812 0.122803 0.144287 0.847412 0.690186 0.933838 0.719727 0.916016 0.760498 0.916016 0.760498 0.933838 0.719727 0.959961 0.778076 0.847412 0.690186 0.916016 0.760498 0.82251 0.74707 0.82251 0.74707 0.916016 0.760498 0.887695 0.80835 0.82251 0.74707 0.887695 0.80835 0.781006 0.772705 0.933838 0.719727 0.847412 0.690186 0.872314 0.661133 0.933838 0.719727 0.872314 0.661133 0.977539 0.666992 0.977539 0.666992 0.872314 0.661133 0.908447 0.620361 0.894775 0.980469 0.755615 0.980469 0.820068 0.933838 0.540527 0.052979 0.461182 0.039551 0.517822 0 0.517822 0 0.461182 0.039551 0.42627 0.006348 0.461182 0.039551 0.540527 0.052979 0.484863 0.072021 0.464355 0.786865 0.37915 0.794922 0.375488 0.768555 0.375488 0.768555 0.37915 0.794922 0.342285 0.808594 0.375488 0.768555 0.342285 0.808594 0.313721 0.794189 0.375488 0.768555 0.313721 0.794189 0.357178 0.7229 0.313477 0.717285 0.325684 0.689453 0.357178 0.7229 0.313477 0.717285 0.357178 0.7229 0.30249 0.73291 0.30249 0.73291 0.357178 0.7229 0.313721 0.794189 0.30249 0.73291 0.313721 0.794189 0.28125 0.749512 0.28125 0.749512 0.313721 0.794189 0.26001 0.805664 0.28125 0.749512 0.26001 0.805664 0.228271 0.771484 0.630615 0.975342 0.620117 0.921387 0.656494 0.933594 0.656494 0.933594 0.620117 0.921387 0.706543 0.848633 0.630615 0.975342 0.656494 0.933594 0.676758 0.960449 0.656494 0.933594 0.706543 0.848633 0.718506 0.899414 0.656494 0.933594 0.718506 0.899414 0.676758 0.960449 0.676758 0.960449 0.718506 0.899414 0.718018 0.940918 0.676758 0.960449 0.718018 0.940918 0.704834 0.967529 0.718018 0.940918 0.718506 0.899414 0.755371 0.937256 0.704834 0.967529 0.718018 0.940918 0.738525 0.980469 0.718018 0.940918 0.755371 0.937256 0.785645 0.950439 0.718018 0.940918 0.785645 0.950439 0.738525 0.980469 0.318359 0.80542 0.266357 0.858887 0.239258 0.813477 0.239258 0.813477 0.266357 0.858887 0.216309 0.918213 0.239258 0.813477 0.216309 0.918213 0.177979 0.920654 0.239258 0.813477 0.177979 0.920654 0.123291 0.897705 0.239258 0.813477 0.123291 0.897705 0.178711 0.77417 0.239258 0.813477 0.178711 0.77417 0.202637 0.726074 0.202637 0.726074 0.178711 0.77417 0.155518 0.731934 0.363037 0.06665 0.369873 0.127441 0.309326 0.061279 0.309326 0.061279 0.369873 0.127441 0.310303 0.121338 0.369873 0.127441 0.363037 0.06665 0.382812 0.089844 0.382812 0.089844 0.363037 0.06665 0.417969 0.057617 0.382812 0.089844 0.417969 0.057617 0.396729 0.094971 0.382812 0.089844 0.396729 0.094971 0.369873 0.127441 0.310303 0.121338 0.369873 0.127441 0.369629 0.192871 0.310303 0.121338 0.369629 0.192871 0.278564 0.162842 0.278564 0.162842 0.369629 0.192871 0.354736 0.260498 0.278564 0.162842 0.354736 0.260498 0.274658 0.238525 0.616943 0.888672 0.599609 0.88208 0.60791 0.86499 0.60791 0.86499 0.599609 0.88208 0.587646 0.852539 0.587646 0.852539 0.599609 0.88208 0.576416 0.887939 0.587646 0.852539 0.576416 0.887939 0.573975 0.836426 0.573975 0.836426 0.576416 0.887939 0.523926 0.911133 0.573975 0.836426 0.523926 0.911133 0.505127 0.851074 0.573975 0.836426 0.505127 0.851074 0.562988 0.799072 0.505127 0.851074 0.523926 0.911133 0.462402 0.917969 0.060547 0.325928 0.024902 0.30542 0.017334 0.262939 0.017334 0.262939 0.024902 0.30542 0.000977 0.32666 0.000977 0.32666 0.024902 0.30542 0.060547 0.325928 0.001221 0.975342 0.041748 0.959229 0.067139 0.999023 0.990234 0.12207 0.990234 0.174805 0.920898 0.129639 0.802002 0.048828 0.714355 0.049316 0.745361 0.016357 0.802002 0.048828 0.745361 0.016357 0.790283 0.006104 0.876465 0.025635 0.836914 0.045654 0.794678 0.001953 0.11792 0.154541 0.077393 0.099121 0.099121 0.114014 0.077393 0.099121 0.11792 0.154541 0.101562 0.199219 0.077393 0.099121 0.101562 0.199219 0.059326 0.178223 0.077393 0.099121 0.059326 0.178223 0.032715 0.11792 0.077393 0.099121 0.032715 0.11792 0.067139 0.055664 0.032715 0.11792 0.059326 0.178223 0.029785 0.201904 0.189209 0.545898 0.227051 0.51709 0.225098 0.591309 0.189209 0.545898 0.225098 0.591309 0.180176 0.61377 0.180176 0.61377 0.225098 0.591309 0.21582 0.692139 0.189209 0.545898 0.180176 0.61377 0.148193 0.587402 0.189209 0.545898 0.148193 0.587402 0.148193 0.519531 0.919189 0.84375 0.982666 0.820312 0.988037 0.864258 0.982666 0.820312 0.919189 0.84375 0.929932 0.793213 0.064941 0.046875 0.014893 0.115723 0.01123 0.01001 0.477539 0.924561 0.54541 0.914307 0.544922 0.979492 0.477539 0.924561 0.544922 0.979492 0.46167 0.978027 0.477539 0.924561 0.46167 0.978027 0.429199 0.918213 0.930664 0.049561 0.846436 0.049561 0.909668 0.014893 0.082275 0.302002 0.042236 0.288574 0.056885 0.220459 0.082275 0.302002 0.056885 0.220459 0.116211 0.250244 0.082275 0.302002 0.116211 0.250244 0.116455 0.349365 0.116211 0.250244 0.056885 0.220459 0.091309 0.201172 0.98999 0.302002 0.967529 0.311279 0.9646 0.302246 0.967529 0.311279 0.98999 0.302002 0.986328 0.332031 0.967529 0.311279 0.986328 0.332031 0.958984 0.347168 0.967529 0.311279 0.958984 0.347168 0.951416 0.322021 0.982178 0.030762 0.942871 0.049316 0.946777 0.030273 0.946777 0.030273 0.942871 0.049316 0.915283 0.010986 0.946777 0.030273 0.915283 0.010986 0.982178 0.030762</float_array>
          <technique_common>
            <accessor source="#Stonefish-mesh-map-0-array" count="1464" stride="2">
              <param name="S" type="float"/>
              <param name="T" type="float"/>
            </accessor>
          </technique_common>
        </source>
        <vertices id="Stonefish-mesh-vertices">
          <input semantic="POSITION" source="#Stonefish-mesh-positions"/>
        </vertices>
        <polylist material="Material_-1-material" count="6">
          <input semantic="VERTEX" source="#Stonefish-mesh-vertices" offset="0"/>
          <input semantic="NORMAL" source="#Stonefish-mesh-normals" offset="1"/>
          <input semantic="TEXCOORD" source="#Stonefish-mesh-map-0" offset="2" set="0"/>
          <vcount>3 3 3 3 3 3 3 3 3 3 3 3 3 3 3 3 3 3 3 3 3 3 3 3 3 3 3 3 3 3 3 3 3 3 3 3 3 3 3 3 3 3 3 3 3 3 3 3 3 3 3 3 3 3 3 3 3 3 3 3 3 3 3 3 3 3 3 3 3 3 3 3 3 3 3 3 3 3 3 3 3 3 3 3 3 3 3 3 3 3 3 3 3 3 3 3 3 3 3 3 3 3 3 3 3 3 3 3 3 3 3 3 3 3 3 3 3 3 3 3 3 3 3 3 3 3 3 3 3 3 3 3 3 3 3 3 3 3 3 3 3 3 3 3 3 3 3 3 3 3 3 3 3 3 3 3 3 3 3 3 3 3 3 3 3 3 3 3 3 3 3 3 3 3 3 3 3 3 3 3 3 3 3 3 3 3 3 3 3 3 3 3 3 3 3 3 3 3 3 3 3 3 3 3 3 3 3 3 3 3 3 3 3 3 3 3 3 3 3 3 3 3 3 3 3 3 3 3 3 3 3 3 3 3 3 3 3 3 3 3 3 3 3 3 3 3 3 3 3 3 3 3 3 3 3 3 3 3 3 3 3 3 3 3 3 3 3 3 3 3 3 3 3 3 3 3 3 3 3 3 3 3 3 3 3 3 3 3 3 3 3 3 3 3 3 3 3 3 3 3 3 3 3 3 3 3 3 3 3 3 3 3 3 3 3 3 3 3 3 3 3 3 3 3 3 3 3 3 3 3 3 3 3 3 3 3 3 3 3 3 3 3 3 3 3 3 3 3 3 3 3 3 3 3 3 3 3 3 3 3 3 3 3 3 3 3 3 3 3 3 3 3 3 3 3 3 3 3 3 3 3 3 3 3 3 3 3 3 3 3 3 3 3 3 3 3 3 3 3 3 3 3 3 3 3 3 3 3 3 3 3 3 3 3 3 3 3 3 3 3 3 3 3 3 3 3 3 3 3 3 3 3 3 3 3 3 3 3 3 3 3 3 3 3 3 3 3 3 3 3 3 3 3 3 3 3 3 3 3 3 3 3 3 3 3 3 3 3 3 3 3 3 3 3 3 3 3 3 3 3 3 3 3 3 3 3 3 3</vcount>
          <p>0 0 0 1 0 1 2 0 2 0 1 3 2 1 4 3 1 5 3 2 6 2 2 7 4 2 8 4 3 9 2 3 10 1 3 11 1 4 12 0 4 13 5 4 14 5 5 15 0 5 16 6 5 17 5 6 18 6 6 19 7 6 20 4 7 21 1 7 22 8 7 23 4 8 24 8 8 25 9 8 26 9 9 27 8 9 28 10 9 29 0 10 30 3 10 31 11 10 32 11 11 33 3 11 34 12 11 35 0 12 36 11 12 37 6 12 38 11 13 39 12 13 40 13 13 41 13 14 42 12 14 43 14 14 44 13 15 45 14 15 46 15 15 47 11 16 48 13 16 49 16 16 50 16 17 51 13 17 52 15 17 53 11 18 54 16 18 55 6 18 56 16 19 57 15 19 58 17 19 59 6 20 60 16 20 61 7 20 62 7 21 63 16 21 64 17 21 65 7 22 66 17 22 67 18 22 68 7 23 69 18 23 70 19 23 71 1 24 72 20 24 73 8 24 74 8 25 75 20 25 76 10 25 77 20 26 78 1 26 79 5 26 80 10 27 81 20 27 82 21 27 83 21 28 84 20 28 85 5 28 86 10 29 87 21 29 88 19 29 89 21 30 90 5 30 91 7 30 92 22 31 93 23 31 94 24 31 95 23 32 96 22 32 97 25 32 98 25 33 99 22 33 100 26 33 101 26 34 102 22 34 103 27 34 104 27 35 105 22 35 106 24 35 107 27 36 108 24 36 109 28 36 110 29 37 111 30 37 112 31 37 113 31 38 114 30 38 115 32 38 116 30 39 117 29 39 118 33 39 119 30 40 120 33 40 121 32 40 122 33 41 123 29 41 124 34 41 125 32 42 126 33 42 127 35 42 128 32 43 129 35 43 130 36 43 131 33 44 132 34 44 133 37 44 134 37 45 135 34 45 136 38 45 137 35 46 138 33 46 139 39 46 140 39 47 141 33 47 142 37 47 143 35 48 144 39 48 145 26 48 146 26 49 147 39 49 148 25 49 149 25 50 150 39 50 151 37 50 152 25 51 153 37 51 154 23 51 155 23 52 156 37 52 157 24 52 158 24 53 159 37 53 160 28 53 161 29 54 162 31 54 163 40 54 164 41 55 165 42 55 166 40 55 167 40 56 168 42 56 169 43 56 170 40 57 171 43 57 172 29 57 173 29 58 174 43 58 175 44 58 176 44 59 177 43 59 178 45 59 179 29 60 180 44 60 181 46 60 182 44 61 183 45 61 184 47 61 185 46 62 186 44 62 187 48 62 188 48 63 189 44 63 190 47 63 191 48 64 192 47 64 193 49 64 194 46 65 195 48 65 196 50 65 197 50 66 198 48 66 199 49 66 200 50 67 201 49 67 202 51 67 203 50 68 204 51 68 205 52 68 206 50 69 207 52 69 208 53 69 209 52 70 210 51 70 211 54 70 212 53 71 213 52 71 214 55 71 215 52 72 216 54 72 217 56 72 218 52 73 219 56 73 220 55 73 221 56 74 222 54 74 223 57 74 224 55 75 225 56 75 226 58 75 227 58 76 228 56 76 229 57 76 230 58 77 231 57 77 232 59 77 233 58 78 234 59 78 235 60 78 236 60 79 237 59 79 238 61 79 239 59 80 240 57 80 241 62 80 242 61 81 243 59 81 244 63 81 245 63 82 246 59 82 247 62 82 248 63 83 249 62 83 250 64 83 251 63 84 252 64 84 253 65 84 254 65 85 255 64 85 256 66 85 257 31 86 258 41 86 259 40 86 260 41 87 261 31 87 262 67 87 263 41 88 264 67 88 265 68 88 266 67 89 267 31 89 268 69 89 269 68 90 270 67 90 271 70 90 272 70 91 273 67 91 274 69 91 275 68 92 276 70 92 277 71 92 278 70 93 279 69 93 280 72 93 281 70 94 282 72 94 283 73 94 284 70 95 285 73 95 286 74 95 287 74 96 288 73 96 289 75 96 290 74 97 291 75 97 292 76 97 293 76 98 294 75 98 295 77 98 296 77 99 297 75 99 298 78 99 299 77 100 300 78 100 301 79 100 302 77 101 303 79 101 304 80 101 305 77 102 306 80 102 307 76 102 308 76 103 309 80 103 310 81 103 311 81 104 312 80 104 313 82 104 314 46 105 315 34 105 316 29 105 317 34 106 318 46 106 319 83 106 320 34 107 321 83 107 322 84 107 323 83 108 324 46 108 325 50 108 326 84 109 327 83 109 328 85 109 329 83 110 330 50 110 331 86 110 332 85 111 333 83 111 334 87 111 335 83 112 336 86 112 337 88 112 338 83 113 339 88 113 340 87 113 341 31 114 342 32 114 343 69 114 344 69 115 345 32 115 346 89 115 347 89 116 348 32 116 349 90 116 350 69 117 351 89 117 352 91 117 353 69 118 354 91 118 355 72 118 356 72 119 357 91 119 358 92 119 359 72 120 360 92 120 361 73 120 362 73 121 363 92 121 364 75 121 365 75 122 366 92 122 367 93 122 368 75 123 369 93 123 370 78 123 371 78 124 372 93 124 373 94 124 374 78 125 375 94 125 376 95 125 377 95 126 378 94 126 379 96 126 380 78 127 381 95 127 382 79 127 383 95 128 384 96 128 385 97 128 386 95 129 387 97 129 388 79 129 389 79 130 390 97 130 391 80 130 392 80 131 393 97 131 394 98 131 395 80 132 396 98 132 397 99 132 398 80 133 399 99 133 400 82 133 401 99 134 402 98 134 403 100 134 404 82 135 405 99 135 406 101 135 407 101 136 408 99 136 409 100 136 410 82 137 411 101 137 412 102 137 413 101 138 414 100 138 415 103 138 416 101 139 417 103 139 418 102 139 419 102 140 420 103 140 421 104 140 422 104 141 423 103 141 424 105 141 425 102 142 426 104 142 427 106 142 428 27 143 429 107 143 430 35 143 431 27 144 432 35 144 433 26 144 434 107 145 435 27 145 436 28 145 437 107 146 438 28 146 439 108 146 440 108 147 441 28 147 442 37 147 443 35 148 444 107 148 445 36 148 446 36 149 447 107 149 448 108 149 449 36 150 450 108 150 451 109 150 452 36 151 453 109 151 454 110 151 455 110 152 456 109 152 457 111 152 458 36 153 459 110 153 460 90 153 461 90 154 462 110 154 463 112 154 464 84 155 465 38 155 466 34 155 467 38 156 468 84 156 469 113 156 470 113 157 471 84 157 472 85 157 473 113 158 474 85 158 475 87 158 476 113 159 477 87 159 478 88 159 479 113 160 480 88 160 481 114 160 482 114 161 483 88 161 484 86 161 485 36 162 486 90 162 487 32 162 488 108 163 489 37 163 490 38 163 491 108 164 492 38 164 493 115 164 494 108 165 495 115 165 496 116 165 497 108 166 498 116 166 499 109 166 500 109 167 501 116 167 502 117 167 503 116 168 504 115 168 505 118 168 506 118 169 507 115 169 508 119 169 509 119 170 510 115 170 511 114 170 512 119 171 513 114 171 514 120 171 515 3 172 516 4 172 517 121 172 518 3 173 519 121 173 520 12 173 521 12 174 522 121 174 523 122 174 524 122 175 525 121 175 526 123 175 527 123 176 528 121 176 529 4 176 530 123 177 531 4 177 532 9 177 533 123 178 534 9 178 535 124 178 536 43 179 537 125 179 538 45 179 539 125 180 540 43 180 541 42 180 542 45 181 543 125 181 544 126 181 545 45 182 546 126 182 547 47 182 548 126 183 549 125 183 550 127 183 551 47 184 552 126 184 553 128 184 554 128 185 555 126 185 556 127 185 557 47 186 558 128 186 559 49 186 560 128 187 561 127 187 562 129 187 563 129 188 564 127 188 565 130 188 566 129 189 567 130 189 568 131 189 569 129 190 570 131 190 571 128 190 572 49 191 573 128 191 574 132 191 575 132 192 576 128 192 577 131 192 578 49 193 579 132 193 580 51 193 581 51 194 582 132 194 583 54 194 584 54 195 585 132 195 586 133 195 587 133 196 588 132 196 589 131 196 590 133 197 591 131 197 592 134 197 593 15 198 594 14 198 595 135 198 596 15 199 597 135 199 598 136 199 599 136 200 600 135 200 601 42 200 602 42 201 603 135 201 604 125 201 605 125 202 606 135 202 607 137 202 608 137 203 609 135 203 610 14 203 611 125 204 612 137 204 613 138 204 614 138 205 615 137 205 616 14 205 617 138 206 618 14 206 619 12 206 620 138 207 621 12 207 622 122 207 623 138 208 624 122 208 625 139 208 626 139 209 627 122 209 628 140 209 629 140 210 630 122 210 631 141 210 632 117 211 633 111 211 634 109 211 635 42 212 636 41 212 637 136 212 638 136 213 639 41 213 640 142 213 641 136 214 642 142 214 643 17 214 644 136 215 645 17 215 646 15 215 647 143 216 648 144 216 649 111 216 650 111 217 651 144 217 652 110 217 653 110 218 654 144 218 655 112 218 656 143 219 657 111 219 658 145 219 659 145 220 660 111 220 661 146 220 662 145 221 663 146 221 664 147 221 665 143 222 666 145 222 667 148 222 668 143 223 669 148 223 670 144 223 671 148 224 672 145 224 673 147 224 674 112 225 675 144 225 676 149 225 677 149 226 678 144 226 679 148 226 680 149 227 681 148 227 682 147 227 683 112 228 684 149 228 685 150 228 686 149 229 687 147 229 688 151 229 689 149 230 690 151 230 691 150 230 692 151 231 693 147 231 694 152 231 695 150 232 696 151 232 697 153 232 698 151 233 699 152 233 700 154 233 701 151 234 702 154 234 703 153 234 704 153 235 705 154 235 706 155 235 707 155 236 708 154 236 709 156 236 710 156 237 711 154 237 712 157 237 713 155 238 714 156 238 715 158 238 716 155 239 717 158 239 718 159 239 719 158 240 720 156 240 721 160 240 722 158 241 723 160 241 724 161 241 725 9 242 726 10 242 727 124 242 728 124 243 729 10 243 730 162 243 731 162 244 732 10 244 733 19 244 734 68 245 735 142 245 736 41 245 737 142 246 738 68 246 739 71 246 740 118 247 741 117 247 742 116 247 743 117 248 744 118 248 745 163 248 746 163 249 747 118 249 748 164 249 749 164 250 750 118 250 751 119 250 752 163 251 753 164 251 754 165 251 755 90 252 756 91 252 757 89 252 758 91 253 759 90 253 760 166 253 761 166 254 762 90 254 763 112 254 764 166 255 765 112 255 766 150 255 767 91 256 768 166 256 769 167 256 770 166 257 771 150 257 772 168 257 773 166 258 774 168 258 775 167 258 776 91 259 777 167 259 778 92 259 779 168 260 780 150 260 781 153 260 782 92 261 783 167 261 784 169 261 785 92 262 786 169 262 787 93 262 788 93 263 789 169 263 790 94 263 791 94 264 792 169 264 793 170 264 794 94 265 795 170 265 796 96 265 797 96 266 798 170 266 799 171 266 800 171 267 801 170 267 802 169 267 803 96 268 804 171 268 805 97 268 806 97 269 807 171 269 808 98 269 809 172 270 810 169 270 811 167 270 812 169 271 813 172 271 814 171 271 815 172 272 816 167 272 817 168 272 818 98 273 819 171 273 820 173 273 821 173 274 822 171 274 823 172 274 824 173 275 825 172 275 826 168 275 827 98 276 828 173 276 829 100 276 830 173 277 831 168 277 832 174 277 833 173 278 834 174 278 835 100 278 836 174 279 837 168 279 838 153 279 839 100 280 840 174 280 841 159 280 842 174 281 843 153 281 844 155 281 845 174 282 846 155 282 847 159 282 848 38 283 849 113 283 850 115 283 851 115 284 852 113 284 853 114 284 854 17 285 855 142 285 856 175 285 857 17 286 858 175 286 859 18 286 860 18 287 861 175 287 862 176 287 863 176 288 864 175 288 865 177 288 866 18 289 867 176 289 868 178 289 869 18 290 870 178 290 871 19 290 872 19 291 873 178 291 874 162 291 875 142 292 876 71 292 877 177 292 878 142 293 879 177 293 880 175 293 881 177 294 882 71 294 883 179 294 884 177 295 885 179 295 886 176 295 887 117 296 888 146 296 889 111 296 890 146 297 891 117 297 892 180 297 893 180 298 894 117 298 895 163 298 896 146 299 897 180 299 898 181 299 899 181 300 900 180 300 901 163 300 902 146 301 903 181 301 904 152 301 905 146 302 906 152 302 907 147 302 908 152 303 909 181 303 910 182 303 911 182 304 912 181 304 913 183 304 914 183 305 915 181 305 916 163 305 917 183 306 918 163 306 919 165 306 920 184 307 921 185 307 922 139 307 923 184 308 924 139 308 925 134 308 926 139 309 927 185 309 928 125 309 929 139 310 930 125 310 931 138 310 932 125 311 933 185 311 934 127 311 935 185 312 936 184 312 937 130 312 938 185 313 939 130 313 940 127 313 941 130 314 942 184 314 943 134 314 944 130 315 945 134 315 946 131 315 947 134 316 948 139 316 949 140 316 950 134 317 951 140 317 952 133 317 953 133 318 954 140 318 955 186 318 956 186 319 957 140 319 958 187 319 959 187 320 960 140 320 961 141 320 962 186 321 963 187 321 964 188 321 965 186 322 966 188 322 967 189 322 968 189 323 969 188 323 970 190 323 971 190 324 972 188 324 973 187 324 974 190 325 975 187 325 976 191 325 977 191 326 978 187 326 979 192 326 980 114 327 981 86 327 982 193 327 983 193 328 984 86 328 985 53 328 986 53 329 987 86 329 988 50 329 989 114 330 990 193 330 991 194 330 992 114 331 993 194 331 994 120 331 995 122 332 996 123 332 997 141 332 998 141 333 999 123 333 1000 192 333 1001 141 334 1002 192 334 1003 187 334 1004 192 335 1005 123 335 1006 124 335 1007 192 336 1008 124 336 1009 195 336 1010 179 337 1011 196 337 1012 176 337 1013 176 338 1014 196 338 1015 197 338 1016 195 339 1017 124 339 1018 162 339 1019 74 340 1020 196 340 1021 179 340 1022 74 341 1023 179 341 1024 71 341 1025 74 342 1026 71 342 1027 70 342 1028 196 343 1029 74 343 1030 198 343 1031 198 344 1032 74 344 1033 76 344 1034 198 345 1035 76 345 1036 196 345 1037 196 346 1038 76 346 1039 81 346 1040 164 347 1041 119 347 1042 199 347 1043 119 348 1044 120 348 1045 199 348 1046 199 349 1047 120 349 1048 194 349 1049 164 350 1050 199 350 1051 200 350 1052 164 351 1053 200 351 1054 201 351 1055 164 352 1056 201 352 1057 165 352 1058 165 353 1059 201 353 1060 202 353 1061 165 354 1062 202 354 1063 183 354 1064 201 355 1065 200 355 1066 203 355 1067 201 356 1068 203 356 1069 202 356 1070 202 357 1071 203 357 1072 183 357 1073 203 358 1074 200 358 1075 204 358 1076 183 359 1077 203 359 1078 182 359 1079 182 360 1080 203 360 1081 157 360 1082 157 361 1083 203 361 1084 205 361 1085 182 362 1086 157 362 1087 154 362 1088 182 363 1089 154 363 1090 152 363 1091 54 364 1092 133 364 1093 206 364 1094 206 365 1095 133 365 1096 186 365 1097 206 366 1098 186 366 1099 189 366 1100 54 367 1101 206 367 1102 57 367 1103 206 368 1104 189 368 1105 207 368 1106 206 369 1107 207 369 1108 57 369 1109 207 370 1110 189 370 1111 208 370 1112 207 371 1113 208 371 1114 57 371 1115 57 372 1116 208 372 1117 209 372 1118 57 373 1119 209 373 1120 62 373 1121 62 374 1122 209 374 1123 210 374 1124 62 375 1125 210 375 1126 64 375 1127 64 376 1128 210 376 1129 66 376 1130 194 377 1131 193 377 1132 211 377 1133 211 378 1134 193 378 1135 53 378 1136 194 379 1137 211 379 1138 212 379 1139 211 380 1140 53 380 1141 55 380 1142 212 381 1143 211 381 1144 213 381 1145 213 382 1146 211 382 1147 55 382 1148 214 383 1149 215 383 1150 212 383 1151 214 384 1152 212 384 1153 216 384 1154 216 385 1155 212 385 1156 213 385 1157 214 386 1158 216 386 1159 217 386 1160 217 387 1161 216 387 1162 218 387 1163 218 388 1164 216 388 1165 213 388 1166 218 389 1167 213 389 1168 55 389 1169 218 390 1170 55 390 1171 60 390 1172 218 391 1173 60 391 1174 61 391 1175 60 392 1176 55 392 1177 58 392 1178 209 393 1179 191 393 1180 219 393 1181 219 394 1182 191 394 1183 192 394 1184 209 395 1185 219 395 1186 210 395 1187 210 396 1188 219 396 1189 220 396 1190 210 397 1191 220 397 1192 66 397 1193 191 398 1194 209 398 1195 208 398 1196 191 399 1197 208 399 1198 190 399 1199 190 400 1200 208 400 1201 189 400 1202 200 401 1203 199 401 1204 204 401 1205 219 402 1206 195 402 1207 220 402 1208 220 403 1209 195 403 1210 162 403 1211 195 404 1212 219 404 1213 192 404 1214 199 405 1215 194 405 1216 221 405 1217 221 406 1218 194 406 1219 212 406 1220 221 407 1221 212 407 1222 215 407 1223 221 408 1224 215 408 1225 222 408 1226 223 409 1227 224 409 1228 222 409 1229 223 410 1230 222 410 1231 225 410 1232 225 411 1233 222 411 1234 215 411 1235 225 412 1236 215 412 1237 226 412 1238 226 413 1239 215 413 1240 227 413 1241 226 414 1242 227 414 1243 228 414 1244 204 415 1245 199 415 1246 229 415 1247 229 416 1248 199 416 1249 221 416 1250 204 417 1251 229 417 1252 230 417 1253 229 418 1254 221 418 1255 222 418 1256 229 419 1257 222 419 1258 230 419 1259 230 420 1260 222 420 1261 231 420 1262 230 421 1263 231 421 1264 232 421 1265 231 422 1266 222 422 1267 224 422 1268 232 423 1269 231 423 1270 161 423 1271 231 424 1272 224 424 1273 233 424 1274 231 425 1275 233 425 1276 161 425 1277 203 426 1278 204 426 1279 205 426 1280 205 427 1281 204 427 1282 230 427 1283 205 428 1284 230 428 1285 232 428 1286 205 429 1287 232 429 1288 161 429 1289 205 430 1290 161 430 1291 160 430 1292 205 431 1293 160 431 1294 157 431 1295 157 432 1296 160 432 1297 156 432 1298 214 433 1299 61 433 1300 215 433 1301 215 434 1302 61 434 1303 227 434 1304 61 435 1305 214 435 1306 234 435 1307 234 436 1308 214 436 1309 217 436 1310 234 437 1311 217 437 1312 218 437 1313 234 438 1314 218 438 1315 61 438 1316 227 439 1317 61 439 1318 63 439 1319 227 440 1320 63 440 1321 228 440 1322 228 441 1323 63 441 1324 65 441 1325 228 442 1326 65 442 1327 106 442 1328 223 443 1329 225 443 1330 235 443 1331 235 444 1332 225 444 1333 236 444 1334 236 445 1335 225 445 1336 226 445 1337 236 446 1338 226 446 1339 233 446 1340 233 447 1341 226 447 1342 228 447 1343 233 448 1344 228 448 1345 104 448 1346 233 449 1347 104 449 1348 105 449 1349 104 450 1350 228 450 1351 106 450 1352 233 451 1353 237 451 1354 236 451 1355 236 452 1356 237 452 1357 238 452 1358 238 453 1359 237 453 1360 233 453 1361 239 454 1362 240 454 1363 241 454 1364 7 455 1365 19 455 1366 21 455 1367 197 456 1368 196 456 1369 242 456 1370 197 457 1371 242 457 1372 176 457 1373 242 458 1374 196 458 1375 81 458 1376 242 459 1377 178 459 1378 176 459 1379 178 460 1380 242 460 1381 243 460 1382 178 461 1383 243 461 1384 244 461 1385 178 462 1386 244 462 1387 220 462 1388 178 463 1389 220 463 1390 162 463 1391 220 464 1392 244 464 1393 66 464 1394 243 465 1395 242 465 1396 81 465 1397 243 466 1398 81 466 1399 245 466 1400 245 467 1401 81 467 1402 82 467 1403 243 468 1404 245 468 1405 246 468 1406 243 469 1407 246 469 1408 244 469 1409 159 470 1410 103 470 1411 100 470 1412 103 471 1413 159 471 1414 105 471 1415 102 472 1416 245 472 1417 82 472 1418 105 473 1419 159 473 1420 158 473 1421 105 474 1422 158 474 1423 161 474 1424 105 475 1425 161 475 1426 233 475 1427 244 476 1428 246 476 1429 66 476 1430 246 477 1431 245 477 1432 102 477 1433 246 478 1434 102 478 1435 65 478 1436 246 479 1437 65 479 1438 66 479 1439 65 480 1440 102 480 1441 106 480 1442 224 481 1443 238 481 1444 233 481 1445 238 482 1446 224 482 1447 223 482 1448 238 483 1449 223 483 1450 235 483 1451 238 484 1452 235 484 1453 236 484 1454 239 485 1455 240 485 1456 247 485 1457 247 486 1458 240 486 1459 241 486 1460 247 487 1461 241 487 1462 239 487 1463</p>
        </polylist>
      </mesh>
    </geometry>
  </library_geometries>
  <library_visual_scenes>
    <visual_scene id="Scene" name="Scene">
      <node id="Stonefish" name="Stonefish" type="NODE">
        <scale sid="scale">1 1 1</scale>
        <translate sid="location">0 0 0</translate>
        <rotate sid="rotationX">1 0 0 17.499999999999993</rotate>
        <rotate sid="rotationY">0 1 0 89.99999852122068</rotate>
        <rotate sid="rotationZ">0 0 1 0</rotate>
        <instance_geometry url="#Stonefish-mesh" name="Stonefish">
          <bind_material>
            <technique_common>
            </technique_common>
          </bind_material>
        </instance_geometry>
      </node>
    </visual_scene>
  </library_visual_scenes>
  <scene>
    <instance_visual_scene url="#Scene"/>
  </scene>
</COLLADA>
