<?xml version="1.0" encoding="utf-8"?>
<COLLADA xmlns="http://www.collada.org/2005/11/COLLADASchema" version="1.4.1" xmlns:xsi="http://www.w3.org/2001/XMLSchema-instance">
  <asset>
    <contributor>
      <author>Blockbench user</author>
      <authoring_tool>Blockbench</authoring_tool>
    </contributor>
    <created>2026-03-08T05:30:42.301Z</created>
    <modified>2026-03-08T05:30:42.307Z</modified>
    <unit name="meter" meter="1.0"/>
    <up_axis>Y_UP</up_axis>
  </asset>
  <library_effects>
  </library_effects>
  <library_images>
  </library_images>
  <library_materials>
  </library_materials>
  <library_geometries>
    <geometry id="StrengthPill-mesh" name="StrengthPill">
      <mesh>
        <source id="StrengthPill-mesh-positions">
          <float_array id="StrengthPill-mesh-positions-array" count="756">-0.152603 -0.134735 -0.121231 -0.112518 -0.255615 -0.0439 -0.168549 -0.235443 -0.004772 -0.119377 -0.404144 0.105217 -0.088821 -0.161163 -0.14769 -0.112373 -0.143051 -0.148529 -0.117607 -0.132843 -0.131317 -0.161896 -0.12059 -0.122925 -0.204819 -0.077087 -0.059734 -0.195297 -0.097298 -0.093056 -0.043396 -0.159515 -0.15036 -0.211823 -0.091164 -0.066254 -0.237991 -0.039207 -0.010233 -0.229919 -0.114365 0.016645 -0.203232 -0.31308 0.129013 -0.169708 -0.390167 0.14682 -0.22963 -0.321594 0.226715 -0.018929 -0.174423 -0.157715 0.024258 -0.172821 -0.157761 0.033787 -0.25824 -0.074043 -0.039635 -0.295837 -0.036873 0.006247 -0.427032 0.08387 0.069847 -0.322906 -0.001634 -0.047344 -0.441467 0.106155 -0.004142 -0.162491 -0.168274 0.000547 -0.155151 -0.158493 0.052673 -0.156311 -0.148056 -0.068939 -0.094376 -0.221573 -0.032185 0.023115 -0.346588 -0.079117 0.113388 -0.422211 -0.10479 -0.03281 -0.263489 -0.129883 0.069656 -0.34845 -0.15535 -0.016964 -0.234009 -0.191681 0.141022 -0.343414 0.023722 -0.028612 -0.297699 -0.00675 0.125092 -0.450897 0.045837 0.107849 -0.429138 0.069458 -0.041142 -0.273438 0.086441 -0.151108 -0.157669 0.119087 0.085228 -0.371979 0.101456 -0.065025 -0.23349 0.135971 -0.096672 -0.174988 -0.223373 -0.060043 -0.052792 -0.220123 0.091156 -0.222458 -0.226471 0.209747 -0.317627 -0.235001 0.072395 -0.139374 -0.237198 -0.010834 -0.004357 -0.238434 0.226868 -0.257294 -0.239273 0.120659 -0.117531 -0.227768 0.040043 0.047756 -0.236359 0.170197 -0.122711 -0.23114 0.311096 -0.222107 -0.216324 0.242783 -0.102562 -0.190948 0.090652 0.094887 -0.187698 0.252594 -0.04948 -0.163071 0.115219 0.114128 -0.154358 0.256989 -0.00685 -0.212479 0.034534 0.049408 -0.231018 0.027018 0.056026 -0.215988 0.054955 0.081337 -0.215195 -0.056145 0.201157 -0.230377 -0.187973 0.28006 -0.239182 -0.103165 0.131699 -0.239883 -0.259705 0.245361 0.090614 -0.160706 -0.147308 0.113579 -0.255066 -0.041962 0.146713 -0.138107 -0.125198 0.121101 -0.135788 -0.129166 0.172073 -0.235962 -0.001874 0.14151 -0.394562 0.11425 0.21051 -0.316254 0.149963 0.194901 -0.110321 -0.085312 0.212173 -0.115906 -0.041153 0.216965 -0.083015 -0.05999 0.202271 -0.075378 -0.059845 0.166016 -0.108482 -0.099503 0.164536 -0.118706 -0.120575 0.204391 -0.088394 -0.083382 0.114243 -0.13353 -0.137909 0.161591 0.046719 -0.29248 0.193619 0.087189 -0.285431 0.148911 0.15477 -0.41275 0.221436 0.116173 -0.245453 0.233597 0.038609 -0.115669 0.236618 -0.021311 -0.013307 0.237289 0.24057 -0.283325 0.240112 0.116302 -0.11393 0.234787 -0.128311 0.053909 0.232254 -0.31134 0.228561 0.237747 -0.260468 0.287201 0.239182 -0.131561 0.164886 0.235641 -0.044563 -0.014451 0.23999 -0.092606 0.073769 0.236984 0.004641 0.034565 0.224915 -0.134171 0.250854 0.220886 0.014381 0.02553 0.221634 0.052494 0.061192 0.17041 0.10717 0.111717 0.200684 0.061737 0.085114 0.120285 0.129959 0.141266 0.222763 0.043129 0.071274 0.184464 0.092361 0.117363 0.133316 0.126389 0.147659 0.165695 -0.011976 0.25354 0.206253 -0.060726 0.231171 0.200195 -0.184433 0.365723 0.169754 -0.143204 0.382538 -0.150421 0.164963 -0.419861 -0.202896 0.230042 -0.385651 -0.233383 0.268524 -0.315765 -0.198807 0.339386 -0.375427 -0.227539 0.330261 -0.288422 -0.168243 0.30014 -0.430176 -0.160736 0.386353 -0.397095 -0.16571 0.218536 -0.429993 -0.070732 0.1754 -0.47113 -0.121948 0.269623 -0.470001 -0.081543 0.35965 -0.469513 -0.100044 0.415009 -0.420349 -0.002465 0.438141 -0.43045 0.047306 0.376312 -0.472351 -0.039944 0.286194 -0.499268 0.028286 0.296417 -0.500183 0.002485 0.201645 -0.491669 0.082596 0.143845 -0.447083 0.08313 0.224472 -0.484589 0.128189 0.220963 -0.459625 0.203796 0.208923 -0.381012 0.137802 0.316528 -0.454742 0.172531 0.290039 -0.429199 0.21199 0.273773 -0.377747 0.223389 0.23848 -0.342438 0.181534 0.380798 -0.370117 0.227997 0.30722 -0.317535 0.213623 0.369263 -0.271393 0.233124 0.306061 -0.241638 0.119644 0.394226 -0.426086 0.142975 0.438446 -0.347626 0.079681 0.438934 -0.406281 -0.198593 0.396545 -0.276337 -0.191574 0.37442 -0.175583 -0.136032 0.457886 -0.299255 -0.161346 0.434052 -0.214844 -0.152267 0.41687 -0.153824 -0.11718 0.465729 -0.218063 -0.119339 0.450317 -0.35614 -0.040539 0.470642 -0.380249 0.021559 0.483826 -0.36084 0.009475 0.502747 -0.270081 -0.073349 0.484772 -0.315979 -0.072937 0.488281 -0.22818 -0.005981 0.490845 -0.191254 -0.058273 0.468048 -0.154114 -0.083817 0.427124 -0.107346 -0.117111 0.321533 -0.030607 -0.024857 0.432648 -0.091904 -0.046238 0.305542 0.017376 0.091927 0.475861 -0.327881 0.074715 0.48703 -0.218536 0.125137 0.466675 -0.265167 0.168533 0.429565 -0.302063 0.132034 0.444672 -0.174866 0.190262 0.401337 -0.228363 0.052074 0.464996 -0.14563 0.217957 0.328003 -0.187057 0.232162 0.139191 -0.067291 0.181046 0.373688 -0.148865 0.212204 0.216858 -0.067741 0.13858 0.419006 -0.142746 0.125488 0.284027 -0.002908 0.091492 0.415283 -0.100479 0.035313 0.438629 -0.100815 0.08596 0.296326 0.00981 0.033966 0.296906 0.027571 -0.116615 0.138245 0.136963 -0.100708 0.132919 0.140884 -0.055027 0.155701 0.15303 0.0438 0.158371 0.15387 0.000386 0.149155 0.157913 0.174835 0.205429 0.016552 -0.098839 -0.450073 0.150208 -0.140686 -0.443787 0.196228 -0.182373 -0.411072 0.230789 -0.118813 -0.467529 0.237381 -0.049229 -0.486176 0.188385 -0.062851 -0.493927 0.260986 0.011803 -0.473999 0.147034 0.004849 -0.501587 0.245682 0.069122 -0.480591 0.186218 0.084274 -0.431488 0.110901 -0.227158 -0.332031 0.265503 -0.194916 -0.390228 0.304932 -0.131348 -0.455383 0.303284 -0.135101 -0.432037 0.355927 -0.063126 -0.440491 0.409058 -0.125092 -0.37381 0.430634 -0.07515 -0.4729 0.343719 0.007867 -0.497101 0.306946 0.009662 -0.479156 0.359833 0.068306 -0.488831 0.295746 -0.226318 -0.264679 0.331665 0.132431 -0.449005 0.190674 0.175461 -0.385468 0.151337 0.118759 -0.469177 0.278809 0.19014 -0.398621 0.212326 0.174454 -0.423187 0.276611 0.106369 -0.447754 0.367462 0.016682 -0.44455 0.414764 0.104439 -0.399384 0.427032 0.009254 -0.400391 0.456177 0.15152 -0.387726 0.393372 0.171387 -0.30899 0.421692 0.189545 -0.379211 0.341583 0.214447 -0.323425 0.342163 0.212296 -0.36319 0.28299 0.226059 -0.242432 0.338501 -0.172089 -0.36084 0.393494 -0.214539 -0.319916 0.341614 -0.19101 -0.253754 0.404907 -0.121254 -0.306244 0.464508 -0.069778 -0.402191 0.442566 -0.032837 -0.32785 0.48996 -0.088943 -0.241455 0.486115 -0.214737 -0.193726 0.338867 -0.181595 -0.1595 0.377594 -0.191193 -0.022371 0.223877 -0.142426 -0.091362 0.363007 -0.155258 -0.212158 0.435822 -0.130035 -0.15242 0.42865 -0.101593 -0.091835 0.398224 -0.079048 -0.16304 0.46463 0.027178 -0.325348 0.491272 -0.007856 -0.233292 0.501038 -0.005895 -0.15126 0.473663 0.067169 -0.172592 0.474487 0.039539 -0.242554 0.497253 0.10215 -0.237823 0.478668 0.10421 -0.330841 0.468262 0.165955 -0.24559 0.434235 0.149246 -0.191971 0.433716 0.108757 -0.116898 0.419189 -0.16037 0.111404 0.134995 -0.164886 0.093475 0.107468 -0.103714 0.139221 0.158722 -0.061691 0.002798 0.321198 -0.06115 0.140137 0.18042 -0.002814 0.156311 0.172318 0.022825 0.094238 0.239059 0.035088 -0.076469 0.410217 0.108444 0.027166 0.272675 0.079521 0.147049 0.164841 -0.032356 -0.095238 0.429779</float_array>
          <technique_common>
            <accessor source="#StrengthPill-mesh-positions-array" count="252" stride="3">
              <param name="X" type="float"/>
              <param name="Y" type="float"/>
              <param name="Z" type="float"/>
            </accessor>
          </technique_common>
        </source>
        <source id="StrengthPill-mesh-normals">
          <float_array id="StrengthPill-mesh-normals-array" count="1500">-0.599806 -0.562774 -0.568787 -0.601825 -0.551818 -0.577325 -0.505296 -0.577674 -0.641068 -0.151614 -0.86971 0.469699 -0.143995 -0.858076 0.492921 -0.179625 -0.863033 0.472132 -0.252988 0.589334 -0.767256 -0.272526 -0.073315 -0.959351 -0.335504 0.528209 -0.78002 -0.437853 0.547974 -0.712748 -0.763451 -0.433142 -0.479094 -0.945488 -0.194858 -0.260925 -0.783583 -0.427238 -0.451071 -0.918181 -0.28114 -0.279112 -0.772549 -0.441405 -0.456431 -0.920928 -0.278085 -0.273058 -0.06845 0.618509 -0.782791 -0.067614 0.349983 -0.934313 -0.016561 0.420392 -0.907191 0.025141 -0.698307 -0.715357 -0.228271 -0.666977 -0.709248 0.002642 -0.705659 -0.708547 -0.303848 -0.669071 -0.678248 -0.021711 -0.68113 -0.731841 0.179783 -0.687533 -0.703545 -0.298228 -0.660736 -0.688831 -0.333346 -0.660268 -0.672998 -0.031116 -0.792228 0.609432 -0.048759 -0.865522 0.498492 -0.194391 0.151124 -0.969213 0.038992 -0.952937 -0.300651 -0.247295 -0.732001 -0.634839 -0.156003 -0.696473 -0.70042 -0.19065 -0.686738 -0.701458 -0.354589 -0.658456 -0.663854 -0.365134 -0.659782 -0.656784 -0.399654 -0.641115 -0.655171 -0.53645 -0.591165 -0.602283 -0.53231 -0.613781 -0.583026 -0.565716 -0.586079 -0.580067 -0.652876 -0.526948 -0.544132 -0.748069 -0.462697 -0.475715 -0.713445 -0.502354 -0.488504 -0.012066 -0.693696 -0.720167 -0.041115 -0.70942 -0.703585 0.066334 -0.697757 -0.713256 0.173335 -0.702936 -0.689809 0.177223 -0.697496 -0.694328 0.169207 -0.702076 -0.691706 0.326634 -0.65763 -0.678847 0.351122 -0.652621 -0.671416 0.345092 -0.657675 -0.669608 0.473182 -0.627321 -0.618521 0.474732 -0.625968 -0.618703 -0.889746 -0.332177 -0.313065 -0.867023 -0.354585 -0.350058 -0.884302 -0.320111 -0.339909 -0.948211 -0.227902 -0.22126 -0.948078 -0.228377 -0.221343 -0.980067 -0.161599 -0.115563 -0.978112 -0.139556 -0.15434 -0.996472 -0.063224 -0.055188 -0.996495 -0.063617 -0.054326 -0.991524 0.075411 0.105797 -0.99713 0.063038 0.041918 -0.9923 0.069118 0.102781 -0.99672 0.067942 0.043977 -0.952344 0.198597 0.231517 -0.956435 0.206786 0.206085 -0.881746 0.312058 0.353757 -0.846273 0.363876 0.389123 -0.741387 0.454791 0.493467 -0.714804 0.478849 0.509665 -0.585753 -0.756313 0.291348 -0.418456 -0.694106 0.585757 -0.232283 -0.688103 0.687429 -0.309652 -0.651759 0.692333 -0.279625 -0.537464 0.795577 -0.473391 0.599001 -0.645831 -0.473312 0.717566 -0.510955 -0.928858 0.268551 0.255155 -0.933983 0.256472 0.248792 -0.212163 0.70226 -0.679572 -0.979864 0.142653 0.139699 -0.996585 0.078092 0.026827 -0.999952 -0.0024 -0.009472 -0.977641 -0.155588 -0.141461 0.229293 -0.666473 -0.709393 0.233255 -0.667256 -0.707363 0.388176 -0.642807 -0.660393 0.066319 0.418348 -0.905862 0.004018 0.501605 -0.865087 0.490551 -0.593233 -0.638306 0.077344 0.523253 -0.84866 0.176111 0.429426 -0.885764 0.58204 -0.574466 -0.575516 0.587077 -0.548838 -0.595078 0.763326 -0.470903 -0.442249 0.795461 -0.428866 -0.428154 0.707207 -0.475789 -0.522956 0.849095 -0.368285 -0.378687 0.859449 -0.342549 -0.379482 0.267535 0.530029 -0.80467 0.421291 0.42184 -0.802848 0.411544 0.478515 -0.775664 0.17581 0.577145 -0.797493 0.352622 -0.851389 0.388322 0.192018 -0.851393 0.488117 0.663003 -0.410453 -0.626064 0.117189 -0.896701 0.426843 0.372115 -0.785358 -0.494716 -0.01691 -0.735115 0.677732 0.193676 -0.088235 -0.97709 0.029977 -0.767393 0.640476 0.032316 -0.806791 0.589952 0.616713 -0.561909 -0.551293 0.528532 -0.653346 -0.542027 0.567345 -0.580195 -0.584374 0.725338 -0.489776 -0.48374 0.717001 -0.479271 -0.506172 0.766829 -0.463675 -0.443822 0.868632 -0.350117 -0.350566 0.926947 -0.277389 -0.252635 0.947022 -0.264203 -0.182607 0.962489 -0.183503 -0.199856 0.993679 -0.0816 -0.077093 0.993728 -0.081619 -0.076436 0.924526 -0.281708 -0.256694 0.933852 -0.250898 -0.254892 0.938038 -0.245939 -0.24413 0.997417 -0.056329 -0.044565 0.997908 -0.049997 -0.040984 0.954246 -0.194864 -0.226808 0.991764 -0.120709 -0.042812 0.991122 -0.089992 -0.097868 0.998778 0.041616 0.026649 0.999036 0.014129 -0.041556 0.970441 0.174837 0.16636 0.330938 0.649736 -0.684342 0.53001 -0.720963 0.446432 0.148135 -0.697543 0.701063 0.417377 0.579352 -0.700106 0.234259 -0.666674 0.70758 -0.008865 -0.683118 0.730254 0.955924 0.042202 0.290566 0.726871 0.636039 -0.259063 0.117877 0.699215 -0.705127 0.408107 -0.243291 0.879919 0.174653 0.712604 -0.679479 0.966057 0.189524 0.175541 0.217118 0.760038 -0.612538 0.275638 0.762452 -0.585398 0.390662 0.865743 -0.312844 0.665037 0.545739 0.509799 0.869501 0.368374 0.329043 0.904653 0.308622 0.293863 0.777908 0.442443 0.446211 0.89036 0.314461 0.329202 0.780484 0.450373 0.4336 -0.452368 -0.595149 -0.664199 -0.661476 -0.53576 -0.524796 -0.775191 -0.347859 -0.527326 -0.872137 -0.295051 -0.390284 -0.980435 -0.110128 -0.163152 -0.930847 -0.098316 -0.351935 -0.898476 0.074061 -0.432731 -0.933848 0.214995 -0.28584 -0.84441 0.08109 -0.529525 -0.72438 0.301052 -0.620195 -0.76466 -0.32362 -0.557284 -0.769204 -0.025308 -0.638502 -0.489387 -0.294879 -0.820699 -0.408333 -0.530691 -0.742719 -0.660348 -0.022181 -0.750632 -0.478147 -0.249813 -0.842003 -0.570962 0.336976 -0.748632 -0.534753 0.244387 -0.808897 -0.501334 0.474833 -0.723324 -0.222521 0.604754 -0.764694 -0.084945 0.511214 -0.855245 -0.214562 -0.586877 -0.78073 -0.170825 -0.6834 -0.709776 -0.064973 0.342819 -0.937152 -0.361181 0.167075 -0.917406 -0.304334 -0.154161 -0.940008 -0.063787 0.341806 -0.937603 -0.082767 -0.460674 -0.883702 -0.202271 -0.187889 -0.961137 0.000052 -0.08949 -0.995988 0.137453 -0.478488 -0.867269 0.120861 -0.121412 -0.985217 0.152534 -0.56129 -0.813441 0.321298 -0.664473 -0.674717 0.446323 -0.587272 -0.675209 0.563447 -0.584149 -0.584206 0.47425 -0.373909 -0.797044 0.195409 -0.41471 -0.888724 0.409161 -0.438551 -0.800163 0.671006 -0.276988 -0.687771 0.737324 -0.454238 -0.500021 0.484379 -0.004023 -0.874849 0.86875 -0.348732 -0.351652 0.369288 0.080846 -0.925792 0.702202 -0.143604 -0.697345 0.583833 -0.017254 -0.81169 0.334632 0.237971 -0.911807 0.78129 -0.067478 -0.62051 0.927308 -0.241541 -0.285932 0.915223 -0.095937 -0.39136 0.957458 -0.18853 -0.218474 0.803648 0.266623 -0.532035 0.710239 0.333218 -0.620102 0.960804 0.035213 -0.274984 0.878847 0.277748 -0.387922 0.973153 0.017894 -0.229463 0.889154 0.387283 -0.243758 0.96149 0.268017 -0.060858 0.992342 0.104761 -0.065435 0.998515 0.050509 0.020413 0.662643 0.390547 -0.639045 0.421934 0.39888 -0.814166 0.601988 0.605668 -0.520362 0.499482 0.682717 -0.533306 0.31654 0.606163 -0.729637 0.206822 0.65749 -0.724522 -0.994227 0.104632 -0.023749 -0.995382 0.09411 -0.018939 -0.918767 0.389781 0.062756 -0.871832 0.42509 -0.243326 -0.804255 0.515529 -0.295641 -0.885367 0.437323 0.157712 -0.892259 0.335429 0.302261 -0.722448 0.632261 -0.279847 -0.826944 0.534373 0.174954 -0.701824 0.712289 -0.00935 -0.771652 0.57297 0.276149 -0.755164 0.459709 0.467328 -0.541077 0.785047 0.301559 -0.579212 0.813256 0.055928 -0.706144 0.644607 -0.292989 -0.519485 0.673175 -0.52628 -0.360203 0.767498 -0.530283 -0.238473 0.72268 -0.648741 -0.006737 0.837075 -0.547047 -0.136469 0.966007 -0.219559 -0.335175 0.869704 -0.362315 -0.071667 0.965865 -0.248935 -0.436452 0.866198 -0.243332 -0.19162 0.980722 -0.038297 -0.401755 0.91509 -0.034687 -0.450708 0.892481 0.018438 -0.108155 0.985904 0.127654 -0.198283 0.934815 0.294626 -0.373683 0.873312 0.312551 -0.441903 0.813742 0.377552 -0.42516 0.783421 0.453311 -0.507125 0.605591 0.613257 -0.223357 0.790745 0.569942 -0.248257 0.655197 0.713502 0.162956 0.798119 -0.580045 0.303547 0.842835 -0.444396 0.191632 0.965596 -0.175788 0.413901 0.796919 -0.440006 0.274596 0.959995 -0.054834 0.103232 0.980322 0.168259 0.540582 0.824864 -0.165442 0.340005 0.939465 -0.042441 0.561583 0.812456 -0.156651 0.73707 0.608068 -0.294927 0.831234 0.514715 -0.210043 0.701322 0.703054 0.117743 0.499291 0.849806 0.168931 0.802889 0.59607 -0.008414 0.650043 0.753679 0.097016 0.35353 0.85935 0.369506 0.155495 0.931187 0.329717 0.888899 0.427875 0.163651 0.931199 0.344033 0.120458 0.962654 0.192912 0.189951 0.845752 0.465897 0.260082 0.848509 0.366186 0.382021 0.715629 0.629814 0.302007 0.737874 0.592566 0.323122 0.639057 0.522644 0.564313 0.510757 0.594179 0.621352 0.405978 0.752509 0.518567 0.382733 0.768788 0.512329 0.313503 0.762546 0.565897 -0.011429 0.863696 0.503883 0.265371 0.648843 0.713149 -0.016862 0.862545 0.505699 -0.012139 0.866255 0.499455 0.043034 0.670528 0.740635 -0.843755 0.372822 0.386111 -0.715077 0.478136 0.509952 -0.581577 0.554652 0.595087 -0.338693 0.620699 0.707121 -0.328554 0.636809 0.697514 -0.571332 0.55294 0.606496 -0.571901 0.552545 0.60632 -0.314382 -0.268655 0.910488 -0.246379 -0.022541 0.968911 -0.358602 0.637976 0.681463 -0.021806 0.671684 0.740517 -0.025643 0.654195 0.755891 -0.024457 0.672568 0.739631 -0.020441 0.480839 0.87657 0.248854 0.662111 0.706881 0.252594 0.648284 0.718279 0.407994 0.596805 0.690916 0.408307 0.610346 0.678795 0.349206 0.633944 0.690051 0.596012 0.537829 0.596247 0.619115 0.531775 0.577852 0.822435 0.376215 0.426689 0.9872 0.11246 0.113084 0.98845 0.075068 0.131648 0.989082 0.069792 0.129793 0.932301 0.241134 0.269573 0.939679 0.242864 0.240876 0.82751 0.37515 0.417719 0.627201 0.534129 0.566856 0.825456 0.379936 0.417458 -0.572494 -0.701287 -0.424791 -0.722333 -0.637632 -0.267695 -0.656965 -0.749325 -0.083121 -0.563997 -0.692639 -0.44962 -0.61814 -0.547754 -0.563797 -0.370351 -0.729234 -0.575376 -0.423986 -0.865311 -0.267344 -0.42371 -0.86366 -0.273059 -0.257302 -0.846473 -0.466132 -0.362593 -0.917055 -0.165939 -0.148767 -0.867329 -0.474983 0.010155 -0.963185 -0.268649 0.069908 -0.96196 -0.264095 0.242525 -0.834287 -0.495124 -0.030884 -0.803385 -0.594658 0.162317 -0.784937 -0.597935 -0.109288 -0.693556 -0.712064 0.200706 -0.692007 -0.693429 -0.852997 -0.461593 -0.243576 -0.880772 -0.468354 -0.069891 -0.858621 -0.435763 -0.269963 -0.871849 -0.489677 -0.009829 -0.712775 -0.697322 0.075458 -0.664706 -0.747021 0.011247 -0.689478 -0.679058 0.251993 -0.451992 -0.888622 0.077803 -0.499441 -0.649601 0.573216 -0.432798 -0.773363 0.463244 -0.486581 -0.810954 0.324951 -0.402055 -0.899894 0.168944 -0.183674 -0.958872 0.216397 -0.130436 -0.937527 0.322538 0.185067 -0.932508 0.310127 -0.094812 -0.992486 0.077345 0.147101 -0.986982 0.065024 -0.140684 -0.981328 -0.131164 0.249963 -0.965665 -0.070787 -0.984375 -0.12603 -0.122971 -0.985541 -0.168533 0.017461 -0.980405 -0.131691 0.146507 -0.985937 0.054185 0.158089 -0.99121 0.08061 0.104906 0.43725 -0.618534 -0.652862 0.499619 -0.732477 -0.462449 0.42678 -0.794455 -0.432088 0.621395 -0.671136 -0.404284 0.7269 -0.379455 -0.57239 0.449955 -0.883191 -0.132342 0.342254 -0.937147 -0.067953 0.8491 -0.435895 -0.29837 0.68867 -0.656699 -0.307376 0.893572 -0.389708 -0.22284 0.632946 -0.770246 -0.078105 0.677144 -0.727176 -0.112657 0.426551 -0.863741 0.268337 0.620145 -0.738341 0.265091 0.259928 -0.890948 0.372355 0.232272 -0.836068 0.497031 0.294407 -0.737214 0.608145 0.229998 -0.64486 0.728873 0.544587 -0.642373 0.539242 0.596449 -0.400658 0.695501 0.65632 -0.655165 0.374169 0.77486 -0.377806 0.506807 0.660222 -0.684218 0.309761 0.792053 -0.358696 0.493953 0.824664 -0.538531 0.172958 0.845694 -0.533663 0.00242 0.886585 -0.398205 0.23537 0.903474 -0.422664 -0.071351 0.962904 -0.238873 0.125523 0.866883 -0.102225 0.487918 0.960979 -0.247097 0.124346 0.956873 -0.125338 0.262077 0.97412 0.14978 0.16928 0.975373 0.144917 0.16627 0.403307 -0.645529 -0.648564 -0.724831 -0.575992 0.377961 -0.593102 -0.594573 0.542875 -0.836338 -0.418284 0.354369 -0.908523 -0.362219 0.208287 -0.96697 -0.172383 0.18776 -0.830054 -0.20206 0.51979 -0.8889 -0.109431 0.444838 -0.640461 -0.314814 0.700501 -0.718596 -0.198018 0.66664 -0.458208 -0.629012 0.628004 -0.383356 -0.396442 0.834189 -0.340371 -0.379367 0.860365 -0.308755 -0.158773 0.937796 -0.901863 0.104657 0.419153 -0.955149 0.128836 0.26663 -0.923858 0.269221 0.272042 -0.83044 0.229992 0.507417 -0.841535 0.375946 0.387922 -0.701134 0.509773 0.498541 -0.651362 -0.004073 0.758756 -0.78118 0.244493 0.57444 -0.595729 0.029415 0.802647 -0.644664 0.495254 0.58235 -0.680197 0.363613 0.636489 -0.486831 0.303873 0.818936 -0.534615 0.566097 0.627472 -0.511847 0.286493 0.809898 -0.399726 0.55429 0.730056 -0.152154 -0.873989 0.46151 -0.081164 -0.838593 0.538678 -0.086863 -0.664469 0.742251 -0.107618 -0.689662 0.716089 -0.137942 -0.482787 0.864806 -0.002164 -0.423203 0.906032 -0.017056 -0.111897 0.993573 -0.173825 -0.069165 0.982345 -0.201053 0.282374 0.937999 -0.166195 0.315721 0.934184 0.08094 0.31377 0.946043 0.127431 0.261047 0.956878 0.063539 -0.08134 0.994659 0.264594 0.202327 0.942896 0.224646 -0.456314 0.860995 0.277232 -0.110339 0.954446 0.290074 -0.10005 0.95176 0.258819 -0.497254 0.828101 0.563121 -0.079547 0.822537 0.606034 -0.408524 0.682518 0.589853 -0.10779 0.800284 0.576607 0.187383 0.795243 0.480674 0.310336 0.820149 0.481581 0.409652 0.774768 0.59448 0.449622 0.666659 0.589035 0.575693 0.567111 0.744573 0.308261 0.592104 0.763007 0.243567 0.598745 0.802873 0.420409 0.422672 0.83843 0.124894 0.530506 0.913719 0.261473 0.311044 0.846958 -0.032421 0.53067 -0.858385 0.373335 0.351846 -0.85702 0.363103 0.365613 -0.813484 0.44007 0.380239 -0.714683 0.4938 0.495369 -0.369761 0.805125 -0.463735 -0.31636 0.783003 -0.535558 -0.326252 -0.516456 0.791728 -0.401317 -0.237454 0.884624 -0.319937 -0.252953 0.913047 -0.541569 0.606578 0.582036 -0.195904 0.836088 -0.512425 -0.342895 0.866083 -0.363763 -0.509964 0.616807 0.599571 -0.338384 0.675728 0.654895 -0.091808 0.933945 -0.345425 -0.116586 -0.275027 0.954342 -0.347856 0.671761 0.654014 -0.087941 0.884189 -0.458776 -0.202697 0.910997 0.359163 -0.09571 0.712693 0.694916 -0.099704 0.709212 0.69791 -0.074058 0.703437 0.706889 0.278154 0.689988 0.668241 0.143024 0.751523 0.644016 0.263448 0.679491 0.684753 0.061839 0.899272 -0.432996 0.446323 0.655574 0.609113 0.31981 0.93885 -0.127601 0.067239 0.859454 -0.506772 0.11748 -0.121005 0.985675 -0.309111 0.594447 0.74235 -0.278594 0.674199 0.68399 -0.188921 0.548706 0.814389 -0.011271 0.740665 0.67178 0.049343 0.630251 0.774822 0.161916 0.585267 0.79451 0.231469 0.592937 0.771264 0.292734 0.68212 0.670089 0.585426 0.578708 0.56778 0.584455 0.574934 0.572593</float_array>
          <technique_common>
            <accessor source="#StrengthPill-mesh-normals-array" count="500" stride="3">
              <param name="X" type="float"/>
              <param name="Y" type="float"/>
              <param name="Z" type="float"/>
            </accessor>
          </technique_common>
        </source>
        <source id="StrengthPill-mesh-map-0">
          <float_array id="StrengthPill-mesh-map-0-array" count="3000">0.640381 0.942627 0.611816 0.878662 0.644287 0.870117 0.644287 0.870117 0.611816 0.878662 0.607178 0.779785 0.611816 0.878662 0.640381 0.942627 0.605469 0.945312 0.8125 0.979736 0.818604 0.974609 0.835693 0.996094 0.835693 0.996094 0.818604 0.974609 0.870361 0.986328 0.835693 0.996094 0.870361 0.986328 0.857422 1 0.870361 0.986328 0.818604 0.974609 0.830566 0.964111 0.830566 0.964111 0.818604 0.974609 0.787109 0.989502 0.870361 0.986328 0.830566 0.964111 0.870361 0.978027 0.870361 0.986328 0.870361 0.978027 0.900635 0.994385 0.870361 0.978027 0.830566 0.964111 0.859131 0.903076 0.900635 0.994385 0.870361 0.978027 0.9104 0.963867 0.870361 0.978027 0.859131 0.903076 0.918213 0.864502 0.870361 0.978027 0.918213 0.864502 0.9104 0.963867 0.918213 0.864502 0.859131 0.903076 0.907471 0.82959 0.9104 0.963867 0.918213 0.864502 0.960938 0.852295 0.076172 0.335693 0.053711 0.345459 0.02002 0.314209 0.053711 0.345459 0.076172 0.335693 0.092041 0.340088 0.092041 0.340088 0.076172 0.335693 0.108887 0.325684 0.092041 0.340088 0.108887 0.325684 0.150879 0.4104 0.053711 0.345459 0.092041 0.340088 0.124512 0.457275 0.124512 0.457275 0.092041 0.340088 0.150879 0.4104 0.053711 0.345459 0.124512 0.457275 0.075684 0.448975 0.124512 0.457275 0.150879 0.4104 0.27124 0.470459 0.27124 0.470459 0.150879 0.4104 0.23999 0.407715 0.075684 0.448975 0.124512 0.457275 0.056885 0.593994 0.075684 0.448975 0.056885 0.593994 0.012939 0.587158 0.279785 0.019531 0.279053 0.011475 0.350098 0.021729 0.350098 0.021729 0.279053 0.011475 0.356689 0.010498 0.356689 0.010498 0.279053 0.011475 0.306152 0.003418 0.306152 0.003418 0.279053 0.011475 0.24585 0.008057 0.470947 0.353271 0.5271 0.382324 0.480225 0.425537 0.470947 0.353271 0.480225 0.425537 0.404053 0.486816 0.404053 0.486816 0.480225 0.425537 0.445312 0.550049 0.445312 0.550049 0.480225 0.425537 0.498535 0.467773 0.498535 0.467773 0.480225 0.425537 0.5271 0.382324 0.445312 0.550049 0.498535 0.467773 0.505127 0.542236 0.498535 0.467773 0.5271 0.382324 0.540039 0.469482 0.498535 0.467773 0.540039 0.469482 0.505127 0.542236 0.540039 0.469482 0.5271 0.382324 0.564209 0.387695 0.505127 0.542236 0.540039 0.469482 0.549072 0.575928 0.540039 0.469482 0.564209 0.387695 0.595703 0.392822 0.540039 0.469482 0.595703 0.392822 0.549072 0.575928 0.391113 0.439941 0.470947 0.353271 0.404053 0.486816 0.391113 0.439941 0.404053 0.486816 0.315918 0.512695 0.391113 0.439941 0.315918 0.512695 0.283447 0.47583 0.470947 0.353271 0.391113 0.439941 0.371338 0.408203 0.371338 0.408203 0.391113 0.439941 0.283447 0.47583 0.470947 0.353271 0.371338 0.408203 0.430176 0.313965 0.371338 0.408203 0.283447 0.47583 0.286133 0.442627 0.430176 0.313965 0.371338 0.408203 0.375488 0.370117 0.375488 0.370117 0.371338 0.408203 0.286133 0.442627 0.430176 0.313965 0.375488 0.370117 0.383789 0.325439 0.383789 0.325439 0.375488 0.370117 0.286133 0.442627 1 0.355713 0.994873 0.398926 0.905273 0.381348 1 0.355713 0.905273 0.381348 0.85498 0.356445 0.85498 0.356445 0.905273 0.381348 0.841553 0.387451 0.905273 0.381348 0.994873 0.398926 0.927246 0.406494 0.905273 0.381348 0.927246 0.406494 0.841553 0.387451 0.927246 0.406494 0.994873 0.398926 0.992432 0.424316 0.841553 0.387451 0.927246 0.406494 0.851318 0.415527 0.927246 0.406494 0.992432 0.424316 0.919678 0.429932 0.927246 0.406494 0.919678 0.429932 0.851318 0.415527 0.919678 0.429932 0.992432 0.424316 0.991699 0.456543 0.851318 0.415527 0.919678 0.429932 0.904053 0.444824 0.904053 0.444824 0.919678 0.429932 0.991699 0.456543 0.851318 0.415527 0.904053 0.444824 0.835938 0.45752 0.835938 0.45752 0.904053 0.444824 0.890381 0.478027 0.890381 0.478027 0.904053 0.444824 0.991699 0.456543 0.890381 0.478027 0.991699 0.456543 0.994629 0.493896 0.890381 0.478027 0.994629 0.493896 0.898438 0.503906 0.898438 0.503906 0.994629 0.493896 0.99585 0.512207 0.898438 0.503906 0.99585 0.512207 0.907715 0.522949 0.361084 0.011719 0.374023 0.023926 0.362549 0.028076 0.362549 0.028076 0.374023 0.023926 0.367188 0.046875 0.367188 0.046875 0.374023 0.023926 0.395996 0.075439 0.367188 0.046875 0.395996 0.075439 0.387451 0.073486 0.387451 0.073486 0.395996 0.075439 0.369385 0.093262 0.395996 0.075439 0.374023 0.023926 0.407471 0.074219 0.395996 0.075439 0.407471 0.074219 0.39624 0.086426 0.39624 0.086426 0.407471 0.074219 0.443848 0.137207 0.443848 0.137207 0.407471 0.074219 0.504883 0.12085 0.407471 0.074219 0.374023 0.023926 0.401367 0.037109 0.504883 0.12085 0.407471 0.074219 0.466064 0.056885 0.466064 0.056885 0.407471 0.074219 0.401367 0.037109 0.466064 0.056885 0.401367 0.037109 0.525391 0.000244 0.525391 0.000244 0.401367 0.037109 0.419922 0.001221 0.3396 0.818359 0.373291 0.878662 0.312256 0.941406 0.312256 0.941406 0.373291 0.878662 0.355225 0.957031 0.3396 0.818359 0.312256 0.941406 0.285645 0.843262 0.312256 0.941406 0.355225 0.957031 0.333252 0.956299 0.333252 0.956299 0.355225 0.957031 0.386475 0.983887 0.285645 0.843262 0.312256 0.941406 0.269775 0.947754 0.312256 0.941406 0.333252 0.956299 0.285889 0.955078 0.312256 0.941406 0.285889 0.955078 0.269775 0.947754 0.285645 0.843262 0.269775 0.947754 0.221924 0.856445 0.285645 0.843262 0.221924 0.856445 0.205566 0.73291 0.205566 0.73291 0.221924 0.856445 0.132324 0.774658 0.132324 0.774658 0.221924 0.856445 0.222656 0.956543 0.222656 0.956543 0.221924 0.856445 0.269775 0.947754 0.132324 0.774658 0.222656 0.956543 0.187988 0.963867 0.187988 0.963867 0.222656 0.956543 0.19873 0.975342 0.19873 0.975342 0.222656 0.956543 0.20459 0.97876 0.222656 0.956543 0.269775 0.947754 0.245605 0.963867 0.222656 0.956543 0.245605 0.963867 0.20459 0.97876 0.245605 0.963867 0.269775 0.947754 0.285889 0.955078 0.20459 0.97876 0.245605 0.963867 0.258301 0.971924 0.20459 0.97876 0.258301 0.971924 0.216309 0.989258 0.245605 0.963867 0.285889 0.955078 0.291504 0.960449 0.245605 0.963867 0.291504 0.960449 0.258301 0.971924 0.291504 0.960449 0.285889 0.955078 0.333252 0.956299 0.258301 0.971924 0.291504 0.960449 0.304932 0.976074 0.291504 0.960449 0.333252 0.956299 0.358154 0.974365 0.291504 0.960449 0.358154 0.974365 0.304932 0.976074 0.304932 0.976074 0.358154 0.974365 0.359863 0.985107 0.624268 0.178711 0.707764 0.10791 0.706787 0.144775 0.706787 0.144775 0.707764 0.10791 0.733398 0.131104 0.624268 0.178711 0.706787 0.144775 0.623779 0.212402 0.707764 0.10791 0.624268 0.178711 0.602295 0.160645 0.602295 0.160645 0.624268 0.178711 0.585693 0.213135 0.707764 0.10791 0.602295 0.160645 0.690918 0.080811 0.690918 0.080811 0.602295 0.160645 0.585205 0.133545 0.690918 0.080811 0.585205 0.133545 0.62915 0.077148 0.690918 0.080811 0.62915 0.077148 0.673096 0.045898 0.62915 0.077148 0.585205 0.133545 0.530762 0.111816 0.673096 0.045898 0.62915 0.077148 0.600098 0.049072 0.600098 0.049072 0.62915 0.077148 0.530762 0.111816 0.781738 0.573975 0.746582 0.588135 0.72583 0.582275 0.746582 0.588135 0.781738 0.573975 0.83374 0.646729 0.83374 0.646729 0.781738 0.573975 0.853271 0.636475 0.853271 0.636475 0.781738 0.573975 0.873291 0.602539 0.873291 0.602539 0.781738 0.573975 0.823242 0.548584 0.781738 0.573975 0.72583 0.582275 0.728516 0.560059 0.823242 0.548584 0.781738 0.573975 0.779541 0.558105 0.779541 0.558105 0.781738 0.573975 0.728516 0.560059 0.823242 0.548584 0.779541 0.558105 0.73877 0.536377 0.73877 0.536377 0.779541 0.558105 0.728516 0.560059 0.823242 0.548584 0.73877 0.536377 0.840332 0.510254 0.728516 0.560059 0.72583 0.582275 0.717529 0.586914 0.708984 0.552734 0.717529 0.586914 0.706299 0.593018 0.717529 0.586914 0.708984 0.552734 0.718994 0.531738 0.717529 0.586914 0.718994 0.531738 0.728516 0.560059 0.718994 0.531738 0.708984 0.552734 0.707031 0.516357 0.718994 0.531738 0.707031 0.516357 0.71167 0.480957 0.728516 0.560059 0.718994 0.531738 0.725098 0.504883 0.725098 0.504883 0.718994 0.531738 0.71167 0.480957 0.728516 0.560059 0.725098 0.504883 0.73877 0.536377 0.725098 0.504883 0.71167 0.480957 0.713379 0.457031 0.73877 0.536377 0.725098 0.504883 0.736084 0.515381 0.73877 0.536377 0.736084 0.515381 0.840332 0.510254 0.725098 0.504883 0.713379 0.457031 0.728027 0.483887 0.725098 0.504883 0.728027 0.483887 0.736084 0.515381 0.728027 0.483887 0.713379 0.457031 0.720703 0.455078 0.728027 0.483887 0.720703 0.455078 0.804443 0.448486 0.736084 0.515381 0.728027 0.483887 0.817871 0.474854 0.736084 0.515381 0.817871 0.474854 0.840332 0.510254 0.817871 0.474854 0.728027 0.483887 0.804443 0.448486 0.840332 0.510254 0.817871 0.474854 0.873047 0.487549 0.817871 0.474854 0.804443 0.448486 0.843994 0.413086 0.212891 0.395264 0.221436 0.335449 0.253418 0.365967 0.221436 0.335449 0.212891 0.395264 0.182617 0.358887 0.221436 0.335449 0.182617 0.358887 0.18457 0.309326 0.18457 0.309326 0.182617 0.358887 0.153564 0.330322 0.14209 0.303223 0.153564 0.330322 0.121582 0.332764 0.153564 0.330322 0.14209 0.303223 0.18457 0.309326 0.18457 0.309326 0.14209 0.303223 0.171631 0.254883 0.171631 0.254883 0.14209 0.303223 0.127441 0.268555 0.18457 0.309326 0.171631 0.254883 0.206299 0.268311 0.206299 0.268311 0.171631 0.254883 0.186523 0.226318 0.217285 0.307617 0.221436 0.335449 0.18457 0.309326 0.217285 0.307617 0.18457 0.309326 0.206299 0.268311 0.221436 0.335449 0.217285 0.307617 0.269043 0.32959 0.221436 0.335449 0.269043 0.32959 0.253418 0.365967 0.217285 0.307617 0.206299 0.268311 0.246094 0.281006 0.217285 0.307617 0.246094 0.281006 0.269043 0.32959 0.206299 0.268311 0.186523 0.226318 0.255127 0.232666 0.206299 0.268311 0.255127 0.232666 0.246094 0.281006 0.255127 0.232666 0.186523 0.226318 0.227783 0.205811 0.255127 0.232666 0.227783 0.205811 0.332275 0.199463 0.255127 0.232666 0.332275 0.199463 0.350098 0.240479 0.292969 0.364014 0.253418 0.365967 0.269043 0.32959 0.253418 0.365967 0.292969 0.364014 0.257812 0.429199 0.255127 0.232666 0.350098 0.240479 0.297607 0.277588 0.255127 0.232666 0.297607 0.277588 0.246094 0.281006 0.246094 0.281006 0.297607 0.277588 0.269043 0.32959 0.297607 0.277588 0.350098 0.240479 0.332275 0.280029 0.292969 0.364014 0.269043 0.32959 0.309082 0.323486 0.309082 0.323486 0.269043 0.32959 0.297607 0.277588 0.309082 0.323486 0.297607 0.277588 0.332275 0.280029 0.292969 0.364014 0.309082 0.323486 0.338623 0.369141 0.309082 0.323486 0.332275 0.280029 0.351318 0.321533 0.414307 0.806152 0.389404 0.81543 0.374756 0.799316 0.389404 0.81543 0.414307 0.806152 0.404785 0.846924 0.404785 0.846924 0.414307 0.806152 0.444824 0.853516 0.404785 0.846924 0.444824 0.853516 0.37793 0.871338 0.444824 0.853516 0.414307 0.806152 0.454102 0.777344 0.454102 0.777344 0.414307 0.806152 0.417236 0.76416 0.444824 0.853516 0.454102 0.777344 0.468018 0.803467 0.444824 0.853516 0.468018 0.803467 0.491699 0.856445 0.444824 0.853516 0.491699 0.856445 0.466309 0.923096 0.468018 0.803467 0.454102 0.777344 0.516846 0.779541 0.466309 0.923096 0.491699 0.856445 0.502197 0.940186 0.516846 0.779541 0.454102 0.777344 0.478516 0.729004 0.491699 0.856445 0.468018 0.803467 0.515381 0.807617 0.515381 0.807617 0.468018 0.803467 0.516846 0.779541 0.516846 0.779541 0.478516 0.729004 0.532959 0.722412 0.491699 0.856445 0.515381 0.807617 0.525879 0.84082 0.502197 0.940186 0.491699 0.856445 0.521484 0.867188 0.521484 0.867188 0.491699 0.856445 0.525879 0.84082 0.502197 0.940186 0.521484 0.867188 0.543213 0.894043 0.525879 0.84082 0.515381 0.807617 0.572998 0.802734 0.572998 0.802734 0.515381 0.807617 0.516846 0.779541 0.521484 0.867188 0.525879 0.84082 0.560059 0.858398 0.560059 0.858398 0.525879 0.84082 0.572998 0.802734 0.521484 0.867188 0.560059 0.858398 0.543213 0.894043 0.560059 0.858398 0.572998 0.802734 0.601318 0.85376 0.560059 0.858398 0.601318 0.85376 0.585693 0.891113 0.560059 0.858398 0.585693 0.891113 0.543213 0.894043 0.543213 0.894043 0.585693 0.891113 0.600586 0.977783 0.572998 0.802734 0.516846 0.779541 0.558838 0.759033 0.558838 0.759033 0.516846 0.779541 0.532959 0.722412 0.572998 0.802734 0.558838 0.759033 0.603516 0.774658 0.603516 0.774658 0.558838 0.759033 0.580566 0.72998 0.580566 0.72998 0.558838 0.759033 0.532959 0.722412 0.580566 0.72998 0.532959 0.722412 0.568359 0.687744 0.483154 0.287354 0.483887 0.317139 0.44751 0.289795 0.44751 0.289795 0.483887 0.317139 0.454346 0.327881 0.483154 0.287354 0.44751 0.289795 0.478516 0.252441 0.483154 0.287354 0.478516 0.252441 0.529053 0.276611 0.529053 0.276611 0.478516 0.252441 0.540771 0.245361 0.478516 0.252441 0.44751 0.289795 0.424805 0.251465 0.424805 0.251465 0.44751 0.289795 0.407227 0.307373 0.540771 0.245361 0.478516 0.252441 0.495117 0.212158 0.478516 0.252441 0.424805 0.251465 0.450928 0.223145 0.478516 0.252441 0.450928 0.223145 0.495117 0.212158 0.450928 0.223145 0.424805 0.251465 0.418945 0.220703 0.418945 0.220703 0.424805 0.251465 0.369385 0.26123 0.450928 0.223145 0.418945 0.220703 0.457031 0.197998 0.450928 0.223145 0.457031 0.197998 0.495117 0.212158 0.540771 0.245361 0.495117 0.212158 0.524658 0.209229 0.540771 0.245361 0.524658 0.209229 0.561035 0.215088 0.561035 0.215088 0.524658 0.209229 0.546631 0.172119 0.561035 0.215088 0.546631 0.172119 0.581299 0.167969 0.581299 0.167969 0.546631 0.172119 0.544678 0.138916 0.544678 0.138916 0.546631 0.172119 0.496338 0.137695 0.546631 0.172119 0.524658 0.209229 0.509521 0.180664 0.546631 0.172119 0.509521 0.180664 0.496338 0.137695 0.509521 0.180664 0.524658 0.209229 0.495117 0.212158 0.496338 0.137695 0.509521 0.180664 0.467529 0.174561 0.467529 0.174561 0.509521 0.180664 0.495117 0.212158 0.467529 0.174561 0.495117 0.212158 0.457031 0.197998 0.496338 0.137695 0.467529 0.174561 0.454102 0.141113 0.454102 0.141113 0.467529 0.174561 0.43042 0.168213 0.43042 0.168213 0.467529 0.174561 0.457031 0.197998 0.43042 0.168213 0.457031 0.197998 0.418945 0.220703 0.43042 0.168213 0.418945 0.220703 0.40332 0.184326 0.40332 0.184326 0.418945 0.220703 0.361816 0.186523 0.43042 0.168213 0.40332 0.184326 0.401123 0.158691 0.401123 0.158691 0.40332 0.184326 0.349854 0.143555 0.712158 0.717285 0.675537 0.69751 0.710693 0.67627 0.710693 0.67627 0.675537 0.69751 0.673096 0.658691 0.673096 0.658691 0.675537 0.69751 0.632568 0.681152 0.710693 0.67627 0.673096 0.658691 0.696045 0.636963 0.673096 0.658691 0.632568 0.681152 0.623535 0.639893 0.623535 0.639893 0.632568 0.681152 0.595459 0.663818 0.696045 0.636963 0.673096 0.658691 0.654297 0.629395 0.654297 0.629395 0.673096 0.658691 0.623535 0.639893 0.696045 0.636963 0.654297 0.629395 0.679443 0.613281 0.696045 0.636963 0.679443 0.613281 0.717285 0.615967 0.717285 0.615967 0.679443 0.613281 0.683105 0.576172 0.679443 0.613281 0.654297 0.629395 0.621338 0.600586 0.621338 0.600586 0.654297 0.629395 0.623535 0.639893 0.683105 0.576172 0.679443 0.613281 0.656982 0.581543 0.656982 0.581543 0.679443 0.613281 0.621338 0.600586 0.621338 0.600586 0.623535 0.639893 0.588379 0.624268 0.588379 0.624268 0.623535 0.639893 0.595459 0.663818 0.683105 0.576172 0.656982 0.581543 0.658936 0.540039 0.683105 0.576172 0.658936 0.540039 0.687988 0.543213 0.687988 0.543213 0.658936 0.540039 0.707764 0.447998 0.658936 0.540039 0.656982 0.581543 0.627441 0.556152 0.658936 0.540039 0.627441 0.556152 0.647217 0.504395 0.627441 0.556152 0.656982 0.581543 0.611328 0.584473 0.611328 0.584473 0.656982 0.581543 0.621338 0.600586 0.627441 0.556152 0.611328 0.584473 0.564453 0.537842 0.564453 0.537842 0.611328 0.584473 0.577393 0.589111 0.577393 0.589111 0.611328 0.584473 0.621338 0.600586 0.577393 0.589111 0.621338 0.600586 0.588379 0.624268 0.577393 0.589111 0.588379 0.624268 0.562256 0.610352 0.562256 0.610352 0.588379 0.624268 0.595459 0.663818 0.577393 0.589111 0.562256 0.610352 0.523438 0.585205 0.562256 0.610352 0.595459 0.663818 0.566406 0.669678 0.562256 0.610352 0.566406 0.669678 0.547607 0.635498 0.562256 0.610352 0.547607 0.635498 0.487793 0.638428 0.198975 0 0.272949 0.023926 0.205322 0.026123 0.852295 0.347656 0.922119 0.294922 0.940674 0.310059 0.852295 0.347656 0.940674 0.310059 0.922607 0.339355 0.566406 0.218994 0.618896 0.235596 0.615479 0.285156 0.615479 0.285156 0.618896 0.235596 0.742676 0.243164 0.742676 0.243164 0.618896 0.235596 0.647217 0.202881 0.742676 0.243164 0.647217 0.202881 0.755859 0.210693 0.742676 0.243164 0.755859 0.210693 0.749023 0.249756 0.742676 0.243164 0.749023 0.249756 0.75415 0.281982 0.742676 0.243164 0.75415 0.281982 0.615479 0.285156 0.615479 0.285156 0.75415 0.281982 0.627686 0.335938 0.615479 0.285156 0.627686 0.335938 0.554688 0.310303 0.627686 0.335938 0.75415 0.281982 0.744385 0.338135 0.744385 0.338135 0.75415 0.281982 0.757568 0.311768 0.627686 0.335938 0.744385 0.338135 0.627686 0.371094 0.627686 0.335938 0.627686 0.371094 0.554443 0.380127 0.627686 0.371094 0.744385 0.338135 0.636719 0.39502 0.627686 0.371094 0.636719 0.39502 0.593018 0.429443 0.636719 0.39502 0.744385 0.338135 0.767578 0.378418 0.636719 0.39502 0.767578 0.378418 0.770264 0.407227 0.636719 0.39502 0.770264 0.407227 0.681152 0.425049 0.681152 0.425049 0.770264 0.407227 0.781006 0.445068 0.253662 0.150879 0.345703 0.190186 0.240234 0.179688 0.253662 0.150879 0.240234 0.179688 0.17334 0.160645 0.253662 0.150879 0.17334 0.160645 0.187012 0.114258 0.347412 0.137695 0.318359 0.111816 0.42627 0.12793 0.318359 0.111816 0.347412 0.137695 0.24585 0.132568 0.24585 0.132568 0.347412 0.137695 0.316895 0.170654 0.954102 0.593506 0.830811 0.546143 0.931641 0.545654 0.830811 0.546143 0.954102 0.593506 0.905762 0.612549 0.41626 0.666016 0.451172 0.697998 0.406494 0.728516 0.406494 0.728516 0.451172 0.697998 0.467285 0.736084 0.467285 0.736084 0.451172 0.697998 0.490234 0.6875 0.41626 0.666016 0.406494 0.728516 0.375732 0.688477 0.375732 0.688477 0.406494 0.728516 0.319092 0.820557 0.41626 0.666016 0.375732 0.688477 0.370361 0.630859 0.451172 0.697998 0.41626 0.666016 0.460938 0.638428 0.451172 0.697998 0.460938 0.638428 0.490234 0.6875 0.460938 0.638428 0.41626 0.666016 0.370361 0.630859 0.490234 0.6875 0.460938 0.638428 0.513184 0.657471 0.460938 0.638428 0.370361 0.630859 0.433105 0.599609 0.460938 0.638428 0.433105 0.599609 0.505371 0.607178 0.505371 0.607178 0.433105 0.599609 0.4646 0.563477 0.4646 0.563477 0.433105 0.599609 0.410889 0.544434 0.433105 0.599609 0.370361 0.630859 0.381836 0.588379 0.433105 0.599609 0.381836 0.588379 0.410889 0.544434 0.381836 0.588379 0.370361 0.630859 0.318115 0.544678 0.410889 0.544434 0.381836 0.588379 0.355713 0.508545 0.048096 0.625 0.109619 0.624756 0.091553 0.685059 0.091553 0.685059 0.109619 0.624756 0.116699 0.687256 0.048096 0.625 0.091553 0.685059 0.028564 0.680664 0.005615 0.986084 0 0.916992 0.048584 0.943848 0.048584 0.943848 0 0.916992 0.068359 0.880615 0.068359 0.880615 0 0.916992 0.024658 0.858643 0.048584 0.943848 0.068359 0.880615 0.105225 0.902344 0.068359 0.880615 0.024658 0.858643 0.050781 0.816162 0.15625 0.879639 0.172852 0.934814 0.105225 0.902344 0.15625 0.879639 0.105225 0.902344 0.108887 0.8479 0.108887 0.8479 0.105225 0.902344 0.068359 0.880615 0.108887 0.8479 0.068359 0.880615 0.050781 0.816162 0.108887 0.8479 0.050781 0.816162 0.098145 0.782471 0.108887 0.8479 0.098145 0.782471 0.126953 0.789795 0.126953 0.789795 0.098145 0.782471 0.101807 0.731201 0.098145 0.782471 0.050781 0.816162 0.068115 0.769287 0.098145 0.782471 0.068115 0.769287 0.101807 0.731201 0.068115 0.769287 0.050781 0.816162 0.032227 0.7771 0.101807 0.731201 0.068115 0.769287 0.038574 0.700684 0.791504 0.925049 0.754639 0.918457 0.810303 0.780762 0.754639 0.918457 0.791504 0.925049 0.802979 0.946045 0.754639 0.918457 0.802979 0.946045 0.780762 0.960205 0.754639 0.918457 0.780762 0.960205 0.743164 0.943115 0.754639 0.918457 0.743164 0.943115 0.667236 0.96582 0.584961 0.721924 0.641113 0.763672 0.618408 0.784668 0.618408 0.784668 0.641113 0.763672 0.657471 0.803223 0.618408 0.784668 0.657471 0.803223 0.632324 0.823486 0.657471 0.803223 0.641113 0.763672 0.664307 0.764893 0.664307 0.764893 0.641113 0.763672 0.681641 0.734131 0.632324 0.823486 0.657471 0.803223 0.677979 0.839111 0.632324 0.823486 0.677979 0.839111 0.665039 0.861328 0.664307 0.764893 0.681641 0.734131 0.687256 0.782715 0.664307 0.764893 0.687256 0.782715 0.657471 0.803223 0.687256 0.782715 0.681641 0.734131 0.716553 0.749023 0.677979 0.839111 0.657471 0.803223 0.701904 0.811279 0.701904 0.811279 0.657471 0.803223 0.687256 0.782715 0.665039 0.861328 0.677979 0.839111 0.710449 0.865723 0.710449 0.865723 0.677979 0.839111 0.701904 0.811279 0.665039 0.861328 0.710449 0.865723 0.675293 0.899658 0.675293 0.899658 0.710449 0.865723 0.701904 0.912842 0.701904 0.912842 0.710449 0.865723 0.743896 0.876221 0.701904 0.912842 0.743896 0.876221 0.72583 0.927002 0.743896 0.876221 0.710449 0.865723 0.74292 0.849365 0.743896 0.876221 0.74292 0.849365 0.787354 0.817139 0.74292 0.849365 0.710449 0.865723 0.738281 0.813965 0.74292 0.849365 0.738281 0.813965 0.787354 0.817139 0.738281 0.813965 0.710449 0.865723 0.701904 0.811279 0.787354 0.817139 0.738281 0.813965 0.756836 0.788086 0.738281 0.813965 0.701904 0.811279 0.724365 0.788086 0.724365 0.788086 0.701904 0.811279 0.687256 0.782715 0.738281 0.813965 0.724365 0.788086 0.756836 0.788086 0.724365 0.788086 0.687256 0.782715 0.716553 0.749023 0.724365 0.788086 0.716553 0.749023 0.756836 0.788086 0.787354 0.817139 0.756836 0.788086 0.77832 0.757812 0.756836 0.788086 0.716553 0.749023 0.754639 0.749023 0.756836 0.788086 0.754639 0.749023 0.77832 0.757812 0.77832 0.757812 0.754639 0.749023 0.750244 0.668701 0.77832 0.757812 0.750244 0.668701 0.780029 0.694824 0.251221 0.029785 0.348145 0.026367 0.375977 0.075684 0.934082 0.814453 0.915039 0.783203 0.954102 0.779785 0.915039 0.783203 0.934082 0.814453 0.897705 0.804932 0.954102 0.779785 0.915039 0.783203 0.932373 0.753662 0.954102 0.779785 0.932373 0.753662 0.961182 0.748779 0.961182 0.748779 0.932373 0.753662 0.930176 0.726318 0.932373 0.753662 0.915039 0.783203 0.896973 0.740479 0.932373 0.753662 0.896973 0.740479 0.930176 0.726318 0.915039 0.783203 0.897705 0.804932 0.872803 0.78125 0.915039 0.783203 0.872803 0.78125 0.896973 0.740479 0.889893 0.844238 0.883057 0.829102 0.897705 0.804932 0.897705 0.804932 0.883057 0.829102 0.872803 0.78125 0.872803 0.78125 0.883057 0.829102 0.842773 0.809814 0.872803 0.78125 0.842773 0.809814 0.842041 0.766357 0.930176 0.726318 0.896973 0.740479 0.909912 0.699951 0.930176 0.726318 0.909912 0.699951 0.930908 0.695801 0.930908 0.695801 0.909912 0.699951 0.960693 0.649414 0.909912 0.699951 0.896973 0.740479 0.880127 0.704102 0.909912 0.699951 0.880127 0.704102 0.864258 0.630859 0.864258 0.630859 0.880127 0.704102 0.849365 0.681152 0.868896 0.737305 0.896973 0.740479 0.872803 0.78125 0.896973 0.740479 0.868896 0.737305 0.880127 0.704102 0.868896 0.737305 0.872803 0.78125 0.842041 0.766357 0.849365 0.681152 0.880127 0.704102 0.849609 0.716797 0.849609 0.716797 0.880127 0.704102 0.868896 0.737305 0.849609 0.716797 0.868896 0.737305 0.842041 0.766357 0.849365 0.681152 0.849609 0.716797 0.827637 0.692627 0.849609 0.716797 0.842041 0.766357 0.82666 0.732666 0.849609 0.716797 0.82666 0.732666 0.827637 0.692627 0.195557 0.083984 0.147705 0.092041 0.162354 0.031494 0.195557 0.083984 0.162354 0.031494 0.208252 0.03125 0.195557 0.083984 0.208252 0.03125 0.232666 0.091797 0.232666 0.091797 0.208252 0.03125 0.247559 0.034912 0.787842 0.140137 0.779053 0.21167 0.72583 0.156982 0.779053 0.21167 0.787842 0.140137 0.824951 0.196777 0.779053 0.21167 0.824951 0.196777 0.824707 0.275635 0.779053 0.21167 0.824707 0.275635 0.760254 0.291504 0.760254 0.291504 0.824707 0.275635 0.786377 0.351318 0.786377 0.351318 0.824707 0.275635 0.853027 0.338379 0.853027 0.338379 0.824707 0.275635 0.900879 0.300781 0.900879 0.300781 0.824707 0.275635 0.857666 0.255127 0.857666 0.255127 0.824707 0.275635 0.824951 0.196777 0.900879 0.300781 0.857666 0.255127 0.906738 0.236816 0.879883 0.16333 0.824951 0.196777 0.787842 0.140137 0.824951 0.196777 0.879883 0.16333 0.857666 0.255127 0.857666 0.255127 0.879883 0.16333 0.906738 0.236816 0.879883 0.16333 0.787842 0.140137 0.858643 0.103271 0.906738 0.236816 0.879883 0.16333 0.960938 0.205322 0.879883 0.16333 0.858643 0.103271 0.942383 0.136719 0.879883 0.16333 0.942383 0.136719 0.960938 0.205322 0.074219 0.170898 0.015381 0.154541 0.05957 0.139404 0.015381 0.154541 0.074219 0.170898 0.01709 0.19873 0.01709 0.19873 0.074219 0.170898 0.077881 0.222656 0.077881 0.222656 0.074219 0.170898 0.124023 0.20166 0.077881 0.222656 0.124023 0.20166 0.117432 0.326904 0.124023 0.20166 0.074219 0.170898 0.151611 0.161133 0.151611 0.161133 0.074219 0.170898 0.05957 0.139404 0.124023 0.20166 0.151611 0.161133 0.217529 0.180176 0.151611 0.161133 0.05957 0.139404 0.124023 0.12207 0.151611 0.161133 0.124023 0.12207 0.165527 0.104004 0.124023 0.12207 0.05957 0.139404 0.041992 0.102295 0.122559 0.70752 0.118408 0.61377 0.145508 0.616211 0.145508 0.616211 0.118408 0.61377 0.109619 0.502197 0.122559 0.70752 0.145508 0.616211 0.177734 0.704346 0.177734 0.704346 0.145508 0.616211 0.179443 0.528809 0.122559 0.70752 0.177734 0.704346 0.161865 0.714844 0.122559 0.70752 0.161865 0.714844 0.107178 0.723145 0.107178 0.723145 0.161865 0.714844 0.150635 0.727295 0.150635 0.727295 0.161865 0.714844 0.173828 0.720459 0.173828 0.720459 0.161865 0.714844 0.208496 0.724854 0.177734 0.704346 0.179443 0.528809 0.215088 0.716064 0.177734 0.704346 0.215088 0.716064 0.161865 0.714844 0.161865 0.714844 0.215088 0.716064 0.208496 0.724854 0.215088 0.716064 0.179443 0.528809 0.208496 0.525146 0.215088 0.716064 0.208496 0.525146 0.23584 0.593506 0.208496 0.724854 0.215088 0.716064 0.258545 0.757812 0.208496 0.724854 0.258545 0.757812 0.227539 0.748291 0.215088 0.716064 0.23584 0.593506 0.240967 0.706299 0.258545 0.757812 0.215088 0.716064 0.263916 0.75 0.263916 0.75 0.215088 0.716064 0.240967 0.706299 0.240967 0.706299 0.23584 0.593506 0.287842 0.661865 0.240967 0.706299 0.287842 0.661865 0.263916 0.75 0.287842 0.661865 0.23584 0.593506 0.289062 0.522949 0.287842 0.661865 0.289062 0.522949 0.355469 0.718262 0.263916 0.75 0.287842 0.661865 0.29248 0.788574 0.29248 0.788574 0.287842 0.661865 0.355469 0.718262 0.263916 0.75 0.29248 0.788574 0.258545 0.757812 0.29248 0.788574 0.355469 0.718262 0.304443 0.820801 0.29248 0.788574 0.304443 0.820801 0.296875 0.816895 0.29248 0.788574 0.296875 0.816895 0.258545 0.757812 0.258545 0.757812 0.296875 0.816895 0.263672 0.782959 0.841797 0.031494 0.899902 0.008057 0.880615 0.057373 0.841797 0.031494 0.880615 0.057373 0.804443 0.094238 0.880615 0.057373 0.899902 0.008057 0.923096 0.044189 0.804443 0.094238 0.880615 0.057373 0.893066 0.099854 0.893066 0.099854 0.880615 0.057373 0.923096 0.044189 0.893066 0.099854 0.923096 0.044189 0.959961 0.075928 0.893066 0.099854 0.959961 0.075928 0.935791 0.127197 0.365723 0.087891 0.253174 0.087891 0.253174 0.037598 0.577393 0.010986 0.582764 0.041504 0.494141 0.039551 0.582764 0.041504 0.577393 0.010986 0.651611 0.029785</float_array>
          <technique_common>
            <accessor source="#StrengthPill-mesh-map-0-array" count="1500" stride="2">
              <param name="S" type="float"/>
              <param name="T" type="float"/>
            </accessor>
          </technique_common>
        </source>
        <vertices id="StrengthPill-mesh-vertices">
          <input semantic="POSITION" source="#StrengthPill-mesh-positions"/>
        </vertices>
        <polylist material="Material_-1-material" count="6">
          <input semantic="VERTEX" source="#StrengthPill-mesh-vertices" offset="0"/>
          <input semantic="NORMAL" source="#StrengthPill-mesh-normals" offset="1"/>
          <input semantic="TEXCOORD" source="#StrengthPill-mesh-map-0" offset="2" set="0"/>
          <vcount>3 3 3 3 3 3 3 3 3 3 3 3 3 3 3 3 3 3 3 3 3 3 3 3 3 3 3 3 3 3 3 3 3 3 3 3 3 3 3 3 3 3 3 3 3 3 3 3 3 3 3 3 3 3 3 3 3 3 3 3 3 3 3 3 3 3 3 3 3 3 3 3 3 3 3 3 3 3 3 3 3 3 3 3 3 3 3 3 3 3 3 3 3 3 3 3 3 3 3 3 3 3 3 3 3 3 3 3 3 3 3 3 3 3 3 3 3 3 3 3 3 3 3 3 3 3 3 3 3 3 3 3 3 3 3 3 3 3 3 3 3 3 3 3 3 3 3 3 3 3 3 3 3 3 3 3 3 3 3 3 3 3 3 3 3 3 3 3 3 3 3 3 3 3 3 3 3 3 3 3 3 3 3 3 3 3 3 3 3 3 3 3 3 3 3 3 3 3 3 3 3 3 3 3 3 3 3 3 3 3 3 3 3 3 3 3 3 3 3 3 3 3 3 3 3 3 3 3 3 3 3 3 3 3 3 3 3 3 3 3 3 3 3 3 3 3 3 3 3 3 3 3 3 3 3 3 3 3 3 3 3 3 3 3 3 3 3 3 3 3 3 3 3 3 3 3 3 3 3 3 3 3 3 3 3 3 3 3 3 3 3 3 3 3 3 3 3 3 3 3 3 3 3 3 3 3 3 3 3 3 3 3 3 3 3 3 3 3 3 3 3 3 3 3 3 3 3 3 3 3 3 3 3 3 3 3 3 3 3 3 3 3 3 3 3 3 3 3 3 3 3 3 3 3 3 3 3 3 3 3 3 3 3 3 3 3 3 3 3 3 3 3 3 3 3 3 3 3 3 3 3 3 3 3 3 3 3 3 3 3 3 3 3 3 3 3 3 3 3 3 3 3 3 3 3 3 3 3 3 3 3 3 3 3 3 3 3 3 3 3 3 3 3 3 3 3 3 3 3 3 3 3 3 3 3 3 3 3 3 3 3 3 3 3 3 3 3 3 3 3 3 3 3 3 3 3 3 3 3 3 3 3 3 3 3 3 3 3 3 3 3 3 3 3 3 3 3 3 3 3 3 3 3 3 3 3 3 3 3 3 3 3 3 3 3 3 3 3 3 3</vcount>
          <p>0 0 0 1 0 1 2 0 2 2 1 3 1 1 4 3 1 5 1 2 6 0 2 7 4 2 8 5 3 9 6 3 10 7 3 11 7 4 12 6 4 13 8 4 14 7 5 15 8 5 16 9 5 17 8 6 18 6 6 19 0 6 20 0 7 21 6 7 22 10 7 23 8 8 24 0 8 25 11 8 26 8 9 27 11 9 28 12 9 29 11 10 30 0 10 31 2 10 32 12 11 33 11 11 34 13 11 35 11 12 36 2 12 37 14 12 38 11 13 39 14 13 40 13 13 41 14 14 42 2 14 43 15 14 44 13 15 45 14 15 46 16 15 47 10 16 48 4 16 49 0 16 50 4 17 51 10 17 52 17 17 53 17 18 54 10 18 55 18 18 56 17 19 57 18 19 58 19 19 59 4 20 60 17 20 61 20 20 62 20 21 63 17 21 64 19 21 65 4 22 66 20 22 67 1 22 68 20 23 69 19 23 70 21 23 71 21 24 72 19 24 73 22 24 74 1 25 75 20 25 76 23 25 77 1 26 78 23 26 79 3 26 80 24 27 81 25 27 82 5 27 83 5 28 84 25 28 85 6 28 86 6 29 87 25 29 88 10 29 89 10 30 90 25 30 91 26 30 92 24 31 93 5 31 94 27 31 95 24 32 96 27 32 97 28 32 98 28 33 99 27 33 100 29 33 101 29 34 102 27 34 103 30 34 104 30 35 105 27 35 106 5 35 107 29 36 108 30 36 109 31 36 110 30 37 111 5 37 112 32 37 113 30 38 114 32 38 115 31 38 116 32 39 117 5 39 118 7 39 119 31 40 120 32 40 121 33 40 122 32 41 123 7 41 124 9 41 125 32 42 126 9 42 127 33 42 128 34 43 129 24 43 130 28 43 131 34 44 132 28 44 133 35 44 134 34 45 135 35 45 136 36 45 137 24 46 138 34 46 139 37 46 140 37 47 141 34 47 142 36 47 143 24 48 144 37 48 145 38 48 146 37 49 147 36 49 148 39 49 149 38 50 150 37 50 151 40 50 152 40 51 153 37 51 154 39 51 155 38 52 156 40 52 157 41 52 158 41 53 159 40 53 160 39 53 161 9 54 162 42 54 163 43 54 164 9 55 165 43 55 166 33 55 167 33 56 168 43 56 169 44 56 170 43 57 171 42 57 172 45 57 173 43 58 174 45 58 175 44 58 176 45 59 177 42 59 178 46 59 179 44 60 180 45 60 181 47 60 182 45 61 183 46 61 184 48 61 185 45 62 186 48 62 187 47 62 188 48 63 189 46 63 190 49 63 191 47 64 192 48 64 193 50 64 194 50 65 195 48 65 196 49 65 197 47 66 198 50 66 199 51 66 200 51 67 201 50 67 202 52 67 203 52 68 204 50 68 205 49 68 206 52 69 207 49 69 208 53 69 209 52 70 210 53 70 211 54 70 212 54 71 213 53 71 214 55 71 215 54 72 216 55 72 217 56 72 218 9 73 219 8 73 220 42 73 221 42 74 222 8 74 223 46 74 224 46 75 225 8 75 226 57 75 227 46 76 228 57 76 229 49 76 230 49 77 231 57 77 232 53 77 233 57 78 234 8 78 235 58 78 236 57 79 237 58 79 238 59 79 239 59 80 240 58 80 241 60 80 242 60 81 243 58 81 244 61 81 245 58 82 246 8 82 247 12 82 248 61 83 249 58 83 250 62 83 251 62 84 252 58 84 253 12 84 254 62 85 255 12 85 256 63 85 257 63 86 258 12 86 259 13 86 260 22 87 261 19 87 262 64 87 263 64 88 264 19 88 265 18 88 266 22 89 267 64 89 268 65 89 269 64 90 270 18 90 271 26 90 272 26 91 273 18 91 274 10 91 275 65 92 276 64 92 277 66 92 278 64 93 279 26 93 280 67 93 281 64 94 282 67 94 283 66 94 284 65 95 285 66 95 286 68 95 287 65 96 288 68 96 289 69 96 290 69 97 291 68 97 292 70 97 293 70 98 294 68 98 295 71 98 296 71 99 297 68 99 298 66 99 299 70 100 300 71 100 301 72 100 302 72 101 303 71 101 304 73 101 305 73 102 306 71 102 307 74 102 308 71 103 309 66 103 310 75 103 311 71 104 312 75 104 313 74 104 314 75 105 315 66 105 316 67 105 317 74 106 318 75 106 319 76 106 320 74 107 321 76 107 322 77 107 323 75 108 324 67 108 325 78 108 326 75 109 327 78 109 328 76 109 329 78 110 330 67 110 331 26 110 332 76 111 333 78 111 334 38 111 335 78 112 336 26 112 337 25 112 338 78 113 339 25 113 340 38 113 341 38 114 342 25 114 343 24 114 344 79 115 345 76 115 346 41 115 347 41 116 348 76 116 349 38 116 350 79 117 351 41 117 352 39 117 353 76 118 354 79 118 355 80 118 356 80 119 357 79 119 358 81 119 359 76 120 360 80 120 361 77 120 362 77 121 363 80 121 364 82 121 365 77 122 366 82 122 367 83 122 368 77 123 369 83 123 370 84 123 371 83 124 372 82 124 373 85 124 374 84 125 375 83 125 376 86 125 377 86 126 378 83 126 379 85 126 380 87 127 381 72 127 382 73 127 383 72 128 384 87 128 385 70 128 386 70 129 387 87 129 388 88 129 389 88 130 390 87 130 391 89 130 392 89 131 393 87 131 394 90 131 395 87 132 396 73 132 397 91 132 398 90 133 399 87 133 400 92 133 401 92 134 402 87 134 403 91 134 404 90 135 405 92 135 406 93 135 407 93 136 408 92 136 409 91 136 410 90 137 411 93 137 412 94 137 413 91 138 414 73 138 415 74 138 416 84 139 417 74 139 418 77 139 419 74 140 420 84 140 421 95 140 422 74 141 423 95 141 424 91 141 425 95 142 426 84 142 427 96 142 428 95 143 429 96 143 430 97 143 431 91 144 432 95 144 433 98 144 434 98 145 435 95 145 436 97 145 437 91 146 438 98 146 439 93 146 440 98 147 441 97 147 442 99 147 443 93 148 444 98 148 445 100 148 446 93 149 447 100 149 448 94 149 449 98 150 450 99 150 451 101 150 452 98 151 453 101 151 454 100 151 455 101 152 456 99 152 457 102 152 458 101 153 459 102 153 460 103 153 461 100 154 462 101 154 463 104 154 464 100 155 465 104 155 466 94 155 467 104 156 468 101 156 469 103 156 470 94 157 471 104 157 472 105 157 473 104 158 474 103 158 475 106 158 476 31 159 477 107 159 478 29 159 479 107 160 480 31 160 481 33 160 482 107 161 483 33 161 484 108 161 485 108 162 486 33 162 487 44 162 488 109 163 489 44 163 490 47 163 491 44 164 492 109 164 493 108 164 494 108 165 495 109 165 496 110 165 497 110 166 498 109 166 499 111 166 500 108 167 501 110 167 502 112 167 503 112 168 504 110 168 505 113 168 506 114 169 507 107 169 508 108 169 509 114 170 510 108 170 511 112 170 512 107 171 513 114 171 514 115 171 515 107 172 516 115 172 517 29 172 518 114 173 519 112 173 520 116 173 521 114 174 522 116 174 523 115 174 524 112 175 525 113 175 526 117 175 527 112 176 528 117 176 529 116 176 530 117 177 531 113 177 532 118 177 533 117 178 534 118 178 535 119 178 536 117 179 537 119 179 538 120 179 539 35 180 540 29 180 541 115 180 542 29 181 543 35 181 544 28 181 545 117 182 546 120 182 547 121 182 548 117 183 549 121 183 550 116 183 551 116 184 552 121 184 553 115 184 554 121 185 555 120 185 556 122 185 557 35 186 558 115 186 559 123 186 560 123 187 561 115 187 562 121 187 563 123 188 564 121 188 565 122 188 566 35 189 567 123 189 568 124 189 569 123 190 570 122 190 571 125 190 572 124 191 573 36 191 574 35 191 575 36 192 576 124 192 577 39 192 578 39 193 579 124 193 580 81 193 581 39 194 582 81 194 583 79 194 584 81 195 585 124 195 586 125 195 587 125 196 588 124 196 589 123 196 590 81 197 591 125 197 592 126 197 593 81 198 594 126 198 595 127 198 596 81 199 597 127 199 598 80 199 599 126 200 600 125 200 601 128 200 602 80 201 603 127 201 604 82 201 605 128 202 606 125 202 607 122 202 608 127 203 609 126 203 610 129 203 611 129 204 612 126 204 613 128 204 614 128 205 615 122 205 616 120 205 617 127 206 618 129 206 619 130 206 620 82 207 621 127 207 622 131 207 623 131 208 624 127 208 625 130 208 626 82 209 627 131 209 628 85 209 629 130 210 630 129 210 631 132 210 632 132 211 633 129 211 634 128 211 635 131 212 636 130 212 637 133 212 638 133 213 639 130 213 640 132 213 641 131 214 642 133 214 643 85 214 644 133 215 645 132 215 646 134 215 647 133 216 648 134 216 649 135 216 650 133 217 651 135 217 652 85 217 653 85 218 654 135 218 655 86 218 656 132 219 657 128 219 658 136 219 659 136 220 660 128 220 661 120 220 662 132 221 663 136 221 664 137 221 665 137 222 666 136 222 667 138 222 668 138 223 669 136 223 670 120 223 671 138 224 672 120 224 673 119 224 674 111 225 675 109 225 676 51 225 677 51 226 678 109 226 679 47 226 680 111 227 681 51 227 682 139 227 683 111 228 684 139 228 685 110 228 686 110 229 687 139 229 688 113 229 689 139 230 690 51 230 691 140 230 692 140 231 693 51 231 694 52 231 695 113 232 696 139 232 697 141 232 698 139 233 699 140 233 700 142 233 701 139 234 702 142 234 703 141 234 704 142 235 705 140 235 706 143 235 707 143 236 708 140 236 709 54 236 710 142 237 711 143 237 712 144 237 713 142 238 714 144 238 715 141 238 716 113 239 717 141 239 718 145 239 719 113 240 720 145 240 721 118 240 722 118 241 723 145 241 724 146 241 725 118 242 726 146 242 727 119 242 728 119 243 729 146 243 730 147 243 731 147 244 732 146 244 733 148 244 734 146 245 735 145 245 736 149 245 737 146 246 738 149 246 739 148 246 740 149 247 741 145 247 742 141 247 743 148 248 744 149 248 745 150 248 746 150 249 747 149 249 748 141 249 749 150 250 750 141 250 751 144 250 752 148 251 753 150 251 754 151 251 755 151 252 756 150 252 757 152 252 758 152 253 759 150 253 760 144 253 761 152 254 762 144 254 763 143 254 764 152 255 765 143 255 766 153 255 767 153 256 768 143 256 769 154 256 770 152 257 771 153 257 772 155 257 773 155 258 774 153 258 775 156 258 776 119 259 777 147 259 778 138 259 779 138 260 780 147 260 781 157 260 782 157 261 783 147 261 784 148 261 785 138 262 786 157 262 787 137 262 788 157 263 789 148 263 790 158 263 791 158 264 792 148 264 793 151 264 794 137 265 795 157 265 796 159 265 797 159 266 798 157 266 799 158 266 800 137 267 801 159 267 802 160 267 803 137 268 804 160 268 805 132 268 806 132 269 807 160 269 808 134 269 809 160 270 810 159 270 811 161 270 812 161 271 813 159 271 814 158 271 815 134 272 816 160 272 817 162 272 818 162 273 819 160 273 820 161 273 821 161 274 822 158 274 823 163 274 824 163 275 825 158 275 826 151 275 827 134 276 828 162 276 829 164 276 830 134 277 831 164 277 832 135 277 833 135 278 834 164 278 835 165 278 836 164 279 837 162 279 838 166 279 839 164 280 840 166 280 841 167 280 842 166 281 843 162 281 844 168 281 845 168 282 846 162 282 847 161 282 848 166 283 849 168 283 850 169 283 851 169 284 852 168 284 853 170 284 854 170 285 855 168 285 856 161 285 857 170 286 858 161 286 859 163 286 860 170 287 861 163 287 862 171 287 863 171 288 864 163 288 865 151 288 866 170 289 867 171 289 868 172 289 869 171 290 870 151 290 871 152 290 872 171 291 873 152 291 874 155 291 875 171 292 876 155 292 877 173 292 878 54 293 879 140 293 880 52 293 881 143 294 882 54 294 883 56 294 884 143 295 885 56 295 886 154 295 887 153 296 888 154 296 889 156 296 890 156 297 891 154 297 892 174 297 893 174 298 894 154 298 895 56 298 896 174 299 897 56 299 898 55 299 899 174 300 900 55 300 901 175 300 902 174 301 903 175 301 904 176 301 905 174 302 906 176 302 907 156 302 908 156 303 909 176 303 910 173 303 911 156 304 912 173 304 913 155 304 914 173 305 915 176 305 916 177 305 917 177 306 918 176 306 919 178 306 920 173 307 921 177 307 922 172 307 923 173 308 924 172 308 925 171 308 926 172 309 927 177 309 928 169 309 929 172 310 930 169 310 931 170 310 932 169 311 933 177 311 934 99 311 935 169 312 936 99 312 937 97 312 938 169 313 939 97 313 940 179 313 941 179 314 942 97 314 943 96 314 944 86 315 945 135 315 946 165 315 947 86 316 948 165 316 949 96 316 950 86 317 951 96 317 952 84 317 953 167 318 954 165 318 955 164 318 956 165 319 957 167 319 958 96 319 959 96 320 960 167 320 961 179 320 962 179 321 963 166 321 964 169 321 965 166 322 966 179 322 967 167 322 968 180 323 969 181 323 970 15 323 971 15 324 972 181 324 973 182 324 974 182 325 975 181 325 976 183 325 977 180 326 978 15 326 979 3 326 980 3 327 981 15 327 982 2 327 983 180 328 984 3 328 985 23 328 986 181 329 987 180 329 988 184 329 989 181 330 990 184 330 991 183 330 992 184 331 993 180 331 994 23 331 995 183 332 996 184 332 997 185 332 998 184 333 999 23 333 1000 186 333 1001 184 334 1002 186 334 1003 187 334 1004 187 335 1005 186 335 1006 188 335 1007 188 336 1008 186 336 1009 189 336 1010 186 337 1011 23 337 1012 21 337 1013 186 338 1014 21 338 1015 189 338 1016 21 339 1017 23 339 1018 20 339 1019 189 340 1020 21 340 1021 22 340 1022 15 341 1023 182 341 1024 16 341 1025 16 342 1026 182 342 1027 190 342 1028 15 343 1029 16 343 1030 14 343 1031 190 344 1032 182 344 1033 191 344 1034 191 345 1035 182 345 1036 192 345 1037 192 346 1038 182 346 1039 183 346 1040 191 347 1041 192 347 1042 193 347 1043 192 348 1044 183 348 1045 185 348 1046 194 349 1047 195 349 1048 193 349 1049 194 350 1050 193 350 1051 196 350 1052 196 351 1053 193 351 1054 192 351 1055 196 352 1056 192 352 1057 185 352 1058 196 353 1059 185 353 1060 197 353 1061 196 354 1062 197 354 1063 198 354 1064 198 355 1065 197 355 1066 199 355 1067 197 356 1068 185 356 1069 187 356 1070 197 357 1071 187 357 1072 199 357 1073 187 358 1074 185 358 1075 184 358 1076 199 359 1077 187 359 1078 188 359 1079 16 360 1080 63 360 1081 13 360 1082 63 361 1083 16 361 1084 190 361 1085 63 362 1086 190 362 1087 200 362 1088 63 363 1089 200 363 1090 61 363 1091 63 364 1092 61 364 1093 62 364 1094 22 365 1095 69 365 1096 189 365 1097 189 366 1098 69 366 1099 201 366 1100 189 367 1101 201 367 1102 188 367 1103 201 368 1104 69 368 1105 202 368 1106 202 369 1107 69 369 1108 70 369 1109 188 370 1110 201 370 1111 203 370 1112 188 371 1113 203 371 1114 199 371 1115 202 372 1116 70 372 1117 204 372 1118 202 373 1119 204 373 1120 201 373 1121 204 374 1122 70 374 1123 88 374 1124 203 375 1125 201 375 1126 205 375 1127 205 376 1128 201 376 1129 204 376 1130 199 377 1131 203 377 1132 206 377 1133 206 378 1134 203 378 1135 205 378 1136 199 379 1137 206 379 1138 198 379 1139 198 380 1140 206 380 1141 207 380 1142 207 381 1143 206 381 1144 208 381 1145 207 382 1146 208 382 1147 209 382 1148 208 383 1149 206 383 1150 210 383 1151 208 384 1152 210 384 1153 211 384 1154 210 385 1155 206 385 1156 212 385 1157 210 386 1158 212 386 1159 211 386 1160 212 387 1161 206 387 1162 205 387 1163 211 388 1164 212 388 1165 213 388 1166 212 389 1167 205 389 1168 214 389 1169 214 390 1170 205 390 1171 204 390 1172 212 391 1173 214 391 1174 213 391 1175 214 392 1176 204 392 1177 88 392 1178 214 393 1179 88 393 1180 213 393 1181 211 394 1182 213 394 1183 215 394 1184 213 395 1185 88 395 1186 89 395 1187 213 396 1188 89 396 1189 215 396 1190 215 397 1191 89 397 1192 90 397 1193 215 398 1194 90 398 1195 94 398 1196 69 399 1197 22 399 1198 65 399 1199 193 400 1200 216 400 1201 191 400 1202 216 401 1203 193 401 1204 195 401 1205 191 402 1206 216 402 1207 217 402 1208 191 403 1209 217 403 1210 190 403 1211 190 404 1212 217 404 1213 200 404 1214 217 405 1215 216 405 1216 218 405 1217 217 406 1218 218 406 1219 200 406 1220 216 407 1221 195 407 1222 219 407 1223 216 408 1224 219 408 1225 218 408 1226 194 409 1227 220 409 1228 195 409 1229 195 410 1230 220 410 1231 219 410 1232 219 411 1233 220 411 1234 221 411 1235 219 412 1236 221 412 1237 222 412 1238 200 413 1239 218 413 1240 223 413 1241 200 414 1242 223 414 1243 61 414 1244 61 415 1245 223 415 1246 60 415 1247 223 416 1248 218 416 1249 224 416 1250 223 417 1251 224 417 1252 225 417 1253 225 418 1254 224 418 1255 226 418 1256 227 419 1257 218 419 1258 219 419 1259 218 420 1260 227 420 1261 224 420 1262 227 421 1263 219 421 1264 222 421 1265 226 422 1266 224 422 1267 228 422 1268 228 423 1269 224 423 1270 227 423 1271 228 424 1272 227 424 1273 222 424 1274 226 425 1275 228 425 1276 229 425 1277 228 426 1278 222 426 1279 230 426 1280 228 427 1281 230 427 1282 229 427 1283 194 428 1284 196 428 1285 198 428 1286 194 429 1287 198 429 1288 207 429 1289 194 430 1290 207 430 1291 220 430 1292 220 431 1293 207 431 1294 209 431 1295 209 432 1296 221 432 1297 220 432 1298 221 433 1299 209 433 1300 231 433 1301 221 434 1302 231 434 1303 232 434 1304 221 435 1305 232 435 1306 222 435 1307 222 436 1308 232 436 1309 230 436 1310 230 437 1311 232 437 1312 233 437 1313 233 438 1314 232 438 1315 234 438 1316 234 439 1317 232 439 1318 235 439 1319 235 440 1320 232 440 1321 231 440 1322 234 441 1323 235 441 1324 236 441 1325 237 442 1326 231 442 1327 209 442 1328 231 443 1329 237 443 1330 235 443 1331 235 444 1332 237 444 1333 236 444 1334 237 445 1335 209 445 1336 208 445 1337 236 446 1338 237 446 1339 238 446 1340 237 447 1341 208 447 1342 211 447 1343 237 448 1344 211 448 1345 238 448 1346 239 449 1347 236 449 1348 238 449 1349 236 450 1350 239 450 1351 234 450 1352 234 451 1353 239 451 1354 240 451 1355 240 452 1356 239 452 1357 106 452 1358 240 453 1359 106 453 1360 103 453 1361 106 454 1362 239 454 1363 105 454 1364 105 455 1365 239 455 1366 238 455 1367 106 456 1368 105 456 1369 104 456 1370 105 457 1371 238 457 1372 215 457 1373 105 458 1374 215 458 1375 94 458 1376 215 459 1377 238 459 1378 211 459 1379 59 460 1380 60 460 1381 225 460 1382 225 461 1383 60 461 1384 223 461 1385 59 462 1386 225 462 1387 241 462 1388 241 463 1389 225 463 1390 226 463 1391 59 464 1392 241 464 1393 242 464 1394 59 465 1395 242 465 1396 57 465 1397 57 466 1398 242 466 1399 53 466 1400 53 467 1401 242 467 1402 55 467 1403 55 468 1404 242 468 1405 175 468 1406 241 469 1407 226 469 1408 243 469 1409 241 470 1410 243 470 1411 242 470 1412 242 471 1413 243 471 1414 175 471 1415 243 472 1416 226 472 1417 229 472 1418 243 473 1419 229 473 1420 244 473 1421 175 474 1422 243 474 1423 178 474 1424 175 475 1425 178 475 1426 176 475 1427 243 476 1428 244 476 1429 245 476 1430 178 477 1431 243 477 1432 246 477 1433 246 478 1434 243 478 1435 245 478 1436 245 479 1437 244 479 1438 247 479 1439 245 480 1440 247 480 1441 246 480 1442 247 481 1443 244 481 1444 248 481 1445 247 482 1446 248 482 1447 249 482 1448 246 483 1449 247 483 1450 250 483 1451 250 484 1452 247 484 1453 249 484 1454 246 485 1455 250 485 1456 178 485 1457 250 486 1458 249 486 1459 102 486 1460 250 487 1461 102 487 1462 99 487 1463 250 488 1464 99 488 1465 178 488 1466 178 489 1467 99 489 1468 177 489 1469 229 490 1470 230 490 1471 251 490 1472 229 491 1473 251 491 1474 244 491 1475 251 492 1476 230 492 1477 233 492 1478 244 493 1479 251 493 1480 248 493 1481 248 494 1482 251 494 1483 233 494 1484 248 495 1485 233 495 1486 234 495 1487 248 496 1488 234 496 1489 240 496 1490 249 497 1491 248 497 1492 240 497 1493 103 498 1494 249 498 1495 240 498 1496 249 499 1497 103 499 1498 102 499 1499</p>
        </polylist>
      </mesh>
    </geometry>
  </library_geometries>
  <library_visual_scenes>
    <visual_scene id="Scene" name="Scene">
      <node id="StrengthPill" name="StrengthPill" type="NODE">
        <scale sid="scale">1 1 1</scale>
        <translate sid="location">0 0 0</translate>
        <rotate sid="rotationX">1 0 0 0</rotate>
        <rotate sid="rotationY">0 1 0 0</rotate>
        <rotate sid="rotationZ">0 0 1 0</rotate>
        <instance_geometry url="#StrengthPill-mesh" name="StrengthPill">
          <bind_material>
            <technique_common>
            </technique_common>
          </bind_material>
        </instance_geometry>
      </node>
    </visual_scene>
  </library_visual_scenes>
  <scene>
    <instance_visual_scene url="#Scene"/>
  </scene>
</COLLADA>
