<?xml version="1.0" encoding="utf-8"?>
<COLLADA xmlns="http://www.collada.org/2005/11/COLLADASchema" version="1.4.1" xmlns:xsi="http://www.w3.org/2001/XMLSchema-instance">
  <asset>
    <contributor>
      <author>Blockbench user</author>
      <authoring_tool>Blockbench</authoring_tool>
    </contributor>
    <created>2026-03-08T04:21:28.234Z</created>
    <modified>2026-03-08T04:21:28.240Z</modified>
    <unit name="meter" meter="1.0"/>
    <up_axis>Y_UP</up_axis>
  </asset>
  <library_effects>
  </library_effects>
  <library_images>
  </library_images>
  <library_materials>
  </library_materials>
  <library_geometries>
    <geometry id="Sulfur-mesh" name="Sulfur">
      <mesh>
        <source id="Sulfur-mesh-positions">
          <float_array id="Sulfur-mesh-positions-array" count="756">-0.334595 -0.209518 -0.267853 -0.366547 -0.190979 -0.195419 -0.410919 -0.135468 -0.283051 -0.279877 -0.261353 -0.141663 -0.458313 -0.113876 -0.198227 -0.420105 -0.147049 -0.106064 -0.430634 -0.05294 -0.267975 -0.297516 -0.111572 -0.296906 -0.338013 -0.039482 -0.287048 -0.248535 -0.058174 -0.35376 -0.282166 -0.243103 -0.290222 -0.228821 -0.158157 -0.325867 -0.172821 -0.214172 -0.321808 -0.199585 -0.272522 -0.197662 -0.149521 -0.293945 -0.308411 -0.070389 -0.301544 -0.231155 -0.129211 -0.32486 -0.132477 -0.246155 -0.322937 -0.059273 -0.334351 -0.227737 -0.074547 -0.31015 -0.34729 0.008312 -0.204987 -0.326935 0.08551 -0.330566 -0.24144 0.08625 -0.243027 -0.335358 0.168045 -0.328918 -0.252869 0.211456 -0.430634 -0.223907 0.038467 -0.476562 -0.148468 -0.00429 -0.404999 -0.066299 -0.011057 -0.285889 -0.255219 0.301147 -0.34549 -0.121315 0.282898 -0.351013 -0.132248 0.189011 -0.367218 -0.177155 0.115875 -0.399994 -0.042004 0.136597 -0.411896 -0.122414 0.08316 -0.448395 0.001019 0.067284 -0.453278 0.032661 -0.018915 -0.449249 0.085533 0.043365 -0.337982 0.082344 -0.34494 -0.394409 0.034027 -0.238342 -0.429871 -0.051548 -0.135223 -0.504395 0.035599 -0.196671 -0.486542 0.038979 -0.097107 -0.196487 0.09346 -0.425629 -0.272919 0.02861 -0.42688 -0.245422 0.1213 -0.320374 -0.128601 0.00312 -0.388763 -0.175522 -0.080505 -0.418793 -0.092453 -0.147308 -0.412781 -0.222076 0.206543 -0.280579 -0.154907 0.189117 -0.321106 -0.087692 0.214142 -0.335266 -0.104706 0.065216 -0.421417 -0.039639 0.114876 -0.405487 0.012995 0.152054 -0.314026 0.013937 0.082466 -0.400024 -0.045975 -0.002358 -0.44516 -0.002566 -0.043415 -0.412231 0.014226 -0.144806 -0.428345 0.076736 -0.082176 -0.367462 0.135864 0.011672 -0.468903 -0.01631 -0.216507 -0.346313 0.145981 -0.190948 -0.388977 -0.373108 0.116791 -0.206863 -0.44519 0.150177 -0.123268 -0.41748 0.203232 -0.08152 -0.397888 0.181229 -0.265289 -0.415436 0.324097 -0.269745 -0.500854 0.154251 -0.040916 0.06279 -0.26651 -0.334229 0.052109 -0.28656 -0.255249 0.152939 -0.256073 -0.313049 0.167984 -0.130875 -0.277618 0.181763 -0.031761 -0.339783 0.219543 -0.059959 -0.285339 0.201935 -0.222473 -0.198547 0.10218 -0.282898 -0.184952 0.210571 -0.226334 -0.158264 0.325012 -0.21788 -0.283386 0.351257 -0.280579 -0.162399 0.173935 -0.09787 -0.232132 0.377441 -0.131363 -0.246979 0.271057 -0.041702 -0.19693 0.308136 -0.011318 -0.250458 -0.008023 -0.363678 -0.184799 -0.019026 -0.348206 -0.081306 0.14386 -0.291718 -0.053154 -0.123878 -0.404297 0.036057 -0.045769 -0.433472 0.052963 0.060413 -0.381348 0.00273 0.177765 -0.420929 0.004682 0.072418 -0.417023 0.122414 -0.37146 0.373596 -0.244293 -0.219025 0.322418 -0.217621 -0.241943 0.321381 -0.114624 -0.157043 0.226547 -0.172134 -0.09935 0.240936 -0.250885 -0.17514 0.282501 -0.216995 0.014174 0.195877 -0.236847 -0.091469 0.381226 -0.225464 -0.042274 0.278412 -0.17952 -0.437592 0.177322 0.033188 -0.353333 0.171036 0.086876 -0.308716 0.201691 -0.029127 -0.300629 0.235641 0.09549 -0.351105 0.316772 -0.088661 -0.214096 0.272369 -0.064659 -0.165817 0.190338 -0.145172 -0.109337 0.267212 -0.048222 -0.233032 0.228516 0.007909 -0.242065 0.250824 0.092216 -0.22908 0.216858 0.204102 -0.15686 0.244095 0.0821 -0.130493 0.235992 0.150513 -0.109665 0.318817 0.010369 -0.06752 0.3125 0.121574 -0.073181 0.21553 0.159607 0.012714 0.332886 0.068665 0.015293 0.257294 0.206818 0.080666 0.276398 0.075394 0.071693 0.113426 -0.339478 0.098366 0.213562 -0.231659 0.158676 0.066864 -0.404449 0.185532 0.221909 -0.423523 -0.023621 0.210251 -0.153687 0.039673 0.248398 -0.179092 0.001928 0.32312 -0.089775 -0.078873 0.225082 -0.143951 0.103699 0.267029 -0.149353 0.159042 0.236221 -0.16864 0.157578 0.266663 -0.311371 0.246216 0.308807 -0.332031 0.33551 0.276398 -0.244568 0.374542 0.268524 -0.419312 -0.049877 0.307007 -0.018709 -0.110245 0.284119 -0.127411 -0.159485 -0.371002 0.170441 -0.198135 -0.381775 0.273804 -0.13562 -0.389496 0.298492 -0.091675 -0.454773 0.261749 0.175308 -0.391357 0.129364 0.122414 -0.469971 0.250427 0.042484 -0.429626 0.24057 -0.022818 -0.456329 0.311676 -0.034069 -0.375671 0.365295 0.053829 -0.40387 0.342651 0.175049 -0.400421 0.29068 0.065475 -0.299194 0.431183 0.118439 -0.394684 0.407135 -0.121178 -0.305695 0.301239 -0.244308 -0.206161 0.344116 -0.22847 -0.142105 0.358795 -0.139587 -0.227875 0.342346 -0.130737 -0.118683 0.360596 -0.087936 -0.209137 0.437164 0.057106 -0.226883 0.471619 -0.045986 -0.148041 0.407257 -0.179993 -0.059822 0.353851 -0.261963 -0.035454 0.301605 -0.095131 0.032486 0.31665 -0.059765 -0.016024 0.346161 0.027704 -0.102814 0.326508 0.114334 -0.216766 0.413177 0.149384 -0.317566 0.449951 0.183258 -0.270844 0.367645 0.225159 -0.130112 0.413055 -0.332825 0.059643 0.238007 -0.246811 0.071144 0.239777 -0.189407 0.121666 0.293152 -0.444183 0.036461 0.166565 -0.481934 0.092178 0.11113 -0.422241 0.131165 0.161484 -0.341766 0.099419 0.195724 -0.290924 0.146393 0.164703 -0.134354 0.199203 0.282776 -0.089546 0.135986 0.306244 -0.125992 0.193787 0.21315 0.073578 0.293427 -0.021898 0.120216 0.179169 -0.056126 0.124359 0.296509 -0.050297 0.144745 0.378571 0.097557 0.18869 0.406464 -0.027916 0.020634 0.158569 0.218292 0.071396 0.167725 0.185959 0.1082 0.117165 0.194611 0.181503 0.133682 0.21788 0.187851 0.031746 0.132889 0.151535 0.040691 0.177795 0.112007 0.053329 0.275574 0.07618 -0.02294 0.223618 0.059834 0.102318 0.262604 0.037071 0.006225 0.279877 -0.013127 0.117302 0.345459 0.424194 -0.256744 -0.264343 0.234818 -0.285278 -0.07193 0.279938 -0.188049 -0.05098 0.398743 -0.170975 -0.153748 0.27124 -0.078903 -0.030233 0.278534 -0.066833 -0.107216 0.261505 -0.036572 -0.161026 0.351501 -0.074203 -0.125061 0.367615 -0.052574 -0.161087 0.368958 -0.071266 -0.057293 0.30304 -0.052261 -0.006935 0.4505 0.039352 -0.093216 0.37207 0.049252 -0.002848 0.200714 -0.267944 0.002332 0.246597 -0.236511 -0.027082 0.238708 -0.332764 0.037258 0.288544 -0.259979 0.011747 0.223541 -0.379303 0.115601 0.306824 -0.289215 0.148346 0.257263 -0.313599 0.199341 0.319153 -0.153107 0.194717 0.354523 -0.302185 0.064362 0.362701 -0.229034 -0.035019 0.404022 -0.253906 0.144211 0.376862 -0.169571 0.177628 0.506409 -0.163681 0.067398 0.278076 -0.122185 0.167847 0.224167 -0.034752 0.248383 0.29184 -0.054024 0.089104 0.255493 -0.043549 0.147522 0.302032 0.023691 -0.360962 0.31134 0.099152 -0.414276 0.348419 0.083992 -0.371521 0.351562 0.046871 -0.199814 0.452515 0.116081 -0.166245 0.409729 0.09198 -0.054516 0.273376 0.082047 -0.003836 0.296906 0.145859 -0.072296 0.30835 0.132751 -0.145889 0.209244 0.124893 -0.066963 0.198807 0.19635 -0.108833 0.269958 0.208939 -0.146378 0.399109 0.17337 -0.289459 0.282562 0.38031 -0.081001 0.354401 0.470825 0.055729 0.372345 0.413483 0.018272 0.407562 0.221268 0.078491 0.375214 0.235489 -0.056541 0.200943 0.302124 0.208008 0.261139 0.126587 0.198547 0.300659 0.072632 0.089645 0.219391 0.006315 0.076668 0.107018 0.253693 0.141647 0.209885 0.053288 0.00831 0.277405 0.047787 0.020256 0.182449 -0.365051 0.202942 0.235794 -0.328308 0.335022 0.317078 -0.204727 0.340363 0.163437 -0.031067 0.231293 0.16188 -0.001142 0.121239 0.109024 -0.053482 0.312561</float_array>
          <technique_common>
            <accessor source="#Sulfur-mesh-positions-array" count="252" stride="3">
              <param name="X" type="float"/>
              <param name="Y" type="float"/>
              <param name="Z" type="float"/>
            </accessor>
          </technique_common>
        </source>
        <source id="Sulfur-mesh-normals">
          <float_array id="Sulfur-mesh-normals-array" count="1500">-0.679908 -0.724296 -0.114542 -0.604954 -0.793707 -0.063713 -0.632103 -0.758146 -0.16019 -0.6431 -0.765729 -0.009005 -0.87933 -0.126178 -0.459192 -0.149656 0.142971 -0.978347 -0.062447 -0.262019 -0.96304 -0.204313 0.019062 -0.97872 -0.611967 -0.240759 -0.753347 -0.564662 -0.820172 -0.092055 -0.442472 -0.096942 -0.891527 -0.545287 -0.323278 -0.773404 -0.441713 -0.096873 -0.891911 -0.200893 -0.269094 -0.941929 0.124736 -0.908034 -0.399895 -0.886031 -0.315797 -0.339443 -0.21563 -0.969586 -0.115788 -0.192897 -0.975946 0.101586 -0.295884 -0.875022 -0.38313 -0.270052 -0.871892 -0.408506 -0.412328 -0.802567 -0.431129 -0.696712 -0.681422 -0.224179 -0.596204 -0.798427 -0.083999 0.259559 -0.960502 -0.100327 -0.490434 -0.561308 -0.666639 -0.676068 -0.735547 -0.043604 -0.980973 -0.194034 0.006556 -0.818122 -0.43485 0.376274 -0.705986 -0.706074 -0.055159 -0.134363 -0.987616 -0.081001 -0.531081 -0.731473 -0.427668 -0.676008 -0.629073 -0.383772 -0.711089 0.587493 -0.38627 -0.855639 -0.326068 0.401947 -0.983149 -0.165737 0.077135 -0.874656 -0.483644 -0.032635 -0.950828 -0.121128 0.285053 -0.433384 -0.569115 0.698775 -0.890719 -0.271867 0.364291 -0.779209 -0.126462 0.613873 -0.709381 -0.170218 0.683962 -0.764075 -0.274791 0.583677 -0.698995 0.635741 0.327474 -0.856546 -0.191649 0.479165 -0.919763 -0.303914 -0.248339 -0.889535 -0.44288 -0.112182 -0.998238 0.006603 0.058972 -0.606638 -0.341084 -0.71809 -0.801272 -0.256628 -0.540468 -0.240317 0.40127 -0.883872 -0.920019 0.391178 -0.023347 -0.916121 0.400527 0.017336 -0.263068 -0.696033 -0.668082 -0.920237 0.025142 0.390552 -0.803766 -0.572026 0.163544 -0.980609 -0.04182 0.19146 -0.82421 -0.557589 0.098858 -0.857561 -0.391919 0.333151 -0.448077 0.541819 -0.711097 -0.8088 -0.494904 -0.317669 -0.277514 0.889026 -0.364169 0.093931 -0.62592 -0.77421 0.210415 -0.229663 -0.950253 -0.473467 0.520757 -0.710381 -0.682969 -0.318103 -0.657544 -0.408178 -0.571624 -0.711784 0.236203 0.2083 -0.949115 -0.439206 -0.493487 -0.750713 -0.361533 0.47387 -0.802958 -0.540484 0.716623 -0.440828 -0.39161 0.751055 -0.531562 -0.092829 -0.435206 -0.895532 0.0242 0.585123 -0.810583 0.100805 0.1817 -0.978174 0.517114 0.646843 -0.560524 0.472261 0.687747 -0.551339 -0.013288 0.321167 -0.946929 0.271994 0.295244 -0.915888 -0.560957 -0.205806 -0.801855 0.603307 -0.001757 -0.797507 -0.381067 -0.789185 -0.481637 -0.137232 0.123934 -0.982755 -0.146133 0.131623 -0.980469 0.558807 0.219641 -0.799683 0.018637 -0.73931 -0.673108 -0.08092 -0.735338 -0.672852 0.787211 -0.578784 -0.212857 -0.258091 0.026722 -0.965751 -0.113184 -0.75024 -0.651406 -0.154343 -0.207313 -0.966022 0.353127 -0.824171 -0.442768 -0.31845 0.407493 -0.855885 -0.421723 0.888759 0.179606 -0.612979 0.41377 -0.67309 -0.59638 0.467841 -0.65227 -0.441662 0.634547 -0.634259 -0.914363 0.375604 0.151205 -0.39208 0.686573 -0.612283 -0.916151 -0.397697 -0.050056 0.03082 -0.664853 -0.746338 -0.080711 -0.040975 -0.995895 -0.890357 -0.283997 0.355823 -0.812356 0.170925 -0.55755 -0.329105 -0.679163 -0.65607 -0.157286 -0.459997 -0.873878 0.072063 -0.969016 -0.236251 0.235706 -0.726875 -0.645055 0.163432 -0.961269 -0.221927 0.985186 -0.074706 -0.154359 0.540352 -0.288615 0.790393 0.718157 0.543214 -0.434936 0.442176 -0.519889 -0.730887 0.57635 -0.490218 -0.65384 0.480246 -0.464361 -0.744133 0.466868 -0.83577 -0.289002 0.490248 -0.851352 -0.1867 -0.024939 -0.995622 -0.090081 -0.343398 -0.86223 -0.372341 0.959795 0.152088 -0.235928 -0.527464 -0.329586 -0.783042 0.788804 -0.541919 0.29002 -0.003098 0.389458 -0.921039 0.020272 0.505539 -0.862565 0.532867 -0.834856 -0.138087 0.51482 -0.848162 -0.124824 -0.071704 -0.641678 -0.763615 0.552535 -0.754459 -0.354256 -0.442138 -0.777476 -0.447264 0.581656 -0.793174 0.180418 -0.25718 -0.959366 0.116081 0.465238 -0.885081 -0.013635 0.35923 -0.87746 -0.317831 0.00644 -0.904459 -0.426512 -0.267229 -0.874894 -0.403917 -0.629401 -0.760858 0.157956 -0.18394 -0.812774 -0.552779 0.351494 -0.70867 -0.61175 0.17797 -0.846348 -0.502017 -0.131392 -0.433526 -0.891511 0.302226 -0.904794 -0.300013 -0.30633 -0.920236 -0.243574 0.154556 0.339725 -0.927739 0.298268 0.449604 -0.841957 0.305117 0.949161 0.077448 0.784698 0.592994 0.180575 0.803783 0.267544 -0.531369 0.104956 0.964853 -0.24092 -0.504793 0.83548 -0.217157 -0.389476 0.86096 -0.327195 -0.577435 -0.616186 -0.535615 0.38348 0.894204 -0.230961 -0.314083 0.186332 -0.930931 0.350608 0.684065 -0.639632 0.759344 0.074475 -0.646414 -0.604532 0.663088 -0.441424 -0.902913 -0.297089 0.310622 -0.774925 0.166031 0.609857 -0.459541 0.880249 0.118256 -0.522036 0.159202 0.837934 -0.073121 0.970812 0.228424 -0.085087 0.974991 0.205311 -0.760689 0.637122 -0.124209 -0.988125 -0.12419 -0.090477 -0.812563 0.494434 0.308667 -0.411319 0.294704 0.862535 -0.7845 0.542381 0.300637 0.040687 0.940271 0.337988 0.125232 0.74226 0.658307 -0.007602 0.457256 0.889302 0.781253 0.604105 0.157167 0.896158 0.104049 0.431363 0.140346 0.734381 -0.664069 -0.464827 0.806248 0.365924 -0.037646 0.859576 0.50962 -0.215933 0.945537 -0.243584 -0.255701 0.927466 -0.272808 -0.222752 0.925352 0.306767 -0.267496 0.960798 0.072885 0.046577 0.966903 -0.250856 0.088306 0.992585 0.08353 -0.909902 0.308755 -0.277035 -0.659237 0.694068 0.289267 -0.579853 0.326598 0.746394 -0.169534 0.978214 0.119818 0.471583 0.297987 0.829948 -0.558258 0.723406 0.406241 0.566336 0.727426 0.387447 0.2337 0.757099 -0.61007 0.162071 0.702731 -0.69275 0.076671 0.856187 -0.510946 -0.596817 0.004669 -0.802363 0.060357 0.747534 -0.661476 -0.422969 0.142233 -0.894912 0.942368 0.001224 -0.334577 0.480294 -0.765471 -0.42822 0.538659 0.729095 -0.422216 -0.150811 0.860637 -0.486374 0.870001 0.364091 0.33247 -0.585028 0.711688 -0.3889 -0.120381 0.760333 -0.63828 -0.56478 0.49972 -0.656736 -0.019817 0.496034 -0.868077 0.063508 0.778487 -0.624439 0.009285 0.838281 -0.545159 0.259103 0.802198 -0.537907 -0.506478 0.842211 0.184824 -0.818173 0.507971 -0.269368 -0.76965 0.5034 -0.392717 -0.383318 0.90249 0.196417 -0.467565 0.774709 -0.425687 -0.043689 0.921447 0.386041 -0.17608 0.769419 -0.613996 -0.256802 0.616468 0.744325 -0.322797 0.824128 -0.46542 -0.53032 0.700764 -0.477169 -0.491134 0.855497 -0.164053 -0.171026 0.738897 -0.651753 -0.316401 -0.408059 0.856375 -0.794928 0.201665 0.572207 -0.655659 0.595503 0.464206 0.5385 0.544884 0.642744 0.610596 0.104536 0.785013 0.262837 0.404002 0.876184 0.196675 -0.980424 -0.009409 -0.3723 -0.890234 -0.262443 -0.375853 -0.89665 -0.233994 -0.691552 -0.722314 -0.004276 -0.070964 -0.989022 -0.129616 -0.755852 -0.65362 -0.038333 -0.809873 -0.582794 0.066766 -0.313723 -0.935176 -0.164388 0.17333 -0.9829 -0.062168 0.220989 -0.947964 0.229192 0.244604 -0.858543 -0.450637 0.174648 -0.982766 -0.06058 -0.421522 -0.884237 -0.201106 -0.455922 -0.649467 0.608545 0.144293 -0.962672 -0.229004 -0.408102 -0.544205 0.733003 -0.460343 -0.847285 0.264939 0.514321 -0.843359 0.155627 0.038749 -0.549436 0.834637 0.317078 -0.64329 0.696878 -0.010121 -0.645082 0.764046 -0.581468 -0.486697 0.651936 -0.594683 -0.758886 0.265414 -0.809434 -0.580453 0.088827 -0.081482 -0.264136 0.961037 -0.36368 0.032158 0.930969 -0.554774 0.068427 0.829182 -0.172702 -0.562079 0.808852 -0.608064 -0.164814 0.776591 -0.550179 -0.054911 0.833239 -0.084993 -0.481028 0.872576 -0.028418 -0.216598 0.975847 -0.734335 -0.444636 0.512885 0.021742 -0.166525 0.985797 -0.742141 -0.453168 0.493828 -0.87737 -0.00907 0.479729 -0.258137 -0.451986 0.853859 -0.181165 -0.495882 0.849282 -0.244408 0.556521 0.794071 -0.139046 0.51077 0.848399 -0.038067 0.082265 0.995883 -0.443134 0.311578 0.840566 -0.30566 0.584054 0.751966 -0.109962 0.456839 0.882727 0.016885 0.127766 0.991661 -0.349672 0.363176 0.863616 0.556955 0.395995 0.730061 0.278901 0.70663 0.650299 0.333483 0.818273 0.468208 0.709761 -0.279454 0.646641 -0.147018 0.293486 0.944591 -0.280089 -0.37762 0.882583 0.709938 0.44577 0.54523 0.291215 -0.371205 0.881703 -0.483751 0.290744 0.825502 -0.71187 0.701185 -0.039775 -0.736212 -0.101078 0.66916 -0.79271 -0.079196 0.604433 -0.085679 0.508965 0.856512 -0.281369 0.511069 0.812182 -0.491192 -0.304198 0.816207 -0.808587 -0.542429 0.227944 -0.889528 -0.417031 0.186613 -0.898138 -0.128123 -0.420634 -0.53764 0.773688 -0.335187 -0.704742 0.199805 0.680747 -0.526959 0.849256 -0.032851 -0.034382 -0.37342 0.927025 -0.344447 0.12969 0.929805 -0.898557 0.208515 0.386157 -0.109512 0.712328 0.69325 -0.090537 0.615185 0.783167 -0.150093 0.652798 0.742514 -0.115668 0.916498 0.382952 -0.632782 0.430389 0.643702 -0.752541 0.188395 0.631022 -0.753369 0.349879 0.556795 -0.724554 0.28505 0.627509 -0.514191 0.461803 0.722734 -0.160138 0.241771 0.957028 0.805782 0.590023 0.050877 0.222232 0.973759 -0.049056 0.136878 0.826033 0.546748 -0.026131 0.955705 0.293163 0.037698 0.95047 -0.308521 0.093884 0.934274 -0.343974 0.111986 0.948392 0.296666 0.631516 0.770259 0.088811 0.445029 0.891974 -0.07957 0.930253 0.334615 0.150539 0.925711 0.378229 -0.001239 0.546539 0.655606 0.521033 -0.945828 0.049336 -0.320897 -0.8116 0.551077 -0.193956 -0.833715 0.523525 -0.175615 0.206996 0.818176 0.536415 0.338879 0.940634 -0.019196 0.182379 0.835089 0.519003 0.516607 0.12637 0.846846 -0.496351 0.073678 0.86499 0.423297 0.443336 0.790109 -0.292106 -0.049188 0.95512 -0.09729 -0.640911 0.761425 0.768113 0.31235 0.558964 0.858159 0.421996 0.292375 0.720268 -0.588514 0.36724 0.477096 0.724436 0.497565 0.514813 0.684818 0.515744 0.437166 -0.637519 0.634394 -0.06395 0.19121 0.979464 0.846206 0.146414 0.512346 0.488424 0.307308 0.816703 0.320643 0.651841 0.687234 0.744186 -0.056649 0.665565 0.155498 -0.449181 0.879805 0.585436 0.712571 0.386661 -0.431556 0.113266 0.894947 0.064778 0.943997 0.323534 -0.144274 0.106694 0.983769 0.19171 0.865679 0.462436 -0.267814 -0.877933 -0.396875 0.26968 0.230057 -0.935065 -0.329984 -0.820202 -0.467311 0.568191 -0.416585 0.709659 0.79184 -0.380755 0.477509 0.643756 -0.333278 0.688843 0.932367 0.356211 -0.061686 0.658916 -0.08946 0.746878 0.679876 0.71789 0.149675 0.682594 0.709316 0.175887 0.676761 0.721632 0.145743 0.766036 0.632716 0.113395 -0.19483 -0.87998 -0.433215 -0.124738 -0.825045 -0.551128 0.2198 0.789871 0.572531 0.035237 -0.987823 -0.15154 0.049893 -0.98283 -0.177641 0.223173 -0.778906 0.586088 0.779931 -0.614119 -0.120687 0.495016 -0.3683 0.786965 0.701436 -0.308393 0.642558 -0.055138 -0.831759 -0.552393 0.125125 -0.951912 0.279655 0.718435 -0.118301 -0.68546 0.682687 -0.577094 0.44822 0.850319 -0.452497 0.268708 0.576655 -0.09896 -0.810972 -0.160389 -0.53941 -0.826627 0.784058 -0.600286 0.157826 0.341657 -0.594146 -0.72819 0.394855 -0.532717 -0.748533 0.073499 -0.863603 -0.498787 0.771657 -0.601162 -0.207724 0.754844 -0.61339 -0.232298 0.64703 -0.704311 0.292058 0.751842 -0.272634 0.600336 -0.461143 -0.878296 -0.126269 -0.039729 -0.803155 -0.594444 0.855524 -0.448086 -0.25942 0.334948 -0.883778 0.326721 0.156012 -0.320033 0.934473 0.179585 -0.331784 0.926104 0.647745 -0.091107 0.75639 0.360681 0.836898 0.411718 0.686132 0.674373 -0.272844 0.272415 0.703416 0.656503 0.821774 0.351848 0.448208 -0.185337 -0.658363 -0.729527 0.280441 0.20077 -0.938639 0.407007 0.275713 -0.87082 0.464591 0.28974 -0.836783 0.536682 -0.810067 -0.236145 0.459555 0.885399 0.069846 0.425845 0.726513 0.539291 0.095983 -0.529979 -0.842562 0.070787 -0.581388 -0.810542 0.539017 -0.529364 -0.65516 0.749474 -0.618076 -0.237213 0.355321 -0.885265 -0.30009 0.545791 -0.526821 -0.651592 0.844938 -0.519384 -0.127751 0.708843 -0.682856 0.176773 0.820778 -0.492876 0.288785 -0.056361 -0.370195 -0.927243 0.459026 -0.257079 -0.850415 0.806379 -0.4187 -0.417664 0.756509 0.112307 0.644268 0.215398 0.669637 0.710767 0.843194 0.358859 0.400306 0.212454 0.677314 0.70435 0.364609 0.871615 0.32764 0.090919 0.982773 -0.160908 -0.062569 0.507959 -0.859106 -0.239458 0.948753 -0.206223 0.06629 -0.497215 -0.865091 0.403701 0.709539 0.577564 0.489231 0.698092 0.522801 -0.039513 -0.115261 -0.992549 0.032568 -0.041844 -0.998593 0.076001 0.797437 0.598597 -0.22043 -0.104853 0.969751 0.659742 0.336764 0.671811 0.788472 0.239963 0.56633 0.870027 0.461451 0.173542 0.316679 0.948119 0.028013 0.676807 -0.272883 -0.683715 0.918232 -0.215965 -0.331977 0.903626 -0.414936 -0.106245 0.833137 0.075152 0.547937 -0.4014 -0.505974 -0.763458 -0.565095 0.060825 -0.822781 -0.325795 0.284729 -0.901547 -0.369405 0.388 -0.844391 -0.062524 0.847018 -0.527874 0.499852 0.577852 -0.645163 -0.390564 0.918112 0.06731 0.9673 0.217896 0.129819 0.969279 0.10842 -0.22078 -0.206229 0.752346 0.625655 0.545739 0.190679 0.815972 0.598807 0.163084 0.784114 0.72056 -0.48075 0.499673 0.769913 -0.574578 -0.277657 0.238285 0.029393 0.97075 0.129699 -0.630195 0.765527 0.460411 -0.717574 0.522599 -0.252897 0.085667 0.963693 0.762395 -0.582817 -0.281208 0.46408 -0.679826 0.567861 0.635179 -0.72776 -0.258678 -0.653027 0.54281 0.528122 -0.658079 0.419557 0.625224 0.574898 0.1739 0.799532 -0.795886 0.400695 0.453881 0.2089 0.947609 0.241657 0.245145 -0.782776 -0.571984 -0.098978 0.564584 0.819419 -0.033777 0.821503 0.569203 0.184707 0.579768 0.793569 0.235288 -0.198306 0.95148 0.969236 0.216544 0.117007 0.336237 0.559809 0.757336 0.597999 0.766379 0.234648 0.302735 -0.097849 -0.948039 0.751099 -0.61324 -0.244516 0.280603 0.017436 -0.959665 0.654723 0.301826 -0.692993 0.309727 -0.904456 0.293306 0.5373 -0.75495 0.375978 0.97266 -0.231952 -0.011471 0.535491 -0.797986 -0.276529 0.805792 -0.591337 -0.031932 0.749537 -0.660291 0.047019 0.610714 -0.71876 0.332283 0.062306 -0.994902 0.0793 0.831879 -0.55027 0.071975 0.92578 -0.360305 -0.11451 0.806705 0.553293 0.207592 0.307109 -0.241778 0.92045 0.524903 -0.003323 0.851156 0.894848 -0.428498 0.125043 0.65418 0.359821 0.665265 0.225442 0.731614 -0.643363 0.343209 0.907569 0.241923 0.252495 0.847148 0.467533 0.528453 -0.621989 0.577813 0.54067 -0.626015 0.561944 0.980837 0.191074 0.038079 -0.015102 0.596026 0.802823 0.061846 0.950775 0.303647 -0.013772 0.966238 0.257283 -0.413745 0.803196 0.428592 -0.167008 0.513293 0.841807 -0.37284 0.477958 0.795328 0.136844 0.857589 0.495797 0.739075 0.584856 0.334232 0.362139 -0.382151 0.850186</float_array>
          <technique_common>
            <accessor source="#Sulfur-mesh-normals-array" count="500" stride="3">
              <param name="X" type="float"/>
              <param name="Y" type="float"/>
              <param name="Z" type="float"/>
            </accessor>
          </technique_common>
        </source>
        <source id="Sulfur-mesh-map-0">
          <float_array id="Sulfur-mesh-map-0-array" count="3000">0.341064 0.490723 0.396484 0.493652 0.360107 0.560059 0.396484 0.493652 0.341064 0.490723 0.399414 0.410889 0.360107 0.560059 0.396484 0.493652 0.427734 0.567627 0.427734 0.567627 0.396484 0.493652 0.471436 0.511963 0.360107 0.560059 0.427734 0.567627 0.381348 0.613525 0.360107 0.560059 0.381348 0.613525 0.28418 0.537109 0.360107 0.560059 0.28418 0.537109 0.341064 0.490723 0.28418 0.537109 0.381348 0.613525 0.29834 0.59082 0.28418 0.537109 0.29834 0.59082 0.228516 0.563232 0.309814 0.45874 0.399414 0.410889 0.341064 0.490723 0.309814 0.45874 0.341064 0.490723 0.28418 0.537109 0.28418 0.537109 0.228516 0.563232 0.247559 0.495117 0.28418 0.537109 0.247559 0.495117 0.309814 0.45874 0.309814 0.45874 0.247559 0.495117 0.231201 0.444824 0.309814 0.45874 0.231201 0.444824 0.294678 0.375 0.294678 0.375 0.231201 0.444824 0.212158 0.391602 0.548096 0.695557 0.542236 0.725586 0.505371 0.713379 0.579834 0.712402 0.585938 0.735352 0.542236 0.725586 0.542236 0.725586 0.585938 0.735352 0.548584 0.747803 0.542236 0.725586 0.548584 0.747803 0.501221 0.748047 0.542236 0.725586 0.501221 0.748047 0.505371 0.713379 0.505371 0.713379 0.501221 0.748047 0.469727 0.712402 0.505371 0.713379 0.469727 0.712402 0.485107 0.670898 0.469482 0.766846 0.501221 0.748047 0.495117 0.788574 0.501221 0.748047 0.469482 0.766846 0.469727 0.712402 0.485107 0.670898 0.469727 0.712402 0.447266 0.651855 0.469727 0.712402 0.469482 0.766846 0.424805 0.751465 0.424805 0.751465 0.469482 0.766846 0.421387 0.800537 0.424805 0.751465 0.421387 0.800537 0.387695 0.775146 0.469727 0.712402 0.424805 0.751465 0.421387 0.713867 0.469727 0.712402 0.421387 0.713867 0.447266 0.651855 0.447266 0.651855 0.421387 0.713867 0.415527 0.685791 0.447266 0.651855 0.415527 0.685791 0.398926 0.665039 0.363037 0.798828 0.34082 0.769043 0.387695 0.775146 0.387695 0.775146 0.34082 0.769043 0.366943 0.746338 0.424805 0.751465 0.387695 0.775146 0.395752 0.73584 0.395752 0.73584 0.387695 0.775146 0.366943 0.746338 0.424805 0.751465 0.395752 0.73584 0.421387 0.713867 0.395752 0.73584 0.366943 0.746338 0.352783 0.708496 0.383057 0.707275 0.415527 0.685791 0.421387 0.713867 0.383057 0.707275 0.421387 0.713867 0.395752 0.73584 0.383057 0.707275 0.395752 0.73584 0.352783 0.708496 0.415527 0.685791 0.383057 0.707275 0.398926 0.665039 0.383057 0.707275 0.352783 0.708496 0.361816 0.669678 0.383057 0.707275 0.361816 0.669678 0.398926 0.665039 0.398926 0.665039 0.361816 0.669678 0.368896 0.63916 0.368896 0.63916 0.361816 0.669678 0.340332 0.644043 0.873535 0.750732 0.849609 0.795166 0.817383 0.765381 0.817383 0.765381 0.849609 0.795166 0.810547 0.820801 0.810547 0.820801 0.849609 0.795166 0.858887 0.838623 0.810547 0.820801 0.858887 0.838623 0.850098 0.882568 0.810547 0.820801 0.850098 0.882568 0.806396 0.883789 0.810547 0.820801 0.806396 0.883789 0.762207 0.845459 0.806396 0.883789 0.850098 0.882568 0.833984 0.922852 0.762207 0.845459 0.806396 0.883789 0.75293 0.891357 0.806396 0.883789 0.833984 0.922852 0.785156 0.935303 0.806396 0.883789 0.785156 0.935303 0.75293 0.891357 0.75293 0.891357 0.785156 0.935303 0.737305 0.923584 0.078125 0.401123 0.05249 0.432373 0.011719 0.407471 0.011719 0.407471 0.05249 0.432373 0.028076 0.472168 0.078125 0.401123 0.011719 0.407471 0.037354 0.374756 0.028076 0.472168 0.05249 0.432373 0.114258 0.432861 0.114258 0.432861 0.05249 0.432373 0.078125 0.401123 0.028076 0.472168 0.114258 0.432861 0.066162 0.486572 0.028076 0.472168 0.066162 0.486572 0.019775 0.513672 0.019775 0.513672 0.066162 0.486572 0.094727 0.518799 0.094727 0.518799 0.066162 0.486572 0.114258 0.432861 0.019775 0.513672 0.094727 0.518799 0.034668 0.541748 0.037842 0.335938 0.070068 0.342529 0.037354 0.374756 0.037354 0.374756 0.070068 0.342529 0.078125 0.401123 0.078125 0.401123 0.070068 0.342529 0.096436 0.329102 0.117188 0.40332 0.114258 0.432861 0.078125 0.401123 0.078125 0.401123 0.096436 0.329102 0.138428 0.377197 0.078125 0.401123 0.138428 0.377197 0.117188 0.40332 0.138428 0.377197 0.096436 0.329102 0.152832 0.334717 0.138428 0.377197 0.152832 0.334717 0.190186 0.39209 0.117188 0.40332 0.138428 0.377197 0.1521 0.41748 0.1521 0.41748 0.138428 0.377197 0.190186 0.39209 0.117188 0.40332 0.1521 0.41748 0.114258 0.432861 0.1521 0.41748 0.190186 0.39209 0.169678 0.438721 0.1521 0.41748 0.169678 0.438721 0.114258 0.432861 0.114258 0.432861 0.169678 0.438721 0.094727 0.518799 0.094727 0.518799 0.169678 0.438721 0.138916 0.519531 0.138916 0.519531 0.169678 0.438721 0.181396 0.509277 0.181396 0.509277 0.169678 0.438721 0.238037 0.486084 0.094727 0.518799 0.138916 0.519531 0.120361 0.561035 0.120361 0.561035 0.138916 0.519531 0.181396 0.509277 0.120361 0.561035 0.181396 0.509277 0.189453 0.567139 0.094727 0.518799 0.120361 0.561035 0.034668 0.541748 0.034668 0.541748 0.120361 0.561035 0.036133 0.575439 0.036133 0.575439 0.120361 0.561035 0.061035 0.612305 0.096191 0.925049 0.053955 0.932129 0.037842 0.883789 0.036377 0.993896 0.053955 0.932129 0.080566 0.999512 0.080566 0.999512 0.053955 0.932129 0.096191 0.925049 0.080566 0.999512 0.096191 0.925049 0.126465 1 0.096191 0.925049 0.037842 0.883789 0.082031 0.870361 0.082031 0.870361 0.037842 0.883789 0.035156 0.842041 0.096191 0.925049 0.082031 0.870361 0.105225 0.855957 0.096191 0.925049 0.105225 0.855957 0.140625 0.923096 0.096191 0.925049 0.140625 0.923096 0.126465 1 0.126465 1 0.140625 0.923096 0.200928 0.947266 0.984375 0.290771 0.937988 0.258789 0.967529 0.236328 0.937988 0.258789 0.984375 0.290771 0.945557 0.310547 0.331787 0.82251 0.311279 0.780029 0.354492 0.801758 0.331787 0.82251 0.354492 0.801758 0.356201 0.868652 0.311279 0.780029 0.331787 0.82251 0.292725 0.821777 0.331787 0.82251 0.356201 0.868652 0.321045 0.851807 0.331787 0.82251 0.321045 0.851807 0.292725 0.821777 0.321045 0.851807 0.356201 0.868652 0.294678 0.890381 0.321045 0.851807 0.294678 0.890381 0.292725 0.821777 0.294678 0.890381 0.356201 0.868652 0.338379 0.909424 0.294678 0.890381 0.338379 0.909424 0.316162 0.934082 0.294678 0.890381 0.316162 0.934082 0.299072 0.929688 0.292725 0.821777 0.294678 0.890381 0.248291 0.871826 0.292725 0.821777 0.248291 0.871826 0.258789 0.823242 0.258789 0.823242 0.248291 0.871826 0.235107 0.863525 0.235107 0.863525 0.248291 0.871826 0.20166 0.901367 0.235107 0.863525 0.20166 0.901367 0.174072 0.87207 0.248291 0.871826 0.294678 0.890381 0.2771 0.909668 0.248291 0.871826 0.2771 0.909668 0.20166 0.901367 0.2771 0.909668 0.294678 0.890381 0.299072 0.929688 0.20166 0.901367 0.2771 0.909668 0.209961 0.948975 0.209961 0.948975 0.2771 0.909668 0.271729 0.95459 0.271729 0.95459 0.2771 0.909668 0.299072 0.929688 0.271729 0.95459 0.299072 0.929688 0.290039 0.967529 0.158203 0.869141 0.185059 0.821533 0.2146 0.855957 0.185059 0.821533 0.158203 0.869141 0.126953 0.845215 0.2146 0.855957 0.185059 0.821533 0.248047 0.814453 0.185059 0.821533 0.126953 0.845215 0.166504 0.777832 0.185059 0.821533 0.166504 0.777832 0.248047 0.814453 0.166504 0.777832 0.126953 0.845215 0.070312 0.855713 0.166504 0.777832 0.070312 0.855713 0.087891 0.794678 0.248047 0.814453 0.166504 0.777832 0.242188 0.730469 0.248047 0.814453 0.242188 0.730469 0.302979 0.782715 0.302979 0.782715 0.242188 0.730469 0.296387 0.715088 0.242188 0.730469 0.166504 0.777832 0.21167 0.706543 0.166504 0.777832 0.087891 0.794678 0.122803 0.744385 0.166504 0.777832 0.122803 0.744385 0.21167 0.706543 0.122803 0.744385 0.087891 0.794678 0.067139 0.732178 0.21167 0.706543 0.122803 0.744385 0.157959 0.673096 0.157959 0.673096 0.122803 0.744385 0.067139 0.732178 0.673828 0.515137 0.56543 0.490967 0.582275 0.45752 0.673828 0.515137 0.582275 0.45752 0.661377 0.460938 0.661377 0.460938 0.582275 0.45752 0.668213 0.416748 0.661377 0.460938 0.668213 0.416748 0.719727 0.465088 0.661377 0.460938 0.719727 0.465088 0.673828 0.515137 0.673828 0.515137 0.719727 0.465088 0.707764 0.538574 0.707764 0.538574 0.719727 0.465088 0.744385 0.506348 0.707764 0.538574 0.744385 0.506348 0.737549 0.549805 0.744385 0.506348 0.719727 0.465088 0.752441 0.460938 0.737549 0.549805 0.744385 0.506348 0.794678 0.534912 0.744385 0.506348 0.752441 0.460938 0.809082 0.473633 0.794678 0.534912 0.744385 0.506348 0.794434 0.508301 0.794434 0.508301 0.744385 0.506348 0.809082 0.473633 0.58667 0.591553 0.609619 0.583984 0.619141 0.618652 0.603271 0.65918 0.619141 0.618652 0.632812 0.665283 0.619141 0.618652 0.603271 0.65918 0.585205 0.630859 0.619141 0.618652 0.585205 0.630859 0.58667 0.591553 0.585205 0.630859 0.603271 0.65918 0.554199 0.647461 0.585205 0.630859 0.554199 0.647461 0.54126 0.602295 0.585205 0.630859 0.54126 0.602295 0.58667 0.591553 0.54126 0.602295 0.554199 0.647461 0.522949 0.643311 0.606445 0.508301 0.634277 0.54541 0.58667 0.591553 0.606445 0.508301 0.58667 0.591553 0.55542 0.556152 0.55542 0.556152 0.58667 0.591553 0.54126 0.602295 0.606445 0.508301 0.55542 0.556152 0.575195 0.5 0.575195 0.5 0.55542 0.556152 0.517822 0.544678 0.517822 0.544678 0.55542 0.556152 0.505371 0.573486 0.505371 0.573486 0.55542 0.556152 0.54126 0.602295 0.517822 0.544678 0.505371 0.573486 0.487793 0.534668 0.487793 0.534668 0.505371 0.573486 0.478271 0.545166 0.478271 0.545166 0.505371 0.573486 0.466309 0.574951 0.505371 0.573486 0.54126 0.602295 0.508301 0.605713 0.505371 0.573486 0.508301 0.605713 0.466309 0.574951 0.508301 0.605713 0.54126 0.602295 0.522949 0.643311 0.508301 0.605713 0.522949 0.643311 0.501465 0.637939 0.501465 0.637939 0.522949 0.643311 0.502686 0.666992 0.466309 0.574951 0.508301 0.605713 0.474365 0.628174 0.474365 0.628174 0.508301 0.605713 0.501465 0.637939 0.474365 0.628174 0.501465 0.637939 0.466064 0.645264 0.466309 0.574951 0.474365 0.628174 0.444824 0.595215 0.444824 0.595215 0.474365 0.628174 0.433838 0.621826 0.433838 0.621826 0.474365 0.628174 0.437744 0.64624 0.444824 0.595215 0.433838 0.621826 0.399902 0.614502 0.399902 0.614502 0.433838 0.621826 0.437744 0.64624 0.399902 0.614502 0.437744 0.64624 0.400635 0.657227 0.399902 0.614502 0.400635 0.657227 0.368896 0.622559 0.414062 0.926025 0.42627 0.88623 0.476318 0.913086 0.42627 0.88623 0.414062 0.926025 0.364258 0.938232 0.476318 0.913086 0.42627 0.88623 0.4646 0.828857 0.4646 0.828857 0.42627 0.88623 0.387207 0.798584 0.476318 0.913086 0.4646 0.828857 0.522217 0.837402 0.476318 0.913086 0.522217 0.837402 0.548096 0.933105 0.522217 0.837402 0.4646 0.828857 0.510986 0.781738 0.522217 0.837402 0.510986 0.781738 0.576172 0.775146 0.133301 0.650879 0.125732 0.682617 0.088379 0.697754 0.125732 0.682617 0.133301 0.650879 0.174805 0.65332 0.093262 0.63623 0.11084 0.624268 0.133301 0.650879 0.133301 0.650879 0.11084 0.624268 0.141357 0.620605 0.133301 0.650879 0.141357 0.620605 0.174805 0.65332 0.141357 0.620605 0.11084 0.624268 0.11792 0.572754 0.11792 0.572754 0.11084 0.624268 0.090332 0.609131 0.141357 0.620605 0.11792 0.572754 0.166016 0.605225 0.141357 0.620605 0.166016 0.605225 0.174805 0.65332 0.174805 0.65332 0.166016 0.605225 0.193848 0.614014 0.174805 0.65332 0.193848 0.614014 0.231201 0.652832 0.174805 0.65332 0.231201 0.652832 0.203613 0.693848 0.203613 0.693848 0.231201 0.652832 0.270508 0.684082 0.231201 0.652832 0.193848 0.614014 0.269775 0.643799 0.231201 0.652832 0.269775 0.643799 0.270508 0.684082 0.269775 0.643799 0.193848 0.614014 0.274658 0.587402 0.270508 0.684082 0.269775 0.643799 0.336182 0.665039 0.900879 0.435303 0.955811 0.427979 0.91333 0.454834 0.955811 0.427979 0.900879 0.435303 0.937012 0.375732 0.955811 0.427979 0.937012 0.375732 0.97583 0.363281 0.97583 0.363281 0.937012 0.375732 0.951172 0.338867 0.951172 0.338867 0.937012 0.375732 0.932861 0.335938 0.91333 0.454834 0.955811 0.427979 0.944092 0.463379 0.91333 0.454834 0.944092 0.463379 0.904541 0.494873 0.904541 0.494873 0.944092 0.463379 0.975586 0.521973 0.975586 0.521973 0.944092 0.463379 0.979004 0.467773 0.979004 0.467773 0.944092 0.463379 0.955811 0.427979 0.979004 0.467773 0.955811 0.427979 0.980225 0.439697 0.775879 0.605713 0.73877 0.592529 0.804688 0.557617 0.73877 0.592529 0.775879 0.605713 0.738037 0.630859 0.73877 0.592529 0.738037 0.630859 0.692139 0.61792 0.738037 0.630859 0.775879 0.605713 0.795166 0.654053 0.692139 0.61792 0.738037 0.630859 0.683105 0.645264 0.738037 0.630859 0.795166 0.654053 0.696533 0.674561 0.738037 0.630859 0.696533 0.674561 0.683105 0.645264 0.696533 0.674561 0.795166 0.654053 0.788086 0.689209 0.696533 0.674561 0.788086 0.689209 0.761719 0.741455 0.753662 0.791504 0.761719 0.741455 0.809082 0.794434 0.761719 0.741455 0.753662 0.791504 0.690674 0.771729 0.696533 0.674561 0.761719 0.741455 0.692627 0.733643 0.692627 0.733643 0.761719 0.741455 0.690674 0.771729 0.683105 0.645264 0.696533 0.674561 0.667969 0.69873 0.667969 0.69873 0.696533 0.674561 0.692627 0.733643 0.683105 0.645264 0.667969 0.69873 0.637207 0.670654 0.692627 0.733643 0.690674 0.771729 0.627197 0.709717 0.692627 0.733643 0.627197 0.709717 0.667969 0.69873 0.667969 0.69873 0.627197 0.709717 0.637207 0.670654 0.627197 0.709717 0.690674 0.771729 0.629639 0.765381 0.637207 0.670654 0.627197 0.709717 0.57666 0.679199 0.57666 0.679199 0.627197 0.709717 0.590576 0.724365 0.741211 0.259521 0.789307 0.225342 0.787842 0.26123 0.789307 0.225342 0.741211 0.259521 0.732422 0.215576 0.789307 0.225342 0.732422 0.215576 0.747559 0.178223 0.747559 0.178223 0.732422 0.215576 0.720703 0.194092 0.747559 0.178223 0.720703 0.194092 0.70874 0.151367 0.789307 0.225342 0.747559 0.178223 0.803467 0.200928 0.789307 0.225342 0.803467 0.200928 0.842285 0.237305 0.842285 0.237305 0.803467 0.200928 0.825439 0.189209 0.803467 0.200928 0.747559 0.178223 0.779785 0.170166 0.803467 0.200928 0.779785 0.170166 0.825439 0.189209 0.779785 0.170166 0.747559 0.178223 0.70874 0.151367 0.825439 0.189209 0.779785 0.170166 0.81958 0.15332 0.779785 0.170166 0.70874 0.151367 0.780518 0.130615 0.779785 0.170166 0.780518 0.130615 0.81958 0.15332 0.780518 0.130615 0.70874 0.151367 0.75 0.085449 0.75 0.085449 0.70874 0.151367 0.722168 0.098389 0.81958 0.15332 0.780518 0.130615 0.806885 0.118896 0.806885 0.118896 0.780518 0.130615 0.75 0.085449 0.825439 0.189209 0.81958 0.15332 0.84668 0.161621 0.825439 0.189209 0.84668 0.161621 0.871582 0.188477 0.871582 0.188477 0.84668 0.161621 0.869385 0.120117 0.869385 0.120117 0.84668 0.161621 0.845215 0.115479 0.845215 0.115479 0.84668 0.161621 0.81958 0.15332 0.845215 0.115479 0.81958 0.15332 0.806885 0.118896 0.845215 0.115479 0.806885 0.118896 0.812988 0.083252 0.812988 0.083252 0.806885 0.118896 0.773926 0.064941 0.773926 0.064941 0.806885 0.118896 0.75 0.085449 0.773926 0.064941 0.75 0.085449 0.722168 0.098389 0.773926 0.064941 0.722168 0.098389 0.733643 0.054199 0.733643 0.054199 0.722168 0.098389 0.699219 0.054199 0.773926 0.064941 0.733643 0.054199 0.762207 0.031006 0.773926 0.064941 0.762207 0.031006 0.818359 0.038818 0.932617 0.204102 0.972168 0.223877 0.930908 0.25415 0.932617 0.204102 0.930908 0.25415 0.894043 0.188965 0.894043 0.188965 0.930908 0.25415 0.870117 0.261475 0.894043 0.188965 0.870117 0.261475 0.839355 0.20166 0.870117 0.261475 0.930908 0.25415 0.892578 0.291016 0.892578 0.291016 0.930908 0.25415 0.94043 0.327148 0.892578 0.291016 0.94043 0.327148 0.891113 0.331787 0.842529 0.295654 0.85083 0.250244 0.876709 0.297607 0.85083 0.250244 0.842529 0.295654 0.816895 0.275879 0.85083 0.250244 0.816895 0.275879 0.797852 0.251953 0.797852 0.251953 0.816895 0.275879 0.774658 0.322998 0.816895 0.275879 0.842529 0.295654 0.813232 0.313965 0.816895 0.275879 0.813232 0.313965 0.774658 0.322998 0.842529 0.295654 0.876709 0.297607 0.830811 0.348145 0.842529 0.295654 0.830811 0.348145 0.813232 0.313965 0.830811 0.348145 0.876709 0.297607 0.856934 0.358398 0.830811 0.348145 0.856934 0.358398 0.844238 0.387939 0.813232 0.313965 0.830811 0.348145 0.798828 0.364502 0.798828 0.364502 0.830811 0.348145 0.844238 0.387939 0.813232 0.313965 0.798828 0.364502 0.774658 0.322998 0.774658 0.322998 0.798828 0.364502 0.752686 0.348877 0.798828 0.364502 0.844238 0.387939 0.827881 0.425537 0.752686 0.348877 0.798828 0.364502 0.770264 0.400146 0.770264 0.400146 0.798828 0.364502 0.827881 0.425537 0.770264 0.400146 0.827881 0.425537 0.797363 0.447021 0.797363 0.447021 0.827881 0.425537 0.824951 0.469727 0.797363 0.447021 0.824951 0.469727 0.770752 0.458984 0.797363 0.447021 0.770752 0.458984 0.770264 0.400146 0.770264 0.400146 0.770752 0.458984 0.746094 0.438232 0.770264 0.400146 0.746094 0.438232 0.728027 0.408936 0.146729 0.100098 0.144287 0.123047 0.105225 0.091309 0.146729 0.100098 0.105225 0.091309 0.128174 0.056885 0.146729 0.100098 0.128174 0.056885 0.163818 0.074463 0.128174 0.056885 0.105225 0.091309 0.089844 0.062012 0.163818 0.074463 0.128174 0.056885 0.167236 0.025391 0.167236 0.025391 0.128174 0.056885 0.124512 0.009766 0.124512 0.009766 0.128174 0.056885 0.089844 0.062012 0.167236 0.025391 0.124512 0.009766 0.172607 0 0.124512 0.009766 0.089844 0.062012 0.078369 0.011475 0.078369 0.011475 0.089844 0.062012 0.041016 0.057373 0.078369 0.011475 0.041016 0.057373 0.031738 0.00293 0.134766 0.30542 0.116211 0.287354 0.14502 0.275635 0.116211 0.287354 0.134766 0.30542 0.087402 0.296387 0.134766 0.30542 0.14502 0.275635 0.182617 0.323486 0.868408 0.677002 0.834961 0.697998 0.844238 0.652588 0.844238 0.652588 0.834961 0.697998 0.79834 0.679688 0.868408 0.677002 0.844238 0.652588 0.909668 0.668213 0.868408 0.677002 0.909668 0.668213 0.921875 0.706787 0.921875 0.706787 0.909668 0.668213 0.984619 0.687256 0.984619 0.687256 0.909668 0.668213 0.968018 0.664551 0.968018 0.664551 0.909668 0.668213 0.937988 0.619873 0.968018 0.664551 0.937988 0.619873 0.981201 0.59082 0.909668 0.668213 0.844238 0.652588 0.894043 0.625977 0.909668 0.668213 0.894043 0.625977 0.937988 0.619873 0.981201 0.59082 0.937988 0.619873 0.935059 0.575928 0.935059 0.575928 0.937988 0.619873 0.894043 0.625977 0.981201 0.59082 0.935059 0.575928 0.974609 0.528564 0.974609 0.528564 0.935059 0.575928 0.912598 0.505371 0.912598 0.505371 0.935059 0.575928 0.874268 0.512695 0.935059 0.575928 0.894043 0.625977 0.863281 0.579346 0.935059 0.575928 0.863281 0.579346 0.874268 0.512695 0.863281 0.579346 0.894043 0.625977 0.844238 0.652588 0.874268 0.512695 0.863281 0.579346 0.817871 0.564453 0.817871 0.564453 0.863281 0.579346 0.844238 0.652588 0.874268 0.512695 0.817871 0.564453 0.799805 0.511963 0.817871 0.564453 0.844238 0.652588 0.786621 0.60498 0.671143 0.171875 0.600098 0.175049 0.695068 0.129639 0.671143 0.171875 0.695068 0.129639 0.716553 0.207031 0.540283 0.173584 0.600098 0.175049 0.55542 0.217773 0.55542 0.217773 0.600098 0.175049 0.600586 0.242432 0.600098 0.175049 0.671143 0.171875 0.659912 0.217529 0.600098 0.175049 0.659912 0.217529 0.600586 0.242432 0.659912 0.217529 0.671143 0.171875 0.716553 0.207031 0.600586 0.242432 0.659912 0.217529 0.638428 0.294434 0.659912 0.217529 0.716553 0.207031 0.67749 0.283936 0.659912 0.217529 0.67749 0.283936 0.638428 0.294434 0.67749 0.283936 0.716553 0.207031 0.735596 0.259766 0.67749 0.283936 0.735596 0.259766 0.720947 0.275879 0.67749 0.283936 0.720947 0.275879 0.70752 0.303467 0.70752 0.303467 0.720947 0.275879 0.72168 0.327637 0.70752 0.303467 0.72168 0.327637 0.67749 0.283936 0.638428 0.294434 0.67749 0.283936 0.672363 0.327881 0.672363 0.327881 0.67749 0.283936 0.72168 0.327637 0.638428 0.294434 0.672363 0.327881 0.635498 0.316895 0.672363 0.327881 0.72168 0.327637 0.697754 0.385986 0.635498 0.316895 0.672363 0.327881 0.638672 0.375244 0.638672 0.375244 0.672363 0.327881 0.697754 0.385986 0.340576 0.063477 0.320801 0.088867 0.301514 0.0354 0.320801 0.088867 0.340576 0.063477 0.366943 0.087402 0.320801 0.088867 0.366943 0.087402 0.344971 0.148193 0.366943 0.087402 0.340576 0.063477 0.380371 0.064941 0.380371 0.064941 0.340576 0.063477 0.380371 0.041504 0.344971 0.148193 0.366943 0.087402 0.39917 0.113281 0.39917 0.113281 0.366943 0.087402 0.380371 0.064941 0.344971 0.148193 0.39917 0.113281 0.404785 0.170654 0.380371 0.064941 0.380371 0.041504 0.416992 0.068359 0.380371 0.064941 0.416992 0.068359 0.39917 0.113281 0.404785 0.170654 0.39917 0.113281 0.424316 0.149902 0.424316 0.149902 0.39917 0.113281 0.416992 0.068359 0.424316 0.149902 0.416992 0.068359 0.479736 0.114258 0.424316 0.149902 0.479736 0.114258 0.47998 0.151367 0.47998 0.151367 0.479736 0.114258 0.55835 0.125732 0.479736 0.114258 0.416992 0.068359 0.4646 0.072754 0.4646 0.072754 0.416992 0.068359 0.431885 0.026855 0.4646 0.072754 0.431885 0.026855 0.515625 0.068359 0.4646 0.072754 0.515625 0.068359 0.479736 0.114258 0.479736 0.114258 0.515625 0.068359 0.556152 0.096191 0.479736 0.114258 0.556152 0.096191 0.55835 0.125732 0.556152 0.096191 0.515625 0.068359 0.57373 0.032227 0.55835 0.125732 0.556152 0.096191 0.589111 0.125977 0.55835 0.125732 0.589111 0.125977 0.622803 0.157715 0.589111 0.125977 0.556152 0.096191 0.634766 0.121826 0.589111 0.125977 0.634766 0.121826 0.622559 0.142578 1 0.986572 0.968018 0.994629 0.97998 0.956055 0.97998 0.956055 0.968018 0.994629 0.913574 1 0.97998 0.956055 0.913574 1 0.897949 0.983887 0.97998 0.956055 0.897949 0.983887 0.93335 0.886719 0.97998 0.956055 0.93335 0.886719 0.999756 0.875488 0.93335 0.886719 0.897949 0.983887 0.857422 0.960693 0.93335 0.886719 0.857422 0.960693 0.856689 0.879395 0.027344 0.788818 0.072021 0.773193 0.07373 0.818115 0.027344 0.788818 0.07373 0.818115 0.01416 0.820801 0.027344 0.788818 0.01416 0.820801 0.004395 0.800293 0.027344 0.788818 0.004395 0.800293 0.020996 0.747559 0.027344 0.788818 0.020996 0.747559 0.072021 0.773193 0.072021 0.773193 0.020996 0.747559 0.065918 0.749268 0.632812 0.891602 0.577148 0.890869 0.561768 0.802002 0.577148 0.890869 0.632812 0.891602 0.577881 0.964844 0.577148 0.890869 0.577881 0.964844 0.562012 0.941162 0.577881 0.964844 0.632812 0.891602 0.644287 0.962646 0.644287 0.962646 0.632812 0.891602 0.722168 0.894043 0.644287 0.962646 0.722168 0.894043 0.740723 0.956055 0.969482 0.869141 0.919434 0.875244 0.937012 0.851074 0.969482 0.869141 0.937012 0.851074 0.983398 0.82959 0.937012 0.851074 0.919434 0.875244 0.884521 0.839355 0.983398 0.82959 0.937012 0.851074 0.954346 0.797119 0.954346 0.797119 0.937012 0.851074 0.884521 0.839355 0.954346 0.797119 0.884521 0.839355 0.91748 0.783447 0.91748 0.783447 0.884521 0.839355 0.868896 0.79834 0.954346 0.797119 0.91748 0.783447 0.96582 0.76001 0.954346 0.797119 0.96582 0.76001 0.984619 0.767334 0.96582 0.76001 0.91748 0.783447 0.935303 0.708252 0.96582 0.76001 0.935303 0.708252 0.982422 0.718994 0.082031 0.635498 0.077637 0.718018 0 0.682617 0.082031 0.635498 0 0.682617 0.002686 0.57959 0.874512 0.115967 0.804199 0.067139 0.845703 0.068604 0.845703 0.068604 0.804199 0.067139 0.869141 0.042969 0.845703 0.068604 0.869141 0.042969 0.874512 0.115967 0.874512 0.115967 0.869141 0.042969 0.935059 0.086914 0.874512 0.115967 0.935059 0.086914 0.935059 0.1604 0.874512 0.115967 0.935059 0.1604 0.878418 0.172852 0.094727 0.324463 0.102051 0.304932 0.165283 0.324463 0.571045 0.746582 0.667725 0.788574 0.621338 0.858887 0.621338 0.858887 0.667725 0.788574 0.735107 0.868164 0.735107 0.868164 0.667725 0.788574 0.778809 0.8125 0.312988 0.442139 0.312744 0.400879 0.342041 0.425781 0.342041 0.425781 0.312744 0.400879 0.349609 0.37207 0.342041 0.425781 0.349609 0.37207 0.418213 0.396484 0.418213 0.396484 0.349609 0.37207 0.39917 0.357178 0.418213 0.396484 0.39917 0.357178 0.478027 0.357666 0.418213 0.396484 0.478027 0.357666 0.472168 0.38501 0.478027 0.357666 0.39917 0.357178 0.402588 0.303711 0.472168 0.38501 0.478027 0.357666 0.522217 0.448486 0.472168 0.38501 0.522217 0.448486 0.467773 0.460693 0.478027 0.357666 0.402588 0.303711 0.437012 0.257812 0.522217 0.448486 0.478027 0.357666 0.490967 0.207275 0.490967 0.207275 0.478027 0.357666 0.437012 0.257812 0.522217 0.448486 0.490967 0.207275 0.558594 0.385986 0.522217 0.448486 0.558594 0.385986 0.602783 0.440674 0.490967 0.207275 0.437012 0.257812 0.460449 0.195068 0.490967 0.207275 0.460449 0.195068 0.49292 0.153809 0.490967 0.207275 0.49292 0.153809 0.558594 0.385986 0.460449 0.195068 0.437012 0.257812 0.377441 0.212402 0.602783 0.440674 0.558594 0.385986 0.593262 0.404053 0.558594 0.385986 0.49292 0.153809 0.571289 0.346191 0.558594 0.385986 0.571289 0.346191 0.593262 0.404053 0.377441 0.212402 0.437012 0.257812 0.387451 0.251709 0.387451 0.251709 0.437012 0.257812 0.402588 0.303711 0.377441 0.212402 0.387451 0.251709 0.364258 0.213867 0.387451 0.251709 0.402588 0.303711 0.365479 0.271973 0.387451 0.251709 0.365479 0.271973 0.364258 0.213867 0.593262 0.404053 0.571289 0.346191 0.603271 0.37793 0.593262 0.404053 0.603271 0.37793 0.616211 0.354004 0.616211 0.354004 0.603271 0.37793 0.571289 0.346191 0.593262 0.404053 0.616211 0.354004 0.63501 0.406494 0.63501 0.406494 0.616211 0.354004 0.630127 0.314453 0.630127 0.314453 0.616211 0.354004 0.591309 0.312012 0.591309 0.312012 0.616211 0.354004 0.571289 0.346191 0.591309 0.312012 0.571289 0.346191 0.563721 0.308594 0.999756 0.005615 0.93042 0.05127 0.947754 0.002686 0.947754 0.002686 0.93042 0.05127 0.873291 0.027832 0.93042 0.05127 0.999756 0.005615 0.986328 0.091309 0.93042 0.05127 0.986328 0.091309 0.954834 0.130615 0.032715 0.243408 0.077881 0.229736 0.052979 0.257812 0.077881 0.229736 0.032715 0.243408 0.052979 0.194336 0.052979 0.257812 0.077881 0.229736 0.123535 0.224854 0.123535 0.224854 0.077881 0.229736 0.052979 0.194336 0.052979 0.257812 0.123535 0.224854 0.126221 0.270264 0.123535 0.224854 0.052979 0.194336 0.120361 0.175537 0.123535 0.224854 0.120361 0.175537 0.18457 0.211182 0.123535 0.224854 0.18457 0.211182 0.179688 0.254395 0.120361 0.175537 0.052979 0.194336 0.091309 0.111572 0.091309 0.111572 0.052979 0.194336 0.01709 0.119385 0.091309 0.111572 0.01709 0.119385 0.014648 0.043213 0.120361 0.175537 0.091309 0.111572 0.152588 0.151123 0.120361 0.175537 0.152588 0.151123 0.18457 0.211182 0.18457 0.211182 0.152588 0.151123 0.197021 0.168701 0.228027 0.125244 0.15332 0.105957 0.176758 0.069824 0.15332 0.105957 0.228027 0.125244 0.206787 0.165771 0.228027 0.125244 0.176758 0.069824 0.221436 0.060059 0.221436 0.060059 0.176758 0.069824 0.190918 0.029053 0.221436 0.060059 0.190918 0.029053 0.239014 0.044189 0.221436 0.060059 0.239014 0.044189 0.244629 0.083008 0.221436 0.060059 0.244629 0.083008 0.228027 0.125244 0.228027 0.125244 0.244629 0.083008 0.295166 0.118652 0.228027 0.125244 0.295166 0.118652 0.292969 0.173584 0.228027 0.125244 0.292969 0.173584 0.206787 0.165771 0.292969 0.173584 0.295166 0.118652 0.36377 0.170898 0.292969 0.173584 0.36377 0.170898 0.352783 0.273682 0.292969 0.173584 0.352783 0.273682 0.250732 0.274902 0.292969 0.173584 0.250732 0.274902 0.206787 0.165771 0.206787 0.165771 0.250732 0.274902 0.175293 0.300781 0.175293 0.300781 0.250732 0.274902 0.221924 0.36792</float_array>
          <technique_common>
            <accessor source="#Sulfur-mesh-map-0-array" count="1500" stride="2">
              <param name="S" type="float"/>
              <param name="T" type="float"/>
            </accessor>
          </technique_common>
        </source>
        <vertices id="Sulfur-mesh-vertices">
          <input semantic="POSITION" source="#Sulfur-mesh-positions"/>
        </vertices>
        <polylist material="Material_-1-material" count="6">
          <input semantic="VERTEX" source="#Sulfur-mesh-vertices" offset="0"/>
          <input semantic="NORMAL" source="#Sulfur-mesh-normals" offset="1"/>
          <input semantic="TEXCOORD" source="#Sulfur-mesh-map-0" offset="2" set="0"/>
          <vcount>3 3 3 3 3 3 3 3 3 3 3 3 3 3 3 3 3 3 3 3 3 3 3 3 3 3 3 3 3 3 3 3 3 3 3 3 3 3 3 3 3 3 3 3 3 3 3 3 3 3 3 3 3 3 3 3 3 3 3 3 3 3 3 3 3 3 3 3 3 3 3 3 3 3 3 3 3 3 3 3 3 3 3 3 3 3 3 3 3 3 3 3 3 3 3 3 3 3 3 3 3 3 3 3 3 3 3 3 3 3 3 3 3 3 3 3 3 3 3 3 3 3 3 3 3 3 3 3 3 3 3 3 3 3 3 3 3 3 3 3 3 3 3 3 3 3 3 3 3 3 3 3 3 3 3 3 3 3 3 3 3 3 3 3 3 3 3 3 3 3 3 3 3 3 3 3 3 3 3 3 3 3 3 3 3 3 3 3 3 3 3 3 3 3 3 3 3 3 3 3 3 3 3 3 3 3 3 3 3 3 3 3 3 3 3 3 3 3 3 3 3 3 3 3 3 3 3 3 3 3 3 3 3 3 3 3 3 3 3 3 3 3 3 3 3 3 3 3 3 3 3 3 3 3 3 3 3 3 3 3 3 3 3 3 3 3 3 3 3 3 3 3 3 3 3 3 3 3 3 3 3 3 3 3 3 3 3 3 3 3 3 3 3 3 3 3 3 3 3 3 3 3 3 3 3 3 3 3 3 3 3 3 3 3 3 3 3 3 3 3 3 3 3 3 3 3 3 3 3 3 3 3 3 3 3 3 3 3 3 3 3 3 3 3 3 3 3 3 3 3 3 3 3 3 3 3 3 3 3 3 3 3 3 3 3 3 3 3 3 3 3 3 3 3 3 3 3 3 3 3 3 3 3 3 3 3 3 3 3 3 3 3 3 3 3 3 3 3 3 3 3 3 3 3 3 3 3 3 3 3 3 3 3 3 3 3 3 3 3 3 3 3 3 3 3 3 3 3 3 3 3 3 3 3 3 3 3 3 3 3 3 3 3 3 3 3 3 3 3 3 3 3 3 3 3 3 3 3 3 3 3 3 3 3 3 3 3 3 3 3 3 3 3 3 3 3 3 3 3 3 3 3 3 3 3 3 3 3 3 3 3 3 3 3 3 3 3 3 3 3</vcount>
          <p>0 0 0 1 0 1 2 0 2 1 1 3 0 1 4 3 1 5 2 2 6 1 2 7 4 2 8 4 3 9 1 3 10 5 3 11 2 4 12 4 4 13 6 4 14 2 5 15 6 5 16 7 5 17 2 6 18 7 6 19 0 6 20 7 7 21 6 7 22 8 7 23 7 8 24 8 8 25 9 8 26 10 9 27 3 9 28 0 9 29 10 10 30 0 10 31 7 10 32 7 11 33 9 11 34 11 11 35 7 12 36 11 12 37 10 12 38 10 13 39 11 13 40 12 13 41 10 14 42 12 14 43 13 14 44 13 15 45 12 15 46 14 15 47 10 16 48 13 16 49 3 16 50 14 17 51 15 17 52 13 17 53 13 18 54 15 18 55 16 18 56 13 19 57 16 19 58 17 19 59 13 20 60 17 20 61 3 20 62 3 21 63 17 21 64 18 21 65 3 22 66 18 22 67 1 22 68 19 23 69 17 23 70 20 23 71 17 24 72 19 24 73 18 24 74 1 25 75 18 25 76 5 25 77 18 26 78 19 26 79 21 26 80 21 27 81 19 27 82 22 27 83 21 28 84 22 28 85 23 28 86 18 29 87 21 29 88 24 29 89 18 30 90 24 30 91 5 30 92 5 31 93 24 31 94 25 31 95 5 32 96 25 32 97 26 32 98 27 33 99 28 33 100 23 33 101 23 34 102 28 34 103 29 34 104 21 35 105 23 35 106 30 35 107 30 36 108 23 36 109 29 36 110 21 37 111 30 37 112 24 37 113 30 38 114 29 38 115 31 38 116 32 39 117 25 39 118 24 39 119 32 40 120 24 40 121 30 40 122 32 41 123 30 41 124 31 41 125 25 42 126 32 42 127 26 42 128 32 43 129 31 43 130 33 43 131 32 44 132 33 44 133 26 44 134 26 45 135 33 45 136 34 45 137 34 46 138 33 46 139 35 46 140 9 47 141 8 47 142 36 47 143 36 48 144 8 48 145 37 48 146 37 49 147 8 49 148 6 49 149 37 50 150 6 50 151 4 50 152 37 51 153 4 51 154 38 51 155 37 52 156 38 52 157 39 52 158 38 53 159 4 53 160 5 53 161 39 54 162 38 54 163 40 54 164 38 55 165 5 55 166 26 55 167 38 56 168 26 56 169 40 56 170 40 57 171 26 57 172 34 57 173 41 58 174 42 58 175 36 58 176 36 59 177 42 59 178 9 59 179 41 60 180 36 60 181 43 60 182 9 61 183 42 61 184 44 61 185 44 62 186 42 62 187 41 62 188 9 63 189 44 63 190 45 63 191 9 64 192 45 64 193 11 64 194 11 65 195 45 65 196 46 65 197 46 66 198 45 66 199 44 66 200 11 67 201 46 67 202 12 67 203 47 68 204 48 68 205 43 68 206 43 69 207 48 69 208 41 69 209 41 70 210 48 70 211 49 70 212 50 71 213 44 71 214 41 71 215 41 72 216 49 72 217 51 72 218 41 73 219 51 73 220 50 73 221 51 74 222 49 74 223 52 74 224 51 75 225 52 75 226 53 75 227 50 76 228 51 76 229 54 76 230 54 77 231 51 77 232 53 77 233 50 78 234 54 78 235 44 78 236 54 79 237 53 79 238 55 79 239 54 80 240 55 80 241 44 80 242 44 81 243 55 81 244 46 81 245 46 82 246 55 82 247 56 82 248 56 83 249 55 83 250 57 83 251 57 84 252 55 84 253 58 84 254 46 85 255 56 85 256 59 85 257 59 86 258 56 86 259 57 86 260 59 87 261 57 87 262 60 87 263 46 88 264 59 88 265 12 88 266 12 89 267 59 89 268 14 89 269 14 90 270 59 90 271 15 90 272 61 91 273 37 91 274 39 91 275 36 92 276 37 92 277 43 92 278 43 93 279 37 93 280 61 93 281 43 94 282 61 94 283 47 94 284 61 95 285 39 95 286 62 95 287 62 96 288 39 96 289 40 96 290 61 97 291 62 97 292 63 97 293 61 98 294 63 98 295 64 98 296 61 99 297 64 99 298 47 99 299 47 100 300 64 100 301 65 100 302 66 101 303 40 101 304 34 101 305 40 102 306 66 102 307 62 102 308 67 103 309 15 103 310 59 103 311 67 104 312 59 104 313 60 104 314 15 105 315 67 105 316 68 105 317 67 106 318 60 106 319 69 106 320 67 107 321 69 107 322 68 107 323 69 108 324 60 108 325 70 108 326 69 109 327 70 109 328 68 109 329 70 110 330 60 110 331 57 110 332 70 111 333 57 111 334 71 111 335 70 112 336 71 112 337 72 112 338 68 113 339 70 113 340 73 113 341 68 114 342 73 114 343 74 114 344 74 115 345 73 115 346 75 115 347 75 116 348 73 116 349 76 116 350 75 117 351 76 117 352 77 117 353 73 118 354 70 118 355 78 118 356 73 119 357 78 119 358 76 119 359 78 120 360 70 120 361 72 120 362 76 121 363 78 121 364 79 121 365 79 122 366 78 122 367 80 122 368 80 123 369 78 123 370 72 123 371 80 124 372 72 124 373 81 124 374 68 125 375 82 125 376 15 125 377 82 126 378 68 126 379 74 126 380 15 127 381 82 127 382 16 127 383 82 128 384 74 128 385 83 128 386 82 129 387 83 129 388 16 129 389 83 130 390 74 130 391 75 130 392 83 131 393 75 131 394 84 131 395 16 132 396 83 132 397 85 132 398 16 133 399 85 133 400 17 133 401 17 134 402 85 134 403 20 134 404 85 135 405 83 135 406 86 135 407 83 136 408 84 136 409 87 136 410 83 137 411 87 137 412 86 137 413 87 138 414 84 138 415 88 138 416 86 139 417 87 139 418 89 139 419 89 140 420 87 140 421 88 140 422 47 141 423 65 141 424 90 141 425 47 142 426 90 142 427 91 142 428 91 143 429 90 143 430 92 143 431 91 144 432 92 144 433 93 144 434 91 145 435 93 145 436 47 145 437 47 146 438 93 146 439 48 146 440 48 147 441 93 147 442 94 147 443 48 148 444 94 148 445 49 148 446 94 149 447 93 149 448 95 149 449 49 150 450 94 150 451 96 150 452 94 151 453 95 151 454 97 151 455 96 152 456 94 152 457 98 152 458 98 153 459 94 153 460 97 153 461 63 154 462 62 154 463 66 154 464 35 155 465 66 155 466 34 155 467 66 156 468 35 156 469 99 156 470 66 157 471 99 157 472 63 157 473 99 158 474 35 158 475 100 158 476 99 159 477 100 159 478 101 159 479 99 160 480 101 160 481 63 160 482 101 161 483 100 161 484 102 161 485 65 162 486 64 162 487 63 162 488 65 163 489 63 163 490 103 163 491 103 164 492 63 164 493 101 164 494 65 165 495 103 165 496 90 165 497 90 166 498 103 166 499 92 166 500 92 167 501 103 167 502 104 167 503 104 168 504 103 168 505 101 168 506 92 169 507 104 169 508 93 169 509 93 170 510 104 170 511 105 170 512 105 171 513 104 171 514 106 171 515 104 172 516 101 172 517 107 172 518 104 173 519 107 173 520 106 173 521 107 174 522 101 174 523 102 174 524 107 175 525 102 175 526 108 175 527 108 176 528 102 176 529 109 176 530 106 177 531 107 177 532 110 177 533 110 178 534 107 178 535 108 178 536 110 179 537 108 179 538 111 179 539 106 180 540 110 180 541 112 180 542 112 181 543 110 181 544 113 181 545 113 182 546 110 182 547 114 182 548 112 183 549 113 183 550 115 183 551 115 184 552 113 184 553 114 184 554 115 185 555 114 185 556 116 185 557 115 186 558 116 186 559 117 186 560 52 187 561 118 187 562 53 187 563 118 188 564 52 188 565 119 188 566 53 189 567 118 189 568 120 189 569 120 190 570 118 190 571 121 190 572 53 191 573 120 191 574 58 191 575 53 192 576 58 192 577 55 192 578 58 193 579 120 193 580 71 193 581 58 194 582 71 194 583 57 194 584 96 195 585 52 195 586 49 195 587 52 196 588 96 196 589 119 196 590 98 197 591 122 197 592 96 197 593 96 198 594 122 198 595 123 198 596 96 199 597 123 199 598 119 199 599 123 200 600 122 200 601 124 200 602 124 201 603 122 201 604 125 201 605 123 202 606 124 202 607 126 202 608 123 203 609 126 203 610 119 203 611 119 204 612 126 204 613 127 204 614 119 205 615 127 205 616 128 205 617 119 206 618 128 206 619 118 206 620 118 207 621 128 207 622 121 207 623 128 208 624 127 208 625 129 208 626 128 209 627 129 209 628 121 209 629 129 210 630 127 210 631 130 210 632 121 211 633 129 211 634 131 211 635 105 212 636 125 212 637 93 212 638 125 213 639 105 213 640 106 213 641 125 214 642 106 214 643 124 214 644 124 215 645 106 215 646 132 215 647 132 216 648 106 216 649 112 216 650 93 217 651 125 217 652 133 217 653 93 218 654 133 218 655 95 218 656 95 219 657 133 219 658 97 219 659 97 220 660 133 220 661 98 220 662 98 221 663 133 221 664 125 221 665 98 222 666 125 222 667 122 222 668 20 223 669 22 223 670 19 223 671 22 224 672 20 224 673 134 224 674 22 225 675 134 225 676 135 225 677 134 226 678 20 226 679 85 226 680 135 227 681 134 227 682 136 227 683 134 228 684 85 228 685 137 228 686 134 229 687 137 229 688 136 229 689 137 230 690 85 230 691 86 230 692 137 231 693 86 231 694 89 231 695 138 232 696 89 232 697 88 232 698 89 233 699 138 233 700 139 233 701 137 234 702 89 234 703 140 234 704 140 235 705 89 235 706 139 235 707 136 236 708 137 236 709 141 236 710 141 237 711 137 237 712 140 237 713 136 238 714 141 238 715 142 238 716 140 239 717 139 239 718 143 239 719 140 240 720 143 240 721 141 240 722 141 241 723 143 241 724 142 241 725 143 242 726 139 242 727 144 242 728 142 243 729 143 243 730 145 243 731 145 244 732 143 244 733 146 244 734 22 245 735 27 245 736 23 245 737 27 246 738 22 246 739 135 246 740 27 247 741 135 247 742 147 247 743 147 248 744 135 248 745 136 248 746 147 249 747 136 249 748 142 249 749 27 250 750 147 250 751 148 250 752 27 251 753 148 251 754 28 251 755 28 252 756 148 252 757 149 252 758 148 253 759 147 253 760 150 253 761 148 254 762 150 254 763 149 254 764 150 255 765 147 255 766 142 255 767 149 256 768 150 256 769 151 256 770 150 257 771 142 257 772 152 257 773 150 258 774 152 258 775 151 258 776 152 259 777 142 259 778 153 259 779 153 260 780 142 260 781 145 260 782 151 261 783 152 261 784 154 261 785 154 262 786 152 262 787 153 262 788 149 263 789 151 263 790 155 263 791 149 264 792 155 264 793 156 264 794 156 265 795 155 265 796 157 265 797 157 266 798 155 266 799 158 266 800 158 267 801 155 267 802 151 267 803 158 268 804 151 268 805 154 268 806 158 269 807 154 269 808 159 269 809 159 270 810 154 270 811 160 270 812 160 271 813 154 271 814 153 271 815 160 272 816 153 272 817 145 272 818 160 273 819 145 273 820 161 273 821 161 274 822 145 274 823 146 274 824 160 275 825 161 275 826 162 275 827 160 276 828 162 276 829 163 276 830 28 277 831 149 277 832 156 277 833 28 278 834 156 278 835 29 278 836 29 279 837 156 279 838 164 279 839 29 280 840 164 280 841 31 280 842 164 281 843 156 281 844 165 281 845 165 282 846 156 282 847 157 282 848 165 283 849 157 283 850 166 283 851 167 284 852 33 284 853 31 284 854 33 285 855 167 285 856 168 285 857 33 286 858 168 286 859 35 286 860 35 287 861 168 287 862 100 287 863 168 288 864 167 288 865 169 288 866 168 289 867 169 289 868 100 289 869 167 290 870 31 290 871 170 290 872 167 291 873 170 291 874 169 291 875 170 292 876 31 292 877 164 292 878 170 293 879 164 293 880 165 293 881 169 294 882 170 294 883 171 294 884 171 295 885 170 295 886 165 295 887 169 296 888 171 296 889 100 296 890 100 297 891 171 297 892 102 297 893 171 298 894 165 298 895 166 298 896 102 299 897 171 299 898 109 299 899 109 300 900 171 300 901 166 300 902 109 301 903 166 301 904 172 301 905 172 302 906 166 302 907 173 302 908 172 303 909 173 303 910 174 303 911 172 304 912 174 304 913 109 304 914 109 305 915 174 305 916 111 305 917 109 306 918 111 306 919 108 306 920 132 307 921 112 307 922 115 307 923 132 308 924 115 308 925 175 308 926 132 309 927 175 309 928 124 309 929 175 310 930 115 310 931 117 310 932 124 311 933 175 311 934 126 311 935 126 312 936 175 312 937 176 312 938 176 313 939 175 313 940 117 313 941 126 314 942 176 314 943 127 314 944 176 315 945 117 315 946 177 315 947 177 316 948 117 316 949 178 316 950 177 317 951 178 317 952 179 317 953 114 318 954 111 318 955 174 318 956 111 319 957 114 319 958 110 319 959 114 320 960 174 320 961 180 320 962 181 321 963 116 321 964 180 321 965 180 322 966 116 322 967 114 322 968 181 323 969 180 323 970 182 323 971 181 324 972 182 324 973 183 324 974 183 325 975 182 325 976 184 325 977 184 326 978 182 326 979 185 326 980 185 327 981 182 327 982 186 327 983 185 328 984 186 328 985 187 328 986 182 329 987 180 329 988 188 329 989 182 330 990 188 330 991 186 330 992 187 331 993 186 331 994 189 331 995 189 332 996 186 332 997 188 332 998 187 333 999 189 333 1000 159 333 1001 159 334 1002 189 334 1003 158 334 1004 158 335 1005 189 335 1006 157 335 1007 189 336 1008 188 336 1009 190 336 1010 189 337 1011 190 337 1012 157 337 1013 190 338 1014 188 338 1015 180 338 1016 157 339 1017 190 339 1018 173 339 1019 173 340 1020 190 340 1021 180 340 1022 157 341 1023 173 341 1024 166 341 1025 173 342 1026 180 342 1027 174 342 1028 191 343 1029 77 343 1030 76 343 1031 191 344 1032 76 344 1033 79 344 1034 75 345 1035 77 345 1036 192 345 1037 192 346 1038 77 346 1039 193 346 1040 77 347 1041 191 347 1042 194 347 1043 77 348 1044 194 348 1045 193 348 1046 194 349 1047 191 349 1048 79 349 1049 193 350 1050 194 350 1051 195 350 1052 194 351 1053 79 351 1054 196 351 1055 194 352 1056 196 352 1057 195 352 1058 196 353 1059 79 353 1060 80 353 1061 196 354 1062 80 354 1063 197 354 1064 196 355 1065 197 355 1066 198 355 1067 198 356 1068 197 356 1069 199 356 1070 198 357 1071 199 357 1072 196 357 1073 195 358 1074 196 358 1075 200 358 1076 200 359 1077 196 359 1078 199 359 1079 195 360 1080 200 360 1081 201 360 1082 200 361 1083 199 361 1084 202 361 1085 201 362 1086 200 362 1087 203 362 1088 203 363 1089 200 363 1090 202 363 1091 192 364 1092 84 364 1093 75 364 1094 84 365 1095 192 365 1096 204 365 1097 84 366 1098 204 366 1099 88 366 1100 204 367 1101 192 367 1102 205 367 1103 205 368 1104 192 368 1105 193 368 1106 88 369 1107 204 369 1108 206 369 1109 206 370 1110 204 370 1111 205 370 1112 88 371 1113 206 371 1114 138 371 1115 205 372 1116 193 372 1117 207 372 1118 205 373 1119 207 373 1120 206 373 1121 138 374 1122 206 374 1123 208 374 1124 208 375 1125 206 375 1126 207 375 1127 208 376 1128 207 376 1129 209 376 1130 208 377 1131 209 377 1132 210 377 1133 210 378 1134 209 378 1135 211 378 1136 209 379 1137 207 379 1138 212 379 1139 212 380 1140 207 380 1141 213 380 1142 212 381 1143 213 381 1144 214 381 1145 212 382 1146 214 382 1147 209 382 1148 209 383 1149 214 383 1150 215 383 1151 209 384 1152 215 384 1153 211 384 1154 215 385 1155 214 385 1156 216 385 1157 211 386 1158 215 386 1159 217 386 1160 211 387 1161 217 387 1162 218 387 1163 217 388 1164 215 388 1165 219 388 1166 217 389 1167 219 389 1168 220 389 1169 207 390 1170 193 390 1171 213 390 1172 213 391 1173 193 391 1174 195 391 1175 213 392 1176 195 392 1177 201 392 1178 213 393 1179 201 393 1180 216 393 1181 213 394 1182 216 394 1183 214 394 1184 216 395 1185 201 395 1186 219 395 1187 216 396 1188 219 396 1189 215 396 1190 221 397 1191 71 397 1192 120 397 1193 221 398 1194 120 398 1195 222 398 1196 221 399 1197 222 399 1198 223 399 1199 221 400 1200 223 400 1201 81 400 1202 221 401 1203 81 401 1204 71 401 1205 71 402 1206 81 402 1207 72 402 1208 224 403 1209 81 403 1210 223 403 1211 81 404 1212 224 404 1213 197 404 1214 81 405 1215 197 405 1216 80 405 1217 197 406 1218 224 406 1219 199 406 1220 199 407 1221 224 407 1222 225 407 1223 199 408 1224 225 408 1225 202 408 1226 203 409 1227 202 409 1228 226 409 1229 203 410 1230 226 410 1231 227 410 1232 226 411 1233 202 411 1234 225 411 1235 227 412 1236 226 412 1237 228 412 1238 228 413 1239 226 413 1240 225 413 1241 228 414 1242 225 414 1243 229 414 1244 229 415 1245 225 415 1246 224 415 1247 228 416 1248 229 416 1249 230 416 1250 228 417 1251 230 417 1252 231 417 1253 230 418 1254 229 418 1255 127 418 1256 230 419 1257 127 419 1258 176 419 1259 222 420 1260 120 420 1261 121 420 1262 222 421 1263 121 421 1264 131 421 1265 130 422 1266 127 422 1267 232 422 1268 232 423 1269 127 423 1270 229 423 1271 232 424 1272 229 424 1273 130 424 1274 130 425 1275 229 425 1276 233 425 1277 130 426 1278 233 426 1279 131 426 1280 130 427 1281 131 427 1282 129 427 1283 223 428 1284 222 428 1285 131 428 1286 131 429 1287 233 429 1288 223 429 1289 223 430 1290 233 430 1291 224 430 1292 224 431 1293 233 431 1294 229 431 1295 230 432 1296 176 432 1297 231 432 1298 231 433 1299 176 433 1300 177 433 1301 231 434 1302 177 434 1303 234 434 1304 234 435 1305 177 435 1306 179 435 1307 234 436 1308 179 436 1309 235 436 1310 234 437 1311 235 437 1312 236 437 1313 235 438 1314 179 438 1315 178 438 1316 236 439 1317 235 439 1318 237 439 1319 236 440 1320 237 440 1321 238 440 1322 235 441 1323 178 441 1324 239 441 1325 237 442 1326 235 442 1327 240 442 1328 240 443 1329 235 443 1330 239 443 1331 237 444 1332 240 444 1333 241 444 1334 237 445 1335 241 445 1336 228 445 1337 240 446 1338 239 446 1339 183 446 1340 240 447 1341 183 447 1342 184 447 1343 240 448 1344 184 448 1345 241 448 1346 183 449 1347 239 449 1348 181 449 1349 228 450 1350 241 450 1351 227 450 1352 241 451 1353 184 451 1354 242 451 1355 241 452 1356 242 452 1357 227 452 1358 181 453 1359 239 453 1360 243 453 1361 243 454 1362 239 454 1363 178 454 1364 181 455 1365 243 455 1366 116 455 1367 243 456 1368 178 456 1369 117 456 1370 243 457 1371 117 457 1372 116 457 1373 227 458 1374 242 458 1375 244 458 1376 227 459 1377 244 459 1378 245 459 1379 245 460 1380 244 460 1381 242 460 1382 227 461 1383 245 461 1384 203 461 1385 203 462 1386 245 462 1387 201 462 1388 201 463 1389 245 463 1390 219 463 1391 219 464 1392 245 464 1393 242 464 1394 219 465 1395 242 465 1396 220 465 1397 231 466 1398 238 466 1399 228 466 1400 228 467 1401 238 467 1402 237 467 1403 238 468 1404 231 468 1405 234 468 1406 238 469 1407 234 469 1408 236 469 1409 208 470 1410 246 470 1411 138 470 1412 246 471 1413 208 471 1414 210 471 1415 138 472 1416 246 472 1417 144 472 1418 144 473 1419 246 473 1420 210 473 1421 138 474 1422 144 474 1423 139 474 1424 144 475 1425 210 475 1426 247 475 1427 144 476 1428 247 476 1429 146 476 1430 144 477 1431 146 477 1432 143 477 1433 247 478 1434 210 478 1435 248 478 1436 248 479 1437 210 479 1438 211 479 1439 248 480 1440 211 480 1441 218 480 1442 247 481 1443 248 481 1444 162 481 1445 247 482 1446 162 482 1447 146 482 1448 146 483 1449 162 483 1450 161 483 1451 249 484 1452 217 484 1453 220 484 1454 217 485 1455 249 485 1456 218 485 1457 249 486 1458 220 486 1459 250 486 1460 250 487 1461 220 487 1462 242 487 1463 250 488 1464 242 488 1465 184 488 1466 250 489 1467 184 489 1468 185 489 1469 250 490 1470 185 490 1471 249 490 1472 249 491 1473 185 491 1474 187 491 1475 249 492 1476 187 492 1477 251 492 1478 249 493 1479 251 493 1480 218 493 1481 251 494 1482 187 494 1483 159 494 1484 251 495 1485 159 495 1486 160 495 1487 251 496 1488 160 496 1489 163 496 1490 251 497 1491 163 497 1492 218 497 1493 218 498 1494 163 498 1495 248 498 1496 248 499 1497 163 499 1498 162 499 1499</p>
        </polylist>
      </mesh>
    </geometry>
  </library_geometries>
  <library_visual_scenes>
    <visual_scene id="Scene" name="Scene">
      <node id="Sulfur" name="Sulfur" type="NODE">
        <scale sid="scale">1 1 1</scale>
        <translate sid="location">0 0 0</translate>
        <rotate sid="rotationX">1 0 0 0</rotate>
        <rotate sid="rotationY">0 1 0 0</rotate>
        <rotate sid="rotationZ">0 0 1 0</rotate>
        <instance_geometry url="#Sulfur-mesh" name="Sulfur">
          <bind_material>
            <technique_common>
            </technique_common>
          </bind_material>
        </instance_geometry>
      </node>
    </visual_scene>
  </library_visual_scenes>
  <scene>
    <instance_visual_scene url="#Scene"/>
  </scene>
</COLLADA>
