<?xml version="1.0" encoding="utf-8"?>
<COLLADA xmlns="http://www.collada.org/2005/11/COLLADASchema" version="1.4.1" xmlns:xsi="http://www.w3.org/2001/XMLSchema-instance">
  <asset>
    <contributor>
      <author>Blockbench user</author>
      <authoring_tool>Blockbench</authoring_tool>
    </contributor>
    <created>2026-07-30T19:33:57.930Z</created>
    <modified>2026-07-30T19:33:57.930Z</modified>
    <unit name="meter" meter="1.0"/>
    <up_axis>Y_UP</up_axis>
  </asset>
  <library_effects>
  </library_effects>
  <library_images>
  </library_images>
  <library_materials>
  </library_materials>
  <library_geometries>
    <geometry id="Table3-mesh" name="Table3">
      <mesh>
        <source id="Table3-mesh-positions">
          <float_array id="Table3-mesh-positions-array" count="618">0.098165 0.110574 -0.106633 0.099215 0.197886 -0.118488 0.231146 0.185254 -0.115938 -0.430281 -0.218935 -0.014403 0.318027 -0.230937 -0.019711 0.323733 -0.230925 0.005575 0.333368 -0.221925 0.071787 0.326967 -0.206065 -0.092919 0.326963 -0.205792 0.078124 0.330668 -0.338205 -0.190505 0.329909 -0.325334 -0.237854 0.359889 -0.35209 -0.231953 0.320264 -0.334296 -0.227807 0.320919 -0.316176 -0.211008 0.321506 -0.303347 -0.205557 0.361759 -0.322872 -0.229419 0.357743 -0.262557 -0.210836 0.331917 -0.286597 -0.231497 0.319292 -0.259484 -0.186941 0.356035 -0.304502 -0.214587 0.353279 -0.297488 -0.207649 0.361424 -0.321662 -0.231186 0.333051 -0.287021 -0.222066 0.083927 0.167423 0.137821 0.078805 0.109226 0.059779 0.099152 0.114679 0.082943 0.116359 0.112319 0.117365 -0.421634 -0.198882 0.010971 -0.42099 -0.23093 0.007063 -0.482866 -0.353709 -0.206678 -0.438453 -0.28332 -0.231593 -0.422711 -0.285979 -0.190244 -0.462169 -0.24647 -0.188207 0.099082 0.197268 0.129605 -0.229458 0.108854 0.066821 -0.251596 0.138423 0.131507 0.0812 0.144523 0.133206 -0.251292 0.150268 0.133824 0.243095 0.101974 -0.218194 0.133491 0.119936 -0.23816 0.184817 0.125734 -0.232911 0.346066 -0.206102 -0.094956 0.334889 -0.215235 -0.081454 0.355855 -0.278635 0.204091 0.356949 -0.331466 0.196141 0.328803 -0.28779 0.172986 0.318116 -0.249617 0.177704 0.324149 -0.29195 0.225878 0.330376 -0.275259 0.210576 0.351184 -0.358355 0.218622 0.337222 -0.223183 0.080725 0.354583 -0.226636 0.162461 0.336726 -0.322937 0.241656 0.330495 -0.332851 0.229329 0.322398 -0.349884 0.202738 0.357966 -0.290911 0.225756 0.356526 -0.306022 0.206844 0.362338 -0.309115 0.227417 0.328588 -0.316912 0.224203 0.328218 -0.31731 0.224275 0.328544 -0.312755 0.224359 0.328249 -0.315916 0.224137 0.328695 -0.318412 0.225838 0.328785 -0.314915 0.224741 0.329605 -0.31527 0.18318 0.326825 -0.289458 0.213441 0.317739 -0.198328 -0.009437 0.179058 0.122659 0.22235 0.12803 0.118438 0.216531 0.136717 0.121818 0.221351 -0.26032 0.118711 -0.230112 -0.208125 0.118459 -0.230681 -0.21145 0.124597 -0.232797 0.221389 0.113841 -0.09978 0.215936 0.1149 0.11792 0.134885 0.118599 0.124249 0.231739 0.182082 0.124803 -0.460603 -0.2686 0.19394 -0.468882 -0.36102 0.200929 -0.42334 -0.280247 0.209309 -0.428293 -0.289595 0.183832 0.337691 -0.223575 -0.092546 0.130664 0.126831 -0.229405 0.136564 0.12153 -0.23034 0.178588 0.123189 -0.232377 0.339225 -0.207332 -0.186665 0.327462 -0.205296 0.176611 0.154307 0.120694 0.232314 0.186541 0.126982 0.218496 0.19307 0.132478 0.126624 0.357717 0.164064 -0.222839 0.385098 0.183025 0.238831 0.342647 0.160337 0.177563 0.315795 0.08791 0.180539 0.329003 0.165207 0.220069 0.342713 -0.003174 0.219612 0.198976 0.170126 0.138301 0.319014 0.090196 -0.182534 -0.015178 0.158456 -0.225419 -0.388746 0.088034 -0.190398 0.315146 0.167341 -0.223744 -0.416364 0.165629 -0.223333 -0.234366 0.205058 0.128565 -0.355682 0.206199 -0.106619 -0.354798 0.219775 -0.015758 -0.219912 0.204012 -0.125403 -0.476846 0.182209 -0.247458 -0.220079 0.206133 -0.169419 -0.475281 0.188323 0.242607 -0.363441 0.20781 0.108434 0.092151 0.167409 -0.121294 0.354569 -0.198402 -0.186752 0.354401 -0.198296 0.177493 -0.449332 -0.224662 0.080837 -0.434587 -0.222964 0.072905 -0.421869 -0.21198 0.167076 -0.430341 -0.20705 -0.094975 -0.439403 -0.207487 0.077284 -0.426473 -0.231643 -0.186745 -0.437169 -0.22358 -0.09238 -0.430556 -0.205597 -0.185835 -0.449338 -0.220266 -0.080926 -0.430315 -0.215165 -0.080438 -0.421434 -0.198498 -0.187287 -0.44919 -0.205773 -0.092398 -0.460428 0.07309 -0.192746 -0.45946 -0.198909 0.177553 0.351401 -0.004323 -0.228893 -0.454902 -0.042065 0.220938 -0.409223 0.15427 0.216488 -0.282318 0.116708 0.216428 -0.281021 0.127957 0.216423 -0.400145 0.087348 0.182355 -0.416686 0.167412 0.177677 -0.413691 0.081234 0.211009 -0.204933 0.127483 0.218304 -0.211028 0.121464 0.22151 -0.254383 0.121151 0.221692 -0.036083 0.15892 0.215402 -0.257531 0.124596 0.228956 -0.254824 0.118539 0.227646 -0.203915 0.119395 0.220695 -0.438526 -0.04617 -0.230357 -0.402512 0.094548 -0.225714 -0.45652 0.146905 -0.167639 -0.416896 0.167302 -0.187135 0.315986 0.167312 -0.186985 0.088724 0.204329 0.110108 0.08357 0.177921 -0.095529 0.014188 0.18822 0.055431 0.011612 0.17391 -0.049173 -0.052252 0.173806 -0.077444 -0.048845 0.174016 0.078578 -0.131989 0.173865 -0.089748 -0.140369 0.180959 0.087109 -0.228304 0.174146 0.101191 -0.142792 0.173895 -0.048233 -0.222358 0.174202 -0.106471 -0.126237 0.173804 0.045027 -0.456388 0.096826 0.158831 -0.460266 0.093756 0.207819 -0.427826 0.087286 -0.170595 0.381837 0.204617 -0.248455 0.198745 0.216296 -0.182193 0.224776 0.205137 -0.118839 0.104743 0.206135 -0.192421 0.112249 0.115719 -0.104567 0.092534 0.21029 -0.128484 0.221014 0.115752 -0.101847 -0.181516 0.206076 -0.157658 -0.458503 0.117961 -0.06881 -0.455347 0.162564 0.177331 0.017587 0.183739 -0.103053 -0.251448 0.167449 -0.127424 -0.246236 0.168147 -0.105693 0.111272 0.116047 0.115835 0.231984 0.206017 0.129574 0.222285 0.116355 0.11344 -0.22133 0.208281 0.223185 0.118018 0.081244 -0.224166 0.17983 0.128272 -0.225752 -0.034855 0.08124 0.214526 0.312738 0.08161 0.215593 0.111134 0.157924 0.216434 -0.010942 0.117379 0.2178 0.131771 0.128817 0.216626 0.180959 0.116228 0.216451 0.353231 0.085192 -0.182892 0.353226 0.097957 0.154223 0.166982 0.248253 -0.15467 0.101005 0.279761 -0.147457 0.186978 0.297147 -0.160221 0.143004 0.284596 -0.156277 0.14172 0.115143 0.032641 0.111077 0.302548 -0.148163 -0.188848 0.281694 -0.152347 -0.229959 0.158041 -0.225688 -0.212708 0.125155 -0.225722 -0.26117 0.128794 -0.225695 -0.255199 0.125421 -0.232175 -0.204426 0.124127 -0.233632 -0.256672 0.12263 -0.239719 -0.336625 0.299961 -0.033606 -0.356318 0.250593 -0.036672 -0.350058 0.316417 -0.018558 -0.322278 0.245609 -0.028784</float_array>
          <technique_common>
            <accessor source="#Table3-mesh-positions-array" count="206" stride="3">
              <param name="X" type="float"/>
              <param name="Y" type="float"/>
              <param name="Z" type="float"/>
            </accessor>
          </technique_common>
        </source>
        <source id="Table3-mesh-normals">
          <float_array id="Table3-mesh-normals-array" count="1500">0.006263 -0.134614 -0.990878 0.016008 0.999864 -0.004087 0.929355 0.369188 -0.000568 -0.631694 -0.750576 -0.193905 0.521728 -0.821084 -0.231561 -0.936067 -0.100436 0.33718 0.857104 -0.098705 0.505599 0.41603 0.292936 -0.860876 -0.774129 0.141388 -0.617036 -0.907092 0.192653 -0.374258 -0.782578 -0.330565 -0.52754 0.712193 0.561779 -0.420934 0.203617 -0.64691 0.734879 -0.708522 -0.592822 0.38283 -0.668185 -0.684297 0.292005 -0.749708 0.650907 0.11941 -0.897797 0.421728 0.126913 -0.906705 0.199401 -0.371653 -0.931585 0.105385 -0.347913 0.791417 -0.12229 0.598919 0.529637 0.038175 0.847365 -0.9532 -0.12529 -0.275159 -0.861054 0.177574 -0.476501 -0.988397 -0.082506 0.127532 -0.950231 -0.192645 0.244844 -0.092481 0.739569 0.666697 -0.012084 0.393721 0.91915 -0.442484 -0.704738 0.554574 -0.587923 0.732087 0.344086 -0.001984 0.121006 -0.99265 -0.000968 -0.873134 -0.48748 0.745396 -0.58406 -0.321339 -0.099611 -0.150196 0.983625 -0.999979 -0.003836 0.005289 -0.87507 -0.238643 0.421072 0.999928 -0.011956 0.000506 0.069451 -0.898087 0.434299 0.014609 -0.80202 0.597119 0.01376 0.852547 -0.522469 0.010978 -0.901359 0.432933 0.128506 -0.274983 -0.952822 -0.744141 0.250298 -0.619359 -0.065063 -0.800727 -0.595486 0.73227 0.116141 -0.671038 0.28024 -0.703405 -0.653214 0.972653 -0.014739 0.231796 0.860316 0.483227 -0.16232 0.604169 -0.741756 0.291166 -0.024906 0.868724 0.49467 0.994923 -0.10053 0.00457 0.000795 0.091056 0.995845 -0.643662 0.666442 0.376237 0.983528 0.151583 0.098463 -0.927945 -0.17188 -0.330719 0.189631 0.882727 0.429922 0.193785 0.506468 0.840201 -0.925483 -0.3276 -0.190158 0.995172 -0.09015 -0.038792 -0.691658 -0.199908 -0.694007 -0.600314 -0.152297 0.785129 -0.190442 -0.25307 -0.948519 -0.900239 0.025356 0.434656 -0.938058 -0.000805 0.346478 0.909952 0.028356 -0.413743 -0.988446 -0.138247 -0.062145 -0.535546 0.604544 0.589676 -0.009105 0.070901 -0.997442 -0.662781 -0.059159 -0.746473 0.944001 -0.053228 -0.325621 0.860995 -0.172278 -0.478548 -0.927713 -0.113946 0.355479 -0.832013 -0.16757 -0.528843 -0.993642 -0.01456 0.111642 0.98606 -0.08396 -0.143654 -0.936106 -0.34493 0.068771 -0.975689 0.114207 -0.18705 0.024699 0.421921 0.906296 0.002845 -0.821153 0.570702 -0.011885 -0.33164 -0.943331 0.02588 -0.99965 0.005511 0.080175 -0.99678 0.001253 0.026188 -0.999641 0.00566 0.060092 -0.228088 -0.971784 0.076304 -0.03312 0.996534 -0.023684 0.107403 -0.993933 -0.283605 -0.193022 0.939314 -0.351922 0.101889 0.930468 -0.323367 -0.04252 -0.945318 0.038166 0.023256 -0.999001 0.97564 -0.0438 -0.214961 0.802443 -0.203021 0.56113 0.632772 0.655842 -0.411668 -0.117556 -0.517249 -0.847723 0.802526 -0.210628 0.5582 0.954106 0.298541 0.023548 0.870524 -0.491996 0.011283 -0.029738 -0.998648 -0.042629 -0.691438 0.722425 -0.004021 0.556766 0.329932 -0.762336 0.988446 0.072439 -0.133142 -0.515193 0.814115 0.267941 0.787559 0.134269 -0.601433 0.943045 -0.161694 -0.290726 0.841021 0.305137 -0.446738 0.275559 0.743716 -0.609059 0.292497 -0.51586 -0.805192 -0.014465 -0.639527 -0.768633 0.992264 -0.016677 -0.123021 -0.605275 -0.292323 -0.740398 0.574634 -0.268272 0.773192 -0.513678 -0.605205 0.608162 -0.705229 0.706939 0.053755 -0.804709 -0.485568 0.341566 0.980111 0.130825 0.149223 0.801699 -0.593665 0.069574 0.588991 0.778766 0.215901 0.906159 -0.416182 -0.075292 0.682337 0.704535 -0.195057 0.001946 -0.300488 0.953784 -0.052668 0.116319 -0.991814 0.047575 -0.982236 0.18152 -0.105826 -0.085916 -0.990666 -0.080153 -0.996778 0.002991 0.611663 -0.790607 -0.028444 0.271489 0.593398 0.757742 -0.861738 -0.507307 0.006921 -0.970028 0.20119 -0.136268 0.559956 -0.828521 0.001335 0.886211 0.424616 -0.185286 0.977341 0.204637 0.054115 0.081709 -0.996636 0.006421 0.030755 -0.694278 -0.71905 0.211484 -0.935207 0.284013 0.006317 -0.437123 0.89938 0.99123 -0.129669 0.025459 -0.025482 -0.99877 0.042531 0.405124 0.729651 -0.550895 -0.891747 0.317356 -0.322602 -0.309135 -0.027751 0.950613 0.08805 -0.842061 -0.532146 0.271071 0.246103 -0.930567 -0.011175 0.49215 0.870438 -0.017128 0.470438 0.882267 -0.011827 -0.394246 -0.918929 0.288518 0.946548 -0.144236 0.01566 0.999872 -0.003227 -0.055563 0.991094 -0.121018 0.022731 0.998587 0.048033 -0.181119 0.983392 -0.01169 -0.188079 0.982052 -0.014143 0.97308 -0.228386 0.030897 0.891559 -0.452904 -0.00065 -0.027422 -0.085343 0.995974 -0.852018 0.492619 -0.177178 0.00061 1 -0.000291 -0.584383 -0.800629 0.132251 -0.999956 -0.006815 -0.006401 0.162916 -0.982288 0.092571 0.18819 0.982055 0.012391 0.983641 0.150751 0.098612 -0.535193 -0.844651 0.011508 0.958907 0.28232 -0.028167 0.447051 -0.893434 0.043834 0.216301 -0.85222 0.476377 0.782148 -0.623014 -0.009896 -0.811583 -0.583698 0.025108 -0.997825 -0.058307 -0.030764 0.923761 -0.38288 -0.008309 -0.957604 -0.283522 -0.051096 0.988186 -0.149695 0.032873 0.342592 -0.036733 0.938766 -0.024802 -0.038789 0.99894 -0.013781 -0.065207 0.997777 0.777251 -0.610089 0.153857 0.099996 -0.994621 -0.027033 -0.944313 -0.317886 0.084976 0.996734 -0.056134 -0.058057 -0.953896 0.299385 0.021246 -0.072123 -0.997263 -0.016262 -0.03698 -0.969748 0.24129 -0.915092 0.403095 0.010988 -0.183653 0.611245 0.769839 0.124796 0.866433 0.483446 0.782478 0.527895 -0.330235 -0.141232 -0.096338 -0.985278 0.093739 0.995473 0.015697 -0.039531 0.014407 0.999114 -0.994619 -0.103333 0.007416 0.968384 0.247567 0.030722 -0.017599 0.787356 -0.616248 0.999801 0.019706 0.003159 -0.389719 -0.163406 -0.906321 0.346959 0.934552 0.078936 -0.798995 0.593245 0.098321 -0.904975 0.421703 0.056457 -0.073908 0.0143 -0.997163 0.023935 0.035023 -0.9991 0.089158 -0.013716 0.995923 0.645314 -0.037504 -0.762997 0.34104 -0.05808 0.938253 0.000584 0.000377 1 0.973447 0.194013 -0.121489 0.897634 -0.02189 -0.440198 -0.09567 0.541698 0.835111 0.13411 -0.983833 0.118692 -0.016751 0.570259 0.821294 0.002773 0.011039 0.999935 0.008324 -0.902105 0.431437 -0.170801 -0.322883 -0.930899 0.004927 -0.915878 -0.401428 -0.022823 0.212759 0.976838 -0.035491 0.279206 0.959575 -0.008245 0.453452 -0.891242 -0.002628 0.430186 -0.902736 0.005053 -0.602406 0.798174 -0.001113 0.033262 -0.999446 0.368649 -0.007748 -0.929536 -0.229021 0.867319 0.441936 -0.942321 -0.334708 0.00162 -0.048273 -0.998247 0.034245 -0.21676 -0.976147 -0.012328 -0.122313 0.98479 -0.123402 -0.001043 0.999999 -0.001323 -0.139018 0.981605 -0.130862 -0.26141 0.957164 -0.124504 0.000951 0.999999 -0.001367 0.115006 0.397388 0.910415 -0.216965 0.976145 0.008175 -0.000231 1 -0.000783 0.009954 0.999916 -0.008329 -0.005349 0.999968 0.006021 0.003555 0.999994 0.000371 -0.820284 0.571214 -0.029138 0.37136 -0.927264 0.047689 0.900219 0.429804 0.069824 -0.542614 -0.061068 0.83776 0.110196 -0.00178 0.993908 0.379506 0.137288 0.914947 0.857593 -0.010853 0.514214 -0.956765 0.023765 -0.289891 0.919205 -0.108973 -0.378401 0.109429 0.985635 0.128645 -0.064084 0.937405 -0.342295 -0.061727 0.232599 0.970612 -0.024613 0.187698 0.981918 -0.008272 0.997757 -0.06642 0.850972 -0.524414 -0.028932 -0.989147 0.145168 0.022668 -0.986684 -0.076482 0.143548 0.934607 0.002141 -0.355677 0.525266 -0.106576 -0.844238 -0.971617 -0.028438 0.234845 -0.998518 0.054273 -0.00414 -0.999883 0.015069 0.002716 -0.878178 -0.00201 -0.47833 0.431411 0.004835 -0.902142 0.020805 -0.772939 -0.634139 -0.062066 -0.235485 -0.969894 0.065225 0.980368 0.186076 -0.015871 0.994261 0.1058 -0.065824 0.847153 -0.527256 0.997332 -0.045666 0.056949 0.985347 0.168207 0.028259 -0.033605 0.717573 0.695672 -0.002452 0.536251 0.844055 0.966001 -0.258383 0.00897 -0.077139 0.982309 0.170642 -0.040088 0.963575 0.264417 0.001239 0.796309 0.604889 0.003685 0.999993 0.000236 0.902093 0.430646 0.027783 -0.855954 -0.513779 -0.058084 -0.512075 0.853627 0.095398 0.134926 -0.029788 -0.990408 -0.021717 0.179331 -0.983549 0.037092 0.987101 0.155744 0.154052 0.988031 -0.00797 0.03959 0.998248 0.043968 -0.017367 -0.997048 -0.074792 -0.006314 -0.995937 -0.089832 0.990856 -0.131354 0.030824 0.984222 0.133962 0.115587 0.001482 0.131775 -0.991279 0.864199 -0.436259 -0.250676 0.077567 -0.185824 -0.979517 0.169432 0.35101 -0.920915 0.076653 -0.100684 -0.991961 -0.878747 0.193633 -0.436244 -0.048977 -0.100615 -0.993719 -0.065514 -0.048773 -0.996659 -0.024529 0.781516 -0.623403 0.139698 -0.220578 -0.965313 -0.078724 0.222721 0.971698 -0.23873 0.850895 -0.467959 0.144312 -0.240565 -0.959845 0.365435 0.704165 -0.608776 -0.360181 0.771524 -0.524424 0.377969 -0.923808 -0.06098 0.007333 0.647918 0.761675 -0.00142 -0.722989 0.690858 -0.071633 0.993834 0.084633 0.00156 -0.986057 -0.166399 -0.009217 -0.11756 0.993023 -0.021282 -0.073496 0.997068 0.032467 0.460951 -0.886831 -0.006637 0.053625 0.998539 -0.116269 -0.013038 0.993132 -0.040027 -0.329852 0.943184 0.034045 -0.010732 0.999363 -0.517831 0.17899 0.836549 -0.01748 0.024013 0.999559 0.508144 -0.205549 -0.836385 -0.003552 -0.454834 0.890569 0.009082 0.006343 0.999939 -0.032071 -0.790243 0.611954 0.16364 0.628811 0.760144 0.006408 0.011139 0.999917 -0.008398 -0.233999 0.9722 -0.014725 -0.003845 0.999884 -0.935219 -0.346163 0.074405 0.88103 -0.384224 0.275968 0.911679 -0.406113 -0.06256 -0.623373 -0.781765 -0.015804 -0.926437 0.35476 -0.125933 -0.136674 0.987111 0.083263 0.016438 -0.012587 0.999786 0.505939 -0.197818 0.83958 0.862606 -0.014175 -0.505679 0.99258 0.00348 0.121541 0.993055 0.003084 0.117609 0.008477 -0.013569 0.999872 0.999816 0.013609 -0.013551 0.241059 -0.043129 0.969552 -0.42007 0.066261 -0.905069 0.683922 0.274991 -0.675744 0.066442 -0.622605 -0.779711 0.998438 -0.000429 -0.055876 -0.313028 -0.949743 0.001301 -0.529614 -0.844755 0.076804 -0.890951 -0.454097 -0.001384 0.956248 0.291711 0.022226 0.999964 0.002036 0.008269 0.998787 0.049246 0.000446 0.010674 0.658617 -0.752403 0.033821 -0.611571 -0.790466 0.214886 0.232834 0.948479 0.156829 0.520537 -0.839313 -0.367237 0.251842 0.895384 0.914621 0.224495 -0.336259 -0.153989 0.238188 -0.958934 0.792232 0.535619 0.29237 -0.15103 0.736387 0.659488 0.232757 -0.498251 0.835207 0.792266 0.599751 0.112311 0.212107 -0.063539 0.975179 0.890076 -0.217876 -0.400369 0.782296 -0.361497 -0.50728 -0.907799 0.31526 0.276607 -0.631199 -0.589507 -0.504053 -0.387502 -0.294292 -0.873633 -0.99985 0.013718 0.010563 0.907683 -0.086833 0.410574 -0.286556 -0.057566 -0.956332 -0.99981 0.011386 0.015801 0.999611 -0.026644 -0.008251 0.982252 -0.113531 -0.149304 -0.999448 0.022206 0.024724 -0.997907 0.011394 0.063649 -0.989922 -0.112937 -0.085442 0.602949 -0.030512 0.797196 0.364986 0.021022 -0.930775 0.059307 -0.407931 -0.911085 -0.017521 0.008277 -0.999812 -0.80597 0.570487 0.157975 -0.928696 0.029834 0.36964 0.001625 -0.984254 -0.176751 0.000239 -0.978008 -0.208568 -0.834579 -0.010365 0.550791 -0.181096 -0.017414 0.983311 -0.931186 -0.335928 -0.141581 0.426082 -0.377506 0.822158 -0.002964 -0.088279 0.996091 0.00898 0.019575 0.999768 0.000567 -0.022622 0.999744 0.343916 -0.577502 0.740414 -0.037662 -0.167781 0.985105 -0.406206 -0.679993 0.610415 0.170931 0.474125 0.863706 -0.086615 0.967358 0.238153 0.003503 -0.054145 0.998527 0.17359 0.299221 0.938261 0.133781 0.070546 0.988497 -0.214589 0.900169 0.379007 -0.335766 -0.340045 0.878425 -0.291804 -0.906987 0.303686 0.136224 -0.150882 0.979121 -0.464037 0.053896 0.884175 0.013103 -0.539559 -0.841846 0.000274 0.999992 0.00395 -0.017089 0.970316 -0.241238 -0.025951 0.98756 -0.155085 0.290524 0.095042 -0.952136 0.642927 0.008548 0.76588 0.001605 -0.822253 -0.56912 -0.032368 -0.147481 0.988535 0.002344 -0.999981 0.005765 0.759174 -0.646149 0.078398 0.906739 0.410859 0.094969 0.798702 -0.573774 0.181269 0.063448 -0.990416 -0.122677 -0.005751 -0.998921 0.046084 -0.001552 -0.999906 0.013628 -0.886879 0.461975 -0.004954 0.998445 -0.055713 0.002124 0.282793 -0.958494 0.036298 -0.144777 -0.989436 -0.007513 -0.999021 -0.037911 0.022799 0.653208 0.069169 0.754013 0.013471 -0.982372 -0.186449 0.006511 -0.945317 -0.326087 0.00872 0.227882 -0.97365 0.438031 0.130578 -0.889426 -0.961688 0.00269 -0.274133 -0.13246 -0.652718 0.745931 0.052467 -0.750475 0.658813 -0.001716 -0.99976 -0.021825 -0.042619 -0.994053 0.10021 0.019763 -0.24857 0.968412 0.119652 -0.311187 0.942786 0.973541 -0.228449 -0.005408 0.058527 -0.32976 0.942249 0.00222 -0.265671 0.964061 0.001279 -0.014019 -0.999901 -0.089154 0.552655 -0.828628 -0.001899 -0.188564 -0.982059 0.000103 0.000129 -1 0.153399 -0.951344 -0.267232 0.136239 -0.384663 -0.912947 -0.032851 -0.444601 -0.895126 -0.064535 -0.273394 0.959735 -0.095026 0.392705 -0.914742 0.068048 0.909274 -0.410596 -0.66927 -0.350402 -0.655207 0.000593 0.30966 -0.950847 -0.011354 0.031266 -0.999447 -0.000499 0.000772 -1 -0.008613 -0.92474 -0.380501 0.113693 -0.516173 -0.848905 0.85689 0.503032 0.112689 0.058542 0.995957 -0.068141 0.01118 0.908648 -0.417412 -0.941439 0.065528 -0.330755 0.12437 0.922444 -0.365554 0.013854 0.9369 -0.349323 -0.018929 -0.280596 -0.959639 -0.777978 -0.628207 0.010322 -0.961026 -0.059617 -0.269952 -0.172841 -0.98495 0.000396 0.241718 0.970346 -0.000432 0.124713 -0.990822 -0.052134 0.015586 -0.946142 -0.323375 -0.00066 -0.999999 -0.000774 0.105167 -0.927116 0.359716 -0.005118 0.998789 -0.048942 0.006198 0.995331 0.096324 0.027189 0.998916 -0.037772 0.000308 0.999419 -0.034085 0.937581 -0.346286 0.032065 -0.561748 -0.066998 -0.824591 0.987468 0.153026 0.03859 0.966031 -0.203453 -0.159347 0.704065 0.350489 -0.617617 0.192074 -0.02245 0.981124 -0.405502 -0.098106 0.908814 0.976916 0.034731 0.210781 -0.925675 0.377696 0.021712 -0.999052 0.043146 0.005777 0.978742 0.205056 0.004033 0.968331 0.248727 0.021677 -0.019673 0.998986 0.040506 -0.002807 0.999995 -0.001501 -0.000233 0.999996 -0.0028 -0.994332 0.102433 0.028489 -0.552974 0.269546 -0.788394 -0.83278 0.520465 0.188663 0.849429 -0.514933 -0.115392 -0.99745 0.071374 0.000152 -0.041477 0.657823 -0.75203 -0.999832 0.017601 0.005116 -0.107725 0.973506 -0.201697 -0.998416 0.04296 -0.036344 -0.991607 -0.102437 -0.078879 0.240316 0.820549 -0.518601 -0.644351 0.757226 -0.106872 0.908317 -0.388943 -0.153895 0.221774 -0.027933 -0.974698 -0.987353 0.052758 0.149502 0.061158 0.987198 -0.14731 0.260126 0.153242 0.953337 0.736839 -0.016558 0.675866</float_array>
          <technique_common>
            <accessor source="#Table3-mesh-normals-array" count="500" stride="3">
              <param name="X" type="float"/>
              <param name="Y" type="float"/>
              <param name="Z" type="float"/>
            </accessor>
          </technique_common>
        </source>
        <source id="Table3-mesh-map-0">
          <float_array id="Table3-mesh-map-0-array" count="3000">0.018234 0.147854 0.014661 0.184229 0.061895 0.183628 0.733363 0.220832 0.74238 0.559906 0.744609 0.220879 0.420946 0.429097 0.391139 0.428839 0.420078 0.434892 0.983322 0.928143 0.982695 0.936351 0.980573 0.937636 0.983322 0.928143 0.985703 0.929461 0.982695 0.936351 0.550846 0.960244 0.537736 0.969763 0.552571 0.954331 0.987191 0.584974 0.985161 0.608492 0.980618 0.585082 0.232758 0.015665 0.248373 0.015741 0.255078 0.01708 0.988479 0.438259 0.98813 0.456354 0.982261 0.457231 0.988479 0.438259 0.982261 0.457231 0.979604 0.433839 0.496575 0.108097 0.491692 0.10933 0.486373 0.113308 0.983825 0.527487 0.973642 0.537347 0.978754 0.536571 0.415398 0.098907 0.414398 0.114493 0.416412 0.104253 0.414398 0.114493 0.416412 0.104253 0.419881 0.104021 0.068656 0.216451 0.067984 0.21147 0.067866 0.227992 0.545382 0.946778 0.552571 0.954331 0.547918 0.944396 0.85614 0.290518 0.868615 0.284453 0.856292 0.286611 0.597005 0.495378 0.597227 0.503041 0.596237 0.499166 0.85614 0.290518 0.863008 0.293964 0.868615 0.284453 0.97 0.601751 0.980585 0.587769 0.985161 0.608492 0.97 0.601751 0.985161 0.608492 0.968436 0.612185 0.86284 0.275514 0.856292 0.286611 0.854525 0.27332 0.856292 0.286611 0.868615 0.284453 0.86284 0.275514 0.761866 0.016665 0.763716 0.009384 0.764639 0.018081 0.983322 0.928143 0.99479 0.926387 0.985703 0.929461 0.895788 0.658751 0.913686 0.653721 0.899435 0.668984 0.913686 0.653721 0.925679 0.66 0.899435 0.668984 0.143552 0.376953 0.139705 0.404238 0.138831 0.387593 0.39946 0.35547 0.386262 0.357036 0.4 0.356754 0.644513 0.803062 0.636391 0.77435 0.644206 0.617435 0.770314 0.247073 0.774816 0.561225 0.763159 0.579299 0.665984 0.032323 0.683781 0.040276 0.683719 0.026607 0.668242 0.488482 0.663891 0.511231 0.653459 0.487951 0.489436 0.359416 0.4 0.356754 0.386388 0.396505 0.4 0.356754 0.386262 0.357036 0.386388 0.396505 0.489436 0.359416 0.491302 0.396118 0.386388 0.396505 0.174706 0.394455 0.143552 0.376953 0.21944 0.383587 0.143552 0.376953 0.174706 0.394455 0.139705 0.404238 0.865905 0.628282 0.834086 0.767805 0.866162 0.774203 0.834086 0.767805 0.832309 0.629382 0.865905 0.628282 0.067672 0.109926 0.050833 0.112117 0.068304 0.111036 0.99401 0.158707 0.997196 0.142459 0.979581 0.151528 0.608507 0.1698 0.608805 0.176591 0.606006 0.173156 0.622544 0.507268 0.60396 0.517317 0.625718 0.522824 0.536284 0.644221 0.532153 0.635431 0.535517 0.637072 0.599855 0.508283 0.60396 0.517317 0.622544 0.507268 0.686447 0.292857 0.695433 0.297619 0.686102 0.296958 0.855532 0.303638 0.856908 0.299581 0.856618 0.297059 0.931732 0.219723 0.927882 0.199135 0.936901 0.198293 0.746418 0.936391 0.741577 0.934493 0.757034 0.932581 0.206418 0.013433 0.220594 0.019183 0.222321 0.011493 0.622175 0.88218 0.616201 0.880563 0.622193 0.882473 0.842939 0.112497 0.824835 0.116036 0.839294 0.123197 0.845992 0.108824 0.839294 0.123197 0.842789 0.114744 0.620982 0.880148 0.624984 0.87878 0.616201 0.880563 0.206418 0.013433 0.210952 0.026924 0.220594 0.019183 0.616201 0.880563 0.622175 0.88218 0.621876 0.88171 0.621876 0.88171 0.616201 0.880563 0.620982 0.880148 0.843037 0.113752 0.843827 0.112099 0.842789 0.114744 0.990827 0.271373 0.991233 0.271056 0.99087 0.271988 0.843827 0.112099 0.842789 0.114744 0.845992 0.108824 0.99087 0.271988 0.998611 0.266611 0.995684 0.270912 0.99087 0.271988 0.991233 0.271056 0.998611 0.266611 0.99087 0.271988 0.990165 0.272689 0.995684 0.270912 0.589451 0.663231 0.588608 0.664286 0.588608 0.659244 0.622175 0.88218 0.622193 0.882473 0.623158 0.882773 0.842768 0.113181 0.839294 0.123197 0.842789 0.114744 0.842768 0.113181 0.842939 0.112497 0.839294 0.123197 0.843827 0.112099 0.842939 0.112497 0.842768 0.113181 0.843827 0.112099 0.842768 0.113181 0.843037 0.113752 0.10545 0.008848 0.126263 0.007219 0.101212 0.007396 0.306752 0.435848 0.321052 0.425182 0.29457 0.433115 0.29457 0.433115 0.321052 0.425182 0.297488 0.419724 0.586879 0.566865 0.58677 0.545156 0.585188 0.549324 0.868566 0.031767 0.861774 0.031831 0.868407 0.048122 0.999162 0.736438 0.999578 0.740756 0.994382 0.736477 0.632901 0.634502 0.636391 0.77435 0.644206 0.617435 0.577637 0.010504 0.592827 0.010504 0.578553 0.011731 0.301258 0.10126 0.316038 0.100376 0.301473 0.100528 0.109568 0.36992 0.065362 0.472312 0.059958 0.374174 0.875562 0.037354 0.880849 0.038138 0.943059 0.037071 0.109568 0.36992 0.109372 0.472841 0.065362 0.472312 0.062102 0.146062 0.018234 0.147854 0.061895 0.183628 0.929755 0.458987 0.893495 0.460966 0.942896 0.497875 0.893495 0.460966 0.942896 0.497875 0.89745 0.495104 0.939346 0.460446 0.929755 0.458987 0.942896 0.497875 0.103446 0.023322 0.080799 0.025212 0.105879 0.04102 0.01672 0.127385 0.038756 0.13132 0.035535 0.113512 0.401947 0.120408 0.419881 0.104021 0.414398 0.114493 0.53124 0.910484 0.51886 0.902336 0.522538 0.903522 0.013924 0.461765 0.013924 0.465966 0.012236 0.464232 0.899435 0.668984 0.902494 0.669724 0.895788 0.658751 0.978754 0.536571 0.98247 0.546002 0.971286 0.540063 0.40576 0.097397 0.413939 0.104216 0.415398 0.098907 0.413939 0.104216 0.414398 0.114493 0.415398 0.098907 0.065224 0.270395 0.056412 0.270366 0.07055 0.268493 0.791256 0.193866 0.802597 0.188894 0.790881 0.178568 0.824835 0.116036 0.839294 0.123197 0.834997 0.125702 0.948553 0.006123 0.935633 0.012622 0.947032 0.011777 0.986127 0.400158 0.997639 0.396747 0.987749 0.396124 0.316997 0.458403 0.321941 0.459244 0.314346 0.459244 0.634425 0.865033 0.642894 0.854627 0.647679 0.856919 0.874555 0.001925 0.858744 0.00217 0.865129 0.006377 0.994346 0.412083 0.986127 0.400158 0.997639 0.396747 0.515804 0.860295 0.5245 0.843109 0.53112 0.861779 0.577975 0.648383 0.581073 0.663247 0.566135 0.670892 0.641372 0.880837 0.634425 0.865033 0.635609 0.869294 0.52643 0.813778 0.527262 0.815267 0.532911 0.81416 0.849378 0.030341 0.844166 0.041994 0.851511 0.035176 0.426921 0.019126 0.435451 0.016628 0.420426 0.010966 0.868407 0.048122 0.847171 0.050127 0.855703 0.056227 0.451328 0.477323 0.375213 0.477171 0.419597 0.472647 0.510758 0.47012 0.504223 0.473451 0.503313 0.466924 0.498814 0.475782 0.504223 0.473451 0.498884 0.470898 0.498814 0.475782 0.510758 0.47012 0.504223 0.473451 0.498884 0.470898 0.503313 0.466924 0.498814 0.475782 0.498814 0.475782 0.503313 0.466924 0.430662 0.473412 0.430662 0.473412 0.419597 0.472647 0.498814 0.475782 0.605485 0.814706 0.605485 0.857563 0.59789 0.831887 0.563806 0.497472 0.565401 0.497016 0.564924 0.480847 0.470592 0.070876 0.473053 0.068879 0.455045 0.069818 0.560398 0.466736 0.556797 0.466711 0.558597 0.45794 0.203328 0.35672 0.132835 0.360777 0.293052 0.356857 0.120282 0.038216 0.119783 0.04128 0.116034 0.035714 0.486357 0.40458 0.481953 0.403038 0.492289 0.402176 0.419597 0.472647 0.375306 0.465443 0.422331 0.466723 0.419597 0.472647 0.375213 0.477171 0.375306 0.465443 0.422331 0.466723 0.503313 0.466924 0.375306 0.465443 0.92744 0.809313 0.930003 0.80964 0.93038 0.80126 0.968083 0.830701 0.961042 0.882366 0.97055 0.882971 0.863136 0.955404 0.864925 0.973638 0.861554 0.976047 0.261957 0.041726 0.279171 0.041964 0.261867 0.039416 0.540468 0.548366 0.548943 0.544677 0.52659 0.547624 0.548943 0.544677 0.510234 0.542816 0.52659 0.547624 0.300629 0.908779 0.313011 0.833562 0.317715 0.833566 0.341561 0.583677 0.399914 0.746271 0.410067 0.528945 0.380717 0.555101 0.341561 0.583677 0.410067 0.528945 0.805243 0.96828 0.767929 0.973105 0.803238 0.985572 0.188547 0.687473 0.128841 0.670662 0.128758 0.689679 0.333153 0.574216 0.341561 0.583677 0.380717 0.555101 0.380717 0.555101 0.32178 0.57246 0.333153 0.574216 0.792896 0.332597 0.803664 0.498756 0.797865 0.680034 0.763991 0.749178 0.73448 0.58233 0.765879 0.582069 0.735076 0.92955 0.765884 0.929313 0.763991 0.749178 0.116233 0.941335 0.066495 0.829481 0.079279 0.884221 0.066495 0.829481 0.116233 0.941335 0.117986 0.817146 0.002639 0.761838 0.042852 0.796931 0.129369 0.802105 0.117986 0.817146 0.129369 0.802105 0.066495 0.829481 0.042852 0.796931 0.002639 0.761838 0.005595 0.993999 0.042852 0.796931 0.005595 0.993999 0.053493 0.927752 0.259553 0.872414 0.143882 0.884089 0.259423 0.884105 0.143882 0.884089 0.259553 0.872414 0.14528 0.871607 0.753631 0.198873 0.755337 0.211148 0.806685 0.203813 0.416718 0.976484 0.500817 0.973691 0.416829 0.993177 0.416829 0.993177 0.500817 0.973691 0.589955 0.993056 0.609267 0.885409 0.688396 0.891583 0.597763 0.888469 0.24512 0.82553 0.168367 0.833193 0.168443 0.818031 0.934764 0.546937 0.943603 0.547697 0.943679 0.542858 0.878266 0.92485 0.87853 0.844324 0.871557 0.800506 0.871663 0.92411 0.868624 0.969198 0.88051 0.968956 0.871663 0.92411 0.868624 0.969198 0.871874 0.844858 0.688869 0.537888 0.526315 0.53289 0.596496 0.536672 0.647643 0.533925 0.688869 0.537888 0.526315 0.53289 0.63455 0.522859 0.640521 0.527253 0.643966 0.521406 0.871874 0.844858 0.871663 0.92411 0.875905 0.919595 0.688869 0.537888 0.596496 0.536672 0.618768 0.53737 0.875905 0.919595 0.871874 0.844858 0.878266 0.92485 0.871663 0.92411 0.88051 0.968956 0.878266 0.92485 0.878266 0.92485 0.871874 0.844858 0.87853 0.844324 0.417343 0.882054 0.432244 0.882024 0.425152 0.957937 0.793755 0.789512 0.792929 0.776227 0.798311 0.758108 0.084087 0.131857 0.066735 0.118829 0.072228 0.134028 0.066735 0.118829 0.054782 0.13577 0.072228 0.134028 0.651266 0.20962 0.713285 0.209363 0.71326 0.200569 0.833579 0.440991 0.832087 0.518789 0.831029 0.445906 0.832087 0.518789 0.831029 0.445906 0.827254 0.44215 0.832087 0.518789 0.825968 0.521783 0.827254 0.44215 0.835365 0.567512 0.834872 0.394658 0.833579 0.440991 0.651266 0.20962 0.71326 0.200569 0.539768 0.200523 0.832087 0.518789 0.835365 0.567512 0.832975 0.524381 0.832087 0.518789 0.835365 0.567512 0.833579 0.440991 0.885875 0.008099 0.894768 0.003834 0.894815 0.009307 0.885868 0.004353 0.894768 0.003834 0.885875 0.008099 0.825968 0.521783 0.832975 0.524381 0.835365 0.567512 0.555491 0.601632 0.54647 0.597899 0.546632 0.601601 0.871557 0.800506 0.88051 0.968956 0.878266 0.92485 0.225705 0.11985 0.066735 0.118829 0.087418 0.136215 0.895636 0.250013 0.894745 0.282954 0.918057 0.20256 0.909789 0.300778 0.894745 0.282954 0.918057 0.20256 0.500963 0.935965 0.493169 0.623803 0.511849 0.623763 0.159081 0.055078 0.079934 0.062587 0.079791 0.047857 0.417625 0.655053 0.43325 0.670857 0.435454 0.650651 0.590033 0.623909 0.511849 0.623763 0.590044 0.607845 0.651266 0.20962 0.539802 0.209447 0.539768 0.200523 0.834872 0.394658 0.827254 0.44215 0.825968 0.521783 0.459355 0.439107 0.360541 0.439671 0.506522 0.439452 0.25913 0.617806 0.339453 0.627465 0.332072 0.609022 0.360541 0.439671 0.506522 0.439452 0.527338 0.442033 0.130861 0.608201 0.131345 0.626565 0.25913 0.617806 0.592637 0.510992 0.587984 0.414851 0.572197 0.514582 0.29224 0.586542 0.318538 0.578651 0.318841 0.593352 0.586959 0.68176 0.575358 0.709191 0.568948 0.673728 0.588582 0.880649 0.586354 0.713495 0.589314 0.731725 0.703805 0.636184 0.711843 0.603773 0.708193 0.636114 0.708783 0.614821 0.711843 0.603773 0.703805 0.636184 0.704028 0.603169 0.708783 0.614821 0.703805 0.636184 0.688328 0.627817 0.704028 0.603169 0.68409 0.717558 0.699474 0.890961 0.717134 0.891507 0.695772 0.892831 0.717134 0.891507 0.695772 0.892831 0.720443 0.889262 0.158075 0.659838 0.137953 0.658918 0.138038 0.660324 0.703805 0.636184 0.68409 0.717558 0.704028 0.603169 0.703805 0.636184 0.70599 0.639577 0.68409 0.717558 0.180253 0.518745 0.001468 0.490789 0.002373 0.519937 0.782786 0.611104 0.782102 0.957357 0.773421 0.776777 0.008574 0.528554 0.029877 0.532268 0.078575 0.528009 0.545726 0.753659 0.535787 0.855607 0.535838 0.782488 0.545726 0.753659 0.557026 0.85551 0.535787 0.855607 0.261829 0.116824 0.257823 0.121651 0.261874 0.137791 0.802134 0.929646 0.793385 0.964899 0.811525 0.962734 0.341561 0.583677 0.380456 0.729017 0.399914 0.746271 0.338784 0.694501 0.380456 0.729017 0.341561 0.583677 0.763291 0.165545 0.759982 0.095776 0.732637 0.146514 0.732652 0.097595 0.696132 0.096141 0.696443 0.161571 0.759982 0.095776 0.732652 0.097595 0.732637 0.146514 0.732652 0.097595 0.696443 0.161571 0.732637 0.146514 0.696132 0.096141 0.666899 0.08357 0.696443 0.161571 0.659123 0.164061 0.623471 0.17047 0.696443 0.161571 0.83573 0.702601 0.826863 0.713909 0.830071 0.680252 0.666899 0.08357 0.655209 0.096827 0.696443 0.161571 0.655209 0.096827 0.631753 0.07451 0.696443 0.161571 0.669104 0.145328 0.696443 0.161571 0.631753 0.07451 0.631753 0.07451 0.623471 0.17047 0.669104 0.145328 0.489703 0.799887 0.489312 0.972469 0.476751 0.799737 0.476751 0.799737 0.489312 0.972469 0.476777 0.972321 0.817836 0.199772 0.8483 0.199624 0.817766 0.372422 0.226613 0.128833 0.225705 0.11985 0.087418 0.136215 0.793385 0.964899 0.793755 0.789512 0.802134 0.929646 0.226613 0.128833 0.261874 0.137791 0.257823 0.121651 0.226613 0.128833 0.087418 0.136215 0.261874 0.137791 0.793755 0.789512 0.810537 0.925286 0.798311 0.758108 0.793755 0.789512 0.810537 0.925286 0.802134 0.929646 0.395253 0.761609 0.327221 0.792202 0.336235 0.830568 0.288166 0.77984 0.327221 0.792202 0.395253 0.761609 0.839306 0.136639 0.789191 0.172852 0.841146 0.1723 0.793804 0.133348 0.789191 0.172852 0.839306 0.136639 0.2522 0.801596 0.288166 0.77984 0.146336 0.801236 0.676696 0.639951 0.671824 0.872067 0.661611 0.640849 0.446922 0.122256 0.49318 0.138558 0.601529 0.148661 0.557026 0.85551 0.556973 0.675621 0.556746 0.748402 0.537686 0.648628 0.556973 0.675621 0.545726 0.753659 0.537686 0.648628 0.545726 0.753659 0.535838 0.782488 0.261829 0.116824 0.225705 0.11985 0.257823 0.121651 0.446922 0.122256 0.436749 0.154448 0.49318 0.138558 0.601529 0.148661 0.596446 0.117429 0.446922 0.122256 0.152526 0.099794 0.008705 0.08622 0.05052 0.105778 0.556973 0.675621 0.557026 0.85551 0.545726 0.753659 0.937674 0.9788 0.937819 0.945661 0.943976 0.991235 0.943976 0.991235 0.937819 0.945661 0.950766 0.933505 0.362915 0.043616 0.341942 0.027154 0.336857 0.046068 0.759762 0.074839 0.631753 0.07451 0.666899 0.08357 0.696443 0.161571 0.623471 0.17047 0.756206 0.174638 0.948629 0.211471 0.941859 0.211085 0.942347 0.105075 0.951518 0.102737 0.948629 0.211471 0.942347 0.105075 0.466283 0.696134 0.456033 0.821938 0.456049 0.697999 0.465208 0.828523 0.456033 0.821938 0.466283 0.696134 0.813744 0.994591 0.816612 0.985297 0.92351 0.988982 0.913202 0.80927 0.890193 0.792147 0.892596 0.813114 0.733539 0.078963 0.666899 0.08357 0.711575 0.074795 0.666899 0.08357 0.759762 0.074839 0.733539 0.078963 0.324339 0.101462 0.340367 0.113345 0.349749 0.093822 0.527839 0.054238 0.480455 0.057095 0.532095 0.055503 0.387297 0.1496 0.447514 0.075237 0.418417 0.12357 0.210757 0.578126 0.116 0.584858 0.21579 0.603344 0.009202 0.042721 0.005602 0.081441 0.053626 0.081725 0.054857 0.049385 0.009202 0.042721 0.053626 0.081725 0.340564 0.939092 0.123014 0.982889 0.410123 0.993653 0.410123 0.993653 0.336235 0.830568 0.340564 0.939092 0.410123 0.993653 0.411194 0.764413 0.3641 0.931921 0.607455 0.067647 0.610548 0.054202 0.590295 0.054202 0.612507 0.449291 0.604576 0.311756 0.673829 0.339214 0.92185 0.392588 0.896143 0.319017 0.905591 0.417089 0.921513 0.322735 0.896143 0.319017 0.92185 0.392588 0.173939 0.284262 0.247823 0.275465 0.085266 0.26827 0.683564 0.786134 0.682649 0.783942 0.684341 0.783165 0.120131 0.295316 0.180214 0.289965 0.170172 0.28612 0.120131 0.295316 0.170172 0.28612 0.173939 0.284262 0.120131 0.295316 0.173939 0.284262 0.14945 0.28372 0.633163 0.046393 0.629425 0.042322 0.633359 0.040231 0.173939 0.284262 0.180214 0.289965 0.247823 0.275465 0.888199 0.303339 0.885992 0.327489 0.887169 0.325989 0.885992 0.327489 0.883634 0.303539 0.888199 0.303339 0.950612 0.607641 0.951807 0.628873 0.949511 0.610879 0.14945 0.28372 0.085266 0.26827 0.173939 0.284262 0.145594 0.28477 0.14945 0.28372 0.085266 0.26827 0.120131 0.295316 0.145594 0.28477 0.085266 0.26827 0.932165 0.990112 0.934046 0.991712 0.934178 0.987597 0.885992 0.327489 0.887169 0.325989 0.889793 0.326864 0.946763 0.338378 0.928879 0.243284 0.954139 0.240101 0.123014 0.982889 0.166769 0.994871 0.410123 0.993653 0.411439 0.315465 0.063775 0.316889 0.38252 0.327563 0.056872 0.958821 0.005595 0.993999 0.117007 0.989646 0.821962 0.664982 0.819777 0.845334 0.821116 0.498949 0.711843 0.603773 0.72985 0.539306 0.721326 0.712454 0.698321 0.540062 0.72985 0.539306 0.711843 0.603773 0.630802 0.292857 0.621324 0.299754 0.619972 0.298315 0.693364 0.786062 0.68409 0.717558 0.704917 0.726958 0.68409 0.717558 0.721326 0.712454 0.704917 0.726958 0.70599 0.639577 0.711843 0.603773 0.707908 0.712179 0.68409 0.717558 0.70599 0.639577 0.707908 0.712179 0.005832 0.240918 0.002381 0.240586 0.002871 0.246023 0.209642 0.055042 0.212234 0.060071 0.2173 0.060084 0.20062 0.416223 0.195538 0.413198 0.198281 0.418091 0.350357 0.490666 0.350266 0.521845 0.180253 0.518745 0.997046 0.015135 0.98737 0.019485 0.9827 0.005462 0.707579 0.794309 0.709657 0.8195 0.706359 0.798485 0.703388 0.79574 0.706359 0.798485 0.709657 0.8195 0.693364 0.786062 0.703388 0.79574 0.709657 0.8195 0.751882 0.222376 0.751363 0.373608 0.750306 0.289077 0.343882 0.168795 0.328565 0.16574 0.32965 0.169328 0.588392 0.595241 0.588511 0.583019 0.543666 0.592533 0.588511 0.583019 0.543666 0.592533 0.542729 0.586223 0.588392 0.595241 0.543666 0.592533 0.415447 0.593447 0.657719 0.052889 0.745494 0.053285 0.678802 0.053361 0.138892 0.434679 0.138938 0.422498 0.188234 0.434345 0.543666 0.592533 0.466688 0.589262 0.464564 0.594902 0.153386 0.647819 0.291325 0.652085 0.292087 0.636513 0.319058 0.652585 0.307576 0.640147 0.296496 0.645511 0.5246 0.926807 0.625976 0.935506 0.722189 0.930816 0.32049 0.633901 0.159279 0.633275 0.292087 0.636513 0.997749 0.78811 0.998734 0.812185 0.997145 0.79145 0.153386 0.647819 0.292087 0.636513 0.15709 0.637053 0.702113 0.242925 0.687247 0.244257 0.719771 0.244998 0.017204 0.470944 0.035754 0.4837 0.027346 0.356847 0.702113 0.242925 0.708171 0.227257 0.691551 0.231599 0.647679 0.080252 0.647679 0.07605 0.643601 0.076579 0.708171 0.227257 0.702113 0.242925 0.719771 0.244998 0.719771 0.244998 0.687247 0.244257 0.553117 0.243077 0.542729 0.586223 0.461348 0.586643 0.466688 0.589262 0.011077 0.313016 0.008572 0.43036 0.007696 0.269586 0.542729 0.586223 0.588511 0.583019 0.461348 0.586643 0.542729 0.586223 0.538266 0.590501 0.466688 0.589262 0.525003 0.424323 0.351693 0.409859 0.351736 0.424302 0.351693 0.409859 0.525003 0.424323 0.525157 0.409837 0.53483 0.308223 0.483825 0.308871 0.51342 0.319253 0.479246 0.329872 0.51342 0.319253 0.534044 0.328711 0.5638 0.000807 0.545672 0.002224 0.563794 0.005823 0.545672 0.002224 0.550942 0.0088 0.563794 0.005823 0.784958 0.581327 0.783861 0.60369 0.775984 0.603901 0.955868 0.544159 0.952769 0.563313 0.949605 0.544266 0.985565 0.721567 0.984712 0.697679 0.983132 0.701651 0.980991 0.722525 0.985565 0.721567 0.984712 0.697679 0.113554 0.901669 0.112981 0.904622 0.122121 0.902019 0.791093 0.074153 0.784476 0.074129 0.788186 0.077731 0.853118 0.792889 0.851977 0.786449 0.831679 0.794495 0.724528 0.062334 0.720901 0.062029 0.721734 0.055882 0.831679 0.794495 0.851977 0.786449 0.830746 0.786597 0.922289 0.814901 0.926997 0.82011 0.931868 0.815681 0.970042 0.993854 0.963864 0.99839 0.962029 0.988004 0.505063 0.379412 0.502796 0.385749 0.501908 0.379675 0.501908 0.379675 0.502796 0.385749 0.498473 0.382181 0.601529 0.148661 0.49318 0.138558 0.546153 0.155042 0.570017 0.798478 0.575358 0.709191 0.586354 0.713495 0.418599 0.683082 0.41955 0.817208 0.43519 0.683308 0.418599 0.683082 0.418479 0.854662 0.41955 0.817208 0.588582 0.880649 0.570017 0.798478 0.586354 0.713495 0.588582 0.880649 0.569268 0.880524 0.570017 0.798478 0.679392 0.945709 0.766973 0.952452 0.671595 0.964004 0.679392 0.945709 0.671595 0.964004 0.565942 0.943679 0.425478 0.82544 0.41955 0.817208 0.43519 0.683308 0.425478 0.82544 0.43519 0.683308 0.436551 0.857437 0.575358 0.709191 0.570017 0.798478 0.568948 0.673728 0.418479 0.854662 0.436551 0.857437 0.425478 0.82544 0.687247 0.244257 0.708171 0.227257 0.550745 0.232199 0.500817 0.973691 0.589892 0.977102 0.589955 0.993056 0.612638 0.968313 0.597768 0.987416 0.727616 0.987591 0.436165 0.226653 0.087164 0.21351 0.086914 0.226843 0.436165 0.226653 0.436549 0.213288 0.087164 0.21351 0.767929 0.973105 0.612638 0.968313 0.727616 0.987591 0.765714 0.984328 0.727616 0.987591 0.803238 0.985572 0.765714 0.984328 0.767929 0.973105 0.727616 0.987591 0.045245 0.948322 0.048035 0.950995 0.046599 0.945843 0.722996 0.749282 0.729925 0.874944 0.718423 0.786275 0.707579 0.794309 0.718423 0.786275 0.729925 0.874944 0.729925 0.874944 0.709657 0.8195 0.707579 0.794309 0.297906 0.444499 0.295993 0.442783 0.298989 0.442619 0.709657 0.8195 0.729925 0.874944 0.70675 0.822449 0.693364 0.786062 0.709657 0.8195 0.705946 0.818116 0.209642 0.055042 0.209195 0.058676 0.212234 0.060071 0.222363 0.413431 0.20062 0.416223 0.198281 0.418091 0.69253 0.864122 0.70675 0.822449 0.729925 0.874944 0.720443 0.889262 0.695772 0.892831 0.713756 0.895378 0.363205 0.012221 0.384088 0.014859 0.36182 0.012958 0.384617 0.011242 0.386843 0.010008 0.384088 0.014859 0.359419 0.404376 0.353375 0.401802 0.359787 0.402145 0.693918 0.88796 0.696342 0.888614 0.695772 0.892831 0.592431 0.96939 0.572193 0.971036 0.592185 0.97148 0.35322 0.405679 0.353375 0.401802 0.359419 0.404376 0.04235 0.3473 0.451374 0.339572 0.041271 0.33332 0.288166 0.77984 0.129369 0.802105 0.146336 0.801236 0.270233 0.77238 0.118677 0.762106 0.129369 0.802105 0.236162 0.762306 0.118677 0.762106 0.270233 0.77238 0.5921 0.170254 0.573085 0.161221 0.584157 0.173717 0.879436 0.481475 0.872932 0.482242 0.878342 0.465435 0.030291 0.749092 0.148388 0.757357 0.380886 0.748799 0.380886 0.748799 0.148388 0.757357 0.399914 0.746271 0.065909 0.252698 0.020996 0.266874 0.100882 0.256487 0.416806 0.607166 0.416547 0.623439 0.590044 0.607845 0.416547 0.623439 0.590044 0.607845 0.493169 0.623803 0.590044 0.607845 0.493169 0.623803 0.511849 0.623763 0.113416 0.686953 0.109013 0.576627 0.030571 0.730044 0.030571 0.730044 0.030291 0.749092 0.275822 0.699072 0.030571 0.730044 0.275822 0.699072 0.113416 0.686953 0.825374 0.975827 0.825791 0.80329 0.855569 0.975886 0.146185 0.479366 0.307949 0.483172 0.309193 0.448003 0.544034 0.911708 0.71739 0.899919 0.544079 0.899778 0.717524 0.911916 0.71739 0.899919 0.544034 0.911708 0.810664 0.231335 0.79567 0.263488 0.792288 0.228294 0.116927 0.653087 0.153386 0.647819 0.119077 0.635564 0.11706 0.210395 0.465928 0.210022 0.136559 0.1974 0.136559 0.1974 0.465928 0.210022 0.465449 0.197398 0.644407 0.218043 0.463373 0.215536 0.814482 0.21566 0.360541 0.439671 0.527338 0.442033 0.530071 0.457887 0.37148 0.458917 0.530071 0.457887 0.360541 0.439671 0.275188 0.576581 0.32178 0.57246 0.380717 0.555101 0.424387 0.077321 0.278313 0.076074 0.417454 0.081626 0.189141 0.530509 0.154421 0.571256 0.275188 0.576581 0.380935 0.535832 0.275188 0.576581 0.380717 0.555101 0.879561 0.078729 0.905228 0.072389 0.880699 0.054075 0.11124 0.362497 0.113128 0.358839 0.085463 0.358492 0.91975 0.102574 0.933662 0.063872 0.930602 0.15968 0.915105 0.950514 0.912415 0.975906 0.937674 0.9788 0.930642 0.949467 0.915105 0.950514 0.937674 0.9788 0.257182 0.268205 0.180214 0.289965 0.346602 0.272242 0.427461 0.299908 0.33624 0.284473 0.334279 0.288241 0.427461 0.299908 0.334279 0.288241 0.180214 0.289965 0.359164 0.282753 0.427461 0.299908 0.346602 0.272242 0.33624 0.284473 0.427461 0.299908 0.35945 0.287461 0.33624 0.284473 0.35945 0.287461 0.356486 0.285044 0.180214 0.289965 0.334279 0.288241 0.332147 0.285296 0.332147 0.285296 0.180214 0.289965 0.346602 0.272242 0.35945 0.287461 0.427461 0.299908 0.359164 0.282753 0.33624 0.284473 0.356486 0.285044 0.359164 0.282753 0.332147 0.285296 0.33624 0.284473 0.346602 0.272242 0.346602 0.272242 0.434462 0.268004 0.257182 0.268205 0.427461 0.299908 0.434462 0.268004 0.346602 0.272242 0.33624 0.284473 0.359164 0.282753 0.346602 0.272242 0.797264 0.295364 0.794999 0.293384 0.800218 0.271435 0.800218 0.271435 0.794999 0.293384 0.795056 0.27791 0.606636 0.16552 0.60783 0.162636 0.605622 0.162688 0.912977 0.028333 0.911967 0.024883 0.910287 0.029113 0.910287 0.029113 0.934777 0.028727 0.912977 0.028333 0.634427 0.563053 0.635101 0.567954 0.631925 0.570325 0.934594 0.031777 0.936828 0.025548 0.934777 0.028727 0.934594 0.031777 0.934777 0.028727 0.910287 0.029113 0.593901 0.526068 0.59566 0.527761 0.576302 0.526863 0.004619 0.688358 0.010086 0.555202 0.006026 0.529142 0.565942 0.943679 0.671595 0.964004 0.559378 0.963747 0.030601 0.554941 0.030571 0.730044 0.109013 0.576627 0.030571 0.730044 0.026366 0.583386 0.030601 0.554941 0.888511 0.098915 0.892432 0.10601 0.90342 0.100112 0.380935 0.535832 0.029877 0.532268 0.030601 0.554941 0.380456 0.729017 0.275822 0.699072 0.380886 0.748799 0.338784 0.694501 0.275822 0.699072 0.380456 0.729017 0.340564 0.939092 0.278003 0.934944 0.123014 0.982889 0.079279 0.884221 0.053493 0.927752 0.116233 0.941335 0.053493 0.927752 0.117007 0.989646 0.116233 0.941335 0.262158 0.950013 0.116233 0.941335 0.123014 0.982889 0.825791 0.80329 0.855569 0.975886 0.855834 0.803022 0.687247 0.244257 0.550745 0.232199 0.553117 0.243077 0.145492 0.47884 0.309193 0.448003 0.134789 0.447684 0.188547 0.687473 0.192285 0.673417 0.128841 0.670662 0.512797 0.245478 0.553117 0.243077 0.516036 0.239625 0.572189 0.323509 0.572197 0.514582 0.587984 0.414851 0.587984 0.414851 0.591188 0.307737 0.572189 0.323509 0.336412 0.677848 0.192285 0.673417 0.188547 0.687473 0.277398 0.018742 0.277621 0.022788 0.297173 0.022742 0.923567 0.832906 0.9242 0.921538 0.884678 0.828578 0.885854 0.544304 0.922398 0.53791 0.885293 0.637501 0.922628 0.641359 0.885293 0.637501 0.922398 0.53791 0.456312 0.553498 0.556445 0.555621 0.564979 0.551681 0.921464 0.683897 0.921449 0.775631 0.877156 0.777312 0.876394 0.684149 0.921464 0.683897 0.877156 0.777312 0.884678 0.828578 0.9242 0.921538 0.884115 0.923166 0.243807 0.248319 0.245294 0.263775 0.24848 0.248319 0.934619 0.541597 0.934764 0.546937 0.943679 0.542858 0.833579 0.440991 0.827254 0.44215 0.834872 0.394658 0.817766 0.372422 0.848071 0.361095 0.8483 0.199624 0.618994 0.548753 0.627515 0.550655 0.624237 0.689408 0.851873 0.309119 0.866581 0.309054 0.856168 0.453242 0.558795 0.363222 0.533592 0.365035 0.55548 0.381153 0.183037 0.062351 0.167731 0.024257 0.181545 0.041649 0.167731 0.024257 0.181545 0.041649 0.197904 0.028378 0.181545 0.041649 0.189031 0.046897 0.183037 0.062351 0.189031 0.046897 0.183037 0.062351 0.197904 0.028378 0.517313 0.175923 0.55813 0.176029 0.558228 0.172689 0.998929 0.358572 0.99419 0.358808 0.996101 0.343442 0.912324 0.121561 0.914346 0.137133 0.909892 0.137185 0.958223 0.747018 0.944991 0.734563 0.963323 0.724138 0.96957 0.127982 0.966675 0.127895 0.967574 0.113072 0.96957 0.127982 0.967574 0.113072 0.970042 0.113067</float_array>
          <technique_common>
            <accessor source="#Table3-mesh-map-0-array" count="1500" stride="2">
              <param name="S" type="float"/>
              <param name="T" type="float"/>
            </accessor>
          </technique_common>
        </source>
        <vertices id="Table3-mesh-vertices">
          <input semantic="POSITION" source="#Table3-mesh-positions"/>
        </vertices>
        <polylist material="Material_-1-material" count="6">
          <input semantic="VERTEX" source="#Table3-mesh-vertices" offset="0"/>
          <input semantic="NORMAL" source="#Table3-mesh-normals" offset="1"/>
          <input semantic="TEXCOORD" source="#Table3-mesh-map-0" offset="2" set="0"/>
          <vcount>3 3 3 3 3 3 3 3 3 3 3 3 3 3 3 3 3 3 3 3 3 3 3 3 3 3 3 3 3 3 3 3 3 3 3 3 3 3 3 3 3 3 3 3 3 3 3 3 3 3 3 3 3 3 3 3 3 3 3 3 3 3 3 3 3 3 3 3 3 3 3 3 3 3 3 3 3 3 3 3 3 3 3 3 3 3 3 3 3 3 3 3 3 3 3 3 3 3 3 3 3 3 3 3 3 3 3 3 3 3 3 3 3 3 3 3 3 3 3 3 3 3 3 3 3 3 3 3 3 3 3 3 3 3 3 3 3 3 3 3 3 3 3 3 3 3 3 3 3 3 3 3 3 3 3 3 3 3 3 3 3 3 3 3 3 3 3 3 3 3 3 3 3 3 3 3 3 3 3 3 3 3 3 3 3 3 3 3 3 3 3 3 3 3 3 3 3 3 3 3 3 3 3 3 3 3 3 3 3 3 3 3 3 3 3 3 3 3 3 3 3 3 3 3 3 3 3 3 3 3 3 3 3 3 3 3 3 3 3 3 3 3 3 3 3 3 3 3 3 3 3 3 3 3 3 3 3 3 3 3 3 3 3 3 3 3 3 3 3 3 3 3 3 3 3 3 3 3 3 3 3 3 3 3 3 3 3 3 3 3 3 3 3 3 3 3 3 3 3 3 3 3 3 3 3 3 3 3 3 3 3 3 3 3 3 3 3 3 3 3 3 3 3 3 3 3 3 3 3 3 3 3 3 3 3 3 3 3 3 3 3 3 3 3 3 3 3 3 3 3 3 3 3 3 3 3 3 3 3 3 3 3 3 3 3 3 3 3 3 3 3 3 3 3 3 3 3 3 3 3 3 3 3 3 3 3 3 3 3 3 3 3 3 3 3 3 3 3 3 3 3 3 3 3 3 3 3 3 3 3 3 3 3 3 3 3 3 3 3 3 3 3 3 3 3 3 3 3 3 3 3 3 3 3 3 3 3 3 3 3 3 3 3 3 3 3 3 3 3 3 3 3 3 3 3 3 3 3 3 3 3 3 3 3 3 3 3 3 3 3 3 3 3 3 3 3 3 3 3 3 3 3 3 3 3 3 3 3 3 3 3 3 3 3 3 3 3 3 3 3</vcount>
          <p>0 0 0 1 0 1 2 0 2 4 1 3 3 1 4 5 1 5 6 2 6 7 2 7 8 2 8 9 3 9 10 3 10 11 3 11 9 4 12 12 4 13 10 4 14 13 5 15 9 5 16 14 5 17 15 6 18 16 6 19 11 6 20 15 7 21 17 7 22 16 7 23 17 8 24 10 8 25 12 8 26 17 9 27 12 9 28 18 9 29 11 10 30 14 10 31 17 10 32 15 11 33 17 11 34 19 11 35 20 12 36 21 12 37 19 12 38 21 13 39 19 13 40 17 13 41 10 14 42 11 14 43 14 14 44 17 15 45 14 15 46 22 15 47 17 16 48 13 16 49 22 16 50 10 17 51 13 17 52 14 17 53 17 18 54 10 18 55 13 18 56 9 19 57 11 19 58 16 19 59 9 20 60 16 20 61 18 20 62 18 21 63 22 21 64 9 21 65 22 22 66 13 22 67 18 22 68 18 23 69 12 23 70 13 23 71 9 24 72 13 24 73 12 24 74 22 25 75 14 25 76 20 25 77 14 26 78 9 26 79 20 26 80 23 27 81 24 27 82 25 27 83 24 28 84 26 28 85 25 28 86 28 29 87 27 29 88 5 29 89 5 30 90 28 30 91 3 30 92 29 31 93 30 31 94 31 31 95 32 32 96 29 32 97 31 32 98 0 33 99 25 33 100 33 33 101 25 34 102 26 34 103 33 34 104 0 35 105 1 35 106 33 35 107 34 36 108 23 36 109 35 36 110 23 37 111 34 37 112 24 37 113 36 38 114 34 38 115 37 38 116 34 39 117 24 39 118 36 39 119 38 40 120 39 40 121 40 40 122 32 41 123 30 41 124 29 41 125 7 42 126 41 42 127 42 42 128 43 43 129 44 43 130 45 43 131 47 44 132 46 44 133 48 44 134 49 45 135 44 45 136 43 45 137 50 46 138 8 46 139 51 46 140 52 47 141 53 47 142 54 47 143 47 48 144 55 48 145 43 48 146 56 49 147 55 49 148 49 49 149 47 50 150 57 50 151 55 50 152 58 51 153 45 51 154 59 51 155 59 52 156 45 52 157 47 52 158 53 53 159 47 53 160 60 53 161 60 54 162 52 54 163 45 54 164 47 55 165 52 55 166 57 55 167 45 56 168 58 56 169 61 56 170 61 57 171 45 57 172 60 57 173 63 58 174 62 58 175 60 58 176 61 59 177 58 59 178 63 59 179 62 60 180 60 60 181 53 60 182 63 61 183 53 61 184 52 61 185 63 62 186 58 62 187 53 62 188 63 63 189 60 63 190 52 63 191 62 64 192 58 64 193 53 64 194 58 65 195 59 65 196 62 65 197 61 66 198 47 66 199 60 66 200 61 67 201 59 67 202 47 67 203 62 68 204 59 68 205 61 68 206 62 69 207 61 69 208 63 69 209 53 70 210 47 70 211 54 70 212 45 71 213 54 71 214 46 71 215 46 72 216 54 72 217 47 72 218 49 73 219 43 73 220 55 73 221 47 74 222 64 74 223 52 74 224 47 75 225 65 75 226 64 75 227 66 76 228 27 76 229 5 76 230 68 77 231 67 77 232 69 77 233 71 78 234 70 78 235 72 78 236 26 79 237 73 79 238 74 79 239 26 80 240 24 80 241 0 80 242 26 81 243 0 81 244 73 81 245 73 82 246 0 82 247 2 82 248 75 83 249 74 83 250 33 83 251 74 84 252 33 84 253 76 84 254 26 85 255 75 85 256 33 85 257 77 86 258 78 86 259 79 86 260 78 87 261 77 87 262 80 87 263 11 88 264 17 88 265 21 88 266 11 89 267 21 89 268 15 89 269 9 90 270 15 90 271 19 90 272 20 91 273 19 91 274 22 91 275 19 92 276 9 92 277 22 92 278 9 93 279 15 93 280 20 93 281 15 94 282 21 94 283 20 94 284 80 95 285 79 95 286 78 95 287 65 96 288 45 96 289 55 96 290 45 97 291 47 97 292 65 97 293 56 98 294 44 98 295 64 98 296 55 99 297 44 99 298 56 99 299 56 100 300 64 100 301 57 100 302 64 101 303 55 101 304 57 101 305 49 102 306 56 102 307 57 102 308 45 103 309 55 103 310 44 103 311 55 104 312 64 104 313 65 104 314 49 105 315 54 105 316 64 105 317 49 106 318 64 106 319 44 106 320 64 107 321 45 107 322 52 107 323 64 108 324 54 108 325 45 108 326 52 109 327 49 109 328 57 109 329 52 110 330 54 110 331 49 110 332 5 111 333 46 111 334 50 111 335 18 112 336 81 112 337 7 112 338 5 113 339 81 113 340 42 113 341 5 114 342 18 114 343 81 114 344 42 115 345 7 115 346 5 115 347 5 116 348 7 116 349 6 116 350 6 117 351 50 117 352 5 117 353 3 118 354 4 118 355 66 118 356 83 119 357 82 119 358 84 119 359 83 120 360 39 120 361 84 120 362 81 121 363 7 121 364 41 121 365 7 122 366 85 122 367 86 122 368 42 123 369 41 123 370 6 123 371 48 124 372 47 124 373 43 124 374 50 125 375 86 125 376 8 125 377 50 126 378 46 126 379 86 126 380 8 127 381 7 127 382 86 127 383 51 128 384 6 128 385 8 128 386 46 129 387 5 129 388 66 129 389 68 130 390 67 130 391 87 130 392 67 131 393 69 131 394 88 131 395 75 132 396 26 132 397 89 132 398 26 133 399 74 133 400 89 133 401 74 134 402 73 134 403 2 134 404 76 135 405 90 135 406 91 135 407 92 136 408 76 136 409 91 136 410 92 137 411 93 137 412 94 137 413 95 138 414 91 138 415 94 138 416 96 139 417 76 139 418 92 139 419 92 140 420 89 140 421 96 140 422 97 141 423 98 141 424 99 141 425 98 142 426 97 142 427 100 142 428 99 143 429 101 143 430 98 143 431 102 144 432 103 144 433 104 144 434 103 145 435 102 145 436 105 145 437 106 146 438 103 146 439 107 146 440 105 147 441 107 147 442 103 147 443 103 148 444 106 148 445 108 148 446 103 149 447 108 149 448 109 149 449 1 150 450 23 150 451 110 150 452 23 151 453 1 151 454 33 151 455 1 152 456 110 152 457 2 152 458 18 153 459 66 153 460 111 153 461 111 154 462 66 154 463 112 154 464 4 155 465 18 155 466 5 155 467 18 156 468 4 156 469 66 156 470 113 157 471 114 157 472 115 157 473 116 158 474 117 158 475 115 158 476 119 159 477 118 159 478 120 159 479 119 160 480 118 160 481 114 160 482 118 161 483 115 161 484 28 161 485 114 162 486 118 162 487 115 162 488 121 163 489 119 163 490 122 163 491 114 164 492 119 164 493 122 164 494 118 165 495 28 165 496 3 165 497 122 166 498 114 166 499 116 166 500 119 167 501 120 167 502 116 167 503 116 168 504 114 168 505 117 168 506 118 169 507 123 169 508 3 169 509 123 170 510 118 170 511 31 170 512 120 171 513 32 171 514 118 171 515 32 172 516 31 172 517 118 172 518 124 173 519 32 173 520 120 173 521 113 174 522 121 174 523 114 174 524 121 175 525 114 175 526 117 175 527 121 176 528 124 176 529 117 176 530 32 177 531 77 177 532 113 177 533 124 178 534 120 178 535 115 178 536 121 179 537 32 179 538 119 179 539 121 180 540 32 180 541 113 180 542 122 181 543 124 181 544 121 181 545 116 182 546 124 182 547 122 182 548 124 183 549 119 183 550 32 183 551 116 184 552 119 184 553 124 184 554 115 185 555 120 185 556 116 185 557 125 186 558 32 186 559 123 186 560 0 187 561 25 187 562 110 187 563 23 188 564 25 188 565 110 188 566 66 189 567 3 189 568 27 189 569 115 190 570 28 190 571 27 190 572 77 191 573 115 191 574 80 191 575 115 192 576 27 192 577 126 192 578 124 193 579 77 193 580 115 193 581 77 194 582 117 194 583 124 194 584 127 195 585 17 195 586 100 195 587 127 196 588 100 196 589 90 196 590 17 197 591 100 197 592 38 197 593 16 198 594 17 198 595 127 198 596 108 199 597 128 199 598 129 199 599 129 200 600 130 200 601 131 200 602 129 201 603 132 201 604 133 201 605 79 202 606 134 202 607 129 202 608 135 203 609 130 203 610 136 203 611 137 204 612 130 204 613 135 204 614 131 205 615 137 205 616 135 205 617 129 206 618 131 206 619 138 206 620 137 207 621 136 207 622 139 207 623 136 208 624 139 208 625 135 208 626 136 209 627 140 209 628 137 209 629 135 210 630 138 210 631 131 210 632 135 211 633 141 211 634 138 211 635 138 212 636 132 212 637 129 212 638 93 213 639 132 213 640 138 213 641 108 214 642 129 214 643 94 214 644 142 215 645 101 215 646 143 215 647 142 216 648 106 216 649 101 216 650 106 217 651 144 217 652 145 217 653 99 218 654 145 218 655 101 218 656 76 219 657 146 219 658 90 219 659 2 220 660 146 220 661 76 220 662 147 221 663 148 221 664 149 221 665 150 222 666 151 222 667 152 222 668 148 223 669 150 223 670 149 223 671 150 224 672 152 224 673 149 224 674 151 225 675 153 225 676 152 225 677 154 226 678 155 226 679 152 226 680 149 227 681 152 227 682 147 227 683 153 228 684 156 228 685 152 228 686 156 229 687 157 229 688 152 229 689 158 230 690 152 230 691 157 230 692 157 231 693 155 231 694 158 231 695 159 232 696 125 232 697 160 232 698 160 233 699 125 233 700 161 233 701 161 234 702 144 234 703 160 234 704 161 235 705 125 235 706 123 235 707 145 236 708 123 236 709 99 236 710 161 237 711 145 237 712 144 237 713 161 238 714 123 238 715 145 238 716 123 239 717 143 239 718 31 239 719 123 240 720 143 240 721 99 240 722 162 241 723 163 241 724 164 241 725 165 242 726 163 242 727 162 242 728 166 243 729 164 243 730 167 243 731 168 244 732 164 244 733 166 244 734 167 245 735 165 245 736 169 245 737 162 246 738 91 246 739 90 246 740 144 247 741 170 247 742 159 247 743 106 248 744 30 248 745 125 248 746 31 249 747 30 249 748 142 249 749 31 250 750 142 250 751 143 250 752 106 251 753 125 251 754 144 251 755 144 252 756 125 252 757 170 252 758 159 253 759 171 253 760 144 253 761 125 254 762 30 254 763 32 254 764 30 255 765 106 255 766 142 255 767 96 256 768 23 256 769 76 256 770 76 257 771 23 257 772 33 257 773 148 258 774 172 258 775 150 258 776 148 259 777 157 259 778 153 259 779 152 260 780 155 260 781 147 260 782 157 261 783 105 261 784 102 261 785 155 262 786 157 262 787 102 262 788 167 263 789 157 263 790 148 263 791 105 264 792 157 264 793 167 264 794 148 265 795 167 265 796 147 265 797 172 266 798 151 266 799 150 266 800 172 267 801 153 267 802 151 267 803 153 268 804 148 268 805 172 268 806 157 269 807 156 269 808 153 269 809 34 270 810 173 270 811 37 270 812 35 271 813 173 271 814 34 271 815 173 272 816 35 272 817 174 272 818 175 273 819 147 273 820 176 273 821 177 274 822 175 274 823 176 274 824 176 275 825 178 275 826 91 275 827 91 276 828 164 276 829 176 276 830 91 277 831 162 277 832 164 277 833 37 278 834 174 278 835 36 278 836 174 279 837 110 279 838 36 279 839 24 280 840 110 280 841 36 280 842 0 281 843 110 281 844 24 281 845 82 282 846 98 282 847 100 282 848 179 283 849 39 283 850 83 283 851 38 284 852 179 284 853 83 284 854 38 285 855 83 285 856 82 285 857 38 286 858 82 286 859 180 286 860 39 287 861 179 287 862 82 287 863 82 288 864 179 288 865 98 288 866 82 289 867 40 289 868 84 289 869 40 290 870 39 290 871 82 290 872 38 291 873 39 291 874 84 291 875 180 292 876 100 292 877 82 292 878 40 293 879 180 293 880 100 293 881 38 294 882 40 294 883 100 294 884 84 295 885 180 295 886 38 295 887 40 296 888 84 296 889 180 296 890 37 297 891 173 297 892 174 297 893 178 298 894 108 298 895 91 298 896 91 299 897 108 299 898 94 299 899 109 300 900 108 300 901 178 300 902 181 301 903 134 301 904 182 301 905 130 302 906 134 302 907 181 302 908 129 303 909 134 303 910 130 303 911 130 304 912 136 304 913 141 304 914 183 305 915 138 305 916 184 305 917 138 306 918 181 306 919 184 306 920 141 307 921 130 307 922 181 307 923 138 308 924 141 308 925 181 308 926 185 309 927 68 309 928 87 309 929 183 310 930 88 310 931 94 310 932 69 311 933 185 311 934 87 311 935 93 312 936 94 312 937 138 312 938 184 313 939 68 313 940 183 313 941 68 314 942 186 314 943 69 314 944 185 315 945 69 315 946 186 315 947 183 316 948 185 316 949 186 316 950 94 317 951 138 317 952 183 317 953 183 318 954 68 318 955 185 318 956 85 319 957 16 319 958 41 319 959 16 320 960 41 320 961 81 320 962 85 321 963 41 321 964 51 321 965 86 322 966 85 322 967 51 322 968 85 323 969 18 323 970 7 323 971 41 324 972 6 324 973 51 324 974 97 325 975 18 325 976 111 325 977 18 326 978 16 326 979 85 326 980 16 327 981 127 327 982 90 327 983 16 328 984 90 328 985 111 328 986 187 329 987 111 329 988 90 329 989 97 330 990 111 330 991 187 330 992 51 331 993 112 331 994 43 331 995 48 332 996 43 332 997 95 332 998 51 333 999 46 333 1000 86 333 1001 45 334 1002 46 334 1003 43 334 1004 46 335 1005 51 335 1006 43 335 1007 43 336 1008 112 336 1009 188 336 1010 81 337 1011 50 337 1012 6 337 1013 50 338 1014 16 338 1015 51 338 1016 81 339 1017 16 339 1018 50 339 1019 81 340 1020 42 340 1021 6 340 1022 16 341 1023 112 341 1024 51 341 1025 112 342 1026 16 342 1027 111 342 1028 163 343 1029 165 343 1030 189 343 1031 167 344 1032 189 344 1033 164 344 1034 167 345 1035 189 345 1036 190 345 1037 189 346 1038 165 346 1039 190 346 1040 164 347 1041 191 347 1042 189 347 1043 163 348 1044 191 348 1045 164 348 1046 163 349 1047 192 349 1048 191 349 1049 189 350 1050 163 350 1051 192 350 1052 191 351 1053 192 351 1054 193 351 1055 190 352 1056 165 352 1057 192 352 1058 165 353 1059 167 353 1060 193 353 1061 190 354 1062 192 354 1063 194 354 1064 193 355 1065 167 355 1066 190 355 1067 193 356 1068 190 356 1069 194 356 1070 165 357 1071 193 357 1072 192 357 1073 193 358 1074 194 358 1075 189 358 1076 189 359 1077 194 359 1078 192 359 1079 159 360 1080 170 360 1081 125 360 1082 115 361 1083 132 361 1084 134 361 1085 126 362 1086 159 362 1087 115 362 1088 126 363 1089 171 363 1090 159 363 1091 79 364 1092 115 364 1093 134 364 1094 79 365 1095 80 365 1096 115 365 1097 126 366 1098 77 366 1099 128 366 1100 126 367 1101 128 367 1102 171 367 1103 160 368 1104 159 368 1105 115 368 1106 160 369 1107 115 369 1108 133 369 1109 132 370 1110 115 370 1111 133 370 1112 171 371 1113 133 371 1114 160 371 1115 112 372 1116 46 372 1117 93 372 1118 66 373 1119 46 373 1120 112 373 1121 46 374 1122 48 374 1123 95 374 1124 134 375 1125 93 375 1126 182 375 1127 134 376 1128 132 376 1129 93 376 1130 93 377 1131 46 377 1132 95 377 1133 182 378 1134 95 378 1135 94 378 1136 182 379 1137 93 379 1138 95 379 1139 87 380 1140 186 380 1141 88 380 1142 181 381 1143 182 381 1144 184 381 1145 68 382 1146 184 382 1147 182 382 1148 182 383 1149 186 383 1150 68 383 1151 186 384 1152 67 384 1153 87 384 1154 186 385 1155 182 385 1156 88 385 1157 183 386 1158 186 386 1159 67 386 1160 183 387 1161 67 387 1162 88 387 1163 88 388 1164 69 388 1165 87 388 1166 94 389 1167 88 389 1168 182 389 1169 135 390 1170 139 390 1171 141 390 1172 136 391 1173 140 391 1174 141 391 1175 137 392 1176 130 392 1177 140 392 1178 139 393 1179 130 393 1180 140 393 1181 131 394 1182 137 394 1183 139 394 1184 140 395 1185 141 395 1186 139 395 1187 131 396 1188 130 396 1189 139 396 1190 90 397 1191 106 397 1192 162 397 1193 165 398 1194 107 398 1195 169 398 1196 165 399 1197 106 399 1198 107 399 1199 162 400 1200 106 400 1201 165 400 1202 107 401 1203 195 401 1204 169 401 1205 105 402 1206 169 402 1207 195 402 1208 101 403 1209 106 403 1210 100 403 1211 100 404 1212 106 404 1213 90 404 1214 110 405 1215 101 405 1216 100 405 1217 32 406 1218 123 406 1219 126 406 1220 123 407 1221 126 407 1222 3 407 1223 126 408 1224 3 408 1225 27 408 1226 174 409 1227 35 409 1228 145 409 1229 145 410 1230 101 410 1231 110 410 1232 145 411 1233 110 411 1234 174 411 1235 97 412 1236 93 412 1237 90 412 1238 188 413 1239 187 413 1240 90 413 1241 93 414 1242 187 414 1243 188 414 1244 97 415 1245 187 415 1246 93 415 1247 100 416 1248 97 416 1249 146 416 1250 146 417 1251 97 417 1252 90 417 1253 143 418 1254 38 418 1255 99 418 1256 99 419 1257 38 419 1258 97 419 1259 179 420 1260 143 420 1261 38 420 1262 17 421 1263 38 421 1264 97 421 1265 18 422 1266 97 422 1267 17 422 1268 23 423 1269 89 423 1270 92 423 1271 35 424 1272 23 424 1273 133 424 1274 94 425 1275 133 425 1276 23 425 1277 94 426 1278 23 426 1279 92 426 1280 75 427 1281 89 427 1282 23 427 1283 89 428 1284 74 428 1285 96 428 1286 74 429 1287 2 429 1288 76 429 1289 75 430 1290 74 430 1291 96 430 1292 23 431 1293 75 431 1294 96 431 1295 98 432 1296 179 432 1297 196 432 1298 143 433 1299 197 433 1300 71 433 1301 143 434 1302 71 434 1303 179 434 1304 198 435 1305 143 435 1306 196 435 1307 197 436 1308 143 436 1309 70 436 1310 197 437 1311 70 437 1312 199 437 1313 179 438 1314 71 438 1315 200 438 1316 200 439 1317 179 439 1318 196 439 1319 70 440 1320 143 440 1321 198 440 1322 197 441 1323 199 441 1324 198 441 1325 200 442 1326 197 442 1327 196 442 1328 196 443 1329 101 443 1330 98 443 1331 143 444 1332 101 444 1333 196 444 1334 197 445 1335 198 445 1336 196 445 1337 70 446 1338 201 446 1339 71 446 1340 71 447 1341 201 447 1342 200 447 1343 71 448 1344 72 448 1345 197 448 1346 72 449 1347 197 449 1348 200 449 1349 200 450 1350 199 450 1351 72 450 1352 201 451 1353 70 451 1354 198 451 1355 201 452 1356 198 452 1357 199 452 1358 201 453 1359 199 453 1360 200 453 1361 70 454 1362 199 454 1363 72 454 1364 106 455 1365 171 455 1366 108 455 1367 171 456 1368 128 456 1369 108 456 1370 133 457 1371 145 457 1372 35 457 1373 145 458 1374 106 458 1375 133 458 1376 171 459 1377 106 459 1378 133 459 1379 94 460 1380 129 460 1381 133 460 1382 146 461 1383 110 461 1384 100 461 1385 2 462 1386 110 462 1387 146 462 1388 176 463 1389 147 463 1390 178 463 1391 104 464 1392 109 464 1393 102 464 1394 109 465 1395 178 465 1396 102 465 1397 147 466 1398 102 466 1399 178 466 1400 93 467 1401 90 467 1402 92 467 1403 112 468 1404 93 468 1405 188 468 1406 188 469 1407 90 469 1408 92 469 1409 95 470 1410 188 470 1411 91 470 1412 91 471 1413 188 471 1414 92 471 1415 79 472 1416 129 472 1417 128 472 1418 128 473 1419 77 473 1420 79 473 1421 43 474 1422 188 474 1423 95 474 1424 107 475 1425 105 475 1426 195 475 1427 168 476 1428 177 476 1429 164 476 1430 166 477 1431 167 477 1432 175 477 1433 147 478 1434 175 478 1435 167 478 1436 167 479 1437 169 479 1438 105 479 1439 166 480 1440 175 480 1441 177 480 1442 168 481 1443 166 481 1444 177 481 1445 164 482 1446 177 482 1447 176 482 1448 202 483 1449 203 483 1450 204 483 1451 117 484 1452 113 484 1453 115 484 1454 113 485 1455 117 485 1456 77 485 1457 160 486 1458 171 486 1459 144 486 1460 155 487 1461 102 487 1462 147 487 1463 77 488 1464 126 488 1465 32 488 1466 158 489 1467 155 489 1468 154 489 1469 103 490 1470 109 490 1471 203 490 1472 109 491 1473 203 491 1474 104 491 1475 203 492 1476 205 492 1477 103 492 1478 205 493 1479 103 493 1480 104 493 1481 191 494 1482 193 494 1483 189 494 1484 205 495 1485 203 495 1486 202 495 1487 204 496 1488 203 496 1489 104 496 1490 158 497 1491 154 497 1492 152 497 1493 104 498 1494 205 498 1495 202 498 1496 104 499 1497 202 499 1498 204 499 1499</p>
        </polylist>
      </mesh>
    </geometry>
  </library_geometries>
  <library_visual_scenes>
    <visual_scene id="Scene" name="Scene">
      <node id="Table3" name="Table3" type="NODE">
        <scale sid="scale">1 1 1</scale>
        <translate sid="location">0.03570138834951462 0.36206160679611654 0.009238723300970883</translate>
        <rotate sid="rotationX">1 0 0 0</rotate>
        <rotate sid="rotationY">0 1 0 0</rotate>
        <rotate sid="rotationZ">0 0 1 0</rotate>
        <instance_geometry url="#Table3-mesh" name="Table3">
          <bind_material>
            <technique_common>
            </technique_common>
          </bind_material>
        </instance_geometry>
      </node>
    </visual_scene>
  </library_visual_scenes>
  <scene>
    <instance_visual_scene url="#Scene"/>
  </scene>
</COLLADA>
