<?xml version="1.0" encoding="utf-8"?>
<COLLADA xmlns="http://www.collada.org/2005/11/COLLADASchema" version="1.4.1" xmlns:xsi="http://www.w3.org/2001/XMLSchema-instance">
  <asset>
    <contributor>
      <author>Blockbench user</author>
      <authoring_tool>Blockbench</authoring_tool>
    </contributor>
    <created>2025-11-01T04:05:15.277Z</created>
    <modified>2025-11-01T04:05:15.277Z</modified>
    <unit name="meter" meter="1.0"/>
    <up_axis>Y_UP</up_axis>
  </asset>
  <library_effects>
  </library_effects>
  <library_images>
  </library_images>
  <library_materials>
  </library_materials>
  <library_geometries>
    <geometry id="Table_Level_0-mesh" name="Table_Level_0">
      <mesh>
        <source id="Table_Level_0-mesh-positions">
          <float_array id="Table_Level_0-mesh-positions-array" count="735">-0.10777 0.155508 -0.494584 0.013601 -0.222437 0.004882 -0.187047 -0.407328 -0.462663 -0.23354 -0.407389 -0.455491 -0.282734 -0.407511 -0.462327 -0.188283 -0.260065 -0.462388 -0.188801 -0.407694 -0.367814 -0.282765 -0.40748 -0.367936 -0.188466 -0.260294 -0.367845 -0.282765 -0.288477 -0.394426 -0.282765 -0.26362 -0.385911 -0.282704 -0.168802 -0.368028 -0.282765 -0.107124 -0.400346 -0.282734 -0.022459 -0.367936 -0.188466 -0.221582 -0.367875 -0.26476 -0.221598 -0.367936 -0.264912 -0.260294 -0.367906 -0.188618 -0.220972 -0.448869 -0.186146 -0.260248 -0.44893 -0.188633 0.090445 -0.445329 0.213207 -0.260294 -0.173005 0.21603 -0.220987 -0.448655 -0.264912 -0.221826 -0.173722 -0.264973 -0.260111 -0.170869 0.013882 -0.221887 -0.17209 0.216182 -0.221628 -0.367784 -0.265034 -0.221964 -0.169038 -0.265492 -0.260614 0.004956 -0.264973 -0.222483 0.047721 -0.219288 -0.222406 0.004941 0.014029 -0.221399 -0.166856 -0.111073 -0.222513 0.000487 0.014097 -0.222498 -0.000169 -0.140187 -0.260019 -0.166551 0.013604 -0.260111 -0.166337 0.012636 -0.260553 0.004253 0.013555 -0.25979 -0.172715 -0.265217 -0.260019 0.054557 0.293163 -0.26008 0.050837 -0.265217 -0.259897 0.159575 -0.264882 -0.221292 0.160674 -0.264607 -0.260569 0.377486 -0.265156 -0.221964 0.05709 0.014115 -0.221369 0.160415 -0.264729 -0.222406 0.377517 0.01395 -0.221323 0.0572 0.014035 -0.222666 0.047034 -0.282765 0.155111 -0.462297 -0.282734 0.123037 -0.381608 -0.282612 0.155386 -0.368028 -0.26479 0.15531 -0.367784 -0.264729 0.091391 -0.368058 -0.188496 0.087347 -0.367875 -0.202656 0.091208 -0.368363 -0.187809 0.154898 -0.462449 -0.313008 0.155127 -0.494767 -0.312459 0.155188 0.004905 -0.18903 0.090216 -0.383958 -0.129735 0.090246 -0.40941 -0.202626 0.15534 -0.383927 -0.202443 0.155371 0.004869 0.014036 0.090201 -0.383958 -0.107647 0.154318 -0.383927 0.014043 0.154654 -0.383744 -0.096928 0.154638 -0.383897 -0.096982 0.162726 -0.384721 -0.107335 0.162695 -0.381883 -0.264241 0.090826 0.00493 0.216182 -0.260202 -0.448899 0.216396 -0.405466 -0.463639 0.216121 -0.260263 -0.367814 0.292797 -0.260126 -0.367845 0.294292 -0.260141 -0.170457 0.216075 -0.405527 -0.367723 0.299022 -0.405496 -0.367601 0.299327 -0.405496 -0.463609 0.305065 -0.111715 -0.367845 0.300365 -0.347391 -0.460252 0.311138 0.155172 -0.463609 0.293041 -0.221582 -0.367723 0.293987 -0.221628 -0.170808 0.216304 0.086462 -0.367845 0.2942 -0.260599 0.004951 0.232692 -0.259943 -0.168977 0.293773 -0.222849 0.055415 0.229213 -0.222437 0.004897 0.184123 -0.224436 -0.167344 0.06525 -0.222406 -0.002498 0.215969 0.090536 -0.445359 0.216045 0.090155 -0.383866 0.129253 0.156241 -0.445359 0.130237 0.154974 -0.383958 0.120845 0.154989 -0.296189 0.216503 0.154974 -0.463609 0.133716 0.155645 -0.486344 0.216167 0.155081 -0.445542 0.31071 0.155371 -0.367662 0.340892 0.15505 -0.49495 0.340831 0.155066 0.004904 0.339366 0.208365 -0.424058 0.133205 0.155081 -0.494981 0.339031 0.246359 -0.494981 0.230571 0.091269 -0.368577 0.29243 0.091299 -0.367753 0.230373 0.155356 -0.383958 0.29243 0.155417 -0.368363 0.230556 0.090765 0.004908 0.230266 0.15534 0.00486 0.134021 0.155233 0.004945 -0.101773 0.154944 -0.445298 -0.096768 0.156668 -0.485337 -0.188221 0.155111 -0.445787 0.014125 0.154608 -0.445298 0.014015 0.155401 -0.485246 -0.095814 0.154822 -0.494828 -0.312336 0.247213 -0.494554 -0.281666 0.246237 -0.265336 -0.181706 0.247213 -0.494706 -0.312275 0.247061 -0.052903 -0.106434 0.246542 -0.494035 -0.106793 0.240164 -0.487229 -0.097271 0.23937 -0.486405 -0.096295 0.246481 -0.494706 0.12495 0.155371 -0.494706 -0.264149 0.155401 0.005152 -0.096798 0.246603 0.004957 0.014013 0.246786 -0.478624 0.014113 0.247488 -0.222871 0.01404 0.246878 -0.000291 0.014017 0.246756 0.003647 -0.312489 0.19982 -0.157899 -0.296528 0.245504 0.005043 -0.281849 0.246237 -0.235841 -0.168202 0.246481 0.489455 -0.312214 0.245627 0.503493 -0.09721 0.162726 0.004936 -0.107296 0.155264 0.004978 -0.10709 0.162634 0.004901 -0.106946 0.240011 0.073638 -0.096821 0.15531 0.004903 0.12395 0.155356 0.004851 -0.106305 0.24584 0.190825 -0.097729 0.238577 0.496993 -0.107235 0.240378 0.502913 0.124317 0.246664 -0.494889 0.131168 0.24053 -0.487931 0.124263 0.241232 -0.184846 0.134655 0.246908 -0.494828 0.133914 0.24111 0.004878 0.124301 0.162375 -0.384202 0.338726 0.245627 0.004967 0.134487 0.246847 0.004901 0.272045 0.246206 -0.214494 0.239803 0.246176 0.004982 0.133502 0.162588 -0.38289 0.124225 0.162649 0.031686 0.133647 0.162802 0.004866 0.124439 0.246451 0.004916 0.292278 0.155401 0.00493 -0.18845 -0.260538 0.377639 -0.188435 -0.260507 0.458175 0.216442 -0.260462 0.377395 -0.188374 -0.406107 0.377578 -0.188954 -0.406107 0.473525 -0.280446 -0.405863 0.37773 -0.280385 -0.118616 0.3777 -0.280018 -0.40629 0.473555 -0.280079 -0.144335 0.471999 -0.188862 0.154989 0.473403 -0.188466 -0.222345 0.377547 -0.188466 0.08605 0.377486 -0.264241 0.090368 0.37773 -0.18842 -0.222788 0.457747 -0.188389 0.090185 0.45552 -0.157353 -0.222391 0.371138 -0.134388 -0.22233 0.357894 0.014032 -0.222849 0.457839 -0.036728 -0.222376 0.37358 -0.085858 -0.222467 0.388503 -0.044236 -0.222406 0.379073 -0.202702 0.090384 0.37773 -0.279988 0.155096 0.473525 -0.280324 0.155233 0.377944 -0.202549 0.15534 0.393233 -0.188572 0.090216 0.394027 -0.092938 0.090185 0.396132 -0.071034 0.09017 0.455611 -0.033936 0.090216 0.411391 0.013989 0.090216 0.394149 -0.102398 0.156271 0.455459 0.128833 0.155783 0.455397 -0.096295 0.155737 0.501754 -0.106289 0.155264 0.490004 -0.188176 0.155249 0.455367 0.216136 0.090246 0.455581 0.240764 -0.222467 0.034985 0.29298 -0.221308 0.162337 0.292644 -0.26005 0.161162 0.216503 -0.260507 0.458266 0.216442 -0.222849 0.457961 0.162654 -0.222406 0.375197 0.216518 -0.222391 0.377578 0.216548 -0.137712 0.472213 0.292339 -0.222422 0.377517 0.292369 -0.260477 0.377486 0.216518 -0.407541 0.377578 0.216442 -0.407785 0.472121 0.314159 -0.407358 0.471633 0.301189 -0.11109 0.471969 0.311016 -0.242411 0.470809 0.313945 -0.40687 0.377425 0.310375 -0.121344 0.377486 0.292308 0.090536 0.377547 0.230678 0.090399 0.377669 0.231395 0.155066 0.393844 0.13422 0.155432 0.394088 0.123935 0.155356 0.394027 0.216533 0.087652 0.377639 0.292308 0.155264 0.377822 0.217067 0.090262 0.394179 0.216197 0.154928 0.472213 0.309642 0.155172 0.471755 0.34077 0.155432 0.503707 0.13528 0.156195 0.503463 -0.264241 0.155218 0.377791 -0.312428 0.154913 0.504287 -0.107312 0.155233 0.394027 -0.107052 0.16213 0.393325 -0.09731 0.162344 0.392104 -0.09702 0.155279 0.393966 -0.096699 0.246054 0.50273 0.01398 0.246267 0.495742 -0.108754 0.156256 0.50328 -0.255787 0.194998 0.503615 -0.107884 0.245566 0.494643 0.014041 0.158178 0.503707 0.122165 0.156714 0.503249 0.014004 0.246847 0.503585 0.123989 0.240225 0.496932 0.309642 0.155157 0.377822 0.339031 0.245566 0.504043 0.135066 0.241598 0.503402 0.134838 0.246634 0.49388 0.123798 0.246298 0.503585 0.216197 0.155218 0.455459</float_array>
          <technique_common>
            <accessor source="#Table_Level_0-mesh-positions-array" count="245" stride="3">
              <param name="X" type="float"/>
              <param name="Y" type="float"/>
              <param name="Z" type="float"/>
            </accessor>
          </technique_common>
        </source>
        <source id="Table_Level_0-mesh-normals">
          <float_array id="Table_Level_0-mesh-normals-array" count="1494">0.001926 -0.99999 0.003983 -0.003515 0.001838 -0.999992 0.003189 -0.999982 -0.005106 0.000719 -0.999992 -0.003845 0.999794 0.008357 0.018521 -0.002278 -0.999997 0.000328 0.999996 -0.002272 0.00193 -0.001298 0.000213 0.999999 -1 -0.000073 -0.000328 -0.999999 0.000391 -0.001143 -1 0 0 -0.999998 0.000256 0.002052 -0.999997 0.000211 0.002291 -0.999999 -0.000206 0.001494 -0.001976 -0.000629 0.999998 -0.0008 0.001471 0.999999 -0.002813 0.000786 0.999996 -0.004868 0.000387 0.999988 -0.000798 -0.000107 1 0.985839 0.06229 -0.155695 0.999676 -0.000241 0.02547 -0.069365 -0.997588 -0.002551 0.000271 -1 -0.00056 0 -1 0 0.000529 0.001586 -0.999999 0.000033 0.999972 0.007531 -0.999992 0.003927 -0.000778 -0.999999 0.00157 -0.000311 -0.000211 0.999999 0.001174 0.000211 0.999999 0.00134 0.000113 0.999999 0.001441 -0.999661 -0.000348 -0.026048 0.000046 0.999566 0.02945 -0.999995 -0.001457 -0.002956 -0.999912 0.013259 0.000313 0.000557 0.999997 0.002394 -0.00129 0.995684 -0.092798 0.001082 0.999997 0.002256 -0.002065 0.999985 0.005113 -0.000085 0.999978 0.006593 -0.000183 0.999927 -0.012094 0.000836 -0.999996 -0.002858 -0.000593 -0.999992 -0.003902 0.000213 -0.999997 -0.00259 -0.000528 -0.998736 -0.050262 0.001086 -0.999949 -0.01007 0.002899 0.815193 0.579182 -0.000379 -0.999999 0.000929 0.00025 -0.999928 0.011993 -0.00004 -0.999946 0.010394 -0.000102 -0.999999 0.001162 -0.999957 0.007493 0.005454 -0.999962 0.008678 -0.00001 -0.999959 0.008597 0.002826 -0.999802 0.002913 -0.01969 -0.999996 0.001427 0.002636 0.00027 0.999979 -0.006488 0.000281 0.999987 0.005137 -0.002297 0.999997 0.000449 -0.002225 0.991382 -0.130987 0.000519 0.99847 -0.055301 0.00066 0.999999 0.001514 0.001112 0.999995 0.002987 -0.000801 0.999985 0.005441 -1 -0.000055 -0.000302 -0.000729 0.000053 -1 -1 0 0 -1 0.00014 0.000591 -1 0.000038 0.000399 -0.999994 0.003094 0.001614 -0.999973 0.00069 0.00734 -0.013687 0.000527 0.999906 0.033659 -0.004252 0.999424 -0.002324 0.001439 0.999996 0.005288 0.144457 0.989497 -0.000647 0 1 -0.001601 -0.000145 -0.999999 0.999039 -0.001135 0.043813 -0.002241 -0.999996 0.001594 -0.003667 -0.999989 0.002923 0.008048 -0.999968 0.000113 0.999998 0.000097 -0.001876 0.999998 0.000068 -0.001766 0.975136 0.221494 0.007134 -0.001099 -0.999992 -0.003738 0.978888 0.204361 0.003954 0.030797 0.235716 0.971334 1 -0.000582 -0.000471 -0.000074 -0.999999 -0.001351 0.000941 -0.999974 -0.007083 0 -0.000484 1 -0.000005 -0.000477 1 -0.001495 -0.00332 0.999993 -0.00137 -0.047743 0.998859 -0.005809 0.101315 0.994837 0.257431 -0.238096 0.936504 -0.002956 -0.999994 -0.001511 0.000076 0.006222 -0.999981 -0.999674 -0.004032 0.025219 0.000114 -1 -0.000332 -0.999999 -0.001397 -0.000753 -0.041718 -0.999129 -0.000783 0.001787 -0.999998 -0.000132 0.00189 -0.999998 -0.00009 -0.999994 0.000315 -0.003346 -0.001471 0.000627 0.999999 0.000375 -1 -0.000635 -0.000362 -1 -0.000001 0.000401 0.001696 0.999998 -0.013375 0.001106 0.99991 0.000382 0.057672 -0.998336 0.999832 -0.018045 0.003176 0.045584 -0.00765 -0.998931 0.999787 -0.020564 0.001596 0.999764 -0.021406 0.003744 0.041431 -0.003425 0.999136 0.999951 -0.006306 -0.007574 0.999957 0.007875 -0.004802 -0.000926 1 0.000238 -0.000599 1 0.000704 -0.000794 0.001197 0.999999 0.000442 0.000198 1 -0.000157 -0.999997 -0.002592 0.000718 -0.999992 -0.004026 0.00016 -0.998736 -0.050267 -0.00237 -0.995166 0.098181 -0.001 -0.995794 0.09161 -0.003277 -0.999991 -0.002613 0.999968 0.007924 0.000545 0.994594 0.101625 0.021328 0.999864 -0.016487 0.000857 0.002157 0.999983 0.005399 0.000888 0.999987 0.004931 -0.01223 -0.550906 -0.834478 -0.003343 0.826052 0.563583 0.017506 0.995483 -0.093307 -0.000089 0.999981 0.006154 0 0.999991 0.004198 -0.001498 0.999977 0.006594 -0.002359 0.999921 -0.012307 -0.000191 -0.999936 0.011306 0.000112 0.999969 0.007926 -0.999998 -0.000216 0.001878 -0.99968 0.000072 -0.025304 -0.999868 0.000399 0.016256 -0.999999 -0.000376 0.001234 -0.000226 -0.999995 -0.003229 0.000224 -0.999981 -0.006196 -0.000074 -0.000098 -1 -0.000455 0.000817 1 0.001851 -0.00332 0.999993 0.002755 -0.999996 0.000466 -0.999592 0.000192 -0.028569 0 0.000054 -1 0.002091 -0.999309 -0.037107 -0.009681 -0.999937 0.005742 -0.999822 0.003014 -0.018612 -0.002143 -0.002829 -0.999994 0.999767 -0.021134 0.004504 -0.001925 -0.999996 0.002065 -0.010505 -0.999945 0.000031 -0.002822 -0.999995 0.001214 0.999595 0.02845 0.000121 -0.000159 -0.997874 0.065171 0.999773 0.020379 0.006195 0.000149 -0.000336 -1 -0.013172 0.188624 0.981961 -0.0287 0.233195 0.972006 -0.974601 0.214262 0.065145 -0.000005 0.001412 0.999999 -0.001175 -0.000526 0.999999 -0.002783 -0.000626 0.999996 -0.038294 0.009506 0.999221 0.000503 -0.999999 -0.001349 -0.999995 -0.0031 -0.000044 -0.99999 -0.004491 -0.000275 0.001112 -0.999999 -0.000041 0.001869 -0.999896 -0.014325 0.002886 -0.999926 -0.011794 0.127075 -0.991531 -0.026809 -0.002004 -0.999917 0.012733 0.999673 -0.006193 0.024798 0.005643 -0.007118 -0.999959 0.000001 0.000479 -1 -0.002896 -0.999054 -0.043379 -0.000562 0.002259 -0.999997 -0.011418 -0.999738 -0.019814 -0.011384 -0.981755 0.189807 0.000005 0.999991 0.004257 0.029268 0.999572 0.00034 -0.001164 0.002322 -0.999997 -0.999973 0.007297 0.000141 0.000893 -0.000611 -0.999999 0.008966 0.005899 -0.999942 0.999138 -0.014897 0.038742 0.638607 0.059289 -0.767246 0.085186 -0.012348 -0.996289 -0.992351 -0.007627 -0.12321 -0.995071 -0.00509 -0.099031 0.000549 0.001334 -0.999999 -0.004268 -0.999991 0.000251 0.00441 -0.99999 -0.000178 -0.990873 0.134797 -0.00103 -0.002729 0.999996 -0.000247 -0.013605 0.999904 -0.002739 -0.002351 0.999993 0.00274 -0.001014 0.99952 0.030959 -0.999998 -0.000962 0.001719 -0.999998 0.001568 0.001333 -0.999994 0.003334 0.001098 -0.999996 0.00256 0.000886 0.07374 0.997255 0.006757 -0.05551 0.998458 -0.000344 -0.002065 0.999998 -0.000013 -0.007811 0.999969 0.000851 0.008908 0.99996 0.000622 -0.015526 0.999877 0.002096 -0.005972 0.999982 -0.000435 0.089072 0.996022 0.002557 -0.999998 0.002075 0.000115 -0.999998 0.00142 0.001311 0.002995 -0.999996 0.000002 -0.999977 -0.006736 -0.000585 0.999314 -0.037021 -0.000812 -0.01076 -0.999939 0.002442 0.009312 -0.999957 -0.000164 0.999609 -0.027947 -0.000638 0.998435 -0.055925 0.000257 0.083072 0.996543 0.000295 -0.998627 -0.052384 0.000365 0.000209 -0.999998 0.001728 -0.001125 -0.999999 0.00008 0.994632 -0.103478 -0.000293 0.115286 0.993332 0.000855 0.185718 0.982603 -0.000715 0.992197 -0.124681 0.000775 0.015286 0.999883 0.001022 -0.995795 0.091607 -0.00039 -0.001962 -0.999801 -0.019841 0.002468 -0.999481 0.032109 0.01419 -0.999765 0.016389 0.015745 -0.999744 0.016253 -0.013317 -0.999826 0.013089 -0.00084 0.999913 -0.013199 0.000701 0.999996 -0.002745 -0.000828 -0.00201 -0.999998 0.714122 0.003548 -0.700012 0.659465 0.751618 0.013283 0.690101 0.007185 -0.723678 -0.878356 -0.035278 -0.476704 -0.998192 0.015665 0.058034 -0.000744 0.001678 -0.999998 0.040147 0.999193 -0.0014 -0.87545 0.483289 0.004309 0.779838 0.625867 0.011995 0.008934 -0.999959 0.001127 0.002155 -0.999997 0.001197 0.99995 0.009983 0.000625 0.008932 0.999957 0.002679 0.003857 0.999991 0.001466 0.00637 0.999979 0.001073 0.00555 0.999984 0.000952 0.99973 0.023238 -0.000527 0.000142 -0.999998 0.001766 0.003815 -0.999993 0.000629 -0.91947 0.393065 0.008685 0.002686 0.999996 0.000123 0.023049 -0.999734 0.000663 0.999261 -0.038445 0.000208 0.017788 -0.999842 0.000545 -0.998782 -0.049348 0.000401 -0.995049 0.099385 -0.000322 0.014252 0.999895 0.002745 0.003848 0.999993 0.000425 0.999701 -0.024461 -0.000254 0.002405 0.999517 0.030979 -0.002493 -0.999997 -0.000617 -0.0069 -0.999976 -0.000046 1 0.000004 0.000407 0.000413 -0.999995 -0.003085 0.000188 -1 0.000385 1 0.000522 -0.000186 0.002009 0.00042 -0.999998 0.999977 -0.002927 0.006045 -0.001655 -0.001499 -0.999998 -0.00265 -0.999996 -0.000016 -0.014474 -0.000101 -0.999895 0.002008 -0.999988 -0.004465 -0.99999 -0.000206 0.004466 0.000329 0.000217 1 -0.999995 -0.003197 0.000689 -0.999995 0.000213 0.003303 -0.00644 0.000792 -0.999979 0.000392 0.001822 -0.999998 -0.001888 -0.000198 -0.999998 -0.003198 0.000391 -0.999995 1 0 -0.000574 1 -0.000106 -0.000981 0.999659 0.000087 0.026126 0.999559 -0.000061 0.029684 0.999478 -0.000157 0.032306 0.002616 0.999981 0.005522 0.003776 0.999931 0.011153 -0.000016 0.99999 0.004578 -0.000799 0.999999 -0.001436 0.000169 0.999988 0.004993 0.000299 0.999989 0.004749 -0.000451 0.011347 0.999936 -0.000277 0.999989 0.004658 0.001058 0.999987 0.004976 -0.000333 0.999987 0.005003 -0.007136 0.99985 0.01579 0.000077 0.999985 0.005567 -0.000164 0.999983 0.005745 -0.000331 0.999987 0.00501 0.00026 -0.999999 -0.001104 -0.001244 -0.999998 -0.001229 -0.999994 0.000287 0.003323 -0.998819 0.000056 0.04858 0.001339 0.000053 0.999999 -0.999994 0.00022 0.003516 -0.009703 0.000893 -0.999953 -0.000015 0.056162 -0.998422 0.053888 0.231691 -0.971296 0.976798 0.209076 -0.046398 0.022003 -0.007467 -0.99973 0.999305 0.03716 -0.002955 -0.000321 -1 -0.000134 -0.000127 -1 -0.000504 0.000653 -1 -0.000493 0.000306 -1 0.00085 -0.000536 -0.999999 -0.00149 -0.000775 0.001932 0.999998 0.000273 0.002429 0.999997 -0.002113 -0.999934 -0.011255 0.071856 -0.997194 -0.020975 0.011939 -0.999542 -0.027792 0.000104 0.002946 0.999996 0.000265 -1 -0.000382 0 0.999985 0.005433 -0.000808 0.999999 0.001307 0.008006 0.999966 -0.002077 0.000102 0.99983 0.01843 0.004571 0.991381 -0.13093 0.005361 0.999882 -0.014371 -0.000222 1 0.000446 0.999821 -0.017324 0.007665 0.99995 -0.008815 0.004706 -0.000275 -1 0.000271 0 -1 -0.000556 -0.000225 0.008099 0.999967 -0.000603 0.012162 0.999926 -0.000003 0.999986 0.005355 -0.000214 0.999988 0.004976 -0.00053 0.999984 0.005697 -0.000507 0.999986 0.005179 -0.999999 0.001402 -0.000937 0.000412 0.999991 0.004322 -0.000254 0.999987 0.005176 0.999957 -0.008761 0.002933 0.999999 0.000787 0.001273 -0.000195 -0.999998 -0.001974 -0.000266 -0.999996 -0.002846 0.000187 -0.999998 -0.00184 -1 0.000339 -0.000803 -1 -0.000516 0.000754 0.004357 -0.999987 -0.002577 0.004998 -0.000915 0.999987 0.240633 0.009434 0.97057 0.00299 -0.000342 0.999995 -1 0.000393 -0.00023 -0.999866 -0.001487 0.016322 0.006879 -0.999963 -0.005195 -0.001572 0.000185 -0.999999 0.001198 -0.001244 -0.999999 0.999816 0.01904 -0.002173 0.999878 0.0125 0.009348 -0.001505 0.000195 -0.999999 -0.006256 0.00081 -0.99998 -0.000805 -0.000163 -1 0.002221 -0.999997 -0.000983 -0.99999 -0.004491 0.000323 -0.999942 0.010359 0.00291 -0.003768 -0.999993 -0.000693 0.001112 -0.999999 0.000511 -0.998782 -0.049346 0.000536 0.0075 -0.999792 -0.018942 -0.041105 -0.998952 -0.020139 0.999284 -0.037822 0.000039 0.000208 -1 0 0.002467 -0.999996 -0.001023 0.999999 0.001411 0.000165 -0.001221 0.000184 -0.999999 0.046398 0.004244 -0.998914 -0.001192 0.000197 -0.999999 -1 0.000048 0.000274 0.000227 -1 -0.000257 -0.957677 0.287483 -0.014446 -0.999985 -0.002174 -0.005021 -0.999965 -0.001199 0.008332 0.004901 0.000006 0.999988 0.002638 -0.999981 0.005567 -0.003748 -0.999518 0.03082 0.999991 0.003462 -0.002378 0.090054 -0.002058 0.995935 0.002656 0.000719 0.999996 -0.002027 0.021354 -0.99977 -0.045112 0.242876 -0.969008 -0.976419 0.215871 -0.00254 -0.002528 -0.00461 -0.999986 0.005886 0.006086 -0.999964 -0.999999 0.001425 0.000002 -1 0 -0.000247 -0.000937 -0.999999 -0.000491 0.009881 -0.999951 -0.000022 0.004412 -0.99999 -0.000551 0.999993 -0.003655 0.000058 0.999997 -0.002421 0.000273 -0.001123 -0.999999 -0.00008 -0.001124 -0.999999 -0.00008 0.99961 -0.02794 0.000039 0.99929 -0.037686 -0.000147 0.021799 -0.999762 -0.001299 0.009315 -0.999956 -0.000984 -0.998627 -0.052381 -0.00031 -0.999153 -0.041148 -0.000514 0.000349 -1 -0.00008 -0.990681 0.136206 0.000347 -0.001368 0.999998 0.001103 -0.001862 0.999998 0.000994 -0.009512 0.000941 -0.999954 -0.999997 0.00236 0.000063 0.006949 -0.997099 0.075795 0.004879 0.00987 0.999939 0.005679 0.008739 0.999946 0.004124 0.007006 0.999967 0.00294 0.00431 0.999986 0.023207 0.847702 0.529965 0.005244 0.99344 0.114237 0.004268 -0.99999 -0.001448 -0.001184 -0.999973 -0.007197 0.999274 -0.003182 0.037962 -0.001101 0.002355 0.999997 0.006181 -0.99988 -0.014179 0.00212 -0.99998 0.006021 -0.005773 -0.033618 -0.999418 0.008299 -0.030511 -0.9995 -0.018521 -0.034411 -0.999236 0.000277 -0.00234 -0.999997 -0.005445 -0.101056 -0.994866 -0.114592 -0.257567 -0.959441 0.015084 0.999886 0.00098 0.991183 0.132395 0.005271 -0.033165 -0.99711 0.068348 0.123785 0.059072 0.990549 0.527829 -0.005826 0.849331 -0.98276 -0.006393 0.184773 -0.017456 -0.010882 0.999788 -0.003486 -0.523916 0.851763 0.004462 0.016739 0.99985 -0.00763 -0.012884 0.999888 -0.006574 0.997257 -0.073728 0.998949 -0.045824 0.000334 -0.016264 0.999867 0.00147 -0.0069 -0.999976 -0.000367 1 0 -0.00008 -0.006173 -0.999981 -0.000272 -0.001008 -0.999999 0.00016 0.99973 0.023238 -0.000608 0.00555 0.999985 0.000119 0.000148 -0.002123 -0.999998 0.002751 0.999996 0.000994 -0.122613 0.992454 -0.000688 -0.999165 -0.040795 0.002349 -0.504301 -0.000647 0.863528 -0.001185 0.000711 0.999999 -0.995049 0.09938 0.000758 0.006371 0.99998 0.000431 0.999548 0.030019 0.001294 -0.000304 1 0.000306 0.004987 0.997263 -0.073764 -0.000019 -0.00375 0.999993 0.998798 -0.018377 0.045449 -0.013273 0.075709 0.997042 -0.039765 -0.999112 0.013897 -0.011738 -0.99988 0.010145 0.004334 -0.999789 0.020056 -0.000698 0.001878 0.999998 -1 0.000939 0.000016 -0.006454 -0.999829 -0.017306 -0.018661 0.883643 0.467789 0.005221 0.999986 0.000184 0.000008 0.001215 -0.999999 0.999996 0.002651 0 -0.003069 -0.003787 0.999988 0.999814 0.01929 0.000108 0.007598 -0.999971 0.000735 -0.138935 -0.078889 0.987154</float_array>
          <technique_common>
            <accessor source="#Table_Level_0-mesh-normals-array" count="498" stride="3">
              <param name="X" type="float"/>
              <param name="Y" type="float"/>
              <param name="Z" type="float"/>
            </accessor>
          </technique_common>
        </source>
        <source id="Table_Level_0-mesh-map-0">
          <float_array id="Table_Level_0-mesh-map-0-array" count="2988">0.433594 0.968018 0.44458 0.970947 0.458008 0.980469 0.433594 0.968018 0.458008 0.980469 0.375244 0.987549 0.458008 0.980469 0.44458 0.970947 0.437744 0.947754 0.437744 0.947754 0.44458 0.970947 0.433594 0.968018 0.437744 0.947754 0.433594 0.968018 0.375244 0.987549 0.458008 0.980469 0.437744 0.947754 0.46582 0.931152 0.437744 0.947754 0.375244 0.987549 0.373779 0.927734 0.437744 0.947754 0.373779 0.927734 0.46582 0.931152 0.484375 0.957764 0.498291 0.916992 0.516846 0.947754 0.484375 0.957764 0.516846 0.947754 0.522949 0.948242 0.522949 0.948242 0.516846 0.947754 0.498291 0.916992 0.522949 0.948242 0.498291 0.916992 0.550781 0.943359 0.522949 0.948242 0.550781 0.943359 0.568115 0.957764 0.568115 0.957764 0.550781 0.943359 0.602295 0.960938 0.602295 0.960938 0.550781 0.943359 0.566895 0.915771 0.566895 0.915771 0.550781 0.943359 0.548096 0.931152 0.548096 0.931152 0.550781 0.943359 0.541504 0.925537 0.541504 0.925537 0.550781 0.943359 0.498291 0.916992 0.541504 0.925537 0.498291 0.916992 0.533203 0.900635 0.297607 0.366699 0.286377 0.372314 0.287598 0.369141 0.297607 0.366699 0.287598 0.369141 0.369385 0.305908 0.287598 0.369141 0.286377 0.372314 0.265381 0.378418 0.265381 0.378418 0.286377 0.372314 0.233154 0.505859 0.265381 0.378418 0.233154 0.505859 0.24707 0.35791 0.509277 0.875977 0.63623 0.884033 0.509277 0.888428 0.63623 0.884033 0.509277 0.875977 0.510986 0.850586 0.568848 0.830322 0.556641 0.831299 0.561523 0.769531 0.561523 0.769531 0.556641 0.831299 0.550293 0.767334 0.568848 0.830322 0.561523 0.769531 0.592285 0.826172 0.592285 0.826172 0.561523 0.769531 0.650879 0.761475 0.592285 0.826172 0.650879 0.761475 0.7146 0.82666 0.750488 0.231689 0.756104 0.24585 0.75415 0.245605 0.75415 0.245605 0.756104 0.24585 0.758789 0.355469 0.756104 0.24585 0.750488 0.231689 0.818359 0.217285 0.756104 0.24585 0.818359 0.217285 0.841064 0.236572 0.756104 0.24585 0.841064 0.236572 0.829102 0.259033 0.758789 0.355469 0.756104 0.24585 0.76123 0.35498 0.756104 0.24585 0.829102 0.259033 0.823975 0.303223 0.756104 0.24585 0.823975 0.303223 0.76123 0.35498 0.76123 0.35498 0.823975 0.303223 0.832275 0.353271 0.832275 0.353271 0.823975 0.303223 0.83374 0.353027 0.068115 0.054932 0.133789 0.079834 0.130859 0.120361 0.068115 0.054932 0.130859 0.120361 0.127441 0.171143 0.068115 0.054932 0.127441 0.171143 0.057861 0.168213 0.127441 0.171143 0.130859 0.120361 0.131592 0.171631 0.131592 0.171631 0.130859 0.120361 0.133789 0.079834 0.131592 0.171631 0.133789 0.079834 0.171875 0.230713 0.171875 0.230713 0.133789 0.079834 0.240967 0.050293 0.416992 0.575684 0.329102 0.600586 0.417725 0.55957 0.417725 0.55957 0.329102 0.600586 0.247559 0.610107 0.417725 0.55957 0.247559 0.610107 0.416748 0.526855 0.416992 0.575684 0.417725 0.55957 0.436523 0.561279 0.417725 0.55957 0.416748 0.526855 0.427734 0.526611 0.427734 0.526611 0.416748 0.526855 0.425049 0.458496 0.436523 0.561279 0.417725 0.55957 0.438721 0.558838 0.438721 0.558838 0.417725 0.55957 0.427734 0.526611 0.438721 0.558838 0.427734 0.526611 0.518799 0.557129 0.518799 0.557129 0.427734 0.526611 0.460693 0.482422 0.438721 0.558838 0.518799 0.557129 0.52002 0.589844 0.438721 0.558838 0.52002 0.589844 0.519531 0.592285 0.438721 0.558838 0.519531 0.592285 0.436523 0.561279 0.436523 0.561279 0.519531 0.592285 0.480713 0.60083 0.436523 0.561279 0.480713 0.60083 0.444336 0.582031 0.480713 0.60083 0.519531 0.592285 0.521484 0.603271 0.594482 0.049805 0.42041 0.081543 0.460693 0.049805 0.42041 0.081543 0.594482 0.049805 0.471436 0.102539 0.099609 0.782227 0.169922 0.888184 0.137207 0.856689 0.099609 0.782227 0.137207 0.856689 0.093994 0.854004 0.099609 0.782227 0.093994 0.854004 0.087158 0.794434 0.099609 0.782227 0.087158 0.794434 0.08252 0.78125 0.08252 0.78125 0.087158 0.794434 0.093994 0.854004 0.08252 0.78125 0.093994 0.854004 0.078369 0.782471 0.078369 0.782471 0.093994 0.854004 0.081787 0.809814 0.081787 0.809814 0.093994 0.854004 0.063721 0.813232 0.081787 0.809814 0.063721 0.813232 0.066406 0.810547 0.063721 0.813232 0.093994 0.854004 0.022217 0.89209 0.559326 0.477539 0.41626 0.446533 0.437256 0.422852 0.559326 0.477539 0.437256 0.422852 0.459961 0.422852 0.437256 0.422852 0.41626 0.446533 0.407959 0.434326 0.407959 0.434326 0.41626 0.446533 0.381592 0.457764 0.407959 0.434326 0.381592 0.457764 0.254395 0.485596 0.93335 0.3125 0.93335 0.212402 0.958008 0.306396 0.592529 0.38208 0.499512 0.305908 0.600586 0.354248 0.592529 0.38208 0.600586 0.354248 0.595215 0.376221 0.595215 0.376221 0.600586 0.354248 0.626953 0.348633 0.592529 0.38208 0.595215 0.376221 0.612061 0.384033 0.592529 0.38208 0.612061 0.384033 0.593506 0.387207 0.593506 0.387207 0.612061 0.384033 0.643066 0.517822 0.931885 0.969238 0.874268 0.982666 0.950195 0.950195 0.874268 0.982666 0.931885 0.969238 0.959717 0.973389 0.950195 0.950195 0.874268 0.982666 0.909424 0.939209 0.950195 0.950195 0.909424 0.939209 0.944824 0.923828 0.909424 0.939209 0.874268 0.982666 0.864014 0.958496 0.909424 0.939209 0.864014 0.958496 0.905518 0.940918 0.909424 0.939209 0.905518 0.940918 0.904297 0.937744 0.909424 0.939209 0.904297 0.937744 0.908203 0.936035 0.660156 0.835205 0.661865 0.856201 0.53418 0.845703 0.473389 0.141113 0.592285 0.063477 0.600098 0.070068 0.600098 0.070068 0.592285 0.063477 0.629639 0.054199 0.473389 0.141113 0.600098 0.070068 0.646484 0.132324 0.600098 0.070068 0.629639 0.054199 0.613281 0.083008 0.600098 0.070068 0.613281 0.083008 0.646484 0.132324 0.646484 0.132324 0.613281 0.083008 0.65918 0.082275 0.646484 0.132324 0.65918 0.082275 0.664062 0.146973 0.843994 0.460449 0.873291 0.413818 0.848145 0.495605 0.873291 0.413818 0.843994 0.460449 0.827148 0.455078 0.827148 0.455078 0.843994 0.460449 0.848145 0.495605 0.827148 0.455078 0.848145 0.495605 0.821289 0.489014 0.873291 0.413818 0.827148 0.455078 0.824463 0.411133 0.824463 0.411133 0.827148 0.455078 0.813965 0.364014 0.771729 0.053223 0.748535 0.074219 0.74707 0.057373 0.74707 0.057373 0.748535 0.074219 0.719238 0.059814 0.748535 0.074219 0.771729 0.053223 0.77002 0.216797 0.719238 0.059814 0.748535 0.074219 0.728027 0.145508 0.728027 0.145508 0.748535 0.074219 0.77002 0.216797 0.671143 0.743652 0.672607 0.757324 0.639404 0.738525 0.672607 0.757324 0.671143 0.743652 0.734619 0.757568 0.734619 0.757568 0.671143 0.743652 0.728516 0.74707 0.728516 0.74707 0.671143 0.743652 0.733643 0.663574 0.733643 0.663574 0.671143 0.743652 0.667725 0.713135 0.667725 0.713135 0.671143 0.743652 0.639404 0.738525 0.667725 0.713135 0.639404 0.738525 0.569092 0.732666 0.247314 0.297852 0.270508 0.166748 0.425537 0.272949 0.425537 0.272949 0.270508 0.166748 0.4021 0.160889 0.4021 0.160889 0.270508 0.166748 0.271729 0.158447 0.4021 0.160889 0.271729 0.158447 0.392822 0.15625 0.4021 0.160889 0.392822 0.15625 0.438232 0.165771 0.4021 0.160889 0.438232 0.165771 0.425537 0.272949 0.425537 0.272949 0.438232 0.165771 0.467773 0.16748 0.425537 0.272949 0.467773 0.16748 0.425049 0.298828 0.425049 0.298828 0.467773 0.16748 0.462158 0.307617 0.462158 0.307617 0.467773 0.16748 0.518555 0.286133 0.518555 0.286133 0.467773 0.16748 0.649414 0.160156 0.649414 0.160156 0.467773 0.16748 0.544922 0.161865 0.544922 0.161865 0.467773 0.16748 0.648682 0.149414 0.544922 0.161865 0.648682 0.149414 0.649414 0.160156 0.518555 0.286133 0.649414 0.160156 0.622559 0.280518 0.518555 0.286133 0.622559 0.280518 0.655029 0.286133 0.622559 0.280518 0.649414 0.160156 0.653564 0.280762 0.622559 0.280518 0.653564 0.280762 0.655029 0.286133 0.972656 0.906006 0.952637 0.844238 0.962646 0.841064 0.835938 0.836182 0.709229 0.890381 0.802734 0.826172 0.835938 0.836182 0.802734 0.826172 0.834473 0.751953 0.835938 0.836182 0.834473 0.751953 0.844482 0.888672 0.886719 0.591064 0.88501 0.587402 0.963135 0.574951 0.963135 0.574951 0.88501 0.587402 0.881592 0.572266 0.888428 0.801025 0.899902 0.927246 0.88501 0.866455 0.899902 0.927246 0.888428 0.801025 0.918457 0.922607 0.918457 0.922607 0.888428 0.801025 0.931885 0.891602 0.88501 0.866455 0.899902 0.927246 0.874268 0.90625 0.88501 0.866455 0.874268 0.90625 0.865723 0.871094 0.865723 0.871094 0.874268 0.90625 0.847168 0.909668 0.158203 0.451904 0.130371 0.627441 0.151123 0.468506 0.130371 0.627441 0.158203 0.451904 0.175293 0.465088 0.175293 0.465088 0.158203 0.451904 0.158447 0.429443 0.158447 0.429443 0.158203 0.451904 0.151611 0.443848 0.151611 0.443848 0.158203 0.451904 0.151123 0.468506 0.151611 0.443848 0.151123 0.468506 0.129639 0.436279 0.696289 0.05249 0.688232 0.13916 0.669434 0.054932 0.696289 0.05249 0.669434 0.054932 0.670654 0.045166 0.696289 0.05249 0.670654 0.045166 0.788574 0.025146 0.670654 0.045166 0.669434 0.054932 0.619141 0.040039 0.788574 0.025146 0.670654 0.045166 0.681152 0.028076 0.670654 0.045166 0.619141 0.040039 0.616699 0.036865 0.681152 0.028076 0.670654 0.045166 0.661377 0.028809 0.661377 0.028809 0.670654 0.045166 0.616699 0.036865 0.939209 0.055664 0.938477 0.05957 0.938965 0.039062 0.938477 0.05957 0.939209 0.055664 0.950439 0.069336 0.938477 0.05957 0.950439 0.069336 0.9375 0.064209 0.9375 0.064209 0.950439 0.069336 0.952637 0.091553 0.938965 0.039062 0.938477 0.05957 0.884766 0.041748 0.938965 0.039062 0.884766 0.041748 0.949951 0.024414 0.938965 0.039062 0.949951 0.024414 0.952881 0.02417 0.860596 0.199219 0.837646 0.079346 0.857666 0.075928 0.837646 0.079346 0.860596 0.199219 0.816162 0.078369 0.816162 0.078369 0.860596 0.199219 0.839844 0.203125 0.816162 0.078369 0.839844 0.203125 0.808838 0.208984 0.005859 0.691406 0.021484 0.726562 0.000732 0.766602 0.021484 0.726562 0.005859 0.691406 0.023193 0.687988 0.023193 0.687988 0.005859 0.691406 0.006104 0.686523 0.021484 0.726562 0.023193 0.687988 0.027588 0.719482 0.021484 0.726562 0.027588 0.719482 0.05127 0.718506 0.05127 0.718506 0.027588 0.719482 0.023193 0.687988 0.05127 0.718506 0.023193 0.687988 0.020752 0.644775 0.020752 0.644775 0.023193 0.687988 0.006104 0.686523 0.05127 0.718506 0.020752 0.644775 0.026367 0.603027 0.020752 0.644775 0.006104 0.686523 0.000488 0.646973 0.000488 0.646973 0.006104 0.686523 0.003418 0.685547 0.057373 0.640869 0.071045 0.563721 0.101562 0.642578 0.071045 0.563721 0.057373 0.640869 0.063477 0.491455 0.057373 0.640869 0.101562 0.642578 0.055908 0.671875 0.057373 0.640869 0.055908 0.671875 0.063477 0.491455 0.077393 0.250244 0.040283 0.280273 0.037842 0.198486 0.040283 0.280273 0.077393 0.250244 0.077148 0.281982 0.040283 0.280273 0.077148 0.281982 0.074463 0.285156 0.040283 0.280273 0.074463 0.285156 0.040527 0.286133 0.040527 0.286133 0.074463 0.285156 0.074219 0.289062 0.040527 0.286133 0.074219 0.289062 0.075928 0.292969 0.040527 0.286133 0.075928 0.292969 0.038574 0.289795 0.038574 0.289795 0.075928 0.292969 0.032227 0.377197 0.975586 0.165039 0.955566 0.103516 0.978516 0.164062 0.978516 0.164062 0.955566 0.103516 0.963623 0.10083 0.768311 0.813232 0.765869 0.811035 0.745117 0.663818 0.768311 0.813232 0.745117 0.663818 0.800781 0.803467 0.947266 0.864014 0.960938 0.90625 0.916504 0.83252 0.947266 0.864014 0.916504 0.83252 0.935303 0.827393 0.935303 0.827393 0.916504 0.83252 0.935059 0.82666 0.401367 0.858398 0.397461 0.836914 0.525635 0.836914 0.142578 0.981934 0.064941 0.97168 0.123779 0.975098 0.123779 0.975098 0.064941 0.97168 0.151367 0.965332 0.123779 0.975098 0.151367 0.965332 0.142578 0.981934 0.054688 0.497803 0.051025 0.507568 0.05249 0.460449 0.05249 0.460449 0.051025 0.507568 0.052002 0.465576 0.05249 0.460449 0.052002 0.465576 0.021973 0.589355 0.05249 0.460449 0.021973 0.589355 0.038574 0.419434 0.038574 0.419434 0.021973 0.589355 0.025391 0.418457 0.84375 0.385986 0.841553 0.259521 0.851318 0.299805 0.84375 0.385986 0.851318 0.299805 0.868652 0.384033 0.868652 0.384033 0.851318 0.299805 0.852295 0.289551 0.868652 0.384033 0.852295 0.289551 0.869629 0.296875 0 0.009521 0.065674 0.009521 0.001953 0.020508 0.724854 0.948486 0.606934 0.947754 0.723877 0.945312 0.606934 0.947754 0.724854 0.948486 0.724609 0.950928 0.703125 0.928711 0.701904 0.930908 0.588867 0.900635 0.703125 0.928711 0.588867 0.900635 0.709961 0.900635 0.634766 0.002197 0.701904 0.000488 0.701904 0.002197 0.634766 0.002197 0.701904 0.002197 0.701904 0.003418 0.483887 0.689941 0.313965 0.68457 0.312012 0.682617 0.313965 0.68457 0.483887 0.689941 0.314209 0.6875 0.94873 0.830322 0.947266 0.830322 0.948975 0.762939 0.94873 0.830322 0.948975 0.762939 0.986816 0.830566 0.955078 0.983154 0.955078 0.999756 0.887695 0.999756 0.628906 0.959717 0.747559 0.959717 0.727295 0.960693 0.116211 0.577393 0.112549 0.480713 0.112549 0.407715 0.112549 0.407715 0.112549 0.480713 0.11084 0.406738 0.11084 0.406738 0.112549 0.480713 0.111084 0.460693 0.440918 0.050293 0.38916 0.059326 0.27124 0.055908 0.009766 0.314697 0.009766 0.400146 0.00708 0.229492 0.307861 0.965576 0.311768 0.983398 0.281982 0.987305 0.281982 0.987305 0.311768 0.983398 0.343506 0.987549 0.307861 0.965576 0.281982 0.987305 0.275879 0.973633 0.275879 0.973633 0.281982 0.987305 0.278564 0.986084 0.275879 0.973633 0.278564 0.986084 0.25415 0.982666 0.888184 0.624756 0.891602 0.65918 0.874756 0.592773 0.891602 0.65918 0.888184 0.624756 0.964844 0.60498 0.559326 0.61499 0.559326 0.638916 0.468506 0.671875 0.559326 0.638916 0.559326 0.61499 0.564209 0.61499 0.564209 0.61499 0.559326 0.61499 0.568848 0.478516 0.559326 0.638916 0.564209 0.61499 0.564697 0.638672 0.564697 0.638672 0.564209 0.61499 0.568359 0.616211 0.564697 0.638672 0.568359 0.616211 0.568359 0.640625 0.568359 0.640625 0.568359 0.616211 0.6521 0.673828 0.811523 0.411621 0.811523 0.510498 0.806885 0.57251 0.79834 0.569336 0.796143 0.567139 0.800537 0.414551 0.95166 0.454346 0.954102 0.454346 0.950195 0.552734 0.821533 0.688965 0.844238 0.593262 0.854004 0.566162 0.844238 0.593262 0.821533 0.688965 0.817139 0.557129 0.86499 0.038086 0.875 0.020508 0.87085 0.146973 0.679443 0.258057 0.719971 0.332275 0.736328 0.425049 0.736328 0.425049 0.719971 0.332275 0.74585 0.261963 0.719971 0.332275 0.679443 0.258057 0.713623 0.26001 0.719971 0.332275 0.713623 0.26001 0.74585 0.261963 0.319336 0.892334 0.178711 0.892334 0.181152 0.862793 0.780762 0.044922 0.809814 0.061768 0.779785 0.180176 0.330078 0.792969 0.355469 0.792969 0.331055 0.891357 0.330078 0.792969 0.331055 0.891357 0.327881 0.793213 0.155273 0.017334 0.139404 0.066406 0.019043 0.027588 0.608398 0.033447 0.472412 0.036621 0.472656 0.033447 0.472412 0.036621 0.608398 0.033447 0.599609 0.036133 0.608398 0.033447 0.472656 0.033447 0.599365 0.030762 0.599365 0.030762 0.472656 0.033447 0.599365 0.028076 0.289795 0.783936 0.453125 0.783936 0.453125 0.785889 0.469482 0.790771 0.542236 0.790771 0.380371 0.826904 0.380371 0.826904 0.542236 0.790771 0.543701 0.826904 0.380371 0.826904 0.543701 0.826904 0.481689 0.828613 0.543701 0.826904 0.542236 0.790771 0.543457 0.790771 0.342041 0.018066 0.464111 0.018066 0.341309 0.023926 0.341309 0.023926 0.464111 0.018066 0.462891 0.033691 0.341309 0.023926 0.462891 0.033691 0.3396 0.044678 0.530762 0.34668 0.492432 0.398438 0.487793 0.359619 0.47876 0.416748 0.492432 0.398438 0.594238 0.478516 0.492432 0.398438 0.47876 0.416748 0.452148 0.38501 0.492432 0.398438 0.452148 0.38501 0.487793 0.359619 0.452148 0.38501 0.47876 0.416748 0.428223 0.40332 0.487793 0.359619 0.452148 0.38501 0.44165 0.363281 0.44165 0.363281 0.452148 0.38501 0.428223 0.40332 0.487793 0.359619 0.44165 0.363281 0.52124 0.344482 0.44165 0.363281 0.428223 0.40332 0.415527 0.376709 0.44165 0.363281 0.415527 0.376709 0.405518 0.2854 0.415527 0.376709 0.428223 0.40332 0.259277 0.471924 0.934082 0.011719 0.866699 0.011719 0.868896 0.000244 0.965088 0.16748 0.965088 0.266846 0.932373 0.17627 0.095703 0.697998 0.064941 0.691406 0.055176 0.686279 0.064941 0.691406 0.095703 0.697998 0.059814 0.725098 0.059814 0.725098 0.095703 0.697998 0.157227 0.734619 0.157227 0.734619 0.095703 0.697998 0.163574 0.70752 0.059814 0.725098 0.157227 0.734619 0.060547 0.764404 0.060547 0.764404 0.157227 0.734619 0.157959 0.763184 0.060547 0.764404 0.157959 0.763184 0.177734 0.767334 0.060547 0.764404 0.177734 0.767334 0.049072 0.765381 0.049072 0.765381 0.177734 0.767334 0.008301 0.775879 0.158936 0.916016 0.168457 0.915283 0.175781 0.938721 0.168457 0.915283 0.158936 0.916016 0.151123 0.914307 0.151123 0.914307 0.158936 0.916016 0.175781 0.938721 0.168457 0.915283 0.151123 0.914307 0.190918 0.908447 0.190918 0.908447 0.151123 0.914307 0.090088 0.869873 0.151123 0.914307 0.175781 0.938721 0.116699 0.956787 0.116699 0.956787 0.175781 0.938721 0.179199 0.949707 0.090088 0.869873 0.151123 0.914307 0.124023 0.92749 0.090088 0.869873 0.124023 0.92749 0.116699 0.956787 0.124023 0.92749 0.151123 0.914307 0.139648 0.92749 0.139648 0.92749 0.151123 0.914307 0.116699 0.956787 0.116699 0.956787 0.124023 0.92749 0.126709 0.928467 0.116699 0.956787 0.126709 0.928467 0.139648 0.92749 0.139648 0.92749 0.126709 0.928467 0.124023 0.92749 0.864258 0.718262 0.864258 0.847412 0.85376 0.719238 0.867676 0.515869 0.873291 0.450439 0.872559 0.580322 0.391602 0.705078 0.391846 0.752686 0.304688 0.730469 0.304688 0.730469 0.391846 0.752686 0.467773 0.773193 0.304688 0.730469 0.467773 0.773193 0.302979 0.774902 0.391602 0.705078 0.304688 0.730469 0.304688 0.70459 0.391602 0.705078 0.304688 0.70459 0.325195 0.700195 0.980713 0.585938 0.973633 0.621094 0.970215 0.630859 0.970215 0.630859 0.973633 0.621094 0.989014 0.639404 0.970215 0.630859 0.989014 0.639404 0.9646 0.636475 0.9646 0.636475 0.989014 0.639404 0.991943 0.687988 0.970215 0.630859 0.9646 0.636475 0.931396 0.649902 0.633057 0.601562 0.669189 0.585693 0.62085 0.637451 0.62085 0.637451 0.669189 0.585693 0.659912 0.6521 0.669189 0.585693 0.633057 0.601562 0.634277 0.580811 0.634277 0.580811 0.633057 0.601562 0.615723 0.568359 0.634277 0.580811 0.615723 0.568359 0.669189 0.585693 0.659912 0.6521 0.669189 0.585693 0.704102 0.61377 0.704102 0.61377 0.669189 0.585693 0.74585 0.487061 0.704102 0.61377 0.74585 0.487061 0.729004 0.613281 0.704102 0.61377 0.729004 0.613281 0.721924 0.617676 0.704102 0.61377 0.721924 0.617676 0.737549 0.655273 0.080322 0.874512 0.022949 0.954102 0.022217 0.916748 0.022949 0.954102 0.080322 0.874512 0.080322 0.9104 0.057861 0.393799 0.067627 0.393799 0.058594 0.443359 0.058594 0.443359 0.067627 0.393799 0.06543 0.446045 0.058594 0.443359 0.06543 0.446045 0.070312 0.458252 0.070312 0.458252 0.06543 0.446045 0.067627 0.393799 0.070312 0.458252 0.067627 0.393799 0.070068 0.393555 0.070312 0.458252 0.070068 0.393555 0.094971 0.457764 0.094971 0.457764 0.070068 0.393555 0.093994 0.393555 0.070312 0.458252 0.094971 0.457764 0.069336 0.466797 0.069336 0.466797 0.094971 0.457764 0.094727 0.466797 0.069336 0.466797 0.094727 0.466797 0.095459 0.595703 0.058105 0.205322 0.194336 0.249756 0.179443 0.273926 0.058105 0.205322 0.179443 0.273926 0.172363 0.285156 0.058105 0.205322 0.172363 0.285156 0.108643 0.250488 0.108643 0.250488 0.172363 0.285156 0.143555 0.304199 0.108643 0.250488 0.143555 0.304199 0.061768 0.355713 0.143555 0.304199 0.172363 0.285156 0.162842 0.311523 0.143555 0.304199 0.162842 0.311523 0.061768 0.355713 0.162842 0.311523 0.172363 0.285156 0.195312 0.284668 0.061768 0.355713 0.162842 0.311523 0.17749 0.337402 0.061768 0.355713 0.17749 0.337402 0.14502 0.416016 0.14502 0.416016 0.17749 0.337402 0.15918 0.421143 0.15918 0.421143 0.17749 0.337402 0.187744 0.345459 0.15918 0.421143 0.187744 0.345459 0.207031 0.363037 0.68042 0.498535 0.68042 0.331055 0.74585 0.475342 0.256592 0.063965 0.40332 0.082031 0.219238 0.13916 0.718262 0.900635 0.769287 0.89502 0.744141 0.939209 0.718262 0.900635 0.744141 0.939209 0.720703 0.93457 0.769287 0.89502 0.718262 0.900635 0.822998 0.854492 0.769287 0.89502 0.822998 0.854492 0.842529 0.938721 0.842529 0.938721 0.822998 0.854492 0.835205 0.901123 0.769287 0.89502 0.842529 0.938721 0.770264 0.961182 0.769287 0.89502 0.770264 0.961182 0.744141 0.939209 0.744141 0.939209 0.770264 0.961182 0.751465 0.94751 0.912354 0.659668 0.906006 0.695801 0.875732 0.687744 0.906006 0.695801 0.912354 0.659668 0.958984 0.69165 0.958984 0.69165 0.912354 0.659668 0.964844 0.660645 0.324951 0.95874 0.274414 0.948242 0.282227 0.90625 0.324951 0.95874 0.282227 0.90625 0.366211 0.915283 0.366211 0.915283 0.282227 0.90625 0.327637 0.900879 0.366211 0.915283 0.327637 0.900879 0.338135 0.902588 0.366211 0.915283 0.338135 0.902588 0.354248 0.880859 0.874512 0.401123 0.904785 0.311768 0.918213 0.319092 0.874512 0.401123 0.918213 0.319092 0.888672 0.408936 0.888672 0.408936 0.918213 0.319092 0.934326 0.322998 0.888672 0.408936 0.934326 0.322998 0.955811 0.334473 0.888672 0.408936 0.955811 0.334473 0.909912 0.420166 0.909912 0.420166 0.955811 0.334473 0.911621 0.421143 0.911621 0.421143 0.955811 0.334473 0.958252 0.335693 0.911621 0.421143 0.958252 0.335693 0.916748 0.41626 0.916748 0.41626 0.958252 0.335693 0.915527 0.423096 0.915527 0.423096 0.958252 0.335693 0.965088 0.447266 0.582275 0.672363 0.665283 0.699219 0.495117 0.673584 0.495117 0.673584 0.665283 0.699219 0.577881 0.701172 0.737305 0.624756 0.8125 0.689453 0.783447 0.70459 0.737305 0.624756 0.783447 0.70459 0.795166 0.72998 0.8125 0.689453 0.737305 0.624756 0.755615 0.567871 0.8125 0.689453 0.755615 0.567871 0.808105 0.58374 0.121582 0.794189 0.192871 0.77417 0.213135 0.786865 0.213135 0.786865 0.192871 0.77417 0.188232 0.770508 0.213135 0.786865 0.188232 0.770508 0.242432 0.707764 0.213135 0.786865 0.242432 0.707764 0.219971 0.811279 0.219971 0.811279 0.242432 0.707764 0.250488 0.817139 0.219971 0.811279 0.250488 0.817139 0.258789 0.827393 0.219971 0.811279 0.258789 0.827393 0.211182 0.829102 0.400391 0.701172 0.565674 0.749512 0.50415 0.773682 0.565674 0.749512 0.400391 0.701172 0.512207 0.729492 0.512207 0.729492 0.400391 0.701172 0.533447 0.69751 0.976318 0.73291 0.9729 0.754883 0.975098 0.728516 0.976318 0.73291 0.975098 0.728516 0.991699 0.7146 0.991699 0.7146 0.975098 0.728516 0.970215 0.723145 0.991699 0.7146 0.970215 0.723145 0.972656 0.686523 0.972656 0.686523 0.970215 0.723145 0.970703 0.683594 0.012207 0.848633 0.003174 0.842041 0.041016 0.790039 0.012207 0.848633 0.041016 0.790039 0.050049 0.796631 0.012207 0.848633 0.050049 0.796631 0.052246 0.79834 0.012207 0.848633 0.052246 0.79834 0.06958 0.783936 0.012207 0.848633 0.06958 0.783936 0.018799 0.853516 0.873291 0.64502 0.861816 0.709717 0.862305 0.580078 0.858154 0.003174 0.84668 0.067627 0.846924 0.000488 0.846924 0.000488 0.84668 0.067627 0.830566 0.000488 0.830566 0.000488 0.84668 0.067627 0.830322 0.067383 0.830566 0.000488 0.830322 0.067383 0.829102 0.067383 0.830566 0.000488 0.829102 0.067383 0.829346 0.000488 0.829346 0.000488 0.829102 0.067383 0.827637 0.000732 0.827637 0.000732 0.829102 0.067383 0.827393 0.067383 0.827637 0.000732 0.827393 0.067383 0.826172 0.067383 0.827637 0.000732 0.826172 0.067383 0.826416 0.000488 0.826416 0.000488 0.826172 0.067383 0.78833 0.000244 0.246582 0.96875 0.160889 0.965576 0.245605 0.967285 0.160889 0.965576 0.246582 0.96875 0.159912 0.984619 0.159912 0.984619 0.246582 0.96875 0.244629 0.987793 0.95166 0.319092 0.977783 0.319092 0.976074 0.325195 0.191895 0.5625 0.190186 0.402588 0.239014 0.558838 0.237549 0.627441 0.234619 0.627197 0.239014 0.558838 0.239014 0.558838 0.234619 0.627197 0.217529 0.579346 0.239014 0.558838 0.217529 0.579346 0.191895 0.5625 0.191895 0.5625 0.217529 0.579346 0.234619 0.627197 0.191895 0.5625 0.234619 0.627197 0.201416 0.633545 0.191895 0.5625 0.201416 0.633545 0.195312 0.634277 0.191895 0.5625 0.195312 0.634277 0.189453 0.613281 0.987061 0.010254 0.95459 0.049316 0.970459 0.015625 0.987061 0.010254 0.970459 0.015625 0.938232 0.000488 0.835205 0.970947 0.827393 0.982422 0.824951 0.955811 0.835205 0.970947 0.824951 0.955811 0.855225 0.94751 0.827393 0.982422 0.835205 0.970947 0.850098 0.999756 0.827393 0.982422 0.850098 0.999756 0.776367 0.996582 0.011963 0.166992 0.046387 0.16626 0.010254 0.171143 0.010254 0.171143 0.046387 0.16626 0.007324 0.220947 0.046387 0.16626 0.011963 0.166992 0.046387 0.107422 0.046387 0.107422 0.011963 0.166992 0.010986 0.050049 0.011963 0.166992 0.010254 0.171143 0.007324 0.171387 0.011963 0.166992 0.007324 0.171387 0.008789 0.167236 0.705078 0.246338 0.705078 0.084961 0.737061 0.243896 0.705078 0.084961 0.705078 0.246338 0.702148 0.250732 0.93457 0.708984 0.941162 0.708252 0.938232 0.712646 0.93457 0.708984 0.938232 0.712646 0.890869 0.723145 0.93457 0.708984 0.890869 0.723145 0.890869 0.715576 0.890869 0.723145 0.938232 0.712646 0.886475 0.726318 0.886475 0.726318 0.938232 0.712646 0.937012 0.766602 0.937012 0.766602 0.938232 0.712646 0.938477 0.818604 0.937012 0.766602 0.938477 0.818604 0.886475 0.726318 0.886475 0.726318 0.938477 0.818604 0.876221 0.779297 0.886475 0.726318 0.876221 0.779297 0.872803 0.779053 0.010986 0.456299 0.010986 0.579102 0.009033 0.408936 0.009033 0.408936 0.010986 0.579102 0.00708 0.456299 0.389893 0.915039 0.388672 0.903076 0.482666 0.906982 0.389893 0.915039 0.482666 0.906982 0.483887 0.923096 0.482666 0.906982 0.388672 0.903076 0.482178 0.902588 0.482178 0.902588 0.388672 0.903076 0.505615 0.900635 0.880615 0.275391 0.880615 0.150879 0.903076 0.275391 0.880615 0.150879 0.880615 0.275391 0.855713 0.275391 0.038818 0.967529 0.070557 0.989746 0.001221 0.989746 0.203613 0.018311 0.329346 0.018311 0.323486 0.04541 0.641357 0.398438 0.644531 0.395264 0.666016 0.559326 0.666016 0.559326 0.644531 0.395264 0.646729 0.398193 0.644531 0.395264 0.641357 0.398438 0.62085 0.376465 0.644531 0.395264 0.62085 0.376465 0.66333 0.322021 0.500732 0.879395 0.378662 0.877441 0.500732 0.87793 0.500732 0.87793 0.378662 0.877441 0.500732 0.851562 0.254883 0.63501 0.429932 0.622314 0.43042 0.625488 0.429932 0.622314 0.254883 0.63501 0.425293 0.584717 0.429932 0.622314 0.425293 0.584717 0.428467 0.585205 0.429932 0.622314 0.428467 0.585205 0.458252 0.625732 0.429932 0.622314 0.458252 0.625732 0.43042 0.625488 0.43042 0.625488 0.458252 0.625732 0.458252 0.63501 0.458252 0.63501 0.458252 0.625732 0.472412 0.629395 0.458252 0.63501 0.472412 0.629395 0.489014 0.644287 0.989014 0.577393 0.973145 0.573242 0.98291 0.499268 0.955566 0.920654 0.990723 0.971924 0.966309 0.959229 0.966309 0.959229 0.990723 0.971924 0.962402 0.962402 0.966309 0.959229 0.962402 0.962402 0.955566 0.920654 0.779785 0.000244 0.779785 0.003906 0.710205 0.004883 0.305664 0.694092 0.133545 0.694092 0.14502 0.624756 0.960938 0.155518 0.955322 0.157227 0.925781 0.066895 0.925781 0.066895 0.955322 0.157227 0.924561 0.167236 0.215332 0.153809 0.236328 0.225098 0.205566 0.22168 0.205566 0.22168 0.236328 0.225098 0.218506 0.390137 0.218506 0.390137 0.236328 0.225098 0.247803 0.237061 0.958252 0.058838 0.960938 0.058838 0.959717 0.061523</float_array>
          <technique_common>
            <accessor source="#Table_Level_0-mesh-map-0-array" count="1494" stride="2">
              <param name="S" type="float"/>
              <param name="T" type="float"/>
            </accessor>
          </technique_common>
        </source>
        <vertices id="Table_Level_0-mesh-vertices">
          <input semantic="POSITION" source="#Table_Level_0-mesh-positions"/>
        </vertices>
        <polylist material="Material_-1-material" count="6">
          <input semantic="VERTEX" source="#Table_Level_0-mesh-vertices" offset="0"/>
          <input semantic="NORMAL" source="#Table_Level_0-mesh-normals" offset="1"/>
          <input semantic="TEXCOORD" source="#Table_Level_0-mesh-map-0" offset="2" set="0"/>
          <vcount>3 3 3 3 3 3 3 3 3 3 3 3 3 3 3 3 3 3 3 3 3 3 3 3 3 3 3 3 3 3 3 3 3 3 3 3 3 3 3 3 3 3 3 3 3 3 3 3 3 3 3 3 3 3 3 3 3 3 3 3 3 3 3 3 3 3 3 3 3 3 3 3 3 3 3 3 3 3 3 3 3 3 3 3 3 3 3 3 3 3 3 3 3 3 3 3 3 3 3 3 3 3 3 3 3 3 3 3 3 3 3 3 3 3 3 3 3 3 3 3 3 3 3 3 3 3 3 3 3 3 3 3 3 3 3 3 3 3 3 3 3 3 3 3 3 3 3 3 3 3 3 3 3 3 3 3 3 3 3 3 3 3 3 3 3 3 3 3 3 3 3 3 3 3 3 3 3 3 3 3 3 3 3 3 3 3 3 3 3 3 3 3 3 3 3 3 3 3 3 3 3 3 3 3 3 3 3 3 3 3 3 3 3 3 3 3 3 3 3 3 3 3 3 3 3 3 3 3 3 3 3 3 3 3 3 3 3 3 3 3 3 3 3 3 3 3 3 3 3 3 3 3 3 3 3 3 3 3 3 3 3 3 3 3 3 3 3 3 3 3 3 3 3 3 3 3 3 3 3 3 3 3 3 3 3 3 3 3 3 3 3 3 3 3 3 3 3 3 3 3 3 3 3 3 3 3 3 3 3 3 3 3 3 3 3 3 3 3 3 3 3 3 3 3 3 3 3 3 3 3 3 3 3 3 3 3 3 3 3 3 3 3 3 3 3 3 3 3 3 3 3 3 3 3 3 3 3 3 3 3 3 3 3 3 3 3 3 3 3 3 3 3 3 3 3 3 3 3 3 3 3 3 3 3 3 3 3 3 3 3 3 3 3 3 3 3 3 3 3 3 3 3 3 3 3 3 3 3 3 3 3 3 3 3 3 3 3 3 3 3 3 3 3 3 3 3 3 3 3 3 3 3 3 3 3 3 3 3 3 3 3 3 3 3 3 3 3 3 3 3 3 3 3 3 3 3 3 3 3 3 3 3 3 3 3 3 3 3 3 3 3 3 3 3 3 3 3 3 3 3 3 3 3 3 3 3 3 3 3 3 3 3 3 3 3 3 3 3</vcount>
          <p>2 0 0 3 0 1 4 0 2 2 1 3 4 1 4 5 1 5 4 2 6 3 2 7 6 2 8 6 3 9 3 3 10 2 3 11 6 4 12 2 4 13 5 4 14 4 5 15 6 5 16 7 5 17 6 6 18 5 6 19 8 6 20 6 7 21 8 7 22 7 7 23 4 8 24 7 8 25 9 8 26 4 9 27 9 9 28 10 9 29 10 10 30 9 10 31 7 10 32 10 11 33 7 11 34 11 11 35 10 12 36 11 12 37 12 12 38 12 13 39 11 13 40 13 13 41 13 14 42 11 14 43 14 14 44 14 15 45 11 15 46 15 15 47 15 16 48 11 16 49 16 16 50 16 17 51 11 17 52 7 17 53 16 18 54 7 18 55 8 18 56 17 19 57 18 19 58 5 19 59 17 20 60 5 20 61 19 20 62 5 21 63 18 21 64 8 21 65 8 22 66 18 22 67 20 22 68 8 23 69 20 23 70 16 23 71 17 24 72 21 24 73 18 24 74 21 25 75 17 25 76 14 25 77 15 26 78 16 26 79 22 26 80 22 27 81 16 27 82 23 27 83 15 28 84 22 28 85 14 28 86 14 29 87 22 29 88 24 29 89 14 30 90 24 30 91 25 30 92 23 31 93 26 31 94 22 31 95 22 32 96 26 32 97 24 32 98 26 33 99 23 33 100 27 33 101 26 34 102 27 34 103 28 34 104 26 35 105 28 35 106 29 35 107 24 36 108 26 36 109 30 36 110 26 37 111 29 37 112 31 37 113 26 38 114 31 38 115 30 38 116 30 39 117 31 39 118 32 39 119 32 40 120 31 40 121 1 40 122 27 41 123 23 41 124 33 41 125 27 42 126 33 42 127 34 42 128 27 43 129 34 43 130 35 43 131 34 44 132 33 44 133 36 44 134 36 45 135 33 45 136 23 45 137 36 46 138 23 46 139 20 46 140 20 47 141 23 47 142 16 47 143 27 48 144 35 48 145 37 48 146 37 49 147 35 49 148 38 49 149 37 50 150 38 50 151 39 50 152 27 51 153 37 51 154 28 51 155 37 52 156 39 52 157 40 52 158 40 53 159 39 53 160 41 53 161 28 54 162 37 54 163 42 54 164 42 55 165 37 55 166 40 55 167 42 56 168 40 56 169 43 56 170 43 57 171 40 57 172 44 57 173 42 58 174 43 58 175 45 58 176 42 59 177 45 59 178 46 59 179 42 60 180 46 60 181 28 60 182 28 61 183 46 61 184 31 61 185 28 62 186 31 62 187 29 62 188 31 63 189 46 63 190 1 63 191 47 64 192 4 64 193 10 64 194 4 65 195 47 65 196 5 65 197 47 66 198 10 66 199 12 66 200 47 67 201 12 67 202 13 67 203 47 68 204 13 68 205 48 68 206 47 69 207 48 69 208 49 69 209 49 70 210 48 70 211 13 70 212 49 71 213 13 71 214 50 71 215 50 72 216 13 72 217 51 72 218 51 73 219 13 73 220 52 73 221 51 74 222 52 74 223 53 74 224 52 75 225 13 75 226 14 75 227 5 76 228 47 76 229 54 76 230 5 77 231 54 77 232 19 77 233 54 78 234 47 78 235 55 78 236 55 79 237 47 79 238 49 79 239 55 80 240 49 80 241 56 80 242 17 81 243 52 81 244 14 81 245 52 82 246 17 82 247 19 82 248 52 83 249 19 83 250 57 83 251 57 84 252 19 84 253 58 84 254 52 85 255 57 85 256 59 85 257 52 86 258 59 86 259 53 86 260 53 87 261 59 87 262 60 87 263 58 88 264 61 88 265 57 88 266 61 89 267 58 89 268 19 89 269 57 90 270 61 90 271 62 90 272 57 91 273 62 91 274 59 91 275 62 92 276 61 92 277 63 92 278 62 93 279 63 93 280 64 93 281 62 94 282 64 94 283 65 94 284 62 95 285 65 95 286 66 95 287 51 96 288 53 96 289 67 96 290 18 97 291 21 97 292 68 97 293 68 98 294 21 98 295 69 98 296 18 99 297 68 99 298 20 99 299 68 100 300 69 100 301 70 100 302 68 101 303 70 101 304 20 101 305 20 102 306 70 102 307 71 102 308 20 103 309 71 103 310 72 103 311 73 104 312 70 104 313 69 104 314 70 105 315 73 105 316 74 105 317 74 106 318 73 106 319 69 106 320 74 107 321 69 107 322 75 107 323 70 108 324 74 108 325 71 108 326 71 109 327 74 109 328 76 109 329 69 110 330 77 110 331 75 110 332 75 111 333 77 111 334 74 111 335 77 112 336 69 112 337 78 112 338 74 113 339 77 113 340 76 113 341 76 114 342 77 114 343 78 114 344 79 115 345 71 115 346 76 115 347 71 116 348 79 116 349 72 116 350 72 117 351 79 117 352 80 117 353 80 118 354 79 118 355 24 118 356 24 119 357 79 119 358 25 119 359 25 120 360 79 120 361 76 120 362 25 121 363 76 121 364 81 121 365 35 122 366 34 122 367 82 122 368 82 123 369 34 123 370 83 123 371 83 124 372 34 124 373 36 124 374 83 125 375 36 125 376 20 125 377 83 126 378 20 126 379 72 126 380 83 127 381 72 127 382 82 127 383 82 128 384 72 128 385 80 128 386 82 129 387 80 129 388 38 129 389 38 130 390 80 130 391 84 130 392 84 131 393 80 131 394 85 131 395 85 132 396 80 132 397 30 132 398 30 133 399 80 133 400 86 133 401 86 134 402 80 134 403 24 134 404 86 135 405 24 135 406 30 135 407 85 136 408 30 136 409 87 136 410 85 137 411 87 137 412 1 137 413 87 138 414 30 138 415 32 138 416 87 139 417 32 139 418 1 139 419 35 140 420 82 140 421 38 140 422 21 141 423 14 141 424 25 141 425 21 142 426 25 142 427 88 142 428 21 143 429 88 143 430 69 143 431 81 144 432 89 144 433 25 144 434 25 145 435 89 145 436 88 145 437 19 146 438 89 146 439 61 146 440 89 147 441 19 147 442 88 147 443 88 148 444 19 148 445 90 148 446 61 149 447 89 149 448 91 149 449 61 150 450 91 150 451 63 150 452 63 151 453 91 151 454 92 151 455 93 152 456 69 152 457 88 152 458 69 153 459 93 153 460 78 153 461 78 154 462 93 154 463 94 154 464 94 155 465 93 155 466 95 155 467 95 156 468 93 156 469 88 156 470 95 157 471 88 157 472 90 157 473 96 158 474 76 158 475 78 158 476 96 159 477 78 159 478 97 159 479 96 160 480 97 160 481 98 160 482 97 161 483 78 161 484 94 161 485 98 162 486 97 162 487 99 162 488 97 163 489 94 163 490 100 163 491 99 164 492 97 164 493 101 164 494 101 165 495 97 165 496 100 165 497 102 166 498 81 166 499 103 166 500 81 167 501 102 167 502 104 167 503 81 168 504 104 168 505 89 168 506 89 169 507 104 169 508 91 169 509 103 170 510 81 170 511 76 170 512 103 171 513 76 171 514 96 171 515 103 172 516 96 172 517 105 172 518 106 173 519 102 173 520 103 173 521 102 174 522 106 174 523 104 174 524 104 175 525 106 175 526 107 175 527 104 176 528 107 176 529 108 176 530 0 177 531 54 177 532 55 177 533 54 178 534 0 178 535 109 178 536 109 179 537 0 179 538 110 179 539 54 180 540 109 180 541 111 180 542 54 181 543 111 181 544 19 181 545 19 182 546 111 182 547 109 182 548 19 183 549 109 183 550 112 183 551 112 184 552 109 184 553 110 184 554 19 185 555 112 185 556 90 185 557 112 186 558 110 186 559 113 186 560 113 187 561 110 187 562 114 187 563 115 188 564 116 188 565 117 188 566 116 189 567 115 189 568 118 189 569 115 190 570 117 190 571 55 190 572 115 191 573 55 191 574 118 191 575 117 192 576 0 192 577 55 192 578 0 193 579 117 193 580 119 193 581 0 194 582 119 194 583 120 194 584 0 195 585 120 195 586 110 195 587 110 196 588 120 196 589 121 196 590 110 197 591 121 197 592 122 197 593 110 198 594 122 198 595 114 198 596 114 199 597 122 199 598 123 199 599 50 200 600 124 200 601 49 200 602 49 201 603 124 201 604 56 201 605 122 202 606 121 202 607 125 202 608 122 203 609 125 203 610 126 203 611 127 204 612 126 204 613 125 204 614 127 205 615 125 205 616 128 205 617 128 206 618 125 206 619 129 206 620 50 207 621 51 207 622 124 207 623 118 208 624 55 208 625 130 208 626 130 209 627 55 209 628 56 209 629 130 210 630 56 210 631 118 210 632 118 211 633 131 211 634 116 211 635 116 212 636 131 212 637 132 212 638 116 213 639 132 213 640 133 213 641 116 214 642 133 214 643 117 214 644 117 215 645 133 215 646 119 215 647 133 216 648 132 216 649 131 216 650 133 217 651 131 217 652 134 217 653 134 218 654 131 218 655 118 218 656 134 219 657 118 219 658 56 219 659 124 220 660 51 220 661 67 220 662 65 221 663 135 221 664 66 221 665 135 222 666 65 222 667 64 222 668 62 223 669 66 223 670 136 223 671 62 224 672 136 224 673 59 224 674 66 225 675 135 225 676 137 225 677 66 226 678 137 226 679 136 226 680 138 227 681 120 227 682 119 227 683 120 228 684 138 228 685 121 228 686 139 229 687 135 229 688 64 229 689 139 230 690 64 230 691 140 230 692 136 231 693 60 231 694 59 231 695 119 232 696 141 232 697 138 232 698 121 233 699 138 233 700 142 233 701 142 234 702 138 234 703 143 234 704 143 235 705 138 235 706 141 235 707 133 236 708 141 236 709 119 236 710 125 237 711 121 237 712 142 237 713 112 238 714 113 238 715 123 238 716 123 239 717 113 239 718 114 239 719 112 240 720 123 240 721 90 240 722 90 241 723 123 241 724 94 241 725 90 242 726 94 242 727 95 242 728 126 243 729 144 243 730 122 243 731 144 244 732 126 244 733 127 244 734 144 245 735 123 245 736 122 245 737 123 246 738 144 246 739 145 246 740 145 247 741 144 247 742 146 247 743 123 248 744 145 248 745 94 248 746 94 249 747 145 249 748 147 249 749 94 250 750 147 250 751 100 250 752 100 251 753 147 251 754 101 251 755 145 252 756 146 252 757 148 252 758 147 253 759 145 253 760 148 253 761 91 254 762 149 254 763 140 254 764 140 255 765 92 255 766 91 255 767 92 256 768 140 256 769 63 256 770 99 257 771 101 257 772 150 257 773 151 258 774 152 258 775 101 258 776 101 259 777 152 259 778 150 259 779 152 260 780 151 260 781 153 260 782 152 261 783 153 261 784 150 261 785 99 262 786 150 262 787 98 262 788 64 263 789 63 263 790 140 263 791 91 264 792 104 264 793 108 264 794 91 265 795 108 265 796 154 265 797 101 266 798 147 266 799 151 266 800 155 267 801 149 267 802 154 267 803 149 268 804 155 268 805 140 268 806 155 269 807 154 269 808 156 269 809 156 270 810 154 270 811 108 270 812 147 271 813 148 271 814 151 271 815 127 272 816 128 272 817 144 272 818 144 273 819 128 273 820 157 273 821 144 274 822 157 274 823 146 274 824 157 275 825 128 275 826 129 275 827 96 276 828 98 276 829 105 276 830 105 277 831 98 277 832 158 277 833 105 278 834 158 278 835 103 278 836 39 279 837 159 279 838 41 279 839 160 280 840 159 280 841 161 280 842 159 281 843 160 281 844 162 281 845 159 282 846 162 282 847 41 282 848 162 283 849 160 283 850 163 283 851 41 284 852 162 284 853 164 284 854 164 285 855 162 285 856 163 285 857 41 286 858 164 286 859 165 286 860 164 287 861 163 287 862 166 287 863 164 288 864 166 288 865 167 288 866 166 289 867 163 289 868 168 289 869 40 290 870 41 290 871 44 290 872 165 291 873 164 291 874 167 291 875 165 292 876 44 292 877 41 292 878 44 293 879 165 293 880 169 293 881 169 294 882 165 294 883 170 294 884 170 295 885 165 295 886 171 295 887 169 296 888 170 296 889 172 296 890 172 297 891 170 297 892 173 297 893 172 298 894 173 298 895 168 298 896 172 299 897 168 299 898 160 299 899 160 300 900 168 300 901 163 300 902 174 301 903 169 301 904 172 301 905 169 302 906 174 302 907 175 302 908 175 303 909 174 303 910 172 303 911 169 304 912 175 304 913 44 304 914 44 305 915 175 305 916 43 305 917 175 306 918 172 306 919 176 306 920 176 307 921 172 307 922 160 307 923 43 308 924 175 308 925 177 308 926 43 309 927 177 309 928 176 309 929 177 310 930 175 310 931 178 310 932 178 311 933 175 311 934 176 311 935 176 312 936 177 312 937 179 312 938 176 313 939 179 313 940 178 313 941 178 314 942 179 314 943 177 314 944 171 315 945 53 315 946 180 315 947 67 316 948 53 316 949 171 316 950 165 317 951 167 317 952 181 317 953 181 318 954 167 318 955 166 318 956 181 319 957 166 319 958 168 319 959 165 320 960 181 320 961 182 320 962 165 321 963 182 321 964 171 321 965 171 322 966 180 322 967 170 322 968 170 323 969 180 323 970 183 323 971 170 324 972 183 324 973 184 324 974 184 325 975 183 325 976 185 325 977 170 326 978 184 326 979 173 326 980 185 327 981 186 327 982 184 327 983 184 328 984 186 328 985 173 328 986 186 329 987 185 329 988 187 329 989 187 330 990 185 330 991 188 330 992 187 331 993 188 331 994 186 331 995 173 332 996 186 332 997 189 332 998 189 333 999 186 333 1000 190 333 1001 189 334 1002 190 334 1003 191 334 1004 189 335 1005 191 335 1006 192 335 1007 189 336 1008 192 336 1009 193 336 1010 186 337 1011 194 337 1012 190 337 1013 194 338 1014 186 338 1015 188 338 1016 1 339 1017 46 339 1018 85 339 1019 85 340 1020 46 340 1021 195 340 1022 85 341 1023 195 341 1024 84 341 1025 84 342 1026 195 342 1027 46 342 1028 84 343 1029 46 343 1030 45 343 1031 84 344 1032 45 344 1033 196 344 1034 196 345 1035 45 345 1036 43 345 1037 84 346 1038 196 346 1039 38 346 1040 38 347 1041 196 347 1042 197 347 1043 38 348 1044 197 348 1045 39 348 1046 160 349 1047 161 349 1048 198 349 1049 160 350 1050 198 350 1051 199 350 1052 160 351 1053 199 351 1054 176 351 1055 176 352 1056 199 352 1057 200 352 1058 176 353 1059 200 353 1060 43 353 1061 200 354 1062 199 354 1063 201 354 1064 200 355 1065 201 355 1066 43 355 1067 201 356 1068 199 356 1069 202 356 1070 43 357 1071 201 357 1072 203 357 1073 43 358 1074 203 358 1075 196 358 1076 196 359 1077 203 359 1078 197 359 1079 197 360 1080 203 360 1081 204 360 1082 197 361 1083 204 361 1084 161 361 1085 39 362 1086 197 362 1087 159 362 1088 161 363 1089 159 363 1090 197 363 1091 205 364 1092 206 364 1093 198 364 1094 205 365 1095 198 365 1096 161 365 1097 206 366 1098 205 366 1099 207 366 1100 206 367 1101 207 367 1102 208 367 1103 208 368 1104 207 368 1105 209 368 1106 206 369 1107 208 369 1108 202 369 1109 206 370 1110 202 370 1111 198 370 1112 198 371 1113 202 371 1114 199 371 1115 205 372 1116 210 372 1117 207 372 1118 210 373 1119 205 373 1120 204 373 1121 204 374 1122 205 374 1123 161 374 1124 209 375 1125 207 375 1126 210 375 1127 209 376 1128 210 376 1129 211 376 1130 211 377 1131 210 377 1132 204 377 1133 211 378 1134 204 378 1135 203 378 1136 211 379 1137 203 379 1138 201 379 1139 106 380 1140 212 380 1141 213 380 1142 106 381 1143 213 381 1144 107 381 1145 107 382 1146 213 382 1147 214 382 1148 107 383 1149 214 383 1150 215 383 1151 107 384 1152 215 384 1153 108 384 1154 108 385 1155 215 385 1156 156 385 1157 156 386 1158 215 386 1159 216 386 1160 156 387 1161 216 387 1162 155 387 1163 155 388 1164 216 388 1165 140 388 1166 140 389 1167 216 389 1168 139 389 1169 106 390 1170 103 390 1171 212 390 1172 212 391 1173 103 391 1174 158 391 1175 211 392 1176 217 392 1177 212 392 1178 211 393 1179 212 393 1180 218 393 1181 217 394 1182 211 394 1183 201 394 1184 217 395 1185 201 395 1186 202 395 1187 188 396 1188 219 396 1189 194 396 1190 194 397 1191 219 397 1192 217 397 1193 194 398 1194 217 398 1195 202 398 1196 194 399 1197 202 399 1198 220 399 1199 220 400 1200 202 400 1201 221 400 1202 220 401 1203 221 401 1204 222 401 1205 220 402 1206 222 402 1207 223 402 1208 221 403 1209 209 403 1210 211 403 1211 209 404 1212 221 404 1213 208 404 1214 208 405 1215 221 405 1216 202 405 1217 213 406 1218 212 406 1219 217 406 1220 213 407 1221 217 407 1222 214 407 1223 214 408 1224 217 408 1225 219 408 1226 214 409 1227 219 409 1228 215 409 1229 215 410 1230 219 410 1231 216 410 1232 124 411 1233 67 411 1234 171 411 1235 124 412 1236 171 412 1237 224 412 1238 124 413 1239 224 413 1240 182 413 1241 124 414 1242 182 414 1243 225 414 1244 124 415 1245 225 415 1246 56 415 1247 60 416 1248 180 416 1249 53 416 1250 180 417 1251 60 417 1252 183 417 1253 183 418 1254 60 418 1255 226 418 1256 226 419 1257 60 419 1258 136 419 1259 226 420 1260 136 420 1261 137 420 1262 226 421 1263 137 421 1264 227 421 1265 227 422 1266 137 422 1267 228 422 1268 228 423 1269 137 423 1270 135 423 1271 228 424 1272 135 424 1273 139 424 1274 228 425 1275 139 425 1276 229 425 1277 229 426 1278 139 426 1279 216 426 1280 230 427 1281 125 427 1282 142 427 1283 125 428 1284 230 428 1285 129 428 1286 129 429 1287 230 429 1288 231 429 1289 171 430 1290 182 430 1291 224 430 1292 134 431 1293 56 431 1294 225 431 1295 192 432 1296 232 432 1297 225 432 1298 225 433 1299 232 433 1300 233 433 1301 225 434 1302 233 434 1303 134 434 1304 134 435 1305 233 435 1306 232 435 1307 134 436 1308 232 436 1309 143 436 1310 134 437 1311 143 437 1312 234 437 1313 134 438 1314 234 438 1315 133 438 1316 225 439 1317 182 439 1318 181 439 1319 225 440 1320 181 440 1321 168 440 1322 193 441 1323 168 441 1324 173 441 1325 193 442 1326 173 442 1327 189 442 1328 168 443 1329 193 443 1330 192 443 1331 168 444 1332 192 444 1333 225 444 1334 229 445 1335 185 445 1336 226 445 1337 226 446 1338 185 446 1339 183 446 1340 185 447 1341 229 447 1342 188 447 1343 188 448 1344 229 448 1345 216 448 1346 229 449 1347 226 449 1348 227 449 1349 229 450 1350 227 450 1351 228 450 1352 234 451 1353 141 451 1354 133 451 1355 141 452 1356 234 452 1357 143 452 1358 232 453 1359 192 453 1360 191 453 1361 232 454 1362 191 454 1363 142 454 1364 232 455 1365 142 455 1366 143 455 1367 142 456 1368 191 456 1369 230 456 1370 230 457 1371 191 457 1372 235 457 1373 235 458 1374 191 458 1375 236 458 1376 235 459 1377 236 459 1378 230 459 1379 230 460 1380 236 460 1381 237 460 1382 230 461 1383 237 461 1384 231 461 1385 157 462 1386 238 462 1387 146 462 1388 146 463 1389 238 463 1390 148 463 1391 158 464 1392 98 464 1393 218 464 1394 158 465 1395 218 465 1396 212 465 1397 218 466 1398 98 466 1399 239 466 1400 239 467 1401 98 467 1402 221 467 1403 150 468 1404 240 468 1405 98 468 1406 240 469 1407 150 469 1408 153 469 1409 216 470 1410 219 470 1411 188 470 1412 231 471 1413 157 471 1414 129 471 1415 238 472 1416 241 472 1417 148 472 1418 148 473 1419 241 473 1420 242 473 1421 241 474 1422 238 474 1423 223 474 1424 241 475 1425 223 475 1426 222 475 1427 148 476 1428 242 476 1429 151 476 1430 151 477 1431 242 477 1432 153 477 1433 157 478 1434 243 478 1435 238 478 1436 243 479 1437 157 479 1438 231 479 1439 243 480 1440 231 480 1441 237 480 1442 243 481 1443 237 481 1444 236 481 1445 243 482 1446 236 482 1447 238 482 1448 238 483 1449 236 483 1450 223 483 1451 223 484 1452 236 484 1453 190 484 1454 223 485 1455 190 485 1456 220 485 1457 190 486 1458 236 486 1459 191 486 1460 190 487 1461 194 487 1462 244 487 1463 244 488 1464 194 488 1465 220 488 1466 244 489 1467 220 489 1468 190 489 1469 242 490 1470 241 490 1471 240 490 1472 153 491 1473 242 491 1474 240 491 1475 218 492 1476 239 492 1477 211 492 1478 211 493 1479 239 493 1480 221 493 1481 241 494 1482 222 494 1483 240 494 1484 240 495 1485 222 495 1486 98 495 1487 98 496 1488 222 496 1489 221 496 1490 91 497 1491 154 497 1492 149 497 1493</p>
        </polylist>
      </mesh>
    </geometry>
  </library_geometries>
  <library_visual_scenes>
    <visual_scene id="Scene" name="Scene">
      <node id="Table_Level_0" name="Table_Level_0" type="NODE">
        <scale sid="scale">1 1 1</scale>
        <translate sid="location">0 0 0</translate>
        <rotate sid="rotationX">1 0 0 0</rotate>
        <rotate sid="rotationY">0 1 0 -90</rotate>
        <rotate sid="rotationZ">0 0 1 0</rotate>
        <instance_geometry url="#Table_Level_0-mesh" name="Table_Level_0">
          <bind_material>
            <technique_common>
            </technique_common>
          </bind_material>
        </instance_geometry>
      </node>
    </visual_scene>
  </library_visual_scenes>
  <scene>
    <instance_visual_scene url="#Scene"/>
  </scene>
</COLLADA>
