<?xml version="1.0" encoding="utf-8"?>
<COLLADA xmlns="http://www.collada.org/2005/11/COLLADASchema" version="1.4.1" xmlns:xsi="http://www.w3.org/2001/XMLSchema-instance">
  <asset>
    <contributor>
      <author>Blockbench user</author>
      <authoring_tool>Blockbench</authoring_tool>
    </contributor>
    <created>2025-12-12T08:33:41.880Z</created>
    <modified>2025-12-12T08:33:41.886Z</modified>
    <unit name="meter" meter="1.0"/>
    <up_axis>Y_UP</up_axis>
  </asset>
  <library_effects>
  </library_effects>
  <library_images>
  </library_images>
  <library_materials>
  </library_materials>
  <library_geometries>
    <geometry id="ThinFilletOfFish-mesh" name="ThinFilletOfFish">
      <mesh>
        <source id="ThinFilletOfFish-mesh-positions">
          <float_array id="ThinFilletOfFish-mesh-positions-array" count="753">-0.459351 -0.014804 -0.087112 -0.486115 -0.035133 -0.121254 -0.489197 -0.035099 -0.072083 -0.477112 -0.058533 -0.068939 -0.484985 0.003738 -0.075661 -0.370544 -0.048527 -0.11647 -0.3078 -0.064957 -0.088219 -0.365784 -0.073517 -0.014499 -0.374969 -0.026321 -0.128693 -0.359924 -0.016542 -0.117088 -0.400238 0.007043 -0.11171 -0.457947 0.017992 -0.113144 -0.482758 0.025627 -0.083603 -0.32309 0.015753 -0.138351 -0.365845 0.023336 -0.073082 -0.492004 0.017431 -0.050426 -0.349426 0.01081 -0.029461 -0.490723 -0.051414 -0.016106 -0.475037 -0.059269 0.033672 -0.49118 -0.024324 0.026447 -0.499054 0.028116 0.003507 -0.495422 0.030237 -0.016819 -0.426819 0.02405 0.021059 -0.389099 0.021517 -0.00389 -0.457031 0.019588 -0.023909 -0.421448 0.00651 -0.015017 -0.335327 0.01432 -0.007004 -0.295135 -0.040031 -0.142639 -0.208633 -0.040424 -0.181885 -0.259918 -0.022331 -0.154984 -0.309326 -0.01218 -0.125641 -0.28952 -0.00976 -0.122757 -0.243179 0.00203 -0.153534 -0.197754 -0.01704 -0.167419 -0.215027 0.020548 -0.178894 -0.239639 0.022863 -0.1091 -0.149231 0.008801 -0.052578 -0.183334 0.006662 -0.171249 -0.166611 -0.031338 -0.199524 -0.129425 -0.049957 -0.185684 -0.109962 -0.036682 -0.208023 -0.013259 -0.047268 -0.215942 -0.139542 -0.070061 -0.114525 0.061485 -0.078629 -0.084709 -0.066284 -0.026802 -0.216888 -0.009551 -0.030348 -0.243256 -0.125916 -0.021095 -0.192871 -0.046787 -0.019146 -0.203995 0.023926 -0.011316 -0.223709 -0.034744 -0.000632 -0.20192 -0.117363 0.006618 -0.199295 -0.132446 0.027021 -0.215424 -0.04213 0.029461 -0.234802 0.048027 0.006271 -0.23201 -0.036659 0.033203 -0.177322 0.03886 0.02894 -0.256195 -0.056545 0.022327 -0.109818 -0.202377 -0.081764 -0.021357 -0.193115 0.014544 -0.011788 -0.086647 0.014734 -0.007178 -0.074585 0.028284 0.014246 0.040398 0.014142 -0.047077 0.016867 0.022633 0.002197 -0.269714 0.02615 0.008368 -0.225784 0.029562 0.009848 0.011245 0.025169 0.016872 -0.147644 0.026623 0.015022 -0.078102 0.041256 0.026482 0.062012 0.041672 0.02335 0.009755 0.051632 0.062057 -0.103775 0.04026 0.049583 -0.118973 0.05341 0.096115 -0.263947 0.048225 0.10952 -0.078629 0.063995 0.14418 -0.240982 0.040272 0.174652 -0.5 -0.035534 0.070114 -0.491058 -0.045681 0.073593 -0.480804 -0.011808 0.057552 -0.466492 -0.023447 0.089645 -0.400452 -0.012281 0.085274 -0.394897 0.003707 0.08139 -0.466278 0.018675 0.07679 -0.496368 0.040504 0.047539 -0.437927 0.036434 0.059277 -0.479706 0.034275 0.066628 -0.356323 0.037556 0.113808 -0.384796 -0.045147 0.101646 -0.375122 -0.022552 0.109818 -0.256622 -0.022964 0.166718 -0.166122 -0.037167 0.197754 -0.249542 -0.000767 0.147278 -0.337006 -0.000011 0.109741 -0.282013 0.023771 0.154495 -0.366791 0.024855 0.111694 -0.194321 -0.071297 0.11483 -0.155167 -0.05687 0.180618 -0.125885 -0.083046 0.06794 0.100182 -0.088936 0.038742 -0.189499 -0.018938 0.176788 -0.123459 -0.011837 0.179886 -0.066925 -0.02943 0.198853 -0.181137 0.001102 0.172379 -0.134521 0.015625 0.196182 -0.170197 0.042007 0.198715 -0.130157 0.045132 0.208893 0.109749 -0.045532 -0.239441 0.195435 -0.058071 -0.202515 0.05407 -0.025404 -0.257324 0.110466 -0.023544 -0.255035 0.142563 -0.037239 -0.255737 0.087769 -0.016191 -0.237411 0.121086 0.000421 -0.220795 0.112022 0.030609 -0.25177 0.158203 0.008455 -0.221207 0.095291 0.035851 -0.188126 0.183914 0.038624 -0.182236 0.144531 0.019154 -0.042553 0.187149 0.025742 -0.002554 0.096222 -0.08651 -0.025702 0.180038 0.037666 0.017323 0.312012 0.032471 0.008165 0.130646 0.04826 0.025919 0.269348 0.046825 0.016552 0.284241 0.082062 0.084763 0.140915 0.072433 0.086678 0.171387 0.084953 0.14798 0.068687 0.077011 0.151184 -0.035179 0.069443 0.134094 0.027107 0.066849 0.187408 0.029142 -0.064346 0.186386 0.066048 -0.051983 0.223389 -0.050385 -0.045181 0.210495 0.022827 -0.032825 0.213303 -0.010803 -0.010277 0.203796 -0.062206 -0.006618 0.199844 0.010911 0.004093 0.225998 -0.09082 0.014772 0.213455 -0.034245 0.048763 0.232178 0.028549 0.048359 0.236206 0.180069 -0.084442 0.108696 0.316071 -0.090706 0.031475 0.058044 -0.026503 0.210861 0.135376 -0.043392 0.215424 0.147034 -0.028929 0.211578 0.101112 -0.046257 0.231827 0.160324 -0.05563 0.243317 0.155487 -0.010636 0.233246 0.060493 0.031464 0.243912 0.153732 0.024734 0.247696 0.150345 0.038624 0.259918 0.134445 0.057014 0.25 0.121277 0.06073 0.218552 0.184036 -0.019999 -0.22644 0.202057 -0.027697 -0.242859 0.234406 0.002588 -0.21254 0.231781 -0.020302 -0.214279 0.300446 -0.016895 -0.21196 0.283905 -0.042023 -0.240814 0.333069 -0.030775 -0.216904 0.221405 -0.045513 -0.239258 0.32431 -0.062851 -0.21936 0.23175 0.021616 -0.242172 0.333344 -0.001176 -0.210678 0.285004 0.033813 -0.247864 0.164566 0.032772 -0.236435 0.261932 0.038349 -0.172974 0.433594 -0.024775 -0.192932 0.239914 -0.085434 -0.067093 0.35144 -0.076141 -0.119751 0.385101 -0.084305 -0.035343 0.343018 0.016836 -0.050056 0.394104 0.039135 -0.159363 0.381104 0.044533 -0.219879 0.326263 0.029781 -0.233154 0.420868 0.021742 -0.214645 0.343109 0.018572 -0.021223 0.394165 0.037258 0.002708 0.33316 -0.049225 -0.246109 0.460999 -0.042812 -0.23877 0.461304 -0.060902 -0.217651 0.447815 -0.064583 -0.131653 0.467438 -0.04929 -0.132339 0.487671 -0.051949 -0.215805 0.472748 -0.03046 -0.171738 0.462616 0.058044 -0.205048 0.461243 0.045959 -0.154953 0.484131 0.044193 -0.114677 0.487885 0.019438 -0.121559 0.467621 0.024126 -0.21846 0.482117 0.000265 -0.157806 0.44278 -0.003702 -0.182327 0.498444 0.022184 -0.075951 0.460052 0.034687 -0.033173 0.477814 -0.010316 -0.077484 0.473083 0.005872 -0.071152 0.438812 -0.003374 -0.042931 0.472626 -0.039772 -0.063194 0.473236 -0.049572 -0.037609 0.47467 -0.06012 -0.048676 0.497131 -0.066086 -0.009431 0.478516 0.056973 0.019436 0.471527 0.043087 -0.001182 0.481476 0.032211 0.015701 0.44043 0.004561 -0.005756 0.471283 -0.042637 0.037971 0.445831 -0.032364 -0.00562 0.49884 -0.054054 0.028482 0.255524 -0.064537 0.199783 0.226227 -0.04678 0.238022 0.308167 -0.060963 0.227905 0.176559 -0.040989 0.241516 0.204895 -0.030626 0.217712 0.266266 -0.039207 0.220764 0.272552 -0.046509 0.239014 0.405975 -0.078407 0.097237 0.34491 0.066216 0.036545 0.326355 0.090546 0.127121 0.332886 0.079773 0.171692 0.211761 0.054333 0.237915 0.333954 0.058311 0.19928 0.234238 0.042889 0.25058 0.337463 0.051174 0.235031 0.303864 -0.013529 0.226135 0.307037 -0.029146 0.209625 0.34964 -0.027058 0.206787 0.354645 -0.052292 0.223099 0.370239 -0.033573 0.197372 0.414124 -0.042542 0.200943 0.381775 -0.06382 0.211777 0.340179 -0.071365 0.205795 0.461517 -0.071785 0.184708 0.291077 0.020531 0.250427 0.386414 0.027781 0.227554 0.477814 0.076622 0.038921 0.467407 0.085762 0.082588 0.470276 0.076378 0.147888 0.482819 -0.064026 0.056721 0.498169 -0.06588 0.121033 0.492615 -0.051495 0.065331 0.497406 -0.05201 0.1436 0.447296 -0.050289 0.216293 0.472595 -0.045429 0.13942 0.465424 -0.026928 0.139145 0.490936 -0.003378 0.09819 0.414429 -0.026693 0.184769 0.487762 0.00216 0.16449 0.473602 0.050926 0.205261 0.481598 0.003922 0.197159 0.464752 0.018345 0.216843 0.444061 0.045532 0.222137 0.38324 0.044731 0.220718</float_array>
          <technique_common>
            <accessor source="#ThinFilletOfFish-mesh-positions-array" count="251" stride="3">
              <param name="X" type="float"/>
              <param name="Y" type="float"/>
              <param name="Z" type="float"/>
            </accessor>
          </technique_common>
        </source>
        <source id="ThinFilletOfFish-mesh-normals">
          <float_array id="ThinFilletOfFish-mesh-normals-array" count="1494">-0.574456 0.817718 -0.036572 -0.884393 -0.463479 -0.055113 -0.429513 -0.036547 -0.902321 -0.089724 -0.914827 -0.393753 -0.077046 -0.926697 -0.367826 -0.055404 -0.985875 -0.158052 -0.020043 -0.485178 -0.874186 -0.100463 0.887514 -0.449695 -0.142937 0.840367 -0.522831 -0.282098 -0.272433 -0.919892 -0.620691 -0.470981 -0.626833 -0.097487 -0.616183 -0.781546 -0.775782 -0.143978 -0.614355 -0.130046 -0.767629 -0.627562 -0.036099 0.959792 -0.278381 0.028233 0.994875 -0.097091 -0.002496 0.970974 0.239172 0.004289 0.961576 0.274507 -0.868324 -0.469326 -0.160461 -0.454876 -0.89055 0.002811 -0.131248 -0.991339 -0.004456 -0.994117 0.108224 0.004442 -0.997469 0.054644 -0.0455 -0.974157 -0.195648 -0.112873 -0.918535 -0.393081 -0.042193 -0.963334 0.000661 -0.268305 -0.975231 0.154667 -0.158122 0.029457 0.993611 0.108946 0.07944 0.99666 0.018916 0.194727 0.922996 -0.331904 0.133338 0.835555 -0.53298 0.404299 0.698827 -0.590071 0.278197 0.107988 -0.954434 0.001469 0.956402 0.29205 0.026608 0.557744 -0.829586 -0.080162 0.991278 -0.104608 -0.231899 -0.504126 -0.831913 -0.045525 -0.904173 -0.424733 -0.206661 -0.870445 -0.446786 -0.405563 0.182203 -0.895724 -0.207737 -0.246838 -0.946529 -0.152677 0.825878 -0.542785 -0.158815 0.846793 -0.507661 -0.162059 -0.052314 -0.985393 -0.052655 0.913016 -0.404512 -0.233001 -0.495546 -0.836747 0.175702 -0.334681 -0.925806 -0.572371 0.434675 -0.695306 -0.246847 -0.720732 -0.647775 -0.208538 0.20027 -0.95729 -0.248017 -0.630362 -0.735616 -0.065237 0.996294 -0.056051 -0.035799 0.989724 -0.138438 0.074723 0.965579 0.249145 0.03209 0.980739 0.192668 -0.147481 -0.713635 -0.684817 -0.285115 0.018607 -0.958313 -0.177921 0.823175 -0.539191 -0.41186 0.16503 -0.896179 -0.120528 -0.735944 -0.666228 -0.164323 -0.778479 -0.60578 -0.135449 -0.79544 -0.590702 -0.050245 -0.959224 -0.278146 -0.007632 -0.973559 -0.228306 -0.113437 -0.337104 -0.934609 -0.296694 -0.793276 -0.531682 -0.047789 0.670655 -0.740228 -0.280059 0.506238 -0.815653 -0.131534 0.851867 -0.506973 -0.115455 0.92092 -0.372259 -0.080763 0.90587 -0.415784 -0.22275 0.861143 -0.456963 -0.331086 0.04916 -0.942319 -0.286645 0.288835 -0.91346 -0.141226 0.200519 -0.969457 -0.389626 -0.092165 -0.91635 -0.049533 -0.211007 -0.976229 -0.227729 -0.813977 -0.534397 -0.239965 -0.704984 -0.667394 -0.086367 -0.744529 -0.66198 -0.137353 -0.674772 -0.725133 -0.171856 -0.745646 -0.643799 -0.040057 0.997327 -0.061114 -0.010477 0.997897 -0.063967 -0.057066 0.998199 -0.018496 0.003517 0.987099 0.160074 -0.128479 -0.917529 -0.376343 -0.072923 -0.957008 -0.280744 -0.055049 -0.985433 -0.160909 -0.021592 -0.990067 -0.138927 -0.109311 0.991438 -0.071432 -0.056413 -0.985694 -0.158825 -0.007028 0.989137 -0.146826 0.004082 0.990822 -0.13511 0.022024 0.839296 -0.543228 -0.025266 0.995136 -0.095217 -0.056961 0.978968 -0.1959 -0.006615 0.988608 -0.150365 -0.019974 0.831728 -0.554825 0.048694 0.680257 -0.731355 -0.040853 0.790857 -0.610636 0.022971 0.837191 -0.546428 -0.017029 0.84933 -0.527587 0.040567 0.987076 -0.155036 -0.011318 0.786388 0.617629 0.047155 0.692141 -0.72022 -0.023278 0.682636 -0.730388 -0.021513 0.421957 -0.906361 -0.008682 0.965524 -0.260168 -0.178592 0.971382 -0.156595 -0.092913 0.99384 -0.060408 0.062541 0.898737 -0.434006 -0.063701 0.954719 -0.29061 0.003788 0.962627 -0.270803 -0.053792 0.977567 -0.20364 -0.051225 0.983485 -0.173589 -0.113318 0.980641 0.159697 -0.901322 -0.369709 0.225684 -0.845885 -0.449968 -0.286368 -0.737079 -0.672487 -0.066907 -0.776076 0.630619 0.005135 -0.533706 0.690388 0.488388 -0.128589 0.912524 0.388285 -0.306843 0.324014 0.894909 -0.155131 -0.473321 0.867122 -0.903798 -0.19609 0.380391 -0.725589 -0.085178 0.682836 -0.989887 -0.108825 0.091001 0.120661 0.953652 -0.275662 0.121449 0.954072 -0.273855 -0.766322 -0.284346 0.576105 0.004735 0.951867 0.306474 -0.349237 0.281571 0.893729 -0.043686 0.998039 0.044839 -0.469451 -0.113482 0.875635 -0.233645 -0.386106 0.892375 -0.206178 -0.253541 0.945097 -0.114945 0.868548 0.48209 -0.429039 -0.139105 0.892511 -0.352704 -0.417948 0.837209 -0.315388 0.680156 0.661753 -0.380293 0.645324 0.662522 -0.324843 0.551921 0.768024 -0.395029 0.344172 0.851761 -0.312644 -0.62428 0.715911 -0.398793 -0.536118 0.744004 -0.388854 -0.525227 0.756921 -0.192774 -0.711732 0.675482 -0.335306 0.120842 0.934327 -0.437881 0.215625 0.872792 -0.466467 0.084307 0.880511 -0.106096 0.981836 0.157296 -0.107179 0.984314 0.140137 0.022687 0.952973 -0.302204 -0.037893 0.979487 -0.197912 -0.05115 0.870719 -0.489114 -0.120684 -0.953517 0.276118 -0.076747 -0.989954 0.118744 -0.121225 -0.952042 0.280926 -0.153902 0.808814 0.567569 -0.082831 -0.988466 0.126784 -0.04922 -0.9984 0.027829 -0.02512 -0.999659 0.007166 -0.024329 0.990228 -0.137317 -0.148669 0.677933 0.719934 -0.150238 0.657013 0.738758 -0.107628 0.687724 0.71795 -0.058351 0.639202 0.766822 -0.332833 0.332981 0.882239 -0.071479 0.242679 0.96747 -0.288712 -0.488871 0.823195 -0.229685 -0.563437 0.793589 -0.283763 -0.464283 0.838999 -0.274191 -0.467678 0.840295 -0.20303 -0.36191 0.909835 -0.196893 0.831647 0.519226 -0.104686 0.97407 0.200572 -0.20293 -0.513715 0.833617 -0.260594 -0.711987 0.652047 -0.090004 -0.841141 -0.533274 -0.034033 -0.96774 -0.249643 -0.036886 -0.976498 -0.212347 -0.078537 -0.774701 -0.627431 -0.178542 0.840107 -0.512194 0.05212 -0.578835 -0.813778 -0.253736 -0.55404 -0.792879 -0.013973 0.916285 -0.400283 -0.015432 0.91716 -0.398219 -0.218612 -0.155139 -0.963401 -0.343569 0.027752 -0.938717 0.170327 0.504839 -0.846243 0.048746 -0.719451 -0.69283 -0.173289 -0.750487 -0.637762 0.058782 -0.706256 -0.705512 0.141027 -0.688046 -0.711832 -0.026484 0.996505 -0.079218 -0.017483 0.996086 -0.086638 -0.025264 0.995742 -0.088655 -0.039454 0.991115 0.127025 -0.010317 0.993032 0.117389 -0.034289 0.988225 0.149118 -0.056239 0.975188 0.214116 -0.042625 0.9921 -0.117987 -0.022987 0.98332 -0.180426 0.003769 0.971808 0.235745 -0.03289 0.983282 0.179095 -0.017551 -0.992349 -0.122207 -0.022947 0.983623 -0.178772 -0.061229 0.846111 -0.529478 -0.00199 0.857219 -0.514948 -0.03058 0.445329 -0.894845 -0.023092 0.562785 -0.826281 -0.055006 0.461845 -0.885253 -0.021528 0.890157 -0.455144 -0.075966 0.930823 -0.357489 -0.067337 0.930912 -0.358983 -0.08208 0.932829 -0.350847 -0.068311 0.9836 -0.166929 -0.11678 0.972852 -0.199804 -0.081081 0.983684 -0.160599 -0.028198 0.966142 -0.256465 -0.069592 0.978412 0.194595 -0.09829 0.981784 0.162599 -0.032803 -0.979731 0.197611 -0.046852 -0.969519 0.240495 -0.04906 -0.931591 0.360183 -0.118294 -0.711091 0.693077 -0.035715 0.981853 -0.186248 -0.19588 0.916504 -0.348786 -0.126237 -0.690026 0.712691 -0.052643 0.557228 0.828689 -0.118297 0.506887 0.853857 -0.149264 0.186779 0.970996 -0.078542 -0.027044 0.996544 -0.3115 0.02317 0.949964 -0.102814 -0.786172 0.609395 -0.173021 -0.683007 0.709624 -0.15969 -0.673109 0.722096 -0.310546 -0.574485 0.757317 -0.146319 -0.279205 0.949018 -0.353039 -0.325629 0.877114 -0.227839 -0.150658 0.961973 0.021677 0.97038 -0.240608 -0.060151 0.970158 0.234893 -0.169384 0.919941 0.353579 -0.088365 0.984555 0.151139 -0.016414 -0.999195 -0.036606 -0.015421 -0.996543 0.081631 -0.005798 -0.997481 0.070702 -0.030391 -0.980419 0.194564 -0.087444 0.30242 0.949155 -0.016108 0.437094 0.899272 0.046257 0.452422 0.890603 -0.000764 0.257564 0.966261 -0.134578 0.984879 -0.109097 0.105816 -0.970067 0.218569 -0.240878 -0.708355 0.663484 -0.024319 -0.97829 0.20581 -0.496929 -0.421279 0.758674 0.117716 -0.288732 0.950146 -0.098206 -0.558715 0.823525 -0.02593 -0.758841 0.65076 -0.088693 -0.427994 0.899419 -0.064884 -0.380155 0.922644 -0.171436 -0.302995 0.937445 -0.078294 -0.669256 0.738896 -0.058585 0.32046 0.945448 -0.182299 0.101398 0.978001 -0.149561 0.366049 0.918498 -0.1009 0.98222 0.158311 -0.056851 0.933052 0.355222 -0.037461 0.95304 0.30052 0.072167 0.950107 -0.30346 0.114946 0.577743 -0.808084 -0.042067 0.143647 -0.988735 0.087903 0.935528 -0.34214 0.138873 0.37251 -0.917579 0.130268 0.292497 -0.947352 0.092057 0.936602 -0.338085 0.246843 0.045233 -0.967999 0.030082 0.072289 -0.99693 0.16737 0.898201 -0.406476 0.072462 0.836819 -0.542663 -0.012541 -0.211167 -0.97737 0.207273 0.027442 -0.977898 0.021091 -0.697194 -0.716573 -0.083196 -0.923511 -0.37444 -0.027437 -0.939808 -0.3406 0.035865 -0.918002 -0.394951 -0.003365 -0.841584 -0.540116 -0.021898 -0.842141 -0.538813 0.076124 -0.674894 -0.733978 -0.15518 -0.494833 -0.85502 -0.093869 -0.054077 -0.994115 0.253246 -0.56018 -0.788711 -0.010718 0.994565 -0.10356 -0.018174 0.994729 -0.100915 0.01032 0.998304 -0.057287 -0.012485 0.990823 0.134588 0.013431 0.363379 -0.931544 0.146851 0.619757 -0.770932 0.127996 -0.188469 -0.973702 0.020286 0.039022 -0.999032 -0.018445 -0.981183 -0.192197 -0.0263 -0.99277 -0.117112 -0.003295 -0.999294 -0.037416 -0.010255 -0.980788 -0.194807 -0.052214 -0.99163 -0.118084 0.031488 -0.993581 -0.108657 0.023366 -0.997175 -0.071388 -0.009735 -0.998898 -0.045906 0.017613 0.986783 0.161087 -0.025248 0.981752 0.188481 0.000281 0.998176 -0.060372 -0.144125 0.982427 0.118593 0.297159 -0.284495 -0.91146 0.236937 -0.534718 -0.811133 0.111486 -0.567032 -0.816116 0.009384 0.998147 -0.060127 0.022874 0.982254 -0.186153 -0.010958 0.89941 -0.436969 -0.083335 0.863882 -0.496752 -0.048243 0.393123 -0.91822 -0.177529 -0.8519 -0.492696 0.011703 0.643029 -0.765752 0.009087 0.897509 -0.440902 0.018311 -0.893339 -0.449011 0.015794 -0.99052 -0.136459 0.116081 -0.992943 -0.024294 0.61486 -0.786132 0.062793 0.07524 -0.75678 -0.649325 0.313054 -0.943806 0.105955 0.289864 -0.724792 -0.625024 0.953408 0.2013 0.224703 0.493428 0.835872 -0.240512 0.254922 0.942006 -0.218265 0.027968 0.93577 -0.351499 0.200854 0.127373 -0.971305 0.16785 0.066982 -0.983534 -0.198991 0.953901 0.224667 -0.107722 0.987935 0.111264 -0.107349 0.988729 0.104357 0.544139 0.812076 0.21082 -0.093981 0.354068 -0.930485 0.963803 0.139542 -0.227182 0.96746 0.202663 -0.151491 0.95617 -0.2928 0.002722 -0.009907 -0.788927 -0.614407 0.342948 -0.843337 -0.413727 0.498539 0.227301 -0.836537 0.158173 -0.720867 -0.674783 0.488845 0.21268 -0.846048 0.242508 0.349696 -0.904933 0.958744 -0.284195 -0.006611 0.844716 0.2584 -0.468704 0.949945 0.20869 -0.232493 0.543454 0.800128 0.253875 0.957175 -0.28852 0.023938 0.836539 -0.52336 -0.162162 0.336275 -0.256204 0.906244 0.545148 -0.722435 0.425326 0.648903 -0.105119 0.753575 0.668187 0.226167 0.708784 0.97966 -0.195171 -0.046639 0.771955 0.59955 0.211245 0.99584 0.042545 -0.080575 0.993274 0.114048 0.020003 0.604085 -0.782007 -0.153448 0.783319 0.497513 -0.372683 0.120802 -0.992574 0.01429 0.214283 -0.939986 -0.265536 0.230542 -0.95544 -0.184348 -0.125487 0.981928 0.141669 -0.159963 0.984806 0.067602 -0.142192 0.988077 -0.059042 -0.163649 0.916056 -0.366142 -0.084958 0.830539 -0.550442 -0.090195 0.839947 -0.535121 -0.08444 0.970782 -0.224614 0.892965 0.169633 -0.416939 0.022816 0.964921 -0.261547 0.69651 0.715757 0.050643 0.481694 -0.857032 0.18294 0.593674 -0.302693 -0.745606 0.464498 -0.869976 0.165479 0.869341 0.125397 -0.47804 0.986819 0.14407 -0.073702 0.742138 0.589697 0.318572 0.435204 0.893833 -0.107984 0.726066 0.645301 -0.23752 0.004517 -0.977709 0.209915 0.154606 -0.845513 0.511082 -0.119189 -0.932259 0.341595 0.074725 0.039709 0.996413 -0.141288 0.273701 0.951381 -0.072531 0.997109 0.02265 -0.183324 0.962342 0.200726 0.134908 0.839637 0.526127 -0.090377 0.323334 0.941959 -0.092082 -0.742864 0.663079 0.086979 0.822163 0.562569 -0.013461 0.92675 0.375438 0.033504 -0.989685 0.139289 0.035625 -0.982074 0.185099 -0.113622 0.892599 -0.436299 -0.05495 0.988155 -0.143286 -0.003391 0.971891 0.235407 0.049586 0.994078 0.096701 0.028475 0.981161 0.191083 0.064357 0.788857 0.611198 -0.015747 0.949099 0.314586 0.068478 0.518787 0.852157 0.117073 -0.639806 0.759567 0.114226 0.829455 0.546769 0.033967 0.770783 0.636192 0.051529 -0.3755 0.925389 0.037743 -0.357705 0.933071 0.028304 -0.568801 0.821988 -0.065002 -0.112225 0.991555 0.345373 -0.64774 0.679081 0.081275 -0.716233 0.693113 -0.1141 0.908201 0.40268 0.028952 0.546695 0.836831 0.177623 0.741796 0.646675 0.485127 0.540549 0.687356 0.106812 0.772068 0.6265 0.358372 -0.070859 0.930886 0.157489 -0.327873 0.931502 -0.01296 -0.629214 0.777124 0.017657 -0.679134 0.733802 0.204201 -0.738189 0.642945 0.084128 -0.861209 0.501241 -0.098017 -0.947642 0.303919 -0.081464 -0.996559 0.015271 0.029074 0.98078 0.19294 -0.242681 -0.622042 0.744426 0.118999 0.296036 0.947735 0.219678 0.15166 0.963712 0.237597 -0.503328 0.830788 0.221362 -0.471668 0.853539 0.116983 -0.9928 0.025748 0.156125 -0.987548 0.019351 0.051275 0.61305 -0.788379 -0.048481 0.670152 -0.740639 -0.042326 0.702743 -0.710183 -0.065216 0.920757 -0.384647 -0.015384 0.983245 -0.181641 -0.03397 0.97657 -0.212503 0.93293 -0.236177 0.271776 0.938844 0.344244 0.008221 0.102218 0.970236 0.219532 0.726587 -0.663654 0.177864 0.223247 -0.971591 0.078555 0.473564 0.711045 0.519761 0.150662 -0.986486 -0.064399 0.137802 -0.990381 -0.012524 0.755012 -0.151952 -0.637862 0.835501 -0.506102 -0.214008 0.736952 -0.564473 0.37185 0.986756 0.150941 -0.059408 0.785768 -0.285995 0.54843 0.181314 0.978139 0.101829 0.257852 0.966139 -0.009427 0.360313 0.932595 0.021006 0.225862 0.959274 0.169644 0.932418 0.361375 -0.002113 0.702043 0.281833 0.653992 0.78319 -0.605946 0.139438 0.535986 0.597911 0.596004 0.750144 -0.655035 0.090627 0.433109 -0.757808 0.487999 0.971639 0.234937 0.026891 0.971632 0.234972 0.026832 0.969568 0.239641 0.050103 0.392667 -0.911385 0.123244 0.974917 0.135398 0.176645 0.194981 -0.704114 0.682792 0.766734 0.01983 0.641658 0.38134 0.924423 -0.004801 0.963246 -0.188205 -0.191666 0.990139 0.127209 -0.058668 0.04869 0.988956 0.13998 0.00871 -0.99751 0.069986 0.088434 0.710614 0.698002 0.305861 -0.32576 0.894611 0.281354 -0.499055 0.819625 0.035688 -0.60587 0.794763 0.123144 -0.098568 0.987482 0.462286 0.182871 0.867669 -0.026538 0.369621 0.928804 0.324291 0.40542 0.854675 0.034024 0.93317 0.357822 0.190439 0.966124 0.174176 -0.024172 0.818473 0.574036 0.031057 0.914315 0.403811 0.124447 0.785481 0.606245 -0.185787 0.655262 0.732199 0.122886 -0.793832 0.595592</float_array>
          <technique_common>
            <accessor source="#ThinFilletOfFish-mesh-normals-array" count="498" stride="3">
              <param name="X" type="float"/>
              <param name="Y" type="float"/>
              <param name="Z" type="float"/>
            </accessor>
          </technique_common>
        </source>
        <source id="ThinFilletOfFish-mesh-map-0">
          <float_array id="ThinFilletOfFish-mesh-map-0-array" count="2988">0.77002 0.224609 0.745361 0.20166 0.769043 0.172607 0.769043 0.172607 0.745361 0.20166 0.727051 0.158203 0.77002 0.224609 0.769043 0.172607 0.794922 0.197266 0.727051 0.158203 0.745361 0.20166 0.660156 0.264893 0.727051 0.158203 0.660156 0.264893 0.579346 0.255859 0.727051 0.158203 0.579346 0.255859 0.600586 0.144043 0.660156 0.264893 0.745361 0.20166 0.688477 0.278564 0.688477 0.278564 0.745361 0.20166 0.77002 0.224609 0.688477 0.278564 0.77002 0.224609 0.701172 0.300049 0.701172 0.300049 0.77002 0.224609 0.764404 0.27417 0.77002 0.224609 0.794922 0.197266 0.793457 0.242432 0.77002 0.224609 0.793457 0.242432 0.764404 0.27417 0.793457 0.242432 0.794922 0.197266 0.814209 0.203369 0.764404 0.27417 0.793457 0.242432 0.776123 0.348877 0.185547 0.895752 0.059814 0.822266 0.181885 0.853027 0.059814 0.822266 0.185547 0.895752 0.07959 0.895752 0.07959 0.895752 0.185547 0.895752 0.188232 0.931396 0.07959 0.895752 0.188232 0.931396 0.060059 0.934814 0.52417 0.422119 0.552002 0.418701 0.552002 0.477051 0.552002 0.477051 0.552002 0.418701 0.584717 0.522461 0.584717 0.522461 0.552002 0.418701 0.682373 0.440918 0.52417 0.422119 0.552002 0.477051 0.482666 0.425781 0.482666 0.425781 0.552002 0.477051 0.532227 0.526611 0.482666 0.425781 0.532227 0.526611 0.472412 0.51416 0.482666 0.425781 0.472412 0.51416 0.472656 0.455566 0.482666 0.425781 0.472656 0.455566 0.458496 0.420898 0.472656 0.455566 0.472412 0.51416 0.466064 0.493164 0.466064 0.493164 0.472412 0.51416 0.398438 0.541992 0.466064 0.493164 0.398438 0.541992 0.355469 0.520752 0.472656 0.455566 0.466064 0.493164 0.428955 0.471436 0.428955 0.471436 0.466064 0.493164 0.355469 0.520752 0.472656 0.455566 0.428955 0.471436 0.388672 0.463135 0.388672 0.463135 0.428955 0.471436 0.355469 0.520752 0.472656 0.455566 0.388672 0.463135 0.324463 0.418945 0.388672 0.463135 0.355469 0.520752 0.315674 0.518799 0.388672 0.463135 0.315674 0.518799 0.324463 0.418945 0.867676 0.551514 0.924561 0.554443 0.870361 0.571777 0.870361 0.571777 0.924561 0.554443 0.909912 0.593994 0.909912 0.593994 0.924561 0.554443 0.969971 0.56665 0.969971 0.56665 0.924561 0.554443 0.950195 0.540527 0.950195 0.540527 0.924561 0.554443 0.867676 0.551514 0.950195 0.540527 0.867676 0.551514 0.90625 0.525635 0.90625 0.525635 0.867676 0.551514 0.87207 0.538086 0.90625 0.525635 0.87207 0.538086 0.850586 0.521484 0.950195 0.540527 0.90625 0.525635 0.920166 0.519043 0.90625 0.525635 0.850586 0.521484 0.901611 0.489746 0.90625 0.525635 0.901611 0.489746 0.920166 0.519043 0.950195 0.540527 0.920166 0.519043 0.959229 0.517578 0.959229 0.517578 0.920166 0.519043 0.901611 0.489746 0.950195 0.540527 0.959229 0.517578 0.981689 0.538086 0.959229 0.517578 0.901611 0.489746 0.980957 0.498535 0.980957 0.498535 0.901611 0.489746 0.946777 0.446777 0.946777 0.446777 0.901611 0.489746 0.874268 0.449219 0.946777 0.446777 0.874268 0.449219 0.875488 0.40918 0.946777 0.446777 0.875488 0.40918 0.975342 0.38208 0.019531 0.247314 0.018311 0.260986 0.004395 0.241211 0.004395 0.241211 0.018311 0.260986 0.007568 0.260742 0.035889 0.233398 0.024658 0.271729 0.02417 0.24707 0.024658 0.271729 0.035889 0.233398 0.035889 0.251221 0.738525 0.596191 0.748779 0.613525 0.736328 0.62793 0.736328 0.62793 0.748779 0.613525 0.750244 0.643066 0.736328 0.62793 0.750244 0.643066 0.726807 0.686279 0.736328 0.62793 0.726807 0.686279 0.697754 0.619873 0.697754 0.619873 0.726807 0.686279 0.64502 0.709717 0.726807 0.686279 0.750244 0.643066 0.750732 0.66626 0.726807 0.686279 0.750732 0.66626 0.739502 0.695312 0.750244 0.643066 0.748779 0.613525 0.763672 0.632812 0.750244 0.643066 0.763672 0.632812 0.750732 0.66626 0.763672 0.632812 0.748779 0.613525 0.755859 0.595459 0.739502 0.695312 0.750732 0.66626 0.761963 0.67627 0.761963 0.67627 0.750732 0.66626 0.763672 0.632812 0.739502 0.695312 0.761963 0.67627 0.753662 0.707764 0.763672 0.632812 0.755859 0.595459 0.769775 0.602783 0.753662 0.707764 0.761963 0.67627 0.772461 0.683838 0.772461 0.683838 0.761963 0.67627 0.763672 0.632812 0.763672 0.632812 0.769775 0.602783 0.780273 0.63623 0.763672 0.632812 0.780273 0.63623 0.772461 0.683838 0.780273 0.63623 0.769775 0.602783 0.782715 0.590332 0.780273 0.63623 0.782715 0.590332 0.797363 0.630615 0.772461 0.683838 0.780273 0.63623 0.790039 0.682617 0.790039 0.682617 0.780273 0.63623 0.797363 0.630615 0.772461 0.683838 0.790039 0.682617 0.789551 0.712646 0.790039 0.682617 0.797363 0.630615 0.82373 0.679688 0.790039 0.682617 0.82373 0.679688 0.810791 0.71875 0.82373 0.679688 0.797363 0.630615 0.861816 0.598145 0.82373 0.679688 0.861816 0.598145 0.862061 0.683594 0.11084 0.529541 0.132812 0.508057 0.108887 0.583008 0.108887 0.583008 0.132812 0.508057 0.149658 0.531494 0.108887 0.583008 0.149658 0.531494 0.156738 0.574463 0.156738 0.574463 0.149658 0.531494 0.2146 0.487305 0.041016 0.255615 0.041016 0.313721 0.02832 0.28125 0.056152 0.637207 0.0979 0.587646 0.168701 0.637207 0.407471 0.894287 0.330566 0.882812 0.391113 0.87793 0.407471 0.894287 0.391113 0.87793 0.432129 0.877441 0.432129 0.877441 0.391113 0.87793 0.437012 0.867676 0.407471 0.894287 0.432129 0.877441 0.480713 0.894287 0.480713 0.894287 0.432129 0.877441 0.472168 0.874756 0.517822 0.944824 0.507324 0.959717 0.409912 0.951172 0.351318 0.961426 0.384766 0.950195 0.424561 0.960938 0.384766 0.950195 0.351318 0.961426 0.323242 0.958496 0.119385 0.252197 0.110352 0.237305 0.118408 0.229004 0.118408 0.229004 0.110352 0.237305 0.103516 0.181152 0.116211 0.152832 0.111328 0.182617 0.103516 0.181152 0.116211 0.152832 0.103516 0.181152 0.108398 0.154541 0.103516 0.181152 0.110352 0.237305 0.105225 0.207764 0.108398 0.154541 0.103516 0.181152 0.096924 0.183594 0.096924 0.183594 0.103516 0.181152 0.105225 0.207764 0.108398 0.154541 0.096924 0.183594 0.099121 0.137451 0.099121 0.137451 0.096924 0.183594 0.082275 0.158203 0.096924 0.183594 0.105225 0.207764 0.0896 0.195557 0.096924 0.183594 0.0896 0.195557 0.082275 0.158203 0.0896 0.195557 0.105225 0.207764 0.110352 0.237305 0.082275 0.158203 0.0896 0.195557 0.071289 0.203125 0.071289 0.203125 0.0896 0.195557 0.110352 0.237305 0.071289 0.203125 0.110352 0.237305 0.070312 0.256348 0.071289 0.203125 0.070312 0.256348 0.048096 0.205811 0.048096 0.205811 0.070312 0.256348 0.04541 0.259033 0.747559 0.859375 0.707275 0.870605 0.719727 0.841797 0.747559 0.859375 0.719727 0.841797 0.753174 0.828613 0.753174 0.828613 0.719727 0.841797 0.743164 0.826172 0.747559 0.859375 0.753174 0.828613 0.775391 0.840332 0.775391 0.840332 0.753174 0.828613 0.769043 0.807861 0.775391 0.840332 0.769043 0.807861 0.802979 0.779297 0.775391 0.840332 0.802979 0.779297 0.814941 0.788574 0.775391 0.840332 0.814941 0.788574 0.805664 0.846191 0.747559 0.859375 0.775391 0.840332 0.789307 0.874512 0.789307 0.874512 0.775391 0.840332 0.805664 0.846191 0.747559 0.859375 0.789307 0.874512 0.758545 0.89624 0.758545 0.89624 0.789307 0.874512 0.820068 0.919434 0.820068 0.919434 0.789307 0.874512 0.829834 0.891357 0.789307 0.874512 0.805664 0.846191 0.803711 0.864014 0.789307 0.874512 0.803711 0.864014 0.829834 0.891357 0.803711 0.864014 0.805664 0.846191 0.880127 0.887939 0.803711 0.864014 0.880127 0.887939 0.829834 0.891357 0.69873 0.026855 0.671143 0.015625 0.679443 0.008301 0.69873 0.026855 0.679443 0.008301 0.759521 0.013428 0.295898 0.067627 0.328857 0.086426 0.328613 0.100586 0.295898 0.067627 0.328613 0.100586 0.310303 0.099121 0.328613 0.100586 0.328857 0.086426 0.39624 0.119141 0.39624 0.119141 0.328857 0.086426 0.435547 0.107178 0.328613 0.100586 0.39624 0.119141 0.386475 0.133301 0.310303 0.099121 0.328613 0.100586 0.337891 0.121094 0.337891 0.121094 0.328613 0.100586 0.386475 0.133301 0.310303 0.099121 0.337891 0.121094 0.306885 0.108154 0.337891 0.121094 0.386475 0.133301 0.367676 0.145752 0.306885 0.108154 0.337891 0.121094 0.315918 0.13208 0.315918 0.13208 0.337891 0.121094 0.367676 0.145752 0.306885 0.108154 0.315918 0.13208 0.282471 0.092285 0.282471 0.092285 0.315918 0.13208 0.317383 0.141113 0.317383 0.141113 0.315918 0.13208 0.367676 0.145752 0.317383 0.141113 0.367676 0.145752 0.377441 0.165039 0.317383 0.141113 0.377441 0.165039 0.344482 0.18042 0.317383 0.141113 0.344482 0.18042 0.285889 0.160156 0.285889 0.160156 0.344482 0.18042 0.270264 0.197266 0.270264 0.197266 0.344482 0.18042 0.327637 0.257812 0.270264 0.197266 0.327637 0.257812 0.312256 0.246582 0.395264 0.727295 0.376221 0.740723 0.277344 0.626709 0.277344 0.626709 0.376221 0.740723 0.314941 0.730957 0.395264 0.727295 0.277344 0.626709 0.280029 0.58667 0.395264 0.727295 0.280029 0.58667 0.362305 0.681396 0.214844 0.45459 0.233643 0.364502 0.253906 0.387207 0.233643 0.364502 0.214844 0.45459 0.205078 0.395996 0.233643 0.364502 0.205078 0.395996 0.212891 0.284424 0.05835 0.082275 0.075195 0.053467 0.073242 0.169434 0.506836 0.893311 0.483154 0.884277 0.512451 0.835205 0.512451 0.835205 0.483154 0.884277 0.504395 0.805908 0.512451 0.835205 0.504395 0.805908 0.546143 0.790527 0.546143 0.790527 0.504395 0.805908 0.554932 0.739014 0.506836 0.893311 0.512451 0.835205 0.531006 0.836914 0.531006 0.836914 0.512451 0.835205 0.546143 0.790527 0.506836 0.893311 0.531006 0.836914 0.549072 0.894531 0.531006 0.836914 0.546143 0.790527 0.567139 0.808838 0.531006 0.836914 0.567139 0.808838 0.572998 0.836182 0.531006 0.836914 0.572998 0.836182 0.549072 0.894531 0.572998 0.836182 0.567139 0.808838 0.589355 0.80542 0.572998 0.836182 0.589355 0.80542 0.549072 0.894531 0.549072 0.894531 0.589355 0.80542 0.6604 0.809082 0.015137 0.223389 0.020752 0.240479 0.004395 0.233887 0.029541 0.506836 0.029541 0.418701 0.039551 0.420898 0.657227 0.797607 0.674805 0.724609 0.678223 0.804932 0.678223 0.804932 0.674805 0.724609 0.729004 0.696045 0.678223 0.804932 0.729004 0.696045 0.778809 0.790039 0.674805 0.724609 0.657227 0.797607 0.65332 0.755859 0.65332 0.755859 0.657227 0.797607 0.634766 0.779541 0.674805 0.724609 0.65332 0.755859 0.655273 0.722168 0.674805 0.724609 0.655273 0.722168 0.664062 0.710693 0.655273 0.722168 0.65332 0.755859 0.638184 0.732178 0.638184 0.732178 0.65332 0.755859 0.634766 0.779541 0.638184 0.732178 0.634766 0.779541 0.623291 0.766113 0.623291 0.766113 0.634766 0.779541 0.61377 0.802002 0.638184 0.732178 0.623291 0.766113 0.619629 0.715332 0.619629 0.715332 0.623291 0.766113 0.60376 0.755615 0.60376 0.755615 0.623291 0.766113 0.574707 0.776611 0.619629 0.715332 0.60376 0.755615 0.594971 0.718262 0.619629 0.715332 0.594971 0.718262 0.60498 0.697998 0.245117 0.182373 0.175049 0.17334 0.205078 0.126953 0.205078 0.126953 0.175049 0.17334 0.164551 0.137451 0.164551 0.137451 0.175049 0.17334 0.119385 0.167236 0.119385 0.167236 0.175049 0.17334 0.140625 0.252686 0.140625 0.252686 0.175049 0.17334 0.245117 0.182373 0.140625 0.252686 0.245117 0.182373 0.2771 0.247803 0.140625 0.252686 0.2771 0.247803 0.202881 0.282227 0.140625 0.252686 0.202881 0.282227 0.119873 0.278076 0.119873 0.278076 0.202881 0.282227 0.205566 0.312988 0.040039 0.331787 0.00708 0.306885 0.015869 0.265625 0.769531 0.923828 0.865967 0.923828 0.815918 0.954834 0.678467 0.822754 0.70459 0.846191 0.560547 0.894287 0.131104 0.442139 0.11084 0.387451 0.116699 0.384033 0.131104 0.442139 0.116699 0.384033 0.14502 0.437256 0.131104 0.442139 0.14502 0.437256 0.111084 0.482666 0.14502 0.437256 0.116699 0.384033 0.132812 0.394531 0.14502 0.437256 0.132812 0.394531 0.146973 0.419434 0.14502 0.437256 0.146973 0.419434 0.158691 0.461182 0.158691 0.461182 0.146973 0.419434 0.204346 0.453125 0.146973 0.419434 0.132812 0.394531 0.171387 0.407227 0.146973 0.419434 0.171387 0.407227 0.204346 0.453125 0.171387 0.407227 0.132812 0.394531 0.144531 0.365967 0.204346 0.453125 0.171387 0.407227 0.200439 0.404785 0.171387 0.407227 0.144531 0.365967 0.187988 0.371094 0.171387 0.407227 0.187988 0.371094 0.200439 0.404785 0.187988 0.371094 0.144531 0.365967 0.164551 0.33667 0.200439 0.404785 0.187988 0.371094 0.198242 0.352539 0.198242 0.352539 0.187988 0.371094 0.164551 0.33667 0.629883 0.070312 0.764404 0.070312 0.612793 0.125244 0.612793 0.125244 0.764404 0.070312 0.662354 0.145508 0.662354 0.145508 0.764404 0.070312 0.800781 0.076172 0.662354 0.145508 0.800781 0.076172 0.733398 0.120361 0.908203 0.906738 0.999512 0.90918 0.980225 0.948486 0.908203 0.906738 0.980225 0.948486 0.949463 0.949707 0.748291 0.947998 0.839111 0.963867 0.741211 0.970703 0.900635 0.195557 0.852783 0.150146 0.90625 0.178711 0.900635 0.195557 0.90625 0.178711 0.948975 0.166748 0.900635 0.195557 0.948975 0.166748 0.941406 0.190186 0.900635 0.195557 0.941406 0.190186 0.914062 0.205078 0.900635 0.195557 0.914062 0.205078 0.87915 0.229736 0.914062 0.205078 0.941406 0.190186 0.966064 0.202148 0.87915 0.229736 0.914062 0.205078 0.909668 0.228027 0.909668 0.228027 0.914062 0.205078 0.966064 0.202148 0.87915 0.229736 0.909668 0.228027 0.880371 0.248291 0.909668 0.228027 0.966064 0.202148 0.953613 0.248535 0.880371 0.248291 0.909668 0.228027 0.893066 0.252686 0.893066 0.252686 0.909668 0.228027 0.953613 0.248535 0.893066 0.252686 0.953613 0.248535 0.988525 0.255859 0.893066 0.252686 0.988525 0.255859 0.899902 0.326904 0.899902 0.326904 0.988525 0.255859 0.983154 0.317627 0.899902 0.326904 0.983154 0.317627 0.941406 0.334961 0.049805 0.071533 0.069824 0.185059 0.045654 0.19043 0.277344 0.409668 0.279541 0.317139 0.3125 0.289307 0.3125 0.289307 0.279541 0.317139 0.289795 0.22998 0.277344 0.409668 0.3125 0.289307 0.335205 0.35498 0.62085 0.584229 0.561523 0.613037 0.655273 0.54834 0.62085 0.584229 0.655273 0.54834 0.646729 0.575684 0.646729 0.575684 0.655273 0.54834 0.716064 0.582764 0.646729 0.575684 0.716064 0.582764 0.726562 0.598877 0.716064 0.582764 0.655273 0.54834 0.684082 0.54834 0.684082 0.54834 0.655273 0.54834 0.646973 0.523193 0.684082 0.54834 0.646973 0.523193 0.725098 0.530273 0.725098 0.530273 0.646973 0.523193 0.72168 0.378906 0.213379 0.853271 0.225342 0.823242 0.235352 0.84375 0.225342 0.823242 0.213379 0.853271 0.189209 0.848877 0.225342 0.823242 0.189209 0.848877 0.124756 0.804688 0.124756 0.804688 0.189209 0.848877 0.119873 0.828369 0.225342 0.823242 0.124756 0.804688 0.196533 0.779541 0.196533 0.779541 0.124756 0.804688 0.129883 0.776367 0.225342 0.823242 0.196533 0.779541 0.258789 0.798828 0.196533 0.779541 0.129883 0.776367 0.135254 0.763428 0.258789 0.798828 0.196533 0.779541 0.222656 0.772217 0.222656 0.772217 0.196533 0.779541 0.135254 0.763428 0.222656 0.772217 0.135254 0.763428 0.148926 0.747314 0.222656 0.772217 0.148926 0.747314 0.166992 0.72876 0.222656 0.772217 0.166992 0.72876 0.23877 0.736328 0.23877 0.736328 0.166992 0.72876 0.162109 0.667725 0.724121 0.542236 0.783936 0.52832 0.736572 0.554932 0.783936 0.52832 0.724121 0.542236 0.746826 0.52002 0.783936 0.52832 0.746826 0.52002 0.771973 0.510498 0.736572 0.554932 0.783936 0.52832 0.791016 0.543701 0.736572 0.554932 0.791016 0.543701 0.75293 0.562744 0.783936 0.52832 0.771973 0.510498 0.821289 0.515625 0.791016 0.543701 0.783936 0.52832 0.822021 0.530029 0.822021 0.530029 0.783936 0.52832 0.821289 0.515625 0.822021 0.530029 0.821289 0.515625 0.849609 0.530762 0.791016 0.543701 0.822021 0.530029 0.835205 0.564209 0.835205 0.564209 0.822021 0.530029 0.865234 0.57373 0.791016 0.543701 0.835205 0.564209 0.798096 0.557861 0.791016 0.543701 0.798096 0.557861 0.75293 0.562744 0.798096 0.557861 0.835205 0.564209 0.857666 0.586426 0.798096 0.557861 0.857666 0.586426 0.782227 0.585449 0.798096 0.557861 0.782227 0.585449 0.75293 0.562744 0.75293 0.562744 0.782227 0.585449 0.738525 0.582764 0.8125 0.49292 0.821289 0.515625 0.771973 0.510498 0.821289 0.515625 0.8125 0.49292 0.858887 0.475098 0.858887 0.475098 0.8125 0.49292 0.831787 0.469971 0.8125 0.49292 0.771973 0.510498 0.771484 0.489014 0.8125 0.49292 0.771484 0.489014 0.831787 0.469971 0.771484 0.489014 0.771973 0.510498 0.750244 0.503906 0.771484 0.489014 0.750244 0.503906 0.757568 0.446045 0.771484 0.489014 0.757568 0.446045 0.831787 0.469971 0.831787 0.469971 0.757568 0.446045 0.802002 0.412109 0.802002 0.412109 0.757568 0.446045 0.720215 0.360352 0.592773 0.947021 0.574463 0.940186 0.630127 0.941895 0.574463 0.940186 0.592773 0.947021 0.519287 0.953857 0.519287 0.953857 0.592773 0.947021 0.576416 0.958252 0.576416 0.958252 0.592773 0.947021 0.630371 0.95166 0.043213 0.542236 0.043213 0.429688 0.126465 0.505371 0.894775 0.607666 0.987305 0.603271 0.999756 0.644043 0.987305 0.603271 0.894775 0.607666 0.994141 0.563721 0.000244 0.40918 0.000244 0.32959 0.067383 0.400146 0.067383 0.400146 0.000244 0.32959 0.070068 0.343018 0.308594 0.731934 0.329834 0.801758 0.277344 0.813721 0.308594 0.731934 0.277344 0.813721 0.244385 0.767578 0.308594 0.731934 0.244385 0.767578 0.259277 0.641113 0.26123 0.183838 0.193848 0.098145 0.274902 0.087891 0.274902 0.087891 0.193848 0.098145 0.222412 0.037354 0.274902 0.087891 0.222412 0.037354 0.298096 0.051758 0.298096 0.051758 0.222412 0.037354 0.252197 0.020996 0.298096 0.051758 0.252197 0.020996 0.28125 0.034424 0.298096 0.051758 0.28125 0.034424 0.288574 0.014404 0.288574 0.014404 0.28125 0.034424 0.240967 0 0.326172 0.894531 0.208984 0.894531 0.325684 0.877441 0.325684 0.877441 0.208984 0.894531 0.233154 0.869629 0.325684 0.877441 0.233154 0.869629 0.306641 0.859131 0.325684 0.877441 0.306641 0.859131 0.355225 0.858643 0.275391 0.945312 0.373291 0.945312 0.307617 0.955322 0.863281 0.953857 0.856689 0.969727 0.835693 0.951904 0.863281 0.953857 0.835693 0.951904 0.932373 0.941162 0.932373 0.941162 0.835693 0.951904 0.861084 0.934814 0.680664 0.399414 0.659912 0.431396 0.545898 0.361572 0.680664 0.399414 0.545898 0.361572 0.669922 0.276855 0.669922 0.276855 0.545898 0.361572 0.550293 0.271484 0.550293 0.271484 0.545898 0.361572 0.52124 0.271729 0.545898 0.361572 0.659912 0.431396 0.510986 0.38916 0.52124 0.271729 0.545898 0.361572 0.521729 0.355469 0.521729 0.355469 0.545898 0.361572 0.510986 0.38916 0.52124 0.271729 0.521729 0.355469 0.491943 0.313965 0.491943 0.313965 0.521729 0.355469 0.510986 0.38916 0.491943 0.313965 0.510986 0.38916 0.474365 0.364014 0.474365 0.364014 0.510986 0.38916 0.393555 0.428711 0.347412 0.637451 0.394287 0.669922 0.403076 0.727051 0.403076 0.727051 0.394287 0.669922 0.46582 0.714111 0.46582 0.714111 0.394287 0.669922 0.506592 0.687988 0.506592 0.687988 0.394287 0.669922 0.463623 0.624756 0.506592 0.687988 0.463623 0.624756 0.557861 0.655518 0.46582 0.714111 0.506592 0.687988 0.548828 0.736084 0.403076 0.727051 0.46582 0.714111 0.450195 0.739502 0.46582 0.714111 0.548828 0.736084 0.499268 0.773438 0.46582 0.714111 0.499268 0.773438 0.450195 0.739502 0.499268 0.773438 0.548828 0.736084 0.475098 0.814209 0.403076 0.727051 0.450195 0.739502 0.438477 0.775146 0.438477 0.775146 0.450195 0.739502 0.499268 0.773438 0.438477 0.775146 0.499268 0.773438 0.475098 0.814209 0.403076 0.727051 0.438477 0.775146 0.34668 0.804443 0.438477 0.775146 0.475098 0.814209 0.433594 0.797119 0.438477 0.775146 0.433594 0.797119 0.34668 0.804443 0.4729 0.337158 0.413574 0.366943 0.449951 0.297852 0.407715 0.408447 0.394043 0.383545 0.413574 0.366943 0.413574 0.366943 0.394043 0.383545 0.353271 0.344482 0.353271 0.344482 0.394043 0.383545 0.315186 0.390869 0.449951 0.297852 0.413574 0.366943 0.375732 0.308594 0.375732 0.308594 0.413574 0.366943 0.353271 0.344482 0.375732 0.308594 0.353271 0.344482 0.354004 0.315918 0.354004 0.315918 0.353271 0.344482 0.324463 0.283691 0.354004 0.315918 0.324463 0.283691 0.375732 0.308594 0.375732 0.308594 0.324463 0.283691 0.380371 0.268799 0.375732 0.308594 0.380371 0.268799 0.449951 0.297852 0.380371 0.268799 0.324463 0.283691 0.363281 0.243408 0.449951 0.297852 0.380371 0.268799 0.379639 0.237793 0.379639 0.237793 0.380371 0.268799 0.363281 0.243408 0.449951 0.297852 0.379639 0.237793 0.467529 0.276611 0.379639 0.237793 0.363281 0.243408 0.34375 0.211426 0.467529 0.276611 0.379639 0.237793 0.518066 0.179443 0.379639 0.237793 0.34375 0.211426 0.405273 0.143799 0.379639 0.237793 0.405273 0.143799 0.518066 0.179443 0.757324 0.03125 0.928467 0.03125 0.859863 0.116211 0.119629 0.594971 0.253418 0.546387 0.189209 0.633301 0.189209 0.633301 0.253418 0.546387 0.278076 0.571777 0.189209 0.633301 0.278076 0.571777 0.260498 0.626709 0.558594 0.62085 0.633057 0.64502 0.482178 0.624268 0.558594 0.62085 0.482178 0.624268 0.48584 0.603271 0.558594 0.62085 0.48584 0.603271 0.507324 0.579834 0.48584 0.603271 0.482178 0.624268 0.463623 0.617432 0.507324 0.579834 0.48584 0.603271 0.474365 0.520264 0.474365 0.520264 0.48584 0.603271 0.463623 0.617432 0.474365 0.520264 0.463623 0.617432 0.41748 0.590088 0.41748 0.590088 0.463623 0.617432 0.393799 0.64624 0.474365 0.520264 0.41748 0.590088 0.407227 0.554199 0.41748 0.590088 0.393799 0.64624 0.381592 0.597412 0.41748 0.590088 0.381592 0.597412 0.407227 0.554199 0.407227 0.554199 0.381592 0.597412 0.352783 0.560059 0.352783 0.560059 0.381592 0.597412 0.31958 0.599854 0.352783 0.560059 0.31958 0.599854 0.31958 0.568604 0.285889 0.466309 0.314697 0.577881 0.231445 0.524414 0.285889 0.466309 0.231445 0.524414 0.226807 0.484131 0.226807 0.484131 0.231445 0.524414 0.196289 0.527344 0.285889 0.466309 0.226807 0.484131 0.268066 0.460205 0.285889 0.466309 0.268066 0.460205 0.317139 0.416992 0.317139 0.416992 0.268066 0.460205 0.286133 0.418457 0.286133 0.418457 0.268066 0.460205 0.236572 0.453125 0.236572 0.453125 0.268066 0.460205 0.226807 0.484131 0.286133 0.418457 0.236572 0.453125 0.269287 0.413086 0.269287 0.413086 0.236572 0.453125 0.250244 0.406006 0.236572 0.453125 0.226807 0.484131 0.201172 0.466553 0.201172 0.466553 0.226807 0.484131 0.194092 0.473145 0.195801 0.000488 0.187988 0.115967 0.110352 0.144287 0.195801 0.000488 0.110352 0.144287 0.107422 0.009277 0.047119 0.740967 0.000244 0.707031 0.052979 0.681641 0.365479 0.016113 0.41626 0.097168 0.322998 0.029053 0.322998 0.029053 0.41626 0.097168 0.30249 0.056641 0.134766 0.654053 0.154785 0.66333 0.1604 0.725342 0.134766 0.654053 0.1604 0.725342 0.096924 0.789795 0.134766 0.654053 0.096924 0.789795 0.058594 0.777832 0.134766 0.654053 0.058594 0.777832 0.06543 0.663818 0.992432 0.894043 0.975586 0.88623 0.949219 0.816895 0.949219 0.816895 0.975586 0.88623 0.963623 0.884766 0.992432 0.894043 0.949219 0.816895 0.966309 0.825195 0.966309 0.825195 0.949219 0.816895 0.99292 0.745361 0.949219 0.816895 0.963623 0.884766 0.936035 0.889648 0.949219 0.816895 0.936035 0.889648 0.867188 0.8125 0.867188 0.8125 0.936035 0.889648 0.888428 0.883057 0.867188 0.8125 0.888428 0.883057 0.852539 0.844238 0.963867 0.048096 0.939209 0.066895 0.934814 0.051025 0.934814 0.051025 0.939209 0.066895 0.915771 0.090088 0.939209 0.066895 0.963867 0.048096 0.96875 0.062012 0.915771 0.090088 0.939209 0.066895 0.920898 0.108643 0.920898 0.108643 0.939209 0.066895 0.96875 0.062012 0.915771 0.090088 0.920898 0.108643 0.903076 0.097168 0.903076 0.097168 0.920898 0.108643 0.874756 0.108398 0.874756 0.108398 0.920898 0.108643 0.896973 0.118408 0.920898 0.108643 0.96875 0.062012 0.956055 0.095703 0.956055 0.095703 0.96875 0.062012 0.989014 0.032471 0.896973 0.118408 0.920898 0.108643 0.935059 0.125244 0.935059 0.125244 0.920898 0.108643 0.956055 0.095703 0.896973 0.118408 0.935059 0.125244 0.831299 0.123535 0.935059 0.125244 0.956055 0.095703 0.978516 0.109375 0.935059 0.125244 0.978516 0.109375 0.98291 0.218506 0.123779 0.969482 0.201904 0.944092 0.20752 0.967529 0.029297 0.577881 0.047607 0.600342 0.032959 0.634521 0.032959 0.634521 0.047607 0.600342 0.084229 0.593262 0.084229 0.593262 0.047607 0.600342 0.082031 0.55249 0.082031 0.55249 0.047607 0.600342 0.029297 0.577881 0.082031 0.55249 0.029297 0.577881 0.037354 0.546143 0.767822 0.915527 0.719971 0.970459 0.695068 0.87207 0.695068 0.87207 0.719971 0.970459 0.632812 0.958252 0.872314 0.4021 0.851074 0.429199 0.847656 0.368408 0.872314 0.4021 0.847656 0.368408 0.890381 0.275879 0.890381 0.275879 0.847656 0.368408 0.870117 0.270264 0.870117 0.270264 0.847656 0.368408 0.798584 0.402588 0.870117 0.270264 0.798584 0.402588 0.775391 0.363281 0.870117 0.270264 0.775391 0.363281 0.848145 0.243652 0.870117 0.270264 0.848145 0.243652 0.890381 0.275879 0.890381 0.275879 0.848145 0.243652 0.83252 0.196289 0.51416 0.010498 0.666016 0.018555 0.67041 0.065674 0.785156 0.734619 0.812744 0.724609 0.830322 0.74585 0.785156 0.734619 0.830322 0.74585 0.840088 0.814209 0.830322 0.74585 0.812744 0.724609 0.833496 0.71167 0.840088 0.814209 0.830322 0.74585 0.878906 0.756836 0.840088 0.814209 0.878906 0.756836 0.924561 0.791016 0.830322 0.74585 0.833496 0.71167 0.845703 0.736572 0.830322 0.74585 0.845703 0.736572 0.878906 0.756836 0.924561 0.791016 0.878906 0.756836 0.898438 0.750732 0.898438 0.750732 0.878906 0.756836 0.845703 0.736572 0.924561 0.791016 0.898438 0.750732 0.958984 0.787109 0.958984 0.787109 0.898438 0.750732 0.967529 0.756592 0.898438 0.750732 0.845703 0.736572 0.90625 0.730713 0.90625 0.730713 0.845703 0.736572 0.833496 0.71167 0.898438 0.750732 0.90625 0.730713 0.967529 0.756592 0.90625 0.730713 0.833496 0.71167 0.913818 0.713867 0.90625 0.730713 0.913818 0.713867 0.967529 0.756592 0.913818 0.713867 0.833496 0.71167 0.886475 0.678955 0.967529 0.756592 0.913818 0.713867 0.965576 0.738525 0.913818 0.713867 0.886475 0.678955 0.936523 0.6875 0.913818 0.713867 0.936523 0.6875 0.965576 0.738525 0.936523 0.6875 0.886475 0.678955 0.935303 0.628906 0.935303 0.628906 0.886475 0.678955 0.879883 0.609619 0.936523 0.6875 0.935303 0.628906 0.980713 0.664795 0.965576 0.738525 0.936523 0.6875 0.9646 0.690674 0.9646 0.690674 0.936523 0.6875 0.980713 0.664795 0.965576 0.738525 0.9646 0.690674 0.98877 0.690674 0.98877 0.690674 0.9646 0.690674 0.980713 0.664795 0.002197 0.717041 0.042969 0.746826 0.004395 0.740723 0 0.69043 0.002197 0.631104 0.054199 0.675049 0.054199 0.675049 0.002197 0.631104 0.01001 0.61377 0.62085 0.926514 0.58374 0.893311 0.700195 0.857666 0.069336 0.275146 0.189697 0.314209 0.077637 0.381348 0.431152 0.029297 0.453369 0.036621 0.425293 0.075195 0.425293 0.075195 0.453369 0.036621 0.420898 0.098877 0.420898 0.098877 0.453369 0.036621 0.491943 0.102783 0.491943 0.102783 0.453369 0.036621 0.529785 0.030273 0.491943 0.102783 0.529785 0.030273 0.540527 0.064209 0.540527 0.064209 0.529785 0.030273 0.56543 0.038818 0.491943 0.102783 0.540527 0.064209 0.505859 0.115967 0.491943 0.102783 0.505859 0.115967 0.478271 0.157227 0.540527 0.064209 0.56543 0.038818 0.540039 0.180176 0.478271 0.157227 0.505859 0.115967 0.540039 0.180176 0.540039 0.180176 0.505859 0.115967 0.540527 0.064209 0.540039 0.180176 0.56543 0.038818 0.627197 0.057373 0.540039 0.180176 0.627197 0.057373 0.574463 0.19043 0.227539 0.898682 0.268555 0.903076 0.205322 0.929932 0.205322 0.929932 0.268555 0.903076 0.214355 0.970703</float_array>
          <technique_common>
            <accessor source="#ThinFilletOfFish-mesh-map-0-array" count="1494" stride="2">
              <param name="S" type="float"/>
              <param name="T" type="float"/>
            </accessor>
          </technique_common>
        </source>
        <vertices id="ThinFilletOfFish-mesh-vertices">
          <input semantic="POSITION" source="#ThinFilletOfFish-mesh-positions"/>
        </vertices>
        <polylist material="Material_-1-material" count="6">
          <input semantic="VERTEX" source="#ThinFilletOfFish-mesh-vertices" offset="0"/>
          <input semantic="NORMAL" source="#ThinFilletOfFish-mesh-normals" offset="1"/>
          <input semantic="TEXCOORD" source="#ThinFilletOfFish-mesh-map-0" offset="2" set="0"/>
          <vcount>3 3 3 3 3 3 3 3 3 3 3 3 3 3 3 3 3 3 3 3 3 3 3 3 3 3 3 3 3 3 3 3 3 3 3 3 3 3 3 3 3 3 3 3 3 3 3 3 3 3 3 3 3 3 3 3 3 3 3 3 3 3 3 3 3 3 3 3 3 3 3 3 3 3 3 3 3 3 3 3 3 3 3 3 3 3 3 3 3 3 3 3 3 3 3 3 3 3 3 3 3 3 3 3 3 3 3 3 3 3 3 3 3 3 3 3 3 3 3 3 3 3 3 3 3 3 3 3 3 3 3 3 3 3 3 3 3 3 3 3 3 3 3 3 3 3 3 3 3 3 3 3 3 3 3 3 3 3 3 3 3 3 3 3 3 3 3 3 3 3 3 3 3 3 3 3 3 3 3 3 3 3 3 3 3 3 3 3 3 3 3 3 3 3 3 3 3 3 3 3 3 3 3 3 3 3 3 3 3 3 3 3 3 3 3 3 3 3 3 3 3 3 3 3 3 3 3 3 3 3 3 3 3 3 3 3 3 3 3 3 3 3 3 3 3 3 3 3 3 3 3 3 3 3 3 3 3 3 3 3 3 3 3 3 3 3 3 3 3 3 3 3 3 3 3 3 3 3 3 3 3 3 3 3 3 3 3 3 3 3 3 3 3 3 3 3 3 3 3 3 3 3 3 3 3 3 3 3 3 3 3 3 3 3 3 3 3 3 3 3 3 3 3 3 3 3 3 3 3 3 3 3 3 3 3 3 3 3 3 3 3 3 3 3 3 3 3 3 3 3 3 3 3 3 3 3 3 3 3 3 3 3 3 3 3 3 3 3 3 3 3 3 3 3 3 3 3 3 3 3 3 3 3 3 3 3 3 3 3 3 3 3 3 3 3 3 3 3 3 3 3 3 3 3 3 3 3 3 3 3 3 3 3 3 3 3 3 3 3 3 3 3 3 3 3 3 3 3 3 3 3 3 3 3 3 3 3 3 3 3 3 3 3 3 3 3 3 3 3 3 3 3 3 3 3 3 3 3 3 3 3 3 3 3 3 3 3 3 3 3 3 3 3 3 3 3 3 3 3 3 3 3 3 3 3 3 3 3 3 3 3 3 3 3 3 3 3 3</vcount>
          <p>0 0 0 1 0 1 2 0 2 2 1 3 1 1 4 3 1 5 0 2 6 2 2 7 4 2 8 3 3 9 1 3 10 5 3 11 3 4 12 5 4 13 6 4 14 3 5 15 6 5 16 7 5 17 5 6 18 1 6 19 8 6 20 8 7 21 1 7 22 0 7 23 8 8 24 0 8 25 9 8 26 9 9 27 0 9 28 10 9 29 0 10 30 4 10 31 11 10 32 0 11 33 11 11 34 10 11 35 11 12 36 4 12 37 12 12 38 10 13 39 11 13 40 13 13 41 12 14 42 13 14 43 11 14 44 13 15 45 12 15 46 14 15 47 14 16 48 12 16 49 15 16 50 14 17 51 15 17 52 16 17 53 2 18 54 3 18 55 17 18 56 17 19 57 3 19 58 18 19 59 18 20 60 3 20 61 7 20 62 2 21 63 17 21 64 4 21 65 4 22 66 17 22 67 19 22 68 4 23 69 19 23 70 20 23 71 4 24 72 20 24 73 15 24 74 4 25 75 15 25 76 12 25 77 15 26 78 20 26 79 21 26 80 21 27 81 20 27 82 22 27 83 21 28 84 22 28 85 23 28 86 15 29 87 21 29 88 24 29 89 24 30 90 21 30 91 23 30 92 15 31 93 24 31 94 25 31 95 25 32 96 24 32 97 23 32 98 15 33 99 25 33 100 16 33 101 25 34 102 23 34 103 26 34 104 25 35 105 26 35 106 16 35 107 8 36 108 27 36 109 5 36 110 5 37 111 27 37 112 6 37 113 6 38 114 27 38 115 28 38 116 28 39 117 27 39 118 29 39 119 29 40 120 27 40 121 8 40 122 29 41 123 8 41 124 30 41 125 30 42 126 8 42 127 9 42 128 30 43 129 9 43 130 10 43 131 29 44 132 30 44 133 31 44 134 30 45 135 10 45 136 13 45 137 30 46 138 13 46 139 31 46 140 29 47 141 31 47 142 32 47 143 32 48 144 31 48 145 13 48 146 29 49 147 32 49 148 33 49 149 32 50 150 13 50 151 34 50 152 34 51 153 13 51 154 35 51 155 35 52 156 13 52 157 14 52 158 35 53 159 14 53 160 16 53 161 35 54 162 16 54 163 36 54 164 34 55 165 37 55 166 32 55 167 32 56 168 37 56 169 33 56 170 38 57 171 29 57 172 33 57 173 29 58 174 38 58 175 28 58 176 28 59 177 38 59 178 39 59 179 39 60 180 38 60 181 40 60 182 39 61 183 40 61 184 41 61 185 39 62 186 41 62 187 42 62 188 42 63 189 41 63 190 43 63 191 41 64 192 40 64 193 44 64 194 41 65 195 44 65 196 45 65 197 40 66 198 38 66 199 46 66 200 40 67 201 46 67 202 44 67 203 46 68 204 38 68 205 33 68 206 45 69 207 44 69 208 47 69 209 47 70 210 44 70 211 46 70 212 45 71 213 47 71 214 48 71 215 46 72 216 33 72 217 37 72 218 48 73 219 47 73 220 49 73 221 49 74 222 47 74 223 46 74 224 46 75 225 37 75 226 50 75 227 46 76 228 50 76 229 49 76 230 50 77 231 37 77 232 34 77 233 50 78 234 34 78 235 51 78 236 49 79 237 50 79 238 52 79 239 52 80 240 50 80 241 51 80 242 49 81 243 52 81 244 53 81 245 52 82 246 51 82 247 54 82 248 52 83 249 54 83 250 55 83 251 54 84 252 51 84 253 35 84 254 54 85 255 35 85 256 56 85 257 28 86 258 39 86 259 6 86 260 6 87 261 39 87 262 42 87 263 6 88 264 42 88 265 57 88 266 57 89 267 42 89 268 43 89 269 35 90 270 51 90 271 34 90 272 7 91 273 6 91 274 57 91 275 36 92 276 16 92 277 58 92 278 36 93 279 58 93 280 59 93 281 59 94 282 58 94 283 60 94 284 36 95 285 59 95 286 61 95 287 61 96 288 59 96 289 62 96 290 16 97 291 26 97 292 58 97 293 26 98 294 63 98 295 58 98 296 63 99 297 26 99 298 23 99 299 63 100 300 64 100 301 58 100 302 58 101 303 64 101 304 60 101 305 62 102 306 59 102 307 60 102 308 62 103 309 60 103 310 65 103 311 60 104 312 64 104 313 66 104 314 65 105 315 60 105 316 67 105 317 67 106 318 60 106 319 66 106 320 65 107 321 67 107 322 68 107 323 68 108 324 67 108 325 69 108 326 67 109 327 66 109 328 70 109 329 67 110 330 70 110 331 69 110 332 70 111 333 66 111 334 64 111 335 69 112 336 70 112 337 71 112 338 71 113 339 70 113 340 64 113 341 71 114 342 64 114 343 72 114 344 71 115 345 72 115 346 73 115 347 73 116 348 72 116 349 74 116 350 19 117 351 17 117 352 18 117 353 19 118 354 18 118 355 75 118 356 75 119 357 18 119 358 76 119 359 19 120 360 75 120 361 77 120 362 77 121 363 75 121 364 78 121 365 77 122 366 78 122 367 79 122 368 77 123 369 79 123 370 80 123 371 77 124 372 80 124 373 81 124 374 19 125 375 77 125 376 82 125 377 82 126 378 77 126 379 81 126 380 19 127 381 82 127 382 20 127 383 20 128 384 82 128 385 22 128 386 22 129 387 82 129 388 83 129 389 82 130 390 81 130 391 84 130 392 82 131 393 84 131 394 83 131 395 84 132 396 81 132 397 85 132 398 84 133 399 85 133 400 83 133 401 78 134 402 75 134 403 76 134 404 78 135 405 76 135 406 86 135 407 78 136 408 86 136 409 87 136 410 78 137 411 87 137 412 79 137 413 87 138 414 86 138 415 88 138 416 88 139 417 86 139 418 89 139 419 87 140 420 88 140 421 90 140 422 79 141 423 87 141 424 91 141 425 91 142 426 87 142 427 90 142 428 79 143 429 91 143 430 80 143 431 91 144 432 90 144 433 92 144 434 80 145 435 91 145 436 93 145 437 93 146 438 91 146 439 92 146 440 80 147 441 93 147 442 81 147 443 81 148 444 93 148 445 85 148 446 85 149 447 93 149 448 92 149 449 85 150 450 92 150 451 74 150 452 85 151 453 74 151 454 72 151 455 85 152 456 72 152 457 83 152 458 83 153 459 72 153 460 22 153 461 22 154 462 72 154 463 64 154 464 22 155 465 64 155 466 63 155 467 76 156 468 18 156 469 94 156 470 94 157 471 18 157 472 7 157 473 76 158 474 94 158 475 95 158 476 76 159 477 95 159 478 86 159 479 7 160 480 96 160 481 94 160 482 96 161 483 7 161 484 57 161 485 96 162 486 57 162 487 97 162 488 23 163 489 22 163 490 63 163 491 90 164 492 88 164 493 98 164 494 98 165 495 88 165 496 89 165 497 98 166 498 89 166 499 99 166 500 99 167 501 89 167 502 100 167 503 90 168 504 98 168 505 101 168 506 101 169 507 98 169 508 99 169 509 90 170 510 101 170 511 74 170 512 101 171 513 99 171 514 102 171 515 101 172 516 102 172 517 103 172 518 101 173 519 103 173 520 74 173 521 103 174 522 102 174 523 104 174 524 103 175 525 104 175 526 74 175 527 74 176 528 104 176 529 73 176 530 90 177 531 74 177 532 92 177 533 86 178 534 95 178 535 89 178 536 45 179 537 105 179 538 41 179 539 41 180 540 105 180 541 106 180 542 41 181 543 106 181 544 43 181 545 105 182 546 45 182 547 107 182 548 107 183 549 45 183 550 48 183 551 105 184 552 107 184 553 108 184 554 105 185 555 108 185 556 109 185 557 108 186 558 107 186 559 110 186 560 110 187 561 107 187 562 48 187 563 110 188 564 48 188 565 53 188 566 53 189 567 48 189 568 49 189 569 110 190 570 53 190 571 111 190 572 111 191 573 53 191 574 55 191 575 55 192 576 53 192 577 52 192 578 111 193 579 55 193 580 112 193 581 111 194 582 112 194 583 113 194 584 54 195 585 114 195 586 55 195 587 55 196 588 114 196 589 112 196 590 112 197 591 114 197 592 115 197 593 115 198 594 114 198 595 116 198 596 116 199 597 114 199 598 54 199 599 116 200 600 54 200 601 56 200 602 116 201 603 56 201 604 61 201 605 116 202 606 61 202 607 117 202 608 117 203 609 61 203 610 62 203 611 35 204 612 36 204 613 56 204 614 36 205 615 61 205 616 56 205 617 43 206 618 118 206 619 57 206 620 117 207 621 62 207 622 65 207 623 117 208 624 65 208 625 119 208 626 117 209 627 119 209 628 120 209 629 119 210 630 65 210 631 68 210 632 119 211 633 68 211 634 121 211 635 119 212 636 121 212 637 122 212 638 122 213 639 121 213 640 123 213 641 121 214 642 68 214 643 124 214 644 121 215 645 124 215 646 123 215 647 124 216 648 68 216 649 69 216 650 123 217 651 124 217 652 125 217 653 124 218 654 69 218 655 126 218 656 124 219 657 126 219 658 125 219 659 126 220 660 69 220 661 127 220 662 125 221 663 126 221 664 128 221 665 128 222 666 126 222 667 127 222 668 96 223 669 129 223 670 94 223 671 94 224 672 129 224 673 95 224 674 95 225 675 129 225 676 130 225 677 95 226 678 130 226 679 131 226 680 69 227 681 71 227 682 73 227 683 69 228 684 73 228 685 127 228 686 95 229 687 131 229 688 89 229 689 100 230 690 89 230 691 131 230 692 100 231 693 131 231 694 132 231 695 100 232 696 132 232 697 133 232 698 100 233 699 133 233 700 134 233 701 100 234 702 134 234 703 99 234 704 134 235 705 133 235 706 135 235 707 99 236 708 134 236 709 136 236 710 136 237 711 134 237 712 135 237 713 99 238 714 136 238 715 102 238 716 136 239 717 135 239 718 137 239 719 102 240 720 136 240 721 104 240 722 104 241 723 136 241 724 137 241 725 104 242 726 137 242 727 138 242 728 104 243 729 138 243 730 73 243 731 73 244 732 138 244 733 128 244 734 73 245 735 128 245 736 127 245 737 57 246 738 118 246 739 97 246 740 96 247 741 97 247 742 139 247 743 139 248 744 97 248 745 140 248 746 96 249 747 139 249 748 129 249 749 132 250 750 131 250 751 130 250 752 132 251 753 130 251 754 141 251 755 141 252 756 130 252 757 142 252 758 141 253 759 142 253 760 143 253 761 142 254 762 130 254 763 144 254 764 144 255 765 130 255 766 129 255 767 144 256 768 129 256 769 145 256 770 145 257 771 129 257 772 139 257 773 132 258 774 135 258 775 133 258 776 135 259 777 132 259 778 141 259 779 135 260 780 141 260 781 146 260 782 146 261 783 141 261 784 143 261 785 135 262 786 146 262 787 147 262 788 147 263 789 146 263 790 148 263 791 135 264 792 147 264 793 137 264 794 147 265 795 148 265 796 149 265 797 137 266 798 147 266 799 138 266 800 138 267 801 147 267 802 149 267 803 138 268 804 149 268 805 150 268 806 138 269 807 150 269 808 151 269 809 138 270 810 151 270 811 128 270 812 128 271 813 151 271 814 125 271 815 110 272 816 152 272 817 108 272 818 152 273 819 110 273 820 111 273 821 152 274 822 111 274 823 113 274 824 108 275 825 152 275 826 153 275 827 108 276 828 153 276 829 109 276 830 152 277 831 113 277 832 154 277 833 153 278 834 152 278 835 155 278 836 155 279 837 152 279 838 154 279 839 155 280 840 154 280 841 156 280 842 153 281 843 155 281 844 157 281 845 157 282 846 155 282 847 158 282 848 153 283 849 157 283 850 159 283 851 153 284 852 159 284 853 109 284 854 159 285 855 157 285 856 160 285 857 159 286 858 160 286 859 106 286 860 159 287 861 106 287 862 109 287 863 109 288 864 106 288 865 105 288 866 161 289 867 154 289 868 113 289 869 154 290 870 161 290 871 162 290 872 162 291 873 161 291 874 163 291 875 161 292 876 113 292 877 164 292 878 161 293 879 164 293 880 163 293 881 164 294 882 113 294 883 112 294 884 164 295 885 112 295 886 115 295 887 164 296 888 115 296 889 163 296 890 163 297 891 115 297 892 165 297 893 165 298 894 115 298 895 116 298 896 156 299 897 158 299 898 155 299 899 158 300 900 156 300 901 166 300 902 166 301 903 156 301 904 162 301 905 162 302 906 156 302 907 154 302 908 167 303 909 43 303 910 106 303 911 167 304 912 118 304 913 43 304 914 118 305 915 167 305 916 97 305 917 167 306 918 106 306 919 168 306 920 168 307 921 106 307 922 160 307 923 167 308 924 168 308 925 169 308 926 167 309 927 169 309 928 140 309 929 167 310 930 140 310 931 97 310 932 116 311 933 170 311 934 165 311 935 165 312 936 170 312 937 171 312 938 165 313 939 171 313 940 163 313 941 163 314 942 171 314 943 172 314 944 163 315 945 172 315 946 173 315 947 163 316 948 173 316 949 162 316 950 162 317 951 173 317 952 174 317 953 170 318 954 116 318 955 175 318 956 175 319 957 116 319 958 117 319 959 175 320 960 117 320 961 120 320 962 175 321 963 120 321 964 176 321 965 120 322 966 119 322 967 122 322 968 177 323 969 160 323 970 157 323 971 177 324 972 157 324 973 178 324 974 178 325 975 157 325 976 158 325 977 160 326 978 177 326 979 179 326 980 160 327 981 179 327 982 168 327 983 168 328 984 179 328 985 180 328 986 180 329 987 179 329 988 181 329 989 179 330 990 177 330 991 178 330 992 181 331 993 179 331 994 182 331 995 182 332 996 179 332 997 178 332 998 181 333 999 182 333 1000 183 333 1001 183 334 1002 182 334 1003 178 334 1004 183 335 1005 178 335 1006 166 335 1007 166 336 1008 178 336 1009 158 336 1010 173 337 1011 172 337 1012 174 337 1013 174 338 1014 172 338 1015 184 338 1016 184 339 1017 172 339 1018 185 339 1019 185 340 1020 172 340 1021 171 340 1022 185 341 1023 171 341 1024 186 341 1025 184 342 1026 185 342 1027 187 342 1028 174 343 1029 184 343 1030 188 343 1031 184 344 1032 187 344 1033 189 344 1034 184 345 1035 189 345 1036 188 345 1037 189 346 1038 187 346 1039 183 346 1040 174 347 1041 188 347 1042 190 347 1043 190 348 1044 188 348 1045 189 348 1046 190 349 1047 189 349 1048 183 349 1049 174 350 1050 190 350 1051 162 350 1052 190 351 1053 183 351 1054 166 351 1055 190 352 1056 166 352 1057 162 352 1058 183 353 1059 187 353 1060 181 353 1061 185 354 1062 186 354 1063 187 354 1064 187 355 1065 186 355 1066 191 355 1067 191 356 1068 186 356 1069 192 356 1070 181 357 1071 187 357 1072 193 357 1073 193 358 1074 187 358 1075 191 358 1076 193 359 1077 191 359 1078 194 359 1079 194 360 1080 191 360 1081 195 360 1082 194 361 1083 195 361 1084 193 361 1085 193 362 1086 195 362 1087 196 362 1088 193 363 1089 196 363 1090 181 363 1091 196 364 1092 195 364 1093 197 364 1094 181 365 1095 196 365 1096 198 365 1097 198 366 1098 196 366 1099 197 366 1100 181 367 1101 198 367 1102 180 367 1103 198 368 1104 197 368 1105 199 368 1106 180 369 1107 198 369 1108 168 369 1109 198 370 1110 199 370 1111 169 370 1112 198 371 1113 169 371 1114 168 371 1115 170 372 1116 186 372 1117 171 372 1118 186 373 1119 170 373 1120 192 373 1121 192 374 1122 170 374 1123 175 374 1124 192 375 1125 175 375 1126 176 375 1127 176 376 1128 120 376 1129 200 376 1130 176 377 1131 200 377 1132 201 377 1133 176 378 1134 201 378 1135 192 378 1136 201 379 1137 200 379 1138 202 379 1139 192 380 1140 201 380 1141 191 380 1142 191 381 1143 201 381 1144 202 381 1145 191 382 1146 202 382 1147 203 382 1148 203 383 1149 202 383 1150 204 383 1151 191 384 1152 203 384 1153 195 384 1154 203 385 1155 204 385 1156 205 385 1157 203 386 1158 205 386 1159 195 386 1160 195 387 1161 205 387 1162 197 387 1163 197 388 1164 205 388 1165 206 388 1166 197 389 1167 206 389 1168 199 389 1169 145 390 1170 139 390 1171 207 390 1172 145 391 1173 207 391 1174 208 391 1175 208 392 1176 207 392 1177 209 392 1178 145 393 1179 208 393 1180 210 393 1181 145 394 1182 210 394 1183 144 394 1184 144 395 1185 210 395 1186 142 395 1187 142 396 1188 210 396 1189 211 396 1190 211 397 1191 210 397 1192 208 397 1193 142 398 1194 211 398 1195 143 398 1196 143 399 1197 211 399 1198 146 399 1199 211 400 1200 208 400 1201 212 400 1202 212 401 1203 208 401 1204 213 401 1205 139 402 1206 140 402 1207 214 402 1208 139 403 1209 214 403 1210 207 403 1211 122 404 1212 123 404 1213 215 404 1214 123 405 1215 125 405 1216 216 405 1217 216 406 1218 125 406 1219 217 406 1220 151 407 1221 150 407 1222 218 407 1223 151 408 1224 218 408 1225 219 408 1226 151 409 1227 219 409 1228 217 409 1229 151 410 1230 217 410 1231 125 410 1232 150 411 1233 149 411 1234 220 411 1235 220 412 1236 149 412 1237 148 412 1238 150 413 1239 220 413 1240 218 413 1241 218 414 1242 220 414 1243 221 414 1244 220 415 1245 148 415 1246 146 415 1247 220 416 1248 146 416 1249 222 416 1250 222 417 1251 146 417 1252 211 417 1253 222 418 1254 211 418 1255 212 418 1256 212 419 1257 223 419 1258 222 419 1259 222 420 1260 223 420 1261 224 420 1262 223 421 1263 212 421 1264 213 421 1265 224 422 1266 223 422 1267 225 422 1268 225 423 1269 223 423 1270 213 423 1271 224 424 1272 225 424 1273 226 424 1274 226 425 1275 225 425 1276 227 425 1277 227 426 1278 225 426 1279 228 426 1280 225 427 1281 213 427 1282 209 427 1283 209 428 1284 213 428 1285 208 428 1286 228 429 1287 225 429 1288 229 429 1289 229 430 1290 225 430 1291 209 430 1292 228 431 1293 229 431 1294 230 431 1295 229 432 1296 209 432 1297 207 432 1298 229 433 1299 207 433 1300 214 433 1301 218 434 1302 221 434 1303 219 434 1304 222 435 1305 231 435 1306 220 435 1307 220 436 1308 231 436 1309 221 436 1310 221 437 1311 231 437 1312 232 437 1313 232 438 1314 231 438 1315 222 438 1316 232 439 1317 222 439 1318 224 439 1319 140 440 1320 169 440 1321 214 440 1322 214 441 1323 169 441 1324 199 441 1325 120 442 1326 122 442 1327 215 442 1328 120 443 1329 215 443 1330 200 443 1331 200 444 1332 215 444 1333 233 444 1334 233 445 1335 215 445 1336 123 445 1337 233 446 1338 123 446 1339 216 446 1340 233 447 1341 216 447 1342 234 447 1343 233 448 1344 234 448 1345 200 448 1346 200 449 1347 234 449 1348 235 449 1349 234 450 1350 216 450 1351 217 450 1352 199 451 1353 206 451 1354 236 451 1355 199 452 1356 236 452 1357 214 452 1358 236 453 1359 206 453 1360 204 453 1361 214 454 1362 236 454 1363 237 454 1364 214 455 1365 237 455 1366 230 455 1367 236 456 1368 204 456 1369 238 456 1370 236 457 1371 238 457 1372 237 457 1373 230 458 1374 237 458 1375 239 458 1376 239 459 1377 237 459 1378 238 459 1379 230 460 1380 239 460 1381 240 460 1382 240 461 1383 239 461 1384 227 461 1385 239 462 1386 238 462 1387 241 462 1388 241 463 1389 238 463 1390 204 463 1391 239 464 1392 241 464 1393 227 464 1394 241 465 1395 204 465 1396 242 465 1397 241 466 1398 242 466 1399 227 466 1400 242 467 1401 204 467 1402 243 467 1403 227 468 1404 242 468 1405 244 468 1406 242 469 1407 243 469 1408 245 469 1409 242 470 1410 245 470 1411 244 470 1412 245 471 1413 243 471 1414 235 471 1415 235 472 1416 243 472 1417 200 472 1418 245 473 1419 235 473 1420 246 473 1421 244 474 1422 245 474 1423 247 474 1424 247 475 1425 245 475 1426 246 475 1427 244 476 1428 247 476 1429 248 476 1430 248 477 1431 247 477 1432 246 477 1433 206 478 1434 205 478 1435 204 478 1436 204 479 1437 202 479 1438 243 479 1439 243 480 1440 202 480 1441 200 480 1442 235 481 1443 234 481 1444 217 481 1445 230 482 1446 229 482 1447 214 482 1448 227 483 1449 244 483 1450 226 483 1451 226 484 1452 244 484 1453 224 484 1454 224 485 1455 244 485 1456 232 485 1457 232 486 1458 244 486 1459 248 486 1460 232 487 1461 248 487 1462 249 487 1463 249 488 1464 248 488 1465 246 488 1466 232 489 1467 249 489 1468 250 489 1469 232 490 1470 250 490 1471 221 490 1472 249 491 1473 246 491 1474 219 491 1475 221 492 1476 250 492 1477 219 492 1478 219 493 1479 250 493 1480 249 493 1481 219 494 1482 246 494 1483 235 494 1484 219 495 1485 235 495 1486 217 495 1487 227 496 1488 228 496 1489 240 496 1490 240 497 1491 228 497 1492 230 497 1493</p>
        </polylist>
      </mesh>
    </geometry>
  </library_geometries>
  <library_visual_scenes>
    <visual_scene id="Scene" name="Scene">
      <node id="ThinFilletOfFish" name="ThinFilletOfFish" type="NODE">
        <scale sid="scale">1 1 1</scale>
        <translate sid="location">0 0 0</translate>
        <rotate sid="rotationX">1 0 0 0</rotate>
        <rotate sid="rotationY">0 1 0 -90</rotate>
        <rotate sid="rotationZ">0 0 1 0</rotate>
        <instance_geometry url="#ThinFilletOfFish-mesh" name="ThinFilletOfFish">
          <bind_material>
            <technique_common>
            </technique_common>
          </bind_material>
        </instance_geometry>
      </node>
    </visual_scene>
  </library_visual_scenes>
  <scene>
    <instance_visual_scene url="#Scene"/>
  </scene>
</COLLADA>
