<?xml version="1.0" encoding="utf-8"?>
<COLLADA xmlns="http://www.collada.org/2005/11/COLLADASchema" version="1.4.1" xmlns:xsi="http://www.w3.org/2001/XMLSchema-instance">
  <asset>
    <contributor>
      <author>Blockbench user</author>
      <authoring_tool>Blockbench</authoring_tool>
    </contributor>
    <created>2026-07-05T06:00:55.864Z</created>
    <modified>2026-07-05T06:00:55.874Z</modified>
    <unit name="meter" meter="1.0"/>
    <up_axis>Y_UP</up_axis>
  </asset>
  <library_effects>
  </library_effects>
  <library_images>
  </library_images>
  <library_materials>
  </library_materials>
  <library_geometries>
    <geometry id="TrashBin1-mesh" name="TrashBin1">
      <mesh>
        <source id="TrashBin1-mesh-positions">
          <float_array id="TrashBin1-mesh-positions-array" count="774">-0.283165 -0.487716 -0.271713 -0.259684 -0.465352 -0.274033 -0.072364 -0.480407 -0.379306 -0.109429 -0.463331 -0.355366 -0.37799 -0.492243 -0.125909 0.21466 -0.483457 -0.311838 -0.394738 -0.490076 0.057658 -0.358555 -0.466231 -0.16135 -0.395549 -0.469193 -0.013668 -0.355913 -0.465454 0.160973 -0.371634 -0.27104 0.145244 -0.378935 -0.296104 -0.071965 -0.383771 -0.181967 0.063871 -0.357773 -0.18981 -0.133953 -0.391566 -0.155721 -0.085471 -0.394514 -0.149817 0.081553 -0.353466 -0.158628 0.206025 -0.385697 0.139146 0.098352 -0.311341 -0.160882 -0.248395 -0.223717 -0.157335 -0.31801 -0.088219 -0.135806 -0.363336 -0.007036 -0.15817 -0.385915 -0.141999 -0.18498 -0.343365 -0.278416 -0.295277 -0.248171 -0.135285 -0.284711 -0.356434 0.031095 -0.467039 -0.375907 0.126651 -0.464862 -0.355091 0.100369 -0.269536 -0.358968 0.168546 -0.158396 -0.340527 0.074167 -0.139618 -0.362543 0.261591 -0.14929 -0.27085 0.260121 0.144241 -0.26073 0.347567 -0.145315 -0.133385 0.278699 -0.181644 -0.232753 0.358213 -0.184466 -0.053903 0.277416 -0.461833 -0.231413 0.308501 -0.463126 -0.180044 0.365922 -0.486516 -0.081164 0.36276 -0.467557 -0.054082 0.356267 -0.262288 -0.08593 -0.244534 0.156499 -0.306584 -0.378453 0.161669 -0.145627 -0.240426 0.188041 -0.296524 -0.114039 0.161538 -0.376971 -0.370528 0.189843 -0.11709 -0.331484 0.403284 -0.201338 -0.170003 0.406798 -0.34149 -0.11004 0.281783 -0.365854 -0.320029 0.430021 -0.249352 -0.407789 0.437538 -0.121969 -0.18698 0.429081 -0.354317 -0.175616 0.42784 -0.331644 -0.28984 0.436813 -0.250595 -0.364278 0.435898 -0.120687 -0.303493 0.324562 -0.224195 -0.165083 0.331118 -0.331748 -0.181199 0.401198 -0.298241 -0.144764 0.407553 -0.290033 -0.141386 0.361769 -0.29658 -0.064842 0.35463 -0.270489 -0.197953 0.337614 -0.211888 -0.373113 0.322449 -0.082402 -0.26424 0.34318 -0.103354 -0.399028 0.164709 0.085501 -0.390815 0.184812 -0.019438 0.078686 0.141199 -0.367046 0.057691 0.170856 -0.380395 0.253079 0.164504 -0.283854 0.086966 0.263505 -0.370171 0.232468 0.184019 -0.281508 -0.375051 0.185293 0.121875 0.208564 -0.490688 0.331781 0.35106 -0.488097 0.147277 0.3584 -0.46676 0.061536 0.315759 -0.471452 0.218138 0.209841 -0.468812 0.322385 0.333183 -0.293937 0.167984 0.228541 -0.159144 0.317893 0.346294 -0.187476 0.113702 0.377654 -0.156792 0.062535 0.324145 -0.148742 0.204307 0.356657 -0.13067 0.074451 0.355307 0.146906 -0.104702 0.37613 0.16829 -0.07184 0.357711 0.140763 0.072963 0.375096 0.165892 0.079739 0.358396 0.404168 -0.056661 0.286469 0.405676 -0.226737 -0.324954 -0.48499 0.244687 -0.190181 -0.492618 0.356549 -0.009656 -0.4932 0.397592 -0.230936 -0.46531 0.315183 -0.096899 -0.467376 0.375021 -0.24865 -0.312663 0.297179 -0.107371 -0.28085 0.381969 -0.298408 -0.180684 0.258904 -0.121203 -0.180323 0.368504 -0.280261 -0.149706 0.290222 0.093843 -0.195099 0.372478 0.143554 -0.280732 0.365376 0.053132 -0.470183 0.376745 -0.277085 0.140872 0.283612 -0.2813 0.170642 0.291937 -0.324484 0.404669 0.219675 -0.258782 0.289052 0.301586 -0.064443 0.156596 0.393548 -0.167808 0.171568 0.366627 -0.076947 0.195353 0.38114 -0.174767 0.406655 0.348872 -0.386883 0.405366 0.056355 -0.413948 0.422874 0.091201 -0.305911 0.424559 0.277687 -0.217315 0.432988 0.344557 -0.085837 0.428135 0.399082 -0.339694 0.446954 0.216533 -0.322274 0.441331 0.213201 -0.285349 0.412966 0.260547 -0.390863 0.433906 0.035406 -0.203574 0.408694 0.325761 0.048332 0.435139 0.400165 -0.328408 0.316844 0.193837 -0.386794 0.31119 0.05144 -0.233518 0.314121 0.317293 -0.071209 0.318178 0.38164 -0.157198 0.337904 0.282271 -0.227991 0.337579 0.144527 -0.139284 0.35486 0.254102 -0.049428 0.330296 0.308969 -0.19693 0.395622 0.1824 -0.18899 0.331915 0.105854 -0.2789 0.343327 0.10491 -0.098896 -0.151541 0.390768 0.06191 -0.150386 0.392525 0.071668 0.140808 0.377878 0.160025 0.167774 0.359298 0.227721 -0.137231 0.301919 0.229967 0.142619 0.29433 0.20205 0.1883 0.318355 0.131664 0.189087 0.354808 0.052768 0.406266 0.379521 0.230632 0.405963 0.292961 0.221211 0.426057 0.327181 0.301082 0.164979 0.248398 0.278104 0.248513 0.245654 0.322058 0.183133 0.176498 -0.40318 0.430037 -0.085478 -0.382007 0.324753 0.007299 -0.244079 0.328364 -0.01389 -0.115489 0.365565 -0.01997 -0.241488 0.362969 -0.006145 -0.154302 0.35049 0.033745 -0.241503 0.384636 0.057347 -0.175755 0.340594 0.080091 -0.205255 0.353044 -0.184057 -0.068766 0.353978 -0.229762 -0.071405 0.347881 -0.083075 -0.005469 0.344348 -0.083646 -0.013945 0.35829 -0.07341 -0.015956 0.347176 -0.026257 -0.076938 0.342885 0.039382 -0.117047 0.348118 0.068514 -0.064206 0.43028 -0.366486 0.047021 0.430956 -0.391425 0.08759 0.429493 -0.3571 0.024862 0.328874 -0.372481 -0.128312 0.39334 -0.332182 -0.184996 0.487968 -0.154771 -0.148648 0.486536 -0.217124 -0.173575 0.402044 -0.207591 -0.147992 0.483897 -0.14793 -0.128921 0.451413 -0.199094 -0.15576 0.413672 -0.161698 -0.085761 0.48765 -0.171182 -0.110266 0.427537 -0.214265 -0.197949 0.431614 -0.146167 -0.160379 0.459606 -0.11746 -0.057896 0.408294 -0.052659 0.011668 0.419304 -0.021598 0.035517 0.365425 -0.0002 0.039492 0.457121 -0.038157 -0.064475 0.410726 -0.379648 0.141867 0.405724 -0.34192 0.197131 0.357011 -0.111869 0.206693 0.3881 -0.082071 0.129007 0.355015 -0.078204 0.124968 0.402036 -0.099736 0.19492 0.409301 -0.346818 0.043394 0.38044 -0.394647 0.019069 0.436139 -0.142767 0.017987 0.373946 -0.123934 0.018713 0.475798 -0.102768 0.122742 0.390502 -0.027841 0.105048 0.421191 -0.036137 -0.141305 0.340742 0.125623 -0.111016 0.365531 0.17521 -0.074552 0.370368 0.149407 -0.028409 0.344107 0.151055 -0.027632 0.360009 0.194377 0.017037 0.366838 0.171287 0.061792 0.371285 0.118393 0.086732 0.378074 0.181219 0.102788 0.384551 0.177992 0.191768 0.367458 0.209807 0.184317 0.362068 0.315233 0.066613 0.352954 0.362678 0.066913 0.326475 0.354141 -0.000802 0.396647 0.277627 -0.013448 0.341077 0.296206 0.156331 0.433939 0.348669 0.153246 0.439914 -0.360907 0.315636 0.431455 -0.242057 0.363972 0.415485 -0.159126 0.183969 0.350489 -0.382847 0.126526 0.400238 -0.371002 0.170534 0.433513 -0.364609 0.204641 0.438432 -0.305948 0.253301 0.436022 -0.26009 0.284582 0.441391 -0.204875 0.139954 0.442841 -0.36145 0.265126 0.439079 -0.300927 0.262071 0.331099 -0.241499 0.329142 0.438073 -0.152758 0.35412 0.435616 -0.175149 0.107422 0.415375 -0.378967 0.220474 0.422394 -0.350586 0.175629 0.414246 -0.344482 0.199081 0.396667 -0.346924 0.348778 0.340346 -0.063053 0.134064 0.368653 -0.025891 0.219205 0.361275 -0.04492 0.257416 0.395416 0.006804 0.216264 0.3844 0.048999 0.137624 0.399815 0.013783 0.304069 0.369978 0.062237 0.341137 0.341671 0.09414 0.3508 0.383514 0.069336 0.300056 0.39747 0.063004 0.357738 0.434191 -0.054953 0.351135 0.398438 0.042923 0.353312 0.433308 0.092081 0.354061 0.432442 -0.163051 0.388261 0.431483 -0.139789 0.397829 0.430528 -0.001946 0.288327 0.400991 -0.038651 0.386292 0.4198 -0.08886 0.403817 0.345152 -0.133524 0.429785 0.414357 -0.090542 0.071579 0.371138 0.034483 0.173449 0.383679 0.150448 0.227333 0.386732 0.154417 0.274235 0.36235 0.183408 0.228958 0.354431 0.152939 0.276436 0.349096 0.227503 0.355426 0.42187 0.173625 0.334874 0.403824 0.146742 0.350983 0.416504 0.014168 0.262196 0.444721 0.008456 0.24469 0.453519 0.042549</float_array>
          <technique_common>
            <accessor source="#TrashBin1-mesh-positions-array" count="258" stride="3">
              <param name="X" type="float"/>
              <param name="Y" type="float"/>
              <param name="Z" type="float"/>
            </accessor>
          </technique_common>
        </source>
        <source id="TrashBin1-mesh-normals">
          <float_array id="TrashBin1-mesh-normals-array" count="1551">-0.432656 0.368929 -0.822618 -0.46932 0.190212 -0.862298 0.028166 -0.999522 -0.012716 0.000275 -0.998926 -0.046328 0.019069 -0.999726 0.013542 -0.830484 -0.120494 -0.543854 -0.611096 0.586469 -0.531617 -0.81221 0.557308 0.172405 -0.944449 -0.318158 -0.082412 -0.90067 0.375812 -0.218078 -0.973119 -0.060716 0.222156 -0.994476 0.102721 0.021574 -0.994491 -0.09496 0.044385 -0.983962 0.117762 -0.133981 -0.921686 -0.041442 -0.385717 -0.969808 0.026768 -0.242398 -0.758917 -0.646959 -0.074087 -0.949365 -0.314124 -0.005653 -0.86612 -0.429775 0.255204 -0.999325 0.031582 -0.018755 -0.868445 -0.264645 -0.419245 -0.297209 -0.122923 -0.946867 -0.299065 -0.00888 -0.954191 -0.416125 -0.7162 -0.560265 -0.884131 -0.21729 -0.413639 -0.498718 -0.123609 -0.857905 -0.605015 0.063278 -0.793695 -0.473965 -0.073855 -0.877441 -0.604912 0.054181 -0.794447 -0.751625 0.01748 -0.659359 -0.791679 0.062474 -0.607735 0.075754 -0.752601 0.654104 0.127336 -0.859728 -0.494625 0.135246 -0.780273 -0.610641 -0.145281 -0.026944 -0.989024 0.21264 0.009218 -0.977087 -0.01658 0.091212 -0.995693 -0.018946 0.128654 -0.991509 -0.199752 -0.408186 -0.890777 0.250276 0.007113 -0.968148 0.020775 0.746673 -0.664867 0.248533 0.122624 -0.96083 0.277477 0.832605 -0.479348 0.847322 0.022537 -0.5306 0.837919 -0.168291 -0.519201 0.78293 -0.510093 -0.356127 0.55052 -0.497919 -0.670078 0.642063 -0.275129 -0.715584 0.557328 0.058552 -0.828225 0.6343 -0.006602 -0.773058 0.855461 -0.006394 -0.517827 0.414592 0.744268 -0.523621 0.782627 -0.34554 -0.517781 0.730535 0.596554 -0.332328 -0.057188 0.996577 0.059691 0.917517 -0.032475 -0.396369 0.905324 0.142082 -0.400251 0.885721 0.006858 -0.464168 -0.319112 0.013334 -0.947623 -0.621687 -0.012724 -0.783162 -0.767269 0.044204 -0.639801 -0.730581 0.292011 -0.617236 -0.458826 0.323672 -0.827475 -0.620923 0.637151 -0.45661 -0.807185 -0.083027 -0.584431 -0.655135 0.056034 -0.753431 -0.446549 -0.039981 -0.893865 -0.715783 -0.523434 -0.462247 -0.471232 -0.6814 -0.560031 -0.412641 -0.750423 -0.516326 0.035961 0.998681 0.036639 -0.222826 0.952038 -0.209696 0.036822 0.998926 0.028135 -0.216606 0.888891 -0.403677 0.867562 0.011414 0.497198 0.580812 0.062378 0.811644 0.606474 0.111389 0.787262 0.963946 0.10471 0.244631 -0.264474 0.775013 0.573941 -0.491321 -0.465083 0.736411 -0.191754 -0.152781 0.969478 -0.169166 0.980549 -0.099534 -0.11258 0.990041 -0.08453 -0.11768 0.99212 -0.042996 -0.21763 0.958895 -0.182093 -0.896752 -0.046364 -0.440099 -0.99476 -0.052262 -0.087866 -0.893667 0.417633 -0.164141 -0.998995 0.036287 -0.026311 -0.470734 -0.081162 -0.878534 0.046997 -0.041684 -0.998025 0.004505 -0.016106 -0.99986 0.003943 -0.408125 -0.912918 0.438461 -0.021464 -0.898494 0.438705 -0.091798 -0.89393 -0.520129 0.095763 -0.848702 -0.024884 0.092852 -0.995369 -0.011269 0.113196 -0.993509 0.494987 -0.060755 -0.866774 -0.869368 -0.489044 -0.070959 -0.714368 0.695485 0.077323 -0.003046 -0.999932 -0.011263 0.004073 -0.999929 -0.011196 0.010069 -0.99993 -0.006265 0.994363 -0.084455 0.064107 0.992893 0.113226 0.036662 0.599157 -0.659827 0.453475 0.681519 0.254857 0.685989 0.742053 0.632859 0.221014 0.964822 -0.020652 0.262092 0.998601 0.03739 0.0374 0.99149 0.082794 0.100459 0.86614 0.138229 0.480306 0.993447 -0.081473 0.080162 0.996111 -0.053664 0.069873 0.881511 -0.316186 0.350662 0.731205 -0.680998 0.039769 0.806746 0.523118 0.274787 0.987032 -0.044634 -0.154191 0.759157 0.646129 -0.078732 0.998863 -0.022323 -0.042114 0.853117 0.028536 -0.520938 0.821429 -0.280926 -0.496321 0.863162 -0.07264 -0.499674 0.999899 -0.003958 -0.013667 0.741079 -0.670595 -0.033214 0.822797 -0.568325 -0.003378 0.997192 0.074458 0.00798 0.917254 0.093871 -0.387084 0.402792 -0.624085 -0.669534 0.504903 0.032267 -0.862573 0.616177 0.695267 -0.370039 -0.936947 0.011866 0.34927 -0.113666 -0.991095 0.069362 -0.001528 -0.999971 -0.007459 0.006513 -0.999842 -0.016567 -0.614206 0.227836 0.755541 -0.310759 0.623261 0.717618 -0.520811 0.040137 0.852728 -0.602952 0.024081 0.797414 -0.940452 -0.048832 0.336401 -0.751477 0.136099 0.645569 -0.522209 0.050018 0.85135 -0.787537 -0.12171 0.60413 -0.525622 0.04149 0.849706 -0.459671 -0.483703 0.744805 -0.891326 0.233541 0.388583 -0.556503 -0.792723 0.248788 -0.72066 -0.23664 0.651653 -0.306852 0.9369 0.167513 -0.877128 -0.001157 0.480256 -0.407723 -0.056837 0.911335 -0.009283 0.131498 0.991273 0.065939 -0.044395 0.996836 0.065962 -0.033444 0.997262 -0.010254 0.064775 0.997847 0.003874 0.665474 0.746411 -0.220178 0.103891 0.969911 -0.862571 0.020927 0.505503 -0.846023 -0.190957 0.497775 -0.837013 -0.254035 0.48464 -0.861553 0.142574 0.487236 -0.87614 -0.012876 0.481885 -0.719009 0.08048 0.690325 -0.268925 -0.732854 0.624984 -0.52317 -0.297411 0.798649 -0.549582 0.036501 0.834642 -0.17494 0.068999 0.982158 -0.539606 0.047511 0.840576 -0.64597 0.161491 0.746085 -0.396266 -0.906205 0.147532 -0.333445 -0.853925 0.399532 -0.716748 -0.556464 0.420262 -0.441907 -0.605573 0.661815 -0.357385 -0.442695 0.822373 -0.863864 0.06194 0.499903 0.330579 0.930439 0.158113 -0.321974 0.893161 0.313999 0.780065 -0.027885 -0.625076 0.278273 0.949188 -0.14699 0.472562 0.690743 -0.54732 0.149449 0.656545 -0.739334 0.802557 0.052887 -0.594227 0.924972 0.0135 -0.379796 0.791807 0.066653 -0.607124 0.614619 -0.124862 -0.77888 0.36906 -0.033689 -0.928795 -0.148019 0.937733 0.31424 -0.139462 0.981809 0.128848 -0.243441 0.962105 0.122846 -0.059115 0.871426 0.486951 -0.77768 0.005985 0.628631 -0.452659 0.861347 0.23061 0.126083 0.991854 -0.018113 -0.080154 0.966646 0.24325 -0.466879 -0.285563 0.836945 -0.460579 0.025217 0.887261 -0.483984 0.046231 0.873855 -0.00428 -0.609766 0.79257 -0.046577 -0.436175 0.898656 -0.011275 0.05061 0.998655 0.111886 -0.021473 0.993489 -0.212979 0.234915 0.948396 0.136566 0.218306 0.966277 0.12539 0.338963 0.932406 0.719801 0.122404 0.683304 0.590699 -0.67963 0.434945 0.696145 -0.21968 0.683464 0.700017 0.084631 0.709094 0.326875 -0.099615 0.939803 0.344416 0.122745 0.930758 0.400431 -0.121243 0.90827 0.363549 0.557609 0.746261 0.658431 0.459293 0.596254 0.302787 0.361147 0.881982 0.286904 0.081828 0.954458 0.477608 0.028165 0.878122 0.466488 0.020237 0.884296 0.344388 -0.689124 0.637577 0.363289 0.628345 0.687898 0.127396 0.363906 0.922682 0.436971 0.056592 0.897693 0.262067 -0.798951 0.541293 0.122931 -0.068005 0.990083 -0.132812 0.089259 0.987114 -0.067666 -0.868342 0.491328 -0.308474 0.521439 -0.795578 0.02365 -0.57905 0.814949 0.538345 0.018527 0.842521 0.707859 -0.047015 0.704788 0.582827 -0.314559 0.749243 0.597034 0.278374 0.752369 0.748776 -0.17332 0.639762 0.435094 0.834666 0.337678 0.803252 0.478225 0.355087 0.736568 -0.59587 0.320009 0.951567 -0.00201 0.307435 0.96821 0.036397 0.247476 -0.169501 0.985407 0.015554 -0.99802 -0.059619 -0.020025 -0.932595 0.056012 0.356552 -0.973071 0.095126 -0.20996 -0.491077 -0.86552 -0.098579 0.602943 0.794797 0.06897 -0.939553 -0.338878 0.049011 0.037097 0.99913 0.019069 0.98936 0.101675 -0.104061 -0.406932 0.913376 0.012229 -0.36106 0.93189 0.034869 0.985646 -0.020195 0.167613 0.894369 0.078938 0.440309 0.993719 0.055621 0.0971 0.991262 0.048876 0.122518 0.933087 -0.016006 -0.359294 -0.195128 0.979767 -0.044513 -0.000705 0.986537 0.163538 -0.150507 0.370443 -0.91658 0.11003 -0.055467 0.992379 0.22968 -0.937054 -0.263016 0.272486 0.910617 -0.310689 -0.421844 0.85805 -0.292914 0.424065 0.825455 0.372549 0.376758 0.8019 0.463691 -0.32805 0.939647 0.097198 -0.430345 0.821163 0.374825 0.083976 0.718702 0.690228 -0.726032 0.502718 -0.469204 -0.125143 0.992131 0.003826 0.327995 0.860064 -0.390779 -0.120247 0.991975 0.039068 0.053824 0.997648 0.042435 -0.034393 0.994744 0.096446 -0.262025 0.940839 0.214859 0.004571 0.963721 -0.266872 -0.111982 0.933771 -0.3399 0.010633 0.960722 0.277308 0.190888 0.953582 0.232901 0.191043 0.900453 0.390753 0.086355 0.985705 0.144667 0.100639 0.994118 -0.040014 -0.004129 0.998382 0.056715 -0.012682 0.999485 -0.029467 0.002748 0.999222 0.039341 -0.061903 -0.112998 0.991665 0.271502 0.358335 0.893243 0.588404 0.807444 -0.042605 0.852666 -0.504834 -0.134553 0.589161 -0.34307 0.731568 0.209421 0.12662 0.969593 -0.049941 0.957045 -0.285606 -0.845682 0.193372 -0.497422 0.102531 0.994044 0.03694 0.869511 0.493801 0.01059 0.412997 -0.221513 -0.883383 0.746433 -0.653785 -0.124104 -0.264902 0.766334 -0.585285 -0.729034 -0.144494 -0.669052 -0.263167 -0.905936 0.331696 -0.895026 0.141124 -0.423099 -0.15899 0.184621 0.969865 0.256393 -0.213196 0.942767 -0.952213 0.156728 -0.262159 -0.135708 -0.922709 -0.36082 -0.623225 -0.5741 0.531037 -0.558629 -0.68505 0.467589 -0.423843 0.166009 0.890392 -0.348704 0.579201 0.736839 -0.427363 0.245348 0.870152 -0.137102 0.800965 0.582802 -0.340629 0.019812 -0.939989 -0.030672 -0.095598 -0.994947 0.18138 0.123778 -0.975592 0.09212 0.981665 -0.166878 0.465269 -0.451002 -0.761657 -0.142274 0.765941 0.626971 0.522949 0.500472 -0.689966 0.196654 0.949754 -0.243505 -0.543764 0.310354 0.779744 -0.608087 0.029866 0.793308 -0.677973 -0.15284 0.719022 0.084687 0.996116 0.024106 -0.082737 0.991422 0.101183 0.02532 0.601576 -0.798414 -0.246934 -0.617856 -0.746511 -0.152214 0.288621 -0.945267 0.094468 0.691261 -0.716404 -0.117615 0.071619 -0.990473 0.366846 0.25269 -0.895306 0.322482 0.674167 -0.664458 -0.127323 -0.921818 -0.366116 -0.827481 -0.097026 -0.553047 0.480207 -0.261858 -0.837157 0.475356 0.626869 -0.61731 0.002776 0.986024 0.166579 -0.031181 0.957481 0.286806 0.677804 -0.223864 -0.700333 0.44736 -0.824897 -0.345563 0.704218 0.507296 -0.496717 0.765267 0.285224 -0.577074 0.116369 0.617408 -0.777988 0.475877 0.873858 0.099562 -0.412931 0.890247 0.192221 -0.568959 -0.687408 0.451393 0.860367 0.193585 -0.471481 -0.488854 0.644918 -0.587454 -0.884069 0.310022 -0.349725 0.455015 0.82012 -0.346935 -0.111017 0.99053 0.080777 0.235878 0.803917 -0.545966 0.338689 0.90864 0.24426 0.151957 0.970775 0.185756 -0.309907 0.91254 -0.266888 0.201553 0.295545 -0.933825 0.478584 0.821455 -0.310111 -0.05338 0.992978 0.105576 -0.092959 0.981637 0.166574 0.092605 0.99439 -0.051124 -0.511293 0.832573 0.213079 -0.251169 0.952707 -0.171068 -0.198065 0.980178 -0.004551 -0.167737 0.984053 -0.059194 -0.152585 0.987214 -0.046107 -0.365969 0.929546 0.044831 -0.195357 0.434632 0.879165 -0.014572 0.998642 0.050027 -0.043441 0.995563 0.083473 -0.100748 0.990082 0.09792 -0.304177 0.896025 -0.323444 -0.863678 -0.163505 0.476788 0.598713 0.643926 -0.476344 0.052095 0.983096 0.17552 0.943673 -0.275844 -0.182731 0.709062 -0.649422 -0.27474 0.254879 0.253943 0.933033 0.039351 0.970577 0.237552 0.026844 0.984689 0.172244 -0.127563 0.905321 0.40512 -0.028214 0.987325 0.156182 0.2946 -0.15166 -0.943509 -0.216643 0.364842 -0.905514 -0.203574 0.298337 -0.932498 -0.378058 0.265404 -0.886923 0.284599 0.763993 0.579066 -0.407507 0.302394 -0.861682 0.052648 -0.975464 -0.213772 0.509796 -0.025982 -0.859903 0.034768 -0.948169 -0.315859 0.622522 0.041447 -0.781504 0.060102 -0.995305 -0.075868 0.550816 0.417128 -0.722915 0.484439 -0.781617 -0.392929 0.466131 -0.777868 -0.421477 0.821347 -0.059928 -0.567273 0.394602 0.508747 -0.765157 0.161091 0.400747 -0.901916 0.318909 -0.245916 -0.915326 0.211 0.047124 -0.976349 0.176093 0.49017 -0.853654 -0.405124 0.113894 0.90714 0.280726 0.926881 -0.249168 -0.209378 0.924855 0.317497 0.016046 0.252353 0.967502 -0.14151 0.967731 0.208498 -0.019042 0.994683 0.101209 -0.008845 0.999713 -0.022272 0.236714 0.475107 -0.84749 0.331334 0.016887 -0.943363 0.082486 0.193208 -0.977684 -0.561757 0.542508 0.624592 -0.48106 0.113814 0.869268 -0.816527 0.033866 0.576313 0.098171 0.991244 -0.088309 0.865844 0.026061 -0.499635 0.251759 0.222971 -0.941754 -0.096816 0.365038 0.925945 -0.264026 0.166668 0.950006 0.138903 0.694458 -0.705999 0.290636 0.121198 -0.949127 0.22635 0.882011 -0.413306 0.233472 0.875387 -0.423307 0.086679 0.995098 -0.047609 -0.028205 0.997388 0.066496 -0.028633 -0.557268 0.829839 0.128717 0.034041 0.991097 0.077878 0.984402 -0.15776 0.147266 0.981492 -0.122417 0.220815 0.932454 -0.285955 0.026863 0.966671 -0.254608 -0.280327 0.730951 0.622196 -0.126937 0.403944 0.905934 0.949513 0.008548 -0.313612 -0.461163 0.858123 -0.22573 0.030917 0.970759 -0.238055 0.40097 0.70261 -0.587845 0.143476 0.983528 -0.109947 0.131685 0.974177 -0.183409 0.594671 0.803665 0.022132 -0.97918 0.196928 -0.049257 0.772107 0.130059 -0.622041 -0.884159 0.206857 0.418894 -0.197056 0.980256 0.01632 -0.956941 0.066987 0.282447 -0.995208 0.096421 -0.01624 -0.952025 -0.261103 -0.159604 -0.99421 0.103386 -0.029307 -0.476208 0.851115 0.220974 0.17994 0.978608 -0.09974 -0.143528 0.957422 0.250487 -0.559673 -0.137973 0.817148 -0.108247 -0.994056 -0.011674 -0.109147 -0.993997 -0.007541 0.434071 -0.881821 0.184322 0.28804 0.945394 -0.152524 0.606207 -0.793428 -0.054643 -0.502246 0.860262 0.087746 -0.005099 0.999367 0.035203 -0.233572 0.797926 -0.555661 0.03187 0.518679 -0.854375 -0.03187 -0.518679 0.854375 0.207183 -0.973556 -0.096252 -0.059139 0.993017 -0.10208 -0.08524 0.97516 -0.204441 -0.472077 0.713355 -0.517946 -0.066768 0.967055 -0.245657 0.140233 0.308751 0.940749 0.138556 0.332102 0.933012 -0.139526 0.990055 -0.018008 -0.410807 0.910377 -0.04951 -0.057642 0.982165 -0.178968 -0.152921 0.975957 0.155317 0.15965 0.984368 0.074374 -0.055366 0.998334 -0.016271 -0.153173 0.988183 -0.005777 -0.045148 0.98809 -0.147105 0.773504 0.095428 0.626566 0.051331 0.932522 0.357447 0.380774 0.912226 0.151179 -0.128306 0.678453 0.723353 -0.838605 -0.017275 -0.544466 -0.549153 -0.065748 0.833131 -0.014012 0.972623 -0.231966 0.497332 0.849535 0.17593 0.079735 0.995213 0.056516 0.540976 0.812503 0.217218 0.365422 0.896314 0.251172 -0.977665 0.126116 -0.168122 -0.891992 0.108652 -0.438799 -0.682442 0.072629 -0.727323 -0.769051 -0.246389 -0.58979 0.158594 0.980105 0.119342 0.181411 0.97451 0.131989 0.581318 -0.621606 0.525048 0.388707 -0.874562 0.28991 0.877838 0.013574 0.478764 0.852601 0.020889 0.522145 0.812683 0.071264 0.578333 0.610595 -0.053308 0.790147 0.417907 0.435085 0.79753 -0.471655 0.854948 -0.215884 -0.217651 0.975615 -0.028353 0.550744 -0.705446 -0.446124 0.948852 0.269573 0.16435 -0.998946 0.040771 0.021067 -0.484308 0.858104 -0.170596 -0.228076 0.96384 0.137819 0.79636 -0.05703 -0.602129 -0.724833 0.093142 -0.682599 0.672759 0.72258 0.158979 -0.818695 0.290474 -0.495341 -0.187896 0.167586 0.967786 0.984357 0.134284 0.11406 0.605969 -0.792513 0.068735 0.48192 -0.873141 0.073333 0.319517 0.939498 0.123498 0.079974 0.996762 0.008393 0.530142 0.671511 0.517708 -0.425975 -0.432866 -0.794463</float_array>
          <technique_common>
            <accessor source="#TrashBin1-mesh-normals-array" count="517" stride="3">
              <param name="X" type="float"/>
              <param name="Y" type="float"/>
              <param name="Z" type="float"/>
            </accessor>
          </technique_common>
        </source>
        <source id="TrashBin1-mesh-map-0">
          <float_array id="TrashBin1-mesh-map-0-array" count="3102">0.295344 0.136895 0.307733 0.146972 0.292868 0.186492 0.292868 0.186492 0.307733 0.146972 0.303495 0.188925 0.295344 0.136895 0.292868 0.186492 0.297022 0.090442 0.297022 0.090442 0.292868 0.186492 0.19751 0.160156 0.297022 0.090442 0.19751 0.160156 0.289735 0.041532 0.295344 0.136895 0.297022 0.090442 0.307076 0.101285 0.295344 0.136895 0.307076 0.101285 0.307733 0.146972 0.300404 0.05863 0.289735 0.041532 0.298921 0.022125 0.297022 0.090442 0.289735 0.041532 0.300404 0.05863 0.297022 0.090442 0.300404 0.05863 0.307076 0.101285 0.300404 0.05863 0.298921 0.022125 0.352791 0.022622 0.300404 0.05863 0.352791 0.022622 0.355594 0.0654 0.355594 0.0654 0.352791 0.022622 0.390441 0.038905 0.378898 0.088439 0.355594 0.0654 0.390441 0.038905 0.300404 0.05863 0.355594 0.0654 0.378898 0.088439 0.307076 0.101285 0.300404 0.05863 0.378898 0.088439 0.390441 0.038905 0.401585 0.081374 0.378898 0.088439 0.390441 0.038905 0.403135 0.034655 0.401585 0.081374 0.403135 0.034655 0.390441 0.038905 0.398438 0.011719 0.403135 0.034655 0.463623 0.029541 0.401585 0.081374 0.378898 0.088439 0.401585 0.081374 0.395795 0.126477 0.402622 0.162034 0.404541 0.179932 0.393311 0.201416 0.402622 0.162034 0.393311 0.201416 0.386553 0.181332 0.395795 0.126477 0.402622 0.162034 0.386553 0.181332 0.378898 0.088439 0.395795 0.126477 0.357342 0.136708 0.395795 0.126477 0.386553 0.181332 0.357342 0.136708 0.386553 0.181332 0.36021 0.187543 0.357342 0.136708 0.36021 0.187543 0.303495 0.188925 0.307733 0.146972 0.357342 0.136708 0.36021 0.187543 0.307733 0.146972 0.357342 0.136708 0.307733 0.146972 0.307076 0.101285 0.357342 0.136708 0.307076 0.101285 0.378898 0.088439 0.531392 0.027928 0.54439 0.06346 0.550951 0.017473 0.531392 0.027928 0.54439 0.06346 0.538749 0.096368 0.531392 0.027928 0.538749 0.096368 0.527346 0.133344 0.550951 0.017473 0.617477 0.015072 0.54439 0.06346 0.54439 0.06346 0.610848 0.090668 0.538749 0.096368 0.610848 0.090668 0.54439 0.06346 0.617477 0.015072 0.617477 0.015072 0.650587 0.031893 0.610848 0.090668 0.610848 0.090668 0.650587 0.031893 0.653353 0.060055 0.647597 0.120573 0.610848 0.090668 0.653353 0.060055 0.653353 0.060055 0.674647 0.026146 0.659696 0.093574 0.653353 0.060055 0.659696 0.093574 0.647597 0.120573 0.647597 0.120573 0.659696 0.093574 0.649288 0.158882 0.649288 0.158882 0.692139 0.155762 0.653413 0.210166 0.649288 0.158882 0.653413 0.210166 0.633101 0.175141 0.633101 0.175141 0.653413 0.210166 0.625525 0.230434 0.633101 0.175141 0.647597 0.120573 0.649288 0.158882 0.647597 0.120573 0.633101 0.175141 0.610848 0.090668 0.538749 0.096368 0.610848 0.090668 0.633101 0.175141 0.633101 0.175141 0.531568 0.166657 0.538749 0.096368 0.633101 0.175141 0.531449 0.184412 0.531568 0.166657 0.527346 0.133344 0.538749 0.096368 0.531568 0.166657 0.51168 0.210815 0.527346 0.133344 0.531568 0.166657 0.51168 0.210815 0.531568 0.166657 0.51662 0.221331 0.531568 0.166657 0.51662 0.221331 0.531449 0.184412 0.51662 0.221331 0.531449 0.184412 0.584167 0.223081 0.625525 0.230434 0.584167 0.223081 0.633101 0.175141 0.633101 0.175141 0.584167 0.223081 0.531449 0.184412 0.607422 0.49585 0.580306 0.495887 0.577949 0.408992 0.577949 0.408992 0.580306 0.495887 0.541992 0.476074 0.577949 0.408992 0.541992 0.476074 0.534727 0.404742 0.577949 0.408992 0.534727 0.404742 0.575115 0.394554 0.610596 0.421875 0.577949 0.408992 0.575115 0.394554 0.575115 0.394554 0.534727 0.404742 0.530018 0.383732 0.530018 0.383732 0.556257 0.330999 0.575115 0.394554 0.604215 0.32784 0.575115 0.394554 0.556257 0.330999 0.575115 0.394554 0.604215 0.32784 0.617432 0.372559 0.553196 0.315796 0.556257 0.330999 0.514404 0.313721 0.604215 0.32784 0.556257 0.330999 0.60199 0.317162 0.556257 0.330999 0.553196 0.315796 0.60199 0.317162 0.60199 0.317162 0.553196 0.315796 0.602793 0.304507 0.553196 0.315796 0.51416 0.302246 0.558573 0.302997 0.558573 0.302997 0.51416 0.302246 0.518782 0.292541 0.602793 0.304507 0.553196 0.315796 0.558573 0.302997 0.558573 0.302997 0.518782 0.292541 0.557881 0.267633 0.602793 0.304507 0.558573 0.302997 0.60362 0.275415 0.60362 0.275415 0.558573 0.302997 0.557881 0.267633 0.60362 0.275415 0.602793 0.304507 0.6149 0.284962 0.602793 0.304507 0.6149 0.284962 0.625 0.289307 0.6149 0.284962 0.60362 0.275415 0.618794 0.268349 0.625 0.289307 0.6149 0.284962 0.618794 0.268349 0.616943 0.236816 0.60362 0.275415 0.575289 0.240375 0.575289 0.240375 0.60362 0.275415 0.557881 0.267633 0.575289 0.240375 0.557881 0.267633 0.541016 0.239502 0.575289 0.240375 0.541016 0.239502 0.541748 0.231934 0.918701 0.598633 0.86499 0.588623 0.888171 0.494878 0.888171 0.494878 0.832031 0.480469 0.839604 0.465812 0.888171 0.494878 0.839604 0.465812 0.895215 0.466748 0.013428 0.637939 0.013428 0.513428 0.050537 0.632568 0.795707 0.423588 0.69043 0.426758 0.676982 0.403992 0.795707 0.423588 0.676982 0.403992 0.682593 0.309799 0.795707 0.423588 0.682593 0.309799 0.793488 0.292891 0.682593 0.309799 0.676982 0.403992 0.664612 0.329458 0.793488 0.292891 0.682593 0.309799 0.805664 0.253906 0.682593 0.309799 0.664612 0.329458 0.640869 0.273682 0.676982 0.403992 0.650635 0.437012 0.623213 0.403248 0.676982 0.403992 0.623213 0.403248 0.664612 0.329458 0.664612 0.329458 0.623213 0.403248 0.620361 0.31543 0.664612 0.329458 0.620361 0.31543 0.634033 0.284424 0.63042 0.882188 0.624991 0.865948 0.677734 0.819092 0.630859 0.843506 0.624991 0.865948 0.599121 0.87207 0.326416 0.419922 0.42627 0.378174 0.41321 0.465182 0.42627 0.378174 0.326416 0.419922 0.388916 0.312256 0.326416 0.419922 0.41321 0.465182 0.348701 0.482043 0.41321 0.465182 0.378555 0.496497 0.348701 0.482043 0.378555 0.496497 0.41321 0.465182 0.414851 0.495418 0.30249 0.476074 0.348701 0.482043 0.324805 0.491455 0.30249 0.476074 0.324805 0.491455 0.300049 0.489258 0.324805 0.491455 0.348701 0.482043 0.378555 0.496497 0.324805 0.491455 0.378555 0.496497 0.331378 0.558156 0.415104 0.561974 0.378555 0.496497 0.414851 0.495418 0.378555 0.496497 0.415104 0.561974 0.331378 0.558156 0.311768 0.580811 0.331378 0.558156 0.348037 0.599653 0.331378 0.558156 0.415104 0.561974 0.348037 0.599653 0.348037 0.599653 0.415104 0.561974 0.407845 0.603076 0.348037 0.599653 0.365533 0.612322 0.323155 0.616035 0.348037 0.599653 0.407845 0.603076 0.365533 0.612322 0.323155 0.616035 0.365533 0.612322 0.368626 0.627593 0.365533 0.612322 0.407845 0.603076 0.411748 0.634168 0.365533 0.612322 0.411748 0.634168 0.368626 0.627593 0.368626 0.627593 0.411748 0.634168 0.401855 0.663574 0.652806 0.824178 0.570801 0.827881 0.567575 0.800332 0.567575 0.800332 0.570801 0.827881 0.561279 0.835449 0.567575 0.800332 0.561279 0.835449 0.559227 0.790811 0.567575 0.800332 0.569336 0.770047 0.638916 0.764648 0.569336 0.770047 0.567575 0.800332 0.559227 0.790811 0.569336 0.770047 0.559227 0.790811 0.558494 0.748267 0.558494 0.748267 0.559227 0.790811 0.488817 0.791722 0.488817 0.791722 0.559227 0.790811 0.487305 0.835449 0.000977 0.152551 0.016846 0.205811 0 0.229492 0.149952 0.122222 0.219482 0.013184 0.207031 0.124268 0.155064 0.138554 0.149751 0.154129 0.108398 0.148438 0.425537 0.452637 0.464801 0.452698 0.438691 0.458449 0.464801 0.452698 0.425537 0.452637 0.504576 0.431456 0.511475 0.390625 0.504576 0.431456 0.426514 0.358154 0.511475 0.390625 0.426514 0.358154 0.525879 0.327148 0.464801 0.452698 0.504576 0.431456 0.496678 0.450167 0.496678 0.450167 0.504576 0.431456 0.518684 0.43709 0.498269 0.498557 0.496678 0.450167 0.531006 0.488037 0.464801 0.452698 0.496678 0.450167 0.498269 0.498557 0.464801 0.452698 0.446384 0.516282 0.438691 0.458449 0.446384 0.516282 0.464801 0.452698 0.498269 0.498557 0.498269 0.498557 0.526611 0.513916 0.480624 0.537948 0.498269 0.498557 0.480624 0.537948 0.446384 0.516282 0.480624 0.537948 0.526611 0.513916 0.521484 0.536621 0.480624 0.537948 0.521484 0.536621 0.494392 0.550748 0.442228 0.542801 0.446384 0.516282 0.480624 0.537948 0.442228 0.542801 0.480624 0.537948 0.459606 0.549154 0.459606 0.549154 0.480624 0.537948 0.494392 0.550748 0.459606 0.549154 0.494392 0.550748 0.441259 0.561875 0.441259 0.561875 0.494392 0.550748 0.428711 0.620605 0.035494 0.91524 0.063721 0.896729 0.078854 0.937235 0.035494 0.91524 0.006592 0.94873 0.006348 0.915771 0.006592 0.94873 0.035494 0.91524 0.00312 0.965909 0.035494 0.91524 0.078854 0.937235 0.00312 0.965909 0.00312 0.965909 0.078854 0.937235 0.06439 0.973835 0.080763 0.96263 0.06439 0.973835 0.078854 0.937235 0.080763 0.96263 0.078854 0.937235 0.092529 0.935059 0.388428 0.258545 0.388916 0.229736 0.447021 0.224609 0.388916 0.229736 0.388428 0.258545 0.376709 0.236328 0.376709 0.236328 0.388428 0.258545 0.370023 0.276152 0.376709 0.236328 0.370023 0.276152 0.366211 0.22168 0.366211 0.22168 0.370023 0.276152 0.301082 0.249714 0.301082 0.249714 0.370023 0.276152 0.327763 0.2765 0.379934 0.287697 0.378662 0.31665 0.361499 0.318893 0.379934 0.287697 0.361499 0.318893 0.370023 0.276152 0.370023 0.276152 0.361499 0.318893 0.327763 0.2765 0.361499 0.318893 0.311768 0.331299 0.289097 0.304207 0.327763 0.2765 0.361499 0.318893 0.289097 0.304207 0.327763 0.2765 0.289097 0.304207 0.301082 0.249714 0.301025 0.218018 0.301082 0.249714 0.288574 0.22876 0.282019 0.257378 0.301082 0.249714 0.289097 0.304207 0.301082 0.249714 0.282019 0.257378 0.288574 0.22876 0.289097 0.304207 0.270317 0.290405 0.282019 0.257378 0.270317 0.290405 0.289097 0.304207 0.275828 0.331554 0.288574 0.22876 0.282019 0.257378 0.281982 0.223389 0.281982 0.223389 0.282019 0.257378 0.268068 0.237514 0.282019 0.257378 0.270317 0.290405 0.268068 0.237514 0.257613 0.258953 0.268068 0.237514 0.270317 0.290405 0.269287 0.233643 0.268068 0.237514 0.251221 0.214844 0.270317 0.290405 0.253974 0.28946 0.257613 0.258953 0.253974 0.28946 0.270317 0.290405 0.246582 0.320801 0.268068 0.237514 0.257613 0.258953 0.229241 0.236523 0.268068 0.237514 0.229241 0.236523 0.228271 0.212646 0.229241 0.236523 0.257613 0.258953 0.227149 0.2785 0.227149 0.2785 0.257613 0.258953 0.253974 0.28946 0.227149 0.2785 0.253974 0.28946 0.224121 0.315674 0.227149 0.2785 0.224121 0.315674 0.205964 0.290113 0.229241 0.236523 0.227149 0.2785 0.193168 0.241548 0.227149 0.2785 0.205964 0.290113 0.193168 0.241548 0.189674 0.289329 0.205964 0.290113 0.186035 0.304199 0.189674 0.289329 0.175673 0.268694 0.193168 0.241548 0.189674 0.289329 0.193168 0.241548 0.205964 0.290113 0.193168 0.241548 0.183594 0.238037 0.197533 0.221542 0.193168 0.241548 0.197533 0.221542 0.229241 0.236523 0.507308 0.90528 0.548581 0.928051 0.511398 0.921926 0.587402 0.869873 0.548581 0.928051 0.550422 0.8445 0.550422 0.8445 0.548581 0.928051 0.507308 0.90528 0.507308 0.90528 0.511398 0.921926 0.47093 0.894939 0.47093 0.894939 0.511398 0.921926 0.455149 0.909002 0.507308 0.90528 0.47093 0.894939 0.470947 0.830078 0.189927 0.333962 0.142711 0.321924 0.163818 0.24707 0.105184 0.328821 0.142711 0.321924 0.139173 0.348209 0.142711 0.321924 0.189927 0.333962 0.193604 0.344727 0.142711 0.321924 0.193604 0.344727 0.139173 0.348209 0.632359 0.589043 0.594371 0.530372 0.668876 0.544816 0.573092 0.569671 0.600342 0.613037 0.58299 0.617584 0.632359 0.589043 0.573092 0.569671 0.594371 0.530372 0.655181 0.511064 0.668876 0.544816 0.594371 0.530372 0.655181 0.511064 0.594371 0.530372 0.643517 0.481376 0.563457 0.529449 0.594371 0.530372 0.573092 0.569671 0.563457 0.529449 0.573092 0.569671 0.542011 0.535577 0.542011 0.535577 0.573092 0.569671 0.557879 0.574912 0.557879 0.574912 0.573092 0.569671 0.58299 0.617584 0.666755 0.507994 0.655181 0.511064 0.643517 0.481376 0.666755 0.507994 0.643517 0.481376 0.655273 0.459717 0.808594 0.764648 0.751709 0.787598 0.755152 0.754443 0.808594 0.764648 0.755152 0.754443 0.789551 0.737793 0.808594 0.764648 0.789551 0.737793 0.805804 0.742099 0.805804 0.742099 0.807124 0.724759 0.830033 0.742069 0.805804 0.742099 0.830033 0.742069 0.860793 0.782431 0.892682 0.717784 0.830033 0.742069 0.864014 0.679443 0.892682 0.717784 0.864014 0.679443 0.874352 0.671347 0.860793 0.782431 0.830033 0.742069 0.892682 0.717784 0.860793 0.782431 0.892682 0.717784 0.934082 0.76123 0.934082 0.76123 0.892682 0.717784 0.932549 0.745117 0.892682 0.717784 0.900609 0.706197 0.874352 0.671347 0.892682 0.717784 0.900609 0.706197 0.932549 0.745117 0.124373 0.737029 0.115279 0.672291 0.164835 0.755854 0.164835 0.755854 0.115279 0.672291 0.182861 0.657715 0.124373 0.737029 0.164835 0.755854 0.105957 0.754639 0.105957 0.754639 0.164835 0.755854 0.106789 0.768821 0.142899 0.79646 0.106789 0.768821 0.185674 0.768475 0.185674 0.768475 0.106789 0.768821 0.164835 0.755854 0.164835 0.755854 0.233645 0.76823 0.185674 0.768475 0.233645 0.76823 0.164835 0.755854 0.238215 0.757335 0.581838 0.897379 0.651523 0.975686 0.614502 0.998779 0.581838 0.897379 0.614502 0.998779 0.516846 0.983887 0.750886 0.153021 0.788635 0.077619 0.819678 0.055788 0.750886 0.153021 0.819678 0.055788 0.838532 0.15185 0.819678 0.055788 0.857422 0.069336 0.838532 0.15185 0.750886 0.153021 0.838532 0.15185 0.760961 0.212382 0.797815 0.214242 0.760961 0.212382 0.838532 0.15185 0.838532 0.15185 0.805489 0.211639 0.866852 0.161684 0.805489 0.211639 0.838532 0.15185 0.797815 0.214242 0.807027 0.237167 0.797815 0.214242 0.873921 0.202349 0.797815 0.214242 0.873921 0.202349 0.805489 0.211639 0.873921 0.202349 0.805489 0.211639 0.866852 0.161684 0.873921 0.202349 0.866852 0.161684 0.916445 0.150579 0.807027 0.237167 0.873921 0.202349 0.856689 0.268555 0.807027 0.237167 0.856689 0.268555 0.82251 0.303467 0.856689 0.268555 0.873921 0.202349 0.886719 0.250488 0.886719 0.250488 0.873921 0.202349 0.916984 0.228738 0.873921 0.202349 0.936768 0.192139 0.916984 0.228738 0.437348 0.790046 0.413406 0.824902 0.38277 0.815414 0.437348 0.790046 0.38277 0.815414 0.41036 0.773412 0.41036 0.773412 0.38277 0.815414 0.407715 0.741211 0.38277 0.815414 0.407715 0.741211 0.3745 0.761241 0.38277 0.815414 0.3745 0.761241 0.356874 0.82294 0.34286 0.733944 0.3745 0.761241 0.331973 0.771966 0.331973 0.771966 0.3745 0.761241 0.356874 0.82294 0.34286 0.733944 0.331973 0.771966 0.315329 0.738386 0.315329 0.738386 0.331973 0.771966 0.305176 0.763672 0.315194 0.793806 0.356874 0.82294 0.300049 0.835205 0.331973 0.771966 0.356874 0.82294 0.315194 0.793806 0.331973 0.771966 0.315194 0.793806 0.305176 0.763672 0.705013 0.83103 0.694429 0.835919 0.72843 0.786113 0.719482 0.888184 0.692871 0.904541 0.694429 0.835919 0.694429 0.835919 0.705013 0.83103 0.774424 0.867485 0.719482 0.888184 0.694429 0.835919 0.774424 0.867485 0.719482 0.888184 0.774424 0.867485 0.767822 0.892822 0.705013 0.83103 0.72843 0.786113 0.774424 0.867485 0.72843 0.786113 0.770508 0.789307 0.80142 0.831545 0.774424 0.867485 0.72843 0.786113 0.80142 0.831545 0.774424 0.867485 0.80142 0.831545 0.787882 0.889225 0.80142 0.831545 0.81019 0.792959 0.836151 0.827179 0.818693 0.884117 0.787882 0.889225 0.80142 0.831545 0.818693 0.884117 0.80142 0.831545 0.836151 0.827179 0.840447 0.862436 0.818693 0.884117 0.836151 0.827179 0.840447 0.862436 0.836151 0.827179 0.850342 0.847168 0.946427 0.904171 0.931229 0.925188 0.920128 0.872901 0.946708 0.839821 0.946427 0.904171 0.920128 0.872901 0.946708 0.839821 0.920128 0.872901 0.914906 0.808656 0.914906 0.808656 0.920128 0.872901 0.874108 0.834676 0.920128 0.872901 0.931229 0.925188 0.905432 0.915902 0.905432 0.915902 0.931229 0.925188 0.91748 0.931885 0.905432 0.915902 0.88916 0.928711 0.875664 0.924298 0.905432 0.915902 0.875664 0.924298 0.920128 0.872901 0.920128 0.872901 0.875664 0.924298 0.874108 0.834676 0.874108 0.834676 0.875664 0.924298 0.853516 0.873291 0.981841 0.206408 0.975992 0.174028 0.999484 0.135655 0.975992 0.174028 0.981841 0.206408 0.950092 0.193556 0.975992 0.174028 0.950092 0.193556 0.951734 0.153142 0.999484 0.135655 0.975992 0.174028 0.951734 0.153142 0.999484 0.135655 0.951734 0.153142 0.970783 0.121035 0.951734 0.153142 0.950092 0.193556 0.922363 0.174561 0.951734 0.153142 0.949313 0.134615 0.970783 0.121035 0.089977 0.504758 0.058589 0.525106 0.063197 0.488069 0.058589 0.525106 0.089977 0.504758 0.112046 0.505208 0.089977 0.504758 0.112401 0.476331 0.112046 0.505208 0.112401 0.476331 0.089977 0.504758 0.063197 0.488069 0.092166 0.470824 0.112401 0.476331 0.063197 0.488069 0.027794 0.405526 0.063197 0.488069 0.01709 0.490234 0.092166 0.470824 0.063197 0.488069 0.059448 0.413445 0.063197 0.488069 0.027794 0.405526 0.059448 0.413445 0.076964 0.399073 0.059448 0.413445 0.039551 0.36792 0.076964 0.399073 0.093506 0.382324 0.112401 0.476331 0.059448 0.413445 0.076964 0.399073 0.092166 0.470824 0.092166 0.470824 0.076964 0.399073 0.112401 0.476331 0.084036 0.120773 0.025242 0.149533 0.025387 0.085217 0.084036 0.120773 0.025387 0.085217 0.086903 0.038002 0.086903 0.038002 0.025387 0.085217 0.025635 0.035889 0.860041 0.399975 0.89917 0.412598 0.85068 0.434608 0.860041 0.399975 0.843205 0.351845 0.909912 0.391602 0.860041 0.399975 0.843205 0.351845 0.819921 0.380118 0.909912 0.391602 0.843205 0.351845 0.935791 0.41748 0.843205 0.351845 0.837993 0.330929 0.928711 0.334961 0.837993 0.330929 0.904541 0.315674 0.935303 0.303955 0.904541 0.315674 0.837993 0.330929 0.889754 0.290216 0.889754 0.290216 0.837993 0.330929 0.834961 0.303223 0.834961 0.303223 0.889754 0.290216 0.867188 0.286377 0.928955 0.283936 0.889754 0.290216 0.912967 0.256847 0.917236 0.243164 0.912967 0.256847 0.908447 0.23877 0.831673 0.510898 0.845689 0.576129 0.829346 0.540283 0.845689 0.576129 0.831673 0.510898 0.8751 0.605939 0.845689 0.576129 0.842529 0.64917 0.874579 0.625462 0.845689 0.576129 0.8751 0.605939 0.874579 0.625462 0.154482 0.852334 0.131376 0.868907 0.094719 0.84376 0.154482 0.852334 0.094719 0.84376 0.141602 0.833472 0.084727 0.78051 0.141602 0.833472 0.082721 0.809082 0.084727 0.78051 0.082721 0.809082 0.066128 0.765303 0.094719 0.84376 0.082721 0.809082 0.141602 0.833472 0.077983 0.877613 0.094719 0.84376 0.131376 0.868907 0.077983 0.877613 0.131376 0.868907 0.098145 0.896729 0.077983 0.877613 0.098145 0.896729 0.069092 0.904785 0.108154 0.641357 0.073151 0.63825 0.135728 0.586758 0.108154 0.641357 0.135728 0.586758 0.149629 0.633755 0.073151 0.63825 0.050775 0.60172 0.110735 0.565376 0.073151 0.63825 0.110735 0.565376 0.135728 0.586758 0.135728 0.586758 0.149629 0.633755 0.168457 0.616943 0.066607 0.562072 0.110735 0.565376 0.050775 0.60172 0.054212 0.020866 0.038818 0.019775 0.032471 0.00415 0.054212 0.020866 0.032471 0.00415 0.05957 0.00415 0.190918 0.945557 0.182486 0.974537 0.162598 0.936279 0.467271 0.631084 0.489971 0.618652 0.517201 0.659917 0.467271 0.631084 0.517201 0.659917 0.446223 0.642653 0.446223 0.642653 0.517201 0.659917 0.458792 0.678983 0.446223 0.642653 0.458792 0.678983 0.424235 0.672615 0.458792 0.678983 0.517201 0.659917 0.488144 0.714935 0.488144 0.714935 0.517201 0.659917 0.53629 0.731077 0.488144 0.714935 0.53629 0.731077 0.516602 0.753418 0.458792 0.678983 0.488144 0.714935 0.456488 0.731758 0.456488 0.731758 0.419818 0.736663 0.458792 0.678983 0.419818 0.736663 0.456488 0.731758 0.4375 0.75415 0.424235 0.672615 0.458792 0.678983 0.419818 0.736663 0.446223 0.642653 0.424235 0.672615 0.425781 0.648438 0.390768 0.678305 0.424235 0.672615 0.419818 0.736663 0.390768 0.678305 0.419818 0.736663 0.371826 0.743652 0.472412 0.026855 0.498047 0.035156 0.46875 0.065674 0.202291 0.970696 0.195801 0.947266 0.226265 0.969712 0.42455 0.904039 0.442139 0.932861 0.401487 0.914208 0.42455 0.904039 0.401487 0.914208 0.410745 0.888552 0.42455 0.904039 0.410745 0.888552 0.42041 0.892334 0.410745 0.888552 0.401487 0.914208 0.410645 0.842285 0.410645 0.842285 0.401487 0.914208 0.373659 0.833126 0.373659 0.833126 0.401487 0.914208 0.34693 0.855426 0.401487 0.914208 0.373022 0.92404 0.34693 0.855426 0.401487 0.914208 0.398211 0.935754 0.373022 0.92404 0.340862 0.858219 0.34693 0.855426 0.373022 0.92404 0.341485 0.920501 0.373022 0.92404 0.372482 0.939746 0.373022 0.92404 0.341937 0.90822 0.340862 0.858219 0.373022 0.92404 0.341485 0.920501 0.341937 0.90822 0.372482 0.939746 0.341485 0.920501 0.323969 0.909323 0.341485 0.920501 0.323969 0.909323 0.341937 0.90822 0.323969 0.909323 0.372482 0.939746 0.308594 0.946777 0.323969 0.909323 0.296143 0.915527 0.30507 0.891581 0.341937 0.90822 0.323969 0.909323 0.340862 0.858219 0.340862 0.858219 0.323969 0.909323 0.30507 0.891581 0.012468 0.698181 0.058832 0.73044 0.04541 0.757568 0.058832 0.73044 0.012468 0.698181 0.050907 0.68259 0.058832 0.73044 0.050907 0.68259 0.058105 0.683105 0.050907 0.68259 0.024449 0.664046 0.0418 0.65077 0.024449 0.664046 0.012468 0.698181 0.011963 0.647217 0.024449 0.664046 0.050907 0.68259 0.012468 0.698181 0.01001 0.76001 0.012468 0.698181 0.00415 0.735107 0.602891 0.746351 0.614541 0.667675 0.709312 0.748192 0.552002 0.664307 0.6241 0.648866 0.614541 0.667675 0.709312 0.748192 0.614541 0.667675 0.703882 0.642494 0.614541 0.667675 0.6241 0.648866 0.703882 0.642494 0.6241 0.648866 0.63501 0.635254 0.680641 0.617614 0.6241 0.648866 0.680641 0.617614 0.703882 0.642494 0.703882 0.642494 0.680641 0.617614 0.736572 0.617188 0.709312 0.748192 0.703882 0.642494 0.779053 0.735596 0.846191 0.978271 0.892334 0.978271 0.853027 0.991943 0.97513 0.789092 0.941339 0.749399 0.972168 0.747314 0.972168 0.747314 0.941339 0.749399 0.978027 0.730957 0.978027 0.730957 0.941339 0.749399 0.949219 0.719482 0.97513 0.789092 0.941339 0.749399 0.954205 0.813194 0.259681 0.660525 0.261401 0.723068 0.206055 0.712158 0.24707 0.640869 0.259681 0.660525 0.273619 0.595562 0.261401 0.723068 0.259681 0.660525 0.281738 0.705322 0.281738 0.705322 0.261401 0.723068 0.285645 0.710693 0.261401 0.723068 0.285645 0.710693 0.286133 0.735596 0.281738 0.705322 0.259681 0.660525 0.283483 0.639433 0.283483 0.639433 0.259681 0.660525 0.273619 0.595562 0.963083 0.58746 0.977485 0.633654 0.940674 0.607178 0.963083 0.58746 0.940674 0.607178 0.924891 0.601011 0.924891 0.601011 0.940674 0.607178 0.916992 0.607422 0.725098 0.173828 0.699951 0.194092 0.750813 0.086653 0.750813 0.086653 0.699951 0.194092 0.688753 0.089142 0.688753 0.089142 0.697021 0.018311 0.750813 0.086653 0.776527 0.041676 0.750813 0.086653 0.750488 0.02002 0.80835 0.015137 0.776527 0.041676 0.806641 0.011963 0.948242 0.670166 0.948486 0.699951 0.96875 0.678467 0.96875 0.678467 0.948242 0.670166 0.983643 0.673828 0.96875 0.678467 0.983643 0.673828 0.998047 0.679443 0.917547 0.096137 0.933594 0.147705 0.911621 0.118164 0.933594 0.147705 0.911621 0.118164 0.909668 0.142822 0.917547 0.096137 0.911621 0.118164 0.863173 0.053793 0.922482 0.055837 0.930087 0.006131 0.863173 0.053793 0.853027 0.025635 0.930087 0.006131 0.849365 0.034424 0.930087 0.006131 0.849365 0.034424 0.863173 0.053793 0.987549 0.833496 0.999756 0.850586 0.992432 0.831787 0.987061 0.827393 0.987061 0.803711 0.998291 0.813965 0.051976 0.235704 0.081864 0.328845 0.009645 0.315407 0.005615 0.233398 0.051976 0.235704 0.009645 0.315407 0.720333 0.551591 0.731591 0.563644 0.606934 0.611328 0.096935 0.159758 0.117432 0.183105 0.069516 0.223562 0.096935 0.159758 0.069516 0.223562 0.056381 0.193072 0.096935 0.159758 0.056381 0.193072 0.072998 0.140381 0.056381 0.193072 0.069516 0.223562 0.0354 0.209229 0.085938 0.272217 0.069516 0.223562 0.126446 0.265533 0.069516 0.223562 0.117432 0.183105 0.126446 0.265533 0.126446 0.265533 0.117432 0.183105 0.153214 0.197499 0.200195 0.811768 0.22876 0.813721 0.235476 0.87587 0.235476 0.87587 0.22876 0.813721 0.276005 0.834808 0.235476 0.87587 0.276005 0.834808 0.295138 0.860603 0.235476 0.87587 0.295138 0.860603 0.291016 0.884033 0.276005 0.834808 0.22876 0.813721 0.280479 0.823386 0.003174 0.07666 0.003174 0.049805 0.019531 0.076904 0.265873 0.954821 0.272976 0.90318 0.29248 0.935791 0.069579 0.8382 0.06943 0.873219 0.022504 0.83351 0.069579 0.8382 0.022504 0.83351 0.042969 0.776855 0.069579 0.8382 0.042969 0.776855 0.052002 0.786621 0.069579 0.8382 0.052002 0.786621 0.053711 0.779785 0.973633 0.948242 0.983154 0.969971 0.960556 0.944255 0.960556 0.944255 0.983154 0.969971 0.952148 0.960693 0.973633 0.948242 0.960556 0.944255 0.982178 0.929932 0.237549 0.95752 0.236369 0.944076 0.249268 0.96167 0.1064 0.94436 0.128148 0.935746 0.10497 0.924644 0.10497 0.924644 0.128148 0.935746 0.135897 0.89683 0.128148 0.935746 0.135897 0.89683 0.14624 0.931641 0.135897 0.89683 0.166628 0.88165 0.14624 0.931641 0.14624 0.931641 0.166628 0.88165 0.172704 0.919386 0.927658 0.651897 0.902832 0.654785 0.917671 0.709108 0.927658 0.651897 0.917671 0.709108 0.942871 0.713623 0.942871 0.713623 0.917671 0.709108 0.940674 0.722656 0.962816 0.656305 0.941162 0.64917 0.942383 0.664795 0.491022 0.929327 0.502446 0.944895 0.510498 0.933838 0.954898 0.294963 0.933594 0.254883 0.964069 0.260186 0.381719 0.983794 0.317139 0.966797 0.352539 0.945068 0.317139 0.966797 0.381719 0.983794 0.337158 0.995361 0.381719 0.983794 0.352539 0.945068 0.389935 0.965188 0.337158 0.995361 0.381719 0.983794 0.368408 1 0.976814 0.023926 0.994873 0.0896 0.940401 0.091208 0.940401 0.091208 0.949405 0.028942 0.976814 0.023926 0.211574 0.636012 0.19947 0.650659 0.198645 0.6073 0.211574 0.636012 0.198645 0.6073 0.225401 0.62689 0.226539 0.581141 0.198645 0.6073 0.199273 0.579132 0.225401 0.62689 0.198645 0.6073 0.226539 0.581141 0.225401 0.62689 0.226539 0.581141 0.245336 0.583883 0.226539 0.581141 0.243559 0.556749 0.245336 0.583883 0.245336 0.583883 0.243559 0.556749 0.266602 0.591309 0.243559 0.556749 0.226539 0.581141 0.199273 0.579132 0.275879 0.555664 0.243559 0.556749 0.272704 0.5412 0.208063 0.540616 0.243559 0.556749 0.199273 0.579132 0.272704 0.5412 0.243559 0.556749 0.246013 0.522998 0.208063 0.540616 0.199273 0.579132 0.186432 0.572941 0.243559 0.556749 0.237549 0.543457 0.208063 0.540616 0.243559 0.556749 0.237549 0.543457 0.246013 0.522998 0.237549 0.543457 0.208063 0.540616 0.246013 0.522998 0.276513 0.511322 0.272704 0.5412 0.246013 0.522998 0.246013 0.522998 0.208063 0.540616 0.189871 0.496206 0.246013 0.522998 0.238478 0.50011 0.276513 0.511322 0.246013 0.522998 0.189871 0.496206 0.238478 0.50011 0.29834 0.496582 0.276513 0.511322 0.27592 0.465949 0.27592 0.465949 0.276513 0.511322 0.238478 0.50011 0.238478 0.50011 0.189871 0.496206 0.19831 0.456068 0.238478 0.50011 0.19831 0.456068 0.27592 0.465949 0.19831 0.456068 0.198135 0.44245 0.27592 0.465949 0.27592 0.465949 0.198135 0.44245 0.287096 0.435563 0.287096 0.435563 0.198135 0.44245 0.212387 0.428396 0.287425 0.418852 0.287096 0.435563 0.212387 0.428396 0.287425 0.418852 0.274274 0.345903 0.31958 0.336914 0.274274 0.345903 0.287425 0.418852 0.233391 0.368215 0.233391 0.368215 0.287425 0.418852 0.212387 0.428396 0.233391 0.368215 0.212387 0.428396 0.18042 0.375244 0.233391 0.368215 0.18042 0.375244 0.178467 0.35083 0.91333 0.452393 0.941162 0.445068 0.928502 0.486455 0.955811 0.492188 0.928502 0.486455 0.941162 0.445068 0.953783 0.518806 0.955811 0.492188 0.972656 0.496094 0.972656 0.496094 0.955811 0.492188 0.98877 0.495361 0.955811 0.492188 0.98877 0.495361 0.981445 0.486816 0.981445 0.486816 0.955811 0.492188 0.970874 0.454274 0.970874 0.454274 0.955811 0.492188 0.941162 0.445068 0.970874 0.454274 0.941162 0.445068 0.93332 0.424668 0.93332 0.424668 0.941162 0.445068 0.925537 0.447754 0.427328 0.947883 0.428711 0.977783 0.411435 0.939554 0.841553 0.984619 0.773588 0.983494 0.831299 0.959717 0.831299 0.959717 0.773588 0.983494 0.789307 0.949219 0.131104 0.50293 0.159668 0.4104 0.171875 0.507568 0.131104 0.50293 0.171875 0.507568 0.12984 0.529122 0.12984 0.529122 0.171875 0.507568 0.182282 0.529693 0.12984 0.529122 0.182282 0.529693 0.141057 0.565921 0.182282 0.529693 0.184942 0.548048 0.141057 0.565921 0.009405 0.120302 0.019775 0.130127 0.001622 0.130446 0.959154 0.893743 0.968079 0.909286 0.957031 0.938721</float_array>
          <technique_common>
            <accessor source="#TrashBin1-mesh-map-0-array" count="1551" stride="2">
              <param name="S" type="float"/>
              <param name="T" type="float"/>
            </accessor>
          </technique_common>
        </source>
        <vertices id="TrashBin1-mesh-vertices">
          <input semantic="POSITION" source="#TrashBin1-mesh-positions"/>
        </vertices>
        <polylist material="Material_-1-material" count="6">
          <input semantic="VERTEX" source="#TrashBin1-mesh-vertices" offset="0"/>
          <input semantic="NORMAL" source="#TrashBin1-mesh-normals" offset="1"/>
          <input semantic="TEXCOORD" source="#TrashBin1-mesh-map-0" offset="2" set="0"/>
          <vcount>3 3 3 3 3 3 3 3 3 3 3 3 3 3 3 3 3 3 3 3 3 3 3 3 3 3 3 3 3 3 3 3 3 3 3 3 3 3 3 3 3 3 3 3 3 3 3 3 3 3 3 3 3 3 3 3 3 3 3 3 3 3 3 3 3 3 3 3 3 3 3 3 3 3 3 3 3 3 3 3 3 3 3 3 3 3 3 3 3 3 3 3 3 3 3 3 3 3 3 3 3 3 3 3 3 3 3 3 3 3 3 3 3 3 3 3 3 3 3 3 3 3 3 3 3 3 3 3 3 3 3 3 3 3 3 3 3 3 3 3 3 3 3 3 3 3 3 3 3 3 3 3 3 3 3 3 3 3 3 3 3 3 3 3 3 3 3 3 3 3 3 3 3 3 3 3 3 3 3 3 3 3 3 3 3 3 3 3 3 3 3 3 3 3 3 3 3 3 3 3 3 3 3 3 3 3 3 3 3 3 3 3 3 3 3 3 3 3 3 3 3 3 3 3 3 3 3 3 3 3 3 3 3 3 3 3 3 3 3 3 3 3 3 3 3 3 3 3 3 3 3 3 3 3 3 3 3 3 3 3 3 3 3 3 3 3 3 3 3 3 3 3 3 3 3 3 3 3 3 3 3 3 3 3 3 3 3 3 3 3 3 3 3 3 3 3 3 3 3 3 3 3 3 3 3 3 3 3 3 3 3 3 3 3 3 3 3 3 3 3 3 3 3 3 3 3 3 3 3 3 3 3 3 3 3 3 3 3 3 3 3 3 3 3 3 3 3 3 3 3 3 3 3 3 3 3 3 3 3 3 3 3 3 3 3 3 3 3 3 3 3 3 3 3 3 3 3 3 3 3 3 3 3 3 3 3 3 3 3 3 3 3 3 3 3 3 3 3 3 3 3 3 3 3 3 3 3 3 3 3 3 3 3 3 3 3 3 3 3 3 3 3 3 3 3 3 3 3 3 3 3 3 3 3 3 3 3 3 3 3 3 3 3 3 3 3 3 3 3 3 3 3 3 3 3 3 3 3 3 3 3 3 3 3 3 3 3 3 3 3 3 3 3 3 3 3 3 3 3 3 3 3 3 3 3 3 3 3 3 3 3 3 3 3 3 3 3 3 3 3 3 3 3 3 3 3 3 3 3 3 3 3 3 3 3 3 3</vcount>
          <p>0 0 0 1 0 1 2 0 2 2 1 3 1 1 4 3 1 5 0 2 6 2 2 7 4 2 8 4 3 9 2 3 10 5 3 11 4 4 12 5 4 13 6 4 14 0 5 15 4 5 16 7 5 17 0 6 18 7 6 19 1 6 20 8 7 21 6 7 22 9 7 23 4 8 24 6 8 25 8 8 26 4 9 27 8 9 28 7 9 29 8 10 30 9 10 31 10 10 32 8 11 33 10 11 34 11 11 35 11 12 36 10 12 37 12 12 38 13 13 39 11 13 40 12 13 41 8 14 42 11 14 43 13 14 44 7 15 45 8 15 46 13 15 47 12 16 48 14 16 49 13 16 50 12 17 51 15 17 52 14 17 53 15 18 54 12 18 55 16 18 56 15 19 57 17 19 58 14 19 59 13 20 60 14 20 61 18 20 62 19 21 63 20 21 64 21 21 65 19 22 66 21 22 67 22 22 68 18 23 69 19 23 70 22 23 71 13 24 72 18 24 73 23 24 74 18 25 75 22 25 76 23 25 77 22 26 78 24 26 79 23 26 80 24 27 81 3 27 82 1 27 83 23 28 84 24 28 85 1 28 86 23 29 87 1 29 88 7 29 89 23 30 90 7 30 91 13 30 92 2 31 93 25 31 94 3 31 95 2 32 96 25 32 97 26 32 98 2 33 99 26 33 100 5 33 101 3 34 102 24 34 103 25 34 104 25 35 105 27 35 106 26 35 107 27 36 108 25 36 109 24 36 110 24 37 111 22 37 112 27 37 113 27 38 114 22 38 115 21 38 116 28 39 117 27 39 118 21 39 119 21 40 120 20 40 121 29 40 122 21 41 123 29 41 124 28 41 125 28 42 126 29 42 127 30 42 128 30 43 129 31 43 130 32 43 131 30 44 132 32 44 133 33 44 134 33 45 135 32 45 136 34 45 137 33 46 138 28 46 139 30 46 140 28 47 141 33 47 142 27 47 143 26 48 144 27 48 145 33 48 146 33 49 147 35 49 148 26 49 149 33 50 150 36 50 151 35 50 152 5 51 153 26 51 154 35 51 155 37 52 156 5 52 157 35 52 158 37 53 159 35 53 160 38 53 161 35 54 162 38 54 163 36 54 164 38 55 165 36 55 166 39 55 167 34 56 168 39 56 169 33 56 170 33 57 171 39 57 172 36 57 173 20 58 174 19 58 175 40 58 176 40 59 177 19 59 178 18 59 179 40 60 180 18 60 181 41 60 182 40 61 183 41 61 184 42 61 185 43 62 186 40 62 187 42 62 188 42 63 189 41 63 190 44 63 191 44 64 192 45 64 193 42 64 194 46 65 195 42 65 196 45 65 197 42 66 198 46 66 199 47 66 200 48 67 201 45 67 202 49 67 203 46 68 204 45 68 205 50 68 206 45 69 207 48 69 208 50 69 209 50 70 210 48 70 211 51 70 212 48 71 213 49 71 214 52 71 215 52 72 216 49 72 217 53 72 218 51 73 219 48 73 220 52 73 221 52 74 222 53 74 223 54 74 224 51 75 225 52 75 226 55 75 227 55 76 228 52 76 229 54 76 230 55 77 231 51 77 232 56 77 233 51 78 234 56 78 235 57 78 236 56 79 237 55 79 238 58 79 239 57 80 240 56 80 241 58 80 242 59 81 243 55 81 244 60 81 245 60 82 246 55 82 247 54 82 248 60 83 249 54 83 250 61 83 251 60 84 252 61 84 253 62 84 254 18 85 255 14 85 256 41 85 257 41 86 258 63 86 259 64 86 260 41 87 261 64 87 262 44 87 263 41 88 264 14 88 265 17 88 266 20 89 267 40 89 268 43 89 269 20 90 270 43 90 271 65 90 272 20 91 273 65 91 274 29 91 275 65 92 276 43 92 277 66 92 278 29 93 279 65 93 280 30 93 281 65 94 282 66 94 283 67 94 284 43 95 285 42 95 286 47 95 287 43 96 288 47 96 289 66 96 290 66 97 291 47 97 292 68 97 293 66 98 294 68 98 295 69 98 296 17 99 297 63 99 298 41 99 299 64 100 300 63 100 301 70 100 302 71 101 303 5 101 304 37 101 305 5 102 306 71 102 307 6 102 308 71 103 309 37 103 310 72 103 311 37 104 312 73 104 313 72 104 314 73 105 315 37 105 316 38 105 317 71 106 318 72 106 319 74 106 320 71 107 321 74 107 322 75 107 323 74 108 324 72 108 325 73 108 326 74 109 327 73 109 328 76 109 329 39 110 330 73 110 331 38 110 332 73 111 333 39 111 334 76 111 335 77 112 336 76 112 337 78 112 338 76 113 339 39 113 340 78 113 341 78 114 342 39 114 343 34 114 344 78 115 345 79 115 346 80 115 347 78 116 348 34 116 349 79 116 350 80 117 351 79 117 352 81 117 353 79 118 354 34 118 355 32 118 356 79 119 357 32 119 358 81 119 359 81 120 360 32 120 361 82 120 362 32 121 363 31 121 364 82 121 365 82 122 366 31 122 367 67 122 368 82 123 369 67 123 370 83 123 371 82 124 372 84 124 373 81 124 374 84 125 375 82 125 376 83 125 377 84 126 378 83 126 379 85 126 380 85 127 381 83 127 382 86 127 383 86 128 384 83 128 385 87 128 386 65 129 387 67 129 388 31 129 389 31 130 390 30 130 391 65 130 392 67 131 393 69 131 394 83 131 395 6 132 396 88 132 397 9 132 398 88 133 399 6 133 400 89 133 401 90 134 402 89 134 403 6 134 404 90 135 405 6 135 406 71 135 407 88 136 408 89 136 409 91 136 410 91 137 411 89 137 412 92 137 413 93 138 414 91 138 415 94 138 416 88 139 417 91 139 418 93 139 419 88 140 420 10 140 421 9 140 422 10 141 423 88 141 424 93 141 425 93 142 426 94 142 427 95 142 428 93 143 429 95 143 430 10 143 431 95 144 432 94 144 433 96 144 434 95 145 435 96 145 436 97 145 437 12 146 438 10 146 439 95 146 440 12 147 441 95 147 442 16 147 443 16 148 444 95 148 445 97 148 446 16 149 447 97 149 448 15 149 449 15 150 450 97 150 451 17 150 452 94 151 453 91 151 454 92 151 455 94 152 456 98 152 457 96 152 458 98 153 459 94 153 460 99 153 461 94 154 462 92 154 463 99 154 464 99 155 465 92 155 466 100 155 467 90 156 468 100 156 469 92 156 470 90 157 471 92 157 472 89 157 473 101 158 474 17 158 475 97 158 476 17 159 477 101 159 478 63 159 479 63 160 480 101 160 481 102 160 482 63 161 483 102 161 484 70 161 485 70 162 486 102 162 487 103 162 488 103 163 489 102 163 490 104 163 491 101 164 492 105 164 493 106 164 494 101 165 495 106 165 496 102 165 497 102 166 498 106 166 499 104 166 500 106 167 501 107 167 502 108 167 503 104 168 504 106 168 505 108 168 506 104 169 507 108 169 508 103 169 509 109 170 510 103 170 511 110 170 512 111 171 513 103 171 514 108 171 515 103 172 516 111 172 517 110 172 518 108 173 519 112 173 520 111 173 521 112 174 522 108 174 523 113 174 524 110 175 525 111 175 526 114 175 527 114 176 528 111 176 529 115 176 530 111 177 531 112 177 532 115 177 533 116 178 534 115 178 535 112 178 536 114 179 537 115 179 538 117 179 539 112 180 540 118 180 541 116 180 542 118 181 543 112 181 544 119 181 545 115 182 546 116 182 547 120 182 548 115 183 549 120 183 550 121 183 551 120 184 552 116 184 553 122 184 554 122 185 555 116 185 556 118 185 557 122 186 558 118 186 559 123 186 560 122 187 561 123 187 562 124 187 563 120 188 564 122 188 565 125 188 566 122 189 567 124 189 568 125 189 569 126 190 570 124 190 571 127 190 572 126 191 573 128 191 574 125 191 575 126 192 576 125 192 577 124 192 578 125 193 579 129 193 580 130 193 581 125 194 582 130 194 583 120 194 584 131 195 585 97 195 586 96 195 587 101 196 588 97 196 589 105 196 590 105 197 591 97 197 592 131 197 593 131 198 594 96 198 595 132 198 596 132 199 597 96 199 598 98 199 599 131 200 600 132 200 601 133 200 602 133 201 603 105 201 604 131 201 605 106 202 606 105 202 607 107 202 608 105 203 609 133 203 610 134 203 611 105 204 612 134 204 613 107 204 614 76 205 615 99 205 616 74 205 617 77 206 618 78 206 619 80 206 620 76 207 621 77 207 622 99 207 623 75 208 624 74 208 625 99 208 626 75 209 627 99 209 628 100 209 629 98 210 630 99 210 631 77 210 632 98 211 633 77 211 634 132 211 635 132 212 636 77 212 637 135 212 638 135 213 639 77 213 640 80 213 641 71 214 642 75 214 643 100 214 644 71 215 645 100 215 646 90 215 647 133 216 648 132 216 649 135 216 650 133 217 651 135 217 652 136 217 653 133 218 654 136 218 655 134 218 656 134 219 657 137 219 658 138 219 659 134 220 660 138 220 661 107 220 662 139 221 663 138 221 664 140 221 665 139 222 666 140 222 667 141 222 668 107 223 669 138 223 670 139 223 671 107 224 672 139 224 673 108 224 674 108 225 675 139 225 676 113 225 677 139 226 678 119 226 679 141 226 680 139 227 681 119 227 682 113 227 683 136 228 684 135 228 685 142 228 686 142 229 687 135 229 688 80 229 689 136 230 690 142 230 691 134 230 692 134 231 693 142 231 694 137 231 695 143 232 696 137 232 697 144 232 698 144 233 699 137 233 700 142 233 701 142 234 702 85 234 703 144 234 704 85 235 705 142 235 706 84 235 707 81 236 708 84 236 709 142 236 710 81 237 711 142 237 712 80 237 713 44 238 714 64 238 715 70 238 716 44 239 717 70 239 718 109 239 719 70 240 720 103 240 721 109 240 722 44 241 723 109 241 724 45 241 725 49 242 726 45 242 727 109 242 728 109 243 729 145 243 730 110 243 731 145 244 732 109 244 733 49 244 734 53 245 735 49 245 736 117 245 737 49 246 738 117 246 739 145 246 740 117 247 741 145 247 742 110 247 743 117 248 744 110 248 745 114 248 746 53 249 747 117 249 748 61 249 749 53 250 750 61 250 751 54 250 752 61 251 753 117 251 754 146 251 755 146 252 756 117 252 757 121 252 758 117 253 759 115 253 760 121 253 761 62 254 762 61 254 763 146 254 764 62 255 765 146 255 766 147 255 767 147 256 768 146 256 769 148 256 770 146 257 771 148 257 772 149 257 773 146 258 774 149 258 775 121 258 776 150 259 777 149 259 778 151 259 779 151 260 780 149 260 781 121 260 782 150 261 783 151 261 784 152 261 785 152 262 786 151 262 787 129 262 788 130 263 789 121 263 790 120 263 791 151 264 792 121 264 793 130 264 794 151 265 795 130 265 796 129 265 797 153 266 798 60 266 799 62 266 800 154 267 801 59 267 802 60 267 803 60 268 804 153 268 805 155 268 806 154 269 807 60 269 808 155 269 809 154 270 810 155 270 811 156 270 812 153 271 813 62 271 814 155 271 815 62 272 816 147 272 817 148 272 818 155 273 819 62 273 820 148 273 821 155 274 822 148 274 823 157 274 824 148 275 825 149 275 826 150 275 827 158 276 828 157 276 829 148 276 830 158 277 831 148 277 832 150 277 833 159 278 834 158 278 835 150 278 836 159 279 837 150 279 838 160 279 839 50 280 840 51 280 841 161 280 842 162 281 843 50 281 844 161 281 845 162 282 846 161 282 847 163 282 848 163 283 849 161 283 850 164 283 851 161 284 852 51 284 853 165 284 854 165 285 855 51 285 856 57 285 857 165 286 858 58 286 859 55 286 860 165 287 861 55 287 862 161 287 863 161 288 864 55 288 865 164 288 866 164 289 867 55 289 868 59 289 869 166 290 870 167 290 871 168 290 872 167 291 873 166 291 874 169 291 875 167 292 876 169 292 877 170 292 878 168 293 879 167 293 880 170 293 881 168 294 882 170 294 883 171 294 884 170 295 885 169 295 886 172 295 887 170 296 888 173 296 889 171 296 890 174 297 891 168 297 892 171 297 893 168 298 894 174 298 895 166 298 896 174 299 897 169 299 898 166 299 899 169 300 900 174 300 901 171 300 902 175 301 903 169 301 904 171 301 905 157 302 906 171 302 907 173 302 908 175 303 909 171 303 910 176 303 911 171 304 912 157 304 913 176 304 914 177 305 915 176 305 916 178 305 917 177 306 918 179 306 919 169 306 920 176 307 921 177 307 922 175 307 923 175 308 924 177 308 925 169 308 926 47 309 927 46 309 928 180 309 929 47 310 930 180 310 931 68 310 932 68 311 933 180 311 934 181 311 935 59 312 936 182 312 937 164 312 938 59 313 939 165 313 940 182 313 941 59 314 942 165 314 943 58 314 944 182 315 945 165 315 946 183 315 947 165 316 948 57 316 949 183 316 950 57 317 951 184 317 952 185 317 953 184 318 954 57 318 955 154 318 956 154 319 957 57 319 958 58 319 959 58 320 960 154 320 961 59 320 962 184 321 963 154 321 964 156 321 965 157 322 966 156 322 967 155 322 968 50 323 969 180 323 970 46 323 971 180 324 972 50 324 973 162 324 974 180 325 975 186 325 976 187 325 977 180 326 978 162 326 979 187 326 980 170 327 981 172 327 982 188 327 983 170 328 984 188 328 985 173 328 986 157 329 987 173 329 988 189 329 989 157 330 990 189 330 991 156 330 992 188 331 993 189 331 994 173 331 995 190 332 996 188 332 997 172 332 998 190 333 999 172 333 1000 169 333 1001 190 334 1002 169 334 1003 179 334 1004 189 335 1005 188 335 1006 191 335 1007 189 336 1008 191 336 1009 156 336 1010 188 337 1011 190 337 1012 192 337 1013 188 338 1014 192 338 1015 191 338 1016 191 339 1017 156 339 1018 177 339 1019 179 340 1020 192 340 1021 190 340 1022 157 341 1023 158 341 1024 178 341 1025 157 342 1026 178 342 1027 176 342 1028 156 343 1029 177 343 1030 178 343 1031 129 344 1032 125 344 1033 128 344 1034 129 345 1035 128 345 1036 152 345 1037 152 346 1038 128 346 1039 193 346 1040 152 347 1041 193 347 1042 160 347 1043 193 348 1044 128 348 1045 194 348 1046 194 349 1047 128 349 1048 126 349 1049 194 350 1050 126 350 1051 127 350 1052 193 351 1053 194 351 1054 195 351 1055 195 352 1056 196 352 1057 193 352 1058 196 353 1059 195 353 1060 197 353 1061 160 354 1062 193 354 1063 196 354 1064 152 355 1065 160 355 1066 150 355 1067 159 356 1068 160 356 1069 196 356 1070 159 357 1071 196 357 1072 198 357 1073 158 358 1074 159 358 1075 178 358 1076 178 359 1077 159 359 1078 199 359 1079 199 360 1080 159 360 1081 198 360 1082 199 361 1083 198 361 1084 200 361 1085 199 362 1086 200 362 1087 201 362 1088 200 363 1089 198 363 1090 202 363 1091 202 364 1092 198 364 1093 203 364 1094 203 365 1095 198 365 1096 204 365 1097 198 366 1098 197 366 1099 204 366 1100 198 367 1101 196 367 1102 197 367 1103 205 368 1104 204 368 1105 197 368 1106 206 369 1107 197 369 1108 195 369 1109 197 370 1110 207 370 1111 205 370 1112 197 371 1113 206 371 1114 207 371 1115 195 372 1116 206 372 1117 127 372 1118 206 373 1119 127 373 1120 207 373 1121 127 374 1122 195 374 1123 194 374 1124 127 375 1125 124 375 1126 123 375 1127 207 376 1128 127 376 1129 205 376 1130 205 377 1131 127 377 1132 123 377 1133 119 378 1134 123 378 1135 118 378 1136 123 379 1137 119 379 1138 204 379 1139 123 380 1140 204 380 1141 205 380 1142 204 381 1143 208 381 1144 203 381 1145 208 382 1146 119 382 1147 141 382 1148 208 383 1149 204 383 1150 119 383 1151 112 384 1152 119 384 1153 113 384 1154 68 385 1155 181 385 1156 69 385 1157 180 386 1158 186 386 1159 181 386 1160 69 387 1161 181 387 1162 87 387 1163 181 388 1164 186 388 1165 87 388 1166 186 389 1167 209 389 1168 210 389 1169 186 390 1170 210 390 1171 87 390 1172 87 391 1173 210 391 1174 211 391 1175 69 392 1176 87 392 1177 83 392 1178 67 393 1179 66 393 1180 69 393 1181 212 394 1182 187 394 1183 213 394 1184 213 395 1185 187 395 1186 214 395 1187 214 396 1188 187 396 1189 162 396 1190 212 397 1191 187 397 1192 186 397 1193 215 398 1194 163 398 1195 164 398 1196 216 399 1197 215 399 1198 217 399 1199 163 400 1200 215 400 1201 218 400 1202 218 401 1203 163 401 1204 209 401 1205 163 402 1206 209 402 1207 162 402 1208 218 403 1209 215 403 1210 219 403 1211 219 404 1212 215 404 1213 217 404 1214 186 405 1215 212 405 1216 213 405 1217 186 406 1218 213 406 1219 209 406 1220 209 407 1221 213 407 1222 218 407 1223 215 408 1224 164 408 1225 216 408 1226 216 409 1227 164 409 1228 220 409 1229 220 410 1230 221 410 1231 216 410 1232 210 411 1233 216 411 1234 221 411 1235 211 412 1236 210 412 1237 222 412 1238 162 413 1239 209 413 1240 223 413 1241 223 414 1242 162 414 1243 213 414 1244 223 415 1245 213 415 1246 214 415 1247 214 416 1248 162 416 1249 218 416 1250 162 417 1251 218 417 1252 213 417 1253 214 418 1254 218 418 1255 219 418 1256 214 419 1257 209 419 1258 219 419 1259 210 420 1260 209 420 1261 216 420 1262 209 421 1263 216 421 1264 219 421 1265 209 422 1266 223 422 1267 214 422 1268 224 423 1269 225 423 1270 226 423 1271 220 424 1272 164 424 1273 182 424 1274 227 425 1275 220 425 1276 182 425 1277 185 426 1278 183 426 1279 57 426 1280 184 427 1281 228 427 1282 229 427 1283 184 428 1284 229 428 1285 183 428 1286 184 429 1287 183 429 1288 185 429 1289 183 430 1290 229 430 1291 182 430 1292 230 431 1293 229 431 1294 231 431 1295 229 432 1296 228 432 1297 231 432 1298 231 433 1299 228 433 1300 232 433 1301 182 434 1302 229 434 1303 227 434 1304 227 435 1305 229 435 1306 233 435 1307 227 436 1308 233 436 1309 234 436 1310 227 437 1311 234 437 1312 235 437 1313 233 438 1314 229 438 1315 236 438 1316 221 439 1317 220 439 1318 227 439 1319 217 440 1320 219 440 1321 216 440 1322 237 441 1323 221 441 1324 227 441 1325 237 442 1326 227 442 1327 235 442 1328 237 443 1329 235 443 1330 238 443 1331 237 444 1332 238 444 1333 239 444 1334 222 445 1335 210 445 1336 240 445 1337 240 446 1338 210 446 1339 221 446 1340 222 447 1341 240 447 1342 241 447 1343 241 448 1344 240 448 1345 211 448 1346 222 449 1347 241 449 1348 221 449 1349 221 450 1350 241 450 1351 237 450 1352 241 451 1353 237 451 1354 211 451 1355 237 452 1356 242 452 1357 211 452 1358 211 453 1359 242 453 1360 86 453 1361 243 454 1362 229 454 1363 236 454 1364 243 455 1365 236 455 1366 238 455 1367 238 456 1368 236 456 1369 239 456 1370 245 457 1371 244 457 1372 246 457 1373 245 458 1374 246 458 1375 244 458 1376 86 459 1377 87 459 1378 211 459 1379 228 460 1380 178 460 1381 247 460 1382 178 461 1383 228 461 1384 156 461 1385 228 462 1386 247 462 1387 232 462 1388 156 463 1389 228 463 1390 184 463 1391 192 464 1392 179 464 1393 177 464 1394 177 465 1395 191 465 1396 192 465 1397 247 466 1398 178 466 1399 199 466 1400 247 467 1401 199 467 1402 232 467 1403 248 468 1404 199 468 1405 201 468 1406 232 469 1407 199 469 1408 248 469 1409 232 470 1410 248 470 1411 231 470 1412 248 471 1413 249 471 1414 231 471 1415 231 472 1416 249 472 1417 236 472 1418 249 473 1419 248 473 1420 201 473 1421 236 474 1422 249 474 1423 233 474 1424 202 475 1425 249 475 1426 201 475 1427 233 476 1428 249 476 1429 250 476 1430 202 477 1431 201 477 1432 200 477 1433 249 478 1434 251 478 1435 202 478 1436 249 479 1437 251 479 1438 250 479 1439 251 480 1440 202 480 1441 250 480 1442 234 481 1443 233 481 1444 250 481 1445 250 482 1446 202 482 1447 203 482 1448 250 483 1449 252 483 1450 234 483 1451 250 484 1452 203 484 1453 252 484 1454 235 485 1455 234 485 1456 239 485 1457 239 486 1458 234 486 1459 252 486 1460 252 487 1461 203 487 1462 208 487 1463 252 488 1464 208 488 1465 239 488 1466 208 489 1467 141 489 1468 239 489 1469 239 490 1470 141 490 1471 253 490 1472 253 491 1473 141 491 1474 140 491 1475 254 492 1476 253 492 1477 140 492 1478 254 493 1479 144 493 1480 85 493 1481 144 494 1482 254 494 1483 143 494 1484 143 495 1485 254 495 1486 140 495 1487 143 496 1488 140 496 1489 138 496 1490 143 497 1491 138 497 1492 137 497 1493 229 498 1494 230 498 1495 243 498 1496 255 499 1497 243 499 1498 230 499 1499 243 500 1500 255 500 1501 238 500 1502 238 501 1503 255 501 1504 235 501 1505 255 502 1506 235 502 1507 239 502 1508 239 503 1509 255 503 1510 236 503 1511 236 504 1512 255 504 1513 230 504 1514 236 505 1515 230 505 1516 256 505 1517 256 506 1518 230 506 1519 231 506 1520 257 507 1521 236 507 1522 256 507 1523 256 508 1524 231 508 1525 257 508 1526 257 509 1527 231 509 1528 236 509 1529 254 510 1530 85 510 1531 86 510 1532 254 511 1533 86 511 1534 253 511 1535 253 512 1536 86 512 1537 242 512 1538 253 513 1539 242 513 1540 239 513 1541 242 514 1542 237 514 1543 239 514 1544 222 515 1545 221 515 1546 211 515 1547 221 516 1548 240 516 1549 211 516 1550</p>
        </polylist>
      </mesh>
    </geometry>
  </library_geometries>
  <library_visual_scenes>
    <visual_scene id="Scene" name="Scene">
      <node id="TrashBin1" name="TrashBin1" type="NODE">
        <scale sid="scale">1 1 1</scale>
        <translate sid="location">0 0 0</translate>
        <rotate sid="rotationX">1 0 0 0</rotate>
        <rotate sid="rotationY">0 1 0 0</rotate>
        <rotate sid="rotationZ">0 0 1 0</rotate>
        <instance_geometry url="#TrashBin1-mesh" name="TrashBin1">
          <bind_material>
            <technique_common>
            </technique_common>
          </bind_material>
        </instance_geometry>
      </node>
    </visual_scene>
  </library_visual_scenes>
  <scene>
    <instance_visual_scene url="#Scene"/>
  </scene>
</COLLADA>
