<?xml version="1.0" encoding="utf-8"?>
<COLLADA xmlns="http://www.collada.org/2005/11/COLLADASchema" version="1.4.1" xmlns:xsi="http://www.w3.org/2001/XMLSchema-instance">
  <asset>
    <contributor>
      <author>Blockbench user</author>
      <authoring_tool>Blockbench</authoring_tool>
    </contributor>
    <created>2026-08-01T18:09:04.455Z</created>
    <modified>2026-08-01T18:09:04.463Z</modified>
    <unit name="meter" meter="1.0"/>
    <up_axis>Y_UP</up_axis>
  </asset>
  <library_effects>
  </library_effects>
  <library_images>
  </library_images>
  <library_materials>
  </library_materials>
  <library_geometries>
    <geometry id="Triangle1-mesh" name="Triangle1">
      <mesh>
        <source id="Triangle1-mesh-positions">
          <float_array id="Triangle1-mesh-positions-array" count="618">-0.067356 0.190425 0.056201 0.173318 -0.497008 0.261793 0.156899 -0.361952 0.226947 0.198963 -0.487665 0.294958 0.172325 -0.579435 0.319282 0.12409 -0.497596 0.285802 0.10411 -0.366582 0.24269 0.103124 -0.358008 0.26365 0.142163 -0.482451 0.319316 0.063952 -0.348594 0.249429 0.067892 -0.340893 0.232599 0.070237 -0.373657 0.255117 0.166624 -0.363019 0.205556 0.177605 -0.342256 0.202754 0.171049 -0.360938 0.185493 0.160675 -0.337723 0.185531 0.172608 -0.579372 -0.317857 0.199728 -0.485572 -0.29848 0.171499 -0.499201 -0.258812 0.065791 -0.368944 -0.256388 0.095265 -0.357677 -0.26355 0.076651 -0.360053 -0.235725 0.05677 -0.345182 -0.240072 0.137049 -0.48297 -0.325968 0.128056 -0.495579 -0.281818 0.161268 -0.366931 -0.205019 0.158385 -0.359585 -0.227987 0.164769 -0.353348 -0.175258 0.175512 -0.354099 -0.185091 0.152392 -0.330367 -0.189543 -0.232462 -0.354971 -0.056605 -0.251633 -0.343881 -0.061583 -0.243723 -0.338222 -0.045735 -0.24846 -0.352476 -0.051361 -0.306147 -0.495156 -0.02251 -0.271246 -0.361478 -0.029301 -0.304235 -0.496838 0.031464 -0.25291 -0.36533 0.043444 -0.273639 -0.361083 0.027166 -0.342744 -0.486231 0.038259 -0.35092 -0.483863 -0.034352 -0.243347 -0.324658 0.049702 -0.242212 -0.3464 0.066131 -0.238474 -0.368805 0.066063 -0.351394 -0.579398 0.001836 -0.230847 -0.343962 0.050081 0.076073 -0.327871 -0.225807 0.073332 0.032468 -0.082066 0.157531 -0.308738 -0.213196 -0.101811 0.113686 -0.045217 -0.261117 -0.308305 -0.030365 -0.136645 0.035325 -0.023203 0.148741 -0.322571 0.19668 0.07747 0.090353 0.056806 0.156862 -0.309512 0.217118 0.090103 0.114184 0.062606 0.095987 -0.306459 0.245123 0.092247 0.0243 0.113476 0.061651 0.105181 -0.083796 0.061815 0.114168 -0.091761 0.068765 0.043236 -0.114177 0.085117 0.050112 -0.103265 0.063426 0.120442 -0.071574 0.074746 0.102761 -0.08104 0.056681 0.036223 -0.131332 0.047242 0.1114 -0.103382 0.040231 0.104726 -0.096862 0.028317 0.121313 -0.089466 0.0313 0.103074 -0.103242 0.031391 0.029298 -0.106172 0.089324 0.009851 -0.106445 0.044075 0.009985 -0.129391 0.039819 0.050426 -0.121326 0.090031 0.114709 -0.05901 0.078673 0.092277 -0.052485 0.027087 0.122899 0.093019 0.047214 0.049054 0.125899 0.045357 0.119256 0.0855 0.056818 0.049938 0.119568 0.044078 0.009342 0.133677 0.06309 0.02889 0.127538 -0.024984 0.166505 -0.064973 0.034771 0.120881 -0.057949 0.0074 0.166658 -0.041718 0.003807 0.113642 -0.105598 0.007784 0.091812 -0.087705 -0.003146 0.169854 -0.091782 -0.008422 0.2089 -0.086658 -0.019447 0.195797 -0.084876 -0.241258 -0.319174 0.024282 0.084778 -0.319849 0.227168 -0.06447 0.190064 -0.048136 -0.083292 0.171865 -0.042436 -0.074926 0.1855 0.037873 -0.089874 0.200807 -0.008016 0.067141 0.105094 0.082442 0.077143 0.034366 0.085714 0.031199 0.037592 0.105386 0.068487 0.054276 0.10409 0.082029 0.055236 0.108202 0.047909 0.050477 0.1125 0.061681 0.122148 0.074923 0.0077 0.254424 0.035485 0.034492 0.2408 0.05737 -0.036326 0.23832 0.055394 0.052175 0.265053 0.005666 0.026679 0.265261 0.036675 0.054462 0.251186 0.039962 0.036349 0.238333 -0.034744 0.046146 0.236149 -0.055504 0.041078 0.264543 -0.047509 0.032132 0.264049 -0.02475 -0.015269 0.238175 -0.050062 -0.019503 0.249163 -0.062788 0.017332 0.235859 -0.014256 -0.09342 0.122034 0.020146 -0.100643 0.10221 0.007216 -0.093145 0.109233 0.04883 -0.103794 0.037189 0.021677 -0.135849 0.007877 0.02371 -0.051918 0.1594 0.051161 -0.261956 -0.310902 0.039718 -0.082484 0.090595 0.035531 -0.098564 0.115828 -0.018244 -0.11257 0.112699 -0.003909 -0.094221 0.120521 -0.016641 -0.09898 0.111906 -0.000062 -0.14408 0.034436 0.01177 0.088507 -0.311457 -0.246199 0.102561 -0.312682 -0.23469 -0.107178 0.032534 -0.021497 -0.237767 -0.321305 -0.031944 0.003673 0.11368 0.108919 0.007554 0.091046 0.091608 -0.013996 0.265242 -0.024281 -0.01079 0.264107 -0.05296 -0.008041 0.231282 -0.029343 -0.029696 0.266725 -0.043971 0.044628 0.164236 -0.022954 0.03158 0.183583 -0.028799 -0.037025 0.189545 -0.041585 0.008718 0.189116 -0.075186 -0.026521 0.126867 -0.007376 -0.038687 0.184311 -0.01492 0.001355 0.126 -0.029371 -0.005241 0.152722 -0.025485 -0.007424 0.129173 -0.010914 0.003326 0.187833 -0.057168 0.06579 0.190608 -0.053899 0.011907 0.152753 -0.010235 0.034123 0.123652 -0.002757 0.022052 0.129084 -0.004008 0.024663 0.185159 -0.036186 -0.018171 0.271619 0.044559 -0.058754 0.263391 0.013705 -0.019703 0.268885 0.062288 0.044554 0.271219 0.058845 -0.05663 0.238175 0.002617 -0.051965 0.274292 -0.002292 -0.06408 0.247497 -0.027279 -0.010086 0.286941 0.004048 0.010962 0.276239 0.001314 -0.082793 0.090073 -0.035491 -0.134449 0.056119 0.011765 -0.121575 0.062178 0.012347 0.036116 0.105966 0.101251 0.003985 0.172472 0.095836 -0.010935 0.14891 0.072499 0.079152 0.173775 0.046894 0.063218 0.213472 0.049706 0.054845 0.136919 0.045459 0.069715 0.160985 0.019809 -0.014298 0.190405 -0.078352 -0.015957 0.190386 -0.077123 -0.069056 0.119577 -0.002185 -0.044784 0.185297 0.009208 0.012439 0.178003 0.041304 -0.000142 0.18968 0.060125 -0.016276 0.171776 0.037623 -0.016091 0.189169 0.083082 -0.054606 0.212141 0.065668 0.048935 0.197672 0.075007 0.039326 0.183622 0.021195 0.074168 0.190336 0.028902 0.07246 0.190353 -0.021399 0.077463 0.175655 -0.047985 0.062099 0.173935 -0.012263 0.064858 0.190364 -0.01931 0.069635 0.190324 -0.022937 0.084141 0.191322 -0.024984 0.07436 0.190231 -0.023932 0.013687 0.126128 0.031233 -0.001458 0.123645 0.035325 -0.010418 0.152763 0.009964 -0.041668 0.224942 0.000423 0.043893 0.218816 -0.006397 0.008869 0.240865 0.035758 -0.021888 0.100355 0.025231 -0.030055 0.088283 -0.007565 0.032457 0.081788 0.020011 0.086277 0.207533 -0.018614 -0.124589 0.049607 -0.001095 -0.137324 0.035171 -0.010578 0.003618 0.129141 0.017955 0.014858 0.152727 0.011852 0.021353 0.081747 -0.02301</float_array>
          <technique_common>
            <accessor source="#Triangle1-mesh-positions-array" count="206" stride="3">
              <param name="X" type="float"/>
              <param name="Y" type="float"/>
              <param name="Z" type="float"/>
            </accessor>
          </technique_common>
        </source>
        <source id="Triangle1-mesh-normals">
          <float_array id="Triangle1-mesh-normals-array" count="1500">0.797587 -0.057949 -0.600413 -0.366827 -0.529204 -0.765102 -0.408802 -0.340915 -0.846556 0.784136 -0.361341 -0.504543 0.253279 0.270439 0.928823 0.383341 0.47467 0.792299 -0.88857 -0.301326 -0.345899 0.318498 -0.872011 0.371692 0.353213 -0.777713 0.520003 0.716264 0.321089 -0.61957 -0.800858 -0.249257 0.544516 0.400686 0.124295 0.907745 -0.883611 0.019193 0.467829 0.882343 -0.446637 0.148279 0.117225 -0.987795 0.102566 -0.309002 0.136131 0.941268 0.50257 0.535396 0.678803 -0.960121 -0.271689 0.065972 0.818492 -0.333314 0.467946 0.389605 -0.902503 0.183567 -0.571579 -0.600765 0.558909 -0.364785 0.428953 -0.826397 0.40309 0.071923 -0.91233 -0.892044 -0.352806 -0.282462 -0.428713 -0.539591 0.724601 0.661715 0.250938 -0.706515 -0.459304 -0.364894 0.809872 0.432947 0.513472 -0.74088 0.356164 0.542552 -0.760779 -0.949267 -0.192812 -0.248424 0.947244 0.320087 -0.016525 0.829272 -0.154299 0.537122 0.278153 -0.885768 0.371546 0.545629 0.6343 0.547679 0.526504 0.682761 -0.506587 -0.303052 -0.77365 -0.55644 0.966181 -0.254395 -0.042154 0.910108 -0.332695 -0.247017 -0.529324 0.360368 0.768083 0.134044 -0.141663 0.980798 0.228443 -0.108791 -0.96746 -0.938815 0.175104 0.296589 -0.844136 -0.142403 0.516871 -0.834922 0.538938 0.111588 -0.992408 0.047843 0.113305 0.062199 -0.368407 0.927582 0.155824 -0.35058 -0.923478 0.87443 -0.482964 -0.046027 -0.876203 0.480238 -0.040492 0.799478 0.131604 0.586101 0.672288 -0.535337 -0.511315 -0.040186 -0.992932 -0.111671 -0.397499 -0.437817 0.806418 -0.347449 -0.28186 0.894334 -0.90848 -0.329402 0.257211 -0.412631 -0.340206 0.844982 0.915586 0.126421 -0.381732 0.482803 0.591498 0.64578 -0.909186 0.3345 -0.247972 0.922483 0.028819 -0.384961 0.653168 -0.166467 -0.738688 0.406862 0.341776 0.847144 -0.966539 -0.16004 -0.200476 0.987017 0.127554 -0.097605 0.43417 0.309852 -0.845866 0.860335 0.036237 0.50844 0.912076 0.36525 -0.186305 -0.938195 -0.14322 0.315086 -0.882315 0.024609 -0.470016 0.706587 0.322831 -0.629694 -0.316532 0.811836 0.490642 0.178633 0.935453 -0.304989 0.16226 0.894519 -0.416542 0.449319 0.480225 -0.753323 -0.63707 -0.079741 -0.76667 -0.583733 0.544481 0.602325 0.26908 0.582791 -0.76678 -0.263749 0.902611 0.340191 0.719086 0.297359 -0.628086 0.515343 0.120862 -0.848418 -0.41912 0.134946 -0.897846 0.634756 0.403278 -0.659129 0.436093 0.368463 -0.82101 0.951243 0.121781 -0.283383 0.693803 -0.146173 0.705175 0.414744 0.462072 0.783886 0.461723 0.45157 0.763477 0.128956 0.180786 0.975032 0.415661 -0.121178 0.901411 0.263845 0.35927 0.89516 -0.490487 -0.536705 0.686564 -0.917305 -0.33871 -0.209351 0.444817 0.247247 -0.860817 -0.777551 0.057724 -0.626165 0.470867 0.265056 -0.841445 0.296214 0.606033 -0.738228 -0.262863 0.090538 -0.960576 -0.77383 -0.02149 -0.633029 -0.394392 -0.452544 0.799787 -0.420824 -0.42803 0.799811 0.823489 0.53684 0.183489 0.97198 -0.233238 0.029233 0.615059 -0.429726 -0.661089 0.567249 -0.80239 -0.185468 0.22257 -0.421029 0.879316 -0.793255 0.607423 0.042228 0.380418 -0.505173 -0.77465 -0.760146 0.63955 0.114688 -0.262994 0.293866 0.918954 0.957442 0.076775 0.278226 -0.701732 0.71085 -0.047588 -0.574204 0.623541 -0.530553 -0.528109 -0.842166 -0.10889 -0.928099 0.134507 0.347188 0.889051 0.105112 -0.445579 -0.285948 0.579819 -0.762917 0.460458 0.455225 0.762069 0.447291 0.416507 0.791488 -0.887833 -0.224795 0.401522 -0.258461 -0.469258 -0.84439 0.446565 0.737492 -0.506641 0.159441 0.706095 -0.689934 0.36259 0.373355 0.853894 0.293948 -0.367998 -0.882141 -0.884085 -0.393911 -0.25145 -0.943884 -0.147158 -0.295683 0.534376 0.599783 -0.595569 0.575008 0.727833 -0.373664 0.697141 0.132552 0.704574 -0.844321 -0.440306 -0.305374 -0.887177 -0.396062 -0.236752 -0.413108 -0.365669 -0.834043 -0.40151 -0.334372 -0.852634 0.832193 -0.386466 0.397617 -0.044624 0.822671 0.566764 -0.610433 -0.616112 -0.497773 0.092152 -0.984821 0.147093 0.483765 -0.874569 0.033175 -0.397495 -0.859604 -0.321059 -0.838385 0.544169 -0.031476 0.231795 0.966286 0.112087 -0.558028 0.755719 0.342774 0.971438 0.20637 -0.117127 -0.081649 -0.76765 -0.635647 -0.024585 -0.995352 0.093111 0.782296 0.332894 -0.526492 0.734171 -0.137969 0.664799 -0.955759 0.265096 0.127469 -0.961663 0.246879 0.119396 -0.395665 0.374531 -0.838556 0.983058 -0.083886 -0.16297 -0.303437 0.206137 0.930287 0.561829 -0.242895 0.790791 -0.962642 0.265075 0.055276 -0.950682 0.298602 0.083908 -0.587897 0.688891 -0.424035 0.073327 -0.893418 -0.443201 -0.875948 0.482404 -0.000768 -0.63038 0.776074 -0.018193 -0.246574 0.332777 0.910198 -0.363845 0.172188 0.915406 -0.398188 -0.276684 0.874581 -0.166403 0.730939 -0.661844 -0.199308 0.918633 0.341159 -0.871674 0.05535 -0.48695 0.932361 -0.359901 -0.034275 0.935081 -0.347207 0.071217 -0.983561 -0.179969 0.0148 -0.256033 -0.345918 -0.902656 0.367418 0.352814 0.860538 0.16282 0.294237 -0.941761 0.026166 0.999146 0.031972 0.253879 -0.460154 -0.850767 0.104721 -0.128298 -0.986191 -0.392666 0.822863 0.410743 0.718271 -0.19858 -0.666823 0.67543 0.735964 0.046379 0.085509 0.512183 -0.854609 0.707046 0.470012 -0.528369 -0.943423 -0.204356 0.261134 -0.259762 0.631765 -0.73034 0.125338 0.991793 -0.02524 -0.451638 -0.035258 0.891504 -0.384201 -0.748894 0.539951 -0.391501 -0.756885 -0.523309 -0.607405 -0.228556 -0.760803 -0.901441 -0.164264 -0.400528 0.060338 0.994216 0.088851 -0.053941 0.978254 0.200276 0.374093 -0.827357 -0.41897 -0.950267 0.210881 0.229176 0.60307 -0.296243 -0.740639 0.085492 0.400124 0.912465 -0.225917 0.085354 -0.9704 -0.567598 -0.352053 -0.744238 0.014171 -0.999386 0.032052 0.033393 -0.980398 0.194177 0.280613 -0.505757 0.815761 -0.052518 -0.979297 -0.195497 -0.065541 -0.996027 -0.060286 0.584889 -0.314065 -0.747842 0.87818 0.380475 0.289893 -0.624477 0.378386 0.683266 -0.285431 0.950612 0.12193 -0.762793 0.283796 0.58104 0.060881 -0.251009 0.966068 -0.027861 0.988294 0.149998 -0.333686 -0.402865 0.852264 0.075715 -0.944768 0.318874 -0.064977 0.837244 0.542956 -0.508975 -0.382051 0.77135 -0.866234 0.373181 0.332226 -0.791754 0.530311 0.303141 -0.892928 -0.368323 0.258878 -0.886018 0.45935 -0.063 -0.591364 0.676568 -0.438798 -0.151037 0.794722 -0.587882 -0.047395 0.947803 0.315316 -0.04395 -0.32755 0.943811 0.526212 0.849826 0.029946 -0.38936 -0.757288 -0.524322 -0.760158 -0.256793 -0.596839 -0.281492 -0.933764 -0.221014 -0.49298 0.043081 -0.868973 -0.877286 0.048409 -0.477521 -0.575296 0.418862 -0.702559 -0.553179 -0.041637 -0.832021 0.296493 0.737985 -0.606193 0.019402 0.911611 -0.410597 0.088755 0.372378 -0.923827 0.862452 -0.259874 0.434329 0.865705 0.500499 -0.007445 0.751254 -0.605546 -0.262548 -0.876588 0.465666 0.121447 0.797177 -0.167629 -0.580009 -0.846593 0.531198 -0.0333 -0.809487 0.497899 -0.31117 -0.562859 0.250188 0.787779 -0.43271 0.333605 0.837538 0.983328 -0.181087 -0.016564 0.548219 0.836292 -0.008532 0.790279 0.315973 0.524996 0.480592 0.440586 0.758232 0.421413 0.367953 -0.828868 -0.313397 -0.545127 -0.777572 0.501027 0.185452 0.845328 -0.883023 0.106407 0.457109 0.532032 0.2012 0.822472 0.446554 0.305471 0.840997 0.53698 0.156823 0.82889 0.690988 0.458412 0.558922 -0.522007 -0.090611 0.848115 -0.614505 0.023152 0.788573 -0.970643 0.236686 -0.04279 -0.982342 0.187031 -0.004829 -0.929837 0.367963 0.002504 -0.537341 -0.436865 -0.721397 0.929897 0.075998 -0.359884 0.744794 -0.243626 -0.621231 -0.402367 -0.539605 -0.739545 -0.956145 -0.262821 0.129275 -0.409866 -0.401447 -0.819054 -0.411662 -0.399598 -0.819058 0.196214 -0.472107 -0.859427 0.000145 0.0477 -0.998862 0.262695 -0.178955 -0.948138 0.345461 -0.228493 -0.910191 -0.496098 -0.233895 -0.83617 0.549813 0.395844 0.735536 0.918384 0.088456 0.385678 0.098914 -0.433651 -0.895636 -0.04858 0.750736 0.658814 0.549789 -0.5483 -0.630158 -0.585333 -0.170058 -0.792758 -0.27238 -0.84225 -0.465214 -0.013432 -0.999346 -0.033581 -0.011608 -0.999466 -0.030553 -0.471118 -0.825604 -0.310526 0.38431 0.455272 -0.80314 0.413825 0.484022 0.77102 -0.448705 -0.535746 -0.715291 0.449253 0.304056 0.840072 0.430476 0.444085 0.785798 -0.059739 0.254849 0.965134 0.942923 0.324324 0.075561 0.458585 0.477308 0.749585 0.939674 -0.33852 -0.049174 0.747373 -0.6247 0.226239 0.754876 -0.613439 0.232065 0.854183 0.364857 0.370473 0.895913 -0.37277 0.241625 -0.772554 -0.45617 0.441667 -0.84424 -0.011787 0.535835 0.255595 0.555219 -0.791456 -0.706492 0.450289 -0.545994 -0.879815 0.158631 -0.448063 -0.250603 -0.777882 -0.57628 0.597411 0.612983 -0.517061 -0.818202 0.042585 -0.573352 -0.365785 -0.927716 -0.074462 -0.20612 -0.913637 0.350404 0.476199 -0.821922 0.312536 -0.820908 0.044525 -0.569322 0.016104 0.621028 0.783623 -0.665582 -0.268313 0.696425 0.016481 0.619377 0.784921 -0.250838 0.81639 -0.520181 0.356963 -0.081945 -0.930517 -0.321851 0.75893 -0.566071 0.239146 0.04147 0.970098 -0.623264 0.780376 0.050549 -0.360143 0.763233 -0.536445 -0.972318 -0.221642 -0.073972 0.765674 -0.64248 0.031024 0.135477 -0.964289 0.227579 0.677551 0.727183 0.110129 0.190664 -0.981632 -0.006806 0.334 0.497399 -0.800649 0.752858 0.57484 0.320569 0.892707 0.449628 -0.03016 0.361421 0.573046 0.735523 -0.087243 -0.922101 -0.376986 0.405876 0.504051 0.762363 -0.429507 -0.477081 -0.766758 0.584361 -0.76989 -0.256497 -0.431539 -0.53484 -0.726443 -0.83537 -0.092157 -0.541908 -0.326183 -0.943915 0.051275 0.589324 0.232862 0.77361 0.138368 -0.940114 0.311511 -0.014821 0.998137 -0.059192 -0.05585 -0.978591 -0.19809 0.815156 -0.274454 0.510094 -0.611462 0.136601 -0.779393 -0.855334 0.164641 0.49122 -0.841703 0.183333 0.507864 -0.935774 -0.342434 0.084058 -0.820749 0.171543 0.544926 0.921074 -0.38273 0.071694 -0.071882 -0.007967 -0.997381 -0.415777 -0.345006 -0.841487 -0.66333 -0.34026 -0.666496 0.429144 0.362495 0.827304 -0.443836 0.835715 -0.323404 -0.541364 0.471282 -0.696289 -0.463647 -0.110995 0.87904 -0.166716 0.983411 -0.071471 -0.864572 0.350728 0.359869 -0.870903 -0.420055 -0.255113 -0.366957 0.923889 0.108499 -0.403314 -0.468912 0.785786 -0.147322 -0.600743 0.785751 -0.412627 -0.513486 0.752377 -0.379649 0.621113 0.685628 0.910408 0.115897 0.397146 0.729575 -0.177272 0.660526 -0.920982 0.329263 0.208273 0.932462 -0.361267 -0.001309 0.931875 -0.359802 -0.046389 -0.38948 -0.348809 -0.85243 0.902846 -0.429054 -0.027945 0.908347 -0.418196 -0.004189 0.320184 -0.128712 -0.938571 0.992165 0.060576 0.109263 0.930007 -0.325755 -0.170207 0.92698 0.366382 0.080457 0.382662 0.090541 0.919441 0.120829 -0.31498 0.941376 0.078247 0.945161 -0.317092 -0.336842 0.502478 0.796275 -0.644281 -0.04017 0.763733 0.589226 -0.403853 -0.699796 0.789206 -0.583365 0.191934 0.895074 -0.437131 0.088085 0.434546 -0.272286 -0.858505 -0.263851 -0.882036 0.390377 0.277667 -0.123576 0.952696 -0.037158 -0.369769 0.92838 0.840959 0.232312 0.488692 0.181479 0.983002 0.027809 0.40354 0.441788 -0.801236 0.005832 0.410726 -0.91174 0.310743 0.388473 -0.867483 0.212019 0.347985 -0.913211 0.066187 -0.997656 -0.01737 -0.802486 -0.58918 0.094252 0.01132 0.99915 -0.039632 0.085437 -0.988669 0.12343 -0.149971 0.836857 -0.526478 -0.22375 0.834535 -0.503476 -0.093862 0.846034 -0.524801 -0.075537 0.99687 0.023324 0.781456 -0.601721 -0.1651 0.740179 -0.63235 0.228625 0.144023 -0.369493 -0.918004 -0.586875 0.276907 0.760855 -0.704678 -0.281774 -0.651178 0.447833 0.252586 -0.857698 0.439178 0.626113 -0.644287 0.456906 0.248714 -0.854036 0.896179 -0.364186 -0.253439 -0.902084 0.429386 -0.043278 -0.716121 0.283515 -0.637801 -0.903383 0.422988 0.070573 -0.92553 0.370147 0.079907 0.427123 0.693232 -0.580513 0.185072 0.953365 -0.238417 0.359359 0.868458 -0.341529 0.038477 0.987708 -0.151498 -0.111756 0.992768 0.043845 0.766332 -0.476654 -0.430738 0.478452 -0.361187 0.800392 0.00069 -0.999999 0.001257 -0.682967 -0.723723 -0.098904 0.807097 -0.580361 -0.108518 0.87315 -0.459916 0.16151 0.738233 -0.381972 -0.555976 0.582439 -0.49603 0.643987 -0.224851 0.15664 0.96172 0.923458 0.363465 -0.122954 -0.049494 -0.759932 0.648116 0.636235 0.558202 0.532556 -0.062062 -0.568962 0.820019 0.795736 -0.593057 -0.122828 0.364623 0.880219 0.303751 0.997242 0.009707 0.073576 0.651194 -0.465435 -0.59943 -0.121662 0.98185 0.145494 -0.500255 0.681593 0.534019 0.953915 -0.171776 -0.246048 -0.357956 0.667204 -0.653227 -0.864228 0.406861 0.295929 0.219402 -0.973485 -0.064724 -0.48414 0.874884 0.013681 0.58302 -0.795034 -0.167355 -0.702356 0.164686 0.692513 -0.103906 0.183988 -0.977421 0.440063 0.359799 -0.822733 0.391704 0.59448 -0.702255 -0.457083 0.301858 -0.836634 -0.285047 0.302378 -0.909569 -0.482498 -0.695909 -0.531889 -0.266126 0.093487 0.959394 -0.677254 0.300663 -0.671512 -0.675627 0.714746 -0.180741 -0.314794 0.727431 -0.609712 -0.192026 0.318859 0.928146 0.257214 0.831968 -0.4916 0.177685 -0.915635 -0.360612 0.190247 -0.908969 -0.370919 -0.450663 -0.333711 0.827973 0.545566 0.349327 0.761793 0.418951 0.167564 0.892414 -0.082964 0.996523 0.007694 0.989614 -0.017825 -0.14264 -0.509264 -0.344567 0.788621 0.778173 0.362122 -0.513142 0.778482 0.240381 -0.579813 0.100238 0.988362 -0.114421 0.920226 -0.345074 0.184684 0.883947 -0.017467 0.467261 0.561634 -0.032142 0.826762 0.050214 -0.595244 -0.801974 0.866876 -0.348941 0.356041 -0.250208 0.860587 0.443605 -0.895523 0.430141 0.114094 0.612793 0.343348 -0.711756 -0.565886 -0.032201 0.823855 0.538601 0.842533 0.006807 0.445238 0.305819 -0.841569 -0.373217 0.89873 -0.230203 -0.973713 0.088156 0.210029 -0.945631 -0.230419 -0.229539 0.202431 -0.208317 0.956883 -0.983033 0.046455 0.177447 -0.652696 -0.681771 0.330418 -0.476468 0.674166 -0.564339 -0.109434 -0.080991 0.990689 -0.306441 -0.139302 0.941642 0.112686 0.963395 0.243254 0.309875 0.924736 0.220999 0.822854 -0.503102 -0.264197 -0.773139 0.460199 0.436433 -0.246486 0.18015 0.952255 -0.985995 -0.165935 0.016708 -0.854383 0.001637 -0.519641 0.430129 0.722695 -0.541018 -0.906107 -0.371663 -0.202079 0.464504 0.36996 -0.80459 0.407978 0.261323 -0.874794 0.320065 0.34585 -0.882013 -0.583072 -0.36763 -0.724483 -0.284015 0.030708 -0.958328 -0.026481 -0.039675 0.998862 -0.146023 -0.330582 0.932412 -0.11686 -0.992661 0.031108 0.85683 0.398406 -0.327284 0.628251 0.174939 -0.758088 0.755434 0.292694 0.586217 0.708316 -0.266002 0.653859</float_array>
          <technique_common>
            <accessor source="#Triangle1-mesh-normals-array" count="500" stride="3">
              <param name="X" type="float"/>
              <param name="Y" type="float"/>
              <param name="Z" type="float"/>
            </accessor>
          </technique_common>
        </source>
        <source id="Triangle1-mesh-map-0">
          <float_array id="Triangle1-mesh-map-0-array" count="3000">0.370064 0.218247 0.24766 0.225729 0.345304 0.233564 0.390891 0.570348 0.46915 0.547513 0.469046 0.588986 0.758416 0.600767 0.755437 0.722585 0.717845 0.599795 0.023361 0.12855 0.105387 0.153108 0.088147 0.122516 0.717845 0.599795 0.716892 0.722233 0.755437 0.722585 0.716411 0.425001 0.716504 0.301186 0.677861 0.300875 0.126458 0.019055 0.122349 0.0146 0.118706 0.020542 0.514679 0.144298 0.525586 0.119027 0.504285 0.123727 0.504285 0.123727 0.525586 0.119027 0.462811 0.117506 0.407912 0.015224 0.404358 0.019212 0.410225 0.01994 0.698076 0.14449 0.695488 0.176887 0.775174 0.145541 0.803917 0.854694 0.730647 0.832293 0.80757 0.804808 0.046307 0.210598 0.142328 0.208173 0.143017 0.193677 0.39036 0.01165 0.391642 0.018699 0.407912 0.015224 0.462811 0.117506 0.471206 0.120874 0.504285 0.123727 0.619729 0.720586 0.596692 0.725553 0.602284 0.714674 0.677861 0.300875 0.678362 0.425173 0.716411 0.425001 0.046307 0.210598 0.143017 0.193677 0.01968 0.193912 0.840449 0.568779 0.859246 0.482817 0.828261 0.483391 0.789918 0.650663 0.77856 0.642581 0.774956 0.649949 0.905813 0.533441 0.90209 0.516797 0.894601 0.53199 0.874545 0.654264 0.869354 0.669576 0.865388 0.651946 0.189893 0.198826 0.210379 0.271858 0.239354 0.217507 0.868344 0.125232 0.868964 0.155895 0.784274 0.144753 0.154186 0.201934 0.230606 0.162013 0.145751 0.160865 0.613433 0.248383 0.734942 0.2474 0.734258 0.289323 0.613433 0.248383 0.612278 0.288882 0.734258 0.289323 0.739962 0.856051 0.737154 0.96696 0.698891 0.979631 0.699677 0.859169 0.739962 0.856051 0.698891 0.979631 0.725373 0.436063 0.741705 0.436126 0.736509 0.556865 0.360743 0.255313 0.483501 0.241703 0.359895 0.240326 0.482584 0.257199 0.483501 0.241703 0.360743 0.255313 0.361435 0.107276 0.373169 0.099601 0.373228 0.108186 0.709702 0.135634 0.717835 0.133345 0.714 0.12741 0.779349 0.992325 0.788794 0.982991 0.776847 0.978784 0.101537 0.685084 0.092766 0.68275 0.09744 0.704473 0.607657 0.241369 0.487776 0.237786 0.607458 0.279273 0.607458 0.279273 0.487776 0.237786 0.488027 0.280114 0.764897 0.870113 0.763249 0.992971 0.749262 0.871145 0.763249 0.992971 0.746624 0.992028 0.749262 0.871145 0.61569 0.219916 0.49428 0.208559 0.533295 0.224526 0.632516 0.701941 0.629308 0.691145 0.619392 0.701052 0.629308 0.691145 0.602641 0.689126 0.619392 0.701052 0.355847 0.297688 0.235097 0.298155 0.237545 0.257809 0.747808 0.815125 0.773459 0.738054 0.715035 0.742133 0.156066 0.120288 0.158776 0.152822 0.23554 0.13956 0.861987 0.246931 0.846257 0.165101 0.879345 0.162957 0.630497 0.236935 0.652152 0.165769 0.610445 0.155883 0.355847 0.297688 0.237545 0.257809 0.355444 0.257107 0.039628 0.012859 0.025543 0.014701 0.027907 0.025884 0.530733 0.312533 0.514241 0.306634 0.512412 0.315604 0.037402 0.1566 0.049167 0.174629 0.073602 0.152828 0.662357 0.199256 0.741879 0.233049 0.742233 0.203568 0.662357 0.199256 0.671406 0.234899 0.741879 0.233049 0.943739 0.683985 0.939105 0.68104 0.943923 0.665139 0.101355 0.597598 0.431161 0.651975 0.431308 0.596602 0.799249 0.571274 0.791266 0.555713 0.799194 0.534687 0.777252 0.560779 0.791266 0.555713 0.799249 0.571274 0.241204 0.533974 0.080117 0.541904 0.359848 0.546859 0.066842 0.523968 0.45615 0.523517 0.069451 0.503688 0.45615 0.523517 0.459306 0.504408 0.069451 0.503688 0.404573 0.805624 0.406213 0.745122 0.087772 0.751408 0.434862 0.537625 0.478422 0.537819 0.475695 0.532198 0.729915 0.358314 0.731687 0.417421 0.735528 0.360628 0.723815 0.367396 0.729915 0.358314 0.731687 0.417421 0.064885 0.404469 0.007552 0.403612 0.006272 0.41095 0.064885 0.404469 0.006272 0.41095 0.046063 0.416483 0.478422 0.537819 0.434862 0.537625 0.47105 0.541821 0.902837 0.265808 0.905941 0.215336 0.917601 0.213661 0.463013 0.733298 0.461235 0.676972 0.466294 0.72744 0.02248 0.278616 0.022785 0.255199 0.013915 0.272263 0.012851 0.26041 0.00412 0.279917 0.00735 0.248299 0.012851 0.26041 0.013915 0.272263 0.00412 0.279917 0.022785 0.255199 0.023917 0.285769 0.02248 0.278616 0.602511 0.537039 0.604804 0.509414 0.603135 0.567817 0.013915 0.272263 0.022785 0.255199 0.012851 0.26041 0.025178 0.247315 0.022785 0.255199 0.00735 0.248299 0.883618 0.956719 0.871695 0.968789 0.877391 0.930292 0.037274 0.244001 0.055115 0.275927 0.061792 0.259858 0.037274 0.244001 0.061792 0.259858 0.071864 0.244171 0.038765 0.284944 0.069138 0.287192 0.055115 0.275927 0.03644 0.730905 0.089136 0.71795 0.037537 0.717702 0.121231 0.712958 0.03644 0.730905 0.427368 0.720992 0.121231 0.712958 0.089136 0.71795 0.03644 0.730905 0.498215 0.560088 0.49735 0.951727 0.479269 0.949502 0.497913 0.509576 0.506025 0.46381 0.513624 0.527213 0.509714 0.468102 0.513624 0.527213 0.506025 0.46381 0.672904 0.497543 0.676677 0.468784 0.689995 0.477753 0.689995 0.477753 0.676677 0.468784 0.714602 0.476909 0.0993 0.800432 0.404573 0.805624 0.087772 0.751408 0.382979 0.307324 0.345946 0.325877 0.373207 0.325105 0.825586 0.299748 0.844876 0.291526 0.83819 0.345831 0.07734 0.376819 0.099852 0.335684 0.032989 0.374431 0.816059 0.349697 0.825586 0.299748 0.83819 0.345831 0.07734 0.376819 0.09381 0.400251 0.099852 0.335684 0.07632 0.40065 0.09381 0.400251 0.07734 0.376819 0.114339 0.312507 0.099852 0.335684 0.108925 0.310317 0.941279 0.820293 0.955711 0.816323 0.943679 0.802145 0.299316 0.205618 0.325778 0.188451 0.303556 0.188451 0.345946 0.325877 0.382979 0.307324 0.31424 0.31689 0.84528 0.665345 0.857251 0.652637 0.857127 0.666479 0.823102 0.660622 0.845151 0.586287 0.857251 0.652637 0.84528 0.665345 0.823102 0.660622 0.857251 0.652637 0.820489 0.595107 0.845151 0.586287 0.823102 0.660622 0.917217 0.352785 0.927888 0.346191 0.913001 0.343542 0.542221 0.963008 0.519145 0.961188 0.53656 0.942644 0.368775 0.004054 0.390974 0.004985 0.380625 0.001116 0.519145 0.961188 0.52051 0.952041 0.53656 0.942644 0.542221 0.963008 0.53656 0.942644 0.541626 0.925745 0.482334 0.56116 0.498215 0.560088 0.479269 0.949502 0.196614 0.370535 0.211447 0.343318 0.149892 0.370519 0.170489 0.086586 0.191884 0.103356 0.232614 0.098866 0.520914 0.325821 0.521213 0.372272 0.554165 0.317246 0.45581 0.619586 0.448682 0.645594 0.442121 0.648587 0.065347 0.752255 0.016749 0.750331 0.087772 0.751408 0.954422 0.077786 0.957459 0.121592 0.945756 0.091607 0.685984 0.498334 0.672904 0.497543 0.714602 0.476909 0.672904 0.497543 0.689995 0.477753 0.714602 0.476909 0.922687 0.658302 0.93043 0.653036 0.923524 0.652521 0.00099 0.573601 0.008248 0.588452 0.007679 0.574554 0.008248 0.588452 0.001193 0.58801 0.00099 0.573601 0.922687 0.658302 0.93043 0.653036 0.930439 0.663906 0.564661 0.289968 0.514171 0.29562 0.506986 0.290524 0.922687 0.658302 0.930439 0.663906 0.933938 0.710291 0.933938 0.710291 0.922687 0.658302 0.927128 0.71646 0.952496 0.270321 0.948365 0.320912 0.938414 0.270253 0.885514 0.076355 0.863305 0.086166 0.865684 0.061287 0.875206 0.086324 0.863305 0.086166 0.885514 0.076355 0.885514 0.076355 0.865684 0.061287 0.899677 0.064219 0.756112 0.245599 0.793241 0.247978 0.782548 0.252822 0.059428 0.064339 0.050006 0.0768 0.055367 0.055972 0.756112 0.245599 0.795357 0.181222 0.793241 0.247978 0.966696 0.751406 0.956194 0.74007 0.970956 0.724709 0.897884 0.087959 0.885514 0.076355 0.899677 0.064219 0.619541 0.736128 0.628431 0.780804 0.604968 0.75245 0.501491 0.994487 0.484459 0.972701 0.479908 0.994469 0.653254 0.725138 0.682271 0.746921 0.70498 0.753017 0.619541 0.736128 0.682271 0.746921 0.653254 0.725138 0.676408 0.68879 0.692724 0.656035 0.695602 0.689296 0.501491 0.994487 0.536966 0.975615 0.484459 0.972701 0.695602 0.689296 0.693036 0.611522 0.678042 0.628349 0.692724 0.656035 0.678042 0.628349 0.695602 0.689296 0.796312 0.97861 0.797837 0.99133 0.880403 0.994672 0.693772 0.799146 0.704825 0.810354 0.709952 0.772337 0.761841 0.477619 0.750482 0.462593 0.758905 0.456344 0.536966 0.975615 0.537138 0.994601 0.501491 0.994487 0.28188 0.076752 0.272675 0.057637 0.289618 0.058551 0.150863 0.303622 0.151494 0.279677 0.130544 0.282808 0.150863 0.303622 0.130544 0.282808 0.1405 0.35582 0.520778 0.600131 0.519455 0.631826 0.506065 0.561636 0.520778 0.600131 0.520908 0.550559 0.506065 0.561636 0.641008 0.601398 0.693117 0.583743 0.640469 0.578114 0.494221 0.476409 0.148433 0.475019 0.492871 0.493999 0.211447 0.343318 0.150863 0.303622 0.1405 0.35582 0.211447 0.343318 0.208304 0.286823 0.150863 0.303622 0.397028 0.277579 0.387624 0.27467 0.387793 0.279873 0.007805 0.693369 0.011333 0.702605 0.014479 0.698869 0.677504 0.050368 0.663855 0.039354 0.648304 0.050035 0.476298 0.966064 0.474538 0.955507 0.50933 0.96084 0.51974 0.0998 0.5325 0.080922 0.501279 0.080017 0.148433 0.475019 0.102729 0.492563 0.492871 0.493999 0.46862 0.188521 0.466455 0.195801 0.46427 0.186355 0.472339 0.267166 0.482561 0.276483 0.468117 0.277492 0.823598 0.393752 0.826798 0.409807 0.825275 0.460971 0.131484 0.041456 0.126433 0.075136 0.111074 0.04739 0.469857 0.971694 0.138336 0.93358 0.137957 0.970492 0.721626 0.295349 0.742791 0.296224 0.746005 0.31829 0.545272 0.858195 0.528595 0.909291 0.539835 0.620984 0.079129 0.834405 0.138099 0.846874 0.470553 0.837127 0.629276 0.548048 0.611188 0.54864 0.611745 0.561681 0.149242 0.390549 0.197561 0.397797 0.196181 0.388408 0.677648 0.611618 0.663318 0.623995 0.678042 0.628349 0.416073 0.779343 0.436869 0.752756 0.416481 0.746371 0.416073 0.779343 0.435106 0.779942 0.436869 0.752756 0.72484 0.333017 0.732645 0.351099 0.737627 0.325657 0.256156 0.369227 0.255394 0.351114 0.269804 0.368707 0.269804 0.368707 0.255394 0.351114 0.270214 0.349666 0.629815 0.536668 0.646344 0.538033 0.671405 0.555671 0.05272 0.398712 0.07138 0.398631 0.071391 0.384374 0.05272 0.398712 0.052965 0.383613 0.071391 0.384374 0.696554 0.713334 0.703331 0.707837 0.700197 0.72018 0.626635 0.608276 0.610415 0.621881 0.627494 0.632071 0.388331 0.354478 0.381445 0.379083 0.395795 0.358076 0.946378 0.457558 0.955719 0.467796 0.941205 0.473014 0.946212 0.191554 0.95791 0.184564 0.950573 0.186413 0.825037 0.93285 0.814945 0.969616 0.804408 0.937328 0.995481 0.919718 0.998029 0.898872 0.991553 0.899369 0.488501 0.548755 0.483991 0.548554 0.478282 0.511472 0.601953 0.443499 0.566154 0.420133 0.57473 0.423263 0.543177 0.106108 0.552759 0.090688 0.561604 0.103765 0.994896 0.412858 0.993454 0.43366 0.987514 0.412795 0.354362 0.093148 0.386155 0.082743 0.379459 0.091931 0.357534 0.089815 0.354362 0.093148 0.379459 0.091931 0.813155 0.960743 0.804408 0.937328 0.814945 0.969616 0.790073 0.964696 0.813155 0.960743 0.814945 0.969616 0.997731 0.010586 0.992115 0.009729 0.9879 0.014858 0.9879 0.014858 0.997731 0.010586 0.991546 0.014716 0.940082 0.949371 0.941308 0.913753 0.956029 0.945417 0.012774 0.722362 0.038725 0.697926 0.065595 0.70908 0.065595 0.70908 0.038725 0.697926 0.049298 0.697308 0.771372 0.931054 0.804408 0.937328 0.790073 0.964696 0.633432 0.655064 0.62958 0.638826 0.635393 0.641872 0.655767 0.644679 0.635393 0.641872 0.633432 0.655064 0.66642 0.446937 0.635116 0.459632 0.674782 0.436015 0.262176 0.133238 0.252932 0.117312 0.235478 0.13303 0.855995 0.917169 0.83948 0.909533 0.855036 0.856763 0.645158 0.701093 0.63829 0.710361 0.68267 0.703771 0.02195 0.851342 0.020926 0.868766 0.03935 0.851463 0.644027 0.827217 0.665534 0.800852 0.634583 0.811946 0.03935 0.851463 0.020926 0.868766 0.039821 0.870679 0.044096 0.092236 0.039934 0.1103 0.027698 0.088225 0.608342 0.809955 0.667869 0.843267 0.6498 0.828979 0.027698 0.088225 0.039934 0.1103 0.019515 0.108294 0.310979 0.123293 0.252932 0.117312 0.262176 0.133238 0.613282 0.491 0.635116 0.459632 0.6268 0.479441 0.613282 0.491 0.6268 0.479441 0.630078 0.515518 0.626237 0.917639 0.637396 0.929958 0.608145 0.911134 0.632575 0.906324 0.608145 0.911134 0.624103 0.891464 0.626237 0.917639 0.608145 0.911134 0.632575 0.906324 0.651647 0.907521 0.632575 0.906324 0.624103 0.891464 0.667869 0.843267 0.704825 0.810354 0.693772 0.799146 0.085436 0.086527 0.089691 0.104559 0.065304 0.109899 0.6498 0.828979 0.667869 0.843267 0.693772 0.799146 0.963345 0.482669 0.946815 0.509473 0.943656 0.486685 0.065304 0.109899 0.0605 0.09125 0.085436 0.086527 0.629815 0.536668 0.613282 0.491 0.630078 0.515518 0.963345 0.482669 0.965043 0.50692 0.946815 0.509473 0.637396 0.929958 0.626237 0.917639 0.632575 0.906324 0.637396 0.929958 0.632575 0.906324 0.651647 0.907521 0.57983 0.071547 0.579707 0.056738 0.631079 0.053993 0.631079 0.053993 0.57983 0.071547 0.630645 0.072071 0.081487 0.987772 0.080031 0.917871 0.076725 0.997898 0.677504 0.050368 0.65775 0.031325 0.676668 0.037514 0.978316 0.02004 0.971586 0.041279 0.967904 0.021697 0.457461 0.068212 0.406288 0.057239 0.414681 0.07714 0.942346 0.772893 0.950231 0.725211 0.94575 0.77834 0.084432 0.765065 0.020485 0.759185 0.033588 0.763302 0.081704 0.771163 0.084432 0.765065 0.020485 0.759185 0.084432 0.765065 0.077354 0.761952 0.033588 0.763302 0.65775 0.031325 0.676668 0.037514 0.663855 0.039354 0.822037 0.059233 0.806088 0.041991 0.850899 0.042663 0.087772 0.751408 0.406213 0.745122 0.015487 0.737233 0.016749 0.750331 0.087772 0.751408 0.015487 0.737233 0.427368 0.720992 0.125542 0.666798 0.121231 0.712958 0.429871 0.354924 0.405561 0.351241 0.407409 0.372794 0.471664 0.375586 0.407409 0.372794 0.429871 0.354924 0.830421 0.740272 0.817189 0.788311 0.805656 0.741706 0.429871 0.354924 0.476824 0.292085 0.471664 0.375586 0.429871 0.354924 0.433822 0.308083 0.476824 0.292085 0.178692 0.217071 0.182728 0.281675 0.161144 0.273368 0.377768 0.288969 0.36538 0.287201 0.367021 0.29511 0.775409 0.620258 0.812762 0.619395 0.779453 0.600649 0.812762 0.619395 0.811144 0.59937 0.779453 0.600649 0.806139 0.267011 0.806507 0.194168 0.843465 0.190738 0.843289 0.272016 0.806139 0.267011 0.843465 0.190738 0.037365 0.551531 0.03604 0.588919 0.336969 0.577574 0.074289 0.900828 0.033834 0.890168 0.018485 0.906645 0.956812 0.82517 0.964844 0.861631 0.950135 0.863083 0.897769 0.195391 0.891356 0.266096 0.893867 0.217288 0.785045 0.660616 0.799176 0.72411 0.776051 0.705121 0.830421 0.740272 0.837623 0.79603 0.817189 0.788311 0.033834 0.890168 0.079129 0.834405 0.025894 0.831915 0.074289 0.900828 0.079129 0.834405 0.033834 0.890168 0.967517 0.889816 0.969517 0.868638 0.949986 0.87939 0.080303 0.662297 0.026425 0.676577 0.074001 0.690841 0.02221 0.657338 0.026425 0.676577 0.080303 0.662297 0.679634 0.079824 0.675779 0.08457 0.729837 0.083346 0.941279 0.820293 0.943679 0.802145 0.937887 0.818884 0.12034 0.295981 0.124642 0.297538 0.121957 0.312973 0.121957 0.312973 0.12034 0.295981 0.119729 0.305336 0.536535 0.426633 0.548877 0.428312 0.533717 0.419911 0.536544 0.417739 0.533717 0.419911 0.548877 0.428312 0.114339 0.312507 0.114258 0.309562 0.108925 0.310317 0.532705 0.418325 0.536535 0.426633 0.533717 0.419911 0.114258 0.309562 0.115728 0.306625 0.108925 0.310317 0.532705 0.418325 0.521213 0.372272 0.533717 0.419911 0.539812 0.407922 0.521213 0.372272 0.533717 0.419911 0.533717 0.419911 0.539812 0.407922 0.536544 0.417739 0.099852 0.335684 0.108925 0.310317 0.091567 0.315923 0.48402 0.077857 0.475864 0.107582 0.476875 0.078086 0.495525 0.091552 0.496199 0.069783 0.48402 0.077857 0.476824 0.292085 0.433822 0.308083 0.412867 0.287087 0.659999 0.464647 0.654443 0.523837 0.658353 0.458926 0.659999 0.464647 0.661813 0.523171 0.654443 0.523837 0.654443 0.523837 0.658353 0.458926 0.647335 0.514499 0.433822 0.308083 0.4076 0.307575 0.412867 0.287087 0.023525 0.994333 0.051707 0.951884 0.018351 0.978698 0.076725 0.997898 0.051707 0.951884 0.023525 0.994333 0.076725 0.997898 0.080031 0.917871 0.051707 0.951884 0.741676 0.574379 0.72813 0.585312 0.740695 0.59284 0.02862 0.97541 0.042502 0.942396 0.01335 0.933445 0.964273 0.579247 0.950506 0.570257 0.964022 0.558737 0.545272 0.858195 0.539835 0.620984 0.547616 0.519583 0.92795 0.98652 0.940465 0.983011 0.927935 0.963451 0.828405 0.588417 0.820489 0.595107 0.845151 0.586287 0.965082 0.964655 0.927935 0.963451 0.953343 0.974111 0.965082 0.964655 0.953343 0.974111 0.958249 0.987172 0.953343 0.974111 0.927935 0.963451 0.940465 0.983011 0.083081 0.601341 0.063744 0.598749 0.063517 0.603526 0.005625 0.776961 0.007569 0.760983 0.036137 0.786649 0.608413 0.136211 0.660854 0.140731 0.613836 0.120988 0.816323 0.174129 0.826725 0.16712 0.811068 0.161823 0.370475 0.582776 0.35456 0.580358 0.373635 0.566866 0.030432 0.588438 0.01372 0.57407 0.020611 0.51988 0.35456 0.580358 0.357727 0.560248 0.373635 0.566866 0.642292 0.326337 0.664862 0.358034 0.637376 0.313549 0.897258 0.929435 0.894798 0.975101 0.917568 0.97607 0.3216 0.06258 0.373289 0.064767 0.364865 0.047278 0.91539 0.932736 0.897258 0.929435 0.917568 0.97607 0.021357 0.817269 0.06068 0.804273 0.016008 0.805196 0.986084 0.243708 0.987109 0.255215 0.982213 0.25404 0.945288 0.110256 0.945756 0.091607 0.957459 0.121592 0.924488 0.334283 0.926005 0.28597 0.932679 0.333647 0.473569 0.392753 0.47605 0.393147 0.481233 0.392569 0.664862 0.358034 0.653589 0.397382 0.656477 0.397864 0.657963 0.398219 0.658154 0.410476 0.664862 0.358034 0.656477 0.397864 0.653589 0.397382 0.658154 0.410476 0.584245 0.039204 0.586347 0.031189 0.59099 0.039685 0.656477 0.397864 0.664862 0.358034 0.657963 0.398219 0.588525 0.031843 0.586347 0.031189 0.587682 0.031238 0.760293 0.501474 0.763487 0.487104 0.760944 0.492575 0.867962 0.454539 0.86823 0.465189 0.870898 0.467772 0.478282 0.511472 0.473428 0.502109 0.487183 0.501122 0.799176 0.72411 0.785045 0.660616 0.813344 0.684388 0.760293 0.501474 0.760944 0.492575 0.759172 0.494393 0.348582 0.099107 0.329518 0.103848 0.34267 0.109636 0.870898 0.467772 0.915766 0.468085 0.900448 0.479514 0.867962 0.454539 0.870898 0.467772 0.915766 0.468085 0.883639 0.441275 0.88525 0.444763 0.897719 0.447725 0.624742 0.436293 0.622317 0.425555 0.625517 0.43248 0.625678 0.433986 0.625517 0.43248 0.622317 0.425555 0.63091 0.364184 0.621928 0.387577 0.626614 0.345058 0.35304 0.127319 0.355704 0.120044 0.380277 0.120971 0.880362 0.393256 0.888635 0.368378 0.869812 0.363773 0.123022 0.350825 0.118124 0.330375 0.11614 0.350823 0.123149 0.33028 0.118124 0.330375 0.123022 0.350825 0.0993 0.800432 0.021357 0.817269 0.06068 0.804273 0.977869 0.496095 0.973388 0.496973 0.974268 0.466947 0.002772 0.164835 0.011353 0.164982 0.013172 0.214241 0.391705 0.465704 0.359939 0.448288 0.000845 0.450114 0.470553 0.837127 0.139168 0.88849 0.466396 0.886455 0.580456 0.850015 0.580978 0.461283 0.591786 0.802589 0.0993 0.800432 0.021357 0.817269 0.404573 0.805624 0.601666 0.917343 0.590294 0.896429 0.623343 0.879979 0.665213 0.913879 0.631028 0.947125 0.667898 0.881681 0.894703 0.617033 0.896149 0.65568 0.8792 0.635015 0.574241 0.380158 0.586515 0.314788 0.595813 0.405348 0.889623 0.573917 0.894703 0.617033 0.8792 0.635015 0.590294 0.896429 0.667898 0.881681 0.623343 0.879979 0.623343 0.879979 0.667898 0.881681 0.665213 0.913879 0.776308 0.755305 0.794068 0.736275 0.794743 0.780476 0.359643 0.373378 0.369818 0.392455 0.381445 0.379083 0.373207 0.325105 0.340428 0.348407 0.381445 0.379083 0.267637 0.901614 0.281729 0.899615 0.269012 0.897397 0.477632 0.349088 0.490654 0.353842 0.499915 0.318863 0.998659 0.961442 0.985255 0.962847 0.989271 0.957698 0.359848 0.546859 0.037365 0.551531 0.336969 0.577574 0.456035 0.978787 0.081487 0.987772 0.467299 0.986468 0.966488 0.302855 0.962743 0.288637 0.966488 0.268888 0.470553 0.837127 0.138099 0.846874 0.139168 0.88849 0.051707 0.951884 0.024707 0.914978 0.01335 0.933445 0.051707 0.951884 0.080031 0.917871 0.024707 0.914978 0.391705 0.465704 0.000845 0.450114 0.00256 0.465718 0.586347 0.031189 0.59099 0.039685 0.588525 0.031843 0.588823 0.030511 0.59099 0.039685 0.588525 0.031843 0.588823 0.030511 0.587682 0.031238 0.586347 0.031189 0.545773 0.49991 0.538322 0.47785 0.568673 0.477692 0.545773 0.49991 0.568673 0.477692 0.571036 0.497436 0.495192 0.422169 0.5 0.422529 0.5 0.435542 0.300227 0.089626 0.278319 0.106868 0.311558 0.109462 0.628431 0.780804 0.638646 0.763434 0.619541 0.736128 0.546484 0.084 0.546542 0.070474 0.565889 0.077511 0.240189 0.056845 0.272675 0.057637 0.240182 0.076431 0.272675 0.057637 0.28188 0.076752 0.240182 0.076431 0.037274 0.244001 0.038765 0.284944 0.055115 0.275927 0.850114 0.318848 0.87231 0.301284 0.877537 0.348227 0.880362 0.393256 0.892386 0.39731 0.868436 0.434398 0.892386 0.39731 0.895597 0.431293 0.868436 0.434398 0.880362 0.393256 0.868436 0.434398 0.862321 0.39912 0.488501 0.548755 0.478282 0.511472 0.487183 0.501122 0.019227 0.327808 0.099852 0.335684 0.083522 0.323602 0.272242 0.04829 0.22023 0.045057 0.267615 0.043424 0.969044 0.424429 0.970956 0.419418 0.970938 0.391577 0.151659 0.418023 0.100071 0.405567 0.10121 0.417739 0.621575 0.434717 0.601953 0.443499 0.624742 0.436293 0.849562 0.000529 0.847632 0.000912 0.853361 0.0006 0.264535 0.898343 0.267637 0.901614 0.269012 0.897397 0.622317 0.425555 0.621575 0.434717 0.624742 0.436293 0.261205 0.897426 0.258921 0.901348 0.264535 0.898343 0.707696 0.430243 0.690192 0.447803 0.708353 0.436632 0.258921 0.901348 0.267637 0.901614 0.264535 0.898343 0.624742 0.436293 0.601953 0.443499 0.63852 0.433991 0.904651 0.786785 0.902341 0.845717 0.888144 0.805524 0.888144 0.805524 0.896736 0.750943 0.904651 0.786785 0.926005 0.28597 0.924488 0.334283 0.930349 0.273547 0.513624 0.527213 0.516761 0.469231 0.509714 0.468102 0.516761 0.469231 0.518871 0.522295 0.513624 0.527213 0.019227 0.327808 0.032989 0.374431 0.099852 0.335684 0.032391 0.399906 0.032989 0.374431 0.012385 0.395202 0.012385 0.395202 0.032989 0.374431 0.019227 0.327808 0.392165 0.10034 0.396485 0.105146 0.395259 0.057554 0.452015 0.270991 0.459492 0.267329 0.397028 0.277579 0.397028 0.277579 0.459492 0.267329 0.4108 0.262724 0.452015 0.270991 0.406448 0.273963 0.397028 0.277579 0.511767 0.942437 0.506065 0.561636 0.519455 0.631826 0.020152 0.223184 0.082953 0.220837 0.023487 0.215887 0.355407 0.204138 0.410307 0.203965 0.352343 0.182262 0.631028 0.947125 0.590294 0.896429 0.601666 0.917343 0.749396 0.12741 0.755208 0.112357 0.775008 0.125377 0.7773 0.105713 0.755208 0.112357 0.747851 0.102986 0.606793 0.096475 0.59934 0.11719 0.600203 0.096274 0.59934 0.11719 0.605949 0.117471 0.606793 0.096475 0.543177 0.106108 0.561604 0.103765 0.568721 0.126221 0.548874 0.132681 0.543177 0.106108 0.568721 0.126221 0.561604 0.103765 0.572805 0.089289 0.581136 0.111691 0.789966 0.390707 0.810919 0.390653 0.789591 0.379931 0.810769 0.379334 0.810919 0.390653 0.789591 0.379931 0.649883 0.796537 0.66053 0.776489 0.646312 0.775276 0.2042 0.038686 0.212713 0.0382 0.206042 0.018096 0.212713 0.0382 0.206042 0.018096 0.214665 0.017633 0.588841 0.12834 0.568721 0.126221 0.581136 0.111691 0.948657 0.239481 0.947337 0.2518 0.969065 0.240957 0.969065 0.240957 0.947337 0.2518 0.968004 0.25314 0.581136 0.111691 0.572805 0.089289 0.592466 0.10423 0.775008 0.125377 0.7773 0.105713 0.791912 0.122071 0.720454 0.806216 0.727524 0.78502 0.720134 0.785035 0.727731 0.806055 0.727524 0.78502 0.720454 0.806216 0.747851 0.102986 0.779521 0.08749 0.792802 0.100002 0.7773 0.105713 0.747851 0.102986 0.792802 0.100002 0.008127 0.048337 0.008441 0.080297 0.042313 0.06789 0.161144 0.273368 0.145066 0.228158 0.148091 0.222676 0.087131 0.0094 0.071093 0.010734 0.07109 0.015952 0.627602 0.332471 0.632091 0.337132 0.642292 0.326337 0.632091 0.337132 0.642292 0.326337 0.664862 0.358034 0.632091 0.337132 0.654727 0.373512 0.664862 0.358034 0.914672 0.768045 0.921558 0.769677 0.924882 0.830915 0.181947 0.417713 0.100071 0.405567 0.151659 0.418023 0.181947 0.417713 0.489659 0.405113 0.100071 0.405567 0.022242 0.291863 0.031936 0.300363 0.031718 0.291919 0.938822 0.215867 0.940555 0.241956 0.931789 0.238586 0.933166 0.185672 0.938822 0.215867 0.931789 0.238586 0.629276 0.548048 0.630474 0.560657 0.611745 0.561681 0.39049 0.062791 0.392165 0.10034 0.395259 0.057554 0.552556 0.45511 0.558007 0.445412 0.550675 0.446579 0.552556 0.45511 0.554959 0.46033 0.558007 0.445412 0.568297 0.577905 0.559682 0.574861 0.562207 0.564686 0.559682 0.574861 0.562207 0.564686 0.563064 0.516535 0.867715 0.807251 0.866198 0.762567 0.865136 0.795533 0.846202 0.809903 0.866198 0.762567 0.867715 0.807251 0.846202 0.809903 0.845356 0.763339 0.866198 0.762567 0.431161 0.651975 0.101355 0.597598 0.101049 0.639198 0.426524 0.169299 0.422444 0.132476 0.349525 0.132528 0.35157 0.169754 0.426524 0.169299 0.349525 0.132528 0.099119 0.866385 0.084369 0.891527 0.097841 0.876624 0.917601 0.213661 0.902837 0.265808 0.920591 0.245911 0.425962 0.426917 0.036379 0.42968 0.102627 0.440297 0.341488 0.245157 0.342119 0.239761 0.331976 0.244835 0.596184 0.038563 0.632187 0.045535 0.617502 0.047103 0.632187 0.045535 0.596184 0.038563 0.633674 0.031872 0.138336 0.93358 0.468123 0.923452 0.08617 0.919322 0.94287 0.566263 0.926853 0.565175 0.927357 0.514742 0.94287 0.566263 0.927357 0.514742 0.944035 0.515221 0.885105 0.966108 0.883618 0.956719 0.871695 0.968789 0.703167 0.456156 0.690192 0.447803 0.708353 0.436632 0.161144 0.273368 0.148091 0.222676 0.178692 0.217071 0.373437 0.532177 0.359848 0.546859 0.39127 0.544844 0.490749 0.417198 0.489659 0.405113 0.181947 0.417713 0.242279 0.356003 0.232828 0.343109 0.248522 0.384328 0.294769 0.374358 0.272151 0.375773 0.248522 0.384328 0.294769 0.374358 0.273405 0.337 0.272151 0.375773 0.273405 0.337 0.232828 0.343109 0.242279 0.356003 0.74574 0.078792 0.750827 0.043478 0.776561 0.056442 0.460116 0.438981 0.481004 0.439111 0.460218 0.431961 0.460218 0.431961 0.481004 0.439111 0.480993 0.43223 0.445699 0.015033 0.446253 0.00905 0.425134 0.009084 0.56501 0.141429 0.548874 0.132681 0.568721 0.126221 0.445699 0.015033 0.425134 0.009084 0.425241 0.017446 0.905425 0.366737 0.900976 0.393656 0.888635 0.368378 0.778994 0.371655 0.76742 0.370555 0.777812 0.400551 0.805373 0.283073 0.777401 0.339813 0.782608 0.283267 0.631028 0.947125 0.688066 0.969992 0.639521 0.988048 0.777646 0.535015 0.799194 0.534687 0.791266 0.555713 0.639514 0.061565 0.686702 0.064298 0.643773 0.065808 0.084432 0.765065 0.084044 0.757492 0.077354 0.761952 0.552421 0.989469 0.569794 0.597207 0.568535 0.987768 0.55403 0.59879 0.569794 0.597207 0.552421 0.989469 0.584071 0.294092 0.579259 0.288144 0.586658 0.287426 0.534226 0.123098 0.5325 0.080922 0.51974 0.0998 0.767748 0.416617 0.767883 0.494599 0.805089 0.502255 0.767748 0.416617 0.805089 0.502255 0.804797 0.411292 0.427368 0.720992 0.425033 0.66851 0.125542 0.666798 0.788229 0.897611 0.825037 0.93285 0.801431 0.931552 0.825037 0.93285 0.788229 0.897611 0.833786 0.897526 0.855036 0.856763 0.83948 0.909533 0.843146 0.854209 0.040598 0.64404 0.431161 0.651975 0.101049 0.639198 0.189352 0.04188 0.180166 0.027903 0.152728 0.031689 0.215786 0.397678 0.205322 0.39752 0.215788 0.376891 0.788229 0.897611 0.801431 0.931552 0.771372 0.931054 0.980955 0.592227 0.984762 0.612689 0.992393 0.592228 0.973076 0.154646 0.962497 0.172691 0.95079 0.153109</float_array>
          <technique_common>
            <accessor source="#Triangle1-mesh-map-0-array" count="1500" stride="2">
              <param name="S" type="float"/>
              <param name="T" type="float"/>
            </accessor>
          </technique_common>
        </source>
        <vertices id="Triangle1-mesh-vertices">
          <input semantic="POSITION" source="#Triangle1-mesh-positions"/>
        </vertices>
        <polylist material="Material_-1-material" count="6">
          <input semantic="VERTEX" source="#Triangle1-mesh-vertices" offset="0"/>
          <input semantic="NORMAL" source="#Triangle1-mesh-normals" offset="1"/>
          <input semantic="TEXCOORD" source="#Triangle1-mesh-map-0" offset="2" set="0"/>
          <vcount>3 3 3 3 3 3 3 3 3 3 3 3 3 3 3 3 3 3 3 3 3 3 3 3 3 3 3 3 3 3 3 3 3 3 3 3 3 3 3 3 3 3 3 3 3 3 3 3 3 3 3 3 3 3 3 3 3 3 3 3 3 3 3 3 3 3 3 3 3 3 3 3 3 3 3 3 3 3 3 3 3 3 3 3 3 3 3 3 3 3 3 3 3 3 3 3 3 3 3 3 3 3 3 3 3 3 3 3 3 3 3 3 3 3 3 3 3 3 3 3 3 3 3 3 3 3 3 3 3 3 3 3 3 3 3 3 3 3 3 3 3 3 3 3 3 3 3 3 3 3 3 3 3 3 3 3 3 3 3 3 3 3 3 3 3 3 3 3 3 3 3 3 3 3 3 3 3 3 3 3 3 3 3 3 3 3 3 3 3 3 3 3 3 3 3 3 3 3 3 3 3 3 3 3 3 3 3 3 3 3 3 3 3 3 3 3 3 3 3 3 3 3 3 3 3 3 3 3 3 3 3 3 3 3 3 3 3 3 3 3 3 3 3 3 3 3 3 3 3 3 3 3 3 3 3 3 3 3 3 3 3 3 3 3 3 3 3 3 3 3 3 3 3 3 3 3 3 3 3 3 3 3 3 3 3 3 3 3 3 3 3 3 3 3 3 3 3 3 3 3 3 3 3 3 3 3 3 3 3 3 3 3 3 3 3 3 3 3 3 3 3 3 3 3 3 3 3 3 3 3 3 3 3 3 3 3 3 3 3 3 3 3 3 3 3 3 3 3 3 3 3 3 3 3 3 3 3 3 3 3 3 3 3 3 3 3 3 3 3 3 3 3 3 3 3 3 3 3 3 3 3 3 3 3 3 3 3 3 3 3 3 3 3 3 3 3 3 3 3 3 3 3 3 3 3 3 3 3 3 3 3 3 3 3 3 3 3 3 3 3 3 3 3 3 3 3 3 3 3 3 3 3 3 3 3 3 3 3 3 3 3 3 3 3 3 3 3 3 3 3 3 3 3 3 3 3 3 3 3 3 3 3 3 3 3 3 3 3 3 3 3 3 3 3 3 3 3 3 3 3 3 3 3 3 3 3 3 3 3 3 3 3 3 3 3 3 3 3 3 3</vcount>
          <p>1 0 0 2 0 1 3 0 2 4 1 3 5 1 4 1 1 5 5 2 6 6 2 7 1 2 8 4 3 9 1 3 10 3 3 11 1 4 12 2 4 13 6 4 14 7 5 15 8 5 16 3 5 17 9 6 18 10 6 19 11 6 20 7 7 21 11 7 22 6 7 23 6 8 24 11 8 25 12 8 26 13 9 27 14 9 28 15 9 29 8 10 30 5 10 31 4 10 32 8 11 33 4 11 34 3 11 35 6 12 36 5 12 37 8 12 38 12 13 39 14 13 40 13 13 41 12 14 42 2 14 43 6 14 44 11 15 45 7 15 46 9 15 47 3 16 48 2 16 49 7 16 50 6 17 51 8 17 52 7 17 53 16 18 54 17 18 55 18 18 56 19 19 57 20 19 58 21 19 59 22 20 60 19 20 61 21 20 62 20 21 63 19 21 64 22 21 65 17 22 66 16 22 67 23 22 68 24 23 69 23 23 70 16 23 71 24 24 72 16 24 73 18 24 74 24 25 75 20 25 76 25 25 77 24 26 78 18 26 79 25 26 80 23 27 81 20 27 82 26 27 83 17 28 84 23 28 85 26 28 86 23 29 87 24 29 88 20 29 89 25 30 90 17 30 91 26 30 92 18 31 93 17 31 94 25 31 95 27 32 96 25 32 97 28 32 98 27 33 99 28 33 100 29 33 101 30 34 102 31 34 103 32 34 104 30 35 105 33 35 106 31 35 107 34 36 108 35 36 109 36 36 110 36 37 111 35 37 112 37 37 113 38 38 114 39 38 115 37 38 116 39 39 117 36 39 118 37 39 119 35 40 120 34 40 121 40 40 122 41 41 123 37 41 124 42 41 125 37 42 126 43 42 127 42 42 128 35 43 129 40 43 130 39 43 131 44 44 132 39 44 133 40 44 134 36 45 135 39 45 136 44 45 137 44 46 138 40 46 139 34 46 140 44 47 141 34 47 142 36 47 143 35 48 144 39 48 145 38 48 146 45 49 147 42 49 148 43 49 149 43 50 150 37 50 151 45 50 152 21 51 153 20 51 154 25 51 155 46 52 156 25 52 157 29 52 158 46 53 159 21 53 160 25 53 161 25 54 162 27 54 163 29 54 164 47 55 165 46 55 166 29 55 167 48 56 168 28 56 169 26 56 170 29 57 171 28 57 172 48 57 173 49 58 174 50 58 175 51 58 176 52 59 177 53 59 178 54 59 179 53 60 180 55 60 181 54 60 182 56 61 183 54 61 184 57 61 185 47 62 186 58 62 187 59 62 188 60 63 189 59 63 190 47 63 191 61 64 192 60 64 193 59 64 194 62 65 195 47 65 196 61 65 197 62 66 198 61 66 199 59 66 200 58 67 201 47 67 202 62 67 203 63 68 204 61 68 205 47 68 206 64 69 207 65 69 208 60 69 209 66 70 210 58 70 211 65 70 212 59 71 213 67 71 214 62 71 215 59 72 216 65 72 217 67 72 218 58 73 219 68 73 220 66 73 221 66 74 222 65 74 223 60 74 224 65 75 225 58 75 226 59 75 227 63 76 228 58 76 229 62 76 230 60 77 231 69 77 232 47 77 233 70 78 234 64 78 235 60 78 236 70 79 237 60 79 238 61 79 239 71 80 240 72 80 241 64 80 242 73 81 243 61 81 244 63 81 245 70 82 246 73 82 247 48 82 248 70 83 249 61 83 250 73 83 251 48 84 252 73 84 253 74 84 254 75 85 255 76 85 256 77 85 257 78 86 258 77 86 259 76 86 260 76 87 261 79 87 262 80 87 263 80 88 264 79 88 265 57 88 266 79 89 267 56 89 268 57 89 269 81 90 270 82 90 271 83 90 272 84 91 273 85 91 274 81 91 275 67 92 276 86 92 277 62 92 278 86 93 279 84 93 280 81 93 281 67 94 282 84 94 283 86 94 284 68 95 285 84 95 286 67 95 287 87 96 288 86 96 289 88 96 290 87 97 291 86 97 292 81 97 293 82 98 294 85 98 295 74 98 296 82 99 297 81 99 298 85 99 299 45 100 300 89 100 301 41 100 302 37 101 303 32 101 304 89 101 305 45 102 306 37 102 307 89 102 308 35 103 309 32 103 310 37 103 311 33 104 312 30 104 313 32 104 314 56 105 315 90 105 316 9 105 317 90 106 318 11 106 319 10 106 320 90 107 321 10 107 322 9 107 323 56 108 324 9 108 325 7 108 326 29 109 327 48 109 328 74 109 329 91 110 330 92 110 331 93 110 332 87 111 333 91 111 334 94 111 335 94 112 336 91 112 337 93 112 338 94 113 339 93 113 340 0 113 341 96 114 342 95 114 343 57 114 344 96 115 345 97 115 346 98 115 347 78 116 348 76 116 349 57 116 350 76 117 351 80 117 352 57 117 353 99 118 354 96 118 355 57 118 356 57 119 357 100 119 358 98 119 359 100 120 360 78 120 361 57 120 362 99 121 363 96 121 364 98 121 365 98 122 366 95 122 367 77 122 368 99 123 369 98 123 370 95 123 371 95 124 372 99 124 373 101 124 374 53 125 375 96 125 376 95 125 377 13 126 378 52 126 379 54 126 380 15 127 381 52 127 382 13 127 383 13 128 384 54 128 385 2 128 386 12 129 387 52 129 388 15 129 389 14 130 390 12 130 391 15 130 392 12 131 393 90 131 394 52 131 395 12 132 396 11 132 397 90 132 398 12 133 399 13 133 400 2 133 401 103 134 402 102 134 403 104 134 404 105 135 405 103 135 406 106 135 407 107 136 408 108 136 409 109 136 410 103 137 411 108 137 412 107 137 413 106 138 414 105 138 415 107 138 416 105 139 417 108 139 418 103 139 419 107 140 420 110 140 421 111 140 422 105 141 423 111 141 424 107 141 425 109 142 426 110 142 427 107 142 428 112 143 429 113 143 430 109 143 431 112 144 432 109 144 433 108 144 434 108 145 435 111 145 436 105 145 437 111 146 438 114 146 439 108 146 440 115 147 441 116 147 442 117 147 443 115 148 444 117 148 445 93 148 446 118 149 447 119 149 448 117 149 449 118 150 450 116 150 451 117 150 452 93 151 453 117 151 454 120 151 455 117 152 456 121 152 457 122 152 458 92 153 459 115 153 460 93 153 461 92 154 462 49 154 463 115 154 464 123 155 465 124 155 466 125 155 467 124 156 468 125 156 469 126 156 470 125 157 471 126 157 472 115 157 473 125 158 474 49 158 475 115 158 476 127 159 477 119 159 478 118 159 479 121 160 480 41 160 481 122 160 482 46 161 483 22 161 484 21 161 485 20 162 486 22 162 487 46 162 488 128 163 489 129 163 490 48 163 491 128 164 492 20 164 493 46 164 494 89 165 495 130 165 496 118 165 497 89 166 498 131 166 499 130 166 500 132 167 501 133 167 502 90 167 503 133 168 504 97 168 505 90 168 506 108 169 507 110 169 508 134 169 509 113 170 510 110 170 511 109 170 512 110 171 513 134 171 514 111 171 515 112 172 516 110 172 517 108 172 518 112 173 519 135 173 520 110 173 521 112 174 522 136 174 523 114 174 524 112 175 525 135 175 526 114 175 527 114 176 528 135 176 529 134 176 530 113 177 531 135 177 532 110 177 533 112 178 534 137 178 535 134 178 536 112 179 537 136 179 538 134 179 539 113 180 540 137 180 541 135 180 542 135 181 543 137 181 544 134 181 545 83 182 546 138 182 547 139 182 548 140 183 549 81 183 550 83 183 551 141 184 552 83 184 553 140 184 554 142 185 555 143 185 556 144 185 557 145 186 558 144 186 559 146 186 560 141 187 561 147 187 562 139 187 563 148 188 564 147 188 565 139 188 566 145 189 567 83 189 568 149 189 569 83 190 570 144 190 571 149 190 572 150 191 573 83 191 574 139 191 575 151 192 576 150 192 577 139 192 578 145 193 579 144 193 580 143 193 581 83 194 582 145 194 583 143 194 584 140 195 585 141 195 586 148 195 587 148 196 588 140 196 589 147 196 590 152 197 591 143 197 592 83 197 593 143 198 594 140 198 595 152 198 596 152 199 597 140 199 598 147 199 599 150 200 600 144 200 601 83 200 602 83 201 603 141 201 604 147 201 605 152 202 606 147 202 607 83 202 608 153 203 609 154 203 610 155 203 611 154 204 612 104 204 613 155 204 614 155 205 615 104 205 616 156 205 617 153 206 618 155 206 619 156 206 620 157 207 621 102 207 622 154 207 623 157 208 624 136 208 625 102 208 626 154 209 627 102 209 628 158 209 629 154 210 630 157 210 631 153 210 632 104 211 633 159 211 634 157 211 635 153 212 636 157 212 637 104 212 638 159 213 639 104 213 640 154 213 641 159 214 642 154 214 643 158 214 644 159 215 645 158 215 646 137 215 647 160 216 648 134 216 649 158 216 650 161 217 651 158 217 652 106 217 653 160 218 654 158 218 655 161 218 656 111 219 657 161 219 658 106 219 659 159 220 660 113 220 661 112 220 662 137 221 663 112 221 664 157 221 665 157 222 666 159 222 667 112 222 668 136 223 669 158 223 670 134 223 671 157 224 672 158 224 673 137 224 674 113 225 675 159 225 676 137 225 677 136 226 678 157 226 679 158 226 680 134 227 681 160 227 682 161 227 683 134 228 684 161 228 685 111 228 686 130 229 687 51 229 688 116 229 689 116 230 690 130 230 691 162 230 692 122 231 693 162 231 694 117 231 695 125 232 696 116 232 697 123 232 698 49 233 699 116 233 700 125 233 701 118 234 702 116 234 703 122 234 704 126 235 705 163 235 706 115 235 707 127 236 708 115 236 709 116 236 710 163 237 711 127 237 712 115 237 713 127 238 714 164 238 715 116 238 716 116 239 717 123 239 718 126 239 719 116 240 720 122 240 721 162 240 722 57 241 723 54 241 724 55 241 725 95 242 726 57 242 727 55 242 728 48 243 729 71 243 730 70 243 731 75 244 732 165 244 733 132 244 734 166 245 735 132 245 736 75 245 737 167 246 738 132 246 739 166 246 740 75 247 741 168 247 742 166 247 743 75 248 744 101 248 745 168 248 746 166 249 747 168 249 748 169 249 749 45 250 750 41 250 751 42 250 752 121 251 753 38 251 754 41 251 755 38 252 756 37 252 757 41 252 758 35 253 759 38 253 760 121 253 761 50 254 762 35 254 763 121 254 764 50 255 765 121 255 766 119 255 767 53 256 768 170 256 769 171 256 770 55 257 771 171 257 772 168 257 773 53 258 774 171 258 775 55 258 776 167 259 777 171 259 778 170 259 779 167 260 780 133 260 781 132 260 782 170 261 783 133 261 784 167 261 785 53 262 786 133 262 787 170 262 788 92 263 789 91 263 790 140 263 791 140 264 792 49 264 793 92 264 794 162 265 795 49 265 796 140 265 797 141 266 798 87 266 799 148 266 800 87 267 801 81 267 802 91 267 803 88 268 804 91 268 805 81 268 806 81 269 807 88 269 808 140 269 809 87 270 810 141 270 811 172 270 812 88 271 813 172 271 814 141 271 815 87 272 816 173 272 817 88 272 818 173 273 819 87 273 820 172 273 821 173 274 822 91 274 823 88 274 824 173 275 825 91 275 826 172 275 827 140 276 828 91 276 829 172 276 830 172 277 831 140 277 832 88 277 833 86 278 834 88 278 835 141 278 836 77 279 837 101 279 838 75 279 839 95 280 840 165 280 841 77 280 842 168 281 843 101 281 844 55 281 845 77 282 846 57 282 847 101 282 848 77 283 849 98 283 850 57 283 851 57 284 852 101 284 853 99 284 854 101 285 855 95 285 856 55 285 857 120 286 858 174 286 859 175 286 860 117 287 861 174 287 862 120 287 863 117 288 864 162 288 865 174 288 866 120 289 867 175 289 868 0 289 869 175 290 870 174 290 871 143 290 872 0 291 873 93 291 874 120 291 875 132 292 876 90 292 877 56 292 878 131 293 879 32 293 880 50 293 881 33 294 882 35 294 883 32 294 884 35 295 885 50 295 886 31 295 887 35 296 888 31 296 889 33 296 890 31 297 891 50 297 892 32 297 893 176 298 894 167 298 895 177 298 896 0 299 897 175 299 898 178 299 899 179 300 900 0 300 901 178 300 902 178 301 903 177 301 904 179 301 905 177 302 906 167 302 907 179 302 908 180 303 909 179 303 910 181 303 911 167 304 912 166 304 913 179 304 914 166 305 915 181 305 916 179 305 917 53 306 918 133 306 919 165 306 920 97 307 921 133 307 922 165 307 923 95 308 924 53 308 925 165 308 926 132 309 927 97 309 928 165 309 929 100 310 930 97 310 931 76 310 932 100 311 933 98 311 934 97 311 935 76 312 936 165 312 937 100 312 938 169 313 939 181 313 940 182 313 941 181 314 942 182 314 943 183 314 944 168 315 945 184 315 946 181 315 947 183 316 948 182 316 949 184 316 950 182 317 951 169 317 952 171 317 953 183 318 954 181 318 955 168 318 956 184 319 957 169 319 958 183 319 959 138 320 960 185 320 961 148 320 962 139 321 963 148 321 964 186 321 965 139 322 966 138 322 967 185 322 968 171 323 969 167 323 970 176 323 971 138 324 972 148 324 973 186 324 974 171 325 975 176 325 976 182 325 977 186 326 978 182 326 979 187 326 980 139 327 981 186 327 982 182 327 983 188 328 984 187 328 985 186 328 986 189 329 987 187 329 988 190 329 989 184 330 990 190 330 991 187 330 992 187 331 993 184 331 994 182 331 995 191 332 996 150 332 997 182 332 998 191 333 999 176 333 1000 182 333 1001 193 334 1002 192 334 1003 176 334 1004 142 335 1005 192 335 1006 193 335 1007 79 336 1008 132 336 1009 97 336 1010 76 337 1011 97 337 1012 79 337 1013 32 338 1014 131 338 1015 89 338 1016 131 339 1017 50 339 1018 49 339 1019 90 340 1020 96 340 1021 52 340 1022 53 341 1023 52 341 1024 96 341 1025 79 342 1026 132 342 1027 56 342 1028 136 343 1029 87 343 1030 194 343 1031 196 344 1032 195 344 1033 180 344 1034 0 345 1035 179 345 1036 180 345 1037 94 346 1038 180 346 1039 87 346 1040 94 347 1041 0 347 1042 180 347 1043 87 348 1044 180 348 1045 194 348 1046 194 349 1047 180 349 1048 196 349 1049 82 350 1050 74 350 1051 186 350 1052 82 351 1053 186 351 1054 138 351 1055 83 352 1056 82 352 1057 138 352 1058 188 353 1059 186 353 1060 184 353 1061 186 354 1062 73 354 1063 185 354 1064 186 355 1065 74 355 1066 73 355 1067 51 356 1068 50 356 1069 119 356 1070 89 357 1071 122 357 1072 41 357 1073 89 358 1074 118 358 1075 122 358 1076 90 359 1077 97 359 1078 96 359 1079 174 360 1080 140 360 1081 143 360 1082 174 361 1083 162 361 1084 140 361 1085 131 362 1086 49 362 1087 162 362 1088 169 363 1089 171 363 1090 184 363 1091 168 364 1092 171 364 1093 184 364 1094 168 365 1095 183 365 1096 169 365 1097 153 366 1098 104 366 1099 102 366 1100 153 367 1101 102 367 1102 106 367 1103 156 368 1104 106 368 1105 153 368 1106 102 369 1107 106 369 1108 158 369 1109 102 370 1110 196 370 1111 103 370 1112 103 371 1113 196 371 1114 106 371 1115 196 372 1116 114 372 1117 106 372 1118 114 373 1119 111 373 1120 106 373 1121 70 374 1122 71 374 1123 64 374 1124 197 375 1125 198 375 1126 199 375 1127 191 376 1128 192 376 1129 199 376 1130 192 377 1131 197 377 1132 199 377 1133 191 378 1134 199 378 1135 150 378 1136 141 379 1137 139 379 1138 185 379 1139 185 380 1140 86 380 1141 141 380 1142 66 381 1143 72 381 1144 67 381 1145 60 382 1146 72 382 1147 66 382 1148 72 383 1149 84 383 1150 68 383 1151 188 384 1152 148 384 1153 189 384 1154 185 385 1155 188 385 1156 148 385 1157 190 386 1158 188 386 1159 184 386 1160 187 387 1161 188 387 1162 189 387 1163 189 388 1164 185 388 1165 190 388 1166 189 389 1167 185 389 1168 184 389 1169 185 390 1170 188 390 1171 190 390 1172 189 391 1173 148 391 1174 184 391 1175 184 392 1176 148 392 1177 200 392 1178 200 393 1179 181 393 1180 184 393 1181 165 394 1182 76 394 1183 75 394 1184 77 395 1185 100 395 1186 78 395 1187 100 396 1188 165 396 1189 77 396 1190 185 397 1191 62 397 1192 86 397 1193 63 398 1194 62 398 1195 73 398 1196 73 399 1197 62 399 1198 185 399 1199 201 400 1200 51 400 1201 126 400 1202 51 401 1203 202 401 1204 123 401 1205 123 402 1206 202 402 1207 124 402 1208 51 403 1209 126 403 1210 123 403 1211 121 404 1212 117 404 1213 119 404 1214 148 405 1215 87 405 1216 200 405 1217 200 406 1218 87 406 1219 195 406 1220 195 407 1221 87 407 1222 136 407 1223 144 408 1224 146 408 1225 151 408 1226 203 409 1227 146 409 1228 142 409 1229 182 410 1230 203 410 1231 204 410 1232 203 411 1233 150 411 1234 182 411 1235 145 412 1236 149 412 1237 193 412 1238 175 413 1239 145 413 1240 193 413 1241 149 414 1242 139 414 1243 204 414 1244 149 415 1245 144 415 1246 139 415 1247 151 416 1248 144 416 1249 139 416 1250 146 417 1251 149 417 1252 193 417 1253 146 418 1254 151 418 1255 149 418 1256 151 419 1257 149 419 1258 204 419 1259 176 420 1260 193 420 1261 204 420 1262 203 421 1263 151 421 1264 193 421 1265 193 422 1266 151 422 1267 204 422 1268 204 423 1269 139 423 1270 182 423 1271 151 424 1272 203 424 1273 150 424 1274 191 425 1275 204 425 1276 176 425 1277 203 426 1278 204 426 1279 191 426 1280 142 427 1281 192 427 1282 191 427 1283 203 428 1284 142 428 1285 191 428 1286 199 429 1287 205 429 1288 150 429 1289 169 430 1290 176 430 1291 177 430 1292 166 431 1293 177 431 1294 178 431 1295 178 432 1296 176 432 1297 166 432 1298 176 433 1299 166 433 1300 181 433 1301 176 434 1302 169 434 1303 181 434 1304 202 435 1305 201 435 1306 124 435 1307 71 436 1308 84 436 1309 72 436 1310 71 437 1311 128 437 1312 84 437 1313 68 438 1314 67 438 1315 66 438 1316 72 439 1317 67 439 1318 65 439 1319 64 440 1320 72 440 1321 65 440 1322 108 441 1323 114 441 1324 134 441 1325 124 442 1326 201 442 1327 126 442 1328 201 443 1329 127 443 1330 163 443 1331 201 444 1332 202 444 1333 127 444 1334 201 445 1335 163 445 1336 164 445 1337 163 446 1338 164 446 1339 126 446 1340 63 447 1341 68 447 1342 58 447 1343 74 448 1344 68 448 1345 63 448 1346 74 449 1347 85 449 1348 68 449 1349 46 450 1350 47 450 1351 69 450 1352 56 451 1353 7 451 1354 2 451 1355 54 452 1356 56 452 1357 2 452 1358 51 453 1359 127 453 1360 202 453 1361 47 454 1362 63 454 1363 74 454 1364 29 455 1365 74 455 1366 47 455 1367 118 456 1368 201 456 1369 164 456 1370 118 457 1371 51 457 1372 201 457 1373 51 458 1374 118 458 1375 130 458 1376 130 459 1377 131 459 1378 162 459 1379 69 460 1380 72 460 1381 68 460 1382 69 461 1383 68 461 1384 85 461 1385 72 462 1386 60 462 1387 69 462 1388 186 463 1389 185 463 1390 184 463 1391 169 464 1392 177 464 1393 166 464 1394 49 465 1395 51 465 1396 116 465 1397 129 466 1398 128 466 1399 71 466 1400 102 467 1401 194 467 1402 196 467 1403 195 468 1404 114 468 1405 196 468 1406 195 469 1407 136 469 1408 114 469 1409 136 470 1410 194 470 1411 102 470 1412 142 471 1413 198 471 1414 197 471 1415 143 472 1416 142 472 1417 175 472 1418 175 473 1419 142 473 1420 146 473 1421 142 474 1422 197 474 1423 178 474 1424 178 475 1425 175 475 1426 193 475 1427 142 476 1428 178 476 1429 193 476 1430 178 477 1431 192 477 1432 176 477 1433 197 478 1434 192 478 1435 178 478 1436 195 479 1437 180 479 1438 181 479 1439 195 480 1440 181 480 1441 200 480 1442 25 481 1443 26 481 1444 28 481 1445 126 482 1446 164 482 1447 116 482 1448 127 483 1449 118 483 1450 164 483 1451 84 484 1452 46 484 1453 85 484 1454 128 485 1455 46 485 1456 84 485 1457 106 486 1458 156 486 1459 107 486 1460 51 487 1461 119 487 1462 127 487 1463 26 488 1464 20 488 1465 128 488 1466 26 489 1467 128 489 1468 48 489 1469 48 490 1470 129 490 1471 71 490 1472 205 491 1473 142 491 1474 144 491 1475 142 492 1476 205 492 1477 198 492 1478 156 493 1479 104 493 1480 103 493 1481 85 494 1482 46 494 1483 69 494 1484 198 495 1485 205 495 1486 199 495 1487 203 496 1488 146 496 1489 193 496 1490 205 497 1491 144 497 1492 150 497 1493 175 498 1494 146 498 1495 145 498 1496 103 499 1497 107 499 1498 156 499 1499</p>
        </polylist>
      </mesh>
    </geometry>
  </library_geometries>
  <library_visual_scenes>
    <visual_scene id="Scene" name="Scene">
      <node id="Triangle1" name="Triangle1" type="NODE">
        <scale sid="scale">1 1 1</scale>
        <translate sid="location">-0.004441305825242719 0.5796106553398058 0.0009273398058252403</translate>
        <rotate sid="rotationX">1 0 0 0</rotate>
        <rotate sid="rotationY">0 1 0 0</rotate>
        <rotate sid="rotationZ">0 0 1 0</rotate>
        <instance_geometry url="#Triangle1-mesh" name="Triangle1">
          <bind_material>
            <technique_common>
            </technique_common>
          </bind_material>
        </instance_geometry>
      </node>
    </visual_scene>
  </library_visual_scenes>
  <scene>
    <instance_visual_scene url="#Scene"/>
  </scene>
</COLLADA>
