<?xml version="1.0" encoding="utf-8"?>
<COLLADA xmlns="http://www.collada.org/2005/11/COLLADASchema" version="1.4.1" xmlns:xsi="http://www.w3.org/2001/XMLSchema-instance">
  <asset>
    <contributor>
      <author>Blockbench user</author>
      <authoring_tool>Blockbench</authoring_tool>
    </contributor>
    <created>2026-07-05T04:40:17.431Z</created>
    <modified>2026-07-05T04:40:17.437Z</modified>
    <unit name="meter" meter="1.0"/>
    <up_axis>Y_UP</up_axis>
  </asset>
  <library_effects>
  </library_effects>
  <library_images>
  </library_images>
  <library_materials>
  </library_materials>
  <library_geometries>
    <geometry id="Waste1-mesh" name="Waste1">
      <mesh>
        <source id="Waste1-mesh-positions">
          <float_array id="Waste1-mesh-positions-array" count="726">-0.216535 -0.157321 -0.418846 -0.037234 -0.165483 -0.315401 -0.167117 -0.15813 -0.2993 -0.11054 -0.15954 -0.462371 -0.176681 -0.155592 -0.441438 -0.151031 -0.149841 -0.434784 -0.163202 -0.14173 -0.420677 -0.189055 -0.097459 -0.414668 -0.216621 0.01574 -0.411492 -0.235064 0.0158 -0.416535 -0.186173 -0.066861 -0.39191 -0.228882 0.001211 -0.402924 -0.235001 0.002257 -0.394867 -0.182215 -0.139802 -0.334834 -0.231105 -0.160154 -0.283918 -0.182172 -0.160792 -0.206081 -0.154019 -0.155513 -0.288144 -0.166622 -0.155996 -0.26155 -0.191078 -0.205695 -0.154717 -0.218458 -0.151521 -0.262497 -0.188558 -0.127955 -0.297452 -0.264625 0.005119 -0.273693 -0.297936 0.015414 -0.282145 -0.302456 -0.05079 -0.128516 -0.248031 -0.07194 -0.112444 -0.098878 -0.149875 -0.39639 -0.059316 -0.157025 -0.282347 -0.150806 -0.062779 -0.455625 0.022599 -0.159699 -0.411429 -0.061602 -0.158196 -0.343745 -0.091517 -0.050643 -0.417082 -0.200666 -0.067296 -0.305567 -0.215797 0.001466 -0.271183 -0.22282 -0.00899 -0.29347 -0.231976 -0.000597 -0.269715 -0.048685 -0.155444 -0.309047 -0.091265 -0.155263 -0.166003 -0.013489 -0.157702 -0.166652 -0.182101 -0.159922 -0.152852 -0.175212 -0.161515 -0.121014 0.066046 -0.171449 -0.183887 -0.278781 0.077717 -0.24569 -0.183498 0.046607 -0.226262 -0.261835 0.133149 -0.147253 -0.266939 0.126834 -0.102169 -0.240156 0.125133 -0.216388 -0.193866 0.143262 -0.263144 -0.229935 0.142094 -0.147376 -0.161622 0.078606 -0.261067 -0.1689 0.118103 -0.187393 -0.159476 0.111774 -0.121548 -0.139481 0.116844 -0.186935 -0.116635 0.110027 -0.278274 -0.05289 -0.075661 -0.196101 -0.08978 -0.019669 -0.182766 -0.099489 0.146976 -0.013534 -0.145589 0.117894 -0.058796 -0.161392 0.081 -0.211598 -0.14792 0.105793 -0.060394 -0.167989 0.078282 -0.21919 -0.234512 0.036853 -0.217111 -0.246733 0.052944 -0.082219 -0.201 -0.023114 -0.192986 -0.183956 -0.032535 0.055568 -0.039561 -0.115223 -0.179357 0.00114 -0.074222 -0.109724 -0.183109 0.175552 -0.041502 -0.173904 0.137436 -0.137817 -0.36042 -0.039542 -0.038132 -0.298822 -0.151849 -0.046922 -0.307685 -0.16136 -0.019965 -0.376058 -0.074444 0.001693 -0.199036 0.014497 -0.057748 -0.110355 -0.093149 -0.076746 -0.094127 -0.101973 -0.141671 -0.043428 -0.049306 -0.113386 -0.089423 -0.069001 -0.160794 -0.154755 -0.04554 -0.022015 -0.11723 -0.084464 0.051584 -0.080492 -0.0649 -0.033633 -0.028073 -0.078422 0.016466 -0.03385 -0.09573 -0.05664 -0.046234 0.022812 -0.026384 -0.003911 -0.036381 -0.100604 -0.130484 -0.112766 0.140412 -0.150393 -0.160428 0.023893 -0.135345 0.017776 -0.090786 -0.17025 0.016195 -0.133402 -0.112469 -0.003973 -0.102533 -0.056276 0.019142 -0.084336 -0.117454 0.006062 -0.073314 -0.235332 0.009168 0.043141 -0.245789 0.085 0.074989 -0.117907 0.10365 0.086483 -0.146784 0.118513 -0.04947 -0.176953 -0.0051 0.039887 -0.035099 0.006223 -0.022034 -0.039999 0.004662 -0.010418 -0.226637 0.158318 -0.10883 -0.230675 0.159934 -0.039807 -0.274423 0.154259 0.096359 -0.139954 0.124619 -0.141937 -0.088935 0.160054 -0.062404 -0.158445 0.156009 0.078173 -0.22064 0.130329 -0.020426 -0.208591 0.151765 0.073599 -0.18643 0.200135 0.076489 -0.122347 0.167352 0.124697 0.091571 -0.160335 -0.319545 -0.029916 -0.074939 -0.252949 0.032626 -0.101104 -0.2717 -0.022986 -0.110591 -0.338218 -0.001883 -0.137353 -0.224013 -0.00988 -0.060733 -0.239779 0.029154 -0.11069 -0.264538 -0.015645 -0.125204 -0.232013 -0.092163 -0.112924 -0.29693 -0.071547 -0.076792 -0.296205 -0.050571 -0.026476 -0.247918 0.017852 -0.082433 -0.277672 0.076207 -0.157371 -0.091626 0.02335 -0.156703 -0.184311 0.179666 -0.159817 -0.201895 0.120618 -0.1603 -0.306856 0.012429 -0.078681 -0.18553 -0.015776 -0.080999 -0.160276 -0.000276 -0.154645 -0.142055 0.076918 -0.084647 -0.051955 0.074451 -0.157719 -0.031459 0.141928 -0.157842 -0.133549 0.101224 -0.157329 -0.187136 -0.01305 -0.008376 -0.131191 -0.03427 -0.00619 0.082554 0.091675 -0.1411 -0.108208 0.119397 -0.132464 -0.079033 0.155239 -0.156589 -0.383658 0.160911 -0.134942 -0.291911 0.248259 -0.150048 -0.418517 0.236723 -0.143653 -0.328641 0.244066 -0.129482 -0.265388 0.167701 -0.132105 -0.214607 0.298336 -0.163308 -0.116311 0.273414 -0.157852 -0.058908 0.329809 -0.160153 -0.03569 0.126441 -0.106454 -0.001885 0.097195 -0.067035 -0.067224 0.271457 -0.129324 -0.104965 0.220136 -0.099107 -0.070033 0.28527 -0.076123 0.025042 0.135242 -0.05297 -0.011387 0.337984 -0.100067 -0.010855 0.390017 -0.138241 -0.047819 0.319764 -0.14116 -0.132905 0.16002 -0.161469 0.076561 0.194972 -0.090643 0.077056 -0.345886 -0.079516 0.128148 -0.302769 -0.151805 0.111965 -0.332269 -0.118593 0.175506 -0.230803 -0.153214 0.221441 -0.34439 -0.056236 0.112767 -0.310054 -0.053268 0.091161 -0.323988 -0.070877 0.132881 -0.383101 -0.001443 0.120129 -0.371926 -0.031433 0.148907 -0.294567 -0.052637 0.17562 -0.333311 -0.010123 0.227497 -0.318678 0.04506 0.247897 -0.302205 0.031161 0.251408 -0.246928 -0.15838 0.245331 -0.207031 -0.017641 0.061337 -0.222671 -0.013779 0.060873 -0.18323 -0.033159 0.067985 -0.214023 -0.161247 0.15773 -0.089574 -0.161532 0.163668 -0.178988 -0.036199 0.104829 -0.24373 0.085739 0.118483 -0.157627 0.003703 0.11359 -0.107255 -0.077107 0.061951 -0.106128 -0.077316 0.116399 -0.198491 0.102761 0.098936 -0.041444 -0.009374 0.139629 -0.045262 0.009056 0.111101 -0.050213 -0.144085 0.181493 -0.043867 -0.005272 0.07479 -0.051735 -0.048613 0.110588 -0.044356 -0.048355 0.048623 -0.312096 -0.073734 0.209369 -0.260699 -0.071487 0.22171 -0.319647 0.000912 0.305039 -0.232283 -0.142872 0.202202 -0.154801 -0.073246 0.14701 -0.156112 -0.130786 0.132271 -0.122907 -0.133783 0.162558 -0.232221 -0.088272 0.218913 -0.070514 -0.115012 0.425303 -0.112401 -0.011934 0.163118 -0.119714 -0.077166 0.183645 -0.162187 -0.161421 0.293293 -0.042816 -0.157768 0.297011 0.00917 -0.118446 0.36962 -0.087916 -0.009233 0.177908 -0.005402 -0.096058 0.184026 -0.022195 -0.028971 0.191402 -0.296349 -0.157066 0.300488 -0.285685 -0.156348 0.345727 -0.224425 -0.157088 0.265856 -0.109181 -0.160163 0.413298 0.044009 -0.160619 0.304491 -0.232943 -0.160161 0.363645 -0.116308 -0.161504 0.360121 -0.271497 -0.160306 0.487706 -0.294617 -0.149612 0.310455 -0.341125 -0.135254 0.301422 -0.307068 -0.144684 0.323456 -0.343399 -0.109717 0.352234 -0.291435 -0.151003 0.326587 -0.279236 -0.156845 0.358093 -0.240417 -0.158356 0.498383 -0.127104 -0.119262 0.342637 -0.071953 -0.122651 0.309938 0.042877 -0.127455 0.161357 0.210738 -0.158041 0.093093 0.031277 -0.035132 0.028239 0.120115 -0.149556 0.261837 -0.026369 -0.004512 0.058196 0.028712 -0.002721 -0.022819 0.035196 -0.048666 0.163923 0.013346 -0.015956 0.097466 0.074941 -0.06434 0.162232 0.02927 -0.033616 0.054963 0.120785 -0.06314 0.067391 0.043378 0.003205 0.00824 0.159034 -0.062263 0.063594 0.194263 -0.099887 0.123183 0.139537 -0.13024 0.256024 0.273763 -0.158289 0.155755 0.246892 -0.152127 0.135413 0.099873 -0.159735 0.271645 0.264652 -0.138878 0.158887 0.135147 -0.147062 0.288616 0.21152 -0.038893 0.070972 0.028306 -0.154637 0.238403</float_array>
          <technique_common>
            <accessor source="#Waste1-mesh-positions-array" count="242" stride="3">
              <param name="X" type="float"/>
              <param name="Y" type="float"/>
              <param name="Z" type="float"/>
            </accessor>
          </technique_common>
        </source>
        <source id="Waste1-mesh-normals">
          <float_array id="Waste1-mesh-normals-array" count="1521">0.054563 0.998385 -0.015799 -0.031133 -0.999206 -0.024876 -0.173027 -0.910761 -0.374935 0.086079 -0.893608 0.440517 0.30122 0.046631 0.952414 0.262936 0.090979 -0.960514 0.941161 0.324733 -0.093616 0.960806 0.268922 0.067326 0.265157 0.313873 0.911688 0.635572 0.421318 -0.646947 0.92643 0.37605 -0.017706 -0.995068 0.021738 0.096785 -0.859906 -0.477766 -0.179726 -0.635005 -0.76257 -0.123518 -0.075327 -0.898898 -0.431635 -0.061221 -0.997386 -0.038369 0.02575 -0.999371 -0.02438 -0.057612 0.997352 0.044393 0.060674 -0.998101 0.010626 0.189596 -0.906129 -0.378132 -0.866401 0.321788 0.381839 -0.458027 0.884754 -0.08615 0.867313 0.497652 -0.010548 0.358583 0.528538 -0.769458 0.178739 0.901647 0.393809 0.86154 0.486841 0.143995 0.812801 0.51494 0.272381 0.151374 -0.987011 0.053811 0.851956 0.508955 -0.123026 0.81314 0.580443 -0.043475 -0.032016 0.999287 0.019997 -0.222254 0.974452 0.032354 -0.079772 0.996749 0.011279 0.012369 0.998223 0.058293 0.122063 0.978722 -0.164939 -0.581887 0.190754 0.790582 -0.291387 0.223414 0.930151 0.017621 -0.998635 -0.049171 0.006565 0.99988 -0.014037 0.486177 0.848208 -0.210178 -0.501296 0.21211 0.838876 0.562705 -0.208542 -0.799921 0.922913 0.351683 0.156686 0.91585 0.321685 -0.240286 0.80526 0.397285 -0.440138 -0.107243 0.140686 -0.984229 0.369944 0.316363 -0.873531 0.903233 0.228859 0.363035 -0.92125 -0.29823 -0.249713 0.963174 0.21403 0.162751 0.981813 0.147146 0.119962 -0.779697 -0.425304 -0.459553 -0.871616 -0.440329 -0.215397 -0.815688 -0.572834 -0.080713 -0.035233 0.997199 -0.065975 0.011752 0.997602 0.068206 0.031289 0.999489 -0.006545 -0.055585 0.997992 -0.030379 -0.040735 0.999037 -0.016274 -0.042595 0.997342 0.059118 0.762731 0.632814 -0.133375 0.797786 0.602841 -0.010917 0.041774 0.999049 0.012515 0.042446 0.999086 0.005019 0.956067 -0.281844 -0.080619 0.951846 0.129225 0.278011 -0.562944 0.276022 0.779041 -0.999066 0.035275 0.024952 -0.027261 0.993389 0.111516 -0.676357 -0.736573 -0.000449 -0.116797 0.987987 0.101196 0.878021 -0.475617 -0.053542 -0.729239 0.676397 0.103428 -0.263246 -0.961804 -0.07506 0.786408 0.250204 0.564766 0.22657 0.887667 0.40089 0.120717 -0.232896 -0.96498 -0.925348 0.375514 -0.052161 -0.649155 0.705119 -0.285315 -0.617815 0.710917 -0.336009 -0.265617 0.944601 -0.192814 -0.128817 -0.095948 -0.987016 -0.086956 -0.705541 -0.703314 0.887048 0.43765 -0.146998 0.929391 0.355617 -0.098836 0.691837 -0.704799 0.156911 0.612565 -0.76199 0.210087 0.827293 0.5588 -0.057704 0.464447 -0.880721 0.09284 0.596542 -0.795389 0.107207 0.8187 0.573354 -0.031553 0.80718 -0.589785 0.024789 0.239201 -0.961353 0.136321 0.671979 0.281883 -0.684826 0.526173 -0.837476 0.147571 -0.128267 0.254066 0.958644 -0.096515 0.324598 0.940915 -0.787719 -0.612953 0.061541 -0.802201 -0.597034 -0.004892 -0.080072 -0.318529 -0.944525 -0.357099 -0.564949 -0.74385 0.051012 -0.374631 -0.92577 -0.017258 -0.296212 -0.954966 0.845789 0.060618 -0.530063 0.748245 0.279257 -0.601785 -0.454262 0.884443 -0.106804 -0.22755 0.952903 -0.200493 0.860771 0.496051 -0.114043 0.853496 0.508858 -0.112289 -0.811881 -0.413002 -0.412648 -0.404889 -0.427805 0.808114 -0.445061 -0.43661 0.781852 -0.68869 -0.38935 -0.611647 0.869342 0.493812 0.019855 0.676082 0.707292 -0.206523 0.582377 0.812157 0.035184 0.741072 0.64402 -0.18987 -0.623932 0.738258 -0.256289 -0.732856 0.416558 0.53796 0.77637 0.624274 0.086784 0.726975 0.686623 -0.007522 -0.616325 0.782782 -0.085995 0.026524 0.971748 0.234527 -0.190227 -0.755571 0.626838 -0.14303 0.754062 0.641041 0.450522 0.860114 -0.239235 -0.985429 -0.130722 0.108819 -0.990317 -0.12088 0.068261 0.044833 -0.768403 0.638394 -0.819249 -0.572875 -0.025405 -0.07171 0.997414 0.0048 -0.096102 0.404396 0.909521 -0.0407 0.505626 0.861792 0.554508 0.680211 -0.47941 0.327988 0.692206 -0.642865 -0.354283 -0.690532 0.630595 -0.125332 -0.407442 0.90459 0.255982 -0.900013 0.352774 -0.062672 0.7981 0.599256 -0.156275 -0.410592 0.898327 0.689155 0.562759 -0.456473 0.527435 0.65572 -0.540226 0.822362 0.234685 -0.518308 0.460268 0.00462 0.887768 0.446845 0.677381 0.584366 0.888193 -0.366324 0.277344 0.297972 -0.772653 -0.560553 -0.582042 -0.782722 -0.220394 -0.534049 -0.812129 -0.235028 -0.877368 -0.469085 0.100919 0.12406 -0.972413 0.197538 -0.596124 -0.330261 -0.731822 0.151867 0.900774 -0.406869 -0.015264 0.999581 -0.024581 0.982094 -0.183609 -0.042182 0.445941 -0.887507 0.116048 0.172356 0.890691 0.42067 0.132723 0.977135 0.166108 0.606895 0.485928 -0.62893 -0.68414 -0.72829 -0.039324 0.976601 0.083123 -0.198347 -0.256583 0.08034 0.963177 -0.363009 -0.052922 0.930281 0.605165 0.714406 0.351282 0.451244 0.671775 0.587449 -0.253502 0.899144 -0.35676 -0.610808 0.790685 0.041603 0.259331 0.88202 -0.39343 -0.313005 0.948886 -0.040527 -0.857146 0.504862 -0.102055 -0.530561 0.836732 -0.135588 -0.620291 0.782468 -0.054608 0.891507 0.443884 -0.090461 -0.558093 0.829697 -0.011655 -0.640525 0.755566 -0.137284 0.044773 0.984489 -0.169635 0.881382 0.460246 -0.106487 -0.683396 0.684922 0.25269 -0.062963 0.974767 -0.214161 -0.312011 0.928314 -0.202193 0.30037 0.898516 -0.320073 0.823016 -0.567427 0.025891 -0.378321 0.911275 -0.162639 0.340925 -0.93983 0.022139 0.908502 0.377058 -0.180143 -0.489504 0.863552 -0.121098 -0.028271 0.97598 -0.216018 0.976609 -0.119071 0.179045 0.038753 -0.9986 -0.036002 0.037428 -0.996511 -0.074598 0.269133 0.896151 -0.352819 0.696092 -0.505455 -0.509874 -0.599158 0.783995 0.162365 -0.592052 0.790316 0.15772 -0.275225 0.959932 -0.052744 -0.707775 -0.212502 -0.673719 0.445668 0.838228 -0.314253 -0.488994 0.800248 0.347114 -0.425066 0.884865 -0.190611 -0.777468 0.628694 0.016956 0.649703 0.246067 -0.719261 0.255198 0.966485 -0.027935 -0.066998 0.997228 0.032373 0.676393 -0.373191 -0.634996 -0.425525 -0.448247 -0.786132 0.627224 -0.14096 -0.765977 0.677243 -0.3737 -0.633791 0.678304 -0.365994 -0.637144 -0.609036 0.098377 0.787018 -0.64844 -0.244583 0.720905 -0.394992 -0.259822 0.881177 -0.470386 -0.109579 -0.875631 -0.445858 -0.572803 -0.687828 -0.755133 -0.641195 -0.136539 -0.018577 0.999669 0.017799 -0.094133 0.994383 0.048381 0.034067 -0.996584 -0.075237 -0.658701 -0.103844 -0.745204 -0.841286 -0.289946 -0.456255 -0.049433 -0.998557 0.020994 -0.759769 0.000961 0.650193 0.817841 0.219444 -0.531959 0.82175 0.234822 -0.519215 0.011061 0.99992 0.006106 -0.008325 0.99995 0.005541 0.029313 0.99949 -0.012697 -0.647266 -0.693839 0.315647 0.522363 0.801121 -0.292133 -0.82131 -0.567232 -0.060812 -0.033483 -0.999273 0.018217 -0.035381 -0.999349 -0.007102 0.490899 0.788251 -0.37105 -0.487768 -0.79635 0.357644 0.522278 0.798217 -0.300127 0.521616 0.79977 -0.297126 0.301237 0.656689 -0.691387 0.052599 -0.997191 0.053316 0.027057 0.99933 -0.02466 -0.007194 -0.999704 0.02322 0.233994 0.957513 -0.168572 0.00057 0.979522 -0.201338 0.71802 -0.41354 -0.55985 0.725195 0.090844 -0.682524 -0.149612 0.964349 -0.218281 0.085296 0.994558 -0.059818 0.005874 0.975648 -0.219263 -0.987429 -0.128917 0.091462 -0.063411 0.988335 -0.138468 -0.164475 0.966423 -0.19742 0.101005 -0.991375 0.083504 -0.055397 0.997959 -0.031759 -0.487475 -0.791971 0.367628 0.077529 -0.985986 -0.14772 -0.074254 -0.995288 0.062361 0.012543 0.99968 -0.021962 0.000553 0.999999 -0.00084 0.010712 0.997288 0.072816 -0.351394 -0.934053 -0.063782 -0.51282 -0.40725 0.755753 -0.510029 -0.326241 -0.795887 -0.539362 0.795166 0.277126 0.743186 0.354592 -0.567397 0.020308 -0.478938 0.877614 0.574289 0.047366 0.817281 -0.420626 0.820283 0.387569 -0.103176 0.994375 -0.023961 -0.588349 -0.204123 -0.782419 0.256002 0.884827 -0.389286 0.229564 0.898381 -0.37445 0.148904 0.909543 -0.388021 0.286325 0.838751 -0.463157 -0.148804 -0.976427 0.156361 0.026682 -0.999233 0.028662 0.026705 -0.999232 0.028679 -0.520033 -0.129436 -0.844282 0.50074 -0.774326 -0.386882 0.324575 -0.941582 -0.089861 0.35222 -0.547719 0.758911 0.513958 -0.121676 0.849142 0.511248 -0.144568 0.847187 -0.187034 -0.919223 0.346479 -0.583711 -0.04795 -0.810544 -0.621321 -0.17137 -0.764586 -0.86356 -0.481683 -0.149154 -0.774698 -0.627946 0.074346 0.508184 -0.850896 -0.133132 -0.757627 -0.325203 -0.565902 -0.870478 -0.381708 0.310752 0.198991 0.8773 0.436747 -0.663451 -0.382308 -0.643174 -0.892999 -0.436802 -0.108431 0.621663 0.78081 -0.062212 -0.034377 -0.41177 0.910639 -0.828668 0.539887 0.147757 -0.015671 0.993631 0.11159 0.834007 0.478884 -0.274048 0.922508 0.345665 -0.17174 -0.902725 0.070822 0.424348 -0.901592 0.082063 0.424732 -0.654069 -0.534072 0.535687 0.611691 0.592579 -0.524104 0.044005 0.839031 -0.542301 0.837603 -0.465908 -0.285221 -0.303037 -0.949609 0.080067 0.243781 -0.968788 -0.044948 -0.534495 -0.825096 0.183118 -0.163885 -0.566671 0.807481 -0.415058 -0.688538 -0.594678 -0.313418 -0.737166 -0.598628 0.037515 0.999199 -0.013921 0.001954 0.999973 0.007048 -0.025842 0.999483 0.019139 -0.764128 -0.64501 -0.008346 -0.842605 -0.538073 0.022226 -0.854979 -0.515642 0.055892 -0.865467 -0.476744 0.153886 0.320943 0.282945 0.903846 -0.222444 0.883254 -0.412773 -0.956194 0.284194 0.070189 -0.835487 0.470757 0.283459 0.541766 0.806279 0.237495 0.399353 0.821939 0.406119 0.069496 -0.900585 -0.429089 -0.738879 -0.642806 0.202133 -0.631218 0.225236 0.742181 -0.437417 -0.898943 -0.02381 -0.103741 -0.521848 -0.846707 -0.437921 -0.359254 -0.824112 -0.907677 -0.406929 0.102625 -0.879823 -0.472698 0.049682 -0.917415 -0.39476 0.050138 0.113801 -0.177929 -0.977441 0.299216 0.259279 0.918283 0.479605 -0.74822 0.458416 -0.212256 0.056758 0.975564 -0.550896 0.801684 0.231982 0.391169 -0.898945 0.197193 0.966216 0.178737 -0.185688 0.713125 0.628484 0.310581 0.137453 -0.502479 0.853593 0.127706 0.491478 0.861476 -0.778555 0.626104 -0.042971 0.900762 -0.419425 0.112739 -0.089259 -0.018604 0.995835 -0.479886 0.869366 -0.117947 0.04402 0.324769 0.944768 0.272214 0.20849 0.939378 0.475065 0.815678 0.330125 0.995812 0.08915 -0.02027 -0.770261 0.515704 0.375163 -0.175892 0.302565 0.936759 -0.418434 0.110105 0.901548 0.906883 0.398751 0.136235 0.855459 0.515011 0.054343 0.045726 0.997067 0.06137 0.104892 -0.174256 -0.979098 0.087833 -0.122534 -0.98857 -0.117697 0.022042 -0.992805 -0.465573 0.884913 0.013034 -0.423446 0.904719 -0.046658 -0.407388 0.555031 -0.725242 0.918773 0.378865 0.110988 -0.956531 -0.241067 -0.164122 -0.777555 -0.544219 -0.315015 0.992613 -0.111833 0.047034 -0.410253 0.910562 -0.050693 -0.918537 0.131676 0.372761 0.382852 -0.91903 -0.093852 -0.651261 0.747777 0.129186 -0.634868 0.764649 0.110701 -0.677586 -0.224066 0.700479 -0.150184 0.87152 0.466795 -0.206575 -0.331263 0.920647 -0.781653 -0.397632 0.480529 0.86613 0.450141 -0.217239 0.82289 0.302599 -0.480921 0.767006 0.278671 0.577965 0.227107 0.354284 -0.907141 0.887696 0.246414 0.388942 0.874483 0.241544 0.420637 0.469994 0.694612 0.544628 -0.854475 -0.471679 0.217695 -0.968574 0.204502 0.141574 -0.679843 0.196474 -0.706549 0.033474 -0.990322 -0.134694 -0.686755 0.213445 -0.694844 -0.042098 0.986098 0.160743 0.672471 0.16924 -0.720514 -0.851102 -0.494031 -0.177651 0.071504 0.206901 -0.975745 0.675711 -0.289134 -0.678097 0.55801 0.688811 0.462779 -0.030033 0.999393 -0.01768 0.005637 -0.999978 -0.003439 -0.036101 0.979878 0.196304 0.007111 -0.978782 -0.204783 0.839433 -0.140256 -0.525054 0.827782 0.154228 -0.539435 -0.064714 0.983789 0.167246 0.131285 0.983145 0.127241 0.00227 0.999997 0.000415 -0.486019 -0.108128 0.867233 -0.50384 -0.118119 0.855683 -0.065275 0.008277 0.997833 0.246076 0.166577 -0.954829 0.225708 0.088256 -0.970189 -0.109019 -0.091363 0.989832 -0.516462 0.309183 0.798544 0.713283 -0.279597 0.642691 0.006588 -0.999876 0.014316 -0.036364 -0.996529 -0.074889 0.003402 -0.999954 0.00898 -0.00408 0.999986 0.003507 0.030952 0.999305 -0.020763 -0.005131 -0.999906 0.012748 0.01216 -0.999465 -0.030349 -0.070923 -0.99688 0.034644 -0.09835 -0.992942 0.066287 0.781162 0.320326 -0.535889 -0.807348 -0.030924 0.589264 -0.785468 -0.180313 0.592054 -0.064881 -0.997665 -0.021329 0.306142 0.949641 -0.066768 0.594837 0.799648 -0.082044 0.594837 0.799648 -0.082044 -0.074633 0.996588 0.03524 0.021074 0.999754 0.006901 -0.056952 0.99824 -0.016532 -0.815848 0.575835 -0.05297 -0.084097 -0.99582 0.035629 -0.033274 -0.999325 -0.015567 -0.825502 0.022443 0.563953 -0.004842 -0.998494 0.054649 0.010855 0.996326 -0.084953 0.478354 0.437428 0.761469 0.624418 0.245078 0.741647 0.025101 0.995788 0.088179 -0.013632 0.999634 -0.023381 0.826596 0.560802 0.047334 -0.247745 0.950074 -0.18969 -0.008763 0.999888 0.012173 0.813231 0.581906 0.006424 0.78875 0.610555 0.071391 0.869814 0.480274 0.112965 0.039725 -0.998924 0.023944 -0.537798 -0.819733 -0.197006 -0.585318 -0.697516 -0.41337 -0.324995 -0.864992 -0.382317 -0.518891 0.491383 0.699496 -0.741288 0.026923 0.670647 0.344585 -0.784628 -0.515383 0.657927 0.750251 -0.065233 0.285086 0.946726 0.149783 0.155823 0.752408 0.640001 0.05472 0.699295 0.712736 -0.022759 0.99974 0.001648 0.367365 0.868997 0.331492 0.355375 0.862185 0.361034 0.359833 0.878551 0.314114 0.590087 0.694775 -0.4112 0.942458 0.056933 0.329442 0.119914 0.961603 0.246862 0.051273 0.902606 0.427403 0.405963 0.893231 0.193216 -0.203142 -0.94469 -0.257476 0.129673 0.985442 0.109948 -0.20385 0.97488 -0.089748 -0.756976 0.233022 0.610482 0.009403 0.999926 -0.007704 0.047687 -0.997032 0.060442 -0.566629 -0.597345 0.567547 0.101369 -0.989199 -0.105871 0.025699 -0.999528 0.016808 0.017917 -0.999736 0.01441 0.292745 0.877121 0.380736 0.187848 -0.653285 -0.733438 -0.353461 -0.872754 -0.336699 0.682148 0.281372 -0.67491 -0.572379 0.573932 -0.585649 0.100505 -0.993525 0.052979 -0.610113 -0.397005 0.685674 0.68543 0.209189 0.697443 0.505508 -0.060457 0.860701 -0.724243 0.304333 0.618751 0.228006 0.902484 -0.365426 0.37069 0.860552 0.34934 0.321008 0.88597 0.334681 -0.181456 -0.919138 0.349655 0.238575 -0.903081 0.35711 0.153955 0.284078 0.94636 0.526626 -0.453437 -0.719069 -0.128473 -0.140101 0.981767 -0.052127 0.998591 -0.009909 0.025463 0.996131 0.084115 0.447979 0.611709 -0.652017 -0.024257 0.998255 -0.053838 0.075895 0.994514 0.071986 -0.016135 0.99987 -0.000532 0.392021 -0.909951 -0.135309 -0.839665 -0.228648 0.492628 0.412238 0.785779 0.461098 0.246978 0.84713 0.470503 -0.198811 0.93719 -0.286616 0.24526 0.817271 -0.521455 0.061046 0.935049 -0.349223 -0.760331 -0.551791 -0.342672 -0.811417 -0.543764 -0.214296</float_array>
          <technique_common>
            <accessor source="#Waste1-mesh-normals-array" count="507" stride="3">
              <param name="X" type="float"/>
              <param name="Y" type="float"/>
              <param name="Z" type="float"/>
            </accessor>
          </technique_common>
        </source>
        <source id="Waste1-mesh-map-0">
          <float_array id="Waste1-mesh-map-0-array" count="3042">0.254102 0.464892 0.36013 0.511199 0.325288 0.447825 0.254102 0.464892 0.36013 0.511199 0.303899 0.541961 0.303899 0.541961 0.36013 0.511199 0.339363 0.526191 0.390325 0.477928 0.427282 0.489759 0.404687 0.474221 0.36013 0.569988 0.356229 0.541962 0.35047 0.634147 0.35047 0.634147 0.36013 0.569988 0.36013 0.63824 0.350223 0.943622 0.347669 0.850765 0.361935 0.898467 0.350223 0.943622 0.361935 0.898467 0.41774 0.945135 0.361935 0.898467 0.347669 0.850765 0.354941 0.856337 0.169238 0.907789 0.156131 0.892674 0.156131 0.949467 0.681783 0.781522 0.681783 0.849906 0.689065 0.840923 0.663606 0.896163 0.672589 0.912469 0.625427 0.930623 0.625427 0.930623 0.672589 0.912469 0.673467 0.941161 0.625427 0.930623 0.673467 0.941161 0.605496 0.941152 0.335813 0.466389 0.325288 0.447825 0.359917 0.435353 0.254102 0.464892 0.327916 0.395126 0.325288 0.447825 0.325288 0.447825 0.327916 0.395126 0.359917 0.435353 0.387623 0.346307 0.403244 0.392226 0.36013 0.38976 0.976268 0.904885 0.933083 0.904885 0.940915 0.890418 0.976268 0.904885 0.940915 0.890418 0.957805 0.832192 0.767655 0.479968 0.767655 0.407828 0.776937 0.468987 0.711735 0.179793 0.711735 0.225003 0.700013 0.187359 0.852455 0.927495 0.867454 0.943601 0.769606 0.943601 0.681783 0.765525 0.6935 0.676177 0.6935 0.781522 0.937705 0.580065 0.919657 0.58662 0.908349 0.501708 0.769606 0.943601 0.774679 0.845355 0.849555 0.8743 0.769606 0.943601 0.849555 0.8743 0.861998 0.9041 0.403244 0.392226 0.396236 0.377334 0.395898 0.398457 0.769606 0.943601 0.861998 0.9041 0.852455 0.927495 0.852455 0.927495 0.861998 0.9041 0.871188 0.922347 0.390325 0.477928 0.368068 0.465236 0.395898 0.398457 0.390325 0.477928 0.395898 0.398457 0.403244 0.392226 0.390325 0.477928 0.403244 0.392226 0.433919 0.45283 0.433919 0.45283 0.403244 0.392226 0.456221 0.389141 0.433919 0.45283 0.427282 0.489759 0.404687 0.474221 0.277892 0.942225 0.247255 0.942942 0.281474 0.991359 0.277892 0.942225 0.281474 0.991359 0.292263 0.938314 0.254102 0.464892 0.303899 0.541961 0.226745 0.521873 0.50183 0.46148 0.427282 0.489759 0.454844 0.423483 0.454844 0.423483 0.427282 0.489759 0.433919 0.45283 0.897858 0.77458 0.946299 0.77458 0.944397 0.830253 0.247255 0.999105 0.247255 0.942942 0.281474 0.991359 0.41032 0.891821 0.41774 0.945135 0.361935 0.898467 0.41774 0.945135 0.41032 0.891821 0.42471 0.850765 0.42471 0.850765 0.41032 0.891821 0.414347 0.856615 0.618578 0.790987 0.618578 0.701219 0.612817 0.790359 0.612817 0.790359 0.618578 0.701219 0.612456 0.718731 0.600183 0.844655 0.6058 0.920873 0.61543 0.887812 0.61543 0.887812 0.600183 0.844655 0.612996 0.852443 0.61543 0.887812 0.6058 0.920873 0.663606 0.896163 0.663606 0.896163 0.6058 0.920873 0.625427 0.930623 0.909515 0.759258 0.950811 0.664108 0.950811 0.77458 0.950811 0.664108 0.909515 0.759258 0.85733 0.66847 0.85733 0.66847 0.909515 0.759258 0.843469 0.773253 0.50183 0.46148 0.454844 0.423483 0.462126 0.404085 0.456221 0.389141 0.403244 0.392226 0.387623 0.346307 0.438537 0.324011 0.482036 0.324509 0.456221 0.389141 0.438537 0.324011 0.456221 0.389141 0.387748 0.316532 0.387748 0.316532 0.456221 0.389141 0.387623 0.346307 0.438537 0.324011 0.387748 0.316532 0.39165 0.298743 0.832534 0.832192 0.837527 0.848005 0.774679 0.845355 0.774679 0.845355 0.837527 0.848005 0.849555 0.8743 0.254102 0.464892 0.327916 0.395126 0.188596 0.398263 0.327916 0.395126 0.318802 0.348291 0.188596 0.398263 0.849555 0.8743 0.832534 0.832192 0.858623 0.837087 0.849555 0.8743 0.858623 0.837087 0.861998 0.9041 0.944397 0.830253 0.905509 0.82601 0.897858 0.77458 0.681395 0.844655 0.668234 0.850221 0.600183 0.844655 0.828112 0.224579 0.828112 0.142519 0.838366 0.221544 0.600183 0.844655 0.668234 0.850221 0.612996 0.852443 0.838366 0.221544 0.828112 0.142519 0.837178 0.143142 0.347669 0.850765 0.42471 0.850765 0.414347 0.856615 0.159436 0.826933 0.159436 0.892674 0.166063 0.887724 0.166063 0.887724 0.159436 0.826933 0.169238 0.883029 0.486852 0.855318 0.491553 0.852854 0.491553 0.914609 0.937705 0.489759 0.937705 0.580065 0.908349 0.501708 0.069337 0.570283 0.069337 0.740807 0.038772 0.692955 0.480043 0.701219 0.427375 0.68382 0.504932 0.695295 0.619727 0.681436 0.628532 0.626006 0.641155 0.664548 0.667402 0.690275 0.619727 0.681436 0.641155 0.664548 0.641155 0.664548 0.628532 0.626006 0.646382 0.625801 0.069337 0.740807 0.009575 0.740222 0.018392 0.700823 0.069337 0.740807 0.018392 0.700823 0.038772 0.692955 0.709999 0.676177 0.671824 0.666418 0.697026 0.632394 0.709999 0.676177 0.697026 0.632394 0.709367 0.599516 0.37786 0.630827 0.36013 0.706985 0.38107 0.668915 0.38107 0.668915 0.36013 0.706985 0.382748 0.721577 0.597939 0.956483 0.496324 0.956483 0.566487 0.937493 0.674255 0.076587 0.698368 0.10392 0.674255 0.225445 0.674255 0.225445 0.698368 0.10392 0.700013 0.217914 0.566487 0.937493 0.496324 0.956483 0.50202 0.930265 0.50202 0.930265 0.496324 0.956483 0.511315 0.850195 0.354893 0.813965 0.358021 0.728794 0.358021 0.818677 0.341541 0.838081 0.324262 0.771473 0.336734 0.841362 0.800166 0.171108 0.762885 0.171449 0.807472 0.095505 0.336734 0.841362 0.303015 0.845406 0.324262 0.771473 0.324262 0.771473 0.303015 0.845406 0.292263 0.806325 0.51054 0.651475 0.427375 0.68382 0.43694 0.520052 0.51054 0.651475 0.43694 0.520052 0.573596 0.583771 0.069337 0.570283 0.038772 0.692955 0.024943 0.592731 0.024943 0.592731 0.038772 0.692955 0.018392 0.700823 0.032934 0.570115 0.069337 0.570283 0.024943 0.592731 0.069337 0.570283 0.032934 0.570115 0.036476 0.541962 0.718638 0.407828 0.732361 0.369662 0.743104 0.403714 0.032934 0.570115 0 0.570177 0.036476 0.541962 0.667402 0.690275 0.641155 0.664548 0.671824 0.566094 0.671824 0.566094 0.641155 0.664548 0.646382 0.625801 0.671824 0.666418 0.682503 0.547626 0.692175 0.603579 0.671824 0.666418 0.692175 0.603579 0.697026 0.632394 0.158041 0.839028 0.090837 0.863471 0.083795 0.848649 0.313903 0.917446 0.292263 0.938314 0.292263 0.845406 0.313903 0.917446 0.292263 0.845406 0.319439 0.861636 0.13744 0.818576 0.158041 0.839028 0.083795 0.848649 0.251106 0.830271 0.239658 0.867056 0.171843 0.834713 0.251106 0.830271 0.171843 0.834713 0.179775 0.80739 0.427375 0.852854 0.454294 0.775237 0.474662 0.806684 0.251106 0.830271 0.179775 0.80739 0.233698 0.758886 0.474662 0.806684 0.454294 0.775237 0.496324 0.78228 0.299006 0.730335 0.341541 0.725819 0.309164 0.746747 0.233698 0.758886 0.179775 0.80739 0.187896 0.766668 0.233698 0.758886 0.187896 0.766668 0.171843 0.72481 0.454294 0.775237 0.427375 0.708547 0.462257 0.74688 0.462257 0.74688 0.427375 0.708547 0.480914 0.710928 0.454294 0.775237 0.491127 0.750735 0.462257 0.74688 0.454294 0.775237 0.491127 0.750735 0.496324 0.78228 0.462257 0.74688 0.480914 0.710928 0.491127 0.750735 0.69538 0.899247 0.71834 0.867303 0.75876 0.914216 0.69538 0.899247 0.75876 0.914216 0.705831 0.939221 0.904698 0.609117 0.881899 0.652505 0.904698 0.657113 0.573596 0.583771 0.43694 0.520052 0.609478 0.524896 0.438537 0.324011 0.39165 0.298743 0.405763 0.217731 0.324262 0.771473 0.292263 0.806325 0.309164 0.746747 0.309164 0.746747 0.292263 0.806325 0.299006 0.730335 0.851175 0.657603 0.881899 0.657603 0.870104 0.609117 0.68029 0.98892 0.68029 0.941161 0.673183 0.953791 0.673183 0.953791 0.68029 0.98892 0.644202 0.980064 0.80376 0.977741 0.813965 0.945315 0.835599 0.977723 0.836946 0.488465 0.842076 0.455691 0.853656 0.488465 0.799688 0.775943 0.811743 0.76894 0.843469 0.783169 0.835599 0.977723 0.813965 0.945315 0.835599 0.943601 0.566487 0.937493 0.562782 0.886736 0.597939 0.956483 0.959263 0.062971 0.959263 0 0.98822 0.010188 0.718638 0.407828 0.712334 0.36132 0.732361 0.369662 0.92163 0.452141 0.93089 0.485216 0.93089 0.437885 0.469533 0.98564 0.469533 0.942274 0.427375 0.955218 0.746937 0.171449 0.746937 0.224689 0.735959 0.211282 0.155707 0.904079 0.134757 0.932045 0.134785 0.863471 0.575351 0.616423 0.51054 0.651475 0.573596 0.583771 0.319439 0.862624 0.321857 0.932784 0.34661 0.916061 0.427375 0.68382 0.51054 0.651475 0.596466 0.655143 0.807472 0.007152 0.807472 0.095505 0.735959 0 0.933083 0.904885 0.954477 0.949435 0.933083 0.969369 0.811854 0.832192 0.774961 0.794335 0.843469 0.783169 0.774961 0.794335 0.799688 0.775943 0.843469 0.783169 0.511315 0.850195 0.496324 0.956483 0.505308 0.848381 0.698368 0.10392 0.674255 0.076587 0.699372 0.098751 0.799688 0.775943 0.769606 0.749386 0.811743 0.76894 0.811743 0.76894 0.769606 0.749386 0.7948 0.69949 0.767132 0.766081 0.75876 0.836267 0.767132 0.838335 0.786758 0.407828 0.786758 0.473135 0.791979 0.472859 0.32137 0.635024 0.349279 0.568967 0.326702 0.641848 0.765431 0.755108 0.767132 0.766081 0.75876 0.836267 0.165144 0.823143 0.159436 0.737588 0.159436 0.826933 0.767655 0.409509 0.760869 0.485028 0.760869 0.407828 0.83654 0.464537 0.83654 0.380961 0.830506 0.393494 0.646382 0.625801 0.628532 0.626006 0.647958 0.604145 0.647958 0.604145 0.628532 0.626006 0.625342 0.600859 0.646382 0.625801 0.647958 0.604145 0.671824 0.566094 0.671824 0.566094 0.647958 0.604145 0.645195 0.565565 0.427375 0.68382 0.614227 0.694867 0.504932 0.695295 0.625342 0.600859 0.619727 0.489759 0.645195 0.565565 0.645195 0.565565 0.647958 0.604145 0.625342 0.600859 0.709367 0.599516 0.692175 0.603579 0.682503 0.547626 0.386146 0.644227 0.37786 0.630827 0.423506 0.606629 0.37786 0.630827 0.386146 0.644227 0.38107 0.668915 0.596476 0.818296 0.596589 0.843567 0.613043 0.843567 0.709367 0.599516 0.682503 0.547626 0.709999 0.489759 0.960945 0.58662 0.960945 0.654871 0.938007 0.647773 0.960945 0.58662 0.938007 0.647773 0.933991 0.594807 0.671824 0.566094 0.645195 0.565565 0.669124 0.500018 0.615406 0.815539 0.596476 0.818296 0.613043 0.843567 0.683494 0.304053 0.683494 0.445835 0.674255 0.331428 0.382748 0.721577 0.38107 0.668915 0.423506 0.606629 0.735959 0 0.807472 0.095505 0.762885 0.171449 0.349279 0.568967 0.319502 0.725407 0.326702 0.641848 0.427375 0.500365 0.423506 0.606629 0.37786 0.630827 0.427375 0.500365 0.37786 0.630827 0.402119 0.521579 0.674255 0.331428 0.679263 0.225445 0.683494 0.304053 0.254102 0.464892 0.226745 0.521873 0.182738 0.475077 0.254102 0.464892 0.182738 0.475077 0.188596 0.398263 0.941131 0.065604 0.975127 0.078976 0.941131 0.113612 0.69478 0.849906 0.69478 0.912893 0.681783 0.881158 0.936469 0.226225 0.936469 0.293121 0.969006 0.225445 0.969006 0.225445 0.936469 0.293121 0.947373 0.27548 0.969006 0.225445 0.947373 0.27548 0.962792 0.271021 0.769606 0.971089 0.803759 0.978503 0.803759 0.943601 0.763063 0.221922 0.794013 0.184807 0.763063 0.171449 0.505776 0.37911 0.476495 0.420236 0.456221 0.389141 0.505776 0.37911 0.456221 0.389141 0.480757 0.360914 0.456221 0.389141 0.476495 0.420236 0.454844 0.423483 0.333312 0.963602 0.335886 0.994514 0.305023 1 0.456221 0.389141 0.454844 0.423483 0.433919 0.45283 0.462126 0.404085 0.456221 0.389141 0.482036 0.324509 0.292263 0.980551 0.303767 0.958412 0.305023 1 0.303767 0.958412 0.335886 0.938314 0.333312 0.963602 0.303767 0.958412 0.333312 0.963602 0.305023 1 0.723524 0.999159 0.741424 0.986716 0.740122 0.939221 0.292263 0.980551 0.302333 0.944545 0.303767 0.958412 0.740122 0.939221 0.723524 0.999159 0.696254 0.939221 0.696254 0.939221 0.723524 0.999159 0.69538 0.986301 0.903244 0.482781 0.888372 0.459269 0.903244 0.455691 0.907978 0.437885 0.92163 0.459871 0.907978 0.485634 0.053837 0.740807 0.062497 0.762278 0.053837 0.772045 0.053837 0.772045 0.062497 0.762278 0.05765 0.824465 0.482036 0.324509 0.532324 0.282689 0.502614 0.33444 0.188596 0.398263 0.126508 0.415126 0.165808 0.469818 0.165808 0.469818 0.188596 0.398263 0.182738 0.475077 0.04819 0.976674 0.041164 0.934498 0.065823 0.977433 0.065823 0.977433 0.041164 0.934498 0.067463 0.934498 0.986695 0.160017 0.963496 0.174017 0.963496 0.114364 0.000328 0.931811 0.041164 0.866574 0.041164 0.946201 0.732361 0.369662 0.793135 0.344805 0.770075 0.403873 0.793135 0.344805 0.732361 0.369662 0.712334 0.36132 0.531437 0.249035 0.569016 0.306243 0.532324 0.282689 0.531437 0.249035 0.532324 0.282689 0.482036 0.324509 0.546165 0.336147 0.569016 0.306243 0.590014 0.344538 0.978948 0.958541 0.954477 0.968612 0.954477 0.904885 0.839393 0.343979 0.907978 0.340765 0.907978 0.455691 0.289283 0.917278 0.279315 0.912343 0.289283 0.855165 0.50183 0.46148 0.540553 0.410202 0.462126 0.404085 0.462126 0.404085 0.540553 0.410202 0.482036 0.324509 0.836946 0.340765 0.916091 0.318581 0.902244 0.277968 0.902244 0.277968 0.836946 0.340765 0.893637 0.249211 0.839393 0.343979 0.907978 0.455691 0.836946 0.385695 0.836946 0.385695 0.907978 0.455691 0.841423 0.44531 0.776937 0.478191 0.776937 0.407828 0.786758 0.421352 0.482036 0.324509 0.540553 0.410202 0.502614 0.33444 0.546165 0.336147 0.590014 0.344538 0.540553 0.410202 0.502614 0.33444 0.540553 0.410202 0.546165 0.336147 0.569016 0.306243 0.546165 0.336147 0.540965 0.291913 0.540965 0.291913 0.546165 0.336147 0.502614 0.33444 0.643463 0.958184 0.644202 0.999845 0.641827 0.941161 0.641827 0.941161 0.644202 0.999845 0.600183 0.999845 0.88799 0.094915 0.88799 0.043402 0.941131 0.11112 0.941131 0.11112 0.88799 0.043402 0.931579 0.061318 0.931579 0.061318 0.88799 0.043402 0.933495 0.025689 0.354893 0.63824 0.359446 0.679403 0.354893 0.728794 0.917004 0.209488 0.917004 0.114364 0.873811 0.175272 0.873811 0.175272 0.917004 0.114364 0.872313 0.139499 0.917004 0.209488 0.863677 0.225004 0.873811 0.175272 0.933495 0.025689 0.88799 0.043402 0.889103 0 0.836946 0.225445 0.893637 0.249211 0.836946 0.340765 0.188596 0.398263 0.126508 0.415126 0.055271 0.374939 0.590014 0.344538 0.656521 0.296876 0.642678 0.264706 0.642678 0.264706 0.590014 0.344538 0.569016 0.306243 0.642678 0.264706 0.569016 0.306243 0.531437 0.249035 0.642678 0.264706 0.531437 0.249035 0.674255 0.25182 0.055271 0.374939 0.065567 0.341424 0.143587 0.299957 0.041164 0.866574 0.000328 0.931811 0 0.881792 0.863361 0.455691 0.853656 0.464861 0.863361 0.488075 0.936906 0.21772 0.948091 0.22338 0.948091 0.198078 0.95752 0.361892 0.990496 0.340764 0.990496 0.403923 0 0.881792 0.014403 0.860314 0.041164 0.866574 0.954717 0.348841 0.990496 0.340764 0.95752 0.361892 0.68889 0.407828 0.703052 0.407828 0.683494 0.48737 0.704578 0.489264 0.683494 0.48737 0.703052 0.407828 0.354492 0.807795 0.341541 0.828617 0.341541 0.725819 0.36013 0.814151 0.36013 0.779372 0.424687 0.779286 0.424687 0.779286 0.36013 0.779372 0.360512 0.721577 0.424687 0.779286 0.42471 0.815 0.36013 0.814151 0.36013 0.814151 0.42471 0.815 0.423964 0.850765 0.36013 0.814151 0.36248 0.845293 0.423964 0.850765 0.055271 0.374939 0.120259 0.259188 0.188596 0.398263 0.120259 0.259188 0.055271 0.374939 0.032792 0.332034 0.795753 0.640019 0.812914 0.640019 0.808499 0.663194 0.044312 0.38518 0 0.342192 0.055271 0.374939 0.055271 0.374939 0 0.342192 0.032792 0.332034 0.032792 0.332034 0 0.342192 0.100571 0.260102 0.88799 0.011475 0.868161 0.114364 0.863676 0.07703 0.88799 0.011475 0.863676 0.07703 0.864982 0.044691 0.143587 0.299957 0.065567 0.341424 0.100571 0.260102 0.758678 0.407828 0.760869 0.485159 0.730352 0.485159 0.359446 0.731066 0.359446 0.63824 0.36013 0.695702 0.111745 0.756985 0.069337 0.778836 0.082709 0.737588 0.069337 0.778836 0.13744 0.818576 0.083795 0.848649 0.718492 0.814516 0.709999 0.827776 0.709999 0.672995 0.125524 0.763289 0.069337 0.778836 0.111745 0.756985 0.069337 0.778836 0.125524 0.763289 0.13744 0.818576 0.836947 0.303421 0.814711 0.298927 0.821414 0.284434 0.125524 0.763289 0.111745 0.756985 0.159435 0.748357 0.159435 0.748357 0.111745 0.756985 0.13808 0.737588 0.821414 0.284434 0.814711 0.298927 0.793135 0.285356 0.936906 0.198078 0.936906 0.2234 0.925478 0.19887 0.954717 0.340765 0.954717 0.408365 0.936831 0.395896 0.836172 0.380961 0.814711 0.298927 0.836947 0.303421 0.232159 0.655378 0.292263 0.72481 0.222635 0.720542 0.292263 0.72481 0.232159 0.655378 0.230756 0.611425 0.927748 0.437885 0.907978 0.425932 0.909668 0.377801 0.927748 0.437885 0.909668 0.377801 0.936831 0.357586 0.704578 0.46259 0.730352 0.48718 0.730352 0.407828 0.069337 0.740807 0.069337 0.827196 0.062497 0.747247 0.807472 0.142519 0.807472 0.224759 0.828112 0.209514 0.794013 0.171449 0.806309 0.187139 0.794013 0.222821 0.722015 0.662334 0.733974 0.742201 0.718492 0.814516 0.722015 0.662334 0.718492 0.814516 0.709999 0.672995 0.733974 0.742201 0.722015 0.662334 0.75876 0.711353 0.680851 0.445835 0.683127 0.456293 0.680851 0.462522 0.573596 0.583771 0.582445 0.600629 0.575351 0.616423 0.333869 0.850681 0.319439 0.862624 0.34661 0.845406 0.188596 0.398263 0.318802 0.348291 0.296064 0.269278 0.405763 0.217731 0.370385 0.142778 0.440001 0.139657 0.438537 0.324011 0.405763 0.217731 0.440001 0.139657 0.43694 0.520052 0.614806 0.489759 0.609478 0.524896 0.609478 0.524896 0.58019 0.582299 0.573596 0.583771 0.58019 0.582299 0.609478 0.524896 0.59943 0.576909 0.59943 0.576909 0.609478 0.524896 0.619727 0.651597 0.6935 0.798753 0.701895 0.676177 0.709999 0.744183 0.427375 0.708547 0.430768 0.701219 0.480914 0.710928 0.573596 0.583771 0.58019 0.582299 0.565024 0.597872 0.769174 0.85297 0.758761 0.900946 0.758761 0.838335 0.34661 0.845406 0.34661 0.916061 0.319439 0.862624 0.7948 0.69949 0.802447 0.664108 0.843469 0.667893 0.7948 0.69949 0.802447 0.664108 0.781365 0.683822 0.680851 0.469774 0.674255 0.445835 0.674255 0.488267 0.752454 0.171449 0.752454 0.224605 0.746937 0.207892 0.754331 0.939221 0.754331 0.973628 0.741424 0.955397 0.352409 0.63824 0.352409 0.663075 0.35047 0.654285 0.695974 0.803695 0.709999 0.809049 0.695974 0.819847 0.596466 0.655143 0.614227 0.694867 0.427375 0.68382 0.596466 0.655143 0.59943 0.576909 0.619727 0.651597 0.596466 0.655143 0.619727 0.651597 0.614227 0.694867 0.908349 0.609117 0.840682 0.582965 0.908349 0.530602 0.709999 0.803695 0.6935 0.798753 0.709999 0.744183 0.860733 0.211571 0.848351 0.18702 0.860733 0.143385 0.737518 0.662334 0.726507 0.603774 0.769606 0.567878 0.36013 0.489759 0.427375 0.500365 0.402119 0.521579 0.674255 0.076587 0.69201 0 0.699372 0.098751 0.32137 0.635024 0.319502 0.541961 0.349279 0.568967 0.232107 0.878744 0.171843 0.867056 0.246848 0.867056 0.838366 0.142519 0.860733 0.143385 0.848351 0.18702 0.759916 0.648621 0.737518 0.662334 0.769606 0.567878 0.959263 0.050126 0.941131 0 0.941131 0.065604 0.959585 0.408365 0.959585 0.475615 0.936831 0.4144 0.888372 0.468837 0.863361 0.455691 0.863361 0.484892 0.619727 0.489759 0.669124 0.500018 0.645195 0.565565 0.950812 0.664108 0.974755 0.691597 0.950812 0.728076 0.950812 0.792253 0.950812 0.728076 0.966408 0.769362 0.811743 0.76894 0.7948 0.69949 0.843469 0.667893 0.596476 0.815539 0.596476 0.701219 0.608307 0.728215 0.608307 0.728215 0.596476 0.815539 0.612456 0.730894 0.769606 0.567878 0.726507 0.603774 0.741067 0.496986 0.741067 0.496986 0.726507 0.603774 0.709999 0.537241 0.232107 0.878744 0.246848 0.867056 0.236415 0.897369 0.232107 0.878744 0.236415 0.897369 0.212612 0.94978 0.732862 0.179793 0.72766 0.211491 0.732862 0.216016 0.830659 0.516059 0.908349 0.530602 0.840682 0.582965 0.908349 0.530602 0.830659 0.516059 0.883851 0.490277 0.883851 0.490277 0.830659 0.516059 0.8496 0.489759 0.905243 0.943497 0.905243 0.974106 0.874885 0.945973 0.874885 0.945973 0.905243 0.974106 0.871188 0.981744 0.72766 0.222165 0.711735 0.187289 0.72766 0.179793 0.681782 0.945745 0.692811 0.912893 0.692811 0.969563 0.71834 0.867303 0.75876 0.827776 0.75876 0.914216 0.165988 0.737588 0.165988 0.823845 0.171843 0.811544 0.041164 0.860314 0.041164 0.934498 0.066895 0.872727 0.352653 0.706253 0.354893 0.63824 0.354893 0.712933 0.427375 0.942274 0.431475 0.909857 0.464157 0.914736 0.812502 0.242081 0.810902 0.291284 0.821414 0.284434 0.821414 0.284434 0.812502 0.242081 0.828335 0.256171 0.836947 0.303421 0.821414 0.284434 0.828335 0.256171 0.464157 0.914736 0.431475 0.909857 0.463076 0.852854 0.828335 0.256171 0.812502 0.242081 0.836947 0.225445 0.959584 0.408365 0.984778 0.454619 0.987117 0.41804 0.486852 0.942274 0.464157 0.914736 0.463076 0.852854 0.230756 0.611425 0.292263 0.58713 0.292263 0.72481 0.292263 0.58713 0.230756 0.611425 0.24392 0.589103 0.29188 0.571919 0.292263 0.58713 0.24392 0.589103 0.959584 0.408365 0.984778 0.454619 0.959584 0.468831 0.24392 0.589103 0.181524 0.57519 0.29188 0.571919 0.29188 0.571919 0.181524 0.57519 0.193366 0.541962 0.193366 0.541962 0.181524 0.57519 0.171843 0.576116 0.793135 0.484375 0.793135 0.380961 0.830506 0.396636 0.909668 0.377801 0.907978 0.340764 0.936831 0.357586 0.962418 0.598247 0.988961 0.635803 0.960945 0.646332 0.933083 0.938763 0.875546 0.943497 0.871188 0.918776 0.988961 0.635803 0.962418 0.598247 0.988961 0.58662 0.678587 0.844655 0.619727 0.839791 0.619727 0.693255 0.966991 0.803827 0.950811 0.831107 0.950811 0.792253 0.619727 0.510739 0.617694 0.549579 0.609478 0.524896 0.134757 0.926803 0.119441 0.947259 0.078994 0.937269 0.936469 0.332332 0.964458 0.337471 0.951035 0.298513 0.619727 0.510739 0.614806 0.489759 0.609478 0.524896 0.440001 0.139657 0.399593 0.06704 0.466369 0.065135 0.323184 0.190983 0.296064 0.269278 0.286007 0.118848 0.933083 0.874714 0.881555 0.832192 0.871188 0.918776 0.871188 0.918776 0.933083 0.874714 0.933083 0.938763 0 0.740807 0.03071 0.757279 0.050355 0.822274 0 0.740807 0.050355 0.822274 0.020525 0.83317 0.681395 0.816438 0.678587 0.844655 0.619727 0.693255 0.681395 0.816438 0.619727 0.693255 0.674025 0.690275 0.370385 0.142778 0.399593 0.06704 0.440001 0.139657 0.078994 0.937269 0.134757 0.926803 0.134757 0.876808 0.078994 0.937269 0.134757 0.876808 0.072671 0.924451 0.072671 0.924451 0.134757 0.876808 0.100512 0.863471 0.100512 0.863471 0.072671 0.924451 0.069337 0.885715 0.963496 0.114364 0.93068 0.116656 0.946361 0.198078 0.946361 0.198078 0.963496 0.114364 0.963496 0.186728 0.936469 0.293121 0.951035 0.298513 0.936469 0.332332 0.050355 0.822274 0 0.860314 0.020525 0.83317 0.258794 0.808242 0.251106 0.83308 0.28991 0.855165 0.36013 0.106507 0.322284 0.130194 0.286007 0.118848 0.249135 0.055412 0.286007 0.118848 0.170689 0.125344 0.286007 0.118848 0.170689 0.125344 0.296064 0.269278 0.296064 0.269278 0.170689 0.125344 0.188596 0.398263 0.320997 0.075365 0.286007 0.118848 0.249135 0.055412 0.429432 0 0.36013 0.027574 0.364742 0.082267 0.429432 0 0.364742 0.082267 0.42536 0.029737 0.364742 0.082267 0.399593 0.06704 0.42536 0.029737 0.800285 0.530917 0.795753 0.575408 0.799554 0.640019 0.799554 0.640019 0.800285 0.530917 0.830659 0.489759 0.799554 0.640019 0.830659 0.489759 0.830659 0.636399 0.334778 0.004041 0.35141 0.082014 0.320997 0.075365 0.925478 0.198078 0.925478 0.224552 0.917004 0.20354 0.151644 0.969068 0.151644 0.932045 0.134757 0.966231 0.050552 0.859658 0.050552 0.827196 0.069337 0.857877 0.258794 0.808242 0.272156 0.729583 0.28991 0.72481 0.258794 0.808242 0.28991 0.72481 0.28991 0.855165 0.334778 0.004041 0.316836 0 0.320997 0.075365 0.350428 0.616147 0.349279 0.541961 0.349279 0.670494 0.36013 0.106507 0.320997 0.075365 0.35141 0.082014 0.320997 0.075365 0.36013 0.106507 0.286007 0.118848 0.908349 0.622811 0.933991 0.617706 0.91987 0.58662 0.897858 0.77458 0.897858 0.830652 0.843469 0.775158 0.897858 0.830652 0.843469 0.775158 0.862051 0.828369 0.913068 0.648694 0.908349 0.622811 0.933991 0.617706 0.913068 0.648694 0.933991 0.617706 0.933991 0.662143 0.466369 0.065135 0.42536 0.029737 0.514941 0.061102 0.514941 0.061102 0.42536 0.029737 0.429432 0 0.793135 0.234915 0.793135 0.344805 0.712334 0.36132 0.807472 0.048358 0.863676 0.142519 0.863676 0 0.531437 0.249035 0.440001 0.139657 0.607863 0.179592 0.7183 0.225445 0.793135 0.234915 0.709219 0.259424 0.709219 0.259424 0.793135 0.234915 0.712334 0.36132 0.709219 0.259424 0.712334 0.36132 0.683494 0.3111 0.188596 0.398263 0.120259 0.259188 0.170689 0.125344 0.700804 0.14595 0.700013 0 0.735959 0.142892 0.700804 0.14595 0.735959 0.142892 0.700013 0.179793 0.319502 0.676668 0.306374 0.679732 0.292263 0.541962 0.782052 0.594346 0.772597 0.657922 0.769606 0.664108 0.782052 0.594346 0.769606 0.664108 0.769606 0.50342 0.521535 0.848381 0.596476 0.701219 0.540401 0.827514 0.916091 0.265475 0.936469 0.225445 0.936469 0.283542 0.150983 0.634763 0.119649 0.675774 0.095335 0.615421 0.143619 0.688517 0.119649 0.675774 0.150983 0.634763 0.143619 0.688517 0.150983 0.634763 0.167602 0.621125 0.167602 0.621125 0.150983 0.634763 0.095335 0.615421 0.167602 0.621125 0.095335 0.615421 0.158046 0.583777 0.083926 0.553042 0.095335 0.615421 0.078914 0.630419 0.078914 0.630419 0.095335 0.615421 0.09649 0.665207 0.150127 0.70662 0.143619 0.688517 0.167602 0.621125 0.936469 0.283542 0.930828 0.316721 0.916091 0.265475 0.09649 0.665207 0.143619 0.688517 0.083544 0.689905 0.09649 0.665207 0.083544 0.689905 0.078914 0.630419 0.083544 0.689905 0.096301 0.6964 0.121846 0.737588 0.292263 0.725819 0.306374 0.679732 0.319502 0.676668 0.083544 0.689905 0.150127 0.70662 0.096301 0.6964 0.150127 0.70662 0.083544 0.689905 0.143619 0.688517 0.937705 0.55634 0.939224 0.497299 0.967394 0.553027 0.531437 0.249035 0.607863 0.179592 0.674255 0.25182 0.032792 0.332034 0.091034 0.253085 0.120259 0.259188 0.607863 0.179592 0.643213 0.144647 0.628157 0.155953 0.120259 0.259188 0.091034 0.253085 0.052134 0.222156 0.141657 0.147035 0.170689 0.125344 0.120259 0.259188 0.141657 0.147035 0.120259 0.259188 0.052134 0.222156 0.167602 0.621125 0.158046 0.583777 0.171843 0.541961 0.782052 0.577352 0.784076 0.499914 0.795753 0.660288 0.596476 0.701219 0.521535 0.848381 0.496324 0.701219 0.795753 0.505055 0.795753 0.660288 0.784076 0.499914 0.557451 0.08503 0.628157 0.155953 0.546135 0.079559 0.628157 0.155953 0.546135 0.079559 0.607863 0.179592 0.795753 0.505055 0.790118 0.489759 0.784076 0.499914 0.769506 0.755108 0.758761 0.749841 0.769506 0.662334 0.864982 0.044691 0.863676 0 0.88799 0.011475 0.939224 0.497299 0.967394 0.489759 0.967394 0.553027 0.360512 0.721577 0.422692 0.73067 0.424687 0.779286 0.083926 0.553042 0.158046 0.583777 0.095335 0.615421 0.171843 0.541961 0.158046 0.583777 0.083926 0.553042 0.065567 0.341424 0.032792 0.332034 0.100571 0.260102 0.840235 0.00638 0.863676 0 0.807472 0.048358 0.741067 0.496986 0.769606 0.489759 0.769606 0.567878 0.917004 0.15184 0.927409 0.18261 0.946361 0.198078 0.946361 0.198078 0.917004 0.15184 0.93068 0.116656 0.440001 0.139657 0.466369 0.065135 0.506059 0.098014 0.466369 0.065135 0.514941 0.061102 0.506059 0.098014 0.830659 0.609117 0.830659 0.663227 0.851175 0.66076 0.440001 0.139657 0.506059 0.098014 0.607863 0.179592 0.607863 0.179592 0.506059 0.098014 0.514941 0.061102 0.607863 0.179592 0.514941 0.061102 0.546135 0.079559 0.565903 0.070065 0.546135 0.079559 0.557451 0.08503 0.769606 0.50342 0.779177 0.489759 0.782052 0.594346 0.069337 0.541961 0.171843 0.541961 0.083926 0.553042 0.069337 0.541961 0.083926 0.553042 0.078914 0.630419 0.141657 0.147035 0.120961 0.139608 0.052134 0.222156 0.423506 0.606629 0.386146 0.644227 0.368097 0.637905 0.251106 0.855165 0.251106 0.930901 0.279315 0.912358 0.752454 0.21422 0.763063 0.223729 0.763063 0.171449 0.681783 0.849906 0.69279 0.796536 0.689065 0.840923</float_array>
          <technique_common>
            <accessor source="#Waste1-mesh-map-0-array" count="1521" stride="2">
              <param name="S" type="float"/>
              <param name="T" type="float"/>
            </accessor>
          </technique_common>
        </source>
        <vertices id="Waste1-mesh-vertices">
          <input semantic="POSITION" source="#Waste1-mesh-positions"/>
        </vertices>
        <polylist material="Material_-1-material" count="6">
          <input semantic="VERTEX" source="#Waste1-mesh-vertices" offset="0"/>
          <input semantic="NORMAL" source="#Waste1-mesh-normals" offset="1"/>
          <input semantic="TEXCOORD" source="#Waste1-mesh-map-0" offset="2" set="0"/>
          <vcount>3 3 3 3 3 3 3 3 3 3 3 3 3 3 3 3 3 3 3 3 3 3 3 3 3 3 3 3 3 3 3 3 3 3 3 3 3 3 3 3 3 3 3 3 3 3 3 3 3 3 3 3 3 3 3 3 3 3 3 3 3 3 3 3 3 3 3 3 3 3 3 3 3 3 3 3 3 3 3 3 3 3 3 3 3 3 3 3 3 3 3 3 3 3 3 3 3 3 3 3 3 3 3 3 3 3 3 3 3 3 3 3 3 3 3 3 3 3 3 3 3 3 3 3 3 3 3 3 3 3 3 3 3 3 3 3 3 3 3 3 3 3 3 3 3 3 3 3 3 3 3 3 3 3 3 3 3 3 3 3 3 3 3 3 3 3 3 3 3 3 3 3 3 3 3 3 3 3 3 3 3 3 3 3 3 3 3 3 3 3 3 3 3 3 3 3 3 3 3 3 3 3 3 3 3 3 3 3 3 3 3 3 3 3 3 3 3 3 3 3 3 3 3 3 3 3 3 3 3 3 3 3 3 3 3 3 3 3 3 3 3 3 3 3 3 3 3 3 3 3 3 3 3 3 3 3 3 3 3 3 3 3 3 3 3 3 3 3 3 3 3 3 3 3 3 3 3 3 3 3 3 3 3 3 3 3 3 3 3 3 3 3 3 3 3 3 3 3 3 3 3 3 3 3 3 3 3 3 3 3 3 3 3 3 3 3 3 3 3 3 3 3 3 3 3 3 3 3 3 3 3 3 3 3 3 3 3 3 3 3 3 3 3 3 3 3 3 3 3 3 3 3 3 3 3 3 3 3 3 3 3 3 3 3 3 3 3 3 3 3 3 3 3 3 3 3 3 3 3 3 3 3 3 3 3 3 3 3 3 3 3 3 3 3 3 3 3 3 3 3 3 3 3 3 3 3 3 3 3 3 3 3 3 3 3 3 3 3 3 3 3 3 3 3 3 3 3 3 3 3 3 3 3 3 3 3 3 3 3 3 3 3 3 3 3 3 3 3 3 3 3 3 3 3 3 3 3 3 3 3 3 3 3 3 3 3 3 3 3 3 3 3 3 3 3 3 3 3 3 3 3 3 3 3 3 3 3 3 3 3 3 3 3 3 3 3 3 3 3 3 3 3 3 3 3 3 3</vcount>
          <p>1 0 0 0 0 1 2 0 2 1 1 3 0 1 4 3 1 5 3 2 6 0 2 7 4 2 8 4 3 9 3 3 10 5 3 11 7 4 12 6 4 13 8 4 14 8 5 15 7 5 16 9 5 17 6 6 18 8 6 19 10 6 20 6 7 21 10 7 22 2 7 23 10 8 24 8 8 25 11 8 26 10 9 27 7 9 28 12 9 29 7 10 30 9 10 31 11 10 32 10 11 33 7 11 34 13 11 35 13 12 36 7 12 37 6 12 38 13 13 39 6 13 40 2 13 41 13 14 42 2 14 43 14 14 44 1 15 45 15 15 46 2 15 47 2 16 48 15 16 49 14 16 50 15 17 51 16 17 52 14 17 53 14 18 54 16 18 55 17 18 56 14 19 57 17 19 58 18 19 59 14 20 60 18 20 61 19 20 62 19 21 63 13 21 64 14 21 65 20 22 66 13 22 67 21 22 68 21 23 69 13 23 70 22 23 71 21 24 72 22 24 73 23 24 74 21 25 75 24 25 76 15 25 77 21 26 78 15 26 79 17 26 80 16 27 81 17 27 82 2 27 83 21 28 84 17 28 85 20 28 86 20 29 87 17 29 88 2 29 89 4 30 90 0 30 91 2 30 92 4 31 93 2 31 94 16 31 95 4 32 96 16 32 97 25 32 98 25 33 99 16 33 100 26 33 101 25 34 102 3 34 103 5 34 104 5 35 105 25 35 106 27 35 107 5 36 108 27 36 109 4 36 110 1 37 111 3 37 112 28 37 113 28 38 114 3 38 115 29 38 116 29 39 117 3 39 118 25 39 119 4 40 120 25 40 121 30 40 122 30 41 123 25 41 124 27 41 125 31 42 126 2 42 127 10 42 128 2 43 129 31 43 130 32 43 131 32 44 132 31 44 133 33 44 134 32 45 135 2 45 136 34 45 137 34 46 138 2 46 139 20 46 140 34 47 141 20 47 142 31 47 143 31 48 144 34 48 145 33 48 146 31 49 147 20 49 148 10 49 149 10 50 150 20 50 151 13 50 152 19 51 153 22 51 154 13 51 155 22 52 156 19 52 157 23 52 158 23 53 159 19 53 160 18 53 161 28 54 162 29 54 163 35 54 164 26 55 165 16 55 166 15 55 167 36 56 168 37 56 169 26 56 170 36 57 171 26 57 172 38 57 173 38 58 174 26 58 175 15 58 176 36 59 177 38 59 178 39 59 179 39 60 180 38 60 181 24 60 182 24 61 183 38 61 184 15 61 185 1 62 186 15 62 187 40 62 188 15 63 189 39 63 190 40 63 191 15 64 192 39 64 193 18 64 194 15 65 195 18 65 196 17 65 197 30 66 198 27 66 199 4 66 200 9 67 201 12 67 202 34 67 203 9 68 204 34 68 205 8 68 206 34 69 207 12 69 208 33 69 209 8 70 210 34 70 211 32 70 212 8 71 213 32 71 214 33 71 215 33 72 216 8 72 217 11 72 218 11 73 219 33 73 220 12 73 221 11 74 222 12 74 223 7 74 224 24 75 225 21 75 226 23 75 227 36 76 228 41 76 229 42 76 230 43 77 231 41 77 232 44 77 233 41 78 234 43 78 235 45 78 236 46 79 237 41 79 238 45 79 239 45 80 240 43 80 241 47 80 242 41 81 243 46 81 244 48 81 245 41 82 246 48 82 247 42 82 248 48 83 249 46 83 250 49 83 251 48 84 252 49 84 253 50 84 254 50 85 255 48 85 256 51 85 257 51 86 258 48 86 259 52 86 260 53 87 261 48 87 262 54 87 263 55 88 264 56 88 265 52 88 266 52 89 267 56 89 268 48 89 269 54 90 270 48 90 271 57 90 272 57 91 273 48 91 274 58 91 275 57 92 276 58 92 277 59 92 278 57 93 279 54 93 280 59 93 281 60 94 282 59 94 283 61 94 284 59 95 285 60 95 286 54 95 287 54 96 288 60 96 289 62 96 290 61 97 291 41 97 292 36 97 293 61 98 294 36 98 295 63 98 296 36 99 297 42 99 298 53 99 299 53 100 300 42 100 301 48 100 302 64 101 303 36 101 304 53 101 305 36 102 306 64 102 307 37 102 308 53 103 309 65 103 310 64 103 311 64 104 312 65 104 313 37 104 314 46 105 315 45 105 316 66 105 317 66 106 318 45 106 319 47 106 320 46 107 321 66 107 322 67 107 323 46 108 324 67 108 325 49 108 326 68 109 327 69 109 328 70 109 329 24 110 330 23 110 331 18 110 332 24 111 333 18 111 334 39 111 335 71 112 336 68 112 337 70 112 338 62 113 339 60 113 340 61 113 341 62 114 342 61 114 343 72 114 344 62 115 345 73 115 346 74 115 347 62 116 348 72 116 349 73 116 350 74 117 351 73 117 352 75 117 353 74 118 354 75 118 355 76 118 356 73 119 357 72 119 358 77 119 359 73 120 360 77 120 361 78 120 362 73 121 363 78 121 364 79 121 365 79 122 366 78 122 367 80 122 368 73 123 369 81 123 370 79 123 371 73 124 372 81 124 373 75 124 374 79 125 375 80 125 376 81 125 377 81 126 378 80 126 379 82 126 380 81 127 381 82 127 382 75 127 383 82 128 384 75 128 385 83 128 386 63 129 387 36 129 388 84 129 389 36 130 390 39 130 391 85 130 392 54 131 393 62 131 394 76 131 395 76 132 396 62 132 397 74 132 398 87 133 399 86 133 400 76 133 401 76 134 402 86 134 403 88 134 404 88 135 405 76 135 406 75 135 407 88 136 408 75 136 409 89 136 410 88 137 411 89 137 412 90 137 413 86 138 414 90 138 415 89 138 416 89 139 417 75 139 418 83 139 419 54 140 420 89 140 421 53 140 422 53 141 423 89 141 424 83 141 425 53 142 426 83 142 427 65 142 428 86 143 429 72 143 430 88 143 431 88 144 432 72 144 433 77 144 434 77 145 435 88 145 436 90 145 437 77 146 438 90 146 439 78 146 440 91 147 441 61 147 442 63 147 443 91 148 444 61 148 445 72 148 446 41 149 447 61 149 448 92 149 449 92 150 450 61 150 451 93 150 452 87 151 453 54 151 454 76 151 455 54 152 456 87 152 457 89 152 458 87 153 459 86 153 460 89 153 461 58 154 462 48 154 463 56 154 464 56 155 465 55 155 466 94 155 467 86 156 468 72 156 469 90 156 470 90 157 471 72 157 472 95 157 473 82 158 474 58 158 475 94 158 476 82 159 477 94 159 478 56 159 479 94 160 480 93 160 481 58 160 482 96 161 483 82 161 484 58 161 485 58 162 486 96 162 487 56 162 488 96 163 489 56 163 490 97 163 491 56 164 492 97 164 493 82 164 494 47 165 495 43 165 496 98 165 497 98 166 498 43 166 499 44 166 500 47 167 501 98 167 502 66 167 503 66 168 504 98 168 505 99 168 506 41 169 507 100 169 508 44 169 509 44 170 510 100 170 511 99 170 512 99 171 513 98 171 514 44 171 515 50 172 516 67 172 517 66 172 518 101 173 519 50 173 520 102 173 521 50 174 522 101 174 523 51 174 524 101 175 525 51 175 526 49 175 527 50 176 528 66 176 529 103 176 530 103 177 531 66 177 532 104 177 533 103 178 534 104 178 535 105 178 536 66 179 537 99 179 538 106 179 539 67 180 540 101 180 541 49 180 542 55 181 543 52 181 544 102 181 545 52 182 546 51 182 547 102 182 548 93 183 549 61 183 550 59 183 551 93 184 552 59 184 553 58 184 554 107 185 555 102 185 556 50 185 557 107 186 558 50 186 559 103 186 560 102 187 561 107 187 562 55 187 563 1 188 564 28 188 565 108 188 566 1 189 567 108 189 568 40 189 569 109 190 570 110 190 571 111 190 572 110 191 573 29 191 574 111 191 575 110 192 576 29 192 577 112 192 578 112 193 579 29 193 580 35 193 581 112 194 582 35 194 583 26 194 584 113 195 585 110 195 586 112 195 587 111 196 588 109 196 589 114 196 590 114 197 591 111 197 592 26 197 593 114 198 594 26 198 595 115 198 596 26 199 597 111 199 598 29 199 599 115 200 600 26 200 601 116 200 602 26 201 603 29 201 604 25 201 605 35 202 606 26 202 607 37 202 608 117 203 609 109 203 610 116 203 611 109 204 612 114 204 613 115 204 614 109 205 615 115 205 616 116 205 617 116 206 618 117 206 619 113 206 620 117 207 621 113 207 622 109 207 623 113 208 624 116 208 625 112 208 626 112 209 627 116 209 628 26 209 629 118 210 630 109 210 631 113 210 632 119 211 633 109 211 634 118 211 635 109 212 636 119 212 637 110 212 638 110 213 639 119 213 640 108 213 641 37 214 642 120 214 643 121 214 644 40 215 645 122 215 646 123 215 647 123 216 648 40 216 649 108 216 650 124 217 651 121 217 652 125 217 653 125 218 654 121 218 655 126 218 656 126 219 657 121 219 658 120 219 659 126 220 660 127 220 661 125 220 662 65 221 663 128 221 664 37 221 665 128 222 666 65 222 667 83 222 668 128 223 669 129 223 670 120 223 671 128 224 672 120 224 673 37 224 674 130 225 675 129 225 676 122 225 677 118 226 678 113 226 679 131 226 680 118 227 681 131 227 682 122 227 683 82 228 684 96 228 685 132 228 686 28 229 687 108 229 688 35 229 689 35 230 690 108 230 691 37 230 692 122 231 693 108 231 694 110 231 695 110 232 696 122 232 697 113 232 698 118 233 699 122 233 700 119 233 701 119 234 702 122 234 703 123 234 704 119 235 705 123 235 706 108 235 707 37 236 708 108 236 709 121 236 710 130 237 711 122 237 712 108 237 713 121 238 714 108 238 715 130 238 716 129 239 717 130 239 718 133 239 719 133 240 720 130 240 721 121 240 722 133 241 723 121 241 724 134 241 725 134 242 726 121 242 727 124 242 728 135 243 729 136 243 730 137 243 731 137 244 732 136 244 733 138 244 734 138 245 735 136 245 736 139 245 737 140 246 738 136 246 739 135 246 740 135 247 741 140 247 742 138 247 743 138 248 744 140 248 745 139 248 746 135 249 747 137 249 748 138 249 749 139 250 750 136 250 751 140 250 752 131 251 753 113 251 754 122 251 755 40 252 756 122 252 757 141 252 758 122 253 759 141 253 760 142 253 761 142 254 762 122 254 763 129 254 764 142 255 765 129 255 766 128 255 767 142 256 768 128 256 769 143 256 770 141 257 771 142 257 772 144 257 773 127 258 774 126 258 775 120 258 776 120 259 777 133 259 778 129 259 779 133 260 780 120 260 781 134 260 782 145 261 783 134 261 784 124 261 785 120 262 786 134 262 787 127 262 788 127 263 789 134 263 790 145 263 791 127 264 792 145 264 793 125 264 794 124 265 795 125 265 796 145 265 797 146 266 798 141 266 799 144 266 800 146 267 801 147 267 802 148 267 803 148 268 804 147 268 805 149 268 806 148 269 807 150 269 808 146 269 809 146 270 810 150 270 811 151 270 812 146 271 813 152 271 814 151 271 815 141 272 816 153 272 817 40 272 818 153 273 819 141 273 820 143 273 821 152 274 822 141 274 823 146 274 824 152 275 825 151 275 826 141 275 827 141 276 828 151 276 829 143 276 830 143 277 831 151 277 832 154 277 833 154 278 834 151 278 835 150 278 836 154 279 837 150 279 838 148 279 839 144 280 840 142 280 841 154 280 842 146 281 843 144 281 844 149 281 845 146 282 846 149 282 847 147 282 848 155 283 849 156 283 850 157 283 851 156 284 852 71 284 853 70 284 854 70 285 855 69 285 856 158 285 857 159 286 858 156 286 859 155 286 860 156 287 861 159 287 862 71 287 863 160 288 864 159 288 865 161 288 866 159 289 867 155 289 868 162 289 869 162 290 870 155 290 871 163 290 872 161 291 873 159 291 874 163 291 875 161 292 876 163 292 877 155 292 878 159 293 879 68 293 880 71 293 881 68 294 882 159 294 883 160 294 884 160 295 885 69 295 886 68 295 887 69 296 888 160 296 889 164 296 890 162 297 891 163 297 892 165 297 893 162 298 894 165 298 895 166 298 896 162 299 897 159 299 898 167 299 899 167 300 900 162 300 901 166 300 902 167 301 903 159 301 904 163 301 905 167 302 906 165 302 907 163 302 908 168 303 909 156 303 910 70 303 911 168 304 912 70 304 913 158 304 914 156 305 915 168 305 916 157 305 917 63 306 918 169 306 919 170 306 920 63 307 921 170 307 922 91 307 923 169 308 924 91 308 925 171 308 926 40 309 927 39 309 928 85 309 929 85 310 930 172 310 931 173 310 932 36 311 933 85 311 934 173 311 935 36 312 936 173 312 937 84 312 938 84 313 939 171 313 940 63 313 941 171 314 942 84 314 943 174 314 944 174 315 945 84 315 946 175 315 947 175 316 948 84 316 949 176 316 950 78 317 951 177 317 952 80 317 953 63 318 954 171 318 955 95 318 956 95 319 957 72 319 958 171 319 959 171 320 960 72 320 961 91 320 962 95 321 963 174 321 964 178 321 965 95 322 966 174 322 967 169 322 968 169 323 969 174 323 970 91 323 971 174 324 972 91 324 973 170 324 974 174 325 975 170 325 976 171 325 977 171 326 978 170 326 979 169 326 980 63 327 981 169 327 982 95 327 983 92 328 984 100 328 985 41 328 986 92 329 987 174 329 988 175 329 989 92 330 990 175 330 991 100 330 992 92 331 993 93 331 994 174 331 995 179 332 996 175 332 997 176 332 998 175 333 999 179 333 1000 107 333 1001 179 334 1002 176 334 1003 180 334 1004 175 335 1005 107 335 1006 103 335 1007 55 336 1008 107 336 1009 94 336 1010 94 337 1011 107 337 1012 93 337 1013 181 338 1014 93 338 1015 180 338 1016 93 339 1017 107 339 1018 179 339 1019 93 340 1020 179 340 1021 180 340 1022 104 341 1023 105 341 1024 66 341 1025 105 342 1026 66 342 1027 106 342 1028 105 343 1029 103 343 1030 106 343 1031 100 344 1032 106 344 1033 99 344 1034 106 345 1035 100 345 1036 175 345 1037 106 346 1038 175 346 1039 103 346 1040 90 347 1041 95 347 1042 178 347 1043 90 348 1044 178 348 1045 177 348 1046 177 349 1047 90 349 1048 78 349 1049 180 350 1050 176 350 1051 182 350 1052 182 351 1053 176 351 1054 84 351 1055 181 352 1056 180 352 1057 132 352 1058 181 353 1059 132 353 1060 96 353 1061 180 354 1062 132 354 1063 183 354 1064 181 355 1065 174 355 1066 93 355 1067 174 356 1068 181 356 1069 178 356 1070 178 357 1071 181 357 1072 184 357 1073 178 358 1074 184 358 1075 177 358 1076 177 359 1077 184 359 1078 185 359 1079 177 360 1080 185 360 1081 80 360 1082 185 361 1083 184 361 1084 80 361 1085 80 362 1086 184 362 1087 82 362 1088 184 363 1089 82 363 1090 97 363 1091 184 364 1092 97 364 1093 181 364 1094 97 365 1095 181 365 1096 96 365 1097 155 366 1098 157 366 1099 186 366 1100 186 367 1101 155 367 1102 161 367 1103 161 368 1104 186 368 1105 164 368 1106 160 369 1107 161 369 1108 164 369 1109 186 370 1110 157 370 1111 168 370 1112 164 371 1113 186 371 1114 187 371 1115 187 372 1116 165 372 1117 186 372 1118 165 373 1119 186 373 1120 168 373 1121 164 374 1122 158 374 1123 69 374 1124 158 375 1125 164 375 1126 187 375 1127 168 376 1128 158 376 1129 187 376 1130 187 377 1131 165 377 1132 167 377 1133 187 378 1134 167 378 1135 168 378 1136 168 379 1137 167 379 1138 188 379 1139 188 380 1140 167 380 1141 166 380 1142 168 381 1143 188 381 1144 165 381 1145 165 382 1146 188 382 1147 166 382 1148 189 383 1149 190 383 1150 191 383 1151 189 384 1152 191 384 1153 192 384 1154 190 385 1155 189 385 1156 193 385 1157 190 386 1158 193 386 1159 194 386 1160 191 387 1161 190 387 1162 192 387 1163 192 388 1164 190 388 1165 84 388 1166 84 389 1167 190 389 1168 195 389 1169 196 390 1170 190 390 1171 195 390 1172 192 391 1173 173 391 1174 84 391 1175 173 392 1176 197 392 1177 198 392 1178 172 393 1179 85 393 1180 197 393 1181 197 394 1182 198 394 1183 192 394 1184 192 395 1185 197 395 1186 189 395 1187 199 396 1188 198 396 1189 192 396 1190 199 397 1191 192 397 1192 196 397 1193 196 398 1194 190 398 1195 194 398 1196 196 399 1197 194 399 1198 199 399 1199 172 400 1200 197 400 1201 173 400 1202 195 401 1203 84 401 1204 182 401 1205 195 402 1206 182 402 1207 200 402 1208 200 403 1209 182 403 1210 201 403 1211 201 404 1212 200 404 1213 202 404 1214 200 405 1215 202 405 1216 173 405 1217 173 406 1218 200 406 1219 192 406 1220 200 407 1221 195 407 1222 196 407 1223 192 408 1224 200 408 1225 196 408 1226 204 409 1227 203 409 1228 205 409 1229 203 410 1230 205 410 1231 197 410 1232 206 411 1233 197 411 1234 207 411 1235 197 412 1236 207 412 1237 85 412 1238 85 413 1239 207 413 1240 40 413 1241 208 414 1242 197 414 1243 206 414 1244 206 415 1245 208 415 1246 205 415 1247 206 416 1248 205 416 1249 209 416 1250 205 417 1251 197 417 1252 209 417 1253 209 418 1254 197 418 1255 189 418 1256 189 419 1257 209 419 1258 194 419 1259 189 420 1260 194 420 1261 193 420 1262 210 421 1263 204 421 1264 208 421 1265 211 422 1266 212 422 1267 213 422 1268 215 423 1269 214 423 1270 216 423 1271 215 424 1272 214 424 1273 216 424 1274 204 425 1275 210 425 1276 217 425 1277 204 426 1278 217 426 1279 205 426 1280 210 427 1281 217 427 1282 208 427 1283 208 428 1284 217 428 1285 205 428 1286 203 429 1287 208 429 1288 204 429 1289 208 430 1290 203 430 1291 197 430 1292 218 431 1293 209 431 1294 194 431 1295 194 432 1296 218 432 1297 199 432 1298 218 433 1299 199 433 1300 219 433 1301 219 434 1302 218 434 1303 209 434 1304 219 435 1305 209 435 1306 198 435 1307 198 436 1308 209 436 1309 207 436 1310 207 437 1311 209 437 1312 206 437 1313 220 438 1314 128 438 1315 83 438 1316 220 439 1317 128 439 1318 173 439 1319 128 440 1320 173 440 1321 221 440 1322 180 441 1323 220 441 1324 183 441 1325 183 442 1326 220 442 1327 83 442 1328 183 443 1329 83 443 1330 82 443 1331 40 444 1332 153 444 1333 207 444 1334 222 445 1335 223 445 1336 224 445 1337 222 446 1338 224 446 1339 225 446 1340 183 447 1341 224 447 1342 223 447 1343 226 448 1344 132 448 1345 183 448 1346 226 449 1347 183 449 1348 223 449 1349 225 450 1350 223 450 1351 222 450 1352 227 451 1353 228 451 1354 229 451 1355 230 452 1356 229 452 1357 228 452 1358 231 453 1359 229 453 1360 230 453 1361 231 454 1362 230 454 1363 232 454 1364 232 455 1365 230 455 1366 228 455 1367 232 456 1368 228 456 1369 233 456 1370 234 457 1371 228 457 1372 226 457 1373 226 458 1374 228 458 1375 227 458 1376 225 459 1377 231 459 1378 232 459 1379 229 460 1380 231 460 1381 227 460 1382 227 461 1383 231 461 1384 132 461 1385 227 462 1386 132 462 1387 226 462 1388 132 463 1389 224 463 1390 82 463 1391 82 464 1392 224 464 1393 183 464 1394 132 465 1395 225 465 1396 224 465 1397 225 466 1398 132 466 1399 231 466 1400 144 467 1401 154 467 1402 149 467 1403 128 468 1404 221 468 1405 143 468 1406 143 469 1407 221 469 1408 153 469 1409 221 470 1410 235 470 1411 236 470 1412 153 471 1413 221 471 1414 235 471 1415 237 472 1416 207 472 1417 153 472 1418 237 473 1419 153 473 1420 235 473 1421 232 474 1422 233 474 1423 238 474 1424 232 475 1425 238 475 1426 225 475 1427 223 476 1428 225 476 1429 236 476 1430 236 477 1431 225 477 1432 238 477 1433 223 478 1434 236 478 1435 237 478 1436 236 479 1437 237 479 1438 221 479 1439 236 480 1440 235 480 1441 238 480 1442 235 481 1443 238 481 1444 239 481 1445 148 482 1446 240 482 1447 154 482 1448 154 483 1449 240 483 1450 149 483 1451 149 484 1452 240 484 1453 148 484 1454 234 485 1455 233 485 1456 228 485 1457 238 486 1458 233 486 1459 234 486 1460 142 487 1461 143 487 1462 154 487 1463 182 488 1464 173 488 1465 220 488 1466 182 489 1467 220 489 1468 180 489 1469 201 490 1470 182 490 1471 173 490 1472 173 491 1473 201 491 1474 202 491 1475 173 492 1476 198 492 1477 241 492 1478 198 493 1479 207 493 1480 241 493 1481 199 494 1482 198 494 1483 219 494 1484 173 495 1485 241 495 1486 221 495 1487 221 496 1488 241 496 1489 207 496 1490 221 497 1491 207 497 1492 237 497 1493 239 498 1494 237 498 1495 223 498 1496 223 499 1497 239 499 1498 226 499 1499 239 500 1500 238 500 1501 234 500 1502 239 501 1503 234 501 1504 226 501 1505 237 502 1506 239 502 1507 235 502 1508 102 503 1509 101 503 1510 67 503 1511 102 504 1512 51 504 1513 67 504 1514 12 505 1515 9 505 1516 10 505 1517 9 506 1518 10 506 1519 11 506 1520</p>
        </polylist>
      </mesh>
    </geometry>
  </library_geometries>
  <library_visual_scenes>
    <visual_scene id="Scene" name="Scene">
      <node id="Waste1" name="Waste1" type="NODE">
        <scale sid="scale">1 1 1</scale>
        <translate sid="location">0 0 0</translate>
        <rotate sid="rotationX">1 0 0 0</rotate>
        <rotate sid="rotationY">0 1 0 0</rotate>
        <rotate sid="rotationZ">0 0 1 0</rotate>
        <instance_geometry url="#Waste1-mesh" name="Waste1">
          <bind_material>
            <technique_common>
            </technique_common>
          </bind_material>
        </instance_geometry>
      </node>
    </visual_scene>
  </library_visual_scenes>
  <scene>
    <instance_visual_scene url="#Scene"/>
  </scene>
</COLLADA>
