<?xml version="1.0" encoding="utf-8"?>
<COLLADA xmlns="http://www.collada.org/2005/11/COLLADASchema" version="1.4.1" xmlns:xsi="http://www.w3.org/2001/XMLSchema-instance">
  <asset>
    <contributor>
      <author>Blockbench user</author>
      <authoring_tool>Blockbench</authoring_tool>
    </contributor>
    <created>2026-07-10T04:12:27.452Z</created>
    <modified>2026-07-10T04:12:27.459Z</modified>
    <unit name="meter" meter="1.0"/>
    <up_axis>Y_UP</up_axis>
  </asset>
  <library_effects>
  </library_effects>
  <library_images>
  </library_images>
  <library_materials>
  </library_materials>
  <library_geometries>
    <geometry id="Waterpipe-mesh" name="Waterpipe">
      <mesh>
        <source id="Waterpipe-mesh-positions">
          <float_array id="Waterpipe-mesh-positions-array" count="654">0.12482 0.106979 -0.577481 0.124363 0.159683 -0.599891 0.119433 0.172095 -0.576252 0.108472 0.15959 -0.603214 0.094816 0.149084 -0.574912 0.092301 0.161047 -0.603167 0.103257 0.176686 -0.603071 0.109305 0.195385 -0.577551 0.096219 0.213592 -0.601263 0.087874 0.100085 -0.605195 0.070137 0.18983 -0.606647 0.109011 0.089615 -0.587809 0.059771 0.241059 -0.60146 0.117367 0.081278 -0.601964 0.09321 0.041534 -0.600685 0.095329 0.043775 -0.578441 0.060981 0.033139 -0.60322 0.046338 0.028158 -0.603163 -0.045295 0.043033 -0.603229 0.025732 0.039546 -0.607612 0.033466 0.006069 -0.600061 -0.050774 0.011467 -0.600112 0.048143 0.045158 -0.603344 -0.042803 0.225125 -0.602934 -0.049785 0.231802 -0.575064 -0.063294 0.236869 -0.60306 -0.045359 0.214808 -0.574048 -0.063796 0.22158 -0.575066 -0.0052 0.256041 -0.600055 -0.014805 0.254618 -0.57742 -0.094142 0.218231 -0.577671 0.003469 0.225626 -0.574463 0.062942 0.23782 -0.575342 -0.067853 0.193722 -0.609498 -0.051611 0.21219 -0.603152 0.003367 0.222051 -0.610291 0.079692 0.183461 -0.574112 0.061113 0.220512 -0.603152 0.047125 0.230604 -0.602946 0.045821 0.215039 -0.603281 0.044147 0.214759 -0.574273 0.060614 0.222482 -0.575132 0.028333 0.059926 -0.611293 0.066181 0.096321 -0.611415 0.072092 0.137824 -0.610414 0.057615 0.173423 0.572555 0.047864 0.185813 -0.611513 0.074151 0.128487 0.573554 0.027477 0.197135 0.572537 -0.107457 0.176929 -0.575126 -0.091545 0.165923 -0.603103 -0.087534 0.175846 -0.574957 -0.123546 0.164848 -0.576156 -0.110145 0.161008 -0.603193 -0.113951 0.179699 -0.603166 0.008416 0.224135 -0.206969 0.066637 0.198167 -0.207318 -0.069799 0.154854 -0.610794 -0.073092 0.113676 -0.611254 -0.091328 0.106689 -0.605655 -0.051167 0.183507 0.572849 -0.037179 0.197458 -0.611596 -0.004337 0.002546 -0.576997 -0.082657 0.030584 -0.577437 0.058538 0.020046 -0.574844 -0.053197 0.051536 -0.607521 -0.016994 0.054958 -0.611463 0.008046 0.202334 -0.610391 0.098013 0.139821 -0.199911 -0.129365 0.129861 -0.600232 -0.112776 0.091575 -0.603203 -0.107151 0.056695 -0.600556 -0.05403 0.076948 -0.610903 -0.056441 0.079823 0.572361 -0.119701 0.090282 -0.575217 0.101242 0.102931 -0.575292 0.087172 0.088996 -0.574443 0.053227 0.047483 -0.574512 0.043264 0.041444 -0.574714 0.035694 0.035372 -0.202161 0.001021 0.031464 -0.574305 0.070955 0.059059 -0.200318 -0.012938 0.029337 -0.202302 -0.014083 0.227789 -0.199935 -0.072974 0.199195 -0.199274 -0.002832 0.224825 -0.194135 -0.099366 0.144116 -0.19924 -0.083503 0.179203 -0.193081 -0.080387 0.184715 0.174373 -0.032347 0.219994 0.173175 -0.051613 0.211363 -0.206744 -0.090431 0.164401 -0.208206 -0.020304 0.200537 0.572265 -0.076936 0.068591 0.174116 -0.05374 0.037127 0.178329 -0.100841 0.098934 0.180268 -0.082386 0.063245 0.190541 -0.049102 0.043367 0.188917 -0.000205 0.024665 0.194883 -0.001527 0.023017 0.176268 -0.016722 0.032383 0.174577 -0.066039 0.051799 -0.200538 -0.094895 0.096144 -0.197686 -0.092486 0.099792 -0.207074 -0.095571 0.1432 0.17301 -0.096012 0.111268 -0.574005 0.080513 0.173441 0.570892 0.096 0.150892 0.564683 0.055165 0.210677 0.564733 -0.049224 0.209217 0.568668 0.011572 0.22157 0.56985 -0.001065 0.226252 0.53633 -0.044773 0.223841 0.53703 -0.057864 0.231498 0.536877 0.044238 0.217511 0.192735 0.051859 0.210901 0.536321 -0.056419 0.209137 0.53616 -0.050402 0.232535 0.564802 -0.062153 0.217668 0.564766 -0.075356 0.233715 0.539933 0.021172 0.25459 0.540738 -0.100752 0.17687 0.537124 -0.029497 0.223487 0.19586 -0.029949 0.229182 0.19532 -0.071509 0.206775 0.189328 -0.059691 0.206075 0.1878 0.05214 0.218472 0.192596 0.00776 0.230594 0.187006 0.105576 0.175828 0.537212 0.088542 0.168571 0.53676 0.100575 0.208777 0.53974 0.08892 0.221947 0.561838 0.059043 0.227282 0.548029 0.044158 0.223871 0.548359 0.008819 0.256004 0.561662 0.107415 0.159759 0.537116 -0.083754 0.228664 0.56103 0.090594 0.167901 0.564663 0.124564 0.160586 0.561224 0.127093 0.139277 0.540283 0.028503 0.059891 0.573036 0.057812 0.083426 0.572975 0.084336 0.095508 0.572711 0.047759 0.216578 -0.198942 0.090606 0.08528 0.537193 0.050399 0.041956 0.1922 0.090647 0.088206 0.192369 0.089937 0.096527 0.536174 0.116278 0.074067 0.541506 0.112045 0.09421 0.537047 0.095306 0.137079 0.536299 0.091268 0.092915 0.56455 0.062616 0.019872 0.537955 0.061684 0.036697 0.53701 0.041113 0.041139 0.53572 -0.007225 0.0312 0.536464 -0.055536 0.0482 0.536136 -0.066722 0.020171 0.539068 -0.049564 0.027468 0.53697 0.001336 0.002787 0.538127 -0.058197 0.042943 0.564808 -0.044254 0.045793 0.568766 -0.061759 0.018623 0.564428 0.055234 0.04128 0.18784 -0.072852 0.145142 0.573064 -0.093401 0.099171 0.536348 -0.09045 0.089377 0.189973 -0.064006 0.054851 -0.206202 -0.061147 0.052526 -0.193705 -0.09239 0.15427 0.565737 0.092243 0.10737 0.173074 0.092756 0.147988 0.172647 0.09017 0.087537 -0.199556 -0.057857 0.027037 -0.603154 -0.056914 0.026906 -0.574995 -0.062809 0.053145 -0.574523 0.019988 0.034768 -0.193293 0.031726 0.037104 0.174425 0.07101 0.052884 0.176412 0.069832 0.061662 0.174537 -0.03264 0.060763 0.572808 0.114431 0.097106 0.564734 0.056946 0.026896 0.56486 0.051178 0.050722 0.567532 0.083123 0.032141 0.56211 0.041918 0.036117 0.564705 0.089351 0.08305 0.564617 0.01011 0.001222 0.560858 -0.014372 0.037555 0.572619 -0.002592 0.054183 0.572594 -0.096342 0.08832 -0.585096 -0.071051 0.107523 0.572831 0.085462 0.180372 -0.200178 0.093238 0.110387 -0.206301 -0.111908 0.095713 0.564716 -0.121956 0.091737 0.537485 -0.093935 0.099081 0.564771 -0.119027 0.179918 0.539352 -0.092285 0.161909 0.535978 -0.113289 0.163944 0.537089 -0.104842 0.085326 0.550861 -0.093289 0.162997 0.18937 -0.120161 0.169619 0.564769 -0.094106 0.172257 0.564738 -0.104298 0.147793 0.194245 -0.113429 0.065871 0.561462 -0.094292 0.18091 0.176515 -0.093095 0.179118 0.195277 0.014238 0.224701 0.174722 -0.031558 0.229864 0.175238 0.04945 0.21968 0.17533 0.057344 0.206136 0.174026 0.083515 0.175923 0.174195 0.084543 0.179348 0.193957 0.085946 0.189496 0.182486 0.102694 0.149382 0.191034 0.098055 0.146439 0.19531 0.092187 0.085688 0.187354</float_array>
          <technique_common>
            <accessor source="#Waterpipe-mesh-positions-array" count="218" stride="3">
              <param name="X" type="float"/>
              <param name="Y" type="float"/>
              <param name="Z" type="float"/>
            </accessor>
          </technique_common>
        </source>
        <source id="Waterpipe-mesh-normals">
          <float_array id="Waterpipe-mesh-normals-array" count="1500">0.983353 0.078257 0.163992 -0.68339 0.727613 -0.059645 0.798033 -0.560426 0.221509 -0.047986 0.039743 -0.998057 0.830727 0.33652 -0.443449 -0.084027 -0.920269 -0.382157 0.929394 -0.30286 -0.210955 0.00009 0.033242 -0.999447 0.179936 0.01965 -0.983482 0.182869 0.02198 -0.982891 -0.573613 0.171897 0.800887 -0.201332 0.20912 0.95694 0.095278 0.119343 -0.988271 0.845595 0.261833 -0.465202 0.203548 0.081434 -0.975672 0.332783 0.109347 -0.936642 0.901641 0.38064 -0.20532 0.885607 0.460886 -0.057298 0.833968 -0.088814 0.544619 0.974066 -0.081332 -0.211142 0.85376 -0.51986 -0.028957 0.892327 -0.418914 0.168116 0.095765 -0.067768 -0.993094 -0.077509 -0.481345 -0.873097 -0.008017 -0.13448 -0.990884 0.235246 -0.699293 -0.675017 0.108557 -0.200007 -0.973762 0.231274 -0.19938 -0.95224 -0.495925 -0.864404 0.082852 -0.949959 -0.257945 -0.176186 -0.541364 0.741954 0.395512 -0.309245 0.948282 -0.07161 -0.412055 0.897341 0.158083 -0.012315 0.093774 0.995517 0.207782 0.973502 0.095501 0.668349 0.720611 0.18447 0.601543 0.798418 0.025981 0.225149 0.961754 0.156003 -0.195876 0.468322 -0.861573 -0.148616 0.117747 -0.98186 0.105985 0.023494 0.99409 0.046674 0.085008 -0.995286 0.008439 0.130701 -0.991386 -0.006407 -0.021906 -0.99974 0.109369 0.951068 0.288976 0.026947 0.118226 0.992621 -0.014185 0.057834 0.998225 0.205758 0.321866 -0.924157 0.002242 0.02133 -0.99977 -0.336873 0.941493 -0.010353 -0.741685 0.616709 0.263768 0.99481 -0.084561 0.056592 -0.02908 0.104683 -0.99408 0.032416 0.041952 0.998594 -0.42658 0.901659 -0.07099 0.087685 0.068848 0.993766 -0.136295 0.072459 -0.988015 0.509056 0.715347 -0.478687 0.988343 -0.149626 0.028121 0.052763 0.005664 0.998591 0.008474 0.129731 -0.991513 0.312525 -0.327991 -0.891488 0.2334 -0.201601 -0.951253 0.48278 0.081308 -0.871959 -0.892704 -0.450635 0.002636 -0.938466 -0.34537 -0.001092 0.166445 0.236658 -0.95723 0.199293 0.078246 -0.976811 -0.618335 -0.785908 -0.003132 -0.877306 -0.414413 -0.242065 0.348128 0.924053 -0.157905 -0.820938 0.556884 0.126257 -0.053934 -0.939297 0.338839 -0.143173 0.106785 0.98392 -0.541133 0.75264 -0.37511 -0.959456 -0.195665 0.202879 -0.2459 0.935231 -0.25471 0.024179 0.065936 0.997531 -0.099664 0.136414 0.985626 -0.157917 0.337917 0.927833 0.258094 0.96612 0.000445 0.407371 0.913117 0.01632 -0.305581 0.035067 -0.95152 0.794012 -0.607898 0.002217 -0.061785 -0.966554 -0.248909 0.510379 -0.859112 0.037933 -0.322781 -0.896897 0.302304 0.249866 -0.930629 0.26739 0.53619 -0.841457 -0.066713 -0.061788 -0.399802 -0.914517 0.023482 -0.180595 -0.983277 -0.080879 0.080627 0.993458 -0.024871 0.034559 -0.999093 -0.332332 0.048046 -0.941938 -0.028909 -0.001791 -0.99958 -0.025437 -0.011106 0.999615 0.880012 0.474793 0.012286 0.002558 -0.000413 -0.999997 -0.003582 0.002032 -0.999992 -0.523472 -0.851233 0.037144 -0.917824 0.299225 0.260891 -0.796869 0.42679 -0.427609 -0.116761 -0.022341 -0.992909 -0.144186 -0.005098 -0.989538 -0.006533 0.043019 -0.999053 -0.486307 -0.143832 -0.861869 -0.689273 0.611469 -0.388598 -0.303758 0.039899 -0.951913 -0.75651 0.652997 0.035878 -0.24306 -0.135329 -0.960525 -0.243407 -0.135792 -0.960372 -0.094703 -0.13438 -0.986394 0.887575 0.460662 0.000689 0.660849 0.75049 -0.006569 -0.07785 -0.505958 -0.859038 0.278223 -0.016462 -0.960375 -0.953917 -0.045454 0.296608 -0.953181 -0.289002 -0.089021 -0.610108 -0.762614 -0.214915 -0.811223 -0.513766 0.279214 0.066748 -0.013308 0.997681 0.629985 0.694412 -0.347722 0.17714 -0.617233 0.76658 0.091665 0.004564 0.995779 0.746725 -0.339737 -0.571823 0.063869 -0.070855 -0.99544 -0.404048 0.663735 -0.629445 0.676572 -0.69751 -0.236073 0.487828 0.81757 0.305947 0.060086 0.000147 0.998193 -0.013047 -0.024249 -0.999621 0.673599 0.717677 -0.17665 0.521541 0.01866 0.853022 -0.01482 -0.095709 -0.995299 0.194497 -0.031089 -0.98041 0.518401 -0.855131 -0.003404 0.229806 -0.973172 -0.011192 0.557651 -0.830075 -0.000741 0.123154 -0.992387 -0.001053 -0.260781 0.555348 0.789672 -0.893316 0.427962 -0.137236 -0.884727 0.466109 0.000511 -0.591477 0.806086 0.019504 -0.424255 0.878825 0.218344 -0.770911 0.636793 0.013783 -0.510758 0.445082 -0.735546 -0.13683 0.629635 -0.764746 -0.898992 0.430815 0.078808 -0.208082 0.978095 0.005631 -0.678512 0.734574 -0.004663 -0.38318 -0.923671 0.002235 0.107167 -0.99424 0.001058 -0.791517 -0.599455 -0.118975 -0.684628 -0.50525 -0.525363 0.316435 0.590498 -0.742415 -0.427133 -0.897499 0.10979 -0.105159 -0.513524 0.851607 -0.126515 -0.222703 -0.966642 -0.783285 -0.484657 -0.389323 -0.96989 -0.241819 0.028928 -0.995666 -0.092475 0.009923 -0.954108 -0.098089 -0.282943 -0.720357 0.010761 -0.69352 -0.991492 0.130111 -0.003772 -0.059488 0.009502 0.998184 -0.039337 0.019892 0.999028 -0.271226 0.919222 -0.285424 -0.654049 0.745648 -0.127391 -0.045576 0.026036 0.998622 -0.090848 0.049525 0.994633 -0.005035 0.063119 0.997993 0.072311 0.048757 0.99619 0.825712 0.563977 0.011383 -0.060392 0.203723 0.977164 0.002227 0.110738 0.993847 0.110469 0.179402 0.977554 0.072054 0.092335 0.993118 0.18039 0.278817 0.94325 -0.013614 -0.043237 -0.998972 0.278556 0.960341 0.012297 -0.777309 0.60556 0.170552 -0.981546 -0.078497 -0.174372 0.569413 0.812021 -0.128027 -0.094042 0.468729 -0.878322 -0.156325 0.118296 -0.980596 -0.042999 0.029243 -0.998647 -0.295399 0.955224 0.016911 -0.020099 0.074909 -0.996988 -0.183519 0.078348 0.979889 0.07817 -0.527224 0.846123 0.025057 -0.061719 0.997779 0.118455 0.73934 0.662831 0.050083 0.098217 0.993904 -0.498969 0.866615 -0.002931 -0.005762 0.075629 -0.997119 0.07218 0.052221 -0.996024 -0.182176 0.718159 0.671609 0.481957 0.840704 -0.246849 0.028865 -0.220289 -0.975008 -0.088906 0.295959 -0.951054 0.254316 -0.049322 -0.965863 0.211456 0.729395 -0.650592 0.523247 0.236512 0.818703 0.265011 0.83005 0.490699 0.817145 0.569268 -0.090594 0.082291 0.555367 -0.827524 -0.936961 0.331122 0.111635 -0.432221 -0.73783 -0.518452 0.351747 0.825012 -0.442299 -0.880154 -0.097954 -0.464471 -0.064807 0.225945 0.971982 -0.012266 0.162947 0.986559 0.385522 0.907594 0.166269 0.499397 0.85051 -0.165031 -0.122711 0.094599 0.987924 -0.771419 0.609292 0.183509 -0.154592 0.5038 0.849875 0.392578 -0.918308 -0.050921 0.423193 0.905991 -0.009367 0.854924 0.272241 0.441576 0.231363 0.893725 0.384352 0.074383 0.033236 0.996676 0.121271 0.098826 0.987688 0.00551 0.002927 0.999981 0.90743 0.344352 -0.240815 0.809535 0.096106 -0.579152 -0.296699 0.938069 0.178875 0.854809 0.494991 0.155841 -0.626118 0.779728 0.000113 0.020263 -0.022644 0.999538 0.018926 -0.019707 0.999627 0.177216 0.982553 0.05643 0.269307 0.613768 -0.742133 -0.216247 0.976314 0.006872 0.754357 -0.656442 -0.005481 0.998232 0.059434 0.000623 0.472243 -0.094757 -0.876361 0.122233 0.030418 -0.992035 0.039236 -0.002115 -0.999228 0.991333 -0.131267 0.005224 0.997655 0.055746 -0.0397 0.115466 -0.049326 -0.992086 0.133055 -0.075487 -0.98823 0.076699 -0.200106 -0.976768 0.056174 -0.029682 -0.99798 0.126463 -0.031804 -0.991461 -0.33197 -0.943264 0.006978 -0.358336 -0.933534 0.010496 0.016054 -0.31097 -0.950284 -0.031089 -0.067734 -0.997219 0.239541 -0.958669 -0.15354 -0.812898 0.552936 -0.182918 -0.919975 -0.25296 0.299427 -0.008189 -0.042549 -0.999061 0.307673 -0.827587 0.469507 0.005121 -0.099392 -0.995035 0.012445 -0.054688 -0.998426 0.201446 -0.979495 0.003116 0.324414 -0.945591 0.024758 0.996814 -0.079737 0.001917 0.870553 -0.492072 -0.001792 -0.802677 -0.596329 0.010023 -0.743828 -0.668356 -0.00448 0.075438 0.044931 0.996138 -0.343482 -0.769748 -0.53806 -0.721652 -0.467236 -0.510792 -0.790568 -0.612332 -0.007191 -0.687256 -0.482152 0.543331 -0.28652 0.174841 0.941986 -0.278817 0.162899 0.946427 -0.072676 0.165437 0.983539 0.999819 -0.012476 0.014381 0.988935 -0.148332 0.002393 0.093443 0.006041 0.995606 -0.968056 -0.185344 -0.168863 0.518555 -0.854748 -0.022511 0.086362 -0.07227 0.993639 -0.218956 -0.2821 -0.934065 0.982697 -0.102698 0.154144 0.296704 -0.876577 -0.378918 0.799992 0.572137 -0.180753 0.033179 -0.010523 0.999394 -0.032819 -0.08661 0.995702 -0.027138 -0.025442 0.999308 0.032945 -0.09869 0.994573 -0.140946 -0.379362 0.91445 0.096995 -0.99528 0.003227 0.293903 -0.953719 0.063561 0.374271 -0.908072 -0.187953 0.352668 -0.854676 -0.380992 0.125973 -0.191029 -0.973467 0.012324 -0.158263 -0.98732 0.160185 -0.98704 0.009586 -0.142625 -0.395224 -0.907445 -0.844669 -0.535289 -0.000266 -0.868314 -0.495964 -0.007168 -0.999432 0.031974 0.010604 0.510563 0.859836 0.002531 0.541683 -0.84055 0.00746 0.429328 -0.903114 -0.007967 0.396028 -0.640713 0.65776 0.12137 -0.981496 0.148106 -0.107968 -0.987755 0.112621 -0.979728 -0.064916 -0.189522 0.12033 -0.081822 0.989356 -0.950718 -0.203969 -0.233522 0.84889 -0.516341 -0.113039 -0.218745 -0.91304 0.344252 0.383541 -0.921738 -0.0574 0.145505 -0.219289 0.964749 0.789308 -0.07795 0.609029 0.184902 0.031996 0.982236 0.423766 0.041906 0.904802 -0.00432 0.009768 0.999943 0.008158 -0.168525 0.985664 0.026802 -0.174423 0.984306 0.112974 -0.094395 0.989104 0.792375 -0.40045 0.460198 -0.155143 0.268907 0.950589 0.177494 -0.975167 -0.132455 0.98125 -0.19048 0.029416 0.107488 0.037775 0.993488 -0.007641 -0.00167 0.999969 0.080351 -0.008845 0.996727 0.390566 -0.385815 0.835826 0.965611 -0.142097 0.217723 -0.141738 -0.154061 0.977842 -0.163686 -0.136801 0.976981 0.00645 -0.003066 0.999974 -0.016653 0.013301 0.999773 0.12671 -0.261092 0.956961 0.185136 -0.472085 0.861894 -0.693873 -0.712521 -0.104182 -0.520571 -0.846534 0.111296 0.127552 -0.265831 0.955544 -0.113622 -0.728241 -0.675837 0.488136 -0.871386 0.049079 0.14145 0.989945 -0.000132 0.718878 -0.012851 0.695017 0.150811 -0.123034 -0.980877 -0.28735 -0.630843 -0.720741 0.583455 -0.58593 0.562376 0.786067 -0.617452 -0.029197 -0.866527 -0.186349 -0.463039 -0.591007 -0.344117 0.729585 -0.983152 0.09081 -0.158638 -0.061018 -0.074876 0.995324 0.360863 0.566665 0.740722 0.114553 0.990649 0.074115 -0.321518 -0.946742 -0.017478 -0.910996 -0.401633 0.093687 -0.360457 -0.023032 0.932492 0.2139 0.976854 -0.001962 -0.180588 0.983555 0.00284 -0.108951 0.994047 0.000045 -0.990015 0.140933 0.002833 -0.940091 0.340912 -0.002931 0.828856 -0.559426 0.006368 0.897962 -0.439689 0.018407 0.462048 0.13724 -0.876172 0.91535 0.402654 0.002142 0.987439 -0.157517 -0.012309 -0.35559 -0.867873 0.346918 -0.433043 -0.901368 0.002937 -0.515354 -0.856841 0.015302 -0.693127 0.720809 0.00295 -0.372736 -0.106762 -0.921775 -0.128373 0.021317 -0.991497 0.487088 -0.306774 -0.817701 -0.447096 -0.894482 0.00269 0.183439 -0.980134 0.075422 0.252004 -0.967725 0.00167 -0.108779 0.024653 -0.99376 -0.038432 -0.005209 -0.999248 0.040225 -0.125974 0.991218 -0.777247 0.629069 -0.012611 -0.515297 -0.379605 -0.768355 0.644186 0.484078 -0.592193 -0.278689 0.010766 -0.960321 -0.999837 0.017803 0.002952 0.484464 0.872841 -0.058676 0.106398 0.963009 0.247575 -0.994932 -0.096489 -0.028279 -0.777583 -0.227209 0.586294 -0.769037 -0.225511 0.598103 0.379013 0.022193 0.925125 0.991956 -0.12626 -0.009008 0.917599 -0.397427 0.007973 0.54234 0.344754 -0.766167 0.125045 0.431597 0.893358 -0.095842 -0.014738 0.995287 -0.240867 -0.152707 0.95847 -0.449055 -0.251396 0.857408 -0.939214 0.343173 0.01042 -0.911304 0.411732 0.001552 -0.281533 0.613486 -0.737817 -0.070684 0.457481 -0.886405 -0.14051 -0.14778 -0.978988 -0.744893 -0.069773 0.663526 -0.683729 -0.453362 -0.571819 0.579562 -0.789989 0.200064 -0.917604 0.067531 -0.391717 -0.920428 0.045928 -0.388205 -0.670013 0.262499 -0.694389 -0.938585 0.332654 0.091653 -0.011931 -0.203667 0.978967 0.112931 0.894391 -0.432794 0.085725 0.688399 0.720248 -0.342189 0.939509 -0.01514 0.395721 0.91824 0.015538 0.16023 0.987054 -0.007083 0.244797 0.085858 -0.965765 0.028544 0.02076 -0.999377 0.625086 0.780556 -0.000623 -0.999227 -0.038594 -0.007422 -0.181885 0.215093 -0.959507 -0.029405 0.998909 0.03628 0.774043 -0.632903 -0.017092 0.692681 0.72124 0.002391 0.755773 0.654729 0.011711 0.955239 0.295713 0.008482 0.949489 0.313733 0.00652 0.987444 -0.14849 -0.053895 0.325106 0.276553 -0.904337 -0.7721 0.626074 0.109057 0.124436 -0.060958 0.990353 -0.788491 0.615044 0.002 -0.177418 0.097043 -0.979339 0.691955 0.721462 -0.026279 0.012124 0.044791 0.998923 0.709152 0.270667 -0.651032 0.843485 0.250961 -0.474922 0.774778 0.423509 0.469425 0.47922 0.393425 -0.784579 0.998854 0.047829 -0.001473 0.880121 -0.016104 -0.474476 0.721561 -0.157975 0.674088 0.925965 -0.135594 0.352425 0.033561 0.115145 -0.992782 0.253961 0.569151 -0.78203 0.357548 0.601655 0.714262 -0.552551 0.608501 -0.569574 -0.481066 0.874026 0.068226 -0.071001 -0.997471 -0.003218 0.964738 -0.14651 -0.218669 0.789495 -0.339008 -0.511636 0.665247 -0.746447 0.016208 -0.002866 -0.001037 0.999995 -0.553263 -0.062378 0.830668 0.854391 -0.099167 0.510081 -0.998951 0.033834 -0.030859 -0.961502 -0.070853 0.265506 0.537735 0.782965 -0.31274 -0.043804 -0.016258 0.998908 0.173598 0.971757 0.159852 0.929277 -0.368916 0.018604 -0.92085 0.140554 -0.363703 -0.384939 0.750814 -0.536749 -0.063096 -0.006352 0.997987 -0.674969 -0.732655 0.087371 0.004366 0.150355 -0.988622 -0.282063 0.952389 0.115739 -0.206171 0.960553 -0.186631 0.103431 -0.102997 0.989289 -0.054748 0.045421 -0.997467 -0.104721 0.0957 -0.989886 -0.766103 0.623583 -0.155662 0.630455 0.541497 0.556154 0.71141 -0.587766 0.385262 0.275373 -0.165329 -0.947014 -0.100692 0.994905 0.004994 0.559021 0.261871 0.786714 0.696283 -0.673105 -0.249239 0.950665 -0.152601 0.270092 -0.126056 0.088089 0.988104 -0.200688 0.140615 0.969511 -0.122542 0.043378 0.991515 -0.005557 0.066609 0.997764 -0.982039 -0.057701 -0.179639 0.549301 -0.480515 0.683647 0.57807 -0.286863 0.763902 0.674339 -0.555814 0.486146 0.080151 0.996673 -0.014787 0.755603 0.654924 0.011775 0.687568 0.726119 -0.001282 0.264333 -0.949788 -0.167422 0.924654 0.380387 0.017896 -0.24701 -0.968589 0.028658 -0.235918 -0.971684 -0.013143 0.483052 -0.87558 -0.004608 -0.796385 0.604776 0.004205 0.977677 0.21006 -0.004801 -0.734974 -0.57519 -0.359125 0.991967 -0.12642 0.004527 -0.859474 -0.495908 0.124011 -0.098734 0.977378 0.187037 0.683075 -0.663345 0.305584 0.384246 -0.912936 0.137491 -0.884515 -0.466511 -0.0009 -0.83299 0.52473 0.175457</float_array>
          <technique_common>
            <accessor source="#Waterpipe-mesh-normals-array" count="500" stride="3">
              <param name="X" type="float"/>
              <param name="Y" type="float"/>
              <param name="Z" type="float"/>
            </accessor>
          </technique_common>
        </source>
        <source id="Waterpipe-mesh-map-0">
          <float_array id="Waterpipe-mesh-map-0-array" count="3000">0.705016 0.496062 0.675687 0.48667 0.669491 0.498692 0.184232 0.678518 0.166688 0.674863 0.166526 0.682204 0.102545 0.310454 0.102434 0.302004 0.08536 0.308191 0.925889 0.164592 0.91114 0.142569 0.926372 0.155791 0.102434 0.302004 0.08536 0.308191 0.085196 0.299869 0.121321 0.680131 0.121413 0.686821 0.138884 0.683293 0.138884 0.683293 0.121321 0.680131 0.138981 0.676248 0.956163 0.455276 0.977249 0.487341 0.972206 0.492866 0.956163 0.455276 0.983515 0.482634 0.977249 0.487341 0.91114 0.142569 0.925889 0.164592 0.899604 0.168704 0.956163 0.455276 0.94167 0.463737 0.972206 0.492866 0.972206 0.492866 0.94167 0.463737 0.961002 0.497719 0.91114 0.142569 0.899604 0.168704 0.876736 0.15429 0.556433 0.085487 0.551306 0.104329 0.55182 0.085477 0.934904 0.14611 0.933654 0.156423 0.91114 0.142569 0.933654 0.156423 0.926372 0.155791 0.91114 0.142569 0.669491 0.498692 0.63395 0.488435 0.636088 0.500077 0.675687 0.48667 0.63395 0.488435 0.669491 0.498692 0.94167 0.463737 0.939352 0.466504 0.961002 0.497719 0.706569 0.485394 0.675687 0.48667 0.705016 0.496062 0.570859 0.008217 0.531561 0.00998 0.571776 0.018518 0.571776 0.018518 0.531561 0.00998 0.530839 0.02262 0.927793 0.429191 0.93892 0.41624 0.945535 0.451943 0.997904 0.760777 0.996466 0.785515 0.977031 0.755316 0.936057 0.382635 0.960431 0.351443 0.938201 0.401725 0.927793 0.429191 0.938201 0.401725 0.936269 0.407364 0.936057 0.382635 0.938201 0.401725 0.927793 0.429191 0.972015 0.742127 0.977031 0.755316 0.935587 0.735262 0.81162 0.285337 0.794347 0.287053 0.811743 0.289402 0.89331 0.52349 0.8896 0.54218 0.894919 0.54217 0.851874 0.027115 0.850084 0.046544 0.855383 0.046584 0.651067 0.039653 0.685235 0.038835 0.649876 0.023911 0.649876 0.023911 0.685235 0.038835 0.706472 0.021879 0.876501 0.422154 0.893777 0.397321 0.892287 0.426362 0.611086 0.03905 0.649876 0.023911 0.610924 0.026254 0.63395 0.488435 0.612787 0.501424 0.636088 0.500077 0.63395 0.488435 0.609771 0.490323 0.612787 0.501424 0.611086 0.03905 0.651067 0.039653 0.649876 0.023911 0.734789 0.545801 0.730009 0.539401 0.735623 0.511055 0.735623 0.511055 0.730009 0.539401 0.731624 0.508395 0.920762 0.478466 0.93427 0.488677 0.915596 0.490697 0.887517 0.16359 0.879481 0.165394 0.876736 0.15429 0.879481 0.165394 0.837906 0.223072 0.876736 0.15429 0.880611 0.174103 0.849784 0.219194 0.837906 0.223072 0.650123 0.319277 0.65657 0.323776 0.639337 0.323493 0.896948 0.457065 0.876501 0.422154 0.892287 0.426362 0.876501 0.422154 0.896948 0.457065 0.886424 0.467483 0.628683 0.319002 0.650123 0.319277 0.639337 0.323493 0.881996 0.171039 0.837906 0.223072 0.879481 0.165394 0.72732 0.903703 0.728131 0.909988 0.744312 0.909372 0.070127 0.700565 0.073084 0.681435 0.069106 0.681604 0.073084 0.681435 0.075194 0.700249 0.070127 0.700565 0.899604 0.168704 0.880611 0.174103 0.887517 0.16359 0.902731 0.463066 0.920762 0.478466 0.897714 0.468965 0.913631 0.760711 0.912661 0.779341 0.907532 0.760569 0.897714 0.468965 0.920762 0.478466 0.915596 0.490697 0.899604 0.168704 0.887517 0.16359 0.876736 0.15429 0.250649 0.460353 0.250714 0.453815 0.267626 0.455396 0.250649 0.460353 0.267626 0.455396 0.267717 0.461809 0.886424 0.467483 0.897714 0.468965 0.915596 0.490697 0.876736 0.15429 0.837906 0.223072 0.847627 0.182972 0.961694 0.75578 0.933495 0.745407 0.935587 0.735262 0.977031 0.755316 0.961694 0.75578 0.935587 0.735262 0.935587 0.735262 0.90964 0.75308 0.883224 0.770865 0.531216 0.693377 0.100165 0.712503 0.480356 0.728207 0.100165 0.712503 0.531216 0.693377 0.322782 0.698022 0.883224 0.770865 0.891567 0.781063 0.883054 0.820842 0.90964 0.75308 0.891567 0.781063 0.883224 0.770865 0.118049 0.740222 0.480356 0.728207 0.100165 0.712503 0.638788 0.451408 0.632406 0.451296 0.636867 0.470631 0.885169 0.523366 0.884223 0.541962 0.8896 0.54218 0.89331 0.52349 0.885169 0.523366 0.8896 0.54218 0.286342 0.029266 0.279965 0.048628 0.280164 0.029494 0.92564 0.332227 0.920429 0.340572 0.898815 0.352493 0.993289 0.895938 0.99349 0.914772 0.997375 0.915048 0.993289 0.895938 0.997375 0.915048 0.997962 0.896325 0.295439 0.107338 0.301278 0.107468 0.296672 0.08835 0.886329 0.394573 0.893777 0.397321 0.876501 0.422154 0.8834 0.37857 0.889681 0.387081 0.886329 0.394573 0.8834 0.37857 0.886329 0.394573 0.876501 0.422154 0.77815 0.394715 0.778205 0.42114 0.613531 0.410904 0.77815 0.394715 0.613531 0.410904 0.555768 0.375581 0.939883 0.844636 0.965862 0.831666 0.978566 0.83812 0.198805 0.412794 0.399765 0.423635 0.400566 0.408823 0.038919 0.651966 0.027856 0.69061 0.029483 0.637735 0.442695 0.026757 0.4545 0.014404 0.429234 0.015026 0.038302 0.715237 0.027856 0.69061 0.038919 0.651966 0.038919 0.651966 0.029483 0.637735 0.039538 0.626284 0.4545 0.014404 0.442695 0.026757 0.454993 0.025124 0.977031 0.755316 0.991669 0.80631 0.980783 0.783849 0.977031 0.755316 0.980783 0.783849 0.961694 0.75578 0.905328 0.832109 0.939883 0.844636 0.883054 0.820842 0.939883 0.844636 0.919055 0.852974 0.883054 0.820842 0.978566 0.83812 0.919055 0.852974 0.939883 0.844636 0.891567 0.781063 0.890977 0.808122 0.883054 0.820842 0.883054 0.820842 0.905328 0.832109 0.890977 0.808122 0.777939 0.359593 0.555768 0.375581 0.599523 0.351182 0.859354 0.268765 0.84959 0.270927 0.837906 0.223072 0.852119 0.226052 0.859354 0.268765 0.837906 0.223072 0.286342 0.029266 0.287839 0.048242 0.279965 0.048628 0.721882 0.035276 0.742692 0.034423 0.706472 0.021879 0.742692 0.034423 0.741837 0.022436 0.706472 0.021879 0.856399 0.278716 0.867083 0.302927 0.84959 0.270927 0.867083 0.302927 0.856399 0.278716 0.87971 0.281498 0.87971 0.281498 0.856399 0.278716 0.859354 0.268765 0.892516 0.306671 0.911104 0.320387 0.867083 0.302927 0.685235 0.038835 0.721882 0.035276 0.706472 0.021879 0.861984 0.251871 0.87971 0.281498 0.859354 0.268765 0.861984 0.251871 0.859354 0.268765 0.852119 0.226052 0.979803 0.80795 0.978566 0.83812 0.965862 0.831666 0.991669 0.80631 0.978566 0.83812 0.979803 0.80795 0.980783 0.783849 0.991669 0.80631 0.979803 0.80795 0.309402 0.468505 0.398466 0.479659 0.398399 0.468857 0.777939 0.359593 0.77815 0.394715 0.555768 0.375581 0.991669 0.80631 0.977031 0.755316 0.996466 0.785515 0.935587 0.735262 0.933495 0.745407 0.90964 0.75308 0.610079 0.142356 0.621639 0.110014 0.61968 0.161 0.610079 0.142356 0.612172 0.092713 0.621639 0.110014 0.02829 0.731246 0.027856 0.69061 0.038302 0.715237 0.612172 0.092713 0.621966 0.087024 0.621639 0.110014 0.895278 0.872172 0.913589 0.909116 0.905385 0.870019 0.370924 0.372719 0.371529 0.380514 0.353781 0.378304 0.900995 0.907294 0.905682 0.914835 0.913589 0.909116 0.895278 0.872172 0.900995 0.907294 0.913589 0.909116 0.905682 0.914835 0.913589 0.909116 0.900522 0.953951 0.034786 0.185675 0.044845 0.185675 0.041213 0.186588 0.578607 0.082691 0.579494 0.066743 0.583346 0.085118 0.369128 0.257378 0.350959 0.254744 0.369119 0.251608 0.579494 0.066743 0.583822 0.066698 0.583346 0.085118 0.895278 0.872172 0.897079 0.913102 0.900995 0.907294 0.696544 0.243045 0.704991 0.240215 0.708988 0.257515 0.932258 0.9479 0.932136 0.941822 0.914668 0.944172 0.897079 0.913102 0.900522 0.953951 0.905682 0.914835 0.985775 0.329602 0.973942 0.313479 0.97349 0.300162 0.698247 0.233986 0.71319 0.209655 0.704991 0.240215 0.276792 0.136794 0.275234 0.124426 0.048744 0.151713 0.266883 0.160159 0.276792 0.136794 0.048744 0.151713 0.04628 0.117256 0.048744 0.151713 0.275234 0.124426 0.029566 0.548881 0.254214 0.561644 0.028429 0.563644 0.442416 0.368171 0.482588 0.371043 0.443549 0.366759 0.482588 0.371043 0.504732 0.364134 0.492036 0.366917 0.346787 0.378447 0.347171 0.39333 0.117771 0.39206 0.346787 0.378447 0.117771 0.39206 0.117065 0.364323 0.672557 0.901992 0.665336 0.905481 0.696571 0.907369 0.781152 0.73009 0.555107 0.74245 0.555174 0.697514 0.672557 0.901992 0.65443 0.898007 0.658219 0.901211 0.701311 0.902776 0.672557 0.901992 0.696571 0.907369 0.949012 0.808243 0.937 0.812725 0.967314 0.805953 0.778976 0.690816 0.555174 0.697514 0.553971 0.653113 0.781152 0.73009 0.555174 0.697514 0.778976 0.690816 0.456876 0.76548 0.485922 0.761667 0.016014 0.761489 0.015637 0.791403 0.46961 0.786046 0.456876 0.76548 0.474562 0.408004 0.44867 0.41277 0.475361 0.413802 0.944655 0.828081 0.923344 0.829103 0.943748 0.831616 0.326069 0.189439 0.316823 0.227454 0.334853 0.173617 0.316823 0.227454 0.323225 0.188178 0.334853 0.173617 0.5822 0.141538 0.582796 0.151004 0.580469 0.147172 0.44867 0.41277 0.474562 0.408004 0.426629 0.399962 0.024778 0.505738 0.028292 0.481877 0.029993 0.490527 0.344109 0.212894 0.57306 0.233924 0.573744 0.173063 0.343317 0.183764 0.344109 0.212894 0.573744 0.173063 0.909241 0.80659 0.909307 0.80853 0.937 0.812725 0.909241 0.80659 0.937 0.812725 0.949012 0.808243 0.781198 0.771954 0.555107 0.74245 0.781152 0.73009 0.752188 0.920606 0.767204 0.961385 0.773407 0.941276 0.752188 0.920606 0.773407 0.941276 0.766572 0.897828 0.38763 0.558127 0.400329 0.562856 0.400854 0.557568 0.599382 0.598087 0.600533 0.579338 0.594521 0.57951 0.772127 0.865117 0.766572 0.897828 0.77731 0.866845 0.751674 0.883421 0.766572 0.897828 0.772127 0.865117 0.751674 0.883421 0.756562 0.901122 0.766572 0.897828 0.966578 0.054198 0.963596 0.091069 0.97743 0.064529 0.317499 0.546206 0.313582 0.555218 0.313165 0.529964 0.91462 0.006257 0.931337 0.019838 0.953731 0.015244 0.931337 0.019838 0.955233 0.032226 0.953731 0.015244 0.953731 0.015244 0.955233 0.032226 0.97743 0.064529 0.97743 0.064529 0.955233 0.032226 0.966578 0.054198 0.417414 0.361088 0.420709 0.379515 0.421848 0.360674 0.697613 0.300903 0.74145 0.297047 0.74834 0.300404 0.527972 0.082676 0.312074 0.052234 0.311447 0.082695 0.618467 0.817289 0.612087 0.817509 0.615547 0.798118 0.016255 0.430866 0.020796 0.412182 0.022883 0.430741 0.615547 0.798118 0.612087 0.817509 0.610124 0.798244 0.762196 0.297893 0.704157 0.318127 0.74834 0.300404 0.773882 0.263827 0.762196 0.297893 0.74834 0.300404 0.747754 0.291898 0.773882 0.263827 0.74834 0.300404 0.221966 0.009533 0.006854 0.032322 0.006104 0.008046 0.143137 0.448252 0.122199 0.450548 0.127082 0.452092 0.748801 0.646149 0.76806 0.652128 0.750356 0.643575 0.059588 0.419254 0.064555 0.430833 0.062042 0.439218 0.25317 0.079616 0.291264 0.082728 0.285276 0.078129 0.983661 0.0923 0.993629 0.072481 0.979287 0.128463 0.255476 0.084104 0.291264 0.082728 0.25317 0.079616 0.221966 0.009533 0.222124 0.03021 0.006854 0.032322 0.640779 0.267242 0.649397 0.265089 0.647309 0.288561 0.649397 0.265089 0.67445 0.292063 0.647309 0.288561 0.946529 0.550819 0.933671 0.535566 0.949831 0.544009 0.277088 0.018137 0.240148 0.014566 0.252753 0.001675 0.673503 0.303392 0.682222 0.302044 0.704157 0.318127 0.988783 0.67352 0.989136 0.664073 0.963153 0.645436 0.682222 0.302044 0.697613 0.300903 0.704157 0.318127 0.938138 0.620918 0.917603 0.622411 0.935708 0.623078 0.983072 0.642611 0.989136 0.664073 0.963153 0.645436 0.997085 0.663828 0.989136 0.664073 0.983072 0.642611 0.94312 0.765946 0.936066 0.760422 0.926156 0.767947 0.647309 0.288561 0.67445 0.292063 0.673503 0.303392 0.936023 0.075018 0.929673 0.068212 0.932017 0.086613 0.673503 0.303392 0.704157 0.318127 0.647309 0.288561 0.988783 0.67352 0.963153 0.645436 0.991381 0.68572 0.640779 0.267242 0.639876 0.258715 0.647309 0.288561 0.963153 0.645436 0.974005 0.609697 0.983072 0.642611 0.964946 0.603496 0.974005 0.609697 0.963153 0.645436 0.240148 0.014566 0.237473 0.003471 0.252753 0.001675 0.020796 0.412182 0.013731 0.412434 0.016255 0.430866 0.960021 0.580296 0.968508 0.595728 0.964946 0.603496 0.817145 0.58473 0.824244 0.56671 0.815797 0.566864 0.960021 0.580296 0.964946 0.603496 0.963153 0.645436 0.757321 0.240479 0.739999 0.238336 0.740305 0.232035 0.270297 0.468655 0.276433 0.468827 0.274797 0.487331 0.804948 0.038624 0.787801 0.040259 0.804787 0.043971 0.740305 0.232035 0.757321 0.240479 0.757825 0.232125 0.933671 0.535566 0.946529 0.550819 0.898083 0.550208 0.946529 0.550819 0.910265 0.559773 0.898083 0.550208 0.946529 0.550819 0.901821 0.571891 0.910265 0.559773 0.322496 0.016689 0.277088 0.018137 0.312109 0.005233 0.768511 0.847994 0.751713 0.853807 0.751803 0.847179 0.768511 0.847994 0.751713 0.853807 0.76884 0.854623 0.277088 0.018137 0.271826 0.002802 0.312109 0.005233 0.484747 0.891098 0.01457 0.877654 0.014867 0.90216 0.926707 0.119743 0.960948 0.114112 0.941181 0.114448 0.941181 0.114448 0.960948 0.114112 0.963596 0.091069 0.553971 0.653113 0.548225 0.658652 0.548507 0.628803 0.555395 0.613707 0.553971 0.653113 0.548507 0.628803 0.73974 0.669282 0.778976 0.690816 0.553971 0.653113 0.869659 0.94301 0.871577 0.709317 0.85003 0.707234 0.869659 0.94301 0.85003 0.707234 0.85405 0.943469 0.63269 0.20259 0.639139 0.208155 0.627558 0.237024 0.639139 0.208155 0.645848 0.228717 0.627558 0.237024 0.648652 0.209578 0.645848 0.228717 0.639139 0.208155 0.85003 0.707234 0.824091 0.943231 0.85405 0.943469 0.829139 0.316543 0.829053 0.309423 0.812294 0.31297 0.676928 0.159935 0.674663 0.167932 0.63269 0.20259 0.63269 0.20259 0.674663 0.167932 0.647695 0.202192 0.63269 0.20259 0.647695 0.202192 0.639139 0.208155 0.674663 0.167932 0.679684 0.173872 0.647695 0.202192 0.627558 0.237024 0.645848 0.228717 0.639876 0.258715 0.635928 0.058587 0.851536 0.076367 0.837488 0.053164 0.851536 0.076367 0.635928 0.058587 0.637077 0.089132 0.718598 0.165206 0.750353 0.166412 0.745155 0.168248 0.750353 0.166412 0.718598 0.165206 0.716443 0.150152 0.83473 0.637989 0.81731 0.641457 0.834922 0.645445 0.285669 0.4671 0.284121 0.485583 0.288148 0.485474 0.81731 0.641457 0.817686 0.64723 0.834922 0.645445 0.940748 0.254539 0.937552 0.248185 0.939293 0.242764 0.920066 0.277295 0.927985 0.293765 0.916754 0.280039 0.676928 0.159935 0.718598 0.165206 0.689951 0.168911 0.716443 0.150152 0.718598 0.165206 0.676928 0.159935 0.851536 0.076367 0.636749 0.121734 0.852455 0.114737 0.637077 0.089132 0.636749 0.121734 0.851536 0.076367 0.001953 0.940507 0.731211 0.955223 0.686838 0.927516 0.001953 0.940507 0.686838 0.927516 0.255766 0.915555 0.833421 0.326132 0.827611 0.560673 0.797049 0.326631 0.797049 0.326631 0.827611 0.560673 0.793452 0.524478 0.316823 0.227454 0.321187 0.215954 0.322941 0.242677 0.024612 0.528355 0.028328 0.526105 0.065173 0.548957 0.024778 0.505738 0.029993 0.490527 0.029024 0.509244 0.57306 0.233924 0.344109 0.212894 0.346056 0.234149 0.956438 0.137269 0.959649 0.140295 0.95316 0.168036 0.880218 0.026264 0.905663 0.02366 0.91462 0.006257 0.880218 0.026264 0.884626 0.043207 0.905663 0.02366 0.905663 0.02366 0.931337 0.019838 0.91462 0.006257 0.374311 0.311531 0.604165 0.282946 0.373774 0.285839 0.605023 0.316695 0.604165 0.282946 0.374311 0.311531 0.882342 0.965953 0.900522 0.953951 0.881335 0.951281 0.932258 0.9479 0.914883 0.949382 0.914668 0.944172 0.059277 0.663338 0.059941 0.681963 0.054483 0.663409 0.897079 0.913102 0.881335 0.951281 0.900522 0.953951 0.960775 0.301521 0.95264 0.267215 0.965242 0.301352 0.161002 0.684211 0.161112 0.677642 0.144096 0.678408 0.019287 0.45358 0.013177 0.45389 0.01543 0.473307 0.019287 0.45358 0.021903 0.47275 0.01543 0.473307 0.815568 0.98271 0.849958 0.988148 0.807892 0.967817 0.807892 0.967817 0.849958 0.988148 0.850123 0.970883 0.849958 0.988148 0.882342 0.965953 0.875445 0.957036 0.850123 0.970883 0.849958 0.988148 0.875445 0.957036 0.798374 0.987304 0.849958 0.988148 0.815568 0.98271 0.299498 0.217204 0.070605 0.242592 0.299724 0.248976 0.487423 0.031219 0.482022 0.030208 0.464935 0.031185 0.415177 0.399068 0.404188 0.385306 0.39161 0.370586 0.39586 0.383864 0.415177 0.399068 0.39161 0.370586 0.39161 0.370586 0.404188 0.385306 0.393852 0.36827 0.415177 0.399068 0.426629 0.399962 0.404188 0.385306 0.299498 0.217204 0.070991 0.214798 0.070605 0.242592 0.415177 0.399068 0.44867 0.41277 0.426629 0.399962 0.25649 0.501548 0.029024 0.509244 0.029993 0.490527 0.25649 0.501548 0.029993 0.490527 0.25573 0.483029 0.781198 0.771954 0.573266 0.781327 0.555107 0.74245 0.612237 0.834069 0.581111 0.827389 0.014563 0.836278 0.299724 0.248976 0.074776 0.275656 0.299362 0.276593 0.070605 0.242592 0.074776 0.275656 0.299724 0.248976 0.014749 0.139917 0.014449 0.127328 0.020643 0.104132 0.014749 0.139917 0.010356 0.151817 0.014449 0.127328 0.066304 0.655646 0.070918 0.674369 0.065923 0.67424 0.894864 0.999077 0.899844 0.99926 0.898437 0.980624 0.885078 0.64111 0.872336 0.650672 0.859664 0.636987 0.583439 0.208894 0.586234 0.227281 0.580354 0.227503 0.937691 0.729006 0.940325 0.709879 0.944679 0.728912 0.940325 0.709879 0.945852 0.709774 0.944679 0.728912 0.641131 0.148757 0.637158 0.167806 0.64355 0.168053 0.926707 0.119743 0.929469 0.130826 0.960948 0.114112 0.879006 0.608285 0.901821 0.571891 0.889605 0.604622 0.963596 0.091069 0.960948 0.114112 0.97743 0.064529 0.889605 0.604622 0.901821 0.571891 0.907212 0.576421 0.880028 0.653313 0.894011 0.694192 0.872336 0.650672 0.894011 0.694192 0.86795 0.667847 0.872336 0.650672 0.920942 0.689101 0.894011 0.694192 0.880028 0.653313 0.885078 0.64111 0.859664 0.636987 0.871811 0.592963 0.859664 0.636987 0.859888 0.598188 0.871811 0.592963 0.885078 0.64111 0.871811 0.592963 0.879006 0.608285 0.071459 0.656139 0.070918 0.674369 0.066304 0.655646 0.641131 0.148757 0.637158 0.167806 0.63545 0.148642 0.901821 0.571891 0.871811 0.592963 0.898083 0.550208 0.879742 0.600143 0.871811 0.592963 0.901821 0.571891 0.901821 0.571891 0.879006 0.608285 0.879742 0.600143 0.885078 0.64111 0.879006 0.608285 0.889605 0.604622 0.58092 0.903323 0.616637 0.893667 0.591036 0.889001 0.877158 0.08088 0.867766 0.085532 0.885612 0.101522 0.885612 0.101522 0.867766 0.085532 0.888766 0.118418 0.885612 0.101522 0.888766 0.118418 0.898278 0.113288 0.898278 0.113288 0.888766 0.118418 0.926707 0.119743 0.888766 0.118418 0.929469 0.130826 0.926707 0.119743 0.872336 0.650672 0.86795 0.667847 0.859664 0.636987 0.905509 0.999206 0.899844 0.99926 0.904622 0.981123 0.904622 0.981123 0.899844 0.99926 0.898437 0.980624 0.880028 0.653313 0.885078 0.64111 0.91025 0.675109 0.91025 0.675109 0.920942 0.689101 0.880028 0.653313 0.641131 0.148757 0.64355 0.168053 0.646195 0.14931 0.773036 0.855816 0.772904 0.836461 0.778773 0.855635 0.778773 0.855635 0.772904 0.836461 0.779063 0.83635 0.973942 0.313479 0.965242 0.301352 0.97349 0.300162 0.355615 0.321658 0.356271 0.302823 0.363885 0.303115 0.355615 0.321658 0.363885 0.303115 0.363817 0.322143 0.949658 0.048263 0.949848 0.057026 0.931896 0.048266 0.363885 0.303115 0.368399 0.322402 0.363817 0.322143 0.773407 0.941276 0.778773 0.956001 0.807892 0.967817 0.606075 0.230927 0.595107 0.225869 0.589105 0.232629 0.767204 0.961385 0.798374 0.987304 0.807892 0.967817 0.767204 0.961385 0.807892 0.967817 0.778773 0.956001 0.902334 0.421042 0.913384 0.414689 0.89573 0.415255 0.234281 0.535351 0.25563 0.552237 0.065173 0.548957 0.880218 0.026264 0.867766 0.085532 0.875958 0.069626 0.880218 0.026264 0.875958 0.069626 0.884626 0.043207 0.715417 0.849489 0.014563 0.836278 0.014446 0.8574 0.01457 0.877654 0.715417 0.849489 0.014446 0.8574 0.01457 0.877654 0.683662 0.868197 0.715417 0.849489 0.463155 0.578442 0.048794 0.596494 0.381692 0.598827 0.463155 0.578442 0.04867 0.570829 0.048794 0.596494 0.374244 0.341275 0.604429 0.343013 0.605023 0.316695 0.374244 0.341275 0.605023 0.316695 0.374311 0.311531 0.913197 0.056609 0.916996 0.085581 0.912545 0.087615 0.595132 0.605574 0.697588 0.585539 0.802933 0.602468 0.770522 0.627084 0.595132 0.605574 0.802933 0.602468 0.020035 0.202122 0.010356 0.151817 0.021843 0.196896 0.069751 0.186703 0.070991 0.214798 0.299498 0.217204 0.299531 0.186769 0.069751 0.186703 0.299498 0.217204 0.448871 0.897907 0.484747 0.891098 0.014867 0.90216 0.514003 0.388306 0.524829 0.371429 0.474562 0.408004 0.96847 0.241826 0.966066 0.237079 0.974465 0.248247 0.804132 0.646919 0.800275 0.663597 0.770522 0.627084 0.028499 0.425639 0.025573 0.377465 0.03059 0.404663 0.005343 0.200715 0.004215 0.219124 0.012252 0.200833 0.004215 0.219124 0.011554 0.219289 0.012252 0.200833 0.786094 0.214668 0.783886 0.265844 0.770759 0.253765 0.774523 0.217806 0.786094 0.214668 0.770759 0.253765 0.778091 0.257689 0.770759 0.253765 0.783886 0.265844 0.687381 0.254802 0.681229 0.244916 0.685768 0.235382 0.748882 0.181097 0.77575 0.207743 0.768378 0.210421 0.77575 0.207743 0.750353 0.166412 0.786094 0.214668 0.750353 0.166412 0.77575 0.207743 0.748882 0.181097 0.867776 0.521686 0.833421 0.326132 0.861162 0.326638 0.09775 0.69002 0.114828 0.68992 0.115079 0.685699 0.966383 0.421201 0.966624 0.414252 0.949635 0.415453 0.966383 0.421201 0.949635 0.415453 0.949456 0.42217 0.067124 0.351659 0.064062 0.351319 0.058074 0.38094 0.961861 0.828011 0.944655 0.828081 0.943748 0.831616 0.058074 0.38094 0.067124 0.351659 0.061576 0.390601 0.046953 0.094777 0.275574 0.105143 0.21352 0.088295 0.04628 0.117256 0.275574 0.105143 0.046953 0.094777 0.023121 0.26354 0.015803 0.307432 0.024462 0.310297 0.023121 0.26354 0.015803 0.307432 0.005264 0.300449 0.034658 0.314051 0.024462 0.310297 0.030018 0.296149 0.955155 0.697671 0.936948 0.695793 0.920942 0.689101 0.875958 0.069626 0.867766 0.085532 0.877158 0.08088 0.343317 0.183764 0.573744 0.173063 0.573869 0.141649 0.34422 0.148051 0.343317 0.183764 0.573869 0.141649 0.289743 0.453751 0.273255 0.440209 0.282972 0.452186 0.969456 0.292473 0.955947 0.267657 0.968545 0.253728 0.965242 0.301352 0.955947 0.267657 0.969456 0.292473 0.963301 0.250556 0.955947 0.267657 0.968545 0.253728 0.969456 0.292473 0.968545 0.253728 0.974465 0.248247 0.385815 0.366692 0.379465 0.366779 0.383468 0.386102 0.746903 0.815929 0.746823 0.837572 0.736198 0.836896 0.736198 0.836896 0.746823 0.837572 0.741639 0.858822 0.061576 0.390601 0.058074 0.38094 0.056255 0.399176 0.746903 0.815929 0.736198 0.836896 0.735572 0.816424 0.25337 0.44042 0.214586 0.438102 0.251911 0.43544 0.192481 0.437567 0.251911 0.43544 0.220696 0.428793 0.214586 0.438102 0.251911 0.43544 0.192481 0.437567 0.346787 0.378447 0.117065 0.364323 0.347407 0.344105 0.347313 0.305796 0.117622 0.332806 0.117774 0.301074 0.347313 0.305796 0.347407 0.344105 0.117622 0.332806 0.627558 0.237024 0.639876 0.258715 0.647309 0.288561 0.645848 0.228717 0.649397 0.265089 0.639876 0.258715 0.560389 0.993087 0.002522 0.98576 0.266959 0.993853 0.867776 0.521686 0.827611 0.560673 0.833421 0.326132 0.25337 0.44042 0.282972 0.452186 0.251911 0.43544 0.53408 0.628947 0.526652 0.605872 0.537113 0.605912 0.04628 0.117256 0.275234 0.124426 0.275574 0.105143 0.603344 0.255587 0.604226 0.24187 0.374088 0.244713 0.374088 0.244713 0.373519 0.258319 0.603344 0.255587 0.373519 0.258319 0.604165 0.282946 0.603344 0.255587 0.373774 0.285839 0.604165 0.282946 0.373519 0.258319 0.919126 0.030408 0.917881 0.038967 0.913197 0.056609 0.173882 0.449067 0.192481 0.437567 0.160089 0.458273 0.052538 0.269657 0.045105 0.252746 0.055171 0.252476 0.059588 0.419254 0.061576 0.390601 0.064555 0.430833 0.223115 0.058005 0.006854 0.032322 0.222124 0.03021 0.296644 0.464637 0.289743 0.453751 0.282972 0.452186 0.555395 0.613707 0.548507 0.628803 0.555215 0.601107 0.646396 0.437702 0.650771 0.440969 0.650792 0.46518 0.98134 0.924994 0.985734 0.931834 0.985203 0.933698 0.980644 0.928316 0.98134 0.924994 0.985203 0.933698 0.303058 0.540417 0.297341 0.521152 0.303206 0.530917 0.15798 0.452993 0.160089 0.458273 0.192481 0.437567 0.001953 0.940507 0.001791 0.967854 0.731211 0.955223 0.660798 0.457367 0.670038 0.447317 0.659726 0.446566 0.997191 0.459326 0.996665 0.478087 0.994945 0.464244 0.99844 0.476195 0.996665 0.478087 0.997191 0.459326 0.173882 0.449067 0.214586 0.438102 0.192481 0.437567 0.662317 0.259313 0.664616 0.213401 0.667843 0.23425 0.192481 0.437567 0.220696 0.428793 0.189502 0.432269 0.282972 0.452186 0.273255 0.440209 0.251911 0.43544 0.048325 0.306292 0.05132 0.276671 0.055876 0.306739 0.015637 0.791403 0.456876 0.76548 0.016014 0.761489 0.970389 0.874547 0.977194 0.888241 0.970334 0.902992 0.979878 0.848336 0.977194 0.888241 0.970389 0.874547 0.852455 0.114737 0.636749 0.121734 0.851897 0.136796 0.016423 0.315742 0.024462 0.310297 0.034523 0.352346 0.034523 0.352346 0.005264 0.300449 0.016423 0.315742 0.016423 0.315742 0.005264 0.300449 0.015803 0.307432 0.783886 0.265844 0.786094 0.214668 0.798151 0.253506 0.786094 0.214668 0.799683 0.204789 0.798151 0.253506 0.496972 0.633867 0.505088 0.626817 0.487765 0.626262 0.024462 0.310297 0.047371 0.343093 0.034523 0.352346 0.753142 0.466675 0.743099 0.49358 0.74999 0.469291 0.606118 0.445516 0.599329 0.426955 0.606544 0.426883 0.695209 0.637849 0.678129 0.642223 0.694975 0.645444 0.678129 0.642223 0.678173 0.637528 0.695209 0.637849 0.005264 0.300449 0.018225 0.250254 0.023121 0.26354 0.599772 0.086921 0.588421 0.083962 0.589059 0.042978 0.697613 0.300903 0.74834 0.300404 0.704157 0.318127 0.09051 0.353925 0.10178 0.349989 0.103098 0.411181 0.091964 0.421204 0.09051 0.353925 0.103098 0.411181 0.783886 0.265844 0.778091 0.257689 0.773882 0.263827 0.760656 0.271621 0.770759 0.253765 0.773882 0.263827 0.773882 0.263827 0.783886 0.265844 0.762196 0.297893 0.09051 0.353925 0.09181 0.323786 0.10178 0.349989 0.667798 0.265748 0.662317 0.259313 0.667843 0.23425 0.730569 0.452211 0.727374 0.447018 0.707974 0.452149 0.979878 0.848336 0.984671 0.849825 0.977194 0.888241 0.347407 0.344105 0.117065 0.364323 0.117622 0.332806 0.442094 0.374529 0.425211 0.377059 0.433974 0.379496 0.557989 0.894608 0.554389 0.904483 0.58092 0.903323 0.58092 0.903323 0.611088 0.905096 0.616637 0.893667 0.960021 0.580296 0.989667 0.560538 0.968508 0.595728 0.989667 0.560538 0.974005 0.609697 0.968508 0.595728 0.989667 0.560538 0.991566 0.566919 0.974005 0.609697 0.983827 0.549247 0.989667 0.560538 0.960021 0.580296 0.817145 0.58473 0.82521 0.585592 0.824244 0.56671 0.917106 0.238068 0.920066 0.277295 0.916754 0.280039 0.056255 0.399176 0.061576 0.390601 0.059588 0.419254 0.916754 0.280039 0.910312 0.244712 0.917106 0.238068 0.527972 0.082676 0.445026 0.038023 0.312074 0.052234 0.796623 0.943487 0.790287 0.709112 0.786708 0.842004 0.311447 0.082695 0.526865 0.116983 0.527972 0.082676 0.589026 0.13479 0.598241 0.129703 0.598259 0.155637 0.824091 0.943231 0.81235 0.709003 0.790287 0.709112 0.589026 0.13479 0.599772 0.086921 0.600316 0.123666 0.588421 0.083962 0.599772 0.086921 0.589026 0.13479 0.015318 0.814035 0.46961 0.786046 0.015637 0.791403 0.006854 0.032322 0.223115 0.058005 0.008965 0.074932 0.796623 0.943487 0.824091 0.943231 0.790287 0.709112 0.599033 0.040505 0.599772 0.086921 0.589059 0.042978 0.85003 0.707234 0.81235 0.709003 0.824091 0.943231 0.934545 0.360483 0.930461 0.360667 0.931668 0.342048 0.944764 0.934655 0.937251 0.953109 0.944763 0.953702 0.938148 0.934332 0.944764 0.934655 0.937251 0.953109 0.024086 0.149843 0.022834 0.121835 0.035191 0.137509 0.002522 0.98576 0.001791 0.967854 0.659923 0.967667 0.790829 0.283077 0.783886 0.265844 0.798151 0.253506</float_array>
          <technique_common>
            <accessor source="#Waterpipe-mesh-map-0-array" count="1500" stride="2">
              <param name="S" type="float"/>
              <param name="T" type="float"/>
            </accessor>
          </technique_common>
        </source>
        <vertices id="Waterpipe-mesh-vertices">
          <input semantic="POSITION" source="#Waterpipe-mesh-positions"/>
        </vertices>
        <polylist material="Material_-1-material" count="6">
          <input semantic="VERTEX" source="#Waterpipe-mesh-vertices" offset="0"/>
          <input semantic="NORMAL" source="#Waterpipe-mesh-normals" offset="1"/>
          <input semantic="TEXCOORD" source="#Waterpipe-mesh-map-0" offset="2" set="0"/>
          <vcount>3 3 3 3 3 3 3 3 3 3 3 3 3 3 3 3 3 3 3 3 3 3 3 3 3 3 3 3 3 3 3 3 3 3 3 3 3 3 3 3 3 3 3 3 3 3 3 3 3 3 3 3 3 3 3 3 3 3 3 3 3 3 3 3 3 3 3 3 3 3 3 3 3 3 3 3 3 3 3 3 3 3 3 3 3 3 3 3 3 3 3 3 3 3 3 3 3 3 3 3 3 3 3 3 3 3 3 3 3 3 3 3 3 3 3 3 3 3 3 3 3 3 3 3 3 3 3 3 3 3 3 3 3 3 3 3 3 3 3 3 3 3 3 3 3 3 3 3 3 3 3 3 3 3 3 3 3 3 3 3 3 3 3 3 3 3 3 3 3 3 3 3 3 3 3 3 3 3 3 3 3 3 3 3 3 3 3 3 3 3 3 3 3 3 3 3 3 3 3 3 3 3 3 3 3 3 3 3 3 3 3 3 3 3 3 3 3 3 3 3 3 3 3 3 3 3 3 3 3 3 3 3 3 3 3 3 3 3 3 3 3 3 3 3 3 3 3 3 3 3 3 3 3 3 3 3 3 3 3 3 3 3 3 3 3 3 3 3 3 3 3 3 3 3 3 3 3 3 3 3 3 3 3 3 3 3 3 3 3 3 3 3 3 3 3 3 3 3 3 3 3 3 3 3 3 3 3 3 3 3 3 3 3 3 3 3 3 3 3 3 3 3 3 3 3 3 3 3 3 3 3 3 3 3 3 3 3 3 3 3 3 3 3 3 3 3 3 3 3 3 3 3 3 3 3 3 3 3 3 3 3 3 3 3 3 3 3 3 3 3 3 3 3 3 3 3 3 3 3 3 3 3 3 3 3 3 3 3 3 3 3 3 3 3 3 3 3 3 3 3 3 3 3 3 3 3 3 3 3 3 3 3 3 3 3 3 3 3 3 3 3 3 3 3 3 3 3 3 3 3 3 3 3 3 3 3 3 3 3 3 3 3 3 3 3 3 3 3 3 3 3 3 3 3 3 3 3 3 3 3 3 3 3 3 3 3 3 3 3 3 3 3 3 3 3 3 3 3 3 3 3 3 3 3 3 3 3 3 3 3 3 3 3 3 3 3 3 3 3 3</vcount>
          <p>0 0 0 1 0 1 2 0 2 3 1 3 4 1 4 2 1 5 5 2 6 6 2 7 7 2 8 5 3 9 8 3 10 6 3 11 6 4 12 7 4 13 2 4 14 5 5 15 3 5 16 4 5 17 4 6 18 5 6 19 7 6 20 9 7 21 5 7 22 3 7 23 9 8 24 10 8 25 5 8 26 8 9 27 5 9 28 10 9 29 9 10 30 11 10 31 3 10 32 3 11 33 11 11 34 1 11 35 8 12 36 10 12 37 12 12 38 6 13 39 2 13 40 3 13 41 1 14 42 3 14 43 8 14 44 3 15 45 6 15 46 8 15 47 2 16 48 8 16 49 7 16 50 1 17 51 8 17 52 2 17 53 11 18 54 13 18 55 1 18 56 13 19 57 1 19 58 0 19 59 14 20 60 13 20 61 15 20 62 15 21 63 13 21 64 0 21 65 14 22 66 16 22 67 9 22 68 17 23 69 18 23 70 19 23 71 20 24 72 21 24 73 17 24 74 14 25 75 17 25 76 16 25 77 20 26 78 17 26 79 14 26 80 22 27 81 19 27 82 9 27 83 23 28 84 24 28 85 25 28 86 23 29 87 26 29 88 24 29 89 25 30 90 27 30 91 24 30 92 28 31 93 25 31 94 29 31 95 29 32 96 25 32 97 30 32 98 29 33 99 26 33 100 31 33 101 12 34 102 29 34 103 32 34 104 8 35 105 32 35 106 7 35 107 8 36 108 12 36 109 32 36 110 12 37 111 28 37 112 29 37 113 33 38 114 34 38 115 35 38 116 35 39 117 34 39 118 23 39 119 36 40 120 4 40 121 7 40 122 37 41 123 38 41 124 12 41 125 38 42 126 25 42 127 12 42 128 39 43 129 23 43 130 25 43 131 35 44 132 23 44 133 39 44 134 40 45 135 29 45 136 31 45 137 29 46 138 40 46 139 32 46 140 10 47 141 35 47 142 39 47 143 39 48 144 25 48 145 38 48 146 37 49 147 39 49 148 40 49 149 38 50 150 40 50 151 32 50 152 40 51 153 39 51 154 38 51 155 10 52 156 39 52 157 37 52 158 40 53 159 36 53 160 41 53 161 41 54 162 37 54 163 40 54 164 41 55 165 36 55 166 7 55 167 10 56 168 37 56 169 12 56 170 37 57 171 38 57 172 32 57 173 37 58 174 32 58 175 41 58 176 32 59 177 41 59 178 7 59 179 12 60 180 25 60 181 28 60 182 42 61 183 43 61 184 9 61 185 19 62 186 42 62 187 9 62 188 9 63 189 44 63 190 10 63 191 44 64 192 45 64 193 46 64 194 45 65 195 44 65 196 47 65 197 10 66 198 46 66 199 35 66 200 44 67 201 46 67 202 10 67 203 48 68 204 46 68 205 45 68 206 25 69 207 34 69 208 27 69 209 34 70 210 27 70 211 26 70 212 23 71 213 34 71 214 26 71 215 49 72 216 50 72 217 51 72 218 52 73 219 49 73 220 30 73 221 53 74 222 52 74 223 49 74 224 53 75 225 49 75 226 54 75 227 50 76 228 53 76 229 52 76 230 24 77 231 26 77 232 29 77 233 30 78 234 27 78 235 24 78 236 30 79 237 24 79 238 29 79 239 40 80 240 31 80 241 55 80 242 40 81 243 55 81 244 56 81 245 57 82 246 58 82 247 59 82 248 60 83 249 57 83 250 61 83 251 62 84 252 21 84 253 20 84 254 15 85 255 20 85 256 14 85 257 63 86 258 21 86 259 62 86 260 62 87 261 20 87 262 64 87 263 20 88 264 15 88 265 64 88 266 19 89 267 65 89 268 66 89 269 19 90 270 66 90 271 42 90 272 61 91 273 57 91 274 35 91 275 57 92 276 33 92 277 35 92 278 59 93 279 33 93 280 57 93 281 46 94 282 67 94 283 35 94 284 35 95 285 61 95 286 67 95 287 36 96 288 56 96 289 68 96 290 50 97 291 54 97 292 25 97 293 34 98 294 50 98 295 25 98 296 49 99 297 54 99 298 50 99 299 54 100 300 69 100 301 30 100 302 69 101 303 52 101 304 30 101 305 53 102 306 69 102 307 54 102 308 69 103 309 53 103 310 59 103 311 59 104 312 53 104 313 50 104 314 70 105 315 71 105 316 69 105 317 25 106 318 54 106 319 30 106 320 33 107 321 59 107 322 50 107 323 33 108 324 50 108 325 34 108 326 72 109 327 59 109 328 58 109 329 65 110 330 59 110 331 72 110 332 66 111 333 65 111 334 72 111 335 73 112 336 72 112 337 58 112 338 36 113 339 40 113 340 56 113 341 65 114 342 19 114 343 18 114 344 9 115 345 43 115 346 44 115 347 69 116 348 74 116 349 52 116 350 69 117 351 71 117 352 74 117 353 71 118 354 21 118 355 63 118 356 71 119 357 63 119 358 74 119 359 4 120 360 0 120 361 2 120 362 11 121 363 9 121 364 75 121 365 75 122 366 11 122 367 0 122 368 4 123 369 75 123 370 0 123 371 11 124 372 0 124 373 15 124 374 14 125 375 9 125 376 13 125 377 11 126 378 13 126 379 76 126 380 76 127 381 9 127 382 75 127 383 13 128 384 9 128 385 76 128 386 4 129 387 76 129 388 75 129 389 16 130 390 22 130 391 9 130 392 16 131 393 22 131 394 77 131 395 76 132 396 15 132 397 11 132 398 17 133 399 21 133 400 18 133 401 17 134 402 19 134 403 22 134 404 78 135 405 77 135 406 79 135 407 80 136 408 78 136 409 79 136 410 81 137 411 79 137 412 77 137 413 82 138 414 80 138 415 79 138 416 83 139 417 84 139 418 85 139 419 84 140 420 86 140 421 87 140 422 84 141 423 87 141 424 88 141 425 84 142 426 88 142 427 89 142 428 90 143 429 84 143 430 83 143 431 51 144 432 91 144 433 90 144 434 90 145 435 91 145 436 84 145 437 55 146 438 90 146 439 83 146 440 91 147 441 86 147 442 84 147 443 26 148 444 90 148 445 55 148 446 51 149 447 90 149 448 26 149 449 67 150 450 46 150 451 48 150 452 92 151 453 61 151 454 67 151 455 93 152 456 94 152 457 95 152 458 95 153 459 94 153 460 96 153 461 97 154 462 96 154 463 98 154 464 96 155 465 99 155 466 98 155 467 94 156 468 99 156 469 96 156 470 94 157 471 93 157 472 100 157 473 101 158 474 102 158 475 103 158 476 102 159 477 93 159 478 104 159 479 86 160 480 102 160 481 104 160 482 103 161 483 102 161 484 86 161 485 103 162 486 86 162 487 91 162 488 105 163 489 91 163 490 51 163 491 52 164 492 74 164 493 105 164 494 52 165 495 105 165 496 51 165 497 50 166 498 52 166 499 51 166 500 70 167 501 74 167 502 105 167 503 27 168 504 51 168 505 26 168 506 30 169 507 51 169 508 27 169 509 30 170 510 49 170 511 51 170 512 45 171 513 47 171 514 106 171 515 106 172 516 107 172 517 108 172 518 109 173 519 92 173 520 110 173 521 92 174 522 48 174 523 110 174 524 110 175 525 48 175 526 106 175 527 106 176 528 48 176 529 45 176 530 108 177 531 110 177 532 106 177 533 111 178 534 112 178 535 113 178 536 114 179 537 111 179 538 115 179 539 112 180 540 116 180 541 109 180 542 117 181 543 112 181 544 109 181 545 109 182 546 116 182 547 118 182 548 119 183 549 120 183 550 113 183 551 121 184 552 119 184 553 113 184 554 116 185 555 121 185 556 113 185 557 122 186 558 116 186 559 111 186 560 111 187 561 116 187 562 112 187 563 123 188 564 124 188 565 122 188 566 124 189 567 125 189 568 122 189 569 123 190 570 114 190 571 126 190 572 127 191 573 123 191 574 126 191 575 122 192 576 114 192 577 123 192 578 122 193 579 125 193 580 116 193 581 128 194 582 129 194 583 130 194 584 129 195 585 115 195 586 130 195 587 108 196 588 131 196 589 132 196 590 130 197 591 120 197 592 131 197 593 132 198 594 133 198 595 120 198 596 132 199 597 133 199 598 134 199 599 133 200 600 111 200 601 120 200 602 115 201 603 111 201 604 133 201 605 110 202 606 133 202 607 134 202 608 108 203 609 133 203 610 110 203 611 115 204 612 133 204 613 108 204 614 130 205 615 115 205 616 132 205 617 132 206 618 115 206 619 108 206 620 132 207 621 120 207 622 130 207 623 132 208 624 134 208 625 131 208 626 128 209 627 135 209 628 130 209 629 134 210 630 109 210 631 110 210 632 117 211 633 109 211 634 134 211 635 120 212 636 134 212 637 131 212 638 112 213 639 113 213 640 117 213 641 136 214 642 118 214 643 117 214 644 113 215 645 118 215 646 117 215 647 136 216 648 117 216 649 134 216 650 137 217 651 129 217 652 128 217 653 135 218 654 129 218 655 137 218 656 107 219 657 135 219 658 137 219 659 128 220 660 137 220 661 138 220 662 131 221 663 108 221 664 138 221 665 108 222 666 137 222 667 138 222 668 108 223 669 107 223 670 137 223 671 139 224 672 130 224 673 138 224 674 138 225 675 135 225 676 128 225 677 138 226 678 135 226 679 107 226 680 130 227 681 131 227 682 138 227 683 42 228 684 140 228 685 141 228 686 140 229 687 142 229 688 141 229 689 141 230 690 142 230 691 47 230 692 55 231 693 83 231 694 143 231 695 56 232 696 55 232 697 143 232 698 31 233 699 26 233 700 55 233 701 144 234 702 145 234 703 146 234 704 144 235 705 146 235 706 147 235 707 148 236 708 149 236 709 139 236 710 149 237 711 150 237 712 139 237 713 147 238 714 150 238 715 149 238 716 146 239 717 150 239 718 147 239 719 144 240 720 147 240 721 151 240 722 152 241 723 153 241 724 148 241 725 148 242 726 153 242 727 144 242 728 148 243 729 144 243 730 149 243 731 153 244 732 154 244 733 144 244 734 139 245 735 150 245 736 135 245 737 97 246 738 155 246 739 156 246 740 155 247 741 97 247 742 98 247 743 155 248 744 157 248 745 158 248 746 157 249 747 155 249 748 159 249 749 160 250 750 156 250 751 161 250 752 158 251 753 162 251 754 161 251 755 156 252 756 158 252 757 161 252 758 155 253 759 158 253 760 156 253 761 145 254 762 98 254 763 163 254 764 152 255 765 155 255 766 154 255 767 159 256 768 155 256 769 152 256 770 155 257 771 145 257 772 154 257 773 98 258 774 145 258 775 155 258 776 164 259 777 58 259 778 57 259 779 164 260 780 57 260 781 60 260 782 165 261 783 166 261 784 156 261 785 156 262 786 166 262 787 97 262 788 96 263 789 97 263 790 166 263 791 101 264 792 167 264 793 82 264 794 101 265 795 103 265 796 167 265 797 93 266 798 102 266 799 168 266 800 101 267 801 168 267 802 102 267 803 169 268 804 60 268 805 109 268 806 169 269 807 164 269 808 60 269 809 60 270 810 92 270 811 109 270 812 170 271 813 68 271 814 171 271 815 172 272 816 68 272 817 170 272 818 64 273 819 15 273 820 77 273 821 16 274 822 64 274 823 77 274 824 78 275 825 22 275 826 77 275 827 76 276 828 77 276 829 15 276 830 21 277 831 71 277 832 173 277 833 17 278 834 22 278 835 78 278 836 17 279 837 16 279 838 64 279 839 17 280 840 78 280 841 64 280 842 174 281 843 62 281 844 175 281 845 175 282 846 62 282 847 80 282 848 62 283 849 64 283 850 78 283 851 80 284 852 62 284 853 78 284 854 63 285 855 62 285 856 174 285 857 100 286 858 176 286 859 177 286 860 98 287 861 99 287 862 163 287 863 99 288 864 177 288 865 178 288 866 163 289 867 99 289 868 178 289 869 178 290 870 177 290 871 179 290 872 99 291 873 100 291 874 177 291 875 100 292 876 82 292 877 176 292 878 99 293 879 94 293 880 100 293 881 175 294 882 167 294 883 103 294 884 175 295 885 103 295 886 105 295 887 105 296 888 103 296 889 91 296 890 66 297 891 72 297 892 180 297 893 177 298 894 81 298 895 179 298 896 176 299 897 81 299 898 177 299 899 176 300 900 79 300 901 81 300 902 176 301 903 82 301 904 79 301 905 181 302 906 147 302 907 149 302 908 153 303 909 152 303 910 182 303 911 183 304 912 182 304 913 184 304 914 153 305 915 182 305 916 183 305 917 185 306 918 154 306 919 183 306 920 154 307 921 153 307 922 183 307 923 186 308 924 144 308 925 149 308 926 140 309 927 183 309 928 142 309 929 186 310 930 107 310 931 142 310 932 47 311 933 142 311 934 106 311 935 142 312 936 107 312 937 106 312 938 185 313 939 162 313 940 182 313 941 162 314 942 187 314 943 182 314 944 161 315 945 162 315 946 185 315 947 183 316 948 184 316 949 181 316 950 184 317 951 148 317 952 181 317 953 183 318 954 181 318 955 186 318 956 151 319 957 147 319 958 181 319 959 186 320 960 144 320 961 151 320 962 107 321 963 181 321 964 138 321 965 151 322 966 181 322 967 107 322 968 107 323 969 186 323 970 151 323 971 183 324 972 186 324 973 142 324 974 148 325 975 138 325 976 181 325 977 73 326 978 161 326 979 180 326 980 180 327 981 161 327 982 188 327 983 180 328 984 188 328 985 189 328 986 189 329 987 188 329 988 140 329 989 188 330 990 183 330 991 140 330 992 182 331 993 187 331 994 184 331 995 154 332 996 152 332 997 185 332 998 185 333 999 152 333 1000 182 333 1001 185 334 1002 183 334 1003 188 334 1004 188 335 1005 161 335 1006 185 335 1007 186 336 1008 149 336 1009 181 336 1010 174 337 1011 173 337 1012 63 337 1013 63 338 1014 173 338 1015 65 338 1016 21 339 1017 173 339 1018 18 339 1019 63 340 1020 65 340 1021 18 340 1022 63 341 1023 18 341 1024 175 341 1025 173 342 1026 18 342 1027 174 342 1028 18 343 1029 174 343 1030 175 343 1031 105 344 1032 190 344 1033 175 344 1034 59 345 1035 190 345 1036 105 345 1037 74 346 1038 63 346 1039 175 346 1040 74 347 1041 175 347 1042 190 347 1043 190 348 1044 70 348 1045 74 348 1046 175 349 1047 80 349 1048 82 349 1049 169 350 1050 161 350 1051 191 350 1052 169 351 1053 191 351 1054 164 351 1055 66 352 1056 180 352 1057 189 352 1058 140 353 1059 66 353 1060 189 353 1061 140 354 1062 42 354 1063 66 354 1064 43 355 1065 47 355 1066 44 355 1067 43 356 1068 141 356 1069 47 356 1070 179 357 1071 81 357 1072 172 357 1073 179 358 1074 172 358 1075 170 358 1076 68 359 1077 56 359 1078 192 359 1079 4 360 1080 36 360 1081 68 360 1082 193 361 1083 4 361 1084 68 361 1085 101 362 1086 82 362 1087 168 362 1088 168 363 1089 82 363 1090 100 363 1091 93 364 1092 168 364 1093 100 364 1094 43 365 1095 42 365 1096 141 365 1097 95 366 1098 104 366 1099 93 366 1100 70 367 1101 69 367 1102 59 367 1103 172 368 1104 81 368 1105 193 368 1106 167 369 1107 175 369 1108 82 369 1109 194 370 1110 195 370 1111 196 370 1112 195 371 1113 165 371 1114 196 371 1115 195 372 1116 197 372 1117 198 372 1118 165 373 1119 195 373 1120 198 373 1121 199 374 1122 198 374 1123 197 374 1124 165 375 1125 200 375 1126 196 375 1127 156 376 1128 200 376 1129 165 376 1130 200 377 1131 157 377 1132 195 377 1133 157 378 1134 200 378 1135 156 378 1136 201 379 1137 165 379 1138 198 379 1139 199 380 1140 202 380 1141 169 380 1142 198 381 1143 199 381 1144 169 381 1145 198 382 1146 169 382 1147 203 382 1148 166 383 1149 96 383 1150 204 383 1151 204 384 1152 95 384 1153 96 384 1154 204 385 1155 166 385 1156 201 385 1157 193 386 1158 76 386 1159 4 386 1160 81 387 1161 76 387 1162 193 387 1163 160 388 1164 200 388 1165 196 388 1166 160 389 1167 200 389 1168 205 389 1169 169 390 1170 196 390 1171 161 390 1172 196 391 1173 160 391 1174 161 391 1175 191 392 1176 161 392 1177 73 392 1178 86 393 1179 104 393 1180 88 393 1181 87 394 1182 86 394 1183 88 394 1184 206 395 1185 124 395 1186 88 395 1187 65 396 1188 71 396 1189 190 396 1190 173 397 1191 71 397 1192 65 397 1193 70 398 1194 71 398 1195 190 398 1196 65 399 1197 190 399 1198 59 399 1199 70 400 1200 59 400 1201 105 400 1202 206 401 1203 104 401 1204 204 401 1205 204 402 1206 104 402 1207 95 402 1208 201 403 1209 204 403 1210 207 403 1211 206 404 1212 204 404 1213 207 404 1214 89 405 1215 208 405 1216 209 405 1217 210 406 1218 209 406 1219 127 406 1220 208 407 1221 209 407 1222 210 407 1223 84 408 1224 89 408 1225 85 408 1226 143 409 1227 208 409 1228 211 409 1229 143 410 1230 85 410 1231 208 410 1232 139 411 1233 135 411 1234 130 411 1235 150 412 1236 129 412 1237 135 412 1238 72 413 1239 73 413 1240 180 413 1241 201 414 1242 166 414 1243 165 414 1244 89 415 1245 88 415 1246 209 415 1247 127 416 1248 209 416 1249 123 416 1250 81 417 1251 77 417 1252 76 417 1253 192 418 1254 143 418 1255 211 418 1256 211 419 1257 212 419 1258 192 419 1259 212 420 1260 68 420 1261 192 420 1262 171 421 1263 68 421 1264 212 421 1265 172 422 1266 193 422 1267 68 422 1268 211 423 1269 210 423 1270 212 423 1271 124 424 1272 206 424 1273 207 424 1274 124 425 1275 201 425 1276 125 425 1277 201 426 1278 116 426 1279 125 426 1280 104 427 1281 206 427 1282 88 427 1283 56 428 1284 143 428 1285 192 428 1286 126 429 1287 114 429 1288 213 429 1289 171 430 1290 212 430 1291 214 430 1292 215 431 1293 171 431 1294 214 431 1295 215 432 1296 214 432 1297 213 432 1298 214 433 1299 212 433 1300 210 433 1301 164 434 1302 191 434 1303 58 434 1304 215 435 1305 170 435 1306 171 435 1307 216 436 1308 217 436 1309 215 436 1310 146 437 1311 217 437 1312 216 437 1313 211 438 1314 208 438 1315 210 438 1316 214 439 1317 127 439 1318 126 439 1319 210 440 1320 127 440 1321 214 440 1322 88 441 1323 124 441 1324 209 441 1325 209 442 1326 124 442 1327 123 442 1328 92 443 1329 67 443 1330 48 443 1331 217 444 1332 170 444 1333 215 444 1334 178 445 1335 170 445 1336 217 445 1337 154 446 1338 145 446 1339 144 446 1340 194 447 1341 196 447 1342 202 447 1343 202 448 1344 205 448 1345 194 448 1346 194 449 1347 205 449 1348 200 449 1349 197 450 1350 195 450 1351 202 450 1352 195 451 1353 205 451 1354 202 451 1355 200 452 1356 195 452 1357 194 452 1358 196 453 1359 169 453 1360 202 453 1361 85 454 1362 143 454 1363 83 454 1364 160 455 1365 157 455 1366 156 455 1367 160 456 1368 158 456 1369 162 456 1370 158 457 1371 157 457 1372 160 457 1373 205 458 1374 162 458 1375 160 458 1376 157 459 1377 162 459 1378 205 459 1379 111 460 1380 113 460 1381 120 460 1382 119 461 1383 136 461 1384 134 461 1385 120 462 1386 119 462 1387 134 462 1388 197 463 1389 199 463 1390 121 463 1391 116 464 1392 198 464 1393 121 464 1394 121 465 1395 197 465 1396 119 465 1397 119 466 1398 197 466 1399 136 466 1400 213 467 1401 214 467 1402 126 467 1403 163 468 1404 178 468 1405 217 468 1406 178 469 1407 179 469 1408 170 469 1409 85 470 1410 89 470 1411 208 470 1412 213 471 1413 216 471 1414 215 471 1415 184 472 1416 152 472 1417 148 472 1418 148 473 1419 139 473 1420 138 473 1421 136 474 1422 203 474 1423 118 474 1424 203 475 1425 109 475 1426 118 475 1427 203 476 1428 169 476 1429 109 476 1430 202 477 1431 203 477 1432 136 477 1433 113 478 1434 116 478 1435 118 478 1436 146 479 1437 145 479 1438 163 479 1439 207 480 1440 201 480 1441 124 480 1442 163 481 1443 217 481 1444 146 481 1445 114 482 1446 122 482 1447 111 482 1448 129 483 1449 213 483 1450 115 483 1451 115 484 1452 213 484 1453 114 484 1454 187 485 1455 159 485 1456 152 485 1457 150 486 1458 216 486 1459 213 486 1460 187 487 1461 157 487 1462 159 487 1463 162 488 1464 157 488 1465 187 488 1466 60 489 1467 61 489 1468 92 489 1469 116 490 1470 201 490 1471 198 490 1472 129 491 1473 150 491 1474 213 491 1475 195 492 1476 157 492 1477 205 492 1478 146 493 1479 216 493 1480 150 493 1481 121 494 1482 198 494 1483 203 494 1484 121 495 1485 202 495 1486 203 495 1487 199 496 1488 121 496 1489 202 496 1490 184 497 1491 187 497 1492 152 497 1493 73 498 1494 191 498 1495 58 498 1496 136 499 1497 197 499 1498 202 499 1499</p>
        </polylist>
      </mesh>
    </geometry>
  </library_geometries>
  <library_visual_scenes>
    <visual_scene id="Scene" name="Scene">
      <node id="Waterpipe" name="Waterpipe" type="NODE">
        <scale sid="scale">1 1 1</scale>
        <translate sid="location">0 0 0</translate>
        <rotate sid="rotationX">1 0 0 0</rotate>
        <rotate sid="rotationY">0 1 0 0</rotate>
        <rotate sid="rotationZ">0 0 1 0</rotate>
        <instance_geometry url="#Waterpipe-mesh" name="Waterpipe">
          <bind_material>
            <technique_common>
            </technique_common>
          </bind_material>
        </instance_geometry>
      </node>
    </visual_scene>
  </library_visual_scenes>
  <scene>
    <instance_visual_scene url="#Scene"/>
  </scene>
</COLLADA>
