<?xml version="1.0" encoding="utf-8"?>
<COLLADA xmlns="http://www.collada.org/2005/11/COLLADASchema" version="1.4.1" xmlns:xsi="http://www.w3.org/2001/XMLSchema-instance">
  <asset>
    <contributor>
      <author>Blockbench user</author>
      <authoring_tool>Blockbench</authoring_tool>
    </contributor>
    <created>2025-10-04T05:35:08.465Z</created>
    <modified>2025-10-04T05:35:08.472Z</modified>
    <unit name="meter" meter="1.0"/>
    <up_axis>Y_UP</up_axis>
  </asset>
  <library_effects>
  </library_effects>
  <library_images>
  </library_images>
  <library_materials>
  </library_materials>
  <library_geometries>
    <geometry id="Wood-mesh" name="Wood">
      <mesh>
        <source id="Wood-mesh-positions">
          <float_array id="Wood-mesh-positions-array" count="756">-0.519524 -0.228471 -0.100151 -0.486596 -0.201539 -0.150513 -0.390313 -0.205293 -0.146332 -0.518975 -0.173508 -0.166443 -0.525597 -0.215455 -0.051537 -0.525597 -0.062264 -0.095765 -0.449547 -0.238709 -0.074379 -0.391778 -0.169144 -0.169068 -0.517968 -0.111428 -0.214875 -0.210518 -0.116837 -0.211121 -0.171334 -0.174638 -0.174057 -0.223534 -0.215836 -0.140534 -0.191094 -0.235276 -0.073754 -0.363549 -0.240464 -0.065415 -0.389336 -0.259553 -0.060395 -0.508233 -0.24698 -0.028347 -0.388207 -0.248521 -0.017361 -0.206978 -0.077927 -0.226975 -0.385277 -0.066582 -0.222855 -0.233193 -0.045735 -0.237732 -0.495812 -0.069466 -0.215851 -0.524865 -0.018002 -0.215943 -0.523308 0.092452 -0.197922 -0.514306 -0.017736 -0.240113 -0.31173 -0.030963 -0.239594 -0.33413 0.059585 -0.234681 -0.386468 -0.057614 -0.239441 -0.510705 0.048011 -0.227234 -0.37072 0.035854 -0.234833 -0.362145 0.0428 -0.213837 -0.092843 0.08065 -0.206955 -0.199456 0.051601 -0.209259 -0.51635 -0.24202 0.015015 -0.525536 0.021125 -0.087235 -0.526085 -0.011629 0.019297 -0.524285 -0.224335 0.015425 -0.51809 -0.249757 0.050384 -0.517357 -0.246018 0.106201 -0.522698 -0.218186 0.105575 -0.525597 -0.136933 0.059993 -0.51635 -0.230866 0.146759 -0.526513 -0.21927 0.1334 -0.524987 -0.146043 0.197403 -0.52459 -0.008039 0.266235 -0.523736 -0.142045 0.234924 -0.516564 -0.074631 0.26358 -0.516259 -0.139619 0.265442 -0.179909 -0.117516 0.265625 -0.520836 0.105399 -0.171921 -0.246224 0.119964 -0.188095 -0.517693 0.144607 -0.165726 -0.270852 0.145263 -0.15709 -0.520104 0.164169 -0.131943 -0.525719 0.173217 -0.072571 -0.522362 0.196441 -0.042347 -0.29757 0.179794 -0.053902 -0.526299 0.158874 0.015255 -0.517327 0.200637 0.015642 -0.526055 0.153228 0.116058 -0.520867 0.193084 0.092781 -0.517022 0.178222 0.138923 -0.523614 0.144973 0.191742 -0.523797 0.024959 0.238845 -0.523156 0.107719 0.212875 -0.508019 0.124435 0.206955 -0.517296 0.070945 0.2509 -0.516228 0.103866 0.243576 -0.516747 0.025285 0.266204 -0.518609 -0.048211 0.282837 -0.413872 0.012243 0.27304 -0.273858 0.012738 0.26773 -0.40255 -0.007308 0.291137 -0.272378 0.003609 0.287567 -0.517022 -0.009181 0.289123 -0.341118 0.189773 -0.014981 -0.27427 0.202651 0.015277 -0.22036 0.205489 0.015302 -0.314477 0.202666 0.076728 -0.403618 0.181747 0.124 -0.244149 0.20819 0.088661 -0.04223 0.169906 -0.092827 -0.164254 -0.142243 -0.207261 -0.096634 -0.175553 -0.185105 -0.186761 -0.056985 -0.238739 -0.049754 -0.136109 -0.1978 0.004661 -0.172166 -0.173691 -0.057574 -0.131226 -0.210816 0.006191 -0.072053 -0.224259 -0.036051 -0.028725 -0.239685 -0.152672 -0.119721 -0.236695 -0.061192 -0.089745 -0.232865 -0.15754 -0.094285 -0.253937 -0.070897 -0.059125 -0.256409 -0.115571 -0.031531 -0.258027 -0.139809 -0.009358 -0.240693 -0.151848 0.03337 -0.234986 -0.009755 0.050094 -0.234421 -0.203164 0.06552 -0.23436 -0.124375 0.022687 -0.213547 -0.016075 0.035567 -0.20662 0.234535 -0.241624 0.015164 -0.074532 -0.191499 -0.141571 -0.064995 -0.20752 -0.119645 0.135093 -0.243974 -0.073311 0.134605 -0.246796 -0.011713 -0.045819 0.120994 -0.198868 0.209449 0.147933 -0.162369 -0.070923 0.161315 -0.139405 -0.098237 0.187103 -0.036984 -0.163216 0.200942 -0.003857 -0.135636 0.208038 0.06493 -0.071019 0.194457 -0.064362 0.071792 0.182983 -0.062256 -0.007538 0.202453 0.015073 0.007175 0.205047 0.06876 -0.033174 0.191451 0.097366 0.159568 0.096984 -0.200333 0.259193 0.126876 -0.188965 0.168937 0.043872 -0.211243 0.139579 0.009201 -0.216324 0.081718 0.005486 -0.237915 0.014606 0.193526 -0.073761 0.01572 0.201354 0.015334 0.076362 0.200881 -0.07486 0.115272 0.206481 0.071952 0.039901 0.178588 0.126205 0.140144 0.218444 0.063907 0.135993 0.178909 0.14125 0.178062 0.205398 0.075302 0.150169 0.204223 0.01523 0.142036 0.205062 -0.033295 0.198707 0.193908 -0.019116 0.296455 0.19995 0.015647 0.207115 0.190032 -0.060234 -0.518517 -0.197007 0.18338 0.456397 -0.209412 0.174453 -0.517327 -0.178635 0.224533 0.085624 -0.177201 0.206314 0.001743 -0.057599 0.272338 0.458442 -0.249268 0.052173 0.329811 -0.217301 0.107414 0.458442 -0.140565 0.264862 -0.144585 -0.047631 0.288147 0.007366 -0.039971 0.291717 -0.0845 0.007097 0.290008 -0.181862 0.00329 0.284088 -0.102784 0.031665 0.262725 -0.044835 0.011698 0.270507 0.458015 -0.231263 0.147171 0.456062 -0.181413 0.193359 0.460151 -0.180512 0.224289 -0.143662 0.169051 0.144119 -0.309685 0.20816 0.031683 -0.30584 0.222839 0.050563 0.287116 0.102363 0.244766 -0.294121 0.12709 0.212051 0.053413 0.129607 0.199768 -0.170647 0.107513 0.218795 0.114234 0.136367 0.197418 -0.279473 0.26712 0.032701 -0.253731 0.248901 0.068733 -0.176095 0.204604 0.060661 -0.064133 0.175796 0.138191 0.174858 0.127517 0.212219 0.133598 -0.139954 -0.191269 0.13108 -0.088525 -0.217636 0.15319 -0.169892 -0.167145 0.140312 -0.064603 -0.232392 0.184059 0.024373 -0.238007 0.26667 -0.161729 -0.181824 0.353919 -0.176774 -0.167176 0.127632 -0.212006 -0.120026 0.285896 -0.216309 -0.109879 0.166892 -0.233109 -0.081833 0.183097 -0.228272 -0.12613 0.358344 -0.244187 -0.066933 0.339393 -0.224717 -0.124512 0.331214 -0.247987 -0.016072 0.349616 -0.102868 -0.207901 0.230995 -0.006727 -0.235382 0.453315 -0.045125 -0.235688 0.343452 -0.01705 -0.232651 0.226509 -0.017592 -0.217865 0.462196 -0.131242 -0.201767 0.456947 -0.181474 -0.166459 0.469886 -0.1521 -0.164322 0.466041 -0.220856 -0.12674 0.301917 -0.246583 0.014509 0.328376 -0.240876 0.015163 0.46952 -0.243317 0.014529 0.465431 -0.239823 -0.075531 0.455879 -0.244889 0.106598 0.470466 -0.220414 0.104133 0.46717 -0.223389 0.014654 0.469062 -0.128037 -0.029667 0.469978 -0.009138 0.015539 0.143196 0.168365 -0.123276 0.456367 0.174636 -0.094895 0.31208 0.184524 -0.053711 0.304725 0.197265 -0.067383 0.360145 0.197799 -0.029778 0.350105 0.014528 -0.22432 0.455757 0.047202 -0.220856 0.244483 0.073386 -0.205948 0.454231 0.098716 -0.202744 0.465431 0.102523 -0.160569 0.456123 0.134643 -0.180252 0.46894 0.143066 -0.121979 0.467506 -0.003986 -0.232193 0.468116 0.013923 -0.190354 0.469489 0.056693 -0.102494 0.46894 0.093452 -0.184754 0.469215 0.061401 -0.011006 0.469581 0.18428 -0.049164 0.424415 0.187026 -0.037899 0.469642 0.181533 0.015284 0.468604 0.19995 -0.021206 0.462806 0.20526 0.015017 0.469703 -0.004633 0.090423 0.469001 0.163802 0.121803 0.466834 0.032367 0.229934 0.467689 0.008478 0.252777 0.376869 0.20259 0.014644 0.341896 0.212203 0.088989 0.35279 0.193191 0.116439 0.299201 0.202361 0.075565 0.457893 0.190536 0.142547 0.458686 0.165527 0.170929 0.319374 0.167724 0.162155 0.308998 0.13774 0.198089 0.44828 0.136138 0.204254 0.107231 -0.049527 0.285156 0.455299 -0.064984 0.266571 0.454414 -0.045419 0.287658 0.157234 0.006825 0.286193 0.1408 0.016334 0.270172 0.316841 0.023883 0.266082 0.457313 0.108558 0.214325 0.39405 0.129852 0.212371 0.440589 -0.213471 0.100372 0.436775 -0.225922 0.132499 0.469795 -0.222108 0.133186 0.464607 -0.153947 0.20256 0.468482 -0.099885 0.146072 0.469581 -0.138108 0.226501 0.455299 -0.005674 0.286468 0.456336 0.022094 0.267425 0.332496 0.034637 0.296814 0.441749 0.026456 0.290222 0.470802 0.118446 0.195831 0.446998 0.097488 0.251739 0.455085 0.037021 0.257858</float_array>
          <technique_common>
            <accessor source="#Wood-mesh-positions-array" count="252" stride="3">
              <param name="X" type="float"/>
              <param name="Y" type="float"/>
              <param name="Z" type="float"/>
            </accessor>
          </technique_common>
        </source>
        <source id="Wood-mesh-normals">
          <float_array id="Wood-mesh-normals-array" count="1500">-0.013463 -0.87806 -0.478361 -0.330644 -0.725175 -0.603984 -0.989851 -0.105263 -0.095472 -0.99776 -0.018557 -0.064275 0.017314 -0.912198 -0.409384 -0.000952 -0.494918 -0.868939 0.016029 -0.531869 -0.846675 0.004835 -0.615149 -0.788396 -0.001425 -0.623573 -0.781764 -0.032644 -0.555091 -0.831149 -0.032419 -0.533064 -0.845454 -0.012088 -0.62185 -0.783043 -0.052136 -0.965351 -0.255692 0.008174 -0.916091 -0.400887 -0.166968 -0.834546 -0.525028 0.460793 -0.748067 -0.477562 -0.207239 -0.882243 -0.422728 0.607685 -0.772991 0.182218 -0.035221 -0.967853 0.249038 -0.998247 -0.025483 -0.053419 0.004661 -0.377693 -0.925919 -0.02884 -0.091784 -0.995361 -0.043812 -0.348534 -0.936272 -0.860669 0.448843 -0.240391 -0.063502 0.010318 -0.997928 -0.855925 -0.483523 -0.183297 -0.999898 0.014233 -0.000848 -0.045492 -0.437474 -0.89808 -0.812199 -0.459155 -0.359874 -0.043599 -0.349761 -0.935824 0.035476 0.062893 -0.99739 -0.264718 -0.856094 -0.443878 0.295483 -0.831333 -0.470717 -0.909422 0.12736 -0.395892 -0.853694 0.095558 -0.511933 0.019581 0.04594 -0.998752 -0.020848 0.052734 -0.998391 -0.036366 0.194024 -0.980322 -0.026705 0.047571 -0.998511 0.093701 0.566551 -0.818682 0.063315 0.939493 -0.336666 -0.543146 0.837812 -0.055342 -0.012901 0.266994 -0.963612 -0.060313 0.815488 0.575623 -0.880908 -0.472997 0.016596 -0.052836 -0.96897 -0.241464 -0.022772 -0.993736 0.109407 -0.840239 -0.533606 -0.096249 -0.999998 0.00054 0.001871 -0.999986 -0.000545 -0.005321 -0.912083 -0.408397 -0.036288 -0.905442 -0.403181 -0.13274 -0.978977 -0.202254 0.026404 -0.981761 -0.187725 0.030087 -0.99959 -0.023409 0.016481 -0.999505 -0.02484 0.01929 -0.999992 -0.00317 0.002232 -0.990298 0.039421 0.133253 -0.984229 0.054198 0.168394 0.514951 -0.413649 -0.750813 -0.99987 0.009309 0.013189 -0.999982 -0.000144 0.006056 -0.999287 -0.014514 0.034864 -0.855063 -0.123138 0.503691 -0.971313 0.002255 0.237795 -0.002425 0.028628 0.999587 -0.993964 0.100238 0.044586 -0.073349 0.895516 -0.438942 -0.066533 0.160923 -0.984722 0.019705 0.782258 -0.622643 -0.986797 0.099318 -0.127935 0.0152 0.865758 -0.500231 -0.990671 0.08487 -0.106625 -0.998657 0.00378 -0.051663 -0.999985 -0.000686 -0.005364 0.027186 0.79119 -0.610966 -0.996025 0.041215 0.07896 -0.997537 -0.002913 -0.07008 -0.975456 0.208914 0.069579 -0.977622 0.209893 0.014123 -0.999997 -0.001199 0.002353 -0.993437 0.108917 -0.034926 -0.96569 0.212713 0.148984 -0.955496 0.288358 0.062269 -0.999912 -0.006578 0.011517 -0.999317 0.014807 0.033846 -0.999572 0.028698 0.005634 -0.996365 0.032436 0.078773 -0.198198 0.481776 0.853586 -0.971141 0.078225 0.225313 -0.969878 0.082457 0.229211 -0.966091 0.071539 0.248095 -0.944714 0.222568 0.240787 -0.720911 0.170296 0.671779 0.02738 0.62492 0.780208 0.039645 0.691025 0.721742 0.054644 -0.345173 0.936947 -0.023704 0.5537 0.832379 -0.998632 0.034242 0.039511 -0.014778 -0.158403 0.987264 -0.999827 0.002618 -0.018439 0.048152 0.995926 -0.076245 0.063395 0.98149 -0.180714 -0.008242 0.926531 -0.376128 -0.050088 0.954061 -0.295397 -0.008294 0.99995 -0.005671 -0.038742 0.994664 0.095614 -0.012991 0.923221 0.384051 -0.112874 0.969779 0.216304 0.010642 0.952049 0.305761 0.00046 0.988593 -0.150613 -0.298912 -0.650409 -0.698298 -0.112994 -0.699039 -0.7061 -0.123336 -0.364808 -0.922878 -0.14338 -0.375866 -0.915514 -0.11633 -0.3987 -0.909674 0.097426 -0.447397 -0.889013 0.081519 -0.916071 -0.392644 0.501972 -0.666221 -0.551519 0.060103 -0.282282 -0.957447 0.063397 -0.804466 -0.590606 -0.704611 -0.401919 -0.584794 0.183687 -0.448832 -0.874533 0.607307 -0.330942 -0.722257 -0.787514 -0.441909 -0.429578 0.205654 -0.521832 -0.827888 0.202529 -0.555771 -0.806288 0.630214 -0.337791 -0.699091 -0.002853 -0.063137 -0.998001 0.206449 0.27925 -0.937762 -0.422121 0.225074 -0.878155 -0.240831 0.198439 -0.950065 0.137261 0.698834 -0.701991 -0.135851 0.09346 -0.986311 0.036173 0.14231 -0.989161 -0.010617 0.045593 -0.998904 -0.004034 0.067977 -0.997679 0.005805 0.028729 -0.99957 0.00109 0.030001 -0.999549 0.497846 0.787562 0.363175 -0.100238 0.833288 0.543675 0.359581 0.933105 0.004179 -0.133722 0.890488 0.434912 0.034394 0.233426 -0.971766 0.000477 -0.980064 0.198683 0.116164 -0.375732 -0.919419 0.073213 -0.923893 -0.375581 -0.058485 -0.946608 -0.317039 0.065857 -0.791809 -0.607208 0.127783 -0.718353 -0.683842 0.091519 -0.943306 -0.319059 -0.021331 -0.828439 -0.559673 -0.016547 -0.658846 -0.752096 -0.007757 -0.998919 -0.045825 0.005015 -0.986638 -0.162852 -0.040682 0.871257 0.489139 -0.00801 0.40694 -0.91342 -0.053206 0.255519 -0.965339 -0.038846 0.758878 -0.650074 -0.010647 0.83867 -0.544536 -0.011046 0.799396 -0.600704 -0.005667 0.771503 -0.6362 0.003201 0.983054 -0.18329 -0.005028 0.96084 -0.277059 -0.009248 0.953022 -0.302761 -0.013137 0.96495 -0.262103 -0.029406 0.900497 -0.433867 -0.038016 0.940852 -0.33668 0.039345 0.992218 -0.118132 -0.453108 -0.638605 -0.621995 -0.071017 -0.943386 -0.324005 0.002792 0.994743 -0.102363 0.002967 0.994595 -0.103791 0.022365 0.998271 -0.054363 0.007103 0.899234 0.437411 0.02973 -0.02987 -0.999112 0.016139 0.020054 -0.999669 0.014108 0.180688 -0.983439 0.025783 0.279125 -0.959909 0.004772 0.788335 -0.615227 0.012528 0.203318 -0.979033 -0.022873 -0.046369 -0.998662 -0.032309 0.171654 -0.984627 0.118952 0.874977 -0.469325 0.396196 0.773716 0.494361 -0.004829 0.068241 -0.997657 -0.000161 0.994985 -0.100027 0.098925 0.99226 -0.075054 -0.107626 0.990493 -0.08568 -0.119328 0.989174 -0.085418 -0.011143 0.997433 -0.070728 -0.035061 0.99897 -0.028812 -0.024665 0.902595 0.429784 -0.482155 0.84368 -0.236074 -0.07355 0.889598 0.450784 0.163951 0.874773 0.455952 -0.494302 0.801719 -0.336024 0.001889 0.999252 -0.038616 0.369893 0.909535 -0.189541 -0.083129 0.996052 0.031155 0.147326 0.985194 -0.087678 0.196958 0.98028 -0.016062 0.28558 0.289697 -0.913521 -0.01706 0.992078 -0.124459 -0.026231 0.994728 -0.099132 -0.953953 -0.185883 0.235416 -0.863382 -0.394909 0.314035 -0.003129 -0.734342 0.678772 -0.983813 -0.151312 0.095999 0.014478 -0.913197 0.407261 -0.980994 -0.186768 0.052608 -0.939529 -0.235246 0.248888 -0.990609 -0.121865 0.061997 0.005688 -0.588724 0.808314 0.000881 -0.976909 -0.213656 0.000377 -0.997764 0.066832 0.001627 -0.955655 -0.294484 -0.00218 0.022068 0.999754 0.000578 -0.01708 0.999854 0.004058 0.079391 0.996835 -0.005683 -0.86877 0.495182 0.021715 -0.74269 0.669283 -0.014154 -0.023986 0.999612 -0.023049 -0.008689 0.999697 0.038563 0.107421 0.993465 -0.061986 0.034134 0.997493 0.019222 0.908797 0.416795 -0.055975 0.695395 0.716445 -0.070195 0.717433 0.693082 0.194175 0.790128 0.581372 0.000557 -0.978656 -0.205505 -0.000582 -0.780531 0.625117 -0.000245 -0.943756 -0.330642 0.000468 -0.559605 0.82876 0.008385 -0.855417 0.517871 -0.001936 -0.989866 -0.14199 -0.001217 -0.723635 0.690182 0.013338 0.84546 0.533873 0.017969 0.933877 0.357144 -0.005462 0.812321 0.583185 -0.215531 -0.966295 -0.140785 -0.148671 0.795133 -0.58793 -0.943668 0.325277 -0.060717 0.00307 0.317829 0.948143 0.004913 0.213909 0.976841 -0.002825 0.260811 0.965386 -0.00104 0.217195 0.976128 -0.035602 0.667679 0.743597 0.012611 0.908706 0.417246 -0.02667 0.355089 0.934452 -0.010291 0.996151 -0.087042 -0.016194 0.232835 0.972382 -0.001517 0.992173 0.124861 0.000889 0.595655 0.80324 0.007287 0.867786 0.496885 -0.699495 0.133302 -0.702095 -0.509015 0.565024 0.649346 0.842383 0.202908 -0.499218 -0.518225 0.751478 0.408319 -0.183761 0.396937 0.899262 0.923852 0.030691 -0.381518 -0.05247 0.997176 -0.05373 0.043273 0.998804 -0.022742 -0.095846 0.988981 0.11283 0.182415 0.928132 0.324494 -0.12121 0.895362 0.428527 0.00524 0.89694 0.44212 -0.056365 0.945765 0.319925 -0.022959 0.798916 0.601004 0.032361 0.874186 0.484512 0.017654 0.929011 0.369632 -0.006726 0.906802 0.421502 -0.000632 0.322134 0.946694 0.010145 0.245684 0.969297 -0.000959 0.984633 0.174633 0.001597 0.985895 0.167359 0.024258 -0.399686 -0.916331 0.018826 -0.535946 -0.844042 -0.013062 -0.45669 -0.88953 0.044224 -0.609124 -0.791841 0.39882 -0.402832 -0.823813 -0.023041 -0.518399 -0.854828 -0.036044 -0.366191 -0.929841 0.030453 -0.053193 -0.99812 0.011791 -0.068751 -0.997564 -0.069717 -0.539594 -0.839034 -0.026572 -0.772187 -0.63484 0.033614 -0.890743 -0.453262 -0.004353 -0.744414 -0.667704 -0.020052 -0.811396 -0.584153 -0.020363 -0.826607 -0.562411 0.234039 -0.78452 -0.574242 -0.027761 -0.807053 -0.589826 0.108419 -0.790309 -0.60304 0.19162 -0.496594 -0.846567 -0.72492 -0.604013 -0.33115 0.125089 -0.990184 -0.062362 0.3132 -0.948802 -0.040986 -0.007136 -0.844206 -0.535971 -0.04025 -0.977035 -0.209244 -0.216278 -0.944278 -0.248119 -0.007782 -0.996873 -0.078631 -0.001623 -0.980845 0.194781 0.00125 -0.982835 0.184482 0.012849 -0.420102 -0.907386 0.010619 -0.068178 -0.997617 -0.008099 -0.038931 -0.999209 0.024164 -0.53158 -0.846663 0.050831 0.301893 -0.951986 0.064104 0.840622 0.537816 0.438861 0.708929 0.552106 0.191416 0.575311 0.795221 -0.172768 0.93763 0.301665 0.010363 -0.44865 -0.893647 -0.042677 -0.369961 -0.928066 -0.03936 -0.357856 -0.932947 0.020204 -0.634834 -0.772385 -0.020463 -0.5735 -0.81895 0.859103 -0.351353 -0.372147 -0.02765 -0.712999 -0.700619 0.00718 -0.665978 -0.745937 0.000953 -0.11821 0.992988 -0.073614 -0.99698 -0.024751 0.199406 -0.951392 0.234713 0.007721 -0.96902 -0.24686 -0.015875 -0.975239 0.220582 -0.01779 -0.986757 -0.161228 0.042705 -0.99826 -0.040668 0.036229 -0.997816 -0.055225 0.012536 -0.945974 -0.324001 0.022479 -0.937595 -0.347002 0.922697 0.357816 0.14352 0.876816 -0.363317 -0.314953 0.001124 -0.996774 0.080253 0.859749 -0.504243 0.081059 0.948656 0.11001 0.296564 0.93679 -0.349142 -0.022899 0.992274 0.117268 -0.040503 0.998705 -0.036354 -0.035579 0.999543 -0.026544 -0.014437 0.999205 -0.037731 0.012857 0.999917 -0.002942 -0.012524 0.99991 -0.010761 0.008042 -0.019665 0.985313 -0.16962 0.005085 0.889753 -0.456413 0.021341 0.900443 -0.43445 -0.009886 0.993827 -0.110502 -0.010343 0.932737 -0.360408 -0.024009 0.948408 -0.316144 -0.032985 0.80366 -0.594173 -0.05019 0.993321 -0.103899 0.055202 0.997412 -0.046073 0.00411 -0.730467 -0.682936 0.493324 -0.48794 -0.720102 -0.076743 0.996254 -0.03986 -0.062853 -0.87155 -0.486262 0.055177 -0.584274 -0.809678 0.459364 -0.586847 -0.66678 0.021581 0.127053 -0.991661 -0.125384 -0.010563 -0.992052 -0.027484 0.260408 -0.965107 -0.035216 0.21729 -0.975472 -0.035369 0.263483 -0.964015 -0.009314 0.199628 -0.979827 -0.025552 0.330907 -0.943317 -0.009192 0.200046 -0.979743 -0.009811 0.383849 -0.923344 0.133199 0.983285 -0.12413 0.058077 -0.509324 -0.858613 0.963085 0.137136 -0.23165 -0.003182 0.781111 -0.624385 0.018022 0.905366 -0.42425 -0.298365 -0.582463 -0.756119 0.716836 -0.190288 -0.670773 0.962012 -0.100804 -0.253717 -0.005432 0.08651 -0.996236 0.999808 0.007847 -0.017936 -0.023785 0.259705 -0.965395 0.117569 0.912323 -0.39223 0.999784 0.007627 -0.019337 0.999993 0.002685 -0.002645 0.980654 0.181071 0.074369 0.996836 -0.011408 -0.078657 0.999929 0.011716 0.002392 0.999932 0.003875 -0.010996 0.999993 -0.002016 0.003099 0.739297 0.58321 -0.336611 0.803397 0.538308 -0.254514 0.007481 0.978013 -0.20841 0.248216 0.286608 0.925335 0.007547 0.97802 -0.208375 0.999707 0.001729 -0.02414 0.369592 -0.066602 -0.926804 0.999627 0.002404 -0.027222 0.038601 0.738076 -0.673613 -0.008056 0.989208 -0.146299 0.9545 0.276265 0.112283 0.999992 0.001767 0.003566 0.959464 0.277015 0.051885 0.999974 0.002955 0.006509 0.99979 0.000354 0.020467 0.998984 0.044191 0.008824 0.555931 0.801589 -0.21999 0.778807 0.036026 -0.626228 0.999894 -0.009588 -0.010958 0.958665 0.119233 -0.25835 0.215135 -0.615237 -0.75842 0.011522 0.999448 -0.031172 -0.033844 0.994943 -0.094565 -0.030496 0.994931 -0.095824 -0.034265 0.988985 -0.143997 -0.03131 0.995927 0.08455 0.670402 0.707412 0.223897 -0.215749 0.976007 -0.029385 -0.356437 0.695898 0.623441 0.025131 0.998829 -0.041343 0.022297 0.922712 0.384845 -0.003364 0.99341 0.114565 0.940077 0.332696 0.074627 0.950117 0.246699 0.190834 -0.144363 0.740419 0.656459 -0.147615 0.905964 0.396786 -0.01622 0.878474 0.477515 0.014699 0.929549 0.368406 -0.027869 0.771457 0.635671 -0.02548 0.771169 0.63612 -0.007703 0.798567 0.601856 -0.007843 0.910355 0.413753 0.063277 0.813401 -0.578251 -0.000371 -0.031261 0.999511 -0.025938 -0.73573 0.676779 -0.006162 -0.822529 0.568689 0.002487 -0.516114 0.856517 -0.002851 -0.022724 0.999738 -0.000274 -0.712588 0.701582 -0.007062 -0.012134 0.999901 0.058686 -0.070399 0.995791 0.01582 0.067099 0.997621 -0.093197 0.810733 0.57795 -0.024217 0.982881 0.182641 0.00892 0.863892 0.503599 -0.006937 0.345586 0.938361 -0.024114 0.848635 0.528429 0.001274 0.453235 0.89139 -0.00288 0.261097 0.965308 -0.056151 0.738704 0.671687 -0.00022 0.980154 0.19824 0.006619 0.207272 0.978261 -0.001614 0.086624 0.99624 0.095619 0.368915 0.924532 -0.009333 0.840937 0.541053 0.025123 0.085343 0.996035 0.031816 0.578446 0.8151 -0.02623 0.386521 0.921907 0.00934 -0.932756 -0.360386 0.99096 -0.111652 0.074372 0.006768 -0.936465 -0.350696 0.073866 -0.482266 -0.872905 0.110616 -0.87167 -0.477446 0.997438 0.00318 0.071467 0.999805 0.008882 0.017633 0.814739 -0.381977 0.436227 0.788054 -0.401501 0.466656 0.992355 -0.060688 0.10746 0.924692 -0.343017 0.165179 0.995337 0.025783 0.092954 0.974879 0.17787 -0.134062 0.991283 -0.113227 -0.067355 -0.775966 -0.573756 -0.262068 0.99999 0.002666 0.003512 0.959216 0.033542 0.280679 0.999875 0.010839 0.011528 0.89426 -0.067757 0.442388 -0.010299 -0.999482 0.030477 0.000332 0.02992 0.999552 0.026502 0.648721 0.760565 0.997941 -0.0204 0.060811 0.003771 -0.732983 0.680237 0.946777 -0.102379 0.305176 -0.000686 0.565588 0.824688 -0.015319 -0.94131 0.337195 -0.065021 -0.986961 0.147242 0.924607 0.334415 0.182397 0.994921 -0.073228 -0.069071 -0.374452 0.3564 0.856017 -0.02045 0.753012 0.657689 0.672639 0.438069 0.596366 0.951743 0.171123 0.254758 0.933278 0.180264 0.31064 0.01664 0.957517 0.287896 -0.040475 0.095239 0.994631 0.919169 0.15938 0.360176 0.031255 0.272994 0.961508 -0.107295 0.954206 -0.279247 0.090693 0.935085 0.342623 0.815859 0.358942 0.453359 0.899092 0.287134 0.330436 0.869267 0.357542 0.341378 0.86528 0.261136 0.427901 -0.011002 0.824835 0.565266</float_array>
          <technique_common>
            <accessor source="#Wood-mesh-normals-array" count="500" stride="3">
              <param name="X" type="float"/>
              <param name="Y" type="float"/>
              <param name="Z" type="float"/>
            </accessor>
          </technique_common>
        </source>
        <source id="Wood-mesh-map-0">
          <float_array id="Wood-mesh-map-0-array" count="3000">0.252686 0.917725 0.261719 0.904053 0.286865 0.909424 0.261719 0.904053 0.252686 0.917725 0.253174 0.894775 0.253174 0.894775 0.252686 0.917725 0.240723 0.917969 0.253174 0.894775 0.240723 0.917969 0.221191 0.889648 0.252686 0.917725 0.286865 0.909424 0.269043 0.930176 0.261719 0.904053 0.253174 0.894775 0.286621 0.896973 0.261719 0.904053 0.286621 0.896973 0.286865 0.909424 0.286621 0.896973 0.253174 0.894775 0.253662 0.87915 0.286621 0.896973 0.253662 0.87915 0.330078 0.873047 0.286621 0.896973 0.330078 0.873047 0.34082 0.889893 0.286621 0.896973 0.34082 0.889893 0.286865 0.909424 0.286865 0.909424 0.34082 0.889893 0.330078 0.906494 0.286865 0.909424 0.330078 0.906494 0.337158 0.927979 0.286865 0.909424 0.337158 0.927979 0.291016 0.935547 0.283691 0.937256 0.269043 0.930176 0.286865 0.909424 0.283691 0.937256 0.286865 0.909424 0.291016 0.935547 0.269043 0.930176 0.283691 0.937256 0.263428 0.949951 0.283691 0.937256 0.291016 0.935547 0.285645 0.949951 0.283691 0.937256 0.285645 0.949951 0.263428 0.949951 0.720459 0.608643 0.688965 0.556641 0.754883 0.584473 0.905518 0.58252 0.914062 0.615723 0.754883 0.584473 0.905518 0.58252 0.754883 0.584473 0.823486 0.560547 0.905518 0.58252 0.823486 0.560547 0.901367 0.56958 0.754883 0.584473 0.688965 0.556641 0.76123 0.5625 0.754883 0.584473 0.76123 0.5625 0.823486 0.560547 0.76123 0.5625 0.688965 0.556641 0.749268 0.535889 0.749268 0.535889 0.688965 0.556641 0.751465 0.490967 0.823486 0.560547 0.76123 0.5625 0.766602 0.533203 0.766602 0.533203 0.76123 0.5625 0.749268 0.535889 0.901367 0.56958 0.823486 0.560547 0.86084 0.545898 0.901367 0.56958 0.86084 0.545898 0.856934 0.494141 0.823486 0.560547 0.766602 0.533203 0.825439 0.549072 0.823486 0.560547 0.825439 0.549072 0.86084 0.545898 0.766602 0.533203 0.749268 0.535889 0.765381 0.507324 0.765381 0.507324 0.749268 0.535889 0.751465 0.490967 0.825439 0.549072 0.766602 0.533203 0.836182 0.495117 0.825439 0.549072 0.836182 0.495117 0.86084 0.545898 0.836182 0.495117 0.766602 0.533203 0.765381 0.507324 0.86084 0.545898 0.836182 0.495117 0.856934 0.494141 0.765381 0.507324 0.751465 0.490967 0.843506 0.4729 0.765381 0.507324 0.843506 0.4729 0.836182 0.495117 0.836182 0.495117 0.843506 0.4729 0.856934 0.494141 0.843506 0.4729 0.751465 0.490967 0.900146 0.346191 0.856934 0.494141 0.843506 0.4729 0.894043 0.476562 0.134521 0.260254 0.150391 0.265625 0.140625 0.271973 0.134521 0.260254 0.140625 0.271973 0.129395 0.275635 0.130127 0.249512 0.134521 0.260254 0.115234 0.276855 0.134521 0.260254 0.130127 0.249512 0.150391 0.265625 0.202637 0.241699 0.186279 0.26001 0.150391 0.265625 0.202637 0.241699 0.150391 0.265625 0.18042 0.222412 0.150391 0.265625 0.130127 0.249512 0.133789 0.24585 0.133789 0.24585 0.130127 0.249512 0.124512 0.243164 0.133789 0.24585 0.124512 0.243164 0.121338 0.22876 0.133789 0.24585 0.121338 0.22876 0.125977 0.223877 0.150391 0.265625 0.133789 0.24585 0.148926 0.227539 0.148926 0.227539 0.133789 0.24585 0.125977 0.223877 0.150391 0.265625 0.148926 0.227539 0.18042 0.222412 0.18042 0.222412 0.148926 0.227539 0.125977 0.223877 0.18042 0.222412 0.125977 0.223877 0.120605 0.212891 0.18042 0.222412 0.120605 0.212891 0.125 0.210693 0.18042 0.222412 0.125 0.210693 0.14209 0.186768 0.18042 0.222412 0.14209 0.186768 0.167236 0.164062 0.167236 0.164062 0.14209 0.186768 0.140625 0.174805 0.167236 0.164062 0.140625 0.174805 0.152588 0.162842 0.152588 0.162842 0.140625 0.174805 0.139404 0.170166 0.152588 0.162842 0.139404 0.170166 0.126709 0.091064 0.883057 0.812988 0.878174 0.79834 0.945801 0.813232 0.878174 0.79834 0.883057 0.812988 0.748047 0.865234 0.748047 0.865234 0.883057 0.812988 0.888184 0.833252 0.748047 0.865234 0.888184 0.833252 0.767578 0.880615 0.888184 0.833252 0.883057 0.812988 0.906982 0.841553 0.888184 0.833252 0.906982 0.841553 0.767578 0.880615 0.345703 0.238281 0.315186 0.233154 0.29541 0.202637 0.345703 0.238281 0.29541 0.202637 0.3396 0.1604 0.345703 0.238281 0.3396 0.1604 0.394287 0.144531 0.36084 0.250488 0.289307 0.34082 0.345703 0.238281 0.36084 0.250488 0.345703 0.238281 0.394287 0.144531 0.36084 0.250488 0.394287 0.144531 0.390869 0.231689 0.36084 0.250488 0.390869 0.231689 0.390625 0.253662 0.390625 0.253662 0.390869 0.231689 0.442383 0.229736 0.442383 0.229736 0.390869 0.231689 0.394287 0.144531 0.390625 0.253662 0.442383 0.229736 0.430176 0.25 0.430176 0.25 0.442383 0.229736 0.454102 0.243408 0.454102 0.243408 0.442383 0.229736 0.481201 0.226074 0.442383 0.229736 0.394287 0.144531 0.506348 0.165283 0.442383 0.229736 0.506348 0.165283 0.481201 0.226074 0.506348 0.165283 0.394287 0.144531 0.520508 0.148682 0.481201 0.226074 0.506348 0.165283 0.492188 0.207275 0.481201 0.226074 0.492188 0.207275 0.494629 0.218994 0.492188 0.207275 0.506348 0.165283 0.512451 0.188965 0.492188 0.207275 0.512451 0.188965 0.508301 0.205811 0.512451 0.188965 0.506348 0.165283 0.520752 0.166016 0.520752 0.166016 0.506348 0.165283 0.520508 0.148682 0.520752 0.166016 0.520508 0.148682 0.531738 0.12915 0.56665 0.192871 0.621582 0.238525 0.520752 0.166016 0.56665 0.192871 0.520752 0.166016 0.57959 0.185547 0.634766 0.223145 0.57959 0.185547 0.531738 0.12915 0.57959 0.185547 0.520752 0.166016 0.533691 0.149414 0.533691 0.149414 0.520752 0.166016 0.531738 0.12915 0.533691 0.149414 0.531738 0.12915 0.57959 0.185547 0.984619 0.641113 0.984619 0.73584 0.95752 0.702637 0.923096 0.852783 0.946045 0.857422 0.927734 0.932373 0.923096 0.852783 0.927734 0.932373 0.901367 0.932617 0.927734 0.932373 0.946045 0.857422 0.950439 0.946777 0.927734 0.932373 0.950439 0.946777 0.951416 0.96582 0.950439 0.946777 0.946045 0.857422 0.97998 0.930908 0.97998 0.930908 0.946045 0.857422 0.979492 0.849609 0.97998 0.930908 0.979492 0.849609 0.999512 0.900146 0.97998 0.930908 0.999512 0.900146 0.998779 0.94751 0.999512 0.900146 0.979492 0.849609 0.999023 0.848145 0.882324 0.338623 0.882324 0.084473 0.913574 0.334229 0.354248 0.869385 0.398438 0.849854 0.394043 0.87793 0.394043 0.87793 0.398438 0.849854 0.427979 0.887207 0.398438 0.849854 0.354248 0.869385 0.32251 0.854736 0.398438 0.849854 0.32251 0.854736 0.314697 0.833984 0.314697 0.833984 0.32251 0.854736 0.289062 0.856934 0.430908 0.757568 0.477783 0.747803 0.398438 0.849854 0.430908 0.757568 0.398438 0.849854 0.419678 0.759521 0.430908 0.757568 0.419678 0.759521 0.387939 0.699463 0.387939 0.699463 0.419678 0.759521 0.34375 0.712891 0.419678 0.759521 0.398438 0.849854 0.374756 0.825684 0.374756 0.825684 0.398438 0.849854 0.314697 0.833984 0.419678 0.759521 0.374756 0.825684 0.383301 0.750732 0.419678 0.759521 0.383301 0.750732 0.34375 0.712891 0.374756 0.825684 0.314697 0.833984 0.349854 0.817627 0.374756 0.825684 0.349854 0.817627 0.383301 0.750732 0.383301 0.750732 0.349854 0.817627 0.35376 0.749512 0.383301 0.750732 0.35376 0.749512 0.34375 0.712891 0.35376 0.749512 0.349854 0.817627 0.322998 0.772217 0.35376 0.749512 0.322998 0.772217 0.34375 0.712891 0.322998 0.772217 0.349854 0.817627 0.296387 0.781982 0.296387 0.781982 0.349854 0.817627 0.314697 0.833984 0.322998 0.772217 0.296387 0.781982 0.34375 0.712891 0.296387 0.781982 0.314697 0.833984 0.262451 0.775635 0.296387 0.781982 0.262451 0.775635 0.34375 0.712891 0.262451 0.775635 0.314697 0.833984 0.289062 0.856934 0.34375 0.712891 0.262451 0.775635 0.298096 0.667969 0.262451 0.775635 0.289062 0.856934 0.222412 0.798828 0.222412 0.798828 0.289062 0.856934 0.187256 0.887939 0.262451 0.775635 0.222412 0.798828 0.220703 0.781738 0.298096 0.667969 0.262451 0.775635 0.255615 0.747314 0.255615 0.747314 0.262451 0.775635 0.220703 0.781738 0.298096 0.667969 0.255615 0.747314 0.274902 0.662109 0.274902 0.662109 0.255615 0.747314 0.220703 0.781738 0.945801 0.381104 0.945801 0.575684 0.937256 0.54248 0.864258 0.911865 0.883789 0.916016 0.839355 0.919678 0.864258 0.911865 0.839355 0.919678 0.854492 0.903076 0.864258 0.911865 0.854492 0.903076 0.880859 0.9021 0.880859 0.9021 0.854492 0.903076 0.849609 0.897461 0.880859 0.9021 0.849609 0.897461 0.888428 0.884521 0.888428 0.884521 0.849609 0.897461 0.873291 0.871826 0.873291 0.871826 0.849609 0.897461 0.796631 0.904785 0.873291 0.871826 0.796631 0.904785 0.912598 0.851318 0.912598 0.851318 0.796631 0.904785 0.790283 0.890137 0.116943 0.775635 0.104004 0.769775 0.114014 0.640381 0.986328 0.567139 0.99292 0.613037 0.976074 0.567383 0.789307 0.304443 0.80542 0.153076 0.808594 0.251465 0.789307 0.304443 0.808594 0.251465 0.80249 0.322021 0.80249 0.322021 0.808594 0.251465 0.823242 0.243408 0.80249 0.322021 0.823242 0.243408 0.814453 0.413086 0.814453 0.413086 0.823242 0.243408 0.828369 0.314453 0.828369 0.314453 0.823242 0.243408 0.838379 0.156006 0.828369 0.314453 0.838379 0.156006 0.844727 0.325195 0.192139 0.216553 0.198975 0.142578 0.234131 0.070312 0.234131 0.070312 0.198975 0.142578 0.216064 0.074951 0.216064 0.074951 0.198975 0.142578 0.17334 0.14209 0.216064 0.074951 0.17334 0.14209 0.193604 0.083008 0.193604 0.083008 0.17334 0.14209 0.178711 0.093262 0.193604 0.083008 0.178711 0.093262 0.165283 0.065918 0.216064 0.074951 0.193604 0.083008 0.219727 0.063965 0.216064 0.074951 0.219727 0.063965 0.260742 0.037109 0.219727 0.063965 0.193604 0.083008 0.187744 0.030518 0.187744 0.030518 0.193604 0.083008 0.165283 0.065918 0.187744 0.030518 0.165283 0.065918 0.169189 0.016357 0.169189 0.016357 0.165283 0.065918 0.155273 0.034912 0.842773 0.123047 0.831299 0.085693 0.826172 0.02832 0.831299 0.085693 0.842773 0.123047 0.827637 0.150635 0.019531 0.265381 0.013428 0.237793 0.066895 0.161377 0.066895 0.161377 0.013428 0.237793 0.075684 0.115234 0.075684 0.115234 0.013428 0.237793 0.05127 0.127197 0.019531 0.265381 0.066895 0.161377 0.090332 0.169434 0.019531 0.265381 0.090332 0.169434 0.053955 0.244629 0.053955 0.244629 0.090332 0.169434 0.0979 0.188477 0.053955 0.244629 0.0979 0.188477 0.092773 0.21582 0.053955 0.244629 0.092773 0.21582 0.065674 0.25293 0.065674 0.25293 0.092773 0.21582 0.098633 0.270752 0.114014 0.003906 0.155762 0 0.138672 0.044922 0.114014 0.003906 0.138672 0.044922 0.128662 0.065674 0.114014 0.003906 0.128662 0.065674 0.119873 0.04248 0.114014 0.003906 0.119873 0.04248 0.087891 0.004395 0.119873 0.04248 0.128662 0.065674 0.075195 0.067139 0.119873 0.04248 0.075195 0.067139 0.087891 0.004395 0.075195 0.067139 0.128662 0.065674 0.109863 0.082764 0.075195 0.067139 0.109863 0.082764 0.064209 0.070801 0.064209 0.070801 0.109863 0.082764 0.067627 0.106934 0.064209 0.070801 0.067627 0.106934 0.046387 0.075684 0.075195 0.067139 0.064209 0.070801 0.059814 0.045654 0.075195 0.067139 0.059814 0.045654 0.087891 0.004395 0.059814 0.045654 0.064209 0.070801 0.046387 0.075684 0.087891 0.004395 0.059814 0.045654 0.051025 0.021973 0.059814 0.045654 0.046387 0.075684 0.040039 0.043701 0.059814 0.045654 0.040039 0.043701 0.051025 0.021973 0.051025 0.021973 0.040039 0.043701 0.037354 0.003418 0.040039 0.043701 0.046387 0.075684 0.001221 0.056396 0.040039 0.043701 0.001221 0.056396 0.020752 0.031738 0.476807 0.318604 0.488037 0.33252 0.477295 0.342529 0.477295 0.342529 0.488037 0.33252 0.489746 0.335205 0.477295 0.342529 0.489746 0.335205 0.787598 0.408691 0.476807 0.318604 0.477295 0.342529 0.470703 0.332275 0.470703 0.332275 0.477295 0.342529 0.289551 0.394287 0.476807 0.318604 0.470703 0.332275 0.471191 0.303467 0.471191 0.303467 0.470703 0.332275 0.466797 0.289307 0.098145 0.656006 0.102783 0.665771 0.090088 0.655029 0.098145 0.656006 0.090088 0.655029 0.101562 0.527344 0.533936 0.73291 0.293213 0.654785 0.296387 0.645996 0.904297 0.014893 0.918701 0.014893 0.915039 0.264893 0.535156 0.877197 0.744629 0.878418 0.536865 0.887939 0.744629 0.878418 0.535156 0.877197 0.536621 0.870117 0.299805 0.015137 0.581543 0.020996 0.396973 0.023682 0.396973 0.023682 0.581543 0.020996 0.299316 0.033936 0.008545 0.128418 0.000244 0.224854 0.001465 0.087402 0.008545 0.128418 0.001465 0.087402 0.010498 0.086182 0.000244 0.224854 0.008545 0.128418 0.020264 0.161377 0.008545 0.128418 0.010498 0.086182 0.026855 0.111328 0.020264 0.161377 0.008545 0.128418 0.022949 0.137451 0.022949 0.137451 0.008545 0.128418 0.026855 0.111328 0.020264 0.161377 0.022949 0.137451 0.02832 0.160645 0.02832 0.160645 0.022949 0.137451 0.034912 0.117188 0.034912 0.117188 0.022949 0.137451 0.026855 0.111328 0.034912 0.117188 0.026855 0.111328 0.042725 0.104492 0.919678 0.346191 0.919678 0.595703 0.912354 0.403809 0.486328 0.439453 0.783447 0.428955 0.783447 0.439453 0.783447 0.428955 0.486328 0.439453 0.743896 0.41748 0.300293 0.057617 0.300293 0.047363 0.597656 0.047363 0.597656 0.047363 0.300293 0.047363 0.41333 0.04126 0.644531 0.389893 0.346436 0.389893 0.530273 0.384277 0.767822 0.023438 0.767822 0.039795 0.485107 0.034668 0.816895 0.146484 0.78418 0.020752 0.817871 0.011475 0.78418 0.020752 0.816895 0.146484 0.78125 0.062744 0.78125 0.062744 0.816895 0.146484 0.776123 0.121582 0.96875 0.543701 0.963135 0.569824 0.961182 0.523193 0.963135 0.569824 0.96875 0.543701 0.976807 0.538086 0.976807 0.538086 0.96875 0.543701 0.961182 0.523193 0.153809 0.815186 0.139648 0.81543 0.128662 0.723145 0.128662 0.723145 0.139648 0.81543 0.125244 0.760254 0.153809 0.815186 0.128662 0.723145 0.159912 0.642334 0.153809 0.815186 0.159912 0.642334 0.168701 0.815674 0.97998 0.52417 0.97998 0.486328 0.988037 0.526855 0.988037 0.526855 0.97998 0.486328 0.986328 0.486328 0.19873 0.415771 0.205811 0.506836 0.19873 0.513916 0.205811 0.506836 0.19873 0.415771 0.196289 0.26709 0.19873 0.415771 0.19873 0.513916 0.185791 0.36377 0.185791 0.36377 0.19873 0.513916 0.185303 0.511963 0.501221 0.447998 0.773926 0.447998 0.76709 0.458984 0.163818 0.554688 0.144043 0.480469 0.156738 0.370361 0.02002 0.702148 0.053955 0.687012 0.045654 0.700439 0.045654 0.700439 0.053955 0.687012 0.053223 0.710693 0.045654 0.700439 0.053223 0.710693 0.02002 0.702148 0.053223 0.710693 0.053955 0.687012 0.073975 0.697998 0.053223 0.710693 0.073975 0.697998 0.063232 0.740723 0.053223 0.710693 0.063232 0.740723 0.02002 0.702148 0.02002 0.702148 0.063232 0.740723 0.018066 0.744385 0.018066 0.744385 0.063232 0.740723 0.0354 0.768066 0.018066 0.744385 0.0354 0.768066 0.031738 0.787842 0.0354 0.768066 0.063232 0.740723 0.070557 0.795166 0.0354 0.768066 0.070557 0.795166 0.031738 0.787842 0.031738 0.787842 0.070557 0.795166 0.031738 0.837891 0.954346 0.47168 0.96582 0.461182 0.95459 0.494629 0.703857 0.905762 0.67334 0.890869 0.780762 0.889893 0.703857 0.905762 0.780762 0.889893 0.744141 0.916992 0.703857 0.905762 0.744141 0.916992 0.713135 0.92749 0.713135 0.92749 0.744141 0.916992 0.728027 0.941895 0.003418 0.763916 0.003418 0.628174 0.009521 0.663818 0.130127 0.520264 0.125977 0.503174 0.182861 0.673828 0.928223 0.537598 0.928223 0.338379 0.933594 0.389893 0.470459 0.777832 0.602539 0.766113 0.702637 0.770508 0.505127 0.917236 0.469971 0.926025 0.501953 0.893066 0.501953 0.893066 0.469971 0.926025 0.482666 0.894043 0.469971 0.926025 0.505127 0.917236 0.482666 0.936768 0.482666 0.894043 0.469971 0.926025 0.45874 0.925537 0.45874 0.925537 0.469971 0.926025 0.482666 0.936768 0.482666 0.936768 0.505127 0.917236 0.487061 0.942383 0.487061 0.942383 0.505127 0.917236 0.521729 0.921875 0.487061 0.942383 0.521729 0.921875 0.512695 0.942871 0.487061 0.942383 0.512695 0.942871 0.509277 0.956055 0.45874 0.925537 0.482666 0.936768 0.447998 0.949219 0.45874 0.925537 0.447998 0.949219 0.428955 0.965576 0.482666 0.894043 0.45874 0.925537 0.477295 0.86792 0.477295 0.86792 0.45874 0.925537 0.446777 0.910889 0.477295 0.86792 0.446777 0.910889 0.466064 0.861328 0.466064 0.861328 0.446777 0.910889 0.431641 0.908691 0.431641 0.908691 0.446777 0.910889 0.45874 0.925537 0.45874 0.925537 0.428955 0.965576 0.420654 0.940674 0.431641 0.908691 0.45874 0.925537 0.429932 0.915527 0.45874 0.925537 0.420654 0.940674 0.436768 0.923828 0.45874 0.925537 0.436768 0.923828 0.429932 0.915527 0.429932 0.915527 0.436768 0.923828 0.420654 0.940674 0.431641 0.908691 0.429932 0.915527 0.410156 0.895996 0.429932 0.915527 0.420654 0.940674 0.400146 0.944092 0.429932 0.915527 0.400146 0.944092 0.410156 0.895996 0.400146 0.944092 0.420654 0.940674 0.40918 0.949951 0.410156 0.895996 0.400146 0.944092 0.388428 0.939697 0.410156 0.895996 0.388428 0.939697 0.38623 0.915283 0.110107 0.631592 0.110107 0.498047 0.116943 0.472412 0.065674 0.679932 0.013428 0.627686 0.05835 0.526123 0.866943 0.682373 0.933838 0.642822 0.901611 0.70166 0.933838 0.642822 0.866943 0.682373 0.734375 0.629395 0.933838 0.642822 0.734375 0.629395 0.945557 0.624268 0.734375 0.629395 0.866943 0.682373 0.797119 0.66626 0.797119 0.66626 0.866943 0.682373 0.863281 0.69873 0.863281 0.69873 0.866943 0.682373 0.901611 0.70166 0.863281 0.69873 0.901611 0.70166 0.901367 0.741699 0.901367 0.741699 0.901611 0.70166 0.925049 0.777832 0.463135 0.092773 0.680908 0.056152 0.616211 0.133545 0.616211 0.133545 0.680908 0.056152 0.705322 0.10376 0.616211 0.133545 0.705322 0.10376 0.64502 0.218506 0.64502 0.218506 0.705322 0.10376 0.701904 0.20166 0.701904 0.20166 0.705322 0.10376 0.743164 0.132812 0.743164 0.132812 0.705322 0.10376 0.734863 0.108643 0.701904 0.20166 0.743164 0.132812 0.780762 0.156738 0.701904 0.20166 0.780762 0.156738 0.736084 0.237793 0.393066 0.091309 0.38623 0.091797 0.40918 0.085693 0.393066 0.091309 0.40918 0.085693 0.386475 0.099854 0.393066 0.091309 0.386475 0.099854 0.38623 0.091797 0.40918 0.085693 0.38623 0.091797 0.352051 0.09082 0.38623 0.091797 0.386475 0.099854 0.35083 0.096436 0.38623 0.091797 0.35083 0.096436 0.352051 0.09082 0.35083 0.096436 0.386475 0.099854 0.354736 0.118896 0.354736 0.118896 0.386475 0.099854 0.381348 0.113525 0.354736 0.118896 0.381348 0.113525 0.387695 0.128174 0.354736 0.118896 0.387695 0.128174 0.355957 0.132812 0.354736 0.118896 0.355957 0.132812 0.350586 0.145752 0.354736 0.118896 0.350586 0.145752 0.342529 0.147705 0.351562 0.076904 0.596924 0.056152 0.352051 0.09082 0.351562 0.076904 0.352051 0.09082 0.344238 0.077393 0.344971 0.100098 0.352051 0.09082 0.35083 0.096436 0.352051 0.09082 0.344971 0.100098 0.344238 0.077393 0.344971 0.100098 0.35083 0.096436 0.354736 0.118896 0.344238 0.077393 0.344971 0.100098 0.325195 0.11792 0.325195 0.11792 0.344971 0.100098 0.354736 0.118896 0.325195 0.11792 0.354736 0.118896 0.342529 0.147705 0.344238 0.077393 0.325195 0.11792 0.295166 0.108154 0.295166 0.108154 0.325195 0.11792 0.342529 0.147705 0.647217 0.808838 0.562744 0.805908 0.657471 0.786133 0.657471 0.786133 0.562744 0.805908 0.530518 0.789795 0.530518 0.789795 0.562744 0.805908 0.424316 0.836914 0.424316 0.836914 0.562744 0.805908 0.647217 0.808838 0.424316 0.836914 0.647217 0.808838 0.598145 0.830078 0.598145 0.830078 0.647217 0.808838 0.675781 0.831787 0.424316 0.836914 0.598145 0.830078 0.537842 0.840088 0.537842 0.840088 0.598145 0.830078 0.544189 0.85791 0.424316 0.836914 0.537842 0.840088 0.491211 0.848145 0.491211 0.848145 0.537842 0.840088 0.496582 0.855469 0.491211 0.848145 0.496582 0.855469 0.466553 0.851807 0.496582 0.855469 0.537842 0.840088 0.515381 0.887939 0.973145 0.741455 0.976562 0.780029 0.969727 0.805908 0.969727 0.805908 0.976562 0.780029 0.979492 0.808105 0.969727 0.805908 0.979492 0.808105 0.969482 0.841553 0.566895 0.550293 0.55127 0.606689 0.535889 0.584473 0.566895 0.550293 0.535889 0.584473 0.526855 0.470703 0.526855 0.470703 0.535889 0.584473 0.507812 0.466309 0.507812 0.466309 0.535889 0.584473 0.44165 0.426025 0.44165 0.426025 0.535889 0.584473 0.486328 0.560059 0.486328 0.560059 0.535889 0.584473 0.471924 0.615967 0.44165 0.426025 0.486328 0.560059 0.417725 0.46582 0.417725 0.46582 0.486328 0.560059 0.471924 0.615967 0.417725 0.46582 0.471924 0.615967 0.414062 0.577637 0.417725 0.46582 0.414062 0.577637 0.373047 0.44751 0.373047 0.44751 0.414062 0.577637 0.351562 0.466309 0.373047 0.44751 0.351562 0.466309 0.346436 0.429199 0.351562 0.466309 0.414062 0.577637 0.381592 0.61499 0.351562 0.466309 0.381592 0.61499 0.290283 0.471436 0.955322 0.656738 0.955322 0.578125 0.984863 0.622314 0.223145 0.660156 0.175049 0.745117 0.194824 0.674561 0.175049 0.745117 0.223145 0.660156 0.209717 0.774658 0.223145 0.660156 0.194824 0.674561 0.169434 0.59082 0.209717 0.774658 0.223145 0.660156 0.261475 0.654785 0.223145 0.660156 0.169434 0.59082 0.204102 0.576416 0.223145 0.660156 0.204102 0.576416 0.261475 0.654785 0.643066 0.581299 0.594727 0.477295 0.657959 0.5271 0.594727 0.477295 0.643066 0.581299 0.57251 0.608643 0.687744 0.592529 0.643066 0.581299 0.69165 0.585693 0.643066 0.581299 0.687744 0.592529 0.695801 0.617188 0.57251 0.608643 0.643066 0.581299 0.61792 0.626709 0.643066 0.581299 0.695801 0.617188 0.680176 0.653076 0.643066 0.581299 0.680176 0.653076 0.61792 0.626709 0.680176 0.653076 0.695801 0.617188 0.701172 0.645996 0.701172 0.645996 0.695801 0.617188 0.724609 0.617432 0.680176 0.653076 0.701172 0.645996 0.678711 0.685791 0.680176 0.653076 0.678711 0.685791 0.61792 0.626709 0.678711 0.685791 0.701172 0.645996 0.727783 0.71582 0.57251 0.608643 0.61792 0.626709 0.622559 0.697754 0.61792 0.626709 0.678711 0.685791 0.646484 0.691895 0.61792 0.626709 0.646484 0.691895 0.622559 0.697754 0.646484 0.691895 0.678711 0.685791 0.686279 0.711426 0.646484 0.691895 0.686279 0.711426 0.629395 0.710938 0.646484 0.691895 0.629395 0.710938 0.622559 0.697754 0.57251 0.608643 0.622559 0.697754 0.53125 0.633057 0.622559 0.697754 0.629395 0.710938 0.562744 0.732666 0.622559 0.697754 0.562744 0.732666 0.53125 0.633057 0.53125 0.633057 0.562744 0.732666 0.466797 0.690918 0.53125 0.633057 0.466797 0.690918 0.451172 0.686523 0.00415 0.432373 0.022217 0.451416 0.005615 0.463379 0.005615 0.463379 0.022217 0.451416 0.053711 0.505127 0.053711 0.505127 0.022217 0.451416 0.094971 0.438965 0.005615 0.463379 0.053711 0.505127 0.01709 0.508301 0.01709 0.508301 0.053711 0.505127 0.014404 0.595703 0.138428 0.882812 0.142822 0.903809 0.109619 0.895264 0.138428 0.882812 0.109619 0.895264 0.126953 0.866455 0.138428 0.882812 0.126953 0.866455 0.145508 0.835449 0.126953 0.866455 0.109619 0.895264 0.094727 0.865723 0.145508 0.835449 0.126953 0.866455 0.086914 0.854004 0.086914 0.854004 0.126953 0.866455 0.094727 0.865723 0.094727 0.865723 0.109619 0.895264 0.088135 0.88208 0.094727 0.865723 0.088135 0.88208 0.086914 0.854004 0.088135 0.88208 0.109619 0.895264 0.072998 0.929688 0.088135 0.88208 0.072998 0.929688 0.049561 0.937012 0.145508 0.835449 0.086914 0.854004 0.098145 0.816406 0.145508 0.835449 0.098145 0.816406 0.108887 0.807129 0.108887 0.807129 0.098145 0.816406 0.08374 0.810303 0.08374 0.810303 0.098145 0.816406 0.086914 0.854004 0.086914 0.854004 0.088135 0.88208 0.050781 0.863281 0.086914 0.854004 0.050781 0.863281 0.08374 0.810303 0.050781 0.863281 0.088135 0.88208 0.049561 0.937012 0.08374 0.810303 0.050781 0.863281 0.020752 0.863037 0.020752 0.863037 0.050781 0.863281 0.049561 0.937012 0.020752 0.863037 0.049561 0.937012 0.018311 0.923096 0.020752 0.863037 0.018311 0.923096 0.019043 0.820068 0.999756 0.52417 0.999756 0.569824 0.991211 0.549316 0.281494 0.259033 0.281494 0.041992 0.289551 0.291016 0.241211 0.135742 0.232422 0.157959 0.227051 0.137939 0.232422 0.157959 0.241211 0.135742 0.229004 0.231445 0.229004 0.231445 0.241211 0.135742 0.272949 0.03418 0.229004 0.231445 0.272949 0.03418 0.27002 0.24585 0.681396 0.413574 0.384033 0.413574 0.681885 0.39624 0.116699 0.417969 0.097656 0.506104 0.075684 0.513184 0.075684 0.513184 0.097656 0.506104 0.068359 0.542725 0.068359 0.542725 0.097656 0.506104 0.07251 0.573975 0.974365 0.468018 0.991943 0.444092 0.994629 0.478027 0.614014 0.901123 0.577881 0.904541 0.569336 0.897217 0.614014 0.901123 0.569336 0.897217 0.618408 0.893066 0.577881 0.904541 0.614014 0.901123 0.562256 0.915771 0.614014 0.901123 0.618408 0.893066 0.657715 0.900146 0.614014 0.901123 0.657715 0.900146 0.562256 0.915771 0.562256 0.915771 0.657715 0.900146 0.645996 0.947021 0.968018 0.497803 0.971436 0.479492 0.971924 0.516602 0.85083 0.73291 0.599121 0.73291 0.782471 0.720947 0.176758 0.546875 0.169189 0.460693 0.173584 0.355225 0.926514 0.253418 0.926514 0.102295 0.94165 0.296875 0.926514 0.253418 0.94165 0.296875 0.921387 0.291016 0.960693 0.843506 0.954346 0.819092 0.956055 0.731445 0.761719 0.7771 0.691162 0.802002 0.727539 0.76123 0.691162 0.802002 0.761719 0.7771 0.759766 0.797607 0.759766 0.797607 0.761719 0.7771 0.906738 0.771729 0.691162 0.802002 0.759766 0.797607 0.748047 0.819336 0.748047 0.819336 0.759766 0.797607 0.906738 0.771729 0.691162 0.802002 0.748047 0.819336 0.747559 0.837402 0.748047 0.819336 0.906738 0.771729 0.757568 0.84082 0.748047 0.819336 0.757568 0.84082 0.747559 0.837402 0.064941 0.411865 0.005859 0.418213 0.060547 0.349609 0.060547 0.349609 0.005859 0.418213 0.000488 0.2854 0.005859 0.418213 0.064941 0.411865 0.018799 0.428711 0.018799 0.428711 0.064941 0.411865 0.066406 0.430908 0.018799 0.428711 0.066406 0.430908 0.046143 0.435547 0.066406 0.430908 0.064941 0.411865 0.115479 0.400635 0.115479 0.400635 0.064941 0.411865 0.060547 0.349609 0.066406 0.430908 0.115479 0.400635 0.089844 0.429443 0.060547 0.349609 0.000488 0.2854 0.102539 0.369873 0.060547 0.349609 0.102539 0.369873 0.115479 0.400635 0.102539 0.369873 0.000488 0.2854 0.052246 0.266357 0.115479 0.400635 0.102539 0.369873 0.146729 0.362793 0.102539 0.369873 0.052246 0.266357 0.165527 0.305664 0.102539 0.369873 0.165527 0.305664 0.146729 0.362793 0.853027 0.35791 0.853027 0.103027 0.874023 0.354004 0.634521 0.268066 0.786621 0.397705 0.613525 0.287354 0.786621 0.397705 0.634521 0.268066 0.72876 0.30835 0.634521 0.268066 0.613525 0.287354 0.609131 0.27002 0.609131 0.27002 0.613525 0.287354 0.383301 0.267334 0.634521 0.268066 0.609131 0.27002 0.64917 0.227295 0.72876 0.30835 0.634521 0.268066 0.658447 0.248535 0.72876 0.30835 0.658447 0.248535 0.735352 0.283936 0.735352 0.283936 0.658447 0.248535 0.674561 0.236572 0.236328 0.458008 0.223389 0.395264 0.253174 0.436035 0.223389 0.395264 0.236328 0.458008 0.220459 0.509521 0.220459 0.509521 0.236328 0.458008 0.253174 0.436035 0.282715 0.363037 0.272705 0.448486 0.253174 0.436035 0.253174 0.436035 0.272705 0.448486 0.259521 0.468262 0.253174 0.436035 0.259521 0.468262 0.220459 0.509521 0.220459 0.509521 0.259521 0.468262 0.260254 0.51123 0.260254 0.51123 0.259521 0.468262 0.348877 0.586914 0.260254 0.51123 0.348877 0.586914 0.227295 0.539307 0.260254 0.51123 0.227295 0.539307 0.220459 0.509521 0.227295 0.539307 0.348877 0.586914 0.284424 0.622314 0.227295 0.539307 0.284424 0.622314 0.257812 0.628906 0.227295 0.539307 0.257812 0.628906 0.212891 0.558594 0.227295 0.539307 0.212891 0.558594 0.2146 0.541992 0.227295 0.539307 0.2146 0.541992 0.220459 0.509521 0.220459 0.509521 0.2146 0.541992 0.201416 0.530762 0.201416 0.530762 0.2146 0.541992 0.185059 0.553711 0.486328 0.741211 0.716797 0.741211 0.523682 0.748779</float_array>
          <technique_common>
            <accessor source="#Wood-mesh-map-0-array" count="1500" stride="2">
              <param name="S" type="float"/>
              <param name="T" type="float"/>
            </accessor>
          </technique_common>
        </source>
        <vertices id="Wood-mesh-vertices">
          <input semantic="POSITION" source="#Wood-mesh-positions"/>
        </vertices>
        <polylist material="Material_-1-material" count="6">
          <input semantic="VERTEX" source="#Wood-mesh-vertices" offset="0"/>
          <input semantic="NORMAL" source="#Wood-mesh-normals" offset="1"/>
          <input semantic="TEXCOORD" source="#Wood-mesh-map-0" offset="2" set="0"/>
          <vcount>3 3 3 3 3 3 3 3 3 3 3 3 3 3 3 3 3 3 3 3 3 3 3 3 3 3 3 3 3 3 3 3 3 3 3 3 3 3 3 3 3 3 3 3 3 3 3 3 3 3 3 3 3 3 3 3 3 3 3 3 3 3 3 3 3 3 3 3 3 3 3 3 3 3 3 3 3 3 3 3 3 3 3 3 3 3 3 3 3 3 3 3 3 3 3 3 3 3 3 3 3 3 3 3 3 3 3 3 3 3 3 3 3 3 3 3 3 3 3 3 3 3 3 3 3 3 3 3 3 3 3 3 3 3 3 3 3 3 3 3 3 3 3 3 3 3 3 3 3 3 3 3 3 3 3 3 3 3 3 3 3 3 3 3 3 3 3 3 3 3 3 3 3 3 3 3 3 3 3 3 3 3 3 3 3 3 3 3 3 3 3 3 3 3 3 3 3 3 3 3 3 3 3 3 3 3 3 3 3 3 3 3 3 3 3 3 3 3 3 3 3 3 3 3 3 3 3 3 3 3 3 3 3 3 3 3 3 3 3 3 3 3 3 3 3 3 3 3 3 3 3 3 3 3 3 3 3 3 3 3 3 3 3 3 3 3 3 3 3 3 3 3 3 3 3 3 3 3 3 3 3 3 3 3 3 3 3 3 3 3 3 3 3 3 3 3 3 3 3 3 3 3 3 3 3 3 3 3 3 3 3 3 3 3 3 3 3 3 3 3 3 3 3 3 3 3 3 3 3 3 3 3 3 3 3 3 3 3 3 3 3 3 3 3 3 3 3 3 3 3 3 3 3 3 3 3 3 3 3 3 3 3 3 3 3 3 3 3 3 3 3 3 3 3 3 3 3 3 3 3 3 3 3 3 3 3 3 3 3 3 3 3 3 3 3 3 3 3 3 3 3 3 3 3 3 3 3 3 3 3 3 3 3 3 3 3 3 3 3 3 3 3 3 3 3 3 3 3 3 3 3 3 3 3 3 3 3 3 3 3 3 3 3 3 3 3 3 3 3 3 3 3 3 3 3 3 3 3 3 3 3 3 3 3 3 3 3 3 3 3 3 3 3 3 3 3 3 3 3 3 3 3 3 3 3 3 3 3 3 3 3 3 3 3 3 3 3 3 3 3</vcount>
          <p>0 0 0 1 0 1 2 0 2 1 1 3 0 1 4 3 1 5 3 2 6 0 2 7 4 2 8 3 3 9 4 3 10 5 3 11 0 4 12 2 4 13 6 4 14 1 5 15 3 5 16 7 5 17 1 6 18 7 6 19 2 6 20 7 7 21 3 7 22 8 7 23 7 8 24 8 8 25 9 8 26 7 9 27 9 9 28 10 9 29 7 10 30 10 10 31 2 10 32 2 11 33 10 11 34 11 11 35 2 12 36 11 12 37 12 12 38 2 13 39 12 13 40 13 13 41 14 14 42 6 14 43 2 14 44 14 15 45 2 15 46 13 15 47 6 16 48 14 16 49 15 16 50 14 17 51 13 17 52 16 17 53 14 18 54 16 18 55 15 18 56 3 19 57 5 19 58 8 19 59 17 20 60 9 20 61 8 20 62 17 21 63 8 21 64 18 21 65 17 22 66 18 22 67 19 22 68 8 23 69 5 23 70 20 23 71 8 24 72 20 24 73 18 24 74 20 25 75 5 25 76 21 25 77 21 26 78 5 26 79 22 26 80 18 27 81 20 27 82 23 27 83 23 28 84 20 28 85 21 28 86 19 29 87 18 29 88 24 29 89 19 30 90 24 30 91 25 30 92 18 31 93 23 31 94 26 31 95 18 32 96 26 32 97 24 32 98 23 33 99 21 33 100 27 33 101 27 34 102 21 34 103 22 34 104 26 35 105 23 35 106 28 35 107 26 36 108 28 36 109 24 36 110 28 37 111 23 37 112 27 37 113 24 38 114 28 38 115 25 38 116 27 39 117 22 39 118 29 39 119 27 40 120 29 40 121 28 40 122 28 41 123 29 41 124 25 41 125 29 42 126 22 42 127 30 42 128 25 43 129 29 43 130 31 43 131 15 44 132 4 44 133 0 44 134 15 45 135 0 45 136 6 45 137 32 46 138 15 46 139 16 46 140 15 47 141 32 47 142 4 47 143 33 48 144 5 48 145 4 48 146 33 49 147 4 49 148 34 49 149 4 50 150 32 50 151 35 50 152 35 51 153 32 51 154 36 51 155 35 52 156 36 52 157 37 52 158 35 53 159 37 53 160 38 53 161 4 54 162 35 54 163 39 54 164 39 55 165 35 55 166 38 55 167 4 56 168 39 56 169 34 56 170 34 57 171 39 57 172 38 57 173 34 58 174 38 58 175 40 58 176 34 59 177 40 59 178 41 59 179 34 60 180 41 60 181 42 60 182 34 61 183 42 61 184 43 61 185 43 62 186 42 62 187 44 62 188 43 63 189 44 63 190 45 63 191 45 64 192 44 64 193 46 64 194 45 65 195 46 65 196 47 65 197 48 66 198 22 66 199 33 66 200 22 67 201 48 67 202 49 67 203 49 68 204 48 68 205 50 68 206 49 69 207 50 69 208 51 69 209 50 70 210 48 70 211 52 70 212 50 71 213 52 71 214 51 71 215 53 72 216 52 72 217 48 72 218 53 73 219 48 73 220 33 73 221 53 74 222 33 74 223 34 74 224 54 75 225 55 75 226 53 75 227 54 76 228 53 76 229 34 76 230 54 77 231 34 77 232 56 77 233 54 78 234 56 78 235 57 78 236 57 79 237 56 79 238 58 79 239 58 80 240 56 80 241 34 80 242 57 81 243 58 81 244 59 81 245 59 82 246 58 82 247 60 82 248 60 83 249 58 83 250 61 83 251 58 84 252 34 84 253 62 84 254 58 85 255 62 85 256 61 85 257 62 86 258 34 86 259 43 86 260 61 87 261 62 87 262 63 87 263 61 88 264 63 88 265 64 88 266 63 89 267 62 89 268 65 89 269 63 90 270 65 90 271 66 90 272 65 91 273 62 91 274 67 91 275 67 92 276 62 92 277 43 92 278 67 93 279 43 93 280 68 93 281 69 94 282 70 94 283 67 94 284 69 95 285 67 95 286 71 95 287 72 96 288 71 96 289 68 96 290 71 97 291 67 97 292 73 97 293 73 98 294 67 98 295 68 98 296 73 99 297 68 99 298 71 99 299 22 100 300 5 100 301 33 100 302 54 101 303 57 101 304 74 101 305 54 102 306 74 102 307 55 102 308 74 103 309 57 103 310 75 103 311 74 104 312 75 104 313 76 104 314 75 105 315 57 105 316 77 105 317 77 106 318 57 106 319 59 106 320 77 107 321 59 107 322 78 107 323 77 108 324 78 108 325 79 108 326 78 109 327 59 109 328 60 109 329 53 110 330 80 110 331 52 110 332 9 111 333 81 111 334 10 111 335 10 112 336 81 112 337 82 112 338 81 113 339 9 113 340 17 113 341 81 114 342 17 114 343 83 114 344 83 115 345 17 115 346 19 115 347 84 116 348 85 116 349 81 116 350 84 117 351 81 117 352 86 117 353 84 118 354 86 118 355 87 118 356 87 119 357 86 119 358 88 119 359 86 120 360 81 120 361 89 120 362 89 121 363 81 121 364 83 121 365 86 122 366 89 122 367 90 122 368 86 123 369 90 123 370 88 123 371 89 124 372 83 124 373 91 124 374 89 125 375 91 125 376 90 125 377 90 126 378 91 126 379 92 126 380 90 127 381 92 127 382 88 127 383 92 128 384 91 128 385 93 128 386 92 129 387 93 129 388 88 129 389 93 130 390 91 130 391 94 130 392 94 131 393 91 131 394 83 131 395 93 132 396 94 132 397 88 132 398 94 133 399 83 133 400 95 133 401 94 134 402 95 134 403 88 134 404 95 135 405 83 135 406 19 135 407 88 136 408 95 136 409 96 136 410 95 137 411 19 137 412 97 137 413 97 138 414 19 138 415 25 138 416 95 139 417 97 139 418 31 139 419 96 140 420 95 140 421 98 140 422 98 141 423 95 141 424 31 141 425 96 142 426 98 142 427 99 142 428 99 143 429 98 143 430 31 143 431 100 144 432 32 144 433 16 144 434 82 145 435 81 145 436 85 145 437 82 146 438 85 146 439 101 146 440 82 147 441 101 147 442 10 147 443 10 148 444 101 148 445 102 148 446 10 149 447 102 149 448 11 149 449 11 150 450 102 150 451 12 150 452 12 151 453 102 151 454 103 151 455 12 152 456 103 152 457 13 152 458 13 153 459 103 153 460 104 153 461 16 154 462 13 154 463 104 154 464 97 155 465 25 155 466 31 155 467 30 156 468 22 156 469 49 156 470 30 157 471 49 157 472 105 157 473 105 158 474 49 158 475 51 158 476 105 159 477 51 159 478 106 159 479 106 160 480 51 160 481 107 160 482 107 161 483 51 161 484 52 161 485 107 162 486 52 162 487 80 162 488 53 163 489 55 163 490 80 163 491 80 164 492 55 164 493 108 164 494 108 165 495 55 165 496 74 165 497 108 166 498 74 166 499 109 166 500 109 167 501 74 167 502 76 167 503 109 168 504 76 168 505 110 168 506 108 169 507 109 169 508 111 169 509 108 170 510 111 170 511 112 170 512 111 171 513 109 171 514 113 171 515 113 172 516 109 172 517 110 172 518 113 173 519 110 173 520 114 173 521 114 174 522 110 174 523 115 174 524 30 175 525 31 175 526 29 175 527 31 176 528 30 176 529 99 176 530 30 177 531 105 177 532 116 177 533 116 178 534 105 178 535 117 178 536 117 179 537 105 179 538 106 179 539 30 180 540 116 180 541 118 180 542 30 181 543 118 181 544 99 181 545 99 182 546 118 182 547 119 182 548 99 183 549 119 183 550 120 183 551 99 184 552 120 184 553 96 184 554 96 185 555 120 185 556 88 185 557 121 186 558 111 186 559 113 186 560 121 187 561 113 187 562 114 187 563 121 188 564 114 188 565 122 188 566 121 189 567 122 189 568 123 189 569 122 190 570 114 190 571 124 190 572 122 191 573 124 191 574 123 191 575 124 192 576 114 192 577 125 192 578 124 193 579 125 193 580 126 193 581 126 194 582 125 194 583 127 194 584 126 195 585 127 195 586 128 195 587 124 196 588 126 196 589 129 196 590 124 197 591 129 197 592 123 197 593 129 198 594 126 198 595 128 198 596 123 199 597 129 199 598 130 199 599 129 200 600 128 200 601 131 200 602 129 201 603 131 201 604 130 201 605 130 202 606 131 202 607 112 202 608 131 203 609 128 203 610 132 203 611 131 204 612 132 204 613 133 204 614 42 205 615 41 205 616 134 205 617 134 206 618 41 206 619 40 206 620 134 207 621 40 207 622 135 207 623 42 208 624 134 208 625 136 208 626 136 209 627 134 209 628 137 209 629 42 210 630 136 210 631 44 210 632 44 211 633 136 211 634 46 211 635 68 212 636 43 212 637 45 212 638 68 213 639 45 213 640 138 213 641 139 214 642 36 214 643 32 214 644 37 215 645 36 215 646 139 215 647 38 216 648 140 216 649 40 216 650 140 217 651 38 217 652 37 217 653 46 218 654 141 218 655 47 218 656 47 219 657 141 219 658 45 219 659 142 220 660 68 220 661 138 220 662 142 221 663 138 221 664 143 221 665 68 222 666 142 222 667 72 222 668 142 223 669 143 223 670 144 223 671 72 224 672 142 224 673 145 224 674 145 225 675 142 225 676 144 225 677 72 226 678 145 226 679 70 226 680 70 227 681 145 227 682 146 227 683 146 228 684 145 228 685 144 228 686 146 229 687 144 229 688 147 229 689 139 230 690 32 230 691 100 230 692 40 231 693 148 231 694 135 231 695 148 232 696 40 232 697 140 232 698 135 233 699 149 233 700 134 233 701 134 234 702 149 234 703 137 234 704 150 235 705 136 235 706 137 235 707 46 236 708 136 236 709 150 236 710 151 237 711 60 237 712 61 237 713 60 238 714 151 238 715 78 238 716 78 239 717 151 239 718 79 239 719 152 240 720 75 240 721 77 240 722 75 241 723 152 241 724 153 241 725 153 242 726 152 242 727 77 242 728 65 243 729 67 243 730 146 243 731 146 244 732 67 244 733 70 244 734 65 245 735 146 245 736 154 245 737 65 246 738 154 246 739 66 246 740 71 247 741 72 247 742 69 247 743 69 248 744 72 248 745 70 248 746 155 249 747 64 249 748 63 249 749 64 250 750 155 250 751 156 250 752 155 251 753 63 251 754 157 251 755 157 252 756 63 252 757 66 252 758 158 253 759 61 253 760 64 253 761 158 254 762 151 254 763 61 254 764 75 255 765 153 255 766 159 255 767 159 256 768 153 256 769 160 256 770 159 257 771 160 257 772 75 257 773 160 258 774 153 258 775 77 258 776 160 259 777 77 259 778 79 259 779 160 260 780 79 260 781 75 260 782 75 261 783 79 261 784 76 261 785 76 262 786 79 262 787 161 262 788 76 263 789 161 263 790 110 263 791 161 264 792 79 264 793 151 264 794 161 265 795 151 265 796 110 265 797 110 266 798 151 266 799 115 266 800 162 267 801 115 267 802 151 267 803 162 268 804 151 268 805 158 268 806 162 269 807 158 269 808 125 269 809 162 270 810 125 270 811 115 270 812 115 271 813 125 271 814 114 271 815 163 272 816 155 272 817 157 272 818 156 273 819 158 273 820 64 273 821 155 274 822 163 274 823 156 274 824 154 275 825 157 275 826 66 275 827 87 276 828 164 276 829 84 276 830 84 277 831 164 277 832 85 277 833 164 278 834 87 278 835 165 278 836 85 279 837 164 279 838 166 279 839 166 280 840 164 280 841 165 280 842 165 281 843 87 281 844 167 281 845 167 282 846 87 282 847 88 282 848 167 283 849 88 283 850 120 283 851 167 284 852 120 284 853 168 284 854 166 285 855 165 285 856 169 285 857 166 286 858 169 286 859 170 286 860 85 287 861 166 287 862 101 287 863 101 288 864 166 288 865 171 288 866 101 289 867 171 289 868 102 289 869 102 290 870 171 290 871 103 290 872 103 291 873 171 291 874 166 291 875 166 292 876 170 292 877 172 292 878 103 293 879 166 293 880 173 293 881 166 294 882 172 294 883 174 294 884 166 295 885 174 295 886 173 295 887 173 296 888 174 296 889 172 296 890 103 297 891 173 297 892 104 297 893 173 298 894 172 298 895 175 298 896 173 299 897 175 299 898 104 299 899 175 300 900 172 300 901 176 300 902 104 301 903 175 301 904 177 301 905 104 302 906 177 302 907 100 302 908 16 303 909 104 303 910 100 303 911 178 304 912 169 304 913 165 304 914 179 305 915 167 305 916 168 305 917 167 306 918 179 306 919 180 306 920 167 307 921 180 307 922 165 307 923 180 308 924 179 308 925 181 308 926 181 309 927 179 309 928 182 309 929 182 310 930 179 310 931 168 310 932 182 311 933 168 311 934 119 311 935 119 312 936 168 312 937 120 312 938 165 313 939 180 313 940 178 313 941 178 314 942 180 314 943 183 314 944 178 315 945 183 315 946 169 315 947 169 316 948 183 316 949 170 316 950 170 317 951 183 317 952 184 317 953 184 318 954 183 318 955 185 318 956 170 319 957 184 319 958 186 319 959 170 320 960 186 320 961 176 320 962 187 321 963 188 321 964 100 321 965 187 322 966 100 322 967 177 322 968 187 323 969 177 323 970 188 323 971 100 324 972 188 324 973 139 324 974 188 325 975 177 325 976 189 325 977 188 326 978 189 326 979 139 326 980 189 327 981 177 327 982 190 327 983 190 328 984 177 328 985 175 328 986 190 329 987 175 329 988 176 329 989 190 330 990 176 330 991 186 330 992 190 331 993 186 331 994 184 331 995 190 332 996 184 332 997 185 332 998 191 333 999 37 333 1000 139 333 1001 191 334 1002 139 334 1003 192 334 1004 193 335 1005 139 335 1006 189 335 1007 139 336 1008 193 336 1009 192 336 1010 193 337 1011 189 337 1012 190 337 1013 192 338 1014 193 338 1015 194 338 1016 194 339 1017 193 339 1018 190 339 1019 194 340 1020 190 340 1021 185 340 1022 192 341 1023 194 341 1024 195 341 1025 195 342 1026 194 342 1027 185 342 1028 80 343 1029 196 343 1030 107 343 1031 107 344 1032 196 344 1033 106 344 1034 106 345 1035 196 345 1036 197 345 1037 197 346 1038 196 346 1039 80 346 1040 197 347 1041 80 347 1042 112 347 1043 112 348 1044 80 348 1045 108 348 1046 197 349 1047 112 349 1048 133 349 1049 133 350 1050 112 350 1051 131 350 1052 197 351 1053 133 351 1054 198 351 1055 198 352 1056 133 352 1057 199 352 1058 198 353 1059 199 353 1060 200 353 1061 199 354 1062 133 354 1063 132 354 1064 111 355 1065 121 355 1066 112 355 1067 112 356 1068 121 356 1069 123 356 1070 112 357 1071 123 357 1072 130 357 1073 182 358 1074 119 358 1075 118 358 1076 182 359 1077 118 359 1078 181 359 1079 181 360 1080 118 360 1081 201 360 1082 201 361 1083 118 361 1084 202 361 1085 202 362 1086 118 362 1087 203 362 1088 203 363 1089 118 363 1090 116 363 1091 202 364 1092 203 364 1093 204 364 1094 204 365 1095 203 365 1096 116 365 1097 204 366 1098 116 366 1099 117 366 1100 204 367 1101 117 367 1102 205 367 1103 205 368 1104 117 368 1105 206 368 1106 205 369 1107 206 369 1108 207 369 1109 206 370 1110 117 370 1111 106 370 1112 206 371 1113 106 371 1114 197 371 1115 172 372 1116 170 372 1117 176 372 1118 208 373 1119 183 373 1120 180 373 1121 183 374 1122 208 374 1123 185 374 1124 208 375 1125 180 375 1126 181 375 1127 185 376 1128 208 376 1129 209 376 1130 208 377 1131 181 377 1132 201 377 1133 208 378 1134 201 378 1135 209 378 1136 210 379 1137 185 379 1138 209 379 1139 185 380 1140 210 380 1141 195 380 1142 205 381 1143 210 381 1144 211 381 1145 210 382 1146 205 382 1147 207 382 1148 195 383 1149 210 383 1150 212 383 1151 210 384 1152 207 384 1153 213 384 1154 210 385 1155 213 385 1156 212 385 1157 213 386 1158 207 386 1159 197 386 1160 197 387 1161 207 387 1162 206 387 1163 213 388 1164 197 388 1165 214 388 1166 213 389 1167 214 389 1168 212 389 1169 214 390 1170 197 390 1171 198 390 1172 195 391 1173 212 391 1174 215 391 1175 212 392 1176 214 392 1177 216 392 1178 212 393 1179 216 393 1180 215 393 1181 216 394 1182 214 394 1183 200 394 1184 216 395 1185 200 395 1186 217 395 1187 216 396 1188 217 396 1189 215 396 1190 195 397 1191 215 397 1192 218 397 1193 215 398 1194 217 398 1195 219 398 1196 215 399 1197 219 399 1198 218 399 1199 218 400 1200 219 400 1201 220 400 1202 218 401 1203 220 401 1204 221 401 1205 205 402 1206 211 402 1207 204 402 1208 204 403 1209 211 403 1210 209 403 1211 209 404 1212 211 404 1213 210 404 1214 204 405 1215 209 405 1216 202 405 1217 202 406 1218 209 406 1219 201 406 1220 200 407 1221 199 407 1222 132 407 1223 200 408 1224 132 408 1225 222 408 1226 200 409 1227 222 409 1228 217 409 1229 222 410 1230 132 410 1231 223 410 1232 217 411 1233 222 411 1234 224 411 1235 224 412 1236 222 412 1237 223 412 1238 223 413 1239 132 413 1240 225 413 1241 223 414 1242 225 414 1243 224 414 1244 225 415 1245 132 415 1246 128 415 1247 225 416 1248 128 416 1249 127 416 1250 217 417 1251 224 417 1252 226 417 1253 217 418 1254 226 418 1255 219 418 1256 219 419 1257 226 419 1258 227 419 1259 227 420 1260 226 420 1261 224 420 1262 224 421 1263 225 421 1264 228 421 1265 224 422 1266 228 422 1267 227 422 1268 228 423 1269 225 423 1270 127 423 1271 227 424 1272 228 424 1273 229 424 1274 229 425 1275 228 425 1276 127 425 1277 229 426 1278 127 426 1279 158 426 1280 229 427 1281 158 427 1282 230 427 1283 214 428 1284 198 428 1285 200 428 1286 140 429 1287 37 429 1288 191 429 1289 138 430 1290 231 430 1291 143 430 1292 231 431 1293 138 431 1294 232 431 1295 232 432 1296 138 432 1297 45 432 1298 232 433 1299 45 433 1300 141 433 1301 141 434 1302 46 434 1303 150 434 1304 233 435 1305 234 435 1306 231 435 1307 231 436 1308 234 436 1309 143 436 1310 143 437 1311 234 437 1312 144 437 1313 127 438 1314 125 438 1315 158 438 1316 235 439 1317 147 439 1318 144 439 1319 235 440 1320 144 440 1321 234 440 1322 147 441 1323 235 441 1324 146 441 1325 235 442 1326 234 442 1327 236 442 1328 235 443 1329 236 443 1330 146 443 1331 146 444 1332 236 444 1333 154 444 1334 158 445 1335 156 445 1336 163 445 1337 237 446 1338 157 446 1339 154 446 1340 237 447 1341 163 447 1342 157 447 1343 238 448 1344 163 448 1345 237 448 1346 238 449 1347 237 449 1348 230 449 1349 158 450 1350 163 450 1351 238 450 1352 192 451 1353 140 451 1354 191 451 1355 140 452 1356 192 452 1357 239 452 1358 239 453 1359 192 453 1360 195 453 1361 140 454 1362 239 454 1363 240 454 1364 240 455 1365 239 455 1366 195 455 1367 140 456 1368 240 456 1369 148 456 1370 240 457 1371 195 457 1372 241 457 1373 240 458 1374 241 458 1375 148 458 1376 242 459 1377 241 459 1378 243 459 1379 243 460 1380 241 460 1381 195 460 1382 241 461 1383 242 461 1384 148 461 1385 148 462 1386 242 462 1387 149 462 1388 148 463 1389 149 463 1390 135 463 1391 149 464 1392 242 464 1393 141 464 1394 141 465 1395 242 465 1396 243 465 1397 149 466 1398 141 466 1399 150 466 1400 243 467 1401 195 467 1402 244 467 1403 243 468 1404 244 468 1405 141 468 1406 244 469 1407 195 469 1408 218 469 1409 141 470 1410 244 470 1411 232 470 1412 244 471 1413 218 471 1414 221 471 1415 244 472 1416 221 472 1417 232 472 1418 150 473 1419 137 473 1420 149 473 1421 245 474 1422 234 474 1423 233 474 1424 234 475 1425 245 475 1426 236 475 1427 245 476 1428 233 476 1429 232 476 1430 232 477 1431 233 477 1432 231 477 1433 245 478 1434 232 478 1435 221 478 1436 236 479 1437 245 479 1438 246 479 1439 236 480 1440 246 480 1441 247 480 1442 247 481 1443 246 481 1444 248 481 1445 249 482 1446 219 482 1447 227 482 1448 219 483 1449 249 483 1450 220 483 1451 220 484 1452 249 484 1453 227 484 1454 229 485 1455 230 485 1456 227 485 1457 227 486 1458 230 486 1459 237 486 1460 227 487 1461 237 487 1462 220 487 1463 220 488 1464 237 488 1465 250 488 1466 250 489 1467 237 489 1468 154 489 1469 250 490 1470 154 490 1471 251 490 1472 250 491 1473 251 491 1474 220 491 1475 251 492 1476 154 492 1477 236 492 1478 251 493 1479 236 493 1480 247 493 1481 251 494 1482 247 494 1483 248 494 1484 251 495 1485 248 495 1486 246 495 1487 251 496 1488 246 496 1489 220 496 1490 220 497 1491 246 497 1492 221 497 1493 221 498 1494 246 498 1495 245 498 1496 230 499 1497 158 499 1498 238 499 1499</p>
        </polylist>
      </mesh>
    </geometry>
  </library_geometries>
  <library_visual_scenes>
    <visual_scene id="Scene" name="Scene">
      <node id="Wood" name="Wood" type="NODE">
        <scale sid="scale">1 1 1</scale>
        <translate sid="location">0 0 0</translate>
        <rotate sid="rotationX">1 0 0 0</rotate>
        <rotate sid="rotationY">0 1 0 -90</rotate>
        <rotate sid="rotationZ">0 0 1 0</rotate>
        <instance_geometry url="#Wood-mesh" name="Wood">
          <bind_material>
            <technique_common>
            </technique_common>
          </bind_material>
        </instance_geometry>
      </node>
    </visual_scene>
  </library_visual_scenes>
  <scene>
    <instance_visual_scene url="#Scene"/>
  </scene>
</COLLADA>
