<?xml version="1.0" encoding="utf-8"?>
<COLLADA xmlns="http://www.collada.org/2005/11/COLLADASchema" version="1.4.1" xmlns:xsi="http://www.w3.org/2001/XMLSchema-instance">
  <asset>
    <contributor>
      <author>Blockbench user</author>
      <authoring_tool>Blockbench</authoring_tool>
    </contributor>
    <created>2026-02-20T01:37:08.638Z</created>
    <modified>2026-02-20T01:37:08.644Z</modified>
    <unit name="meter" meter="1.0"/>
    <up_axis>Y_UP</up_axis>
  </asset>
  <library_effects>
  </library_effects>
  <library_images>
  </library_images>
  <library_materials>
  </library_materials>
  <library_geometries>
    <geometry id="WoodenTrunk-mesh" name="WoodenTrunk">
      <mesh>
        <source id="WoodenTrunk-mesh-positions">
          <float_array id="WoodenTrunk-mesh-positions-array" count="756">-0.219203 -0.315094 0.048764 -0.240306 -0.294464 0.051479 -0.240764 -0.297546 -0.227525 -0.174112 -0.301453 0.031948 -0.19636 -0.322327 -0.227825 -0.207782 -0.297058 -0.229156 -0.230922 -0.245316 0.031069 -0.194483 -0.142258 0.029427 -0.227329 -0.128494 0.03006 -0.253857 -0.150421 0.032989 -0.249691 -0.22821 0.052305 -0.264225 -0.182617 0.053689 -0.264546 -0.181351 -0.226044 -0.251888 -0.217178 -0.225636 -0.251042 -0.174484 -0.275535 -0.222613 -0.254425 -0.266038 -0.182283 -0.229492 -0.284731 -0.169156 -0.056183 -0.310603 -0.153638 -0.321594 -0.22584 -0.169385 -0.324646 0.046124 -0.141724 -0.294525 -0.259245 -0.157552 -0.192459 -0.308446 -0.081057 -0.223572 -0.285343 -0.094035 -0.261597 -0.219069 -0.118366 -0.307281 -0.225561 -0.109085 -0.274841 0.043098 -0.119167 -0.308533 0.04665 -0.117874 -0.268402 0.048667 -0.134308 -0.301575 0.045942 -0.134789 -0.293762 0.26732 -0.104015 -0.25058 0.268382 -0.153638 -0.292755 0.301852 -0.083105 -0.221008 0.301745 -0.158273 -0.223267 0.301359 -0.175771 -0.114685 0.301713 -0.28011 -0.138977 -0.235648 -0.32234 -0.035679 -0.26827 -0.2832 -0.134155 0.052863 -0.324125 -0.082367 -0.222245 -0.357726 -0.003705 -0.241604 -0.341613 -0.059719 0.05253 -0.367408 -0.011834 -0.228201 -0.298078 -0.084221 0.039846 -0.345481 -0.012868 0.035726 -0.286405 -0.070328 0.029759 -0.291783 -0.00518 0.30285 -0.231105 -0.062965 0.30197 -0.374596 0.035904 -0.226688 -0.350997 0.261017 -0.258677 -0.336142 0.115067 -0.265695 -0.263218 0.271393 -0.285182 -0.373817 0.270538 -0.226173 -0.374458 0.180527 0.047015 -0.368942 0.003607 0.050813 -0.374664 0.036263 0.051575 -0.3553 0.021421 0.033065 -0.355232 0.150009 0.032152 -0.357406 0.157867 0.044064 -0.370933 0.272156 0.051919 -0.356078 0.261261 0.037786 -0.065985 -0.226608 0.044547 -0.071066 -0.223389 0.272074 -0.064348 -0.24234 0.045813 -0.029978 -0.214417 0.254915 -0.010385 -0.205231 0.30152 0.001813 -0.216202 0.26292 -0.008027 -0.217728 0.049451 -0.001401 -0.236252 0.040705 -0.056663 -0.239059 -0.208102 -0.010329 -0.23526 -0.205333 -0.019185 -0.219193 -0.265265 0.034629 -0.227905 -0.274698 -0.013758 -0.192581 -0.308597 0.021937 -0.245529 -0.210967 -0.018518 -0.111786 0.301938 -0.133907 -0.028019 0.301498 0.080721 -0.027893 0.300833 -0.133976 0.116692 0.302303 -0.125794 -0.017027 0.096001 -0.118904 -0.004743 0.229762 -0.125873 0.11396 0.104382 -0.118904 0.11039 0.230545 -0.08599 0.074387 0.230599 -0.121021 0.12075 0.120532 -0.116134 0.129593 0.300833 -0.13187 0.18338 0.301788 -0.292195 0.165802 0.302142 0.023831 0.040546 -0.311355 -0.167119 0.153931 -0.311011 -0.058975 0.035027 0.230932 0.124874 -0.004177 0.229783 0.089591 -0.017076 0.093115 -0.077881 0.048248 0.305844 -0.074717 0.08783 0.305694 -0.050809 0.092735 0.230588 -0.07193 0.055393 0.303483 -0.052223 0.039181 0.305737 0.015893 0.110329 0.230728 0.067881 0.120773 0.121262 -0.038404 0.061905 0.230975 -0.047382 0.059685 0.312766 -0.067656 0.053871 0.123075 -0.052315 0.071671 0.103169 -0.069904 0.076736 0.297023 -0.057201 0.080475 0.31166 0.090878 -0.021517 0.095239 0.083714 -0.100342 0.086107 0.099502 -0.037888 0.301992 0.095141 -0.090599 0.296165 0.137212 -0.082047 0.302174 0.072962 -0.122444 0.301423 0.125584 -0.103043 0.112838 0.119426 -0.122322 0.300768 0.126751 -0.105942 0.135867 -0.346122 0.27066 0.03358 -0.341704 0.288269 -0.236195 -0.238659 0.31546 -0.277713 -0.286038 0.317169 -0.219884 -0.10532 0.330688 -0.231023 -0.226665 0.332458 -0.227707 -0.297437 0.311249 0.056458 -0.247928 0.335449 -0.221215 -0.177351 0.335419 -0.213682 -0.247585 0.335388 0.039417 -0.254521 0.332306 0.052584 -0.29073 0.292542 0.043806 -0.224582 0.318176 0.040683 -0.292218 0.260406 0.30226 -0.165334 0.298004 -0.310153 -0.224994 0.305573 -0.301654 -0.220027 0.288269 0.302528 -0.056194 0.332764 0.050438 0.021781 0.318359 0.040866 0.012862 0.288452 0.30152 -0.103431 0.335419 0.038065 0.062308 0.335358 0.038494 0.021369 0.335449 -0.213886 -0.130909 0.313293 -0.281716 0.002407 0.310913 -0.285633 0.050302 0.330688 -0.230508 -0.122612 0.297272 -0.310088 -0.006395 0.289581 -0.310518 0.016508 0.133255 0.301541 0.07065 0.332947 -0.227074 0.032746 -0.253876 0.049483 0.057329 -0.276184 -0.22349 0.095748 -0.281921 -0.256691 0.09002 -0.146637 -0.309187 0.060843 -0.281067 0.044804 0.071686 -0.309509 -0.226892 0.113728 -0.334045 -0.224059 0.071852 -0.312744 0.047476 0.086673 -0.280273 0.042712 0.044709 -0.242386 0.046585 0.08887 -0.27005 0.271784 0.124691 -0.313568 0.267631 0.039055 -0.231506 0.269638 0.079491 -0.253357 0.300457 0.121178 -0.299286 0.301723 0.042789 -0.225723 0.301745 0.119872 -0.195465 0.301723 0.115856 -0.312531 0.048506 0.119518 -0.335724 0.050009 0.150189 -0.331238 -0.220807 0.151826 -0.260315 -0.275889 0.189844 -0.303497 -0.227138 0.20756 -0.245056 -0.272037 0.221843 -0.243164 -0.222116 0.191973 -0.303467 0.051286 0.221431 -0.24437 0.054494 0.185679 -0.27594 0.033258 0.148805 -0.331512 0.053035 0.149365 -0.300964 0.034878 0.191767 -0.198456 0.028847 0.164071 -0.231033 0.302035 0.138951 -0.294617 0.302142 0.132966 -0.313568 0.267567 0.128937 -0.283539 0.124867 0.128514 -0.204941 0.123397 0.13926 -0.182922 0.301584 0.186319 -0.126389 0.302035 0.196848 -0.136795 -0.312234 0.126499 0.060101 0.229719 0.20859 0.113617 -0.312031 0.133778 0.005804 0.118633 0.133767 0.038662 0.104082 0.14504 0.024961 0.301627 0.186217 0.021091 0.302528 0.134853 0.113022 0.117624 0.145165 0.121788 0.302367 0.171281 0.042919 0.302367 0.17127 0.28833 0.302464 0.126396 0.10656 0.229805 0.191653 -0.172348 0.143013 0.240658 -0.191193 0.058443 0.23949 -0.195953 -0.213156 0.230197 -0.157669 0.029523 0.251621 -0.141373 -0.265469 0.258534 -0.126312 -0.271607 0.253269 -0.145325 -0.225947 0.253361 -0.145416 0.055793 0.241756 -0.131332 0.049086 0.23608 -0.123146 0.027763 0.213442 -0.133362 0.030586 0.218432 -0.111176 0.302163 0.305021 -0.094536 0.054559 0.30795 -0.064087 0.050642 0.348235 -0.036213 0.054591 0.290006 -0.068443 0.03139 0.312185 -0.08696 -0.230841 0.351005 -0.007082 -0.235541 0.292524 -0.034649 0.302689 0.30422 -0.043579 -0.283014 0.185403 0.040806 0.090807 0.206095 0.036564 0.30255 0.206004 0.29361 0.302174 0.349265 0.123848 -0.2712 0.349792 0.007164 -0.263398 0.364006 0.041664 -0.256895 0.367118 0.15596 -0.238202 0.374214 0.077965 -0.225743 0.375427 0.038448 -0.231184 0.374695 0.038574 0.0468 0.26714 0.164413 0.301852 0.33457 0.011715 0.30197 0.356796 0.007337 0.048217 0.358306 0.137726 0.033065 0.349562 -0.033028 -0.232064 0.168878 0.335388 -0.214133 0.215846 0.331238 -0.230014 0.261212 0.335449 -0.21013 0.160466 0.311798 -0.283358 0.283711 0.325012 -0.222138 0.238483 0.311401 -0.290032 0.171316 0.291046 -0.310378 0.242969 0.267853 -0.302416 0.182188 0.332855 0.050298 0.183492 0.318451 0.040737 0.263203 0.335297 0.048238 0.373527 0.266113 -0.229124 0.36895 0.273285 -0.22789 0.374328 0.267456 0.045652 0.363067 0.259308 -0.260007 0.358238 0.270081 0.033633 0.334616 0.255096 0.302196 0.253224 0.285248 0.301788 0.275471 0.303162 0.042207 0.233974 0.317596 0.040576 0.335692 0.277008 0.047068 0.296895 0.317078 0.056726 0.34423 0.287933 0.054859 0.33354 0.294373 -0.238492</float_array>
          <technique_common>
            <accessor source="#WoodenTrunk-mesh-positions-array" count="252" stride="3">
              <param name="X" type="float"/>
              <param name="Y" type="float"/>
              <param name="Z" type="float"/>
            </accessor>
          </technique_common>
        </source>
        <source id="WoodenTrunk-mesh-normals">
          <float_array id="WoodenTrunk-mesh-normals-array" count="1500">-0.698417 -0.715634 0.00905 0.295753 0.179054 0.938334 -0.48734 -0.873039 -0.017419 -0.048162 -0.074222 -0.996078 0.299023 0.31672 0.900152 0.000188 0.015863 0.999874 0.022596 0.007937 0.999713 0.105397 0.005344 0.994416 0.785207 0.103604 0.610505 0.805168 0.183182 0.564046 -0.990107 -0.140279 0.003173 0.708895 0.205505 0.674712 -0.95276 -0.303724 -0.000284 -0.990545 -0.137165 0.002388 -0.94285 -0.333167 -0.005769 -0.049632 0.016598 -0.99863 -0.901173 -0.321684 -0.29053 -0.862413 -0.467653 -0.193763 -0.881701 -0.351 -0.315283 0.044797 -0.644641 -0.763172 -0.297365 -0.216224 -0.929958 -0.230322 -0.12659 -0.964845 0.046932 -0.03136 -0.998406 0.017628 -0.999793 -0.010199 -0.187778 -0.982159 0.010176 0.147055 0.537481 0.830355 -0.275104 -0.696622 -0.662598 -0.337894 -0.518546 -0.785454 -0.168814 -0.449121 -0.877378 -0.637013 -0.066399 -0.767988 0.102034 -0.419083 -0.902196 0.686073 -0.680889 -0.256309 0.695777 -0.65894 -0.285817 -0.062395 0.17292 -0.982958 0.880735 -0.472858 0.026669 0.376036 -0.9266 -0.003155 0.958064 -0.286549 0.001501 0.305447 -0.952183 0.007001 0.502791 -0.059551 0.862354 -0.025362 0.046457 0.998598 -0.068618 -0.047883 0.996493 -0.294259 0.454041 0.840987 0.895354 -0.445005 0.01765 -0.015449 -0.99926 0.035233 0.814401 -0.580287 -0.004303 0.735318 -0.534291 0.416943 0.004928 -0.999481 0.031836 0.702659 -0.690505 0.171679 -0.994812 -0.065807 0.077584 -0.005342 0.006747 0.999963 -0.987677 -0.124894 0.094313 -0.005017 -0.00407 0.999979 -0.983756 -0.158812 0.083686 -0.874334 -0.387409 -0.292326 -0.663093 0.249806 -0.705624 -0.938645 -0.344885 -0.000486 -0.293454 -0.394906 -0.870594 -0.931139 -0.364644 -0.003879 -0.739414 -0.458095 -0.493373 -0.759286 -0.441899 -0.477714 -0.789244 -0.614077 0.00181 0.636445 0.261566 0.725618 -0.786694 -0.617343 0.000816 -0.851847 -0.523675 -0.011051 0.436885 0.346549 0.830081 0.652506 0.367203 0.662871 0.432752 0.335812 0.836634 0.469595 0.225259 0.853662 0.386357 0.306905 0.869791 -0.680338 -0.715806 0.157362 -0.679827 -0.716264 0.157482 0.0575 0.063546 0.996321 -0.67405 -0.721925 0.156461 -0.692167 -0.702137 0.167059 -0.381786 -0.916551 0.119051 -0.593753 -0.422199 -0.684986 -0.777778 -0.097422 -0.620943 -0.69866 -0.028346 -0.714892 -0.662427 -0.031432 -0.748467 -0.626325 -0.044048 -0.778316 -0.246178 -0.005981 -0.969206 -0.26659 -0.001754 -0.963808 -0.817878 0.003977 -0.575377 -0.999994 0.003321 -0.001253 -0.988838 -0.148969 0.002808 -0.999999 0.001417 -0.000247 -0.984994 -0.172588 -0.000019 -0.918182 -0.395799 0.016857 0.65658 0.302096 0.691115 0.638562 0.239623 0.731313 -0.238687 0.007015 0.971071 0.259107 0.022872 0.965578 0.209777 0.030596 0.97727 0.808958 -0.034819 0.586834 0.983831 0.000748 0.179097 0.096367 -0.056892 0.993719 0.983549 -0.001661 0.180635 0.628232 -0.777673 0.023451 0.634626 -0.772411 0.025101 0.58732 -0.752229 0.298676 0.01341 0.081608 0.996574 0.249249 -0.416132 0.874476 0.284864 -0.939353 0.190967 0.220752 -0.97515 0.018726 0.211202 -0.972022 0.1028 -0.11411 -0.964518 0.238085 -0.058526 -0.998237 0.009834 0.148739 -0.988364 0.031818 -0.094759 0.07007 0.993031 0.588028 -0.808809 -0.007104 0.111961 -0.391223 0.91346 0.515447 -0.856909 0.004527 0.09546 -0.995383 -0.009973 0.556597 -0.762967 -0.328757 0.082131 -0.996597 -0.006999 0.094726 -0.95796 -0.270814 0.14533 -0.960225 -0.238424 -0.194299 -0.954287 -0.22712 0.218893 -0.84345 -0.490589 -0.001345 -0.598305 -0.801267 -0.001058 -0.015916 -0.999873 -0.302135 -0.953238 0.007121 -0.337209 -0.887976 -0.312714 0.003995 -0.004131 0.999983 -0.001416 -0.000931 0.999999 -0.001492 0.003197 0.999994 0.003094 0.009514 0.99995 0.004801 0.000157 0.999988 0.006856 -0.005558 0.999961 -0.99865 -0.00392 0.051798 -0.998478 -0.000375 0.055145 -0.009072 -0.006803 0.999936 -0.875861 0.478573 0.061924 0.99916 -0.002013 0.040935 0.765271 -0.642451 0.0402 0.587055 -0.809198 0.023775 0.078363 0.005225 0.996911 0.001367 0.00768 0.99997 -0.002934 -0.001912 -0.999994 0.002216 -0.012186 -0.999923 -0.00002 -0.029368 0.999569 -0.017261 -0.003397 0.999845 0.000944 0.99857 0.053451 0.999221 0.000257 0.039467 0.000998 -0.995814 0.0914 -0.819291 -0.563235 -0.107371 -0.987782 0.079476 0.134053 -0.460614 0.883132 -0.088948 -0.00032 0.001198 0.999999 0.39777 -0.028319 0.917048 0.090224 0.243893 0.965596 -0.001355 -0.002793 0.999995 0.000324 0.995596 0.09375 -0.000487 0.995501 0.094748 -0.000068 -0.998799 0.048989 -0.004878 0.010567 0.999932 0.960452 -0.260497 0.098353 0.921471 0.372176 0.111247 -0.305519 -0.243423 0.920545 -0.167703 0.985761 -0.01229 -0.724263 0.687218 0.056345 0.995897 -0.087163 0.024331 0.801174 -0.591903 0.088161 0.89781 0.047304 0.437834 -0.904149 -0.427205 -0.003151 0.893108 0.429015 0.13529 0.232405 -0.971508 0.046471 0.332964 0.928105 0.166602 -0.47532 -0.660478 0.58124 -0.331753 -0.939784 0.08213 0.793572 -0.607294 -0.037902 -0.000425 0.998648 0.051987 0.951414 0.302707 0.05639 0.994338 -0.09572 0.046154 -0.995224 0.084866 0.048231 -0.995763 0.076782 0.050609 -0.120921 -0.09918 0.987695 0.995818 -0.08146 0.041363 0.006297 0.005725 0.999964 0.005161 -0.004029 0.999979 -0.000987 0.994777 0.102064 -0.096919 -0.993965 0.051375 0.184927 -0.977945 0.09709 -0.001175 0.994782 0.102012 -0.997393 0.045218 0.056238 0.267414 0.957622 0.107001 0.005076 -0.005482 0.999972 0.002303 -0.995628 0.093374 -0.242026 0.006797 0.970246 -0.980384 -0.000725 0.197097 -0.980545 -0.001548 0.196287 -0.290802 0.016402 -0.956643 -0.286684 0.665924 -0.688737 -0.527741 0.64034 -0.558081 -0.430108 0.37861 -0.81955 -0.483379 0.875411 -0.000081 -0.99923 0.037899 0.010142 -0.360504 0.875694 -0.321243 0.004981 0.94642 -0.322901 -0.272242 0.929049 -0.250506 -0.460773 0.887518 0.000007 -0.469688 0.882831 0.001723 -0.218285 0.389963 -0.894584 0.034771 0.946102 -0.321996 0.0004 1 0.000234 -0.404908 0.914357 0.000747 -0.432485 0.901641 -0.000064 -0.44041 0.897796 0.001067 0.300307 -0.458145 0.836612 0.210995 -0.494576 0.843134 0.186636 -0.370785 0.909772 -0.354353 0.928214 0.113373 -0.382898 0.916999 0.111815 0.263101 -0.865353 0.426547 -0.980467 -0.000486 0.196685 0.566136 -0.247873 0.786161 0.422701 -0.042625 0.905266 0.701915 0.034183 0.71144 0.018485 0.004186 0.99982 -0.001363 -0.001115 0.999998 -0.258842 0.000635 -0.965919 -0.249441 0.008861 -0.968349 -0.169111 -0.267964 -0.948471 -0.668705 0.47029 -0.575899 0.069275 0.935393 -0.346758 -0.003234 -0.001249 0.999994 -0.358166 0.926904 0.112098 0.002731 -0.004764 0.999985 0.009846 -0.631869 0.775012 0.000219 0.973656 0.228022 -0.000205 -0.554212 0.832375 -0.000822 0.993485 0.113963 -0.000289 0.99354 0.113484 0.004334 -0.003417 0.999985 0.001699 0.979052 0.203603 -0.000214 1 0.000063 -0.000185 0.977597 0.210485 -0.000151 1 0.000044 0.000367 1 0.000301 0.00683 0.944777 -0.327643 0.000117 0.880711 -0.473653 0.007234 0.944711 -0.327825 0.00112 0.940957 -0.338525 0.015687 0.872618 -0.488151 0.001109 0.870907 -0.491447 0.001609 0.005939 -0.999981 0.047202 0.750069 -0.659673 -0.003201 0.007432 -0.999967 0.000213 0.003387 -0.999994 -0.004809 -0.01916 0.999805 0.001724 0.000179 0.999998 0.027107 -0.996683 0.076732 -0.000413 0.875828 -0.482622 -0.001179 0.979262 -0.202594 -0.000341 0.982242 -0.187618 0.001844 0.830378 -0.557197 -0.456675 -0.889582 -0.009557 -0.450806 -0.507828 0.734088 -0.654119 -0.756386 0.002907 -0.620188 -0.45497 -0.639038 -0.571726 -0.754411 -0.322481 -0.046724 -0.363082 -0.930585 0.218142 -0.503478 -0.836017 -0.695766 -0.718257 -0.00396 -0.918208 -0.39607 0.004817 0.164773 0.170158 -0.971543 -0.503528 -0.863922 -0.009881 -0.944484 -0.328541 -0.003301 0.083051 -0.08503 0.992911 0.162228 0.079116 0.983576 0.114102 0.129577 0.984982 -0.667592 -0.743474 0.039582 -0.769905 -0.637152 0.035818 -0.421831 -0.906055 0.033503 -0.612414 -0.790202 0.023022 -0.383722 -0.923129 0.024286 -0.599624 -0.761199 0.247036 -0.734588 -0.662717 0.145557 -0.4036 -0.89111 0.207438 -0.58349 -0.784715 0.209193 -0.356103 -0.922388 0.149638 -0.002729 0.003914 0.999989 0.030668 -0.005844 0.999513 -0.030788 -0.000387 0.999526 -0.01939 -0.008343 0.999777 0.014051 0.013141 0.999815 0.076885 0.110307 0.990919 -0.023872 0.155793 0.987501 -0.43443 -0.900698 0.00366 -0.023656 0.060902 0.997863 0.077442 -0.996967 -0.007744 0.081642 0.089336 -0.99265 -0.460051 -0.79522 -0.394941 -0.173722 -0.362642 -0.915593 -0.034349 -0.612525 -0.789705 0.293157 -0.590642 -0.751798 0.225057 -0.635585 -0.738499 0.867298 -0.440715 -0.23144 0.883652 -0.468096 -0.006705 0.572752 -0.819717 -0.00429 0.894988 -0.446089 -0.000613 -0.667078 0.295384 0.683926 0.544845 -0.838534 0.001916 -0.278656 0.480775 0.831388 0.142381 -0.989812 -0.000271 -0.302003 0.49116 0.817041 -0.160381 0.506488 0.8472 0.005697 0.056381 0.998393 0.340207 0.114171 0.933394 0.929135 -0.367003 0.04492 0.315553 -0.948461 -0.029136 0.926113 -0.374555 0.044981 -0.000037 -0.999989 -0.004731 -0.743689 -0.667987 0.026822 -0.980035 0.187173 0.067059 0.001602 0.978576 0.205881 -0.998414 -0.004324 0.056131 0.991844 0.115546 0.053802 -0.749296 -0.634778 0.188711 0.998911 0.012556 0.044942 -0.008432 0.005019 0.999952 -0.012861 0.002734 0.999914 -0.998204 0.00306 0.059823 -0.997659 -0.025741 0.063349 -0.997625 -0.020642 0.065715 -0.225263 -0.817391 -0.530215 0.998824 0.006275 0.048066 0.998823 0.006721 0.048042 -0.001409 -0.281809 -0.95947 0.154811 -0.330391 -0.931061 0.998889 0.012045 0.045566 -0.000484 -0.011751 -0.999931 0.007622 0.000809 0.999971 -0.028715 0.00216 -0.999585 0.000808 -0.011294 -0.999936 -0.953487 -0.151708 0.260477 0.5489 -0.835312 -0.03104 0.995848 0.037144 0.083106 -0.997944 0.025666 0.058727 -0.56894 0.817606 0.08847 -0.560429 0.823146 0.091382 -0.005691 -0.000729 0.999984 -0.000182 -0.003347 0.999994 -0.998351 0.004163 0.057259 0.997759 -0.025155 0.06201 -0.998448 0.000866 0.055687 -0.001189 -0.000394 0.999999 -0.005961 0.000354 0.999982 -0.006423 -0.000013 0.999979 -0.08897 -0.995082 0.043543 -0.111944 -0.992282 0.053332 0.118252 0.990789 0.065988 0.9969 -0.027964 0.073545 0.034804 0.993179 0.111287 0.998349 0.002102 0.057393 0.008289 -0.001829 0.999964 0.007576 -0.003398 0.999966 0.923984 -0.379351 0.048435 0.958829 -0.276627 0.064218 -0.605197 0.16092 0.779641 0.940371 -0.340146 0.001918 0.936708 -0.350113 -0.000132 -0.735563 0.296112 0.609315 0.921125 -0.296427 -0.252309 -0.084622 0.06325 0.994404 0.909308 -0.374998 -0.180376 0.623244 -0.217273 -0.751239 0.530331 -0.517174 -0.671774 0.892818 -0.44298 -0.08152 0.958215 -0.277912 -0.067741 0.964875 -0.26271 -0.000398 0.963595 -0.267366 0.000543 -0.350969 0.150903 0.924148 -0.902715 0.082574 0.422241 -0.932651 0.174999 0.315497 0.109418 0.032 0.993481 0.016618 -0.032222 0.999343 0.4173 -0.906341 0.066374 0.945632 -0.316846 0.073402 0.426979 -0.901862 0.065831 0.964545 -0.24315 0.102623 -0.002424 -0.003349 0.999991 0.973943 -0.207066 0.09251 -0.002488 -0.005901 0.999979 -0.230613 0.256912 0.938517 0.701702 -0.712471 -0.000458 -0.166747 0.141562 0.975785 -0.194433 0.143528 0.970358 -0.63949 0.618944 0.456027 0.80347 -0.595329 0.004366 0.703728 -0.710469 -0.001194 -0.047672 -0.035569 -0.99823 0.802676 -0.577751 -0.148033 -0.661304 0.624351 0.415767 0.707545 -0.702553 0.076151 0.715883 -0.69365 0.07976 -0.003394 -0.003585 0.999988 0.549988 -0.404457 -0.730704 0.578665 -0.814055 0.049609 -0.529189 0.844659 0.080685 0.563275 -0.824997 0.04584 -0.022996 -0.007615 0.999707 0.997779 0.00002 0.066604 -0.612526 0.786825 0.07562 -0.99526 -0.000212 0.097253 0.272244 -0.011983 -0.962154 0.279234 -0.007369 -0.960195 0.448155 -0.057622 -0.892097 0.735494 -0.473028 -0.485069 0.521893 -0.05456 -0.851264 0.795243 -0.525068 -0.303136 0.91693 -0.337692 -0.212611 0.925702 -0.085473 0.36847 0.601253 -0.072411 -0.795771 -0.073173 0.13382 -0.9883 0.999537 0.030316 0.002618 -0.001339 0.000334 0.999999 0.002068 0.004468 0.999988 0.010926 0.005598 0.999925 0.739187 -0.669166 0.076288 0.996183 -0.001399 0.087276 0.739532 -0.668767 0.076441 -0.690177 0.490074 0.532432 -0.124375 0.115955 0.985437 -0.220951 0.183627 0.957842 -0.254515 0.18885 0.94845 0.942756 -0.333483 0.000661 0.940314 -0.340297 0.00263 0.821878 -0.569657 -0.002523 0.426602 -0.143378 -0.893002 0.170328 -0.140169 -0.975367 -0.00476 0.002783 -0.999985 0.000414 1 0.000293 0.000095 0.982541 -0.186047 0.0067 0.972161 -0.234219 -0.001162 0.838579 -0.544779 0.009207 0.973797 -0.227231 -0.002109 0.940253 -0.340469 0.136014 0.85969 -0.492375 -0.022683 0.946657 -0.321443 0.119066 0.955239 -0.270815 0.000707 0.009462 -0.999955 0.121484 0.034761 -0.991985 -0.006049 0.791902 -0.610619 0.197035 0.286883 -0.937484 -0.049121 0.782508 -0.6207 0.005136 0.758318 -0.651865 -0.000416 0.941382 -0.337343 0.000699 -0.550817 0.834625 -0.00025 0.97773 0.209868 0.000978 -0.552978 0.833195 -0.000474 0.993484 0.113975 0.000084 0.993442 0.114335 0.998704 0.015609 0.048435 -0.996204 0.008762 0.086611 0.000292 1 0.000242 -0.000686 1 0.000594 -0.018185 0.924511 0.380723 0.851413 -0.006313 -0.524459 -0.127173 0.088817 -0.987896 0.999989 0.003599 -0.002933 0.84254 0.53861 -0.005089 0.999998 0.001595 -0.001534 0.983599 0.000499 -0.180366 0.984631 0.001748 -0.174637 0.147755 0.988857 0.018167 0.674088 -0.007655 -0.738611 0.335406 0.043581 -0.941065 0.278901 -0.002301 -0.960317 -0.632067 0.002875 0.774909 -0.598824 -0.00375 0.800872 0.996153 0.000137 0.087626 0.996138 -0.000269 0.087802 -0.003846 -0.000925 0.999992 0.008359 0.001464 0.999964 0.008447 0.001506 0.999963 -0.005027 -0.000046 0.999987 0.345428 0.933721 0.094043 0.323855 0.941551 0.092734 0.3916 0.916618 0.080377 0.33702 0.937922 0.081977 -0.26984 -0.464555 0.843431 -0.386716 -0.310594 0.868322 0.476275 0.879291 -0.003153 0.423333 0.905956 0.005762 0.215079 -0.672836 0.707836 -0.234387 -0.436325 0.868725 0.808792 0.586711 0.040316 0.523662 0.851926 -0.000519 0.524294 0.851537 -0.000411 0.511633 0.859204 0.000219 0.373714 0.829414 -0.415224 0.554035 0.721433 -0.415428 0.495839 0.284403 -0.820523 0.290072 0.665964 -0.687278 0.017158 0.995508 0.093113 0.174206 0.978728 0.108366 -0.006718 -0.55345 0.832856 0.036199 -0.446717 0.893942 -0.116632 -0.226024 0.967114</float_array>
          <technique_common>
            <accessor source="#WoodenTrunk-mesh-normals-array" count="500" stride="3">
              <param name="X" type="float"/>
              <param name="Y" type="float"/>
              <param name="Z" type="float"/>
            </accessor>
          </technique_common>
        </source>
        <source id="WoodenTrunk-mesh-map-0">
          <float_array id="WoodenTrunk-mesh-map-0-array" count="3000">0.774902 0.866211 0.76416 0.891113 0.746094 0.881836 0.76416 0.891113 0.774902 0.866211 0.820312 0.851807 0.774902 0.866211 0.746094 0.881836 0.765869 0.835938 0.765869 0.835938 0.746094 0.881836 0.746094 0.847412 0.76416 0.891113 0.820312 0.851807 0.791504 0.919434 0.791504 0.919434 0.820312 0.851807 0.86377 0.970215 0.791504 0.919434 0.86377 0.970215 0.839844 0.996582 0.791504 0.919434 0.839844 0.996582 0.731445 0.999512 0.76416 0.891113 0.791504 0.919434 0.74585 0.94043 0.74585 0.94043 0.791504 0.919434 0.731445 0.999512 0.76416 0.891113 0.74585 0.94043 0.746094 0.881836 0.74585 0.94043 0.731445 0.999512 0.725098 0.9729 0.74585 0.94043 0.725098 0.9729 0.713379 0.970703 0.746094 0.881836 0.74585 0.94043 0.724121 0.94165 0.724121 0.94165 0.74585 0.94043 0.713379 0.970703 0.746094 0.881836 0.724121 0.94165 0.746094 0.847412 0.724121 0.94165 0.713379 0.970703 0.699463 0.964355 0.746094 0.847412 0.724121 0.94165 0.730469 0.880615 0.730469 0.880615 0.724121 0.94165 0.699463 0.964355 0.746094 0.847412 0.730469 0.880615 0.689209 0.86084 0.689209 0.86084 0.730469 0.880615 0.699463 0.964355 0.689209 0.86084 0.699463 0.964355 0.573975 0.930908 0.558105 0.560791 0.55957 0.60376 0.535889 0.610596 0.55957 0.60376 0.558105 0.560791 0.583496 0.573975 0.55957 0.60376 0.583496 0.573975 0.577881 0.621582 0.577881 0.621582 0.583496 0.573975 0.60498 0.580322 0.558105 0.560791 0.535889 0.610596 0.541016 0.548828 0.541016 0.548828 0.535889 0.610596 0.483398 0.583496 0.541016 0.548828 0.483398 0.583496 0.467285 0.529053 0.467285 0.529053 0.483398 0.583496 0.365723 0.527832 0.541016 0.548828 0.467285 0.529053 0.534912 0.460205 0.541016 0.548828 0.534912 0.460205 0.559082 0.483887 0.541016 0.548828 0.559082 0.483887 0.558105 0.560791 0.558105 0.560791 0.559082 0.483887 0.570068 0.522461 0.570068 0.522461 0.559082 0.483887 0.586914 0.495361 0.558105 0.560791 0.570068 0.522461 0.586182 0.525879 0.586182 0.525879 0.570068 0.522461 0.586914 0.495361 0.558105 0.560791 0.586182 0.525879 0.583496 0.573975 0.586182 0.525879 0.586914 0.495361 0.597656 0.499756 0.583496 0.573975 0.586182 0.525879 0.596924 0.534668 0.596924 0.534668 0.586182 0.525879 0.597656 0.499756 0.583496 0.573975 0.596924 0.534668 0.60498 0.580322 0.596924 0.534668 0.597656 0.499756 0.611328 0.523193 0.596924 0.534668 0.611328 0.523193 0.60498 0.580322 0.611328 0.523193 0.597656 0.499756 0.623291 0.483154 0.611328 0.523193 0.623291 0.483154 0.623535 0.532471 0.611328 0.523193 0.623535 0.532471 0.60498 0.580322 0.623535 0.532471 0.623291 0.483154 0.638672 0.463867 0.60498 0.580322 0.623535 0.532471 0.669434 0.552002 0.669434 0.552002 0.623535 0.532471 0.638672 0.463867 0.60498 0.580322 0.669434 0.552002 0.726074 0.603271 0.669434 0.552002 0.638672 0.463867 0.754639 0.569336 0.669434 0.552002 0.754639 0.569336 0.726074 0.603271 0.309326 0.986572 0.316162 0.956055 0.320068 0.989502 0.320068 0.989502 0.316162 0.956055 0.418213 1 0.316162 0.956055 0.309326 0.986572 0.291992 0.985596 0.418213 1 0.316162 0.956055 0.348633 0.891113 0.316162 0.956055 0.291992 0.985596 0.294189 0.947021 0.348633 0.891113 0.316162 0.956055 0.320557 0.898926 0.348633 0.891113 0.320557 0.898926 0.359375 0.868896 0.320557 0.898926 0.316162 0.956055 0.294189 0.947021 0.294189 0.947021 0.291992 0.985596 0.274902 0.973389 0.320557 0.898926 0.294189 0.947021 0.297852 0.877197 0.320557 0.898926 0.297852 0.877197 0.307617 0.844727 0.297852 0.877197 0.294189 0.947021 0.276611 0.916748 0.276611 0.916748 0.294189 0.947021 0.274902 0.973389 0.297852 0.877197 0.276611 0.916748 0.276611 0.856201 0.276611 0.916748 0.274902 0.973389 0.258057 0.917236 0.276611 0.916748 0.258057 0.917236 0.276611 0.856201 0.276611 0.856201 0.258057 0.917236 0.229736 0.882568 0.229736 0.882568 0.258057 0.917236 0.202148 0.929443 0.258057 0.917236 0.274902 0.973389 0.24707 0.980957 0.202148 0.929443 0.258057 0.917236 0.194092 0.998291 0.194092 0.998291 0.258057 0.917236 0.24707 0.980957 0.194092 0.998291 0.24707 0.980957 0.220459 0.999756 0.865967 0.446289 0.837891 0.473877 0.820312 0.468262 0.820312 0.468262 0.837891 0.473877 0.82251 0.507568 0.820312 0.468262 0.82251 0.507568 0.754395 0.60791 0.820312 0.468262 0.754395 0.60791 0.766846 0.513428 0.820312 0.468262 0.766846 0.513428 0.81958 0.442139 0.81958 0.442139 0.766846 0.513428 0.651855 0.460449 0.81958 0.442139 0.651855 0.460449 0.783203 0.327637 0.754395 0.60791 0.82251 0.507568 0.771729 0.624512 0.771729 0.624512 0.82251 0.507568 0.821045 0.589844 0.853271 0.497803 0.82251 0.507568 0.837891 0.473877 0.821045 0.589844 0.82251 0.507568 0.843262 0.518066 0.843262 0.518066 0.82251 0.507568 0.853271 0.497803 0.853271 0.497803 0.837891 0.473877 0.867188 0.458252 0.853271 0.497803 0.867188 0.458252 0.872803 0.483643 0.853271 0.497803 0.872803 0.483643 0.859375 0.507812 0.859375 0.507812 0.872803 0.483643 0.842041 0.581055 0.843262 0.518066 0.853271 0.497803 0.840088 0.584473 0.843262 0.518066 0.840088 0.584473 0.821045 0.589844 0.840088 0.584473 0.853271 0.497803 0.859375 0.507812 0.840088 0.584473 0.859375 0.507812 0.842041 0.581055 0.821045 0.589844 0.840088 0.584473 0.843262 0.631348 0.840088 0.584473 0.842041 0.581055 0.865967 0.626953 0.387451 0.797363 0.388184 0.751709 0.40332 0.744629 0.388184 0.751709 0.387451 0.797363 0.374512 0.784668 0.388184 0.751709 0.374512 0.784668 0.373535 0.77124 0.387451 0.797363 0.40332 0.744629 0.399902 0.803711 0.399902 0.803711 0.40332 0.744629 0.410156 0.754883 0.373535 0.77124 0.374512 0.784668 0.354004 0.820557 0.354004 0.820557 0.374512 0.784668 0.387451 0.797363 0.373535 0.77124 0.354004 0.820557 0.338867 0.835449 0.338867 0.835449 0.354004 0.820557 0.341309 0.850342 0.341309 0.850342 0.354004 0.820557 0.359131 0.849365 0.359131 0.849365 0.354004 0.820557 0.387451 0.797363 0.359131 0.849365 0.387451 0.797363 0.399902 0.803711 0.399902 0.803711 0.410156 0.754883 0.42334 0.782715 0.359131 0.849365 0.399902 0.803711 0.370361 0.862061 0.399902 0.803711 0.42334 0.782715 0.414795 0.822021 0.399902 0.803711 0.414795 0.822021 0.370361 0.862061 0.414795 0.822021 0.42334 0.782715 0.442627 0.811035 0.370361 0.862061 0.414795 0.822021 0.388428 0.867188 0.388428 0.867188 0.414795 0.822021 0.403564 0.86499 0.403564 0.86499 0.414795 0.822021 0.442627 0.811035 0.388428 0.867188 0.403564 0.86499 0.362061 0.900635 0.403564 0.86499 0.442627 0.811035 0.418213 0.880615 0.418213 0.880615 0.442627 0.811035 0.530762 0.810303 0.418213 0.880615 0.530762 0.810303 0.608887 0.887695 0.97876 0.679688 0.957031 0.679688 0.973633 0.645996 0.973633 0.645996 0.957031 0.679688 0.961914 0.628174 0.06543 0.478027 0.120117 0.431641 0.113525 0.482178 0.120117 0.431641 0.06543 0.478027 0.063965 0.369385 0.063965 0.369385 0.06543 0.478027 0.020264 0.399414 0.020264 0.399414 0.06543 0.478027 0.024414 0.547852 0.158447 0.811523 0.090088 0.811523 0.156006 0.750977 0.156006 0.750977 0.090088 0.811523 0.009277 0.758789 0.106689 0.130859 0.100098 0.137939 0.043213 0.125732 0.043213 0.125732 0.100098 0.137939 0.044434 0.133301 0.044434 0.133301 0.100098 0.137939 0.060059 0.15625 0.043213 0.125732 0.044434 0.133301 0.039307 0.12793 0.106689 0.130859 0.043213 0.125732 0.042725 0.11499 0.042725 0.11499 0.043213 0.125732 0.039307 0.12793 0.042725 0.11499 0.039307 0.12793 0.03125 0.121582 0.042725 0.11499 0.03125 0.121582 0.014404 0.098877 0.042725 0.11499 0.014404 0.098877 0.076904 0.01416 0.872314 0.976074 0.830811 0.847168 0.933105 0.853271 0.870117 0.514404 0.9729 0.438965 0.972656 0.581299 0.044434 0.952637 0.021484 0.992676 0.031982 0.824463 0.021484 0.992676 0.044434 0.952637 0.063232 0.972412 0.105713 0.587891 0.134033 0.441895 0.14624 0.438477 0.14624 0.438477 0.134033 0.441895 0.097168 0.382324 0.134033 0.441895 0.105713 0.587891 0.124512 0.444824 0.077148 0.284668 0.050781 0.278809 0.091064 0.27832 0.050781 0.278809 0.077148 0.284668 0.05835 0.296387 0.050781 0.278809 0.05835 0.296387 0.046143 0.315674 0.050781 0.278809 0.046143 0.315674 0.029053 0.251953 0.05835 0.296387 0.077148 0.284668 0.074707 0.292236 0.074707 0.292236 0.077148 0.284668 0.092529 0.306641 0.029053 0.251953 0.046143 0.315674 0.028564 0.372314 0.029053 0.251953 0.028564 0.372314 0.017822 0.249756 0.017822 0.249756 0.028564 0.372314 0.004883 0.413818 0.017822 0.249756 0.004883 0.413818 0.000244 0.248535 0.028564 0.372314 0.046143 0.315674 0.07251 0.335205 0.072998 0.325439 0.092529 0.306641 0.07251 0.335205 0.072998 0.325439 0.07251 0.335205 0.046143 0.315674 0.092529 0.306641 0.072998 0.325439 0.074707 0.292236 0.074707 0.292236 0.072998 0.325439 0.070557 0.303467 0.070557 0.303467 0.072998 0.325439 0.065918 0.311279 0.074707 0.292236 0.070557 0.303467 0.062012 0.301514 0.062012 0.301514 0.070557 0.303467 0.065918 0.311279 0.074707 0.292236 0.062012 0.301514 0.05835 0.296387 0.065918 0.311279 0.072998 0.325439 0.057861 0.311279 0.057861 0.311279 0.072998 0.325439 0.046143 0.315674 0.065918 0.311279 0.057861 0.311279 0.062012 0.301514 0.057861 0.311279 0.046143 0.315674 0.05835 0.296387 0.057861 0.311279 0.05835 0.296387 0.062012 0.301514 0.989502 0.520752 0.994629 0.535156 0.98999 0.539062 0.98999 0.539062 0.994629 0.535156 0.991211 0.554688 0.166748 0.666992 0.175049 0.831299 0.162598 0.838867 0.162598 0.838867 0.175049 0.831299 0.164551 0.840576 0.164551 0.840576 0.175049 0.831299 0.203857 0.863037 0.164551 0.840576 0.203857 0.863037 0.165283 0.856689 0.165283 0.856689 0.203857 0.863037 0.191406 0.871826 0.165283 0.856689 0.191406 0.871826 0.168701 0.89502 0.203857 0.863037 0.175049 0.831299 0.221924 0.858154 0.221924 0.858154 0.175049 0.831299 0.257324 0.797607 0.221924 0.858154 0.257324 0.797607 0.296875 0.83374 0.203857 0.863037 0.221924 0.858154 0.200195 0.89502 0.203857 0.863037 0.200195 0.89502 0.191406 0.871826 0.191406 0.871826 0.200195 0.89502 0.168701 0.89502 0.200195 0.89502 0.221924 0.858154 0.215576 0.893066 0.168701 0.89502 0.200195 0.89502 0.202148 0.896484 0.202148 0.896484 0.200195 0.89502 0.215576 0.893066 0.002197 0.866699 0.02002 0.854004 0.016357 0.996826 0.503418 0.155762 0.687744 0.155762 0.530029 0.166016 0.242188 0.222656 0.400635 0.156494 0.335938 0.19165 0.400635 0.156494 0.242188 0.222656 0.22876 0.177979 0.400635 0.156494 0.22876 0.177979 0.324463 0.137939 0.750488 0.341797 0.679443 0.399414 0.692871 0.319092 0.750488 0.341797 0.692871 0.319092 0.707031 0.306641 0.707031 0.306641 0.692871 0.319092 0.681152 0.304932 0.750488 0.341797 0.707031 0.306641 0.778809 0.321777 0.707031 0.306641 0.681152 0.304932 0.681641 0.290527 0.681641 0.290527 0.681152 0.304932 0.646729 0.293945 0.778809 0.321777 0.707031 0.306641 0.750244 0.305664 0.86792 0.333496 0.778809 0.321777 0.790039 0.307129 0.790039 0.307129 0.778809 0.321777 0.750244 0.305664 0.750244 0.305664 0.707031 0.306641 0.740234 0.288818 0.740234 0.288818 0.707031 0.306641 0.681641 0.290527 0.790039 0.307129 0.750244 0.305664 0.775391 0.300293 0.790039 0.307129 0.775391 0.300293 0.815186 0.310791 0.815186 0.310791 0.775391 0.300293 0.774658 0.283936 0.774658 0.283936 0.775391 0.300293 0.770752 0.281494 0.770752 0.281494 0.775391 0.300293 0.750244 0.305664 0.770752 0.281494 0.750244 0.305664 0.740234 0.288818 0.770752 0.281494 0.740234 0.288818 0.737549 0.27417 0.737549 0.27417 0.740234 0.288818 0.681641 0.290527 0.770752 0.281494 0.737549 0.27417 0.779297 0.263428 0.779297 0.263428 0.737549 0.27417 0.729004 0.255371 0.729004 0.255371 0.737549 0.27417 0.697998 0.277344 0.697998 0.277344 0.737549 0.27417 0.681641 0.290527 0.729004 0.255371 0.697998 0.277344 0.710205 0.221924 0.697998 0.277344 0.681641 0.290527 0.685303 0.2771 0.697998 0.277344 0.685303 0.2771 0.65332 0.246826 0.685303 0.2771 0.681641 0.290527 0.649658 0.26001 0.881104 0.026611 0.984131 0.03125 1 0.099365 0.881104 0.026611 1 0.099365 0.882324 0.153809 0.449707 0.293945 0.62207 0.225098 0.560303 0.296143 0.560303 0.296143 0.62207 0.225098 0.637451 0.293701 0.637451 0.293701 0.62207 0.225098 0.642578 0.249512 0.642578 0.249512 0.62207 0.225098 0.648438 0.239014 0.642578 0.249512 0.648438 0.239014 0.637451 0.293701 0.579102 0.078857 0.526123 0.068359 0.521729 0.016846 0.526123 0.068359 0.579102 0.078857 0.576416 0.099854 0.579102 0.078857 0.521729 0.016846 0.637207 0.016113 0.512451 0.220459 0.414307 0.296875 0.415771 0.271484 0.414307 0.296875 0.512451 0.220459 0.419922 0.298096 0.512451 0.220459 0.415771 0.271484 0.518555 0.182373 0.518555 0.182373 0.415771 0.271484 0.494141 0.155518 0.494141 0.155518 0.415771 0.271484 0.387207 0.257324 0.494141 0.155518 0.387207 0.257324 0.36499 0.18335 0.419922 0.298096 0.512451 0.220459 0.491699 0.240479 0.419922 0.298096 0.491699 0.240479 0.463135 0.281494 0.491699 0.240479 0.512451 0.220459 0.566406 0.184326 0.463135 0.281494 0.491699 0.240479 0.559326 0.213379 0.559326 0.213379 0.491699 0.240479 0.566406 0.184326 0.263428 0.230713 0.242432 0.237061 0.162598 0.219971 0.162598 0.219971 0.242432 0.237061 0.215088 0.240723 0.242432 0.237061 0.263428 0.230713 0.341064 0.258057 0.341064 0.258057 0.263428 0.230713 0.378906 0.253662 0.215088 0.240723 0.242432 0.237061 0.246826 0.247559 0.246826 0.247559 0.242432 0.237061 0.341064 0.258057 0.215088 0.240723 0.246826 0.247559 0.197998 0.321777 0.246826 0.247559 0.341064 0.258057 0.332275 0.269043 0.246826 0.247559 0.332275 0.269043 0.197998 0.321777 0.203613 0.631592 0.051758 0.743408 0.044922 0.570557 0.861328 0.149658 0.832764 0.021729 0.876709 0.03125 0.832764 0.021729 0.861328 0.149658 0.759033 0.143555 0.861328 0.149658 0.876709 0.03125 0.876709 0.1875 0.500244 0.993896 0.633301 0.993896 0.725098 0.99585 0.721191 0.980469 0.504395 0.919434 0.540771 0.927979 0.721191 0.980469 0.540771 0.927979 0.685547 0.96875 0.999756 0.272705 0.999756 0.378906 0.998535 0.258789 0.50415 0.457031 0.472168 0.426514 0.490723 0.411865 0.50415 0.457031 0.490723 0.411865 0.524658 0.457764 0.490723 0.411865 0.472168 0.426514 0.446289 0.39624 0.446289 0.39624 0.472168 0.426514 0.418213 0.401611 0.418213 0.401611 0.472168 0.426514 0.456543 0.440186 0.418213 0.401611 0.456543 0.440186 0.366943 0.490479 0.366943 0.490479 0.456543 0.440186 0.443115 0.52002 0.490723 0.411865 0.446289 0.39624 0.464844 0.377197 0.464844 0.377197 0.446289 0.39624 0.432129 0.363281 0.432129 0.363281 0.446289 0.39624 0.384521 0.320557 0.432129 0.363281 0.384521 0.320557 0.443359 0.349854 0.432129 0.363281 0.443359 0.349854 0.464844 0.377197 0.490723 0.411865 0.464844 0.377197 0.47583 0.348633 0.490723 0.411865 0.47583 0.348633 0.505615 0.398926 0.490723 0.411865 0.505615 0.398926 0.524658 0.457764 0.505615 0.398926 0.47583 0.348633 0.506104 0.337646 0.506104 0.337646 0.47583 0.348633 0.483398 0.309326 0.524658 0.457764 0.505615 0.398926 0.533203 0.403076 0.533203 0.403076 0.505615 0.398926 0.506104 0.337646 0.524658 0.457764 0.533203 0.403076 0.551025 0.445801 0.533203 0.403076 0.506104 0.337646 0.522705 0.353516 0.522705 0.353516 0.506104 0.337646 0.503662 0.303955 0.551025 0.445801 0.533203 0.403076 0.541016 0.398438 0.541016 0.398438 0.533203 0.403076 0.522705 0.353516 0.551025 0.445801 0.541016 0.398438 0.565186 0.450928 0.565186 0.450928 0.541016 0.398438 0.635498 0.360352 0.635498 0.360352 0.541016 0.398438 0.522705 0.353516 0.522705 0.353516 0.503662 0.303955 0.590088 0.300781 0.522705 0.353516 0.590088 0.300781 0.635498 0.360352 0.635498 0.360352 0.590088 0.300781 0.656494 0.304688 0.958008 0.582275 0.984619 0.594727 0.957275 0.611572 0.957275 0.611572 0.984619 0.594727 0.984375 0.644775 0.512695 0.653076 0.484375 0.646484 0.492188 0.595459 0.492188 0.595459 0.484375 0.646484 0.4646 0.629639 0.484375 0.646484 0.512695 0.653076 0.499756 0.691162 0.499756 0.691162 0.512695 0.653076 0.603271 0.622314 0.499756 0.691162 0.603271 0.622314 0.588623 0.67627 0.536621 0.743164 0.588623 0.67627 0.668213 0.780273 0.588623 0.67627 0.536621 0.743164 0.499756 0.691162 0.499756 0.691162 0.536621 0.743164 0.476562 0.740723 0.476562 0.740723 0.536621 0.743164 0.481201 0.79541 0.476562 0.740723 0.481201 0.79541 0.459961 0.797119 0.476562 0.740723 0.459961 0.797119 0.452881 0.730469 0.476562 0.740723 0.452881 0.730469 0.499756 0.691162 0.452881 0.730469 0.459961 0.797119 0.430908 0.779297 0.452881 0.730469 0.430908 0.779297 0.423584 0.728027 0.499756 0.691162 0.452881 0.730469 0.471191 0.678223 0.471191 0.678223 0.452881 0.730469 0.423584 0.728027 0.499756 0.691162 0.471191 0.678223 0.484375 0.646484 0.471191 0.678223 0.423584 0.728027 0.435059 0.675537 0.471191 0.678223 0.435059 0.675537 0.484375 0.646484 0.435059 0.675537 0.423584 0.728027 0.372559 0.750488 0.484375 0.646484 0.435059 0.675537 0.4646 0.629639 0.388428 0.645996 0.426514 0.64624 0.435059 0.675537 0.4646 0.629639 0.435059 0.675537 0.440674 0.636963 0.440674 0.636963 0.435059 0.675537 0.426514 0.64624 0.4646 0.629639 0.440674 0.636963 0.443604 0.625977 0.4646 0.629639 0.443604 0.625977 0.459961 0.588623 0.440674 0.636963 0.426514 0.64624 0.420166 0.623047 0.440674 0.636963 0.420166 0.623047 0.443604 0.625977 0.420166 0.623047 0.426514 0.64624 0.374268 0.598877 0.443604 0.625977 0.420166 0.623047 0.433105 0.617432 0.443604 0.625977 0.433105 0.617432 0.417236 0.581543 0.433105 0.617432 0.420166 0.623047 0.367188 0.563721 0.781982 0.226318 0.681152 0.198242 0.746826 0.183838 0.781982 0.226318 0.746826 0.183838 0.848877 0.183105 0.681152 0.198242 0.781982 0.226318 0.756592 0.240723 0.756592 0.240723 0.781982 0.226318 0.845947 0.266357 0.845947 0.266357 0.781982 0.226318 0.872803 0.253418 0.971436 0.685303 0.959717 0.72168 0.957275 0.684326 0.583984 0.105225 0.595947 0.122559 0.511475 0.117676 0.595947 0.122559 0.583984 0.105225 0.663574 0.11084 0.819336 0.369629 0.93335 0.302979 0.928955 0.438477 0.819336 0.369629 0.928955 0.438477 0.826416 0.441162 0.977295 0.530273 0.977295 0.446045 0.99292 0.459717 0.949707 0.998779 0.866943 0.998779 0.935547 0.880615 0 0.746338 0 0.606445 0.040283 0.745117 0.512451 0.013184 0.524902 0.103027 0.35498 0.014404 0.35498 0.014404 0.524902 0.103027 0.411621 0.16748 0.196045 0.036621 0.201416 0.002197 0.203857 0.00293 0.196045 0.036621 0.203857 0.00293 0.200684 0.043213 0.196045 0.036621 0.200684 0.043213 0.18335 0.053467 0.18335 0.053467 0.200684 0.043213 0.19458 0.060059 0.200684 0.043213 0.203857 0.00293 0.219238 0.00415 0.200684 0.043213 0.219238 0.00415 0.241699 0.076172 0.241699 0.076172 0.219238 0.00415 0.266113 0 0.241699 0.076172 0.266113 0 0.305664 0.022217 0.999512 0.530273 0.990479 0.49585 0.999756 0.486816 0.998779 0.586426 0.991455 0.565674 0.998779 0.555664 0.083496 0.935791 0.048584 0.94751 0.077393 0.928711 0.049316 0.935547 0.051758 0.848877 0.077393 0.928711 0.077393 0.928711 0.051758 0.848877 0.136963 0.816406 0.077393 0.928711 0.136963 0.816406 0.168213 0.915283 0.077393 0.928711 0.168213 0.915283 0.133545 0.93335 0.077393 0.928711 0.133545 0.93335 0.083496 0.935791 0.083496 0.935791 0.133545 0.93335 0.091797 0.94043 0.083496 0.935791 0.091797 0.94043 0.081543 0.96582 0.091797 0.94043 0.133545 0.93335 0.171387 0.950195 0.081543 0.96582 0.091797 0.94043 0.090088 0.960693 0.090088 0.960693 0.091797 0.94043 0.171387 0.950195 0.090088 0.960693 0.171387 0.950195 0.189697 0.995605 0.858643 0.192139 0.929932 0.200928 0.824463 0.231934 0.858643 0.192139 0.824463 0.231934 0.799561 0.223145 0.124268 0.386963 0.154053 0.354004 0.144531 0.425781 0.154053 0.354004 0.124268 0.386963 0.132812 0.347656 0.132812 0.347656 0.124268 0.386963 0.110107 0.375732 0.144531 0.425781 0.154053 0.354004 0.180664 0.350098 0.132812 0.347656 0.110107 0.375732 0.097412 0.372803 0.144531 0.425781 0.180664 0.350098 0.194824 0.397217 0.132812 0.347656 0.097412 0.372803 0.144043 0.313965 0.144043 0.313965 0.097412 0.372803 0.0979 0.292236 0.144043 0.313965 0.0979 0.292236 0.148926 0.302979 0.144043 0.313965 0.148926 0.302979 0.148438 0.315918 0.144043 0.313965 0.148438 0.315918 0.132812 0.347656 0.132812 0.347656 0.148438 0.315918 0.167969 0.32251 0.132812 0.347656 0.167969 0.32251 0.154053 0.354004 0.154053 0.354004 0.167969 0.32251 0.184082 0.326416 0.154053 0.354004 0.184082 0.326416 0.180664 0.350098 0.180664 0.350098 0.184082 0.326416 0.192383 0.32666 0.180664 0.350098 0.192383 0.32666 0.203613 0.347412 0.180664 0.350098 0.203613 0.347412 0.194824 0.397217 0.203613 0.347412 0.192383 0.32666 0.217529 0.325439 0.194824 0.397217 0.203613 0.347412 0.211426 0.387939 0.203613 0.347412 0.217529 0.325439 0.231445 0.356445 0.203613 0.347412 0.231445 0.356445 0.211426 0.387939 0.231445 0.356445 0.217529 0.325439 0.304688 0.289795 0.211426 0.387939 0.231445 0.356445 0.236816 0.422119 0.070312 0.009521 0.026855 0.070068 0.012451 0.009277 0.759521 0.787109 0.84375 0.769043 0.8396 0.78833 0.759521 0.787109 0.8396 0.78833 0.839111 0.813232 0.84375 0.769043 0.759521 0.787109 0.73999 0.765625 0.73999 0.765625 0.759521 0.787109 0.684082 0.773682 0.84375 0.769043 0.73999 0.765625 0.760498 0.755859 0.684082 0.773682 0.759521 0.787109 0.747559 0.812012 0.747559 0.812012 0.759521 0.787109 0.839111 0.813232 0.747559 0.812012 0.839111 0.813232 0.663818 0.842285 0.663818 0.842285 0.839111 0.813232 0.823242 0.824463 0.84375 0.769043 0.760498 0.755859 0.844971 0.758545 0.844971 0.758545 0.760498 0.755859 0.856689 0.72583 0.856689 0.72583 0.760498 0.755859 0.73999 0.72168 0.856689 0.72583 0.73999 0.72168 0.816895 0.600586 0.334229 0.075928 0.390869 0.129395 0.238525 0.081787 0.743896 0.147949 0.724854 0.147949 0.715576 0.126953 0.743896 0.147949 0.715576 0.126953 0.737061 0.127441 0.724854 0.147949 0.743896 0.147949 0.741211 0.1604 0.724854 0.147949 0.741211 0.1604 0.697266 0.1875 0.741211 0.1604 0.743896 0.147949 0.867676 0.181152 0.783203 0.28125 0.793457 0.270752 0.794922 0.287109 0.794922 0.287109 0.793457 0.270752 0.915039 0.27417 0.084229 0.013428 0.13623 0.108643 0.05249 0.112061 0.13623 0.108643 0.084229 0.013428 0.170166 0.02832 0.13623 0.108643 0.170166 0.02832 0.159912 0.085693 0.13623 0.108643 0.159912 0.085693 0.123047 0.148682 0.159912 0.085693 0.170166 0.02832 0.174561 0.078125 0.123047 0.148682 0.159912 0.085693 0.163574 0.0896 0.163574 0.0896 0.159912 0.085693 0.174561 0.078125 0.163574 0.0896 0.174561 0.078125 0.227295 0.072998 0.163574 0.0896 0.227295 0.072998 0.206299 0.092773 0.163574 0.0896 0.206299 0.092773 0.192383 0.102295 0.192383 0.102295 0.206299 0.092773 0.204834 0.111328 0.707031 0.05249 0.637207 0.04126 0.632568 0.030762 0.637207 0.04126 0.707031 0.05249 0.639404 0.09668 0.639404 0.09668 0.707031 0.05249 0.723633 0.088135 0.723633 0.088135 0.707031 0.05249 0.743408 0.08252 0.723633 0.088135 0.743408 0.08252 0.75415 0.144775 0.743408 0.08252 0.707031 0.05249 0.724121 0.030762 0.743408 0.08252 0.724121 0.030762 0.735596 0.035889 0.75415 0.144775 0.743408 0.08252 0.75708 0.098145 0.743408 0.08252 0.735596 0.035889 0.750977 0.056396 0.743408 0.08252 0.750977 0.056396 0.75708 0.098145 0.75708 0.098145 0.750977 0.056396 0.768799 0.05957 0.75708 0.098145 0.768799 0.05957 0.77002 0.095947 0.768799 0.05957 0.750977 0.056396 0.789062 0.03418 0.77002 0.095947 0.768799 0.05957 0.776855 0.066162 0.776855 0.066162 0.768799 0.05957 0.789062 0.03418 0.952148 0.73584 0.847168 0.658691 0.93457 0.564697 0.881348 0.80127 0.849609 0.781006 0.862793 0.724854 0.881348 0.80127 0.862793 0.724854 0.878174 0.775146 0.878174 0.775146 0.862793 0.724854 0.866455 0.711914 0.878174 0.775146 0.866455 0.711914 0.883789 0.782227 0.866455 0.711914 0.862793 0.724854 0.852051 0.687256 0.883789 0.782227 0.866455 0.711914 0.899902 0.728516 0.866455 0.711914 0.852051 0.687256 0.848877 0.667969 0.899902 0.728516 0.866455 0.711914 0.866211 0.690186 0.866211 0.690186 0.866455 0.711914 0.848877 0.667969 0.115234 0.23291 0.044434 0.164551 0.222168 0.166748 0.044434 0.164551 0.115234 0.23291 0.064209 0.248291 0.115234 0.23291 0.222168 0.166748 0.12793 0.238525 0.064209 0.248291 0.115234 0.23291 0.080566 0.267578 0.080566 0.267578 0.115234 0.23291 0.12793 0.238525 0.977295 0.203369 0.988037 0.210693 0.978271 0.323975 0.978271 0.323975 0.988037 0.210693 0.99585 0.246094 0.309814 0.137207 0.254395 0.143799 0.140625 0.133789 0.309814 0.137207 0.140625 0.133789 0.22583 0.134033 0.992188 0.328125 0.99585 0.432373 0.979248 0.329346 0.979248 0.329346 0.99585 0.432373 0.977295 0.441406 0.998779 0.231689 0.979248 0.119629 0.998047 0.107422 0.02124 0.580078 0.039062 0.593506 0.046143 0.727783 0.02124 0.580078 0.046143 0.727783 0.003418 0.597168 0.425293 0.896484 0.4729 0.889893 0.472412 0.972412 0.4729 0.889893 0.425293 0.896484 0.426514 0.885498 0.425293 0.896484 0.472412 0.972412 0.441406 0.93042 0.366943 0.645752 0.228027 0.696045 0.283203 0.668457 0.366943 0.645752 0.283203 0.668457 0.370605 0.63916 0.228027 0.696045 0.366943 0.645752 0.374756 0.664551 0.374756 0.664551 0.366943 0.645752 0.370605 0.63916 0.228027 0.696045 0.374756 0.664551 0.205566 0.725586 0.370605 0.63916 0.283203 0.668457 0.358154 0.636475 0.358154 0.636475 0.283203 0.668457 0.19751 0.695312 0.374756 0.664551 0.370605 0.63916 0.389648 0.65625 0.358154 0.636475 0.19751 0.695312 0.253174 0.658691 0.358154 0.636475 0.253174 0.658691 0.32251 0.514404 0.32251 0.514404 0.253174 0.658691 0.196289 0.520996 0.205566 0.725586 0.374756 0.664551 0.284668 0.715332 0.284668 0.715332 0.374756 0.664551 0.389648 0.65625 0.284668 0.715332 0.389648 0.65625 0.380371 0.697998 0.284668 0.715332 0.380371 0.697998 0.213623 0.792236 0.213623 0.792236 0.380371 0.697998 0.352783 0.79541 0.400879 0.274414 0.351562 0.367188 0.246826 0.361572 0.246826 0.361572 0.351562 0.367188 0.272949 0.396973 0.272949 0.396973 0.351562 0.367188 0.327393 0.452637 0.272949 0.396973 0.327393 0.452637 0.267578 0.425781 0.272949 0.396973 0.267578 0.425781 0.240234 0.397217 0.267578 0.425781 0.327393 0.452637 0.309814 0.466064 0.309814 0.466064 0.327393 0.452637 0.32373 0.482178 0.267578 0.425781 0.309814 0.466064 0.268555 0.447998 0.267578 0.425781 0.268555 0.447998 0.242676 0.426514 0.242676 0.426514 0.268555 0.447998 0.230713 0.438232 0.230713 0.438232 0.268555 0.447998 0.246826 0.453125 0.309814 0.466064 0.32373 0.482178 0.306885 0.476562 0.309814 0.466064 0.306885 0.476562 0.268555 0.447998 0.306885 0.476562 0.32373 0.482178 0.324707 0.501953 0.246826 0.453125 0.268555 0.447998 0.287109 0.485596 0.287109 0.485596 0.268555 0.447998 0.306885 0.476562 0.287109 0.485596 0.306885 0.476562 0.324707 0.501953 0.246826 0.453125 0.287109 0.485596 0.204102 0.452637 0.287109 0.485596 0.324707 0.501953 0.314453 0.509766 0.204102 0.452637 0.287109 0.485596 0.204346 0.504883 0.204346 0.504883 0.287109 0.485596 0.314453 0.509766 0.439941 0.976074 0.432373 0.939941 0.450684 0.954834 0.439941 0.976074 0.450684 0.954834 0.468262 0.981201 0.432373 0.939941 0.439941 0.976074 0.425537 0.94043 0.425537 0.94043 0.439941 0.976074 0.424805 0.99585 0.983398 0.657227 0.998047 0.639404 0.997559 0.67041</float_array>
          <technique_common>
            <accessor source="#WoodenTrunk-mesh-map-0-array" count="1500" stride="2">
              <param name="S" type="float"/>
              <param name="T" type="float"/>
            </accessor>
          </technique_common>
        </source>
        <vertices id="WoodenTrunk-mesh-vertices">
          <input semantic="POSITION" source="#WoodenTrunk-mesh-positions"/>
        </vertices>
        <polylist material="Material_-1-material" count="6">
          <input semantic="VERTEX" source="#WoodenTrunk-mesh-vertices" offset="0"/>
          <input semantic="NORMAL" source="#WoodenTrunk-mesh-normals" offset="1"/>
          <input semantic="TEXCOORD" source="#WoodenTrunk-mesh-map-0" offset="2" set="0"/>
          <vcount>3 3 3 3 3 3 3 3 3 3 3 3 3 3 3 3 3 3 3 3 3 3 3 3 3 3 3 3 3 3 3 3 3 3 3 3 3 3 3 3 3 3 3 3 3 3 3 3 3 3 3 3 3 3 3 3 3 3 3 3 3 3 3 3 3 3 3 3 3 3 3 3 3 3 3 3 3 3 3 3 3 3 3 3 3 3 3 3 3 3 3 3 3 3 3 3 3 3 3 3 3 3 3 3 3 3 3 3 3 3 3 3 3 3 3 3 3 3 3 3 3 3 3 3 3 3 3 3 3 3 3 3 3 3 3 3 3 3 3 3 3 3 3 3 3 3 3 3 3 3 3 3 3 3 3 3 3 3 3 3 3 3 3 3 3 3 3 3 3 3 3 3 3 3 3 3 3 3 3 3 3 3 3 3 3 3 3 3 3 3 3 3 3 3 3 3 3 3 3 3 3 3 3 3 3 3 3 3 3 3 3 3 3 3 3 3 3 3 3 3 3 3 3 3 3 3 3 3 3 3 3 3 3 3 3 3 3 3 3 3 3 3 3 3 3 3 3 3 3 3 3 3 3 3 3 3 3 3 3 3 3 3 3 3 3 3 3 3 3 3 3 3 3 3 3 3 3 3 3 3 3 3 3 3 3 3 3 3 3 3 3 3 3 3 3 3 3 3 3 3 3 3 3 3 3 3 3 3 3 3 3 3 3 3 3 3 3 3 3 3 3 3 3 3 3 3 3 3 3 3 3 3 3 3 3 3 3 3 3 3 3 3 3 3 3 3 3 3 3 3 3 3 3 3 3 3 3 3 3 3 3 3 3 3 3 3 3 3 3 3 3 3 3 3 3 3 3 3 3 3 3 3 3 3 3 3 3 3 3 3 3 3 3 3 3 3 3 3 3 3 3 3 3 3 3 3 3 3 3 3 3 3 3 3 3 3 3 3 3 3 3 3 3 3 3 3 3 3 3 3 3 3 3 3 3 3 3 3 3 3 3 3 3 3 3 3 3 3 3 3 3 3 3 3 3 3 3 3 3 3 3 3 3 3 3 3 3 3 3 3 3 3 3 3 3 3 3 3 3 3 3 3 3 3 3 3 3 3 3 3 3 3 3 3 3 3 3 3 3 3</vcount>
          <p>0 0 0 1 0 1 2 0 2 1 1 3 0 1 4 3 1 5 0 2 6 2 2 7 4 2 8 4 3 9 2 3 10 5 3 11 1 4 12 3 4 13 6 4 14 6 5 15 3 5 16 7 5 17 6 6 18 7 6 19 8 6 20 6 7 21 8 7 22 9 7 23 1 8 24 6 8 25 10 8 26 10 9 27 6 9 28 9 9 29 1 10 30 10 10 31 2 10 32 10 11 33 9 11 34 11 11 35 10 12 36 11 12 37 12 12 38 2 13 39 10 13 40 13 13 41 13 14 42 10 14 43 12 14 44 2 15 45 13 15 46 5 15 47 13 16 48 12 16 49 14 16 50 5 17 51 13 17 52 15 17 53 15 18 54 13 18 55 14 18 56 5 19 57 15 19 58 16 19 59 16 20 60 15 20 61 14 20 62 16 21 63 14 21 64 17 21 65 18 22 66 4 22 67 5 22 68 4 23 69 18 23 70 19 23 71 4 24 72 19 24 73 0 24 74 0 25 75 19 25 76 3 25 77 18 26 78 5 26 79 20 26 80 20 27 81 5 27 82 16 27 83 20 28 84 16 28 85 21 28 86 21 29 87 16 29 88 17 29 89 20 30 90 21 30 91 22 30 92 20 31 93 22 31 94 23 31 95 20 32 96 23 32 97 18 32 98 18 33 99 23 33 100 24 33 101 24 34 102 23 34 103 25 34 104 18 35 105 24 35 106 26 35 107 26 36 108 24 36 109 25 36 110 18 37 111 26 37 112 19 37 113 26 38 114 25 38 115 27 38 116 19 39 117 26 39 118 28 39 119 28 40 120 26 40 121 27 40 122 19 41 123 28 41 124 3 41 125 28 42 126 27 42 127 29 42 128 28 43 129 29 43 130 3 43 131 29 44 132 27 44 133 30 44 134 29 45 135 30 45 136 31 45 137 29 46 138 31 46 139 3 46 140 31 47 141 30 47 142 32 47 143 3 48 144 31 48 145 33 48 146 33 49 147 31 49 148 32 49 149 3 50 150 33 50 151 7 50 152 33 51 153 32 51 154 34 51 155 33 52 156 34 52 157 7 52 158 12 53 159 35 53 160 14 53 161 14 54 162 35 54 163 17 54 164 35 55 165 12 55 166 11 55 167 17 56 168 35 56 169 36 56 170 35 57 171 11 57 172 37 57 173 36 58 174 35 58 175 38 58 176 36 59 177 38 59 178 39 59 179 38 60 180 35 60 181 37 60 182 37 61 183 11 61 184 9 61 185 38 62 186 37 62 187 40 62 188 38 63 189 40 63 190 41 63 191 40 64 192 37 64 193 42 64 194 42 65 195 37 65 196 9 65 197 40 66 198 42 66 199 43 66 200 42 67 201 9 67 202 44 67 203 42 68 204 44 68 205 43 68 206 43 69 207 44 69 208 45 69 209 45 70 210 44 70 211 46 70 212 44 71 213 9 71 214 8 71 215 46 72 216 44 72 217 34 72 218 34 73 219 44 73 220 8 73 221 34 74 222 8 74 223 7 74 224 38 75 225 41 75 226 39 75 227 39 76 228 41 76 229 47 76 230 39 77 231 47 77 232 48 77 233 39 78 234 48 78 235 49 78 236 39 79 237 49 79 238 36 79 239 36 80 240 49 80 241 50 80 242 36 81 243 50 81 244 17 81 245 48 82 246 47 82 247 51 82 248 51 83 249 47 83 250 52 83 251 53 84 252 47 84 253 41 84 254 52 85 255 47 85 256 54 85 257 54 86 258 47 86 259 53 86 260 53 87 261 41 87 262 40 87 263 53 88 264 40 88 265 43 88 266 53 89 267 43 89 268 55 89 269 55 90 270 43 90 271 56 90 272 54 91 273 53 91 274 57 91 275 54 92 276 57 92 277 52 92 278 57 93 279 53 93 280 55 93 281 57 94 282 55 94 283 56 94 284 52 95 285 57 95 286 58 95 287 57 96 288 56 96 289 59 96 290 60 97 291 30 97 292 27 97 293 30 98 294 60 98 295 61 98 296 30 99 297 61 99 298 32 99 299 60 100 300 27 100 301 62 100 302 62 101 303 27 101 304 25 101 305 32 102 306 61 102 307 63 102 308 63 103 309 61 103 310 60 103 311 32 104 312 63 104 313 64 104 314 64 105 315 63 105 316 65 105 317 65 106 318 63 106 319 66 106 320 66 107 321 63 107 322 60 107 323 66 108 324 60 108 325 62 108 326 62 109 327 25 109 328 23 109 329 66 110 330 62 110 331 67 110 332 62 111 333 23 111 334 68 111 335 62 112 336 68 112 337 67 112 338 68 113 339 23 113 340 22 113 341 67 114 342 68 114 343 69 114 344 69 115 345 68 115 346 70 115 347 70 116 348 68 116 349 22 116 350 69 117 351 70 117 352 71 117 353 70 118 354 22 118 355 72 118 356 72 119 357 22 119 358 21 119 359 72 120 360 21 120 361 17 120 362 67 121 363 69 121 364 73 121 365 73 122 366 69 122 367 71 122 368 74 123 369 32 123 370 64 123 371 32 124 372 74 124 373 34 124 374 34 125 375 74 125 376 75 125 377 75 126 378 74 126 379 76 126 380 34 127 381 75 127 382 46 127 383 46 128 384 75 128 385 77 128 386 78 129 387 79 129 388 80 129 389 80 130 390 79 130 391 81 130 392 81 131 393 79 131 394 82 131 395 80 132 396 81 132 397 83 132 398 78 133 399 80 133 400 77 133 401 77 134 402 80 134 403 83 134 404 77 135 405 83 135 406 84 135 407 77 136 408 84 136 409 85 136 410 77 137 411 85 137 412 86 137 413 87 138 414 17 138 415 88 138 416 72 139 417 17 139 418 87 139 419 89 140 420 79 140 421 90 140 422 79 141 423 89 141 424 82 141 425 91 142 426 78 142 427 75 142 428 75 143 429 78 143 430 77 143 431 78 144 432 91 144 433 79 144 434 92 145 435 82 145 436 89 145 437 82 146 438 92 146 439 93 146 440 82 147 441 93 147 442 94 147 443 82 148 444 94 148 445 81 148 446 93 149 447 92 149 448 95 149 449 95 150 450 92 150 451 96 150 452 81 151 453 94 151 454 97 151 455 81 152 456 97 152 457 83 152 458 83 153 459 97 153 460 98 153 461 83 154 462 98 154 463 84 154 464 97 155 465 94 155 466 99 155 467 100 156 468 96 156 469 99 156 470 100 157 471 99 157 472 94 157 473 96 158 474 100 158 475 95 158 476 95 159 477 100 159 478 101 159 479 101 160 480 100 160 481 102 160 482 95 161 483 101 161 484 103 161 485 103 162 486 101 162 487 102 162 488 95 163 489 103 163 490 93 163 491 102 164 492 100 164 493 104 164 494 104 165 495 100 165 496 94 165 497 102 166 498 104 166 499 103 166 500 104 167 501 94 167 502 93 167 503 104 168 504 93 168 505 103 168 506 92 169 507 89 169 508 96 169 509 96 170 510 89 170 511 99 170 512 75 171 513 76 171 514 91 171 515 91 172 516 76 172 517 105 172 518 105 173 519 76 173 520 106 173 521 105 174 522 106 174 523 107 174 524 107 175 525 106 175 526 108 175 527 107 176 528 108 176 529 109 176 530 106 177 531 76 177 532 110 177 533 110 178 534 76 178 535 74 178 536 110 179 537 74 179 538 64 179 539 106 180 540 110 180 541 111 180 542 106 181 543 111 181 544 108 181 545 108 182 546 111 182 547 109 182 548 111 183 549 110 183 550 112 183 551 109 184 552 111 184 553 113 184 554 113 185 555 111 185 556 112 185 557 99 186 558 89 186 559 90 186 560 90 187 561 79 187 562 91 187 563 43 188 564 114 188 565 56 188 566 114 189 567 43 189 568 45 189 569 114 190 570 45 190 571 86 190 572 50 191 573 49 191 574 48 191 575 50 192 576 48 192 577 115 192 578 115 193 579 48 193 580 51 193 581 50 194 582 115 194 583 116 194 584 115 195 585 51 195 586 58 195 587 58 196 588 51 196 589 52 196 590 116 197 591 115 197 592 117 197 593 118 198 594 116 198 595 119 198 596 119 199 597 116 199 598 117 199 599 117 200 600 115 200 601 120 200 602 120 201 603 115 201 604 58 201 605 119 202 606 117 202 607 121 202 608 119 203 609 121 203 610 122 203 611 122 204 612 121 204 613 123 204 614 123 205 615 121 205 616 124 205 617 124 206 618 121 206 619 117 206 620 124 207 621 117 207 622 120 207 623 124 208 624 120 208 625 125 208 626 125 209 627 120 209 628 58 209 629 124 210 630 125 210 631 126 210 632 126 211 633 125 211 634 127 211 635 127 212 636 125 212 637 114 212 638 114 213 639 125 213 640 58 213 641 127 214 642 114 214 643 86 214 644 114 215 645 58 215 646 59 215 647 114 216 648 59 216 649 56 216 650 59 217 651 58 217 652 57 217 653 86 218 654 45 218 655 46 218 656 86 219 657 46 219 658 77 219 659 17 220 660 50 220 661 88 220 662 88 221 663 50 221 664 128 221 665 128 222 666 50 222 667 129 222 668 129 223 669 50 223 670 116 223 671 129 224 672 116 224 673 128 224 674 130 225 675 127 225 676 86 225 677 127 226 678 130 226 679 126 226 680 130 227 681 86 227 682 85 227 683 131 228 684 124 228 685 126 228 686 124 229 687 131 229 688 123 229 689 131 230 690 126 230 691 132 230 692 132 231 693 126 231 694 133 231 695 133 232 696 126 232 697 130 232 698 133 233 699 130 233 700 85 233 701 123 234 702 131 234 703 134 234 704 123 235 705 134 235 706 122 235 707 134 236 708 131 236 709 135 236 710 122 237 711 134 237 712 136 237 713 136 238 714 134 238 715 135 238 716 118 239 717 137 239 718 116 239 719 116 240 720 137 240 721 128 240 722 137 241 723 118 241 724 138 241 725 138 242 726 118 242 727 139 242 728 128 243 729 137 243 730 140 243 731 140 244 732 137 244 733 138 244 734 128 245 735 140 245 736 88 245 737 140 246 738 138 246 739 141 246 740 140 247 741 141 247 742 88 247 743 87 248 744 88 248 745 141 248 746 142 249 747 85 249 748 84 249 749 85 250 750 142 250 751 133 250 752 142 251 753 84 251 754 98 251 755 143 252 756 118 252 757 119 252 758 143 253 759 119 253 760 122 253 761 143 254 762 122 254 763 136 254 764 139 255 765 118 255 766 143 255 767 67 256 768 73 256 769 144 256 770 67 257 771 144 257 772 66 257 773 144 258 774 73 258 775 145 258 776 145 259 777 73 259 778 146 259 779 146 260 780 73 260 781 71 260 782 146 261 783 71 261 784 147 261 785 147 262 786 71 262 787 72 262 788 144 263 789 145 263 790 148 263 791 148 264 792 145 264 793 149 264 794 149 265 795 145 265 796 150 265 797 149 266 798 150 266 799 151 266 800 149 267 801 151 267 802 148 267 803 144 268 804 148 268 805 152 268 806 144 269 807 152 269 808 153 269 809 144 270 810 153 270 811 66 270 812 153 271 813 152 271 814 154 271 815 154 272 816 152 272 817 155 272 818 66 273 819 153 273 820 156 273 821 156 274 822 153 274 823 154 274 824 66 275 825 156 275 826 65 275 827 156 276 828 154 276 829 157 276 830 157 277 831 154 277 832 158 277 833 65 278 834 156 278 835 159 278 836 159 279 837 156 279 838 157 279 839 65 280 840 159 280 841 64 280 842 64 281 843 159 281 844 110 281 845 110 282 846 159 282 847 157 282 848 157 283 849 158 283 850 160 283 851 157 284 852 160 284 853 110 284 854 110 285 855 160 285 856 112 285 857 148 286 858 151 286 859 152 286 860 152 287 861 151 287 862 161 287 863 150 288 864 162 288 865 151 288 866 151 289 867 162 289 868 161 289 869 162 290 870 150 290 871 163 290 872 163 291 873 150 291 874 145 291 875 163 292 876 145 292 877 146 292 878 164 293 879 146 293 880 147 293 881 146 294 882 164 294 883 163 294 884 163 295 885 164 295 886 165 295 887 165 296 888 164 296 889 166 296 890 165 297 891 166 297 892 167 297 893 165 298 894 167 298 895 168 298 896 165 299 897 168 299 898 163 299 899 168 300 900 167 300 901 169 300 902 168 301 903 169 301 904 170 301 905 163 302 906 168 302 907 171 302 908 171 303 909 168 303 910 170 303 911 163 304 912 171 304 913 162 304 914 171 305 915 170 305 916 172 305 917 171 306 918 172 306 919 162 306 920 172 307 921 170 307 922 173 307 923 162 308 924 172 308 925 161 308 926 174 309 927 175 309 928 172 309 929 161 310 930 172 310 931 176 310 932 176 311 933 172 311 934 175 311 935 161 312 936 176 312 937 155 312 938 161 313 939 155 313 940 152 313 941 176 314 942 175 314 943 177 314 944 176 315 945 177 315 946 155 315 947 177 316 948 175 316 949 178 316 950 155 317 951 177 317 952 158 317 953 155 318 954 158 318 955 154 318 956 158 319 957 177 319 958 160 319 959 179 320 960 175 320 961 174 320 962 179 321 963 174 321 964 180 321 965 175 322 966 179 322 967 178 322 968 178 323 969 179 323 970 113 323 971 113 324 972 179 324 973 109 324 974 72 325 975 71 325 976 70 325 977 178 326 978 160 326 979 177 326 980 160 327 981 178 327 982 112 327 983 164 328 984 147 328 985 181 328 986 164 329 987 181 329 988 166 329 989 178 330 990 113 330 991 112 330 992 147 331 993 72 331 994 87 331 995 182 332 996 99 332 997 90 332 998 181 333 999 147 333 1000 183 333 1001 183 334 1002 147 334 1003 87 334 1004 90 335 1005 91 335 1006 105 335 1007 90 336 1008 105 336 1009 184 336 1010 90 337 1011 184 337 1012 185 337 1013 185 338 1014 184 338 1015 186 338 1016 184 339 1017 105 339 1018 107 339 1019 184 340 1020 107 340 1021 187 340 1022 187 341 1023 107 341 1024 109 341 1025 187 342 1026 109 342 1027 180 342 1028 188 343 1029 185 343 1030 186 343 1031 90 344 1032 185 344 1033 182 344 1034 188 345 1035 186 345 1036 189 345 1037 190 346 1038 191 346 1039 189 346 1040 189 347 1041 191 347 1042 133 347 1043 189 348 1044 133 348 1045 142 348 1046 189 349 1047 142 349 1048 98 349 1049 189 350 1050 98 350 1051 188 350 1052 188 351 1053 98 351 1054 192 351 1055 188 352 1056 192 352 1057 185 352 1058 192 353 1059 98 353 1060 97 353 1061 185 354 1062 192 354 1063 182 354 1064 182 355 1065 192 355 1066 97 355 1067 182 356 1068 97 356 1069 99 356 1070 174 357 1071 172 357 1072 173 357 1073 174 358 1074 173 358 1075 193 358 1076 169 359 1077 194 359 1078 170 359 1079 194 360 1080 169 360 1081 195 360 1082 195 361 1083 169 361 1084 167 361 1085 170 362 1086 194 362 1087 196 362 1088 195 363 1089 167 363 1090 166 363 1091 170 364 1092 196 364 1093 173 364 1094 195 365 1095 166 365 1096 197 365 1097 197 366 1098 166 366 1099 181 366 1100 197 367 1101 181 367 1102 198 367 1103 197 368 1104 198 368 1105 199 368 1106 197 369 1107 199 369 1108 195 369 1109 195 370 1110 199 370 1111 200 370 1112 195 371 1113 200 371 1114 194 371 1115 194 372 1116 200 372 1117 201 372 1118 194 373 1119 201 373 1120 196 373 1121 196 374 1122 201 374 1123 202 374 1124 196 375 1125 202 375 1126 203 375 1127 196 376 1128 203 376 1129 173 376 1130 203 377 1131 202 377 1132 204 377 1133 173 378 1134 203 378 1135 193 378 1136 203 379 1137 204 379 1138 180 379 1139 203 380 1140 180 380 1141 193 380 1142 180 381 1143 204 381 1144 187 381 1145 193 382 1146 180 382 1147 174 382 1148 109 383 1149 179 383 1150 180 383 1151 205 384 1152 201 384 1153 200 384 1154 205 385 1155 200 385 1156 199 385 1157 201 386 1158 205 386 1159 206 386 1160 206 387 1161 205 387 1162 207 387 1163 201 388 1164 206 388 1165 208 388 1166 207 389 1167 205 389 1168 209 389 1169 209 390 1170 205 390 1171 199 390 1172 209 391 1173 199 391 1174 210 391 1175 210 392 1176 199 392 1177 198 392 1178 201 393 1179 208 393 1180 202 393 1181 202 394 1182 208 394 1183 204 394 1184 204 395 1185 208 395 1186 211 395 1187 204 396 1188 211 396 1189 187 396 1190 198 397 1191 181 397 1192 212 397 1193 213 398 1194 186 398 1195 184 398 1196 213 399 1197 184 399 1198 187 399 1199 186 400 1200 213 400 1201 190 400 1202 186 401 1203 190 401 1204 189 401 1205 190 402 1206 213 402 1207 191 402 1208 187 403 1209 214 403 1210 213 403 1211 213 404 1212 214 404 1213 215 404 1214 183 405 1215 212 405 1216 181 405 1217 212 406 1218 183 406 1219 216 406 1220 212 407 1221 216 407 1222 217 407 1223 212 408 1224 217 408 1225 198 408 1226 217 409 1227 216 409 1228 218 409 1229 198 410 1230 217 410 1231 210 410 1232 210 411 1233 217 411 1234 218 411 1235 210 412 1236 218 412 1237 219 412 1238 210 413 1239 219 413 1240 220 413 1241 210 414 1242 220 414 1243 221 414 1244 221 415 1245 220 415 1246 222 415 1247 211 416 1248 214 416 1249 187 416 1250 214 417 1251 211 417 1252 223 417 1253 223 418 1254 211 418 1255 224 418 1256 224 419 1257 211 419 1258 225 419 1259 224 420 1260 225 420 1261 226 420 1262 225 421 1263 211 421 1264 208 421 1265 225 422 1266 208 422 1267 206 422 1268 226 423 1269 225 423 1270 222 423 1271 225 424 1272 206 424 1273 207 424 1274 225 425 1275 207 425 1276 222 425 1277 222 426 1278 207 426 1279 227 426 1280 222 427 1281 227 427 1282 221 427 1283 227 428 1284 207 428 1285 209 428 1286 221 429 1287 227 429 1288 210 429 1289 210 430 1290 227 430 1291 209 430 1292 183 431 1293 87 431 1294 141 431 1295 136 432 1296 135 432 1297 228 432 1298 136 433 1299 228 433 1300 143 433 1301 143 434 1302 228 434 1303 229 434 1304 143 435 1305 229 435 1306 139 435 1307 229 436 1308 228 436 1309 230 436 1310 139 437 1311 229 437 1312 231 437 1313 229 438 1314 230 438 1315 232 438 1316 231 439 1317 229 439 1318 233 439 1319 233 440 1320 229 440 1321 232 440 1322 234 441 1323 183 441 1324 141 441 1325 183 442 1326 234 442 1327 235 442 1328 234 443 1329 141 443 1330 231 443 1331 235 444 1332 234 444 1333 233 444 1334 233 445 1335 234 445 1336 231 445 1337 141 446 1338 138 446 1339 231 446 1340 231 447 1341 138 447 1342 139 447 1343 131 448 1344 132 448 1345 236 448 1346 131 449 1347 236 449 1348 135 449 1349 236 450 1350 132 450 1351 237 450 1352 237 451 1353 132 451 1354 133 451 1355 133 452 1356 191 452 1357 237 452 1358 237 453 1359 191 453 1360 213 453 1361 237 454 1362 213 454 1363 215 454 1364 238 455 1365 228 455 1366 135 455 1367 228 456 1368 238 456 1369 230 456 1370 238 457 1371 135 457 1372 236 457 1373 239 458 1374 220 458 1375 219 458 1376 239 459 1377 219 459 1378 240 459 1379 220 460 1380 239 460 1381 241 460 1382 241 461 1383 239 461 1384 240 461 1385 220 462 1386 241 462 1387 222 462 1388 240 463 1389 219 463 1390 242 463 1391 242 464 1392 219 464 1393 218 464 1394 241 465 1395 240 465 1396 243 465 1397 242 466 1398 218 466 1399 216 466 1400 242 467 1401 216 467 1402 235 467 1403 235 468 1404 216 468 1405 183 468 1406 222 469 1407 241 469 1408 226 469 1409 226 470 1410 241 470 1411 243 470 1412 226 471 1413 243 471 1414 244 471 1415 226 472 1416 244 472 1417 224 472 1418 224 473 1419 244 473 1420 223 473 1421 214 474 1422 223 474 1423 215 474 1424 215 475 1425 223 475 1426 245 475 1427 245 476 1428 223 476 1429 244 476 1430 245 477 1431 244 477 1432 246 477 1433 245 478 1434 246 478 1435 247 478 1436 246 479 1437 244 479 1438 248 479 1439 248 480 1440 244 480 1441 243 480 1442 246 481 1443 248 481 1444 249 481 1445 246 482 1446 249 482 1447 238 482 1448 238 483 1449 249 483 1450 230 483 1451 230 484 1452 249 484 1453 232 484 1454 248 485 1455 243 485 1456 250 485 1457 248 486 1458 250 486 1459 249 486 1460 250 487 1461 243 487 1462 240 487 1463 232 488 1464 249 488 1465 251 488 1466 251 489 1467 249 489 1468 250 489 1469 251 490 1470 250 490 1471 240 490 1472 232 491 1473 251 491 1474 233 491 1475 251 492 1476 240 492 1477 242 492 1478 233 493 1479 251 493 1480 235 493 1481 235 494 1482 251 494 1483 242 494 1484 247 495 1485 237 495 1486 215 495 1487 247 496 1488 215 496 1489 245 496 1490 237 497 1491 247 497 1492 236 497 1493 236 498 1494 247 498 1495 238 498 1496 238 499 1497 247 499 1498 246 499 1499</p>
        </polylist>
      </mesh>
    </geometry>
  </library_geometries>
  <library_visual_scenes>
    <visual_scene id="Scene" name="Scene">
      <node id="WoodenTrunk" name="WoodenTrunk" type="NODE">
        <scale sid="scale">1 1 1</scale>
        <translate sid="location">0 0 0</translate>
        <rotate sid="rotationX">1 0 0 0</rotate>
        <rotate sid="rotationY">0 1 0 0</rotate>
        <rotate sid="rotationZ">0 0 1 0</rotate>
        <instance_geometry url="#WoodenTrunk-mesh" name="WoodenTrunk">
          <bind_material>
            <technique_common>
            </technique_common>
          </bind_material>
        </instance_geometry>
      </node>
    </visual_scene>
  </library_visual_scenes>
  <scene>
    <instance_visual_scene url="#Scene"/>
  </scene>
</COLLADA>
